<?xml version="1.0" encoding="utf-8"?>
<!-- Generator: Adobe Illustrator 19.0.1, SVG Export Plug-In . SVG Version: 6.00 Build 0)  -->
<svg version="1.1" id="Layer_1" xmlns="http://www.w3.org/2000/svg" xmlns:xlink="http://www.w3.org/1999/xlink" x="0px" y="0px"
	 viewBox="0 0 100 100" enable-background="new 0 0 100 100" xml:space="preserve">
<g>
	<path fill="#643282" d="M14.5,37.4c0,0.1,0.1,0.2,0.2,0.2c0,0,0-0.1,0.1-0.1l0,0h0.1v0.1c0,0,0,0.1,0.1,0.1
		c0.1,0.1,0.1,0.1,0.1,0.2c0,0.1,0.1,0.2,0.2,0.3c0.1,0.1,0.2,0.1,0.3,0.1c0,0.1,0,0.1-0.1,0.2h-0.1c0,0.1,0,0.1,0.1,0.2
		c0,0.1,0,0.1,0,0.2c0,0.1,0.1,0.1,0.1,0.2v0.1c0,0.1,0,0.1,0,0.1v0.1c0,0,0,0.1,0.1,0.1v0.1v0.1v0.1c0,0,0,0.1,0.1,0.1
		c0,0.2,0,0.2,0.1,0.3c0,0.3,0.1,0.5,0.1,0.5c0,0.3,0,0.4,0.1,0.5c0,0.1,0,0.2,0,0.3s0.1,0.2,0,0.3v0.1c0,0,0,0.1,0,0.2
		c0,0.1,0,0.1,0,0.2c0,0,0,0,0.1,0c0,0,0,0,0.1,0c0,0.2,0,0.4,0,0.4c0,0.1,0,0.1,0,0.1l0,0l0,0c0,0,0,0,0,0.1V43c0,0,0,0.1,0,0.2
		c0,0.1,0,0.3,0.1,0.5s0.1,0.4,0,0.6c0.1,0.1,0.2,0.3,0.2,0.5c0,0.1,0,0.1,0,0.1s0,0,0,0.1c0,0,0,0.1,0.1,0.1c0,0,0,0.1,0,0.2
		c0,0.1,0,0.1,0,0.2s0,0.1,0,0.1s0,0.1,0.1,0.1c0,0,0,0.1,0,0.2c0,0.1,0,0.2,0,0.2c0,0.1,0,0.1,0.1,0.2c0,0.1,0.1,0.1,0,0.2l0.1,0.1
		c0,0.1,0,0.1-0.1,0.2c0,0.1,0,0.1,0,0.2c0,0.1,0,0.1,0,0.1s0,0,0,0.1c0,0,0,0,0,0.1l0,0c0.1,0.2,0.1,0.3,0,0.3
		c0,0.3,0.1,0.5,0.1,0.6h0.1c0,0,0,0.2,0,0.5v0.1c0,0,0,0.1,0.1,0.2c0,0,0,0.1,0,0.2c0,0.1,0,0.2,0,0.2s0,0.1,0.1,0.2
		c0,0.1,0,0.1,0.1,0.2c0,0.1,0,0.2,0,0.2v0.1v0.1c0,0.1,0,0.1,0.1,0.1c0,0.2,0.1,0.3,0.1,0.3c0,0.1-0.1,0.2,0,0.2l0,0v0.1V51
		c0,0,0,0.1,0.1,0.1c0,0.1,0,0.1,0,0.2c0,0.1,0,0.1,0,0.3c0,0.1,0,0.2,0,0.3V52l0.1,0.1c0,0.2,0.1,0.4,0.1,0.4s0.1,0.1,0.2,0.1
		s0.2,0.1,0.2,0.1v0.1c0,0,0,0.1,0.1,0.1s0.1,0,0.2,0.1c0,0.1,0,0.2,0,0.3c0.1,0.1,0.1,0.2,0.1,0.3s0.1,0.1,0.1,0.1
		c0,0.1-0.1,0.2-0.2,0.2c0,0,0,0.1,0,0.2c0,0.1,0,0.2-0.1,0.3c-0.1,0-0.1,0.1-0.1,0.1c0,0.1,0,0.1,0,0.2c0,0.1,0,0.1,0,0.1
		s0,0,0,0.1V55v0.1l0.1,0.1c0,0.1,0,0.1,0,0.2c0,0.1,0,0.2,0.1,0.2c0,0.4,0.1,0.7,0.2,0.8c0,0.3,0,0.5,0.1,0.6c0,0.1,0,0.2,0.1,0.2
		c0,0,0,0,0.1,0l0,0v0.1c0,0.1,0,0.1,0,0.1c0,0.1,0,0.1,0,0.1s0,0.1,0.1,0.1c0,0.1,0,0.2,0.1,0.3s0.1,0.2,0.1,0.2s0.1,0.1,0.1,0.3
		c0,0.1,0.1,0.2,0.2,0.3c0,0.2,0.1,0.2,0.2,0.2c0,0,0,0.1,0.1,0.1c0,0.1,0.1,0.1,0.1,0.2c0.1,0.1,0.2,0.2,0.2,0.3l0.1,0.1v0.1v0.1
		c0,0.1,0,0.1,0,0.1c0,0.1,0,0.2,0,0.3s0,0.2,0,0.3c0.1,0.1,0.1,0.2,0,0.4c-0.1,0-0.1,0.1-0.2,0.2c-0.1,0-0.2,0.1-0.3,0.2
		c-0.1,0.1-0.2,0.2-0.3,0.2v0.1v0.1h-0.3c0-0.1-0.1-0.2-0.2-0.3C19,60.8,19,60.8,19,60.7c-0.2,0-0.3,0-0.3-0.1v0.1v0.1
		c0,0-0.1,0-0.1-0.1s0-0.1,0-0.1c0-0.1-0.1-0.1-0.1-0.1c-0.2-0.2-0.3-0.4-0.5-0.4c0-0.2-0.1-0.4-0.2-0.4c0-0.1,0-0.1,0-0.2l0,0
		c0-0.1-0.1-0.1-0.1-0.3c-0.1-0.1-0.1-0.2-0.1-0.2h-0.1c0-0.2,0-0.3-0.1-0.4c0-0.1,0-0.2-0.1-0.3c0,0,0,0-0.1,0l0,0v-0.1
		c0-0.1,0-0.1,0-0.1s0-0.1-0.1-0.1c0-0.1,0-0.1,0-0.2h-0.2l0.1-0.2c0-0.1,0-0.2-0.1-0.2c0-0.2,0-0.4-0.1-0.4v-0.1c0-0.1,0-0.1,0-0.1
		v-0.1v-0.1c0,0,0-0.1-0.1-0.2c0-0.1,0-0.2,0-0.2c0-0.3-0.1-0.4-0.1-0.4v-0.1c0-0.1,0-0.1,0-0.1s0-0.1-0.1-0.1v-0.1v-0.1
		c0-0.1,0-0.1,0-0.1s0,0,0-0.1c0,0,0,0,0-0.1s-0.1-0.2-0.1-0.2h-0.1c-0.1,0-0.1,0-0.1,0c-0.1,0-0.2,0.1-0.2,0.1l0,0l0,0
		c0,0,0,0-0.1,0c0,0,0,0-0.1,0c0,0-0.1,0-0.1,0.1c0,0,0,0-0.1-0.1c0,0-0.1,0-0.1,0.1l-0.1,0.1c0-0.1-0.1-0.1-0.2-0.1
		C15,54.8,15,54.9,15,55c-0.1,0-0.2,0-0.2,0c0-0.1-0.1-0.1-0.2-0.1c0,0,0,0-0.1,0.1c0,0-0.1,0-0.2-0.1c-0.1,0-0.2,0-0.3,0.2
		c-0.1,0-0.2,0-0.2,0C13.7,55,13.6,55,13.5,55s-0.2,0.1-0.3,0.1c-0.4,0-0.6,0-0.7,0c-0.1,0-0.2,0-0.3,0s-0.2,0-0.3,0
		c0,0.1,0,0.1,0,0.2c0,0-0.1,0-0.2-0.2c0,0-0.1,0-0.1,0.1c0,0-0.1,0-0.2,0c-0.1,0-0.2,0-0.2,0s0,0-0.1-0.1c0,0,0,0-0.1,0
		s-0.1,0-0.1,0.1c-0.1-0.1-0.1-0.1-0.2-0.1c0,0,0,0-0.1,0.1c0,0.1-0.1,0.1-0.1,0.1c0-0.1-0.1-0.2-0.1-0.2s-0.1,0-0.1,0.1
		c-0.1,0.1-0.1,0.1-0.1,0.1s0,0.1-0.1,0.2c0,0.1,0,0.2-0.1,0.3v0.1c0,0,0,0.1-0.1,0.1c0,0,0,0.1-0.1,0.1c0,0.1,0,0.1,0,0.2
		c0,0.1-0.1,0.2-0.1,0.3l0,0l0,0v0.1c0,0,0,0.1-0.1,0.2c0,0.1,0,0.2-0.1,0.4c0,0.1,0,0.1,0,0.2c-0.1,0.1-0.1,0.1-0.1,0.1s0,0,0,0.1
		v0.1c0,0,0,0-0.1,0.1c-0.1,0-0.1,0-0.1,0.1c0,0.2-0.1,0.4-0.2,0.4c0,0.1,0,0.2,0,0.3H8.9c-0.1,0.3-0.1,0.4-0.1,0.4
		c0,0.1,0,0.1,0.1,0.2c0,0,0,0.1-0.1,0.1c0,0,0,0.1-0.1,0.2c0,0-0.1,0.1-0.1,0.3V60v0.1c0,0,0,0,0,0.1v0.1c-0.1,0.2-0.1,0.3-0.1,0.4
		l-0.1,0.1c0,0.1,0,0.1-0.1,0.2v0.1v0.1c0,0,0,0.1-0.1,0.1l0,0c0,0,0,0-0.1,0c0,0,0,0.1-0.1,0.2c0,0-0.1,0-0.1,0.1s-0.1,0.1-0.1,0.1
		s0,0-0.1-0.1c0,0,0-0.1-0.1-0.1H7.5H7.4c0-0.1,0-0.2,0-0.2c-0.2,0-0.3,0-0.4,0c0-0.1,0-0.2-0.1-0.2H6.8H6.7c0,0,0,0,0-0.1v-0.1H6.6
		c0,0.1,0,0.1,0,0.1c0-0.1,0-0.1-0.1-0.2C6.4,61,6.4,61,6.4,60.9c-0.1,0-0.1,0-0.1,0c0-0.1,0-0.2,0-0.2H6.2c0-0.1,0-0.3,0-0.4l0,0
		l0,0c0.1-0.1,0.1-0.3,0.1-0.5c-0.1-0.1-0.1-0.2-0.1-0.2h0.1l0,0c0,0,0-0.1,0-0.2h0.1c0,0,0-0.1,0-0.2c0-0.1,0-0.1,0-0.1L6.5,59
		c0-0.1,0-0.2,0.1-0.3c0-0.1,0-0.1,0-0.1v-0.1c0.1,0,0.2-0.1,0.2-0.2c0,0,0.1,0,0.1-0.1s0-0.2,0-0.2c0-0.1,0-0.1,0-0.1v-0.1
		c0-0.1,0-0.1,0-0.1s0-0.1,0.1-0.1c0-0.1,0.1-0.2,0.1-0.3c0.1-0.1,0.1-0.2,0.1-0.3c0-0.2,0.1-0.2,0.1-0.3s0-0.3,0.1-0.4
		c0.1-0.2,0.1-0.3,0.1-0.4c0,0,0.1,0,0.1-0.1s0.1-0.1,0.1-0.1c0-0.1,0-0.2,0-0.3C8,55.1,8,55,8,54.9s-0.1-0.1,0-0.2h0.1
		c0.1-0.1,0.1-0.2,0-0.3c-0.1,0-0.2,0-0.2,0c0-0.2-0.1-0.4-0.3-0.6c0,0,0,0,0.1-0.1c0,0,0,0,0-0.1s0-0.1-0.1-0.2
		c-0.1-0.1-0.1-0.1-0.1-0.1s0.1-0.1,0.2-0.4c0-0.1,0.1-0.2,0.2-0.3C8,52.8,8,52.7,8,52.7l0.4-0.1c0,0,0.1,0,0.3,0
		c0.1,0,0.2,0,0.2-0.1v-0.1c0-0.1,0-0.1,0-0.1s0,0,0.1-0.1s0-0.1,0-0.1V52c0,0,0-0.1,0.1-0.1v-0.1c0-0.2,0.1-0.3,0.2-0.4
		c0.1-0.2,0.1-0.4,0-0.5c0,0,0.1-0.1,0.1-0.2c0-0.1,0.1-0.2,0.1-0.2c0-0.1,0-0.2,0.1-0.3c0-0.1,0.1-0.2,0-0.3c0-0.1,0.1-0.1,0.1-0.2
		c0-0.1,0.1-0.2,0.1-0.2c0-0.1,0-0.2,0.1-0.3c0,0,0-0.1,0.1-0.2c0,0,0,0,0-0.1c0,0,0,0,0-0.1c0.1-0.1,0.1-0.1,0.1-0.2v-0.1v-0.1
		c0,0,0,0,0.1-0.1c0.1-0.2,0.1-0.3,0.1-0.4V48c0,0,0,0,0-0.1c0,0,0.1,0,0.1-0.1v-0.1c0-0.1,0-0.1,0-0.1c0.1-0.2,0.1-0.3,0.1-0.4
		c0,0,0-0.1,0.1-0.1c0,0,0-0.1,0.1-0.1v-0.1c0-0.1,0-0.1,0-0.1s0-0.1,0.1-0.1l0.1-0.1v-0.1c0-0.1,0-0.1,0-0.2l0.1-0.1
		c0.1-0.2,0.1-0.4,0.1-0.4c0-0.1,0-0.2,0.1-0.3c0-0.1,0.1-0.3,0.1-0.4c0,0,0.1-0.1,0.1-0.3s0.1-0.3,0.1-0.3c0-0.1,0-0.1,0.1-0.2
		c0-0.1,0-0.1,0.1-0.1v-0.1V44c0,0,0.1,0,0.1-0.1l0.1-0.1c0,0,0-0.1,0-0.2c0-0.1,0-0.1,0-0.2l0,0h-0.1c0-0.1,0-0.1,0-0.2
		c0.1,0,0.1,0,0.2,0v-0.1V43v-0.1c0,0,0-0.1,0.1-0.1c0-0.1,0-0.1,0-0.2c0-0.1,0-0.1,0-0.1c0-0.1,0-0.1,0.1-0.3
		c0.1-0.1,0.1-0.2,0.1-0.3c0.1-0.1,0.1-0.1,0.1-0.3c0-0.1,0-0.2,0.1-0.2v-0.1l0.1-0.1c0-0.1,0.1-0.1,0.1-0.1c0-0.1,0-0.2,0-0.3
		s0.1-0.2,0.1-0.2v-0.1v-0.1c0,0,0-0.1,0.1-0.2c0-0.1,0-0.1,0.1-0.2c0-0.1,0.1-0.1,0.1-0.2v-0.1c0-0.1,0-0.1,0-0.2
		c0.1-0.2,0.1-0.4,0.1-0.4h0.1c0-0.2,0-0.3,0.1-0.4c0-0.1,0-0.2,0.1-0.2c0,0,0,0,0-0.1s0,0,0-0.1c0,0,0,0-0.1,0c0-0.1,0-0.1,0-0.2
		h0.1c0-0.1,0-0.1,0-0.2c-0.1-0.2-0.1-0.2,0-0.2s0.1,0,0.1-0.1c0,0,0,0,0,0.1s0,0,0.1,0c0-0.1,0-0.1,0.1-0.3c0-0.1,0-0.1,0-0.1l0,0
		l0,0c0.2-0.2,0.4-0.2,0.6-0.1C14.5,37.3,14.5,37.3,14.5,37.4c0-0.1,0.1-0.1,0.1-0.2C14.3,37.3,14.4,37.3,14.5,37.4z M14.5,37.4
		c0,0.1,0.1,0.2,0.2,0.2c0,0,0-0.1,0.1-0.1l0,0h0.1v0.1c0,0,0,0.1,0.1,0.1c0.1,0.1,0.1,0.1,0.1,0.2c0,0.1,0.1,0.2,0.2,0.3
		c0.1,0.1,0.2,0.1,0.3,0.1c0,0.1,0,0.1-0.1,0.2h-0.1c0,0.1,0,0.1,0.1,0.2c0,0.1,0,0.1,0,0.2c0,0.1,0.1,0.1,0.1,0.2v0.1
		c0,0.1,0,0.1,0,0.1v0.1c0,0,0,0.1,0.1,0.1v0.1v0.1v0.1c0,0,0,0.1,0.1,0.1c0,0.2,0,0.2,0.1,0.3c0,0.3,0.1,0.5,0.1,0.5
		c0,0.3,0,0.4,0.1,0.5c0,0.1,0,0.2,0,0.3s0.1,0.2,0,0.3v0.1c0,0,0,0.1,0,0.2c0,0.1,0,0.1,0,0.2c0,0,0,0,0.1,0c0,0,0,0,0.1,0
		c0,0.2,0,0.4,0,0.4c0,0.1,0,0.1,0,0.1l0,0l0,0c0,0,0,0,0,0.1V43v0.1v0.1c0,0.1,0,0.2,0.1,0.5c0.1,0.2,0.1,0.4,0,0.6
		c0.1,0.1,0.2,0.3,0.2,0.5c0,0.1,0,0.1,0,0.1s0,0,0,0.1c0,0,0,0.1,0.1,0.1c0,0,0,0.1,0,0.2c0,0.1,0,0.1,0,0.2s0,0.1,0,0.1
		s0,0.1,0.1,0.1c0,0,0,0.1,0,0.2c0,0.1,0,0.2,0,0.2c0,0.1,0,0.1,0.1,0.2c0,0.1,0.1,0.1,0,0.2l0.1,0.1c0,0.1,0,0.1-0.1,0.2
		c0,0.1,0,0.1,0,0.2c0,0.1,0,0.1,0,0.1s0,0,0,0.1c0,0,0,0,0,0.1l0,0c0.1,0.2,0.1,0.3,0,0.3c0,0.3,0.1,0.5,0.1,0.6h0.1
		c0,0,0,0.2,0,0.5v0.1c0,0,0,0.1,0.1,0.2c0,0,0,0.1,0,0.2c0,0.1,0,0.2,0,0.2s0,0.1,0.1,0.2c0,0.1,0,0.1,0.1,0.2c0,0.1,0,0.2,0,0.2
		v0.1v0.1c0,0.1,0,0.1,0.1,0.1c0,0.2,0.1,0.3,0.1,0.3c0,0.1-0.1,0.2,0,0.2l0,0v0.1V51c0,0,0,0.1,0.1,0.1c0,0.1,0,0.1,0,0.2
		c0,0.1,0,0.1,0,0.3c0,0.1,0,0.2,0,0.3V52l0.1,0.1c0,0.2,0.1,0.4,0.1,0.4s0.1,0.1,0.2,0.1s0.2,0.1,0.2,0.1v0.1c0,0,0,0.1,0.1,0.1
		s0.1,0,0.2,0.1c0,0.1,0,0.2,0,0.3c0.1,0.1,0.1,0.2,0.1,0.3s0.1,0.1,0.1,0.1c0,0.1-0.1,0.2-0.2,0.2c0,0,0,0.1,0,0.2
		c0,0.1,0,0.2-0.1,0.3c-0.1,0-0.1,0.1-0.1,0.1c0,0.1,0,0.1,0,0.2c0,0.1,0,0.1,0,0.1s0,0,0,0.1V55v0.1l0.1,0.1c0,0.1,0,0.1,0,0.2
		c0,0.1,0,0.2,0.1,0.2c0,0.4,0.1,0.7,0.2,0.8c0,0.3,0,0.5,0.1,0.6c0,0.1,0,0.2,0.1,0.2h0.1v0.1c0,0.1,0,0.1,0,0.1c0,0.1,0,0.1,0,0.1
		s0,0.1,0.1,0.1c0,0.1,0,0.2,0.1,0.3s0.1,0.2,0.1,0.2s0.1,0.1,0.1,0.3c0,0.1,0.1,0.2,0.2,0.3c0,0.2,0.1,0.2,0.2,0.2
		c0,0,0,0.1,0.1,0.1c0,0.1,0.1,0.1,0.1,0.2c0.1,0.1,0.2,0.2,0.2,0.3l0.1,0.1v0.1v0.1c0,0.1,0,0.1,0,0.1c0,0.1,0,0.2,0,0.3
		s0,0.2,0,0.3c0.1,0.1,0.1,0.2,0,0.4c-0.1,0-0.1,0.1-0.2,0.2c-0.1,0-0.2,0.1-0.3,0.2c-0.1,0.1-0.2,0.2-0.3,0.2v0.1v0.1h-0.3
		c0-0.1-0.1-0.2-0.2-0.3C19,60.8,19,60.8,19,60.7c-0.2,0-0.3,0-0.3-0.1v0.1v0.1c0,0-0.1,0-0.1-0.1s0-0.1,0-0.1
		c0-0.1-0.1-0.1-0.1-0.1c-0.2-0.2-0.3-0.4-0.5-0.4c0-0.2-0.1-0.4-0.2-0.4c0-0.1,0-0.1,0-0.2l0,0c0-0.1-0.1-0.1-0.1-0.3
		c-0.1-0.1-0.1-0.2-0.1-0.2h-0.1c0-0.2,0-0.3-0.1-0.4c0-0.1,0-0.2-0.1-0.3c0,0,0,0-0.1,0l0,0v-0.1c0-0.1,0-0.1,0-0.1s0-0.1-0.1-0.1
		c0-0.1,0-0.1,0-0.2h-0.2l0.1-0.2c0-0.1,0-0.2-0.1-0.2c0-0.2,0-0.4-0.1-0.4v-0.1c0-0.1,0-0.1,0-0.1v-0.1v-0.1c0,0,0-0.1-0.1-0.2
		c0-0.1,0-0.2,0-0.2c0-0.3-0.1-0.4-0.1-0.4v-0.1c0-0.1,0-0.1,0-0.1s0-0.1-0.1-0.1v-0.1v-0.1c0-0.1,0-0.1,0-0.1s0,0,0-0.1
		c0,0,0,0,0-0.1s-0.1-0.2-0.1-0.2h-0.1c-0.1,0-0.1,0-0.1,0c-0.1,0-0.2,0.1-0.2,0.1l0,0l0,0c0,0,0,0-0.1,0c0,0,0,0-0.1,0
		c0,0-0.1,0-0.1,0.1c0,0,0,0-0.1-0.1c0,0-0.1,0-0.1,0.1l-0.1,0.1c0-0.1-0.1-0.1-0.2-0.1C15,54.8,15,54.9,15,55c-0.1,0-0.2,0-0.2,0
		c0-0.1-0.1-0.1-0.2-0.1c0,0,0,0-0.1,0.1c0,0-0.1,0-0.2-0.1c-0.1,0-0.2,0-0.3,0.2c-0.1,0-0.2,0-0.2,0C13.7,55,13.6,55,13.5,55
		s-0.2,0.1-0.3,0.1c-0.4,0-0.6,0-0.7,0c-0.1,0-0.2,0-0.3,0s-0.2,0-0.3,0c0,0.1,0,0.1,0,0.2c0,0-0.1,0-0.2-0.2c0,0-0.1,0-0.1,0.1
		c0,0-0.1,0-0.2,0c-0.1,0-0.2,0-0.2,0s0,0-0.1-0.1c0,0,0,0-0.1,0s-0.1,0-0.1,0.1c-0.1-0.1-0.1-0.1-0.2-0.1c0,0,0,0-0.1,0.1
		c0,0.1-0.1,0.1-0.1,0.1c0-0.1-0.1-0.2-0.1-0.2s-0.1,0-0.1,0.1c-0.1,0.1-0.1,0.1-0.1,0.1s0,0.1-0.1,0.2c0,0.1,0,0.2-0.1,0.3v0.1
		c0,0,0,0.1-0.1,0.1c0,0,0,0.1-0.1,0.1c0,0.1,0,0.1,0,0.2c0,0.1-0.1,0.2-0.1,0.3l0,0l0,0v0.1c0,0,0,0.1-0.1,0.2c0,0.1,0,0.2-0.1,0.4
		c0,0.1,0,0.1,0,0.2c-0.1,0.1-0.1,0.1-0.1,0.1s0,0,0,0.1v0.1c0,0,0,0-0.1,0.1c-0.1,0-0.1,0-0.1,0.1c0,0.2-0.1,0.4-0.2,0.4
		c0,0.1,0,0.2,0,0.3H8.9c-0.1,0.3-0.1,0.4-0.1,0.4c0,0.1,0,0.1,0.1,0.2c0,0,0,0.1-0.1,0.1c0,0,0,0.1-0.1,0.2c0,0-0.1,0.1-0.1,0.3V60
		v0.1c0,0,0,0,0,0.1v0.1c-0.1,0.2-0.1,0.3-0.1,0.4l-0.1,0.1c0,0.1,0,0.1-0.1,0.2v0.1v0.1c0,0,0,0.1-0.1,0.1l0,0c0,0,0,0-0.1,0
		c0,0,0,0.1-0.1,0.2c0,0-0.1,0-0.1,0.1s-0.1,0.1-0.1,0.1s0,0-0.1-0.1c0,0,0-0.1-0.1-0.1H7.5H7.4c0-0.1,0-0.2,0-0.2
		c-0.2,0-0.3,0-0.4,0c0-0.1,0-0.2-0.1-0.2H6.8H6.7c0,0,0,0,0-0.1v-0.1H6.6c0,0.1,0,0.1,0,0.1c0-0.1,0-0.1-0.1-0.2
		C6.4,61,6.4,61,6.4,60.9c-0.1,0-0.1,0-0.1,0c0-0.1,0-0.2,0-0.2H6.2c0-0.1,0-0.3,0-0.4l0,0l0,0c0.1-0.1,0.1-0.3,0.1-0.5
		c-0.1-0.1-0.1-0.2-0.1-0.2h0.1l0,0c0,0,0-0.1,0-0.2h0.1c0,0,0-0.1,0-0.2c0-0.1,0-0.1,0-0.1L6.5,59c0-0.1,0-0.2,0.1-0.3
		c0-0.1,0-0.1,0-0.1v-0.1c0.1,0,0.2-0.1,0.2-0.2c0,0,0.1,0,0.1-0.1s0-0.2,0-0.2c0-0.1,0-0.1,0-0.1v-0.1c0-0.1,0-0.1,0-0.1
		s0-0.1,0.1-0.1c0-0.1,0.1-0.2,0.1-0.3c0.1-0.1,0.1-0.2,0.1-0.3c0-0.2,0.1-0.2,0.1-0.3s0-0.3,0.1-0.4c0.1-0.2,0.1-0.3,0.1-0.4
		c0,0,0.1,0,0.1-0.1s0.1-0.1,0.1-0.1c0-0.1,0-0.2,0-0.3C8,55.1,8,55,8,54.9s-0.1-0.1,0-0.2h0.1c0.1-0.1,0.1-0.2,0-0.3
		c-0.1,0-0.2,0-0.2,0c0-0.2-0.1-0.4-0.3-0.6c0,0,0,0,0.1-0.1c0,0,0,0,0-0.1s0-0.1-0.1-0.2c-0.1-0.1-0.1-0.1-0.1-0.1s0.1-0.1,0.2-0.4
		c0-0.1,0.1-0.2,0.2-0.3C8,52.8,8,52.7,8,52.7l0.4-0.1c0,0,0.1,0,0.3,0c0.1,0,0.2,0,0.2-0.1v-0.1c0-0.1,0-0.1,0-0.1s0,0,0.1-0.1
		s0-0.1,0-0.1V52c0,0,0-0.1,0.1-0.1v-0.1c0-0.2,0.1-0.3,0.2-0.4c0.1-0.2,0.1-0.4,0-0.5c0,0,0.1-0.1,0.1-0.2c0-0.1,0.1-0.2,0.1-0.2
		c0-0.1,0-0.2,0.1-0.3c0-0.1,0.1-0.2,0-0.3c0-0.1,0.1-0.1,0.1-0.2c0-0.1,0.1-0.2,0.1-0.2c0-0.1,0-0.2,0.1-0.3c0,0,0-0.1,0.1-0.2
		c0,0,0,0,0-0.1c0,0,0,0,0-0.1c0.1-0.1,0.1-0.1,0.1-0.2v-0.1v-0.1c0,0,0,0,0.1-0.1c0.1-0.2,0.1-0.3,0.1-0.4V48c0,0,0,0,0-0.1
		c0,0,0.1,0,0.1-0.1v-0.1c0-0.1,0-0.1,0-0.1c0.1-0.2,0.1-0.3,0.1-0.4c0,0,0-0.1,0.1-0.1c0,0,0-0.1,0.1-0.1v-0.1c0-0.1,0-0.1,0-0.1
		s0-0.1,0.1-0.1l0.1-0.1v-0.1c0-0.1,0-0.1,0-0.2l0.1-0.1c0.1-0.2,0.1-0.4,0.1-0.4c0-0.1,0-0.2,0.1-0.3c0-0.1,0.1-0.3,0.1-0.4
		c0,0,0.1-0.1,0.1-0.3s0.1-0.3,0.1-0.3c0-0.1,0-0.1,0.1-0.2c0-0.1,0-0.1,0.1-0.1v-0.1V44c0,0,0.1,0,0.1-0.1l0.1-0.1c0,0,0-0.1,0-0.2
		c0-0.1,0-0.1,0-0.2l0,0h-0.1c0-0.1,0-0.1,0-0.2c0.1,0,0.1,0,0.2,0v-0.1V43v-0.1c0,0,0-0.1,0.1-0.1c0-0.1,0-0.1,0-0.2
		c0-0.1,0-0.1,0-0.1c0-0.1,0-0.1,0.1-0.3c0.1-0.1,0.1-0.2,0.1-0.3c0.1-0.1,0.1-0.1,0.1-0.3c0-0.1,0-0.2,0.1-0.2v-0.1l0.1-0.1
		c0-0.1,0.1-0.1,0.1-0.1c0-0.1,0-0.2,0-0.3s0.1-0.2,0.1-0.2v-0.1v-0.1c0,0,0-0.1,0.1-0.2c0-0.1,0-0.1,0.1-0.2c0-0.1,0.1-0.1,0.1-0.2
		v-0.1c0-0.1,0-0.1,0-0.2c0.1-0.2,0.1-0.4,0.1-0.4h0.1c0-0.2,0-0.3,0.1-0.4c0-0.1,0-0.2,0.1-0.2c0,0,0,0,0-0.1s0,0,0-0.1
		c0,0,0,0-0.1,0c0-0.1,0-0.1,0-0.2h0.1c0-0.1,0-0.1,0-0.2c-0.1-0.2-0.1-0.2,0-0.2s0.1,0,0.1-0.1c0,0,0,0,0,0.1s0,0,0.1,0
		c0-0.1,0-0.1,0.1-0.3c0-0.1,0-0.1,0-0.1l0,0l0,0c0.2-0.2,0.4-0.2,0.6-0.1C14.5,37.3,14.5,37.3,14.5,37.4c0-0.1,0.1-0.1,0.1-0.2
		C14.3,37.3,14.4,37.3,14.5,37.4z M8,54.8L8,54.8C8,54.9,8,54.9,8,54.8z M8,54.8C8,54.9,8,54.9,8,54.8L8,54.8z M14,42.6
		c0,0.1,0,0.1-0.1,0.1l-0.1,0.1v0.1c0,0.1,0,0.1,0,0.2c0,0.1-0.1,0.1-0.1,0.1s0,0,0,0.1v0.1v0.1v0.1c0,0,0,0.1,0,0.2
		c0,0.1,0,0.2-0.1,0.2v0.1c0,0.1-0.1,0.2-0.1,0.4c0,0.1-0.1,0.1-0.1,0.1v0.1c0,0.1,0,0.1,0,0.2c0,0.1-0.1,0.1-0.1,0.1s0,0,0,0.1
		s0,0.1,0,0.1v0.1l-0.1,0.1c0,0,0,0.1,0,0.2c0,0.1,0,0.1,0,0.2L13,46c0,0,0,0.1,0,0.2v0.1l-0.1,0.3c0,0-0.1,0.1-0.1,0.2
		c0,0.1,0,0.2-0.1,0.3c0,0.1,0,0.1,0,0.1c-0.1,0.2-0.1,0.3-0.1,0.4c0,0,0,0.1-0.1,0.2c0,0.1-0.1,0.2-0.1,0.2l-0.1,0.3v0.1
		c0,0,0,0,0,0.1c0,0,0,0,0,0.1c0,0,0,0,0,0.1c0,0,0,0,0,0.1v0.1V49c-0.1,0.2-0.1,0.3-0.1,0.4c0,0.1,0,0.1-0.1,0.2
		C12,49.7,12,49.7,12,49.8v0.1V50c0,0,0,0.1,0,0.2c0,0.1,0,0.1,0,0.2c0,0,0,0-0.1,0.1l-0.1,0.1c0,0,0,0.1,0,0.2c0,0.1,0,0.2,0,0.2
		s-0.1,0.1-0.1,0.2c-0.1,0.1-0.1,0.2-0.1,0.4c0,0-0.1,0.1-0.1,0.2c0,0.1-0.1,0.2-0.1,0.2c0,0.3,0,0.5-0.1,0.5c0,0.1,0,0.2-0.1,0.2
		c0,0,0,0.1-0.1,0.1v0.1V53v0.1c0,0.1,0.1,0.1,0.3,0c0,0,0,0,0.1,0s0.1,0,0.1,0s0,0,0.1,0c0,0,0,0,0.1,0h0.1c0,0,0,0,0.1,0
		c0,0,0,0,0.1,0c0.3,0,0.5,0,0.6-0.1c0.1,0.1,0.3,0.1,0.4,0c0,0,0,0,0.1,0l0.1-0.1c0,0,0,0,0.1,0c0,0,0,0,0.1,0c0.2,0,0.3,0,0.4,0
		c0,0,0,0,0.1,0c0,0,0,0,0.1,0c0.1,0.1,0.2,0.1,0.3,0.1l0.1-0.1c0.1,0,0.2,0,0.3,0s0.3,0,0.3,0c0-0.1,0.1-0.1,0.1-0.1h0.1l0.1-0.1
		h0.1h0.1c0,0,0.1,0,0.1-0.1c0.1-0.1,0.1-0.1,0.1-0.1v-0.1v-0.1c0,0,0,0,0-0.1v-0.1c0,0,0,0,0-0.1v-0.1c-0.1-0.3-0.1-0.5-0.1-0.7
		c0,0,0,0-0.1,0v-0.1c0-0.1,0-0.1,0-0.3c0,0,0,0,0-0.1s0-0.1,0-0.1s0,0,0-0.1v-0.1v-0.1c0-0.1,0-0.1-0.1-0.2c0-0.1,0-0.1,0-0.2v-0.1
		c0-0.1,0-0.1,0-0.1s0,0-0.1-0.1c0-0.1,0-0.2,0-0.3c0,0-0.1-0.1-0.1-0.2c0-0.1,0-0.2,0-0.3s0-0.2,0-0.3s-0.1-0.2-0.1-0.3v-0.3v-0.1
		v-0.1v-0.1v-0.1c0,0,0-0.1,0-0.2c0-0.1,0-0.1,0-0.2V47c0-0.1,0-0.2,0-0.2s-0.1-0.1-0.1-0.4c0-0.1-0.1-0.1-0.1-0.1v-0.1v-0.1V46
		v-0.1v-0.1c0-0.1,0-0.2,0-0.2s0-0.1-0.1-0.1c0-0.1-0.1-0.1-0.1-0.2v-0.1v-0.1c0,0,0-0.1-0.1-0.1v-0.1c0,0,0-0.1,0-0.2
		c0-0.1,0-0.2,0-0.2v-0.1c0,0,0-0.1-0.1-0.1c0,0,0-0.1,0-0.2c0,0,0-0.1,0-0.2c0-0.1,0-0.2,0-0.2c-0.1-0.1-0.1-0.2-0.1-0.6
		C14.1,43.1,14.1,42.9,14,42.6L14,42.6z M14,42.7C13.9,42.8,13.9,42.8,14,42.7C13.9,42.8,13.9,42.8,14,42.7
		c-0.1,0.1-0.1,0.2-0.1,0.2c0,0.1,0,0.1,0,0.2c0,0.1-0.1,0.1-0.1,0.1s0,0,0,0.1v0.1v0.1v0.1c0,0,0,0.1,0,0.2c0,0.1,0,0.2-0.1,0.2
		v0.1c0,0.1-0.1,0.2-0.1,0.4c0,0.1-0.1,0.1-0.1,0.1v0.1c0,0.1,0,0.1,0,0.2c0,0.1-0.1,0.1-0.1,0.1s0,0,0,0.1s0,0.1,0,0.1v0.1
		l-0.1,0.1c0,0,0,0.1,0,0.2c0,0.1,0,0.1,0,0.2L13,46c0,0,0,0.1,0,0.2v0.1l-0.1,0.3c0,0-0.1,0.1-0.1,0.2c0,0.1,0,0.2-0.1,0.3
		c0,0.1,0,0.1,0,0.1c-0.1,0.2-0.1,0.3-0.1,0.4c0,0,0,0.1-0.1,0.2c0,0.1-0.1,0.2-0.1,0.2l-0.1,0.3v0.1c0,0,0,0,0,0.1c0,0,0,0,0,0.1
		c0,0,0,0,0,0.1c0,0,0,0,0,0.1v0.1V49c-0.1,0.2-0.1,0.3-0.1,0.4c0,0.1,0,0.1-0.1,0.2C12,49.7,12,49.7,12,49.8v0.1V50
		c0,0,0,0.1,0,0.2c0,0.1,0,0.1,0,0.2c0,0,0,0-0.1,0.1l-0.1,0.1c0,0.1,0,0.1,0,0.2c0,0.1,0,0.2,0,0.2s-0.1,0.1-0.1,0.2
		c-0.1,0.1-0.1,0.2-0.1,0.4c0,0-0.1,0.1-0.1,0.2c0,0.1-0.1,0.2-0.1,0.2c0,0.3,0,0.5-0.1,0.5c0,0.1,0,0.2-0.1,0.2c0,0,0,0.1-0.1,0.1
		v0.1V53v0.1c0,0.1,0.1,0.1,0.3,0c0,0,0.1,0,0.2,0c0,0,0,0,0.1,0c0,0,0,0,0.1,0h0.1c0,0,0,0,0.1,0c0,0,0,0,0.1,0
		c0.3,0,0.5,0,0.6-0.1c0.1,0.1,0.3,0.1,0.4,0c0,0,0,0,0.1,0l0.1-0.1c0,0,0,0,0.1,0c0,0,0,0,0.1,0c0.2,0,0.3,0,0.4,0c0,0,0,0,0.1,0
		c0,0,0,0,0.1,0c0.1,0.1,0.2,0.1,0.3,0.1l0.1-0.1c0.1,0,0.2,0,0.3,0s0.3,0,0.3,0c0-0.1,0.1-0.1,0.1-0.1h0.1l0.1-0.1h0.1h0.1
		c0,0,0.1,0,0.1-0.1c0.1-0.1,0.1-0.1,0.1-0.1v-0.1v-0.1c0,0,0,0,0-0.1v-0.1c0,0,0,0,0-0.1v-0.1c-0.1-0.3-0.1-0.5-0.1-0.7
		c0,0,0,0-0.1,0v-0.1c0-0.1,0-0.1,0-0.3c0,0,0,0,0-0.1s0-0.1,0-0.1s0,0,0-0.1v-0.1v-0.1c0-0.1,0-0.1-0.1-0.2c0-0.1,0-0.1,0-0.2v-0.1
		c0-0.1,0-0.1,0-0.1s0,0-0.1-0.1c0-0.1,0-0.2,0-0.3c0,0-0.1-0.1-0.1-0.2c0-0.1,0-0.2,0-0.3s0-0.2,0-0.3s-0.1-0.2-0.1-0.3v-0.3v-0.1
		v-0.1v-0.1v-0.1c0,0,0-0.1,0-0.2c0-0.1,0-0.1,0-0.2V47c0-0.1,0-0.2,0-0.2s-0.1-0.1-0.1-0.4c0-0.1-0.1-0.1-0.1-0.1v-0.1v-0.1V46
		v-0.1v-0.1c0-0.1,0-0.2,0-0.2s0-0.1-0.1-0.1c0-0.1-0.1-0.1-0.1-0.2v-0.1v-0.1c0,0,0-0.1-0.1-0.1v-0.1c0,0,0-0.1,0-0.2
		c0-0.1,0-0.2,0-0.2v-0.1c0,0,0-0.1-0.1-0.1c0,0,0-0.1,0-0.2c0,0,0-0.1,0-0.2c0-0.1,0-0.2,0-0.2c-0.1-0.1-0.1-0.2-0.1-0.6
		c-0.1,0-0.1-0.2-0.1-0.5l0,0C14,42.6,14,42.7,14,42.7z M15.2,54.9C15.2,54.9,15.3,54.9,15.2,54.9C15.2,55,15.2,55,15.2,54.9z
		 M15.3,55C15.2,55,15.2,55,15.3,55C15.2,54.9,15.3,54.9,15.3,55z M15.6,38.9L15.6,38.9C15.6,39,15.6,39,15.6,38.9L15.6,38.9z
		 M15.6,38.9L15.6,38.9L15.6,38.9C15.6,39,15.6,39,15.6,38.9z"/>
	<path fill="#643282" d="M28.9,41.4c0.2,0.1,0.3,0.2,0.3,0.2c0,0.1,0,0.1,0.1,0.2c0,0,0,0,0.1,0c0,0.1,0,0.2,0.1,0.3v0.1
		c0,0.1,0,0.2,0,0.3s0,0.1,0,0.2c0,0.1,0,0.1,0,0.1v0.1V43h-0.1c0,0.1-0.1,0.1-0.1,0.2c-0.1,0.1-0.2,0.2-0.3,0.2h-0.1h-0.1
		c0,0,0,0-0.1,0.1c0,0,0,0-0.1,0c0,0-0.1,0-0.2,0c0,0,0,0-0.1,0c0,0,0-0.1-0.1-0.1h-0.1H28c0,0,0,0-0.1,0l0,0c0,0,0,0,0-0.1
		l-0.1-0.1c-0.2,0-0.4,0-0.4,0.1v0.1c-0.2,0-0.3,0.1-0.3,0.2l0,0l0,0c0,0-0.1,0-0.2,0.1C27.1,43.9,27,44,27,44v0.1l-0.1,0.1h-0.1
		c-0.2,0.2-0.4,0.4-0.4,0.6h-0.1c0,0,0,0,0,0.1c0,0,0,0,0,0.1c-0.1,0-0.1,0.1-0.2,0.2c-0.1,0.1-0.2,0.2-0.2,0.3s0,0.2-0.1,0.3
		s-0.1,0.2-0.1,0.3c0,0-0.1,0.1-0.1,0.2c0,0.1-0.1,0.1-0.1,0.1v0.1v0.1c0,0-0.1,0.1-0.1,0.2v0.1c0,0.1,0,0.2-0.1,0.3
		c0,0.1-0.1,0.2-0.1,0.2s-0.1,0.1-0.1,0.2c0,0.1-0.1,0.2-0.1,0.2V48c-0.1,0.1-0.1,0.2-0.1,0.2v0.2c-0.1,0.2-0.2,0.4-0.1,0.6h-0.1
		c0,0.1,0,0.2,0,0.5h-0.1c0,0.1,0,0.2,0,0.4s0,0.3-0.1,0.4c0,0.1,0,0.2,0,0.3s0,0.1-0.1,0.1c0,0.3-0.1,0.6-0.1,1c0,0,0,0.3,0,0.8
		s0,0.8,0,0.9c0,0.1,0,0.1,0,0.1c0,0.2,0,0.3,0.1,0.3c0,0.1,0,0.2,0,0.3s0,0.3,0,0.3c0,0.1,0,0.1,0.1,0.2c-0.1,0.3,0,0.5,0.1,0.5
		c0,0.1-0.1,0.2,0,0.3c0,0,0,0.1,0.1,0.1v0.1c0,0,0,0,0,0.1v0.1c0,0,0,0.1,0.1,0.2c0,0.1,0,0.1,0.1,0.3c0,0.1,0,0.2,0.1,0.3
		c0,0.1,0.1,0.1,0.1,0.2c0.2,0.4,0.3,0.7,0.4,0.7c0,0,0,0,0,0.1s0,0,0,0.1c0,0,0.1,0.1,0.2,0.1c0,0.1,0,0.1,0.1,0.2l0.1,0.1v0.1
		c0,0,0,0,0.1,0c0,0,0,0,0.1,0c0,0,0,0.1,0.1,0.1c0,0.1,0.1,0.1,0.1,0.1s0.1,0,0.3,0c0,0,0.1,0,0.1,0.1s0,0.1,0.1,0.1h0.1H27
		c0,0,0.1,0,0.2,0c0,0,0.1,0,0.2,0.1s0.1,0.1,0.2,0.1c0,0,0,0,0.1,0c0,0,0,0,0.1,0h0.1c0.1,0,0.1,0,0.1,0c0.1,0.1,0.1,0.2,0.2,0.2
		h0.1c0.1,0,0.1,0,0.1,0c0.3,0,0.5,0,0.5-0.1c0.2,0,0.3,0.1,0.3,0.1s0,0,0.1-0.1v-0.1c0.2,0.1,0.3,0.1,0.4,0c0.2,0,0.3,0,0.4-0.2
		c0.2,0,0.2,0,0.3-0.1c0.1,0.1,0.1,0,0.2,0c0,0,0,0,0.1,0c0,0,0,0,0.1,0c0,0,0.1,0,0.2-0.1c0,0,0.1,0,0.2-0.1s0.1-0.1,0.2-0.1
		c0,0,0.1-0.1,0.2-0.1c0.1-0.1,0.2-0.1,0.2-0.2c0.1,0,0.1-0.1,0.2-0.2c0,0,0.1,0,0.2-0.1c0.1,0,0.2,0,0.2-0.1
		c0.1-0.1,0.1-0.1,0.2-0.1c0,0,0,0,0-0.1l0,0c0,0,0,0,0.1,0c0,0,0,0,0.1,0c0-0.1,0.1-0.1,0.1-0.2c0-0.1,0.1-0.1,0.1-0.2
		c0.2-0.2,0.3-0.3,0.3-0.5c0.1,0,0.1,0,0.1,0c0-0.1,0.1-0.1,0.1-0.1c0.1,0,0.1,0,0.2,0c0-0.1,0.1-0.1,0.2-0.1c0.1,0,0.2,0,0.2,0.1
		h0.1c0.1,0,0.1,0.1,0.2,0.2c0.1,0,0.1,0,0.1,0s0.1,0.1,0.1,0.2c0,0.1,0.1,0.2,0.2,0.2c0,0.1,0,0.1,0,0.1l0.1,0.1l0.1,0.1
		c0,0.1,0,0.2,0.1,0.4c0.1,0.1,0.1,0.2,0.1,0.3c-0.1,0.1-0.1,0.2-0.1,0.2v0.1c0,0,0,0-0.1,0c0,0.1,0,0.2,0,0.2
		c-0.1,0-0.1,0.1-0.2,0.2c-0.1,0.1-0.2,0.2-0.2,0.3c-0.1,0.1-0.2,0.1-0.2,0.2c-0.1,0-0.2,0.1-0.4,0.3c0,0-0.1,0-0.1,0.1
		s-0.1,0.1-0.2,0.1c0,0-0.1,0.1-0.2,0.1c-0.1,0.1-0.1,0.1-0.2,0.2c-0.2,0.1-0.3,0.2-0.4,0.4L32.3,60c-0.1,0.1-0.2,0.2-0.2,0.3
		c-0.2,0-0.3,0.1-0.4,0.2c-0.1,0-0.2,0-0.2,0.2c0,0,0,0-0.1,0c0,0,0,0-0.1,0c0,0-0.1,0-0.1,0.1c0,0,0,0-0.1,0c0,0,0,0-0.1,0
		c0,0-0.1,0.1-0.2,0.1s-0.2,0-0.2,0s0,0,0,0.1h-0.1c0,0-0.1,0.1-0.1,0.2c0,0-0.1,0-0.2-0.1c-0.2,0-0.3,0-0.3,0.2
		c0,0.1-0.1,0.1-0.1,0h-0.1c-0.1-0.1-0.3-0.1-0.6,0c-0.2,0.1-0.3,0.1-0.3,0.1h-0.1h-0.1v0.1v0.1h-0.2l-0.2-0.2h-0.1H28
		c0,0,0,0-0.1,0h-0.1h-0.1c-0.1,0-0.1,0-0.1,0s0,0-0.1-0.1c0,0,0,0-0.1,0s-0.1,0-0.1,0c-0.1,0-0.1,0-0.1,0s-0.1,0-0.1-0.1
		c-0.1,0-0.1-0.1-0.1-0.1s0,0-0.1,0h-0.1V61c0,0-0.1-0.1-0.2-0.1c0,0,0,0-0.1,0c0,0,0,0-0.1,0c0,0,0-0.1,0-0.2h-0.1h-0.1
		c-0.1-0.2-0.2-0.2-0.2,0c0,0-0.1-0.1-0.1-0.2c0,0-0.1,0-0.2-0.1s-0.2-0.1-0.2-0.1h-0.1c0-0.1,0-0.1,0-0.1h-0.2c0-0.1,0-0.1,0-0.1
		s0,0-0.1,0H25c0,0-0.1,0-0.1-0.1s0-0.1,0-0.2c-0.1,0-0.1,0-0.2,0c-0.1-0.1-0.1-0.1-0.2-0.1c0-0.1,0-0.2-0.1-0.3s-0.2-0.1-0.2-0.2
		c-0.1-0.3-0.2-0.4-0.4-0.4c0-0.1,0-0.2-0.2-0.3c-0.1-0.1-0.2-0.2-0.2-0.3c-0.1-0.2-0.2-0.3-0.3-0.4c0-0.1,0-0.2-0.1-0.3
		s-0.2-0.2-0.2-0.3c0,0,0,0-0.1,0l0,0c0-0.2,0-0.2-0.1-0.3c0-0.1,0-0.2-0.1-0.3c0-0.2,0-0.4-0.1-0.5h-0.1c-0.1-0.2-0.1-0.4,0-0.5
		c-0.1-0.2-0.1-0.3-0.2-0.4c0,0,0-0.1,0-0.2c0-0.1,0-0.2,0-0.2C22,54.6,22,54.5,22,54.4v-0.1l-0.1-0.1c0-0.2,0-0.3,0-0.3
		c0-0.2,0-0.3,0-0.4h-0.1v-0.1v-0.1v-0.1c0,0,0,0,0-0.1c0,0,0,0,0-0.1v-0.1c0,0,0-0.1,0-0.2c0-0.1,0-0.2,0-0.2
		c0.1-0.1,0-0.2-0.1-0.3c0,0,0,0,0-0.1l0,0l0,0c0,0,0,0,0-0.1v-0.1v-0.1v-0.1v-0.1c0,0,0-0.1,0.1-0.3c-0.1,0-0.1-0.3,0-0.7
		s0.2-0.7,0.2-0.7v-0.1c-0.1-0.1-0.1-0.2,0-0.4c0-0.1,0-0.1,0-0.1s0,0,0.1-0.1c0,0,0.1,0,0.1-0.1c0,0,0-0.1-0.1-0.1c0,0,0,0,0-0.1
		s0.1,0,0.1-0.1c0,0,0-0.1-0.1-0.1c0,0,0-0.1,0-0.2c0-0.1,0-0.2,0-0.2l0.1-0.1c0-0.1,0-0.2,0-0.3c0-0.2,0-0.3,0-0.4
		c0-0.1,0.1-0.2,0.1-0.3c0-0.2,0.1-0.3,0.1-0.3c0-0.1,0-0.1,0.1-0.2c0,0-0.1-0.1,0-0.2c0-0.1,0-0.2,0-0.2s0.1-0.1,0.1-0.2
		c0-0.1,0.1-0.2,0.1-0.2c0-0.1,0-0.2,0.1-0.4c0-0.1-0.1-0.1,0-0.2c0-0.1,0-0.1,0.1-0.2c0-0.2,0.1-0.4,0.2-0.5c0-0.1,0-0.2,0.1-0.2
		c0.1-0.1,0.1-0.2,0.1-0.2c0-0.1,0.1-0.1,0.1-0.2v-0.1c0.1-0.2,0.1-0.3,0.1-0.3l0.1-0.1l0.1-0.1c0-0.1,0-0.1,0-0.2
		c0.1,0,0.1-0.1,0.2-0.3c0.1-0.1,0.2-0.2,0.3-0.4c0.1-0.1,0.2-0.2,0.3-0.5c0,0,0.1,0,0.1,0.1c0.1-0.1,0.1-0.2,0.2-0.3
		c0.1,0,0.2-0.2,0.5-0.6c0.1,0,0.1,0,0.1-0.1c0,0,0,0,0.1,0l0,0l0.1-0.1l0.1-0.1c0,0,0.1,0,0.2-0.1c0.2,0,0.3,0,0.3-0.1
		c0.1,0,0.1,0,0.2-0.1c0-0.1,0.1-0.1,0.1-0.1h0.1h0.1h0.1h0.1c0,0,0.1,0,0.1,0.1h0.1c0,0,0,0,0.1,0h0.1c0,0,0,0,0.1,0
		c0,0,0,0.1,0.1,0.1s0.2,0,0.4,0c0.1,0.1,0.2,0.1,0.3,0.1c0,0.1,0.1,0.2,0.3,0.2c0.1,0.1,0.1,0.1,0.1,0.1h0.1
		C28.9,41.4,28.9,41.4,28.9,41.4z M28.7,41.3h0.1c0,0.1,0,0.1,0,0.1c0.2,0.1,0.3,0.2,0.3,0.2c0,0.1,0,0.1,0.1,0.2c0,0,0,0,0.1,0
		c0,0.1,0,0.2,0.1,0.3v0.1c0,0.1,0,0.2,0,0.3s0,0.1,0,0.2c0,0.1,0,0.1,0,0.1v0.1V43h-0.1c0,0.1-0.1,0.1-0.1,0.2
		c-0.1,0.1-0.2,0.2-0.3,0.2h-0.1h-0.1c0,0,0,0-0.1,0.1c0,0,0,0-0.1,0c0,0-0.1,0-0.2,0c0,0,0,0-0.1,0c0,0,0-0.1-0.1-0.1H28h-0.1
		c0,0,0,0-0.1,0l0,0c0,0,0,0,0-0.1l-0.1-0.1c-0.2,0-0.4,0-0.4,0.1v0.1c-0.2,0-0.3,0.1-0.3,0.2l0,0l0,0c0,0-0.1,0-0.2,0.1
		C27.1,43.9,27,44,27,44v0.1l-0.1,0.1h-0.1c-0.2,0.2-0.4,0.4-0.4,0.6h-0.1c0,0,0,0,0,0.1c0,0,0,0,0,0.1c-0.1,0-0.1,0.1-0.2,0.2
		c-0.1,0.1-0.2,0.2-0.2,0.3s0,0.2-0.1,0.3s-0.1,0.2-0.1,0.3c0,0-0.1,0.1-0.1,0.2c0,0.1-0.1,0.1-0.1,0.1v0.1v0.1c0,0-0.1,0.1-0.1,0.2
		v0.1c0,0.1,0,0.2-0.1,0.3c0,0.1-0.1,0.2-0.1,0.2s-0.1,0.1-0.1,0.2c0,0.1-0.1,0.2-0.1,0.2V48c-0.1,0.1-0.1,0.2-0.1,0.2v0.2
		c-0.1,0.2-0.2,0.4-0.1,0.6h-0.1c0,0.1,0,0.2,0,0.5h-0.1c0,0.1,0,0.2,0,0.4s0,0.3-0.1,0.4c0,0.1,0,0.2,0,0.3s0,0.1-0.1,0.1
		c0,0.3-0.1,0.6-0.1,1c0,0,0,0.3,0,0.8s0,0.8,0,0.9c0,0.1,0,0.1,0,0.1c0,0.2,0,0.3,0.1,0.3c0,0.1,0,0.2,0,0.3s0,0.3,0,0.3
		c0,0.1,0,0.1,0.1,0.2c-0.1,0.3,0,0.5,0.1,0.5c0,0.1-0.1,0.2,0,0.3c0,0,0,0.1,0.1,0.1v0.1c0,0,0,0,0,0.1v0.1c0,0,0,0.1,0.1,0.2
		c0,0.1,0,0.1,0.1,0.3c0,0.1,0,0.2,0.1,0.3c0,0.1,0.1,0.1,0.1,0.2c0.2,0.4,0.3,0.7,0.4,0.7c0,0,0,0,0,0.1s0,0,0,0.1
		c0,0,0.1,0.1,0.2,0.1c0,0.1,0,0.1,0.1,0.2l0.1,0.1v0.1c0,0,0,0,0.1,0c0,0,0,0,0.1,0c0,0,0,0.1,0.1,0.1c0,0.1,0.1,0.1,0.1,0.1
		s0.1,0,0.3,0c0,0,0.1,0,0.1,0.1s0,0.1,0.1,0.1h0.1H27h0.1c0,0,0.1,0,0.2,0.1s0.1,0.1,0.2,0.1c0,0,0,0,0.1,0c0,0,0,0,0.1,0h0.1
		c0.1,0,0.1,0,0.1,0C28,58.9,28,59,28.1,59h0.1c0.1,0,0.1,0,0.1,0c0.3,0,0.5,0,0.5-0.1c0.2,0,0.3,0.1,0.3,0.1s0,0,0.1-0.1v-0.1
		c0.2,0.1,0.3,0.1,0.4,0c0.2,0,0.3,0,0.4-0.2c0.2,0,0.2,0,0.3-0.1c0.1,0.1,0.1,0,0.2,0c0,0,0,0,0.1,0c0,0,0,0,0.1,0
		c0,0,0.1,0,0.2-0.1c0,0,0.1,0,0.2-0.1s0.1-0.1,0.2-0.1c0,0,0.1-0.1,0.2-0.1c0.1-0.1,0.2-0.1,0.2-0.2c0.1,0,0.1-0.1,0.2-0.2
		c0,0,0.1,0,0.2-0.1c0.1,0,0.2,0,0.2-0.1c0.1-0.1,0.1-0.1,0.2-0.1c0,0,0,0,0-0.1l0,0c0,0,0,0,0.1,0c0,0,0,0,0.1,0
		c0-0.1,0.1-0.1,0.1-0.2c0-0.1,0.1-0.1,0.1-0.2c0.2-0.2,0.3-0.3,0.3-0.5c0.1,0,0.1,0,0.1,0c0-0.1,0.1-0.1,0.1-0.1c0.1,0,0.1,0,0.2,0
		c0-0.1,0.1-0.1,0.2-0.1c0.1,0,0.2,0,0.2,0.1h0.1c0.1,0,0.1,0.1,0.2,0.2c0.1,0,0.1,0,0.1,0s0.1,0.1,0.1,0.2c0,0.1,0.1,0.2,0.2,0.2
		c0,0.1,0,0.1,0,0.1l0.1,0.1l0.1,0.1c0,0.1,0,0.2,0.1,0.4c0.1,0.1,0.1,0.2,0.1,0.3C35,58,35,58.1,35,58.1v0.1c0,0,0,0-0.1,0
		c0,0.1,0,0.2,0,0.2c-0.1,0-0.1,0.1-0.2,0.2c-0.1,0.1-0.2,0.2-0.2,0.3c-0.1,0.1-0.2,0.1-0.2,0.2c-0.1,0-0.2,0.1-0.4,0.3
		c0,0-0.1,0-0.1,0.1s-0.1,0.1-0.2,0.1c0,0-0.1,0.1-0.2,0.1c-0.1,0.1-0.1,0.1-0.2,0.2c-0.2,0.1-0.3,0.2-0.4,0.4L32.3,60
		c-0.1,0.1-0.2,0.2-0.2,0.3c-0.2,0-0.3,0.1-0.4,0.2c-0.1,0-0.2,0-0.2,0.2c0,0,0,0-0.1,0c0,0,0,0-0.1,0c0,0-0.1,0-0.1,0.1
		c0,0,0,0-0.1,0c0,0,0,0-0.1,0c0,0-0.1,0.1-0.2,0.1s-0.2,0-0.2,0s0,0,0,0.1h-0.1c0,0-0.1,0.1-0.1,0.2c0,0-0.1,0-0.2-0.1
		c-0.2,0-0.3,0-0.3,0.2c0,0.1-0.1,0.1-0.1,0h-0.1c-0.1-0.1-0.3-0.1-0.6,0c-0.2,0.1-0.3,0.1-0.3,0.1h-0.1h-0.1v0.1v0.1h-0.2l-0.2-0.2
		h-0.1H28c0,0,0,0-0.1,0h-0.1h-0.1c-0.1,0-0.1,0-0.1,0s0,0-0.1-0.1c0,0,0,0-0.1,0s-0.1,0-0.1,0c-0.1,0-0.1,0-0.1,0s-0.1,0-0.1-0.1
		c-0.1,0-0.1-0.1-0.1-0.1s0,0-0.1,0h-0.1V61c0,0-0.1-0.1-0.2-0.1c0,0,0,0-0.1,0c0,0,0,0-0.1,0c0,0,0-0.1,0-0.2h-0.1h-0.1
		c-0.1-0.2-0.2-0.2-0.2,0c0,0-0.1-0.1-0.1-0.2c0,0-0.1,0-0.2-0.1s-0.2-0.1-0.2-0.1h-0.1c0-0.1,0-0.1,0-0.1h-0.2c0-0.1,0-0.1,0-0.1
		s0,0-0.1,0H25c0,0-0.1,0-0.1-0.1s0-0.1,0-0.2c-0.1,0-0.1,0-0.2,0c-0.1-0.1-0.1-0.1-0.2-0.1c0-0.1,0-0.2-0.1-0.3s-0.2-0.1-0.2-0.2
		c-0.1-0.3-0.2-0.4-0.4-0.4c0-0.1,0-0.2-0.2-0.3c-0.1-0.1-0.2-0.2-0.2-0.3c-0.1-0.2-0.2-0.3-0.3-0.4c0-0.1,0-0.2-0.1-0.3
		s-0.2-0.2-0.2-0.3c0,0,0,0-0.1,0l0,0c0-0.2,0-0.2-0.1-0.3c0-0.1,0-0.2-0.1-0.3c0-0.2,0-0.4-0.1-0.5h-0.1c-0.1-0.2-0.1-0.4,0-0.5
		c-0.1-0.2-0.1-0.3-0.2-0.4c0,0,0-0.1,0-0.2c0-0.1,0-0.2,0-0.2C22,54.6,22,54.5,22,54.4v-0.1l-0.1-0.1c0,0,0-0.1,0-0.2
		c0-0.1,0-0.2,0-0.2c0-0.2,0-0.3,0-0.4h-0.1v-0.1v-0.1v-0.1c0,0,0,0,0-0.1c0,0,0,0,0-0.1v-0.1c0,0,0-0.1,0-0.2c0-0.1,0-0.2,0-0.2
		c0.1-0.1,0-0.2-0.1-0.3c0,0,0,0,0-0.1l0,0l0,0c0,0,0,0,0-0.1v-0.1v-0.1v-0.1v-0.1c0,0,0-0.1,0.1-0.3c-0.1,0-0.1-0.3,0-0.7
		s0.2-0.7,0.2-0.7v-0.1c-0.1-0.1-0.1-0.2,0-0.4c0-0.1,0-0.1,0-0.1s0,0,0.1-0.1c0,0,0.1,0,0.1-0.1c0,0,0-0.1-0.1-0.1c0,0,0,0,0-0.1
		s0.1,0,0.1-0.1L22,49.2c0,0,0-0.1,0-0.2c0-0.1,0-0.2,0-0.2l0.1-0.1c0-0.1,0-0.2,0-0.3c0-0.2,0-0.3,0-0.4c0-0.1,0.1-0.2,0.1-0.3
		c0-0.2,0.1-0.3,0.1-0.3c0-0.1,0-0.1,0.1-0.2c0,0-0.1-0.1,0-0.2c0-0.1,0-0.2,0-0.2s0.1-0.1,0.1-0.2c0-0.1,0.1-0.2,0.1-0.2
		c0-0.1,0-0.2,0.1-0.4c0-0.1-0.1-0.1,0-0.2c0-0.1,0-0.1,0.1-0.2c0-0.2,0.1-0.4,0.2-0.5c0-0.1,0-0.2,0.1-0.2c0.1-0.1,0.1-0.2,0.1-0.2
		c0-0.1,0.1-0.1,0.1-0.1v-0.2c0.1-0.2,0.1-0.3,0.1-0.3l0.1-0.1l0.1-0.1c0-0.1,0-0.1,0-0.2c0.1,0,0.1-0.1,0.2-0.3
		c0.1-0.1,0.2-0.2,0.3-0.4c0.1-0.1,0.2-0.2,0.3-0.5c0,0,0.1,0,0.1,0.1c0.1-0.1,0.1-0.2,0.2-0.3c0.1,0,0.2-0.2,0.5-0.6
		c0.1,0,0.1,0,0.1-0.1c0,0,0,0,0.1,0l0,0l0.1-0.1l0.1-0.1c0,0,0.1,0,0.2-0.1c0.2,0,0.3,0,0.3-0.1c0.1,0,0.1,0,0.2-0.1
		c0-0.1,0.1-0.1,0.1-0.1h0.1h0.1h0.1h0.1c0,0,0.1,0,0.1,0.1H27c0,0,0,0,0.1,0h0.1c0,0,0,0,0.1,0c0,0,0,0.1,0.1,0.1s0.2,0,0.4,0
		c0.1,0.1,0.2,0.1,0.3,0.1c0,0.1,0.1,0.2,0.3,0.2C28.7,41.3,28.7,41.3,28.7,41.3z M22.1,47.9L22.1,47.9L22.1,47.9
		C22.1,47.8,22.1,47.9,22.1,47.9z M22.1,47.8C22.1,47.8,22.1,47.9,22.1,47.8C22.1,47.9,22.1,47.9,22.1,47.8
		C22.1,47.9,22.1,47.9,22.1,47.8z"/>
	<path fill="#643282" d="M48.7,45.1C48.7,45,48.8,45,48.7,45.1L48.7,45.1L48.7,45.1c0.3,0.2,0.4,0.1,0.4,0.1l0,0l0,0h0.1
		c0.1,0.1,0.3,0.1,0.5,0c0,0.1,0.1,0.1,0.2,0.1c0.1,0,0.2,0,0.2,0.1c0,0,0,0,0.1,0l0,0c0,0,0.1,0,0.1,0.1c0,0,0,0,0.1,0
		c0,0,0,0,0.1,0c0,0.1,0,0.1,0.1,0.3c0,0,0.1,0,0.2,0.1C50.9,46,50.9,46,51,46c0.1,0.4,0.2,0.6,0.2,0.7c0,0.2-0.1,0.3,0,0.3
		c0,0.3,0,0.5,0,0.6s-0.1,0.1-0.2,0.2c-0.1,0.1-0.1,0.2-0.2,0.3c-0.1,0.1-0.1,0.1-0.1,0.2c0,0,0,0-0.1,0c0,0,0,0-0.1,0
		s-0.1,0-0.1,0.1s-0.1,0.1-0.1,0.1h-0.1h-0.1c0,0,0,0-0.1,0.1c0,0,0,0.1-0.1,0.1h-0.1c0,0.1-0.1,0.1-0.1,0.1s-0.1,0-0.1-0.1
		c-0.1,0-0.1-0.1-0.2-0.1c-0.1,0-0.1,0.1-0.1,0.2c0,0.1-0.1,0-0.2-0.1H49h-0.1c0-0.1,0-0.1-0.1-0.2h-0.1c0-0.2-0.1-0.2-0.2-0.2
		l-0.1,0.1c0,0,0,0-0.1,0c0,0,0,0-0.1,0h-0.1c0-0.1,0-0.1-0.1-0.1c0,0,0,0-0.1,0v0.1c-0.1,0-0.2,0-0.2-0.1c0,0-0.1,0-0.1,0.1
		c0,0-0.1,0-0.1-0.1c-0.1,0-0.3,0-0.5,0c-0.3,0-0.4,0-0.5,0c0,0,0,0-0.1,0l0,0l0,0c0,0,0,0-0.1,0c-0.2,0-0.4,0-0.6,0h-0.1h-0.1
		c-0.1-0.1-0.2,0-0.2,0s0.1,0.1,0.1,0.3s0.1,0.2,0.2,0.2c-0.1,0.1-0.1,0.2-0.1,0.4v0.1c0,0.1,0,0.1,0,0.2c0,0.1,0,0.2,0.1,0.2
		c0,0.1,0.1,0.1,0.1,0.1c0,0.3,0,0.4-0.1,0.5c0,0.2,0,0.3,0.1,0.4v0.4v0.1c0,0,0,0.1,0.1,0.1c0,0.1,0,0.2,0,0.3c0,0,0,0.1,0.1,0.2
		c-0.1,0.2-0.1,0.3,0,0.4c0,0.1-0.1,0.1-0.1,0.2c0,0.1,0,0.1,0.1,0.1c0.1,0.2,0.1,0.3,0,0.4c0,0.1,0,0.1,0,0.2s0,0.1,0,0.2
		c0,0.1,0,0.1,0,0.1s0,0.1,0.1,0.1l0.1,0.1c0,0,0,0.1-0.1,0.1c0,0.1,0,0.2,0,0.3s0,0.2,0,0.3s0.1,0.1,0.1,0.2v0.1v0.1c0,0,0,0,0,0.1
		v0.1V55v0.1v0.1v0.1c0,0,0,0,0,0.1s0,0.1,0,0.1s0,0.1,0,0.2c0,0.1,0,0.2,0,0.2c0,0.1,0,0.1,0,0.2v0.1c0,0,0,0.1,0.1,0.1v0.1
		c0,0.1,0,0.2,0,0.3l0.1,0.1c0,0.2,0.1,0.3,0.1,0.4c0,0-0.1,0.1-0.1,0.2c0,0,0,0,0,0.1s0,0.1,0,0.1v0.1c0,0,0,0.1,0.1,0.1
		c0,0.2,0.1,0.3,0.1,0.3c0,0.4,0,0.6,0.1,0.6h0.1v0.1c0,0.1,0,0.1,0,0.1s0,0-0.1-0.1c-0.1,0.1-0.1,0.1,0,0.2c0,0.1,0,0.2,0,0.3
		s0,0.2,0,0.2c0,0.1,0.1,0.2,0.1,0.4c0,0,0.1,0.1,0.1,0.4l0.1,0.1c0,0.1,0,0.2,0,0.4s0,0.4,0,0.4c0,0.1,0,0.1,0,0.2
		c0,0.1,0,0.2,0,0.2c0,0.4,0,0.7,0,0.7s0,0.1-0.1,0.1v0.1c0,0,0,0-0.1,0.1c0,0,0,0-0.1-0.1c0,0-0.1,0-0.1,0.1s-0.1,0.1-0.1,0
		c0,0,0,0-0.1,0c0,0,0,0-0.1,0l-0.1,0.3c0,0-0.1,0-0.1-0.1v-0.1c0,0-0.1,0.1-0.1,0.2c-0.1,0.1-0.1,0.1-0.2,0l0,0c0,0,0,0-0.1,0
		l-0.1-0.1c-0.1,0-0.2,0-0.3-0.1c-0.1,0-0.1,0-0.1,0c0-0.3-0.1-0.4-0.2-0.4c0-0.1,0-0.1,0-0.1h-0.1c0-0.2-0.1-0.3-0.2-0.3
		c0-0.1,0-0.1,0-0.2c0-0.1,0-0.1,0-0.1s0-0.1,0-0.2s0-0.1,0-0.2c0,0,0-0.1,0-0.2c0-0.1,0-0.2,0-0.2l0,0c0,0,0,0-0.1,0
		c0-0.1,0-0.2,0-0.3s0-0.2,0-0.3S44.4,60,44.4,60s0-0.1,0-0.2c0-0.1,0-0.1,0-0.2v-0.1l-0.1-0.1v-0.1c0-0.1,0-0.1,0-0.1h-0.1
		c0-0.2,0-0.3,0-0.4c0-0.1-0.1-0.2-0.1-0.2c0-0.1,0-0.1,0-0.3s0-0.4-0.1-0.4c0-0.1,0.1-0.2,0-0.3c0-0.1-0.1-0.2-0.2-0.2
		c0.1-0.2,0.1-0.5,0-0.7c0,0,0-0.1,0-0.4c0-0.2,0-0.3-0.1-0.4c0-0.1,0-0.1,0-0.3c0-0.1,0-0.2,0-0.3s0-0.1-0.1-0.2c0-0.1,0-0.1,0-0.2
		c0-0.1,0-0.2,0-0.3v-0.1v-0.1c0-0.1-0.1-0.1-0.2-0.2v-0.1l0.1-0.1c0,0,0-0.1-0.1-0.2c0-0.1,0-0.1,0-0.2c0-0.1,0-0.2,0-0.2
		s0-0.1-0.1-0.1v-0.6v-0.1v-0.1c0,0,0-0.1,0-0.2s0-0.1,0-0.2V52l-0.1-0.1c0,0,0-0.1,0-0.2c0-0.1,0-0.2,0-0.2s0-0.1,0-0.2
		c0-0.1,0-0.1,0-0.2V51c0-0.1,0-0.1,0-0.1s0,0,0-0.1v-0.1c0-0.1,0-0.1,0-0.3s0-0.4-0.1-0.4c0-0.2-0.1-0.4-0.2-0.4v-0.1v-0.1
		c0-0.2-0.1-0.3-0.2-0.3c0-0.1,0.1-0.2,0-0.3v-0.1v-0.1c0-0.1,0-0.1,0-0.2c0-0.1,0-0.1-0.1-0.1c-0.1,0.1-0.2,0.1-0.3,0
		c-0.2,0.1-0.3,0.1-0.3,0.2h-0.1h-0.1c0,0,0,0-0.1,0s-0.1,0-0.2,0c0-0.1-0.1-0.1-0.2-0.2c0,0,0,0-0.1,0.1c0,0,0,0.1-0.1,0.1
		c0,0-0.1,0-0.2,0c-0.1,0-0.2,0-0.2,0h-0.1c-0.1,0-0.1,0-0.1,0.1c0,0,0,0-0.1,0c0,0,0,0-0.1,0c0,0-0.1,0-0.2,0H40h-0.1
		c-0.1,0-0.1,0-0.1,0h-0.1h-0.1h-0.1h-0.1c-0.1,0-0.1,0-0.2,0c0,0.1,0,0.1,0,0.1s-0.1,0-0.2,0c-0.1,0-0.1,0-0.2,0
		c0-0.1-0.1-0.1-0.1-0.1s-0.1,0-0.1,0.1c-0.3,0-0.4-0.1-0.4-0.1h-0.1H38c0,0,0,0-0.1,0.1c0,0,0,0-0.1,0c0,0,0,0-0.1,0
		c0,0-0.1,0-0.2,0c-0.1,0-0.2,0-0.2,0v0.1l0,0c0,0,0,0-0.1,0c0-0.1,0-0.2-0.1-0.2s-0.2,0-0.2,0.1c0,0-0.1,0-0.2,0
		c-0.1,0-0.1,0-0.1,0c0-0.1-0.1-0.2-0.1-0.2l0,0c0,0,0,0-0.1,0s0,0,0-0.1v-0.1h-0.1c0-0.1,0-0.1-0.1-0.2V48c0-0.1,0-0.1,0-0.1
		s-0.1-0.1-0.2-0.3c0-0.1-0.1-0.2-0.2-0.2c-0.1-0.1-0.1-0.1-0.1-0.2v-0.1c0,0,0-0.1,0.1-0.1c0-0.1,0-0.1,0-0.2c0-0.1,0-0.1,0-0.2
		c0-0.1,0.1-0.1,0.2-0.2c0,0,0,0,0-0.1s0,0,0,0s0,0,0.1-0.1s0.1-0.2,0.1-0.2c0.1-0.1,0.2-0.2,0.2-0.2c0.1,0.1,0.3,0.1,0.6,0v-0.1
		c0.2,0.1,0.4,0.1,0.4,0.1c0.1-0.1,0.1-0.1,0.1-0.1h0.1h0.1c0,0,0,0,0.1,0c0,0,0,0,0.1,0c0,0,0,0,0.1,0c0,0,0,0,0.1,0
		c0.2,0,0.3,0,0.3,0s0.1,0,0.1-0.1c0.1,0,0.1,0,0.2,0c0.1,0.1,0.1,0.1,0.1,0.1c0.1,0,0.2,0,0.3,0c0,0,0.1,0,0.2,0s0.1,0,0.2-0.1
		c0,0,0.1,0,0.3,0c0.1,0,0.2,0,0.3,0c0,0,0,0,0.1,0c0,0,0,0,0.1,0s0,0,0,0s0,0,0.1,0c0.1,0.1,0.3,0.1,0.5,0H41h0.1h0.1h0.1h0.1
		c0.1-0.1,0.2-0.1,0.3,0l0,0l0,0c0,0,0,0,0.1,0c0,0,0,0,0.1,0s0.3,0,0.5,0s0.4,0,0.5,0H43c0.1,0.1,0.2,0.1,0.4,0s0.3-0.1,0.3-0.1
		s0,0,0.1,0c0,0,0,0,0.1,0c0,0,0,0,0.1,0c0,0,0,0,0-0.1c0,0,0.1,0,0.2,0c0.1,0,0.1,0,0.2,0l0,0c0,0,0.1,0,0.2,0
		c0.1,0,0.1,0.1,0.2,0.1c0.1-0.1,0.1-0.1,0.2-0.1h0.1c0,0,0,0,0.1,0l0,0c0,0,0,0,0.1,0c0,0,0,0,0.1,0s0.1,0,0.2-0.1
		c0.1,0,0.2,0,0.2,0.1c0.1,0.1,0.1,0.1,0.2,0.1h0.1l0.1-0.1c0.1,0,0.1,0,0.2,0c0,0,0,0,0.1,0c0,0,0,0,0.1,0s0.1,0,0.2,0.1
		c0,0,0,0,0.1,0c0,0,0,0,0.1,0c0,0.1,0.1,0.1,0.2,0c0.1-0.1,0.2-0.1,0.2,0c0,0,0,0,0.1,0c0,0,0,0,0.1,0c0,0,0.1,0,0.2,0
		c0.1,0,0.1,0,0.1,0H48h0.1c0,0,0.1,0,0.2-0.1h0.1c0,0.1,0.1,0.1,0.1,0.1s0,0,0.1,0c0,0,0,0,0.1,0c0,0,0.1,0,0.1,0.1
		C48.6,45.2,48.6,45.2,48.7,45.1z M48.8,45C48.8,45,48.8,45.1,48.8,45c0,0.1,0,0.2,0,0.2c0.2,0.1,0.3,0,0.3,0l0,0l0,0h0.1
		c0.1,0.1,0.3,0.1,0.5,0c0,0.1,0.1,0.1,0.2,0.1c0.1,0,0.2,0,0.2,0.1c0,0,0,0,0.1,0l0,0c0,0,0.1,0,0.1,0.1c0,0,0,0,0.1,0
		c0,0,0,0,0.1,0c0,0.1,0,0.1,0.1,0.3c0,0,0.1,0,0.2,0.1C50.9,46,50.9,46,51,46c0.1,0.4,0.2,0.6,0.2,0.7c0,0.2-0.1,0.3,0,0.3
		c0,0.3,0,0.5,0,0.6s-0.1,0.1-0.2,0.2c-0.1,0.1-0.1,0.2-0.2,0.3c-0.1,0.1-0.1,0.1-0.1,0.2c0,0,0,0-0.1,0c0,0,0,0-0.1,0
		s-0.1,0-0.1,0.1s-0.1,0.1-0.1,0.1h-0.1h-0.1c0,0,0,0-0.1,0.1c0,0,0,0.1-0.1,0.1h-0.1c0,0.1-0.1,0.1-0.1,0.1s-0.1,0-0.1-0.1
		c-0.1,0-0.1-0.1-0.2-0.1c-0.1,0-0.1,0.1-0.1,0.2c0,0.1-0.1,0-0.2-0.1H49h-0.1c0-0.1,0-0.1-0.1-0.2h-0.1c0-0.2-0.1-0.2-0.2-0.2
		l-0.1,0.1c0,0,0,0-0.1,0c0,0,0,0-0.1,0h-0.1c0-0.1,0-0.1-0.1-0.1c0,0,0,0-0.1,0v0.1c-0.1,0-0.2,0-0.2-0.1c0,0-0.1,0-0.1,0.1
		c0,0-0.1,0-0.1-0.1c-0.1,0-0.3,0-0.5,0c-0.3,0-0.4,0-0.5,0c0,0,0,0-0.1,0l0,0l0,0c0,0,0,0-0.1,0c-0.2,0-0.4,0-0.6,0h-0.1h-0.1
		c-0.1-0.1-0.2,0-0.2,0s0.1,0.1,0.1,0.3s0.1,0.2,0.2,0.2c-0.1,0.1-0.1,0.2-0.1,0.4v0.1c0,0.1,0,0.1,0,0.2c0,0.1,0,0.2,0.1,0.2
		c0,0.1,0.1,0.1,0.1,0.1c0,0.3,0,0.4-0.1,0.5c0,0.2,0,0.3,0.1,0.4v0.4v0.1c0,0,0,0.1,0.1,0.1c0,0.1,0,0.2,0,0.3c0,0,0,0.1,0.1,0.2
		c-0.1,0.2-0.1,0.3,0,0.4c0,0.1-0.1,0.1-0.1,0.2c0,0.1,0,0.1,0.1,0.1c0.1,0.2,0.1,0.3,0,0.4c0,0.1,0,0.1,0,0.2s0,0.1,0,0.2
		c0,0.1,0,0.1,0,0.1s0,0.1,0.1,0.1l0.1,0.1c0,0,0,0.1-0.1,0.1c0,0.1,0,0.2,0,0.3s0,0.2,0,0.3s0.1,0.1,0.1,0.2v0.1v0.1c0,0,0,0,0,0.1
		v0.1V55v0.1v0.1v0.1c0,0,0,0,0,0.1s0,0.1,0,0.1s0,0.1,0,0.2c0,0.1,0,0.2,0,0.2c0,0.1,0,0.1,0,0.2v0.1c0,0,0,0.1,0.1,0.1v0.1
		c0,0.1,0,0.2,0,0.3l0.1,0.1c0,0.2,0.1,0.3,0.1,0.4c0,0-0.1,0.1-0.1,0.2c0,0,0,0,0,0.1s0,0.1,0,0.1v0.1c0,0,0,0.1,0.1,0.1
		c0,0.2,0.1,0.3,0.1,0.3c0,0.4,0,0.6,0.1,0.6h0.1v0.1c0,0.1,0,0.1,0,0.1s0,0-0.1-0.1c-0.1,0.1-0.1,0.1,0,0.2c0,0.1,0,0.2,0,0.3
		s0,0.2,0,0.2c0,0.1,0.1,0.2,0.1,0.4c0,0,0.1,0.1,0.1,0.4l0.1,0.1c0,0.1,0,0.2,0,0.4s0,0.4,0,0.4c0,0.1,0,0.1,0,0.2
		c0,0.1,0,0.2,0,0.2c0,0.4,0,0.7,0,0.7s0,0.1-0.1,0.1v0.1c0,0,0,0-0.1,0.1c0,0,0,0-0.1-0.1c0,0-0.1,0-0.1,0.1s-0.1,0.1-0.1,0
		c0,0,0,0-0.1,0c0,0,0,0-0.1,0l-0.1,0.3c0,0,0,0-0.1-0.1c0,0,0-0.1-0.1-0.1c0,0-0.1,0.1-0.1,0.2c-0.1,0.1-0.1,0.1-0.2,0l0,0
		c0,0,0,0-0.1,0l-0.1-0.1c-0.1,0-0.2,0-0.3-0.1c-0.1,0-0.1,0-0.1,0c0-0.3-0.1-0.4-0.2-0.4c0-0.1,0-0.1,0-0.1h-0.1
		c0-0.2-0.1-0.3-0.2-0.3c0-0.1,0-0.1,0-0.2c0-0.1,0-0.1,0-0.1s0-0.1,0-0.2s0-0.1,0-0.2c0,0,0-0.1,0-0.2c0-0.1,0-0.2,0-0.2l0,0
		c0,0,0,0-0.1,0c0-0.1,0-0.2,0-0.3s0-0.2,0-0.3S44.3,60,44.3,60s0-0.1,0-0.2c0-0.1,0-0.1,0-0.2v-0.1l-0.1-0.1v-0.1
		c0-0.1,0-0.1,0-0.1h-0.1c0-0.2,0-0.3,0-0.4c0-0.1-0.1-0.2-0.1-0.2c0-0.1,0-0.1,0-0.3s0-0.4-0.1-0.4c0-0.1,0.1-0.2,0-0.3
		c0-0.1-0.1-0.2-0.2-0.2c0.1-0.2,0.1-0.5,0-0.7c0,0,0-0.1,0-0.4c0-0.2,0-0.3-0.1-0.4c0-0.1,0-0.1,0-0.3c0-0.1,0-0.2,0-0.3
		s0-0.1-0.1-0.2c0-0.1,0-0.1,0-0.2c0-0.1,0-0.2,0-0.3v-0.1v-0.1c0-0.1-0.1-0.1-0.2-0.2v-0.1l0.1-0.1c0,0,0-0.1-0.1-0.2
		c0-0.1,0-0.1,0-0.2c0-0.1,0-0.2,0-0.2s0-0.1-0.1-0.1v-0.6v-0.1v-0.1c0,0,0-0.1,0-0.2s0-0.1,0-0.2V52l-0.1-0.1c0,0,0-0.1,0-0.2
		c0-0.1,0-0.2,0-0.2s0-0.1,0-0.2c0-0.1,0-0.1,0-0.2V51c0-0.1,0-0.1,0-0.1s0,0,0-0.1v-0.1c0-0.1,0-0.1,0-0.3s0-0.4-0.1-0.4
		c0-0.2-0.1-0.4-0.2-0.4v-0.1v-0.1c0-0.2-0.1-0.3-0.2-0.3c0-0.1,0.1-0.2,0-0.3v-0.1v-0.1c0-0.1,0-0.1,0-0.2c0-0.1,0-0.1-0.1-0.1
		c-0.1,0.1-0.2,0.1-0.3,0c-0.2,0.1-0.3,0.1-0.3,0.2h-0.1h-0.1c0,0,0,0-0.1,0s-0.1,0-0.2,0c0-0.1-0.1-0.1-0.2-0.2c0,0,0,0-0.1,0.1
		c0,0,0,0.1-0.1,0.1c0,0-0.1,0-0.2,0c-0.1,0-0.2,0-0.2,0h-0.1c-0.1,0-0.1,0-0.1,0.1c0,0,0,0-0.1,0c0,0,0,0-0.1,0c0,0-0.1,0-0.2,0
		h-0.1h-0.1c-0.1,0-0.1,0-0.1,0h-0.1h-0.1h-0.1h-0.1c-0.1,0-0.1,0-0.2,0c0,0.1,0,0.1,0,0.1s-0.1,0-0.2,0c-0.1,0-0.1,0-0.2,0
		c0-0.1-0.1-0.1-0.1-0.1s-0.1,0-0.1,0.1c-0.3,0-0.4-0.1-0.4-0.1H38h-0.1c0,0,0,0-0.1,0.1c0,0,0,0-0.1,0c0,0,0,0-0.1,0
		c0,0-0.1,0-0.2,0c-0.1,0-0.2,0-0.2,0v0.1l0,0c0,0,0,0-0.1,0c0-0.1,0-0.2-0.1-0.2s-0.2,0-0.2,0.1c0,0-0.1,0-0.2,0
		c-0.1,0-0.1,0-0.1,0c0-0.1-0.1-0.2-0.1-0.2l0,0c0,0,0,0-0.1,0s0,0,0-0.1v-0.1h-0.1c0-0.1,0-0.1,0-0.1v-0.1V48c0-0.1,0-0.1,0-0.1
		s-0.1-0.1-0.2-0.3c0-0.1-0.1-0.2-0.2-0.2c-0.1-0.1-0.1-0.1-0.1-0.2v-0.1c0,0,0-0.1,0.1-0.1c0-0.1,0-0.1,0-0.2c0-0.1,0-0.1,0-0.2
		c0-0.1,0.1-0.1,0.2-0.2c0,0,0,0,0-0.1s0,0,0,0s0,0,0.1-0.1s0.1-0.2,0.1-0.2c0.1-0.1,0.2-0.2,0.2-0.2c0.1,0.1,0.3,0.1,0.6,0v-0.1
		c0.2,0.1,0.4,0.1,0.4,0.1c0.1-0.1,0.1-0.1,0.1-0.1h0.1h0.1c0,0,0,0,0.1,0c0,0,0,0,0.1,0c0,0,0,0,0.1,0c0,0,0,0,0.1,0
		c0.2,0,0.3,0,0.3,0s0.1,0,0.1-0.1c0.1,0,0.1,0,0.2,0c0.1,0.1,0.1,0.1,0.1,0.1c0.1,0,0.2,0,0.3,0c0,0,0.1,0,0.2,0s0.1,0,0.2-0.1
		c0,0,0.1,0,0.3,0c0.1,0,0.2,0,0.3,0c0,0,0,0,0.1,0c0,0,0,0,0.1,0s0,0,0,0s0,0,0.1,0c0.1,0.1,0.3,0.1,0.5,0H41h0.1h0.1h0.1h0.1
		c0.1-0.1,0.2-0.1,0.3,0l0,0l0,0c0,0,0,0,0.1,0c0,0,0,0,0.1,0s0.3,0,0.5,0s0.4,0,0.5,0c0,0,0-0.1,0.1-0.1c0.1,0.1,0.2,0.1,0.4,0
		s0.3-0.1,0.3-0.1s0,0,0.1,0c0,0,0,0,0.1,0c0,0,0,0,0.1,0c0,0,0,0,0-0.1c0,0,0.1,0,0.2,0c0.1,0,0.1,0,0.2,0l0,0c0,0,0.1,0,0.2,0
		c0.1,0,0.1,0.1,0.2,0.1c0.1-0.1,0.1-0.1,0.2-0.1h0.1c0,0,0,0,0.1,0l0,0c0,0,0,0,0.1,0c0,0,0,0,0.1,0s0.1,0,0.2-0.1
		c0.1,0,0.2,0,0.2,0.1c0.1,0.1,0.1,0.1,0.2,0.1c0,0,0.1,0,0.1-0.1l0.1-0.1c0.1,0,0.1,0,0.2,0c0,0,0,0,0.1,0c0,0,0,0,0.1,0
		s0.1,0,0.2,0.1c0,0,0,0,0.1,0c0,0,0,0,0.1,0c0,0.1,0.1,0.1,0.2,0c0.1-0.1,0.2-0.1,0.2,0c0,0,0,0,0.1,0c0,0,0,0,0.1,0
		c0,0,0.1,0,0.2,0c0.1,0,0.1,0,0.1,0H48h0.1c0,0,0.1,0,0.2-0.1h0.1c0,0.1,0.1,0.1,0.1,0.1s0,0,0.1,0c0,0,0,0,0.1,0
		c0,0,0.1,0,0.1,0.1c0,0,0.1,0,0.1-0.1C48.7,45,48.7,45,48.8,45z M44.2,55.9L44.2,55.9C44.1,55.9,44.1,55.9,44.2,55.9
		C44.1,55.9,44.1,55.9,44.2,55.9C44.1,55.8,44.2,55.8,44.2,55.9z M44.1,55.9L44.1,55.9C44.1,55.8,44.2,55.8,44.1,55.9
		C44.2,55.9,44.2,55.9,44.1,55.9L44.1,55.9z M46.4,53.8L46.4,53.8C46.4,53.9,46.4,53.8,46.4,53.8z M46.4,53.8L46.4,53.8L46.4,53.8
		L46.4,53.8z"/>
	<path fill="#643282" d="M63.8,41.8C63.9,41.9,63.9,41.9,63.8,41.8C63.8,41.9,63.8,41.9,63.8,41.8c0.1,0.1,0.3,0.1,0.4,0.3
		s0.3,0.3,0.4,0.3c0,0.1,0.1,0.2,0.2,0.4c0.1,0.1,0.2,0.3,0.2,0.4h0.1c0,0.1,0,0.1-0.1,0.1l-0.1,0.1v0.1v0.1c0,0.1,0,0.2,0,0.3
		c-0.1,0.1-0.1,0.2-0.1,0.3c-0.1,0-0.1,0-0.1,0s0,0.1,0,0.2c0,0.1-0.1,0.1-0.1,0.1l-0.1,0.2c0,0-0.1,0-0.2,0.1c0,0,0,0-0.1,0
		c0,0,0,0.1-0.1,0.1H64l0,0c0,0,0,0-0.1,0l0,0c-0.1,0-0.2,0-0.2,0.1c-0.1,0-0.2-0.1-0.3-0.2c-0.1,0-0.1,0-0.2-0.1S63,44.5,63,44.5
		s0,0-0.1,0c0,0,0,0-0.1,0s-0.2,0-0.3,0s-0.2,0-0.3,0.1c-0.1-0.1-0.2-0.1-0.4,0l0,0c0,0,0,0-0.1,0s-0.1,0-0.1,0c-0.1,0-0.1,0-0.1,0
		s-0.1,0-0.3,0s-0.3,0-0.3,0.1v0.1c0,0.1,0,0.1,0,0.1s0,0,0,0.1s0,0.1,0,0.1s0,0.1,0.1,0.1c0,0.1,0,0.1,0,0.2c0,0,0,0.1,0,0.2
		c0,0.1,0,0.2,0,0.2c0,0.1,0,0.2,0,0.2c0,0.1,0.1,0.1,0.2,0.1c0,0.1,0,0.1-0.1,0.2c0,0.1,0,0.1,0,0.2c0,0.1,0,0.2,0,0.2
		s0,0.1,0.1,0.1v0.1c0,0.1,0,0.2,0,0.4s0,0.3,0,0.4v0.1v0.1c0,0.1,0,0.2,0,0.2v0.1c0,0.1,0,0.1,0,0.2c0,0.3,0,0.5,0.1,0.5V49v0.1
		c0,0,0,0,0.1,0.1c0,0,0,0,0,0.1s0,0,0,0h-0.1l0,0c0,0,0,0.1,0.1,0.1v0.1v0.1c0,0,0,0.1,0,0.2c0,0.1,0,0.2,0,0.2c0,0.1,0,0.1,0,0.1
		s0,0,0,0.1s0,0.1,0,0.1c0,0.1,0,0.1,0,0.1c0,0.1,0,0.1,0,0.1v0.1v0.1c0,0.1,0,0.1,0,0.1c0,0.1,0.1,0.2,0,0.3c0,0.1,0,0.2,0,0.2
		s0,0,0.1,0.1v0.1v0.1l0.1,0.4c0,0,0,0.1,0.1,0.1v0.1c0,0,0,0,0,0.1s0,0.2,0,0.3c0,0.2,0,0.3,0,0.4c0,0.1,0,0.1,0,0.1s0,0,0,0.1v0.1
		c0,0,0,0.1,0,0.3c0,0.1,0,0.2,0,0.4c0,0,0,0.1,0,0.2c0,0.1,0,0.2,0,0.3l0.1,0.1c0,0.1,0,0.1,0,0.2c0,0.1,0,0.1,0,0.1V55
		c0,0.1,0,0.1,0,0.2s0,0.1,0,0.2c0,0.1,0,0.2,0,0.2s0,0.1,0.1,0.2c0,0.1,0,0.1,0,0.1s0,0.1,0,0.3c0,0.1,0,0.2,0,0.3c0,0,0,0.1,0,0.2
		c0,0.1,0,0.1,0,0.2c0,0.1,0,0.1,0,0.1s0,0,0,0.1l0,0c0,0.1,0,0.1,0,0.2c0,0.1,0,0.1,0,0.2v0.1v0.1v0.1c0,0.1,0,0.2,0.1,0.2
		c0,0.1,0.1,0.2,0.2,0.3c0.1,0,0.2,0,0.4,0s0.3,0,0.3,0s0,0,0.1,0c0,0,0-0.1,0.1-0.1c0.2,0,0.3,0,0.3,0.1c0,0,0,0,0.1,0
		c0,0,0,0,0.1,0h0.1h0.1h0.1H64c0.1,0.1,0.2,0.1,0.4,0h0.1h0.1l0.1-0.1h0.1c0.1,0,0.1,0,0.1,0v-0.1V58H65c0,0,0,0,0,0.1v0.1
		c0.1,0,0.1,0,0.2-0.1c0-0.1,0.1-0.1,0.2,0v0.1c0.4,0.1,0.7,0.1,1,0.1h0.1c0.3,0.1,0.4,0.1,0.5,0l0.1,0.1c0.1,0,0.1,0.1,0.1,0.1
		c0.1,0,0.2,0,0.3,0c0,0.1,0,0.2,0.1,0.2c0.1,0.1,0.1,0.2,0.1,0.3c0,0,0,0,0.1,0h0.1c0,0.1,0,0.1,0,0.2c0.2,0.2,0.2,0.4,0.2,0.6v0.1
		V60c0,0.1,0,0.1,0,0.1c0,0.1-0.1,0.1-0.1,0.1c0,0.1,0,0.2-0.1,0.3c0.1-0.4,0.1-0.3,0.1-0.2c0,0-0.1,0-0.1,0.1l-0.1,0.1v0.1
		c-0.2,0-0.3,0.1-0.3,0.1v0.1c0,0-0.1,0-0.2,0s-0.1,0.1-0.2,0.2H67c0-0.2-0.1-0.2-0.2-0.2c0,0,0,0-0.1,0.1c0,0,0,0-0.1,0
		s-0.1-0.1-0.1-0.1s-0.1,0-0.2,0.1c-0.1,0-0.2,0-0.5,0c-0.2,0-0.4,0-0.5,0c0-0.1-0.1-0.1-0.1-0.1s0,0,0,0.1c0,0,0,0.1-0.1,0.1
		c0,0-0.1,0-0.3,0c-0.1,0-0.2,0-0.3,0l-0.1-0.1l0,0c0,0,0,0.1-0.1,0.1l-0.1-0.1c-0.1,0-0.1-0.1-0.2-0.1c-0.2,0-0.3,0-0.3,0
		s-0.1,0.1-0.1,0.2c0,0-0.1,0-0.2,0c-0.1,0-0.2,0-0.2,0s0,0,0-0.1c0,0,0,0-0.1-0.1c0,0-0.1,0-0.2,0.1c-0.1,0-0.1,0.1-0.1,0.1
		c-0.1-0.1-0.1-0.1-0.1-0.1s-0.1,0.1-0.1,0.2c0,0-0.1,0-0.1-0.1c0,0-0.1,0-0.2,0c-0.2,0-0.3,0-0.4,0.1c0,0-0.1,0-0.1-0.1
		c-0.2,0.1-0.3,0.2-0.3,0.2c-0.1,0-0.1,0-0.2,0c0-0.1-0.2-0.1-0.4-0.1c-0.1,0-0.1,0-0.2,0c0,0,0,0-0.1,0v0.1c-0.1,0-0.2,0-0.3,0
		s-0.2,0-0.3,0.1c0,0-0.1,0-0.2,0l0,0c0,0,0,0-0.1,0h-0.1c-0.1,0-0.2,0.1-0.3,0.2c0,0-0.1,0-0.2,0c-0.1,0-0.2,0-0.3,0h-0.1l0,0v0.1
		c0,0-0.1,0,0-0.1v-0.1c0,0-0.1,0-0.1,0.1l0,0c0,0,0,0-0.1,0c0,0,0,0-0.1,0c0,0-0.1,0.1-0.1,0.2c-0.2,0.1-0.4,0-0.4-0.1
		c-0.1,0-0.2,0.1-0.2,0.1c0,0.1,0,0.1,0,0.1s-0.1,0-0.2,0c0,0,0,0-0.1,0c0,0,0,0-0.1-0.1c-0.2,0-0.3,0-0.5,0.1s-0.3,0.1-0.4,0.1
		c0,0.1,0,0.1,0,0.1h-0.1h-0.1c0,0,0,0,0-0.1v-0.1l0,0l0,0c0,0,0,0-0.1,0H56l0,0c0,0,0,0-0.1,0c0,0-0.1,0-0.2,0c-0.1,0-0.2,0-0.2,0
		h-0.1c0,0-0.1,0-0.3,0c-0.1,0-0.2,0-0.3,0h-0.1h-0.1h-0.1c-0.1,0-0.2,0-0.4,0c0,0,0,0,0,0.1V62l0,0c0,0,0-0.1,0-0.2H54
		c0,0.2,0,0.2,0,0.1h-0.1c0-0.2-0.1-0.2-0.2-0.3c0,0.1,0,0.1,0,0.1c-0.1,0-0.1,0-0.1,0c0-0.1,0-0.2-0.1-0.4
		c-0.1-0.1-0.2-0.2-0.2-0.2s0-0.1,0-0.2s0-0.1,0-0.2c0-0.3-0.1-0.4,0-0.5c0,0,0.1-0.1,0.1-0.2c0-0.1,0-0.2,0-0.2s0,0,0.1,0h0.1
		c0.1-0.2,0.3-0.4,0.5-0.5c0.5,0,1,0,1.6,0c0-0.1,0.1-0.1,0.2-0.1c0.1,0,0.1,0,0.1,0.1c0,0,0.1,0,0.2,0c0.1,0,0.1-0.1,0.1-0.1
		s0.1,0,0.2,0.1c0.1,0,0.1,0,0.1,0s0.1,0,0.1-0.1l0.1-0.1c0,0,0,0,0.1,0.1l0.1,0.1c0,0,0.1,0,0.1-0.1h0.1C57,59,57.1,59,57.3,59
		c0,0,0.1-0.1,0.3-0.1h0.1c0,0,0.1,0,0.2,0s0.1,0,0.2,0h0.1c0,0,0.1,0,0.1-0.1h0.1h0.1c0,0,0-0.1,0.1-0.1c0,0,0.1,0,0.3,0
		c0.1,0,0.2,0,0.3-0.1c0,0,0,0,0-0.1s0,0,0-0.1c0,0,0.3,0,0.6,0c0.1-0.1,0.1-0.2,0-0.4c0-0.3,0-0.5-0.1-0.7c0,0,0.1-0.1,0-0.2
		c0-0.1,0-0.1,0-0.2c0-0.1,0-0.1,0-0.1s0,0,0-0.1v-0.1v-0.1c0-0.1,0-0.1,0-0.1c-0.1-0.1-0.2-0.3-0.1-0.5c0-0.1,0-0.3,0-0.6
		s0-0.4,0-0.5c0,0,0,0-0.1-0.1s0,0,0,0s0,0,0-0.1v-0.1c0.1,0,0.1-0.1,0.1-0.1c0-0.1,0-0.1,0-0.1c0-0.1,0-0.2,0-0.4s0-0.2,0-0.3
		s0-0.1,0-0.2c0-0.1,0-0.1,0-0.2v-0.1c0-0.1,0-0.1,0-0.1s0-0.1,0-0.2c0-0.1,0-0.2,0-0.2s0,0-0.1,0c0-0.1,0-0.2,0-0.3s0-0.2,0-0.5
		s0-0.5,0-0.6v-0.1c0,0,0,0,0-0.1c0,0,0,0,0-0.1v-0.1v-0.1c0-0.1,0-0.1,0-0.1s0,0,0-0.1c0,0,0,0,0-0.1c0,0-0.1-0.1-0.1-0.4
		c-0.1,0-0.2-0.2-0.1-0.5h0.1l0,0c0,0,0,0-0.1,0l0,0c0,0,0-0.1,0-0.2c0,0,0,0,0.1,0c0-0.1,0-0.2,0-0.3c0-0.2,0-0.3,0-0.4
		c0-0.1-0.1-0.2-0.2-0.2v-0.2h0.1c0,0,0-0.1,0-0.2c0-0.1,0-0.3,0-0.4s0-0.2-0.1-0.3c0,0,0,0,0-0.1s0-0.1,0-0.1s0,0,0-0.1
		s0-0.1,0-0.1c0-0.1,0-0.1,0.1-0.1c0-0.1,0-0.2,0-0.2s0-0.1-0.1-0.4v-0.1c0,0,0,0,0-0.1l0,0c0,0,0,0,0-0.1c0,0,0-0.1-0.1-0.1v-0.1
		v-0.1c0-0.1,0-0.1,0-0.1c0-0.1,0-0.2-0.1-0.3c0-0.1,0-0.2-0.1-0.3c0-0.1-0.1-0.2-0.1-0.3h-0.1v0.1c0-0.1-0.1-0.1-0.2,0v-0.1v-0.1
		h-0.1v0.1v0.1c0,0,0,0-0.1,0c0,0,0,0-0.1,0s-0.1,0-0.1,0H58c0,0,0,0-0.1,0l0,0c0,0-0.1,0.1-0.1,0.2h-0.1v-0.1c0-0.1-0.1-0.1-0.2,0
		v0.1l0,0c0,0,0,0-0.1,0s0,0-0.1,0s-0.2,0-0.3,0c-0.2,0-0.3,0-0.3,0c-0.2,0-0.3,0-0.3,0c-0.1-0.1-0.2-0.1-0.2,0c-0.1,0-0.1,0-0.2,0
		c-0.1,0-0.2,0-0.2,0c-0.1,0-0.2,0-0.3,0s-0.2,0-0.3,0c0,0,0,0-0.1,0.1l0,0v-0.1c0,0.1,0,0.1-0.1,0.1s-0.1-0.1-0.1-0.1h-0.1
		c0,0,0-0.1-0.1-0.1c0,0,0-0.1-0.1-0.1c-0.2,0.1-0.3,0-0.4-0.2c0,0-0.1-0.1-0.2-0.2c-0.1-0.1-0.1-0.2-0.2-0.2c-0.1,0-0.1,0-0.2-0.1
		c-0.1-0.1-0.1-0.1-0.1-0.2c-0.2-0.2-0.3-0.3-0.3-0.4c0-0.1,0-0.2-0.1-0.3c0,0,0-0.1,0.1-0.2c0-0.2,0.1-0.4,0.3-0.7
		c0.1,0,0.1-0.1,0.2-0.2h0.1h0.1c0,0,0,0,0.1-0.1c0,0,0-0.1,0.1-0.1c0,0,0.1,0,0.2,0c0.1,0,0.2,0,0.2,0s0-0.1,0.1-0.1l0.1-0.1
		c0,0,0.1,0,0.2,0.1c0.1,0.1,0.1,0.1,0.2,0.1h0.1h0.1c0.1,0,0.2,0,0.4,0s0.3,0,0.4,0c0.1,0,0.2,0,0.2-0.1c0.2,0.1,0.3,0.1,0.3,0
		c0,0,0,0,0.1,0c0,0,0,0,0.1,0s0,0,0.1,0c0,0,0,0,0-0.1c0.1,0,0.2,0,0.3,0c0.2,0,0.2,0,0.3-0.1c0.1,0.1,0.3,0.1,0.4,0c0,0,0,0,0-0.1
		c0,0,0,0,0.1-0.1c0.1,0,0.2,0,0.4,0c0.1,0,0.3,0,0.4,0c0.1,0,0.2-0.1,0.2-0.2c0,0,0.1,0,0.2,0.1h0.1c0.5,0,0.8,0,1-0.1
		c0,0,0.1,0,0.2,0l0,0c0,0,0,0,0.1,0c0.1-0.1,0.2-0.1,0.3-0.1s0.2,0,0.3,0c0-0.1,0.1-0.1,0.1-0.1h0.2h0.1h0.1c0,0,0.1,0,0.2,0
		c0.2,0,0.4,0,0.4-0.1l0.1,0.1c0.2-0.2,0.3-0.2,0.4,0c0,0,0.1,0,0.2,0c0.1,0,0.2,0,0.2,0h0.1h0.1c0.1,0,0.1,0,0.1,0s0.1,0,0.3,0
		s0.2,0,0.3,0C63.7,41.8,63.8,41.8,63.8,41.8z M63.6,41.9c0.1-0.1,0.2-0.1,0.2-0.1v0.1l0,0c0.1,0,0.3,0,0.4,0.2s0.3,0.3,0.4,0.3
		c0,0.1,0.1,0.2,0.2,0.4c0.1,0.1,0.2,0.3,0.2,0.4h0.1c0,0.1,0,0.1-0.1,0.1l-0.1,0.1v0.1v0.1c0,0.1,0,0.2,0,0.3
		c-0.1,0.1-0.1,0.2-0.1,0.3c-0.1,0-0.1,0-0.1,0s0,0.1,0,0.2c0,0.1-0.1,0.1-0.1,0.1l-0.1,0.2c0,0-0.1,0-0.2,0.1c0,0,0,0-0.1,0
		c0,0,0,0.1-0.1,0.1H64l0,0c0,0,0,0-0.1,0l0,0c-0.1,0-0.2,0-0.2,0.1c-0.1,0-0.2-0.1-0.3-0.2c-0.1,0-0.1,0-0.2-0.1S63,44.5,63,44.5
		s0,0-0.1,0c0,0,0,0-0.1,0s-0.2,0-0.3,0s-0.2,0-0.3,0.1c-0.1-0.1-0.2-0.1-0.4,0l0,0c0,0,0,0-0.1,0s-0.1,0-0.1,0c-0.1,0-0.1,0-0.1,0
		s-0.1,0-0.3,0s-0.3,0-0.3,0.1v0.1c0,0.1,0,0.1,0,0.1s0,0,0,0.1s0,0.1,0,0.1s0,0.1,0.1,0.1c0,0.1,0,0.1,0,0.2c0,0,0,0.1,0,0.2
		c0,0.1,0,0.2,0,0.2c0,0.1,0,0.2,0,0.2c0,0.1,0.1,0.1,0.2,0.1c0,0.1,0,0.1-0.1,0.2c0,0.1,0,0.1,0,0.2c0,0.1,0,0.2,0,0.2
		s0,0.1,0.1,0.1v0.1c0,0.1,0,0.2,0,0.4s0,0.4,0,0.4c0,0.1,0.1,0.1,0.1,0.2c0,0.1,0,0.2,0,0.2v0.1c0,0.1,0,0.1,0,0.2
		c0,0.3,0,0.5,0.1,0.5V49v0.1c0,0,0,0,0.1,0.1c0,0,0,0,0,0.1s0,0,0,0h-0.1c0,0.1,0,0.1,0.1,0.2v0.1v0.1c0,0,0,0.1,0,0.2
		c0,0.1,0,0.2,0,0.2c0,0.1,0,0.1,0,0.1s0,0,0,0.1s0,0.1,0,0.1c0,0.1,0,0.1,0,0.1c0,0.1,0,0.1,0,0.1v0.1v0.1c0,0.1,0,0.1,0,0.1
		c0,0.1,0.1,0.2,0,0.3c0,0.1,0,0.2,0,0.2s0,0,0.1,0.1v0.1v0.1l0,0.3c0,0,0,0.1,0.1,0.1v0.1c0,0,0,0,0,0.1s0,0.2,0,0.3
		c0,0.2,0,0.3,0,0.4c0,0.1,0,0.1,0,0.1s0,0,0,0.1v0.1c0,0,0,0.1,0,0.3c0,0.1,0,0.2,0,0.4c0,0,0,0.1,0,0.2c0,0.1,0,0.2,0,0.3l0.1,0.1
		c0,0.1,0,0.1,0,0.2c0,0.1,0,0.1,0,0.1V55c0,0.1,0,0.1,0,0.2s0,0.1,0,0.2c0,0.1,0,0.2,0,0.2s0,0.1,0.1,0.2c0,0.1,0,0.1,0,0.1
		s0,0.1,0,0.3c0,0.1,0,0.2,0,0.3c0,0,0,0.1,0,0.2c0,0.1,0,0.1,0,0.2c0,0.1,0,0.1,0,0.1s0,0,0,0.1l0,0c0,0.1,0,0.1,0,0.2
		c0,0.1,0,0.1,0,0.2v0.1v0.1v0.1c0,0.1,0,0.2,0.1,0.2c0,0.1,0.1,0.2,0.2,0.3c0.1,0,0.2,0,0.4,0s0.3,0,0.3,0s0,0,0.1,0
		c0,0,0-0.1,0.1-0.1c0.2,0,0.3,0,0.3,0.1c0,0,0,0,0.1,0c0,0,0,0,0.1,0h0.1h0.1h0.1H64c0.1,0.1,0.2,0.1,0.4,0h0.1h0.1l0.1-0.1h0.1
		c0.1,0,0.1,0,0.1,0c0-0.1,0-0.1,0-0.1H65c0,0,0,0,0,0.1v0.1c0.1,0,0.1,0,0.2-0.1c0-0.1,0.1-0.1,0.2,0v0.1c0.4,0.1,0.7,0.1,1,0.1
		h0.1c0.3,0.1,0.4,0.1,0.5,0l0.1,0.1c0.1,0,0.1,0.1,0.1,0.1c0.1,0,0.2,0,0.3,0c0,0.1,0,0.2,0.1,0.2c0.1,0.1,0.1,0.2,0.1,0.3
		c0,0,0,0,0.1,0h0.1c0,0.1,0,0.1,0,0.2c0.2,0.2,0.2,0.4,0.2,0.5v0.1V60c0,0.1,0,0.1,0,0.1c0,0.1-0.1,0.1-0.1,0.1
		c0,0.1,0,0.2-0.1,0.3c0.1-0.4,0.1-0.3,0.1-0.2c0,0-0.1,0-0.1,0.1l-0.1,0.1v0.1c-0.2,0-0.3,0.1-0.3,0.1v0.1c0,0-0.1,0-0.2,0
		s-0.1,0.1-0.2,0.2H67c0-0.2-0.1-0.2-0.2-0.2c0,0,0,0-0.1,0.1c0,0,0,0-0.1,0s-0.1-0.1-0.1-0.1s-0.1,0-0.2,0.1c-0.1,0-0.2,0-0.5,0
		c-0.2,0-0.4,0-0.5,0c0-0.1-0.1-0.2-0.1-0.2v0.1c0,0,0,0.1-0.1,0.1c0,0-0.1,0-0.3,0c-0.1,0-0.2,0-0.3,0l-0.1-0.1l0,0
		c0,0,0,0.1-0.1,0.1l-0.1-0.1c-0.1,0-0.1-0.1-0.2-0.1c-0.2,0-0.3,0-0.3,0s-0.1,0.1-0.1,0.2c0,0-0.1,0-0.2,0c-0.1,0-0.2,0-0.2,0
		s0,0,0-0.1c0,0,0,0-0.1-0.1c0,0-0.1,0-0.2,0.1c-0.1,0-0.1,0.1-0.1,0.1c-0.1-0.1-0.1-0.1-0.1-0.1s-0.1,0.1-0.1,0.2
		c0,0-0.1,0-0.1-0.1c0,0-0.1,0-0.2,0c-0.2,0-0.3,0-0.4,0.1c0,0-0.1,0-0.1-0.1c-0.2,0.1-0.3,0.2-0.3,0.2c-0.1,0-0.1,0-0.2,0
		c0-0.1-0.2-0.1-0.4-0.1c-0.1,0-0.1,0-0.2,0c0,0,0,0-0.1,0v0.1c-0.1,0-0.2,0-0.3,0s-0.2,0-0.3,0.1c0,0-0.1,0-0.2,0l0,0
		c0,0,0,0-0.1,0h-0.1c-0.1,0-0.2,0.1-0.3,0.2c0,0-0.1,0-0.2,0c-0.1,0-0.2,0-0.3,0h-0.1l0,0v0.1c0,0-0.1,0,0-0.1v-0.1
		c0,0-0.1,0-0.1,0.1l0,0c0,0,0,0-0.1,0c0,0,0,0-0.1,0c0,0-0.1,0.1-0.1,0.2c-0.2,0.1-0.4,0-0.4-0.1c-0.1,0-0.2,0.1-0.2,0.1
		c0,0.1,0,0.1,0,0.1s-0.1,0-0.2,0c0,0,0,0-0.1,0c0,0,0,0-0.1-0.1c-0.2,0-0.3,0-0.5,0.1s-0.3,0.1-0.4,0.1c0,0.1,0,0.1,0,0.1h-0.1
		h-0.1c0,0,0,0,0-0.1v-0.1l0,0l0,0c0,0,0,0-0.1,0H56l0,0c0,0,0,0-0.1,0c0,0-0.1,0-0.2,0c-0.1,0-0.2,0-0.2,0h-0.1c0,0-0.1,0-0.3,0
		c-0.1,0-0.2,0-0.3,0h-0.1h-0.1h-0.1c-0.1,0-0.2,0-0.4,0c0,0,0,0,0,0.1v0.1l0,0c0,0,0,0,0-0.1H54c0,0.2,0,0.2,0,0.1h-0.1
		c0-0.2-0.1-0.2-0.2-0.3c0,0.1,0,0.1,0,0.1c-0.1,0-0.1,0-0.1,0c0-0.1,0-0.2-0.1-0.4c-0.1-0.1-0.2-0.2-0.2-0.2s0-0.1,0-0.2
		s0-0.1,0-0.2c0-0.3-0.1-0.4,0-0.5c0,0,0.1-0.1,0.1-0.2c0-0.1,0-0.2,0-0.2s0,0,0.1,0h0.1c0.1-0.2,0.3-0.4,0.5-0.5c0.5,0,1,0,1.6,0
		c0-0.1,0.1-0.1,0.2-0.1c0.1,0,0.1,0,0.1,0.1c0,0,0.1,0,0.2,0c0.1,0,0.1-0.1,0.1-0.1s0.1,0,0.2,0.1c0.1,0,0.1,0,0.1,0s0.1,0,0.1-0.1
		l0.1-0.1c0,0,0,0,0.1,0.1l0.1,0.1c0,0,0.1,0,0.1-0.1h0.1C57,59,57.1,59,57.3,59c0,0,0.1-0.1,0.3-0.1h0.1c0,0,0.1,0,0.2,0
		s0.1,0,0.2,0h0.1c0,0,0.1,0,0.1-0.1h0.1h0.1c0,0,0-0.1,0.1-0.1c0,0,0.1,0,0.3,0c0.1,0,0.2,0,0.3-0.1c0,0,0,0,0-0.1s0,0,0-0.1
		c0,0,0.3,0,0.6,0c0.1-0.1,0.1-0.2,0-0.4c0-0.3,0-0.5-0.1-0.7c0,0,0.1-0.1,0-0.2c0-0.1,0-0.1,0-0.2c0-0.1,0-0.1,0-0.1s0,0,0-0.1
		v-0.1v-0.1c0-0.1,0-0.1,0-0.1c-0.1-0.1-0.2-0.3-0.1-0.5c0-0.1,0-0.3,0-0.6s0-0.4,0-0.5c0,0,0,0-0.1-0.1s0,0,0,0s0,0,0-0.1v-0.1
		c0.1,0,0.1-0.1,0.1-0.1c0-0.1,0-0.1,0-0.1c0-0.1,0-0.2,0-0.4s0-0.2,0-0.3s0-0.1,0-0.2c0-0.1,0-0.1,0-0.2v-0.1c0-0.1,0-0.1,0-0.1
		s0-0.1,0-0.2c0-0.1,0-0.2,0-0.2s0,0-0.1,0c0-0.1,0-0.2,0-0.3s0-0.2,0-0.5s0-0.5,0-0.6v-0.1c0,0,0,0,0-0.1c0,0,0,0,0-0.1v-0.1v-0.1
		c0-0.1,0-0.1,0-0.1s0,0,0-0.1c0,0,0,0,0-0.1c0,0-0.1-0.1-0.1-0.4c-0.1,0-0.2-0.2-0.1-0.5h0.1l0,0c0,0,0,0-0.1,0l0,0
		c0,0,0-0.1,0-0.2c0,0,0,0,0.1,0c0-0.1,0-0.2,0-0.3c0-0.2,0-0.3,0-0.4c0-0.1-0.1-0.2-0.2-0.2v-0.2h0.1c0,0,0-0.1,0-0.2
		c0-0.1,0-0.3,0-0.4s0-0.2-0.1-0.3c0,0,0,0,0-0.1s0-0.1,0-0.1s0,0,0-0.1s0-0.1,0-0.1c0-0.1,0-0.1,0.1-0.1c0-0.1,0-0.2,0-0.2
		s0-0.2-0.1-0.4v-0.1c0,0,0,0,0-0.1l0,0c0,0,0,0,0-0.1c0,0,0-0.1-0.1-0.1v-0.1v-0.1c0-0.1,0-0.1,0-0.1c0-0.1,0-0.2-0.1-0.3
		c0-0.1,0-0.2-0.1-0.3c0-0.1-0.1-0.2-0.1-0.3h-0.1v0.1c0-0.1-0.1-0.1-0.2,0v-0.1v-0.1h-0.1v0.1v0.1c0,0,0,0-0.1,0c0,0,0,0-0.1,0
		s-0.1,0-0.1,0H58c0,0,0,0-0.1,0l0,0c0,0-0.1,0.1-0.1,0.2h-0.1v-0.1c0-0.1-0.1-0.1-0.2,0v0.1l0,0c0,0,0,0-0.1,0s0,0-0.1,0
		s-0.2,0-0.3,0c-0.2,0-0.3,0-0.3,0c-0.2,0-0.3,0-0.3,0c-0.1-0.1-0.2-0.1-0.2,0c-0.1,0-0.1,0-0.2,0c-0.1,0-0.2,0-0.2,0
		c-0.1,0-0.2,0-0.3,0s-0.2,0-0.3,0c0,0,0,0-0.1,0c0,0,0,0,0,0.1l0,0v-0.1c0,0.1,0,0.1-0.1,0.1s-0.1-0.1-0.1-0.1h-0.1
		c0,0,0-0.1-0.1-0.1c0,0,0-0.1-0.1-0.1c-0.2,0.1-0.3,0-0.4-0.2c0,0-0.1-0.1-0.2-0.2c-0.1-0.1-0.1-0.2-0.2-0.2c-0.1,0-0.1,0-0.2-0.1
		c-0.1-0.1-0.1-0.1-0.1-0.2c-0.2-0.2-0.3-0.3-0.3-0.4c0-0.1,0-0.2-0.1-0.3c0,0,0-0.1,0.1-0.2c0-0.2,0.1-0.4,0.3-0.7
		c0.1,0,0.1-0.1,0.2-0.2h0.1h0.1c0,0,0,0,0.1-0.1c0,0,0-0.1,0.1-0.1c0,0,0.1,0,0.2,0c0.1,0,0.2,0,0.2,0s0-0.1,0.1-0.1l0.1-0.1
		c0,0,0.1,0,0.2,0.1c0.1,0.1,0.1,0.1,0.2,0.1h0.1h0.1c0.1,0,0.2,0,0.4,0s0.3,0,0.4,0c0.1,0,0.2,0,0.2-0.1c0.2,0.1,0.3,0.1,0.3,0
		c0,0,0,0,0.1,0c0,0,0,0,0.1,0s0,0,0.1,0c0,0,0,0,0-0.1c0.1,0,0.2,0,0.3,0c0.2,0,0.2,0,0.3-0.1c0.1,0.1,0.3,0.1,0.4,0v-0.1
		c0,0,0,0,0.1,0s0.2,0,0.4,0c0.1,0,0.3,0,0.4,0c0.1,0,0.2-0.1,0.2-0.2c0,0,0.1,0,0.2,0.1h0.1c0.5,0,0.8,0,1-0.1c0,0,0.1,0,0.2,0l0,0
		c0,0,0,0,0.1,0c0.1-0.1,0.2-0.1,0.3-0.1s0.2,0,0.3,0c0-0.1,0.1-0.1,0.1-0.1h0.2h0.1h0.1c0,0,0.1,0,0.2,0c0.2,0,0.4,0,0.4-0.1
		l0.1,0.1c0.2-0.2,0.3-0.2,0.4,0c0,0,0.1,0,0.2,0c0.1,0,0.2,0,0.2,0c0.1,0,0.1-0.1,0.1-0.1h0.1c0.1,0,0.1,0,0.1,0s0.1,0,0.3,0
		S63.6,41.9,63.6,41.9z"/>
	<path fill="#643282" d="M81.1,44.7L81.1,44.7L81.1,44.7L81.1,44.7c0.2,0,0.2,0,0.2-0.1c0,0,0.1,0,0.1,0.1s0.1,0.1,0.1,0.1
		c0,0.1,0.1,0.1,0.2,0.1s0.1,0,0.2,0c0,0.1,0.1,0.2,0.1,0.2c0.1,0,0.1,0,0.2,0.1s0.1,0.1,0.1,0.1c0.1,0,0.1,0,0.2,0s0,0,0,0.1v0.1
		c0,0,0,0,0.1,0h0.1c0,0,0,0,0,0.1c0,0,0,0,0,0.1c0,0,0,0,0.1,0c0,0,0,0,0.1,0c0,0,0,0.1,0,0.2c0,0.1,0,0.1,0,0.2v0.1
		c0,0.1,0,0.1,0.1,0.2c0,0.1,0.1,0.1,0.1,0.2c0,0.1,0.1,0.1,0.2,0.1c0,0.2,0,0.3-0.1,0.4v0.1c0,0.1,0,0.1,0,0.1
		c-0.1,0.1-0.2,0.2-0.1,0.5v0.1V48C83,48,83,48,83,48.1c0,0.2,0.1,0.3,0,0.4c-0.1,0-0.1,0.1-0.2,0.2c0,0.1-0.1,0.2-0.1,0.2
		s0,0.1,0,0.2c0,0.1,0,0.1,0,0.2c-0.1,0.1-0.1,0.2-0.2,0.4s-0.1,0.3-0.2,0.4v0.1c0,0,0,0,0.1,0c0,0.1,0,0.1-0.1,0.2
		c0,0.1-0.1,0.1-0.1,0.2c0,0,0,0.1-0.1,0.1s-0.1,0-0.1,0.1s0,0.1,0,0.1c-0.2,0.2-0.2,0.4-0.2,0.7c0,0-0.1,0.1-0.1,0.2
		c0,0.1-0.1,0.2-0.1,0.2s0,0.1,0,0.2c0,0,0,0.1,0,0.2c0,0.1,0,0.2-0.1,0.2c0,0.1,0,0.2-0.1,0.3L81.3,53c0,0.1,0.1,0.1,0.1,0.1
		c0,0.1-0.1,0.1-0.2,0.3C81,53,81,53.2,81,53.3v0.1v0.1l0,0c-0.1,0.1-0.1,0.2-0.1,0.4c0,0,0,0-0.1,0c0,0,0,0-0.1,0.1s0,0,0,0.1v0.1
		c0,0,0,0,0,0.1v0.1v0.1c0,0.1,0,0.1,0,0.1s0,0.1-0.1,0.1c0,0.1-0.1,0.1-0.1,0.2V55c0,0.1,0,0.1,0,0.1s0,0,0,0.1c0,0,0,0,0,0.1
		c0,0,0,0,0,0.1s0,0.1,0,0.1v0.1c0,0.1,0,0.1,0,0.1c-0.1,0-0.1,0.1-0.2,0.2c0,0.1,0,0.1,0,0.1s0,0.1-0.1,0.1v0.1c0,0,0,0.1,0,0.2
		c0,0.1,0,0.2-0.1,0.2c0,0.2,0,0.3-0.1,0.5s-0.1,0.3-0.1,0.5c0,0,0,0.1-0.1,0.1c0,0.1,0,0.2,0,0.2c0,0.1-0.1,0.1-0.1,0.1v0.1v0.1
		v0.2c-0.1,0-0.1,0.2-0.1,0.4c-0.1,0.1-0.2,0.2-0.1,0.5l-0.1,0.1c0,0.1,0,0.1,0,0.2c0.1,0.1,0.1,0.1,0,0.2c0,0,0,0,0-0.1
		c0,0-0.1,0,0,0.1c0,0.1,0,0.2,0,0.3C79.1,60,79,60,79,60c0,0.2,0.1,0.4,0.2,0.4c0,0.1,0,0.1,0,0.2h-0.1l0,0l0,0h0.1v0.1
		c0,0.1,0,0.1,0,0.1c-0.1,0-0.1,0-0.2,0c0,0-0.1,0-0.2,0.1c0,0.1,0,0.1,0,0.1v0.1h-0.1c0,0,0,0-0.1,0c0,0.1-0.1,0.2-0.1,0.3h-0.1
		c-0.1,0-0.1,0.1-0.1,0.2c0,0,0,0-0.1,0c-0.1,0.1-0.2,0.1-0.2,0.2l0,0c0,0-0.1-0.1-0.1-0.2c0,0,0,0-0.1,0v0.1c-0.2,0.1-0.2,0-0.3,0
		h-0.1c-0.1,0-0.1,0-0.1,0c-0.1,0.1-0.1,0.1-0.2,0.1c0-0.1-0.1-0.2-0.1-0.2c0-0.1-0.1-0.1-0.2-0.1c0-0.1-0.1-0.1-0.2-0.1
		c0-0.1,0-0.3-0.2-0.5v-0.1c-0.1-0.2-0.2-0.3-0.3-0.4c0,0,0,0-0.1,0h-0.1c0-0.3,0-0.5-0.1-0.6l0,0l0,0c0,0,0-0.1-0.1-0.2
		c0-0.1,0-0.2,0-0.2h-0.1c0-0.1,0-0.1-0.1-0.2c-0.1-0.1-0.1-0.2-0.1-0.2c-0.1-0.1-0.2-0.2-0.3-0.4c0-0.1-0.1-0.2-0.2-0.4
		c0-0.1-0.1-0.1-0.1-0.2c0-0.1,0-0.1-0.1-0.2c-0.1,0.1-0.2,0.1-0.2,0c0-0.2,0-0.3-0.1-0.4c0-0.1,0-0.2-0.1-0.3h-0.1l-0.1,0.1l0,0
		v-0.1V57c0,0,0-0.1,0-0.2c0-0.1-0.1-0.2-0.2-0.1v-0.1c0-0.1,0-0.1,0-0.1s0,0-0.1-0.1c0,0-0.1-0.1-0.1-0.2c-0.1-0.3-0.3-0.6-0.5-0.7
		v-0.1c-0.1-0.1-0.2-0.2-0.2-0.2c0-0.2-0.1-0.4-0.2-0.5V55c-0.2-0.2-0.3-0.3-0.3-0.3s0-0.1,0-0.2c0-0.2,0-0.2-0.1-0.3h-0.1h-0.1
		v-0.1c0-0.1,0-0.1,0-0.1c-0.1-0.1-0.1-0.1-0.1-0.2H72c0-0.1,0-0.1,0-0.3v-0.1l0,0c0,0,0,0,0-0.1c0,0,0,0,0-0.1h-0.1
		c-0.1,0-0.1,0-0.1,0c0-0.1,0-0.2,0-0.2l0,0c0,0,0,0-0.1,0c0-0.1,0-0.1,0-0.2h-0.1v-0.1c0-0.1,0-0.1,0-0.1s0,0-0.1,0
		c0-0.1,0-0.1,0-0.2c0-0.1,0.1-0.1,0-0.2c0,0,0-0.1-0.1-0.1c-0.1-0.1-0.1-0.1-0.1-0.2v-0.1v-0.1l-0.1-0.1c0-0.1,0-0.1,0-0.2
		c0-0.1-0.1-0.1-0.1-0.2c-0.1-0.1-0.2-0.2-0.2-0.5c0,0-0.1-0.1-0.2-0.1c0,0,0-0.1,0.1-0.1c0,0-0.1-0.1-0.1-0.2c0-0.1,0-0.2,0-0.4
		c0,0-0.1,0-0.2,0c0-0.1,0.1-0.2,0-0.3c0,0,0-0.1-0.1-0.1c0-0.1,0-0.2-0.1-0.4c0-0.1,0-0.1,0-0.2c-0.1-0.1-0.1-0.2-0.1-0.2
		s0,0,0-0.1h-0.1c0,0,0,0,0-0.1s0-0.1,0-0.1s0-0.1-0.1-0.1v-0.1c0,0,0-0.1,0-0.2c0-0.1,0-0.1,0-0.1s0,0-0.1,0s0,0-0.1,0v-0.1
		c0-0.1,0-0.1,0-0.1s0,0-0.1,0c0-0.1,0-0.2,0-0.4c0,0,0,0,0.1,0h0.1v-0.1l0.1-0.1c0,0,0-0.1,0-0.1s0,0,0.1,0s0.1-0.1,0.1-0.2
		l0.1-0.1c0-0.1,0.1-0.1,0.1-0.1c0-0.1,0-0.2,0.1-0.2c0,0,0.1,0,0.2,0s0.2,0.1,0.2,0.2h0.4l0,0c0.1,0.1,0.1,0.1,0.2,0.1
		c0,0.1,0.1,0.2,0.2,0.3s0.2,0.2,0.2,0.3c0,0,0.1,0,0.2,0.1c0,0.1,0,0.2,0.1,0.2c0,0.1,0,0.2-0.1,0.3c0,0,0,0.1,0.1,0.2
		c0,0.2,0.1,0.4,0.2,0.5c0,0.2,0,0.3,0.1,0.3c0,0.1,0,0.2,0,0.3s0,0.2,0,0.2v0.1l0.1,0.1c0,0.1,0,0.2,0,0.2l0.1,0.1
		c0,0.1,0.1,0.1,0.1,0.1h0.1c0,0,0,0,0,0.1c0,0,0,0,0,0.1s0,0.1,0,0.1v0.1v0.1c0,0,0,0,0.1,0l0.2,0.2v0.1v0.1c0,0,0,0.1,0.1,0.1
		c0,0.1,0.1,0.1,0,0.2c0.1,0.1,0.1,0.1,0.1,0.1s0.1,0.2,0.2,0.6c0,0,0,0.1,0.1,0.1c0,0.1,0,0.1,0,0.2c0,0.1,0.1,0.1,0.1,0.2
		c0,0.1,0.1,0.1,0.1,0.1c0.1,0.3,0.2,0.4,0.2,0.4c0,0.1,0,0.1,0,0.2c0,0.1,0.1,0.1,0.1,0.2c0.1,0.1,0.1,0.2,0.2,0.2
		c0,0.1,0,0.2,0.1,0.2c0,0,0.1,0.1,0.2,0.1c0,0.1,0,0.1,0,0.2h0.1c0,0,0,0,0.1,0v0.1c0,0.1,0,0.1,0,0.2H75h0.1
		c0.1,0.3,0.1,0.5,0.2,0.5v0.1c0.1,0.1,0.2,0.2,0.2,0.2V55c0,0,0,0,0.1,0.1c0,0.1,0,0.1,0,0.1c0,0.1,0,0.1,0.1,0.2
		c0.1,0.1,0.1,0.1,0.1,0.2h0.1c0,0.1,0.1,0.2,0.2,0.2c0,0.1,0,0.1,0,0.1s0,0,0.1,0.1c0,0.1,0,0.2,0,0.3c0.1,0.1,0.2,0.1,0.2,0.1
		s0,0.1,0,0.2c0,0.1,0.1,0.2,0.1,0.2s0,0,0.1,0l0,0c0,0.3,0.1,0.5,0.3,0.7c0.1,0,0.1,0,0.2,0v-0.2c0-0.1,0.1-0.2,0.2-0.3v-0.1
		c0.1-0.1,0.1-0.2,0.1-0.4l0.1-0.1c0,0,0-0.1,0.1-0.1l0.1-0.1v-0.1c0,0,0-0.1,0.1-0.1c0-0.1,0.1-0.1,0-0.2v-0.1c0-0.1,0-0.2,0-0.2
		c0.1,0,0.2,0,0.2-0.2c0-0.1,0.1-0.1,0.1-0.1c0-0.1,0-0.2,0-0.3s0.1-0.2,0.1-0.2l0.1-0.1c0-0.1,0-0.1,0.1-0.3c0-0.1,0.1-0.2,0-0.4
		c0.1-0.1,0.1-0.2,0.1-0.3v-0.1c0,0,0,0,0-0.1c0,0,0.1,0,0.1-0.1s0.1-0.2,0.1-0.2c0-0.2,0.1-0.2,0.1-0.3v-0.1c0-0.1,0-0.1,0-0.1l0,0
		l0,0c0,0,0-0.1,0.1-0.1c0-0.1,0-0.1,0-0.1c0-0.1,0-0.1,0-0.2c0-0.1,0-0.2,0-0.2v-0.1c0-0.1,0-0.1,0-0.1c0.1-0.3,0.1-0.5,0.1-0.6
		h0.1c0-0.1,0.1-0.2,0.2-0.3s0.1-0.2,0.1-0.3s0.1-0.1,0.1-0.2c0-0.1,0.1-0.2,0.1-0.2l0.1-0.1c0,0,0-0.1,0-0.4v-0.1v-0.1v-0.1v-0.1
		c0,0,0-0.1,0.1-0.2l0,0l0,0c0,0,0-0.1,0-0.2c0-0.1,0-0.2,0-0.2c0-0.1-0.1-0.2-0.1-0.2c0.2-0.1,0.2-0.1,0.3-0.2c0,0,0-0.1,0-0.2
		c0-0.1,0-0.1,0-0.2c0,0,0-0.1,0.1-0.1v-0.1L80,47.6c0,0,0-0.1,0.1-0.2c0-0.1,0-0.2,0-0.4s0-0.3,0-0.4l0.1-0.1v-0.1l-0.1-0.1
		c0-0.1,0-0.2,0-0.2c0.1-0.1,0.1-0.1,0.1-0.2v-0.2c0-0.1-0.1-0.2,0-0.3h0.2C80.8,45.1,80.9,44.9,81.1,44.7
		C81.1,44.8,81.1,44.8,81.1,44.7z M81.3,44.6C81.3,44.6,81.4,44.6,81.3,44.6c0.1,0.2,0.2,0.2,0.2,0.2c0,0.1,0.1,0.1,0.2,0.1
		s0.1,0,0.2,0c0,0.1,0.1,0.2,0.1,0.2c0.1,0,0.1,0,0.2,0.1s0.1,0.1,0.1,0.1c0.1,0,0.1,0,0.2,0s0,0,0,0.1v0.1c0,0,0,0,0.1,0h0.1
		c0,0,0,0,0,0.1c0,0,0,0,0.1,0c0,0,0,0,0.1,0c0,0,0,0.1,0,0.2c0,0.1,0,0.1,0,0.2v0.1c0,0.1,0,0.1,0.1,0.2c0,0.1,0.1,0.1,0.1,0.2
		c0,0.1,0.1,0.1,0.2,0.1c0,0.2,0,0.3-0.1,0.4v0.1c0,0.1,0,0.1,0,0.1c-0.1,0.1-0.2,0.2-0.1,0.5v0.1v0.1c-0.1,0-0.1,0-0.1,0.1
		c0,0.2,0.1,0.3,0,0.4c-0.1,0-0.1,0.1-0.2,0.2c0,0.1-0.1,0.2-0.1,0.2s0,0.1,0,0.2c0,0.1,0,0.1,0,0.2c-0.1,0.1-0.1,0.2-0.2,0.4
		s-0.1,0.3-0.2,0.4v0.1c0,0,0,0,0.1,0c0,0.1,0,0.1-0.1,0.2c0,0.1-0.1,0.1-0.1,0.2c0,0,0,0.1-0.1,0.1s-0.1,0-0.1,0.1s0,0.1,0,0.1
		c-0.2,0.2-0.2,0.4-0.2,0.7c0,0-0.1,0.1-0.1,0.2c0,0.1-0.1,0.2-0.1,0.2s0,0.1,0,0.2c0,0,0,0.1,0,0.2c0,0.1,0,0.2-0.1,0.2
		c0,0.1,0,0.2-0.1,0.3l-0.1,0.1c0,0.1,0.1,0.1,0.1,0.1c0,0.1-0.1,0.1-0.2,0.3C81,53,81,53.2,81,53.3v0.1v0.1l0,0
		c-0.1,0.1-0.1,0.2-0.1,0.4c0,0,0,0-0.1,0c0,0,0,0-0.1,0.1s0,0,0,0.1v0.1c0,0,0,0,0,0.1v0.1v0.1c0,0.1,0,0.1,0,0.1s0,0.1-0.1,0.1
		c0,0.1-0.1,0.1-0.1,0.2V55c0,0.1,0,0.1,0,0.1s0,0,0,0.1c0,0,0,0,0,0.1c0,0,0,0,0,0.1s0,0.1,0,0.1v0.1c0,0.1,0,0.1,0,0.1
		c-0.1,0-0.1,0.1-0.2,0.2c0,0.1,0,0.1,0,0.1s0,0.1-0.1,0.1v0.1c0,0,0,0.1,0,0.2c0,0.1,0,0.2-0.1,0.2c0,0.2,0,0.3-0.1,0.5
		s-0.1,0.3-0.1,0.5c0,0,0,0.1-0.1,0.1c0,0.1,0,0.2,0,0.2c0,0.1-0.1,0.1-0.1,0.1v0.1v0.1v0.2c-0.1,0-0.1,0.2-0.1,0.4
		c-0.1,0.1-0.2,0.2-0.1,0.5l-0.1,0.1c0,0.1,0,0.1,0,0.2c0.1,0.1,0.1,0.1,0,0.2c0,0,0,0,0-0.1c0,0-0.1,0,0,0.1c0,0.1,0,0.2,0,0.3
		C79.1,60,79,60,79,60c0,0.2,0.1,0.4,0.2,0.4c0,0.1,0,0.1,0,0.2h-0.1l0,0l0,0h0.1v0.1c0,0.1,0,0.1,0,0.1c-0.1,0-0.1,0-0.2,0
		c0,0-0.1,0-0.2,0.1c0,0.1,0,0.1,0,0.1v0.1h-0.1c0,0,0,0-0.1,0c0,0.1-0.1,0.2-0.1,0.3h-0.1c-0.1,0-0.1,0.1-0.1,0.2c0,0,0,0-0.1,0
		c-0.1,0.1-0.2,0.1-0.2,0.2l0,0c0,0-0.1-0.1-0.1-0.2c0,0,0,0-0.1,0v0.1c-0.2,0.1-0.2,0-0.3,0h-0.1c-0.1,0-0.1,0-0.1,0
		c-0.1,0.1-0.1,0.1-0.2,0.1c0-0.1-0.1-0.2-0.1-0.2c0-0.1-0.1-0.1-0.2-0.1c0-0.1-0.1-0.1-0.2-0.1c0-0.1,0-0.3-0.2-0.5v-0.1
		c-0.1-0.2-0.2-0.3-0.3-0.4c0,0,0,0-0.1,0h-0.1c0-0.3,0-0.5-0.1-0.6l0,0l0,0c0,0,0-0.1-0.1-0.2c0-0.1,0-0.2,0-0.2h-0.1
		c0-0.1,0-0.1-0.1-0.2c-0.1-0.1-0.1-0.2-0.1-0.2c-0.1-0.1-0.2-0.2-0.3-0.4c0-0.1-0.1-0.2-0.2-0.4c0-0.1-0.1-0.1-0.1-0.2
		c0-0.1,0-0.1-0.1-0.2c0,0,0,0-0.1,0h-0.1c0-0.2,0-0.3-0.1-0.4c0-0.1,0-0.2-0.1-0.3h-0.1l-0.1,0.1l0,0v-0.1V57c0,0,0-0.1,0-0.2
		c0-0.1-0.1-0.2-0.2-0.1v-0.1c0-0.1,0-0.1,0-0.1s0,0-0.1-0.1c0,0-0.1-0.1-0.1-0.2c-0.1-0.3-0.3-0.6-0.5-0.7v-0.1
		c-0.1-0.1-0.2-0.2-0.2-0.2c0-0.2-0.1-0.4-0.2-0.5V55c-0.2-0.2-0.3-0.3-0.3-0.3s0-0.1,0-0.2c0-0.2,0-0.2-0.1-0.3h-0.1h-0.1v-0.1
		c0-0.1,0-0.1,0-0.1c-0.1-0.1-0.1-0.1-0.1-0.2H72c0-0.1,0-0.1,0-0.3v-0.1l0,0c0,0,0,0,0-0.1c0,0,0,0,0-0.1h-0.1c-0.1,0-0.1,0-0.1,0
		c0-0.1,0-0.2,0-0.2l0,0c0,0,0,0-0.1,0c0-0.1,0-0.1,0-0.2h-0.1v-0.1c0-0.1,0-0.1,0-0.1s0,0-0.1,0c0-0.1,0-0.1,0-0.2
		c0-0.1,0.1-0.1,0-0.2c0,0,0-0.1-0.1-0.1c-0.1-0.1-0.1-0.1-0.1-0.2v-0.1v-0.1l-0.1-0.1c0-0.1,0-0.1,0-0.2c0-0.1-0.1-0.1-0.1-0.2
		c-0.1-0.1-0.2-0.2-0.2-0.5c0,0-0.1-0.1-0.2-0.1c0,0,0,0,0-0.1s0,0,0.1,0c0,0-0.1-0.1-0.1-0.2c0-0.1,0-0.2,0-0.4c0,0-0.1,0-0.2,0
		c0-0.1,0.1-0.2,0-0.3c0,0,0-0.1-0.1-0.1c0-0.1,0-0.2-0.1-0.4c0-0.1,0-0.1,0-0.2c-0.1-0.1-0.1-0.2-0.1-0.2s0,0,0-0.1h-0.1
		c0,0,0,0,0-0.1s0-0.1,0-0.1s0-0.1-0.1-0.1v-0.1c0,0,0-0.1,0-0.2c0-0.1,0-0.1,0-0.1s0,0-0.1,0s0,0-0.1,0v-0.1c0-0.1,0-0.1,0-0.1
		s0,0-0.1,0c0-0.1,0-0.2,0-0.4c0,0,0,0,0.1,0h0.1v-0.1l0.1-0.1c0,0,0-0.1,0-0.1s0,0,0.1,0s0.1-0.1,0.1-0.2l0.1-0.1
		c0-0.1,0.1-0.1,0.1-0.1c0-0.1,0-0.2,0.1-0.2c0,0,0.1,0,0.2,0s0.2,0.1,0.2,0.2h0.4l0,0c0.1,0.1,0.1,0.1,0.2,0.1
		c0,0.1,0.1,0.2,0.2,0.3s0.2,0.2,0.2,0.3c0,0,0.1,0,0.2,0.1c0,0.1,0,0.2,0.1,0.2c0,0.1,0,0.2-0.1,0.3c0,0,0,0.1,0.1,0.2
		c0,0.2,0.1,0.4,0.2,0.5c0,0.2,0,0.3,0.1,0.3c0,0.1,0,0.2,0,0.3s0,0.2,0,0.2v0.1l0.1,0.1c0,0.1,0,0.2,0,0.2l0.1,0.1
		c0,0.1,0.1,0.1,0.1,0.1h0.1c0,0,0,0,0,0.1c0,0,0,0,0,0.1s0,0.1,0,0.1v0.1v0.1c0,0,0,0,0.1,0l0.2,0.2v0.1v0.1c0,0,0,0.1,0.1,0.1
		c0,0.1,0.1,0.1,0,0.2c0.1,0.1,0.1,0.1,0.1,0.1s0.1,0.2,0.2,0.6c0,0,0,0.1,0.1,0.1c0,0.1,0,0.1,0,0.2c0,0.1,0.1,0.1,0.1,0.2
		c0,0.1,0.1,0.1,0.1,0.1c0.1,0.3,0.2,0.4,0.2,0.4c0,0.1,0,0.1,0,0.2c0,0.1,0.1,0.1,0.1,0.2c0.1,0.1,0.1,0.2,0.2,0.2
		c0,0.1,0,0.2,0.1,0.2c0,0,0.1,0.1,0.2,0.1c0,0.1,0,0.1,0,0.2h0.1c0,0,0,0,0.1,0v0.1c0,0.1,0,0.1,0,0.2H75h0.1
		c0.1,0.3,0.1,0.5,0.2,0.5v0.1c0.1,0.1,0.2,0.2,0.2,0.2V55c0,0,0,0,0.1,0.1c0,0.1,0,0.1,0,0.1c0,0.1,0,0.1,0.1,0.2
		c0.1,0.1,0.1,0.1,0.1,0.2h0.1c0,0.1,0.1,0.2,0.2,0.2c0,0.1,0,0.1,0,0.1s0,0,0.1,0.1c0,0.1,0,0.2,0,0.3c0.1,0.1,0.2,0.1,0.2,0.1
		s0,0.1,0,0.2c0,0.1,0.1,0.2,0.1,0.2s0,0,0.1,0l0,0c0,0.3,0.1,0.5,0.3,0.7c0.1,0,0.1,0,0.2,0v-0.2c0-0.1,0.1-0.2,0.2-0.3v-0.1
		c0.1-0.1,0.1-0.2,0.1-0.4l0.1-0.1c0,0,0-0.1,0.1-0.1l0.1-0.1v-0.1c0,0,0-0.1,0.1-0.1c0-0.1,0.1-0.1,0-0.2v-0.1c0-0.1,0-0.2,0-0.2
		c0.1,0,0.2,0,0.2-0.2c0-0.1,0.1-0.1,0.1-0.1c0-0.1,0-0.2,0-0.3s0.1-0.2,0.1-0.2l0.1-0.1c0-0.1,0-0.1,0.1-0.3c0-0.1,0.1-0.2,0-0.4
		c0.1-0.1,0.1-0.2,0.1-0.3v-0.1c0,0,0,0,0-0.1c0,0,0.1,0,0.1-0.1s0.1-0.2,0.1-0.2c0-0.2,0.1-0.2,0.1-0.3v-0.1c0-0.1,0-0.1,0-0.1l0,0
		l0,0c0,0,0-0.1,0.1-0.1c0-0.1,0-0.1,0-0.1c0-0.1,0-0.1,0-0.2c0-0.1,0-0.2,0-0.2v-0.1c0-0.1,0-0.1,0-0.1c0.1-0.3,0.1-0.5,0.1-0.6
		h0.1c0-0.1,0.1-0.2,0.2-0.3s0.1-0.2,0.1-0.3s0.1-0.1,0.1-0.2c0-0.1,0.1-0.2,0.1-0.2l0.1-0.1c0,0,0-0.1,0-0.4v-0.1v-0.1v-0.1v-0.1
		c0,0,0-0.1,0.1-0.2l0,0l0,0c0,0,0-0.1,0-0.2c0-0.1,0-0.2,0-0.2c0-0.1-0.1-0.2-0.1-0.2c0.2-0.1,0.2-0.1,0.3-0.2c0,0,0-0.1,0-0.2
		c0-0.1,0-0.1,0-0.2c0,0,0-0.1,0.1-0.1v-0.1L80,47.6c0,0,0-0.1,0.1-0.2c0-0.1,0-0.2,0-0.4s0-0.3,0-0.4l0.1-0.1v-0.1l-0.1-0.1
		c0-0.1,0-0.2,0-0.2c0.1-0.1,0.1-0.1,0.1-0.2v-0.2c0-0.1-0.1-0.2,0-0.3h0.2c0-0.2,0.1-0.3,0.3-0.5v-0.1l0,0c0,0,0,0,0.1,0
		C81.2,44.7,81.3,44.7,81.3,44.6z M73.7,51.2L73.7,51.2C73.8,51.2,73.8,51.3,73.7,51.2C73.7,51.3,73.7,51.3,73.7,51.2
		C73.7,51.3,73.7,51.3,73.7,51.2z M73.8,51.2C73.8,51.2,73.8,51.3,73.8,51.2C73.7,51.3,73.7,51.3,73.8,51.2L73.8,51.2z M77.1,56.7
		C77.2,56.7,77.2,56.7,77.1,56.7C77.2,56.8,77.2,56.8,77.1,56.7L77.1,56.7z M77.1,56.8L77.1,56.8C77.2,56.7,77.2,56.7,77.1,56.8
		C77.2,56.8,77.2,56.8,77.1,56.8z"/>
	<path fill="#643282" d="M90.9,41.9c0.4,0.1,0.7,0,0.7-0.2c0,0,0.1,0,0.3,0c0,0,0,0,0,0.1c0,0,0,0,0,0.1c0,0,0.1,0,0.2,0
		s0.1,0,0.1,0.1c0.1,0,0.2,0,0.3,0.1c0.4,0,0.6,0.1,0.7,0.2h0.1c0,0.1,0.1,0.1,0.3,0.2s0.2,0.2,0.3,0.2v0.1c0.1,0.1,0.2,0.3,0.3,0.7
		l0.1,0.1c0,0.2,0,0.3,0,0.4c0,0.1,0,0.2,0,0.3s-0.1,0.1-0.1,0.2c0,0.1-0.1,0.1-0.1,0.1c0,0.1,0,0.2-0.1,0.3c0,0.1,0,0.1,0,0.1v0.1
		c0,0,0,0-0.1,0l0,0c0,0,0,0.1-0.1,0.1h-0.1v0.1c0,0,0,0.1-0.1,0.1s-0.2,0-0.2,0c0,0.1,0,0.1,0,0.1h-0.1c-0.1,0-0.1,0-0.1,0
		s0,0-0.1,0c0,0,0,0-0.1,0c0,0,0-0.1,0.1-0.1c0,0,0-0.1-0.1-0.1c0-0.1,0-0.1-0.1-0.1l-0.1,0.1h-0.1c0-0.1,0-0.1-0.1-0.2
		c0-0.1-0.1-0.1-0.1-0.1v0.1v0.1c0,0,0-0.1-0.1-0.1c0,0,0-0.1-0.1-0.1c0,0,0,0-0.1-0.1c0-0.2-0.2-0.2-0.4-0.2c0,0-0.1,0-0.2,0.1
		c0,0-0.1,0-0.2,0s-0.1,0-0.1,0s0,0.1-0.1,0.1c0,0-0.2,0-0.3,0c-0.2,0.1-0.4,0.1-0.4,0.2c-0.1-0.1-0.2-0.1-0.3,0c-0.1,0-0.1,0-0.2,0
		s-0.1,0-0.2,0v0.1c-0.1,0-0.2,0-0.2,0c-0.1-0.1-0.2-0.1-0.2,0c0,0,0,0-0.1,0.1c0,0,0,0.1-0.1,0.1c0,0-0.1,0-0.2,0s-0.1,0-0.1,0
		s-0.1,0-0.1,0.1h-0.1h-0.1v0.1c-0.2,0-0.4,0-0.4,0s0,0,0,0.1c0,0,0,0,0,0.1c-0.2-0.1-0.4-0.1-0.5,0.2c0,0-0.1,0-0.1-0.1
		c-0.1,0-0.1,0.1,0,0.2c0,0.1,0,0.1,0,0.1v0.1v0.1v0.1c0,0.1,0,0.2,0.1,0.2c0,0.1,0,0.2,0.1,0.3s0.1,0.2,0,0.3c0,0.1,0,0.2,0.1,0.3
		c0,0,0,0,0,0.1c0,0,0,0,0,0.1s0,0.1,0,0.2c0,0.1,0,0.1,0.1,0.1c0,0.6,0,0.9,0,0.9c-0.1,0.1-0.1,0.3,0,0.5c0,0,0,0.1,0,0.2
		c0,0,0,0.1-0.1,0.1c0,0.1,0,0.1,0,0.2c0.1,0.1,0.1,0.1,0.1,0.1v0.1v0.1c0,0.1,0,0.2,0,0.5c0,0.2,0,0.4,0,0.5c0,0,0,0.1,0,0.2
		c0,0.1,0.1,0.1,0.2,0.1s0.2-0.1,0.2-0.1c0.2,0,0.4,0,0.4-0.1c0.3,0,0.4,0,0.4,0c0.1,0,0.2,0,0.3,0c0,0,0.1,0,0.1-0.1
		c0.1,0,0.1-0.1,0.1-0.1h0.1c0.1,0,0.2,0,0.2-0.1c0.2,0.1,0.3,0,0.4,0c0,0,0,0,0.1,0c0,0,0,0,0.1,0h0.1c0.1,0,0.1,0,0.1,0
		c0.1,0,0.2,0,0.4,0V51c0.1,0.1,0.2,0.1,0.3,0c0.1,0,0.2-0.1,0.3-0.1h0.1l0.1-0.1c0,0,0,0,0.1,0c0,0,0,0,0,0.1c0,0,0.1,0,0.1-0.1
		c0.1-0.1,0.1-0.1,0.2-0.1c0-0.1,0.1-0.1,0.1-0.1s0,0,0.1,0.1c0.2,0,0.3,0,0.3-0.1c0,0,0.1,0,0.2,0s0.1,0,0.1,0s0.1,0,0.2,0.1
		c0.1,0,0.1,0.1,0.2,0.1s0.2,0.1,0.2,0.2c0,0,0.1,0,0.2,0l0,0c0,0,0,0.1,0.1,0.1c0.2,0,0.3,0,0.3,0s0,0.1,0.1,0.2v0.1
		c0,0.1,0,0.1,0.1,0.3c0,0.2,0.1,0.3,0.2,0.4c0,0,0,0.1-0.1,0.1c0,0.1,0,0.2-0.1,0.3c0,0.1-0.1,0.2-0.1,0.3h-0.1c0,0,0,0,0,0.1
		s0,0,0,0.1h-0.1l0,0h-0.1c0,0,0,0-0.1-0.1c0,0,0,0-0.1,0s-0.1,0-0.1,0.1h-0.1c0,0.1-0.1,0.1-0.3,0.2c-0.2,0.1-0.2,0.1-0.2,0.2
		c-0.2,0-0.3,0-0.5,0.2c0,0,0,0-0.1,0c0,0,0,0-0.1,0.1c0,0,0,0,0,0.1c-0.1,0-0.1,0-0.2-0.1c0,0,0,0-0.1,0v0.1c0,0-0.1,0-0.2,0
		s-0.2,0-0.2,0s0,0-0.1,0.1L91.7,54c-0.1,0-0.1,0-0.2,0s-0.1,0.1,0,0.2c0-0.1-0.1-0.1-0.2-0.1s-0.2,0-0.2,0.1v0.1c0,0-0.1,0-0.2,0
		c-0.1-0.1-0.1,0-0.1,0s-0.1,0-0.2,0v0.2c0,0-0.1,0-0.2,0h-0.1c0,0-0.1,0.1,0,0.2l-0.2-0.1c0,0-0.1,0-0.3,0c0,0,0,0.1-0.1,0.1
		c0,0,0,0.1-0.1,0.1c-0.2,0-0.3,0-0.3,0L89.2,55c-0.2,0-0.4,0-0.4,0s-0.1,0.1-0.2,0.1c0,0,0,0,0,0.1c-0.2,0.1-0.3,0.1-0.4,0
		c0,0-0.1,0-0.1,0.1L88,55.4c0,0,0,0-0.1-0.1c0,0,0-0.1-0.1-0.1c0,0-0.1,0-0.2,0.1c-0.1,0-0.1,0-0.1,0c-0.1,0-0.1,0.2,0,0.5v0.1V56
		c0,0.1,0,0.1,0.1,0.1c0,0.1,0,0.2-0.1,0.2c0,0,0,0.1,0,0.2c0,0.1,0,0.2,0.1,0.2c0,0,0,0,0,0.1s0,0,0,0.1c0,0,0,0.1-0.1,0.3
		c0.1,0.1,0.1,0.2,0.1,0.5c0,0.2,0,0.4,0,0.6c-0.1,0.2-0.1,0.4,0,0.4c0,0.1,0,0.1,0,0.3v0.1v0.1c0.1,0.2,0.1,0.3,0.1,0.4
		c0,0.1,0.1,0.1,0.1,0.3c0,0.1,0.1,0.2,0.1,0.3c0.1,0,0.2,0,0.3,0.1c0.2,0,0.2,0,0.3,0c0,0,0,0,0.1-0.1c0,0,0.1,0,0.1,0.1
		c0.3,0,0.5-0.1,0.6-0.1c0,0,0.1,0,0.3,0c0.1,0,0.2,0,0.3,0c0-0.1,0.2-0.1,0.5-0.2c0,0,0,0,0-0.1v-0.1c0,0,0.1,0,0.2,0s0.1,0,0.2,0
		c0,0,0.1-0.1,0.2-0.1s0.1-0.1,0.2-0.1s0.3,0,0.4-0.1s0.3-0.2,0.4-0.2c0-0.1,0-0.1,0.1-0.1c0.1,0.1,0.2,0,0.3,0
		c0.2,0,0.3-0.1,0.4-0.3c0.1,0,0.2,0,0.2,0c0.1-0.1,0.1-0.1,0.2-0.1c0.4,0,0.6,0,0.6,0.1h0.1c0,0.1,0.1,0.2,0.2,0.4h0.1
		c0,0,0.1,0.1,0.2,0.2c0,0.1,0.1,0.2,0.2,0.3c0,0.1,0,0.1,0.1,0.2c0.1,0.1,0.1,0.1,0.1,0.2c0,0,0,0,0,0.1s0,0.1,0,0.2
		c-0.1,0.2-0.2,0.3-0.2,0.4c-0.1,0-0.2,0.1-0.2,0.2c-0.2,0-0.2,0.1-0.3,0.4c0,0,0,0-0.1,0c0,0,0,0-0.1,0c0,0,0,0.1-0.1,0.2
		c0,0,0,0-0.1,0c0,0,0,0-0.1,0s-0.1,0-0.1,0.1c-0.2,0-0.2,0.1-0.2,0.2h-0.1c-0.1,0.2-0.2,0.2-0.4,0.1c0,0-0.1,0.1-0.1,0.2
		c0,0,0,0-0.1,0c-0.1-0.1-0.2-0.1-0.2,0c0,0-0.1,0.1-0.1,0.2h-0.1c0,0,0,0,0,0.1v0.1c0,0-0.1-0.1-0.2-0.1s-0.2,0-0.2,0
		s0,0.1-0.1,0.1v0.1c0,0,0,0-0.1,0c0,0,0,0-0.1,0c0,0,0,0.1-0.1,0.2c-0.1-0.1-0.2,0-0.3,0c0,0,0,0,0,0.1c-0.1,0-0.2,0-0.2,0
		c-0.1,0-0.2,0.1-0.2,0.1s0,0-0.1,0l0,0c0,0-0.1,0-0.2,0s-0.2,0-0.2,0.1s0,0.1,0,0.1s-0.1,0-0.2,0h-0.1c0,0,0-0.1-0.1-0.1
		c-0.2,0.1-0.3,0.1-0.4,0.1v0.1h-0.1c0,0,0-0.1-0.1-0.1c0,0,0,0.1-0.1,0.1c0,0,0,0-0.1,0h-0.1c-0.1,0-0.1,0-0.2,0c0-0.1,0-0.1,0-0.1
		h-0.1c-0.1,0-0.1,0.1-0.1,0.2c-0.2,0-0.3,0-0.5,0c0-0.1,0-0.1-0.1-0.2h-0.1v0.1c0,0.1,0,0.1,0,0.1s0,0,0-0.1v-0.1h-0.1v-0.1
		c0-0.1-0.1-0.1-0.2-0.1c-0.1-0.1-0.1-0.1-0.2-0.1c0,0-0.1,0-0.1-0.1s-0.1-0.1-0.1-0.2c0,0,0,0-0.1,0c0,0,0,0-0.1,0v-0.1
		c0,0,0-0.1-0.1-0.1s0,0-0.1,0h-0.1c0-0.1,0-0.2-0.2-0.3v-0.1c-0.1-0.1-0.2-0.2-0.2-0.2h-0.1c-0.1-0.1-0.1-0.1-0.2-0.2
		c-0.1-0.1-0.1-0.2-0.2-0.3s-0.1-0.2-0.2-0.2c-0.1-0.4-0.2-0.6-0.2-0.6c0-0.1,0-0.1-0.1-0.3c0-0.1,0-0.1,0-0.2c0-0.1,0-0.2,0-0.2
		c0-0.1,0-0.1-0.1-0.2v-0.1v-0.1c0,0,0-0.1,0-0.3s0-0.3-0.1-0.3c0-0.1,0-0.2,0-0.3c0-0.2,0-0.3,0-0.3c0-0.4,0-0.9,0-1.7
		c0-0.7,0-1.3,0-1.7c0.1,0,0.1,0,0.1-0.1S85,54.7,85,54.7c0-0.1,0-0.2,0-0.3s0.1-0.2,0.1-0.2c0-0.1-0.1-0.1-0.1-0.2
		c0-0.1,0-0.1,0.1-0.1c0-0.1,0-0.6,0-1.5l0.1-0.1c0-0.1,0-0.1-0.1-0.2c0,0,0-0.1,0-0.2c0-0.1,0-0.2,0-0.3v-0.1c0-0.1,0-0.2,0-0.2
		c0-0.1,0-0.2,0-0.5s0-0.4-0.1-0.4c0.1,0,0.1-0.2,0.1-0.4s0-0.3,0-0.4L85,49.5c0-0.2,0-0.3,0.1-0.3c0,0,0-0.1-0.1-0.1V49
		c0-0.3,0-0.4,0-0.5c0,0,0,0-0.1,0s0,0,0,0c0-0.3,0-0.5,0-0.7h-0.1c0,0,0-0.1,0-0.2v-0.1v-0.1v-0.1v-0.1c0,0,0-0.1-0.1-0.1
		c-0.1-0.1-0.1-0.2,0-0.3l-0.1-0.1c0-0.1,0-0.1,0-0.2c0,0-0.1-0.1-0.2-0.2c0-0.1,0-0.2,0-0.2c0-0.1,0-0.1,0-0.2c0-0.1,0-0.2,0-0.3
		c0.1-0.1,0.1-0.2,0.1-0.3c0,0,0.1-0.1,0.1-0.2c0.1-0.1,0.1-0.2,0.2-0.2l0,0v-0.1l0.1,0.1c0,0,0.1,0,0.2,0s0.1,0,0.2,0
		c0,0,0.1,0,0.2-0.1s0.1-0.1,0.1-0.1s0.1,0,0.2,0s0.2,0,0.2,0s0,0,0.1,0c0,0,0,0,0.1,0c0.2,0,0.3,0,0.3-0.1c0.3-0.1,0.5-0.1,0.5-0.2
		h0.2l0,0c0,0,0,0,0.1,0h0.1c0,0,0.1,0,0.2-0.1s0.1-0.1,0.2-0.1c0,0,0-0.1,0-0.2h0.1c0,0,0,0,0,0.1v0.1c0.2-0.1,0.3-0.1,0.4-0.2
		c0,0,0.1,0,0.2,0.1l0.2-0.1c0,0,0.1-0.1,0.2-0.2c0,0.1,0,0.1,0.1,0.2c0,0,0.1,0,0.1-0.1c0.1,0,0.1,0,0.1,0h0.1c0,0,0.1,0,0.1-0.1
		h0.1c0.1,0,0.1,0,0.2,0s0.2-0.1,0.3-0.1h0.1c0,0,0.1,0,0.1-0.1c0.1,0,0.1,0,0.1,0s0.1,0,0.2-0.1h0.1C90.8,42,90.9,42,90.9,41.9
		L90.9,41.9L90.9,41.9z M91.6,41.7c0,0,0.1,0,0.2,0s0.1,0,0.2,0l0,0c0,0,0,0,0,0.1c0,0,0.1,0,0.2,0s0.1,0,0.1,0.1
		c0.1,0,0.2,0,0.3,0.1c0.4,0,0.6,0.1,0.7,0.2h0.1c0,0.1,0.1,0.1,0.3,0.2s0.2,0.2,0.3,0.2v0.1c0.1,0.1,0.2,0.3,0.3,0.7c0,0,0,0,0.1,0
		l0,0c0,0.2,0,0.3,0,0.4c0,0.1,0,0.2,0,0.3s-0.1,0.1-0.1,0.2c0,0.1-0.1,0.1-0.1,0.1c0,0.1,0,0.2-0.1,0.3c0,0.1,0,0.1,0,0.1v0.1
		c0,0,0,0-0.1,0l0,0c0,0,0,0.1-0.1,0.1h-0.1v0.1c0,0,0,0.1-0.1,0.1s-0.2,0-0.2,0c0,0.1,0,0.1,0,0.1h-0.1c-0.1,0-0.1,0-0.1,0
		s0,0-0.1,0c0,0,0,0-0.1,0c0,0,0-0.1,0.1-0.1c0,0,0-0.1-0.1-0.1c0-0.1,0-0.1-0.1-0.1l-0.1,0.1h-0.1c0-0.1,0-0.1-0.1-0.2
		c0-0.1-0.1-0.1-0.1-0.1v0.1V45c0,0,0-0.1-0.1-0.1c0,0,0-0.1-0.1-0.1c0,0,0,0-0.1-0.1c0-0.2-0.2-0.2-0.4-0.2c0,0-0.1,0-0.2,0.1
		c0,0-0.1,0-0.2,0s-0.1,0-0.1,0s0,0.1-0.1,0.1c0,0-0.2,0-0.3,0c-0.2,0.1-0.4,0.1-0.4,0.2c-0.1-0.1-0.2-0.1-0.3,0c-0.1,0-0.1,0-0.2,0
		s-0.1,0-0.2,0V45c-0.1,0-0.2,0-0.2,0c-0.1-0.1-0.2-0.1-0.2,0c0,0,0,0-0.1,0.1c0,0,0,0.1-0.1,0.1c0,0-0.1,0-0.2,0s-0.1,0-0.1,0
		s-0.1,0-0.1,0.1h-0.1h-0.1v0.1c-0.2,0-0.4,0-0.4,0s0,0,0,0.1c0,0,0,0,0,0.1c-0.2-0.1-0.4-0.1-0.5,0.2c0,0-0.1,0-0.1-0.1
		c-0.1,0-0.1,0.1,0,0.2c0,0.1,0,0.1,0,0.1v0.1v0.1v0.1c0,0.1,0,0.2,0.1,0.2c0,0.1,0,0.2,0.1,0.3s0.1,0.2,0,0.3c0,0.1,0,0.2,0.1,0.3
		c0,0,0,0,0,0.1c0,0,0,0,0,0.1s0,0.1,0,0.2c0,0.1,0,0.1,0.1,0.1c0,0.6,0,0.9,0,0.9c-0.1,0.1-0.1,0.3,0,0.5c0,0,0,0.1,0,0.2
		c0,0,0,0.1-0.1,0.1c0,0.1,0,0.1,0,0.2c0.1,0.1,0.1,0.1,0.1,0.1V50v0.1c0,0.1,0,0.2,0,0.5c0,0.2,0,0.4,0,0.5c0,0,0,0.1,0,0.2
		c0,0.1,0.1,0.1,0.2,0.1s0.2-0.1,0.2-0.1c0.2,0,0.4,0,0.4-0.1c0.3,0,0.4,0,0.4,0c0.1,0,0.2,0,0.3,0c0,0,0.1,0,0.1-0.1
		c0.1,0,0.1-0.1,0.1-0.1h0.1c0.1,0,0.2,0,0.2-0.1c0.2,0.1,0.3,0,0.4,0c0,0,0,0,0.1,0c0,0,0,0,0.1,0h0.1c0.1,0,0.1,0,0.1,0
		c0.1,0,0.2,0,0.4,0v-0.1c0.1,0.1,0.2,0.1,0.3,0c0.1,0,0.2-0.1,0.3-0.1H92l0.1-0.1c0,0,0,0,0.1,0c0,0,0,0,0,0.1c0,0,0.1,0,0.1-0.1
		c0.1-0.1,0.1-0.1,0.2-0.1c0-0.1,0.1-0.1,0.1-0.1s0,0,0.1,0.1c0.2,0,0.3,0,0.3-0.1c0,0,0.1,0,0.2,0s0.1,0,0.1,0s0.1,0,0.2,0.1
		c0.1,0,0.1,0.1,0.2,0.1s0.2,0.1,0.2,0.2c0,0,0.1,0,0.2,0l0,0c0,0,0,0.1,0.1,0.1c0.2,0,0.3,0,0.3,0s0,0.1,0.1,0.2v0.1
		c0,0.1,0,0.1,0.1,0.3c0,0.2,0.1,0.3,0.2,0.4c0,0,0,0.1-0.1,0.1c0,0.1,0,0.2-0.1,0.3c0,0.1-0.1,0.2-0.1,0.3h-0.1c0,0,0,0,0,0.1
		s0,0,0,0.1h-0.1l0,0h-0.1c0,0,0,0-0.1-0.1c0,0,0,0-0.1,0s-0.1,0-0.1,0.1h-0.1c0,0.1-0.1,0.1-0.3,0.2c-0.2,0.1-0.2,0.1-0.2,0.2
		c-0.2,0-0.3,0-0.5,0.2c0,0,0,0-0.1,0c0,0,0,0-0.1,0.1c0,0,0,0,0,0.1c-0.1,0-0.1,0-0.2-0.1c0,0,0,0-0.1,0v0.1c0,0-0.1,0-0.2,0
		s-0.2,0-0.2,0s0,0-0.1,0.1l-0.1,0.1c-0.1,0-0.1,0-0.2,0s-0.1,0.1,0,0.2c0-0.1-0.1-0.1-0.2-0.1s-0.2,0-0.2,0.1v0.1c0,0-0.1,0-0.2,0
		c-0.1-0.1-0.1,0-0.1,0s-0.1,0-0.2,0v0.2c0,0-0.1,0-0.2,0h-0.1c0,0-0.1,0.1,0,0.2l-0.2-0.1c0,0-0.1,0-0.3,0c0,0,0,0.1-0.1,0.1
		c0,0,0,0.1-0.1,0.1c-0.2,0-0.3,0-0.3,0l-0.1,0.2c-0.2,0-0.4,0-0.4,0s-0.1,0.1-0.2,0.1c0,0,0,0,0,0.1c-0.2,0.1-0.3,0.1-0.4,0
		c0,0-0.1,0-0.1,0.1l-0.1,0.1c0,0,0,0-0.1-0.1c0,0,0-0.1-0.1-0.1c0,0-0.1,0-0.2,0.1c-0.1,0-0.1,0-0.1,0c-0.1,0-0.1,0.2,0,0.5v0.1
		v0.1c0,0.1,0,0.1,0.1,0.1c0,0.1,0,0.2-0.1,0.2c0,0,0,0.1,0,0.2c0,0.1,0,0.2,0.1,0.2c0,0,0,0,0,0.1s0,0,0,0.1c0,0,0,0.1-0.1,0.3
		c0.1,0.1,0.1,0.2,0.1,0.5c0,0.2,0,0.4,0,0.6c-0.1,0.2-0.1,0.4,0,0.4c0,0.1,0,0.1,0,0.3v0.1V59c0.1,0.2,0.1,0.3,0.1,0.4
		c0,0.1,0.1,0.1,0.1,0.3c0,0.1,0.1,0.2,0.1,0.3c0.1,0,0.2,0,0.3,0.1c0.2,0,0.2,0,0.3,0c0,0,0,0,0.1-0.1c0,0,0.1,0,0.1,0.1
		c0.3,0,0.5-0.1,0.6-0.1c0,0,0.1,0,0.3,0c0.1,0,0.2,0,0.3,0c0-0.1,0.2-0.1,0.5-0.2c0,0,0,0,0-0.1v-0.1c0,0,0.1,0,0.2,0s0.1,0,0.2,0
		c0,0,0.1-0.1,0.2-0.1s0.1-0.1,0.2-0.1s0.3,0,0.4-0.1s0.3-0.2,0.4-0.2c0-0.1,0-0.1,0.1-0.1c0.1,0.1,0.2,0,0.3,0
		c0.2,0,0.3-0.1,0.4-0.3c0.1,0,0.2,0,0.2,0c0.1-0.1,0.1-0.1,0.2-0.1c0.4,0,0.6,0,0.6,0.1H94c0,0.1,0.1,0.2,0.2,0.4h0.1
		c0,0,0.1,0.1,0.2,0.2c0,0.1,0.1,0.2,0.2,0.3c0,0.1,0,0.1,0.1,0.2c0.1,0.1,0.1,0.1,0.1,0.2c0,0,0,0,0,0.1s0,0.1,0,0.2
		c-0.1,0.2-0.2,0.3-0.2,0.4c-0.1,0-0.2,0.1-0.2,0.2c-0.2,0-0.2,0.1-0.3,0.4c0,0,0,0-0.1,0c0,0,0,0-0.1,0c0,0,0,0.1-0.1,0.2
		c0,0,0,0-0.1,0c0,0,0,0-0.1,0s-0.1,0-0.1,0.1c-0.2,0-0.2,0.1-0.2,0.2h-0.1c-0.1,0.2-0.2,0.2-0.4,0.1c0,0-0.1,0.1-0.1,0.2
		c0,0,0,0-0.1,0c-0.1-0.1-0.2-0.1-0.2,0c0,0-0.1,0.1-0.1,0.2h-0.1c0,0,0,0,0,0.1v0.1c0,0-0.1-0.1-0.2-0.1s-0.2,0-0.2,0
		s0,0.1-0.1,0.1v0.1c0,0,0,0-0.1,0c0,0,0,0-0.1,0c0,0,0,0.1-0.1,0.2c-0.1-0.1-0.2,0-0.3,0c0,0,0,0,0,0.1c-0.1,0-0.2,0-0.2,0
		c-0.1,0-0.2,0.1-0.2,0.1s0,0-0.1,0l0,0c0,0-0.1,0-0.2,0s-0.2,0-0.2,0.1s0,0.1,0,0.1s-0.1,0-0.2,0H90c0,0,0-0.1-0.1-0.1
		c-0.2,0.1-0.3,0.1-0.4,0.1v0.1h-0.1c0,0,0-0.1-0.1-0.1c0,0,0,0.1-0.1,0.1c0,0,0,0-0.1,0H89c-0.1,0-0.1,0-0.2,0c0-0.1,0-0.1,0-0.1
		h-0.1c-0.1,0-0.1,0.1-0.1,0.2c-0.2,0-0.3,0-0.5,0c0-0.1,0-0.1-0.1-0.2h-0.1v0.1c0,0.1,0,0.1,0,0.1s0,0,0-0.1v-0.1h-0.1v-0.1
		c0-0.1-0.1-0.1-0.2-0.1c-0.1-0.1-0.1-0.1-0.2-0.1c0,0-0.1,0-0.1-0.1s-0.1-0.1-0.1-0.2c0,0,0,0-0.1,0c0,0,0,0-0.1,0v-0.1
		c0,0,0-0.1-0.1-0.1s0,0-0.1,0h-0.1c0-0.1,0-0.2-0.2-0.3V62c-0.1-0.1-0.2-0.2-0.2-0.2h-0.1c-0.1-0.1-0.1-0.1-0.2-0.2
		c-0.1-0.1-0.1-0.2-0.2-0.3s-0.1-0.2-0.2-0.2c-0.1-0.4-0.2-0.6-0.2-0.6c0-0.1,0-0.1-0.1-0.3c0-0.1,0-0.1,0-0.2c0-0.1,0-0.2,0-0.2
		s0-0.1-0.1-0.1v-0.1v-0.1c0,0,0-0.1,0-0.3s0-0.3-0.1-0.3c0-0.1,0-0.2,0-0.3c0-0.2,0-0.3,0-0.3c0-0.4,0-0.9,0-1.7c0-0.7,0-1.3,0-1.7
		c0.1,0,0.1,0,0.1-0.1s-0.1-0.2-0.1-0.2c0-0.1,0-0.2,0-0.3s0.1-0.2,0.1-0.2c0-0.1-0.1-0.1-0.1-0.2c0-0.1,0-0.1,0.1-0.1
		c0-0.1,0-0.6,0-1.5l0.1-0.1c0-0.1,0-0.1-0.1-0.2c0,0,0-0.1,0-0.2c0-0.1,0-0.2,0-0.3v-0.1c0-0.1,0-0.1,0-0.2c0-0.1,0-0.2,0-0.5
		s0-0.4-0.1-0.4c0.1,0,0.1-0.2,0.1-0.4s0-0.3,0-0.4l-0.1-0.1c0-0.2,0-0.3,0.1-0.3c0,0,0-0.1-0.1-0.1v-0.1c0-0.3,0-0.4,0-0.5
		c0,0,0,0-0.1,0s0,0,0,0c0-0.3,0-0.5,0-0.7h-0.1c0,0,0-0.1,0-0.2v-0.1v-0.1v-0.1v-0.1c0,0,0-0.1-0.1-0.1c-0.1-0.1-0.1-0.2,0-0.3
		l-0.1-0.1c0-0.1,0-0.1,0-0.2c0,0-0.1-0.1-0.2-0.2c0-0.1,0-0.2,0-0.2c0-0.1,0-0.1,0-0.2c0-0.1,0-0.2,0-0.3c0.1-0.1,0.1-0.2,0.1-0.3
		c0,0,0.1-0.1,0.1-0.2c0.1-0.1,0.1-0.2,0.2-0.2l0,0v-0.1l0.1,0.1c0,0,0.1,0,0.2,0s0.1,0,0.2,0c0,0,0.1,0,0.2-0.1s0.1-0.1,0.1-0.1
		s0.1,0,0.2,0s0.2,0,0.2,0s0,0,0.1,0c0,0,0,0,0.1,0c0.2,0,0.3,0,0.3-0.1c0.3-0.1,0.5-0.1,0.5-0.2h0.2l0,0c0,0,0,0,0.1,0h0.1
		c0,0,0.1,0,0.2-0.1s0.1-0.1,0.2-0.1c0,0,0-0.1,0-0.2H88c0,0,0,0,0,0.1v0.1c0.2-0.1,0.3-0.1,0.4-0.2c0,0,0.1,0,0.2,0.1l0.2-0.1
		c0,0,0.1-0.1,0.2-0.2c0,0.1,0,0.1,0.1,0.2c0,0,0.1,0,0.1-0.1c0.1,0,0.1,0,0.1,0h0.1c0,0,0.1,0,0.1-0.1h0.1c0.1,0,0.1,0,0.2,0
		s0.2-0.1,0.3-0.1h0.1c0,0,0.1,0,0.1-0.1c0.1,0,0.1,0,0.1,0s0.1,0,0.2-0.1h0.1h0.1l0,0l0,0C91.4,41.9,91.6,41.9,91.6,41.7z"/>
</g>
</svg>
