<?xml version="1.0" encoding="utf-8"?>
<!-- Generator: Adobe Illustrator 19.0.1, SVG Export Plug-In . SVG Version: 6.00 Build 0)  -->
<svg version="1.1" id="Layer_1" xmlns="http://www.w3.org/2000/svg" xmlns:xlink="http://www.w3.org/1999/xlink" x="0px" y="0px"
	 viewBox="0 0 100 100" enable-background="new 0 0 100 100" xml:space="preserve">
<g id="Layer_1_1_">
	<g>
		<g>
			<path fill="#643282" d="M24.3,56.1c3.4-7.8,12.8-11.8,20.7-13.8c11.9-3,22.1,3.7,30.9,11c3,2.5,7.3-1.8,4.3-4.3
				c-9.6-8-20.8-15.5-34-13.2C36,37.6,23.4,43.1,19.1,53C17.5,56.6,22.7,59.7,24.3,56.1L24.3,56.1z"/>
		</g>
		<g>
			<path fill="#643282" d="M22.5,51.9C23.8,65,39.4,67.5,50.4,68.5c11.9,1.1,24.2-3.8,26.9-16.4c0.8-3.8-5-5.4-5.8-1.6
				c-2,9.3-10.7,12.4-19.3,12.1c-6-0.2-22.9-2.6-23.7-10.7C28.2,48,22.1,48,22.5,51.9L22.5,51.9z"/>
		</g>
		<path fill="#643282" d="M52.1,61.3c-4.5,1.3-9.1-3.1-9.7-7.7s1.9-9.2,4.8-12.9c0.7-0.8,4-1.1,4.5-0.5c3.3,3.1,6.8,6.5,7.6,10.9
			S56.8,60.2,52.1,61.3"/>
		<g>
			<path fill="#643282" d="M23.7,39.9c0.5,1.9,1.4,3.5,2.8,5c2.1,2.3,5.6-1.1,3.4-3.4c-0.8-0.9-1.2-1.7-1.5-2.8
				C27.6,35.5,22.9,36.8,23.7,39.9L23.7,39.9z"/>
		</g>
		<g>
			<path fill="#643282" d="M33.7,33.7c-0.5,2.6,0.1,4.7,1.8,6.7c2,2.4,5.4-1,3.4-3.4c-0.5-0.6-0.7-1.3-0.5-2
				C39,32,34.3,30.6,33.7,33.7L33.7,33.7z"/>
		</g>
		<g>
			<path fill="#643282" d="M48.4,32.6c0,1,0,1.9,0,2.9c0,3.1,4.9,3.1,4.9,0c0-1,0-1.9,0-2.9C53.3,29.5,48.4,29.5,48.4,32.6
				L48.4,32.6z"/>
		</g>
		<g>
			<path fill="#643282" d="M63.1,39.8c0.5-1,1-2,1.6-3c1.4-2.8-2.7-5.2-4.2-2.4c-0.5,1-1,2-1.6,3C57.4,40.1,61.6,42.5,63.1,39.8
				L63.1,39.8z"/>
		</g>
		<g>
			<path fill="#643282" d="M73.1,44.3c0.6-1,1.3-1.8,2.1-2.6c2.3-2.1-1.1-5.6-3.4-3.4c-1.2,1.1-2.1,2.3-2.9,3.6
				C67.3,44.5,71.5,47,73.1,44.3L73.1,44.3z"/>
		</g>
	</g>
</g>
<g id="Layer_2" display="none">
	<circle display="inline" fill="none" stroke="#231F20" stroke-miterlimit="10" cx="50" cy="50" r="50"/>
</g>
</svg>
