<?xml version="1.0" encoding="utf-8"?>
<!-- Generator: Adobe Illustrator 19.0.1, SVG Export Plug-In . SVG Version: 6.00 Build 0)  -->
<svg version="1.1" id="Layer_1" xmlns="http://www.w3.org/2000/svg" xmlns:xlink="http://www.w3.org/1999/xlink" x="0px" y="0px"
	 viewBox="0 0 100 100" enable-background="new 0 0 100 100" xml:space="preserve">
<g>
	<path fill="#643282" d="M16.6,39c0,0,0,0.1,0,0.2c0.1,0.1,0.1,0.1,0.2,0c0.1-0.1,0.1-0.1,0.1-0.2c0.1,0,0.1,0.1,0.2,0.1
		c0.1,0.1,0.1,0.1,0.2,0.1c0.2,0,0.3,0.1,0.5,0.2c0,0,0.1,0,0.1,0c0,0,0.1,0.1,0.1,0.1c0.1,0,0.2,0,0.3,0.1c0,0,0.1,0,0.1,0
		c0,0,0.1,0,0.1,0c0,0,0.1,0,0.1,0c0,0,0.1,0,0.2,0.1c0.1,0.1,0.2,0,0.3,0c0.1,0.1,0.2,0.1,0.4,0.1c0,0.1,0.1,0.1,0.2,0.1
		c0.1,0,0.1,0,0.1,0c0,0,0.1,0,0.1,0.1c0.1,0,0.1,0.1,0.2,0.1c0.3,0,0.5,0.1,0.5,0.1c0.1,0,0.2,0,0.4,0c0.2,0,0.3,0,0.4,0
		c0,0,0.1,0,0.1,0.1c0.1,0,0.1,0.1,0.1,0.1c0.1,0,0.2,0,0.4,0c0.1,0,0.2,0,0.3,0s0.2,0.1,0.2,0.2c0.1,0,0.2,0,0.2,0
		c0,0,0.1,0,0.2,0.1s0.1,0.1,0.2,0.1c0,0,0.1,0,0.1,0c0,0,0.1,0,0.1,0c0.1,0,0.1,0,0.2,0.1c0,0,0.1,0.1,0.1,0.1c0.1,0,0.2,0,0.3,0
		c0,0,0,0.1,0,0.1c0,0,0.1,0.1,0.1,0.1c0.4,0,0.6,0,0.7,0.1h0.2c0.1-0.1,0.1-0.1,0.1-0.1c0,0.1,0,0.1,0.1,0.2c0.1,0.1,0.1,0.1,0.2,0
		c0,0,0.1,0,0.1,0c0.1,0,0.1,0.1,0.1,0.1c0,0,0.1,0,0.1,0c0,0,0.1,0,0.1,0c0,0,0.1,0,0.1,0c0,0,0,0,0.1,0c0,0,0,0,0.1,0
		c0,0,0.1,0,0.1,0s0.1,0,0.1,0.1h0.1c0.1,0,0.1,0,0.2,0.1c0.2,0,0.3,0,0.4,0.2c0.1,0,0.2,0,0.2,0c0.1,0.1,0.1,0.1,0.2,0.1
		c0,0,0.1,0.1,0.2,0.1c0,0,0.1,0,0.4,0.1c0.1,0,0.2,0,0.2,0c0,0,0,0,0,0.1c0.1,0,0.2,0.1,0.3,0.2c0.1,0,0.2,0.1,0.5,0.2
		c0.1,0,0.2,0,0.2,0c0,0,0,0.1,0,0.1c0,0,0.1,0.1,0.3,0.1c0.2,0.2,0.2,0.3,0.3,0.3c0,0,0,0,0.1,0c0,0,0.1,0.1,0.1,0.1
		c0.1,0.1,0.1,0.1,0.1,0.1c0.1,0.1,0.2,0.2,0.2,0.2c0.1,0.1,0.2,0.1,0.2,0.2c0.1,0.1,0.2,0.2,0.2,0.3c0.1,0.1,0.1,0.2,0.2,0.3
		c0,0.1,0,0.1,0,0.1c0.2,0.2,0.4,0.4,0.5,0.7c0,0,0,0.1,0.1,0.1c0,0,0.1,0.1,0.1,0.1c0,0.1,0,0.2,0,0.2c0,0,0,0,0.1,0.1
		c0,0,0.1,0,0.1,0.1s0,0.1,0,0.2s0,0.1,0,0.2c0,0,0,0,0.1,0.1c0,0,0,0,0.1,0.1c0,0.1,0,0.2,0,0.4c0,0,0,0.1,0,0.1c0,0.1,0,0.1,0,0.1
		c0,0,0,0.1,0,0.1c0,0,0,0.1,0,0.1c0,0,0,0.1,0,0.1c0,0,0,0.1,0,0.1c0,0.1,0,0.2,0,0.4c0,0.2,0,0.4,0,0.5c-0.1,0.1-0.1,0.1-0.1,0.2
		C31,48,31,48,31,48.1c0,0,0,0,0,0.1c0,0,0,0,0,0.1c0,0,0,0.1,0,0.2c0,0.1,0,0.1,0,0.2c0,0,0,0.1-0.1,0.1c0,0.1,0,0.1,0,0.1
		c0,0,0,0.1,0,0.1c0,0,0,0.1,0,0.1c0,0,0,0-0.1,0.1c0,0,0,0.1-0.1,0.1c0,0,0,0.1,0,0.1c0,0.1,0,0.1,0,0.1c-0.1,0.1-0.1,0.1-0.1,0.1
		c0,0,0,0,0,0.1c0,0,0,0,0,0.1c0,0,0,0-0.1,0.1c0,0,0,0.1,0,0.1c-0.1,0.1-0.1,0.2-0.1,0.2c0,0.1-0.1,0.2-0.2,0.2
		c0,0.1,0,0.2-0.1,0.3v0.1c0,0.1-0.1,0.1-0.1,0.2c-0.1,0.2-0.2,0.3-0.1,0.5c0,0,0,0-0.1,0c0,0-0.1,0.1-0.3,0.4c0,0.1,0,0.1-0.1,0.2
		c-0.1,0.1-0.1,0.1-0.1,0.2c-0.2,0.1-0.3,0.3-0.4,0.5c0,0-0.1,0.1-0.1,0.2c-0.1,0.1-0.1,0.1-0.1,0.2c0,0,0,0,0,0v0
		c-0.1,0.1-0.1,0.1-0.1,0.1v0.1c-0.2,0.2-0.3,0.4-0.3,0.4c0,0,0,0-0.1,0c0,0,0,0.1-0.1,0.2c-0.1,0.1-0.1,0.2-0.1,0.3
		c-0.1,0.1-0.2,0.2-0.2,0.3c-0.1,0.1-0.2,0.1-0.3,0.3c-0.1,0.1-0.2,0.2-0.3,0.3c-0.1,0-0.1,0-0.1,0c-0.1,0.1-0.2,0.2-0.2,0.3
		c-0.1,0.1-0.2,0.2-0.4,0.4c-0.1,0.2-0.3,0.3-0.4,0.4c0,0,0,0.1,0,0.1c0,0,0,0.1,0,0.1c-0.1,0.1-0.2,0.1-0.3,0.3
		c-0.1,0.1-0.1,0.1-0.2,0.1c-0.2,0.2-0.3,0.3-0.4,0.4c0,0.1,0,0.1,0,0.1c-0.1,0.1-0.1,0.1-0.1,0.1c0,0-0.1,0-0.1,0.1
		c0,0.1-0.1,0.1-0.1,0.1c0,0-0.1,0-0.1,0.1c-0.1,0-0.1,0.1-0.1,0.1l0,0.1c-0.1,0.1-0.1,0.2-0.2,0.2c0,0,0,0.1,0,0.1c0,0,0,0,0,0
		c0,0-0.1,0-0.1-0.1c-0.1,0-0.2,0.1-0.2,0.2c-0.1,0.1-0.1,0.1-0.2,0.2c0,0,0,0,0,0.1c0,0,0,0,0,0.1c0,0-0.1,0-0.1,0
		c0,0-0.1,0-0.1,0.1c0,0,0,0,0,0c0,0-0.1,0-0.1,0c0,0-0.3,0.2-0.7,0.7c0,0.1,0,0.1-0.1,0.2h-0.1c0,0-0.1,0-0.1,0.1S22.7,59,22.6,59
		c0,0-0.1,0.1-0.1,0.2s-0.1,0.1-0.1,0.2c0,0.1,0,0.1,0,0.1c0,0-0.1,0-0.1,0c0,0-0.1,0-0.1,0c0,0-0.1,0-0.2,0.1c0,0,0,0-0.1,0
		c0,0,0,0-0.1,0c0,0,0,0.1-0.1,0.1c0,0,0,0.1,0,0.1c-0.1,0-0.1,0-0.2,0c0-0.1,0-0.1-0.1-0.2l-0.1,0.1c0,0-0.1,0-0.1,0
		c0,0-0.1,0-0.1,0c0-0.1,0-0.1-0.1-0.2c0-0.1,0-0.1,0-0.1c-0.1,0-0.2,0-0.3-0.1c-0.1-0.1-0.2-0.2-0.2-0.3c-0.1,0-0.1-0.1-0.2-0.1
		c0-0.1,0-0.1,0-0.2c-0.1,0-0.1,0-0.2,0c-0.1-0.1-0.2-0.2-0.3-0.4c0,0,0-0.1,0-0.2s0-0.1,0-0.2c0-0.1,0-0.2,0-0.2l0.2-0.2
		c0,0,0-0.1,0-0.1c0,0,0-0.1,0-0.1c0,0,0,0,0.1,0c0,0,0,0,0,0c0,0,0,0,0,0c0,0,0-0.1,0-0.1l0.1-0.1c0-0.1-0.1-0.2-0.4-0.2
		c0,0,0-0.1,0-0.1c0-0.1,0-0.1,0-0.1c0,0,0-0.1-0.1-0.1c-0.1-0.1-0.1-0.1-0.1-0.2c0,0,0-0.1,0-0.2c0-0.1,0-0.1,0-0.1
		c0,0,0,0-0.1-0.1c0,0-0.1,0-0.1-0.1c0.1-0.1,0.1-0.2,0.1-0.4c0-0.2-0.1-0.3-0.1-0.3c0-0.1,0-0.3,0-0.4c0-0.2,0-0.3,0-0.4
		c0-0.1,0-0.1,0-0.1s0-0.1,0-0.1c0,0-0.1-0.1-0.1-0.1c0-0.1,0-0.1,0-0.2s0-0.1,0-0.2c0,0,0-0.1-0.1-0.1s-0.1-0.1-0.1-0.1
		c0,0,0-0.1,0-0.1c0-0.1,0-0.1,0-0.1c0-0.2,0-0.4,0-0.5c0,0,0-0.1,0-0.1c0-0.1,0-0.1-0.1-0.1c0,0,0-0.1,0-0.1c0,0,0-0.1,0-0.1
		c0,0,0-0.1,0-0.2c0-0.1,0-0.2,0-0.2l-0.1-0.1c0.1-0.3,0.1-0.5-0.1-0.6v-0.3c0,0,0,0,0-0.1c0,0,0,0,0-0.1s0-0.1,0-0.1
		c0,0,0-0.1,0-0.1c0-0.1-0.1-0.1-0.2-0.1c0-0.1,0-0.3,0-0.4c0,0,0,0,0.1,0c0.1-0.1,0.1-0.2,0-0.3c-0.1-0.1-0.1-0.1-0.1-0.2
		c0-0.1,0-0.1,0-0.2c0-0.1,0-0.1,0-0.1c0,0,0-0.1-0.1-0.1c0,0-0.1-0.1-0.1-0.1c0-0.5,0-0.8,0-0.8c-0.1-0.1-0.2-0.2-0.2-0.4
		c0-0.1,0-0.1,0-0.1c0,0,0-0.1,0-0.3c0-0.2,0-0.3,0-0.3c0,0,0-0.1,0-0.1s0-0.1,0-0.1c0,0,0-0.1,0-0.1c0.1-0.1,0-0.2-0.1-0.2
		c0,0-0.1-0.1-0.1-0.3c0,0,0-0.1-0.1-0.1c0-0.1-0.1-0.1-0.1-0.1c-0.1-0.2-0.1-0.2-0.1-0.3c0,0,0-0.2,0-0.4c0,0,0-0.1-0.1-0.1
		c0-0.1,0-0.2,0-0.3c0-0.1-0.1-0.2-0.2-0.2c0,0,0-0.1,0-0.2c0-0.1,0-0.2,0-0.2c0,0-0.1-0.1-0.1-0.2c-0.1-0.1-0.1-0.1-0.1-0.2
		c-0.1-0.3-0.1-0.4-0.2-0.4c0-0.2,0-0.2-0.2-0.2c0-0.1,0-0.1,0-0.2c0-0.1,0.1-0.1,0.1-0.2c0,0-0.1,0-0.1,0c0,0,0-0.1,0-0.1
		c0-0.1,0-0.2-0.1-0.3c0,0,0-0.1-0.1-0.1c0,0,0-0.1,0-0.1s0-0.1,0-0.1c0,0,0-0.1,0-0.1c0,0,0,0-0.1-0.1c0,0,0,0,0-0.1
		c0,0,0-0.1,0-0.1c0,0-0.1-0.1-0.1-0.1c-0.1,0-0.1-0.1-0.1-0.1c-0.1,0-0.2-0.1-0.4-0.2h-0.3c-0.1-0.2-0.2-0.3-0.3-0.2
		c0,0-0.1-0.1-0.1-0.1c0-0.1-0.1-0.1-0.1-0.1c0-0.1-0.1-0.2-0.3-0.3c0-0.2-0.1-0.3-0.3-0.4c0-0.1-0.1-0.2-0.1-0.2c0,0,0-0.1,0-0.1
		s0-0.1,0-0.1l-0.1-0.1c-0.1-0.1-0.1-0.3,0-0.4c0,0,0-0.1,0.1-0.1c0.1-0.1,0.1-0.1,0.1-0.1c0,0,0-0.1,0-0.1c0,0,0-0.1,0-0.1
		c0,0,0,0,0.1-0.1c0,0,0.1-0.1,0.1-0.1h0.1c0.1-0.1,0.2-0.1,0.4-0.1c0.1,0,0.2,0,0.2,0c0,0,0,0,0.1,0c0,0,0-0.1,0-0.1
		C16.5,39,16.5,39,16.6,39z M16.3,39c0.1,0,0.2,0,0.2,0c0,0,0,0.1,0,0.2c0.1,0.1,0.1,0.1,0.2,0c0.1-0.1,0.1-0.1,0.1-0.2
		c0.1,0,0.1,0.1,0.2,0.1c0.1,0.1,0.1,0.1,0.2,0.1c0.2,0,0.3,0.1,0.5,0.2c0,0,0.1,0,0.1,0c0,0,0.1,0.1,0.1,0.1c0.1,0,0.2,0,0.3,0.1
		c0,0,0.1,0,0.1,0c0,0,0.1,0,0.1,0c0,0,0.1,0,0.1,0c0,0,0.1,0,0.2,0.1c0.1,0.1,0.2,0,0.3,0c0.1,0.1,0.2,0.1,0.4,0.1
		c0,0.1,0.1,0.1,0.2,0.1c0.1,0,0.1,0,0.1,0c0,0,0.1,0,0.1,0.1c0.1,0,0.1,0.1,0.2,0.1c0.3,0,0.5,0.1,0.5,0.1c0.1,0,0.2,0,0.4,0
		c0.2,0,0.3,0,0.4,0c0,0,0.1,0,0.1,0.1c0.1,0,0.1,0.1,0.1,0.1c0.1,0,0.2,0,0.4,0c0.1,0,0.2,0,0.3,0s0.2,0.1,0.2,0.2
		c0.1,0,0.2,0,0.2,0c0,0,0.1,0,0.2,0.1s0.1,0.1,0.2,0.1c0,0,0.1,0,0.1,0c0,0,0.1,0,0.1,0c0.1,0,0.1,0,0.2,0.1c0,0,0.1,0.1,0.1,0.1
		c0.1,0,0.2,0,0.3,0c0,0,0,0.1,0,0.1c0,0,0.1,0.1,0.1,0.1c0.4,0,0.6,0,0.7,0.1h0.2c0.1-0.1,0.1-0.1,0.1-0.1c0,0.1,0,0.1,0.1,0.2
		c0.1,0.1,0.1,0.1,0.2,0c0,0,0.1,0,0.1,0c0.1,0,0.1,0.1,0.1,0.1c0,0,0.1,0,0.1,0c0,0,0.1,0,0.1,0c0,0,0.1,0,0.1,0c0,0,0,0,0.1,0
		c0,0,0,0,0.1,0c0,0,0.1,0,0.1,0s0.1,0,0.1,0.1h0.1c0.1,0,0.1,0,0.2,0.1c0.2,0,0.3,0,0.4,0.2c0.1,0,0.2,0,0.2,0
		c0.1,0.1,0.1,0.1,0.2,0.1c0,0,0.1,0.1,0.2,0.1c0,0,0.1,0,0.4,0.1c0.1,0,0.2,0,0.2,0c0,0,0,0,0,0.1c0.1,0,0.2,0.1,0.3,0.2
		c0.1,0,0.2,0.1,0.5,0.2c0.1,0,0.2,0,0.2,0c0,0,0,0.1,0,0.1c0,0,0.1,0.1,0.3,0.1c0.2,0.2,0.2,0.3,0.3,0.3c0,0,0,0,0.1,0
		c0,0,0.1,0.1,0.1,0.1c0.1,0.1,0.1,0.1,0.1,0.1c0.1,0.1,0.2,0.2,0.2,0.2c0.1,0.1,0.2,0.1,0.2,0.2c0.1,0.1,0.2,0.2,0.2,0.3
		c0.1,0.1,0.1,0.2,0.2,0.3c0,0.1,0,0.1,0,0.1c0.2,0.2,0.4,0.4,0.5,0.7c0,0,0,0.1,0.1,0.1c0,0,0.1,0.1,0.1,0.1c0,0.1,0,0.2,0,0.2
		c0,0,0,0,0.1,0.1c0,0,0.1,0,0.1,0.1s0,0.1,0,0.2s0,0.1,0,0.2c0,0,0,0,0.1,0.1c0,0,0,0,0.1,0.1c0,0.1,0,0.2,0,0.4c0,0,0,0.1,0,0.1
		c0,0.1,0,0.1,0,0.1c0,0,0,0.1,0,0.1c0,0,0,0.1,0,0.1c0,0,0,0.1,0,0.1c0,0,0,0.1,0,0.1c0,0.1,0,0.2,0,0.4c0,0.2,0,0.4,0,0.5
		c-0.1,0.1-0.1,0.1-0.1,0.2C31,48,31,48,31,48.1c0,0,0,0,0,0.1c0,0,0,0,0,0.1c0,0,0,0.1,0,0.2c0,0.1,0,0.1,0,0.2c0,0,0,0.1-0.1,0.1
		c0,0.1,0,0.1,0,0.1c0,0,0,0.1,0,0.1c0,0,0,0.1,0,0.1c0,0,0,0-0.1,0.1c0,0,0,0.1-0.1,0.1c0,0,0,0.1,0,0.1c0,0.1,0,0.1,0,0.1
		c-0.1,0.1-0.1,0.1-0.1,0.1c0,0,0,0,0,0.1c0,0,0,0,0,0.1c0,0,0,0-0.1,0.1c0,0,0,0.1,0,0.1c-0.1,0.1-0.1,0.2-0.1,0.2
		c0,0.1-0.1,0.2-0.2,0.2c0,0.1,0,0.2-0.1,0.3v0.1c0,0.1-0.1,0.1-0.1,0.2c-0.1,0.2-0.2,0.3-0.1,0.5c0,0,0,0-0.1,0
		c0,0-0.1,0.1-0.3,0.4c0,0.1,0,0.1-0.1,0.2c-0.1,0.1-0.1,0.1-0.1,0.2c-0.2,0.1-0.3,0.3-0.4,0.5c0,0-0.1,0.1-0.1,0.2
		c-0.1,0.1-0.1,0.1-0.1,0.2c0,0,0,0,0,0v0c-0.1,0.1-0.1,0.1-0.1,0.1v0.1c-0.2,0.2-0.3,0.4-0.3,0.4c0,0,0,0-0.1,0c0,0,0,0.1-0.1,0.2
		c-0.1,0.1-0.1,0.2-0.1,0.3c-0.1,0.1-0.2,0.2-0.2,0.3c-0.1,0.1-0.2,0.1-0.3,0.3c-0.1,0.1-0.2,0.2-0.3,0.3c-0.1,0-0.1,0-0.1,0
		c-0.1,0.1-0.2,0.2-0.2,0.3c-0.1,0.1-0.2,0.2-0.4,0.4c-0.1,0.2-0.3,0.3-0.4,0.4c0,0,0,0.1,0,0.1c0,0,0,0.1,0,0.1
		c-0.1,0.1-0.2,0.1-0.3,0.3c-0.1,0.1-0.1,0.1-0.2,0.1c-0.2,0.2-0.3,0.3-0.4,0.4c0,0.1,0,0.1,0,0.1c-0.1,0.1-0.1,0.1-0.1,0.1
		c0,0-0.1,0-0.1,0.1c0,0.1-0.1,0.1-0.1,0.1c0,0-0.1,0-0.1,0.1c-0.1,0-0.1,0.1-0.1,0.1l0,0.1c-0.1,0.1-0.1,0.2-0.2,0.2
		c0,0,0,0.1,0,0.1c0,0,0,0,0,0c0,0-0.1,0-0.1-0.1c-0.1,0-0.2,0.1-0.2,0.2c-0.1,0.1-0.1,0.1-0.2,0.2c0,0,0,0,0,0.1c0,0,0,0,0,0.1
		c0,0-0.1,0-0.1,0c0,0-0.1,0-0.1,0.1c0,0,0,0,0,0c0,0-0.1,0-0.1,0c0,0-0.3,0.2-0.7,0.7c0,0.1,0,0.1-0.1,0.2h-0.1c0,0-0.1,0-0.1,0.1
		S22.7,59,22.6,59c0,0-0.1,0.1-0.1,0.2s-0.1,0.1-0.1,0.2c0,0.1,0,0.1,0,0.1c0,0-0.1,0-0.1,0c0,0-0.1,0-0.1,0c0,0-0.1,0-0.2,0.1
		c0,0,0,0-0.1,0c0,0,0,0-0.1,0c0,0,0,0.1-0.1,0.1c0,0,0,0.1,0,0.1c-0.1,0-0.1,0-0.2,0c0-0.1,0-0.1-0.1-0.2l-0.1,0.1c0,0-0.1,0-0.1,0
		c0,0-0.1,0-0.1,0c0-0.1,0-0.1-0.1-0.2c0-0.1,0-0.1,0-0.1c-0.1,0-0.2,0-0.3-0.1c-0.1-0.1-0.2-0.2-0.2-0.3c-0.1,0-0.1-0.1-0.2-0.1
		c0-0.1,0-0.1,0-0.2c-0.1,0-0.1,0-0.2,0c-0.1-0.1-0.2-0.2-0.3-0.4c0,0,0-0.1,0-0.2s0-0.1,0-0.2c0-0.1,0-0.2,0-0.2l0.2-0.2
		c0,0,0-0.1,0-0.1c0,0,0-0.1,0-0.1c0,0,0,0,0.1,0c0,0,0,0,0,0c0,0,0,0,0,0c0,0,0-0.1,0-0.1l0.1-0.1c0-0.1-0.1-0.2-0.4-0.2
		c0,0,0-0.1,0-0.1c0-0.1,0-0.1,0-0.1c0,0,0-0.1-0.1-0.1c-0.1-0.1-0.1-0.1-0.1-0.2c0,0,0-0.1,0-0.2c0-0.1,0-0.1,0-0.1
		c0,0,0,0-0.1-0.1c0,0-0.1,0-0.1-0.1c0.1-0.1,0.1-0.2,0.1-0.4c0-0.2-0.1-0.3-0.1-0.3c0-0.1,0-0.3,0-0.4c0-0.2,0-0.3,0-0.4
		c0-0.1,0-0.1,0-0.1s0-0.1,0-0.1c0,0-0.1-0.1-0.1-0.1c0-0.1,0-0.1,0-0.2s0-0.1,0-0.2c0,0,0-0.1-0.1-0.1s-0.1-0.1-0.1-0.1
		c0,0,0-0.1,0-0.1c0-0.1,0-0.1,0-0.1c0-0.2,0-0.4,0-0.5c0,0,0-0.1,0-0.1c0-0.1,0-0.1-0.1-0.1c0,0,0-0.1,0-0.1c0,0,0-0.1,0-0.1
		c0,0,0-0.1,0-0.2c0-0.1,0-0.2,0-0.2l-0.1-0.1c0.1-0.3,0.1-0.5-0.1-0.6v-0.3c0,0,0,0,0-0.1c0,0,0,0,0-0.1s0-0.1,0-0.1
		c0,0,0-0.1,0-0.1c0-0.1-0.1-0.1-0.2-0.1c0-0.1,0-0.3,0-0.4c0,0,0,0,0.1,0c0.1-0.1,0.1-0.2,0-0.3c-0.1-0.1-0.1-0.1-0.1-0.2
		c0-0.1,0-0.1,0-0.2c0-0.1,0-0.1,0-0.1c0,0,0-0.1-0.1-0.1c0,0-0.1-0.1-0.1-0.1c0-0.5,0-0.8,0-0.8c-0.1-0.1-0.2-0.2-0.2-0.4
		c0-0.1,0-0.1,0-0.1c0,0,0-0.1,0-0.3c0-0.2,0-0.3,0-0.3c0,0,0-0.1,0-0.1s0-0.1,0-0.1c0,0,0-0.1,0-0.1c0.1-0.1,0-0.2-0.1-0.2
		c0,0-0.1-0.1-0.1-0.3c0,0,0-0.1-0.1-0.1c0-0.1-0.1-0.1-0.1-0.1c-0.1-0.2-0.1-0.2-0.1-0.3c0,0,0-0.2,0-0.4c0,0,0-0.1-0.1-0.1
		c0-0.1,0-0.2,0-0.3c0-0.1-0.1-0.2-0.2-0.2c0,0,0-0.1,0-0.2c0-0.1,0-0.2,0-0.2c0,0-0.1-0.1-0.1-0.2c-0.1-0.1-0.1-0.1-0.1-0.2
		c-0.1-0.3-0.1-0.4-0.2-0.4c0-0.2,0-0.2-0.2-0.2c0-0.1,0-0.1,0-0.2c0-0.1,0.1-0.1,0.1-0.2c0,0-0.1,0-0.1,0c0,0,0-0.1,0-0.1
		c0-0.1,0-0.2-0.1-0.3c0,0,0-0.1-0.1-0.1c0,0,0-0.1,0-0.1s0-0.1,0-0.1c0,0,0-0.1,0-0.1c0,0,0,0-0.1-0.1c0,0,0,0,0-0.1
		c0,0,0-0.1,0-0.1c0,0-0.1-0.1-0.1-0.1c-0.1,0-0.1-0.1-0.1-0.1c-0.1,0-0.2-0.1-0.4-0.2h-0.3c-0.1-0.2-0.2-0.3-0.3-0.2
		c0,0-0.1-0.1-0.1-0.1c0-0.1-0.1-0.1-0.1-0.1c0-0.1-0.1-0.2-0.3-0.3c0-0.2-0.1-0.3-0.3-0.4c0-0.1-0.1-0.2-0.1-0.2c0,0,0-0.1,0-0.1
		s0-0.1,0-0.1l-0.1-0.1c-0.1-0.1-0.1-0.3,0-0.4c0,0,0-0.1,0.1-0.1c0.1-0.1,0.1-0.1,0.1-0.1c0,0,0-0.1,0-0.1c0,0,0-0.1,0-0.1
		c0,0,0,0,0.1-0.1c0,0,0.1-0.1,0.1-0.1h0.1c0.1-0.1,0.2-0.1,0.4-0.1c0.1,0,0.2,0,0.2,0C16.3,39.1,16.3,39.1,16.3,39
		C16.3,39,16.3,39,16.3,39z M24.3,43.5C24.3,43.5,24.3,43.5,24.3,43.5c-0.1-0.1-0.1-0.1-0.2-0.1c0,0-0.1,0-0.1,0c-0.1,0-0.1,0-0.1,0
		c0,0-0.1,0-0.1-0.1c0,0-0.1-0.1-0.1-0.1c-0.1,0-0.1,0-0.1,0c0,0,0,0-0.1,0c0,0-0.1,0-0.1,0c0,0-0.1,0-0.2,0c-0.1,0-0.2,0-0.2,0
		c0,0-0.1,0-0.1-0.1c0,0-0.1-0.1-0.1-0.1c0,0-0.1,0-0.1,0c0,0,0,0-0.1,0c0,0-0.1,0-0.1,0c-0.1,0-0.1,0-0.1,0
		c-0.1-0.1-0.2-0.1-0.4-0.1c-0.1,0-0.1,0-0.2,0c-0.2-0.1-0.3-0.1-0.4-0.1c0,0-0.1,0-0.1,0c0,0-0.1,0-0.1,0c-0.1,0-0.2,0-0.3-0.1
		c-0.4,0-0.6,0-0.7,0c0,0,0,0.1,0,0.2c0,0.1,0,0.2,0,0.2c0,0,0,0.1,0,0.1c0,0,0,0.1,0.1,0.1c0,0,0,0.1,0,0.2c0,0.1,0,0.1,0.1,0.1
		s0.1,0.1,0.1,0.1c0,0,0,0.1,0,0.2c0,0,0,0.1,0.1,0.2c0.1,0.1,0.1,0.2,0,0.2c0.1,0.2,0.2,0.3,0.2,0.4c0,0.1,0,0.2,0,0.2
		c0.1,0.2,0.2,0.3,0.2,0.4c0.1,0.1,0.1,0.2,0.1,0.4c0,0,0,0.1,0,0.1s0,0.1,0,0.1c0,0.1,0,0.1,0,0.1c0.1,0.1,0.1,0.1,0.1,0.2
		c0,0,0,0.1,0,0.1s0,0.1,0,0.1s0,0.1,0,0.1c0,0.1,0,0.1,0.1,0.2c0,0,0,0.1,0,0.2c0,0.1,0,0.1,0,0.2s0,0.1,0,0.1c0,0.2,0,0.2,0,0.3
		c0,0,0,0.1,0.1,0.1s0.1,0.1,0.1,0.1c0,0,0,0.1,0.1,0.3c0,0.1,0,0.1,0,0.2c0,0.1,0,0.2,0,0.2c0,0,0.1,0.1,0.1,0.1
		c0,0.1,0,0.1,0.1,0.1c0,0,0,0.1,0,0.2c0,0.1,0,0.1,0,0.2c0,0,0,0.1,0.1,0.1s0,0.1,0.1,0.1c0,0,0,0.1,0,0.2c0,0,0,0.1,0,0.1
		c0,0.1,0,0.1,0,0.1c0,0,0,0.1,0,0.1c0,0,0,0.1,0,0.1c0,0,0,0.1,0,0.1c0,0.1,0,0.1,0,0.1c0,0,0,0-0.1,0.1c0,0,0,0,0,0.1
		c0.1,0.1,0.1,0.1,0.1,0.2c0.1,0.1,0.1,0.2,0.1,0.2s0,0.1,0,0.1c0,0,0,0.1,0,0.1c0,0,0,0.1,0,0.1c0,0,0,0.1,0.1,0.1c0,0,0,0,0,0.1
		c0,0,0,0.1,0,0.1c0,0,0.1,0.1,0.1,0.1c0,0.1,0,0.2,0,0.2c0,0,0,0.1,0,0.1c0,0,0,0.1,0,0.1c0,0,0,0.1,0,0.2c0,0.1,0,0.1,0,0.2
		c0,0,0,0.1,0.1,0.1c0,0,0.1,0.1,0.1,0.1c0,0.1,0,0.1,0,0.1c0,0,0,0,0,0.1c0,0,0,0.1,0,0.1s0,0.1,0,0.2c0,0.1,0,0.2,0,0.2
		c0,0,0.1,0.1,0.1,0.1s0,0.1,0,0.1c0,0.1,0,0.1,0,0.3c0,0.1,0,0.2,0,0.3c0.1,0,0.1,0.1,0.1,0.3c0.1,0.2,0.1,0.4,0.1,0.4
		c0.1,0.1,0.1,0.2,0.1,0.4c0,0.1,0,0.2,0,0.2c0,0,0,0,0.1,0.1c0,0,0.1,0,0.1,0.1s0,0.1,0,0.1c0,0.1,0,0.1,0,0.1
		c0.1,0.1,0.2,0,0.4-0.2c0,0,0.1,0,0.1,0c0.1,0,0.1-0.1,0.1-0.1c0.1-0.1,0.2-0.2,0.2-0.2c0,0,0.2-0.1,0.4-0.2c0,0,0-0.1,0.1-0.1
		c0.1-0.1,0.1-0.2,0.2-0.2c0.1-0.1,0.2-0.3,0.5-0.6c0-0.1,0.1-0.2,0.2-0.2c0-0.1,0.1-0.1,0.1-0.1c0.1-0.1,0.2-0.1,0.2-0.1
		c0-0.1,0.1-0.2,0.2-0.4s0.2-0.3,0.2-0.4c0.2-0.1,0.3-0.2,0.4-0.2c0-0.1,0-0.1,0.1-0.2s0.1-0.1,0.1-0.2c0,0,0.1-0.1,0.1-0.1
		c0.1-0.1,0.1-0.1,0.1-0.1c0-0.1,0.1-0.2,0.2-0.3c0.1-0.1,0.1-0.1,0.1-0.1c0,0,0,0,0,0s0-0.1,0-0.1c0,0,0.1,0,0.1-0.1
		c0,0,0.1-0.1,0.1-0.1c0-0.1,0-0.1,0-0.1c0-0.1,0-0.1,0.1-0.2c0.1-0.1,0.1-0.1,0.2-0.2c0-0.1,0.1-0.3,0.2-0.5
		c0.1-0.2,0.2-0.3,0.2-0.5c0,0,0-0.1,0.1-0.1c0,0,0.1-0.1,0.1-0.1c0-0.1,0-0.1,0.1-0.2c0.1-0.1,0.1-0.2,0.1-0.3
		c0.1,0,0.1-0.1,0.1-0.2c0-0.1,0-0.1,0-0.2c0.1-0.1,0.1-0.1,0.1-0.1c0,0,0-0.1,0-0.1c0-0.1,0-0.1,0.1-0.2c0-0.1,0.1-0.1,0.1-0.1
		c0,0,0-0.1,0-0.1c0-0.1,0-0.1,0-0.1c0,0,0-0.1,0.1-0.1c0.1-0.2,0.1-0.3,0-0.4c0.1-0.1,0.1-0.1,0.1-0.1c-0.1-0.1-0.1-0.3,0-0.5
		c0,0,0-0.1,0-0.1c0,0,0-0.1,0-0.1c-0.1-0.2-0.1-0.4,0-0.4l-0.1-0.3c0,0,0-0.1,0-0.1c0-0.1,0-0.1,0-0.1c0,0,0,0-0.1,0
		c0,0,0-0.1,0-0.1C28.1,45,28,44.9,28,44.9c0,0,0,0-0.1,0s-0.1,0-0.1,0c0,0,0,0,0-0.1c0,0,0,0,0,0c0,0,0,0-0.1,0
		c-0.1-0.1-0.2-0.1-0.2-0.1c-0.1-0.1-0.1-0.1-0.1-0.1l-0.1,0c0,0-0.1,0-0.1-0.1c0-0.1-0.1-0.1-0.1-0.1h-0.2c0-0.1-0.1-0.1-0.2-0.1
		c-0.1-0.1-0.1-0.1-0.1-0.1c0,0-0.1,0-0.2-0.1C26.2,44,26.1,44,26,44c0,0-0.1,0-0.1-0.1c0,0-0.1-0.1-0.1-0.1c0,0-0.1,0-0.1,0
		s-0.1,0-0.1,0c-0.1-0.1-0.1-0.1-0.2-0.1c-0.1,0-0.1,0-0.2,0c-0.1-0.1-0.2-0.1-0.2-0.1c0,0,0,0-0.1,0c-0.1,0-0.1,0-0.1,0
		s0,0-0.1-0.1c0,0,0-0.1-0.1-0.1c0,0,0,0-0.1,0s-0.1,0-0.1,0c-0.1-0.1-0.1-0.1-0.1-0.1C24.4,43.5,24.4,43.5,24.3,43.5z M24.2,43.4
		C24.2,43.4,24.2,43.4,24.2,43.4C24.2,43.4,24.2,43.4,24.2,43.4c-0.1-0.1-0.1-0.1-0.2-0.1c-0.1,0-0.1,0-0.1,0c0,0-0.1,0-0.1-0.1
		c0,0-0.1-0.1-0.1-0.1c-0.1,0-0.1,0-0.1,0c0,0,0,0-0.1,0c0,0-0.1,0-0.1,0c0,0-0.1,0-0.2,0c-0.1,0-0.2,0-0.2,0c0,0-0.1,0-0.1-0.1
		c0,0-0.1-0.1-0.1-0.1c0,0-0.1,0-0.1,0c0,0,0,0-0.1,0c0,0-0.1,0-0.1,0c-0.1,0-0.1,0-0.1,0c-0.1-0.1-0.2-0.1-0.4-0.1
		c-0.1,0-0.1,0-0.2,0c-0.2-0.1-0.3-0.1-0.4-0.1c0,0-0.1,0-0.1,0c0,0-0.1,0-0.1,0c-0.1,0-0.2,0-0.3-0.1c-0.4,0-0.6,0-0.7,0
		c0,0,0,0.1,0,0.2c0,0.1,0,0.2,0,0.2c0,0,0,0.1,0,0.1c0,0,0,0.1,0.1,0.1c0,0,0,0.1,0,0.2c0,0.1,0,0.1,0.1,0.1s0.1,0.1,0.1,0.1
		c0,0,0,0.1,0,0.2c0,0,0,0.1,0.1,0.2c0.1,0.1,0.1,0.2,0,0.2c0.1,0.2,0.2,0.3,0.2,0.4c0,0.1,0,0.2,0,0.2c0.1,0.2,0.2,0.3,0.2,0.4
		c0.1,0.1,0.1,0.2,0.1,0.4c0,0,0,0.1,0,0.1s0,0.1,0,0.1c0,0.1,0,0.1,0,0.1c0.1,0.1,0.1,0.1,0.1,0.2c0,0,0,0.1,0,0.1s0,0.1,0,0.1
		s0,0.1,0,0.1c0,0.1,0,0.1,0.1,0.2c0,0,0,0.1,0,0.2c0,0.1,0,0.1,0,0.2s0,0.1,0,0.1c0,0.2,0,0.2,0,0.3c0,0,0,0.1,0.1,0.1
		s0.1,0.1,0.1,0.1c0,0,0,0.1,0.1,0.3c0,0.1,0,0.1,0,0.2c0,0.1,0,0.2,0,0.2c0,0,0.1,0.1,0.1,0.1c0,0.1,0,0.1,0.1,0.1c0,0,0,0.1,0,0.2
		c0,0.1,0,0.1,0,0.2c0,0,0,0.1,0.1,0.1s0,0.1,0.1,0.1c0,0.1,0,0.1,0,0.3c0,0,0,0.1,0,0.1c0,0.1,0,0.1,0,0.1c0,0,0,0.1,0,0.1
		c0,0,0,0.1,0,0.1c0,0,0,0.1,0,0.1c0,0.1,0,0.1,0,0.1c0,0,0,0-0.1,0.1c0,0,0,0,0,0.1c0.1,0.1,0.1,0.1,0.1,0.2
		c0.1,0.1,0.1,0.2,0.1,0.2s0,0.1,0,0.1c0,0,0,0.1,0,0.1c0,0,0,0.1,0,0.1c0,0,0,0.1,0.1,0.1c0,0,0,0,0,0.1c0,0,0,0.1,0,0.1
		c0,0,0.1,0.1,0.1,0.1c0,0.1,0,0.2,0,0.2c0,0,0,0.1,0,0.1c0,0,0,0.1,0,0.1c0,0,0,0.1,0,0.2c0,0.1,0,0.1,0,0.2c0,0,0,0.1,0.1,0.1
		c0,0,0.1,0.1,0.1,0.1c0,0.1,0,0.1,0,0.1c0,0,0,0,0,0.1c0,0,0,0.1,0,0.1s0,0.1,0,0.2c0,0.1,0,0.2,0,0.2c0,0,0.1,0.1,0.1,0.1
		s0,0.1,0,0.1c0,0.1,0,0.1,0,0.3c0,0.1,0,0.2,0,0.3c0.1,0,0.1,0.1,0.1,0.3c0.1,0.2,0.1,0.4,0.1,0.4c0.1,0.1,0.1,0.2,0.1,0.4
		c0,0.1,0,0.2,0,0.2c0,0,0,0,0.1,0.1c0,0,0.1,0,0.1,0.1s0,0.1,0,0.1c0,0.1,0,0.1,0,0.1c0.1,0.1,0.2,0,0.4-0.2c0,0,0.1,0,0.1,0
		c0.1,0,0.1-0.1,0.1-0.1c0.1-0.1,0.2-0.2,0.2-0.2c0,0,0.2-0.1,0.4-0.2c0,0,0-0.1,0.1-0.1c0.1-0.1,0.1-0.2,0.2-0.2
		c0.1-0.1,0.2-0.3,0.5-0.6c0-0.1,0.1-0.2,0.2-0.2c0-0.1,0.1-0.1,0.1-0.1c0.1-0.1,0.2-0.1,0.2-0.1c0-0.1,0.1-0.2,0.2-0.4
		s0.2-0.3,0.2-0.4c0.2-0.1,0.3-0.2,0.4-0.2c0-0.1,0-0.1,0.1-0.2s0.1-0.1,0.1-0.2c0,0,0.1-0.1,0.1-0.1c0.1-0.1,0.1-0.1,0.1-0.1
		c0-0.1,0.1-0.2,0.2-0.3c0.1-0.1,0.1-0.1,0.1-0.1c0,0,0,0,0,0s0-0.1,0-0.1c0,0,0.1,0,0.1-0.1c0,0,0.1-0.1,0.1-0.1c0-0.1,0-0.1,0-0.1
		c0-0.1,0-0.1,0.1-0.2c0.1-0.1,0.1-0.1,0.2-0.2c0-0.1,0.1-0.3,0.2-0.5c0.1-0.2,0.2-0.3,0.2-0.5c0,0,0-0.1,0.1-0.1
		c0,0,0.1-0.1,0.1-0.1c0-0.1,0-0.1,0.1-0.2c0.1-0.1,0.1-0.2,0.1-0.3c0.1,0,0.1-0.1,0.1-0.2c0-0.1,0-0.1,0-0.2
		c0.1-0.1,0.1-0.1,0.1-0.1c0,0,0-0.1,0-0.1c0-0.1,0-0.1,0.1-0.2c0-0.1,0.1-0.1,0.1-0.1c0,0,0-0.1,0-0.1c0-0.1,0-0.1,0-0.1
		c0,0,0-0.1,0.1-0.1c0.1-0.2,0.1-0.3,0-0.4c0.1-0.1,0.1-0.1,0.1-0.1c-0.1-0.1-0.1-0.3,0-0.5c0,0,0-0.1,0-0.1c0,0,0-0.1,0-0.1
		c-0.1-0.2-0.1-0.4,0-0.4l-0.1-0.3c0,0,0-0.1,0-0.1c0-0.1,0-0.1,0-0.1c0,0,0,0-0.1,0c0,0,0-0.1,0-0.1C28.1,45,28,44.9,28,44.9
		c0,0,0,0-0.1,0s-0.1,0-0.1,0c0,0,0,0,0-0.1c0,0,0,0,0,0c0,0,0,0-0.1,0c-0.1-0.1-0.2-0.1-0.2-0.1c-0.1-0.1-0.1-0.1-0.1-0.1l-0.1,0
		c0,0-0.1,0-0.1-0.1c0-0.1-0.1-0.1-0.1-0.1h-0.2c0-0.1-0.1-0.1-0.2-0.1c-0.1-0.1-0.1-0.1-0.1-0.1c0,0-0.1,0-0.2-0.1
		C26.2,44,26.1,44,26,44c0,0-0.1,0-0.1-0.1c0,0-0.1-0.1-0.1-0.1c0,0-0.1,0-0.1,0s-0.1,0-0.1,0c-0.1-0.1-0.1-0.1-0.2-0.1
		c-0.1,0-0.1,0-0.2,0c-0.1-0.1-0.2-0.1-0.2-0.1c0,0,0,0-0.1,0c-0.1,0-0.1,0-0.1,0s0,0-0.1-0.1c0,0,0-0.1-0.1-0.1c0,0,0,0-0.1,0
		s-0.1,0-0.1,0c-0.1-0.1-0.1-0.1-0.1-0.1C24.4,43.5,24.4,43.5,24.2,43.4C24.3,43.5,24.3,43.5,24.2,43.4z"/>
	<path fill="#643282" d="M38.6,41.9c0,0,0.1,0,0.2,0.1c0,0,0.1,0,0.2,0c0.1,0,0.1,0,0.2,0c0,0,0.1,0,0.1,0c0,0,0,0,0.1,0
		c0,0,0,0,0.1,0s0.1,0,0.1,0c0.1,0.2,0.1,0.2,0.3,0.2l0.3,0.2c0,0.1,0,0.1,0.1,0.2c0.1,0.1,0.1,0.1,0.1,0.1c0.1,0,0.1,0,0.2,0.1
		c0.1,0.1,0.1,0.1,0.2,0.1c0,0,0.1,0,0.1,0c0,0,0.1,0,0.1,0c0.2-0.1,0.3-0.1,0.3-0.1c0,0,0.1,0,0.2,0c0,0,0.1,0,0.2,0
		c0.1,0,0.1,0,0.2,0c0,0,0.1,0,0.1,0.1c0,0,0.1,0.1,0.1,0.1c0,0,0.1,0,0.2,0s0.1,0,0.2,0c0,0,0.1,0,0.2,0.1c0.1,0.1,0.2,0.1,0.3,0.1
		c0,0,0,0.1,0.1,0.1c0.1,0,0.2,0,0.3,0.1c0.1,0.1,0.1,0.1,0.2,0.1c0,0,0.1,0,0.1,0c0.3,0.2,0.5,0.3,0.7,0.3h0.2c0,0.1-0.1,0.1-0.2,0
		l0,0.1c0,0.1,0.1,0.2,0.3,0.3c0.2,0.1,0.3,0.2,0.3,0.4c0,0.1,0.1,0.1,0.2,0.2c0.2,0.2,0.3,0.3,0.3,0.4c0.1,0.1,0.2,0.2,0.2,0.3
		c0,0.1,0.1,0.1,0.2,0.2c0.1,0.1,0.1,0.2,0.1,0.3c0.1,0.2,0.2,0.3,0.2,0.4c0,0,0,0.1,0.1,0.1c0.1,0.1,0.1,0.2,0.1,0.3l0.1,0.1
		c0,0.1,0,0.1,0.1,0.3c0.1,0.2,0.1,0.4,0.1,0.4c0,0.2,0.1,0.3,0.1,0.3c0,0,0,0.1,0.1,0.3c-0.1,0-0.1,0.1,0,0.2
		c0.1,0.1,0.1,0.2,0.1,0.2s0,0.1,0,0.1s0,0.1,0,0.1c0,0,0,0,0,0.1c0,0,0,0.1,0,0.1c0,0.1,0,0.1,0,0.3c0,0.1,0,0.3,0,0.3
		c0,0.1,0,0.1,0,0.1c0,0,0,0.1,0,0.1c0,0,0,0.1,0.1,0.2c0,0,0,0,0,0.1c0,0,0,0,0,0.1c0.1,0.1,0.1,0.4,0.1,0.9c0,0.5,0,0.9,0,1
		c0,0,0,0.1,0,0.2c0,0.1,0,0.2,0,0.2c0,0,0,0.1-0.1,0.2c-0.1,0.1-0.1,0.2,0,0.2c0,0,0,0.1,0,0.2c0,0.1,0,0.1,0,0.2
		c-0.1,0-0.2,0.1-0.2,0.1c0,0.3,0,0.4,0,0.4c0,0,0,0.1,0,0.1c0,0-0.1,0.1-0.1,0.1c0,0,0,0.1,0,0.1C46,53.9,45.9,54,45.9,54
		c0,0,0,0.1-0.1,0.1c0,0-0.1,0-0.1,0c0,0,0,0,0,0.1c0,0-0.1,0.1-0.1,0.1c0,0.1-0.1,0.1-0.1,0.2l-0.2,0.3c0,0.1-0.1,0.2-0.2,0.4
		c-0.1,0.2-0.2,0.3-0.2,0.4c-0.1,0.1-0.2,0.3-0.2,0.4c0,0-0.1,0-0.2,0.1c0,0.1,0,0.1-0.1,0.2c-0.1,0.1-0.1,0.2-0.1,0.3
		c-0.1,0-0.1,0.1-0.2,0.2c-0.1,0.1-0.1,0.2-0.2,0.2c0,0-0.1,0.1-0.1,0.2c-0.1,0.1-0.1,0.2-0.1,0.2c0,0.1,0,0.1-0.1,0.2
		c-0.2,0.1-0.4,0.2-0.5,0.4C43.2,58,43.1,58,43,58c-0.1,0.1-0.1,0.2-0.3,0.2c-0.1,0.1-0.2,0.2-0.3,0.2c0,0,0,0-0.1,0s0,0-0.1,0
		c0,0-0.1,0.1-0.1,0.1c-0.1,0.1-0.1,0.1-0.1,0.1c-0.1,0-0.2,0-0.2,0.1c-0.1,0-0.1,0-0.3,0.1c-0.1,0-0.1,0-0.2,0c-0.1,0-0.1,0-0.2,0
		c0,0-0.1,0.1-0.2,0.2c-0.2,0-0.3,0-0.3,0c0,0.1-0.1,0.1-0.2,0.1c-0.1,0-0.2,0.1-0.2,0.2c-0.1,0-0.3,0-0.6,0c-0.3,0-0.5,0-0.7,0
		c-0.1,0-0.1,0-0.3,0c-0.1,0-0.2,0-0.3,0c0,0-0.1-0.1-0.1-0.2c-0.1,0-0.1,0-0.2,0.1c0,0.1-0.1,0.1-0.1,0.1c0,0,0,0,0-0.1l0,0
		c0,0-0.1,0-0.1-0.1c-0.1,0-0.1-0.1-0.1-0.1c-0.2,0.1-0.3,0-0.5-0.1c-0.2-0.1-0.3-0.1-0.4-0.1c0,0,0-0.1,0-0.1c0,0-0.1,0-0.2-0.1
		c-0.1-0.1-0.2-0.1-0.4-0.1v-0.1c0,0-0.1-0.1-0.1-0.1c-0.1-0.1-0.1-0.1-0.1-0.1c-0.1,0-0.1,0-0.1-0.1c0,0,0,0-0.1-0.1
		c0,0,0,0-0.1-0.1c0,0,0,0-0.1,0c0,0,0,0-0.1,0c0,0,0,0,0,0c0,0,0,0,0,0c0,0-0.1,0-0.1-0.1c0,0-0.1,0-0.1-0.1
		c-0.1-0.1-0.1-0.1-0.1-0.1c-0.1,0-0.1,0-0.1,0c-0.1-0.1-0.1-0.1-0.2-0.3c-0.1-0.1-0.2-0.2-0.2-0.3h-0.1c-0.3-0.3-0.4-0.5-0.4-0.6
		c0,0-0.1-0.1-0.2-0.3V56c0,0-0.1-0.1-0.1-0.1s-0.1-0.1-0.1-0.1c0-0.2-0.1-0.5-0.2-0.7c0-0.1,0-0.2-0.1-0.2c0-0.1,0-0.1,0-0.1
		c0,0,0,0,0-0.1c0,0,0-0.1,0-0.1c0,0,0-0.1,0-0.1c0,0-0.1-0.1-0.1-0.1c0,0,0-0.2,0-0.4c0,0,0-0.1,0-0.1s0-0.1,0-0.1
		c0,0-0.1,0-0.1-0.1c0,0,0-0.1,0-0.1c0-0.1,0-0.1,0-0.3c0-0.1,0-0.3,0-0.3c0,0-0.1,0-0.1-0.1c0,0,0-0.1,0-0.2c0,0,0-0.1,0-0.1
		c0,0,0-0.1-0.1-0.1c0-0.1,0-0.1,0-0.1c-0.1-0.1-0.1-0.1-0.1-0.2c0,0,0-0.1,0-0.1c0,0,0-0.1,0-0.1c0.1-0.1,0-0.2-0.1-0.3
		c0,0,0-0.1,0-0.2v-0.1l0.2-0.2c0-0.1,0-0.2,0-0.5c0-0.3,0-0.5,0-0.6c0-0.1,0-0.1,0-0.2c0-0.1,0-0.1,0-0.1c0-0.1,0-0.2,0-0.3
		c0-0.2,0-0.3,0-0.4c0-0.1,0.1-0.2,0.1-0.2c0,0,0-0.1,0-0.1c0,0,0-0.1,0-0.1s0-0.1,0-0.1c0,0,0.1-0.1,0.1-0.1s0-0.1,0-0.4
		s0-0.3,0-0.4c0-0.3,0-0.5,0-0.5c0,0,0.1,0,0.1-0.1c0.1-0.1,0.1-0.1,0.2-0.1c0-0.1,0-0.1,0-0.1c0,0,0-0.1,0-0.1c0,0,0.1-0.1,0.1-0.1
		c0,0,0-0.1,0-0.1s0-0.1,0-0.1c0.1-0.1,0.1-0.1,0.1-0.1c0-0.1,0-0.2,0-0.3c0-0.2,0-0.2,0.1-0.3c0,0,0.1,0,0.1,0c0,0,0.1,0,0.1,0
		c0-0.1,0-0.1-0.1-0.1s-0.1,0-0.1-0.1l0.1-0.2c0,0,0.1-0.1,0.1-0.2c0.1-0.1,0.1-0.1,0.1-0.2c0,0,0,0,0-0.1c0,0,0,0,0-0.1
		c0.1-0.1,0.1-0.2,0.1-0.3c0.1,0,0.1-0.1,0.1-0.2c0-0.1,0.1-0.1,0.1-0.2c0-0.1,0-0.2,0.1-0.3c0.1-0.1,0.1-0.1,0.1-0.2
		c0,0,0-0.1,0-0.1c0,0,0-0.1,0-0.1c0-0.1,0-0.1,0.1-0.2c0.1-0.1,0.1-0.2,0.1-0.2c0.1,0,0.2-0.1,0.3-0.3c0.1,0,0.2-0.1,0.2-0.3
		c0-0.1,0-0.1,0-0.2c0.1,0.1,0.2,0,0.3-0.1c0.1,0,0.1-0.1,0.1-0.1h0.1c0.1,0,0.1-0.1,0.2-0.1c0.1-0.1,0.1-0.1,0.2-0.1
		c0.1,0,0.3-0.1,0.5-0.3c0.1,0,0.2,0,0.2-0.1c0.1-0.1,0.1-0.1,0.2-0.1c0,0,0,0,0,0c0,0,0,0,0-0.1c0.1,0.1,0.2,0,0.4-0.1
		c0.1,0,0.1,0,0.3,0s0.2,0,0.3,0c0.1,0,0.1,0,0.3,0S38.5,41.9,38.6,41.9z M38.1,41.9c0.1,0,0.1,0,0.3,0s0.2,0,0.3,0
		c0,0,0.1,0,0.2,0.1c0,0,0.1,0,0.2,0c0.1,0,0.1,0,0.2,0c0,0,0.1,0,0.1,0c0,0,0,0,0.1,0c0,0,0,0,0.1,0s0.1,0,0.1,0
		c0.1,0.2,0.1,0.2,0.3,0.2l0.3,0.2c0,0.1,0,0.1,0.1,0.2c0.1,0.1,0.1,0.1,0.1,0.1c0.1,0,0.1,0,0.2,0.1c0.1,0.1,0.1,0.1,0.2,0.1
		c0,0,0.1,0,0.1,0c0,0,0.1,0,0.1,0c0.2-0.1,0.3-0.1,0.3-0.1c0,0,0.1,0,0.2,0c0,0,0.1,0,0.2,0c0.1,0,0.1,0,0.2,0c0,0,0.1,0,0.1,0.1
		c0,0,0.1,0.1,0.1,0.1c0,0,0.1,0,0.2,0s0.1,0,0.2,0c0,0,0.1,0,0.2,0.1c0.1,0.1,0.2,0.1,0.3,0.1c0,0,0,0.1,0.1,0.1
		c0.1,0,0.2,0,0.3,0.1c0.1,0.1,0.1,0.1,0.2,0.1c0,0,0.1,0,0.1,0c0.3,0.2,0.5,0.3,0.7,0.3h0.2c0,0.1-0.1,0.1-0.2,0l0,0.1
		c0,0.1,0.1,0.2,0.3,0.3c0.2,0.1,0.3,0.2,0.3,0.4c0,0.1,0.1,0.1,0.2,0.2c0.2,0.2,0.3,0.3,0.3,0.4c0.1,0.1,0.2,0.2,0.2,0.3
		c0,0.1,0.1,0.1,0.2,0.2c0.1,0.1,0.1,0.2,0.1,0.3c0.1,0.2,0.2,0.3,0.2,0.4c0,0,0,0.1,0.1,0.1c0.1,0.1,0.1,0.2,0.1,0.3l0.1,0.1
		c0,0.1,0,0.1,0.1,0.3c0.1,0.2,0.1,0.4,0.1,0.4c0,0.2,0.1,0.3,0.1,0.3c0,0,0,0.1,0.1,0.3c-0.1,0-0.1,0.1,0,0.2
		c0.1,0.1,0.1,0.2,0.1,0.2s0,0.1,0,0.1s0,0.1,0,0.1c0,0,0,0,0,0.1c0,0,0,0.1,0,0.1c0,0.1,0,0.1,0,0.3c0,0.1,0,0.3,0,0.3
		c0,0.1,0,0.1,0,0.1c0,0,0,0.1,0,0.1c0,0,0,0.1,0.1,0.2c0,0,0,0,0,0.1c0,0,0,0,0,0.1c0.1,0.1,0.1,0.4,0.1,0.9c0,0.5,0,0.9,0,1
		c0,0,0,0.1,0,0.2c0,0.1,0,0.2,0,0.2c0,0,0,0.1-0.1,0.2c-0.1,0.1-0.1,0.2,0,0.2c0,0,0,0.1,0,0.2c0,0.1,0,0.1,0,0.2
		c-0.1,0-0.2,0.1-0.2,0.1c0,0.3,0,0.4,0,0.4c0,0,0,0.1,0,0.1c0,0-0.1,0.1-0.1,0.1c0,0,0,0.1,0,0.1C46,53.9,45.9,54,45.9,54
		c0,0,0,0.1-0.1,0.1c0,0-0.1,0-0.1,0c0,0,0,0,0,0.1c0,0-0.1,0.1-0.1,0.1c0,0.1-0.1,0.1-0.1,0.2l-0.2,0.3c0,0.1-0.1,0.2-0.2,0.4
		c-0.1,0.2-0.2,0.3-0.2,0.4c-0.1,0.1-0.2,0.3-0.2,0.4c0,0-0.1,0-0.2,0.1c0,0.1,0,0.1-0.1,0.2c-0.1,0.1-0.1,0.2-0.1,0.3
		c-0.1,0-0.1,0.1-0.2,0.2c-0.1,0.1-0.1,0.2-0.2,0.2c0,0-0.1,0.1-0.1,0.2c-0.1,0.1-0.1,0.2-0.1,0.2c0,0.1,0,0.1-0.1,0.2
		c-0.2,0.1-0.4,0.2-0.5,0.4C43.2,58,43.1,58,43,58c-0.1,0.1-0.1,0.2-0.3,0.2c-0.1,0.1-0.2,0.2-0.3,0.2c0,0,0,0-0.1,0s0,0-0.1,0
		c0,0-0.1,0.1-0.1,0.1c-0.1,0.1-0.1,0.1-0.1,0.1c-0.1,0-0.2,0-0.2,0.1c-0.1,0-0.1,0-0.3,0.1c-0.1,0-0.1,0-0.2,0c-0.1,0-0.1,0-0.2,0
		c0,0-0.1,0.1-0.2,0.2c-0.2,0-0.3,0-0.3,0c0,0.1-0.1,0.1-0.2,0.1c-0.1,0-0.2,0.1-0.2,0.2c-0.1,0-0.3,0-0.6,0c-0.3,0-0.5,0-0.7,0
		c-0.1,0-0.1,0-0.3,0c-0.1,0-0.2,0-0.3,0c0,0-0.1-0.1-0.1-0.2c-0.1,0-0.1,0-0.2,0.1c0,0.1-0.1,0.1-0.1,0.1c0,0,0,0,0-0.1l0,0
		c0,0-0.1,0-0.1-0.1c-0.1,0-0.1-0.1-0.1-0.1c-0.2,0.1-0.3,0-0.5-0.1c-0.2-0.1-0.3-0.1-0.4-0.1c0,0,0-0.1,0-0.1c0,0-0.1,0-0.2-0.1
		c-0.1-0.1-0.2-0.1-0.4-0.1v-0.1c0,0-0.1-0.1-0.1-0.1c-0.1-0.1-0.1-0.1-0.1-0.1c-0.1,0-0.1,0-0.1-0.1c0,0,0,0-0.1-0.1
		c0,0,0,0-0.1-0.1c0,0,0,0-0.1,0c0,0,0,0-0.1,0c0,0,0,0,0,0c0,0,0,0,0,0c0,0-0.1,0-0.1-0.1c0,0-0.1,0-0.1-0.1
		c-0.1-0.1-0.1-0.1-0.1-0.1c-0.1,0-0.1,0-0.1,0c-0.1-0.1-0.1-0.1-0.2-0.3c-0.1-0.1-0.2-0.2-0.2-0.3h-0.1c-0.3-0.3-0.4-0.5-0.4-0.6
		c0,0-0.1-0.1-0.2-0.3V56c0,0-0.1-0.1-0.1-0.1s-0.1-0.1-0.1-0.1c0-0.2-0.1-0.5-0.2-0.7c0-0.1,0-0.2-0.1-0.2c0-0.1,0-0.1,0-0.1
		c0,0,0,0,0-0.1c0,0,0-0.1,0-0.1c0,0,0-0.1,0-0.1c0,0-0.1-0.1-0.1-0.1c0,0,0-0.2,0-0.4c0,0,0-0.1,0-0.1s0-0.1,0-0.1
		c0,0-0.1,0-0.1-0.1c0,0,0-0.1,0-0.1c0-0.1,0-0.1,0-0.3c0-0.1,0-0.3,0-0.3c0,0-0.1,0-0.1-0.1c0,0,0-0.1,0-0.2c0,0,0-0.1,0-0.1
		c0,0,0-0.1-0.1-0.1c0-0.1,0-0.1,0-0.1c-0.1-0.1-0.1-0.1-0.1-0.2c0,0,0-0.1,0-0.1c0,0,0-0.1,0-0.1c0.1-0.1,0-0.2-0.1-0.3
		c0,0,0-0.1,0-0.2v-0.1l0.2-0.2c0-0.1,0-0.2,0-0.5c0-0.3,0-0.5,0-0.6c0-0.1,0-0.1,0-0.2c0-0.1,0-0.1,0-0.1c0-0.1,0-0.2,0-0.3
		c0-0.2,0-0.3,0-0.4c0-0.1,0.1-0.2,0.1-0.2c0,0,0-0.1,0-0.1c0,0,0-0.1,0-0.1s0-0.1,0-0.1c0,0,0.1-0.1,0.1-0.1s0-0.1,0-0.4
		s0-0.3,0-0.4c0-0.3,0-0.5,0-0.5c0,0,0.1,0,0.1-0.1c0.1-0.1,0.1-0.1,0.2-0.1c0-0.1,0-0.1,0-0.1c0,0,0-0.1,0-0.1c0,0,0.1-0.1,0.1-0.1
		c0,0,0-0.1,0-0.1s0-0.1,0-0.1c0.1-0.1,0.1-0.1,0.1-0.1c0-0.1,0-0.2,0-0.3c0-0.2,0-0.2,0.1-0.3c0,0,0.1,0,0.1,0c0,0,0.1,0,0.1,0
		c0-0.1,0-0.1-0.1-0.1s-0.1,0-0.1-0.1l0.1-0.2c0,0,0.1-0.1,0.1-0.2c0.1-0.1,0.1-0.1,0.1-0.2c0,0,0,0,0-0.1c0,0,0,0,0-0.1
		c0.1-0.1,0.1-0.2,0.1-0.3c0.1,0,0.1-0.1,0.1-0.2c0-0.1,0.1-0.1,0.1-0.2c0-0.1,0-0.2,0.1-0.3c0.1-0.1,0.1-0.1,0.1-0.2
		c0,0,0-0.1,0-0.1c0,0,0-0.1,0-0.1c0-0.1,0-0.1,0.1-0.2c0.1-0.1,0.1-0.2,0.1-0.2c0.1,0,0.2-0.1,0.3-0.3c0.1,0,0.2-0.1,0.2-0.3
		c0-0.1,0-0.1,0-0.2c0.1,0.1,0.2,0,0.3-0.1c0.1,0,0.1-0.1,0.1-0.1h0.1c0.1,0,0.1-0.1,0.2-0.1c0.1-0.1,0.1-0.1,0.2-0.1
		c0.1,0,0.3-0.1,0.5-0.3c0.1,0,0.2,0,0.2-0.1c0.1-0.1,0.1-0.1,0.2-0.1c0,0,0,0,0,0c0,0,0,0,0-0.1c0.1,0.1,0.2,0,0.4-0.1
		c0.1,0,0.1,0,0.3,0S38,41.9,38.1,41.9z M38.5,44.4c-0.2,0.1-0.4,0.2-0.5,0.3c-0.2,0.1-0.3,0.2-0.4,0.3c-0.1,0.1-0.3,0.3-0.3,0.4
		c0,0-0.1,0.1-0.1,0.1c-0.1,0.1-0.1,0.1-0.1,0.1v0.1c0,0,0,0.1-0.1,0.1c0,0-0.1,0.1-0.1,0.1c0,0-0.1,0.1-0.2,0.4
		c0,0.1,0,0.1-0.1,0.2c-0.1,0.1-0.1,0.1-0.1,0.1c0,0.1,0,0.1,0,0.1c0,0,0,0.1-0.1,0.1c0,0,0,0.1,0,0.1c0,0.1,0,0.1,0,0.1
		c0,0,0,0.1,0,0.1c-0.1,0.1-0.1,0.1,0,0.2c-0.1,0.1-0.2,0.2-0.2,0.4C36,47.8,36,48,36,48.3c-0.1,0.1-0.1,0.2-0.1,0.4
		c-0.2,0.2-0.2,0.4-0.1,0.6c0,0,0,0-0.1,0.1c0,0-0.1,0-0.1,0.1c0,0.1,0,0.2,0,0.3c-0.1,0.1-0.1,0.2,0,0.3c-0.1,0.1-0.1,0.2-0.1,0.5
		c0,0,0,0.1,0,0.1c0,0.1,0,0.1,0,0.1c0,0,0,0.1-0.1,0.1s-0.1,0.1-0.1,0.1c0.1,0.1,0.1,0.1,0.1,0.2c0,0.1,0,0.2,0,0.4
		c0,0.1,0,0.3,0,0.3c0,0,0,0.1,0,0.1c0,0,0,0.1,0,0.1l0.1,0.1c0,0.1,0,0.2,0,0.4c0,0,0,0.1,0,0.1c0,0,0,0.1,0,0.1c0,0,0,0.1,0,0.1
		c0,0,0,0.1,0,0.1c0,0.1,0,0.2,0,0.3c0,0,0,0.1,0.1,0.1c0,0,0,0,0,0.1c0,0,0,0,0,0c0,0,0,0,0,0.1c0,0.1,0,0.2,0,0.2
		c0,0.1,0,0.1,0,0.2c0,0.1,0,0.1,0,0.1c0,0,0,0,0,0.1c0,0,0,0.1,0,0.1c0,0,0,0,0.1,0.1c0,0,0,0.1,0,0.1c0,0,0,0.1,0,0.1s0,0.1,0,0.1
		c0,0,0,0,0,0.1c0,0,0,0.1,0,0.1c0,0,0,0,0,0.1c0,0,0.1,0.1,0.1,0.1c0,0,0.1,0.1,0.1,0.1C36,54.9,36,55,36.1,55.1v0.1
		c0,0,0,0.1,0.1,0.1s0.1,0.1,0.1,0.1l0.2,0.2c0.1,0.1,0.2,0.2,0.4,0.4c0.2,0.2,0.3,0.3,0.3,0.3c0.1,0,0.1,0,0.1,0
		c0.2,0.3,0.4,0.4,0.6,0.4c0.1,0.1,0.1,0.1,0.2,0.1c0,0,0.1,0,0.2,0c0.1,0,0.1,0,0.2,0c0,0,0.1,0.1,0.1,0.1s0.1,0.1,0.1,0.1
		c0,0,0.1,0,0.1,0c0,0,0.1,0,0.1,0c0,0,0,0,0.1,0c0,0,0.1,0,0.1,0c0.2,0,0.4,0,0.5,0c0,0,0.1,0,0.1-0.1c0.1-0.1,0.1-0.1,0.2-0.1
		c0.1,0,0.1,0,0.2,0c0,0,0.1,0,0.1-0.1c0,0,0.1-0.1,0.1-0.1c0,0,0.1,0,0.2,0c0.1-0.1,0.2-0.1,0.3-0.1c0.1-0.1,0.2-0.2,0.4-0.3
		c0.2-0.2,0.3-0.3,0.5-0.3c0,0,0-0.1,0.1-0.1s0.1-0.1,0.1-0.1c0,0,0,0,0-0.1c0-0.1,0.1-0.1,0.2-0.2c0.1-0.1,0.1-0.1,0.1-0.1
		c0,0,0.1-0.1,0.1-0.2c0.1-0.1,0.1-0.1,0.1-0.2c0,0,0-0.1,0.1-0.1c0.1,0,0.1-0.1,0.1-0.1c0.1-0.1,0.1-0.2,0.2-0.2c0,0,0-0.1,0-0.1
		c0,0,0.1-0.2,0.3-0.4c0,0,0-0.1,0.1-0.1c0,0,0.1-0.2,0.1-0.4c0-0.1,0.1-0.1,0.2-0.2c0,0,0-0.1,0-0.1c0,0,0,0,0-0.1c0,0,0,0,0.1-0.1
		c0,0,0-0.1,0-0.1c0-0.1,0-0.1,0-0.1c0.1-0.1,0.2-0.3,0.3-0.7l0-0.2c0,0,0-0.1,0-0.1c0-0.1,0-0.1,0-0.1c0.1-0.1,0.1-0.1,0.1-0.2
		c0,0,0-0.1-0.1-0.1s-0.1-0.1-0.1-0.1c0-0.1,0-0.1,0.1-0.2c0.1-0.1,0.1-0.1,0.1-0.2c0-0.1,0-0.1,0-0.2c0-0.1,0-0.2,0-0.2
		c0,0,0-0.1,0-0.1c0,0,0-0.1,0-0.1c0,0-0.1-0.1-0.1-0.1s-0.1-0.1-0.1-0.1c0.1-0.1,0.1-0.1,0.1-0.1c0,0,0-0.1,0-0.1c0,0,0-0.1,0-0.1
		c0-0.1,0-0.1,0-0.2c0-0.1,0-0.2,0-0.2c0,0,0-0.1,0-0.1c0,0,0-0.1,0-0.1c0,0,0-0.1-0.1-0.1c0-0.1,0-0.1-0.1-0.1s-0.1-0.1-0.1-0.1
		c0-0.1,0-0.1,0.1-0.2s0-0.1,0-0.1c0,0,0-0.1,0-0.1c0,0,0-0.1,0-0.1c0-0.1,0-0.1,0-0.1c0-0.1,0-0.1,0-0.1c-0.1,0-0.1-0.1-0.1-0.3
		c0-0.2-0.1-0.3-0.1-0.3c0,0,0-0.1,0-0.2c0-0.1,0-0.1,0-0.2c-0.1-0.1-0.2-0.2-0.2-0.3c-0.3-0.5-0.6-0.9-1.1-1.4h-0.2
		c0-0.1-0.1-0.2-0.2-0.2h-0.1l-0.2-0.1c0,0-0.1-0.1-0.1-0.1c-0.1-0.1-0.2-0.1-0.2-0.1c0,0-0.1,0-0.2,0c-0.1,0-0.1,0-0.1,0
		c-0.1-0.1-0.2-0.1-0.3-0.1c-0.1,0-0.2,0-0.3,0c-0.1,0-0.2,0-0.3,0C39.8,45,39.7,45,39.6,45c-0.1-0.1-0.1-0.2,0-0.2
		c0,0,0-0.1,0.1-0.1s0.1-0.1,0.1-0.1c0-0.1,0-0.1-0.1-0.1c-0.1,0-0.1,0-0.1,0c0-0.1-0.1-0.2-0.1-0.2c-0.1,0-0.2,0-0.4,0
		C38.8,44.3,38.7,44.3,38.5,44.4z M39.4,44.3c-0.1,0-0.2,0-0.4,0c-0.2,0-0.3,0-0.5,0c-0.2,0.1-0.4,0.2-0.5,0.3
		c-0.2,0.1-0.3,0.2-0.4,0.3c-0.1,0.1-0.3,0.3-0.3,0.4c0,0-0.1,0.1-0.1,0.1c-0.1,0.1-0.1,0.1-0.1,0.1v0.1c0,0,0,0.1-0.1,0.1
		c0,0-0.1,0.1-0.1,0.1c0,0-0.1,0.1-0.2,0.4c0,0.1,0,0.1-0.1,0.2c-0.1,0.1-0.1,0.1-0.1,0.1c0,0.1,0,0.1,0,0.2c0,0,0,0.1-0.1,0.1
		c0,0,0,0.1,0,0.1c0,0.1,0,0.1,0,0.1c0,0,0,0.1,0,0.1c-0.1,0.1-0.1,0.1,0,0.2c-0.1,0.1-0.2,0.2-0.2,0.4C36,47.8,36,48,36,48.3
		c-0.1,0.1-0.1,0.2-0.1,0.4c-0.2,0.2-0.2,0.4-0.1,0.6c0,0,0,0-0.1,0.1c0,0-0.1,0-0.1,0.1c0,0.1,0,0.2,0,0.3c-0.1,0.1-0.1,0.2,0,0.3
		c-0.1,0.1-0.1,0.2-0.1,0.5c0,0,0,0.1,0,0.1c0,0.1,0,0.1,0,0.1c0,0,0,0.1-0.1,0.1s-0.1,0.1-0.1,0.1c0.1,0.1,0.1,0.1,0.1,0.2
		c0,0.1,0,0.2,0,0.4c0,0.1,0,0.3,0,0.3c0,0,0,0.1,0,0.1c0,0,0,0.1,0,0.1l0.1,0.1c0,0.1,0,0.2,0,0.4c0,0,0,0.1,0,0.1c0,0,0,0.1,0,0.1
		c0,0,0,0.1,0,0.1c0,0,0,0.1,0,0.1c0,0.1,0,0.2,0,0.3c0,0,0,0.1,0.1,0.1c0,0,0,0,0,0.1c0,0,0,0,0,0c0,0,0,0,0,0.1c0,0.1,0,0.2,0,0.2
		c0,0.1,0,0.1,0,0.2c0,0.1,0,0.1,0,0.1c0,0,0,0,0,0.1c0,0,0,0.1,0,0.1c0,0,0,0,0.1,0.1c0,0,0,0.1,0,0.1c0,0,0,0.1,0,0.1s0,0.1,0,0.1
		c0,0,0,0,0,0.1c0,0,0,0.1,0,0.1c0,0,0,0,0,0.1c0,0,0.1,0.1,0.1,0.1c0,0,0.1,0.1,0.1,0.1C36,54.9,36,55,36.1,55.1v0.1
		c0,0,0,0.1,0.1,0.1s0.1,0.1,0.1,0.1l0.2,0.2c0.1,0.1,0.2,0.2,0.4,0.4c0.2,0.2,0.3,0.3,0.3,0.3c0.1,0,0.1,0,0.1,0
		c0.2,0.3,0.4,0.4,0.6,0.4c0.1,0.1,0.1,0.1,0.2,0.1c0,0,0.1,0,0.2,0c0.1,0,0.1,0,0.2,0c0,0,0.1,0.1,0.1,0.1s0.1,0.1,0.1,0.1
		c0,0,0.1,0,0.1,0c0,0,0.1,0,0.1,0c0,0,0,0,0.1,0c0,0,0.1,0,0.1,0c0.2,0,0.4,0,0.5,0c0,0,0.1,0,0.1-0.1c0.1-0.1,0.1-0.1,0.2-0.1
		c0.1,0,0.1,0,0.2,0c0,0,0.1,0,0.1-0.1c0,0,0.1-0.1,0.1-0.1c0,0,0.1,0,0.2,0c0.1-0.1,0.2-0.1,0.3-0.1c0.1-0.1,0.2-0.2,0.4-0.3
		c0.2-0.2,0.3-0.3,0.5-0.3c0,0,0-0.1,0.1-0.1s0.1-0.1,0.1-0.1c0,0,0,0,0-0.1c0-0.1,0.1-0.1,0.2-0.2c0.1-0.1,0.1-0.1,0.1-0.1
		c0,0,0.1-0.1,0.1-0.2c0.1-0.1,0.1-0.1,0.1-0.2c0,0,0-0.1,0.1-0.1c0.1,0,0.1-0.1,0.1-0.1c0.1-0.1,0.1-0.2,0.2-0.2c0,0,0-0.1,0-0.1
		c0,0,0.1-0.2,0.3-0.4c0,0,0-0.1,0.1-0.1c0,0,0.1-0.2,0.1-0.4c0-0.1,0.1-0.1,0.2-0.2c0,0,0-0.1,0-0.1c0,0,0,0,0-0.1c0,0,0,0,0.1-0.1
		c0,0,0-0.1,0-0.1c0-0.1,0-0.1,0-0.1c0.1-0.1,0.2-0.3,0.3-0.7l0-0.2c0,0,0-0.1,0-0.1c0-0.1,0-0.1,0-0.1c0.1-0.1,0.1-0.1,0.1-0.2
		c0,0,0-0.1-0.1-0.1s-0.1-0.1-0.1-0.1c0-0.1,0-0.1,0.1-0.2c0.1-0.1,0.1-0.1,0.1-0.2c0-0.1,0-0.1,0-0.2c0-0.1,0-0.2,0-0.2
		c0,0,0-0.1,0-0.1c0,0,0-0.1,0-0.1c0,0-0.1-0.1-0.1-0.1s-0.1-0.1-0.1-0.1c0.1-0.1,0.1-0.1,0.1-0.1c0,0,0-0.1,0-0.1c0,0,0-0.1,0-0.1
		c0-0.1,0-0.1,0-0.2c0-0.1,0-0.2,0-0.2c0,0,0-0.1,0-0.1c0,0,0-0.1,0-0.1c0,0,0-0.1-0.1-0.1c0-0.1,0-0.1-0.1-0.1s-0.1-0.1-0.1-0.1
		c0-0.1,0-0.1,0.1-0.2s0-0.1,0-0.1c0,0,0-0.1,0-0.1c0,0,0-0.1,0-0.1c0-0.1,0-0.1,0-0.1c0-0.1,0-0.1,0-0.1c-0.1,0-0.1-0.1-0.1-0.3
		c0-0.2-0.1-0.3-0.1-0.3c0,0,0-0.1,0-0.2c0-0.1,0-0.1,0-0.2c-0.1-0.1-0.2-0.2-0.2-0.3c-0.3-0.5-0.6-0.9-1.1-1.4h-0.2
		c0-0.1-0.1-0.2-0.2-0.2h-0.1l-0.2-0.1c0,0-0.1-0.1-0.1-0.1c-0.1-0.1-0.2-0.1-0.2-0.1c0,0-0.1,0-0.2,0c-0.1,0-0.1,0-0.1,0
		c-0.1-0.1-0.2-0.1-0.3-0.1c-0.1,0-0.2,0-0.3,0c-0.1,0-0.2,0-0.3,0C39.8,45,39.7,45,39.6,45c-0.1-0.1-0.1-0.2,0-0.2
		c0,0,0-0.1,0.1-0.1s0.1-0.1,0.1-0.1c0-0.1,0-0.1-0.1-0.1c-0.1,0-0.1,0-0.1,0C39.4,44.4,39.4,44.3,39.4,44.3z"/>
	<path fill="#643282" d="M63.8,52.4c0.1-0.1,0.1-0.2,0.1-0.2c0.1,0,0.1,0,0.2-0.1c0,0,0,0,0-0.1c0,0,0,0,0-0.1c0-0.1,0-0.1,0-0.2
		c0-0.1,0-0.2,0-0.2c0,0,0.1,0,0.1-0.1c0,0,0-0.1-0.1-0.1c0,0-0.1-0.1-0.1-0.1c0,0,0,0,0.1,0c0,0,0.1,0,0.1,0c0-0.1,0.1-0.2,0.2-0.3
		c0.1-0.1,0.1-0.1,0.1-0.1c0-0.1,0-0.1,0-0.2c0-0.1,0-0.1,0-0.1h0.1c0-0.1,0-0.1,0.1-0.3c0-0.1,0-0.2,0.1-0.2
		c-0.1-0.2-0.1-0.4,0.2-0.4c0,0-0.1,0-0.1-0.1c0,0,0,0,0-0.1c0.1-0.1,0.1-0.2,0-0.4c0,0,0.1,0,0.1,0c0.1-0.3,0.1-0.5,0.2-0.6
		c0,0,0-0.1-0.1-0.2c0-0.1,0-0.2,0-0.3c0.1-0.1,0.1-0.1,0.2-0.1c0-0.2,0.1-0.2,0.1-0.2c0-0.1,0-0.3,0-0.4c0-0.1,0.1-0.2,0.2-0.2
		l-0.1-0.3c0.1,0,0.2-0.1,0.2-0.1c0-0.1,0-0.1-0.1-0.1s-0.1-0.1-0.1-0.1c0,0,0.1,0,0.1,0c0,0,0.1,0,0.1,0c0.1,0,0.1-0.1,0-0.2
		c0-0.1,0-0.2,0-0.2c0,0,0.1,0,0.1,0c0.1,0,0.1,0,0.1,0c0,0,0-0.1-0.1-0.1c0,0,0-0.1,0.1-0.1c0,0,0.1-0.1,0.1-0.1
		c0-0.1,0-0.1-0.1-0.3c-0.1-0.1-0.1-0.2-0.1-0.3c0.1-0.1,0.2-0.2,0.1-0.3c-0.1,0-0.1,0-0.1,0c0-0.1,0-0.1,0-0.2c0-0.1,0-0.1,0-0.1
		c0-0.1,0-0.2,0-0.4c0,0,0-0.1,0-0.1c0-0.1,0-0.1,0-0.1c-0.1-0.2-0.1-0.3,0-0.3c0,0,0.1-0.1,0.1-0.1c0-0.1,0-0.2,0-0.4
		c0-0.2,0-0.3,0.1-0.4c-0.1-0.1-0.1-0.1-0.1-0.1c0,0,0.1,0,0.1-0.1c0-0.1,0-0.1,0-0.2c0-0.1-0.1-0.1-0.1-0.2c0,0,0,0,0.1,0
		c0,0,0,0,0.1,0c0,0,0-0.1,0-0.1c0-0.1,0-0.1,0-0.1c0.1,0,0.1,0,0.2-0.1c0.1,0,0.1,0,0.2,0.1c0,0,0-0.1,0-0.2c0.1,0,0.2,0,0.3,0
		c0.1,0,0.2,0,0.3,0c0.1,0.1,0.2,0.1,0.3,0.1c0,0.1,0.1,0.1,0.1,0.1c0.1,0,0.2,0,0.3,0c0.1,0,0.2,0,0.3,0c0,0,0,0.1,0,0.2
		c0,0.1,0,0.1,0,0.1c0,0,0,0.1,0.1,0.2c0.1,0.1,0.1,0.1,0.2,0.2c0,0.1,0,0.1,0,0.2c0,0.1,0.1,0.1,0.1,0.2v0.1c0,0,0,0.1,0.1,0.2
		c0.1,0.1,0.1,0.2,0.1,0.3c0,0.1,0,0.2,0.1,0.3c0,0.2,0,0.3,0.1,0.3c0,0.1,0,0.1,0,0.2c-0.1,0.1-0.1,0.2-0.1,0.4c0,0.2,0,0.3,0,0.4
		c0.1,0,0.1,0.1,0,0.3c0.1,0.1,0.1,0.1,0,0.1c0,0,0,0.1-0.1,0.1c-0.1,0-0.1,0.1-0.1,0.1c0,0,0,0.1,0.1,0.1s0.1,0.1,0.1,0.2
		c0,0.1,0,0.1,0,0.2c0,0.1,0,0.1,0,0.2s0,0.1,0,0.1c0,0,0,0.1,0,0.1c0,0-0.1,0.1-0.2,0.1c0,0,0,0.1,0,0.2c0,0.1,0,0.1,0,0.2
		c0,0,0,0.1,0,0.1c0,0,0,0.1,0,0.1c-0.1,0-0.1,0-0.2,0c0,0.1,0,0.1,0,0.2c0,0,0,0.2,0,0.5c-0.2,0.1-0.2,0.2-0.1,0.4
		c-0.2,0.1-0.2,0.2,0,0.3c0,0.1,0,0.1,0,0.1c0,0,0,0-0.1,0c0,0.1,0,0.1,0,0.1c-0.1,0.1-0.2,0.1-0.2,0.1c0,0.1,0,0.1,0,0.2
		c-0.1,0-0.1,0.1-0.1,0.2c0,0.1,0,0.2,0.1,0.2c0,0.1,0,0.2,0,0.3c-0.2,0-0.2,0.1-0.2,0.3c0.1,0.1,0.1,0.2,0.1,0.2
		c-0.1,0-0.2,0.1-0.2,0.2c0,0.1,0,0.2,0,0.4c-0.1,0-0.2,0.1-0.2,0.3c0,0,0,0.1,0,0.1c0,0,0,0.1,0.1,0.1c0,0,0,0.1,0,0.2
		c0,0.1,0,0.1,0,0.2c-0.2,0.1-0.2,0.2-0.2,0.3c-0.1,0.1-0.1,0.2-0.1,0.4c0,0,0,0.1,0.1,0.1c0,0,0.1,0.1,0.1,0.1h-0.1
		c-0.1,0-0.1,0-0.1,0.1c0,0.1-0.1,0.2-0.1,0.2c0,0.1,0,0.1,0,0.2s0,0.2,0,0.2c0,0-0.1,0.1-0.1,0.1c-0.1,0.1-0.1,0.1-0.1,0.1
		c0,0.1,0,0.1-0.1,0.3c-0.1,0.1,0,0.2,0.1,0.2c0,0.1,0,0.2,0,0.2c-0.1,0-0.2,0-0.2,0c0,0.1,0,0.2-0.1,0.2c0,0,0,0.1,0,0.1
		c0,0,0,0.1,0,0.2c0,0.1,0,0.1,0,0.2c0,0,0,0.1-0.1,0.2c-0.1,0.1-0.1,0.1,0,0.2c0,0-0.1,0-0.1,0.1c0,0,0,0,0,0.1c0,0.2,0,0.2,0,0.3
		c0,0,0,0-0.1,0c0,0,0,0-0.1,0c0,0,0,0.1,0,0.2c0,0,0,0.1-0.1,0.2S65.4,56,65.4,56c0.1,0.1,0.1,0.2,0.1,0.2c-0.1,0-0.1,0-0.2,0.1
		c0,0-0.1,0.1-0.1,0.2c0.1,0.1,0.1,0.1,0.1,0.1c-0.2,0.1-0.2,0.1-0.2,0.2c0,0,0,0.1,0,0.1c0,0,0,0.1,0,0.1c-0.1,0-0.1,0.1-0.2,0.2
		c0,0.1-0.1,0.2-0.1,0.2c0,0,0,0.1,0,0.1c0,0.1,0,0.1,0,0.1c0,0-0.1,0-0.1,0c-0.1,0-0.1,0.1-0.1,0.1c0,0,0,0.1,0,0.1
		c-0.1,0-0.1,0-0.1,0c0,0-0.1,0-0.1,0c0,0-0.1,0.1-0.2,0.2h-0.3c-0.1,0.1-0.1,0.1,0,0.3c-0.1,0-0.1,0-0.1,0c0,0,0,0,0,0
		c0,0.1,0,0.1,0,0.1c-0.1-0.1-0.1-0.2-0.2-0.2c0,0-0.1,0-0.1,0c0,0-0.1,0-0.1,0c0,0-0.1,0-0.1-0.1s-0.1,0-0.1,0
		c-0.1,0.1-0.2,0.1-0.2,0.1c0-0.1,0-0.1,0-0.2c0-0.1,0-0.1,0-0.2c0,0-0.1,0-0.2,0c-0.1,0-0.1-0.1-0.2-0.2c0-0.1,0-0.1,0-0.1
		c-0.1,0.1-0.1,0.1-0.2,0v-0.1c0,0,0-0.1,0-0.1c0,0-0.1,0-0.1,0c0,0,0-0.1-0.1-0.1s-0.1-0.1-0.1-0.1l-0.1,0c0,0-0.1-0.1-0.1-0.1
		c-0.1-0.1-0.2-0.2-0.3-0.2c0,0,0-0.1,0-0.1c0,0,0,0,0-0.1c0,0,0,0-0.1,0c0,0,0,0,0,0c0,0,0-0.1,0-0.1l-0.1-0.1
		c0-0.1-0.1-0.3-0.4-0.6c-0.1,0-0.1,0-0.1,0c0,0-0.1-0.1-0.1-0.3c-0.1-0.1-0.2-0.1-0.2-0.1c0-0.1,0-0.1-0.1-0.2c0-0.1,0-0.2-0.1-0.3
		c-0.1,0-0.1-0.1-0.1-0.1c0-0.2-0.1-0.3-0.3-0.4c0,0,0-0.1,0-0.1c0-0.1,0-0.1,0-0.1c0,0,0,0-0.1-0.1s-0.1,0-0.1-0.1
		c0,0-0.1-0.1-0.1-0.2c0-0.1-0.1-0.1-0.1-0.2c0-0.1,0-0.2-0.1-0.3v-0.1c0,0,0-0.1-0.1-0.1c-0.1,0-0.1-0.1-0.1-0.1
		c-0.1,0-0.1,0-0.1,0c0,0,0-0.1,0-0.1c0,0,0-0.1,0-0.1c-0.1,0-0.1,0-0.1,0c0-0.1,0-0.2,0-0.2c0,0,0.1,0,0.1,0c0,0,0,0,0,0
		c0-0.1-0.1-0.1-0.2,0H59c0-0.1,0-0.1,0-0.2c0-0.1,0-0.1,0-0.1c0,0,0-0.1-0.1-0.1l0,0c0-0.1-0.1-0.1-0.1-0.2l0-0.1c0,0,0-0.1,0-0.2
		c0,0-0.1-0.1-0.1-0.1c0,0-0.1,0-0.1,0c0-0.1,0-0.2-0.1-0.3c0-0.1,0-0.1-0.1-0.2c0,0-0.1,0-0.1,0c0-0.1,0-0.1-0.1-0.2
		c0-0.1,0-0.1-0.1-0.2c-0.1-0.1-0.1-0.2-0.1-0.2c0-0.1-0.1-0.1-0.2-0.1c0,0,0-0.1,0-0.1c0-0.1,0-0.1,0-0.2c0,0-0.1,0-0.1-0.1
		c0,0-0.1,0-0.1-0.1c0-0.1,0-0.2,0-0.2c-0.1-0.1-0.1-0.1-0.1-0.2c0,0-0.1-0.1-0.1-0.2c0-0.1-0.1-0.1-0.1-0.2c-0.1,0-0.1,0.1-0.2,0.3
		c0,0,0,0.1,0,0.1c0,0.1,0,0.1-0.1,0.1c0,0,0,0-0.1,0.1c0,0,0,0.1,0,0.1c0,0,0,0,0,0.1c0,0,0,0.1,0,0.1c0,0,0,0-0.1,0.1
		c0,0-0.1,0.1-0.1,0.2c0,0.1-0.1,0.1-0.1,0.2c0,0.1-0.1,0.1-0.2,0.2c0,0.1,0,0.2-0.1,0.3v0.1l-0.1,0.1c0,0,0,0,0,0.1c0,0,0,0,0,0.1
		c0,0-0.1,0.1-0.1,0.1c-0.1,0.1-0.1,0.2,0,0.2c0,0,0,0.1-0.1,0.1c0,0,0,0.1,0,0.2c0,0.1,0,0.2,0,0.2c0,0,0,0,0,0c0,0,0,0,0,0
		c-0.1,0.2-0.1,0.2-0.2,0.3c0,0,0,0.1-0.1,0.4s-0.1,0.3,0,0.3c-0.1,0-0.2,0.1-0.2,0.2s-0.1,0.2-0.1,0.2c0,0.1,0,0.1,0,0.1
		s0,0.1,0,0.1l-0.1,0.2c0,0,0,0.1,0.1,0.1c0.1,0,0.1,0.1,0.1,0.1h-0.1c-0.1,0-0.1,0-0.1,0.1c0,0.1,0,0.2,0,0.2c0,0-0.1,0-0.1,0
		c0,0,0,0.1,0,0.2v0.2c0,0-0.1,0-0.1,0c-0.1,0-0.1,0.1-0.1,0.2c0,0.1,0,0.2,0,0.2c-0.1,0-0.1,0-0.2,0.1c0,0.1,0,0.2,0.1,0.2
		c0,0.1,0,0.1,0,0.1c-0.1,0-0.1,0.1-0.2,0.2c0,0,0,0.1,0,0.2c0,0.1,0,0.2,0,0.3c0,0,0,0-0.1,0c-0.1,0-0.1,0.1,0,0.2
		c0,0.1,0,0.2,0,0.2c-0.1,0-0.1,0.1-0.1,0.2c0,0.1,0,0.1,0.1,0.1c0,0,0,0.1,0,0.2c-0.1,0.1-0.1,0.1-0.1,0.2c0,0,0,0.1,0,0.1
		c0,0.1,0,0.1,0,0.1c0,0,0,0.1-0.1,0.1c0,0-0.1,0.1-0.1,0.1c-0.1,0-0.2,0-0.3,0.1c-0.1,0.1-0.1,0.1-0.1,0.1c0,0,0,0.1,0,0.1
		s0,0.1,0,0.1s0,0-0.1,0h0c-0.1,0-0.1,0.1-0.1,0.2c0,0-0.1,0.1-0.1,0.2c-0.1,0-0.1,0-0.2,0c-0.3-0.2-0.4-0.2-0.4,0c0,0-0.1,0-0.2,0
		s-0.2,0-0.2,0c0,0,0-0.1,0-0.1c0-0.1-0.1-0.2-0.2-0.2c0-0.1,0-0.1-0.1-0.2c0-0.1,0-0.2-0.1-0.3c0,0,0-0.1-0.1-0.2l-0.1,0
		c0,0-0.1-0.1-0.1-0.2c0-0.1-0.1-0.1-0.2-0.1c0,0-0.1-0.1-0.1-0.1c0-0.1,0-0.2,0-0.3c0-0.1,0-0.3,0-0.3c0,0,0-0.1-0.1-0.1
		c0,0-0.1-0.1-0.1-0.1c-0.1-0.2-0.1-0.3-0.2-0.4c0,0,0-0.1,0-0.2c0-0.2,0-0.3-0.2-0.3c0-0.2,0-0.3,0.1-0.3c0-0.1,0-0.2-0.1-0.3
		c0,0,0,0-0.1,0c0,0,0,0-0.1,0c0,0,0-0.1,0-0.1c0-0.1,0-0.1,0-0.1c0,0,0-0.1,0-0.1c0,0,0,0-0.1,0s-0.1,0-0.1,0l0-0.1
		c-0.1-0.1-0.1-0.2-0.1-0.4c0-0.2,0-0.3,0-0.5c-0.1,0-0.2-0.1-0.2-0.3c0-0.2-0.1-0.3-0.2-0.3c0-0.1,0-0.1,0-0.3
		c0.1-0.1,0-0.2-0.2-0.2c-0.1-0.1-0.1-0.2,0-0.4c0-0.1,0-0.1,0-0.1c0,0,0,0,0-0.1c0,0,0,0-0.1-0.1c0,0,0-0.1,0-0.2s0-0.1,0-0.1
		c0,0,0,0-0.1-0.1c0,0-0.1-0.1-0.1-0.1c0-0.1,0-0.1-0.1-0.3c0-0.1,0-0.2-0.1-0.3c-0.1,0-0.1,0-0.1,0l0.1-0.1c0-0.1,0-0.2-0.1-0.3
		c0,0-0.1,0-0.1,0c-0.1,0-0.1,0-0.2,0c0-0.1,0-0.1,0.1-0.2s0-0.1,0-0.2c-0.1-0.1-0.1-0.1-0.1-0.1c0-0.2,0-0.3-0.2-0.3
		c0-0.1,0-0.2,0-0.3c-0.1-0.1-0.1-0.2-0.1-0.2c0,0,0,0-0.1,0c0,0,0-0.1,0-0.1c0,0,0-0.1,0-0.1c0,0-0.1,0-0.2,0c0,0,0-0.1,0-0.1
		c0-0.1,0-0.1,0-0.1c0,0-0.1,0-0.1,0c0,0,0,0,0,0c0,0,0-0.1,0-0.1c0-0.1,0.1-0.1,0.1-0.2c0,0-0.1,0-0.1-0.1c0,0-0.1-0.1-0.1-0.1
		c0,0,0-0.1,0-0.1c0,0,0-0.1-0.1-0.1c0,0-0.1-0.1-0.1-0.1v-0.1c0-0.1-0.1-0.1-0.1-0.3c0-0.1-0.1-0.2-0.1-0.2v-0.3
		c0-0.1,0-0.1-0.1-0.1c-0.1,0-0.1-0.1-0.1-0.1c-0.1,0-0.1,0-0.1,0c0-0.2-0.1-0.2-0.1-0.3c0.1-0.1,0.1-0.1,0.1-0.2
		c0-0.1-0.1-0.1-0.2-0.1c0-0.1,0-0.1,0-0.2c0-0.2,0-0.3-0.1-0.4c0-0.1,0-0.1-0.1-0.2c-0.1,0-0.1,0-0.1,0c0-0.1,0-0.2,0-0.4
		c0-0.2,0-0.3,0-0.3c0,0,0.1-0.1,0.1-0.1c0,0,0-0.1,0-0.1c0,0,0-0.1,0-0.1c0-0.1,0-0.1,0-0.1c0,0,0,0,0.1-0.1c0.1,0,0.1-0.1,0-0.1
		c0.2-0.1,0.3-0.2,0.2-0.3c0.1,0,0.2,0,0.2-0.1c0.1-0.1,0.1-0.1,0.1-0.2c0,0.1,0.1,0.1,0.2,0.1s0.2,0,0.3,0c0,0,0.1,0,0.1,0.1
		c0,0,0,0.1,0,0.1h0.4c0.1,0.1,0.2,0.2,0.4,0.2v0.1c0,0,0,0,0.1,0v0.1c0.1,0.1,0.2,0.2,0.2,0.3c0.1,0.1,0.2,0.1,0.2,0.1
		c0,0,0,0.1,0,0.1c0,0.1,0,0.1,0,0.1c0,0,0,0.1,0.1,0.1c0,0.1,0.1,0.1,0.1,0.1c0,0.1,0.1,0.1,0.2,0.1c0,0.1,0,0.1-0.1,0.2
		c0,0.1,0,0.1,0.1,0.2s0.1,0.1,0.1,0.1c-0.1,0.1-0.1,0.2-0.1,0.3c0,0,0.1,0.1,0.2,0.1c-0.1,0.2-0.1,0.2-0.1,0.3c0,0,0,0.1,0,0.1
		c0,0,0.1,0,0.1,0c0,0.1,0,0.2,0.1,0.2c0,0,0,0,0,0.1c0,0,0.1,0,0.1,0c0,0,0,0,0,0c0,0,0,0.1,0,0.3c0,0.2,0,0.2,0.1,0.2
		c0,0,0.1,0,0.1,0c0,0,0,0.1,0,0.2c-0.1,0.1-0.1,0.1-0.1,0.2c0,0.1,0,0.1,0.1,0.1c0,0.1,0,0.2,0,0.2c0.1,0,0.1,0,0.2,0c0,0,0,0,0,0
		c0,0-0.1,0-0.1,0.1s0,0.1,0,0.1c0,0.1,0,0.1,0,0.2s0,0,0.1,0.1c0,0,0.1,0,0.1,0.1c0,0,0,0.1,0,0.1c0,0.1,0,0.1,0,0.1
		c0,0,0,0.1,0.1,0.1c0,0,0,0,0.1,0.1c0,0,0,0,0,0.1c0,0.1,0,0.1,0,0.1c0,0,0,0.1,0.1,0.1c0.1,0.1,0.1,0.1,0.1,0.1v0.2
		c0,0,0,0.1,0.1,0.1c0,0.1,0.1,0.2,0.2,0.4c0,0.1,0,0.2,0,0.3c0.1,0.1,0.1,0.2,0.1,0.2c0.1,0,0.1,0.1,0.1,0.3l0,0.1
		c0,0.1,0,0.1,0,0.2c0,0,0.1,0,0.2,0c0,0.1,0,0.1,0,0.2c0,0.1,0,0.1,0,0.1c0,0.1,0.1,0.1,0.2,0.1c0,0,0,0.1,0,0.1s0,0.1,0,0.1
		c0,0,0,0,0,0c0,0,0.1,0,0.1,0c0,0.1,0,0.2-0.1,0.3c0,0.1,0,0.2,0,0.3c0.1,0,0.1,0,0.2-0.1c0-0.2,0-0.4,0.1-0.4c0-0.1,0-0.2,0-0.2
		h0.1c0.1,0,0.1-0.1,0.1-0.2c0-0.1,0-0.2,0-0.2c0,0,0,0,0,0c0,0,0.1,0,0.1,0c0,0,0-0.1,0-0.2c0.1-0.1,0.1-0.1,0.2-0.2
		C54,51.1,54,51,54.1,51c0,0,0-0.1,0-0.2c0.3-0.3,0.4-0.6,0.4-0.9c0.1-0.1,0.1-0.1,0.1-0.1c0-0.1,0-0.1,0-0.2c0-0.1,0-0.1,0-0.2
		c0.1,0,0.2-0.2,0.2-0.5c0.2-0.3,0.3-0.5,0.3-0.7c0.1-0.1,0.1-0.1,0.1-0.1c0.1-0.1,0.1-0.2,0.1-0.3c0,0,0.1,0,0.1-0.1
		c0.1-0.1,0.1-0.1,0.2-0.2c0,0,0-0.1,0-0.1c0,0,0.1-0.1,0.1-0.1s0-0.1,0-0.1c0-0.1,0-0.1,0.1-0.2c0,0,0-0.1,0-0.1c0,0-0.1,0-0.1,0
		c-0.1-0.1-0.1-0.2,0-0.3c0,0,0.1,0,0.2,0c0-0.1,0-0.1,0-0.2c0,0,0.1,0,0.1,0c0,0,0.1-0.1,0.1-0.1v-0.2c0,0,0-0.1,0.1-0.1
		c0,0,0.1-0.1,0.1-0.1c0,0,0-0.1,0-0.2c0,0,0-0.1,0.1-0.1c0.1-0.1,0.1-0.1,0.1-0.1c0,0,0,0,0-0.1c0,0,0,0,0-0.1
		c0.2-0.2,0.3-0.4,0.4-0.4c0.1,0,0.1-0.1,0.2-0.3c0,0,0.1,0,0.1,0.1c0.1,0,0.1-0.1,0.1-0.2c0.1-0.1,0.2,0,0.3,0c0,0,0.1-0.1,0.1-0.2
		c0,0,0.1,0,0.1,0c0.1,0,0.1,0,0.1,0c0,0,0.1,0.1,0.2,0.3c0,0,0,0,0-0.1v0c0,0,0,0,0.1,0c0,0.1,0,0.2,0.1,0.2
		c0.1-0.1,0.2-0.1,0.3-0.1c0,0.1,0.1,0.2,0.1,0.2c-0.1,0.1-0.1,0.2,0,0.3c0.1,0.1,0.2,0.1,0.3,0c0,0,0,0.1,0,0.1c0,0,0,0.1,0,0.1
		c0,0,0.1,0.1,0.1,0.2c0,0.1,0.1,0.1,0.1,0.2c0.1,0.2,0.1,0.3,0.1,0.3c0.1,0.1,0.1,0.1,0.1,0.1c0,0,0,0.1,0,0.1c0,0.1,0,0.1,0,0.1
		c0,0,0,0,0,0c0,0,0.1,0,0.1,0.1c0,0,0,0.1,0,0.1c0,0.1,0,0.1,0,0.1c0,0,0,0.1,0,0.1c0,0,0,0.1,0,0.1s0,0.1,0.1,0.1
		c0,0,0.1,0.1,0.1,0.1c0,0,0,0.1,0.1,0.2c0,0.1,0,0.1,0.1,0.1c0,0.2,0,0.3,0.1,0.4c0,0.2,0.1,0.4,0.2,0.5c0,0,0,0.1,0.1,0.2
		c0.1,0.1,0.1,0.2,0.1,0.3c0.1,0,0.1,0.1,0.1,0.2c0,0.1,0,0.2,0.1,0.2c0,0.1,0,0.2,0.2,0.3v0.1c0.1,0.1,0.2,0.2,0.2,0.3
		c-0.1,0.1,0,0.2,0,0.2c0.1,0.1,0.1,0.1,0.1,0.1c0,0.1,0,0.1,0,0.1c0,0,0,0.1,0.1,0.1c0.1,0.1,0.1,0.1,0.1,0.1s0,0.1,0,0.1
		c0,0,0,0.1,0,0.1c0,0,0.1,0.1,0.2,0.1c0,0.1,0,0.1,0.1,0.2c0,0.1,0,0.1,0.1,0.2c0.1,0.1,0.1,0.1,0.1,0.1c0,0,0,0.1,0,0.1
		c0,0,0,0,0,0.1s0,0,0.1,0.1c0,0,0.1,0.1,0.1,0.1c0,0.1,0,0.2,0.2,0.2c0,0,0,0.1,0,0.1s0,0.1,0,0.1h0.1v0.2c0,0,0.1,0,0.1,0
		c0,0,0,0.1,0,0.1v0c-0.1,0.1-0.1,0.2,0,0.4c0,0.1,0.1,0.2,0.4,0.5c0,0.1,0,0.2,0.1,0.2c0.1,0,0.1,0,0.1,0c0,0,0.1,0,0.1,0
		c0,0.1,0,0.1,0,0.2c0,0,0.1,0,0.1,0.1c0,0.2,0.1,0.3,0.3,0.5c0,0.2,0.1,0.2,0.2,0.1s0.1-0.2,0.1-0.4c0,0,0.1,0,0.1,0
		c0,0,0-0.1,0-0.2c0,0,0-0.1,0-0.1c0.2,0,0.2-0.1,0.2-0.3c0-0.1,0-0.2,0-0.3c0,0,0.1,0,0.1,0c0.1,0,0.1,0,0.1,0c0,0,0-0.1,0-0.1
		c0-0.1,0-0.1,0-0.1c-0.1-0.1-0.1-0.2-0.1-0.2c0.1,0,0.2-0.1,0.3-0.2C63.8,52.6,63.8,52.5,63.8,52.4L63.8,52.4z M63.9,52.2
		c0.1,0,0.1,0,0.2-0.1c0,0,0,0,0-0.1c0,0,0,0,0-0.1c0-0.1,0-0.1,0-0.2c0-0.1,0-0.2,0-0.2c0,0,0.1,0,0.1-0.1c0,0,0-0.1-0.1-0.1
		c0,0-0.1-0.1-0.1-0.1c0,0,0,0,0.1,0c0,0,0.1,0,0.1,0c0-0.1,0.1-0.2,0.2-0.3c0.1-0.1,0.1-0.1,0.1-0.1c0-0.1,0-0.1,0-0.2
		c0-0.1,0-0.1,0-0.1h0.1c0-0.1,0-0.1,0.1-0.3c0-0.1,0-0.2,0.1-0.2c-0.1-0.2-0.1-0.4,0.2-0.4c0,0-0.1,0-0.1-0.1c0,0,0,0,0-0.1
		c0.1-0.1,0.1-0.2,0-0.4c0,0,0.1,0,0.1,0c0.1-0.3,0.1-0.5,0.3-0.6l-0.1-0.1c0-0.1,0-0.2,0-0.3c0.1-0.1,0.1-0.1,0.2-0.1
		c0-0.2,0.1-0.2,0.1-0.2c0-0.1,0-0.3,0-0.4c0-0.1,0.1-0.2,0.2-0.2l-0.1-0.3c0.1,0,0.2-0.1,0.2-0.1c0-0.1,0-0.1-0.1-0.1
		s-0.1-0.1-0.1-0.1c0,0,0.1,0,0.1,0c0,0,0.1,0,0.1,0c0.1,0,0.1-0.1,0-0.2c0-0.1,0-0.2,0-0.2c0,0,0.1,0,0.1,0c0.1,0,0.1,0,0.1,0
		c0,0,0-0.1-0.1-0.1c0,0,0-0.1,0.1-0.1c0,0,0.1-0.1,0.1-0.1c0-0.1,0-0.1-0.1-0.3c-0.1-0.1-0.1-0.2-0.1-0.3c0.1-0.1,0.2-0.2,0.1-0.3
		c-0.1,0-0.1,0-0.1,0c0-0.1,0-0.1,0-0.2c0-0.1,0-0.1,0-0.1c0-0.1,0-0.2,0-0.4c0,0,0-0.1,0-0.1c0-0.1,0-0.1,0-0.1
		c-0.1-0.2-0.1-0.3,0-0.3c0,0,0.1-0.1,0.1-0.1c0-0.1,0-0.2,0-0.4c0-0.2,0-0.3,0.1-0.4c-0.1-0.1-0.1-0.1-0.1-0.1c0,0,0.1,0,0.1-0.1
		c0-0.1,0-0.1,0-0.2c0-0.1-0.1-0.1-0.1-0.2c0,0,0,0,0.1,0c0,0,0,0,0.1,0c0,0,0-0.1,0-0.1c0-0.1,0-0.1,0-0.1c0.1,0,0.1,0,0.2-0.1
		c0.1,0,0.1,0,0.2,0.1c0,0,0-0.1,0-0.2c0.1,0,0.2,0,0.3,0c0.1,0,0.2,0,0.3,0c0.1,0.1,0.2,0.1,0.3,0.1c0,0.1,0.1,0.1,0.1,0.1
		c0.1,0,0.2,0,0.3,0c0.1,0,0.2,0,0.3,0c0,0,0,0.1,0,0.2c0,0.1,0,0.1,0,0.1c0,0,0,0.1,0.1,0.2c0.1,0.1,0.1,0.1,0.2,0.2
		c0,0.1,0,0.1,0,0.2c0,0.1,0.1,0.1,0.1,0.2v0.1c0,0,0,0.1,0.1,0.2c0.1,0.1,0.1,0.2,0.1,0.3c0,0.1,0,0.2,0.1,0.3c0,0.2,0,0.3,0.1,0.4
		c0,0,0,0.1,0,0.2c-0.1,0.1-0.1,0.2-0.1,0.4c0,0.2,0,0.3,0,0.4c0.1,0,0.1,0.1,0,0.3c0.1,0.1,0.1,0.1,0,0.1c0,0,0,0.1-0.1,0.1
		c-0.1,0-0.1,0.1-0.1,0.1c0,0,0,0.1,0.1,0.1s0.1,0.1,0.1,0.2c0,0.1,0,0.1,0,0.2c0,0.1,0,0.2,0,0.2c0,0.1,0,0.1,0,0.1
		c0,0-0.1,0.1-0.2,0.1c0,0,0,0.1,0,0.2c0,0.1,0,0.1,0,0.2c0.1,0.1,0.1,0.1,0.1,0.2c-0.1,0-0.1,0-0.2,0c0,0.1,0,0.1,0,0.2
		c0,0,0,0.2,0,0.5c-0.2,0.1-0.2,0.2-0.1,0.4c-0.2,0.1-0.2,0.2,0,0.3c0,0.1,0,0.1,0,0.1c0,0,0,0-0.1,0c0,0.1,0,0.1,0,0.1
		c-0.1,0.1-0.2,0.1-0.2,0.1c0,0.1,0,0.1,0,0.2c-0.1,0-0.1,0.1-0.1,0.2c0,0.1,0,0.2,0.1,0.2c0,0.1,0,0.2,0,0.3
		c-0.2,0-0.2,0.1-0.2,0.3c0.1,0.1,0.1,0.2,0.1,0.2c-0.1,0-0.2,0.1-0.2,0.2c0,0.1,0,0.2,0,0.4c-0.1,0-0.2,0.1-0.2,0.3
		c0,0,0,0.1,0,0.1c0,0,0,0.1,0.1,0.1c0,0,0,0.1,0,0.2c0,0.1,0,0.1,0,0.2c-0.2,0.1-0.2,0.2-0.2,0.3c-0.1,0.1-0.1,0.2-0.1,0.4
		c0,0,0,0.1,0.1,0.1c0,0,0.1,0.1,0.1,0.1h-0.1c-0.1,0-0.1,0-0.1,0.1c0,0.1-0.1,0.2-0.1,0.2c0,0.1,0,0.1,0,0.2s0,0.2,0,0.2
		c0,0-0.1,0.1-0.1,0.1c-0.1,0.1-0.1,0.1-0.1,0.1c0,0.1,0,0.1-0.1,0.3c-0.1,0.1,0,0.2,0.1,0.2c0,0.1,0,0.2,0,0.2c-0.1,0-0.2,0-0.2,0
		c0,0.1,0,0.2-0.1,0.2c0,0,0,0.1,0,0.1c0,0,0,0.1,0,0.2c0,0.1,0,0.1,0,0.2c0,0,0,0.1-0.1,0.2c-0.1,0.1-0.1,0.1,0,0.2
		c0,0-0.1,0-0.1,0.1c0,0,0,0,0,0.1c0,0.2,0,0.2,0,0.3c0,0,0,0-0.1,0c0,0,0,0-0.1,0c0,0,0,0.1,0,0.2c0,0,0,0.1-0.1,0.2
		S65.4,56,65.4,56c0.1,0.1,0.1,0.2,0.1,0.2c-0.1,0-0.1,0-0.2,0.1c0,0-0.1,0.1-0.1,0.2c0.1,0.1,0.1,0.1,0.1,0.1
		c-0.2,0.1-0.2,0.1-0.2,0.2c0,0,0,0.1,0,0.1c0,0,0,0.1,0,0.1c-0.1,0-0.1,0.1-0.2,0.2c0,0.1-0.1,0.2-0.1,0.2c0,0,0,0.1,0,0.1
		c0,0.1,0,0.1,0,0.1c0,0-0.1,0-0.1,0c0,0-0.1,0.1-0.1,0.1c0,0,0,0.1,0,0.1c-0.1,0-0.1,0-0.1,0c0,0-0.1,0-0.1,0c0,0-0.1,0.1-0.2,0.2
		h-0.3c-0.1,0.1-0.1,0.1,0,0.3c-0.1,0-0.1,0-0.1,0c0,0,0,0,0,0c0,0.1,0,0.1,0,0.1c-0.1-0.1-0.1-0.2-0.2-0.2c0,0-0.1,0-0.1,0
		c0,0-0.1,0-0.1,0c0,0-0.1,0-0.1-0.1s-0.1,0-0.1,0c-0.1,0.1-0.2,0.1-0.2,0.1c0-0.1,0-0.1,0-0.2c0-0.1,0-0.1,0-0.2c0,0-0.1,0-0.2,0
		c-0.1,0-0.1-0.1-0.2-0.2c0-0.1,0-0.1,0-0.1c-0.1,0.1-0.1,0.1-0.2,0v-0.1c0,0,0-0.1,0-0.1c0,0-0.1,0-0.1,0c0,0,0-0.1-0.1-0.1
		s-0.1-0.1-0.1-0.1l-0.1,0c0,0-0.1-0.1-0.1-0.1c-0.1-0.1-0.2-0.2-0.3-0.2c0-0.1,0-0.1,0-0.1c0,0,0,0-0.1,0c0,0,0,0,0,0
		c0,0,0-0.1,0-0.1l-0.1-0.1c0-0.1-0.1-0.3-0.4-0.6c-0.1,0-0.1,0-0.1,0c0,0-0.1-0.1-0.1-0.3c-0.1-0.1-0.2-0.1-0.2-0.1
		c0-0.1,0-0.1-0.1-0.2c0-0.1,0-0.2-0.1-0.3c-0.1,0-0.1-0.1-0.1-0.1c0-0.2-0.1-0.3-0.3-0.4c0,0,0-0.1,0-0.1c0-0.1,0-0.1,0-0.1
		c0,0,0,0-0.1-0.1s-0.1,0-0.1-0.1c0,0-0.1-0.1-0.1-0.2c0-0.1-0.1-0.1-0.1-0.2c0-0.1,0-0.2-0.1-0.2v-0.2c0,0,0-0.1-0.1-0.1
		c-0.1,0-0.1-0.1-0.1-0.1c-0.1,0-0.1,0-0.1,0c0,0,0-0.1,0-0.1c0,0,0-0.1,0-0.1c-0.1,0-0.1,0-0.1,0c0-0.1,0-0.2,0-0.2
		c0,0,0.1,0,0.1,0c0,0,0,0,0,0c0-0.1-0.1-0.1-0.2,0H59c0-0.1,0-0.1,0-0.2c0-0.1,0-0.1,0-0.1c0,0,0-0.1-0.1-0.1l0,0
		c0-0.1-0.1-0.1-0.1-0.2l0-0.1c0,0,0-0.1,0-0.2c0,0-0.1-0.1-0.1-0.1c0,0-0.1,0-0.1,0c0-0.1,0-0.1-0.1-0.3c0-0.1,0-0.1-0.1-0.2
		c0,0-0.1,0-0.1,0c0-0.1,0-0.1-0.1-0.2c0-0.1,0-0.1-0.1-0.2c-0.1-0.1-0.1-0.2-0.1-0.2c0-0.1-0.1-0.1-0.2-0.1c0,0,0-0.1,0-0.1
		c0-0.1,0-0.1,0-0.2c0,0-0.1,0-0.1-0.1c0,0,0,0,0-0.1c0-0.1,0-0.2-0.1-0.2c-0.1-0.1-0.1-0.1-0.1-0.2c0,0-0.1-0.1-0.1-0.2
		c0-0.1-0.1-0.1-0.1-0.2c-0.1,0-0.1,0.1-0.2,0.3c0,0,0,0.1,0,0.1c0,0.1,0,0.1-0.1,0.1c0,0,0,0-0.1,0.1c0,0,0,0.1,0,0.1
		c0,0,0,0,0,0.1c0,0,0,0.1,0,0.1c0,0,0,0-0.1,0.1c0,0-0.1,0.1-0.1,0.2c0,0.1-0.1,0.1-0.1,0.2c0,0.1-0.1,0.1-0.2,0.2
		c0,0.1,0,0.2-0.1,0.3v0.1c0,0,0,0.1-0.1,0.1c0,0,0,0.1,0,0.1c0,0-0.1,0.1-0.1,0.1c-0.1,0.1-0.1,0.2,0,0.2c0,0,0,0.1-0.1,0.1
		c0,0,0,0.1,0,0.2c0,0.1,0,0.2,0,0.2c0,0,0,0,0,0c0,0,0,0,0,0c-0.1,0.2-0.1,0.2-0.2,0.3c0,0,0,0.1-0.1,0.4s-0.1,0.3,0,0.3
		c-0.1,0-0.2,0.1-0.2,0.2s-0.1,0.2-0.1,0.2c0,0.1,0,0.1,0,0.1s0,0.1,0,0.1l-0.1,0.2c0,0,0,0.1,0.1,0.1c0.1,0,0.1,0.1,0.1,0.1h-0.1
		c-0.1,0-0.1,0-0.1,0.1c0,0.1,0,0.2,0,0.2c0,0-0.1,0-0.1,0c0,0,0,0.1,0,0.2v0.2c0,0-0.1,0-0.1,0c-0.1,0-0.1,0.1-0.1,0.2
		c0,0.1,0,0.2,0,0.2c-0.1,0-0.1,0-0.2,0.1c0,0.1,0,0.2,0.1,0.2c0,0.1,0,0.1,0,0.1c-0.1,0-0.1,0.1-0.2,0.2c0,0,0,0.1,0,0.2
		c0,0.1,0,0.2,0,0.3c0,0,0,0-0.1,0c-0.1,0-0.1,0.1,0,0.2c0,0.1,0,0.2,0,0.2c-0.1,0-0.1,0.1-0.1,0.2c0,0.1,0,0.1,0.1,0.1
		c0,0,0,0.1,0,0.2c-0.1,0.1-0.1,0.1-0.2,0.2c0,0,0,0.1,0,0.1c0,0.1,0,0.1,0,0.1c0,0,0,0.1-0.1,0.1c0,0-0.1,0.1-0.1,0.1
		c-0.1,0-0.2,0-0.3,0.1c-0.1,0.1-0.1,0.1-0.1,0.1c0,0,0,0.1,0,0.1s0,0.1,0,0.1s0,0-0.1,0h0c-0.1,0-0.1,0.1-0.1,0.2
		c0,0-0.1,0.1-0.1,0.2c-0.1,0-0.1,0-0.2,0c-0.3-0.2-0.4-0.2-0.4,0c0,0-0.1,0-0.2,0s-0.2,0-0.2,0c0,0,0-0.1,0-0.1
		c0-0.1-0.1-0.2-0.2-0.2c0-0.1,0-0.1-0.1-0.2c0-0.1,0-0.2-0.1-0.3c0,0,0-0.1-0.1-0.2l-0.1,0c0,0-0.1-0.1-0.1-0.2
		c0-0.1-0.1-0.1-0.2-0.1c0,0-0.1-0.1-0.1-0.1c0-0.1,0-0.2,0-0.3c0-0.1,0-0.3,0-0.3c0,0,0-0.1-0.1-0.1c0,0-0.1-0.1-0.1-0.1
		c-0.1-0.2-0.1-0.3-0.2-0.4c0,0,0-0.1,0-0.2c0-0.2,0-0.3-0.2-0.3c0-0.2,0-0.3,0-0.3c0-0.1,0-0.2-0.1-0.3c0,0,0,0-0.1,0
		c0,0,0,0-0.1,0c0,0,0-0.1,0-0.1c0-0.1,0-0.1,0-0.1c0,0,0-0.1,0-0.1c0,0,0,0-0.1,0s-0.1,0-0.1,0l0-0.1c-0.1-0.1-0.1-0.2-0.1-0.4
		c0-0.2,0-0.3,0-0.5c-0.1,0-0.2-0.1-0.2-0.3c0-0.2-0.1-0.3-0.2-0.3c0-0.1,0-0.1,0-0.3c0.1-0.1,0-0.2-0.2-0.2c-0.1-0.1-0.1-0.2,0-0.4
		c0-0.1,0-0.1,0-0.1c0,0,0,0,0-0.1c0,0,0,0-0.1-0.1c0,0,0-0.1,0-0.2s0-0.1,0-0.1c0,0,0,0-0.1-0.1c0,0-0.1-0.1-0.1-0.1
		c0-0.1,0-0.1-0.1-0.3c0-0.1,0-0.2-0.1-0.3c-0.1,0-0.1,0-0.1,0l0.1-0.1c0-0.1,0-0.2-0.1-0.3c0,0-0.1,0-0.1,0c-0.1,0-0.1,0-0.2,0
		c0-0.1,0-0.1,0.1-0.2s0-0.1,0-0.2c-0.1-0.1-0.1-0.1-0.1-0.1c0-0.2,0-0.3-0.2-0.3c0-0.1,0-0.2,0-0.3c-0.1-0.1-0.1-0.2-0.1-0.2
		c0,0,0,0-0.1,0c0,0,0-0.1,0-0.1c0,0,0-0.1,0-0.1c0,0-0.1,0-0.2,0c0,0,0-0.1,0-0.1c0-0.1,0-0.1,0-0.1c0,0-0.1,0-0.1,0c0,0,0,0,0,0
		c0,0,0-0.1,0-0.1c0-0.1,0.1-0.1,0.1-0.2c0,0-0.1,0-0.1-0.1c0,0-0.1-0.1-0.1-0.1c0,0,0-0.1,0-0.1c0,0,0-0.1-0.1-0.1
		c0,0-0.1-0.1-0.1-0.1v-0.1c0-0.1-0.1-0.1-0.1-0.3c0-0.1-0.1-0.2-0.1-0.2v-0.3c0-0.1,0-0.1-0.1-0.1c-0.1,0-0.1-0.1-0.1-0.1
		c-0.1,0-0.1,0-0.1,0c0-0.2-0.1-0.2-0.1-0.3c0.1-0.1,0.1-0.1,0.1-0.2c0-0.1-0.1-0.1-0.2-0.1c0-0.1,0-0.1,0-0.2c0-0.2,0-0.3-0.1-0.4
		c0-0.1,0-0.1-0.1-0.2c-0.1,0-0.1,0-0.1,0c0-0.1,0-0.2,0-0.4c0-0.2,0-0.3,0-0.3c0,0,0.1-0.1,0.1-0.2c0,0,0-0.1,0-0.1
		c0-0.1,0-0.1,0-0.1c0,0,0,0,0.1-0.1c0.1,0,0.1-0.1,0-0.1c0.2-0.1,0.3-0.2,0.2-0.3c0.1,0,0.2,0,0.2-0.1c0.1-0.1,0.1-0.1,0.1-0.2
		c0,0.1,0.1,0.1,0.2,0.1s0.2,0,0.3,0c0,0,0.1,0,0.1,0.1c0,0,0,0.1,0,0.1h0.4c0.1,0.1,0.2,0.2,0.4,0.2v0.1c0,0,0,0,0.1,0v0.1
		c0.1,0,0.2,0.1,0.2,0.3c0.1,0.1,0.2,0.1,0.2,0.1c0,0,0,0.1,0,0.1c0,0.1,0,0.1,0,0.1c0,0,0,0.1,0.1,0.1c0,0.1,0.1,0.1,0.1,0.1
		c0,0.1,0.1,0.1,0.2,0.1c0,0.1,0,0.1-0.1,0.2c0,0.1,0,0.1,0.1,0.2s0.1,0.1,0.1,0.1c-0.1,0.1-0.1,0.2-0.1,0.3c0,0,0.1,0.1,0.2,0.1
		c-0.1,0.2-0.1,0.2-0.1,0.3c0,0,0,0.1,0,0.1c0,0,0.1,0,0.1,0c0,0.1,0,0.2,0.1,0.2c0,0,0,0,0,0.1c0,0,0.1,0,0.1,0c0,0,0,0,0,0
		c0,0,0,0.1,0,0.3c0,0.2,0,0.2,0.1,0.2c0,0,0.1,0,0.1,0c0,0,0,0.1,0,0.2c-0.1,0.1-0.1,0.1-0.1,0.2c0,0.1,0,0.1,0.1,0.1
		c0,0.1,0,0.2,0,0.2c0.1,0,0.1,0,0.2,0c0,0,0,0,0,0c0,0-0.1,0-0.1,0.1s0,0.1,0,0.1c0,0.1,0,0.1,0,0.2s0,0,0.1,0.1c0,0,0.1,0,0.1,0.1
		c0,0,0,0.1,0,0.1c0,0.1,0,0.1,0,0.1c0,0,0,0.1,0.1,0.1c0,0,0,0,0.1,0.1c0,0,0,0,0,0.1c0,0.1,0,0.1,0,0.1c0,0,0,0.1,0.1,0.1
		c0.1,0.1,0.1,0.1,0.1,0.2v0.1c0,0,0,0.1,0.1,0.1c0,0.1,0.1,0.2,0.2,0.4c0,0.1,0,0.2,0,0.3c0.1,0.1,0.1,0.2,0.1,0.2
		c0.1,0,0.1,0.1,0.1,0.3l0,0.1c0,0.1,0,0.1,0,0.2c0,0,0.1,0,0.2,0c0,0.1,0,0.1,0,0.2c0,0.1,0,0.1,0,0.1c0,0.1,0.1,0.1,0.2,0.1
		c0,0,0,0.1,0,0.1s0,0.1,0,0.1c0,0,0,0,0,0c0,0,0.1,0,0.1,0c0,0.1,0,0.2-0.1,0.3c0,0.1,0,0.2,0,0.3c0.1,0,0.1,0,0.2-0.1
		c0-0.2,0-0.4,0.1-0.4c0-0.1,0-0.2,0-0.2h0.1c0.1,0,0.1-0.1,0.1-0.2c0-0.1,0-0.2,0-0.2c0,0,0,0,0,0c0,0,0.1,0,0.1,0c0,0,0-0.1,0-0.2
		c0,0,0.1,0,0.1,0c0,0,0.1-0.1,0.1-0.1C54,51.1,54,51,54.1,51c0,0,0-0.1,0-0.2c0.3-0.3,0.4-0.6,0.4-0.9c0.1-0.1,0.1-0.1,0.1-0.1
		c0-0.1,0-0.1,0-0.2c0-0.1,0-0.1,0-0.2c0.1,0,0.2-0.2,0.2-0.5c0.2-0.3,0.3-0.5,0.3-0.7c0.1-0.1,0.1-0.1,0.1-0.1
		c0.1-0.1,0.1-0.2,0.1-0.3c0,0,0.1,0,0.1-0.1c0.1-0.1,0.1-0.1,0.2-0.2c0,0,0-0.1,0-0.1c0,0,0.1-0.1,0.1-0.1s0-0.1,0-0.1
		c0-0.1,0-0.1,0.1-0.2c0,0,0-0.1,0-0.1c0,0-0.1,0-0.1,0c-0.1-0.1-0.1-0.2,0-0.3c0,0,0.1,0,0.2,0c0-0.1,0-0.1,0-0.2c0,0,0.1,0,0.1,0
		c0,0,0.1-0.1,0.1-0.1v-0.2c0,0,0-0.1,0.1-0.1c0,0,0.1-0.1,0.1-0.1c0,0,0-0.1,0-0.2c0,0,0-0.1,0.1-0.1c0.1-0.1,0.1-0.1,0.1-0.1
		c0,0,0,0,0-0.1c0,0,0,0,0-0.1c0.2-0.2,0.3-0.4,0.4-0.4c0.1,0,0.1-0.1,0.2-0.3c0,0,0.1,0,0.1,0.1c0.1,0,0.1-0.1,0.1-0.2
		c0.1-0.1,0.2,0,0.3,0c0,0,0.1-0.1,0.1-0.2c0,0,0.1,0,0.1,0c0.1,0,0.1,0,0.1,0c0,0,0.1,0.1,0.2,0.3c0,0,0,0,0-0.1v0c0,0,0,0,0.1,0
		c0,0.1,0,0.2,0.1,0.2c0.1-0.1,0.2-0.1,0.3-0.1c0,0.1,0.1,0.2,0.1,0.2c-0.1,0.1-0.1,0.2,0,0.3c0.1,0.1,0.2,0.1,0.3,0
		c0,0,0,0.1,0,0.1s0,0.1,0,0.1c0,0,0.1,0.1,0.1,0.2c0,0.1,0.1,0.1,0.1,0.2c0.1,0.2,0.1,0.3,0.1,0.3c0.1,0.1,0.1,0.1,0.1,0.1
		c0,0,0,0.1,0,0.1c0,0.1,0,0.1,0,0.1c0,0,0,0,0,0c0,0,0.1,0,0.1,0c0,0,0,0.1,0,0.1c0,0.1,0,0.1,0,0.1c0,0,0,0.1,0,0.1
		c0,0,0,0.1,0,0.1s0,0.1,0.1,0.1c0,0,0.1,0.1,0.1,0.1c0,0,0,0.1,0.1,0.2c0,0.1,0,0.1,0.1,0.1c0,0.2,0,0.3,0.1,0.4
		c0,0.2,0.1,0.4,0.2,0.5c0,0,0,0.1,0.1,0.2c0.1,0.1,0.1,0.2,0.1,0.3c0.1,0,0.1,0.1,0.1,0.2c0,0.1,0,0.2,0.1,0.2c0,0.1,0,0.2,0.2,0.3
		v0.1c0.1,0.1,0.2,0.2,0.2,0.3c-0.1,0.1,0,0.2,0.1,0.2c0,0.1,0.1,0.1,0.1,0.1c0,0.1,0,0.1,0,0.1c0,0,0,0.1,0.1,0.1
		c0.1,0.1,0.1,0.1,0.1,0.1s0,0.1,0,0.1c0,0,0,0.1,0,0.1c0,0,0.1,0.1,0.2,0.1c0,0.1,0,0.1,0.1,0.2c0,0.1,0,0.1,0.1,0.2
		c0.1,0.1,0.1,0.1,0.1,0.1c0,0,0,0.1,0,0.1c0,0,0,0,0,0.1s0,0,0.1,0.1c0,0,0.1,0.1,0.1,0.1c0,0.1,0,0.2,0.2,0.2c0,0,0,0.1,0,0.1
		s0,0.1,0,0.1h0.1v0.2c0,0,0.1,0,0.1,0c0,0,0,0.1,0,0.1v0c-0.1,0.1-0.1,0.2,0,0.4c0,0.1,0.1,0.2,0.4,0.5c0,0.1,0,0.2,0.1,0.2
		c0.1,0,0.1,0,0.1,0c0,0,0.1,0,0.1,0c0,0.1,0,0.1,0,0.2c0,0,0.1,0,0.1,0.1c0,0.2,0.1,0.3,0.3,0.5c0,0.2,0.1,0.2,0.2,0.1
		s0.1-0.2,0.1-0.4c0,0,0.1,0,0.1,0c0,0,0-0.1,0-0.2c0,0,0-0.1,0-0.1c0.2,0,0.2-0.1,0.2-0.3c0-0.1,0-0.2,0-0.3c0,0,0.1,0,0.1,0
		c0.1,0,0.1,0,0.1,0c0,0,0-0.1,0-0.1c0-0.1,0-0.1,0-0.1c-0.1-0.1-0.1-0.2-0.1-0.2c0.1,0,0.2,0,0.3-0.1c0.1-0.1,0.1-0.2,0.1-0.2v-0.1
		C63.9,52.3,63.9,52.2,63.9,52.2z M53.5,52.2C53.5,52.2,53.5,52.2,53.5,52.2C53.5,52.2,53.5,52.2,53.5,52.2
		C53.5,52.3,53.5,52.3,53.5,52.2C53.5,52.2,53.5,52.2,53.5,52.2z M53.5,52.2C53.5,52.2,53.5,52.2,53.5,52.2
		C53.5,52.3,53.5,52.3,53.5,52.2C53.5,52.2,53.5,52.2,53.5,52.2C53.5,52.2,53.5,52.2,53.5,52.2z M67.9,46.4
		C67.9,46.4,67.9,46.4,67.9,46.4C67.9,46.4,67.9,46.4,67.9,46.4L67.9,46.4z M67.9,46.4L67.9,46.4C67.9,46.4,67.9,46.4,67.9,46.4
		C67.9,46.4,67.9,46.4,67.9,46.4z"/>
	<path fill="#643282" d="M80.9,37.3c0,0,0.1,0,0.2,0c0,0.1,0,0.1,0,0.2c0.1,0,0.1,0,0.2,0c0.1,0,0.1,0,0.1,0l0,0.1c0,0,0.1,0,0.1,0
		c0,0,0.1,0,0.1,0c0.1,0,0.1,0,0.1,0c0,0,0.1,0,0.1,0.1c0,0,0,0,0.1,0.1c0,0,0,0,0.1,0c0,0,0,0.1,0,0.1c0,0,0.1,0,0.1,0
		c0.2-0.1,0.3-0.1,0.4,0l0.1,0.2c0.2,0,0.3,0.1,0.3,0.1c0.1,0.1,0.1,0.2,0.2,0.2c0.1,0.2,0.2,0.2,0.2,0.3c0,0,0,0.1,0,0.2
		c0,0,0,0.1,0,0.1c0,0.1,0,0.1,0,0.1c0,0,0,0.1,0.1,0.1c0,0,0.1,0.1,0.1,0.1c0,0-0.1,0-0.1,0.1s-0.1,0-0.1,0.1c0,0,0,0,0,0.1
		s0,0.1,0,0.1s0,0,0,0.1c0,0,0,0.1,0,0.1c0,0,0,0.1,0,0.1s0,0.1,0,0.1c0,0.1,0,0.1,0.1,0.2c0.1,0.1,0.1,0.1,0.1,0.1s0,0-0.1,0
		s-0.1,0-0.1,0c0,0,0,0.1,0,0.2c0,0,0,0,0.1,0c0,0,0,0,0.1,0c0,0.1,0,0.1-0.1,0.1c0,0,0,0,0,0c0,0.1,0,0.2,0,0.3c0,0,0,0.1,0,0.1
		c0,0.1,0,0.1,0,0.3c0,0.1,0,0.2,0.1,0.2c0,0,0,0,0,0.1c0,0,0,0,0,0.1c0,0.1,0,0.2,0,0.3c0,0.2,0,0.2,0,0.3c0,0.1,0,0.1,0,0.1
		c0,0,0,0.1,0,0.1c0,0.1,0,0.1,0,0.2c0,0.1,0,0.1,0,0.2c0,0,0.1,0.1,0.1,0.1c0,0.1,0,0.1-0.1,0.1c-0.1,0.1-0.1,0.2,0,0.3
		c0,0,0,0.1,0,0.2c0,0.1,0,0.2,0,0.2c0.1,0.2,0.1,0.3,0.1,0.4c0,0,0,0.1,0,0.1c0,0,0,0.1,0,0.1s0,0.1,0,0.1c0,0.1,0,0.1,0,0.1
		c0,0.1,0,0.1,0,0.2c0,0,0,0,0.1,0s0.1,0,0.1,0v0c0,0,0,0,0,0c0,0,0,0-0.1,0c0,0,0,0.1,0,0.1s0,0.1,0,0.1h0.1c0.1,0.1,0,0.2-0.1,0.3
		c0,0,0,0.1,0,0.3c0,0.2,0,0.3,0.1,0.3c-0.1,0.1-0.1,0.1-0.1,0.2c0,0.1,0.1,0.1,0.2,0.1c0,0.1,0,0.1,0,0.2c0,0-0.1,0-0.1,0
		c0,0.5,0.1,0.8,0.1,0.8c0,0,0,0.1,0,0.1c0,0.1,0,0.1,0,0.2c0,0,0,0.1,0,0.1c0,0,0.1,0.1,0.1,0.1c0,0.1,0,0.2,0,0.4
		c0,0.2,0,0.3,0,0.4c0,0,0.1,0,0.1,0c0,0.1,0,0.2,0,0.2c0,0.1,0,0.2,0,0.4c0,0.2,0,0.3,0,0.3l0,0.5c0,0.2,0,0.2,0.1,0.3
		c0,0,0,0,0,0.1c0,0-0.1,0-0.1,0.1l0.1,0.1c0,0,0,0.1-0.1,0.1c0.1,0.1,0.1,0.1,0.1,0.2c-0.1,0-0.2,0-0.2,0.1c0,0.1,0,0.1,0.1,0.1
		c0,0.1,0,0.1,0,0.3c0,0.3,0.1,0.4,0.1,0.4c0,0.5,0.1,0.8,0.2,0.9c0,0.3,0,0.5,0,0.5c0,0,0,0.1,0,0.1c0,0,0.1,0.1,0.1,0.1
		c0,0,0,0.1,0,0.2c0,0.1,0,0.2,0,0.2c0,0,0,0.1,0.1,0.1c0,0,0.1,0.1,0.1,0.1c0,0,0,0.1,0,0.1c0,0,0,0,0,0c0,0,0,0,0,0
		c-0.1,0.2,0,0.3,0.1,0.4c0,0.1,0,0.3,0.1,0.4s0.1,0.3,0.1,0.4c0.1,0.2,0.2,0.3,0.1,0.3c0,0.1,0,0.1,0.1,0.2
		c0.1,0.1,0.1,0.1,0.1,0.2c0,0.1,0,0.2,0,0.3s0,0.2,0,0.3c0,0,0.1,0.1,0.1,0.1c0,0,0,0.1,0,0.1c0,0-0.1,0.1-0.1,0.1
		c-0.1,0.1-0.2,0.3-0.2,0.4c0,0-0.1,0-0.2,0.1c-0.1,0-0.1,0-0.2,0c0,0,0,0.1-0.1,0.1c-0.1,0.1-0.1,0.1-0.1,0.2
		c-0.1,0.1-0.2,0.1-0.2,0.2c-0.1,0-0.1,0-0.2-0.1c-0.1,0-0.1,0.1-0.1,0.2c-0.2,0-0.3,0-0.3,0c-0.1-0.1-0.1-0.1-0.2-0.1
		c-0.1,0-0.1,0-0.2,0.1c-0.1,0-0.1,0.1-0.1,0.1s0,0,0,0c0,0,0-0.1,0-0.1c0,0,0-0.1-0.1-0.1s-0.1-0.1-0.1-0.1c-0.1,0-0.1-0.1-0.2-0.2
		s-0.1-0.1-0.2-0.2c0,0-0.1-0.1-0.1-0.1c-0.1,0-0.1-0.1-0.1-0.1c-0.1,0-0.1,0-0.1,0c0,0,0,0-0.1,0c0-0.2-0.1-0.3-0.1-0.3
		c0,0-0.1,0-0.1,0c0,0-0.1,0-0.1,0c0-0.1-0.1-0.2-0.2-0.2c-0.1-0.1-0.1-0.1-0.2-0.1c0,0,0-0.1-0.1-0.1c-0.1-0.1-0.1-0.1-0.1-0.1
		c-0.1,0-0.2-0.1-0.2-0.2s-0.2-0.1-0.3-0.1c0-0.1,0-0.1-0.1-0.2c-0.1,0-0.1-0.1-0.1-0.1c0,0.1-0.1,0.1-0.1,0.1
		c-0.1,0-0.1-0.1-0.1-0.2h-0.1c-0.1-0.1-0.3-0.2-0.7-0.4c-0.1-0.1-0.2-0.2-0.4-0.3c-0.1,0-0.2-0.1-0.2-0.1c0,0-0.1,0-0.1,0
		c0,0-0.1,0-0.1,0v-0.1c-0.1-0.1-0.2-0.2-0.5-0.4s-0.4-0.3-0.5-0.3c0,0-0.1,0-0.1,0c0,0-0.1,0-0.1,0c0,0,0,0,0-0.1
		c-0.3-0.2-0.4-0.3-0.5-0.3c0,0,0-0.1-0.1-0.1c-0.1-0.1-0.1-0.1-0.2-0.1c-0.1,0.1-0.1,0.1-0.1,0v-0.1c0,0-0.1-0.1-0.1-0.1
		c-0.1,0-0.1-0.1-0.1-0.1c0,0-0.1,0-0.1,0c0,0-0.1,0-0.1,0c0-0.1-0.1-0.2-0.2-0.2l-0.1,0c0,0,0,0,0,0c0-0.1-0.1-0.1-0.1-0.1
		c0,0-0.1,0-0.1,0.1c0,0-0.1,0-0.1,0c0,0,0-0.1,0-0.1c0-0.1,0-0.1,0-0.1c0,0,0,0,0-0.1c0,0-0.1,0-0.1-0.1c0-0.1-0.1-0.1-0.2-0.2
		c-0.1-0.1-0.2-0.1-0.3-0.1c-0.1-0.1-0.2-0.2-0.4-0.2v-0.1c-0.2-0.2-0.4-0.4-0.4-0.4c-0.1,0-0.2-0.1-0.3-0.2c0,0,0-0.1-0.1-0.2
		c0,0,0,0-0.1,0c0,0,0,0-0.1,0c0,0,0-0.1,0-0.1c-0.1,0-0.2-0.1-0.3-0.2c-0.1-0.1-0.2-0.2-0.3-0.2c0,0,0,0.1,0,0.4V51
		c0,0.1-0.1,0.1-0.1,0.2c-0.1,0.2-0.1,0.3,0,0.4c0,0,0.1,0,0.1,0c0,0,0,0,0,0.1c-0.1,0-0.2,0.1-0.2,0.1c0,0,0,0.1,0,0.1
		c0,0.1,0,0.1,0,0.1c0,0,0,0.1,0,0.1c0,0.1,0,0.1-0.1,0.1c0,0.1,0,0.1,0,0.2c0,0.1,0,0.2,0,0.2c0,0,0,0.1,0,0.2c0,0.1,0,0.1,0,0.2
		c0,0.1,0,0.1,0,0.2c0,0,0,0.1,0,0.2s0,0.2,0,0.3c-0.1,0.1-0.1,0.1-0.1,0.1c0,0.1,0.1,0.1,0.2,0.2v0.1c0,0-0.1,0-0.1,0
		c-0.1,0.1,0,0.2,0,0.3c0,0.1,0,0.2,0,0.4s0,0.3,0,0.4c0,0.1,0,0.2,0,0.2c0,0.1,0,0.1,0,0.2c0,0.1,0,0.1,0,0.2
		c-0.1,0.2-0.1,0.2,0,0.2c0,0,0.1,0,0.1,0c0,0.1,0,0.1,0,0.1c0,0,0,0,0,0.1s0,0.1,0,0.1c0,0,0,0.1-0.1,0.1c0,0,0,0.1,0.1,0.2v0.8
		c0,0,0,0.1,0,0.4c0,0,0,0.1,0,0.1c0,0,0,0.1,0.1,0.1c0.1,0.1,0.1,0.1,0,0.2l-0.1,0.1c0,0.1,0,0.1-0.1,0.2s-0.1,0.2-0.1,0.2
		c0,0,0,0.1,0.1,0.1c0,0,0,0.1,0,0.1c0,0,0,0-0.1,0c0,0,0,0-0.1,0.1c0,0.1,0,0.1-0.1,0.1c-0.1-0.2-0.2-0.2-0.3-0.2v0.2
		c0,0,0,0-0.1,0.1c-0.1,0-0.1,0-0.1,0c0,0,0,0-0.1,0c-0.1,0.1-0.1,0.1-0.2,0c-0.4,0.1-0.7,0.1-0.8,0c0,0-0.1-0.1-0.1-0.1
		c0,0-0.1-0.1-0.1-0.1c-0.1,0-0.1,0-0.1,0c0,0-0.1-0.1-0.2-0.2s-0.2-0.2-0.2-0.3c0,0-0.1-0.1-0.4-0.3c0-0.1,0-0.1,0-0.2l0-0.1l0-0.2
		c0,0,0-0.1,0-0.1c0,0,0-0.1,0-0.1c0-0.1-0.1-0.1-0.1-0.1l-0.1,0l0.1-0.1c0.1-0.1,0.1-0.3,0.1-0.5c0,0,0-0.1,0-0.1
		c0-0.1,0-0.1,0-0.2c0-0.1,0-0.1,0-0.2s0-0.1,0-0.1c0,0-0.1-0.1-0.1-0.1c0-0.2,0-0.3,0-0.4c0-0.1,0-0.1,0-0.3s0-0.2,0-0.3
		c0,0,0-0.1,0-0.1c0,0,0,0,0.1,0c0,0,0-0.1-0.1-0.2s0-0.1,0-0.2c0,0,0,0,0-0.1c0,0,0,0-0.1-0.1c0,0,0-0.1,0-0.1c0-0.1,0-0.1,0-0.1
		c0,0,0,0,0-0.1c0,0,0,0,0-0.1c0,0,0,0,0.1,0c0.1-0.2,0-0.3-0.1-0.5c0,0,0.1,0,0.1,0c0-0.1,0-0.2,0-0.4c0-0.2,0-0.4,0.1-0.4
		c-0.1,0-0.1-0.1-0.1-0.2c0-0.1,0-0.2,0-0.2c0,0,0-0.1,0-0.1c0-0.1,0-0.1,0-0.1c0-0.1,0-0.1,0-0.1c0-0.1,0-0.2,0-0.4
		c-0.1-0.2,0-0.3,0-0.4c0,0-0.1-0.1-0.1-0.1c0,0,0-0.1,0-0.1c0,0,0-0.1,0.1-0.2c0.1-0.2,0.1-0.3,0-0.4c-0.1-0.1-0.1-0.1-0.1-0.2
		c0-0.1,0-0.1,0-0.2c0,0,0-0.1,0-0.2c0-0.1,0-0.2,0-0.3c0,0-0.1-0.1-0.1-0.1c0-0.1,0-0.2,0-0.3c0.1-0.1,0.1-0.2,0.1-0.3
		c0,0-0.1-0.1-0.1-0.2c-0.1-0.1-0.1-0.2,0-0.3c0,0,0-0.1,0-0.1c0,0,0-0.1,0-0.1c0,0,0-0.1,0-0.1c0-0.1,0-0.1,0-0.1
		c0,0-0.1,0-0.1-0.1c0,0-0.1,0-0.1-0.1l0.1,0c0-0.1,0-0.1,0-0.2c0-0.1,0-0.1,0-0.2l0-0.1c0-0.2-0.1-0.2-0.1-0.3c0,0,0.1,0,0.1,0
		c0,0,0-0.1,0-0.1s0-0.1,0-0.1c0,0,0-0.1,0-0.1c0-0.1,0-0.2,0-0.4c0-0.2,0-0.3-0.1-0.4c0.1-0.1,0.1-0.2-0.1-0.4c0,0,0,0,0-0.1
		c0,0,0,0,0-0.1c0,0-0.1-0.1-0.1-0.1C70,46,70,46,70,46c0-0.2,0-0.3-0.1-0.4c0-0.1,0-0.2,0-0.3c0-0.1,0-0.2,0-0.3
		c0.1-0.1,0.1-0.1,0.1-0.1c0-0.1,0-0.1,0-0.2c0,0,0,0,0-0.1c0-0.1,0-0.1,0-0.1c0.1-0.1,0.2-0.2,0.2-0.3c0.1-0.3,0.2-0.5,0.5-0.6
		c0.1-0.1,0.2-0.2,0.2-0.2c0,0,0.1-0.1,0.3-0.1c0,0,0.1,0,0.1-0.1c0.1-0.1,0.1-0.1,0.1-0.1c0,0,0.1,0,0.1,0c0,0,0.1,0,0.1,0
		c0,0,0.1,0,0.1-0.1c0,0,0.1,0,0.1,0c0,0.2,0.1,0.3,0.3,0.3c0.2,0,0.3,0,0.4,0c0,0,0,0,0,0c0,0,0,0,0,0.1c0.1,0,0.2,0,0.3,0.1
		c0.1,0.1,0.1,0.1,0.2,0.1c0,0,0,0.1,0,0.1c0.1,0,0.2,0.2,0.3,0.4c0,0.1,0.1,0.2,0.1,0.3c0.1,0,0.1,0,0.1,0c0,0,0,0,0,0.1
		c0,0-0.1,0-0.1,0.1c0,0.2,0.1,0.3,0.2,0.4c0,0,0,0.1,0,0.1c0,0,0,0.1,0,0.1c0,0,0,0.1,0.1,0.1s0.1,0.1,0.1,0.1c0,0.1,0,0.1,0,0.1
		c0,0,0,0,0.1,0.1c0,0,0,0.1,0,0.1v0.1c0,0,0.1,0.1,0.1,0.1c0,0,0.1,0.1,0.1,0.1c0,0,0,0,0,0c0,0,0,0.1,0,0.1c0,0,0.1,0,0.1,0
		c0,0.1,0,0.1,0,0.2c0,0.1,0.1,0.2,0.2,0.2c0,0.1,0.1,0.3,0.3,0.5c0,0.1,0.1,0.3,0.3,0.4c0,0.1,0,0.1,0,0.2c0.1,0.1,0.2,0.2,0.4,0.4
		c0.1,0.1,0.2,0.1,0.3,0.3c0.1,0.1,0.2,0.2,0.3,0.3c0.1,0.2,0.3,0.4,0.7,0.6l0,0.1c0,0.1,0.1,0.1,0.2,0.2c0.1,0.1,0.2,0.1,0.2,0.2
		c0.1,0,0.1,0,0.2,0c0,0,0,0,0,0.1c0,0,0,0,0,0.1c0,0.1,0.1,0.1,0.2,0.1c0.1,0.2,0.3,0.3,0.4,0.3c0.1,0.1,0.1,0.2,0.2,0.2
		c0.3,0.3,0.5,0.5,0.7,0.6c0,0,0,0,0,0.1c0,0,0.1,0,0.1,0.1h0h0c0.1,0.1,0.1,0.1,0.3,0.2c0.1,0.1,0.2,0.2,0.3,0.2
		c0.1,0,0.1,0,0.2,0.1c0.1,0.1,0.1,0.1,0.2,0.1c0,0,0,0,0,0c0,0,0,0,0.1,0c0,0,0,0,0.1,0.1c0,0,0,0.1,0.1,0.1c0,0,0,0,0,0
		c0,0,0,0,0.1,0c0,0,0.1,0,0.2,0.1c0.1,0,0.1,0,0.2,0.1c0,0.1,0.1,0.1,0.1,0.1c0,0,0,0,0.1,0c0,0,0,0,0.1,0c0,0.1,0.1,0.1,0.1,0.2
		c0,0,0,0,0.1,0c0,0,0,0,0.1,0c0.1,0.1,0.1,0.1,0.3,0.2c0.1,0.1,0.2,0.1,0.3,0.2c0.1,0,0.1,0,0.1,0c0,0,0,0.1,0.1,0.1
		c0.1,0.1,0.1,0.1,0.1,0.1c0,0,0.1,0.1,0.2,0.2c0.1,0,0.1-0.1,0.1-0.2c0-0.1-0.1-0.2-0.1-0.2c0.1-0.1,0.1-0.2,0-0.3
		c0-0.1,0-0.1,0-0.2c0-0.1,0-0.2,0-0.2c0,0-0.1-0.1-0.1-0.1c-0.1-0.1-0.1-0.2,0-0.3c-0.1-0.2,0-0.3,0.1-0.4c0,0,0-0.1,0-0.2
		c0-0.1,0-0.1,0-0.2c0,0,0-0.1,0-0.1c0-0.1,0-0.1,0-0.1c0-0.1,0-0.1,0-0.2c0-0.1,0-0.2,0-0.2c-0.1-0.1-0.1-0.2,0-0.3
		c0,0-0.1,0-0.1-0.1c0,0,0,0,0-0.1c0.1-0.1,0.1-0.2,0.1-0.2c0,0-0.1,0-0.1,0c0,0-0.1,0-0.1,0c-0.2-0.1-0.1-0.2,0.2-0.4
		c0,0,0-0.2,0-0.4c0,0,0,0-0.1,0c0,0,0,0.1-0.1,0.1c0,0,0-0.1-0.1-0.2c0-0.1,0-0.2-0.1-0.2c0,0,0-0.1,0-0.3c0-0.2,0-0.2,0-0.2
		c0,0,0,0,0,0c0,0,0,0,0.1,0c0.1,0,0.1,0,0.1-0.1c0-0.1,0-0.1,0-0.1c0,0-0.1,0-0.1,0.1c0,0-0.1,0.1-0.1,0.1c0,0,0-0.1,0-0.2
		c0.1,0,0.2-0.1,0.2-0.1c0.1-0.1,0-0.2-0.1-0.3c0,0,0,0,0-0.1c0,0,0,0,0-0.1c-0.1-0.1-0.1-0.2-0.2-0.3c0,0,0-0.1,0.1-0.1
		c0,0,0.1-0.1,0.1-0.1l0-0.1c0-0.1,0-0.3,0.1-0.4c0,0,0-0.1,0-0.2s0-0.1,0-0.2c0,0-0.1-0.1-0.1-0.1c0-0.1-0.1-0.1-0.1-0.1
		c0-0.2,0-0.2,0-0.3c-0.1,0-0.1,0-0.1,0c0,0,0-0.1,0-0.1S81,44.9,81,44.9c0.1,0,0.1,0,0.2,0l0-0.3c0,0,0-0.1,0-0.1c0,0,0,0,0,0
		c0,0,0-0.1,0-0.1c0-0.1,0-0.1,0-0.1c0,0,0,0,0-0.1c0-0.1,0-0.1,0-0.1c0,0,0-0.1,0-0.1c0-0.1,0-0.1,0-0.1c0,0,0-0.1,0.1-0.1
		c0-0.1-0.1-0.1-0.1-0.1c-0.1,0-0.1-0.1-0.1-0.1s0-0.1,0.1-0.1c0.1-0.1,0.1-0.1,0.1-0.1c-0.1-0.2-0.1-0.3,0-0.4c0,0,0-0.1,0-0.2
		c0-0.1-0.1-0.1-0.2-0.2c-0.2-0.1-0.2-0.3-0.2-0.4c0,0,0.1,0,0.1,0c0,0,0.1,0,0.1,0c0-0.1,0-0.1-0.1-0.1c0,0,0-0.1,0.1-0.2
		c-0.1-0.1-0.1-0.2-0.2-0.2c0,0,0,0-0.1,0c0,0,0,0-0.1,0c-0.1,0-0.1-0.1,0-0.2c0-0.1,0-0.1,0-0.1c0,0-0.1,0-0.1-0.1c0,0,0,0,0-0.1
		c-0.1-0.1-0.1-0.1,0-0.3c0.1-0.1,0.1-0.2,0.1-0.2c0,0-0.1-0.1-0.2-0.1c0,0,0-0.1,0.1-0.2c0-0.3,0-0.4,0-0.5c0-0.1,0.1-0.1,0.1-0.1
		c0,0,0-0.1,0-0.1c0,0,0-0.1,0-0.1s0,0,0-0.1c0,0,0,0,0-0.1c0-0.1,0-0.1,0-0.2c-0.1-0.2-0.1-0.3-0.2-0.4c0-0.1,0-0.2,0-0.4
		c0-0.2,0-0.3,0-0.4c0,0,0,0,0.1,0c0,0,0,0,0.1,0c0.1-0.1,0.1-0.2,0.2-0.2c0-0.1,0-0.2,0.2-0.4C80.9,37.4,80.9,37.4,80.9,37.3z
		 M81.1,37.4c0,0.1,0,0.1,0,0.2c0.1,0,0.1,0,0.2,0c0.1,0,0.1,0,0.1,0l0,0.1c0,0,0.1,0,0.1,0c0,0,0.1,0,0.1,0c0.1,0,0.1,0,0.1,0
		c0,0,0.1,0,0.1,0.1c0,0,0,0,0.1,0.1c0,0,0,0,0.1,0c0,0,0,0.1,0,0.1c0,0,0.1,0,0.1,0c0.2-0.1,0.3-0.1,0.4,0l0.1,0.2
		c0.2,0,0.3,0.1,0.3,0.1c0.1,0.1,0.1,0.2,0.2,0.2c0.1,0.2,0.2,0.2,0.2,0.3c0,0,0,0.1,0,0.2c0,0,0,0.1,0,0.1c0,0.1,0,0.1,0,0.1
		c0,0,0,0.1,0.1,0.1c0,0,0.1,0.1,0.1,0.1c0,0-0.1,0-0.1,0.1s-0.1,0-0.1,0.1c0,0,0,0,0,0.1s0,0.1,0,0.1s0,0,0,0.1c0,0,0,0.1,0,0.1
		c0,0,0,0.1,0,0.2c0,0.1,0,0.1,0.1,0.2c0.1,0.1,0.1,0.1,0.1,0.1s0,0-0.1,0s-0.1,0-0.1,0c0,0,0,0.1,0,0.2c0,0,0,0,0.1,0
		c0,0,0,0,0.1,0c0,0.1,0,0.1-0.1,0.1c0,0,0,0,0,0c0,0.1,0,0.2,0,0.3c0,0,0,0.1,0,0.1c0,0.1,0,0.1,0,0.3c0,0.1,0,0.2,0.1,0.2
		c0,0,0,0,0,0.1c0,0,0,0,0,0.1c0,0.1,0,0.2,0,0.3c0,0.2,0,0.3,0,0.3c0,0,0,0.1,0,0.1c0,0,0,0.1,0,0.1c0,0.1,0,0.1,0,0.2
		c0,0.1,0,0.1,0,0.2c0,0,0,0.1,0.1,0.1c0,0,0,0.1,0,0.1s0,0-0.1,0c-0.1,0.1-0.1,0.2,0,0.3c0,0,0,0.1,0,0.2c0,0.1,0,0.2,0,0.2
		c0.1,0.2,0.1,0.3,0.1,0.4c0,0,0,0.1,0,0.1c0,0,0,0.1,0,0.1s0,0.1,0,0.1c0,0.1,0,0.1,0,0.1c0,0.1,0,0.1,0,0.2c0,0,0,0,0.1,0
		s0.1,0,0.1,0v0c0,0,0,0,0,0c0,0,0,0-0.1,0c0,0,0,0.1,0,0.1s0,0.1,0,0.1h0.1c0.1,0.1,0,0.2-0.1,0.3c0,0,0,0.1,0,0.3
		c0,0.2,0,0.3,0.1,0.3c-0.1,0.1-0.1,0.1-0.1,0.2c0,0.1,0.1,0.1,0.2,0.1c0,0.1,0,0.1,0,0.2c0,0-0.1,0-0.1,0c0,0.5,0.1,0.8,0.1,0.8
		c0,0,0,0.1,0,0.1c0,0.1,0,0.1,0,0.2c0,0,0,0.1,0,0.1c0,0,0.1,0.1,0.1,0.1c0,0.1,0,0.2,0,0.4c0,0.2,0,0.3,0,0.4c0,0,0.1,0,0.1,0
		c0,0.1,0,0.2,0,0.2c0,0.1,0,0.2,0,0.4c0,0.2,0,0.3,0,0.3l0,0.5c0,0.2,0,0.2,0.1,0.3c0,0,0,0,0,0.1c0,0-0.1,0-0.1,0.1l0.1,0.1
		c0,0,0,0.1-0.1,0.1c0.1,0.1,0.1,0.1,0.1,0.2c-0.1,0-0.2,0-0.2,0.1c0,0.1,0,0.1,0.1,0.1c0,0.1,0,0.1,0,0.3c0,0.3,0.1,0.4,0.1,0.4
		c0,0.5,0.1,0.8,0.2,0.9c0,0.3,0,0.5,0,0.5c0,0,0,0.1,0,0.1c0,0,0.1,0.1,0.1,0.1c0,0,0,0.1,0,0.2c0,0.1,0,0.2,0,0.2
		c0,0,0,0.1,0.1,0.1c0,0,0.1,0.1,0.1,0.1c0,0,0,0.1,0,0.1c0,0,0,0,0,0c0,0,0,0,0,0c-0.1,0.2,0,0.3,0.1,0.4c0,0.1,0,0.3,0.1,0.4
		s0.1,0.3,0.1,0.4c0.1,0.2,0.2,0.3,0.1,0.3c0,0.1,0,0.1,0.1,0.2c0.1,0.1,0.1,0.1,0.1,0.2c0,0.1,0,0.2,0,0.3s0,0.2,0,0.3
		c0,0,0.1,0.1,0.1,0.1c0,0,0,0.1,0,0.1c0,0-0.1,0.1-0.1,0.1c-0.1,0.1-0.2,0.3-0.2,0.4c0,0-0.1,0-0.2,0.1c-0.1,0-0.1,0-0.2,0
		c0,0,0,0.1-0.1,0.1c-0.1,0.1-0.1,0.1-0.1,0.2c-0.1,0.1-0.2,0.1-0.2,0.2c-0.1,0-0.1,0-0.2-0.1c-0.1,0-0.1,0.1-0.1,0.2
		c-0.2,0-0.3,0-0.3,0c-0.1-0.1-0.1-0.1-0.2-0.1c-0.1,0-0.1,0-0.2,0.1c-0.1,0-0.1,0.1-0.1,0.1s0,0,0,0c0,0,0-0.1,0-0.1
		c0,0,0-0.1-0.1-0.1s-0.1-0.1-0.1-0.1c-0.1,0-0.1-0.1-0.2-0.2s-0.1-0.1-0.2-0.2c0,0-0.1-0.1-0.1-0.1c-0.1,0-0.1-0.1-0.1-0.1
		c-0.1,0-0.1,0-0.1,0c0,0,0,0-0.1,0c0-0.2-0.1-0.3-0.1-0.3c0,0-0.1,0-0.1,0c0,0-0.1,0-0.1,0c0-0.1-0.1-0.2-0.2-0.2
		c-0.1-0.1-0.1-0.1-0.2-0.1c0,0,0-0.1-0.1-0.1c-0.1-0.1-0.1-0.1-0.1-0.1c-0.1,0-0.2-0.1-0.2-0.2s-0.2-0.1-0.3-0.1
		c0-0.1,0-0.1-0.1-0.2c-0.1-0.1-0.1-0.1-0.1-0.1c0,0.1-0.1,0.1-0.1,0.1c-0.1,0-0.1-0.1-0.1-0.2h-0.1c-0.1-0.1-0.3-0.2-0.7-0.4
		c-0.1-0.1-0.2-0.2-0.4-0.3c-0.1,0-0.2-0.1-0.2-0.1c0,0-0.1,0-0.1,0c0,0-0.1,0-0.1,0v-0.1c-0.1-0.1-0.2-0.2-0.5-0.4
		s-0.4-0.3-0.5-0.3c0,0-0.1,0-0.1,0c0,0-0.1,0-0.1,0c0,0,0,0,0-0.1c-0.3-0.2-0.4-0.3-0.5-0.3c0,0,0-0.1-0.1-0.1
		c-0.1-0.1-0.1-0.1-0.2-0.1c-0.1,0.1-0.1,0.1-0.1,0v-0.1c0,0-0.1-0.1-0.1-0.1c-0.1,0-0.1-0.1-0.1-0.1c0,0-0.1,0-0.1,0
		c0,0-0.1,0-0.1,0c0-0.1-0.1-0.2-0.2-0.2c-0.1,0-0.1,0-0.1,0c0,0,0,0,0-0.1c0,0,0-0.1-0.1-0.1c0,0-0.1,0-0.1,0.1c0,0-0.1,0-0.1,0
		c0,0,0-0.1,0-0.1c0-0.1,0-0.1,0-0.1c0,0,0,0,0-0.1c0,0-0.1,0-0.1-0.1c0-0.1-0.1-0.1-0.2-0.2c-0.1-0.1-0.2-0.1-0.3-0.1
		c-0.1-0.1-0.2-0.2-0.4-0.2v-0.1c-0.2-0.2-0.4-0.4-0.4-0.4c-0.1,0-0.2-0.1-0.3-0.2c0,0,0-0.1-0.1-0.2c0,0,0,0-0.1,0c0,0,0,0-0.1,0
		c0,0,0-0.1,0-0.1c-0.1,0-0.2-0.1-0.3-0.2c-0.1-0.1-0.2-0.2-0.3-0.2c0,0,0,0.1,0,0.4V51c0,0.1-0.1,0.1-0.1,0.2
		c-0.1,0.2-0.1,0.3,0,0.4c0,0,0.1,0,0.1,0c0,0,0,0,0,0.1c-0.1,0-0.2,0.1-0.2,0.1c0,0,0,0.1,0,0.1c0,0.1,0,0.1,0,0.1c0,0,0,0.1,0,0.1
		c0,0.1,0,0.1-0.1,0.1c0,0.1,0,0.1,0,0.2c0,0.1,0,0.2,0,0.2c0,0,0,0.1,0,0.2c0,0.1,0,0.1,0,0.2c0,0.1,0,0.1,0,0.2c0,0,0,0.1,0,0.2
		s0,0.2,0,0.3c-0.1,0.1-0.1,0.1-0.1,0.1c0,0.1,0.1,0.1,0.2,0.2v0.1c0,0-0.1,0-0.1,0c-0.1,0.1,0,0.2,0,0.3c0,0.1,0,0.2,0,0.4
		s0,0.3,0,0.4c0,0.1,0,0.2,0,0.2c0,0.1,0,0.1,0,0.2c0,0.1,0,0.1,0,0.2c-0.1,0.2-0.1,0.2,0,0.2c0,0,0.1,0,0.1,0c0,0.1,0,0.1-0.1,0.1
		c0,0,0,0,0,0.1c0,0,0,0.1,0,0.1c0,0,0,0.1-0.1,0.1c0,0,0,0.1,0.1,0.2v0.8c0,0,0,0.1,0,0.4c0,0,0,0.1,0,0.1c0,0,0,0.1,0.1,0.1
		c0.1,0.1,0.1,0.1,0,0.2l-0.1,0.1c0,0.1,0,0.1-0.1,0.2s-0.1,0.2-0.1,0.2c0,0,0,0.1,0.1,0.1c0,0,0,0.1,0,0.1c0,0,0,0-0.1,0
		c0,0,0,0-0.1,0.1c0,0.1,0,0.1-0.1,0.1c-0.1-0.2-0.2-0.2-0.3-0.2v0.2c0,0,0,0-0.1,0.1c-0.1,0-0.1,0-0.1,0c0,0,0,0-0.1,0
		c-0.1,0.1-0.1,0.1-0.2,0c-0.4,0.1-0.7,0.1-0.8,0c0,0-0.1-0.1-0.1-0.1c0,0-0.1-0.1-0.1-0.1c-0.1,0-0.1,0-0.1,0c0,0-0.1-0.1-0.2-0.2
		s-0.2-0.2-0.2-0.3c0,0-0.1-0.1-0.4-0.3c0-0.1,0-0.1,0-0.2l0-0.1l0-0.2c0,0,0-0.1,0-0.1c0,0,0-0.1,0-0.1c0-0.1-0.1-0.1-0.1-0.1
		l-0.1,0l0.1-0.1c0.1-0.1,0.1-0.3,0.1-0.5c0,0,0-0.1,0-0.1c0-0.1,0-0.1,0-0.2c0-0.1,0-0.1,0-0.2c0,0,0-0.1,0-0.1
		c0,0-0.1-0.1-0.1-0.1c0-0.2,0-0.3,0-0.4c0-0.1,0-0.1,0-0.3s0-0.2,0-0.3c0,0,0-0.1,0-0.1c0,0,0,0,0.1,0c0,0,0-0.1-0.1-0.2
		s0-0.1,0-0.2c0,0,0,0,0-0.1c0,0,0,0-0.1-0.1c0,0,0-0.1,0-0.1c0-0.1,0-0.1,0-0.1c0,0,0,0,0-0.1c0,0,0,0,0-0.1c0,0,0,0,0.1,0
		c0.1-0.2,0-0.3-0.1-0.5c0,0,0.1,0,0.1,0c0-0.1,0-0.2,0-0.4c0-0.2,0-0.4,0.1-0.4c-0.1,0-0.1-0.1-0.1-0.2c0-0.1,0-0.2,0-0.2
		c0,0,0-0.1,0-0.1c0-0.1,0-0.1,0-0.1c0-0.1,0-0.1,0-0.1c0-0.1,0-0.2,0-0.4c-0.1-0.2-0.1-0.3,0-0.4c0,0,0-0.1,0-0.1c0,0,0-0.1,0-0.1
		c0,0,0-0.1,0.1-0.2c0.1-0.2,0.1-0.3,0-0.4c-0.1-0.1-0.1-0.1-0.1-0.2v-0.1c0-0.1,0-0.1,0-0.3c0-0.1,0-0.2,0-0.3c0,0-0.1-0.1-0.1-0.1
		c0-0.1,0-0.2,0-0.3c0.1-0.1,0.1-0.2,0.1-0.3c0,0-0.1-0.1-0.1-0.2c-0.1-0.1-0.1-0.2,0-0.3c0,0,0-0.1,0-0.1c0,0,0-0.1,0-0.1
		c0,0,0-0.1,0-0.1c0-0.1,0-0.1,0-0.1c0,0-0.1,0-0.1-0.1c0,0-0.1,0-0.1-0.1l0.1,0c0-0.1,0-0.1,0-0.2c0-0.1,0-0.1,0-0.2l0-0.1
		c0-0.2-0.1-0.2-0.1-0.3c0,0,0.1,0,0.1,0c0,0,0-0.1,0-0.1s0-0.1,0-0.1c0,0,0-0.1,0-0.1c0-0.1,0-0.2,0-0.4c0-0.2,0-0.3-0.1-0.4
		c0.1-0.1,0.1-0.2-0.1-0.4c0,0,0,0,0-0.1c0,0,0,0,0-0.1c0,0-0.1-0.1-0.1-0.1C70,46,70,46,70,46c0-0.2,0-0.3-0.1-0.4
		c0-0.1,0-0.2,0-0.3c0-0.1,0-0.2,0-0.3c0,0,0-0.1,0-0.1c0,0,0-0.1,0-0.1c0-0.1,0-0.1,0-0.2c0,0,0,0,0-0.1c0-0.1,0-0.1,0-0.1
		c0.1-0.1,0.2-0.2,0.2-0.3c0.1-0.3,0.2-0.5,0.5-0.6c0.1-0.1,0.2-0.2,0.2-0.2c0,0,0.1-0.1,0.3-0.1c0,0,0.1,0,0.1-0.1
		c0.1-0.1,0.1-0.1,0.1-0.1c0,0,0.1,0,0.1,0c0,0,0.1,0,0.1,0c0,0,0.1,0,0.1-0.1c0,0,0.1,0,0.1,0c0,0.2,0.1,0.3,0.3,0.3
		c0.2,0,0.3,0,0.4,0c0,0,0,0,0,0c0,0,0,0,0,0.1c0.1,0,0.2,0.1,0.3,0.1c0.1,0.1,0.1,0.1,0.2,0.1c0,0,0,0.1,0,0.1
		c0.1,0,0.2,0.2,0.3,0.4c0,0.1,0.1,0.2,0.1,0.3c0.1,0,0.1,0,0.1,0c0,0,0,0,0,0.1c0,0-0.1,0-0.1,0.1c0,0.2,0.1,0.3,0.2,0.4
		c0,0,0,0.1,0,0.1c0,0,0,0.1,0,0.1c0,0,0,0.1,0.1,0.1s0.1,0.1,0.1,0.1c0,0.1,0,0.1,0,0.1c0,0,0,0,0.1,0.1c0,0,0,0.1,0,0.1v0.1
		c0,0,0.1,0.1,0.1,0.1c0,0,0.1,0.1,0.1,0.1c0,0,0,0,0,0c0,0,0,0.1,0,0.1c0,0,0.1,0,0.1,0c0,0.1,0,0.1,0,0.2c0,0.1,0.1,0.2,0.2,0.2
		c0,0.1,0.1,0.3,0.3,0.5c0,0.1,0.1,0.3,0.3,0.4c0,0.1,0,0.1,0,0.2c0.1,0.1,0.2,0.2,0.4,0.4c0.1,0.1,0.2,0.1,0.3,0.3
		c0.1,0.1,0.2,0.2,0.3,0.3c0.1,0.2,0.3,0.4,0.7,0.6l0,0.1c0,0.1,0.1,0.1,0.2,0.2c0.1,0.1,0.2,0.1,0.2,0.2c0.1,0,0.1,0,0.2,0
		c0,0,0,0,0,0.1c0,0,0,0,0,0.1c0,0.1,0.1,0.1,0.2,0.1c0.1,0.2,0.3,0.3,0.4,0.3c0.1,0.1,0.1,0.2,0.2,0.2c0.3,0.3,0.5,0.5,0.7,0.6
		c0,0,0,0,0,0.1c0,0,0.1,0,0.1,0.1h0h0c0.1,0.1,0.1,0.1,0.3,0.2c0.1,0.1,0.2,0.2,0.3,0.2c0.1,0,0.1,0,0.2,0.1
		c0.1,0.1,0.1,0.1,0.2,0.1c0,0,0,0,0,0c0,0,0,0,0.1,0c0,0,0,0,0.1,0.1c0,0,0,0.1,0.1,0.1c0,0,0,0,0,0c0,0,0,0,0.1,0
		c0,0,0.1,0,0.2,0.1c0.1,0,0.1,0,0.2,0.1c0,0.1,0.1,0.1,0.1,0.1c0,0,0,0,0.1,0c0,0,0,0,0.1,0c0,0.1,0.1,0.1,0.1,0.2
		c0.1,0,0.1,0,0.1,0c0.1,0.1,0.1,0.1,0.3,0.2c0.1,0.1,0.2,0.1,0.3,0.2c0.1,0,0.1,0,0.1,0c0,0,0,0.1,0.1,0.1c0.1,0.1,0.1,0.1,0.1,0.1
		c0,0,0.1,0.1,0.2,0.2c0.1,0,0.1-0.1,0.1-0.2c0-0.1-0.1-0.2-0.1-0.2c0.1-0.1,0.1-0.2,0-0.3c0-0.1,0-0.1,0-0.2c0-0.1,0-0.2,0-0.2
		c0,0-0.1-0.1-0.1-0.1c-0.1-0.1-0.1-0.2,0-0.3c-0.1-0.2,0-0.3,0.1-0.4c-0.1,0-0.1-0.1,0-0.2c0-0.1,0-0.1,0-0.2c0,0,0-0.1,0-0.1
		c0-0.1,0-0.1,0-0.1c0-0.1,0-0.1,0-0.2c0-0.1,0-0.2,0-0.2c-0.1-0.1-0.1-0.2,0-0.3c0,0-0.1,0-0.1-0.1c0,0,0,0,0-0.1
		c0.1-0.1,0.1-0.2,0.1-0.2c0,0-0.1,0-0.1,0c0,0-0.1,0-0.1,0c-0.2-0.1-0.1-0.2,0.2-0.4c0,0,0-0.2,0-0.4c0,0,0,0-0.1,0
		c0,0,0,0.1-0.1,0.1c0,0,0-0.1-0.1-0.2c0-0.1,0-0.2-0.1-0.2c0,0,0-0.1,0-0.3c0-0.2,0-0.2,0-0.2c0,0,0,0,0,0c0,0,0,0,0.1,0
		c0.1,0,0.1,0,0.1-0.1c0-0.1,0-0.1,0-0.1c0,0-0.1,0-0.1,0.1c0,0-0.1,0.1-0.1,0.1c0,0,0-0.1,0-0.2c0.1,0,0.2-0.1,0.2-0.1
		c0.1-0.1,0-0.2-0.1-0.3c0,0,0,0,0-0.1c0,0,0,0,0-0.1c-0.1-0.1-0.1-0.2-0.2-0.3c0,0,0-0.1,0.1-0.1c0,0,0.1-0.1,0.1-0.1l0-0.1
		c0-0.1,0-0.3,0.1-0.4c0,0,0-0.1,0-0.2s0-0.1,0-0.2c0,0-0.1-0.1-0.1-0.1c0-0.1-0.1-0.1-0.1-0.1c0-0.2,0-0.2,0-0.3
		c-0.1,0-0.1,0-0.1,0c0,0,0-0.1,0-0.1S81,44.9,81,44.9c0.1,0,0.1,0,0.2,0l0-0.3c0,0,0-0.1,0-0.1c0,0,0,0,0,0c0,0,0-0.1,0-0.1
		c0-0.1,0-0.1,0-0.1c0,0,0,0,0-0.1c0-0.1,0-0.1,0-0.1c0,0,0-0.1,0-0.1c0,0,0-0.1,0-0.1s0-0.1,0.1-0.2c0-0.1-0.1-0.1-0.1-0.1
		c-0.1,0-0.1-0.1-0.1-0.1s0-0.1,0.1-0.1c0.1-0.1,0.1-0.1,0.1-0.1c-0.1-0.2-0.1-0.3,0-0.4c0,0,0-0.1,0-0.2c0-0.1-0.1-0.1-0.2-0.2
		c-0.2-0.1-0.2-0.3-0.2-0.4c0,0,0.1,0,0.1,0c0,0,0.1,0,0.1,0c0-0.1,0-0.1-0.1-0.1c0,0,0-0.1,0.1-0.2c-0.1-0.1-0.1-0.2-0.2-0.2
		c0,0,0,0-0.1,0c0,0,0,0-0.1,0c-0.1,0-0.1-0.1,0-0.2c0-0.1,0-0.1,0-0.1c0,0-0.1,0-0.1-0.1c0,0,0,0,0-0.1c-0.1-0.1-0.1-0.1,0-0.3
		c0.1-0.1,0.1-0.2,0.1-0.2c0,0-0.1-0.1-0.2-0.1c0,0,0-0.1,0.1-0.2c0-0.3,0-0.4,0-0.5c0-0.1,0.1-0.1,0.1-0.1c0,0,0-0.1,0-0.1
		c0,0,0-0.1,0-0.1s0,0,0-0.1c0,0,0,0,0-0.1c0-0.1,0-0.1,0-0.2c-0.1-0.2-0.1-0.3-0.2-0.4c0-0.1,0-0.2,0-0.4c0-0.2,0-0.3,0-0.4
		c0,0,0,0,0.1,0c0,0,0,0,0.1,0c0.1-0.1,0.1-0.2,0.2-0.2c0-0.1,0-0.2,0.2-0.4c0-0.1,0-0.1,0-0.2C80.9,37.3,81,37.3,81.1,37.4z
		 M77.7,53.5C77.7,53.5,77.7,53.5,77.7,53.5C77.7,53.5,77.7,53.5,77.7,53.5L77.7,53.5C77.6,53.5,77.6,53.5,77.7,53.5z M77.7,53.5
		C77.7,53.5,77.7,53.5,77.7,53.5L77.7,53.5C77.6,53.5,77.6,53.5,77.7,53.5C77.7,53.5,77.7,53.5,77.7,53.5z M80.9,42.9
		C80.9,42.9,80.9,42.9,80.9,42.9C80.9,43,80.9,43,80.9,42.9C80.8,43,80.8,42.9,80.9,42.9z M80.9,43C80.8,43,80.8,42.9,80.9,43
		C80.9,42.9,80.9,42.9,80.9,43C80.9,43,80.9,43,80.9,43z M81,42.6L81,42.6L81,42.6z M81,42.6L81,42.6L81,42.6z M81,42
		C81,42,81,42,81,42c0,0.1,0,0.1,0,0.1C81,42.1,81,42.1,81,42C81,42,81,42,81,42z M81,42.1C81,42.1,81,42.1,81,42.1
		c0-0.1,0-0.1,0-0.1C81,42,81,42,81,42.1C81,42.1,81,42.1,81,42.1z M81,45.1C81,45.2,81,45.2,81,45.1L81,45.1
		C81,45.1,81,45.1,81,45.1z M81,45.1C81,45.2,81,45.2,81,45.1L81,45.1C81,45.1,81,45.1,81,45.1z"/>
</g>
</svg>
