<?xml version="1.0" encoding="utf-8"?>
<!-- Generator: Adobe Illustrator 19.0.1, SVG Export Plug-In . SVG Version: 6.00 Build 0)  -->
<svg version="1.1" id="Layer_1" xmlns="http://www.w3.org/2000/svg" xmlns:xlink="http://www.w3.org/1999/xlink" x="0px" y="0px"
	 viewBox="0 0 100 100" enable-background="new 0 0 100 100" xml:space="preserve">
<g>
	<path fill="#643282" d="M13.4,41.1c0.1,0,0.2,0,0.2,0s0,0.1,0,0.2c0,0.1,0.1,0.1,0.2,0c0.1-0.1,0.1-0.1,0.1-0.2
		c0,0,0.1,0.1,0.2,0.1c0,0.1,0.1,0.1,0.2,0.1c0.2,0,0.3,0.1,0.5,0.2h0.1l0.1,0.1c0.1,0,0.2,0,0.3,0.1h0.1c0,0,0,0,0.1,0h0.1
		c0,0,0.1,0,0.2,0.1c0.1,0.1,0.2,0,0.2,0c0.1,0.1,0.2,0.1,0.3,0.1c0,0.1,0.1,0.1,0.2,0.1h0.1c0,0,0.1,0,0.1,0.1
		c0.1,0,0.1,0.1,0.2,0.1c0.3,0,0.5,0.1,0.5,0.1c0.1,0,0.2,0,0.3,0c0.2,0,0.3,0,0.3,0s0.1,0,0.1,0.1c0.1,0,0.1,0.1,0.1,0.1
		c0.1,0,0.2,0,0.3,0c0.1,0,0.2,0,0.3,0c0.1,0,0.2,0.1,0.2,0.2c0.1,0,0.2,0,0.2,0s0.1,0,0.2,0.1c0.1,0,0.1,0.1,0.2,0.1c0,0,0,0,0.1,0
		h0.1c0,0,0.1,0,0.2,0.1l0.1,0.1c0.1,0,0.2,0,0.3,0v0.1l0.1,0.1c0.4,0,0.6,0,0.7,0.1h0.2c0-0.1,0.1-0.1,0.1-0.1c0,0.1,0,0.1,0.1,0.2
		c0.1,0.1,0.1,0.1,0.2,0h0.1l0.1,0.1c0,0,0,0,0.1,0h0.1c0,0,0,0,0.1,0c0,0,0,0,0.1,0c0,0,0,0,0.1,0h0.1c0,0,0.1,0,0.1,0.1h0.1
		c0.1,0,0.1,0,0.2,0.1c0.2,0,0.3,0,0.4,0.2c0.1,0,0.2,0,0.2,0c0.1,0.1,0.1,0.1,0.2,0.1c0,0,0.1,0.1,0.2,0.1c0,0,0.1,0,0.3,0.1
		c0.1,0,0.2,0,0.2,0s0,0,0,0.1c0.1,0,0.2,0.1,0.3,0.2c0,0,0.2,0.1,0.5,0.2c0.1,0,0.2,0,0.2,0v0.1c0,0,0.1,0.1,0.3,0.1
		c0.2,0.2,0.2,0.3,0.2,0.3s0,0,0.1,0l0.1,0.1c0.1,0.1,0.1,0.1,0.1,0.1c0.1,0.1,0.2,0.2,0.2,0.2c0.1,0.1,0.2,0.1,0.2,0.2
		c0.1,0.1,0.2,0.2,0.2,0.3c0.1,0.1,0.1,0.2,0.2,0.2c0,0.1,0,0.1,0,0.1c0.2,0.2,0.4,0.4,0.5,0.6c0,0,0,0.1,0.1,0.1l0.1,0.1
		c0,0.1,0,0.2,0,0.2s0,0,0.1,0.1c0,0,0.1,0,0.1,0.1c0,0,0,0.1,0,0.2c0,0.1,0,0.1,0,0.2c0,0,0,0,0.1,0.1c0,0,0,0,0.1,0.1
		c0,0.1,0,0.2,0,0.4v0.1c0,0.1,0,0.1,0,0.1V49v0.1v0.1v0.1c0,0.1,0,0.2,0,0.4s0,0.4,0,0.5c-0.1,0.1-0.1,0.1-0.1,0.2
		c0,0.1-0.1,0.2-0.1,0.2s0,0,0,0.1c0,0,0,0,0,0.1c0,0,0,0.1,0,0.2s0,0.1,0,0.2c0,0,0,0.1-0.1,0.1c0,0.1,0,0.1,0,0.1v0.1v0.1
		c0,0,0,0-0.1,0.1c0,0,0,0.1-0.1,0.1v0.1c0,0.1,0,0.1,0,0.1c-0.1,0.1-0.1,0.1-0.1,0.1s0,0,0,0.1s0,0,0,0.1c0,0,0,0-0.1,0.1v0.1
		c-0.1,0.1-0.1,0.2-0.1,0.2c0,0.1-0.1,0.2-0.2,0.2c0,0.1,0,0.2-0.1,0.3v0.1c0,0.1-0.1,0.1-0.1,0.2c-0.1,0.2-0.2,0.3-0.1,0.5
		c0,0,0,0-0.1,0c0,0-0.1,0.1-0.3,0.3c0,0.1,0,0.1-0.1,0.2c-0.1,0.1-0.1,0.1-0.1,0.2C26.1,54.8,26,55,26,55.2c0,0-0.1,0.1-0.1,0.2
		c-0.1,0.1-0.1,0.1-0.1,0.2l0,0l0,0c-0.1,0.1-0.1,0.1-0.1,0.1v0.1c-0.2,0.2-0.3,0.3-0.3,0.4c0,0,0,0-0.1,0c0,0,0,0.1-0.1,0.2
		c-0.1,0.1-0.1,0.2-0.1,0.3c-0.1,0.1-0.2,0.2-0.2,0.3c-0.1,0.1-0.2,0.1-0.2,0.3s-0.7-1-0.7-1h-0.1c-0.1,0.1-0.2,0.2-0.2,0.3
		c-0.1,0.1-0.2,0.2-0.4,0.3c-0.1,0.2-0.3,0.3-0.4,0.3v0.1v0.1c-0.1,0.1-0.2,0.1-0.3,0.3c-0.1,0.1-0.1,0.1-0.2,0.1
		c-0.2,0.2-0.3,0.3-0.3,0.3c0,0.1,0,0.1,0,0.1c0,0.1-0.1,0.1-0.1,0.1s0,0-0.1,0.1c0,0.1-0.1,0.1-0.1,0.1s-0.1,0-0.1,0.1
		c-0.1,0-0.1,0.1-0.1,0.1v0.1c-0.1,0.1-0.1,0.2-0.2,0.2v0.1l0,0c0,0-0.1,0-0.1-0.1c-0.1,0-0.2,0.1-0.2,0.2C21,59.3,21,59.3,21,59.3
		s0,0,0,0.1c0,0,0,0,0,0.1h-0.1c0,0-0.1,0-0.1,0.1l0,0h-0.1c0,0-0.3,0.2-0.7,0.6c0,0.1,0,0.1-0.1,0.2h-0.1c0,0-0.1,0-0.1,0.1
		l-0.1,0.1c0,0-0.1,0.1-0.1,0.2c0,0.1-0.1,0.1-0.1,0.2c0,0.1,0,0.1,0,0.1h-0.1c0,0,0,0-0.1,0c0,0-0.1,0-0.2,0.1c0,0,0,0-0.1,0
		c0,0,0,0-0.1,0c0,0,0,0.1-0.1,0.1v0.1c-0.1,0-0.1,0-0.2,0c0,0,0-0.1-0.1-0.2l-0.1,0.1c0,0,0,0-0.1,0h-0.1c0-0.1,0-0.1-0.1-0.2
		c0-0.1,0-0.1,0-0.1c-0.1,0-0.2,0-0.3-0.1c-0.1-0.1-0.1-0.2-0.2-0.2s-0.1-0.1-0.2-0.1c0-0.1,0-0.1,0-0.2c0,0-0.1,0-0.2,0
		c-0.1-0.1-0.2-0.2-0.3-0.3c0,0,0-0.1,0-0.2s0-0.1,0-0.2c0-0.1,0-0.2,0-0.2l0.2-0.2v-0.1v-0.1c0,0,0,0,0.1,0l0,0l0,0c0,0,0,0,0-0.1
		l0.1-0.1c0-0.1-0.1-0.2-0.3-0.2v-0.1c0-0.1,0-0.1,0-0.1s0-0.1-0.1-0.1c0-0.1-0.1-0.1-0.1-0.2c0,0,0-0.1,0-0.2c0-0.1,0-0.1,0-0.1
		s0,0-0.1-0.1c0,0-0.1,0-0.1-0.1c0.1-0.1,0.1-0.2,0.1-0.3c0-0.2-0.1-0.3-0.1-0.3c0-0.1,0-0.2,0-0.4s0-0.3,0-0.4v-0.1v-0.1
		c0,0,0-0.1-0.1-0.1c0,0,0-0.1,0-0.2c0-0.1,0-0.1,0-0.2c0,0,0-0.1-0.1-0.1l-0.1-0.1v-0.1v-0.1c0-0.2,0-0.4,0-0.5v-0.1
		c0-0.1,0-0.1-0.1-0.1v-0.1v-0.1c0,0,0-0.1,0-0.2c0-0.1,0-0.2,0-0.2L16,53.8c0.1-0.3,0-0.5-0.1-0.6v-0.3c0,0,0,0,0-0.1
		c0,0,0,0,0-0.1v-0.1v-0.1c0-0.1-0.1-0.1-0.2-0.1c0-0.1,0-0.3,0-0.4c0,0,0,0,0.1,0c0.1-0.1,0.1-0.2,0-0.3c0-0.1-0.1-0.1-0.1-0.2
		c0,0,0-0.1,0-0.2c0-0.1,0-0.1,0-0.1s0-0.1-0.1-0.1L15.5,51c0-0.5,0-0.8,0-0.8c-0.1,0-0.2-0.2-0.2-0.3v-0.1c0,0,0-0.1,0-0.3
		s0-0.3,0-0.3v-0.1V49c0,0,0,0,0-0.1c0.1-0.1,0-0.2-0.1-0.2c0,0-0.1-0.1-0.1-0.3c0,0,0-0.1-0.1-0.1c0-0.1-0.1-0.1-0.1-0.1
		c0-0.2-0.1-0.2-0.1-0.3c0,0,0-0.2,0-0.4c0,0,0-0.1-0.1-0.1c0-0.1,0-0.2,0-0.3s0-0.2-0.2-0.2c0,0,0-0.1,0-0.2c0-0.1,0-0.2,0-0.2
		s-0.1-0.1-0.1-0.2c0-0.1-0.1-0.1-0.1-0.2c-0.1-0.3-0.1-0.4-0.2-0.4c0-0.2,0-0.2-0.2-0.2c0,0,0-0.1,0-0.2c0-0.1,0.1-0.1,0.1-0.2
		h-0.1V45c0-0.1,0-0.2-0.1-0.3c0,0,0-0.1-0.1-0.1v-0.1v-0.1v-0.1c0,0,0,0-0.1-0.1c0,0,0,0,0-0.1V44l-0.1-0.1l-0.1-0.1
		c-0.1,0-0.2-0.1-0.3-0.2h-0.3c-0.1-0.2-0.2-0.3-0.3-0.2l-0.1-0.1c0-0.1-0.1-0.1-0.1-0.1c0-0.1-0.1-0.2-0.3-0.3
		c0-0.2-0.1-0.3-0.3-0.4c0-0.1-0.1-0.2-0.1-0.2v-0.1v-0.1L11.5,42c0-0.1,0-0.3,0-0.4c0,0,0-0.1,0.1-0.1c0-0.1,0.1-0.1,0.1-0.1v-0.1
		v-0.1c0,0,0,0,0.1-0.1c0,0,0.1,0,0.1-0.1H12c0,0,0.2-0.1,0.4-0.1c0.1,0,0.2,0,0.2,0C13.4,41.2,13.4,41.2,13.4,41.1L13.4,41.1z
		 M13.7,41.1c0,0,0,0.1,0,0.2c0,0.1,0.1,0.1,0.2,0c0.1-0.1,0.1-0.1,0.1-0.2c0,0,0.1,0.1,0.2,0.1c0,0.1,0.1,0.1,0.2,0.1
		c0.2,0,0.3,0.1,0.5,0.2H15l0.1,0.1c0.1,0,0.2,0,0.3,0.1h0.1c0,0,0,0,0.1,0h0.1c0,0,0.1,0,0.2,0.1c0.1,0.1,0.2,0,0.2,0
		c0.1,0.1,0.2,0.1,0.3,0.1c0,0.1,0.1,0.1,0.2,0.1h0.1c0,0,0.1,0,0.1,0.1c0.1,0,0.1,0.1,0.2,0.1c0.3,0,0.5,0.1,0.5,0.1
		c0.1,0,0.2,0,0.3,0c0.2,0,0.3,0,0.3,0s0.1,0,0.1,0.1c0.1,0,0.1,0.1,0.1,0.1c0.1,0,0.2,0,0.3,0c0.1,0,0.2,0,0.3,0
		c0.1,0,0.2,0.1,0.2,0.2c0.1,0,0.2,0,0.2,0s0.1,0,0.2,0.1c0.1,0,0.1,0.1,0.2,0.1c0,0,0,0,0.1,0h0.1c0,0,0.1,0,0.2,0.1l0.1,0.1
		c0.1,0,0.2,0,0.3,0v0.1l0.1,0.1c0.4,0,0.6,0,0.7,0.1h0.2c0-0.1,0.1-0.1,0.1-0.1c0,0.1,0,0.1,0.1,0.2c0.1,0.1,0.1,0.1,0.2,0H22
		l0.1,0.1c0,0,0,0,0.1,0h0.1c0,0,0,0,0.1,0c0,0,0,0,0.1,0c0,0,0,0,0.1,0h0.1c0,0,0.1,0,0.1,0.1h0.1c0.1,0,0.1,0,0.2,0.1
		c0.2,0,0.3,0,0.4,0.2c0.1,0,0.2,0,0.2,0c0.1,0.1,0.1,0.1,0.2,0.1c0,0,0.1,0.1,0.2,0.1c0,0,0.1,0,0.3,0.1c0.1,0,0.2,0,0.2,0
		s0,0,0,0.1c0.1,0,0.2,0.1,0.3,0.2c0,0,0.2,0.1,0.5,0.2c0.1,0,0.2,0,0.2,0v0.1c0,0,0.1,0.1,0.3,0.1c0.2,0.2,0.2,0.3,0.2,0.3
		s0,0,0.1,0l0.1,0.1c0.1,0.1,0.1,0.1,0.1,0.1c0.1,0.1,0.2,0.2,0.2,0.2c0.1,0.1,0.2,0.1,0.2,0.2c0.1,0.1,0.2,0.2,0.2,0.3
		c0.1,0.1,0.1,0.2,0.2,0.2c0,0.1,0,0.1,0,0.1c0.2,0.2,0.4,0.4,0.5,0.6c0,0,0,0.1,0.1,0.1l0.1,0.1c0,0.1,0,0.2,0,0.2s0,0,0.1,0.1
		c0,0,0.1,0,0.1,0.1c0,0,0,0.1,0,0.2c0,0.1,0,0.1,0,0.2c0,0,0,0,0.1,0.1c0,0,0,0,0.1,0.1c0,0.1,0,0.2,0,0.4v0.1c0,0.1,0,0.1,0,0.1
		V49v0.1v0.1v0.1c0,0.1,0,0.2,0,0.4s0,0.4,0,0.5c-0.1,0.1-0.1,0.1-0.1,0.2c0,0.1-0.1,0.2-0.1,0.2s0,0,0,0.1c0,0,0,0,0,0.1
		c0,0,0,0.1,0,0.2s0,0.1,0,0.2c0,0,0,0.1-0.1,0.1c0,0.1,0,0.1,0,0.1v0.1v0.1c0,0,0,0-0.1,0.1c0,0,0,0.1-0.1,0.1v0.1
		c0,0.1,0,0.1,0,0.1c-0.1,0.1-0.1,0.1-0.1,0.1s0,0,0,0.1s0,0,0,0.1c0,0,0,0-0.1,0.1v0.1c-0.1,0.1-0.1,0.2-0.1,0.2
		c0,0.1-0.1,0.2-0.2,0.2c0,0.1,0,0.2-0.1,0.3v0.1c0,0.1-0.1,0.1-0.1,0.2C27,53.7,26.9,53.8,27,54c0,0,0,0-0.1,0c0,0-0.1,0.1-0.3,0.3
		c0,0.1,0,0.1-0.1,0.2c-0.1,0.1-0.1,0.1-0.1,0.2c-0.2,0.1-0.3,0.3-0.3,0.5c0,0-0.1,0.1-0.1,0.2c-0.1,0.1-0.1,0.1-0.1,0.2l0,0l0,0
		c-0.1,0.1-0.1,0.1-0.1,0.1v0.1c-0.2,0.2-0.3,0.3-0.3,0.4c0,0,0,0-0.1,0c0,0,0,0.1-0.1,0.2c-0.1,0.1-0.1,0.2-0.1,0.3
		C25.1,56.8,25,56.9,25,57c-0.1,0.1-0.2,0.1-0.2,0.3s-0.8-1-0.8-1h-0.1c-0.1,0.1-0.2,0.2-0.2,0.3c-0.1,0.1-0.2,0.2-0.4,0.3
		c-0.1,0.2-0.3,0.3-0.4,0.3v0.1v0.1c-0.1,0.1-0.2,0.1-0.3,0.3c-0.1,0.1-0.1,0.1-0.2,0.1c-0.2,0.2-0.3,0.3-0.3,0.3c0,0.1,0,0.1,0,0.1
		c0,0.1-0.1,0.1-0.1,0.1s0,0-0.1,0.1c0,0.1-0.1,0.1-0.1,0.1s-0.1,0-0.1,0.1c-0.1,0-0.1,0.1-0.1,0.1v0.1c-0.1,0.1-0.1,0.2-0.2,0.2
		v0.1l0,0c0,0-0.1,0-0.1-0.1c-0.1,0-0.2,0.1-0.2,0.2C21,59.3,21,59.3,21,59.3s0,0,0,0.1c0,0,0,0,0,0.1h-0.1c0,0-0.1,0-0.1,0.1l0,0
		h-0.1c0,0-0.3,0.2-0.7,0.6c0,0.1,0,0.1-0.1,0.2h-0.1c0,0-0.1,0-0.1,0.1l-0.1,0.1c0,0-0.1,0.1-0.1,0.2c0,0.1-0.1,0.1-0.1,0.2
		c0,0.1,0,0.1,0,0.1h-0.1c0,0,0,0-0.1,0c0,0-0.1,0-0.2,0.1c0,0,0,0-0.1,0c0,0,0,0-0.1,0c0,0,0,0.1-0.1,0.1v0.1c-0.1,0-0.1,0-0.2,0
		c0,0,0-0.1-0.1-0.2l-0.1,0.1c0,0,0,0-0.1,0h-0.1c0-0.1,0-0.1-0.1-0.2c0-0.1,0-0.1,0-0.1c-0.1,0-0.2,0-0.3-0.1
		c-0.1-0.1-0.1-0.2-0.2-0.2s-0.1-0.1-0.2-0.1c0-0.1,0-0.1,0-0.2c0,0-0.1,0-0.2,0c-0.1-0.1-0.2-0.2-0.3-0.3c0,0,0-0.1,0-0.2
		s0-0.1,0-0.2c0-0.1,0-0.2,0-0.2l0.2-0.2v-0.1v-0.1c0,0,0,0,0.1,0l0,0l0,0c0,0,0,0,0-0.1l0.1-0.1c0-0.1-0.1-0.2-0.3-0.2v-0.1
		c0-0.1,0-0.1,0-0.1s0-0.1-0.1-0.1c0-0.1-0.1-0.1-0.1-0.2c0,0,0-0.1,0-0.2c0-0.1,0-0.1,0-0.1s0,0-0.1-0.1c0,0-0.1,0-0.1-0.1
		c0.1-0.1,0.1-0.2,0.1-0.3c0-0.2-0.1-0.3-0.1-0.3c0-0.1,0-0.2,0-0.4s0-0.3,0-0.4v-0.1v-0.1c0,0,0-0.1-0.1-0.1c0,0,0-0.1,0-0.2
		c0-0.1,0-0.1,0-0.2c0,0,0-0.1-0.1-0.1l-0.1-0.1v-0.1v-0.1c0-0.2,0-0.4,0-0.5v-0.1c0-0.1,0-0.1-0.1-0.1v-0.1v-0.1c0,0,0-0.1,0-0.2
		c0-0.1,0-0.2,0-0.2L16,53.8c0.1-0.3,0-0.5-0.1-0.6v-0.3c0,0,0,0,0-0.1c0,0,0,0,0-0.1v-0.1v-0.1c0-0.1-0.1-0.1-0.2-0.1
		c0-0.1,0-0.3,0-0.4c0,0,0,0,0.1,0c0.1-0.1,0.1-0.2,0-0.3c0-0.1-0.1-0.1-0.1-0.2c0,0,0-0.1,0-0.2c0-0.1,0-0.1,0-0.1s0-0.1-0.1-0.1
		L15.5,51c0-0.5,0-0.8,0-0.8c-0.1,0-0.2-0.2-0.2-0.3v-0.1c0,0,0-0.1,0-0.3s0-0.3,0-0.3v-0.1V49c0,0,0,0,0-0.1c0.1-0.1,0-0.2-0.1-0.2
		c0,0-0.1-0.1-0.1-0.3c0,0,0-0.1-0.1-0.1c0-0.1-0.1-0.1-0.1-0.1c0-0.2-0.1-0.2-0.1-0.3c0,0,0-0.2,0-0.4c0,0,0-0.1-0.1-0.1
		c0-0.1,0-0.2,0-0.3s0-0.2-0.2-0.2c0,0,0-0.1,0-0.2c0-0.1,0-0.2,0-0.2s-0.1-0.1-0.1-0.2c0-0.1-0.1-0.1-0.1-0.2
		c-0.1-0.3-0.1-0.4-0.2-0.4c0-0.2,0-0.2-0.2-0.2c0,0,0-0.1,0-0.2c0-0.1,0.1-0.1,0.1-0.2h-0.1V45c0-0.1,0-0.2-0.1-0.3
		c0,0,0-0.1-0.1-0.1v-0.1v-0.1v-0.1c0,0,0,0-0.1-0.1c0,0,0,0,0-0.1V44l-0.1-0.1l-0.1-0.1c-0.1,0-0.2-0.1-0.3-0.2h-0.3
		c-0.1-0.2-0.2-0.3-0.3-0.2l-0.1-0.1c0-0.1-0.1-0.1-0.1-0.1c0-0.1-0.1-0.2-0.3-0.3c0-0.2-0.1-0.3-0.3-0.4c0-0.1-0.1-0.2-0.1-0.2
		v-0.1v-0.1L11.5,42c0-0.1,0-0.3,0-0.4c0,0,0-0.1,0.1-0.1c0-0.1,0.1-0.1,0.1-0.1v-0.1v-0.1c0,0,0,0,0.1-0.1c0,0,0.1,0,0.1-0.1H12
		c0,0,0.2-0.1,0.4-0.1c0.1,0,0.2,0,0.2,0s0,0,0.1,0v-0.1C13.6,41.1,13.6,41.1,13.7,41.1z M21.2,45.5C21.2,45.5,21.1,45.4,21.2,45.5
		c-0.1-0.1-0.1-0.1-0.2-0.1h-0.1c-0.1,0-0.1,0-0.1,0s-0.1,0-0.1-0.1s0-0.1-0.1-0.1s-0.1,0-0.1,0s0,0-0.1,0h-0.1c0,0-0.1,0-0.2,0
		s-0.1,0-0.2,0c0,0-0.1,0-0.1-0.1L19.7,45h-0.1c0,0,0,0-0.1,0s-0.1,0-0.1,0c-0.1,0-0.1,0-0.1,0c0-0.1-0.2-0.1-0.4-0.1
		c-0.1,0-0.1,0-0.2,0c-0.2-0.1-0.3-0.1-0.3-0.1s0,0-0.1,0h-0.1c-0.1,0-0.2,0-0.3-0.1c-0.4,0-0.6,0-0.7,0c0,0,0,0.1,0,0.2
		c0,0.1,0,0.2,0,0.2v0.1c0,0,0,0.1,0.1,0.1c0,0,0,0.1,0,0.2c0,0.1,0,0.1,0.1,0.1l0.1,0.1c0,0,0,0.1,0,0.2c0,0,0,0.1,0.1,0.2
		c0,0.1,0.1,0.2,0,0.2c0.1,0.2,0.2,0.3,0.2,0.4c0,0.1,0,0.2,0,0.2c0.1,0.2,0.2,0.3,0.2,0.3c0,0.1,0.1,0.2,0.1,0.4v0.1v0.1
		c0,0.1,0,0.1,0,0.1c0,0.1,0.1,0.1,0.1,0.2v0.1v0.1v0.1c0,0.1,0,0.1,0.1,0.2c0,0,0,0.1,0,0.2c0,0.1,0,0.1,0,0.2v0.1
		c0,0.2,0,0.2,0,0.3c0,0,0,0.1,0.1,0.1l0.1,0.1c0,0,0,0.1,0.1,0.3c0,0.1,0,0.1,0,0.2c0,0.1,0,0.2,0,0.2l0.1,0.1c0,0.1,0,0.1,0.1,0.1
		c0,0,0,0.1,0,0.2c0,0.1,0,0.1,0,0.2c0,0,0,0.1,0.1,0.1c0,0,0,0.1,0.1,0.1c0,0,0,0.1,0,0.2v0.1c0,0.1,0,0.1,0,0.1v0.1v0.1v0.1
		c0,0.1,0,0.1,0,0.1s0,0-0.1,0.1c0,0,0,0,0,0.1C19,52,19,52,19,52c0.1,0.1,0.1,0.2,0.1,0.2v0.1v0.1v0.1c0,0,0,0.1,0.1,0.1
		c0,0,0,0,0,0.1v0.1c0,0,0,0.1,0.1,0.1c0,0.1,0,0.2,0,0.2v0.1v0.1c0,0,0,0.1,0,0.2c0,0.1,0,0.1,0,0.2c0,0,0,0.1,0.1,0.1l0.1,0.1
		c0,0.1,0,0.1,0,0.1s0,0,0,0.1v0.1c0,0,0,0.1,0,0.2s0,0.2,0,0.2s0,0.1,0.1,0.1c0,0.1,0,0.1,0,0.1c0,0.1,0,0.1,0,0.2
		c0,0.1,0,0.2,0,0.2s0.1,0.1,0.1,0.3c0.1,0.2,0.1,0.4,0.1,0.4c0.1,0.1,0.1,0.2,0.1,0.4c0,0.1,0,0.2,0,0.2s0,0,0.1,0.1
		c0,0,0.1,0,0.1,0.1v0.1c0,0.1,0,0.1,0,0.1c0,0.1,0.2,0,0.4-0.2h0.1c0,0,0.1,0,0.1-0.1c0.1-0.1,0.2-0.2,0.2-0.2s0.2-0.1,0.4-0.2
		c0,0,0-0.1,0.1-0.1c0.1-0.1,0.1-0.2,0.2-0.2c0-0.1,0.2-0.3,0.5-0.6c0-0.1,0-0.2,0.2-0.2c0-0.1,0-0.1,0.1-0.1
		c0.1-0.1,0.2-0.1,0.2-0.1c0-0.1,0.1-0.2,0.2-0.3s0.2-0.3,0.2-0.4c0.2-0.1,0.3-0.2,0.3-0.2c0-0.1,0-0.1,0.1-0.2
		c0.1-0.1,0.1-0.1,0.1-0.2l0.1-0.1l0.1-0.1c0-0.1,0-0.2,0.2-0.3C23.9,53,24,53,24,53l0,0c0,0,0,0,0-0.1c0,0,0,0,0.1-0.1
		c0,0,0-0.1,0.1-0.1c0-0.1,0-0.1,0-0.1s0-0.1,0.1-0.2c0.1-0.1,0.1-0.1,0.2-0.2c0-0.1,0.1-0.3,0.2-0.5s0.2-0.3,0.2-0.5
		c0,0,0,0,0.1-0.1l0.1-0.1c0-0.1,0-0.1,0.1-0.2c0-0.1,0.1-0.2,0.1-0.3c0.1,0,0.1-0.1,0.1-0.2c0-0.1,0-0.1,0-0.2
		c0.1-0.1,0.1-0.1,0.1-0.1v-0.1c0-0.1,0-0.1,0.1-0.2c0-0.1,0.1-0.1,0.1-0.1v-0.1c0-0.1,0-0.1,0-0.1s0-0.1,0.1-0.1
		c0.1-0.2,0.1-0.3,0-0.4l0.1-0.1c0-0.1-0.1-0.3,0-0.5v-0.1v-0.1c-0.1-0.2-0.1-0.3,0-0.3L25,47.4v-0.1v-0.1c0,0,0,0-0.1,0v-0.1
		c-0.1-0.1-0.1-0.2-0.2-0.2c0,0,0,0-0.1,0h-0.1c0,0,0,0,0-0.1s0,0,0,0s0,0-0.1,0c-0.1-0.1-0.2-0.1-0.2-0.1c0-0.1-0.1-0.1-0.1-0.1H24
		c0,0,0,0-0.1-0.1l-0.1-0.1h-0.2c0-0.1-0.1-0.1-0.2-0.1c-0.1-0.1-0.1-0.1-0.1-0.1s-0.1,0-0.2-0.1S22.9,46,22.8,46c0,0,0,0-0.1-0.1
		l-0.1-0.1h-0.1h-0.1c-0.1-0.1-0.1-0.1-0.2-0.1s-0.1,0-0.2,0c-0.1-0.1-0.2-0.1-0.2-0.1s0,0-0.1,0s-0.1,0-0.1,0s0,0-0.1-0.1
		c0,0,0-0.1-0.1-0.1C21.4,45.4,21.4,45.4,21.2,45.5L21.2,45.5l-0.1-0.2C21.3,45.4,21.2,45.5,21.2,45.5z M21.1,45.4
		C21.1,45.4,21.1,45.3,21.1,45.4C21.1,45.3,21.1,45.3,21.1,45.4c-0.1-0.1-0.1-0.1-0.2-0.1s-0.1,0-0.1,0s-0.1,0-0.1-0.1
		s0-0.1-0.1-0.1s-0.1,0-0.1,0s0,0-0.1,0h-0.1c0,0-0.1,0-0.2,0s-0.1,0-0.2,0c0,0-0.1,0-0.1-0.1l-0.1-0.1h-0.1c0,0,0,0-0.1,0
		s-0.1,0-0.1,0c-0.1,0-0.1,0-0.1,0c0-0.1-0.2-0.1-0.4-0.1c-0.1,0-0.1,0-0.2,0c-0.2-0.1-0.3-0.1-0.3-0.1s0,0-0.1,0h-0.1
		c-0.1,0-0.2,0-0.3-0.1c-0.4,0-0.6,0-0.7,0c0,0,0,0.1,0,0.2c0,0.1,0,0.2,0,0.2v0.1c0,0,0,0.1,0.1,0.1c0,0,0,0.1,0,0.2
		c0,0.1,0,0.1,0.1,0.1l0.1,0.1c0,0,0,0.1,0,0.2c0,0,0,0.1,0.1,0.2c0,0.1,0.1,0.2,0,0.2c0.1,0.2,0.2,0.3,0.2,0.4c0,0.1,0,0.2,0,0.2
		c0.1,0.2,0.2,0.3,0.2,0.3c0,0.1,0.1,0.2,0.1,0.4v0.1v0.1c0,0.1,0,0.1,0,0.1c0,0.1,0.1,0.1,0.1,0.2v0.1v0.1v0.1c0,0.1,0,0.1,0.1,0.2
		c0,0,0,0.1,0,0.2c0,0.1,0,0.1,0,0.2V49c0,0.2,0,0.2,0,0.3c0,0,0,0.1,0.1,0.1l0.1,0.1c0,0,0,0.1,0.1,0.3c0,0.1,0,0.1,0,0.2
		c0,0.1,0,0.2,0,0.2l0.1,0.1c0,0.1,0,0.1,0.1,0.1c0,0,0,0.1,0,0.2c0,0.1,0,0.1,0,0.2c0,0,0,0.1,0.1,0.1c0,0,0,0.1,0.1,0.1
		c0,0.1,0,0.1,0,0.3v0.1c0,0.1,0,0.1,0,0.1v0.1v0.1v0.1c0,0.1,0,0.1,0,0.1s0,0-0.1,0.1c0,0,0,0,0,0.1C19,52,19,52,19,52
		c0.1,0.1,0.1,0.2,0.1,0.2v0.1v0.1v0.1c0,0,0,0.1,0.1,0.1c0,0,0,0,0,0.1v0.1c0,0,0,0.1,0.1,0.1c0,0.1,0,0.2,0,0.2v0.1v0.1
		c0,0,0,0.1,0,0.2c0,0.1,0,0.1,0,0.2c0,0,0,0.1,0.1,0.1l0.1,0.1c0,0.1,0,0.1,0,0.1s0,0,0,0.1v0.1c0,0,0,0.1,0,0.2s0,0.2,0,0.2
		s0,0.1,0.1,0.1c0,0.1,0,0.1,0,0.1c0,0.1,0,0.1,0,0.2c0,0.1,0,0.2,0,0.2s0.1,0.1,0.1,0.3c0.1,0.2,0.1,0.4,0.1,0.4
		c0.1,0.1,0.1,0.2,0.1,0.4c0,0.1,0,0.2,0,0.2s0,0,0.1,0.1c0,0,0.1,0,0.1,0.1v0.1c0,0.1,0,0.1,0,0.1c0,0.1,0.2,0,0.4-0.2h0.1
		c0,0,0.1,0,0.1-0.1c0.1-0.1,0.2-0.2,0.2-0.2s0.2-0.1,0.4-0.2c0,0,0-0.1,0.1-0.1c0.1-0.1,0.1-0.2,0.2-0.2c0-0.1,0.2-0.3,0.5-0.6
		c0-0.1,0-0.2,0.2-0.2c0-0.1,0-0.1,0.1-0.1c0.1-0.1,0.2-0.1,0.2-0.1c0-0.1,0.1-0.2,0.2-0.3s0.2-0.3,0.2-0.4c0.2-0.1,0.3-0.2,0.3-0.2
		c0-0.1,0-0.1,0.1-0.2c0.1-0.1,0.1-0.1,0.1-0.2l0.1-0.1l0.1-0.1c0-0.1,0-0.2,0.2-0.3C23.9,53,24,53,24,53l0,0c0,0,0,0,0-0.1
		c0,0,0,0,0.1-0.1c0,0,0-0.1,0.1-0.1c0-0.1,0-0.1,0-0.1s0-0.1,0.1-0.2c0.1-0.1,0.1-0.1,0.2-0.2c0-0.1,0.1-0.3,0.2-0.5
		s0.2-0.3,0.2-0.5c0,0,0,0,0.1-0.1l0.1-0.1c0-0.1,0-0.1,0.1-0.2c0-0.1,0.1-0.2,0.1-0.3c0.1,0,0.1-0.1,0.1-0.2c0-0.1,0-0.1,0-0.2
		c0.1-0.1,0.1-0.1,0.1-0.1v-0.1c0-0.1,0-0.1,0.1-0.2c0-0.1,0.1-0.1,0.1-0.1v-0.1c0-0.1,0-0.1,0-0.1s0-0.1,0.1-0.1
		c0.1-0.2,0.1-0.3,0-0.4l0.1-0.1c0-0.1-0.1-0.3,0-0.5v-0.1v-0.1c-0.1-0.2-0.1-0.3,0-0.3L25,47.4v-0.1v-0.1c0,0,0,0-0.1,0v-0.1
		c-0.1-0.1-0.1-0.2-0.2-0.2c0,0,0,0-0.1,0h-0.1c0,0,0,0,0-0.1s0,0,0,0s0,0-0.1,0c-0.1-0.1-0.2-0.1-0.2-0.1c0-0.1-0.1-0.1-0.1-0.1H24
		c0,0,0,0-0.1-0.1l-0.1-0.1h-0.2c0-0.1-0.1-0.1-0.2-0.1c-0.1-0.1-0.1-0.1-0.1-0.1s-0.1,0-0.2-0.1S22.9,46,22.8,46c0,0,0,0-0.1-0.1
		l-0.1-0.1h-0.1h-0.1c-0.1-0.1-0.1-0.1-0.2-0.1s-0.1,0-0.2,0c-0.1-0.1-0.2-0.1-0.2-0.1s0,0-0.1,0s-0.1,0-0.1,0s0,0-0.1-0.1
		c0,0,0-0.1-0.1-0.1c0,0,0,0-0.1,0L21.1,45.4L21.1,45.4C21.3,45.4,21.2,45.5,21.1,45.4C21.2,45.5,21.1,45.4,21.1,45.4z"/>
	<path fill="#643282" d="M30.2,42.7c0.1,0.1,0.1,0.1,0.1,0.1c0-0.1,0.1-0.1,0.2-0.1s0.2,0,0.2,0h0.1h0.1H31c0.1,0,0.1,0,0.1,0
		c0.1,0,0.1,0,0.3,0c0.1,0,0.2,0,0.3,0h0.1c0.1,0,0.1,0,0.1,0H32c0,0,0.1,0,0.2-0.1c0.4,0,0.6,0.1,0.6,0.1c0.1,0,0.1,0,0.3,0
		c0.1,0,0.1,0,0.1,0s0.1,0,0.2,0c0.1,0,0.2,0,0.2,0c0.1,0,0.1,0,0.1,0s0.1,0,0.2,0c0.1,0,0.1,0,0.2,0h0.1c0,0,0.1,0,0.2,0h0.1
		c0,0,0.1,0,0.2,0c0.1,0,0.1,0,0.2,0c0,0,0,0.1,0.1,0.1c0,0,0,0,0.1,0h0.1c0.1,0,0.2,0,0.3,0s0.2,0,0.3,0c0,0,0.1,0,0.2,0.1
		c0.1,0,0.2,0,0.2-0.1c0,0,0,0,0.1,0c0,0,0,0,0.1,0s0.3,0,0.5,0.1s0.4,0.1,0.6,0c0.1-0.1,0.2-0.1,0.2-0.1v0.1
		c0.1,0.1,0.1,0.1,0.2,0.1c0,0,0.1,0,0.2,0c0.1,0,0.1,0,0.2,0h0.1c0.1,0.1,0.1,0.1,0.2,0c0,0.1,0.1,0.1,0.1,0.1c0.1-0.1,0.2,0,0.2,0
		C39,43,39.1,43,39.2,43v0.1c0,0,0.2,0.1,0.5,0.1c0,0.1,0.1,0.1,0.2,0.1c0.1,0,0.2,0,0.2,0.1H40c0.4,0.3,0.7,0.5,0.8,0.6h0.1
		c0,0.1,0.1,0.2,0.2,0.2c0.1,0,0.1,0.1,0.2,0.1c0.1,0.1,0.1,0.1,0.2,0.2c0.1,0.1,0.1,0.1,0.2,0.2c0,0.1,0,0.1,0.1,0.2
		c0,0.1,0.1,0.1,0.1,0.2c0.1,0.1,0.2,0.1,0.2,0.2c0,0.1,0,0.1,0,0.1s0,0,0.1,0.1c0,0.1,0.1,0.1,0.1,0.1c0,0.2,0,0.3,0,0.3s0,0,0,0.1
		c0,0,0,0.1,0.1,0.1c0,0,0,0.1,0,0.2c0,0.1,0,0.1,0.1,0.2c0,0,0,0,0.1,0h0.1v0.1h-0.1c0,0.1,0,0.1,0,0.2c0,0.1,0,0.1,0,0.2v0.1
		c0,0.1,0,0.2,0,0.3c0,0.2,0,0.3,0,0.3c0,0.1-0.1,0.1-0.1,0.2c0,0.1,0,0.2,0,0.2c-0.1,0.1-0.1,0.1-0.1,0.1c0,0.1,0,0.1-0.1,0.2
		c0,0.1,0,0.1,0,0.1c-0.1,0.1-0.1,0.2-0.1,0.3c0,0-0.1,0.1-0.2,0.2c-0.1,0.1-0.1,0.2-0.2,0.2v0.1c0,0,0,0.1-0.1,0.1l-0.1,0.1
		c-0.2,0.1-0.4,0.3-0.4,0.6c0,0,0,0-0.1,0c0,0,0,0-0.1,0c0,0-0.1,0.1-0.1,0.2c-0.3,0.2-0.4,0.4-0.5,0.5s-0.2,0.1-0.2,0.2
		c-0.3,0.2-0.5,0.4-0.6,0.5c-0.1,0-0.2,0.1-0.3,0.2c0,0-0.1,0.1-0.2,0.1c-0.1,0.1-0.1,0.1-0.2,0.1c-0.2,0.1-0.2,0.1-0.2,0.2
		c0,0.1,0,0.1,0.1,0.1l0.1,0.1l0.1,0.1c0.1,0,0.1,0,0.1,0.1c0,0,0,0,0.1,0.1c0,0,0,0,0.1,0s0.1,0,0.1,0s0,0,0.1,0.1
		c0.1,0,0.1,0.1,0.1,0.1s0,0,0.1,0v0.1H40c0.1,0.1,0.2,0.1,0.2,0.1c0,0.1,0.1,0.1,0.2,0.2c0.1,0.1,0.2,0.1,0.2,0.2h0.1
		c0,0,0,0,0.1,0.1c0,0,0,0.1,0.1,0.1h0.2l0.1,0.1c0.1,0.1,0.2,0.2,0.3,0.2c0,0.1,0.2,0.1,0.3,0.1c0.1,0.2,0.3,0.2,0.4,0.2
		c0,0,0.1,0.1,0.1,0.2c0.2,0.1,0.4,0.2,0.6,0.4H43c0.2,0.2,0.3,0.2,0.4,0.3c0,0.1,0.1,0.1,0.2,0.1c0.1,0,0.2,0.1,0.2,0.2
		c0.1,0,0.1,0,0.2,0.1c0.1,0.1,0.1,0.1,0.2,0.1c0.1,0.1,0.2,0.2,0.4,0.4c0.2,0.1,0.4,0.3,0.4,0.4l0,0c0,0,0.1,0,0.1,0.1
		c0.1,0.1,0.1,0.1,0.1,0.1h0.1c0,0,0,0,0.1,0c0,0.1,0.1,0.2,0.3,0.3c0.1,0.1,0.2,0.1,0.2,0c0.1,0,0.2,0,0.2,0
		c0.1,0.1,0.2,0.1,0.3,0.1c0-0.1,0.1-0.1,0.1-0.1s0,0,0.1,0.1c0.2,0,0.3,0,0.3,0.1c0.1,0.1,0.1,0.2,0.1,0.2s0,0.1,0.1,0.1h0.1
		c0,0,0.1,0.1,0.1,0.2c0,0.1,0.1,0.2,0.1,0.2V58v0.1v0.1c0,0,0.1,0.1,0.2,0.1c0.1,0.1,0.1,0.1,0.1,0.1s0,0.1,0,0.2
		c0,0.2,0.1,0.3,0,0.3c0,0,0,0.1,0.1,0.2c0,0.1,0,0.2,0,0.3c0,0.2,0,0.3,0,0.3h-0.3l-0.1,0.1c0,0.1-0.1,0.1-0.1,0.1s0,0-0.1,0.1
		c0,0-0.1,0-0.1,0.1c0.1,0.1,0.1,0.1,0.1,0.1s-0.1,0-0.1,0.1c-0.1,0-0.1,0-0.1,0.1c0,0,0,0,0,0.1c0,0,0,0,0,0.1
		c-0.1,0.1-0.1,0.1-0.2,0c-0.1-0.1-0.1-0.1-0.1-0.1s-0.1,0-0.2,0.1c-0.1,0.1-0.2,0.1-0.2,0.1c-0.1-0.2-0.2-0.3-0.3-0.3
		c0,0,0,0-0.1,0h-0.1c0-0.1,0-0.2-0.1-0.2c0,0,0,0-0.1,0l0,0c0,0,0,0,0-0.1s-0.1-0.1-0.2-0.2h-0.1h-0.1c-0.1-0.2-0.2-0.3-0.3-0.4
		h-0.1c-0.1,0-0.1-0.1-0.2-0.2c-0.1-0.1-0.3-0.2-0.4-0.2L44.1,59C44,58.9,44,58.9,44,58.9C43.9,59,43.9,59,43.9,59s0,0-0.1-0.1
		c0-0.1,0-0.1-0.1-0.1c0,0-0.1,0-0.1-0.1c-0.1,0-0.1-0.1-0.1-0.1c0-0.1-0.1-0.2-0.2-0.1c0-0.1,0-0.1,0-0.1c-0.2-0.1-0.2-0.2-0.3-0.3
		c0,0-0.2-0.1-0.5-0.3c0,0,0,0-0.1,0c0,0,0,0-0.1,0c0-0.1-0.1-0.1-0.2-0.3c-0.1,0-0.2-0.1-0.4-0.2h-0.1h-0.1c0,0,0,0,0-0.1v-0.1
		h-0.1c0,0,0,0-0.1,0s-0.1,0-0.2-0.2L41,56.8c0,0,0-0.1-0.1-0.1s-0.1-0.1-0.1-0.1c-0.1,0-0.2-0.1-0.3-0.2c-0.1-0.1-0.2-0.1-0.3-0.2
		h-0.1c0-0.1-0.1-0.1-0.2-0.2c0-0.1-0.1-0.1-0.3-0.2c0,0,0,0-0.1,0c0,0,0,0-0.1-0.1c0,0,0,0-0.1,0c0,0,0,0-0.1,0c0,0,0,0-0.1-0.1H39
		c-0.1,0-0.2,0-0.2,0s-0.1,0-0.1-0.1c-0.1-0.1-0.1-0.1-0.2-0.1c-0.1,0.1-0.1,0.1-0.1,0c0,0,0,0,0-0.1v-0.1c0,0,0,0-0.1,0h-0.1
		c0,0,0-0.1-0.1-0.1c0,0,0-0.1-0.1-0.1h-0.2l-0.1-0.1c0,0-0.1,0-0.2-0.1c-0.1-0.1-0.1-0.1-0.2,0c0,0-0.1-0.1-0.2-0.1
		c-0.1,0-0.1-0.1-0.2-0.1c-0.1,0-0.2,0-0.3-0.1c-0.1,0-0.2,0-0.3-0.2c0,0-0.1,0-0.3,0.1l0,0c0,0,0,0,0-0.1c0,0-0.1,0-0.2,0
		c0,0,0,0,0-0.1c0,0,0,0,0-0.1c-0.2-0.2-0.4-0.2-0.5-0.2c-0.1-0.1-0.2-0.2-0.3-0.2c0,0-0.1,0-0.2-0.1c0,0-0.1,0-0.1-0.1
		c0,0-0.1,0.1-0.1,0.2c0,0.2,0,0.3,0,0.3s0,0.1,0.1,0.1c0,0,0,0,0,0.1c0,0,0,0,0,0.1s0,0.1,0,0.1c0,0.3,0,0.5,0.1,0.6v0.3v0.1
		c0,0,0,0.1,0.1,0.2c0,0.1,0,0.1,0,0.2c0,0.1,0,0.1,0,0.1L35,56c0,0.1,0,0.1,0.1,0.1c0,0.1,0,0.1,0,0.3s0,0.2,0,0.3c0,0,0,0,0.1,0.1
		c0,0,0.1,0,0.1,0.1c0,0.2,0,0.3,0,0.4c0,0.1,0,0.2,0.1,0.3c0,0,0,0.1,0,0.2c0,0.1,0,0.2,0,0.3h0.1l0.1,0.1c0,0.1,0,0.1-0.1,0.2v0.1
		c0,0,0,0.1,0,0.3c0,0.1,0,0.2,0,0.5s0,0.4,0,0.4v0.1c0,0,0,0-0.1,0c0,0,0,0-0.1,0.1c0,0.1-0.1,0.1-0.1,0.2c0,0.1-0.1,0.1-0.1,0.2
		c-0.1,0-0.1,0-0.2,0c-0.2,0.1-0.3,0.2-0.3,0.3c0,0,0,0-0.1,0s0,0-0.1,0c0,0,0,0,0,0.1c0,0,0,0-0.1,0c0,0,0,0-0.1-0.1
		c0,0-0.1,0-0.2,0c-0.1,0.1-0.1,0.1-0.2,0.1c0-0.1,0-0.2-0.1-0.2c-0.2,0-0.3-0.1-0.4-0.3h-0.1h-0.1c0.1-0.1,0-0.2-0.2-0.3
		s-0.2-0.1-0.2-0.2c0,0,0,0-0.1,0c0,0,0,0-0.1,0c-0.1-0.1,0-0.2,0.1-0.2c0-0.1,0-0.1,0-0.2v-0.1v-0.1c0,0,0-0.1-0.1-0.1h-0.1
		c0,0,0-0.1,0.1-0.1c0.1-0.2,0.1-0.4,0-0.4v-0.4c0-0.1,0.1-0.1,0.1-0.3s0-0.2-0.1-0.2c0-0.1,0-0.2,0-0.3s0-0.2,0-0.3s0-0.1-0.1-0.1
		c0-0.1,0-0.2,0-0.3c0-0.2,0-0.3-0.1-0.3c0-0.1,0-0.1,0-0.2c0-0.1,0-0.2,0-0.2s0-0.1-0.1-0.1c0-0.1-0.1-0.1-0.1-0.1
		c0-0.1,0-0.1,0-0.3c0-0.1,0-0.2,0-0.3c0,0-0.1-0.1-0.1-0.2c0-0.1,0-0.1-0.1-0.2c0,0,0-0.2,0-0.3c0-0.2,0-0.2,0-0.2
		c0-0.1,0-0.2-0.1-0.2c0,0,0-0.2,0-0.4v-0.1v-0.1v-0.1c0-0.1,0-0.1,0-0.1s0,0-0.1-0.1c0,0,0,0-0.1,0c0-0.1,0-0.2,0-0.3s0-0.2,0-0.3
		c0,0,0-0.1-0.1-0.2c0-0.1,0-0.1,0-0.2c0-0.1,0-0.2,0-0.2s0-0.1,0-0.2c0-0.1,0-0.1,0-0.1v-0.1v-0.1v-0.1v-0.1c0,0,0,0,0-0.1
		S31.4,51,31.3,51v-0.1c0,0,0,0,0.1,0c0,0,0,0,0.1,0v-0.2c0,0,0-0.2,0-0.3c0-0.2,0-0.3,0-0.4l-0.1-0.1v-0.1v-0.1v-0.1c0,0,0,0,0-0.1
		c0-0.2-0.1-0.2-0.1-0.2v-0.1c0,0,0-0.1,0-0.3c0,0,0-0.1-0.1-0.2c0-0.1,0-0.2,0-0.2s0,0,0-0.1v-0.1v-0.1v-0.1V48c0-0.1,0-0.2,0-0.3
		s-0.1-0.2-0.1-0.3s0-0.2-0.1-0.3l0,0h-0.1V47l0,0c0-0.1,0-0.1,0-0.3c0-0.1,0-0.2,0-0.2v-0.1c0-0.2,0-0.2,0-0.3c0,0,0,0-0.1,0l0,0
		c0,0,0,0,0-0.1c0,0,0,0,0-0.1c0,0,0-0.1,0-0.2c0-0.1,0-0.2,0-0.2s0,0,0-0.1c0,0,0,0,0-0.1c0,0,0-0.1-0.1-0.2c0-0.1,0-0.1,0-0.2
		c-0.1,0-0.2,0-0.4-0.1c-0.1,0-0.2,0-0.3,0l-0.2-0.2c0-0.1-0.1-0.1-0.3-0.2c0,0-0.1-0.1-0.1-0.2c0-0.1-0.1-0.2-0.1-0.2
		c-0.1-0.1-0.2-0.2-0.3-0.2c0-0.1-0.1-0.2-0.1-0.3s0-0.2,0-0.3s0-0.2,0-0.3s0-0.1,0.1-0.2c0.1-0.1,0.1-0.2,0.1-0.3s0.1-0.1,0.1-0.1
		s0,0,0-0.1l0,0c0,0,0.1,0,0.2,0C30.1,42.8,30.2,42.8,30.2,42.7z M29.9,42.8c0.2,0,0.3-0.1,0.3-0.2c0.1,0.1,0.1,0.1,0.1,0.1
		c0-0.1,0.1-0.1,0.2-0.1s0.2,0,0.2,0h0.1h0.1H31c0.1,0,0.1,0,0.1,0c0.1,0,0.1,0,0.3,0c0.1,0,0.2,0,0.3,0h0.1c0.1,0,0.1,0,0.1,0H32
		c0,0,0.1,0,0.2-0.1c0.4,0,0.6,0.1,0.6,0.1c0.1,0,0.2,0,0.3,0s0.1,0,0.1,0s0.1,0,0.2,0c0.1,0,0.2,0,0.2,0c0.1,0,0.1,0,0.1,0
		s0.1,0,0.2,0c0.1,0,0.1,0,0.2,0c0,0,0.1,0,0.1,0.1c0,0,0.1,0,0.2,0h0.1c0,0,0.1,0,0.2,0c0.1,0,0.1,0,0.2,0c0,0,0,0.1,0.1,0.1
		c0,0,0,0,0.1,0h0.1c0.1,0,0.2,0,0.3,0s0.2,0,0.3,0c0,0,0.1,0,0.2,0.1c0.1,0,0.2,0,0.2-0.1c0,0,0,0,0.1,0c0,0,0,0,0.1,0
		s0.3,0,0.5,0.1s0.4,0.1,0.6,0c0.1-0.1,0.2-0.1,0.2-0.1v0.1c0.1,0.1,0.1,0.1,0.2,0.1c0,0,0.1,0,0.2,0c0.1,0,0.1,0,0.2,0h0.1
		c0.1,0.1,0.1,0.1,0.2,0c0,0.1,0.1,0.1,0.1,0.1c0.1-0.1,0.2,0,0.2,0C39,43,39.1,43,39.2,43v0.1c0,0,0.2,0.1,0.5,0.1
		c0,0.1,0.1,0.1,0.2,0.1c0.1,0,0.2,0,0.2,0.1H40c0.4,0.3,0.7,0.5,0.8,0.6h0.1c0,0.1,0.1,0.2,0.2,0.2c0.1,0,0.1,0.1,0.2,0.1
		c0.1,0.1,0.1,0.1,0.2,0.2c0.1,0.1,0.1,0.1,0.2,0.2c0,0.1,0,0.1,0.1,0.2c0,0.1,0.1,0.1,0.1,0.2c0.1,0.1,0.2,0.1,0.2,0.2
		c0,0.1,0,0.1,0,0.1s0,0,0.1,0.1c0,0.1,0.1,0.1,0.1,0.1c0,0.2,0,0.3,0,0.3s0,0,0,0.1c0,0,0,0.1,0.1,0.1c0,0,0,0.1,0,0.2
		c0,0.1,0,0.1,0.1,0.2c0,0,0,0,0.1,0h0.1v0.1h-0.1c0,0.1,0,0.1,0,0.2c0,0.1,0,0.1,0,0.2v0.1c0,0.1,0,0.2,0,0.3c0,0.2,0,0.3,0,0.3
		c0,0.1-0.1,0.1-0.1,0.2c0,0.1,0,0.2,0,0.2c-0.1,0.1-0.1,0.1-0.1,0.1c0,0.1,0,0.1-0.1,0.2c0,0.1,0,0.1,0,0.1
		c-0.1,0.1-0.1,0.2-0.1,0.3c0,0-0.1,0.1-0.2,0.2c-0.1,0.1-0.1,0.2-0.2,0.2v0.1c0,0,0,0.1-0.1,0.1l-0.1,0.1c-0.2,0.1-0.4,0.3-0.4,0.6
		c0,0,0,0-0.1,0c0,0,0,0-0.1,0c0,0-0.1,0.1-0.1,0.2c-0.3,0.2-0.4,0.4-0.5,0.5s-0.2,0.1-0.2,0.2c-0.3,0.2-0.5,0.4-0.6,0.5
		c-0.1,0-0.2,0.1-0.3,0.2c0,0-0.1,0.1-0.2,0.1c-0.1,0.1-0.1,0.1-0.2,0.1c-0.2,0.1-0.2,0.1-0.2,0.2c0,0.1,0,0.1,0.1,0.1l0.1,0.1
		l0.1,0.1c0.1,0,0.1,0,0.1,0.1c0,0,0,0,0.1,0.1c0,0,0,0,0.1,0s0.1,0,0.1,0s0,0,0.1,0.1c0.1,0,0.1,0.1,0.1,0.1s0,0,0.1,0v0.1H40
		c0.1,0.1,0.2,0.1,0.2,0.1c0,0.1,0.1,0.1,0.2,0.2c0.1,0.1,0.2,0.1,0.2,0.2h0.1c0,0,0,0,0.1,0.1c0,0,0,0.1,0.1,0.1h0.2l0.1,0.1
		c0.1,0.1,0.2,0.2,0.3,0.2c0,0.1,0.2,0.1,0.3,0.1c0.1,0.2,0.3,0.2,0.4,0.2c0,0,0.1,0.1,0.1,0.2c0.2,0.1,0.4,0.2,0.6,0.4H43
		c0.2,0.2,0.3,0.2,0.4,0.3c0,0.1,0.1,0.1,0.2,0.1c0.1,0,0.2,0.1,0.2,0.2c0.1,0,0.1,0,0.2,0.1c0.1,0.1,0.1,0.1,0.2,0.1
		c0.1,0.1,0.2,0.2,0.4,0.4c0.2,0.1,0.4,0.3,0.4,0.4l0,0c0.2,0.1,0.2,0.2,0.3,0.2h0.1c0,0,0,0,0.1,0c0,0.1,0.1,0.2,0.3,0.3
		c0.1,0.1,0.2,0.1,0.2,0c0.1,0,0.2,0,0.2,0c0.1,0.1,0.2,0.1,0.3,0.1c0-0.1,0.1-0.1,0.1-0.1s0,0,0.1,0.1c0.2,0,0.3,0,0.3,0.1
		c0.1,0.1,0.1,0.2,0.1,0.2s0,0.1,0.1,0.1h0.1c0,0,0.1,0.1,0.1,0.2c0,0.1,0.1,0.2,0.1,0.2V58v0.1v0.1c0,0,0.1,0.1,0.2,0.1
		c0.1,0.1,0.1,0.1,0.1,0.1s0,0.1,0,0.2c0,0.2,0.1,0.3,0,0.3c0,0,0,0.1,0.1,0.2c0,0.1,0,0.2,0,0.3c0,0.2,0,0.3,0,0.3h-0.3l-0.1,0.1
		c0,0.1-0.1,0.1-0.1,0.1s0,0-0.1,0.1c0,0-0.1,0-0.1,0.1c0.1,0.1,0.1,0.1,0.1,0.1s-0.1,0-0.1,0.1c-0.1,0-0.1,0-0.1,0.1c0,0,0,0,0,0.1
		c0,0,0,0,0,0.1c-0.1,0.1-0.1,0.1-0.2,0c-0.1-0.1-0.1-0.1-0.1-0.1s-0.1,0-0.2,0.1c-0.1,0.1-0.2,0.1-0.2,0.1
		c-0.1-0.2-0.2-0.3-0.3-0.3c0,0,0,0-0.1,0h-0.1c0-0.1,0-0.2-0.1-0.2c0,0,0,0-0.1,0l0,0c0,0,0,0,0-0.1s-0.1-0.1-0.2-0.2h-0.1h-0.1
		c-0.1-0.2-0.2-0.3-0.3-0.4h-0.1c-0.1,0-0.1-0.1-0.2-0.2c-0.1-0.1-0.3-0.2-0.4-0.2L44.2,59c-0.1-0.1-0.1-0.1-0.1-0.1
		C44,59,44,59,44,59s0,0-0.1-0.1c0-0.1,0-0.1-0.1-0.1c0,0-0.1,0-0.1-0.1c-0.1,0-0.1-0.1-0.1-0.1c0-0.1-0.1-0.2-0.2-0.1
		c0-0.1,0-0.1,0-0.1c-0.2-0.1-0.2-0.2-0.3-0.3c0,0-0.2-0.1-0.5-0.3c0,0,0,0-0.1,0c0,0,0,0-0.1,0c0-0.1-0.1-0.1-0.2-0.3
		c-0.1,0-0.2-0.1-0.4-0.2h-0.1h-0.1c0,0,0,0,0-0.1v-0.1h-0.1c0,0,0,0-0.1,0s-0.1,0-0.2-0.2l-0.1-0.1c0,0,0-0.1-0.1-0.1
		s-0.1-0.1-0.1-0.1c-0.1,0-0.2-0.1-0.3-0.2c-0.1-0.1-0.2-0.1-0.3-0.2h-0.1c0-0.1-0.1-0.1-0.2-0.2c0-0.1-0.1-0.1-0.3-0.2
		c0,0,0,0-0.1,0c0,0,0,0-0.1-0.1c0,0,0,0-0.1,0c0,0,0,0-0.1,0c0,0,0,0-0.1-0.1h-0.1c-0.1,0-0.2,0-0.2,0s-0.1,0-0.1-0.1
		c-0.1-0.1-0.1-0.1-0.2-0.1c-0.1,0.1-0.1,0.1-0.1,0c0,0,0,0,0-0.1v-0.1c0,0,0,0-0.1,0h-0.1c0,0,0-0.1-0.1-0.1c0,0,0-0.1-0.1-0.1
		h-0.2l-0.1-0.1c0,0-0.1,0-0.2-0.1c-0.1-0.1-0.1-0.1-0.2,0c0,0-0.1-0.1-0.2-0.1c-0.1,0-0.1-0.1-0.2-0.1c-0.1,0-0.2,0-0.3-0.1
		c-0.1,0-0.2,0-0.3-0.2c0,0-0.1,0-0.3,0.1l0,0c0,0,0,0,0-0.1c0,0-0.1,0-0.2,0c0,0,0,0,0-0.1c0,0,0,0,0-0.1c-0.2-0.2-0.4-0.2-0.5-0.2
		c-0.1-0.1-0.2-0.2-0.3-0.2c0,0-0.1,0-0.2-0.1c0,0-0.1,0-0.1-0.1c0,0-0.1,0.1-0.1,0.2c0,0.2,0,0.3,0,0.3s0,0.1,0.1,0.1
		c0,0,0,0,0,0.1c0,0,0,0,0,0.1s0,0.1,0,0.1c0,0.3,0,0.5,0.1,0.6v0.3v0.1c0,0,0,0.1,0.1,0.2c0,0.1,0,0.1,0,0.2c0,0.1,0,0.1,0,0.1
		l0.1,0.1c0,0.1,0,0.1,0.1,0.1c0,0.1,0,0.1,0,0.3s0,0.2,0,0.3c0,0,0,0,0.1,0.1c0,0,0.1,0,0.1,0.1c0,0.2,0,0.3,0,0.4
		c0,0.1,0,0.2,0.1,0.3c0,0,0,0.1,0,0.2c0,0.1,0,0.2,0,0.3h0.1l0.1,0.1c0,0.1,0,0.1-0.1,0.2v0.1c0,0,0,0.1,0,0.3c0,0.1,0,0.2,0,0.5
		s0,0.4,0,0.4v0.1c0,0,0,0-0.1,0c0,0,0,0-0.1,0.1c0,0.1-0.1,0.1-0.1,0.2c0,0.1-0.1,0.1-0.1,0.2c-0.1,0-0.1,0-0.2,0
		c-0.2,0.1-0.3,0.2-0.3,0.3c0,0,0,0-0.1,0s0,0-0.1,0c0,0,0,0,0,0.1c0,0,0,0-0.1,0c0,0,0,0-0.1-0.1c0,0-0.1,0-0.2,0
		c-0.1,0.1-0.1,0.1-0.2,0.1c0-0.1,0-0.2-0.1-0.2c-0.2,0-0.3-0.1-0.4-0.3h-0.1h-0.1c0.1-0.1,0-0.2-0.2-0.3s-0.2-0.1-0.2-0.2
		c0,0,0,0-0.1,0c0,0,0,0-0.1,0c-0.1-0.1,0-0.2,0.1-0.2c0-0.1,0-0.1,0-0.2v-0.1v-0.1c0,0,0-0.1-0.1-0.1h-0.1c0,0,0-0.1,0.1-0.1
		c0.1-0.2,0.1-0.4,0-0.4v-0.4c0-0.1,0.1-0.1,0.1-0.3s0-0.2-0.1-0.2c0-0.1,0-0.2,0-0.3s0-0.2,0-0.3s0-0.1-0.1-0.1c0-0.1,0-0.2,0-0.3
		c0-0.2,0-0.3-0.1-0.3c0-0.1,0-0.1,0-0.2c0-0.1,0-0.2,0-0.2s0-0.1-0.1-0.1c0-0.1-0.1-0.1-0.1-0.1c0-0.1,0-0.1,0-0.3
		c0-0.1,0-0.2,0-0.3c0,0-0.1-0.1-0.1-0.2c0-0.1,0-0.1-0.1-0.2c0,0,0-0.2,0-0.3c0-0.2,0-0.2,0-0.2c0-0.1,0-0.2-0.1-0.2
		c0,0,0-0.2,0-0.4v-0.1v-0.1v-0.1c0-0.1,0-0.1,0-0.1s0,0-0.1-0.1c0,0,0,0-0.1,0c0-0.1,0-0.2,0-0.3s0-0.2,0-0.3c0,0,0-0.1-0.1-0.2
		c0-0.1,0-0.1,0-0.2c0-0.1,0-0.2,0-0.2s0-0.1,0-0.2c0-0.1,0-0.1,0-0.1v-0.1v-0.1v-0.1v-0.1c0,0,0,0,0-0.1S31.5,51,31.4,51v-0.1
		c0,0,0,0,0.1,0c0,0,0,0,0.1,0v-0.2c0,0,0-0.2,0-0.3c0-0.2,0-0.3,0-0.4l-0.1-0.1v-0.1v-0.1v-0.1c0,0,0,0,0-0.1
		c0-0.2-0.1-0.2-0.1-0.2v-0.1c0,0,0-0.1,0-0.3c0,0,0-0.1-0.1-0.2c0-0.1,0-0.2,0-0.2s0,0,0-0.1v-0.1v-0.1v-0.1V48c0-0.1,0-0.2,0-0.3
		s-0.1-0.2-0.1-0.3s0-0.2-0.1-0.3l0,0H31V47l0,0c0-0.1,0-0.1,0-0.3c0-0.1,0-0.2,0-0.2v-0.1c0-0.2,0-0.2,0-0.3c0,0,0,0-0.1,0l0,0
		c0,0,0,0,0-0.1c0,0,0,0,0-0.1c0,0,0-0.1,0-0.2c0-0.1,0-0.2,0-0.2s0,0,0-0.1c0,0,0,0,0-0.1c0,0,0-0.1-0.1-0.2c0-0.1,0-0.1,0-0.2
		c-0.1,0-0.2,0-0.4-0.1c-0.1,0-0.2,0-0.3,0l-0.2-0.2c0-0.1-0.1-0.1-0.3-0.2c0,0-0.1-0.1-0.1-0.2c0-0.1-0.1-0.2-0.1-0.2
		c-0.1-0.1-0.2-0.2-0.3-0.2c0-0.1-0.1-0.2-0.1-0.3s0-0.2,0-0.3s0-0.2,0-0.3s0-0.1,0.1-0.2c0.1-0.1,0.1-0.2,0.1-0.3s0.1-0.1,0.1-0.1
		s0,0,0-0.1l0,0C29.7,42.8,29.7,42.8,29.9,42.8z M33.8,45.6c0,0,0,0.1,0,0.3V46v0.1c0,0.1,0,0.1,0.1,0.2c0.1,0.1,0.1,0.1,0.1,0.2
		v0.1v0.1c0,0.1,0,0.1,0,0.3c0,0.1,0,0.2,0,0.3c0.1,0.1,0.1,0.2,0.1,0.3s0,0.1,0,0.2c0,0,0,0.1,0.1,0.1c0,0.1,0.1,0.1,0.1,0.2
		c0,0,0,0.1,0,0.2c0,0.1,0,0.1,0,0.2c0,0.2,0,0.2,0,0.3v0.1V49c0,0,0,0.1,0,0.2c0,0.1,0,0.1,0,0.2c0,0.1,0,0.1,0,0.1s0,0.1,0.1,0.1
		v0.1c0,0.1,0,0.1,0,0.2c0,0.1,0,0.2,0,0.2v0.1c0,0,0,0,0.1,0c0,0.1,0,0.1,0,0.3c0,0.1,0,0.2,0.1,0.3c-0.1,0.1-0.1,0.2,0,0.3
		c0,0.1,0,0.1,0.1,0.2c0,0,0.1,0,0.2,0c0.1,0,0.2,0,0.2,0s0,0,0-0.1c0,0,0,0,0.1,0s0.1,0,0.1,0h0.1h0.1c0.2,0,0.3-0.1,0.3-0.1h0.1
		c0-0.1,0.2-0.1,0.3-0.1s0.1,0,0.2,0c0.1,0,0.2-0.1,0.2-0.1c0-0.1,0.1-0.1,0.1-0.1s0,0,0.1,0s0.2-0.1,0.2-0.2
		c0.1-0.1,0.1-0.1,0.2-0.2c0.1,0,0.2-0.1,0.4-0.2c0.1-0.1,0.2-0.2,0.4-0.2c0.2-0.2,0.4-0.4,0.5-0.4c0-0.1,0.1-0.2,0.2-0.2
		c0.1-0.1,0.1-0.1,0.2-0.2c0.1-0.1,0.2-0.2,0.3-0.4s0.2-0.4,0.2-0.4c0-0.1,0-0.2,0.1-0.3s0.1-0.2,0.1-0.3c0.2-0.2,0.2-0.4,0.1-0.5
		c0,0,0-0.1,0-0.3c0-0.1-0.1-0.1-0.2-0.2c-0.1-0.1-0.2-0.1-0.2-0.2c0,0-0.1,0-0.2-0.1c-0.1,0-0.1,0-0.2,0c0-0.1-0.1-0.1-0.3-0.1
		c-0.1,0-0.1,0-0.2,0s-0.1,0-0.1-0.1l-0.1-0.1h-0.1H38c0,0-0.1,0-0.1-0.1s-0.1-0.1-0.2,0c-0.1,0-0.2,0-0.2,0c-0.2-0.1-0.3-0.1-0.3,0
		c0-0.1-0.2-0.1-0.5-0.1c-0.1,0-0.2,0-0.2,0c-0.2,0-0.2,0-0.3,0s0,0-0.1,0c0,0-0.1,0-0.1-0.1c-0.2,0-0.3,0-0.3,0h-0.1
		c0,0-0.2,0-0.5,0c0,0-0.1,0-0.1-0.1l-0.1-0.1c-0.1,0-0.3,0-0.4,0c-0.1,0-0.1,0-0.2-0.1c-0.1,0-0.2,0-0.3,0
		C34,45.6,33.9,45.6,33.8,45.6z M34.7,45.6c-0.1,0-0.1,0-0.2-0.1c-0.1,0-0.2,0-0.3,0s-0.2,0-0.3,0c0,0,0,0.1,0,0.3v0.1V46
		c0,0.1,0,0.1,0.1,0.2c0.1,0.1,0.1,0.1,0.1,0.2v0.1v0.1c0,0.1,0,0.1,0,0.3c0,0.1,0,0.2,0,0.3c0.1,0.1,0.1,0.2,0.1,0.3s0,0.1,0,0.2
		c0,0,0,0.1,0.1,0.1c0,0.1,0.1,0.1,0.1,0.2c0,0,0,0.1,0,0.2c0,0.1,0,0.1,0,0.2c0,0.2,0,0.2,0,0.3v0.1v0.1c0,0,0,0.1,0,0.2
		c0,0.1,0,0.1,0,0.2c0,0.1,0,0.1,0,0.1s0,0.1,0.1,0.1v0.1c0,0.1,0,0.1,0,0.2c0,0.1,0,0.2,0,0.2v0.1c0,0,0,0,0.1,0c0,0.1,0,0.1,0,0.3
		c0,0.1,0,0.2,0.1,0.3c-0.1,0.1-0.1,0.2,0,0.3c0,0.1,0,0.1,0.1,0.2c0,0,0.1,0,0.2,0c0.1,0,0.2,0,0.2,0s0,0,0-0.1c0,0,0,0,0.1,0
		s0.1,0,0.1,0h0.1h0.1c0.2,0,0.3-0.1,0.3-0.1H36c0-0.1,0.2-0.1,0.3-0.1s0.1,0,0.2,0c0.1,0,0.2-0.1,0.2-0.1c0-0.1,0.1-0.1,0.1-0.1
		s0,0,0.1,0s0.2-0.1,0.2-0.2c0.1-0.1,0.1-0.1,0.2-0.2c0.1,0,0.2-0.1,0.4-0.2c0.1-0.1,0.2-0.2,0.4-0.2c0.2-0.2,0.4-0.4,0.5-0.4
		c0-0.1,0.1-0.2,0.2-0.2c0.1-0.1,0.1-0.1,0.2-0.2c0.1-0.1,0.2-0.2,0.3-0.4s0.2-0.4,0.2-0.4c0-0.1,0-0.2,0.1-0.3s0.1-0.2,0.1-0.3
		c0.2-0.2,0.2-0.4,0.1-0.5c0,0,0-0.1,0-0.3c0-0.1-0.1-0.1-0.2-0.2c-0.1-0.1-0.2-0.1-0.2-0.2c0,0-0.1,0-0.2-0.1c-0.1,0-0.1,0-0.2,0
		c0-0.1-0.1-0.1-0.3-0.1c-0.1,0-0.1,0-0.2,0s-0.1,0-0.1-0.1l-0.1-0.1h-0.1h-0.1c0,0-0.1,0-0.1-0.1s-0.1-0.1-0.2,0
		c-0.1,0-0.2,0-0.2,0c-0.2-0.1-0.3-0.1-0.3,0c0-0.1-0.2-0.1-0.5-0.1c-0.1,0-0.2,0-0.2,0c-0.2,0-0.2,0-0.3,0s0,0-0.1,0
		c0,0-0.1,0-0.1-0.1c-0.2,0-0.3,0-0.3,0h-0.1c0,0-0.2,0-0.5,0c0,0-0.1,0-0.1-0.1L35,45.6C34.9,45.5,34.8,45.6,34.7,45.6z M47.5,59.7
		C47.5,59.7,47.6,59.8,47.5,59.7C47.6,59.8,47.6,59.8,47.5,59.7C47.5,59.8,47.5,59.8,47.5,59.7C47.5,59.8,47.5,59.8,47.5,59.7z
		 M47.6,59.8C47.5,59.8,47.5,59.8,47.6,59.8C47.5,59.8,47.5,59.8,47.6,59.8C47.5,59.7,47.6,59.8,47.6,59.8L47.6,59.8z"/>
	<path fill="#643282" d="M59,37.3c0,0.1,0.1,0.2,0.2,0.2l0.1-0.1l0,0h0.1v0.1c0,0,0,0.1,0.1,0.1c0.1,0.1,0.1,0.1,0.1,0.2
		c0.1,0.1,0.1,0.2,0.2,0.2c0.1,0.1,0.2,0.1,0.3,0.1c0,0.1,0,0.1-0.1,0.2h-0.1c0,0.1,0,0.1,0.1,0.2c0,0.1,0,0.1,0.1,0.2
		c0,0.1,0.1,0.1,0.1,0.2V39c0,0.1,0,0.1,0,0.1v0.1l0.1,0.1v0.1v0.1c0,0,0,0.1,0.1,0.1c0,0,0,0.1,0.1,0.1c0,0.2,0,0.2,0.1,0.3
		c0.1,0.3,0.1,0.4,0.2,0.5c0,0.3,0,0.4,0.1,0.5c0,0.1,0,0.2,0,0.3s0.1,0.2,0,0.2v0.1c0,0,0,0.1,0,0.2s0,0.1,0,0.2c0,0,0,0,0.1,0
		c0,0,0,0,0.1,0c0,0.2,0,0.3,0,0.4c0,0.1,0,0.1,0,0.1l0,0l0,0c0,0,0,0,0,0.1v0.1c0,0,0,0.1,0,0.2c0,0.1,0,0.3,0.1,0.5s0.1,0.4,0,0.5
		c0.1,0.1,0.2,0.3,0.2,0.5c0,0.1,0,0.1,0,0.1s0,0,0,0.1c0,0,0,0.1,0.1,0.1c0,0,0,0.1,0,0.2c0,0.1,0,0.1,0,0.2v0.1c0,0,0,0.1,0.1,0.1
		c0,0,0,0.1,0,0.2c0,0.1,0,0.1,0,0.2c0,0.1,0,0.1,0.1,0.2c0.1,0.1,0.1,0.1,0,0.2l0.2,0.1c0,0.1,0,0.1-0.1,0.2c0,0.1,0,0.1,0,0.2
		c0,0.1,0,0.1,0,0.1s0,0,0,0.1c0,0,0,0,0,0.1l0,0c0.1,0.2,0.1,0.3,0,0.3c0,0.3,0.1,0.5,0.1,0.5H62c0,0,0,0.2,0,0.5v0.1
		c0,0,0,0.1,0.1,0.2c0,0,0,0.1,0,0.2c0,0.1,0,0.2,0,0.2s0,0.1,0.1,0.2c0,0.1,0,0.1,0.1,0.2c0,0.1,0,0.2,0,0.2v0.1v0.1
		c0,0.1,0,0.1,0.1,0.1c0,0.2,0.1,0.3,0.1,0.3c-0.1,0.1-0.1,0.2,0,0.2l0,0v0.1v0.1c0,0,0,0.1,0.1,0.1c0,0.1,0,0.1,0,0.2
		c0,0.1,0,0.1,0,0.3c0,0.1,0,0.2,0,0.3c0,0,0,0.1,0.1,0.1l0.1,0.1c0,0.2,0.1,0.4,0.1,0.4s0.1,0.1,0.2,0.1c0.1,0,0.2,0.1,0.2,0.1v0.1
		c0,0,0,0.1,0.1,0.1s0.1,0,0.2,0.1c0,0.1,0,0.2,0.1,0.3s0.1,0.2,0.1,0.3s0.1,0.1,0.1,0.1c-0.1,0.1-0.1,0.2-0.2,0.2
		c0,0,0,0.1-0.1,0.2c0,0.1,0,0.2-0.1,0.3c-0.1,0-0.1,0.1-0.1,0.1c0,0.1,0,0.1,0,0.2c0,0.1,0,0.1,0,0.1s0,0,0,0.1v0.1
		c0,0,0,0.1,0.1,0.1l0.1,0.1c0,0.1,0,0.1,0,0.2c0,0.1,0,0.2,0.1,0.2c0,0.4,0.1,0.7,0.3,0.8c-0.1,0.3,0,0.5,0.1,0.5
		c0,0.1,0,0.2,0.1,0.2c0,0,0,0,0.1,0l0,0v0.1c0,0.1,0,0.1,0,0.1c0,0.1,0,0.1,0,0.1s0,0.1,0.1,0.1c0,0.1,0,0.2,0.1,0.2
		c0.1,0.1,0.1,0.2,0.1,0.2s0.1,0.1,0.1,0.3c0,0.1,0.1,0.2,0.2,0.3c0,0.2,0.1,0.2,0.2,0.2c0,0,0,0.1,0.1,0.1c0,0.1,0.1,0.1,0.1,0.2
		c0.1,0.1,0.2,0.2,0.2,0.3l0.1,0.1l0.1,0.1v0.1c0,0.1,0,0.1,0,0.1c0,0.1,0,0.2,0,0.3s0,0.2,0,0.3c0.1,0.1,0.1,0.2,0,0.3
		c-0.1,0-0.1,0.1-0.2,0.2c-0.1,0-0.2,0.1-0.3,0.2C65,59.9,64.9,60,64.8,60v0.1v0.1h-0.3c0-0.1-0.1-0.2-0.2-0.2
		c-0.1-0.1-0.2-0.1-0.2-0.2c-0.2,0-0.3,0-0.3-0.1v0.1v0.1c-0.1,0-0.1,0-0.1-0.1v-0.1c0,0-0.1-0.1-0.2-0.1c-0.2-0.2-0.4-0.4-0.5-0.4
		c0-0.2-0.1-0.3-0.3-0.3c0-0.1,0-0.1,0-0.2l0,0c0-0.1-0.1-0.1-0.1-0.2c-0.1-0.1-0.1-0.2-0.1-0.2h-0.1c0-0.2,0-0.3-0.1-0.4
		c0-0.1,0-0.2-0.1-0.3h-0.1l0,0v-0.1c0-0.1,0-0.1,0-0.1s0-0.1-0.1-0.1c0-0.1,0-0.1,0-0.2h-0.2l0.1-0.2c0-0.1,0-0.2-0.1-0.2
		c0-0.2,0-0.3-0.2-0.3v-0.1c0-0.1,0-0.1,0-0.1v-0.1V56c0,0,0-0.1-0.1-0.2c0-0.1-0.1-0.2-0.1-0.2c-0.1-0.3-0.1-0.4-0.2-0.4v-0.1
		c0-0.1,0-0.1,0-0.1s0-0.1-0.1-0.1L61,54.8v-0.1v-0.1c0,0,0,0,0-0.1c0,0,0,0,0-0.1s-0.1-0.2-0.1-0.2s-0.1,0-0.2,0
		c-0.1,0-0.1,0-0.2,0c-0.1,0-0.2,0.1-0.2,0.1l0,0l0,0c0,0,0,0-0.1,0h-0.1c0,0-0.1,0-0.1,0.1c0,0,0,0-0.1-0.1c-0.1,0-0.1,0-0.2,0.1
		c-0.1,0-0.1,0.1-0.1,0.1c-0.1-0.1-0.1-0.1-0.2-0.1c-0.1,0-0.1,0.1-0.1,0.2c-0.2,0-0.2,0-0.3,0c-0.1-0.1-0.1-0.1-0.2-0.1
		c0,0,0,0-0.1,0.1c0,0-0.1,0-0.2-0.1c-0.1,0-0.2,0-0.3,0.2c-0.1,0-0.2,0-0.2,0c-0.1-0.1-0.2-0.1-0.4-0.1s-0.3,0.1-0.3,0.1
		c-0.4,0-0.7,0-0.8,0s-0.2,0-0.3,0c-0.2,0-0.3,0-0.4,0c0,0.1,0,0.1,0,0.2c0,0-0.1,0-0.3-0.2c0,0-0.1,0-0.1,0.1c0,0-0.1,0-0.2,0
		c-0.1,0-0.2,0-0.2,0s-0.1,0-0.1-0.1h-0.1c-0.1,0-0.1,0-0.2,0.1c-0.1-0.1-0.2-0.1-0.2-0.1s-0.1,0-0.1,0.1s-0.1,0.1-0.1,0.1
		c0-0.1-0.1-0.2-0.1-0.2s-0.1,0-0.2,0.1c-0.1,0.1-0.1,0.1-0.1,0.1s0,0.1-0.2,0.2c0,0.1,0,0.2-0.1,0.3v0.1c0,0,0,0.1-0.1,0.1
		l-0.1,0.1c0,0.1,0,0.1-0.1,0.2c0,0.1-0.1,0.2-0.1,0.3l0,0l0,0v0.1c0,0,0,0.1-0.1,0.2c0,0.1-0.1,0.2-0.2,0.3c0,0.1,0,0.1,0,0.2
		c-0.1,0.1-0.1,0.1-0.1,0.1s0,0,0,0.1v0.1c0,0,0,0-0.1,0.1c-0.1,0-0.1,0-0.1,0.1c0,0.2-0.1,0.4-0.2,0.4c0,0.1,0,0.2,0,0.3h-0.2
		c-0.1,0.3-0.1,0.4-0.2,0.4c0,0.1,0,0.1,0.1,0.2c0,0,0,0.1-0.1,0.1c0,0,0,0.1-0.1,0.2c-0.1,0-0.1,0.1-0.2,0.3c0,0,0,0.1-0.1,0.1v0.1
		c0,0,0,0,0,0.1v0.1c-0.1,0.2-0.2,0.3-0.2,0.4l0.7-0.3c0,0.1,0,0.1-0.1,0.2v0.1v0.1c0,0,0,0.1-0.1,0.1c0,0,0,0-0.1,0c0,0,0,0-0.1,0
		c0,0,0,0.1-0.1,0.2c-0.1,0-0.1,0-0.1,0.1s-0.1,0.1-0.1,0.1s-0.1,0-0.1-0.1c0,0,0-0.1-0.1-0.1s-0.1,0-0.1,0h-0.1c0-0.1,0-0.2,0-0.2
		c-0.2,0-0.3,0-0.4,0c0-0.1,0-0.2-0.1-0.2h-0.1h-0.1c0,0,0,0,0-0.1V60c-0.1,0-0.1,0-0.1,0c0,0.1,0,0.1-0.1,0.1c0-0.1,0-0.1-0.1-0.2
		c-0.1-0.1-0.1-0.1-0.1-0.2c-0.1,0-0.1,0-0.1,0c0-0.1,0-0.2,0-0.2h-0.1c0-0.1,0-0.3,0-0.4l0,0l0,0c0.1-0.1,0.1-0.3,0.1-0.5
		c-0.1-0.1-0.1-0.2-0.1-0.2h0.1l0,0c0,0,0-0.1,0-0.2H50c0,0,0-0.1,0-0.2c0-0.1,0-0.1,0-0.1l0.1-0.1c0-0.1,0-0.2,0.2-0.3
		c0-0.1,0-0.1,0-0.1l-0.1-0.1c0.1,0,0.2-0.1,0.2-0.2c0,0,0.1,0,0.1-0.1s0-0.2,0-0.2c0-0.1,0-0.1,0-0.1v-0.1c0-0.1,0-0.1,0-0.1
		s0-0.1,0.1-0.1c0-0.1,0.1-0.2,0.2-0.3c0.1,0,0.2-0.1,0.2-0.1c0.1-0.2,0.1-0.2,0.2-0.3c0-0.1,0-0.3,0.1-0.4c0.1-0.2,0.1-0.3,0.1-0.4
		c0,0,0.1,0,0.2-0.1c0-0.1,0.1-0.1,0.1-0.1c0-0.1,0-0.2,0.1-0.3s0.1-0.2,0.1-0.3c-0.1-0.1-0.1-0.1,0-0.2H52c0.1-0.1,0.1-0.2,0-0.3
		c-0.1,0-0.2,0-0.2,0c0-0.2-0.2-0.4-0.4-0.5c0,0,0,0,0.1-0.1c0,0,0.1,0,0.1-0.1c0,0,0-0.1-0.1-0.2c-0.1-0.1-0.1-0.1-0.1-0.1
		s0.1-0.1,0.2-0.3c0-0.1,0.1-0.2,0.2-0.3s0.2-0.1,0.2-0.2l0.5-0.1c0,0,0.2,0,0.3,0c0.2,0,0.2,0,0.2-0.1v-0.1c0-0.1,0-0.1,0-0.1
		s0.1,0,0.1-0.1s0-0.1,0-0.1v-0.1c0,0,0,0,0.1-0.1c0,0,0,0,0-0.1c0-0.2,0.1-0.3,0.2-0.3c0.1-0.2,0.1-0.4,0-0.5c0.1,0,0.1,0,0.2-0.2
		c0-0.1,0.1-0.2,0.1-0.2c0-0.1,0-0.2,0.1-0.3c0-0.1,0.1-0.2,0-0.3c0-0.1,0.1-0.1,0.1-0.2c0-0.1,0.1-0.1,0.1-0.2c0-0.1,0-0.2,0.1-0.3
		c0,0,0-0.1,0.1-0.2c0,0,0,0,0-0.1c0,0,0,0,0-0.1c0.1-0.1,0.1-0.1,0.1-0.2v-0.1v-0.1c0,0,0,0,0.1-0.1c0.1-0.2,0.1-0.3,0.2-0.3V47
		c0,0,0,0,0.1-0.1c0,0,0.1,0,0.1-0.1v-0.1v-0.1c0.1-0.2,0.1-0.3,0.1-0.3l0.1-0.1c0,0,0-0.1,0.1-0.1V46c0-0.1,0-0.1,0-0.1
		s0-0.1,0.1-0.1l0.1-0.1v-0.1c0-0.1,0-0.1,0-0.2c0.1,0,0.1-0.1,0.1-0.1c0.1-0.2,0.1-0.4,0.1-0.4c0-0.1,0-0.2,0.1-0.3
		c0-0.1,0.1-0.3,0.1-0.4c0,0,0.1-0.1,0.1-0.3s0.1-0.3,0.1-0.3c0-0.1,0-0.1,0.1-0.2c0-0.1,0-0.1,0.1-0.1v-0.1v-0.1c0,0,0.1,0,0.1-0.1
		l0.1-0.1c0,0,0-0.1,0-0.2c0-0.1,0-0.1,0-0.2c0,0,0,0-0.1,0h-0.1c0-0.1,0-0.1,0-0.2c0.1,0,0.2,0,0.2,0v-0.1v-0.1V42c0,0,0,0,0.1-0.1
		c0,0,0-0.1,0-0.2c0-0.1,0-0.1,0-0.1c0-0.1,0-0.1,0.1-0.2c0.1-0.1,0.1-0.2,0.1-0.3c0.1-0.1,0.1-0.1,0.1-0.3s0-0.2,0.1-0.2v-0.1
		l0.1-0.1c0-0.1,0.1-0.1,0.1-0.1c0-0.1,0-0.2,0-0.2c0-0.1,0.1-0.1,0.1-0.2v-0.1v-0.1c0,0,0-0.1,0.1-0.2c0,0,0-0.1,0.1-0.2
		c0.1-0.1,0.1-0.1,0.1-0.2V39c0-0.1,0-0.1,0-0.2c0.1-0.2,0.1-0.4,0.1-0.4h0.1c0-0.2,0.1-0.3,0.2-0.4c0-0.1,0-0.2,0.1-0.2
		c0,0,0,0-0.1-0.1c0,0,0,0,0-0.1h-0.1c0-0.1,0-0.1,0-0.2h0.1c0,0,0-0.1,0-0.2c-0.1-0.2-0.1-0.2,0-0.2s0.1,0,0.1-0.1c0,0,0,0,0.1,0.1
		c0,0,0,0,0.1,0c0-0.1,0-0.1,0.1-0.3c0-0.1,0-0.1,0-0.1s0,0,0.1,0c0,0,0,0,0.1,0c0.3-0.2,0.5-0.2,0.7-0.1c0.1,0.1,0.1,0.1,0.2,0.1
		c0,0,0.1,0,0.1-0.1C58.7,37.2,58.8,37.2,59,37.3z M59,37.3c0,0.1,0.1,0.2,0.2,0.2l0.1-0.1l0,0h0.1v0.1c0,0,0,0.1,0.1,0.1
		c0.1,0.1,0.1,0.1,0.1,0.2c0.1,0.1,0.1,0.2,0.2,0.2c0.1,0.1,0.2,0.1,0.3,0.1c0,0.1,0,0.1-0.1,0.2h-0.1c0,0.1,0,0.1,0.1,0.2
		c0,0.1,0,0.1,0.1,0.2c0,0.1,0.1,0.1,0.1,0.2V39c0,0.1,0,0.1,0,0.1v0.1l0.1,0.1v0.1v0.1c0,0,0,0.1,0.1,0.1c0,0,0,0.1,0.1,0.1
		c0,0.2,0,0.2,0.1,0.3c0.1,0.3,0.1,0.4,0.2,0.5c0,0.3,0,0.4,0.1,0.5c0,0.1,0,0.2,0,0.3s0.1,0.2,0,0.2v0.1c0,0,0,0.1,0,0.2
		s0,0.1,0,0.2c0,0,0,0,0.1,0c0,0,0,0,0.1,0c0,0.2,0,0.3,0,0.4c0,0.1,0,0.1,0,0.1l0,0l0,0c0,0,0,0,0,0.1v0.1v0.1v0.1
		c0,0.1,0,0.2,0.1,0.4s0.1,0.4,0,0.5c0.1,0.1,0.2,0.3,0.2,0.5c0,0.1,0,0.1,0,0.1s0,0,0,0.1c0,0,0,0.1,0.1,0.1c0,0,0,0.1,0,0.2
		c0,0.1,0,0.1,0,0.2v0.1c0,0,0,0.1,0.1,0.1c0,0,0,0.1,0,0.2c0,0.1,0,0.1,0,0.2c0,0.1,0,0.1,0.1,0.2c0.1,0.1,0.1,0.1,0,0.2l0.2,0.1
		c0,0.1,0,0.1-0.1,0.2c0,0.1,0,0.1,0,0.2c0,0.1,0,0.1,0,0.1s0,0,0,0.1c0,0,0,0,0,0.1l0,0c0.1,0.2,0.1,0.3,0,0.3
		c0,0.3,0.1,0.5,0.1,0.5H62c0,0,0,0.2,0,0.5v0.1c0,0,0,0.1,0.1,0.2c0,0,0,0.1,0,0.2c0,0.1,0,0.2,0,0.2s0,0.1,0.1,0.2
		c0,0.1,0,0.1,0.1,0.2c0,0.1,0,0.2,0,0.2v0.1v0.1c0,0.1,0,0.1,0.1,0.1c0,0.2,0.1,0.3,0.1,0.3c-0.1,0.1-0.1,0.2,0,0.2l0,0v0.1v0.1
		c0,0,0,0.1,0.1,0.1c0,0.1,0,0.1,0,0.2c0,0.1,0,0.1,0,0.3c0,0.1,0,0.2,0,0.3c0,0,0,0.1,0.1,0.1l0.1,0.1c0,0.2,0.1,0.4,0.1,0.4
		S63,52,63.1,52c0.1,0,0.2,0.1,0.2,0.1v0.1c0,0,0,0.1,0.1,0.1s0.1,0,0.2,0.1c0,0.1,0,0.2,0.1,0.3s0.1,0.2,0.1,0.3s0.1,0.1,0.1,0.1
		c-0.1,0.1-0.1,0.2-0.2,0.2c0,0,0,0.1-0.1,0.2c0,0.1,0,0.2-0.1,0.3c-0.1,0-0.1,0.1-0.1,0.1c0,0.1,0,0.1,0,0.2c0,0.1,0,0.1,0,0.1
		s0,0,0,0.1v0.1c0,0,0,0.1,0.1,0.1l0.1,0.1c0,0.1,0,0.1,0,0.2c0,0.1,0,0.2,0.1,0.2c0,0.4,0.1,0.7,0.3,0.8c-0.1,0.3,0,0.5,0.1,0.5
		c0,0.1,0,0.2,0.1,0.2h0.1v0.1c0,0.1,0,0.1,0,0.1c0,0.1,0,0.1,0,0.1s0,0.1,0.1,0.1c0,0.1,0,0.2,0.1,0.2c0.1,0.1,0.1,0.2,0.1,0.2
		s0.1,0.1,0.1,0.3c0,0.1,0.1,0.2,0.2,0.3c0,0.2,0.1,0.2,0.2,0.2c0,0,0,0.1,0.1,0.1c0,0.1,0.1,0.1,0.1,0.2c0.1,0.1,0.2,0.2,0.2,0.3
		l0.1,0.1l0.1,0.1V59c0,0.1,0,0.1,0,0.1c0,0.1,0,0.2,0,0.3s0,0.2,0,0.3c0.1,0.1,0.1,0.2,0,0.3c-0.1,0-0.1,0.1-0.2,0.2
		c-0.1,0-0.2,0.1-0.3,0.2C65,59.9,64.9,60,64.8,60v0.1v0.1h-0.3c0-0.1-0.1-0.2-0.2-0.2c-0.1-0.1-0.2-0.1-0.2-0.2
		c-0.2,0-0.3,0-0.3-0.1v0.1v0.1c-0.1,0-0.1,0-0.1-0.1v-0.1c0,0-0.1-0.1-0.2-0.1c-0.2-0.2-0.4-0.4-0.5-0.4c0-0.2-0.1-0.3-0.3-0.3
		c0-0.1,0-0.1,0-0.2l0,0c0-0.1-0.1-0.1-0.1-0.2c-0.1-0.1-0.1-0.2-0.1-0.2h-0.1c0-0.2,0-0.3-0.1-0.4c0-0.1,0-0.2-0.1-0.3h-0.1l0,0
		v-0.1c0-0.1,0-0.1,0-0.1s0-0.1-0.1-0.1c0-0.1,0-0.1,0-0.2h-0.2l0.1-0.2c0-0.1,0-0.2-0.1-0.2c0-0.2,0-0.3-0.2-0.3v-0.1
		c0-0.1,0-0.1,0-0.1v-0.1V56c0,0,0-0.1-0.1-0.2c0-0.1-0.1-0.2-0.1-0.2c-0.1-0.3-0.1-0.4-0.2-0.4v-0.1c0-0.1,0-0.1,0-0.1
		s0-0.1-0.1-0.1L61,54.8c0,0,0,0,0-0.1s0-0.1,0-0.1s0,0,0-0.1c0,0,0,0,0-0.1s-0.1-0.2-0.1-0.2s-0.1,0-0.2,0c-0.1,0-0.1,0-0.2,0
		c-0.1,0-0.2,0.1-0.2,0.1l0,0l0,0c0,0,0,0-0.1,0h-0.1c0,0-0.1,0-0.1,0.1c0,0,0,0-0.1-0.1c-0.1,0-0.1,0-0.2,0.1
		c-0.1,0-0.1,0.1-0.1,0.1c-0.1-0.1-0.1-0.1-0.2-0.1c-0.1,0-0.1,0.1-0.1,0.2c-0.2,0-0.2,0-0.3,0c-0.1-0.1-0.1-0.1-0.2-0.1
		c0,0,0,0-0.1,0.1c0,0-0.1,0-0.2-0.1c-0.1,0-0.2,0-0.3,0.2c-0.1,0-0.2,0-0.2,0c-0.1-0.1-0.2-0.1-0.4-0.1s-0.3,0.1-0.3,0.1
		c-0.4,0-0.7,0-0.8,0s-0.2,0-0.3,0c-0.2,0-0.3,0-0.4,0c0,0.1,0,0.1,0,0.2c0,0-0.1,0-0.3-0.2c0,0-0.1,0-0.1,0.1c0,0-0.1,0-0.2,0
		c-0.1,0-0.2,0-0.2,0s-0.1,0-0.1-0.1h-0.1c-0.1,0-0.1,0-0.2,0.1c-0.1-0.1-0.2-0.1-0.2-0.1s-0.1,0-0.1,0.1s-0.1,0.1-0.1,0.1
		c0-0.1-0.1-0.2-0.1-0.2s-0.1,0-0.2,0.1c-0.1,0.1-0.1,0.1-0.1,0.1s0,0.1-0.2,0.2c0,0.1,0,0.2-0.1,0.3v0.1c0,0,0,0.1-0.1,0.1
		l-0.1,0.1c0,0.1,0,0.1-0.1,0.2c0,0.1-0.1,0.2-0.1,0.3l0,0l0,0v0.1c0,0,0,0.1-0.1,0.2c0,0.1-0.1,0.2-0.2,0.3c0,0.1,0,0.1,0,0.2
		c-0.1,0.1-0.1,0.1-0.1,0.1s0,0,0,0.1v0.1c0,0,0,0-0.1,0.1c-0.1,0-0.1,0-0.1,0.1c0,0.2-0.1,0.4-0.2,0.4c0,0.1,0,0.2,0,0.3h-0.2
		c-0.1,0.3-0.1,0.4-0.2,0.4c0,0.1,0,0.1,0.1,0.2c0,0,0,0.1-0.1,0.1c0,0,0,0.1-0.1,0.2c-0.1,0-0.1,0.1-0.2,0.3c0,0,0,0.1-0.1,0.1v0.1
		c0,0,0,0,0,0.1v0.1c-0.1,0.2-0.2,0.3-0.2,0.4l0.7-0.3c0,0.1,0,0.1-0.1,0.2v0.1v0.1c0,0,0,0.1-0.1,0.1c0,0,0,0-0.1,0c0,0,0,0-0.1,0
		c0,0,0,0.1-0.1,0.2c-0.1,0-0.1,0-0.1,0.1s-0.1,0.1-0.1,0.1s-0.1,0-0.1-0.1c0,0,0-0.1-0.1-0.1s-0.1,0-0.1,0h-0.1c0-0.1,0-0.2,0-0.2
		c-0.2,0-0.3,0-0.4,0c0-0.1,0-0.2-0.1-0.2h-0.1h-0.1c0,0,0,0,0-0.1V60c-0.1,0-0.1,0-0.1,0c0,0.1,0,0.1-0.1,0.1c0-0.1,0-0.1-0.1-0.2
		c-0.1-0.1-0.1-0.1-0.1-0.2c-0.1,0-0.1,0-0.1,0c0-0.1,0-0.2,0-0.2h-0.1c0-0.1,0-0.3,0-0.4l0,0l0,0c0.1-0.1,0.1-0.3,0.1-0.5
		c-0.1-0.1-0.1-0.2-0.1-0.2h0.1l0,0c0,0,0-0.1,0-0.2H50c0,0,0-0.1,0-0.2c0-0.1,0-0.1,0-0.1l0.1-0.1c0-0.1,0-0.2,0.2-0.3
		c0-0.1,0-0.1,0-0.1l-0.1-0.1c0.1,0,0.2-0.1,0.2-0.2c0,0,0.1,0,0.1-0.1s0-0.2,0-0.2c0-0.1,0-0.1,0-0.1v-0.1c0-0.1,0-0.1,0-0.1
		s0-0.1,0.1-0.1c0-0.1,0.1-0.2,0.2-0.3c0.1,0,0.2-0.1,0.2-0.1c0.1-0.2,0.1-0.2,0.2-0.3c0-0.1,0-0.3,0.1-0.4c0.1-0.2,0.1-0.3,0.1-0.4
		c0,0,0.1,0,0.2-0.1c0-0.1,0.1-0.1,0.1-0.1c0-0.1,0-0.2,0.1-0.3s0.1-0.2,0.1-0.3c-0.1-0.1-0.1-0.1,0-0.2H52c0.1-0.1,0.1-0.2,0-0.3
		c-0.1,0-0.2,0-0.2,0c0-0.2-0.2-0.4-0.4-0.5c0,0,0,0,0.1-0.1c0,0,0.1,0,0.1-0.1c0,0,0-0.1-0.1-0.2c-0.1-0.1-0.1-0.1-0.1-0.1
		s0.1-0.1,0.2-0.3c0-0.1,0.1-0.2,0.2-0.3s0.2-0.1,0.2-0.2l0.5-0.1c0,0,0.2,0,0.3,0c0.2,0,0.2,0,0.2-0.1v-0.1c0-0.1,0-0.1,0-0.1
		s0.1,0,0.1-0.1s0-0.1,0-0.1v-0.1c0,0,0,0,0.1-0.1c0,0,0,0,0-0.1c0-0.2,0.1-0.3,0.2-0.3c0.1-0.2,0.1-0.4,0-0.5c0.1,0,0.1,0,0.2-0.2
		c0-0.1,0.1-0.2,0.1-0.2c0-0.1,0-0.2,0.1-0.3c0-0.1,0.1-0.2,0-0.3c0-0.1,0.1-0.1,0.1-0.2c0-0.1,0.1-0.1,0.1-0.2c0-0.1,0-0.2,0.1-0.3
		c0,0,0-0.1,0.1-0.2c0,0,0,0,0-0.1c0,0,0,0,0-0.1c0.1-0.1,0.1-0.1,0.1-0.2v-0.1v-0.1c0,0,0,0,0.1-0.1c0.1-0.2,0.1-0.3,0.2-0.3V47
		c0,0,0,0,0.1-0.1c0,0,0.1,0,0.1-0.1v-0.1v-0.1c0.1-0.2,0.1-0.3,0.1-0.3l0.1-0.1c0,0,0-0.1,0.1-0.1V46c0-0.1,0-0.1,0-0.1
		s0-0.1,0.1-0.1l0.1-0.1v-0.1c0-0.1,0-0.1,0-0.2c0.1,0,0.1-0.1,0.1-0.1c0.1-0.2,0.1-0.4,0.1-0.4c0-0.1,0-0.2,0.1-0.3
		c0-0.1,0.1-0.3,0.1-0.4c0,0,0.1-0.1,0.1-0.3s0.1-0.3,0.1-0.3c0-0.1,0-0.1,0.1-0.2c0-0.1,0-0.1,0.1-0.1v-0.1v-0.1c0,0,0.1,0,0.1-0.1
		l0.1-0.1c0,0,0-0.1,0-0.2c0-0.1,0-0.1,0-0.2c0,0,0,0-0.1,0h-0.1c0-0.1,0-0.1,0-0.2c0.1,0,0.2,0,0.2,0v-0.1v-0.1V42c0,0,0,0,0.1-0.1
		c0,0,0-0.1,0-0.2c0-0.1,0-0.1,0-0.1c0-0.1,0-0.1,0.1-0.2c0.1-0.1,0.1-0.2,0.1-0.3c0.1-0.1,0.1-0.1,0.1-0.3s0-0.2,0.1-0.2v-0.1
		l0.1-0.1c0-0.1,0.1-0.1,0.1-0.1c0-0.1,0-0.2,0-0.2c0-0.1,0.1-0.1,0.1-0.2v-0.1v-0.1c0,0,0-0.1,0.1-0.2c0,0,0-0.1,0.1-0.2
		c0.1-0.1,0.1-0.1,0.1-0.2V39c0-0.1,0-0.1,0-0.2c0.1-0.2,0.1-0.4,0.1-0.4h0.1c0-0.2,0.1-0.3,0.2-0.4c0-0.1,0-0.2,0.1-0.2
		c0,0,0,0-0.1-0.1c0,0,0,0,0-0.1h-0.1c0-0.1,0-0.1,0-0.2h0.1c0,0,0-0.1,0-0.2c-0.1-0.2-0.1-0.2,0-0.2s0.1,0,0.1-0.1c0,0,0,0,0.1,0.1
		c0,0,0,0,0.1,0c0-0.1,0-0.1,0.1-0.3c0-0.1,0-0.1,0-0.1s0,0,0.1,0c0,0,0,0,0.1,0c0.3-0.2,0.5-0.2,0.7-0.1c0.1,0.1,0.1,0.1,0.2,0.1
		c0,0,0.1,0,0.1-0.1C58.7,37.2,58.8,37.2,59,37.3z M51.7,54L51.7,54C51.7,54.1,51.7,54.1,51.7,54z M51.7,54.1L51.7,54.1
		C51.7,54,51.7,54,51.7,54.1z M58.5,42.3C58.5,42.4,58.5,42.4,58.5,42.3l-0.2,0.2v0.1c0,0.1,0,0.1,0,0.2c0,0.1-0.1,0.1-0.1,0.1
		s0,0,0,0.1v0.1c0,0,0,0.1-0.1,0.1L58,43.3c0,0,0,0.1,0,0.2c0,0.1,0,0.2-0.1,0.2v0.1c-0.1,0.1-0.1,0.2-0.1,0.4
		c-0.1,0.1-0.1,0.1-0.1,0.1v0.1c0,0.1,0,0.1-0.1,0.2c-0.1,0.1-0.1,0.1-0.1,0.1s0,0,0,0.1s0,0.1,0,0.1s0,0.1-0.1,0.1l-0.1,0.1
		c0,0,0,0.1,0,0.2c0,0.1,0,0.1,0,0.2l-0.1,0.3c0,0,0,0.1,0,0.2v0.1l-0.1,0.3c0,0-0.1,0.1-0.1,0.2c0,0.1,0,0.2-0.1,0.2
		c0,0.1,0,0.1,0,0.1c0.1-0.1,0,0,0.1,0.1c0,0-0.1,0.1-0.1,0.2c0,0.1-0.1,0.1-0.1,0.2l-0.1,0.3v0.1c0,0,0,0,0,0.1c0,0,0,0,0,0.1
		c0,0,0,0,0,0.1c0,0,0,0,0,0.1v0.1v0.1c-0.1,0.2-0.1,0.3-0.1,0.4c0,0.1,0,0.1-0.1,0.2c-0.1,0.1-0.1,0.1-0.1,0.2v0.1v0.1
		c0,0,0,0.1,0,0.2c0,0.1,0,0.1,0,0.2c0,0-0.1,0-0.1,0.1L56.2,50c0,0,0,0.1,0,0.2c0,0.1,0,0.1,0,0.2c0,0-0.1,0.1-0.1,0.2
		C56,50.7,56,50.8,56,50.9c-0.1,0-0.1,0.1-0.1,0.2c0,0.1-0.1,0.2-0.1,0.2c0,0.3,0,0.4-0.1,0.5c0,0.1,0,0.2-0.1,0.2
		c0,0,0,0.1-0.1,0.1v0.1v0.1v0.1c0,0.1,0.1,0.1,0.3,0c0,0,0,0,0.1,0s0.1,0,0.2,0c0,0,0,0,0.1,0c0,0,0,0,0.1,0h0.1c0,0,0,0,0.1,0h0.1
		c0.3,0,0.6,0,0.7-0.1c0.1,0.1,0.3,0.1,0.5,0h0.1l0.1-0.1h0.1c0,0,0,0,0.1,0c0.2,0,0.4,0,0.4,0s0,0,0.1,0h0.1
		c0.1,0.1,0.2,0.1,0.4,0.1l0.1-0.1c0.1,0,0.2,0,0.4,0s0.3,0,0.4,0c0-0.1,0.1-0.1,0.1-0.1h0.1l0.1-0.1h0.1c0.1,0,0.1,0,0.1,0
		s0.1,0,0.2-0.1c0.1,0,0.1-0.1,0.1-0.1v-0.1c0-0.1,0-0.1,0-0.1s0,0,0-0.1v-0.1c0,0,0,0,0-0.1c0,0,0,0,0-0.1
		c-0.1-0.3-0.1-0.5-0.1-0.7h-0.1v-0.1c0-0.1,0-0.1,0-0.3c0,0,0,0,0-0.1s0-0.1,0-0.1s0,0,0-0.1v-0.1v-0.1c0-0.1,0-0.1-0.1-0.2
		c0-0.1-0.1-0.1-0.1-0.2s0-0.1,0-0.1V49c0,0-0.1,0-0.1-0.1s-0.1-0.2-0.1-0.2c-0.1,0-0.1-0.1-0.1-0.2c0-0.1,0-0.2,0-0.2
		c0-0.1,0-0.2-0.1-0.3c0-0.1-0.1-0.2-0.1-0.2v-0.3v-0.1v-0.1c0,0,0,0,0-0.1v-0.1c0,0,0-0.1,0-0.2c0-0.1,0-0.1,0-0.2v-0.1
		c0-0.1,0-0.2,0-0.2s-0.1-0.1-0.2-0.3L59.7,46v-0.1c0,0,0-0.1-0.1-0.1l-0.1-0.1v-0.1v-0.1c0-0.1,0-0.2,0-0.2s0-0.1-0.1-0.1
		c0-0.1-0.1-0.1-0.1-0.2v-0.1v-0.1c0,0,0-0.1-0.1-0.1s0-0.1,0-0.1s0-0.1,0-0.2c0-0.1,0-0.1,0-0.2c0,0,0,0,0-0.1c0,0,0,0-0.1-0.1
		c0,0,0-0.1,0-0.2c0,0,0-0.1,0-0.2c0-0.1,0-0.2,0-0.2c-0.1,0-0.1-0.2-0.1-0.6C58.6,42.7,58.5,42.6,58.5,42.3L58.5,42.3z M58.4,42.4
		C58.4,42.4,58.3,42.5,58.4,42.4C58.3,42.5,58.3,42.5,58.4,42.4c-0.1,0.1-0.1,0.2-0.1,0.2c0,0.1,0,0.1,0,0.2c0,0.1-0.1,0.1-0.1,0.1
		s0,0,0,0.1v0.1c0,0,0,0.1-0.1,0.1L58,43.3c0,0,0,0.1,0,0.2c0,0.1,0,0.2-0.1,0.2v0.1c-0.1,0.1-0.1,0.2-0.1,0.4
		c-0.1,0.1-0.1,0.1-0.1,0.1v0.1c0,0.1,0,0.1-0.1,0.2c-0.1,0.1-0.1,0.1-0.1,0.1s0,0,0,0.1s0,0.1,0,0.1s0,0.1-0.1,0.1l-0.1,0.1
		c0,0,0,0.1,0,0.2c0,0.1,0,0.1,0,0.2l-0.1,0.3c0,0,0,0.1,0,0.2v0.1l-0.1,0.3c0,0-0.1,0.1-0.1,0.2c0,0.1,0,0.2-0.1,0.2
		c0,0.1,0,0.1,0,0.1c0.1-0.1,0,0,0.1,0.1c0,0-0.1,0.1-0.1,0.2c0,0.1-0.1,0.1-0.1,0.2l-0.1,0.3v0.1c0,0,0,0,0,0.1c0,0,0,0,0,0.1
		c0,0,0,0,0,0.1c0,0,0,0,0,0.1v0.1v0.1c-0.1,0.2-0.1,0.3-0.1,0.4c0,0.1,0,0.1-0.1,0.2c-0.1,0.1-0.1,0.1-0.1,0.2v0.1v0.1
		c0,0,0,0.1,0,0.2c0,0.1,0,0.1,0,0.2c0,0-0.1,0-0.1,0.1L56.2,50c0,0.1,0,0.1,0,0.2c0,0.1,0,0.1,0,0.2c0,0-0.1,0.1-0.1,0.2
		C56,50.7,56,50.8,56,50.9c-0.1,0-0.1,0.1-0.1,0.2c0,0.1-0.1,0.2-0.1,0.2c0,0.3,0,0.4-0.1,0.5c0,0.1,0,0.2-0.1,0.2
		c0,0,0,0.1-0.1,0.1v0.1v0.1v0.1c0,0.1,0.1,0.1,0.3,0c0,0,0.1,0,0.3,0c0,0,0,0,0.1,0c0,0,0,0,0.1,0h0.1c0,0,0,0,0.1,0h0.1
		c0.3,0,0.6,0,0.7-0.1c0.1,0.1,0.3,0.1,0.5,0h0.1l0.1-0.1h0.1c0,0,0,0,0.1,0c0.2,0,0.4,0,0.4,0s0,0,0.1,0h0.1
		c0.1,0.1,0.2,0.1,0.4,0.1l0.1-0.1c0.1,0,0.2,0,0.4,0s0.3,0,0.4,0c0-0.1,0.1-0.1,0.1-0.1h0.1l0.1-0.1h0.1c0.1,0,0.1,0,0.1,0
		s0.1,0,0.2-0.1c0.1,0,0.1-0.1,0.1-0.1v-0.1c0-0.1,0-0.1,0-0.1s0,0,0-0.1v-0.1c0,0,0,0,0-0.1c0,0,0,0,0-0.1
		c-0.1-0.3-0.1-0.5-0.1-0.7h-0.1v-0.1c0-0.1,0-0.1,0-0.3c0,0,0,0,0-0.1s0-0.1,0-0.1s0,0,0-0.1v-0.1v-0.1c0-0.1,0-0.1-0.1-0.2
		c0-0.1-0.1-0.1-0.1-0.2s0-0.1,0-0.1V49c0,0-0.1,0-0.1-0.1s-0.1-0.2-0.1-0.2c-0.1,0-0.1-0.1-0.1-0.2c0-0.1,0-0.2,0-0.2
		c0-0.1,0-0.2-0.1-0.3c0-0.1-0.1-0.2-0.1-0.2v-0.3v-0.1v-0.1c0,0,0,0,0-0.1v-0.1c0,0,0-0.1,0-0.2c0-0.1,0-0.1,0-0.2v-0.1
		c0-0.1,0-0.2,0-0.2s-0.1-0.1-0.2-0.3L59.7,46v-0.1c0,0,0-0.1-0.1-0.1l-0.1-0.1v-0.1v-0.1c0-0.1,0-0.2,0-0.2s0-0.1-0.1-0.1
		c0-0.1-0.1-0.1-0.1-0.2v-0.1v-0.1c0,0,0-0.1-0.1-0.1s0-0.1,0-0.1s0-0.1,0-0.2c0-0.1,0-0.1,0-0.2c0,0,0,0,0-0.1c0,0,0,0-0.1-0.1
		c0,0,0-0.1,0-0.2c0,0,0-0.1,0-0.2c0-0.1,0-0.2,0-0.2c-0.1,0-0.1-0.2-0.1-0.6c-0.1,0-0.1-0.2-0.2-0.5l0,0
		C58.5,42.3,58.5,42.4,58.4,42.4z M59.8,54.1C59.8,54.1,59.8,54.2,59.8,54.1C59.8,54.2,59.8,54.2,59.8,54.1z M59.8,54.2L59.8,54.2
		C59.8,54.1,59.8,54.2,59.8,54.2z M60.2,38.8C60.2,38.7,60.2,38.7,60.2,38.8C60.3,38.7,60.3,38.8,60.2,38.8L60.2,38.8z M60.3,38.7
		L60.3,38.7C60.2,38.8,60.2,38.8,60.3,38.7C60.2,38.7,60.2,38.7,60.3,38.7z"/>
	<path fill="#643282" d="M82.4,54.1c0.1-0.1,0.1-0.2,0.1-0.2c0.1,0,0.1,0,0.2-0.1c0,0,0,0,0-0.1c0,0,0,0,0-0.1c0,0,0-0.1,0-0.2
		c0-0.1,0-0.2,0-0.2s0,0,0.1-0.1c0,0,0-0.1-0.1-0.1c0,0-0.1,0-0.1-0.1c0,0,0,0,0.1,0s0.1,0,0.1,0c0-0.1,0.1-0.2,0.2-0.3
		c0-0.1,0.1-0.1,0.1-0.1c0-0.1,0-0.1,0-0.2v-0.1H83c0-0.1,0-0.1,0.1-0.3s0-0.2,0.1-0.2c-0.1-0.2-0.1-0.3,0.2-0.4c0,0-0.1,0-0.1-0.1
		s0,0,0-0.1s0-0.2,0-0.4h0.1c0-0.3,0.1-0.5,0.2-0.6c0,0,0-0.1-0.1-0.2c0-0.1,0-0.2,0-0.3c0,0,0.1-0.1,0.2-0.1c0-0.2,0-0.2,0.1-0.2
		c0-0.1,0-0.3,0-0.4c0-0.1,0.1-0.2,0.2-0.2l-0.1-0.3c0.1,0,0.2,0,0.2-0.1c0,0,0-0.1-0.1-0.1l-0.1-0.1H84c0,0,0,0,0.1,0
		s0.1-0.1,0-0.2c0-0.1,0-0.2,0-0.2h0.1c0.1,0,0.1,0,0.1,0s0-0.1-0.1-0.1c0,0,0-0.1,0.1-0.1c0,0,0.1,0,0.1-0.1c0,0,0-0.1-0.1-0.3
		C84,47.1,84,47,84,47c0.1-0.1,0.2-0.2,0.1-0.3H84c0,0,0-0.1,0-0.2c0-0.1,0-0.1,0-0.1s0-0.2,0-0.4v-0.1c0-0.1,0-0.1,0-0.1
		c-0.1-0.2-0.1-0.3,0-0.3l0.1-0.1c0-0.1,0-0.2,0-0.3c0-0.2,0-0.3,0.1-0.3c-0.1,0-0.1-0.1-0.1-0.1s0.1,0,0.1-0.1s0-0.1,0-0.2
		c0-0.1-0.1-0.1-0.1-0.2c0,0,0,0,0.1,0c0,0,0,0,0.1,0v-0.1c0-0.1,0-0.1,0-0.1c0.1,0,0.1,0,0.2-0.1c0.1,0,0.1,0,0.2,0.1
		c0,0,0-0.1,0-0.2c0.1,0,0.2,0,0.3,0c0.1,0,0.2,0,0.3,0c0.1,0.1,0.2,0.1,0.3,0.1c0,0.1,0,0.1,0.1,0.1s0.2,0,0.3,0c0.1,0,0.2,0,0.3,0
		c0,0,0,0.1,0,0.2c0,0.1,0,0.1,0,0.1s0,0.1,0.1,0.2c0.1,0.1,0.1,0.1,0.2,0.2c0,0.1,0,0.1,0,0.2c0,0.1,0.1,0.1,0.1,0.2v0.1
		c0,0,0,0.1,0.1,0.2c0.1,0.1,0.1,0.2,0.1,0.2c0,0.1,0,0.2,0.1,0.3c0,0.2,0,0.3,0.1,0.3c0,0.1,0,0.1,0,0.2C87,46.5,87,46.6,87,46.7
		c0,0.2,0,0.3,0,0.4c0.1,0,0.1,0.1,0,0.3c0,0.1,0.1,0.1,0,0.1c0,0,0,0.1-0.1,0.1s-0.1,0.1-0.1,0.1s0,0.1,0.1,0.1
		c0,0.1,0.1,0.1,0.1,0.2c0,0.1,0,0.1,0,0.2c0,0.1,0,0.1,0,0.2v0.1v0.1c0,0-0.1,0.1-0.2,0.1c0,0,0,0.1,0,0.2c0,0.1,0,0.1,0,0.2v0.1
		v0.1c-0.1,0-0.1,0-0.2,0c0,0.1,0,0.1,0,0.2c0,0,0,0.2,0,0.5c-0.2,0.1-0.2,0.2-0.1,0.4c-0.2,0.1-0.2,0.2,0,0.3c0,0.1,0,0.1,0,0.1
		s0,0-0.1,0c0,0.1,0,0.1,0,0.1C86.3,51,86.2,51,86.2,51c0,0.1,0,0.1,0,0.2c-0.1,0-0.1,0.1-0.1,0.2c0,0.1,0,0.2,0.1,0.2
		c0,0.1,0,0.2,0,0.3C86,51.9,86,52,86,52.2c0.1,0.1,0.1,0.2,0.1,0.2c-0.1,0-0.2,0.1-0.2,0.2c0,0.1,0,0.2,0,0.3
		c-0.1,0-0.2,0.1-0.2,0.3v0.1c0,0,0,0.1,0.1,0.1c0,0,0,0.1,0,0.2c0,0.1,0,0.1,0,0.2c-0.2,0.1-0.2,0.2-0.2,0.3
		c-0.1,0.1-0.1,0.2-0.1,0.4c0,0,0,0.1,0.1,0.1l0.1,0.1h-0.1c0,0-0.1,0-0.1,0.1s-0.1,0.1-0.1,0.2c0,0.1,0,0.1,0,0.2
		c0,0.1,0,0.2,0,0.2l-0.1,0.1c-0.1,0.1-0.1,0.1-0.1,0.1c0,0.1,0,0.1-0.1,0.2c-0.1,0.1,0,0.2,0.1,0.2c0,0.1,0,0.2,0,0.2
		c-0.1,0-0.2,0-0.2,0c0,0.1,0,0.2-0.1,0.2v0.1c0,0,0,0.1,0,0.2c0,0.1,0,0.1,0,0.2c0,0,0,0.1-0.1,0.2c-0.1,0.1-0.1,0.1,0,0.2
		c0,0-0.1,0-0.1,0.1c0,0,0,0,0,0.1c0,0.2,0,0.2,0,0.3c0,0,0,0-0.1,0c0,0,0,0-0.1,0c0,0,0,0.1,0,0.2c0,0,0,0.1-0.1,0.2
		c0,0.1-0.1,0.1-0.1,0.2c0.1,0.1,0.1,0.2,0.1,0.2c-0.1,0-0.1,0-0.2,0.1c0,0-0.1,0.1-0.1,0.2c0.1,0.1,0.1,0.1,0.1,0.1
		C84,59.1,84,59.1,84,59.2v0.1v0.1c-0.1,0-0.1,0.1-0.2,0.2s-0.1,0.2-0.1,0.2v0.1c0,0.1,0,0.1,0,0.1h-0.1c-0.1,0-0.1,0.1-0.1,0.1v0.1
		h-0.1h-0.1c0,0-0.1,0.1-0.2,0.2h-0.3c0,0.1-0.1,0.1,0,0.3c-0.1,0-0.1,0-0.1,0l0,0c0,0.1,0,0.1,0,0.1c-0.1-0.1-0.1-0.2-0.2-0.2h-0.1
		h-0.1c0,0-0.1,0-0.1-0.1h-0.1c-0.1,0.1-0.2,0.1-0.2,0.1c0-0.1,0-0.1,0-0.2s0-0.1,0-0.2c0,0-0.1,0-0.2,0s-0.1-0.1-0.2-0.2
		c0-0.1,0-0.1,0-0.1c-0.1,0.1-0.1,0.1-0.2,0v-0.1c0,0,0,0,0-0.1h-0.1c0,0,0-0.1-0.1-0.1L81,59.5h-0.1l-0.1-0.1
		c-0.1-0.1-0.2-0.2-0.3-0.2c0,0,0,0,0-0.1c0,0,0,0,0-0.1c0,0,0,0-0.1,0l0,0v-0.1l-0.1-0.1c0-0.1-0.1-0.3-0.3-0.6c-0.1,0-0.1,0-0.1,0
		s-0.1-0.1-0.1-0.3c-0.1-0.1-0.2-0.1-0.2-0.1c0-0.1,0-0.1-0.1-0.2c0-0.1,0-0.2-0.1-0.3l-0.1-0.1c0-0.2-0.1-0.3-0.3-0.3v-0.1v-0.1
		c0,0,0,0-0.1-0.1c0,0-0.1,0-0.1-0.1c0,0-0.1-0.1-0.1-0.2c0-0.1-0.1-0.1-0.1-0.2c0-0.1,0-0.2-0.1-0.3v-0.1c0,0,0,0-0.1-0.1
		c-0.1,0-0.1-0.1-0.1-0.1c-0.1,0-0.1,0-0.1,0s0,0,0-0.1c0,0,0,0,0-0.1h-0.1c0-0.1,0-0.2,0-0.2s0,0,0.1,0l0,0c0-0.1,0-0.1-0.2,0h-0.1
		c0-0.1,0-0.1,0-0.2c0-0.1,0-0.1,0-0.1s0,0-0.1-0.1l0,0c0-0.1,0-0.1-0.1-0.2v-0.1c0,0,0-0.1,0-0.2c0,0,0-0.1-0.1-0.1h-0.1
		c0-0.1,0-0.2-0.1-0.3c0-0.1,0-0.1-0.1-0.2h-0.1c0-0.1,0-0.1-0.1-0.2c0-0.1,0-0.1-0.1-0.2c0-0.1-0.1-0.2-0.1-0.2
		c0-0.1-0.1-0.1-0.2-0.1v-0.1c0-0.1,0-0.1,0-0.2c0,0-0.1,0-0.1-0.1c0,0,0,0-0.1-0.1c0-0.1,0-0.2,0-0.2c0-0.1-0.1-0.1-0.1-0.2
		c0,0-0.1-0.1-0.1-0.2c0-0.1,0-0.1-0.1-0.2c-0.1,0-0.1,0.1-0.2,0.3V52c0,0.1,0,0.1-0.1,0.1c0,0,0,0-0.1,0.1v0.1c0,0,0,0,0,0.1v0.1
		c0,0,0,0-0.1,0.1c0,0-0.1,0.1-0.1,0.2c0,0.1,0,0.1-0.1,0.2c0,0.1-0.1,0.1-0.2,0.2c0,0.1,0,0.2-0.1,0.3v0.1l-0.1,0.1c0,0,0,0,0,0.1
		c0,0,0,0,0,0.1L75,54c-0.1,0.1-0.1,0.2,0,0.2c0,0,0,0.1-0.1,0.1c0,0,0,0.1,0,0.2c0,0.1,0,0.1,0,0.2l0,0l0,0c0.1,0,0.1,0.1,0.1,0.1
		s0,0.1-0.1,0.3s-0.1,0.3,0,0.3c-0.1,0-0.2,0.1-0.2,0.2c0,0.1-0.1,0.2-0.1,0.2c0,0.1,0,0.1,0,0.1V56l-0.1,0.2c0,0,0,0.1,0.1,0.1
		s0.1,0.1,0.1,0.1h-0.1c0,0-0.1,0-0.1,0.1s0,0.1,0,0.2h-0.1c0,0,0,0.1,0,0.2v0.2c0,0,0,0-0.1,0s-0.1,0.1-0.1,0.2c0,0.1,0,0.2,0,0.2
		c-0.1,0-0.1,0-0.2,0.1c0,0.1,0,0.2,0.1,0.2c0,0.1,0,0.1,0,0.1c0,0.1-0.1,0.1-0.1,0.2c0,0,0,0.1,0,0.2c0,0.1,0,0.2,0,0.3
		c0,0,0,0-0.1,0s-0.1,0.1,0,0.2c0,0.1,0,0.2,0,0.2s-0.1,0.1-0.1,0.2c0,0.1,0,0.1,0.1,0.1c0,0,0,0.1,0,0.2c-0.1,0.1-0.1,0.1-0.1,0.2
		v0.1c0,0.1,0,0.1,0,0.1s0,0.1-0.1,0.1l-0.1,0.1c-0.1,0-0.2,0-0.3,0.1c0,0.1-0.1,0.1-0.1,0.1v0.1v0.1c0,0,0,0-0.1,0l0,0
		c-0.1,0-0.1,0.1-0.1,0.2c0,0-0.1,0.1-0.1,0.2c-0.1,0-0.1,0-0.2,0c-0.3-0.2-0.4-0.2-0.4,0c0,0-0.1,0-0.2,0s-0.2,0-0.2,0v-0.1
		c0-0.1-0.1-0.2-0.2-0.2c0-0.1,0-0.1-0.1-0.2c0-0.1,0-0.2-0.1-0.3c0,0,0-0.1-0.1-0.2h-0.1c0,0-0.1-0.1-0.1-0.2
		c0-0.1-0.1-0.1-0.2-0.1l-0.1-0.1c0-0.1,0-0.2,0-0.3s0-0.2,0-0.3c0,0,0-0.1-0.1-0.1s-0.1-0.1-0.1-0.1c-0.1-0.2-0.1-0.3-0.2-0.3
		c0,0,0-0.1,0-0.2c0-0.2,0-0.3-0.2-0.3c0-0.2,0-0.3,0.1-0.3c0-0.1,0-0.2-0.1-0.3c0,0,0,0-0.1,0c0,0,0,0-0.1,0v-0.1v-0.1V57
		c0,0,0,0-0.1,0c0,0,0,0-0.1,0v-0.1c-0.1-0.1-0.1-0.2-0.1-0.3c0-0.2,0-0.3,0-0.5c-0.1,0-0.2-0.1-0.2-0.3s-0.1-0.3-0.2-0.3
		c0-0.1,0-0.1,0-0.3c0.1-0.1,0-0.2-0.2-0.2c0-0.1-0.1-0.2,0-0.3c0-0.1,0-0.1,0-0.1s0,0,0-0.1c0,0,0,0-0.1-0.1c0,0,0-0.1,0-0.2
		s0-0.1,0-0.1s0,0-0.1-0.1c0,0,0-0.1-0.1-0.1c0-0.1,0-0.1-0.1-0.3s0-0.2-0.1-0.3h-0.1l0.1-0.1c0-0.1,0-0.2-0.1-0.3h-0.1
		c-0.1,0-0.1,0-0.2,0c0,0,0-0.1,0.1-0.2c0-0.1,0-0.1,0-0.2c0-0.1-0.1-0.1-0.1-0.1c0-0.2,0-0.3-0.2-0.3c0-0.1,0-0.2,0-0.3
		C68,51.7,68,51.6,68,51.6s0,0-0.1,0v-0.1c0,0,0,0,0-0.1c0,0-0.1,0-0.2,0v-0.1v-0.1c0,0,0,0-0.1,0l0,0v-0.1c0-0.1,0.1-0.1,0.1-0.2
		c0,0-0.1,0-0.1-0.1c0,0,0-0.1-0.1-0.1v-0.1c0,0,0-0.1-0.1-0.1l-0.1-0.1v-0.1c0-0.1-0.1-0.1-0.1-0.2c0-0.1-0.1-0.2-0.1-0.2v-0.3
		c0-0.1,0-0.1-0.1-0.1s-0.1-0.1-0.1-0.1c-0.1,0-0.1,0-0.1,0c0-0.2-0.1-0.2-0.1-0.3c0.1,0,0.1-0.1,0.1-0.2c0-0.1-0.1-0.1-0.2-0.1
		c0,0,0-0.1,0-0.2c0-0.2,0-0.3-0.1-0.4c0-0.1,0-0.1-0.1-0.2c-0.1,0-0.1,0-0.1,0c0-0.1,0-0.2,0-0.4s0-0.3,0-0.3s0-0.1,0.1-0.1v-0.1
		c0,0,0,0,0-0.1s0-0.1,0-0.1s0,0,0.1-0.1c0.1,0,0.1-0.1,0-0.1c0.2-0.1,0.3-0.2,0.2-0.3c0.1,0,0.2,0,0.2-0.1s0.1-0.1,0.1-0.2
		c0,0.1,0.1,0.1,0.2,0.1s0.2,0,0.3,0c0,0,0.1,0,0.1,0.1v0.1h0.3c0.1,0.1,0.2,0.2,0.4,0.2v0.1c0,0,0,0,0.1,0v0.1
		c0.1,0.1,0.2,0.2,0.2,0.3c0.1,0.1,0.2,0.1,0.2,0.1v0.1v0.1c0,0,0,0.1,0.1,0.1c0,0.1,0.1,0.1,0.1,0.1c0,0.1,0.1,0.1,0.2,0.1
		c0,0.1,0,0.1-0.1,0.2c0,0.1,0,0.1,0.1,0.2l0.1,0.1c-0.1,0.1-0.1,0.2-0.1,0.3c0,0,0.1,0.1,0.2,0.1c-0.1,0.2-0.1,0.2-0.1,0.3V49
		c0,0,0,0,0.1,0c0,0.1,0,0.2,0.1,0.2c0,0,0,0,0,0.1h0.1l0,0c0,0,0,0.1,0,0.3s0,0.2,0.1,0.2h0.1c0,0,0,0.1,0,0.2
		c0,0.1-0.1,0.1-0.1,0.2c0,0.1,0,0.1,0.1,0.1c0,0.1,0,0.2,0,0.2s0.1,0,0.2,0l0,0c0,0-0.1,0-0.1,0.1s0,0.1,0,0.1c0,0.1,0,0.1,0,0.2
		c0,0,0,0,0.1,0.1c0,0,0.1,0,0.1,0.1v0.1c0,0.1,0,0.1,0,0.1s0,0.1,0.1,0.1c0,0,0,0,0.1,0.1c0,0,0,0,0,0.1s0,0.1,0,0.1s0,0.1,0.1,0.1
		c0.1,0.1,0.1,0.1,0.1,0.1v0.2c0,0,0,0.1,0.1,0.1c0,0.1,0,0.2,0.2,0.4c0,0.1,0,0.2,0,0.2c0,0.1,0.1,0.2,0.1,0.2
		c0.1,0,0.1,0.1,0.1,0.3v0.1c0,0.1,0,0.1,0,0.2c0,0,0,0,0.2,0c0,0.1,0,0.1,0,0.2c0,0.1,0,0.1,0,0.1c0,0.1,0.1,0.1,0.2,0.1v0.1v0.1
		l0,0c0,0,0,0,0.1,0c0,0.1,0,0.2-0.1,0.3c0,0.1,0,0.2,0,0.2c0.1,0,0.1,0,0.2-0.1c0-0.2,0-0.4,0.1-0.4c0-0.1,0-0.2,0-0.2h0.1
		c0.1,0,0.1-0.1,0.1-0.2s0-0.2,0-0.2l0,0c0,0,0,0,0.1,0c0,0,0-0.1,0-0.2c0.1-0.1,0.1-0.1,0.2-0.2c0-0.1,0-0.2,0.1-0.2
		c0,0,0-0.1,0-0.2c0.2-0.3,0.4-0.6,0.4-0.8c0-0.1,0.1-0.1,0.1-0.1c0-0.1,0-0.1,0-0.2c0-0.1,0-0.1,0-0.2c0.1,0,0.2-0.2,0.2-0.5
		c0.2-0.3,0.3-0.5,0.3-0.7c0.1,0,0.1-0.1,0.1-0.1c0.1-0.1,0.1-0.2,0.1-0.3c0,0,0.1,0,0.1-0.1s0.1-0.1,0.2-0.2v-0.1l0.1-0.1v-0.1
		c0-0.1,0-0.1,0.1-0.2c0,0,0,0,0-0.1h-0.1c0-0.1,0-0.2,0-0.3c0,0,0.1,0,0.2,0c0-0.1,0-0.1,0-0.2h0.1c0,0,0-0.1,0.1-0.1v-0.2
		c0,0,0-0.1,0.1-0.1l0.1-0.1c0,0,0-0.1,0-0.2c0,0,0-0.1,0.1-0.1c0-0.1,0.1-0.1,0.1-0.1s0,0,0-0.1c0,0,0,0,0-0.1
		c0.2-0.2,0.3-0.3,0.3-0.4c0.1,0,0.1-0.1,0.2-0.3c0,0,0.1,0,0.1,0.1c0.1,0,0.1-0.1,0.1-0.2c0.1,0,0.2,0,0.3,0c0,0,0-0.1,0.1-0.2h0.1
		H76c0,0,0.1,0.1,0.2,0.3c0,0,0,0,0-0.1l0,0c0,0,0,0,0.1,0c0,0.1,0,0.2,0.1,0.2c0.1-0.1,0.2-0.1,0.3-0.1c0,0.1,0,0.2,0.1,0.2
		c-0.1,0.1-0.1,0.2,0,0.2c0.1,0.1,0.2,0.1,0.2,0v0.1v0.1c0,0,0,0.1,0.1,0.2c0,0.1,0,0.1,0.1,0.2c0.1,0.2,0.1,0.3,0.1,0.3
		c0.1,0.1,0.1,0.1,0.1,0.1v0.1v0.1l0,0c0,0,0.1,0,0.1,0.1v0.1c0,0.1,0,0.1,0,0.1v0.1v0.1c0,0,0,0.1,0.1,0.1l0.1,0.1
		c0,0,0,0.1,0.1,0.2c0,0.1,0,0.1,0.1,0.1c0,0.2,0,0.3,0.1,0.4c0,0.2,0.1,0.3,0.2,0.5c0,0,0,0.1,0.1,0.2c0.1,0.1,0.1,0.2,0.1,0.3
		c0.1,0,0.1,0.1,0.1,0.2c0,0.1,0,0.2,0.1,0.2c0,0.1,0,0.2,0.2,0.3v0.1c0.1,0.1,0.2,0.2,0.2,0.3s0,0.2,0,0.2c0,0.1,0.1,0.1,0.1,0.1
		c0,0.1,0,0.1,0,0.1s0,0.1,0.1,0.1c0,0.1,0.1,0.1,0.1,0.1v0.1v0.1c0,0,0.1,0.1,0.2,0.1c0,0.1,0,0.1,0.1,0.2c0,0.1,0,0.1,0.1,0.2
		c0.1,0.1,0.1,0.1,0.1,0.1v0.1c0,0,0,0,0,0.1c0,0,0,0,0.1,0.1l0.1,0.1c0,0.1,0,0.2,0.2,0.2v0.1V54h0.1v0h0.1v0.1l0,0
		c-0.1,0.1-0.1,0.2,0,0.3c0,0.1,0.1,0.2,0.3,0.5c0,0.1,0,0.2,0.1,0.2h0.1H81c0,0.1,0,0.1,0,0.2c0,0,0.1,0,0.1,0.1
		c0,0.2,0.1,0.3,0.3,0.5c0,0.2,0.1,0.2,0.2,0.1c0.1-0.1,0.1-0.2,0.1-0.3h0.1c0,0,0-0.1,0-0.2v-0.1c0.2,0,0.2-0.1,0.2-0.3
		c0-0.1,0-0.2,0-0.3h0.1c0.1,0,0.1,0,0.1,0v-0.1c0-0.1,0-0.1,0-0.1c-0.1-0.1-0.1-0.2-0.1-0.2c0.1,0,0.2,0,0.2-0.2
		C82.4,54.2,82.4,54.2,82.4,54.1L82.4,54.1z M82.5,53.9c0.1,0,0.1,0,0.2-0.1c0,0,0,0,0-0.1c0,0,0,0,0-0.1c0,0,0-0.1,0-0.2
		c0-0.1,0-0.2,0-0.2s0,0,0.1-0.1c0,0,0-0.1-0.1-0.1c0,0-0.1,0-0.1-0.1c0,0,0,0,0.1,0s0.1,0,0.1,0c0-0.1,0.1-0.2,0.2-0.3
		c0-0.1,0.1-0.1,0.1-0.1c0-0.1,0-0.1,0-0.2v-0.1H83c0-0.1,0-0.1,0.1-0.3s0-0.2,0.1-0.2c-0.1-0.2-0.1-0.3,0.2-0.4c0,0-0.1,0-0.1-0.1
		s0,0,0-0.1s0-0.2,0-0.4h0.1c0-0.3,0.1-0.5,0.3-0.6L83.6,50c0-0.1,0-0.2,0-0.3c0,0,0.1-0.1,0.2-0.1c0-0.2,0-0.2,0.1-0.2
		c0-0.1,0-0.3,0-0.4c0-0.1,0.1-0.2,0.2-0.2L84,48.5c0.1,0,0.2,0,0.2-0.1c0,0,0-0.1-0.1-0.1L84,48.2h0.1c0,0,0,0,0.1,0s0.1-0.1,0-0.2
		c0-0.1,0-0.2,0-0.2h0.1c0.1,0,0.1,0,0.1,0s0-0.1-0.1-0.1c0,0,0-0.1,0.1-0.1c0,0,0.1,0,0.1-0.1c0,0,0-0.1-0.1-0.3
		C84,47.1,84,47,84,47c0.1-0.1,0.2-0.2,0.1-0.3H84c0,0,0-0.1,0-0.2c0-0.1,0-0.1,0-0.1s0-0.2,0-0.4v-0.1c0-0.1,0-0.1,0-0.1
		c-0.1-0.2-0.1-0.3,0-0.3l0.1-0.1c0-0.1,0-0.2,0-0.3c0-0.2,0-0.3,0.1-0.3c-0.1,0-0.1-0.1-0.1-0.1s0.1,0,0.1-0.1s0-0.1,0-0.2
		c0-0.1-0.1-0.1-0.1-0.2c0,0,0,0,0.1,0c0,0,0,0,0.1,0v-0.1c0-0.1,0-0.1,0-0.1c0.1,0,0.1,0,0.2-0.1c0.1,0,0.1,0,0.2,0.1
		c0,0,0-0.1,0-0.2c0.1,0,0.2,0,0.3,0c0.1,0,0.2,0,0.3,0c0.1,0.1,0.2,0.1,0.3,0.1c0,0.1,0,0.1,0.1,0.1s0.2,0,0.3,0c0.1,0,0.2,0,0.3,0
		c0,0,0,0.1,0,0.2c0,0.1,0,0.1,0,0.1s0,0.1,0.1,0.2c0.1,0.1,0.1,0.1,0.2,0.2c0,0.1,0,0.1,0,0.2c0,0.1,0.1,0.1,0.1,0.2v0.1
		c0,0,0,0.1,0.1,0.2c0.1,0.1,0.1,0.2,0.1,0.2c0,0.1,0,0.2,0.1,0.3c0,0.2,0,0.3,0.1,0.3c0,0,0,0.1,0,0.2C87,46.5,87,46.6,87,46.7
		c0,0.2,0,0.3,0,0.4c0.1,0,0.1,0.1,0,0.3c0,0.1,0.1,0.1,0,0.1c0,0,0,0.1-0.1,0.1s-0.1,0.1-0.1,0.1s0,0.1,0.1,0.1
		c0,0.1,0.1,0.1,0.1,0.2c0,0.1,0,0.1,0,0.2c0,0.1,0,0.2,0,0.2c0,0.1,0,0.1,0,0.1s-0.1,0.1-0.2,0.1c0,0,0,0.1,0,0.2
		c0,0.1,0,0.1,0,0.2c0.1,0.1,0.1,0.1,0.1,0.2c-0.1,0-0.1,0-0.2,0c0,0.1,0,0.1,0,0.2c0,0,0,0.2,0,0.5c-0.2,0.1-0.2,0.2-0.1,0.4
		c-0.2,0.1-0.2,0.2,0,0.3c0,0.1,0,0.1,0,0.1s0,0-0.1,0c0,0.1,0,0.1,0,0.1c-0.1,0.1-0.2,0.1-0.2,0.1c0,0.1,0,0.1,0,0.2
		c-0.1,0-0.1,0.1-0.1,0.2c0,0.1,0,0.2,0.1,0.2c0,0.1,0,0.2,0,0.3c-0.2,0-0.2,0.1-0.2,0.3c0.1,0.1,0.1,0.2,0.1,0.2
		c-0.1,0-0.2,0.1-0.2,0.2c0,0.1,0,0.2,0,0.3c-0.1,0-0.2,0.1-0.2,0.3v0.1c0,0,0,0.1,0.1,0.1c0,0,0,0.1,0,0.2c0,0.1,0,0.1,0,0.2
		c-0.2,0.1-0.2,0.2-0.2,0.3c-0.1,0.1-0.1,0.2-0.1,0.4c0,0,0,0.1,0.1,0.1l0.1,0.1h-0.1c0,0-0.1,0-0.1,0.1s-0.1,0.1-0.1,0.2
		c0,0.1,0,0.1,0,0.2c0,0.1,0,0.2,0,0.2l-0.1,0.1c-0.1,0.1-0.1,0.1-0.1,0.1c0,0.1,0,0.1-0.1,0.2c-0.1,0.1,0,0.2,0.1,0.2
		c0,0.1,0,0.2,0,0.2c-0.1,0-0.2,0-0.2,0c0,0.1,0,0.2-0.1,0.2v0.1c0,0,0,0.1,0,0.2c0,0.1,0,0.1,0,0.2c0,0,0,0.1-0.1,0.2
		c-0.1,0.1-0.1,0.1,0,0.2c0,0-0.1,0-0.1,0.1c0,0,0,0,0,0.1c0,0.2,0,0.2,0,0.3c0,0,0,0-0.1,0c0,0,0,0-0.1,0c0,0,0,0.1,0,0.2
		c0,0,0,0.1-0.1,0.2c0,0.1-0.1,0.1-0.1,0.2c0.1,0.1,0.1,0.2,0.1,0.2c-0.1,0-0.1,0-0.2,0.1c0,0-0.1,0.1-0.1,0.2
		c0.1,0.1,0.1,0.1,0.1,0.1c-0.2,0.1-0.2,0.1-0.2,0.2v0.1v0.1c-0.1,0-0.1,0.1-0.2,0.2s-0.1,0.2-0.1,0.2v0.1c0,0.1,0,0.1,0,0.1h-0.1
		L83.6,60v0.1h-0.1h-0.1c0,0-0.1,0.1-0.2,0.2h-0.3c0,0.1-0.1,0.1,0,0.3c-0.1,0-0.1,0-0.1,0l0,0c0,0.1,0,0.1,0,0.1
		c-0.1-0.1-0.1-0.2-0.2-0.2h-0.1h-0.1c0,0-0.1,0-0.1-0.1h-0.1c-0.1,0.1-0.2,0.1-0.2,0.1c0-0.1,0-0.1,0-0.2s0-0.1,0-0.2
		c0,0-0.1,0-0.2,0s-0.1-0.1-0.2-0.2c0-0.1,0-0.1,0-0.1c-0.1,0.1-0.1,0.1-0.2,0v-0.1c0,0,0,0,0-0.1h-0.1c0,0,0-0.1-0.1-0.1l-0.1-0.1
		H81l-0.1-0.1c-0.1-0.1-0.2-0.2-0.3-0.2c0-0.1,0-0.1,0-0.1s0,0-0.1,0l0,0v-0.1l-0.1-0.1c0-0.1-0.1-0.3-0.3-0.6c-0.1,0-0.1,0-0.1,0
		s-0.1-0.1-0.1-0.3c-0.1-0.1-0.2-0.1-0.2-0.1c0-0.1,0-0.1-0.1-0.2c0-0.1,0-0.2-0.1-0.3l-0.1-0.1c0-0.2-0.1-0.3-0.3-0.3v-0.1v-0.1
		c0,0,0,0-0.1-0.1c0,0-0.1,0-0.1-0.1c0,0-0.1-0.1-0.1-0.2c0-0.1-0.1-0.1-0.1-0.2c0-0.1,0-0.2-0.1-0.2v-0.2c0,0,0,0-0.1-0.1
		c-0.1,0-0.1-0.1-0.1-0.1c-0.1,0-0.1,0-0.1,0s0,0,0-0.1c0,0,0,0,0-0.1h-0.1c0-0.1,0-0.2,0-0.2s0,0,0.1,0l0,0c0-0.1,0-0.1-0.2,0H78
		c0-0.1,0-0.1,0-0.2c0-0.1,0-0.1,0-0.1s0,0-0.1-0.1l0,0c0-0.1,0-0.1-0.1-0.2v-0.1c0,0,0-0.1,0-0.2c0,0,0-0.1-0.1-0.1h-0.1
		c0,0,0-0.1-0.1-0.3c0-0.1,0-0.1-0.1-0.2h-0.1c0-0.1,0-0.1-0.1-0.2c0-0.1,0-0.1-0.1-0.2c0-0.1-0.1-0.2-0.1-0.2
		c0-0.1-0.1-0.1-0.2-0.1v-0.1c0-0.1,0-0.1,0-0.2c0,0-0.1,0-0.1-0.1c0,0,0,0,0-0.1s0-0.2-0.1-0.2c0-0.1-0.1-0.1-0.1-0.2
		c0,0-0.1-0.1-0.1-0.2c0-0.1,0-0.1-0.1-0.2c-0.1,0-0.1,0.1-0.2,0.3V52c0,0.1,0,0.1-0.1,0.1c0,0,0,0-0.1,0.1v0.1c0,0,0,0,0,0.1v0.1
		c0,0,0,0-0.1,0.1c0,0-0.1,0.1-0.1,0.2c0,0.1,0,0.1-0.1,0.2c0,0.1-0.1,0.1-0.2,0.2c0,0.1,0,0.2-0.1,0.3v0.1c0,0,0,0.1-0.1,0.1v0.1
		l-0.1,0.1c-0.1,0.1-0.1,0.2,0,0.2c0,0,0,0.1-0.1,0.1c0,0,0,0.1,0,0.2c0,0.1,0,0.1,0,0.2l0,0l0,0c0,0.1,0,0.2,0,0.2s0,0.1-0.1,0.3
		s-0.1,0.3,0,0.3c-0.1,0-0.2,0.1-0.2,0.2c0,0.1-0.1,0.2-0.1,0.2c0,0.1,0,0.1,0,0.1V56l-0.1,0.2c0,0,0,0.1,0.1,0.1s0.1,0.1,0.1,0.1
		h-0.1c0,0-0.1,0-0.1,0.1s0,0.1,0,0.2h-0.1c0,0,0,0.1,0,0.2v0.2c0,0,0,0-0.1,0s-0.1,0.1-0.1,0.2c0,0.1,0,0.2,0,0.2
		c-0.1,0-0.1,0-0.2,0.1c0,0.1,0,0.2,0.1,0.2c0,0.1,0,0.1,0,0.1c0,0.1-0.1,0.1-0.1,0.2c0,0,0,0.1,0,0.2c0,0.1,0,0.2,0,0.3
		c0,0,0,0-0.1,0s-0.1,0.1,0,0.2c0,0.1,0,0.2,0,0.2s-0.1,0.1-0.1,0.2c0,0.1,0,0.1,0.1,0.1c0,0,0,0.1,0,0.2c-0.1,0.1-0.1,0.1-0.2,0.2
		v0.1c0,0.1,0,0.1,0,0.1s0,0.1-0.1,0.1l-0.1,0.1c-0.1,0-0.2,0-0.3,0.1c0,0.1-0.1,0.1-0.1,0.1v0.1v0.1c0,0,0,0-0.1,0l0,0
		c-0.1,0-0.1,0.1-0.1,0.2c0,0-0.1,0.1-0.1,0.2c-0.1,0-0.1,0-0.2,0c-0.3-0.2-0.4-0.2-0.4,0c0,0-0.1,0-0.2,0s-0.2,0-0.2,0v-0.1
		c0-0.1-0.1-0.2-0.2-0.2c0-0.1,0-0.1-0.1-0.2c0-0.1,0-0.2-0.1-0.3c0,0,0-0.1-0.1-0.2h-0.1c0,0-0.1-0.1-0.1-0.2
		c0-0.1-0.1-0.1-0.2-0.1l-0.1-0.1c0-0.1,0-0.2,0-0.3s0-0.2,0-0.3c0,0,0-0.1-0.1-0.1s-0.1-0.1-0.1-0.1c-0.1-0.2-0.1-0.3-0.2-0.3
		c0,0,0-0.1,0-0.2c0-0.2,0-0.3-0.2-0.3c0-0.2,0-0.3,0-0.3c0-0.1,0-0.2-0.1-0.3c0,0,0,0-0.1,0c0,0,0,0-0.1,0v-0.1v-0.1V57
		c0,0,0,0-0.1,0c0,0,0,0-0.1,0v-0.1c-0.1-0.1-0.1-0.2-0.1-0.3c0-0.2,0-0.3,0-0.5c-0.1,0-0.2-0.1-0.2-0.3s-0.1-0.3-0.2-0.3
		c0-0.1,0-0.1,0-0.3c0.1-0.1,0-0.2-0.2-0.2c0-0.1-0.1-0.2,0-0.3c0-0.1,0-0.1,0-0.1s0,0,0-0.1c0,0,0,0-0.1-0.1c0,0,0-0.1,0-0.2
		s0-0.1,0-0.1s0,0-0.1-0.1c0,0,0-0.1-0.1-0.1c0-0.1,0-0.1-0.1-0.3s0-0.2-0.1-0.3h-0.1l0.1-0.1c0-0.1,0-0.2-0.1-0.3h-0.1
		c-0.1,0-0.1,0-0.2,0c0,0,0-0.1,0.1-0.2c0-0.1,0-0.1,0-0.2c0-0.1-0.1-0.1-0.1-0.1c0-0.2,0-0.3-0.2-0.3c0-0.1,0-0.2,0-0.3
		c-0.1-0.1-0.1-0.2-0.1-0.2s0,0-0.1,0v-0.1c0,0,0,0,0-0.1c0,0-0.1,0-0.2,0v-0.1v-0.1c0,0,0,0-0.1,0l0,0v-0.1c0-0.1,0.1-0.1,0.1-0.2
		c0,0-0.1,0-0.1-0.1c0,0,0-0.1-0.1-0.1v-0.1c0,0,0-0.1-0.1-0.1l-0.1-0.1v-0.1c0-0.1-0.1-0.1-0.1-0.2c0-0.1-0.1-0.2-0.1-0.2v-0.3
		c0-0.1,0-0.1-0.1-0.1s-0.1-0.1-0.1-0.1c-0.1,0-0.1,0-0.1,0c0-0.2-0.1-0.2-0.1-0.3c0.1,0,0.1-0.1,0.1-0.2c0-0.1-0.1-0.1-0.2-0.1
		c0,0,0-0.1,0-0.2c0-0.2,0-0.3-0.1-0.4c0-0.1,0-0.1-0.1-0.2c-0.1,0-0.1,0-0.1,0c0-0.1,0-0.2,0-0.4s0-0.3,0-0.3s0.1-0.1,0.1-0.2V47
		c0-0.1,0-0.1,0-0.1s0,0,0.1-0.1c0.1,0,0.1-0.1,0-0.1c0.2-0.1,0.3-0.2,0.2-0.3c0.1,0,0.2,0,0.2-0.1s0.1-0.1,0.1-0.2
		c0,0.1,0.1,0.1,0.2,0.1s0.2,0,0.3,0c0,0,0.1,0,0.1,0.1v0.1h0.3c0.1,0.1,0.2,0.2,0.4,0.2v0.1c0,0,0,0,0.1,0v0.1
		c0.1,0,0.2,0.1,0.2,0.3c0.1,0.1,0.2,0.1,0.2,0.1v0.1v0.1c0,0,0,0.1,0.1,0.1c0,0.1,0.1,0.1,0.1,0.1c0,0.1,0.1,0.1,0.2,0.1
		c0,0.1,0,0.1-0.1,0.2c0,0.1,0,0.1,0.1,0.2l0.1,0.1C69,48.3,69,48.4,69,48.5c0,0,0.1,0.1,0.2,0.1c-0.1,0.2-0.1,0.2-0.1,0.3V49
		c0,0,0,0,0.1,0c0,0.1,0,0.2,0.1,0.2c0,0,0,0,0,0.1h0.1l0,0c0,0,0,0.1,0,0.3s0,0.2,0.1,0.2h0.1c0,0,0,0.1,0,0.2
		c0,0.1-0.1,0.1-0.1,0.2c0,0.1,0,0.1,0.1,0.1c0,0.1,0,0.2,0,0.2s0.1,0,0.2,0l0,0c0,0-0.1,0-0.1,0.1s0,0.1,0,0.1c0,0.1,0,0.1,0,0.2
		c0,0,0,0,0.1,0.1c0,0,0.1,0,0.1,0.1v0.1c0,0.1,0,0.1,0,0.1s0,0.1,0.1,0.1c0,0,0,0,0.1,0.1c0,0,0,0,0,0.1s0,0.1,0,0.1s0,0.1,0.1,0.1
		c0.1,0.1,0.1,0.1,0.1,0.2v0.1c0,0,0,0.1,0.1,0.1c0,0.1,0,0.2,0.2,0.4c0,0.1,0,0.2,0,0.2c0,0.1,0.1,0.2,0.1,0.2
		c0.1,0,0.1,0.1,0.1,0.3v0.1c0,0.1,0,0.1,0,0.2c0,0,0,0,0.2,0c0,0.1,0,0.1,0,0.2c0,0.1,0,0.1,0,0.1c0,0.1,0.1,0.1,0.2,0.1v0.1v0.1
		l0,0c0,0,0,0,0.1,0c0,0.1,0,0.2-0.1,0.3c0,0.1,0,0.2,0,0.2c0.1,0,0.1,0,0.2-0.1c0-0.2,0-0.4,0.1-0.4c0-0.1,0-0.2,0-0.2h0.1
		c0.1,0,0.1-0.1,0.1-0.2s0-0.2,0-0.2l0,0c0,0,0,0,0.1,0c0,0,0-0.1,0-0.2c0,0,0,0,0.1,0c0,0,0-0.1,0.1-0.1c0-0.1,0-0.2,0.1-0.2
		c0,0,0-0.1,0-0.2c0.2-0.3,0.4-0.6,0.4-0.8c0-0.1,0.1-0.1,0.1-0.1c0-0.1,0-0.1,0-0.2c0-0.1,0-0.1,0-0.2c0.1,0,0.2-0.2,0.2-0.5
		c0.2-0.3,0.3-0.5,0.3-0.7c0.1,0,0.1-0.1,0.1-0.1c0.1-0.1,0.1-0.2,0.1-0.3c0,0,0.1,0,0.1-0.1s0.1-0.1,0.2-0.2v-0.1l0.1-0.1v-0.1
		c0-0.1,0-0.1,0.1-0.2c0,0,0,0,0-0.1h-0.1c0-0.1,0-0.2,0-0.3c0,0,0.1,0,0.2,0c0-0.1,0-0.1,0-0.2H74c0,0,0-0.1,0.1-0.1v-0.2
		c0,0,0-0.1,0.1-0.1l0.1-0.1c0,0,0-0.1,0-0.2c0,0,0-0.1,0.1-0.1c0-0.1,0.1-0.1,0.1-0.1s0,0,0-0.1c0,0,0,0,0-0.1
		c0.2-0.2,0.3-0.3,0.3-0.4c0.1,0,0.1-0.1,0.2-0.3c0,0,0.1,0,0.1,0.1c0.1,0,0.1-0.1,0.1-0.2c0.1,0,0.2,0,0.3,0c0,0,0-0.1,0.1-0.2h0.1
		h0.1c0,0,0.1,0.1,0.2,0.3c0,0,0,0,0-0.1l0,0c0,0,0,0,0.1,0c0,0.1,0,0.2,0.1,0.2c0.1-0.1,0.2-0.1,0.3-0.1c0,0.1,0,0.2,0.1,0.2
		c-0.1,0.1-0.1,0.2,0,0.2c0.1,0.1,0.2,0.1,0.2,0v0.1v0.1c0,0,0,0.1,0.1,0.2c0,0.1,0,0.1,0.1,0.2c0.1,0.2,0.1,0.3,0.1,0.3
		c0.1,0.1,0.1,0.1,0.1,0.1v0.1v0.1l0,0h0.1v0.1c0,0.1,0,0.1,0,0.1v0.1v0.1c0,0,0,0.1,0.1,0.1l0.1,0.1c0,0,0,0.1,0.1,0.2
		c0,0.1,0,0.1,0.1,0.1c0,0.2,0,0.3,0.1,0.4c0,0.2,0.1,0.3,0.2,0.5c0,0,0,0.1,0.1,0.2c0.1,0.1,0.1,0.2,0.1,0.3c0.1,0,0.1,0.1,0.1,0.2
		c0,0.1,0,0.2,0.1,0.2c0,0.1,0,0.2,0.2,0.3v0.1c0.1,0.1,0.2,0.2,0.2,0.3s0,0.2,0.1,0.2c0,0.1,0,0.1,0.1,0.1c0,0.1,0,0.1,0,0.1
		s0,0.1,0.1,0.1c0,0.1,0.1,0.1,0.1,0.1v0.1v0.1c0,0,0.1,0.1,0.2,0.1c0,0.1,0,0.1,0.1,0.2c0,0.1,0,0.1,0.1,0.2
		c0.1,0.1,0.1,0.1,0.1,0.1v0.1c0,0,0,0,0,0.1c0,0,0,0,0.1,0.1l0.1,0.1c0,0.1,0,0.2,0.2,0.2v0.1V54h0.1v0h0.1v0.1l0,0
		c-0.1,0.1-0.1,0.2,0,0.3c0,0.1,0.1,0.2,0.3,0.5c0,0.1,0,0.2,0.1,0.2h0.1h0.1c0,0.1,0,0.1,0,0.2c0,0,0.1,0,0.1,0.1
		c0,0.2,0.1,0.3,0.3,0.5c0,0.2,0.1,0.2,0.2,0.1c0.1-0.1,0.1-0.2,0.1-0.3h0.1c0,0,0-0.1,0-0.2v-0.1c0.2,0,0.2-0.1,0.2-0.3
		c0-0.1,0-0.2,0-0.3H82c0.1,0,0.1,0,0.1,0v-0.1c0-0.1,0-0.1,0-0.1C82,54.5,82,54.4,82,54.4c0.1,0,0.2,0,0.2-0.1
		c0.1-0.1,0.1-0.2,0.1-0.2V54C82.5,54,82.5,53.9,82.5,53.9z M72.4,53.9C72.5,53.9,72.5,53.9,72.4,53.9C72.4,54,72.4,53.9,72.4,53.9
		L72.4,53.9C72.4,53.8,72.4,53.9,72.4,53.9z M72.4,53.8C72.4,53.8,72.4,53.9,72.4,53.8C72.5,53.9,72.5,53.9,72.4,53.8
		C72.4,54,72.4,53.9,72.4,53.8C72.4,53.9,72.4,53.9,72.4,53.8z M86.4,48.2C86.4,48.2,86.4,48.3,86.4,48.2
		C86.4,48.3,86.4,48.3,86.4,48.2L86.4,48.2z M86.4,48.3L86.4,48.3C86.4,48.2,86.4,48.3,86.4,48.3L86.4,48.3z"/>
</g>
</svg>
