<?xml version="1.0" encoding="utf-8"?>
<!-- Generator: Adobe Illustrator 19.0.1, SVG Export Plug-In . SVG Version: 6.00 Build 0)  -->
<svg version="1.1" id="Layer_1" xmlns="http://www.w3.org/2000/svg" xmlns:xlink="http://www.w3.org/1999/xlink" x="0px" y="0px"
	 viewBox="0 0 100 100" enable-background="new 0 0 100 100" xml:space="preserve">
<g id="Layer_1_1_">
	<g>
		<g>
			<path fill="#643282" stroke="#643282" stroke-width="1.000000e-02" stroke-miterlimit="10" d="M55.4,74c1.8-14.6,3.3-29.1,1-43.7
				c-0.7-4.4-6.6-7-10.1-3.8c-4.8,4.5-9.2,9.2-13.4,14.2c-5.1,6.2,5,13.5,10,7.3c3.5-4.2,7.2-8.2,11.2-11.9
				c-3.4-1.3-6.7-2.5-10.1-3.8c2.1,13.5,0.6,26.9-1.1,40.4C42.1,80.7,54.4,81.9,55.4,74L55.4,74z"/>
		</g>
		<g>
			<path fill="#643282" stroke="#643282" stroke-width="1.000000e-02" stroke-miterlimit="10" d="M47.3,36.6
				c4.7,3.4,9.3,6.9,13.8,10.6c2.6,2.1,6.8,1.2,8.7-1.4c2.1-2.8,1.2-6.5-1.4-8.7c-4.5-3.7-9.1-7.2-13.8-10.6
				C48.1,22,40.7,32,47.3,36.6L47.3,36.6z"/>
		</g>
	</g>
</g>
<g id="Layer_2" display="none">
	<circle display="inline" fill="none" stroke="#231F20" stroke-miterlimit="10" cx="50" cy="50" r="50"/>
</g>
</svg>
