<?xml version="1.0" encoding="utf-8"?>
<!-- Generator: Adobe Illustrator 19.0.1, SVG Export Plug-In . SVG Version: 6.00 Build 0)  -->
<svg version="1.1" id="Layer_1" xmlns="http://www.w3.org/2000/svg" xmlns:xlink="http://www.w3.org/1999/xlink" x="0px" y="0px"
	 viewBox="0 0 100 100" enable-background="new 0 0 100 100" xml:space="preserve">
<g id="Layer_1_1_">
	<g>
		<g>
			<path fill="#643282" d="M42.5,28.5c-0.5,15.9-0.7,31.7,3.3,47.3c1.2,4.7,7.8,6.9,11.2,3.1c4.7-5.3,9.1-10.8,13.1-16.7
				c4.9-7.2-6.7-14-11.6-6.9c-3.4,4.9-7,9.5-11,14c3.7,1,7.5,2.1,11.2,3.1c-3.6-14.4-3.3-29-2.8-43.7C56.2,20,42.7,19.9,42.5,28.5
				L42.5,28.5z"/>
		</g>
		<g>
			<path fill="#643282" d="M54.9,68.1c-5.4-3.2-10.8-6.5-16-10c-3-2-7.4-0.7-9.2,2.3c-2,3.3-0.7,7.2,2.3,9.2c5.2,3.5,10.5,6.9,16,10
				C55.5,84,62.4,72.5,54.9,68.1L54.9,68.1z"/>
		</g>
	</g>
</g>
<g id="Layer_2" display="none">
	<circle display="inline" fill="none" stroke="#231F20" stroke-miterlimit="10" cx="50" cy="50" r="50"/>
</g>
</svg>
