<?xml version="1.0" encoding="utf-8"?>
<!-- Generator: Adobe Illustrator 19.0.1, SVG Export Plug-In . SVG Version: 6.00 Build 0)  -->
<svg version="1.1" id="Layer_1" xmlns="http://www.w3.org/2000/svg" xmlns:xlink="http://www.w3.org/1999/xlink" x="0px" y="0px"
	 viewBox="0 0 100 100" enable-background="new 0 0 100 100" xml:space="preserve">
<g id="Layer_1_1_">
	<g>
		<path fill="#643282" d="M20.3,51.2c3.1,1.7,6,8.3,7.7,11c3.2,5,6,10,7.8,15.6c1.7,5.3,9.9,7.3,12.8,1.7
			c4.3-8.6,8.7-17.1,13.8-25.3c5.1-8.1,12.1-15.3,16.3-23.8s-5.8-16.2-13-10C58.2,26.9,53,37.2,48.2,45.9
			c-4.9,9.1-9.1,18.4-12.4,28.2c4.3-0.6,8.5-1.1,12.8-1.7c-3.2-6.6-7.6-13.7-13.5-18.2c-5.7-4.4-8.5-4.5-14.8-3.2
			C20.2,51,20.2,51.2,20.3,51.2L20.3,51.2z"/>
	</g>
</g>
<g id="Layer_2" display="none">
	<circle display="inline" fill="none" stroke="#231F20" stroke-miterlimit="10" cx="50" cy="50" r="50"/>
</g>
</svg>
