<?xml version="1.0" encoding="utf-8"?>
<!-- Generator: Adobe Illustrator 19.0.1, SVG Export Plug-In . SVG Version: 6.00 Build 0)  -->
<svg version="1.1" id="Layer_1" xmlns="http://www.w3.org/2000/svg" xmlns:xlink="http://www.w3.org/1999/xlink" x="0px" y="0px"
	 viewBox="0 0 100 100" enable-background="new 0 0 100 100" xml:space="preserve">
<g id="Layer_1_1_">
	<g>
		<g>
			<path fill="#643282" d="M44.6,67.4c0.8-11.1,0.8-22.2-0.2-33.4c-0.7-7.6-12.7-7.7-12,0c1,11.1,1,22.2,0.2,33.4
				C32,75.1,44,75,44.6,67.4L44.6,67.4z"/>
		</g>
		<g>
			<path fill="#643282" d="M66.2,67.5C67.1,56.4,67,45.3,66,34.2c-0.7-7.6-12.7-7.7-12,0c1,11.1,1,22.2,0.2,33.4
				C53.7,75.2,65.7,75.2,66.2,67.5L66.2,67.5z"/>
		</g>
	</g>
</g>
<g id="Layer_2" display="none">
	<circle display="inline" fill="none" stroke="#231F20" stroke-miterlimit="10" cx="50" cy="50" r="50"/>
</g>
</svg>
