<?xml version="1.0" encoding="utf-8"?>
<!-- Generator: Adobe Illustrator 19.0.1, SVG Export Plug-In . SVG Version: 6.00 Build 0)  -->
<svg version="1.1" id="Layer_1" xmlns="http://www.w3.org/2000/svg" xmlns:xlink="http://www.w3.org/1999/xlink" x="0px" y="0px"
	 viewBox="0 0 100 100" enable-background="new 0 0 100 100" xml:space="preserve">
<g>
	<path fill="#D93427" d="M14.5,37.4c0,0.1,0.1,0.2,0.2,0.2c0,0,0-0.1,0.1-0.1h0c0,0,0.1,0,0.1,0v0.1c0,0,0,0.1,0.1,0.1
		c0.1,0.1,0.1,0.1,0.1,0.2c0,0.1,0.1,0.2,0.2,0.3c0.1,0.1,0.2,0.1,0.3,0.1c0,0.1,0,0.1-0.1,0.2l-0.1,0c0,0.1,0,0.1,0.1,0.2
		c0,0.1,0,0.1,0,0.2c0,0.1,0.1,0.1,0.1,0.2c0,0,0,0.1,0,0.1c0,0.1,0,0.1,0,0.1c0,0,0,0.1,0,0.1c0,0,0,0.1,0.1,0.1c0,0,0,0.1,0,0.1
		c0,0,0,0.1,0,0.1c0,0,0,0.1,0,0.1c0,0,0,0.1,0.1,0.1c0,0.2,0,0.2,0.1,0.3c0,0.3,0.1,0.5,0.1,0.5c0,0.3,0,0.4,0.1,0.5
		c0,0.1,0,0.2,0,0.3c0,0.1,0.1,0.2,0,0.3c0,0,0,0.1,0,0.1c0,0,0,0.1,0,0.2c0,0.1,0,0.1,0,0.2c0,0,0,0,0.1,0c0,0,0,0,0.1,0
		c0,0.2,0,0.4,0,0.4c0,0.1,0,0.1,0,0.1c0,0,0,0,0,0s0,0,0,0c0,0,0,0,0,0.1c0,0,0,0.1,0,0.1c0,0,0,0.1,0,0.2c0,0.1,0,0.3,0.1,0.5
		c0.1,0.2,0.1,0.4,0,0.6c0.1,0.1,0.2,0.3,0.2,0.5c0,0.1,0,0.1,0,0.1c0,0,0,0,0,0.1c0,0,0,0.1,0.1,0.1c0,0,0,0.1,0,0.2
		c0,0.1,0,0.1,0,0.2s0,0.1,0,0.1c0,0,0,0.1,0.1,0.1c0,0,0,0.1,0,0.2c0,0.1,0,0.2,0,0.2c0,0.1,0,0.1,0.1,0.2c0,0.1,0.1,0.1,0,0.2
		l0.1,0.1c0,0.1,0,0.1-0.1,0.2c0,0.1,0,0.1,0,0.2c0,0.1,0,0.1,0,0.1c0,0,0,0,0,0.1c0,0,0,0,0,0.1v0c0.1,0.2,0.1,0.3,0,0.3
		c0,0.3,0.1,0.5,0.1,0.6l0.1,0c0,0,0,0.2,0,0.5l0,0.1c0,0,0,0.1,0.1,0.2c0,0,0,0.1,0,0.2c0,0.1,0,0.2,0,0.2c0,0,0,0.1,0.1,0.2
		c0,0.1,0,0.1,0.1,0.2c0,0.1,0,0.2,0,0.2c0,0,0,0.1,0,0.1c0,0,0,0.1,0,0.1c0,0.1,0,0.1,0.1,0.1c0,0.2,0.1,0.3,0.1,0.3
		c0,0.1-0.1,0.2,0,0.2l0,0c0,0,0,0.1,0,0.1c0,0,0,0.1,0,0.1c0,0,0,0.1,0.1,0.1c0,0.1,0,0.1,0,0.2c0,0.1,0,0.1,0,0.3
		c0,0.1,0,0.2,0,0.3c0,0,0,0.1,0,0.1c0,0,0.1,0.1,0.1,0.1c0,0.2,0.1,0.4,0.1,0.4c0,0,0.1,0.1,0.2,0.1c0.1,0,0.2,0.1,0.2,0.1
		c0,0,0,0.1,0,0.1c0,0,0,0.1,0.1,0.1c0.1,0,0.1,0,0.2,0.1c0,0.1,0,0.2,0,0.3c0.1,0.1,0.1,0.2,0.1,0.3c0,0.1,0.1,0.1,0.1,0.1
		c0,0.1-0.1,0.2-0.2,0.2c0,0,0,0.1,0,0.2c0,0.1,0,0.2-0.1,0.3c-0.1,0-0.1,0.1-0.1,0.1c0,0.1,0,0.1,0,0.2c0,0.1,0,0.1,0,0.1
		c0,0,0,0,0,0.1c0,0,0,0.1,0,0.1s0,0.1,0,0.1c0,0,0.1,0.1,0.1,0.1c0,0.1,0,0.1,0,0.2c0,0.1,0,0.2,0.1,0.2c0,0.4,0.1,0.7,0.2,0.8
		c0,0.3,0,0.5,0.1,0.6c0,0.1,0,0.2,0.1,0.2c0,0,0,0,0.1,0c0,0,0,0,0,0c0,0,0,0.1,0,0.1c0,0.1,0,0.1,0,0.1c0,0.1,0,0.1,0,0.1
		s0,0.1,0.1,0.1c0,0.1,0,0.2,0.1,0.3c0.1,0.1,0.1,0.2,0.1,0.2c0,0,0.1,0.1,0.1,0.3c0,0.1,0.1,0.2,0.2,0.3c0,0.2,0.1,0.2,0.2,0.2
		c0,0,0,0.1,0.1,0.1c0,0.1,0.1,0.1,0.1,0.2c0.1,0.1,0.2,0.2,0.2,0.3c0,0,0.1,0.1,0.1,0.1c0,0,0,0.1,0,0.1c0,0,0,0.1,0,0.1
		c0,0.1,0,0.1,0,0.1c0,0.1,0,0.2,0,0.3c0,0.1,0,0.2,0,0.3c0.1,0.1,0.1,0.2,0,0.4c-0.1,0-0.1,0.1-0.2,0.2c-0.1,0-0.2,0.1-0.3,0.2
		c-0.1,0.1-0.2,0.2-0.3,0.2c0,0,0,0.1,0,0.1c0,0,0,0.1,0,0.1h-0.3c0-0.1-0.1-0.2-0.2-0.3C19,60.8,19,60.8,19,60.7
		c-0.2,0-0.3,0-0.3-0.1c0,0,0,0.1,0,0.1c0,0,0,0.1,0,0.1c0,0-0.1,0-0.1-0.1c0-0.1,0-0.1,0-0.1c0-0.1-0.1-0.1-0.1-0.1
		c-0.2-0.2-0.3-0.4-0.5-0.4c0-0.2-0.1-0.4-0.2-0.4c0-0.1,0-0.1,0-0.2v0c0-0.1-0.1-0.1-0.1-0.3c-0.1-0.1-0.1-0.2-0.1-0.2
		c0,0-0.1,0-0.1,0c0-0.2,0-0.3-0.1-0.4c0-0.1,0-0.2-0.1-0.3c0,0,0,0-0.1,0c0,0,0,0,0,0c0,0,0-0.1,0-0.1c0-0.1,0-0.1,0-0.1
		c0,0,0-0.1-0.1-0.1c0-0.1,0-0.1,0-0.2l-0.2,0l0.1-0.2c0-0.1,0-0.2-0.1-0.2c0-0.2,0-0.4-0.1-0.4c0,0,0-0.1,0-0.1c0-0.1,0-0.1,0-0.1
		c0,0,0-0.1,0-0.1s0-0.1,0-0.1c0,0,0-0.1-0.1-0.2c0-0.1,0-0.2,0-0.2c0-0.3-0.1-0.4-0.1-0.4c0,0,0-0.1,0-0.1c0-0.1,0-0.1,0-0.1
		c0,0,0-0.1-0.1-0.1c0,0,0-0.1,0-0.1c0,0,0-0.1,0-0.1c0-0.1,0-0.1,0-0.1c0,0,0,0,0-0.1c0,0,0,0,0-0.1c0-0.1-0.1-0.2-0.1-0.2
		c0,0-0.1,0-0.1,0c-0.1,0-0.1,0-0.1,0c-0.1,0-0.2,0.1-0.2,0.1v0v0c0,0,0,0-0.1,0c0,0,0,0-0.1,0c0,0-0.1,0-0.1,0.1c0,0,0,0-0.1-0.1
		c0,0-0.1,0-0.1,0.1c0,0-0.1,0.1-0.1,0.1c0-0.1-0.1-0.1-0.2-0.1C15,54.8,15,54.9,15,55c-0.1,0-0.2,0-0.2,0c0-0.1-0.1-0.1-0.2-0.1
		c0,0,0,0-0.1,0.1c0,0-0.1,0-0.2-0.1c-0.1,0-0.2,0-0.3,0.2c-0.1,0-0.2,0-0.2,0c-0.1-0.1-0.2-0.1-0.3-0.1c-0.1,0-0.2,0.1-0.3,0.1
		c-0.4,0-0.6,0-0.7,0c-0.1,0-0.2,0-0.3,0c-0.1,0-0.2,0-0.3,0c0,0.1,0,0.1,0,0.2c0,0-0.1,0-0.2-0.2c0,0-0.1,0-0.1,0.1
		c0,0-0.1,0-0.2,0c-0.1,0-0.2,0-0.2,0c0,0,0,0-0.1-0.1c0,0,0,0-0.1,0c-0.1,0-0.1,0-0.1,0.1c-0.1-0.1-0.1-0.1-0.2-0.1
		c0,0,0,0-0.1,0.1c0,0.1-0.1,0.1-0.1,0.1c0-0.1-0.1-0.2-0.1-0.2c0,0-0.1,0-0.1,0.1c-0.1,0.1-0.1,0.1-0.1,0.1c0,0,0,0.1-0.1,0.2
		c0,0.1,0,0.2-0.1,0.3v0.1c0,0,0,0.1-0.1,0.1c0,0,0,0.1-0.1,0.1c0,0.1,0,0.1,0,0.2c0,0.1-0.1,0.2-0.1,0.3c0,0,0,0,0,0c0,0,0,0,0,0
		v0.1c0,0,0,0.1-0.1,0.2c0,0.1,0,0.2-0.1,0.4c0,0.1,0,0.1,0,0.2c-0.1,0.1-0.1,0.1-0.1,0.1c0,0,0,0,0,0.1c0,0,0,0.1,0,0.1
		s0,0-0.1,0.1c-0.1,0-0.1,0-0.1,0.1c0,0.2-0.1,0.4-0.2,0.4c0,0.1,0,0.2,0,0.3l-0.1,0c-0.1,0.3-0.1,0.4-0.1,0.4c0,0.1,0,0.1,0.1,0.2
		c0,0,0,0.1-0.1,0.1c0,0,0,0.1-0.1,0.2c0,0-0.1,0.1-0.1,0.3c0,0,0,0.1,0,0.1s0,0.1,0,0.1c0,0,0,0,0,0.1c0,0,0,0.1,0,0.1
		c-0.1,0.2-0.1,0.3-0.1,0.4l-0.1,0.1c0,0.1,0,0.1-0.1,0.2c0,0,0,0.1,0,0.1c0,0,0,0.1,0,0.1c0,0,0,0.1-0.1,0.1c0,0,0,0,0,0
		c0,0,0,0-0.1,0c0,0,0,0.1-0.1,0.2c0,0-0.1,0-0.1,0.1c0,0.1-0.1,0.1-0.1,0.1c0,0,0,0-0.1-0.1c0,0,0-0.1-0.1-0.1c0,0-0.1,0-0.1,0
		c0,0-0.1,0-0.1,0c0-0.1,0-0.2,0-0.2c-0.2,0-0.3,0-0.4,0c0-0.1,0-0.2-0.1-0.2c0,0-0.1,0-0.1,0c0,0-0.1,0-0.1,0s0,0,0-0.1
		c0,0,0-0.1,0-0.1c0,0-0.1,0-0.1,0c0,0.1,0,0.1,0,0.1c0-0.1,0-0.1-0.1-0.2C6.4,61,6.4,61,6.4,60.9c-0.1,0-0.1,0-0.1,0
		c0-0.1,0-0.2,0-0.2c0,0-0.1,0-0.1,0c0-0.1,0-0.3,0-0.4l0,0h0c0.1-0.1,0.1-0.3,0.1-0.5c-0.1-0.1-0.1-0.2-0.1-0.2h0.1h0
		c0,0,0-0.1,0-0.2h0.1c0,0,0-0.1,0-0.2c0-0.1,0-0.1,0-0.1l0.1-0.1c0-0.1,0-0.2,0.1-0.3c0-0.1,0-0.1,0-0.1c0,0,0-0.1,0-0.1
		c0.1,0,0.2-0.1,0.2-0.2c0,0,0.1,0,0.1-0.1c0-0.1,0-0.2,0-0.2c0-0.1,0-0.1,0-0.1c0,0,0-0.1,0-0.1c0-0.1,0-0.1,0-0.1
		c0,0,0-0.1,0.1-0.1c0-0.1,0.1-0.2,0.1-0.3c0.1-0.1,0.1-0.2,0.1-0.3c0-0.2,0.1-0.2,0.1-0.3c0-0.1,0-0.3,0.1-0.4
		c0.1-0.2,0.1-0.3,0.1-0.4c0,0,0.1,0,0.1-0.1s0.1-0.1,0.1-0.1c0-0.1,0-0.2,0-0.3C8,55.1,8,55,8,54.9c0-0.1-0.1-0.1,0-0.2
		c0,0,0.1,0,0.1,0c0.1-0.1,0.1-0.2,0-0.3c-0.1,0-0.2,0-0.2,0c0-0.2-0.1-0.4-0.3-0.6c0,0,0,0,0.1-0.1c0,0,0,0,0-0.1
		c0-0.1,0-0.1-0.1-0.2c-0.1-0.1-0.1-0.1-0.1-0.1c0,0,0.1-0.1,0.2-0.4c0-0.1,0.1-0.2,0.2-0.3C8,52.8,8,52.7,8,52.7l0.4-0.1
		c0,0,0.1,0,0.3,0c0.1,0,0.2,0,0.2-0.1c0,0,0-0.1,0-0.1c0-0.1,0-0.1,0-0.1c0,0,0,0,0.1-0.1s0-0.1,0-0.1c0,0,0-0.1,0-0.1
		c0,0,0-0.1,0.1-0.1c0,0,0-0.1,0-0.1c0-0.2,0.1-0.3,0.2-0.4c0.1-0.2,0.1-0.4,0-0.5c0,0,0.1-0.1,0.1-0.2c0-0.1,0.1-0.2,0.1-0.2
		c0-0.1,0-0.2,0.1-0.3c0-0.1,0.1-0.2,0-0.3c0-0.1,0.1-0.1,0.1-0.2c0-0.1,0.1-0.2,0.1-0.2c0-0.1,0-0.2,0.1-0.3c0,0,0-0.1,0.1-0.2
		c0,0,0,0,0-0.1c0,0,0,0,0-0.1c0.1-0.1,0.1-0.1,0.1-0.2c0,0,0-0.1,0-0.1c0,0,0-0.1,0-0.1c0,0,0,0,0.1-0.1c0.1-0.2,0.1-0.3,0.1-0.4
		V48c0,0,0,0,0-0.1c0,0,0.1,0,0.1-0.1c0,0,0-0.1,0-0.1c0-0.1,0-0.1,0-0.1c0.1-0.2,0.1-0.3,0.1-0.4c0,0,0-0.1,0.1-0.1
		c0,0,0-0.1,0.1-0.1c0,0,0-0.1,0-0.1c0-0.1,0-0.1,0-0.1c0,0,0-0.1,0.1-0.1c0,0,0.1-0.1,0.1-0.1s0-0.1,0-0.1c0-0.1,0-0.1,0-0.2
		c0,0,0.1-0.1,0.1-0.1c0.1-0.2,0.1-0.4,0.1-0.4c0-0.1,0-0.2,0.1-0.3c0-0.1,0.1-0.3,0.1-0.4c0,0,0.1-0.1,0.1-0.3
		c0-0.2,0.1-0.3,0.1-0.3c0-0.1,0-0.1,0.1-0.2c0-0.1,0-0.1,0.1-0.1c0,0,0-0.1,0-0.1c0,0,0-0.1,0-0.1c0,0,0.1,0,0.1-0.1
		c0,0,0.1-0.1,0.1-0.1c0,0,0-0.1,0-0.2c0-0.1,0-0.1,0-0.2c0,0,0,0,0,0c0,0-0.1,0-0.1,0c0-0.1,0-0.1,0-0.2c0.1,0,0.1,0,0.2,0
		c0,0,0-0.1,0-0.1c0,0,0-0.1,0-0.1c0,0,0-0.1,0-0.1c0,0,0-0.1,0.1-0.1c0-0.1,0-0.1,0-0.2c0-0.1,0-0.1,0-0.1c0-0.1,0-0.1,0.1-0.3
		c0.1-0.1,0.1-0.2,0.1-0.3c0.1-0.1,0.1-0.1,0.1-0.3c0-0.1,0-0.2,0.1-0.2c0,0,0-0.1,0-0.1c0,0,0.1-0.1,0.1-0.1c0-0.1,0.1-0.1,0.1-0.1
		c0-0.1,0-0.2,0-0.3c0-0.1,0.1-0.2,0.1-0.2c0,0,0-0.1,0-0.1c0,0,0-0.1,0-0.1c0,0,0-0.1,0.1-0.2c0-0.1,0-0.1,0.1-0.2
		c0-0.1,0.1-0.1,0.1-0.2c0,0,0-0.1,0-0.1c0-0.1,0-0.1,0-0.2c0.1-0.2,0.1-0.4,0.1-0.4c0,0,0.1,0,0.1,0c0-0.2,0-0.3,0.1-0.4
		c0-0.1,0-0.2,0.1-0.2c0,0,0,0,0-0.1s0,0,0-0.1c0,0,0,0-0.1,0c0-0.1,0-0.1,0-0.2c0,0,0.1,0,0.1,0c0-0.1,0-0.1,0-0.2
		c-0.1-0.2-0.1-0.2,0-0.2c0.1,0,0.1,0,0.1-0.1c0,0,0,0,0,0.1s0,0,0.1,0c0-0.1,0-0.1,0.1-0.3c0-0.1,0-0.1,0-0.1c0,0,0,0,0,0s0,0,0,0
		c0.2-0.2,0.4-0.2,0.6-0.1c0.1,0.1,0.1,0.1,0.1,0.1c0,0,0.1,0,0.1-0.1C14.3,37.3,14.4,37.3,14.5,37.4z M14.5,37.4
		c0,0.1,0.1,0.2,0.2,0.2c0,0,0-0.1,0.1-0.1h0c0,0,0.1,0,0.1,0v0.1c0,0,0,0.1,0.1,0.1c0.1,0.1,0.1,0.1,0.1,0.2c0,0.1,0.1,0.2,0.2,0.3
		c0.1,0.1,0.2,0.1,0.3,0.1c0,0.1,0,0.1-0.1,0.2l-0.1,0c0,0.1,0,0.1,0.1,0.2c0,0.1,0,0.1,0,0.2c0,0.1,0.1,0.1,0.1,0.2
		c0,0,0,0.1,0,0.1c0,0.1,0,0.1,0,0.1c0,0,0,0.1,0,0.1c0,0,0,0.1,0.1,0.1c0,0,0,0.1,0,0.1c0,0,0,0.1,0,0.1c0,0,0,0.1,0,0.1
		c0,0,0,0.1,0.1,0.1c0,0.2,0,0.2,0.1,0.3c0,0.3,0.1,0.5,0.1,0.5c0,0.3,0,0.4,0.1,0.5c0,0.1,0,0.2,0,0.3c0,0.1,0.1,0.2,0,0.3
		c0,0,0,0.1,0,0.1c0,0,0,0.1,0,0.2c0,0.1,0,0.1,0,0.2c0,0,0,0,0.1,0c0,0,0,0,0.1,0c0,0.2,0,0.4,0,0.4c0,0.1,0,0.1,0,0.1c0,0,0,0,0,0
		s0,0,0,0c0,0,0,0,0,0.1c0,0,0,0.1,0,0.1c0,0,0,0.1,0,0.1c0,0,0,0.1,0,0.1c0,0.1,0,0.2,0.1,0.5c0.1,0.2,0.1,0.4,0,0.6
		c0.1,0.1,0.2,0.3,0.2,0.5c0,0.1,0,0.1,0,0.1c0,0,0,0,0,0.1c0,0,0,0.1,0.1,0.1c0,0,0,0.1,0,0.2c0,0.1,0,0.1,0,0.2s0,0.1,0,0.1
		c0,0,0,0.1,0.1,0.1c0,0,0,0.1,0,0.2c0,0.1,0,0.2,0,0.2c0,0.1,0,0.1,0.1,0.2c0,0.1,0.1,0.1,0,0.2l0.1,0.1c0,0.1,0,0.1-0.1,0.2
		c0,0.1,0,0.1,0,0.2c0,0.1,0,0.1,0,0.1c0,0,0,0,0,0.1c0,0,0,0,0,0.1v0c0.1,0.2,0.1,0.3,0,0.3c0,0.3,0.1,0.5,0.1,0.6l0.1,0
		c0,0,0,0.2,0,0.5l0,0.1c0,0,0,0.1,0.1,0.2c0,0,0,0.1,0,0.2c0,0.1,0,0.2,0,0.2c0,0,0,0.1,0.1,0.2c0,0.1,0,0.1,0.1,0.2
		c0,0.1,0,0.2,0,0.2c0,0,0,0.1,0,0.1c0,0,0,0.1,0,0.1c0,0.1,0,0.1,0.1,0.1c0,0.2,0.1,0.3,0.1,0.3c0,0.1-0.1,0.2,0,0.2l0,0
		c0,0,0,0.1,0,0.1c0,0,0,0.1,0,0.1c0,0,0,0.1,0.1,0.1c0,0.1,0,0.1,0,0.2c0,0.1,0,0.1,0,0.3c0,0.1,0,0.2,0,0.3c0,0,0,0.1,0,0.1
		c0,0,0.1,0.1,0.1,0.1c0,0.2,0.1,0.4,0.1,0.4c0,0,0.1,0.1,0.2,0.1c0.1,0,0.2,0.1,0.2,0.1c0,0,0,0.1,0,0.1c0,0,0,0.1,0.1,0.1
		c0.1,0,0.1,0,0.2,0.1c0,0.1,0,0.2,0,0.3c0.1,0.1,0.1,0.2,0.1,0.3c0,0.1,0.1,0.1,0.1,0.1c0,0.1-0.1,0.2-0.2,0.2c0,0,0,0.1,0,0.2
		c0,0.1,0,0.2-0.1,0.3c-0.1,0-0.1,0.1-0.1,0.1c0,0.1,0,0.1,0,0.2c0,0.1,0,0.1,0,0.1c0,0,0,0,0,0.1c0,0,0,0.1,0,0.1s0,0.1,0,0.1
		c0,0,0.1,0.1,0.1,0.1c0,0.1,0,0.1,0,0.2c0,0.1,0,0.2,0.1,0.2c0,0.4,0.1,0.7,0.2,0.8c0,0.3,0,0.5,0.1,0.6c0,0.1,0,0.2,0.1,0.2
		c0,0,0.1,0,0.1,0c0,0,0,0.1,0,0.1c0,0.1,0,0.1,0,0.1c0,0.1,0,0.1,0,0.1s0,0.1,0.1,0.1c0,0.1,0,0.2,0.1,0.3c0.1,0.1,0.1,0.2,0.1,0.2
		c0,0,0.1,0.1,0.1,0.3c0,0.1,0.1,0.2,0.2,0.3c0,0.2,0.1,0.2,0.2,0.2c0,0,0,0.1,0.1,0.1c0,0.1,0.1,0.1,0.1,0.2
		c0.1,0.1,0.2,0.2,0.2,0.3c0,0,0.1,0.1,0.1,0.1c0,0,0,0.1,0,0.1c0,0,0,0.1,0,0.1c0,0.1,0,0.1,0,0.1c0,0.1,0,0.2,0,0.3
		c0,0.1,0,0.2,0,0.3c0.1,0.1,0.1,0.2,0,0.4c-0.1,0-0.1,0.1-0.2,0.2c-0.1,0-0.2,0.1-0.3,0.2c-0.1,0.1-0.2,0.2-0.3,0.2
		c0,0,0,0.1,0,0.1c0,0,0,0.1,0,0.1h-0.3c0-0.1-0.1-0.2-0.2-0.3C19,60.8,19,60.8,19,60.7c-0.2,0-0.3,0-0.3-0.1c0,0,0,0.1,0,0.1
		c0,0,0,0.1,0,0.1c0,0-0.1,0-0.1-0.1c0-0.1,0-0.1,0-0.1c0-0.1-0.1-0.1-0.1-0.1c-0.2-0.2-0.3-0.4-0.5-0.4c0-0.2-0.1-0.4-0.2-0.4
		c0-0.1,0-0.1,0-0.2v0c0-0.1-0.1-0.1-0.1-0.3c-0.1-0.1-0.1-0.2-0.1-0.2c0,0-0.1,0-0.1,0c0-0.2,0-0.3-0.1-0.4c0-0.1,0-0.2-0.1-0.3
		c0,0,0,0-0.1,0c0,0,0,0,0,0c0,0,0-0.1,0-0.1c0-0.1,0-0.1,0-0.1c0,0,0-0.1-0.1-0.1c0-0.1,0-0.1,0-0.2l-0.2,0l0.1-0.2
		c0-0.1,0-0.2-0.1-0.2c0-0.2,0-0.4-0.1-0.4c0,0,0-0.1,0-0.1c0-0.1,0-0.1,0-0.1c0,0,0-0.1,0-0.1s0-0.1,0-0.1c0,0,0-0.1-0.1-0.2
		c0-0.1,0-0.2,0-0.2c0-0.3-0.1-0.4-0.1-0.4c0,0,0-0.1,0-0.1c0-0.1,0-0.1,0-0.1c0,0,0-0.1-0.1-0.1c0,0,0-0.1,0-0.1c0,0,0-0.1,0-0.1
		c0-0.1,0-0.1,0-0.1c0,0,0,0,0-0.1c0,0,0,0,0-0.1c0-0.1-0.1-0.2-0.1-0.2c0,0-0.1,0-0.1,0c-0.1,0-0.1,0-0.1,0c-0.1,0-0.2,0.1-0.2,0.1
		v0v0c0,0,0,0-0.1,0c0,0,0,0-0.1,0c0,0-0.1,0-0.1,0.1c0,0,0,0-0.1-0.1c0,0-0.1,0-0.1,0.1c0,0-0.1,0.1-0.1,0.1c0-0.1-0.1-0.1-0.2-0.1
		C15,54.8,15,54.9,15,55c-0.1,0-0.2,0-0.2,0c0-0.1-0.1-0.1-0.2-0.1c0,0,0,0-0.1,0.1c0,0-0.1,0-0.2-0.1c-0.1,0-0.2,0-0.3,0.2
		c-0.1,0-0.2,0-0.2,0c-0.1-0.1-0.2-0.1-0.3-0.1c-0.1,0-0.2,0.1-0.3,0.1c-0.4,0-0.6,0-0.7,0c-0.1,0-0.2,0-0.3,0c-0.1,0-0.2,0-0.3,0
		c0,0.1,0,0.1,0,0.2c0,0-0.1,0-0.2-0.2c0,0-0.1,0-0.1,0.1c0,0-0.1,0-0.2,0c-0.1,0-0.2,0-0.2,0c0,0,0,0-0.1-0.1c0,0,0,0-0.1,0
		c-0.1,0-0.1,0-0.1,0.1c-0.1-0.1-0.1-0.1-0.2-0.1c0,0,0,0-0.1,0.1c0,0.1-0.1,0.1-0.1,0.1c0-0.1-0.1-0.2-0.1-0.2c0,0-0.1,0-0.1,0.1
		c-0.1,0.1-0.1,0.1-0.1,0.1c0,0,0,0.1-0.1,0.2c0,0.1,0,0.2-0.1,0.3v0.1c0,0,0,0.1-0.1,0.1c0,0,0,0.1-0.1,0.1c0,0.1,0,0.1,0,0.2
		c0,0.1-0.1,0.2-0.1,0.3c0,0,0,0,0,0c0,0,0,0,0,0v0.1c0,0,0,0.1-0.1,0.2c0,0.1,0,0.2-0.1,0.4c0,0.1,0,0.1,0,0.2
		c-0.1,0.1-0.1,0.1-0.1,0.1c0,0,0,0,0,0.1c0,0,0,0.1,0,0.1s0,0-0.1,0.1c-0.1,0-0.1,0-0.1,0.1c0,0.2-0.1,0.4-0.2,0.4
		c0,0.1,0,0.2,0,0.3l-0.1,0c-0.1,0.3-0.1,0.4-0.1,0.4c0,0.1,0,0.1,0.1,0.2c0,0,0,0.1-0.1,0.1c0,0,0,0.1-0.1,0.2c0,0-0.1,0.1-0.1,0.3
		c0,0,0,0.1,0,0.1s0,0.1,0,0.1c0,0,0,0,0,0.1c0,0,0,0.1,0,0.1c-0.1,0.2-0.1,0.3-0.1,0.4l-0.1,0.1c0,0.1,0,0.1-0.1,0.2
		c0,0,0,0.1,0,0.1c0,0,0,0.1,0,0.1c0,0,0,0.1-0.1,0.1c0,0,0,0,0,0c0,0,0,0-0.1,0c0,0,0,0.1-0.1,0.2c0,0-0.1,0-0.1,0.1
		c0,0.1-0.1,0.1-0.1,0.1c0,0,0,0-0.1-0.1c0,0,0-0.1-0.1-0.1c0,0-0.1,0-0.1,0c0,0-0.1,0-0.1,0c0-0.1,0-0.2,0-0.2c-0.2,0-0.3,0-0.4,0
		c0-0.1,0-0.2-0.1-0.2c0,0-0.1,0-0.1,0c0,0-0.1,0-0.1,0s0,0,0-0.1c0,0,0-0.1,0-0.1c0,0-0.1,0-0.1,0c0,0.1,0,0.1,0,0.1
		c0-0.1,0-0.1-0.1-0.2C6.4,61,6.4,61,6.4,60.9c-0.1,0-0.1,0-0.1,0c0-0.1,0-0.2,0-0.2c0,0-0.1,0-0.1,0c0-0.1,0-0.3,0-0.4l0,0h0
		c0.1-0.1,0.1-0.3,0.1-0.5c-0.1-0.1-0.1-0.2-0.1-0.2h0.1h0c0,0,0-0.1,0-0.2h0.1c0,0,0-0.1,0-0.2c0-0.1,0-0.1,0-0.1l0.1-0.1
		c0-0.1,0-0.2,0.1-0.3c0-0.1,0-0.1,0-0.1c0,0,0-0.1,0-0.1c0.1,0,0.2-0.1,0.2-0.2c0,0,0.1,0,0.1-0.1c0-0.1,0-0.2,0-0.2
		c0-0.1,0-0.1,0-0.1c0,0,0-0.1,0-0.1c0-0.1,0-0.1,0-0.1c0,0,0-0.1,0.1-0.1c0-0.1,0.1-0.2,0.1-0.3c0.1-0.1,0.1-0.2,0.1-0.3
		c0-0.2,0.1-0.2,0.1-0.3c0-0.1,0-0.3,0.1-0.4c0.1-0.2,0.1-0.3,0.1-0.4c0,0,0.1,0,0.1-0.1s0.1-0.1,0.1-0.1c0-0.1,0-0.2,0-0.3
		C8,55.1,8,55,8,54.9c0-0.1-0.1-0.1,0-0.2c0,0,0.1,0,0.1,0c0.1-0.1,0.1-0.2,0-0.3c-0.1,0-0.2,0-0.2,0c0-0.2-0.1-0.4-0.3-0.6
		c0,0,0,0,0.1-0.1c0,0,0,0,0-0.1c0-0.1,0-0.1-0.1-0.2c-0.1-0.1-0.1-0.1-0.1-0.1c0,0,0.1-0.1,0.2-0.4c0-0.1,0.1-0.2,0.2-0.3
		C8,52.8,8,52.7,8,52.7l0.4-0.1c0,0,0.1,0,0.3,0c0.1,0,0.2,0,0.2-0.1c0,0,0-0.1,0-0.1c0-0.1,0-0.1,0-0.1c0,0,0,0,0.1-0.1
		s0-0.1,0-0.1c0,0,0-0.1,0-0.1c0,0,0-0.1,0.1-0.1c0,0,0-0.1,0-0.1c0-0.2,0.1-0.3,0.2-0.4c0.1-0.2,0.1-0.4,0-0.5c0,0,0.1-0.1,0.1-0.2
		c0-0.1,0.1-0.2,0.1-0.2c0-0.1,0-0.2,0.1-0.3c0-0.1,0.1-0.2,0-0.3c0-0.1,0.1-0.1,0.1-0.2c0-0.1,0.1-0.2,0.1-0.2c0-0.1,0-0.2,0.1-0.3
		c0,0,0-0.1,0.1-0.2c0,0,0,0,0-0.1c0,0,0,0,0-0.1c0.1-0.1,0.1-0.1,0.1-0.2c0,0,0-0.1,0-0.1c0,0,0-0.1,0-0.1c0,0,0,0,0.1-0.1
		c0.1-0.2,0.1-0.3,0.1-0.4V48c0,0,0,0,0-0.1c0,0,0.1,0,0.1-0.1c0,0,0-0.1,0-0.1c0-0.1,0-0.1,0-0.1c0.1-0.2,0.1-0.3,0.1-0.4
		c0,0,0-0.1,0.1-0.1c0,0,0-0.1,0.1-0.1c0,0,0-0.1,0-0.1c0-0.1,0-0.1,0-0.1c0,0,0-0.1,0.1-0.1c0,0,0.1-0.1,0.1-0.1s0-0.1,0-0.1
		c0-0.1,0-0.1,0-0.2c0,0,0.1-0.1,0.1-0.1c0.1-0.2,0.1-0.4,0.1-0.4c0-0.1,0-0.2,0.1-0.3c0-0.1,0.1-0.3,0.1-0.4c0,0,0.1-0.1,0.1-0.3
		c0-0.2,0.1-0.3,0.1-0.3c0-0.1,0-0.1,0.1-0.2c0-0.1,0-0.1,0.1-0.1c0,0,0-0.1,0-0.1c0,0,0-0.1,0-0.1c0,0,0.1,0,0.1-0.1
		c0,0,0.1-0.1,0.1-0.1c0,0,0-0.1,0-0.2c0-0.1,0-0.1,0-0.2c0,0,0,0,0,0c0,0-0.1,0-0.1,0c0-0.1,0-0.1,0-0.2c0.1,0,0.1,0,0.2,0
		c0,0,0-0.1,0-0.1c0,0,0-0.1,0-0.1c0,0,0-0.1,0-0.1c0,0,0-0.1,0.1-0.1c0-0.1,0-0.1,0-0.2c0-0.1,0-0.1,0-0.1c0-0.1,0-0.1,0.1-0.3
		c0.1-0.1,0.1-0.2,0.1-0.3c0.1-0.1,0.1-0.1,0.1-0.3c0-0.1,0-0.2,0.1-0.2c0,0,0-0.1,0-0.1c0,0,0.1-0.1,0.1-0.1c0-0.1,0.1-0.1,0.1-0.1
		c0-0.1,0-0.2,0-0.3c0-0.1,0.1-0.2,0.1-0.2c0,0,0-0.1,0-0.1c0,0,0-0.1,0-0.1c0,0,0-0.1,0.1-0.2c0-0.1,0-0.1,0.1-0.2
		c0-0.1,0.1-0.1,0.1-0.2c0,0,0-0.1,0-0.1c0-0.1,0-0.1,0-0.2c0.1-0.2,0.1-0.4,0.1-0.4c0,0,0.1,0,0.1,0c0-0.2,0-0.3,0.1-0.4
		c0-0.1,0-0.2,0.1-0.2c0,0,0,0,0-0.1s0,0,0-0.1c0,0,0,0-0.1,0c0-0.1,0-0.1,0-0.2c0,0,0.1,0,0.1,0c0-0.1,0-0.1,0-0.2
		c-0.1-0.2-0.1-0.2,0-0.2c0.1,0,0.1,0,0.1-0.1c0,0,0,0,0,0.1s0,0,0.1,0c0-0.1,0-0.1,0.1-0.3c0-0.1,0-0.1,0-0.1c0,0,0,0,0,0s0,0,0,0
		c0.2-0.2,0.4-0.2,0.6-0.1c0.1,0.1,0.1,0.1,0.1,0.1c0,0,0.1,0,0.1-0.1C14.3,37.3,14.4,37.3,14.5,37.4z M8,54.8C8,54.8,8,54.8,8,54.8
		C8,54.9,8,54.9,8,54.8z M8,54.8C8,54.9,8,54.9,8,54.8C8,54.8,8,54.8,8,54.8z M14,42.6c0,0.1,0,0.1-0.1,0.1c0,0-0.1,0.1-0.1,0.1
		c0,0,0,0.1,0,0.1c0,0.1,0,0.1,0,0.2c0,0.1-0.1,0.1-0.1,0.1c0,0,0,0,0,0.1c0,0,0,0.1,0,0.1c0,0,0,0.1,0,0.1c0,0,0,0.1,0,0.1
		s0,0.1,0,0.2c0,0.1,0,0.2-0.1,0.2v0.1c0,0.1-0.1,0.2-0.1,0.4c0,0.1-0.1,0.1-0.1,0.1c0,0,0,0.1,0,0.1c0,0.1,0,0.1,0,0.2
		c0,0.1-0.1,0.1-0.1,0.1c0,0,0,0,0,0.1c0,0.1,0,0.1,0,0.1c0,0,0,0.1,0,0.1c0,0-0.1,0.1-0.1,0.1c0,0,0,0.1,0,0.2c0,0.1,0,0.1,0,0.2
		L13,46c0,0,0,0.1,0,0.2c0,0,0,0.1,0,0.1l-0.1,0.3c0,0-0.1,0.1-0.1,0.2c0,0.1,0,0.2-0.1,0.3c0,0.1,0,0.1,0,0.1
		c-0.1,0.2-0.1,0.3-0.1,0.4c0,0,0,0.1-0.1,0.2c0,0.1-0.1,0.2-0.1,0.2l-0.1,0.3c0,0,0,0.1,0,0.1c0,0,0,0,0,0.1c0,0,0,0,0,0.1
		c0,0,0,0,0,0.1c0,0,0,0,0,0.1c0,0,0,0.1,0,0.1c0,0,0,0.1,0,0.1c-0.1,0.2-0.1,0.3-0.1,0.4c0,0.1,0,0.1-0.1,0.2
		c-0.1,0.1-0.1,0.1-0.1,0.2c0,0,0,0.1,0,0.1c0,0,0,0.1,0,0.1s0,0.1,0,0.2c0,0.1,0,0.1,0,0.2c0,0,0,0-0.1,0.1c0,0-0.1,0.1-0.1,0.1
		c0,0,0,0.1,0,0.2c0,0.1,0,0.2,0,0.2c0,0-0.1,0.1-0.1,0.2c-0.1,0.1-0.1,0.2-0.1,0.4c0,0-0.1,0.1-0.1,0.2c0,0.1-0.1,0.2-0.1,0.2
		c0,0.3,0,0.5-0.1,0.5c0,0.1,0,0.2-0.1,0.2c0,0,0,0.1-0.1,0.1c0,0,0,0.1,0,0.1c0,0,0,0.1,0,0.1c0,0,0,0.1,0,0.1c0,0.1,0.1,0.1,0.3,0
		c0,0,0,0,0.1,0c0.1,0,0.1,0,0.1,0c0,0,0,0,0.1,0c0,0,0,0,0.1,0c0,0,0.1,0,0.1,0c0,0,0,0,0.1,0c0,0,0,0,0.1,0c0.3,0,0.5,0,0.6-0.1
		c0.1,0.1,0.3,0.1,0.4,0c0,0,0,0,0.1,0c0,0,0.1-0.1,0.1-0.1c0,0,0,0,0.1,0c0,0,0,0,0.1,0c0.2,0,0.3,0,0.4,0c0,0,0,0,0.1,0
		c0,0,0,0,0.1,0c0.1,0.1,0.2,0.1,0.3,0.1l0.1-0.1c0.1,0,0.2,0,0.3,0c0.1,0,0.3,0,0.3,0c0-0.1,0.1-0.1,0.1-0.1c0,0,0.1,0,0.1,0
		l0.1-0.1c0,0,0.1,0,0.1,0c0,0,0.1,0,0.1,0c0,0,0.1,0,0.1-0.1c0.1-0.1,0.1-0.1,0.1-0.1c0,0,0-0.1,0-0.1s0-0.1,0-0.1c0,0,0,0,0-0.1
		c0,0,0-0.1,0-0.1s0,0,0-0.1c0,0,0-0.1,0-0.1c-0.1-0.3-0.1-0.5-0.1-0.7c0,0,0,0-0.1,0c0,0,0-0.1,0-0.1c0-0.1,0-0.1,0-0.3
		c0,0,0,0,0-0.1c0-0.1,0-0.1,0-0.1c0,0,0,0,0-0.1c0,0,0-0.1,0-0.1s0-0.1,0-0.1c0-0.1,0-0.1-0.1-0.2c0-0.1,0-0.1,0-0.2
		c0,0,0-0.1,0-0.1c0-0.1,0-0.1,0-0.1c0,0,0,0-0.1-0.1c0-0.1,0-0.2,0-0.3c0,0-0.1-0.1-0.1-0.2c0-0.1,0-0.2,0-0.3c0-0.1,0-0.2,0-0.3
		c0-0.1-0.1-0.2-0.1-0.3l0-0.3c0,0,0-0.1,0-0.1c0,0,0-0.1,0-0.1c0,0,0-0.1,0-0.1c0,0,0-0.1,0-0.1s0-0.1,0-0.2c0-0.1,0-0.1,0-0.2
		c0,0,0-0.1,0-0.1c0-0.1,0-0.2,0-0.2c0,0-0.1-0.1-0.1-0.4c0-0.1-0.1-0.1-0.1-0.1c0,0,0-0.1,0-0.1c0,0,0-0.1,0-0.1c0,0,0-0.1,0-0.1
		c0,0,0-0.1,0-0.1c0,0,0-0.1,0-0.1c0-0.1,0-0.2,0-0.2c0,0,0-0.1-0.1-0.1c0-0.1-0.1-0.1-0.1-0.2c0,0,0-0.1,0-0.1c0,0,0-0.1,0-0.1
		c0,0,0-0.1-0.1-0.1c0,0,0-0.1,0-0.1c0,0,0-0.1,0-0.2c0-0.1,0-0.2,0-0.2c0,0,0-0.1,0-0.1c0,0,0-0.1-0.1-0.1c0,0,0-0.1,0-0.2
		c0,0,0-0.1,0-0.2c0-0.1,0-0.2,0-0.2c-0.1-0.1-0.1-0.2-0.1-0.6C14.1,43.1,14.1,42.9,14,42.6L14,42.6z M14,42.7
		C13.9,42.8,13.9,42.8,14,42.7C13.9,42.8,13.9,42.8,14,42.7c-0.1,0.1-0.1,0.2-0.1,0.2c0,0.1,0,0.1,0,0.2c0,0.1-0.1,0.1-0.1,0.1
		c0,0,0,0,0,0.1c0,0,0,0.1,0,0.1c0,0,0,0.1,0,0.1c0,0,0,0.1,0,0.1s0,0.1,0,0.2c0,0.1,0,0.2-0.1,0.2v0.1c0,0.1-0.1,0.2-0.1,0.4
		c0,0.1-0.1,0.1-0.1,0.1c0,0,0,0.1,0,0.1c0,0.1,0,0.1,0,0.2c0,0.1-0.1,0.1-0.1,0.1c0,0,0,0,0,0.1c0,0.1,0,0.1,0,0.1c0,0,0,0.1,0,0.1
		c0,0-0.1,0.1-0.1,0.1c0,0,0,0.1,0,0.2c0,0.1,0,0.1,0,0.2L13,46c0,0,0,0.1,0,0.2c0,0,0,0.1,0,0.1l-0.1,0.3c0,0-0.1,0.1-0.1,0.2
		c0,0.1,0,0.2-0.1,0.3c0,0.1,0,0.1,0,0.1c-0.1,0.2-0.1,0.3-0.1,0.4c0,0,0,0.1-0.1,0.2c0,0.1-0.1,0.2-0.1,0.2l-0.1,0.3
		c0,0,0,0.1,0,0.1c0,0,0,0,0,0.1c0,0,0,0,0,0.1c0,0,0,0,0,0.1c0,0,0,0,0,0.1c0,0,0,0.1,0,0.1c0,0,0,0.1,0,0.1
		c-0.1,0.2-0.1,0.3-0.1,0.4c0,0.1,0,0.1-0.1,0.2c-0.1,0.1-0.1,0.1-0.1,0.2c0,0,0,0.1,0,0.1c0,0,0,0.1,0,0.1s0,0.1,0,0.2
		c0,0.1,0,0.1,0,0.2c0,0,0,0-0.1,0.1c0,0-0.1,0.1-0.1,0.1c0,0.1,0,0.1,0,0.2c0,0.1,0,0.2,0,0.2c0,0-0.1,0.1-0.1,0.2
		c-0.1,0.1-0.1,0.2-0.1,0.4c0,0-0.1,0.1-0.1,0.2c0,0.1-0.1,0.2-0.1,0.2c0,0.3,0,0.5-0.1,0.5c0,0.1,0,0.2-0.1,0.2c0,0,0,0.1-0.1,0.1
		c0,0,0,0.1,0,0.1c0,0,0,0.1,0,0.1c0,0,0,0.1,0,0.1c0,0.1,0.1,0.1,0.3,0c0,0,0.1,0,0.2,0c0,0,0,0,0.1,0c0,0,0,0,0.1,0
		c0,0,0.1,0,0.1,0c0,0,0,0,0.1,0c0,0,0,0,0.1,0c0.3,0,0.5,0,0.6-0.1c0.1,0.1,0.3,0.1,0.4,0c0,0,0,0,0.1,0c0,0,0.1-0.1,0.1-0.1
		c0,0,0,0,0.1,0c0,0,0,0,0.1,0c0.2,0,0.3,0,0.4,0c0,0,0,0,0.1,0c0,0,0,0,0.1,0c0.1,0.1,0.2,0.1,0.3,0.1l0.1-0.1c0.1,0,0.2,0,0.3,0
		c0.1,0,0.3,0,0.3,0c0-0.1,0.1-0.1,0.1-0.1c0,0,0.1,0,0.1,0l0.1-0.1c0,0,0.1,0,0.1,0c0,0,0.1,0,0.1,0c0,0,0.1,0,0.1-0.1
		c0.1-0.1,0.1-0.1,0.1-0.1c0,0,0-0.1,0-0.1s0-0.1,0-0.1c0,0,0,0,0-0.1c0,0,0-0.1,0-0.1s0,0,0-0.1c0,0,0-0.1,0-0.1
		c-0.1-0.3-0.1-0.5-0.1-0.7c0,0,0,0-0.1,0c0,0,0-0.1,0-0.1c0-0.1,0-0.1,0-0.3c0,0,0,0,0-0.1c0-0.1,0-0.1,0-0.1c0,0,0,0,0-0.1
		c0,0,0-0.1,0-0.1s0-0.1,0-0.1c0-0.1,0-0.1-0.1-0.2c0-0.1,0-0.1,0-0.2c0,0,0-0.1,0-0.1c0-0.1,0-0.1,0-0.1c0,0,0,0-0.1-0.1
		c0-0.1,0-0.2,0-0.3c0,0-0.1-0.1-0.1-0.2c0-0.1,0-0.2,0-0.3c0-0.1,0-0.2,0-0.3c0-0.1-0.1-0.2-0.1-0.3l0-0.3c0,0,0-0.1,0-0.1
		c0,0,0-0.1,0-0.1c0,0,0-0.1,0-0.1c0,0,0-0.1,0-0.1s0-0.1,0-0.2c0-0.1,0-0.1,0-0.2c0,0,0-0.1,0-0.1c0-0.1,0-0.2,0-0.2
		c0,0-0.1-0.1-0.1-0.4c0-0.1-0.1-0.1-0.1-0.1c0,0,0-0.1,0-0.1c0,0,0-0.1,0-0.1c0,0,0-0.1,0-0.1c0,0,0-0.1,0-0.1c0,0,0-0.1,0-0.1
		c0-0.1,0-0.2,0-0.2c0,0,0-0.1-0.1-0.1c0-0.1-0.1-0.1-0.1-0.2c0,0,0-0.1,0-0.1c0,0,0-0.1,0-0.1c0,0,0-0.1-0.1-0.1c0,0,0-0.1,0-0.1
		c0,0,0-0.1,0-0.2c0-0.1,0-0.2,0-0.2c0,0,0-0.1,0-0.1c0,0,0-0.1-0.1-0.1c0,0,0-0.1,0-0.2c0,0,0-0.1,0-0.2c0-0.1,0-0.2,0-0.2
		c-0.1-0.1-0.1-0.2-0.1-0.6c-0.1,0-0.1-0.2-0.1-0.5h0C14,42.6,14,42.7,14,42.7z M15.2,54.9C15.2,54.9,15.3,54.9,15.2,54.9
		C15.2,55,15.2,55,15.2,54.9z M15.3,55C15.2,55,15.2,55,15.3,55C15.2,54.9,15.3,54.9,15.3,55z M15.6,38.9c0,0,0,0.1,0,0.1
		C15.6,39,15.6,39,15.6,38.9C15.6,38.9,15.6,38.9,15.6,38.9z M15.6,38.9C15.6,38.9,15.6,38.9,15.6,38.9
		C15.6,38.9,15.6,38.9,15.6,38.9C15.6,39,15.6,39,15.6,38.9z"/>
	<path fill="#D93427" d="M28.9,41.4c0.2,0.1,0.3,0.2,0.3,0.2c0,0.1,0,0.1,0.1,0.2c0,0,0,0,0.1,0c0,0.1,0,0.2,0.1,0.3
		c0,0,0,0.1,0,0.1c0,0.1,0,0.2,0,0.3c0,0.1,0,0.1,0,0.2c0,0.1,0,0.1,0,0.1c0,0,0,0.1,0,0.1c0,0,0,0.1,0,0.1c0,0-0.1,0-0.1,0
		c0,0.1-0.1,0.1-0.1,0.2c-0.1,0.1-0.2,0.2-0.3,0.2c0,0-0.1,0-0.1,0c0,0-0.1,0-0.1,0c0,0,0,0-0.1,0.1c0,0,0,0-0.1,0c0,0-0.1,0-0.2,0
		c0,0,0,0-0.1,0c0,0,0-0.1-0.1-0.1c0,0-0.1,0-0.1,0c0,0-0.1,0-0.1,0c0,0,0,0-0.1,0c0,0,0,0,0,0c0,0,0,0,0-0.1c0,0-0.1-0.1-0.1-0.1
		c-0.2,0-0.4,0-0.4,0.1c0,0,0,0.1,0,0.1c-0.2,0-0.3,0.1-0.3,0.2c0,0,0,0,0,0c0,0,0,0,0,0c0,0-0.1,0-0.2,0.1C27.1,43.9,27,44,27,44
		v0.1c0,0-0.1,0.1-0.1,0.1h-0.1c-0.2,0.2-0.4,0.4-0.4,0.6c0,0-0.1,0-0.1,0c0,0,0,0,0,0.1c0,0,0,0,0,0.1c-0.1,0-0.1,0.1-0.2,0.2
		c-0.1,0.1-0.2,0.2-0.2,0.3c0,0.1,0,0.2-0.1,0.3c-0.1,0.1-0.1,0.2-0.1,0.3c0,0-0.1,0.1-0.1,0.2c0,0.1-0.1,0.1-0.1,0.1
		c0,0,0,0.1,0,0.1c0,0,0,0.1,0,0.1c0,0-0.1,0.1-0.1,0.2c0,0,0,0.1,0,0.1c0,0.1,0,0.2-0.1,0.3c0,0.1-0.1,0.2-0.1,0.2
		c0,0-0.1,0.1-0.1,0.2c0,0.1-0.1,0.2-0.1,0.2v0.2c-0.1,0.1-0.1,0.2-0.1,0.2v0.2c-0.1,0.2-0.2,0.4-0.1,0.6l-0.1,0c0,0.1,0,0.2,0,0.5
		c0,0-0.1,0-0.1,0c0,0.1,0,0.2,0,0.4s0,0.3-0.1,0.4c0,0.1,0,0.2,0,0.3c0,0.1,0,0.1-0.1,0.1c0,0.3-0.1,0.6-0.1,1c0,0,0,0.3,0,0.8
		c0,0.5,0,0.8,0,0.9c0,0.1,0,0.1,0,0.1c0,0.2,0,0.3,0.1,0.3c0,0.1,0,0.2,0,0.3s0,0.3,0,0.3c0,0.1,0,0.1,0.1,0.2
		c-0.1,0.3,0,0.5,0.1,0.5c0,0.1-0.1,0.2,0,0.3c0,0,0,0.1,0.1,0.1c0,0,0,0.1,0,0.1c0,0,0,0,0,0.1c0,0,0,0.1,0,0.1c0,0,0,0.1,0.1,0.2
		c0,0.1,0,0.1,0.1,0.3c0,0.1,0,0.2,0.1,0.3c0,0.1,0.1,0.1,0.1,0.2c0.2,0.4,0.3,0.7,0.4,0.7c0,0,0,0,0,0.1s0,0,0,0.1
		c0,0,0.1,0.1,0.2,0.1c0,0.1,0,0.1,0.1,0.2c0,0,0.1,0.1,0.1,0.1l0,0.1c0,0,0,0,0.1,0c0,0,0,0,0.1,0c0,0,0,0.1,0.1,0.1
		c0,0.1,0.1,0.1,0.1,0.1c0,0,0.1,0,0.3,0c0,0,0.1,0,0.1,0.1s0,0.1,0.1,0.1c0,0,0.1,0,0.1,0c0,0,0.1,0,0.1,0c0,0,0.1,0,0.2,0
		c0,0,0.1,0,0.2,0.1c0.1,0.1,0.1,0.1,0.2,0.1c0,0,0,0,0.1,0c0,0,0,0,0.1,0c0,0,0.1,0,0.1,0c0.1,0,0.1,0,0.1,0
		c0.1,0.1,0.1,0.2,0.2,0.2c0,0,0.1,0,0.1,0c0.1,0,0.1,0,0.1,0c0.3,0,0.5,0,0.5-0.1c0.2,0,0.3,0.1,0.3,0.1c0,0,0,0,0.1-0.1
		c0,0,0-0.1,0-0.1c0.2,0.1,0.3,0.1,0.4,0c0.2,0,0.3,0,0.4-0.2c0.2,0,0.2,0,0.3-0.1c0.1,0.1,0.1,0,0.2,0c0,0,0,0,0.1,0c0,0,0,0,0.1,0
		c0,0,0.1,0,0.2-0.1c0,0,0.1,0,0.2-0.1c0.1-0.1,0.1-0.1,0.2-0.1c0,0,0.1-0.1,0.2-0.1c0.1-0.1,0.2-0.1,0.2-0.2c0.1,0,0.1-0.1,0.2-0.2
		c0,0,0.1,0,0.2-0.1c0.1,0,0.2,0,0.2-0.1c0.1-0.1,0.1-0.1,0.2-0.1c0,0,0,0,0-0.1v0c0,0,0,0,0.1,0c0,0,0,0,0.1,0
		c0-0.1,0.1-0.1,0.1-0.2c0-0.1,0.1-0.1,0.1-0.2c0.2-0.2,0.3-0.3,0.3-0.5c0.1,0,0.1,0,0.1,0c0-0.1,0.1-0.1,0.1-0.1c0.1,0,0.1,0,0.2,0
		c0-0.1,0.1-0.1,0.2-0.1c0.1,0,0.2,0,0.2,0.1c0,0,0.1,0,0.1,0c0.1,0,0.1,0.1,0.2,0.2c0.1,0,0.1,0,0.1,0c0,0,0.1,0.1,0.1,0.2
		c0,0.1,0.1,0.2,0.2,0.2c0,0.1,0,0.1,0,0.1c0,0,0.1,0.1,0.1,0.1c0,0,0.1,0.1,0.1,0.1c0,0.1,0,0.2,0.1,0.4c0.1,0.1,0.1,0.2,0.1,0.3
		c-0.1,0.1-0.1,0.2-0.1,0.2c0,0,0,0.1,0,0.1c0,0,0,0-0.1,0c0,0.1,0,0.2,0,0.2c-0.1,0-0.1,0.1-0.2,0.2c-0.1,0.1-0.2,0.2-0.2,0.3
		c-0.1,0.1-0.2,0.1-0.2,0.2c-0.1,0-0.2,0.1-0.4,0.3c0,0-0.1,0-0.1,0.1c0,0.1-0.1,0.1-0.2,0.1c0,0-0.1,0.1-0.2,0.1
		c-0.1,0.1-0.1,0.1-0.2,0.2c-0.2,0.1-0.3,0.2-0.4,0.4L32.3,60c-0.1,0.1-0.2,0.2-0.2,0.3c-0.2,0-0.3,0.1-0.4,0.2
		c-0.1,0-0.2,0-0.2,0.2c0,0,0,0-0.1,0c0,0,0,0-0.1,0c0,0-0.1,0-0.1,0.1c0,0,0,0-0.1,0c0,0,0,0-0.1,0c0,0-0.1,0.1-0.2,0.1
		c-0.1,0-0.2,0-0.2,0c0,0,0,0,0,0.1c0,0-0.1,0-0.1,0c0,0-0.1,0.1-0.1,0.2c0,0-0.1,0-0.2-0.1c-0.2,0-0.3,0-0.3,0.2
		c0,0.1-0.1,0.1-0.1,0l-0.1,0c-0.1-0.1-0.3-0.1-0.6,0c-0.2,0.1-0.3,0.1-0.3,0.1c0,0-0.1,0-0.1,0c0,0-0.1,0-0.1,0c0,0,0,0.1,0,0.1
		c0,0,0,0.1,0,0.1h-0.2l-0.2-0.2c0,0-0.1,0-0.1,0c0,0-0.1,0-0.1,0s0,0-0.1,0c0,0-0.1,0-0.1,0c0,0-0.1,0-0.1,0c-0.1,0-0.1,0-0.1,0
		c0,0,0,0-0.1-0.1c0,0,0,0-0.1,0s-0.1,0-0.1,0c-0.1,0-0.1,0-0.1,0s-0.1,0-0.1-0.1c-0.1,0-0.1-0.1-0.1-0.1c0,0,0,0-0.1,0
		c0,0-0.1,0-0.1,0l0-0.1c0,0-0.1-0.1-0.2-0.1c0,0,0,0-0.1,0c0,0,0,0-0.1,0c0,0,0-0.1,0-0.2c0,0-0.1,0-0.1,0c0,0-0.1,0-0.1,0
		c-0.1-0.2-0.2-0.2-0.2,0c0,0-0.1-0.1-0.1-0.2c0,0-0.1,0-0.2-0.1c-0.1-0.1-0.2-0.1-0.2-0.1c0,0-0.1,0-0.1,0c0-0.1,0-0.1,0-0.1h-0.2
		c0-0.1,0-0.1,0-0.1c0,0,0,0-0.1,0c0,0-0.1,0-0.1,0c0,0-0.1,0-0.1-0.1c0-0.1,0-0.1,0-0.2c-0.1,0-0.1,0-0.2,0
		c-0.1-0.1-0.1-0.1-0.2-0.1c0-0.1,0-0.2-0.1-0.3c-0.1-0.1-0.2-0.1-0.2-0.2c-0.1-0.3-0.2-0.4-0.4-0.4c0-0.1,0-0.2-0.2-0.3
		c-0.1-0.1-0.2-0.2-0.2-0.3c-0.1-0.2-0.2-0.3-0.3-0.4c0-0.1,0-0.2-0.1-0.3c-0.1-0.1-0.2-0.2-0.2-0.3c0,0,0,0-0.1,0c0,0,0,0,0,0
		c0-0.2,0-0.2-0.1-0.3c0-0.1,0-0.2-0.1-0.3c0-0.2,0-0.4-0.1-0.5c0,0-0.1,0-0.1,0c-0.1-0.2-0.1-0.4,0-0.5c-0.1-0.2-0.1-0.3-0.2-0.4
		c0,0,0-0.1,0-0.2c0-0.1,0-0.2,0-0.2c-0.1-0.2-0.1-0.3-0.1-0.4c0,0,0-0.1,0-0.1c0,0-0.1-0.1-0.1-0.1c0-0.2,0-0.3,0-0.3
		c0-0.2,0-0.3,0-0.4c0,0-0.1,0-0.1,0c0,0,0-0.1,0-0.1c0,0,0-0.1,0-0.1c0,0,0-0.1,0-0.1c0,0,0,0,0-0.1c0,0,0,0,0-0.1c0,0,0-0.1,0-0.1
		c0,0,0-0.1,0-0.2c0-0.1,0-0.2,0-0.2c0.1-0.1,0-0.2-0.1-0.3c0,0,0,0,0-0.1c0,0,0,0,0,0c0,0,0,0,0,0c0,0,0,0,0-0.1c0,0,0-0.1,0-0.1
		c0,0,0-0.1,0-0.1c0,0,0-0.1,0-0.1c0,0,0-0.1,0-0.1s0-0.1,0.1-0.3c-0.1,0-0.1-0.3,0-0.7c0.1-0.4,0.2-0.7,0.2-0.7c0,0,0-0.1,0-0.1
		c-0.1-0.1-0.1-0.2,0-0.4c0-0.1,0-0.1,0-0.1s0,0,0.1-0.1c0,0,0.1,0,0.1-0.1c0,0,0-0.1-0.1-0.1c0,0,0,0,0-0.1s0.1,0,0.1-0.1
		c0,0,0-0.1-0.1-0.1c0,0,0-0.1,0-0.2c0-0.1,0-0.2,0-0.2c0,0,0.1-0.1,0.1-0.1c0-0.1,0-0.2,0-0.3c0-0.2,0-0.3,0-0.4
		c0-0.1,0.1-0.2,0.1-0.3c0-0.2,0.1-0.3,0.1-0.3c0-0.1,0-0.1,0.1-0.2c0,0-0.1-0.1,0-0.2c0-0.1,0-0.2,0-0.2c0,0,0.1-0.1,0.1-0.2
		c0-0.1,0.1-0.2,0.1-0.2c0-0.1,0-0.2,0.1-0.4c0-0.1-0.1-0.1,0-0.2c0-0.1,0-0.1,0.1-0.2c0-0.2,0.1-0.4,0.2-0.5c0-0.1,0-0.2,0.1-0.2
		c0.1-0.1,0.1-0.2,0.1-0.2c0-0.1,0.1-0.1,0.1-0.2v-0.1c0.1-0.2,0.1-0.3,0.1-0.3c0,0,0.1-0.1,0.1-0.1c0,0,0.1-0.1,0.1-0.1
		c0-0.1,0-0.1,0-0.2c0.1,0,0.1-0.1,0.2-0.3c0.1-0.1,0.2-0.2,0.3-0.4c0.1-0.1,0.2-0.2,0.3-0.5c0,0,0.1,0,0.1,0.1
		c0.1-0.1,0.1-0.2,0.2-0.3c0.1,0,0.2-0.2,0.5-0.6c0.1,0,0.1,0,0.1-0.1c0,0,0,0,0.1,0c0,0,0,0,0,0c0,0,0.1-0.1,0.1-0.1
		c0,0,0.1-0.1,0.1-0.1c0,0,0.1,0,0.2-0.1c0.2,0,0.3,0,0.3-0.1c0.1,0,0.1,0,0.2-0.1c0-0.1,0.1-0.1,0.1-0.1c0,0,0.1,0,0.1,0
		c0,0,0.1,0,0.1,0c0,0,0.1,0,0.1,0c0,0,0.1,0,0.1,0s0.1,0,0.1,0.1c0,0,0.1,0,0.1,0c0,0,0,0,0.1,0c0,0,0.1,0,0.1,0c0,0,0,0,0.1,0
		c0,0,0,0.1,0.1,0.1c0.1,0,0.2,0,0.4,0c0.1,0.1,0.2,0.1,0.3,0.1c0,0.1,0.1,0.2,0.3,0.2c0.1,0.1,0.1,0.1,0.1,0.1h0.1
		C28.9,41.4,28.9,41.4,28.9,41.4z M28.7,41.3h0.1c0,0.1,0,0.1,0,0.1c0.2,0.1,0.3,0.2,0.3,0.2c0,0.1,0,0.1,0.1,0.2c0,0,0,0,0.1,0
		c0,0.1,0,0.2,0.1,0.3c0,0,0,0.1,0,0.1c0,0.1,0,0.2,0,0.3c0,0.1,0,0.1,0,0.2c0,0.1,0,0.1,0,0.1c0,0,0,0.1,0,0.1c0,0,0,0.1,0,0.1
		c0,0-0.1,0-0.1,0c0,0.1-0.1,0.1-0.1,0.2c-0.1,0.1-0.2,0.2-0.3,0.2c0,0-0.1,0-0.1,0c0,0-0.1,0-0.1,0c0,0,0,0-0.1,0.1c0,0,0,0-0.1,0
		c0,0-0.1,0-0.2,0c0,0,0,0-0.1,0c0,0,0-0.1-0.1-0.1c0,0-0.1,0-0.1,0c0,0-0.1,0-0.1,0c0,0,0,0-0.1,0c0,0,0,0,0,0c0,0,0,0,0-0.1
		c0,0-0.1-0.1-0.1-0.1c-0.2,0-0.4,0-0.4,0.1c0,0,0,0.1,0,0.1c-0.2,0-0.3,0.1-0.3,0.2c0,0,0,0,0,0c0,0,0,0,0,0c0,0-0.1,0-0.2,0.1
		C27.1,43.9,27,44,27,44v0.1c0,0-0.1,0.1-0.1,0.1h-0.1c-0.2,0.2-0.4,0.4-0.4,0.6c0,0-0.1,0-0.1,0c0,0,0,0,0,0.1c0,0,0,0,0,0.1
		c-0.1,0-0.1,0.1-0.2,0.2c-0.1,0.1-0.2,0.2-0.2,0.3c0,0.1,0,0.2-0.1,0.3c-0.1,0.1-0.1,0.2-0.1,0.3c0,0-0.1,0.1-0.1,0.2
		c0,0.1-0.1,0.1-0.1,0.1c0,0,0,0.1,0,0.1c0,0,0,0.1,0,0.1c0,0-0.1,0.1-0.1,0.2c0,0,0,0.1,0,0.1c0,0.1,0,0.2-0.1,0.3
		c0,0.1-0.1,0.2-0.1,0.2c0,0-0.1,0.1-0.1,0.2c0,0.1-0.1,0.2-0.1,0.2v0.2c-0.1,0.1-0.1,0.2-0.1,0.2v0.2c-0.1,0.2-0.2,0.4-0.1,0.6
		l-0.1,0c0,0.1,0,0.2,0,0.5c0,0-0.1,0-0.1,0c0,0.1,0,0.2,0,0.4s0,0.3-0.1,0.4c0,0.1,0,0.2,0,0.3c0,0.1,0,0.1-0.1,0.1
		c0,0.3-0.1,0.6-0.1,1c0,0,0,0.3,0,0.8c0,0.5,0,0.8,0,0.9c0,0.1,0,0.1,0,0.1c0,0.2,0,0.3,0.1,0.3c0,0.1,0,0.2,0,0.3s0,0.3,0,0.3
		c0,0.1,0,0.1,0.1,0.2c-0.1,0.3,0,0.5,0.1,0.5c0,0.1-0.1,0.2,0,0.3c0,0,0,0.1,0.1,0.1c0,0,0,0.1,0,0.1c0,0,0,0,0,0.1
		c0,0,0,0.1,0,0.1c0,0,0,0.1,0.1,0.2c0,0.1,0,0.1,0.1,0.3c0,0.1,0,0.2,0.1,0.3c0,0.1,0.1,0.1,0.1,0.2c0.2,0.4,0.3,0.7,0.4,0.7
		c0,0,0,0,0,0.1s0,0,0,0.1c0,0,0.1,0.1,0.2,0.1c0,0.1,0,0.1,0.1,0.2c0,0,0.1,0.1,0.1,0.1l0,0.1c0,0,0,0,0.1,0c0,0,0,0,0.1,0
		c0,0,0,0.1,0.1,0.1c0,0.1,0.1,0.1,0.1,0.1c0,0,0.1,0,0.3,0c0,0,0.1,0,0.1,0.1s0,0.1,0.1,0.1c0,0,0.1,0,0.1,0c0,0,0.1,0,0.1,0
		c0,0,0.1,0,0.1,0c0,0,0.1,0,0.2,0.1c0.1,0.1,0.1,0.1,0.2,0.1c0,0,0,0,0.1,0c0,0,0,0,0.1,0c0,0,0.1,0,0.1,0c0.1,0,0.1,0,0.1,0
		c0.1,0.1,0.1,0.2,0.2,0.2c0,0,0.1,0,0.1,0c0.1,0,0.1,0,0.1,0c0.3,0,0.5,0,0.5-0.1c0.2,0,0.3,0.1,0.3,0.1c0,0,0,0,0.1-0.1
		c0,0,0-0.1,0-0.1c0.2,0.1,0.3,0.1,0.4,0c0.2,0,0.3,0,0.4-0.2c0.2,0,0.2,0,0.3-0.1c0.1,0.1,0.1,0,0.2,0c0,0,0,0,0.1,0c0,0,0,0,0.1,0
		c0,0,0.1,0,0.2-0.1c0,0,0.1,0,0.2-0.1c0.1-0.1,0.1-0.1,0.2-0.1c0,0,0.1-0.1,0.2-0.1c0.1-0.1,0.2-0.1,0.2-0.2c0.1,0,0.1-0.1,0.2-0.2
		c0,0,0.1,0,0.2-0.1c0.1,0,0.2,0,0.2-0.1c0.1-0.1,0.1-0.1,0.2-0.1c0,0,0,0,0-0.1v0c0,0,0,0,0.1,0c0,0,0,0,0.1,0
		c0-0.1,0.1-0.1,0.1-0.2c0-0.1,0.1-0.1,0.1-0.2c0.2-0.2,0.3-0.3,0.3-0.5c0.1,0,0.1,0,0.1,0c0-0.1,0.1-0.1,0.1-0.1c0.1,0,0.1,0,0.2,0
		c0-0.1,0.1-0.1,0.2-0.1c0.1,0,0.2,0,0.2,0.1c0,0,0.1,0,0.1,0c0.1,0,0.1,0.1,0.2,0.2c0.1,0,0.1,0,0.1,0c0,0,0.1,0.1,0.1,0.2
		c0,0.1,0.1,0.2,0.2,0.2c0,0.1,0,0.1,0,0.1c0,0,0.1,0.1,0.1,0.1c0,0,0.1,0.1,0.1,0.1c0,0.1,0,0.2,0.1,0.4c0.1,0.1,0.1,0.2,0.1,0.3
		c-0.1,0.1-0.1,0.2-0.1,0.2c0,0,0,0.1,0,0.1c0,0,0,0-0.1,0c0,0.1,0,0.2,0,0.2c-0.1,0-0.1,0.1-0.2,0.2c-0.1,0.1-0.2,0.2-0.2,0.3
		c-0.1,0.1-0.2,0.1-0.2,0.2c-0.1,0-0.2,0.1-0.4,0.3c0,0-0.1,0-0.1,0.1c0,0.1-0.1,0.1-0.2,0.1c0,0-0.1,0.1-0.2,0.1
		c-0.1,0.1-0.1,0.1-0.2,0.2c-0.2,0.1-0.3,0.2-0.4,0.4L32.3,60c-0.1,0.1-0.2,0.2-0.2,0.3c-0.2,0-0.3,0.1-0.4,0.2
		c-0.1,0-0.2,0-0.2,0.2c0,0,0,0-0.1,0c0,0,0,0-0.1,0c0,0-0.1,0-0.1,0.1c0,0,0,0-0.1,0c0,0,0,0-0.1,0c0,0-0.1,0.1-0.2,0.1
		c-0.1,0-0.2,0-0.2,0c0,0,0,0,0,0.1c0,0-0.1,0-0.1,0c0,0-0.1,0.1-0.1,0.2c0,0-0.1,0-0.2-0.1c-0.2,0-0.3,0-0.3,0.2
		c0,0.1-0.1,0.1-0.1,0l-0.1,0c-0.1-0.1-0.3-0.1-0.6,0c-0.2,0.1-0.3,0.1-0.3,0.1c0,0-0.1,0-0.1,0c0,0-0.1,0-0.1,0c0,0,0,0.1,0,0.1
		c0,0,0,0.1,0,0.1h-0.2l-0.2-0.2c0,0-0.1,0-0.1,0c0,0-0.1,0-0.1,0s0,0-0.1,0c0,0-0.1,0-0.1,0c0,0-0.1,0-0.1,0c-0.1,0-0.1,0-0.1,0
		c0,0,0,0-0.1-0.1c0,0,0,0-0.1,0s-0.1,0-0.1,0c-0.1,0-0.1,0-0.1,0s-0.1,0-0.1-0.1c-0.1,0-0.1-0.1-0.1-0.1c0,0,0,0-0.1,0
		c0,0-0.1,0-0.1,0l0-0.1c0,0-0.1-0.1-0.2-0.1c0,0,0,0-0.1,0c0,0,0,0-0.1,0c0,0,0-0.1,0-0.2c0,0-0.1,0-0.1,0c0,0-0.1,0-0.1,0
		c-0.1-0.2-0.2-0.2-0.2,0c0,0-0.1-0.1-0.1-0.2c0,0-0.1,0-0.2-0.1c-0.1-0.1-0.2-0.1-0.2-0.1c0,0-0.1,0-0.1,0c0-0.1,0-0.1,0-0.1h-0.2
		c0-0.1,0-0.1,0-0.1c0,0,0,0-0.1,0c0,0-0.1,0-0.1,0c0,0-0.1,0-0.1-0.1c0-0.1,0-0.1,0-0.2c-0.1,0-0.1,0-0.2,0
		c-0.1-0.1-0.1-0.1-0.2-0.1c0-0.1,0-0.2-0.1-0.3c-0.1-0.1-0.2-0.1-0.2-0.2c-0.1-0.3-0.2-0.4-0.4-0.4c0-0.1,0-0.2-0.2-0.3
		c-0.1-0.1-0.2-0.2-0.2-0.3c-0.1-0.2-0.2-0.3-0.3-0.4c0-0.1,0-0.2-0.1-0.3c-0.1-0.1-0.2-0.2-0.2-0.3c0,0,0,0-0.1,0c0,0,0,0,0,0
		c0-0.2,0-0.2-0.1-0.3c0-0.1,0-0.2-0.1-0.3c0-0.2,0-0.4-0.1-0.5c0,0-0.1,0-0.1,0c-0.1-0.2-0.1-0.4,0-0.5c-0.1-0.2-0.1-0.3-0.2-0.4
		c0,0,0-0.1,0-0.2c0-0.1,0-0.2,0-0.2c-0.1-0.2-0.1-0.3-0.1-0.4c0,0,0-0.1,0-0.1c0,0-0.1-0.1-0.1-0.1c0,0,0-0.1,0-0.2
		c0-0.1,0-0.2,0-0.2c0-0.2,0-0.3,0-0.4c0,0-0.1,0-0.1,0c0,0,0-0.1,0-0.1c0,0,0-0.1,0-0.1c0,0,0-0.1,0-0.1c0,0,0,0,0-0.1
		c0,0,0,0,0-0.1c0,0,0-0.1,0-0.1c0,0,0-0.1,0-0.2c0-0.1,0-0.2,0-0.2c0.1-0.1,0-0.2-0.1-0.3c0,0,0,0,0-0.1c0,0,0,0,0,0c0,0,0,0,0,0
		c0,0,0,0,0-0.1c0,0,0-0.1,0-0.1c0,0,0-0.1,0-0.1c0,0,0-0.1,0-0.1c0,0,0-0.1,0-0.1s0-0.1,0.1-0.3c-0.1,0-0.1-0.3,0-0.7
		c0.1-0.4,0.2-0.7,0.2-0.7c0,0,0-0.1,0-0.1c-0.1-0.1-0.1-0.2,0-0.4c0-0.1,0-0.1,0-0.1s0,0,0.1-0.1c0,0,0.1,0,0.1-0.1
		c0,0,0-0.1-0.1-0.1c0,0,0,0,0-0.1s0.1,0,0.1-0.1L22,49.2c0,0,0-0.1,0-0.2c0-0.1,0-0.2,0-0.2c0,0,0.1-0.1,0.1-0.1c0-0.1,0-0.2,0-0.3
		c0-0.2,0-0.3,0-0.4c0-0.1,0.1-0.2,0.1-0.3c0-0.2,0.1-0.3,0.1-0.3c0-0.1,0-0.1,0.1-0.2c0,0-0.1-0.1,0-0.2c0-0.1,0-0.2,0-0.2
		c0,0,0.1-0.1,0.1-0.2c0-0.1,0.1-0.2,0.1-0.2c0-0.1,0-0.2,0.1-0.4c0-0.1-0.1-0.1,0-0.2c0-0.1,0-0.1,0.1-0.2c0-0.2,0.1-0.4,0.2-0.5
		c0-0.1,0-0.2,0.1-0.2c0.1-0.1,0.1-0.2,0.1-0.2c0-0.1,0.1-0.1,0.1-0.1v-0.2c0.1-0.2,0.1-0.3,0.1-0.3c0,0,0.1-0.1,0.1-0.1
		c0,0,0.1-0.1,0.1-0.1c0-0.1,0-0.1,0-0.2c0.1,0,0.1-0.1,0.2-0.3c0.1-0.1,0.2-0.2,0.3-0.4c0.1-0.1,0.2-0.2,0.3-0.5c0,0,0.1,0,0.1,0.1
		c0.1-0.1,0.1-0.2,0.2-0.3c0.1,0,0.2-0.2,0.5-0.6c0.1,0,0.1,0,0.1-0.1c0,0,0,0,0.1,0c0,0,0,0,0,0c0,0,0.1-0.1,0.1-0.1
		c0,0,0.1-0.1,0.1-0.1c0,0,0.1,0,0.2-0.1c0.2,0,0.3,0,0.3-0.1c0.1,0,0.1,0,0.2-0.1c0-0.1,0.1-0.1,0.1-0.1c0,0,0.1,0,0.1,0
		c0,0,0.1,0,0.1,0c0,0,0.1,0,0.1,0c0,0,0.1,0,0.1,0s0.1,0,0.1,0.1c0,0,0.1,0,0.1,0c0,0,0,0,0.1,0c0,0,0.1,0,0.1,0c0,0,0,0,0.1,0
		c0,0,0,0.1,0.1,0.1c0.1,0,0.2,0,0.4,0c0.1,0.1,0.2,0.1,0.3,0.1c0,0.1,0.1,0.2,0.3,0.2C28.7,41.3,28.7,41.3,28.7,41.3z M22.1,47.9
		C22.1,47.9,22.1,47.9,22.1,47.9C22.1,47.9,22.1,47.9,22.1,47.9C22.1,47.8,22.1,47.9,22.1,47.9z M22.1,47.8
		C22.1,47.8,22.1,47.9,22.1,47.8C22.1,47.9,22.1,47.9,22.1,47.8C22.1,47.9,22.1,47.9,22.1,47.8z"/>
	<path fill="#D93427" d="M48.7,45.1c0-0.1,0.1-0.1,0.1-0.1c0,0,0,0.1,0,0.1c0,0,0,0.1,0,0.1c0.2,0.1,0.3,0,0.3,0c0,0,0,0,0,0
		c0,0,0,0,0,0c0,0,0.1,0,0.1,0c0.1,0.1,0.3,0.1,0.5,0c0,0.1,0.1,0.1,0.2,0.1c0.1,0,0.2,0,0.2,0.1c0,0,0,0,0.1,0c0,0,0,0,0,0
		c0,0,0.1,0,0.1,0.1c0,0,0,0,0.1,0c0,0,0,0,0.1,0c0,0.1,0,0.1,0.1,0.3c0,0,0.1,0,0.2,0.1c0.1,0.1,0.1,0.1,0.2,0.1
		c0.1,0.4,0.2,0.6,0.2,0.7c0,0.2-0.1,0.3,0,0.3c0,0.3,0,0.5,0,0.6c0,0.1-0.1,0.1-0.2,0.2c-0.1,0.1-0.1,0.2-0.2,0.3
		c-0.1,0.1-0.1,0.1-0.1,0.2c0,0,0,0-0.1,0c0,0,0,0-0.1,0s-0.1,0-0.1,0.1c0,0.1-0.1,0.1-0.1,0.1c0,0-0.1,0-0.1,0c0,0-0.1,0-0.1,0
		c0,0,0,0-0.1,0.1c0,0,0,0.1-0.1,0.1c0,0-0.1,0-0.1,0c0,0.1-0.1,0.1-0.1,0.1c0,0-0.1,0-0.1-0.1c-0.1,0-0.1-0.1-0.2-0.1
		c-0.1,0-0.1,0.1-0.1,0.2c0,0.1-0.1,0-0.2-0.1c0,0-0.1,0-0.1,0c0,0-0.1,0-0.1,0c0-0.1,0-0.1-0.1-0.2c0,0-0.1,0-0.1,0
		c0-0.2-0.1-0.2-0.2-0.2l-0.1,0.1c0,0,0,0-0.1,0c0,0,0,0-0.1,0c0,0-0.1,0-0.1,0c0-0.1,0-0.1-0.1-0.1c0,0,0,0-0.1,0c0,0,0,0.1,0,0.1
		c-0.1,0-0.2,0-0.2-0.1c0,0-0.1,0-0.1,0.1c0,0-0.1,0-0.1-0.1c-0.1,0-0.3,0-0.5,0c-0.3,0-0.4,0-0.5,0c0,0,0,0-0.1,0c0,0,0,0,0,0
		c0,0,0,0,0,0c0,0,0,0-0.1,0c-0.2,0-0.4,0-0.6,0c0,0-0.1,0-0.1,0c0,0-0.1,0-0.1,0c-0.1-0.1-0.2,0-0.2,0c0,0,0.1,0.1,0.1,0.3
		c0,0.2,0.1,0.2,0.2,0.2c-0.1,0.1-0.1,0.2-0.1,0.4c0,0,0,0.1,0,0.1c0,0.1,0,0.1,0,0.2c0,0.1,0,0.2,0.1,0.2c0,0.1,0.1,0.1,0.1,0.1
		c0,0.3,0,0.4-0.1,0.5c0,0.2,0,0.3,0.1,0.4v0.4c0,0,0,0.1,0,0.1c0,0,0,0.1,0.1,0.1c0,0.1,0,0.2,0,0.3c0,0,0,0.1,0.1,0.2
		c-0.1,0.2-0.1,0.3,0,0.4c0,0.1-0.1,0.1-0.1,0.2c0,0.1,0,0.1,0.1,0.1c0.1,0.2,0.1,0.3,0,0.4c0,0.1,0,0.1,0,0.2s0,0.1,0,0.2
		c0,0.1,0,0.1,0,0.1c0,0,0,0.1,0.1,0.1c0,0,0.1,0.1,0.1,0.1c0,0,0,0.1-0.1,0.1c0,0.1,0,0.2,0,0.3c0,0.1,0,0.2,0,0.3
		c0,0.1,0.1,0.1,0.1,0.2c0,0,0,0.1,0,0.1c0,0,0,0.1,0,0.1s0,0,0,0.1c0,0,0,0.1,0,0.1c0,0,0,0.1,0,0.1c0,0,0,0.1,0,0.1
		c0,0,0,0.1,0,0.1c0,0,0,0.1,0,0.1c0,0,0,0,0,0.1c0,0.1,0,0.1,0,0.1c0,0,0,0.1,0,0.2c0,0.1,0,0.2,0,0.2c0,0.1,0,0.1,0,0.2
		c0,0,0,0.1,0,0.1s0,0.1,0.1,0.1l0,0.1c0,0.1,0,0.2,0,0.3l0.1,0.1c0,0.2,0.1,0.3,0.1,0.4c0,0-0.1,0.1-0.1,0.2c0,0,0,0,0,0.1
		c0,0.1,0,0.1,0,0.1c0,0,0,0.1,0,0.1c0,0,0,0.1,0.1,0.1c0,0.2,0.1,0.3,0.1,0.3c0,0.4,0,0.6,0.1,0.6c0,0,0.1,0,0.1,0c0,0,0,0.1,0,0.1
		c0,0.1,0,0.1,0,0.1c0,0,0,0-0.1-0.1c-0.1,0.1-0.1,0.1,0,0.2c0,0.1,0,0.2,0,0.3c0,0.1,0,0.2,0,0.2c0,0.1,0.1,0.2,0.1,0.4
		c0,0,0.1,0.1,0.1,0.4l0.1,0.1c0,0.1,0,0.2,0,0.4c0,0.2,0,0.4,0,0.4c0,0.1,0,0.1,0,0.2c0,0.1,0,0.2,0,0.2c0,0.4,0,0.7,0,0.7
		c0,0,0,0.1-0.1,0.1c0,0,0,0.1,0,0.1c0,0,0,0-0.1,0.1c0,0,0,0-0.1-0.1c0,0-0.1,0-0.1,0.1c0,0.1-0.1,0.1-0.1,0c0,0,0,0-0.1,0
		c0,0,0,0-0.1,0l-0.1,0.3c0,0-0.1,0-0.1-0.1c0,0,0-0.1,0-0.1c0,0-0.1,0.1-0.1,0.2c-0.1,0.1-0.1,0.1-0.2,0c0,0,0,0,0,0c0,0,0,0-0.1,0
		c0,0-0.1-0.1-0.1-0.1c-0.1,0-0.2,0-0.3-0.1c-0.1,0-0.1,0-0.1,0c0-0.3-0.1-0.4-0.2-0.4c0-0.1,0-0.1,0-0.1c0,0-0.1,0-0.1,0
		c0-0.2-0.1-0.3-0.2-0.3c0-0.1,0-0.1,0-0.2c0-0.1,0-0.1,0-0.1c0,0,0-0.1,0-0.2s0-0.1,0-0.2c0,0,0-0.1,0-0.2c0-0.1,0-0.2,0-0.2
		c0,0,0,0,0,0c0,0,0,0-0.1,0c0-0.1,0-0.2,0-0.3c0-0.1,0-0.2,0-0.3c0-0.1-0.1-0.2-0.1-0.2s0-0.1,0-0.2c0-0.1,0-0.1,0-0.2
		c0,0,0-0.1,0-0.1c0,0-0.1-0.1-0.1-0.1c0,0,0-0.1,0-0.1c0-0.1,0-0.1,0-0.1l-0.1,0c0-0.2,0-0.3,0-0.4c0-0.1-0.1-0.2-0.1-0.2
		c0-0.1,0-0.1,0-0.3c0-0.2,0-0.4-0.1-0.4c0-0.1,0.1-0.2,0-0.3c0-0.1-0.1-0.2-0.2-0.2c0.1-0.2,0.1-0.5,0-0.7c0,0,0-0.1,0-0.4
		c0-0.2,0-0.3-0.1-0.4c0-0.1,0-0.1,0-0.3c0-0.1,0-0.2,0-0.3c0-0.1,0-0.1-0.1-0.2c0-0.1,0-0.1,0-0.2c0-0.1,0-0.2,0-0.3
		c0,0,0-0.1,0-0.1c0,0,0-0.1,0-0.1c0-0.1-0.1-0.1-0.2-0.2c0,0,0-0.1,0-0.1c0,0,0.1-0.1,0.1-0.1s0-0.1-0.1-0.2c0-0.1,0-0.1,0-0.2
		c0-0.1,0-0.2,0-0.2c0,0,0-0.1-0.1-0.1l0-0.6c0,0,0-0.1,0-0.1c0,0,0-0.1,0-0.1c0,0,0-0.1,0-0.2s0-0.1,0-0.2c0,0,0-0.1,0-0.1
		c0,0-0.1-0.1-0.1-0.1c0,0,0-0.1,0-0.2c0-0.1,0-0.2,0-0.2c0,0,0-0.1,0-0.2c0-0.1,0-0.1,0-0.2c0,0,0-0.1,0-0.1c0-0.1,0-0.1,0-0.1
		c0,0,0,0,0-0.1c0,0,0-0.1,0-0.1c0-0.1,0-0.1,0-0.3c0-0.2,0-0.4-0.1-0.4c0-0.2-0.1-0.4-0.2-0.4c0,0,0-0.1,0-0.1c0,0,0-0.1,0-0.1
		c0-0.2-0.1-0.3-0.2-0.3c0-0.1,0.1-0.2,0-0.3c0,0,0-0.1,0-0.1c0,0,0-0.1,0-0.1c0-0.1,0-0.1,0-0.2c0-0.1,0-0.1-0.1-0.1
		c-0.1,0.1-0.2,0.1-0.3,0c-0.2,0.1-0.3,0.1-0.3,0.2c0,0-0.1,0-0.1,0c0,0-0.1,0-0.1,0s0,0-0.1,0c-0.1,0-0.1,0-0.2,0
		c0-0.1-0.1-0.1-0.2-0.2c0,0,0,0-0.1,0.1c0,0,0,0.1-0.1,0.1c0,0-0.1,0-0.2,0c-0.1,0-0.2,0-0.2,0c0,0-0.1,0-0.1,0
		c-0.1,0-0.1,0-0.1,0.1c0,0,0,0-0.1,0c0,0,0,0-0.1,0c0,0-0.1,0-0.2,0c0,0-0.1,0-0.1,0c0,0-0.1,0-0.1,0c-0.1,0-0.1,0-0.1,0h-0.1
		c0,0-0.1,0-0.1,0c0,0-0.1,0-0.1,0c0,0-0.1,0-0.1,0c-0.1,0-0.1,0-0.2,0c0,0.1,0,0.1,0,0.1c0,0-0.1,0-0.2,0c-0.1,0-0.1,0-0.2,0
		c0-0.1-0.1-0.1-0.1-0.1c0,0-0.1,0-0.1,0.1c-0.3,0-0.4-0.1-0.4-0.1c0,0-0.1,0-0.1,0c0,0-0.1,0-0.1,0c0,0,0,0-0.1,0.1c0,0,0,0-0.1,0
		c0,0,0,0-0.1,0c0,0-0.1,0-0.2,0c-0.1,0-0.2,0-0.2,0c0,0,0,0.1,0,0.1c0,0,0,0,0,0c0,0,0,0-0.1,0c0-0.1,0-0.2-0.1-0.2s-0.2,0-0.2,0.1
		c0,0-0.1,0-0.2,0c-0.1,0-0.1,0-0.1,0c0-0.1-0.1-0.2-0.1-0.2c0,0,0,0,0,0c0,0,0,0-0.1,0s0,0,0-0.1c0,0,0-0.1,0-0.1h-0.1
		c0-0.1,0-0.1-0.1-0.2c0,0,0-0.1,0-0.1c0-0.1,0-0.1,0-0.1c0,0-0.1-0.1-0.2-0.3c0-0.1-0.1-0.2-0.2-0.2c-0.1-0.1-0.1-0.1-0.1-0.2
		c0,0,0-0.1,0-0.1c0,0,0-0.1,0.1-0.1c0-0.1,0-0.1,0-0.2c0-0.1,0-0.1,0-0.2c0-0.1,0.1-0.1,0.2-0.2c0,0,0,0,0-0.1s0,0,0,0
		c0,0,0,0,0.1-0.1c0.1-0.1,0.1-0.2,0.1-0.2c0.1-0.1,0.2-0.2,0.2-0.2c0.1,0.1,0.3,0.1,0.6,0l0-0.1c0.2,0.1,0.4,0.1,0.4,0.1
		c0.1-0.1,0.1-0.1,0.1-0.1c0,0,0.1,0,0.1,0c0,0,0.1,0,0.1,0c0,0,0,0,0.1,0c0,0,0,0,0.1,0c0,0,0,0,0.1,0c0,0,0,0,0.1,0
		c0.2,0,0.3,0,0.3,0c0,0,0.1,0,0.1-0.1c0.1,0,0.1,0,0.2,0c0.1,0.1,0.1,0.1,0.1,0.1c0.1,0,0.2,0,0.3,0c0,0,0.1,0,0.2,0s0.1,0,0.2-0.1
		c0,0,0.1,0,0.3,0c0.1,0,0.2,0,0.3,0c0,0,0,0,0.1,0c0,0,0,0,0.1,0s0,0,0,0c0,0,0,0,0.1,0c0.1,0.1,0.3,0.1,0.5,0c0,0,0.1,0,0.1,0
		c0,0,0.1,0,0.1,0c0,0,0.1,0,0.1,0c0,0,0.1,0,0.1,0c0,0,0.1,0,0.1,0c0.1-0.1,0.2-0.1,0.3,0c0,0,0,0,0,0l0,0c0,0,0,0,0.1,0
		c0,0,0,0,0.1,0c0.1,0,0.3,0,0.5,0c0.2,0,0.4,0,0.5,0l0.1,0c0.1,0.1,0.2,0.1,0.4,0c0.2-0.1,0.3-0.1,0.3-0.1c0,0,0,0,0.1,0
		c0,0,0,0,0.1,0c0,0,0,0,0.1,0c0,0,0,0,0-0.1c0,0,0.1,0,0.2,0c0.1,0,0.1,0,0.2,0c0,0,0,0,0,0c0,0,0.1,0,0.2,0c0.1,0,0.1,0.1,0.2,0.1
		c0.1-0.1,0.1-0.1,0.2-0.1c0,0,0.1,0,0.1,0c0,0,0,0,0.1,0c0,0,0,0,0,0s0,0,0.1,0c0,0,0,0,0.1,0c0.1,0,0.1,0,0.2-0.1
		c0.1,0,0.2,0,0.2,0.1c0.1,0.1,0.1,0.1,0.2,0.1c0,0,0.1,0,0.1,0c0,0,0.1-0.1,0.1-0.1c0.1,0,0.1,0,0.2,0c0,0,0,0,0.1,0c0,0,0,0,0.1,0
		s0.1,0,0.2,0.1c0,0,0,0,0.1,0c0,0,0,0,0.1,0c0,0.1,0.1,0.1,0.2,0c0.1-0.1,0.2-0.1,0.2,0c0,0,0,0,0.1,0c0,0,0,0,0.1,0
		c0,0,0.1,0,0.2,0c0.1,0,0.1,0,0.1,0c0,0,0.1,0,0.1,0c0,0,0.1,0,0.1,0c0,0,0.1,0,0.2-0.1c0,0,0.1,0,0.1,0c0,0.1,0.1,0.1,0.1,0.1
		c0,0,0,0,0.1,0c0,0,0,0,0.1,0c0,0,0.1,0,0.1,0.1C48.6,45.2,48.6,45.2,48.7,45.1z M48.8,45C48.8,45,48.8,45.1,48.8,45
		c0,0.1,0,0.2,0,0.2c0.2,0.1,0.3,0,0.3,0c0,0,0,0,0,0c0,0,0,0,0,0c0,0,0.1,0,0.1,0c0.1,0.1,0.3,0.1,0.5,0c0,0.1,0.1,0.1,0.2,0.1
		c0.1,0,0.2,0,0.2,0.1c0,0,0,0,0.1,0c0,0,0,0,0,0c0,0,0.1,0,0.1,0.1c0,0,0,0,0.1,0c0,0,0,0,0.1,0c0,0.1,0,0.1,0.1,0.3
		c0,0,0.1,0,0.2,0.1c0.1,0.1,0.1,0.1,0.2,0.1c0.1,0.4,0.2,0.6,0.2,0.7c0,0.2-0.1,0.3,0,0.3c0,0.3,0,0.5,0,0.6c0,0.1-0.1,0.1-0.2,0.2
		c-0.1,0.1-0.1,0.2-0.2,0.3c-0.1,0.1-0.1,0.1-0.1,0.2c0,0,0,0-0.1,0c0,0,0,0-0.1,0s-0.1,0-0.1,0.1c0,0.1-0.1,0.1-0.1,0.1
		c0,0-0.1,0-0.1,0c0,0-0.1,0-0.1,0c0,0,0,0-0.1,0.1c0,0,0,0.1-0.1,0.1c0,0-0.1,0-0.1,0c0,0.1-0.1,0.1-0.1,0.1c0,0-0.1,0-0.1-0.1
		c-0.1,0-0.1-0.1-0.2-0.1c-0.1,0-0.1,0.1-0.1,0.2c0,0.1-0.1,0-0.2-0.1c0,0-0.1,0-0.1,0c0,0-0.1,0-0.1,0c0-0.1,0-0.1-0.1-0.2
		c0,0-0.1,0-0.1,0c0-0.2-0.1-0.2-0.2-0.2l-0.1,0.1c0,0,0,0-0.1,0c0,0,0,0-0.1,0c0,0-0.1,0-0.1,0c0-0.1,0-0.1-0.1-0.1c0,0,0,0-0.1,0
		c0,0,0,0.1,0,0.1c-0.1,0-0.2,0-0.2-0.1c0,0-0.1,0-0.1,0.1c0,0-0.1,0-0.1-0.1c-0.1,0-0.3,0-0.5,0c-0.3,0-0.4,0-0.5,0c0,0,0,0-0.1,0
		c0,0,0,0,0,0c0,0,0,0,0,0c0,0,0,0-0.1,0c-0.2,0-0.4,0-0.6,0c0,0-0.1,0-0.1,0c0,0-0.1,0-0.1,0c-0.1-0.1-0.2,0-0.2,0
		c0,0,0.1,0.1,0.1,0.3c0,0.2,0.1,0.2,0.2,0.2c-0.1,0.1-0.1,0.2-0.1,0.4c0,0,0,0.1,0,0.1c0,0.1,0,0.1,0,0.2c0,0.1,0,0.2,0.1,0.2
		c0,0.1,0.1,0.1,0.1,0.1c0,0.3,0,0.4-0.1,0.5c0,0.2,0,0.3,0.1,0.4v0.4c0,0,0,0.1,0,0.1c0,0,0,0.1,0.1,0.1c0,0.1,0,0.2,0,0.3
		c0,0,0,0.1,0.1,0.2c-0.1,0.2-0.1,0.3,0,0.4c0,0.1-0.1,0.1-0.1,0.2c0,0.1,0,0.1,0.1,0.1c0.1,0.2,0.1,0.3,0,0.4c0,0.1,0,0.1,0,0.2
		s0,0.1,0,0.2c0,0.1,0,0.1,0,0.1c0,0,0,0.1,0.1,0.1c0,0,0.1,0.1,0.1,0.1c0,0,0,0.1-0.1,0.1c0,0.1,0,0.2,0,0.3c0,0.1,0,0.2,0,0.3
		c0,0.1,0.1,0.1,0.1,0.2c0,0,0,0.1,0,0.1c0,0,0,0.1,0,0.1s0,0,0,0.1c0,0,0,0.1,0,0.1c0,0,0,0.1,0,0.1c0,0,0,0.1,0,0.1
		c0,0,0,0.1,0,0.1c0,0,0,0.1,0,0.1c0,0,0,0,0,0.1c0,0.1,0,0.1,0,0.1c0,0,0,0.1,0,0.2c0,0.1,0,0.2,0,0.2c0,0.1,0,0.1,0,0.2
		c0,0,0,0.1,0,0.1s0,0.1,0.1,0.1l0,0.1c0,0.1,0,0.2,0,0.3l0.1,0.1c0,0.2,0.1,0.3,0.1,0.4c0,0-0.1,0.1-0.1,0.2c0,0,0,0,0,0.1
		c0,0.1,0,0.1,0,0.1c0,0,0,0.1,0,0.1c0,0,0,0.1,0.1,0.1c0,0.2,0.1,0.3,0.1,0.3c0,0.4,0,0.6,0.1,0.6c0,0,0.1,0,0.1,0c0,0,0,0.1,0,0.1
		c0,0.1,0,0.1,0,0.1c0,0,0,0-0.1-0.1c-0.1,0.1-0.1,0.1,0,0.2c0,0.1,0,0.2,0,0.3c0,0.1,0,0.2,0,0.2c0,0.1,0.1,0.2,0.1,0.4
		c0,0,0.1,0.1,0.1,0.4l0.1,0.1c0,0.1,0,0.2,0,0.4c0,0.2,0,0.4,0,0.4c0,0.1,0,0.1,0,0.2c0,0.1,0,0.2,0,0.2c0,0.4,0,0.7,0,0.7
		c0,0,0,0.1-0.1,0.1c0,0,0,0.1,0,0.1c0,0,0,0-0.1,0.1c0,0,0,0-0.1-0.1c0,0-0.1,0-0.1,0.1c0,0.1-0.1,0.1-0.1,0c0,0,0,0-0.1,0
		c0,0,0,0-0.1,0l-0.1,0.3c0,0,0,0-0.1-0.1c0,0,0-0.1-0.1-0.1c0,0-0.1,0.1-0.1,0.2c-0.1,0.1-0.1,0.1-0.2,0c0,0,0,0,0,0c0,0,0,0-0.1,0
		c0,0-0.1-0.1-0.1-0.1c-0.1,0-0.2,0-0.3-0.1c-0.1,0-0.1,0-0.1,0c0-0.3-0.1-0.4-0.2-0.4c0-0.1,0-0.1,0-0.1c0,0-0.1,0-0.1,0
		c0-0.2-0.1-0.3-0.2-0.3c0-0.1,0-0.1,0-0.2c0-0.1,0-0.1,0-0.1c0,0,0-0.1,0-0.2s0-0.1,0-0.2c0,0,0-0.1,0-0.2c0-0.1,0-0.2,0-0.2
		c0,0,0,0,0,0c0,0,0,0-0.1,0c0-0.1,0-0.2,0-0.3c0-0.1,0-0.2,0-0.3c0-0.1-0.1-0.2-0.1-0.2s0-0.1,0-0.2c0-0.1,0-0.1,0-0.2
		c0,0,0-0.1,0-0.1c0,0-0.1-0.1-0.1-0.1c0,0,0-0.1,0-0.1c0-0.1,0-0.1,0-0.1l-0.1,0c0-0.2,0-0.3,0-0.4c0-0.1-0.1-0.2-0.1-0.2
		c0-0.1,0-0.1,0-0.3c0-0.2,0-0.4-0.1-0.4c0-0.1,0.1-0.2,0-0.3c0-0.1-0.1-0.2-0.2-0.2c0.1-0.2,0.1-0.5,0-0.7c0,0,0-0.1,0-0.4
		c0-0.2,0-0.3-0.1-0.4c0-0.1,0-0.1,0-0.3c0-0.1,0-0.2,0-0.3c0-0.1,0-0.1-0.1-0.2c0-0.1,0-0.1,0-0.2c0-0.1,0-0.2,0-0.3
		c0,0,0-0.1,0-0.1c0,0,0-0.1,0-0.1c0-0.1-0.1-0.1-0.2-0.2c0,0,0-0.1,0-0.1c0,0,0.1-0.1,0.1-0.1s0-0.1-0.1-0.2c0-0.1,0-0.1,0-0.2
		c0-0.1,0-0.2,0-0.2c0,0,0-0.1-0.1-0.1l0-0.6c0,0,0-0.1,0-0.1c0,0,0-0.1,0-0.1c0,0,0-0.1,0-0.2s0-0.1,0-0.2c0,0,0-0.1,0-0.1
		c0,0-0.1-0.1-0.1-0.1c0,0,0-0.1,0-0.2c0-0.1,0-0.2,0-0.2c0,0,0-0.1,0-0.2c0-0.1,0-0.1,0-0.2c0,0,0-0.1,0-0.1c0-0.1,0-0.1,0-0.1
		c0,0,0,0,0-0.1c0,0,0-0.1,0-0.1c0-0.1,0-0.1,0-0.3c0-0.2,0-0.4-0.1-0.4c0-0.2-0.1-0.4-0.2-0.4c0,0,0-0.1,0-0.1c0,0,0-0.1,0-0.1
		c0-0.2-0.1-0.3-0.2-0.3c0-0.1,0.1-0.2,0-0.3c0,0,0-0.1,0-0.1c0,0,0-0.1,0-0.1c0-0.1,0-0.1,0-0.2c0-0.1,0-0.1-0.1-0.1
		c-0.1,0.1-0.2,0.1-0.3,0c-0.2,0.1-0.3,0.1-0.3,0.2c0,0-0.1,0-0.1,0c0,0-0.1,0-0.1,0s0,0-0.1,0c-0.1,0-0.1,0-0.2,0
		c0-0.1-0.1-0.1-0.2-0.2c0,0,0,0-0.1,0.1c0,0,0,0.1-0.1,0.1c0,0-0.1,0-0.2,0c-0.1,0-0.2,0-0.2,0c0,0-0.1,0-0.1,0
		c-0.1,0-0.1,0-0.1,0.1c0,0,0,0-0.1,0c0,0,0,0-0.1,0c0,0-0.1,0-0.2,0c0,0-0.1,0-0.1,0c0,0-0.1,0-0.1,0c-0.1,0-0.1,0-0.1,0h-0.1
		c0,0-0.1,0-0.1,0c0,0-0.1,0-0.1,0c0,0-0.1,0-0.1,0c-0.1,0-0.1,0-0.2,0c0,0.1,0,0.1,0,0.1c0,0-0.1,0-0.2,0c-0.1,0-0.1,0-0.2,0
		c0-0.1-0.1-0.1-0.1-0.1c0,0-0.1,0-0.1,0.1c-0.3,0-0.4-0.1-0.4-0.1c0,0-0.1,0-0.1,0c0,0-0.1,0-0.1,0c0,0,0,0-0.1,0.1c0,0,0,0-0.1,0
		c0,0,0,0-0.1,0c0,0-0.1,0-0.2,0c-0.1,0-0.2,0-0.2,0c0,0,0,0.1,0,0.1c0,0,0,0,0,0c0,0,0,0-0.1,0c0-0.1,0-0.2-0.1-0.2s-0.2,0-0.2,0.1
		c0,0-0.1,0-0.2,0c-0.1,0-0.1,0-0.1,0c0-0.1-0.1-0.2-0.1-0.2c0,0,0,0,0,0c0,0,0,0-0.1,0s0,0,0-0.1c0,0,0-0.1,0-0.1h-0.1
		c0-0.1,0-0.1,0-0.1c0,0,0-0.1,0-0.1c0,0,0-0.1,0-0.1c0-0.1,0-0.1,0-0.1c0,0-0.1-0.1-0.2-0.3c0-0.1-0.1-0.2-0.2-0.2
		c-0.1-0.1-0.1-0.1-0.1-0.2c0,0,0-0.1,0-0.1c0,0,0-0.1,0.1-0.1c0-0.1,0-0.1,0-0.2c0-0.1,0-0.1,0-0.2c0-0.1,0.1-0.1,0.2-0.2
		c0,0,0,0,0-0.1s0,0,0,0c0,0,0,0,0.1-0.1c0.1-0.1,0.1-0.2,0.1-0.2c0.1-0.1,0.2-0.2,0.2-0.2c0.1,0.1,0.3,0.1,0.6,0l0-0.1
		c0.2,0.1,0.4,0.1,0.4,0.1c0.1-0.1,0.1-0.1,0.1-0.1c0,0,0.1,0,0.1,0c0,0,0.1,0,0.1,0c0,0,0,0,0.1,0c0,0,0,0,0.1,0c0,0,0,0,0.1,0
		c0,0,0,0,0.1,0c0.2,0,0.3,0,0.3,0c0,0,0.1,0,0.1-0.1c0.1,0,0.1,0,0.2,0c0.1,0.1,0.1,0.1,0.1,0.1c0.1,0,0.2,0,0.3,0c0,0,0.1,0,0.2,0
		s0.1,0,0.2-0.1c0,0,0.1,0,0.3,0c0.1,0,0.2,0,0.3,0c0,0,0,0,0.1,0c0,0,0,0,0.1,0s0,0,0,0c0,0,0,0,0.1,0c0.1,0.1,0.3,0.1,0.5,0
		c0,0,0.1,0,0.1,0c0,0,0.1,0,0.1,0c0,0,0.1,0,0.1,0c0,0,0.1,0,0.1,0c0,0,0.1,0,0.1,0c0.1-0.1,0.2-0.1,0.3,0c0,0,0,0,0,0l0,0
		c0,0,0,0,0.1,0c0,0,0,0,0.1,0c0.1,0,0.3,0,0.5,0c0.2,0,0.4,0,0.5,0c0,0,0-0.1,0.1-0.1c0.1,0.1,0.2,0.1,0.4,0
		c0.2-0.1,0.3-0.1,0.3-0.1c0,0,0,0,0.1,0c0,0,0,0,0.1,0c0,0,0,0,0.1,0c0,0,0,0,0-0.1c0,0,0.1,0,0.2,0c0.1,0,0.1,0,0.2,0c0,0,0,0,0,0
		c0,0,0.1,0,0.2,0c0.1,0,0.1,0.1,0.2,0.1c0.1-0.1,0.1-0.1,0.2-0.1c0,0,0.1,0,0.1,0c0,0,0,0,0.1,0c0,0,0,0,0,0s0,0,0.1,0
		c0,0,0,0,0.1,0c0.1,0,0.1,0,0.2-0.1c0.1,0,0.2,0,0.2,0.1c0.1,0.1,0.1,0.1,0.2,0.1c0,0,0.1,0,0.1-0.1c0,0,0.1-0.1,0.1-0.1
		c0.1,0,0.1,0,0.2,0c0,0,0,0,0.1,0c0,0,0,0,0.1,0s0.1,0,0.2,0.1c0,0,0,0,0.1,0c0,0,0,0,0.1,0c0,0.1,0.1,0.1,0.2,0
		c0.1-0.1,0.2-0.1,0.2,0c0,0,0,0,0.1,0c0,0,0,0,0.1,0c0,0,0.1,0,0.2,0c0.1,0,0.1,0,0.1,0c0,0,0.1,0,0.1,0c0,0,0.1,0,0.1,0
		c0,0,0.1,0,0.2-0.1c0,0,0.1,0,0.1,0c0,0.1,0.1,0.1,0.1,0.1c0,0,0,0,0.1,0c0,0,0,0,0.1,0c0,0,0.1,0,0.1,0.1c0,0,0.1,0,0.1-0.1
		C48.7,45,48.7,45,48.8,45z M44.2,55.9C44.2,55.9,44.2,55.9,44.2,55.9C44.1,55.9,44.1,55.9,44.2,55.9C44.1,55.9,44.1,55.9,44.2,55.9
		C44.1,55.8,44.2,55.8,44.2,55.9z M44.1,55.9C44.1,55.9,44.1,55.9,44.1,55.9C44.1,55.8,44.2,55.8,44.1,55.9
		C44.2,55.9,44.2,55.9,44.1,55.9C44.1,55.9,44.1,55.9,44.1,55.9z M46.4,53.8C46.4,53.8,46.4,53.8,46.4,53.8
		C46.4,53.9,46.4,53.8,46.4,53.8z M46.4,53.8C46.4,53.8,46.4,53.8,46.4,53.8L46.4,53.8L46.4,53.8z"/>
	<path fill="#D93427" d="M63.8,41.8C63.9,41.9,63.9,41.9,63.8,41.8c0,0.1,0,0.1,0,0.1c0.1,0,0.3,0,0.4,0.2c0.1,0.2,0.3,0.3,0.4,0.3
		c0,0.1,0.1,0.2,0.2,0.4c0.1,0.1,0.2,0.3,0.2,0.4c0,0,0.1,0,0.1,0c0,0.1,0,0.1-0.1,0.1c0,0-0.1,0.1-0.1,0.1c0,0,0,0.1,0,0.1
		c0,0,0,0.1,0,0.1c0,0.1,0,0.2,0,0.3c-0.1,0.1-0.1,0.2-0.1,0.3c-0.1,0-0.1,0-0.1,0c0,0,0,0.1,0,0.2c0,0.1-0.1,0.1-0.1,0.1l-0.1,0.2
		c0,0-0.1,0-0.2,0.1c0,0,0,0-0.1,0c0,0,0,0.1-0.1,0.1c0,0-0.1,0-0.1,0c0,0,0,0,0,0c0,0,0,0-0.1,0c0,0,0,0,0,0c-0.1,0-0.2,0-0.2,0.1
		c-0.1,0-0.2-0.1-0.3-0.2c-0.1,0-0.1,0-0.2-0.1S63,44.5,63,44.5c0,0,0,0-0.1,0c0,0,0,0-0.1,0c-0.1,0-0.2,0-0.3,0s-0.2,0-0.3,0.1
		c-0.1-0.1-0.2-0.1-0.4,0c0,0,0,0,0,0c0,0,0,0-0.1,0s-0.1,0-0.1,0c-0.1,0-0.1,0-0.1,0c0,0-0.1,0-0.3,0c-0.2,0-0.3,0-0.3,0.1
		c0,0,0,0.1,0,0.1c0,0.1,0,0.1,0,0.1c0,0,0,0,0,0.1c0,0.1,0,0.1,0,0.1c0,0,0,0.1,0.1,0.1c0,0.1,0,0.1,0,0.2c0,0,0,0.1,0,0.2
		c0,0.1,0,0.2,0,0.2c0,0.1,0,0.2,0,0.2c0,0.1,0.1,0.1,0.2,0.1c0,0.1,0,0.1-0.1,0.2c0,0.1,0,0.1,0,0.2c0,0.1,0,0.2,0,0.2
		c0,0,0,0.1,0.1,0.1c0,0,0,0.1,0,0.1c0,0.1,0,0.2,0,0.4c0,0.2,0,0.3,0,0.4c0,0,0,0.1,0,0.1c0,0,0,0.1,0,0.1c0,0.1,0,0.2,0,0.2l0,0.1
		c0,0.1,0,0.1,0,0.2c0,0.3,0,0.5,0.1,0.5c0,0,0,0.1,0,0.1c0,0,0,0.1,0,0.1c0,0,0,0,0.1,0.1c0,0,0,0,0,0.1s0,0,0,0c0,0-0.1,0-0.1,0
		c0,0,0,0,0,0c0,0,0,0.1,0.1,0.1c0,0,0,0.1,0,0.1c0,0,0,0.1,0,0.1s0,0.1,0,0.2c0,0.1,0,0.2,0,0.2c0,0.1,0,0.1,0,0.1s0,0,0,0.1
		s0,0.1,0,0.1c0,0.1,0,0.1,0,0.1c0,0.1,0,0.1,0,0.1c0,0,0,0.1,0,0.1c0,0,0,0.1,0,0.1c0,0.1,0,0.1,0,0.1c0,0.1,0.1,0.2,0,0.3
		c0,0.1,0,0.2,0,0.2c0,0,0,0,0.1,0.1c0,0,0,0.1,0,0.1c0,0,0,0.1,0,0.1S61.6,52,61.6,52c0,0,0,0.1,0.1,0.1c0,0,0,0.1,0,0.1
		c0,0,0,0,0,0.1c0,0.1,0,0.2,0,0.3c0,0.2,0,0.3,0,0.4c0,0.1,0,0.1,0,0.1s0,0,0,0.1c0,0,0,0.1,0,0.1c0,0,0,0.1,0,0.3
		c0,0.1,0,0.2,0,0.4c0,0,0,0.1,0,0.2c0,0.1,0,0.2,0,0.3l0.1,0.1c0,0.1,0,0.1,0,0.2c0,0.1,0,0.1,0,0.1c0,0,0,0.1,0,0.1
		c0,0.1,0,0.1,0,0.2s0,0.1,0,0.2c0,0.1,0,0.2,0,0.2c0,0,0,0.1,0.1,0.2c0,0.1,0,0.1,0,0.1c0,0,0,0.1,0,0.3c0,0.1,0,0.2,0,0.3
		c0,0,0,0.1,0,0.2c0,0.1,0,0.1,0,0.2c0,0.1,0,0.1,0,0.1s0,0,0,0.1c0,0,0,0,0,0c0,0.1,0,0.1,0,0.2c0,0.1,0,0.1,0,0.2c0,0,0,0.1,0,0.1
		c0,0,0,0.1,0,0.1v0.1c0,0.1,0,0.2,0.1,0.2c0,0.1,0.1,0.2,0.2,0.3c0.1,0,0.2,0,0.4,0c0.2,0,0.3,0,0.3,0c0,0,0,0,0.1,0
		c0,0,0-0.1,0.1-0.1c0.2,0,0.3,0,0.3,0.1c0,0,0,0,0.1,0c0,0,0,0,0.1,0c0,0,0.1,0,0.1,0c0,0,0.1,0,0.1,0c0,0,0.1,0,0.1,0
		c0,0,0.1,0,0.1,0c0.1,0.1,0.2,0.1,0.4,0c0,0,0.1,0,0.1,0s0.1,0,0.1,0l0.1-0.1c0,0,0.1,0,0.1,0c0.1,0,0.1,0,0.1,0c0,0,0-0.1,0-0.1
		c0,0,0-0.1,0-0.1h0.1c0,0,0,0,0,0.1c0,0,0,0.1,0,0.1c0.1,0,0.1,0,0.2-0.1c0-0.1,0.1-0.1,0.2,0v0.1c0.4,0.1,0.7,0.1,1,0.1l0.1,0
		c0.3,0.1,0.4,0.1,0.5,0c0,0,0.1,0.1,0.1,0.1c0.1,0,0.1,0.1,0.1,0.1c0.1,0,0.2,0,0.3,0c0,0.1,0,0.2,0.1,0.2c0.1,0.1,0.1,0.2,0.1,0.3
		c0,0,0,0,0.1,0c0,0,0.1,0,0.1,0c0,0.1,0,0.1,0,0.2c0.2,0.2,0.2,0.4,0.2,0.6l0,0.1c0,0,0,0.1,0,0.1c0,0.1,0,0.1,0,0.1
		c0,0.1-0.1,0.1-0.1,0.1c0,0.1,0,0.2-0.1,0.3C68,60.1,68,60.2,68,60.3c0,0-0.1,0-0.1,0.1c0,0-0.1,0.1-0.1,0.1v0.1
		c-0.2,0-0.3,0.1-0.3,0.1c0,0,0,0.1,0,0.1c0,0-0.1,0-0.2,0c-0.1,0-0.1,0.1-0.2,0.2l-0.1,0c0-0.2-0.1-0.2-0.2-0.2c0,0,0,0-0.1,0.1
		c0,0,0,0-0.1,0c-0.1,0-0.1-0.1-0.1-0.1c0,0-0.1,0-0.2,0.1c-0.1,0-0.2,0-0.5,0c-0.2,0-0.4,0-0.5,0c0-0.1-0.1-0.1-0.1-0.1
		c0,0,0,0,0,0.1c0,0,0,0.1-0.1,0.1c0,0-0.1,0-0.3,0c-0.1,0-0.2,0-0.3,0l-0.1-0.1c0,0,0,0,0,0c0,0,0,0.1-0.1,0.1c0,0-0.1-0.1-0.1-0.1
		c-0.1,0-0.1-0.1-0.2-0.1c-0.2,0-0.3,0-0.3,0c0,0-0.1,0.1-0.1,0.2c0,0-0.1,0-0.2,0c-0.1,0-0.2,0-0.2,0c0,0,0,0,0-0.1
		c0,0,0,0-0.1-0.1c0,0-0.1,0-0.2,0.1c-0.1,0-0.1,0.1-0.1,0.1c-0.1-0.1-0.1-0.1-0.1-0.1c0,0-0.1,0.1-0.1,0.2c0,0-0.1,0-0.1-0.1
		c0,0-0.1,0-0.2,0c-0.2,0-0.3,0-0.4,0.1c0,0-0.1,0-0.1-0.1c-0.2,0.1-0.3,0.2-0.3,0.2c-0.1,0-0.1,0-0.2,0c0-0.1-0.2-0.1-0.4-0.1
		c-0.1,0-0.1,0-0.2,0c0,0,0,0-0.1,0c0,0,0,0.1,0,0.1c-0.1,0-0.2,0-0.3,0c-0.1,0-0.2,0-0.3,0.1c0,0-0.1,0-0.2,0c0,0,0,0,0,0
		c0,0,0,0-0.1,0c0,0-0.1,0-0.1,0c-0.1,0-0.2,0.1-0.3,0.2c0,0-0.1,0-0.2,0c-0.1,0-0.2,0-0.3,0c0,0-0.1,0-0.1,0c0,0,0,0,0,0
		c0,0,0,0.1,0,0.1c0,0-0.1,0,0-0.1c0,0,0-0.1,0-0.1c0,0-0.1,0-0.1,0.1l0,0c0,0,0,0-0.1,0c0,0,0,0-0.1,0c0,0-0.1,0.1-0.1,0.2
		c-0.2,0.1-0.4,0-0.4-0.1c-0.1,0-0.2,0.1-0.2,0.1c0,0.1,0,0.1,0,0.1c0,0-0.1,0-0.2,0c0,0,0,0-0.1,0c0,0,0,0-0.1-0.1
		c-0.2,0-0.3,0-0.5,0.1c-0.2,0.1-0.3,0.1-0.4,0.1c0,0.1,0,0.1,0,0.1c0,0-0.1,0-0.1,0c0,0-0.1,0-0.1,0c0,0,0,0,0-0.1c0,0,0-0.1,0-0.1
		c0,0,0,0,0,0s0,0,0,0c0,0,0,0-0.1,0c0,0-0.1,0-0.1,0c0,0,0,0,0,0c0,0,0,0-0.1,0c0,0-0.1,0-0.2,0c-0.1,0-0.2,0-0.2,0
		c0,0-0.1,0-0.1,0c0,0-0.1,0-0.3,0c-0.1,0-0.2,0-0.3,0c0,0-0.1,0-0.1,0c0,0-0.1,0-0.1,0c0,0-0.1,0-0.1,0c-0.1,0-0.2,0-0.4,0
		c0,0,0,0,0,0.1c0,0,0,0.1,0,0.1h0c0,0,0-0.1,0-0.2c0,0-0.1,0-0.1,0C54,62,54,62,54,61.9c0,0-0.1,0-0.1,0c0-0.2-0.1-0.2-0.2-0.3
		c0,0.1,0,0.1,0,0.1c-0.1,0-0.1,0-0.1,0c0-0.1,0-0.2-0.1-0.4c-0.1-0.1-0.2-0.2-0.2-0.2c0,0,0-0.1,0-0.2s0-0.1,0-0.2
		c0-0.3-0.1-0.4,0-0.5c0,0,0.1-0.1,0.1-0.2c0-0.1,0-0.2,0-0.2c0,0,0,0,0.1,0c0,0,0.1,0,0.1,0c0.1-0.2,0.3-0.4,0.5-0.5
		c0.5,0,1,0,1.6,0c0-0.1,0.1-0.1,0.2-0.1c0.1,0,0.1,0,0.1,0.1c0,0,0.1,0,0.2,0c0.1,0,0.1-0.1,0.1-0.1c0,0,0.1,0,0.2,0.1
		c0.1,0,0.1,0,0.1,0c0,0,0.1,0,0.1-0.1c0,0,0.1-0.1,0.1-0.1c0,0,0,0,0.1,0.1c0,0,0.1,0.1,0.1,0.1c0,0,0.1,0,0.1-0.1h0.1
		C57,59,57.1,59,57.3,59c0,0,0.1-0.1,0.3-0.1c0,0,0.1,0,0.1,0c0,0,0.1,0,0.2,0s0.1,0,0.2,0c0,0,0.1,0,0.1,0s0.1,0,0.1-0.1
		c0,0,0.1,0,0.1,0c0,0,0.1,0,0.1,0c0,0,0-0.1,0.1-0.1c0,0,0.1,0,0.3,0c0.1,0,0.2,0,0.3-0.1c0,0,0,0,0-0.1s0,0,0-0.1c0,0,0.3,0,0.6,0
		c0.1-0.1,0.1-0.2,0-0.4c0-0.3,0-0.5-0.1-0.7c0,0,0.1-0.1,0-0.2c0-0.1,0-0.1,0-0.2c0-0.1,0-0.1,0-0.1c0,0,0,0,0-0.1c0,0,0-0.1,0-0.1
		c0,0,0-0.1,0-0.1c0-0.1,0-0.1,0-0.1c-0.1-0.1-0.2-0.3-0.1-0.5c0-0.1,0-0.3,0-0.6s0-0.4,0-0.5c0,0,0,0-0.1-0.1s0,0,0,0
		c0,0,0,0,0-0.1c0,0,0-0.1,0-0.1c0.1,0,0.1-0.1,0.1-0.1c0-0.1,0-0.1,0-0.1c0-0.1,0-0.2,0-0.4c0-0.2,0-0.2,0-0.3c0-0.1,0-0.1,0-0.2
		c0-0.1,0-0.1,0-0.2c0,0,0-0.1,0-0.1c0-0.1,0-0.1,0-0.1c0,0,0-0.1,0-0.2c0-0.1,0-0.2,0-0.2c0,0,0,0-0.1,0c0-0.1,0-0.2,0-0.3
		c0-0.1,0-0.2,0-0.5s0-0.5,0-0.6c0,0,0-0.1,0-0.1c0,0,0,0,0-0.1c0,0,0,0,0-0.1c0,0,0-0.1,0-0.1c0,0,0-0.1,0-0.1c0-0.1,0-0.1,0-0.1
		c0,0,0,0,0-0.1c0,0,0,0,0-0.1c0,0-0.1-0.1-0.1-0.4c-0.1,0-0.2-0.2-0.1-0.5c0,0,0.1,0,0.1,0v0c0,0,0,0-0.1,0c0,0,0,0,0,0
		c0,0,0-0.1,0-0.2c0,0,0,0,0.1,0c0-0.1,0-0.2,0-0.3c0-0.2,0-0.3,0-0.4c0-0.1-0.1-0.2-0.2-0.2v-0.2c0,0,0.1,0,0.1,0c0,0,0-0.1,0-0.2
		c0-0.1,0-0.3,0-0.4s0-0.2-0.1-0.3c0,0,0,0,0-0.1c0-0.1,0-0.1,0-0.1c0,0,0,0,0-0.1c0-0.1,0-0.1,0-0.1c0-0.1,0-0.1,0.1-0.1
		c0-0.1,0-0.2,0-0.2c0,0,0-0.1-0.1-0.4c0,0,0-0.1,0-0.1c0,0,0,0,0-0.1c0,0,0,0,0,0c0,0,0,0,0-0.1c0,0,0-0.1-0.1-0.1c0,0,0-0.1,0-0.1
		s0-0.1,0-0.1c0-0.1,0-0.1,0-0.1c0-0.1,0-0.2-0.1-0.3c0-0.1,0-0.2-0.1-0.3c0-0.1-0.1-0.2-0.1-0.3c0,0-0.1,0-0.1,0c0,0,0,0.1,0,0.1
		c0-0.1-0.1-0.1-0.2,0c0,0,0-0.1,0-0.1c0,0,0-0.1,0-0.1c0,0-0.1,0-0.1,0c0,0,0,0.1,0,0.1c0,0,0,0.1,0,0.1s0,0-0.1,0c0,0,0,0-0.1,0
		s-0.1,0-0.1,0c0,0-0.1,0-0.1,0c0,0,0,0-0.1,0c0,0,0,0,0,0c0,0-0.1,0.1-0.1,0.2c0,0-0.1,0-0.1,0v-0.1c0-0.1-0.1-0.1-0.2,0
		c0,0,0,0.1,0,0.1c0,0,0,0,0,0s0,0-0.1,0s0,0-0.1,0c-0.1,0-0.2,0-0.3,0c-0.2,0-0.3,0-0.3,0c-0.2,0-0.3,0-0.3,0
		c-0.1-0.1-0.2-0.1-0.2,0c-0.1,0-0.1,0-0.2,0c-0.1,0-0.2,0-0.2,0c-0.1,0-0.2,0-0.3,0c-0.1,0-0.2,0-0.3,0c0,0,0,0-0.1,0.1
		c0,0,0,0,0,0c0,0,0-0.1,0-0.1c0,0.1,0,0.1-0.1,0.1c-0.1,0-0.1-0.1-0.1-0.1c0,0-0.1,0-0.1,0c0,0,0-0.1-0.1-0.1c0,0,0-0.1-0.1-0.1
		c-0.2,0.1-0.3,0-0.4-0.2c0,0-0.1-0.1-0.2-0.2c-0.1-0.1-0.1-0.2-0.2-0.2c-0.1,0-0.1,0-0.2-0.1c-0.1-0.1-0.1-0.1-0.1-0.2
		c-0.2-0.2-0.3-0.3-0.3-0.4c0-0.1,0-0.2-0.1-0.3c0,0,0-0.1,0.1-0.2c0-0.2,0.1-0.4,0.3-0.7c0.1,0,0.1-0.1,0.2-0.2c0,0,0.1,0,0.1,0
		s0.1,0,0.1,0c0,0,0,0,0.1-0.1c0,0,0-0.1,0.1-0.1c0,0,0.1,0,0.2,0c0.1,0,0.2,0,0.2,0c0,0,0-0.1,0.1-0.1c0,0,0.1-0.1,0.1-0.1
		c0,0,0.1,0,0.2,0.1c0.1,0.1,0.1,0.1,0.2,0.1c0,0,0.1,0,0.1,0c0,0,0.1,0,0.1,0c0.1,0,0.2,0,0.4,0c0.2,0,0.3,0,0.4,0
		c0.1,0,0.2,0,0.2-0.1c0.2,0.1,0.3,0.1,0.3,0c0,0,0,0,0.1,0c0,0,0,0,0.1,0s0,0,0.1,0c0,0,0,0,0-0.1c0.1,0,0.2,0,0.3,0
		c0.2,0,0.2,0,0.3-0.1c0.1,0.1,0.3,0.1,0.4,0c0,0,0,0,0-0.1c0,0,0,0,0.1-0.1c0.1,0,0.2,0,0.4,0c0.1,0,0.3,0,0.4,0
		c0.1,0,0.2-0.1,0.2-0.2c0,0,0.1,0,0.2,0.1c0,0,0.1,0,0.1,0c0.5,0,0.8,0,1-0.1c0,0,0.1,0,0.2,0c0,0,0,0,0,0s0,0,0.1,0
		c0.1-0.1,0.2-0.1,0.3-0.1c0.1,0,0.2,0,0.3,0c0-0.1,0.1-0.1,0.1-0.1h0.2c0,0,0.1,0,0.1,0c0,0,0.1,0,0.1,0c0,0,0.1,0,0.2,0
		c0.2,0,0.4,0,0.4-0.1l0.1,0.1c0.2-0.2,0.3-0.2,0.4,0c0,0,0.1,0,0.2,0c0.1,0,0.2,0,0.2,0l0.1,0c0,0,0.1,0,0.1,0c0.1,0,0.1,0,0.1,0
		c0,0,0.1,0,0.3,0s0.2,0,0.3,0C63.7,41.8,63.8,41.8,63.8,41.8z M63.6,41.9c0.1-0.1,0.2-0.1,0.2-0.1c0,0,0,0.1,0,0.1c0,0,0,0,0,0
		c0.1,0,0.3,0,0.4,0.2c0.1,0.2,0.3,0.3,0.4,0.3c0,0.1,0.1,0.2,0.2,0.4c0.1,0.1,0.2,0.3,0.2,0.4c0,0,0.1,0,0.1,0c0,0.1,0,0.1-0.1,0.1
		c0,0-0.1,0.1-0.1,0.1c0,0,0,0.1,0,0.1c0,0,0,0.1,0,0.1c0,0.1,0,0.2,0,0.3c-0.1,0.1-0.1,0.2-0.1,0.3c-0.1,0-0.1,0-0.1,0
		c0,0,0,0.1,0,0.2c0,0.1-0.1,0.1-0.1,0.1l-0.1,0.2c0,0-0.1,0-0.2,0.1c0,0,0,0-0.1,0c0,0,0,0.1-0.1,0.1c0,0-0.1,0-0.1,0c0,0,0,0,0,0
		c0,0,0,0-0.1,0c0,0,0,0,0,0c-0.1,0-0.2,0-0.2,0.1c-0.1,0-0.2-0.1-0.3-0.2c-0.1,0-0.1,0-0.2-0.1S63,44.5,63,44.5c0,0,0,0-0.1,0
		c0,0,0,0-0.1,0c-0.1,0-0.2,0-0.3,0s-0.2,0-0.3,0.1c-0.1-0.1-0.2-0.1-0.4,0c0,0,0,0,0,0c0,0,0,0-0.1,0s-0.1,0-0.1,0
		c-0.1,0-0.1,0-0.1,0c0,0-0.1,0-0.3,0c-0.2,0-0.3,0-0.3,0.1c0,0,0,0.1,0,0.1c0,0.1,0,0.1,0,0.1c0,0,0,0,0,0.1c0,0.1,0,0.1,0,0.1
		c0,0,0,0.1,0.1,0.1c0,0.1,0,0.1,0,0.2c0,0,0,0.1,0,0.2c0,0.1,0,0.2,0,0.2c0,0.1,0,0.2,0,0.2c0,0.1,0.1,0.1,0.2,0.1
		c0,0.1,0,0.1-0.1,0.2c0,0.1,0,0.1,0,0.2c0,0.1,0,0.2,0,0.2c0,0,0,0.1,0.1,0.1c0,0,0,0.1,0,0.1c0,0.1,0,0.2,0,0.4c0,0.2,0,0.4,0,0.4
		c0,0.1,0.1,0.1,0.1,0.2c0,0.1,0,0.2,0,0.2l0,0.1c0,0.1,0,0.1,0,0.2c0,0.3,0,0.5,0.1,0.5c0,0,0,0.1,0,0.1c0,0,0,0.1,0,0.1
		c0,0,0,0,0.1,0.1c0,0,0,0,0,0.1s0,0,0,0c0,0-0.1,0-0.1,0c0,0.1,0,0.1,0.1,0.2c0,0,0,0.1,0,0.1c0,0,0,0.1,0,0.1s0,0.1,0,0.2
		c0,0.1,0,0.2,0,0.2c0,0.1,0,0.1,0,0.1s0,0,0,0.1s0,0.1,0,0.1c0,0.1,0,0.1,0,0.1c0,0.1,0,0.1,0,0.1c0,0,0,0.1,0,0.1c0,0,0,0.1,0,0.1
		c0,0.1,0,0.1,0,0.1c0,0.1,0.1,0.2,0,0.3c0,0.1,0,0.2,0,0.2c0,0,0,0,0.1,0.1c0,0,0,0.1,0,0.1c0,0,0,0.1,0,0.1S61.6,52,61.6,52
		c0,0,0,0.1,0.1,0.1c0,0,0,0.1,0,0.1c0,0,0,0,0,0.1c0,0.1,0,0.2,0,0.3c0,0.2,0,0.3,0,0.4c0,0.1,0,0.1,0,0.1s0,0,0,0.1
		c0,0,0,0.1,0,0.1c0,0,0,0.1,0,0.3c0,0.1,0,0.2,0,0.4c0,0,0,0.1,0,0.2c0,0.1,0,0.2,0,0.3l0.1,0.1c0,0.1,0,0.1,0,0.2
		c0,0.1,0,0.1,0,0.1c0,0,0,0.1,0,0.1c0,0.1,0,0.1,0,0.2s0,0.1,0,0.2c0,0.1,0,0.2,0,0.2c0,0,0,0.1,0.1,0.2c0,0.1,0,0.1,0,0.1
		c0,0,0,0.1,0,0.3c0,0.1,0,0.2,0,0.3c0,0,0,0.1,0,0.2c0,0.1,0,0.1,0,0.2c0,0.1,0,0.1,0,0.1s0,0,0,0.1c0,0,0,0,0,0c0,0.1,0,0.1,0,0.2
		c0,0.1,0,0.1,0,0.2c0,0,0,0.1,0,0.1c0,0,0,0.1,0,0.1v0.1c0,0.1,0,0.2,0.1,0.2c0,0.1,0.1,0.2,0.2,0.3c0.1,0,0.2,0,0.4,0
		c0.2,0,0.3,0,0.3,0c0,0,0,0,0.1,0c0,0,0-0.1,0.1-0.1c0.2,0,0.3,0,0.3,0.1c0,0,0,0,0.1,0c0,0,0,0,0.1,0c0,0,0.1,0,0.1,0
		c0,0,0.1,0,0.1,0c0,0,0.1,0,0.1,0c0,0,0.1,0,0.1,0c0.1,0.1,0.2,0.1,0.4,0c0,0,0.1,0,0.1,0s0.1,0,0.1,0l0.1-0.1c0,0,0.1,0,0.1,0
		c0.1,0,0.1,0,0.1,0c0-0.1,0-0.1,0-0.1h0.1c0,0,0,0,0,0.1c0,0,0,0.1,0,0.1c0.1,0,0.1,0,0.2-0.1c0-0.1,0.1-0.1,0.2,0v0.1
		c0.4,0.1,0.7,0.1,1,0.1l0.1,0c0.3,0.1,0.4,0.1,0.5,0c0,0,0.1,0.1,0.1,0.1c0.1,0,0.1,0.1,0.1,0.1c0.1,0,0.2,0,0.3,0
		c0,0.1,0,0.2,0.1,0.2c0.1,0.1,0.1,0.2,0.1,0.3c0,0,0,0,0.1,0c0,0,0.1,0,0.1,0c0,0.1,0,0.1,0,0.2c0.2,0.2,0.2,0.4,0.2,0.5
		c0,0,0,0.1,0,0.1c0,0,0,0.1,0,0.1c0,0.1,0,0.1,0,0.1c0,0.1-0.1,0.1-0.1,0.1c0,0.1,0,0.2-0.1,0.3C68,60.1,68,60.2,68,60.3
		c0,0-0.1,0-0.1,0.1c0,0-0.1,0.1-0.1,0.1v0.1c-0.2,0-0.3,0.1-0.3,0.1c0,0,0,0.1,0,0.1c0,0-0.1,0-0.2,0c-0.1,0-0.1,0.1-0.2,0.2
		l-0.1,0c0-0.2-0.1-0.2-0.2-0.2c0,0,0,0-0.1,0.1c0,0,0,0-0.1,0c-0.1,0-0.1-0.1-0.1-0.1c0,0-0.1,0-0.2,0.1c-0.1,0-0.2,0-0.5,0
		c-0.2,0-0.4,0-0.5,0c0-0.1-0.1-0.2-0.1-0.2c0,0,0,0.1,0,0.1c0,0,0,0.1-0.1,0.1c0,0-0.1,0-0.3,0c-0.1,0-0.2,0-0.3,0l-0.1-0.1
		c0,0,0,0,0,0c0,0,0,0.1-0.1,0.1c0,0-0.1-0.1-0.1-0.1c-0.1,0-0.1-0.1-0.2-0.1c-0.2,0-0.3,0-0.3,0c0,0-0.1,0.1-0.1,0.2
		c0,0-0.1,0-0.2,0c-0.1,0-0.2,0-0.2,0c0,0,0,0,0-0.1c0,0,0,0-0.1-0.1c0,0-0.1,0-0.2,0.1c-0.1,0-0.1,0.1-0.1,0.1
		c-0.1-0.1-0.1-0.1-0.1-0.1c0,0-0.1,0.1-0.1,0.2c0,0-0.1,0-0.1-0.1c0,0-0.1,0-0.2,0c-0.2,0-0.3,0-0.4,0.1c0,0-0.1,0-0.1-0.1
		c-0.2,0.1-0.3,0.2-0.3,0.2c-0.1,0-0.1,0-0.2,0c0-0.1-0.2-0.1-0.4-0.1c-0.1,0-0.1,0-0.2,0c0,0,0,0-0.1,0c0,0,0,0.1,0,0.1
		c-0.1,0-0.2,0-0.3,0c-0.1,0-0.2,0-0.3,0.1c0,0-0.1,0-0.2,0c0,0,0,0,0,0c0,0,0,0-0.1,0c0,0-0.1,0-0.1,0c-0.1,0-0.2,0.1-0.3,0.2
		c0,0-0.1,0-0.2,0c-0.1,0-0.2,0-0.3,0c0,0-0.1,0-0.1,0c0,0,0,0,0,0c0,0,0,0.1,0,0.1c0,0-0.1,0,0-0.1c0,0,0-0.1,0-0.1
		c0,0-0.1,0-0.1,0.1l0,0c0,0,0,0-0.1,0c0,0,0,0-0.1,0c0,0-0.1,0.1-0.1,0.2c-0.2,0.1-0.4,0-0.4-0.1c-0.1,0-0.2,0.1-0.2,0.1
		c0,0.1,0,0.1,0,0.1c0,0-0.1,0-0.2,0c0,0,0,0-0.1,0c0,0,0,0-0.1-0.1c-0.2,0-0.3,0-0.5,0.1c-0.2,0.1-0.3,0.1-0.4,0.1
		c0,0.1,0,0.1,0,0.1c0,0-0.1,0-0.1,0c0,0-0.1,0-0.1,0c0,0,0,0,0-0.1c0,0,0-0.1,0-0.1c0,0,0,0,0,0s0,0,0,0c0,0,0,0-0.1,0
		c0,0-0.1,0-0.1,0c0,0,0,0,0,0c0,0,0,0-0.1,0c0,0-0.1,0-0.2,0c-0.1,0-0.2,0-0.2,0c0,0-0.1,0-0.1,0c0,0-0.1,0-0.3,0
		c-0.1,0-0.2,0-0.3,0c0,0-0.1,0-0.1,0c0,0-0.1,0-0.1,0c0,0-0.1,0-0.1,0c-0.1,0-0.2,0-0.4,0c0,0,0,0,0,0.1c0,0,0,0.1,0,0.1h0
		c0,0,0,0,0-0.1c0,0-0.1,0-0.1,0C54,62,54,62,54,61.9c0,0-0.1,0-0.1,0c0-0.2-0.1-0.2-0.2-0.3c0,0.1,0,0.1,0,0.1c-0.1,0-0.1,0-0.1,0
		c0-0.1,0-0.2-0.1-0.4c-0.1-0.1-0.2-0.2-0.2-0.2c0,0,0-0.1,0-0.2s0-0.1,0-0.2c0-0.3-0.1-0.4,0-0.5c0,0,0.1-0.1,0.1-0.2
		c0-0.1,0-0.2,0-0.2c0,0,0,0,0.1,0c0,0,0.1,0,0.1,0c0.1-0.2,0.3-0.4,0.5-0.5c0.5,0,1,0,1.6,0c0-0.1,0.1-0.1,0.2-0.1
		c0.1,0,0.1,0,0.1,0.1c0,0,0.1,0,0.2,0c0.1,0,0.1-0.1,0.1-0.1c0,0,0.1,0,0.2,0.1c0.1,0,0.1,0,0.1,0c0,0,0.1,0,0.1-0.1
		c0,0,0.1-0.1,0.1-0.1c0,0,0,0,0.1,0.1c0,0,0.1,0.1,0.1,0.1c0,0,0.1,0,0.1-0.1h0.1C57,59,57.1,59,57.3,59c0,0,0.1-0.1,0.3-0.1
		c0,0,0.1,0,0.1,0c0,0,0.1,0,0.2,0s0.1,0,0.2,0c0,0,0.1,0,0.1,0s0.1,0,0.1-0.1c0,0,0.1,0,0.1,0c0,0,0.1,0,0.1,0c0,0,0-0.1,0.1-0.1
		c0,0,0.1,0,0.3,0c0.1,0,0.2,0,0.3-0.1c0,0,0,0,0-0.1s0,0,0-0.1c0,0,0.3,0,0.6,0c0.1-0.1,0.1-0.2,0-0.4c0-0.3,0-0.5-0.1-0.7
		c0,0,0.1-0.1,0-0.2c0-0.1,0-0.1,0-0.2c0-0.1,0-0.1,0-0.1c0,0,0,0,0-0.1c0,0,0-0.1,0-0.1c0,0,0-0.1,0-0.1c0-0.1,0-0.1,0-0.1
		c-0.1-0.1-0.2-0.3-0.1-0.5c0-0.1,0-0.3,0-0.6s0-0.4,0-0.5c0,0,0,0-0.1-0.1s0,0,0,0c0,0,0,0,0-0.1c0,0,0-0.1,0-0.1
		c0.1,0,0.1-0.1,0.1-0.1c0-0.1,0-0.1,0-0.1c0-0.1,0-0.2,0-0.4c0-0.2,0-0.2,0-0.3c0-0.1,0-0.1,0-0.2c0-0.1,0-0.1,0-0.2
		c0,0,0-0.1,0-0.1c0-0.1,0-0.1,0-0.1c0,0,0-0.1,0-0.2c0-0.1,0-0.2,0-0.2c0,0,0,0-0.1,0c0-0.1,0-0.2,0-0.3c0-0.1,0-0.2,0-0.5
		s0-0.5,0-0.6c0,0,0-0.1,0-0.1c0,0,0,0,0-0.1c0,0,0,0,0-0.1c0,0,0-0.1,0-0.1c0,0,0-0.1,0-0.1c0-0.1,0-0.1,0-0.1c0,0,0,0,0-0.1
		c0,0,0,0,0-0.1c0,0-0.1-0.1-0.1-0.4c-0.1,0-0.2-0.2-0.1-0.5c0,0,0.1,0,0.1,0v0c0,0,0,0-0.1,0c0,0,0,0,0,0c0,0,0-0.1,0-0.2
		c0,0,0,0,0.1,0c0-0.1,0-0.2,0-0.3c0-0.2,0-0.3,0-0.4c0-0.1-0.1-0.2-0.2-0.2v-0.2c0,0,0.1,0,0.1,0c0,0,0-0.1,0-0.2
		c0-0.1,0-0.3,0-0.4s0-0.2-0.1-0.3c0,0,0,0,0-0.1c0-0.1,0-0.1,0-0.1c0,0,0,0,0-0.1c0-0.1,0-0.1,0-0.1c0-0.1,0-0.1,0.1-0.1
		c0-0.1,0-0.2,0-0.2c0,0,0-0.2-0.1-0.4c0,0,0-0.1,0-0.1c0,0,0,0,0-0.1c0,0,0,0,0,0c0,0,0,0,0-0.1c0,0,0-0.1-0.1-0.1c0,0,0-0.1,0-0.1
		s0-0.1,0-0.1c0-0.1,0-0.1,0-0.1c0-0.1,0-0.2-0.1-0.3c0-0.1,0-0.2-0.1-0.3c0-0.1-0.1-0.2-0.1-0.3c0,0-0.1,0-0.1,0c0,0,0,0.1,0,0.1
		c0-0.1-0.1-0.1-0.2,0c0,0,0-0.1,0-0.1c0,0,0-0.1,0-0.1c0,0-0.1,0-0.1,0c0,0,0,0.1,0,0.1c0,0,0,0.1,0,0.1c0,0,0,0-0.1,0
		c0,0,0,0-0.1,0s-0.1,0-0.1,0c0,0-0.1,0-0.1,0c0,0,0,0-0.1,0c0,0,0,0,0,0c0,0-0.1,0.1-0.1,0.2c0,0-0.1,0-0.1,0v-0.1
		c0-0.1-0.1-0.1-0.2,0c0,0,0,0.1,0,0.1c0,0,0,0,0,0s0,0-0.1,0s0,0-0.1,0c-0.1,0-0.2,0-0.3,0c-0.2,0-0.3,0-0.3,0c-0.2,0-0.3,0-0.3,0
		c-0.1-0.1-0.2-0.1-0.2,0c-0.1,0-0.1,0-0.2,0c-0.1,0-0.2,0-0.2,0c-0.1,0-0.2,0-0.3,0c-0.1,0-0.2,0-0.3,0c0,0,0,0-0.1,0
		c0,0,0,0,0,0.1c0,0,0,0,0,0c0,0,0-0.1,0-0.1c0,0.1,0,0.1-0.1,0.1c-0.1,0-0.1-0.1-0.1-0.1c0,0-0.1,0-0.1,0c0,0,0-0.1-0.1-0.1
		c0,0,0-0.1-0.1-0.1c-0.2,0.1-0.3,0-0.4-0.2c0,0-0.1-0.1-0.2-0.2c-0.1-0.1-0.1-0.2-0.2-0.2c-0.1,0-0.1,0-0.2-0.1
		c-0.1-0.1-0.1-0.1-0.1-0.2c-0.2-0.2-0.3-0.3-0.3-0.4c0-0.1,0-0.2-0.1-0.3c0,0,0-0.1,0.1-0.2c0-0.2,0.1-0.4,0.3-0.7
		c0.1,0,0.1-0.1,0.2-0.2c0,0,0.1,0,0.1,0s0.1,0,0.1,0c0,0,0,0,0.1-0.1c0,0,0-0.1,0.1-0.1c0,0,0.1,0,0.2,0c0.1,0,0.2,0,0.2,0
		c0,0,0-0.1,0.1-0.1c0,0,0.1-0.1,0.1-0.1c0,0,0.1,0,0.2,0.1c0.1,0.1,0.1,0.1,0.2,0.1c0,0,0.1,0,0.1,0c0,0,0.1,0,0.1,0
		c0.1,0,0.2,0,0.4,0c0.2,0,0.3,0,0.4,0c0.1,0,0.2,0,0.2-0.1c0.2,0.1,0.3,0.1,0.3,0c0,0,0,0,0.1,0c0,0,0,0,0.1,0s0,0,0.1,0
		c0,0,0,0,0-0.1c0.1,0,0.2,0,0.3,0c0.2,0,0.2,0,0.3-0.1c0.1,0.1,0.3,0.1,0.4,0c0,0,0-0.1,0-0.1c0,0,0,0,0.1,0c0.1,0,0.2,0,0.4,0
		c0.1,0,0.3,0,0.4,0c0.1,0,0.2-0.1,0.2-0.2c0,0,0.1,0,0.2,0.1c0,0,0.1,0,0.1,0c0.5,0,0.8,0,1-0.1c0,0,0.1,0,0.2,0c0,0,0,0,0,0
		s0,0,0.1,0c0.1-0.1,0.2-0.1,0.3-0.1c0.1,0,0.2,0,0.3,0c0-0.1,0.1-0.1,0.1-0.1h0.2c0,0,0.1,0,0.1,0c0,0,0.1,0,0.1,0c0,0,0.1,0,0.2,0
		c0.2,0,0.4,0,0.4-0.1l0.1,0.1c0.2-0.2,0.3-0.2,0.4,0c0,0,0.1,0,0.2,0c0.1,0,0.2,0,0.2,0c0.1,0,0.1-0.1,0.1-0.1c0,0,0.1,0,0.1,0
		c0.1,0,0.1,0,0.1,0c0,0,0.1,0,0.3,0S63.6,41.9,63.6,41.9z"/>
	<path fill="#D93427" d="M81.1,44.7C81.1,44.7,81.1,44.7,81.1,44.7C81.1,44.7,81.1,44.7,81.1,44.7c0,0,0.1,0,0.1,0
		c0.1,0,0.1,0,0.1-0.1c0,0,0.1,0,0.1,0.1c0,0.1,0.1,0.1,0.1,0.1c0,0.1,0.1,0.1,0.2,0.1c0.1,0,0.1,0,0.2,0c0,0.1,0.1,0.2,0.1,0.2
		c0.1,0,0.1,0,0.2,0.1c0.1,0.1,0.1,0.1,0.1,0.1c0.1,0,0.1,0,0.2,0s0,0,0,0.1c0,0,0,0.1,0,0.1c0,0,0,0,0.1,0c0,0,0.1,0,0.1,0
		c0,0,0,0,0,0.1c0,0,0,0,0,0.1c0,0,0,0,0.1,0c0,0,0,0,0.1,0c0,0,0,0.1,0,0.2c0,0.1,0,0.1,0,0.2l0,0.1c0,0.1,0,0.1,0.1,0.2
		c0,0.1,0.1,0.1,0.1,0.2c0,0.1,0.1,0.1,0.2,0.1c0,0.2,0,0.3-0.1,0.4c0,0,0,0.1,0,0.1c0,0.1,0,0.1,0,0.1c-0.1,0.1-0.2,0.2-0.1,0.5
		c0,0,0,0.1,0,0.1c0,0,0,0.1,0,0.1c-0.1,0-0.1,0-0.1,0.1c0,0.2,0.1,0.3,0,0.4c-0.1,0-0.1,0.1-0.2,0.2c0,0.1-0.1,0.2-0.1,0.2
		c0,0,0,0.1,0,0.2c0,0.1,0,0.1,0,0.2c-0.1,0.1-0.1,0.2-0.2,0.4c-0.1,0.2-0.1,0.3-0.2,0.4c0,0,0,0.1,0,0.1c0,0,0,0,0.1,0
		c0,0.1,0,0.1-0.1,0.2c0,0.1-0.1,0.1-0.1,0.2c0,0,0,0.1-0.1,0.1c-0.1,0-0.1,0-0.1,0.1c0,0.1,0,0.1,0,0.1c-0.2,0.2-0.2,0.4-0.2,0.7
		c0,0-0.1,0.1-0.1,0.2c0,0.1-0.1,0.2-0.1,0.2c0,0,0,0.1,0,0.2c0,0,0,0.1,0,0.2c0,0.1,0,0.2-0.1,0.2c0,0.1,0,0.2-0.1,0.3
		c0,0-0.1,0.1-0.1,0.1c0,0.1,0.1,0.1,0.1,0.1c0,0.1-0.1,0.1-0.2,0.3C81,53,81,53.2,81,53.3c0,0,0,0.1,0,0.1c0,0,0,0.1,0,0.1H81
		c-0.1,0.1-0.1,0.2-0.1,0.4c0,0,0,0-0.1,0c0,0,0,0-0.1,0.1s0,0,0,0.1c0,0,0,0.1,0,0.1s0,0,0,0.1c0,0,0,0.1,0,0.1c0,0,0,0.1,0,0.1
		c0,0.1,0,0.1,0,0.1s0,0.1-0.1,0.1c0,0.1-0.1,0.1-0.1,0.2c0,0,0,0.1,0,0.1c0,0.1,0,0.1,0,0.1c0,0,0,0,0,0.1c0,0,0,0,0,0.1
		c0,0,0,0,0,0.1c0,0.1,0,0.1,0,0.1c0,0,0,0.1,0,0.1c0,0.1,0,0.1,0,0.1c-0.1,0-0.1,0.1-0.2,0.2c0,0.1,0,0.1,0,0.1c0,0,0,0.1-0.1,0.1
		c0,0,0,0.1,0,0.1c0,0,0,0.1,0,0.2c0,0.1,0,0.2-0.1,0.2c0,0.2,0,0.3-0.1,0.5c-0.1,0.2-0.1,0.3-0.1,0.5c0,0,0,0.1-0.1,0.1
		c0,0.1,0,0.2,0,0.2c0,0.1-0.1,0.1-0.1,0.1s0,0.1,0,0.1c0,0,0,0.1,0,0.1l0,0.2c-0.1,0-0.1,0.2-0.1,0.4c-0.1,0.1-0.2,0.2-0.1,0.5
		l-0.1,0.1c0,0.1,0,0.1,0,0.2c0.1,0.1,0.1,0.1,0,0.2c0,0,0,0,0-0.1c0,0-0.1,0,0,0.1c0,0.1,0,0.2,0,0.3C79.1,60,79,60,79,60
		c0,0.2,0.1,0.4,0.2,0.4c0,0.1,0,0.1,0,0.2l-0.1,0v0c0,0,0,0,0,0c0,0,0.1,0,0.1,0c0,0,0,0.1,0,0.1c0,0.1,0,0.1,0,0.1
		c-0.1,0-0.1,0-0.2,0c0,0-0.1,0-0.2,0.1c0,0.1,0,0.1,0,0.1c0,0,0,0.1,0,0.1c0,0-0.1,0-0.1,0c0,0,0,0-0.1,0c0,0.1-0.1,0.2-0.1,0.3
		c0,0-0.1,0-0.1,0c-0.1,0-0.1,0.1-0.1,0.2c0,0,0,0-0.1,0c-0.1,0.1-0.2,0.1-0.2,0.2v0c0,0-0.1-0.1-0.1-0.2c0,0,0,0-0.1,0v0.1
		c-0.2,0.1-0.2,0-0.3,0c0,0-0.1,0-0.1,0c-0.1,0-0.1,0-0.1,0c-0.1,0.1-0.1,0.1-0.2,0.1c0-0.1-0.1-0.2-0.1-0.2c0-0.1-0.1-0.1-0.2-0.1
		c0-0.1-0.1-0.1-0.2-0.1c0-0.1,0-0.3-0.2-0.5v-0.1c-0.1-0.2-0.2-0.3-0.3-0.4c0,0,0,0-0.1,0h-0.1c0-0.3,0-0.5-0.1-0.6c0,0,0,0,0,0
		c0,0,0,0,0,0c0,0,0-0.1-0.1-0.2c0-0.1,0-0.2,0-0.2h-0.1c0-0.1,0-0.1-0.1-0.2c-0.1-0.1-0.1-0.2-0.1-0.2c-0.1-0.1-0.2-0.2-0.3-0.4
		c0-0.1-0.1-0.2-0.2-0.4c0-0.1-0.1-0.1-0.1-0.2c0-0.1,0-0.1-0.1-0.2c-0.1,0.1-0.2,0.1-0.2,0c0-0.2,0-0.3-0.1-0.4
		c0-0.1,0-0.2-0.1-0.3c0,0-0.1,0-0.1,0c0,0-0.1,0.1-0.1,0.1h0c0,0,0-0.1,0-0.1c0,0,0-0.1,0-0.1c0,0,0-0.1,0-0.2
		c0-0.1-0.1-0.2-0.2-0.1c0,0,0-0.1,0-0.1c0-0.1,0-0.1,0-0.1s0,0-0.1-0.1c0,0-0.1-0.1-0.1-0.2c-0.1-0.3-0.3-0.6-0.5-0.7v-0.1
		c-0.1-0.1-0.2-0.2-0.2-0.2c0-0.2-0.1-0.4-0.2-0.5V55c-0.2-0.2-0.3-0.3-0.3-0.3c0,0,0-0.1,0-0.2c0-0.2,0-0.2-0.1-0.3
		c0,0-0.1,0-0.1,0c0,0-0.1,0-0.1,0c0,0,0-0.1,0-0.1c0-0.1,0-0.1,0-0.1c-0.1-0.1-0.1-0.1-0.1-0.2h-0.1c0-0.1,0-0.1,0-0.3
		c0,0,0-0.1,0-0.1l0,0c0,0,0,0,0-0.1c0,0,0,0,0-0.1c0,0-0.1,0-0.1,0c-0.1,0-0.1,0-0.1,0c0-0.1,0-0.2,0-0.2c0,0,0,0,0,0
		c0,0,0,0-0.1,0c0-0.1,0-0.1,0-0.2c0,0-0.1,0-0.1,0c0,0,0-0.1,0-0.1c0-0.1,0-0.1,0-0.1c0,0,0,0-0.1,0c0-0.1,0-0.1,0-0.2
		c0-0.1,0.1-0.1,0-0.2c0,0,0-0.1-0.1-0.1c-0.1-0.1-0.1-0.1-0.1-0.2v-0.1c0,0,0-0.1,0-0.1c0,0-0.1-0.1-0.1-0.1c0-0.1,0-0.1,0-0.2
		c0-0.1-0.1-0.1-0.1-0.2c-0.1-0.1-0.2-0.2-0.2-0.5c0,0-0.1-0.1-0.2-0.1c0,0,0-0.1,0.1-0.1c0,0-0.1-0.1-0.1-0.2c0-0.1,0-0.2,0-0.4
		c0,0-0.1,0-0.2,0c0-0.1,0.1-0.2,0-0.3c0,0,0-0.1-0.1-0.1c0-0.1,0-0.2-0.1-0.4c0-0.1,0-0.1,0-0.2c-0.1-0.1-0.1-0.2-0.1-0.2
		c0,0,0,0,0-0.1c0,0-0.1,0-0.1,0c0,0,0,0,0-0.1c0-0.1,0-0.1,0-0.1c0,0,0-0.1-0.1-0.1c0,0,0-0.1,0-0.1c0,0,0-0.1,0-0.2
		c0-0.1,0-0.1,0-0.1s0,0-0.1,0s0,0-0.1,0v-0.1c0-0.1,0-0.1,0-0.1c0,0,0,0-0.1,0c0-0.1,0-0.2,0-0.4c0,0,0,0,0.1,0c0,0,0.1,0,0.1,0
		s0-0.1,0-0.1c0,0,0.1-0.1,0.1-0.1C70,47.1,70,47,70,47c0,0,0,0,0.1,0c0.1,0,0.1-0.1,0.1-0.2c0,0,0.1-0.1,0.1-0.1
		c0-0.1,0.1-0.1,0.1-0.1c0-0.1,0-0.2,0.1-0.2c0,0,0.1,0,0.2,0c0.1,0,0.2,0.1,0.2,0.2h0.4l0,0c0.1,0.1,0.1,0.1,0.2,0.1
		c0,0.1,0.1,0.2,0.2,0.3c0.1,0.1,0.2,0.2,0.2,0.3c0,0,0.1,0,0.2,0.1c0,0.1,0,0.2,0.1,0.2c0,0.1,0,0.2-0.1,0.3c0,0,0,0.1,0.1,0.2
		c0,0.2,0.1,0.4,0.2,0.5c0,0.2,0,0.3,0.1,0.3c0,0.1,0,0.2,0,0.3c0,0.1,0,0.2,0,0.2c0,0,0,0.1,0,0.1c0,0,0.1,0.1,0.1,0.1
		c0,0.1,0,0.2,0,0.2c0,0,0.1,0.1,0.1,0.1c0,0.1,0.1,0.1,0.1,0.1c0,0,0.1,0,0.1,0c0,0,0,0,0,0.1c0,0,0,0,0,0.1s0,0.1,0,0.1
		s0,0.1,0,0.1s0,0.1,0,0.1c0,0,0,0,0.1,0l0.2,0.2c0,0,0,0.1,0,0.1c0,0,0,0.1,0,0.1c0,0,0,0.1,0.1,0.1c0,0.1,0.1,0.1,0,0.2
		c0.1,0.1,0.1,0.1,0.1,0.1c0,0,0.1,0.2,0.2,0.6c0,0,0,0.1,0.1,0.1c0,0.1,0,0.1,0,0.2c0,0.1,0.1,0.1,0.1,0.2c0,0.1,0.1,0.1,0.1,0.1
		c0.1,0.3,0.2,0.4,0.2,0.4c0,0.1,0,0.1,0,0.2c0,0.1,0.1,0.1,0.1,0.2c0.1,0.1,0.1,0.2,0.2,0.2c0,0.1,0,0.2,0.1,0.2
		c0,0,0.1,0.1,0.2,0.1c0,0.1,0,0.1,0,0.2c0,0,0.1,0,0.1,0c0,0,0,0,0.1,0c0,0,0,0.1,0,0.1c0,0.1,0,0.1,0,0.2c0,0,0.1,0,0.1,0
		c0,0,0.1,0,0.1,0c0.1,0.3,0.1,0.5,0.2,0.5c0,0,0,0.1,0,0.1c0.1,0.1,0.2,0.2,0.2,0.2l0-0.1c0,0,0,0,0.1,0.1c0,0.1,0,0.1,0,0.1
		c0,0.1,0,0.1,0.1,0.2c0.1,0.1,0.1,0.1,0.1,0.2c0,0,0.1,0,0.1,0c0,0.1,0.1,0.2,0.2,0.2c0,0.1,0,0.1,0,0.1c0,0,0,0,0.1,0.1
		c0,0.1,0,0.2,0,0.3c0.1,0.1,0.2,0.1,0.2,0.1c0,0,0,0.1,0,0.2c0,0.1,0.1,0.2,0.1,0.2c0,0,0,0,0.1,0c0,0,0,0,0,0
		c0,0.3,0.1,0.5,0.3,0.7c0.1,0,0.1,0,0.2,0v-0.2c0-0.1,0.1-0.2,0.2-0.3v-0.1c0.1-0.1,0.1-0.2,0.1-0.4c0,0,0.1-0.1,0.1-0.1
		c0,0,0-0.1,0.1-0.1c0,0,0.1-0.1,0.1-0.1c0,0,0-0.1,0-0.1c0,0,0-0.1,0.1-0.1c0-0.1,0.1-0.1,0-0.2c0,0,0-0.1,0-0.1c0-0.1,0-0.2,0-0.2
		c0.1,0,0.2,0,0.2-0.2c0-0.1,0.1-0.1,0.1-0.1c0-0.1,0-0.2,0-0.3c0-0.1,0.1-0.2,0.1-0.2c0,0,0.1-0.1,0.1-0.1c0-0.1,0-0.1,0.1-0.3
		c0-0.1,0.1-0.2,0-0.4c0.1-0.1,0.1-0.2,0.1-0.3c0,0,0-0.1,0-0.1c0,0,0,0,0-0.1c0,0,0.1,0,0.1-0.1c0-0.1,0.1-0.2,0.1-0.2
		c0-0.2,0.1-0.2,0.1-0.3c0,0,0-0.1,0-0.1c0-0.1,0-0.1,0-0.1c0,0,0,0,0,0s0,0,0,0c0,0,0-0.1,0.1-0.1c0-0.1,0-0.1,0-0.1
		c0-0.1,0-0.1,0-0.2c0-0.1,0-0.2,0-0.2l0-0.1c0-0.1,0-0.1,0-0.1c0.1-0.3,0.1-0.5,0.1-0.6l0.1,0c0-0.1,0.1-0.2,0.2-0.3
		c0.1-0.1,0.1-0.2,0.1-0.3c0-0.1,0.1-0.1,0.1-0.2c0-0.1,0.1-0.2,0.1-0.2c0,0,0.1-0.1,0.1-0.1c0,0,0-0.1,0-0.4c0,0,0-0.1,0-0.1
		c0,0,0-0.1,0-0.1c0,0,0-0.1,0-0.1c0,0,0-0.1,0-0.1c0,0,0-0.1,0.1-0.2c0,0,0,0,0,0l0,0c0,0,0-0.1,0-0.2c0-0.1,0-0.2,0-0.2
		c0-0.1-0.1-0.2-0.1-0.2c0.2-0.1,0.2-0.1,0.3-0.2c0,0,0-0.1,0-0.2c0-0.1,0-0.1,0-0.2c0,0,0-0.1,0.1-0.1c0,0,0-0.1,0-0.1
		c0,0-0.1-0.1-0.1-0.1c0,0,0-0.1,0.1-0.2c0-0.1,0-0.2,0-0.4c0-0.2,0-0.3,0-0.4c0,0,0.1-0.1,0.1-0.1c0,0,0-0.1,0-0.1l-0.1-0.1
		c0-0.1,0-0.2,0-0.2c0.1-0.1,0.1-0.1,0.1-0.2l0-0.2c0-0.1-0.1-0.2,0-0.3h0.2C80.8,45.1,80.9,44.9,81.1,44.7
		C81.1,44.8,81.1,44.8,81.1,44.7z M81.3,44.6c0,0,0.1,0,0.1,0.1c0,0.1,0.1,0.1,0.1,0.1c0,0.1,0.1,0.1,0.2,0.1c0.1,0,0.1,0,0.2,0
		c0,0.1,0.1,0.2,0.1,0.2c0.1,0,0.1,0,0.2,0.1c0.1,0.1,0.1,0.1,0.1,0.1c0.1,0,0.1,0,0.2,0s0,0,0,0.1c0,0,0,0.1,0,0.1c0,0,0,0,0.1,0
		c0,0,0.1,0,0.1,0c0,0,0,0,0,0.1c0,0,0,0,0.1,0c0,0,0,0,0.1,0c0,0,0,0.1,0,0.2c0,0.1,0,0.1,0,0.2l0,0.1c0,0.1,0,0.1,0.1,0.2
		c0,0.1,0.1,0.1,0.1,0.2c0,0.1,0.1,0.1,0.2,0.1c0,0.2,0,0.3-0.1,0.4c0,0,0,0.1,0,0.1c0,0.1,0,0.1,0,0.1c-0.1,0.1-0.2,0.2-0.1,0.5
		c0,0,0,0.1,0,0.1c0,0,0,0.1,0,0.1c-0.1,0-0.1,0-0.1,0.1c0,0.2,0.1,0.3,0,0.4c-0.1,0-0.1,0.1-0.2,0.2c0,0.1-0.1,0.2-0.1,0.2
		c0,0,0,0.1,0,0.2c0,0.1,0,0.1,0,0.2c-0.1,0.1-0.1,0.2-0.2,0.4c-0.1,0.2-0.1,0.3-0.2,0.4c0,0,0,0.1,0,0.1c0,0,0,0,0.1,0
		c0,0.1,0,0.1-0.1,0.2c0,0.1-0.1,0.1-0.1,0.2c0,0,0,0.1-0.1,0.1c-0.1,0-0.1,0-0.1,0.1c0,0.1,0,0.1,0,0.1c-0.2,0.2-0.2,0.4-0.2,0.7
		c0,0-0.1,0.1-0.1,0.2c0,0.1-0.1,0.2-0.1,0.2c0,0,0,0.1,0,0.2c0,0,0,0.1,0,0.2c0,0.1,0,0.2-0.1,0.2c0,0.1,0,0.2-0.1,0.3
		c0,0-0.1,0.1-0.1,0.1c0,0.1,0.1,0.1,0.1,0.1c0,0.1-0.1,0.1-0.2,0.3C81,53,81,53.2,81,53.3c0,0,0,0.1,0,0.1c0,0,0,0.1,0,0.1H81
		c-0.1,0.1-0.1,0.2-0.1,0.4c0,0,0,0-0.1,0c0,0,0,0-0.1,0.1s0,0,0,0.1c0,0,0,0.1,0,0.1s0,0,0,0.1c0,0,0,0.1,0,0.1c0,0,0,0.1,0,0.1
		c0,0.1,0,0.1,0,0.1s0,0.1-0.1,0.1c0,0.1-0.1,0.1-0.1,0.2c0,0,0,0.1,0,0.1c0,0.1,0,0.1,0,0.1c0,0,0,0,0,0.1c0,0,0,0,0,0.1
		c0,0,0,0,0,0.1c0,0.1,0,0.1,0,0.1c0,0,0,0.1,0,0.1c0,0.1,0,0.1,0,0.1c-0.1,0-0.1,0.1-0.2,0.2c0,0.1,0,0.1,0,0.1c0,0,0,0.1-0.1,0.1
		c0,0,0,0.1,0,0.1c0,0,0,0.1,0,0.2c0,0.1,0,0.2-0.1,0.2c0,0.2,0,0.3-0.1,0.5c-0.1,0.2-0.1,0.3-0.1,0.5c0,0,0,0.1-0.1,0.1
		c0,0.1,0,0.2,0,0.2c0,0.1-0.1,0.1-0.1,0.1s0,0.1,0,0.1c0,0,0,0.1,0,0.1l0,0.2c-0.1,0-0.1,0.2-0.1,0.4c-0.1,0.1-0.2,0.2-0.1,0.5
		l-0.1,0.1c0,0.1,0,0.1,0,0.2c0.1,0.1,0.1,0.1,0,0.2c0,0,0,0,0-0.1c0,0-0.1,0,0,0.1c0,0.1,0,0.2,0,0.3C79.1,60,79,60,79,60
		c0,0.2,0.1,0.4,0.2,0.4c0,0.1,0,0.1,0,0.2l-0.1,0v0c0,0,0,0,0,0c0,0,0.1,0,0.1,0c0,0,0,0.1,0,0.1c0,0.1,0,0.1,0,0.1
		c-0.1,0-0.1,0-0.2,0c0,0-0.1,0-0.2,0.1c0,0.1,0,0.1,0,0.1c0,0,0,0.1,0,0.1c0,0-0.1,0-0.1,0c0,0,0,0-0.1,0c0,0.1-0.1,0.2-0.1,0.3
		c0,0-0.1,0-0.1,0c-0.1,0-0.1,0.1-0.1,0.2c0,0,0,0-0.1,0c-0.1,0.1-0.2,0.1-0.2,0.2v0c0,0-0.1-0.1-0.1-0.2c0,0,0,0-0.1,0v0.1
		c-0.2,0.1-0.2,0-0.3,0c0,0-0.1,0-0.1,0c-0.1,0-0.1,0-0.1,0c-0.1,0.1-0.1,0.1-0.2,0.1c0-0.1-0.1-0.2-0.1-0.2c0-0.1-0.1-0.1-0.2-0.1
		c0-0.1-0.1-0.1-0.2-0.1c0-0.1,0-0.3-0.2-0.5v-0.1c-0.1-0.2-0.2-0.3-0.3-0.4c0,0,0,0-0.1,0h-0.1c0-0.3,0-0.5-0.1-0.6c0,0,0,0,0,0
		c0,0,0,0,0,0c0,0,0-0.1-0.1-0.2c0-0.1,0-0.2,0-0.2h-0.1c0-0.1,0-0.1-0.1-0.2c-0.1-0.1-0.1-0.2-0.1-0.2c-0.1-0.1-0.2-0.2-0.3-0.4
		c0-0.1-0.1-0.2-0.2-0.4c0-0.1-0.1-0.1-0.1-0.2c0-0.1,0-0.1-0.1-0.2c0,0,0,0-0.1,0c0,0-0.1,0-0.1,0c0-0.2,0-0.3-0.1-0.4
		c0-0.1,0-0.2-0.1-0.3c0,0-0.1,0-0.1,0c0,0-0.1,0.1-0.1,0.1h0c0,0,0-0.1,0-0.1c0,0,0-0.1,0-0.1c0,0,0-0.1,0-0.2
		c0-0.1-0.1-0.2-0.2-0.1c0,0,0-0.1,0-0.1c0-0.1,0-0.1,0-0.1s0,0-0.1-0.1c0,0-0.1-0.1-0.1-0.2c-0.1-0.3-0.3-0.6-0.5-0.7v-0.1
		c-0.1-0.1-0.2-0.2-0.2-0.2c0-0.2-0.1-0.4-0.2-0.5V55c-0.2-0.2-0.3-0.3-0.3-0.3c0,0,0-0.1,0-0.2c0-0.2,0-0.2-0.1-0.3
		c0,0-0.1,0-0.1,0c0,0-0.1,0-0.1,0c0,0,0-0.1,0-0.1c0-0.1,0-0.1,0-0.1c-0.1-0.1-0.1-0.1-0.1-0.2h-0.1c0-0.1,0-0.1,0-0.3
		c0,0,0-0.1,0-0.1l0,0c0,0,0,0,0-0.1c0,0,0,0,0-0.1c0,0-0.1,0-0.1,0c-0.1,0-0.1,0-0.1,0c0-0.1,0-0.2,0-0.2c0,0,0,0,0,0
		c0,0,0,0-0.1,0c0-0.1,0-0.1,0-0.2c0,0-0.1,0-0.1,0c0,0,0-0.1,0-0.1c0-0.1,0-0.1,0-0.1c0,0,0,0-0.1,0c0-0.1,0-0.1,0-0.2
		c0-0.1,0.1-0.1,0-0.2c0,0,0-0.1-0.1-0.1c-0.1-0.1-0.1-0.1-0.1-0.2v-0.1c0,0,0-0.1,0-0.1c0,0-0.1-0.1-0.1-0.1c0-0.1,0-0.1,0-0.2
		c0-0.1-0.1-0.1-0.1-0.2c-0.1-0.1-0.2-0.2-0.2-0.5c0,0-0.1-0.1-0.2-0.1c0,0,0,0,0-0.1s0,0,0.1,0c0,0-0.1-0.1-0.1-0.2
		c0-0.1,0-0.2,0-0.4c0,0-0.1,0-0.2,0c0-0.1,0.1-0.2,0-0.3c0,0,0-0.1-0.1-0.1c0-0.1,0-0.2-0.1-0.4c0-0.1,0-0.1,0-0.2
		c-0.1-0.1-0.1-0.2-0.1-0.2c0,0,0,0,0-0.1c0,0-0.1,0-0.1,0c0,0,0,0,0-0.1c0-0.1,0-0.1,0-0.1c0,0,0-0.1-0.1-0.1c0,0,0-0.1,0-0.1
		c0,0,0-0.1,0-0.2c0-0.1,0-0.1,0-0.1s0,0-0.1,0s0,0-0.1,0v-0.1c0-0.1,0-0.1,0-0.1c0,0,0,0-0.1,0c0-0.1,0-0.2,0-0.4c0,0,0,0,0.1,0
		c0,0,0.1,0,0.1,0s0-0.1,0-0.1c0,0,0.1-0.1,0.1-0.1C70,47.1,70,47,70,47c0,0,0,0,0.1,0c0.1,0,0.1-0.1,0.1-0.2c0,0,0.1-0.1,0.1-0.1
		c0-0.1,0.1-0.1,0.1-0.1c0-0.1,0-0.2,0.1-0.2c0,0,0.1,0,0.2,0c0.1,0,0.2,0.1,0.2,0.2h0.4l0,0c0.1,0.1,0.1,0.1,0.2,0.1
		c0,0.1,0.1,0.2,0.2,0.3c0.1,0.1,0.2,0.2,0.2,0.3c0,0,0.1,0,0.2,0.1c0,0.1,0,0.2,0.1,0.2c0,0.1,0,0.2-0.1,0.3c0,0,0,0.1,0.1,0.2
		c0,0.2,0.1,0.4,0.2,0.5c0,0.2,0,0.3,0.1,0.3c0,0.1,0,0.2,0,0.3c0,0.1,0,0.2,0,0.2c0,0,0,0.1,0,0.1c0,0,0.1,0.1,0.1,0.1
		c0,0.1,0,0.2,0,0.2c0,0,0.1,0.1,0.1,0.1c0,0.1,0.1,0.1,0.1,0.1c0,0,0.1,0,0.1,0c0,0,0,0,0,0.1c0,0,0,0,0,0.1s0,0.1,0,0.1
		s0,0.1,0,0.1s0,0.1,0,0.1c0,0,0,0,0.1,0l0.2,0.2c0,0,0,0.1,0,0.1c0,0,0,0.1,0,0.1c0,0,0,0.1,0.1,0.1c0,0.1,0.1,0.1,0,0.2
		c0.1,0.1,0.1,0.1,0.1,0.1c0,0,0.1,0.2,0.2,0.6c0,0,0,0.1,0.1,0.1c0,0.1,0,0.1,0,0.2c0,0.1,0.1,0.1,0.1,0.2c0,0.1,0.1,0.1,0.1,0.1
		c0.1,0.3,0.2,0.4,0.2,0.4c0,0.1,0,0.1,0,0.2c0,0.1,0.1,0.1,0.1,0.2c0.1,0.1,0.1,0.2,0.2,0.2c0,0.1,0,0.2,0.1,0.2
		c0,0,0.1,0.1,0.2,0.1c0,0.1,0,0.1,0,0.2c0,0,0.1,0,0.1,0c0,0,0,0,0.1,0c0,0,0,0.1,0,0.1c0,0.1,0,0.1,0,0.2c0,0,0.1,0,0.1,0
		c0,0,0.1,0,0.1,0c0.1,0.3,0.1,0.5,0.2,0.5c0,0,0,0.1,0,0.1c0.1,0.1,0.2,0.2,0.2,0.2l0-0.1c0,0,0,0,0.1,0.1c0,0.1,0,0.1,0,0.1
		c0,0.1,0,0.1,0.1,0.2c0.1,0.1,0.1,0.1,0.1,0.2c0,0,0.1,0,0.1,0c0,0.1,0.1,0.2,0.2,0.2c0,0.1,0,0.1,0,0.1c0,0,0,0,0.1,0.1
		c0,0.1,0,0.2,0,0.3c0.1,0.1,0.2,0.1,0.2,0.1c0,0,0,0.1,0,0.2c0,0.1,0.1,0.2,0.1,0.2c0,0,0,0,0.1,0c0,0,0,0,0,0
		c0,0.3,0.1,0.5,0.3,0.7c0.1,0,0.1,0,0.2,0v-0.2c0-0.1,0.1-0.2,0.2-0.3v-0.1c0.1-0.1,0.1-0.2,0.1-0.4c0,0,0.1-0.1,0.1-0.1
		c0,0,0-0.1,0.1-0.1c0,0,0.1-0.1,0.1-0.1c0,0,0-0.1,0-0.1c0,0,0-0.1,0.1-0.1c0-0.1,0.1-0.1,0-0.2c0,0,0-0.1,0-0.1c0-0.1,0-0.2,0-0.2
		c0.1,0,0.2,0,0.2-0.2c0-0.1,0.1-0.1,0.1-0.1c0-0.1,0-0.2,0-0.3c0-0.1,0.1-0.2,0.1-0.2c0,0,0.1-0.1,0.1-0.1c0-0.1,0-0.1,0.1-0.3
		c0-0.1,0.1-0.2,0-0.4c0.1-0.1,0.1-0.2,0.1-0.3c0,0,0-0.1,0-0.1c0,0,0,0,0-0.1c0,0,0.1,0,0.1-0.1c0-0.1,0.1-0.2,0.1-0.2
		c0-0.2,0.1-0.2,0.1-0.3c0,0,0-0.1,0-0.1c0-0.1,0-0.1,0-0.1c0,0,0,0,0,0s0,0,0,0c0,0,0-0.1,0.1-0.1c0-0.1,0-0.1,0-0.1
		c0-0.1,0-0.1,0-0.2c0-0.1,0-0.2,0-0.2l0-0.1c0-0.1,0-0.1,0-0.1c0.1-0.3,0.1-0.5,0.1-0.6l0.1,0c0-0.1,0.1-0.2,0.2-0.3
		c0.1-0.1,0.1-0.2,0.1-0.3c0-0.1,0.1-0.1,0.1-0.2c0-0.1,0.1-0.2,0.1-0.2c0,0,0.1-0.1,0.1-0.1c0,0,0-0.1,0-0.4c0,0,0-0.1,0-0.1
		c0,0,0-0.1,0-0.1c0,0,0-0.1,0-0.1c0,0,0-0.1,0-0.1c0,0,0-0.1,0.1-0.2c0,0,0,0,0,0l0,0c0,0,0-0.1,0-0.2c0-0.1,0-0.2,0-0.2
		c0-0.1-0.1-0.2-0.1-0.2c0.2-0.1,0.2-0.1,0.3-0.2c0,0,0-0.1,0-0.2c0-0.1,0-0.1,0-0.2c0,0,0-0.1,0.1-0.1c0,0,0-0.1,0-0.1
		c0,0-0.1-0.1-0.1-0.1c0,0,0-0.1,0.1-0.2c0-0.1,0-0.2,0-0.4c0-0.2,0-0.3,0-0.4c0,0,0.1-0.1,0.1-0.1c0,0,0-0.1,0-0.1l-0.1-0.1
		c0-0.1,0-0.2,0-0.2c0.1-0.1,0.1-0.1,0.1-0.2l0-0.2c0-0.1-0.1-0.2,0-0.3h0.2c0-0.2,0.1-0.3,0.3-0.5c0,0,0-0.1,0-0.1s0,0,0,0
		s0,0,0.1,0C81.2,44.7,81.3,44.7,81.3,44.6z M73.7,51.2L73.7,51.2C73.8,51.2,73.8,51.3,73.7,51.2C73.7,51.3,73.7,51.3,73.7,51.2
		C73.7,51.3,73.7,51.3,73.7,51.2z M73.8,51.2C73.8,51.2,73.8,51.3,73.8,51.2C73.7,51.3,73.7,51.3,73.8,51.2L73.8,51.2z M77.1,56.7
		C77.2,56.7,77.2,56.7,77.1,56.7C77.2,56.8,77.2,56.8,77.1,56.7L77.1,56.7z M77.1,56.8L77.1,56.8C77.2,56.7,77.2,56.7,77.1,56.8
		C77.2,56.8,77.2,56.8,77.1,56.8z"/>
	<path fill="#D93427" d="M90.9,41.9c0.4,0.1,0.7,0,0.7-0.2c0,0,0.1,0,0.3,0c0,0,0,0,0,0.1c0,0,0,0,0,0.1c0,0,0.1,0,0.2,0
		s0.1,0,0.1,0.1c0.1,0,0.2,0,0.3,0.1c0.4,0,0.6,0.1,0.7,0.2h0.1c0,0.1,0.1,0.1,0.3,0.2s0.2,0.2,0.3,0.2v0.1c0.1,0.1,0.2,0.3,0.3,0.7
		c0,0,0.1,0.1,0.1,0.1c0,0.2,0,0.3,0,0.4c0,0.1,0,0.2,0,0.3c0,0.1-0.1,0.1-0.1,0.2c0,0.1-0.1,0.1-0.1,0.1c0,0.1,0,0.2-0.1,0.3
		c0,0.1,0,0.1,0,0.1c0,0,0,0.1,0,0.1c0,0,0,0-0.1,0c0,0,0,0,0,0c0,0,0,0.1-0.1,0.1c0,0-0.1,0-0.1,0c0,0,0,0.1,0,0.1
		c0,0,0,0.1-0.1,0.1c-0.1,0-0.2,0-0.2,0c0,0.1,0,0.1,0,0.1s-0.1,0-0.1,0c-0.1,0-0.1,0-0.1,0c0,0,0,0-0.1,0c0,0,0,0-0.1,0
		c0,0,0-0.1,0.1-0.1c0,0,0-0.1-0.1-0.1c0-0.1,0-0.1-0.1-0.1c0,0-0.1,0.1-0.1,0.1c0,0-0.1,0-0.1,0c0-0.1,0-0.1-0.1-0.2
		c0-0.1-0.1-0.1-0.1-0.1c0,0,0,0.1,0,0.1s0,0.1,0,0.1c0,0,0-0.1-0.1-0.1c0,0,0-0.1-0.1-0.1c0,0,0,0-0.1-0.1c0-0.2-0.2-0.2-0.4-0.2
		c0,0-0.1,0-0.2,0.1c0,0-0.1,0-0.2,0c-0.1,0-0.1,0-0.1,0c0,0,0,0.1-0.1,0.1c0,0-0.2,0-0.3,0c-0.2,0.1-0.4,0.1-0.4,0.2
		c-0.1-0.1-0.2-0.1-0.3,0c-0.1,0-0.1,0-0.2,0c-0.1,0-0.1,0-0.2,0c0,0,0,0.1,0,0.1c-0.1,0-0.2,0-0.2,0c-0.1-0.1-0.2-0.1-0.2,0
		c0,0,0,0-0.1,0.1c0,0,0,0.1-0.1,0.1c0,0-0.1,0-0.2,0c-0.1,0-0.1,0-0.1,0c0,0-0.1,0-0.1,0.1c0,0-0.1,0-0.1,0c0,0-0.1,0-0.1,0l0,0.1
		c-0.2,0-0.4,0-0.4,0c0,0,0,0,0,0.1c0,0,0,0,0,0.1c-0.2-0.1-0.4-0.1-0.5,0.2c0,0-0.1,0-0.1-0.1c-0.1,0-0.1,0.1,0,0.2
		c0,0.1,0,0.1,0,0.1c0,0,0,0.1,0,0.1c0,0,0,0.1,0,0.1s0,0.1,0,0.1c0,0.1,0,0.2,0.1,0.2c0,0.1,0,0.2,0.1,0.3c0.1,0.1,0.1,0.2,0,0.3
		c0,0.1,0,0.2,0.1,0.3c0,0,0,0,0,0.1c0,0,0,0,0,0.1c0,0.1,0,0.1,0,0.2c0,0.1,0,0.1,0.1,0.1c0,0.6,0,0.9,0,0.9
		c-0.1,0.1-0.1,0.3,0,0.5c0,0,0,0.1,0,0.2c0,0,0,0.1-0.1,0.1c0,0.1,0,0.1,0,0.2c0.1,0.1,0.1,0.1,0.1,0.1s0,0.1,0,0.1
		c0,0,0,0.1,0,0.1c0,0.1,0,0.2,0,0.5c0,0.2,0,0.4,0,0.5c0,0,0,0.1,0,0.2c0,0.1,0.1,0.1,0.2,0.1c0.1,0,0.2-0.1,0.2-0.1
		c0.2,0,0.4,0,0.4-0.1c0.3,0,0.4,0,0.4,0c0.1,0,0.2,0,0.3,0c0,0,0.1,0,0.1-0.1c0.1,0,0.1-0.1,0.1-0.1c0,0,0.1,0,0.1,0
		c0.1,0,0.2,0,0.2-0.1c0.2,0.1,0.3,0,0.4,0c0,0,0,0,0.1,0c0,0,0,0,0.1,0c0,0,0.1,0,0.1,0c0.1,0,0.1,0,0.1,0c0.1,0,0.2,0,0.4,0
		c0,0,0-0.1,0-0.1c0.1,0.1,0.2,0.1,0.3,0c0.1,0,0.2-0.1,0.3-0.1c0,0,0.1,0,0.1,0c0,0,0.1-0.1,0.1-0.1c0,0,0,0,0.1,0c0,0,0,0,0,0.1
		c0,0,0.1,0,0.1-0.1c0.1-0.1,0.1-0.1,0.2-0.1c0-0.1,0.1-0.1,0.1-0.1c0,0,0,0,0.1,0.1c0.2,0,0.3,0,0.3-0.1c0,0,0.1,0,0.2,0
		c0.1,0,0.1,0,0.1,0c0,0,0.1,0,0.2,0.1c0.1,0,0.1,0.1,0.2,0.1c0.1,0,0.2,0.1,0.2,0.2c0,0,0.1,0,0.2,0c0,0,0,0,0,0c0,0,0,0.1,0.1,0.1
		c0.2,0,0.3,0,0.3,0c0,0,0,0.1,0.1,0.2c0,0,0,0.1,0,0.1c0,0.1,0,0.1,0.1,0.3c0,0.2,0.1,0.3,0.2,0.4c0,0,0,0.1-0.1,0.1
		c0,0.1,0,0.2-0.1,0.3c0,0.1-0.1,0.2-0.1,0.3h-0.1c0,0,0,0,0,0.1s0,0,0,0.1c0,0-0.1,0-0.1,0h0l-0.1,0c0,0,0,0-0.1-0.1c0,0,0,0-0.1,0
		s-0.1,0-0.1,0.1c0,0-0.1,0-0.1,0c0,0.1-0.1,0.1-0.3,0.2c-0.2,0.1-0.2,0.1-0.2,0.2c-0.2,0-0.3,0-0.5,0.2c0,0,0,0-0.1,0
		c0,0,0,0-0.1,0.1c0,0,0,0,0,0.1c-0.1,0-0.1,0-0.2-0.1c0,0,0,0-0.1,0c0,0,0,0.1,0,0.1c0,0-0.1,0-0.2,0s-0.2,0-0.2,0c0,0,0,0-0.1,0.1
		c0,0-0.1,0.1-0.1,0.1c-0.1,0-0.1,0-0.2,0c-0.1,0-0.1,0.1,0,0.2c0-0.1-0.1-0.1-0.2-0.1s-0.2,0-0.2,0.1v0.1c0,0-0.1,0-0.2,0
		c-0.1-0.1-0.1,0-0.1,0c0,0-0.1,0-0.2,0l0,0.2c0,0-0.1,0-0.2,0c0,0-0.1,0-0.1,0c0,0-0.1,0.1,0,0.2l-0.2-0.1c0,0-0.1,0-0.3,0
		c0,0,0,0.1-0.1,0.1c0,0,0,0.1-0.1,0.1c-0.2,0-0.3,0-0.3,0l-0.1,0.2c-0.2,0-0.4,0-0.4,0c0,0-0.1,0.1-0.2,0.1c0,0,0,0,0,0.1
		c-0.2,0.1-0.3,0.1-0.4,0c0,0-0.1,0-0.1,0.1c0,0-0.1,0.1-0.1,0.1c0,0,0,0-0.1-0.1c0,0,0-0.1-0.1-0.1c0,0-0.1,0-0.2,0.1
		c-0.1,0-0.1,0-0.1,0c-0.1,0-0.1,0.2,0,0.5c0,0,0,0.1,0,0.1c0,0,0,0.1,0,0.1c0,0.1,0,0.1,0.1,0.1c0,0.1,0,0.2-0.1,0.2
		c0,0,0,0.1,0,0.2c0,0.1,0,0.2,0.1,0.2c0,0,0,0,0,0.1s0,0,0,0.1c0,0,0,0.1-0.1,0.3c0.1,0.1,0.1,0.2,0.1,0.5c0,0.2,0,0.4,0,0.6
		c-0.1,0.2-0.1,0.4,0,0.4c0,0.1,0,0.1,0,0.3c0,0,0,0.1,0,0.1c0,0,0,0.1,0,0.1c0.1,0.2,0.1,0.3,0.1,0.4c0,0.1,0.1,0.1,0.1,0.3
		c0,0.1,0.1,0.2,0.1,0.3c0.1,0,0.2,0,0.3,0.1c0.2,0,0.2,0,0.3,0c0,0,0,0,0.1-0.1c0,0,0.1,0,0.1,0.1c0.3,0,0.5-0.1,0.6-0.1
		c0,0,0.1,0,0.3,0c0.1,0,0.2,0,0.3,0c0-0.1,0.2-0.1,0.5-0.2c0,0,0,0,0-0.1c0,0,0-0.1,0-0.1c0,0,0.1,0,0.2,0c0.1,0,0.1,0,0.2,0
		c0,0,0.1-0.1,0.2-0.1c0.1,0,0.1-0.1,0.2-0.1c0.1,0,0.3,0,0.4-0.1c0.1-0.1,0.3-0.2,0.4-0.2c0-0.1,0-0.1,0.1-0.1c0.1,0.1,0.2,0,0.3,0
		c0.2,0,0.3-0.1,0.4-0.3c0.1,0,0.2,0,0.2,0c0.1-0.1,0.1-0.1,0.2-0.1c0.4,0,0.6,0,0.6,0.1c0,0,0.1,0,0.1,0c0,0.1,0.1,0.2,0.2,0.4
		c0,0,0.1,0,0.1,0c0,0,0.1,0.1,0.2,0.2c0,0.1,0.1,0.2,0.2,0.3c0,0.1,0,0.1,0.1,0.2c0.1,0.1,0.1,0.1,0.1,0.2c0,0,0,0,0,0.1
		c0,0.1,0,0.1,0,0.2c-0.1,0.2-0.2,0.3-0.2,0.4c-0.1,0-0.2,0.1-0.2,0.2c-0.2,0-0.2,0.1-0.3,0.4c0,0,0,0-0.1,0c0,0,0,0-0.1,0
		c0,0,0,0.1-0.1,0.2c0,0,0,0-0.1,0c0,0,0,0-0.1,0s-0.1,0-0.1,0.1c-0.2,0-0.2,0.1-0.2,0.2h-0.1c-0.1,0.2-0.2,0.2-0.4,0.1
		c0,0-0.1,0.1-0.1,0.2c0,0,0,0-0.1,0c-0.1-0.1-0.2-0.1-0.2,0c0,0-0.1,0.1-0.1,0.2l-0.1,0c0,0,0,0,0,0.1c0,0,0,0.1,0,0.1
		c0,0-0.1-0.1-0.2-0.1c-0.1,0-0.2,0-0.2,0c0,0,0,0.1-0.1,0.1c0,0,0,0.1,0,0.1c0,0,0,0-0.1,0c0,0,0,0-0.1,0c0,0,0,0.1-0.1,0.2
		c-0.1-0.1-0.2,0-0.3,0c0,0,0,0,0,0.1c-0.1,0-0.2,0-0.2,0c-0.1,0-0.2,0.1-0.2,0.1c0,0,0,0-0.1,0c0,0,0,0,0,0c0,0-0.1,0-0.2,0
		c-0.1,0-0.2,0-0.2,0.1c0,0.1,0,0.1,0,0.1c0,0-0.1,0-0.2,0c0,0-0.1,0-0.1,0c0,0,0-0.1-0.1-0.1c-0.2,0.1-0.3,0.1-0.4,0.1
		c0,0,0,0.1,0,0.1c0,0-0.1,0-0.1,0c0,0,0-0.1-0.1-0.1c0,0,0,0.1-0.1,0.1c0,0,0,0-0.1,0c0,0-0.1,0-0.1,0c-0.1,0-0.1,0-0.2,0
		c0-0.1,0-0.1,0-0.1l-0.1,0c-0.1,0-0.1,0.1-0.1,0.2c-0.2,0-0.3,0-0.5,0c0-0.1,0-0.1-0.1-0.2c0,0-0.1,0-0.1,0c0,0,0,0.1,0,0.1
		c0,0.1,0,0.1,0,0.1s0,0,0-0.1c0,0,0-0.1,0-0.1h-0.1v-0.1c0-0.1-0.1-0.1-0.2-0.1c-0.1-0.1-0.1-0.1-0.2-0.1c0,0-0.1,0-0.1-0.1
		c0-0.1-0.1-0.1-0.1-0.2c0,0,0,0-0.1,0c0,0,0,0-0.1,0c0,0,0-0.1,0-0.1c0,0,0-0.1-0.1-0.1s0,0-0.1,0c0,0-0.1,0-0.1,0
		c0-0.1,0-0.2-0.2-0.3v-0.1c-0.1-0.1-0.2-0.2-0.2-0.2h-0.1c-0.1-0.1-0.1-0.1-0.2-0.2c-0.1-0.1-0.1-0.2-0.2-0.3
		c-0.1-0.1-0.1-0.2-0.2-0.2c-0.1-0.4-0.2-0.6-0.2-0.6c0-0.1,0-0.1-0.1-0.3c0-0.1,0-0.1,0-0.2c0-0.1,0-0.2,0-0.2c0-0.1,0-0.1-0.1-0.2
		c0,0,0-0.1,0-0.1c0,0,0-0.1,0-0.1c0,0,0-0.1,0-0.3c0-0.2,0-0.3-0.1-0.3c0-0.1,0-0.2,0-0.3c0-0.2,0-0.3,0-0.3c0-0.4,0-0.9,0-1.7
		c0-0.7,0-1.3,0-1.7c0.1,0,0.1,0,0.1-0.1c0-0.1-0.1-0.2-0.1-0.2c0-0.1,0-0.2,0-0.3c0-0.1,0.1-0.2,0.1-0.2c0-0.1-0.1-0.1-0.1-0.2
		c0-0.1,0-0.1,0.1-0.1c0-0.1,0-0.6,0-1.5c0,0,0.1-0.1,0.1-0.1c0-0.1,0-0.1-0.1-0.2c0,0,0-0.1,0-0.2c0-0.1,0-0.2,0-0.3
		c0,0,0-0.1,0-0.1c0-0.1,0-0.2,0-0.2c0-0.1,0-0.2,0-0.5c0-0.3,0-0.4-0.1-0.4c0.1,0,0.1-0.2,0.1-0.4c0-0.2,0-0.3,0-0.4l-0.1-0.1
		c0-0.2,0-0.3,0.1-0.3c0,0,0-0.1-0.1-0.1c0,0,0-0.1,0-0.1c0-0.3,0-0.4,0-0.5c0,0,0,0-0.1,0s0,0,0,0c0-0.3,0-0.5,0-0.7
		c0,0-0.1,0-0.1,0c0,0,0-0.1,0-0.2c0,0,0-0.1,0-0.1c0,0,0-0.1,0-0.1c0,0,0-0.1,0-0.1c0,0,0-0.1,0-0.1c0,0,0-0.1-0.1-0.1
		c-0.1-0.1-0.1-0.2,0-0.3c0,0-0.1-0.1-0.1-0.1c0-0.1,0-0.1,0-0.2c0,0-0.1-0.1-0.2-0.2c0-0.1,0-0.2,0-0.2c0-0.1,0-0.1,0-0.2
		c0-0.1,0-0.2,0-0.3c0.1-0.1,0.1-0.2,0.1-0.3c0,0,0.1-0.1,0.1-0.2c0.1-0.1,0.1-0.2,0.2-0.2c0,0,0,0,0,0c0,0,0-0.1,0-0.1l0.1,0.1
		c0,0,0.1,0,0.2,0c0.1,0,0.1,0,0.2,0c0,0,0.1,0,0.2-0.1c0.1-0.1,0.1-0.1,0.1-0.1c0,0,0.1,0,0.2,0c0.1,0,0.2,0,0.2,0c0,0,0,0,0.1,0
		c0,0,0,0,0.1,0c0.2,0,0.3,0,0.3-0.1c0.3-0.1,0.5-0.1,0.5-0.2h0.2c0,0,0,0,0,0c0,0,0,0,0.1,0c0,0,0.1,0,0.1,0c0,0,0.1,0,0.2-0.1
		c0.1-0.1,0.1-0.1,0.2-0.1c0,0,0-0.1,0-0.2c0,0,0.1,0,0.1,0c0,0,0,0,0,0.1c0,0,0,0.1,0,0.1c0.2-0.1,0.3-0.1,0.4-0.2
		c0,0,0.1,0,0.2,0.1l0.2-0.1c0,0,0.1-0.1,0.2-0.2c0,0.1,0,0.1,0.1,0.2c0,0,0.1,0,0.1-0.1c0.1,0,0.1,0,0.1,0c0,0,0.1,0,0.1,0
		c0,0,0.1,0,0.1-0.1c0,0,0.1,0,0.1,0c0.1,0,0.1,0,0.2,0c0.1,0,0.2-0.1,0.3-0.1c0,0,0.1,0,0.1,0c0,0,0.1,0,0.1-0.1c0.1,0,0.1,0,0.1,0
		c0,0,0.1,0,0.2-0.1c0,0,0.1,0,0.1,0C90.8,42,90.9,42,90.9,41.9C90.9,41.9,90.9,41.9,90.9,41.9C90.9,41.9,90.9,41.9,90.9,41.9z
		 M91.6,41.7c0,0,0.1,0,0.2,0c0.1,0,0.1,0,0.2,0c0,0,0,0,0,0c0,0,0,0,0,0.1c0,0,0.1,0,0.2,0s0.1,0,0.1,0.1c0.1,0,0.2,0,0.3,0.1
		c0.4,0,0.6,0.1,0.7,0.2h0.1c0,0.1,0.1,0.1,0.3,0.2s0.2,0.2,0.3,0.2v0.1c0.1,0.1,0.2,0.3,0.3,0.7c0,0,0,0,0.1,0c0,0,0,0,0,0
		c0,0.2,0,0.3,0,0.4c0,0.1,0,0.2,0,0.3c0,0.1-0.1,0.1-0.1,0.2c0,0.1-0.1,0.1-0.1,0.1c0,0.1,0,0.2-0.1,0.3c0,0.1,0,0.1,0,0.1
		c0,0,0,0.1,0,0.1c0,0,0,0-0.1,0c0,0,0,0,0,0c0,0,0,0.1-0.1,0.1c0,0-0.1,0-0.1,0c0,0,0,0.1,0,0.1c0,0,0,0.1-0.1,0.1
		c-0.1,0-0.2,0-0.2,0c0,0.1,0,0.1,0,0.1s-0.1,0-0.1,0c-0.1,0-0.1,0-0.1,0c0,0,0,0-0.1,0c0,0,0,0-0.1,0c0,0,0-0.1,0.1-0.1
		c0,0,0-0.1-0.1-0.1c0-0.1,0-0.1-0.1-0.1c0,0-0.1,0.1-0.1,0.1c0,0-0.1,0-0.1,0c0-0.1,0-0.1-0.1-0.2c0-0.1-0.1-0.1-0.1-0.1
		c0,0,0,0.1,0,0.1s0,0.1,0,0.1c0,0,0-0.1-0.1-0.1c0,0,0-0.1-0.1-0.1c0,0,0,0-0.1-0.1c0-0.2-0.2-0.2-0.4-0.2c0,0-0.1,0-0.2,0.1
		c0,0-0.1,0-0.2,0c-0.1,0-0.1,0-0.1,0c0,0,0,0.1-0.1,0.1c0,0-0.2,0-0.3,0c-0.2,0.1-0.4,0.1-0.4,0.2c-0.1-0.1-0.2-0.1-0.3,0
		c-0.1,0-0.1,0-0.2,0c-0.1,0-0.1,0-0.2,0c0,0,0,0.1,0,0.1c-0.1,0-0.2,0-0.2,0c-0.1-0.1-0.2-0.1-0.2,0c0,0,0,0-0.1,0.1
		c0,0,0,0.1-0.1,0.1c0,0-0.1,0-0.2,0c-0.1,0-0.1,0-0.1,0c0,0-0.1,0-0.1,0.1c0,0-0.1,0-0.1,0c0,0-0.1,0-0.1,0l0,0.1
		c-0.2,0-0.4,0-0.4,0c0,0,0,0,0,0.1c0,0,0,0,0,0.1c-0.2-0.1-0.4-0.1-0.5,0.2c0,0-0.1,0-0.1-0.1c-0.1,0-0.1,0.1,0,0.2
		c0,0.1,0,0.1,0,0.1c0,0,0,0.1,0,0.1c0,0,0,0.1,0,0.1s0,0.1,0,0.1c0,0.1,0,0.2,0.1,0.2c0,0.1,0,0.2,0.1,0.3c0.1,0.1,0.1,0.2,0,0.3
		c0,0.1,0,0.2,0.1,0.3c0,0,0,0,0,0.1c0,0,0,0,0,0.1c0,0.1,0,0.1,0,0.2c0,0.1,0,0.1,0.1,0.1c0,0.6,0,0.9,0,0.9
		c-0.1,0.1-0.1,0.3,0,0.5c0,0,0,0.1,0,0.2c0,0,0,0.1-0.1,0.1c0,0.1,0,0.1,0,0.2c0.1,0.1,0.1,0.1,0.1,0.1s0,0.1,0,0.1
		c0,0,0,0.1,0,0.1c0,0.1,0,0.2,0,0.5c0,0.2,0,0.4,0,0.5c0,0,0,0.1,0,0.2c0,0.1,0.1,0.1,0.2,0.1c0.1,0,0.2-0.1,0.2-0.1
		c0.2,0,0.4,0,0.4-0.1c0.3,0,0.4,0,0.4,0c0.1,0,0.2,0,0.3,0c0,0,0.1,0,0.1-0.1c0.1,0,0.1-0.1,0.1-0.1c0,0,0.1,0,0.1,0
		c0.1,0,0.2,0,0.2-0.1c0.2,0.1,0.3,0,0.4,0c0,0,0,0,0.1,0c0,0,0,0,0.1,0c0,0,0.1,0,0.1,0c0.1,0,0.1,0,0.1,0c0.1,0,0.2,0,0.4,0
		c0,0,0-0.1,0-0.1c0.1,0.1,0.2,0.1,0.3,0c0.1,0,0.2-0.1,0.3-0.1c0,0,0.1,0,0.1,0c0,0,0.1-0.1,0.1-0.1c0,0,0,0,0.1,0c0,0,0,0,0,0.1
		c0,0,0.1,0,0.1-0.1c0.1-0.1,0.1-0.1,0.2-0.1c0-0.1,0.1-0.1,0.1-0.1c0,0,0,0,0.1,0.1c0.2,0,0.3,0,0.3-0.1c0,0,0.1,0,0.2,0
		c0.1,0,0.1,0,0.1,0c0,0,0.1,0,0.2,0.1c0.1,0,0.1,0.1,0.2,0.1c0.1,0,0.2,0.1,0.2,0.2c0,0,0.1,0,0.2,0c0,0,0,0,0,0c0,0,0,0.1,0.1,0.1
		c0.2,0,0.3,0,0.3,0c0,0,0,0.1,0.1,0.2c0,0,0,0.1,0,0.1c0,0.1,0,0.1,0.1,0.3c0,0.2,0.1,0.3,0.2,0.4c0,0,0,0.1-0.1,0.1
		c0,0.1,0,0.2-0.1,0.3c0,0.1-0.1,0.2-0.1,0.3h-0.1c0,0,0,0,0,0.1s0,0,0,0.1c0,0-0.1,0-0.1,0h0l-0.1,0c0,0,0,0-0.1-0.1c0,0,0,0-0.1,0
		s-0.1,0-0.1,0.1c0,0-0.1,0-0.1,0c0,0.1-0.1,0.1-0.3,0.2c-0.2,0.1-0.2,0.1-0.2,0.2c-0.2,0-0.3,0-0.5,0.2c0,0,0,0-0.1,0
		c0,0,0,0-0.1,0.1c0,0,0,0,0,0.1c-0.1,0-0.1,0-0.2-0.1c0,0,0,0-0.1,0c0,0,0,0.1,0,0.1c0,0-0.1,0-0.2,0s-0.2,0-0.2,0c0,0,0,0-0.1,0.1
		c0,0-0.1,0.1-0.1,0.1c-0.1,0-0.1,0-0.2,0c-0.1,0-0.1,0.1,0,0.2c0-0.1-0.1-0.1-0.2-0.1s-0.2,0-0.2,0.1v0.1c0,0-0.1,0-0.2,0
		c-0.1-0.1-0.1,0-0.1,0c0,0-0.1,0-0.2,0l0,0.2c0,0-0.1,0-0.2,0c0,0-0.1,0-0.1,0c0,0-0.1,0.1,0,0.2l-0.2-0.1c0,0-0.1,0-0.3,0
		c0,0,0,0.1-0.1,0.1c0,0,0,0.1-0.1,0.1c-0.2,0-0.3,0-0.3,0l-0.1,0.2c-0.2,0-0.4,0-0.4,0c0,0-0.1,0.1-0.2,0.1c0,0,0,0,0,0.1
		c-0.2,0.1-0.3,0.1-0.4,0c0,0-0.1,0-0.1,0.1c0,0-0.1,0.1-0.1,0.1c0,0,0,0-0.1-0.1c0,0,0-0.1-0.1-0.1c0,0-0.1,0-0.2,0.1
		c-0.1,0-0.1,0-0.1,0c-0.1,0-0.1,0.2,0,0.5c0,0,0,0.1,0,0.1c0,0,0,0.1,0,0.1c0,0.1,0,0.1,0.1,0.1c0,0.1,0,0.2-0.1,0.2
		c0,0,0,0.1,0,0.2c0,0.1,0,0.2,0.1,0.2c0,0,0,0,0,0.1s0,0,0,0.1c0,0,0,0.1-0.1,0.3c0.1,0.1,0.1,0.2,0.1,0.5c0,0.2,0,0.4,0,0.6
		c-0.1,0.2-0.1,0.4,0,0.4c0,0.1,0,0.1,0,0.3c0,0,0,0.1,0,0.1c0,0,0,0.1,0,0.1c0.1,0.2,0.1,0.3,0.1,0.4c0,0.1,0.1,0.1,0.1,0.3
		c0,0.1,0.1,0.2,0.1,0.3c0.1,0,0.2,0,0.3,0.1c0.2,0,0.2,0,0.3,0c0,0,0,0,0.1-0.1c0,0,0.1,0,0.1,0.1c0.3,0,0.5-0.1,0.6-0.1
		c0,0,0.1,0,0.3,0c0.1,0,0.2,0,0.3,0c0-0.1,0.2-0.1,0.5-0.2c0,0,0,0,0-0.1c0,0,0-0.1,0-0.1c0,0,0.1,0,0.2,0c0.1,0,0.1,0,0.2,0
		c0,0,0.1-0.1,0.2-0.1c0.1,0,0.1-0.1,0.2-0.1c0.1,0,0.3,0,0.4-0.1c0.1-0.1,0.3-0.2,0.4-0.2c0-0.1,0-0.1,0.1-0.1c0.1,0.1,0.2,0,0.3,0
		c0.2,0,0.3-0.1,0.4-0.3c0.1,0,0.2,0,0.2,0c0.1-0.1,0.1-0.1,0.2-0.1c0.4,0,0.6,0,0.6,0.1c0,0,0.1,0,0.1,0c0,0.1,0.1,0.2,0.2,0.4
		c0,0,0.1,0,0.1,0c0,0,0.1,0.1,0.2,0.2c0,0.1,0.1,0.2,0.2,0.3c0,0.1,0,0.1,0.1,0.2c0.1,0.1,0.1,0.1,0.1,0.2c0,0,0,0,0,0.1
		c0,0.1,0,0.1,0,0.2c-0.1,0.2-0.2,0.3-0.2,0.4c-0.1,0-0.2,0.1-0.2,0.2c-0.2,0-0.2,0.1-0.3,0.4c0,0,0,0-0.1,0c0,0,0,0-0.1,0
		c0,0,0,0.1-0.1,0.2c0,0,0,0-0.1,0c0,0,0,0-0.1,0s-0.1,0-0.1,0.1c-0.2,0-0.2,0.1-0.2,0.2h-0.1c-0.1,0.2-0.2,0.2-0.4,0.1
		c0,0-0.1,0.1-0.1,0.2c0,0,0,0-0.1,0c-0.1-0.1-0.2-0.1-0.2,0c0,0-0.1,0.1-0.1,0.2l-0.1,0c0,0,0,0,0,0.1c0,0,0,0.1,0,0.1
		c0,0-0.1-0.1-0.2-0.1c-0.1,0-0.2,0-0.2,0c0,0,0,0.1-0.1,0.1c0,0,0,0.1,0,0.1c0,0,0,0-0.1,0c0,0,0,0-0.1,0c0,0,0,0.1-0.1,0.2
		c-0.1-0.1-0.2,0-0.3,0c0,0,0,0,0,0.1c-0.1,0-0.2,0-0.2,0c-0.1,0-0.2,0.1-0.2,0.1c0,0,0,0-0.1,0c0,0,0,0,0,0c0,0-0.1,0-0.2,0
		c-0.1,0-0.2,0-0.2,0.1c0,0.1,0,0.1,0,0.1c0,0-0.1,0-0.2,0c0,0-0.1,0-0.1,0c0,0,0-0.1-0.1-0.1c-0.2,0.1-0.3,0.1-0.4,0.1
		c0,0,0,0.1,0,0.1c0,0-0.1,0-0.1,0c0,0,0-0.1-0.1-0.1c0,0,0,0.1-0.1,0.1c0,0,0,0-0.1,0c0,0-0.1,0-0.1,0c-0.1,0-0.1,0-0.2,0
		c0-0.1,0-0.1,0-0.1l-0.1,0c-0.1,0-0.1,0.1-0.1,0.2c-0.2,0-0.3,0-0.5,0c0-0.1,0-0.1-0.1-0.2c0,0-0.1,0-0.1,0c0,0,0,0.1,0,0.1
		c0,0.1,0,0.1,0,0.1s0,0,0-0.1c0,0,0-0.1,0-0.1h-0.1v-0.1c0-0.1-0.1-0.1-0.2-0.1c-0.1-0.1-0.1-0.1-0.2-0.1c0,0-0.1,0-0.1-0.1
		c0-0.1-0.1-0.1-0.1-0.2c0,0,0,0-0.1,0c0,0,0,0-0.1,0c0,0,0-0.1,0-0.1c0,0,0-0.1-0.1-0.1s0,0-0.1,0c0,0-0.1,0-0.1,0
		c0-0.1,0-0.2-0.2-0.3v-0.1c-0.1-0.1-0.2-0.2-0.2-0.2h-0.1c-0.1-0.1-0.1-0.1-0.2-0.2c-0.1-0.1-0.1-0.2-0.2-0.3
		c-0.1-0.1-0.1-0.2-0.2-0.2c-0.1-0.4-0.2-0.6-0.2-0.6c0-0.1,0-0.1-0.1-0.3c0-0.1,0-0.1,0-0.2c0-0.1,0-0.2,0-0.2c0,0,0-0.1-0.1-0.1
		c0,0,0-0.1,0-0.1c0,0,0-0.1,0-0.1c0,0,0-0.1,0-0.3c0-0.2,0-0.3-0.1-0.3c0-0.1,0-0.2,0-0.3c0-0.2,0-0.3,0-0.3c0-0.4,0-0.9,0-1.7
		c0-0.7,0-1.3,0-1.7c0.1,0,0.1,0,0.1-0.1c0-0.1-0.1-0.2-0.1-0.2c0-0.1,0-0.2,0-0.3c0-0.1,0.1-0.2,0.1-0.2c0-0.1-0.1-0.1-0.1-0.2
		c0-0.1,0-0.1,0.1-0.1c0-0.1,0-0.6,0-1.5c0,0,0.1-0.1,0.1-0.1c0-0.1,0-0.1-0.1-0.2c0,0,0-0.1,0-0.2c0-0.1,0-0.2,0-0.3
		c0,0,0-0.1,0-0.1c0-0.1,0-0.1,0-0.2c0-0.1,0-0.2,0-0.5c0-0.3,0-0.4-0.1-0.4c0.1,0,0.1-0.2,0.1-0.4c0-0.2,0-0.3,0-0.4l-0.1-0.1
		c0-0.2,0-0.3,0.1-0.3c0,0,0-0.1-0.1-0.1c0,0,0-0.1,0-0.1c0-0.3,0-0.4,0-0.5c0,0,0,0-0.1,0s0,0,0,0c0-0.3,0-0.5,0-0.7
		c0,0-0.1,0-0.1,0c0,0,0-0.1,0-0.2c0,0,0-0.1,0-0.1c0,0,0-0.1,0-0.1c0,0,0-0.1,0-0.1c0,0,0-0.1,0-0.1c0,0,0-0.1-0.1-0.1
		c-0.1-0.1-0.1-0.2,0-0.3c0,0-0.1-0.1-0.1-0.1c0-0.1,0-0.1,0-0.2c0,0-0.1-0.1-0.2-0.2c0-0.1,0-0.2,0-0.2c0-0.1,0-0.1,0-0.2
		c0-0.1,0-0.2,0-0.3c0.1-0.1,0.1-0.2,0.1-0.3c0,0,0.1-0.1,0.1-0.2c0.1-0.1,0.1-0.2,0.2-0.2c0,0,0,0,0,0c0,0,0-0.1,0-0.1l0.1,0.1
		c0,0,0.1,0,0.2,0c0.1,0,0.1,0,0.2,0c0,0,0.1,0,0.2-0.1c0.1-0.1,0.1-0.1,0.1-0.1c0,0,0.1,0,0.2,0c0.1,0,0.2,0,0.2,0c0,0,0,0,0.1,0
		c0,0,0,0,0.1,0c0.2,0,0.3,0,0.3-0.1c0.3-0.1,0.5-0.1,0.5-0.2h0.2c0,0,0,0,0,0c0,0,0,0,0.1,0c0,0,0.1,0,0.1,0c0,0,0.1,0,0.2-0.1
		c0.1-0.1,0.1-0.1,0.2-0.1c0,0,0-0.1,0-0.2c0,0,0.1,0,0.1,0c0,0,0,0,0,0.1c0,0,0,0.1,0,0.1c0.2-0.1,0.3-0.1,0.4-0.2
		c0,0,0.1,0,0.2,0.1l0.2-0.1c0,0,0.1-0.1,0.2-0.2c0,0.1,0,0.1,0.1,0.2c0,0,0.1,0,0.1-0.1c0.1,0,0.1,0,0.1,0c0,0,0.1,0,0.1,0
		c0,0,0.1,0,0.1-0.1c0,0,0.1,0,0.1,0c0.1,0,0.1,0,0.2,0c0.1,0,0.2-0.1,0.3-0.1c0,0,0.1,0,0.1,0c0,0,0.1,0,0.1-0.1c0.1,0,0.1,0,0.1,0
		c0,0,0.1,0,0.2-0.1c0,0,0.1,0,0.1,0c0,0,0.1,0,0.1,0c0,0,0,0,0,0c0,0,0,0,0,0C91.4,41.9,91.6,41.9,91.6,41.7z"/>
</g>
</svg>
