<?xml version="1.0" encoding="utf-8"?>
<!-- Generator: Adobe Illustrator 19.0.1, SVG Export Plug-In . SVG Version: 6.00 Build 0)  -->
<svg version="1.1" id="Layer_1" xmlns="http://www.w3.org/2000/svg" xmlns:xlink="http://www.w3.org/1999/xlink" x="0px" y="0px"
	 viewBox="0 0 100 100" enable-background="new 0 0 100 100" xml:space="preserve">
<g>
	<path fill="#D93427" d="M15.3,40.7h0.2c0,0.1,0,0.1,0,0.1c0.2,0.1,0.3,0.2,0.4,0.2c0,0.1,0.1,0.1,0.2,0.2c0,0,0.1,0,0.1,0
		c0,0.1,0.1,0.2,0.2,0.3c0,0,0,0.1,0,0.1c0.1,0.1,0,0.2,0,0.3c0,0.1,0,0.1,0,0.2c0,0.1,0,0.1,0,0.1c0,0,0,0.1,0,0.1c0,0,0,0.1,0,0.1
		c0,0-0.1,0-0.1,0c-0.1,0.1-0.1,0.1-0.1,0.2c-0.2,0.1-0.3,0.2-0.3,0.2c0,0-0.1,0-0.1,0c-0.1,0-0.1,0-0.1,0s-0.1,0-0.1,0.1
		c0,0-0.1,0-0.1,0c-0.1,0-0.1,0-0.2,0c0,0-0.1,0-0.1,0S15,43.1,15,43c0,0-0.1,0-0.1,0c-0.1,0-0.1,0-0.1,0c0,0,0,0-0.1,0c0,0,0,0,0,0
		c0,0,0,0,0-0.1c0,0-0.1-0.1-0.2-0.1c-0.3,0-0.4,0-0.5,0.1c0,0,0,0.1,0,0.1c-0.2,0-0.3,0.1-0.4,0.2c0,0,0,0,0,0c0,0,0,0,0,0
		c-0.1,0-0.1,0-0.2,0.1c-0.1,0.1-0.1,0.2-0.2,0.2v0.1c-0.1,0-0.1,0.1-0.1,0.1H13c-0.3,0.2-0.5,0.4-0.5,0.6c-0.1,0-0.1,0-0.1,0
		c0,0,0,0,0,0.1c0,0,0,0,0,0.1c-0.1,0-0.2,0.1-0.3,0.2c-0.1,0.1-0.2,0.2-0.3,0.3c0,0.1-0.1,0.2-0.2,0.3s-0.2,0.2-0.2,0.3
		c-0.1,0-0.1,0.1-0.2,0.2c-0.1,0.1-0.1,0.1-0.1,0.1c0,0,0,0.1,0,0.1c0,0,0,0.1,0,0.1c0,0-0.1,0.1-0.2,0.2c0,0,0,0.1,0,0.1
		c0,0.1,0,0.2-0.1,0.3c-0.1,0.1-0.1,0.2-0.1,0.2c-0.1,0-0.1,0.1-0.1,0.2c0,0.1-0.1,0.2-0.1,0.2v0.2c-0.1,0.1-0.1,0.2-0.2,0.2v0.2
		c-0.2,0.2-0.2,0.4-0.1,0.7l-0.1,0c0,0.1,0,0.3,0,0.5c-0.1,0-0.1,0-0.1,0c0,0.1,0,0.2,0,0.4c0,0.2,0,0.3-0.1,0.4c0,0.1,0,0.2,0,0.3
		c0,0.1-0.1,0.1-0.1,0.1c-0.1,0.3-0.1,0.7-0.1,1.1c0,0,0,0.3,0,0.9c0,0.5,0,0.9,0,0.9c0,0.1,0,0.1,0,0.1c0,0.2,0,0.3,0.1,0.3
		c0,0.1,0,0.2,0,0.3c0,0.1,0,0.3,0,0.3c0,0.1,0,0.1,0.1,0.2c-0.1,0.3,0,0.5,0.2,0.5c-0.1,0.1-0.1,0.2,0,0.3c0,0,0,0.1,0.1,0.1
		c0,0,0.1,0.1,0.1,0.1s0,0,0,0.1c0,0,0,0.1,0,0.1s0,0.1,0.1,0.2c0,0.1,0,0.1,0.1,0.3c0,0.1,0,0.2,0.1,0.3c0.1,0.1,0.1,0.1,0.1,0.2
		c0.2,0.4,0.4,0.7,0.5,0.8c0,0,0,0,0,0.1s0,0,0,0.1c0,0,0.1,0.1,0.2,0.1c0,0.1,0,0.1,0.1,0.2c0.1,0,0.1,0.1,0.1,0.1l0,0.1
		c0,0,0.1,0,0.1,0s0.1,0,0.1,0c0,0,0.1,0.1,0.1,0.1c0,0.1,0.1,0.1,0.1,0.1c0.1,0,0.2,0,0.3,0c0.1,0,0.1,0,0.1,0.1
		c0,0.1,0,0.1,0.1,0.1c0,0,0.1,0,0.1,0c0.1,0,0.1,0,0.1,0s0.1,0,0.2,0c0.1,0,0.1,0,0.2,0.1c0.1,0.1,0.2,0.1,0.2,0.1c0,0,0.1,0,0.1,0
		c0,0,0.1,0,0.1,0c0,0,0.1,0,0.1,0c0.1,0,0.1,0,0.1,0c0.1,0.1,0.2,0.2,0.3,0.2c0,0,0.1,0,0.1,0c0.1,0,0.1,0,0.1,0
		c0.4,0,0.6,0,0.6-0.1c0.2,0,0.4,0.1,0.4,0.1c0,0,0.1,0,0.1-0.1c0,0,0-0.1,0-0.1c0.2,0.1,0.4,0.1,0.5,0c0.2,0,0.4,0,0.5-0.2
		c0.2,0,0.3,0,0.3-0.1c0.1,0.1,0.2,0,0.3,0c0,0,0,0,0.1,0s0.1,0,0.1,0c0.1,0,0.1,0,0.2-0.1c0.1,0,0.1,0,0.2-0.1
		c0.1-0.1,0.1-0.1,0.2-0.1c0,0,0.1-0.1,0.3-0.1c0.1-0.1,0.2-0.1,0.3-0.2c0.1,0,0.2-0.1,0.2-0.2c0.1,0,0.1,0,0.2-0.1
		c0.1,0,0.2,0,0.3-0.1c0.1-0.1,0.1-0.1,0.2-0.1c0,0,0,0,0-0.1v0c0,0,0.1,0,0.1,0c0,0,0.1,0,0.1,0c0-0.1,0.1-0.1,0.1-0.2
		c0-0.1,0.1-0.1,0.1-0.2c0.2-0.2,0.4-0.4,0.4-0.5c0.1,0,0.1,0,0.2,0c0-0.1,0.1-0.1,0.1-0.1c0.1,0,0.1,0,0.2,0
		c0.1-0.1,0.1-0.1,0.3-0.1s0.2,0,0.2,0.1c0,0,0.1,0,0.1,0c0.1,0,0.2,0.1,0.3,0.2c0.1,0,0.1,0,0.2,0c0.1,0,0.1,0.1,0.1,0.2
		c0,0.1,0.1,0.2,0.2,0.2c0,0.1,0,0.1,0,0.1c0,0,0.1,0.1,0.1,0.1c0.1,0,0.1,0.1,0.1,0.1c0,0.1,0,0.2,0.1,0.4c0.1,0.1,0.1,0.2,0.1,0.3
		c-0.1,0.1-0.1,0.2-0.1,0.2c0,0,0,0.1,0,0.1c0,0-0.1,0-0.1,0c0,0.1,0,0.2,0,0.2c-0.1,0-0.2,0.1-0.3,0.2c-0.1,0.1-0.2,0.2-0.2,0.3
		c-0.2,0.1-0.3,0.1-0.3,0.2c-0.1,0-0.3,0.1-0.4,0.3c-0.1,0-0.1,0-0.2,0.1c-0.1,0.1-0.1,0.1-0.2,0.1c0,0-0.1,0.1-0.2,0.1
		c-0.1,0.1-0.2,0.1-0.2,0.2c-0.2,0.1-0.4,0.2-0.5,0.4L19.6,60c-0.1,0.1-0.2,0.2-0.2,0.3c-0.2,0-0.4,0.1-0.5,0.2
		c-0.1,0-0.2,0-0.3,0.2c0,0-0.1,0-0.1,0c0,0-0.1,0-0.1,0c0,0-0.1,0-0.2,0.1c0,0-0.1,0-0.1,0c0,0-0.1,0-0.1,0c-0.1,0-0.1,0.1-0.3,0.1
		c-0.1,0-0.2,0-0.2,0s0,0-0.1,0.1c0,0-0.1,0-0.1,0c0,0-0.1,0.1-0.2,0.2c-0.1,0-0.1,0-0.2-0.1c-0.2,0-0.3,0-0.4,0.2
		c-0.1,0.1-0.1,0.1-0.2,0l-0.1,0c-0.2-0.1-0.4-0.1-0.7,0c-0.2,0.1-0.4,0.1-0.4,0.1c0,0-0.1,0-0.1,0c-0.1,0-0.1,0-0.1,0
		c0,0,0,0.1,0,0.1c0,0,0,0.1,0,0.1h-0.2l-0.3-0.2c0,0-0.1,0-0.1,0c-0.1,0-0.1,0-0.1,0s-0.1,0-0.1,0c0,0-0.1,0-0.1,0c0,0-0.1,0-0.1,0
		c-0.1,0-0.1,0-0.1,0c0,0-0.1,0-0.1-0.1c0,0-0.1,0-0.1,0s-0.1,0-0.1,0c-0.1,0-0.1,0-0.1,0s-0.1,0-0.1-0.1c-0.1,0-0.1-0.1-0.1-0.1
		c0,0-0.1,0-0.1,0c0,0-0.1,0-0.1,0l0-0.1c0,0-0.1-0.1-0.3-0.1c0,0-0.1,0-0.1,0c0,0-0.1,0-0.1,0c0,0,0-0.1,0-0.2c0,0-0.1,0-0.1,0
		c-0.1,0-0.1,0-0.1,0c-0.1-0.2-0.2-0.2-0.3,0c-0.1,0-0.1-0.1-0.1-0.2c0,0-0.1,0-0.2-0.1c-0.1-0.1-0.2-0.1-0.3-0.1
		c-0.1,0-0.1,0-0.2,0c0-0.1,0-0.1,0-0.1h-0.2c0-0.1,0-0.1,0-0.1s0,0-0.1,0c-0.1,0-0.1,0-0.1,0c-0.1,0-0.1,0-0.1-0.1s0-0.1,0-0.2
		c-0.1,0-0.2,0-0.2,0c-0.1-0.1-0.1-0.1-0.2-0.1c0-0.1,0-0.2-0.1-0.3c-0.1-0.1-0.2-0.1-0.3-0.2c-0.1-0.3-0.2-0.4-0.5-0.4
		c0-0.1,0-0.2-0.2-0.3c-0.1-0.1-0.2-0.2-0.2-0.3c-0.2-0.2-0.3-0.4-0.3-0.4c0.1-0.1,0-0.2-0.1-0.3c-0.1-0.1-0.2-0.2-0.2-0.3
		c0,0,0,0-0.1,0c0,0,0,0-0.1,0c0-0.2-0.1-0.3-0.1-0.3c0.1-0.1,0-0.2-0.1-0.3c0.1-0.2,0-0.4-0.1-0.5c0,0-0.1,0-0.2,0
		c-0.1-0.2-0.1-0.4,0-0.5c-0.1-0.2-0.2-0.3-0.2-0.4c0,0,0-0.1,0-0.2c0-0.1,0-0.2,0-0.2c-0.1-0.2-0.1-0.3-0.1-0.4c0,0,0-0.1-0.1-0.1
		c0,0-0.1-0.1-0.1-0.1s0-0.1,0-0.2c0-0.1,0-0.2,0-0.2c-0.1-0.2-0.1-0.3,0-0.4c-0.1,0-0.1,0-0.1,0c0,0,0-0.1,0-0.1c0,0,0-0.1,0-0.1
		s0-0.1,0-0.1c0,0,0,0,0-0.1s0,0,0-0.1c0,0,0-0.1,0-0.1s0-0.1,0-0.2c0-0.1,0-0.2,0-0.2C7,52.5,7,52.4,6.8,52.3c0,0,0,0,0-0.1
		c0,0,0,0,0,0c0,0,0,0,0,0c0,0,0,0,0-0.1s0-0.1,0-0.1c0,0,0-0.1,0-0.1c0,0,0-0.1,0-0.1c0,0,0-0.1,0-0.1s0-0.1,0.1-0.3
		c-0.1,0-0.1-0.3,0-0.7C7,50.3,7.1,50,7.1,50s0-0.1,0-0.1c-0.2-0.1-0.2-0.2,0-0.4c0-0.1,0-0.1,0-0.1s0,0,0.1-0.1c0,0,0.1,0,0.1-0.1
		c0,0,0-0.1-0.1-0.1c0,0,0,0,0.1-0.1c0,0,0.1,0,0.1-0.1l-0.1-0.1c0,0,0-0.1,0-0.2c0-0.1,0-0.2,0-0.2c0,0,0.1-0.1,0.1-0.1
		c0-0.1,0-0.2,0-0.3c0-0.2,0-0.3,0-0.4c0.1-0.1,0.1-0.2,0.1-0.3c0-0.2,0.1-0.3,0.1-0.3c0-0.1,0-0.1,0.1-0.2c-0.1,0-0.1-0.1,0-0.2
		c0-0.1,0-0.2,0-0.2c0.1,0,0.1-0.1,0.1-0.2c0-0.1,0.1-0.2,0.1-0.2c0-0.1,0-0.2,0.1-0.4C8,45.5,8,45.4,8,45.3c0-0.1,0.1-0.1,0.1-0.2
		c0-0.2,0.1-0.4,0.3-0.5c0-0.1,0-0.2,0.1-0.2c0.1-0.1,0.1-0.2,0.1-0.2c0-0.1,0.1-0.1,0.1-0.1v-0.2C9,43.7,9,43.6,9,43.5
		c0,0,0.1-0.1,0.2-0.1c0,0,0.1-0.1,0.1-0.1c0-0.1,0.1-0.1,0.1-0.2c0.1,0,0.2-0.1,0.3-0.3c0.2-0.1,0.3-0.2,0.3-0.4
		c0.2-0.1,0.3-0.2,0.3-0.5c0,0,0.1,0,0.1,0.1c0.1-0.1,0.2-0.2,0.3-0.3c0.1,0,0.3-0.2,0.6-0.6c0.1,0,0.1,0,0.2-0.1c0,0,0,0,0.1,0
		c0,0,0,0,0.1,0c0,0,0.1-0.1,0.1-0.1c0.1,0,0.1-0.1,0.1-0.1c0.1,0,0.1,0,0.2-0.1c0.2,0,0.4,0,0.4-0.1c0.1,0,0.2,0,0.3-0.1
		c0.1-0.1,0.1-0.1,0.2-0.1c0,0,0.1,0,0.1,0c0.1,0,0.1,0,0.1,0c0,0,0.1,0,0.1,0c0,0,0.1,0,0.1,0s0.1,0,0.1,0.1c0.1,0,0.1,0,0.2,0
		c0,0,0.1,0,0.1,0c0,0,0.1,0,0.1,0c0,0,0.1,0,0.1,0c0,0,0.1,0.1,0.1,0.1c0.1,0,0.3,0,0.4,0c0.1,0.1,0.3,0.1,0.3,0.1
		c0.1,0.1,0.2,0.2,0.3,0.2C15.2,40.6,15.2,40.7,15.3,40.7z M15.4,40.8c0.2,0.1,0.3,0.2,0.4,0.2c0,0.1,0.1,0.1,0.2,0.2
		c0,0,0.1,0,0.1,0c0,0.1,0.1,0.2,0.2,0.3c0,0,0,0.1,0,0.1c0.1,0.1,0,0.2,0,0.3c0,0.1,0,0.1,0,0.2c0,0.1,0,0.1,0,0.1c0,0,0,0.1,0,0.1
		c0,0,0,0.1,0,0.1c0,0-0.1,0-0.1,0c-0.1,0.1-0.1,0.1-0.1,0.2c-0.2,0.1-0.3,0.2-0.3,0.2c0,0-0.1,0-0.1,0c-0.1,0-0.1,0-0.1,0
		s-0.1,0-0.1,0.1c0,0-0.1,0-0.1,0c-0.1,0-0.1,0-0.2,0c0,0-0.1,0-0.1,0S15,43.1,15,43c0,0-0.1,0-0.1,0c-0.1,0-0.1,0-0.1,0
		c0,0,0,0-0.1,0c0,0,0,0,0,0c0,0,0,0,0-0.1c0,0-0.1-0.1-0.2-0.1c-0.3,0-0.4,0-0.5,0.1c0,0,0,0.1,0,0.1c-0.2,0-0.3,0.1-0.4,0.2
		c0,0,0,0,0,0c0,0,0,0,0,0c-0.1,0-0.1,0-0.2,0.1c-0.1,0.1-0.1,0.2-0.2,0.2v0.1c-0.1,0-0.1,0.1-0.1,0.1H13c-0.3,0.2-0.5,0.4-0.5,0.6
		c-0.1,0-0.1,0-0.1,0c0,0,0,0,0,0.1c0,0,0,0,0,0.1c-0.1,0-0.2,0.1-0.3,0.2c-0.1,0.1-0.2,0.2-0.3,0.3c0,0.1-0.1,0.2-0.2,0.3
		s-0.2,0.2-0.2,0.3c-0.1,0-0.1,0.1-0.2,0.2c-0.1,0.1-0.1,0.1-0.1,0.1c0,0,0,0.1,0,0.1c0,0,0,0.1,0,0.1c0,0-0.1,0.1-0.2,0.2
		c0,0,0,0.1,0,0.1c0,0.1,0,0.2-0.1,0.3c-0.1,0.1-0.1,0.2-0.1,0.2c-0.1,0-0.1,0.1-0.1,0.2c0,0.1-0.1,0.2-0.1,0.2v0.2
		c-0.1,0.1-0.1,0.2-0.2,0.2v0.2c-0.2,0.2-0.2,0.4-0.1,0.7l-0.1,0c0,0.1,0,0.3,0,0.5c-0.1,0-0.1,0-0.1,0c0,0.1,0,0.2,0,0.4
		c0,0.2,0,0.3-0.1,0.4c0,0.1,0,0.2,0,0.3c0,0.1-0.1,0.1-0.1,0.1c-0.1,0.3-0.1,0.7-0.1,1.1c0,0,0,0.3,0,0.9c0,0.5,0,0.9,0,0.9
		c0,0.1,0,0.1,0,0.1c0,0.2,0,0.3,0.1,0.3c0,0.1,0,0.2,0,0.3c0,0.1,0,0.3,0,0.3c0,0.1,0,0.1,0.1,0.2c-0.1,0.3,0,0.5,0.2,0.5
		c-0.1,0.1-0.1,0.2,0,0.3c0,0,0,0.1,0.1,0.1c0,0,0.1,0.1,0.1,0.1s0,0,0,0.1c0,0,0,0.1,0,0.1s0,0.1,0.1,0.2c0,0.1,0,0.1,0.1,0.3
		c0,0.1,0,0.2,0.1,0.3c0.1,0.1,0.1,0.1,0.1,0.2c0.2,0.4,0.4,0.7,0.5,0.8c0,0,0,0,0,0.1s0,0,0,0.1c0,0,0.1,0.1,0.2,0.1
		c0,0.1,0,0.1,0.1,0.2c0.1,0,0.1,0.1,0.1,0.1l0,0.1c0,0,0.1,0,0.1,0s0.1,0,0.1,0c0,0,0.1,0.1,0.1,0.1c0,0.1,0.1,0.1,0.1,0.1
		c0.1,0,0.2,0,0.3,0c0.1,0,0.1,0,0.1,0.1c0,0.1,0,0.1,0.1,0.1c0,0,0.1,0,0.1,0c0.1,0,0.1,0,0.1,0c0,0,0.1,0,0.2,0
		c0.1,0,0.1,0,0.2,0.1c0.1,0.1,0.2,0.1,0.2,0.1c0,0,0.1,0,0.1,0c0,0,0.1,0,0.1,0c0,0,0.1,0,0.1,0c0.1,0,0.1,0,0.1,0
		c0.1,0.1,0.2,0.2,0.3,0.2c0,0,0.1,0,0.1,0c0.1,0,0.1,0,0.1,0c0.4,0,0.6,0,0.6-0.1c0.2,0,0.4,0.1,0.4,0.1c0,0,0.1,0,0.1-0.1
		c0,0,0-0.1,0-0.1c0.2,0.1,0.4,0.1,0.5,0c0.2,0,0.4,0,0.5-0.2c0.2,0,0.3,0,0.3-0.1c0.1,0.1,0.2,0,0.3,0c0,0,0,0,0.1,0s0.1,0,0.1,0
		c0.1,0,0.1,0,0.2-0.1c0.1,0,0.1,0,0.2-0.1c0.1-0.1,0.1-0.1,0.2-0.1c0,0,0.1-0.1,0.3-0.1c0.1-0.1,0.2-0.1,0.3-0.2
		c0.1,0,0.2-0.1,0.2-0.2c0.1,0,0.1,0,0.2-0.1c0.1,0,0.2,0,0.3-0.1c0.1-0.1,0.1-0.1,0.2-0.1c0,0,0,0,0-0.1v0c0,0,0.1,0,0.1,0
		c0,0,0.1,0,0.1,0c0-0.1,0.1-0.1,0.1-0.2c0-0.1,0.1-0.1,0.1-0.2c0.2-0.2,0.4-0.4,0.4-0.5c0.1,0,0.1,0,0.2,0c0-0.1,0.1-0.1,0.1-0.1
		c0.1,0,0.1,0,0.2,0c0.1-0.1,0.1-0.1,0.3-0.1s0.2,0,0.2,0.1c0,0,0.1,0,0.1,0c0.1,0,0.2,0.1,0.3,0.2c0.1,0,0.1,0,0.2,0
		c0.1,0,0.1,0.1,0.1,0.2c0,0.1,0.1,0.2,0.2,0.2c0,0.1,0,0.1,0,0.1c0,0,0.1,0.1,0.1,0.1c0.1,0,0.1,0.1,0.1,0.1c0,0.1,0,0.2,0.1,0.4
		c0.1,0.1,0.1,0.2,0.1,0.3c-0.1,0.1-0.1,0.2-0.1,0.2c0,0,0,0.1,0,0.1c0,0-0.1,0-0.1,0c0,0.1,0,0.2,0,0.2c-0.1,0-0.2,0.1-0.3,0.2
		c-0.1,0.1-0.2,0.2-0.2,0.3c-0.2,0.1-0.3,0.1-0.3,0.2c-0.1,0-0.3,0.1-0.4,0.3c-0.1,0-0.1,0-0.2,0.1c-0.1,0.1-0.1,0.1-0.2,0.1
		c0,0-0.1,0.1-0.2,0.1c-0.1,0.1-0.2,0.1-0.2,0.2c-0.2,0.1-0.4,0.2-0.5,0.4L19.6,60c-0.1,0.1-0.2,0.2-0.2,0.3c-0.2,0-0.4,0.1-0.5,0.2
		c-0.1,0-0.2,0-0.3,0.2c0,0-0.1,0-0.1,0c0,0-0.1,0-0.1,0c0,0-0.1,0-0.2,0.1c0,0-0.1,0-0.1,0c0,0-0.1,0-0.1,0c-0.1,0-0.1,0.1-0.3,0.1
		c-0.1,0-0.2,0-0.2,0s0,0-0.1,0.1c0,0-0.1,0-0.1,0c0,0-0.1,0.1-0.2,0.2c-0.1,0-0.1,0-0.2-0.1c-0.2,0-0.3,0-0.4,0.2
		c-0.1,0.1-0.1,0.1-0.2,0l-0.1,0c-0.2-0.1-0.4-0.1-0.7,0c-0.2,0.1-0.4,0.1-0.4,0.1c0,0-0.1,0-0.1,0c-0.1,0-0.1,0-0.1,0
		c0,0,0,0.1,0,0.1c0,0,0,0.1,0,0.1h-0.2l-0.3-0.2c0,0-0.1,0-0.1,0c-0.1,0-0.1,0-0.1,0s-0.1,0-0.1,0c0,0-0.1,0-0.1,0c0,0-0.1,0-0.1,0
		c-0.1,0-0.1,0-0.1,0c0,0-0.1,0-0.1-0.1c0,0-0.1,0-0.1,0s-0.1,0-0.1,0c-0.1,0-0.1,0-0.1,0s-0.1,0-0.1-0.1c-0.1,0-0.1-0.1-0.1-0.1
		c0,0-0.1,0-0.1,0c0,0-0.1,0-0.1,0l0-0.1c0,0-0.1-0.1-0.3-0.1c0,0-0.1,0-0.1,0c0,0-0.1,0-0.1,0c0,0,0-0.1,0-0.2c0,0-0.1,0-0.1,0
		c-0.1,0-0.1,0-0.1,0c-0.1-0.2-0.2-0.2-0.3,0c-0.1,0-0.1-0.1-0.1-0.2c0,0-0.1,0-0.2-0.1c-0.1-0.1-0.2-0.1-0.3-0.1
		c-0.1,0-0.1,0-0.2,0c0-0.1,0-0.1,0-0.1h-0.2c0-0.1,0-0.1,0-0.1s0,0-0.1,0c-0.1,0-0.1,0-0.1,0c-0.1,0-0.1,0-0.1-0.1s0-0.1,0-0.2
		c-0.1,0-0.2,0-0.2,0c-0.1-0.1-0.1-0.1-0.2-0.1c0-0.1,0-0.2-0.1-0.3c-0.1-0.1-0.2-0.1-0.3-0.2c-0.1-0.3-0.2-0.4-0.5-0.4
		c0-0.1,0-0.2-0.2-0.3c-0.1-0.1-0.2-0.2-0.2-0.3c-0.2-0.2-0.3-0.4-0.3-0.4c0.1-0.1,0-0.2-0.1-0.3c-0.1-0.1-0.2-0.2-0.2-0.3
		c0,0,0,0-0.1,0c0,0,0,0-0.1,0c0-0.2-0.1-0.3-0.1-0.3c0.1-0.1,0-0.2-0.1-0.3c0.1-0.2,0-0.4-0.1-0.5c0,0-0.1,0-0.2,0
		c-0.1-0.2-0.1-0.4,0-0.5c-0.1-0.2-0.2-0.3-0.2-0.4c0,0,0-0.1,0-0.2c0-0.1,0-0.2,0-0.2c-0.1-0.2-0.1-0.3-0.1-0.4c0,0,0-0.1-0.1-0.1
		c0,0-0.1-0.1-0.1-0.1c0-0.2,0-0.3,0-0.3c-0.1-0.2-0.1-0.3,0-0.4c-0.1,0-0.1,0-0.1,0c0,0,0-0.1,0-0.1c0,0,0-0.1,0-0.1s0-0.1,0-0.1
		c0,0,0,0,0-0.1s0,0,0-0.1c0,0,0-0.1,0-0.1s0-0.1,0-0.2c0-0.1,0-0.2,0-0.2C7,52.5,7,52.4,6.8,52.3c0,0,0,0,0-0.1c0,0,0,0,0,0
		c0,0,0,0,0,0c0,0,0,0,0-0.1s0-0.1,0-0.1c0,0,0-0.1,0-0.1c0,0,0-0.1,0-0.1c0,0,0-0.1,0-0.1s0-0.1,0.1-0.3c-0.1,0-0.1-0.3,0-0.7
		C7,50.3,7.1,50,7.1,50s0-0.1,0-0.1c-0.2-0.1-0.2-0.2,0-0.4c0-0.1,0-0.1,0-0.1s0,0,0.1-0.1c0,0,0.1,0,0.1-0.1c0,0,0-0.1-0.1-0.1
		c0,0,0,0,0.1-0.1c0,0,0.1,0,0.1-0.1c0,0,0-0.1-0.1-0.1c0,0,0-0.1,0-0.2c0-0.1,0-0.2,0-0.2c0,0,0.1-0.1,0.1-0.1c0-0.1,0-0.2,0-0.3
		c0-0.2,0-0.3,0-0.4c0.1-0.1,0.1-0.2,0.1-0.3c0-0.2,0.1-0.3,0.1-0.3c0-0.1,0-0.1,0.1-0.2c-0.1,0-0.1-0.1,0-0.2c0-0.1,0-0.2,0-0.2
		c0.1,0,0.1-0.1,0.1-0.2c0-0.1,0.1-0.2,0.1-0.2c0-0.1,0-0.2,0.1-0.4C8,45.5,8,45.4,8,45.3c0-0.1,0.1-0.1,0.1-0.2
		c0-0.2,0.1-0.4,0.3-0.5c0-0.1,0-0.2,0.1-0.2c0.1-0.1,0.1-0.2,0.1-0.2c0-0.1,0.1-0.1,0.1-0.2v-0.1C9,43.7,9,43.6,9,43.5
		c0,0,0.1-0.1,0.2-0.1c0,0,0.1-0.1,0.1-0.1c0-0.1,0.1-0.1,0.1-0.2c0.1,0,0.2-0.1,0.3-0.3c0.2-0.1,0.3-0.2,0.3-0.4
		c0.2-0.1,0.3-0.2,0.3-0.5c0,0,0.1,0,0.1,0.1c0.1-0.1,0.2-0.2,0.3-0.3c0.1,0,0.3-0.2,0.6-0.6c0.1,0,0.1,0,0.2-0.1c0,0,0,0,0.1,0
		c0,0,0,0,0.1,0c0,0,0.1-0.1,0.1-0.1c0.1,0,0.1-0.1,0.1-0.1c0.1,0,0.1,0,0.2-0.1c0.2,0,0.4,0,0.4-0.1c0.1,0,0.2,0,0.3-0.1
		c0.1-0.1,0.1-0.1,0.2-0.1c0,0,0.1,0,0.1,0c0.1,0,0.1,0,0.1,0c0,0,0.1,0,0.1,0c0,0,0.1,0,0.1,0s0.1,0,0.1,0.1c0.1,0,0.1,0,0.2,0
		c0,0,0.1,0,0.1,0c0,0,0.1,0,0.1,0c0,0,0.1,0,0.1,0c0,0,0.1,0.1,0.1,0.1c0.1,0,0.3,0,0.4,0c0.1,0.1,0.3,0.1,0.3,0.1
		c0.1,0.1,0.2,0.2,0.3,0.2c0.1,0.1,0.1,0.1,0.2,0.1h0.2C15.4,40.8,15.4,40.8,15.4,40.8z M7.3,47.5C7.3,47.5,7.3,47.5,7.3,47.5
		C7.3,47.5,7.3,47.5,7.3,47.5C7.3,47.5,7.3,47.5,7.3,47.5z M7.3,47.5C7.3,47.5,7.3,47.5,7.3,47.5C7.3,47.5,7.3,47.5,7.3,47.5
		C7.3,47.5,7.3,47.5,7.3,47.5z"/>
	<path fill="#D93427" d="M25.5,42.6c0,0.1,0.1,0.1,0.2,0.1c0.1,0,0.1,0,0.2,0c0,0,0,0.1,0,0.1s0,0.1,0,0.1c0.1,0,0.1,0,0.3,0
		c0.1,0.1,0.2,0,0.2-0.1c0.1,0,0.1,0.1,0.1,0.3c0,0,0.1,0,0.2,0c0,0.1,0,0.1,0.1,0.2c0.1,0.1,0.1,0.1,0.1,0.1l0.1,0c0,0,0,0.1,0,0.1
		c0,0.1,0,0.1,0,0.1c0,0.1,0.1,0.1,0.2,0.2c0,0.2,0,0.3,0,0.3c0,0.1,0.1,0.1,0.3,0.1c0,0.1,0,0.2,0,0.4c-0.1,0-0.2,0-0.2,0.1
		c0,0.1,0.1,0.2,0.2,0.1l0,0.4c-0.1,0-0.1,0.1-0.1,0.3c0,0.2,0.1,0.2,0.2,0.2c0,0,0,0.1,0,0.1c-0.1,0-0.1,0.1-0.1,0.2s0,0.2,0.1,0.2
		c0,0,0,0.1-0.1,0.2c0,0.1,0,0.2,0,0.2l0,0.1c0.1,0.2,0.1,0.3,0.2,0.3c-0.1,0.1-0.1,0.2,0,0.3c0,0.1,0,0.2,0,0.3c0,0,0,0.1,0.1,0.1
		C28,48,28,48,28,48c0,0.1,0,0.1,0,0.1c-0.1,0-0.1,0-0.1,0.1c0,0.1,0,0.1,0.1,0.1c0,0.1,0,0.2,0,0.3c0,0.1,0,0.2,0,0.3
		c0.1,0.1,0.1,0.1,0.1,0.1c0,0,0,0,0,0.1c0,0,0,0.1,0.1,0.1c0,0,0,0,0,0c0,0,0.1,0,0.1,0c0,0.1,0,0.1,0,0.1c0,0-0.1,0.1-0.1,0.1
		l0.1,0.5c0,0,0.1,0,0.2,0c0,0,0,0.1,0,0.1c0,0,0,0-0.1,0c0,0.1,0,0.1,0,0.2c0,0.1,0,0.1,0,0.2c0.1,0.1,0.1,0.2,0.1,0.2
		c0,0,0,0-0.1,0c0,0.1,0,0.2,0,0.4c0,0.2,0,0.4,0,0.4c0,0.2,0,0.3,0.1,0.3v0.4c0,0,0,0.1,0.1,0.2c0,0.1,0.1,0.1,0.1,0.2
		c0,0,0,0.1,0,0.2c0,0.1,0,0.2,0,0.2c0,0,0.1,0,0.1,0.1c0,0,0.1,0,0.1,0.1c0,0,0,0.1,0,0.1c0,0-0.1,0.1-0.1,0.1
		c0.1,0,0.1,0.1,0.1,0.1c0,0.1,0,0.2-0.1,0.2c-0.1,0.1-0.1,0.1-0.1,0.2c0,0.1,0,0.2,0.1,0.2c0.1,0.1,0.1,0.1,0.1,0.2
		c0.1,0,0.1,0,0.1,0c0,0.2,0,0.4,0,0.6c-0.1,0-0.2,0-0.2,0.1c0,0.1,0.1,0.1,0.2,0.1v0.4c-0.1,0-0.1,0.1-0.1,0.2
		c0,0.1,0.1,0.2,0.2,0.2c0,0.2,0,0.4,0,0.4c-0.1,0-0.2,0.1-0.2,0.1c0,0.1,0,0.1,0.1,0.2c0,0.1,0.1,0.1,0.1,0c0,0.1,0,0.2,0,0.3
		c0,0.1,0,0.1,0,0.1C29,57.1,29,57.2,29,57.4c0,0,0.1,0.1,0.1,0.1c0,0,0.1,0.1,0.1,0.1c0,0.1,0,0.2,0,0.3c0,0.1,0,0.2,0,0.3
		c-0.1,0.1-0.1,0.1-0.1,0.1c0,0.1,0,0.1,0.1,0.2c0.1,0,0.1,0,0.2,0c0.1,0,0.1,0.1,0.2,0c0,0,0,0,0.1-0.1c0,0,0-0.1,0.1-0.1
		c0.2,0,0.4,0,0.4-0.1c0,0,0,0,0.1,0.1c0,0,0,0.1,0.1,0.1c0.1,0,0.1,0,0.2-0.1c0.1-0.1,0.2-0.1,0.2-0.1c0.1,0.1,0.1,0.1,0.2,0.1
		c0,0,0,0,0-0.1c0,0,0-0.1,0-0.1c0.1,0,0.1,0,0.2-0.1c0,0.1,0.1,0.1,0.2,0.1c0.2-0.1,0.3-0.1,0.3,0c0,0,0-0.1,0-0.1c0,0,0-0.1,0-0.1
		c0,0,0.1,0,0.1,0c0,0,0,0.1,0,0.1c0.1-0.1,0.2-0.2,0.6-0.1c0.1,0.1,0.1,0.1,0.2,0.1s0.1,0,0.1,0c0,0,0.1,0,0.1-0.1c0,0,0.1,0,0.1,0
		s0.1,0,0.1,0c0,0,0,0,0-0.1s0-0.1,0-0.1l0.6,0c0,0,0.2,0,0.5,0c0.1,0,0.1,0,0.2,0c0.1,0,0.1,0,0.1,0c0,0,0,0,0.1,0c0,0,0.1,0,0.1,0
		c0,0,0,0,0.1,0c0,0,0.1,0,0.1,0s0.1,0,0.1,0c0.1,0,0.1,0,0.2,0c0,0,0-0.1,0.1-0.1c0,0,0.1,0,0.1,0c0.3,0,0.4,0,0.5,0.1
		c0.1,0,0.1,0,0.2,0c0.1,0,0.1,0,0.2,0c0.1,0,0.3,0,0.5,0c0.3,0,0.4,0,0.4,0l0.1,0.2c0.1,0,0.1-0.1,0.1-0.2c0.1-0.1,0.2,0,0.3,0
		c0.1-0.1,0.2-0.1,0.3,0c0,0.1,0,0.1,0,0.1c0.1,0,0.1,0,0.2-0.1c0,0.1,0.1,0.1,0.3,0.3c0.1,0,0.1,0,0.2,0c0.1,0,0.1,0,0.2,0
		c0,0.1,0,0.1,0,0.2c0.1,0.1,0.2,0.2,0.2,0.2c0,0,0.1,0,0.1,0c0,0,0.1,0,0.1,0c0,0.1,0,0.1,0,0.2c0,0.1,0,0.1,0,0.1
		c0,0,0,0.1,0.1,0.1c0.1,0.1,0.1,0.1,0.1,0.2c0.1,0.1,0.1,0.1,0.1,0.1c0,0.1,0,0.2,0.1,0.3h0.1c0,0,0,0.1-0.1,0.2c0,0.1,0,0.2,0,0.3
		c-0.1,0-0.1,0.1-0.2,0.2S39,60.4,39,60.5c0,0.1,0,0.2,0,0.2c0,0-0.1,0-0.1,0h0c-0.1,0-0.1,0.1-0.2,0.2c-0.1,0.1-0.2,0.2-0.2,0.2h0
		c0,0,0,0,0,0c0,0.1,0,0.1,0,0.2h-0.7c0,0,0,0-0.1-0.1c0,0,0-0.1-0.1-0.1s-0.1,0-0.1,0.1c0,0-0.1,0.1-0.2,0.1c0-0.2-0.1-0.2-0.1-0.2
		s0,0-0.1,0c0,0,0,0-0.1,0c-0.1,0-0.1,0-0.2,0c0-0.1,0-0.1-0.1-0.2c-0.1,0-0.1,0-0.1,0.1c-0.1-0.1-0.1-0.2-0.2-0.2
		c0,0-0.1,0.1-0.1,0.2c-0.1-0.1-0.1-0.2-0.2-0.2c0,0-0.1,0-0.1,0c-0.1,0-0.1,0-0.2,0c0,0-0.1,0-0.1,0c0,0-0.1,0-0.1,0
		c0,0-0.1,0-0.1,0.1c-0.1,0-0.3,0-0.4-0.1c0,0,0,0-0.1,0.1c-0.1,0-0.1,0-0.1,0c0-0.1,0-0.2-0.1-0.2c-0.1,0-0.1,0.1-0.1,0.2
		c0,0-0.1,0-0.2-0.1c0,0.1-0.1,0.1-0.4,0.1s-0.4,0-0.5,0c0,0-0.2-0.1-0.6-0.1c0,0.1-0.1,0.1-0.1,0.1c-0.1,0-0.1,0-0.1-0.1
		c-0.2,0-0.3,0.1-0.3,0.2c-0.1,0-0.2,0-0.3,0c-0.1,0-0.1,0-0.2,0c-0.1-0.1-0.1-0.1-0.2-0.1c-0.1,0-0.1,0.1-0.1,0.2c0,0-0.1,0-0.4,0
		s-0.4,0-0.4,0c0,0,0,0,0,0c0,0,0,0-0.1,0c0,0,0,0-0.1,0c-0.1,0.1-0.3,0.1-0.8,0.1c-0.1,0-0.2,0.1-0.2,0.2l-0.3,0
		c-0.1,0-0.1,0-0.1,0c0,0-0.1,0-0.1,0l-0.1,0.2c-0.3,0-0.5,0-0.5,0c0,0,0,0.1-0.1,0.2c0,0-0.1,0-0.1,0c0,0-0.1,0-0.1,0
		c0-0.1-0.1-0.1-0.2-0.1c-0.1,0-0.2,0-0.3,0c0,0,0,0.1,0,0.1c0,0,0,0.1,0,0.1c-0.1,0-0.1,0-0.1-0.1c0,0-0.1-0.1-0.1-0.1
		C27.3,62,27.2,62,27.1,62c0,0,0,0,0-0.1c0,0,0.1,0,0.1-0.1h-0.2c0-0.1,0-0.1,0-0.1c0,0-0.1,0-0.1-0.1c0-0.1-0.1-0.1-0.1-0.2l0-0.2
		c-0.1,0-0.2,0-0.3-0.1c-0.1-0.1-0.1-0.1-0.2-0.1c0.1-0.1,0-0.2-0.2-0.3c0-0.1,0-0.1,0-0.2c0,0,0,0-0.1,0c0-0.2,0-0.3,0.1-0.3
		c0,0,0,0,0-0.1c0,0-0.1,0-0.1-0.1c0,0,0,0,0.1-0.1c0.1,0,0.1,0,0.1-0.1c0-0.1-0.1-0.1-0.2-0.1v-0.1c0.1,0,0.1,0,0.1,0s0,0,0-0.1
		c0,0,0-0.1,0-0.1c0,0,0.1,0,0.2,0c0-0.1,0-0.2,0-0.5s0-0.4,0-0.5c0.1,0,0.1-0.1,0.1-0.1s0-0.1-0.1-0.1c0-0.5,0-1,0-1.5
		c0-0.2,0-0.4,0-0.5c0.1-0.2,0.1-0.3-0.1-0.4l0-0.4c0,0,0-0.2,0-0.4c0-0.5-0.1-0.7-0.1-0.8c0.1-0.1,0.1-0.2,0-0.3c0-0.1,0-0.2,0-0.3
		c0-0.1,0-0.2,0-0.3c0-0.1-0.1-0.2-0.2-0.2c0,0,0-0.1,0-0.1c0-0.1,0-0.1,0-0.1c0,0,0.1-0.1,0.1-0.1c0,0,0-0.1,0-0.1
		c0-0.1,0-0.1,0-0.1c-0.1-0.1-0.1-0.1-0.2-0.1c0,0,0-0.1,0-0.1s0,0,0.1,0c0.1,0,0.1,0,0.1,0c0,0-0.1-0.1-0.2-0.1
		c0-0.1,0-0.2,0.1-0.2c0-0.3-0.1-0.4-0.1-0.4c-0.1,0-0.1,0-0.1,0c0-0.1,0-0.1,0-0.1c0.1,0,0.2,0,0.2-0.1c0,0,0-0.1-0.1-0.1
		c0,0-0.1,0-0.1,0c0-0.1,0-0.1,0-0.2h0.1c0,0,0.1,0,0.1-0.1c0,0,0,0,0-0.1c0,0,0,0,0-0.1c0-0.1,0-0.1,0-0.3c0-0.1,0-0.2,0-0.3
		c0,0,0-0.1-0.1-0.1c0,0-0.1-0.1-0.1-0.1c0-0.1,0-0.2,0-0.3c0,0,0-0.1,0-0.2c0-0.1,0-0.1,0-0.2c0,0,0,0-0.1-0.1c0,0-0.1,0-0.1-0.1
		l0.1-0.2c0-0.1,0-0.2-0.1-0.4c0-0.2,0-0.3-0.1-0.4c0,0,0-0.1-0.1-0.2c0-0.1,0-0.2-0.1-0.2c0,0,0,0-0.1,0c0,0,0,0-0.1,0
		c-0.1-0.1,0-0.2,0.1-0.3c0,0,0-0.1,0-0.1c0-0.1,0-0.1,0-0.1c0,0-0.1,0-0.2-0.1c0,0,0-0.1,0.1-0.1v-0.4c-0.1,0-0.1-0.1-0.1-0.1
		c0,0,0-0.1,0-0.2c0-0.2,0-0.3-0.1-0.3c0,0,0-0.1,0-0.1c0-0.1,0-0.1,0-0.3c0-0.1,0-0.2,0-0.2c0,0,0,0-0.1-0.1c0,0-0.1,0-0.1-0.1
		c0.1-0.1,0.1-0.1,0-0.2c0-0.1-0.1-0.1-0.2-0.2c0-0.2,0-0.3,0.1-0.4c0-0.1,0-0.2-0.1-0.3c-0.1-0.1-0.1-0.2-0.1-0.3
		c-0.1-0.1-0.1-0.1-0.1-0.2c0,0,0,0,0.1,0c0,0,0.1,0,0.1,0s0,0,0-0.1c0-0.1,0-0.1,0-0.1c0.2,0,0.3-0.2,0.3-0.4
		c0.4-0.1,0.5-0.2,0.6-0.4C25.3,42.6,25.4,42.6,25.5,42.6z M25.2,42.6c0.1,0,0.2,0,0.3,0c0,0.1,0.1,0.1,0.2,0.1c0.1,0,0.1,0,0.2,0
		c0,0,0,0.1,0,0.1s0,0.1,0,0.1c0.1,0,0.1,0,0.3,0c0.1,0.1,0.2,0,0.2-0.1c0.1,0,0.1,0.1,0.1,0.3c0,0,0.1,0,0.2,0c0,0.1,0,0.1,0.1,0.2
		c0.1,0.1,0.1,0.1,0.1,0.1l0.1,0c0,0,0,0.1,0,0.1c0,0.1,0,0.1,0,0.1c0,0.1,0.1,0.1,0.2,0.2c0,0.2,0,0.3,0,0.3c0,0.1,0.1,0.1,0.3,0.1
		c0,0.1,0,0.2,0,0.4c-0.1,0-0.2,0-0.2,0.1c0,0.1,0.1,0.2,0.2,0.1l0,0.4c-0.1,0-0.1,0.1-0.1,0.3c0,0.2,0.1,0.2,0.2,0.2
		c0,0,0,0.1,0,0.1c-0.1,0-0.1,0.1-0.1,0.2s0,0.2,0.1,0.2c0,0,0,0.1-0.1,0.2c0,0.1,0,0.2,0,0.2l0,0.1c0.1,0.2,0.1,0.3,0.2,0.3
		c-0.1,0.1-0.1,0.2,0,0.3c0,0.1,0,0.2,0,0.3c0,0,0,0.1,0.1,0.1C28,48,28,48,28,48c0,0.1,0,0.1,0,0.1c-0.1,0-0.1,0-0.1,0.1
		c0,0.1,0,0.1,0.1,0.1c0,0.1,0,0.2,0,0.3c0,0.1,0,0.2,0,0.3c0.1,0.1,0.1,0.1,0.1,0.1c0,0,0,0,0,0.1c0,0,0,0.1,0.1,0.1c0,0,0,0,0,0
		c0,0,0.1,0,0.1,0c0,0.1,0,0.1,0,0.1c0,0-0.1,0.1-0.1,0.1l0.1,0.5c0,0,0.1,0,0.2,0c0,0,0,0.1,0,0.1c0,0,0,0-0.1,0c0,0.1,0,0.1,0,0.2
		c0,0.1,0,0.1,0,0.2c0.1,0.1,0.1,0.2,0.1,0.2c0,0,0,0-0.1,0c0,0.1,0,0.2,0,0.4c0,0.2,0,0.4,0,0.4c0,0.2,0,0.3,0.1,0.3v0.4
		c0,0,0,0.1,0.1,0.2c0,0.1,0.1,0.1,0.1,0.2c0,0,0,0.1,0,0.2c0,0.1,0,0.2,0,0.2c0,0,0.1,0,0.1,0.1c0,0,0.1,0,0.1,0.1c0,0,0,0.1,0,0.1
		c0,0-0.1,0.1-0.1,0.1c0.1,0,0.1,0.1,0.1,0.1c0,0.1,0,0.2-0.1,0.2c-0.1,0.1-0.1,0.1-0.1,0.2c0,0.1,0,0.2,0.1,0.2
		c0.1,0.1,0.1,0.1,0.1,0.2c0.1,0,0.1,0,0.1,0c0,0.2,0,0.4,0,0.6c-0.1,0-0.2,0-0.2,0.1c0,0.1,0.1,0.1,0.2,0.1v0.4
		c-0.1,0-0.1,0.1-0.1,0.2c0,0.1,0.1,0.2,0.2,0.2c0,0.2,0,0.4,0,0.4c-0.1,0-0.2,0.1-0.2,0.1c0,0.1,0,0.1,0.1,0.2c0,0.1,0.1,0.1,0.1,0
		c0,0.1,0,0.2,0,0.3c0,0.1,0,0.1,0,0.1C29,57.1,29,57.2,29,57.4c0,0,0.1,0.1,0.1,0.1c0,0,0.1,0.1,0.1,0.1c0,0.1,0,0.2,0,0.3
		c0,0.1,0,0.2,0,0.3c-0.1,0.1-0.1,0.1-0.1,0.1c0,0.1,0,0.1,0.1,0.2c0.1,0,0.1,0,0.2,0c0.1,0,0.1,0.1,0.2,0c0,0,0,0,0.1-0.1
		c0,0,0-0.1,0.1-0.1c0.2,0,0.4,0,0.4-0.1c0,0,0,0,0.1,0.1c0,0,0,0.1,0.1,0.1c0.1,0,0.1,0,0.2-0.1c0.1-0.1,0.2-0.1,0.2-0.1
		c0.1,0.1,0.1,0.1,0.2,0.1c0,0,0,0,0-0.1c0,0,0-0.1,0-0.1c0.1,0,0.1,0,0.2-0.1c0,0.1,0.1,0.1,0.2,0.1c0.2-0.1,0.3-0.1,0.3,0
		c0,0,0-0.1,0-0.1c0,0,0-0.1,0-0.1c0,0,0.1,0,0.1,0c0,0,0,0.1,0,0.1c0.1-0.1,0.2-0.2,0.6-0.1c0.1,0.1,0.1,0.1,0.2,0.1s0.1,0,0.1,0
		c0,0,0.1,0,0.1-0.1c0,0,0.1,0,0.1,0s0.1,0,0.1,0c0,0,0,0,0-0.1s0-0.1,0-0.1l0.6,0c0,0,0.2,0,0.5,0c0.1,0,0.1,0,0.2,0
		c0.1,0,0.1,0,0.1,0c0,0,0,0,0.1,0c0,0,0.1,0,0.1,0c0,0,0,0,0.1,0c0,0,0.1,0,0.1,0s0.1,0,0.1,0c0.1,0,0.1,0,0.2,0c0,0,0-0.1,0.1-0.1
		c0,0,0.1,0,0.1,0c0.3,0,0.4,0,0.5,0.1c0.1,0,0.1,0,0.2,0c0.1,0,0.1,0,0.2,0c0.1,0,0.3,0,0.5,0c0.3,0,0.4,0,0.4,0l0.1,0.2
		c0.1,0,0.1-0.1,0.1-0.2c0.1-0.1,0.2,0,0.3,0c0.1-0.1,0.2-0.1,0.3,0c0,0.1,0,0.1,0,0.1c0.1,0,0.1,0,0.2-0.1c0,0.1,0.1,0.1,0.3,0.3
		c0.1,0,0.1,0,0.2,0c0.1,0,0.1,0,0.2,0c0,0.1,0,0.1,0,0.2c0.1,0.1,0.2,0.2,0.2,0.2c0,0,0.1,0,0.1,0c0,0,0.1,0,0.1,0
		c0,0.1,0,0.1,0,0.2c0,0.1,0,0.1,0,0.1c0,0,0.1,0.1,0.1,0.1c0,0.1,0.1,0.1,0.1,0.2c0.1,0.1,0.1,0.1,0.1,0.1c0,0.1,0,0.2,0.1,0.3h0.1
		c0,0,0,0.1-0.1,0.2c0,0.1,0,0.2,0,0.3c-0.1,0-0.1,0.1-0.2,0.2S39,60.4,39,60.5c0,0.1,0,0.2,0,0.2c0,0-0.1,0-0.1,0h0
		c-0.1,0-0.1,0.1-0.2,0.2c-0.1,0.1-0.2,0.2-0.2,0.2h0c0,0,0,0,0,0c0,0.1,0,0.1,0,0.2h-0.7c0,0,0,0-0.1-0.1c0,0,0-0.1-0.1-0.1
		s-0.1,0-0.1,0.1c0,0-0.1,0.1-0.2,0.1c0-0.2-0.1-0.2-0.1-0.2s0,0-0.1,0c0,0,0,0-0.1,0c-0.1,0-0.1,0-0.2,0c0-0.1,0-0.1-0.1-0.2
		c-0.1,0-0.1,0-0.1,0.1c-0.1-0.1-0.1-0.2-0.2-0.2c0,0-0.1,0.1-0.1,0.2c-0.1-0.1-0.1-0.2-0.2-0.2c0,0-0.1,0-0.1,0c-0.1,0-0.1,0-0.2,0
		c0,0-0.1,0-0.1,0c0,0-0.1,0-0.1,0c0,0-0.1,0-0.1,0.1c-0.1,0-0.3,0-0.4-0.1c0,0,0,0-0.1,0.1c-0.1,0-0.1,0-0.1,0c0-0.1,0-0.2-0.1-0.2
		c-0.1,0-0.1,0.1-0.1,0.2c0,0-0.1,0-0.2-0.1c0,0.1-0.1,0.1-0.4,0.1s-0.4,0-0.5,0c0,0-0.2-0.1-0.6-0.1c0,0.1-0.1,0.1-0.1,0.1
		c-0.1,0-0.1,0-0.1-0.1c-0.2,0-0.3,0.1-0.3,0.2c-0.1,0-0.2,0-0.3,0c-0.1,0-0.1,0-0.2,0c-0.1-0.1-0.1-0.1-0.2-0.1
		c-0.1,0-0.1,0.1-0.1,0.2c0,0-0.1,0-0.4,0s-0.4,0-0.4,0c0,0,0,0,0,0c0,0,0,0-0.1,0c0,0,0,0-0.1,0c-0.1,0.1-0.3,0.1-0.8,0.1
		c-0.1,0-0.2,0.1-0.2,0.2l-0.3,0c-0.1,0-0.1,0-0.1,0c0,0-0.1,0-0.1,0l-0.1,0.2c-0.3,0-0.5,0-0.5,0c0,0,0,0.1-0.1,0.2
		c0,0-0.1,0-0.1,0c0,0-0.1,0-0.1,0c0-0.1-0.1-0.1-0.2-0.1c-0.1,0-0.2,0-0.3,0c0,0,0,0.1,0,0.1c0,0,0,0.1,0,0.1c-0.1,0-0.1,0-0.1-0.1
		c0,0-0.1-0.1-0.1-0.1C27.3,62,27.2,62,27.1,62c0,0,0,0,0-0.1c0,0,0.1,0,0.1-0.1h-0.2c0-0.1,0-0.1,0-0.1c0,0-0.1,0-0.1-0.1
		c0-0.1-0.1-0.1-0.1-0.2l0-0.2c-0.1,0-0.2,0-0.3-0.1c-0.1-0.1-0.1-0.1-0.2-0.1c0.1-0.1,0-0.2-0.2-0.3c0-0.1,0-0.1,0-0.2
		c0,0,0,0-0.1,0c0-0.2,0-0.3,0.1-0.3c0,0,0,0,0-0.1c0,0-0.1,0-0.1-0.1c0,0,0,0,0.1-0.1c0.1,0,0.1,0,0.1-0.1c0-0.1-0.1-0.1-0.2-0.1
		v-0.1c0.1,0,0.1,0,0.1,0s0,0,0-0.1c0,0,0-0.1,0-0.1c0,0,0.1,0,0.2,0c0-0.1,0-0.2,0-0.5s0-0.4,0-0.5c0.1,0,0.1-0.1,0.1-0.1
		s0-0.1-0.1-0.1c0-0.5,0-1,0-1.5c0-0.2,0-0.4,0-0.5c0.1-0.2,0.1-0.3-0.1-0.4l0-0.4c0,0,0-0.2,0-0.4c0-0.5-0.1-0.7-0.1-0.8
		c0.1-0.1,0.1-0.2,0-0.3c0-0.1,0-0.2,0-0.3c0-0.1,0-0.2,0-0.3c0-0.1-0.1-0.2-0.2-0.2c0,0,0-0.1,0-0.1c0-0.1,0-0.1,0-0.1
		c0,0,0.1-0.1,0.1-0.1c0,0,0-0.1,0-0.1c0-0.1,0-0.1,0-0.1c-0.1-0.1-0.1-0.1-0.2-0.1c0,0,0-0.1,0-0.1s0,0,0.1,0c0.1,0,0.1,0,0.1,0
		c0,0-0.1-0.1-0.2-0.1c0-0.1,0-0.2,0.1-0.2c0-0.3-0.1-0.4-0.1-0.4c-0.1,0-0.1,0-0.1,0v-0.1c0.1,0,0.2,0,0.2-0.1c0,0,0-0.1-0.1-0.1
		c0,0-0.1,0-0.1,0c0-0.1,0-0.1,0-0.2h0.1c0,0,0.1,0,0.1-0.1c0,0,0,0,0-0.1c0,0,0,0,0-0.1c0-0.1,0-0.1,0-0.3c0-0.1,0-0.2,0-0.3
		c0,0,0-0.1-0.1-0.1c0,0-0.1-0.1-0.1-0.1c0-0.1,0-0.2,0-0.3c0,0,0-0.1,0-0.2c0-0.1,0-0.1,0-0.2c0,0,0,0-0.1-0.1c0,0-0.1,0-0.1-0.1
		l0.1-0.2c0-0.1,0-0.2-0.1-0.4c0-0.2,0-0.3-0.1-0.4c0,0,0-0.1-0.1-0.2c0-0.1,0-0.2-0.1-0.2c0,0,0,0-0.1,0c0,0,0,0-0.1,0
		c-0.1-0.1,0-0.2,0.1-0.3c0,0,0-0.1,0-0.1c0-0.1,0-0.1,0-0.1c0,0-0.1,0-0.2-0.1c0,0,0-0.1,0.1-0.1v-0.4c-0.1,0-0.1-0.1-0.1-0.1
		c0,0,0-0.1,0-0.2c0-0.2,0-0.3-0.1-0.3c0,0,0-0.1,0-0.1c0-0.1,0-0.1,0-0.3c0-0.1,0-0.2,0-0.2c0,0,0,0-0.1-0.1c0,0-0.1,0-0.1-0.1
		c0.1-0.1,0.1-0.1,0-0.2c0-0.1-0.1-0.1-0.2-0.2c0-0.2,0-0.3,0.1-0.4c0-0.1,0-0.2-0.1-0.3c-0.1-0.1-0.1-0.2-0.1-0.3
		c-0.1-0.1-0.1-0.1-0.1-0.2c0,0,0,0,0.1,0c0-0.1,0-0.2,0-0.2c0.2,0,0.3-0.2,0.3-0.4C25,42.9,25.2,42.8,25.2,42.6z"/>
	<path fill="#D93427" d="M49.6,41.1c0,0,0.1,0,0.2,0c0.1,0,0.2,0,0.2,0s0,0,0,0c0,0,0,0,0,0.1c0,0,0.1,0,0.2,0c0.1,0,0.1,0,0.1,0.1
		c0.1,0,0.2,0,0.4,0.1c0.5,0,0.7,0.1,0.9,0.2h0.1c0.1,0.1,0.2,0.1,0.3,0.2c0.1,0.1,0.3,0.2,0.3,0.2v0.1c0.2,0.1,0.3,0.4,0.4,0.7
		c0,0,0.1,0,0.1,0c0,0,0,0,0,0c0.1,0.2,0,0.3,0,0.4c0,0.1,0,0.2,0,0.3c-0.1,0.1-0.1,0.2-0.1,0.2C52.6,44,52.6,44,52.5,44
		c0,0.1,0,0.2-0.1,0.3c0,0.1,0,0.1,0,0.1c0,0-0.1,0.1-0.1,0.1c0,0,0,0-0.1,0c0,0,0,0-0.1,0c0,0,0,0.1-0.1,0.1c-0.1,0-0.1,0-0.2,0
		c0,0,0,0.1-0.1,0.1c0,0,0,0.1-0.1,0.1c-0.1,0-0.2,0-0.2,0c0,0.1,0,0.1,0,0.1s-0.1,0-0.2,0c-0.1,0-0.1,0-0.2,0c0,0-0.1,0-0.1,0
		c0,0-0.1,0-0.1,0c0,0,0-0.1,0.1-0.1c0,0-0.1-0.1-0.1-0.1c0-0.1-0.1-0.1-0.1-0.1c0,0-0.1,0.1-0.1,0.1c0,0-0.1,0-0.1,0
		c0-0.1,0-0.1-0.1-0.2c-0.1-0.1-0.1-0.1-0.2-0.1c0,0,0,0.1,0,0.1c0,0,0,0.1,0,0.1c0,0-0.1-0.1-0.1-0.1c0,0,0-0.1-0.1-0.1
		c0,0,0,0-0.1-0.1c0-0.2-0.2-0.2-0.5-0.2c-0.1,0-0.1,0-0.2,0.1c-0.1,0-0.1,0-0.2,0c-0.1,0-0.1,0-0.2,0c0,0-0.1,0.1-0.1,0.1
		c-0.1,0-0.2,0-0.4,0c-0.3,0.1-0.5,0.1-0.5,0.2c-0.2-0.1-0.3-0.1-0.3,0c-0.1,0-0.2,0-0.3,0c-0.1,0-0.2,0-0.2,0c0,0,0,0.1,0,0.1
		c-0.1,0-0.2,0-0.2,0c-0.1-0.1-0.2-0.1-0.2,0c0,0-0.1,0-0.1,0.1c0,0-0.1,0.1-0.1,0.1c-0.1,0-0.1,0-0.2,0c-0.1,0-0.1,0-0.2,0
		c0,0-0.1,0-0.1,0.1c0,0-0.1,0-0.1,0c-0.1,0-0.1,0-0.1,0l0,0.1c-0.3,0-0.4,0-0.5,0c0,0,0,0,0,0.1c0,0,0,0,0,0.1
		c-0.2-0.1-0.5-0.1-0.6,0.2c0,0-0.1,0-0.1-0.1c-0.1,0-0.1,0.1,0,0.2c0,0.1,0,0.1,0.1,0.1s0,0.1,0,0.1c0,0,0,0.1,0,0.1
		c0,0.1,0,0.1,0,0.1c0,0.1,0,0.2,0.1,0.2c0,0.1,0,0.2,0.1,0.3c0.1,0.1,0.1,0.3,0,0.3c0,0.1,0,0.2,0.1,0.3c0,0,0,0,0,0.1
		c0,0,0,0,0,0.1c0,0.1,0,0.1,0,0.2c0,0.1,0.1,0.1,0.1,0.1c0,0.6,0,0.9,0,1c-0.1,0.1-0.1,0.3,0,0.5c0,0,0,0.1,0,0.2
		c0,0,0,0.1-0.1,0.1c0,0.1,0,0.1,0,0.2c0.1,0.1,0.1,0.1,0.1,0.1c0,0,0,0.1,0,0.1c0,0,0,0.1,0,0.1c0,0.1,0,0.2,0,0.5
		c0,0.2,0,0.4,0,0.5c0,0,0,0.1,0,0.2c0,0.1,0.1,0.1,0.2,0.1c0.1,0,0.2-0.1,0.2-0.1c0.3,0,0.4,0,0.5-0.1c0.3,0,0.5,0,0.5,0
		c0.2,0,0.3,0,0.4,0c0,0,0.1,0,0.1-0.1c0.1,0,0.1-0.1,0.1-0.1c0,0,0.1,0,0.2,0c0.2,0,0.3,0,0.3-0.1c0.2,0.1,0.4,0,0.5,0
		c0,0,0.1,0,0.1,0s0.1,0,0.1,0c0,0,0.1,0,0.1,0c0.1,0,0.1,0,0.1,0c0.1,0,0.3,0,0.4,0c0,0,0-0.1,0-0.1c0.1,0.1,0.2,0.1,0.4,0
		c0.2,0,0.3-0.1,0.3-0.1c0.1,0,0.1,0,0.2,0C50,50,50,50,50,50s0,0,0.1,0s0,0,0.1,0.1c0,0,0.1,0,0.2-0.1c0.1-0.1,0.2-0.1,0.2-0.1
		c0.1-0.1,0.1-0.1,0.1-0.1s0.1,0,0.1,0.1c0.2,0,0.4,0,0.4-0.1c0.1,0,0.1,0,0.2,0c0.1,0,0.1,0,0.2,0s0.1,0,0.2,0.1
		c0.1,0,0.2,0.1,0.2,0.1c0.1,0,0.2,0.1,0.2,0.2c0.1,0,0.1,0,0.2,0c0,0,0,0,0.1,0c0,0,0,0.1,0.1,0.1c0.2,0,0.3,0,0.4,0
		c0,0,0,0.1,0.1,0.2c0,0,0,0.1,0,0.1c0,0.1,0.1,0.1,0.2,0.3c0,0.2,0.1,0.3,0.2,0.4c0,0,0,0.1-0.1,0.1c0,0.1,0,0.2-0.1,0.3
		C53,51.6,53,51.7,53,51.8h-0.1c0,0,0,0,0,0.1c0,0,0,0,0,0.1c0,0-0.1,0-0.1,0h0l-0.1,0c0,0-0.1,0-0.1-0.1c0,0-0.1,0-0.1,0
		c0,0-0.1,0-0.1,0.1c0,0-0.1,0-0.1,0c0,0.1-0.1,0.1-0.3,0.2c-0.2,0.1-0.3,0.1-0.3,0.2c-0.2,0-0.4,0-0.6,0.2c0,0-0.1,0-0.1,0
		c0,0,0,0-0.1,0.1s0,0,0,0.1c-0.1,0-0.1,0-0.2-0.1c0,0,0,0-0.1,0s0,0.1,0,0.1c-0.1,0-0.1,0-0.3,0c-0.1,0-0.2,0-0.3,0
		c0,0-0.1,0-0.1,0.1c0,0-0.1,0.1-0.1,0.1c-0.1,0-0.2,0-0.2,0c-0.1,0-0.1,0.1-0.1,0.2C49.6,53,49.5,53,49.4,53s-0.2,0-0.2,0.1v0.1
		c-0.1,0-0.1,0-0.2,0c-0.1-0.1-0.1,0-0.2,0c0,0-0.1,0-0.2,0l0,0.2c-0.1,0-0.1,0-0.3,0c-0.1,0-0.1,0-0.2,0c-0.1,0-0.1,0.1,0,0.2
		l-0.2-0.1c0,0-0.2,0-0.4,0c0,0-0.1,0.1-0.1,0.1c0,0-0.1,0.1-0.1,0.1c-0.2,0-0.3,0-0.4,0l-0.1,0.2c-0.3,0-0.5,0-0.5,0
		c-0.1,0-0.1,0.1-0.2,0.1c0,0,0,0,0,0.1c-0.2,0.1-0.4,0.1-0.5,0c0,0-0.1,0-0.1,0.1s-0.1,0.1-0.1,0.1c0,0-0.1,0-0.1-0.1
		c0,0-0.1-0.1-0.1-0.1c-0.1,0-0.1,0-0.2,0.1c-0.1,0-0.1,0-0.2,0c-0.1,0-0.1,0.2,0,0.5c0,0,0,0.1,0,0.1c0,0,0,0.1,0,0.1
		c0,0.1,0.1,0.1,0.2,0.1c0.1,0.1,0,0.2-0.1,0.2c0,0,0,0.1,0,0.2c0,0.1,0,0.2,0.1,0.2c0,0,0,0,0,0.1s0,0,0,0.1s0,0.1-0.1,0.3
		c0.1,0.1,0.1,0.2,0.1,0.5s0,0.5,0.1,0.6c-0.1,0.2-0.1,0.4,0,0.4c0,0.1,0,0.1,0,0.3c0,0,0,0.1,0,0.1c0,0,0,0.1,0,0.1
		c0.1,0.2,0.1,0.3,0.1,0.4c0.1,0.1,0.1,0.1,0.2,0.3s0.1,0.2,0.1,0.3c0.1,0,0.2,0,0.3,0.1c0.2,0,0.3,0,0.3,0c0,0,0.1,0,0.1-0.1
		c0.1,0,0.1,0,0.1,0.1c0.4,0,0.6-0.1,0.7-0.1c0.1,0,0.2,0,0.3,0c0.1,0,0.3,0,0.3,0c0.1-0.1,0.3-0.1,0.6-0.2c0,0,0,0,0-0.1
		c0,0,0-0.1,0-0.1c0.1,0,0.1,0,0.2,0c0.1,0,0.1,0,0.2,0c0,0,0.1-0.1,0.2-0.1c0.1,0,0.2-0.1,0.2-0.1c0.2,0,0.3,0,0.5-0.1
		c0.2-0.1,0.3-0.2,0.5-0.2c0-0.1,0.1-0.1,0.1-0.1c0.2,0.1,0.3,0,0.3,0c0.2,0,0.4-0.1,0.5-0.3c0.1,0,0.2,0,0.2,0
		c0.1-0.1,0.2-0.1,0.3-0.1c0.5,0,0.7,0,0.8,0.1c0,0,0.1,0,0.1,0c0,0.1,0.1,0.3,0.2,0.4c0,0,0.1,0,0.1,0c0.1,0,0.1,0.1,0.2,0.2
		c0,0.1,0.1,0.2,0.2,0.3c0,0.1,0,0.1,0.1,0.2c0.1,0.1,0.1,0.1,0.1,0.2c0,0,0,0,0,0.1c0,0.1,0,0.1,0,0.2c-0.1,0.2-0.2,0.3-0.2,0.4
		c-0.1,0-0.2,0.1-0.3,0.2c-0.2,0-0.3,0.1-0.3,0.4c0,0-0.1,0-0.1,0s-0.1,0-0.1,0c0,0-0.1,0.1-0.1,0.2c0,0-0.1,0-0.1,0
		c0,0-0.1,0-0.1,0s-0.1,0-0.1,0.1c-0.2,0-0.3,0.1-0.3,0.2h-0.2c-0.1,0.2-0.3,0.2-0.4,0.1c0,0-0.1,0.1-0.1,0.2c0,0-0.1,0-0.1,0
		c-0.1-0.1-0.2-0.1-0.3,0c-0.1,0-0.1,0.1-0.1,0.2l-0.2,0c0,0,0,0,0,0.1c0,0,0,0.1,0,0.1c0,0-0.1-0.1-0.2-0.1c-0.1,0-0.2,0-0.3,0
		c0,0,0,0.1-0.1,0.1s0,0.1-0.1,0.1c0,0-0.1,0-0.1,0s-0.1,0-0.1,0c0,0-0.1,0.1-0.1,0.2c-0.1-0.1-0.3,0-0.4,0c0,0,0,0,0,0.1
		c-0.1,0-0.2,0-0.3,0c-0.2,0-0.3,0.1-0.3,0.1c0,0-0.1,0-0.1,0c0,0,0,0-0.1,0s-0.1,0-0.2,0c-0.1,0-0.2,0-0.2,0.1c0,0.1,0,0.1,0,0.1
		c0,0-0.1,0-0.2,0c-0.1,0-0.1,0-0.1,0c0,0,0-0.1-0.1-0.1c-0.3,0.1-0.4,0.1-0.4,0.1c0,0,0,0.1,0,0.1c-0.1,0-0.1,0-0.2,0
		c0,0-0.1-0.1-0.1-0.1c0,0-0.1,0.1-0.1,0.1c0,0-0.1,0-0.1,0c0,0-0.1,0-0.2,0c-0.1,0-0.1,0-0.2,0c0-0.1,0-0.1,0-0.1l-0.1,0
		c-0.1,0-0.1,0.1-0.1,0.2c-0.2,0-0.4,0-0.6,0c0-0.1,0-0.1-0.1-0.2c-0.1,0-0.1,0-0.2,0c0,0,0,0.1,0,0.1c0,0.1,0,0.1,0,0.1s0,0,0-0.1
		c0,0,0-0.1,0-0.1h-0.2v-0.1c-0.1-0.1-0.1-0.1-0.3-0.1c-0.1-0.1-0.1-0.1-0.2-0.1c0,0-0.1,0-0.1-0.1c-0.1-0.1-0.1-0.1-0.1-0.2
		c0,0-0.1,0-0.1,0c0,0-0.1,0-0.1,0c0,0,0-0.1,0-0.1c0,0,0-0.1-0.1-0.1s-0.1,0-0.1,0c0,0-0.1,0-0.1,0c0-0.1,0-0.2-0.2-0.3v-0.1
		c-0.1-0.1-0.2-0.2-0.3-0.2h-0.1c-0.1-0.1-0.2-0.1-0.2-0.2c-0.1-0.1-0.1-0.2-0.2-0.3c-0.1-0.1-0.1-0.2-0.2-0.2
		c-0.1-0.4-0.2-0.6-0.2-0.6c0-0.1,0-0.1-0.1-0.3c0-0.1,0-0.1,0-0.2c0-0.1,0-0.2,0-0.2c0,0,0-0.1-0.1-0.1c0,0,0-0.1,0-0.1
		c0,0,0-0.1,0-0.1c0,0,0-0.1,0-0.3c0-0.2,0-0.3-0.1-0.3c0-0.1,0-0.2,0-0.3s0-0.3,0-0.3c0-0.4,0-0.9,0-1.7c0-0.8,0-1.3,0-1.7
		c0.1,0,0.2,0,0.1-0.1c0-0.1-0.1-0.2-0.1-0.2c0-0.1,0-0.2,0.1-0.3c0-0.1,0.1-0.2,0.1-0.2c-0.1-0.1-0.1-0.1-0.1-0.2
		c0-0.1,0-0.1,0.1-0.1c0-0.1,0-0.7,0-1.5c0.1,0,0.1-0.1,0.1-0.1c0-0.1,0-0.1-0.1-0.2c0.1,0,0.1-0.1,0-0.2c0-0.1,0-0.2,0-0.3
		c0,0,0-0.1,0-0.1c0.1-0.1,0-0.1,0-0.2c0-0.1,0-0.2,0-0.5s0-0.4-0.1-0.4c0.1,0,0.1-0.2,0.1-0.4c0-0.2,0-0.4,0-0.4l-0.2-0.1
		c0-0.2,0-0.3,0.1-0.3c0,0-0.1-0.1-0.1-0.1c0,0,0-0.1,0-0.1c0-0.3,0-0.5,0-0.5c0,0,0,0-0.1,0s0,0-0.1,0c0-0.3,0-0.5,0-0.7
		c-0.1,0-0.1,0-0.1,0c0,0,0-0.1,0-0.2c0,0,0-0.1,0-0.1c0,0,0-0.1,0-0.1s0-0.1,0-0.1c0,0,0-0.1,0-0.1c0,0-0.1-0.1-0.1-0.1
		c-0.1-0.1-0.1-0.2,0-0.3c0,0-0.1-0.1-0.1-0.1c0-0.1,0-0.1,0-0.2c-0.1,0-0.1-0.1-0.2-0.2c0-0.1,0-0.2,0-0.2c0-0.1,0-0.1,0-0.2
		c-0.1-0.1,0-0.2,0-0.3c0.1-0.1,0.1-0.2,0.1-0.3c0,0,0.1-0.1,0.2-0.2c0.1-0.1,0.1-0.2,0.2-0.2c0,0,0,0,0,0c0,0,0-0.1,0-0.1l0.1,0.1
		c0,0,0.1,0,0.2,0c0.1,0,0.2,0,0.2,0c0.1,0,0.1,0,0.2-0.1c0.1-0.1,0.1-0.1,0.1-0.1c0.1,0,0.1,0,0.2,0s0.2,0,0.2,0c0,0,0.1,0,0.1,0
		c0,0,0.1,0,0.1,0c0.2,0,0.3,0,0.4-0.1c0.4-0.1,0.6-0.1,0.6-0.2h0.2c0,0,0,0,0.1,0s0,0,0.1,0c0,0,0.1,0,0.2,0c0.1,0,0.1,0,0.2-0.1
		c0.1-0.1,0.1-0.1,0.2-0.1c0,0,0-0.1,0-0.2c0.1,0,0.1,0,0.1,0c0,0,0,0,0,0.1c0,0,0,0.1,0,0.1c0.2-0.1,0.4-0.1,0.4-0.2
		c0.1,0,0.1,0,0.2,0.1l0.3-0.1c0,0,0.1-0.1,0.3-0.2c0,0.1,0.1,0.1,0.1,0.2c0,0,0.1,0,0.2-0.1c0.1,0,0.1,0,0.2,0s0.1,0,0.1,0
		s0.1,0,0.1-0.1c0,0,0.1,0,0.2,0c0.1,0,0.1,0,0.2,0c0.2,0,0.3-0.1,0.4-0.1c0,0,0.1,0,0.1,0c0.1,0,0.1,0,0.1-0.1c0.1,0,0.1,0,0.2,0
		c0,0,0.1,0,0.2-0.1c0.1,0,0.1,0,0.2,0c0.1,0,0.1,0,0.1,0c0,0,0,0,0,0c0,0,0,0,0,0C49.3,41.4,49.6,41.3,49.6,41.1z M48.8,41.3
		c0.5,0.1,0.8,0,0.8-0.2c0,0,0.1,0,0.4,0c0,0,0,0,0,0.1c0,0,0,0,0,0.1c0,0,0.1,0,0.2,0c0.1,0,0.1,0,0.1,0.1c0.1,0,0.2,0,0.4,0.1
		c0.5,0,0.7,0.1,0.9,0.2h0.1c0.1,0.1,0.2,0.1,0.3,0.2c0.1,0.1,0.3,0.2,0.3,0.2v0.1c0.2,0.1,0.3,0.4,0.4,0.7c0,0,0.1,0.1,0.1,0.1
		c0.1,0.2,0,0.3,0,0.4c0,0.1,0,0.2,0,0.3c-0.1,0.1-0.1,0.2-0.1,0.2C52.6,44,52.6,44,52.5,44c0,0.1,0,0.2-0.1,0.3c0,0.1,0,0.1,0,0.1
		c0,0-0.1,0.1-0.1,0.1c0,0,0,0-0.1,0c0,0,0,0-0.1,0c0,0,0,0.1-0.1,0.1c-0.1,0-0.1,0-0.2,0c0,0,0,0.1-0.1,0.1c0,0,0,0.1-0.1,0.1
		c-0.1,0-0.2,0-0.2,0c0,0.1,0,0.1,0,0.1s-0.1,0-0.2,0c-0.1,0-0.1,0-0.2,0c0,0-0.1,0-0.1,0c0,0-0.1,0-0.1,0c0,0,0-0.1,0.1-0.1
		c0,0-0.1-0.1-0.1-0.1c0-0.1-0.1-0.1-0.1-0.1c0,0-0.1,0.1-0.1,0.1c0,0-0.1,0-0.1,0c0-0.1,0-0.1-0.1-0.2c-0.1-0.1-0.1-0.1-0.2-0.1
		c0,0,0,0.1,0,0.1c0,0,0,0.1,0,0.1c0,0-0.1-0.1-0.1-0.1c0,0,0-0.1-0.1-0.1c0,0,0,0-0.1-0.1c0-0.2-0.2-0.2-0.5-0.2
		c-0.1,0-0.1,0-0.2,0.1c-0.1,0-0.1,0-0.2,0c-0.1,0-0.1,0-0.2,0c0,0-0.1,0.1-0.1,0.1c-0.1,0-0.2,0-0.4,0c-0.3,0.1-0.5,0.1-0.5,0.2
		c-0.2-0.1-0.3-0.1-0.3,0c-0.1,0-0.2,0-0.3,0c-0.1,0-0.2,0-0.2,0c0,0,0,0.1,0,0.1c-0.1,0-0.2,0-0.2,0c-0.1-0.1-0.2-0.1-0.2,0
		c0,0-0.1,0-0.1,0.1c0,0-0.1,0.1-0.1,0.1c-0.1,0-0.1,0-0.2,0c-0.1,0-0.1,0-0.2,0c0,0-0.1,0-0.1,0.1c0,0-0.1,0-0.1,0
		c-0.1,0-0.1,0-0.1,0l0,0.1c-0.3,0-0.4,0-0.5,0c0,0,0,0,0,0.1c0,0,0,0,0,0.1c-0.2-0.1-0.5-0.1-0.6,0.2c0,0-0.1,0-0.1-0.1
		c-0.1,0-0.1,0.1,0,0.2c0,0.1,0,0.1,0.1,0.1s0,0.1,0,0.1c0,0,0,0.1,0,0.1c0,0.1,0,0.1,0,0.1c0,0.1,0,0.2,0.1,0.2
		c0,0.1,0,0.2,0.1,0.3c0.1,0.1,0.1,0.3,0,0.3c0,0.1,0,0.2,0.1,0.3c0,0,0,0,0,0.1c0,0,0,0,0,0.1c0,0.1,0,0.1,0,0.2
		c0,0.1,0.1,0.1,0.1,0.1c0,0.6,0,0.9,0,1c-0.1,0.1-0.1,0.3,0,0.5c0,0,0,0.1,0,0.2c0,0,0,0.1-0.1,0.1c0,0.1,0,0.1,0,0.2
		c0.1,0.1,0.1,0.1,0.1,0.1c0,0,0,0.1,0,0.1c0,0,0,0.1,0,0.1c0,0.1,0,0.2,0,0.5c0,0.2,0,0.4,0,0.5c0,0,0,0.1,0,0.2
		c0,0.1,0.1,0.1,0.2,0.1c0.1,0,0.2-0.1,0.2-0.1c0.3,0,0.4,0,0.5-0.1c0.3,0,0.5,0,0.5,0c0.2,0,0.3,0,0.4,0c0,0,0.1,0,0.1-0.1
		c0.1,0,0.1-0.1,0.1-0.1c0,0,0.1,0,0.2,0c0.2,0,0.3,0,0.3-0.1c0.2,0.1,0.4,0,0.5,0c0,0,0.1,0,0.1,0s0.1,0,0.1,0c0,0,0.1,0,0.1,0
		c0.1,0,0.1,0,0.1,0c0.1,0,0.3,0,0.4,0c0,0,0-0.1,0-0.1c0.1,0.1,0.2,0.1,0.4,0c0.2,0,0.3-0.1,0.3-0.1c0.1,0,0.1,0,0.2,0
		C50,50,50,50,50,50s0,0,0.1,0s0,0,0.1,0.1c0,0,0.1,0,0.2-0.1c0.1-0.1,0.2-0.1,0.2-0.1c0.1-0.1,0.1-0.1,0.1-0.1s0.1,0,0.1,0.1
		c0.2,0,0.4,0,0.4-0.1c0.1,0,0.1,0,0.2,0c0.1,0,0.1,0,0.2,0s0.1,0,0.2,0.1c0.1,0,0.2,0.1,0.2,0.1c0.1,0,0.2,0.1,0.2,0.2
		c0.1,0,0.1,0,0.2,0c0,0,0,0,0.1,0c0,0,0,0.1,0.1,0.1c0.2,0,0.3,0,0.4,0c0,0,0,0.1,0.1,0.2c0,0,0,0.1,0,0.1c0,0.1,0.1,0.1,0.2,0.3
		c0,0.2,0.1,0.3,0.2,0.4c0,0,0,0.1-0.1,0.1c0,0.1,0,0.2-0.1,0.3C53,51.6,53,51.7,53,51.8h-0.1c0,0,0,0,0,0.1c0,0,0,0,0,0.1
		c0,0-0.1,0-0.1,0h0l-0.1,0c0,0-0.1,0-0.1-0.1c0,0-0.1,0-0.1,0c0,0-0.1,0-0.1,0.1c0,0-0.1,0-0.1,0c0,0.1-0.1,0.1-0.3,0.2
		c-0.2,0.1-0.3,0.1-0.3,0.2c-0.2,0-0.4,0-0.6,0.2c0,0-0.1,0-0.1,0c0,0,0,0-0.1,0.1s0,0,0,0.1c-0.1,0-0.1,0-0.2-0.1c0,0,0,0-0.1,0
		s0,0.1,0,0.1c-0.1,0-0.1,0-0.3,0c-0.1,0-0.2,0-0.3,0c0,0-0.1,0-0.1,0.1c0,0-0.1,0.1-0.1,0.1c-0.1,0-0.2,0-0.2,0
		c-0.1,0-0.1,0.1-0.1,0.2C49.6,53,49.5,53,49.4,53s-0.2,0-0.2,0.1v0.1c-0.1,0-0.1,0-0.2,0c-0.1-0.1-0.1,0-0.2,0c0,0-0.1,0-0.2,0
		l0,0.2c-0.1,0-0.1,0-0.3,0c-0.1,0-0.1,0-0.2,0c-0.1,0-0.1,0.1,0,0.2l-0.2-0.1c0,0-0.2,0-0.4,0c0,0-0.1,0.1-0.1,0.1
		c0,0-0.1,0.1-0.1,0.1c-0.2,0-0.3,0-0.4,0l-0.1,0.2c-0.3,0-0.5,0-0.5,0c-0.1,0-0.1,0.1-0.2,0.1c0,0,0,0,0,0.1
		c-0.2,0.1-0.4,0.1-0.5,0c0,0-0.1,0-0.1,0.1s-0.1,0.1-0.1,0.1c0,0-0.1,0-0.1-0.1c0,0-0.1-0.1-0.1-0.1c-0.1,0-0.1,0-0.2,0.1
		c-0.1,0-0.1,0-0.2,0c-0.1,0-0.1,0.2,0,0.5c0,0,0,0.1,0,0.1c0,0,0,0.1,0,0.1c0,0.1,0.1,0.1,0.2,0.1c0.1,0.1,0,0.2-0.1,0.2
		c0,0,0,0.1,0,0.2c0,0.1,0,0.2,0.1,0.2c0,0,0,0,0,0.1s0,0,0,0.1s0,0.1-0.1,0.3c0.1,0.1,0.1,0.2,0.1,0.5s0,0.4,0.1,0.6
		c-0.1,0.2-0.1,0.4,0,0.4c0,0.1,0,0.1,0,0.3c0,0,0,0.1,0,0.1c0,0,0,0.1,0,0.1c0.1,0.2,0.1,0.3,0.1,0.4c0.1,0.1,0.1,0.1,0.2,0.3
		s0.1,0.2,0.1,0.3c0.1,0,0.2,0,0.3,0.1c0.2,0,0.3,0,0.3,0c0,0,0.1,0,0.1-0.1c0.1,0,0.1,0,0.1,0.1c0.4,0,0.6-0.1,0.7-0.1
		c0.1,0,0.2,0,0.3,0c0.1,0,0.3,0,0.3,0c0.1-0.1,0.3-0.1,0.6-0.2c0,0,0,0,0-0.1c0,0,0-0.1,0-0.1c0.1,0,0.1,0,0.2,0c0.1,0,0.1,0,0.2,0
		c0,0,0.1-0.1,0.2-0.1c0.1,0,0.2-0.1,0.2-0.1c0.2,0,0.3,0,0.5-0.1c0.2-0.1,0.3-0.2,0.5-0.2c0-0.1,0.1-0.1,0.1-0.1
		c0.2,0.1,0.3,0,0.3,0c0.2,0,0.4-0.1,0.5-0.3c0.1,0,0.2,0,0.2,0c0.1-0.1,0.2-0.1,0.3-0.1c0.5,0,0.7,0,0.8,0.1c0,0,0.1,0,0.1,0
		c0,0.1,0.1,0.3,0.2,0.4c0,0,0.1,0,0.1,0c0.1,0,0.1,0.1,0.2,0.2c0,0.1,0.1,0.2,0.2,0.3c0,0.1,0,0.1,0.1,0.2c0.1,0.1,0.1,0.1,0.1,0.2
		c0,0,0,0,0,0.1c0,0.1,0,0.1,0,0.2c-0.1,0.2-0.2,0.3-0.2,0.4c-0.1,0-0.2,0.1-0.3,0.2c-0.2,0-0.3,0.1-0.3,0.4c0,0-0.1,0-0.1,0
		s-0.1,0-0.1,0c0,0-0.1,0.1-0.1,0.2c0,0-0.1,0-0.1,0c0,0-0.1,0-0.1,0s-0.1,0-0.1,0.1c-0.2,0-0.3,0.1-0.3,0.2h-0.2
		c-0.1,0.2-0.3,0.2-0.4,0.1c0,0-0.1,0.1-0.1,0.2c0,0-0.1,0-0.1,0c-0.1-0.1-0.2-0.1-0.3,0c-0.1,0-0.1,0.1-0.1,0.2l-0.2,0
		c0,0,0,0,0,0.1c0,0,0,0.1,0,0.1c0,0-0.1-0.1-0.2-0.1c-0.1,0-0.2,0-0.3,0c0,0,0,0.1-0.1,0.1s0,0.1-0.1,0.1c0,0-0.1,0-0.1,0
		s-0.1,0-0.1,0c0,0-0.1,0.1-0.1,0.2c-0.1-0.1-0.3,0-0.4,0c0,0,0,0,0,0.1c-0.1,0-0.2,0-0.3,0c-0.2,0-0.3,0.1-0.3,0.1c0,0-0.1,0-0.1,0
		c0,0,0,0-0.1,0s-0.1,0-0.2,0c-0.1,0-0.2,0-0.2,0.1c0,0.1,0,0.1,0,0.1c0,0-0.1,0-0.2,0c-0.1,0-0.1,0-0.1,0c0,0,0-0.1-0.1-0.1
		c-0.3,0.1-0.4,0.1-0.4,0.1c0,0,0,0.1,0,0.1c-0.1,0-0.1,0-0.2,0c0,0-0.1-0.1-0.1-0.1c0,0-0.1,0.1-0.1,0.1c0,0-0.1,0-0.1,0
		c0,0-0.1,0-0.2,0c-0.1,0-0.1,0-0.2,0c0-0.1,0-0.1,0-0.1l-0.1,0c-0.1,0-0.1,0.1-0.1,0.2c-0.2,0-0.4,0-0.6,0c0-0.1,0-0.1-0.1-0.2
		c-0.1,0-0.1,0-0.2,0c0,0,0,0.1,0,0.1c0,0.1,0,0.1,0,0.1s0,0,0-0.1c0,0,0-0.1,0-0.1h-0.2v-0.1c-0.1-0.1-0.1-0.1-0.3-0.1
		c-0.1-0.1-0.1-0.1-0.2-0.1c0,0-0.1,0-0.1-0.1c-0.1-0.1-0.1-0.1-0.1-0.2c0,0-0.1,0-0.1,0c0,0-0.1,0-0.1,0c0,0,0-0.1,0-0.1
		c0,0,0-0.1-0.1-0.1s-0.1,0-0.1,0c0,0-0.1,0-0.1,0c0-0.1,0-0.2-0.2-0.3v-0.1c-0.1-0.1-0.2-0.2-0.3-0.2h-0.1
		c-0.1-0.1-0.2-0.1-0.2-0.2c-0.1-0.1-0.1-0.2-0.2-0.3c-0.1-0.1-0.1-0.2-0.2-0.2c-0.1-0.4-0.2-0.6-0.2-0.6c0-0.1,0-0.1-0.1-0.3
		c0-0.1,0-0.1,0-0.2c0-0.1,0-0.2,0-0.2c0-0.1,0-0.1-0.1-0.2c0,0,0-0.1,0-0.1c0,0,0-0.1,0-0.1c0,0,0-0.1,0-0.3c0-0.2,0-0.3-0.1-0.3
		c0-0.1,0-0.2,0-0.3s0-0.3,0-0.3c0-0.4,0-0.9,0-1.7c0-0.8,0-1.3,0-1.7c0.1,0,0.2,0,0.1-0.1c0-0.1-0.1-0.2-0.1-0.2
		c0-0.1,0-0.2,0.1-0.3c0-0.1,0.1-0.2,0.1-0.2c-0.1-0.1-0.1-0.1-0.1-0.2c0-0.1,0-0.1,0.1-0.1c0-0.1,0-0.7,0-1.5
		c0.1,0,0.1-0.1,0.1-0.1c0-0.1,0-0.1-0.1-0.2c0.1,0,0.1-0.1,0-0.2c0-0.1,0-0.2,0-0.3c0,0,0-0.1,0-0.1c0.1-0.1,0-0.2,0-0.2
		c0-0.1,0-0.2,0-0.5s0-0.4-0.1-0.4c0.1,0,0.1-0.2,0.1-0.4c0-0.2,0-0.4,0-0.4l-0.2-0.1c0-0.2,0-0.3,0.1-0.3c0,0-0.1-0.1-0.1-0.1
		c0,0,0-0.1,0-0.1c0-0.3,0-0.5,0-0.5c0,0,0,0-0.1,0s0,0-0.1,0c0-0.3,0-0.5,0-0.7c-0.1,0-0.1,0-0.1,0c0,0,0-0.1,0-0.2
		c0,0,0-0.1,0-0.1c0,0,0-0.1,0-0.1s0-0.1,0-0.1c0,0,0-0.1,0-0.1c0,0-0.1-0.1-0.1-0.1c-0.1-0.1-0.1-0.2,0-0.3c0,0-0.1-0.1-0.1-0.1
		c0-0.1,0-0.1,0-0.2c-0.1,0-0.1-0.1-0.2-0.2c0-0.1,0-0.2,0-0.2c0-0.1,0-0.1,0-0.2c-0.1-0.1,0-0.2,0-0.3c0.1-0.1,0.1-0.2,0.1-0.3
		c0,0,0.1-0.1,0.2-0.2c0.1-0.1,0.1-0.2,0.2-0.2c0,0,0,0,0,0c0,0,0-0.1,0-0.1l0.1,0.1c0,0,0.1,0,0.2,0c0.1,0,0.2,0,0.2,0
		c0.1,0,0.1,0,0.2-0.1c0.1-0.1,0.1-0.1,0.1-0.1c0.1,0,0.1,0,0.2,0s0.2,0,0.2,0c0,0,0.1,0,0.1,0c0,0,0.1,0,0.1,0c0.2,0,0.3,0,0.4-0.1
		c0.4-0.1,0.6-0.1,0.6-0.2h0.2c0,0,0,0,0.1,0s0,0,0.1,0c0,0,0.1,0,0.2,0c0.1,0,0.1,0,0.2-0.1c0.1-0.1,0.1-0.1,0.2-0.1
		c0,0,0-0.1,0-0.2c0.1,0,0.1,0,0.1,0c0,0,0,0,0,0.1c0,0,0,0.1,0,0.1c0.2-0.1,0.4-0.1,0.4-0.2c0.1,0,0.1,0,0.2,0.1l0.3-0.1
		c0,0,0.1-0.1,0.3-0.2c0,0.1,0.1,0.1,0.1,0.2c0,0,0.1,0,0.2-0.1c0.1,0,0.1,0,0.2,0s0.1,0,0.1,0s0.1,0,0.1-0.1c0,0,0.1,0,0.2,0
		c0.1,0,0.1,0,0.2,0c0.2,0,0.3-0.1,0.4-0.1c0,0,0.1,0,0.1,0c0.1,0,0.1,0,0.1-0.1c0.1,0,0.1,0,0.2,0c0,0,0.1,0,0.2-0.1
		c0.1,0,0.1,0,0.2,0C48.7,41.4,48.7,41.4,48.8,41.3C48.8,41.4,48.8,41.4,48.8,41.3C48.7,41.3,48.8,41.3,48.8,41.3z"/>
	<path fill="#D93427" d="M65.2,36.7c0,0.1,0.1,0.2,0.2,0.2c0,0,0.1-0.1,0.1-0.1h0c0.1,0,0.1,0,0.1,0v0.1c0,0,0.1,0.1,0.1,0.1
		c0.1,0.1,0.1,0.1,0.1,0.2c0.1,0.1,0.1,0.2,0.2,0.3s0.2,0.1,0.3,0.1c0,0.1,0,0.1-0.1,0.2l-0.1,0c0,0.1,0,0.1,0.1,0.2
		c0,0.1,0,0.1,0.1,0.2c0,0.1,0.1,0.1,0.1,0.2c0,0,0,0.1,0,0.1c0,0.1,0,0.1,0,0.1c0,0,0,0.1,0,0.1c0,0,0.1,0.1,0.1,0.1
		c0,0,0,0.1,0,0.1c0,0,0,0.1,0,0.1c0,0,0,0.1,0.1,0.1s0,0.1,0.1,0.1c0,0.2,0.1,0.3,0.1,0.3C66.9,39.8,67,40,67,40
		c0,0.3,0,0.4,0.1,0.5c0,0.1,0,0.2,0,0.3c0.1,0.1,0.1,0.2,0,0.3c0,0,0,0.1,0,0.1c0,0,0,0.1,0,0.2c0,0.1,0,0.1,0,0.2c0,0,0.1,0,0.1,0
		c0,0,0.1,0,0.1,0c0,0.2,0,0.4,0,0.5c0,0.1,0,0.1,0,0.1c0,0,0,0,0,0s0,0,0,0s0,0,0,0.1c0,0,0,0.1,0,0.1s0,0.1,0,0.1c0,0,0,0.1,0,0.1
		c0,0.1,0,0.2,0.1,0.5c0.1,0.2,0.1,0.4,0,0.6c0.1,0.1,0.2,0.3,0.2,0.5c0,0.1,0,0.1,0,0.1c0,0,0,0,0,0.1s0,0.1,0.1,0.1
		c0,0,0,0.1,0,0.2c0,0.1,0,0.1,0,0.2c0,0,0,0.1,0,0.1c0,0,0.1,0.1,0.1,0.1c0,0,0,0.1,0,0.2c0,0.1,0,0.2,0,0.2c0,0.1,0,0.1,0.1,0.2
		c0.1,0.1,0.1,0.1,0,0.2l0.2,0.1c0,0.1,0,0.1-0.1,0.2c0,0.1,0,0.1,0,0.2c0,0.1,0,0.1,0,0.1c0,0,0,0,0,0.1c0,0,0,0,0,0.1v0
		c0.1,0.2,0.1,0.3,0,0.3c0.1,0.3,0.1,0.5,0.1,0.6l0.1,0c0,0,0,0.2,0,0.5l0,0.1c0,0,0,0.1,0.1,0.2c0,0,0,0.1,0,0.2c0,0.1,0,0.2,0,0.2
		c0,0,0,0.1,0.1,0.2c0,0.1,0.1,0.1,0.1,0.2c0,0.1,0,0.2,0,0.2c0,0,0,0.1,0,0.1c0,0,0,0.1,0,0.1c0,0.1,0.1,0.1,0.1,0.1
		c0.1,0.2,0.1,0.3,0.1,0.3C69,49.8,69,49.9,69,50l0,0c0,0,0,0.1,0,0.1c0,0,0,0.1,0,0.1c0,0,0.1,0.1,0.1,0.1c0,0.1,0,0.1,0,0.2
		c0,0.1,0,0.1,0,0.3c0,0.1,0,0.2,0,0.3c0,0,0,0.1,0.1,0.1c0,0,0.1,0.1,0.1,0.1c0.1,0.2,0.1,0.4,0.1,0.4c0,0,0.1,0.1,0.2,0.1
		c0.1,0,0.2,0.1,0.2,0.1c0,0,0,0.1,0,0.1s0.1,0.1,0.1,0.1c0.1,0,0.1,0,0.2,0.1c0,0.1,0,0.2,0.1,0.3c0.1,0.1,0.1,0.2,0.1,0.3
		c0.1,0.1,0.1,0.1,0.1,0.1c-0.1,0.1-0.1,0.2-0.2,0.2c0,0,0,0.1-0.1,0.2c0,0.1,0,0.2-0.1,0.3c-0.1,0-0.1,0.1-0.1,0.1
		c0,0.1,0,0.1,0,0.2c0,0.1,0,0.1,0,0.1c0,0,0,0,0,0.1s0,0.1,0,0.1s0,0.1,0.1,0.1c0,0,0.1,0.1,0.1,0.1c0,0.1,0,0.1,0,0.2
		c0,0.1,0,0.2,0.1,0.2c0,0.4,0.1,0.7,0.3,0.8c-0.1,0.3,0,0.5,0.1,0.6c0,0.1,0,0.2,0.1,0.2c0,0,0.1,0,0.1,0c0,0,0,0.1,0,0.1
		c0,0.1,0,0.1,0,0.1c0,0.1,0,0.1,0,0.1S71,57,71,57c0,0.1,0,0.2,0.1,0.3c0.1,0.1,0.1,0.2,0.1,0.2c0,0,0.1,0.1,0.1,0.3
		c0,0.1,0.1,0.2,0.2,0.3c0,0.2,0.1,0.2,0.2,0.2c0,0,0,0.1,0.1,0.1c0,0.1,0.1,0.1,0.1,0.2c0.1,0.1,0.2,0.2,0.2,0.3
		c0,0,0.1,0.1,0.1,0.1c0,0,0.1,0.1,0.1,0.1c0,0,0,0.1,0,0.1c0,0.1,0,0.1,0,0.1c0,0.1,0,0.2,0,0.3c0,0.1,0,0.3,0,0.3
		c0.1,0.1,0.1,0.2,0,0.4c-0.1,0-0.2,0.1-0.2,0.2c-0.1,0-0.2,0.1-0.3,0.2S71.5,61,71.4,61c0,0,0,0.1,0,0.1s0,0.1,0,0.1H71
		c0-0.1-0.1-0.2-0.2-0.3c-0.1-0.1-0.2-0.1-0.2-0.2c-0.2,0-0.3,0-0.4-0.1c0,0,0,0.1,0,0.1c0,0,0,0.1,0,0.1c-0.1,0-0.1,0-0.1-0.1
		c0-0.1,0-0.1,0-0.1c0-0.1-0.1-0.1-0.2-0.1c-0.2-0.2-0.4-0.4-0.6-0.4c0-0.2-0.1-0.4-0.3-0.4c0-0.1,0-0.1,0-0.2v0
		c0-0.1-0.1-0.1-0.1-0.3c-0.1-0.1-0.1-0.2-0.1-0.2c-0.1,0-0.1,0-0.1,0c0.1-0.2,0-0.3-0.1-0.4c0-0.1,0-0.2-0.1-0.3c0,0-0.1,0-0.1,0
		s0,0,0,0c0,0,0-0.1,0-0.1c0-0.1,0-0.1,0-0.1c0,0,0-0.1-0.1-0.1c0-0.1,0-0.1,0-0.2l-0.2,0l0.1-0.2c0-0.1,0-0.2-0.1-0.2
		c0-0.2-0.1-0.4-0.2-0.4c0,0,0-0.1,0-0.1c0-0.1,0-0.1,0-0.1c0,0,0-0.1,0-0.1c0,0,0-0.1,0-0.1s0-0.1-0.1-0.2c0-0.1-0.1-0.2-0.1-0.2
		c-0.1-0.3-0.1-0.4-0.2-0.4c0,0,0-0.1,0-0.1c0-0.1,0-0.1,0-0.1c0,0,0-0.1-0.1-0.1c0,0-0.1-0.1-0.1-0.1s0-0.1,0-0.1
		c0-0.1,0-0.1,0-0.1s0,0,0-0.1c0,0,0,0,0-0.1c-0.1-0.1-0.1-0.2-0.1-0.2c0,0-0.1,0-0.2,0c-0.1,0-0.1,0-0.2,0c-0.1,0-0.2,0.1-0.2,0.1
		v0v0c0,0-0.1,0-0.1,0c0,0-0.1,0-0.1,0c-0.1,0-0.1,0-0.1,0.1c0,0-0.1,0-0.1-0.1c-0.1,0-0.1,0-0.2,0.1c-0.1,0-0.1,0.1-0.1,0.1
		c-0.1-0.1-0.1-0.1-0.2-0.1c-0.1,0-0.1,0.1-0.1,0.2c-0.2,0-0.3,0-0.3,0c-0.1-0.1-0.1-0.1-0.2-0.1c0,0-0.1,0-0.1,0.1
		c0,0-0.1,0-0.2-0.1c-0.1,0-0.2,0-0.3,0.2c-0.1,0-0.2,0-0.2,0c-0.1-0.1-0.2-0.1-0.4-0.1c-0.2,0-0.3,0.1-0.3,0.1c-0.5,0-0.7,0-0.8,0
		c-0.1,0-0.2,0-0.4,0c-0.2,0-0.3,0-0.4,0c0,0.1,0,0.1,0,0.2c-0.1,0-0.1,0-0.3-0.2c0,0-0.1,0-0.1,0.1c0,0-0.1,0-0.3,0
		c-0.1,0-0.2,0-0.3,0c0,0-0.1,0-0.1-0.1s-0.1,0-0.1,0c-0.1,0-0.1,0-0.2,0.1c-0.1-0.1-0.2-0.1-0.2-0.1c0,0-0.1,0-0.1,0.1
		c0,0.1-0.1,0.1-0.1,0.1c-0.1-0.1-0.1-0.2-0.1-0.2c0,0-0.1,0-0.2,0.1c-0.1,0.1-0.1,0.1-0.1,0.1c0,0-0.1,0.1-0.2,0.2
		c0,0.1,0,0.2-0.1,0.3V56c0,0-0.1,0.1-0.1,0.1c0,0-0.1,0.1-0.1,0.1c0,0.1,0,0.1-0.1,0.2c0,0.1-0.1,0.2-0.1,0.3c0,0,0,0,0,0
		c0,0,0,0,0,0v0.1c0,0,0,0.1-0.1,0.2c0,0.1-0.1,0.2-0.2,0.4c0.1,0.1,0,0.1,0,0.2c-0.1,0.1-0.1,0.1-0.1,0.1c0,0,0,0,0,0.1
		s0,0.1,0,0.1s0,0-0.1,0.1c-0.1,0-0.1,0-0.1,0.1c0,0.2-0.1,0.4-0.2,0.4c0,0.1,0,0.2,0,0.3l-0.2,0c-0.1,0.3-0.1,0.4-0.2,0.4
		c0,0.1,0,0.1,0.1,0.2c0,0,0,0.1-0.1,0.1c0,0,0,0.1-0.1,0.2c-0.1,0-0.1,0.1-0.2,0.3c0,0,0,0.1-0.1,0.1c0,0,0,0.1,0,0.1
		c0,0,0,0,0,0.1c0,0,0,0.1,0,0.1c-0.1,0.2-0.2,0.3-0.2,0.4l-0.1,0.1c0,0.1,0,0.1-0.1,0.2c0,0,0,0.1,0,0.1c0,0,0,0.1,0,0.1
		c0,0,0,0.1-0.1,0.1c0,0,0,0-0.1,0c0,0,0,0-0.1,0c0,0-0.1,0.1-0.1,0.2c-0.1,0-0.1,0-0.1,0.1c0,0.1-0.1,0.1-0.1,0.1
		c0,0-0.1,0-0.1-0.1c0,0-0.1-0.1-0.1-0.1c-0.1,0-0.1,0-0.1,0c0,0-0.1,0-0.1,0c0-0.1,0-0.2,0-0.2c-0.2,0-0.4,0-0.4,0
		c0-0.1,0-0.2-0.1-0.2c0,0-0.1,0-0.1,0c0,0-0.1,0-0.1,0c0,0,0,0,0-0.1c0,0,0-0.1,0-0.1c-0.1,0-0.1,0-0.1,0c0,0.1,0,0.1-0.1,0.1
		c0-0.1,0-0.1-0.1-0.2c-0.1-0.1-0.1-0.1-0.1-0.2c-0.1,0-0.1,0-0.1,0c0-0.1,0-0.2,0-0.2c0,0-0.1,0-0.1,0c0-0.1,0-0.3,0-0.4l0,0h0
		c0.1-0.1,0.1-0.3,0.1-0.5c-0.1-0.1-0.1-0.2-0.1-0.2h0.1h0c0,0,0-0.1,0-0.2h0.1c0,0,0-0.1,0-0.2c0-0.1,0-0.1,0-0.1l0.1-0.1
		c0-0.1,0.1-0.2,0.2-0.3c0-0.1,0-0.1,0-0.1c0,0-0.1-0.1-0.1-0.1c0.1,0,0.2-0.1,0.2-0.2c0,0,0.1,0,0.1-0.1c0-0.1,0-0.2,0-0.2
		c0-0.1,0-0.1,0-0.1c0,0,0-0.1,0-0.1c0-0.1,0-0.1,0-0.1c0,0,0-0.1,0.1-0.1c0-0.1,0.1-0.2,0.2-0.3c0.1-0.1,0.1-0.2,0.1-0.3
		c0.1-0.2,0.1-0.3,0.2-0.3c0-0.1,0-0.3,0.1-0.5c0.1-0.2,0.1-0.3,0.1-0.4c0.1,0,0.1,0,0.2-0.1c0.1-0.1,0.1-0.1,0.1-0.1
		c0-0.1,0-0.2,0.1-0.3c0.1-0.1,0.1-0.2,0.1-0.3c-0.1-0.1-0.1-0.1,0-0.2c0,0,0.1,0,0.1,0c0.1-0.1,0.1-0.2,0-0.3c-0.1,0-0.2,0-0.2,0
		c0-0.2-0.2-0.4-0.4-0.6c0,0,0,0,0.1-0.1c0,0,0.1,0,0.1-0.1c0-0.1,0-0.1-0.1-0.2c-0.1-0.1-0.1-0.1-0.1-0.1c0,0,0.1-0.1,0.2-0.4
		c0-0.1,0.1-0.2,0.2-0.3c0.1-0.1,0.2-0.1,0.2-0.2l0.5-0.1c0.1,0,0.2,0,0.3,0c0.2,0,0.2,0,0.2-0.1c0,0,0-0.1,0-0.1c0-0.1,0-0.1,0-0.1
		c0,0,0.1,0,0.1-0.1c0-0.1,0-0.1,0-0.1s0-0.1,0-0.1c0,0,0.1-0.1,0.1-0.1c0,0,0-0.1,0-0.1c0-0.2,0.1-0.3,0.2-0.4
		c0.1-0.2,0.1-0.4,0-0.5c0.1,0,0.1-0.1,0.2-0.2c0.1-0.1,0.1-0.2,0.1-0.2c0-0.1,0-0.2,0.1-0.3c0.1-0.1,0.1-0.2,0-0.3
		c0-0.1,0.1-0.1,0.1-0.2c0-0.1,0.1-0.2,0.1-0.2c0-0.1,0-0.2,0.1-0.3c0,0,0-0.1,0.1-0.2c0,0,0,0,0-0.1c0,0,0,0,0-0.1
		c0.1-0.1,0.1-0.1,0.1-0.2s0-0.1,0-0.1c0,0,0-0.1,0-0.1s0,0,0.1-0.1c0.1-0.2,0.1-0.3,0.2-0.4v-0.2c0,0,0,0,0.1-0.1
		c0,0,0.1,0,0.1-0.1c0,0,0-0.1,0-0.1c0-0.1,0-0.1,0-0.1c0.1-0.2,0.1-0.3,0.1-0.4c0,0,0.1-0.1,0.1-0.1c0,0,0.1-0.1,0.1-0.1
		c0,0,0-0.1,0-0.1c0-0.1,0-0.1,0-0.1c0,0,0-0.1,0.1-0.1c0,0,0.1-0.1,0.1-0.1c0,0,0-0.1,0-0.1c0-0.1,0-0.1,0-0.2
		c0.1,0,0.1-0.1,0.1-0.1c0.1-0.2,0.1-0.4,0.1-0.4c0-0.1,0-0.2,0.1-0.3c0.1-0.1,0.1-0.3,0.1-0.4c0.1,0,0.1-0.1,0.1-0.3
		c0-0.2,0.1-0.3,0.1-0.3c0-0.1,0-0.1,0.1-0.2c0-0.1,0-0.1,0.1-0.1s0-0.1,0-0.1s0-0.1,0-0.1c0,0,0.1,0,0.1-0.1c0.1,0,0.1-0.1,0.1-0.1
		c0,0,0-0.1,0-0.2c0-0.1,0-0.1,0-0.2c0,0,0,0-0.1,0c0,0-0.1,0-0.1,0c0-0.1,0-0.1,0-0.2c0.1,0,0.2,0,0.2,0c0,0,0-0.1,0-0.1
		c0,0,0-0.1,0-0.1c0,0,0-0.1,0-0.1c0,0,0.1-0.1,0.1-0.1c0-0.1,0-0.1,0-0.2c0-0.1,0-0.1,0-0.1c0-0.1,0-0.1,0.1-0.3
		c0.1-0.1,0.1-0.2,0.1-0.3c0.1-0.1,0.1-0.1,0.1-0.3c0-0.1,0-0.2,0.1-0.2c0,0,0-0.1,0-0.1c0,0,0.1-0.1,0.1-0.1c0-0.1,0.1-0.1,0.1-0.1
		c0-0.1,0-0.2,0-0.3c0.1-0.1,0.1-0.2,0.1-0.2c0,0,0-0.1,0-0.1c0,0,0-0.1,0-0.1c0,0,0-0.1,0.1-0.2c0-0.1,0-0.1,0.1-0.2
		c0.1-0.1,0.1-0.1,0.1-0.2c0,0,0-0.1,0-0.1c0-0.1,0-0.1,0-0.2c0.1-0.2,0.1-0.4,0.1-0.4c0,0,0.1,0,0.1,0c0-0.2,0.1-0.3,0.2-0.5
		c0-0.1,0-0.2,0.1-0.2c0,0,0,0-0.1-0.1c0,0,0,0,0-0.1c0,0-0.1,0-0.1,0c-0.1-0.1-0.1-0.1,0-0.2c0.1,0,0.1,0,0.1,0c0-0.1,0-0.1,0-0.2
		c-0.1-0.2-0.1-0.2,0-0.2c0.1,0,0.1,0,0.1-0.1c0,0,0,0,0.1,0.1s0,0,0.1,0c0-0.1,0.1-0.1,0.1-0.3c0-0.1,0-0.1,0-0.1c0,0,0,0,0.1,0
		c0,0,0,0,0.1,0c0.3-0.2,0.5-0.2,0.7-0.1c0.1,0.1,0.1,0.1,0.2,0.1c0,0,0.1,0,0.1-0.1C64.9,36.6,65.1,36.6,65.2,36.7z M65.2,36.7
		c0,0.1,0.1,0.2,0.2,0.2c0,0,0.1-0.1,0.1-0.1h0c0.1,0,0.1,0,0.1,0v0.1c0,0,0.1,0.1,0.1,0.1c0.1,0.1,0.1,0.1,0.1,0.2
		c0.1,0.1,0.1,0.2,0.2,0.3s0.2,0.1,0.3,0.1c0,0.1,0,0.1-0.1,0.2l-0.1,0c0,0.1,0,0.1,0.1,0.2c0,0.1,0,0.1,0.1,0.2
		c0,0.1,0.1,0.1,0.1,0.2c0,0,0,0.1,0,0.1c0,0.1,0,0.1,0,0.1c0,0,0,0.1,0,0.1c0,0,0.1,0.1,0.1,0.1c0,0,0,0.1,0,0.1c0,0,0,0.1,0,0.1
		c0,0,0,0.1,0.1,0.1s0,0.1,0.1,0.1c0,0.2,0.1,0.3,0.1,0.3C66.9,39.8,67,40,67,40c0,0.3,0,0.4,0.1,0.5c0,0.1,0,0.2,0,0.3
		c0.1,0.1,0.1,0.2,0,0.3c0,0,0,0.1,0,0.1c0,0,0,0.1,0,0.2c0,0.1,0,0.1,0,0.2c0,0,0.1,0,0.1,0c0,0,0.1,0,0.1,0c0,0.2,0,0.4,0,0.5
		c0,0.1,0,0.1,0,0.1c0,0,0,0,0,0s0,0,0,0s0,0,0,0.1c0,0,0,0.1,0,0.1s0,0.1,0,0.2c0,0.1,0,0.3,0.1,0.5c0.1,0.2,0.1,0.4,0,0.6
		c0.1,0.1,0.2,0.3,0.2,0.5c0,0.1,0,0.1,0,0.1c0,0,0,0,0,0.1s0,0.1,0.1,0.1c0,0,0,0.1,0,0.2c0,0.1,0,0.1,0,0.2c0,0,0,0.1,0,0.1
		c0,0,0.1,0.1,0.1,0.1c0,0,0,0.1,0,0.2c0,0.1,0,0.2,0,0.2c0,0.1,0,0.1,0.1,0.2c0.1,0.1,0.1,0.1,0,0.2l0.2,0.1c0,0.1,0,0.1-0.1,0.2
		c0,0.1,0,0.1,0,0.2c0,0.1,0,0.1,0,0.1c0,0,0,0,0,0.1c0,0,0,0,0,0.1v0c0.1,0.2,0.1,0.3,0,0.3c0.1,0.3,0.1,0.5,0.1,0.6l0.1,0
		c0,0,0,0.2,0,0.5l0,0.1c0,0,0,0.1,0.1,0.2c0,0,0,0.1,0,0.2c0,0.1,0,0.2,0,0.2c0,0,0,0.1,0.1,0.2c0,0.1,0.1,0.1,0.1,0.2
		c0,0.1,0,0.2,0,0.2c0,0,0,0.1,0,0.1c0,0,0,0.1,0,0.1c0,0.1,0.1,0.1,0.1,0.1c0.1,0.2,0.1,0.3,0.1,0.3C69,49.8,69,49.9,69,50l0,0
		c0,0,0,0.1,0,0.1c0,0,0,0.1,0,0.1c0,0,0.1,0.1,0.1,0.1c0,0.1,0,0.1,0,0.2c0,0.1,0,0.1,0,0.3c0,0.1,0,0.2,0,0.3c0,0,0,0.1,0.1,0.1
		c0,0,0.1,0.1,0.1,0.1c0.1,0.2,0.1,0.4,0.1,0.4c0,0,0.1,0.1,0.2,0.1c0.1,0,0.2,0.1,0.2,0.1c0,0,0,0.1,0,0.1s0.1,0.1,0.1,0.1
		c0.1,0,0.1,0,0.2,0.1c0,0.1,0,0.2,0.1,0.3c0.1,0.1,0.1,0.2,0.1,0.3c0.1,0.1,0.1,0.1,0.1,0.1c-0.1,0.1-0.1,0.2-0.2,0.2
		c0,0,0,0.1-0.1,0.2c0,0.1,0,0.2-0.1,0.3c-0.1,0-0.1,0.1-0.1,0.1c0,0.1,0,0.1,0,0.2c0,0.1,0,0.1,0,0.1c0,0,0,0,0,0.1s0,0.1,0,0.1
		s0,0.1,0.1,0.1c0,0,0.1,0.1,0.1,0.1c0,0.1,0,0.1,0,0.2c0,0.1,0,0.2,0.1,0.2c0,0.4,0.1,0.7,0.3,0.8c-0.1,0.3,0,0.5,0.1,0.6
		c0,0.1,0,0.2,0.1,0.2c0,0,0.1,0,0.1,0c0,0,0,0,0,0c0,0,0,0.1,0,0.1c0,0.1,0,0.1,0,0.1c0,0.1,0,0.1,0,0.1S71,57,71,57
		c0,0.1,0,0.2,0.1,0.3c0.1,0.1,0.1,0.2,0.1,0.2c0,0,0.1,0.1,0.1,0.3c0,0.1,0.1,0.2,0.2,0.3c0,0.2,0.1,0.2,0.2,0.2c0,0,0,0.1,0.1,0.1
		c0,0.1,0.1,0.1,0.1,0.2c0.1,0.1,0.2,0.2,0.2,0.3c0,0,0.1,0.1,0.1,0.1c0,0,0.1,0.1,0.1,0.1c0,0,0,0.1,0,0.1c0,0.1,0,0.1,0,0.1
		c0,0.1,0,0.2,0,0.3c0,0.1,0,0.3,0,0.3c0.1,0.1,0.1,0.2,0,0.4c-0.1,0-0.2,0.1-0.2,0.2c-0.1,0-0.2,0.1-0.3,0.2S71.5,61,71.4,61
		c0,0,0,0.1,0,0.1s0,0.1,0,0.1H71c0-0.1-0.1-0.2-0.2-0.3c-0.1-0.1-0.2-0.1-0.2-0.2c-0.2,0-0.3,0-0.4-0.1c0,0,0,0.1,0,0.1
		c0,0,0,0.1,0,0.1c-0.1,0-0.1,0-0.1-0.1c0-0.1,0-0.1,0-0.1c0-0.1-0.1-0.1-0.2-0.1c-0.2-0.2-0.4-0.4-0.6-0.4c0-0.2-0.1-0.4-0.3-0.4
		c0-0.1,0-0.1,0-0.2v0c0-0.1-0.1-0.1-0.1-0.3c-0.1-0.1-0.1-0.2-0.1-0.2c-0.1,0-0.1,0-0.1,0c0.1-0.2,0-0.3-0.1-0.4
		c0-0.1,0-0.2-0.1-0.3c0,0-0.1,0-0.1,0s0,0,0,0c0,0,0-0.1,0-0.1c0-0.1,0-0.1,0-0.1c0,0,0-0.1-0.1-0.1c0-0.1,0-0.1,0-0.2l-0.2,0
		l0.1-0.2c0-0.1,0-0.2-0.1-0.2c0-0.2-0.1-0.4-0.2-0.4c0,0,0-0.1,0-0.1c0-0.1,0-0.1,0-0.1c0,0,0-0.1,0-0.1c0,0,0-0.1,0-0.1
		s0-0.1-0.1-0.2c0-0.1-0.1-0.2-0.1-0.2c-0.1-0.3-0.1-0.4-0.2-0.4c0,0,0-0.1,0-0.1c0-0.1,0-0.1,0-0.1c0,0,0-0.1-0.1-0.1
		c0,0-0.1-0.1-0.1-0.1s0-0.1,0-0.1c0-0.1,0-0.1,0-0.1s0,0,0-0.1c0,0,0,0,0-0.1c-0.1-0.1-0.1-0.2-0.1-0.2c0,0-0.1,0-0.2,0
		c-0.1,0-0.1,0-0.2,0c-0.1,0-0.2,0.1-0.2,0.1v0v0c0,0-0.1,0-0.1,0c0,0-0.1,0-0.1,0c-0.1,0-0.1,0-0.1,0.1c0,0-0.1,0-0.1-0.1
		c-0.1,0-0.1,0-0.2,0.1c-0.1,0-0.1,0.1-0.1,0.1c-0.1-0.1-0.1-0.1-0.2-0.1c-0.1,0-0.1,0.1-0.1,0.2c-0.2,0-0.3,0-0.3,0
		c-0.1-0.1-0.1-0.1-0.2-0.1c0,0-0.1,0-0.1,0.1c0,0-0.1,0-0.2-0.1c-0.1,0-0.2,0-0.3,0.2c-0.1,0-0.2,0-0.2,0c-0.1-0.1-0.2-0.1-0.4-0.1
		c-0.2,0-0.3,0.1-0.3,0.1c-0.5,0-0.7,0-0.8,0c-0.1,0-0.2,0-0.4,0c-0.2,0-0.3,0-0.4,0c0,0.1,0,0.1,0,0.2c-0.1,0-0.1,0-0.3-0.2
		c0,0-0.1,0-0.1,0.1c0,0-0.1,0-0.3,0c-0.1,0-0.2,0-0.3,0c0,0-0.1,0-0.1-0.1s-0.1,0-0.1,0c-0.1,0-0.1,0-0.2,0.1
		c-0.1-0.1-0.2-0.1-0.2-0.1c0,0-0.1,0-0.1,0.1c0,0.1-0.1,0.1-0.1,0.1c-0.1-0.1-0.1-0.2-0.1-0.2c0,0-0.1,0-0.2,0.1
		c-0.1,0.1-0.1,0.1-0.1,0.1c0,0-0.1,0.1-0.2,0.2c0,0.1,0,0.2-0.1,0.3V56c0,0-0.1,0.1-0.1,0.1c0,0-0.1,0.1-0.1,0.1
		c0,0.1,0,0.1-0.1,0.2c0,0.1-0.1,0.2-0.1,0.3c0,0,0,0,0,0c0,0,0,0,0,0v0.1c0,0,0,0.1-0.1,0.2c0,0.1-0.1,0.2-0.2,0.4
		c0.1,0.1,0,0.1,0,0.2c-0.1,0.1-0.1,0.1-0.1,0.1c0,0,0,0,0,0.1s0,0.1,0,0.1s0,0-0.1,0.1c-0.1,0-0.1,0-0.1,0.1c0,0.2-0.1,0.4-0.2,0.4
		c0,0.1,0,0.2,0,0.3l-0.2,0c-0.1,0.3-0.1,0.4-0.2,0.4c0,0.1,0,0.1,0.1,0.2c0,0,0,0.1-0.1,0.1c0,0,0,0.1-0.1,0.2
		c-0.1,0-0.1,0.1-0.2,0.3c0,0,0,0.1-0.1,0.1c0,0,0,0.1,0,0.1c0,0,0,0,0,0.1c0,0,0,0.1,0,0.1c-0.1,0.2-0.2,0.3-0.2,0.4l-0.1,0.1
		c0,0.1,0,0.1-0.1,0.2c0,0,0,0.1,0,0.1c0,0,0,0.1,0,0.1c0,0,0,0.1-0.1,0.1c0,0,0,0-0.1,0c0,0,0,0-0.1,0c0,0-0.1,0.1-0.1,0.2
		c-0.1,0-0.1,0-0.1,0.1c0,0.1-0.1,0.1-0.1,0.1c0,0-0.1,0-0.1-0.1c0,0-0.1-0.1-0.1-0.1c-0.1,0-0.1,0-0.1,0c0,0-0.1,0-0.1,0
		c0-0.1,0-0.2,0-0.2c-0.2,0-0.4,0-0.4,0c0-0.1,0-0.2-0.1-0.2c0,0-0.1,0-0.1,0c0,0-0.1,0-0.1,0c0,0,0,0,0-0.1c0,0,0-0.1,0-0.1
		c-0.1,0-0.1,0-0.1,0c0,0.1,0,0.1-0.1,0.1c0-0.1,0-0.1-0.1-0.2c-0.1-0.1-0.1-0.1-0.1-0.2c-0.1,0-0.1,0-0.1,0c0-0.1,0-0.2,0-0.2
		c0,0-0.1,0-0.1,0c0-0.1,0-0.3,0-0.4l0,0h0c0.1-0.1,0.1-0.3,0.1-0.5c-0.1-0.1-0.1-0.2-0.1-0.2h0.1h0c0,0,0-0.1,0-0.2h0.1
		c0,0,0-0.1,0-0.2c0-0.1,0-0.1,0-0.1l0.1-0.1c0-0.1,0.1-0.2,0.2-0.3c0-0.1,0-0.1,0-0.1c0,0-0.1-0.1-0.1-0.1c0.1,0,0.2-0.1,0.2-0.2
		c0,0,0.1,0,0.1-0.1c0-0.1,0-0.2,0-0.2c0-0.1,0-0.1,0-0.1c0,0,0-0.1,0-0.1c0-0.1,0-0.1,0-0.1c0,0,0-0.1,0.1-0.1
		c0-0.1,0.1-0.2,0.2-0.3c0.1-0.1,0.1-0.2,0.1-0.3c0.1-0.2,0.1-0.3,0.2-0.3c0-0.1,0-0.3,0.1-0.5c0.1-0.2,0.1-0.3,0.1-0.4
		c0.1,0,0.1,0,0.2-0.1c0.1-0.1,0.1-0.1,0.1-0.1c0-0.1,0-0.2,0.1-0.3c0.1-0.1,0.1-0.2,0.1-0.3c-0.1-0.1-0.1-0.1,0-0.2
		c0,0,0.1,0,0.1,0c0.1-0.1,0.1-0.2,0-0.3c-0.1,0-0.2,0-0.2,0c0-0.2-0.2-0.4-0.4-0.6c0,0,0,0,0.1-0.1c0,0,0.1,0,0.1-0.1
		c0-0.1,0-0.1-0.1-0.2c-0.1-0.1-0.1-0.1-0.1-0.1c0,0,0.1-0.1,0.2-0.4c0-0.1,0.1-0.2,0.2-0.3c0.1-0.1,0.2-0.1,0.2-0.2l0.5-0.1
		c0.1,0,0.2,0,0.3,0c0.2,0,0.2,0,0.2-0.1c0,0,0-0.1,0-0.1c0-0.1,0-0.1,0-0.1c0,0,0.1,0,0.1-0.1c0-0.1,0-0.1,0-0.1s0-0.1,0-0.1
		c0,0,0.1-0.1,0.1-0.1c0,0,0-0.1,0-0.1c0-0.2,0.1-0.3,0.2-0.4c0.1-0.2,0.1-0.4,0-0.5c0.1,0,0.1-0.1,0.2-0.2c0.1-0.1,0.1-0.2,0.1-0.2
		c0-0.1,0-0.2,0.1-0.3c0.1-0.1,0.1-0.2,0-0.3c0-0.1,0.1-0.1,0.1-0.2c0.1-0.1,0.1-0.2,0.1-0.2c0-0.1,0-0.2,0.1-0.3c0,0,0-0.1,0.1-0.2
		c0,0,0,0,0-0.1c0,0,0,0,0-0.1c0.1-0.1,0.1-0.1,0.1-0.2s0-0.1,0-0.1c0,0,0-0.1,0-0.1s0,0,0.1-0.1c0.1-0.2,0.1-0.3,0.2-0.4v-0.2
		c0,0,0,0,0.1-0.1c0,0,0.1,0,0.1-0.1c0,0,0-0.1,0-0.1c0-0.1,0-0.1,0-0.1c0.1-0.2,0.1-0.3,0.1-0.4c0,0,0.1-0.1,0.1-0.1
		c0,0,0.1-0.1,0.1-0.1c0,0,0-0.1,0-0.1c0-0.1,0-0.1,0-0.1c0,0,0-0.1,0.1-0.1c0,0,0.1-0.1,0.1-0.1c0,0,0-0.1,0-0.1c0-0.1,0-0.1,0-0.2
		c0.1,0,0.1-0.1,0.1-0.1c0.1-0.2,0.1-0.4,0.1-0.4c0-0.1,0-0.2,0.1-0.3c0.1-0.1,0.1-0.3,0.1-0.4c0.1,0,0.1-0.1,0.1-0.3
		c0-0.2,0.1-0.3,0.1-0.3c0-0.1,0-0.1,0.1-0.2c0-0.1,0-0.1,0.1-0.1s0-0.1,0-0.1s0-0.1,0-0.1c0,0,0.1,0,0.1-0.1c0.1,0,0.1-0.1,0.1-0.1
		c0,0,0-0.1,0-0.2c0-0.1,0-0.1,0-0.2c0,0,0,0-0.1,0c0,0-0.1,0-0.1,0c0-0.1,0-0.1,0-0.2c0.1,0,0.2,0,0.2,0c0,0,0-0.1,0-0.1
		c0,0,0-0.1,0-0.1c0,0,0-0.1,0-0.1c0,0,0.1-0.1,0.1-0.1c0-0.1,0-0.1,0-0.2c0-0.1,0-0.1,0-0.1c0-0.1,0-0.1,0.1-0.3
		c0.1-0.1,0.1-0.2,0.1-0.3c0.1-0.1,0.1-0.1,0.1-0.3c0-0.1,0-0.2,0.1-0.2c0,0,0-0.1,0-0.1c0,0,0.1-0.1,0.1-0.1c0-0.1,0.1-0.1,0.1-0.1
		c0-0.1,0-0.2,0-0.3c0.1-0.1,0.1-0.2,0.1-0.2c0,0,0-0.1,0-0.1c0,0,0-0.1,0-0.1c0,0,0-0.1,0.1-0.2c0-0.1,0-0.1,0.1-0.2
		c0.1-0.1,0.1-0.1,0.1-0.2c0,0,0-0.1,0-0.1c0-0.1,0-0.1,0-0.2c0.1-0.2,0.1-0.4,0.1-0.4c0,0,0.1,0,0.1,0c0-0.2,0.1-0.3,0.2-0.5
		c0-0.1,0-0.2,0.1-0.2c0,0,0,0-0.1-0.1c0,0,0,0,0-0.1c0,0-0.1,0-0.1,0c-0.1-0.1-0.1-0.1,0-0.2c0.1,0,0.1,0,0.1,0c0-0.1,0-0.1,0-0.2
		c-0.1-0.2-0.1-0.2,0-0.2c0.1,0,0.1,0,0.1-0.1c0,0,0,0,0.1,0.1s0,0,0.1,0c0-0.1,0.1-0.1,0.1-0.3c0-0.1,0-0.1,0-0.1c0,0,0,0,0.1,0
		c0,0,0,0,0.1,0c0.3-0.2,0.5-0.2,0.7-0.1c0.1,0.1,0.1,0.1,0.2,0.1c0,0,0.1,0,0.1-0.1C64.9,36.6,65.1,36.6,65.2,36.7z M57.4,54.7
		C57.4,54.7,57.4,54.7,57.4,54.7C57.4,54.7,57.4,54.7,57.4,54.7z M57.4,54.7C57.4,54.7,57.4,54.7,57.4,54.7
		C57.4,54.7,57.4,54.7,57.4,54.7z M64.7,42c0,0.1,0,0.1-0.1,0.1c-0.1,0-0.1,0.1-0.1,0.1c0,0,0,0.1,0,0.1c0,0.1,0,0.1,0,0.2
		c-0.1,0.1-0.1,0.1-0.1,0.1c0,0,0,0,0,0.1c0,0,0,0.1,0,0.1c0,0,0,0.1-0.1,0.1c0,0-0.1,0.1-0.1,0.1s0,0.1,0,0.2c0,0.1,0,0.2-0.1,0.2
		v0.1C64.1,43.6,64,43.8,64,44c-0.1,0.1-0.1,0.1-0.1,0.1c0,0,0,0.1,0,0.1c0,0.1,0,0.1-0.1,0.2c-0.1,0.1-0.1,0.1-0.1,0.1
		c0,0,0,0,0,0.1c0,0.1,0,0.1,0,0.1s0,0.1-0.1,0.1c0,0-0.1,0.1-0.1,0.1c0,0,0,0.1,0,0.2c0,0.1,0,0.1,0,0.2l-0.1,0.3c0,0,0,0.1,0,0.2
		c0,0,0,0.1,0,0.1l-0.1,0.3c-0.1,0-0.1,0.1-0.1,0.2s-0.1,0.2-0.1,0.3c0,0.1,0,0.1,0,0.1c-0.1,0.2-0.1,0.3-0.1,0.4
		c0,0-0.1,0.1-0.1,0.2c0,0.1-0.1,0.2-0.1,0.2l-0.1,0.3c0,0,0,0.1,0,0.1c0,0,0,0,0,0.1s0,0,0,0.1c0,0,0,0,0,0.1s0,0,0,0.1
		c0,0,0,0.1,0,0.1c0,0,0,0.1,0,0.1c-0.1,0.2-0.1,0.3-0.1,0.4c0,0.1,0,0.1-0.1,0.2c-0.1,0.1-0.1,0.1-0.1,0.2c0,0,0,0.1,0,0.1
		c0,0,0,0.1,0,0.1s0,0.1,0,0.2c0,0.1,0,0.1,0,0.2c0,0-0.1,0-0.1,0.1c0,0-0.1,0.1-0.1,0.1c0,0,0,0.1,0,0.2c0,0.1,0,0.2,0,0.2
		s-0.1,0.1-0.1,0.2c-0.1,0.1-0.1,0.2-0.1,0.4c-0.1,0-0.1,0.1-0.1,0.2c0,0.1-0.1,0.2-0.1,0.2c0,0.3,0,0.5-0.1,0.5
		c0,0.1,0,0.2-0.1,0.2c0,0-0.1,0.1-0.1,0.1c0,0,0,0.1,0,0.1c0,0,0,0.1,0,0.1c0,0,0,0.1,0,0.1c0,0.1,0.1,0.1,0.4,0c0,0,0,0,0.1,0
		s0.1,0,0.2,0c0,0,0,0,0.1,0c0,0,0,0,0.1,0c0,0,0.1,0,0.1,0c0,0,0.1,0,0.1,0c0,0,0.1,0,0.1,0c0.4,0,0.6,0,0.7-0.1
		c0.1,0.1,0.3,0.1,0.5,0c0,0,0.1,0,0.1,0c0,0,0.1-0.1,0.1-0.1c0,0,0.1,0,0.1,0c0,0,0.1,0,0.1,0c0.2,0,0.4,0,0.4,0c0,0,0.1,0,0.1,0
		c0,0,0.1,0,0.1,0c0.1,0.1,0.2,0.1,0.4,0.1l0.1-0.1c0.1,0,0.2,0,0.4,0c0.2,0,0.3,0,0.4,0C65.9,52,66,52,66,52c0.1,0,0.1,0,0.1,0
		l0.1-0.1c0,0,0.1,0,0.1,0c0.1,0,0.1,0,0.1,0s0.1,0,0.2-0.1c0.1-0.1,0.1-0.1,0.1-0.1c0,0,0-0.1,0-0.1c0-0.1,0-0.1,0-0.1
		c0,0,0,0,0-0.1c0,0,0-0.1,0-0.1c0,0,0,0,0-0.1c0,0,0-0.1,0-0.1c-0.1-0.3-0.1-0.5-0.1-0.7c0,0-0.1,0-0.1,0c0,0,0-0.1,0-0.1
		c0-0.1,0-0.1,0-0.3c0,0,0,0,0-0.1c0-0.1,0-0.1,0-0.1c0,0,0,0,0-0.1c0,0,0-0.1,0-0.1s0-0.1,0-0.1c0-0.1,0-0.1-0.1-0.2
		c0-0.1-0.1-0.1-0.1-0.2c0,0,0-0.1,0-0.1c0-0.1,0-0.1,0-0.1c0,0-0.1,0-0.1-0.1c0-0.1-0.1-0.2-0.1-0.3c-0.1,0-0.1-0.1-0.1-0.2
		s0-0.2,0-0.3c0-0.1,0-0.2-0.1-0.3c0-0.1-0.1-0.2-0.1-0.3l0-0.3c0,0,0-0.1,0-0.1s0-0.1,0-0.1c0,0,0-0.1,0-0.1s0-0.1,0-0.1
		s0-0.1,0-0.2s0-0.1,0-0.2c0,0,0-0.1,0-0.1c0-0.1,0-0.2,0-0.2c0,0-0.1-0.1-0.2-0.4c-0.1-0.1-0.1-0.1-0.1-0.1s0-0.1,0-0.1
		c0,0,0-0.1-0.1-0.1s-0.1-0.1-0.1-0.1c0,0,0-0.1,0-0.1c0,0,0-0.1,0-0.1c0-0.1,0-0.2,0-0.2c0,0,0-0.1-0.1-0.1
		c-0.1-0.1-0.1-0.1-0.1-0.2c0,0,0-0.1,0-0.1c0,0,0-0.1,0-0.1c0,0,0-0.1-0.1-0.1c0,0,0-0.1,0-0.1c0,0,0-0.1,0-0.2c0-0.1,0-0.2,0-0.2
		c0,0,0-0.1,0-0.1c0,0-0.1-0.1-0.1-0.1c0,0,0-0.1,0-0.2c0,0,0-0.1,0-0.2s0-0.2,0-0.2c-0.1-0.1-0.1-0.3-0.1-0.6
		C64.8,42.5,64.7,42.3,64.7,42L64.7,42z M64.6,42.2C64.5,42.2,64.5,42.2,64.6,42.2c-0.1,0.1-0.1,0.1-0.1,0.1c0,0,0,0.1,0,0.1
		c0,0.1,0,0.1,0,0.2c-0.1,0.1-0.1,0.1-0.1,0.1c0,0,0,0,0,0.1c0,0,0,0.1,0,0.1c0,0,0,0.1-0.1,0.1c0,0-0.1,0.1-0.1,0.1s0,0.1,0,0.2
		c0,0.1,0,0.2-0.1,0.2v0.1C64.1,43.6,64,43.8,64,44c-0.1,0.1-0.1,0.1-0.1,0.1c0,0,0,0.1,0,0.1c0,0.1,0,0.1-0.1,0.2
		c-0.1,0.1-0.1,0.1-0.1,0.1c0,0,0,0,0,0.1c0,0.1,0,0.1,0,0.1s0,0.1-0.1,0.1c0,0-0.1,0.1-0.1,0.1c0,0,0,0.1,0,0.2c0,0.1,0,0.1,0,0.2
		l-0.1,0.3c0,0,0,0.1,0,0.2c0,0,0,0.1,0,0.1l-0.1,0.3c-0.1,0-0.1,0.1-0.1,0.2s-0.1,0.2-0.1,0.3c0,0.1,0,0.1,0,0.1
		c-0.1,0.2-0.1,0.3-0.1,0.4c0,0-0.1,0.1-0.1,0.2c0,0.1-0.1,0.2-0.1,0.2l-0.1,0.3c0,0,0,0.1,0,0.1c0,0,0,0,0,0.1s0,0,0,0.1
		c0,0,0,0,0,0.1s0,0,0,0.1c0,0,0,0.1,0,0.1c0,0,0,0.1,0,0.1c-0.1,0.2-0.1,0.3-0.1,0.4c0,0.1,0,0.1-0.1,0.2c-0.1,0.1-0.1,0.1-0.1,0.2
		c0,0,0,0.1,0,0.1c0,0,0,0.1,0,0.1s0,0.1,0,0.2c0,0.1,0,0.1,0,0.2c0,0-0.1,0-0.1,0.1c0,0-0.1,0.1-0.1,0.1c0,0.1,0,0.1,0,0.2
		c0,0.1,0,0.2,0,0.2s-0.1,0.1-0.1,0.2c-0.1,0.1-0.1,0.2-0.1,0.4c-0.1,0-0.1,0.1-0.1,0.2c0,0.1-0.1,0.2-0.1,0.2c0,0.3,0,0.5-0.1,0.5
		c0,0.1,0,0.2-0.1,0.2c0,0-0.1,0.1-0.1,0.1c0,0,0,0.1,0,0.1c0,0,0,0.1,0,0.1c0,0,0,0.1,0,0.1c0,0.1,0.1,0.1,0.4,0c0,0,0.1,0,0.3,0
		c0,0,0,0,0.1,0c0,0,0,0,0.1,0c0,0,0.1,0,0.1,0c0,0,0.1,0,0.1,0c0,0,0.1,0,0.1,0c0.4,0,0.6,0,0.7-0.1c0.1,0.1,0.3,0.1,0.5,0
		c0,0,0.1,0,0.1,0c0,0,0.1-0.1,0.1-0.1c0,0,0.1,0,0.1,0c0,0,0.1,0,0.1,0c0.2,0,0.4,0,0.4,0c0,0,0.1,0,0.1,0c0,0,0.1,0,0.1,0
		c0.1,0.1,0.2,0.1,0.4,0.1l0.1-0.1c0.1,0,0.2,0,0.4,0c0.2,0,0.3,0,0.4,0C65.9,52,66,52,66,52c0.1,0,0.1,0,0.1,0l0.1-0.1
		c0,0,0.1,0,0.1,0c0.1,0,0.1,0,0.1,0s0.1,0,0.2-0.1c0.1-0.1,0.1-0.1,0.1-0.1c0,0,0-0.1,0-0.1c0-0.1,0-0.1,0-0.1c0,0,0,0,0-0.1
		c0,0,0-0.1,0-0.1c0,0,0,0,0-0.1c0,0,0-0.1,0-0.1c-0.1-0.3-0.1-0.5-0.1-0.7c0,0-0.1,0-0.1,0c0,0,0-0.1,0-0.1c0-0.1,0-0.1,0-0.3
		c0,0,0,0,0-0.1c0-0.1,0-0.1,0-0.1c0,0,0,0,0-0.1c0,0,0-0.1,0-0.1s0-0.1,0-0.1c0-0.1,0-0.1-0.1-0.2c0-0.1-0.1-0.1-0.1-0.2
		c0,0,0-0.1,0-0.1c0-0.1,0-0.1,0-0.1c0,0-0.1,0-0.1-0.1c0-0.1-0.1-0.2-0.1-0.3c-0.1,0-0.1-0.1-0.1-0.2s0-0.2,0-0.3
		c0-0.1,0-0.2-0.1-0.3c0-0.1-0.1-0.2-0.1-0.3l0-0.3c0,0,0-0.1,0-0.1s0-0.1,0-0.1c0,0,0-0.1,0-0.1s0-0.1,0-0.1s0-0.1,0-0.2
		s0-0.1,0-0.2c0,0,0-0.1,0-0.1c0-0.1,0-0.2,0-0.2c0,0-0.1-0.1-0.2-0.4c-0.1-0.1-0.1-0.1-0.1-0.1s0-0.1,0-0.1c0,0,0-0.1-0.1-0.1
		s-0.1-0.1-0.1-0.1c0,0,0-0.1,0-0.1c0,0,0-0.1,0-0.1c0-0.1,0-0.2,0-0.2c0,0,0-0.1-0.1-0.1c-0.1-0.1-0.1-0.1-0.1-0.2c0,0,0-0.1,0-0.1
		c0,0,0-0.1,0-0.1c0,0,0-0.1-0.1-0.1c0,0,0-0.1,0-0.1c0,0,0-0.1,0-0.2c0-0.1,0-0.2,0-0.2c0,0,0-0.1,0-0.1c0,0-0.1-0.1-0.1-0.1
		c0,0,0-0.1,0-0.2c0,0,0-0.1,0-0.2s0-0.2,0-0.2c-0.1-0.1-0.1-0.3-0.1-0.6c-0.1,0-0.1-0.2-0.2-0.5h0C64.7,42.1,64.7,42.1,64.6,42.2z
		 M66.1,54.9C66.1,54.9,66.1,54.8,66.1,54.9C66.1,54.8,66.1,54.8,66.1,54.9z M66.1,54.8C66.1,54.8,66.1,54.8,66.1,54.8
		C66.1,54.9,66.1,54.8,66.1,54.8z M66.6,38.2c0,0,0,0.1,0,0.1C66.6,38.3,66.5,38.3,66.6,38.2C66.5,38.2,66.6,38.2,66.6,38.2z
		 M66.5,38.2C66.5,38.2,66.6,38.2,66.5,38.2C66.6,38.2,66.6,38.3,66.5,38.2C66.6,38.3,66.5,38.3,66.5,38.2z"/>
	<path fill="#D93427" d="M74.8,42.5c0.1,0.1,0.1,0.1,0.1,0.1c0-0.1,0.1-0.1,0.3-0.1c0.1,0,0.2,0,0.3,0s0.1,0,0.1,0c0,0,0.1,0,0.1,0
		s0.1,0,0.1,0c0.1,0,0.1,0,0.1,0c0.1,0,0.1,0,0.3,0c0.1,0,0.2,0,0.3,0c0,0,0.1,0,0.1,0c0.1,0,0.1,0,0.1,0l0.1,0c0,0,0.1,0,0.2-0.1
		c0.4,0,0.6,0.1,0.6,0.1c0.1,0,0.1,0,0.3,0c0.1,0,0.1,0,0.1,0c0,0,0.1,0,0.2,0c0.1,0,0.2,0,0.2,0c0.1,0,0.1,0,0.1,0s0.1,0,0.2,0
		c0.1,0,0.2,0,0.2,0s0.1,0,0.1,0c0.1,0,0.1,0,0.2,0c0,0,0.1,0,0.1,0c0,0,0.1,0,0.2,0c0.1,0,0.1,0,0.2,0c0,0,0.1,0.1,0.1,0.1
		c0,0,0.1,0,0.1,0l0.1,0c0.1,0,0.2,0,0.3,0c0.1,0,0.2,0,0.3,0c0,0,0.1,0,0.2,0.1c0.1,0,0.2,0,0.2-0.1c0,0,0,0,0.1,0c0,0,0,0,0.1,0
		c0.1,0,0.3,0,0.5,0.1c0.3,0.1,0.5,0.1,0.7,0c0.1-0.1,0.2-0.1,0.2-0.1c0,0,0,0.1,0,0.1c0.1,0.1,0.1,0.1,0.2,0.1c0,0,0.1,0,0.2,0
		c0.1,0,0.1,0,0.2,0c0,0,0.1,0,0.1,0c0.1,0.1,0.1,0.1,0.2,0c0.1,0.1,0.1,0.1,0.1,0.1c0.1-0.1,0.2,0,0.2,0c0.1-0.1,0.2-0.1,0.4-0.1
		v0.1c0,0,0.2,0.1,0.5,0.1c0,0.1,0.1,0.1,0.3,0.1c0.1,0,0.2,0,0.3,0.1h0.1c0.5,0.3,0.8,0.5,0.9,0.6h0.1c0,0.1,0.1,0.2,0.2,0.2
		c0.1,0,0.2,0.1,0.2,0.1c0.1,0.1,0.1,0.1,0.2,0.2c0.1,0.1,0.1,0.1,0.2,0.2c0,0.1,0,0.1,0.1,0.2c0.1,0.1,0.1,0.1,0.1,0.2
		c0.1,0.1,0.2,0.1,0.2,0.2c0,0.1,0,0.1,0,0.1c0,0,0,0,0.1,0.1c0,0.1,0.1,0.1,0.1,0.1c0,0.2,0,0.3,0,0.3s0,0,0,0.1c0,0,0,0.1,0.1,0.1
		c0,0,0,0.1,0,0.2c0,0.1,0,0.1,0.1,0.2c0,0,0,0,0.1,0c0,0,0.1,0,0.1,0c0,0,0,0.1,0,0.1s-0.1,0-0.1,0c0,0.1,0,0.1,0,0.2
		c0,0.1,0,0.2,0,0.2l0,0.1c0,0.1,0,0.2,0,0.4s0,0.3,0,0.3c-0.1,0.1-0.1,0.1-0.1,0.2c0,0.1,0,0.2,0,0.2c-0.1,0.1-0.1,0.1-0.1,0.1
		c0,0.1-0.1,0.1-0.1,0.2c0,0.1,0,0.1,0,0.1c-0.1,0.1-0.1,0.2-0.1,0.3c0,0-0.1,0.1-0.2,0.2c-0.1,0.1-0.2,0.2-0.2,0.3c0,0,0,0.1,0,0.1
		c0,0,0,0.1-0.1,0.1c0,0-0.1,0.1-0.1,0.1c-0.2,0.1-0.4,0.4-0.4,0.7c0,0,0,0-0.1,0c0,0,0,0-0.1,0c-0.1,0-0.1,0.1-0.1,0.2
		c-0.3,0.2-0.5,0.4-0.5,0.5c-0.1,0.1-0.2,0.1-0.2,0.2c-0.3,0.2-0.6,0.4-0.7,0.6c-0.1,0-0.2,0.1-0.3,0.2c0,0-0.1,0.1-0.2,0.1
		c-0.1,0.1-0.1,0.1-0.2,0.1c-0.2,0.1-0.2,0.1-0.2,0.2c0,0.1,0,0.1,0.1,0.1c0,0,0.1,0.1,0.1,0.1c0,0,0.1,0.1,0.1,0.1
		c0.1,0,0.1,0,0.1,0.1c0,0,0,0,0.1,0.1c0,0,0.1,0,0.1,0c0.1,0,0.1,0,0.1,0c0,0,0,0,0.1,0.1c0.1,0,0.1,0.1,0.1,0.1s0.1,0,0.1,0
		c0,0,0,0.1,0,0.1h0.2c0.1,0.1,0.2,0.1,0.2,0.1c0.1,0.1,0.1,0.1,0.3,0.2c0.1,0.1,0.2,0.1,0.3,0.2h0.1c0,0,0.1,0,0.1,0.1
		c0,0,0.1,0.1,0.1,0.1h0.2c0,0,0.1,0.1,0.1,0.1c0.1,0.1,0.2,0.2,0.3,0.2c0.1,0.1,0.2,0.1,0.3,0.1c0.1,0.2,0.3,0.3,0.4,0.2
		c0,0,0.1,0.1,0.1,0.2c0.2,0.1,0.4,0.3,0.6,0.4h0.1c0.2,0.2,0.4,0.3,0.4,0.3c0,0.1,0.1,0.1,0.2,0.1c0.1,0,0.2,0.1,0.2,0.2
		c0.1,0,0.1,0,0.2,0.1c0.1,0.1,0.1,0.1,0.2,0.1c0.1,0.1,0.2,0.2,0.5,0.4c0.2,0.1,0.4,0.3,0.5,0.4h0.1c0,0,0.1,0,0.1,0.1
		c0.1,0.1,0.1,0.1,0.1,0.1c0,0,0.1,0,0.1,0s0.1,0,0.1,0c0,0.1,0.1,0.2,0.4,0.3c0.1,0.1,0.2,0.1,0.2,0c0.1,0,0.2,0,0.2,0
		c0.1,0.1,0.2,0.1,0.3,0.1c0.1-0.1,0.1-0.1,0.1-0.1c0,0,0.1,0,0.1,0.1c0.2-0.1,0.3,0,0.4,0.1c0.1,0.1,0.1,0.2,0.1,0.2
		c0,0,0,0.1,0.1,0.1c0,0,0.1,0,0.1,0c0,0,0.1,0.1,0.1,0.2c0,0.1,0.1,0.2,0.1,0.2v0.2c0,0,0,0.1,0,0.1c0,0,0,0.1,0,0.1
		c0,0,0.1,0.1,0.2,0.1c0.1,0.1,0.1,0.1,0.1,0.1c0,0,0,0.1,0,0.2c0.1,0.2,0.1,0.4,0,0.4c0,0,0,0.1,0.1,0.2c0,0.1,0,0.2,0,0.4
		s0,0.3,0,0.4h-0.3c-0.1,0-0.1,0.1-0.1,0.1c0,0.1-0.1,0.1-0.1,0.1c0,0,0,0-0.1,0.1c0,0-0.1,0-0.1,0.1c0.1,0.1,0.1,0.1,0.1,0.1
		c0,0-0.1,0-0.1,0.1c-0.1,0-0.1,0-0.1,0.1c0,0,0,0,0,0.1s0,0,0,0.1c-0.1,0.1-0.1,0.1-0.2,0c-0.1-0.1-0.1-0.1-0.1-0.1s-0.1,0-0.2,0.1
		c-0.1,0.1-0.2,0.1-0.2,0.1C92.1,61.1,92,61,92,61c0,0-0.1,0-0.1,0c0,0-0.1,0-0.1,0c0-0.1,0-0.2-0.1-0.2c0,0-0.1,0-0.1,0
		c0,0,0,0,0,0c0,0,0,0,0-0.1c0-0.1-0.1-0.1-0.2-0.2c0,0-0.1,0-0.1,0c0,0-0.1,0-0.1,0c-0.1-0.2-0.2-0.3-0.4-0.4h-0.1
		c-0.1,0-0.1-0.1-0.2-0.2c-0.1-0.1-0.3-0.2-0.4-0.2c0,0-0.1-0.1-0.1-0.1c-0.1-0.1-0.1-0.1-0.1-0.1c-0.1,0.1-0.1,0.1-0.1,0.1
		c0,0,0,0-0.1-0.1c0-0.1,0-0.1-0.1-0.1s-0.1,0-0.1-0.1c-0.1,0-0.1-0.1-0.1-0.1c0-0.1-0.1-0.2-0.2-0.1c0-0.1,0-0.1,0-0.1
		c-0.2-0.1-0.3-0.2-0.3-0.3c0,0-0.2-0.1-0.6-0.4c0,0,0,0-0.1,0c0,0,0,0-0.1,0c0-0.1-0.1-0.1-0.2-0.3c-0.1,0-0.2-0.1-0.4-0.2
		c0,0-0.1,0-0.1,0s-0.1,0-0.1,0s0,0,0-0.1c0,0,0-0.1,0-0.1s-0.1,0-0.1,0s-0.1,0-0.1,0c-0.1,0-0.1-0.1-0.2-0.2
		c-0.1-0.1-0.1-0.1-0.1-0.1c0,0,0-0.1-0.1-0.1c-0.1,0-0.1-0.1-0.1-0.1c-0.1,0-0.2-0.1-0.3-0.2c-0.1-0.1-0.2-0.2-0.3-0.2
		c-0.1,0-0.1,0-0.1,0c0-0.1-0.1-0.1-0.2-0.2c0-0.1-0.1-0.1-0.3-0.2c0,0-0.1,0-0.1,0s0,0-0.1-0.1s0,0-0.1,0s0,0-0.1,0
		c0,0,0,0-0.1-0.1s-0.1,0-0.1,0c-0.1,0-0.2,0-0.2,0c0,0-0.1,0-0.1-0.1c-0.1-0.1-0.1-0.1-0.2-0.1c-0.1,0.1-0.1,0.1-0.1,0
		c0,0,0,0,0-0.1c0,0,0-0.1,0-0.1c0,0-0.1,0-0.1,0c0,0-0.1,0-0.1,0c0,0,0-0.1-0.1-0.1c0,0,0-0.1-0.1-0.1h-0.2l-0.1-0.1
		c-0.1,0-0.1,0-0.2-0.1c-0.1-0.1-0.1-0.1-0.2,0c0-0.1-0.1-0.1-0.2-0.1c-0.1,0-0.2-0.1-0.2-0.1c-0.1,0-0.2,0-0.3-0.1
		c-0.1,0-0.2-0.1-0.3-0.2c-0.1,0-0.1,0-0.3,0.1c0,0,0,0,0,0c0,0,0-0.1,0-0.1c0,0-0.1,0-0.2,0c0,0,0,0,0-0.1s0,0,0-0.1
		c-0.2-0.2-0.4-0.2-0.6-0.2c-0.1-0.1-0.2-0.2-0.4-0.2c0,0-0.1-0.1-0.2-0.1c0,0-0.1,0-0.1-0.1c-0.1,0-0.1,0.1-0.1,0.2
		c0,0.2,0,0.3,0,0.4c0,0,0,0.1,0.1,0.1s0,0,0,0.1c0,0,0,0,0,0.1c0,0.1,0,0.1,0,0.1c0,0.4,0,0.6,0.1,0.6l0,0.3v0.1c0,0,0,0.1,0.1,0.2
		c0,0.1,0,0.1,0,0.2c0,0.1,0,0.1,0,0.1c0,0,0.1,0.1,0.1,0.1c0,0.1,0.1,0.1,0.1,0.1c0,0.1,0,0.1,0,0.3c0,0.1,0,0.2,0,0.3
		c0,0,0,0,0.1,0.1c0,0,0.1,0,0.1,0.1c0,0.2,0,0.4,0,0.4c0,0.1,0,0.2,0.1,0.3c0,0,0,0.1,0,0.3c0,0.1,0,0.3,0,0.3c0,0,0.1,0,0.1,0
		c0,0,0.1,0.1,0.1,0.1c0,0.1,0,0.1-0.1,0.2c0,0,0,0.1,0,0.1s0,0.1,0,0.3c0,0.1,0,0.3,0,0.5c0,0.3,0,0.4,0,0.4c0,0,0,0.1,0,0.1
		c0,0,0,0-0.1,0s0,0-0.1,0.1c0,0.1-0.1,0.1-0.1,0.2c-0.1,0.1-0.1,0.1-0.1,0.2c-0.1,0-0.1,0-0.2,0c-0.2,0.1-0.3,0.2-0.3,0.3
		c0,0,0,0-0.1,0s0,0-0.1,0c0,0,0,0,0,0.1c0,0,0,0-0.1,0c0,0,0,0-0.1-0.1c-0.1,0-0.1,0-0.2,0C79.4,62,79.3,62,79.3,62
		c0-0.1,0-0.2-0.1-0.2c-0.2,0-0.3-0.1-0.5-0.3c-0.1,0-0.1,0-0.1,0c0,0-0.1,0-0.1,0c0.1-0.1,0-0.2-0.2-0.3c-0.2-0.1-0.2-0.1-0.2-0.2
		c0,0,0,0-0.1,0c0,0,0,0-0.1,0c-0.1-0.1,0-0.2,0.1-0.2c0-0.1,0-0.1,0-0.2c0-0.1,0-0.1,0-0.1s0-0.1,0-0.1c0,0-0.1-0.1-0.1-0.1
		c0,0-0.1,0-0.1,0c0,0,0-0.1,0.1-0.1c0.1-0.2,0.1-0.4,0-0.4v-0.4C78,59.2,78,59.1,78,59c0-0.1,0-0.2-0.1-0.3c0-0.1,0-0.2,0-0.3
		c0-0.1,0-0.2,0-0.3c0-0.1-0.1-0.1-0.1-0.1c0-0.1,0-0.2,0-0.3c0-0.2,0-0.3-0.1-0.3c0-0.1,0-0.1,0-0.2c0-0.1,0-0.2,0-0.2
		c0,0,0-0.1-0.1-0.1c0-0.1-0.1-0.1-0.1-0.1c0-0.1,0-0.1,0-0.3c0-0.1,0-0.2,0-0.3c0-0.1-0.1-0.1-0.1-0.2s-0.1-0.1-0.1-0.2
		c0-0.1,0-0.2,0-0.3c0-0.2,0-0.3,0-0.3c0-0.1,0-0.2-0.1-0.2c0,0,0-0.2,0-0.4c0,0,0-0.1,0-0.1c0,0,0-0.1,0-0.1c0,0,0-0.1,0-0.1
		c0-0.1,0-0.1,0-0.1c0,0,0-0.1-0.1-0.1c0,0,0,0-0.1,0c0-0.1,0-0.2,0-0.3c0-0.1,0-0.2,0-0.3c0,0,0-0.1-0.1-0.2c0-0.1,0-0.1,0-0.2
		c0-0.1,0-0.2,0-0.2c0,0,0-0.1,0-0.2c0-0.1,0-0.1,0-0.1c0,0,0-0.1,0-0.1s0-0.1,0-0.1c0-0.1,0-0.1,0-0.1c0,0,0-0.1,0-0.1
		c0,0,0-0.1,0-0.1c0-0.1-0.1-0.1-0.2-0.1c0-0.1,0-0.1,0-0.1c0,0,0,0,0.1,0c0,0,0,0,0.1,0l0-0.2c0-0.1,0-0.2,0-0.4s0-0.3,0-0.4
		c-0.1-0.1-0.1-0.1-0.1-0.1c0,0,0-0.1,0-0.1c0,0,0-0.1,0-0.1c0,0,0-0.1,0-0.1c0,0,0-0.1,0-0.1c0-0.2-0.1-0.2-0.1-0.2l0-0.1
		c0,0,0-0.1,0-0.4c0,0,0-0.1-0.1-0.2c0-0.1,0-0.2,0-0.2c0,0,0-0.1,0-0.1s0-0.1,0-0.1c0,0,0-0.1,0-0.1c0,0,0-0.1,0-0.1
		c0,0,0-0.1,0-0.1c-0.1-0.1-0.1-0.2,0-0.3c-0.1-0.1-0.1-0.2-0.1-0.3c0-0.1,0-0.3-0.1-0.3l0,0c0,0-0.1,0-0.1,0c0,0,0-0.1,0-0.1l0,0
		c0-0.1,0-0.1,0-0.3c0-0.1,0-0.2,0-0.2s0-0.1,0-0.1c0-0.2,0-0.3,0-0.3c0,0-0.1,0-0.1,0c0,0,0,0,0,0c0,0,0,0,0-0.1c0,0,0,0,0-0.1
		c0-0.1,0-0.1,0-0.3c0-0.1,0-0.2,0-0.3c0,0,0,0,0-0.1c0,0,0,0,0-0.1c0,0,0-0.1-0.1-0.2c0-0.1,0-0.1,0-0.2c-0.1,0-0.2,0-0.4-0.1
		c-0.1,0-0.2,0-0.3,0l-0.2-0.2c0-0.1-0.1-0.1-0.3-0.2c0,0-0.1-0.1-0.1-0.2c-0.1-0.1-0.1-0.2-0.1-0.2c-0.1-0.1-0.2-0.2-0.3-0.2
		c-0.1-0.1-0.1-0.2-0.1-0.3c0-0.1,0-0.2,0-0.3s0-0.2,0-0.4c0-0.1,0-0.1,0.1-0.3c0.1-0.1,0.1-0.2,0.1-0.3c0.1-0.1,0.1-0.1,0.1-0.1
		s0,0,0-0.1c0,0,0,0,0,0s0.1,0,0.2,0C74.7,42.6,74.8,42.6,74.8,42.5z M74.4,42.6c0.2,0,0.4-0.1,0.3-0.2c0.1,0.1,0.1,0.1,0.1,0.1
		c0-0.1,0.1-0.1,0.3-0.1c0.1,0,0.2,0,0.3,0s0.1,0,0.1,0c0,0,0.1,0,0.1,0s0.1,0,0.1,0c0.1,0,0.1,0,0.1,0c0.1,0,0.1,0,0.3,0
		c0.1,0,0.2,0,0.3,0c0,0,0.1,0,0.1,0c0.1,0,0.1,0,0.1,0l0.1,0c0,0,0.1,0,0.2-0.1c0.4,0,0.6,0.1,0.6,0.1c0.1,0,0.2,0,0.3,0
		c0.1,0,0.1,0,0.1,0c0,0,0.1,0,0.2,0c0.1,0,0.2,0,0.2,0c0.1,0,0.1,0,0.1,0s0.1,0,0.2,0c0.1,0,0.2,0,0.2,0s0.1,0,0.1,0.1
		c0.1,0,0.1,0,0.2,0c0,0,0.1,0,0.1,0c0,0,0.1,0,0.2,0c0.1,0,0.1,0,0.2,0c0,0,0.1,0.1,0.1,0.1c0,0,0.1,0,0.1,0l0.1,0
		c0.1,0,0.2,0,0.3,0c0.1,0,0.2,0,0.3,0c0,0,0.1,0,0.2,0.1c0.1,0,0.2,0,0.2-0.1c0,0,0,0,0.1,0c0,0,0,0,0.1,0c0.1,0,0.3,0,0.5,0.1
		c0.3,0.1,0.5,0.1,0.7,0c0.1-0.1,0.2-0.1,0.2-0.1c0,0,0,0.1,0,0.1c0.1,0.1,0.1,0.1,0.2,0.1c0,0,0.1,0,0.2,0c0.1,0,0.1,0,0.2,0
		c0,0,0.1,0,0.1,0c0.1,0.1,0.1,0.1,0.2,0c0.1,0.1,0.1,0.1,0.1,0.1c0.1-0.1,0.2,0,0.2,0c0.1-0.1,0.2-0.1,0.4-0.1v0.1
		c0,0,0.2,0.1,0.5,0.1c0,0.1,0.1,0.1,0.3,0.1c0.1,0,0.2,0,0.3,0.1h0.1c0.5,0.3,0.8,0.5,0.9,0.6h0.1c0,0.1,0.1,0.2,0.2,0.2
		c0.1,0,0.2,0.1,0.2,0.1c0.1,0.1,0.1,0.1,0.2,0.2c0.1,0.1,0.1,0.1,0.2,0.2c0,0.1,0,0.1,0.1,0.2c0.1,0.1,0.1,0.1,0.1,0.2
		c0.1,0.1,0.2,0.1,0.2,0.2c0,0.1,0,0.1,0,0.1c0,0,0,0,0.1,0.1c0,0.1,0.1,0.1,0.1,0.1c0,0.2,0,0.3,0,0.3s0,0,0,0.1c0,0,0,0.1,0.1,0.1
		c0,0,0,0.1,0,0.2c0,0.1,0,0.1,0.1,0.2c0,0,0,0,0.1,0c0,0,0.1,0,0.1,0c0,0,0,0.1,0,0.1s-0.1,0-0.1,0c0,0.1,0,0.1,0,0.2
		c0,0.1,0,0.2,0,0.2l0,0.1c0,0.1,0,0.2,0,0.4s0,0.3,0,0.3c-0.1,0.1-0.1,0.1-0.1,0.2c0,0.1,0,0.2,0,0.2c-0.1,0.1-0.1,0.1-0.1,0.1
		c0,0.1-0.1,0.1-0.1,0.2c0,0.1,0,0.1,0,0.1c-0.1,0.1-0.1,0.2-0.1,0.3c0,0-0.1,0.1-0.2,0.2c-0.1,0.1-0.2,0.2-0.2,0.3c0,0,0,0.1,0,0.1
		c0,0,0,0.1-0.1,0.1c0,0-0.1,0.1-0.1,0.1c-0.2,0.1-0.4,0.4-0.4,0.7c0,0,0,0-0.1,0c0,0,0,0-0.1,0c-0.1,0-0.1,0.1-0.1,0.2
		c-0.3,0.2-0.5,0.4-0.5,0.5c-0.1,0.1-0.2,0.1-0.2,0.2c-0.3,0.2-0.6,0.4-0.7,0.6c-0.1,0-0.2,0.1-0.3,0.2c0,0-0.1,0.1-0.2,0.1
		c-0.1,0.1-0.1,0.1-0.2,0.1c-0.2,0.1-0.2,0.1-0.2,0.2c0,0.1,0,0.1,0.1,0.1c0,0,0.1,0.1,0.1,0.1c0,0,0.1,0.1,0.1,0.1
		c0.1,0,0.1,0,0.1,0.1c0,0,0,0,0.1,0.1c0,0,0.1,0,0.1,0c0.1,0,0.1,0,0.1,0c0,0,0,0,0.1,0.1c0.1,0,0.1,0.1,0.1,0.1s0.1,0,0.1,0
		c0,0,0,0.1,0,0.1h0.2c0.1,0.1,0.2,0.1,0.2,0.1c0.1,0.1,0.1,0.1,0.3,0.2c0.1,0.1,0.2,0.1,0.3,0.2h0.1c0,0,0.1,0,0.1,0.1
		c0,0,0.1,0.1,0.1,0.1h0.2c0,0,0.1,0.1,0.1,0.1c0.1,0.1,0.2,0.2,0.3,0.2c0.1,0.1,0.2,0.1,0.3,0.1c0.1,0.2,0.3,0.3,0.4,0.2
		c0,0,0.1,0.1,0.1,0.2c0.2,0.1,0.4,0.3,0.6,0.4h0.1c0.2,0.2,0.4,0.3,0.4,0.3c0,0.1,0.1,0.1,0.2,0.1c0.1,0,0.2,0.1,0.2,0.2
		c0.1,0,0.1,0,0.2,0.1c0.1,0.1,0.1,0.1,0.2,0.1c0.1,0.1,0.2,0.2,0.5,0.4c0.2,0.1,0.4,0.3,0.5,0.4h0.1c0.2,0.1,0.3,0.2,0.3,0.2
		c0,0,0.1,0,0.1,0s0.1,0,0.1,0c0,0.1,0.1,0.2,0.4,0.3c0.1,0.1,0.2,0.1,0.2,0c0.1,0,0.2,0,0.2,0c0.1,0.1,0.2,0.1,0.3,0.1
		c0.1-0.1,0.1-0.1,0.1-0.1c0,0,0.1,0,0.1,0.1c0.2-0.1,0.3,0,0.4,0.1c0.1,0.1,0.1,0.2,0.1,0.2c0,0,0,0.1,0.1,0.1c0,0,0.1,0,0.1,0
		c0,0,0.1,0.1,0.1,0.2c0,0.1,0.1,0.2,0.1,0.2v0.2c0,0,0,0.1,0,0.1c0,0,0,0.1,0,0.1c0,0,0.1,0.1,0.2,0.1c0.1,0.1,0.1,0.1,0.1,0.1
		c0,0,0,0.1,0,0.2c0.1,0.2,0.1,0.4,0,0.4c0,0,0,0.1,0.1,0.2c0,0.1,0,0.2,0,0.4s0,0.3,0,0.4h-0.3c-0.1,0-0.1,0.1-0.1,0.1
		c0,0.1-0.1,0.1-0.1,0.1c0,0,0,0-0.1,0.1c0,0-0.1,0-0.1,0.1c0.1,0.1,0.1,0.1,0.1,0.1c0,0-0.1,0-0.1,0.1c-0.1,0-0.1,0-0.1,0.1
		c0,0,0,0,0,0.1s0,0,0,0.1c-0.1,0.1-0.1,0.1-0.2,0c-0.1-0.1-0.1-0.1-0.1-0.1s-0.1,0-0.2,0.1c-0.1,0.1-0.2,0.1-0.2,0.1
		C92.1,61.1,92,61,92,61c0,0-0.1,0-0.1,0c0,0-0.1,0-0.1,0c0-0.1,0-0.2-0.1-0.2c0,0-0.1,0-0.1,0c0,0,0,0,0,0c0,0,0,0,0-0.1
		c0-0.1-0.1-0.1-0.2-0.2c0,0-0.1,0-0.1,0c0,0-0.1,0-0.1,0c-0.1-0.2-0.2-0.3-0.4-0.4h-0.1c-0.1,0-0.1-0.1-0.2-0.2
		c-0.1-0.1-0.3-0.2-0.4-0.2c0,0-0.1-0.1-0.1-0.1c-0.1-0.1-0.1-0.1-0.1-0.1c-0.1,0.1-0.1,0.1-0.1,0.1c0,0,0,0-0.1-0.1
		c0-0.1,0-0.1-0.1-0.1s-0.1,0-0.1-0.1c-0.1,0-0.1-0.1-0.1-0.1c0-0.1-0.1-0.2-0.2-0.1c0-0.1,0-0.1,0-0.1c-0.2-0.1-0.3-0.2-0.3-0.3
		c0,0-0.2-0.1-0.6-0.4c0,0,0,0-0.1,0c0,0,0,0-0.1,0c0-0.1-0.1-0.1-0.2-0.3c-0.1,0-0.2-0.1-0.4-0.2c0,0-0.1,0-0.1,0s-0.1,0-0.1,0
		s0,0,0-0.1c0,0,0-0.1,0-0.1s-0.1,0-0.1,0s-0.1,0-0.1,0c-0.1,0-0.1-0.1-0.2-0.2c-0.1-0.1-0.1-0.1-0.1-0.1c0,0,0-0.1-0.1-0.1
		c-0.1,0-0.1-0.1-0.1-0.1c-0.1,0-0.2-0.1-0.3-0.2c-0.1-0.1-0.2-0.2-0.3-0.2c-0.1,0-0.1,0-0.1,0c0-0.1-0.1-0.1-0.2-0.2
		c0-0.1-0.1-0.1-0.3-0.2c0,0-0.1,0-0.1,0s0,0-0.1-0.1s0,0-0.1,0s0,0-0.1,0c0,0,0,0-0.1-0.1s-0.1,0-0.1,0c-0.1,0-0.2,0-0.2,0
		c0,0-0.1,0-0.1-0.1c-0.1-0.1-0.1-0.1-0.2-0.1c-0.1,0.1-0.1,0.1-0.1,0c0,0,0,0,0-0.1c0,0,0-0.1,0-0.1c0,0-0.1,0-0.1,0
		c0,0-0.1,0-0.1,0c0,0,0-0.1-0.1-0.1c0,0,0-0.1-0.1-0.1h-0.2l-0.1-0.1c-0.1,0-0.1,0-0.2-0.1c-0.1-0.1-0.1-0.1-0.2,0
		c0-0.1-0.1-0.1-0.2-0.1c-0.1,0-0.2-0.1-0.2-0.1c-0.1,0-0.2,0-0.3-0.1c-0.1,0-0.2-0.1-0.3-0.2c-0.1,0-0.1,0-0.3,0.1c0,0,0,0,0,0
		c0,0,0-0.1,0-0.1c0,0-0.1,0-0.2,0c0,0,0,0,0-0.1s0,0,0-0.1c-0.2-0.2-0.4-0.2-0.6-0.2c-0.1-0.1-0.2-0.2-0.4-0.2c0,0-0.1-0.1-0.2-0.1
		c0,0-0.1,0-0.1-0.1c-0.1,0-0.1,0.1-0.1,0.2c0,0.2,0,0.3,0,0.4c0,0,0,0.1,0.1,0.1s0,0,0,0.1c0,0,0,0,0,0.1c0,0.1,0,0.1,0,0.1
		c0,0.4,0,0.6,0.1,0.6l0,0.3v0.1c0,0,0,0.1,0.1,0.2c0,0.1,0,0.1,0,0.2c0,0.1,0,0.1,0,0.1c0,0,0.1,0.1,0.1,0.1c0,0.1,0.1,0.1,0.1,0.1
		c0,0.1,0,0.1,0,0.3c0,0.1,0,0.2,0,0.3c0,0,0,0,0.1,0.1c0,0,0.1,0,0.1,0.1c0,0.2,0,0.4,0,0.4c0,0.1,0,0.2,0.1,0.3c0,0,0,0.1,0,0.3
		c0,0.1,0,0.3,0,0.3c0,0,0.1,0,0.1,0c0,0,0.1,0.1,0.1,0.1c0,0.1,0,0.1-0.1,0.2c0,0,0,0.1,0,0.1s0,0.1,0,0.3c0,0.1,0,0.3,0,0.5
		c0,0.3,0,0.4,0,0.4c0,0,0,0.1,0,0.1c0,0,0,0-0.1,0s0,0-0.1,0.1c0,0.1-0.1,0.1-0.1,0.2c-0.1,0.1-0.1,0.1-0.1,0.2c-0.1,0-0.1,0-0.2,0
		c-0.2,0.1-0.3,0.2-0.3,0.3c0,0,0,0-0.1,0s0,0-0.1,0c0,0,0,0,0,0.1c0,0,0,0-0.1,0c0,0,0,0-0.1-0.1c-0.1,0-0.1,0-0.2,0
		C79.4,62,79.3,62,79.3,62c0-0.1,0-0.2-0.1-0.2c-0.2,0-0.3-0.1-0.5-0.3c-0.1,0-0.1,0-0.1,0c0,0-0.1,0-0.1,0c0.1-0.1,0-0.2-0.2-0.3
		c-0.2-0.1-0.2-0.1-0.2-0.2c0,0,0,0-0.1,0c0,0,0,0-0.1,0c-0.1-0.1,0-0.2,0.1-0.2c0-0.1,0-0.1,0-0.2c0-0.1,0-0.1,0-0.1s0-0.1,0-0.1
		c0,0-0.1-0.1-0.1-0.1c0,0-0.1,0-0.1,0c0,0,0-0.1,0.1-0.1c0.1-0.2,0.1-0.4,0-0.4v-0.4C78,59.2,78,59.1,78,59c0-0.1,0-0.2-0.1-0.3
		c0-0.1,0-0.2,0-0.3c0-0.1,0-0.2,0-0.3c0-0.1-0.1-0.1-0.1-0.1c0-0.1,0-0.2,0-0.3c0-0.2,0-0.3-0.1-0.3c0-0.1,0-0.1,0-0.2
		c0-0.1,0-0.2,0-0.2c0,0,0-0.1-0.1-0.1c0-0.1-0.1-0.1-0.1-0.1c0-0.1,0-0.1,0-0.3c0-0.1,0-0.2,0-0.3c0-0.1-0.1-0.1-0.1-0.2
		s-0.1-0.1-0.1-0.2c0-0.1,0-0.2,0-0.3c0-0.2,0-0.3,0-0.3c0-0.1,0-0.2-0.1-0.2c0,0,0-0.2,0-0.4c0,0,0-0.1,0-0.1c0,0,0-0.1,0-0.1
		c0,0,0-0.1,0-0.1c0-0.1,0-0.1,0-0.1c0,0,0-0.1-0.1-0.1c0,0,0,0-0.1,0c0-0.1,0-0.2,0-0.3c0-0.1,0-0.2,0-0.3c0,0,0-0.1-0.1-0.2
		c0-0.1,0-0.1,0-0.2c0-0.1,0-0.2,0-0.2c0,0,0-0.1,0-0.2c0-0.1,0-0.1,0-0.1c0,0,0-0.1,0-0.1s0-0.1,0-0.1c0-0.1,0-0.1,0-0.1
		c0,0,0-0.1,0-0.1c0,0,0-0.1,0-0.1c0-0.1-0.1-0.1-0.2-0.1c0-0.1,0-0.1,0-0.1c0,0,0,0,0.1,0c0,0,0,0,0.1,0l0-0.2c0-0.1,0-0.2,0-0.4
		s0-0.3,0-0.4c-0.1-0.1-0.1-0.1-0.1-0.1c0,0,0-0.1,0-0.1c0,0,0-0.1,0-0.1c0,0,0-0.1,0-0.1c0,0,0-0.1,0-0.1c0-0.2-0.1-0.2-0.1-0.2
		l0-0.1c0,0,0-0.1,0-0.4c0,0,0-0.1-0.1-0.2c0-0.1,0-0.2,0-0.2c0,0,0-0.1,0-0.1s0-0.1,0-0.1c0,0,0-0.1,0-0.1c0,0,0-0.1,0-0.1
		c0,0,0-0.1,0-0.1c-0.1-0.1-0.1-0.2,0-0.3c-0.1-0.1-0.1-0.2-0.1-0.3c0-0.1,0-0.3-0.1-0.3l0,0c0,0-0.1,0-0.1,0c0,0,0-0.1,0-0.1l0,0
		c0-0.1,0-0.1,0-0.3c0-0.1,0-0.2,0-0.2s0-0.1,0-0.1c0-0.2,0-0.3,0-0.3c0,0-0.1,0-0.1,0c0,0,0,0,0,0c0,0,0,0,0-0.1c0,0,0,0,0-0.1
		c0-0.1,0-0.1,0-0.3c0-0.1,0-0.2,0-0.3c0,0,0,0,0-0.1c0,0,0,0,0-0.1c0,0,0-0.1-0.1-0.2c0-0.1,0-0.1,0-0.2c-0.1,0-0.2,0-0.4-0.1
		c-0.1,0-0.2,0-0.3,0l-0.2-0.2c0-0.1-0.1-0.1-0.3-0.2c0,0-0.1-0.1-0.1-0.2c-0.1-0.1-0.1-0.2-0.1-0.2c-0.1-0.1-0.2-0.2-0.3-0.2
		c-0.1-0.1-0.1-0.2-0.1-0.3c0-0.1,0-0.2,0-0.3s0-0.2,0-0.4c0-0.1,0-0.1,0.1-0.3c0.1-0.1,0.1-0.2,0.1-0.3c0.1-0.1,0.1-0.1,0.1-0.1
		s0,0,0-0.1c0,0,0,0,0,0S74.3,42.6,74.4,42.6z M78.7,45.6c0,0,0,0.1,0,0.4c0,0,0,0.1,0,0.1c0,0,0,0.1,0,0.1c0,0.1,0,0.1,0.1,0.2
		c0.1,0.1,0.1,0.1,0.1,0.2c0,0,0,0.1,0,0.1c0,0,0,0.1,0,0.1c0,0.1,0,0.1,0,0.3c0,0.1,0,0.2,0,0.3c0.1,0.1,0.1,0.2,0.1,0.3
		c0,0.1,0,0.1,0,0.2c0,0,0,0.1,0.1,0.1c0,0.1,0.1,0.1,0.1,0.2c0,0,0,0.1,0,0.2c0,0.1,0,0.2,0,0.2c0,0.2,0,0.3,0,0.3c0,0,0,0.1,0,0.1
		c0,0,0,0.1,0,0.1c0,0,0,0.1,0,0.2c0,0.1,0,0.1,0,0.2c0,0.1,0,0.1,0,0.1c0,0,0,0.1,0.1,0.1c0,0,0,0.1,0,0.1c0,0.1,0,0.1,0,0.3
		c0,0.1,0,0.2,0,0.3c0,0,0,0.1,0,0.1c0,0,0,0,0.1,0c0,0.1,0,0.2,0,0.3c0,0.1,0,0.3,0.1,0.3c-0.1,0.1-0.1,0.2,0,0.4
		c0,0.1,0.1,0.1,0.1,0.2c0,0,0.1,0,0.3,0c0.1,0,0.2,0,0.3,0c0,0,0-0.1,0-0.1c0,0,0.1,0,0.1,0s0.1,0,0.1,0c0.1,0,0.1,0,0.1,0
		s0.1,0,0.1,0c0.2,0,0.3-0.1,0.4-0.1c0,0,0.1,0,0.1,0c0.1-0.1,0.2-0.1,0.4-0.1c0.1,0,0.1,0,0.2,0c0.1,0,0.2-0.1,0.2-0.1
		c0.1-0.1,0.1-0.1,0.1-0.1c0,0,0,0,0.1,0c0.1,0,0.2-0.1,0.2-0.2c0.1-0.1,0.1-0.1,0.2-0.2c0.1,0,0.3-0.1,0.4-0.3
		c0.1-0.1,0.3-0.2,0.4-0.3c0.2-0.2,0.4-0.4,0.5-0.4c0-0.1,0.1-0.2,0.2-0.3c0.1-0.1,0.1-0.2,0.2-0.2c0.1-0.1,0.2-0.2,0.3-0.4
		c0.1-0.2,0.2-0.4,0.2-0.5c0-0.1,0-0.2,0.1-0.3c0.1-0.1,0.1-0.2,0.1-0.3c0.2-0.2,0.2-0.4,0.1-0.6c0,0,0-0.1,0-0.3
		c0-0.1-0.1-0.1-0.2-0.2c-0.1-0.1-0.2-0.1-0.2-0.2c0,0-0.1,0-0.2-0.1c-0.1,0-0.1,0-0.2,0c0-0.1-0.1-0.1-0.3-0.1c-0.1,0-0.1,0-0.2,0
		s-0.1,0-0.1-0.1c0,0-0.1-0.1-0.1-0.1c0,0-0.1,0-0.1,0c0,0-0.1,0-0.1,0c0,0-0.1,0-0.1-0.1c0-0.1-0.1-0.1-0.2,0c-0.1,0-0.2,0-0.2,0
		c-0.2-0.1-0.3-0.1-0.3,0c-0.1-0.1-0.2-0.1-0.5-0.1c-0.1,0-0.2,0-0.2,0c-0.2,0-0.3,0-0.3,0s-0.1,0-0.1,0c0,0-0.1-0.1-0.1-0.1
		c-0.2,0-0.3,0-0.4,0l-0.1,0c0,0-0.2,0-0.5,0c0,0-0.1,0-0.1-0.1c0,0-0.1-0.1-0.1-0.1c-0.1,0-0.3,0-0.4,0c-0.1,0-0.1,0-0.2-0.1
		c-0.1,0-0.2,0-0.3,0C78.9,45.5,78.8,45.6,78.7,45.6z M79.6,45.6c-0.1,0-0.1,0-0.2-0.1c-0.1,0-0.2,0-0.3,0c-0.1,0-0.2,0-0.3,0
		c0,0,0,0.1,0,0.4c0,0,0,0.1,0,0.1c0,0,0,0.1,0,0.1c0,0.1,0,0.1,0.1,0.2c0.1,0.1,0.1,0.1,0.1,0.2c0,0,0,0.1,0,0.1c0,0,0,0.1,0,0.1
		c0,0.1,0,0.1,0,0.3c0,0.1,0,0.2,0,0.3c0.1,0.1,0.1,0.2,0.1,0.3c0,0.1,0,0.1,0,0.2c0,0,0,0.1,0.1,0.1c0,0.1,0.1,0.1,0.1,0.2
		c0,0,0,0.1,0,0.2c0,0.1,0,0.2,0,0.2c0,0.2,0,0.3,0,0.3c0,0,0,0.1,0,0.1c0,0,0,0.1,0,0.1c0,0,0,0.1,0,0.2c0,0.1,0,0.1,0,0.2
		c0,0.1,0,0.1,0,0.1c0,0,0,0.1,0.1,0.1c0,0,0,0.1,0,0.1c0,0.1,0,0.1,0,0.3c0,0.1,0,0.2,0,0.3c0,0,0,0.1,0,0.1c0,0,0,0,0.1,0
		c0,0.1,0,0.2,0,0.3c0,0.1,0,0.3,0.1,0.3c-0.1,0.1-0.1,0.2,0,0.4c0,0.1,0.1,0.1,0.1,0.2c0,0,0.1,0,0.3,0c0.1,0,0.2,0,0.3,0
		c0,0,0-0.1,0-0.1c0,0,0.1,0,0.1,0s0.1,0,0.1,0c0.1,0,0.1,0,0.1,0s0.1,0,0.1,0c0.2,0,0.3-0.1,0.4-0.1c0,0,0.1,0,0.1,0
		c0.1-0.1,0.2-0.1,0.4-0.1c0.1,0,0.1,0,0.2,0c0.1,0,0.2-0.1,0.2-0.1c0.1-0.1,0.1-0.1,0.1-0.1c0,0,0,0,0.1,0c0.1,0,0.2-0.1,0.2-0.2
		c0.1-0.1,0.1-0.1,0.2-0.2c0.1,0,0.3-0.1,0.4-0.3c0.1-0.1,0.3-0.2,0.4-0.3c0.2-0.2,0.4-0.4,0.5-0.4c0-0.1,0.1-0.2,0.2-0.3
		c0.1-0.1,0.1-0.2,0.2-0.2c0.1-0.1,0.2-0.2,0.3-0.4c0.1-0.2,0.2-0.4,0.2-0.5c0-0.1,0-0.2,0.1-0.3c0.1-0.1,0.1-0.2,0.1-0.3
		c0.2-0.2,0.2-0.4,0.1-0.6c0,0,0-0.1,0-0.3c0-0.1-0.1-0.1-0.2-0.2c-0.1-0.1-0.2-0.1-0.2-0.2c0,0-0.1,0-0.2-0.1c-0.1,0-0.1,0-0.2,0
		c0-0.1-0.1-0.1-0.3-0.1c-0.1,0-0.1,0-0.2,0s-0.1,0-0.1-0.1c0,0-0.1-0.1-0.1-0.1c0,0-0.1,0-0.1,0c0,0-0.1,0-0.1,0c0,0-0.1,0-0.1-0.1
		c0-0.1-0.1-0.1-0.2,0c-0.1,0-0.2,0-0.2,0c-0.2-0.1-0.3-0.1-0.3,0c-0.1-0.1-0.2-0.1-0.5-0.1c-0.1,0-0.2,0-0.2,0c-0.2,0-0.3,0-0.3,0
		s-0.1,0-0.1,0c0,0-0.1-0.1-0.1-0.1c-0.2,0-0.3,0-0.4,0l-0.1,0c0,0-0.2,0-0.5,0c0,0-0.1,0-0.1-0.1c0,0-0.1-0.1-0.1-0.1
		C79.9,45.5,79.8,45.5,79.6,45.6z M93.4,60.8C93.5,60.8,93.5,60.8,93.4,60.8C93.5,60.9,93.5,60.9,93.4,60.8
		C93.4,60.9,93.4,60.9,93.4,60.8C93.4,60.9,93.4,60.8,93.4,60.8z M93.5,60.9C93.4,60.9,93.4,60.9,93.5,60.9
		C93.4,60.9,93.4,60.8,93.5,60.9C93.5,60.8,93.5,60.8,93.5,60.9C93.5,60.9,93.5,60.9,93.5,60.9z"/>
</g>
</svg>
