<?xml version="1.0" encoding="utf-8"?>
<!-- Generator: Adobe Illustrator 19.0.1, SVG Export Plug-In . SVG Version: 6.00 Build 0)  -->
<svg version="1.1" id="Layer_1" xmlns="http://www.w3.org/2000/svg" xmlns:xlink="http://www.w3.org/1999/xlink" x="0px" y="0px"
	 viewBox="0 0 100 100" enable-background="new 0 0 100 100" xml:space="preserve">
<g>
	<path fill="#D93427" d="M18.7,39.1c0.2,0.1,0.3,0.2,0.4,0.3c0,0.1,0.1,0.1,0.2,0.2c0,0,0.1,0,0.1,0c0,0.1,0.1,0.2,0.2,0.3
		c0,0,0,0.1,0,0.1c0.1,0.1,0,0.2,0,0.3c0,0.1,0,0.1,0,0.2c0,0.1,0,0.1,0,0.1c0,0,0,0.1,0,0.1c0,0,0,0.1,0,0.1c0,0-0.1,0-0.1,0
		c-0.1,0.1-0.1,0.1-0.1,0.3c-0.2,0.1-0.3,0.2-0.3,0.3c0,0-0.1,0-0.1,0c-0.1,0-0.1,0-0.1,0s-0.1,0-0.1,0.1c0,0-0.1,0-0.1,0
		c-0.1,0-0.1,0-0.2,0c0,0-0.1,0-0.1,0c0,0-0.1-0.1-0.1-0.1c0,0-0.1,0-0.1,0c-0.1,0-0.1,0-0.1,0c0,0-0.1,0-0.1,0s0,0,0,0s0,0,0-0.1
		c0,0-0.1-0.1-0.2-0.1c-0.3,0-0.4,0-0.5,0.1c0,0,0,0.1,0,0.1c-0.2,0-0.3,0.1-0.4,0.2c0,0,0,0,0,0s0,0,0,0c-0.1,0-0.1,0-0.2,0.1
		c-0.1,0.1-0.1,0.2-0.2,0.2v0.1c-0.1,0-0.1,0.1-0.1,0.1h-0.1c-0.3,0.2-0.5,0.4-0.5,0.6c-0.1,0-0.1,0-0.1,0c0,0,0,0.1,0,0.1
		c0,0,0,0,0,0.1c-0.1,0-0.2,0.1-0.3,0.2c-0.1,0.1-0.2,0.2-0.3,0.3c0,0.1-0.1,0.2-0.2,0.3c-0.1,0.1-0.2,0.2-0.2,0.3
		c-0.1,0-0.1,0.1-0.2,0.2c-0.1,0.1-0.1,0.1-0.1,0.1c0,0,0,0.1,0,0.1s0,0.1,0,0.1c0,0-0.1,0.1-0.2,0.2c0,0,0,0.1,0,0.1
		c0,0.1,0,0.2-0.1,0.3c-0.1,0.1-0.1,0.2-0.1,0.2c-0.1,0-0.1,0.1-0.1,0.2c0,0.1-0.1,0.2-0.1,0.2v0.3c-0.1,0.1-0.1,0.2-0.2,0.2v0.2
		c-0.2,0.2-0.2,0.4-0.1,0.7l-0.1,0c0,0.1,0,0.3,0,0.5c-0.1,0-0.1,0-0.1,0c0,0.1,0,0.2,0,0.4c0,0.2,0,0.4-0.1,0.4c0,0.1,0,0.3,0,0.3
		c0,0.1-0.1,0.1-0.1,0.1c-0.1,0.3-0.1,0.7-0.1,1.1c0,0,0,0.3,0,0.9c0,0.6,0,0.9,0,1c0,0.1,0,0.1,0,0.1c0,0.2,0,0.3,0.1,0.3
		c0,0.1,0,0.2,0,0.3c0,0.2,0,0.3,0,0.4c0,0.1,0,0.2,0.1,0.2c-0.1,0.3,0,0.5,0.2,0.5c-0.1,0.1-0.1,0.3,0,0.3c0,0,0,0.1,0.1,0.1
		c0,0,0.1,0.1,0.1,0.1s0,0,0,0.1c0,0,0,0.1,0,0.1s0,0.1,0.1,0.2c0,0.1,0,0.2,0.1,0.3c0,0.1,0,0.2,0.1,0.3c0.1,0.1,0.1,0.2,0.1,0.2
		c0.2,0.4,0.4,0.7,0.5,0.8c0,0,0,0.1,0,0.1s0,0,0,0.1c0,0,0.1,0.1,0.2,0.1c0,0.1,0,0.1,0.1,0.2c0.1,0,0.1,0.1,0.1,0.1l0,0.1
		c0,0,0.1,0,0.1,0c0,0,0.1,0,0.1,0c0,0,0.1,0.1,0.1,0.1c0,0.1,0.1,0.1,0.1,0.1c0.1,0,0.2,0,0.3,0c0.1,0,0.1,0,0.1,0.1
		c0,0.1,0,0.1,0.1,0.1c0,0,0.1,0,0.1,0c0.1,0,0.1,0,0.1,0c0,0,0.1,0,0.2,0c0.1,0,0.1,0,0.2,0.1c0.1,0.1,0.2,0.1,0.3,0.1
		c0,0,0.1,0,0.1,0c0,0,0.1,0,0.1,0c0,0,0.1,0,0.1,0c0.1,0,0.1,0,0.1,0c0.1,0.1,0.2,0.2,0.3,0.3c0,0,0.1,0,0.1,0c0.1,0,0.1,0,0.1,0
		c0.4,0,0.6,0,0.7-0.1c0.3,0,0.4,0.1,0.4,0.1c0,0,0.1,0,0.1-0.1c0,0,0-0.1,0-0.1c0.3,0.1,0.4,0.1,0.5,0c0.2,0,0.4,0,0.5-0.2
		c0.2,0,0.3,0,0.3-0.1c0.1,0.1,0.2,0,0.3,0c0,0,0.1,0,0.1,0c0,0,0.1,0,0.1,0c0.1,0,0.1,0,0.3-0.1c0.1,0,0.1,0,0.2-0.1
		c0.1-0.1,0.1-0.1,0.2-0.1c0,0,0.1-0.1,0.3-0.1c0.2-0.1,0.2-0.1,0.3-0.2c0.1,0,0.2-0.1,0.3-0.2c0.1,0,0.1,0,0.2-0.1
		c0.1,0,0.2,0,0.3-0.1c0.1-0.1,0.1-0.1,0.2-0.1c0,0,0,0,0-0.1v0c0,0,0.1,0,0.1,0c0,0,0.1,0,0.1,0c0-0.1,0.1-0.1,0.1-0.2
		c0-0.1,0.1-0.1,0.1-0.2c0.2-0.2,0.4-0.4,0.4-0.5c0.1,0,0.1,0,0.2,0c0-0.1,0.1-0.1,0.1-0.1c0.1,0,0.1,0,0.2,0
		c0.1-0.1,0.2-0.1,0.3-0.1s0.2,0,0.3,0.1c0,0,0.1,0,0.1,0c0.1,0,0.2,0.1,0.3,0.2c0.1,0,0.1,0,0.2,0c0.1,0,0.1,0.1,0.1,0.3
		c0,0.1,0.1,0.2,0.2,0.2c0,0.1,0,0.1,0,0.1c0,0,0.1,0.1,0.1,0.1c0.1,0,0.1,0.1,0.1,0.1c0,0.1,0,0.2,0.1,0.4c0.1,0.1,0.1,0.2,0.1,0.3
		c-0.1,0.1-0.1,0.2-0.1,0.3c0,0,0,0.1,0,0.1c0,0-0.1,0-0.1,0c0,0.1,0,0.2,0,0.3c-0.1,0-0.2,0.1-0.3,0.2s-0.2,0.2-0.3,0.3
		c-0.2,0.1-0.3,0.2-0.3,0.2c-0.1,0-0.3,0.1-0.5,0.3c-0.1,0-0.1,0-0.2,0.1c-0.1,0.1-0.1,0.1-0.2,0.1c0,0-0.1,0.1-0.2,0.1
		c-0.1,0.1-0.2,0.1-0.2,0.2c-0.2,0.1-0.4,0.2-0.5,0.4L23,58.8c-0.1,0.1-0.2,0.2-0.2,0.3c-0.3,0-0.4,0.1-0.5,0.2
		c-0.1,0-0.2,0-0.3,0.2c0,0-0.1,0-0.1,0c0,0-0.1,0-0.1,0c0,0-0.1,0-0.2,0.1c0,0-0.1,0-0.1,0c0,0-0.1,0-0.1,0c-0.1,0-0.1,0.1-0.3,0.1
		c-0.1,0-0.2,0-0.2,0s0,0-0.1,0.1c0,0-0.1,0-0.1,0c0,0-0.1,0.1-0.2,0.2c-0.1,0-0.1,0-0.3-0.1c-0.2,0-0.3,0-0.4,0.2
		c-0.1,0.1-0.1,0.1-0.2,0l-0.1,0c-0.2-0.1-0.4-0.1-0.7,0c-0.2,0.1-0.4,0.1-0.4,0.1c0,0-0.1,0-0.1,0c-0.1,0-0.1,0-0.1,0
		c0,0,0,0.1,0,0.1s0,0.1,0,0.1h-0.2l-0.3-0.2c0,0-0.1,0-0.1,0c-0.1,0-0.1,0-0.1,0s-0.1,0-0.1,0c0,0-0.1,0-0.1,0c0,0-0.1,0-0.1,0
		c-0.1,0-0.1,0-0.1,0c0,0-0.1,0-0.1-0.1c0,0-0.1,0-0.1,0c0,0-0.1,0-0.1,0c-0.1,0-0.1,0-0.1,0c0,0-0.1,0-0.1-0.1
		c-0.1,0-0.1-0.1-0.1-0.1c0,0-0.1,0-0.1,0c0,0-0.1,0-0.1,0l0-0.1c0,0-0.1-0.1-0.3-0.1c0,0-0.1,0-0.1,0c0,0-0.1,0-0.1,0
		c0,0,0-0.1,0-0.2c0,0-0.1,0-0.1,0c-0.1,0-0.1,0-0.1,0c-0.1-0.2-0.2-0.2-0.3,0c-0.1,0-0.1-0.1-0.1-0.2c0,0-0.1,0-0.2-0.1
		c-0.1-0.1-0.2-0.1-0.3-0.1c-0.1,0-0.1,0-0.2,0c0-0.1,0-0.1,0-0.1h-0.2c0-0.1,0-0.1,0-0.1s0,0-0.1,0c-0.1,0-0.1,0-0.1,0
		c-0.1,0-0.1,0-0.1-0.1s0-0.1,0-0.2c-0.1,0-0.2,0-0.2,0c-0.1-0.1-0.1-0.1-0.2-0.1c0-0.1,0-0.2-0.1-0.3c-0.1-0.1-0.2-0.1-0.3-0.2
		c-0.1-0.3-0.2-0.4-0.5-0.4c0-0.1,0-0.2-0.2-0.4c-0.2-0.1-0.2-0.2-0.2-0.4c-0.2-0.2-0.3-0.4-0.3-0.4c0.1-0.1,0-0.2-0.1-0.4
		c-0.1-0.1-0.2-0.2-0.2-0.3c0,0-0.1,0-0.1,0c0,0,0,0-0.1,0c0-0.2-0.1-0.3-0.1-0.3c0.1-0.1,0-0.2-0.1-0.3c0.1-0.2,0-0.4-0.1-0.5
		c0,0-0.1,0-0.2,0c-0.1-0.2-0.1-0.4,0-0.5c-0.1-0.2-0.2-0.3-0.2-0.4c0,0,0-0.1,0-0.2c0-0.1,0-0.2,0-0.2c-0.1-0.2-0.2-0.3-0.1-0.4
		c0,0,0-0.1-0.1-0.1c0,0-0.1-0.1-0.1-0.1c0-0.2,0-0.3,0-0.3c-0.1-0.2-0.1-0.3,0-0.4c-0.1,0-0.1,0-0.1,0c0,0,0-0.1,0-0.1
		c0,0,0-0.1,0-0.1s0-0.1,0-0.1c0,0,0,0,0-0.1s0,0,0-0.1c0,0,0-0.1,0-0.1s0-0.1,0-0.2c0-0.1,0-0.2,0-0.2C10,51.1,10,51,9.8,50.9
		c0,0,0,0,0-0.1c0,0,0,0,0,0c0,0,0,0,0,0c0,0,0,0,0-0.1c0,0,0-0.1,0-0.1c0,0,0-0.1,0-0.1c0,0,0-0.1,0-0.1c0,0,0-0.1,0-0.1
		s0-0.1,0.1-0.3c-0.1,0-0.1-0.3,0-0.8c0.1-0.5,0.2-0.7,0.2-0.8s0-0.1,0-0.1c-0.2-0.1-0.2-0.3,0-0.4c0-0.1,0-0.1,0-0.1s0,0,0.1-0.1
		c0,0,0.1,0,0.1-0.1c0,0,0-0.1-0.1-0.1c0,0,0,0,0.1-0.1s0.1,0,0.1-0.1c0,0,0-0.1-0.1-0.1c0,0,0-0.1,0-0.2c0-0.1,0-0.2,0-0.2
		c0,0,0.1-0.1,0.1-0.1c0-0.1,0-0.2,0-0.4c0-0.2,0-0.3,0-0.4c0.1-0.1,0.1-0.2,0.1-0.4c0-0.2,0.1-0.3,0.1-0.4c0-0.1,0-0.1,0.1-0.3
		c-0.1,0-0.1-0.1,0-0.2c0-0.1,0.1-0.2,0-0.2c0.1,0,0.1-0.1,0.1-0.2c0-0.1,0.1-0.2,0.1-0.2c0-0.1,0-0.2,0.1-0.4
		c-0.1-0.1-0.1-0.1-0.1-0.2c0-0.1,0.1-0.1,0.1-0.2c0-0.2,0.1-0.4,0.3-0.5c0-0.1,0-0.2,0.1-0.3s0.1-0.2,0.1-0.3
		c0-0.1,0.1-0.1,0.1-0.2v-0.1c0.1-0.2,0.2-0.3,0.2-0.3c0,0,0.1-0.1,0.2-0.1c0,0,0.1-0.1,0.1-0.1c0-0.1,0.1-0.1,0.1-0.2
		c0.1,0,0.2-0.1,0.3-0.3c0.2-0.1,0.3-0.2,0.3-0.4c0.2-0.1,0.3-0.2,0.3-0.5c0,0,0.1,0,0.1,0.1c0.1-0.1,0.2-0.2,0.3-0.3
		c0.1,0,0.3-0.2,0.6-0.6c0.1,0,0.1,0,0.2-0.1c0,0,0.1,0,0.1,0c0,0,0,0,0.1,0c0,0,0.1-0.1,0.1-0.1c0.1,0,0.1-0.1,0.1-0.1
		c0.1,0,0.1,0,0.3-0.1c0.2,0,0.4,0,0.4-0.1c0.1,0,0.2,0,0.3-0.1c0.1-0.1,0.1-0.1,0.2-0.1c0,0,0.1,0,0.1,0c0.1,0,0.1,0,0.1,0
		c0,0,0.1,0,0.1,0c0,0,0.1,0,0.1,0c0,0,0.1,0,0.1,0.1c0.1,0,0.1,0,0.2,0c0,0,0.1,0,0.1,0c0,0,0.1,0,0.1,0c0,0,0.1,0,0.1,0
		c0,0,0.1,0.1,0.1,0.1c0.1,0,0.3,0,0.4,0c0.2,0.1,0.3,0.1,0.4,0.1c0.1,0.1,0.2,0.2,0.3,0.2c0.1,0.1,0.1,0.1,0.2,0.1h0.2
		C18.7,39,18.7,39,18.7,39.1z M18.6,38.9h0.2c0,0.1,0,0.1,0,0.1c0.2,0.1,0.3,0.2,0.4,0.3c0,0.1,0.1,0.1,0.2,0.2c0,0,0.1,0,0.1,0
		c0,0.1,0.1,0.2,0.2,0.3c0,0,0,0.1,0,0.1c0.1,0.1,0,0.2,0,0.3c0,0.1,0,0.1,0,0.2c0,0.1,0,0.1,0,0.1c0,0,0,0.1,0,0.1c0,0,0,0.1,0,0.1
		c0,0-0.1,0-0.1,0c-0.1,0.1-0.1,0.1-0.1,0.3c-0.2,0.1-0.3,0.2-0.3,0.3c0,0-0.1,0-0.1,0c-0.1,0-0.1,0-0.1,0s-0.1,0-0.1,0.1
		c0,0-0.1,0-0.1,0c-0.1,0-0.1,0-0.2,0c0,0-0.1,0-0.1,0c0,0-0.1-0.1-0.1-0.1c0,0-0.1,0-0.1,0c-0.1,0-0.1,0-0.1,0c0,0-0.1,0-0.1,0
		s0,0,0,0s0,0,0-0.1c0,0-0.1-0.1-0.2-0.1c-0.3,0-0.4,0-0.5,0.1c0,0,0,0.1,0,0.1c-0.2,0-0.3,0.1-0.4,0.2c0,0,0,0,0,0s0,0,0,0
		c-0.1,0-0.1,0-0.2,0.1c-0.1,0.1-0.1,0.2-0.2,0.2v0.1c-0.1,0-0.1,0.1-0.1,0.1h-0.1c-0.3,0.2-0.5,0.4-0.5,0.6c-0.1,0-0.1,0-0.1,0
		c0,0,0,0.1,0,0.1c0,0,0,0,0,0.1c-0.1,0-0.2,0.1-0.3,0.2c-0.1,0.1-0.2,0.2-0.3,0.3c0,0.1-0.1,0.2-0.2,0.3c-0.1,0.1-0.2,0.2-0.2,0.3
		c-0.1,0-0.1,0.1-0.2,0.2c-0.1,0.1-0.1,0.1-0.1,0.1c0,0,0,0.1,0,0.1s0,0.1,0,0.1c0,0-0.1,0.1-0.2,0.2c0,0,0,0.1,0,0.1
		c0,0.1,0,0.2-0.1,0.3c-0.1,0.1-0.1,0.2-0.1,0.2c-0.1,0-0.1,0.1-0.1,0.2c0,0.1-0.1,0.2-0.1,0.2v0.3c-0.1,0.1-0.1,0.2-0.2,0.2v0.2
		c-0.2,0.2-0.2,0.4-0.1,0.7l-0.1,0c0,0.1,0,0.3,0,0.5c-0.1,0-0.1,0-0.1,0c0,0.1,0,0.2,0,0.4c0,0.2,0,0.4-0.1,0.4c0,0.1,0,0.3,0,0.3
		c0,0.1-0.1,0.1-0.1,0.1c-0.1,0.3-0.1,0.7-0.1,1.1c0,0,0,0.3,0,0.9c0,0.6,0,0.9,0,1c0,0.1,0,0.1,0,0.1c0,0.2,0,0.3,0.1,0.3
		c0,0.1,0,0.2,0,0.3c0,0.2,0,0.3,0,0.4c0,0.1,0,0.2,0.1,0.2c-0.1,0.3,0,0.5,0.2,0.5c-0.1,0.1-0.1,0.3,0,0.3c0,0,0,0.1,0.1,0.1
		c0,0,0.1,0.1,0.1,0.1s0,0,0,0.1c0,0,0,0.1,0,0.1s0,0.1,0.1,0.2c0,0.1,0,0.2,0.1,0.3c0,0.1,0,0.2,0.1,0.3c0.1,0.1,0.1,0.2,0.1,0.2
		c0.2,0.4,0.4,0.7,0.5,0.8c0,0,0,0.1,0,0.1s0,0,0,0.1c0,0,0.1,0.1,0.2,0.1c0,0.1,0,0.1,0.1,0.2c0.1,0,0.1,0.1,0.1,0.1l0,0.1
		c0,0,0.1,0,0.1,0c0,0,0.1,0,0.1,0c0,0,0.1,0.1,0.1,0.1c0,0.1,0.1,0.1,0.1,0.1c0.1,0,0.2,0,0.3,0c0.1,0,0.1,0,0.1,0.1
		c0,0.1,0,0.1,0.1,0.1c0,0,0.1,0,0.1,0c0.1,0,0.1,0,0.1,0c0,0,0.1,0,0.2,0c0.1,0,0.1,0,0.2,0.1c0.1,0.1,0.2,0.1,0.3,0.1
		c0,0,0.1,0,0.1,0c0,0,0.1,0,0.1,0c0,0,0.1,0,0.1,0c0.1,0,0.1,0,0.1,0c0.1,0.1,0.2,0.2,0.3,0.3c0,0,0.1,0,0.1,0c0.1,0,0.1,0,0.1,0
		c0.4,0,0.6,0,0.7-0.1c0.3,0,0.4,0.1,0.4,0.1c0,0,0.1,0,0.1-0.1c0,0,0-0.1,0-0.1c0.3,0.1,0.4,0.1,0.5,0c0.2,0,0.4,0,0.5-0.2
		c0.2,0,0.3,0,0.3-0.1c0.1,0.1,0.2,0,0.3,0c0,0,0.1,0,0.1,0c0,0,0.1,0,0.1,0c0.1,0,0.1,0,0.3-0.1c0.1,0,0.1,0,0.2-0.1
		c0.1-0.1,0.1-0.1,0.2-0.1c0,0,0.1-0.1,0.3-0.1c0.2-0.1,0.2-0.1,0.3-0.2c0.1,0,0.2-0.1,0.3-0.2c0.1,0,0.1,0,0.2-0.1
		c0.1,0,0.2,0,0.3-0.1c0.1-0.1,0.1-0.1,0.2-0.1c0,0,0,0,0-0.1v0c0,0,0.1,0,0.1,0c0,0,0.1,0,0.1,0c0-0.1,0.1-0.1,0.1-0.2
		c0-0.1,0.1-0.1,0.1-0.2c0.2-0.2,0.4-0.4,0.4-0.5c0.1,0,0.1,0,0.2,0c0-0.1,0.1-0.1,0.1-0.1c0.1,0,0.1,0,0.2,0
		c0.1-0.1,0.2-0.1,0.3-0.1s0.2,0,0.3,0.1c0,0,0.1,0,0.1,0c0.1,0,0.2,0.1,0.3,0.2c0.1,0,0.1,0,0.2,0c0.1,0,0.1,0.1,0.1,0.3
		c0,0.1,0.1,0.2,0.2,0.2c0,0.1,0,0.1,0,0.1c0,0,0.1,0.1,0.1,0.1c0.1,0,0.1,0.1,0.1,0.1c0,0.1,0,0.2,0.1,0.4c0.1,0.1,0.1,0.2,0.1,0.3
		c-0.1,0.1-0.1,0.2-0.1,0.3c0,0,0,0.1,0,0.1c0,0-0.1,0-0.1,0c0,0.1,0,0.2,0,0.3c-0.1,0-0.2,0.1-0.3,0.2s-0.2,0.2-0.3,0.3
		c-0.2,0.1-0.3,0.2-0.3,0.2c-0.1,0-0.3,0.1-0.5,0.3c-0.1,0-0.1,0-0.2,0.1c-0.1,0.1-0.1,0.1-0.2,0.1c0,0-0.1,0.1-0.2,0.1
		c-0.1,0.1-0.2,0.1-0.2,0.2c-0.2,0.1-0.4,0.2-0.5,0.4L23,58.8c-0.1,0.1-0.2,0.2-0.2,0.3c-0.3,0-0.4,0.1-0.5,0.2
		c-0.1,0-0.2,0-0.3,0.2c0,0-0.1,0-0.1,0c0,0-0.1,0-0.1,0c0,0-0.1,0-0.2,0.1c0,0-0.1,0-0.1,0c0,0-0.1,0-0.1,0c-0.1,0-0.1,0.1-0.3,0.1
		c-0.1,0-0.2,0-0.2,0s0,0-0.1,0.1c0,0-0.1,0-0.1,0c0,0-0.1,0.1-0.2,0.2c-0.1,0-0.1,0-0.3-0.1c-0.2,0-0.3,0-0.4,0.2
		c-0.1,0.1-0.1,0.1-0.2,0l-0.1,0c-0.2-0.1-0.4-0.1-0.7,0c-0.2,0.1-0.4,0.1-0.4,0.1c0,0-0.1,0-0.1,0c-0.1,0-0.1,0-0.1,0
		c0,0,0,0.1,0,0.1s0,0.1,0,0.1h-0.2l-0.3-0.2c0,0-0.1,0-0.1,0c-0.1,0-0.1,0-0.1,0s-0.1,0-0.1,0c0,0-0.1,0-0.1,0c0,0-0.1,0-0.1,0
		c-0.1,0-0.1,0-0.1,0c0,0-0.1,0-0.1-0.1c0,0-0.1,0-0.1,0c0,0-0.1,0-0.1,0c-0.1,0-0.1,0-0.1,0c0,0-0.1,0-0.1-0.1
		c-0.1,0-0.1-0.1-0.1-0.1c0,0-0.1,0-0.1,0c0,0-0.1,0-0.1,0l0-0.1c0,0-0.1-0.1-0.3-0.1c0,0-0.1,0-0.1,0c0,0-0.1,0-0.1,0
		c0,0,0-0.1,0-0.2c0,0-0.1,0-0.1,0c-0.1,0-0.1,0-0.1,0c-0.1-0.2-0.2-0.2-0.3,0c-0.1,0-0.1-0.1-0.1-0.2c0,0-0.1,0-0.2-0.1
		c-0.1-0.1-0.2-0.1-0.3-0.1c-0.1,0-0.1,0-0.2,0c0-0.1,0-0.1,0-0.1h-0.2c0-0.1,0-0.1,0-0.1s0,0-0.1,0c-0.1,0-0.1,0-0.1,0
		c-0.1,0-0.1,0-0.1-0.1s0-0.1,0-0.2c-0.1,0-0.2,0-0.2,0c-0.1-0.1-0.1-0.1-0.2-0.1c0-0.1,0-0.2-0.1-0.3c-0.1-0.1-0.2-0.1-0.3-0.2
		c-0.1-0.3-0.2-0.4-0.5-0.4c0-0.1,0-0.2-0.2-0.4c-0.2-0.1-0.2-0.2-0.2-0.4c-0.2-0.2-0.3-0.4-0.3-0.4c0.1-0.1,0-0.2-0.1-0.4
		c-0.1-0.1-0.2-0.2-0.2-0.3c0,0-0.1,0-0.1,0c0,0,0,0-0.1,0c0-0.2-0.1-0.3-0.1-0.3c0.1-0.1,0-0.2-0.1-0.3c0.1-0.2,0-0.4-0.1-0.5
		c0,0-0.1,0-0.2,0c-0.1-0.2-0.1-0.4,0-0.5c-0.1-0.2-0.2-0.3-0.2-0.4c0,0,0-0.1,0-0.2c0-0.1,0-0.2,0-0.2c-0.1-0.2-0.2-0.3-0.1-0.4
		c0,0,0-0.1-0.1-0.1c0,0-0.1-0.1-0.1-0.1s0-0.1,0-0.2c0-0.1,0-0.2,0-0.2c-0.1-0.2-0.1-0.3,0-0.4c-0.1,0-0.1,0-0.1,0c0,0,0-0.1,0-0.1
		c0,0,0-0.1,0-0.1s0-0.1,0-0.1c0,0,0,0,0-0.1s0,0,0-0.1c0,0,0-0.1,0-0.1s0-0.1,0-0.2c0-0.1,0-0.2,0-0.2C10,51.1,10,51,9.8,50.9
		c0,0,0,0,0-0.1c0,0,0,0,0,0c0,0,0,0,0,0c0,0,0,0,0-0.1c0,0,0-0.1,0-0.1c0,0,0-0.1,0-0.1c0,0,0-0.1,0-0.1c0,0,0-0.1,0-0.1
		s0-0.1,0.1-0.3c-0.1,0-0.1-0.3,0-0.8c0.1-0.5,0.2-0.7,0.2-0.8s0-0.1,0-0.1c-0.2-0.1-0.2-0.3,0-0.4c0-0.1,0-0.1,0-0.1s0,0,0.1-0.1
		c0,0,0.1,0,0.1-0.1c0,0,0-0.1-0.1-0.1c0,0,0,0,0.1-0.1s0.1,0,0.1-0.1l-0.1-0.1c0,0,0-0.1,0-0.2c0-0.1,0-0.2,0-0.2
		c0,0,0.1-0.1,0.1-0.1c0-0.1,0-0.2,0-0.4c0-0.2,0-0.3,0-0.4c0.1-0.1,0.1-0.2,0.1-0.4c0-0.2,0.1-0.3,0.1-0.4c0-0.1,0-0.1,0.1-0.3
		c-0.1,0-0.1-0.1,0-0.2c0-0.1,0.1-0.2,0-0.2c0.1,0,0.1-0.1,0.1-0.2c0-0.1,0.1-0.2,0.1-0.2c0-0.1,0-0.2,0.1-0.4
		c-0.1-0.1-0.1-0.1-0.1-0.2c0-0.1,0.1-0.1,0.1-0.2c0-0.2,0.1-0.4,0.3-0.5c0-0.1,0-0.2,0.1-0.3s0.1-0.2,0.1-0.3
		c0-0.1,0.1-0.1,0.1-0.1v-0.2c0.1-0.2,0.2-0.3,0.2-0.3c0,0,0.1-0.1,0.2-0.1c0,0,0.1-0.1,0.1-0.1c0-0.1,0.1-0.1,0.1-0.2
		c0.1,0,0.2-0.1,0.3-0.3c0.2-0.1,0.3-0.2,0.3-0.4c0.2-0.1,0.3-0.2,0.3-0.5c0,0,0.1,0,0.1,0.1c0.1-0.1,0.2-0.2,0.3-0.3
		c0.1,0,0.3-0.2,0.6-0.6c0.1,0,0.1,0,0.2-0.1c0,0,0.1,0,0.1,0c0,0,0,0,0.1,0c0,0,0.1-0.1,0.1-0.1c0.1,0,0.1-0.1,0.1-0.1
		c0.1,0,0.1,0,0.3-0.1c0.2,0,0.4,0,0.4-0.1c0.1,0,0.2,0,0.3-0.1c0.1-0.1,0.1-0.1,0.2-0.1c0,0,0.1,0,0.1,0c0.1,0,0.1,0,0.1,0
		c0,0,0.1,0,0.1,0c0,0,0.1,0,0.1,0c0,0,0.1,0,0.1,0.1c0.1,0,0.1,0,0.2,0c0,0,0.1,0,0.1,0c0,0,0.1,0,0.1,0c0,0,0.1,0,0.1,0
		c0,0,0.1,0.1,0.1,0.1c0.1,0,0.3,0,0.4,0c0.2,0.1,0.3,0.1,0.4,0.1c0.1,0.1,0.2,0.2,0.3,0.2C18.5,38.9,18.5,38.9,18.6,38.9z
		 M10.3,45.9C10.3,45.9,10.4,45.9,10.3,45.9C10.3,46,10.3,46,10.3,45.9C10.3,45.9,10.3,45.9,10.3,45.9z M10.4,46
		C10.3,46,10.3,46,10.4,46C10.3,45.9,10.3,45.9,10.4,46C10.3,45.9,10.4,45.9,10.4,46z"/>
	<path fill="#D93427" d="M28.8,40.9c0.1,0,0.2,0,0.3,0c0,0.1,0.1,0.1,0.3,0.1c0.1,0,0.1,0,0.2,0c0,0,0,0.1,0,0.1c0,0,0,0.1,0,0.1
		c0.1,0,0.2,0,0.3,0c0.1,0.1,0.2,0,0.2-0.1c0.1,0,0.1,0.1,0.1,0.3c0,0,0.1,0,0.3,0c0,0.1,0,0.2,0.1,0.2c0.1,0.1,0.1,0.1,0.1,0.1
		l0.1,0c0,0,0,0.1,0,0.1c0,0.1,0,0.1,0,0.1c0,0.1,0.1,0.1,0.2,0.2c0,0.2,0,0.3,0,0.3c0,0.1,0.1,0.1,0.3,0.1c0,0.1,0,0.2,0,0.5
		c-0.1,0-0.2,0-0.2,0.1s0.1,0.2,0.2,0.1l0,0.4c-0.1,0-0.1,0.1-0.1,0.3c0,0.2,0.1,0.2,0.2,0.2c0,0,0,0.1,0,0.1
		c-0.1,0-0.1,0.1-0.1,0.2s0,0.2,0.1,0.2c0,0,0,0.1-0.1,0.2c0,0.1-0.1,0.2,0,0.2l0,0.1c0.1,0.2,0.2,0.3,0.2,0.3
		c-0.1,0.1-0.1,0.2,0,0.3c0,0.1,0,0.2,0,0.3c0,0,0,0.1,0.1,0.1c0.1,0,0.1,0.1,0.1,0.1c0,0.1,0,0.1,0,0.1c-0.1,0-0.1,0-0.1,0.1
		c0,0.1,0,0.1,0.1,0.1c0,0.1,0,0.2,0,0.3c0,0.1,0,0.2,0,0.3c0.1,0.1,0.1,0.1,0.1,0.1c0,0,0,0,0,0.1c0,0,0,0.1,0.1,0.1c0,0,0,0,0,0
		c0,0,0.1,0,0.1,0c0,0.1,0,0.1,0,0.1S31.9,48,31.9,48l0.1,0.5c0,0,0.1,0,0.2,0c0,0,0,0.1,0,0.1c0,0,0,0-0.1,0c0,0.1,0,0.1,0,0.2
		c0,0.1,0,0.2,0,0.2c0.1,0.1,0.1,0.2,0.1,0.2s0,0-0.1,0c0,0.1,0,0.2,0,0.5c0,0.2,0,0.4,0,0.4c0,0.2,0,0.3,0.1,0.3V51
		c0,0,0,0.1,0.1,0.2s0.1,0.2,0.1,0.2c0,0,0,0.1,0,0.2c0,0.1,0,0.2,0,0.2c0,0,0.1,0,0.1,0.1c0,0,0.1,0,0.1,0.1c0,0,0,0.1,0,0.1
		c0,0-0.1,0.1-0.1,0.1c0.1,0,0.1,0.1,0.1,0.1c0,0.1,0,0.2-0.1,0.2c-0.1,0.1-0.1,0.1-0.1,0.2c0,0.1,0,0.2,0.1,0.3
		c0.1,0.1,0.1,0.2,0.1,0.2c0.1,0,0.1,0,0.1,0c0,0.2,0,0.4,0,0.6c-0.1,0-0.2,0-0.2,0.1c0,0.1,0.1,0.1,0.2,0.1v0.5
		c-0.1,0-0.1,0.1-0.1,0.2c0,0.1,0.1,0.2,0.2,0.2c0,0.3,0,0.4,0,0.4c-0.1,0-0.2,0.1-0.2,0.1c0,0.1,0,0.1,0.1,0.2c0,0.1,0.1,0.1,0.1,0
		c0,0.1,0,0.2,0,0.3c0,0.1,0,0.1,0,0.1c-0.1,0.1-0.1,0.2-0.1,0.3c0,0,0.1,0.1,0.1,0.1c0,0,0.1,0.1,0.1,0.1c0,0.1,0,0.2,0,0.3
		c0,0.1,0,0.2,0,0.3c-0.1,0.1-0.1,0.1-0.1,0.1c0,0.1,0,0.1,0.1,0.2c0.1,0,0.1,0,0.2,0c0.1,0,0.1,0.1,0.2,0s0,0,0.1-0.1
		c0,0,0-0.1,0.1-0.1c0.3,0,0.4,0,0.4-0.1c0,0,0,0,0.1,0.1c0,0,0,0.1,0.1,0.1c0.1,0,0.1,0,0.2-0.1c0.1-0.1,0.2-0.1,0.3-0.1
		c0.1,0.1,0.1,0.1,0.2,0.1c0,0,0,0,0-0.1c0,0,0-0.1,0-0.1c0.1,0,0.2,0,0.2-0.1C34.9,57,35,57,35,57c0.2-0.1,0.3-0.1,0.3,0
		c0,0,0-0.1,0-0.1c0,0,0-0.1,0-0.1s0.1,0,0.1,0c0,0,0,0.1,0,0.1c0.1-0.1,0.3-0.2,0.6-0.1c0.1,0.1,0.1,0.1,0.2,0.1s0.1,0,0.1,0
		c0,0,0.1,0,0.1-0.1c0,0,0.1,0,0.1,0c0,0,0.1,0,0.1,0c0,0,0,0,0-0.1s0-0.1,0-0.1l0.6,0c0,0,0.2,0,0.5,0c0.1,0,0.1,0,0.2,0
		c0.1,0,0.1,0,0.1,0s0,0,0.1,0c0,0,0.1,0,0.1,0c0,0,0,0,0.1,0c0,0,0.1,0,0.1,0s0.1,0,0.1,0c0.1,0,0.1,0,0.2,0c0,0,0-0.1,0.1-0.1
		c0,0,0.1,0,0.1,0c0.3,0,0.4,0,0.5,0.1c0.1,0,0.1,0,0.2,0c0.1,0,0.1,0,0.2,0c0.1,0,0.3,0,0.5,0c0.3,0,0.4,0,0.4,0l0.1,0.2
		c0.1,0,0.1-0.1,0.1-0.2c0.1-0.1,0.2,0,0.3,0c0.1-0.1,0.2-0.1,0.3,0c0,0.1,0,0.1,0,0.1c0.1,0,0.1,0,0.2-0.1c0,0.1,0.1,0.2,0.3,0.3
		c0.1,0,0.1,0,0.2,0c0.1,0,0.1,0,0.2,0c0,0.1,0,0.2,0,0.2c0.1,0.1,0.2,0.2,0.3,0.2c0,0,0.1,0,0.1,0c0,0,0.1,0,0.1,0
		c0,0.1,0,0.1,0,0.2c0,0.1,0,0.1,0,0.1c0,0,0.1,0.1,0.1,0.1c0,0.1,0.1,0.1,0.1,0.2c0.1,0.1,0.1,0.1,0.1,0.1c0,0.1,0,0.2,0.1,0.3h0.1
		c0,0,0,0.1-0.1,0.2c0,0.1,0,0.2,0,0.3c-0.1,0-0.1,0.1-0.2,0.2c0,0.1-0.1,0.2-0.1,0.2c0,0.1,0,0.2,0,0.3c0,0-0.1,0-0.1,0h0
		c-0.1,0-0.1,0.1-0.2,0.2c-0.1,0.1-0.2,0.2-0.3,0.2h0c0,0,0,0,0,0c0,0.1,0,0.1,0,0.2h-0.8c0,0-0.1,0-0.1-0.1c0,0,0-0.1-0.1-0.1
		s-0.1,0-0.1,0.1c0,0-0.1,0.1-0.2,0.1c0-0.2-0.1-0.3-0.1-0.3s0,0-0.1,0c0,0,0,0-0.1,0c-0.1,0-0.1,0-0.2,0c0-0.1,0-0.1-0.1-0.2
		c-0.1,0-0.1,0-0.1,0.1c-0.1-0.1-0.1-0.2-0.2-0.2c0,0-0.1,0.1-0.1,0.2c-0.1-0.1-0.1-0.2-0.2-0.2c0,0-0.1,0-0.1,0c-0.1,0-0.1,0-0.2,0
		c0,0-0.1,0-0.1,0s-0.1,0-0.1,0s-0.1,0-0.1,0.1c-0.1,0-0.3,0-0.5-0.1c0,0,0,0.1-0.1,0.1c-0.1,0-0.1,0-0.1,0c0-0.1,0-0.2-0.1-0.2
		s-0.1,0.1-0.1,0.2c0,0-0.1,0-0.2-0.1c0,0.1-0.1,0.1-0.4,0.1s-0.5,0-0.5,0c0,0-0.2-0.1-0.6-0.1c0,0.1-0.1,0.1-0.1,0.1
		c-0.1,0-0.1,0-0.1-0.1c-0.2,0-0.3,0.1-0.3,0.2c-0.1,0-0.2,0-0.3,0c-0.1,0-0.1,0-0.2,0c-0.1-0.1-0.1-0.1-0.2-0.1
		c-0.1,0-0.1,0.1-0.1,0.2c0,0-0.2,0-0.4,0s-0.4,0-0.4,0c0,0,0,0,0,0c0,0,0,0-0.1,0c0,0,0,0-0.1,0c-0.1,0.1-0.3,0.1-0.8,0.1
		c-0.1,0-0.2,0.1-0.3,0.2l-0.3,0c-0.1,0-0.1,0-0.1,0c0,0-0.1,0-0.1,0l-0.1,0.3c-0.3,0-0.5,0-0.5,0c0,0,0,0.1-0.1,0.2
		c0,0-0.1,0-0.1,0c0,0-0.1,0-0.1,0c0-0.1-0.1-0.1-0.2-0.1c-0.1,0-0.2,0-0.3,0c0,0,0,0.1,0,0.1c0,0,0,0.1,0,0.1c-0.1,0-0.1,0-0.1-0.1
		c0,0-0.1-0.1-0.1-0.1c-0.1,0.1-0.2,0.1-0.3,0.1c0,0,0,0,0-0.1c0,0,0.1,0,0.1-0.1h-0.2c0-0.1,0-0.1,0-0.1c0,0-0.1,0-0.1-0.1
		c0-0.1-0.1-0.1-0.1-0.2l0-0.2c-0.1,0-0.2,0-0.3-0.1C30,60,29.9,60,29.9,60c0.1-0.1,0-0.2-0.3-0.3c0-0.1,0-0.1,0-0.3c0,0,0,0-0.1,0
		c0-0.2,0-0.3,0.1-0.3c0,0,0,0,0-0.1c0,0-0.1,0-0.1-0.1c0,0,0-0.1,0.1-0.1c0.1,0,0.1,0,0.1-0.1c0-0.1-0.1-0.1-0.2-0.1v-0.1
		c0.1,0,0.1,0,0.1,0s0,0,0-0.1c0,0,0-0.1,0-0.1c0,0,0.1,0,0.2,0c0-0.1,0-0.2,0-0.5s0-0.5,0-0.5c0.1,0,0.1-0.1,0.1-0.1s0-0.1-0.1-0.1
		c0-0.5,0-1,0-1.5c0-0.2,0-0.4,0-0.5c0.1-0.2,0.1-0.3-0.1-0.4l0-0.4c0,0,0-0.2,0-0.4c0-0.5-0.1-0.7-0.1-0.8c0.1-0.1,0.1-0.3,0-0.3
		c0-0.1,0-0.2,0-0.3c0-0.1,0-0.2,0-0.3c0-0.1-0.1-0.2-0.2-0.2c0,0,0-0.1,0-0.1c0-0.1,0-0.1,0-0.1c0,0,0.1-0.1,0.1-0.1
		c0,0,0-0.1,0-0.1c0-0.1,0-0.1,0-0.1c-0.1-0.1-0.1-0.1-0.2-0.1c0,0,0-0.1,0-0.1s0,0,0.1,0c0.1,0,0.1,0,0.1,0c0,0-0.1-0.1-0.2-0.1
		c0-0.1,0-0.2,0.1-0.3c0-0.3-0.1-0.4-0.1-0.5c-0.1,0-0.1,0-0.1,0V50c0.1,0,0.2,0,0.2-0.1c0,0,0-0.1-0.1-0.1c0,0-0.1,0-0.1,0
		c0-0.1,0-0.1,0-0.2h0.1c0,0,0.1,0,0.1-0.1c0,0,0,0,0-0.1c0,0,0,0,0-0.1c0-0.1,0-0.2,0-0.3c0-0.1,0-0.2,0-0.3c0,0,0-0.1-0.1-0.1
		c0,0-0.1-0.1-0.1-0.1c0-0.1,0-0.2,0-0.3c0,0,0-0.1,0-0.2c0-0.1,0-0.2,0-0.2c0,0,0,0-0.1-0.1c0,0-0.1,0-0.1-0.1l0.1-0.2
		c0-0.1,0-0.2-0.1-0.4c0-0.2,0-0.3-0.1-0.4c0,0-0.1-0.1-0.1-0.3c0-0.1,0-0.2-0.1-0.2c0,0-0.1,0-0.1,0s0,0-0.1,0
		c-0.1-0.1,0-0.2,0.1-0.3c0,0,0-0.1,0-0.1c0-0.1,0-0.1,0-0.1s-0.1-0.1-0.2-0.1c0,0,0-0.1,0.1-0.1V45c-0.1,0-0.1-0.1-0.1-0.1
		c0,0,0-0.1,0-0.2c0-0.2,0-0.3-0.1-0.3c0,0,0-0.1,0-0.1c0-0.1,0-0.2,0-0.3c0-0.1,0-0.2,0-0.3c0,0,0,0-0.1-0.1c0,0-0.1,0-0.1-0.1
		c0.1-0.1,0.1-0.1,0-0.2c0-0.1-0.1-0.1-0.2-0.2c0-0.2,0-0.4,0.1-0.4c0-0.1,0-0.2-0.1-0.4c-0.1-0.1-0.1-0.2-0.1-0.4
		C27.8,42,27.7,42,27.8,42c0,0,0,0,0.1,0c0-0.1,0-0.2,0-0.2c0.3,0,0.4-0.2,0.3-0.5C28.5,41.2,28.7,41.1,28.8,40.9z M29.1,40.9
		c0,0.1,0.1,0.1,0.3,0.1c0.1,0,0.1,0,0.2,0c0,0,0,0.1,0,0.1c0,0,0,0.1,0,0.1c0.1,0,0.2,0,0.3,0c0.1,0.1,0.2,0,0.2-0.1
		c0.1,0,0.1,0.1,0.1,0.3c0,0,0.1,0,0.3,0c0,0.1,0,0.2,0.1,0.2c0.1,0.1,0.1,0.1,0.1,0.1l0.1,0c0,0,0,0.1,0,0.1c0,0.1,0,0.1,0,0.1
		c0,0.1,0.1,0.1,0.2,0.2c0,0.2,0,0.3,0,0.3c0,0.1,0.1,0.1,0.3,0.1c0,0.1,0,0.2,0,0.5c-0.1,0-0.2,0-0.2,0.1s0.1,0.2,0.2,0.1l0,0.4
		c-0.1,0-0.1,0.1-0.1,0.3c0,0.2,0.1,0.2,0.2,0.2c0,0,0,0.1,0,0.1c-0.1,0-0.1,0.1-0.1,0.2s0,0.2,0.1,0.2c0,0,0,0.1-0.1,0.2
		c0,0.1-0.1,0.2,0,0.2l0,0.1c0.1,0.2,0.2,0.3,0.2,0.3c-0.1,0.1-0.1,0.2,0,0.3c0,0.1,0,0.2,0,0.3c0,0,0,0.1,0.1,0.1
		c0.1,0,0.1,0.1,0.1,0.1c0,0.1,0,0.1,0,0.1c-0.1,0-0.1,0-0.1,0.1c0,0.1,0,0.1,0.1,0.1c0,0.1,0,0.2,0,0.3c0,0.1,0,0.2,0,0.3
		c0.1,0.1,0.1,0.1,0.1,0.1c0,0,0,0,0,0.1c0,0,0,0.1,0.1,0.1c0,0,0,0,0,0c0,0,0.1,0,0.1,0c0,0.1,0,0.1,0,0.1S31.9,48,31.9,48l0.1,0.5
		c0,0,0.1,0,0.2,0c0,0,0,0.1,0,0.1c0,0,0,0-0.1,0c0,0.1,0,0.1,0,0.2c0,0.1,0,0.2,0,0.2c0.1,0.1,0.1,0.2,0.1,0.2s0,0-0.1,0
		c0,0.1,0,0.2,0,0.5c0,0.2,0,0.4,0,0.4c0,0.2,0,0.3,0.1,0.3V51c0,0,0,0.1,0.1,0.2s0.1,0.2,0.1,0.2c0,0,0,0.1,0,0.2
		c0,0.1,0,0.2,0,0.2c0,0,0.1,0,0.1,0.1c0,0,0.1,0,0.1,0.1c0,0,0,0.1,0,0.1c0,0-0.1,0.1-0.1,0.1c0.1,0,0.1,0.1,0.1,0.1
		c0,0.1,0,0.2-0.1,0.2c-0.1,0.1-0.1,0.1-0.1,0.2c0,0.1,0,0.2,0.1,0.3c0.1,0.1,0.1,0.2,0.1,0.2c0.1,0,0.1,0,0.1,0c0,0.2,0,0.4,0,0.6
		c-0.1,0-0.2,0-0.2,0.1c0,0.1,0.1,0.1,0.2,0.1v0.5c-0.1,0-0.1,0.1-0.1,0.2c0,0.1,0.1,0.2,0.2,0.2c0,0.3,0,0.4,0,0.4
		c-0.1,0-0.2,0.1-0.2,0.1c0,0.1,0,0.1,0.1,0.2c0,0.1,0.1,0.1,0.1,0c0,0.1,0,0.2,0,0.3c0,0.1,0,0.1,0,0.1c-0.1,0.1-0.1,0.2-0.1,0.3
		c0,0,0.1,0.1,0.1,0.1c0,0,0.1,0.1,0.1,0.1c0,0.1,0,0.2,0,0.3c0,0.1,0,0.2,0,0.3c-0.1,0.1-0.1,0.1-0.1,0.1c0,0.1,0,0.1,0.1,0.2
		c0.1,0,0.1,0,0.2,0c0.1,0,0.1,0.1,0.2,0s0,0,0.1-0.1c0,0,0-0.1,0.1-0.1c0.3,0,0.4,0,0.4-0.1c0,0,0,0,0.1,0.1c0,0,0,0.1,0.1,0.1
		c0.1,0,0.1,0,0.2-0.1c0.1-0.1,0.2-0.1,0.3-0.1c0.1,0.1,0.1,0.1,0.2,0.1c0,0,0,0,0-0.1c0,0,0-0.1,0-0.1c0.1,0,0.2,0,0.2-0.1
		C34.9,57,35,57,35,57c0.2-0.1,0.3-0.1,0.3,0c0,0,0-0.1,0-0.1c0,0,0-0.1,0-0.1s0.1,0,0.1,0c0,0,0,0.1,0,0.1c0.1-0.1,0.3-0.2,0.6-0.1
		c0.1,0.1,0.1,0.1,0.2,0.1s0.1,0,0.1,0c0,0,0.1,0,0.1-0.1c0,0,0.1,0,0.1,0c0,0,0.1,0,0.1,0c0,0,0,0,0-0.1s0-0.1,0-0.1l0.6,0
		c0,0,0.2,0,0.5,0c0.1,0,0.1,0,0.2,0c0.1,0,0.1,0,0.1,0s0,0,0.1,0c0,0,0.1,0,0.1,0c0,0,0,0,0.1,0c0,0,0.1,0,0.1,0s0.1,0,0.1,0
		c0.1,0,0.1,0,0.2,0c0,0,0-0.1,0.1-0.1c0,0,0.1,0,0.1,0c0.3,0,0.4,0,0.5,0.1c0.1,0,0.1,0,0.2,0c0.1,0,0.1,0,0.2,0c0.1,0,0.3,0,0.5,0
		c0.3,0,0.4,0,0.4,0l0.1,0.2c0.1,0,0.1-0.1,0.1-0.2c0.1-0.1,0.2,0,0.3,0c0.1-0.1,0.2-0.1,0.3,0c0,0.1,0,0.1,0,0.1
		c0.1,0,0.1,0,0.2-0.1c0,0.1,0.1,0.2,0.3,0.3c0.1,0,0.1,0,0.2,0c0.1,0,0.1,0,0.2,0c0,0.1,0,0.2,0,0.2c0.1,0.1,0.2,0.2,0.3,0.2
		c0,0,0.1,0,0.1,0c0,0,0.1,0,0.1,0c0,0.1,0,0.1,0,0.2c0,0.1,0,0.1,0,0.1s0,0.1,0.1,0.1C43,57.8,43,57.9,43,58
		c0.1,0.1,0.1,0.1,0.1,0.1c0,0.1,0,0.2,0.1,0.3h0.1c0,0,0,0.1-0.1,0.2c0,0.1,0,0.2,0,0.3c-0.1,0-0.1,0.1-0.2,0.2
		c0,0.1-0.1,0.2-0.1,0.2c0,0.1,0,0.2,0,0.3c0,0-0.1,0-0.1,0h0c-0.1,0-0.1,0.1-0.2,0.2c-0.1,0.1-0.2,0.2-0.3,0.2h0c0,0,0,0,0,0
		c0,0.1,0,0.1,0,0.2h-0.8c0,0-0.1,0-0.1-0.1c0,0,0-0.1-0.1-0.1s-0.1,0-0.1,0.1c0,0-0.1,0.1-0.2,0.1c0-0.2-0.1-0.3-0.1-0.3s0,0-0.1,0
		c0,0,0,0-0.1,0c-0.1,0-0.1,0-0.2,0c0-0.1,0-0.1-0.1-0.2c-0.1,0-0.1,0-0.1,0.1c-0.1-0.1-0.1-0.2-0.2-0.2c0,0-0.1,0.1-0.1,0.2
		c-0.1-0.1-0.1-0.2-0.2-0.2c0,0-0.1,0-0.1,0c-0.1,0-0.1,0-0.2,0c0,0-0.1,0-0.1,0s-0.1,0-0.1,0s-0.1,0-0.1,0.1c-0.1,0-0.3,0-0.5-0.1
		c0,0,0,0.1-0.1,0.1c-0.1,0-0.1,0-0.1,0c0-0.1,0-0.2-0.1-0.2s-0.1,0.1-0.1,0.2c0,0-0.1,0-0.2-0.1c0,0.1-0.1,0.1-0.4,0.1
		s-0.5,0-0.5,0c0,0-0.2-0.1-0.6-0.1c0,0.1-0.1,0.1-0.1,0.1c-0.1,0-0.1,0-0.1-0.1c-0.2,0-0.3,0.1-0.3,0.2c-0.1,0-0.2,0-0.3,0
		c-0.1,0-0.1,0-0.2,0c-0.1-0.1-0.1-0.1-0.2-0.1c-0.1,0-0.1,0.1-0.1,0.2c0,0-0.2,0-0.4,0s-0.4,0-0.4,0c0,0,0,0,0,0c0,0,0,0-0.1,0
		c0,0,0,0-0.1,0c-0.1,0.1-0.3,0.1-0.8,0.1c-0.1,0-0.2,0.1-0.3,0.2l-0.3,0c-0.1,0-0.1,0-0.1,0c0,0-0.1,0-0.1,0l-0.1,0.3
		c-0.3,0-0.5,0-0.5,0c0,0,0,0.1-0.1,0.2c0,0-0.1,0-0.1,0c0,0-0.1,0-0.1,0c0-0.1-0.1-0.1-0.2-0.1c-0.1,0-0.2,0-0.3,0c0,0,0,0.1,0,0.1
		c0,0,0,0.1,0,0.1c-0.1,0-0.1,0-0.1-0.1c0,0-0.1-0.1-0.1-0.1c-0.1,0.1-0.2,0.1-0.3,0.1c0,0,0,0,0-0.1c0,0,0.1,0,0.1-0.1h-0.2
		c0-0.1,0-0.1,0-0.1c0,0-0.1,0-0.1-0.1c0-0.1-0.1-0.1-0.1-0.2l0-0.2c-0.1,0-0.2,0-0.3-0.1C30,60,29.9,60,29.9,60
		c0.1-0.1,0-0.2-0.3-0.3c0-0.1,0-0.1,0-0.3c0,0,0,0-0.1,0c0-0.2,0-0.3,0.1-0.3c0,0,0,0,0-0.1c0,0-0.1,0-0.1-0.1c0,0,0-0.1,0.1-0.1
		c0.1,0,0.1,0,0.1-0.1c0-0.1-0.1-0.1-0.2-0.1v-0.1c0.1,0,0.1,0,0.1,0s0,0,0-0.1c0,0,0-0.1,0-0.1c0,0,0.1,0,0.2,0c0-0.1,0-0.2,0-0.5
		s0-0.5,0-0.5c0.1,0,0.1-0.1,0.1-0.1s0-0.1-0.1-0.1c0-0.5,0-1,0-1.5c0-0.2,0-0.4,0-0.5c0.1-0.2,0.1-0.3-0.1-0.4l0-0.4
		c0,0,0-0.2,0-0.4c0-0.5-0.1-0.7-0.1-0.8c0.1-0.1,0.1-0.3,0-0.3c0-0.1,0-0.2,0-0.3c0-0.1,0-0.2,0-0.3c0-0.1-0.1-0.2-0.2-0.2
		c0,0,0-0.1,0-0.1c0-0.1,0-0.1,0-0.1c0,0,0.1-0.1,0.1-0.1c0,0,0-0.1,0-0.1c0-0.1,0-0.1,0-0.1c-0.1-0.1-0.1-0.1-0.2-0.1
		c0,0,0-0.1,0-0.1s0,0,0.1,0c0.1,0,0.1,0,0.1,0c0,0-0.1-0.1-0.2-0.1c0-0.1,0-0.2,0.1-0.3c0-0.3-0.1-0.4-0.1-0.5c-0.1,0-0.1,0-0.1,0
		c0-0.1,0-0.1,0-0.1c0.1,0,0.2,0,0.2-0.1c0,0,0-0.1-0.1-0.1c0,0-0.1,0-0.1,0c0-0.1,0-0.1,0-0.2h0.1c0,0,0.1,0,0.1-0.1c0,0,0,0,0-0.1
		c0,0,0,0,0-0.1c0-0.1,0-0.2,0-0.3c0-0.1,0-0.2,0-0.3c0,0,0-0.1-0.1-0.1c0,0-0.1-0.1-0.1-0.1c0-0.1,0-0.2,0-0.3c0,0,0-0.1,0-0.2
		c0-0.1,0-0.2,0-0.2c0,0,0,0-0.1-0.1c0,0-0.1,0-0.1-0.1l0.1-0.2c0-0.1,0-0.2-0.1-0.4c0-0.2,0-0.3-0.1-0.4c0,0-0.1-0.1-0.1-0.3
		c0-0.1,0-0.2-0.1-0.2c0,0-0.1,0-0.1,0s0,0-0.1,0c-0.1-0.1,0-0.2,0.1-0.3c0,0,0-0.1,0-0.1c0-0.1,0-0.1,0-0.1s-0.1-0.1-0.2-0.1
		c0,0,0-0.1,0.1-0.1V45c-0.1,0-0.1-0.1-0.1-0.1c0,0,0-0.1,0-0.2c0-0.2,0-0.3-0.1-0.3c0,0,0-0.1,0-0.1c0-0.1,0-0.2,0-0.3
		c0-0.1,0-0.2,0-0.3c0,0,0,0-0.1-0.1c0,0-0.1,0-0.1-0.1c0.1-0.1,0.1-0.1,0-0.2c0-0.1-0.1-0.1-0.2-0.2c0-0.2,0-0.4,0.1-0.4
		c0-0.1,0-0.2-0.1-0.4c-0.1-0.1-0.1-0.2-0.1-0.4C27.8,42,27.7,42,27.8,42c0,0,0,0,0.1,0c0,0,0.1,0,0.1,0s0,0,0-0.1
		c0-0.1,0-0.1,0-0.1c0.3,0,0.4-0.2,0.3-0.5c0.4-0.1,0.6-0.2,0.6-0.4C28.9,40.9,29,40.9,29.1,40.9z"/>
	<path fill="#D93427" d="M51.3,42.1c0,0,0.1,0,0.2,0.1c0,0,0.1,0,0.2,0c0.1,0,0.1,0,0.2,0s0.1,0,0.1,0c0,0,0,0,0.1,0s0,0,0.1,0
		c0,0,0.1,0,0.1,0c0.1,0.2,0.2,0.2,0.3,0.2l0.3,0.2c0,0.1,0,0.1,0.1,0.2c0.1,0.1,0.1,0.1,0.1,0.1c0.1,0,0.1,0,0.2,0.1
		c0.1,0.1,0.1,0.1,0.2,0.1c0,0,0.1,0,0.1,0s0.1,0,0.1,0c0.2-0.1,0.3-0.1,0.3-0.1c0,0,0.1,0,0.3,0c0,0,0.1,0,0.2,0c0.1,0,0.1,0,0.2,0
		c0,0,0.1,0,0.1,0.1c0,0,0.1,0.1,0.1,0.1s0.1,0,0.2,0c0.1,0,0.1,0,0.2,0c0,0,0.1,0,0.2,0.1s0.2,0.1,0.3,0.1c0,0,0,0.1,0.1,0.1
		c0.1,0,0.2,0,0.3,0.1c0.1,0.1,0.2,0.1,0.2,0.1c0,0,0.1,0,0.1,0c0.3,0.2,0.5,0.3,0.7,0.3H57c0,0.1-0.1,0.1-0.2,0l0,0.1
		c0,0.1,0.1,0.2,0.3,0.3c0.2,0.1,0.3,0.2,0.3,0.4c0,0.1,0.1,0.1,0.2,0.2c0.2,0.2,0.3,0.3,0.3,0.5c0.1,0.1,0.2,0.2,0.2,0.3
		c0,0.1,0.1,0.1,0.2,0.3c0.1,0.1,0.1,0.2,0.1,0.3c0.1,0.2,0.2,0.3,0.2,0.4c0,0,0,0.1,0.1,0.1c0.1,0.1,0.1,0.3,0.1,0.3l0.1,0.1
		c0,0.1,0,0.2,0.1,0.3c0.1,0.3,0.1,0.4,0.1,0.4c0,0.2,0.1,0.3,0.1,0.3c0,0,0,0.1,0.1,0.3c-0.1,0-0.1,0.1,0,0.2
		c0.1,0.1,0.1,0.2,0.1,0.2c0,0,0,0.1,0,0.1s0,0.1,0,0.1s0,0,0,0.1c0,0,0,0.1,0,0.1c0,0.1,0,0.2,0,0.3c0,0.2,0,0.3,0,0.4
		c0,0.1,0,0.1,0,0.1c0,0,0,0.1,0,0.1c0,0,0,0.1,0.1,0.2c0,0,0,0,0,0.1c0,0,0,0,0,0.1c0.1,0.1,0.1,0.4,0.1,1s0,0.9,0,1
		c0,0,0,0.1,0,0.2c0,0.1,0,0.2,0,0.3c0,0,0,0.1-0.1,0.2c-0.1,0.1-0.1,0.2,0,0.2c0,0,0,0.1,0,0.2c0,0.1,0,0.1,0,0.2
		c-0.1,0-0.2,0.1-0.2,0.1c0,0.3,0,0.4,0,0.5c0,0,0,0.1,0,0.1c0,0-0.1,0.1-0.1,0.1c0,0,0,0.1,0,0.1c-0.1,0.2-0.1,0.3-0.1,0.3
		c0,0,0,0.1-0.1,0.1s-0.1,0-0.1,0c0,0,0,0,0,0.1c0,0-0.1,0.1-0.1,0.1c0,0.1-0.1,0.1-0.1,0.2l-0.3,0.3c0,0.1-0.1,0.3-0.2,0.4
		c-0.1,0.2-0.2,0.3-0.2,0.4c-0.1,0.1-0.2,0.3-0.2,0.5c0,0-0.1,0-0.2,0.1c0,0.1,0,0.1-0.1,0.2c-0.1,0.1-0.1,0.2-0.1,0.3
		c-0.1,0-0.2,0.1-0.2,0.2c-0.1,0.1-0.1,0.2-0.2,0.2c0,0-0.1,0.1-0.1,0.2c-0.1,0.1-0.1,0.2-0.1,0.2c0,0.1,0,0.1-0.1,0.2
		c-0.2,0.1-0.4,0.2-0.5,0.4c-0.1,0.1-0.2,0.2-0.2,0.2c-0.1,0.1-0.2,0.2-0.3,0.2c-0.2,0.1-0.3,0.2-0.3,0.3c0,0-0.1,0-0.1,0s0,0-0.1,0
		c0,0-0.1,0.1-0.1,0.1c-0.1,0.1-0.1,0.1-0.1,0.1c-0.1,0-0.2,0-0.3,0.1c-0.1,0-0.2,0-0.3,0.1c-0.1,0-0.1,0-0.2,0c-0.1,0-0.1,0-0.2,0
		c0,0-0.1,0.1-0.2,0.2c-0.2,0-0.3,0-0.3,0c0,0.1-0.1,0.1-0.3,0.1c-0.1,0-0.2,0.1-0.3,0.2c-0.1,0-0.3,0-0.7,0s-0.6,0-0.8,0
		c-0.1,0-0.2,0-0.3,0c-0.1,0-0.3,0-0.3,0c0,0-0.1-0.1-0.1-0.2c-0.1,0-0.1,0-0.2,0.1c0,0.1-0.1,0.1-0.1,0.1s0,0,0-0.1l0,0
		c0,0-0.1,0-0.1-0.1c-0.1,0-0.1-0.1-0.1-0.1c-0.2,0.1-0.3,0-0.5-0.1c-0.2-0.1-0.3-0.1-0.4-0.1c0,0,0-0.1,0-0.1c0,0-0.1,0-0.2-0.1
		c-0.1-0.1-0.3-0.1-0.4-0.1v-0.1c0,0-0.1-0.1-0.1-0.1c-0.1-0.1-0.1-0.1-0.1-0.1c-0.1,0-0.1,0-0.1-0.1c0,0,0,0-0.1-0.1
		c0,0-0.1,0-0.1-0.1c0,0,0,0-0.1,0c0,0-0.1,0-0.1,0s0,0,0,0s0,0,0,0c0,0-0.1,0-0.1-0.1c0,0-0.1,0-0.1-0.1C47.8,59,47.7,59,47.7,59
		c-0.1,0-0.1,0-0.1,0c-0.1-0.1-0.1-0.1-0.2-0.3c-0.1-0.1-0.2-0.2-0.2-0.3H47c-0.3-0.3-0.4-0.5-0.5-0.7c0,0-0.1-0.1-0.3-0.3v-0.1
		c0,0-0.1-0.1-0.1-0.1C46.1,57,46.1,57,46,56.9c0-0.3-0.1-0.5-0.2-0.8c0-0.1,0-0.2-0.1-0.3c0-0.1,0-0.1,0-0.1c0,0,0,0,0-0.1
		c0,0,0-0.1,0-0.1c0,0,0-0.1,0-0.1c0,0-0.1-0.1-0.1-0.1c0,0,0-0.2,0-0.5c0,0,0-0.1,0-0.1c0,0,0-0.1,0-0.1c0,0-0.1,0-0.1-0.1
		c0,0,0-0.1,0-0.1c0-0.1,0-0.2,0-0.3c0-0.2,0-0.3,0-0.4c0,0-0.1,0-0.1-0.1c0,0,0-0.1,0-0.2c0,0,0-0.1,0-0.1s0-0.1-0.1-0.1
		c0-0.1,0-0.1,0-0.1c-0.1-0.1-0.1-0.1-0.1-0.2c0,0,0-0.1,0-0.1s0-0.1,0-0.1c0.1-0.1,0-0.3-0.1-0.3c0,0,0-0.1,0-0.2v-0.1l0.2-0.2
		c0-0.1,0-0.2,0-0.6s0-0.5,0-0.6c0-0.1,0-0.1,0-0.2c0-0.1,0-0.1,0-0.1c0-0.1,0-0.2,0-0.3c0-0.2,0-0.3,0-0.4c0-0.1,0.1-0.2,0.1-0.2
		c0,0,0-0.1,0-0.1c0,0,0-0.1,0-0.1c0,0,0-0.1,0-0.1c0,0,0.1-0.1,0.1-0.1c0,0,0-0.2,0-0.4c0-0.2,0-0.4,0-0.4c0-0.3,0-0.5,0-0.5
		c0,0,0.1,0,0.1-0.1c0.1-0.1,0.1-0.1,0.2-0.1c0-0.1,0-0.1,0-0.1c0,0,0-0.1,0-0.1c0,0,0.1-0.1,0.1-0.1c0,0,0-0.1,0-0.1
		c0-0.1,0-0.1,0-0.1c0.1-0.1,0.1-0.1,0.1-0.1c0-0.1,0-0.2,0-0.3c0-0.2,0-0.3,0.1-0.3c0,0,0.1,0,0.1,0c0,0,0.1,0,0.1,0
		c0-0.1,0-0.1-0.1-0.1c0,0-0.1,0-0.1-0.1l0.1-0.2c0,0,0.1-0.1,0.1-0.2c0.1-0.1,0.1-0.2,0.1-0.2c0,0,0,0,0-0.1s0,0,0-0.1
		c0.1-0.1,0.1-0.2,0.1-0.3c0.1,0,0.1-0.1,0.1-0.2c0-0.1,0.1-0.1,0.1-0.2c0-0.1,0-0.2,0.1-0.3c0.1-0.1,0.1-0.2,0.1-0.2s0-0.1,0-0.1
		c0,0,0-0.1,0-0.1c0-0.1,0-0.1,0.1-0.2c0.1-0.1,0.1-0.2,0.1-0.2c0.1,0,0.2-0.1,0.3-0.3c0.1,0,0.2-0.1,0.2-0.3c0-0.1,0-0.1,0-0.2
		c0.1,0.1,0.2,0,0.3-0.1c0.1,0,0.1-0.1,0.1-0.1h0.1c0.1,0,0.1-0.1,0.2-0.1c0.1-0.1,0.1-0.1,0.2-0.1c0.1,0,0.3-0.1,0.5-0.3
		c0.1,0,0.2,0,0.2-0.1c0.1-0.1,0.2-0.1,0.2-0.1c0,0,0,0,0,0s0,0,0-0.1c0.1,0.1,0.2,0,0.4-0.1c0.1,0,0.1,0,0.3,0c0.1,0,0.2,0,0.3,0
		c0.1,0,0.1,0,0.3,0C51.1,42.1,51.2,42.1,51.3,42.1z M50.7,42.1c0.1,0,0.1,0,0.3,0c0.1,0,0.2,0,0.4,0c0,0,0.1,0,0.2,0.1
		c0,0,0.1,0,0.2,0c0.1,0,0.1,0,0.2,0s0.1,0,0.1,0c0,0,0,0,0.1,0s0,0,0.1,0c0,0,0.1,0,0.1,0c0.1,0.2,0.2,0.2,0.3,0.2l0.3,0.2
		c0,0.1,0,0.1,0.1,0.2c0.1,0.1,0.1,0.1,0.1,0.1c0.1,0,0.1,0,0.2,0.1c0.1,0.1,0.1,0.1,0.2,0.1c0,0,0.1,0,0.1,0s0.1,0,0.1,0
		c0.2-0.1,0.3-0.1,0.3-0.1c0,0,0.1,0,0.3,0c0,0,0.1,0,0.2,0c0.1,0,0.1,0,0.2,0c0,0,0.1,0,0.1,0.1c0,0,0.1,0.1,0.1,0.1s0.1,0,0.2,0
		c0.1,0,0.1,0,0.2,0c0,0,0.1,0,0.2,0.1s0.2,0.1,0.3,0.1c0,0,0,0.1,0.1,0.1c0.1,0,0.2,0,0.3,0.1c0.1,0.1,0.2,0.1,0.2,0.1
		c0,0,0.1,0,0.1,0c0.3,0.2,0.5,0.3,0.7,0.3H57c0,0.1-0.1,0.1-0.2,0l0,0.1c0,0.1,0.1,0.2,0.3,0.3c0.2,0.1,0.3,0.2,0.3,0.4
		c0,0.1,0.1,0.1,0.2,0.2c0.2,0.2,0.3,0.3,0.3,0.5c0.1,0.1,0.2,0.2,0.2,0.3c0,0.1,0.1,0.1,0.2,0.3c0.1,0.1,0.1,0.2,0.1,0.3
		c0.1,0.2,0.2,0.3,0.2,0.4c0,0,0,0.1,0.1,0.1c0.1,0.1,0.1,0.3,0.1,0.3l0.1,0.1c0,0.1,0,0.2,0.1,0.3c0.1,0.3,0.1,0.4,0.1,0.4
		c0,0.2,0.1,0.3,0.1,0.3c0,0,0,0.1,0.1,0.3c-0.1,0-0.1,0.1,0,0.2c0.1,0.1,0.1,0.2,0.1,0.2c0,0,0,0.1,0,0.1s0,0.1,0,0.1s0,0,0,0.1
		c0,0,0,0.1,0,0.1c0,0.1,0,0.2,0,0.3c0,0.2,0,0.3,0,0.4c0,0.1,0,0.1,0,0.1c0,0,0,0.1,0,0.1c0,0,0,0.1,0.1,0.2c0,0,0,0,0,0.1
		c0,0,0,0,0,0.1c0.1,0.1,0.1,0.4,0.1,1s0,0.9,0,1c0,0,0,0.1,0,0.2c0,0.1,0,0.2,0,0.3c0,0,0,0.1-0.1,0.2c-0.1,0.1-0.1,0.2,0,0.2
		c0,0,0,0.1,0,0.2c0,0.1,0,0.1,0,0.2c-0.1,0-0.2,0.1-0.2,0.1c0,0.3,0,0.4,0,0.5c0,0,0,0.1,0,0.1c0,0-0.1,0.1-0.1,0.1
		c0,0,0,0.1,0,0.1c-0.1,0.2-0.1,0.3-0.1,0.3c0,0,0,0.1-0.1,0.1s-0.1,0-0.1,0c0,0,0,0,0,0.1c0,0-0.1,0.1-0.1,0.1
		c0,0.1-0.1,0.1-0.1,0.2l-0.3,0.3c0,0.1-0.1,0.3-0.2,0.4c-0.1,0.2-0.2,0.3-0.2,0.4c-0.1,0.1-0.2,0.3-0.2,0.5c0,0-0.1,0-0.2,0.1
		c0,0.1,0,0.1-0.1,0.2c-0.1,0.1-0.1,0.2-0.1,0.3c-0.1,0-0.2,0.1-0.2,0.2c-0.1,0.1-0.1,0.2-0.2,0.2c0,0-0.1,0.1-0.1,0.2
		c-0.1,0.1-0.1,0.2-0.1,0.2c0,0.1,0,0.1-0.1,0.2c-0.2,0.1-0.4,0.2-0.5,0.4c-0.1,0.1-0.2,0.2-0.2,0.2c-0.1,0.1-0.2,0.2-0.3,0.2
		c-0.2,0.1-0.3,0.2-0.3,0.3c0,0-0.1,0-0.1,0s0,0-0.1,0c0,0-0.1,0.1-0.1,0.1c-0.1,0.1-0.1,0.1-0.1,0.1c-0.1,0-0.2,0-0.3,0.1
		c-0.1,0-0.2,0-0.3,0.1c-0.1,0-0.1,0-0.2,0c-0.1,0-0.1,0-0.2,0c0,0-0.1,0.1-0.2,0.2c-0.2,0-0.3,0-0.3,0c0,0.1-0.1,0.1-0.3,0.1
		c-0.1,0-0.2,0.1-0.3,0.2c-0.1,0-0.3,0-0.7,0s-0.6,0-0.8,0c-0.1,0-0.2,0-0.3,0c-0.1,0-0.3,0-0.3,0c0,0-0.1-0.1-0.1-0.2
		c-0.1,0-0.1,0-0.2,0.1c0,0.1-0.1,0.1-0.1,0.1s0,0,0-0.1l0,0c0,0-0.1,0-0.1-0.1c-0.1,0-0.1-0.1-0.1-0.1c-0.2,0.1-0.3,0-0.5-0.1
		c-0.2-0.1-0.3-0.1-0.4-0.1c0,0,0-0.1,0-0.1c0,0-0.1,0-0.2-0.1c-0.1-0.1-0.3-0.1-0.4-0.1v-0.1c0,0-0.1-0.1-0.1-0.1
		c-0.1-0.1-0.1-0.1-0.1-0.1c-0.1,0-0.1,0-0.1-0.1c0,0,0,0-0.1-0.1c0,0-0.1,0-0.1-0.1c0,0,0,0-0.1,0c0,0-0.1,0-0.1,0s0,0,0,0s0,0,0,0
		c0,0-0.1,0-0.1-0.1c0,0-0.1,0-0.1-0.1C47.8,59,47.7,59,47.7,59c-0.1,0-0.1,0-0.1,0c-0.1-0.1-0.1-0.1-0.2-0.3
		c-0.1-0.1-0.2-0.2-0.2-0.3H47c-0.3-0.3-0.4-0.5-0.5-0.7c0,0-0.1-0.1-0.3-0.3v-0.1c0,0-0.1-0.1-0.1-0.1C46.1,57,46.1,57,46,56.9
		c0-0.3-0.1-0.5-0.2-0.8c0-0.1,0-0.2-0.1-0.3c0-0.1,0-0.1,0-0.1c0,0,0,0,0-0.1c0,0,0-0.1,0-0.1c0,0,0-0.1,0-0.1c0,0-0.1-0.1-0.1-0.1
		c0,0,0-0.2,0-0.5c0,0,0-0.1,0-0.1c0,0,0-0.1,0-0.1c0,0-0.1,0-0.1-0.1c0,0,0-0.1,0-0.1c0-0.1,0-0.2,0-0.3c0-0.2,0-0.3,0-0.4
		c0,0-0.1,0-0.1-0.1c0,0,0-0.1,0-0.2c0,0,0-0.1,0-0.1s0-0.1-0.1-0.1c0-0.1,0-0.1,0-0.1c-0.1-0.1-0.1-0.1-0.1-0.2c0,0,0-0.1,0-0.1
		s0-0.1,0-0.1c0.1-0.1,0-0.3-0.1-0.3c0,0,0-0.1,0-0.2v-0.1l0.2-0.2c0-0.1,0-0.2,0-0.6s0-0.5,0-0.6c0-0.1,0-0.1,0-0.2
		c0-0.1,0-0.1,0-0.1c0-0.1,0-0.2,0-0.3c0-0.2,0-0.3,0-0.4c0-0.1,0.1-0.2,0.1-0.2c0,0,0-0.1,0-0.1c0,0,0-0.1,0-0.1c0,0,0-0.1,0-0.1
		c0,0,0.1-0.1,0.1-0.1c0,0,0-0.2,0-0.4c0-0.2,0-0.4,0-0.4c0-0.3,0-0.5,0-0.5c0,0,0.1,0,0.1-0.1c0.1-0.1,0.1-0.1,0.2-0.1
		c0-0.1,0-0.1,0-0.1c0,0,0-0.1,0-0.1c0,0,0.1-0.1,0.1-0.1c0,0,0-0.1,0-0.1c0-0.1,0-0.1,0-0.1c0.1-0.1,0.1-0.1,0.1-0.1
		c0-0.1,0-0.2,0-0.3c0-0.2,0-0.3,0.1-0.3c0,0,0.1,0,0.1,0c0,0,0.1,0,0.1,0c0-0.1,0-0.1-0.1-0.1c0,0-0.1,0-0.1-0.1l0.1-0.2
		c0,0,0.1-0.1,0.1-0.2c0.1-0.1,0.1-0.2,0.1-0.2c0,0,0,0,0-0.1s0,0,0-0.1c0.1-0.1,0.1-0.2,0.1-0.3c0.1,0,0.1-0.1,0.1-0.2
		c0-0.1,0.1-0.1,0.1-0.2c0-0.1,0-0.2,0.1-0.3c0.1-0.1,0.1-0.2,0.1-0.2s0-0.1,0-0.1c0,0,0-0.1,0-0.1c0-0.1,0-0.1,0.1-0.2
		c0.1-0.1,0.1-0.2,0.1-0.2c0.1,0,0.2-0.1,0.3-0.3c0.1,0,0.2-0.1,0.2-0.3c0-0.1,0-0.1,0-0.2c0.1,0.1,0.2,0,0.3-0.1
		c0.1,0,0.1-0.1,0.1-0.1h0.1c0.1,0,0.1-0.1,0.2-0.1c0.1-0.1,0.1-0.1,0.2-0.1c0.1,0,0.3-0.1,0.5-0.3c0.1,0,0.2,0,0.2-0.1
		c0.1-0.1,0.2-0.1,0.2-0.1c0,0,0,0,0,0s0,0,0-0.1c0.1,0.1,0.2,0,0.4-0.1c0.1,0,0.1,0,0.3,0C50.5,42.1,50.6,42.1,50.7,42.1z
		 M51.2,44.7c-0.2,0.1-0.4,0.2-0.5,0.3c-0.2,0.1-0.3,0.2-0.5,0.3c-0.2,0.1-0.3,0.3-0.4,0.5c0,0-0.1,0.1-0.1,0.1
		c-0.1,0.1-0.1,0.1-0.1,0.1v0.1c0,0,0,0.1-0.1,0.1c0,0-0.1,0.1-0.1,0.1c0,0-0.1,0.2-0.2,0.4c0,0.1,0,0.1-0.1,0.2
		C49.1,47,49.1,47,49.1,47c0,0.1,0,0.1,0,0.1s0,0.1-0.1,0.1c0,0,0,0.1,0,0.1c0,0.1,0,0.1,0,0.1c0,0,0,0.1,0,0.1
		c-0.1,0.1-0.1,0.2,0,0.2c-0.1,0.1-0.2,0.2-0.2,0.5c-0.1,0.1-0.2,0.3-0.1,0.6c-0.1,0.1-0.2,0.2-0.1,0.4c-0.2,0.3-0.2,0.5-0.1,0.6
		c0,0,0,0.1-0.1,0.1c0,0-0.1,0-0.1,0.1c0,0.1,0,0.2,0,0.3c-0.1,0.1-0.1,0.3,0,0.3C48,50.8,48,51,48,51.3c0,0,0,0.1,0,0.1
		c0,0.1,0,0.1,0,0.1s0,0.1-0.1,0.1c0,0-0.1,0.1-0.1,0.1c0.1,0.1,0.1,0.1,0.1,0.3s0,0.2,0,0.4c0,0.2,0,0.3,0,0.4c0,0,0,0.1,0,0.1
		c0,0,0,0.1,0,0.1L48,53c0,0.1,0,0.2,0,0.4c0,0,0,0.1,0,0.1c0,0,0,0.1,0,0.1s0,0.1,0,0.1s0,0.1,0,0.1c0,0.1,0,0.2,0,0.3
		c0,0,0,0.1,0.1,0.1c0,0,0,0,0,0.1s0,0,0,0c0,0,0,0,0,0.1c0,0.1,0,0.2,0,0.2c0,0.1,0,0.1,0,0.2c0,0.1,0,0.1,0,0.1c0,0,0,0,0,0.1
		c0,0,0,0.1,0,0.1c0,0,0,0,0.1,0.1c0,0,0,0.1,0,0.1c0,0,0,0.1,0,0.1c0,0,0,0.1,0,0.1s0,0,0,0.1c0,0,0,0.1,0,0.1c0,0,0,0,0,0.1
		c0,0,0.1,0.1,0.1,0.1c0,0,0.1,0.1,0.1,0.1c-0.1,0.1-0.1,0.2,0.1,0.4v0.1c0,0,0,0.1,0.1,0.1c0.1,0,0.1,0.1,0.1,0.1l0.2,0.2
		c0.1,0.1,0.2,0.3,0.4,0.4c0.2,0.2,0.3,0.3,0.4,0.4c0.1,0,0.1,0,0.1,0c0.2,0.3,0.4,0.4,0.6,0.4c0.1,0.1,0.1,0.1,0.2,0.1
		c0,0,0.1,0,0.2,0c0.1,0,0.2,0,0.2,0c0,0,0.1,0.1,0.1,0.1c0,0,0.1,0.1,0.1,0.1s0.1,0,0.1,0s0.1,0,0.1,0c0,0,0,0,0.1,0
		c0,0,0.1,0,0.1,0c0.2,0,0.4,0,0.6,0c0,0,0.1,0,0.1-0.1c0.1-0.1,0.1-0.1,0.2-0.1c0.1,0,0.1,0,0.2,0c0,0,0.1,0,0.1-0.1
		c0,0,0.1-0.1,0.1-0.1c0,0,0.1,0,0.2,0c0.1-0.1,0.2-0.1,0.3-0.1c0.1-0.1,0.3-0.2,0.5-0.3c0.2-0.2,0.4-0.3,0.5-0.3c0,0,0-0.1,0.1-0.1
		c0,0,0.1-0.1,0.1-0.1c0,0,0,0,0-0.1c0-0.1,0.1-0.1,0.2-0.2c0.1-0.1,0.1-0.1,0.1-0.1c0,0,0.1-0.1,0.1-0.2c0.1-0.1,0.1-0.2,0.1-0.2
		c0,0,0-0.1,0.1-0.1c0.1,0,0.1-0.1,0.1-0.1c0.1-0.1,0.2-0.2,0.2-0.2c0,0,0-0.1,0-0.1c0,0,0.1-0.2,0.3-0.4c0,0,0-0.1,0.1-0.1
		c0,0,0.1-0.2,0.1-0.4c0-0.1,0.1-0.1,0.2-0.2c0,0,0-0.1,0-0.1s0,0,0-0.1c0,0,0-0.1,0.1-0.1c0,0,0-0.1,0-0.1s0-0.1,0-0.1
		c0.1-0.1,0.2-0.3,0.3-0.8l0-0.3c0,0,0-0.1,0-0.1c0-0.1,0-0.1,0-0.1c0.1-0.1,0.1-0.1,0.1-0.2s0-0.1-0.1-0.1c0,0-0.1-0.1-0.1-0.1
		c0-0.1,0-0.1,0.1-0.2c0.1-0.1,0.1-0.1,0.1-0.2c0-0.1,0-0.1,0-0.2c0-0.1-0.1-0.2,0-0.2c0,0,0-0.1,0-0.1c0,0,0-0.1,0-0.1
		c0,0-0.1-0.1-0.1-0.1c0,0-0.1-0.1-0.1-0.1c0.1-0.1,0.1-0.1,0.1-0.1c0,0,0-0.1,0-0.1c0,0,0-0.1,0-0.1c0-0.1,0-0.1,0-0.3
		c0-0.1,0-0.2,0-0.2c0,0,0-0.1,0-0.1c0,0,0-0.1,0-0.1c0,0,0-0.1-0.1-0.1c0-0.1,0-0.1-0.1-0.1c0,0-0.1-0.1-0.1-0.1
		c0-0.1,0-0.1,0.1-0.2c0-0.1,0-0.1,0-0.1c0,0,0-0.1,0-0.1c0,0,0-0.1,0-0.1c0-0.1,0-0.1,0-0.1c0-0.1,0-0.1,0-0.1
		c-0.1,0-0.1-0.1-0.1-0.3c0-0.2-0.1-0.3-0.1-0.3c0,0,0-0.1,0-0.2c0-0.1,0-0.2,0-0.2c-0.1-0.1-0.2-0.2-0.2-0.3
		c-0.3-0.5-0.7-1-1.2-1.5h-0.2c0-0.1-0.1-0.2-0.3-0.3h-0.1l-0.2-0.1c0,0-0.1-0.1-0.1-0.1c-0.1-0.1-0.2-0.1-0.2-0.1c0,0-0.1,0-0.2,0
		s-0.1,0-0.1,0c-0.1-0.1-0.2-0.1-0.3-0.1c-0.1,0-0.2,0-0.3,0c-0.1,0-0.2,0-0.3,0c-0.1-0.2-0.3-0.3-0.4-0.2c-0.1-0.1-0.1-0.2,0-0.3
		c0,0,0-0.1,0.1-0.1c0,0,0.1-0.1,0.1-0.1c0-0.1,0-0.1-0.1-0.1c-0.1,0-0.1,0-0.1,0c0-0.1-0.1-0.2-0.1-0.2c-0.1,0-0.2,0-0.4,0
		C51.5,44.7,51.3,44.7,51.2,44.7z M52.1,44.7c-0.1,0-0.2,0-0.4,0c-0.2,0-0.4,0-0.5,0c-0.2,0.1-0.4,0.2-0.5,0.3
		c-0.2,0.1-0.3,0.2-0.5,0.3c-0.2,0.1-0.3,0.3-0.4,0.5c0,0-0.1,0.1-0.1,0.1c-0.1,0.1-0.1,0.1-0.1,0.1v0.1c0,0,0,0.1-0.1,0.1
		c0,0-0.1,0.1-0.1,0.1c0,0-0.1,0.2-0.2,0.4c0,0.1,0,0.1-0.1,0.2C49.1,47,49.1,47,49.1,47c0,0.1,0,0.1,0,0.2c0,0,0,0.1-0.1,0.1
		c0,0,0,0.1,0,0.1c0,0.1,0,0.1,0,0.1c0,0,0,0.1,0,0.1c-0.1,0.1-0.1,0.2,0,0.2c-0.1,0.1-0.2,0.2-0.2,0.5c-0.1,0.1-0.2,0.3-0.1,0.6
		c-0.1,0.1-0.2,0.2-0.1,0.4c-0.2,0.3-0.2,0.5-0.1,0.6c0,0,0,0.1-0.1,0.1c0,0-0.1,0-0.1,0.1c0,0.1,0,0.2,0,0.3
		c-0.1,0.1-0.1,0.3,0,0.3C48,50.8,48,51,48,51.3c0,0,0,0.1,0,0.1c0,0.1,0,0.1,0,0.1s0,0.1-0.1,0.1c0,0-0.1,0.1-0.1,0.1
		c0.1,0.1,0.1,0.1,0.1,0.3s0,0.2,0,0.4c0,0.2,0,0.3,0,0.4c0,0,0,0.1,0,0.1c0,0,0,0.1,0,0.1L48,53c0,0.1,0,0.2,0,0.4c0,0,0,0.1,0,0.1
		c0,0,0,0.1,0,0.1s0,0.1,0,0.1s0,0.1,0,0.1c0,0.1,0,0.2,0,0.3c0,0,0,0.1,0.1,0.1c0,0,0,0,0,0.1s0,0,0,0c0,0,0,0,0,0.1
		c0,0.1,0,0.2,0,0.2c0,0.1,0,0.1,0,0.2c0,0.1,0,0.1,0,0.1c0,0,0,0,0,0.1c0,0,0,0.1,0,0.1c0,0,0,0,0.1,0.1c0,0,0,0.1,0,0.1
		c0,0,0,0.1,0,0.1c0,0,0,0.1,0,0.1s0,0,0,0.1c0,0,0,0.1,0,0.1c0,0,0,0,0,0.1c0,0,0.1,0.1,0.1,0.1c0,0,0.1,0.1,0.1,0.1
		c-0.1,0.1-0.1,0.2,0.1,0.4v0.1c0,0,0,0.1,0.1,0.1c0.1,0,0.1,0.1,0.1,0.1l0.2,0.2c0.1,0.1,0.2,0.3,0.4,0.4c0.2,0.2,0.3,0.3,0.4,0.4
		c0.1,0,0.1,0,0.1,0c0.2,0.3,0.4,0.4,0.6,0.4c0.1,0.1,0.1,0.1,0.2,0.1c0,0,0.1,0,0.2,0c0.1,0,0.2,0,0.2,0c0,0,0.1,0.1,0.1,0.1
		c0,0,0.1,0.1,0.1,0.1s0.1,0,0.1,0s0.1,0,0.1,0c0,0,0,0,0.1,0c0,0,0.1,0,0.1,0c0.2,0,0.4,0,0.6,0c0,0,0.1,0,0.1-0.1
		c0.1-0.1,0.1-0.1,0.2-0.1c0.1,0,0.1,0,0.2,0c0,0,0.1,0,0.1-0.1c0,0,0.1-0.1,0.1-0.1c0,0,0.1,0,0.2,0c0.1-0.1,0.2-0.1,0.3-0.1
		c0.1-0.1,0.3-0.2,0.5-0.3c0.2-0.2,0.4-0.3,0.5-0.3c0,0,0-0.1,0.1-0.1c0,0,0.1-0.1,0.1-0.1c0,0,0,0,0-0.1c0-0.1,0.1-0.1,0.2-0.2
		c0.1-0.1,0.1-0.1,0.1-0.1c0,0,0.1-0.1,0.1-0.2c0.1-0.1,0.1-0.2,0.1-0.2c0,0,0-0.1,0.1-0.1c0.1,0,0.1-0.1,0.1-0.1
		c0.1-0.1,0.2-0.2,0.2-0.2c0,0,0-0.1,0-0.1c0,0,0.1-0.2,0.3-0.4c0,0,0-0.1,0.1-0.1c0,0,0.1-0.2,0.1-0.4c0-0.1,0.1-0.1,0.2-0.2
		c0,0,0-0.1,0-0.1s0,0,0-0.1c0,0,0-0.1,0.1-0.1c0,0,0-0.1,0-0.1s0-0.1,0-0.1c0.1-0.1,0.2-0.3,0.3-0.8l0-0.3c0,0,0-0.1,0-0.1
		c0-0.1,0-0.1,0-0.1c0.1-0.1,0.1-0.1,0.1-0.2s0-0.1-0.1-0.1c0,0-0.1-0.1-0.1-0.1c0-0.1,0-0.1,0.1-0.2c0.1-0.1,0.1-0.1,0.1-0.2
		c0-0.1,0-0.1,0-0.2c0-0.1-0.1-0.2,0-0.2c0,0,0-0.1,0-0.1c0,0,0-0.1,0-0.1c0,0-0.1-0.1-0.1-0.1c0,0-0.1-0.1-0.1-0.1
		c0.1-0.1,0.1-0.1,0.1-0.1c0,0,0-0.1,0-0.1c0,0,0-0.1,0-0.1c0-0.1,0-0.1,0-0.3c0-0.1,0-0.2,0-0.2c0,0,0-0.1,0-0.1c0,0,0-0.1,0-0.1
		c0,0,0-0.1-0.1-0.1c0-0.1,0-0.1-0.1-0.1c0,0-0.1-0.1-0.1-0.1c0-0.1,0-0.1,0.1-0.2c0-0.1,0-0.1,0-0.1c0,0,0-0.1,0-0.1
		c0,0,0-0.1,0-0.1c0-0.1,0-0.1,0-0.1c0-0.1,0-0.1,0-0.1c-0.1,0-0.1-0.1-0.1-0.3c0-0.2-0.1-0.3-0.1-0.3c0,0,0-0.1,0-0.2
		c0-0.1,0-0.2,0-0.2c-0.1-0.1-0.2-0.2-0.2-0.3c-0.3-0.5-0.7-1-1.2-1.5h-0.2c0-0.1-0.1-0.2-0.3-0.3h-0.1l-0.2-0.1
		c0,0-0.1-0.1-0.1-0.1c-0.1-0.1-0.2-0.1-0.2-0.1c0,0-0.1,0-0.2,0s-0.1,0-0.1,0c-0.1-0.1-0.2-0.1-0.3-0.1c-0.1,0-0.2,0-0.3,0
		c-0.1,0-0.2,0-0.3,0c-0.1-0.2-0.3-0.3-0.4-0.2c-0.1-0.1-0.1-0.2,0-0.3c0,0,0-0.1,0.1-0.1c0,0,0.1-0.1,0.1-0.1c0-0.1,0-0.1-0.1-0.1
		c-0.1,0-0.1,0-0.1,0C52.2,44.7,52.1,44.7,52.1,44.7z"/>
	<path fill="#D93427" d="M71.4,43.3c0,0,0,0.1,0,0.2c0.2,0.1,0.4,0.3,0.6,0.4l0.2,0c0,0.1,0.1,0.2,0.2,0.3c0,0.1,0,0.2,0.1,0.2
		c0.1,0,0.1,0,0.1,0c0,0.3,0,0.4,0,0.5c0.1,0.1,0.1,0.2,0.1,0.3c0,0.1,0,0.2,0,0.3c0,0.1,0,0.2,0,0.4c-0.2,0.1-0.3,0.2-0.3,0.4
		c-0.1,0-0.1,0-0.2,0c-0.1,0.1-0.1,0.1-0.1,0.1s-0.1,0-0.1,0c0,0-0.1,0-0.1,0c0,0,0,0-0.1,0.1s-0.1,0-0.1,0c0,0,0,0-0.1,0
		c-0.1,0-0.1,0.1-0.2,0.3c0,0-0.1,0-0.2-0.1c-0.1,0-0.1,0-0.1,0c0,0-0.1,0-0.1,0c0-0.1,0-0.2-0.2-0.3c0,0-0.1,0-0.1,0
		c0,0-0.1,0-0.1,0l-0.1-0.1c-0.1,0-0.1,0-0.1,0c0,0,0,0-0.1,0v-0.1c-0.1-0.1-0.2-0.2-0.3-0.1c0,0-0.1,0-0.1,0.1c-0.1,0-0.2,0-0.3,0
		c0,0-0.1,0-0.1,0c0,0-0.1,0-0.1,0c0,0-0.1,0-0.1,0c0,0-0.1,0-0.1,0s-0.1,0-0.2-0.1c0,0-0.1,0-0.1,0.1c-0.1,0-0.1,0-0.1,0
		s-0.1,0-0.1,0c-0.1,0-0.1,0-0.1,0c0,0-0.1,0-0.1,0c0,0-0.1,0-0.1,0c0,0-0.1,0-0.1,0c0,0-0.1,0-0.1,0c0,0-0.1,0-0.1,0
		c-0.1,0-0.2,0-0.2,0c-0.3,0-0.5,0.1-0.5,0.1c0,0.1,0,0.1,0,0.1c0,0-0.1,0-0.1,0c0,0-0.1-0.1-0.1-0.1c0,0-0.1,0-0.3,0.1
		c0,0,0,0-0.1,0c0,0,0,0-0.1,0c-0.1,0.1-0.2,0.1-0.4,0.1c-0.2,0-0.4,0.1-0.5,0.1l0,0.1c-0.1,0-0.1,0-0.1,0s0,0-0.1,0
		c0,0,0,0.1-0.1,0.1c-0.1,0-0.1,0-0.1,0s-0.1,0-0.2,0.1c0,0-0.1,0-0.1,0c-0.1,0-0.1,0-0.2,0c0,0,0,0.1,0,0.1c0,0,0,0.1,0,0.1
		c0,0.1,0.1,0.2,0.1,0.2s0.1,0,0.2,0c0,0.1,0.1,0.1,0.3,0.2c0,0,0.1,0,0.1,0c0,0,0.1,0,0.1,0s0,0,0,0.1c0,0.1,0,0.1,0,0.1
		c0.1-0.1,0.2,0,0.3,0.1c0.1,0.1,0.2,0.1,0.3,0.1c0,0,0.1,0.1,0.2,0.1c0.1,0,0.2,0,0.2,0.1c0,0,0.1,0,0.1,0.1c0,0,0.1,0,0.1,0
		c0,0,0.1,0,0.1,0.1c0,0,0.1,0,0.1,0.1c0.3,0.1,0.5,0.1,0.5,0.2c0.1-0.1,0.2,0,0.3,0c0.1,0,0.1,0.1,0.1,0.1c0.1,0,0.1,0,0.2,0
		c0.1,0,0.2,0,0.2,0c0,0,0,0,0.1,0c0,0,0,0,0.1,0c0,0,0.1,0,0.1,0c0,0,0.1,0,0.1,0.1s0.1,0.1,0.1,0.1c0,0,0.1,0,0.1,0
		c0,0,0.1,0,0.1,0c0.2,0.1,0.4,0.2,0.5,0.2l0.1-0.1c0.1,0,0.2,0,0.2,0c0,0,0,0,0,0.1c0.1,0.1,0.2,0.1,0.2,0.1c0,0,0.1,0,0.1,0
		c0,0,0.1,0,0.1,0c0,0.1,0,0.2,0.1,0.2c0,0,0,0,0.1,0c0,0,0,0,0.1-0.1c0.2,0,0.3,0,0.3,0c0,0.1,0.1,0.1,0.2,0.2
		c0.1,0,0.2,0.1,0.2,0.1c0.2-0.1,0.4,0,0.5,0.1c0,0,0.1,0,0.1,0c0,0,0.1,0,0.1,0c0,0,0.1,0,0.1,0.1c0,0.1,0.1,0.1,0.1,0.1
		s0.1,0,0.1-0.1c0.1-0.1,0.1-0.1,0.2,0c0,0.1,0,0.2,0.1,0.2c0.1,0,0.2,0,0.2,0c0.1,0.1,0.1,0.1,0.1,0.1s0.1,0,0.1,0c0,0,0.1,0,0.1,0
		c0,0,0,0,0,0.1c0,0,0.1,0.1,0.2,0.1s0.2,0.1,0.3,0.2c0.1,0,0.1,0,0.2,0c0.1,0.1,0.1,0.1,0.2,0.1c0.1,0.2,0.2,0.3,0.2,0.3
		c0,0,0.1,0,0.1,0s0.1,0,0.1,0c0,0,0,0.1,0,0.1c0.1,0.1,0.2,0.2,0.3,0.3c0.2,0.2,0.3,0.3,0.4,0.3c0,0.1,0.1,0.1,0.1,0.2
		c0,0.1,0,0.1,0,0.2c0.1,0.1,0.2,0.3,0.3,0.5c0,0.1,0.1,0.1,0.1,0.2c0.1,0.1,0.1,0.2,0.1,0.2c0,0,0,0.1,0,0.1c0,0,0,0.1,0,0.1
		c0,0,0,0.1,0,0.1c0,0,0,0.1,0,0.1s0,0.1,0,0.1c0,0,0,0.1,0,0.1c0,0,0,0.1,0,0.1c0,0,0,0.1,0,0.1s0,0.1,0,0.3c0,0.2,0,0.3,0.1,0.3
		c0,0,0,0.1,0,0.1c0,0,0,0.1,0,0.1c0.1,0,0.1,0.1,0,0.4c-0.1,0.2-0.1,0.3-0.1,0.4c0,0,0,0.1,0,0.1c0,0.1,0,0.1-0.1,0.2
		c-0.1,0.1-0.1,0.1-0.1,0.1c0,0.1,0,0.2-0.1,0.3c0,0,0,0.1,0,0.1c-0.2,0.2-0.3,0.3-0.3,0.4c-0.1,0.2-0.3,0.3-0.4,0.4
		c0,0.2-0.1,0.3-0.2,0.4c-0.1,0.1-0.2,0.2-0.3,0.3c0,0.1,0,0.1-0.1,0.2c0,0,0,0.1,0,0.1c0,0-0.1,0-0.1,0c0,0-0.1,0-0.1,0
		c-0.1,0-0.1,0.1,0,0.2c0,0-0.2,0.1-0.4,0.3c0,0,0,0.1,0,0.1c-0.2,0.1-0.3,0.2-0.3,0.3c-0.1,0-0.1,0-0.2,0.2c-0.1,0-0.2,0.1-0.3,0.2
		c-0.1,0.1-0.2,0.1-0.3,0.2c0,0,0,0.1,0,0.1c0,0.1,0,0.1,0,0.1c0,0-0.1,0-0.1-0.1c0,0,0-0.1-0.1-0.1c0,0-0.1,0-0.2,0.1
		c-0.1,0.1-0.2,0.1-0.2,0.1c-0.1,0-0.1,0.1-0.1,0.1c0,0-0.1,0-0.2,0c-0.1,0-0.1,0-0.2,0c-0.1,0.1-0.2,0.1-0.3,0
		c-0.1,0.1-0.2,0.2-0.2,0.2c-0.1,0.1-0.2,0.2-0.2,0.2c-0.1,0-0.1,0-0.1,0c-0.1,0-0.1,0-0.1,0.1c0,0.1-0.1,0.1-0.1,0.1
		c-0.1,0-0.2,0-0.3,0.1c-0.1,0.1-0.2,0.1-0.2,0.1c-0.1,0-0.1,0-0.2,0c-0.1,0-0.1,0-0.1,0c-0.1,0-0.1,0-0.2,0.1
		c-0.1,0-0.1,0.1-0.2,0.1c0,0-0.1,0-0.1,0c-0.1,0-0.1,0-0.1,0c0,0,0,0.1-0.1,0.1c0,0-0.2,0-0.4,0c0,0-0.1,0-0.1-0.1
		c-0.2-0.1-0.3-0.1-0.4,0c-0.1,0-0.1,0-0.1,0c-0.1,0.1-0.1,0.1-0.1,0.1c-0.1-0.1-0.2-0.1-0.4-0.1c-0.1,0-0.2,0-0.2,0
		c-0.1-0.1-0.1-0.1-0.1-0.1c0,0,0,0-0.1,0.1c-0.1,0-0.1,0-0.1,0c0,0,0-0.1,0-0.1c0,0,0-0.1,0-0.1c-0.1,0-0.1,0-0.2,0
		c-0.1,0-0.2,0-0.2,0c0,0-0.1,0-0.2-0.1c0,0-0.1,0-0.2,0v-0.2c0,0-0.1,0-0.2,0c0,0,0,0,0,0c0,0,0-0.1,0-0.1c-0.1,0-0.1,0-0.2-0.1
		c-0.1-0.1-0.1-0.1-0.1-0.2c-0.1-0.1-0.2-0.1-0.3-0.2c0-0.1,0-0.1,0-0.1c-0.1-0.1-0.1-0.1-0.2-0.2c-0.1-0.1-0.2-0.1-0.2-0.1
		c0,0-0.1,0-0.1,0c0,0,0,0-0.1,0c0-0.1-0.1-0.3-0.1-0.3c-0.1-0.1-0.2-0.1-0.3-0.2c0,0,0-0.1,0-0.1c0,0,0-0.1,0-0.1
		c0,0-0.1,0-0.1-0.1c0-0.1-0.1-0.1-0.1-0.1c-0.1-0.1-0.2-0.1-0.2-0.2s0-0.1,0-0.1c0,0,0-0.1,0-0.1s0-0.1,0-0.1c0,0,0-0.1-0.1-0.1
		c0,0,0-0.1,0-0.1s0-0.1,0-0.1c0-0.1,0-0.1-0.1-0.2c0-0.1-0.1-0.1-0.1-0.1c0-0.1,0-0.1,0.1-0.2c0-0.1,0.1-0.1,0.1-0.2c0,0,0,0,0.1,0
		c0,0,0,0,0.1,0c0,0,0-0.2-0.1-0.4c0.1,0,0.2,0,0.2,0c0.1-0.1,0.1-0.1,0-0.3c0,0,0.1-0.1,0.1-0.2c0.1-0.1,0.1-0.2,0.1-0.2
		c0,0,0.1,0,0.1,0c0,0,0,0.1,0,0.1c0.1,0,0.1-0.1,0.1-0.1c0-0.1,0-0.1,0-0.1c0-0.1,0.1-0.1,0.2-0.1c0.1,0,0.1,0,0.1,0s0,0,0.1-0.1
		c0,0,0.1-0.1,0.1,0c0,0,0.1,0.1,0.1,0.1c0,0,0.1,0,0.1,0s0.1,0,0.1,0c0.1,0.1,0.2,0.2,0.2,0.3c0.1,0,0.1,0,0.1,0c0,0,0.1,0,0.1,0
		c0.1,0.1,0.2,0.1,0.2,0.1c0.1,0,0.1,0.1,0.1,0.2c0.1,0,0.1,0.1,0.1,0.1c0,0.1,0.1,0.1,0.1,0.2c0.1,0.1,0.1,0.2,0.1,0.2
		c0.1,0,0.2,0.1,0.3,0.3c0.1,0.2,0.2,0.3,0.3,0.3c0,0,0,0.1,0,0.1c0,0,0,0.1,0,0.1l0.3,0.2c0,0,0.1,0,0.1,0c0.1,0,0.1,0,0.1,0
		c0,0,0,0.1,0.1,0.1c0,0,0,0,0.1,0c0.1,0,0.1,0,0.3,0c0.1,0,0.2,0,0.3,0c0,0,0.1,0,0.1,0.1c0,0,0.1,0.1,0.1,0.1c0.1,0,0.2,0,0.3,0
		c0.1-0.1,0.1-0.1,0.1-0.1c0,0,0,0,0.1,0c0.1,0,0.1,0,0.1,0c0,0,0.1,0,0.1-0.1c0.1,0,0.1,0,0.2,0c0,0,0.1,0,0.1,0c0.1,0,0.1,0,0.1,0
		c0,0,0.1,0,0.1,0c0,0,0,0,0,0c0,0,0,0,0.1,0c0,0,0.1,0,0.1,0c0,0,0,0,0.1-0.1c0,0,0.1,0,0.1,0c0.1,0,0.1,0,0.1-0.1c0,0,0,0,0.1,0
		c0,0,0,0,0.1,0c0,0,0.1,0,0.2,0c0.1,0,0.1-0.1,0.1-0.2c0,0,0.1,0,0.1,0.1c0,0,0.1,0,0.2-0.1c0.1-0.1,0.2-0.1,0.3-0.1
		c0.1-0.1,0.2-0.3,0.5-0.5c0.3-0.2,0.5-0.3,0.5-0.5c0.1-0.1,0.2-0.1,0.2-0.3c0.1,0,0.1-0.1,0.2-0.2c0.1-0.1,0.1-0.2,0.1-0.2l0-0.1
		c0,0,0-0.1,0.1-0.1v-0.3c0.1-0.1,0.1-0.1,0.2-0.1c0-0.1,0-0.2,0-0.4s0-0.3,0-0.4c0,0,0-0.1-0.1-0.1c0,0,0,0,0-0.1
		c0,0,0-0.1-0.1-0.2c0-0.1-0.1-0.1-0.2-0.1c-0.1,0-0.1-0.1-0.2-0.1c-0.1,0.1-0.2,0.1-0.2,0c0-0.1,0-0.1,0-0.1l-0.2,0c0,0,0,0,0-0.1
		c0,0,0-0.1,0-0.1c0,0,0,0-0.1,0c-0.1,0-0.1,0-0.1,0c0,0,0,0-0.1-0.1c0,0-0.1-0.1-0.1-0.1c0,0-0.1,0-0.2,0c-0.1,0-0.2,0-0.3,0
		c-0.2-0.1-0.3-0.1-0.3,0c0,0,0-0.1,0-0.1s-0.1-0.1-0.4-0.1c-0.2-0.1-0.3-0.1-0.4-0.1c-0.2-0.2-0.4-0.3-0.8-0.3c0,0,0,0,0,0s0,0,0,0
		c0,0,0-0.1,0-0.1c-0.1,0-0.1,0-0.2-0.1c-0.1-0.1-0.1-0.1-0.2-0.1c0,0-0.1,0-0.1,0c0,0,0,0.1-0.1,0.1c0,0,0-0.1-0.1-0.1
		c-0.1,0-0.1,0-0.2,0c-0.1-0.1-0.2-0.2-0.3,0c-0.1-0.1-0.1-0.2-0.1-0.2c-0.2,0.1-0.3,0.1-0.3,0c-0.1-0.1-0.2-0.1-0.5,0
		c0-0.1-0.1-0.2-0.1-0.2c-0.2,0-0.3,0-0.4-0.1c0,0-0.1,0-0.1,0c0,0-0.1,0-0.1,0c0,0,0,0-0.1,0c0,0,0,0,0,0c0,0,0,0-0.1,0s0,0-0.1,0
		c0,0,0,0-0.1,0c-0.2-0.1-0.4-0.1-0.5,0c0,0,0-0.1,0-0.1s0-0.1-0.1-0.1c0,0-0.1,0-0.1,0s-0.1,0-0.1-0.1c0,0-0.1,0-0.1-0.1
		c0,0-0.1,0-0.2-0.1c-0.1,0-0.2-0.1-0.3-0.1c-0.1-0.1-0.1-0.1-0.1-0.1s-0.1,0-0.1,0c0,0-0.1,0-0.1,0c0-0.1,0-0.2,0-0.2
		c0,0-0.1,0-0.1,0c0,0-0.1,0-0.1,0s0,0,0,0c0,0,0,0,0-0.1c0,0,0,0,0,0c0,0,0,0,0-0.1c0,0-0.1,0-0.1,0s-0.1,0-0.1,0c0,0,0-0.1,0-0.1
		c0,0,0,0,0,0c-0.1-0.1-0.1-0.1-0.2-0.1c-0.1-0.1-0.1-0.1-0.2-0.2c0,0-0.1,0-0.1,0c0,0-0.1,0-0.1,0c0-0.1-0.1-0.1-0.2-0.2
		c0-0.1-0.1-0.2-0.2-0.3c-0.1-0.1-0.2-0.2-0.2-0.3c0,0-0.1,0-0.1,0c0,0-0.1-0.1-0.1-0.1c0-0.1,0-0.1,0-0.1c-0.2-0.2-0.3-0.4-0.3-0.5
		c-0.1,0-0.1,0-0.2-0.1c-0.1-0.1-0.1-0.1-0.1-0.1c0,0,0-0.1,0-0.3c-0.2-0.1-0.3-0.3-0.4-0.5c0,0,0,0,0-0.1s0-0.1,0-0.2
		c0,0,0-0.1-0.1-0.1c0,0-0.1,0-0.1-0.1s0-0.1,0-0.1c0,0,0-0.1,0-0.2c0-0.1,0-0.2,0-0.2c0,0,0-0.1,0-0.1c0-0.1,0-0.1,0-0.1
		c0,0,0-0.1,0.1-0.2c0-0.1,0-0.1,0-0.2s0-0.1,0-0.1c0.1-0.1,0.2-0.2,0.4-0.4c0,0,0.1,0,0.2,0c0,0,0,0,0-0.1c0,0,0-0.1,0-0.1
		c0,0,0.1,0,0.3-0.1c0.2-0.1,0.3-0.1,0.4-0.2c0.1,0,0.1,0,0.2,0c0,0,0.1-0.1,0.1-0.2c0,0,0,0,0.1,0c0,0,0.1,0,0.1-0.1
		c0,0,0.1-0.1,0.1-0.1c0.1,0,0.1,0,0.2,0c0.1,0,0.2-0.1,0.2-0.3c0.2,0,0.3,0,0.3-0.1c0.1,0,0.2,0,0.3,0c0.1,0,0.2,0,0.2,0
		c0.1,0,0.1,0,0.2-0.1c0.1-0.1,0.1-0.1,0.2-0.1c0.1,0,0.1,0,0.2,0c0,0,0.1,0,0.1,0c0.1,0,0.1-0.1,0.1-0.1c0,0,0.1,0,0.2,0
		c0,0,0.1,0,0.1-0.1c0,0,0.1-0.1,0.1-0.1c0.1,0,0.1,0,0.1,0c0,0,0.1-0.1,0.2-0.2c0.1,0,0.2,0,0.2-0.1l0,0.1c0.1-0.1,0.2-0.1,0.4-0.1
		s0.3,0,0.4,0c0,0,0.1,0,0.1,0c0,0,0.1-0.1,0.1-0.1c0.1,0,0.1,0,0.1,0s0.1,0,0.1-0.1c0,0,0.1-0.1,0.1-0.1c0.1,0,0.3,0,0.6,0
		s0.6,0,0.7,0c0.1,0,0.1,0,0.2,0c0.1,0,0.2,0,0.2,0c0,0,0.1,0,0.2,0c0.1,0,0.1,0,0.2,0c0,0,0.1,0,0.2,0.1c0.3,0,0.5,0,0.5,0.1
		c0.1,0,0.2,0,0.3,0.1C71.3,43.3,71.4,43.3,71.4,43.3z M70.8,43.1c0.1,0,0.2,0,0.3,0.1c0.1,0.1,0.2,0.1,0.3,0.1c0,0,0,0.1,0,0.2
		c0.2,0.1,0.4,0.3,0.6,0.4l0.2,0c0,0.1,0.1,0.2,0.2,0.3c0,0.1,0,0.2,0.1,0.2c0.1,0,0.1,0,0.1,0c0,0.3,0,0.4,0,0.5
		c0.1,0.1,0.1,0.2,0.1,0.3c0,0.1,0,0.2,0,0.3c0,0.1,0,0.2,0,0.4c-0.2,0.1-0.3,0.2-0.3,0.4c-0.1,0-0.1,0-0.2,0
		c-0.1,0.1-0.1,0.1-0.1,0.1s-0.1,0-0.1,0c0,0-0.1,0-0.1,0c0,0,0,0-0.1,0.1s-0.1,0-0.1,0c0,0,0,0-0.1,0c-0.1,0-0.1,0.1-0.2,0.3
		c0,0-0.1,0-0.2-0.1c-0.1,0-0.1,0-0.1,0c0,0-0.1,0-0.1,0c0-0.1,0-0.2-0.2-0.3c0,0-0.1,0-0.1,0c0,0-0.1,0-0.1,0l-0.1-0.1
		c-0.1,0-0.1,0-0.1,0c0,0,0,0-0.1,0v-0.1c-0.1-0.1-0.2-0.2-0.3-0.1c0,0-0.1,0-0.1,0.1c-0.1,0-0.2,0-0.3,0c0,0-0.1,0-0.1,0
		c0,0-0.1,0-0.1,0c0,0-0.1,0-0.1,0c0,0-0.1,0-0.1,0s-0.1,0-0.2-0.1c0,0-0.1,0-0.1,0.1c-0.1,0-0.1,0-0.1,0s-0.1,0-0.1,0
		c-0.1,0-0.1,0-0.1,0c0,0-0.1,0-0.1,0c0,0-0.1,0-0.1,0c0,0-0.1,0-0.1,0c0,0-0.1,0-0.1,0c0,0-0.1,0-0.1,0c-0.1,0-0.2,0-0.2,0
		c-0.3,0-0.5,0.1-0.5,0.1c0,0,0,0.1,0,0.1c0,0,0,0.1,0,0.1c0,0-0.1,0-0.1,0c0,0-0.1-0.1-0.1-0.1c0,0-0.1,0-0.3,0.1c0,0,0,0-0.1,0
		c0,0,0,0-0.1,0c-0.1,0.1-0.2,0.1-0.4,0.1c-0.2,0-0.4,0.1-0.5,0.1l0,0.1c-0.1,0-0.1,0-0.1,0s0,0-0.1,0c0,0,0,0.1-0.1,0.1
		c-0.1,0-0.1,0-0.1,0s-0.1,0-0.2,0.1c0,0-0.1,0-0.1,0c-0.1,0-0.1,0-0.2,0c0,0,0,0.1,0,0.1c0,0,0,0.1,0,0.1c0,0.1,0.1,0.2,0.1,0.2
		s0.1,0,0.2,0c0,0.1,0.1,0.1,0.3,0.2c0,0,0.1,0,0.1,0c0,0,0.1,0,0.1,0s0,0,0,0.1c0,0.1,0,0.1,0,0.1c0.1-0.1,0.2,0,0.3,0.1
		c0.1,0.1,0.2,0.1,0.3,0.1c0,0,0.1,0.1,0.2,0.1c0.1,0,0.2,0,0.2,0.1c0,0,0.1,0,0.1,0.1c0,0,0.1,0,0.1,0c0,0,0.1,0,0.1,0.1
		c0,0,0.1,0,0.1,0.1c0.3,0.1,0.5,0.1,0.5,0.2c0.1-0.1,0.2,0,0.3,0c0.1,0,0.1,0.1,0.1,0.1c0.1,0,0.1,0,0.2,0c0.1,0,0.2,0,0.2,0
		c0,0,0,0,0.1,0c0,0,0,0,0.1,0c0,0,0.1,0,0.1,0c0,0,0.1,0,0.1,0.1s0.1,0.1,0.1,0.1c0,0,0.1,0,0.1,0c0,0,0.1,0,0.1,0
		c0.2,0.1,0.4,0.2,0.5,0.2l0.1-0.1c0.1,0,0.2,0,0.2,0c0,0,0,0,0,0.1c0.1,0.1,0.2,0.1,0.2,0.1c0,0,0.1,0,0.1,0c0,0,0.1,0,0.1,0
		c0,0.1,0,0.2,0.1,0.2c0,0,0,0,0.1,0c0,0,0,0,0.1-0.1c0.2,0,0.3,0,0.3,0c0,0.1,0.1,0.1,0.2,0.2c0.1,0,0.2,0.1,0.2,0.1
		c0.2-0.1,0.4,0,0.5,0.1c0,0,0.1,0,0.1,0c0,0,0.1,0,0.1,0c0,0,0.1,0,0.1,0.1c0,0.1,0.1,0.1,0.1,0.1s0.1,0,0.1-0.1
		c0.1-0.1,0.1-0.1,0.2,0c0,0.1,0,0.2,0.1,0.2c0.1,0,0.2,0,0.2,0c0.1,0.1,0.1,0.1,0.1,0.1s0.1,0,0.1,0c0,0,0.1,0,0.1,0c0,0,0,0,0,0.1
		c0,0,0.1,0.1,0.2,0.1s0.2,0.1,0.3,0.2c0.1,0,0.1,0,0.2,0c0.1,0.1,0.1,0.1,0.2,0.1c0.1,0.2,0.2,0.3,0.2,0.3c0,0,0.1,0,0.1,0
		s0.1,0,0.1,0c0,0,0,0.1,0,0.1c0.1,0.1,0.2,0.2,0.3,0.3c0.2,0.2,0.3,0.3,0.4,0.3c0,0.1,0.1,0.1,0.1,0.2c0,0.1,0,0.1,0,0.2
		c0.1,0.1,0.2,0.3,0.3,0.5c0,0.1,0.1,0.1,0.1,0.2c0.1,0.1,0.1,0.2,0.1,0.2c0,0,0,0.1,0,0.1c0,0,0,0.1,0,0.1c0,0,0,0.1,0,0.1
		c0,0,0,0.1,0,0.1s0,0.1,0,0.1c0,0,0,0.1,0,0.1c0,0,0,0,0,0.1c0,0,0,0.1,0,0.1s0,0.1,0,0.3c0,0.2,0,0.3,0.1,0.3c0,0,0,0.1,0,0.1
		c0,0,0,0.1,0,0.1c0.1,0,0.1,0.1,0,0.4c-0.1,0.2-0.1,0.3-0.1,0.4c0,0,0,0.1,0,0.1c0,0.1,0,0.1-0.1,0.2c-0.1,0.1-0.1,0.1-0.1,0.1
		c0,0.1,0,0.2-0.1,0.3c0,0,0,0.1,0,0.1c-0.2,0.2-0.3,0.3-0.3,0.4c-0.1,0.2-0.3,0.3-0.4,0.4c0,0.2-0.1,0.3-0.2,0.4
		c-0.1,0.1-0.2,0.2-0.3,0.3c0,0.1,0,0.1-0.1,0.2c0,0,0,0.1,0,0.1c0,0-0.1,0-0.1,0c0,0-0.1,0-0.1-0.1c-0.1,0-0.1,0.1,0,0.2
		c0,0-0.2,0.1-0.4,0.3c0,0,0,0.1,0,0.1c-0.2,0.1-0.3,0.2-0.3,0.2c-0.1,0-0.1,0.1-0.2,0.2c-0.1,0-0.2,0.1-0.3,0.2
		c-0.1,0.1-0.2,0.1-0.3,0.2c0,0,0,0.1,0,0.1c0,0.1,0,0.1,0,0.1c0,0-0.1,0-0.1-0.1c0,0,0-0.1-0.1-0.1c0,0-0.1,0-0.2,0.1
		c-0.1,0.1-0.2,0.1-0.2,0.1c-0.1,0-0.1,0.1-0.1,0.1c0,0-0.1,0-0.2,0c-0.1,0-0.1,0-0.2,0c-0.1,0.1-0.2,0.1-0.3,0
		c-0.1,0.1-0.2,0.2-0.2,0.2c-0.1,0.1-0.2,0.2-0.2,0.2c-0.1,0-0.1,0-0.1,0c-0.1,0-0.1,0-0.1,0.1c0,0.1-0.1,0.1-0.1,0.1
		c-0.1,0-0.2,0-0.3,0.1c-0.1,0-0.2,0.1-0.2,0.1c-0.1,0-0.1,0-0.2,0c-0.1,0-0.1,0-0.1,0c-0.1,0-0.1,0-0.2,0.1c-0.1,0-0.1,0.1-0.2,0.1
		c0,0-0.1,0-0.1,0c-0.1,0-0.1,0-0.1,0c0,0,0,0.1-0.1,0.1c0,0-0.2,0-0.4,0c0,0-0.1,0-0.1-0.1c-0.2-0.1-0.3-0.1-0.4,0
		c-0.1,0-0.1,0-0.1,0c-0.1,0.1-0.1,0.1-0.1,0.1c-0.1-0.1-0.2-0.1-0.4-0.1c-0.1,0-0.2,0-0.2,0c-0.1-0.1-0.1-0.1-0.1-0.1
		c0,0,0,0-0.1,0.1c-0.1,0-0.1,0-0.1,0c0,0,0-0.1,0-0.1c0,0,0-0.1,0-0.1c-0.1,0-0.1,0-0.2,0c-0.1,0-0.2,0-0.2,0c0,0-0.1,0-0.2-0.1
		c0,0-0.1,0-0.2,0v-0.2c0,0-0.1,0-0.2,0c0,0,0,0,0,0c0,0,0-0.1,0-0.1c-0.1,0-0.1,0-0.2-0.1c-0.1-0.1-0.1-0.1-0.1-0.2
		c-0.1-0.1-0.2-0.1-0.3-0.2c0-0.1,0-0.1,0-0.1c-0.1-0.1-0.1-0.1-0.2-0.2c-0.1-0.1-0.2-0.1-0.2-0.1c0,0-0.1,0-0.1,0c0,0,0,0-0.1,0
		c0-0.1-0.1-0.3-0.1-0.3c-0.1-0.1-0.2-0.1-0.3-0.2c0,0,0-0.1,0-0.1c0,0,0-0.1,0-0.1c0,0-0.1,0-0.1-0.1c0-0.1-0.1-0.1-0.1-0.1
		c-0.1-0.1-0.2-0.1-0.2-0.2s0-0.1,0-0.1c0,0,0-0.1,0-0.1s0-0.1,0-0.1c0,0,0-0.1-0.1-0.1c0,0,0-0.1,0-0.1s0-0.1,0-0.1
		c0-0.1,0-0.1-0.1-0.2c0-0.1-0.1-0.1-0.1-0.1c0-0.1,0-0.1,0.1-0.2c0-0.1,0.1-0.1,0.1-0.2c0,0,0,0,0.1,0c0,0,0,0,0.1,0
		c0,0,0-0.2-0.1-0.4c0.1,0,0.2,0,0.2,0c0.1-0.1,0.1-0.1,0-0.3c0,0,0.1-0.1,0.1-0.2c0.1-0.1,0.1-0.2,0.1-0.2c0,0,0.1,0,0.1,0.1
		c0.1,0,0.1,0,0.1-0.1c0-0.1,0-0.1,0-0.1c0-0.1,0.1-0.1,0.2-0.1c0.1,0,0.1,0,0.1,0s0,0,0.1-0.1c0,0,0.1-0.1,0.1,0
		c0,0,0.1,0.1,0.1,0.1c0,0,0.1,0,0.1,0s0.1,0,0.1,0c0.1,0.1,0.2,0.2,0.2,0.3c0.1,0,0.1,0,0.1,0c0,0,0.1,0,0.1,0
		c0.1,0.1,0.2,0.1,0.2,0.1c0.1,0,0.1,0.1,0.1,0.2c0.1,0,0.1,0.1,0.1,0.1c0,0.1,0.1,0.1,0.1,0.2c0.1,0.1,0.1,0.2,0.1,0.2
		c0.1,0,0.2,0.1,0.3,0.3c0.1,0.2,0.2,0.3,0.3,0.3c0,0,0,0.1,0,0.1c0,0,0,0.1,0,0.1l0.3,0.2c0,0,0.1,0,0.1,0c0.1,0,0.1,0,0.1,0
		c0,0,0,0.1,0.1,0.1c0,0,0,0,0.1,0c0.1,0,0.1,0,0.3,0c0.1,0,0.2,0,0.3,0c0,0,0.1,0,0.1,0.1c0,0,0.1,0.1,0.1,0.1c0.1,0,0.2,0,0.3,0
		c0.1-0.1,0.1-0.1,0.1-0.1c0,0,0,0,0.1,0c0.1,0,0.1,0,0.1,0c0,0,0.1,0,0.1-0.1c0.1,0,0.1,0,0.2,0c0,0,0.1,0,0.1,0c0.1,0,0.1,0,0.1,0
		c0,0,0.1,0,0.1,0c0,0,0,0,0,0c0,0,0,0,0.1,0c0,0,0.1,0,0.1,0c0,0,0,0,0.1-0.1c0,0,0.1,0,0.1,0c0.1,0,0.1,0,0.1-0.1c0,0,0,0,0.1,0
		c0,0,0,0,0.1,0c0,0,0.1,0,0.2,0c0.1,0,0.1-0.1,0.1-0.2c0,0,0.1,0,0.1,0.1c0,0,0.1,0,0.2-0.1c0.1-0.1,0.2-0.1,0.3-0.1
		c0.1-0.1,0.2-0.3,0.5-0.5c0.3-0.2,0.5-0.3,0.5-0.5c0.1-0.1,0.2-0.1,0.2-0.3c0.1,0,0.1-0.1,0.2-0.2c0.1-0.1,0.1-0.2,0.1-0.2l0-0.1
		c0,0,0-0.1,0.1-0.1v-0.3c0.1-0.1,0.1-0.1,0.2-0.1c0-0.1,0-0.2,0-0.4s0-0.3,0-0.4c0,0,0-0.1-0.1-0.1c0,0,0,0,0-0.1
		c0,0,0-0.1-0.1-0.2c0-0.1-0.1-0.1-0.2-0.1c-0.1,0-0.1-0.1-0.2-0.1c-0.1,0.1-0.2,0.1-0.2,0c0-0.1,0-0.1,0-0.1l-0.2,0c0,0,0,0,0-0.1
		c0,0,0-0.1,0-0.1c0,0,0,0-0.1,0c-0.1,0-0.1,0-0.1,0c0,0,0,0-0.1-0.1c0,0-0.1-0.1-0.1-0.1c0,0-0.1,0-0.2,0c-0.1,0-0.2,0-0.3,0
		c-0.2-0.1-0.3-0.1-0.3,0c0,0,0-0.1,0-0.1s-0.1-0.1-0.4-0.1c-0.2-0.1-0.3-0.1-0.4-0.1c-0.2-0.2-0.4-0.3-0.8-0.3c0,0,0,0,0,0s0,0,0,0
		c0,0,0-0.1,0-0.1c-0.1,0-0.1,0-0.2-0.1c-0.1-0.1-0.1-0.1-0.2-0.1c0,0-0.1,0.1-0.1,0.1c0,0,0,0.1-0.1,0.1c0,0,0-0.1-0.1-0.1
		c-0.1,0-0.1-0.1-0.2-0.1c-0.1-0.1-0.2-0.1-0.3,0c-0.1-0.1-0.1-0.2-0.1-0.2c-0.2,0.1-0.3,0.1-0.3,0c-0.1-0.1-0.2-0.1-0.5,0
		c0-0.1-0.1-0.2-0.1-0.2c-0.2,0-0.3,0-0.4-0.1c0,0-0.1,0-0.2,0c0,0,0,0-0.1,0c0,0,0,0,0,0c0,0,0,0-0.1,0s0,0-0.1,0c0,0,0,0-0.1,0
		c-0.2-0.1-0.4-0.1-0.5,0c0,0,0-0.1,0-0.1s0-0.1-0.1-0.1c0,0-0.1,0-0.1,0s-0.1,0-0.1-0.1c0,0-0.1,0-0.1-0.1c0,0-0.1,0-0.2-0.1
		c-0.1,0-0.2-0.1-0.3-0.1c-0.1-0.1-0.1-0.1-0.1-0.1s-0.1,0-0.1,0c0,0-0.1,0-0.1,0c0-0.1,0-0.2,0-0.2c0,0-0.1,0-0.1,0
		c0,0-0.1,0-0.1,0s0,0,0,0c0,0,0,0,0-0.1c0,0,0,0,0,0c0,0,0,0,0-0.1c0,0-0.1,0-0.1,0s-0.1,0-0.1,0c0,0,0-0.1,0-0.1c0,0,0,0,0,0
		c-0.1-0.1-0.1-0.1-0.2-0.1c-0.1-0.1-0.1-0.1-0.2-0.2c0,0-0.1,0-0.1,0c0,0-0.1,0-0.1,0c0-0.1-0.1-0.1-0.2-0.2c0-0.1-0.1-0.2-0.2-0.3
		c-0.1-0.1-0.2-0.2-0.2-0.3c0,0-0.1,0-0.1,0c0,0-0.1-0.1-0.1-0.1c0-0.1,0-0.1,0-0.1c-0.2-0.2-0.3-0.4-0.3-0.5c-0.1,0-0.1,0-0.2-0.1
		c-0.1-0.1-0.1-0.1-0.1-0.1c0,0,0-0.1,0-0.3c-0.2-0.1-0.3-0.3-0.4-0.5c0,0,0,0,0-0.1s0-0.1,0-0.2c0,0,0-0.1-0.1-0.1
		c0,0-0.1,0-0.1-0.1s0-0.1,0-0.1c0,0,0-0.1,0-0.2c0-0.1,0-0.2,0-0.2c0,0,0-0.1,0-0.1c0-0.1,0-0.1,0-0.1c0,0,0-0.1,0.1-0.2
		c0-0.1,0-0.1,0-0.2s0-0.1,0-0.1c0.1-0.1,0.2-0.2,0.4-0.4c0,0,0.1,0,0.2,0c0,0,0,0,0-0.1c0,0,0-0.1,0-0.1c0,0,0.1,0,0.3-0.1
		c0.2-0.1,0.3-0.1,0.4-0.2c0.1,0,0.1,0,0.2,0c0,0,0.1-0.1,0.1-0.2c0,0,0,0,0.1,0c0,0,0.1,0,0.1-0.1c0,0,0.1-0.1,0.1-0.1
		c0.1,0,0.1,0,0.2,0c0.1,0,0.2-0.1,0.2-0.3c0.2,0,0.3,0,0.3-0.1c0.1,0,0.2,0,0.3,0c0.1,0,0.2,0,0.2,0c0.1,0,0.1,0,0.2-0.1
		c0.1-0.1,0.1-0.1,0.2-0.1c0.1,0,0.1,0,0.2,0c0,0,0.1,0,0.1,0c0.1,0,0.1-0.1,0.1-0.1c0,0,0.1,0,0.2,0c0,0,0.1,0,0.1-0.1
		c0,0,0.1-0.1,0.1-0.1c0.1,0,0.1,0,0.1,0c0,0,0.1-0.1,0.2-0.2c0.1,0,0.2,0,0.2-0.1l0,0.1c0.1-0.1,0.2-0.1,0.4-0.1s0.3,0,0.4,0
		c0,0,0.1,0,0.1,0c0,0,0.1-0.1,0.1-0.1c0.1,0,0.1,0,0.1,0s0.1,0,0.1-0.1c0,0,0.1-0.1,0.1-0.1c0.1,0,0.3,0,0.6,0s0.6,0,0.7,0
		c0.1,0,0.1,0,0.2,0c0.1,0,0.2,0,0.2,0c0,0,0.1,0,0.2,0c0.1,0,0.1,0,0.2,0c0,0,0.1,0.1,0.2,0.1C70.6,43,70.7,43,70.8,43.1z"/>
	<path fill="#D93427" d="M85.8,39.5c0.6,0.1,0.8,0,0.8-0.2c0,0,0.2,0,0.4,0c0,0,0,0,0,0.1c0,0,0,0,0,0.1c0,0,0.1,0,0.2,0
		s0.1,0,0.1,0.1c0.1,0,0.3,0,0.4,0.1c0.5,0,0.8,0.1,0.9,0.3h0.1c0.1,0.1,0.2,0.1,0.3,0.2c0.2,0.1,0.3,0.2,0.3,0.2v0.1
		c0.2,0.1,0.3,0.4,0.4,0.8c0,0,0.1,0.1,0.1,0.1c0.1,0.2,0,0.3,0,0.4c0,0.1,0,0.2,0,0.3c-0.1,0.1-0.1,0.2-0.1,0.2
		c-0.1,0.1-0.1,0.1-0.1,0.1c0,0.1,0,0.2-0.1,0.3c0,0.1,0,0.1,0,0.1c0,0-0.1,0.1-0.1,0.1c0,0-0.1,0-0.1,0c0,0,0,0-0.1,0
		c0,0,0,0.1-0.1,0.1c-0.1,0-0.1,0-0.2,0c0,0,0,0.1-0.1,0.1c0,0-0.1,0.1-0.1,0.1c-0.1,0-0.2,0-0.3,0c0,0.1,0,0.1,0,0.1s-0.1,0-0.2,0
		c-0.1,0-0.1,0-0.2,0c0,0-0.1,0-0.1,0s-0.1,0-0.1,0c0,0,0-0.1,0.1-0.1c0,0-0.1-0.1-0.1-0.1c0-0.1-0.1-0.1-0.1-0.1
		c0,0-0.1,0.1-0.1,0.1c0,0-0.1,0-0.1,0c0-0.1,0-0.1-0.1-0.2c-0.1-0.1-0.1-0.1-0.2-0.1c0,0,0,0.1,0,0.1c0,0,0,0.1,0,0.1
		c0,0-0.1-0.1-0.1-0.1c0,0-0.1-0.1-0.1-0.1c0,0,0,0-0.1-0.1c0-0.2-0.2-0.3-0.5-0.3c-0.1,0-0.1,0-0.2,0.1c-0.1,0-0.1,0-0.2,0
		c-0.1,0-0.1,0-0.2,0c0,0-0.1,0.1-0.1,0.1c-0.1,0-0.2,0-0.4,0c-0.3,0.1-0.5,0.1-0.5,0.2c-0.2-0.1-0.3-0.1-0.3,0c-0.1,0-0.2,0-0.3,0
		c-0.1,0-0.2,0-0.2,0c0,0,0,0.1,0,0.1c-0.1,0-0.2,0-0.3,0c-0.1-0.1-0.2-0.1-0.2,0c0,0-0.1,0-0.1,0.1c0,0-0.1,0.1-0.1,0.1
		c-0.1,0-0.1,0-0.2,0c-0.1,0-0.1,0-0.2,0s-0.1,0-0.1,0.1c0,0-0.1,0-0.1,0c-0.1,0-0.1,0-0.1,0l0,0.1c-0.3,0-0.5,0-0.5,0
		c0,0,0,0.1,0,0.1c0,0,0,0,0,0.1c-0.2-0.1-0.5-0.1-0.7,0.2c0,0-0.1,0-0.1-0.1c-0.1,0-0.1,0.1,0,0.2c0,0.1,0,0.1,0.1,0.1
		c0,0,0,0.1,0,0.1c0,0,0,0.1,0,0.1c0,0.1,0,0.1,0,0.1c0,0.1,0,0.2,0.1,0.2c0,0.1,0,0.2,0.1,0.4c0.1,0.2,0.1,0.3,0,0.3
		c0,0.1,0,0.2,0.1,0.3c0,0,0,0,0,0.1c0,0,0,0,0,0.1c0,0.1,0,0.1,0,0.2c0,0.1,0.1,0.1,0.1,0.1c0,0.6,0,1,0,1c-0.1,0.1-0.1,0.3,0,0.5
		c0,0,0,0.1,0,0.3c0,0,0,0.1-0.1,0.1c0,0.1,0,0.1,0,0.2C82,48,82,48,82,48c0,0,0,0.1,0,0.1c0,0,0,0.1,0,0.1c0,0.1,0,0.3,0,0.5
		c0,0.3,0,0.4,0,0.5c0,0,0,0.1,0,0.2c0,0.1,0.1,0.2,0.2,0.1s0.2-0.1,0.2-0.1c0.3,0,0.5,0,0.5-0.1c0.3,0,0.5,0,0.5,0
		c0.2,0,0.3,0,0.4,0c0,0,0.1,0,0.1-0.1c0.1,0,0.1-0.1,0.1-0.1s0.1,0,0.2,0c0.2,0,0.3,0,0.3-0.1c0.2,0.1,0.4,0,0.5,0c0,0,0.1,0,0.1,0
		c0,0,0.1,0,0.1,0c0,0,0.1,0,0.1,0c0.1,0,0.1,0,0.1,0c0.1,0,0.3,0,0.5,0c0,0,0-0.1,0-0.1c0.1,0.1,0.3,0.1,0.4,0
		c0.2,0,0.3-0.1,0.3-0.1c0.1,0,0.1,0,0.2,0c0.1,0,0.1-0.1,0.1-0.1s0.1,0,0.1,0c0,0,0,0,0.1,0.1c0,0,0.1,0,0.2-0.1
		c0.1-0.1,0.2-0.1,0.3-0.1c0.1-0.1,0.1-0.1,0.1-0.1s0.1,0,0.1,0.1c0.2,0,0.4,0,0.4-0.1c0.1,0,0.1,0,0.2,0c0.1,0,0.1,0,0.2,0
		s0.1,0,0.2,0.1c0.1,0,0.2,0.1,0.2,0.1c0.1,0,0.2,0.1,0.2,0.2c0.1,0,0.1,0,0.2,0c0,0,0,0,0.1,0s0,0.1,0.1,0.1c0.2,0,0.3,0,0.4,0
		c0,0,0,0.1,0.1,0.2c0,0,0,0.1,0,0.1c0,0.1,0.1,0.2,0.2,0.3c0,0.2,0.1,0.3,0.2,0.4c0,0,0,0.1-0.1,0.1c0,0.1,0,0.2-0.1,0.3
		c-0.1,0.1-0.1,0.2-0.1,0.3H90c0,0,0,0,0,0.1s0,0,0,0.1c0,0-0.1,0-0.1,0h0l-0.1,0c0,0-0.1,0-0.1-0.1c0,0-0.1,0-0.1,0
		c0,0-0.1,0-0.1,0.1c0,0-0.1,0-0.1,0c0,0.1-0.1,0.1-0.3,0.2c-0.2,0.1-0.3,0.1-0.3,0.3c-0.2,0-0.4,0-0.6,0.2c0,0-0.1,0-0.1,0
		c0,0-0.1,0-0.1,0.1c0,0,0,0,0,0.1c-0.1,0-0.2,0-0.2-0.1c0,0-0.1,0-0.1,0c0,0,0,0.1,0,0.1c-0.1,0-0.1,0-0.3,0c-0.1,0-0.2,0-0.3,0
		c0,0-0.1,0-0.1,0.1c0,0-0.1,0.1-0.1,0.1c-0.1,0-0.2,0-0.2,0c-0.1,0-0.1,0.1-0.1,0.2c-0.1-0.1-0.1-0.1-0.3-0.1c-0.1,0-0.2,0-0.3,0.1
		v0.1c-0.1,0-0.1,0-0.2,0c-0.1-0.1-0.1,0-0.2,0c0,0-0.1,0-0.2,0l0,0.2c-0.1,0-0.2,0-0.3,0c-0.1,0-0.1,0-0.2,0c-0.1,0-0.1,0.1,0,0.2
		L84.8,52c0,0-0.2,0-0.4,0c0,0-0.1,0.1-0.1,0.1c0,0-0.1,0.1-0.1,0.1c-0.2,0-0.3,0-0.4,0l-0.1,0.2c-0.3,0-0.5,0-0.5,0
		c-0.1,0-0.1,0.1-0.3,0.1c0,0,0,0,0,0.1c-0.2,0.1-0.4,0.1-0.5,0c0,0-0.1,0-0.1,0.1c0,0-0.1,0.1-0.1,0.1s-0.1,0-0.1-0.1
		c0,0-0.1-0.1-0.1-0.1c-0.1,0-0.1,0-0.2,0.1c-0.1,0-0.1,0-0.2,0c-0.1,0-0.1,0.2,0,0.5c0,0,0,0.1,0,0.1c0,0,0,0.1,0,0.1
		c0,0.1,0.1,0.1,0.2,0.1c0.1,0.1,0,0.2-0.1,0.2c0,0,0,0.1,0,0.2c0,0.1,0,0.2,0.1,0.2c0,0,0,0,0,0.1s0,0,0,0.1c0,0,0,0.1-0.1,0.3
		c0.1,0.1,0.1,0.2,0.1,0.5c0,0.3,0,0.4,0.1,0.6c-0.1,0.2-0.1,0.4,0,0.5c0,0.1,0,0.2,0,0.3c0,0,0,0.1,0,0.1c0,0,0,0.1,0,0.1
		c0.1,0.2,0.1,0.3,0.1,0.4c0.1,0.1,0.1,0.2,0.2,0.3c0.1,0.1,0.1,0.2,0.1,0.3c0.1,0,0.2,0,0.3,0.1c0.2,0,0.3,0,0.3,0
		c0,0,0.1,0,0.1-0.1c0.1,0,0.1,0,0.1,0.1c0.4,0,0.7-0.1,0.7-0.1c0.1,0,0.2,0,0.3,0c0.2,0,0.3,0,0.4,0c0.1-0.1,0.3-0.1,0.6-0.2
		c0,0,0,0,0-0.1s0-0.1,0-0.1c0.1,0,0.1,0,0.2,0c0.1,0,0.2,0,0.2,0c0,0,0.1-0.1,0.2-0.1c0.1,0,0.2-0.1,0.2-0.1c0.2,0,0.3,0,0.5-0.1
		c0.2-0.1,0.3-0.2,0.5-0.2c0-0.1,0.1-0.1,0.1-0.1c0.2,0.1,0.3,0,0.3,0c0.2,0,0.4-0.1,0.5-0.3c0.1,0,0.2,0,0.3,0
		c0.1-0.1,0.2-0.1,0.3-0.1c0.5,0,0.7,0,0.8,0.1c0,0,0.1,0,0.1,0c0,0.1,0.1,0.3,0.2,0.4c0,0,0.1,0,0.1,0c0.1,0,0.1,0.1,0.2,0.2
		c0,0.1,0.1,0.3,0.2,0.3c0,0.1,0,0.1,0.1,0.2c0.1,0.1,0.1,0.2,0.1,0.2c0,0,0,0,0,0.1c0,0.1,0,0.1,0,0.2c-0.1,0.2-0.2,0.3-0.2,0.4
		c-0.1,0-0.2,0.1-0.3,0.2c-0.2,0-0.3,0.1-0.3,0.4c0,0-0.1,0-0.1,0s-0.1,0-0.1,0c0,0-0.1,0.1-0.1,0.2c0,0-0.1,0-0.1,0s-0.1,0-0.1,0
		s-0.1,0-0.1,0.1c-0.2,0-0.3,0.1-0.3,0.2h-0.2c-0.1,0.2-0.3,0.2-0.5,0.1c0,0-0.1,0.1-0.1,0.2c0,0-0.1,0-0.1,0
		c-0.1-0.1-0.2-0.1-0.3,0c-0.1,0-0.1,0.1-0.1,0.2l-0.2,0c0,0,0,0,0,0.1s0,0.1,0,0.1c0,0-0.1-0.1-0.2-0.1c-0.1,0-0.2,0-0.3,0
		c0,0-0.1,0.1-0.1,0.1c0,0,0,0.1-0.1,0.1c0,0-0.1,0-0.1,0c0,0-0.1,0-0.1,0c0,0-0.1,0.1-0.1,0.2c-0.1-0.1-0.3,0-0.4,0c0,0,0,0,0,0.1
		c-0.1,0-0.2,0-0.3,0c-0.2,0-0.3,0.1-0.3,0.1c0,0-0.1,0-0.1,0c0,0,0,0-0.1,0c0,0-0.1,0-0.2,0c-0.1,0-0.2,0-0.2,0.1
		c0,0.1,0,0.1,0,0.1c0,0-0.1,0-0.3,0c-0.1,0-0.1,0-0.1,0c0,0,0-0.1-0.1-0.1c-0.3,0.1-0.4,0.1-0.5,0.1c0,0,0,0.1,0,0.1
		c-0.1,0-0.1,0-0.2,0c0,0-0.1-0.1-0.1-0.1c0,0-0.1,0.1-0.1,0.1c0,0-0.1,0-0.1,0s-0.1,0-0.2,0c-0.1,0-0.2,0-0.2,0c0-0.1,0-0.1,0-0.1
		l-0.1,0c-0.1,0-0.1,0.1-0.1,0.2c-0.2,0-0.4,0-0.6,0c0-0.1,0-0.1-0.1-0.2c-0.1,0-0.1,0-0.2,0c0,0,0,0.1,0,0.1c0,0.1,0,0.1,0,0.1
		s0,0,0-0.1c0,0,0-0.1,0-0.1h-0.2v-0.1c-0.1-0.1-0.2-0.1-0.3-0.1C81.4,60,81.3,60,81.3,60c0,0-0.1,0-0.1-0.1
		c-0.1-0.1-0.1-0.1-0.1-0.2c0,0-0.1,0-0.1,0c0,0-0.1,0-0.1,0c0,0,0-0.1,0-0.1c0,0,0-0.1-0.1-0.1s-0.1,0-0.1,0c0,0-0.1,0-0.1,0
		c0-0.1,0-0.2-0.2-0.3v-0.1c-0.1-0.1-0.2-0.2-0.3-0.3H80c-0.1-0.1-0.2-0.1-0.2-0.2c-0.1-0.1-0.1-0.2-0.2-0.3
		c-0.1-0.1-0.1-0.2-0.2-0.3c-0.1-0.4-0.2-0.6-0.2-0.6c0-0.1,0-0.2-0.1-0.3c0-0.1,0-0.1,0-0.3c0-0.1,0-0.2,0-0.2c0-0.1,0-0.1-0.1-0.2
		c0,0,0-0.1,0-0.1c0,0,0-0.1,0-0.1c0,0,0-0.1,0-0.3c0-0.2,0-0.3-0.1-0.3c0-0.1,0-0.2,0-0.4c0-0.2,0-0.3,0-0.3c0-0.4,0-1,0-1.8
		c0-0.8,0-1.4,0-1.8c0.1,0,0.2-0.1,0.1-0.1c0-0.1-0.1-0.2-0.1-0.2c0-0.1,0-0.2,0.1-0.3c0-0.1,0.1-0.2,0.1-0.2
		c-0.1-0.1-0.1-0.1-0.1-0.2c0-0.1,0-0.1,0.1-0.1c0-0.1,0-0.7,0-1.6c0.1,0,0.1-0.1,0.1-0.1c0-0.1,0-0.1-0.1-0.2c0.1,0,0.1-0.1,0-0.3
		c0-0.1,0-0.3,0-0.3c0,0,0-0.1,0-0.1c0.1-0.1,0-0.2,0-0.3c0-0.1,0-0.2,0-0.5c0-0.3,0-0.5-0.1-0.5c0.1,0,0.1-0.2,0.1-0.4
		c0-0.2,0-0.4,0-0.4L78.7,46c0-0.2,0-0.3,0.1-0.3c0,0-0.1-0.1-0.1-0.1s0-0.1,0-0.1c0-0.3,0-0.5,0-0.5c0,0-0.1,0-0.1,0c0,0,0,0-0.1,0
		c0-0.3,0-0.5,0-0.7c-0.1,0-0.1,0-0.1,0c0,0,0-0.1,0-0.2c0,0,0-0.1,0-0.1c0,0,0-0.1,0-0.1s0-0.1,0-0.1s0-0.1,0-0.1
		c0,0-0.1-0.1-0.1-0.1c-0.1-0.1-0.1-0.2,0-0.3c0,0-0.1-0.1-0.1-0.1c0-0.1,0-0.1,0-0.2c-0.1,0-0.1-0.1-0.3-0.3c0-0.1,0-0.2,0-0.3
		c0-0.1,0-0.1,0-0.2c-0.1-0.1,0-0.2,0-0.3c0.1-0.1,0.1-0.2,0.1-0.3c0,0,0.1-0.1,0.2-0.2c0.1-0.1,0.2-0.2,0.2-0.2c0,0,0,0,0,0
		c0,0,0-0.1,0-0.1l0.1,0.1c0,0,0.1,0,0.2,0c0.1,0,0.2,0,0.2,0c0.1,0,0.1,0,0.2-0.1c0.1-0.1,0.1-0.1,0.1-0.1c0.1,0,0.1,0,0.3,0
		c0.1,0,0.2,0,0.3,0c0,0,0.1,0,0.1,0c0,0,0.1,0,0.1,0c0.2,0,0.3,0,0.4-0.1c0.4-0.1,0.6-0.1,0.7-0.2h0.2c0,0,0,0,0.1,0c0,0,0,0,0.1,0
		c0,0,0.1,0,0.2,0c0.1,0,0.1,0,0.2-0.1c0.1-0.1,0.2-0.1,0.2-0.1c0,0,0-0.1,0-0.2c0.1,0,0.1,0,0.1,0c0,0,0,0,0,0.1c0,0,0,0.1,0,0.1
		c0.2-0.1,0.4-0.1,0.5-0.2c0.1,0,0.1,0,0.2,0.1l0.3-0.1c0,0,0.1-0.1,0.3-0.2c0,0.1,0.1,0.1,0.1,0.2c0,0,0.1-0.1,0.2-0.1
		c0.1,0,0.1,0,0.2,0s0.1,0,0.1,0c0,0,0.1,0,0.1-0.1c0,0,0.1,0,0.2,0c0.1,0,0.2,0,0.2,0c0.2,0,0.3-0.1,0.4-0.1c0,0,0.1,0,0.1,0
		c0.1,0,0.1,0,0.1-0.1c0.1,0,0.1,0,0.2,0c0,0,0.1,0,0.2-0.1c0.1,0,0.1,0,0.2,0C85.7,39.6,85.7,39.6,85.8,39.5
		C85.7,39.6,85.8,39.6,85.8,39.5C85.7,39.5,85.7,39.5,85.8,39.5z M86.6,39.4c0,0,0.1,0,0.2,0c0.1,0,0.2,0,0.2,0c0,0,0,0,0,0
		c0,0,0,0,0,0.1c0,0,0.1,0,0.2,0s0.1,0,0.1,0.1c0.1,0,0.3,0,0.4,0.1c0.5,0,0.8,0.1,0.9,0.3h0.1c0.1,0.1,0.2,0.1,0.3,0.2
		c0.2,0.1,0.3,0.2,0.3,0.2v0.1c0.2,0.1,0.3,0.4,0.4,0.8c0,0,0.1,0,0.1,0c0,0,0,0,0,0c0.1,0.2,0,0.3,0,0.4c0,0.1,0,0.2,0,0.3
		c-0.1,0.1-0.1,0.2-0.1,0.2c-0.1,0.1-0.1,0.1-0.1,0.1c0,0.1,0,0.2-0.1,0.3c0,0.1,0,0.1,0,0.1c0,0-0.1,0.1-0.1,0.1c0,0-0.1,0-0.1,0
		c0,0,0,0-0.1,0c0,0,0,0.1-0.1,0.1c-0.1,0-0.1,0-0.2,0c0,0,0,0.1-0.1,0.1c0,0-0.1,0.1-0.1,0.1c-0.1,0-0.2,0-0.3,0c0,0.1,0,0.1,0,0.1
		s-0.1,0-0.2,0c-0.1,0-0.1,0-0.2,0c0,0-0.1,0-0.1,0s-0.1,0-0.1,0c0,0,0-0.1,0.1-0.1c0,0-0.1-0.1-0.1-0.1c0-0.1-0.1-0.1-0.1-0.1
		c0,0-0.1,0.1-0.1,0.1c0,0-0.1,0-0.1,0c0-0.1,0-0.1-0.1-0.2c-0.1-0.1-0.1-0.1-0.2-0.1c0,0,0,0.1,0,0.1c0,0,0,0.1,0,0.1
		c0,0-0.1-0.1-0.1-0.1c0,0-0.1-0.1-0.1-0.1c0,0,0,0-0.1-0.1c0-0.2-0.2-0.3-0.5-0.3c-0.1,0-0.1,0-0.2,0.1c-0.1,0-0.1,0-0.2,0
		c-0.1,0-0.1,0-0.2,0c0,0-0.1,0.1-0.1,0.1c-0.1,0-0.2,0-0.4,0c-0.3,0.1-0.5,0.1-0.5,0.2c-0.2-0.1-0.3-0.1-0.3,0c-0.1,0-0.2,0-0.3,0
		c-0.1,0-0.2,0-0.2,0c0,0,0,0.1,0,0.1c-0.1,0-0.2,0-0.3,0c-0.1-0.1-0.2-0.1-0.2,0c0,0-0.1,0-0.1,0.1c0,0-0.1,0.1-0.1,0.1
		c-0.1,0-0.1,0-0.2,0c-0.1,0-0.1,0-0.2,0s-0.1,0-0.1,0.1c0,0-0.1,0-0.1,0c-0.1,0-0.1,0-0.1,0l0,0.1c-0.3,0-0.5,0-0.5,0
		c0,0,0,0.1,0,0.1c0,0,0,0,0,0.1c-0.2-0.1-0.5-0.1-0.7,0.2c0,0-0.1,0-0.1-0.1c-0.1,0-0.1,0.1,0,0.2c0,0.1,0,0.1,0.1,0.1
		c0,0,0,0.1,0,0.1c0,0,0,0.1,0,0.1c0,0.1,0,0.1,0,0.1c0,0.1,0,0.2,0.1,0.2c0,0.1,0,0.2,0.1,0.4c0.1,0.2,0.1,0.3,0,0.3
		c0,0.1,0,0.2,0.1,0.3c0,0,0,0,0,0.1c0,0,0,0,0,0.1c0,0.1,0,0.1,0,0.2c0,0.1,0.1,0.1,0.1,0.1c0,0.6,0,1,0,1c-0.1,0.1-0.1,0.3,0,0.5
		c0,0,0,0.1,0,0.3c0,0,0,0.1-0.1,0.1c0,0.1,0,0.1,0,0.2C82,48,82,48,82,48c0,0,0,0.1,0,0.1c0,0,0,0.1,0,0.1c0,0.1,0,0.3,0,0.5
		c0,0.3,0,0.4,0,0.5c0,0,0,0.1,0,0.2c0,0.1,0.1,0.2,0.2,0.1s0.2-0.1,0.2-0.1c0.3,0,0.5,0,0.5-0.1c0.3,0,0.5,0,0.5,0
		c0.2,0,0.3,0,0.4,0c0,0,0.1,0,0.1-0.1c0.1,0,0.1-0.1,0.1-0.1s0.1,0,0.2,0c0.2,0,0.3,0,0.3-0.1c0.2,0.1,0.4,0,0.5,0c0,0,0.1,0,0.1,0
		c0,0,0.1,0,0.1,0c0,0,0.1,0,0.1,0c0.1,0,0.1,0,0.1,0c0.1,0,0.3,0,0.5,0c0,0,0-0.1,0-0.1c0.1,0.1,0.3,0.1,0.4,0
		c0.2,0,0.3-0.1,0.3-0.1c0.1,0,0.1,0,0.2,0c0.1,0,0.1-0.1,0.1-0.1s0.1,0,0.1,0c0,0,0,0,0.1,0.1c0,0,0.1,0,0.2-0.1
		c0.1-0.1,0.2-0.1,0.3-0.1c0.1-0.1,0.1-0.1,0.1-0.1s0.1,0,0.1,0.1c0.2,0,0.4,0,0.4-0.1c0.1,0,0.1,0,0.2,0c0.1,0,0.1,0,0.2,0
		s0.1,0,0.2,0.1c0.1,0,0.2,0.1,0.2,0.1c0.1,0,0.2,0.1,0.2,0.2c0.1,0,0.1,0,0.2,0c0,0,0,0,0.1,0s0,0.1,0.1,0.1c0.2,0,0.3,0,0.4,0
		c0,0,0,0.1,0.1,0.2c0,0,0,0.1,0,0.1c0,0.1,0.1,0.2,0.2,0.3c0,0.2,0.1,0.3,0.2,0.4c0,0,0,0.1-0.1,0.1c0,0.1,0,0.2-0.1,0.3
		c-0.1,0.1-0.1,0.2-0.1,0.3H90c0,0,0,0,0,0.1s0,0,0,0.1c0,0-0.1,0-0.1,0h0l-0.1,0c0,0-0.1,0-0.1-0.1c0,0-0.1,0-0.1,0
		c0,0-0.1,0-0.1,0.1c0,0-0.1,0-0.1,0c0,0.1-0.1,0.1-0.3,0.2c-0.2,0.1-0.3,0.1-0.3,0.3c-0.2,0-0.4,0-0.6,0.2c0,0-0.1,0-0.1,0
		c0,0-0.1,0-0.1,0.1c0,0,0,0,0,0.1c-0.1,0-0.2,0-0.2-0.1c0,0-0.1,0-0.1,0c0,0,0,0.1,0,0.1c-0.1,0-0.1,0-0.3,0c-0.1,0-0.2,0-0.3,0
		c0,0-0.1,0-0.1,0.1c0,0-0.1,0.1-0.1,0.1c-0.1,0-0.2,0-0.2,0c-0.1,0-0.1,0.1-0.1,0.2c-0.1-0.1-0.1-0.1-0.3-0.1c-0.1,0-0.2,0-0.3,0.1
		v0.1c-0.1,0-0.1,0-0.2,0c-0.1-0.1-0.1,0-0.2,0c0,0-0.1,0-0.2,0l0,0.2c-0.1,0-0.2,0-0.3,0c-0.1,0-0.1,0-0.2,0c-0.1,0-0.1,0.1,0,0.2
		L84.8,52c0,0-0.2,0-0.4,0c0,0-0.1,0.1-0.1,0.1c0,0-0.1,0.1-0.1,0.1c-0.2,0-0.3,0-0.4,0l-0.1,0.2c-0.3,0-0.5,0-0.5,0
		c-0.1,0-0.1,0.1-0.3,0.1c0,0,0,0,0,0.1c-0.2,0.1-0.4,0.1-0.5,0c0,0-0.1,0-0.1,0.1c0,0-0.1,0.1-0.1,0.1s-0.1,0-0.1-0.1
		c0,0-0.1-0.1-0.1-0.1c-0.1,0-0.1,0-0.2,0.1c-0.1,0-0.1,0-0.2,0c-0.1,0-0.1,0.2,0,0.5c0,0,0,0.1,0,0.1c0,0,0,0.1,0,0.1
		c0,0.1,0.1,0.1,0.2,0.1c0.1,0.1,0,0.2-0.1,0.2c0,0,0,0.1,0,0.2c0,0.1,0,0.2,0.1,0.2c0,0,0,0,0,0.1s0,0,0,0.1c0,0,0,0.1-0.1,0.3
		c0.1,0.1,0.1,0.2,0.1,0.5c0,0.3,0,0.5,0.1,0.6c-0.1,0.2-0.1,0.4,0,0.5c0,0.1,0,0.2,0,0.3c0,0,0,0.1,0,0.1c0,0,0,0.1,0,0.1
		c0.1,0.2,0.1,0.3,0.1,0.4c0.1,0.1,0.1,0.2,0.2,0.3c0.1,0.1,0.1,0.2,0.1,0.3c0.1,0,0.2,0,0.3,0.1c0.2,0,0.3,0,0.3,0
		c0,0,0.1,0,0.1-0.1c0.1,0,0.1,0,0.1,0.1c0.4,0,0.7-0.1,0.7-0.1c0.1,0,0.2,0,0.3,0c0.2,0,0.3,0,0.4,0c0.1-0.1,0.3-0.1,0.6-0.2
		c0,0,0,0,0-0.1s0-0.1,0-0.1c0.1,0,0.1,0,0.2,0c0.1,0,0.2,0,0.2,0c0,0,0.1-0.1,0.2-0.1c0.1,0,0.2-0.1,0.2-0.1c0.2,0,0.3,0,0.5-0.1
		c0.2-0.1,0.3-0.2,0.5-0.2c0-0.1,0.1-0.1,0.1-0.1c0.2,0.1,0.3,0,0.3,0c0.2,0,0.4-0.1,0.5-0.3c0.1,0,0.2,0,0.3,0
		c0.1-0.1,0.2-0.1,0.3-0.1c0.5,0,0.7,0,0.8,0.1c0,0,0.1,0,0.1,0c0,0.1,0.1,0.3,0.2,0.4c0,0,0.1,0,0.1,0c0.1,0,0.1,0.1,0.2,0.2
		c0,0.1,0.1,0.3,0.2,0.3c0,0.1,0,0.1,0.1,0.2c0.1,0.1,0.1,0.2,0.1,0.2c0,0,0,0,0,0.1c0,0.1,0,0.1,0,0.2c-0.1,0.2-0.2,0.3-0.2,0.4
		c-0.1,0-0.2,0.1-0.3,0.2c-0.2,0-0.3,0.1-0.3,0.4c0,0-0.1,0-0.1,0s-0.1,0-0.1,0c0,0-0.1,0.1-0.1,0.2c0,0-0.1,0-0.1,0s-0.1,0-0.1,0
		s-0.1,0-0.1,0.1c-0.2,0-0.3,0.1-0.3,0.2h-0.2c-0.1,0.2-0.3,0.2-0.5,0.1c0,0-0.1,0.1-0.1,0.2c0,0-0.1,0-0.1,0
		c-0.1-0.1-0.2-0.1-0.3,0c-0.1,0-0.1,0.1-0.1,0.2l-0.2,0c0,0,0,0,0,0.1s0,0.1,0,0.1c0,0-0.1-0.1-0.2-0.1c-0.1,0-0.2,0-0.3,0
		c0,0-0.1,0.1-0.1,0.1c0,0,0,0.1-0.1,0.1c0,0-0.1,0-0.1,0c0,0-0.1,0-0.1,0c0,0-0.1,0.1-0.1,0.2c-0.1-0.1-0.3,0-0.4,0c0,0,0,0,0,0.1
		c-0.1,0-0.2,0-0.3,0c-0.2,0-0.3,0.1-0.3,0.1c0,0-0.1,0-0.1,0c0,0,0,0-0.1,0c0,0-0.1,0-0.2,0c-0.1,0-0.2,0-0.2,0.1
		c0,0.1,0,0.1,0,0.1c0,0-0.1,0-0.3,0c-0.1,0-0.1,0-0.1,0c0,0,0-0.1-0.1-0.1c-0.3,0.1-0.4,0.1-0.5,0.1c0,0,0,0.1,0,0.1
		c-0.1,0-0.1,0-0.2,0c0,0-0.1-0.1-0.1-0.1c0,0-0.1,0.1-0.1,0.1c0,0-0.1,0-0.1,0s-0.1,0-0.2,0c-0.1,0-0.2,0-0.2,0c0-0.1,0-0.1,0-0.1
		l-0.1,0c-0.1,0-0.1,0.1-0.1,0.2c-0.2,0-0.4,0-0.6,0c0-0.1,0-0.1-0.1-0.2c-0.1,0-0.1,0-0.2,0c0,0,0,0.1,0,0.1c0,0.1,0,0.1,0,0.1
		s0,0,0-0.1c0,0,0-0.1,0-0.1h-0.2v-0.1c-0.1-0.1-0.2-0.1-0.3-0.1C81.4,60,81.3,60,81.3,60c0,0-0.1,0-0.1-0.1
		c-0.1-0.1-0.1-0.1-0.1-0.2c0,0-0.1,0-0.1,0c0,0-0.1,0-0.1,0c0,0,0-0.1,0-0.1c0,0,0-0.1-0.1-0.1s-0.1,0-0.1,0c0,0-0.1,0-0.1,0
		c0-0.1,0-0.2-0.2-0.3v-0.1c-0.1-0.1-0.2-0.2-0.3-0.3H80c-0.1-0.1-0.2-0.1-0.2-0.2c-0.1-0.1-0.1-0.2-0.2-0.3
		c-0.1-0.1-0.1-0.2-0.2-0.3c-0.1-0.4-0.2-0.6-0.2-0.6c0-0.1,0-0.2-0.1-0.3c0-0.1,0-0.1,0-0.3c0-0.1,0-0.2,0-0.2c0,0,0-0.1-0.1-0.1
		c0,0,0-0.1,0-0.1c0,0,0-0.1,0-0.1c0,0,0-0.1,0-0.3c0-0.2,0-0.3-0.1-0.3c0-0.1,0-0.2,0-0.4c0-0.2,0-0.3,0-0.3c0-0.4,0-1,0-1.8
		c0-0.8,0-1.4,0-1.8c0.1,0,0.2-0.1,0.1-0.1c0-0.1-0.1-0.2-0.1-0.2c0-0.1,0-0.2,0.1-0.3c0-0.1,0.1-0.2,0.1-0.2
		c-0.1-0.1-0.1-0.1-0.1-0.2c0-0.1,0-0.1,0.1-0.1c0-0.1,0-0.7,0-1.6c0.1,0,0.1-0.1,0.1-0.1c0-0.1,0-0.1-0.1-0.2c0.1,0,0.1-0.1,0-0.3
		c0-0.1,0-0.3,0-0.3c0,0,0-0.1,0-0.1c0.1-0.1,0-0.2,0-0.2c0-0.1,0-0.2,0-0.5c0-0.3,0-0.5-0.1-0.5c0.1,0,0.1-0.2,0.1-0.4
		c0-0.2,0-0.4,0-0.4L78.7,46c0-0.2,0-0.3,0.1-0.3c0,0-0.1-0.1-0.1-0.1s0-0.1,0-0.1c0-0.3,0-0.5,0-0.5c0,0-0.1,0-0.1,0c0,0,0,0-0.1,0
		c0-0.3,0-0.5,0-0.7c-0.1,0-0.1,0-0.1,0c0,0,0-0.1,0-0.2c0,0,0-0.1,0-0.1c0,0,0-0.1,0-0.1s0-0.1,0-0.1s0-0.1,0-0.1
		c0,0-0.1-0.1-0.1-0.1c-0.1-0.1-0.1-0.2,0-0.3c0,0-0.1-0.1-0.1-0.1c0-0.1,0-0.1,0-0.2c-0.1,0-0.1-0.1-0.3-0.3c0-0.1,0-0.2,0-0.3
		c0-0.1,0-0.1,0-0.2c-0.1-0.1,0-0.2,0-0.3c0.1-0.1,0.1-0.2,0.1-0.3c0,0,0.1-0.1,0.2-0.2c0.1-0.1,0.2-0.2,0.2-0.2c0,0,0,0,0,0
		c0,0,0-0.1,0-0.1l0.1,0.1c0,0,0.1,0,0.2,0c0.1,0,0.2,0,0.2,0c0.1,0,0.1,0,0.2-0.1c0.1-0.1,0.1-0.1,0.1-0.1c0.1,0,0.1,0,0.3,0
		c0.1,0,0.2,0,0.3,0c0,0,0.1,0,0.1,0c0,0,0.1,0,0.1,0c0.2,0,0.3,0,0.4-0.1c0.4-0.1,0.6-0.1,0.7-0.2h0.2c0,0,0,0,0.1,0c0,0,0,0,0.1,0
		c0,0,0.1,0,0.2,0c0.1,0,0.1,0,0.2-0.1c0.1-0.1,0.2-0.1,0.2-0.1c0,0,0-0.1,0-0.2c0.1,0,0.1,0,0.1,0c0,0,0,0,0,0.1c0,0,0,0.1,0,0.1
		c0.2-0.1,0.4-0.1,0.5-0.2c0.1,0,0.1,0,0.2,0.1l0.3-0.1c0,0,0.1-0.1,0.3-0.2c0,0.1,0.1,0.1,0.1,0.2c0,0,0.1-0.1,0.2-0.1
		c0.1,0,0.1,0,0.2,0s0.1,0,0.1,0c0,0,0.1,0,0.1-0.1c0,0,0.1,0,0.2,0c0.1,0,0.2,0,0.2,0c0.2,0,0.3-0.1,0.4-0.1c0,0,0.1,0,0.1,0
		c0.1,0,0.1,0,0.1-0.1c0.1,0,0.1,0,0.2,0c0,0,0.1,0,0.2-0.1c0.1,0,0.1,0,0.2,0c0.1,0,0.1,0,0.1,0c0,0,0,0,0,0c0,0,0,0,0,0
		C86.3,39.6,86.6,39.6,86.6,39.4z"/>
</g>
</svg>
