<?xml version="1.0" encoding="utf-8"?>
<!-- Generator: Adobe Illustrator 19.0.1, SVG Export Plug-In . SVG Version: 6.00 Build 0)  -->
<svg version="1.1" id="Layer_1" xmlns="http://www.w3.org/2000/svg" xmlns:xlink="http://www.w3.org/1999/xlink" x="0px" y="0px"
	 viewBox="0 0 100 100" enable-background="new 0 0 100 100" xml:space="preserve">
<g>
	<path fill="#D93427" d="M13.4,41.1c0.1,0,0.2,0,0.2,0c0,0,0,0.1,0,0.2c0,0.1,0.1,0.1,0.2,0c0.1-0.1,0.1-0.1,0.1-0.2
		c0,0,0.1,0.1,0.2,0.1c0,0.1,0.1,0.1,0.2,0.1c0.2,0,0.3,0.1,0.5,0.2c0,0,0.1,0,0.1,0c0,0,0.1,0.1,0.1,0.1c0.1,0,0.2,0,0.3,0.1
		c0,0,0.1,0,0.1,0c0,0,0,0,0.1,0c0,0,0.1,0,0.1,0c0,0,0.1,0,0.2,0.1c0.1,0.1,0.2,0,0.2,0c0.1,0.1,0.2,0.1,0.3,0.1
		c0,0.1,0.1,0.1,0.2,0.1c0,0,0.1,0,0.1,0c0,0,0.1,0,0.1,0.1c0.1,0,0.1,0.1,0.2,0.1c0.3,0,0.5,0.1,0.5,0.1c0.1,0,0.2,0,0.3,0
		c0.2,0,0.3,0,0.3,0c0,0,0.1,0,0.1,0.1c0.1,0,0.1,0.1,0.1,0.1c0.1,0,0.2,0,0.3,0c0.1,0,0.2,0,0.3,0c0.1,0,0.2,0.1,0.2,0.2
		c0.1,0,0.2,0,0.2,0c0,0,0.1,0,0.2,0.1c0.1,0,0.1,0.1,0.2,0.1c0,0,0,0,0.1,0c0,0,0.1,0,0.1,0c0,0,0.1,0,0.2,0.1c0,0,0.1,0.1,0.1,0.1
		c0.1,0,0.2,0,0.3,0c0,0,0,0.1,0,0.1c0,0,0.1,0.1,0.1,0.1c0.4,0,0.6,0,0.7,0.1h0.2c0-0.1,0.1-0.1,0.1-0.1c0,0.1,0,0.1,0.1,0.2
		c0.1,0.1,0.1,0.1,0.2,0c0,0,0.1,0,0.1,0c0,0,0.1,0.1,0.1,0.1c0,0,0,0,0.1,0c0,0,0.1,0,0.1,0c0,0,0,0,0.1,0c0,0,0,0,0.1,0
		c0,0,0,0,0.1,0c0,0,0.1,0,0.1,0c0,0,0.1,0,0.1,0.1h0.1c0.1,0,0.1,0,0.2,0.1c0.2,0,0.3,0,0.4,0.2c0.1,0,0.2,0,0.2,0
		c0.1,0.1,0.1,0.1,0.2,0.1c0,0,0.1,0.1,0.2,0.1c0,0,0.1,0,0.3,0.1c0.1,0,0.2,0,0.2,0c0,0,0,0,0,0.1c0.1,0,0.2,0.1,0.3,0.2
		c0,0,0.2,0.1,0.5,0.2c0.1,0,0.2,0,0.2,0c0,0,0,0.1,0,0.1c0,0,0.1,0.1,0.3,0.1c0.2,0.2,0.2,0.3,0.2,0.3s0,0,0.1,0
		c0,0,0.1,0.1,0.1,0.1c0.1,0.1,0.1,0.1,0.1,0.1c0.1,0.1,0.2,0.2,0.2,0.2c0.1,0.1,0.2,0.1,0.2,0.2c0.1,0.1,0.2,0.2,0.2,0.3
		c0.1,0.1,0.1,0.2,0.2,0.2c0,0.1,0,0.1,0,0.1c0.2,0.2,0.4,0.4,0.5,0.6c0,0,0,0.1,0.1,0.1c0,0,0.1,0.1,0.1,0.1c0,0.1,0,0.2,0,0.2
		c0,0,0,0,0.1,0.1c0,0,0.1,0,0.1,0.1c0,0,0,0.1,0,0.2c0,0.1,0,0.1,0,0.2c0,0,0,0,0.1,0.1c0,0,0,0,0.1,0.1c0,0.1,0,0.2,0,0.4
		c0,0,0,0.1,0,0.1c0,0.1,0,0.1,0,0.1c0,0,0,0.1,0,0.1c0,0,0,0.1,0,0.1c0,0,0,0.1,0,0.1c0,0,0,0.1,0,0.1c0,0.1,0,0.2,0,0.4
		c0,0.2,0,0.4,0,0.5c-0.1,0.1-0.1,0.1-0.1,0.2c0,0.1-0.1,0.2-0.1,0.2c0,0,0,0,0,0.1c0,0,0,0,0,0.1c0,0,0,0.1,0,0.2s0,0.1,0,0.2
		c0,0,0,0.1-0.1,0.1c0,0.1,0,0.1,0,0.1c0,0,0,0.1,0,0.1c0,0,0,0.1,0,0.1c0,0,0,0-0.1,0.1c0,0,0,0.1-0.1,0.1c0,0,0,0.1,0,0.1
		c0,0.1,0,0.1,0,0.1c-0.1,0.1-0.1,0.1-0.1,0.1c0,0,0,0,0,0.1s0,0,0,0.1c0,0,0,0-0.1,0.1c0,0,0,0.1,0,0.1c-0.1,0.1-0.1,0.2-0.1,0.2
		c0,0.1-0.1,0.2-0.2,0.2c0,0.1,0,0.2-0.1,0.3v0.1c0,0.1-0.1,0.1-0.1,0.2c-0.1,0.2-0.2,0.3-0.1,0.5c0,0,0,0-0.1,0
		c0,0-0.1,0.1-0.3,0.3c0,0.1,0,0.1-0.1,0.2c-0.1,0.1-0.1,0.1-0.1,0.2c-0.2,0.1-0.3,0.3-0.3,0.5c0,0-0.1,0.1-0.1,0.2
		c-0.1,0.1-0.1,0.1-0.1,0.2c0,0,0,0,0,0v0c-0.1,0.1-0.1,0.1-0.1,0.1v0.1c-0.2,0.2-0.3,0.3-0.3,0.4c0,0,0,0-0.1,0c0,0,0,0.1-0.1,0.2
		c-0.1,0.1-0.1,0.2-0.1,0.3c-0.1,0.1-0.2,0.2-0.2,0.3c-0.1,0.1-0.2,0.1-0.2,0.3S24,56.3,24,56.3c0,0-0.1,0-0.1,0
		c-0.1,0.1-0.2,0.2-0.2,0.3c-0.1,0.1-0.2,0.2-0.4,0.3c-0.1,0.2-0.3,0.3-0.4,0.3c0,0,0,0.1,0,0.1c0,0,0,0.1,0,0.1
		c-0.1,0.1-0.2,0.1-0.3,0.3c-0.1,0.1-0.1,0.1-0.2,0.1c-0.2,0.2-0.3,0.3-0.3,0.3c0,0.1,0,0.1,0,0.1c0,0.1-0.1,0.1-0.1,0.1
		c0,0,0,0-0.1,0.1c0,0.1-0.1,0.1-0.1,0.1c0,0-0.1,0-0.1,0.1c-0.1,0-0.1,0.1-0.1,0.1l0,0.1c-0.1,0.1-0.1,0.2-0.2,0.2c0,0,0,0.1,0,0.1
		c0,0,0,0,0,0c0,0-0.1,0-0.1-0.1c-0.1,0-0.2,0.1-0.2,0.2C21,59.3,21,59.3,21,59.3c0,0,0,0,0,0.1c0,0,0,0,0,0.1c0,0-0.1,0-0.1,0
		c0,0-0.1,0-0.1,0.1c0,0,0,0,0,0c0,0-0.1,0-0.1,0c0,0-0.3,0.2-0.7,0.6c0,0.1,0,0.1-0.1,0.2h-0.1c0,0-0.1,0-0.1,0.1
		c0,0-0.1,0.1-0.1,0.1c0,0-0.1,0.1-0.1,0.2c0,0.1-0.1,0.1-0.1,0.2c0,0.1,0,0.1,0,0.1c0,0-0.1,0-0.1,0c0,0,0,0-0.1,0
		c0,0-0.1,0-0.2,0.1c0,0,0,0-0.1,0c0,0,0,0-0.1,0c0,0,0,0.1-0.1,0.1c0,0,0,0.1,0,0.1c-0.1,0-0.1,0-0.2,0c0,0,0-0.1-0.1-0.2l-0.1,0.1
		c0,0,0,0-0.1,0c0,0-0.1,0-0.1,0c0-0.1,0-0.1-0.1-0.2c0-0.1,0-0.1,0-0.1c-0.1,0-0.2,0-0.3-0.1c-0.1-0.1-0.1-0.2-0.2-0.2
		c-0.1,0-0.1-0.1-0.2-0.1c0-0.1,0-0.1,0-0.2c0,0-0.1,0-0.2,0c-0.1-0.1-0.2-0.2-0.3-0.3c0,0,0-0.1,0-0.2s0-0.1,0-0.2
		c0-0.1,0-0.2,0-0.2l0.2-0.2c0,0,0-0.1,0-0.1c0,0,0-0.1,0-0.1c0,0,0,0,0.1,0c0,0,0,0,0,0s0,0,0,0c0,0,0,0,0-0.1l0.1-0.1
		c0-0.1-0.1-0.2-0.3-0.2c0,0,0-0.1,0-0.1c0-0.1,0-0.1,0-0.1s0-0.1-0.1-0.1c0-0.1-0.1-0.1-0.1-0.2c0,0,0-0.1,0-0.2c0-0.1,0-0.1,0-0.1
		c0,0,0,0-0.1-0.1c0,0-0.1,0-0.1-0.1c0.1-0.1,0.1-0.2,0.1-0.3c0-0.2-0.1-0.3-0.1-0.3c0-0.1,0-0.2,0-0.4c0-0.2,0-0.3,0-0.4
		c0,0,0-0.1,0-0.1s0-0.1,0-0.1c0,0,0-0.1-0.1-0.1c0,0,0-0.1,0-0.2c0-0.1,0-0.1,0-0.2c0,0,0-0.1-0.1-0.1c0,0-0.1-0.1-0.1-0.1
		c0,0,0-0.1,0-0.1s0-0.1,0-0.1c0-0.2,0-0.4,0-0.5c0,0,0-0.1,0-0.1c0-0.1,0-0.1-0.1-0.1c0,0,0-0.1,0-0.1c0,0,0-0.1,0-0.1
		c0,0,0-0.1,0-0.2c0-0.1,0-0.2,0-0.2l-0.1-0.1c0.1-0.3,0-0.5-0.1-0.6v-0.3c0,0,0,0,0-0.1c0,0,0,0,0-0.1c0,0,0-0.1,0-0.1
		c0,0,0-0.1,0-0.1c0-0.1-0.1-0.1-0.2-0.1c0-0.1,0-0.3,0-0.4c0,0,0,0,0.1,0c0.1-0.1,0.1-0.2,0-0.3c0-0.1-0.1-0.1-0.1-0.2
		c0,0,0-0.1,0-0.2c0-0.1,0-0.1,0-0.1c0,0,0-0.1-0.1-0.1c0,0-0.1-0.1-0.1-0.1c0-0.5,0-0.8,0-0.8c-0.1,0-0.2-0.2-0.2-0.3
		c0,0,0-0.1,0-0.1c0,0,0-0.1,0-0.3c0-0.2,0-0.3,0-0.3c0,0,0-0.1,0-0.1c0,0,0-0.1,0-0.1c0,0,0,0,0-0.1c0.1-0.1,0-0.2-0.1-0.2
		c0,0-0.1-0.1-0.1-0.3c0,0,0-0.1-0.1-0.1c0-0.1-0.1-0.1-0.1-0.1c0-0.2-0.1-0.2-0.1-0.3c0,0,0-0.2,0-0.4c0,0,0-0.1-0.1-0.1
		c0-0.1,0-0.2,0-0.3s0-0.2-0.2-0.2c0,0,0-0.1,0-0.2c0-0.1,0-0.2,0-0.2c0,0-0.1-0.1-0.1-0.2c0-0.1-0.1-0.1-0.1-0.2
		c-0.1-0.3-0.1-0.4-0.2-0.4c0-0.2,0-0.2-0.2-0.2c0,0,0-0.1,0-0.2c0-0.1,0.1-0.1,0.1-0.2c0,0-0.1,0-0.1,0c0,0,0-0.1,0-0.1
		c0-0.1,0-0.2-0.1-0.3c0,0,0-0.1-0.1-0.1c0,0,0-0.1,0-0.1c0,0,0-0.1,0-0.1s0-0.1,0-0.1c0,0,0,0-0.1-0.1c0,0,0,0,0-0.1
		c0,0,0-0.1,0-0.1c0,0-0.1-0.1-0.1-0.1c0,0-0.1-0.1-0.1-0.1c-0.1,0-0.2-0.1-0.3-0.2h-0.3c-0.1-0.2-0.2-0.3-0.3-0.2
		c0,0-0.1-0.1-0.1-0.1c0-0.1-0.1-0.1-0.1-0.1c0-0.1-0.1-0.2-0.3-0.3c0-0.2-0.1-0.3-0.3-0.4c0-0.1-0.1-0.2-0.1-0.2c0,0,0-0.1,0-0.1
		c0,0,0-0.1,0-0.1l-0.1-0.1c0-0.1,0-0.3,0-0.4c0,0,0-0.1,0.1-0.1c0-0.1,0.1-0.1,0.1-0.1c0,0,0-0.1,0-0.1c0,0,0-0.1,0-0.1
		c0,0,0,0,0.1-0.1c0,0,0.1,0,0.1-0.1h0.1c0,0,0.2-0.1,0.4-0.1c0.1,0,0.2,0,0.2,0C13.4,41.2,13.4,41.2,13.4,41.1
		C13.4,41.1,13.4,41.1,13.4,41.1z M13.7,41.1c0,0,0,0.1,0,0.2c0,0.1,0.1,0.1,0.2,0c0.1-0.1,0.1-0.1,0.1-0.2c0,0,0.1,0.1,0.2,0.1
		c0,0.1,0.1,0.1,0.2,0.1c0.2,0,0.3,0.1,0.5,0.2c0,0,0.1,0,0.1,0c0,0,0.1,0.1,0.1,0.1c0.1,0,0.2,0,0.3,0.1c0,0,0.1,0,0.1,0
		c0,0,0,0,0.1,0c0,0,0.1,0,0.1,0c0,0,0.1,0,0.2,0.1c0.1,0.1,0.2,0,0.2,0c0.1,0.1,0.2,0.1,0.3,0.1c0,0.1,0.1,0.1,0.2,0.1
		c0,0,0.1,0,0.1,0c0,0,0.1,0,0.1,0.1c0.1,0,0.1,0.1,0.2,0.1c0.3,0,0.5,0.1,0.5,0.1c0.1,0,0.2,0,0.3,0c0.2,0,0.3,0,0.3,0
		c0,0,0.1,0,0.1,0.1c0.1,0,0.1,0.1,0.1,0.1c0.1,0,0.2,0,0.3,0c0.1,0,0.2,0,0.3,0c0.1,0,0.2,0.1,0.2,0.2c0.1,0,0.2,0,0.2,0
		c0,0,0.1,0,0.2,0.1c0.1,0,0.1,0.1,0.2,0.1c0,0,0,0,0.1,0c0,0,0.1,0,0.1,0c0,0,0.1,0,0.2,0.1c0,0,0.1,0.1,0.1,0.1c0.1,0,0.2,0,0.3,0
		c0,0,0,0.1,0,0.1c0,0,0.1,0.1,0.1,0.1c0.4,0,0.6,0,0.7,0.1h0.2c0-0.1,0.1-0.1,0.1-0.1c0,0.1,0,0.1,0.1,0.2c0.1,0.1,0.1,0.1,0.2,0
		c0,0,0.1,0,0.1,0c0,0,0.1,0.1,0.1,0.1c0,0,0,0,0.1,0c0,0,0.1,0,0.1,0c0,0,0,0,0.1,0c0,0,0,0,0.1,0c0,0,0,0,0.1,0c0,0,0.1,0,0.1,0
		c0,0,0.1,0,0.1,0.1h0.1c0.1,0,0.1,0,0.2,0.1c0.2,0,0.3,0,0.4,0.2c0.1,0,0.2,0,0.2,0c0.1,0.1,0.1,0.1,0.2,0.1c0,0,0.1,0.1,0.2,0.1
		c0,0,0.1,0,0.3,0.1c0.1,0,0.2,0,0.2,0c0,0,0,0,0,0.1c0.1,0,0.2,0.1,0.3,0.2c0,0,0.2,0.1,0.5,0.2c0.1,0,0.2,0,0.2,0c0,0,0,0.1,0,0.1
		c0,0,0.1,0.1,0.3,0.1c0.2,0.2,0.2,0.3,0.2,0.3s0,0,0.1,0c0,0,0.1,0.1,0.1,0.1c0.1,0.1,0.1,0.1,0.1,0.1c0.1,0.1,0.2,0.2,0.2,0.2
		c0.1,0.1,0.2,0.1,0.2,0.2c0.1,0.1,0.2,0.2,0.2,0.3c0.1,0.1,0.1,0.2,0.2,0.2c0,0.1,0,0.1,0,0.1c0.2,0.2,0.4,0.4,0.5,0.6
		c0,0,0,0.1,0.1,0.1c0,0,0.1,0.1,0.1,0.1c0,0.1,0,0.2,0,0.2c0,0,0,0,0.1,0.1c0,0,0.1,0,0.1,0.1c0,0,0,0.1,0,0.2c0,0.1,0,0.1,0,0.2
		c0,0,0,0,0.1,0.1c0,0,0,0,0.1,0.1c0,0.1,0,0.2,0,0.4c0,0,0,0.1,0,0.1c0,0.1,0,0.1,0,0.1c0,0,0,0.1,0,0.1c0,0,0,0.1,0,0.1
		c0,0,0,0.1,0,0.1c0,0,0,0.1,0,0.1c0,0.1,0,0.2,0,0.4c0,0.2,0,0.4,0,0.5c-0.1,0.1-0.1,0.1-0.1,0.2c0,0.1-0.1,0.2-0.1,0.2
		c0,0,0,0,0,0.1c0,0,0,0,0,0.1c0,0,0,0.1,0,0.2s0,0.1,0,0.2c0,0,0,0.1-0.1,0.1c0,0.1,0,0.1,0,0.1c0,0,0,0.1,0,0.1c0,0,0,0.1,0,0.1
		c0,0,0,0-0.1,0.1c0,0,0,0.1-0.1,0.1c0,0,0,0.1,0,0.1c0,0.1,0,0.1,0,0.1c-0.1,0.1-0.1,0.1-0.1,0.1c0,0,0,0,0,0.1s0,0,0,0.1
		c0,0,0,0-0.1,0.1c0,0,0,0.1,0,0.1c-0.1,0.1-0.1,0.2-0.1,0.2c0,0.1-0.1,0.2-0.2,0.2c0,0.1,0,0.2-0.1,0.3v0.1c0,0.1-0.1,0.1-0.1,0.2
		c-0.1,0.2-0.2,0.3-0.1,0.5c0,0,0,0-0.1,0c0,0-0.1,0.1-0.3,0.3c0,0.1,0,0.1-0.1,0.2c-0.1,0.1-0.1,0.1-0.1,0.2
		c-0.2,0.1-0.3,0.3-0.3,0.5c0,0-0.1,0.1-0.1,0.2c-0.1,0.1-0.1,0.1-0.1,0.2c0,0,0,0,0,0v0c-0.1,0.1-0.1,0.1-0.1,0.1v0.1
		c-0.2,0.2-0.3,0.3-0.3,0.4c0,0,0,0-0.1,0c0,0,0,0.1-0.1,0.2c-0.1,0.1-0.1,0.2-0.1,0.3c-0.1,0.1-0.2,0.2-0.2,0.3
		c-0.1,0.1-0.2,0.1-0.2,0.3S24,56.3,24,56.3c0,0-0.1,0-0.1,0c-0.1,0.1-0.2,0.2-0.2,0.3c-0.1,0.1-0.2,0.2-0.4,0.3
		c-0.1,0.2-0.3,0.3-0.4,0.3c0,0,0,0.1,0,0.1c0,0,0,0.1,0,0.1c-0.1,0.1-0.2,0.1-0.3,0.3c-0.1,0.1-0.1,0.1-0.2,0.1
		c-0.2,0.2-0.3,0.3-0.3,0.3c0,0.1,0,0.1,0,0.1c0,0.1-0.1,0.1-0.1,0.1c0,0,0,0-0.1,0.1c0,0.1-0.1,0.1-0.1,0.1c0,0-0.1,0-0.1,0.1
		c-0.1,0-0.1,0.1-0.1,0.1l0,0.1c-0.1,0.1-0.1,0.2-0.2,0.2c0,0,0,0.1,0,0.1c0,0,0,0,0,0c0,0-0.1,0-0.1-0.1c-0.1,0-0.2,0.1-0.2,0.2
		C21,59.3,21,59.3,21,59.3c0,0,0,0,0,0.1c0,0,0,0,0,0.1c0,0-0.1,0-0.1,0c0,0-0.1,0-0.1,0.1c0,0,0,0,0,0c0,0-0.1,0-0.1,0
		c0,0-0.3,0.2-0.7,0.6c0,0.1,0,0.1-0.1,0.2h-0.1c0,0-0.1,0-0.1,0.1c0,0-0.1,0.1-0.1,0.1c0,0-0.1,0.1-0.1,0.2c0,0.1-0.1,0.1-0.1,0.2
		c0,0.1,0,0.1,0,0.1c0,0-0.1,0-0.1,0c0,0,0,0-0.1,0c0,0-0.1,0-0.2,0.1c0,0,0,0-0.1,0c0,0,0,0-0.1,0c0,0,0,0.1-0.1,0.1
		c0,0,0,0.1,0,0.1c-0.1,0-0.1,0-0.2,0c0,0,0-0.1-0.1-0.2l-0.1,0.1c0,0,0,0-0.1,0c0,0-0.1,0-0.1,0c0-0.1,0-0.1-0.1-0.2
		c0-0.1,0-0.1,0-0.1c-0.1,0-0.2,0-0.3-0.1c-0.1-0.1-0.1-0.2-0.2-0.2c-0.1,0-0.1-0.1-0.2-0.1c0-0.1,0-0.1,0-0.2c0,0-0.1,0-0.2,0
		c-0.1-0.1-0.2-0.2-0.3-0.3c0,0,0-0.1,0-0.2s0-0.1,0-0.2c0-0.1,0-0.2,0-0.2l0.2-0.2c0,0,0-0.1,0-0.1c0,0,0-0.1,0-0.1c0,0,0,0,0.1,0
		c0,0,0,0,0,0s0,0,0,0c0,0,0,0,0-0.1l0.1-0.1c0-0.1-0.1-0.2-0.3-0.2c0,0,0-0.1,0-0.1c0-0.1,0-0.1,0-0.1s0-0.1-0.1-0.1
		c0-0.1-0.1-0.1-0.1-0.2c0,0,0-0.1,0-0.2c0-0.1,0-0.1,0-0.1c0,0,0,0-0.1-0.1c0,0-0.1,0-0.1-0.1c0.1-0.1,0.1-0.2,0.1-0.3
		c0-0.2-0.1-0.3-0.1-0.3c0-0.1,0-0.2,0-0.4c0-0.2,0-0.3,0-0.4c0,0,0-0.1,0-0.1s0-0.1,0-0.1c0,0,0-0.1-0.1-0.1c0,0,0-0.1,0-0.2
		c0-0.1,0-0.1,0-0.2c0,0,0-0.1-0.1-0.1c0,0-0.1-0.1-0.1-0.1c0,0,0-0.1,0-0.1s0-0.1,0-0.1c0-0.2,0-0.4,0-0.5c0,0,0-0.1,0-0.1
		c0-0.1,0-0.1-0.1-0.1c0,0,0-0.1,0-0.1c0,0,0-0.1,0-0.1c0,0,0-0.1,0-0.2c0-0.1,0-0.2,0-0.2l-0.1-0.1c0.1-0.3,0-0.5-0.1-0.6v-0.3
		c0,0,0,0,0-0.1c0,0,0,0,0-0.1c0,0,0-0.1,0-0.1c0,0,0-0.1,0-0.1c0-0.1-0.1-0.1-0.2-0.1c0-0.1,0-0.3,0-0.4c0,0,0,0,0.1,0
		c0.1-0.1,0.1-0.2,0-0.3c0-0.1-0.1-0.1-0.1-0.2c0,0,0-0.1,0-0.2c0-0.1,0-0.1,0-0.1c0,0,0-0.1-0.1-0.1c0,0-0.1-0.1-0.1-0.1
		c0-0.5,0-0.8,0-0.8c-0.1,0-0.2-0.2-0.2-0.3c0,0,0-0.1,0-0.1c0,0,0-0.1,0-0.3c0-0.2,0-0.3,0-0.3c0,0,0-0.1,0-0.1c0,0,0-0.1,0-0.1
		c0,0,0,0,0-0.1c0.1-0.1,0-0.2-0.1-0.2c0,0-0.1-0.1-0.1-0.3c0,0,0-0.1-0.1-0.1c0-0.1-0.1-0.1-0.1-0.1c0-0.2-0.1-0.2-0.1-0.3
		c0,0,0-0.2,0-0.4c0,0,0-0.1-0.1-0.1c0-0.1,0-0.2,0-0.3s0-0.2-0.2-0.2c0,0,0-0.1,0-0.2c0-0.1,0-0.2,0-0.2c0,0-0.1-0.1-0.1-0.2
		c0-0.1-0.1-0.1-0.1-0.2c-0.1-0.3-0.1-0.4-0.2-0.4c0-0.2,0-0.2-0.2-0.2c0,0,0-0.1,0-0.2c0-0.1,0.1-0.1,0.1-0.2c0,0-0.1,0-0.1,0
		c0,0,0-0.1,0-0.1c0-0.1,0-0.2-0.1-0.3c0,0,0-0.1-0.1-0.1c0,0,0-0.1,0-0.1c0,0,0-0.1,0-0.1s0-0.1,0-0.1c0,0,0,0-0.1-0.1
		c0,0,0,0,0-0.1c0,0,0-0.1,0-0.1c0,0-0.1-0.1-0.1-0.1c0,0-0.1-0.1-0.1-0.1c-0.1,0-0.2-0.1-0.3-0.2h-0.3c-0.1-0.2-0.2-0.3-0.3-0.2
		c0,0-0.1-0.1-0.1-0.1c0-0.1-0.1-0.1-0.1-0.1c0-0.1-0.1-0.2-0.3-0.3c0-0.2-0.1-0.3-0.3-0.4c0-0.1-0.1-0.2-0.1-0.2c0,0,0-0.1,0-0.1
		c0,0,0-0.1,0-0.1l-0.1-0.1c0-0.1,0-0.3,0-0.4c0,0,0-0.1,0.1-0.1c0-0.1,0.1-0.1,0.1-0.1c0,0,0-0.1,0-0.1c0,0,0-0.1,0-0.1
		c0,0,0,0,0.1-0.1c0,0,0.1,0,0.1-0.1h0.1c0,0,0.2-0.1,0.4-0.1c0.1,0,0.2,0,0.2,0c0,0,0,0,0.1,0c0,0,0-0.1,0-0.1
		C13.6,41.1,13.6,41.1,13.7,41.1z M21.2,45.5C21.2,45.5,21.1,45.4,21.2,45.5c-0.1-0.1-0.1-0.1-0.2-0.1c0,0-0.1,0-0.1,0
		c-0.1,0-0.1,0-0.1,0c0,0-0.1,0-0.1-0.1s0-0.1-0.1-0.1c-0.1,0-0.1,0-0.1,0s0,0-0.1,0c0,0-0.1,0-0.1,0c0,0-0.1,0-0.2,0
		c-0.1,0-0.1,0-0.2,0c0,0-0.1,0-0.1-0.1c0,0-0.1-0.1-0.1-0.1c0,0-0.1,0-0.1,0c0,0,0,0-0.1,0s-0.1,0-0.1,0c-0.1,0-0.1,0-0.1,0
		c0-0.1-0.2-0.1-0.4-0.1c-0.1,0-0.1,0-0.2,0c-0.2-0.1-0.3-0.1-0.3-0.1c0,0,0,0-0.1,0c0,0-0.1,0-0.1,0c-0.1,0-0.2,0-0.3-0.1
		c-0.4,0-0.6,0-0.7,0c0,0,0,0.1,0,0.2c0,0.1,0,0.2,0,0.2c0,0,0,0.1,0,0.1c0,0,0,0.1,0.1,0.1c0,0,0,0.1,0,0.2c0,0.1,0,0.1,0.1,0.1
		c0,0,0.1,0.1,0.1,0.1s0,0.1,0,0.2c0,0,0,0.1,0.1,0.2c0,0.1,0.1,0.2,0,0.2c0.1,0.2,0.2,0.3,0.2,0.4c0,0.1,0,0.2,0,0.2
		c0.1,0.2,0.2,0.3,0.2,0.3c0,0.1,0.1,0.2,0.1,0.4c0,0,0,0.1,0,0.1c0,0,0,0.1,0,0.1c0,0.1,0,0.1,0,0.1c0,0.1,0.1,0.1,0.1,0.2
		c0,0,0,0.1,0,0.1s0,0.1,0,0.1c0,0,0,0.1,0,0.1c0,0.1,0,0.1,0.1,0.2c0,0,0,0.1,0,0.2c0,0.1,0,0.1,0,0.2c0,0,0,0.1,0,0.1
		c0,0.2,0,0.2,0,0.3c0,0,0,0.1,0.1,0.1c0,0,0.1,0.1,0.1,0.1c0,0,0,0.1,0.1,0.3c0,0.1,0,0.1,0,0.2c0,0.1,0,0.2,0,0.2
		c0,0,0.1,0.1,0.1,0.1c0,0.1,0,0.1,0.1,0.1c0,0,0,0.1,0,0.2c0,0.1,0,0.1,0,0.2c0,0,0,0.1,0.1,0.1c0,0,0,0.1,0.1,0.1c0,0,0,0.1,0,0.2
		c0,0,0,0.1,0,0.1c0,0.1,0,0.1,0,0.1c0,0,0,0.1,0,0.1c0,0,0,0.1,0,0.1c0,0,0,0.1,0,0.1c0,0.1,0,0.1,0,0.1c0,0,0,0-0.1,0.1
		c0,0,0,0,0,0.1C19,52,19,52,19,52c0.1,0.1,0.1,0.2,0.1,0.2c0,0,0,0.1,0,0.1c0,0,0,0.1,0,0.1c0,0,0,0.1,0,0.1c0,0,0,0.1,0.1,0.1
		c0,0,0,0,0,0.1c0,0,0,0.1,0,0.1c0,0,0,0.1,0.1,0.1c0,0.1,0,0.2,0,0.2c0,0,0,0.1,0,0.1c0,0,0,0.1,0,0.1c0,0,0,0.1,0,0.2
		c0,0.1,0,0.1,0,0.2c0,0,0,0.1,0.1,0.1c0,0,0.1,0.1,0.1,0.1c0,0.1,0,0.1,0,0.1c0,0,0,0,0,0.1c0,0,0,0.1,0,0.1c0,0,0,0.1,0,0.2
		s0,0.2,0,0.2c0,0,0,0.1,0.1,0.1c0,0.1,0,0.1,0,0.1c0,0.1,0,0.1,0,0.2c0,0.1,0,0.2,0,0.2c0,0,0.1,0.1,0.1,0.3
		c0.1,0.2,0.1,0.4,0.1,0.4c0.1,0.1,0.1,0.2,0.1,0.4c0,0.1,0,0.2,0,0.2c0,0,0,0,0.1,0.1c0,0,0.1,0,0.1,0.1c0,0,0,0.1,0,0.1
		c0,0.1,0,0.1,0,0.1c0,0.1,0.2,0,0.4-0.2c0,0,0.1,0,0.1,0c0,0,0.1,0,0.1-0.1c0.1-0.1,0.2-0.2,0.2-0.2c0,0,0.2-0.1,0.4-0.2
		c0,0,0-0.1,0.1-0.1c0.1-0.1,0.1-0.2,0.2-0.2c0-0.1,0.2-0.3,0.5-0.6c0-0.1,0-0.2,0.2-0.2c0-0.1,0-0.1,0.1-0.1
		c0.1-0.1,0.2-0.1,0.2-0.1c0-0.1,0.1-0.2,0.2-0.3s0.2-0.3,0.2-0.4c0.2-0.1,0.3-0.2,0.3-0.2c0-0.1,0-0.1,0.1-0.2
		c0.1-0.1,0.1-0.1,0.1-0.2c0,0,0.1-0.1,0.1-0.1c0,0,0.1-0.1,0.1-0.1c0-0.1,0-0.2,0.2-0.3c0-0.1,0.1-0.1,0.1-0.1c0,0,0,0,0,0
		c0,0,0,0,0-0.1c0,0,0,0,0.1-0.1c0,0,0-0.1,0.1-0.1c0-0.1,0-0.1,0-0.1c0,0,0-0.1,0.1-0.2c0.1-0.1,0.1-0.1,0.2-0.2
		c0-0.1,0.1-0.3,0.2-0.5c0.1-0.2,0.2-0.3,0.2-0.5c0,0,0,0,0.1-0.1c0,0,0.1-0.1,0.1-0.1c0-0.1,0-0.1,0.1-0.2c0-0.1,0.1-0.2,0.1-0.3
		c0.1,0,0.1-0.1,0.1-0.2c0-0.1,0-0.1,0-0.2c0.1-0.1,0.1-0.1,0.1-0.1c0,0,0-0.1,0-0.1c0-0.1,0-0.1,0.1-0.2c0-0.1,0.1-0.1,0.1-0.1
		c0,0,0-0.1,0-0.1c0-0.1,0-0.1,0-0.1c0,0,0-0.1,0.1-0.1c0.1-0.2,0.1-0.3,0-0.4c0,0,0.1-0.1,0.1-0.1c0-0.1-0.1-0.3,0-0.5
		c0,0,0-0.1,0-0.1c0,0,0-0.1,0-0.1c-0.1-0.2-0.1-0.3,0-0.3L25,47.4c0,0,0-0.1,0-0.1c0,0,0-0.1,0-0.1c0,0,0,0-0.1,0c0,0,0-0.1,0-0.1
		c-0.1-0.1-0.1-0.2-0.2-0.2c0,0,0,0-0.1,0c0,0-0.1,0-0.1,0c0,0,0,0,0-0.1s0,0,0,0c0,0,0,0-0.1,0c-0.1-0.1-0.2-0.1-0.2-0.1
		c0-0.1-0.1-0.1-0.1-0.1l-0.1,0c0,0,0,0-0.1-0.1c0,0-0.1-0.1-0.1-0.1h-0.2c0-0.1-0.1-0.1-0.2-0.1c-0.1-0.1-0.1-0.1-0.1-0.1
		c0,0-0.1,0-0.2-0.1c-0.1-0.1-0.2-0.1-0.3-0.1c0,0,0,0-0.1-0.1c0,0-0.1-0.1-0.1-0.1c0,0-0.1,0-0.1,0c0,0-0.1,0-0.1,0
		c-0.1-0.1-0.1-0.1-0.2-0.1c-0.1,0-0.1,0-0.2,0c-0.1-0.1-0.2-0.1-0.2-0.1c0,0,0,0-0.1,0c-0.1,0-0.1,0-0.1,0s0,0-0.1-0.1
		c0,0,0-0.1-0.1-0.1c0,0,0,0-0.1,0c0,0-0.1,0-0.1,0c0,0-0.1-0.1-0.1-0.1C21.3,45.4,21.2,45.5,21.2,45.5z M21.1,45.4
		C21.1,45.4,21.1,45.3,21.1,45.4C21.1,45.3,21.1,45.3,21.1,45.4c-0.1-0.1-0.1-0.1-0.2-0.1c-0.1,0-0.1,0-0.1,0c0,0-0.1,0-0.1-0.1
		s0-0.1-0.1-0.1c-0.1,0-0.1,0-0.1,0s0,0-0.1,0c0,0-0.1,0-0.1,0c0,0-0.1,0-0.2,0c-0.1,0-0.1,0-0.2,0c0,0-0.1,0-0.1-0.1
		c0,0-0.1-0.1-0.1-0.1c0,0-0.1,0-0.1,0c0,0,0,0-0.1,0s-0.1,0-0.1,0c-0.1,0-0.1,0-0.1,0c0-0.1-0.2-0.1-0.4-0.1c-0.1,0-0.1,0-0.2,0
		c-0.2-0.1-0.3-0.1-0.3-0.1c0,0,0,0-0.1,0c0,0-0.1,0-0.1,0c-0.1,0-0.2,0-0.3-0.1c-0.4,0-0.6,0-0.7,0c0,0,0,0.1,0,0.2
		c0,0.1,0,0.2,0,0.2c0,0,0,0.1,0,0.1c0,0,0,0.1,0.1,0.1c0,0,0,0.1,0,0.2c0,0.1,0,0.1,0.1,0.1c0,0,0.1,0.1,0.1,0.1s0,0.1,0,0.2
		c0,0,0,0.1,0.1,0.2c0,0.1,0.1,0.2,0,0.2c0.1,0.2,0.2,0.3,0.2,0.4c0,0.1,0,0.2,0,0.2c0.1,0.2,0.2,0.3,0.2,0.3c0,0.1,0.1,0.2,0.1,0.4
		c0,0,0,0.1,0,0.1c0,0,0,0.1,0,0.1c0,0.1,0,0.1,0,0.1c0,0.1,0.1,0.1,0.1,0.2c0,0,0,0.1,0,0.1s0,0.1,0,0.1c0,0,0,0.1,0,0.1
		c0,0.1,0,0.1,0.1,0.2c0,0,0,0.1,0,0.2c0,0.1,0,0.1,0,0.2c0,0,0,0.1,0,0.1c0,0.2,0,0.2,0,0.3c0,0,0,0.1,0.1,0.1c0,0,0.1,0.1,0.1,0.1
		c0,0,0,0.1,0.1,0.3c0,0.1,0,0.1,0,0.2c0,0.1,0,0.2,0,0.2c0,0,0.1,0.1,0.1,0.1c0,0.1,0,0.1,0.1,0.1c0,0,0,0.1,0,0.2
		c0,0.1,0,0.1,0,0.2c0,0,0,0.1,0.1,0.1c0,0,0,0.1,0.1,0.1c0,0.1,0,0.1,0,0.3c0,0,0,0.1,0,0.1c0,0.1,0,0.1,0,0.1c0,0,0,0.1,0,0.1
		c0,0,0,0.1,0,0.1c0,0,0,0.1,0,0.1c0,0.1,0,0.1,0,0.1c0,0,0,0-0.1,0.1c0,0,0,0,0,0.1C19,52,19,52,19,52c0.1,0.1,0.1,0.2,0.1,0.2
		c0,0,0,0.1,0,0.1c0,0,0,0.1,0,0.1c0,0,0,0.1,0,0.1c0,0,0,0.1,0.1,0.1c0,0,0,0,0,0.1c0,0,0,0.1,0,0.1c0,0,0,0.1,0.1,0.1
		c0,0.1,0,0.2,0,0.2c0,0,0,0.1,0,0.1c0,0,0,0.1,0,0.1c0,0,0,0.1,0,0.2c0,0.1,0,0.1,0,0.2c0,0,0,0.1,0.1,0.1c0,0,0.1,0.1,0.1,0.1
		c0,0.1,0,0.1,0,0.1c0,0,0,0,0,0.1c0,0,0,0.1,0,0.1c0,0,0,0.1,0,0.2s0,0.2,0,0.2c0,0,0,0.1,0.1,0.1c0,0.1,0,0.1,0,0.1
		c0,0.1,0,0.1,0,0.2c0,0.1,0,0.2,0,0.2c0,0,0.1,0.1,0.1,0.3c0.1,0.2,0.1,0.4,0.1,0.4c0.1,0.1,0.1,0.2,0.1,0.4c0,0.1,0,0.2,0,0.2
		c0,0,0,0,0.1,0.1c0,0,0.1,0,0.1,0.1c0,0,0,0.1,0,0.1c0,0.1,0,0.1,0,0.1c0,0.1,0.2,0,0.4-0.2c0,0,0.1,0,0.1,0c0,0,0.1,0,0.1-0.1
		c0.1-0.1,0.2-0.2,0.2-0.2c0,0,0.2-0.1,0.4-0.2c0,0,0-0.1,0.1-0.1c0.1-0.1,0.1-0.2,0.2-0.2c0-0.1,0.2-0.3,0.5-0.6
		c0-0.1,0-0.2,0.2-0.2c0-0.1,0-0.1,0.1-0.1c0.1-0.1,0.2-0.1,0.2-0.1c0-0.1,0.1-0.2,0.2-0.3s0.2-0.3,0.2-0.4c0.2-0.1,0.3-0.2,0.3-0.2
		c0-0.1,0-0.1,0.1-0.2c0.1-0.1,0.1-0.1,0.1-0.2c0,0,0.1-0.1,0.1-0.1c0,0,0.1-0.1,0.1-0.1c0-0.1,0-0.2,0.2-0.3c0-0.1,0.1-0.1,0.1-0.1
		c0,0,0,0,0,0c0,0,0,0,0-0.1c0,0,0,0,0.1-0.1c0,0,0-0.1,0.1-0.1c0-0.1,0-0.1,0-0.1c0,0,0-0.1,0.1-0.2c0.1-0.1,0.1-0.1,0.2-0.2
		c0-0.1,0.1-0.3,0.2-0.5c0.1-0.2,0.2-0.3,0.2-0.5c0,0,0,0,0.1-0.1c0,0,0.1-0.1,0.1-0.1c0-0.1,0-0.1,0.1-0.2c0-0.1,0.1-0.2,0.1-0.3
		c0.1,0,0.1-0.1,0.1-0.2c0-0.1,0-0.1,0-0.2c0.1-0.1,0.1-0.1,0.1-0.1c0,0,0-0.1,0-0.1c0-0.1,0-0.1,0.1-0.2c0-0.1,0.1-0.1,0.1-0.1
		c0,0,0-0.1,0-0.1c0-0.1,0-0.1,0-0.1c0,0,0-0.1,0.1-0.1c0.1-0.2,0.1-0.3,0-0.4c0,0,0.1-0.1,0.1-0.1c0-0.1-0.1-0.3,0-0.5
		c0,0,0-0.1,0-0.1c0,0,0-0.1,0-0.1c-0.1-0.2-0.1-0.3,0-0.3L25,47.4c0,0,0-0.1,0-0.1c0,0,0-0.1,0-0.1c0,0,0,0-0.1,0c0,0,0-0.1,0-0.1
		c-0.1-0.1-0.1-0.2-0.2-0.2c0,0,0,0-0.1,0c0,0-0.1,0-0.1,0c0,0,0,0,0-0.1s0,0,0,0c0,0,0,0-0.1,0c-0.1-0.1-0.2-0.1-0.2-0.1
		c0-0.1-0.1-0.1-0.1-0.1l-0.1,0c0,0,0,0-0.1-0.1c0,0-0.1-0.1-0.1-0.1h-0.2c0-0.1-0.1-0.1-0.2-0.1c-0.1-0.1-0.1-0.1-0.1-0.1
		c0,0-0.1,0-0.2-0.1c-0.1-0.1-0.2-0.1-0.3-0.1c0,0,0,0-0.1-0.1c0,0-0.1-0.1-0.1-0.1c0,0-0.1,0-0.1,0c0,0-0.1,0-0.1,0
		c-0.1-0.1-0.1-0.1-0.2-0.1c-0.1,0-0.1,0-0.2,0c-0.1-0.1-0.2-0.1-0.2-0.1c0,0,0,0-0.1,0c-0.1,0-0.1,0-0.1,0s0,0-0.1-0.1
		c0,0,0-0.1-0.1-0.1c0,0,0,0-0.1,0c0,0-0.1,0-0.1,0c0,0-0.1-0.1-0.1-0.1C21.3,45.4,21.2,45.5,21.1,45.4
		C21.2,45.5,21.1,45.4,21.1,45.4z"/>
	<path fill="#D93427" d="M30.2,42.7c0.1,0.1,0.1,0.1,0.1,0.1c0-0.1,0.1-0.1,0.2-0.1c0.1,0,0.2,0,0.2,0c0,0,0.1,0,0.1,0
		c0,0,0.1,0,0.1,0c0,0,0.1,0,0.1,0c0.1,0,0.1,0,0.1,0c0.1,0,0.1,0,0.3,0c0.1,0,0.2,0,0.3,0c0,0,0.1,0,0.1,0c0.1,0,0.1,0,0.1,0l0.1,0
		c0,0,0.1,0,0.2-0.1c0.4,0,0.6,0.1,0.6,0.1c0.1,0,0.1,0,0.3,0c0.1,0,0.1,0,0.1,0c0,0,0.1,0,0.2,0c0.1,0,0.2,0,0.2,0
		c0.1,0,0.1,0,0.1,0s0.1,0,0.2,0c0.1,0,0.1,0,0.2,0c0,0,0.1,0,0.1,0c0,0,0.1,0,0.2,0c0,0,0.1,0,0.1,0c0,0,0.1,0,0.2,0
		c0.1,0,0.1,0,0.2,0c0,0,0,0.1,0.1,0.1c0,0,0,0,0.1,0l0.1,0c0.1,0,0.2,0,0.3,0c0.1,0,0.2,0,0.3,0c0,0,0.1,0,0.2,0.1
		c0.1,0,0.2,0,0.2-0.1c0,0,0,0,0.1,0c0,0,0,0,0.1,0c0.1,0,0.3,0,0.5,0.1c0.2,0.1,0.4,0.1,0.6,0c0.1-0.1,0.2-0.1,0.2-0.1
		c0,0,0,0.1,0,0.1c0.1,0.1,0.1,0.1,0.2,0.1c0,0,0.1,0,0.2,0c0.1,0,0.1,0,0.2,0c0,0,0.1,0,0.1,0c0.1,0.1,0.1,0.1,0.2,0
		c0,0.1,0.1,0.1,0.1,0.1c0.1-0.1,0.2,0,0.2,0c0.1-0.1,0.2-0.1,0.3-0.1v0.1c0,0,0.2,0.1,0.5,0.1c0,0.1,0.1,0.1,0.2,0.1
		c0.1,0,0.2,0,0.2,0.1H40c0.4,0.3,0.7,0.5,0.8,0.6h0.1c0,0.1,0.1,0.2,0.2,0.2c0.1,0,0.1,0.1,0.2,0.1c0.1,0.1,0.1,0.1,0.2,0.2
		c0.1,0.1,0.1,0.1,0.2,0.2c0,0.1,0,0.1,0.1,0.2c0,0.1,0.1,0.1,0.1,0.2c0.1,0.1,0.2,0.1,0.2,0.2c0,0.1,0,0.1,0,0.1c0,0,0,0,0.1,0.1
		c0,0.1,0.1,0.1,0.1,0.1c0,0.2,0,0.3,0,0.3c0,0,0,0,0,0.1c0,0,0,0.1,0.1,0.1c0,0,0,0.1,0,0.2c0,0.1,0,0.1,0.1,0.2c0,0,0,0,0.1,0
		c0,0,0.1,0,0.1,0s0,0.1,0,0.1c0,0-0.1,0-0.1,0c0,0.1,0,0.1,0,0.2c0,0.1,0,0.1,0,0.2l0,0.1c0,0.1,0,0.2,0,0.3c0,0.2,0,0.3,0,0.3
		c0,0.1-0.1,0.1-0.1,0.2c0,0.1,0,0.2,0,0.2c-0.1,0.1-0.1,0.1-0.1,0.1c0,0.1,0,0.1-0.1,0.2c0,0.1,0,0.1,0,0.1
		c-0.1,0.1-0.1,0.2-0.1,0.3c0,0-0.1,0.1-0.2,0.2c-0.1,0.1-0.1,0.2-0.2,0.2c0,0,0,0.1,0,0.1c0,0,0,0.1-0.1,0.1c0,0-0.1,0.1-0.1,0.1
		c-0.2,0.1-0.4,0.3-0.4,0.6c0,0,0,0-0.1,0c0,0,0,0-0.1,0c0,0-0.1,0.1-0.1,0.2c-0.3,0.2-0.4,0.4-0.5,0.5c-0.1,0.1-0.2,0.1-0.2,0.2
		c-0.3,0.2-0.5,0.4-0.6,0.5c-0.1,0-0.2,0.1-0.3,0.2c0,0-0.1,0.1-0.2,0.1c-0.1,0.1-0.1,0.1-0.2,0.1c-0.2,0.1-0.2,0.1-0.2,0.2
		c0,0.1,0,0.1,0.1,0.1c0,0,0.1,0.1,0.1,0.1c0,0,0.1,0.1,0.1,0.1c0.1,0,0.1,0,0.1,0.1c0,0,0,0,0.1,0.1c0,0,0,0,0.1,0
		c0.1,0,0.1,0,0.1,0c0,0,0,0,0.1,0.1c0.1,0,0.1,0.1,0.1,0.1c0,0,0,0,0.1,0c0,0,0,0.1,0,0.1H40c0.1,0.1,0.2,0.1,0.2,0.1
		c0,0.1,0.1,0.1,0.2,0.2c0.1,0.1,0.2,0.1,0.2,0.2h0.1c0,0,0,0,0.1,0.1c0,0,0,0.1,0.1,0.1h0.2c0,0,0.1,0.1,0.1,0.1
		c0.1,0.1,0.2,0.2,0.3,0.2c0,0.1,0.2,0.1,0.3,0.1c0.1,0.2,0.3,0.2,0.4,0.2c0,0,0.1,0.1,0.1,0.2c0.2,0.1,0.4,0.2,0.6,0.4h0.1
		c0.2,0.2,0.3,0.2,0.4,0.3c0,0.1,0.1,0.1,0.2,0.1c0.1,0,0.2,0.1,0.2,0.2c0.1,0,0.1,0,0.2,0.1c0.1,0.1,0.1,0.1,0.2,0.1
		c0.1,0.1,0.2,0.2,0.4,0.4c0.2,0.1,0.4,0.3,0.4,0.4H45c0,0,0.1,0,0.1,0.1c0.1,0.1,0.1,0.1,0.1,0.1c0,0,0.1,0,0.1,0c0,0,0,0,0.1,0
		c0,0.1,0.1,0.2,0.3,0.3c0.1,0.1,0.2,0.1,0.2,0c0.1,0,0.2,0,0.2,0c0.1,0.1,0.2,0.1,0.3,0.1c0-0.1,0.1-0.1,0.1-0.1c0,0,0,0,0.1,0.1
		c0.2,0,0.3,0,0.3,0.1c0.1,0.1,0.1,0.2,0.1,0.2c0,0,0,0.1,0.1,0.1c0,0,0.1,0,0.1,0c0,0,0.1,0.1,0.1,0.2c0,0.1,0.1,0.2,0.1,0.2v0.2
		c0,0,0,0.1,0,0.1c0,0,0,0.1,0,0.1c0,0,0.1,0.1,0.2,0.1c0.1,0.1,0.1,0.1,0.1,0.1c0,0,0,0.1,0,0.2c0,0.2,0.1,0.3,0,0.3
		c0,0,0,0.1,0.1,0.2c0,0.1,0,0.2,0,0.3c0,0.2,0,0.3,0,0.3h-0.3c0,0-0.1,0.1-0.1,0.1c0,0.1-0.1,0.1-0.1,0.1c0,0,0,0-0.1,0.1
		c0,0-0.1,0-0.1,0.1c0.1,0.1,0.1,0.1,0.1,0.1c0,0-0.1,0-0.1,0.1c-0.1,0-0.1,0-0.1,0.1c0,0,0,0,0,0.1c0,0,0,0,0,0.1
		c-0.1,0.1-0.1,0.1-0.2,0c-0.1-0.1-0.1-0.1-0.1-0.1s-0.1,0-0.2,0.1c-0.1,0.1-0.2,0.1-0.2,0.1c-0.1-0.2-0.2-0.3-0.3-0.3
		c0,0,0,0-0.1,0c0,0-0.1,0-0.1,0c0-0.1,0-0.2-0.1-0.2c0,0,0,0-0.1,0c0,0,0,0,0,0c0,0,0,0,0-0.1c0-0.1-0.1-0.1-0.2-0.2
		c0,0-0.1,0-0.1,0c0,0-0.1,0-0.1,0c-0.1-0.2-0.2-0.3-0.3-0.4h-0.1c-0.1,0-0.1-0.1-0.2-0.2c-0.1-0.1-0.3-0.2-0.4-0.2
		c0,0-0.1-0.1-0.1-0.1c-0.1-0.1-0.1-0.1-0.1-0.1c-0.1,0.1-0.1,0.1-0.1,0.1c0,0,0,0-0.1-0.1c0-0.1,0-0.1-0.1-0.1c0,0-0.1,0-0.1-0.1
		c-0.1,0-0.1-0.1-0.1-0.1c0-0.1-0.1-0.2-0.2-0.1c0-0.1,0-0.1,0-0.1c-0.2-0.1-0.2-0.2-0.3-0.3c0,0-0.2-0.1-0.5-0.3c0,0,0,0-0.1,0
		c0,0,0,0-0.1,0c0-0.1-0.1-0.1-0.2-0.3c-0.1,0-0.2-0.1-0.4-0.2c0,0-0.1,0-0.1,0c0,0-0.1,0-0.1,0c0,0,0,0,0-0.1c0,0,0-0.1,0-0.1
		c0,0-0.1,0-0.1,0c0,0,0,0-0.1,0c-0.1,0-0.1,0-0.2-0.2c0,0-0.1-0.1-0.1-0.1c0,0,0-0.1-0.1-0.1c-0.1,0-0.1-0.1-0.1-0.1
		c-0.1,0-0.2-0.1-0.3-0.2c-0.1-0.1-0.2-0.1-0.3-0.2c0,0-0.1,0-0.1,0c0-0.1-0.1-0.1-0.2-0.2c0-0.1-0.1-0.1-0.3-0.2c0,0,0,0-0.1,0
		c0,0,0,0-0.1-0.1c0,0,0,0-0.1,0c0,0,0,0-0.1,0c0,0,0,0-0.1-0.1c0,0-0.1,0-0.1,0c-0.1,0-0.2,0-0.2,0c0,0-0.1,0-0.1-0.1
		c-0.1-0.1-0.1-0.1-0.2-0.1c-0.1,0.1-0.1,0.1-0.1,0c0,0,0,0,0-0.1c0,0,0-0.1,0-0.1c0,0,0,0-0.1,0c0,0-0.1,0-0.1,0c0,0,0-0.1-0.1-0.1
		c0,0,0-0.1-0.1-0.1h-0.2l-0.1-0.1c0,0-0.1,0-0.2-0.1c-0.1-0.1-0.1-0.1-0.2,0c0,0-0.1-0.1-0.2-0.1c-0.1,0-0.1-0.1-0.2-0.1
		c-0.1,0-0.2,0-0.3-0.1c-0.1,0-0.2,0-0.3-0.2c0,0-0.1,0-0.3,0.1c0,0,0,0,0,0c0,0,0,0,0-0.1c0,0-0.1,0-0.2,0c0,0,0,0,0-0.1
		c0,0,0,0,0-0.1c-0.2-0.2-0.4-0.2-0.5-0.2c-0.1-0.1-0.2-0.2-0.3-0.2c0,0-0.1,0-0.2-0.1c0,0-0.1,0-0.1-0.1c0,0-0.1,0.1-0.1,0.2
		c0,0.2,0,0.3,0,0.3c0,0,0,0.1,0.1,0.1c0,0,0,0,0,0.1c0,0,0,0,0,0.1c0,0.1,0,0.1,0,0.1c0,0.3,0,0.5,0.1,0.6l0,0.3v0.1
		c0,0,0,0.1,0.1,0.2c0,0.1,0,0.1,0,0.2c0,0.1,0,0.1,0,0.1c0,0,0.1,0.1,0.1,0.1c0,0.1,0,0.1,0.1,0.1c0,0.1,0,0.1,0,0.3s0,0.2,0,0.3
		c0,0,0,0,0.1,0.1c0,0,0.1,0,0.1,0.1c0,0.2,0,0.3,0,0.4c0,0.1,0,0.2,0.1,0.3c0,0,0,0.1,0,0.2c0,0.1,0,0.2,0,0.3c0,0,0.1,0,0.1,0
		c0,0,0.1,0.1,0.1,0.1c0,0.1,0,0.1-0.1,0.2c0,0,0,0.1,0,0.1s0,0.1,0,0.3c0,0.1,0,0.2,0,0.5c0,0.3,0,0.4,0,0.4c0,0,0,0.1,0,0.1
		c0,0,0,0-0.1,0c0,0,0,0-0.1,0.1c0,0.1-0.1,0.1-0.1,0.2c0,0.1-0.1,0.1-0.1,0.2c-0.1,0-0.1,0-0.2,0c-0.2,0.1-0.3,0.2-0.3,0.3
		c0,0,0,0-0.1,0s0,0-0.1,0c0,0,0,0,0,0.1c0,0,0,0-0.1,0c0,0,0,0-0.1-0.1c0,0-0.1,0-0.2,0c-0.1,0.1-0.1,0.1-0.2,0.1
		c0-0.1,0-0.2-0.1-0.2c-0.2,0-0.3-0.1-0.4-0.3c0,0-0.1,0-0.1,0c0,0-0.1,0-0.1,0c0.1-0.1,0-0.2-0.2-0.3c-0.2-0.1-0.2-0.1-0.2-0.2
		c0,0,0,0-0.1,0c0,0,0,0-0.1,0c-0.1-0.1,0-0.2,0.1-0.2c0-0.1,0-0.1,0-0.2c0,0,0-0.1,0-0.1c0,0,0-0.1,0-0.1c0,0,0-0.1-0.1-0.1
		c0,0-0.1,0-0.1,0c0,0,0-0.1,0.1-0.1c0.1-0.2,0.1-0.4,0-0.4v-0.4c0-0.1,0.1-0.1,0.1-0.3s0-0.2-0.1-0.2c0-0.1,0-0.2,0-0.3
		c0-0.1,0-0.2,0-0.3s0-0.1-0.1-0.1c0-0.1,0-0.2,0-0.3c0-0.2,0-0.3-0.1-0.3c0-0.1,0-0.1,0-0.2c0-0.1,0-0.2,0-0.2c0,0,0-0.1-0.1-0.1
		c0-0.1-0.1-0.1-0.1-0.1c0-0.1,0-0.1,0-0.3c0-0.1,0-0.2,0-0.3c0,0-0.1-0.1-0.1-0.2c0-0.1,0-0.1-0.1-0.2c0,0,0-0.2,0-0.3
		c0-0.2,0-0.2,0-0.2c0-0.1,0-0.2-0.1-0.2c0,0,0-0.2,0-0.4c0,0,0-0.1,0-0.1c0,0,0-0.1,0-0.1c0,0,0-0.1,0-0.1c0-0.1,0-0.1,0-0.1
		c0,0,0,0-0.1-0.1c0,0,0,0-0.1,0c0-0.1,0-0.2,0-0.3c0-0.1,0-0.2,0-0.3c0,0,0-0.1-0.1-0.2c0-0.1,0-0.1,0-0.2c0-0.1,0-0.2,0-0.2
		c0,0,0-0.1,0-0.2c0-0.1,0-0.1,0-0.1c0,0,0-0.1,0-0.1c0,0,0-0.1,0-0.1c0,0,0-0.1,0-0.1c0,0,0-0.1,0-0.1c0,0,0,0,0-0.1
		c0-0.1-0.1-0.1-0.2-0.1c0,0,0-0.1,0-0.1c0,0,0,0,0.1,0c0,0,0,0,0.1,0l0-0.2c0,0,0-0.2,0-0.3c0-0.2,0-0.3,0-0.4c0,0-0.1-0.1-0.1-0.1
		c0,0,0-0.1,0-0.1c0,0,0-0.1,0-0.1c0,0,0-0.1,0-0.1c0,0,0,0,0-0.1c0-0.2-0.1-0.2-0.1-0.2l0-0.1c0,0,0-0.1,0-0.3c0,0,0-0.1-0.1-0.2
		c0-0.1,0-0.2,0-0.2c0,0,0,0,0-0.1c0,0,0-0.1,0-0.1c0,0,0-0.1,0-0.1c0,0,0-0.1,0-0.1c0,0,0-0.1,0-0.1c0-0.1,0-0.2,0-0.3
		c0-0.1-0.1-0.2-0.1-0.3c0-0.1,0-0.2-0.1-0.3l0,0c0,0-0.1,0-0.1,0c0,0,0-0.1,0-0.1l0,0c0-0.1,0-0.1,0-0.3c0-0.1,0-0.2,0-0.2
		c0,0,0-0.1,0-0.1c0-0.2,0-0.2,0-0.3c0,0,0,0-0.1,0c0,0,0,0,0,0c0,0,0,0,0-0.1c0,0,0,0,0-0.1c0,0,0-0.1,0-0.2c0-0.1,0-0.2,0-0.2
		c0,0,0,0,0-0.1c0,0,0,0,0-0.1c0,0,0-0.1-0.1-0.2c0-0.1,0-0.1,0-0.2c-0.1,0-0.2,0-0.4-0.1c-0.1,0-0.2,0-0.3,0l-0.2-0.2
		c0-0.1-0.1-0.1-0.3-0.2c0,0-0.1-0.1-0.1-0.2c0-0.1-0.1-0.2-0.1-0.2c-0.1-0.1-0.2-0.2-0.3-0.2c0-0.1-0.1-0.2-0.1-0.3
		c0-0.1,0-0.2,0-0.3c0-0.1,0-0.2,0-0.3c0-0.1,0-0.1,0.1-0.2c0.1-0.1,0.1-0.2,0.1-0.3c0-0.1,0.1-0.1,0.1-0.1c0,0,0,0,0-0.1
		c0,0,0,0,0,0c0,0,0.1,0,0.2,0C30.1,42.8,30.2,42.8,30.2,42.7z M29.9,42.8c0.2,0,0.3-0.1,0.3-0.2c0.1,0.1,0.1,0.1,0.1,0.1
		c0-0.1,0.1-0.1,0.2-0.1c0.1,0,0.2,0,0.2,0c0,0,0.1,0,0.1,0c0,0,0.1,0,0.1,0c0,0,0.1,0,0.1,0c0.1,0,0.1,0,0.1,0c0.1,0,0.1,0,0.3,0
		c0.1,0,0.2,0,0.3,0c0,0,0.1,0,0.1,0c0.1,0,0.1,0,0.1,0l0.1,0c0,0,0.1,0,0.2-0.1c0.4,0,0.6,0.1,0.6,0.1c0.1,0,0.2,0,0.3,0
		c0.1,0,0.1,0,0.1,0c0,0,0.1,0,0.2,0c0.1,0,0.2,0,0.2,0c0.1,0,0.1,0,0.1,0s0.1,0,0.2,0c0.1,0,0.1,0,0.2,0c0,0,0.1,0,0.1,0.1
		c0,0,0.1,0,0.2,0c0,0,0.1,0,0.1,0c0,0,0.1,0,0.2,0c0.1,0,0.1,0,0.2,0c0,0,0,0.1,0.1,0.1c0,0,0,0,0.1,0l0.1,0c0.1,0,0.2,0,0.3,0
		c0.1,0,0.2,0,0.3,0c0,0,0.1,0,0.2,0.1c0.1,0,0.2,0,0.2-0.1c0,0,0,0,0.1,0c0,0,0,0,0.1,0c0.1,0,0.3,0,0.5,0.1c0.2,0.1,0.4,0.1,0.6,0
		c0.1-0.1,0.2-0.1,0.2-0.1c0,0,0,0.1,0,0.1c0.1,0.1,0.1,0.1,0.2,0.1c0,0,0.1,0,0.2,0c0.1,0,0.1,0,0.2,0c0,0,0.1,0,0.1,0
		c0.1,0.1,0.1,0.1,0.2,0c0,0.1,0.1,0.1,0.1,0.1c0.1-0.1,0.2,0,0.2,0c0.1-0.1,0.2-0.1,0.3-0.1v0.1c0,0,0.2,0.1,0.5,0.1
		c0,0.1,0.1,0.1,0.2,0.1c0.1,0,0.2,0,0.2,0.1H40c0.4,0.3,0.7,0.5,0.8,0.6h0.1c0,0.1,0.1,0.2,0.2,0.2c0.1,0,0.1,0.1,0.2,0.1
		c0.1,0.1,0.1,0.1,0.2,0.2c0.1,0.1,0.1,0.1,0.2,0.2c0,0.1,0,0.1,0.1,0.2c0,0.1,0.1,0.1,0.1,0.2c0.1,0.1,0.2,0.1,0.2,0.2
		c0,0.1,0,0.1,0,0.1c0,0,0,0,0.1,0.1c0,0.1,0.1,0.1,0.1,0.1c0,0.2,0,0.3,0,0.3c0,0,0,0,0,0.1c0,0,0,0.1,0.1,0.1c0,0,0,0.1,0,0.2
		c0,0.1,0,0.1,0.1,0.2c0,0,0,0,0.1,0c0,0,0.1,0,0.1,0s0,0.1,0,0.1c0,0-0.1,0-0.1,0c0,0.1,0,0.1,0,0.2c0,0.1,0,0.1,0,0.2l0,0.1
		c0,0.1,0,0.2,0,0.3c0,0.2,0,0.3,0,0.3c0,0.1-0.1,0.1-0.1,0.2c0,0.1,0,0.2,0,0.2c-0.1,0.1-0.1,0.1-0.1,0.1c0,0.1,0,0.1-0.1,0.2
		c0,0.1,0,0.1,0,0.1c-0.1,0.1-0.1,0.2-0.1,0.3c0,0-0.1,0.1-0.2,0.2c-0.1,0.1-0.1,0.2-0.2,0.2c0,0,0,0.1,0,0.1c0,0,0,0.1-0.1,0.1
		c0,0-0.1,0.1-0.1,0.1c-0.2,0.1-0.4,0.3-0.4,0.6c0,0,0,0-0.1,0c0,0,0,0-0.1,0c0,0-0.1,0.1-0.1,0.2c-0.3,0.2-0.4,0.4-0.5,0.5
		c-0.1,0.1-0.2,0.1-0.2,0.2c-0.3,0.2-0.5,0.4-0.6,0.5c-0.1,0-0.2,0.1-0.3,0.2c0,0-0.1,0.1-0.2,0.1c-0.1,0.1-0.1,0.1-0.2,0.1
		c-0.2,0.1-0.2,0.1-0.2,0.2c0,0.1,0,0.1,0.1,0.1c0,0,0.1,0.1,0.1,0.1c0,0,0.1,0.1,0.1,0.1c0.1,0,0.1,0,0.1,0.1c0,0,0,0,0.1,0.1
		c0,0,0,0,0.1,0c0.1,0,0.1,0,0.1,0c0,0,0,0,0.1,0.1c0.1,0,0.1,0.1,0.1,0.1c0,0,0,0,0.1,0c0,0,0,0.1,0,0.1H40
		c0.1,0.1,0.2,0.1,0.2,0.1c0,0.1,0.1,0.1,0.2,0.2c0.1,0.1,0.2,0.1,0.2,0.2h0.1c0,0,0,0,0.1,0.1c0,0,0,0.1,0.1,0.1h0.2
		c0,0,0.1,0.1,0.1,0.1c0.1,0.1,0.2,0.2,0.3,0.2c0,0.1,0.2,0.1,0.3,0.1c0.1,0.2,0.3,0.2,0.4,0.2c0,0,0.1,0.1,0.1,0.2
		c0.2,0.1,0.4,0.2,0.6,0.4h0.1c0.2,0.2,0.3,0.2,0.4,0.3c0,0.1,0.1,0.1,0.2,0.1c0.1,0,0.2,0.1,0.2,0.2c0.1,0,0.1,0,0.2,0.1
		c0.1,0.1,0.1,0.1,0.2,0.1c0.1,0.1,0.2,0.2,0.4,0.4c0.2,0.1,0.4,0.3,0.4,0.4H45c0.2,0.1,0.2,0.2,0.3,0.2c0,0,0.1,0,0.1,0
		c0,0,0,0,0.1,0c0,0.1,0.1,0.2,0.3,0.3c0.1,0.1,0.2,0.1,0.2,0c0.1,0,0.2,0,0.2,0c0.1,0.1,0.2,0.1,0.3,0.1c0-0.1,0.1-0.1,0.1-0.1
		c0,0,0,0,0.1,0.1c0.2,0,0.3,0,0.3,0.1c0.1,0.1,0.1,0.2,0.1,0.2c0,0,0,0.1,0.1,0.1c0,0,0.1,0,0.1,0c0,0,0.1,0.1,0.1,0.2
		c0,0.1,0.1,0.2,0.1,0.2v0.2c0,0,0,0.1,0,0.1c0,0,0,0.1,0,0.1c0,0,0.1,0.1,0.2,0.1c0.1,0.1,0.1,0.1,0.1,0.1c0,0,0,0.1,0,0.2
		c0,0.2,0.1,0.3,0,0.3c0,0,0,0.1,0.1,0.2c0,0.1,0,0.2,0,0.3c0,0.2,0,0.3,0,0.3h-0.3c0,0-0.1,0.1-0.1,0.1c0,0.1-0.1,0.1-0.1,0.1
		c0,0,0,0-0.1,0.1c0,0-0.1,0-0.1,0.1c0.1,0.1,0.1,0.1,0.1,0.1c0,0-0.1,0-0.1,0.1c-0.1,0-0.1,0-0.1,0.1c0,0,0,0,0,0.1c0,0,0,0,0,0.1
		c-0.1,0.1-0.1,0.1-0.2,0c-0.1-0.1-0.1-0.1-0.1-0.1s-0.1,0-0.2,0.1c-0.1,0.1-0.2,0.1-0.2,0.1c-0.1-0.2-0.2-0.3-0.3-0.3
		c0,0,0,0-0.1,0c0,0-0.1,0-0.1,0c0-0.1,0-0.2-0.1-0.2c0,0,0,0-0.1,0c0,0,0,0,0,0c0,0,0,0,0-0.1c0-0.1-0.1-0.1-0.2-0.2
		c0,0-0.1,0-0.1,0c0,0-0.1,0-0.1,0c-0.1-0.2-0.2-0.3-0.3-0.4h-0.1c-0.1,0-0.1-0.1-0.2-0.2c-0.1-0.1-0.3-0.2-0.4-0.2
		c0,0-0.1-0.1-0.1-0.1c-0.1-0.1-0.1-0.1-0.1-0.1c-0.1,0.1-0.1,0.1-0.1,0.1c0,0,0,0-0.1-0.1c0-0.1,0-0.1-0.1-0.1c0,0-0.1,0-0.1-0.1
		c-0.1,0-0.1-0.1-0.1-0.1c0-0.1-0.1-0.2-0.2-0.1c0-0.1,0-0.1,0-0.1c-0.2-0.1-0.2-0.2-0.3-0.3c0,0-0.2-0.1-0.5-0.3c0,0,0,0-0.1,0
		c0,0,0,0-0.1,0c0-0.1-0.1-0.1-0.2-0.3c-0.1,0-0.2-0.1-0.4-0.2c0,0-0.1,0-0.1,0c0,0-0.1,0-0.1,0c0,0,0,0,0-0.1c0,0,0-0.1,0-0.1
		c0,0-0.1,0-0.1,0c0,0,0,0-0.1,0c-0.1,0-0.1,0-0.2-0.2c0,0-0.1-0.1-0.1-0.1c0,0,0-0.1-0.1-0.1c-0.1,0-0.1-0.1-0.1-0.1
		c-0.1,0-0.2-0.1-0.3-0.2c-0.1-0.1-0.2-0.1-0.3-0.2c0,0-0.1,0-0.1,0c0-0.1-0.1-0.1-0.2-0.2c0-0.1-0.1-0.1-0.3-0.2c0,0,0,0-0.1,0
		c0,0,0,0-0.1-0.1c0,0,0,0-0.1,0c0,0,0,0-0.1,0c0,0,0,0-0.1-0.1c0,0-0.1,0-0.1,0c-0.1,0-0.2,0-0.2,0c0,0-0.1,0-0.1-0.1
		c-0.1-0.1-0.1-0.1-0.2-0.1c-0.1,0.1-0.1,0.1-0.1,0c0,0,0,0,0-0.1c0,0,0-0.1,0-0.1c0,0,0,0-0.1,0c0,0-0.1,0-0.1,0c0,0,0-0.1-0.1-0.1
		c0,0,0-0.1-0.1-0.1h-0.2l-0.1-0.1c0,0-0.1,0-0.2-0.1c-0.1-0.1-0.1-0.1-0.2,0c0,0-0.1-0.1-0.2-0.1c-0.1,0-0.1-0.1-0.2-0.1
		c-0.1,0-0.2,0-0.3-0.1c-0.1,0-0.2,0-0.3-0.2c0,0-0.1,0-0.3,0.1c0,0,0,0,0,0c0,0,0,0,0-0.1c0,0-0.1,0-0.2,0c0,0,0,0,0-0.1
		c0,0,0,0,0-0.1c-0.2-0.2-0.4-0.2-0.5-0.2c-0.1-0.1-0.2-0.2-0.3-0.2c0,0-0.1,0-0.2-0.1c0,0-0.1,0-0.1-0.1c0,0-0.1,0.1-0.1,0.2
		c0,0.2,0,0.3,0,0.3c0,0,0,0.1,0.1,0.1c0,0,0,0,0,0.1c0,0,0,0,0,0.1c0,0.1,0,0.1,0,0.1c0,0.3,0,0.5,0.1,0.6l0,0.3v0.1
		c0,0,0,0.1,0.1,0.2c0,0.1,0,0.1,0,0.2c0,0.1,0,0.1,0,0.1c0,0,0.1,0.1,0.1,0.1c0,0.1,0,0.1,0.1,0.1c0,0.1,0,0.1,0,0.3s0,0.2,0,0.3
		c0,0,0,0,0.1,0.1c0,0,0.1,0,0.1,0.1c0,0.2,0,0.3,0,0.4c0,0.1,0,0.2,0.1,0.3c0,0,0,0.1,0,0.2c0,0.1,0,0.2,0,0.3c0,0,0.1,0,0.1,0
		c0,0,0.1,0.1,0.1,0.1c0,0.1,0,0.1-0.1,0.2c0,0,0,0.1,0,0.1s0,0.1,0,0.3c0,0.1,0,0.2,0,0.5c0,0.3,0,0.4,0,0.4c0,0,0,0.1,0,0.1
		c0,0,0,0-0.1,0c0,0,0,0-0.1,0.1c0,0.1-0.1,0.1-0.1,0.2c0,0.1-0.1,0.1-0.1,0.2c-0.1,0-0.1,0-0.2,0c-0.2,0.1-0.3,0.2-0.3,0.3
		c0,0,0,0-0.1,0s0,0-0.1,0c0,0,0,0,0,0.1c0,0,0,0-0.1,0c0,0,0,0-0.1-0.1c0,0-0.1,0-0.2,0c-0.1,0.1-0.1,0.1-0.2,0.1
		c0-0.1,0-0.2-0.1-0.2c-0.2,0-0.3-0.1-0.4-0.3c0,0-0.1,0-0.1,0c0,0-0.1,0-0.1,0c0.1-0.1,0-0.2-0.2-0.3c-0.2-0.1-0.2-0.1-0.2-0.2
		c0,0,0,0-0.1,0c0,0,0,0-0.1,0c-0.1-0.1,0-0.2,0.1-0.2c0-0.1,0-0.1,0-0.2c0,0,0-0.1,0-0.1c0,0,0-0.1,0-0.1c0,0,0-0.1-0.1-0.1
		c0,0-0.1,0-0.1,0c0,0,0-0.1,0.1-0.1c0.1-0.2,0.1-0.4,0-0.4v-0.4c0-0.1,0.1-0.1,0.1-0.3s0-0.2-0.1-0.2c0-0.1,0-0.2,0-0.3
		c0-0.1,0-0.2,0-0.3s0-0.1-0.1-0.1c0-0.1,0-0.2,0-0.3c0-0.2,0-0.3-0.1-0.3c0-0.1,0-0.1,0-0.2c0-0.1,0-0.2,0-0.2c0,0,0-0.1-0.1-0.1
		c0-0.1-0.1-0.1-0.1-0.1c0-0.1,0-0.1,0-0.3c0-0.1,0-0.2,0-0.3c0,0-0.1-0.1-0.1-0.2c0-0.1,0-0.1-0.1-0.2c0,0,0-0.2,0-0.3
		c0-0.2,0-0.2,0-0.2c0-0.1,0-0.2-0.1-0.2c0,0,0-0.2,0-0.4c0,0,0-0.1,0-0.1c0,0,0-0.1,0-0.1c0,0,0-0.1,0-0.1c0-0.1,0-0.1,0-0.1
		c0,0,0,0-0.1-0.1c0,0,0,0-0.1,0c0-0.1,0-0.2,0-0.3c0-0.1,0-0.2,0-0.3c0,0,0-0.1-0.1-0.2c0-0.1,0-0.1,0-0.2c0-0.1,0-0.2,0-0.2
		c0,0,0-0.1,0-0.2c0-0.1,0-0.1,0-0.1c0,0,0-0.1,0-0.1c0,0,0-0.1,0-0.1c0,0,0-0.1,0-0.1c0,0,0-0.1,0-0.1c0,0,0,0,0-0.1
		c0-0.1-0.1-0.1-0.2-0.1c0,0,0-0.1,0-0.1c0,0,0,0,0.1,0c0,0,0,0,0.1,0l0-0.2c0,0,0-0.2,0-0.3c0-0.2,0-0.3,0-0.4c0,0-0.1-0.1-0.1-0.1
		c0,0,0-0.1,0-0.1c0,0,0-0.1,0-0.1c0,0,0-0.1,0-0.1c0,0,0,0,0-0.1c0-0.2-0.1-0.2-0.1-0.2l0-0.1c0,0,0-0.1,0-0.3c0,0,0-0.1-0.1-0.2
		c0-0.1,0-0.2,0-0.2c0,0,0,0,0-0.1c0,0,0-0.1,0-0.1c0,0,0-0.1,0-0.1c0,0,0-0.1,0-0.1c0,0,0-0.1,0-0.1c0-0.1,0-0.2,0-0.3
		c0-0.1-0.1-0.2-0.1-0.3c0-0.1,0-0.2-0.1-0.3l0,0c0,0-0.1,0-0.1,0c0,0,0-0.1,0-0.1l0,0c0-0.1,0-0.1,0-0.3c0-0.1,0-0.2,0-0.2
		c0,0,0-0.1,0-0.1c0-0.2,0-0.2,0-0.3c0,0,0,0-0.1,0c0,0,0,0,0,0c0,0,0,0,0-0.1c0,0,0,0,0-0.1c0,0,0-0.1,0-0.2c0-0.1,0-0.2,0-0.2
		c0,0,0,0,0-0.1c0,0,0,0,0-0.1c0,0,0-0.1-0.1-0.2c0-0.1,0-0.1,0-0.2c-0.1,0-0.2,0-0.4-0.1c-0.1,0-0.2,0-0.3,0l-0.2-0.2
		c0-0.1-0.1-0.1-0.3-0.2c0,0-0.1-0.1-0.1-0.2c0-0.1-0.1-0.2-0.1-0.2c-0.1-0.1-0.2-0.2-0.3-0.2c0-0.1-0.1-0.2-0.1-0.3
		c0-0.1,0-0.2,0-0.3c0-0.1,0-0.2,0-0.3c0-0.1,0-0.1,0.1-0.2c0.1-0.1,0.1-0.2,0.1-0.3c0-0.1,0.1-0.1,0.1-0.1c0,0,0,0,0-0.1
		c0,0,0,0,0,0C29.7,42.8,29.7,42.8,29.9,42.8z M33.8,45.6c0,0,0,0.1,0,0.3c0,0,0,0.1,0,0.1s0,0.1,0,0.1c0,0.1,0,0.1,0.1,0.2
		c0.1,0.1,0.1,0.1,0.1,0.2c0,0,0,0.1,0,0.1c0,0,0,0.1,0,0.1c0,0.1,0,0.1,0,0.3c0,0.1,0,0.2,0,0.3c0.1,0.1,0.1,0.2,0.1,0.3
		c0,0.1,0,0.1,0,0.2c0,0,0,0.1,0.1,0.1c0,0.1,0.1,0.1,0.1,0.2c0,0,0,0.1,0,0.2c0,0.1,0,0.1,0,0.2c0,0.2,0,0.2,0,0.3c0,0,0,0.1,0,0.1
		c0,0,0,0.1,0,0.1c0,0,0,0.1,0,0.2c0,0.1,0,0.1,0,0.2c0,0.1,0,0.1,0,0.1c0,0,0,0.1,0.1,0.1c0,0,0,0.1,0,0.1c0,0.1,0,0.1,0,0.2
		c0,0.1,0,0.2,0,0.2c0,0,0,0.1,0,0.1c0,0,0,0,0.1,0c0,0.1,0,0.1,0,0.3c0,0.1,0,0.2,0.1,0.3c-0.1,0.1-0.1,0.2,0,0.3
		c0,0.1,0,0.1,0.1,0.2c0,0,0.1,0,0.2,0c0.1,0,0.2,0,0.2,0c0,0,0,0,0-0.1c0,0,0,0,0.1,0s0.1,0,0.1,0c0,0,0.1,0,0.1,0s0.1,0,0.1,0
		c0.2,0,0.3-0.1,0.3-0.1c0,0,0.1,0,0.1,0c0-0.1,0.2-0.1,0.3-0.1c0.1,0,0.1,0,0.2,0c0.1,0,0.2-0.1,0.2-0.1c0-0.1,0.1-0.1,0.1-0.1
		c0,0,0,0,0.1,0c0.1,0,0.2-0.1,0.2-0.2c0.1-0.1,0.1-0.1,0.2-0.2c0.1,0,0.2-0.1,0.4-0.2c0.1-0.1,0.2-0.2,0.4-0.2
		c0.2-0.2,0.4-0.4,0.5-0.4c0-0.1,0.1-0.2,0.2-0.2c0.1-0.1,0.1-0.1,0.2-0.2c0.1-0.1,0.2-0.2,0.3-0.4c0.1-0.2,0.2-0.4,0.2-0.4
		c0-0.1,0-0.2,0.1-0.3c0.1-0.1,0.1-0.2,0.1-0.3c0.2-0.2,0.2-0.4,0.1-0.5c0,0,0-0.1,0-0.3c0-0.1-0.1-0.1-0.2-0.2
		c-0.1-0.1-0.2-0.1-0.2-0.2c0,0-0.1,0-0.2-0.1c-0.1,0-0.1,0-0.2,0c0-0.1-0.1-0.1-0.3-0.1c-0.1,0-0.1,0-0.2,0s-0.1,0-0.1-0.1
		c0,0-0.1-0.1-0.1-0.1c0,0-0.1,0-0.1,0c0,0-0.1,0-0.1,0c0,0-0.1,0-0.1-0.1c0-0.1-0.1-0.1-0.2,0c-0.1,0-0.2,0-0.2,0
		c-0.2-0.1-0.3-0.1-0.3,0c0-0.1-0.2-0.1-0.5-0.1c-0.1,0-0.2,0-0.2,0c-0.2,0-0.2,0-0.3,0s0,0-0.1,0c0,0-0.1,0-0.1-0.1
		c-0.2,0-0.3,0-0.3,0l-0.1,0c0,0-0.2,0-0.5,0c0,0-0.1,0-0.1-0.1c0,0-0.1-0.1-0.1-0.1c-0.1,0-0.3,0-0.4,0c-0.1,0-0.1,0-0.2-0.1
		c-0.1,0-0.2,0-0.3,0C34,45.6,33.9,45.6,33.8,45.6z M34.7,45.6c-0.1,0-0.1,0-0.2-0.1c-0.1,0-0.2,0-0.3,0c-0.1,0-0.2,0-0.3,0
		c0,0,0,0.1,0,0.3c0,0,0,0.1,0,0.1s0,0.1,0,0.1c0,0.1,0,0.1,0.1,0.2c0.1,0.1,0.1,0.1,0.1,0.2c0,0,0,0.1,0,0.1c0,0,0,0.1,0,0.1
		c0,0.1,0,0.1,0,0.3c0,0.1,0,0.2,0,0.3c0.1,0.1,0.1,0.2,0.1,0.3c0,0.1,0,0.1,0,0.2c0,0,0,0.1,0.1,0.1c0,0.1,0.1,0.1,0.1,0.2
		c0,0,0,0.1,0,0.2c0,0.1,0,0.1,0,0.2c0,0.2,0,0.2,0,0.3c0,0,0,0.1,0,0.1c0,0,0,0.1,0,0.1c0,0,0,0.1,0,0.2c0,0.1,0,0.1,0,0.2
		c0,0.1,0,0.1,0,0.1c0,0,0,0.1,0.1,0.1c0,0,0,0.1,0,0.1c0,0.1,0,0.1,0,0.2c0,0.1,0,0.2,0,0.2c0,0,0,0.1,0,0.1c0,0,0,0,0.1,0
		c0,0.1,0,0.1,0,0.3c0,0.1,0,0.2,0.1,0.3c-0.1,0.1-0.1,0.2,0,0.3c0,0.1,0,0.1,0.1,0.2c0,0,0.1,0,0.2,0c0.1,0,0.2,0,0.2,0
		c0,0,0,0,0-0.1c0,0,0,0,0.1,0s0.1,0,0.1,0c0,0,0.1,0,0.1,0s0.1,0,0.1,0c0.2,0,0.3-0.1,0.3-0.1c0,0,0.1,0,0.1,0
		c0-0.1,0.2-0.1,0.3-0.1c0.1,0,0.1,0,0.2,0c0.1,0,0.2-0.1,0.2-0.1c0-0.1,0.1-0.1,0.1-0.1c0,0,0,0,0.1,0c0.1,0,0.2-0.1,0.2-0.2
		c0.1-0.1,0.1-0.1,0.2-0.2c0.1,0,0.2-0.1,0.4-0.2c0.1-0.1,0.2-0.2,0.4-0.2c0.2-0.2,0.4-0.4,0.5-0.4c0-0.1,0.1-0.2,0.2-0.2
		c0.1-0.1,0.1-0.1,0.2-0.2c0.1-0.1,0.2-0.2,0.3-0.4c0.1-0.2,0.2-0.4,0.2-0.4c0-0.1,0-0.2,0.1-0.3c0.1-0.1,0.1-0.2,0.1-0.3
		c0.2-0.2,0.2-0.4,0.1-0.5c0,0,0-0.1,0-0.3c0-0.1-0.1-0.1-0.2-0.2c-0.1-0.1-0.2-0.1-0.2-0.2c0,0-0.1,0-0.2-0.1c-0.1,0-0.1,0-0.2,0
		c0-0.1-0.1-0.1-0.3-0.1c-0.1,0-0.1,0-0.2,0s-0.1,0-0.1-0.1c0,0-0.1-0.1-0.1-0.1c0,0-0.1,0-0.1,0c0,0-0.1,0-0.1,0c0,0-0.1,0-0.1-0.1
		c0-0.1-0.1-0.1-0.2,0c-0.1,0-0.2,0-0.2,0c-0.2-0.1-0.3-0.1-0.3,0c0-0.1-0.2-0.1-0.5-0.1c-0.1,0-0.2,0-0.2,0c-0.2,0-0.2,0-0.3,0
		s0,0-0.1,0c0,0-0.1,0-0.1-0.1c-0.2,0-0.3,0-0.3,0l-0.1,0c0,0-0.2,0-0.5,0c0,0-0.1,0-0.1-0.1c0,0-0.1-0.1-0.1-0.1
		C34.9,45.5,34.8,45.6,34.7,45.6z M47.5,59.7C47.5,59.7,47.6,59.8,47.5,59.7C47.6,59.8,47.6,59.8,47.5,59.7
		C47.5,59.8,47.5,59.8,47.5,59.7C47.5,59.8,47.5,59.8,47.5,59.7z M47.6,59.8C47.5,59.8,47.5,59.8,47.6,59.8
		C47.5,59.8,47.5,59.8,47.6,59.8C47.5,59.7,47.6,59.8,47.6,59.8C47.6,59.8,47.6,59.8,47.6,59.8z"/>
	<path fill="#D93427" d="M59,37.3c0,0.1,0.1,0.2,0.2,0.2c0,0,0.1-0.1,0.1-0.1h0c0,0,0.1,0,0.1,0v0.1c0,0,0,0.1,0.1,0.1
		c0.1,0.1,0.1,0.1,0.1,0.2c0.1,0.1,0.1,0.2,0.2,0.2c0.1,0.1,0.2,0.1,0.3,0.1c0,0.1,0,0.1-0.1,0.2l-0.1,0c0,0.1,0,0.1,0.1,0.2
		c0,0.1,0,0.1,0.1,0.2c0,0.1,0.1,0.1,0.1,0.2c0,0,0,0.1,0,0.1c0,0.1,0,0.1,0,0.1c0,0,0,0.1,0,0.1c0,0,0.1,0.1,0.1,0.1
		c0,0,0,0.1,0,0.1c0,0,0,0.1,0,0.1c0,0,0,0.1,0.1,0.1c0,0,0,0.1,0.1,0.1c0,0.2,0,0.2,0.1,0.3c0.1,0.3,0.1,0.4,0.2,0.5
		c0,0.3,0,0.4,0.1,0.5c0,0.1,0,0.2,0,0.3c0,0.1,0.1,0.2,0,0.2c0,0,0,0.1,0,0.1c0,0,0,0.1,0,0.2s0,0.1,0,0.2c0,0,0,0,0.1,0
		c0,0,0,0,0.1,0c0,0.2,0,0.3,0,0.4c0,0.1,0,0.1,0,0.1c0,0,0,0,0,0c0,0,0,0,0,0c0,0,0,0,0,0.1c0,0,0,0.1,0,0.1c0,0,0,0.1,0,0.2
		c0,0.1,0,0.3,0.1,0.5c0.1,0.2,0.1,0.4,0,0.5c0.1,0.1,0.2,0.3,0.2,0.5c0,0.1,0,0.1,0,0.1c0,0,0,0,0,0.1c0,0,0,0.1,0.1,0.1
		c0,0,0,0.1,0,0.2c0,0.1,0,0.1,0,0.2c0,0,0,0.1,0,0.1c0,0,0,0.1,0.1,0.1c0,0,0,0.1,0,0.2c0,0.1,0,0.1,0,0.2c0,0.1,0,0.1,0.1,0.2
		c0.1,0.1,0.1,0.1,0,0.2l0.2,0.1c0,0.1,0,0.1-0.1,0.2c0,0.1,0,0.1,0,0.2c0,0.1,0,0.1,0,0.1c0,0,0,0,0,0.1c0,0,0,0,0,0.1v0
		c0.1,0.2,0.1,0.3,0,0.3c0,0.3,0.1,0.5,0.1,0.5l0.1,0c0,0,0,0.2,0,0.5l0,0.1c0,0,0,0.1,0.1,0.2c0,0,0,0.1,0,0.2c0,0.1,0,0.2,0,0.2
		c0,0,0,0.1,0.1,0.2c0,0.1,0,0.1,0.1,0.2c0,0.1,0,0.2,0,0.2c0,0,0,0.1,0,0.1c0,0,0,0.1,0,0.1c0,0.1,0,0.1,0.1,0.1
		c0,0.2,0.1,0.3,0.1,0.3c-0.1,0.1-0.1,0.2,0,0.2l0,0c0,0,0,0.1,0,0.1c0,0,0,0.1,0,0.1c0,0,0,0.1,0.1,0.1c0,0.1,0,0.1,0,0.2
		c0,0.1,0,0.1,0,0.3c0,0.1,0,0.2,0,0.3c0,0,0,0.1,0.1,0.1c0,0,0.1,0.1,0.1,0.1c0,0.2,0.1,0.4,0.1,0.4c0,0,0.1,0.1,0.2,0.1
		c0.1,0,0.2,0.1,0.2,0.1c0,0,0,0.1,0,0.1c0,0,0,0.1,0.1,0.1c0.1,0,0.1,0,0.2,0.1c0,0.1,0,0.2,0.1,0.3c0.1,0.1,0.1,0.2,0.1,0.3
		c0,0.1,0.1,0.1,0.1,0.1c-0.1,0.1-0.1,0.2-0.2,0.2c0,0,0,0.1-0.1,0.2c0,0.1,0,0.2-0.1,0.3c-0.1,0-0.1,0.1-0.1,0.1c0,0.1,0,0.1,0,0.2
		c0,0.1,0,0.1,0,0.1c0,0,0,0,0,0.1c0,0,0,0.1,0,0.1c0,0,0,0.1,0.1,0.1c0,0,0.1,0.1,0.1,0.1c0,0.1,0,0.1,0,0.2c0,0.1,0,0.2,0.1,0.2
		c0,0.4,0.1,0.7,0.3,0.8c-0.1,0.3,0,0.5,0.1,0.5c0,0.1,0,0.2,0.1,0.2c0,0,0,0,0.1,0c0,0,0,0,0,0c0,0,0,0.1,0,0.1c0,0.1,0,0.1,0,0.1
		c0,0.1,0,0.1,0,0.1c0,0,0,0.1,0.1,0.1c0,0.1,0,0.2,0.1,0.2c0.1,0.1,0.1,0.2,0.1,0.2c0,0,0.1,0.1,0.1,0.3c0,0.1,0.1,0.2,0.2,0.3
		c0,0.2,0.1,0.2,0.2,0.2c0,0,0,0.1,0.1,0.1c0,0.1,0.1,0.1,0.1,0.2c0.1,0.1,0.2,0.2,0.2,0.3c0,0,0.1,0.1,0.1,0.1c0,0,0.1,0.1,0.1,0.1
		c0,0,0,0.1,0,0.1c0,0.1,0,0.1,0,0.1c0,0.1,0,0.2,0,0.3c0,0.1,0,0.2,0,0.3c0.1,0.1,0.1,0.2,0,0.3c-0.1,0-0.1,0.1-0.2,0.2
		c-0.1,0-0.2,0.1-0.3,0.2C65,59.9,64.9,60,64.8,60c0,0,0,0.1,0,0.1c0,0,0,0.1,0,0.1h-0.3c0-0.1-0.1-0.2-0.2-0.2
		c-0.1-0.1-0.2-0.1-0.2-0.2c-0.2,0-0.3,0-0.3-0.1c0,0,0,0.1,0,0.1s0,0.1,0,0.1c-0.1,0-0.1,0-0.1-0.1c0,0,0-0.1,0-0.1
		c0,0-0.1-0.1-0.2-0.1c-0.2-0.2-0.4-0.4-0.5-0.4c0-0.2-0.1-0.3-0.3-0.3c0-0.1,0-0.1,0-0.2v0c0-0.1-0.1-0.1-0.1-0.2
		c-0.1-0.1-0.1-0.2-0.1-0.2c0,0-0.1,0-0.1,0c0-0.2,0-0.3-0.1-0.4c0-0.1,0-0.2-0.1-0.3c0,0-0.1,0-0.1,0s0,0,0,0c0,0,0-0.1,0-0.1
		c0-0.1,0-0.1,0-0.1c0,0,0-0.1-0.1-0.1c0-0.1,0-0.1,0-0.2l-0.2,0l0.1-0.2c0-0.1,0-0.2-0.1-0.2c0-0.2,0-0.3-0.2-0.3c0,0,0-0.1,0-0.1
		c0-0.1,0-0.1,0-0.1c0,0,0-0.1,0-0.1c0,0,0-0.1,0-0.1c0,0,0-0.1-0.1-0.2c0-0.1-0.1-0.2-0.1-0.2c-0.1-0.3-0.1-0.4-0.2-0.4
		c0,0,0-0.1,0-0.1c0-0.1,0-0.1,0-0.1c0,0,0-0.1-0.1-0.1c0,0-0.1-0.1-0.1-0.1c0,0,0-0.1,0-0.1c0,0,0-0.1,0-0.1s0,0,0-0.1
		c0,0,0,0,0-0.1c0-0.1-0.1-0.2-0.1-0.2c0,0-0.1,0-0.2,0c-0.1,0-0.1,0-0.2,0c-0.1,0-0.2,0.1-0.2,0.1v0v0c0,0,0,0-0.1,0
		c0,0-0.1,0-0.1,0c0,0-0.1,0-0.1,0.1c0,0,0,0-0.1-0.1c-0.1,0-0.1,0-0.2,0.1c-0.1,0-0.1,0.1-0.1,0.1c-0.1-0.1-0.1-0.1-0.2-0.1
		c-0.1,0-0.1,0.1-0.1,0.2c-0.2,0-0.2,0-0.3,0c-0.1-0.1-0.1-0.1-0.2-0.1c0,0,0,0-0.1,0.1c0,0-0.1,0-0.2-0.1c-0.1,0-0.2,0-0.3,0.2
		c-0.1,0-0.2,0-0.2,0c-0.1-0.1-0.2-0.1-0.4-0.1c-0.2,0-0.3,0.1-0.3,0.1c-0.4,0-0.7,0-0.8,0c-0.1,0-0.2,0-0.3,0c-0.2,0-0.3,0-0.4,0
		c0,0.1,0,0.1,0,0.2c0,0-0.1,0-0.3-0.2c0,0-0.1,0-0.1,0.1c0,0-0.1,0-0.2,0c-0.1,0-0.2,0-0.2,0c0,0-0.1,0-0.1-0.1c0,0-0.1,0-0.1,0
		c-0.1,0-0.1,0-0.2,0.1c-0.1-0.1-0.2-0.1-0.2-0.1c0,0-0.1,0-0.1,0.1c0,0.1-0.1,0.1-0.1,0.1c0-0.1-0.1-0.2-0.1-0.2c0,0-0.1,0-0.2,0.1
		c-0.1,0.1-0.1,0.1-0.1,0.1c0,0,0,0.1-0.2,0.2c0,0.1,0,0.2-0.1,0.3v0.1c0,0,0,0.1-0.1,0.1c0,0-0.1,0.1-0.1,0.1c0,0.1,0,0.1-0.1,0.2
		c0,0.1-0.1,0.2-0.1,0.3c0,0,0,0,0,0s0,0,0,0v0.1c0,0,0,0.1-0.1,0.2c0,0.1-0.1,0.2-0.2,0.3c0,0.1,0,0.1,0,0.2
		c-0.1,0.1-0.1,0.1-0.1,0.1c0,0,0,0,0,0.1c0,0,0,0.1,0,0.1c0,0,0,0-0.1,0.1c-0.1,0-0.1,0-0.1,0.1c0,0.2-0.1,0.4-0.2,0.4
		c0,0.1,0,0.2,0,0.3l-0.2,0c-0.1,0.3-0.1,0.4-0.2,0.4c0,0.1,0,0.1,0.1,0.2c0,0,0,0.1-0.1,0.1c0,0,0,0.1-0.1,0.2
		c-0.1,0-0.1,0.1-0.2,0.3c0,0,0,0.1-0.1,0.1c0,0,0,0.1,0,0.1c0,0,0,0,0,0.1c0,0,0,0.1,0,0.1c-0.1,0.2-0.2,0.3-0.2,0.4L52,59.9
		c0,0.1,0,0.1-0.1,0.2c0,0,0,0.1,0,0.1c0,0,0,0.1,0,0.1c0,0,0,0.1-0.1,0.1c0,0,0,0-0.1,0c0,0,0,0-0.1,0c0,0,0,0.1-0.1,0.2
		c-0.1,0-0.1,0-0.1,0.1c0,0.1-0.1,0.1-0.1,0.1c0,0-0.1,0-0.1-0.1c0,0,0-0.1-0.1-0.1c-0.1,0-0.1,0-0.1,0c0,0-0.1,0-0.1,0
		c0-0.1,0-0.2,0-0.2c-0.2,0-0.3,0-0.4,0c0-0.1,0-0.2-0.1-0.2c0,0-0.1,0-0.1,0c0,0-0.1,0-0.1,0c0,0,0,0,0-0.1c0,0,0-0.1,0-0.1
		c-0.1,0-0.1,0-0.1,0c0,0.1,0,0.1-0.1,0.1c0-0.1,0-0.1-0.1-0.2c-0.1-0.1-0.1-0.1-0.1-0.2c-0.1,0-0.1,0-0.1,0c0-0.1,0-0.2,0-0.2
		c0,0-0.1,0-0.1,0c0-0.1,0-0.3,0-0.4l0,0h0c0.1-0.1,0.1-0.3,0.1-0.5c-0.1-0.1-0.1-0.2-0.1-0.2h0.1h0c0,0,0-0.1,0-0.2H50
		c0,0,0-0.1,0-0.2c0-0.1,0-0.1,0-0.1l0.1-0.1c0-0.1,0-0.2,0.2-0.3c0-0.1,0-0.1,0-0.1c0,0-0.1-0.1-0.1-0.1c0.1,0,0.2-0.1,0.2-0.2
		c0,0,0.1,0,0.1-0.1c0-0.1,0-0.2,0-0.2c0-0.1,0-0.1,0-0.1c0,0,0-0.1,0-0.1c0-0.1,0-0.1,0-0.1c0,0,0-0.1,0.1-0.1
		c0-0.1,0.1-0.2,0.2-0.3C50.9,56.1,51,56,51,56c0.1-0.2,0.1-0.2,0.2-0.3c0-0.1,0-0.3,0.1-0.4c0.1-0.2,0.1-0.3,0.1-0.4
		c0,0,0.1,0,0.2-0.1c0-0.1,0.1-0.1,0.1-0.1c0-0.1,0-0.2,0.1-0.3c0.1-0.1,0.1-0.2,0.1-0.3c-0.1-0.1-0.1-0.1,0-0.2c0,0,0.1,0,0.1,0
		c0.1-0.1,0.1-0.2,0-0.3c-0.1,0-0.2,0-0.2,0c0-0.2-0.2-0.4-0.4-0.5c0,0,0,0,0.1-0.1c0,0,0.1,0,0.1-0.1c0,0,0-0.1-0.1-0.2
		c-0.1-0.1-0.1-0.1-0.1-0.1c0,0,0.1-0.1,0.2-0.3c0-0.1,0.1-0.2,0.2-0.3s0.2-0.1,0.2-0.2l0.5-0.1c0,0,0.2,0,0.3,0
		c0.2,0,0.2,0,0.2-0.1c0,0,0-0.1,0-0.1c0-0.1,0-0.1,0-0.1c0,0,0.1,0,0.1-0.1c0-0.1,0-0.1,0-0.1c0,0,0-0.1,0-0.1c0,0,0,0,0.1-0.1
		c0,0,0,0,0-0.1c0-0.2,0.1-0.3,0.2-0.3c0.1-0.2,0.1-0.4,0-0.5c0.1,0,0.1,0,0.2-0.2c0-0.1,0.1-0.2,0.1-0.2c0-0.1,0-0.2,0.1-0.3
		c0-0.1,0.1-0.2,0-0.3c0-0.1,0.1-0.1,0.1-0.2c0-0.1,0.1-0.1,0.1-0.2c0-0.1,0-0.2,0.1-0.3c0,0,0-0.1,0.1-0.2c0,0,0,0,0-0.1
		c0,0,0,0,0-0.1c0.1-0.1,0.1-0.1,0.1-0.2c0,0,0-0.1,0-0.1c0,0,0-0.1,0-0.1c0,0,0,0,0.1-0.1c0.1-0.2,0.1-0.3,0.2-0.3v-0.2
		c0,0,0,0,0.1-0.1c0,0,0.1,0,0.1-0.1c0,0,0-0.1,0-0.1s0-0.1,0-0.1c0.1-0.2,0.1-0.3,0.1-0.3c0,0,0.1-0.1,0.1-0.1s0-0.1,0.1-0.1
		c0,0,0-0.1,0-0.1c0-0.1,0-0.1,0-0.1c0,0,0-0.1,0.1-0.1c0,0,0.1-0.1,0.1-0.1c0,0,0-0.1,0-0.1c0-0.1,0-0.1,0-0.2
		c0.1,0,0.1-0.1,0.1-0.1c0.1-0.2,0.1-0.4,0.1-0.4c0-0.1,0-0.2,0.1-0.3c0-0.1,0.1-0.3,0.1-0.4c0,0,0.1-0.1,0.1-0.3
		c0-0.2,0.1-0.3,0.1-0.3c0-0.1,0-0.1,0.1-0.2c0-0.1,0-0.1,0.1-0.1c0,0,0-0.1,0-0.1c0,0,0-0.1,0-0.1c0,0,0.1,0,0.1-0.1
		c0,0,0.1-0.1,0.1-0.1c0,0,0-0.1,0-0.2c0-0.1,0-0.1,0-0.2c0,0,0,0-0.1,0c0,0-0.1,0-0.1,0c0-0.1,0-0.1,0-0.2c0.1,0,0.2,0,0.2,0
		c0,0,0-0.1,0-0.1c0,0,0-0.1,0-0.1c0,0,0-0.1,0-0.1c0,0,0,0,0.1-0.1c0,0,0-0.1,0-0.2c0-0.1,0-0.1,0-0.1c0-0.1,0-0.1,0.1-0.2
		c0.1-0.1,0.1-0.2,0.1-0.3c0.1-0.1,0.1-0.1,0.1-0.3s0-0.2,0.1-0.2c0,0,0-0.1,0-0.1c0,0,0.1-0.1,0.1-0.1c0-0.1,0.1-0.1,0.1-0.1
		c0-0.1,0-0.2,0-0.2c0-0.1,0.1-0.1,0.1-0.2c0,0,0-0.1,0-0.1c0,0,0-0.1,0-0.1c0,0,0-0.1,0.1-0.2c0,0,0-0.1,0.1-0.2
		c0.1-0.1,0.1-0.1,0.1-0.2c0,0,0-0.1,0-0.1c0-0.1,0-0.1,0-0.2c0.1-0.2,0.1-0.4,0.1-0.4c0,0,0.1,0,0.1,0c0-0.2,0.1-0.3,0.2-0.4
		c0-0.1,0-0.2,0.1-0.2c0,0,0,0-0.1-0.1c0,0,0,0,0-0.1c0,0-0.1,0-0.1,0c0-0.1,0-0.1,0-0.2c0,0,0.1,0,0.1,0c0,0,0-0.1,0-0.2
		c-0.1-0.2-0.1-0.2,0-0.2c0.1,0,0.1,0,0.1-0.1c0,0,0,0,0.1,0.1c0,0,0,0,0.1,0c0-0.1,0-0.1,0.1-0.3c0-0.1,0-0.1,0-0.1c0,0,0,0,0.1,0
		c0,0,0,0,0.1,0c0.3-0.2,0.5-0.2,0.7-0.1c0.1,0.1,0.1,0.1,0.2,0.1c0,0,0.1,0,0.1-0.1C58.7,37.2,58.8,37.2,59,37.3z M59,37.3
		c0,0.1,0.1,0.2,0.2,0.2c0,0,0.1-0.1,0.1-0.1h0c0,0,0.1,0,0.1,0v0.1c0,0,0,0.1,0.1,0.1c0.1,0.1,0.1,0.1,0.1,0.2
		c0.1,0.1,0.1,0.2,0.2,0.2c0.1,0.1,0.2,0.1,0.3,0.1c0,0.1,0,0.1-0.1,0.2l-0.1,0c0,0.1,0,0.1,0.1,0.2c0,0.1,0,0.1,0.1,0.2
		c0,0.1,0.1,0.1,0.1,0.2c0,0,0,0.1,0,0.1c0,0.1,0,0.1,0,0.1c0,0,0,0.1,0,0.1c0,0,0.1,0.1,0.1,0.1c0,0,0,0.1,0,0.1c0,0,0,0.1,0,0.1
		c0,0,0,0.1,0.1,0.1c0,0,0,0.1,0.1,0.1c0,0.2,0,0.2,0.1,0.3c0.1,0.3,0.1,0.4,0.2,0.5c0,0.3,0,0.4,0.1,0.5c0,0.1,0,0.2,0,0.3
		c0,0.1,0.1,0.2,0,0.2c0,0,0,0.1,0,0.1c0,0,0,0.1,0,0.2s0,0.1,0,0.2c0,0,0,0,0.1,0c0,0,0,0,0.1,0c0,0.2,0,0.3,0,0.4
		c0,0.1,0,0.1,0,0.1c0,0,0,0,0,0c0,0,0,0,0,0c0,0,0,0,0,0.1c0,0,0,0.1,0,0.1c0,0,0,0.1,0,0.1c0,0,0,0.1,0,0.1c0,0.1,0,0.2,0.1,0.4
		c0.1,0.2,0.1,0.4,0,0.5c0.1,0.1,0.2,0.3,0.2,0.5c0,0.1,0,0.1,0,0.1c0,0,0,0,0,0.1c0,0,0,0.1,0.1,0.1c0,0,0,0.1,0,0.2
		c0,0.1,0,0.1,0,0.2c0,0,0,0.1,0,0.1c0,0,0,0.1,0.1,0.1c0,0,0,0.1,0,0.2c0,0.1,0,0.1,0,0.2c0,0.1,0,0.1,0.1,0.2
		c0.1,0.1,0.1,0.1,0,0.2l0.2,0.1c0,0.1,0,0.1-0.1,0.2c0,0.1,0,0.1,0,0.2c0,0.1,0,0.1,0,0.1c0,0,0,0,0,0.1c0,0,0,0,0,0.1v0
		c0.1,0.2,0.1,0.3,0,0.3c0,0.3,0.1,0.5,0.1,0.5l0.1,0c0,0,0,0.2,0,0.5l0,0.1c0,0,0,0.1,0.1,0.2c0,0,0,0.1,0,0.2c0,0.1,0,0.2,0,0.2
		c0,0,0,0.1,0.1,0.2c0,0.1,0,0.1,0.1,0.2c0,0.1,0,0.2,0,0.2c0,0,0,0.1,0,0.1c0,0,0,0.1,0,0.1c0,0.1,0,0.1,0.1,0.1
		c0,0.2,0.1,0.3,0.1,0.3c-0.1,0.1-0.1,0.2,0,0.2l0,0c0,0,0,0.1,0,0.1c0,0,0,0.1,0,0.1c0,0,0,0.1,0.1,0.1c0,0.1,0,0.1,0,0.2
		c0,0.1,0,0.1,0,0.3c0,0.1,0,0.2,0,0.3c0,0,0,0.1,0.1,0.1c0,0,0.1,0.1,0.1,0.1c0,0.2,0.1,0.4,0.1,0.4c0,0,0.1,0.1,0.2,0.1
		c0.1,0,0.2,0.1,0.2,0.1c0,0,0,0.1,0,0.1c0,0,0,0.1,0.1,0.1c0.1,0,0.1,0,0.2,0.1c0,0.1,0,0.2,0.1,0.3c0.1,0.1,0.1,0.2,0.1,0.3
		c0,0.1,0.1,0.1,0.1,0.1c-0.1,0.1-0.1,0.2-0.2,0.2c0,0,0,0.1-0.1,0.2c0,0.1,0,0.2-0.1,0.3c-0.1,0-0.1,0.1-0.1,0.1c0,0.1,0,0.1,0,0.2
		c0,0.1,0,0.1,0,0.1c0,0,0,0,0,0.1c0,0,0,0.1,0,0.1c0,0,0,0.1,0.1,0.1c0,0,0.1,0.1,0.1,0.1c0,0.1,0,0.1,0,0.2c0,0.1,0,0.2,0.1,0.2
		c0,0.4,0.1,0.7,0.3,0.8c-0.1,0.3,0,0.5,0.1,0.5c0,0.1,0,0.2,0.1,0.2c0,0,0.1,0,0.1,0c0,0,0,0.1,0,0.1c0,0.1,0,0.1,0,0.1
		c0,0.1,0,0.1,0,0.1c0,0,0,0.1,0.1,0.1c0,0.1,0,0.2,0.1,0.2c0.1,0.1,0.1,0.2,0.1,0.2c0,0,0.1,0.1,0.1,0.3c0,0.1,0.1,0.2,0.2,0.3
		c0,0.2,0.1,0.2,0.2,0.2c0,0,0,0.1,0.1,0.1c0,0.1,0.1,0.1,0.1,0.2c0.1,0.1,0.2,0.2,0.2,0.3c0,0,0.1,0.1,0.1,0.1c0,0,0.1,0.1,0.1,0.1
		c0,0,0,0.1,0,0.1c0,0.1,0,0.1,0,0.1c0,0.1,0,0.2,0,0.3c0,0.1,0,0.2,0,0.3c0.1,0.1,0.1,0.2,0,0.3c-0.1,0-0.1,0.1-0.2,0.2
		c-0.1,0-0.2,0.1-0.3,0.2C65,59.9,64.9,60,64.8,60c0,0,0,0.1,0,0.1c0,0,0,0.1,0,0.1h-0.3c0-0.1-0.1-0.2-0.2-0.2
		c-0.1-0.1-0.2-0.1-0.2-0.2c-0.2,0-0.3,0-0.3-0.1c0,0,0,0.1,0,0.1s0,0.1,0,0.1c-0.1,0-0.1,0-0.1-0.1c0,0,0-0.1,0-0.1
		c0,0-0.1-0.1-0.2-0.1c-0.2-0.2-0.4-0.4-0.5-0.4c0-0.2-0.1-0.3-0.3-0.3c0-0.1,0-0.1,0-0.2v0c0-0.1-0.1-0.1-0.1-0.2
		c-0.1-0.1-0.1-0.2-0.1-0.2c0,0-0.1,0-0.1,0c0-0.2,0-0.3-0.1-0.4c0-0.1,0-0.2-0.1-0.3c0,0-0.1,0-0.1,0s0,0,0,0c0,0,0-0.1,0-0.1
		c0-0.1,0-0.1,0-0.1c0,0,0-0.1-0.1-0.1c0-0.1,0-0.1,0-0.2l-0.2,0l0.1-0.2c0-0.1,0-0.2-0.1-0.2c0-0.2,0-0.3-0.2-0.3c0,0,0-0.1,0-0.1
		c0-0.1,0-0.1,0-0.1c0,0,0-0.1,0-0.1c0,0,0-0.1,0-0.1c0,0,0-0.1-0.1-0.2c0-0.1-0.1-0.2-0.1-0.2c-0.1-0.3-0.1-0.4-0.2-0.4
		c0,0,0-0.1,0-0.1c0-0.1,0-0.1,0-0.1c0,0,0-0.1-0.1-0.1c0,0-0.1-0.1-0.1-0.1c0,0,0,0,0-0.1s0-0.1,0-0.1s0,0,0-0.1c0,0,0,0,0-0.1
		c0-0.1-0.1-0.2-0.1-0.2c0,0-0.1,0-0.2,0c-0.1,0-0.1,0-0.2,0c-0.1,0-0.2,0.1-0.2,0.1v0v0c0,0,0,0-0.1,0c0,0-0.1,0-0.1,0
		c0,0-0.1,0-0.1,0.1c0,0,0,0-0.1-0.1c-0.1,0-0.1,0-0.2,0.1c-0.1,0-0.1,0.1-0.1,0.1c-0.1-0.1-0.1-0.1-0.2-0.1c-0.1,0-0.1,0.1-0.1,0.2
		c-0.2,0-0.2,0-0.3,0c-0.1-0.1-0.1-0.1-0.2-0.1c0,0,0,0-0.1,0.1c0,0-0.1,0-0.2-0.1c-0.1,0-0.2,0-0.3,0.2c-0.1,0-0.2,0-0.2,0
		c-0.1-0.1-0.2-0.1-0.4-0.1c-0.2,0-0.3,0.1-0.3,0.1c-0.4,0-0.7,0-0.8,0c-0.1,0-0.2,0-0.3,0c-0.2,0-0.3,0-0.4,0c0,0.1,0,0.1,0,0.2
		c0,0-0.1,0-0.3-0.2c0,0-0.1,0-0.1,0.1c0,0-0.1,0-0.2,0c-0.1,0-0.2,0-0.2,0c0,0-0.1,0-0.1-0.1c0,0-0.1,0-0.1,0c-0.1,0-0.1,0-0.2,0.1
		c-0.1-0.1-0.2-0.1-0.2-0.1c0,0-0.1,0-0.1,0.1c0,0.1-0.1,0.1-0.1,0.1c0-0.1-0.1-0.2-0.1-0.2c0,0-0.1,0-0.2,0.1
		c-0.1,0.1-0.1,0.1-0.1,0.1c0,0,0,0.1-0.2,0.2c0,0.1,0,0.2-0.1,0.3v0.1c0,0,0,0.1-0.1,0.1c0,0-0.1,0.1-0.1,0.1c0,0.1,0,0.1-0.1,0.2
		c0,0.1-0.1,0.2-0.1,0.3c0,0,0,0,0,0s0,0,0,0v0.1c0,0,0,0.1-0.1,0.2c0,0.1-0.1,0.2-0.2,0.3c0,0.1,0,0.1,0,0.2
		c-0.1,0.1-0.1,0.1-0.1,0.1c0,0,0,0,0,0.1c0,0,0,0.1,0,0.1c0,0,0,0-0.1,0.1c-0.1,0-0.1,0-0.1,0.1c0,0.2-0.1,0.4-0.2,0.4
		c0,0.1,0,0.2,0,0.3l-0.2,0c-0.1,0.3-0.1,0.4-0.2,0.4c0,0.1,0,0.1,0.1,0.2c0,0,0,0.1-0.1,0.1c0,0,0,0.1-0.1,0.2
		c-0.1,0-0.1,0.1-0.2,0.3c0,0,0,0.1-0.1,0.1c0,0,0,0.1,0,0.1c0,0,0,0,0,0.1c0,0,0,0.1,0,0.1c-0.1,0.2-0.2,0.3-0.2,0.4L52,59.9
		c0,0.1,0,0.1-0.1,0.2c0,0,0,0.1,0,0.1c0,0,0,0.1,0,0.1c0,0,0,0.1-0.1,0.1c0,0,0,0-0.1,0c0,0,0,0-0.1,0c0,0,0,0.1-0.1,0.2
		c-0.1,0-0.1,0-0.1,0.1c0,0.1-0.1,0.1-0.1,0.1c0,0-0.1,0-0.1-0.1c0,0,0-0.1-0.1-0.1c-0.1,0-0.1,0-0.1,0c0,0-0.1,0-0.1,0
		c0-0.1,0-0.2,0-0.2c-0.2,0-0.3,0-0.4,0c0-0.1,0-0.2-0.1-0.2c0,0-0.1,0-0.1,0c0,0-0.1,0-0.1,0c0,0,0,0,0-0.1c0,0,0-0.1,0-0.1
		c-0.1,0-0.1,0-0.1,0c0,0.1,0,0.1-0.1,0.1c0-0.1,0-0.1-0.1-0.2c-0.1-0.1-0.1-0.1-0.1-0.2c-0.1,0-0.1,0-0.1,0c0-0.1,0-0.2,0-0.2
		c0,0-0.1,0-0.1,0c0-0.1,0-0.3,0-0.4l0,0h0c0.1-0.1,0.1-0.3,0.1-0.5c-0.1-0.1-0.1-0.2-0.1-0.2h0.1h0c0,0,0-0.1,0-0.2H50
		c0,0,0-0.1,0-0.2c0-0.1,0-0.1,0-0.1l0.1-0.1c0-0.1,0-0.2,0.2-0.3c0-0.1,0-0.1,0-0.1c0,0-0.1-0.1-0.1-0.1c0.1,0,0.2-0.1,0.2-0.2
		c0,0,0.1,0,0.1-0.1c0-0.1,0-0.2,0-0.2c0-0.1,0-0.1,0-0.1c0,0,0-0.1,0-0.1c0-0.1,0-0.1,0-0.1c0,0,0-0.1,0.1-0.1
		c0-0.1,0.1-0.2,0.2-0.3C50.9,56.1,51,56,51,56c0.1-0.2,0.1-0.2,0.2-0.3c0-0.1,0-0.3,0.1-0.4c0.1-0.2,0.1-0.3,0.1-0.4
		c0,0,0.1,0,0.2-0.1c0-0.1,0.1-0.1,0.1-0.1c0-0.1,0-0.2,0.1-0.3c0.1-0.1,0.1-0.2,0.1-0.3c-0.1-0.1-0.1-0.1,0-0.2c0,0,0.1,0,0.1,0
		c0.1-0.1,0.1-0.2,0-0.3c-0.1,0-0.2,0-0.2,0c0-0.2-0.2-0.4-0.4-0.5c0,0,0,0,0.1-0.1c0,0,0.1,0,0.1-0.1c0,0,0-0.1-0.1-0.2
		c-0.1-0.1-0.1-0.1-0.1-0.1c0,0,0.1-0.1,0.2-0.3c0-0.1,0.1-0.2,0.2-0.3s0.2-0.1,0.2-0.2l0.5-0.1c0,0,0.2,0,0.3,0
		c0.2,0,0.2,0,0.2-0.1c0,0,0-0.1,0-0.1c0-0.1,0-0.1,0-0.1c0,0,0.1,0,0.1-0.1c0-0.1,0-0.1,0-0.1c0,0,0-0.1,0-0.1c0,0,0,0,0.1-0.1
		c0,0,0,0,0-0.1c0-0.2,0.1-0.3,0.2-0.3c0.1-0.2,0.1-0.4,0-0.5c0.1,0,0.1,0,0.2-0.2c0-0.1,0.1-0.2,0.1-0.2c0-0.1,0-0.2,0.1-0.3
		c0-0.1,0.1-0.2,0-0.3c0-0.1,0.1-0.1,0.1-0.2c0-0.1,0.1-0.1,0.1-0.2c0-0.1,0-0.2,0.1-0.3c0,0,0-0.1,0.1-0.2c0,0,0,0,0-0.1
		c0,0,0,0,0-0.1c0.1-0.1,0.1-0.1,0.1-0.2c0,0,0-0.1,0-0.1c0,0,0-0.1,0-0.1c0,0,0,0,0.1-0.1c0.1-0.2,0.1-0.3,0.2-0.3v-0.2
		c0,0,0,0,0.1-0.1c0,0,0.1,0,0.1-0.1c0,0,0-0.1,0-0.1s0-0.1,0-0.1c0.1-0.2,0.1-0.3,0.1-0.3c0,0,0.1-0.1,0.1-0.1s0-0.1,0.1-0.1
		c0,0,0-0.1,0-0.1c0-0.1,0-0.1,0-0.1c0,0,0-0.1,0.1-0.1c0,0,0.1-0.1,0.1-0.1c0,0,0-0.1,0-0.1c0-0.1,0-0.1,0-0.2
		c0.1,0,0.1-0.1,0.1-0.1c0.1-0.2,0.1-0.4,0.1-0.4c0-0.1,0-0.2,0.1-0.3c0-0.1,0.1-0.3,0.1-0.4c0,0,0.1-0.1,0.1-0.3
		c0-0.2,0.1-0.3,0.1-0.3c0-0.1,0-0.1,0.1-0.2c0-0.1,0-0.1,0.1-0.1c0,0,0-0.1,0-0.1c0,0,0-0.1,0-0.1c0,0,0.1,0,0.1-0.1
		c0,0,0.1-0.1,0.1-0.1c0,0,0-0.1,0-0.2c0-0.1,0-0.1,0-0.2c0,0,0,0-0.1,0c0,0-0.1,0-0.1,0c0-0.1,0-0.1,0-0.2c0.1,0,0.2,0,0.2,0
		c0,0,0-0.1,0-0.1c0,0,0-0.1,0-0.1c0,0,0-0.1,0-0.1c0,0,0,0,0.1-0.1c0,0,0-0.1,0-0.2c0-0.1,0-0.1,0-0.1c0-0.1,0-0.1,0.1-0.2
		c0.1-0.1,0.1-0.2,0.1-0.3c0.1-0.1,0.1-0.1,0.1-0.3s0-0.2,0.1-0.2c0,0,0-0.1,0-0.1c0,0,0.1-0.1,0.1-0.1c0-0.1,0.1-0.1,0.1-0.1
		c0-0.1,0-0.2,0-0.2c0-0.1,0.1-0.1,0.1-0.2c0,0,0-0.1,0-0.1c0,0,0-0.1,0-0.1c0,0,0-0.1,0.1-0.2c0,0,0-0.1,0.1-0.2
		c0.1-0.1,0.1-0.1,0.1-0.2c0,0,0-0.1,0-0.1c0-0.1,0-0.1,0-0.2c0.1-0.2,0.1-0.4,0.1-0.4c0,0,0.1,0,0.1,0c0-0.2,0.1-0.3,0.2-0.4
		c0-0.1,0-0.2,0.1-0.2c0,0,0,0-0.1-0.1c0,0,0,0,0-0.1c0,0-0.1,0-0.1,0c0-0.1,0-0.1,0-0.2c0,0,0.1,0,0.1,0c0,0,0-0.1,0-0.2
		c-0.1-0.2-0.1-0.2,0-0.2c0.1,0,0.1,0,0.1-0.1c0,0,0,0,0.1,0.1c0,0,0,0,0.1,0c0-0.1,0-0.1,0.1-0.3c0-0.1,0-0.1,0-0.1c0,0,0,0,0.1,0
		c0,0,0,0,0.1,0c0.3-0.2,0.5-0.2,0.7-0.1c0.1,0.1,0.1,0.1,0.2,0.1c0,0,0.1,0,0.1-0.1C58.7,37.2,58.8,37.2,59,37.3z M51.7,54
		C51.7,54,51.7,54,51.7,54C51.7,54.1,51.7,54.1,51.7,54z M51.7,54.1C51.7,54.1,51.7,54.1,51.7,54.1C51.7,54,51.7,54,51.7,54.1z
		 M58.5,42.3c0,0.1,0,0.1-0.1,0.1c0,0-0.1,0.1-0.1,0.1c0,0,0,0.1,0,0.1c0,0.1,0,0.1,0,0.2c0,0.1-0.1,0.1-0.1,0.1c0,0,0,0,0,0.1
		c0,0,0,0.1,0,0.1c0,0,0,0.1-0.1,0.1c0,0-0.1,0.1-0.1,0.1c0,0,0,0.1,0,0.2c0,0.1,0,0.2-0.1,0.2v0.1c-0.1,0.1-0.1,0.2-0.1,0.4
		c-0.1,0.1-0.1,0.1-0.1,0.1c0,0,0,0.1,0,0.1c0,0.1,0,0.1-0.1,0.2c-0.1,0.1-0.1,0.1-0.1,0.1c0,0,0,0,0,0.1c0,0.1,0,0.1,0,0.1
		c0,0,0,0.1-0.1,0.1c0,0-0.1,0.1-0.1,0.1c0,0,0,0.1,0,0.2c0,0.1,0,0.1,0,0.2l-0.1,0.3c0,0,0,0.1,0,0.2c0,0,0,0.1,0,0.1l-0.1,0.3
		c0,0-0.1,0.1-0.1,0.2c0,0.1,0,0.2-0.1,0.2c0,0.1,0,0.1,0,0.1C57,46.8,56.9,46.9,57,47c0,0-0.1,0.1-0.1,0.2c0,0.1-0.1,0.1-0.1,0.2
		l-0.1,0.3c0,0,0,0.1,0,0.1c0,0,0,0,0,0.1c0,0,0,0,0,0.1c0,0,0,0,0,0.1c0,0,0,0,0,0.1c0,0,0,0.1,0,0.1c0,0,0,0.1,0,0.1
		c-0.1,0.2-0.1,0.3-0.1,0.4c0,0.1,0,0.1-0.1,0.2c-0.1,0.1-0.1,0.1-0.1,0.2c0,0,0,0.1,0,0.1c0,0,0,0.1,0,0.1s0,0.1,0,0.2
		c0,0.1,0,0.1,0,0.2c0,0-0.1,0-0.1,0.1c0,0-0.1,0.1-0.1,0.1c0,0,0,0.1,0,0.2c0,0.1,0,0.1,0,0.2c0,0-0.1,0.1-0.1,0.2
		c-0.1,0.1-0.1,0.2-0.1,0.3c-0.1,0-0.1,0.1-0.1,0.2c0,0.1-0.1,0.2-0.1,0.2c0,0.3,0,0.4-0.1,0.5c0,0.1,0,0.2-0.1,0.2
		c0,0,0,0.1-0.1,0.1c0,0,0,0.1,0,0.1c0,0,0,0.1,0,0.1c0,0,0,0.1,0,0.1c0,0.1,0.1,0.1,0.3,0c0,0,0,0,0.1,0c0.1,0,0.1,0,0.2,0
		c0,0,0,0,0.1,0c0,0,0,0,0.1,0c0,0,0.1,0,0.1,0c0,0,0,0,0.1,0c0,0,0.1,0,0.1,0c0.3,0,0.6,0,0.7-0.1c0.1,0.1,0.3,0.1,0.5,0
		c0,0,0.1,0,0.1,0c0,0,0.1-0.1,0.1-0.1c0,0,0.1,0,0.1,0c0,0,0,0,0.1,0c0.2,0,0.4,0,0.4,0c0,0,0,0,0.1,0c0,0,0.1,0,0.1,0
		c0.1,0.1,0.2,0.1,0.4,0.1l0.1-0.1c0.1,0,0.2,0,0.4,0c0.2,0,0.3,0,0.4,0c0-0.1,0.1-0.1,0.1-0.1c0,0,0.1,0,0.1,0l0.1-0.1
		c0,0,0.1,0,0.1,0c0.1,0,0.1,0,0.1,0c0,0,0.1,0,0.2-0.1c0.1,0,0.1-0.1,0.1-0.1c0,0,0-0.1,0-0.1c0-0.1,0-0.1,0-0.1c0,0,0,0,0-0.1
		c0,0,0-0.1,0-0.1c0,0,0,0,0-0.1c0,0,0,0,0-0.1c-0.1-0.3-0.1-0.5-0.1-0.7c0,0-0.1,0-0.1,0c0,0,0-0.1,0-0.1c0-0.1,0-0.1,0-0.3
		c0,0,0,0,0-0.1s0-0.1,0-0.1c0,0,0,0,0-0.1c0,0,0-0.1,0-0.1c0,0,0-0.1,0-0.1c0-0.1,0-0.1-0.1-0.2c0-0.1-0.1-0.1-0.1-0.2s0-0.1,0-0.1
		s0-0.1,0-0.1c0,0-0.1,0-0.1-0.1c0-0.1-0.1-0.2-0.1-0.2c-0.1,0-0.1-0.1-0.1-0.2c0-0.1,0-0.2,0-0.2c0-0.1,0-0.2-0.1-0.3
		c0-0.1-0.1-0.2-0.1-0.2l0-0.3c0,0,0-0.1,0-0.1c0,0,0-0.1,0-0.1c0,0,0,0,0-0.1c0,0,0-0.1,0-0.1s0-0.1,0-0.2c0-0.1,0-0.1,0-0.2
		c0,0,0-0.1,0-0.1c0-0.1,0-0.2,0-0.2c0,0-0.1-0.1-0.2-0.3c0,0-0.1-0.1-0.1-0.1c0,0,0-0.1,0-0.1c0,0,0-0.1-0.1-0.1
		c0,0-0.1-0.1-0.1-0.1c0,0,0-0.1,0-0.1c0,0,0-0.1,0-0.1c0-0.1,0-0.2,0-0.2c0,0,0-0.1-0.1-0.1c0-0.1-0.1-0.1-0.1-0.2c0,0,0-0.1,0-0.1
		c0,0,0-0.1,0-0.1c0,0,0-0.1-0.1-0.1s0-0.1,0-0.1c0,0,0-0.1,0-0.2c0-0.1,0-0.1,0-0.2c0,0,0,0,0-0.1c0,0,0,0-0.1-0.1c0,0,0-0.1,0-0.2
		c0,0,0-0.1,0-0.2c0-0.1,0-0.2,0-0.2c-0.1,0-0.1-0.2-0.1-0.6C58.6,42.7,58.5,42.6,58.5,42.3L58.5,42.3z M58.4,42.4
		C58.4,42.4,58.3,42.5,58.4,42.4C58.3,42.5,58.3,42.5,58.4,42.4c-0.1,0.1-0.1,0.2-0.1,0.2c0,0.1,0,0.1,0,0.2c0,0.1-0.1,0.1-0.1,0.1
		c0,0,0,0,0,0.1c0,0,0,0.1,0,0.1c0,0,0,0.1-0.1,0.1c0,0-0.1,0.1-0.1,0.1c0,0,0,0.1,0,0.2c0,0.1,0,0.2-0.1,0.2v0.1
		c-0.1,0.1-0.1,0.2-0.1,0.4c-0.1,0.1-0.1,0.1-0.1,0.1c0,0,0,0.1,0,0.1c0,0.1,0,0.1-0.1,0.2c-0.1,0.1-0.1,0.1-0.1,0.1c0,0,0,0,0,0.1
		c0,0.1,0,0.1,0,0.1c0,0,0,0.1-0.1,0.1c0,0-0.1,0.1-0.1,0.1c0,0,0,0.1,0,0.2c0,0.1,0,0.1,0,0.2l-0.1,0.3c0,0,0,0.1,0,0.2
		c0,0,0,0.1,0,0.1l-0.1,0.3c0,0-0.1,0.1-0.1,0.2c0,0.1,0,0.2-0.1,0.2c0,0.1,0,0.1,0,0.1C57,46.8,56.9,46.9,57,47
		c0,0-0.1,0.1-0.1,0.2c0,0.1-0.1,0.1-0.1,0.2l-0.1,0.3c0,0,0,0.1,0,0.1c0,0,0,0,0,0.1c0,0,0,0,0,0.1c0,0,0,0,0,0.1c0,0,0,0,0,0.1
		c0,0,0,0.1,0,0.1c0,0,0,0.1,0,0.1c-0.1,0.2-0.1,0.3-0.1,0.4c0,0.1,0,0.1-0.1,0.2c-0.1,0.1-0.1,0.1-0.1,0.2c0,0,0,0.1,0,0.1
		c0,0,0,0.1,0,0.1s0,0.1,0,0.2c0,0.1,0,0.1,0,0.2c0,0-0.1,0-0.1,0.1c0,0-0.1,0.1-0.1,0.1c0,0.1,0,0.1,0,0.2c0,0.1,0,0.1,0,0.2
		c0,0-0.1,0.1-0.1,0.2c-0.1,0.1-0.1,0.2-0.1,0.3c-0.1,0-0.1,0.1-0.1,0.2c0,0.1-0.1,0.2-0.1,0.2c0,0.3,0,0.4-0.1,0.5
		c0,0.1,0,0.2-0.1,0.2c0,0,0,0.1-0.1,0.1c0,0,0,0.1,0,0.1c0,0,0,0.1,0,0.1c0,0,0,0.1,0,0.1c0,0.1,0.1,0.1,0.3,0c0,0,0.1,0,0.3,0
		c0,0,0,0,0.1,0c0,0,0,0,0.1,0c0,0,0.1,0,0.1,0c0,0,0,0,0.1,0c0,0,0.1,0,0.1,0c0.3,0,0.6,0,0.7-0.1c0.1,0.1,0.3,0.1,0.5,0
		c0,0,0.1,0,0.1,0c0,0,0.1-0.1,0.1-0.1c0,0,0.1,0,0.1,0c0,0,0,0,0.1,0c0.2,0,0.4,0,0.4,0c0,0,0,0,0.1,0c0,0,0.1,0,0.1,0
		c0.1,0.1,0.2,0.1,0.4,0.1l0.1-0.1c0.1,0,0.2,0,0.4,0c0.2,0,0.3,0,0.4,0c0-0.1,0.1-0.1,0.1-0.1c0,0,0.1,0,0.1,0l0.1-0.1
		c0,0,0.1,0,0.1,0c0.1,0,0.1,0,0.1,0c0,0,0.1,0,0.2-0.1c0.1,0,0.1-0.1,0.1-0.1c0,0,0-0.1,0-0.1c0-0.1,0-0.1,0-0.1c0,0,0,0,0-0.1
		c0,0,0-0.1,0-0.1c0,0,0,0,0-0.1c0,0,0,0,0-0.1c-0.1-0.3-0.1-0.5-0.1-0.7c0,0-0.1,0-0.1,0c0,0,0-0.1,0-0.1c0-0.1,0-0.1,0-0.3
		c0,0,0,0,0-0.1s0-0.1,0-0.1c0,0,0,0,0-0.1c0,0,0-0.1,0-0.1c0,0,0-0.1,0-0.1c0-0.1,0-0.1-0.1-0.2c0-0.1-0.1-0.1-0.1-0.2s0-0.1,0-0.1
		s0-0.1,0-0.1c0,0-0.1,0-0.1-0.1c0-0.1-0.1-0.2-0.1-0.2c-0.1,0-0.1-0.1-0.1-0.2c0-0.1,0-0.2,0-0.2c0-0.1,0-0.2-0.1-0.3
		c0-0.1-0.1-0.2-0.1-0.2l0-0.3c0,0,0-0.1,0-0.1c0,0,0-0.1,0-0.1c0,0,0,0,0-0.1c0,0,0-0.1,0-0.1s0-0.1,0-0.2c0-0.1,0-0.1,0-0.2
		c0,0,0-0.1,0-0.1c0-0.1,0-0.2,0-0.2c0,0-0.1-0.1-0.2-0.3c0,0-0.1-0.1-0.1-0.1c0,0,0-0.1,0-0.1c0,0,0-0.1-0.1-0.1
		c0,0-0.1-0.1-0.1-0.1c0,0,0-0.1,0-0.1c0,0,0-0.1,0-0.1c0-0.1,0-0.2,0-0.2c0,0,0-0.1-0.1-0.1c0-0.1-0.1-0.1-0.1-0.2c0,0,0-0.1,0-0.1
		c0,0,0-0.1,0-0.1c0,0,0-0.1-0.1-0.1s0-0.1,0-0.1c0,0,0-0.1,0-0.2c0-0.1,0-0.1,0-0.2c0,0,0,0,0-0.1c0,0,0,0-0.1-0.1c0,0,0-0.1,0-0.2
		c0,0,0-0.1,0-0.2c0-0.1,0-0.2,0-0.2c-0.1,0-0.1-0.2-0.1-0.6c-0.1,0-0.1-0.2-0.2-0.5h0C58.5,42.3,58.5,42.4,58.4,42.4z M59.8,54.1
		C59.8,54.1,59.8,54.2,59.8,54.1C59.8,54.2,59.8,54.2,59.8,54.1z M59.8,54.2C59.8,54.2,59.8,54.2,59.8,54.2
		C59.8,54.1,59.8,54.2,59.8,54.2z M60.2,38.8C60.2,38.7,60.2,38.7,60.2,38.8C60.3,38.7,60.3,38.8,60.2,38.8
		C60.2,38.8,60.2,38.8,60.2,38.8z M60.3,38.7c0,0,0,0.1,0,0.1C60.2,38.8,60.2,38.8,60.3,38.7C60.2,38.7,60.2,38.7,60.3,38.7z"/>
	<path fill="#D93427" d="M82.4,54.1c0.1-0.1,0.1-0.2,0.1-0.2c0.1,0,0.1,0,0.2-0.1c0,0,0,0,0-0.1c0,0,0,0,0-0.1c0,0,0-0.1,0-0.2
		c0-0.1,0-0.2,0-0.2c0,0,0,0,0.1-0.1c0,0,0-0.1-0.1-0.1c0,0-0.1,0-0.1-0.1c0,0,0,0,0.1,0s0.1,0,0.1,0c0-0.1,0.1-0.2,0.2-0.3
		c0-0.1,0.1-0.1,0.1-0.1c0-0.1,0-0.1,0-0.2c0,0,0-0.1,0-0.1H83c0-0.1,0-0.1,0.1-0.3s0-0.2,0.1-0.2c-0.1-0.2-0.1-0.3,0.2-0.4
		c0,0-0.1,0-0.1-0.1s0,0,0-0.1c0-0.1,0-0.2,0-0.4c0,0,0.1,0,0.1,0c0-0.3,0.1-0.5,0.2-0.6c0,0,0-0.1-0.1-0.2c0-0.1,0-0.2,0-0.3
		c0,0,0.1-0.1,0.2-0.1c0-0.2,0-0.2,0.1-0.2c0-0.1,0-0.3,0-0.4c0-0.1,0.1-0.2,0.2-0.2l-0.1-0.3c0.1,0,0.2,0,0.2-0.1
		c0,0,0-0.1-0.1-0.1c0,0-0.1-0.1-0.1-0.1c0,0,0.1,0,0.1,0c0,0,0,0,0.1,0c0.1,0,0.1-0.1,0-0.2c0-0.1,0-0.2,0-0.2c0,0,0.1,0,0.1,0
		c0.1,0,0.1,0,0.1,0c0,0,0-0.1-0.1-0.1c0,0,0-0.1,0.1-0.1c0,0,0.1,0,0.1-0.1c0,0,0-0.1-0.1-0.3C84,47.1,84,47,84,47
		c0.1-0.1,0.2-0.2,0.1-0.3c0,0-0.1,0-0.1,0c0,0,0-0.1,0-0.2c0-0.1,0-0.1,0-0.1c0,0,0-0.2,0-0.4c0,0,0-0.1,0-0.1c0-0.1,0-0.1,0-0.1
		c-0.1-0.2-0.1-0.3,0-0.3c0,0,0.1-0.1,0.1-0.1c0-0.1,0-0.2,0-0.3c0-0.2,0-0.3,0.1-0.3c-0.1,0-0.1-0.1-0.1-0.1c0,0,0.1,0,0.1-0.1
		c0-0.1,0-0.1,0-0.2c0-0.1-0.1-0.1-0.1-0.2c0,0,0,0,0.1,0c0,0,0,0,0.1,0c0,0,0-0.1,0-0.1c0-0.1,0-0.1,0-0.1c0.1,0,0.1,0,0.2-0.1
		c0.1,0,0.1,0,0.2,0.1c0,0,0-0.1,0-0.2c0.1,0,0.2,0,0.3,0c0.1,0,0.2,0,0.3,0c0.1,0.1,0.2,0.1,0.3,0.1c0,0.1,0,0.1,0.1,0.1
		c0.1,0,0.2,0,0.3,0c0.1,0,0.2,0,0.3,0c0,0,0,0.1,0,0.2c0,0.1,0,0.1,0,0.1c0,0,0,0.1,0.1,0.2c0.1,0.1,0.1,0.1,0.2,0.2
		c0,0.1,0,0.1,0,0.2c0,0.1,0.1,0.1,0.1,0.2v0.1c0,0,0,0.1,0.1,0.2c0.1,0.1,0.1,0.2,0.1,0.2c0,0.1,0,0.2,0.1,0.3c0,0.2,0,0.3,0.1,0.3
		c0,0.1,0,0.1,0,0.2c-0.1,0.1-0.1,0.2-0.1,0.3c0,0.2,0,0.3,0,0.4c0.1,0,0.1,0.1,0,0.3c0,0.1,0.1,0.1,0,0.1c0,0,0,0.1-0.1,0.1
		c-0.1,0-0.1,0.1-0.1,0.1c0,0,0,0.1,0.1,0.1c0,0.1,0.1,0.1,0.1,0.2c0,0.1,0,0.1,0,0.2c0,0.1,0,0.1,0,0.2c0,0,0,0.1,0,0.1
		c0,0,0,0.1,0,0.1c0,0-0.1,0.1-0.2,0.1c0,0,0,0.1,0,0.2c0,0.1,0,0.1,0,0.2c0,0,0,0.1,0,0.1c0,0,0,0.1,0,0.1c-0.1,0-0.1,0-0.2,0
		c0,0.1,0,0.1,0,0.2c0,0,0,0.2,0,0.5c-0.2,0.1-0.2,0.2-0.1,0.4c-0.2,0.1-0.2,0.2,0,0.3c0,0.1,0,0.1,0,0.1c0,0,0,0-0.1,0
		c0,0.1,0,0.1,0,0.1c-0.1,0.1-0.2,0.1-0.2,0.1c0,0.1,0,0.1,0,0.2c-0.1,0-0.1,0.1-0.1,0.2c0,0.1,0,0.2,0.1,0.2c0,0.1,0,0.2,0,0.3
		c-0.2,0-0.2,0.1-0.2,0.3c0.1,0.1,0.1,0.2,0.1,0.2c-0.1,0-0.2,0.1-0.2,0.2c0,0.1,0,0.2,0,0.3c-0.1,0-0.2,0.1-0.2,0.3
		c0,0,0,0.1,0,0.1c0,0,0,0.1,0.1,0.1c0,0,0,0.1,0,0.2c0,0.1,0,0.1,0,0.2c-0.2,0.1-0.2,0.2-0.2,0.3c-0.1,0.1-0.1,0.2-0.1,0.4
		c0,0,0,0.1,0.1,0.1c0,0,0.1,0.1,0.1,0.1h-0.1c0,0-0.1,0-0.1,0.1c0,0.1-0.1,0.1-0.1,0.2c0,0.1,0,0.1,0,0.2c0,0.1,0,0.2,0,0.2
		c0,0-0.1,0.1-0.1,0.1c-0.1,0.1-0.1,0.1-0.1,0.1c0,0.1,0,0.1-0.1,0.2c-0.1,0.1,0,0.2,0.1,0.2c0,0.1,0,0.2,0,0.2c-0.1,0-0.2,0-0.2,0
		c0,0.1,0,0.2-0.1,0.2c0,0,0,0.1,0,0.1c0,0,0,0.1,0,0.2c0,0.1,0,0.1,0,0.2c0,0,0,0.1-0.1,0.2c-0.1,0.1-0.1,0.1,0,0.2
		c0,0-0.1,0-0.1,0.1c0,0,0,0,0,0.1c0,0.2,0,0.2,0,0.3c0,0,0,0-0.1,0c0,0,0,0-0.1,0c0,0,0,0.1,0,0.2c0,0,0,0.1-0.1,0.2
		c0,0.1-0.1,0.1-0.1,0.2c0.1,0.1,0.1,0.2,0.1,0.2c-0.1,0-0.1,0-0.2,0.1c0,0-0.1,0.1-0.1,0.2c0.1,0.1,0.1,0.1,0.1,0.1
		c-0.2,0.1-0.2,0.1-0.2,0.2c0,0,0,0.1,0,0.1c0,0,0,0.1,0,0.1c-0.1,0-0.1,0.1-0.2,0.2s-0.1,0.2-0.1,0.2c0,0,0,0.1,0,0.1
		c0,0.1,0,0.1,0,0.1c0,0-0.1,0-0.1,0c-0.1,0-0.1,0.1-0.1,0.1c0,0,0,0.1,0,0.1c0,0-0.1,0-0.1,0c0,0-0.1,0-0.1,0c0,0-0.1,0.1-0.2,0.2
		h-0.3c0,0.1-0.1,0.1,0,0.3c-0.1,0-0.1,0-0.1,0c0,0,0,0,0,0c0,0.1,0,0.1,0,0.1c-0.1-0.1-0.1-0.2-0.2-0.2c0,0-0.1,0-0.1,0
		c0,0-0.1,0-0.1,0c0,0-0.1,0-0.1-0.1c0,0-0.1,0-0.1,0c-0.1,0.1-0.2,0.1-0.2,0.1c0-0.1,0-0.1,0-0.2s0-0.1,0-0.2c0,0-0.1,0-0.2,0
		c-0.1,0-0.1-0.1-0.2-0.2c0-0.1,0-0.1,0-0.1c-0.1,0.1-0.1,0.1-0.2,0v-0.1c0,0,0,0,0-0.1c0,0-0.1,0-0.1,0c0,0,0-0.1-0.1-0.1
		c0,0-0.1-0.1-0.1-0.1l-0.1,0c0,0-0.1-0.1-0.1-0.1c-0.1-0.1-0.2-0.2-0.3-0.2c0,0,0,0,0-0.1c0,0,0,0,0-0.1c0,0,0,0-0.1,0c0,0,0,0,0,0
		c0,0,0-0.1,0-0.1l-0.1-0.1c0-0.1-0.1-0.3-0.3-0.6c-0.1,0-0.1,0-0.1,0c0,0-0.1-0.1-0.1-0.3c-0.1-0.1-0.2-0.1-0.2-0.1
		c0-0.1,0-0.1-0.1-0.2c0-0.1,0-0.2-0.1-0.3c0,0-0.1-0.1-0.1-0.1c0-0.2-0.1-0.3-0.3-0.3c0,0,0-0.1,0-0.1s0-0.1,0-0.1c0,0,0,0-0.1-0.1
		c0,0-0.1,0-0.1-0.1c0,0-0.1-0.1-0.1-0.2c0-0.1-0.1-0.1-0.1-0.2c0-0.1,0-0.2-0.1-0.3v-0.1c0,0,0,0-0.1-0.1c-0.1,0-0.1-0.1-0.1-0.1
		c-0.1,0-0.1,0-0.1,0c0,0,0,0,0-0.1c0,0,0,0,0-0.1c0,0-0.1,0-0.1,0c0-0.1,0-0.2,0-0.2c0,0,0,0,0.1,0c0,0,0,0,0,0c0-0.1,0-0.1-0.2,0
		h-0.1c0-0.1,0-0.1,0-0.2c0-0.1,0-0.1,0-0.1c0,0,0,0-0.1-0.1l0,0c0-0.1,0-0.1-0.1-0.2l0-0.1c0,0,0-0.1,0-0.2c0,0,0-0.1-0.1-0.1
		c0,0-0.1,0-0.1,0c0-0.1,0-0.2-0.1-0.3c0-0.1,0-0.1-0.1-0.2c0,0-0.1,0-0.1,0c0-0.1,0-0.1-0.1-0.2c0-0.1,0-0.1-0.1-0.2
		c0-0.1-0.1-0.2-0.1-0.2c0-0.1-0.1-0.1-0.2-0.1c0,0,0-0.1,0-0.1c0-0.1,0-0.1,0-0.2c0,0-0.1,0-0.1-0.1c0,0,0,0-0.1-0.1
		c0-0.1,0-0.2,0-0.2c0-0.1-0.1-0.1-0.1-0.2c0,0-0.1-0.1-0.1-0.2c0-0.1,0-0.1-0.1-0.2c-0.1,0-0.1,0.1-0.2,0.3c0,0,0,0.1,0,0.1
		c0,0.1,0,0.1-0.1,0.1c0,0,0,0-0.1,0.1c0,0,0,0.1,0,0.1c0,0,0,0,0,0.1c0,0,0,0.1,0,0.1c0,0,0,0-0.1,0.1c0,0-0.1,0.1-0.1,0.2
		c0,0.1,0,0.1-0.1,0.2c0,0.1-0.1,0.1-0.2,0.2c0,0.1,0,0.2-0.1,0.3v0.1l-0.1,0.1c0,0,0,0,0,0.1c0,0,0,0,0,0.1c0,0-0.1,0.1-0.1,0.1
		c-0.1,0.1-0.1,0.2,0,0.2c0,0,0,0.1-0.1,0.1c0,0,0,0.1,0,0.2c0,0.1,0,0.1,0,0.2c0,0,0,0,0,0c0,0,0,0,0,0C75,54.7,75,54.8,75,54.8
		c0,0,0,0.1-0.1,0.3c-0.1,0.2-0.1,0.3,0,0.3c-0.1,0-0.2,0.1-0.2,0.2c0,0.1-0.1,0.2-0.1,0.2c0,0.1,0,0.1,0,0.1c0,0,0,0.1,0,0.1
		l-0.1,0.2c0,0,0,0.1,0.1,0.1c0.1,0,0.1,0.1,0.1,0.1h-0.1c0,0-0.1,0-0.1,0.1c0,0.1,0,0.1,0,0.2c0,0-0.1,0-0.1,0c0,0,0,0.1,0,0.2v0.2
		c0,0,0,0-0.1,0c-0.1,0-0.1,0.1-0.1,0.2c0,0.1,0,0.2,0,0.2c-0.1,0-0.1,0-0.2,0.1c0,0.1,0,0.2,0.1,0.2c0,0.1,0,0.1,0,0.1
		C74.1,58,74,58,74,58.1c0,0,0,0.1,0,0.2c0,0.1,0,0.2,0,0.3c0,0,0,0-0.1,0c-0.1,0-0.1,0.1,0,0.2c0,0.1,0,0.2,0,0.2
		c0,0-0.1,0.1-0.1,0.2c0,0.1,0,0.1,0.1,0.1c0,0,0,0.1,0,0.2c-0.1,0.1-0.1,0.1-0.1,0.2c0,0,0,0.1,0,0.1c0,0.1,0,0.1,0,0.1
		c0,0,0,0.1-0.1,0.1c0,0-0.1,0.1-0.1,0.1c-0.1,0-0.2,0-0.3,0.1c0,0.1-0.1,0.1-0.1,0.1c0,0,0,0.1,0,0.1c0,0,0,0.1,0,0.1
		c0,0,0,0-0.1,0h0c-0.1,0-0.1,0.1-0.1,0.2c0,0-0.1,0.1-0.1,0.2c-0.1,0-0.1,0-0.2,0c-0.3-0.2-0.4-0.2-0.4,0c0,0-0.1,0-0.2,0
		s-0.2,0-0.2,0c0,0,0-0.1,0-0.1c0-0.1-0.1-0.2-0.2-0.2c0-0.1,0-0.1-0.1-0.2c0-0.1,0-0.2-0.1-0.3c0,0,0-0.1-0.1-0.2l-0.1,0
		c0,0-0.1-0.1-0.1-0.2c0-0.1-0.1-0.1-0.2-0.1c0,0-0.1-0.1-0.1-0.1c0-0.1,0-0.2,0-0.3c0-0.1,0-0.2,0-0.3c0,0,0-0.1-0.1-0.1
		s-0.1-0.1-0.1-0.1c-0.1-0.2-0.1-0.3-0.2-0.3c0,0,0-0.1,0-0.2c0-0.2,0-0.3-0.2-0.3c0-0.2,0-0.3,0.1-0.3c0-0.1,0-0.2-0.1-0.3
		c0,0,0,0-0.1,0c0,0,0,0-0.1,0c0,0,0-0.1,0-0.1s0-0.1,0-0.1c0,0,0-0.1,0-0.1c0,0,0,0-0.1,0c0,0,0,0-0.1,0l0-0.1
		c-0.1-0.1-0.1-0.2-0.1-0.3c0-0.2,0-0.3,0-0.5c-0.1,0-0.2-0.1-0.2-0.3s-0.1-0.3-0.2-0.3c0-0.1,0-0.1,0-0.3c0.1-0.1,0-0.2-0.2-0.2
		c0-0.1-0.1-0.2,0-0.3c0-0.1,0-0.1,0-0.1c0,0,0,0,0-0.1c0,0,0,0-0.1-0.1c0,0,0-0.1,0-0.2s0-0.1,0-0.1c0,0,0,0-0.1-0.1
		c0,0,0-0.1-0.1-0.1c0-0.1,0-0.1-0.1-0.3s0-0.2-0.1-0.3c0,0-0.1,0-0.1,0l0.1-0.1c0-0.1,0-0.2-0.1-0.3c0,0-0.1,0-0.1,0
		c-0.1,0-0.1,0-0.2,0c0,0,0-0.1,0.1-0.2c0-0.1,0-0.1,0-0.2c0-0.1-0.1-0.1-0.1-0.1c0-0.2,0-0.3-0.2-0.3c0-0.1,0-0.2,0-0.3
		c-0.1-0.1-0.1-0.2-0.1-0.2c0,0,0,0-0.1,0c0,0,0-0.1,0-0.1c0,0,0,0,0-0.1c0,0-0.1,0-0.2,0c0,0,0-0.1,0-0.1s0-0.1,0-0.1
		c0,0,0,0-0.1,0c0,0,0,0,0,0c0,0,0-0.1,0-0.1c0-0.1,0.1-0.1,0.1-0.2c0,0-0.1,0-0.1-0.1c0,0,0-0.1-0.1-0.1c0,0,0-0.1,0-0.1
		c0,0,0-0.1-0.1-0.1c0,0-0.1-0.1-0.1-0.1v-0.1c0-0.1-0.1-0.1-0.1-0.2c0-0.1-0.1-0.2-0.1-0.2v-0.3c0-0.1,0-0.1-0.1-0.1
		c-0.1,0-0.1-0.1-0.1-0.1c-0.1,0-0.1,0-0.1,0c0-0.2-0.1-0.2-0.1-0.3c0.1,0,0.1-0.1,0.1-0.2c0-0.1-0.1-0.1-0.2-0.1c0,0,0-0.1,0-0.2
		c0-0.2,0-0.3-0.1-0.4c0-0.1,0-0.1-0.1-0.2c-0.1,0-0.1,0-0.1,0c0-0.1,0-0.2,0-0.4c0-0.2,0-0.3,0-0.3c0,0,0-0.1,0.1-0.1
		c0,0,0-0.1,0-0.1c0,0,0,0,0-0.1c0-0.1,0-0.1,0-0.1c0,0,0,0,0.1-0.1c0.1,0,0.1-0.1,0-0.1c0.2-0.1,0.3-0.2,0.2-0.3
		c0.1,0,0.2,0,0.2-0.1c0-0.1,0.1-0.1,0.1-0.2c0,0.1,0.1,0.1,0.2,0.1s0.2,0,0.3,0c0,0,0.1,0,0.1,0.1c0,0,0,0.1,0,0.1h0.3
		c0.1,0.1,0.2,0.2,0.4,0.2v0.1c0,0,0,0,0.1,0v0.1c0.1,0.1,0.2,0.2,0.2,0.3c0.1,0.1,0.2,0.1,0.2,0.1c0,0,0,0.1,0,0.1s0,0.1,0,0.1
		c0,0,0,0.1,0.1,0.1c0,0.1,0.1,0.1,0.1,0.1c0,0.1,0.1,0.1,0.2,0.1c0,0.1,0,0.1-0.1,0.2c0,0.1,0,0.1,0.1,0.2c0,0,0.1,0.1,0.1,0.1
		c-0.1,0.1-0.1,0.2-0.1,0.3c0,0,0.1,0.1,0.2,0.1c-0.1,0.2-0.1,0.2-0.1,0.3c0,0,0,0.1,0,0.1c0,0,0,0,0.1,0c0,0.1,0,0.2,0.1,0.2
		c0,0,0,0,0,0.1c0,0,0.1,0,0.1,0c0,0,0,0,0,0c0,0,0,0.1,0,0.3c0,0.2,0,0.2,0.1,0.2c0,0,0.1,0,0.1,0c0,0,0,0.1,0,0.2
		c0,0.1-0.1,0.1-0.1,0.2c0,0.1,0,0.1,0.1,0.1c0,0.1,0,0.2,0,0.2c0,0,0.1,0,0.2,0c0,0,0,0,0,0c0,0-0.1,0-0.1,0.1s0,0.1,0,0.1
		c0,0.1,0,0.1,0,0.2c0,0,0,0,0.1,0.1c0,0,0.1,0,0.1,0.1c0,0,0,0.1,0,0.1c0,0.1,0,0.1,0,0.1c0,0,0,0.1,0.1,0.1c0,0,0,0,0.1,0.1
		c0,0,0,0,0,0.1s0,0.1,0,0.1c0,0,0,0.1,0.1,0.1c0.1,0.1,0.1,0.1,0.1,0.1v0.2c0,0,0,0.1,0.1,0.1c0,0.1,0,0.2,0.2,0.4
		c0,0.1,0,0.2,0,0.2c0,0.1,0.1,0.2,0.1,0.2c0.1,0,0.1,0.1,0.1,0.3l0,0.1c0,0.1,0,0.1,0,0.2c0,0,0,0,0.2,0c0,0.1,0,0.1,0,0.2
		c0,0.1,0,0.1,0,0.1c0,0.1,0.1,0.1,0.2,0.1c0,0,0,0.1,0,0.1s0,0.1,0,0.1c0,0,0,0,0,0c0,0,0,0,0.1,0c0,0.1,0,0.2-0.1,0.3
		c0,0.1,0,0.2,0,0.2c0.1,0,0.1,0,0.2-0.1c0-0.2,0-0.4,0.1-0.4c0-0.1,0-0.2,0-0.2h0.1c0.1,0,0.1-0.1,0.1-0.2s0-0.2,0-0.2c0,0,0,0,0,0
		c0,0,0,0,0.1,0c0,0,0-0.1,0-0.2c0.1-0.1,0.1-0.1,0.2-0.2c0-0.1,0-0.2,0.1-0.2c0,0,0-0.1,0-0.2c0.2-0.3,0.4-0.6,0.4-0.8
		c0-0.1,0.1-0.1,0.1-0.1c0-0.1,0-0.1,0-0.2c0-0.1,0-0.1,0-0.2c0.1,0,0.2-0.2,0.2-0.5c0.2-0.3,0.3-0.5,0.3-0.7c0.1,0,0.1-0.1,0.1-0.1
		c0.1-0.1,0.1-0.2,0.1-0.3c0,0,0.1,0,0.1-0.1c0-0.1,0.1-0.1,0.2-0.2c0,0,0-0.1,0-0.1c0,0,0.1-0.1,0.1-0.1c0,0,0-0.1,0-0.1
		c0-0.1,0-0.1,0.1-0.2c0,0,0,0,0-0.1c0,0-0.1,0-0.1,0c0-0.1,0-0.2,0-0.3c0,0,0.1,0,0.2,0c0-0.1,0-0.1,0-0.2c0,0,0.1,0,0.1,0
		c0,0,0-0.1,0.1-0.1v-0.2c0,0,0-0.1,0.1-0.1c0,0,0.1-0.1,0.1-0.1c0,0,0-0.1,0-0.2c0,0,0-0.1,0.1-0.1c0-0.1,0.1-0.1,0.1-0.1
		s0,0,0-0.1c0,0,0,0,0-0.1c0.2-0.2,0.3-0.3,0.3-0.4c0.1,0,0.1-0.1,0.2-0.3c0,0,0.1,0,0.1,0.1c0.1,0,0.1-0.1,0.1-0.2
		c0.1,0,0.2,0,0.3,0c0,0,0-0.1,0.1-0.2c0,0,0.1,0,0.1,0c0,0,0.1,0,0.1,0c0,0,0.1,0.1,0.2,0.3c0,0,0,0,0-0.1v0c0,0,0,0,0.1,0
		c0,0.1,0,0.2,0.1,0.2c0.1-0.1,0.2-0.1,0.3-0.1c0,0.1,0,0.2,0.1,0.2c-0.1,0.1-0.1,0.2,0,0.2c0.1,0.1,0.2,0.1,0.2,0c0,0,0,0.1,0,0.1
		c0,0,0,0.1,0,0.1c0,0,0,0.1,0.1,0.2c0,0.1,0,0.1,0.1,0.2c0.1,0.2,0.1,0.3,0.1,0.3c0.1,0.1,0.1,0.1,0.1,0.1c0,0,0,0.1,0,0.1
		s0,0.1,0,0.1c0,0,0,0,0,0c0,0,0.1,0,0.1,0.1c0,0,0,0.1,0,0.1c0,0.1,0,0.1,0,0.1c0,0,0,0.1,0,0.1c0,0,0,0.1,0,0.1c0,0,0,0.1,0.1,0.1
		c0,0,0.1,0.1,0.1,0.1c0,0,0,0.1,0.1,0.2c0,0.1,0,0.1,0.1,0.1c0,0.2,0,0.3,0.1,0.4c0,0.2,0.1,0.3,0.2,0.5c0,0,0,0.1,0.1,0.2
		c0.1,0.1,0.1,0.2,0.1,0.3c0.1,0,0.1,0.1,0.1,0.2c0,0.1,0,0.2,0.1,0.2c0,0.1,0,0.2,0.2,0.3v0.1c0.1,0.1,0.2,0.2,0.2,0.3
		c0,0.1,0,0.2,0,0.2c0,0.1,0.1,0.1,0.1,0.1c0,0.1,0,0.1,0,0.1c0,0,0,0.1,0.1,0.1c0,0.1,0.1,0.1,0.1,0.1c0,0,0,0.1,0,0.1
		c0,0,0,0.1,0,0.1c0,0,0.1,0.1,0.2,0.1c0,0.1,0,0.1,0.1,0.2c0,0.1,0,0.1,0.1,0.2c0.1,0.1,0.1,0.1,0.1,0.1c0,0,0,0.1,0,0.1
		c0,0,0,0,0,0.1c0,0,0,0,0.1,0.1c0,0,0.1,0.1,0.1,0.1c0,0.1,0,0.2,0.2,0.2c0,0,0,0.1,0,0.1s0,0.1,0,0.1h0.1V54c0,0,0.1,0,0.1,0
		c0,0,0,0.1,0,0.1v0c-0.1,0.1-0.1,0.2,0,0.3c0,0.1,0.1,0.2,0.3,0.5c0,0.1,0,0.2,0.1,0.2c0,0,0.1,0,0.1,0c0,0,0.1,0,0.1,0
		c0,0.1,0,0.1,0,0.2c0,0,0.1,0,0.1,0.1c0,0.2,0.1,0.3,0.3,0.5c0,0.2,0.1,0.2,0.2,0.1c0.1-0.1,0.1-0.2,0.1-0.3c0,0,0.1,0,0.1,0
		c0,0,0-0.1,0-0.2c0,0,0-0.1,0-0.1c0.2,0,0.2-0.1,0.2-0.3c0-0.1,0-0.2,0-0.3c0,0,0.1,0,0.1,0c0.1,0,0.1,0,0.1,0s0-0.1,0-0.1
		c0-0.1,0-0.1,0-0.1c-0.1-0.1-0.1-0.2-0.1-0.2c0.1,0,0.2,0,0.2-0.2C82.4,54.2,82.4,54.2,82.4,54.1L82.4,54.1z M82.5,53.9
		c0.1,0,0.1,0,0.2-0.1c0,0,0,0,0-0.1c0,0,0,0,0-0.1c0,0,0-0.1,0-0.2c0-0.1,0-0.2,0-0.2c0,0,0,0,0.1-0.1c0,0,0-0.1-0.1-0.1
		c0,0-0.1,0-0.1-0.1c0,0,0,0,0.1,0s0.1,0,0.1,0c0-0.1,0.1-0.2,0.2-0.3c0-0.1,0.1-0.1,0.1-0.1c0-0.1,0-0.1,0-0.2c0,0,0-0.1,0-0.1H83
		c0-0.1,0-0.1,0.1-0.3s0-0.2,0.1-0.2c-0.1-0.2-0.1-0.3,0.2-0.4c0,0-0.1,0-0.1-0.1s0,0,0-0.1c0-0.1,0-0.2,0-0.4c0,0,0.1,0,0.1,0
		c0-0.3,0.1-0.5,0.3-0.6l-0.1-0.1c0-0.1,0-0.2,0-0.3c0,0,0.1-0.1,0.2-0.1c0-0.2,0-0.2,0.1-0.2c0-0.1,0-0.3,0-0.4
		c0-0.1,0.1-0.2,0.2-0.2l-0.1-0.3c0.1,0,0.2,0,0.2-0.1c0,0,0-0.1-0.1-0.1c0,0-0.1-0.1-0.1-0.1c0,0,0.1,0,0.1,0c0,0,0,0,0.1,0
		c0.1,0,0.1-0.1,0-0.2c0-0.1,0-0.2,0-0.2c0,0,0.1,0,0.1,0c0.1,0,0.1,0,0.1,0c0,0,0-0.1-0.1-0.1c0,0,0-0.1,0.1-0.1c0,0,0.1,0,0.1-0.1
		c0,0,0-0.1-0.1-0.3C84,47.1,84,47,84,47c0.1-0.1,0.2-0.2,0.1-0.3c0,0-0.1,0-0.1,0c0,0,0-0.1,0-0.2c0-0.1,0-0.1,0-0.1
		c0,0,0-0.2,0-0.4c0,0,0-0.1,0-0.1c0-0.1,0-0.1,0-0.1c-0.1-0.2-0.1-0.3,0-0.3c0,0,0.1-0.1,0.1-0.1c0-0.1,0-0.2,0-0.3
		c0-0.2,0-0.3,0.1-0.3c-0.1,0-0.1-0.1-0.1-0.1c0,0,0.1,0,0.1-0.1c0-0.1,0-0.1,0-0.2c0-0.1-0.1-0.1-0.1-0.2c0,0,0,0,0.1,0
		c0,0,0,0,0.1,0c0,0,0-0.1,0-0.1c0-0.1,0-0.1,0-0.1c0.1,0,0.1,0,0.2-0.1c0.1,0,0.1,0,0.2,0.1c0,0,0-0.1,0-0.2c0.1,0,0.2,0,0.3,0
		c0.1,0,0.2,0,0.3,0c0.1,0.1,0.2,0.1,0.3,0.1c0,0.1,0,0.1,0.1,0.1c0.1,0,0.2,0,0.3,0c0.1,0,0.2,0,0.3,0c0,0,0,0.1,0,0.2
		c0,0.1,0,0.1,0,0.1c0,0,0,0.1,0.1,0.2c0.1,0.1,0.1,0.1,0.2,0.2c0,0.1,0,0.1,0,0.2c0,0.1,0.1,0.1,0.1,0.2v0.1c0,0,0,0.1,0.1,0.2
		c0.1,0.1,0.1,0.2,0.1,0.2c0,0.1,0,0.2,0.1,0.3c0,0.2,0,0.3,0.1,0.3c0,0,0,0.1,0,0.2c-0.1,0.1-0.1,0.2-0.1,0.3c0,0.2,0,0.3,0,0.4
		c0.1,0,0.1,0.1,0,0.3c0,0.1,0.1,0.1,0,0.1c0,0,0,0.1-0.1,0.1c-0.1,0-0.1,0.1-0.1,0.1c0,0,0,0.1,0.1,0.1c0,0.1,0.1,0.1,0.1,0.2
		c0,0.1,0,0.1,0,0.2c0,0.1,0,0.2,0,0.2c0,0.1,0,0.1,0,0.1c0,0-0.1,0.1-0.2,0.1c0,0,0,0.1,0,0.2c0,0.1,0,0.1,0,0.2
		c0.1,0.1,0.1,0.1,0.1,0.2c-0.1,0-0.1,0-0.2,0c0,0.1,0,0.1,0,0.2c0,0,0,0.2,0,0.5c-0.2,0.1-0.2,0.2-0.1,0.4c-0.2,0.1-0.2,0.2,0,0.3
		c0,0.1,0,0.1,0,0.1c0,0,0,0-0.1,0c0,0.1,0,0.1,0,0.1c-0.1,0.1-0.2,0.1-0.2,0.1c0,0.1,0,0.1,0,0.2c-0.1,0-0.1,0.1-0.1,0.2
		c0,0.1,0,0.2,0.1,0.2c0,0.1,0,0.2,0,0.3c-0.2,0-0.2,0.1-0.2,0.3c0.1,0.1,0.1,0.2,0.1,0.2c-0.1,0-0.2,0.1-0.2,0.2c0,0.1,0,0.2,0,0.3
		c-0.1,0-0.2,0.1-0.2,0.3c0,0,0,0.1,0,0.1c0,0,0,0.1,0.1,0.1c0,0,0,0.1,0,0.2c0,0.1,0,0.1,0,0.2c-0.2,0.1-0.2,0.2-0.2,0.3
		c-0.1,0.1-0.1,0.2-0.1,0.4c0,0,0,0.1,0.1,0.1c0,0,0.1,0.1,0.1,0.1h-0.1c0,0-0.1,0-0.1,0.1c0,0.1-0.1,0.1-0.1,0.2c0,0.1,0,0.1,0,0.2
		c0,0.1,0,0.2,0,0.2c0,0-0.1,0.1-0.1,0.1c-0.1,0.1-0.1,0.1-0.1,0.1c0,0.1,0,0.1-0.1,0.2c-0.1,0.1,0,0.2,0.1,0.2c0,0.1,0,0.2,0,0.2
		c-0.1,0-0.2,0-0.2,0c0,0.1,0,0.2-0.1,0.2c0,0,0,0.1,0,0.1c0,0,0,0.1,0,0.2c0,0.1,0,0.1,0,0.2c0,0,0,0.1-0.1,0.2
		c-0.1,0.1-0.1,0.1,0,0.2c0,0-0.1,0-0.1,0.1c0,0,0,0,0,0.1c0,0.2,0,0.2,0,0.3c0,0,0,0-0.1,0c0,0,0,0-0.1,0c0,0,0,0.1,0,0.2
		c0,0,0,0.1-0.1,0.2c0,0.1-0.1,0.1-0.1,0.2c0.1,0.1,0.1,0.2,0.1,0.2c-0.1,0-0.1,0-0.2,0.1c0,0-0.1,0.1-0.1,0.2
		c0.1,0.1,0.1,0.1,0.1,0.1c-0.2,0.1-0.2,0.1-0.2,0.2c0,0,0,0.1,0,0.1c0,0,0,0.1,0,0.1c-0.1,0-0.1,0.1-0.2,0.2s-0.1,0.2-0.1,0.2
		c0,0,0,0.1,0,0.1c0,0.1,0,0.1,0,0.1c0,0-0.1,0-0.1,0c0,0-0.1,0.1-0.1,0.1c0,0,0,0.1,0,0.1c0,0-0.1,0-0.1,0c0,0-0.1,0-0.1,0
		c0,0-0.1,0.1-0.2,0.2h-0.3c0,0.1-0.1,0.1,0,0.3c-0.1,0-0.1,0-0.1,0c0,0,0,0,0,0c0,0.1,0,0.1,0,0.1c-0.1-0.1-0.1-0.2-0.2-0.2
		c0,0-0.1,0-0.1,0c0,0-0.1,0-0.1,0c0,0-0.1,0-0.1-0.1c0,0-0.1,0-0.1,0c-0.1,0.1-0.2,0.1-0.2,0.1c0-0.1,0-0.1,0-0.2s0-0.1,0-0.2
		c0,0-0.1,0-0.2,0c-0.1,0-0.1-0.1-0.2-0.2c0-0.1,0-0.1,0-0.1c-0.1,0.1-0.1,0.1-0.2,0v-0.1c0,0,0,0,0-0.1c0,0-0.1,0-0.1,0
		c0,0,0-0.1-0.1-0.1c0,0-0.1-0.1-0.1-0.1l-0.1,0c0,0-0.1-0.1-0.1-0.1c-0.1-0.1-0.2-0.2-0.3-0.2c0-0.1,0-0.1,0-0.1c0,0,0,0-0.1,0
		c0,0,0,0,0,0c0,0,0-0.1,0-0.1l-0.1-0.1c0-0.1-0.1-0.3-0.3-0.6c-0.1,0-0.1,0-0.1,0c0,0-0.1-0.1-0.1-0.3c-0.1-0.1-0.2-0.1-0.2-0.1
		c0-0.1,0-0.1-0.1-0.2c0-0.1,0-0.2-0.1-0.3c0,0-0.1-0.1-0.1-0.1c0-0.2-0.1-0.3-0.3-0.3c0,0,0-0.1,0-0.1s0-0.1,0-0.1c0,0,0,0-0.1-0.1
		c0,0-0.1,0-0.1-0.1c0,0-0.1-0.1-0.1-0.2c0-0.1-0.1-0.1-0.1-0.2c0-0.1,0-0.2-0.1-0.2v-0.2c0,0,0,0-0.1-0.1c-0.1,0-0.1-0.1-0.1-0.1
		c-0.1,0-0.1,0-0.1,0c0,0,0,0,0-0.1c0,0,0,0,0-0.1c0,0-0.1,0-0.1,0c0-0.1,0-0.2,0-0.2c0,0,0,0,0.1,0c0,0,0,0,0,0c0-0.1,0-0.1-0.2,0
		h-0.1c0-0.1,0-0.1,0-0.2c0-0.1,0-0.1,0-0.1c0,0,0,0-0.1-0.1l0,0c0-0.1,0-0.1-0.1-0.2l0-0.1c0,0,0-0.1,0-0.2c0,0,0-0.1-0.1-0.1
		c0,0-0.1,0-0.1,0c0,0,0-0.1-0.1-0.3c0-0.1,0-0.1-0.1-0.2c0,0-0.1,0-0.1,0c0-0.1,0-0.1-0.1-0.2c0-0.1,0-0.1-0.1-0.2
		c0-0.1-0.1-0.2-0.1-0.2c0-0.1-0.1-0.1-0.2-0.1c0,0,0-0.1,0-0.1c0-0.1,0-0.1,0-0.2c0,0-0.1,0-0.1-0.1c0,0,0,0,0-0.1
		c0-0.1,0-0.2-0.1-0.2c0-0.1-0.1-0.1-0.1-0.2c0,0-0.1-0.1-0.1-0.2c0-0.1,0-0.1-0.1-0.2c-0.1,0-0.1,0.1-0.2,0.3c0,0,0,0.1,0,0.1
		c0,0.1,0,0.1-0.1,0.1c0,0,0,0-0.1,0.1c0,0,0,0.1,0,0.1c0,0,0,0,0,0.1c0,0,0,0.1,0,0.1c0,0,0,0-0.1,0.1c0,0-0.1,0.1-0.1,0.2
		c0,0.1,0,0.1-0.1,0.2c0,0.1-0.1,0.1-0.2,0.2c0,0.1,0,0.2-0.1,0.3v0.1c0,0,0,0.1-0.1,0.1c0,0,0,0.1,0,0.1c0,0-0.1,0.1-0.1,0.1
		c-0.1,0.1-0.1,0.2,0,0.2c0,0,0,0.1-0.1,0.1c0,0,0,0.1,0,0.2c0,0.1,0,0.1,0,0.2c0,0,0,0,0,0c0,0,0,0,0,0C75,54.7,75,54.8,75,54.8
		c0,0,0,0.1-0.1,0.3c-0.1,0.2-0.1,0.3,0,0.3c-0.1,0-0.2,0.1-0.2,0.2c0,0.1-0.1,0.2-0.1,0.2c0,0.1,0,0.1,0,0.1c0,0,0,0.1,0,0.1
		l-0.1,0.2c0,0,0,0.1,0.1,0.1c0.1,0,0.1,0.1,0.1,0.1h-0.1c0,0-0.1,0-0.1,0.1c0,0.1,0,0.1,0,0.2c0,0-0.1,0-0.1,0c0,0,0,0.1,0,0.2v0.2
		c0,0,0,0-0.1,0c-0.1,0-0.1,0.1-0.1,0.2c0,0.1,0,0.2,0,0.2c-0.1,0-0.1,0-0.2,0.1c0,0.1,0,0.2,0.1,0.2c0,0.1,0,0.1,0,0.1
		C74.1,58,74,58,74,58.1c0,0,0,0.1,0,0.2c0,0.1,0,0.2,0,0.3c0,0,0,0-0.1,0c-0.1,0-0.1,0.1,0,0.2c0,0.1,0,0.2,0,0.2
		c0,0-0.1,0.1-0.1,0.2c0,0.1,0,0.1,0.1,0.1c0,0,0,0.1,0,0.2c-0.1,0.1-0.1,0.1-0.2,0.2c0,0,0,0.1,0,0.1c0,0.1,0,0.1,0,0.1
		c0,0,0,0.1-0.1,0.1c0,0-0.1,0.1-0.1,0.1c-0.1,0-0.2,0-0.3,0.1c0,0.1-0.1,0.1-0.1,0.1c0,0,0,0.1,0,0.1c0,0,0,0.1,0,0.1
		c0,0,0,0-0.1,0h0c-0.1,0-0.1,0.1-0.1,0.2c0,0-0.1,0.1-0.1,0.2c-0.1,0-0.1,0-0.2,0c-0.3-0.2-0.4-0.2-0.4,0c0,0-0.1,0-0.2,0
		s-0.2,0-0.2,0c0,0,0-0.1,0-0.1c0-0.1-0.1-0.2-0.2-0.2c0-0.1,0-0.1-0.1-0.2c0-0.1,0-0.2-0.1-0.3c0,0,0-0.1-0.1-0.2l-0.1,0
		c0,0-0.1-0.1-0.1-0.2c0-0.1-0.1-0.1-0.2-0.1c0,0-0.1-0.1-0.1-0.1c0-0.1,0-0.2,0-0.3c0-0.1,0-0.2,0-0.3c0,0,0-0.1-0.1-0.1
		s-0.1-0.1-0.1-0.1c-0.1-0.2-0.1-0.3-0.2-0.3c0,0,0-0.1,0-0.2c0-0.2,0-0.3-0.2-0.3c0-0.2,0-0.3,0-0.3c0-0.1,0-0.2-0.1-0.3
		c0,0,0,0-0.1,0c0,0,0,0-0.1,0c0,0,0-0.1,0-0.1s0-0.1,0-0.1c0,0,0-0.1,0-0.1c0,0,0,0-0.1,0c0,0,0,0-0.1,0l0-0.1
		c-0.1-0.1-0.1-0.2-0.1-0.3c0-0.2,0-0.3,0-0.5c-0.1,0-0.2-0.1-0.2-0.3s-0.1-0.3-0.2-0.3c0-0.1,0-0.1,0-0.3c0.1-0.1,0-0.2-0.2-0.2
		c0-0.1-0.1-0.2,0-0.3c0-0.1,0-0.1,0-0.1c0,0,0,0,0-0.1c0,0,0,0-0.1-0.1c0,0,0-0.1,0-0.2s0-0.1,0-0.1c0,0,0,0-0.1-0.1
		c0,0,0-0.1-0.1-0.1c0-0.1,0-0.1-0.1-0.3s0-0.2-0.1-0.3c0,0-0.1,0-0.1,0l0.1-0.1c0-0.1,0-0.2-0.1-0.3c0,0-0.1,0-0.1,0
		c-0.1,0-0.1,0-0.2,0c0,0,0-0.1,0.1-0.2c0-0.1,0-0.1,0-0.2c0-0.1-0.1-0.1-0.1-0.1c0-0.2,0-0.3-0.2-0.3c0-0.1,0-0.2,0-0.3
		c-0.1-0.1-0.1-0.2-0.1-0.2c0,0,0,0-0.1,0c0,0,0-0.1,0-0.1c0,0,0,0,0-0.1c0,0-0.1,0-0.2,0c0,0,0-0.1,0-0.1s0-0.1,0-0.1
		c0,0,0,0-0.1,0c0,0,0,0,0,0c0,0,0-0.1,0-0.1c0-0.1,0.1-0.1,0.1-0.2c0,0-0.1,0-0.1-0.1c0,0,0-0.1-0.1-0.1c0,0,0-0.1,0-0.1
		c0,0,0-0.1-0.1-0.1c0,0-0.1-0.1-0.1-0.1v-0.1c0-0.1-0.1-0.1-0.1-0.2c0-0.1-0.1-0.2-0.1-0.2v-0.3c0-0.1,0-0.1-0.1-0.1
		c-0.1,0-0.1-0.1-0.1-0.1c-0.1,0-0.1,0-0.1,0c0-0.2-0.1-0.2-0.1-0.3c0.1,0,0.1-0.1,0.1-0.2c0-0.1-0.1-0.1-0.2-0.1c0,0,0-0.1,0-0.2
		c0-0.2,0-0.3-0.1-0.4c0-0.1,0-0.1-0.1-0.2c-0.1,0-0.1,0-0.1,0c0-0.1,0-0.2,0-0.4c0-0.2,0-0.3,0-0.3c0,0,0.1-0.1,0.1-0.2
		c0,0,0-0.1,0-0.1c0-0.1,0-0.1,0-0.1c0,0,0,0,0.1-0.1c0.1,0,0.1-0.1,0-0.1c0.2-0.1,0.3-0.2,0.2-0.3c0.1,0,0.2,0,0.2-0.1
		c0-0.1,0.1-0.1,0.1-0.2c0,0.1,0.1,0.1,0.2,0.1s0.2,0,0.3,0c0,0,0.1,0,0.1,0.1c0,0,0,0.1,0,0.1h0.3c0.1,0.1,0.2,0.2,0.4,0.2v0.1
		c0,0,0,0,0.1,0v0.1c0.1,0,0.2,0.1,0.2,0.3c0.1,0.1,0.2,0.1,0.2,0.1c0,0,0,0.1,0,0.1s0,0.1,0,0.1c0,0,0,0.1,0.1,0.1
		c0,0.1,0.1,0.1,0.1,0.1c0,0.1,0.1,0.1,0.2,0.1c0,0.1,0,0.1-0.1,0.2c0,0.1,0,0.1,0.1,0.2c0,0,0.1,0.1,0.1,0.1
		c-0.1,0.1-0.1,0.2-0.1,0.3c0,0,0.1,0.1,0.2,0.1c-0.1,0.2-0.1,0.2-0.1,0.3c0,0,0,0.1,0,0.1c0,0,0,0,0.1,0c0,0.1,0,0.2,0.1,0.2
		c0,0,0,0,0,0.1c0,0,0.1,0,0.1,0c0,0,0,0,0,0c0,0,0,0.1,0,0.3c0,0.2,0,0.2,0.1,0.2c0,0,0.1,0,0.1,0c0,0,0,0.1,0,0.2
		c0,0.1-0.1,0.1-0.1,0.2c0,0.1,0,0.1,0.1,0.1c0,0.1,0,0.2,0,0.2c0,0,0.1,0,0.2,0c0,0,0,0,0,0c0,0-0.1,0-0.1,0.1s0,0.1,0,0.1
		c0,0.1,0,0.1,0,0.2c0,0,0,0,0.1,0.1c0,0,0.1,0,0.1,0.1c0,0,0,0.1,0,0.1c0,0.1,0,0.1,0,0.1c0,0,0,0.1,0.1,0.1c0,0,0,0,0.1,0.1
		c0,0,0,0,0,0.1s0,0.1,0,0.1c0,0,0,0.1,0.1,0.1c0.1,0.1,0.1,0.1,0.1,0.2v0.1c0,0,0,0.1,0.1,0.1c0,0.1,0,0.2,0.2,0.4
		c0,0.1,0,0.2,0,0.2c0,0.1,0.1,0.2,0.1,0.2c0.1,0,0.1,0.1,0.1,0.3l0,0.1c0,0.1,0,0.1,0,0.2c0,0,0,0,0.2,0c0,0.1,0,0.1,0,0.2
		c0,0.1,0,0.1,0,0.1c0,0.1,0.1,0.1,0.2,0.1c0,0,0,0.1,0,0.1s0,0.1,0,0.1c0,0,0,0,0,0c0,0,0,0,0.1,0c0,0.1,0,0.2-0.1,0.3
		c0,0.1,0,0.2,0,0.2c0.1,0,0.1,0,0.2-0.1c0-0.2,0-0.4,0.1-0.4c0-0.1,0-0.2,0-0.2h0.1c0.1,0,0.1-0.1,0.1-0.2s0-0.2,0-0.2c0,0,0,0,0,0
		c0,0,0,0,0.1,0c0,0,0-0.1,0-0.2c0,0,0,0,0.1,0c0,0,0-0.1,0.1-0.1c0-0.1,0-0.2,0.1-0.2c0,0,0-0.1,0-0.2c0.2-0.3,0.4-0.6,0.4-0.8
		c0-0.1,0.1-0.1,0.1-0.1c0-0.1,0-0.1,0-0.2c0-0.1,0-0.1,0-0.2c0.1,0,0.2-0.2,0.2-0.5c0.2-0.3,0.3-0.5,0.3-0.7c0.1,0,0.1-0.1,0.1-0.1
		c0.1-0.1,0.1-0.2,0.1-0.3c0,0,0.1,0,0.1-0.1c0-0.1,0.1-0.1,0.2-0.2c0,0,0-0.1,0-0.1c0,0,0.1-0.1,0.1-0.1c0,0,0-0.1,0-0.1
		c0-0.1,0-0.1,0.1-0.2c0,0,0,0,0-0.1c0,0-0.1,0-0.1,0c0-0.1,0-0.2,0-0.3c0,0,0.1,0,0.2,0c0-0.1,0-0.1,0-0.2c0,0,0.1,0,0.1,0
		c0,0,0-0.1,0.1-0.1v-0.2c0,0,0-0.1,0.1-0.1c0,0,0.1-0.1,0.1-0.1c0,0,0-0.1,0-0.2c0,0,0-0.1,0.1-0.1c0-0.1,0.1-0.1,0.1-0.1
		s0,0,0-0.1c0,0,0,0,0-0.1c0.2-0.2,0.3-0.3,0.3-0.4c0.1,0,0.1-0.1,0.2-0.3c0,0,0.1,0,0.1,0.1c0.1,0,0.1-0.1,0.1-0.2
		c0.1,0,0.2,0,0.3,0c0,0,0-0.1,0.1-0.2c0,0,0.1,0,0.1,0c0,0,0.1,0,0.1,0c0,0,0.1,0.1,0.2,0.3c0,0,0,0,0-0.1v0c0,0,0,0,0.1,0
		c0,0.1,0,0.2,0.1,0.2c0.1-0.1,0.2-0.1,0.3-0.1c0,0.1,0,0.2,0.1,0.2c-0.1,0.1-0.1,0.2,0,0.2c0.1,0.1,0.2,0.1,0.2,0c0,0,0,0.1,0,0.1
		c0,0,0,0.1,0,0.1c0,0,0,0.1,0.1,0.2c0,0.1,0,0.1,0.1,0.2c0.1,0.2,0.1,0.3,0.1,0.3c0.1,0.1,0.1,0.1,0.1,0.1c0,0,0,0.1,0,0.1
		s0,0.1,0,0.1c0,0,0,0,0,0c0,0,0.1,0,0.1,0c0,0,0,0.1,0,0.1c0,0.1,0,0.1,0,0.1c0,0,0,0.1,0,0.1c0,0,0,0.1,0,0.1c0,0,0,0.1,0.1,0.1
		c0,0,0.1,0.1,0.1,0.1c0,0,0,0.1,0.1,0.2c0,0.1,0,0.1,0.1,0.1c0,0.2,0,0.3,0.1,0.4c0,0.2,0.1,0.3,0.2,0.5c0,0,0,0.1,0.1,0.2
		c0.1,0.1,0.1,0.2,0.1,0.3c0.1,0,0.1,0.1,0.1,0.2c0,0.1,0,0.2,0.1,0.2c0,0.1,0,0.2,0.2,0.3v0.1c0.1,0.1,0.2,0.2,0.2,0.3
		c0,0.1,0,0.2,0.1,0.2c0,0.1,0,0.1,0.1,0.1c0,0.1,0,0.1,0,0.1c0,0,0,0.1,0.1,0.1c0,0.1,0.1,0.1,0.1,0.1c0,0,0,0.1,0,0.1
		c0,0,0,0.1,0,0.1c0,0,0.1,0.1,0.2,0.1c0,0.1,0,0.1,0.1,0.2c0,0.1,0,0.1,0.1,0.2c0.1,0.1,0.1,0.1,0.1,0.1c0,0,0,0.1,0,0.1
		c0,0,0,0,0,0.1c0,0,0,0,0.1,0.1c0,0,0.1,0.1,0.1,0.1c0,0.1,0,0.2,0.2,0.2c0,0,0,0.1,0,0.1s0,0.1,0,0.1h0.1V54c0,0,0.1,0,0.1,0
		c0,0,0,0.1,0,0.1v0c-0.1,0.1-0.1,0.2,0,0.3c0,0.1,0.1,0.2,0.3,0.5c0,0.1,0,0.2,0.1,0.2c0,0,0.1,0,0.1,0c0,0,0.1,0,0.1,0
		c0,0.1,0,0.1,0,0.2c0,0,0.1,0,0.1,0.1c0,0.2,0.1,0.3,0.3,0.5c0,0.2,0.1,0.2,0.2,0.1c0.1-0.1,0.1-0.2,0.1-0.3c0,0,0.1,0,0.1,0
		c0,0,0-0.1,0-0.2c0,0,0-0.1,0-0.1c0.2,0,0.2-0.1,0.2-0.3c0-0.1,0-0.2,0-0.3c0,0,0.1,0,0.1,0c0.1,0,0.1,0,0.1,0s0-0.1,0-0.1
		c0-0.1,0-0.1,0-0.1c-0.1-0.1-0.1-0.2-0.1-0.2c0.1,0,0.2,0,0.2-0.1c0.1-0.1,0.1-0.2,0.1-0.2v-0.1C82.5,54,82.5,53.9,82.5,53.9z
		 M72.4,53.9C72.5,53.9,72.5,53.9,72.4,53.9C72.4,54,72.4,53.9,72.4,53.9C72.4,53.9,72.4,53.9,72.4,53.9
		C72.4,53.8,72.4,53.9,72.4,53.9z M72.4,53.8C72.4,53.8,72.4,53.9,72.4,53.8C72.5,53.9,72.5,53.9,72.4,53.8
		C72.4,54,72.4,53.9,72.4,53.8C72.4,53.9,72.4,53.9,72.4,53.8z M86.4,48.2C86.4,48.2,86.4,48.3,86.4,48.2
		C86.4,48.3,86.4,48.3,86.4,48.2L86.4,48.2z M86.4,48.3L86.4,48.3C86.4,48.2,86.4,48.3,86.4,48.3C86.4,48.3,86.4,48.3,86.4,48.3z"/>
</g>
</svg>
