<?xml version="1.0" encoding="utf-8"?>
<!-- Generator: Adobe Illustrator 19.0.1, SVG Export Plug-In . SVG Version: 6.00 Build 0)  -->
<svg version="1.1" xmlns="http://www.w3.org/2000/svg" xmlns:xlink="http://www.w3.org/1999/xlink" x="0px" y="0px"
	 viewBox="0 0 100 100" enable-background="new 0 0 100 100" xml:space="preserve">
<g id="Layer_1">
	<g>
		<g>
			<path fill="#D93427" d="M24.8,52.6c7.7-7.2,14.7-12,22.5-19.1c1.9-1.8,3.9-3.6,6.4-4.4c1.6-0.5,3.3-0.5,5-0.5c3.2,0,6.5,0,9.7,0
				c0.5,0,1.5-0.2,1.9,0.1c0.4,0.4-1.4,3.6-2.5,5.2"/>
		</g>
		<g>
			<g>
				<path fill="#D93427" d="M24.8,52.6c8.2,2.1,17.7,7.5,26,9.6c0.6,0.2,1.3,0.3,1.9,0c0.5-0.3,0.8-0.8,1-1.3
					C59,50.7,64.4,40.5,69.7,30.3"/>
			</g>
			<g>
				<path fill="#D93427" d="M24.2,54.7c8.7,4.1,17.2,6.1,26.3,9.2c0.4,0.1,3.1,0.4,3.1,0.7c-0.2,2.5,0.3,7.4,0.1,9.8
					c0,0.3-3.5,0.1-3.9,0c-9-1.5-17.4-5.4-25.4-9.8c-0.3-0.2-0.7-0.4-0.9-0.7c-0.3-0.4-0.2-0.9-0.2-1.4c0.2-2.5,0.2-3.7,0.5-6.1"/>
			</g>
			<g>
				<path fill="#D93427" d="M55,62.6c0.1,3.3-0.2,6.6,0.7,9.8c0.2,0.6,0.4,1.2,1,1.4c0.7,0.2,2.2-0.6,2.6-1.3
					c6.8-10.7,8.1-15.4,13-27.2c1.8-4.3,2.3-5.8,2.6-9.3c-0.9-4.1-2.4-5.9-3.6-6.9c-0.5,1.5-1.3,2.9-1.6,3.9
					c-0.8,2.6-2.9,6.1-3.8,7.8C61.3,49.3,59.7,54.2,55,62.6"/>
			</g>
		</g>
	</g>
</g>
<g id="Layer_2" display="none">
	<circle display="inline" fill="none" stroke="#231F20" stroke-miterlimit="10" cx="50" cy="50" r="50"/>
</g>
</svg>
