<?xml version="1.0" encoding="utf-8"?>
<!-- Generator: Adobe Illustrator 19.0.1, SVG Export Plug-In . SVG Version: 6.00 Build 0)  -->
<svg version="1.1" id="Layer_1" xmlns="http://www.w3.org/2000/svg" xmlns:xlink="http://www.w3.org/1999/xlink" x="0px" y="0px"
	 viewBox="0 0 100 100" enable-background="new 0 0 100 100" xml:space="preserve">
<g>
	<path fill="#D93427" d="M17.6,42.8c0.5,0.1,0.8,0,0.8-0.2c0,0,0.1,0,0.4,0c0,0,0,0,0,0.1c0,0,0,0,0,0.1c0,0,0.1,0,0.2,0
		c0.1,0,0.1,0,0.1,0.1c0.1,0,0.2,0,0.4,0.1c0.4,0,0.7,0.1,0.8,0.2h0.1c0.1,0.1,0.2,0.1,0.3,0.2c0.1,0.1,0.2,0.2,0.3,0.2v0.1
		c0.2,0.1,0.3,0.3,0.4,0.7c0,0,0.1,0.1,0.1,0.1c0.1,0.2,0,0.3,0,0.4c0,0.1,0,0.2,0,0.3c-0.1,0.1-0.1,0.1-0.1,0.2
		c-0.1,0.1-0.1,0.1-0.1,0.1c0,0.1,0,0.2-0.1,0.3c0,0.1,0,0.1,0,0.1c0,0-0.1,0.1-0.1,0.1c0,0,0,0-0.1,0c0,0,0,0-0.1,0
		c0,0,0,0.1-0.1,0.1c-0.1,0-0.1,0-0.2,0c0,0,0,0.1-0.1,0.1c0,0,0,0.1-0.1,0.1c-0.1,0-0.2,0-0.2,0c0,0.1,0,0.1,0,0.1c0,0-0.1,0-0.2,0
		c-0.1,0-0.1,0-0.2,0c0,0-0.1,0-0.1,0c0,0-0.1,0-0.1,0c0,0,0-0.1,0.1-0.1c0,0-0.1-0.1-0.1-0.1c0-0.1-0.1-0.1-0.1-0.1
		c0,0-0.1,0.1-0.1,0.1c0,0-0.1,0-0.1,0c0-0.1,0-0.1-0.1-0.2c-0.1-0.1-0.1-0.1-0.2-0.1c0,0,0,0.1,0,0.1c0,0,0,0.1,0,0.1
		c0,0-0.1-0.1-0.1-0.1c0,0,0-0.1-0.1-0.1c0,0,0,0-0.1-0.1c0-0.2-0.2-0.2-0.5-0.2c-0.1,0-0.1,0-0.2,0.1c-0.1,0-0.1,0-0.2,0
		c-0.1,0-0.1,0-0.2,0c0,0-0.1,0.1-0.1,0.1c-0.1,0-0.2,0-0.4,0c-0.3,0.1-0.4,0.1-0.5,0.2c-0.2-0.1-0.3-0.1-0.3,0c-0.1,0-0.2,0-0.3,0
		c-0.1,0-0.2,0-0.2,0c0,0,0,0.1,0,0.1c-0.1,0-0.2,0-0.2,0c-0.1-0.1-0.2-0.1-0.2,0c0,0-0.1,0-0.1,0.1c0,0-0.1,0.1-0.1,0.1
		c-0.1,0-0.1,0-0.2,0c-0.1,0-0.1,0-0.2,0c0,0-0.1,0-0.1,0.1c0,0-0.1,0-0.1,0c-0.1,0-0.1,0-0.1,0l0,0.1c-0.3,0-0.4,0-0.5,0
		c0,0,0,0,0,0.1s0,0,0,0.1c-0.2-0.1-0.4-0.1-0.6,0.2c0,0-0.1,0-0.1-0.1c-0.1,0-0.1,0.1,0,0.2c0,0.1,0,0.1,0.1,0.1s0,0.1,0,0.1
		c0,0,0,0.1,0,0.1c0,0.1,0,0.1,0,0.1c0,0.1,0,0.2,0.1,0.2c0,0.1,0,0.2,0.1,0.3c0.1,0.1,0.1,0.2,0,0.3c0,0.1,0,0.2,0.1,0.3
		c0,0,0,0,0,0.1c0,0,0,0,0,0.1c0,0.1,0,0.1,0,0.2c0,0.1,0.1,0.1,0.1,0.1c0,0.6,0,0.9,0,0.9c-0.1,0.1-0.1,0.3,0,0.5c0,0,0,0.1,0,0.2
		c0,0,0,0.1-0.1,0.1c0,0.1,0,0.1,0,0.2c0.1,0.1,0.1,0.1,0.1,0.1s0,0.1,0,0.1c0,0,0,0.1,0,0.1c0,0.1,0,0.2,0,0.5c0,0.2,0,0.4,0,0.5
		c0,0,0,0.1,0,0.2c0,0.1,0.1,0.1,0.2,0.1c0.1,0,0.2-0.1,0.2-0.1c0.3,0,0.4,0,0.5-0.1c0.3,0,0.5,0,0.5,0c0.2,0,0.3,0,0.4,0
		c0,0,0.1,0,0.1-0.1c0.1,0,0.1-0.1,0.1-0.1c0,0,0.1,0,0.2,0c0.2,0,0.3,0,0.3-0.1c0.2,0.1,0.3,0,0.5,0c0,0,0.1,0,0.1,0
		c0,0,0.1,0,0.1,0c0,0,0.1,0,0.1,0c0.1,0,0.1,0,0.1,0c0.1,0,0.3,0,0.4,0c0,0,0-0.1,0-0.1c0.1,0.1,0.2,0.1,0.4,0
		c0.2,0,0.3-0.1,0.3-0.1c0.1,0,0.1,0,0.2,0c0.1,0,0.1-0.1,0.1-0.1c0,0,0,0,0.1,0s0,0,0.1,0.1c0,0,0.1,0,0.2-0.1
		c0.1-0.1,0.2-0.1,0.2-0.1c0.1-0.1,0.1-0.1,0.1-0.1c0,0,0.1,0,0.1,0.1c0.2,0,0.4,0,0.4-0.1c0.1,0,0.1,0,0.2,0c0.1,0,0.1,0,0.2,0
		s0.1,0,0.2,0.1c0.1,0,0.2,0.1,0.2,0.1c0.1,0,0.2,0.1,0.2,0.2c0.1,0,0.1,0,0.2,0c0,0,0,0,0.1,0c0,0,0,0.1,0.1,0.1c0.2,0,0.3,0,0.4,0
		c0,0,0,0.1,0.1,0.2c0,0,0,0.1,0,0.1c0,0.1,0.1,0.1,0.2,0.3c0,0.2,0.1,0.3,0.2,0.4c0,0,0,0.1-0.1,0.1c0,0.1,0,0.2-0.1,0.3
		c-0.1,0.1-0.1,0.2-0.1,0.3h-0.1c0,0,0,0,0,0.1s0,0,0,0.1c0,0-0.1,0-0.1,0h0l-0.1,0c0,0-0.1,0-0.1-0.1c0,0-0.1,0-0.1,0
		s-0.1,0-0.1,0.1c0,0-0.1,0-0.1,0c0,0.1-0.1,0.1-0.3,0.2c-0.2,0.1-0.3,0.1-0.3,0.2c-0.2,0-0.4,0-0.6,0.2c0,0-0.1,0-0.1,0
		c0,0,0,0-0.1,0.1c0,0,0,0,0,0.1c-0.1,0-0.1,0-0.2-0.1c0,0,0,0-0.1,0s0,0.1,0,0.1c-0.1,0-0.1,0-0.3,0S19,54,19,54c0,0-0.1,0-0.1,0.1
		c0,0-0.1,0.1-0.1,0.1c-0.1,0-0.2,0-0.2,0c-0.1,0-0.1,0.1-0.1,0.2c-0.1-0.1-0.1-0.1-0.2-0.1c-0.1,0-0.2,0-0.2,0.1v0.1
		c-0.1,0-0.1,0-0.2,0c-0.1-0.1-0.1,0-0.2,0c0,0-0.1,0-0.2,0l0,0.2c-0.1,0-0.1,0-0.3,0c-0.1,0-0.1,0-0.2,0c-0.1,0-0.1,0.1,0,0.2
		l-0.2-0.1c0,0-0.2,0-0.4,0c0,0-0.1,0.1-0.1,0.1c0,0-0.1,0.1-0.1,0.1c-0.2,0-0.3,0-0.4,0l-0.1,0.2c-0.3,0-0.5,0-0.5,0
		c-0.1,0-0.1,0.1-0.2,0.1c0,0,0,0,0,0.1c-0.2,0.1-0.4,0.1-0.5,0c0,0-0.1,0-0.1,0.1c0,0-0.1,0.1-0.1,0.1c0,0-0.1,0-0.1-0.1
		c0,0-0.1-0.1-0.1-0.1c-0.1,0-0.1,0-0.2,0.1c-0.1,0-0.1,0-0.2,0c-0.1,0-0.1,0.2,0,0.5c0,0,0,0.1,0,0.1c0,0,0,0.1,0,0.1
		c0,0.1,0.1,0.1,0.2,0.1c0.1,0.1,0,0.2-0.1,0.2c0,0,0,0.1,0,0.2c0,0.1,0,0.2,0.1,0.2c0,0,0,0,0,0.1c0,0,0,0,0,0.1s0,0.1-0.1,0.3
		c0.1,0.1,0.1,0.2,0.1,0.5c0,0.2,0,0.4,0.1,0.6c-0.1,0.2-0.1,0.4,0,0.4c0,0.1,0,0.1,0,0.3c0,0,0,0.1,0,0.1c0,0,0,0.1,0,0.1
		C14,59,14,59.2,14,59.2c0.1,0.1,0.1,0.1,0.2,0.3s0.1,0.2,0.1,0.3c0.1,0,0.2,0,0.3,0.1c0.2,0,0.3,0,0.3,0c0,0,0.1,0,0.1-0.1
		c0.1,0,0.1,0,0.1,0.1c0.4,0,0.6-0.1,0.7-0.1c0.1,0,0.2,0,0.3,0c0.1,0,0.3,0,0.3,0c0.1-0.1,0.2-0.1,0.6-0.2c0,0,0,0,0-0.1
		c0,0,0-0.1,0-0.1c0.1,0,0.1,0,0.2,0c0.1,0,0.1,0,0.2,0c0,0,0.1-0.1,0.2-0.1c0.1,0,0.2-0.1,0.2-0.1c0.2,0,0.3,0,0.5-0.1
		c0.2-0.1,0.3-0.2,0.5-0.2c0-0.1,0.1-0.1,0.1-0.1c0.2,0.1,0.3,0,0.3,0c0.2,0,0.4-0.1,0.5-0.3c0.1,0,0.2,0,0.2,0
		c0.1-0.1,0.2-0.1,0.3-0.1c0.4,0,0.7,0,0.8,0.1c0,0,0.1,0,0.1,0c0,0.1,0.1,0.3,0.2,0.4c0,0,0.1,0,0.1,0c0.1,0,0.1,0.1,0.2,0.2
		c0,0.1,0.1,0.2,0.2,0.3c0,0.1,0,0.1,0.1,0.2c0.1,0.1,0.1,0.1,0.1,0.2c0,0,0,0,0,0.1c0,0.1,0,0.1,0,0.2c-0.1,0.2-0.2,0.3-0.2,0.4
		c-0.1,0-0.2,0.1-0.3,0.2c-0.2,0-0.3,0.1-0.3,0.4c0,0-0.1,0-0.1,0s-0.1,0-0.1,0c0,0-0.1,0.1-0.1,0.2c0,0-0.1,0-0.1,0
		c0,0-0.1,0-0.1,0s-0.1,0-0.1,0.1c-0.2,0-0.3,0.1-0.3,0.2h-0.2c-0.1,0.2-0.3,0.2-0.4,0.1c0,0-0.1,0.1-0.1,0.2c0,0-0.1,0-0.1,0
		c-0.1-0.1-0.2-0.1-0.3,0c-0.1,0-0.1,0.1-0.1,0.2l-0.2,0c0,0,0,0,0,0.1c0,0,0,0.1,0,0.1c0,0-0.1-0.1-0.2-0.1c-0.1,0-0.2,0-0.3,0
		c0,0,0,0.1-0.1,0.1s0,0.1-0.1,0.1c0,0-0.1,0-0.1,0s-0.1,0-0.1,0c0,0-0.1,0.1-0.1,0.2c-0.1-0.1-0.3,0-0.4,0c0,0,0,0,0,0.1
		c-0.1,0-0.2,0-0.3,0c-0.2,0-0.3,0.1-0.3,0.1c0,0-0.1,0-0.1,0c0,0,0,0-0.1,0c0,0-0.1,0-0.2,0c-0.1,0-0.2,0-0.2,0.1
		c0,0.1,0,0.1,0,0.1c0,0-0.1,0-0.2,0c-0.1,0-0.1,0-0.1,0c0,0,0-0.1-0.1-0.1c-0.3,0.1-0.4,0.1-0.4,0.1c0,0,0,0.1,0,0.1
		c-0.1,0-0.1,0-0.2,0c0,0-0.1-0.1-0.1-0.1c0,0-0.1,0.1-0.1,0.1c0,0-0.1,0-0.1,0c0,0-0.1,0-0.2,0c-0.1,0-0.1,0-0.2,0
		c0-0.1,0-0.1,0-0.1l-0.1,0c-0.1,0-0.1,0.1-0.1,0.2c-0.2,0-0.4,0-0.6,0c0-0.1,0-0.1-0.1-0.2c-0.1,0-0.1,0-0.2,0c0,0,0,0.1,0,0.1
		c0,0.1,0,0.1,0,0.1c0,0,0,0,0-0.1s0-0.1,0-0.1h-0.2v-0.1c-0.1-0.1-0.1-0.1-0.3-0.1c-0.1-0.1-0.1-0.1-0.2-0.1c0,0-0.1,0-0.1-0.1
		c-0.1-0.1-0.1-0.1-0.1-0.2c0,0-0.1,0-0.1,0c0,0-0.1,0-0.1,0c0,0,0-0.1,0-0.1c0,0,0-0.1-0.1-0.1c0,0-0.1,0-0.1,0c0,0-0.1,0-0.1,0
		c0-0.1,0-0.2-0.2-0.3v-0.1c-0.1-0.1-0.2-0.2-0.3-0.2h-0.1c-0.1-0.1-0.2-0.1-0.2-0.2c-0.1-0.1-0.1-0.2-0.2-0.3
		c-0.1-0.1-0.1-0.2-0.2-0.2c-0.1-0.4-0.2-0.6-0.2-0.6c0-0.1,0-0.1-0.1-0.3c0-0.1,0-0.1,0-0.2c0-0.1,0-0.2,0-0.2c0-0.1,0-0.1-0.1-0.2
		c0,0,0-0.1,0-0.1c0,0,0-0.1,0-0.1c0,0,0-0.1,0-0.3c0-0.2,0-0.3-0.1-0.3c0-0.1,0-0.2,0-0.3c0-0.2,0-0.3,0-0.3c0-0.4,0-0.9,0-1.7
		s0-1.3,0-1.7c0.1,0,0.2,0,0.1-0.1c0-0.1-0.1-0.2-0.1-0.2c0-0.1,0-0.2,0.1-0.3c0-0.1,0.1-0.2,0.1-0.2c-0.1-0.1-0.1-0.1-0.1-0.2
		c0-0.1,0-0.1,0.1-0.1c0-0.1,0-0.6,0-1.5c0.1,0,0.1-0.1,0.1-0.1c0-0.1,0-0.1-0.1-0.2c0.1,0,0.1-0.1,0-0.2s0-0.2,0-0.3
		c0,0,0-0.1,0-0.1c0.1-0.1,0-0.2,0-0.2c0-0.1,0-0.2,0-0.5s0-0.4-0.1-0.4c0.1,0,0.1-0.2,0.1-0.4c0-0.2,0-0.3,0-0.4l-0.2-0.1
		c0-0.2,0-0.3,0.1-0.3c0,0-0.1-0.1-0.1-0.1c0,0,0-0.1,0-0.1c0-0.3,0-0.4,0-0.5c0,0,0,0-0.1,0c0,0,0,0-0.1,0c0-0.3,0-0.5,0-0.7
		c-0.1,0-0.1,0-0.1,0c0,0,0-0.1,0-0.2c0,0,0-0.1,0-0.1c0,0,0-0.1,0-0.1c0,0,0-0.1,0-0.1c0,0,0-0.1,0-0.1c0,0-0.1-0.1-0.1-0.1
		c-0.1-0.1-0.1-0.2,0-0.3c0,0-0.1-0.1-0.1-0.1s0-0.1,0-0.2c-0.1,0-0.1-0.1-0.2-0.2c0-0.1,0-0.2,0-0.2c0-0.1,0-0.1,0-0.2
		c-0.1-0.1,0-0.2,0-0.3c0.1-0.1,0.1-0.2,0.1-0.3c0,0,0.1-0.1,0.2-0.2c0.1-0.1,0.1-0.2,0.2-0.2c0,0,0,0,0,0c0,0,0-0.1,0-0.1l0.1,0.1
		c0,0,0.1,0,0.2,0c0.1,0,0.2,0,0.2,0c0.1,0,0.1,0,0.2-0.1c0.1-0.1,0.1-0.1,0.1-0.1c0.1,0,0.1,0,0.2,0s0.2,0,0.2,0c0,0,0.1,0,0.1,0
		c0,0,0.1,0,0.1,0c0.2,0,0.3,0,0.4-0.1c0.4-0.1,0.6-0.1,0.6-0.2h0.2c0,0,0,0,0.1,0c0,0,0,0,0.1,0c0,0,0.1,0,0.2,0
		c0.1,0,0.1,0,0.2-0.1c0.1-0.1,0.1-0.1,0.2-0.1c0,0,0-0.1,0-0.2c0.1,0,0.1,0,0.1,0c0,0,0,0,0,0.1c0,0,0,0.1,0,0.1
		c0.2-0.1,0.4-0.1,0.4-0.2c0.1,0,0.1,0,0.2,0.1l0.3-0.1c0,0,0.1-0.1,0.3-0.2c0,0.1,0.1,0.1,0.1,0.2c0,0,0.1,0,0.2-0.1
		c0.1,0,0.1,0,0.2,0c0,0,0.1,0,0.1,0c0,0,0.1,0,0.1-0.1c0,0,0.1,0,0.2,0c0.1,0,0.1,0,0.2,0c0.2,0,0.3-0.1,0.4-0.1c0,0,0.1,0,0.1,0
		c0.1,0,0.1,0,0.1-0.1c0.1,0,0.1,0,0.2,0c0,0,0.1,0,0.2-0.1c0.1,0,0.1,0,0.2,0C17.5,42.9,17.5,42.9,17.6,42.8
		C17.6,42.9,17.6,42.9,17.6,42.8C17.6,42.8,17.6,42.8,17.6,42.8z M18.4,42.7c0,0,0.1,0,0.2,0c0.1,0,0.2,0,0.2,0s0,0,0,0
		c0,0,0,0,0,0.1c0,0,0.1,0,0.2,0c0.1,0,0.1,0,0.1,0.1c0.1,0,0.2,0,0.4,0.1c0.4,0,0.7,0.1,0.8,0.2h0.1c0.1,0.1,0.2,0.1,0.3,0.2
		c0.1,0.1,0.2,0.2,0.3,0.2v0.1c0.2,0.1,0.3,0.3,0.4,0.7c0,0,0.1,0,0.1,0c0,0,0,0,0,0c0.1,0.2,0,0.3,0,0.4c0,0.1,0,0.2,0,0.3
		c-0.1,0.1-0.1,0.1-0.1,0.2c-0.1,0.1-0.1,0.1-0.1,0.1c0,0.1,0,0.2-0.1,0.3c0,0.1,0,0.1,0,0.1c0,0-0.1,0.1-0.1,0.1c0,0,0,0-0.1,0
		c0,0,0,0-0.1,0c0,0,0,0.1-0.1,0.1c-0.1,0-0.1,0-0.2,0c0,0,0,0.1-0.1,0.1c0,0,0,0.1-0.1,0.1c-0.1,0-0.2,0-0.2,0c0,0.1,0,0.1,0,0.1
		c0,0-0.1,0-0.2,0c-0.1,0-0.1,0-0.2,0c0,0-0.1,0-0.1,0c0,0-0.1,0-0.1,0c0,0,0-0.1,0.1-0.1c0,0-0.1-0.1-0.1-0.1
		c0-0.1-0.1-0.1-0.1-0.1c0,0-0.1,0.1-0.1,0.1c0,0-0.1,0-0.1,0c0-0.1,0-0.1-0.1-0.2c-0.1-0.1-0.1-0.1-0.2-0.1c0,0,0,0.1,0,0.1
		c0,0,0,0.1,0,0.1c0,0-0.1-0.1-0.1-0.1c0,0,0-0.1-0.1-0.1c0,0,0,0-0.1-0.1c0-0.2-0.2-0.2-0.5-0.2c-0.1,0-0.1,0-0.2,0.1
		c-0.1,0-0.1,0-0.2,0c-0.1,0-0.1,0-0.2,0c0,0-0.1,0.1-0.1,0.1c-0.1,0-0.2,0-0.4,0c-0.3,0.1-0.4,0.1-0.5,0.2c-0.2-0.1-0.3-0.1-0.3,0
		c-0.1,0-0.2,0-0.3,0c-0.1,0-0.2,0-0.2,0c0,0,0,0.1,0,0.1c-0.1,0-0.2,0-0.2,0c-0.1-0.1-0.2-0.1-0.2,0c0,0-0.1,0-0.1,0.1
		c0,0-0.1,0.1-0.1,0.1c-0.1,0-0.1,0-0.2,0c-0.1,0-0.1,0-0.2,0c0,0-0.1,0-0.1,0.1c0,0-0.1,0-0.1,0c-0.1,0-0.1,0-0.1,0l0,0.1
		c-0.3,0-0.4,0-0.5,0c0,0,0,0,0,0.1s0,0,0,0.1c-0.2-0.1-0.4-0.1-0.6,0.2c0,0-0.1,0-0.1-0.1c-0.1,0-0.1,0.1,0,0.2
		c0,0.1,0,0.1,0.1,0.1s0,0.1,0,0.1c0,0,0,0.1,0,0.1c0,0.1,0,0.1,0,0.1c0,0.1,0,0.2,0.1,0.2c0,0.1,0,0.2,0.1,0.3
		c0.1,0.1,0.1,0.2,0,0.3c0,0.1,0,0.2,0.1,0.3c0,0,0,0,0,0.1c0,0,0,0,0,0.1c0,0.1,0,0.1,0,0.2c0,0.1,0.1,0.1,0.1,0.1
		c0,0.6,0,0.9,0,0.9c-0.1,0.1-0.1,0.3,0,0.5c0,0,0,0.1,0,0.2c0,0,0,0.1-0.1,0.1c0,0.1,0,0.1,0,0.2c0.1,0.1,0.1,0.1,0.1,0.1
		s0,0.1,0,0.1c0,0,0,0.1,0,0.1c0,0.1,0,0.2,0,0.5c0,0.2,0,0.4,0,0.5c0,0,0,0.1,0,0.2c0,0.1,0.1,0.1,0.2,0.1c0.1,0,0.2-0.1,0.2-0.1
		c0.3,0,0.4,0,0.5-0.1c0.3,0,0.5,0,0.5,0c0.2,0,0.3,0,0.4,0c0,0,0.1,0,0.1-0.1c0.1,0,0.1-0.1,0.1-0.1c0,0,0.1,0,0.2,0
		c0.2,0,0.3,0,0.3-0.1c0.2,0.1,0.3,0,0.5,0c0,0,0.1,0,0.1,0c0,0,0.1,0,0.1,0c0,0,0.1,0,0.1,0c0.1,0,0.1,0,0.1,0c0.1,0,0.3,0,0.4,0
		c0,0,0-0.1,0-0.1c0.1,0.1,0.2,0.1,0.4,0c0.2,0,0.3-0.1,0.3-0.1c0.1,0,0.1,0,0.2,0c0.1,0,0.1-0.1,0.1-0.1c0,0,0,0,0.1,0s0,0,0.1,0.1
		c0,0,0.1,0,0.2-0.1c0.1-0.1,0.2-0.1,0.2-0.1c0.1-0.1,0.1-0.1,0.1-0.1c0,0,0.1,0,0.1,0.1c0.2,0,0.4,0,0.4-0.1c0.1,0,0.1,0,0.2,0
		c0.1,0,0.1,0,0.2,0s0.1,0,0.2,0.1c0.1,0,0.2,0.1,0.2,0.1c0.1,0,0.2,0.1,0.2,0.2c0.1,0,0.1,0,0.2,0c0,0,0,0,0.1,0c0,0,0,0.1,0.1,0.1
		c0.2,0,0.3,0,0.4,0c0,0,0,0.1,0.1,0.2c0,0,0,0.1,0,0.1c0,0.1,0.1,0.1,0.2,0.3c0,0.2,0.1,0.3,0.2,0.4c0,0,0,0.1-0.1,0.1
		c0,0.1,0,0.2-0.1,0.3c-0.1,0.1-0.1,0.2-0.1,0.3h-0.1c0,0,0,0,0,0.1s0,0,0,0.1c0,0-0.1,0-0.1,0h0l-0.1,0c0,0-0.1,0-0.1-0.1
		c0,0-0.1,0-0.1,0s-0.1,0-0.1,0.1c0,0-0.1,0-0.1,0c0,0.1-0.1,0.1-0.3,0.2c-0.2,0.1-0.3,0.1-0.3,0.2c-0.2,0-0.4,0-0.6,0.2
		c0,0-0.1,0-0.1,0c0,0,0,0-0.1,0.1c0,0,0,0,0,0.1c-0.1,0-0.1,0-0.2-0.1c0,0,0,0-0.1,0s0,0.1,0,0.1c-0.1,0-0.1,0-0.3,0S19,54,19,54
		c0,0-0.1,0-0.1,0.1c0,0-0.1,0.1-0.1,0.1c-0.1,0-0.2,0-0.2,0c-0.1,0-0.1,0.1-0.1,0.2c-0.1-0.1-0.1-0.1-0.2-0.1c-0.1,0-0.2,0-0.2,0.1
		v0.1c-0.1,0-0.1,0-0.2,0c-0.1-0.1-0.1,0-0.2,0c0,0-0.1,0-0.2,0l0,0.2c-0.1,0-0.1,0-0.3,0c-0.1,0-0.1,0-0.2,0c-0.1,0-0.1,0.1,0,0.2
		l-0.2-0.1c0,0-0.2,0-0.4,0c0,0-0.1,0.1-0.1,0.1c0,0-0.1,0.1-0.1,0.1c-0.2,0-0.3,0-0.4,0l-0.1,0.2c-0.3,0-0.5,0-0.5,0
		c-0.1,0-0.1,0.1-0.2,0.1c0,0,0,0,0,0.1c-0.2,0.1-0.4,0.1-0.5,0c0,0-0.1,0-0.1,0.1c0,0-0.1,0.1-0.1,0.1c0,0-0.1,0-0.1-0.1
		c0,0-0.1-0.1-0.1-0.1c-0.1,0-0.1,0-0.2,0.1c-0.1,0-0.1,0-0.2,0c-0.1,0-0.1,0.2,0,0.5c0,0,0,0.1,0,0.1c0,0,0,0.1,0,0.1
		c0,0.1,0.1,0.1,0.2,0.1c0.1,0.1,0,0.2-0.1,0.2c0,0,0,0.1,0,0.2c0,0.1,0,0.2,0.1,0.2c0,0,0,0,0,0.1c0,0,0,0,0,0.1s0,0.1-0.1,0.3
		c0.1,0.1,0.1,0.2,0.1,0.5c0,0.2,0,0.4,0.1,0.6c-0.1,0.2-0.1,0.4,0,0.4c0,0.1,0,0.1,0,0.3c0,0,0,0.1,0,0.1c0,0,0,0.1,0,0.1
		C14,59,14,59.2,14,59.2c0.1,0.1,0.1,0.1,0.2,0.3s0.1,0.2,0.1,0.3c0.1,0,0.2,0,0.3,0.1c0.2,0,0.3,0,0.3,0c0,0,0.1,0,0.1-0.1
		c0.1,0,0.1,0,0.1,0.1c0.4,0,0.6-0.1,0.7-0.1c0.1,0,0.2,0,0.3,0c0.1,0,0.3,0,0.3,0c0.1-0.1,0.2-0.1,0.6-0.2c0,0,0,0,0-0.1
		c0,0,0-0.1,0-0.1c0.1,0,0.1,0,0.2,0c0.1,0,0.1,0,0.2,0c0,0,0.1-0.1,0.2-0.1c0.1,0,0.2-0.1,0.2-0.1c0.2,0,0.3,0,0.5-0.1
		c0.2-0.1,0.3-0.2,0.5-0.2c0-0.1,0.1-0.1,0.1-0.1c0.2,0.1,0.3,0,0.3,0c0.2,0,0.4-0.1,0.5-0.3c0.1,0,0.2,0,0.2,0
		c0.1-0.1,0.2-0.1,0.3-0.1c0.4,0,0.7,0,0.8,0.1c0,0,0.1,0,0.1,0c0,0.1,0.1,0.3,0.2,0.4c0,0,0.1,0,0.1,0c0.1,0,0.1,0.1,0.2,0.2
		c0,0.1,0.1,0.2,0.2,0.3c0,0.1,0,0.1,0.1,0.2c0.1,0.1,0.1,0.1,0.1,0.2c0,0,0,0,0,0.1c0,0.1,0,0.1,0,0.2c-0.1,0.2-0.2,0.3-0.2,0.4
		c-0.1,0-0.2,0.1-0.3,0.2c-0.2,0-0.3,0.1-0.3,0.4c0,0-0.1,0-0.1,0s-0.1,0-0.1,0c0,0-0.1,0.1-0.1,0.2c0,0-0.1,0-0.1,0
		c0,0-0.1,0-0.1,0s-0.1,0-0.1,0.1c-0.2,0-0.3,0.1-0.3,0.2h-0.2c-0.1,0.2-0.3,0.2-0.4,0.1c0,0-0.1,0.1-0.1,0.2c0,0-0.1,0-0.1,0
		c-0.1-0.1-0.2-0.1-0.3,0c-0.1,0-0.1,0.1-0.1,0.2l-0.2,0c0,0,0,0,0,0.1c0,0,0,0.1,0,0.1c0,0-0.1-0.1-0.2-0.1c-0.1,0-0.2,0-0.3,0
		c0,0,0,0.1-0.1,0.1s0,0.1-0.1,0.1c0,0-0.1,0-0.1,0s-0.1,0-0.1,0c0,0-0.1,0.1-0.1,0.2c-0.1-0.1-0.3,0-0.4,0c0,0,0,0,0,0.1
		c-0.1,0-0.2,0-0.3,0c-0.2,0-0.3,0.1-0.3,0.1c0,0-0.1,0-0.1,0c0,0,0,0-0.1,0c0,0-0.1,0-0.2,0c-0.1,0-0.2,0-0.2,0.1
		c0,0.1,0,0.1,0,0.1c0,0-0.1,0-0.2,0c-0.1,0-0.1,0-0.1,0c0,0,0-0.1-0.1-0.1c-0.3,0.1-0.4,0.1-0.4,0.1c0,0,0,0.1,0,0.1
		c-0.1,0-0.1,0-0.2,0c0,0-0.1-0.1-0.1-0.1c0,0-0.1,0.1-0.1,0.1c0,0-0.1,0-0.1,0c0,0-0.1,0-0.2,0c-0.1,0-0.1,0-0.2,0
		c0-0.1,0-0.1,0-0.1l-0.1,0c-0.1,0-0.1,0.1-0.1,0.2c-0.2,0-0.4,0-0.6,0c0-0.1,0-0.1-0.1-0.2c-0.1,0-0.1,0-0.2,0c0,0,0,0.1,0,0.1
		c0,0.1,0,0.1,0,0.1c0,0,0,0,0-0.1s0-0.1,0-0.1h-0.2v-0.1c-0.1-0.1-0.1-0.1-0.3-0.1c-0.1-0.1-0.1-0.1-0.2-0.1c0,0-0.1,0-0.1-0.1
		c-0.1-0.1-0.1-0.1-0.1-0.2c0,0-0.1,0-0.1,0c0,0-0.1,0-0.1,0c0,0,0-0.1,0-0.1c0,0,0-0.1-0.1-0.1c0,0-0.1,0-0.1,0c0,0-0.1,0-0.1,0
		c0-0.1,0-0.2-0.2-0.3v-0.1c-0.1-0.1-0.2-0.2-0.3-0.2h-0.1c-0.1-0.1-0.2-0.1-0.2-0.2c-0.1-0.1-0.1-0.2-0.2-0.3
		c-0.1-0.1-0.1-0.2-0.2-0.2c-0.1-0.4-0.2-0.6-0.2-0.6c0-0.1,0-0.1-0.1-0.3c0-0.1,0-0.1,0-0.2c0-0.1,0-0.2,0-0.2c0,0,0-0.1-0.1-0.1
		c0,0,0-0.1,0-0.1c0,0,0-0.1,0-0.1c0,0,0-0.1,0-0.3c0-0.2,0-0.3-0.1-0.3c0-0.1,0-0.2,0-0.3c0-0.2,0-0.3,0-0.3c0-0.4,0-0.9,0-1.7
		s0-1.3,0-1.7c0.1,0,0.2,0,0.1-0.1c0-0.1-0.1-0.2-0.1-0.2c0-0.1,0-0.2,0.1-0.3c0-0.1,0.1-0.2,0.1-0.2c-0.1-0.1-0.1-0.1-0.1-0.2
		c0-0.1,0-0.1,0.1-0.1c0-0.1,0-0.6,0-1.5c0.1,0,0.1-0.1,0.1-0.1c0-0.1,0-0.1-0.1-0.2c0.1,0,0.1-0.1,0-0.2s0-0.2,0-0.3
		c0,0,0-0.1,0-0.1c0.1-0.1,0-0.1,0-0.2c0-0.1,0-0.2,0-0.5s0-0.4-0.1-0.4c0.1,0,0.1-0.2,0.1-0.4c0-0.2,0-0.3,0-0.4l-0.2-0.1
		c0-0.2,0-0.3,0.1-0.3c0,0-0.1-0.1-0.1-0.1c0,0,0-0.1,0-0.1c0-0.3,0-0.4,0-0.5c0,0,0,0-0.1,0c0,0,0,0-0.1,0c0-0.3,0-0.5,0-0.7
		c-0.1,0-0.1,0-0.1,0c0,0,0-0.1,0-0.2c0,0,0-0.1,0-0.1c0,0,0-0.1,0-0.1c0,0,0-0.1,0-0.1c0,0,0-0.1,0-0.1c0,0-0.1-0.1-0.1-0.1
		c-0.1-0.1-0.1-0.2,0-0.3c0,0-0.1-0.1-0.1-0.1s0-0.1,0-0.2c-0.1,0-0.1-0.1-0.2-0.2c0-0.1,0-0.2,0-0.2c0-0.1,0-0.1,0-0.2
		c-0.1-0.1,0-0.2,0-0.3c0.1-0.1,0.1-0.2,0.1-0.3c0,0,0.1-0.1,0.2-0.2c0.1-0.1,0.1-0.2,0.2-0.2c0,0,0,0,0,0c0,0,0-0.1,0-0.1l0.1,0.1
		c0,0,0.1,0,0.2,0c0.1,0,0.2,0,0.2,0c0.1,0,0.1,0,0.2-0.1c0.1-0.1,0.1-0.1,0.1-0.1c0.1,0,0.1,0,0.2,0s0.2,0,0.2,0c0,0,0.1,0,0.1,0
		c0,0,0.1,0,0.1,0c0.2,0,0.3,0,0.4-0.1c0.4-0.1,0.6-0.1,0.6-0.2h0.2c0,0,0,0,0.1,0c0,0,0,0,0.1,0c0,0,0.1,0,0.2,0
		c0.1,0,0.1,0,0.2-0.1c0.1-0.1,0.1-0.1,0.2-0.1c0,0,0-0.1,0-0.2c0.1,0,0.1,0,0.1,0c0,0,0,0,0,0.1c0,0,0,0.1,0,0.1
		c0.2-0.1,0.4-0.1,0.4-0.2c0.1,0,0.1,0,0.2,0.1l0.3-0.1c0,0,0.1-0.1,0.3-0.2c0,0.1,0.1,0.1,0.1,0.2c0,0,0.1,0,0.2-0.1
		c0.1,0,0.1,0,0.2,0c0,0,0.1,0,0.1,0c0,0,0.1,0,0.1-0.1c0,0,0.1,0,0.2,0c0.1,0,0.1,0,0.2,0c0.2,0,0.3-0.1,0.4-0.1c0,0,0.1,0,0.1,0
		c0.1,0,0.1,0,0.1-0.1c0.1,0,0.1,0,0.2,0c0,0,0.1,0,0.2-0.1c0.1,0,0.1,0,0.2,0c0.1,0,0.1,0,0.1,0c0,0,0,0,0,0c0,0,0,0,0,0
		C18.1,42.9,18.4,42.8,18.4,42.7z"/>
	<path fill="#D93427" d="M24.2,44.1c0.2,0,0.3-0.1,0.3-0.2c0.1,0.1,0.1,0.1,0.1,0.1c0-0.1,0.1-0.1,0.3-0.1c0.1,0,0.2,0,0.3,0
		c0,0,0.1,0,0.1,0c0,0,0.1,0,0.1,0s0.1,0,0.1,0c0.1,0,0.1,0,0.1,0c0.1,0,0.1,0,0.3,0c0.1,0,0.2,0,0.3,0c0,0,0.1,0,0.1,0
		c0.1,0,0.1,0,0.1,0l0.1,0c0,0,0.1,0,0.2-0.1c0.4,0,0.6,0.1,0.6,0.1c0.1,0,0.2,0,0.3,0c0.1,0,0.1,0,0.1,0c0,0,0.1,0,0.2,0
		c0.1,0,0.2,0,0.2,0c0.1,0,0.1,0,0.1,0s0.1,0,0.2,0c0.1,0,0.2,0,0.2,0s0.1,0,0.1,0.1c0.1,0,0.1,0,0.2,0c0,0,0.1,0,0.1,0
		c0,0,0.1,0,0.2,0c0.1,0,0.1,0,0.2,0c0,0,0.1,0.1,0.1,0.1c0,0,0.1,0,0.1,0l0.1,0c0.1,0,0.2,0,0.3,0c0.1,0,0.2,0,0.3,0
		c0,0,0.1,0,0.2,0.1c0.1,0,0.2,0,0.2-0.1c0,0,0,0,0.1,0c0,0,0,0,0.1,0c0.1,0,0.3,0,0.5,0.1c0.3,0.1,0.5,0.1,0.7,0
		c0.1-0.1,0.2-0.1,0.2-0.1c0,0,0,0.1,0,0.1c0.1,0.1,0.1,0.1,0.2,0.1c0,0,0.1,0,0.2,0c0.1,0,0.1,0,0.2,0c0,0,0.1,0,0.1,0
		c0.1,0.1,0.1,0.1,0.2,0c0.1,0.1,0.1,0.1,0.1,0.1c0.1-0.1,0.2,0,0.2,0c0.1-0.1,0.2-0.1,0.4-0.1v0.1c0,0,0.2,0.1,0.5,0.1
		c0,0.1,0.1,0.1,0.3,0.1c0.1,0,0.2,0,0.3,0.1h0.1c0.4,0.3,0.7,0.5,0.9,0.6h0.1c0,0.1,0.1,0.2,0.2,0.2c0.1,0,0.2,0.1,0.2,0.1
		c0.1,0.1,0.1,0.1,0.2,0.2c0.1,0.1,0.1,0.1,0.2,0.2c0,0.1,0,0.1,0.1,0.2c0.1,0.1,0.1,0.1,0.1,0.2c0.1,0.1,0.2,0.1,0.2,0.2
		c0,0.1,0,0.1,0,0.1c0,0,0,0,0.1,0.1c0,0.1,0.1,0.1,0.1,0.1c0,0.2,0,0.3,0,0.3s0,0,0,0.1s0,0.1,0.1,0.1c0,0,0,0.1,0,0.2
		c0,0.1,0,0.1,0.1,0.2c0,0,0,0,0.1,0c0,0,0.1,0,0.1,0s0,0.1,0,0.1c0,0-0.1,0-0.1,0c0,0.1,0,0.1,0,0.2c0,0.1,0,0.2,0,0.2l0,0.1
		c0,0.1,0,0.2,0,0.4c0,0.2,0,0.3,0,0.3c-0.1,0.1-0.1,0.1-0.1,0.2c0,0.1,0,0.2,0,0.2C37.1,50,37.1,50,37.1,50c0,0.1-0.1,0.1-0.1,0.2
		c0,0.1,0,0.1,0,0.1c-0.1,0.1-0.1,0.2-0.1,0.3c0,0-0.1,0.1-0.2,0.2c-0.1,0.1-0.1,0.2-0.2,0.3c0,0,0,0.1,0,0.1c0,0,0,0.1-0.1,0.1
		c0,0-0.1,0.1-0.1,0.1c-0.2,0.1-0.4,0.3-0.4,0.6c0,0,0,0-0.1,0c0,0,0,0-0.1,0c-0.1,0-0.1,0.1-0.1,0.2c-0.3,0.2-0.5,0.4-0.5,0.5
		c-0.1,0.1-0.2,0.1-0.2,0.2c-0.3,0.2-0.5,0.4-0.7,0.6c-0.1,0-0.2,0.1-0.3,0.2c0,0-0.1,0.1-0.2,0.1c-0.1,0.1-0.1,0.1-0.2,0.1
		c-0.2,0.1-0.2,0.1-0.2,0.2c0,0.1,0,0.1,0.1,0.1c0,0,0.1,0.1,0.1,0.1c0,0,0.1,0.1,0.1,0.1c0.1,0,0.1,0,0.1,0.1c0,0,0,0,0.1,0.1
		c0,0,0.1,0,0.1,0c0.1,0,0.1,0,0.1,0c0,0,0,0,0.1,0.1c0.1,0,0.1,0.1,0.1,0.1c0,0,0.1,0,0.1,0c0,0,0,0.1,0,0.1h0.2
		c0.1,0.1,0.2,0.1,0.2,0.1c0.1,0.1,0.1,0.1,0.3,0.2c0.1,0.1,0.2,0.1,0.3,0.2h0.1c0,0,0.1,0,0.1,0.1c0,0,0.1,0.1,0.1,0.1h0.2
		c0,0,0.1,0.1,0.1,0.1c0.1,0.1,0.2,0.2,0.3,0.2c0.1,0.1,0.2,0.1,0.3,0.1c0.1,0.2,0.3,0.3,0.4,0.2c0,0,0.1,0.1,0.1,0.2
		c0.2,0.1,0.4,0.3,0.6,0.4h0.1c0.2,0.2,0.4,0.3,0.4,0.3c0,0.1,0.1,0.1,0.2,0.1c0.1,0,0.2,0.1,0.2,0.2c0.1,0,0.1,0,0.2,0.1
		c0.1,0.1,0.1,0.1,0.2,0.1c0.1,0.1,0.2,0.2,0.5,0.4c0.2,0.1,0.4,0.3,0.5,0.4H40c0.2,0.1,0.3,0.2,0.3,0.2c0,0,0.1,0,0.1,0
		c0,0,0.1,0,0.1,0c0,0.1,0.1,0.2,0.4,0.3c0.1,0.1,0.2,0.1,0.2,0c0.1,0,0.2,0,0.2,0c0.1,0.1,0.2,0.1,0.3,0.1c0.1-0.1,0.1-0.1,0.1-0.1
		c0,0,0.1,0,0.1,0.1c0.2-0.1,0.3,0,0.4,0.1c0.1,0.1,0.1,0.2,0.1,0.2c0,0,0,0.1,0.1,0.1c0,0,0.1,0,0.1,0c0,0,0.1,0.1,0.1,0.2
		c0,0.1,0.1,0.2,0.1,0.2v0.2c0,0,0,0.1,0,0.1c0,0,0,0.1,0,0.1c0,0,0.1,0.1,0.2,0.1c0.1,0.1,0.1,0.1,0.1,0.1c0,0,0,0.1,0,0.2
		c0.1,0.2,0.1,0.4,0,0.4c0,0,0,0.1,0.1,0.2c0,0.1,0,0.2,0,0.4c0,0.2,0,0.3,0,0.4h-0.3c-0.1,0-0.1,0.1-0.1,0.1c0,0.1-0.1,0.1-0.1,0.1
		c0,0,0,0-0.1,0.1s-0.1,0-0.1,0.1c0.1,0.1,0.1,0.1,0.1,0.1c0,0-0.1,0-0.1,0.1c-0.1,0-0.1,0-0.1,0.1c0,0,0,0,0,0.1c0,0,0,0,0,0.1
		c-0.1,0.1-0.1,0.1-0.2,0c-0.1-0.1-0.1-0.1-0.1-0.1s-0.1,0-0.2,0.1c-0.1,0.1-0.2,0.1-0.2,0.1c-0.1-0.2-0.2-0.3-0.3-0.3
		c0,0-0.1,0-0.1,0c0,0-0.1,0-0.1,0c0-0.1,0-0.2-0.1-0.2c0,0-0.1,0-0.1,0c0,0,0,0,0,0c0,0,0,0,0-0.1c0-0.1-0.1-0.1-0.2-0.2
		c0,0-0.1,0-0.1,0c0,0-0.1,0-0.1,0c-0.1-0.2-0.2-0.3-0.4-0.4h-0.1c-0.1,0-0.1-0.1-0.2-0.2c-0.1-0.1-0.3-0.2-0.4-0.2
		c0,0-0.1-0.1-0.1-0.1c-0.1-0.1-0.1-0.1-0.1-0.1C39,60.8,39,60.8,39,60.8c0,0,0,0-0.1-0.1c0-0.1,0-0.1-0.1-0.1s-0.1,0-0.1-0.1
		c-0.1,0-0.1-0.1-0.1-0.1c0-0.1-0.1-0.2-0.2-0.1c0-0.1,0-0.1,0-0.1C38.1,60.1,38,60,38,59.9c0,0-0.2-0.1-0.6-0.4c0,0,0,0-0.1,0
		c0,0,0,0-0.1,0c0-0.1-0.1-0.1-0.2-0.3c-0.1,0-0.2-0.1-0.4-0.2c0,0-0.1,0-0.1,0c0,0-0.1,0-0.1,0c0,0,0,0,0-0.1c0,0,0-0.1,0-0.1
		c0,0-0.1,0-0.1,0c0,0-0.1,0-0.1,0c-0.1,0-0.1-0.1-0.2-0.2c-0.1-0.1-0.1-0.1-0.1-0.1c0,0,0-0.1-0.1-0.1c-0.1,0-0.1-0.1-0.1-0.1
		c-0.1,0-0.2-0.1-0.3-0.2c-0.1-0.1-0.2-0.2-0.3-0.2c-0.1,0-0.1,0-0.1,0c0-0.1-0.1-0.1-0.2-0.2c0-0.1-0.1-0.1-0.3-0.2
		c0,0-0.1,0-0.1,0c0,0,0,0-0.1-0.1s0,0-0.1,0c0,0,0,0-0.1,0c0,0,0,0-0.1-0.1s-0.1,0-0.1,0c-0.1,0-0.2,0-0.2,0c0,0-0.1,0-0.1-0.1
		c-0.1-0.1-0.1-0.1-0.2-0.1c-0.1,0.1-0.1,0.1-0.1,0c0,0,0,0,0-0.1c0,0,0-0.1,0-0.1s-0.1,0-0.1,0c0,0-0.1,0-0.1,0c0,0,0-0.1-0.1-0.1
		c0,0,0-0.1-0.1-0.1H33L32.9,57c-0.1,0-0.1,0-0.2-0.1c-0.1-0.1-0.1-0.1-0.2,0c0-0.1-0.1-0.1-0.2-0.1c-0.1,0-0.2-0.1-0.2-0.1
		c-0.1,0-0.2,0-0.3-0.1c-0.1,0-0.2-0.1-0.3-0.2c-0.1,0-0.1,0-0.3,0.1c0,0,0,0,0,0c0,0,0-0.1,0-0.1c0,0-0.1,0-0.2,0c0,0,0,0,0-0.1
		c0,0,0,0,0-0.1C30.7,56,30.6,56,30.4,56c-0.1-0.1-0.2-0.2-0.4-0.2c0,0-0.1-0.1-0.2-0.1c0,0-0.1,0-0.1-0.1c-0.1,0-0.1,0.1-0.1,0.2
		c0,0.2,0,0.3,0,0.4c0,0,0,0.1,0.1,0.1c0,0,0,0,0,0.1s0,0,0,0.1c0,0.1,0,0.1,0,0.1c0,0.3,0,0.5,0.1,0.6l0,0.3v0.1c0,0,0,0.1,0.1,0.2
		c0,0.1,0,0.1,0,0.2c0,0.1,0,0.1,0,0.1c0,0,0.1,0.1,0.1,0.1c0,0.1,0.1,0.1,0.1,0.1c0,0.1,0,0.1,0,0.3c0,0.1,0,0.2,0,0.3
		c0,0,0,0,0.1,0.1c0,0,0.1,0,0.1,0.1c0,0.2,0,0.3,0,0.4c0,0.1,0,0.2,0.1,0.3c0,0,0,0.1,0,0.3s0,0.2,0,0.3c0,0,0.1,0,0.1,0
		c0,0,0.1,0.1,0.1,0.1c0,0.1,0,0.1-0.1,0.2c0,0,0,0.1,0,0.1c0,0,0,0.1,0,0.3c0,0.1,0,0.3,0,0.5c0,0.3,0,0.4,0,0.4c0,0,0,0.1,0,0.1
		c0,0,0,0-0.1,0c0,0,0,0-0.1,0.1c0,0.1-0.1,0.1-0.1,0.2c-0.1,0.1-0.1,0.1-0.1,0.2c-0.1,0-0.1,0-0.2,0c-0.2,0.1-0.3,0.2-0.3,0.3
		c0,0,0,0-0.1,0s0,0-0.1,0c0,0,0,0,0,0.1c0,0,0,0-0.1,0c0,0,0,0-0.1-0.1c-0.1,0-0.1,0-0.2,0C29,63,28.9,63,28.9,63
		c0-0.1,0-0.2-0.1-0.2c-0.2,0-0.3-0.1-0.4-0.3c-0.1,0-0.1,0-0.1,0c0,0-0.1,0-0.1,0c0.1-0.1,0-0.2-0.2-0.3c-0.2-0.1-0.2-0.1-0.2-0.2
		c0,0,0,0-0.1,0c0,0,0,0-0.1,0c-0.1-0.1,0-0.2,0.1-0.2c0-0.1,0-0.1,0-0.2c0-0.1,0-0.1,0-0.1s0-0.1,0-0.1c0,0-0.1-0.1-0.1-0.1
		c0,0-0.1,0-0.1,0c0,0,0-0.1,0.1-0.1c0.1-0.2,0.1-0.4,0-0.4v-0.4c0.1-0.1,0.1-0.2,0.1-0.3s0-0.2-0.1-0.3c0-0.1,0-0.2,0-0.3
		s0-0.2,0-0.3c0-0.1-0.1-0.1-0.1-0.1c0-0.1,0-0.2,0-0.3c0-0.2,0-0.3-0.1-0.3c0-0.1,0-0.1,0-0.2c0-0.1,0-0.2,0-0.2c0,0,0-0.1-0.1-0.1
		c0-0.1-0.1-0.1-0.1-0.1c0-0.1,0-0.1,0-0.3c0-0.1,0-0.2,0-0.3c0-0.1-0.1-0.1-0.1-0.2c0-0.1-0.1-0.1-0.1-0.2c0-0.1,0-0.2,0-0.3
		c0-0.2,0-0.3,0-0.3c0-0.1,0-0.2-0.1-0.2c0,0,0-0.2,0-0.4c0,0,0-0.1,0-0.1c0,0,0-0.1,0-0.1c0,0,0-0.1,0-0.1c0-0.1,0-0.1,0-0.1
		c0,0,0-0.1-0.1-0.1c0,0,0,0-0.1,0c0-0.1,0-0.2,0-0.3c0-0.1,0-0.2,0-0.3c0,0,0-0.1-0.1-0.2c0-0.1,0-0.1,0-0.2c0-0.1,0-0.2,0-0.2
		c0,0,0-0.1,0-0.2c0-0.1,0-0.1,0-0.1c0,0,0-0.1,0-0.1c0,0,0-0.1,0-0.1c0-0.1,0-0.1,0-0.1c0,0,0-0.1,0-0.1c0,0,0-0.1,0-0.1
		c0-0.1-0.1-0.1-0.2-0.1c0-0.1,0-0.1,0-0.1c0,0,0,0,0.1,0c0,0,0,0,0.1,0l0-0.2c0-0.1,0-0.2,0-0.4c0-0.2,0-0.3,0-0.4
		c-0.1-0.1-0.1-0.1-0.1-0.1c0,0,0-0.1,0-0.1c0,0,0-0.1,0-0.1c0,0,0-0.1,0-0.1c0,0,0-0.1,0-0.1c0-0.2-0.1-0.2-0.1-0.2l0-0.1
		c0,0,0-0.1,0-0.4c0,0,0-0.1-0.1-0.2c0-0.1,0-0.2,0-0.2c0,0,0-0.1,0-0.1c0,0,0-0.1,0-0.1c0,0,0-0.1,0-0.1c0,0,0-0.1,0-0.1
		c0,0,0-0.1,0-0.1c-0.1-0.1-0.1-0.2,0-0.3c-0.1-0.1-0.1-0.2-0.1-0.3c0-0.1,0-0.2-0.1-0.3l0,0c0,0-0.1,0-0.1,0c0,0,0-0.1,0-0.1l0,0
		c0-0.1,0-0.1,0-0.3s0-0.2,0-0.2c0,0,0-0.1,0-0.1c0-0.2,0-0.3,0-0.3c0,0-0.1,0-0.1,0c0,0,0,0,0,0c0,0,0,0,0-0.1c0,0,0,0,0-0.1
		c0-0.1,0-0.1,0-0.3c0-0.1,0-0.2,0-0.3c0,0,0,0,0-0.1c0,0,0,0,0-0.1c0,0,0-0.1-0.1-0.2c0-0.1,0-0.1,0-0.2c-0.1,0-0.2,0-0.4-0.1
		c-0.1,0-0.2,0-0.3,0l-0.2-0.2c0-0.1-0.1-0.1-0.3-0.2c0,0-0.1-0.1-0.1-0.2C24,46.2,24,46.1,24,46.1c-0.1-0.1-0.2-0.2-0.3-0.2
		c-0.1-0.1-0.1-0.2-0.1-0.3s0-0.2,0-0.3c0-0.1,0-0.2,0-0.4c0-0.1,0-0.1,0.1-0.3c0.1-0.1,0.1-0.2,0.1-0.3c0.1-0.1,0.1-0.1,0.1-0.1
		s0,0,0-0.1s0,0,0,0S24,44.1,24.2,44.1z M24.5,44c0.1,0.1,0.1,0.1,0.1,0.1c0-0.1,0.1-0.1,0.3-0.1c0.1,0,0.2,0,0.3,0c0,0,0.1,0,0.1,0
		c0,0,0.1,0,0.1,0s0.1,0,0.1,0c0.1,0,0.1,0,0.1,0c0.1,0,0.1,0,0.3,0c0.1,0,0.2,0,0.3,0c0,0,0.1,0,0.1,0c0.1,0,0.1,0,0.1,0l0.1,0
		c0,0,0.1,0,0.2-0.1c0.4,0,0.6,0.1,0.6,0.1c0.1,0,0.1,0,0.3,0c0.1,0,0.1,0,0.1,0c0,0,0.1,0,0.2,0c0.1,0,0.2,0,0.2,0
		c0.1,0,0.1,0,0.1,0s0.1,0,0.2,0c0.1,0,0.2,0,0.2,0s0.1,0,0.1,0c0.1,0,0.1,0,0.2,0c0,0,0.1,0,0.1,0c0,0,0.1,0,0.2,0
		c0.1,0,0.1,0,0.2,0c0,0,0.1,0.1,0.1,0.1c0,0,0.1,0,0.1,0l0.1,0c0.1,0,0.2,0,0.3,0c0.1,0,0.2,0,0.3,0c0,0,0.1,0,0.2,0.1
		c0.1,0,0.2,0,0.2-0.1c0,0,0,0,0.1,0c0,0,0,0,0.1,0c0.1,0,0.3,0,0.5,0.1c0.3,0.1,0.5,0.1,0.7,0c0.1-0.1,0.2-0.1,0.2-0.1
		c0,0,0,0.1,0,0.1c0.1,0.1,0.1,0.1,0.2,0.1c0,0,0.1,0,0.2,0c0.1,0,0.1,0,0.2,0c0,0,0.1,0,0.1,0c0.1,0.1,0.1,0.1,0.2,0
		c0.1,0.1,0.1,0.1,0.1,0.1c0.1-0.1,0.2,0,0.2,0c0.1-0.1,0.2-0.1,0.4-0.1v0.1c0,0,0.2,0.1,0.5,0.1c0,0.1,0.1,0.1,0.3,0.1
		c0.1,0,0.2,0,0.3,0.1h0.1c0.4,0.3,0.7,0.5,0.9,0.6h0.1c0,0.1,0.1,0.2,0.2,0.2c0.1,0,0.2,0.1,0.2,0.1c0.1,0.1,0.1,0.1,0.2,0.2
		c0.1,0.1,0.1,0.1,0.2,0.2c0,0.1,0,0.1,0.1,0.2c0.1,0.1,0.1,0.1,0.1,0.2c0.1,0.1,0.2,0.1,0.2,0.2c0,0.1,0,0.1,0,0.1c0,0,0,0,0.1,0.1
		c0,0.1,0.1,0.1,0.1,0.1c0,0.2,0,0.3,0,0.3s0,0,0,0.1s0,0.1,0.1,0.1c0,0,0,0.1,0,0.2c0,0.1,0,0.1,0.1,0.2c0,0,0,0,0.1,0
		c0,0,0.1,0,0.1,0s0,0.1,0,0.1c0,0-0.1,0-0.1,0c0,0.1,0,0.1,0,0.2c0,0.1,0,0.2,0,0.2l0,0.1c0,0.1,0,0.2,0,0.4c0,0.2,0,0.3,0,0.3
		c-0.1,0.1-0.1,0.1-0.1,0.2c0,0.1,0,0.2,0,0.2C37.1,50,37.1,50,37.1,50c0,0.1-0.1,0.1-0.1,0.2c0,0.1,0,0.1,0,0.1
		c-0.1,0.1-0.1,0.2-0.1,0.3c0,0-0.1,0.1-0.2,0.2c-0.1,0.1-0.1,0.2-0.2,0.3c0,0,0,0.1,0,0.1c0,0,0,0.1-0.1,0.1c0,0-0.1,0.1-0.1,0.1
		c-0.2,0.1-0.4,0.3-0.4,0.6c0,0,0,0-0.1,0c0,0,0,0-0.1,0c-0.1,0-0.1,0.1-0.1,0.2c-0.3,0.2-0.5,0.4-0.5,0.5c-0.1,0.1-0.2,0.1-0.2,0.2
		c-0.3,0.2-0.5,0.4-0.7,0.6c-0.1,0-0.2,0.1-0.3,0.2c0,0-0.1,0.1-0.2,0.1c-0.1,0.1-0.1,0.1-0.2,0.1c-0.2,0.1-0.2,0.1-0.2,0.2
		c0,0.1,0,0.1,0.1,0.1c0,0,0.1,0.1,0.1,0.1c0,0,0.1,0.1,0.1,0.1c0.1,0,0.1,0,0.1,0.1c0,0,0,0,0.1,0.1c0,0,0.1,0,0.1,0
		c0.1,0,0.1,0,0.1,0c0,0,0,0,0.1,0.1c0.1,0,0.1,0.1,0.1,0.1c0,0,0.1,0,0.1,0c0,0,0,0.1,0,0.1h0.2c0.1,0.1,0.2,0.1,0.2,0.1
		c0.1,0.1,0.1,0.1,0.3,0.2c0.1,0.1,0.2,0.1,0.3,0.2h0.1c0,0,0.1,0,0.1,0.1c0,0,0.1,0.1,0.1,0.1h0.2c0,0,0.1,0.1,0.1,0.1
		c0.1,0.1,0.2,0.2,0.3,0.2c0.1,0.1,0.2,0.1,0.3,0.1c0.1,0.2,0.3,0.3,0.4,0.2c0,0,0.1,0.1,0.1,0.2c0.2,0.1,0.4,0.3,0.6,0.4h0.1
		c0.2,0.2,0.4,0.3,0.4,0.3c0,0.1,0.1,0.1,0.2,0.1c0.1,0,0.2,0.1,0.2,0.2c0.1,0,0.1,0,0.2,0.1c0.1,0.1,0.1,0.1,0.2,0.1
		c0.1,0.1,0.2,0.2,0.5,0.4c0.2,0.1,0.4,0.3,0.5,0.4H40c0,0,0.1,0,0.1,0.1c0.1,0.1,0.1,0.1,0.1,0.1c0,0,0.1,0,0.1,0c0,0,0.1,0,0.1,0
		c0,0.1,0.1,0.2,0.4,0.3c0.1,0.1,0.2,0.1,0.2,0c0.1,0,0.2,0,0.2,0c0.1,0.1,0.2,0.1,0.3,0.1c0.1-0.1,0.1-0.1,0.1-0.1
		c0,0,0.1,0,0.1,0.1c0.2-0.1,0.3,0,0.4,0.1c0.1,0.1,0.1,0.2,0.1,0.2c0,0,0,0.1,0.1,0.1c0,0,0.1,0,0.1,0c0,0,0.1,0.1,0.1,0.2
		c0,0.1,0.1,0.2,0.1,0.2v0.2c0,0,0,0.1,0,0.1c0,0,0,0.1,0,0.1c0,0,0.1,0.1,0.2,0.1c0.1,0.1,0.1,0.1,0.1,0.1c0,0,0,0.1,0,0.2
		c0.1,0.2,0.1,0.4,0,0.4c0,0,0,0.1,0.1,0.2c0,0.1,0,0.2,0,0.4c0,0.2,0,0.3,0,0.4h-0.3c-0.1,0-0.1,0.1-0.1,0.1c0,0.1-0.1,0.1-0.1,0.1
		c0,0,0,0-0.1,0.1s-0.1,0-0.1,0.1c0.1,0.1,0.1,0.1,0.1,0.1c0,0-0.1,0-0.1,0.1c-0.1,0-0.1,0-0.1,0.1c0,0,0,0,0,0.1c0,0,0,0,0,0.1
		c-0.1,0.1-0.1,0.1-0.2,0c-0.1-0.1-0.1-0.1-0.1-0.1s-0.1,0-0.2,0.1c-0.1,0.1-0.2,0.1-0.2,0.1c-0.1-0.2-0.2-0.3-0.3-0.3
		c0,0-0.1,0-0.1,0c0,0-0.1,0-0.1,0c0-0.1,0-0.2-0.1-0.2c0,0-0.1,0-0.1,0c0,0,0,0,0,0c0,0,0,0,0-0.1c0-0.1-0.1-0.1-0.2-0.2
		c0,0-0.1,0-0.1,0c0,0-0.1,0-0.1,0c-0.1-0.2-0.2-0.3-0.4-0.4h-0.1c-0.1,0-0.1-0.1-0.2-0.2c-0.1-0.1-0.3-0.2-0.4-0.2
		c0,0-0.1-0.1-0.1-0.1c-0.1-0.1-0.1-0.1-0.1-0.1C39,60.8,39,60.8,39,60.8c0,0,0,0-0.1-0.1c0-0.1,0-0.1-0.1-0.1s-0.1,0-0.1-0.1
		c-0.1,0-0.1-0.1-0.1-0.1c0-0.1-0.1-0.2-0.2-0.1c0-0.1,0-0.1,0-0.1C38.1,60.1,38,60,38,59.9c0,0-0.2-0.1-0.6-0.4c0,0,0,0-0.1,0
		c0,0,0,0-0.1,0c0-0.1-0.1-0.1-0.2-0.3c-0.1,0-0.2-0.1-0.4-0.2c0,0-0.1,0-0.1,0c0,0-0.1,0-0.1,0c0,0,0,0,0-0.1c0,0,0-0.1,0-0.1
		c0,0-0.1,0-0.1,0c0,0-0.1,0-0.1,0c-0.1,0-0.1-0.1-0.2-0.2c-0.1-0.1-0.1-0.1-0.1-0.1c0,0,0-0.1-0.1-0.1c-0.1,0-0.1-0.1-0.1-0.1
		c-0.1,0-0.2-0.1-0.3-0.2c-0.1-0.1-0.2-0.2-0.3-0.2c-0.1,0-0.1,0-0.1,0c0-0.1-0.1-0.1-0.2-0.2c0-0.1-0.1-0.1-0.3-0.2
		c0,0-0.1,0-0.1,0c0,0,0,0-0.1-0.1s0,0-0.1,0c0,0,0,0-0.1,0c0,0,0,0-0.1-0.1s-0.1,0-0.1,0c-0.1,0-0.2,0-0.2,0c0,0-0.1,0-0.1-0.1
		c-0.1-0.1-0.1-0.1-0.2-0.1c-0.1,0.1-0.1,0.1-0.1,0c0,0,0,0,0-0.1c0,0,0-0.1,0-0.1s-0.1,0-0.1,0c0,0-0.1,0-0.1,0c0,0,0-0.1-0.1-0.1
		c0,0,0-0.1-0.1-0.1H33L32.9,57c-0.1,0-0.1,0-0.2-0.1c-0.1-0.1-0.1-0.1-0.2,0c0-0.1-0.1-0.1-0.2-0.1c-0.1,0-0.2-0.1-0.2-0.1
		c-0.1,0-0.2,0-0.3-0.1c-0.1,0-0.2-0.1-0.3-0.2c-0.1,0-0.1,0-0.3,0.1c0,0,0,0,0,0c0,0,0-0.1,0-0.1c0,0-0.1,0-0.2,0c0,0,0,0,0-0.1
		c0,0,0,0,0-0.1C30.7,56,30.6,56,30.4,56c-0.1-0.1-0.2-0.2-0.4-0.2c0,0-0.1-0.1-0.2-0.1c0,0-0.1,0-0.1-0.1c-0.1,0-0.1,0.1-0.1,0.2
		c0,0.2,0,0.3,0,0.4c0,0,0,0.1,0.1,0.1c0,0,0,0,0,0.1s0,0,0,0.1c0,0.1,0,0.1,0,0.1c0,0.3,0,0.5,0.1,0.6l0,0.3v0.1c0,0,0,0.1,0.1,0.2
		c0,0.1,0,0.1,0,0.2c0,0.1,0,0.1,0,0.1c0,0,0.1,0.1,0.1,0.1c0,0.1,0.1,0.1,0.1,0.1c0,0.1,0,0.1,0,0.3c0,0.1,0,0.2,0,0.3
		c0,0,0,0,0.1,0.1c0,0,0.1,0,0.1,0.1c0,0.2,0,0.3,0,0.4c0,0.1,0,0.2,0.1,0.3c0,0,0,0.1,0,0.3s0,0.2,0,0.3c0,0,0.1,0,0.1,0
		c0,0,0.1,0.1,0.1,0.1c0,0.1,0,0.1-0.1,0.2c0,0,0,0.1,0,0.1c0,0,0,0.1,0,0.3c0,0.1,0,0.3,0,0.5c0,0.3,0,0.4,0,0.4c0,0,0,0.1,0,0.1
		c0,0,0,0-0.1,0c0,0,0,0-0.1,0.1c0,0.1-0.1,0.1-0.1,0.2c-0.1,0.1-0.1,0.1-0.1,0.2c-0.1,0-0.1,0-0.2,0c-0.2,0.1-0.3,0.2-0.3,0.3
		c0,0,0,0-0.1,0s0,0-0.1,0c0,0,0,0,0,0.1c0,0,0,0-0.1,0c0,0,0,0-0.1-0.1c-0.1,0-0.1,0-0.2,0C29,63,28.9,63,28.9,63
		c0-0.1,0-0.2-0.1-0.2c-0.2,0-0.3-0.1-0.4-0.3c-0.1,0-0.1,0-0.1,0c0,0-0.1,0-0.1,0c0.1-0.1,0-0.2-0.2-0.3c-0.2-0.1-0.2-0.1-0.2-0.2
		c0,0,0,0-0.1,0c0,0,0,0-0.1,0c-0.1-0.1,0-0.2,0.1-0.2c0-0.1,0-0.1,0-0.2c0-0.1,0-0.1,0-0.1s0-0.1,0-0.1c0,0-0.1-0.1-0.1-0.1
		c0,0-0.1,0-0.1,0c0,0,0-0.1,0.1-0.1c0.1-0.2,0.1-0.4,0-0.4v-0.4c0.1-0.1,0.1-0.2,0.1-0.3s0-0.2-0.1-0.3c0-0.1,0-0.2,0-0.3
		s0-0.2,0-0.3c0-0.1-0.1-0.1-0.1-0.1c0-0.1,0-0.2,0-0.3c0-0.2,0-0.3-0.1-0.3c0-0.1,0-0.1,0-0.2c0-0.1,0-0.2,0-0.2c0,0,0-0.1-0.1-0.1
		c0-0.1-0.1-0.1-0.1-0.1c0-0.1,0-0.1,0-0.3c0-0.1,0-0.2,0-0.3c0-0.1-0.1-0.1-0.1-0.2c0-0.1-0.1-0.1-0.1-0.2c0-0.1,0-0.2,0-0.3
		c0-0.2,0-0.3,0-0.3c0-0.1,0-0.2-0.1-0.2c0,0,0-0.2,0-0.4c0,0,0-0.1,0-0.1c0,0,0-0.1,0-0.1c0,0,0-0.1,0-0.1c0-0.1,0-0.1,0-0.1
		c0,0,0-0.1-0.1-0.1c0,0,0,0-0.1,0c0-0.1,0-0.2,0-0.3c0-0.1,0-0.2,0-0.3c0,0,0-0.1-0.1-0.2c0-0.1,0-0.1,0-0.2c0-0.1,0-0.2,0-0.2
		c0,0,0-0.1,0-0.2c0-0.1,0-0.1,0-0.1c0,0,0-0.1,0-0.1c0,0,0-0.1,0-0.1c0-0.1,0-0.1,0-0.1c0,0,0-0.1,0-0.1c0,0,0-0.1,0-0.1
		c0-0.1-0.1-0.1-0.2-0.1c0-0.1,0-0.1,0-0.1c0,0,0,0,0.1,0c0,0,0,0,0.1,0l0-0.2c0-0.1,0-0.2,0-0.4c0-0.2,0-0.3,0-0.4
		c-0.1-0.1-0.1-0.1-0.1-0.1c0,0,0-0.1,0-0.1c0,0,0-0.1,0-0.1c0,0,0-0.1,0-0.1c0,0,0-0.1,0-0.1c0-0.2-0.1-0.2-0.1-0.2l0-0.1
		c0,0,0-0.1,0-0.4c0,0,0-0.1-0.1-0.2c0-0.1,0-0.2,0-0.2c0,0,0-0.1,0-0.1c0,0,0-0.1,0-0.1c0,0,0-0.1,0-0.1c0,0,0-0.1,0-0.1
		c0,0,0-0.1,0-0.1c-0.1-0.1-0.1-0.2,0-0.3c-0.1-0.1-0.1-0.2-0.1-0.3c0-0.1,0-0.2-0.1-0.3l0,0c0,0-0.1,0-0.1,0c0,0,0-0.1,0-0.1l0,0
		c0-0.1,0-0.1,0-0.3s0-0.2,0-0.2c0,0,0-0.1,0-0.1c0-0.2,0-0.3,0-0.3c0,0-0.1,0-0.1,0c0,0,0,0,0,0c0,0,0,0,0-0.1c0,0,0,0,0-0.1
		c0-0.1,0-0.1,0-0.3c0-0.1,0-0.2,0-0.3c0,0,0,0,0-0.1c0,0,0,0,0-0.1c0,0,0-0.1-0.1-0.2c0-0.1,0-0.1,0-0.2c-0.1,0-0.2,0-0.4-0.1
		c-0.1,0-0.2,0-0.3,0l-0.2-0.2c0-0.1-0.1-0.1-0.3-0.2c0,0-0.1-0.1-0.1-0.2C24,46.2,24,46.1,24,46.1c-0.1-0.1-0.2-0.2-0.3-0.2
		c-0.1-0.1-0.1-0.2-0.1-0.3s0-0.2,0-0.3c0-0.1,0-0.2,0-0.4c0-0.1,0-0.1,0.1-0.3c0.1-0.1,0.1-0.2,0.1-0.3c0.1-0.1,0.1-0.1,0.1-0.1
		s0,0,0-0.1s0,0,0,0s0.1,0,0.2,0C24.4,44.1,24.5,44.1,24.5,44z M29.2,47c-0.1,0-0.1,0-0.2-0.1c-0.1,0-0.2,0-0.3,0
		c-0.1,0-0.2,0-0.3,0c0,0,0,0.1,0,0.4c0,0,0,0.1,0,0.1s0,0.1,0,0.1c0,0.1,0,0.1,0.1,0.2c0.1,0.1,0.1,0.1,0.1,0.2c0,0,0,0.1,0,0.1
		c0,0,0,0.1,0,0.1c0,0.1,0,0.1,0,0.3c0,0.1,0,0.2,0,0.3c0.1,0.1,0.1,0.2,0.1,0.3c0,0.1,0,0.1,0,0.2c0,0,0,0.1,0.1,0.1
		c0,0.1,0.1,0.1,0.1,0.2c0,0,0,0.1,0,0.2c0,0.1,0,0.2,0,0.2c0,0.2,0,0.3,0,0.3c0,0,0,0.1,0,0.1c0,0,0,0.1,0,0.1c0,0,0,0.1,0,0.2
		c0,0.1,0,0.1,0,0.2c0,0.1,0,0.1,0,0.1c0,0,0,0.1,0.1,0.1c0,0,0,0.1,0,0.1c0,0.1,0,0.1,0,0.3c0,0.1,0,0.2,0,0.3c0,0,0,0.1,0,0.1
		c0,0,0,0,0.1,0c0,0.1,0,0.2,0,0.3s0,0.2,0.1,0.3c-0.1,0.1-0.1,0.2,0,0.4c0,0.1,0.1,0.1,0.1,0.2c0,0,0.1,0,0.3,0c0.1,0,0.2,0,0.3,0
		c0,0,0-0.1,0-0.1c0,0,0.1,0,0.1,0c0,0,0.1,0,0.1,0c0.1,0,0.1,0,0.1,0s0.1,0,0.1,0c0.2,0,0.3-0.1,0.4-0.1c0,0,0.1,0,0.1,0
		c0.1-0.1,0.2-0.1,0.4-0.1c0.1,0,0.1,0,0.2,0c0.1,0,0.2-0.1,0.2-0.1c0.1-0.1,0.1-0.1,0.1-0.1c0,0,0,0,0.1,0c0.1,0,0.2-0.1,0.2-0.2
		c0.1-0.1,0.1-0.1,0.2-0.2c0.1,0,0.3-0.1,0.4-0.3s0.2-0.2,0.4-0.3c0.2-0.2,0.4-0.4,0.5-0.4c0-0.1,0.1-0.2,0.2-0.3
		c0.1-0.1,0.1-0.2,0.2-0.2c0.1-0.1,0.2-0.2,0.3-0.4c0.1-0.2,0.2-0.4,0.2-0.4c0-0.1,0-0.2,0.1-0.3c0.1-0.1,0.1-0.2,0.1-0.3
		c0.2-0.2,0.2-0.4,0.1-0.6c0,0,0-0.1,0-0.3c0-0.1-0.1-0.1-0.2-0.2c-0.1-0.1-0.2-0.1-0.2-0.2c0,0-0.1,0-0.2-0.1c-0.1,0-0.1,0-0.2,0
		c0-0.1-0.1-0.1-0.3-0.1c-0.1,0-0.1,0-0.2,0s-0.1,0-0.1-0.1c0,0-0.1-0.1-0.1-0.1c0,0-0.1,0-0.1,0c0,0-0.1,0-0.1,0s-0.1,0-0.1-0.1
		c0-0.1-0.1-0.1-0.2,0c-0.1,0-0.2,0-0.2,0c-0.2-0.1-0.3-0.1-0.3,0c-0.1-0.1-0.2-0.1-0.5-0.1c-0.1,0-0.2,0-0.2,0c-0.2,0-0.3,0-0.3,0
		c0,0-0.1,0-0.1,0c0,0-0.1-0.1-0.1-0.1c-0.2,0-0.3,0-0.4,0l-0.1,0c0,0-0.2,0-0.5,0c0,0-0.1,0-0.1-0.1c0,0-0.1-0.1-0.1-0.1
		C29.5,46.9,29.4,47,29.2,47z M28.3,47c0,0,0,0.1,0,0.4c0,0,0,0.1,0,0.1s0,0.1,0,0.1c0,0.1,0,0.1,0.1,0.2c0.1,0.1,0.1,0.1,0.1,0.2
		c0,0,0,0.1,0,0.1c0,0,0,0.1,0,0.1c0,0.1,0,0.1,0,0.3c0,0.1,0,0.2,0,0.3c0.1,0.1,0.1,0.2,0.1,0.3c0,0.1,0,0.1,0,0.2
		c0,0,0,0.1,0.1,0.1c0,0.1,0.1,0.1,0.1,0.2c0,0,0,0.1,0,0.2c0,0.1,0,0.2,0,0.2c0,0.2,0,0.3,0,0.3c0,0,0,0.1,0,0.1c0,0,0,0.1,0,0.1
		c0,0,0,0.1,0,0.2c0,0.1,0,0.1,0,0.2c0,0.1,0,0.1,0,0.1c0,0,0,0.1,0.1,0.1c0,0,0,0.1,0,0.1c0,0.1,0,0.1,0,0.3c0,0.1,0,0.2,0,0.3
		c0,0,0,0.1,0,0.1c0,0,0,0,0.1,0c0,0.1,0,0.2,0,0.3s0,0.2,0.1,0.3c-0.1,0.1-0.1,0.2,0,0.4c0,0.1,0.1,0.1,0.1,0.2c0,0,0.1,0,0.3,0
		c0.1,0,0.2,0,0.3,0c0,0,0-0.1,0-0.1c0,0,0.1,0,0.1,0c0,0,0.1,0,0.1,0c0.1,0,0.1,0,0.1,0s0.1,0,0.1,0c0.2,0,0.3-0.1,0.4-0.1
		c0,0,0.1,0,0.1,0c0.1-0.1,0.2-0.1,0.4-0.1c0.1,0,0.1,0,0.2,0c0.1,0,0.2-0.1,0.2-0.1c0.1-0.1,0.1-0.1,0.1-0.1c0,0,0,0,0.1,0
		c0.1,0,0.2-0.1,0.2-0.2c0.1-0.1,0.1-0.1,0.2-0.2c0.1,0,0.3-0.1,0.4-0.3s0.2-0.2,0.4-0.3c0.2-0.2,0.4-0.4,0.5-0.4
		c0-0.1,0.1-0.2,0.2-0.3c0.1-0.1,0.1-0.2,0.2-0.2c0.1-0.1,0.2-0.2,0.3-0.4c0.1-0.2,0.2-0.4,0.2-0.4c0-0.1,0-0.2,0.1-0.3
		c0.1-0.1,0.1-0.2,0.1-0.3c0.2-0.2,0.2-0.4,0.1-0.6c0,0,0-0.1,0-0.3c0-0.1-0.1-0.1-0.2-0.2c-0.1-0.1-0.2-0.1-0.2-0.2
		c0,0-0.1,0-0.2-0.1c-0.1,0-0.1,0-0.2,0c0-0.1-0.1-0.1-0.3-0.1c-0.1,0-0.1,0-0.2,0s-0.1,0-0.1-0.1c0,0-0.1-0.1-0.1-0.1
		c0,0-0.1,0-0.1,0c0,0-0.1,0-0.1,0s-0.1,0-0.1-0.1c0-0.1-0.1-0.1-0.2,0c-0.1,0-0.2,0-0.2,0c-0.2-0.1-0.3-0.1-0.3,0
		c-0.1-0.1-0.2-0.1-0.5-0.1c-0.1,0-0.2,0-0.2,0c-0.2,0-0.3,0-0.3,0c0,0-0.1,0-0.1,0c0,0-0.1-0.1-0.1-0.1c-0.2,0-0.3,0-0.4,0l-0.1,0
		c0,0-0.2,0-0.5,0c0,0-0.1,0-0.1-0.1c0,0-0.1-0.1-0.1-0.1c-0.1,0-0.3,0-0.4,0c-0.1,0-0.1,0-0.2-0.1c-0.1,0-0.2,0-0.3,0
		C28.5,47,28.4,47,28.3,47z M42.7,61.9C42.7,61.9,42.6,61.9,42.7,61.9C42.6,61.9,42.6,61.8,42.7,61.9C42.7,61.8,42.7,61.8,42.7,61.9
		C42.7,61.9,42.7,61.9,42.7,61.9z M42.6,61.8C42.7,61.8,42.7,61.8,42.6,61.8C42.7,61.9,42.7,61.9,42.6,61.8
		C42.7,61.9,42.6,61.9,42.6,61.8C42.6,61.9,42.6,61.8,42.6,61.8z"/>
	<path fill="#D93427" d="M54.6,38.4c0,0.1,0.1,0.2,0.2,0.2c0,0,0.1-0.1,0.1-0.1h0c0.1,0,0.1,0,0.1,0v0.1c0,0,0.1,0.1,0.1,0.1
		c0.1,0.1,0.1,0.1,0.1,0.2c0.1,0.1,0.1,0.2,0.2,0.3c0.1,0.1,0.2,0.1,0.3,0.1c0,0.1,0,0.1-0.1,0.2l-0.1,0c0,0.1,0,0.1,0.1,0.2
		c0,0.1,0,0.1,0.1,0.2c0,0.1,0.1,0.1,0.1,0.2s0,0.1,0,0.1c0,0.1,0,0.1,0,0.1c0,0,0,0.1,0,0.1c0,0,0.1,0.1,0.1,0.1c0,0,0,0.1,0,0.1
		c0,0,0,0.1,0,0.1c0,0,0,0.1,0.1,0.1c0,0,0,0.1,0.1,0.1c0,0.2,0.1,0.3,0.1,0.3c0.1,0.3,0.1,0.5,0.2,0.5c0,0.3,0,0.4,0.1,0.5
		c0,0.1,0,0.2,0,0.3c0.1,0.1,0.1,0.2,0,0.3c0,0,0,0.1,0,0.1c0,0,0,0.1,0,0.2c0,0.1,0,0.1,0,0.2c0,0,0.1,0,0.1,0c0,0,0.1,0,0.1,0
		c0,0.2,0,0.4,0,0.4c0,0.1,0,0.1,0,0.1c0,0,0,0,0,0s0,0,0,0c0,0,0,0,0,0.1c0,0,0,0.1,0,0.1c0,0,0,0.1,0,0.1c0,0,0,0.1,0,0.1
		c0,0.1,0,0.2,0.1,0.5c0.1,0.2,0.1,0.4,0,0.6c0.1,0.1,0.2,0.3,0.2,0.5c0,0.1,0,0.1,0,0.1c0,0,0,0,0,0.1c0,0,0,0.1,0.1,0.1
		c0,0,0,0.1,0,0.2c0,0.1,0,0.1,0,0.2s0,0.1,0,0.1c0,0,0.1,0.1,0.1,0.1c0,0,0,0.1,0,0.2c0,0.1,0,0.2,0,0.2c0,0.1,0,0.1,0.1,0.2
		c0.1,0.1,0.1,0.1,0,0.2l0.2,0.1c0,0.1,0,0.1-0.1,0.2c0,0.1,0,0.1,0,0.2c0,0.1,0,0.1,0,0.1c0,0,0,0,0,0.1c0,0,0,0,0,0.1v0
		c0.1,0.2,0.1,0.3,0,0.3c0.1,0.3,0.1,0.5,0.1,0.6l0.1,0c0,0,0,0.2,0,0.5l0,0.1c0,0,0,0.1,0.1,0.2c0,0,0,0.1,0,0.2c0,0.1,0,0.2,0,0.2
		c0,0,0,0.1,0.1,0.2c0,0.1,0.1,0.1,0.1,0.2c0,0.1,0,0.2,0,0.2c0,0,0,0.1,0,0.1c0,0,0,0.1,0,0.1c0,0.1,0.1,0.1,0.1,0.1
		c0.1,0.2,0.1,0.3,0.1,0.3c-0.1,0.1-0.1,0.2,0,0.2l0,0c0,0,0,0.1,0,0.1c0,0,0,0.1,0,0.1c0,0,0.1,0.1,0.1,0.1c0,0.1,0,0.1,0,0.2
		c0,0.1,0,0.1,0,0.3c0,0.1,0,0.2,0,0.3c0,0,0,0.1,0.1,0.1c0,0,0.1,0.1,0.1,0.1c0.1,0.2,0.1,0.4,0.1,0.4c0,0,0.1,0.1,0.2,0.1
		c0.1,0,0.2,0.1,0.2,0.1c0,0,0,0.1,0,0.1c0,0,0.1,0.1,0.1,0.1c0.1,0,0.1,0,0.2,0.1c0,0.1,0,0.2,0.1,0.3c0.1,0.1,0.1,0.2,0.1,0.3
		c0.1,0.1,0.1,0.1,0.1,0.1c-0.1,0.1-0.1,0.2-0.2,0.2c0,0,0,0.1-0.1,0.2s0,0.2-0.1,0.3c-0.1,0-0.1,0.1-0.1,0.1c0,0.1,0,0.1,0,0.2
		c0,0.1,0,0.1,0,0.1c0,0,0,0,0,0.1c0,0,0,0.1,0,0.1c0,0,0,0.1,0.1,0.1c0,0,0.1,0.1,0.1,0.1c0,0.1,0,0.1,0,0.2c0,0.1,0,0.2,0.1,0.2
		c0,0.4,0.1,0.7,0.3,0.8c-0.1,0.3,0,0.5,0.1,0.6c0,0.1,0,0.2,0.1,0.2c0,0,0.1,0,0.1,0c0,0,0,0.1,0,0.1c0,0.1,0,0.1,0,0.1
		c0,0.1,0,0.1,0,0.1s0.1,0.1,0.1,0.1c0,0.1,0,0.2,0.1,0.3c0.1,0.1,0.1,0.2,0.1,0.2c0,0,0.1,0.1,0.1,0.3c0,0.1,0.1,0.2,0.2,0.3
		c0,0.2,0.1,0.2,0.2,0.2c0,0,0,0.1,0.1,0.1c0,0.1,0.1,0.1,0.1,0.2c0.1,0.1,0.2,0.2,0.2,0.3c0,0,0.1,0.1,0.1,0.1c0,0,0.1,0.1,0.1,0.1
		c0,0,0,0.1,0,0.1c0,0.1,0,0.1,0,0.1c0,0.1,0,0.2,0,0.3s0,0.2,0,0.3c0.1,0.1,0.1,0.2,0,0.4c-0.1,0-0.1,0.1-0.2,0.2
		c-0.1,0-0.2,0.1-0.3,0.2C60.9,62,60.8,62,60.7,62c0,0,0,0.1,0,0.1c0,0,0,0.1,0,0.1h-0.4c0-0.1-0.1-0.2-0.2-0.3
		c-0.1-0.1-0.2-0.1-0.2-0.2c-0.2,0-0.3,0-0.4-0.1c0,0,0,0.1,0,0.1c0,0,0,0.1,0,0.1c-0.1,0-0.1,0-0.1-0.1c0-0.1,0-0.1,0-0.1
		c0-0.1-0.1-0.1-0.2-0.1c-0.2-0.2-0.4-0.4-0.6-0.4c0-0.2-0.1-0.4-0.3-0.4c0-0.1,0-0.1,0-0.2v0c0-0.1-0.1-0.1-0.1-0.3
		c-0.1-0.1-0.1-0.2-0.1-0.2c-0.1,0-0.1,0-0.1,0c0.1-0.2,0-0.3-0.1-0.4c0-0.1,0-0.2-0.1-0.3c0,0-0.1,0-0.1,0s0,0,0,0c0,0,0-0.1,0-0.1
		c0-0.1,0-0.1,0-0.1c0,0,0-0.1-0.1-0.1c0-0.1,0-0.1,0-0.2l-0.2,0l0.1-0.2c0-0.1,0-0.2-0.1-0.2c0-0.2-0.1-0.4-0.2-0.4
		c0,0,0-0.1,0-0.1c0-0.1,0-0.1,0-0.1c0,0,0-0.1,0-0.1c0,0,0-0.1,0-0.1c0,0,0-0.1-0.1-0.2c0-0.1-0.1-0.2-0.1-0.2
		c-0.1-0.3-0.1-0.4-0.2-0.4c0,0,0-0.1,0-0.1c0-0.1,0-0.1,0-0.1c0,0,0-0.1-0.1-0.1c0,0-0.1-0.1-0.1-0.1c0,0,0-0.1,0-0.1
		c0-0.1,0-0.1,0-0.1s0,0,0-0.1c0,0,0,0,0-0.1c-0.1-0.1-0.1-0.2-0.1-0.2c0,0-0.1,0-0.2,0c-0.1,0-0.1,0-0.2,0c-0.1,0-0.2,0.1-0.2,0.1
		v0v0c0,0-0.1,0-0.1,0c0,0-0.1,0-0.1,0c-0.1,0-0.1,0-0.1,0.1c0,0-0.1,0-0.1-0.1c-0.1,0-0.1,0-0.2,0.1c-0.1,0-0.1,0.1-0.1,0.1
		c-0.1-0.1-0.1-0.1-0.2-0.1c-0.1,0-0.1,0.1-0.1,0.2c-0.2,0-0.3,0-0.3,0c-0.1-0.1-0.1-0.1-0.2-0.1c0,0-0.1,0-0.1,0.1
		c0,0-0.1,0-0.2-0.1c-0.1,0-0.2,0-0.3,0.2c-0.1,0-0.2,0-0.2,0c-0.1-0.1-0.2-0.1-0.4-0.1c-0.2,0-0.3,0.1-0.3,0.1c-0.5,0-0.7,0-0.8,0
		c-0.1,0-0.2,0-0.4,0c-0.2,0-0.3,0-0.4,0c0,0.1,0,0.1,0,0.2c-0.1,0-0.1,0-0.3-0.2c0,0-0.1,0-0.1,0.1c0,0-0.1,0-0.3,0
		c-0.1,0-0.2,0-0.3,0c0,0-0.1,0-0.1-0.1s-0.1,0-0.1,0c-0.1,0-0.1,0-0.2,0.1c-0.1-0.1-0.2-0.1-0.2-0.1s-0.1,0-0.1,0.1
		c0,0.1-0.1,0.1-0.1,0.1c-0.1-0.1-0.1-0.2-0.1-0.2c0,0-0.1,0-0.2,0.1c-0.1,0.1-0.1,0.1-0.1,0.1c0,0-0.1,0.1-0.2,0.2
		c0,0.1,0,0.2-0.1,0.3v0.1c0,0-0.1,0.1-0.1,0.1c0,0-0.1,0.1-0.1,0.1c0,0.1,0,0.1-0.1,0.2c0,0.1-0.1,0.2-0.1,0.3c0,0,0,0,0,0s0,0,0,0
		V58c0,0,0,0.1-0.1,0.2c0,0.1-0.1,0.2-0.2,0.4c0.1,0.1,0,0.1,0,0.2c-0.1,0.1-0.1,0.1-0.1,0.1c0,0,0,0,0,0.1c0,0,0,0.1,0,0.1
		s0,0-0.1,0.1c-0.1,0-0.1,0-0.1,0.1c0,0.2-0.1,0.4-0.2,0.4c0,0.1,0,0.2,0,0.3l-0.2,0c-0.1,0.3-0.1,0.4-0.2,0.4c0,0.1,0,0.1,0.1,0.2
		c0,0,0,0.1-0.1,0.1c0,0,0,0.1-0.1,0.2c-0.1,0-0.1,0.1-0.2,0.3c0,0,0,0.1-0.1,0.1s0,0.1,0,0.1c0,0,0,0,0,0.1c0,0,0,0.1,0,0.1
		c-0.1,0.2-0.2,0.3-0.2,0.4l-0.1,0.1c0,0.1,0,0.1-0.1,0.2c0,0,0,0.1,0,0.1c0,0,0,0.1,0,0.1c0,0,0,0.1-0.1,0.1s0,0-0.1,0
		c0,0,0,0-0.1,0c0,0-0.1,0.1-0.1,0.2c-0.1,0-0.1,0-0.1,0.1c0,0.1-0.1,0.1-0.1,0.1c0,0-0.1,0-0.1-0.1c0,0-0.1-0.1-0.1-0.1
		c-0.1,0-0.1,0-0.1,0c0,0-0.1,0-0.1,0c0-0.1,0-0.2,0-0.2c-0.2,0-0.4,0-0.4,0c0-0.1,0-0.2-0.1-0.2c0,0-0.1,0-0.1,0c0,0-0.1,0-0.1,0
		c0,0,0,0,0-0.1s0-0.1,0-0.1c-0.1,0-0.1,0-0.1,0c0,0.1,0,0.1-0.1,0.1c0-0.1,0-0.1-0.1-0.2c-0.1-0.1-0.1-0.1-0.1-0.2
		c-0.1,0-0.1,0-0.1,0c0-0.1,0-0.2,0-0.2c0,0-0.1,0-0.1,0c0-0.1,0-0.3,0-0.4l0,0h0c0.1-0.1,0.1-0.3,0.1-0.5C45,60.7,45,60.6,45,60.6
		h0.1h0c0,0,0-0.1,0-0.2h0.1c0,0,0-0.1,0-0.2c0-0.1,0-0.1,0-0.1l0.1-0.1c0-0.1,0.1-0.2,0.2-0.3c0-0.1,0-0.1,0-0.1
		c0,0-0.1-0.1-0.1-0.1c0.1,0,0.2-0.1,0.2-0.2c0,0,0.1,0,0.1-0.1c0-0.1,0-0.2,0-0.2c0-0.1,0-0.1,0-0.1c0,0,0-0.1,0-0.1
		c0-0.1,0-0.1,0-0.1c0,0,0-0.1,0.1-0.1c0-0.1,0.1-0.2,0.2-0.3c0.1-0.1,0.1-0.2,0.1-0.3c0.1-0.2,0.1-0.3,0.2-0.3c0-0.1,0-0.3,0.1-0.4
		c0.1-0.2,0.1-0.3,0.1-0.4c0.1,0,0.1,0,0.2-0.1c0.1-0.1,0.1-0.1,0.1-0.1c0-0.1,0-0.2,0.1-0.3C47,56.1,47,56,47,55.9
		c-0.1-0.1-0.1-0.1,0-0.2c0,0,0.1,0,0.1,0c0.1-0.1,0.1-0.2,0-0.3c-0.1,0-0.2,0-0.2,0c0-0.2-0.2-0.4-0.4-0.6c0,0,0,0,0.1-0.1
		c0,0,0.1,0,0.1-0.1c0-0.1,0-0.1-0.1-0.2c-0.1-0.1-0.1-0.1-0.1-0.1c0,0,0.1-0.1,0.2-0.4c0-0.1,0.1-0.2,0.2-0.3
		c0.1-0.1,0.2-0.1,0.2-0.2l0.5-0.1c0.1,0,0.2,0,0.3,0s0.2,0,0.2-0.1c0,0,0-0.1,0-0.1c0-0.1,0-0.1,0-0.1c0,0,0.1,0,0.1-0.1
		c0-0.1,0-0.1,0-0.1c0,0,0-0.1,0-0.1c0,0,0.1-0.1,0.1-0.1c0,0,0-0.1,0-0.1c0-0.2,0.1-0.3,0.2-0.4c0.1-0.2,0.1-0.4,0-0.5
		c0.1,0,0.1-0.1,0.2-0.2c0.1-0.1,0.1-0.2,0.1-0.2c0-0.1,0-0.2,0.1-0.3C49,51.1,49,51,49,51c0-0.1,0.1-0.1,0.1-0.2
		c0-0.1,0.1-0.2,0.1-0.2c0-0.1,0-0.2,0.1-0.3c0,0,0-0.1,0.1-0.2c0,0,0,0,0-0.1c0,0,0,0,0-0.1c0.1-0.1,0.1-0.1,0.1-0.2
		c0,0,0-0.1,0-0.1c0,0,0-0.1,0-0.1s0,0,0.1-0.1c0.1-0.2,0.1-0.3,0.2-0.4V49c0,0,0,0,0.1-0.1c0,0,0.1,0,0.1-0.1c0,0,0-0.1,0-0.1
		c0-0.1,0-0.1,0-0.1c0.1-0.2,0.1-0.3,0.1-0.4c0,0,0.1-0.1,0.1-0.1c0,0,0.1-0.1,0.1-0.1c0,0,0-0.1,0-0.1c0-0.1,0-0.1,0-0.1
		c0,0,0-0.1,0.1-0.1s0.1-0.1,0.1-0.1s0-0.1,0-0.1c0-0.1,0-0.1,0-0.2c0.1,0,0.1-0.1,0.1-0.1c0.1-0.2,0.1-0.4,0.1-0.4
		c0-0.1,0-0.2,0.1-0.3c0.1-0.1,0.1-0.3,0.1-0.4c0.1,0,0.1-0.1,0.1-0.3c0-0.2,0.1-0.3,0.1-0.3c0-0.1,0-0.1,0.1-0.2
		c0-0.1,0-0.1,0.1-0.1c0,0,0-0.1,0-0.1c0,0,0-0.1,0-0.1c0,0,0.1,0,0.1-0.1c0.1,0,0.1-0.1,0.1-0.1c0,0,0-0.1,0-0.2c0-0.1,0-0.1,0-0.2
		c0,0,0,0-0.1,0c0,0-0.1,0-0.1,0c0-0.1,0-0.1,0-0.2c0.1,0,0.2,0,0.2,0c0,0,0-0.1,0-0.1c0,0,0-0.1,0-0.1c0,0,0-0.1,0-0.1
		c0,0,0.1-0.1,0.1-0.1c0-0.1,0-0.1,0-0.2c0-0.1,0-0.1,0-0.1c0-0.1,0-0.1,0.1-0.3c0.1-0.1,0.1-0.2,0.1-0.3c0.1-0.1,0.1-0.1,0.1-0.3
		s0-0.2,0.1-0.2c0,0,0-0.1,0-0.1c0,0,0.1-0.1,0.1-0.1c0-0.1,0.1-0.1,0.1-0.1c0-0.1,0-0.2,0-0.3c0.1-0.1,0.1-0.2,0.1-0.2
		c0,0,0-0.1,0-0.1c0,0,0-0.1,0-0.1c0,0,0-0.1,0.1-0.2c0-0.1,0-0.1,0.1-0.2c0.1-0.1,0.1-0.1,0.1-0.2c0,0,0-0.1,0-0.1
		c0-0.1,0-0.1,0-0.2c0.1-0.2,0.1-0.4,0.1-0.4c0,0,0.1,0,0.1,0c0-0.2,0.1-0.3,0.2-0.4c0-0.1,0-0.2,0.1-0.2c0,0,0,0-0.1-0.1s0,0,0-0.1
		c0,0-0.1,0-0.1,0c-0.1-0.1-0.1-0.1,0-0.2c0.1,0,0.1,0,0.1,0c0-0.1,0-0.1,0-0.2c-0.1-0.2-0.1-0.2,0-0.2c0.1,0,0.1,0,0.1-0.1
		c0,0,0,0,0.1,0.1c0,0,0,0,0.1,0c0-0.1,0.1-0.1,0.1-0.3c0-0.1,0-0.1,0-0.1c0,0,0,0,0.1,0s0,0,0.1,0c0.3-0.2,0.5-0.2,0.7-0.1
		c0.1,0.1,0.1,0.1,0.2,0.1c0,0,0.1,0,0.1-0.1C54.4,38.2,54.5,38.2,54.6,38.4z M54.6,38.4c0,0.1,0.1,0.2,0.2,0.2c0,0,0.1-0.1,0.1-0.1
		h0c0.1,0,0.1,0,0.1,0v0.1c0,0,0.1,0.1,0.1,0.1c0.1,0.1,0.1,0.1,0.1,0.2c0.1,0.1,0.1,0.2,0.2,0.3c0.1,0.1,0.2,0.1,0.3,0.1
		c0,0.1,0,0.1-0.1,0.2l-0.1,0c0,0.1,0,0.1,0.1,0.2c0,0.1,0,0.1,0.1,0.2c0,0.1,0.1,0.1,0.1,0.2s0,0.1,0,0.1c0,0.1,0,0.1,0,0.1
		c0,0,0,0.1,0,0.1c0,0,0.1,0.1,0.1,0.1c0,0,0,0.1,0,0.1c0,0,0,0.1,0,0.1c0,0,0,0.1,0.1,0.1c0,0,0,0.1,0.1,0.1c0,0.2,0.1,0.3,0.1,0.3
		c0.1,0.3,0.1,0.5,0.2,0.5c0,0.3,0,0.4,0.1,0.5c0,0.1,0,0.2,0,0.3c0.1,0.1,0.1,0.2,0,0.3c0,0,0,0.1,0,0.1c0,0,0,0.1,0,0.2
		c0,0.1,0,0.1,0,0.2c0,0,0.1,0,0.1,0c0,0,0.1,0,0.1,0c0,0.2,0,0.4,0,0.4c0,0.1,0,0.1,0,0.1c0,0,0,0,0,0s0,0,0,0c0,0,0,0,0,0.1
		c0,0,0,0.1,0,0.1c0,0,0,0.1,0,0.2c0,0.1,0,0.3,0.1,0.5c0.1,0.2,0.1,0.4,0,0.6c0.1,0.1,0.2,0.3,0.2,0.5c0,0.1,0,0.1,0,0.1
		c0,0,0,0,0,0.1c0,0,0,0.1,0.1,0.1c0,0,0,0.1,0,0.2c0,0.1,0,0.1,0,0.2s0,0.1,0,0.1c0,0,0.1,0.1,0.1,0.1c0,0,0,0.1,0,0.2
		c0,0.1,0,0.2,0,0.2c0,0.1,0,0.1,0.1,0.2c0.1,0.1,0.1,0.1,0,0.2l0.2,0.1c0,0.1,0,0.1-0.1,0.2c0,0.1,0,0.1,0,0.2c0,0.1,0,0.1,0,0.1
		c0,0,0,0,0,0.1c0,0,0,0,0,0.1v0c0.1,0.2,0.1,0.3,0,0.3c0.1,0.3,0.1,0.5,0.1,0.6l0.1,0c0,0,0,0.2,0,0.5l0,0.1c0,0,0,0.1,0.1,0.2
		c0,0,0,0.1,0,0.2c0,0.1,0,0.2,0,0.2c0,0,0,0.1,0.1,0.2c0,0.1,0.1,0.1,0.1,0.2c0,0.1,0,0.2,0,0.2c0,0,0,0.1,0,0.1c0,0,0,0.1,0,0.1
		c0,0.1,0.1,0.1,0.1,0.1c0.1,0.2,0.1,0.3,0.1,0.3c-0.1,0.1-0.1,0.2,0,0.2l0,0c0,0,0,0.1,0,0.1c0,0,0,0.1,0,0.1c0,0,0.1,0.1,0.1,0.1
		c0,0.1,0,0.1,0,0.2c0,0.1,0,0.1,0,0.3c0,0.1,0,0.2,0,0.3c0,0,0,0.1,0.1,0.1c0,0,0.1,0.1,0.1,0.1c0.1,0.2,0.1,0.4,0.1,0.4
		c0,0,0.1,0.1,0.2,0.1c0.1,0,0.2,0.1,0.2,0.1c0,0,0,0.1,0,0.1c0,0,0.1,0.1,0.1,0.1c0.1,0,0.1,0,0.2,0.1c0,0.1,0,0.2,0.1,0.3
		c0.1,0.1,0.1,0.2,0.1,0.3c0.1,0.1,0.1,0.1,0.1,0.1c-0.1,0.1-0.1,0.2-0.2,0.2c0,0,0,0.1-0.1,0.2s0,0.2-0.1,0.3
		c-0.1,0-0.1,0.1-0.1,0.1c0,0.1,0,0.1,0,0.2c0,0.1,0,0.1,0,0.1c0,0,0,0,0,0.1c0,0,0,0.1,0,0.1c0,0,0,0.1,0.1,0.1
		c0,0,0.1,0.1,0.1,0.1c0,0.1,0,0.1,0,0.2c0,0.1,0,0.2,0.1,0.2c0,0.4,0.1,0.7,0.3,0.8c-0.1,0.3,0,0.5,0.1,0.6c0,0.1,0,0.2,0.1,0.2
		c0,0,0.1,0,0.1,0c0,0,0,0,0,0c0,0,0,0.1,0,0.1c0,0.1,0,0.1,0,0.1c0,0.1,0,0.1,0,0.1s0.1,0.1,0.1,0.1c0,0.1,0,0.2,0.1,0.3
		c0.1,0.1,0.1,0.2,0.1,0.2c0,0,0.1,0.1,0.1,0.3c0,0.1,0.1,0.2,0.2,0.3c0,0.2,0.1,0.2,0.2,0.2c0,0,0,0.1,0.1,0.1
		c0,0.1,0.1,0.1,0.1,0.2c0.1,0.1,0.2,0.2,0.2,0.3c0,0,0.1,0.1,0.1,0.1c0,0,0.1,0.1,0.1,0.1c0,0,0,0.1,0,0.1c0,0.1,0,0.1,0,0.1
		c0,0.1,0,0.2,0,0.3s0,0.2,0,0.3c0.1,0.1,0.1,0.2,0,0.4c-0.1,0-0.1,0.1-0.2,0.2c-0.1,0-0.2,0.1-0.3,0.2C60.9,62,60.8,62,60.7,62
		c0,0,0,0.1,0,0.1c0,0,0,0.1,0,0.1h-0.4c0-0.1-0.1-0.2-0.2-0.3c-0.1-0.1-0.2-0.1-0.2-0.2c-0.2,0-0.3,0-0.4-0.1c0,0,0,0.1,0,0.1
		c0,0,0,0.1,0,0.1c-0.1,0-0.1,0-0.1-0.1c0-0.1,0-0.1,0-0.1c0-0.1-0.1-0.1-0.2-0.1c-0.2-0.2-0.4-0.4-0.6-0.4c0-0.2-0.1-0.4-0.3-0.4
		c0-0.1,0-0.1,0-0.2v0c0-0.1-0.1-0.1-0.1-0.3c-0.1-0.1-0.1-0.2-0.1-0.2c-0.1,0-0.1,0-0.1,0c0.1-0.2,0-0.3-0.1-0.4
		c0-0.1,0-0.2-0.1-0.3c0,0-0.1,0-0.1,0s0,0,0,0c0,0,0-0.1,0-0.1c0-0.1,0-0.1,0-0.1c0,0,0-0.1-0.1-0.1c0-0.1,0-0.1,0-0.2l-0.2,0
		l0.1-0.2c0-0.1,0-0.2-0.1-0.2c0-0.2-0.1-0.4-0.2-0.4c0,0,0-0.1,0-0.1c0-0.1,0-0.1,0-0.1c0,0,0-0.1,0-0.1c0,0,0-0.1,0-0.1
		c0,0,0-0.1-0.1-0.2c0-0.1-0.1-0.2-0.1-0.2c-0.1-0.3-0.1-0.4-0.2-0.4c0,0,0-0.1,0-0.1c0-0.1,0-0.1,0-0.1c0,0,0-0.1-0.1-0.1
		c0,0-0.1-0.1-0.1-0.1c0,0,0-0.1,0-0.1c0-0.1,0-0.1,0-0.1s0,0,0-0.1c0,0,0,0,0-0.1c-0.1-0.1-0.1-0.2-0.1-0.2c0,0-0.1,0-0.2,0
		c-0.1,0-0.1,0-0.2,0c-0.1,0-0.2,0.1-0.2,0.1v0v0c0,0-0.1,0-0.1,0c0,0-0.1,0-0.1,0c-0.1,0-0.1,0-0.1,0.1c0,0-0.1,0-0.1-0.1
		c-0.1,0-0.1,0-0.2,0.1c-0.1,0-0.1,0.1-0.1,0.1c-0.1-0.1-0.1-0.1-0.2-0.1c-0.1,0-0.1,0.1-0.1,0.2c-0.2,0-0.3,0-0.3,0
		c-0.1-0.1-0.1-0.1-0.2-0.1c0,0-0.1,0-0.1,0.1c0,0-0.1,0-0.2-0.1c-0.1,0-0.2,0-0.3,0.2c-0.1,0-0.2,0-0.2,0c-0.1-0.1-0.2-0.1-0.4-0.1
		c-0.2,0-0.3,0.1-0.3,0.1c-0.5,0-0.7,0-0.8,0c-0.1,0-0.2,0-0.4,0c-0.2,0-0.3,0-0.4,0c0,0.1,0,0.1,0,0.2c-0.1,0-0.1,0-0.3-0.2
		c0,0-0.1,0-0.1,0.1c0,0-0.1,0-0.3,0c-0.1,0-0.2,0-0.3,0c0,0-0.1,0-0.1-0.1s-0.1,0-0.1,0c-0.1,0-0.1,0-0.2,0.1
		c-0.1-0.1-0.2-0.1-0.2-0.1s-0.1,0-0.1,0.1c0,0.1-0.1,0.1-0.1,0.1c-0.1-0.1-0.1-0.2-0.1-0.2c0,0-0.1,0-0.2,0.1
		c-0.1,0.1-0.1,0.1-0.1,0.1c0,0-0.1,0.1-0.2,0.2c0,0.1,0,0.2-0.1,0.3v0.1c0,0-0.1,0.1-0.1,0.1c0,0-0.1,0.1-0.1,0.1
		c0,0.1,0,0.1-0.1,0.2c0,0.1-0.1,0.2-0.1,0.3c0,0,0,0,0,0s0,0,0,0V58c0,0,0,0.1-0.1,0.2c0,0.1-0.1,0.2-0.2,0.4c0.1,0.1,0,0.1,0,0.2
		c-0.1,0.1-0.1,0.1-0.1,0.1c0,0,0,0,0,0.1c0,0,0,0.1,0,0.1s0,0-0.1,0.1c-0.1,0-0.1,0-0.1,0.1c0,0.2-0.1,0.4-0.2,0.4
		c0,0.1,0,0.2,0,0.3l-0.2,0c-0.1,0.3-0.1,0.4-0.2,0.4c0,0.1,0,0.1,0.1,0.2c0,0,0,0.1-0.1,0.1c0,0,0,0.1-0.1,0.2
		c-0.1,0-0.1,0.1-0.2,0.3c0,0,0,0.1-0.1,0.1s0,0.1,0,0.1c0,0,0,0,0,0.1c0,0,0,0.1,0,0.1c-0.1,0.2-0.2,0.3-0.2,0.4l-0.1,0.1
		c0,0.1,0,0.1-0.1,0.2c0,0,0,0.1,0,0.1c0,0,0,0.1,0,0.1c0,0,0,0.1-0.1,0.1s0,0-0.1,0c0,0,0,0-0.1,0c0,0-0.1,0.1-0.1,0.2
		c-0.1,0-0.1,0-0.1,0.1c0,0.1-0.1,0.1-0.1,0.1c0,0-0.1,0-0.1-0.1c0,0-0.1-0.1-0.1-0.1c-0.1,0-0.1,0-0.1,0c0,0-0.1,0-0.1,0
		c0-0.1,0-0.2,0-0.2c-0.2,0-0.4,0-0.4,0c0-0.1,0-0.2-0.1-0.2c0,0-0.1,0-0.1,0c0,0-0.1,0-0.1,0c0,0,0,0,0-0.1s0-0.1,0-0.1
		c-0.1,0-0.1,0-0.1,0c0,0.1,0,0.1-0.1,0.1c0-0.1,0-0.1-0.1-0.2c-0.1-0.1-0.1-0.1-0.1-0.2c-0.1,0-0.1,0-0.1,0c0-0.1,0-0.2,0-0.2
		c0,0-0.1,0-0.1,0c0-0.1,0-0.3,0-0.4l0,0h0c0.1-0.1,0.1-0.3,0.1-0.5C45,60.7,45,60.6,45,60.6h0.1h0c0,0,0-0.1,0-0.2h0.1
		c0,0,0-0.1,0-0.2c0-0.1,0-0.1,0-0.1l0.1-0.1c0-0.1,0.1-0.2,0.2-0.3c0-0.1,0-0.1,0-0.1c0,0-0.1-0.1-0.1-0.1c0.1,0,0.2-0.1,0.2-0.2
		c0,0,0.1,0,0.1-0.1c0-0.1,0-0.2,0-0.2c0-0.1,0-0.1,0-0.1c0,0,0-0.1,0-0.1c0-0.1,0-0.1,0-0.1c0,0,0-0.1,0.1-0.1
		c0-0.1,0.1-0.2,0.2-0.3c0.1-0.1,0.1-0.2,0.1-0.3c0.1-0.2,0.1-0.3,0.2-0.3c0-0.1,0-0.3,0.1-0.4c0.1-0.2,0.1-0.3,0.1-0.4
		c0.1,0,0.1,0,0.2-0.1c0.1-0.1,0.1-0.1,0.1-0.1c0-0.1,0-0.2,0.1-0.3C47,56.1,47,56,47,55.9c-0.1-0.1-0.1-0.1,0-0.2c0,0,0.1,0,0.1,0
		c0.1-0.1,0.1-0.2,0-0.3c-0.1,0-0.2,0-0.2,0c0-0.2-0.2-0.4-0.4-0.6c0,0,0,0,0.1-0.1c0,0,0.1,0,0.1-0.1c0-0.1,0-0.1-0.1-0.2
		c-0.1-0.1-0.1-0.1-0.1-0.1c0,0,0.1-0.1,0.2-0.4c0-0.1,0.1-0.2,0.2-0.3c0.1-0.1,0.2-0.1,0.2-0.2l0.5-0.1c0.1,0,0.2,0,0.3,0
		s0.2,0,0.2-0.1c0,0,0-0.1,0-0.1c0-0.1,0-0.1,0-0.1c0,0,0.1,0,0.1-0.1c0-0.1,0-0.1,0-0.1c0,0,0-0.1,0-0.1c0,0,0.1-0.1,0.1-0.1
		c0,0,0-0.1,0-0.1c0-0.2,0.1-0.3,0.2-0.4c0.1-0.2,0.1-0.4,0-0.5c0.1,0,0.1-0.1,0.2-0.2c0.1-0.1,0.1-0.2,0.1-0.2c0-0.1,0-0.2,0.1-0.3
		C49,51.1,49,51,49,51c0-0.1,0.1-0.1,0.1-0.2c0.1-0.1,0.1-0.2,0.1-0.2c0-0.1,0-0.2,0.1-0.3c0,0,0-0.1,0.1-0.2c0,0,0,0,0-0.1
		c0,0,0,0,0-0.1c0.1-0.1,0.1-0.1,0.1-0.2c0,0,0-0.1,0-0.1c0,0,0-0.1,0-0.1s0,0,0.1-0.1c0.1-0.2,0.1-0.3,0.2-0.4V49c0,0,0,0,0.1-0.1
		c0,0,0.1,0,0.1-0.1c0,0,0-0.1,0-0.1c0-0.1,0-0.1,0-0.1c0.1-0.2,0.1-0.3,0.1-0.4c0,0,0.1-0.1,0.1-0.1c0,0,0.1-0.1,0.1-0.1
		c0,0,0-0.1,0-0.1c0-0.1,0-0.1,0-0.1c0,0,0-0.1,0.1-0.1s0.1-0.1,0.1-0.1s0-0.1,0-0.1c0-0.1,0-0.1,0-0.2c0.1,0,0.1-0.1,0.1-0.1
		c0.1-0.2,0.1-0.4,0.1-0.4c0-0.1,0-0.2,0.1-0.3c0.1-0.1,0.1-0.3,0.1-0.4c0.1,0,0.1-0.1,0.1-0.3c0-0.2,0.1-0.3,0.1-0.3
		c0-0.1,0-0.1,0.1-0.2c0-0.1,0-0.1,0.1-0.1c0,0,0-0.1,0-0.1c0,0,0-0.1,0-0.1c0,0,0.1,0,0.1-0.1c0.1,0,0.1-0.1,0.1-0.1
		c0,0,0-0.1,0-0.2c0-0.1,0-0.1,0-0.2c0,0,0,0-0.1,0c0,0-0.1,0-0.1,0c0-0.1,0-0.1,0-0.2c0.1,0,0.2,0,0.2,0c0,0,0-0.1,0-0.1
		c0,0,0-0.1,0-0.1c0,0,0-0.1,0-0.1c0,0,0.1-0.1,0.1-0.1c0-0.1,0-0.1,0-0.2c0-0.1,0-0.1,0-0.1c0-0.1,0-0.1,0.1-0.3
		c0.1-0.1,0.1-0.2,0.1-0.3c0.1-0.1,0.1-0.1,0.1-0.3s0-0.2,0.1-0.2c0,0,0-0.1,0-0.1c0,0,0.1-0.1,0.1-0.1c0-0.1,0.1-0.1,0.1-0.1
		c0-0.1,0-0.2,0-0.3c0.1-0.1,0.1-0.2,0.1-0.2c0,0,0-0.1,0-0.1c0,0,0-0.1,0-0.1c0,0,0-0.1,0.1-0.2c0-0.1,0-0.1,0.1-0.2
		c0.1-0.1,0.1-0.1,0.1-0.2c0,0,0-0.1,0-0.1c0-0.1,0-0.1,0-0.2c0.1-0.2,0.1-0.4,0.1-0.4c0,0,0.1,0,0.1,0c0-0.2,0.1-0.3,0.2-0.4
		c0-0.1,0-0.2,0.1-0.2c0,0,0,0-0.1-0.1s0,0,0-0.1c0,0-0.1,0-0.1,0c-0.1-0.1-0.1-0.1,0-0.2c0.1,0,0.1,0,0.1,0c0-0.1,0-0.1,0-0.2
		c-0.1-0.2-0.1-0.2,0-0.2c0.1,0,0.1,0,0.1-0.1c0,0,0,0,0.1,0.1c0,0,0,0,0.1,0c0-0.1,0.1-0.1,0.1-0.3c0-0.1,0-0.1,0-0.1
		c0,0,0,0,0.1,0s0,0,0.1,0c0.3-0.2,0.5-0.2,0.7-0.1c0.1,0.1,0.1,0.1,0.2,0.1c0,0,0.1,0,0.1-0.1C54.4,38.2,54.5,38.2,54.6,38.4z
		 M47,55.8C47,55.8,47,55.8,47,55.8C47.1,55.9,47.1,55.9,47,55.8z M47,55.9C47.1,55.9,47.1,55.9,47,55.9C47,55.8,47,55.8,47,55.9z
		 M54.1,43.5c0,0.1,0,0.1-0.1,0.1c-0.1,0-0.1,0.1-0.1,0.1c0,0,0,0.1,0,0.1s0,0.1,0,0.2c-0.1,0.1-0.1,0.1-0.1,0.1c0,0,0,0,0,0.1
		c0,0,0,0.1,0,0.1c0,0,0,0.1-0.1,0.1c0,0-0.1,0.1-0.1,0.1s0,0.1,0,0.2c0,0.1,0,0.2-0.1,0.2V45c-0.1,0.1-0.1,0.2-0.1,0.4
		c-0.1,0.1-0.1,0.1-0.1,0.1c0,0,0,0.1,0,0.1c0,0.1,0,0.1-0.1,0.2c-0.1,0.1-0.1,0.1-0.1,0.1c0,0,0,0,0,0.1c0,0.1,0,0.1,0,0.1
		c0,0,0,0.1-0.1,0.1c0,0-0.1,0.1-0.1,0.1c0,0,0,0.1,0,0.2c0,0.1,0,0.1,0,0.2L52.9,47c0,0,0,0.1,0,0.2c0,0,0,0.1,0,0.1l-0.1,0.3
		c-0.1,0-0.1,0.1-0.1,0.2c0,0.1-0.1,0.2-0.1,0.3c0,0.1,0,0.1,0,0.1c-0.1,0.2-0.1,0.3-0.1,0.4c0,0-0.1,0.1-0.1,0.2
		c0,0.1-0.1,0.2-0.1,0.2l-0.1,0.3c0,0,0,0.1,0,0.1c0,0,0,0,0,0.1c0,0,0,0,0,0.1c0,0,0,0,0,0.1c0,0,0,0,0,0.1c0,0,0,0.1,0,0.1
		c0,0,0,0.1,0,0.1c-0.1,0.2-0.1,0.3-0.1,0.4c0,0.1,0,0.1-0.1,0.2c-0.1,0.1-0.1,0.1-0.1,0.2c0,0,0,0.1,0,0.1c0,0,0,0.1,0,0.1
		c0,0,0,0.1,0,0.2c0,0.1,0,0.1,0,0.2c0,0-0.1,0-0.1,0.1c0,0-0.1,0.1-0.1,0.1c0,0,0,0.1,0,0.2c0,0.1,0,0.2,0,0.2c0,0-0.1,0.1-0.1,0.2
		c-0.1,0.1-0.1,0.2-0.1,0.4c-0.1,0-0.1,0.1-0.1,0.2c0,0.1-0.1,0.2-0.1,0.2c0,0.3,0,0.5-0.1,0.5c0,0.1,0,0.2-0.1,0.2
		c0,0-0.1,0.1-0.1,0.1c0,0,0,0.1,0,0.1c0,0,0,0.1,0,0.1c0,0,0,0.1,0,0.1c0,0.1,0.1,0.1,0.4,0c0,0,0,0,0.1,0c0.1,0,0.1,0,0.2,0
		c0,0,0,0,0.1,0c0,0,0,0,0.1,0c0,0,0.1,0,0.1,0c0,0,0.1,0,0.1,0c0,0,0.1,0,0.1,0c0.3,0,0.6,0,0.7-0.1c0.1,0.1,0.3,0.1,0.5,0
		c0,0,0.1,0,0.1,0c0,0,0.1-0.1,0.1-0.1c0,0,0.1,0,0.1,0c0,0,0.1,0,0.1,0c0.2,0,0.4,0,0.4,0c0,0,0.1,0,0.1,0c0,0,0.1,0,0.1,0
		c0.1,0.1,0.2,0.1,0.4,0.1l0.1-0.1c0.1,0,0.2,0,0.4,0c0.2,0,0.3,0,0.4,0c0.1-0.1,0.1-0.1,0.1-0.1c0.1,0,0.1,0,0.1,0l0.1-0.1
		c0,0,0.1,0,0.1,0c0.1,0,0.1,0,0.1,0s0.1,0,0.2-0.1c0.1-0.1,0.1-0.1,0.1-0.1c0,0,0-0.1,0-0.1c0-0.1,0-0.1,0-0.1c0,0,0,0,0-0.1
		c0,0,0-0.1,0-0.1c0,0,0,0,0-0.1c0,0,0-0.1,0-0.1c-0.1-0.3-0.1-0.5-0.1-0.7c0,0-0.1,0-0.1,0c0,0,0-0.1,0-0.1c0-0.1,0-0.1,0-0.3
		c0,0,0,0,0-0.1s0-0.1,0-0.1c0,0,0,0,0-0.1c0,0,0-0.1,0-0.1s0-0.1,0-0.1c0-0.1,0-0.1-0.1-0.2c0-0.1-0.1-0.1-0.1-0.2c0,0,0-0.1,0-0.1
		s0-0.1,0-0.1c0,0-0.1,0-0.1-0.1c0-0.1-0.1-0.2-0.1-0.3c-0.1,0-0.1-0.1-0.1-0.2c0-0.1,0-0.2,0-0.3c0-0.1,0-0.2-0.1-0.3
		S55.3,49,55.3,49l0-0.3c0,0,0-0.1,0-0.1c0,0,0-0.1,0-0.1c0,0,0-0.1,0-0.1c0,0,0-0.1,0-0.1c0,0,0-0.1,0-0.2c0-0.1,0-0.1,0-0.2
		c0,0,0-0.1,0-0.1c0-0.1,0-0.2,0-0.2c0,0-0.1-0.1-0.2-0.4c-0.1-0.1-0.1-0.1-0.1-0.1s0-0.1,0-0.1c0,0,0-0.1-0.1-0.1
		c0,0-0.1-0.1-0.1-0.1c0,0,0-0.1,0-0.1c0,0,0-0.1,0-0.1c0-0.1,0-0.2,0-0.2c0,0,0-0.1-0.1-0.1c-0.1-0.1-0.1-0.1-0.1-0.2
		c0,0,0-0.1,0-0.1c0,0,0-0.1,0-0.1c0,0,0-0.1-0.1-0.1c0,0,0-0.1,0-0.1c0,0,0-0.1,0-0.2c0-0.1,0-0.2,0-0.2c0,0,0-0.1,0-0.1
		c0,0-0.1-0.1-0.1-0.1c0,0,0-0.1,0-0.2c0,0,0-0.1,0-0.2c0-0.1,0-0.2,0-0.2c-0.1-0.1-0.1-0.2-0.1-0.6C54.2,44,54.2,43.9,54.1,43.5
		L54.1,43.5z M54,43.7C54,43.7,54,43.7,54,43.7C54,43.7,54,43.7,54,43.7c-0.1,0.1-0.1,0.2-0.1,0.2s0,0.1,0,0.2
		c-0.1,0.1-0.1,0.1-0.1,0.1c0,0,0,0,0,0.1c0,0,0,0.1,0,0.1c0,0,0,0.1-0.1,0.1c0,0-0.1,0.1-0.1,0.1s0,0.1,0,0.2c0,0.1,0,0.2-0.1,0.2
		V45c-0.1,0.1-0.1,0.2-0.1,0.4c-0.1,0.1-0.1,0.1-0.1,0.1c0,0,0,0.1,0,0.1c0,0.1,0,0.1-0.1,0.2c-0.1,0.1-0.1,0.1-0.1,0.1
		c0,0,0,0,0,0.1c0,0.1,0,0.1,0,0.1c0,0,0,0.1-0.1,0.1c0,0-0.1,0.1-0.1,0.1c0,0,0,0.1,0,0.2c0,0.1,0,0.1,0,0.2L52.9,47
		c0,0,0,0.1,0,0.2c0,0,0,0.1,0,0.1l-0.1,0.3c-0.1,0-0.1,0.1-0.1,0.2c0,0.1-0.1,0.2-0.1,0.3c0,0.1,0,0.1,0,0.1
		c-0.1,0.2-0.1,0.3-0.1,0.4c0,0-0.1,0.1-0.1,0.2c0,0.1-0.1,0.2-0.1,0.2l-0.1,0.3c0,0,0,0.1,0,0.1c0,0,0,0,0,0.1c0,0,0,0,0,0.1
		c0,0,0,0,0,0.1c0,0,0,0,0,0.1c0,0,0,0.1,0,0.1c0,0,0,0.1,0,0.1c-0.1,0.2-0.1,0.3-0.1,0.4c0,0.1,0,0.1-0.1,0.2
		c-0.1,0.1-0.1,0.1-0.1,0.2c0,0,0,0.1,0,0.1c0,0,0,0.1,0,0.1c0,0,0,0.1,0,0.2c0,0.1,0,0.1,0,0.2c0,0-0.1,0-0.1,0.1
		c0,0-0.1,0.1-0.1,0.1c0,0.1,0,0.1,0,0.2c0,0.1,0,0.2,0,0.2c0,0-0.1,0.1-0.1,0.2c-0.1,0.1-0.1,0.2-0.1,0.4c-0.1,0-0.1,0.1-0.1,0.2
		c0,0.1-0.1,0.2-0.1,0.2c0,0.3,0,0.5-0.1,0.5c0,0.1,0,0.2-0.1,0.2c0,0-0.1,0.1-0.1,0.1c0,0,0,0.1,0,0.1c0,0,0,0.1,0,0.1
		c0,0,0,0.1,0,0.1c0,0.1,0.1,0.1,0.4,0c0,0,0.1,0,0.3,0c0,0,0,0,0.1,0c0,0,0,0,0.1,0c0,0,0.1,0,0.1,0c0,0,0.1,0,0.1,0
		c0,0,0.1,0,0.1,0c0.3,0,0.6,0,0.7-0.1c0.1,0.1,0.3,0.1,0.5,0c0,0,0.1,0,0.1,0c0,0,0.1-0.1,0.1-0.1c0,0,0.1,0,0.1,0c0,0,0.1,0,0.1,0
		c0.2,0,0.4,0,0.4,0c0,0,0.1,0,0.1,0c0,0,0.1,0,0.1,0c0.1,0.1,0.2,0.1,0.4,0.1l0.1-0.1c0.1,0,0.2,0,0.4,0c0.2,0,0.3,0,0.4,0
		c0.1-0.1,0.1-0.1,0.1-0.1c0.1,0,0.1,0,0.1,0l0.1-0.1c0,0,0.1,0,0.1,0c0.1,0,0.1,0,0.1,0s0.1,0,0.2-0.1c0.1-0.1,0.1-0.1,0.1-0.1
		c0,0,0-0.1,0-0.1c0-0.1,0-0.1,0-0.1c0,0,0,0,0-0.1c0,0,0-0.1,0-0.1c0,0,0,0,0-0.1c0,0,0-0.1,0-0.1c-0.1-0.3-0.1-0.5-0.1-0.7
		c0,0-0.1,0-0.1,0c0,0,0-0.1,0-0.1c0-0.1,0-0.1,0-0.3c0,0,0,0,0-0.1s0-0.1,0-0.1c0,0,0,0,0-0.1c0,0,0-0.1,0-0.1s0-0.1,0-0.1
		c0-0.1,0-0.1-0.1-0.2c0-0.1-0.1-0.1-0.1-0.2c0,0,0-0.1,0-0.1s0-0.1,0-0.1c0,0-0.1,0-0.1-0.1c0-0.1-0.1-0.2-0.1-0.3
		c-0.1,0-0.1-0.1-0.1-0.2c0-0.1,0-0.2,0-0.3c0-0.1,0-0.2-0.1-0.3S55.3,49,55.3,49l0-0.3c0,0,0-0.1,0-0.1c0,0,0-0.1,0-0.1
		c0,0,0-0.1,0-0.1c0,0,0-0.1,0-0.1c0,0,0-0.1,0-0.2c0-0.1,0-0.1,0-0.2c0,0,0-0.1,0-0.1c0-0.1,0-0.2,0-0.2c0,0-0.1-0.1-0.2-0.4
		c-0.1-0.1-0.1-0.1-0.1-0.1s0-0.1,0-0.1c0,0,0-0.1-0.1-0.1c0,0-0.1-0.1-0.1-0.1c0,0,0-0.1,0-0.1c0,0,0-0.1,0-0.1c0-0.1,0-0.2,0-0.2
		c0,0,0-0.1-0.1-0.1c-0.1-0.1-0.1-0.1-0.1-0.2c0,0,0-0.1,0-0.1c0,0,0-0.1,0-0.1c0,0,0-0.1-0.1-0.1c0,0,0-0.1,0-0.1c0,0,0-0.1,0-0.2
		c0-0.1,0-0.2,0-0.2c0,0,0-0.1,0-0.1c0,0-0.1-0.1-0.1-0.1c0,0,0-0.1,0-0.2c0,0,0-0.1,0-0.2c0-0.1,0-0.2,0-0.2
		c-0.1-0.1-0.1-0.2-0.1-0.6c-0.1,0-0.1-0.2-0.2-0.5h0C54.1,43.6,54.1,43.6,54,43.7z M55.5,56C55.5,56,55.5,56,55.5,56
		C55.5,56,55.5,56,55.5,56z M55.5,56C55.5,56,55.5,56,55.5,56C55.5,56,55.5,56,55.5,56z M55.9,39.9C55.9,39.8,55.9,39.8,55.9,39.9
		C56,39.8,56,39.9,55.9,39.9C55.9,39.9,55.9,39.9,55.9,39.9z M56,39.8c0,0,0,0.1,0,0.1C55.9,39.9,55.9,39.9,56,39.8
		C55.9,39.8,55.9,39.8,56,39.8z"/>
	<path fill="#D93427" d="M72.7,46.4c0,0,0,0.1,0,0.2c0.2,0.1,0.4,0.3,0.6,0.4l0.2,0c0,0.1,0.1,0.2,0.2,0.2c0,0.1,0,0.2,0.1,0.2
		c0.1,0,0.1,0,0.1,0c0,0.2,0,0.4,0,0.5c0.1,0.1,0.1,0.2,0.1,0.3c0,0.1,0,0.2,0,0.3c0,0.1,0,0.2,0,0.3c-0.2,0.1-0.2,0.2-0.2,0.4
		c-0.1,0-0.1,0-0.2,0c-0.1,0.1-0.1,0.1-0.1,0.1s-0.1,0-0.1,0s-0.1,0-0.1,0c0,0,0,0-0.1,0.1s-0.1,0-0.1,0c0,0,0,0-0.1,0
		c-0.1,0-0.1,0.1-0.2,0.2c0,0-0.1,0-0.2-0.1c-0.1,0-0.1,0-0.1,0c0,0-0.1,0-0.1,0c0-0.1,0-0.2-0.2-0.3c0,0-0.1,0-0.1,0
		c0,0-0.1,0-0.1,0l-0.1-0.1c-0.1,0-0.1,0-0.1,0c0,0,0,0-0.1,0v-0.1c-0.1-0.1-0.2-0.1-0.3-0.1c0,0-0.1,0-0.1,0.1c-0.1,0-0.2,0-0.3,0
		c0,0-0.1,0-0.1,0c0,0-0.1,0-0.1,0c0,0-0.1,0-0.1,0c0,0-0.1,0-0.1,0s-0.1,0-0.2-0.1c0,0-0.1,0-0.1,0.1c-0.1,0-0.1,0-0.1,0
		c0,0-0.1,0-0.1,0c-0.1,0-0.1,0-0.1,0c0,0-0.1,0-0.1,0s-0.1,0-0.1,0c0,0-0.1,0-0.1,0c0,0-0.1,0-0.1,0c0,0-0.1,0-0.1,0
		c-0.1,0-0.1,0-0.2,0c-0.3,0-0.5,0.1-0.5,0.1c0,0.1,0,0.1,0,0.1c0,0-0.1,0-0.1,0c0,0-0.1-0.1-0.1-0.1c0,0-0.1,0-0.2,0.1
		c0,0,0,0-0.1,0c0,0,0,0-0.1,0c-0.1,0.1-0.2,0.1-0.4,0.1c-0.2,0-0.4,0.1-0.4,0.1l0,0.1c-0.1,0-0.1,0-0.1,0c0,0,0,0-0.1,0
		c0,0,0,0.1-0.1,0.1c-0.1,0-0.1,0-0.1,0s-0.1,0-0.2,0.1c0,0-0.1,0-0.1,0c-0.1,0-0.1,0-0.2,0c0,0,0,0.1,0,0.1c0,0,0,0.1,0,0.1
		c0,0.1,0.1,0.2,0.1,0.2s0.1,0,0.2,0c0,0.1,0.1,0.1,0.2,0.2c0,0,0.1,0,0.1,0c0,0,0.1,0,0.1,0s0,0,0,0.1s0,0.1,0,0.1
		c0.1-0.1,0.2,0,0.3,0.1c0.1,0.1,0.2,0.1,0.2,0.1c0,0,0.1,0,0.2,0.1c0.1,0,0.2,0,0.2,0.1c0,0,0.1,0,0.1,0.1c0,0,0.1,0,0.1,0
		c0,0,0.1,0,0.1,0.1c0,0,0.1,0,0.1,0.1c0.3,0.1,0.4,0.1,0.5,0.2c0.1-0.1,0.2,0,0.3,0c0.1,0,0.1,0.1,0.1,0.1c0.1,0,0.1,0,0.2,0
		s0.2,0,0.2,0c0,0,0,0,0.1,0c0,0,0,0,0.1,0c0,0,0.1,0,0.1,0c0,0,0.1,0,0.1,0.1c0,0,0.1,0.1,0.1,0.1c0,0,0.1,0,0.1,0c0,0,0.1,0,0.1,0
		c0.2,0.1,0.3,0.2,0.4,0.2l0.1-0.1c0.1,0,0.1,0,0.2,0c0,0,0,0,0,0.1c0.1,0.1,0.2,0.1,0.2,0.1c0,0,0.1,0,0.1,0s0.1,0,0.1,0
		c0,0.1,0,0.2,0.1,0.2c0,0,0,0,0.1,0c0,0,0,0,0.1-0.1c0.2,0,0.3,0,0.3,0c0,0.1,0.1,0.1,0.2,0.2c0.1,0,0.2,0.1,0.2,0.1
		c0.2-0.1,0.4,0,0.5,0.1c0,0,0.1,0,0.1,0c0,0,0.1,0,0.1,0c0,0,0.1,0,0.1,0.1c0,0.1,0.1,0.1,0.1,0.1s0.1,0,0.1-0.1
		c0.1-0.1,0.1-0.1,0.2,0c0,0.1,0,0.1,0.1,0.2c0.1,0,0.2,0,0.2,0c0.1,0.1,0.1,0.1,0.1,0.1s0.1,0,0.1,0c0,0,0.1,0,0.1,0c0,0,0,0,0,0.1
		c0,0,0.1,0.1,0.2,0.1c0.1,0.1,0.2,0.1,0.3,0.2c0.1,0,0.1,0,0.2,0c0.1,0.1,0.1,0.1,0.2,0.1c0.1,0.2,0.1,0.3,0.2,0.3c0,0,0.1,0,0.1,0
		c0,0,0.1,0,0.1,0c0,0,0,0.1,0,0.1c0.1,0.1,0.2,0.2,0.3,0.3c0.2,0.2,0.3,0.3,0.4,0.3c0,0.1,0.1,0.1,0.1,0.2c0,0.1,0,0.1,0,0.2
		c0.1,0.1,0.2,0.3,0.3,0.5c0,0.1,0.1,0.1,0.1,0.2c0.1,0.1,0.1,0.2,0.1,0.2c0,0,0,0.1,0,0.1c0,0,0,0.1,0,0.1c0,0,0,0.1,0,0.1
		c0,0,0,0.1,0,0.1s0,0.1,0,0.1c0,0,0,0.1,0,0.1s0,0.1,0,0.1c0,0,0,0.1,0,0.1c0,0,0,0.1,0,0.3s0,0.2,0.1,0.3c0,0,0,0.1,0,0.1
		c0,0,0,0.1,0,0.1c0.1,0,0.1,0.1,0,0.3c-0.1,0.2-0.1,0.3-0.1,0.4c0,0,0,0.1,0,0.1c0,0.1,0,0.1-0.1,0.2C76.8,58,76.8,58,76.7,58
		c0,0.1,0,0.1-0.1,0.3c0,0,0,0.1,0,0.1c-0.2,0.2-0.3,0.3-0.2,0.4c-0.1,0.2-0.3,0.3-0.4,0.4c0,0.2-0.1,0.3-0.2,0.4
		c-0.1,0.1-0.2,0.2-0.3,0.3c0,0.1,0,0.1-0.1,0.2c0,0,0,0.1,0,0.1c0,0-0.1,0-0.1,0c0,0-0.1,0-0.1,0c-0.1,0-0.1,0.1,0,0.2
		c0,0-0.2,0.1-0.4,0.2c0,0,0,0.1,0,0.1c-0.2,0.1-0.3,0.2-0.3,0.2c-0.1,0-0.1,0-0.2,0.2c-0.1,0-0.2,0.1-0.3,0.2
		c-0.1,0.1-0.2,0.1-0.3,0.2c0,0,0,0.1,0,0.1c0,0.1,0,0.1,0,0.1c0,0-0.1,0-0.1-0.1c0,0,0-0.1-0.1-0.1c0,0-0.1,0-0.2,0.1
		c-0.1,0.1-0.2,0.1-0.2,0.1c-0.1,0-0.1,0.1-0.1,0.1c0,0-0.1,0-0.2,0c-0.1,0-0.1,0-0.2,0c-0.1,0.1-0.2,0.1-0.2,0
		c-0.1,0.1-0.2,0.2-0.2,0.2c-0.1,0.1-0.1,0.2-0.2,0.2c-0.1,0-0.1,0-0.1,0c-0.1,0-0.1,0-0.1,0.1c0,0.1-0.1,0.1-0.1,0.1
		c-0.1,0-0.2,0-0.3,0.1c-0.1,0.1-0.2,0.1-0.2,0.1c-0.1,0-0.1,0-0.2,0c-0.1,0-0.1,0-0.1,0c-0.1,0-0.1,0-0.2,0.1
		c-0.1,0-0.1,0.1-0.2,0.1c0,0-0.1,0-0.1,0c-0.1,0-0.1,0-0.1,0c0,0,0,0-0.1,0.1c0,0-0.2,0-0.4,0c0,0-0.1,0-0.1-0.1
		c-0.2-0.1-0.3-0.1-0.4,0c-0.1,0-0.1,0-0.1,0c-0.1,0.1-0.1,0.1-0.1,0.1c-0.1-0.1-0.2-0.1-0.4-0.1c-0.1,0-0.2,0-0.2,0
		c-0.1-0.1-0.1-0.1-0.1-0.1s0,0-0.1,0.1c-0.1,0-0.1,0-0.1,0c0,0,0-0.1,0-0.1c0,0,0-0.1,0-0.1c-0.1,0-0.1,0-0.2,0c-0.1,0-0.2,0-0.2,0
		c0,0-0.1,0-0.2-0.1c0,0-0.1,0-0.2,0V62c0,0-0.1,0-0.2,0c0,0,0,0,0,0c0,0,0-0.1,0-0.1c-0.1,0-0.1,0-0.2-0.1
		c-0.1-0.1-0.1-0.1-0.1-0.2c-0.1-0.1-0.2-0.1-0.2-0.2c0-0.1,0-0.1,0-0.1c-0.1-0.1-0.1-0.1-0.2-0.2C66.5,61,66.5,61,66.5,61
		c0,0,0,0-0.1,0c0,0,0,0-0.1,0c0-0.1,0-0.2-0.1-0.3c-0.1-0.1-0.2-0.1-0.3-0.2c0,0,0-0.1,0-0.1c0,0,0-0.1,0-0.1c0,0-0.1,0-0.1-0.1
		c0-0.1-0.1-0.1-0.1-0.1c-0.1-0.1-0.2-0.1-0.2-0.2c0,0,0-0.1,0-0.1c0,0,0-0.1,0-0.1c0,0,0-0.1,0-0.1c0,0,0-0.1-0.1-0.1
		c0,0,0-0.1,0-0.1s0-0.1,0-0.1c0-0.1,0-0.1-0.1-0.2c0-0.1-0.1-0.1-0.1-0.1c0-0.1,0-0.1,0.1-0.2c0-0.1,0.1-0.1,0.1-0.2c0,0,0,0,0.1,0
		c0,0,0,0,0.1,0c0,0,0-0.1-0.1-0.4c0.1,0,0.1,0,0.2,0c0.1-0.1,0.1-0.1,0-0.2c0,0,0.1-0.1,0.1-0.2c0.1-0.1,0.1-0.2,0.1-0.2
		c0,0,0.1,0,0.1,0c0,0,0,0.1,0,0.1c0.1,0,0.1-0.1,0.1-0.1c0-0.1,0-0.1,0-0.1c0-0.1,0.1-0.1,0.2-0.1c0.1,0,0.1,0,0.1,0
		c0,0,0,0,0.1-0.1c0,0,0.1-0.1,0.1,0s0.1,0,0.1,0.1c0,0,0.1,0,0.1,0s0.1,0,0.1,0c0.1,0.1,0.2,0.2,0.2,0.2c0.1,0,0.1,0,0.1,0
		c0,0,0.1,0,0.1,0c0.1,0.1,0.1,0.1,0.2,0.1c0.1,0,0.1,0.1,0.1,0.2c0.1,0,0.1,0.1,0.1,0.1c0,0.1,0.1,0.1,0.1,0.2
		c0.1,0.1,0.1,0.2,0.1,0.2c0.1,0,0.2,0.1,0.3,0.3s0.2,0.2,0.3,0.3c0,0,0,0.1,0,0.1c0,0,0,0.1,0,0.1l0.2,0.2c0,0,0.1,0,0.1,0
		c0.1,0,0.1,0,0.1,0c0,0,0,0.1,0.1,0.1c0,0,0,0,0.1,0c0.1,0,0.1,0,0.3,0c0.1,0,0.2,0,0.3,0c0,0,0.1,0,0.1,0.1c0,0,0.1,0.1,0.1,0.1
		c0.1,0,0.2,0,0.2,0c0.1-0.1,0.1-0.1,0.1-0.1c0,0,0,0,0.1,0c0.1,0,0.1,0,0.1,0c0,0,0.1,0,0.1-0.1c0.1,0,0.1,0,0.2,0c0,0,0.1,0,0.1,0
		c0.1,0,0.1,0,0.1,0c0,0,0,0,0.1,0c0,0,0,0,0,0s0,0,0.1,0c0,0,0.1,0,0.1,0c0,0,0,0,0.1-0.1c0,0,0.1,0,0.1,0c0.1,0,0.1,0,0.1-0.1
		c0,0,0,0,0.1,0c0,0,0,0,0.1,0s0.1,0,0.2,0c0.1,0,0.1-0.1,0.1-0.2c0,0,0.1,0,0.1,0.1c0,0,0.1,0,0.2-0.1c0.1-0.1,0.2-0.1,0.2-0.1
		c0.1-0.1,0.2-0.3,0.5-0.4c0.3-0.2,0.4-0.3,0.5-0.5c0.1-0.1,0.2-0.1,0.2-0.2c0.1,0,0.1-0.1,0.2-0.2c0.1-0.1,0.1-0.2,0.1-0.2l0-0.1
		c0,0,0-0.1,0.1-0.1v-0.3c0.1-0.1,0.1-0.1,0.2-0.1c0-0.1,0-0.2,0-0.4s0-0.3,0-0.4c0,0,0-0.1-0.1-0.1c0,0,0,0,0-0.1
		c0,0,0-0.1-0.1-0.2c0-0.1-0.1-0.1-0.2-0.1c-0.1,0-0.1-0.1-0.2-0.1c-0.1,0.1-0.1,0.1-0.2,0c0-0.1,0-0.1,0-0.1l-0.2,0c0,0,0,0,0-0.1
		c0,0,0-0.1,0-0.1c0,0,0,0-0.1,0c-0.1,0-0.1,0-0.1,0s0,0-0.1-0.1c0,0,0-0.1-0.1-0.1c0,0-0.1,0-0.2,0c-0.1,0-0.2,0-0.3,0
		c-0.2-0.1-0.3-0.1-0.3,0c0,0,0-0.1,0-0.1c0,0-0.1-0.1-0.4-0.1c-0.2-0.1-0.3-0.1-0.4-0.1c-0.2-0.2-0.4-0.2-0.8-0.3c0,0,0,0,0,0
		s0,0,0,0c0,0,0-0.1,0-0.1c-0.1,0-0.1,0-0.2-0.1c-0.1-0.1-0.1-0.1-0.2-0.1c0,0,0,0-0.1,0c0,0,0,0.1-0.1,0.1c0,0,0-0.1-0.1-0.1
		c-0.1,0-0.1,0-0.2,0c-0.1-0.1-0.1-0.1-0.3,0c-0.1-0.1-0.1-0.2-0.1-0.2c-0.2,0.1-0.3,0.1-0.3,0c-0.1-0.1-0.2-0.1-0.4,0
		c0-0.1-0.1-0.2-0.1-0.2c-0.2,0-0.3,0-0.4-0.1c0,0-0.1,0-0.1,0c0,0-0.1,0-0.1,0c0,0,0,0-0.1,0c0,0,0,0,0,0c0,0,0,0-0.1,0s0,0-0.1,0
		c0,0,0,0-0.1,0c-0.2-0.1-0.4-0.1-0.5,0c0,0,0-0.1,0-0.1c0,0,0-0.1-0.1-0.1c0,0-0.1,0-0.1,0s-0.1,0-0.1-0.1c0,0-0.1,0-0.1-0.1
		c0,0-0.1,0-0.2-0.1c-0.1,0-0.2-0.1-0.3-0.1c-0.1-0.1-0.1-0.1-0.1-0.1s-0.1,0-0.1,0c0,0-0.1,0-0.1,0c0-0.1,0-0.2,0-0.2
		c0,0-0.1,0-0.1,0c0,0-0.1,0-0.1,0s0,0,0,0c0,0,0,0,0-0.1c0,0,0,0,0,0c0,0,0,0,0-0.1c0,0-0.1,0-0.1,0c0,0-0.1,0-0.1,0
		c0,0,0-0.1,0-0.1c0,0,0,0,0,0c-0.1-0.1-0.1-0.1-0.2-0.1c-0.1-0.1-0.1-0.1-0.2-0.2c0,0-0.1,0-0.1,0c0,0-0.1,0-0.1,0
		c0-0.1-0.1-0.1-0.2-0.2c0-0.1-0.1-0.2-0.2-0.3c-0.1-0.1-0.2-0.2-0.2-0.3c0,0-0.1,0-0.1,0c0,0-0.1-0.1-0.1-0.1c0-0.1,0-0.1,0-0.1
		C64.1,51.3,64,51.1,64,51c-0.1,0-0.1,0-0.2-0.1c-0.1-0.1-0.1-0.1-0.1-0.1c0,0,0-0.1,0-0.2c-0.2-0.1-0.3-0.3-0.4-0.4c0,0,0,0,0-0.1
		c0-0.1,0-0.1,0-0.2c0,0,0-0.1-0.1-0.1c0,0-0.1,0-0.1-0.1c0,0,0-0.1,0-0.1c0,0,0-0.1,0-0.2c0-0.1,0-0.2,0-0.2c0,0,0-0.1,0-0.1
		c0-0.1,0-0.1,0-0.1c0,0,0-0.1,0.1-0.2c0-0.1,0-0.1,0-0.2c0-0.1,0-0.1,0-0.1c0.1-0.1,0.2-0.2,0.4-0.4c0,0,0.1,0,0.2,0c0,0,0,0,0-0.1
		c0,0,0-0.1,0-0.1c0,0,0.1,0,0.3-0.1c0.2-0.1,0.3-0.1,0.3-0.2c0.1,0,0.1,0,0.2,0c0,0,0.1-0.1,0.1-0.2c0,0,0,0,0.1,0
		c0,0,0.1,0,0.1-0.1c0,0,0.1-0.1,0.1-0.1c0.1,0,0.1,0,0.2,0c0.1,0,0.2-0.1,0.2-0.3c0.2,0,0.3,0,0.3-0.1c0.1,0,0.2,0,0.3,0
		c0.1,0,0.2,0,0.2,0c0.1,0,0.1,0,0.2-0.1c0.1-0.1,0.1-0.1,0.2-0.1c0.1,0,0.1,0,0.2,0c0,0,0.1,0,0.1,0c0.1,0,0.1-0.1,0.1-0.1
		c0,0,0.1,0,0.2,0c0,0,0.1,0,0.1-0.1c0,0,0.1-0.1,0.1-0.1c0.1,0,0.1,0,0.1,0c0,0,0.1-0.1,0.2-0.2c0.1,0,0.2,0,0.2-0.1l0,0.1
		c0.1-0.1,0.2-0.1,0.4-0.1c0.2,0,0.3,0,0.4,0c0,0,0.1,0,0.1,0c0,0,0.1-0.1,0.1-0.1c0.1,0,0.1,0,0.1,0s0.1,0,0.1-0.1
		c0,0,0.1-0.1,0.1-0.1c0.1,0,0.3,0,0.6,0c0.3,0,0.5,0,0.7,0c0.1,0,0.1,0,0.2,0c0.1,0,0.2,0,0.2,0s0.1,0,0.2,0c0.1,0,0.1,0,0.2,0
		c0,0,0.1,0,0.2,0.1c0.3,0,0.4,0,0.5,0.1c0.1,0,0.2,0,0.3,0.1C72.5,46.4,72.6,46.4,72.7,46.4z M72.1,46.2c0.1,0,0.2,0,0.3,0.1
		c0.1,0.1,0.2,0.1,0.3,0.1c0,0,0,0.1,0,0.2c0.2,0.1,0.4,0.3,0.6,0.4l0.2,0c0,0.1,0.1,0.2,0.2,0.2c0,0.1,0,0.2,0.1,0.2
		c0.1,0,0.1,0,0.1,0c0,0.2,0,0.4,0,0.5c0.1,0.1,0.1,0.2,0.1,0.3c0,0.1,0,0.2,0,0.3c0,0.1,0,0.2,0,0.3c-0.2,0.1-0.2,0.2-0.2,0.4
		c-0.1,0-0.1,0-0.2,0c-0.1,0.1-0.1,0.1-0.1,0.1s-0.1,0-0.1,0s-0.1,0-0.1,0c0,0,0,0-0.1,0.1s-0.1,0-0.1,0c0,0,0,0-0.1,0
		c-0.1,0-0.1,0.1-0.2,0.2c0,0-0.1,0-0.2-0.1c-0.1,0-0.1,0-0.1,0c0,0-0.1,0-0.1,0c0-0.1,0-0.2-0.2-0.3c0,0-0.1,0-0.1,0
		c0,0-0.1,0-0.1,0l-0.1-0.1c-0.1,0-0.1,0-0.1,0c0,0,0,0-0.1,0v-0.1c-0.1-0.1-0.2-0.1-0.3-0.1c0,0-0.1,0-0.1,0.1c-0.1,0-0.2,0-0.3,0
		c0,0-0.1,0-0.1,0c0,0-0.1,0-0.1,0c0,0-0.1,0-0.1,0c0,0-0.1,0-0.1,0s-0.1,0-0.2-0.1c0,0-0.1,0-0.1,0.1c-0.1,0-0.1,0-0.1,0
		c0,0-0.1,0-0.1,0c-0.1,0-0.1,0-0.1,0c0,0-0.1,0-0.1,0s-0.1,0-0.1,0c0,0-0.1,0-0.1,0c0,0-0.1,0-0.1,0c0,0-0.1,0-0.1,0
		c-0.1,0-0.1,0-0.2,0c-0.3,0-0.5,0.1-0.5,0.1c0,0,0,0.1,0,0.1c0,0,0,0.1,0,0.1c0,0-0.1,0-0.1,0c0,0-0.1-0.1-0.1-0.1
		c0,0-0.1,0-0.2,0.1c0,0,0,0-0.1,0c0,0,0,0-0.1,0c-0.1,0.1-0.2,0.1-0.4,0.1c-0.2,0-0.4,0.1-0.4,0.1l0,0.1c-0.1,0-0.1,0-0.1,0
		c0,0,0,0-0.1,0c0,0,0,0.1-0.1,0.1c-0.1,0-0.1,0-0.1,0s-0.1,0-0.2,0.1c0,0-0.1,0-0.1,0c-0.1,0-0.1,0-0.2,0c0,0,0,0.1,0,0.1
		c0,0,0,0.1,0,0.1c0,0.1,0.1,0.2,0.1,0.2s0.1,0,0.2,0c0,0.1,0.1,0.1,0.2,0.2c0,0,0.1,0,0.1,0c0,0,0.1,0,0.1,0s0,0,0,0.1s0,0.1,0,0.1
		c0.1-0.1,0.2,0,0.3,0.1c0.1,0.1,0.2,0.1,0.2,0.1c0,0,0.1,0,0.2,0.1c0.1,0,0.2,0,0.2,0.1c0,0,0.1,0,0.1,0.1c0,0,0.1,0,0.1,0
		c0,0,0.1,0,0.1,0.1c0,0,0.1,0,0.1,0.1c0.3,0.1,0.4,0.1,0.5,0.2c0.1-0.1,0.2,0,0.3,0c0.1,0,0.1,0.1,0.1,0.1c0.1,0,0.1,0,0.2,0
		s0.2,0,0.2,0c0,0,0,0,0.1,0c0,0,0,0,0.1,0c0,0,0.1,0,0.1,0c0,0,0.1,0,0.1,0.1c0,0,0.1,0.1,0.1,0.1c0,0,0.1,0,0.1,0c0,0,0.1,0,0.1,0
		c0.2,0.1,0.3,0.2,0.4,0.2l0.1-0.1c0.1,0,0.1,0,0.2,0c0,0,0,0,0,0.1c0.1,0.1,0.2,0.1,0.2,0.1c0,0,0.1,0,0.1,0s0.1,0,0.1,0
		c0,0.1,0,0.2,0.1,0.2c0,0,0,0,0.1,0c0,0,0,0,0.1-0.1c0.2,0,0.3,0,0.3,0c0,0.1,0.1,0.1,0.2,0.2c0.1,0,0.2,0.1,0.2,0.1
		c0.2-0.1,0.4,0,0.5,0.1c0,0,0.1,0,0.1,0c0,0,0.1,0,0.1,0c0,0,0.1,0,0.1,0.1c0,0.1,0.1,0.1,0.1,0.1s0.1,0,0.1-0.1
		c0.1-0.1,0.1-0.1,0.2,0c0,0.1,0,0.1,0.1,0.2c0.1,0,0.2,0,0.2,0c0.1,0.1,0.1,0.1,0.1,0.1s0.1,0,0.1,0c0,0,0.1,0,0.1,0c0,0,0,0,0,0.1
		c0,0,0.1,0.1,0.2,0.1c0.1,0.1,0.2,0.1,0.3,0.2c0.1,0,0.1,0,0.2,0c0.1,0.1,0.1,0.1,0.2,0.1c0.1,0.2,0.1,0.3,0.2,0.3c0,0,0.1,0,0.1,0
		c0,0,0.1,0,0.1,0c0,0,0,0.1,0,0.1c0.1,0.1,0.2,0.2,0.3,0.3c0.2,0.2,0.3,0.3,0.4,0.3c0,0.1,0.1,0.1,0.1,0.2c0,0.1,0,0.1,0,0.2
		c0.1,0.1,0.2,0.3,0.3,0.5c0,0.1,0.1,0.1,0.1,0.2c0.1,0.1,0.1,0.2,0.1,0.2c0,0,0,0.1,0,0.1c0,0,0,0.1,0,0.1c0,0,0,0.1,0,0.1
		c0,0,0,0.1,0,0.1s0,0.1,0,0.1c0,0,0,0.1,0,0.1c0,0,0,0,0,0.1c0,0,0,0.1,0,0.1c0,0,0,0.1,0,0.3s0,0.2,0.1,0.3c0,0,0,0.1,0,0.1
		c0,0,0,0.1,0,0.1c0.1,0,0.1,0.1,0,0.3c-0.1,0.2-0.1,0.3-0.1,0.4c0,0,0,0.1,0,0.1c0,0.1,0,0.1-0.1,0.2C76.8,58,76.8,58,76.7,58
		c0,0.1,0,0.1-0.1,0.3c0,0,0,0.1,0,0.1c-0.2,0.2-0.3,0.3-0.2,0.4c-0.1,0.2-0.3,0.3-0.4,0.4c0,0.2-0.1,0.3-0.2,0.4
		c-0.1,0.1-0.2,0.2-0.3,0.3c0,0.1,0,0.1-0.1,0.2c0,0,0,0.1,0,0.1c0,0-0.1,0-0.1,0c0,0-0.1,0-0.1-0.1c-0.1,0-0.1,0.1,0,0.2
		c0,0-0.2,0.1-0.4,0.2c0,0,0,0.1,0,0.1c-0.2,0.1-0.3,0.2-0.3,0.2c-0.1,0-0.1,0.1-0.2,0.2c-0.1,0-0.2,0.1-0.3,0.2
		c-0.1,0.1-0.2,0.1-0.3,0.2c0,0,0,0.1,0,0.1c0,0.1,0,0.1,0,0.1c0,0-0.1,0-0.1-0.1c0,0,0-0.1-0.1-0.1c0,0-0.1,0-0.2,0.1
		c-0.1,0.1-0.2,0.1-0.2,0.1c-0.1,0-0.1,0.1-0.1,0.1c0,0-0.1,0-0.2,0c-0.1,0-0.1,0-0.2,0c-0.1,0.1-0.2,0.1-0.2,0
		c-0.1,0.1-0.2,0.2-0.2,0.2c-0.1,0.1-0.1,0.2-0.2,0.2c-0.1,0-0.1,0-0.1,0c-0.1,0-0.1,0-0.1,0.1c0,0.1-0.1,0.1-0.1,0.1
		c-0.1,0-0.2,0-0.3,0.1c-0.1,0-0.2,0.1-0.2,0.1c-0.1,0-0.1,0-0.2,0c-0.1,0-0.1,0-0.1,0c-0.1,0-0.1,0-0.2,0.1c-0.1,0-0.1,0.1-0.2,0.1
		c0,0-0.1,0-0.1,0c-0.1,0-0.1,0-0.1,0c0,0,0,0-0.1,0.1c0,0-0.2,0-0.4,0c0,0-0.1,0-0.1-0.1c-0.2-0.1-0.3-0.1-0.4,0
		c-0.1,0-0.1,0-0.1,0c-0.1,0.1-0.1,0.1-0.1,0.1c-0.1-0.1-0.2-0.1-0.4-0.1c-0.1,0-0.2,0-0.2,0c-0.1-0.1-0.1-0.1-0.1-0.1s0,0-0.1,0.1
		c-0.1,0-0.1,0-0.1,0c0,0,0-0.1,0-0.1c0,0,0-0.1,0-0.1c-0.1,0-0.1,0-0.2,0c-0.1,0-0.2,0-0.2,0c0,0-0.1,0-0.2-0.1c0,0-0.1,0-0.2,0V62
		c0,0-0.1,0-0.2,0c0,0,0,0,0,0c0,0,0-0.1,0-0.1c-0.1,0-0.1,0-0.2-0.1c-0.1-0.1-0.1-0.1-0.1-0.2c-0.1-0.1-0.2-0.1-0.2-0.2
		c0-0.1,0-0.1,0-0.1c-0.1-0.1-0.1-0.1-0.2-0.2C66.5,61,66.5,61,66.5,61c0,0,0,0-0.1,0c0,0,0,0-0.1,0c0-0.1,0-0.2-0.1-0.3
		c-0.1-0.1-0.2-0.1-0.3-0.2c0,0,0-0.1,0-0.1c0,0,0-0.1,0-0.1c0,0-0.1,0-0.1-0.1c0-0.1-0.1-0.1-0.1-0.1c-0.1-0.1-0.2-0.1-0.2-0.2
		c0,0,0-0.1,0-0.1c0,0,0-0.1,0-0.1c0,0,0-0.1,0-0.1c0,0,0-0.1-0.1-0.1c0,0,0-0.1,0-0.1s0-0.1,0-0.1c0-0.1,0-0.1-0.1-0.2
		c0-0.1-0.1-0.1-0.1-0.1c0-0.1,0-0.1,0.1-0.2c0-0.1,0.1-0.1,0.1-0.2c0,0,0,0,0.1,0c0,0,0,0,0.1,0c0,0,0-0.1-0.1-0.4
		c0.1,0,0.1,0,0.2,0c0.1-0.1,0.1-0.1,0-0.2c0,0,0.1-0.1,0.1-0.2c0.1-0.1,0.1-0.2,0.1-0.2c0,0,0.1,0,0.1,0.1c0.1,0,0.1,0,0.1-0.1
		c0-0.1,0-0.1,0-0.1c0-0.1,0.1-0.1,0.2-0.1c0.1,0,0.1,0,0.1,0c0,0,0,0,0.1-0.1c0,0,0.1-0.1,0.1,0s0.1,0,0.1,0.1c0,0,0.1,0,0.1,0
		s0.1,0,0.1,0c0.1,0.1,0.2,0.2,0.2,0.2c0.1,0,0.1,0,0.1,0c0,0,0.1,0,0.1,0c0.1,0.1,0.1,0.1,0.2,0.1c0.1,0,0.1,0.1,0.1,0.2
		c0.1,0,0.1,0.1,0.1,0.1c0,0.1,0.1,0.1,0.1,0.2c0.1,0.1,0.1,0.2,0.1,0.2c0.1,0,0.2,0.1,0.3,0.3s0.2,0.2,0.3,0.3c0,0,0,0.1,0,0.1
		c0,0,0,0.1,0,0.1l0.2,0.2c0,0,0.1,0,0.1,0c0.1,0,0.1,0,0.1,0c0,0,0,0.1,0.1,0.1c0,0,0,0,0.1,0c0.1,0,0.1,0,0.3,0c0.1,0,0.2,0,0.3,0
		c0,0,0.1,0,0.1,0.1c0,0,0.1,0.1,0.1,0.1c0.1,0,0.2,0,0.2,0c0.1-0.1,0.1-0.1,0.1-0.1c0,0,0,0,0.1,0c0.1,0,0.1,0,0.1,0
		c0,0,0.1,0,0.1-0.1c0.1,0,0.1,0,0.2,0c0,0,0.1,0,0.1,0c0.1,0,0.1,0,0.1,0c0,0,0,0,0.1,0c0,0,0,0,0,0s0,0,0.1,0c0,0,0.1,0,0.1,0
		c0,0,0,0,0.1-0.1c0,0,0.1,0,0.1,0c0.1,0,0.1,0,0.1-0.1c0,0,0,0,0.1,0c0,0,0,0,0.1,0s0.1,0,0.2,0c0.1,0,0.1-0.1,0.1-0.2
		c0,0,0.1,0,0.1,0.1c0,0,0.1,0,0.2-0.1c0.1-0.1,0.2-0.1,0.2-0.1c0.1-0.1,0.2-0.3,0.5-0.4c0.3-0.2,0.4-0.3,0.5-0.5
		c0.1-0.1,0.2-0.1,0.2-0.2c0.1,0,0.1-0.1,0.2-0.2c0.1-0.1,0.1-0.2,0.1-0.2l0-0.1c0,0,0-0.1,0.1-0.1v-0.3c0.1-0.1,0.1-0.1,0.2-0.1
		c0-0.1,0-0.2,0-0.4s0-0.3,0-0.4c0,0,0-0.1-0.1-0.1c0,0,0,0,0-0.1c0,0,0-0.1-0.1-0.2c0-0.1-0.1-0.1-0.2-0.1c-0.1,0-0.1-0.1-0.2-0.1
		c-0.1,0.1-0.1,0.1-0.2,0c0-0.1,0-0.1,0-0.1l-0.2,0c0,0,0,0,0-0.1c0,0,0-0.1,0-0.1c0,0,0,0-0.1,0c-0.1,0-0.1,0-0.1,0s0,0-0.1-0.1
		c0,0,0-0.1-0.1-0.1c0,0-0.1,0-0.2,0c-0.1,0-0.2,0-0.3,0c-0.2-0.1-0.3-0.1-0.3,0c0,0,0-0.1,0-0.1c0,0-0.1-0.1-0.4-0.1
		c-0.2-0.1-0.3-0.1-0.4-0.1c-0.2-0.2-0.4-0.2-0.8-0.3c0,0,0,0,0,0s0,0,0,0c0,0,0-0.1,0-0.1c-0.1,0-0.1,0-0.2-0.1
		c-0.1-0.1-0.1-0.1-0.2-0.1c0,0,0,0.1-0.1,0.1c0,0,0,0.1-0.1,0.1c0,0,0-0.1-0.1-0.1c-0.1,0-0.1-0.1-0.2-0.1c-0.1-0.1-0.1-0.1-0.3,0
		c-0.1-0.1-0.1-0.2-0.1-0.2c-0.2,0.1-0.3,0.1-0.3,0c-0.1-0.1-0.2-0.1-0.4,0c0-0.1-0.1-0.2-0.1-0.2c-0.2,0-0.3,0-0.4-0.1
		c0,0-0.1,0-0.2,0c0,0,0,0-0.1,0c0,0,0,0,0,0c0,0,0,0-0.1,0s0,0-0.1,0c0,0,0,0-0.1,0c-0.2-0.1-0.4-0.1-0.5,0c0,0,0-0.1,0-0.1
		c0,0,0-0.1-0.1-0.1c0,0-0.1,0-0.1,0s-0.1,0-0.1-0.1c0,0-0.1,0-0.1-0.1c0,0-0.1,0-0.2-0.1c-0.1,0-0.2-0.1-0.3-0.1
		c-0.1-0.1-0.1-0.1-0.1-0.1s-0.1,0-0.1,0c0,0-0.1,0-0.1,0c0-0.1,0-0.2,0-0.2c0,0-0.1,0-0.1,0c0,0-0.1,0-0.1,0s0,0,0,0c0,0,0,0,0-0.1
		c0,0,0,0,0,0c0,0,0,0,0-0.1c0,0-0.1,0-0.1,0c0,0-0.1,0-0.1,0c0,0,0-0.1,0-0.1c0,0,0,0,0,0c-0.1-0.1-0.1-0.1-0.2-0.1
		c-0.1-0.1-0.1-0.1-0.2-0.2c0,0-0.1,0-0.1,0c0,0-0.1,0-0.1,0c0-0.1-0.1-0.1-0.2-0.2c0-0.1-0.1-0.2-0.2-0.3c-0.1-0.1-0.2-0.2-0.2-0.3
		c0,0-0.1,0-0.1,0c0,0-0.1-0.1-0.1-0.1c0-0.1,0-0.1,0-0.1C64.1,51.3,64,51.1,64,51c-0.1,0-0.1,0-0.2-0.1c-0.1-0.1-0.1-0.1-0.1-0.1
		c0,0,0-0.1,0-0.2c-0.2-0.1-0.3-0.3-0.4-0.4c0,0,0,0,0-0.1c0-0.1,0-0.1,0-0.2c0,0,0-0.1-0.1-0.1c0,0-0.1,0-0.1-0.1c0,0,0-0.1,0-0.1
		c0,0,0-0.1,0-0.2c0-0.1,0-0.2,0-0.2c0,0,0-0.1,0-0.1c0-0.1,0-0.1,0-0.1c0,0,0-0.1,0.1-0.2c0-0.1,0-0.1,0-0.2c0-0.1,0-0.1,0-0.1
		c0.1-0.1,0.2-0.2,0.4-0.4c0,0,0.1,0,0.2,0c0,0,0,0,0-0.1c0,0,0-0.1,0-0.1c0,0,0.1,0,0.3-0.1c0.2-0.1,0.3-0.1,0.3-0.2
		c0.1,0,0.1,0,0.2,0c0,0,0.1-0.1,0.1-0.2c0,0,0,0,0.1,0c0,0,0.1,0,0.1-0.1c0,0,0.1-0.1,0.1-0.1c0.1,0,0.1,0,0.2,0
		c0.1,0,0.2-0.1,0.2-0.3c0.2,0,0.3,0,0.3-0.1c0.1,0,0.2,0,0.3,0c0.1,0,0.2,0,0.2,0c0.1,0,0.1,0,0.2-0.1c0.1-0.1,0.1-0.1,0.2-0.1
		c0.1,0,0.1,0,0.2,0c0,0,0.1,0,0.1,0c0.1,0,0.1-0.1,0.1-0.1c0,0,0.1,0,0.2,0c0,0,0.1,0,0.1-0.1c0,0,0.1-0.1,0.1-0.1
		c0.1,0,0.1,0,0.1,0c0,0,0.1-0.1,0.2-0.2c0.1,0,0.2,0,0.2-0.1l0,0.1c0.1-0.1,0.2-0.1,0.4-0.1c0.2,0,0.3,0,0.4,0c0,0,0.1,0,0.1,0
		c0,0,0.1-0.1,0.1-0.1c0.1,0,0.1,0,0.1,0s0.1,0,0.1-0.1c0,0,0.1-0.1,0.1-0.1c0.1,0,0.3,0,0.6,0c0.3,0,0.5,0,0.7,0c0.1,0,0.1,0,0.2,0
		c0.1,0,0.2,0,0.2,0s0.1,0,0.2,0c0.1,0,0.1,0,0.2,0c0,0,0.1,0.1,0.2,0.1C71.8,46.1,72,46.1,72.1,46.2z"/>
	<path fill="#D93427" d="M86.2,42.8c0.5,0.1,0.8,0,0.8-0.2c0,0,0.1,0,0.4,0c0,0,0,0,0,0.1c0,0,0,0,0,0.1c0,0,0.1,0,0.2,0
		c0.1,0,0.1,0,0.1,0.1c0.1,0,0.2,0,0.4,0.1c0.4,0,0.7,0.1,0.8,0.2H89c0.1,0.1,0.2,0.1,0.3,0.2c0.1,0.1,0.2,0.2,0.3,0.2v0.1
		c0.2,0.1,0.3,0.3,0.4,0.7c0,0,0.1,0.1,0.1,0.1c0.1,0.2,0,0.3,0,0.4c0,0.1,0,0.2,0,0.3c-0.1,0.1-0.1,0.1-0.1,0.2
		c-0.1,0.1-0.1,0.1-0.1,0.1c0,0.1,0,0.2-0.1,0.3c0,0.1,0,0.1,0,0.1c0,0-0.1,0.1-0.1,0.1c0,0,0,0-0.1,0c0,0,0,0-0.1,0
		c0,0,0,0.1-0.1,0.1c-0.1,0-0.1,0-0.2,0c0,0,0,0.1-0.1,0.1c0,0,0,0.1-0.1,0.1c-0.1,0-0.2,0-0.2,0c0,0.1,0,0.1,0,0.1s-0.1,0-0.2,0
		c-0.1,0-0.1,0-0.2,0c0,0-0.1,0-0.1,0c0,0-0.1,0-0.1,0c0,0,0-0.1,0.1-0.1c0,0-0.1-0.1-0.1-0.1c0-0.1-0.1-0.1-0.1-0.1
		c0,0-0.1,0.1-0.1,0.1c0,0-0.1,0-0.1,0c0-0.1,0-0.1-0.1-0.2c-0.1-0.1-0.1-0.1-0.2-0.1c0,0,0,0.1,0,0.1c0,0,0,0.1,0,0.1
		c0,0-0.1-0.1-0.1-0.1c0,0,0-0.1-0.1-0.1c0,0,0,0-0.1-0.1c0-0.2-0.2-0.2-0.5-0.2c-0.1,0-0.1,0-0.2,0.1c-0.1,0-0.1,0-0.2,0
		s-0.1,0-0.2,0c0,0-0.1,0.1-0.1,0.1c-0.1,0-0.2,0-0.4,0c-0.3,0.1-0.4,0.1-0.5,0.2c-0.2-0.1-0.3-0.1-0.3,0c-0.1,0-0.2,0-0.3,0
		c-0.1,0-0.2,0-0.2,0c0,0,0,0.1,0,0.1c-0.1,0-0.2,0-0.2,0c-0.1-0.1-0.2-0.1-0.2,0c0,0-0.1,0-0.1,0.1c0,0-0.1,0.1-0.1,0.1
		c-0.1,0-0.1,0-0.2,0c-0.1,0-0.1,0-0.2,0c0,0-0.1,0-0.1,0.1c0,0-0.1,0-0.1,0c-0.1,0-0.1,0-0.1,0l0,0.1c-0.3,0-0.4,0-0.5,0
		c0,0,0,0,0,0.1c0,0,0,0,0,0.1c-0.2-0.1-0.4-0.1-0.6,0.2c0,0-0.1,0-0.1-0.1c-0.1,0-0.1,0.1,0,0.2c0,0.1,0,0.1,0.1,0.1
		c0,0,0,0.1,0,0.1c0,0,0,0.1,0,0.1c0,0.1,0,0.1,0,0.1c0,0.1,0,0.2,0.1,0.2c0,0.1,0,0.2,0.1,0.3s0.1,0.2,0,0.3c0,0.1,0,0.2,0.1,0.3
		c0,0,0,0,0,0.1c0,0,0,0,0,0.1c0,0.1,0,0.1,0,0.2c0,0.1,0.1,0.1,0.1,0.1c0,0.6,0,0.9,0,0.9c-0.1,0.1-0.1,0.3,0,0.5c0,0,0,0.1,0,0.2
		c0,0,0,0.1-0.1,0.1c0,0.1,0,0.1,0,0.2c0.1,0.1,0.1,0.1,0.1,0.1s0,0.1,0,0.1c0,0,0,0.1,0,0.1c0,0.1,0,0.2,0,0.5c0,0.2,0,0.4,0,0.5
		c0,0,0,0.1,0,0.2c0,0.1,0.1,0.1,0.2,0.1c0.1,0,0.2-0.1,0.2-0.1c0.3,0,0.4,0,0.5-0.1c0.3,0,0.5,0,0.5,0c0.2,0,0.3,0,0.4,0
		c0,0,0.1,0,0.1-0.1c0.1,0,0.1-0.1,0.1-0.1s0.1,0,0.2,0c0.2,0,0.3,0,0.3-0.1c0.2,0.1,0.3,0,0.5,0c0,0,0.1,0,0.1,0c0,0,0.1,0,0.1,0
		c0,0,0.1,0,0.1,0c0.1,0,0.1,0,0.1,0c0.1,0,0.3,0,0.4,0c0,0,0-0.1,0-0.1c0.1,0.1,0.2,0.1,0.4,0c0.2,0,0.3-0.1,0.3-0.1
		c0.1,0,0.1,0,0.2,0c0.1,0,0.1-0.1,0.1-0.1s0,0,0.1,0c0,0,0,0,0.1,0.1c0,0,0.1,0,0.2-0.1c0.1-0.1,0.2-0.1,0.2-0.1
		c0.1-0.1,0.1-0.1,0.1-0.1s0.1,0,0.1,0.1c0.2,0,0.4,0,0.4-0.1c0.1,0,0.1,0,0.2,0c0.1,0,0.1,0,0.2,0c0,0,0.1,0,0.2,0.1
		c0.1,0,0.2,0.1,0.2,0.1c0.1,0,0.2,0.1,0.2,0.2c0.1,0,0.1,0,0.2,0c0,0,0,0,0.1,0c0,0,0,0.1,0.1,0.1c0.2,0,0.3,0,0.4,0
		c0,0,0,0.1,0.1,0.2c0,0,0,0.1,0,0.1c0,0.1,0.1,0.1,0.2,0.3c0,0.2,0.1,0.3,0.2,0.4c0,0,0,0.1-0.1,0.1c0,0.1,0,0.2-0.1,0.3
		c-0.1,0.1-0.1,0.2-0.1,0.3h-0.1c0,0,0,0,0,0.1s0,0,0,0.1c0,0-0.1,0-0.1,0h0l-0.1,0c0,0-0.1,0-0.1-0.1c0,0-0.1,0-0.1,0
		s-0.1,0-0.1,0.1c0,0-0.1,0-0.1,0c0,0.1-0.1,0.1-0.3,0.2c-0.2,0.1-0.3,0.1-0.3,0.2c-0.2,0-0.4,0-0.6,0.2c0,0-0.1,0-0.1,0
		c0,0,0,0-0.1,0.1c0,0,0,0,0,0.1c-0.1,0-0.1,0-0.2-0.1c0,0,0,0-0.1,0c0,0,0,0.1,0,0.1c-0.1,0-0.1,0-0.3,0c-0.1,0-0.2,0-0.3,0
		c0,0-0.1,0-0.1,0.1c0,0-0.1,0.1-0.1,0.1c-0.1,0-0.2,0-0.2,0c-0.1,0-0.1,0.1-0.1,0.2c-0.1-0.1-0.1-0.1-0.2-0.1c-0.1,0-0.2,0-0.2,0.1
		v0.1c-0.1,0-0.1,0-0.2,0c-0.1-0.1-0.1,0-0.2,0c0,0-0.1,0-0.2,0l0,0.2c-0.1,0-0.1,0-0.3,0c-0.1,0-0.1,0-0.2,0c-0.1,0-0.1,0.1,0,0.2
		l-0.2-0.1c0,0-0.2,0-0.4,0c0,0-0.1,0.1-0.1,0.1c0,0-0.1,0.1-0.1,0.1c-0.2,0-0.3,0-0.4,0l-0.1,0.2c-0.3,0-0.5,0-0.5,0
		c-0.1,0-0.1,0.1-0.2,0.1c0,0,0,0,0,0.1c-0.2,0.1-0.4,0.1-0.5,0c0,0-0.1,0-0.1,0.1c0,0-0.1,0.1-0.1,0.1s-0.1,0-0.1-0.1
		c0,0-0.1-0.1-0.1-0.1c-0.1,0-0.1,0-0.2,0.1c-0.1,0-0.1,0-0.2,0c-0.1,0-0.1,0.2,0,0.5c0,0,0,0.1,0,0.1c0,0,0,0.1,0,0.1
		c0,0.1,0.1,0.1,0.2,0.1c0.1,0.1,0,0.2-0.1,0.2c0,0,0,0.1,0,0.2c0,0.1,0,0.2,0.1,0.2c0,0,0,0,0,0.1s0,0,0,0.1s0,0.1-0.1,0.3
		c0.1,0.1,0.1,0.2,0.1,0.5c0,0.2,0,0.4,0.1,0.6c-0.1,0.2-0.1,0.4,0,0.4c0,0.1,0,0.1,0,0.3c0,0,0,0.1,0,0.1c0,0,0,0.1,0,0.1
		c0.1,0.2,0.1,0.3,0.1,0.4c0.1,0.1,0.1,0.1,0.2,0.3c0.1,0.1,0.1,0.2,0.1,0.3c0.1,0,0.2,0,0.3,0.1c0.2,0,0.3,0,0.3,0
		c0,0,0.1,0,0.1-0.1c0.1,0,0.1,0,0.1,0.1c0.4,0,0.6-0.1,0.7-0.1c0.1,0,0.2,0,0.3,0c0.1,0,0.3,0,0.3,0c0.1-0.1,0.2-0.1,0.6-0.2
		c0,0,0,0,0-0.1c0,0,0-0.1,0-0.1c0.1,0,0.1,0,0.2,0c0.1,0,0.1,0,0.2,0c0,0,0.1-0.1,0.2-0.1c0.1,0,0.2-0.1,0.2-0.1
		c0.2,0,0.3,0,0.5-0.1c0.2-0.1,0.3-0.2,0.5-0.2c0-0.1,0.1-0.1,0.1-0.1c0.2,0.1,0.3,0,0.3,0c0.2,0,0.4-0.1,0.5-0.3c0.1,0,0.2,0,0.2,0
		c0.1-0.1,0.2-0.1,0.3-0.1c0.4,0,0.7,0,0.8,0.1c0,0,0.1,0,0.1,0c0,0.1,0.1,0.3,0.2,0.4c0,0,0.1,0,0.1,0c0.1,0,0.1,0.1,0.2,0.2
		c0,0.1,0.1,0.2,0.2,0.3c0,0.1,0,0.1,0.1,0.2c0.1,0.1,0.1,0.1,0.1,0.2c0,0,0,0,0,0.1c0,0.1,0,0.1,0,0.2c-0.1,0.2-0.2,0.3-0.2,0.4
		c-0.1,0-0.2,0.1-0.3,0.2c-0.2,0-0.3,0.1-0.3,0.4c0,0-0.1,0-0.1,0s-0.1,0-0.1,0c0,0-0.1,0.1-0.1,0.2c0,0-0.1,0-0.1,0
		c0,0-0.1,0-0.1,0s-0.1,0-0.1,0.1c-0.2,0-0.3,0.1-0.3,0.2h-0.2c-0.1,0.2-0.3,0.2-0.4,0.1c0,0-0.1,0.1-0.1,0.2c0,0-0.1,0-0.1,0
		c-0.1-0.1-0.2-0.1-0.3,0c-0.1,0-0.1,0.1-0.1,0.2l-0.2,0c0,0,0,0,0,0.1c0,0,0,0.1,0,0.1c0,0-0.1-0.1-0.2-0.1c-0.1,0-0.2,0-0.3,0
		c0,0,0,0.1-0.1,0.1c0,0,0,0.1-0.1,0.1c0,0-0.1,0-0.1,0s-0.1,0-0.1,0c0,0-0.1,0.1-0.1,0.2c-0.1-0.1-0.3,0-0.4,0c0,0,0,0,0,0.1
		c-0.1,0-0.2,0-0.3,0c-0.2,0-0.3,0.1-0.3,0.1c0,0-0.1,0-0.1,0c0,0,0,0-0.1,0c0,0-0.1,0-0.2,0c-0.1,0-0.2,0-0.2,0.1
		c0,0.1,0,0.1,0,0.1c0,0-0.1,0-0.2,0c-0.1,0-0.1,0-0.1,0c0,0,0-0.1-0.1-0.1c-0.3,0.1-0.4,0.1-0.4,0.1c0,0,0,0.1,0,0.1
		c-0.1,0-0.1,0-0.2,0c0,0-0.1-0.1-0.1-0.1c0,0-0.1,0.1-0.1,0.1c0,0-0.1,0-0.1,0s-0.1,0-0.2,0c-0.1,0-0.1,0-0.2,0c0-0.1,0-0.1,0-0.1
		l-0.1,0c-0.1,0-0.1,0.1-0.1,0.2c-0.2,0-0.4,0-0.6,0c0-0.1,0-0.1-0.1-0.2c-0.1,0-0.1,0-0.2,0c0,0,0,0.1,0,0.1c0,0.1,0,0.1,0,0.1
		s0,0,0-0.1s0-0.1,0-0.1h-0.2v-0.1c-0.1-0.1-0.1-0.1-0.3-0.1c-0.1-0.1-0.1-0.1-0.2-0.1c0,0-0.1,0-0.1-0.1c-0.1-0.1-0.1-0.1-0.1-0.2
		c0,0-0.1,0-0.1,0c0,0-0.1,0-0.1,0c0,0,0-0.1,0-0.1c0,0,0-0.1-0.1-0.1s-0.1,0-0.1,0c0,0-0.1,0-0.1,0c0-0.1,0-0.2-0.2-0.3v-0.1
		c-0.1-0.1-0.2-0.2-0.3-0.2h-0.1c-0.1-0.1-0.2-0.1-0.2-0.2c-0.1-0.1-0.1-0.2-0.2-0.3c-0.1-0.1-0.1-0.2-0.2-0.2
		C80,60.2,79.9,60,79.9,60c0-0.1,0-0.1-0.1-0.3c0-0.1,0-0.1,0-0.2c0-0.1,0-0.2,0-0.2c0-0.1,0-0.1-0.1-0.2c0,0,0-0.1,0-0.1
		c0,0,0-0.1,0-0.1c0,0,0-0.1,0-0.3c0-0.2,0-0.3-0.1-0.3c0-0.1,0-0.2,0-0.3c0-0.2,0-0.3,0-0.3c0-0.4,0-0.9,0-1.7s0-1.3,0-1.7
		c0.1,0,0.2,0,0.1-0.1c0-0.1-0.1-0.2-0.1-0.2c0-0.1,0-0.2,0.1-0.3c0-0.1,0.1-0.2,0.1-0.2c-0.1-0.1-0.1-0.1-0.1-0.2
		c0-0.1,0-0.1,0.1-0.1c0-0.1,0-0.6,0-1.5c0.1,0,0.1-0.1,0.1-0.1c0-0.1,0-0.1-0.1-0.2c0.1,0,0.1-0.1,0-0.2c0-0.1,0-0.2,0-0.3
		c0,0,0-0.1,0-0.1c0.1-0.1,0-0.2,0-0.2c0-0.1,0-0.2,0-0.5c0-0.3,0-0.4-0.1-0.4c0.1,0,0.1-0.2,0.1-0.4c0-0.2,0-0.3,0-0.4l-0.2-0.1
		c0-0.2,0-0.3,0.1-0.3c0,0-0.1-0.1-0.1-0.1s0-0.1,0-0.1c0-0.3,0-0.4,0-0.5c0,0,0,0-0.1,0c0,0,0,0-0.1,0c0-0.3,0-0.5,0-0.7
		c-0.1,0-0.1,0-0.1,0c0,0,0-0.1,0-0.2c0,0,0-0.1,0-0.1c0,0,0-0.1,0-0.1c0,0,0-0.1,0-0.1c0,0,0-0.1,0-0.1c0,0-0.1-0.1-0.1-0.1
		c-0.1-0.1-0.1-0.2,0-0.3c0,0-0.1-0.1-0.1-0.1s0-0.1,0-0.2c-0.1,0-0.1-0.1-0.2-0.2c0-0.1,0-0.2,0-0.2c0-0.1,0-0.1,0-0.2
		c-0.1-0.1,0-0.2,0-0.3c0.1-0.1,0.1-0.2,0.1-0.3c0,0,0.1-0.1,0.2-0.2c0.1-0.1,0.1-0.2,0.2-0.2c0,0,0,0,0,0c0,0,0-0.1,0-0.1l0.1,0.1
		c0,0,0.1,0,0.2,0c0.1,0,0.2,0,0.2,0c0.1,0,0.1,0,0.2-0.1c0.1-0.1,0.1-0.1,0.1-0.1c0.1,0,0.1,0,0.2,0s0.2,0,0.2,0c0,0,0.1,0,0.1,0
		c0,0,0.1,0,0.1,0c0.2,0,0.3,0,0.4-0.1c0.4-0.1,0.6-0.1,0.6-0.2H82c0,0,0,0,0.1,0c0,0,0,0,0.1,0c0,0,0.1,0,0.2,0
		c0.1,0,0.1,0,0.2-0.1c0.1-0.1,0.1-0.1,0.2-0.1c0,0,0-0.1,0-0.2c0.1,0,0.1,0,0.1,0c0,0,0,0,0,0.1c0,0,0,0.1,0,0.1
		c0.2-0.1,0.4-0.1,0.4-0.2c0.1,0,0.1,0,0.2,0.1l0.3-0.1c0,0,0.1-0.1,0.3-0.2c0,0.1,0.1,0.1,0.1,0.2c0,0,0.1,0,0.2-0.1
		c0.1,0,0.1,0,0.2,0s0.1,0,0.1,0c0,0,0.1,0,0.1-0.1c0,0,0.1,0,0.2,0c0.1,0,0.1,0,0.2,0c0.2,0,0.3-0.1,0.4-0.1c0,0,0.1,0,0.1,0
		c0.1,0,0.1,0,0.1-0.1c0.1,0,0.1,0,0.2,0c0,0,0.1,0,0.2-0.1c0.1,0,0.1,0,0.2,0C86.1,42.9,86.1,42.9,86.2,42.8
		C86.2,42.9,86.2,42.9,86.2,42.8C86.2,42.8,86.2,42.8,86.2,42.8z M87,42.7c0,0,0.1,0,0.2,0c0.1,0,0.2,0,0.2,0c0,0,0,0,0,0
		c0,0,0,0,0,0.1c0,0,0.1,0,0.2,0c0.1,0,0.1,0,0.1,0.1c0.1,0,0.2,0,0.4,0.1c0.4,0,0.7,0.1,0.8,0.2H89c0.1,0.1,0.2,0.1,0.3,0.2
		c0.1,0.1,0.2,0.2,0.3,0.2v0.1c0.2,0.1,0.3,0.3,0.4,0.7c0,0,0.1,0,0.1,0c0,0,0,0,0,0c0.1,0.2,0,0.3,0,0.4c0,0.1,0,0.2,0,0.3
		c-0.1,0.1-0.1,0.1-0.1,0.2c-0.1,0.1-0.1,0.1-0.1,0.1c0,0.1,0,0.2-0.1,0.3c0,0.1,0,0.1,0,0.1c0,0-0.1,0.1-0.1,0.1c0,0,0,0-0.1,0
		c0,0,0,0-0.1,0c0,0,0,0.1-0.1,0.1c-0.1,0-0.1,0-0.2,0c0,0,0,0.1-0.1,0.1c0,0,0,0.1-0.1,0.1c-0.1,0-0.2,0-0.2,0c0,0.1,0,0.1,0,0.1
		s-0.1,0-0.2,0c-0.1,0-0.1,0-0.2,0c0,0-0.1,0-0.1,0c0,0-0.1,0-0.1,0c0,0,0-0.1,0.1-0.1c0,0-0.1-0.1-0.1-0.1c0-0.1-0.1-0.1-0.1-0.1
		c0,0-0.1,0.1-0.1,0.1c0,0-0.1,0-0.1,0c0-0.1,0-0.1-0.1-0.2c-0.1-0.1-0.1-0.1-0.2-0.1c0,0,0,0.1,0,0.1c0,0,0,0.1,0,0.1
		c0,0-0.1-0.1-0.1-0.1c0,0,0-0.1-0.1-0.1c0,0,0,0-0.1-0.1c0-0.2-0.2-0.2-0.5-0.2c-0.1,0-0.1,0-0.2,0.1c-0.1,0-0.1,0-0.2,0
		s-0.1,0-0.2,0c0,0-0.1,0.1-0.1,0.1c-0.1,0-0.2,0-0.4,0c-0.3,0.1-0.4,0.1-0.5,0.2c-0.2-0.1-0.3-0.1-0.3,0c-0.1,0-0.2,0-0.3,0
		c-0.1,0-0.2,0-0.2,0c0,0,0,0.1,0,0.1c-0.1,0-0.2,0-0.2,0c-0.1-0.1-0.2-0.1-0.2,0c0,0-0.1,0-0.1,0.1c0,0-0.1,0.1-0.1,0.1
		c-0.1,0-0.1,0-0.2,0c-0.1,0-0.1,0-0.2,0c0,0-0.1,0-0.1,0.1c0,0-0.1,0-0.1,0c-0.1,0-0.1,0-0.1,0l0,0.1c-0.3,0-0.4,0-0.5,0
		c0,0,0,0,0,0.1c0,0,0,0,0,0.1c-0.2-0.1-0.4-0.1-0.6,0.2c0,0-0.1,0-0.1-0.1c-0.1,0-0.1,0.1,0,0.2c0,0.1,0,0.1,0.1,0.1
		c0,0,0,0.1,0,0.1c0,0,0,0.1,0,0.1c0,0.1,0,0.1,0,0.1c0,0.1,0,0.2,0.1,0.2c0,0.1,0,0.2,0.1,0.3s0.1,0.2,0,0.3c0,0.1,0,0.2,0.1,0.3
		c0,0,0,0,0,0.1c0,0,0,0,0,0.1c0,0.1,0,0.1,0,0.2c0,0.1,0.1,0.1,0.1,0.1c0,0.6,0,0.9,0,0.9c-0.1,0.1-0.1,0.3,0,0.5c0,0,0,0.1,0,0.2
		c0,0,0,0.1-0.1,0.1c0,0.1,0,0.1,0,0.2c0.1,0.1,0.1,0.1,0.1,0.1s0,0.1,0,0.1c0,0,0,0.1,0,0.1c0,0.1,0,0.2,0,0.5c0,0.2,0,0.4,0,0.5
		c0,0,0,0.1,0,0.2c0,0.1,0.1,0.1,0.2,0.1c0.1,0,0.2-0.1,0.2-0.1c0.3,0,0.4,0,0.5-0.1c0.3,0,0.5,0,0.5,0c0.2,0,0.3,0,0.4,0
		c0,0,0.1,0,0.1-0.1c0.1,0,0.1-0.1,0.1-0.1s0.1,0,0.2,0c0.2,0,0.3,0,0.3-0.1c0.2,0.1,0.3,0,0.5,0c0,0,0.1,0,0.1,0c0,0,0.1,0,0.1,0
		c0,0,0.1,0,0.1,0c0.1,0,0.1,0,0.1,0c0.1,0,0.3,0,0.4,0c0,0,0-0.1,0-0.1c0.1,0.1,0.2,0.1,0.4,0c0.2,0,0.3-0.1,0.3-0.1
		c0.1,0,0.1,0,0.2,0c0.1,0,0.1-0.1,0.1-0.1s0,0,0.1,0c0,0,0,0,0.1,0.1c0,0,0.1,0,0.2-0.1c0.1-0.1,0.2-0.1,0.2-0.1
		c0.1-0.1,0.1-0.1,0.1-0.1s0.1,0,0.1,0.1c0.2,0,0.4,0,0.4-0.1c0.1,0,0.1,0,0.2,0c0.1,0,0.1,0,0.2,0c0,0,0.1,0,0.2,0.1
		c0.1,0,0.2,0.1,0.2,0.1c0.1,0,0.2,0.1,0.2,0.2c0.1,0,0.1,0,0.2,0c0,0,0,0,0.1,0c0,0,0,0.1,0.1,0.1c0.2,0,0.3,0,0.4,0
		c0,0,0,0.1,0.1,0.2c0,0,0,0.1,0,0.1c0,0.1,0.1,0.1,0.2,0.3c0,0.2,0.1,0.3,0.2,0.4c0,0,0,0.1-0.1,0.1c0,0.1,0,0.2-0.1,0.3
		c-0.1,0.1-0.1,0.2-0.1,0.3h-0.1c0,0,0,0,0,0.1s0,0,0,0.1c0,0-0.1,0-0.1,0h0l-0.1,0c0,0-0.1,0-0.1-0.1c0,0-0.1,0-0.1,0
		s-0.1,0-0.1,0.1c0,0-0.1,0-0.1,0c0,0.1-0.1,0.1-0.3,0.2c-0.2,0.1-0.3,0.1-0.3,0.2c-0.2,0-0.4,0-0.6,0.2c0,0-0.1,0-0.1,0
		c0,0,0,0-0.1,0.1c0,0,0,0,0,0.1c-0.1,0-0.1,0-0.2-0.1c0,0,0,0-0.1,0c0,0,0,0.1,0,0.1c-0.1,0-0.1,0-0.3,0c-0.1,0-0.2,0-0.3,0
		c0,0-0.1,0-0.1,0.1c0,0-0.1,0.1-0.1,0.1c-0.1,0-0.2,0-0.2,0c-0.1,0-0.1,0.1-0.1,0.2c-0.1-0.1-0.1-0.1-0.2-0.1c-0.1,0-0.2,0-0.2,0.1
		v0.1c-0.1,0-0.1,0-0.2,0c-0.1-0.1-0.1,0-0.2,0c0,0-0.1,0-0.2,0l0,0.2c-0.1,0-0.1,0-0.3,0c-0.1,0-0.1,0-0.2,0c-0.1,0-0.1,0.1,0,0.2
		l-0.2-0.1c0,0-0.2,0-0.4,0c0,0-0.1,0.1-0.1,0.1c0,0-0.1,0.1-0.1,0.1c-0.2,0-0.3,0-0.4,0l-0.1,0.2c-0.3,0-0.5,0-0.5,0
		c-0.1,0-0.1,0.1-0.2,0.1c0,0,0,0,0,0.1c-0.2,0.1-0.4,0.1-0.5,0c0,0-0.1,0-0.1,0.1c0,0-0.1,0.1-0.1,0.1s-0.1,0-0.1-0.1
		c0,0-0.1-0.1-0.1-0.1c-0.1,0-0.1,0-0.2,0.1c-0.1,0-0.1,0-0.2,0c-0.1,0-0.1,0.2,0,0.5c0,0,0,0.1,0,0.1c0,0,0,0.1,0,0.1
		c0,0.1,0.1,0.1,0.2,0.1c0.1,0.1,0,0.2-0.1,0.2c0,0,0,0.1,0,0.2c0,0.1,0,0.2,0.1,0.2c0,0,0,0,0,0.1s0,0,0,0.1s0,0.1-0.1,0.3
		c0.1,0.1,0.1,0.2,0.1,0.5c0,0.2,0,0.4,0.1,0.6c-0.1,0.2-0.1,0.4,0,0.4c0,0.1,0,0.1,0,0.3c0,0,0,0.1,0,0.1c0,0,0,0.1,0,0.1
		c0.1,0.2,0.1,0.3,0.1,0.4c0.1,0.1,0.1,0.1,0.2,0.3c0.1,0.1,0.1,0.2,0.1,0.3c0.1,0,0.2,0,0.3,0.1c0.2,0,0.3,0,0.3,0
		c0,0,0.1,0,0.1-0.1c0.1,0,0.1,0,0.1,0.1c0.4,0,0.6-0.1,0.7-0.1c0.1,0,0.2,0,0.3,0c0.1,0,0.3,0,0.3,0c0.1-0.1,0.2-0.1,0.6-0.2
		c0,0,0,0,0-0.1c0,0,0-0.1,0-0.1c0.1,0,0.1,0,0.2,0c0.1,0,0.1,0,0.2,0c0,0,0.1-0.1,0.2-0.1c0.1,0,0.2-0.1,0.2-0.1
		c0.2,0,0.3,0,0.5-0.1c0.2-0.1,0.3-0.2,0.5-0.2c0-0.1,0.1-0.1,0.1-0.1c0.2,0.1,0.3,0,0.3,0c0.2,0,0.4-0.1,0.5-0.3c0.1,0,0.2,0,0.2,0
		c0.1-0.1,0.2-0.1,0.3-0.1c0.4,0,0.7,0,0.8,0.1c0,0,0.1,0,0.1,0c0,0.1,0.1,0.3,0.2,0.4c0,0,0.1,0,0.1,0c0.1,0,0.1,0.1,0.2,0.2
		c0,0.1,0.1,0.2,0.2,0.3c0,0.1,0,0.1,0.1,0.2c0.1,0.1,0.1,0.1,0.1,0.2c0,0,0,0,0,0.1c0,0.1,0,0.1,0,0.2c-0.1,0.2-0.2,0.3-0.2,0.4
		c-0.1,0-0.2,0.1-0.3,0.2c-0.2,0-0.3,0.1-0.3,0.4c0,0-0.1,0-0.1,0s-0.1,0-0.1,0c0,0-0.1,0.1-0.1,0.2c0,0-0.1,0-0.1,0
		c0,0-0.1,0-0.1,0s-0.1,0-0.1,0.1c-0.2,0-0.3,0.1-0.3,0.2h-0.2c-0.1,0.2-0.3,0.2-0.4,0.1c0,0-0.1,0.1-0.1,0.2c0,0-0.1,0-0.1,0
		c-0.1-0.1-0.2-0.1-0.3,0c-0.1,0-0.1,0.1-0.1,0.2l-0.2,0c0,0,0,0,0,0.1c0,0,0,0.1,0,0.1c0,0-0.1-0.1-0.2-0.1c-0.1,0-0.2,0-0.3,0
		c0,0,0,0.1-0.1,0.1c0,0,0,0.1-0.1,0.1c0,0-0.1,0-0.1,0s-0.1,0-0.1,0c0,0-0.1,0.1-0.1,0.2c-0.1-0.1-0.3,0-0.4,0c0,0,0,0,0,0.1
		c-0.1,0-0.2,0-0.3,0c-0.2,0-0.3,0.1-0.3,0.1c0,0-0.1,0-0.1,0c0,0,0,0-0.1,0c0,0-0.1,0-0.2,0c-0.1,0-0.2,0-0.2,0.1
		c0,0.1,0,0.1,0,0.1c0,0-0.1,0-0.2,0c-0.1,0-0.1,0-0.1,0c0,0,0-0.1-0.1-0.1c-0.3,0.1-0.4,0.1-0.4,0.1c0,0,0,0.1,0,0.1
		c-0.1,0-0.1,0-0.2,0c0,0-0.1-0.1-0.1-0.1c0,0-0.1,0.1-0.1,0.1c0,0-0.1,0-0.1,0s-0.1,0-0.2,0c-0.1,0-0.1,0-0.2,0c0-0.1,0-0.1,0-0.1
		l-0.1,0c-0.1,0-0.1,0.1-0.1,0.2c-0.2,0-0.4,0-0.6,0c0-0.1,0-0.1-0.1-0.2c-0.1,0-0.1,0-0.2,0c0,0,0,0.1,0,0.1c0,0.1,0,0.1,0,0.1
		s0,0,0-0.1s0-0.1,0-0.1h-0.2v-0.1c-0.1-0.1-0.1-0.1-0.3-0.1c-0.1-0.1-0.1-0.1-0.2-0.1c0,0-0.1,0-0.1-0.1c-0.1-0.1-0.1-0.1-0.1-0.2
		c0,0-0.1,0-0.1,0c0,0-0.1,0-0.1,0c0,0,0-0.1,0-0.1c0,0,0-0.1-0.1-0.1s-0.1,0-0.1,0c0,0-0.1,0-0.1,0c0-0.1,0-0.2-0.2-0.3v-0.1
		c-0.1-0.1-0.2-0.2-0.3-0.2h-0.1c-0.1-0.1-0.2-0.1-0.2-0.2c-0.1-0.1-0.1-0.2-0.2-0.3c-0.1-0.1-0.1-0.2-0.2-0.2
		C80,60.2,79.9,60,79.9,60c0-0.1,0-0.1-0.1-0.3c0-0.1,0-0.1,0-0.2c0-0.1,0-0.2,0-0.2c0,0,0-0.1-0.1-0.1c0,0,0-0.1,0-0.1
		c0,0,0-0.1,0-0.1c0,0,0-0.1,0-0.3c0-0.2,0-0.3-0.1-0.3c0-0.1,0-0.2,0-0.3c0-0.2,0-0.3,0-0.3c0-0.4,0-0.9,0-1.7s0-1.3,0-1.7
		c0.1,0,0.2,0,0.1-0.1c0-0.1-0.1-0.2-0.1-0.2c0-0.1,0-0.2,0.1-0.3c0-0.1,0.1-0.2,0.1-0.2c-0.1-0.1-0.1-0.1-0.1-0.2
		c0-0.1,0-0.1,0.1-0.1c0-0.1,0-0.6,0-1.5c0.1,0,0.1-0.1,0.1-0.1c0-0.1,0-0.1-0.1-0.2c0.1,0,0.1-0.1,0-0.2c0-0.1,0-0.2,0-0.3
		c0,0,0-0.1,0-0.1c0.1-0.1,0-0.1,0-0.2c0-0.1,0-0.2,0-0.5c0-0.3,0-0.4-0.1-0.4c0.1,0,0.1-0.2,0.1-0.4c0-0.2,0-0.3,0-0.4l-0.2-0.1
		c0-0.2,0-0.3,0.1-0.3c0,0-0.1-0.1-0.1-0.1s0-0.1,0-0.1c0-0.3,0-0.4,0-0.5c0,0,0,0-0.1,0c0,0,0,0-0.1,0c0-0.3,0-0.5,0-0.7
		c-0.1,0-0.1,0-0.1,0c0,0,0-0.1,0-0.2c0,0,0-0.1,0-0.1c0,0,0-0.1,0-0.1c0,0,0-0.1,0-0.1c0,0,0-0.1,0-0.1c0,0-0.1-0.1-0.1-0.1
		c-0.1-0.1-0.1-0.2,0-0.3c0,0-0.1-0.1-0.1-0.1s0-0.1,0-0.2c-0.1,0-0.1-0.1-0.2-0.2c0-0.1,0-0.2,0-0.2c0-0.1,0-0.1,0-0.2
		c-0.1-0.1,0-0.2,0-0.3c0.1-0.1,0.1-0.2,0.1-0.3c0,0,0.1-0.1,0.2-0.2c0.1-0.1,0.1-0.2,0.2-0.2c0,0,0,0,0,0c0,0,0-0.1,0-0.1l0.1,0.1
		c0,0,0.1,0,0.2,0c0.1,0,0.2,0,0.2,0c0.1,0,0.1,0,0.2-0.1c0.1-0.1,0.1-0.1,0.1-0.1c0.1,0,0.1,0,0.2,0s0.2,0,0.2,0c0,0,0.1,0,0.1,0
		c0,0,0.1,0,0.1,0c0.2,0,0.3,0,0.4-0.1c0.4-0.1,0.6-0.1,0.6-0.2H82c0,0,0,0,0.1,0c0,0,0,0,0.1,0c0,0,0.1,0,0.2,0
		c0.1,0,0.1,0,0.2-0.1c0.1-0.1,0.1-0.1,0.2-0.1c0,0,0-0.1,0-0.2c0.1,0,0.1,0,0.1,0c0,0,0,0,0,0.1c0,0,0,0.1,0,0.1
		c0.2-0.1,0.4-0.1,0.4-0.2c0.1,0,0.1,0,0.2,0.1l0.3-0.1c0,0,0.1-0.1,0.3-0.2c0,0.1,0.1,0.1,0.1,0.2c0,0,0.1,0,0.2-0.1
		c0.1,0,0.1,0,0.2,0s0.1,0,0.1,0c0,0,0.1,0,0.1-0.1c0,0,0.1,0,0.2,0c0.1,0,0.1,0,0.2,0c0.2,0,0.3-0.1,0.4-0.1c0,0,0.1,0,0.1,0
		c0.1,0,0.1,0,0.1-0.1c0.1,0,0.1,0,0.2,0c0,0,0.1,0,0.2-0.1c0.1,0,0.1,0,0.2,0c0.1,0,0.1,0,0.1,0c0,0,0,0,0,0c0,0,0,0,0,0
		C86.7,42.9,87,42.8,87,42.7z"/>
</g>
</svg>
