<?xml version="1.0" encoding="utf-8"?>
<!-- Generator: Adobe Illustrator 19.0.1, SVG Export Plug-In . SVG Version: 6.00 Build 0)  -->
<svg version="1.1" id="Layer_1" xmlns="http://www.w3.org/2000/svg" xmlns:xlink="http://www.w3.org/1999/xlink" x="0px" y="0px"
	 viewBox="0 0 100 100" enable-background="new 0 0 100 100" xml:space="preserve">
<g>
	<path fill="#D93427" d="M40.9,39.5h0.2c0,0.1,0,0.1,0.1,0.2c0.1,0.1,0.2,0.2,0.2,0.2c0,0.2,0.1,0.3,0.2,0.4c0,0,0,0,0,0.1
		s0,0.1,0,0.1c0,0,0,0.1,0.1,0.1c0,0,0.1,0.1,0.1,0.1c0,0,0,0,0,0.1c0,0,0,0.1,0,0.1c0,0,0.1,0.1,0.1,0.1c0,0,0,0.1,0,0.1
		c0,0,0,0.1-0.1,0.1c0,0.1,0,0.1,0,0.2c-0.1,0-0.1,0.1-0.1,0.1c0,0,0,0.1,0,0.2c0,0.1-0.1,0.2-0.3,0.2c0,0-0.1,0.1-0.1,0.1
		c0,0.1-0.1,0.1-0.1,0.1c-0.1,0-0.1,0-0.1,0c0,0,0,0.1-0.1,0.1c0,0-0.1,0-0.1,0s-0.1,0-0.2,0c0,0-0.1,0-0.1,0c-0.1,0-0.1,0-0.1,0
		c-0.1,0-0.2-0.1-0.3-0.2h-0.1c-0.1-0.1-0.2-0.1-0.4-0.1c0,0-0.1,0-0.1,0s-0.1,0-0.1,0c0,0,0,0-0.1,0c0,0-0.1,0.1-0.1,0.1
		c0,0-0.1,0-0.2,0c0,0-0.1,0.1-0.2,0.2c0,0-0.1,0-0.1,0c0,0,0,0,0,0s0,0-0.1,0.1c0,0-0.1,0-0.1,0c0,0,0,0-0.1,0c0,0.1,0,0.1,0,0.1
		c-0.2,0-0.3,0-0.3,0.2c-0.1,0-0.1,0-0.2,0c-0.2,0.2-0.4,0.3-0.5,0.4h-0.1c0,0-0.1,0.1-0.3,0.2c-0.1,0.1-0.3,0.2-0.3,0.3
		c0,0.1,0,0.1,0,0.2s-0.1,0.1-0.1,0.1c0,0-0.1,0-0.1,0c0,0-0.1,0-0.1,0c-0.1,0.1-0.2,0.2-0.4,0.4c-0.2,0.2-0.3,0.4-0.5,0.5l0,0.1
		C35.5,45,35.5,45,35.4,45c0,0.1,0,0.1,0,0.1c-0.1,0.1-0.2,0.2-0.3,0.3c-0.1,0.1-0.2,0.2-0.2,0.3v0.1c0,0-0.1,0-0.1,0
		c0,0-0.1,0-0.1,0c0,0.1,0,0.2-0.1,0.3c-0.1,0.1-0.2,0.2-0.2,0.2c0,0,0,0.1,0,0.1c0,0,0,0.1,0,0.1c0,0,0,0.1-0.1,0.1
		c-0.1,0.1-0.1,0.2-0.1,0.2c0,0.1-0.1,0.2-0.2,0.4c-0.1,0.1-0.1,0.1-0.1,0.1c0,0,0,0.1,0,0.1c0,0,0,0,0,0.1c0,0.1-0.1,0.2-0.1,0.3
		c-0.1,0.2-0.1,0.3-0.1,0.3c-0.1,0.2-0.2,0.3-0.2,0.3c0,0,0,0.1,0,0.1c0,0,0,0.1,0,0.1c0,0,0,0,0,0.1c0,0,0,0.1,0,0.1
		c0,0,0,0.1,0,0.2s0,0.2-0.1,0.2c0,0.1-0.1,0.1-0.1,0.2c0,0.1,0,0.2,0,0.2c-0.1,0.1-0.1,0.2-0.1,0.2c0,0,0,0.1,0,0.1
		c0,0,0,0.1,0,0.1c0,0.1,0,0.1,0,0.1c0,0,0,0.1,0,0.1c0,0,0,0.1,0,0.1c0,0,0,0,0,0.1c0,0,0,0.1,0,0.1c0,0,0,0,0,0.1s0,0.1,0,0.1
		c0,0,0,0.1,0,0.1c0,0.1,0,0.1,0,0.1c0,0,0,0,0,0c0,0,0,0,0,0c0,0.1-0.1,0.3-0.1,0.5c0,0.2,0,0.4-0.1,0.6c0,0.1,0,0.1,0,0.3
		c0,0.1,0,0.2,0.1,0.2c0,0,0,0.1,0,0.1c0,0.1,0,0.1,0,0.1c0,0.1,0.1,0.1,0.1,0.1c0,0.1,0,0.1,0,0.1c0,0,0,0,0,0.1c0,0,0,0.1,0,0.1
		c0,0,0,0.1,0,0.1s0,0.1,0,0.1c0,0,0,0.1,0,0.1c0,0,0,0.1,0,0.1c0,0,0,0,0,0.1s0,0.1,0,0.1c0,0,0,0.1,0.1,0.2
		c0.1,0.2,0.2,0.4,0.1,0.5c0,0,0.1,0.1,0.1,0.1c0,0,0,0.1,0,0.1v0.1c0,0,0.1,0.1,0.1,0.1c0,0,0.1,0.1,0.1,0.1
		c0.1,0.2,0.2,0.2,0.2,0.3c0,0,0,0,0.1,0c0.1,0.2,0.2,0.3,0.3,0.4c0,0,0.1,0.2,0.2,0.4l0.1,0c0,0,0.1,0.1,0.1,0.1
		c0.1,0.2,0.1,0.2,0.1,0.2c0,0,0.1,0,0.2-0.1c0.1,0,0.1,0,0.2,0c0,0,0,0.1,0,0.2c0.2,0.1,0.3,0.1,0.4,0.1c0,0.1,0.1,0.1,0.2,0.1
		c0.1,0,0.2,0.1,0.2,0.1c0,0,0.1,0,0.2,0c0.1,0,0.2,0,0.2,0c0,0,0,0,0,0.1c0,0,0,0.1,0.1,0.1c0.2,0,0.4,0,0.4-0.1c0,0,0.1,0,0.2,0
		s0.1,0,0.2,0c0,0.1,0,0.2,0.2,0.2c0.2,0.1,0.4,0,0.5-0.1c0,0,0-0.1,0-0.1c0,0,0,0,0-0.1c0,0,0.1,0,0.2,0.1c0.2,0,0.4,0,0.5-0.1
		c0.3,0.1,0.5,0,0.7-0.1c0.1,0,0.2-0.1,0.3-0.2c0.2,0,0.4,0,0.6,0c0,0,0-0.1,0-0.1c0,0,0.1,0,0.1,0c0,0,0.1,0,0.2,0
		c0.2,0,0.2,0,0.3-0.1c0.1,0,0.1,0,0.2-0.1c0.1,0,0.1-0.1,0.1-0.1c0,0,0.1,0,0.1,0c0,0,0.1,0,0.2-0.1c0.1-0.1,0.2-0.1,0.2-0.1
		c0.1-0.1,0.3-0.2,0.5-0.3c0.2-0.1,0.4-0.3,0.5-0.4c0.1,0,0.1,0,0.2,0c0,0,0,0,0-0.1c0,0,0-0.1,0-0.1c0.2,0,0.3-0.1,0.3-0.3
		c0,0,0.1,0,0.2,0c0,0,0.1,0,0.2-0.1c0.1,0,0.2-0.1,0.3-0.2c0.1-0.1,0.2-0.2,0.3-0.3c0.1-0.1,0.1-0.1,0.2-0.1
		c0.1-0.1,0.1-0.2,0.2-0.2h0.1c0.1,0,0.1-0.1,0-0.3c-0.1-0.2-0.1-0.3-0.1-0.3c0.1-0.1,0.1-0.1,0.1-0.1c-0.1,0-0.4-0.1-0.9-0.1
		c-0.3,0-0.5,0-0.6,0c0,0-0.1,0-0.4,0c0,0-0.1,0-0.1,0c0,0-0.1,0-0.1,0c-0.1,0-0.2,0-0.5,0c-0.2,0-0.4,0-0.5,0c0,0,0,0.1-0.1,0.1
		c0,0-0.1,0-0.1,0c-0.1,0-0.1,0-0.1,0c-0.2-0.1-0.6-0.2-1.2-0.1c0,0-0.1,0-0.1,0c0,0-0.1-0.1-0.1-0.1c0,0-0.1,0-0.1,0
		c-0.1,0-0.1,0-0.2,0c-0.1,0-0.1,0-0.1,0c0,0-0.1-0.1-0.2-0.1C39,53,39,53,39,53c-0.1,0-0.2-0.1-0.3-0.2c-0.1-0.1-0.1-0.2-0.2-0.2
		h-0.2c-0.3-0.3-0.6-0.6-0.6-0.7c0,0,0-0.1-0.1-0.2c0-0.2,0.1-0.3,0.2-0.5c0.1,0,0.2,0,0.2-0.1c0-0.2,0.2-0.5,0.5-0.7
		c0.2,0,0.3-0.1,0.4-0.2c0.1,0,0.2,0,0.3,0c0.2,0,0.3,0,0.3,0c0,0,0.1,0,0.1,0c0,0,0.1,0,0.1,0s0.1,0,0.1,0c0.1,0.1,0.2,0.1,0.3,0.1
		c0.5,0.1,0.8,0.1,0.9,0c0,0,0.1,0,0.1,0c0,0,0.1,0,0.1,0s0.1,0,0.1,0c0,0.1,0.1,0.2,0.2,0.2c0.1,0,0.2-0.1,0.2-0.2c0,0,0.1,0,0.1,0
		c0,0,0.1,0,0.1,0c0,0,0,0,0,0.1s0,0.1,0,0.1c0.1,0,0.2,0,0.4,0c0.2,0,0.4,0,0.5,0c0.5,0,0.8,0,0.9-0.1c0.1,0,0.3,0,0.6,0
		c0.3,0,0.5,0,0.6,0c0.1,0,0.1-0.1,0.2-0.1c0.1,0,0.2-0.1,0.2-0.1s0,0,0,0c0,0,0,0,0,0c0.1,0,0.2,0,0.3,0c0.1,0,0.2,0,0.3,0
		c0.1,0,0.1-0.1,0.2-0.2c0.1-0.1,0.1-0.1,0.1-0.2c0.1,0,0.1,0,0.2,0.1c0.1,0,0.1,0.1,0.1,0.1c0,0,0.1-0.1,0.1-0.1c0.1,0,0.1,0,0.2,0
		c0.1,0,0.1,0,0.2,0c0.1,0,0.1-0.1,0.2-0.1c0.1,0,0.1-0.1,0.2-0.1l0.2,0.1c0.1,0,0.3,0,0.4,0.1c0.1,0.1,0.3,0.1,0.3,0.1
		c0,0,0-0.1,0-0.1c0.1,0,0.1,0,0.1,0c0,0,0,0.1,0,0.1c0,0,0.1,0,0.1,0.1c0.1,0.1,0.1,0.2,0.1,0.2c0.1,0,0.2,0.2,0.5,0.5
		c-0.1,0.1-0.1,0.1-0.1,0.2c0,0,0.1,0,0.1,0c0.1,0.1,0.1,0.2,0.1,0.6c0,0,0,0.1,0.1,0.1c0,0.1,0,0.1,0,0.2c0,0.1-0.1,0.1-0.1,0.1
		c0,0,0,0.1,0,0.1c0,0.1,0,0.1,0,0.1l0,0.1c0,0,0,0.1,0,0.2c0,0.3,0,0.6,0,0.6c0,0,0.1,0,0.1,0c0,0,0,0.1,0,0.2c0,0.1,0,0.1,0,0.2
		c0,0.1-0.1,0.1-0.1,0c0,0.1,0,0.2,0,0.3c0,0.1,0,0.2,0,0.3c0,0,0,0.1-0.1,0.2c0,0,0,0.2,0,0.5c0,0.3,0,0.5,0.1,0.5
		c-0.1,0.1-0.1,0.1-0.1,0.1c0,0.1,0,0.2,0,0.4c0,0.2,0,0.4,0,0.5c0,0.2,0,0.4,0.1,0.4c-0.1,0.1-0.1,0.3-0.1,0.5s0,0.4,0,0.6
		c0,0.4,0,0.7,0,0.7c0,0.1-0.1,0.2-0.2,0.3l0.1,0.2c0,0.2,0,0.3,0,0.4c0,0.1,0,0.3,0,0.4c0,0.2,0,0.3,0.1,0.3h0.1
		c0,0.5,0,0.7-0.1,0.7c0,0.1,0,0.3,0,0.4c0,0.1-0.1,0.2-0.1,0.3c-0.1,0-0.2,0.1-0.3,0.3c0,0,0,0.1-0.1,0.1c-0.1,0.1-0.2,0.1-0.2,0.2
		c-0.1,0-0.2,0-0.3,0.1c-0.1,0.1-0.2,0.1-0.3,0c0,0-0.1,0.1-0.1,0.1s-0.1,0.1-0.1,0.1c0,0-0.1,0-0.1-0.1c0,0,0-0.1,0-0.1
		c-0.1,0-0.2,0-0.4-0.1c-0.2-0.1-0.3-0.2-0.4-0.2c-0.1-0.2-0.1-0.2-0.1-0.2c-0.1,0-0.1,0-0.1,0c0,0,0-0.1,0-0.2
		c0-0.1-0.1-0.1-0.2-0.1c-0.1,0-0.2-0.1-0.2-0.1c0,0-0.1-0.1-0.1-0.1c0-0.1,0-0.1-0.1-0.1c0-0.2-0.1-0.4-0.1-0.4c0,0-0.1,0-0.1,0
		v-0.5c0,0,0,0,0.1,0c0-0.2,0-0.6,0-1.3c0-0.4-0.1-0.7-0.1-0.7c-0.1,0-0.1,0-0.1,0c0,0,0-0.2,0-0.4c0-0.3,0-0.4,0-0.5
		c0.1,0,0.1-0.1,0.1-0.2c0-0.1,0-0.2-0.1-0.2c0,0-0.1,0.1-0.2,0.2c-0.1,0.1-0.2,0.2-0.2,0.2c0,0,0,0.1,0,0.1c0,0-0.1,0-0.1,0
		c0,0,0,0-0.1,0c-0.1,0-0.2,0.1-0.2,0.1c-0.1,0-0.1,0-0.2,0.1c0,0,0,0,0,0.1c0,0-0.1,0-0.1,0c-0.2,0.1-0.3,0.2-0.3,0.2
		c0,0,0,0-0.1,0s-0.1,0-0.1,0c0,0-0.1,0.1-0.2,0.2c-0.1,0.1-0.2,0.1-0.2,0.2c-0.1,0-0.2,0.1-0.2,0.1c0,0.1,0,0.1,0,0.1
		c0,0-0.1,0-0.2-0.1c-0.2,0-0.3,0.1-0.4,0.3c-0.2,0.1-0.4,0.2-0.7,0.4c0,0.1,0,0.1,0,0.1c0,0-0.1,0-0.1,0c0,0-0.1,0-0.2,0
		c0,0,0,0.1-0.1,0.1c0,0-0.1,0-0.1,0c0,0,0,0-0.1,0c0,0-0.1,0-0.1,0c0,0-0.1,0.1-0.1,0.1c0,0-0.1,0-0.1,0c-0.1,0-0.1,0-0.1,0
		c-0.2,0.1-0.4,0.2-0.4,0.2c-0.2,0.2-0.3,0.2-0.3,0.3c-0.3,0-0.5,0-0.5,0c0,0.1,0,0.1,0,0.1c-0.3-0.1-0.5-0.1-0.6,0
		c0,0.1,0,0.1,0,0.1c0,0-0.1,0-0.1,0c0,0-0.1,0-0.1,0c-0.1,0-0.1,0.1-0.1,0.2c-0.1,0.1-0.1,0-0.2,0c-0.1-0.1-0.2-0.1-0.2-0.1
		c0,0-0.1,0-0.1,0c0,0-0.1,0-0.1,0c0,0,0,0.1,0.1,0.1c-0.3,0.1-0.5,0.1-0.6,0c-0.1-0.1-0.1-0.1-0.1-0.1c-0.1,0-0.2,0-0.4,0
		c-0.2,0-0.4,0-0.5,0c0,0-0.1,0-0.1,0c0,0,0,0-0.1,0s-0.1,0-0.1,0c0,0,0,0-0.1,0c0,0-0.1,0-0.1,0l0,0h-0.4c0,0,0-0.1,0-0.1
		c0,0,0,0,0-0.1c-0.1-0.1-0.2-0.1-0.3,0c-0.1,0-0.2,0-0.2,0L35.9,60c0,0-0.1,0-0.1,0c-0.1,0-0.1,0-0.1,0c0,0,0,0,0,0
		c0,0,0-0.1,0-0.1c0,0-0.1,0-0.2,0c-0.1,0-0.1,0-0.2,0c-0.1-0.2-0.2-0.2-0.4-0.2c0,0-0.1,0-0.1,0c0,0,0,0-0.1,0
		c-0.1,0-0.3-0.1-0.6-0.3c0,0-0.1,0-0.3-0.1c0,0-0.1,0-0.1,0c0,0-0.1,0-0.1,0v-0.1c-0.1,0-0.2-0.1-0.5-0.3s-0.4-0.4-0.5-0.5
		c-0.2-0.2-0.3-0.3-0.3-0.3c-0.3-0.1-0.6-0.4-0.7-0.7c-0.1-0.2-0.3-0.3-0.5-0.3c0-0.1-0.1-0.2-0.2-0.4c0-0.1,0-0.2-0.1-0.3
		c-0.1-0.1-0.1-0.1-0.1-0.2c-0.2-0.2-0.3-0.3-0.3-0.3c0,0,0-0.1,0-0.1s0-0.1,0-0.1c0,0-0.1-0.1-0.2-0.3c-0.1-0.2-0.1-0.3-0.1-0.4
		c0,0,0-0.1,0-0.1c0,0-0.1-0.1-0.1-0.1c0-0.1,0-0.2-0.1-0.4c0,0,0-0.1,0-0.1c0,0,0-0.1,0-0.1c-0.1-0.2-0.1-0.2,0-0.3
		c0-0.1-0.1-0.2-0.2-0.3c0,0,0-0.1,0-0.1c0,0,0-0.1,0-0.1c0,0,0-0.1-0.1-0.2c-0.1-0.1-0.1-0.2-0.1-0.2c0-0.2,0-0.3,0-0.3
		c-0.1,0-0.1,0-0.1,0c-0.1-0.2,0-0.2,0-0.2c0-0.1,0-0.2,0-0.3c0-0.2,0-0.3-0.1-0.4v-0.4c0,0,0.1,0,0.1,0s0.1,0,0.1,0
		c0-0.1,0-0.2-0.1-0.3c0.1,0,0.1-0.2,0-0.4c0,0,0-0.1,0-0.1c0-0.1,0-0.1,0-0.1c0,0,0,0,0-0.1s0-0.1,0-0.1c0,0,0-0.1,0-0.1
		c0,0,0,0,0-0.1c0,0,0-0.1,0-0.1s0-0.1,0-0.1c0,0,0.1-0.1,0.2-0.1c0-0.2,0-0.4,0-0.4c0.1-0.1,0.1-0.2,0.1-0.3c0,0,0-0.1,0-0.1
		c0,0,0-0.1,0-0.1c0,0,0-0.1,0.1-0.2c0-0.1,0-0.1,0-0.2c0-0.1,0-0.2,0-0.2c0,0,0-0.1,0-0.1c0.1-0.2,0.2-0.3,0.3-0.4
		c0-0.1,0-0.2,0.1-0.3c0-0.1,0-0.1,0-0.1c0-0.1,0-0.1,0-0.1c0,0,0.1-0.1,0.1-0.1c0-0.1,0.1-0.1,0.1-0.1c0,0,0-0.1,0-0.1
		c0-0.1,0-0.1,0.1-0.2c0-0.1,0.1-0.2,0.1-0.2c0,0,0.1-0.1,0.1-0.1c0,0,0.1,0,0.1-0.1c0,0,0-0.1,0-0.1c0,0,0-0.1,0-0.1
		c0-0.1,0-0.1,0.1-0.2c0.1-0.1,0.1-0.1,0.2-0.2c0,0,0-0.1,0-0.1c0-0.1,0-0.1,0-0.1c0-0.1,0-0.1,0.1-0.2c0.1,0,0.1-0.1,0.1-0.1
		c-0.1-0.2,0-0.3,0.2-0.4c0.1,0,0.1-0.1,0.1-0.1c0-0.1,0.1-0.2,0.2-0.4c0.1-0.2,0.2-0.3,0.2-0.3c0.1-0.1,0.2-0.1,0.2-0.2
		c0,0,0.1-0.1,0.1-0.1c0,0,0.1-0.1,0.1-0.1c0-0.1,0-0.1,0-0.1c0-0.1,0.1-0.1,0.2-0.2c0.1-0.1,0.2-0.2,0.3-0.3
		c0.1-0.1,0.1-0.2,0.2-0.3c0,0,0.1-0.1,0.2-0.1C33.9,42.1,34,42,34,42c0.1-0.1,0.2-0.2,0.2-0.3c0-0.2,0.1-0.3,0.2-0.3
		c0.1,0,0.1,0,0.1,0c0.2-0.1,0.3-0.2,0.4-0.2c0,0,0-0.1,0-0.1c0,0,0-0.1,0-0.1c0,0,0.1-0.1,0.2-0.1c0.1,0,0.2-0.1,0.2-0.2
		c0,0,0-0.1,0-0.1c0,0,0,0,0-0.1c0,0,0,0,0.1,0s0.1,0,0.2,0c0-0.2,0-0.3,0.1-0.4s0.2-0.1,0.3,0c0.1-0.1,0.1-0.2,0-0.2
		c0,0,0.1-0.1,0.1-0.1c0,0,0.1-0.1,0.1-0.1c0.1,0,0.2,0,0.3-0.1c0.1-0.1,0.2-0.1,0.3-0.1c-0.1-0.1-0.1-0.2,0-0.2c0,0,0.1,0,0.1,0.1
		c0,0,0.1-0.1,0.1-0.2c0.1,0,0.2,0,0.2,0c0-0.1,0-0.1,0-0.2c0.1,0,0.1,0,0.2,0s0.2,0,0.2,0c0,0,0-0.1,0-0.1c0,0,0-0.1,0-0.1
		c0,0,0.1,0,0.1,0c0,0,0.1,0,0.2,0c0,0,0.1,0,0.1-0.1s0.1-0.1,0.1-0.1c0.1-0.1,0.2-0.1,0.4-0.1c0.1,0,0.2,0,0.3,0
		c0,0,0.1,0.1,0.1,0.1c0,0,0.1,0,0.1,0c0.1,0,0.1,0,0.2,0c0,0,0.1-0.1,0.1-0.1c0.3-0.1,0.4,0,0.5,0.1c0.1,0,0.2,0.1,0.3,0.2
		c0.1,0,0.2,0,0.4,0.2c0,0,0.1,0.1,0.1,0.1c0,0,0.1,0,0.1,0.1c0,0,0.1,0,0.1,0.1C40.9,39.4,40.9,39.4,40.9,39.5z M41.1,39.5
		c0,0.1,0,0.1,0.1,0.2c0.1,0.1,0.2,0.2,0.2,0.2c0,0.2,0.1,0.3,0.2,0.4c0,0,0,0,0,0.1s0,0.1,0,0.1c0,0,0,0.1,0.1,0.1
		c0,0,0.1,0.1,0.1,0.1c0,0,0,0,0,0.1c0,0,0,0.1,0,0.1c0,0,0.1,0.1,0.1,0.1c0,0,0,0.1,0,0.1c0,0,0,0.1-0.1,0.1c0,0.1,0,0.1,0,0.2
		c-0.1,0-0.1,0.1-0.1,0.1c0,0,0,0.1,0,0.2c0,0.1-0.1,0.2-0.3,0.2c0,0-0.1,0.1-0.1,0.1c0,0.1-0.1,0.1-0.1,0.1c-0.1,0-0.1,0-0.1,0
		c0,0,0,0.1-0.1,0.1c0,0-0.1,0-0.1,0s-0.1,0-0.2,0c0,0-0.1,0-0.1,0c-0.1,0-0.1,0-0.1,0c-0.1,0-0.2-0.1-0.3-0.2h-0.1
		c-0.1-0.1-0.2-0.1-0.4-0.1c0,0-0.1,0-0.1,0s-0.1,0-0.1,0c0,0,0,0-0.1,0c0,0-0.1,0.1-0.1,0.1c0,0-0.1,0-0.2,0c0,0-0.1,0.1-0.2,0.2
		c0,0-0.1,0-0.1,0c0,0,0,0,0,0s0,0-0.1,0.1c0,0-0.1,0-0.1,0c0,0,0,0-0.1,0c0,0.1,0,0.1,0,0.1c-0.2,0-0.3,0-0.3,0.2
		c-0.1,0-0.1,0-0.2,0c-0.2,0.2-0.4,0.3-0.5,0.4h-0.1c0,0-0.1,0.1-0.3,0.2c-0.1,0.1-0.3,0.2-0.3,0.3c0,0.1,0,0.1,0,0.2
		s-0.1,0.1-0.1,0.1c0,0-0.1,0-0.2,0.1c-0.1,0.1-0.2,0.2-0.4,0.4c-0.2,0.2-0.3,0.4-0.5,0.5l0,0.1C35.5,45,35.5,45,35.4,45
		c0,0.1,0,0.1,0,0.1c-0.1,0.1-0.2,0.2-0.3,0.3c-0.1,0.1-0.2,0.2-0.2,0.3v0.1c0,0-0.1,0-0.1,0c0,0-0.1,0-0.1,0c0,0.1,0,0.2-0.1,0.3
		c-0.1,0.1-0.2,0.2-0.2,0.2c0,0,0,0.1,0,0.1c0,0,0,0.1,0,0.1c0,0,0,0.1-0.1,0.1c-0.1,0.1-0.1,0.2-0.1,0.2c0,0.1-0.1,0.2-0.2,0.4
		c-0.1,0.1-0.1,0.1-0.1,0.1c0,0,0,0.1,0,0.1c0,0,0,0,0,0.1c0,0.1-0.1,0.2-0.1,0.3c-0.1,0.2-0.1,0.3-0.1,0.3
		c-0.1,0.2-0.2,0.3-0.2,0.3c0,0,0,0.1,0,0.1c0,0,0,0.1,0,0.1c0,0,0,0,0,0.1c0,0,0,0.1,0,0.1c0,0,0,0.1,0,0.2s0,0.2-0.1,0.2
		c0,0.1-0.1,0.1-0.1,0.2c0,0.1,0,0.2,0,0.2c-0.1,0.1-0.1,0.2-0.1,0.2c0,0,0,0.1,0,0.1c0,0,0,0.1,0,0.1c0,0.1,0,0.1,0,0.1
		c0,0,0,0.1,0,0.1c0,0,0,0.1,0,0.1c0,0,0,0,0,0.1c0,0,0,0.1,0,0.1c0,0,0,0,0,0.1s0,0.1,0,0.1c0,0,0,0.1,0,0.1c0,0.1,0,0.1,0,0.1
		c0,0,0,0,0,0c0,0,0,0,0,0c0,0.1-0.1,0.3-0.1,0.5c0,0.2,0,0.4-0.1,0.6c0,0.1,0,0.1,0,0.3c0,0.1,0,0.2,0.1,0.2c0,0,0,0.1,0,0.1
		c0,0.1,0,0.1,0,0.1c0,0.1,0.1,0.1,0.1,0.1c0,0.1,0,0.1,0,0.1c0,0,0,0,0,0.1c0,0,0,0.1,0,0.1c0,0,0,0.1,0,0.1s0,0.1,0,0.1
		c0,0,0,0.1,0,0.1c0,0,0,0.1,0,0.1c0,0,0,0,0,0.1s0,0.1,0,0.1c0,0,0,0.1,0.1,0.2c0.1,0.2,0.2,0.4,0.1,0.5c0,0,0.1,0.1,0.1,0.1
		c0,0,0,0.1,0,0.1v0.1c0,0,0.1,0.1,0.1,0.1c0,0,0.1,0.1,0.1,0.1c0.1,0.2,0.2,0.2,0.2,0.3c0,0,0,0,0.1,0c0.1,0.2,0.2,0.3,0.3,0.4
		c0,0,0.1,0.2,0.2,0.4l0.1,0c0,0,0.1,0.1,0.1,0.1c0.1,0.2,0.1,0.2,0.1,0.2c0,0,0.1,0,0.2-0.1c0.1,0,0.1,0,0.2,0c0,0,0,0.1,0,0.2
		c0.2,0.1,0.3,0.1,0.4,0.1c0,0.1,0.1,0.1,0.2,0.1c0.1,0,0.2,0.1,0.2,0.1c0,0,0.1,0,0.2,0c0.1,0,0.2,0,0.2,0c0,0,0,0,0,0.1
		c0,0,0,0.1,0.1,0.1c0.2,0,0.4,0,0.4-0.1c0,0,0.1,0,0.2,0s0.1,0,0.2,0c0,0.1,0,0.2,0.2,0.2c0.2,0.1,0.4,0,0.5-0.1c0,0,0-0.1,0-0.1
		c0,0,0,0,0-0.1c0,0,0.1,0,0.2,0.1c0.2,0,0.4,0,0.5-0.1c0.3,0.1,0.5,0,0.7-0.1c0.1,0,0.2-0.1,0.3-0.2c0.2,0,0.4,0,0.6,0
		c0,0,0-0.1,0-0.1c0,0,0.1,0,0.1,0c0,0,0.1,0,0.2,0c0.2,0,0.2,0,0.3-0.1c0.1,0,0.1,0,0.2-0.1c0.1,0,0.1-0.1,0.1-0.1c0,0,0.1,0,0.1,0
		c0,0,0.1,0,0.2-0.1c0.1-0.1,0.2-0.1,0.2-0.1c0.1-0.1,0.3-0.2,0.5-0.3c0.2-0.1,0.4-0.3,0.5-0.3c0.1,0,0.1,0,0.2,0c0,0,0,0,0-0.1
		c0,0,0-0.1,0-0.1c0.2,0,0.3-0.1,0.3-0.3c0,0,0.1,0,0.2,0c0,0,0.1,0,0.1,0c0,0,0.1-0.1,0.1-0.1c0.1,0,0.2-0.1,0.3-0.2
		c0.1-0.1,0.2-0.2,0.3-0.3c0.1-0.1,0.1-0.1,0.2-0.1c0.1-0.1,0.1-0.2,0.2-0.2h0.1c0.1,0,0.1-0.1,0-0.3c-0.1-0.2-0.1-0.3-0.1-0.3
		c0.1-0.1,0.1-0.1,0.1-0.1c-0.1,0-0.4-0.1-0.9-0.1c-0.3,0-0.5,0-0.6,0c0,0-0.1,0-0.4,0c0,0-0.1,0-0.1,0c0,0-0.1,0-0.1,0
		c-0.1,0-0.2,0-0.5,0c-0.2,0-0.4,0-0.5,0c0,0,0,0.1-0.1,0.1c0,0-0.1,0-0.1,0c-0.1,0-0.1,0-0.1,0c-0.2-0.1-0.6-0.2-1.2-0.1
		c0,0-0.1,0-0.1,0s-0.1,0-0.1-0.1c0,0-0.1-0.1-0.1-0.1c-0.1,0-0.1,0-0.2,0c-0.1,0-0.1,0-0.1,0c0,0-0.1-0.1-0.2-0.1
		C39,53,39,53,39,53c-0.1,0-0.2-0.1-0.3-0.2c-0.1-0.1-0.1-0.2-0.2-0.2h-0.2c-0.3-0.3-0.6-0.6-0.6-0.7c0,0,0-0.1-0.1-0.2
		c0-0.2,0.1-0.3,0.2-0.5c0.1,0,0.2,0,0.2-0.1c0-0.2,0.2-0.5,0.5-0.7c0.2,0,0.3-0.1,0.4-0.2c0.1,0,0.2,0,0.3,0c0.2,0,0.3,0,0.3,0
		c0,0,0.1,0,0.1,0c0,0,0.1,0,0.1,0s0.1,0,0.1,0c0.1,0.1,0.2,0.1,0.3,0.1c0.5,0.1,0.8,0.1,0.9,0c0,0,0.1,0,0.1,0c0,0,0.1,0,0.1,0
		s0.1,0,0.1,0c0,0.1,0.1,0.2,0.2,0.2c0.1,0,0.2-0.1,0.2-0.2c0,0,0.1,0,0.1,0c0,0,0.1,0,0.1,0c0,0,0,0,0,0.1s0,0.1,0,0.1
		c0.1,0,0.2,0,0.4,0c0.2,0,0.4,0,0.5,0c0.5,0,0.8,0,0.9-0.1c0.1,0,0.3,0,0.6,0c0.3,0,0.5,0,0.6,0c0.1,0,0.1-0.1,0.2-0.1
		c0.1,0,0.2-0.1,0.2-0.1s0,0,0,0c0,0,0,0,0,0c0.1,0,0.2,0,0.3,0c0.1,0,0.2,0,0.3,0c0.1,0,0.1-0.1,0.2-0.2c0.1-0.1,0.1-0.1,0.1-0.2
		c0.1,0,0.1,0,0.2,0.1c0.1,0,0.1,0.1,0.1,0.1c0,0,0.1,0,0.1-0.1c0.1,0,0.1,0,0.2,0c0.1,0,0.1,0,0.2,0c0.1,0,0.1-0.1,0.2-0.1
		c0.1,0,0.1-0.1,0.2-0.1l0.2,0.1c0.1,0,0.3,0,0.4,0.1s0.3,0.1,0.3,0.1c0,0,0-0.1,0-0.1c0.1,0,0.1,0,0.1,0c0,0,0,0.1,0,0.1
		c0,0,0.1,0,0.1,0.1c0.1,0.1,0.1,0.2,0.1,0.2c0.1,0,0.2,0.2,0.5,0.5c-0.1,0.1-0.1,0.1-0.1,0.2c0,0,0.1,0,0.1,0
		c0.1,0.1,0.1,0.2,0.1,0.6c0,0,0,0.1,0.1,0.1c0,0.1,0,0.1,0,0.2c0,0.1-0.1,0.1-0.1,0.1c0,0,0,0.1,0,0.1c0,0.1,0,0.1,0,0.1l0,0.1
		c0,0,0,0.1,0,0.2c0,0.3,0,0.6,0,0.6c0,0,0.1,0,0.1,0c0,0,0,0.1,0,0.2c0,0.1,0,0.1,0,0.2c0,0.1-0.1,0.1-0.1,0c0,0.1,0,0.2,0,0.3
		c0,0.1,0,0.2,0,0.3c0,0,0,0.1-0.1,0.2c0,0.1,0,0.2,0,0.5c0,0.3,0,0.5,0.1,0.5c-0.1,0.1-0.1,0.1-0.1,0.1c0,0.1,0,0.2,0,0.4
		c0,0.2,0,0.4,0,0.5c0,0.2,0,0.4,0.1,0.4c-0.1,0.1-0.1,0.3-0.1,0.5s0,0.4,0,0.6c0,0.4,0,0.7,0,0.7c0,0.1-0.1,0.2-0.2,0.3l0.1,0.2
		c0,0.2,0,0.3,0,0.4c0,0.1,0,0.3,0,0.4c0,0.2,0,0.3,0.1,0.3h0.1c0,0.5,0,0.7-0.1,0.7c0,0.1,0,0.3,0,0.4c0,0.1-0.1,0.2-0.1,0.3
		c-0.1,0-0.2,0.1-0.3,0.3c0,0,0,0.1-0.1,0.1c-0.1,0.1-0.2,0.1-0.2,0.2c-0.1,0-0.2,0-0.3,0.1c-0.1,0.1-0.2,0.1-0.3,0
		c0,0-0.1,0.1-0.1,0.1s-0.1,0.1-0.1,0.1c0,0-0.1,0-0.1-0.1c0,0,0-0.1,0-0.1c-0.1,0-0.2,0-0.4-0.1c-0.2-0.1-0.3-0.2-0.4-0.2
		c-0.1-0.2-0.1-0.2-0.1-0.2c-0.1,0-0.1,0-0.1,0c0,0,0-0.1,0-0.2c0-0.1-0.1-0.1-0.2-0.1c-0.1,0-0.2-0.1-0.2-0.1c0,0-0.1-0.1-0.1-0.1
		c0-0.1,0-0.1-0.1-0.1c0-0.2-0.1-0.4-0.1-0.4c0,0-0.1,0-0.1,0v-0.5c0,0,0,0,0.1,0c0-0.2,0-0.6,0-1.3c0-0.4-0.1-0.7-0.1-0.7
		c-0.1,0-0.1,0-0.1,0c0,0,0-0.2,0-0.4c0-0.3,0-0.4,0-0.5c0.1,0,0.1,0,0.1-0.1c0-0.1,0-0.2-0.1-0.2c0,0-0.1,0.1-0.2,0.2
		c-0.1,0.1-0.2,0.2-0.2,0.2c0,0,0,0.1,0,0.1c0,0-0.1,0-0.1,0c0,0,0,0-0.1,0c-0.1,0-0.2,0.1-0.2,0.1c-0.1,0-0.1,0-0.2,0.1
		c0,0,0,0,0,0.1c0,0-0.1,0-0.1,0c-0.2,0.1-0.3,0.2-0.3,0.2c0,0,0,0-0.1,0s-0.1,0-0.1,0c0,0-0.1,0.1-0.2,0.2
		c-0.1,0.1-0.2,0.1-0.2,0.2c-0.1,0-0.2,0.1-0.2,0.1c0,0.1,0,0.1,0,0.1c0,0-0.1,0-0.2-0.1c-0.2,0-0.3,0.1-0.4,0.3
		c-0.2,0.1-0.4,0.2-0.7,0.4c0,0.1,0,0.1,0,0.1c0,0-0.1,0-0.1,0c0,0-0.1,0-0.2,0c0,0,0,0.1-0.1,0.1c0,0-0.1,0-0.1,0c0,0,0,0-0.1,0
		c0,0-0.1,0-0.1,0c0,0-0.1,0.1-0.1,0.1c0,0-0.1,0-0.1,0c-0.1,0-0.1,0-0.1,0c-0.2,0.1-0.4,0.2-0.4,0.2c-0.2,0.2-0.3,0.2-0.3,0.3
		c-0.3,0-0.5,0-0.5,0c0,0.1,0,0.1,0,0.1c-0.3-0.1-0.5-0.1-0.6,0c0,0.1,0,0.1,0,0.1c0,0-0.1,0-0.1,0c0,0-0.1,0-0.1,0
		c-0.1,0-0.1,0.1-0.1,0.2c-0.1,0.1-0.1,0-0.2,0c-0.1-0.1-0.2-0.1-0.2-0.1c0,0-0.1,0-0.1,0c0,0-0.1,0-0.1,0c0,0,0,0.1,0.1,0.1
		c-0.3,0.1-0.5,0.1-0.6,0c-0.1-0.1-0.1-0.1-0.1-0.1c-0.1,0-0.2,0-0.4,0c-0.2,0-0.4,0-0.5,0c0,0-0.1,0-0.1,0c0,0,0,0-0.1,0
		s-0.1,0-0.1,0c0,0,0,0-0.1,0c0,0-0.1,0-0.1,0l0,0h-0.4c0,0,0-0.1,0-0.1c0,0,0,0,0-0.1c-0.1-0.1-0.2-0.1-0.3,0c-0.1,0-0.2,0-0.2,0
		L35.9,60c0,0-0.1,0-0.1,0c-0.1,0-0.1,0-0.1,0c0,0,0,0,0,0c0,0,0-0.1,0-0.1c0,0-0.1,0-0.2,0c-0.1,0-0.1,0-0.2,0
		c-0.1-0.2-0.2-0.2-0.4-0.2c0,0-0.1,0-0.1,0c0,0,0,0-0.1,0c-0.1,0-0.3-0.1-0.6-0.3c0,0-0.1,0-0.3-0.1c0,0-0.1,0-0.1,0
		c0,0-0.1,0-0.1,0v-0.1c-0.1,0-0.2-0.1-0.5-0.3s-0.4-0.4-0.5-0.5c-0.2-0.2-0.3-0.3-0.3-0.3c-0.3-0.1-0.6-0.4-0.7-0.7
		c-0.1-0.2-0.3-0.3-0.5-0.3c0-0.1-0.1-0.2-0.2-0.4c0-0.1,0-0.2-0.1-0.3c-0.1-0.1-0.1-0.1-0.1-0.2c-0.2-0.2-0.3-0.3-0.3-0.3
		c0,0,0-0.1,0-0.1s0-0.1,0-0.1c0,0-0.1-0.1-0.2-0.3c-0.1-0.2-0.1-0.3-0.1-0.4c0,0,0-0.1,0-0.1c0,0-0.1-0.1-0.1-0.1
		c0-0.1,0-0.2-0.1-0.4c0,0,0-0.1,0-0.1c0,0,0-0.1,0-0.1c-0.1-0.2-0.1-0.2,0-0.3c0-0.1-0.1-0.2-0.2-0.3c0,0,0-0.1,0-0.1
		c0,0,0-0.1,0-0.1c0,0,0-0.1-0.1-0.2c-0.1-0.1-0.1-0.2-0.1-0.2c0-0.2,0-0.3,0-0.3c-0.1,0-0.1,0-0.1,0c-0.1-0.2,0-0.2,0-0.2
		c0-0.1,0-0.2,0-0.3c0-0.2,0-0.3-0.1-0.4v-0.4c0,0,0.1,0,0.1,0s0.1,0,0.1,0c0-0.1,0-0.2-0.1-0.3c0.1,0,0.1-0.2,0-0.4
		c0,0,0-0.1,0-0.1c0-0.1,0-0.1,0-0.1c0,0,0,0,0-0.1s0-0.1,0-0.1c0,0,0-0.1,0-0.1c0,0,0,0,0-0.1c0,0,0-0.1,0-0.1s0-0.1,0-0.1
		c0,0,0.1-0.1,0.2-0.1c0-0.2,0-0.4,0-0.4c0.1-0.1,0.1-0.2,0.1-0.3c0,0,0-0.1,0-0.1c0,0,0-0.1,0-0.1c0,0,0-0.1,0-0.1c0,0,0-0.1,0-0.1
		c0-0.1,0-0.1,0-0.2c0-0.1,0-0.2,0-0.2c0,0,0-0.1,0-0.1c0.1-0.2,0.2-0.3,0.3-0.4c0-0.1,0-0.2,0.1-0.3c0-0.1,0-0.1,0-0.1
		c0-0.1,0-0.1,0-0.1c0,0,0.1-0.1,0.1-0.1c0-0.1,0.1-0.1,0.1-0.1c0,0,0-0.1,0-0.1c0-0.1,0-0.1,0.1-0.2c0-0.1,0.1-0.2,0.1-0.2
		c0,0,0.1-0.1,0.1-0.1c0,0,0.1,0,0.1-0.1c0,0,0-0.1,0-0.1c0,0,0-0.1,0-0.1c0-0.1,0-0.1,0.1-0.2c0.1-0.1,0.1-0.1,0.2-0.2
		c0,0,0-0.1,0-0.1c0-0.1,0-0.1,0-0.1c0-0.1,0-0.1,0.1-0.2c0.1,0,0.1-0.1,0.1-0.1c-0.1-0.2,0-0.3,0.2-0.4c0.1,0,0.1-0.1,0.1-0.1
		c0-0.1,0.1-0.2,0.2-0.4c0.1-0.2,0.2-0.3,0.2-0.3c0.1-0.1,0.2-0.1,0.2-0.2c0,0,0.1-0.1,0.1-0.1c0,0,0.1-0.1,0.1-0.1
		c0-0.1,0-0.1,0-0.1c0-0.1,0.1-0.1,0.2-0.2c0.1-0.1,0.2-0.2,0.3-0.3c0.1-0.1,0.1-0.2,0.2-0.3c0,0,0.1-0.1,0.2-0.1
		C33.9,42.1,34,42,34,42c0.1-0.1,0.2-0.2,0.2-0.3c0-0.2,0.1-0.3,0.2-0.3c0.1,0,0.1,0,0.1,0c0.2-0.1,0.3-0.2,0.4-0.2c0,0,0-0.1,0-0.1
		c0,0,0-0.1,0-0.1c0,0,0.1-0.1,0.2-0.1c0.1,0,0.2-0.1,0.2-0.2c0,0,0-0.1,0-0.1c0,0,0,0,0-0.1c0,0,0.1,0,0.1,0s0.1,0,0.2,0
		c0-0.2,0-0.3,0.1-0.4s0.2-0.1,0.3,0c0.1-0.1,0.1-0.2,0-0.2c0,0,0.1-0.1,0.1-0.1c0,0,0.1-0.1,0.1-0.1c0.1,0,0.2,0,0.3-0.1
		c0.1-0.1,0.2-0.1,0.3-0.1c-0.1-0.1-0.1-0.2,0-0.2c0,0,0.1,0,0.1,0.1c0,0,0.1-0.1,0.1-0.2c0.1,0,0.2,0,0.2,0c0-0.1,0-0.1,0-0.2
		c0.1,0,0.1,0,0.2,0s0.2,0,0.2,0c0,0,0-0.1,0-0.1c0,0,0-0.1,0-0.1c0,0,0.1,0,0.1,0c0,0,0.1,0,0.2,0c0,0,0.1,0,0.1-0.1
		s0.1-0.1,0.1-0.1c0.1-0.1,0.2-0.1,0.4-0.1c0.1,0,0.2,0,0.3,0c0,0,0.1,0.1,0.1,0.1c0,0,0.1,0,0.1,0c0.1,0,0.1,0,0.2,0
		c0,0,0.1-0.1,0.1-0.1c0.3-0.1,0.4,0,0.5,0.1c0.1,0,0.2,0.1,0.3,0.2c0.1,0,0.2,0,0.4,0.2c0,0,0.1,0.1,0.1,0.1c0,0,0.1,0,0.1,0.1
		c0,0,0.1,0,0.1,0.1c0,0.1,0.1,0.1,0.1,0.1H41.1z"/>
	<path fill="#D93427" d="M57.9,40.2c0.1,0,0.2,0,0.3,0c0.1,0,0.3,0,0.4,0c0,0,0.1,0,0.2,0.1c0,0,0.1,0,0.2,0c0.1,0,0.2,0,0.2,0
		c0,0,0.1,0,0.1,0c0,0,0.1,0,0.1,0c0,0,0,0,0.1,0c0,0,0.1,0,0.1,0c0.1,0.2,0.2,0.3,0.3,0.2l0.3,0.2c0,0.1,0,0.1,0.1,0.2
		c0.1,0.1,0.1,0.1,0.1,0.1c0.1,0,0.1,0,0.2,0.1c0.1,0.1,0.1,0.1,0.2,0.1c0,0,0.1,0,0.1,0c0,0,0.1,0,0.1,0c0.2-0.1,0.3-0.1,0.4-0.1
		c0,0,0.1,0,0.3,0c0,0,0.1,0,0.2,0c0.1,0,0.2,0,0.2,0c0,0,0.1,0,0.1,0.1s0.1,0.1,0.1,0.1c0,0,0.1,0,0.2,0s0.2,0,0.2,0
		c0,0,0.1,0.1,0.2,0.2c0.1,0.1,0.2,0.1,0.3,0.1c0,0,0,0.1,0.1,0.1c0.1,0,0.2,0,0.3,0.1s0.2,0.1,0.2,0.1c0,0,0.1,0,0.1,0
		c0.3,0.2,0.6,0.3,0.8,0.4h0.2c0,0.1-0.1,0.1-0.2,0l0,0.1c0,0.1,0.2,0.2,0.4,0.3c0.2,0.1,0.3,0.3,0.4,0.4c0,0.1,0.1,0.1,0.2,0.2
		c0.2,0.2,0.3,0.4,0.4,0.5c0.2,0.1,0.2,0.2,0.2,0.4c0,0.1,0.1,0.2,0.2,0.3c0.1,0.1,0.2,0.2,0.2,0.3c0.1,0.2,0.2,0.4,0.2,0.4
		c0,0,0,0.1,0.1,0.1c0.1,0.2,0.1,0.3,0.1,0.4l0.1,0.1c0,0.1,0,0.2,0.1,0.3c0.1,0.3,0.1,0.4,0.1,0.5c0,0.2,0.1,0.3,0.1,0.4
		c0,0,0,0.1,0.1,0.3c-0.1,0-0.1,0.1,0,0.2s0.1,0.2,0.1,0.3c0,0,0,0.1,0,0.1c0,0,0,0.1,0,0.1c0,0,0,0,0,0.1c0,0,0,0.1,0,0.1
		c0,0.1,0,0.2,0,0.3c0,0.2,0,0.3,0,0.4c0,0.1,0,0.1,0,0.2c0,0,0,0.1,0,0.2c0,0,0,0.1,0.1,0.2c0,0,0,0.1,0,0.1c0,0,0,0,0,0.1
		c0.1,0.1,0.1,0.5,0.1,1.1c0,0.6,0,1,0,1.2c0,0,0,0.1,0,0.2c0,0.1,0,0.2,0,0.3c0,0,0,0.1-0.1,0.2c-0.1,0.1-0.1,0.2,0,0.3
		c0,0,0,0.1,0,0.2c0,0.1,0,0.2,0,0.2c-0.1,0-0.2,0.1-0.2,0.1c0,0.3,0,0.5,0,0.5c0,0,0,0.1,0,0.1c0,0-0.1,0.1-0.1,0.1
		c0,0,0,0.1,0,0.1c-0.1,0.2-0.1,0.3-0.1,0.3c0,0,0,0.1-0.1,0.1c0,0-0.1,0-0.1,0s0,0,0,0.1c0,0-0.1,0.1-0.1,0.1
		c0,0.1-0.1,0.1-0.1,0.2l-0.3,0.3c0,0.1-0.1,0.3-0.2,0.5c-0.1,0.2-0.2,0.3-0.2,0.5C66,56.4,66,56.6,66,56.8c0,0-0.1,0-0.2,0.1
		c0,0.1,0,0.1-0.1,0.2c-0.1,0.1-0.1,0.2-0.1,0.3c-0.1,0-0.2,0.1-0.2,0.2c-0.1,0.1-0.1,0.2-0.2,0.2c0,0-0.1,0.1-0.2,0.2
		c-0.1,0.1-0.1,0.2-0.2,0.2c0,0.1,0,0.1-0.1,0.2c-0.2,0.1-0.4,0.2-0.6,0.4c-0.1,0.1-0.2,0.2-0.2,0.2c-0.1,0.1-0.2,0.2-0.3,0.3
		c-0.2,0.1-0.3,0.2-0.3,0.3c0,0-0.1,0-0.1,0s0,0-0.1,0c0,0-0.1,0.1-0.2,0.1c-0.1,0.1-0.1,0.1-0.2,0.1c-0.1,0-0.2,0-0.3,0.1
		c-0.1,0-0.2,0-0.3,0.1c-0.1,0-0.1,0-0.2,0s-0.1,0-0.2,0c0,0-0.1,0.1-0.2,0.2c-0.2,0-0.3,0-0.4,0c0,0.1-0.1,0.1-0.3,0.1
		c-0.2,0-0.2,0.1-0.3,0.2c-0.1,0-0.4,0-0.7,0s-0.6,0-0.8,0c-0.1,0-0.2,0-0.3,0c-0.2,0-0.3,0-0.4,0c0,0-0.1-0.1-0.1-0.2
		c-0.1,0-0.2,0-0.2,0.1c0,0.1-0.1,0.1-0.1,0.1c0,0,0,0,0-0.1l0,0c0,0-0.1,0-0.1-0.1c-0.1,0-0.1-0.1-0.1-0.1c-0.2,0.1-0.4,0-0.6-0.1
		c-0.2-0.1-0.3-0.2-0.5-0.1c0,0,0-0.1,0-0.1c0,0-0.1,0-0.3-0.1c-0.1-0.1-0.3-0.1-0.4-0.1v-0.1c0,0-0.1-0.1-0.1-0.2
		c-0.1-0.1-0.1-0.1-0.1-0.2c-0.1,0-0.1-0.1-0.1-0.1c0,0,0,0-0.1-0.1c0,0-0.1-0.1-0.1-0.1c0,0,0,0-0.1,0c0,0-0.1,0-0.1,0s0,0,0,0
		c0,0,0,0,0,0c0,0-0.1,0-0.2-0.1c0,0-0.1,0-0.1-0.1c-0.1-0.1-0.1-0.1-0.1-0.2c-0.1,0-0.1,0-0.1,0c-0.1-0.1-0.1-0.2-0.3-0.3
		C54.2,58.2,54.1,58,54,58h-0.1c-0.3-0.3-0.5-0.6-0.5-0.7c0,0-0.1-0.2-0.3-0.4v-0.1c0,0-0.1-0.1-0.1-0.2c-0.1-0.1-0.1-0.1-0.1-0.2
		c0-0.3-0.1-0.6-0.3-0.8c0-0.1,0-0.2-0.1-0.3c0-0.1,0-0.1,0-0.1c0,0,0,0,0-0.1c0,0,0-0.1,0-0.1c0,0,0-0.1,0-0.1s-0.1-0.1-0.1-0.1
		c0,0,0-0.2,0-0.5c0,0,0-0.1,0-0.1s0-0.1,0-0.1c0,0-0.1,0-0.1-0.1c0,0,0-0.1,0-0.1c0-0.1,0-0.2,0-0.3c0-0.2,0-0.3,0-0.4
		c0,0-0.1,0-0.1-0.1c0,0,0-0.1,0-0.2c0,0,0-0.1,0-0.1c0,0,0-0.1-0.1-0.1c0-0.1,0-0.1,0-0.1c-0.1-0.1-0.1-0.2-0.1-0.2
		c0,0,0-0.1,0-0.1c0,0,0-0.1,0-0.1c0.1-0.2,0-0.3-0.1-0.4c0,0,0-0.1,0-0.2v-0.1l0.2-0.2c0-0.1,0-0.3,0-0.6c0-0.4,0-0.6,0-0.7
		c0-0.1,0-0.1,0-0.2c0-0.1,0-0.1,0-0.2c0-0.1,0-0.2,0-0.4c0-0.2,0-0.3,0-0.4c0-0.1,0.1-0.2,0.2-0.3c0,0,0-0.1,0-0.1s0-0.1,0-0.1
		s0-0.1,0-0.1c0,0,0.1-0.1,0.1-0.1c0,0,0-0.2,0-0.4c0-0.2,0-0.4,0-0.5c0-0.3,0-0.5,0-0.6c0,0,0.1,0,0.2-0.1c0.1-0.1,0.1-0.1,0.2-0.1
		c0-0.1,0-0.1,0-0.1c0,0,0-0.1,0-0.1c0,0,0.1-0.1,0.1-0.1c0,0,0-0.1,0-0.2c0-0.1,0-0.1,0-0.2c0.1-0.1,0.1-0.1,0.1-0.1
		c0-0.1,0-0.2,0-0.4c0-0.2,0-0.3,0.1-0.3c0,0,0.1,0,0.1,0c0,0,0.1,0,0.1,0c0-0.1,0-0.1-0.1-0.1c0,0-0.1,0-0.1-0.1l0.1-0.2
		c0,0,0.1-0.1,0.1-0.2c0.1-0.1,0.1-0.2,0.1-0.2c0,0,0-0.1,0-0.1c0,0,0,0,0-0.1c0.1-0.1,0.1-0.2,0.1-0.3c0.1,0,0.1-0.1,0.2-0.2
		c0-0.1,0.1-0.2,0.1-0.2c0-0.1,0-0.2,0.1-0.3c0.1-0.1,0.2-0.2,0.2-0.2c0,0,0-0.1,0-0.1s0-0.1,0-0.1c0-0.1,0.1-0.1,0.2-0.2
		c0.1-0.1,0.2-0.2,0.2-0.3c0.1,0,0.2-0.1,0.3-0.3c0.1,0,0.2-0.1,0.2-0.3c0-0.1,0-0.2,0-0.2c0.1,0.1,0.2,0,0.3-0.1
		c0.1,0,0.1-0.1,0.1-0.1h0.1c0.1,0,0.1-0.1,0.2-0.1c0.1-0.1,0.1-0.1,0.2-0.1c0.2,0,0.3-0.1,0.6-0.3c0.1,0,0.2,0,0.3-0.1
		c0.1-0.1,0.2-0.1,0.2-0.2c0,0,0,0,0,0c0,0,0,0,0-0.1c0.1,0.1,0.2,0,0.4-0.1c0.1,0,0.2,0,0.3,0C57.8,40.1,57.9,40.1,57.9,40.2z
		 M58.6,40.1c0,0,0.1,0,0.2,0.1c0,0,0.1,0,0.2,0c0.1,0,0.2,0,0.2,0c0,0,0.1,0,0.1,0c0,0,0.1,0,0.1,0c0,0,0,0,0.1,0c0,0,0.1,0,0.1,0
		c0.1,0.2,0.2,0.3,0.3,0.2l0.3,0.2c0,0.1,0,0.1,0.1,0.2c0.1,0.1,0.1,0.1,0.1,0.1c0.1,0,0.1,0,0.2,0.1c0.1,0.1,0.1,0.1,0.2,0.1
		c0,0,0.1,0,0.1,0c0,0,0.1,0,0.1,0c0.2-0.1,0.3-0.1,0.4-0.1c0,0,0.1,0,0.3,0c0,0,0.1,0,0.2,0c0.1,0,0.2,0,0.2,0c0,0,0.1,0,0.1,0.1
		s0.1,0.1,0.1,0.1c0,0,0.1,0,0.2,0s0.2,0,0.2,0c0,0,0.1,0.1,0.2,0.2c0.1,0.1,0.2,0.1,0.3,0.1c0,0,0,0.1,0.1,0.1c0.1,0,0.2,0,0.3,0.1
		s0.2,0.1,0.2,0.1c0,0,0.1,0,0.1,0c0.3,0.2,0.6,0.3,0.8,0.4h0.2c0,0.1-0.1,0.1-0.2,0l0,0.1c0,0.1,0.2,0.2,0.4,0.3
		c0.2,0.1,0.3,0.3,0.4,0.4c0,0.1,0.1,0.1,0.2,0.2c0.2,0.2,0.3,0.4,0.4,0.5c0.2,0.1,0.2,0.2,0.2,0.4c0,0.1,0.1,0.2,0.2,0.3
		c0.1,0.1,0.2,0.2,0.2,0.3c0.1,0.2,0.2,0.4,0.2,0.4c0,0,0,0.1,0.1,0.1c0.1,0.2,0.1,0.3,0.1,0.4l0.1,0.1c0,0.1,0,0.2,0.1,0.3
		c0.1,0.3,0.1,0.4,0.1,0.5c0,0.2,0.1,0.3,0.1,0.4c0,0,0,0.1,0.1,0.3c-0.1,0-0.1,0.1,0,0.2s0.1,0.2,0.1,0.3c0,0,0,0.1,0,0.1
		c0,0,0,0.1,0,0.1c0,0,0,0,0,0.1c0,0,0,0.1,0,0.1c0,0.1,0,0.2,0,0.3c0,0.2,0,0.3,0,0.4c0,0.1,0,0.1,0,0.2c0,0,0,0.1,0,0.2
		c0,0,0,0.1,0.1,0.2c0,0,0,0.1,0,0.1c0,0,0,0,0,0.1c0.1,0.1,0.1,0.5,0.1,1.1c0,0.6,0,1,0,1.2c0,0,0,0.1,0,0.2c0,0.1,0,0.2,0,0.3
		c0,0,0,0.1-0.1,0.2c-0.1,0.1-0.1,0.2,0,0.3c0,0,0,0.1,0,0.2c0,0.1,0,0.2,0,0.2c-0.1,0-0.2,0.1-0.2,0.1c0,0.3,0,0.5,0,0.5
		c0,0,0,0.1,0,0.1c0,0-0.1,0.1-0.1,0.1c0,0,0,0.1,0,0.1c-0.1,0.2-0.1,0.3-0.1,0.3c0,0,0,0.1-0.1,0.1c0,0-0.1,0-0.1,0s0,0,0,0.1
		c0,0-0.1,0.1-0.1,0.1c0,0.1-0.1,0.1-0.1,0.2l-0.3,0.3c0,0.1-0.1,0.3-0.2,0.5c-0.1,0.2-0.2,0.3-0.2,0.5C66,56.4,66,56.6,66,56.8
		c0,0-0.1,0-0.2,0.1c0,0.1,0,0.1-0.1,0.2c-0.1,0.1-0.1,0.2-0.1,0.3c-0.1,0-0.2,0.1-0.2,0.2c-0.1,0.1-0.1,0.2-0.2,0.2
		c0,0-0.1,0.1-0.2,0.2c-0.1,0.1-0.1,0.2-0.2,0.2c0,0.1,0,0.1-0.1,0.2c-0.2,0.1-0.4,0.2-0.6,0.4c-0.1,0.1-0.2,0.2-0.2,0.2
		c-0.1,0.1-0.2,0.2-0.3,0.3c-0.2,0.1-0.3,0.2-0.3,0.3c0,0-0.1,0-0.1,0s0,0-0.1,0c0,0-0.1,0.1-0.2,0.1c-0.1,0.1-0.1,0.1-0.2,0.1
		c-0.1,0-0.2,0-0.3,0.1c-0.1,0-0.2,0-0.3,0.1c-0.1,0-0.1,0-0.2,0s-0.1,0-0.2,0c0,0-0.1,0.1-0.2,0.2c-0.2,0-0.3,0-0.4,0
		c0,0.1-0.1,0.1-0.3,0.1c-0.2,0-0.2,0.1-0.3,0.2c-0.1,0-0.4,0-0.7,0s-0.6,0-0.8,0c-0.1,0-0.2,0-0.3,0c-0.2,0-0.3,0-0.4,0
		c0,0-0.1-0.1-0.1-0.2c-0.1,0-0.2,0-0.2,0.1c0,0.1-0.1,0.1-0.1,0.1c0,0,0,0,0-0.1l0,0c0,0-0.1,0-0.1-0.1c-0.1,0-0.1-0.1-0.1-0.1
		c-0.2,0.1-0.4,0-0.6-0.1c-0.2-0.1-0.3-0.2-0.5-0.1c0,0,0-0.1,0-0.1c0,0-0.1,0-0.3-0.1c-0.1-0.1-0.3-0.1-0.4-0.1v-0.1
		c0,0-0.1-0.1-0.1-0.2c-0.1-0.1-0.1-0.1-0.1-0.2c-0.1,0-0.1-0.1-0.1-0.1c0,0,0,0-0.1-0.1c0,0-0.1-0.1-0.1-0.1c0,0,0,0-0.1,0
		c0,0-0.1,0-0.1,0s0,0,0,0c0,0,0,0,0,0c0,0-0.1,0-0.2-0.1c0,0-0.1,0-0.1-0.1c-0.1-0.1-0.1-0.1-0.1-0.2c-0.1,0-0.1,0-0.1,0
		c-0.1-0.1-0.1-0.2-0.3-0.3C54.2,58.2,54.1,58,54,58h-0.1c-0.3-0.3-0.5-0.6-0.5-0.7c0,0-0.1-0.2-0.3-0.4v-0.1c0,0-0.1-0.1-0.1-0.2
		c-0.1-0.1-0.1-0.1-0.1-0.2c0-0.3-0.1-0.6-0.3-0.8c0-0.1,0-0.2-0.1-0.3c0-0.1,0-0.1,0-0.1c0,0,0,0,0-0.1c0,0,0-0.1,0-0.1
		c0,0,0-0.1,0-0.1s-0.1-0.1-0.1-0.1c0,0,0-0.2,0-0.5c0,0,0-0.1,0-0.1s0-0.1,0-0.1c0,0-0.1,0-0.1-0.1c0,0,0-0.1,0-0.1
		c0-0.1,0-0.2,0-0.3c0-0.2,0-0.3,0-0.4c0,0-0.1,0-0.1-0.1c0,0,0-0.1,0-0.2c0,0,0-0.1,0-0.1c0,0,0-0.1-0.1-0.1c0-0.1,0-0.1,0-0.1
		c-0.1-0.1-0.1-0.2-0.1-0.2c0,0,0-0.1,0-0.1c0,0,0-0.1,0-0.1c0.1-0.2,0-0.3-0.1-0.4c0,0,0-0.1,0-0.2v-0.1l0.2-0.2c0-0.1,0-0.3,0-0.6
		c0-0.4,0-0.6,0-0.7c0-0.1,0-0.1,0-0.2c0-0.1,0-0.1,0-0.2c0-0.1,0-0.2,0-0.4c0-0.2,0-0.3,0-0.4c0-0.1,0.1-0.2,0.2-0.3
		c0,0,0-0.1,0-0.1s0-0.1,0-0.1s0-0.1,0-0.1c0,0,0.1-0.1,0.1-0.1c0,0,0-0.2,0-0.4c0-0.2,0-0.4,0-0.5c0-0.3,0-0.5,0-0.6
		c0,0,0.1,0,0.2-0.1c0.1-0.1,0.1-0.1,0.2-0.1c0-0.1,0-0.1,0-0.1c0,0,0-0.1,0-0.1c0,0,0.1-0.1,0.1-0.1c0,0,0-0.1,0-0.2
		c0-0.1,0-0.1,0-0.2c0.1-0.1,0.1-0.1,0.1-0.1c0-0.1,0-0.2,0-0.4c0-0.2,0-0.3,0.1-0.3c0,0,0.1,0,0.1,0c0,0,0.1,0,0.1,0
		c0-0.1,0-0.1-0.1-0.1c0,0-0.1,0-0.1-0.1l0.1-0.2c0,0,0.1-0.1,0.1-0.2c0.1-0.1,0.1-0.2,0.1-0.2c0,0,0-0.1,0-0.1c0,0,0,0,0-0.1
		c0.1-0.1,0.1-0.2,0.1-0.3c0.1,0,0.1-0.1,0.2-0.2c0-0.1,0.1-0.2,0.1-0.2c0-0.1,0-0.2,0.1-0.3c0.1-0.1,0.2-0.2,0.2-0.2
		c0,0,0-0.1,0-0.1s0-0.1,0-0.1c0-0.1,0.1-0.1,0.2-0.2c0.1-0.1,0.2-0.2,0.2-0.3c0.1,0,0.2-0.1,0.3-0.3c0.1,0,0.2-0.1,0.2-0.3
		c0-0.1,0-0.2,0-0.2c0.1,0.1,0.2,0,0.3-0.1c0.1,0,0.1-0.1,0.1-0.1h0.1c0.1,0,0.1-0.1,0.2-0.1c0.1-0.1,0.1-0.1,0.2-0.1
		c0.2,0,0.3-0.1,0.6-0.3c0.1,0,0.2,0,0.3-0.1c0.1-0.1,0.2-0.1,0.2-0.2c0,0,0,0,0,0c0,0,0,0,0-0.1c0.1,0.1,0.2,0,0.4-0.1
		c0.1,0,0.2,0,0.3,0c0.1,0,0.2,0,0.3,0c0.1,0,0.2,0,0.3,0C58.4,40.1,58.5,40.1,58.6,40.1z M58.5,43c-0.2,0.1-0.4,0.2-0.6,0.3
		c-0.2,0.1-0.4,0.2-0.5,0.4C57.2,43.9,57,44,57,44.2c0,0-0.1,0.1-0.1,0.2c-0.1,0.1-0.1,0.1-0.1,0.1v0.1c0,0,0,0.1-0.1,0.1
		c0,0-0.1,0.1-0.1,0.1c0,0-0.1,0.2-0.2,0.4c0,0.1,0,0.1-0.1,0.2c-0.1,0.1-0.1,0.1-0.1,0.1c0,0.1,0,0.1,0,0.2c0,0,0,0.1-0.1,0.2
		c0,0,0,0.1,0,0.2c0,0.1,0,0.1,0,0.2c0,0,0,0.1,0,0.1c-0.1,0.1-0.1,0.2,0,0.2c-0.2,0.1-0.2,0.3-0.2,0.5c-0.1,0.1-0.2,0.3-0.1,0.6
		c-0.1,0.1-0.2,0.2-0.1,0.5c-0.2,0.3-0.2,0.5-0.1,0.7c0,0,0,0.1-0.1,0.1c0,0-0.1,0-0.1,0.1c0,0.1,0,0.2,0,0.4
		c-0.1,0.2-0.1,0.3,0,0.4c-0.1,0.1-0.1,0.2-0.1,0.6c0,0,0,0.1,0,0.1c0,0.1,0,0.1,0,0.1c0,0,0,0.1-0.1,0.1c0,0-0.1,0.1-0.1,0.1
		c0.1,0.1,0.1,0.2,0.1,0.3c0,0.1,0,0.3,0,0.4c0,0.2,0,0.3,0,0.4c0,0,0,0.1,0,0.1c0,0,0,0.1,0,0.1l0.1,0.1c0,0.1,0,0.2,0,0.5
		c0,0,0,0.1,0,0.1s0,0.1,0,0.1c0,0,0,0.1,0,0.1c0,0,0,0.1,0,0.1c0,0.2,0,0.3,0,0.4c0,0,0.1,0.1,0.1,0.1c0,0,0,0.1,0,0.1c0,0,0,0,0,0
		c0,0,0,0,0,0.1c0,0.1,0,0.2,0,0.2c0,0.1,0,0.1,0,0.2c0,0.1,0,0.1,0,0.1c0,0,0,0,0,0.1c0,0,0,0.1,0,0.1c0,0,0.1,0,0.1,0.1
		s0,0.1,0,0.1c0,0,0,0.1,0,0.1s0,0.1,0,0.1c0,0,0,0,0,0.1c0,0,0,0.1,0,0.1c0,0,0,0,0,0.1c0,0,0.1,0.1,0.1,0.1c0,0,0.1,0.1,0.1,0.1
		c-0.1,0.1-0.1,0.3,0.1,0.4v0.1c0,0,0,0.1,0.1,0.1c0.1,0,0.1,0.1,0.1,0.2l0.2,0.2c0.1,0.1,0.2,0.3,0.4,0.5c0.2,0.2,0.3,0.3,0.4,0.4
		c0.1,0,0.1,0,0.1,0c0.2,0.3,0.4,0.5,0.7,0.5c0.1,0.1,0.2,0.1,0.2,0.2c0,0,0.1,0,0.2,0c0.1,0,0.2,0,0.2,0c0,0,0.1,0.1,0.1,0.1
		s0.1,0.1,0.1,0.1s0.1,0,0.1,0c0,0,0.1,0,0.1,0s0,0,0.1,0c0,0,0.1,0,0.1,0c0.2,0,0.4,0,0.6,0c0,0,0.1,0,0.2-0.1
		c0.1-0.1,0.1-0.1,0.2-0.1c0.1,0,0.2,0,0.2,0c0,0,0.1,0,0.1-0.1c0,0,0.1-0.1,0.1-0.1c0,0,0.1,0,0.2,0c0.1-0.1,0.2-0.2,0.4-0.1
		c0.1-0.1,0.3-0.2,0.5-0.4c0.2-0.2,0.4-0.3,0.6-0.4c0,0,0-0.1,0.1-0.1c0,0,0.1-0.1,0.1-0.1c0,0,0,0,0-0.1c0-0.1,0.1-0.1,0.2-0.2
		c0.1-0.1,0.1-0.1,0.1-0.1c0,0,0.1-0.1,0.1-0.2c0.1-0.1,0.1-0.2,0.1-0.2c0,0,0-0.1,0.1-0.1s0.1-0.1,0.1-0.1c0.1-0.1,0.2-0.2,0.2-0.2
		c0,0,0-0.1,0-0.1c0,0,0.1-0.2,0.3-0.5c0,0,0-0.1,0.1-0.1c0,0,0.1-0.2,0.1-0.5c0-0.1,0.1-0.2,0.2-0.3c0,0,0-0.1,0-0.1
		c0,0,0-0.1,0-0.1c0,0,0.1-0.1,0.1-0.1c0,0,0-0.1,0-0.1c0-0.1,0-0.1,0-0.1c0.1-0.1,0.2-0.4,0.3-0.9l0-0.3c0,0,0-0.1,0-0.1
		s0-0.1,0-0.1c0.1-0.1,0.1-0.2,0.1-0.2c0,0,0-0.1-0.1-0.1c0,0-0.1-0.1-0.1-0.1c0-0.1,0-0.1,0.1-0.2c0.1-0.1,0.1-0.2,0.1-0.2
		c0-0.1,0-0.2,0-0.3c0-0.1-0.1-0.2,0-0.2c0,0,0-0.1,0-0.1c0,0,0-0.1,0-0.1c0,0-0.1-0.1-0.1-0.1c0,0-0.1-0.1-0.1-0.1
		c0.1-0.1,0.1-0.1,0.1-0.1c0,0,0-0.1,0-0.1s0-0.1,0-0.1c0-0.1,0-0.2,0-0.3c0-0.1,0-0.2,0-0.2c0,0,0-0.1,0-0.1c0,0,0-0.1,0-0.1
		c0,0,0-0.1-0.1-0.1c0-0.1,0-0.1-0.1-0.2c0,0-0.1-0.1-0.1-0.1c0-0.1,0-0.1,0.1-0.2c0-0.1,0.1-0.1,0-0.2c0,0,0-0.1,0-0.1
		c0,0,0-0.1,0-0.1c0-0.1,0-0.1,0-0.1c0-0.1,0-0.1,0-0.1c-0.1,0-0.1-0.2-0.2-0.4c0-0.2-0.1-0.3-0.2-0.4c0,0,0-0.1,0-0.2
		c0-0.1,0-0.2,0-0.2C64,46.5,64,46.4,64,46.3c-0.3-0.6-0.8-1.1-1.3-1.6h-0.2c0-0.1-0.1-0.2-0.3-0.3h-0.1l-0.2-0.1
		c0,0-0.1-0.1-0.1-0.1c-0.1-0.1-0.2-0.1-0.3-0.1c0,0-0.1,0-0.2,0c-0.1,0-0.2,0-0.2,0C61,44,60.9,44,60.8,44c-0.1,0-0.2,0-0.3,0
		c-0.1,0-0.2,0-0.3,0c-0.2-0.2-0.3-0.3-0.4-0.2c-0.1-0.1-0.1-0.2,0-0.3c0,0,0-0.1,0.1-0.1c0,0,0.1-0.1,0.1-0.1c0-0.1,0-0.1-0.1-0.1
		c-0.1,0-0.1,0-0.1,0c0-0.2-0.1-0.2-0.1-0.2c-0.1,0-0.2,0-0.5,0C58.8,43,58.6,43,58.5,43z M59.5,43c-0.1,0-0.2,0-0.5,0
		c-0.2,0-0.4,0-0.6,0c-0.2,0.1-0.4,0.2-0.6,0.3c-0.2,0.1-0.4,0.2-0.5,0.4C57.2,43.9,57,44,57,44.2c0,0-0.1,0.1-0.1,0.2
		c-0.1,0.1-0.1,0.1-0.1,0.1v0.1c0,0,0,0.1-0.1,0.1c0,0-0.1,0.1-0.1,0.1c0,0-0.1,0.2-0.2,0.4c0,0.1,0,0.1-0.1,0.2
		c-0.1,0.1-0.1,0.1-0.1,0.1c0,0.1,0,0.2,0,0.2c0,0,0,0.1-0.1,0.1c0,0,0,0.1,0,0.2c0,0.1,0,0.1,0,0.2c0,0,0,0.1,0,0.1
		c-0.1,0.1-0.1,0.2,0,0.2c-0.2,0.1-0.2,0.3-0.2,0.5c-0.1,0.1-0.2,0.3-0.1,0.6c-0.1,0.1-0.2,0.2-0.1,0.5c-0.2,0.3-0.2,0.5-0.1,0.7
		c0,0,0,0.1-0.1,0.1c0,0-0.1,0-0.1,0.1c0,0.1,0,0.2,0,0.4c-0.1,0.2-0.1,0.3,0,0.4c-0.1,0.1-0.1,0.2-0.1,0.6c0,0,0,0.1,0,0.1
		c0,0.1,0,0.1,0,0.1c0,0,0,0.1-0.1,0.1c0,0-0.1,0.1-0.1,0.1c0.1,0.1,0.1,0.2,0.1,0.3c0,0.1,0,0.3,0,0.4c0,0.2,0,0.3,0,0.4
		c0,0,0,0.1,0,0.1c0,0,0,0.1,0,0.1l0.1,0.1c0,0.1,0,0.2,0,0.5c0,0,0,0.1,0,0.1s0,0.1,0,0.1c0,0,0,0.1,0,0.1c0,0,0,0.1,0,0.1
		c0,0.2,0,0.3,0,0.4c0,0,0.1,0.1,0.1,0.1c0,0,0,0.1,0,0.1c0,0,0,0,0,0c0,0,0,0,0,0.1c0,0.1,0,0.2,0,0.2c0,0.1,0,0.1,0,0.2
		c0,0.1,0,0.1,0,0.1c0,0,0,0,0,0.1c0,0,0,0.1,0,0.1c0,0,0.1,0,0.1,0.1s0,0.1,0,0.1c0,0,0,0.1,0,0.1s0,0.1,0,0.1c0,0,0,0,0,0.1
		c0,0,0,0.1,0,0.1c0,0,0,0,0,0.1c0,0,0.1,0.1,0.1,0.1c0,0,0.1,0.1,0.1,0.1c-0.1,0.1-0.1,0.3,0.1,0.4v0.1c0,0,0,0.1,0.1,0.1
		c0.1,0,0.1,0.1,0.1,0.2l0.2,0.2c0.1,0.1,0.2,0.3,0.4,0.5c0.2,0.2,0.3,0.3,0.4,0.4c0.1,0,0.1,0,0.1,0c0.2,0.3,0.4,0.5,0.7,0.5
		c0.1,0.1,0.2,0.1,0.2,0.2c0,0,0.1,0,0.2,0c0.1,0,0.2,0,0.2,0c0,0,0.1,0.1,0.1,0.1s0.1,0.1,0.1,0.1s0.1,0,0.1,0c0,0,0.1,0,0.1,0
		s0,0,0.1,0c0,0,0.1,0,0.1,0c0.2,0,0.4,0,0.6,0c0,0,0.1,0,0.2-0.1c0.1-0.1,0.1-0.1,0.2-0.1c0.1,0,0.2,0,0.2,0c0,0,0.1,0,0.1-0.1
		c0,0,0.1-0.1,0.1-0.1c0,0,0.1,0,0.2,0c0.1-0.1,0.2-0.2,0.4-0.1c0.1-0.1,0.3-0.2,0.5-0.4c0.2-0.2,0.4-0.3,0.6-0.4c0,0,0-0.1,0.1-0.1
		c0,0,0.1-0.1,0.1-0.1c0,0,0,0,0-0.1c0-0.1,0.1-0.1,0.2-0.2c0.1-0.1,0.1-0.1,0.1-0.1c0,0,0.1-0.1,0.1-0.2c0.1-0.1,0.1-0.2,0.1-0.2
		c0,0,0-0.1,0.1-0.1s0.1-0.1,0.1-0.1c0.1-0.1,0.2-0.2,0.2-0.2c0,0,0-0.1,0-0.1c0,0,0.1-0.2,0.3-0.5c0,0,0-0.1,0.1-0.1
		c0,0,0.1-0.2,0.1-0.5c0-0.1,0.1-0.2,0.2-0.3c0,0,0-0.1,0-0.1c0,0,0-0.1,0-0.1c0,0,0.1-0.1,0.1-0.1c0,0,0-0.1,0-0.1
		c0-0.1,0-0.1,0-0.1c0.1-0.1,0.2-0.4,0.3-0.9l0-0.3c0,0,0-0.1,0-0.1s0-0.1,0-0.1c0.1-0.1,0.1-0.2,0.1-0.2c0,0,0-0.1-0.1-0.1
		c0,0-0.1-0.1-0.1-0.1c0-0.1,0-0.1,0.1-0.2c0.1-0.1,0.1-0.2,0.1-0.2c0-0.1,0-0.2,0-0.3c0-0.1-0.1-0.2,0-0.2c0,0,0-0.1,0-0.1
		c0,0,0-0.1,0-0.1c0,0-0.1-0.1-0.1-0.1c0,0-0.1-0.1-0.1-0.1c0.1-0.1,0.1-0.1,0.1-0.1c0,0,0-0.1,0-0.1s0-0.1,0-0.1c0-0.1,0-0.2,0-0.3
		c0-0.1,0-0.2,0-0.2c0,0,0-0.1,0-0.1c0,0,0-0.1,0-0.1c0,0,0-0.1-0.1-0.1c0-0.1,0-0.1-0.1-0.2c0,0-0.1-0.1-0.1-0.1
		c0-0.1,0-0.1,0.1-0.2c0-0.1,0.1-0.1,0-0.2c0,0,0-0.1,0-0.1c0,0,0-0.1,0-0.1c0-0.1,0-0.1,0-0.1c0-0.1,0-0.1,0-0.1
		c-0.1,0-0.1-0.2-0.2-0.4c0-0.2-0.1-0.3-0.2-0.4c0,0,0-0.1,0-0.2c0-0.1,0-0.2,0-0.2C64,46.5,64,46.4,64,46.3
		c-0.3-0.6-0.8-1.1-1.3-1.6h-0.2c0-0.1-0.1-0.2-0.3-0.3h-0.1l-0.2-0.1c0,0-0.1-0.1-0.1-0.1c-0.1-0.1-0.2-0.1-0.3-0.1
		c0,0-0.1,0-0.2,0c-0.1,0-0.2,0-0.2,0C61,44,60.9,44,60.8,44c-0.1,0-0.2,0-0.3,0c-0.1,0-0.2,0-0.3,0c-0.2-0.2-0.3-0.3-0.4-0.2
		c-0.1-0.1-0.1-0.2,0-0.3c0,0,0-0.1,0.1-0.1c0,0,0.1-0.1,0.1-0.1c0-0.1,0-0.1-0.1-0.1c-0.1,0-0.1,0-0.1,0C59.5,43,59.5,43,59.5,43z"
		/>
</g>
</svg>
