<?xml version="1.0" encoding="utf-8"?>
<!-- Generator: Adobe Illustrator 19.0.1, SVG Export Plug-In . SVG Version: 6.00 Build 0)  -->
<svg version="1.1" id="Layer_1" xmlns="http://www.w3.org/2000/svg" xmlns:xlink="http://www.w3.org/1999/xlink" x="0px" y="0px"
	 viewBox="0 0 100 100" enable-background="new 0 0 100 100" xml:space="preserve">
<g>
	<path fill="#D93427" d="M30.9,40.3c-0.1,0.1,0,0.4,0,0.9c0.1,0,0.1,0.1,0.1,0.1c0,0.2,0,0.3,0,0.3c0,0,0,0.1-0.1,0.1
		c0,0.2,0,0.4,0.1,0.5c0,0.1,0,0.2,0,0.5s0,0.4-0.1,0.5c0,0,0,0.1,0,0.1c0,0.1,0,0.1,0,0.1c0,0,0,0.1,0.1,0.2
		c0.1,0.1,0.1,0.2,0.1,0.3l0,0.1c0,0,0.1,0.1,0.1,0.1c0,0.1,0.1,0.1,0.1,0.1c0,0,0,0.1,0,0.2c0,0,0,0.1,0,0.1s0,0.1,0,0.1
		c0,0,0,0.1,0,0.1s0,0.1,0,0.1c0,0,0,0.1,0,0.1c0,0,0.1,0.1,0.1,0.1c0,0,0,0.1,0,0.1c0,0.1,0,0.1,0,0.1c0,0,0,0.1,0.1,0.2
		c0.1,0.4,0.1,0.6,0.2,0.6c0.1,0,0.1,0,0.1-0.1c0,0,0.1,0,0.1,0c0,0,0,0,0.1,0c0,0,0.1-0.1,0.1-0.1c0,0,0,0.1,0,0.1c0,0,0,0,0.1,0
		c0.3-0.1,0.4-0.1,0.4-0.1c0.1,0,0.1,0,0.1,0c0,0,0.1,0,0.1,0c0,0,0.1,0,0.1,0c0.1,0,0.2,0,0.2-0.1h0.2c0.2,0.1,0.2,0.2,0.2,0.2
		c0,0,0.1,0,0.1,0c0.1,0.1,0.2,0.2,0.4,0.4s0.3,0.3,0.4,0.4c0.1,0,0.1,0,0.2,0c0,0.1,0,0.2,0,0.4c0,0.2,0,0.4,0,0.5
		c0.1,0.1,0.1,0.1,0,0.2c-0.1,0.1-0.1,0.1-0.2,0.1c0,0.1,0,0.2,0,0.3c-0.1,0-0.1,0.1-0.2,0.1c0,0,0,0,0,0.1c0,0.1,0,0.1,0,0.1
		c-0.1,0-0.1,0-0.1,0c-0.1,0.1-0.1,0.1-0.1,0.2c-0.1,0.1-0.2,0.1-0.2,0.1c0,0-0.1,0.1-0.1,0.2c-0.1,0.1-0.1,0.1-0.2,0.2
		c0,0-0.1,0-0.1,0c-0.1,0.1-0.1,0.1-0.1,0.1c-0.1,0-0.2,0-0.3,0c-0.1,0-0.2,0-0.2,0.1c-0.1,0-0.2,0-0.3,0c-0.1,0-0.2,0-0.3,0
		c-0.1,0-0.1,0.1-0.1,0.2c0,0.1,0,0.2,0.1,0.3c0,0,0,0.1,0,0.1c0,0,0,0,0,0.1c0,0.1,0,0.2,0,0.4c0,0.2,0,0.3,0,0.4
		c0,0.1,0,0.2,0.1,0.3c0.1,0.1,0.1,0.2,0.1,0.3c0,0,0,0.1,0,0.1c0,0,0,0.1,0,0.1c0,0,0,0.1,0,0.1c0,0,0.1,0,0.1,0c0,0,0,0,0,0
		c0,0,0,0,0,0c0,0.1,0,0.1-0.1,0.1c-0.1,0-0.1,0.1-0.1,0.2c0,0.1,0,0.1,0,0.2c0,0,0,0.1,0,0.1c0,0,0.1,0.1,0.1,0.1
		c0,0,0,0.1-0.1,0.1c0,0-0.1,0-0.1,0.1c0,0,0.1,0.1,0.2,0.1c0.1,0.1,0.1,0.1,0.1,0.2c0,0,0,0.1-0.1,0.1c0,0.1-0.1,0.1-0.1,0.1
		c0,0,0,0,0,0.1c0,0.1,0,0.2,0,0.4c0,0.2,0,0.3,0,0.4s0.1,0.2,0.1,0.3c0,0,0,0.1,0,0.2c0,0.1,0,0.3,0,0.7c0,0.4,0,0.6,0,0.6
		c0,0,0,0.1,0.1,0.2c0,0.1,0,0.3,0,0.5c0,0.2,0,0.4,0,0.5c0,0.2,0,0.3,0,0.3c0,0.2,0,0.3,0,0.4c0,0,0.1,0,0.1,0.1
		c0,0.1,0.1,0.1,0,0.2c-0.1,0-0.1,0.1-0.1,0.3s0,0.2,0.1,0.3c0,0.1,0,0.2,0,0.3c-0.1,0.1-0.1,0.3,0,0.5c0.1,0.3,0.1,0.4-0.1,0.5v0.3
		c-0.2,0.1-0.4,0.1-0.5,0.2c0.1,0.1,0.1,0.1,0,0.1c0,0-0.1,0-0.1,0c0,0-0.1-0.1-0.1-0.1c0,0-0.1,0.1-0.1,0.1c0,0-0.1,0.1-0.1,0.1
		c0,0-0.1,0-0.1,0c0,0-0.1,0-0.1,0c-0.2,0.2-0.4,0.2-0.5,0.1l-0.1,0c0,0-0.1,0-0.1,0c0,0-0.1,0-0.1,0c0,0,0,0-0.1,0c0,0-0.1,0-0.1,0
		c-0.1-0.2-0.1-0.4-0.1-0.4c-0.1,0-0.3-0.1-0.7-0.4c0,0-0.1,0-0.1,0c0,0-0.1,0-0.1,0c0-0.1,0-0.2-0.1-0.3c0,0,0,0,0,0
		c0,0-0.1,0-0.1,0c0,0,0-0.1,0.1-0.2c0-0.2,0-0.3-0.1-0.3c0,0,0-0.1,0-0.1c0,0,0-0.1,0-0.1c0,0,0-0.1,0-0.2c0-0.1-0.1-0.2-0.1-0.2
		c0-0.1,0-0.2,0-0.3c0-0.2,0.1-0.3,0.1-0.4c0,0,0-0.1-0.1-0.1c0,0,0-0.1,0-0.1c0,0,0-0.1,0-0.1c0,0,0-0.1-0.1-0.1
		c0-0.1-0.1-0.1-0.1-0.1c0-0.1,0-0.1,0-0.1c0,0,0-0.1,0-0.1c0,0,0-0.1,0-0.1c0,0,0-0.1,0-0.1c0,0,0-0.1-0.1-0.1
		c0.1-0.1,0.1-0.2,0.1-0.3c0,0-0.1,0-0.1-0.1c0-0.1,0-0.1,0-0.2c0,0,0-0.1,0-0.2c0-0.1,0-0.2,0-0.2c0-0.1,0-0.2,0-0.3
		c0-0.2,0-0.4-0.1-0.4c0-0.4,0-0.8,0-1.2c0,0,0-0.1,0-0.2s0-0.2,0-0.2c0,0,0-0.1-0.1-0.1c-0.1,0-0.1-0.1,0-0.2
		c0.1,0,0.1-0.1,0.1-0.1c-0.1-0.2-0.1-0.3-0.1-0.3c0.1-0.1,0.1-0.1,0.1-0.1c0,0,0-0.1-0.1-0.2c0-0.1,0-0.2,0-0.2c0-0.1,0-0.2,0-0.3
		c0-0.1,0-0.2,0-0.3c0-0.1,0-0.1,0-0.2c0-0.1,0-0.1,0-0.1c0,0,0,0,0-0.1c0,0,0-0.1,0.1-0.1c0-0.2-0.1-0.3-0.2-0.4c0,0,0-0.1,0-0.1
		c0,0,0-0.1,0-0.1c0-0.1-0.1-0.1-0.1,0c0,0-0.1,0.1-0.1,0.1c-0.1,0-0.2,0-0.3,0c-0.2,0-0.3,0-0.4,0.1c0,0-0.1,0-0.3,0
		c0,0-0.1,0.1-0.2,0.2c0,0,0,0,0-0.1c0,0,0-0.1,0-0.1c0-0.1-0.1,0-0.2,0c-0.1,0-0.1,0-0.2,0c-0.1,0-0.1,0-0.2,0c0,0-0.1,0.1-0.1,0.1
		c0,0-0.1,0-0.1,0c-0.4,0-0.6,0.1-0.7,0.2c-0.6,0-0.9,0.1-0.9,0.2c0,0-0.1,0-0.3,0H25c-0.1,0-0.2,0-0.4,0.1c-0.2,0-0.3,0.1-0.3,0.1
		c-0.1,0-0.1,0-0.2,0c-0.2,0-0.3,0-0.4,0c0,0-0.1,0-0.1,0.1c0,0.1,0,0.1-0.1,0.1c0,0-0.1,0-0.2,0c-0.1,0-0.2,0-0.2,0s-0.1,0-0.1,0
		c0,0-0.1,0-0.1,0s-0.1,0-0.1,0.1h-1.2c0,0-0.1-0.1-0.3-0.1c0,0-0.1,0-0.1,0c-0.1-0.1-0.2-0.1-0.3-0.1c-0.1,0-0.1,0.2-0.1,0.4l0,0.1
		c0,0,0,0.1,0,0.1c0,0.1,0,0.1,0,0.1c0,0.1,0,0.2,0,0.3c0,0.3,0,0.4,0,0.5c0,0.2,0,0.3,0,0.4c0.1,0,0.1,0,0.1,0c0,0,0,0.1,0,0.1
		c0,0,0,0.1,0,0.1c0,0.2,0,0.3-0.1,0.4c0,0,0.1,0.1,0.2,0.1v0.1c0,0,0,0.1-0.1,0.1c0,0.5,0,0.7,0,0.8c0,0.1,0,0.2,0,0.3
		c0,0.2,0,0.3,0.1,0.4c0,0,0,0.1,0,0.1c0,0,0,0.1,0,0.1c0,0,0,0-0.1,0.1c0,0-0.1,0.1-0.1,0.1c0,0,0,0.1,0.1,0.2c0,0.1,0.1,0.2,0,0.2
		c0,0,0,0.1-0.1,0.2c0,0,0,0.1,0.1,0.2c0,0,0,0.1,0,0.1c0,0,0,0,0,0.1c0.1,0,0.1,0.2,0,0.5c0,0.1,0,0.2,0,0.3c0,0.1,0,0.2,0,0.2
		c0,0.6,0,0.9,0.1,1l0,0.4c0,0.2,0,0.4,0,0.6c0,0.2,0,0.4,0.1,0.5c0,0,0,0.1,0,0.1c0,0.3-0.2,0.6-0.6,1c-0.1,0-0.2,0-0.3,0.2
		c-0.1,0.1-0.2,0.1-0.2,0.1c-0.1-0.1-0.2-0.1-0.2-0.1c-0.1,0-0.1,0.1-0.2,0.2c0,0,0,0,0,0c0,0,0-0.1,0-0.1c0-0.1-0.2-0.1-0.4-0.1
		c-0.1-0.1-0.2-0.1-0.2-0.2c-0.3,0-0.5-0.1-0.5-0.3c-0.1,0.1-0.3,0.1-0.4,0v-0.1c0,0-0.1-0.1-0.1-0.2C18,61.6,18,61.5,18,61.5
		c-0.1,0-0.1,0-0.1,0c0-0.1,0-0.2,0.1-0.2c0,0,0-0.2,0-0.5c0-0.3,0-0.5,0-0.6s0-0.3,0-0.7c0-0.1,0-0.2,0-0.2c0,0-0.1,0-0.1,0
		s0,0,0,0c0,0,0-0.1,0-0.4c0,0,0.1-0.1,0.1-0.1c0,0,0,0,0-0.1c0-0.1,0-0.3,0-0.6c0-0.3,0-0.5,0-0.6c0,0,0-0.1,0-0.1c0,0,0-0.1,0-0.1
		c0,0,0-0.1,0-0.1c0-0.1,0-0.1,0-0.1c0-0.1,0-0.2,0-0.2c0,0,0-0.1,0-0.1c0,0,0-0.1,0-0.1c0-0.1,0-0.1,0-0.1c0,0,0-0.1,0-0.1
		c0,0,0-0.1,0-0.1c0,0,0,0,0-0.1c0,0,0-0.1,0-0.1c0,0,0-0.1,0-0.2c0-0.1,0-0.3,0-0.4c0-0.2,0-0.3,0-0.4c0,0,0,0,0-0.1
		c0-0.2,0-0.3,0-0.3c0,0,0-0.1,0-0.1c0-0.1-0.1-0.1-0.1-0.1c-0.1-0.2,0-0.3,0.1-0.3c0,0,0-0.1,0-0.1c0,0-0.1,0-0.1-0.1
		c0.1-0.1,0.1-0.2,0.1-0.3c0-0.1,0-0.3,0-0.8c0-0.4,0-0.7,0-0.8c0-0.4,0-0.7-0.1-0.8c0.1-0.1,0.1-0.2,0.1-0.3c0-0.1-0.1-0.2-0.2-0.2
		c0,0,0-0.1,0-0.1v0c0,0,0.1,0,0.1,0c0,0,0,0,0.1,0c0,0,0-0.1,0-0.1c0,0,0-0.1,0-0.1c0-0.1,0-0.4,0-0.9c0-0.5,0-0.7-0.1-0.7h-0.1
		c0,0,0-0.1,0.1-0.2c-0.1-0.1-0.1-0.3,0-0.4c0-0.2,0-0.3,0-0.5c0-0.1-0.1-0.2-0.2-0.2c0-0.3,0.1-0.5,0.1-0.5c0-0.1,0-0.2,0-0.4
		c0-0.2,0-0.4,0-0.5c0,0-0.1-0.1-0.1-0.1c0,0,0-0.1,0-0.1c0,0,0-0.1,0-0.2c0,0,0-0.2,0-0.5c0,0,0-0.1,0-0.2c0-0.1,0-0.2,0-0.2
		c0,0,0-0.1,0-0.1c0,0,0-0.1-0.1-0.1c0,0-0.1-0.1,0-0.1c0,0,0.1-0.1,0.1-0.1c0,0,0-0.1,0-0.1c0,0,0-0.1,0-0.1c0-0.1,0-0.1,0-0.2
		c0-0.1,0-0.1,0-0.2c0,0,0-0.1,0-0.2c0-0.1,0-0.2,0-0.2c0,0,0-0.1,0-0.2c0-0.1,0-0.2,0-0.2c0-0.2,0-0.3,0-0.3c0.1-0.1,0.1-0.2,0-0.3
		c0,0,0,0-0.1,0c0,0-0.1,0-0.1,0c0-0.1,0-0.2,0.1-0.3c-0.1-0.1-0.1-0.2-0.1-0.3c0-0.1,0-0.2,0-0.3c0-0.2,0-0.3,0-0.3
		c0-0.1,0-0.2,0-0.2c0,0,0,0,0-0.1c0,0,0-0.1,0-0.1s0-0.1,0.1-0.2c0.1-0.1,0.1-0.2,0.1-0.3c0,0,0.1-0.1,0.2-0.2
		c0.2-0.2,0.3-0.3,0.5-0.3c0,0,0.1-0.1,0.1-0.1c0,0,0-0.1,0-0.1c0.1,0,0.1,0,0.2,0c0,0,0.1,0,0.2,0c0,0,0.1,0,0.1-0.1
		c0,0,0-0.1,0.1-0.1s0.1,0,0.1,0c0,0,0.1,0.1,0.1,0.1c0.1,0,0.1,0,0.2,0c0.1,0,0.1,0,0.2,0c0.2,0.1,0.3,0.2,0.3,0.2
		c0.4,0.2,0.7,0.4,0.9,0.7c0,0.1,0,0.1,0,0.1c0.1,0.1,0.1,0.2,0.2,0.3c0,0,0,0.1,0,0.1c0,0,0,0.1,0,0.1c0.1,0.1,0.1,0.2,0.1,0.3
		c0,0,0,0.1,0,0.1c0,0,0,0.1,0,0.1c0,0,0,0.1,0,0.2c0,0.1,0,0.2,0,0.3c0,0.1,0,0.2,0,0.3c0,0.2,0,0.3,0.1,0.3
		c-0.2,0.1-0.1,0.2,0,0.3c0,0,0,0.1-0.1,0.1c0,0.5,0.1,0.7,0.1,0.7c0,0.2,0,0.3,0.1,0.4c-0.1,0-0.1,0.1,0,0.4c0,0.3,0,0.4,0,0.5
		c0,0.1,0,0.2,0,0.2c0,0,0,0,0,0.1c0,0,0,0,0,0c0,0.1,0,0.1,0,0.2c0,0.2,0,0.4,0.1,0.4c-0.1,0.1-0.1,0.1-0.1,0.1c0,0.1,0,0.2,0,0.4
		c0,0.2,0.1,0.3,0.1,0.4c0,0.2,0.1,0.3,0.1,0.3c0,0,0,0.2,0,0.4c0,0.1,0,0.2,0,0.2c0,0,0,0,0,0.1c0,0,0,0.1,0,0.1c0,0,0,0.1,0,0.1
		c0,0,0,0.1,0,0.1s0,0,0,0.1c0,0,0,0.1,0,0.1c0,0,0,0.1,0,0.1c0,0-0.1,0-0.1,0.1c0.1,0.1,0.1,0.2,0.1,0.3c0,0.1,0,0.2,0,0.3
		c0,0.1,0.1,0.2,0.2,0.2c0.1,0,0.3,0.1,0.4,0c0.1,0,0.3,0,0.4,0c0.3,0.1,0.5,0.1,0.5,0l0.2,0c0,0,0.1,0,0.1,0c0,0,0.1,0,0.1,0
		c0.1,0,0.2,0,0.4-0.1c0.1,0,0.1,0,0.2,0c0.1,0,0.2,0,0.2,0c0,0,0,0,0,0c0.3,0.1,0.6,0,0.7-0.1c0.1,0,0.1,0,0.1,0
		c0,0,0.1,0.1,0.1,0.1c0.3-0.2,0.4-0.3,0.4-0.3c0.1,0,0.2,0,0.3,0c0.1,0,0.1,0,0.2,0s0.2,0,0.2,0c0,0,0.1,0,0.1,0c0,0,0.1,0,0.1,0
		c0,0,0.1,0,0.1,0c0,0,0.1,0,0.1,0c0,0,0.1,0,0.1,0c0.1,0,0.1,0,0.2,0l0.7-0.1c0,0,0.1,0,0.1-0.1c0,0,0.1-0.1,0.1-0.1
		c0,0,0.1,0,0.1,0c0,0,0.1,0,0.1,0c0.1,0,0.1,0,0.2-0.1c0,0,0.1,0,0.1-0.1c0.1-0.1,0.2-0.1,0.3,0c0.1-0.1,0.2-0.1,0.4-0.1
		c0.2,0,0.3,0,0.4-0.1c0,0,0-0.1,0-0.2c0-0.1,0-0.1,0-0.1c0,0,0,0-0.1-0.1c0,0,0-0.1,0-0.1c0-0.1,0-0.1,0-0.1l0-0.1
		c-0.1-0.1-0.1-0.2,0-0.2c0-0.2,0-0.3-0.1-0.3c0-0.1,0-0.3,0-0.5c0-0.2,0-0.4,0-0.5c-0.1-0.1-0.1-0.2-0.1-0.2c0-0.1,0-0.2,0-0.3
		c0-0.2,0-0.3,0-0.3c0-0.1,0-0.2,0-0.2c0,0,0,0-0.1,0c0,0-0.1,0-0.1,0c0-0.1,0-0.1,0.1-0.2c0-0.2,0-0.3,0-0.5c0-0.2-0.1-0.2-0.2-0.2
		c0-0.1,0-0.1,0.1-0.2c0-0.1,0-0.2,0-0.3c0-0.1,0-0.2,0-0.3c0,0,0-0.1-0.1-0.2c0-0.1,0-0.1,0-0.2c0-0.1,0-0.2,0-0.2
		c0,0-0.1-0.1-0.1-0.1c0,0-0.1,0-0.1-0.1c0-0.4,0-0.7,0-0.8c0-0.1,0-0.2,0-0.3c0-0.1,0-0.2,0-0.3c0,0,0-0.1,0-0.1c0-0.1,0-0.1,0-0.1
		c0,0,0-0.1-0.1-0.1c0-0.1,0-0.2,0-0.3c-0.1-0.1-0.1-0.2-0.1-0.2c0-0.1,0-0.2,0-0.3c0-0.1,0-0.3,0-0.3c0,0-0.1-0.1-0.1-0.1
		c0,0,0-0.1,0-0.2c0-0.1,0-0.2,0-0.2c0,0-0.1-0.1-0.1-0.1c0,0-0.1-0.1-0.1-0.1c0,0,0-0.1,0-0.3c0-0.2,0-0.3,0-0.4
		c-0.1,0-0.1,0-0.1,0c0,0,0-0.1,0-0.3c0-0.2,0-0.3-0.1-0.3c0.1-0.3,0.1-0.6,0-0.8c0,0,0.1,0,0.1,0s0,0,0,0c0.1-0.2,0.2-0.3,0.2-0.4
		c0.1-0.1,0.2-0.3,0.4-0.4c0.2-0.1,0.3-0.2,0.4-0.3c0.1,0.1,0.1,0.1,0.1,0.1c0-0.1,0.2-0.1,0.5-0.1c0.1,0.1,0.2,0.1,0.3,0.1
		c0.1,0,0.2,0.1,0.3,0.1c0.1,0,0.2,0.2,0.3,0.3c0,0,0.1,0,0.1,0c0,0,0,0,0.1,0c0,0,0,0.1,0.1,0.2c0.1,0.1,0.2,0.1,0.2,0.2
		c0,0,0.1,0.1,0.1,0.1c0,0.1,0,0.1,0,0.1c0,0,0.1,0.1,0.1,0.2C30,36,30,36.1,30,36.1c0,0,0,0.1,0,0.1c0.1,0.1,0.1,0.2,0.2,0.3
		c0,0.2,0.1,0.3,0.2,0.3c0,0.1,0,0.2,0,0.4c0,0.2,0,0.3,0,0.4c0,0,0,0.1,0.1,0.1c0,0,0,0.1,0,0.1s0,0.1,0,0.1c0,0,0,0.1,0,0.1
		c0,0,0,0.1,0,0.1c0,0,0,0.1,0,0.1c0,0.1,0.1,0.2,0.1,0.3c0,0.1,0.1,0.2,0.1,0.3c0,0,0,0.1,0,0.2c0,0,0,0.1,0,0.2
		c0,0.1,0.1,0.2,0.1,0.2L30.9,40.3C30.9,40.2,30.9,40.2,30.9,40.3z M30.9,40.3c-0.1,0.1,0,0.4,0,0.9c0.1,0,0.1,0.1,0.1,0.1
		c0,0.2,0,0.3,0,0.3c0,0,0,0.1-0.1,0.1c0,0.2,0,0.4,0.1,0.5c0,0.1,0,0.2,0,0.5s0,0.4-0.1,0.5c0,0,0,0.1,0,0.1c0,0.1,0,0.1,0,0.1
		c0,0,0,0.1,0.1,0.2c0.1,0.1,0.1,0.2,0.1,0.3l0,0.1c0,0,0.1,0.1,0.1,0.1c0,0.1,0.1,0.1,0.1,0.1c0,0,0,0.1,0,0.2c0,0,0,0.1,0,0.1
		s0,0.1,0,0.1c0,0,0,0.1,0,0.1s0,0.1,0,0.1c0,0,0,0.1,0,0.1c0,0,0.1,0.1,0.1,0.1c0,0,0,0.1,0,0.1c0,0.1,0,0.1,0,0.1
		c0,0,0,0.1,0.1,0.2c0.1,0.4,0.1,0.6,0.2,0.6c0.1,0,0.1,0,0.1-0.1c0,0,0.1,0,0.1,0c0,0,0,0,0.1,0c0,0,0.1-0.1,0.1-0.1
		c0,0,0,0.1,0,0.1c0,0,0,0,0.1,0c0.3-0.1,0.4-0.1,0.4-0.1c0.1,0,0.1,0,0.1,0c0,0,0.1,0,0.1,0c0,0,0.1,0,0.1,0c0.1,0,0.2,0,0.2-0.1
		h0.2c0.2,0.1,0.2,0.2,0.2,0.2c0,0,0.1,0,0.1,0c0.1,0.1,0.2,0.2,0.4,0.4s0.3,0.3,0.4,0.4c0.1,0,0.1,0,0.2,0c0,0.1,0,0.2,0,0.4
		c0,0.2,0,0.4,0,0.5c0.1,0.1,0.1,0.1,0,0.2c-0.1,0.1-0.1,0.1-0.2,0.1c0,0.1,0,0.2,0,0.3c-0.1,0-0.1,0.1-0.2,0.1c0,0,0,0,0,0.1
		c0,0.1,0,0.1,0,0.1c-0.1,0-0.1,0-0.1,0c-0.1,0.1-0.1,0.1-0.1,0.2c-0.1,0.1-0.2,0.1-0.2,0.1c0,0-0.1,0.1-0.1,0.2
		c-0.1,0.1-0.1,0.1-0.2,0.2c0,0-0.1,0-0.1,0c-0.1,0.1-0.1,0.1-0.1,0.1c-0.1,0-0.2,0-0.3,0c-0.1,0-0.2,0-0.2,0.1c-0.1,0-0.2,0-0.3,0
		c-0.1,0-0.2,0-0.3,0c-0.1,0-0.1,0.1-0.1,0.2c0,0.1,0,0.2,0.1,0.3c0,0,0,0.1,0,0.1c0,0,0,0,0,0.1c0,0.1,0,0.2,0,0.4
		c0,0.2,0,0.3,0,0.4c0,0.1,0,0.2,0.1,0.3c0.1,0.1,0.1,0.2,0.1,0.3c0,0,0,0.1,0,0.1c0,0,0,0.1,0,0.1c0,0,0,0.1,0,0.1c0,0,0.1,0,0.1,0
		c0,0,0,0,0,0c0,0,0,0,0,0c0,0.1,0,0.1-0.1,0.1c-0.1,0-0.1,0.1-0.1,0.2c0,0.1,0,0.1,0,0.2c0,0,0,0.1,0,0.1c0,0,0.1,0.1,0.1,0.1
		c0,0,0,0.1-0.1,0.1c0,0-0.1,0-0.1,0.1c0,0,0.1,0.1,0.2,0.1c0.1,0.1,0.1,0.1,0.1,0.2c0,0,0,0.1-0.1,0.1c0,0.1-0.1,0.1-0.1,0.1
		c0,0,0,0,0,0.1c0,0.1,0,0.2,0,0.4c0,0.2,0,0.3,0,0.4s0.1,0.2,0.1,0.3c0,0,0,0.1,0,0.2c0,0.1,0,0.3,0,0.7c0,0.4,0,0.6,0,0.6
		c0,0,0,0.1,0.1,0.2c0,0.1,0,0.3,0,0.5c0,0.2,0,0.4,0,0.5c0,0.2,0,0.3,0,0.3c0,0.2,0,0.3,0,0.4c0,0,0.1,0,0.1,0.1
		c0,0.1,0.1,0.1,0,0.2c-0.1,0-0.1,0.1-0.1,0.3s0,0.2,0.1,0.3c0,0.1,0,0.2,0,0.3c-0.1,0.1-0.1,0.3,0,0.5c0.1,0.3,0.1,0.4-0.1,0.5v0.3
		c-0.2,0.1-0.4,0.1-0.5,0.2c0.1,0.1,0.1,0.1,0,0.1c0,0-0.1,0-0.1,0c0,0-0.1-0.1-0.1-0.1c0,0-0.1,0.1-0.1,0.1c0,0-0.1,0.1-0.1,0.1
		c0,0-0.1,0-0.1,0c0,0-0.1,0-0.1,0c-0.2,0.2-0.4,0.2-0.5,0.1c-0.1,0-0.1,0-0.1,0c0,0-0.1,0-0.1,0c0,0-0.1,0-0.1,0c0,0,0,0-0.1,0
		c0,0-0.1,0-0.1,0c-0.1-0.2-0.1-0.4-0.1-0.4c-0.1,0-0.3-0.1-0.7-0.4c0,0-0.1,0-0.1,0c0,0-0.1,0-0.1,0c0-0.1,0-0.2-0.1-0.3
		c0,0,0,0,0,0c0,0-0.1,0-0.1,0c0,0,0-0.1,0.1-0.2c0-0.2,0-0.3-0.1-0.3c0,0,0-0.1,0-0.1c0,0,0-0.1,0-0.1c0,0,0-0.1,0-0.2
		c0-0.1-0.1-0.2-0.1-0.2c0-0.1,0-0.2,0-0.3c0-0.2,0.1-0.3,0.1-0.4c0,0,0-0.1-0.1-0.1c0,0,0-0.1,0-0.1c0,0,0-0.1,0-0.1
		c0,0,0-0.1-0.1-0.1c0-0.1-0.1-0.1-0.1-0.1c0-0.1,0-0.1,0-0.1c0,0,0-0.1,0-0.1c0,0,0-0.1,0-0.1c0,0,0-0.1,0-0.1c0,0,0-0.1-0.1-0.1
		c0.1-0.1,0.1-0.2,0.1-0.3c0,0-0.1,0-0.1-0.1c0-0.1,0-0.1,0-0.2c0,0,0-0.1,0-0.2c0-0.1,0-0.2,0-0.2c0-0.1,0-0.2,0-0.3
		c0-0.2,0-0.4-0.1-0.4c0-0.4,0-0.8,0-1.2c0,0,0-0.1,0-0.2s0-0.2,0-0.2c0,0,0-0.1-0.1-0.1c-0.1,0-0.1-0.1,0-0.2
		c0.1,0,0.1-0.1,0.1-0.1c-0.1-0.2-0.1-0.3-0.1-0.3c0.1-0.1,0.1-0.1,0.1-0.1c0,0,0-0.1-0.1-0.2c0-0.1,0-0.2,0-0.2c0-0.1,0-0.2,0-0.3
		c0-0.1,0-0.2,0-0.3c0-0.1,0-0.1,0-0.2c0-0.1,0-0.1,0-0.1c0,0,0,0,0-0.1c0,0,0-0.1,0.1-0.1c0-0.2-0.1-0.3-0.2-0.4c0,0,0-0.1,0-0.1
		c0,0,0-0.1,0-0.1c0-0.1-0.1-0.1-0.1,0c0,0-0.1,0.1-0.1,0.1c-0.1,0-0.2,0-0.3,0c-0.2,0-0.3,0-0.4,0.1c0,0-0.1,0-0.3,0
		c0,0-0.1,0.1-0.2,0.2c0,0,0,0,0-0.1c0,0,0-0.1,0-0.1c0-0.1-0.1,0-0.2,0c-0.1,0-0.1,0-0.2,0c-0.1,0-0.1,0-0.2,0c0,0-0.1,0.1-0.1,0.1
		c0,0-0.1,0-0.1,0c-0.4,0-0.6,0.1-0.7,0.2c-0.6,0-0.9,0.1-0.9,0.2c0,0-0.1,0-0.3,0H25c-0.1,0-0.2,0-0.4,0.1c-0.2,0-0.3,0.1-0.3,0.1
		c-0.1,0-0.1,0-0.2,0c-0.2,0-0.3,0-0.4,0c0,0-0.1,0-0.1,0.1c0,0.1,0,0.1-0.1,0.1c0,0-0.1,0-0.2,0c-0.1,0-0.2,0-0.2,0s-0.1,0-0.1,0
		c0,0-0.1,0-0.1,0s-0.1,0-0.1,0.1h-1.2c0,0-0.1-0.1-0.3-0.1c0,0-0.1,0-0.1,0c-0.1-0.1-0.2-0.1-0.3-0.1c-0.1,0-0.1,0.2-0.1,0.4l0,0.1
		c0,0,0,0.1,0,0.1c0,0.1,0,0.1,0,0.1c0,0.1,0,0.2,0,0.3c0,0.3,0,0.4,0,0.5c0,0.2,0,0.3,0,0.4c0.1,0,0.1,0,0.1,0c0,0,0,0.1,0,0.1
		c0,0,0,0.1,0,0.1c0,0.2,0,0.3-0.1,0.4c0,0,0.1,0.1,0.2,0.1v0.1c0,0,0,0.1-0.1,0.1c0,0.5,0,0.7,0,0.8c0,0.1,0,0.2,0,0.3
		c0,0.2,0,0.3,0.1,0.4c0,0,0,0.1,0,0.1c0,0,0,0.1,0,0.1c0,0,0,0-0.1,0.1c0,0-0.1,0.1-0.1,0.1c0,0,0,0.1,0.1,0.2c0,0.1,0.1,0.2,0,0.2
		c0,0,0,0.1-0.1,0.2c0,0,0,0.1,0.1,0.2c0,0,0,0.1,0,0.1c0,0,0,0,0,0.1c0.1,0,0.1,0.2,0,0.5c0,0.1,0,0.2,0,0.3c0,0.1,0,0.2,0,0.2
		c0,0.6,0,0.9,0.1,1l0,0.4c0,0.2,0,0.4,0,0.6c0,0.2,0,0.4,0.1,0.5c0,0,0,0.1,0,0.1c0,0.3-0.2,0.6-0.6,1c-0.1,0-0.2,0-0.3,0.2
		c-0.1,0.1-0.2,0.1-0.2,0.1c-0.1-0.1-0.2-0.1-0.2-0.1c-0.1,0-0.1,0.1-0.2,0.2c0,0,0,0,0,0c0,0,0-0.1,0-0.1c0-0.1-0.2-0.1-0.4-0.1
		c-0.1-0.1-0.2-0.1-0.2-0.2c-0.3,0-0.5-0.1-0.5-0.3c-0.1,0.1-0.3,0.1-0.4,0v-0.1c0,0-0.1-0.1-0.1-0.2C18,61.6,18,61.5,18,61.5
		c-0.1,0-0.1,0-0.1,0c0-0.1,0-0.2,0.1-0.2c0,0,0-0.2,0-0.5c0-0.3,0-0.5,0-0.6s0-0.3,0-0.7c0-0.1,0-0.2,0-0.2c0,0-0.1,0-0.1,0
		s0,0,0,0c0,0,0-0.1,0-0.4c0,0,0.1-0.1,0.1-0.1c0,0,0,0,0-0.1c0-0.1,0-0.3,0-0.6c0-0.3,0-0.5,0-0.6c0,0,0-0.1,0-0.1c0,0,0-0.1,0-0.1
		c0,0,0-0.1,0-0.1c0-0.1,0-0.1,0-0.1c0-0.1,0-0.2,0-0.2c0,0,0-0.1,0-0.1c0,0,0-0.1,0-0.1c0-0.1,0-0.1,0-0.1c0,0,0-0.1,0-0.1
		c0,0,0-0.1,0-0.1c0,0,0,0,0-0.1c0,0,0-0.1,0-0.1c0,0,0-0.1,0-0.2c0-0.1,0-0.3,0-0.4c0-0.2,0-0.3,0-0.4c0,0,0,0,0-0.1
		c0-0.2,0-0.3,0-0.3c0,0,0-0.1,0-0.1c0-0.1-0.1-0.1-0.1-0.1c-0.1-0.2,0-0.3,0.1-0.3c0,0,0-0.1,0-0.1c0,0-0.1,0-0.1-0.1
		c0.1-0.1,0.1-0.2,0.1-0.3c0-0.1,0-0.3,0-0.8c0-0.4,0-0.7,0-0.8c0-0.4,0-0.7-0.1-0.8c0.1-0.1,0.1-0.2,0.1-0.3c0-0.1-0.1-0.2-0.2-0.2
		c0,0,0-0.1,0-0.1v0c0,0,0.1,0,0.1,0c0,0,0,0,0.1,0c0,0,0-0.1,0-0.1c0,0,0-0.1,0-0.1c0-0.1,0-0.4,0-0.9c0-0.5,0-0.7-0.1-0.7h-0.1
		c0,0,0-0.1,0.1-0.2c-0.1-0.1-0.1-0.3,0-0.4c0-0.2,0-0.3,0-0.5c0-0.1-0.1-0.2-0.2-0.2c0-0.3,0.1-0.5,0.1-0.5c0-0.1,0-0.2,0-0.4
		c0-0.2,0-0.4,0-0.5c0,0-0.1-0.1-0.1-0.1c0,0,0-0.1,0-0.1c0,0,0-0.1,0-0.2c0,0,0-0.2,0-0.5c0,0,0-0.1,0-0.2c0-0.1,0-0.2,0-0.2
		c0,0,0-0.1,0-0.1c0,0,0-0.1-0.1-0.1c0,0-0.1-0.1,0-0.1c0,0,0.1-0.1,0.1-0.1c0,0,0-0.1,0-0.1c0,0,0-0.1,0-0.1c0-0.1,0-0.1,0-0.2
		c0-0.1,0-0.1,0-0.2c0,0,0-0.1,0-0.2c0-0.1,0-0.2,0-0.2c0,0,0-0.1,0-0.2c0-0.1,0-0.2,0-0.2c0-0.2,0-0.3,0-0.3c0.1-0.1,0.1-0.2,0-0.3
		c0,0,0,0-0.1,0c0,0-0.1,0-0.1,0c0-0.1,0-0.2,0.1-0.3c-0.1-0.1-0.1-0.2-0.1-0.3c0-0.1,0-0.2,0-0.3c0-0.2,0-0.3,0-0.3
		c0-0.1,0-0.2,0-0.2c0,0,0,0,0-0.1c0,0,0-0.1,0-0.1s0-0.1,0.1-0.2c0.1-0.1,0.1-0.2,0.1-0.3c0,0,0.1-0.1,0.2-0.2
		c0.2-0.2,0.3-0.3,0.5-0.3c0,0,0.1-0.1,0.1-0.1c0,0,0-0.1,0-0.1c0.1,0,0.1,0,0.2,0c0,0,0.1,0,0.2,0c0,0,0.1,0,0.1-0.1
		c0,0,0-0.1,0.1-0.1s0.1,0,0.1,0c0,0,0.1,0.1,0.1,0.1c0.1,0,0.1,0,0.2,0c0.1,0,0.1,0,0.2,0c0.2,0.1,0.3,0.2,0.3,0.2
		c0.4,0.2,0.7,0.4,0.9,0.7c0,0.1,0,0.1,0,0.1c0.1,0.1,0.1,0.2,0.2,0.3c0,0,0,0.1,0,0.1c0,0,0,0.1,0,0.1c0.1,0.1,0.1,0.2,0.1,0.3
		c0,0,0,0.1,0,0.1c0,0,0,0.1,0,0.1c0,0,0,0.1,0,0.2c0,0.1,0,0.2,0,0.3c0,0.1,0,0.2,0,0.3c0,0.2,0,0.3,0.1,0.3
		c-0.2,0.1-0.1,0.2,0,0.3c0,0,0,0.1-0.1,0.1c0,0.5,0.1,0.7,0.1,0.7c0,0.2,0,0.3,0,0.4c0,0,0,0.1,0,0.4c0,0.3,0,0.4,0,0.5
		c0,0.1,0,0.2,0,0.2c0,0,0,0.1,0,0.1c0,0.1,0,0.1,0,0.2c0,0.2,0,0.4,0.1,0.4c-0.1,0.1-0.1,0.1-0.1,0.1c0,0.1,0,0.2,0.1,0.4
		c0,0.2,0.1,0.3,0.1,0.4c0,0.2,0.1,0.3,0.1,0.3c0,0,0,0.2,0,0.4c0,0.1,0,0.2,0,0.2c0,0,0,0,0,0.1c0,0,0,0.1,0,0.1c0,0,0,0.1,0,0.1
		c0,0,0,0.1,0,0.1s0,0,0,0.1c0,0,0,0.1,0,0.1c0,0,0,0.1,0,0.1c0,0-0.1,0-0.1,0.1c0.1,0.1,0.1,0.2,0.1,0.3c0,0.1,0,0.2,0,0.3
		c0,0.1,0.1,0.2,0.2,0.2c0.1,0,0.3,0.1,0.4,0c0.1,0,0.3,0,0.4,0c0.3,0.1,0.5,0.1,0.5,0l0.2,0c0,0,0.1,0,0.1,0c0,0,0.1,0,0.1,0
		c0.1,0,0.2,0,0.4-0.1c0.1,0,0.1,0,0.2,0c0.1,0,0.2,0,0.2,0c0,0,0,0,0,0c0.3,0.1,0.6,0,0.7-0.1c0.1,0,0.1,0,0.1,0
		c0,0,0.1,0.1,0.1,0.1c0.3-0.2,0.4-0.3,0.4-0.3c0.1,0,0.2,0,0.3,0c0.1,0,0.1,0,0.2,0s0.2,0,0.2,0c0,0,0.1,0,0.1,0c0,0,0.1,0,0.1,0
		c0,0,0.1,0,0.1,0c0,0,0.1,0,0.1,0c0,0,0.1,0,0.1,0c0.1,0,0.1,0,0.2,0l0.7-0.1c0,0,0.1,0,0.1-0.1c0,0,0.1-0.1,0.1-0.1
		c0,0,0.1,0,0.1,0c0,0,0.1,0,0.1,0c0.1,0,0.1,0,0.2-0.1c0,0,0.1,0,0.1-0.1c0.1-0.1,0.2-0.1,0.3,0c0.1-0.1,0.2-0.1,0.4-0.1
		c0.2,0,0.3,0,0.4-0.1c0,0,0-0.1,0-0.2c0-0.1,0-0.1,0-0.1c0,0,0,0-0.1-0.1c0,0,0-0.1,0-0.1c0-0.1,0-0.1,0-0.1l0-0.1
		c-0.1-0.1-0.1-0.2,0-0.2c0-0.2,0-0.3-0.1-0.3c0-0.1,0-0.3,0-0.5c0-0.2,0-0.4,0-0.5c-0.1-0.1-0.1-0.2-0.1-0.2c0-0.1,0-0.2,0-0.3
		c0-0.2,0-0.3,0-0.3c0-0.1,0-0.2,0-0.2c0,0,0,0-0.1,0c0,0-0.1,0-0.1,0c0-0.1,0-0.1,0.1-0.2c0-0.2,0-0.3,0-0.5c0-0.2-0.1-0.2-0.2-0.2
		c0-0.1,0-0.1,0.1-0.2c0-0.1,0-0.2,0-0.3c0-0.1,0-0.2,0-0.3c0,0,0-0.1-0.1-0.2c0-0.1,0-0.1,0-0.2c0-0.1,0-0.2,0-0.2c0,0,0-0.1,0-0.1
		c0,0-0.1,0-0.1-0.1c0-0.4,0-0.7,0-0.8c0-0.1,0-0.2,0-0.3c0-0.1,0-0.2,0-0.3c0,0,0-0.1,0-0.1c0-0.1,0-0.1,0-0.1c0,0,0-0.1-0.1-0.1
		c0-0.1,0-0.2,0-0.3c-0.1-0.1-0.1-0.2-0.1-0.2c0-0.1,0-0.2,0-0.3c0-0.1,0-0.3,0-0.3c0,0-0.1-0.1-0.1-0.1c0,0,0-0.1,0-0.2
		c0-0.1,0-0.2,0-0.2c0,0-0.1-0.1-0.1-0.1c0,0-0.1-0.1-0.1-0.1c0,0,0-0.1,0-0.3c0-0.2,0-0.3,0-0.4c-0.1,0-0.1,0-0.1,0
		c0,0,0-0.1,0-0.3c0-0.2,0-0.3-0.1-0.3c0.1-0.3,0.1-0.6,0-0.8c0,0,0.1,0,0.1,0s0,0,0,0c0.1-0.2,0.2-0.3,0.2-0.4
		c0.1-0.1,0.2-0.3,0.4-0.4c0.2-0.1,0.3-0.2,0.4-0.3c0.1,0.1,0.1,0.1,0.1,0.1c0-0.1,0.2-0.1,0.5-0.1c0.1,0.1,0.2,0.1,0.3,0.1
		c0.1,0,0.2,0.1,0.3,0.1c0.1,0,0.2,0.2,0.3,0.3c0,0,0.1,0,0.1,0c0,0,0,0,0.1,0c0,0,0,0.1,0.1,0.2c0.1,0.1,0.2,0.1,0.2,0.2
		c0,0,0.1,0.1,0.1,0.1c0,0.1,0,0.1,0,0.1c0,0,0.1,0.1,0.1,0.2C30,36,30,36.1,30,36.1c0,0,0,0.1,0,0.1c0.1,0.1,0.1,0.2,0.2,0.3
		c0,0.2,0.1,0.3,0.2,0.3c0,0.1,0,0.2,0,0.4c0,0.2,0,0.3,0,0.4c0,0,0,0.1,0.1,0.1c0,0,0,0.1,0,0.1s0,0.1,0,0.1c0,0,0,0.1,0,0.1
		c0,0,0,0.1,0,0.1c0,0,0,0.1,0,0.1c0,0.1,0.1,0.2,0.1,0.3c0,0.1,0.1,0.2,0.1,0.3c0,0,0,0.1,0,0.2c0,0,0,0.1,0,0.2
		c0,0.1,0.1,0.2,0.1,0.2L30.9,40.3C30.9,40.2,30.9,40.2,30.9,40.3z"/>
	<path fill="#D93427" d="M46.6,38.4c0,0,0.1,0,0.2,0c0.1,0,0.2,0,0.2,0c0,0,0,0,0,0c0,0,0,0,0,0.1c0,0,0.1,0,0.2,0s0.2,0,0.2,0.1
		c0.1,0,0.3,0,0.5,0.1c0.5,0,0.9,0.1,1,0.3H49c0.1,0.1,0.2,0.2,0.3,0.3c0.2,0.1,0.3,0.2,0.3,0.3v0.1c0.2,0.1,0.3,0.4,0.5,0.9
		c0,0,0.1,0,0.1,0c0,0,0,0,0,0c0.1,0.2,0,0.3,0,0.4c0,0.1,0,0.2,0,0.3c-0.1,0.1-0.1,0.2-0.1,0.2C50,41.8,50,41.9,50,41.9
		c0,0.1,0,0.2-0.1,0.3c0,0.1,0,0.1,0,0.2c0,0-0.1,0.1-0.1,0.1c0,0-0.1,0-0.1,0c0,0,0,0-0.1,0c0,0,0,0.1-0.1,0.1
		c-0.1,0-0.1,0.1-0.2,0c0,0-0.1,0.1-0.1,0.1c0,0-0.1,0.1-0.1,0.1c-0.2,0-0.3,0-0.3,0c0,0.1,0,0.1,0,0.1c0,0-0.1,0-0.2,0
		c-0.1,0-0.2,0-0.2,0c0,0-0.1,0-0.1,0c0,0-0.1,0-0.1,0c0,0,0-0.1,0.1-0.1c0,0-0.1-0.1-0.1-0.2c0-0.1-0.1-0.1-0.1-0.2
		c0,0-0.1,0.1-0.1,0.1c0,0-0.1,0-0.1,0c0-0.1,0-0.1-0.1-0.2c-0.1-0.1-0.1-0.1-0.2-0.1c0,0,0,0.1,0,0.1c0,0,0,0.1,0,0.1
		c0,0-0.1-0.1-0.1-0.1c0,0-0.1-0.1-0.1-0.1c0,0-0.1,0-0.1-0.1c0-0.2-0.2-0.3-0.6-0.3c-0.1,0-0.1,0-0.2,0.1c-0.1,0-0.1,0-0.2,0
		s-0.2,0-0.2,0c0,0-0.1,0.1-0.1,0.1c-0.1,0-0.2,0-0.5,0c-0.3,0.1-0.5,0.1-0.6,0.2c-0.2-0.1-0.3-0.1-0.4,0c-0.1,0-0.2,0-0.3,0
		c-0.1,0-0.2,0-0.3,0c0,0,0,0.1,0,0.1c-0.2,0-0.3,0-0.3,0c-0.1-0.1-0.2-0.1-0.3,0c0,0-0.1,0-0.1,0.1c0,0-0.1,0.1-0.1,0.1
		c-0.1,0-0.1,0-0.2,0c-0.1,0-0.2,0-0.2,0c0,0-0.1,0.1-0.1,0.1c0,0-0.1,0-0.1,0c-0.1,0-0.1,0-0.1,0l0,0.1c-0.3,0-0.5,0-0.6,0
		c0,0,0,0.1,0,0.1c0,0,0,0,0,0.1C41.5,43,41.2,43,41,43.3c0,0-0.1,0-0.1-0.1c-0.1,0-0.1,0.1,0,0.2c0,0.1,0.1,0.1,0.1,0.1
		c0,0,0,0.1,0,0.2c0,0,0,0.1,0,0.1c0,0.1,0,0.1,0,0.1c0,0.2,0,0.2,0.1,0.2c0,0.1,0,0.2,0.1,0.4c0.1,0.2,0.1,0.3,0,0.4
		c0,0.1,0,0.2,0.1,0.3c0,0,0,0.1,0,0.1c0,0,0,0,0,0.1c0,0.1,0,0.1,0,0.2c0,0.1,0.1,0.1,0.1,0.1c0,0.7,0,1.1,0,1.2
		c-0.1,0.2-0.1,0.4,0,0.6c0,0,0,0.1,0,0.3c0,0,0,0.1-0.1,0.1c0,0.1-0.1,0.1,0,0.2c0.1,0.1,0.1,0.1,0.1,0.1c0,0,0,0.1,0,0.1
		c0,0,0,0.1,0,0.1c0,0.1,0,0.3,0,0.6c0,0.3,0,0.5,0,0.6c0,0,0,0.1,0,0.2c0,0.1,0.1,0.2,0.3,0.1c0.1,0,0.2-0.1,0.3-0.1
		c0.3,0,0.5,0,0.6-0.1c0.4,0,0.6,0,0.6,0c0.2,0,0.3,0,0.4,0c0,0,0.1,0,0.2-0.1c0.1,0,0.1-0.1,0.2-0.1c0,0,0.1,0,0.2,0
		c0.2,0,0.3,0,0.3-0.1c0.2,0.1,0.4,0,0.6,0c0,0,0.1,0,0.1,0c0,0,0.1,0,0.1,0c0,0,0.1,0,0.2,0c0.1,0,0.1,0,0.2,0c0.1,0,0.3,0,0.5,0
		c0,0,0-0.1,0-0.1c0.1,0.1,0.3,0.1,0.5,0c0.2,0,0.3-0.1,0.4-0.1c0.1,0,0.1,0,0.2,0c0.1,0,0.1-0.1,0.1-0.1s0.1,0,0.1,0
		c0,0,0,0,0.1,0.1c0,0,0.1,0,0.2-0.1c0.1-0.1,0.2-0.1,0.3-0.1c0.1-0.1,0.1-0.1,0.1-0.1s0.1,0,0.1,0.1c0.3,0,0.4,0,0.5-0.1
		c0.1,0,0.1,0,0.2,0c0.1,0,0.2,0,0.2,0s0.1,0,0.2,0.1c0.1,0,0.2,0.1,0.2,0.1c0.2,0,0.2,0.1,0.3,0.2c0.1,0,0.1,0,0.2,0
		c0,0,0.1,0,0.1,0c0,0,0,0.1,0.1,0.1c0.2,0,0.4,0,0.4,0c0,0,0,0.1,0.1,0.2c0,0,0,0.1,0,0.1c0,0.1,0.1,0.2,0.2,0.3
		c0,0.2,0.1,0.4,0.2,0.4c0,0,0,0.1-0.1,0.1c0,0.1,0,0.3-0.1,0.4c-0.1,0.1-0.1,0.2-0.1,0.3h-0.1c0,0,0,0.1,0,0.1c0,0,0,0,0,0.1
		c0,0-0.1,0-0.1,0h0l-0.1,0c0,0-0.1-0.1-0.1-0.1c0,0-0.1,0-0.1,0c0,0-0.1,0-0.1,0.1c0,0-0.1,0-0.1,0c0,0.1-0.2,0.1-0.4,0.2
		c-0.2,0.1-0.3,0.2-0.3,0.3c-0.2,0-0.5,0-0.7,0.2c0,0-0.1,0-0.1,0c0,0-0.1,0.1-0.1,0.1c0,0,0,0,0,0.1c-0.1,0-0.2,0-0.2-0.1
		c0,0-0.1,0-0.1,0c0,0,0,0.1,0,0.1c-0.1,0-0.2,0-0.3,0s-0.2,0-0.3,0c0,0-0.1,0-0.1,0.1c0,0-0.1,0.1-0.1,0.1c-0.1,0-0.2,0-0.3,0
		c-0.1,0-0.1,0.1-0.1,0.2c-0.1-0.1-0.2-0.1-0.3-0.1c-0.1,0-0.2,0-0.3,0.1v0.1c-0.1,0-0.1,0-0.2,0c-0.1-0.1-0.2,0-0.2,0
		c0,0-0.1,0-0.2,0l0,0.2c-0.1,0-0.2,0-0.3,0c-0.1,0-0.1,0-0.2,0c-0.1,0-0.1,0.1,0,0.2l-0.2-0.1c0,0-0.2,0-0.5,0c0,0-0.1,0.1-0.1,0.1
		c0,0-0.1,0.1-0.1,0.1c-0.3,0-0.4,0-0.4,0l-0.1,0.2c-0.3,0-0.5,0-0.6,0c-0.1,0-0.2,0.1-0.3,0.1c0,0,0,0,0,0.1
		c-0.2,0.1-0.4,0.1-0.6,0c0,0-0.1,0-0.1,0.1c0,0-0.1,0.1-0.1,0.1c0,0-0.1,0-0.1-0.1c0,0-0.1-0.1-0.1-0.1c-0.1,0-0.1,0-0.2,0.1
		c-0.1,0-0.2,0-0.2,0c-0.1,0-0.1,0.2,0,0.6c0,0,0,0.1,0,0.1c0,0,0,0.1,0,0.1c0,0.1,0.1,0.1,0.2,0.1c0.1,0.1,0,0.2-0.1,0.3
		c0,0,0,0.1,0,0.2c0,0.1,0,0.2,0.1,0.2c0,0,0,0.1,0,0.1c0,0,0,0,0,0.1c0,0,0,0.1-0.1,0.3c0.1,0.1,0.1,0.3,0.1,0.6
		c0,0.3,0,0.5,0.1,0.7c-0.2,0.3-0.1,0.4,0,0.5c0,0.1,0,0.2,0,0.3c0,0,0,0.1,0,0.1c0,0,0,0.1,0,0.1c0.1,0.2,0.1,0.4,0.1,0.5
		c0.1,0.1,0.1,0.2,0.2,0.3c0.1,0.2,0.1,0.3,0.1,0.3c0.1,0,0.2,0,0.4,0.1c0.2,0,0.3,0,0.4,0c0,0,0.1,0,0.1-0.1c0.1,0,0.1,0,0.1,0.1
		c0.5,0,0.7-0.1,0.8-0.1c0.1,0,0.2,0,0.3,0c0.2,0,0.3,0,0.4,0c0.1-0.1,0.3-0.2,0.7-0.2c0,0,0,0,0-0.1c0,0,0-0.1,0-0.1
		c0.1,0,0.1,0,0.2,0c0.1,0,0.2,0,0.2,0c0,0,0.1-0.1,0.2-0.1c0.1,0,0.2-0.1,0.2-0.1c0.2,0,0.4,0,0.6-0.2c0.2-0.1,0.4-0.2,0.5-0.2
		c0-0.1,0.1-0.1,0.1-0.1c0.2,0.1,0.3,0,0.4,0c0.2,0,0.4-0.1,0.6-0.3c0.2,0,0.3,0,0.3,0c0.1-0.1,0.2-0.1,0.3-0.1c0.5,0,0.8,0,0.9,0.1
		c0,0,0.1,0,0.1,0c0,0.2,0.1,0.3,0.3,0.4c0,0,0.1,0,0.1,0c0.1,0,0.1,0.1,0.2,0.2c0,0.2,0.1,0.3,0.2,0.4c0,0.1,0,0.1,0.1,0.2
		c0.1,0.1,0.1,0.2,0.1,0.2c0,0,0,0,0,0.1c0,0.1,0,0.2,0,0.2c-0.2,0.2-0.2,0.4-0.2,0.5c-0.2,0-0.3,0.1-0.3,0.2
		c-0.2,0-0.3,0.1-0.4,0.5c0,0-0.1,0-0.1,0c0,0-0.1,0-0.1,0c0,0-0.1,0.1-0.1,0.2c0,0-0.1,0-0.1,0c0,0-0.1,0-0.1,0c0,0-0.1,0-0.1,0.1
		c-0.2,0-0.3,0.1-0.3,0.2h-0.2c-0.2,0.2-0.3,0.3-0.5,0.1c0,0-0.1,0.1-0.1,0.2c0,0-0.1,0-0.1,0c-0.1-0.1-0.2-0.1-0.3,0
		c-0.1,0-0.1,0.1-0.1,0.2l-0.2,0c0,0,0,0,0,0.1c0,0,0,0.1,0,0.2c0,0-0.1-0.1-0.2-0.1c-0.1,0-0.2,0-0.3,0c0,0-0.1,0.1-0.1,0.1
		c0,0,0,0.1-0.1,0.1c0,0-0.1,0-0.1,0c0,0-0.1,0-0.1,0c0,0-0.1,0.1-0.1,0.2c-0.2-0.1-0.3,0-0.5,0c0,0,0,0,0,0.1c-0.2,0-0.3,0-0.3,0
		c-0.2,0-0.3,0.1-0.3,0.1c0,0-0.1,0-0.1,0c0,0-0.1,0-0.1,0c0,0-0.1,0-0.2,0c-0.1,0-0.2,0-0.3,0.1c0,0.1,0,0.1,0,0.1c0,0-0.1,0-0.3,0
		c-0.1,0-0.1,0-0.1,0c0,0,0-0.1-0.1-0.1c-0.3,0.1-0.5,0.1-0.5,0.1c0,0,0,0.1,0,0.1c-0.1,0-0.1,0-0.2,0c0,0-0.1-0.1-0.1-0.1
		c0,0-0.1,0.1-0.1,0.1c0,0-0.1,0-0.1,0c0,0-0.1,0-0.2,0c-0.1,0-0.2,0-0.2,0c0-0.1,0-0.1,0-0.1l-0.1,0c-0.1,0-0.1,0.1-0.1,0.2
		c-0.2,0-0.4,0-0.7,0c0-0.1,0-0.2-0.1-0.2c-0.1,0-0.1,0-0.2,0c0,0,0,0.1,0,0.1c0,0.1,0,0.1,0,0.1c0,0,0,0,0-0.1s0-0.1,0-0.1h-0.2
		v-0.1c-0.1-0.1-0.2-0.1-0.3-0.1c-0.1-0.1-0.2-0.1-0.2-0.1c0,0-0.1,0-0.1-0.1c-0.1-0.1-0.1-0.2-0.1-0.2c0,0-0.1,0-0.1,0
		c0,0-0.1,0-0.1,0c0,0,0-0.1,0-0.1c0,0,0-0.1-0.1-0.1c0,0-0.1,0-0.1,0c0,0-0.1,0-0.1,0c0-0.1,0-0.3-0.2-0.4v-0.1
		c-0.1-0.1-0.2-0.2-0.3-0.3h-0.1c-0.1-0.1-0.2-0.1-0.3-0.2c-0.1-0.1-0.2-0.2-0.2-0.3c-0.1-0.1-0.1-0.2-0.2-0.3
		c-0.2-0.5-0.2-0.7-0.2-0.7c0-0.1,0-0.2-0.1-0.3c0-0.1,0-0.2,0-0.3c0-0.1,0-0.2,0-0.3c0,0,0-0.1-0.1-0.1c0,0,0-0.1,0-0.1
		c0,0,0-0.1,0-0.1c0,0,0-0.2,0-0.4c0-0.2,0-0.3-0.1-0.4c0-0.1,0-0.2,0-0.4c0-0.2,0-0.3,0-0.4c0-0.5,0-1.1,0-2c0-0.9,0-1.6,0-2
		c0.1,0,0.2-0.1,0.2-0.2c0-0.1-0.1-0.2-0.2-0.2c0-0.1,0-0.2,0.1-0.4c0-0.1,0.1-0.2,0.1-0.3c-0.1-0.1-0.1-0.1-0.1-0.2
		c0-0.1,0-0.1,0.1-0.1c0-0.2,0-0.8,0-1.9c0.1,0,0.1-0.1,0.1-0.1c0-0.1,0-0.1-0.1-0.2c0.1,0,0.1-0.1,0-0.3s-0.1-0.3,0-0.4
		c0,0,0-0.1,0-0.1c0.1-0.1,0-0.2,0-0.2c0-0.1,0-0.3,0-0.6s0-0.5-0.1-0.5c0.1,0,0.1-0.2,0.1-0.5c0-0.3,0-0.4,0-0.5l-0.2-0.1
		c0-0.2,0-0.4,0.1-0.4c0,0-0.1-0.1-0.1-0.1c0,0,0-0.1,0-0.1c0-0.4,0-0.6,0-0.6c0,0-0.1,0-0.1,0c0,0,0,0-0.1,0c0-0.4,0-0.6,0-0.8
		c-0.1,0-0.1,0-0.1,0c0,0,0-0.1,0-0.2c0,0,0-0.1,0-0.1c0,0,0-0.1,0-0.1c0,0,0-0.1,0-0.1c0,0,0-0.1,0-0.1c0,0-0.1-0.1-0.1-0.1
		c-0.1-0.1-0.1-0.2,0-0.3c0,0-0.1-0.1-0.1-0.1c0-0.1-0.1-0.1,0-0.2c-0.1,0-0.2-0.1-0.3-0.3c0-0.1,0-0.2,0-0.3c0-0.1,0-0.1,0-0.2
		c-0.1-0.1,0-0.2,0-0.4c0.1-0.1,0.1-0.3,0.1-0.4c0,0,0.1-0.1,0.2-0.2c0.1-0.1,0.2-0.2,0.2-0.2c0,0,0,0,0,0c0,0,0-0.1,0-0.1l0.1,0.1
		c0,0,0.1,0,0.2,0c0.1,0,0.2,0,0.2,0c0.1,0,0.1,0,0.2-0.1c0.1-0.1,0.1-0.1,0.2-0.2c0.1,0,0.2,0,0.3,0c0.1,0,0.2,0,0.3,0
		c0,0,0.1,0,0.1,0c0,0,0.1,0,0.1,0c0.2,0,0.4,0,0.4-0.1c0.5-0.1,0.7-0.2,0.7-0.2h0.2c0,0,0.1,0,0.1,0c0,0,0,0,0.1,0c0,0,0.1,0,0.2,0
		c0.1,0,0.1,0,0.2-0.1c0.1-0.1,0.2-0.1,0.2-0.1c0,0,0-0.1,0-0.2c0.1,0,0.1,0,0.1,0c0,0,0,0,0,0.1c0,0,0,0.1,0,0.1
		c0.2-0.1,0.4-0.1,0.5-0.2c0.1,0,0.1,0,0.2,0.1l0.3-0.1c0,0,0.1-0.1,0.3-0.2c0,0.1,0.1,0.2,0.1,0.2c0,0,0.1-0.1,0.2-0.1
		c0.1,0,0.2,0,0.2,0s0.1,0,0.1,0c0,0,0.1-0.1,0.1-0.1c0,0,0.1,0,0.2,0c0.1,0,0.2,0,0.2,0c0.2,0,0.3-0.1,0.4-0.1c0,0,0.1,0,0.1,0
		c0.1,0,0.1,0,0.1-0.1c0.1,0,0.2,0,0.2,0c0,0,0.1,0,0.2-0.1c0.1,0,0.1,0,0.2,0c0.1,0,0.1,0,0.1,0c0,0,0,0,0,0c0,0,0,0,0,0
		C46.3,38.7,46.6,38.6,46.6,38.4z M45.7,38.6c0.6,0.1,0.9,0,0.9-0.2c0,0,0.2,0,0.4,0c0,0,0,0.1,0,0.1c0,0,0,0,0,0.1c0,0,0.1,0,0.2,0
		s0.2,0,0.2,0.1c0.1,0,0.3,0,0.5,0.1c0.5,0,0.9,0.1,1,0.3H49c0.1,0.1,0.2,0.2,0.3,0.3c0.2,0.1,0.3,0.2,0.3,0.3v0.1
		c0.2,0.1,0.3,0.4,0.5,0.9c0,0,0.1,0.1,0.1,0.1c0.1,0.2,0,0.3,0,0.4c0,0.1,0,0.2,0,0.3c-0.1,0.1-0.1,0.2-0.1,0.2
		C50,41.8,50,41.9,50,41.9c0,0.1,0,0.2-0.1,0.3c0,0.1,0,0.1,0,0.2c0,0-0.1,0.1-0.1,0.1c0,0-0.1,0-0.1,0c0,0,0,0-0.1,0
		c0,0,0,0.1-0.1,0.1c-0.1,0-0.1,0.1-0.2,0c0,0-0.1,0.1-0.1,0.1c0,0-0.1,0.1-0.1,0.1c-0.2,0-0.3,0-0.3,0c0,0.1,0,0.1,0,0.1
		c0,0-0.1,0-0.2,0c-0.1,0-0.2,0-0.2,0c0,0-0.1,0-0.1,0c0,0-0.1,0-0.1,0c0,0,0-0.1,0.1-0.1c0,0-0.1-0.1-0.1-0.2
		c0-0.1-0.1-0.1-0.1-0.2c0,0-0.1,0.1-0.1,0.1c0,0-0.1,0-0.1,0c0-0.1,0-0.1-0.1-0.2c-0.1-0.1-0.1-0.1-0.2-0.1c0,0,0,0.1,0,0.1
		c0,0,0,0.1,0,0.1c0,0-0.1-0.1-0.1-0.1c0,0-0.1-0.1-0.1-0.1c0,0-0.1,0-0.1-0.1c0-0.2-0.2-0.3-0.6-0.3c-0.1,0-0.1,0-0.2,0.1
		c-0.1,0-0.1,0-0.2,0s-0.2,0-0.2,0c0,0-0.1,0.1-0.1,0.1c-0.1,0-0.2,0-0.5,0c-0.3,0.1-0.5,0.1-0.6,0.2c-0.2-0.1-0.3-0.1-0.4,0
		c-0.1,0-0.2,0-0.3,0c-0.1,0-0.2,0-0.3,0c0,0,0,0.1,0,0.1c-0.2,0-0.3,0-0.3,0c-0.1-0.1-0.2-0.1-0.3,0c0,0-0.1,0-0.1,0.1
		c0,0-0.1,0.1-0.1,0.1c-0.1,0-0.1,0-0.2,0c-0.1,0-0.2,0-0.2,0c0,0-0.1,0.1-0.1,0.1c0,0-0.1,0-0.1,0c-0.1,0-0.1,0-0.1,0l0,0.1
		c-0.3,0-0.5,0-0.6,0c0,0,0,0.1,0,0.1c0,0,0,0,0,0.1C41.5,43,41.2,43,41,43.3c0,0-0.1,0-0.1-0.1c-0.1,0-0.1,0.1,0,0.2
		c0,0.1,0.1,0.1,0.1,0.1c0,0,0,0.1,0,0.2c0,0,0,0.1,0,0.1c0,0.1,0,0.1,0,0.1c0,0.2,0,0.2,0.1,0.2c0,0.1,0,0.2,0.1,0.4
		c0.1,0.2,0.1,0.3,0,0.4c0,0.1,0,0.2,0.1,0.3c0,0,0,0.1,0,0.1c0,0,0,0,0,0.1c0,0.1,0,0.1,0,0.2c0,0.1,0.1,0.1,0.1,0.1
		c0,0.7,0,1.1,0,1.2c-0.1,0.2-0.1,0.4,0,0.6c0,0,0,0.1,0,0.3c0,0,0,0.1-0.1,0.1c0,0.1-0.1,0.1,0,0.2c0.1,0.1,0.1,0.1,0.1,0.1
		c0,0,0,0.1,0,0.1c0,0,0,0.1,0,0.1c0,0.1,0,0.3,0,0.6c0,0.3,0,0.5,0,0.6c0,0,0,0.1,0,0.2c0,0.1,0.1,0.2,0.3,0.1
		c0.1,0,0.2-0.1,0.3-0.1c0.3,0,0.5,0,0.6-0.1c0.4,0,0.6,0,0.6,0c0.2,0,0.3,0,0.4,0c0,0,0.1,0,0.2-0.1c0.1,0,0.1-0.1,0.2-0.1
		c0,0,0.1,0,0.2,0c0.2,0,0.3,0,0.3-0.1c0.2,0.1,0.4,0,0.6,0c0,0,0.1,0,0.1,0c0,0,0.1,0,0.1,0c0,0,0.1,0,0.2,0c0.1,0,0.1,0,0.2,0
		c0.1,0,0.3,0,0.5,0c0,0,0-0.1,0-0.1c0.1,0.1,0.3,0.1,0.5,0c0.2,0,0.3-0.1,0.4-0.1c0.1,0,0.1,0,0.2,0c0.1,0,0.1-0.1,0.1-0.1
		s0.1,0,0.1,0c0,0,0,0,0.1,0.1c0,0,0.1,0,0.2-0.1c0.1-0.1,0.2-0.1,0.3-0.1c0.1-0.1,0.1-0.1,0.1-0.1s0.1,0,0.1,0.1
		c0.3,0,0.4,0,0.5-0.1c0.1,0,0.1,0,0.2,0c0.1,0,0.2,0,0.2,0s0.1,0,0.2,0.1c0.1,0,0.2,0.1,0.2,0.1c0.2,0,0.2,0.1,0.3,0.2
		c0.1,0,0.1,0,0.2,0c0,0,0.1,0,0.1,0c0,0,0,0.1,0.1,0.1c0.2,0,0.4,0,0.4,0c0,0,0,0.1,0.1,0.2c0,0,0,0.1,0,0.1c0,0.1,0.1,0.2,0.2,0.3
		c0,0.2,0.1,0.4,0.2,0.4c0,0,0,0.1-0.1,0.1c0,0.1,0,0.3-0.1,0.4c-0.1,0.1-0.1,0.2-0.1,0.3h-0.1c0,0,0,0.1,0,0.1c0,0,0,0,0,0.1
		c0,0-0.1,0-0.1,0h0l-0.1,0c0,0-0.1-0.1-0.1-0.1c0,0-0.1,0-0.1,0c0,0-0.1,0-0.1,0.1c0,0-0.1,0-0.1,0c0,0.1-0.2,0.1-0.4,0.2
		c-0.2,0.1-0.3,0.2-0.3,0.3c-0.2,0-0.5,0-0.7,0.2c0,0-0.1,0-0.1,0c0,0-0.1,0.1-0.1,0.1c0,0,0,0,0,0.1c-0.1,0-0.2,0-0.2-0.1
		c0,0-0.1,0-0.1,0c0,0,0,0.1,0,0.1c-0.1,0-0.2,0-0.3,0s-0.2,0-0.3,0c0,0-0.1,0-0.1,0.1c0,0-0.1,0.1-0.1,0.1c-0.1,0-0.2,0-0.3,0
		c-0.1,0-0.1,0.1-0.1,0.2c-0.1-0.1-0.2-0.1-0.3-0.1c-0.1,0-0.2,0-0.3,0.1v0.1c-0.1,0-0.1,0-0.2,0c-0.1-0.1-0.2,0-0.2,0
		c0,0-0.1,0-0.2,0l0,0.2c-0.1,0-0.2,0-0.3,0c-0.1,0-0.1,0-0.2,0c-0.1,0-0.1,0.1,0,0.2l-0.2-0.1c0,0-0.2,0-0.5,0c0,0-0.1,0.1-0.1,0.1
		c0,0-0.1,0.1-0.1,0.1c-0.3,0-0.4,0-0.4,0l-0.1,0.2c-0.3,0-0.5,0-0.6,0c-0.1,0-0.2,0.1-0.3,0.1c0,0,0,0,0,0.1
		c-0.2,0.1-0.4,0.1-0.6,0c0,0-0.1,0-0.1,0.1c0,0-0.1,0.1-0.1,0.1c0,0-0.1,0-0.1-0.1c0,0-0.1-0.1-0.1-0.1c-0.1,0-0.1,0-0.2,0.1
		c-0.1,0-0.2,0-0.2,0c-0.1,0-0.1,0.2,0,0.6c0,0,0,0.1,0,0.1c0,0,0,0.1,0,0.1c0,0.1,0.1,0.1,0.2,0.1c0.1,0.1,0,0.2-0.1,0.3
		c0,0,0,0.1,0,0.2c0,0.1,0,0.2,0.1,0.2c0,0,0,0.1,0,0.1c0,0,0,0,0,0.1c0,0,0,0.1-0.1,0.3c0.1,0.1,0.1,0.3,0.1,0.6
		c0,0.3,0,0.5,0.1,0.7c-0.2,0.3-0.1,0.4,0,0.5c0,0.1,0,0.2,0,0.3c0,0,0,0.1,0,0.1c0,0,0,0.1,0,0.1c0.1,0.2,0.1,0.4,0.1,0.5
		c0.1,0.1,0.1,0.2,0.2,0.3c0.1,0.2,0.1,0.3,0.1,0.3c0.1,0,0.2,0,0.4,0.1c0.2,0,0.3,0,0.4,0c0,0,0.1,0,0.1-0.1c0.1,0,0.1,0,0.1,0.1
		c0.5,0,0.7-0.1,0.8-0.1c0.1,0,0.2,0,0.3,0c0.2,0,0.3,0,0.4,0c0.1-0.1,0.3-0.2,0.7-0.2c0,0,0,0,0-0.1c0,0,0-0.1,0-0.1
		c0.1,0,0.1,0,0.2,0c0.1,0,0.2,0,0.2,0c0,0,0.1-0.1,0.2-0.1c0.1,0,0.2-0.1,0.2-0.1c0.2,0,0.4,0,0.6-0.2c0.2-0.1,0.4-0.2,0.5-0.2
		c0-0.1,0.1-0.1,0.1-0.1c0.2,0.1,0.3,0,0.4,0c0.2,0,0.4-0.1,0.6-0.3c0.2,0,0.3,0,0.3,0c0.1-0.1,0.2-0.1,0.3-0.1c0.5,0,0.8,0,0.9,0.1
		c0,0,0.1,0,0.1,0c0,0.2,0.1,0.3,0.3,0.4c0,0,0.1,0,0.1,0c0.1,0,0.1,0.1,0.2,0.2c0,0.2,0.1,0.3,0.2,0.4c0,0.1,0,0.1,0.1,0.2
		c0.1,0.1,0.1,0.2,0.1,0.2c0,0,0,0,0,0.1c0,0.1,0,0.2,0,0.2c-0.2,0.2-0.2,0.4-0.2,0.5c-0.2,0-0.3,0.1-0.3,0.2
		c-0.2,0-0.3,0.1-0.4,0.5c0,0-0.1,0-0.1,0c0,0-0.1,0-0.1,0c0,0-0.1,0.1-0.1,0.2c0,0-0.1,0-0.1,0c0,0-0.1,0-0.1,0c0,0-0.1,0-0.1,0.1
		c-0.2,0-0.3,0.1-0.3,0.2h-0.2c-0.2,0.2-0.3,0.3-0.5,0.1c0,0-0.1,0.1-0.1,0.2c0,0-0.1,0-0.1,0c-0.1-0.1-0.2-0.1-0.3,0
		c-0.1,0-0.1,0.1-0.1,0.2l-0.2,0c0,0,0,0,0,0.1c0,0,0,0.1,0,0.2c0,0-0.1-0.1-0.2-0.1c-0.1,0-0.2,0-0.3,0c0,0-0.1,0.1-0.1,0.1
		c0,0,0,0.1-0.1,0.1c0,0-0.1,0-0.1,0c0,0-0.1,0-0.1,0c0,0-0.1,0.1-0.1,0.2c-0.2-0.1-0.3,0-0.5,0c0,0,0,0,0,0.1c-0.2,0-0.3,0-0.3,0
		c-0.2,0-0.3,0.1-0.3,0.1c0,0-0.1,0-0.1,0c0,0-0.1,0-0.1,0c0,0-0.1,0-0.2,0c-0.1,0-0.2,0-0.3,0.1c0,0.1,0,0.1,0,0.1c0,0-0.1,0-0.3,0
		c-0.1,0-0.1,0-0.1,0c0,0,0-0.1-0.1-0.1c-0.3,0.1-0.5,0.1-0.5,0.1c0,0,0,0.1,0,0.1c-0.1,0-0.1,0-0.2,0c0,0-0.1-0.1-0.1-0.1
		c0,0-0.1,0.1-0.1,0.1c0,0-0.1,0-0.1,0c0,0-0.1,0-0.2,0c-0.1,0-0.2,0-0.2,0c0-0.1,0-0.1,0-0.1l-0.1,0c-0.1,0-0.1,0.1-0.1,0.2
		c-0.2,0-0.4,0-0.7,0c0-0.1,0-0.2-0.1-0.2c-0.1,0-0.1,0-0.2,0c0,0,0,0.1,0,0.1c0,0.1,0,0.1,0,0.1c0,0,0,0,0-0.1s0-0.1,0-0.1h-0.2
		v-0.1c-0.1-0.1-0.2-0.1-0.3-0.1c-0.1-0.1-0.2-0.1-0.2-0.1c0,0-0.1,0-0.1-0.1c-0.1-0.1-0.1-0.2-0.1-0.2c0,0-0.1,0-0.1,0
		c0,0-0.1,0-0.1,0c0,0,0-0.1,0-0.1c0,0,0-0.1-0.1-0.1c0,0-0.1,0-0.1,0c0,0-0.1,0-0.1,0c0-0.1,0-0.3-0.2-0.4v-0.1
		c-0.1-0.1-0.2-0.2-0.3-0.3h-0.1c-0.1-0.1-0.2-0.1-0.3-0.2c-0.1-0.1-0.2-0.2-0.2-0.3c-0.1-0.1-0.1-0.2-0.2-0.3
		c-0.2-0.5-0.2-0.7-0.2-0.7c0-0.1,0-0.2-0.1-0.3c0-0.1,0-0.2,0-0.3c0-0.1,0-0.2,0-0.2c0-0.1,0-0.1-0.1-0.2c0,0,0-0.1,0-0.1
		c0,0,0-0.1,0-0.1c0,0,0-0.2,0-0.4c0-0.2,0-0.3-0.1-0.4c0-0.1,0-0.2,0-0.4c0-0.2,0-0.3,0-0.4c0-0.5,0-1.1,0-2c0-0.9,0-1.6,0-2
		c0.1,0,0.2-0.1,0.2-0.2c0-0.1-0.1-0.2-0.2-0.2c0-0.1,0-0.2,0.1-0.4c0-0.1,0.1-0.2,0.1-0.3c-0.1-0.1-0.1-0.1-0.1-0.2
		c0-0.1,0-0.1,0.1-0.1c0-0.2,0-0.8,0-1.9c0.1,0,0.1-0.1,0.1-0.1c0-0.1,0-0.1-0.1-0.2c0.1,0,0.1-0.1,0-0.3s-0.1-0.3,0-0.4
		c0,0,0-0.1,0-0.1c0.1-0.1,0-0.2,0-0.3c0-0.1,0-0.3,0-0.6s0-0.5-0.1-0.5c0.1,0,0.1-0.2,0.1-0.5c0-0.3,0-0.4,0-0.5l-0.2-0.1
		c0-0.2,0-0.4,0.1-0.4c0,0-0.1-0.1-0.1-0.1c0,0,0-0.1,0-0.1c0-0.4,0-0.6,0-0.6c0,0-0.1,0-0.1,0c0,0,0,0-0.1,0c0-0.4,0-0.6,0-0.8
		c-0.1,0-0.1,0-0.1,0c0,0,0-0.1,0-0.2c0,0,0-0.1,0-0.1c0,0,0-0.1,0-0.1c0,0,0-0.1,0-0.1c0,0,0-0.1,0-0.1c0,0-0.1-0.1-0.1-0.1
		c-0.1-0.1-0.1-0.2,0-0.3c0,0-0.1-0.1-0.1-0.1c0-0.1-0.1-0.1,0-0.2c-0.1,0-0.2-0.1-0.3-0.3c0-0.1,0-0.2,0-0.3c0-0.1,0-0.1,0-0.2
		c-0.1-0.1,0-0.2,0-0.4c0.1-0.1,0.1-0.3,0.1-0.4c0,0,0.1-0.1,0.2-0.2c0.1-0.1,0.2-0.2,0.2-0.2c0,0,0,0,0,0c0,0,0-0.1,0-0.1l0.1,0.1
		c0,0,0.1,0,0.2,0c0.1,0,0.2,0,0.2,0c0.1,0,0.1,0,0.2-0.1c0.1-0.1,0.1-0.1,0.2-0.2c0.1,0,0.2,0,0.3,0c0.1,0,0.2,0,0.3,0
		c0,0,0.1,0,0.1,0c0,0,0.1,0,0.1,0c0.2,0,0.4,0,0.4-0.1c0.5-0.1,0.7-0.2,0.7-0.2h0.2c0,0,0.1,0,0.1,0c0,0,0,0,0.1,0c0,0,0.1,0,0.2,0
		c0.1,0,0.1,0,0.2-0.1c0.1-0.1,0.2-0.1,0.2-0.1c0,0,0-0.1,0-0.2c0.1,0,0.1,0,0.1,0c0,0,0,0,0,0.1c0,0,0,0.1,0,0.1
		c0.2-0.1,0.4-0.1,0.5-0.2c0.1,0,0.1,0,0.2,0.1l0.3-0.1c0,0,0.1-0.1,0.3-0.2c0,0.1,0.1,0.2,0.1,0.2c0,0,0.1-0.1,0.2-0.1
		c0.1,0,0.2,0,0.2,0s0.1,0,0.1,0c0,0,0.1-0.1,0.1-0.1c0,0,0.1,0,0.2,0c0.1,0,0.2,0,0.2,0c0.2,0,0.3-0.1,0.4-0.1c0,0,0.1,0,0.1,0
		c0.1,0,0.1,0,0.1-0.1c0.1,0,0.2,0,0.2,0c0,0,0.1,0,0.2-0.1c0.1,0,0.1,0,0.2,0C45.6,38.7,45.6,38.7,45.7,38.6
		C45.7,38.7,45.7,38.7,45.7,38.6C45.6,38.6,45.7,38.6,45.7,38.6z"/>
	<path fill="#D93427" d="M54.4,40.2c0,0.1,0.1,0.1,0.3,0.1c0.1,0,0.2,0,0.2,0c0,0,0,0.1,0,0.1c0,0,0,0.1,0,0.1c0.1,0,0.2,0,0.3,0
		c0.2,0.1,0.2,0,0.2-0.1c0.1,0,0.1,0.2,0.1,0.4c0,0,0.1,0,0.3,0c0,0.1,0,0.2,0.1,0.2c0.1,0.1,0.1,0.1,0.1,0.1l0.1,0c0,0,0,0.1,0,0.2
		c0,0.1,0,0.1,0,0.2c0,0.1,0.1,0.2,0.2,0.3c0,0.2,0,0.4,0,0.4c0,0.1,0.2,0.1,0.4,0.1c0,0.1,0,0.3,0,0.5c-0.2,0-0.2,0-0.2,0.2
		c0,0.1,0.1,0.2,0.2,0.1l0,0.4c-0.1,0-0.1,0.2-0.1,0.4c0,0.2,0.1,0.3,0.3,0.2c0,0,0,0.1,0,0.1c-0.1,0-0.1,0.1-0.1,0.2
		c0,0.1,0,0.2,0.1,0.2c0,0,0,0.1-0.1,0.2c0,0.1-0.1,0.2,0,0.2l0,0.1c0.1,0.2,0.2,0.3,0.2,0.3c-0.1,0.1-0.1,0.2,0,0.4
		c0,0.2,0,0.3,0,0.3c0,0,0,0.1,0.1,0.1c0.1,0,0.1,0.1,0.1,0.1c0,0.1,0,0.1,0,0.1c-0.1,0-0.1,0-0.1,0.1c0,0.1,0,0.1,0.1,0.2
		c0,0.1,0,0.2,0,0.4s0,0.3,0,0.3c0.1,0.1,0.1,0.2,0.2,0.2c0,0,0,0,0,0.1c0,0,0,0.1,0.1,0.1c0,0,0,0,0,0c0,0,0.1,0,0.1,0
		c0,0.1,0,0.1,0,0.1c0,0-0.1,0.1-0.1,0.1l0.1,0.6c0,0,0.1,0,0.2,0c0,0,0,0.1,0,0.1c0,0,0,0-0.1,0c0,0.1,0,0.1,0,0.2
		c0,0.1,0,0.2,0,0.2c0.1,0.1,0.1,0.2,0.1,0.2c0,0,0,0-0.1,0c0,0.1,0,0.3,0,0.5c0,0.3,0,0.4,0,0.5c0,0.2,0,0.3,0.1,0.3v0.5
		c0,0,0,0.1,0.1,0.2c0,0.1,0.1,0.2,0.1,0.2c0,0,0,0.1,0,0.2c0,0.1,0,0.2,0,0.2c0,0,0.1,0.1,0.1,0.1c0,0,0.1,0,0.1,0.1
		c0,0,0,0.1,0,0.1c0,0-0.1,0.1-0.1,0.1c0.1,0,0.1,0.1,0.1,0.1c0,0.1,0,0.2-0.1,0.3c-0.1,0.1-0.1,0.2-0.1,0.2c0,0.1,0,0.2,0.1,0.3
		c0.1,0.1,0.1,0.2,0.1,0.2c0.1,0,0.1,0,0.1,0c0,0.2,0,0.5,0,0.7c-0.2,0-0.2,0-0.2,0.1c0,0.1,0.1,0.1,0.2,0.1v0.5
		c-0.1,0-0.1,0.1-0.1,0.2c0,0.1,0.1,0.2,0.2,0.2c0,0.3,0,0.5,0,0.5c-0.1,0-0.2,0.1-0.2,0.1c0,0.1,0,0.1,0.1,0.2c0,0.1,0.1,0.1,0.2,0
		c0,0.1,0,0.2,0,0.4c0,0.1,0,0.1,0,0.1c-0.1,0.1-0.1,0.2-0.1,0.4c0,0,0.1,0.1,0.1,0.1c0,0,0.1,0.1,0.1,0.1c0,0.1,0,0.2,0,0.3
		c0,0.2,0,0.3,0,0.3c-0.1,0.1-0.1,0.1-0.1,0.1c0,0.1,0,0.1,0.1,0.2c0.1,0,0.1,0,0.2,0c0.1,0,0.2,0.1,0.2,0c0,0,0.1,0,0.1-0.1
		c0,0,0-0.1,0.1-0.1c0.3,0,0.4,0,0.5-0.1c0,0,0.1,0,0.1,0.1s0,0.1,0.1,0.1c0.1,0,0.2,0,0.3-0.1c0.1-0.1,0.2-0.1,0.3-0.1
		c0.1,0.1,0.1,0.1,0.2,0.1c0,0,0,0,0-0.1s0-0.1,0-0.1c0.1,0,0.2,0,0.2-0.1c0,0.1,0.1,0.1,0.2,0.1c0.2-0.1,0.3-0.1,0.4,0
		c0,0,0-0.1,0-0.1c0,0,0-0.1,0-0.1c0,0,0.1,0,0.1,0c0,0,0,0.1,0,0.1c0.1-0.2,0.3-0.2,0.7-0.1c0.1,0.1,0.2,0.1,0.2,0.1
		c0,0,0.1,0,0.1,0c0,0,0.1-0.1,0.1-0.1c0,0,0.1,0,0.1,0c0,0,0.1,0,0.1,0c0,0,0,0,0-0.1c0,0,0-0.1,0-0.1l0.7,0c0,0,0.2,0,0.6,0
		c0.1,0,0.1,0,0.2,0c0.1,0,0.1,0,0.1,0c0,0,0,0,0.1,0c0,0,0.1,0,0.1,0c0,0,0,0,0.1,0c0,0,0.1,0,0.1,0s0.1,0,0.1,0c0.1,0,0.1,0,0.2,0
		c0,0,0-0.1,0.1-0.1c0,0,0.1,0,0.1,0c0.3,0,0.5,0,0.6,0.1c0.1,0,0.1,0,0.2,0c0.1,0,0.1,0,0.2,0c0.1,0,0.3,0,0.6,0c0.3,0,0.5,0,0.5,0
		l0.1,0.2c0.1,0,0.1-0.1,0.1-0.2c0.1-0.1,0.2,0,0.3,0c0.1-0.1,0.3-0.1,0.4,0c0,0.1,0,0.1,0,0.1c0.1,0,0.1,0,0.2-0.1
		c0,0.1,0.1,0.2,0.3,0.3c0.1,0,0.1,0,0.2,0c0.1,0,0.1,0,0.2,0c0,0.1,0,0.2,0,0.2c0.1,0.1,0.2,0.2,0.3,0.2c0,0,0.1,0,0.1,0
		s0.1-0.1,0.1,0c0,0.1,0,0.1,0,0.2c0,0.1,0,0.1,0,0.2c0,0,0,0.1,0.1,0.1c0.1,0.1,0.1,0.1,0.1,0.2c0.1,0.1,0.1,0.1,0.1,0.1
		c0,0.1,0,0.2,0.1,0.3h0.1c0,0,0,0.1-0.1,0.2c0,0.2,0,0.3,0,0.3c-0.1,0-0.2,0.1-0.2,0.2c0,0.1-0.1,0.2-0.1,0.2c0,0.2,0,0.3,0,0.3
		c0,0-0.1,0-0.1,0h0c-0.1,0-0.1,0.1-0.2,0.2c-0.1,0.1-0.2,0.2-0.3,0.2h0c0,0,0,0,0,0c0,0.1,0,0.2,0,0.2h-0.8c0,0-0.1,0-0.1-0.1
		c0,0,0-0.1-0.1-0.1s-0.1,0-0.1,0.1c0,0-0.1,0.1-0.2,0.1c0-0.2-0.1-0.3-0.1-0.3s-0.1,0-0.1,0c0,0,0,0-0.1,0c-0.1,0-0.2,0-0.2,0
		c0-0.1,0-0.2-0.1-0.2c-0.1,0-0.1,0-0.1,0.1c-0.1-0.1-0.2-0.2-0.2-0.2c0,0-0.1,0.1-0.1,0.2c-0.1-0.2-0.1-0.2-0.2-0.2
		c0,0-0.1,0-0.1,0c-0.1,0-0.1,0-0.2,0c0,0-0.1,0-0.1,0c0,0-0.1,0-0.1,0c0,0-0.1,0-0.1,0.1c-0.1,0-0.3,0-0.5-0.1c0,0,0,0.1-0.1,0.1
		c-0.1,0-0.1,0-0.1,0c0-0.1,0-0.2-0.1-0.2S65,62.1,65,62.2c0,0-0.1,0-0.2-0.1c0,0.1-0.2,0.1-0.5,0.1c-0.3,0-0.5,0-0.5,0
		c0,0-0.2-0.1-0.7-0.1c0,0.1-0.1,0.1-0.2,0.1c-0.1,0-0.1,0-0.2-0.1c-0.2,0-0.3,0.1-0.3,0.2c-0.1,0-0.2,0-0.4,0c-0.1,0-0.2,0-0.2,0
		c-0.1-0.1-0.1-0.1-0.3-0.1c-0.1,0-0.1,0.1-0.1,0.2c0,0-0.2,0-0.4,0s-0.4,0-0.5,0c0,0,0,0,0,0c0,0-0.1,0-0.1,0c0,0,0,0-0.1,0
		c-0.1,0.1-0.4,0.1-0.9,0.1c-0.1,0-0.2,0.1-0.3,0.2l-0.4,0c-0.1,0-0.1,0-0.2,0c0,0-0.1,0-0.2,0l-0.1,0.3c-0.3,0-0.5,0-0.6,0
		c0,0,0,0.1-0.1,0.2c0,0-0.1,0-0.1,0c0,0-0.1,0-0.1,0c0-0.1-0.1-0.1-0.3-0.1c-0.1,0-0.3,0-0.3,0c0,0,0,0.1,0,0.1c0,0,0,0.1,0,0.1
		c-0.1,0-0.1,0-0.1-0.1c0,0-0.1-0.1-0.1-0.1c-0.1,0.1-0.2,0.1-0.3,0.1c0,0,0-0.1,0-0.1c0,0,0.1,0,0.1-0.1h-0.2c0-0.1,0-0.1,0-0.1
		c0,0-0.1,0-0.1-0.1c0-0.1-0.1-0.2-0.2-0.2l0-0.2c-0.1,0-0.2,0-0.3-0.1c-0.1-0.1-0.2-0.1-0.2-0.1c0.1-0.1,0-0.2-0.3-0.3
		c0-0.1,0-0.2,0-0.3c0,0,0,0-0.1,0c0-0.2,0-0.4,0.1-0.4c0,0,0-0.1,0-0.1c0,0-0.1,0-0.1-0.1c0,0,0-0.1,0.1-0.1c0.1,0,0.1,0,0.1-0.1
		c0-0.1-0.1-0.1-0.2-0.1v-0.1c0.1,0,0.1,0,0.2,0c0,0,0,0,0-0.1c0,0,0-0.1,0-0.1c0,0,0.1,0,0.2,0c0-0.1,0-0.3,0-0.6
		c0-0.3,0-0.5,0-0.6c0.1,0,0.1-0.1,0.1-0.1c0,0,0-0.1-0.1-0.1c0-0.6,0-1.2,0-1.8c0-0.2,0-0.4,0-0.6c0.2-0.2,0.1-0.4-0.1-0.4l0-0.4
		c0,0,0-0.2,0-0.5c0-0.6-0.1-0.9-0.1-0.9c0.1-0.2,0.1-0.3,0-0.4c0-0.1,0-0.3,0-0.4c0-0.1,0-0.3,0-0.4c0-0.1-0.1-0.2-0.2-0.2
		c0,0,0-0.1,0-0.1c0-0.1,0-0.1,0-0.1c0,0,0.1-0.1,0.1-0.1c0,0,0-0.1,0-0.1c0-0.1,0-0.1,0-0.1c-0.1-0.1-0.1-0.1-0.2-0.1
		c0,0,0-0.1,0-0.1c0,0,0,0,0.1,0c0.1,0,0.1,0,0.1,0c0,0-0.1-0.1-0.2-0.1c0-0.1,0-0.2,0.1-0.3c0-0.3-0.1-0.5-0.1-0.5
		c-0.1,0-0.1,0-0.1,0c0-0.1,0-0.1,0-0.1c0.2,0,0.2,0,0.2-0.1c0,0,0-0.1-0.1-0.1c0,0-0.1,0-0.2,0c0-0.1,0-0.1,0-0.2h0.1
		c0,0,0.1,0,0.1-0.1c0,0,0-0.1,0-0.1c0,0,0,0,0-0.1c0-0.1,0-0.2,0-0.3c0-0.2,0-0.3,0-0.3c0,0,0-0.1-0.1-0.1c0,0-0.1-0.1-0.1-0.1
		c0-0.1,0-0.2,0-0.4c0,0,0-0.1,0-0.2s0-0.2,0-0.2c0,0,0-0.1-0.1-0.1c0,0-0.1,0-0.1-0.1l0.1-0.2c0-0.1-0.1-0.2-0.1-0.5
		c0-0.2,0-0.4-0.1-0.5c0,0-0.1-0.1-0.1-0.3s0-0.3-0.1-0.3c0,0-0.1,0-0.1,0s0,0-0.1,0c-0.1-0.1,0-0.3,0.1-0.4c0,0,0-0.1,0-0.1
		c0-0.1,0-0.1,0-0.1s-0.1-0.1-0.3-0.1c0,0,0-0.1,0.1-0.1V45c-0.1,0-0.1-0.1-0.1-0.1c0,0,0-0.1,0-0.3c0-0.2,0-0.3-0.1-0.3
		c0,0,0-0.1,0-0.1c0-0.1,0-0.2,0-0.3s0-0.3,0-0.3c0,0,0-0.1-0.1-0.1c0,0-0.1,0-0.1-0.1c0.1-0.1,0.1-0.1,0-0.2c0-0.1-0.1-0.2-0.2-0.2
		c0-0.3,0-0.4,0.1-0.4c0-0.1,0-0.3-0.1-0.4c-0.1-0.1-0.1-0.3-0.1-0.4C53,41.5,53,41.5,53,41.4c0,0,0,0,0.1,0c0,0,0.1,0,0.1,0
		s0-0.1,0-0.1c0-0.1,0-0.1,0-0.1c0.3,0,0.4-0.2,0.3-0.5c0.4-0.1,0.6-0.2,0.7-0.4C54.2,40.2,54.4,40.2,54.4,40.2z M54.1,40.2
		c0.1,0,0.2,0,0.3,0c0,0.1,0.1,0.1,0.3,0.1c0.1,0,0.2,0,0.2,0c0,0,0,0.1,0,0.1c0,0,0,0.1,0,0.1c0.1,0,0.2,0,0.3,0
		c0.2,0.1,0.2,0,0.2-0.1c0.1,0,0.1,0.2,0.1,0.4c0,0,0.1,0,0.3,0c0,0.1,0,0.2,0.1,0.2c0.1,0.1,0.1,0.1,0.1,0.1l0.1,0c0,0,0,0.1,0,0.2
		c0,0.1,0,0.1,0,0.2c0,0.1,0.1,0.2,0.2,0.3c0,0.2,0,0.4,0,0.4c0,0.1,0.2,0.1,0.4,0.1c0,0.1,0,0.3,0,0.5c-0.2,0-0.2,0-0.2,0.2
		c0,0.1,0.1,0.2,0.2,0.1l0,0.4c-0.1,0-0.1,0.2-0.1,0.4c0,0.2,0.1,0.3,0.3,0.2c0,0,0,0.1,0,0.1c-0.1,0-0.1,0.1-0.1,0.2
		c0,0.1,0,0.2,0.1,0.2c0,0,0,0.1-0.1,0.2c0,0.1-0.1,0.2,0,0.2l0,0.1c0.1,0.2,0.2,0.3,0.2,0.3c-0.1,0.1-0.1,0.2,0,0.4
		c0,0.2,0,0.3,0,0.3c0,0,0,0.1,0.1,0.1c0.1,0,0.1,0.1,0.1,0.1c0,0.1,0,0.1,0,0.1c-0.1,0-0.1,0-0.1,0.1c0,0.1,0,0.1,0.1,0.2
		c0,0.1,0,0.2,0,0.4s0,0.3,0,0.3c0.1,0.1,0.1,0.2,0.2,0.2c0,0,0,0,0,0.1c0,0,0,0.1,0.1,0.1c0,0,0,0,0,0c0,0,0.1,0,0.1,0
		c0,0.1,0,0.1,0,0.1c0,0-0.1,0.1-0.1,0.1l0.1,0.6c0,0,0.1,0,0.2,0c0,0,0,0.1,0,0.1c0,0,0,0-0.1,0c0,0.1,0,0.1,0,0.2
		c0,0.1,0,0.2,0,0.2c0.1,0.1,0.1,0.2,0.1,0.2c0,0,0,0-0.1,0c0,0.1,0,0.3,0,0.5c0,0.3,0,0.4,0,0.5c0,0.2,0,0.3,0.1,0.3v0.5
		c0,0,0,0.1,0.1,0.2c0,0.1,0.1,0.2,0.1,0.2c0,0,0,0.1,0,0.2c0,0.1,0,0.2,0,0.2c0,0,0.1,0.1,0.1,0.1c0,0,0.1,0,0.1,0.1
		c0,0,0,0.1,0,0.1c0,0-0.1,0.1-0.1,0.1c0.1,0,0.1,0.1,0.1,0.1c0,0.1,0,0.2-0.1,0.3c-0.1,0.1-0.1,0.2-0.1,0.2c0,0.1,0,0.2,0.1,0.3
		c0.1,0.1,0.1,0.2,0.1,0.2c0.1,0,0.1,0,0.1,0c0,0.2,0,0.5,0,0.7c-0.2,0-0.2,0-0.2,0.1c0,0.1,0.1,0.1,0.2,0.1v0.5
		c-0.1,0-0.1,0.1-0.1,0.2c0,0.1,0.1,0.2,0.2,0.2c0,0.3,0,0.5,0,0.5c-0.1,0-0.2,0.1-0.2,0.1c0,0.1,0,0.1,0.1,0.2c0,0.1,0.1,0.1,0.2,0
		c0,0.1,0,0.2,0,0.4c0,0.1,0,0.1,0,0.1c-0.1,0.1-0.1,0.2-0.1,0.4c0,0,0.1,0.1,0.1,0.1c0,0,0.1,0.1,0.1,0.1c0,0.1,0,0.2,0,0.3
		c0,0.2,0,0.3,0,0.3c-0.1,0.1-0.1,0.1-0.1,0.1c0,0.1,0,0.1,0.1,0.2c0.1,0,0.1,0,0.2,0c0.1,0,0.2,0.1,0.2,0c0,0,0.1,0,0.1-0.1
		c0,0,0-0.1,0.1-0.1c0.3,0,0.4,0,0.5-0.1c0,0,0.1,0,0.1,0.1s0,0.1,0.1,0.1c0.1,0,0.2,0,0.3-0.1c0.1-0.1,0.2-0.1,0.3-0.1
		c0.1,0.1,0.1,0.1,0.2,0.1c0,0,0,0,0-0.1s0-0.1,0-0.1c0.1,0,0.2,0,0.2-0.1c0,0.1,0.1,0.1,0.2,0.1c0.2-0.1,0.3-0.1,0.4,0
		c0,0,0-0.1,0-0.1c0,0,0-0.1,0-0.1c0,0,0.1,0,0.1,0c0,0,0,0.1,0,0.1c0.1-0.2,0.3-0.2,0.7-0.1c0.1,0.1,0.2,0.1,0.2,0.1
		c0,0,0.1,0,0.1,0c0,0,0.1-0.1,0.1-0.1c0,0,0.1,0,0.1,0c0,0,0.1,0,0.1,0c0,0,0,0,0-0.1c0,0,0-0.1,0-0.1l0.7,0c0,0,0.2,0,0.6,0
		c0.1,0,0.1,0,0.2,0c0.1,0,0.1,0,0.1,0c0,0,0,0,0.1,0c0,0,0.1,0,0.1,0c0,0,0,0,0.1,0c0,0,0.1,0,0.1,0s0.1,0,0.1,0c0.1,0,0.1,0,0.2,0
		c0,0,0-0.1,0.1-0.1c0,0,0.1,0,0.1,0c0.3,0,0.5,0,0.6,0.1c0.1,0,0.1,0,0.2,0c0.1,0,0.1,0,0.2,0c0.1,0,0.3,0,0.6,0c0.3,0,0.5,0,0.5,0
		l0.1,0.2c0.1,0,0.1-0.1,0.1-0.2c0.1-0.1,0.2,0,0.3,0c0.1-0.1,0.3-0.1,0.4,0c0,0.1,0,0.1,0,0.1c0.1,0,0.1,0,0.2-0.1
		c0,0.1,0.1,0.2,0.3,0.3c0.1,0,0.1,0,0.2,0c0.1,0,0.1,0,0.2,0c0,0.1,0,0.2,0,0.2c0.1,0.1,0.2,0.2,0.3,0.2c0,0,0.1,0,0.1,0
		s0.1-0.1,0.1,0c0,0.1,0,0.1,0,0.2c0,0.1,0,0.1,0,0.2c0,0,0.1,0.1,0.1,0.1c0,0.1,0.1,0.1,0.1,0.2c0.1,0.1,0.1,0.1,0.1,0.1
		c0,0.1,0,0.2,0.1,0.3h0.1c0,0,0,0.1-0.1,0.2c0,0.2,0,0.3,0,0.3c-0.1,0-0.2,0.1-0.2,0.2c0,0.1-0.1,0.2-0.1,0.2c0,0.2,0,0.3,0,0.3
		c0,0-0.1,0-0.1,0h0c-0.1,0-0.1,0.1-0.2,0.2c-0.1,0.1-0.2,0.2-0.3,0.2h0c0,0,0,0,0,0c0,0.1,0,0.2,0,0.2h-0.8c0,0-0.1,0-0.1-0.1
		c0,0,0-0.1-0.1-0.1s-0.1,0-0.1,0.1c0,0-0.1,0.1-0.2,0.1c0-0.2-0.1-0.3-0.1-0.3s-0.1,0-0.1,0c0,0,0,0-0.1,0c-0.1,0-0.2,0-0.2,0
		c0-0.1,0-0.2-0.1-0.2c-0.1,0-0.1,0-0.1,0.1c-0.1-0.1-0.2-0.2-0.2-0.2c0,0-0.1,0.1-0.1,0.2c-0.1-0.2-0.1-0.2-0.2-0.2
		c0,0-0.1,0-0.1,0c-0.1,0-0.1,0-0.2,0c0,0-0.1,0-0.1,0c0,0-0.1,0-0.1,0c0,0-0.1,0-0.1,0.1c-0.1,0-0.3,0-0.5-0.1c0,0,0,0.1-0.1,0.1
		c-0.1,0-0.1,0-0.1,0c0-0.1,0-0.2-0.1-0.2S65,62.1,65,62.2c0,0-0.1,0-0.2-0.1c0,0.1-0.2,0.1-0.5,0.1c-0.3,0-0.5,0-0.5,0
		c0,0-0.2-0.1-0.7-0.1c0,0.1-0.1,0.1-0.2,0.1c-0.1,0-0.1,0-0.2-0.1c-0.2,0-0.3,0.1-0.3,0.2c-0.1,0-0.2,0-0.4,0c-0.1,0-0.2,0-0.2,0
		c-0.1-0.1-0.1-0.1-0.3-0.1c-0.1,0-0.1,0.1-0.1,0.2c0,0-0.2,0-0.4,0s-0.4,0-0.5,0c0,0,0,0,0,0c0,0-0.1,0-0.1,0c0,0,0,0-0.1,0
		c-0.1,0.1-0.4,0.1-0.9,0.1c-0.1,0-0.2,0.1-0.3,0.2l-0.4,0c-0.1,0-0.1,0-0.2,0c0,0-0.1,0-0.2,0l-0.1,0.3c-0.3,0-0.5,0-0.6,0
		c0,0,0,0.1-0.1,0.2c0,0-0.1,0-0.1,0c0,0-0.1,0-0.1,0c0-0.1-0.1-0.1-0.3-0.1c-0.1,0-0.2,0-0.3,0c0,0,0,0.1,0,0.1c0,0,0,0.1,0,0.1
		c-0.1,0-0.1,0-0.1-0.1c0,0-0.1-0.1-0.1-0.1c-0.1,0.1-0.2,0.1-0.3,0.1c0,0,0-0.1,0-0.1c0,0,0.1,0,0.1-0.1h-0.2c0-0.1,0-0.1,0-0.1
		c0,0-0.1,0-0.1-0.1c0-0.1-0.1-0.2-0.2-0.2l0-0.2c-0.1,0-0.2,0-0.3-0.1c-0.1-0.1-0.2-0.1-0.2-0.1c0.1-0.1,0-0.2-0.3-0.3
		c0-0.1,0-0.2,0-0.3c0,0,0,0-0.1,0c0-0.2,0-0.4,0.1-0.4c0,0,0-0.1,0-0.1c0,0-0.1,0-0.1-0.1c0,0,0-0.1,0.1-0.1c0.1,0,0.1,0,0.1-0.1
		c0-0.1-0.1-0.1-0.2-0.1v-0.1c0.1,0,0.1,0,0.2,0c0,0,0,0,0-0.1c0,0,0-0.1,0-0.1c0,0,0.1,0,0.2,0c0-0.1,0-0.3,0-0.6
		c0-0.3,0-0.5,0-0.6c0.1,0,0.1-0.1,0.1-0.1c0,0,0-0.1-0.1-0.1c0-0.6,0-1.2,0-1.8c0-0.2,0-0.4,0-0.6c0.2-0.2,0.1-0.4-0.1-0.4l0-0.4
		c0,0,0-0.2,0-0.5c0-0.6-0.1-0.9-0.1-0.9c0.1-0.2,0.1-0.3,0-0.4c0-0.1,0-0.3,0-0.4c0-0.1,0-0.3,0-0.4c0-0.1-0.1-0.2-0.2-0.2
		c0,0,0-0.1,0-0.1c0-0.1,0-0.1,0-0.1c0,0,0.1-0.1,0.1-0.1c0,0,0-0.1,0-0.1c0-0.1,0-0.1,0-0.1c-0.1-0.1-0.1-0.1-0.2-0.1
		c0,0,0-0.1,0-0.1c0,0,0,0,0.1,0c0.1,0,0.1,0,0.1,0c0,0-0.1-0.1-0.2-0.1c0-0.1,0-0.2,0.1-0.3c0-0.3-0.1-0.5-0.1-0.5
		c-0.1,0-0.1,0-0.1,0v-0.1c0.2,0,0.2,0,0.2-0.1c0,0,0-0.1-0.1-0.1c0,0-0.1,0-0.2,0c0-0.1,0-0.1,0-0.2h0.1c0,0,0.1,0,0.1-0.1
		c0,0,0-0.1,0-0.1c0,0,0,0,0-0.1c0-0.1,0-0.2,0-0.3c0-0.2,0-0.3,0-0.3c0,0,0-0.1-0.1-0.1c0,0-0.1-0.1-0.1-0.1c0-0.1,0-0.2,0-0.4
		c0,0,0-0.1,0-0.2s0-0.2,0-0.2c0,0,0-0.1-0.1-0.1c0,0-0.1,0-0.1-0.1l0.1-0.2c0-0.1-0.1-0.2-0.1-0.5c0-0.2,0-0.4-0.1-0.5
		c0,0-0.1-0.1-0.1-0.3s0-0.3-0.1-0.3c0,0-0.1,0-0.1,0s0,0-0.1,0c-0.1-0.1,0-0.3,0.1-0.4c0,0,0-0.1,0-0.1c0-0.1,0-0.1,0-0.1
		s-0.1-0.1-0.3-0.1c0,0,0-0.1,0.1-0.1V45c-0.1,0-0.1-0.1-0.1-0.1c0,0,0-0.1,0-0.3c0-0.2,0-0.3-0.1-0.3c0,0,0-0.1,0-0.1
		c0-0.1,0-0.2,0-0.3s0-0.3,0-0.3c0,0,0-0.1-0.1-0.1c0,0-0.1,0-0.1-0.1c0.1-0.1,0.1-0.1,0-0.2c0-0.1-0.1-0.2-0.2-0.2
		c0-0.3,0-0.4,0.1-0.4c0-0.1,0-0.3-0.1-0.4c-0.1-0.1-0.1-0.3-0.1-0.4C53,41.5,53,41.5,53,41.4c0,0,0,0,0.1,0c0-0.1,0-0.2,0-0.2
		c0.3,0,0.4-0.2,0.3-0.5C53.9,40.5,54.1,40.4,54.1,40.2z"/>
	<path fill="#D93427" d="M74.3,40.4c0.2,0,0.4,0,0.5,0.1c0.1,0,0.1,0,0.2,0c0.1,0.1,0.1,0.1,0.2,0.1c0,0,0.1,0,0.1,0
		c0,0,0.1,0,0.1,0c0.1,0,0.1,0,0.3,0c0.1,0,0.2,0,0.3,0c0.1,0,0.1,0,0.1,0c0,0,0.1,0,0.1,0c0,0,0.1,0,0.1,0c0,0,0,0,0.1,0
		c0,0,0.1,0,0.1,0s0.1,0,0.1,0c0.1,0,0.1,0,0.1,0c0,0,0.1,0,0.1,0c0,0,0.1,0,0.1,0c0.3,0.1,0.4,0.1,0.4,0.1c0.1-0.1,0.1-0.1,0.2-0.1
		c0.1,0.1,0.1,0.2,0.1,0.2c0.2,0.1,0.3,0.1,0.6,0c0.1-0.1,0.1-0.1,0.1-0.1c0,0,0.1,0.1,0.1,0.2c0.1,0,0.2,0.1,0.3,0.1
		c0.1,0,0.2,0,0.3,0.1c0,0,0.1,0,0.1,0c0,0,0,0,0.1,0l0.2,0.1H80c0.1,0,0.2,0.1,0.3,0.1c0.2,0,0.2,0.1,0.3,0.1c0.1,0,0.3,0,0.5,0
		c0.3,0,0.4,0,0.5,0c0,0,0,0.1,0,0.1c0,0,0.1,0,0.1,0c0.2,0,0.3,0,0.5-0.1c0,0,0,0,0,0.1v0c0,0,0.1,0.1,0.3,0.1
		c0.2,0,0.3,0.1,0.3,0.1c0,0,0.1,0,0.2,0c0.1,0,0.2,0,0.2,0c0,0,0.1,0,0.1,0c0,0,0.1,0,0.1,0v0.1c0,0.1,0.1,0.1,0.3,0.1
		c0.1,0,0.1,0,0.2,0l0.1,0.1c0.1,0,0.2,0,0.3,0c0.1,0,0.2,0,0.3,0c0,0,0.1,0.1,0.2,0.2c0.1,0.1,0.1,0.1,0.1,0.1c0,0,0.1,0,0.2,0
		c0.1,0,0.1-0.1,0.2,0c0,0.2,0.1,0.3,0.3,0.2c0.1,0.1,0.2,0.1,0.3,0.2c0.1,0.1,0.2,0.2,0.3,0.2c0.1,0,0.3,0,0.4,0.2
		c0,0.1,0.1,0.1,0.1,0.1c0,0,0,0,0,0c0,0,0.1,0,0.1,0c0,0,0.1,0.1,0.2,0.2c0.1,0.1,0.1,0.2,0.2,0.2c0.2,0.1,0.3,0.1,0.3,0.1
		c0,0,0,0.1,0,0.1c0,0,0,0.1,0,0.1c0,0.1,0.1,0.1,0.2,0.2c0.1,0,0.2,0.1,0.2,0.1c0,0,0,0.1,0,0.2c0,0.1,0,0.1,0.1,0.2
		s0.1,0.1,0.1,0.2l0.1,0.1c0,0.2,0,0.3,0.1,0.4c0,0,0,0.1,0,0.3c0,0.2,0.1,0.3,0.1,0.3c0,0,0,0.1,0,0.2c0,0.1,0,0.2,0,0.2
		c0,0.1,0,0.2,0,0.2c0,0,0,0.1,0,0.2c0,0.1,0,0.1,0,0.2c0,0,0,0.3,0,0.7c0,0-0.1,0-0.1,0c0,0.1,0,0.2,0,0.3c0,0.1,0,0.2,0,0.2
		c0,0,0,0.1-0.1,0.1c0,0.2,0,0.3-0.1,0.4c-0.1,0.1-0.1,0.2-0.1,0.3c-0.1,0.1-0.3,0.3-0.5,0.7c-0.1,0-0.1,0-0.1,0.1c0,0,0,0.1,0,0.1
		c0,0-0.1,0.1-0.1,0.1c0,0-0.1,0-0.1,0c0,0,0,0.1-0.1,0.1c0,0.1-0.1,0.1-0.1,0.1c-0.2,0-0.3,0.2-0.3,0.6c-0.3,0.1-0.4,0.3-0.5,0.4
		c-0.3,0.2-0.4,0.4-0.4,0.5c-0.1,0.1-0.2,0.2-0.3,0.3c-0.1,0.1-0.2,0.2-0.3,0.2H85l-0.4,0.5h-0.2c0,0-0.1,0.1-0.2,0.2
		c-0.1,0.1-0.3,0.2-0.4,0.2c0,0.1-0.1,0.3-0.3,0.4c-0.2,0.1-0.3,0.2-0.3,0.2c0,0-0.1,0-0.3,0.1c0,0-0.1,0-0.1,0c0,0,0,0-0.1,0
		c0,0-0.2,0.1-0.4,0.3c-0.1,0-0.3,0-0.4,0.1c-0.1,0.1-0.1,0.1-0.2,0.1c0,0,0,0,0,0c0,0-0.1,0-0.1,0c0,0-0.1,0.1-0.2,0.2
		c-0.1,0.1-0.2,0.1-0.2,0.1c-0.1,0-0.2,0-0.3,0.1c-0.1,0.1-0.1,0.1-0.2,0.1c0,0-0.1,0-0.1,0.1c0,0-0.1,0-0.1,0c0,0-0.1,0-0.1,0
		c-0.1,0.1-0.2,0.2-0.5,0.3c-0.1,0-0.2,0-0.3,0c0,0.1,0,0.2,0.1,0.3c0.1,0.1,0.1,0.2,0,0.3c0,0,0,0.1,0,0.1c0,0,0,0,0,0.1
		c0,0,0,0.1,0,0.1c0,0,0,0.1,0,0.1c0,0,0,0.1,0,0.1c0,0,0,0.1,0,0.1c0,0.1,0,0.2,0,0.4s0,0.3,0,0.4c0,0,0,0.1,0.1,0.2
		c0,0.1,0.1,0.1,0.1,0.2c0,0.1,0,0.2,0,0.2c0,0,0,0.1,0,0.1c0,0,0,0.1,0,0.1c0,0,0.1,0.1,0.1,0.1c0,0,0,0,0,0.1c0,0,0,0.2,0,0.7
		c0.1,0,0.1,0.1,0.1,0.1c0,0,0,0.1,0,0.2c0,0.1,0,0.1-0.1,0.2c0,0.3,0,0.4,0.1,0.4c0,0,0.1,0,0.1,0c-0.1,0.1-0.1,0.3,0,0.5
		c0,0.1,0,0.2,0,0.2c0,0,0.1,0,0.1,0v0c0,0.1,0,0.2,0,0.4c-0.1,0.1-0.1,0.2-0.1,0.4c0,0.2,0,0.4,0,0.5c-0.1,0-0.1,0-0.1,0
		c0,0-0.1,0-0.1,0c-0.1,0-0.1,0.1-0.1,0.2c0,0.1,0,0.2,0,0.2c0,0.1-0.1,0.1-0.2,0.2s-0.2,0.2-0.2,0.2c0,0.1-0.1,0.2-0.1,0.1
		c0-0.2,0-0.3,0-0.3c-0.2,0-0.3,0.1-0.5,0.2c-0.1,0.1-0.2,0.1-0.2,0.1c-0.1-0.2-0.1-0.3-0.2-0.3c0,0,0,0-0.1,0c0,0-0.1,0.1-0.1,0
		c0-0.1-0.1-0.1-0.1-0.2c-0.1-0.1-0.1-0.1-0.1-0.2c-0.1,0-0.1,0.1-0.1,0.2C78.1,63.1,78,63,78,63c-0.1-0.2-0.1-0.3-0.1-0.3h-0.1
		c-0.2-0.1-0.3-0.3-0.3-0.4c0-0.1,0-0.2,0-0.2c0,0,0-0.1-0.1-0.1c0,0-0.1-0.1-0.1-0.1l0-0.1c0-0.1,0-0.2-0.1-0.3
		c0-0.1-0.1-0.2-0.1-0.2c0,0,0-0.1-0.1-0.1c0-0.1,0-0.1,0-0.2c0-0.1,0-0.2,0-0.2c0,0,0-0.1-0.1-0.1c0-0.1-0.1-0.1-0.1-0.1
		c0-0.1,0-0.2,0-0.4c0-0.2,0-0.3,0-0.4c-0.1,0-0.1-0.1-0.2-0.3c0-0.2-0.1-0.2-0.2-0.2c0,0,0-0.1,0-0.1c0,0,0.1,0,0.1,0c0,0,0,0,0,0
		c0,0,0-0.1,0-0.3c0-0.2,0-0.3,0-0.4c0,0,0-0.1,0-0.1c0,0,0-0.1,0-0.1c0,0,0-0.1,0-0.2c-0.1,0-0.1-0.1-0.1-0.4s0-0.4,0-0.4
		c0,0,0-0.1,0-0.1c-0.1-0.3-0.1-0.4-0.1-0.4c0-0.2,0-0.5,0-0.8c-0.1,0-0.1,0-0.2-0.1c0-0.1-0.1-0.1-0.1-0.1c0,0,0-0.1,0-0.1
		c0,0,0,0,0,0c0,0,0-0.1,0-0.2c0-0.1,0-0.2,0-0.2c0,0-0.1-0.1-0.1-0.1c0,0-0.1-0.1-0.1-0.1c0.1-0.2,0-0.3-0.2-0.3
		c0-0.1,0-0.2,0.1-0.3c-0.1-0.3-0.1-0.4-0.1-0.4c0,0,0-0.1,0-0.1c0,0,0.1-0.1,0.1-0.1c0-0.1,0-0.2-0.1-0.3c0-0.1,0-0.2,0-0.3
		c-0.1-0.1-0.1-0.2-0.1-0.2c0,0,0,0,0-0.1s0-0.1,0-0.1c0-0.1,0-0.2,0-0.4c0-0.1,0-0.2,0-0.2c0-0.1,0-0.1,0-0.2
		c0-0.1-0.1-0.1-0.1-0.1c0,0,0-0.1,0-0.1c0,0,0-0.1,0-0.1c0-0.1-0.1-0.3-0.2-0.4c0-0.2,0-0.4-0.1-0.5c-0.1,0.1-0.1,0.1-0.1,0
		c0-0.1,0-0.1,0-0.1s0,0,0-0.1c0,0,0-0.1,0-0.2c0-0.1,0-0.2,0-0.2c0,0,0-0.1,0-0.1c0,0,0-0.1,0-0.1c0,0,0-0.1,0-0.1c0,0,0-0.1,0-0.1
		c0-0.2-0.1-0.3-0.2-0.4c0.1-0.4,0-0.6-0.1-0.6c0,0,0-0.1,0-0.1c0-0.1,0-0.1,0-0.1c0-0.1,0-0.1,0-0.1c0,0,0,0,0-0.1c0,0,0-0.1,0-0.1
		c0,0,0,0,0-0.1c0,0,0-0.1,0-0.1c0-0.3,0-0.4-0.1-0.4c-0.1-0.6-0.1-0.9-0.2-1.1c-0.1-0.1-0.1-0.2-0.1-0.2c0-0.1,0-0.2,0-0.3
		c0-0.1,0-0.2,0-0.3c-0.1-0.1-0.1-0.1-0.1-0.1c0,0,0-0.1,0-0.3c0-0.1,0-0.3,0-0.4c0.1-0.1,0.2-0.1,0.3-0.1c0-0.1,0-0.1,0.1-0.2
		c0-0.1,0.1-0.1,0.1-0.1c0-0.1,0-0.1-0.1-0.1c-0.1,0-0.1,0-0.1,0s-0.1,0-0.2,0c-0.1,0-0.1-0.1-0.2-0.1c-0.2,0-0.3,0-0.3-0.1
		c-0.1,0-0.1,0-0.2,0c-0.1-0.1-0.2-0.1-0.2-0.1c0,0,0-0.1-0.1-0.2c-0.1,0-0.1,0-0.2,0c0-0.1-0.1-0.2-0.2-0.3
		c-0.1-0.1-0.1-0.2-0.1-0.3c0,0-0.1,0-0.1,0c0-0.1-0.1-0.2-0.2-0.2c-0.1-0.1-0.2-0.1-0.2-0.1c0,0,0-0.1,0-0.2c0-0.1,0-0.1,0-0.2
		c0-0.1,0-0.1,0-0.1c0,0,0-0.1,0-0.1c0,0,0-0.1,0-0.1s0,0,0-0.1c0,0,0-0.1,0-0.1c0-0.1,0-0.1,0-0.2c0-0.1,0-0.2,0-0.2
		c0.1-0.1,0.2-0.1,0.3-0.2c0.1-0.1,0.2-0.1,0.3-0.2c0,0,0-0.1,0-0.1c0,0,0.1-0.1,0.1-0.1c0.2,0,0.2,0,0.3,0h0.1c0,0,0.1,0,0.2,0
		c0.1,0,0.2,0,0.3,0c0-0.1,0.1-0.1,0.2,0c0.1,0.1,0.2,0.1,0.2,0C74.2,40.2,74.2,40.3,74.3,40.4C74.3,40.4,74.3,40.4,74.3,40.4z
		 M74.1,40.2c0,0,0.1,0.1,0.1,0.1c0,0,0.1,0.1,0.1,0.1c0.2,0,0.4,0,0.5,0.1c0.1,0,0.1,0,0.2,0c0.1,0.1,0.1,0.1,0.2,0.1
		c0,0,0.1,0,0.1,0c0,0,0.1,0,0.1,0c0.1,0,0.1,0,0.3,0c0.1,0,0.2,0,0.3,0c0.1,0,0.1,0,0.1,0c0,0,0.1,0,0.1,0c0,0,0.1,0,0.1,0
		c0,0,0,0,0.1,0c0,0,0.1,0,0.1,0s0.1,0,0.1,0c0.1,0,0.1,0,0.1,0c0,0,0.1,0,0.1,0c0,0,0.1,0,0.1,0c0.3,0.1,0.4,0.1,0.4,0.1
		c0.1-0.1,0.1-0.1,0.2-0.1c0.1,0.1,0.1,0.2,0.1,0.2c0.2,0.1,0.3,0.1,0.6,0c0.1-0.1,0.1-0.1,0.1-0.1c0,0,0.1,0.1,0.1,0.2
		c0.1,0,0.2,0.1,0.3,0.1c0.1,0,0.2,0,0.3,0.1c0,0,0.1,0,0.1,0c0,0,0,0,0.1,0l0.2,0.1H80c0.1,0,0.2,0.1,0.3,0.1
		c0.2,0,0.2,0.1,0.3,0.1c0.1,0,0.3,0,0.5,0c0.3,0,0.4,0,0.5,0c0,0,0,0.1,0,0.1c0,0,0.1,0,0.1,0c0.2,0,0.3,0,0.5-0.1c0,0,0,0,0,0.1v0
		c0,0,0.1,0.1,0.3,0.1c0.2,0,0.3,0.1,0.3,0.1c0,0,0.1,0,0.2,0c0.1,0,0.2,0,0.2,0c0,0,0.1,0,0.1,0c0,0,0.1,0,0.1,0v0.1
		c0,0.1,0.1,0.1,0.3,0.1c0.1,0,0.1,0,0.2,0l0.1,0.1c0.1,0,0.2,0,0.3,0c0.1,0,0.2,0,0.3,0c0,0,0.1,0.1,0.2,0.2
		c0.1,0.1,0.1,0.1,0.1,0.1c0,0,0.1,0,0.2,0c0.1,0,0.1-0.1,0.2,0c0,0.2,0.1,0.3,0.3,0.2c0.1,0.1,0.2,0.1,0.3,0.2
		c0.1,0.1,0.2,0.2,0.3,0.2c0.1,0,0.3,0,0.4,0.2c0,0.1,0.1,0.1,0.1,0.1c0.1,0,0.1,0,0.1,0c0,0,0.1,0.1,0.2,0.2
		c0.1,0.1,0.1,0.2,0.2,0.2c0.2,0.1,0.3,0.1,0.3,0.1c0,0,0,0.1,0,0.1c0,0,0,0.1,0,0.1c0,0.1,0.1,0.1,0.2,0.2c0.1,0,0.2,0.1,0.2,0.1
		c0,0,0,0.1,0,0.2c0,0.1,0,0.1,0.1,0.2s0.1,0.1,0.1,0.2l0.1,0.1c0,0.2,0,0.3,0.1,0.4c0,0,0,0.1,0,0.3c0,0.2,0.1,0.3,0.1,0.3
		c0,0,0,0.1,0,0.2c0,0.1,0,0.2,0,0.2c0,0.1,0,0.2,0,0.2c0,0,0,0.1,0,0.2c0,0.1,0,0.1,0,0.2c0,0,0,0.3,0,0.7c0,0-0.1,0-0.1,0
		c0,0.1,0,0.2,0,0.3c0,0.1,0,0.2,0,0.2c0,0,0,0.1-0.1,0.1c0,0.2,0,0.3-0.1,0.4c-0.1,0.1-0.1,0.2-0.1,0.3c-0.1,0.1-0.3,0.3-0.5,0.7
		c-0.1,0-0.1,0-0.1,0.1c0,0,0,0.1,0,0.1c0,0-0.1,0.1-0.1,0.1c0,0-0.1,0-0.1,0c0,0,0,0.1-0.1,0.1c0,0.1-0.1,0.1-0.1,0.1
		c-0.2,0-0.3,0.2-0.3,0.6c-0.3,0.1-0.4,0.3-0.5,0.4c-0.3,0.2-0.4,0.4-0.4,0.5c-0.1,0.1-0.2,0.2-0.3,0.3c-0.1,0.1-0.2,0.2-0.3,0.2H85
		l-0.4,0.5h-0.2c0,0-0.1,0.1-0.2,0.2c-0.1,0.1-0.3,0.2-0.4,0.2c0,0.1-0.1,0.3-0.3,0.4c-0.2,0.1-0.3,0.2-0.3,0.2c0,0-0.1,0-0.3,0.1
		c0,0-0.1,0-0.1,0c0,0,0,0-0.1,0c0,0-0.2,0.1-0.4,0.3c-0.1,0-0.3,0-0.4,0.1c-0.1,0.1-0.1,0.1-0.2,0.1c0,0,0,0,0,0c0,0-0.1,0-0.1,0
		c0,0-0.1,0.1-0.2,0.2c-0.1,0.1-0.2,0.1-0.2,0.1c-0.1,0-0.2,0-0.3,0.1c-0.1,0.1-0.1,0.1-0.2,0.1c0,0-0.1,0-0.1,0.1c0,0-0.1,0-0.1,0
		c0,0-0.1,0-0.1,0c-0.1,0.1-0.2,0.2-0.5,0.3c-0.1,0-0.2,0-0.3,0c0,0.1,0,0.2,0.1,0.3c0.1,0.1,0.1,0.2,0,0.3c0,0,0,0.1,0,0.1
		c0,0,0,0,0,0.1c0,0,0,0.1,0,0.1c0,0,0,0.1,0,0.1c0,0,0,0.1,0,0.1c0,0,0,0.1,0,0.1c0,0.1,0,0.2,0,0.4s0,0.3,0,0.4c0,0,0,0.1,0.1,0.2
		c0,0.1,0.1,0.1,0.1,0.2c0,0.1,0,0.2,0,0.2c0,0,0,0.1,0,0.1c0,0,0,0.1,0,0.1c0,0,0.1,0.1,0.1,0.1c0,0,0,0,0,0.1c0,0,0,0.2,0,0.7
		c0.1,0,0.1,0.1,0.1,0.1c0,0,0,0.1,0,0.2c0,0.1,0,0.1-0.1,0.2c0,0.3,0,0.4,0.1,0.4c0,0,0.1,0,0.1,0c-0.1,0.1-0.1,0.3,0,0.5
		c0,0.1,0,0.2,0,0.2c0,0,0.1,0,0.1,0v0c0,0.1,0,0.2,0,0.4c-0.1,0.1-0.1,0.2-0.1,0.4c0,0.2,0,0.4,0,0.5c-0.1,0-0.1,0-0.1,0
		c0,0-0.1,0-0.1,0c-0.1,0-0.1,0.1-0.1,0.2c0,0.1,0,0.2,0,0.2c0,0.1-0.1,0.1-0.2,0.2s-0.2,0.2-0.2,0.2c0,0.1-0.1,0.2-0.1,0.1
		c0-0.2,0-0.3,0-0.3c-0.2,0-0.3,0.1-0.5,0.2c-0.1,0.1-0.2,0.1-0.2,0.1c-0.1-0.2-0.1-0.3-0.2-0.3c0,0,0,0-0.1,0c0,0-0.1,0.1-0.1,0
		c0-0.1-0.1-0.1-0.1-0.2c-0.1-0.1-0.1-0.1-0.1-0.2c-0.1,0-0.1,0.1-0.1,0.2C78.1,63.1,78,63,78,63c-0.1-0.2-0.1-0.3-0.1-0.3h-0.1
		c-0.2-0.1-0.3-0.3-0.3-0.4c0-0.1,0-0.2,0-0.2c0,0,0-0.1-0.1-0.1c0,0-0.1-0.1-0.1-0.1l0-0.1c0-0.1,0-0.2-0.1-0.3
		c0-0.1-0.1-0.2-0.1-0.2c0,0,0-0.1-0.1-0.1c0-0.1,0-0.1,0-0.2c0-0.1,0-0.2,0-0.2c0,0,0-0.1-0.1-0.1c0-0.1-0.1-0.1-0.1-0.1
		c0-0.1,0-0.2,0-0.4c0-0.2,0-0.3,0-0.4c-0.1,0-0.1-0.1-0.2-0.3c0-0.2-0.1-0.2-0.2-0.2c0,0,0-0.1,0-0.1c0,0,0.1,0,0.1,0c0,0,0,0,0,0
		c0,0,0-0.1,0-0.3c0-0.2,0-0.3,0-0.4c0,0,0-0.1,0-0.1c0,0,0-0.1,0-0.1c0,0,0-0.1,0-0.2c-0.1,0-0.1-0.1-0.1-0.4s0-0.4,0-0.4
		c0,0,0-0.1,0-0.1c-0.1-0.3-0.1-0.4-0.1-0.4c0-0.2,0-0.5,0-0.8c-0.1,0-0.1,0-0.2-0.1c0-0.1-0.1-0.1-0.1-0.1c0,0,0-0.1,0-0.1
		c0,0,0,0,0,0c0,0,0-0.1,0-0.2c0-0.1,0-0.2,0-0.2c0,0-0.1-0.1-0.1-0.1c0,0-0.1-0.1-0.1-0.1c0.1-0.2,0-0.3-0.2-0.3
		c0-0.1,0-0.2,0.1-0.3c-0.1-0.3-0.1-0.4-0.1-0.4c0,0,0-0.1,0-0.1c0,0,0.1-0.1,0.1-0.1c0-0.1,0-0.2-0.1-0.3c0-0.1,0-0.2,0-0.3
		c-0.1-0.1-0.1-0.2-0.1-0.2c0,0,0,0,0-0.1s0-0.1,0-0.1c0-0.1,0-0.2,0-0.4c0-0.1,0-0.2,0-0.2c0-0.1,0-0.1,0-0.2
		c0-0.1-0.1-0.1-0.1-0.1c0,0,0-0.1,0-0.1c0,0,0-0.1,0-0.1c0-0.1-0.1-0.3-0.2-0.4c0-0.2,0-0.4-0.1-0.5c-0.1,0.1-0.1,0.1-0.1,0
		c0-0.1,0-0.1,0-0.1s0,0,0-0.1c0,0,0-0.1,0-0.2c0-0.1,0-0.2,0-0.2c0,0,0-0.1,0-0.1c0,0,0-0.1,0-0.1c0,0,0-0.1,0-0.1c0,0,0-0.1,0-0.1
		c0-0.2-0.1-0.3-0.2-0.4c0.1-0.4,0-0.6-0.1-0.6c0,0,0-0.1,0-0.1c0-0.1,0-0.1,0-0.1c0-0.1,0-0.1,0-0.1c0,0,0,0,0-0.1c0,0,0-0.1,0-0.1
		c0,0,0,0,0-0.1c0,0,0-0.1,0-0.1c0-0.3,0-0.4-0.1-0.4c-0.1-0.6-0.1-0.9-0.2-1.1c-0.1-0.1-0.1-0.2-0.1-0.2c0-0.1,0-0.2,0-0.3
		c0-0.1,0-0.2,0-0.3c-0.1-0.1-0.1-0.1-0.1-0.1c0,0,0-0.1,0-0.3c0-0.1,0-0.3,0-0.4c0.1-0.1,0.2-0.1,0.3-0.1c0-0.1,0-0.1,0.1-0.2
		c0-0.1,0.1-0.1,0.1-0.1c0-0.1,0-0.1-0.1-0.1c-0.1,0-0.1,0-0.1,0s-0.1,0-0.2,0c-0.1,0-0.1-0.1-0.2-0.1c-0.2,0-0.3,0-0.3-0.1
		c-0.1,0-0.1,0-0.2,0c-0.1-0.1-0.2-0.1-0.2-0.1c0,0,0-0.1-0.1-0.2c-0.1,0-0.1,0-0.2,0c0-0.1-0.1-0.2-0.2-0.3
		c-0.1-0.1-0.1-0.2-0.1-0.3c0,0-0.1,0-0.1,0c0-0.1-0.1-0.2-0.2-0.2c-0.1-0.1-0.2-0.1-0.2-0.1c0,0,0-0.1,0-0.2c0-0.1,0-0.1,0-0.2
		c0-0.1,0-0.1,0-0.1c0,0,0-0.1,0-0.1c0,0,0-0.1,0-0.1s0,0,0-0.1c0,0,0-0.1,0-0.1c0-0.1,0-0.1,0-0.2c0-0.1,0-0.2,0-0.2
		c0.1-0.1,0.2-0.1,0.3-0.2c0.1-0.1,0.2-0.1,0.3-0.2c0,0,0-0.1,0-0.1c0,0,0.1-0.1,0.1-0.1c0.2,0,0.2,0,0.3,0h0.1c0,0,0.1,0,0.2,0
		c0.1,0,0.2,0,0.3,0c0-0.1,0.1-0.1,0.2,0C74,40.2,74.1,40.2,74.1,40.2z M81.9,45.1c-0.1,0-0.1,0-0.2,0c-0.1,0-0.1-0.1-0.2-0.1
		c-0.1,0-0.2-0.1-0.2-0.1c-0.1,0-0.1,0-0.3,0c-0.1,0-0.2,0-0.2,0c0,0-0.1,0-0.1-0.1c0,0-0.1-0.1-0.1-0.1c0,0-0.1,0-0.1,0
		c0,0-0.1,0-0.1,0c-0.2,0-0.4,0-0.7-0.1l-0.6-0.1c-0.1,0-0.2,0-0.3,0c-0.1,0-0.2,0-0.3,0c-0.1,0.1-0.2,0.1-0.4,0
		c-0.2-0.1-0.3-0.1-0.3-0.1s-0.1,0-0.1,0c0,0-0.1,0-0.1,0c0,0-0.1,0-0.1,0c-0.1,0-0.1,0-0.2,0c-0.1,0-0.2,0-0.2,0.1
		c0,0,0,0.1,0.1,0.2c0,0,0,0.1,0,0.2c0,0.1,0,0.2,0,0.2c0,0,0.1,0.1,0.2,0.1v0.1c0,0,0.1,0.2,0.1,0.4c0,0.1,0,0.1,0.1,0.2
		c0,0.1,0.1,0.1,0.1,0.1c0,0,0,0.1,0,0.3c0,0.1,0,0.3,0,0.3c0,0,0.1,0.1,0.1,0.1s0,0.1,0,0.1c0,0,0,0.1,0,0.2c0,0.1,0,0.2,0,0.2
		c0,0.1,0.1,0.1,0.1,0.2s0.1,0.2,0.1,0.2c0,0,0,0.1,0,0.2c0,0.1,0,0.1,0,0.1c0,0,0,0.1,0,0.1c0,0,0.1,0.1,0.1,0.1c0,0,0,0.1,0,0.2
		c0,0.1,0,0.2,0,0.2c0,0,0,0.1,0,0.1c0,0,0,0.1,0,0.1c0,0.1,0,0.2,0,0.4c0,0,0.1,0.1,0.1,0.1c0,0.1,0,0.3,0,0.5c0,0.2,0,0.3,0,0.4
		c0.1,0,0.1,0.1,0.1,0.2c0,0.1,0,0.2,0,0.2c0,0,0,0.1,0.1,0.1c0,0,0.1,0.1,0.1,0.1c0,0.1,0,0.1,0,0.2s0,0.2,0,0.2c0,0,0,0.1,0.1,0.1
		c0,0,0.1,0.1,0.1,0.1c0,0,0,0.1,0,0.1c0,0.1,0,0.1,0,0.1c0,0,0,0.1,0,0.1c0,0,0,0,0,0c-0.1,0.1-0.1,0.2,0,0.2c0,0,0.1,0,0.2,0
		c0.1,0,0.1-0.1,0.1-0.1c0,0,0.1,0,0.1,0c0.1,0,0.1,0,0.2,0c0,0,0-0.1,0.1-0.1c0.1,0,0.1,0,0.1,0c0,0,0,0,0.1,0c0,0,0.1,0,0.1,0
		c0,0,0.1,0,0.2,0c0.1,0,0.2,0,0.2,0c0,0,0.1-0.1,0.1-0.1c0-0.1,0-0.1,0.1-0.1h0.1c0,0,0.1-0.1,0.2-0.2c0.1-0.1,0.2-0.2,0.3-0.3
		c0.1,0,0.1,0,0.1,0c0.1,0,0.2-0.1,0.3-0.2c0.1-0.1,0.2-0.2,0.3-0.2c0,0,0.1-0.1,0.2-0.2c0.1-0.1,0.2-0.2,0.2-0.2
		c0.4-0.3,0.7-0.5,0.7-0.5c0-0.2,0.2-0.3,0.4-0.4c0-0.1,0.1-0.1,0.1-0.2c0,0,0.1-0.1,0.1-0.2c0-0.1,0.1-0.2,0.1-0.2
		c0.1,0,0.2-0.1,0.3-0.1c0-0.1,0-0.1,0.1-0.2c0.1-0.1,0.1-0.2,0.1-0.2c0.2-0.2,0.3-0.4,0.3-0.5c0,0,0.1-0.1,0.1-0.2
		c0.1-0.1,0.1-0.1,0.1-0.2c0,0,0-0.1,0-0.2c0,0,0-0.1,0-0.1c0,0,0,0,0-0.1c0,0,0-0.1,0-0.1c0,0,0-0.1,0-0.1c0,0,0-0.1,0-0.1
		c0-0.1,0-0.1,0-0.1c0-0.1,0-0.1,0-0.2c0-0.1,0-0.2,0-0.2c-0.1-0.1-0.1-0.1-0.1-0.1c-0.2-0.1-0.4-0.1-0.5-0.2c0,0-0.1-0.1-0.1-0.1
		c0,0-0.1,0-0.1,0s-0.1,0-0.1-0.1c0,0-0.1-0.1-0.1-0.1s-0.1,0-0.2,0c0,0-0.1,0-0.1-0.1c0,0-0.1-0.1-0.1-0.1s-0.1,0-0.1,0
		c-0.1,0-0.1,0-0.1,0c0,0-0.1,0-0.1-0.1c0,0-0.1,0-0.1,0c-0.1,0-0.2,0-0.3,0c-0.1,0-0.2,0-0.2,0c0,0-0.1,0-0.1,0c0,0-0.1,0-0.1,0
		c0,0-0.1,0-0.3,0c0,0-0.1,0-0.1-0.1C82,45.1,82,45.1,81.9,45.1z M82.2,45.3c0,0-0.1,0-0.1-0.1c0,0-0.1,0-0.2,0c-0.1,0-0.1,0-0.2,0
		c-0.1,0-0.1,0-0.2-0.1c-0.1,0-0.2-0.1-0.2-0.1c-0.1,0-0.1,0-0.3,0c-0.1,0-0.2,0-0.2,0c0,0-0.1,0-0.1-0.1c0,0-0.1-0.1-0.1-0.1
		c0,0-0.1,0-0.1,0c0,0-0.1,0-0.1,0c-0.2,0-0.4,0-0.7-0.1l-0.6-0.1c-0.1,0-0.2,0-0.3,0c-0.1,0-0.2,0-0.3,0c-0.1,0.1-0.2,0.1-0.4,0
		c-0.2-0.1-0.3-0.1-0.3-0.1s-0.1,0-0.1,0c0,0-0.1,0-0.1,0c0,0-0.1,0-0.1,0c-0.1,0-0.1,0-0.2,0c-0.1,0-0.2,0-0.2,0.1
		c0,0,0,0.1,0.1,0.2c0,0,0,0.1,0,0.2c0,0.1,0,0.2,0,0.2c0,0,0.1,0.1,0.2,0.1v0.1c0,0,0.1,0.2,0.1,0.4c0,0.1,0,0.1,0.1,0.2
		c0,0.1,0.1,0.1,0.1,0.1c0,0,0,0.1,0,0.3c0,0.1,0,0.3,0,0.3c0,0,0.1,0.1,0.1,0.1s0,0.1,0,0.1c0,0,0,0.1,0,0.2c0,0.1,0,0.2,0,0.2
		c0,0.1,0.1,0.1,0.1,0.2s0.1,0.2,0.1,0.2c0,0,0,0.1,0,0.2c0,0.1,0,0.1,0,0.1c0,0,0,0.1,0,0.1c0,0,0.1,0.1,0.1,0.1c0,0,0,0.1,0,0.2
		c0,0.1,0,0.2,0,0.2c0,0,0,0.1,0,0.1c0,0,0,0.1,0,0.1c0,0.1,0,0.2,0,0.4c0,0,0.1,0.1,0.1,0.1c0,0.1,0,0.3,0,0.5c0,0.2,0,0.3,0,0.4
		c0.1,0,0.1,0.1,0.1,0.2c0,0.1,0,0.2,0,0.2c0,0,0,0.1,0.1,0.1c0,0,0.1,0.1,0.1,0.1c0,0.1,0,0.1,0,0.2s0,0.2,0,0.2c0,0,0,0.1,0.1,0.1
		c0,0,0.1,0.1,0.1,0.1c0,0,0,0.1,0,0.1c0,0.1,0,0.1,0,0.1c0,0,0,0.1,0,0.1c0,0,0,0,0,0c-0.1,0.1-0.1,0.2,0,0.2c0,0,0.1,0,0.2,0
		c0.1,0,0.1-0.1,0.1-0.1c0,0,0.1,0,0.1,0c0.1,0,0.1,0,0.2,0c0,0,0-0.1,0.1-0.1c0.1,0,0.1,0,0.1,0c0,0,0,0,0.1,0c0,0,0.1,0,0.1,0
		c0,0,0.1,0,0.2,0c0.1,0,0.2,0,0.2,0c0,0,0.1-0.1,0.1-0.1c0-0.1,0-0.1,0.1-0.1h0.1c0,0,0.1-0.1,0.2-0.2c0.1-0.1,0.2-0.2,0.3-0.3
		c0.1,0,0.1,0,0.1,0c0.1,0,0.2-0.1,0.3-0.2c0.1-0.1,0.2-0.2,0.3-0.2c0,0,0.1-0.1,0.2-0.2c0.1-0.1,0.2-0.2,0.2-0.2
		c0.4-0.3,0.7-0.5,0.7-0.5c0-0.2,0.2-0.3,0.4-0.4c0-0.1,0.1-0.1,0.1-0.2c0,0,0.1-0.1,0.1-0.2c0-0.1,0.1-0.2,0.1-0.2
		c0.1,0,0.2-0.1,0.3-0.1c0-0.1,0-0.1,0.1-0.2c0.1-0.1,0.1-0.2,0.1-0.2c0.2-0.2,0.3-0.4,0.3-0.5c0,0,0.1-0.1,0.1-0.2
		c0.1-0.1,0.1-0.1,0.1-0.2c0,0,0-0.1,0-0.2c0,0,0-0.1,0-0.1c0,0,0,0,0-0.1c0,0,0-0.1,0-0.1c0-0.1,0-0.1,0-0.2c0-0.1,0-0.1,0-0.1
		c0-0.1,0-0.1,0-0.2c0-0.1,0-0.2,0-0.2c-0.1-0.1-0.1-0.1-0.1-0.1c-0.2-0.1-0.4-0.1-0.5-0.2c0,0-0.1-0.1-0.1-0.1c0,0-0.1,0-0.1,0
		s-0.1,0-0.1-0.1c0,0-0.1-0.1-0.1-0.1s-0.1,0-0.2,0c0,0-0.1,0-0.1-0.1c0,0-0.1-0.1-0.1-0.1s-0.1,0-0.1,0c-0.1,0-0.1,0-0.1,0
		c0,0-0.1,0-0.1-0.1c0,0-0.1,0-0.1,0c-0.1,0-0.2,0-0.3,0c-0.1,0-0.2,0-0.2,0c0,0-0.1,0-0.1,0c0,0-0.1,0-0.1,0
		C82.5,45.3,82.4,45.3,82.2,45.3z"/>
</g>
</svg>
