<?xml version="1.0" encoding="utf-8"?>
<!-- Generator: Adobe Illustrator 19.0.1, SVG Export Plug-In . SVG Version: 6.00 Build 0)  -->
<svg version="1.1" xmlns="http://www.w3.org/2000/svg" xmlns:xlink="http://www.w3.org/1999/xlink" x="0px" y="0px"
	 viewBox="0 0 100 100" enable-background="new 0 0 100 100" xml:space="preserve">
<g id="Layer_1">
	<g>
		<g>
			<path fill="#D93427" d="M29.4,38.9c14.2,0.3,28.4,0.3,42.6-0.2c5.6-0.2,5.6-8.9,0-8.7c-14.2,0.5-28.4,0.5-42.6,0.2
				C23.8,30.1,23.8,38.8,29.4,38.9L29.4,38.9z"/>
		</g>
		<g>
			<path fill="#D93427" d="M24.1,54.5c16.7,0.3,33.3,0.2,50-0.4c5.6-0.2,5.6-8.9,0-8.7c-16.7,0.6-33.3,0.8-50,0.4
				C18.5,45.6,18.5,54.3,24.1,54.5L24.1,54.5z"/>
		</g>
		<g>
			<path fill="#D93427" d="M31.2,70c12.9,0,25.8,0,38.7,0c5.6,0,5.6-8.7,0-8.7c-12.9,0-25.8,0-38.7,0C25.6,61.3,25.6,70,31.2,70
				L31.2,70z"/>
		</g>
	</g>
</g>
<g id="Layer_2" display="none">
	<circle display="inline" fill="none" stroke="#231F20" stroke-miterlimit="10" cx="50" cy="50" r="50"/>
</g>
</svg>
