<?xml version="1.0" encoding="utf-8"?>
<!-- Generator: Adobe Illustrator 19.0.1, SVG Export Plug-In . SVG Version: 6.00 Build 0)  -->
<svg version="1.1" id="Layer_1" xmlns="http://www.w3.org/2000/svg" xmlns:xlink="http://www.w3.org/1999/xlink" x="0px" y="0px"
	 viewBox="0 0 100 100" enable-background="new 0 0 100 100" xml:space="preserve">
<g>
	<path fill="#D93427" d="M12.9,39.2c0,0,0.1,0.1,0.1,0.1s0.1,0.1,0.1,0.1c0.2,0,0.4,0,0.5,0.1c0.1,0,0.1,0,0.2,0
		c0.1,0.1,0.1,0.1,0.2,0.1c0,0,0.1,0,0.1,0c0,0,0.1,0,0.1,0c0.1,0,0.2,0,0.3,0c0.1,0,0.2,0,0.3,0c0.1,0,0.1,0,0.1,0s0.1,0,0.1,0
		c0,0,0.1,0,0.1,0s0,0,0.1,0c0,0,0.1,0,0.1,0c0,0,0.1,0,0.1,0c0.1,0,0.1,0.1,0.1,0.1c0,0,0.1,0,0.1,0c0,0,0.1,0,0.1,0
		c0.3,0.1,0.4,0.1,0.4,0.1c0.1-0.1,0.1-0.1,0.2-0.1c0.1,0.1,0.1,0.2,0.1,0.2c0.2,0.1,0.4,0.1,0.6,0c0.1-0.1,0.1-0.1,0.1-0.1
		c0,0,0.1,0.1,0.1,0.2c0.1,0,0.2,0.1,0.3,0.1s0.3,0,0.3,0.1c0,0,0.1,0,0.1,0c0,0,0,0,0.1,0l0.2,0.1h0.6c0.1,0,0.2,0.1,0.3,0.1
		c0.2,0,0.3,0.1,0.3,0.1c0.1,0,0.3,0,0.5,0c0.3,0,0.4,0,0.5,0c0,0,0,0.1,0.1,0.1c0,0,0.1,0,0.1,0c0.2,0,0.4,0,0.5-0.1c0,0,0,0,0,0.1
		V41c0,0,0.1,0.1,0.3,0.1s0.3,0.1,0.3,0.1c0,0,0.1,0,0.2,0s0.2,0,0.2,0c0,0,0.1,0,0.1,0c0,0,0.1,0,0.1,0v0.1c0,0.1,0.1,0.1,0.3,0.1
		c0.1,0,0.1,0,0.2,0l0.1,0.1c0.1,0,0.2,0,0.4,0s0.3,0,0.3,0c0,0,0.1,0.1,0.2,0.2c0.1,0.1,0.1,0.1,0.1,0.1c0,0,0.1,0,0.2,0
		c0.1,0,0.2-0.1,0.2,0c0,0.2,0.1,0.3,0.3,0.2c0.1,0.1,0.2,0.1,0.3,0.2c0.1,0.1,0.3,0.2,0.3,0.2c0.1,0,0.3,0,0.4,0.2
		c0,0.1,0.1,0.1,0.1,0.1c0.1,0,0.1,0,0.1,0c0,0,0.1,0.1,0.2,0.2c0.1,0.1,0.1,0.2,0.2,0.2c0.2,0.1,0.3,0.1,0.3,0.1c0,0,0,0.1,0,0.1
		c0,0,0,0.1,0,0.1c0,0.1,0.1,0.1,0.2,0.2c0.1,0,0.2,0.1,0.2,0.1c0,0,0,0.1,0,0.2c0,0.1,0,0.1,0.1,0.2c0,0.1,0.1,0.1,0.1,0.2l0.1,0.1
		c0,0.2,0.1,0.3,0.1,0.4c0,0,0,0.1,0,0.3c0,0.2,0.1,0.3,0.1,0.3c0,0,0,0.1,0,0.2c0,0.1,0,0.2,0,0.2c0,0.1,0,0.2,0,0.2s0,0.1,0,0.2
		c0,0.1,0,0.1,0,0.2c0,0-0.1,0.3-0.1,0.7c0,0-0.1,0-0.1,0c0,0.1-0.1,0.2-0.1,0.3c0,0.1,0,0.2,0,0.2c0,0,0,0.1-0.1,0.1
		c0,0.2,0,0.3-0.1,0.4c-0.1,0.1-0.1,0.2-0.1,0.3c-0.1,0.1-0.3,0.3-0.5,0.7c-0.1,0-0.1,0-0.1,0.1c0,0,0,0.1,0,0.1
		c0,0-0.1,0.1-0.1,0.1s-0.1,0-0.1,0s0,0.1-0.1,0.1c0,0.1-0.1,0.1-0.1,0.1c-0.2,0-0.3,0.2-0.3,0.6c-0.3,0.1-0.5,0.3-0.5,0.4
		c-0.3,0.2-0.4,0.4-0.4,0.5c-0.1,0.1-0.2,0.2-0.3,0.3c-0.1,0.1-0.2,0.2-0.3,0.2h-0.1L24,52.7h-0.2c0,0-0.1,0.1-0.2,0.2
		c-0.1,0.1-0.3,0.2-0.4,0.2c0,0.1-0.1,0.3-0.3,0.4c-0.2,0.1-0.3,0.2-0.3,0.2c0,0-0.1,0-0.3,0.1c0,0-0.1,0-0.1,0c0,0,0,0-0.1,0
		c0,0-0.2,0.1-0.4,0.3c-0.1,0-0.3,0-0.4,0.1c-0.1,0.1-0.1,0.1-0.2,0.1c0,0,0,0,0,0c0,0-0.1,0-0.1,0c0,0-0.1,0.1-0.2,0.2
		c-0.1,0.1-0.2,0.1-0.2,0.1c-0.1,0-0.2,0-0.3,0.1C20,55,20,55,19.9,55c0,0-0.1,0.1-0.1,0.1c0,0-0.1,0-0.1,0c-0.1,0-0.1,0-0.1,0
		c-0.1,0.1-0.2,0.2-0.5,0.3c-0.1,0-0.2,0-0.3,0c0,0.1,0,0.2,0.1,0.3c0.1,0.1,0.1,0.2,0,0.3c0,0,0,0.1,0,0.1c0,0,0,0,0,0.1
		c0,0,0,0.1,0,0.1c0,0,0,0.1,0,0.1c0,0,0,0.1,0.1,0.1c0,0,0,0.1,0,0.1c0,0.1,0,0.2,0,0.4s0,0.3,0,0.4c0,0,0,0.1,0.1,0.2
		c0,0.1,0.1,0.1,0.1,0.2c0,0.1,0,0.2,0,0.2s0,0.1,0,0.1c0,0,0,0.1,0,0.1c0,0,0.1,0.1,0.1,0.1c0,0,0,0,0,0.1c0,0,0,0.2,0,0.7
		c0.1,0,0.1,0.1,0.1,0.1s0,0.1,0,0.2c0,0.1,0,0.1-0.1,0.2c0,0.3,0,0.4,0.1,0.4c0,0,0.1,0,0.1,0c-0.1,0.1-0.1,0.3,0,0.5
		c0,0.1,0,0.2,0,0.2c0,0,0.1,0,0.1,0v-0.1c0,0.1,0,0.2,0,0.4c-0.1,0.1-0.1,0.2-0.1,0.4c0,0.2,0,0.4,0,0.5c-0.1,0-0.1,0-0.1,0
		c0,0-0.1,0-0.1,0c-0.1,0-0.1,0.1-0.1,0.2c0,0.1,0,0.2,0,0.2c0,0.1-0.1,0.1-0.2,0.2c-0.1,0.1-0.2,0.2-0.2,0.2c0,0.1-0.1,0.2-0.1,0.1
		c0-0.2,0-0.3,0-0.3c-0.2,0-0.3,0.1-0.5,0.2c-0.1,0.1-0.2,0.1-0.2,0.1c-0.1-0.2-0.2-0.3-0.2-0.3s0,0-0.1,0c0,0.1-0.1,0.1-0.1,0
		c0-0.1-0.1-0.1-0.1-0.2c-0.1-0.1-0.1-0.1-0.1-0.2c-0.1,0-0.1,0.1-0.1,0.2c-0.2-0.2-0.3-0.3-0.3-0.3c-0.1-0.2-0.1-0.3-0.1-0.3h-0.1
		c-0.2-0.1-0.3-0.3-0.3-0.4c0-0.1,0-0.2,0-0.2s0-0.1-0.1-0.1c-0.1,0-0.1-0.1-0.1-0.1l0-0.1c0-0.1,0-0.2-0.1-0.3
		c0-0.1-0.1-0.2-0.1-0.2s-0.1-0.1-0.1-0.1c0-0.1,0-0.1,0-0.2c0-0.1,0-0.2,0-0.2s0-0.1-0.1-0.1C16,59.7,16,59.6,16,59.6
		c0-0.1,0-0.2,0-0.4c0-0.2,0-0.3,0-0.4c-0.1,0-0.1-0.1-0.2-0.3c0-0.2-0.1-0.2-0.2-0.2c0,0,0-0.1,0-0.1c0,0,0.1-0.1,0.1-0.1
		c0,0,0,0,0,0.1c0,0,0-0.1,0-0.3s0-0.3,0-0.4c0,0,0-0.1,0-0.1c0,0,0-0.1,0-0.1c0,0,0-0.1,0-0.2c-0.1,0-0.1-0.1-0.1-0.4
		c0-0.3,0.1-0.4,0.1-0.4c0,0,0-0.1-0.1-0.1c-0.1-0.3-0.1-0.4-0.1-0.4c0-0.2,0-0.5,0-0.8c-0.1,0-0.1,0-0.2-0.1S15,54.5,15,54.5
		c0,0,0-0.1,0-0.1c0,0,0,0,0-0.1c0,0,0-0.1,0-0.2c0-0.1,0-0.2,0-0.2c0,0-0.1-0.1-0.1-0.1c0,0-0.1-0.1-0.1-0.1c0.1-0.2,0-0.3-0.2-0.3
		c0-0.1,0-0.2,0.1-0.3c-0.1-0.3-0.1-0.4-0.1-0.4c0,0,0-0.1,0-0.1c0,0,0.1-0.1,0.1-0.1c0-0.1,0-0.2-0.1-0.3c0-0.1,0-0.2,0-0.3
		c-0.1-0.1-0.1-0.2-0.1-0.2c0,0,0,0,0-0.1c0-0.1,0-0.1,0-0.1c0-0.1,0-0.2,0-0.4c0-0.1,0-0.2,0-0.2c0-0.1,0-0.1,0-0.2
		c0-0.1-0.1-0.1-0.1-0.1c0,0,0-0.1,0-0.1c0,0,0-0.1,0-0.1c0-0.1-0.1-0.3-0.2-0.4c0-0.2,0-0.4-0.1-0.5c-0.1,0.1-0.1,0.1-0.1,0
		c0-0.1,0-0.1,0-0.1c0,0,0,0,0-0.1s0-0.1,0-0.2c0-0.1,0-0.2,0-0.2c0,0,0-0.1,0-0.1c0,0,0-0.1,0-0.1s0-0.1,0-0.1s0-0.1,0-0.1
		c0-0.2-0.1-0.3-0.2-0.4c0.1-0.4,0.1-0.6-0.1-0.6c0,0,0-0.1,0-0.1c0-0.1,0.1-0.1,0.1-0.1c0-0.1-0.1-0.1-0.1-0.1s0,0,0-0.1
		c0,0,0-0.1,0-0.1s0,0,0-0.1c0,0,0-0.1,0-0.1c0-0.3,0-0.4-0.1-0.4c-0.1-0.6-0.1-1-0.2-1.1c-0.1-0.1-0.1-0.2-0.1-0.2
		c0-0.1,0-0.2,0-0.3c0-0.1,0-0.2,0-0.3c-0.1-0.1-0.1-0.1-0.1-0.1c0,0,0-0.1,0-0.3c0-0.1,0-0.3,0-0.4c0.1-0.1,0.2-0.1,0.3-0.1
		c0-0.1,0-0.1,0.1-0.2c0-0.1,0.1-0.1,0.1-0.1c0-0.1-0.1-0.1-0.1-0.1c-0.1,0-0.1,0-0.1,0s-0.1,0-0.2,0c-0.1,0-0.1-0.1-0.2-0.1
		c-0.2,0-0.3,0-0.3-0.1c-0.1,0-0.1,0-0.2,0c-0.1-0.1-0.2-0.1-0.2-0.1c0,0,0-0.1-0.1-0.2c-0.1,0-0.1,0-0.2,0c0-0.1-0.1-0.2-0.2-0.3
		c-0.1-0.1-0.1-0.2-0.1-0.3c0,0-0.1,0-0.1,0c0-0.1-0.1-0.2-0.2-0.2c-0.1-0.1-0.2-0.1-0.2-0.1c0,0,0-0.1,0-0.2c0-0.1,0-0.1,0-0.2
		c0-0.1,0-0.1,0-0.1s0-0.1,0-0.1s0.1-0.1,0.1-0.1s0-0.1-0.1-0.1s0-0.1,0-0.1c0-0.1,0-0.1,0-0.2c0-0.1,0-0.2,0-0.2
		c0.1-0.1,0.2-0.1,0.3-0.2c0.1-0.1,0.2-0.1,0.3-0.2c0,0,0-0.1,0-0.1c0,0,0.1-0.1,0.1-0.1c0.2,0,0.3,0,0.3,0h0.1c0,0,0.1,0,0.2,0
		c0.1,0,0.2,0,0.3,0c0-0.1,0.1-0.1,0.2,0C12.8,39.2,12.9,39.3,12.9,39.2z M13.1,39.4c0.2,0,0.4,0,0.5,0.1c0.1,0,0.1,0,0.2,0
		c0.1,0.1,0.1,0.1,0.2,0.1c0,0,0.1,0,0.1,0c0,0,0.1,0,0.1,0c0.1,0,0.2,0,0.3,0c0.1,0,0.2,0,0.3,0c0.1,0,0.1,0,0.1,0s0.1,0,0.1,0
		c0,0,0.1,0,0.1,0s0,0,0.1,0c0,0,0.1,0,0.1,0c0,0,0.1,0,0.1,0c0.1,0,0.1,0.1,0.1,0.1c0,0,0.1,0,0.1,0c0,0,0.1,0,0.1,0
		c0.3,0.1,0.4,0.1,0.4,0.1c0.1-0.1,0.1-0.1,0.2-0.1c0.1,0.1,0.1,0.2,0.1,0.2c0.2,0.1,0.4,0.1,0.6,0c0.1-0.1,0.1-0.1,0.1-0.1
		c0,0,0.1,0.1,0.1,0.2c0.1,0,0.2,0.1,0.3,0.1s0.3,0,0.3,0.1c0,0,0.1,0,0.1,0c0,0,0,0,0.1,0l0.2,0.1h0.6c0.1,0,0.2,0.1,0.3,0.1
		c0.2,0,0.3,0.1,0.3,0.1c0.1,0,0.3,0,0.5,0c0.3,0,0.4,0,0.5,0c0,0,0,0.1,0.1,0.1c0,0,0.1,0,0.1,0c0.2,0,0.4,0,0.5-0.1c0,0,0,0,0,0.1
		V41c0,0,0.1,0.1,0.3,0.1s0.3,0.1,0.3,0.1c0,0,0.1,0,0.2,0s0.2,0,0.2,0c0,0,0.1,0,0.1,0c0,0,0.1,0,0.1,0v0.1c0,0.1,0.1,0.1,0.3,0.1
		c0.1,0,0.1,0,0.2,0l0.1,0.1c0.1,0,0.2,0,0.4,0s0.3,0,0.3,0c0,0,0.1,0.1,0.2,0.2c0.1,0.1,0.1,0.1,0.1,0.1c0,0,0.1,0,0.2,0
		c0.1,0,0.2-0.1,0.2,0c0,0.2,0.1,0.3,0.3,0.2c0.1,0.1,0.2,0.1,0.3,0.2c0.1,0.1,0.3,0.2,0.3,0.2c0.1,0,0.3,0,0.4,0.2
		c0,0.1,0.1,0.1,0.1,0.1c0,0,0,0,0.1,0c0,0,0.1,0,0.1,0c0,0,0.1,0.1,0.2,0.2c0.1,0.1,0.1,0.2,0.2,0.2c0.2,0.1,0.3,0.1,0.3,0.1
		c0,0,0,0.1,0,0.1c0,0,0,0.1,0,0.1c0,0.1,0.1,0.1,0.2,0.2c0.1,0,0.2,0.1,0.2,0.1c0,0,0,0.1,0,0.2c0,0.1,0,0.1,0.1,0.2
		c0,0.1,0.1,0.1,0.1,0.2l0.1,0.1c0,0.2,0.1,0.3,0.1,0.4c0,0,0,0.1,0,0.3c0,0.2,0.1,0.3,0.1,0.3c0,0,0,0.1,0,0.2c0,0.1,0,0.2,0,0.2
		c0,0.1,0,0.2,0,0.2s0,0.1,0,0.2c0,0.1,0,0.1,0,0.2c0,0-0.1,0.3-0.1,0.7c0,0-0.1,0-0.1,0c0,0.1-0.1,0.2-0.1,0.3c0,0.1,0,0.2,0,0.2
		c0,0,0,0.1-0.1,0.1c0,0.2,0,0.3-0.1,0.4c-0.1,0.1-0.1,0.2-0.1,0.3c-0.1,0.1-0.3,0.3-0.5,0.7c-0.1,0-0.1,0-0.1,0.1c0,0,0,0.1,0,0.1
		c0,0-0.1,0.1-0.1,0.1s-0.1,0-0.1,0s0,0.1-0.1,0.1c0,0.1-0.1,0.1-0.1,0.1c-0.2,0-0.3,0.2-0.3,0.6c-0.3,0.1-0.5,0.3-0.5,0.4
		c-0.3,0.2-0.4,0.4-0.4,0.5c-0.1,0.1-0.2,0.2-0.3,0.3c-0.1,0.1-0.2,0.2-0.3,0.2h-0.1L24,52.7h-0.2c0,0-0.1,0.1-0.2,0.2
		c-0.1,0.1-0.3,0.2-0.4,0.2c0,0.1-0.1,0.3-0.3,0.4c-0.2,0.1-0.3,0.2-0.3,0.2c0,0-0.1,0-0.3,0.1c0,0-0.1,0-0.1,0c0,0,0,0-0.1,0
		c0,0-0.2,0.1-0.4,0.3c-0.1,0-0.3,0-0.4,0.1c-0.1,0.1-0.1,0.1-0.2,0.1c0,0,0,0,0,0c0,0-0.1,0-0.1,0c0,0-0.1,0.1-0.2,0.2
		c-0.1,0.1-0.2,0.1-0.2,0.1c-0.1,0-0.2,0-0.3,0.1C20,55,20,55,19.9,55c0,0-0.1,0.1-0.1,0.1c0,0-0.1,0-0.1,0c-0.1,0-0.1,0-0.1,0
		c-0.1,0.1-0.2,0.2-0.5,0.3c-0.1,0-0.2,0-0.3,0c0,0.1,0,0.2,0.1,0.3c0.1,0.1,0.1,0.2,0,0.3c0,0,0,0.1,0,0.1c0,0,0,0,0,0.1
		c0,0,0,0.1,0,0.1c0,0,0,0.1,0,0.1c0,0,0,0.1,0.1,0.1c0,0,0,0.1,0,0.1c0,0.1,0,0.2,0,0.4s0,0.3,0,0.4c0,0,0,0.1,0.1,0.2
		c0,0.1,0.1,0.1,0.1,0.2c0,0.1,0,0.2,0,0.2s0,0.1,0,0.1c0,0,0,0.1,0,0.1c0,0,0.1,0.1,0.1,0.1c0,0,0,0,0,0.1c0,0,0,0.2,0,0.7
		c0.1,0,0.1,0.1,0.1,0.1s0,0.1,0,0.2c0,0.1,0,0.1-0.1,0.2c0,0.3,0,0.4,0.1,0.4c0,0,0.1,0,0.1,0c-0.1,0.1-0.1,0.3,0,0.5
		c0,0.1,0,0.2,0,0.2c0,0,0.1,0,0.1,0v-0.1c0,0.1,0,0.2,0,0.4c-0.1,0.1-0.1,0.2-0.1,0.4c0,0.2,0,0.4,0,0.5c-0.1,0-0.1,0-0.1,0
		c0,0-0.1,0-0.1,0c-0.1,0-0.1,0.1-0.1,0.2c0,0.1,0,0.2,0,0.2c0,0.1-0.1,0.1-0.2,0.2c-0.1,0.1-0.2,0.2-0.2,0.2c0,0.1-0.1,0.2-0.1,0.1
		c0-0.2,0-0.3,0-0.3c-0.2,0-0.3,0.1-0.5,0.2c-0.1,0.1-0.2,0.1-0.2,0.1c-0.1-0.2-0.2-0.3-0.2-0.3s0,0-0.1,0c0,0.1-0.1,0.1-0.1,0
		c0-0.1-0.1-0.1-0.1-0.2c-0.1-0.1-0.1-0.1-0.1-0.2c-0.1,0-0.1,0.1-0.1,0.2c-0.2-0.2-0.3-0.3-0.3-0.3c-0.1-0.2-0.1-0.3-0.1-0.3h-0.1
		c-0.2-0.1-0.3-0.3-0.3-0.4c0-0.1,0-0.2,0-0.2s0-0.1-0.1-0.1c-0.1,0-0.1-0.1-0.1-0.1l0-0.1c0-0.1,0-0.2-0.1-0.3
		c0-0.1-0.1-0.2-0.1-0.2s-0.1-0.1-0.1-0.1c0-0.1,0-0.1,0-0.2c0-0.1,0-0.2,0-0.2s0-0.1-0.1-0.1C16,59.7,16,59.6,16,59.6
		c0-0.1,0-0.2,0-0.4c0-0.2,0-0.3,0-0.4c-0.1,0-0.1-0.1-0.2-0.3c0-0.2-0.1-0.2-0.2-0.2c0,0,0-0.1,0-0.1c0,0,0.1-0.1,0.1-0.1
		c0,0,0,0,0,0.1c0,0,0-0.1,0-0.3s0-0.3,0-0.4c0,0,0-0.1,0-0.1c0,0,0-0.1,0-0.1c0,0,0-0.1,0-0.2c-0.1,0-0.1-0.1-0.1-0.4
		c0-0.3,0.1-0.4,0.1-0.4c0,0,0-0.1-0.1-0.1c-0.1-0.3-0.1-0.4-0.1-0.4c0-0.2,0-0.5,0-0.8c-0.1,0-0.1,0-0.2-0.1S15,54.5,15,54.5
		c0,0,0-0.1,0-0.1c0,0,0,0,0-0.1c0,0,0-0.1,0-0.2c0-0.1,0-0.2,0-0.2c0,0-0.1-0.1-0.1-0.1c0,0-0.1-0.1-0.1-0.1c0.1-0.2,0-0.3-0.2-0.3
		c0-0.1,0-0.2,0.1-0.3c-0.1-0.3-0.1-0.4-0.1-0.4c0,0,0-0.1,0-0.1c0,0,0.1-0.1,0.1-0.1c0-0.1,0-0.2-0.1-0.3c0-0.1,0-0.2,0-0.3
		c-0.1-0.1-0.1-0.2-0.1-0.2c0,0,0,0,0-0.1c0-0.1,0-0.1,0-0.1c0-0.1,0-0.2,0-0.4c0-0.1,0-0.2,0-0.2c0-0.1,0-0.1,0-0.2
		c0-0.1-0.1-0.1-0.1-0.1c0,0,0-0.1,0-0.1c0,0,0-0.1,0-0.1c0-0.1-0.1-0.3-0.2-0.4c0-0.2,0-0.4-0.1-0.5c-0.1,0.1-0.1,0.1-0.1,0
		c0-0.1,0-0.1,0-0.1c0,0,0,0,0-0.1s0-0.1,0-0.2c0-0.1,0-0.2,0-0.2c0,0,0-0.1,0-0.1c0,0,0-0.1,0-0.1s0-0.1,0-0.1s0-0.1,0-0.1
		c0-0.2-0.1-0.3-0.2-0.4c0.1-0.4,0.1-0.6-0.1-0.6c0,0,0-0.1,0-0.1c0-0.1,0.1-0.1,0.1-0.1c0-0.1-0.1-0.1-0.1-0.1s0,0,0-0.1
		c0,0,0-0.1,0-0.1s0,0,0-0.1c0,0,0-0.1,0-0.1c0-0.3,0-0.4-0.1-0.4c-0.1-0.6-0.1-1-0.2-1.1c-0.1-0.1-0.1-0.2-0.1-0.2
		c0-0.1,0-0.2,0-0.3c0-0.1,0-0.2,0-0.3c-0.1-0.1-0.1-0.1-0.1-0.1c0,0,0-0.1,0-0.3c0-0.1,0-0.3,0-0.4c0.1-0.1,0.2-0.1,0.3-0.1
		c0-0.1,0-0.1,0.1-0.2c0-0.1,0.1-0.1,0.1-0.1c0-0.1-0.1-0.1-0.1-0.1c-0.1,0-0.1,0-0.1,0s-0.1,0-0.2,0c-0.1,0-0.1-0.1-0.2-0.1
		c-0.2,0-0.3,0-0.3-0.1c-0.1,0-0.1,0-0.2,0c-0.1-0.1-0.2-0.1-0.2-0.1c0,0,0-0.1-0.1-0.2c-0.1,0-0.1,0-0.2,0c0-0.1-0.1-0.2-0.2-0.3
		c-0.1-0.1-0.1-0.2-0.1-0.3c0,0-0.1,0-0.1,0c0-0.1-0.1-0.2-0.2-0.2c-0.1-0.1-0.2-0.1-0.2-0.1c0,0,0-0.1,0-0.2c0-0.1,0-0.1,0-0.2
		c0-0.1,0-0.1,0-0.1s0-0.1,0-0.1s0.1-0.1,0.1-0.1s0-0.1-0.1-0.1s0-0.1,0-0.1c0-0.1,0-0.1,0-0.2c0-0.1,0-0.2,0-0.2
		c0.1-0.1,0.2-0.1,0.3-0.2c0.1-0.1,0.2-0.1,0.3-0.2c0,0,0-0.1,0-0.1c0,0,0.1-0.1,0.1-0.1c0.2,0,0.3,0,0.3,0h0.1c0,0,0.1,0,0.2,0
		c0.1,0,0.2,0,0.3,0c0-0.1,0.1-0.1,0.2,0c0.1,0.1,0.2,0.1,0.2,0C13,39.3,13,39.3,13.1,39.4C13.1,39.4,13.1,39.4,13.1,39.4z
		 M21.5,44.4c0,0-0.1,0-0.1-0.1c0,0-0.1,0-0.2,0c-0.1,0-0.1,0-0.2,0c-0.1,0-0.1,0-0.2-0.1c-0.1,0-0.2-0.1-0.2-0.1
		c-0.1,0-0.2,0-0.3,0c-0.1,0-0.2,0-0.2,0c0,0-0.1,0-0.1-0.1c-0.1,0-0.1-0.1-0.1-0.1s-0.1,0-0.1,0c0,0-0.1,0-0.1,0
		c-0.2,0-0.5-0.1-0.7-0.1l-0.6-0.1c-0.1,0-0.2,0-0.3,0c-0.1,0-0.2,0-0.3,0c-0.1,0.1-0.2,0.1-0.4,0c-0.2-0.1-0.3-0.1-0.3-0.1
		s-0.1,0-0.1,0c-0.1,0-0.1,0-0.1,0s-0.1,0-0.1,0c-0.1,0-0.1,0-0.2,0c-0.1,0-0.2,0-0.2,0.1c0,0,0,0.1,0.1,0.2c0,0,0,0.1,0,0.2
		c0,0.1,0,0.2,0,0.2s0.1,0.1,0.2,0.1v0.1c0,0,0.1,0.2,0.1,0.4c0,0.1,0,0.1,0.1,0.2c0,0.1,0.1,0.1,0.1,0.1s0,0.1,0,0.3
		c0,0.1,0,0.3,0.1,0.3c0,0,0.1,0.1,0.1,0.1c0,0.1,0.1,0.1,0.1,0.1s0,0.1,0,0.2c0,0.1,0,0.2,0,0.2c0,0.1,0.1,0.1,0.1,0.2
		c0,0.1,0.1,0.2,0.1,0.2c0,0,0,0.1,0,0.2c0,0.1,0,0.1,0,0.1c0,0,0,0.1,0.1,0.1c0,0,0.1,0.1,0.1,0.1c0,0,0,0.1,0,0.2
		c0,0.1,0,0.2,0.1,0.2c0,0,0,0.1,0,0.1c0,0,0,0.1,0,0.1c0,0.1,0,0.2,0,0.4c0,0,0.1,0.1,0.1,0.1c0,0.1,0,0.3,0,0.5c0,0.2,0,0.3,0,0.4
		c0.1,0,0.1,0.1,0.1,0.2c0,0.1,0,0.2,0,0.2c0,0,0,0.1,0.1,0.1c0.1,0,0.1,0.1,0.1,0.1c0,0.1,0,0.1,0,0.2c0,0.1,0,0.2,0,0.2
		c0,0,0,0.1,0.1,0.1C18,51,18,51,18,51.1c0,0,0,0.1,0,0.1c0,0.1,0,0.1,0,0.1c0,0,0,0.1,0,0.1s0,0,0,0c-0.1,0.1-0.1,0.2,0,0.2
		c0,0,0.1,0,0.2,0c0.1,0,0.1-0.1,0.1-0.1c0,0,0.1,0,0.1,0c0.1,0,0.2,0,0.2,0c0,0,0-0.1,0.1-0.1c0.1,0,0.1,0,0.1,0c0,0,0,0,0.1,0
		s0.1,0,0.1,0c0,0,0.1,0,0.2,0c0.1,0,0.2,0,0.2,0c0,0,0.1-0.1,0.1-0.1c0-0.1,0-0.1,0.1-0.1h0.1c0,0,0.1-0.1,0.2-0.2
		c0.1-0.1,0.2-0.2,0.3-0.3c0.1,0,0.1,0,0.1,0c0.1,0,0.2-0.1,0.3-0.2c0.1-0.1,0.2-0.2,0.3-0.2c0,0,0.1-0.1,0.2-0.2
		c0.1-0.1,0.2-0.2,0.2-0.2c0.5-0.3,0.7-0.5,0.7-0.5c0-0.2,0.2-0.3,0.4-0.4c0-0.1,0.1-0.1,0.1-0.2c0,0,0.1-0.1,0.1-0.2
		c0.1-0.1,0.1-0.2,0.1-0.2c0.1,0,0.2-0.1,0.3-0.1c0-0.1,0-0.1,0.1-0.2c0.1-0.1,0.1-0.2,0.1-0.2c0.2-0.2,0.3-0.4,0.3-0.5
		c0,0,0.1-0.1,0.1-0.2c0.1-0.1,0.1-0.1,0.1-0.2c0,0,0-0.1,0-0.2c0,0,0-0.1,0-0.1s0,0,0-0.1s0-0.1,0-0.1c0-0.1,0-0.1,0-0.2
		c0-0.1,0-0.1,0-0.1c0-0.1,0-0.1,0-0.2c0-0.1-0.1-0.2-0.1-0.2c-0.1-0.1-0.1-0.1-0.1-0.1c-0.2-0.1-0.4-0.1-0.5-0.2
		c0,0-0.1-0.1-0.1-0.1s-0.1,0-0.1,0s-0.1-0.1-0.1-0.1c0,0-0.1-0.1-0.1-0.1s-0.1,0-0.2,0c0,0-0.1,0-0.1-0.1c0-0.1-0.1-0.1-0.1-0.1
		s-0.1,0-0.1,0s-0.1,0-0.1,0s-0.1,0-0.1-0.1c0,0-0.1,0-0.1,0c-0.1,0-0.2,0-0.3,0c-0.1,0-0.2,0-0.2,0c0,0-0.1,0-0.1-0.1
		c0,0-0.1,0-0.1,0S21.7,44.4,21.5,44.4z M21.2,44.2c-0.1,0-0.1,0-0.2,0c-0.1,0-0.1-0.1-0.2-0.1c-0.1,0-0.2-0.1-0.2-0.1
		c-0.1,0-0.2,0-0.3,0c-0.1,0-0.2,0-0.2,0c0,0-0.1,0-0.1-0.1c-0.1,0-0.1-0.1-0.1-0.1s-0.1,0-0.1,0c0,0-0.1,0-0.1,0
		c-0.2,0-0.5-0.1-0.7-0.1l-0.6-0.1c-0.1,0-0.2,0-0.3,0c-0.1,0-0.2,0-0.3,0c-0.1,0.1-0.2,0.1-0.4,0c-0.2-0.1-0.3-0.1-0.3-0.1
		s-0.1,0-0.1,0c-0.1,0-0.1,0-0.1,0s-0.1,0-0.1,0c-0.1,0-0.1,0-0.2,0c-0.1,0-0.2,0-0.2,0.1c0,0,0,0.1,0.1,0.2c0,0,0,0.1,0,0.2
		c0,0.1,0,0.2,0,0.2s0.1,0.1,0.2,0.1v0.1c0,0,0.1,0.2,0.1,0.4c0,0.1,0,0.1,0.1,0.2c0,0.1,0.1,0.1,0.1,0.1s0,0.1,0,0.3
		c0,0.1,0,0.3,0.1,0.3c0,0,0.1,0.1,0.1,0.1c0,0.1,0.1,0.1,0.1,0.1s0,0.1,0,0.2c0,0.1,0,0.2,0,0.2c0,0.1,0.1,0.1,0.1,0.2
		c0,0.1,0.1,0.2,0.1,0.2c0,0,0,0.1,0,0.2c0,0.1,0,0.1,0,0.1c0,0,0,0.1,0.1,0.1c0,0,0.1,0.1,0.1,0.1c0,0,0,0.1,0,0.2
		c0,0.1,0,0.2,0.1,0.2c0,0,0,0.1,0,0.1c0,0,0,0.1,0,0.1c0,0.1,0,0.2,0,0.4c0,0,0.1,0.1,0.1,0.1c0,0.1,0,0.3,0,0.5c0,0.2,0,0.3,0,0.4
		c0.1,0,0.1,0.1,0.1,0.2c0,0.1,0,0.2,0,0.2c0,0,0,0.1,0.1,0.1c0.1,0,0.1,0.1,0.1,0.1c0,0.1,0,0.1,0,0.2c0,0.1,0,0.2,0,0.2
		c0,0,0,0.1,0.1,0.1C18,51,18,51,18,51.1c0,0,0,0.1,0,0.1c0,0.1,0,0.1,0,0.1c0,0,0,0.1,0,0.1s0,0,0,0c-0.1,0.1-0.1,0.2,0,0.2
		c0,0,0.1,0,0.2,0c0.1,0,0.1-0.1,0.1-0.1c0,0,0.1,0,0.1,0c0.1,0,0.2,0,0.2,0c0,0,0-0.1,0.1-0.1c0.1,0,0.1,0,0.1,0c0,0,0,0,0.1,0
		s0.1,0,0.1,0c0,0,0.1,0,0.2,0c0.1,0,0.2,0,0.2,0c0,0,0.1-0.1,0.1-0.1c0-0.1,0-0.1,0.1-0.1h0.1c0,0,0.1-0.1,0.2-0.2
		c0.1-0.1,0.2-0.2,0.3-0.3c0.1,0,0.1,0,0.1,0c0.1,0,0.2-0.1,0.3-0.2c0.1-0.1,0.2-0.2,0.3-0.2c0,0,0.1-0.1,0.2-0.2
		c0.1-0.1,0.2-0.2,0.2-0.2c0.5-0.3,0.7-0.5,0.7-0.5c0-0.2,0.2-0.3,0.4-0.4c0-0.1,0.1-0.1,0.1-0.2c0,0,0.1-0.1,0.1-0.2
		c0.1-0.1,0.1-0.2,0.1-0.2c0.1,0,0.2-0.1,0.3-0.1c0-0.1,0-0.1,0.1-0.2c0.1-0.1,0.1-0.2,0.1-0.2c0.2-0.2,0.3-0.4,0.3-0.5
		c0,0,0.1-0.1,0.1-0.2c0.1-0.1,0.1-0.1,0.1-0.2c0,0,0-0.1,0-0.2c0,0,0-0.1,0-0.1s0,0,0-0.1s0-0.1,0-0.1s0-0.1,0-0.1s0-0.1,0-0.1
		c0-0.1,0-0.1,0-0.1c0-0.1,0-0.1,0-0.2c0-0.1-0.1-0.2-0.1-0.2c-0.1-0.1-0.1-0.1-0.1-0.1c-0.2-0.1-0.4-0.1-0.5-0.2
		c0,0-0.1-0.1-0.1-0.1s-0.1,0-0.1,0s-0.1-0.1-0.1-0.1c0,0-0.1-0.1-0.1-0.1s-0.1,0-0.2,0c0,0-0.1,0-0.1-0.1c0-0.1-0.1-0.1-0.1-0.1
		s-0.1,0-0.1,0s-0.1,0-0.1,0s-0.1,0-0.1-0.1c0,0-0.1,0-0.1,0c-0.1,0-0.2,0-0.3,0c-0.1,0-0.2,0-0.2,0c0,0-0.1,0-0.1-0.1
		c0,0-0.1,0-0.1,0s-0.1,0-0.3,0c0,0-0.1,0-0.1-0.1C21.3,44.2,21.2,44.2,21.2,44.2z"/>
	<path fill="#D93427" d="M36.8,40.7c0.1,0,0.2-0.1,0.3-0.1c0.1,0,0.3,0,0.4,0c0,0,0.1,0.1,0.2,0.1c0,0,0.1,0,0.2,0
		c0.1,0,0.2,0,0.2,0s0.1,0,0.1,0c0,0,0.1,0,0.1,0s0,0,0.1,0c0,0,0.1,0,0.1,0c0.1,0.2,0.2,0.3,0.3,0.2l0.3,0.2c0,0.1,0,0.1,0.1,0.2
		c0.1,0.1,0.1,0.1,0.1,0.1c0.1,0,0.1,0,0.2,0.1c0.1,0.1,0.2,0.1,0.2,0.1c0,0,0.1,0,0.1,0c0,0,0.1-0.1,0.1-0.1
		c0.2-0.1,0.3-0.1,0.4-0.1c0,0,0.1,0,0.3,0c0,0,0.1,0,0.2,0c0.1,0,0.2,0,0.2,0c0,0,0.1,0,0.1,0.1c0,0,0.1,0.1,0.1,0.1s0.1,0,0.2,0
		c0.1,0,0.2,0,0.2,0c0,0,0.1,0.1,0.2,0.2c0.1,0.1,0.2,0.2,0.4,0.1c0,0,0,0.1,0.1,0.1c0.1,0,0.2,0,0.3,0.1c0.1,0.1,0.2,0.1,0.2,0.1
		c0,0,0.1,0,0.1,0c0.4,0.2,0.6,0.4,0.8,0.4h0.2c0,0.1-0.1,0.1-0.2,0.1l0,0.1c0,0.1,0.2,0.2,0.4,0.3c0.2,0.1,0.4,0.3,0.4,0.4
		c0,0.1,0.1,0.1,0.2,0.2c0.2,0.2,0.4,0.4,0.4,0.5c0.2,0.1,0.2,0.3,0.2,0.4c0,0.1,0.1,0.2,0.2,0.3c0.1,0.1,0.2,0.2,0.2,0.3
		c0.1,0.2,0.2,0.4,0.2,0.4c0,0,0,0.1,0.1,0.1c0.1,0.2,0.1,0.3,0.1,0.4l0.1,0.1c0,0.1,0,0.2,0.1,0.3c0.1,0.3,0.1,0.5,0.1,0.5
		c0,0.2,0.1,0.3,0.1,0.4c0,0,0,0.1,0.1,0.3c-0.1,0-0.1,0.1,0,0.2c0.1,0.1,0.1,0.2,0.1,0.3s0,0.1,0,0.1c0,0.1,0,0.1,0,0.1
		s0,0,0.1,0.1c0,0,0,0.1,0,0.1c0,0.1,0,0.2,0,0.4s0,0.3,0,0.4c0,0.1,0,0.2,0,0.2s0,0.1,0,0.2c0,0,0,0.1,0.1,0.2c0,0,0,0.1,0,0.1
		s0,0,0,0.1c0.1,0.1,0.1,0.5,0.1,1.2s0,1.1,0,1.2c0,0,0,0.1,0,0.2c0,0.1,0,0.2,0,0.3c0,0,0,0.1-0.1,0.2c-0.1,0.1-0.1,0.2,0,0.3
		c0,0,0,0.1,0,0.2c0,0.1,0.1,0.2,0.1,0.2c-0.1,0-0.2,0.1-0.2,0.1c0,0.3,0,0.5,0,0.5s0,0.1,0,0.1c0,0-0.1,0.1-0.1,0.1
		c0,0,0,0.1,0,0.1c-0.1,0.2-0.1,0.3-0.1,0.3s0,0.1-0.1,0.1c0,0-0.1,0.1-0.1,0.1c0,0,0,0,0,0.1c0,0-0.1,0.1-0.1,0.1
		c0,0.1-0.1,0.1-0.1,0.2l-0.3,0.3c0,0.1-0.1,0.3-0.2,0.5c-0.1,0.2-0.2,0.4-0.2,0.5c-0.2,0.2-0.2,0.3-0.2,0.5c0,0-0.1,0-0.2,0.1
		c0,0.1,0,0.1-0.1,0.2C45,58.9,45,59,45,59.2c-0.1,0-0.2,0.1-0.2,0.2c-0.1,0.1-0.1,0.2-0.2,0.2c0,0-0.1,0.1-0.2,0.2
		c-0.1,0.1-0.1,0.2-0.2,0.2c0,0.1,0,0.1-0.1,0.2c-0.2,0.1-0.4,0.2-0.6,0.4c-0.1,0.1-0.2,0.2-0.2,0.2c-0.1,0.1-0.2,0.2-0.4,0.3
		c-0.2,0.1-0.3,0.2-0.4,0.3c0,0-0.1,0-0.1,0s0,0-0.1,0c0,0-0.1,0.1-0.2,0.1c-0.1,0.1-0.1,0.1-0.2,0.1c-0.1,0-0.2,0.1-0.3,0.1
		c-0.1,0-0.2,0-0.3,0.1c-0.1,0-0.1,0-0.2,0c-0.1,0-0.2,0-0.2,0c0,0-0.1,0.1-0.2,0.2c-0.2,0-0.3,0-0.4,0c0,0.1-0.1,0.1-0.3,0.1
		c-0.2,0-0.3,0.1-0.3,0.2c-0.1,0-0.4,0-0.8,0s-0.7,0-0.9,0c-0.1,0-0.2,0-0.3,0c-0.2,0-0.3,0-0.4,0c0,0-0.1-0.1-0.1-0.2
		c-0.1,0-0.2,0-0.2,0.1c0,0.1-0.1,0.1-0.1,0.1c0,0-0.1,0-0.1-0.1l0.1,0c0,0-0.1,0-0.1-0.1c-0.1,0-0.1-0.1-0.1-0.1
		c-0.2,0.1-0.4,0-0.6-0.1c-0.2-0.1-0.4-0.2-0.5-0.1c0,0,0-0.1,0-0.1c0,0-0.1-0.1-0.3-0.1c-0.1-0.1-0.3-0.1-0.5-0.1v-0.1
		c0,0-0.1-0.1-0.1-0.2c-0.1-0.1-0.1-0.1-0.1-0.2c-0.1,0-0.1-0.1-0.1-0.1s0,0-0.1-0.1c0,0-0.1-0.1-0.1-0.1s0,0-0.1,0c0,0-0.1,0-0.1,0
		s0,0,0,0c0,0,0,0,0-0.1c0,0-0.1,0-0.2-0.1c0,0-0.1,0-0.1-0.1c-0.1-0.1-0.1-0.1-0.1-0.2c-0.1,0-0.1,0-0.1,0
		c-0.1-0.1-0.2-0.2-0.3-0.3c-0.1-0.1-0.2-0.3-0.3-0.4h-0.1c-0.3-0.4-0.5-0.6-0.5-0.8c0,0-0.1-0.2-0.3-0.4v-0.1c0,0-0.1-0.1-0.1-0.2
		c-0.1-0.1-0.1-0.1-0.1-0.2c0-0.3-0.1-0.6-0.3-0.9c0-0.1,0-0.2-0.1-0.3c0-0.1,0-0.1,0-0.1c0,0,0,0,0-0.1c0,0,0-0.1,0-0.1
		c0,0,0-0.1-0.1-0.1s-0.1-0.1-0.1-0.1c0,0,0-0.2,0-0.5c0,0,0-0.1,0-0.1s0-0.1,0-0.1c0,0-0.1,0-0.1-0.1c0-0.1,0-0.1,0-0.1
		c0-0.1,0-0.2,0-0.4c0-0.2,0-0.3,0-0.4c0,0-0.1,0-0.1-0.1c0,0,0-0.1,0-0.2c0,0,0-0.1,0-0.1c0,0,0-0.1-0.1-0.1c0-0.1,0-0.1,0-0.1
		c-0.1-0.1-0.1-0.2-0.1-0.2s0-0.1,0-0.1c0,0,0.1-0.1,0.1-0.1c0.1-0.2,0-0.3-0.1-0.4c0,0,0-0.1,0-0.2v-0.1l0.2-0.2c0-0.1,0-0.3,0-0.7
		s0-0.6,0-0.7c0-0.1,0-0.1,0-0.2c0-0.1,0-0.1,0-0.2c0-0.1,0-0.2,0-0.4c0-0.2,0-0.4,0-0.5c0-0.1,0.1-0.2,0.2-0.3c0,0,0-0.1,0-0.1
		s0-0.1,0-0.1c0,0,0-0.1,0-0.1c0,0,0.1-0.1,0.1-0.1c0,0,0-0.2,0-0.4c0-0.3,0-0.4,0-0.5c0-0.4,0-0.6,0-0.6c0,0,0.1,0,0.2-0.1
		c0.1-0.1,0.2-0.1,0.2-0.1c0-0.1,0-0.1,0-0.1c0,0-0.1-0.1-0.1-0.1c0,0,0.1-0.1,0.1-0.1c0,0,0.1-0.1,0.1-0.2c0-0.1,0-0.1,0-0.2
		c0.1-0.1,0.1-0.1,0.1-0.1c0-0.1,0-0.2,0-0.4c0-0.2,0-0.3,0.1-0.3c0,0,0.1,0,0.1,0.1c0.1,0,0.1,0,0.1,0c0-0.1,0-0.1-0.1-0.1
		c-0.1,0-0.1,0-0.1-0.1l0.1-0.2c0,0,0.1-0.1,0.1-0.2c0.1-0.1,0.1-0.2,0.1-0.2c0,0,0-0.1,0-0.1c0,0,0,0,0-0.1
		c0.1-0.1,0.1-0.2,0.1-0.3c0.1,0,0.1-0.1,0.2-0.2c0-0.1,0.1-0.2,0.1-0.2c0-0.1,0-0.2,0.1-0.3c0.1-0.1,0.2-0.2,0.2-0.2
		c0,0,0-0.1,0-0.1s0-0.1,0.1-0.1c0-0.1,0.1-0.1,0.2-0.2c0.1-0.1,0.2-0.2,0.2-0.3c0.1,0,0.2-0.1,0.3-0.3c0.1,0,0.2-0.1,0.2-0.3
		c0-0.1,0-0.2,0-0.2c0.1,0.1,0.2,0,0.3-0.1c0.1,0,0.1-0.1,0.1-0.1h0.1c0.1,0,0.1-0.1,0.2-0.1c0.1-0.1,0.1-0.1,0.2-0.1
		c0.2,0,0.4-0.1,0.6-0.3c0.1,0,0.2,0,0.3-0.1c0.1-0.1,0.2-0.1,0.2-0.2c0,0,0,0,0,0c0,0,0,0,0-0.1c0.1,0.1,0.2,0,0.4-0.1
		c0.1,0,0.2,0,0.3,0C36.7,40.6,36.8,40.6,36.8,40.7z M37.6,40.6c0,0,0.1,0.1,0.2,0.1c0,0,0.1,0,0.2,0c0.1,0,0.2,0,0.2,0s0.1,0,0.1,0
		c0,0,0.1,0,0.1,0s0,0,0.1,0c0,0,0.1,0,0.1,0c0.1,0.2,0.2,0.3,0.3,0.2l0.3,0.2c0,0.1,0,0.1,0.1,0.2c0.1,0.1,0.1,0.1,0.1,0.1
		c0.1,0,0.1,0,0.2,0.1c0.1,0.1,0.2,0.1,0.2,0.1c0,0,0.1,0,0.1,0c0,0,0.1-0.1,0.1-0.1c0.2-0.1,0.3-0.1,0.4-0.1c0,0,0.1,0,0.3,0
		c0,0,0.1,0,0.2,0c0.1,0,0.2,0,0.2,0c0,0,0.1,0,0.1,0.1c0,0,0.1,0.1,0.1,0.1s0.1,0,0.2,0c0.1,0,0.2,0,0.2,0c0,0,0.1,0.1,0.2,0.2
		c0.1,0.1,0.2,0.2,0.4,0.1c0,0,0,0.1,0.1,0.1c0.1,0,0.2,0,0.3,0.1c0.1,0.1,0.2,0.1,0.2,0.1c0,0,0.1,0,0.1,0c0.4,0.2,0.6,0.4,0.8,0.4
		h0.2c0,0.1-0.1,0.1-0.2,0.1l0,0.1c0,0.1,0.2,0.2,0.4,0.3c0.2,0.1,0.4,0.3,0.4,0.4c0,0.1,0.1,0.1,0.2,0.2c0.2,0.2,0.4,0.4,0.4,0.5
		c0.2,0.1,0.2,0.3,0.2,0.4c0,0.1,0.1,0.2,0.2,0.3c0.1,0.1,0.2,0.2,0.2,0.3c0.1,0.2,0.2,0.4,0.2,0.4c0,0,0,0.1,0.1,0.1
		c0.1,0.2,0.1,0.3,0.1,0.4l0.1,0.1c0,0.1,0,0.2,0.1,0.3c0.1,0.3,0.1,0.5,0.1,0.5c0,0.2,0.1,0.3,0.1,0.4c0,0,0,0.1,0.1,0.3
		c-0.1,0-0.1,0.1,0,0.2c0.1,0.1,0.1,0.2,0.1,0.3s0,0.1,0,0.1c0,0.1,0,0.1,0,0.1s0,0,0.1,0.1c0,0,0,0.1,0,0.1c0,0.1,0,0.2,0,0.4
		s0,0.3,0,0.4c0,0.1,0,0.2,0,0.2s0,0.1,0,0.2c0,0,0,0.1,0.1,0.2c0,0,0,0.1,0,0.1s0,0,0,0.1c0.1,0.1,0.1,0.5,0.1,1.2s0,1.1,0,1.2
		c0,0,0,0.1,0,0.2c0,0.1,0,0.2,0,0.3c0,0,0,0.1-0.1,0.2c-0.1,0.1-0.1,0.2,0,0.3c0,0,0,0.1,0,0.2c0,0.1,0.1,0.2,0.1,0.2
		c-0.1,0-0.2,0.1-0.2,0.1c0,0.3,0,0.5,0,0.5s0,0.1,0,0.1c0,0-0.1,0.1-0.1,0.1c0,0,0,0.1,0,0.1c-0.1,0.2-0.1,0.3-0.1,0.3
		s0,0.1-0.1,0.1c0,0-0.1,0.1-0.1,0.1c0,0,0,0,0,0.1c0,0-0.1,0.1-0.1,0.1c0,0.1-0.1,0.1-0.1,0.2l-0.3,0.3c0,0.1-0.1,0.3-0.2,0.5
		c-0.1,0.2-0.2,0.4-0.2,0.5c-0.2,0.2-0.2,0.3-0.2,0.5c0,0-0.1,0-0.2,0.1c0,0.1,0,0.1-0.1,0.2C45,58.9,45,59,45,59.2
		c-0.1,0-0.2,0.1-0.2,0.2c-0.1,0.1-0.1,0.2-0.2,0.2c0,0-0.1,0.1-0.2,0.2c-0.1,0.1-0.1,0.2-0.2,0.2c0,0.1,0,0.1-0.1,0.2
		c-0.2,0.1-0.4,0.2-0.6,0.4c-0.1,0.1-0.2,0.2-0.2,0.2c-0.1,0.1-0.2,0.2-0.4,0.3c-0.2,0.1-0.3,0.2-0.4,0.3c0,0-0.1,0-0.1,0s0,0-0.1,0
		c0,0-0.1,0.1-0.2,0.1c-0.1,0.1-0.1,0.1-0.2,0.1c-0.1,0-0.2,0.1-0.3,0.1c-0.1,0-0.2,0-0.3,0.1c-0.1,0-0.1,0-0.2,0
		c-0.1,0-0.2,0-0.2,0c0,0-0.1,0.1-0.2,0.2c-0.2,0-0.3,0-0.4,0c0,0.1-0.1,0.1-0.3,0.1c-0.2,0-0.3,0.1-0.3,0.2c-0.1,0-0.4,0-0.8,0
		s-0.7,0-0.9,0c-0.1,0-0.2,0-0.3,0c-0.2,0-0.3,0-0.4,0c0,0-0.1-0.1-0.1-0.2c-0.1,0-0.2,0-0.2,0.1c0,0.1-0.1,0.1-0.1,0.1
		c0,0-0.1,0-0.1-0.1l0.1,0c0,0-0.1,0-0.1-0.1c-0.1,0-0.1-0.1-0.1-0.1c-0.2,0.1-0.4,0-0.6-0.1c-0.2-0.1-0.4-0.2-0.5-0.1
		c0,0,0-0.1,0-0.1c0,0-0.1-0.1-0.3-0.1c-0.1-0.1-0.3-0.1-0.5-0.1v-0.1c0,0-0.1-0.1-0.1-0.2c-0.1-0.1-0.1-0.1-0.1-0.2
		c-0.1,0-0.1-0.1-0.1-0.1s0,0-0.1-0.1c0,0-0.1-0.1-0.1-0.1s0,0-0.1,0c0,0-0.1,0-0.1,0s0,0,0,0c0,0,0,0,0-0.1c0,0-0.1,0-0.2-0.1
		c0,0-0.1,0-0.1-0.1c-0.1-0.1-0.1-0.1-0.1-0.2c-0.1,0-0.1,0-0.1,0c-0.1-0.1-0.2-0.2-0.3-0.3c-0.1-0.1-0.2-0.3-0.3-0.4h-0.1
		c-0.3-0.4-0.5-0.6-0.5-0.8c0,0-0.1-0.2-0.3-0.4v-0.1c0,0-0.1-0.1-0.1-0.2c-0.1-0.1-0.1-0.1-0.1-0.2c0-0.3-0.1-0.6-0.3-0.9
		c0-0.1,0-0.2-0.1-0.3c0-0.1,0-0.1,0-0.1c0,0,0,0,0-0.1c0,0,0-0.1,0-0.1c0,0,0-0.1-0.1-0.1s-0.1-0.1-0.1-0.1c0,0,0-0.2,0-0.5
		c0,0,0-0.1,0-0.1s0-0.1,0-0.1c0,0-0.1,0-0.1-0.1c0-0.1,0-0.1,0-0.1c0-0.1,0-0.2,0-0.4c0-0.2,0-0.3,0-0.4c0,0-0.1,0-0.1-0.1
		c0,0,0-0.1,0-0.2c0,0,0-0.1,0-0.1c0,0,0-0.1-0.1-0.1c0-0.1,0-0.1,0-0.1c-0.1-0.1-0.1-0.2-0.1-0.2s0-0.1,0-0.1c0,0,0.1-0.1,0.1-0.1
		c0.1-0.2,0-0.3-0.1-0.4c0,0,0-0.1,0-0.2v-0.1l0.2-0.2c0-0.1,0-0.3,0-0.7s0-0.6,0-0.7c0-0.1,0-0.1,0-0.2c0-0.1,0-0.1,0-0.2
		c0-0.1,0-0.2,0-0.4c0-0.2,0-0.4,0-0.5c0-0.1,0.1-0.2,0.2-0.3c0,0,0-0.1,0-0.1s0-0.1,0-0.1c0,0,0-0.1,0-0.1c0,0,0.1-0.1,0.1-0.1
		c0,0,0-0.2,0-0.4c0-0.3,0-0.4,0-0.5c0-0.4,0-0.6,0-0.6c0,0,0.1,0,0.2-0.1c0.1-0.1,0.2-0.1,0.2-0.1c0-0.1,0-0.1,0-0.1
		c0,0-0.1-0.1-0.1-0.1c0,0,0.1-0.1,0.1-0.1c0,0,0.1-0.1,0.1-0.2c0-0.1,0-0.1,0-0.2c0.1-0.1,0.1-0.1,0.1-0.1c0-0.1,0-0.2,0-0.4
		c0-0.2,0-0.3,0.1-0.3c0,0,0.1,0,0.1,0.1c0.1,0,0.1,0,0.1,0c0-0.1,0-0.1-0.1-0.1c-0.1,0-0.1,0-0.1-0.1l0.1-0.2c0,0,0.1-0.1,0.1-0.2
		c0.1-0.1,0.1-0.2,0.1-0.2c0,0,0-0.1,0-0.1c0,0,0,0,0-0.1c0.1-0.1,0.1-0.2,0.1-0.3c0.1,0,0.1-0.1,0.2-0.2c0-0.1,0.1-0.2,0.1-0.2
		c0-0.1,0-0.2,0.1-0.3c0.1-0.1,0.2-0.2,0.2-0.2c0,0,0-0.1,0-0.1s0-0.1,0.1-0.1c0-0.1,0.1-0.1,0.2-0.2c0.1-0.1,0.2-0.2,0.2-0.3
		c0.1,0,0.2-0.1,0.3-0.3c0.1,0,0.2-0.1,0.2-0.3c0-0.1,0-0.2,0-0.2c0.1,0.1,0.2,0,0.3-0.1c0.1,0,0.1-0.1,0.1-0.1h0.1
		c0.1,0,0.1-0.1,0.2-0.1c0.1-0.1,0.1-0.1,0.2-0.1c0.2,0,0.4-0.1,0.6-0.3c0.1,0,0.2,0,0.3-0.1c0.1-0.1,0.2-0.1,0.2-0.2c0,0,0,0,0,0
		c0,0,0,0,0-0.1c0.1,0.1,0.2,0,0.4-0.1c0.1,0,0.2,0,0.3,0c0.1,0,0.3,0,0.3,0.1c0.1,0,0.2-0.1,0.3-0.1C37.3,40.6,37.4,40.6,37.6,40.6
		z M38.5,43.7c-0.1,0-0.3,0-0.5,0c-0.2,0-0.4,0-0.6,0c-0.2,0.1-0.4,0.2-0.6,0.3c-0.2,0.1-0.4,0.2-0.6,0.4c-0.2,0.2-0.3,0.3-0.4,0.5
		c0,0-0.1,0.1-0.1,0.2c-0.1,0.1-0.1,0.1-0.1,0.1v0.1c0,0,0,0.1-0.1,0.1s-0.1,0.1-0.1,0.1c0,0-0.1,0.2-0.2,0.4c0,0.1,0,0.1-0.1,0.2
		c-0.1,0.1-0.1,0.1-0.1,0.1c0,0.1,0,0.2,0,0.2c0,0,0,0.1-0.1,0.1c0,0,0,0.1,0,0.2c0,0.1,0,0.1,0,0.2c0,0,0,0.1,0,0.1
		c-0.1,0.1-0.1,0.2-0.1,0.2c-0.2,0.1-0.2,0.3-0.2,0.5c-0.1,0.1-0.2,0.3-0.1,0.7c-0.1,0.1-0.2,0.3-0.1,0.5c-0.2,0.3-0.2,0.5-0.1,0.7
		c0,0,0,0.1-0.1,0.1c0,0-0.1,0-0.1,0.1c0,0.1,0,0.2-0.1,0.4c-0.1,0.2-0.1,0.3,0,0.4c-0.1,0.1-0.1,0.3-0.1,0.6c0,0,0,0.1,0,0.1
		c0,0.1,0,0.1,0,0.1c0,0,0,0.1-0.1,0.1c0,0-0.1,0.1-0.1,0.1c0.1,0.1,0.1,0.2,0.1,0.3c0,0.1,0,0.3,0,0.5s0,0.3,0,0.4
		c0,0,0,0.1-0.1,0.1s0,0.1,0,0.1l0.1,0.1c0,0.1,0,0.2-0.1,0.5c0,0,0,0.1,0.1,0.1c0,0,0,0.1,0,0.1c0,0,0,0.1,0,0.1c0,0.1,0,0.1,0,0.1
		c0,0.2,0,0.3,0,0.4c0,0,0.1,0.1,0.1,0.1s0,0.1,0,0.1c0,0,0,0,0,0.1s0,0,0,0.1c0,0.1,0.1,0.2,0.1,0.2c0,0.1,0,0.1,0,0.2
		c0,0.1,0,0.1,0,0.1s0,0,0,0.1c0,0,0,0.1,0,0.1c0,0,0.1,0,0.1,0.1c0,0.1,0,0.1,0,0.1s0,0.1,0,0.1c0,0,0,0.1,0,0.1s0,0,0,0.1
		s0,0.1,0,0.1c0,0,0.1,0.1,0.1,0.1c0,0,0.1,0.1,0.1,0.1c0.1,0,0.1,0.1,0.1,0.1c-0.1,0.1-0.1,0.3,0.1,0.4v0.1c0,0,0,0.1,0.1,0.1
		c0.1,0.1,0.1,0.1,0.1,0.2l0.2,0.2c0.1,0.1,0.3,0.3,0.5,0.5c0.2,0.2,0.4,0.4,0.4,0.4c0.1,0,0.1,0,0.1,0c0.2,0.3,0.5,0.5,0.7,0.5
		c0.1,0.1,0.2,0.2,0.2,0.2s0.1,0,0.2,0c0.1,0,0.2,0,0.2,0c0,0,0.1,0.1,0.1,0.1c0,0,0.1,0.1,0.1,0.1s0.1,0,0.1,0s0.1-0.1,0.1-0.1
		c0,0,0,0,0.1,0.1c0.1,0,0.1,0,0.1,0c0.2,0,0.5,0,0.7,0c0,0,0.1,0,0.2-0.1c0.1-0.1,0.2-0.1,0.2-0.1c0.1,0,0.2,0,0.2,0
		c0,0,0.1,0,0.1-0.1c0,0,0.1-0.1,0.1-0.1c0,0,0.1,0,0.2,0c0.1-0.1,0.2-0.2,0.4-0.1c0.1-0.1,0.3-0.2,0.5-0.4c0.2-0.2,0.4-0.3,0.6-0.4
		c0,0,0-0.1,0.1-0.1c0,0,0.1-0.1,0.1-0.1c0,0,0,0,0-0.1c0-0.1,0.1-0.1,0.2-0.2c0.1-0.1,0.1-0.1,0.1-0.1c0,0,0.1-0.1,0.1-0.2
		c0.1-0.1,0.1-0.2,0.1-0.2c0,0,0-0.1,0.1-0.1c0.1,0,0.1-0.1,0.1-0.1c0.1-0.1,0.2-0.2,0.2-0.2c0,0,0-0.1,0-0.1c0,0,0.1-0.2,0.3-0.5
		c0,0,0-0.1,0.1-0.1c0,0,0.1-0.2,0.1-0.5c0-0.1,0.1-0.2,0.2-0.3c0,0,0-0.1,0-0.1c0,0,0-0.1,0.1-0.1c0,0,0.1-0.1,0.1-0.1
		c0,0,0-0.1,0-0.1c0-0.1,0-0.1,0-0.1c0.1-0.1,0.2-0.4,0.3-0.9l0.1-0.3c0,0,0-0.1,0-0.1c0-0.1,0-0.1,0-0.1C43.9,53.1,44,53,44,53
		c0,0,0-0.1-0.1-0.1c-0.1,0-0.1-0.1-0.1-0.1c0-0.1,0-0.1,0.1-0.2c0.1-0.1,0.1-0.2,0.1-0.2c0-0.1,0-0.2,0-0.3c-0.1-0.1-0.1-0.2,0-0.2
		c0,0,0-0.1,0.1-0.1c0,0,0-0.1,0-0.1c0,0-0.1-0.1-0.1-0.1c0,0-0.1-0.1-0.1-0.1c0.1-0.1,0.1-0.1,0.1-0.1s0-0.1-0.1-0.1s0-0.1,0-0.1
		c0-0.1,0-0.2,0-0.3c0-0.1,0-0.2,0-0.2c0,0,0-0.1,0-0.1c0-0.1,0.1-0.1,0.1-0.1s0-0.1-0.1-0.1c0-0.1,0-0.1-0.1-0.2
		c-0.1,0-0.1-0.1-0.1-0.1c0-0.1,0-0.1,0.1-0.2c0-0.1,0.1-0.1,0-0.2c0,0,0-0.1,0-0.1c0,0-0.1-0.1-0.1-0.1c0-0.1,0-0.1,0-0.1
		c0-0.1,0.1-0.1,0.1-0.1c-0.1,0-0.2-0.2-0.2-0.4c0-0.2-0.1-0.4-0.2-0.4c0,0,0-0.1,0-0.2c0-0.1,0-0.2,0-0.2c-0.1-0.1-0.2-0.2-0.2-0.3
		c-0.3-0.6-0.8-1.2-1.4-1.7h-0.2c0-0.1-0.1-0.2-0.3-0.3h-0.1l-0.2-0.1c0,0-0.1-0.1-0.1-0.1c-0.1-0.1-0.2-0.1-0.3-0.1
		c0,0-0.1,0-0.2,0c-0.1,0-0.2,0-0.2,0c-0.1-0.1-0.2-0.1-0.3-0.1c-0.1,0-0.2,0-0.3,0c-0.1,0-0.3,0-0.3,0c-0.2-0.2-0.3-0.3-0.4-0.2
		c-0.1-0.1-0.1-0.2,0-0.3c0,0,0-0.1,0.1-0.1s0.1-0.1,0.1-0.1c0-0.1,0-0.1-0.1-0.1c-0.1,0-0.1,0-0.1,0C38.6,43.7,38.5,43.7,38.5,43.7
		z M37.4,43.7c-0.2,0.1-0.4,0.2-0.6,0.3c-0.2,0.1-0.4,0.2-0.6,0.4c-0.2,0.2-0.3,0.3-0.4,0.5c0,0-0.1,0.1-0.1,0.2
		c-0.1,0.1-0.1,0.1-0.1,0.1v0.1c0,0,0,0.1-0.1,0.1s-0.1,0.1-0.1,0.1c0,0-0.1,0.2-0.2,0.4c0,0.1,0,0.1-0.1,0.2
		c-0.1,0.1-0.1,0.1-0.1,0.1c0,0.1,0,0.2,0,0.2s0,0.1-0.1,0.2c0,0,0,0.1,0,0.2c0,0.1,0,0.1,0,0.2c0,0,0,0.1,0,0.1
		c-0.1,0.1-0.1,0.2-0.1,0.2c-0.2,0.1-0.2,0.3-0.2,0.5c-0.1,0.1-0.2,0.3-0.1,0.7c-0.1,0.1-0.2,0.3-0.1,0.5c-0.2,0.3-0.2,0.5-0.1,0.7
		c0,0,0,0.1-0.1,0.1c0,0-0.1,0-0.1,0.1c0,0.1,0,0.2-0.1,0.4c-0.1,0.2-0.1,0.3,0,0.4c-0.1,0.1-0.1,0.3-0.1,0.6c0,0,0,0.1,0,0.1
		c0,0.1,0,0.1,0,0.1c0,0,0,0.1-0.1,0.1c0,0-0.1,0.1-0.1,0.1c0.1,0.1,0.1,0.2,0.1,0.3c0,0.1,0,0.3,0,0.5s0,0.3,0,0.4
		c0,0,0,0.1-0.1,0.1s0,0.1,0,0.1l0.1,0.1c0,0.1,0,0.2-0.1,0.5c0,0,0,0.1,0.1,0.1c0,0,0,0.1,0,0.1c0,0,0,0.1,0,0.1c0,0.1,0,0.1,0,0.1
		c0,0.2,0,0.3,0,0.4c0,0,0.1,0.1,0.1,0.1s0,0.1,0,0.1c0,0,0,0,0,0.1s0,0,0,0.1c0,0.1,0.1,0.2,0.1,0.2c0,0.1,0,0.1,0,0.2
		c0,0.1,0,0.1,0,0.1s0,0,0,0.1c0,0,0,0.1,0,0.1c0,0,0.1,0,0.1,0.1c0,0.1,0,0.1,0,0.1s0,0.1,0,0.1c0,0,0,0.1,0,0.1s0,0,0,0.1
		s0,0.1,0,0.1c0,0,0.1,0.1,0.1,0.1c0,0,0.1,0.1,0.1,0.1c0.1,0,0.1,0.1,0.1,0.1c-0.1,0.1-0.1,0.3,0.1,0.4v0.1c0,0,0,0.1,0.1,0.1
		c0.1,0.1,0.1,0.1,0.1,0.2l0.2,0.2c0.1,0.1,0.3,0.3,0.5,0.5c0.2,0.2,0.4,0.4,0.4,0.4c0.1,0,0.1,0,0.1,0c0.2,0.3,0.5,0.5,0.7,0.5
		c0.1,0.1,0.2,0.2,0.2,0.2s0.1,0,0.2,0c0.1,0,0.2,0,0.2,0c0,0,0.1,0.1,0.1,0.1c0,0,0.1,0.1,0.1,0.1s0.1,0,0.1,0s0.1-0.1,0.1-0.1
		c0,0,0,0,0.1,0.1c0.1,0,0.1,0,0.1,0c0.2,0,0.5,0,0.7,0c0,0,0.1,0,0.2-0.1c0.1-0.1,0.2-0.1,0.2-0.1c0.1,0,0.2,0,0.2,0
		c0,0,0.1,0,0.1-0.1c0,0,0.1-0.1,0.1-0.1c0,0,0.1,0,0.2,0c0.1-0.1,0.2-0.2,0.4-0.1c0.1-0.1,0.3-0.2,0.5-0.4c0.2-0.2,0.4-0.3,0.6-0.4
		c0,0,0-0.1,0.1-0.1c0,0,0.1-0.1,0.1-0.1c0,0,0,0,0-0.1c0-0.1,0.1-0.1,0.2-0.2c0.1-0.1,0.1-0.1,0.1-0.1c0,0,0.1-0.1,0.1-0.2
		c0.1-0.1,0.1-0.2,0.1-0.2c0,0,0-0.1,0.1-0.1c0.1,0,0.1-0.1,0.1-0.1c0.1-0.1,0.2-0.2,0.2-0.2c0,0,0-0.1,0-0.1c0,0,0.1-0.2,0.3-0.5
		c0,0,0-0.1,0.1-0.1c0,0,0.1-0.2,0.1-0.5c0-0.1,0.1-0.2,0.2-0.3c0,0,0-0.1,0-0.1c0,0,0-0.1,0.1-0.1c0,0,0.1-0.1,0.1-0.1
		c0,0,0-0.1,0-0.1c0-0.1,0-0.1,0-0.1c0.1-0.1,0.2-0.4,0.3-0.9l0.1-0.3c0,0,0-0.1,0-0.1c0-0.1,0-0.1,0-0.1C43.9,53.1,44,53,44,53
		c0,0,0-0.1-0.1-0.1c-0.1,0-0.1-0.1-0.1-0.1c0-0.1,0-0.1,0.1-0.2c0.1-0.1,0.1-0.2,0.1-0.2c0-0.1,0-0.2,0-0.3c-0.1-0.1-0.1-0.2,0-0.2
		c0,0,0-0.1,0.1-0.1c0,0,0-0.1,0-0.1c0,0-0.1-0.1-0.1-0.1c0,0-0.1-0.1-0.1-0.1c0.1-0.1,0.1-0.1,0.1-0.1s0-0.1-0.1-0.1s0-0.1,0-0.1
		c0-0.1,0-0.2,0-0.3c0-0.1,0-0.2,0-0.2c0,0,0-0.1,0-0.1c0-0.1,0.1-0.1,0.1-0.1s0-0.1-0.1-0.1c0-0.1,0-0.1-0.1-0.2
		c-0.1,0-0.1-0.1-0.1-0.1c0-0.1,0-0.1,0.1-0.2c0-0.1,0.1-0.1,0-0.2c0,0,0-0.1,0-0.1c0,0-0.1-0.1-0.1-0.1c0-0.1,0-0.1,0-0.1
		c0-0.1,0.1-0.1,0.1-0.1c-0.1,0-0.2-0.2-0.2-0.4c0-0.2-0.1-0.4-0.2-0.4c0,0,0-0.1,0-0.2c0-0.1,0-0.2,0-0.2c-0.1-0.1-0.2-0.2-0.2-0.3
		c-0.3-0.6-0.8-1.2-1.4-1.7h-0.2c0-0.1-0.1-0.2-0.3-0.3h-0.1l-0.2-0.1c0,0-0.1-0.1-0.1-0.1c-0.1-0.1-0.2-0.1-0.3-0.1
		c0,0-0.1,0-0.2,0c-0.1,0-0.2,0-0.2,0c-0.1-0.1-0.2-0.1-0.3-0.1c-0.1,0-0.2,0-0.3,0c-0.1,0-0.3,0-0.3,0c-0.2-0.2-0.3-0.3-0.4-0.2
		c-0.1-0.1-0.1-0.2,0-0.3c0,0,0-0.1,0.1-0.1s0.1-0.1,0.1-0.1c0-0.1,0-0.1-0.1-0.1c-0.1,0-0.1,0-0.1,0c0-0.2-0.1-0.2-0.1-0.2
		c-0.1,0-0.3,0-0.5,0C37.8,43.7,37.6,43.7,37.4,43.7z"/>
	<path fill="#D93427" d="M61.3,42c0,0,0,0.1,0,0.2c0.3,0.2,0.5,0.3,0.7,0.5l0.2-0.1c0,0.1,0.1,0.2,0.2,0.3c0,0.1,0,0.2,0.1,0.3
		c0.1,0,0.1,0,0.1,0c0,0.3,0,0.5,0,0.6c0.1,0.1,0.1,0.2,0.1,0.3c0,0.1,0,0.2,0,0.3c0,0.1,0,0.3,0,0.4c-0.2,0.1-0.3,0.3-0.3,0.5
		c-0.1,0-0.1,0-0.2,0c-0.1,0.1-0.1,0.1-0.1,0.1s-0.1,0-0.1,0s-0.1,0-0.1,0c0,0,0,0-0.1,0.1s-0.1,0-0.1,0c0,0,0,0-0.1,0
		c-0.1,0-0.1,0.1-0.2,0.3c0,0-0.1,0-0.2-0.1c-0.1,0-0.1,0-0.1,0c0,0-0.1,0.1-0.1,0.1c0-0.1-0.1-0.3-0.2-0.4c0,0-0.1,0-0.1,0
		c0,0-0.1,0-0.1,0l-0.1-0.1c-0.1,0-0.1,0-0.1,0c0,0,0,0.1-0.1,0.1v-0.1c-0.1-0.1-0.2-0.2-0.4-0.1c0,0-0.1,0-0.1,0.1
		c-0.1,0-0.2,0-0.3,0c0,0-0.1,0-0.1-0.1c0,0-0.1,0-0.1,0c0,0-0.1,0-0.1,0c0,0-0.1,0.1-0.1,0.1s-0.1-0.1-0.2-0.1c0,0-0.1,0-0.1,0.1
		c-0.1,0-0.1,0-0.1-0.1c0,0-0.1,0-0.1,0c-0.1,0-0.1,0-0.2,0c-0.1,0-0.1,0.1-0.1,0.1s-0.1,0-0.1-0.1c0,0-0.1,0-0.2,0c0,0-0.1,0-0.1,0
		c0,0-0.1,0.1-0.1,0.1c-0.1,0-0.2,0-0.2,0c-0.4,0-0.6,0.1-0.6,0.1c0,0.1,0,0.1,0,0.1c0,0-0.1,0-0.1-0.1c-0.1,0-0.1-0.1-0.1-0.1
		c0,0-0.1,0-0.3,0.1c0,0-0.1,0-0.1-0.1c0,0,0,0-0.1,0c-0.1,0.1-0.2,0.1-0.5,0.2c-0.3,0.1-0.4,0.1-0.5,0.2l0,0.1c-0.1,0-0.1,0-0.1,0
		s-0.1,0-0.1,0c0,0,0,0.1-0.1,0.1c-0.1,0-0.1,0-0.1,0s-0.1,0-0.2,0.1c0,0-0.1,0-0.1,0c-0.1,0-0.2,0-0.2,0c0,0,0,0.1,0,0.1
		c0,0,0.1,0.1,0.1,0.1c0,0.1,0.1,0.2,0.1,0.2s0.1,0,0.2,0c0,0.1,0.1,0.2,0.3,0.3c0,0,0.1,0,0.1,0c0,0,0.1,0,0.1,0s0.1,0,0.1,0.1
		c0,0.1,0,0.1,0,0.1c0.1-0.1,0.2,0,0.3,0.1c0.1,0.1,0.2,0.1,0.3,0.1c0,0,0.1,0.1,0.2,0.1c0.1,0,0.2,0,0.2,0.1c0,0,0.1,0,0.1,0.1
		c0,0,0.1,0,0.1,0c0,0,0.1,0.1,0.1,0.1c0,0,0.1,0,0.1,0.1c0.4,0.1,0.6,0.1,0.6,0.2c0.1-0.1,0.3-0.1,0.4,0c0.1,0,0.1,0.1,0.1,0.1
		c0.1,0,0.2,0,0.3,0c0.1,0,0.2,0,0.3,0c0,0,0.1,0,0.1,0.1s0,0,0.1,0c0,0,0.1,0,0.1,0c0,0,0.1,0,0.1,0.1c0,0.1,0.1,0.1,0.1,0.1
		c0,0,0.1,0,0.1,0c0.1,0,0.1,0,0.1,0c0.2,0.2,0.4,0.2,0.5,0.2l0.1-0.1c0.1,0,0.2,0,0.2,0c0,0,0,0,0,0.1c0.1,0.1,0.2,0.1,0.2,0.1
		c0,0,0.1,0,0.1,0s0.1-0.1,0.1-0.1c0,0.2,0,0.2,0.1,0.2c0,0,0.1,0,0.1,0c0,0,0,0,0.1-0.1c0.2,0,0.3,0.1,0.3,0.1
		c0,0.1,0.1,0.2,0.2,0.2c0.1,0,0.2,0.1,0.2,0.2c0.3-0.1,0.5,0,0.6,0.1c0,0,0.1,0,0.1,0s0.1,0,0.1,0c0,0,0.1,0,0.1,0.1
		c0.1,0.1,0.1,0.1,0.1,0.1s0.1,0,0.1-0.1c0.1-0.1,0.1-0.1,0.2,0c0,0.1,0,0.2,0.1,0.2c0.1,0,0.2,0,0.3,0.1C63,50,63,50,63.1,50
		s0.1,0,0.1,0s0.1,0,0.1,0c0,0,0,0,0,0.1c0,0,0.1,0.1,0.3,0.1c0.1,0.1,0.3,0.1,0.3,0.2c0.1,0,0.1,0,0.2,0c0.1,0.1,0.2,0.1,0.3,0.1
		c0.1,0.2,0.2,0.3,0.2,0.3c0,0,0.1,0,0.1,0s0.1,0,0.1,0c0,0,0,0.1,0,0.1c0.1,0.1,0.2,0.2,0.4,0.4c0.2,0.2,0.3,0.3,0.4,0.4
		c0,0.1,0.1,0.1,0.1,0.2s0,0.2,0,0.2c0.2,0.1,0.3,0.3,0.3,0.6c0,0.1,0.1,0.2,0.1,0.3c0.1,0.1,0.1,0.2,0.1,0.3c0,0,0,0.1,0,0.1
		c0,0,0,0.1,0,0.1c0,0,0,0.1,0,0.1s0.1,0.1,0.1,0.1s0,0.1,0,0.1c0,0.1,0,0.1,0,0.1s0,0.1,0.1,0.1c0,0,0,0.1,0,0.1c0,0,0,0.1,0,0.3
		c0,0.2,0,0.3,0.1,0.4c0,0,0,0.1,0,0.1c0,0,0,0.1,0,0.1c0.1,0,0.1,0.2,0,0.4c-0.1,0.2-0.1,0.4-0.1,0.5c0,0,0,0.1,0,0.1
		c0,0.1,0,0.1-0.1,0.2c-0.1,0.1-0.1,0.1-0.1,0.1c0,0.1,0,0.2-0.1,0.3c0,0,0,0.1,0,0.1c-0.2,0.2-0.3,0.3-0.3,0.4
		c-0.2,0.2-0.3,0.4-0.4,0.4c0,0.2-0.1,0.4-0.2,0.5c-0.1,0.1-0.2,0.2-0.3,0.3c0,0.1,0,0.1-0.1,0.2c0,0,0,0.1,0,0.1c0,0-0.1,0-0.1,0
		s-0.1,0-0.1,0c-0.1,0-0.1,0.1,0,0.2c0,0-0.2,0.1-0.5,0.3c0,0,0,0.1,0,0.1c-0.2,0.1-0.4,0.2-0.4,0.3c-0.1,0-0.1,0-0.2,0.2
		c-0.1,0-0.2,0.1-0.4,0.2c-0.1,0.1-0.3,0.2-0.3,0.2c0,0,0,0.1-0.1,0.2c0,0.1,0,0.1,0,0.2c0,0-0.1,0-0.1-0.1s-0.1-0.1-0.1-0.1
		s-0.1,0-0.2,0.1c-0.1,0.1-0.2,0.1-0.2,0.1C62,61,62,61,62,61.1c0,0-0.1,0-0.2,0c-0.1,0-0.2,0-0.2,0c-0.2,0.1-0.3,0.1-0.3,0
		c-0.1,0.1-0.2,0.2-0.2,0.2c-0.1,0.2-0.2,0.2-0.2,0.2c-0.1,0-0.1-0.1-0.1-0.1c-0.1,0-0.1,0-0.2,0.1c0,0.1-0.1,0.1-0.1,0.1
		c-0.1,0-0.2,0-0.3,0.1c-0.1,0.1-0.2,0.1-0.3,0.1c-0.1,0-0.1,0-0.2,0c-0.1,0-0.1,0-0.2,0c-0.1,0-0.1,0-0.2,0.1s-0.2,0.1-0.2,0.1
		c0,0-0.1,0-0.1,0c-0.1,0-0.1,0-0.1,0s-0.1,0.1-0.1,0.1c0,0-0.2,0-0.5,0c0,0-0.1,0-0.1-0.1c-0.2-0.1-0.4-0.1-0.5,0
		c-0.1,0-0.1,0-0.1,0c-0.1,0.1-0.1,0.1-0.1,0.1c-0.1-0.1-0.2-0.1-0.5-0.1c-0.1,0-0.2,0-0.2,0c-0.1-0.1-0.2-0.1-0.2-0.1
		s-0.1,0-0.1,0.1c-0.1,0-0.1,0.1-0.1,0c0,0,0-0.1,0-0.1s0-0.1,0-0.1c-0.1,0-0.2,0-0.3,0c-0.1,0-0.2,0-0.2,0c0,0-0.1,0-0.2-0.1
		c0,0-0.1,0-0.2,0v-0.2c0,0-0.1,0-0.2,0c0,0,0,0,0,0s0-0.1,0-0.1c-0.1,0-0.1,0-0.2-0.1c-0.1-0.1-0.1-0.2-0.1-0.2
		c-0.2-0.1-0.3-0.2-0.3-0.2c0-0.1,0-0.1,0-0.1c-0.1-0.1-0.2-0.1-0.3-0.2c-0.1-0.1-0.2-0.1-0.2-0.2c0,0-0.1,0-0.1,0s0,0-0.1,0
		c0-0.2-0.1-0.3-0.2-0.4c-0.1-0.1-0.2-0.2-0.3-0.2c0,0,0-0.1,0-0.1s0-0.1,0-0.1c0,0-0.1,0-0.1-0.1c0-0.1-0.1-0.1-0.1-0.2
		c-0.1-0.1-0.2-0.2-0.2-0.2s0-0.1,0-0.1s0-0.1,0-0.1c0,0,0-0.1,0-0.1c0-0.1,0-0.1-0.1-0.1c0,0,0-0.1,0-0.1s0-0.1,0-0.1
		c0-0.1,0-0.1-0.1-0.2c0-0.1-0.1-0.1-0.1-0.2c0-0.1,0-0.1,0.1-0.2c0-0.1,0.1-0.2,0.1-0.2c0,0,0.1,0,0.1,0c0,0,0,0,0.1,0
		c0,0,0-0.2-0.1-0.4c0.1,0,0.2,0,0.2,0c0.1-0.1,0.1-0.2,0-0.3c0,0,0.1-0.1,0.1-0.2c0.1-0.1,0.1-0.2,0.1-0.2c0,0,0.1,0,0.1,0
		c0,0,0.1,0.1,0.1,0.1c0.1,0,0.1-0.1,0.1-0.1s0-0.1,0.1-0.1c0-0.1,0.1-0.1,0.2-0.1c0.1,0,0.1,0,0.1,0s0-0.1,0.1-0.1
		c0,0,0.1-0.1,0.1,0s0.1,0.1,0.1,0.1c0,0,0.1,0,0.1,0s0.1,0,0.1,0c0.1,0.2,0.2,0.3,0.2,0.3c0.1,0,0.1,0,0.1,0c0,0,0.1,0,0.1,0.1
		c0.1,0.1,0.2,0.1,0.2,0.1c0.1,0,0.1,0.1,0.1,0.2c0.1,0,0.1,0.1,0.1,0.1c0,0.1,0.1,0.2,0.1,0.3c0.1,0.1,0.1,0.2,0.1,0.3
		c0.1,0,0.2,0.1,0.4,0.3c0.1,0.2,0.3,0.3,0.4,0.4c0,0,0,0.1,0.1,0.1c0,0,0,0.1,0,0.1l0.3,0.2c0,0,0.1,0,0.2,0c0.1,0,0.1,0,0.2,0
		c0,0,0.1,0.1,0.1,0.1s0,0,0.1,0c0.1,0,0.2,0,0.3,0c0.1,0,0.3,0,0.3,0c0,0,0.1,0,0.1,0.1c0,0,0.1,0.1,0.1,0.1c0.1,0,0.2,0,0.3-0.1
		c0.1-0.1,0.2-0.1,0.2-0.1s0.1,0,0.1,0c0.1,0,0.1,0,0.1,0c0,0,0.1,0,0.2-0.1c0.1,0,0.2,0,0.2,0c0,0,0.1,0,0.1,0c0.1,0,0.1,0,0.1,0
		c0,0,0.1,0,0.1-0.1c0,0,0,0,0,0s0.1,0,0.1,0s0.1,0,0.1,0s0,0,0.1-0.1c0,0,0.1,0,0.1,0c0.1,0,0.1,0,0.1-0.1c0,0,0.1,0,0.1,0
		c0,0,0,0,0.1,0s0.1,0,0.2,0c0.1,0,0.1-0.1,0.1-0.2c0,0,0.1,0,0.1,0.1c0,0,0.1,0,0.2-0.1c0.1-0.1,0.2-0.1,0.3-0.1
		c0.1-0.2,0.3-0.3,0.6-0.5c0.3-0.2,0.6-0.4,0.6-0.6c0.2-0.1,0.2-0.2,0.2-0.3c0.1,0,0.1-0.1,0.2-0.2c0.1-0.1,0.1-0.2,0.2-0.2l0-0.1
		c0,0,0-0.1,0.1-0.1v-0.3c0.1-0.1,0.2-0.1,0.2-0.1c0-0.1,0-0.2,0-0.4c0-0.2,0-0.3,0-0.4c0,0-0.1-0.1-0.1-0.1c0,0,0-0.1-0.1-0.1
		s0-0.1-0.1-0.2c0-0.1-0.1-0.1-0.2-0.2c-0.1,0-0.2-0.1-0.2-0.1c-0.1,0.1-0.2,0.1-0.2,0c0-0.1,0-0.1,0-0.1l-0.2-0.1c0,0,0,0,0-0.1
		s0-0.1-0.1-0.1c0,0,0,0-0.1,0c-0.1,0-0.1,0-0.1,0s0,0-0.1-0.1S61.7,53,61.7,53c0,0-0.1,0-0.2,0c-0.1,0-0.3,0-0.3,0
		c-0.2-0.1-0.3-0.1-0.4,0c0,0,0-0.1,0-0.1c0,0-0.1-0.1-0.4-0.1c-0.3-0.1-0.4-0.1-0.4-0.1c-0.2-0.2-0.5-0.3-0.9-0.3c0,0,0,0,0,0
		s0,0.1-0.1,0.1c0,0,0-0.1,0-0.1c-0.1,0-0.1,0-0.2-0.1C58.5,52,58.4,52,58.3,52c0,0-0.1,0-0.1,0s0,0.1-0.1,0.1c0,0,0-0.1-0.1-0.1
		S58,52,57.9,52c-0.1-0.2-0.2-0.2-0.3-0.1c-0.1-0.2-0.1-0.2-0.1-0.2c-0.2,0.1-0.3,0.1-0.4,0c-0.1-0.1-0.2-0.1-0.5-0.1
		c0-0.1-0.1-0.2-0.1-0.2c-0.2,0-0.4,0-0.5-0.1c0,0-0.1,0-0.1,0c0,0-0.1,0-0.1,0c0,0-0.1,0-0.1,0s0,0,0,0s0,0-0.1,0s-0.1,0-0.1-0.1
		c0,0,0,0-0.1,0c-0.3-0.1-0.5-0.1-0.6,0c0,0,0-0.1,0-0.1c0,0-0.1-0.1-0.1-0.1c0,0-0.1,0-0.1,0s-0.1,0-0.1-0.1c0,0-0.1-0.1-0.1-0.1
		c0,0-0.1,0-0.3-0.1c-0.1,0-0.3-0.1-0.3-0.1c-0.1-0.1-0.1-0.1-0.1-0.1s-0.1,0-0.1,0.1s-0.1,0-0.1,0c0-0.1,0-0.2,0-0.2
		c0,0-0.1,0-0.1,0c0,0-0.1,0.1-0.1,0.1s0,0,0-0.1c0,0,0-0.1,0-0.1s0,0,0,0c0,0-0.1,0-0.1-0.1c0,0-0.1,0-0.1,0.1c0,0-0.1,0-0.1,0
		c0,0,0-0.1,0-0.1c0,0,0,0,0,0c-0.1-0.1-0.1-0.1-0.2-0.1c-0.1-0.1-0.2-0.1-0.2-0.2c0,0-0.1,0-0.1,0c0,0-0.1,0-0.1,0
		c0-0.1-0.1-0.1-0.2-0.2c0-0.1-0.1-0.2-0.2-0.3c-0.1-0.1-0.2-0.2-0.3-0.3c0,0-0.1,0-0.1,0s-0.1-0.1-0.1-0.1c0-0.1,0-0.1,0-0.1
		c-0.2-0.2-0.3-0.4-0.3-0.6c-0.1,0-0.1,0-0.2-0.1c-0.1-0.1-0.1-0.1-0.1-0.1c0,0,0-0.1,0-0.3c-0.2-0.1-0.4-0.3-0.5-0.5c0,0,0,0,0-0.1
		c0-0.1,0-0.2,0-0.2c0,0,0-0.1-0.1-0.1c0,0-0.1-0.1-0.1-0.1c0,0,0-0.1,0-0.2c0,0,0-0.1,0-0.2c0-0.1,0-0.2,0-0.3c0,0,0-0.1,0-0.1
		c0-0.1,0-0.1,0-0.1s0-0.1,0.1-0.2c0-0.1,0-0.1,0-0.2c0-0.1,0-0.1,0-0.1c0.1-0.1,0.3-0.2,0.5-0.4c0,0,0.1,0,0.2,0c0,0,0.1,0,0.1-0.1
		c0,0,0-0.1,0-0.1c0,0,0.1,0,0.3-0.1c0.2-0.1,0.4-0.2,0.4-0.2c0.1,0,0.2,0,0.2-0.1c0,0,0.1-0.1,0.1-0.2c0,0,0,0,0.1,0
		c0,0,0.1,0,0.1-0.1c0.1,0,0.1-0.1,0.2-0.1c0.1,0,0.2,0,0.2,0c0.1,0,0.2-0.1,0.2-0.3c0.2,0,0.3,0,0.3-0.1c0.1,0,0.2,0,0.3,0
		c0.1,0,0.2,0,0.2,0c0.1,0,0.1,0,0.2-0.1c0.1-0.1,0.2-0.1,0.2-0.1c0.1,0,0.2,0,0.2,0c0,0,0.1,0,0.2,0c0.1,0,0.1-0.1,0.2-0.1
		c0,0,0.1,0,0.2,0c0,0,0.1,0,0.1-0.1c0-0.1,0.1-0.1,0.1-0.1c0.1,0,0.1,0,0.1,0c0,0,0.1-0.1,0.3-0.2c0.1,0,0.2,0,0.2-0.1l0,0.1
		c0.1-0.1,0.3-0.1,0.5-0.1s0.4,0,0.5,0c0,0,0.1,0,0.1,0c0,0,0.1-0.1,0.1-0.1c0.1,0,0.1,0,0.1,0s0.1,0,0.1-0.1s0.1-0.1,0.1-0.1
		c0.1,0,0.4,0,0.8,0s0.7,0,0.9,0c0.1,0,0.2,0,0.3,0c0.1,0,0.2,0,0.2,0s0.1,0,0.2,0c0.1,0,0.2,0,0.2,0c0,0,0.1,0,0.2,0.1
		c0.3,0,0.5,0,0.6,0.1c0.1,0,0.3,0,0.4,0.1C61.1,42,61.2,42,61.3,42z M60.6,41.8c0.1,0,0.3,0,0.4,0.1c0.1,0.1,0.2,0.1,0.3,0.1
		c0,0,0,0.1,0,0.2c0.3,0.2,0.5,0.3,0.7,0.5l0.2-0.1c0,0.1,0.1,0.2,0.2,0.3c0,0.1,0,0.2,0.1,0.3c0.1,0,0.1,0,0.1,0c0,0.3,0,0.5,0,0.6
		c0.1,0.1,0.1,0.2,0.1,0.3c0,0.1,0,0.2,0,0.3c0,0.1,0,0.3,0,0.4c-0.2,0.1-0.3,0.3-0.3,0.5c-0.1,0-0.1,0-0.2,0
		c-0.1,0.1-0.1,0.1-0.1,0.1s-0.1,0-0.1,0s-0.1,0-0.1,0c0,0,0,0-0.1,0.1s-0.1,0-0.1,0c0,0,0,0-0.1,0c-0.1,0-0.1,0.1-0.2,0.3
		c0,0-0.1,0-0.2-0.1c-0.1,0-0.1,0-0.1,0c0,0-0.1,0.1-0.1,0.1c0-0.1-0.1-0.3-0.2-0.4c0,0-0.1,0-0.1,0c0,0-0.1,0-0.1,0l-0.1-0.1
		c-0.1,0-0.1,0-0.1,0c0,0,0,0.1-0.1,0.1v-0.1c-0.1-0.1-0.2-0.2-0.4-0.1c0,0-0.1,0-0.1,0.1c-0.1,0-0.2,0-0.3,0c0,0-0.1,0-0.1-0.1
		c0,0-0.1,0-0.1,0c0,0-0.1,0-0.1,0c0,0-0.1,0.1-0.1,0.1s-0.1-0.1-0.2-0.1c0,0-0.1,0-0.1,0.1c-0.1,0-0.1,0-0.1-0.1c0,0-0.1,0-0.1,0
		c-0.1,0-0.1,0-0.2,0c-0.1,0-0.1,0.1-0.1,0.1s-0.1,0-0.1-0.1c0,0-0.1,0-0.2,0c0,0-0.1,0-0.1,0c0,0-0.1,0.1-0.1,0.1
		c-0.1,0-0.2,0-0.2,0c-0.4,0-0.6,0.1-0.6,0.1c0,0,0,0.1,0,0.1s0,0.1,0,0.1c0,0-0.1,0-0.1-0.1c-0.1,0-0.1-0.1-0.1-0.1
		c0,0-0.1,0-0.3,0.1c0,0-0.1,0-0.1-0.1c0,0,0,0-0.1,0c-0.1,0.1-0.2,0.1-0.5,0.2c-0.3,0.1-0.4,0.1-0.5,0.2l0,0.1c-0.1,0-0.1,0-0.1,0
		s-0.1,0-0.1,0c0,0,0,0.1-0.1,0.1c-0.1,0-0.1,0-0.1,0s-0.1,0-0.2,0.1c0,0-0.1,0-0.1,0c-0.1,0-0.2,0-0.2,0c0,0,0,0.1,0,0.1
		c0,0,0.1,0.1,0.1,0.1c0,0.1,0.1,0.2,0.1,0.2s0.1,0,0.2,0c0,0.1,0.1,0.2,0.3,0.3c0,0,0.1,0,0.1,0c0,0,0.1,0,0.1,0s0.1,0,0.1,0.1
		c0,0.1,0,0.1,0,0.1c0.1-0.1,0.2,0,0.3,0.1c0.1,0.1,0.2,0.1,0.3,0.1c0,0,0.1,0.1,0.2,0.1c0.1,0,0.2,0,0.2,0.1c0,0,0.1,0,0.1,0.1
		c0,0,0.1,0,0.1,0c0,0,0.1,0.1,0.1,0.1c0,0,0.1,0,0.1,0.1c0.4,0.1,0.6,0.1,0.6,0.2c0.1-0.1,0.3-0.1,0.4,0c0.1,0,0.1,0.1,0.1,0.1
		c0.1,0,0.2,0,0.3,0c0.1,0,0.2,0,0.3,0c0,0,0.1,0,0.1,0.1s0,0,0.1,0c0,0,0.1,0,0.1,0c0,0,0.1,0,0.1,0.1c0,0.1,0.1,0.1,0.1,0.1
		c0,0,0.1,0,0.1,0c0.1,0,0.1,0,0.1,0c0.2,0.2,0.4,0.2,0.5,0.2l0.1-0.1c0.1,0,0.2,0,0.2,0c0,0,0,0,0,0.1c0.1,0.1,0.2,0.1,0.2,0.1
		c0,0,0.1,0,0.1,0s0.1-0.1,0.1-0.1c0,0.2,0,0.2,0.1,0.2c0,0,0.1,0,0.1,0c0,0,0,0,0.1-0.1c0.2,0,0.3,0.1,0.3,0.1
		c0,0.1,0.1,0.2,0.2,0.2c0.1,0,0.2,0.1,0.2,0.2c0.3-0.1,0.5,0,0.6,0.1c0,0,0.1,0,0.1,0s0.1,0,0.1,0c0,0,0.1,0,0.1,0.1
		c0.1,0.1,0.1,0.1,0.1,0.1s0.1,0,0.1-0.1c0.1-0.1,0.1-0.1,0.2,0c0,0.1,0,0.2,0.1,0.2c0.1,0,0.2,0,0.3,0.1C63,50,63,50,63.1,50
		s0.1,0,0.1,0s0.1,0,0.1,0c0,0,0,0,0,0.1c0,0,0.1,0.1,0.3,0.1c0.1,0.1,0.3,0.1,0.3,0.2c0.1,0,0.1,0,0.2,0c0.1,0.1,0.2,0.1,0.3,0.1
		c0.1,0.2,0.2,0.3,0.2,0.3c0,0,0.1,0,0.1,0s0.1,0,0.1,0c0,0,0,0.1,0,0.1c0.1,0.1,0.2,0.2,0.4,0.4c0.2,0.2,0.3,0.3,0.4,0.4
		c0,0.1,0.1,0.1,0.1,0.2s0,0.2,0,0.2c0.2,0.1,0.3,0.3,0.3,0.6c0,0.1,0.1,0.2,0.1,0.3c0.1,0.1,0.1,0.2,0.1,0.3c0,0,0,0.1,0,0.1
		c0,0,0,0.1,0,0.1c0,0,0,0.1,0,0.1s0.1,0.1,0.1,0.1s0,0.1,0,0.1c0,0.1,0,0.1,0,0.1c0,0,0,0,0.1,0.1c0,0,0,0.1,0,0.1c0,0,0,0.1,0,0.3
		c0,0.2,0,0.3,0.1,0.4c0,0,0,0.1,0,0.1c0,0,0,0.1,0,0.1c0.1,0,0.1,0.2,0,0.4c-0.1,0.2-0.1,0.4-0.1,0.5c0,0,0,0.1,0,0.1
		c0,0.1,0,0.1-0.1,0.2c-0.1,0.1-0.1,0.1-0.1,0.1c0,0.1,0,0.2-0.1,0.3c0,0,0,0.1,0,0.1c-0.2,0.2-0.3,0.3-0.3,0.4
		c-0.2,0.2-0.3,0.4-0.4,0.4c0,0.2-0.1,0.4-0.2,0.5c-0.1,0.1-0.2,0.2-0.3,0.3c0,0.1,0,0.1-0.1,0.2c0,0,0,0.1,0,0.1c0,0-0.1,0-0.1,0
		s-0.1,0-0.1-0.1c-0.1,0-0.1,0.1,0,0.2c0,0-0.2,0.1-0.5,0.3c0,0,0,0.1,0,0.1c-0.2,0.1-0.4,0.2-0.4,0.2c-0.1,0-0.1,0.1-0.2,0.2
		c-0.1,0-0.2,0.1-0.4,0.2c-0.1,0.1-0.3,0.2-0.3,0.2c0,0,0,0.1-0.1,0.2c0,0.1,0,0.1,0,0.2c0,0-0.1,0-0.1-0.1s-0.1-0.1-0.1-0.1
		s-0.1,0-0.2,0.1c-0.1,0.1-0.2,0.1-0.2,0.1C62,61,62,61,62,61.1c0,0-0.1,0-0.2,0c-0.1,0-0.2,0-0.2,0c-0.2,0.1-0.3,0.1-0.3,0
		c-0.1,0.1-0.2,0.2-0.2,0.2c-0.1,0.2-0.2,0.2-0.2,0.2c-0.1,0-0.1-0.1-0.1-0.1c-0.1,0-0.1,0-0.2,0.1c0,0.1-0.1,0.1-0.1,0.1
		c-0.1,0-0.2,0-0.3,0.1c-0.1,0.1-0.2,0.1-0.3,0.1c-0.1,0-0.1,0-0.2,0c-0.1,0-0.1,0-0.2,0c-0.1,0-0.1,0-0.2,0.1s-0.2,0.1-0.2,0.1
		c0,0-0.1,0-0.1,0c-0.1,0-0.1,0-0.1,0s-0.1,0.1-0.1,0.1c0,0-0.2,0-0.5,0c0,0-0.1,0-0.1-0.1c-0.2-0.1-0.4-0.1-0.5,0
		c-0.1,0-0.1,0-0.1,0c-0.1,0.1-0.1,0.1-0.1,0.1c-0.1-0.1-0.2-0.1-0.5-0.1c-0.1,0-0.2,0-0.2,0c-0.1-0.1-0.2-0.1-0.2-0.1
		s-0.1,0-0.1,0.1c-0.1,0-0.1,0.1-0.1,0c0,0,0-0.1,0-0.1s0-0.1,0-0.1c-0.1,0-0.2,0-0.3,0c-0.1,0-0.2,0-0.2,0c0,0-0.1,0-0.2-0.1
		c0,0-0.1,0-0.2,0v-0.2c0,0-0.1,0-0.2,0c0,0,0,0,0,0s0-0.1,0-0.1c-0.1,0-0.1,0-0.2-0.1c-0.1-0.1-0.1-0.2-0.1-0.2
		c-0.2-0.1-0.3-0.2-0.3-0.2c0-0.1,0-0.1,0-0.1c-0.1-0.1-0.2-0.1-0.3-0.2c-0.1-0.1-0.2-0.1-0.2-0.2c0,0-0.1,0-0.1,0s0,0-0.1,0
		c0-0.2-0.1-0.3-0.2-0.4c-0.1-0.1-0.2-0.2-0.3-0.2c0,0,0-0.1,0-0.1s0-0.1,0-0.1c0,0-0.1,0-0.1-0.1c0-0.1-0.1-0.1-0.1-0.2
		c-0.1-0.1-0.2-0.2-0.2-0.2s0-0.1,0-0.1s0-0.1,0-0.1c0,0,0-0.1,0-0.1c0-0.1,0-0.1-0.1-0.1c0,0,0-0.1,0-0.1s0-0.1,0-0.1
		c0-0.1,0-0.1-0.1-0.2c0-0.1-0.1-0.1-0.1-0.2c0-0.1,0-0.1,0.1-0.2c0-0.1,0.1-0.2,0.1-0.2c0,0,0.1,0,0.1,0c0,0,0,0,0.1,0
		c0,0,0-0.2-0.1-0.4c0.1,0,0.2,0,0.2,0c0.1-0.1,0.1-0.2,0-0.3c0,0,0.1-0.1,0.1-0.2c0.1-0.1,0.1-0.2,0.1-0.2c0,0,0.1,0,0.1,0.1
		c0.1,0,0.1,0,0.1-0.1s0-0.1,0.1-0.1c0-0.1,0.1-0.1,0.2-0.1c0.1,0,0.1,0,0.1,0s0-0.1,0.1-0.1c0,0,0.1-0.1,0.1,0s0.1,0.1,0.1,0.1
		c0,0,0.1,0,0.1,0s0.1,0,0.1,0c0.1,0.2,0.2,0.3,0.2,0.3c0.1,0,0.1,0,0.1,0c0,0,0.1,0,0.1,0.1c0.1,0.1,0.2,0.1,0.2,0.1
		c0.1,0,0.1,0.1,0.1,0.2c0.1,0,0.1,0.1,0.1,0.1c0,0.1,0.1,0.2,0.1,0.3c0.1,0.1,0.1,0.2,0.1,0.3c0.1,0,0.2,0.1,0.4,0.3
		c0.1,0.2,0.3,0.3,0.4,0.4c0,0,0,0.1,0.1,0.1c0,0,0,0.1,0,0.1l0.3,0.2c0,0,0.1,0,0.2,0c0.1,0,0.1,0,0.2,0c0,0,0.1,0.1,0.1,0.1
		s0,0,0.1,0c0.1,0,0.2,0,0.3,0c0.1,0,0.3,0,0.3,0c0,0,0.1,0,0.1,0.1c0,0,0.1,0.1,0.1,0.1c0.1,0,0.2,0,0.3-0.1
		c0.1-0.1,0.2-0.1,0.2-0.1c0,0,0.1,0,0.1,0c0.1,0,0.1,0,0.1,0c0,0,0.1,0,0.2-0.1c0.1,0,0.2,0,0.2,0c0,0,0.1,0,0.1,0
		c0.1,0,0.1,0,0.1,0c0,0,0.1,0,0.1-0.1c0,0,0,0,0,0s0.1,0,0.1,0s0.1,0,0.1,0s0,0,0.1-0.1c0,0,0.1,0,0.1,0c0.1,0,0.1,0,0.1-0.1
		c0,0,0.1,0,0.1,0c0,0,0,0,0.1,0s0.1,0,0.2,0c0.1,0,0.1-0.1,0.1-0.2c0,0,0.1,0,0.1,0.1c0,0,0.1,0,0.2-0.1c0.1-0.1,0.2-0.1,0.3-0.1
		c0.1-0.2,0.3-0.3,0.6-0.5c0.3-0.2,0.6-0.4,0.6-0.6c0.2-0.1,0.2-0.2,0.2-0.3c0.1,0,0.1-0.1,0.2-0.2c0.1-0.1,0.1-0.2,0.2-0.2l0-0.1
		c0,0,0-0.1,0.1-0.1v-0.3c0.1-0.1,0.2-0.1,0.2-0.1c0-0.1,0-0.2,0-0.4c0-0.2,0-0.3,0-0.4c0,0-0.1-0.1-0.1-0.1c0,0,0-0.1-0.1-0.1
		s0-0.1-0.1-0.2c0-0.1-0.1-0.1-0.2-0.2c-0.1,0-0.2-0.1-0.2-0.1c-0.1,0.1-0.2,0.1-0.2,0c0-0.1,0-0.1,0-0.1l-0.2-0.1c0,0,0,0,0-0.1
		s0-0.1-0.1-0.1c0,0,0,0-0.1,0c-0.1,0-0.1,0-0.1,0s0,0-0.1-0.1S61.7,53,61.7,53c0,0-0.1,0-0.2,0c-0.1,0-0.3,0-0.3,0
		c-0.2-0.1-0.3-0.1-0.4,0c0,0,0-0.1,0-0.1c0,0-0.1-0.1-0.4-0.1c-0.3-0.1-0.4-0.1-0.4-0.1c-0.2-0.2-0.5-0.3-0.9-0.3c0,0,0,0,0,0
		s0,0.1-0.1,0.1c0,0,0-0.1,0-0.1c-0.1,0-0.1,0-0.2-0.1C58.5,52,58.4,52,58.3,52c0,0-0.1,0.1-0.1,0.1s0,0.1-0.1,0.1
		c0,0,0-0.1-0.1-0.1S58,52,57.9,52c-0.1-0.1-0.2-0.1-0.3,0c-0.1-0.2-0.1-0.2-0.1-0.2c-0.2,0.1-0.3,0.1-0.4,0
		c-0.1-0.1-0.2-0.1-0.5-0.1c0-0.1-0.1-0.2-0.1-0.2c-0.2,0-0.4,0-0.5-0.1c0,0-0.1,0-0.2,0c0,0-0.1,0-0.1,0s0,0,0,0s0,0-0.1,0
		s-0.1,0-0.1-0.1c0,0,0,0-0.1,0c-0.3-0.1-0.5-0.1-0.6,0c0,0,0-0.1,0-0.1c0,0-0.1-0.1-0.1-0.1c0,0-0.1,0-0.1,0s-0.1,0-0.1-0.1
		c0,0-0.1-0.1-0.1-0.1c0,0-0.1,0-0.3-0.1c-0.1,0-0.3-0.1-0.3-0.1c-0.1-0.1-0.1-0.1-0.1-0.1s-0.1,0-0.1,0.1s-0.1,0-0.1,0
		c0-0.1,0-0.2,0-0.2c0,0-0.1,0-0.1,0c0,0-0.1,0.1-0.1,0.1s0,0,0-0.1c0,0,0-0.1,0-0.1s0,0,0,0c0,0-0.1,0-0.1-0.1c0,0-0.1,0-0.1,0.1
		c0,0-0.1,0-0.1,0c0,0,0-0.1,0-0.1c0,0,0,0,0,0c-0.1-0.1-0.1-0.1-0.2-0.1c-0.1-0.1-0.2-0.1-0.2-0.2c0,0-0.1,0-0.1,0c0,0-0.1,0-0.1,0
		c0-0.1-0.1-0.1-0.2-0.2c0-0.1-0.1-0.2-0.2-0.3c-0.1-0.1-0.2-0.2-0.3-0.3c0,0-0.1,0-0.1,0s-0.1-0.1-0.1-0.1c0-0.1,0-0.1,0-0.1
		c-0.2-0.2-0.3-0.4-0.3-0.6c-0.1,0-0.1,0-0.2-0.1c-0.1-0.1-0.1-0.1-0.1-0.1c0,0,0-0.1,0-0.3c-0.2-0.1-0.4-0.3-0.5-0.5c0,0,0,0,0-0.1
		c0-0.1,0-0.2,0-0.2c0,0,0-0.1-0.1-0.1c0,0-0.1-0.1-0.1-0.1c0,0,0-0.1,0-0.2c0,0,0-0.1,0-0.2c0-0.1,0-0.2,0-0.3c0,0,0-0.1,0-0.1
		c0-0.1,0-0.1,0-0.1s0-0.1,0.1-0.2c0-0.1,0-0.1,0-0.2c0-0.1,0-0.1,0-0.1c0.1-0.1,0.3-0.2,0.5-0.4c0,0,0.1,0,0.2,0c0,0,0.1,0,0.1-0.1
		c0,0,0-0.1,0-0.1c0,0,0.1,0,0.3-0.1c0.2-0.1,0.4-0.2,0.4-0.2c0.1,0,0.2,0,0.2-0.1c0,0,0.1-0.1,0.1-0.2c0,0,0,0,0.1,0
		c0,0,0.1,0,0.1-0.1c0.1,0,0.1-0.1,0.2-0.1c0.1,0,0.2,0,0.2,0c0.1,0,0.2-0.1,0.2-0.3c0.2,0,0.3,0,0.3-0.1c0.1,0,0.2,0,0.3,0
		c0.1,0,0.2,0,0.2,0c0.1,0,0.1,0,0.2-0.1c0.1-0.1,0.2-0.1,0.2-0.1c0.1,0,0.2,0,0.2,0c0,0,0.1,0,0.2,0c0.1,0,0.1-0.1,0.2-0.1
		c0,0,0.1,0,0.2,0c0,0,0.1,0,0.1-0.1c0-0.1,0.1-0.1,0.1-0.1c0.1,0,0.1,0,0.1,0c0,0,0.1-0.1,0.3-0.2c0.1,0,0.2,0,0.2-0.1l0,0.1
		c0.1-0.1,0.3-0.1,0.5-0.1s0.4,0,0.5,0c0,0,0.1,0,0.1,0c0,0,0.1-0.1,0.1-0.1c0.1,0,0.1,0,0.1,0s0.1,0,0.1-0.1s0.1-0.1,0.1-0.1
		c0.1,0,0.4,0,0.8,0s0.7,0,0.9,0c0.1,0,0.2,0,0.3,0c0.1,0,0.2,0,0.2,0s0.1,0,0.2,0c0.1,0,0.2,0,0.2,0c0,0,0.1,0.1,0.2,0.2
		C60.2,41.7,60.5,41.7,60.6,41.8z"/>
	<path fill="#D93427" d="M87.2,41.7c0.1-0.1,0.1-0.1,0.2-0.1c0,0,0,0.1,0,0.1c0,0.1,0,0.1,0,0.1c0.2,0.1,0.4,0,0.5,0
		c0,0,0.1,0,0.1,0c0,0,0,0,0.1,0s0.1,0,0.1,0c0.2,0.1,0.4,0.1,0.7,0c0,0.1,0.1,0.1,0.3,0.1c0.2,0,0.3,0.1,0.3,0.1c0,0,0.1,0,0.1,0
		c0,0,0,0,0.1,0s0.1,0,0.1,0.1c0,0,0.1,0,0.1,0c0,0,0.1,0,0.1,0c0,0.1,0.1,0.2,0.1,0.3c0.1,0,0.1,0,0.2,0.1c0.1,0.1,0.2,0.1,0.3,0.1
		c0.2,0.5,0.2,0.8,0.2,0.8c-0.1,0.2-0.1,0.3,0,0.4c0,0.4,0,0.6,0,0.7c0,0.1-0.1,0.2-0.2,0.3c-0.1,0.1-0.2,0.2-0.2,0.3
		c-0.1,0.1-0.1,0.1-0.1,0.2c0,0-0.1,0-0.1,0c0,0-0.1,0-0.1,0s-0.1,0-0.1,0.1c-0.1,0.1-0.1,0.1-0.1,0.1c0,0-0.1,0-0.1,0
		c-0.1,0-0.1,0-0.1,0c0,0-0.1,0-0.1,0.1c0,0.1-0.1,0.1-0.1,0.1c-0.1,0-0.1,0-0.2,0c-0.1,0.1-0.1,0.1-0.1,0.1c0,0-0.1,0-0.2-0.1
		c-0.1,0-0.2-0.1-0.2-0.1c-0.1,0-0.1,0.1-0.1,0.2c0,0.1-0.1,0-0.3-0.1c0,0-0.1,0-0.1,0c0,0-0.1,0-0.1,0c0-0.1,0-0.1-0.1-0.2
		c0,0-0.1,0-0.1,0c0-0.2-0.1-0.3-0.3-0.2l-0.1,0.1c0,0-0.1,0-0.1,0c0,0-0.1,0-0.1,0s-0.1,0-0.1,0c0-0.1-0.1-0.1-0.1-0.1
		c0,0-0.1,0-0.1,0s0,0.1,0,0.1c-0.2,0-0.3,0-0.3-0.1c0,0-0.1,0-0.1,0.1c-0.1,0-0.1,0-0.1-0.1c-0.1,0-0.4,0-0.8,0c-0.4,0-0.6,0-0.7,0
		c0,0-0.1,0-0.1,0c0,0-0.1,0-0.1,0c0,0,0,0-0.1,0c0,0-0.1,0-0.1,0c-0.3,0-0.6,0-0.9,0c0,0-0.1,0-0.1,0c-0.1,0-0.1,0-0.2,0
		c-0.2-0.1-0.3,0-0.3,0c0.1,0,0.1,0.1,0.1,0.3c0,0.2,0.1,0.3,0.2,0.2c-0.1,0.1-0.1,0.3-0.1,0.4c0,0,0,0.1,0.1,0.1
		c0.1,0.1,0,0.2-0.1,0.2c0,0.1,0,0.2,0.1,0.3c0,0.1,0.1,0.1,0.2,0.1c0.1,0.3,0,0.5-0.1,0.6c0,0.2,0.1,0.4,0.2,0.4v0.5
		c0,0,0,0.1,0.1,0.1c0,0.1,0.1,0.1,0.1,0.1c0,0.2,0,0.3,0,0.4c0,0,0.1,0.1,0.2,0.2c-0.1,0.2-0.1,0.4,0.1,0.4
		c-0.1,0.1-0.1,0.1-0.1,0.2c0,0.1,0.1,0.1,0.1,0.1c0.1,0.2,0.1,0.4,0,0.4c0,0.1,0,0.1,0,0.2c0,0.1,0,0.2,0,0.2c0,0.1,0,0.1,0,0.1
		c0,0,0,0.1,0.1,0.1c0.1,0,0.1,0.1,0.1,0.1c0,0,0,0.1-0.1,0.1c0,0.1,0.1,0.2,0.1,0.3c0,0.1,0,0.2,0,0.3c0.1,0.1,0.1,0.2,0.1,0.2
		s0,0.1,0,0.1s0,0.1,0,0.1c0,0,0,0,0,0.1c0,0,0,0.1,0,0.1c0,0,0,0.1,0,0.1c0,0.1,0,0.1,0,0.1c0,0,0,0.1,0,0.1c0,0,0,0.1,0,0.1
		c0,0,0,0.1,0,0.1c0,0.1,0,0.1,0,0.1s0,0.1,0,0.2c0,0.1,0.1,0.2,0.1,0.3c0,0.1,0,0.2,0,0.2s0,0.1,0,0.1c0,0.1,0.1,0.1,0.1,0.1
		l-0.1,0.1c0,0.1,0,0.2,0.1,0.3l0.1,0.1c0.1,0.3,0.1,0.4,0.1,0.4c0,0-0.1,0.1-0.1,0.2c0,0,0,0,0,0.1c0,0.1,0,0.1,0,0.1
		c0,0,0,0.1,0.1,0.1s0.1,0.1,0.1,0.1c0.1,0.2,0.1,0.3,0.1,0.3c0,0.5,0.1,0.7,0.1,0.7c0,0,0.1,0,0.1,0c0,0,0,0.1,0,0.1
		c0,0.1,0,0.1,0,0.1c0,0-0.1,0-0.1-0.1c-0.1,0.1-0.1,0.1,0,0.2c0,0.1,0,0.2,0,0.3c0,0.1,0,0.2,0,0.3c0.1,0.1,0.1,0.2,0.1,0.4
		c0,0,0.1,0.2,0.1,0.5l0.1,0.1c0,0.1,0,0.2,0,0.5c0,0.3,0,0.5,0,0.5c0,0.1,0,0.1,0,0.2c0.1,0.1,0,0.2,0,0.3c0,0.6,0,0.9,0,0.9
		c0,0,0,0.1-0.1,0.1c0,0.1-0.1,0.1-0.1,0.2c0,0-0.1,0-0.1,0.1c0,0-0.1,0-0.1-0.1c0,0-0.1,0-0.1,0.1c-0.1,0.1-0.1,0.1-0.1,0
		c0,0-0.1,0-0.1,0s-0.1,0-0.1,0l-0.1,0.3c-0.1,0-0.1,0-0.1-0.1c0,0,0-0.1-0.1-0.1c0,0-0.1,0.1-0.1,0.2c-0.1,0.2-0.2,0.2-0.3,0
		c0,0-0.1,0-0.1,0c0,0,0,0.1-0.1,0.1c0,0-0.1-0.1-0.2-0.1c-0.2,0-0.3,0-0.4-0.1c-0.1,0-0.2,0-0.2,0c0-0.3-0.1-0.5-0.3-0.5
		c0-0.1,0-0.1-0.1-0.1s-0.1,0-0.2,0c-0.1-0.2-0.2-0.3-0.3-0.3c0-0.1,0-0.1,0-0.2c0-0.1,0.1-0.1,0.1-0.2s0-0.1,0-0.2
		c0-0.1,0-0.2,0-0.2s0-0.1,0-0.3c0-0.2,0-0.2,0-0.2c0,0,0,0-0.1,0c0,0-0.1,0-0.1,0c-0.1-0.2-0.1-0.3,0-0.4c0-0.1,0-0.2,0-0.4
		c-0.1-0.1-0.1-0.2-0.1-0.3s0-0.1,0-0.2s0-0.2,0-0.2s0-0.1-0.1-0.1c-0.1,0-0.1-0.1-0.1-0.1c0,0,0-0.1,0-0.1c0-0.1,0-0.1,0-0.2
		l-0.1-0.1c0-0.2,0-0.4,0-0.5c-0.1-0.1-0.1-0.2-0.1-0.2c0-0.1-0.1-0.2-0.1-0.3c0-0.3-0.1-0.5-0.2-0.5c0.1-0.1,0.1-0.2,0.1-0.4
		c0-0.2-0.1-0.3-0.2-0.2c0.2-0.3,0.2-0.6,0-0.9c0,0,0-0.2,0-0.4c0-0.3-0.1-0.4-0.1-0.4c0-0.1,0-0.2,0-0.3c0-0.1,0-0.3,0-0.3
		c0-0.1,0-0.1-0.1-0.2c0-0.1-0.1-0.2-0.1-0.2c0-0.1,0-0.2,0-0.3c0,0,0-0.1,0-0.1c0,0,0-0.1,0-0.1c0-0.1-0.1-0.1-0.2-0.2
		c0,0,0-0.1,0.1-0.1c0,0,0.1-0.1,0.1-0.1s0-0.1-0.1-0.2c0-0.1,0-0.2,0-0.3c0-0.1,0-0.2,0-0.2c0,0-0.1-0.1-0.2-0.1l0-0.7
		c0,0,0-0.1,0-0.1c0,0-0.1-0.1-0.1-0.1c0,0,0-0.1,0-0.2c0-0.1,0-0.2,0-0.2s0-0.1-0.1-0.1c0,0-0.1-0.1-0.1-0.1s0-0.1,0-0.3
		c0-0.2,0-0.3,0-0.3c0,0,0-0.1,0-0.2c0-0.1,0-0.2,0-0.2s0-0.1,0-0.1c0-0.1,0-0.1,0-0.1c0,0,0,0-0.1-0.1s0-0.1,0-0.1
		c0-0.1,0-0.2,0-0.3c0-0.3-0.1-0.5-0.1-0.5c0-0.3-0.1-0.4-0.2-0.4c0,0,0-0.1,0-0.1c0,0,0-0.1,0.1-0.1c0-0.2-0.1-0.3-0.2-0.3
		c0.1-0.1,0.1-0.3,0-0.4c0,0,0-0.1,0-0.1c0,0-0.1-0.1-0.1-0.1c0-0.1,0-0.1,0-0.2s0-0.1-0.1-0.1c-0.1,0.1-0.3,0.1-0.4,0
		c-0.3,0.1-0.4,0.2-0.4,0.2c-0.1,0-0.1,0-0.2,0c0,0-0.1,0-0.1,0c0,0-0.1,0-0.1,0c-0.1,0-0.2,0-0.2,0c0-0.1-0.1-0.2-0.2-0.2
		c0,0-0.1,0-0.1,0.1c0,0-0.1,0.1-0.1,0.1c-0.1,0-0.2,0-0.3,0c-0.2,0-0.3,0-0.3,0c0,0-0.1,0-0.2,0c-0.1,0-0.2,0-0.2,0.1
		c0,0-0.1,0-0.1,0c0,0-0.1,0-0.1,0c0,0-0.1,0-0.3,0c0,0-0.1,0-0.1,0c-0.1,0-0.1,0-0.1,0c-0.1,0-0.2,0-0.2,0h-0.1c0,0-0.1,0-0.1,0
		c-0.1,0-0.1,0.1-0.1,0.1c0,0-0.1,0-0.2-0.1c-0.1,0-0.2,0-0.2,0c0,0.1,0,0.1,0,0.1c-0.1,0-0.2,0-0.3,0c-0.1,0-0.2,0-0.2,0
		c0-0.1-0.1-0.1-0.1-0.1c-0.1,0-0.1,0-0.1,0.1c-0.4,0-0.6-0.1-0.6-0.1c-0.1,0-0.1,0-0.2,0c-0.1,0-0.1,0-0.1,0c0,0-0.1,0-0.1,0.1
		c0,0-0.1,0-0.1,0c0,0-0.1,0-0.1,0c-0.1,0-0.2,0-0.3,0c-0.1,0-0.2-0.1-0.3-0.1c0,0-0.1,0.1-0.1,0.1c0,0,0,0-0.1,0c0,0-0.1,0-0.1,0
		c0-0.2,0-0.3-0.2-0.3c-0.1,0-0.3,0-0.3,0.1c0,0-0.1,0-0.2,0c-0.1,0-0.2,0-0.2,0c0-0.1-0.1-0.2-0.1-0.2c0,0-0.1,0-0.1,0
		c0,0,0,0-0.1,0s0,0,0-0.1s0-0.1,0-0.1h-0.1c0-0.1,0-0.2-0.1-0.3c0,0,0-0.1,0-0.1s0-0.1,0-0.1c0,0-0.1-0.2-0.3-0.4
		c0-0.1-0.1-0.2-0.2-0.3c-0.1-0.1-0.2-0.2-0.2-0.3c0,0,0-0.1,0-0.1s0.1-0.1,0.1-0.1c0-0.1,0-0.1,0-0.2c0-0.1,0-0.2-0.1-0.2
		c0-0.1,0.1-0.2,0.3-0.3c0,0,0-0.1,0-0.1c0,0,0,0,0-0.1c0,0,0,0,0.1-0.1c0.1-0.1,0.1-0.2,0.1-0.3c0.1-0.2,0.2-0.3,0.3-0.3
		c0.2,0.1,0.5,0.1,0.9,0.1l0.1-0.1c0.4,0.1,0.6,0.1,0.6,0.1c0.1-0.1,0.2-0.1,0.2-0.1s0.1,0,0.1,0c0,0,0.1,0.1,0.1,0.1
		c0,0,0.1,0,0.1-0.1c0,0,0.1,0,0.1,0s0.1,0,0.1,0c0,0,0.1,0.1,0.1,0.1c0.2,0,0.4,0,0.5,0c0,0,0.1,0,0.2-0.1c0.1,0,0.2-0.1,0.3,0
		c0.1,0.1,0.2,0.1,0.2,0.1c0.1,0,0.3,0,0.5-0.1c0.1,0,0.2,0.1,0.3,0.1s0.2,0,0.2-0.1c0.1,0,0.2,0,0.4,0c0.2,0,0.3,0,0.4,0
		c0,0,0.1,0,0.1,0s0.1,0,0.1,0c0,0,0,0,0.1,0s0.1,0,0.1,0c0.2,0.1,0.4,0.1,0.7,0c0,0,0.1,0,0.1,0c0,0,0.1,0,0.1,0c0.1,0,0.1,0,0.1,0
		c0,0,0.1,0,0.1,0c0.1,0,0.1,0,0.2,0c0.1-0.1,0.3-0.1,0.5-0.1c0,0,0,0,0,0l0,0c0,0,0.1,0,0.1,0c0,0,0.1,0,0.1,0c0.2,0,0.4,0,0.7,0
		c0.3,0,0.5,0,0.7,0l0.1,0c0.1,0.1,0.3,0.1,0.6,0c0.3-0.1,0.4-0.1,0.4-0.1s0.1,0,0.1,0c0,0,0.1,0.1,0.1,0.1c0,0,0.1,0,0.1,0
		s0,0,0-0.1c0.1,0,0.2,0,0.3,0c0.1,0,0.2,0,0.3,0c0,0,0,0,0.1,0c0.1,0,0.2,0,0.3,0c0.1,0,0.2,0.1,0.2,0.1c0.1-0.1,0.2-0.1,0.3-0.1
		c0,0,0.1,0,0.1,0c0,0,0.1,0,0.1,0c0,0,0.1,0,0.1,0c0,0,0,0,0.1,0c0,0,0.1,0,0.1,0c0.1,0,0.2,0,0.3-0.1c0.1,0,0.2,0,0.3,0.1
		c0.1,0.1,0.2,0.1,0.2,0.1c0,0,0.1,0,0.1,0c0,0,0.1-0.1,0.1-0.1c0.1,0,0.2,0,0.2,0s0.1,0,0.1,0c0,0,0.1,0,0.1,0s0.1,0,0.3,0.1
		c0,0,0.1,0,0.1,0c0,0,0.1,0,0.1,0c0,0.1,0.1,0.1,0.2,0c0.2-0.1,0.3-0.1,0.3,0c0,0,0.1,0,0.1,0s0.1,0,0.1,0c0.1,0,0.2,0,0.3,0
		c0.1,0,0.2,0,0.2,0s0.1,0,0.1,0s0.1,0,0.2,0c0.1,0,0.2,0,0.3-0.1c0.1,0,0.1,0,0.2,0.1c0.1,0.1,0.1,0.1,0.1,0.1s0.1,0,0.1,0
		c0,0,0.1,0,0.1,0s0.1,0,0.2,0.1C87.1,41.8,87.2,41.7,87.2,41.7z M87.4,41.5c0,0,0,0.1,0,0.1c0,0.1,0,0.1,0,0.1c0.2,0.1,0.4,0,0.5,0
		c0,0,0.1,0,0.1,0c0,0,0,0,0.1,0s0.1,0,0.1,0c0.2,0.1,0.4,0.1,0.7,0c0,0.1,0.1,0.1,0.3,0.1c0.2,0,0.3,0.1,0.3,0.1c0,0,0.1,0,0.1,0
		c0,0,0,0,0.1,0s0.1,0,0.1,0.1c0,0,0.1,0,0.1,0c0,0,0.1,0,0.1,0c0,0.1,0.1,0.2,0.1,0.3c0.1,0,0.1,0,0.2,0.1c0.1,0.1,0.2,0.1,0.3,0.1
		c0.2,0.5,0.2,0.8,0.2,0.8c-0.1,0.2-0.1,0.3,0,0.4c0,0.4,0,0.6,0,0.7c0,0.1-0.1,0.2-0.2,0.3c-0.1,0.1-0.2,0.2-0.2,0.3
		c-0.1,0.1-0.1,0.1-0.1,0.2c0,0-0.1,0-0.1,0c0,0-0.1,0-0.1,0s-0.1,0-0.1,0.1c-0.1,0.1-0.1,0.1-0.1,0.1c0,0-0.1,0-0.1,0
		c-0.1,0-0.1,0-0.1,0c0,0-0.1,0-0.1,0.1c0,0.1-0.1,0.1-0.1,0.1c-0.1,0-0.1,0-0.2,0c-0.1,0.1-0.1,0.1-0.1,0.1c0,0-0.1,0-0.2-0.1
		c-0.1,0-0.2-0.1-0.2-0.1c-0.1,0-0.1,0.1-0.1,0.2c0,0.1-0.1,0-0.3-0.1c0,0-0.1,0-0.1,0c0,0-0.1,0-0.1,0c0-0.1,0-0.1-0.1-0.2
		c0,0-0.1,0-0.1,0c0-0.2-0.1-0.3-0.3-0.2l-0.1,0.1c0,0-0.1,0-0.1,0c0,0-0.1,0-0.1,0s-0.1,0-0.1,0c0-0.1-0.1-0.1-0.1-0.1
		c0,0-0.1,0-0.1,0s0,0.1,0,0.1c-0.2,0-0.3,0-0.3-0.1c0,0-0.1,0-0.1,0.1c-0.1,0-0.1,0-0.1-0.1c-0.1,0-0.4,0-0.8,0c-0.4,0-0.6,0-0.7,0
		c0,0-0.1,0-0.1,0c0,0-0.1,0-0.1,0c0,0,0,0-0.1,0c0,0-0.1,0-0.1,0c-0.3,0-0.6,0-0.9,0c0,0-0.1,0-0.1,0c-0.1,0-0.1,0-0.2,0
		c-0.2-0.1-0.3,0-0.3,0c0.1,0,0.1,0.1,0.1,0.3c0,0.2,0.1,0.3,0.2,0.2c-0.1,0.1-0.1,0.3-0.1,0.4c0,0,0,0.1,0.1,0.1
		c0.1,0.1,0,0.2-0.1,0.2c0,0.1,0,0.2,0.1,0.3c0,0.1,0.1,0.1,0.2,0.1c0.1,0.3,0,0.5-0.1,0.6c0,0.2,0.1,0.4,0.2,0.4v0.5
		c0,0,0,0.1,0.1,0.1c0,0.1,0.1,0.1,0.1,0.1c0,0.2,0,0.3,0,0.4c0,0,0.1,0.1,0.2,0.2c-0.1,0.2-0.1,0.4,0.1,0.4
		c-0.1,0.1-0.1,0.1-0.1,0.2c0,0.1,0.1,0.1,0.1,0.1c0.1,0.2,0.1,0.4,0,0.4c0,0.1,0,0.1,0,0.2c0,0.1,0,0.2,0,0.2c0,0.1,0,0.1,0,0.1
		c0,0,0,0.1,0.1,0.1c0.1,0,0.1,0.1,0.1,0.1c0,0,0,0.1-0.1,0.1c0,0.1,0.1,0.2,0.1,0.3c0,0.1,0,0.2,0,0.3c0.1,0.1,0.1,0.2,0.1,0.2
		s0,0.1,0,0.1s0,0.1,0,0.1c0,0,0,0,0,0.1c0,0,0,0.1,0,0.1c0,0,0,0.1,0,0.1c0,0.1,0,0.1,0,0.1c0,0,0,0.1,0,0.1c0,0,0,0.1,0,0.1
		c0,0,0,0.1,0,0.1c0,0.1,0,0.1,0,0.1s0,0.1,0,0.2c0,0.1,0.1,0.2,0.1,0.3c0,0.1,0,0.2,0,0.2s0,0.1,0,0.1c0,0.1,0.1,0.1,0.1,0.1
		l-0.1,0.1c0,0.1,0,0.2,0.1,0.3l0.1,0.1c0.1,0.3,0.1,0.4,0.1,0.4c0,0-0.1,0.1-0.1,0.2c0,0,0,0,0,0.1c0,0.1,0,0.1,0,0.1
		c0,0,0,0.1,0.1,0.1s0.1,0.1,0.1,0.1c0.1,0.2,0.1,0.3,0.1,0.3c0,0.5,0.1,0.7,0.1,0.7c0,0,0.1,0,0.1,0c0,0,0,0.1,0,0.1
		c0,0.1,0,0.1,0,0.1c0,0-0.1,0-0.1-0.1c-0.1,0.1-0.1,0.1,0,0.2c0,0.1,0,0.2,0,0.3c0,0.1,0,0.2,0,0.3c0.1,0.1,0.1,0.2,0.1,0.4
		c0,0,0.1,0.2,0.1,0.5l0.1,0.1c0,0.1,0,0.2,0,0.5c0,0.3,0,0.5,0,0.5c0,0.1,0,0.1,0,0.2c0.1,0.1,0,0.2,0,0.3c0,0.6,0,0.9,0,0.9
		c0,0,0,0.1-0.1,0.1c0,0.1-0.1,0.1-0.1,0.2c0,0-0.1,0-0.1,0.1c0,0-0.1,0-0.1-0.1c0,0-0.1,0-0.1,0.1c-0.1,0.1-0.1,0.1-0.1,0
		c0,0-0.1,0-0.1,0s-0.1,0-0.1,0l-0.1,0.3c0,0-0.1,0-0.1-0.1c0,0-0.1-0.1-0.1-0.1c0,0-0.1,0.1-0.1,0.2c-0.1,0.2-0.2,0.2-0.3,0
		c0,0-0.1,0-0.1,0c0,0,0,0.1-0.1,0.1c0,0-0.1-0.1-0.2-0.1c-0.2,0-0.3,0-0.4-0.1c-0.1,0-0.2,0-0.2,0c0-0.3-0.1-0.5-0.3-0.5
		c0-0.1,0-0.1-0.1-0.1s-0.1,0-0.2,0c-0.1-0.2-0.2-0.3-0.3-0.3c0-0.1,0-0.1,0-0.2c0-0.1,0.1-0.1,0.1-0.2s0-0.1,0-0.2
		c0-0.1,0-0.2,0-0.2s0-0.1,0-0.3c0-0.2,0-0.2,0-0.2c0,0,0,0-0.1,0c0,0-0.1,0-0.1,0c-0.1-0.2-0.1-0.3,0-0.4c0-0.1,0-0.2,0-0.4
		c-0.1-0.1-0.1-0.2-0.1-0.3s0-0.1,0-0.2s0-0.2,0-0.2s0-0.1-0.1-0.1c-0.1,0-0.1-0.1-0.1-0.1c0,0,0-0.1,0-0.1c0-0.1,0-0.1,0-0.2
		l-0.1-0.1c0-0.2,0-0.4,0-0.5c-0.1-0.1-0.1-0.2-0.1-0.2c0-0.1-0.1-0.2-0.1-0.3c0-0.3-0.1-0.5-0.2-0.5c0.1-0.1,0.1-0.2,0.1-0.4
		c0-0.2-0.1-0.3-0.2-0.2c0.2-0.3,0.2-0.6,0-0.9c0,0,0-0.2,0-0.4c0-0.3-0.1-0.4-0.1-0.4c0-0.1,0-0.2,0-0.3c0-0.1,0-0.3,0-0.3
		c0-0.1,0-0.1-0.1-0.2c0-0.1-0.1-0.2-0.1-0.2c0-0.1,0-0.2,0-0.3c0,0,0-0.1,0-0.1c0,0,0-0.1,0-0.1c0-0.1-0.1-0.1-0.2-0.2
		c0,0,0-0.1,0.1-0.1c0,0,0.1-0.1,0.1-0.1s0-0.1-0.1-0.2c0-0.1,0-0.2,0-0.3c0-0.1,0-0.2,0-0.2c0,0-0.1-0.1-0.2-0.1l0-0.7
		c0,0,0-0.1,0-0.1c0,0-0.1-0.1-0.1-0.1c0,0,0-0.1,0-0.2c0-0.1,0-0.2,0-0.2s0-0.1-0.1-0.1c0,0-0.1-0.1-0.1-0.1s0-0.1,0-0.3
		c0-0.2,0-0.3,0-0.3c0,0,0-0.1,0-0.2c0-0.1,0-0.2,0-0.2s0-0.1,0-0.1c0-0.1,0-0.1,0-0.1c0,0,0,0-0.1-0.1s0-0.1,0-0.1
		c0-0.1,0-0.2,0-0.3c0-0.3-0.1-0.5-0.1-0.5c0-0.3-0.1-0.4-0.2-0.4c0,0,0-0.1,0-0.1c0,0,0-0.1,0.1-0.1c0-0.2-0.1-0.3-0.2-0.3
		c0.1-0.1,0.1-0.3,0-0.4c0,0,0-0.1,0-0.1c0,0-0.1-0.1-0.1-0.1c0-0.1,0-0.1,0-0.2s0-0.1-0.1-0.1c-0.1,0.1-0.3,0.1-0.4,0
		c-0.3,0.1-0.4,0.2-0.4,0.2c-0.1,0-0.1,0-0.2,0c0,0-0.1,0-0.1,0c0,0-0.1,0-0.1,0c-0.1,0-0.2,0-0.2,0c0-0.1-0.1-0.1-0.2-0.2
		c0,0-0.1,0-0.1,0.1c0,0-0.1,0.1-0.1,0.1c-0.1,0-0.2,0-0.3,0c-0.2,0-0.3,0-0.3,0c0,0-0.1,0-0.2,0c-0.1,0-0.2,0-0.2,0.1
		c0,0-0.1,0-0.1,0c0,0-0.1,0-0.1,0c0,0-0.1,0-0.3,0c0,0-0.1,0-0.1,0c-0.1,0-0.1,0-0.1,0c-0.1,0-0.2,0-0.2,0h-0.1c0,0-0.1,0-0.1,0
		c-0.1,0-0.1,0.1-0.1,0.1c0,0-0.1,0-0.2-0.1c-0.1,0-0.2,0-0.2,0c0,0.1,0,0.1,0,0.1c0,0-0.1,0-0.2,0c-0.1,0-0.2,0-0.2,0
		c0-0.1-0.1-0.1-0.1-0.1c-0.1,0-0.1,0-0.1,0.1c-0.4,0-0.6-0.1-0.6-0.1c-0.1,0-0.1,0-0.2,0c-0.1,0-0.1,0-0.1,0c0,0-0.1,0-0.1,0.1
		c0,0-0.1,0-0.1,0c0,0-0.1,0-0.1,0c-0.1,0-0.2,0-0.3,0c-0.1,0-0.2-0.1-0.3-0.1c0,0-0.1,0.1-0.1,0.1c0,0,0,0-0.1,0c0,0-0.1,0-0.1,0
		c0-0.2,0-0.3-0.2-0.3c-0.1,0-0.3,0-0.3,0.1c0,0-0.1,0-0.2,0c-0.1,0-0.2,0-0.2,0c0-0.1-0.1-0.2-0.1-0.2c0,0-0.1,0-0.1,0
		c0,0,0,0-0.1,0s0,0,0-0.1s0-0.1,0-0.1h-0.1c0-0.1,0-0.1-0.1-0.2c0,0,0-0.1,0-0.1s0-0.1,0-0.1s0-0.1,0-0.1c0,0-0.1-0.2-0.3-0.4
		c0-0.1-0.1-0.2-0.2-0.3c-0.1-0.1-0.2-0.2-0.2-0.3c0,0,0-0.1,0-0.1s0.1-0.1,0.1-0.1c0-0.1,0-0.1,0-0.2c0-0.1,0-0.2-0.1-0.2
		c0-0.1,0.1-0.2,0.3-0.3c0,0,0-0.1,0-0.1c0,0,0,0,0-0.1c0,0,0,0,0.1-0.1c0.1-0.1,0.1-0.2,0.1-0.3c0.1-0.2,0.2-0.3,0.3-0.3
		c0.2,0.1,0.5,0.1,0.9,0.1l0.1-0.1c0.4,0.1,0.6,0.1,0.6,0.1c0.1-0.1,0.2-0.1,0.2-0.1s0.1,0,0.1,0c0,0,0.1,0.1,0.1,0.1
		c0,0,0.1,0,0.1-0.1c0,0,0.1,0,0.1,0s0.1,0,0.1,0c0,0,0.1,0.1,0.1,0.1c0.2,0,0.4,0,0.5,0c0,0,0.1,0,0.2-0.1c0.1,0,0.2-0.1,0.3,0
		c0.1,0.1,0.2,0.1,0.2,0.1c0.1,0,0.3,0,0.5-0.1c0.1,0,0.2,0.1,0.3,0.1s0.2,0,0.2-0.1c0.1,0,0.2,0,0.4,0c0.2,0,0.3,0,0.4,0
		c0,0,0.1,0,0.1,0s0.1,0,0.1,0c0,0,0,0,0.1,0s0.1,0,0.1,0c0.2,0.1,0.4,0.1,0.7,0c0,0,0.1,0,0.1,0c0,0,0.1,0,0.1,0c0.1,0,0.1,0,0.1,0
		c0,0,0.1,0,0.1,0c0.1,0,0.1,0,0.2,0c0.1-0.1,0.3-0.1,0.5-0.1c0,0,0,0,0,0l0,0c0,0,0.1,0,0.1,0c0,0,0.1,0,0.1,0c0.2,0,0.4,0,0.7,0
		c0.3,0,0.5,0,0.7,0c0,0,0.1-0.1,0.1-0.1c0.1,0.1,0.3,0.1,0.6,0c0.3-0.1,0.4-0.1,0.4-0.1s0.1,0,0.1,0c0,0,0.1,0.1,0.1,0.1
		c0,0,0.1,0,0.1,0s0,0,0-0.1c0.1,0,0.2,0,0.3,0c0.1,0,0.2,0,0.3,0c0,0,0,0,0.1,0c0.1,0,0.2,0,0.3,0c0.1,0,0.2,0.1,0.2,0.1
		c0.1-0.1,0.2-0.1,0.3-0.1c0,0,0.1,0,0.1,0c0,0,0.1,0,0.1,0c0,0,0.1,0,0.1,0c0,0,0,0,0.1,0c0,0,0.1,0,0.1,0c0.1,0,0.2,0,0.3-0.1
		c0.1,0,0.2,0,0.3,0.1c0.1,0.1,0.2,0.1,0.2,0.2c0,0,0.1,0,0.1-0.1c0,0,0.1-0.1,0.1-0.1c0.1,0,0.2,0,0.2,0s0.1,0,0.1,0
		c0,0,0.1,0,0.1,0s0.1,0,0.3,0.1c0,0,0.1,0,0.1,0c0,0,0.1,0,0.1,0c0,0.1,0.1,0.1,0.2,0c0.2-0.1,0.3-0.1,0.3,0c0,0,0.1,0,0.1,0
		s0.1,0,0.1,0c0.1,0,0.2,0,0.3,0c0.1,0,0.2,0,0.2,0s0.1,0,0.1,0s0.1,0,0.2,0c0.1,0,0.2,0,0.3-0.1c0.1,0,0.1,0,0.2,0.1
		c0.1,0.1,0.1,0.1,0.1,0.1s0.1,0,0.1,0c0,0,0.1,0,0.1,0s0.1,0,0.2,0.1c0.1,0,0.1,0,0.2-0.1C87.3,41.6,87.3,41.5,87.4,41.5z
		 M80.6,55.2C80.6,55.2,80.6,55.2,80.6,55.2c-0.1,0.1-0.1,0.1-0.1,0.1c0,0,0-0.1,0-0.1S80.6,55.1,80.6,55.2z M80.5,55.3
		c0,0,0-0.1,0-0.1s0.1,0,0.1,0C80.6,55.2,80.6,55.2,80.5,55.3C80.6,55.2,80.5,55.2,80.5,55.3z M83.9,52.6
		C83.9,52.6,83.9,52.6,83.9,52.6C83.9,52.6,83.9,52.6,83.9,52.6z M83.9,52.6C83.9,52.6,83.9,52.6,83.9,52.6L83.9,52.6L83.9,52.6z"/>
</g>
</svg>
