<?xml version="1.0" encoding="utf-8"?>
<!-- Generator: Adobe Illustrator 19.0.1, SVG Export Plug-In . SVG Version: 6.00 Build 0)  -->
<svg version="1.1" id="Layer_1" xmlns="http://www.w3.org/2000/svg" xmlns:xlink="http://www.w3.org/1999/xlink" x="0px" y="0px"
	 viewBox="0 0 100 100" enable-background="new 0 0 100 100" xml:space="preserve">
<g>
	<path fill="#D93427" d="M25.1,44c0,0,0,0.1,0,0.2c0.2,0.2,0.5,0.3,0.6,0.5l0.2,0c0,0.1,0.1,0.2,0.2,0.3c0,0.1,0,0.2,0.1,0.3
		c0.1,0,0.1,0,0.1,0c0,0.3,0,0.5,0,0.5c0.1,0.1,0.1,0.2,0.1,0.3c0,0.1,0,0.2,0,0.3c0,0.1,0,0.2,0,0.4c-0.2,0.1-0.3,0.2-0.3,0.5
		c-0.1,0-0.1,0-0.2,0c-0.1,0.1-0.1,0.1-0.1,0.1c0,0-0.1,0-0.1,0c0,0-0.1,0-0.1,0c0,0,0,0-0.1,0.1c0,0-0.1,0-0.1,0c0,0,0,0-0.1,0
		c-0.1,0-0.1,0.1-0.2,0.3c0,0-0.1,0-0.2-0.1c-0.1,0-0.1,0-0.1,0c0,0-0.1,0-0.1,0c0-0.1,0-0.2-0.2-0.4c0,0-0.1,0-0.1,0
		c0,0-0.1,0-0.1,0l-0.1-0.1c-0.1,0-0.1,0-0.1,0c0,0,0,0-0.1,0v-0.1c-0.1-0.1-0.2-0.2-0.4-0.1c0,0-0.1,0-0.1,0.1c-0.1,0-0.2,0-0.3,0
		c0,0-0.1,0-0.1,0c0,0-0.1,0-0.1,0c0,0-0.1,0-0.1,0c0,0-0.1,0-0.1,0c0,0-0.1,0-0.2-0.1c0,0-0.1,0-0.1,0.1c-0.1,0-0.1,0-0.1,0
		c0,0-0.1,0-0.1,0c-0.1,0-0.1,0-0.2,0c0,0-0.1,0-0.1,0s-0.1,0-0.1,0c0,0-0.1,0-0.2,0c0,0-0.1,0-0.1,0c0,0-0.1,0-0.1,0
		c-0.1,0-0.2,0-0.2,0c-0.3,0-0.5,0.1-0.5,0.1c0,0.1,0,0.1,0,0.1c0,0-0.1,0-0.1,0c0,0-0.1-0.1-0.1-0.1c0,0-0.1,0-0.3,0.1
		c0,0-0.1,0-0.1,0c0,0,0,0-0.1,0c-0.1,0.1-0.2,0.1-0.5,0.2c-0.2,0-0.4,0.1-0.5,0.2l0,0.1c-0.1,0-0.1,0-0.1,0s-0.1,0-0.1,0
		c0,0,0,0.1-0.1,0.1c-0.1,0-0.1,0-0.1,0s-0.1,0-0.2,0.1c0,0-0.1,0-0.1,0c-0.1,0-0.2,0-0.2,0c0,0,0,0.1,0,0.1c0,0,0,0.1,0,0.1
		c0,0.1,0.1,0.2,0.1,0.2s0.1,0,0.2,0c0,0.1,0.1,0.2,0.3,0.3c0,0,0.1,0,0.1,0c0,0,0.1,0,0.1,0s0,0,0,0.1c0,0.1,0,0.1,0,0.1
		c0.1-0.1,0.2,0,0.3,0.1c0.1,0.1,0.2,0.1,0.3,0.1c0,0,0.1,0.1,0.2,0.1c0.1,0,0.2,0,0.2,0.1c0,0,0.1,0,0.1,0.1c0,0,0.1,0,0.1,0
		c0,0,0.1,0.1,0.1,0.1c0,0,0.1,0,0.1,0.1c0.3,0.1,0.5,0.1,0.5,0.2c0.1-0.1,0.2,0,0.4,0c0.1,0,0.1,0.1,0.1,0.1c0.1,0,0.1,0,0.2,0
		s0.2,0,0.3,0c0,0,0.1,0,0.1,0c0,0,0,0,0.1,0c0,0,0.1,0,0.1,0c0,0,0.1,0,0.1,0.1c0,0,0.1,0.1,0.1,0.1c0,0,0.1,0,0.1,0
		c0,0,0.1,0,0.1,0c0.2,0.2,0.4,0.2,0.5,0.2l0.1-0.1c0.1,0,0.2,0,0.2,0c0,0,0,0,0,0.1c0.1,0.1,0.2,0.1,0.2,0.1c0,0,0.1,0,0.1,0
		c0,0,0.1,0,0.1,0c0,0.2,0,0.2,0.1,0.2c0,0,0.1,0,0.1,0c0,0,0,0,0.1-0.1c0.2,0,0.3,0,0.3,0c0,0.1,0.1,0.2,0.2,0.2
		c0.1,0,0.2,0.1,0.2,0.2c0.3-0.1,0.5,0,0.5,0.1c0,0,0.1,0,0.1,0c0,0,0.1,0,0.1,0c0,0,0.1,0,0.1,0.1c0,0.1,0.1,0.1,0.1,0.1
		S26,51,26,51c0.1-0.1,0.1-0.1,0.2,0c0,0.1,0,0.2,0.1,0.2c0.1,0,0.2,0,0.2,0c0.1,0.1,0.1,0.1,0.2,0.1s0.1,0,0.1,0c0,0,0.1,0,0.1,0
		c0,0,0,0,0,0.1c0,0,0.1,0.1,0.2,0.1s0.2,0.1,0.3,0.2c0.1,0,0.1,0,0.2,0c0.1,0.1,0.2,0.1,0.3,0.1c0.1,0.2,0.2,0.3,0.2,0.3
		c0,0,0.1,0,0.1,0c0,0,0.1,0,0.1,0c0,0,0,0.1,0,0.1c0.1,0.1,0.2,0.2,0.4,0.4s0.3,0.3,0.4,0.4c0,0.1,0.1,0.1,0.1,0.2
		c0,0.1,0,0.1,0,0.2c0.2,0.1,0.3,0.3,0.3,0.6c0,0.1,0.1,0.1,0.1,0.3c0.1,0.1,0.1,0.2,0.1,0.3c0,0,0,0.1,0,0.1c0,0,0,0.1,0,0.1
		c0,0,0,0.1,0,0.1c0,0,0,0.1,0,0.1c0,0,0,0.1,0,0.1c0,0,0,0.1,0,0.1c0,0,0,0.1,0,0.1c0,0,0,0.1,0,0.1c0,0,0,0.1,0,0.3
		c0,0.2,0,0.3,0.1,0.3c0,0,0,0.1,0,0.1c0,0,0,0.1,0,0.1c0.1,0,0.1,0.2,0,0.4c-0.1,0.2-0.1,0.4-0.1,0.4c0,0,0,0.1,0,0.1
		c0,0.1,0,0.1-0.1,0.2c-0.1,0.1-0.1,0.1-0.1,0.1c0,0.1,0,0.2-0.1,0.3c0,0,0,0.1,0,0.1c-0.2,0.2-0.3,0.3-0.3,0.4
		c-0.2,0.2-0.3,0.3-0.4,0.4c0,0.2-0.1,0.3-0.2,0.4c-0.1,0.1-0.2,0.2-0.3,0.3c0,0.1,0,0.1-0.1,0.2c0,0,0,0.1,0,0.1c0,0-0.1,0-0.1,0
		c0,0-0.1,0-0.1,0c-0.1,0-0.1,0.1,0,0.2c0,0-0.2,0.1-0.5,0.3c0,0,0,0.1,0,0.1c-0.2,0.1-0.3,0.2-0.4,0.3c-0.1,0-0.1,0-0.2,0.2
		c-0.1,0-0.2,0.1-0.3,0.2c-0.1,0.1-0.2,0.2-0.3,0.2c0,0,0,0.1,0,0.2c0,0.1,0,0.1,0,0.2c0,0-0.1,0-0.1-0.1c0,0-0.1-0.1-0.1-0.1
		c0,0-0.1,0-0.2,0.1c-0.1,0.1-0.2,0.1-0.2,0.1c-0.1,0-0.1,0.1-0.1,0.1c0,0-0.1,0-0.2,0c-0.1,0-0.2,0-0.2,0c-0.2,0.1-0.2,0.1-0.3,0
		c-0.1,0.1-0.2,0.2-0.2,0.2C24.8,62,24.7,62,24.6,62c-0.1,0-0.1,0-0.1,0c-0.1,0-0.1,0-0.2,0.1c0,0.1-0.1,0.1-0.1,0.1
		c-0.1,0-0.2,0-0.3,0.1c-0.1,0.1-0.2,0.1-0.3,0.1c-0.1,0-0.1,0-0.2,0c-0.1,0-0.1,0-0.2,0c-0.1,0-0.1,0-0.2,0.1
		c-0.1,0-0.1,0.1-0.2,0.1c0,0-0.1,0-0.1,0c-0.1,0-0.1,0-0.1,0c0,0-0.1,0.1-0.1,0.1c0,0-0.2,0-0.5,0c0,0-0.1,0-0.1-0.1
		c-0.2-0.1-0.4-0.1-0.5,0c-0.1,0-0.1,0-0.1,0c-0.1,0.1-0.1,0.1-0.1,0.1c-0.1-0.1-0.2-0.1-0.5-0.1c-0.1,0-0.2,0-0.2,0
		c-0.1-0.1-0.1-0.1-0.2-0.1c0,0-0.1,0-0.1,0.1c-0.1,0-0.1,0.1-0.1,0c0,0,0-0.1,0-0.1c0,0,0-0.1,0-0.1c-0.1,0-0.2,0-0.3,0
		c-0.1,0-0.2,0-0.2,0c0,0-0.1,0-0.2-0.1c0,0-0.1,0-0.2,0v-0.2c0,0-0.1,0-0.2,0c0,0,0,0,0,0c0,0,0-0.1,0-0.1c-0.1,0-0.1,0-0.2-0.1
		c-0.1-0.1-0.1-0.2-0.1-0.2c-0.2-0.1-0.2-0.2-0.3-0.2c0-0.1,0-0.1,0-0.1c-0.1-0.1-0.1-0.1-0.3-0.2c-0.1-0.1-0.2-0.1-0.2-0.2
		c0,0-0.1,0-0.1,0c0,0,0,0-0.1,0c0-0.2-0.1-0.3-0.2-0.4c-0.1-0.1-0.2-0.2-0.3-0.2c0,0,0-0.1,0-0.1c0,0,0-0.1,0-0.1
		c0,0-0.1,0-0.1-0.1c0-0.1-0.1-0.1-0.1-0.2c-0.1-0.1-0.2-0.2-0.2-0.2c0,0,0-0.1,0-0.1c0,0,0-0.1,0-0.1c0,0,0-0.1,0-0.1
		s0-0.1-0.1-0.1c0,0,0-0.1,0-0.1c0,0,0-0.1,0-0.1c0-0.1,0-0.1-0.1-0.2c0-0.1-0.1-0.1-0.1-0.2c0-0.1,0-0.1,0.1-0.2
		c0-0.1,0.1-0.1,0.1-0.2c0,0,0.1,0,0.1,0c0,0,0,0,0.1,0c0,0,0-0.2-0.1-0.4c0.1,0,0.2,0,0.2,0c0.1-0.1,0.1-0.2,0-0.3
		c0,0,0.1-0.1,0.1-0.2c0.1-0.1,0.1-0.2,0.1-0.2c0,0,0.1,0,0.1,0c0,0,0,0.1,0,0.1c0.1,0,0.1-0.1,0.1-0.1c0-0.1,0-0.1,0-0.1
		c0-0.1,0.1-0.1,0.2-0.1c0.1,0,0.1,0,0.1,0s0,0,0.1-0.1c0,0,0.1-0.1,0.1,0c0,0,0.1,0.1,0.1,0.1c0,0,0.1,0,0.1,0c0,0,0.1,0,0.1,0
		c0.1,0.2,0.2,0.2,0.2,0.3c0.1,0,0.1,0,0.1,0c0,0,0.1,0,0.1,0c0.1,0.1,0.2,0.1,0.2,0.1c0.1,0,0.1,0.1,0.1,0.2c0.1,0,0.1,0.1,0.1,0.1
		c0,0.1,0.1,0.1,0.1,0.2c0.1,0.1,0.1,0.2,0.1,0.3c0.1,0,0.2,0.1,0.3,0.3c0.1,0.2,0.3,0.3,0.3,0.3c0,0,0,0.1,0,0.1c0,0,0,0.1,0,0.1
		l0.3,0.2c0,0,0.1,0,0.2,0c0.1,0,0.1,0,0.2,0c0,0,0.1,0.1,0.1,0.1c0,0,0,0,0.1,0c0.1,0,0.2,0,0.3,0c0.1,0,0.2,0,0.3,0
		c0,0,0.1,0,0.1,0.1c0,0,0.1,0.1,0.1,0.1c0.1,0,0.2,0,0.3,0c0.1-0.1,0.1-0.1,0.2-0.1c0,0,0.1,0,0.1,0c0.1,0,0.1,0,0.1,0
		c0,0,0.1,0,0.2-0.1c0.1,0,0.1,0,0.2,0c0,0,0.1,0,0.1,0c0.1,0,0.1,0,0.1,0c0,0,0.1,0,0.1,0c0,0,0,0,0,0c0,0,0,0,0.1,0
		c0,0,0.1,0,0.1,0s0,0,0.1-0.1c0,0,0.1,0,0.1,0c0.1,0,0.1,0,0.1-0.1c0,0,0.1,0,0.1,0c0,0,0,0,0.1,0s0.1,0,0.2,0
		c0.1,0,0.1-0.1,0.1-0.2c0,0,0.1,0,0.1,0.1c0,0,0.1,0,0.2-0.1c0.1-0.1,0.2-0.1,0.3-0.1c0.1-0.1,0.2-0.3,0.6-0.5s0.5-0.4,0.6-0.5
		c0.2-0.1,0.2-0.2,0.2-0.3c0.1,0,0.1-0.1,0.2-0.2c0.1-0.1,0.1-0.2,0.2-0.2l0-0.1c0,0,0-0.1,0.1-0.1v-0.3c0.1-0.1,0.2-0.1,0.2-0.1
		c0-0.1,0-0.2,0-0.4s0-0.3,0-0.4c0,0-0.1-0.1-0.1-0.1c0,0,0-0.1,0-0.1c0,0,0-0.1-0.1-0.2c0-0.1-0.1-0.1-0.2-0.2
		c-0.1,0-0.2-0.1-0.2-0.1c-0.1,0.1-0.2,0.1-0.2,0c0-0.1,0-0.1,0-0.1l-0.2,0c0,0,0,0,0-0.1c0,0,0-0.1,0-0.1c0,0,0,0-0.1,0
		c-0.1,0-0.1,0-0.1,0c0,0,0,0-0.1-0.1c0,0-0.1-0.1-0.1-0.1c0,0-0.1,0-0.2,0c-0.1,0-0.2,0-0.3,0c-0.2-0.1-0.3-0.1-0.4,0
		c0,0,0-0.1,0-0.1c0,0-0.1-0.1-0.4-0.1c-0.2-0.1-0.4-0.1-0.4-0.1c-0.2-0.2-0.5-0.3-0.9-0.3c0,0,0,0,0,0c0,0,0,0,0,0c0,0,0-0.1,0-0.1
		c-0.1,0-0.1,0-0.2-0.1c-0.1-0.1-0.1-0.1-0.2-0.1c0,0-0.1,0-0.1,0c0,0,0,0.1-0.1,0.1c0,0,0-0.1-0.1-0.1c-0.1,0-0.1-0.1-0.2,0
		c-0.1-0.2-0.2-0.2-0.3,0c-0.1-0.2-0.1-0.2-0.1-0.2c-0.2,0.1-0.3,0.1-0.4,0c-0.1-0.1-0.2-0.1-0.5,0c0-0.1-0.1-0.2-0.1-0.2
		c-0.2,0-0.3,0-0.5-0.1c0,0-0.1,0-0.1,0c0,0-0.1,0-0.1,0c0,0-0.1,0-0.1,0c0,0,0,0,0,0s0,0-0.1,0c0,0-0.1,0-0.1,0c0,0,0,0-0.1,0
		c-0.2-0.1-0.4-0.1-0.6,0c0,0,0-0.1,0-0.1s0-0.1-0.1-0.1c0,0-0.1,0-0.1,0s-0.1,0-0.1-0.1c0,0-0.1-0.1-0.1-0.1c0,0-0.1,0-0.2-0.1
		c-0.1,0-0.2-0.1-0.3-0.1c-0.1-0.1-0.1-0.1-0.1-0.1c0,0-0.1,0-0.1,0c0,0-0.1,0-0.1,0c0-0.1,0-0.2,0-0.2c0,0-0.1,0-0.1,0
		c0,0-0.1,0-0.1,0s0,0,0,0c0,0,0-0.1,0-0.1c0,0,0,0,0,0c0,0,0,0,0-0.1c0,0-0.1,0-0.1,0c0,0-0.1,0-0.1,0c0,0,0-0.1,0-0.1c0,0,0,0,0,0
		c-0.1-0.1-0.1-0.1-0.2-0.1c-0.1-0.1-0.2-0.1-0.2-0.2c0,0-0.1,0-0.1,0c0,0-0.1,0-0.1,0c0-0.1-0.1-0.1-0.2-0.2c0-0.1-0.1-0.2-0.2-0.3
		c-0.1-0.1-0.2-0.2-0.2-0.3c0,0-0.1,0-0.1,0c0,0-0.1-0.1-0.1-0.1c0-0.1,0-0.1,0-0.1c-0.2-0.2-0.3-0.4-0.3-0.6c-0.1,0-0.1,0-0.2-0.1
		C14.9,49,14.8,49,14.8,49c0,0,0-0.1,0-0.3c-0.2-0.1-0.4-0.3-0.5-0.5c0,0,0,0,0-0.1s0-0.2,0-0.2s0-0.1-0.1-0.1c0,0-0.1-0.1-0.1-0.1
		s0-0.1,0-0.2c0,0,0-0.1,0-0.2c0-0.1,0-0.2,0-0.3c0,0,0-0.1,0-0.1c0-0.1,0-0.1,0-0.1c0,0,0-0.1,0.1-0.2c0-0.1,0-0.1,0-0.2
		s0-0.1,0-0.1c0.1-0.1,0.2-0.2,0.5-0.4c0,0,0.1,0,0.2,0c0,0,0,0,0-0.1c0,0,0-0.1,0-0.1c0,0,0.1,0,0.3-0.1c0.2-0.1,0.3-0.2,0.4-0.2
		c0.1,0,0.2,0,0.2,0c0,0,0.1-0.1,0.1-0.2c0,0,0,0,0.1,0c0,0,0.1,0,0.1-0.1c0,0,0.1-0.1,0.2-0.1c0.1,0,0.2,0,0.2,0
		c0.1,0,0.2-0.1,0.2-0.3c0.2,0,0.3,0,0.3-0.1c0.1,0,0.2,0,0.3,0c0.1,0,0.2,0,0.2,0c0.1,0,0.1,0,0.2-0.1c0.1-0.1,0.1-0.1,0.2-0.1
		c0.1,0,0.2,0,0.2,0c0,0,0.1,0,0.2,0c0.1,0,0.1-0.1,0.2-0.1c0,0,0.1,0,0.2,0c0,0,0.1,0,0.1-0.1c0,0,0.1-0.1,0.1-0.1
		c0.1,0,0.1,0,0.1,0c0,0,0.1-0.1,0.3-0.2c0.1,0,0.2,0,0.2-0.1l0,0.1c0.1-0.1,0.2-0.1,0.4-0.1c0.2,0,0.4,0,0.5,0c0,0,0.1,0,0.1,0
		c0,0,0.1-0.1,0.1-0.1c0.1,0,0.1,0,0.1,0s0.1,0,0.1-0.1c0,0,0.1-0.1,0.1-0.1c0.1,0,0.4,0,0.7,0c0.3,0,0.6,0,0.8,0c0.1,0,0.1,0,0.3,0
		c0.1,0,0.2,0,0.2,0c0,0,0.1,0,0.2,0c0.1,0,0.2,0,0.2,0c0,0,0.1,0,0.2,0.1c0.3,0,0.5,0,0.6,0.1c0.1,0,0.2,0,0.4,0.1
		C24.9,43.9,25,44,25.1,44z M24.4,43.8c0.1,0,0.2,0,0.4,0.1c0.1,0.1,0.2,0.1,0.3,0.1c0,0,0,0.1,0,0.2c0.2,0.2,0.5,0.3,0.6,0.5l0.2,0
		c0,0.1,0.1,0.2,0.2,0.3c0,0.1,0,0.2,0.1,0.3c0.1,0,0.1,0,0.1,0c0,0.3,0,0.5,0,0.5c0.1,0.1,0.1,0.2,0.1,0.3c0,0.1,0,0.2,0,0.3
		c0,0.1,0,0.2,0,0.4c-0.2,0.1-0.3,0.2-0.3,0.5c-0.1,0-0.1,0-0.2,0c-0.1,0.1-0.1,0.1-0.1,0.1c0,0-0.1,0-0.1,0c0,0-0.1,0-0.1,0
		c0,0,0,0-0.1,0.1c0,0-0.1,0-0.1,0c0,0,0,0-0.1,0c-0.1,0-0.1,0.1-0.2,0.3c0,0-0.1,0-0.2-0.1c-0.1,0-0.1,0-0.1,0c0,0-0.1,0-0.1,0
		c0-0.1,0-0.2-0.2-0.4c0,0-0.1,0-0.1,0c0,0-0.1,0-0.1,0l-0.1-0.1c-0.1,0-0.1,0-0.1,0c0,0,0,0-0.1,0v-0.1c-0.1-0.1-0.2-0.2-0.4-0.1
		c0,0-0.1,0-0.1,0.1c-0.1,0-0.2,0-0.3,0c0,0-0.1,0-0.1,0c0,0-0.1,0-0.1,0c0,0-0.1,0-0.1,0c0,0-0.1,0-0.1,0c0,0-0.1,0-0.2-0.1
		c0,0-0.1,0-0.1,0.1c-0.1,0-0.1,0-0.1,0c0,0-0.1,0-0.1,0c-0.1,0-0.1,0-0.2,0c0,0-0.1,0-0.1,0s-0.1,0-0.1,0c0,0-0.1,0-0.2,0
		c0,0-0.1,0-0.1,0c0,0-0.1,0-0.1,0c-0.1,0-0.2,0-0.2,0c-0.3,0-0.5,0.1-0.5,0.1c0,0,0,0.1,0,0.1s0,0.1,0,0.1c0,0-0.1,0-0.1,0
		c0,0-0.1-0.1-0.1-0.1c0,0-0.1,0-0.3,0.1c0,0-0.1,0-0.1,0c0,0,0,0-0.1,0c-0.1,0.1-0.2,0.1-0.5,0.2c-0.2,0-0.4,0.1-0.5,0.2l0,0.1
		c-0.1,0-0.1,0-0.1,0s-0.1,0-0.1,0c0,0,0,0.1-0.1,0.1c-0.1,0-0.1,0-0.1,0s-0.1,0-0.2,0.1c0,0-0.1,0-0.1,0c-0.1,0-0.2,0-0.2,0
		c0,0,0,0.1,0,0.1c0,0,0,0.1,0,0.1c0,0.1,0.1,0.2,0.1,0.2s0.1,0,0.2,0c0,0.1,0.1,0.2,0.3,0.3c0,0,0.1,0,0.1,0c0,0,0.1,0,0.1,0
		s0,0,0,0.1c0,0.1,0,0.1,0,0.1c0.1-0.1,0.2,0,0.3,0.1c0.1,0.1,0.2,0.1,0.3,0.1c0,0,0.1,0.1,0.2,0.1c0.1,0,0.2,0,0.2,0.1
		c0,0,0.1,0,0.1,0.1c0,0,0.1,0,0.1,0c0,0,0.1,0.1,0.1,0.1c0,0,0.1,0,0.1,0.1c0.3,0.1,0.5,0.1,0.5,0.2c0.1-0.1,0.2,0,0.4,0
		c0.1,0,0.1,0.1,0.1,0.1c0.1,0,0.1,0,0.2,0s0.2,0,0.3,0c0,0,0.1,0,0.1,0c0,0,0,0,0.1,0c0,0,0.1,0,0.1,0c0,0,0.1,0,0.1,0.1
		c0,0,0.1,0.1,0.1,0.1c0,0,0.1,0,0.1,0c0,0,0.1,0,0.1,0c0.2,0.2,0.4,0.2,0.5,0.2l0.1-0.1c0.1,0,0.2,0,0.2,0c0,0,0,0,0,0.1
		c0.1,0.1,0.2,0.1,0.2,0.1c0,0,0.1,0,0.1,0c0,0,0.1,0,0.1,0c0,0.2,0,0.2,0.1,0.2c0,0,0.1,0,0.1,0c0,0,0,0,0.1-0.1c0.2,0,0.3,0,0.3,0
		c0,0.1,0.1,0.2,0.2,0.2c0.1,0,0.2,0.1,0.2,0.2c0.3-0.1,0.5,0,0.5,0.1c0,0,0.1,0,0.1,0c0,0,0.1,0,0.1,0c0,0,0.1,0,0.1,0.1
		c0,0.1,0.1,0.1,0.1,0.1S26,51,26,51c0.1-0.1,0.1-0.1,0.2,0c0,0.1,0,0.2,0.1,0.2c0.1,0,0.2,0,0.2,0c0.1,0.1,0.1,0.1,0.2,0.1
		s0.1,0,0.1,0c0,0,0.1,0,0.1,0c0,0,0,0,0,0.1c0,0,0.1,0.1,0.2,0.1s0.2,0.1,0.3,0.2c0.1,0,0.1,0,0.2,0c0.1,0.1,0.2,0.1,0.3,0.1
		c0.1,0.2,0.2,0.3,0.2,0.3c0,0,0.1,0,0.1,0c0,0,0.1,0,0.1,0c0,0,0,0.1,0,0.1c0.1,0.1,0.2,0.2,0.4,0.4s0.3,0.3,0.4,0.4
		c0,0.1,0.1,0.1,0.1,0.2c0,0.1,0,0.1,0,0.2c0.2,0.1,0.3,0.3,0.3,0.6c0,0.1,0.1,0.1,0.1,0.3c0.1,0.1,0.1,0.2,0.1,0.3c0,0,0,0.1,0,0.1
		c0,0,0,0.1,0,0.1c0,0,0,0.1,0,0.1c0,0,0,0.1,0,0.1c0,0,0,0.1,0,0.1c0,0,0,0.1,0,0.1c0,0,0,0,0,0.1c0,0,0,0.1,0,0.1c0,0,0,0.1,0,0.3
		c0,0.2,0,0.3,0.1,0.3c0,0,0,0.1,0,0.1c0,0,0,0.1,0,0.1c0.1,0,0.1,0.2,0,0.4c-0.1,0.2-0.1,0.4-0.1,0.4c0,0,0,0.1,0,0.1
		c0,0.1,0,0.1-0.1,0.2c-0.1,0.1-0.1,0.1-0.1,0.1c0,0.1,0,0.2-0.1,0.3c0,0,0,0.1,0,0.1c-0.2,0.2-0.3,0.3-0.3,0.4
		c-0.2,0.2-0.3,0.3-0.4,0.4c0,0.2-0.1,0.3-0.2,0.4c-0.1,0.1-0.2,0.2-0.3,0.3c0,0.1,0,0.1-0.1,0.2c0,0,0,0.1,0,0.1c0,0-0.1,0-0.1,0
		c0,0-0.1,0-0.1-0.1c-0.1,0-0.1,0.1,0,0.2c0,0-0.2,0.1-0.5,0.3c0,0,0,0.1,0,0.1c-0.2,0.1-0.3,0.2-0.4,0.2c-0.1,0-0.1,0.1-0.2,0.2
		c-0.1,0-0.2,0.1-0.3,0.2c-0.1,0.1-0.2,0.2-0.3,0.2c0,0,0,0.1,0,0.2c0,0.1,0,0.1,0,0.2c0,0-0.1,0-0.1-0.1c0,0-0.1-0.1-0.1-0.1
		c0,0-0.1,0-0.2,0.1c-0.1,0.1-0.2,0.1-0.2,0.1c-0.1,0-0.1,0.1-0.1,0.1c0,0-0.1,0-0.2,0c-0.1,0-0.2,0-0.2,0c-0.2,0.1-0.2,0.1-0.3,0
		c-0.1,0.1-0.2,0.2-0.2,0.2C24.8,62,24.7,62,24.6,62c-0.1,0-0.1,0-0.1,0c-0.1,0-0.1,0-0.2,0.1c0,0.1-0.1,0.1-0.1,0.1
		c-0.1,0-0.2,0-0.3,0.1c-0.1,0-0.2,0.1-0.3,0.1c-0.1,0-0.1,0-0.2,0c-0.1,0-0.1,0-0.2,0c-0.1,0-0.1,0-0.2,0.1c-0.1,0-0.1,0.1-0.2,0.1
		c0,0-0.1,0-0.1,0c-0.1,0-0.1,0-0.1,0c0,0-0.1,0.1-0.1,0.1c0,0-0.2,0-0.5,0c0,0-0.1,0-0.1-0.1c-0.2-0.1-0.4-0.1-0.5,0
		c-0.1,0-0.1,0-0.1,0c-0.1,0.1-0.1,0.1-0.1,0.1c-0.1-0.1-0.2-0.1-0.5-0.1c-0.1,0-0.2,0-0.2,0c-0.1-0.1-0.1-0.1-0.2-0.1
		c0,0-0.1,0-0.1,0.1c-0.1,0-0.1,0.1-0.1,0c0,0,0-0.1,0-0.1c0,0,0-0.1,0-0.1c-0.1,0-0.2,0-0.3,0c-0.1,0-0.2,0-0.2,0
		c0,0-0.1,0-0.2-0.1c0,0-0.1,0-0.2,0v-0.2c0,0-0.1,0-0.2,0c0,0,0,0,0,0c0,0,0-0.1,0-0.1c-0.1,0-0.1,0-0.2-0.1
		c-0.1-0.1-0.1-0.2-0.1-0.2c-0.2-0.1-0.2-0.2-0.3-0.2c0-0.1,0-0.1,0-0.1c-0.1-0.1-0.1-0.1-0.3-0.2c-0.1-0.1-0.2-0.1-0.2-0.2
		c0,0-0.1,0-0.1,0c0,0,0,0-0.1,0c0-0.2-0.1-0.3-0.2-0.4c-0.1-0.1-0.2-0.2-0.3-0.2c0,0,0-0.1,0-0.1c0,0,0-0.1,0-0.1
		c0,0-0.1,0-0.1-0.1c0-0.1-0.1-0.1-0.1-0.2c-0.1-0.1-0.2-0.2-0.2-0.2c0,0,0-0.1,0-0.1c0,0,0-0.1,0-0.1c0,0,0-0.1,0-0.1
		s0-0.1-0.1-0.1c0,0,0-0.1,0-0.1c0,0,0-0.1,0-0.1c0-0.1,0-0.1-0.1-0.2c0-0.1-0.1-0.1-0.1-0.2c0-0.1,0-0.1,0.1-0.2
		c0-0.1,0.1-0.1,0.1-0.2c0,0,0.1,0,0.1,0c0,0,0,0,0.1,0c0,0,0-0.2-0.1-0.4c0.1,0,0.2,0,0.2,0c0.1-0.1,0.1-0.2,0-0.3
		c0,0,0.1-0.1,0.1-0.2c0.1-0.1,0.1-0.2,0.1-0.2c0,0,0.1,0,0.1,0.1c0.1,0,0.1,0,0.1-0.1c0-0.1,0-0.1,0-0.1c0-0.1,0.1-0.1,0.2-0.1
		c0.1,0,0.1,0,0.1,0s0,0,0.1-0.1c0,0,0.1-0.1,0.1,0c0,0,0.1,0.1,0.1,0.1c0,0,0.1,0,0.1,0c0,0,0.1,0,0.1,0c0.1,0.2,0.2,0.2,0.2,0.3
		c0.1,0,0.1,0,0.1,0c0,0,0.1,0,0.1,0c0.1,0.1,0.2,0.1,0.2,0.1c0.1,0,0.1,0.1,0.1,0.2c0.1,0,0.1,0.1,0.1,0.1c0,0.1,0.1,0.1,0.1,0.2
		c0.1,0.1,0.1,0.2,0.1,0.3c0.1,0,0.2,0.1,0.3,0.3c0.1,0.2,0.3,0.3,0.3,0.3c0,0,0,0.1,0,0.1c0,0,0,0.1,0,0.1l0.3,0.2c0,0,0.1,0,0.2,0
		c0.1,0,0.1,0,0.2,0c0,0,0.1,0.1,0.1,0.1c0,0,0,0,0.1,0c0.1,0,0.2,0,0.3,0c0.1,0,0.2,0,0.3,0c0,0,0.1,0,0.1,0.1c0,0,0.1,0.1,0.1,0.1
		c0.1,0,0.2,0,0.3,0c0.1-0.1,0.1-0.1,0.2-0.1c0,0,0.1,0,0.1,0c0.1,0,0.1,0,0.1,0c0,0,0.1,0,0.2-0.1c0.1,0,0.1,0,0.2,0
		c0,0,0.1,0,0.1,0c0.1,0,0.1,0,0.1,0c0,0,0.1,0,0.1,0c0,0,0,0,0,0c0,0,0,0,0.1,0c0,0,0.1,0,0.1,0s0,0,0.1-0.1c0,0,0.1,0,0.1,0
		c0.1,0,0.1,0,0.1-0.1c0,0,0.1,0,0.1,0c0,0,0,0,0.1,0s0.1,0,0.2,0c0.1,0,0.1-0.1,0.1-0.2c0,0,0.1,0,0.1,0.1c0,0,0.1,0,0.2-0.1
		c0.1-0.1,0.2-0.1,0.3-0.1c0.1-0.1,0.2-0.3,0.6-0.5s0.5-0.4,0.6-0.5c0.2-0.1,0.2-0.2,0.2-0.3c0.1,0,0.1-0.1,0.2-0.2
		c0.1-0.1,0.1-0.2,0.2-0.2l0-0.1c0,0,0-0.1,0.1-0.1v-0.3c0.1-0.1,0.2-0.1,0.2-0.1c0-0.1,0-0.2,0-0.4s0-0.3,0-0.4
		c0,0-0.1-0.1-0.1-0.1c0,0,0-0.1,0-0.1c0,0,0-0.1-0.1-0.2c0-0.1-0.1-0.1-0.2-0.2c-0.1,0-0.2-0.1-0.2-0.1c-0.1,0.1-0.2,0.1-0.2,0
		c0-0.1,0-0.1,0-0.1l-0.2,0c0,0,0,0,0-0.1c0,0,0-0.1,0-0.1c0,0,0,0-0.1,0c-0.1,0-0.1,0-0.1,0c0,0,0,0-0.1-0.1c0,0-0.1-0.1-0.1-0.1
		c0,0-0.1,0-0.2,0c-0.1,0-0.2,0-0.3,0c-0.2-0.1-0.3-0.1-0.4,0c0,0,0-0.1,0-0.1c0,0-0.1-0.1-0.4-0.1c-0.2-0.1-0.4-0.1-0.4-0.1
		c-0.2-0.2-0.5-0.3-0.9-0.3c0,0,0,0,0,0c0,0,0,0,0,0c0,0,0-0.1,0-0.1c-0.1,0-0.1,0-0.2-0.1c-0.1-0.1-0.1-0.1-0.2-0.1
		c0,0-0.1,0.1-0.1,0.1c0,0,0,0.1-0.1,0.1c0,0,0-0.1-0.1-0.1c-0.1,0-0.1-0.1-0.2-0.1c-0.1-0.1-0.2-0.1-0.3,0
		c-0.1-0.2-0.1-0.2-0.1-0.2c-0.2,0.1-0.3,0.1-0.4,0c-0.1-0.1-0.2-0.1-0.5,0c0-0.1-0.1-0.2-0.1-0.2c-0.2,0-0.3,0-0.5-0.1
		c0,0-0.1,0-0.2,0c0,0-0.1,0-0.1,0c0,0,0,0,0,0s0,0-0.1,0c0,0-0.1,0-0.1,0c0,0,0,0-0.1,0c-0.2-0.1-0.4-0.1-0.6,0c0,0,0-0.1,0-0.1
		s0-0.1-0.1-0.1c0,0-0.1,0-0.1,0s-0.1,0-0.1-0.1c0,0-0.1-0.1-0.1-0.1c0,0-0.1,0-0.2-0.1c-0.1,0-0.2-0.1-0.3-0.1
		c-0.1-0.1-0.1-0.1-0.1-0.1c0,0-0.1,0-0.1,0c0,0-0.1,0-0.1,0c0-0.1,0-0.2,0-0.2c0,0-0.1,0-0.1,0c0,0-0.1,0-0.1,0s0,0,0,0
		c0,0,0-0.1,0-0.1c0,0,0,0,0,0c0,0,0,0,0-0.1c0,0-0.1,0-0.1,0c0,0-0.1,0-0.1,0c0,0,0-0.1,0-0.1c0,0,0,0,0,0
		c-0.1-0.1-0.1-0.1-0.2-0.1c-0.1-0.1-0.2-0.1-0.2-0.2c0,0-0.1,0-0.1,0c0,0-0.1,0-0.1,0c0-0.1-0.1-0.1-0.2-0.2c0-0.1-0.1-0.2-0.2-0.3
		c-0.1-0.1-0.2-0.2-0.2-0.3c0,0-0.1,0-0.1,0c0,0-0.1-0.1-0.1-0.1c0-0.1,0-0.1,0-0.1c-0.2-0.2-0.3-0.4-0.3-0.6c-0.1,0-0.1,0-0.2-0.1
		C14.9,49,14.8,49,14.8,49c0,0,0-0.1,0-0.3c-0.2-0.1-0.4-0.3-0.5-0.5c0,0,0,0,0-0.1s0-0.2,0-0.2s0-0.1-0.1-0.1c0,0-0.1-0.1-0.1-0.1
		s0-0.1,0-0.2c0,0,0-0.1,0-0.2c0-0.1,0-0.2,0-0.3c0,0,0-0.1,0-0.1c0-0.1,0-0.1,0-0.1c0,0,0-0.1,0.1-0.2c0-0.1,0-0.1,0-0.2
		s0-0.1,0-0.1c0.1-0.1,0.2-0.2,0.5-0.4c0,0,0.1,0,0.2,0c0,0,0,0,0-0.1c0,0,0-0.1,0-0.1c0,0,0.1,0,0.3-0.1c0.2-0.1,0.3-0.2,0.4-0.2
		c0.1,0,0.2,0,0.2,0c0,0,0.1-0.1,0.1-0.2c0,0,0,0,0.1,0c0,0,0.1,0,0.1-0.1c0,0,0.1-0.1,0.2-0.1c0.1,0,0.2,0,0.2,0
		c0.1,0,0.2-0.1,0.2-0.3c0.2,0,0.3,0,0.3-0.1c0.1,0,0.2,0,0.3,0c0.1,0,0.2,0,0.2,0c0.1,0,0.1,0,0.2-0.1c0.1-0.1,0.1-0.1,0.2-0.1
		c0.1,0,0.2,0,0.2,0c0,0,0.1,0,0.2,0c0.1,0,0.1-0.1,0.2-0.1c0,0,0.1,0,0.2,0c0,0,0.1,0,0.1-0.1c0,0,0.1-0.1,0.1-0.1
		c0.1,0,0.1,0,0.1,0c0,0,0.1-0.1,0.3-0.2c0.1,0,0.2,0,0.2-0.1l0,0.1c0.1-0.1,0.2-0.1,0.4-0.1c0.2,0,0.4,0,0.5,0c0,0,0.1,0,0.1,0
		c0,0,0.1-0.1,0.1-0.1c0.1,0,0.1,0,0.1,0s0.1,0,0.1-0.1c0,0,0.1-0.1,0.1-0.1c0.1,0,0.4,0,0.7,0c0.3,0,0.6,0,0.8,0c0.1,0,0.1,0,0.3,0
		c0.1,0,0.2,0,0.2,0c0,0,0.1,0,0.2,0c0.1,0,0.2,0,0.2,0c0,0,0.1,0.1,0.2,0.2C24.1,43.6,24.3,43.7,24.4,43.8z"/>
	<path fill="#D93427" d="M43.3,34.7c0,0.1,0.1,0.2,0.3,0.3c0,0,0.1-0.1,0.1-0.1h0c0.1,0,0.1,0,0.1,0v0.1c0,0,0.1,0.1,0.1,0.1
		c0.1,0.1,0.1,0.1,0.1,0.2c0.1,0.1,0.1,0.2,0.3,0.3c0.1,0.1,0.2,0.2,0.4,0.2c0,0.1,0,0.2-0.1,0.2l-0.1,0c0,0.1,0,0.2,0.1,0.3
		c0,0.1,0,0.1,0.1,0.2c0,0.1,0.1,0.2,0.1,0.2c0,0,0,0.1,0,0.2c0,0.1,0,0.1,0,0.2s0,0.1,0,0.1c0,0,0.1,0.1,0.1,0.1c0,0,0,0.1,0,0.1
		c0,0,0,0.1,0,0.1c0,0,0.1,0.1,0.1,0.1c0,0,0,0.1,0.1,0.1c0,0.2,0.1,0.3,0.1,0.3c0.1,0.3,0.1,0.5,0.2,0.6c0,0.3,0,0.5,0.1,0.5
		c0,0.1,0,0.2,0,0.3c0.1,0.1,0.1,0.2,0,0.3c0,0,0,0.1,0,0.1c0,0,0,0.1,0,0.2c0,0.1,0,0.2,0,0.2c0,0,0.1,0,0.1,0c0,0,0.1,0,0.1,0
		c0,0.2,0,0.4,0,0.5c0,0.1,0,0.1,0,0.1c0,0,0,0,0,0c0,0,0,0,0,0c0,0,0,0,0,0.1c0,0,0,0.1,0,0.1c0,0,0,0.1,0,0.2c0,0.1,0,0.3,0.1,0.6
		c0.1,0.3,0.1,0.5,0,0.7c0.2,0.1,0.2,0.3,0.2,0.6c0,0.1,0,0.1,0,0.1c0,0,0,0,0,0.1c0,0,0,0.1,0.1,0.1c0,0,0,0.1,0,0.2
		c0,0.1,0,0.2,0,0.2c0,0,0,0.1,0,0.1c0,0,0.1,0.1,0.1,0.1c0,0,0,0.1,0,0.2c0,0.1,0,0.2,0,0.2c0,0.1,0,0.1,0.1,0.2
		c0.1,0.1,0.1,0.1,0,0.2l0.2,0.1c0,0.1,0,0.1-0.1,0.2c0,0.1,0,0.1,0,0.2c0,0.1,0,0.1,0,0.1c0,0,0,0.1,0,0.1c0,0,0,0,0,0.1v0
		c0.1,0.2,0.1,0.3,0,0.4c0.1,0.3,0.1,0.5,0.1,0.6l0.1,0c0,0,0,0.2,0,0.6l0,0.1c0,0,0,0.1,0.1,0.2c0,0,0,0.1,0,0.2s0,0.2,0,0.2
		c0,0,0,0.1,0.1,0.2c0,0.1,0.1,0.2,0.1,0.2c0,0.1,0,0.2,0,0.3c0,0,0,0.1,0,0.1s0,0.1,0,0.1c0,0.1,0.1,0.1,0.1,0.1
		c0.1,0.2,0.1,0.4,0.1,0.4c-0.1,0.1-0.1,0.2,0,0.3l0,0c0,0,0,0.1,0,0.1c0,0,0,0.1,0,0.1c0,0,0.1,0.1,0.1,0.2c0,0.1,0,0.1,0,0.2
		c0,0.1,0,0.2,0,0.3c0,0.2,0,0.3,0,0.4c0,0,0,0.1,0.1,0.1s0.1,0.1,0.1,0.2c0.1,0.3,0.1,0.4,0.1,0.5c0,0,0.1,0.1,0.2,0.1
		c0.1,0,0.2,0.1,0.3,0.1c0,0,0,0.1,0,0.1c0,0,0.1,0.1,0.1,0.1c0.1,0,0.2,0,0.2,0.1c0,0.1,0,0.2,0.1,0.3c0.1,0.1,0.1,0.2,0.1,0.3
		c0.1,0.1,0.1,0.1,0.1,0.1c-0.1,0.2-0.1,0.2-0.2,0.2c0,0-0.1,0.1-0.1,0.2c0,0.1,0,0.3-0.1,0.3c-0.1,0-0.1,0.1-0.1,0.1
		c0,0.1,0,0.2,0,0.3c0,0.1,0,0.1,0,0.1c0,0,0,0,0,0.1s0,0.1,0,0.1c0,0,0,0.1,0.1,0.1c0,0,0.1,0.1,0.1,0.1c0,0.1,0,0.1,0,0.2
		c0,0.2,0,0.2,0.1,0.3c0,0.5,0.1,0.8,0.3,0.9c-0.1,0.3,0,0.5,0.1,0.6c0,0.1,0,0.2,0.1,0.3c0,0,0.1,0,0.1,0c0,0,0,0,0,0
		c0,0,0,0.1,0,0.1c0,0.1,0,0.1,0,0.1c0,0.1,0,0.1,0,0.1c0,0,0.1,0.1,0.1,0.1c0,0.1,0,0.2,0.1,0.3C50,57.9,50,58,50,58.1
		c0,0,0.1,0.1,0.1,0.3c0,0.1,0.1,0.2,0.2,0.4c0,0.2,0.1,0.3,0.2,0.3c0,0,0,0.1,0.1,0.2c0,0.1,0.1,0.1,0.1,0.2
		c0.2,0.1,0.2,0.2,0.3,0.4c0,0,0.1,0.1,0.1,0.1c0,0,0.1,0.1,0.1,0.1c0,0,0,0.1,0,0.1c0,0.1,0,0.1,0,0.1c0,0.1,0,0.2,0,0.4
		c0,0.2,0,0.3,0,0.3c0.1,0.1,0.1,0.2,0,0.4c-0.1,0-0.2,0.1-0.2,0.2c-0.1,0-0.2,0.1-0.3,0.2S50.4,62,50.3,62c0,0,0,0.1,0,0.1
		c0,0,0,0.1,0,0.1h-0.4c0-0.1-0.1-0.2-0.2-0.3c-0.1-0.1-0.2-0.1-0.2-0.2c-0.2,0-0.3,0-0.4-0.1c0,0,0,0.1,0,0.1c0,0,0,0.1,0,0.1
		c-0.1,0-0.1,0-0.1-0.1c0-0.1,0-0.1,0-0.1c0-0.1-0.1-0.1-0.2-0.1c-0.2-0.3-0.5-0.4-0.6-0.5c0-0.3-0.1-0.4-0.3-0.4c0-0.1,0-0.1,0-0.2
		v0c0-0.1-0.1-0.2-0.2-0.3c-0.1-0.1-0.1-0.2-0.2-0.2c-0.1,0-0.1,0-0.1,0c0.1-0.2,0-0.4-0.1-0.5c0-0.2,0-0.3-0.1-0.4c0,0-0.1,0-0.1,0
		s0,0,0,0c0,0,0-0.1,0-0.2c0-0.1,0-0.1,0-0.2c0,0,0-0.1-0.1-0.2c0-0.1-0.1-0.2,0-0.2l-0.2,0l0.1-0.2c0-0.1,0-0.2-0.1-0.3
		c0-0.3-0.1-0.4-0.2-0.4c0,0,0-0.1,0-0.1c0-0.1,0-0.1,0-0.1c0,0,0-0.1,0-0.1c0,0,0-0.1,0-0.1c0,0,0-0.1-0.1-0.2
		c0-0.1-0.1-0.2-0.1-0.2c-0.1-0.3-0.1-0.5-0.2-0.5c0,0,0-0.1,0-0.1c0-0.1,0-0.1,0-0.1c0,0,0-0.1-0.1-0.1c0,0-0.1-0.1-0.1-0.1
		c0,0,0-0.1,0-0.1c0-0.1,0-0.1,0-0.1c0,0,0-0.1,0-0.1c0,0,0,0,0-0.1c-0.1-0.1-0.1-0.2-0.1-0.2c0,0-0.1,0-0.2,0c-0.1,0-0.2,0-0.2,0
		c-0.2,0-0.2,0.1-0.3,0.1v0v0c0,0-0.1,0-0.1,0c0,0-0.1,0-0.1,0c-0.1,0-0.1,0-0.1,0.1c0,0-0.1,0-0.1-0.1c-0.1,0-0.1,0-0.2,0.1
		c-0.1,0-0.1,0.1-0.1,0.1c-0.1-0.1-0.1-0.1-0.2-0.1c-0.1,0-0.1,0.1-0.1,0.2c-0.2,0-0.3,0-0.3,0C43.7,55,43.6,55,43.5,55
		c0,0-0.1,0-0.1,0.1c0,0-0.1,0-0.2-0.1c-0.2,0-0.3,0-0.4,0.2c-0.2,0-0.2,0-0.2,0c-0.1-0.1-0.2-0.1-0.4-0.1c-0.2,0-0.3,0.1-0.3,0.2
		c-0.5,0-0.8,0-0.9,0c-0.1,0-0.2,0-0.4,0c-0.2,0-0.3,0-0.5,0c0,0.1,0,0.2,0,0.2c-0.1,0-0.2,0-0.3-0.2c0,0-0.1,0-0.1,0.1
		c0,0-0.1,0-0.3,0c-0.2,0-0.3,0-0.3,0c0,0-0.1-0.1-0.1-0.1c0,0-0.1,0-0.1,0c-0.1,0-0.2,0-0.2,0.1c-0.1-0.1-0.2-0.1-0.2-0.1
		c0,0-0.1,0-0.1,0.1c0,0.1-0.1,0.1-0.1,0.1c-0.1-0.1-0.1-0.2-0.2-0.2c0,0-0.1,0-0.2,0.1c-0.1,0.1-0.1,0.1-0.2,0.1
		c0,0-0.1,0.1-0.2,0.2c0,0.1,0,0.2-0.1,0.3v0.1c0,0-0.1,0.1-0.1,0.1c0,0-0.1,0.1-0.1,0.1c0,0.1,0,0.2-0.1,0.3c0,0.1-0.1,0.2-0.1,0.3
		c0,0,0,0,0,0s0,0,0,0v0.1c0,0,0,0.1-0.1,0.2c0,0.1-0.1,0.3-0.2,0.4c0.1,0.1,0.1,0.1,0,0.2c-0.1,0.1-0.1,0.1-0.1,0.1c0,0,0,0,0,0.1
		c0,0,0,0.1,0,0.1c0,0,0,0.1-0.1,0.1c-0.1,0-0.1,0.1-0.1,0.1c0,0.3-0.1,0.4-0.2,0.5c0,0.1,0,0.2,0,0.4l-0.2,0
		c-0.1,0.3-0.2,0.5-0.2,0.5c0,0.1,0,0.2,0.1,0.3c0,0,0,0.1-0.1,0.1c0,0,0,0.1-0.1,0.2c-0.1,0-0.1,0.1-0.2,0.3c0,0-0.1,0.1-0.1,0.1
		c0,0,0,0.1,0,0.1c0,0,0,0,0,0.1c0,0,0,0.1,0,0.1c-0.1,0.2-0.2,0.4-0.2,0.5L35,61.9c0,0.1,0,0.2-0.1,0.2c0,0,0,0.1,0,0.1
		c0,0,0,0.1,0,0.1c0,0,0,0.1-0.1,0.1c0,0-0.1,0-0.1,0c0,0,0,0-0.1,0c0,0-0.1,0.1-0.1,0.2c-0.1,0-0.1,0-0.2,0.1
		c0,0.1-0.1,0.1-0.2,0.1c0,0-0.1,0-0.1-0.1c0,0-0.1-0.1-0.1-0.1c-0.1,0-0.1,0-0.2,0c0,0-0.1,0-0.2,0c0-0.2,0-0.2,0-0.2
		c-0.2,0-0.4,0-0.5,0c0-0.1,0-0.2-0.1-0.2c0,0-0.1,0-0.1,0s-0.1,0-0.1,0c0,0,0,0,0-0.1c0,0,0-0.1,0-0.1c-0.1,0-0.1,0-0.1,0
		c0,0.1,0,0.1-0.1,0.1c0-0.1,0-0.1-0.1-0.2c-0.1-0.1-0.1-0.1-0.1-0.2c-0.1,0-0.1,0-0.1,0c0-0.1,0-0.2,0-0.3c0,0-0.1,0-0.1,0
		c0-0.2,0-0.3,0-0.5l0,0h0c0.1-0.1,0.2-0.3,0.1-0.6c-0.1-0.1-0.1-0.2-0.1-0.3h0.1h0c0,0,0-0.1,0-0.2h0.1c0,0,0-0.1,0-0.2
		c0-0.1,0-0.1,0-0.1l0.1-0.1c0-0.1,0.1-0.2,0.2-0.3c0-0.1,0-0.1,0-0.2s-0.1-0.1-0.1-0.2c0.2,0,0.2-0.1,0.2-0.2c0,0,0.1,0,0.1-0.1
		c0-0.1,0-0.2,0-0.3c0-0.1,0-0.1,0-0.1c0,0,0-0.1,0-0.2c0-0.1,0-0.1,0-0.1c0,0,0-0.1,0.1-0.1c0-0.1,0.1-0.2,0.2-0.3
		c0.1-0.1,0.1-0.2,0.1-0.3c0.1-0.2,0.1-0.3,0.2-0.3c0-0.2,0-0.3,0.1-0.5c0.1-0.2,0.2-0.3,0.1-0.5c0.1,0,0.1,0,0.2-0.1
		c0.1-0.1,0.1-0.1,0.1-0.1c0-0.1,0-0.2,0.1-0.3c0.1-0.1,0.1-0.2,0.1-0.4c-0.1-0.1-0.1-0.1,0-0.2c0,0,0.1,0,0.1,0
		c0.1-0.1,0.1-0.2,0-0.4c-0.2,0-0.2,0-0.3,0c0-0.3-0.2-0.5-0.5-0.6c0,0,0-0.1,0.1-0.1c0,0,0.1,0,0.1-0.1c0-0.1,0-0.1-0.1-0.2
		c-0.1-0.1-0.1-0.1-0.1-0.1c0,0,0.1-0.2,0.3-0.4c0-0.1,0.1-0.2,0.3-0.3c0.1-0.1,0.2-0.2,0.2-0.2l0.6-0.1c0.1,0,0.2,0,0.4,0
		s0.3,0,0.3-0.1c0,0,0-0.1,0-0.2c0-0.1,0-0.1,0-0.2c0,0,0.1,0,0.1-0.1c0-0.1,0-0.1,0-0.1c0,0,0-0.1,0-0.1c0,0,0.1-0.1,0.1-0.1
		c0,0,0-0.1,0-0.1c0-0.2,0.1-0.3,0.3-0.4c0.1-0.2,0.1-0.4,0-0.6c0.1,0,0.1-0.1,0.2-0.2c0.1-0.1,0.1-0.2,0.1-0.2c0-0.1,0-0.2,0.1-0.3
		c0.1-0.1,0.1-0.3,0-0.3c0-0.1,0.1-0.1,0.1-0.3c0.1-0.1,0.1-0.2,0.1-0.2c0-0.1,0-0.2,0.1-0.4c0,0,0-0.1,0.1-0.2c0,0,0-0.1,0-0.1
		c0,0,0,0,0-0.1c0.1-0.1,0.1-0.2,0.1-0.2s0-0.1,0-0.1s0-0.1,0-0.1s0-0.1,0.1-0.1c0.1-0.2,0.2-0.4,0.2-0.4v-0.2c0,0,0-0.1,0.1-0.1
		c0,0,0.1,0,0.1-0.1s0-0.1,0-0.1c0-0.1,0-0.1,0-0.1c0.1-0.2,0.2-0.3,0.1-0.4c0,0,0.1-0.1,0.1-0.1c0,0,0.1-0.1,0.1-0.1
		c0,0,0-0.1,0-0.1c0-0.1,0-0.1,0-0.1c0,0,0-0.1,0.1-0.1c0,0,0.1-0.1,0.1-0.1c0,0,0-0.1,0-0.1c0-0.1,0-0.1,0-0.2
		c0.1,0,0.1-0.1,0.1-0.1c0.1-0.3,0.1-0.4,0.1-0.5c0-0.1,0-0.2,0.1-0.4c0.1-0.2,0.1-0.3,0.1-0.5c0.1,0,0.1-0.2,0.1-0.4
		c0-0.2,0.1-0.4,0.1-0.4c0-0.1,0-0.2,0.1-0.2c0-0.1,0.1-0.1,0.1-0.1c0,0,0-0.1,0-0.1s0-0.1,0-0.1c0,0,0.1,0,0.1-0.1
		c0.1,0,0.1-0.1,0.1-0.1c0,0,0-0.1,0-0.2c0-0.1,0-0.2,0-0.2c0,0,0,0-0.1,0c0,0-0.1,0-0.1,0c0-0.1,0-0.1,0-0.2c0.1,0,0.2,0,0.2,0
		c0,0,0-0.1,0-0.1c0,0,0-0.1,0-0.1c0,0,0-0.1,0-0.1c0,0,0.1-0.1,0.1-0.1c0-0.1,0-0.1,0-0.2c0-0.1,0-0.1,0-0.2c0-0.1,0-0.2,0.1-0.3
		c0.1-0.1,0.1-0.2,0.1-0.3c0.1-0.1,0.1-0.2,0.2-0.3c0-0.2,0-0.2,0.1-0.3c0,0,0-0.1,0-0.1c0,0,0.1-0.1,0.1-0.2c0-0.1,0.1-0.1,0.1-0.2
		c0-0.1,0-0.2,0-0.3c0.1-0.1,0.1-0.2,0.1-0.2c0,0,0-0.1,0-0.1c0,0,0-0.1,0-0.1c0,0,0-0.1,0.1-0.2c0-0.1,0-0.1,0.1-0.2
		c0.1-0.1,0.1-0.2,0.1-0.2c0,0,0-0.1,0-0.2c0-0.1,0-0.1,0-0.2c0.1-0.3,0.1-0.4,0.1-0.5c0,0,0.1,0,0.1,0c0-0.2,0.1-0.4,0.2-0.5
		c0-0.1,0-0.2,0.1-0.3c0,0-0.1-0.1-0.1-0.1c0,0,0,0,0-0.1c0,0-0.1,0-0.1,0c-0.1-0.1-0.1-0.2,0-0.2c0.1,0,0.1,0,0.2,0
		c0-0.1,0.1-0.1,0-0.2c-0.1-0.2-0.1-0.3,0-0.3c0.1,0,0.1,0,0.1-0.1c0,0,0.1,0.1,0.1,0.1c0,0,0,0,0.1,0c0-0.1,0.1-0.2,0.1-0.3
		c0-0.1,0-0.1,0-0.1c0,0,0.1,0,0.1,0c0,0,0,0,0.1,0c0.3-0.2,0.6-0.2,0.8-0.1c0.1,0.1,0.1,0.1,0.2,0.1c0,0,0.1,0,0.1-0.1
		C43,34.6,43.2,34.6,43.3,34.7z M43.3,34.7c0,0.1,0.1,0.2,0.3,0.3c0,0,0.1-0.1,0.1-0.1h0c0.1,0,0.1,0,0.1,0v0.1c0,0,0.1,0.1,0.1,0.1
		c0.1,0.1,0.1,0.1,0.1,0.2c0.1,0.1,0.1,0.2,0.3,0.3c0.1,0.1,0.2,0.2,0.4,0.2c0,0.1,0,0.2-0.1,0.2l-0.1,0c0,0.1,0,0.2,0.1,0.3
		c0,0.1,0,0.1,0.1,0.2c0,0.1,0.1,0.2,0.1,0.2c0,0,0,0.1,0,0.2c0,0.1,0,0.1,0,0.2s0,0.1,0,0.1c0,0,0.1,0.1,0.1,0.1c0,0,0,0.1,0,0.1
		c0,0,0,0.1,0,0.1c0,0,0.1,0.1,0.1,0.1c0,0,0,0.1,0.1,0.1c0,0.2,0.1,0.3,0.1,0.3c0.1,0.3,0.1,0.5,0.2,0.6c0,0.3,0,0.5,0.1,0.5
		c0,0.1,0,0.2,0,0.3c0.1,0.1,0.1,0.2,0,0.3c0,0,0,0.1,0,0.1c0,0,0,0.1,0,0.2c0,0.1,0,0.2,0,0.2c0,0,0.1,0,0.1,0c0,0,0.1,0,0.1,0
		c0,0.2,0,0.4,0,0.5c0,0.1,0,0.1,0,0.1c0,0,0,0,0,0c0,0,0,0,0,0c0,0,0,0,0,0.1c0,0,0,0.1,0,0.1c0,0,0,0.1,0,0.1c0,0,0,0.1,0,0.1
		c0,0.1,0,0.3,0.1,0.5c0.1,0.3,0.1,0.5,0,0.7c0.2,0.1,0.2,0.3,0.2,0.6c0,0.1,0,0.1,0,0.1c0,0,0,0,0,0.1c0,0,0,0.1,0.1,0.1
		c0,0,0,0.1,0,0.2c0,0.1,0,0.2,0,0.2c0,0,0,0.1,0,0.1c0,0,0.1,0.1,0.1,0.1c0,0,0,0.1,0,0.2c0,0.1,0,0.2,0,0.2c0,0.1,0,0.1,0.1,0.2
		c0.1,0.1,0.1,0.1,0,0.2l0.2,0.1c0,0.1,0,0.1-0.1,0.2c0,0.1,0,0.1,0,0.2c0,0.1,0,0.1,0,0.1c0,0,0,0.1,0,0.1c0,0,0,0,0,0.1v0
		c0.1,0.2,0.1,0.3,0,0.4c0.1,0.3,0.1,0.5,0.1,0.6l0.1,0c0,0,0,0.2,0,0.6l0,0.1c0,0,0,0.1,0.1,0.2c0,0,0,0.1,0,0.2s0,0.2,0,0.2
		c0,0,0,0.1,0.1,0.2c0,0.1,0.1,0.2,0.1,0.2c0,0.1,0,0.2,0,0.3c0,0,0,0.1,0,0.1s0,0.1,0,0.1c0,0.1,0.1,0.1,0.1,0.1
		c0.1,0.2,0.1,0.4,0.1,0.4c-0.1,0.1-0.1,0.2,0,0.3l0,0c0,0,0,0.1,0,0.1c0,0,0,0.1,0,0.1c0,0,0.1,0.1,0.1,0.2c0,0.1,0,0.1,0,0.2
		c0,0.1,0,0.2,0,0.3c0,0.2,0,0.3,0,0.4c0,0,0,0.1,0.1,0.1s0.1,0.1,0.1,0.2c0.1,0.3,0.1,0.4,0.1,0.5c0,0,0.1,0.1,0.2,0.1
		c0.1,0,0.2,0.1,0.3,0.1c0,0,0,0.1,0,0.1c0,0,0.1,0.1,0.1,0.1c0.1,0,0.2,0,0.2,0.1c0,0.1,0,0.2,0.1,0.3c0.1,0.1,0.1,0.2,0.1,0.3
		c0.1,0.1,0.1,0.1,0.1,0.1c-0.1,0.2-0.1,0.2-0.2,0.2c0,0-0.1,0.1-0.1,0.3c0,0.2,0,0.3-0.1,0.3c-0.1,0-0.1,0.1-0.1,0.1
		c0,0.1,0,0.2,0,0.3c0,0.1,0,0.1,0,0.1c0,0,0,0,0,0.1s0,0.1,0,0.1c0,0,0,0.1,0.1,0.1c0,0,0.1,0.1,0.1,0.1c0,0.1,0,0.1,0,0.2
		c0,0.2,0,0.2,0.1,0.3c0,0.5,0.1,0.8,0.3,0.9c-0.1,0.3,0,0.5,0.1,0.6c0,0.1,0,0.2,0.1,0.3c0,0,0.1,0,0.1,0c0,0,0,0.1,0,0.1
		c0,0.1,0,0.1,0,0.1c0,0.1,0,0.1,0,0.1c0,0,0.1,0.1,0.1,0.1c0,0.1,0,0.2,0.1,0.3C50,57.9,50,58,50,58.1c0,0,0.1,0.1,0.1,0.3
		c0,0.1,0.1,0.2,0.2,0.4c0,0.2,0.1,0.3,0.2,0.3c0,0,0,0.1,0.1,0.2c0,0.1,0.1,0.1,0.1,0.2c0.2,0.1,0.2,0.2,0.3,0.4
		c0,0,0.1,0.1,0.1,0.1c0,0,0.1,0.1,0.1,0.1c0,0,0,0.1,0,0.1c0,0.1,0,0.1,0,0.1c0,0.1,0,0.2,0,0.4c0,0.2,0,0.3,0,0.3
		c0.1,0.1,0.1,0.2,0,0.4c-0.1,0-0.2,0.1-0.2,0.2c-0.1,0-0.2,0.1-0.3,0.2S50.4,62,50.3,62c0,0,0,0.1,0,0.1c0,0,0,0.1,0,0.1h-0.4
		c0-0.1-0.1-0.2-0.2-0.3c-0.1-0.1-0.2-0.1-0.2-0.2c-0.2,0-0.3,0-0.4-0.1c0,0,0,0.1,0,0.1c0,0,0,0.1,0,0.1c-0.1,0-0.1,0-0.1-0.1
		c0-0.1,0-0.1,0-0.1c0-0.1-0.1-0.1-0.2-0.1c-0.2-0.3-0.5-0.4-0.6-0.5c0-0.3-0.1-0.4-0.3-0.4c0-0.1,0-0.1,0-0.2v0
		c0-0.1-0.1-0.2-0.2-0.3c-0.1-0.1-0.1-0.2-0.2-0.2c-0.1,0-0.1,0-0.1,0c0.1-0.2,0-0.4-0.1-0.5c0-0.1,0-0.2-0.1-0.4c0,0-0.1,0-0.1,0
		s0,0,0,0c0,0,0-0.1,0-0.2c0-0.1,0-0.1,0-0.2c0,0,0-0.1-0.1-0.2c0-0.1-0.1-0.2,0-0.2l-0.2,0l0.1-0.2c0-0.1,0-0.2-0.1-0.3
		c0-0.3-0.1-0.4-0.2-0.4c0,0,0-0.1,0-0.1c0-0.1,0-0.1,0-0.1c0,0,0-0.1,0-0.1c0,0,0-0.1,0-0.1c0,0,0-0.1-0.1-0.2
		c0-0.1-0.1-0.2-0.1-0.2c-0.1-0.3-0.1-0.5-0.2-0.5c0,0,0-0.1,0-0.1c0-0.1,0-0.1,0-0.1c0,0,0-0.1-0.1-0.1c0,0-0.1-0.1-0.1-0.1
		c0,0,0-0.1,0-0.1c0-0.1,0-0.1,0-0.2c0,0,0-0.1,0-0.1c0,0,0,0,0-0.1c-0.1-0.1-0.1-0.2-0.1-0.2c0,0-0.1,0-0.2,0c-0.1,0-0.2,0-0.2,0
		c-0.2,0-0.2,0.1-0.3,0.1v0v0c0,0-0.1,0-0.1,0c0,0-0.1,0-0.1,0c-0.1,0-0.1,0-0.1,0.1c0,0-0.1,0-0.1-0.1c-0.1,0-0.1,0-0.2,0.1
		c-0.1,0-0.1,0.1-0.1,0.1c-0.1-0.1-0.1-0.1-0.2-0.1c-0.1,0-0.1,0.1-0.1,0.2c-0.2,0-0.3,0-0.3,0C43.7,55,43.6,55,43.5,55
		c0,0-0.1,0-0.1,0.1c0,0-0.1,0-0.2-0.1c-0.2,0-0.3,0-0.4,0.2c-0.2,0-0.2,0-0.2,0c-0.1-0.1-0.2-0.1-0.4-0.1c-0.2,0-0.3,0.1-0.3,0.2
		c-0.5,0-0.8,0-0.9,0c-0.1,0-0.2,0-0.4,0c-0.2,0-0.3,0-0.5,0c0,0.1,0,0.2,0,0.2c-0.1,0-0.2,0-0.3-0.2c0,0-0.1,0-0.1,0.1
		c0,0-0.1,0-0.3,0c-0.2,0-0.3,0-0.3,0c0,0-0.1-0.1-0.1-0.1c0,0-0.1,0-0.1,0c-0.1,0-0.2,0-0.2,0.1c-0.1-0.1-0.2-0.1-0.2-0.1
		c0,0-0.1,0-0.1,0.1c0,0.1-0.1,0.1-0.1,0.1c-0.1-0.1-0.1-0.2-0.2-0.2c0,0-0.1,0-0.2,0.1c-0.1,0.1-0.1,0.1-0.2,0.1
		c0,0-0.1,0.1-0.2,0.2c0,0.1,0,0.2-0.1,0.3v0.1c0,0-0.1,0.1-0.1,0.1c0,0-0.1,0.1-0.1,0.1c0,0.1,0,0.2-0.1,0.3c0,0.1-0.1,0.2-0.1,0.3
		c0,0,0,0,0,0s0,0,0,0v0.1c0,0,0,0.1-0.1,0.2c0,0.1-0.1,0.3-0.2,0.4c0.1,0.1,0.1,0.1,0,0.2c-0.1,0.1-0.1,0.1-0.1,0.1c0,0,0,0,0,0.1
		c0,0,0,0.1,0,0.1c0,0,0,0.1-0.1,0.1c-0.1,0-0.1,0.1-0.1,0.1c0,0.3-0.1,0.4-0.2,0.5c0,0.1,0,0.2,0,0.4l-0.2,0
		c-0.1,0.3-0.2,0.5-0.2,0.5c0,0.1,0,0.2,0.1,0.3c0,0,0,0.1-0.1,0.1c0,0,0,0.1-0.1,0.2c-0.1,0-0.1,0.1-0.2,0.3c0,0-0.1,0.1-0.1,0.1
		c0,0,0,0.1,0,0.1c0,0,0,0,0,0.1c0,0,0,0.1,0,0.1c-0.1,0.2-0.2,0.4-0.2,0.5L35,61.9c0,0.1,0,0.2-0.1,0.2c0,0,0,0.1,0,0.1
		c0,0,0,0.1,0,0.1c0,0,0,0.1-0.1,0.1c0,0-0.1,0-0.1,0c0,0,0,0-0.1,0c0,0-0.1,0.1-0.1,0.2c-0.1,0-0.1,0-0.2,0.1
		c0,0.1-0.1,0.1-0.2,0.1c0,0-0.1,0-0.1-0.1c0,0-0.1-0.1-0.1-0.1c-0.1,0-0.1,0-0.2,0c0,0-0.1,0-0.2,0c0-0.2,0-0.2,0-0.2
		c-0.2,0-0.4,0-0.5,0c0-0.1,0-0.2-0.1-0.2c0,0-0.1,0-0.1,0s-0.1,0-0.1,0c0,0,0,0,0-0.1c0,0,0-0.1,0-0.1c-0.1,0-0.1,0-0.1,0
		c0,0.1,0,0.1-0.1,0.1c0-0.1,0-0.1-0.1-0.2c-0.1-0.1-0.1-0.1-0.1-0.2c-0.1,0-0.1,0-0.1,0c0-0.1,0-0.2,0-0.3c0,0-0.1,0-0.1,0
		c0-0.2,0-0.3,0-0.5l0,0h0c0.1-0.1,0.2-0.3,0.1-0.6c-0.1-0.1-0.1-0.2-0.1-0.3h0.1h0c0,0,0-0.1,0-0.2h0.1c0,0,0-0.1,0-0.2
		c0-0.1,0-0.1,0-0.1l0.1-0.1c0-0.1,0.1-0.2,0.2-0.3c0-0.1,0-0.1,0-0.2s-0.1-0.1-0.1-0.2c0.2,0,0.2-0.1,0.2-0.2c0,0,0.1,0,0.1-0.1
		c0-0.1,0-0.2,0-0.3c0-0.1,0-0.1,0-0.1c0,0,0-0.1,0-0.2c0-0.1,0-0.1,0-0.1c0,0,0-0.1,0.1-0.1c0-0.1,0.1-0.2,0.2-0.3
		c0.1-0.1,0.1-0.2,0.1-0.3c0.1-0.2,0.1-0.3,0.2-0.3c0-0.2,0-0.3,0.1-0.5c0.1-0.2,0.2-0.3,0.1-0.5c0.1,0,0.1,0,0.2-0.1
		c0.1-0.1,0.1-0.1,0.1-0.1c0-0.1,0-0.2,0.1-0.3c0.1-0.1,0.1-0.2,0.1-0.4c-0.1-0.1-0.1-0.1,0-0.2c0,0,0.1,0,0.1,0
		c0.1-0.1,0.1-0.2,0-0.4c-0.2,0-0.2,0-0.3,0c0-0.3-0.2-0.5-0.5-0.6c0,0,0-0.1,0.1-0.1c0,0,0.1,0,0.1-0.1c0-0.1,0-0.1-0.1-0.2
		c-0.1-0.1-0.1-0.1-0.1-0.1c0,0,0.1-0.2,0.3-0.4c0-0.1,0.1-0.2,0.3-0.3c0.1-0.1,0.2-0.2,0.2-0.2l0.6-0.1c0.1,0,0.2,0,0.4,0
		s0.3,0,0.3-0.1c0,0,0-0.1,0-0.2c0-0.1,0-0.1,0-0.2c0,0,0.1,0,0.1-0.1c0-0.1,0-0.1,0-0.1c0,0,0-0.1,0-0.1c0,0,0.1-0.1,0.1-0.1
		c0,0,0-0.1,0-0.1c0-0.2,0.1-0.3,0.3-0.4c0.1-0.2,0.1-0.4,0-0.6c0.1,0,0.1-0.1,0.2-0.2c0.1-0.1,0.1-0.2,0.1-0.2c0-0.1,0-0.2,0.1-0.3
		c0.1-0.1,0.1-0.3,0-0.3c0-0.1,0.1-0.1,0.1-0.3c0-0.1,0.1-0.2,0.1-0.2c0-0.1,0-0.2,0.1-0.4c0,0,0-0.1,0.1-0.2c0,0,0-0.1,0-0.1
		c0,0,0,0,0-0.1c0.1-0.1,0.1-0.2,0.1-0.2s0-0.1,0-0.1s0-0.1,0-0.1s0-0.1,0.1-0.1c0.1-0.2,0.2-0.4,0.2-0.4v-0.2c0,0,0-0.1,0.1-0.1
		c0,0,0.1,0,0.1-0.1s0-0.1,0-0.1c0-0.1,0-0.1,0-0.1c0.1-0.2,0.2-0.3,0.1-0.4c0,0,0.1-0.1,0.1-0.1c0,0,0.1-0.1,0.1-0.1
		c0,0,0-0.1,0-0.1c0-0.1,0-0.1,0-0.1c0,0,0-0.1,0.1-0.1c0,0,0.1-0.1,0.1-0.1c0,0,0-0.1,0-0.1c0-0.1,0-0.1,0-0.2
		c0.1,0,0.1-0.1,0.1-0.1c0.1-0.3,0.1-0.4,0.1-0.5c0-0.1,0-0.2,0.1-0.4c0.1-0.2,0.1-0.3,0.1-0.5c0.1,0,0.1-0.2,0.1-0.4
		c0-0.2,0.1-0.4,0.1-0.4c0-0.1,0-0.2,0.1-0.2c0-0.1,0.1-0.1,0.1-0.1c0,0,0-0.1,0-0.1s0-0.1,0-0.1c0,0,0.1,0,0.1-0.1
		c0.1,0,0.1-0.1,0.1-0.1c0,0,0-0.1,0-0.2c0-0.1,0-0.2,0-0.2c0,0,0,0-0.1,0c0,0-0.1,0-0.1,0c0-0.1,0-0.1,0-0.2c0.1,0,0.2,0,0.2,0
		c0,0,0-0.1,0-0.1c0,0,0-0.1,0-0.1c0,0,0-0.1,0-0.1c0,0,0.1-0.1,0.1-0.1c0-0.1,0-0.1,0-0.2c0-0.1,0-0.1,0-0.2c0-0.1,0-0.2,0.1-0.3
		c0.1-0.1,0.1-0.2,0.1-0.3c0.1-0.1,0.1-0.2,0.2-0.3c0-0.2,0-0.2,0.1-0.3c0,0,0-0.1,0-0.1c0,0,0.1-0.1,0.1-0.2c0-0.1,0.1-0.1,0.1-0.2
		c0-0.1,0-0.2,0-0.3c0.1-0.1,0.1-0.2,0.1-0.2c0,0,0-0.1,0-0.1c0,0,0-0.1,0-0.1c0,0,0-0.1,0.1-0.2c0-0.1,0-0.1,0.1-0.2
		c0.1-0.1,0.1-0.2,0.1-0.2c0,0,0-0.1,0-0.2c0-0.1,0-0.1,0-0.2c0.1-0.3,0.1-0.4,0.1-0.5c0,0,0.1,0,0.1,0c0-0.2,0.1-0.4,0.2-0.5
		c0-0.1,0-0.2,0.1-0.3c0,0-0.1-0.1-0.1-0.1c0,0,0,0,0-0.1c0,0-0.1,0-0.1,0c-0.1-0.1-0.1-0.2,0-0.2c0.1,0,0.1,0,0.2,0
		c0-0.1,0.1-0.1,0-0.2c-0.1-0.2-0.1-0.3,0-0.3c0.1,0,0.1,0,0.1-0.1c0,0,0.1,0.1,0.1,0.1c0,0,0,0,0.1,0c0-0.1,0.1-0.2,0.1-0.3
		c0-0.1,0-0.1,0-0.1c0,0,0.1,0,0.1,0c0,0,0,0,0.1,0c0.3-0.2,0.6-0.2,0.8-0.1c0.1,0.1,0.1,0.1,0.2,0.1c0,0,0.1,0,0.1-0.1
		C43,34.6,43.2,34.6,43.3,34.7z M34.6,54.9C34.6,54.9,34.6,54.9,34.6,54.9C34.6,54.9,34.6,54.9,34.6,54.9z M34.6,54.9
		C34.6,54.9,34.6,54.9,34.6,54.9C34.6,54.9,34.6,54.9,34.6,54.9z M42.8,40.7c0,0.1,0,0.1-0.1,0.2c-0.1,0-0.1,0.1-0.1,0.1
		c0,0,0,0.1,0,0.2c0,0.1,0,0.1,0,0.2c-0.1,0.1-0.1,0.1-0.1,0.2c0,0,0,0,0,0.1c0,0,0,0.1,0,0.1c0,0,0,0.1-0.1,0.1s-0.1,0.1-0.1,0.1
		c0,0,0,0.1,0,0.2c0,0.2,0,0.2-0.1,0.3v0.1c-0.1,0.1-0.1,0.2-0.1,0.5c-0.1,0.1-0.1,0.1-0.1,0.1c0,0,0,0.1,0,0.2c0,0.1,0,0.1-0.1,0.2
		c-0.1,0.1-0.1,0.1-0.1,0.2c0,0,0,0.1,0,0.1c0,0.1,0,0.1,0,0.1c0,0,0,0.1-0.1,0.1c0,0-0.1,0.1-0.1,0.1c0,0,0,0.1,0,0.2
		c0,0.1,0,0.2,0,0.2l-0.1,0.3c0,0,0,0.1,0,0.2c0,0,0,0.1,0,0.1l-0.1,0.3c-0.1,0-0.1,0.1-0.1,0.3s-0.1,0.2-0.1,0.3c0,0.1,0,0.1,0,0.1
		c-0.1,0.2-0.2,0.3-0.1,0.4c0,0-0.1,0.1-0.1,0.2c0,0.1-0.1,0.2-0.1,0.2l-0.1,0.3c0,0,0,0.1,0,0.1c0,0,0,0.1,0,0.1s0,0,0,0.1
		c0,0,0,0.1,0,0.1c0,0,0,0,0,0.1c0,0,0,0.1,0,0.1c0,0,0,0.1,0,0.1c-0.1,0.2-0.1,0.4-0.1,0.5c0,0.1,0,0.1-0.1,0.2
		c-0.1,0.1-0.1,0.2-0.1,0.2c0,0,0,0.1,0,0.1c0,0,0,0.1,0,0.1c0,0,0,0.1,0,0.2c0,0.1,0,0.2,0,0.2c0,0-0.1,0-0.1,0.1
		c0,0-0.1,0.1-0.1,0.2c0,0,0,0.1,0,0.2c0,0.1,0,0.2,0,0.2c0,0-0.1,0.1-0.1,0.2c-0.1,0.1-0.2,0.3-0.1,0.4c-0.1,0-0.1,0.1-0.1,0.3
		c0,0.2-0.1,0.2-0.1,0.3c0,0.3,0,0.5-0.1,0.6c0,0.1,0,0.2-0.1,0.3C39,52,39,52,39,52c0,0,0,0.1,0,0.1c0,0,0,0.1,0,0.1
		c0,0,0,0.1,0,0.1c0,0.2,0.2,0.2,0.4,0c0,0,0,0,0.1,0c0.1,0,0.2,0,0.2,0c0,0,0.1,0,0.1,0c0,0,0,0,0.1,0c0,0,0.1,0,0.1,0
		c0,0,0.1,0,0.1,0c0,0,0.1,0,0.1,0c0.4,0,0.7,0,0.8-0.1c0.2,0.1,0.3,0.1,0.6,0c0,0,0.1,0,0.1,0c0,0,0.1-0.1,0.1-0.1c0,0,0.1,0,0.1,0
		s0.1,0,0.1,0c0.3,0,0.4,0,0.5,0c0,0,0.1,0,0.1,0c0,0,0.1,0,0.1,0c0.1,0.1,0.3,0.2,0.5,0.1l0.1-0.1c0.1,0,0.2,0,0.4,0
		c0.2,0,0.3,0,0.4,0c0.1-0.1,0.1-0.1,0.1-0.1c0.1,0,0.1,0,0.1,0l0.1-0.1c0,0,0.1,0,0.1,0c0.1,0,0.1,0,0.1,0c0,0,0.1,0,0.2-0.1
		c0.1-0.1,0.1-0.1,0.1-0.1c0,0,0-0.1,0-0.1c0-0.1,0-0.1,0-0.1c0,0,0,0,0-0.1c0,0,0-0.1,0-0.1c0,0,0,0,0-0.1c0,0,0-0.1,0-0.1
		c-0.1-0.3-0.1-0.6-0.1-0.8c0,0-0.1,0-0.1,0c0,0,0-0.1,0-0.1c0-0.1,0-0.2,0-0.3c0,0,0,0,0-0.1c0-0.1,0-0.1,0-0.1c0,0,0,0,0-0.1
		c0,0,0-0.1,0-0.1c0,0,0-0.1,0-0.2c0-0.1,0-0.1-0.1-0.2c0-0.1-0.1-0.1-0.1-0.2c0,0,0-0.1,0-0.2c0-0.1,0-0.1,0-0.1
		c0,0-0.1-0.1-0.1-0.2c0-0.1-0.1-0.2-0.1-0.3c-0.1,0-0.1-0.1-0.1-0.2c0-0.1,0-0.2,0-0.3c0-0.1,0-0.2-0.1-0.3s-0.1-0.2-0.1-0.3l0-0.3
		c0,0,0-0.1,0-0.1s0-0.1,0-0.1c0,0,0-0.1,0-0.1c0,0,0-0.1,0-0.1c0,0,0-0.1,0-0.2s0-0.2,0-0.2c0,0,0-0.1,0-0.2c0-0.1,0-0.2,0-0.3
		c0,0-0.1-0.2-0.2-0.4c-0.1-0.1-0.1-0.1-0.1-0.1c0,0,0-0.1,0-0.2c0,0,0-0.1-0.1-0.1c0,0-0.1-0.1-0.1-0.1c0,0,0-0.1,0-0.1
		c0,0,0-0.1,0-0.1c0-0.2,0-0.2,0-0.3c0,0,0-0.1-0.1-0.1c-0.1-0.1-0.1-0.1-0.1-0.2c0,0,0-0.1,0-0.1c0,0,0-0.1,0-0.1
		c0,0,0-0.1-0.1-0.1c0,0,0-0.1,0-0.1c0,0,0-0.1,0-0.2c0-0.1,0-0.2,0-0.2c0,0,0-0.1,0-0.1c0,0-0.1-0.1-0.1-0.1c0,0,0-0.1,0-0.2
		c0,0,0-0.1,0-0.3s0-0.2,0-0.3C43,41.9,43,41.7,43,41.3C42.9,41.2,42.8,41.1,42.8,40.7L42.8,40.7z M42.7,40.8
		C42.6,40.9,42.6,40.9,42.7,40.8c-0.1,0.1-0.1,0.1-0.1,0.1c0,0,0,0.1,0,0.2c0,0.1,0,0.1,0,0.2c-0.1,0.1-0.1,0.1-0.1,0.2
		c0,0,0,0,0,0.1c0,0,0,0.1,0,0.1c0,0,0,0.1-0.1,0.1s-0.1,0.1-0.1,0.1c0,0,0,0.1,0,0.2c0,0.2,0,0.2-0.1,0.3v0.1
		c-0.1,0.1-0.1,0.2-0.1,0.5c-0.1,0.1-0.1,0.1-0.1,0.1c0,0,0,0.1,0,0.2c0,0.1,0,0.1-0.1,0.2c-0.1,0.1-0.1,0.1-0.1,0.2
		c0,0,0,0.1,0,0.1c0,0.1,0,0.1,0,0.1c0,0,0,0.1-0.1,0.1c0,0-0.1,0.1-0.1,0.1c0,0,0,0.1,0,0.2c0,0.1,0,0.2,0,0.2l-0.1,0.3
		c0,0,0,0.1,0,0.2c0,0,0,0.1,0,0.1l-0.1,0.3c-0.1,0-0.1,0.1-0.1,0.3s-0.1,0.2-0.1,0.3c0,0.1,0,0.1,0,0.1c-0.1,0.2-0.2,0.3-0.1,0.4
		c0,0-0.1,0.1-0.1,0.2c0,0.1-0.1,0.2-0.1,0.2l-0.1,0.3c0,0,0,0.1,0,0.1c0,0,0,0.1,0,0.1s0,0,0,0.1c0,0,0,0.1,0,0.1c0,0,0,0,0,0.1
		c0,0,0,0.1,0,0.1c0,0,0,0.1,0,0.1c-0.1,0.2-0.1,0.4-0.1,0.5c0,0.1,0,0.1-0.1,0.2c-0.1,0.1-0.1,0.2-0.1,0.2c0,0,0,0.1,0,0.1
		c0,0,0,0.1,0,0.1c0,0,0,0.1,0,0.2c0,0.1,0,0.2,0,0.2c0,0-0.1,0-0.1,0.1c0,0-0.1,0.1-0.1,0.1c0,0.1,0,0.1,0,0.3c0,0.1,0,0.2,0,0.2
		c0,0-0.1,0.1-0.1,0.2c-0.1,0.1-0.2,0.3-0.1,0.4c-0.1,0-0.1,0.1-0.1,0.3c0,0.2-0.1,0.2-0.1,0.3c0,0.3,0,0.5-0.1,0.6
		c0,0.1,0,0.2-0.1,0.3C39,52,39,52,39,52c0,0,0,0.1,0,0.1c0,0,0,0.1,0,0.1c0,0,0,0.1,0,0.1c0,0.2,0.2,0.2,0.4,0c0,0,0.1,0,0.3,0
		c0,0,0.1,0,0.1,0c0,0,0,0,0.1,0c0,0,0.1,0,0.1,0c0,0,0.1,0,0.1,0c0,0,0.1,0,0.1,0c0.4,0,0.7,0,0.8-0.1c0.2,0.1,0.3,0.1,0.6,0
		c0,0,0.1,0,0.1,0c0,0,0.1-0.1,0.1-0.1c0,0,0.1,0,0.1,0s0.1,0,0.1,0c0.3,0,0.4,0,0.5,0c0,0,0.1,0,0.1,0c0,0,0.1,0,0.1,0
		c0.1,0.1,0.3,0.2,0.5,0.1l0.1-0.1c0.1,0,0.2,0,0.4,0c0.2,0,0.3,0,0.4,0c0.1-0.1,0.1-0.1,0.1-0.1c0.1,0,0.1,0,0.1,0l0.1-0.1
		c0,0,0.1,0,0.1,0c0.1,0,0.1,0,0.1,0c0,0,0.1,0,0.2-0.1c0.1-0.1,0.1-0.1,0.1-0.1c0,0,0-0.1,0-0.1c0-0.1,0-0.1,0-0.1c0,0,0,0,0-0.1
		c0,0,0-0.1,0-0.1c0,0,0,0,0-0.1c0,0,0-0.1,0-0.1c-0.1-0.3-0.1-0.6-0.1-0.8c0,0-0.1,0-0.1,0c0,0,0-0.1,0-0.1c0-0.1,0-0.2,0-0.3
		c0,0,0,0,0-0.1c0-0.1,0-0.1,0-0.1c0,0,0,0,0-0.1c0,0,0-0.1,0-0.1c0,0,0-0.1,0-0.2c0-0.1,0-0.1-0.1-0.2c0-0.1-0.1-0.1-0.1-0.2
		c0,0,0-0.1,0-0.2c0-0.1,0-0.1,0-0.1c0,0-0.1-0.1-0.1-0.2c0-0.1-0.1-0.2-0.1-0.3c-0.1,0-0.1-0.1-0.1-0.2c0-0.1,0-0.2,0-0.3
		c0-0.1,0-0.2-0.1-0.3s-0.1-0.2-0.1-0.3l0-0.3c0,0,0-0.1,0-0.1s0-0.1,0-0.1c0,0,0-0.1,0-0.1c0,0,0-0.1,0-0.1c0,0,0-0.1,0-0.2
		s0-0.2,0-0.2c0,0,0-0.1,0-0.2c0-0.1,0-0.2,0-0.3c0,0-0.1-0.2-0.2-0.4c-0.1-0.1-0.1-0.1-0.1-0.1c0,0,0-0.1,0-0.2c0,0,0-0.1-0.1-0.1
		c0,0-0.1-0.1-0.1-0.1c0,0,0-0.1,0-0.1c0,0,0-0.1,0-0.1c0-0.2,0-0.2,0-0.3c0,0,0-0.1-0.1-0.1c-0.1-0.1-0.1-0.1-0.1-0.2
		c0,0,0-0.1,0-0.1c0,0,0-0.1,0-0.1c0,0,0-0.1-0.1-0.1c0,0,0-0.1,0-0.1c0,0,0-0.1,0-0.2c0-0.1,0-0.2,0-0.2c0,0,0-0.1,0-0.1
		c0,0-0.1-0.1-0.1-0.1c0,0,0-0.1,0-0.2c0,0,0-0.1,0-0.3s0-0.2,0-0.3C43,41.9,43,41.7,43,41.3c-0.1,0-0.2-0.2-0.2-0.6h0
		C42.8,40.7,42.7,40.8,42.7,40.8z M44.4,55.1C44.3,55.1,44.3,55.1,44.4,55.1C44.4,55,44.4,55,44.4,55.1z M44.3,55
		C44.4,55,44.4,55,44.3,55C44.3,55.1,44.3,55.1,44.3,55z M44.8,36.4C44.8,36.4,44.9,36.4,44.8,36.4C44.9,36.4,44.9,36.5,44.8,36.4
		C44.9,36.5,44.8,36.5,44.8,36.4z M44.9,36.4c0,0,0,0.1,0,0.1C44.9,36.5,44.8,36.5,44.9,36.4C44.8,36.4,44.9,36.4,44.9,36.4z"/>
	<path fill="#D93427" d="M68.6,43.2C68.6,43.2,68.6,43.1,68.6,43.2C68.6,43.1,68.6,43.1,68.6,43.2c0,0,0.1,0,0.1,0
		c0.1,0,0.2,0,0.2-0.1c0,0,0.1,0,0.1,0.1c0.1,0.1,0.1,0.1,0.2,0.1c0,0.1,0.1,0.1,0.3,0.1c0.1,0,0.2,0,0.2,0c0.1,0.1,0.1,0.2,0.1,0.2
		c0.1,0,0.2,0,0.3,0.1c0.1,0.1,0.2,0.1,0.2,0.1c0.1,0,0.2,0,0.2,0c0,0,0,0,0,0.1s0,0.1,0,0.1c0,0,0,0,0.1,0c0,0,0.1,0,0.1,0
		c0,0,0,0,0,0.1c0,0,0,0.1,0,0.1c0,0,0,0,0.1,0c0,0,0.1,0,0.1,0c0,0,0,0.1,0,0.2c0,0.1,0,0.2,0,0.2l0,0.1c0,0.1,0,0.1,0.1,0.2
		c0.1,0.1,0.1,0.2,0.1,0.2c0,0.1,0.1,0.1,0.3,0.1c0,0.2,0,0.4-0.2,0.4c0,0,0,0.1,0,0.2c0,0.1,0,0.1,0,0.2c-0.2,0.1-0.2,0.3-0.1,0.5
		c0,0,0,0.1,0,0.1c0,0,0,0.1,0,0.2c-0.1,0-0.2,0-0.2,0.1c0.1,0.2,0.1,0.4,0,0.5c-0.1,0-0.2,0.1-0.2,0.2c0,0.2-0.1,0.2-0.2,0.3
		c0,0,0,0.1,0,0.2c0,0.1,0,0.2,0,0.2c-0.1,0.1-0.2,0.2-0.3,0.5c-0.1,0.2-0.2,0.4-0.3,0.4c0,0,0,0.1,0,0.1c0,0,0.1,0,0.1,0
		c0,0.1,0,0.1-0.1,0.2C70,49.4,70,49.4,70,49.5c0,0-0.1,0.1-0.1,0.1c-0.1,0-0.2,0-0.2,0.1c0,0.1,0,0.1,0,0.1
		c-0.2,0.2-0.3,0.5-0.3,0.8c-0.1,0-0.1,0.1-0.1,0.3c0,0.1-0.1,0.2-0.1,0.2c0,0,0,0.1,0,0.2c0,0,0,0.1,0,0.2c0,0.2,0,0.2-0.1,0.3
		c0,0.1,0,0.2-0.1,0.3c-0.1,0-0.1,0.1-0.1,0.1c0,0.1,0.1,0.1,0.1,0.1c0,0.1-0.1,0.2-0.3,0.3s-0.2,0.3-0.2,0.4c0,0,0,0.1,0,0.1
		c0,0,0,0.1,0,0.1h-0.1c-0.1,0.1-0.2,0.2-0.1,0.5c0,0-0.1,0-0.1,0c0,0-0.1,0.1-0.1,0.1c0,0,0,0,0,0.1c0,0,0,0.1,0,0.1c0,0,0,0,0,0.1
		c0,0-0.1,0.1-0.1,0.1c0,0,0,0.1,0,0.1c0,0.1,0,0.1,0,0.1c0,0,0,0.1-0.1,0.2c-0.1,0.1-0.1,0.1-0.1,0.2c0,0,0,0.1,0,0.1
		c0,0.1,0,0.1,0,0.1c0,0,0,0,0,0.1c0,0,0,0.1,0,0.1c0,0,0,0.1,0,0.1c0,0.1,0,0.1,0,0.1c0,0,0,0.1,0,0.1c0,0.1,0,0.1,0,0.1
		c-0.1,0-0.2,0.1-0.2,0.2c0,0.1,0,0.1,0,0.1c0,0,0,0.1-0.1,0.1c0,0,0,0.1,0,0.1c0,0,0,0.1,0,0.2c0,0.2,0,0.2-0.1,0.3
		c0,0.2,0,0.4-0.1,0.6c-0.1,0.2-0.2,0.4-0.2,0.6c0,0,0,0.1-0.1,0.1c0,0.1,0,0.2,0,0.3c-0.1,0.1-0.1,0.1-0.1,0.2c0,0,0,0.1,0,0.1
		c0,0,0,0.1,0,0.1l0,0.3c-0.2,0-0.2,0.2-0.1,0.5c-0.2,0.1-0.2,0.2-0.1,0.5L66,60.1c0,0.1,0,0.1,0,0.2c0.1,0.1,0.1,0.2,0,0.2
		c0,0,0,0,0-0.1c-0.1,0-0.1,0.1-0.1,0.2c0,0.1,0,0.2,0,0.3c-0.1,0-0.2,0-0.2,0.1c0,0.3,0.1,0.4,0.2,0.4c0,0.1,0,0.2,0,0.2l-0.1,0v0
		c0,0,0,0,0.1,0s0.1,0,0.1,0c0,0,0,0.1,0,0.1c0,0.1,0,0.1,0,0.1c-0.1,0-0.2,0-0.2,0c0,0-0.1,0-0.2,0.1c0,0.1,0,0.1,0,0.1
		c0,0,0,0.1,0,0.1c0,0-0.1,0-0.1,0c0,0-0.1,0-0.1,0c0,0.1-0.1,0.2-0.2,0.3c0,0-0.1,0-0.1,0c-0.1,0-0.2,0.1-0.1,0.2c0,0-0.1,0-0.1,0
		c-0.2,0.1-0.2,0.1-0.2,0.2v0c-0.1,0-0.1-0.1-0.1-0.2c0,0-0.1,0-0.1,0v0.1c-0.2,0.1-0.3,0-0.4,0c0,0-0.1,0-0.2,0c-0.1,0-0.1,0-0.2,0
		c-0.1,0.1-0.2,0.1-0.2,0.1c0-0.1-0.1-0.2-0.1-0.3s-0.1-0.1-0.3-0.1c-0.1-0.1-0.1-0.1-0.2-0.1c0-0.2,0-0.3-0.2-0.5v-0.1
		c-0.2-0.2-0.3-0.3-0.4-0.4c0,0-0.1,0-0.1,0H62c0-0.3,0-0.5-0.2-0.7c0,0-0.1,0-0.1,0c0,0,0,0-0.1,0c0,0-0.1-0.1-0.1-0.2
		c0-0.1,0-0.2-0.1-0.2h-0.1c0-0.1,0-0.1-0.1-0.2c-0.1-0.1-0.1-0.2-0.1-0.3c-0.2-0.1-0.3-0.2-0.5-0.4c0-0.2-0.1-0.3-0.3-0.4
		c-0.1-0.1-0.1-0.1-0.1-0.2c0-0.1,0-0.2-0.1-0.2c-0.1,0.1-0.2,0.1-0.3,0c0-0.2,0-0.3-0.1-0.4c0-0.1,0-0.2-0.1-0.4
		c-0.1,0-0.1,0-0.2,0c0,0-0.1,0.1-0.1,0.1h0c0,0,0-0.1,0-0.1c0,0,0-0.1,0-0.1c0,0,0-0.1-0.1-0.3c0-0.1-0.1-0.2-0.3-0.2
		c0,0,0-0.1,0-0.1c0-0.1,0-0.1,0-0.1c0,0,0,0-0.1-0.1c-0.1,0-0.1-0.1-0.1-0.2c-0.2-0.4-0.4-0.7-0.7-0.9V56c-0.2-0.1-0.3-0.2-0.3-0.2
		c0-0.2-0.1-0.4-0.2-0.5v-0.1c-0.2-0.2-0.4-0.3-0.5-0.3c0,0,0-0.1,0-0.2c0-0.2,0-0.3-0.1-0.3c0,0-0.1,0-0.1,0c0,0-0.1,0-0.1,0
		c0,0,0-0.1,0-0.2c0-0.1,0-0.1,0-0.2c-0.1-0.1-0.2-0.2-0.2-0.2h-0.1c0-0.1,0-0.2,0-0.3c0,0,0-0.1,0-0.1l0,0c0,0,0-0.1,0-0.1
		c0,0,0,0,0-0.1c0,0-0.1,0-0.2,0c-0.1,0-0.1,0-0.2,0c0-0.2,0-0.2,0-0.3s0,0,0,0c0,0-0.1,0-0.1,0c0-0.1,0-0.2,0-0.3c0,0-0.1,0-0.1,0
		c0,0,0-0.1,0-0.1c0-0.1,0-0.1,0-0.1c0,0,0,0-0.1,0c-0.1-0.1-0.1-0.1,0-0.2c0.1-0.1,0.1-0.2,0.1-0.2c0,0-0.1-0.1-0.2-0.2
		c-0.1-0.1-0.2-0.1-0.2-0.2v-0.1c0,0,0-0.1-0.1-0.1c0,0-0.1-0.1-0.1-0.1c0-0.1,0-0.1-0.1-0.2c0-0.1-0.1-0.1-0.1-0.2
		c-0.1-0.1-0.2-0.3-0.3-0.6c0,0-0.1-0.1-0.2-0.1c0,0,0-0.1,0.1-0.1c0,0-0.1-0.1-0.1-0.3c0-0.2-0.1-0.3-0.1-0.4c0,0-0.1,0-0.3,0
		c0.1-0.2,0.1-0.3,0-0.4c0,0,0-0.1-0.1-0.1c0-0.2-0.1-0.3-0.2-0.4c0-0.1,0-0.1-0.1-0.2c-0.1-0.1-0.1-0.2-0.1-0.3c0,0,0-0.1-0.1-0.1
		s-0.1,0-0.1,0c0,0,0-0.1,0-0.1c0-0.1,0-0.1,0-0.1s0-0.1-0.1-0.1c0,0-0.1-0.1-0.1-0.1s0-0.1,0-0.2c0-0.1,0-0.2,0-0.2
		c0,0-0.1,0-0.1,0c0,0-0.1,0-0.1,0v-0.1c0-0.1,0-0.1,0-0.1c0,0,0,0-0.1,0c0-0.1,0-0.2,0-0.4c0,0,0,0,0.1,0c0,0,0.1,0,0.1,0
		c0,0,0-0.1,0-0.2c0,0,0.1-0.1,0.1-0.2c0-0.1,0.1-0.1,0.1-0.2c0,0,0.1,0,0.1,0c0.1,0,0.2-0.1,0.2-0.2c0,0,0.1-0.1,0.1-0.2
		c0.1-0.1,0.1-0.1,0.2-0.1c0-0.1,0-0.2,0.1-0.3c0.1,0,0.1,0,0.2,0c0.2,0,0.3,0.1,0.3,0.2h0.5l0,0c0.1,0.1,0.2,0.1,0.2,0.1
		c0.1,0.1,0.2,0.2,0.3,0.4c0.2,0.1,0.2,0.2,0.3,0.3c0.1,0,0.2,0,0.3,0.1c-0.1,0.1,0,0.2,0.2,0.2c0.1,0.2,0,0.3-0.1,0.4
		c0,0,0.1,0.1,0.2,0.2c0,0.2,0.1,0.4,0.3,0.6c-0.1,0.2,0,0.3,0.1,0.3c0,0.1,0,0.2,0,0.3c0,0.1,0.1,0.2,0.1,0.3c0,0,0,0.1,0.1,0.1
		c0,0,0.1,0.1,0.1,0.1c0,0.1,0,0.2,0,0.2c0,0,0.1,0.1,0.1,0.1c0.1,0.1,0.1,0.1,0.1,0.1c0.1,0,0.1,0,0.1,0c0,0,0,0.1,0,0.1
		c0,0,0,0,0,0.1c0,0,0,0.1,0,0.2c0,0.1,0,0.1,0,0.2c0,0,0,0.1,0,0.1c0,0,0.1,0,0.1,0l0.3,0.3c0,0,0,0.1,0,0.1c0,0,0,0.1,0,0.1
		c0,0,0,0.1,0.1,0.1c0.1,0.1,0.1,0.1,0,0.2c0.1,0.1,0.2,0.1,0.2,0.1c0,0,0.1,0.3,0.3,0.7c0,0,0,0.1,0.1,0.1c0,0.1,0,0.1,0.1,0.2
		c0,0.1,0.1,0.1,0.1,0.2c0,0.1,0.1,0.1,0.1,0.1c0.2,0.3,0.3,0.5,0.3,0.5c0,0.1,0,0.1,0.1,0.2c0,0.1,0.1,0.1,0.1,0.2
		c0.1,0.1,0.2,0.2,0.2,0.3c0,0.1,0,0.2,0.1,0.3c0.1,0,0.2,0.1,0.3,0.1c0.1,0.1,0,0.2,0,0.3c0,0,0.1,0,0.1,0c0,0,0.1,0,0.1,0
		c0,0,0,0.1,0,0.1c0,0.1,0,0.1,0,0.2c0,0,0.1,0,0.1,0c0,0,0.1,0,0.2,0c0.1,0.4,0.2,0.6,0.2,0.6c0,0,0,0.1,0,0.1
		c0.2,0.2,0.2,0.2,0.2,0.3l0-0.1c0,0,0.1,0,0.1,0.1c0,0.1,0,0.1,0.1,0.1c0,0.1,0,0.1,0.1,0.2c0.1,0.1,0.1,0.1,0.1,0.2
		c0,0,0.1,0,0.1,0c0,0.2,0.1,0.2,0.3,0.2c0,0.1,0,0.1,0,0.1c0,0,0,0,0.1,0.1c0,0.2,0,0.3,0,0.3c0.2,0.1,0.3,0.1,0.3,0.1
		c0,0,0,0.1,0,0.2c0,0.1,0.1,0.2,0.1,0.2c0,0,0.1,0,0.1,0c0,0,0,0,0.1,0c0,0.3,0.2,0.6,0.4,0.8c0.1,0,0.2,0,0.2,0v-0.2
		c0-0.1,0.1-0.2,0.3-0.4v-0.1c0.1-0.1,0.2-0.2,0.1-0.4c0,0,0.1-0.1,0.1-0.1c0,0,0-0.1,0.1-0.1c0.1,0,0.1-0.1,0.1-0.1
		c0,0,0-0.1,0-0.1c0,0,0-0.1,0.1-0.2c0.1-0.1,0.1-0.2,0-0.3c0,0,0-0.1,0-0.1c0-0.1,0-0.2,0-0.3c0.2,0,0.3,0,0.2-0.2
		c0.1-0.1,0.1-0.1,0.1-0.1c0-0.1,0-0.2,0-0.3c0.1-0.1,0.1-0.2,0.1-0.2c0.1,0,0.1-0.1,0.1-0.1c0-0.1,0-0.2,0.1-0.3
		c0.1-0.2,0.1-0.3,0-0.4c0.1-0.1,0.1-0.2,0.1-0.3c0,0,0-0.1,0-0.1c0,0,0-0.1,0-0.1c0,0,0.1-0.1,0.2-0.1c0-0.1,0.1-0.2,0.2-0.3
		c0-0.2,0.1-0.3,0.1-0.3c0,0,0-0.1,0-0.1c0-0.1,0-0.1,0-0.1c0,0,0.1,0,0.1,0c0,0,0,0,0.1,0c0,0,0-0.1,0.1-0.2c0-0.1,0.1-0.1,0.1-0.2
		c0-0.1,0-0.1,0-0.2c0-0.1,0-0.2,0-0.3l0-0.1c0-0.1,0-0.1,0-0.1c0.1-0.3,0.2-0.5,0.2-0.6l0.1,0c0-0.1,0.1-0.2,0.2-0.3
		c0.2-0.1,0.2-0.3,0.1-0.4c0-0.1,0.1-0.2,0.1-0.3c0.1-0.1,0.1-0.2,0.1-0.3c0,0,0.1-0.1,0.2-0.1c0,0,0-0.2,0-0.5c0,0,0-0.1,0-0.1
		c0,0,0-0.1,0-0.1c0,0,0-0.1,0-0.1s0-0.1,0-0.1c0,0,0.1-0.1,0.2-0.2c0,0,0,0,0,0l0,0c0,0,0-0.1,0-0.2c0-0.1,0-0.2,0-0.2
		c-0.1-0.1-0.1-0.2-0.1-0.2c0.2-0.1,0.3-0.1,0.4-0.2c0,0,0-0.1,0-0.2c0-0.1,0-0.2,0-0.2c0,0,0-0.1,0.1-0.1c0,0,0-0.1-0.1-0.1
		c0,0-0.1-0.1-0.1-0.1c0,0,0.1-0.1,0.2-0.2c0-0.1,0-0.2,0-0.5c0-0.2,0-0.4,0-0.5c0,0,0.1-0.1,0.1-0.1c0,0,0.1-0.1,0.1-0.1l-0.1-0.1
		c-0.1-0.1-0.1-0.2,0-0.3c0.1-0.1,0.1-0.2,0.1-0.2l0-0.2c-0.1-0.1-0.1-0.2,0-0.3h0.3C68.2,43.6,68.3,43.4,68.6,43.2
		C68.6,43.3,68.6,43.2,68.6,43.2z M68.9,43.1c0,0,0.1,0,0.1,0.1c0.1,0.1,0.1,0.1,0.2,0.1c0,0.1,0.1,0.1,0.3,0.1c0.1,0,0.2,0,0.2,0
		c0.1,0.1,0.1,0.2,0.1,0.2c0.1,0,0.2,0,0.3,0.1c0.1,0.1,0.2,0.1,0.2,0.1c0.1,0,0.2,0,0.2,0c0,0,0,0,0,0.1s0,0.1,0,0.1c0,0,0,0,0.1,0
		c0,0,0.1,0,0.1,0c0,0,0,0.1,0,0.1c0,0,0.1,0,0.1,0c0,0,0.1,0,0.1,0c0,0,0,0.1,0,0.2c0,0.1,0,0.2,0,0.2l0,0.1c0,0.1,0,0.1,0.1,0.2
		c0.1,0.1,0.1,0.2,0.1,0.2c0,0.1,0.1,0.1,0.3,0.1c0,0.2,0,0.4-0.2,0.4c0,0,0,0.1,0,0.2c0,0.1,0,0.1,0,0.2c-0.2,0.1-0.2,0.3-0.1,0.5
		c0,0,0,0.1,0,0.1c0,0,0,0.1,0,0.2c-0.1,0-0.2,0-0.2,0.1c0.1,0.2,0.1,0.4,0,0.5c-0.1,0-0.2,0.1-0.2,0.2c0,0.2-0.1,0.2-0.2,0.3
		c0,0,0,0.1,0,0.2c0,0.1,0,0.2,0,0.2c-0.1,0.1-0.2,0.2-0.3,0.5c-0.1,0.2-0.2,0.4-0.3,0.4c0,0,0,0.1,0,0.1c0,0,0.1,0,0.1,0
		c0,0.1,0,0.1-0.1,0.2C70,49.4,70,49.4,70,49.5c0,0-0.1,0.1-0.1,0.1c-0.1,0-0.2,0-0.2,0.1c0,0.1,0,0.1,0,0.1
		c-0.2,0.2-0.3,0.5-0.3,0.8c-0.1,0-0.1,0.1-0.1,0.3c0,0.1-0.1,0.2-0.1,0.2c0,0,0,0.1,0,0.2c0,0,0,0.1,0,0.2c0,0.2,0,0.2-0.1,0.3
		c0,0.1,0,0.2-0.1,0.3c-0.1,0-0.1,0.1-0.1,0.1c0,0.1,0.1,0.1,0.1,0.1c0,0.1-0.1,0.2-0.3,0.3s-0.2,0.3-0.2,0.4c0,0,0,0.1,0,0.1
		c0,0,0,0.1,0,0.1h-0.1c-0.1,0.1-0.2,0.2-0.1,0.5c0,0-0.1,0-0.1,0c0,0-0.1,0.1-0.1,0.1c0,0,0,0,0,0.1c0,0,0,0.1,0,0.1c0,0,0,0,0,0.1
		c0,0-0.1,0.1-0.1,0.1c0,0,0,0.1,0,0.1c0,0.1,0,0.1,0,0.1c0,0,0,0.1-0.1,0.2c-0.1,0.1-0.1,0.1-0.1,0.2c0,0,0,0.1,0,0.1
		c0,0.1,0,0.1,0,0.1c0,0,0,0,0,0.1c0,0,0,0.1,0,0.1c0,0,0,0.1,0,0.1c0,0.1,0,0.1,0,0.1c0,0,0,0.1,0,0.1c0,0.1,0,0.1,0,0.1
		c-0.1,0-0.2,0.1-0.2,0.2c0,0.1,0,0.1,0,0.1c0,0,0,0.1-0.1,0.1c0,0,0,0.1,0,0.1c0,0,0,0.1,0,0.2c0,0.2,0,0.2-0.1,0.3
		c0,0.2,0,0.4-0.1,0.6c-0.1,0.2-0.2,0.4-0.2,0.6c0,0,0,0.1-0.1,0.1c0,0.1,0,0.2,0,0.3c-0.1,0.1-0.1,0.1-0.1,0.2c0,0,0,0.1,0,0.1
		c0,0,0,0.1,0,0.1l0,0.3c-0.2,0-0.2,0.2-0.1,0.5c-0.2,0.1-0.2,0.2-0.1,0.5L66,60.1c0,0.1,0,0.1,0,0.2c0.1,0.1,0.1,0.2,0,0.2
		c0,0,0,0,0-0.1c-0.1,0-0.1,0.1-0.1,0.2c0,0.1,0,0.2,0,0.3c-0.1,0-0.2,0-0.2,0.1c0,0.3,0.1,0.4,0.2,0.4c0,0.1,0,0.2,0,0.2l-0.1,0v0
		c0,0,0,0,0.1,0s0.1,0,0.1,0c0,0,0,0.1,0,0.1c0,0.1,0,0.1,0,0.1c-0.1,0-0.2,0-0.2,0c0,0-0.1,0-0.2,0.1c0,0.1,0,0.1,0,0.1
		c0,0,0,0.1,0,0.1c0,0-0.1,0-0.1,0c0,0-0.1,0-0.1,0c0,0.1-0.1,0.2-0.2,0.3c0,0-0.1,0-0.1,0c-0.1,0-0.2,0.1-0.1,0.2c0,0-0.1,0-0.1,0
		c-0.2,0.1-0.2,0.1-0.2,0.2v0c-0.1,0-0.1-0.1-0.1-0.2c0,0-0.1,0-0.1,0v0.1c-0.2,0.1-0.3,0-0.4,0c0,0-0.1,0-0.2,0c-0.1,0-0.1,0-0.2,0
		c-0.1,0.1-0.2,0.1-0.2,0.1c0-0.1-0.1-0.2-0.1-0.3s-0.1-0.1-0.3-0.1c-0.1-0.1-0.1-0.1-0.2-0.1c0-0.2,0-0.3-0.2-0.5v-0.1
		c-0.2-0.2-0.3-0.3-0.4-0.4c0,0-0.1,0-0.1,0H62c0-0.3,0-0.5-0.2-0.7c0,0-0.1,0-0.1,0c0,0,0,0-0.1,0c0,0-0.1-0.1-0.1-0.2
		c0-0.1,0-0.2-0.1-0.2h-0.1c0-0.1,0-0.1-0.1-0.2c-0.1-0.1-0.1-0.2-0.1-0.3c-0.2-0.1-0.3-0.2-0.5-0.4c0-0.2-0.1-0.3-0.3-0.4
		c-0.1-0.1-0.1-0.1-0.1-0.2c0-0.1,0-0.2-0.1-0.2c0,0-0.1,0-0.1,0c0,0-0.1,0-0.2,0c0-0.2,0-0.3-0.1-0.4c0-0.1,0-0.2-0.1-0.4
		c-0.1,0-0.1,0-0.2,0c0,0-0.1,0.1-0.1,0.1h0c0,0,0-0.1,0-0.1c0,0,0-0.1,0-0.1c0,0,0-0.1-0.1-0.3c0-0.1-0.1-0.2-0.3-0.2
		c0,0,0-0.1,0-0.1c0-0.1,0-0.1,0-0.1c0,0,0,0-0.1-0.1c-0.1,0-0.1-0.1-0.1-0.2c-0.2-0.4-0.4-0.7-0.7-0.9V56c-0.2-0.1-0.3-0.2-0.3-0.2
		c0-0.2-0.1-0.4-0.2-0.5v-0.1c-0.2-0.2-0.4-0.3-0.5-0.3c0,0,0-0.1,0-0.2c0-0.2,0-0.3-0.1-0.3c0,0-0.1,0-0.1,0c0,0-0.1,0-0.1,0
		c0,0,0-0.1,0-0.2c0-0.1,0-0.1,0-0.2c-0.1-0.1-0.2-0.2-0.2-0.2h-0.1c0-0.1,0-0.2,0-0.3c0,0,0-0.1,0-0.1l0,0c0,0,0-0.1,0-0.1
		c0,0,0,0,0-0.1c0,0-0.1,0-0.2,0c-0.1,0-0.1,0-0.2,0c0-0.2,0-0.2,0-0.3s0,0,0,0c0,0-0.1,0-0.1,0c0-0.1,0-0.2,0-0.3c0,0-0.1,0-0.1,0
		c0,0,0-0.1,0-0.1c0-0.1,0-0.1,0-0.1c0,0,0,0-0.1,0c-0.1-0.1-0.1-0.1,0-0.2c0.1-0.1,0.1-0.2,0.1-0.2c0,0-0.1-0.1-0.2-0.2
		c-0.1-0.1-0.2-0.1-0.2-0.2v-0.1c0,0,0-0.1-0.1-0.1c0,0-0.1-0.1-0.1-0.1c0-0.1,0-0.1-0.1-0.2c0-0.1-0.1-0.1-0.1-0.2
		c-0.1-0.1-0.2-0.3-0.3-0.6c0,0-0.1-0.1-0.2-0.1c0,0,0-0.1,0-0.1c0,0,0,0,0.1,0c0,0-0.1-0.1-0.1-0.3c0-0.2-0.1-0.3-0.1-0.4
		c0,0-0.1,0-0.3,0c0.1-0.2,0.1-0.3,0-0.4c0,0,0-0.1-0.1-0.1c0-0.2-0.1-0.3-0.2-0.4c0-0.1,0-0.1-0.1-0.2c-0.1-0.1-0.1-0.2-0.1-0.3
		c0,0,0-0.1-0.1-0.1s-0.1,0-0.1,0c0,0,0-0.1,0-0.1c0-0.1,0-0.1,0-0.1s0-0.1-0.1-0.1c0,0-0.1-0.1-0.1-0.1s0-0.1,0-0.2
		c0-0.1,0-0.2,0-0.2c0,0-0.1,0-0.1,0c0,0-0.1,0-0.1,0v-0.1c0-0.1,0-0.1,0-0.1c0,0,0,0-0.1,0c0-0.1,0-0.2,0-0.4c0,0,0,0,0.1,0
		c0,0,0.1,0,0.1,0c0,0,0-0.1,0-0.2c0,0,0.1-0.1,0.1-0.2c0-0.1,0.1-0.1,0.1-0.2c0,0,0.1,0,0.1,0c0.1,0,0.2-0.1,0.2-0.2
		c0,0,0.1-0.1,0.1-0.2c0.1-0.1,0.1-0.1,0.2-0.1c0-0.1,0-0.2,0.1-0.3c0.1,0,0.1,0,0.2,0c0.2,0,0.3,0.1,0.3,0.2h0.5l0,0
		c0.1,0.1,0.2,0.1,0.2,0.1c0.1,0.1,0.2,0.2,0.3,0.4c0.2,0.1,0.2,0.2,0.3,0.3c0.1,0,0.2,0,0.3,0.1c-0.1,0.1,0,0.2,0.2,0.2
		c0.1,0.2,0,0.3-0.1,0.4c0,0,0.1,0.1,0.2,0.2c0,0.2,0.1,0.4,0.3,0.6c-0.1,0.2,0,0.3,0.1,0.3c0,0.1,0,0.2,0,0.3
		c0,0.1,0.1,0.2,0.1,0.3c0,0,0,0.1,0.1,0.1c0,0,0.1,0.1,0.1,0.1c0,0.1,0,0.2,0,0.2c0,0,0.1,0.1,0.1,0.1c0.1,0.1,0.1,0.1,0.1,0.1
		c0.1,0,0.1,0,0.1,0c0,0,0,0.1,0,0.1c0,0,0,0,0,0.1c0,0,0,0.1,0,0.2c0,0.1,0,0.1,0,0.2c0,0,0,0.1,0,0.1c0,0,0.1,0,0.1,0l0.3,0.3
		c0,0,0,0.1,0,0.1c0,0,0,0.1,0,0.1c0,0,0,0.1,0.1,0.1c0.1,0.1,0.1,0.1,0,0.2c0.1,0.1,0.2,0.1,0.2,0.1c0,0,0.1,0.3,0.3,0.7
		c0,0,0,0.1,0.1,0.1c0,0.1,0,0.1,0.1,0.2c0,0.1,0.1,0.1,0.1,0.2c0,0.1,0.1,0.1,0.1,0.1c0.2,0.3,0.3,0.5,0.3,0.5c0,0.1,0,0.1,0.1,0.2
		c0,0.1,0.1,0.1,0.1,0.2c0.1,0.1,0.2,0.2,0.2,0.3c0,0.1,0,0.2,0.1,0.3c0.1,0,0.2,0.1,0.3,0.1c0.1,0.1,0,0.2,0,0.3c0,0,0.1,0,0.1,0
		c0,0,0.1,0,0.1,0c0,0,0,0.1,0,0.1c0,0.1,0,0.1,0,0.2c0,0,0.1,0,0.1,0c0,0,0.1,0,0.2,0c0.1,0.4,0.2,0.6,0.2,0.6c0,0,0,0.1,0,0.1
		c0.2,0.2,0.2,0.2,0.2,0.3l0-0.1c0,0,0.1,0,0.1,0.1c0,0.1,0,0.1,0.1,0.1c0,0.1,0,0.1,0.1,0.2c0.1,0.1,0.1,0.1,0.1,0.2
		c0,0,0.1,0,0.1,0c0,0.2,0.1,0.2,0.3,0.2c0,0.1,0,0.1,0,0.1c0,0,0,0,0.1,0.1c0,0.2,0,0.3,0,0.3c0.2,0.1,0.3,0.1,0.3,0.1
		c0,0,0,0.1,0,0.2c0,0.1,0.1,0.2,0.1,0.2c0,0,0.1,0,0.1,0c0,0,0,0,0.1,0c0,0.3,0.2,0.6,0.4,0.8c0.1,0,0.2,0,0.2,0v-0.2
		c0-0.1,0.1-0.2,0.3-0.4v-0.1c0.1-0.1,0.2-0.2,0.1-0.4c0,0,0.1-0.1,0.1-0.1c0,0,0-0.1,0.1-0.1c0.1,0,0.1-0.1,0.1-0.1
		c0,0,0-0.1,0-0.1c0,0,0-0.1,0.1-0.2c0.1-0.1,0.1-0.2,0-0.3c0,0,0-0.1,0-0.1c0-0.1,0-0.2,0-0.3c0.2,0,0.3,0,0.2-0.2
		c0.1-0.1,0.1-0.1,0.1-0.1c0-0.1,0-0.2,0-0.3c0.1-0.1,0.1-0.2,0.1-0.2c0.1,0,0.1-0.1,0.1-0.1c0-0.1,0-0.2,0.1-0.3
		c0.1-0.2,0.1-0.3,0-0.4c0.1-0.1,0.1-0.2,0.1-0.3c0,0,0-0.1,0-0.1c0,0,0-0.1,0-0.1c0,0,0.1-0.1,0.2-0.1c0-0.1,0.1-0.2,0.2-0.3
		c0-0.2,0.1-0.3,0.1-0.3c0,0,0-0.1,0-0.1c0-0.1,0-0.1,0-0.1c0,0,0.1,0,0.1,0c0,0,0,0,0.1,0c0,0,0-0.1,0.1-0.2c0-0.1,0.1-0.1,0.1-0.2
		c0-0.1,0-0.1,0-0.2c0-0.1,0-0.2,0-0.3l0-0.1c0-0.1,0-0.1,0-0.1c0.1-0.3,0.2-0.5,0.2-0.6l0.1,0c0-0.1,0.1-0.2,0.2-0.3
		c0.2-0.1,0.2-0.3,0.1-0.4c0-0.1,0.1-0.2,0.1-0.3c0.1-0.1,0.1-0.2,0.1-0.3c0,0,0.1-0.1,0.2-0.1c0,0,0-0.2,0-0.5c0,0,0-0.1,0-0.1
		c0,0,0-0.1,0-0.1c0,0,0-0.1,0-0.1s0-0.1,0-0.1c0,0,0.1-0.1,0.2-0.2c0,0,0,0,0,0l0,0c0,0,0-0.1,0-0.2c0-0.1,0-0.2,0-0.2
		c-0.1-0.1-0.1-0.2-0.1-0.2c0.2-0.1,0.3-0.1,0.4-0.2c0,0,0-0.1,0-0.2c0-0.1,0-0.2,0-0.2c0,0,0-0.1,0.1-0.1c0,0,0-0.1-0.1-0.1
		c0,0-0.1-0.1-0.1-0.1c0,0,0.1-0.1,0.2-0.2c0-0.1,0-0.2,0-0.5c0-0.2,0-0.4,0-0.5c0,0,0.1-0.1,0.1-0.1c0,0,0.1-0.1,0.1-0.1l-0.1-0.1
		c-0.1-0.1-0.1-0.2,0-0.3c0.1-0.1,0.1-0.2,0.1-0.2l0-0.2c-0.1-0.1-0.1-0.2,0-0.3h0.3c0-0.2,0.1-0.4,0.4-0.5c0,0,0-0.1,0-0.1
		c0,0,0,0,0,0s0.1,0,0.1,0C68.8,43.2,68.9,43.1,68.9,43.1z M58.7,50.7L58.7,50.7C58.7,50.7,58.7,50.7,58.7,50.7
		C58.7,50.8,58.7,50.8,58.7,50.7C58.7,50.8,58.7,50.7,58.7,50.7z M58.7,50.7C58.7,50.7,58.7,50.7,58.7,50.7
		C58.7,50.8,58.7,50.8,58.7,50.7L58.7,50.7z M63.3,57.1C63.3,57.1,63.4,57.1,63.3,57.1C63.4,57.2,63.3,57.2,63.3,57.1L63.3,57.1z
		 M63.3,57.2L63.3,57.2C63.3,57.1,63.4,57.1,63.3,57.2C63.4,57.2,63.3,57.2,63.3,57.2z"/>
	<path fill="#D93427" d="M81.9,39.9c0.6,0.1,0.9,0,0.9-0.2c0,0,0.2,0,0.4,0c0,0,0,0.1,0,0.1c0,0,0,0,0,0.1c0,0,0.1,0,0.2,0
		c0.1,0,0.2,0,0.2,0.1c0.1,0,0.3,0,0.5,0.1c0.5,0,0.8,0.1,1,0.3h0.1c0.1,0.1,0.2,0.1,0.3,0.3c0.2,0.1,0.3,0.2,0.3,0.2V41
		c0.2,0.1,0.3,0.4,0.5,0.8c0,0,0.1,0.1,0.1,0.1c0.1,0.2,0,0.3,0,0.4c0,0.1,0,0.2,0,0.3c-0.1,0.1-0.1,0.2-0.1,0.2
		c-0.1,0.1-0.1,0.1-0.1,0.1c0,0.1,0,0.2-0.1,0.3c0,0.1,0,0.1,0,0.2s-0.1,0.1-0.1,0.1c0,0-0.1,0-0.1,0c0,0,0,0-0.1,0
		c0,0,0,0.1-0.1,0.1c-0.1,0-0.1,0.1-0.2,0c0,0-0.1,0.1-0.1,0.1c0,0-0.1,0.1-0.1,0.1c-0.2,0-0.2,0-0.3,0c0,0.1,0,0.1,0,0.1
		c0,0-0.1,0-0.2,0c-0.1,0-0.2,0-0.2,0c0,0-0.1,0-0.1,0c0,0-0.1,0-0.1,0c0,0,0-0.1,0.1-0.1c0,0-0.1-0.1-0.1-0.2
		c0-0.1-0.1-0.1-0.1-0.2c0,0-0.1,0.1-0.1,0.1c0,0-0.1,0-0.1,0c0-0.1,0-0.1-0.1-0.2c-0.1-0.1-0.1-0.1-0.2-0.1c0,0,0,0.1,0,0.1
		c0,0,0,0.1,0,0.1c0,0-0.1-0.1-0.1-0.1c0,0-0.1-0.1-0.1-0.1c0,0-0.1,0-0.1-0.1c0-0.2-0.2-0.3-0.6-0.3c-0.1,0-0.1,0-0.2,0.1
		c-0.1,0-0.1,0-0.2,0s-0.2,0-0.2,0c0,0-0.1,0.1-0.1,0.1c-0.1,0-0.2,0-0.5,0c-0.3,0.1-0.5,0.1-0.5,0.2c-0.2-0.1-0.3-0.1-0.4,0
		c-0.1,0-0.2,0-0.3,0c-0.1,0-0.2,0-0.3,0c0,0,0,0.1,0,0.1c-0.2,0-0.2,0-0.3,0c-0.1-0.1-0.2-0.1-0.3,0c0,0-0.1,0-0.1,0.1
		c0,0-0.1,0.1-0.1,0.1c-0.1,0-0.1,0-0.2,0c-0.1,0-0.2,0-0.2,0c0,0-0.1,0.1-0.1,0.1c0,0-0.1,0-0.1,0c-0.1,0-0.1,0-0.1,0l0,0.1
		c-0.3,0-0.5,0-0.6,0c0,0,0,0.1,0,0.1c0,0,0,0,0,0.1c-0.3-0.2-0.5-0.1-0.7,0.2c0,0-0.1,0-0.1-0.1c-0.1,0-0.1,0.1,0,0.2
		c0,0.1,0.1,0.1,0.1,0.1c0,0,0,0.1,0,0.2c0,0,0,0.1,0,0.1c0,0.1,0,0.1,0,0.1c0,0.2,0,0.2,0.1,0.2c0,0.1,0,0.2,0.1,0.4
		c0.1,0.2,0.1,0.3,0,0.3c0,0.1,0,0.2,0.1,0.3c0,0,0,0.1,0,0.1s0,0,0,0.1c0,0.1,0,0.1,0,0.2c0,0.1,0.1,0.1,0.1,0.1c0,0.7,0,1.1,0,1.1
		c-0.1,0.2-0.1,0.4,0,0.6c0,0,0,0.1,0,0.3c0,0,0,0.1-0.1,0.1c0,0.1-0.1,0.1,0,0.2c0.1,0.1,0.1,0.1,0.1,0.1c0,0,0,0.1,0,0.1
		c0,0,0,0.1,0,0.1c0,0.1,0,0.3,0,0.5c0,0.3,0,0.5,0,0.5c0,0,0,0.1,0,0.2c0,0.1,0.1,0.2,0.2,0.1c0.1,0,0.2-0.1,0.3-0.1
		c0.3,0,0.5,0,0.6-0.1c0.4,0,0.6,0,0.6,0c0.2,0,0.3,0,0.4,0c0,0,0.1,0,0.2-0.1c0.1,0,0.1-0.1,0.2-0.1s0.1,0,0.2,0
		c0.2,0,0.3,0,0.3-0.1c0.2,0.1,0.4,0,0.5,0c0,0,0.1,0,0.1,0c0,0,0.1,0,0.1,0c0,0,0.1,0,0.2,0c0.1,0,0.1,0,0.2,0c0.1,0,0.3,0,0.5,0
		c0,0,0-0.1,0-0.1c0.1,0.1,0.3,0.1,0.5,0c0.2,0,0.3-0.1,0.4-0.1c0.1,0,0.1,0,0.2,0c0.1,0,0.1-0.1,0.1-0.1c0,0,0.1,0,0.1,0
		c0,0,0,0,0.1,0.1c0,0,0.1,0,0.2-0.1c0.1-0.1,0.2-0.1,0.3-0.1c0.1-0.1,0.1-0.1,0.1-0.1c0,0,0.1,0,0.1,0.1c0.3,0,0.4,0,0.5-0.1
		c0.1,0,0.1,0,0.2,0c0.1,0,0.2,0,0.2,0c0,0,0.1,0,0.2,0.1c0.1,0,0.2,0.1,0.2,0.1c0.2,0,0.2,0.1,0.3,0.2c0.1,0,0.1,0,0.2,0
		c0,0,0.1,0,0.1,0c0,0,0,0.1,0.1,0.1c0.2,0,0.4,0,0.4,0c0,0,0,0.1,0.1,0.2c0,0,0,0.1,0,0.1c0,0.1,0.1,0.2,0.2,0.3
		c0,0.2,0.1,0.3,0.2,0.4c0,0,0,0.1-0.1,0.1c0,0.1,0,0.2-0.1,0.3c-0.1,0.1-0.1,0.2-0.1,0.3h-0.1c0,0,0,0.1,0,0.1c0,0,0,0,0,0.1
		c0,0-0.1,0-0.1,0h0l-0.1,0c0,0-0.1-0.1-0.1-0.1c0,0-0.1,0-0.1,0c0,0-0.1,0-0.1,0.1c0,0-0.1,0-0.1,0c0,0.1-0.2,0.1-0.4,0.2
		c-0.2,0.1-0.3,0.2-0.3,0.3c-0.2,0-0.5,0-0.6,0.2c0,0-0.1,0-0.1,0c0,0-0.1,0.1-0.1,0.1c0,0,0,0,0,0.1c-0.1,0-0.2,0-0.2-0.1
		c0,0-0.1,0-0.1,0c0,0,0,0.1,0,0.1c-0.1,0-0.2,0-0.3,0s-0.2,0-0.3,0c0,0-0.1,0-0.1,0.1c0,0-0.1,0.1-0.1,0.1c-0.1,0-0.2,0-0.3,0
		c-0.1,0-0.1,0.1-0.1,0.2C82.8,53,82.8,53,82.6,53c-0.1,0-0.2,0-0.3,0.1v0.1c-0.1,0-0.1,0-0.2,0c-0.1-0.1-0.2,0-0.2,0
		c0,0-0.1,0-0.2,0l0,0.2c-0.1,0-0.2,0-0.3,0c-0.1,0-0.1,0-0.2,0c-0.1,0-0.1,0.1,0,0.2l-0.2-0.1c0,0-0.2,0-0.5,0c0,0-0.1,0.1-0.1,0.1
		c0,0-0.1,0.1-0.1,0.1c-0.2,0-0.4,0-0.4,0l-0.1,0.2c-0.3,0-0.5,0-0.5,0c-0.1,0-0.2,0.1-0.3,0.1c0,0,0,0,0,0.1
		c-0.2,0.1-0.4,0.1-0.5,0c0,0-0.1,0-0.1,0.1S78.1,54,78.1,54S78,54,78,53.9c0,0-0.1-0.1-0.1-0.1c-0.1,0-0.1,0-0.2,0.1
		c-0.1,0-0.2,0-0.2,0c-0.1,0-0.1,0.2,0,0.5c0,0,0,0.1,0,0.1c0,0,0,0.1,0,0.1c0,0.1,0.1,0.1,0.2,0.1c0.1,0.1,0,0.2-0.1,0.3
		c0,0,0,0.1,0,0.2c0,0.1,0,0.2,0.1,0.2c0,0,0,0.1,0,0.1c0,0,0,0,0,0.1c0,0,0,0.1-0.1,0.3c0.1,0.1,0.1,0.3,0.1,0.5s0,0.5,0.1,0.6
		c-0.2,0.2-0.1,0.4,0,0.5c0,0.1,0,0.2,0,0.3c0,0,0,0.1,0,0.1c0,0,0,0.1,0,0.1c0.1,0.2,0.1,0.4,0.1,0.5c0.1,0.1,0.1,0.2,0.2,0.3
		c0.1,0.2,0.1,0.3,0.1,0.3c0.1,0,0.2,0,0.4,0.1c0.2,0,0.3,0,0.4,0c0,0,0.1,0,0.1-0.1c0.1,0,0.1,0,0.1,0.1c0.5,0,0.7-0.1,0.8-0.1
		c0.1,0,0.2,0,0.3,0c0.2,0,0.3,0,0.4,0c0.1-0.1,0.3-0.2,0.7-0.2c0,0,0,0,0-0.1s0-0.1,0-0.1c0.1,0,0.1,0,0.2,0c0.1,0,0.2,0,0.2,0
		c0,0,0.1-0.1,0.2-0.1c0.1,0,0.2-0.1,0.2-0.1c0.2,0,0.4,0,0.6-0.2c0.2-0.1,0.4-0.2,0.5-0.2c0-0.1,0.1-0.1,0.1-0.1
		c0.2,0.1,0.3,0,0.4,0c0.2,0,0.4-0.1,0.6-0.3c0.2,0,0.2,0,0.3,0c0.1-0.1,0.2-0.1,0.3-0.1c0.5,0,0.8,0,0.9,0.1c0,0,0.1,0,0.1,0
		c0,0.2,0.1,0.3,0.3,0.4c0,0,0.1,0,0.1,0c0.1,0,0.1,0.1,0.2,0.2c0,0.2,0.1,0.3,0.2,0.4c0,0.1,0,0.1,0.1,0.2c0.1,0.1,0.1,0.2,0.1,0.2
		c0,0,0,0,0,0.1c0,0.1,0,0.2,0,0.2c-0.2,0.2-0.2,0.3-0.2,0.5c-0.2,0-0.3,0.1-0.3,0.2c-0.2,0-0.3,0.1-0.4,0.5c0,0-0.1,0-0.1,0
		c0,0-0.1,0-0.1,0c0,0-0.1,0.1-0.1,0.2c0,0-0.1,0-0.1,0c0,0-0.1,0-0.1,0c0,0-0.1,0-0.1,0.1c-0.2,0-0.3,0.1-0.3,0.2H85
		c-0.2,0.2-0.3,0.2-0.5,0.1c0,0-0.1,0.1-0.1,0.2c0,0-0.1,0-0.1,0c-0.1-0.1-0.2-0.1-0.3,0c-0.1,0-0.1,0.1-0.1,0.2l-0.2,0
		c0,0,0,0,0,0.1s0,0.1,0,0.2c0,0-0.1-0.1-0.2-0.1c-0.1,0-0.2,0-0.3,0c0,0-0.1,0.1-0.1,0.1c0,0,0,0.1-0.1,0.1c0,0-0.1,0-0.1,0
		c0,0-0.1,0-0.1,0c0,0-0.1,0.1-0.1,0.2c-0.2-0.1-0.3,0-0.5,0c0,0,0,0,0,0.1c-0.2,0-0.3,0-0.3,0c-0.2,0-0.3,0.1-0.3,0.1
		c0,0-0.1,0-0.1,0c0,0-0.1,0-0.1,0c0,0-0.1,0-0.2,0c-0.1,0-0.2,0-0.2,0.1c0,0.1,0,0.1,0,0.1c0,0-0.1,0-0.3,0c-0.1,0-0.1,0-0.1,0
		c0,0,0-0.1-0.1-0.1c-0.3,0.1-0.5,0.1-0.5,0.1c0,0,0,0.1,0,0.1c-0.1,0-0.1,0-0.2,0c0,0-0.1-0.1-0.1-0.1c0,0-0.1,0.1-0.1,0.1
		c0,0-0.1,0-0.1,0s-0.1,0-0.2,0c-0.1,0-0.2,0-0.2,0c0-0.1,0-0.1,0-0.1l-0.1,0c-0.1,0-0.1,0.1-0.1,0.2c-0.2,0-0.4,0-0.6,0
		c0-0.1,0-0.2-0.1-0.2c-0.1,0-0.1,0-0.2,0c0,0,0,0.1,0,0.1c0,0.1,0,0.1,0,0.1s0,0,0-0.1c0,0,0-0.1,0-0.1h-0.2v-0.1
		c-0.1-0.1-0.2-0.1-0.3-0.1c-0.1-0.1-0.2-0.1-0.2-0.1c0,0-0.1,0-0.1-0.1c-0.1-0.1-0.1-0.2-0.1-0.2c0,0-0.1,0-0.1,0c0,0-0.1,0-0.1,0
		c0,0,0-0.1,0-0.1c0,0,0-0.1-0.1-0.1s-0.1,0-0.1,0c0,0-0.1,0-0.1,0c0-0.1,0-0.2-0.2-0.4v-0.1c-0.1-0.1-0.2-0.2-0.3-0.3h-0.1
		c-0.1-0.1-0.2-0.1-0.3-0.2c-0.1-0.1-0.2-0.2-0.2-0.3c-0.1-0.1-0.1-0.2-0.2-0.3c-0.2-0.4-0.2-0.7-0.2-0.7c0-0.1,0-0.2-0.1-0.3
		c0-0.1,0-0.2,0-0.3c0-0.1,0-0.2,0-0.2c0-0.1,0-0.1-0.1-0.2c0,0,0-0.1,0-0.1c0,0,0-0.1,0-0.1c0,0,0-0.1,0-0.3c0-0.2,0-0.3-0.1-0.3
		c0-0.1,0-0.2,0-0.4c0-0.2,0-0.3,0-0.3c0-0.4,0-1.1,0-1.9c0-0.9,0-1.5,0-1.9c0.1,0,0.2-0.1,0.2-0.2c0-0.1-0.1-0.2-0.2-0.2
		c0-0.1,0-0.2,0.1-0.3c0-0.1,0.1-0.2,0.1-0.2c-0.1-0.1-0.1-0.1-0.1-0.2c0-0.1,0-0.1,0.1-0.1c0-0.2,0-0.7,0-1.7
		c0.1,0,0.1-0.1,0.1-0.1c0-0.1,0-0.1-0.1-0.2c0.1,0,0.1-0.1,0-0.3c0-0.2-0.1-0.3,0-0.4c0,0,0-0.1,0-0.1c0.1-0.1,0-0.2,0-0.3
		c0-0.1,0-0.3,0-0.6c0-0.3,0-0.5-0.1-0.5c0.1,0,0.1-0.2,0.1-0.4c0-0.3,0-0.4,0-0.4l-0.2-0.1c0-0.2,0-0.3,0.1-0.4
		c0,0-0.1-0.1-0.1-0.1c0,0,0-0.1,0-0.1c0-0.3,0-0.5,0-0.5c0,0-0.1,0-0.1,0c0,0,0,0-0.1,0c0-0.3,0-0.6,0-0.8c-0.1,0-0.1,0-0.1,0
		c0,0,0-0.1,0-0.2c0,0,0-0.1,0-0.1c0,0,0-0.1,0-0.1c0,0,0-0.1,0-0.1c0,0,0-0.1,0-0.1c0,0-0.1-0.1-0.1-0.1c-0.1-0.1-0.1-0.2,0-0.3
		c0,0-0.1-0.1-0.1-0.1c0-0.1-0.1-0.1,0-0.2c-0.1,0-0.2-0.1-0.3-0.3c0-0.1,0-0.2,0-0.3c0-0.1,0-0.1,0-0.2c-0.1-0.1,0-0.2,0-0.3
		c0.1-0.1,0.1-0.3,0.1-0.3c0,0,0.1-0.1,0.2-0.2c0.1-0.1,0.2-0.2,0.2-0.2c0,0,0,0,0,0c0,0,0-0.1,0-0.1l0.1,0.1c0,0,0.1,0,0.2,0
		c0.1,0,0.2,0,0.2,0c0.1,0,0.1,0,0.2-0.1c0.1-0.1,0.1-0.1,0.2-0.2c0.1,0,0.2,0,0.3,0c0.1,0,0.2,0,0.3,0c0,0,0.1,0,0.1,0
		c0,0,0.1,0,0.1,0c0.2,0,0.3,0,0.4-0.1c0.5-0.1,0.7-0.2,0.7-0.2H77c0,0,0.1,0,0.1,0c0,0,0,0,0.1,0c0,0,0.1,0,0.2,0
		c0.1,0,0.1,0,0.2-0.1c0.1-0.1,0.2-0.1,0.2-0.1c0,0,0-0.1,0-0.2c0.1,0,0.1,0,0.1,0c0,0,0,0,0,0.1c0,0,0,0.1,0,0.1
		c0.2-0.1,0.4-0.1,0.5-0.2c0.1,0,0.1,0,0.2,0.1l0.3-0.1c0,0,0.1-0.1,0.3-0.2c0,0.1,0.1,0.2,0.1,0.2c0,0,0.1-0.1,0.2-0.1
		c0.1,0,0.2,0,0.2,0s0.1,0,0.1,0c0,0,0.1-0.1,0.1-0.1c0,0,0.1,0,0.2,0c0.1,0,0.2,0,0.2,0c0.2,0,0.3-0.1,0.4-0.1c0,0,0.1,0,0.1,0
		c0.1,0,0.1,0,0.1-0.1c0.1,0,0.1,0,0.2,0c0,0,0.1,0,0.2-0.1c0.1,0,0.1,0,0.2,0C81.8,40,81.8,40,81.9,39.9
		C81.9,40,81.9,39.9,81.9,39.9C81.9,39.9,81.9,39.9,81.9,39.9z M82.8,39.7c0,0,0.1,0,0.2,0c0.1,0,0.2,0,0.2,0c0,0,0,0,0,0
		c0,0,0,0,0,0.1c0,0,0.1,0,0.2,0c0.1,0,0.2,0,0.2,0.1c0.1,0,0.3,0,0.5,0.1c0.5,0,0.8,0.1,1,0.3h0.1c0.1,0.1,0.2,0.1,0.3,0.3
		c0.2,0.1,0.3,0.2,0.3,0.2V41c0.2,0.1,0.3,0.4,0.5,0.8c0,0,0.1,0,0.1,0c0,0,0,0,0,0c0.1,0.2,0,0.3,0,0.4c0,0.1,0,0.2,0,0.3
		c-0.1,0.1-0.1,0.2-0.1,0.2c-0.1,0.1-0.1,0.1-0.1,0.1c0,0.1,0,0.2-0.1,0.3c0,0.1,0,0.1,0,0.2s-0.1,0.1-0.1,0.1c0,0-0.1,0-0.1,0
		c0,0,0,0-0.1,0c0,0,0,0.1-0.1,0.1c-0.1,0-0.1,0.1-0.2,0c0,0-0.1,0.1-0.1,0.1c0,0-0.1,0.1-0.1,0.1c-0.2,0-0.2,0-0.3,0
		c0,0.1,0,0.1,0,0.1c0,0-0.1,0-0.2,0c-0.1,0-0.2,0-0.2,0c0,0-0.1,0-0.1,0c0,0-0.1,0-0.1,0c0,0,0-0.1,0.1-0.1c0,0-0.1-0.1-0.1-0.2
		c0-0.1-0.1-0.1-0.1-0.2c0,0-0.1,0.1-0.1,0.1c0,0-0.1,0-0.1,0c0-0.1,0-0.1-0.1-0.2c-0.1-0.1-0.1-0.1-0.2-0.1c0,0,0,0.1,0,0.1
		c0,0,0,0.1,0,0.1c0,0-0.1-0.1-0.1-0.1c0,0-0.1-0.1-0.1-0.1c0,0-0.1,0-0.1-0.1c0-0.2-0.2-0.3-0.6-0.3c-0.1,0-0.1,0-0.2,0.1
		c-0.1,0-0.1,0-0.2,0s-0.2,0-0.2,0c0,0-0.1,0.1-0.1,0.1c-0.1,0-0.2,0-0.5,0c-0.3,0.1-0.5,0.1-0.5,0.2c-0.2-0.1-0.3-0.1-0.4,0
		c-0.1,0-0.2,0-0.3,0c-0.1,0-0.2,0-0.3,0c0,0,0,0.1,0,0.1c-0.2,0-0.2,0-0.3,0c-0.1-0.1-0.2-0.1-0.3,0c0,0-0.1,0-0.1,0.1
		c0,0-0.1,0.1-0.1,0.1c-0.1,0-0.1,0-0.2,0c-0.1,0-0.2,0-0.2,0c0,0-0.1,0.1-0.1,0.1c0,0-0.1,0-0.1,0c-0.1,0-0.1,0-0.1,0l0,0.1
		c-0.3,0-0.5,0-0.6,0c0,0,0,0.1,0,0.1c0,0,0,0,0,0.1c-0.3-0.2-0.5-0.1-0.7,0.2c0,0-0.1,0-0.1-0.1c-0.1,0-0.1,0.1,0,0.2
		c0,0.1,0.1,0.1,0.1,0.1c0,0,0,0.1,0,0.2c0,0,0,0.1,0,0.1c0,0.1,0,0.1,0,0.1c0,0.2,0,0.2,0.1,0.2c0,0.1,0,0.2,0.1,0.4
		c0.1,0.2,0.1,0.3,0,0.3c0,0.1,0,0.2,0.1,0.3c0,0,0,0.1,0,0.1s0,0,0,0.1c0,0.1,0,0.1,0,0.2c0,0.1,0.1,0.1,0.1,0.1c0,0.7,0,1.1,0,1.1
		c-0.1,0.2-0.1,0.4,0,0.6c0,0,0,0.1,0,0.3c0,0,0,0.1-0.1,0.1c0,0.1-0.1,0.1,0,0.2c0.1,0.1,0.1,0.1,0.1,0.1c0,0,0,0.1,0,0.1
		c0,0,0,0.1,0,0.1c0,0.1,0,0.3,0,0.5c0,0.3,0,0.5,0,0.5c0,0,0,0.1,0,0.2c0,0.1,0.1,0.2,0.2,0.1c0.1,0,0.2-0.1,0.3-0.1
		c0.3,0,0.5,0,0.6-0.1c0.4,0,0.6,0,0.6,0c0.2,0,0.3,0,0.4,0c0,0,0.1,0,0.2-0.1c0.1,0,0.1-0.1,0.2-0.1s0.1,0,0.2,0
		c0.2,0,0.3,0,0.3-0.1c0.2,0.1,0.4,0,0.5,0c0,0,0.1,0,0.1,0c0,0,0.1,0,0.1,0c0,0,0.1,0,0.2,0c0.1,0,0.1,0,0.2,0c0.1,0,0.3,0,0.5,0
		c0,0,0-0.1,0-0.1c0.1,0.1,0.3,0.1,0.5,0c0.2,0,0.3-0.1,0.4-0.1c0.1,0,0.1,0,0.2,0c0.1,0,0.1-0.1,0.1-0.1c0,0,0.1,0,0.1,0
		c0,0,0,0,0.1,0.1c0,0,0.1,0,0.2-0.1c0.1-0.1,0.2-0.1,0.3-0.1c0.1-0.1,0.1-0.1,0.1-0.1c0,0,0.1,0,0.1,0.1c0.3,0,0.4,0,0.5-0.1
		c0.1,0,0.1,0,0.2,0c0.1,0,0.2,0,0.2,0c0,0,0.1,0,0.2,0.1c0.1,0,0.2,0.1,0.2,0.1c0.2,0,0.2,0.1,0.3,0.2c0.1,0,0.1,0,0.2,0
		c0,0,0.1,0,0.1,0c0,0,0,0.1,0.1,0.1c0.2,0,0.4,0,0.4,0c0,0,0,0.1,0.1,0.2c0,0,0,0.1,0,0.1c0,0.1,0.1,0.2,0.2,0.3
		c0,0.2,0.1,0.3,0.2,0.4c0,0,0,0.1-0.1,0.1c0,0.1,0,0.2-0.1,0.3c-0.1,0.1-0.1,0.2-0.1,0.3h-0.1c0,0,0,0.1,0,0.1c0,0,0,0,0,0.1
		c0,0-0.1,0-0.1,0h0l-0.1,0c0,0-0.1-0.1-0.1-0.1c0,0-0.1,0-0.1,0c0,0-0.1,0-0.1,0.1c0,0-0.1,0-0.1,0c0,0.1-0.2,0.1-0.4,0.2
		c-0.2,0.1-0.3,0.2-0.3,0.3c-0.2,0-0.5,0-0.6,0.2c0,0-0.1,0-0.1,0c0,0-0.1,0.1-0.1,0.1c0,0,0,0,0,0.1c-0.1,0-0.2,0-0.2-0.1
		c0,0-0.1,0-0.1,0c0,0,0,0.1,0,0.1c-0.1,0-0.2,0-0.3,0s-0.2,0-0.3,0c0,0-0.1,0-0.1,0.1c0,0-0.1,0.1-0.1,0.1c-0.1,0-0.2,0-0.3,0
		c-0.1,0-0.1,0.1-0.1,0.2C82.8,53,82.8,53,82.6,53c-0.1,0-0.2,0-0.3,0.1v0.1c-0.1,0-0.1,0-0.2,0c-0.1-0.1-0.2,0-0.2,0
		c0,0-0.1,0-0.2,0l0,0.2c-0.1,0-0.2,0-0.3,0c-0.1,0-0.1,0-0.2,0c-0.1,0-0.1,0.1,0,0.2l-0.2-0.1c0,0-0.2,0-0.5,0c0,0-0.1,0.1-0.1,0.1
		c0,0-0.1,0.1-0.1,0.1c-0.2,0-0.4,0-0.4,0l-0.1,0.2c-0.3,0-0.5,0-0.5,0c-0.1,0-0.2,0.1-0.3,0.1c0,0,0,0,0,0.1
		c-0.2,0.1-0.4,0.1-0.5,0c0,0-0.1,0-0.1,0.1S78.1,54,78.1,54S78,54,78,53.9c0,0-0.1-0.1-0.1-0.1c-0.1,0-0.1,0-0.2,0.1
		c-0.1,0-0.2,0-0.2,0c-0.1,0-0.1,0.2,0,0.5c0,0,0,0.1,0,0.1c0,0,0,0.1,0,0.1c0,0.1,0.1,0.1,0.2,0.1c0.1,0.1,0,0.2-0.1,0.3
		c0,0,0,0.1,0,0.2c0,0.1,0,0.2,0.1,0.2c0,0,0,0.1,0,0.1c0,0,0,0,0,0.1c0,0,0,0.1-0.1,0.3c0.1,0.1,0.1,0.2,0.1,0.5s0,0.5,0.1,0.7
		c-0.2,0.2-0.1,0.4,0,0.5c0,0.1,0,0.2,0,0.3c0,0,0,0.1,0,0.1c0,0,0,0.1,0,0.1c0.1,0.2,0.1,0.4,0.1,0.5c0.1,0.1,0.1,0.2,0.2,0.3
		c0.1,0.2,0.1,0.3,0.1,0.3c0.1,0,0.2,0,0.4,0.1c0.2,0,0.3,0,0.4,0c0,0,0.1,0,0.1-0.1c0.1,0,0.1,0,0.1,0.1c0.5,0,0.7-0.1,0.8-0.1
		c0.1,0,0.2,0,0.3,0c0.2,0,0.3,0,0.4,0c0.1-0.1,0.3-0.2,0.7-0.2c0,0,0,0,0-0.1s0-0.1,0-0.1c0.1,0,0.1,0,0.2,0c0.1,0,0.2,0,0.2,0
		c0,0,0.1-0.1,0.2-0.1c0.1,0,0.2-0.1,0.2-0.1c0.2,0,0.4,0,0.6-0.2c0.2-0.1,0.4-0.2,0.5-0.2c0-0.1,0.1-0.1,0.1-0.1
		c0.2,0.1,0.3,0,0.4,0c0.2,0,0.4-0.1,0.6-0.3c0.2,0,0.2,0,0.3,0c0.1-0.1,0.2-0.1,0.3-0.1c0.5,0,0.8,0,0.9,0.1c0,0,0.1,0,0.1,0
		c0,0.2,0.1,0.3,0.3,0.4c0,0,0.1,0,0.1,0c0.1,0,0.1,0.1,0.2,0.2c0,0.2,0.1,0.3,0.2,0.4c0,0.1,0,0.1,0.1,0.2c0.1,0.1,0.1,0.2,0.1,0.2
		c0,0,0,0,0,0.1c0,0.1,0,0.2,0,0.2c-0.2,0.2-0.2,0.3-0.2,0.5c-0.2,0-0.3,0.1-0.3,0.2c-0.2,0-0.3,0.1-0.4,0.5c0,0-0.1,0-0.1,0
		c0,0-0.1,0-0.1,0c0,0-0.1,0.1-0.1,0.2c0,0-0.1,0-0.1,0c0,0-0.1,0-0.1,0c0,0-0.1,0-0.1,0.1c-0.2,0-0.3,0.1-0.3,0.2H85
		c-0.2,0.2-0.3,0.2-0.5,0.1c0,0-0.1,0.1-0.1,0.2c0,0-0.1,0-0.1,0c-0.1-0.1-0.2-0.1-0.3,0c-0.1,0-0.1,0.1-0.1,0.2l-0.2,0
		c0,0,0,0,0,0.1s0,0.1,0,0.2c0,0-0.1-0.1-0.2-0.1c-0.1,0-0.2,0-0.3,0c0,0-0.1,0.1-0.1,0.1c0,0,0,0.1-0.1,0.1c0,0-0.1,0-0.1,0
		c0,0-0.1,0-0.1,0c0,0-0.1,0.1-0.1,0.2c-0.2-0.1-0.3,0-0.5,0c0,0,0,0,0,0.1c-0.2,0-0.3,0-0.3,0c-0.2,0-0.3,0.1-0.3,0.1
		c0,0-0.1,0-0.1,0c0,0-0.1,0-0.1,0c0,0-0.1,0-0.2,0c-0.1,0-0.2,0-0.2,0.1c0,0.1,0,0.1,0,0.1c0,0-0.1,0-0.3,0c-0.1,0-0.1,0-0.1,0
		c0,0,0-0.1-0.1-0.1c-0.3,0.1-0.5,0.1-0.5,0.1c0,0,0,0.1,0,0.1c-0.1,0-0.1,0-0.2,0c0,0-0.1-0.1-0.1-0.1c0,0-0.1,0.1-0.1,0.1
		c0,0-0.1,0-0.1,0s-0.1,0-0.2,0c-0.1,0-0.2,0-0.2,0c0-0.1,0-0.1,0-0.1l-0.1,0c-0.1,0-0.1,0.1-0.1,0.2c-0.2,0-0.4,0-0.6,0
		c0-0.1,0-0.2-0.1-0.2c-0.1,0-0.1,0-0.2,0c0,0,0,0.1,0,0.1c0,0.1,0,0.1,0,0.1s0,0,0-0.1c0,0,0-0.1,0-0.1h-0.2v-0.1
		c-0.1-0.1-0.2-0.1-0.3-0.1c-0.1-0.1-0.2-0.1-0.2-0.1c0,0-0.1,0-0.1-0.1c-0.1-0.1-0.1-0.2-0.1-0.2c0,0-0.1,0-0.1,0c0,0-0.1,0-0.1,0
		c0,0,0-0.1,0-0.1c0,0,0-0.1-0.1-0.1s-0.1,0-0.1,0c0,0-0.1,0-0.1,0c0-0.1,0-0.2-0.2-0.4v-0.1c-0.1-0.1-0.2-0.2-0.3-0.3h-0.1
		c-0.1-0.1-0.2-0.1-0.3-0.2c-0.1-0.1-0.2-0.2-0.2-0.3c-0.1-0.1-0.1-0.2-0.2-0.3c-0.2-0.4-0.2-0.7-0.2-0.7c0-0.1,0-0.2-0.1-0.3
		c0-0.1,0-0.2,0-0.3c0-0.1,0-0.2,0-0.3c0,0,0-0.1-0.1-0.1c0,0,0-0.1,0-0.1c0,0,0-0.1,0-0.1c0,0,0-0.1,0-0.3c0-0.2,0-0.3-0.1-0.3
		c0-0.1,0-0.2,0-0.4c0-0.2,0-0.3,0-0.3c0-0.4,0-1.1,0-1.9c0-0.9,0-1.5,0-1.9c0.1,0,0.2-0.1,0.2-0.2c0-0.1-0.1-0.2-0.2-0.2
		c0-0.1,0-0.2,0.1-0.3c0-0.1,0.1-0.2,0.1-0.2c-0.1-0.1-0.1-0.1-0.1-0.2c0-0.1,0-0.1,0.1-0.1c0-0.2,0-0.7,0-1.7
		c0.1,0,0.1-0.1,0.1-0.1c0-0.1,0-0.1-0.1-0.2c0.1,0,0.1-0.1,0-0.3c0-0.2-0.1-0.3,0-0.4c0,0,0-0.1,0-0.1c0.1-0.1,0-0.2,0-0.2
		c0-0.1,0-0.3,0-0.6c0-0.3,0-0.5-0.1-0.5c0.1,0,0.1-0.2,0.1-0.4c0-0.3,0-0.4,0-0.4l-0.2-0.1c0-0.2,0-0.3,0.1-0.4
		c0,0-0.1-0.1-0.1-0.1c0,0,0-0.1,0-0.1c0-0.3,0-0.5,0-0.5c0,0-0.1,0-0.1,0c0,0,0,0-0.1,0c0-0.3,0-0.6,0-0.8c-0.1,0-0.1,0-0.1,0
		c0,0,0-0.1,0-0.2c0,0,0-0.1,0-0.1c0,0,0-0.1,0-0.1c0,0,0-0.1,0-0.1c0,0,0-0.1,0-0.1c0,0-0.1-0.1-0.1-0.1c-0.1-0.1-0.1-0.2,0-0.3
		c0,0-0.1-0.1-0.1-0.1c0-0.1-0.1-0.1,0-0.2c-0.1,0-0.2-0.1-0.3-0.3c0-0.1,0-0.2,0-0.3c0-0.1,0-0.1,0-0.2c-0.1-0.1,0-0.2,0-0.3
		c0.1-0.1,0.1-0.3,0.1-0.3c0,0,0.1-0.1,0.2-0.2c0.1-0.1,0.2-0.2,0.2-0.2c0,0,0,0,0,0c0,0,0-0.1,0-0.1l0.1,0.1c0,0,0.1,0,0.2,0
		c0.1,0,0.2,0,0.2,0c0.1,0,0.1,0,0.2-0.1c0.1-0.1,0.1-0.1,0.2-0.2c0.1,0,0.2,0,0.3,0c0.1,0,0.2,0,0.3,0c0,0,0.1,0,0.1,0
		c0,0,0.1,0,0.1,0c0.2,0,0.3,0,0.4-0.1c0.5-0.1,0.7-0.2,0.7-0.2H77c0,0,0.1,0,0.1,0c0,0,0,0,0.1,0c0,0,0.1,0,0.2,0
		c0.1,0,0.1,0,0.2-0.1c0.1-0.1,0.2-0.1,0.2-0.1c0,0,0-0.1,0-0.2c0.1,0,0.1,0,0.1,0c0,0,0,0,0,0.1c0,0,0,0.1,0,0.1
		c0.2-0.1,0.4-0.1,0.5-0.2c0.1,0,0.1,0,0.2,0.1l0.3-0.1c0,0,0.1-0.1,0.3-0.2c0,0.1,0.1,0.2,0.1,0.2c0,0,0.1-0.1,0.2-0.1
		c0.1,0,0.2,0,0.2,0s0.1,0,0.1,0c0,0,0.1-0.1,0.1-0.1c0,0,0.1,0,0.2,0c0.1,0,0.2,0,0.2,0c0.2,0,0.3-0.1,0.4-0.1c0,0,0.1,0,0.1,0
		c0.1,0,0.1,0,0.1-0.1c0.1,0,0.1,0,0.2,0c0,0,0.1,0,0.2-0.1c0.1,0,0.1,0,0.2,0c0.1,0,0.1,0,0.1,0c0,0,0,0,0,0c0,0,0,0,0,0
		C82.5,40,82.8,39.9,82.8,39.7z"/>
</g>
</svg>
