<?xml version="1.0" encoding="utf-8"?>
<!-- Generator: Adobe Illustrator 19.0.1, SVG Export Plug-In . SVG Version: 6.00 Build 0)  -->
<svg version="1.1" id="Layer_1" xmlns="http://www.w3.org/2000/svg" xmlns:xlink="http://www.w3.org/1999/xlink" x="0px" y="0px"
	 viewBox="0 0 100 100" enable-background="new 0 0 100 100" xml:space="preserve">
<g>
	<path fill="#D93427" d="M24.4,43.8c0,0,0.1,0.1,0.1,0.1c0,0.1,0,0.1,0,0.1c0,0,0.1,0,0.1,0c0,0,0.1,0,0.1,0c0,0,0,0,0,0.1
		c0,0,0.1,0.1,0.1,0.1c0,0,0.1,0,0.1,0.1c0,0,0.1,0.1,0.1,0.1c0,0,0.1,0,0.1,0c0.1,0.1,0.2,0.2,0.2,0.3c0.1,0,0.2,0,0.2,0.1
		c0.1,0.1,0.1,0.1,0.1,0.1c0,0,0,0,0-0.1c0-0.1,0-0.1,0-0.1c0,0,0.1,0.1,0.1,0.2c0,0.1,0,0.1,0.1,0.1c0,0,0,0.1,0.1,0.2
		c0,0.1,0.1,0.2,0.1,0.2c0.1,0,0.2,0.1,0.3,0.1c0,0.2,0.1,0.4,0.2,0.5c0,0,0,0.1,0.1,0.1c0,0,0,0.1,0,0.1c0.1,0.2,0.1,0.3,0.2,0.3
		c0,0.2,0,0.3,0.2,0.3c0,0,0,0.1-0.1,0.1c0,0.1-0.1,0.1,0,0.2c0,0,0.1,0,0.2,0c0,0.1,0,0.1,0,0.2c-0.1,0.1-0.1,0.2,0,0.2
		c0,0,0.1,0.1,0.1,0.1c0,0,0.1,0.1,0.1,0.1c0,0.1,0,0.2,0,0.3c0,0.1,0,0.2,0,0.3c0,0,0,0.1,0.1,0.1c0.1,0,0.1,0,0.1,0.1
		c0,0.1,0,0.3,0,0.5c0,0.3,0,0.4,0,0.4c0.1,0,0.1,0,0.1,0c0,0.1,0,0.1,0,0.2c0,0.1,0,0.2,0,0.2c0,0,0,0.1-0.1,0.1c0,0-0.1,0-0.1,0.1
		c0,0,0.1,0.1,0.2,0.1c0,0.1,0,0.1,0,0.2c0,0.1,0,0.2,0,0.4c0,0.3,0,0.5,0.2,0.5c0,0.1,0,0.2-0.1,0.2c-0.1,0-0.2,0-0.3,0.1l0.1,0.1
		c-0.1,0.1-0.1,0.3-0.1,0.7c0,0.3,0,0.6-0.1,0.7c0,0,0.1,0.1,0.1,0.1c0,0,0,0.1,0,0.1c0,0,0,0.1,0,0.1c0,0,0,0.1,0,0.1
		c0,0,0,0.1,0,0.1c0,0,0,0.1,0,0.1c-0.1,0.1-0.2,0.2-0.2,0.3c0,0,0,0.1,0,0.2c0,0.1,0.1,0.2,0.1,0.2c0,0,0,0.1-0.1,0.1
		c0,0-0.1,0.1-0.1,0.1c0,0,0,0.1,0,0.1c0,0.1,0,0.1-0.1,0.1c0,0,0,0.1,0,0.1c0,0,0,0.1,0,0.1c-0.1,0.1-0.1,0.1-0.1,0.1
		c0,0,0,0.1,0,0.1c0,0,0,0,0,0.1c-0.1,0-0.1,0.1-0.1,0.3s0,0.3-0.1,0.3c0.1,0.1,0.1,0.2,0,0.4c0,0.1,0,0.2,0,0.2
		c-0.1,0.1-0.2,0.2-0.2,0.3c0,0,0,0.1,0,0.1c0,0,0,0,0,0.1c-0.1,0.1-0.1,0.1-0.1,0.1c0,0,0,0.1,0,0.1c0,0.1,0,0.1,0,0.1
		c0,0-0.1,0.1-0.1,0.2l-0.1,0.3c0,0,0,0.1,0,0.1c0,0,0,0-0.1,0.1l0,0.1c-0.1,0.1-0.1,0.2-0.1,0.3C26,58.7,26,58.9,26,59.2
		c0,0-0.1,0-0.1,0c0,0-0.1,0.1-0.1,0.1c-0.1,0-0.1,0.1-0.1,0.1c-0.1,0.2-0.3,0.5-0.7,0.8c0,0,0,0.1,0,0.1c0,0-0.1,0.1-0.1,0.1
		c0,0-0.1,0-0.1,0.1c0,0,0,0.1,0,0.2c0,0.1,0,0.1-0.1,0.2l-0.1,0c-0.1,0.1-0.2,0.2-0.4,0.4c-0.2,0.2-0.3,0.3-0.4,0.4
		c-0.1,0-0.2,0-0.2,0c0,0.1,0,0.2,0,0.2c-0.2,0.1-0.3,0.2-0.3,0.4c0,0-0.1,0-0.1,0c-0.1,0-0.2,0.1-0.2,0.2c0,0-0.1,0-0.1,0
		c-0.1,0-0.1,0-0.1,0c0,0-0.1,0.1-0.1,0.1c0,0,0,0.1,0,0.1c0,0,0,0-0.1,0c0,0-0.1,0-0.1,0.1c-0.1,0.1-0.2,0.1-0.3,0.1
		c0,0,0,0.1-0.1,0.1c-0.1,0.1-0.1,0.1-0.1,0.2c-0.3,0-0.4,0.1-0.4,0.3c-0.1-0.1-0.1-0.1-0.2,0c-0.1,0-0.1,0.1-0.1,0.2
		c0,0-0.1,0-0.1,0c0,0-0.1,0-0.1,0c-0.1,0-0.3,0-0.5,0.1c-0.2,0-0.3,0-0.4,0c-0.1,0-0.1,0-0.2,0c-0.2,0.1-0.4,0.1-0.4-0.1
		c-0.1,0-0.1,0-0.2,0c-0.1,0-0.1,0-0.2,0c0,0-0.1,0-0.1,0.1c-0.1,0-0.1,0.1-0.2,0c0,0-0.1,0-0.1,0c0,0,0,0-0.1,0c0,0,0,0-0.1,0
		c0,0-0.1,0-0.1,0c0,0-0.1-0.1-0.1-0.1c0,0-0.1,0-0.1,0c0,0-0.1,0-0.1,0.1c0-0.1,0-0.2-0.1-0.2c-0.1,0-0.2-0.1-0.2-0.1
		c0,0,0,0.1,0,0.1c0,0,0,0.1,0,0.1c0,0-0.1,0-0.1-0.2c-0.1,0-0.1,0-0.1,0c0,0-0.1,0-0.1,0c0,0,0-0.1,0-0.1c0,0-0.1,0-0.1,0
		c-0.1,0-0.1,0-0.1,0c0,0,0-0.1,0-0.1c0,0,0-0.1,0-0.1c-0.1,0-0.2,0-0.2,0c-0.1-0.2-0.2-0.3-0.3-0.2c-0.2-0.1-0.2-0.2-0.2-0.3
		c0,0-0.1,0-0.2,0c0,0-0.1-0.1-0.1-0.2c0-0.1,0-0.1-0.1-0.2l-0.1,0.1c0,0-0.1-0.1-0.1-0.2c0-0.1-0.1-0.1-0.1-0.1c0,0-0.1,0-0.1,0
		c0,0-0.1,0-0.1,0c0,0,0,0,0,0c0,0,0-0.1,0-0.1c0,0-0.1-0.1-0.1-0.2c0-0.1-0.1-0.2-0.1-0.2c0,0-0.1,0-0.3-0.2l0-0.1
		c0,0-0.1-0.1-0.2-0.2c-0.1-0.1-0.2-0.2-0.2-0.2c0-0.1,0-0.1-0.1-0.2c0-0.1-0.1-0.2-0.1-0.2l-0.1,0l-0.1-0.4c0,0-0.1-0.2-0.2-0.4
		c-0.1-0.2-0.3-0.3-0.4-0.3c0.1-0.2,0.1-0.4,0-0.5c0,0,0-0.1,0-0.2c0-0.1-0.1-0.2-0.1-0.2c0,0,0-0.1,0-0.1c0-0.1-0.1-0.1-0.1-0.1
		c0,0,0,0,0-0.1c0,0,0-0.1,0-0.1c0,0,0,0,0-0.1c0,0-0.1,0-0.1,0c0,0,0,0,0,0c0,0,0-0.1,0-0.1c0,0-0.1,0-0.1,0c0,0-0.1-0.1-0.1-0.1
		c0-0.1,0-0.1,0-0.1c0,0,0-0.1,0-0.1c0,0-0.1-0.1-0.1-0.3c0-0.2-0.1-0.3-0.2-0.4H12c0.1-0.2,0.1-0.4,0-0.6c-0.1-0.3-0.2-0.4-0.2-0.5
		c0,0,0-0.1-0.1-0.1c0,0-0.1-0.1-0.1-0.1c0,0,0-0.1,0-0.1c0-0.1,0-0.1,0-0.1s0,0,0-0.1c0,0-0.1-0.1-0.1-0.1c0,0,0-0.1,0-0.2
		c0-0.1,0-0.1-0.1-0.2l-0.1-0.4c0-0.2-0.1-0.4-0.1-0.4c0-0.1,0-0.2-0.1-0.3c0-0.1,0-0.2,0-0.3c0-0.1,0-0.2,0-0.3
		c0,0-0.1-0.1-0.2-0.1c0,0,0-0.1,0.1-0.2c0-0.3-0.1-0.5-0.2-0.6c0-0.3-0.1-0.4-0.1-0.5c0-0.4,0-0.7-0.2-0.7c0,0,0-0.1,0-0.2
		c0-0.1,0-0.2,0-0.2c0,0,0-0.1-0.1-0.1c0,0-0.1-0.1-0.1-0.1s0-0.1,0-0.2c0-0.1,0-0.1,0-0.1c0,0,0-0.1-0.1-0.2c0,0-0.1,0-0.1,0
		c0,0,0-0.1,0-0.2c0.1-0.2,0-0.3-0.2-0.3c0,0,0-0.1,0.1-0.1c0.1,0,0.1-0.1,0.1-0.1c0,0,0-0.3-0.1-0.8c0,0,0-0.1-0.1-0.1
		c0,0-0.1,0-0.1-0.1c0-0.5,0-0.9,0-1.1c0.1-0.2,0.1-0.4,0.1-0.5c0,0,0.1-0.1,0.1-0.2c0.1-0.1,0.1-0.2,0.2-0.2c0.1,0,0.1,0,0.2,0
		c0,0,0.1,0,0.1,0c0,0,0.1,0,0.1,0c0,0,0.1,0,0.1-0.1c0,0,0.1-0.1,0.1-0.1s0.1,0,0.2,0c0.1,0,0.2-0.1,0.2-0.1c0,0,0.1,0,0.2,0
		s0.2,0,0.2,0c0,0,0.1,0.1,0.1,0.1c0.1,0,0.1,0.1,0.2,0.1c0,0.1,0.1,0.1,0.2,0.2c0.1,0,0.2,0.1,0.2,0.1c0.2,0,0.3,0.1,0.4,0.3
		c0.1,0.2,0.2,0.3,0.3,0.3c0,0.2,0.1,0.4,0.3,0.7c0,0,0,0.1,0,0.1c0,0,0,0.1,0.1,0.1c0,0.1,0,0.2,0,0.3c0,0.1,0,0.2,0,0.3
		c0,0-0.1,0-0.1,0.1c0,0,0,0.1,0,0.1c0,0,0,0,0.1,0.1c0.1,0,0.1,0.1,0.1,0.1c0,0.3,0,0.5,0.1,0.5c0,0.2,0,0.3,0.1,0.4
		c0.1,0,0.1,0,0.1,0c0,0,0,0.1,0,0.1c0,0-0.1,0-0.1,0c0,0.1,0.1,0.2,0.1,0.3c0,0.1,0,0.2,0,0.3c0,0,0,0.1,0.1,0.1
		c0,0,0.1,0.1,0.1,0.1c0,0,0,0.1-0.1,0.1c0.1,0,0.1,0.1,0.1,0.3c0,0.2,0.1,0.3,0.1,0.3c0,0.1,0,0.2,0,0.3c0,0.4,0.1,0.5,0.2,0.6
		c0,0,0,0.1,0.1,0.3c-0.2,0.2-0.2,0.3,0,0.4c0,0.4,0.1,0.5,0.2,0.5c-0.1,0.1-0.1,0.2,0,0.4c0.1,0.2,0.1,0.4,0.1,0.4l0,0.1
		c0,0,0,0.1,0.1,0.1c0.1,0,0.1,0.1,0.1,0.1c0,0,0,0.1,0,0.1c0,0.1,0,0.1,0,0.1c0,0,0,0.1,0.1,0.1c0,0,0.1,0.1,0.1,0.1
		c0,0.2,0,0.3,0,0.4c0.1,0.1,0.1,0.1,0.1,0.1c0,0,0.1,0.1,0.1,0.2c0,0.1,0.1,0.2,0.1,0.2l0,0.1c0,0,0,0.1,0.1,0.2
		c0,0.1,0.1,0.3,0.2,0.6c0,0.1,0,0.1,0.1,0.2c0,0.1,0.1,0.2,0.1,0.2c0,0,0.1,0.1,0.1,0.1c0,0,0,0.1,0,0.2c0,0.1,0,0.1,0,0.1
		c0,0,0,0.1,0.1,0.1c0,0,0,0.1,0,0.1c0,0,0.1,0.1,0.2,0.2c0,0.1,0,0.2,0.1,0.3v0.1c0,0,0,0.1,0.1,0.1c0,0.1,0,0.1,0.1,0.2
		c0.1,0.1,0.1,0.1,0.1,0.1v0.1c0,0,0,0.1,0,0.1c0,0,0.1,0.1,0.1,0.1c0,0,0,0.1,0,0.1c0,0,0,0.1,0.1,0.1c0,0,0.1,0.1,0.1,0.1
		c0,0,0,0,0,0.1c0,0,0,0.1,0.1,0.1c0,0,0,0.1,0.1,0.1c0.1,0,0.1,0.1,0.1,0.1c0,0,0,0.1,0.1,0.1c0,0,0.1,0.1,0.1,0.1c0,0,0.1,0,0.1,0
		c0,0,0.1,0,0.1,0c0,0,0,0.1,0.1,0.1c0,0.1,0.1,0.1,0.1,0.1c0,0,0,0.1,0.1,0.1l0.1,0.1h0.1c0.1,0.1,0.2,0.1,0.2,0.1
		c0.1,0,0.1,0,0.1,0c0.1,0.2,0.4,0.2,0.9,0.1l0-0.1c0.1,0,0.2,0,0.3,0c0.1,0,0.2,0,0.3-0.1c0.2,0.1,0.5,0,0.7-0.3
		c0.1,0,0.2-0.1,0.3-0.2c0.1-0.1,0.2-0.2,0.4-0.2l0.1-0.2c0,0,0.1,0,0.1,0c0,0,0.1-0.1,0.2-0.2c0.1-0.1,0.2-0.2,0.3-0.3
		c0.1-0.1,0.1-0.2,0.1-0.3c0.1-0.1,0.2-0.2,0.2-0.2v-0.2c0.3-0.2,0.4-0.3,0.4-0.5c0,0,0.1-0.1,0.2-0.1c0,0,0-0.1,0-0.2
		c0,0,0-0.1,0.1-0.2c0-0.1,0-0.2,0-0.2c0.1,0,0.2-0.1,0.2-0.1c0,0,0-0.1,0-0.2c0-0.1,0-0.2,0-0.2c0.1-0.1,0.2-0.1,0.2-0.1v-0.1
		c0,0,0-0.1,0-0.1c0,0,0.1-0.1,0.1-0.1c0,0,0-0.1,0-0.1c0-0.1,0-0.1,0-0.1c0,0,0-0.1-0.1-0.1c0.2-0.2,0.2-0.4,0.1-0.4v-0.2
		c0,0,0.1,0,0.1,0c0.1,0,0.1-0.1,0.1-0.3c0-0.2,0-0.3,0-0.3c0,0,0-0.1-0.1-0.1v-0.2c0.1,0,0.2-0.1,0.2-0.1c0,0,0-0.1-0.1-0.1
		c0.1-0.1,0.1-0.2,0.1-0.3c-0.1-0.1-0.1-0.2-0.1-0.3c0,0,0.1-0.1,0.1-0.1c0-0.1,0-0.1-0.1-0.2c0,0,0-0.1,0-0.1c0,0,0,0,0.1-0.1
		c-0.1-0.2-0.1-0.4-0.1-0.4c0.1-0.1,0.2-0.1,0.2-0.2c0,0,0-0.1-0.1-0.1c-0.1,0-0.1,0-0.1-0.1c0.1-0.1,0.2-0.1,0.2-0.1
		c0-0.1,0-0.2,0-0.3c0-0.1,0-0.2,0-0.2c0,0-0.1-0.1-0.2-0.1c0-0.1,0-0.1,0-0.2c0-0.1,0.1-0.2,0.1-0.3c0,0,0-0.1,0-0.3
		c0-0.1,0-0.2,0-0.3c0-0.1-0.1-0.1-0.2-0.2c0-0.1,0-0.1,0.1-0.1c0,0,0.1-0.1,0.1-0.1c0,0,0-0.1,0-0.2c0,0,0-0.1,0-0.3
		c0-0.1,0-0.2,0-0.3C24,48.1,24,48,24,48s0-0.1,0-0.2c0-0.1,0-0.1-0.1-0.2s0-0.1-0.1-0.1c-0.1,0-0.1-0.1-0.1-0.1c0-0.1,0-0.2,0-0.2
		c-0.1,0-0.1,0-0.2,0c0,0-0.1,0-0.1,0s0,0,0,0c0,0,0,0-0.1,0c-0.1,0-0.1,0-0.1-0.1c0-0.1-0.1-0.2-0.1-0.2c0,0-0.1,0-0.1,0
		c0,0-0.1,0-0.1,0c0-0.1,0-0.2,0-0.3c0-0.1,0-0.2,0-0.3c0-0.1-0.1-0.1-0.2-0.2c-0.1-0.1-0.1-0.1-0.2-0.1c-0.2-0.2-0.3-0.4-0.3-0.6
		c0,0,0-0.1,0-0.1c0-0.2,0-0.3-0.1-0.4c0,0,0-0.1,0-0.2c0-0.1,0-0.2,0-0.2c0.1,0,0.1,0,0.2,0c0.1,0,0.2,0,0.2,0
		c0.1-0.2,0.1-0.3,0.2-0.3c0-0.1,0-0.2,0-0.2c0,0,0.1,0,0.2,0.1c0,0,0.2-0.1,0.4-0.2l0.1,0.1c0,0,0.1,0,0.1-0.1s0.1-0.1,0.1-0.1
		c0,0,0.1,0,0.1,0.1c0,0.1,0.1,0.1,0.1,0.1C24.3,43.9,24.3,43.9,24.4,43.8C24.4,43.8,24.4,43.8,24.4,43.8z M24.2,43.9
		C24.3,43.9,24.3,43.9,24.2,43.9c0.1-0.1,0.2-0.1,0.2-0.1c0,0,0.1,0.1,0.1,0.1c0,0.1,0,0.1,0,0.1c0,0,0.1,0,0.1,0c0,0,0.1,0,0.1,0
		c0,0,0,0,0,0.1c0,0,0.1,0.1,0.1,0.1c0,0,0.1,0,0.1,0c0,0,0.1,0.1,0.1,0.1c0,0,0.1,0,0.1,0c0.1,0.1,0.2,0.2,0.2,0.3
		c0.1,0,0.2,0,0.2,0.1c0.1,0.1,0.1,0.1,0.1,0.1c0,0,0,0,0-0.1c0-0.1,0-0.1,0-0.1c0,0,0.1,0.1,0.1,0.2c0,0.1,0,0.1,0.1,0.1
		c0,0,0,0.1,0.1,0.2c0,0.1,0.1,0.2,0.1,0.2c0.1,0,0.2,0.1,0.3,0.1c0,0.2,0.1,0.4,0.2,0.5c0,0,0,0.1,0.1,0.1c0,0,0,0.1,0,0.1
		c0.1,0.2,0.1,0.3,0.2,0.3c0,0.2,0,0.3,0.2,0.3c0,0,0,0.1-0.1,0.1c0,0.1-0.1,0.1,0,0.2c0,0,0.1,0,0.2,0c0,0.1,0,0.1,0,0.2
		c-0.1,0.1-0.1,0.2,0,0.2c0,0,0.1,0.1,0.1,0.1c0,0,0.1,0.1,0.1,0.1c0,0.1,0,0.2,0,0.3c0,0.1,0,0.2,0,0.3c0,0,0,0.1,0.1,0.1
		c0.1,0,0.1,0,0.1,0.1c0,0.1,0,0.3,0,0.5c0,0.3,0,0.4,0,0.4c0.1,0,0.1,0,0.1,0c0,0.1,0,0.1,0,0.2c0,0.1,0,0.2,0,0.2
		c0,0,0,0.1-0.1,0.1c0,0-0.1,0-0.1,0.1c0,0,0.1,0.1,0.2,0.1c0,0.1,0,0.1,0,0.2c0,0.1,0,0.2,0,0.4c0,0.3,0,0.5,0.2,0.5
		c0,0.1,0,0.2-0.1,0.2c-0.1,0-0.2,0-0.3,0.1l0.1,0.1c-0.1,0.1-0.1,0.3-0.1,0.7c0,0.3,0,0.6-0.1,0.7c0,0,0.1,0.1,0.1,0.1
		c0,0,0,0.1,0,0.1c0,0,0,0.1,0,0.1c0,0,0,0.1,0,0.1c0,0,0,0.1,0,0.1c0,0,0,0.1,0,0.1c-0.1,0.1-0.2,0.2-0.2,0.3c0,0,0,0.1,0,0.2
		c0,0.1,0.1,0.2,0.1,0.2c0,0,0,0.1-0.1,0.1c0,0-0.1,0.1-0.1,0.1c0,0,0,0.1,0,0.1c0,0.1,0,0.1-0.1,0.1c0,0,0,0.1,0,0.1
		c0,0,0,0.1,0,0.1c-0.1,0.1-0.1,0.1-0.1,0.1c0,0,0,0.1,0,0.1c0,0,0,0,0,0.1c-0.1,0-0.1,0.1-0.1,0.3s0,0.3-0.1,0.3
		c0.1,0.1,0.1,0.2,0,0.4c0,0.1,0,0.2,0,0.2c-0.1,0.1-0.2,0.2-0.2,0.3c0,0,0,0.1,0,0.1c0,0,0,0,0,0.1c-0.1,0.1-0.1,0.1-0.1,0.1
		c0,0,0,0.1,0,0.1c0,0.1,0,0.1,0,0.1c0,0-0.1,0.1-0.1,0.2l-0.1,0.3c0,0,0,0.1,0,0.1c0,0,0,0-0.1,0.1l0,0.1c-0.1,0.1-0.1,0.2-0.1,0.3
		C26,58.7,26,58.9,26,59.2c0,0-0.1,0-0.1,0c0,0-0.1,0.1-0.1,0.1c-0.1,0-0.1,0.1-0.1,0.1c-0.1,0.2-0.3,0.5-0.7,0.8c0,0,0,0.1,0,0.1
		c0,0-0.1,0.1-0.1,0.1c0,0-0.1,0-0.1,0.1c0,0,0,0.1,0,0.2c0,0.1,0,0.1-0.1,0.2l-0.1,0c-0.1,0.1-0.2,0.2-0.4,0.4
		c-0.2,0.2-0.3,0.3-0.4,0.4c-0.1,0-0.2,0-0.2,0c0,0.1,0,0.2,0,0.2c-0.2,0.1-0.3,0.2-0.3,0.4c0,0-0.1,0-0.1,0c-0.1,0-0.2,0.1-0.2,0.2
		c0,0-0.1,0-0.1,0c-0.1,0-0.1,0-0.1,0c0,0-0.1,0.1-0.1,0.1c0,0,0,0.1,0,0.1c0,0,0,0-0.1,0c0,0-0.1,0-0.1,0.1
		c-0.1,0.1-0.2,0.1-0.3,0.1c0,0,0,0.1-0.1,0.1c-0.1,0.1-0.1,0.1-0.1,0.2c-0.3,0-0.4,0.1-0.4,0.3c-0.1-0.1-0.1-0.1-0.2,0
		c-0.1,0-0.1,0.1-0.1,0.2c0,0-0.1,0-0.1,0c0,0-0.1,0-0.1,0c-0.1,0-0.3,0-0.5,0.1c-0.2,0-0.3,0-0.4,0c-0.1,0-0.1,0-0.2,0
		c-0.2,0.1-0.4,0.1-0.4-0.1c-0.1,0-0.1,0-0.2,0c-0.1,0-0.1,0-0.2,0c0,0-0.1,0-0.1,0.1c-0.1,0-0.1,0.1-0.2,0c0,0-0.1,0-0.1,0
		c0,0,0,0-0.1,0c0,0,0,0-0.1,0c0,0-0.1,0-0.1,0c0,0-0.1-0.1-0.1-0.1c0,0-0.1,0-0.1,0c0,0-0.1,0-0.1,0.1c0-0.1,0-0.2-0.1-0.2
		c-0.1,0-0.2-0.1-0.2-0.1c0,0,0,0.1,0,0.1c0,0,0,0.1,0,0.1c0,0-0.1,0-0.1-0.2c-0.1,0-0.1,0-0.1,0c0,0-0.1,0-0.1,0c0,0,0-0.1,0-0.1
		c0,0-0.1,0-0.1,0c-0.1,0-0.1,0-0.1,0c0,0,0-0.1,0-0.1c0,0,0-0.1,0-0.1c-0.1,0-0.2,0-0.2,0c-0.1-0.2-0.2-0.3-0.3-0.2
		c-0.2-0.1-0.2-0.2-0.2-0.3c0,0-0.1,0-0.2,0c0,0-0.1-0.1-0.1-0.2c0-0.1,0-0.1-0.1-0.2l-0.1,0.1c0,0-0.1-0.1-0.1-0.2
		c0-0.1-0.1-0.1-0.1-0.1c0,0-0.1,0-0.1,0c0,0-0.1,0-0.1,0c0,0,0,0,0,0c0,0,0-0.1,0-0.1c0,0-0.1-0.1-0.1-0.2c0-0.1-0.1-0.2-0.1-0.2
		c0,0-0.1,0-0.3-0.2l0-0.1c0,0-0.1-0.1-0.2-0.2c-0.1-0.1-0.2-0.2-0.2-0.2c0-0.1,0-0.1-0.1-0.2c0-0.1-0.1-0.2-0.1-0.2l-0.1,0
		l-0.1-0.4c0,0-0.1-0.2-0.2-0.4c-0.1-0.2-0.3-0.3-0.4-0.3c0.1-0.2,0.1-0.4,0-0.5c0,0,0-0.1,0-0.2c0-0.1-0.1-0.2-0.1-0.2
		c0,0,0-0.1,0-0.1c0-0.1-0.1-0.1-0.1-0.1c0,0,0,0,0-0.1c0,0,0-0.1,0-0.1c0,0,0,0,0-0.1c0,0-0.1,0-0.1,0c0,0,0,0,0,0c0,0,0-0.1,0-0.1
		c0,0-0.1,0-0.1,0c0,0-0.1-0.1-0.1-0.1c0-0.1,0-0.1,0-0.1c0,0,0-0.1,0-0.1c0,0-0.1-0.1-0.1-0.3c0-0.2-0.1-0.3-0.2-0.4H12
		c0.1-0.2,0.1-0.4,0-0.6c-0.1-0.3-0.2-0.4-0.2-0.5c0,0,0-0.1-0.1-0.1c0,0-0.1-0.1-0.1-0.1c0,0,0-0.1,0-0.1c0-0.1,0-0.1,0-0.1
		s0,0,0-0.1c0,0-0.1-0.1-0.1-0.1c0,0,0-0.1,0-0.2c0-0.1,0-0.1-0.1-0.2l-0.1-0.4c0-0.2-0.1-0.4-0.1-0.4c0-0.1,0-0.2-0.1-0.3
		c0-0.1,0-0.2,0-0.3c0-0.1,0-0.2,0-0.3c0,0-0.1-0.1-0.2-0.1c0,0,0-0.1,0.1-0.2c0-0.3-0.1-0.5-0.2-0.6c0-0.3-0.1-0.4-0.1-0.5
		c0-0.4,0-0.7-0.2-0.7c0,0,0-0.1,0-0.2c0-0.1,0-0.2,0-0.2c0,0,0-0.1-0.1-0.1c0,0-0.1-0.1-0.1-0.1s0-0.1,0-0.2c0-0.1,0-0.1,0-0.2
		s0-0.1-0.1-0.1c0,0-0.1,0-0.1,0c0,0,0-0.1,0-0.2c0.1-0.2,0-0.3-0.2-0.3c0,0,0-0.1,0.1-0.1c0.1,0,0.1-0.1,0.1-0.1c0,0,0-0.3-0.1-0.8
		c0,0,0-0.1-0.1-0.1c0,0-0.1,0-0.1-0.1c0-0.5,0-0.9,0-1.1c0.1-0.2,0.1-0.4,0.1-0.5c0,0,0.1-0.1,0.1-0.2c0.1-0.1,0.1-0.2,0.2-0.2
		c0.1,0,0.1,0,0.2,0c0,0,0.1,0,0.1,0s0.1,0,0.1,0c0,0,0.1,0,0.1-0.1c0,0,0.1-0.1,0.1-0.1s0.1,0,0.2,0c0.1,0,0.2-0.1,0.2-0.1
		c0,0,0.1,0,0.2,0s0.2,0,0.2,0c0,0,0.1,0.1,0.1,0.1c0.1,0,0.1,0.1,0.2,0.1c0,0.1,0.1,0.1,0.2,0.2c0.1,0,0.2,0.1,0.2,0.1
		c0.2,0,0.3,0.1,0.4,0.3c0.1,0.2,0.2,0.3,0.3,0.3c0,0.2,0.1,0.4,0.3,0.7c0,0,0,0.1,0,0.1c0,0,0,0.1,0.1,0.1c0,0.1,0,0.2,0,0.3
		c0,0.1,0,0.2,0,0.3c0,0-0.1,0-0.1,0.1c0,0,0,0.1,0,0.1c0,0,0,0,0.1,0.1c0.1,0,0.1,0.1,0.1,0.1c0,0.3,0,0.5,0.1,0.5
		c0,0.2,0,0.3,0.1,0.4c0.1,0,0.1,0,0.1,0c0,0,0,0.1-0.1,0.1c0,0.1,0,0.2,0,0.3c0,0.1,0,0.2,0,0.3c0,0,0,0.1,0.1,0.1
		c0,0,0.1,0.1,0.1,0.1c0,0,0,0.1-0.1,0.1c0.1,0,0.1,0.1,0.1,0.3c0,0.2,0.1,0.3,0.1,0.3c0,0.1,0,0.2,0,0.3c0,0.4,0.1,0.5,0.2,0.6
		c0,0,0,0.1,0.1,0.3c-0.2,0.2-0.2,0.3,0,0.4c0,0.4,0.1,0.5,0.2,0.5c-0.1,0.1-0.1,0.2,0,0.4c0.1,0.2,0.1,0.4,0.1,0.4l0,0.1
		c0,0,0,0.1,0.1,0.1c0.1,0,0.1,0.1,0.1,0.1c0,0,0,0.1,0,0.1c0,0.1,0,0.1,0,0.1c0,0,0,0.1,0.1,0.1c0,0,0.1,0.1,0.1,0.1
		c0,0.2,0,0.3,0,0.4c0.1,0.1,0.1,0.1,0.1,0.1c0,0,0.1,0.1,0.1,0.2c0,0.1,0.1,0.2,0.1,0.2l0,0.1c0,0,0,0.1,0.1,0.2
		c0,0.1,0.1,0.3,0.2,0.6c0,0.1,0,0.1,0.1,0.2c0,0.1,0.1,0.2,0.1,0.2c0,0,0.1,0.1,0.1,0.1c0,0,0,0.1,0,0.2c0,0.1,0,0.1,0,0.1
		c0,0,0,0.1,0.1,0.1c0,0,0,0.1,0,0.1c0,0,0.1,0.1,0.2,0.2c0,0.1,0,0.2,0.1,0.3v0.1c0,0,0,0.1,0.1,0.1c0,0.1,0,0.1,0.1,0.2
		c0.1,0.1,0.1,0.1,0.1,0.1v0.1c0,0,0,0.1,0,0.1c0,0,0.1,0.1,0.1,0.1c0,0,0,0.1,0,0.1c0,0,0,0.1,0.1,0.1c0,0,0.1,0.1,0.1,0.1
		c0,0,0,0,0,0.1c0,0,0,0.1,0.1,0.1c0,0,0,0.1,0.1,0.1c0.1,0,0.1,0.1,0.1,0.1c0,0,0,0.1,0.1,0.1c0,0,0.1,0.1,0.1,0.1c0,0,0.1,0,0.1,0
		c0,0,0.1,0,0.1,0c0,0,0,0.1,0.1,0.1c0,0.1,0.1,0.1,0.1,0.1c0,0,0,0.1,0.1,0.1l0.1,0.1h0.1c0.1,0.1,0.2,0.1,0.2,0.1
		c0.1,0,0.1,0,0.1,0c0.1,0.2,0.4,0.2,0.9,0.1l0-0.1c0.1,0,0.2,0,0.3,0c0.2,0,0.3,0,0.3-0.1c0.2,0.1,0.5,0,0.7-0.3
		c0.1,0,0.2-0.1,0.3-0.2c0.1-0.1,0.2-0.2,0.3-0.2l0.1-0.2c0,0,0.1,0,0.1,0c0,0,0.1-0.1,0.2-0.2c0.1-0.1,0.2-0.2,0.3-0.3
		c0.1-0.1,0.1-0.2,0.1-0.3c0.1-0.1,0.2-0.2,0.2-0.2v-0.2c0.3-0.2,0.4-0.3,0.4-0.5c0,0,0.1-0.1,0.2-0.1c0,0,0-0.1,0-0.2
		c0,0,0-0.1,0.1-0.2c0-0.1,0-0.2,0-0.2c0.1,0,0.2-0.1,0.2-0.1c0,0,0-0.1,0-0.2c0-0.1,0-0.2,0-0.2c0.1-0.1,0.2-0.1,0.2-0.1v-0.1
		c0,0,0-0.1,0-0.1c0,0,0.1-0.1,0.1-0.1c0,0,0-0.1,0-0.1c0-0.1,0-0.1,0-0.1c0,0,0-0.1-0.1-0.1c0.2-0.2,0.2-0.4,0.1-0.4v-0.2
		c0,0,0.1,0,0.1,0c0.1,0,0.1-0.1,0.1-0.3c0-0.2,0-0.3,0-0.3c0,0,0-0.1-0.1-0.1v-0.2c0.1,0,0.2-0.1,0.2-0.1c0,0,0-0.1-0.1-0.1
		c0.1-0.1,0.1-0.2,0.1-0.3c-0.1-0.1-0.1-0.2-0.1-0.3c0,0,0.1-0.1,0.1-0.1c0-0.1,0-0.1-0.1-0.2c0,0,0-0.1,0.1-0.1c0,0,0,0,0-0.1
		c-0.1-0.2-0.1-0.4-0.1-0.4c0.1-0.1,0.2-0.1,0.2-0.2c0,0,0-0.1-0.1-0.1c-0.1,0-0.1,0-0.1-0.1c0.1-0.1,0.2-0.1,0.2-0.1
		c0-0.1,0-0.2,0-0.3c0-0.1,0-0.2,0-0.2c0,0-0.1-0.1-0.2-0.1c0-0.1,0-0.1,0-0.2c0-0.1,0.1-0.2,0.1-0.3c0,0,0-0.1,0-0.3
		c0-0.1,0-0.2,0-0.3c0-0.1-0.1-0.1-0.2-0.2c0-0.1,0-0.1,0.1-0.1c0,0,0.1-0.1,0.1-0.1c0,0,0-0.1,0-0.2c0,0,0-0.1,0-0.3
		c0-0.1,0-0.2,0-0.3c0,0,0-0.1-0.1-0.1c0,0-0.1-0.1-0.1-0.1s0-0.1,0-0.2c0-0.1,0-0.1-0.1-0.2s0-0.1-0.1-0.1c-0.1,0-0.1-0.1-0.1-0.1
		c0-0.1,0-0.2,0-0.2c-0.1,0-0.1,0-0.2,0c0,0-0.1,0-0.1,0s0,0,0,0c0,0,0,0-0.1,0c-0.1,0-0.1,0-0.1-0.1c0-0.1-0.1-0.2-0.1-0.2
		c0,0-0.1,0-0.1,0c0,0-0.1,0-0.1,0c0-0.1,0-0.2,0-0.3c0-0.1,0-0.2,0-0.3c0-0.1-0.1-0.1-0.2-0.2c-0.1-0.1-0.1-0.1-0.2-0.1
		c-0.2-0.2-0.3-0.4-0.3-0.6c0,0,0-0.1,0-0.1c0-0.2,0-0.3-0.1-0.4c0,0,0-0.1,0-0.2c0-0.1,0-0.2,0-0.2c0.1,0,0.1,0,0.2,0
		c0.1,0,0.2,0,0.2,0c0.1-0.2,0.1-0.3,0.2-0.3c0-0.1,0-0.2,0-0.2c0,0,0.1,0,0.2,0.1c0,0,0.2-0.1,0.4-0.2l0.1,0.1c0,0,0.1,0,0.1-0.1
		s0.1-0.1,0.1-0.1C24.1,43.7,24.1,43.8,24.2,43.9C24.2,43.9,24.2,43.9,24.2,43.9z"/>
	<path fill="#D93427" d="M43.9,36.9c0,0.1,0,0.2,0,0.2c0.1,0,0.1,0,0.2,0c0.1,0,0.1,0,0.2,0l0,0.1c0,0,0.1,0,0.1,0c0,0,0.1,0,0.1,0
		c0.1,0,0.1,0,0.1,0c0,0,0.1,0,0.1,0.1c0,0,0.1,0.1,0.1,0.1c0,0,0.1,0,0.1,0c0,0,0,0.1,0,0.1c0,0,0.1,0,0.1,0c0.2-0.1,0.3-0.1,0.4,0
		l0.1,0.2c0.2,0,0.4,0.1,0.4,0.1c0.1,0.2,0.1,0.2,0.2,0.2c0.2,0.2,0.3,0.3,0.3,0.3c0,0,0,0.1,0,0.3c0,0,0,0.1,0,0.1
		c0,0.1,0,0.1,0,0.1c0,0,0,0.1,0.1,0.1c0,0,0.1,0.1,0.1,0.1c0,0-0.1,0.1-0.1,0.1c0,0-0.1,0-0.1,0.1c0,0,0,0,0,0.1c0,0.1,0,0.2,0,0.2
		c0,0,0,0,0,0.1c0,0,0,0.1,0,0.1c0,0,0,0.1,0,0.2c0,0.1,0,0.1,0.1,0.2c0.1,0.1,0.1,0.1,0.1,0.1c0,0,0,0-0.1,0c0,0-0.1,0-0.1,0
		c0,0,0,0.1,0,0.2c0,0,0.1,0,0.1,0c0,0,0,0,0.1,0c0,0.1,0,0.1-0.1,0.1c0,0,0,0,0,0c0,0.1,0,0.2,0,0.3c0,0,0,0.1,0,0.1
		c0,0.1,0,0.2,0,0.3c0,0.2,0,0.3,0.1,0.3c0,0,0,0.1-0.1,0.1c0,0,0,0,0,0.1c0,0.1,0,0.2,0,0.4c0,0.2,0,0.3,0,0.4c0,0,0,0.1,0.1,0.1
		c0,0,0,0.1,0,0.1c0,0.1,0,0.2,0,0.3c0,0.1,0,0.2,0,0.2c0,0,0.1,0.1,0.1,0.1c0,0,0,0.1,0,0.1s0,0-0.1,0c-0.1,0.1-0.1,0.2,0,0.4
		c0,0,0,0.1,0,0.2c0,0.1,0,0.2,0,0.2c0.1,0.2,0.1,0.4,0.1,0.4c0,0,0,0.1,0,0.1c0,0,0,0.1,0,0.1s0,0.1,0.1,0.1c0,0.1,0,0.1,0,0.1
		c0,0.1,0,0.2,0,0.2c0,0,0,0,0.1,0s0.1,0,0.1,0v0c0,0,0,0-0.1,0c0,0,0,0-0.1,0c0,0,0,0.1,0,0.1c0,0,0,0.1,0,0.1h0.1
		c0.1,0.1,0,0.2-0.1,0.3c0,0,0,0.2,0,0.4c0,0.2,0,0.3,0.1,0.4c-0.1,0.1-0.1,0.2-0.1,0.3c0,0.1,0.1,0.2,0.2,0.1c0,0.1,0,0.1,0,0.2
		c0,0-0.1,0-0.1,0c0,0.6,0.1,1,0.1,1c0,0,0,0.1-0.1,0.1c0,0.1,0,0.2,0,0.2c0,0,0,0.1,0.1,0.1c0,0,0.1,0.1,0.1,0.1c0,0.1,0,0.2,0,0.5
		c0,0.2,0,0.4,0,0.5c0,0,0.1,0,0.1,0c0,0.1,0,0.2,0,0.3c0,0.1,0,0.2,0,0.4c0,0.2,0,0.3,0,0.4l0,0.7c0,0.2,0,0.3,0.1,0.3
		c0,0,0,0.1,0,0.1c0,0-0.1,0-0.1,0.1l0.1,0.1c0,0,0,0.1-0.1,0.1c0.1,0.1,0.1,0.2,0.1,0.2c-0.1,0-0.2,0-0.2,0.1c0,0.1,0,0.1,0.1,0.2
		c0,0.1,0,0.2,0,0.3c0,0.3,0.1,0.5,0.1,0.5c0,0.6,0.1,1,0.2,1.1c0,0.4,0,0.6,0,0.7c0,0,0,0.1,0,0.1c0,0,0.1,0.1,0.1,0.1
		c0,0,0,0.1,0,0.2c0,0.1,0,0.2,0,0.2c0,0,0,0.1,0.1,0.1c0,0,0.1,0.1,0.1,0.1c0,0,0,0.1,0,0.1c0,0,0,0,0,0s0,0,0,0
		c-0.1,0.3,0,0.4,0.1,0.5c0,0.2,0,0.3,0.1,0.5c0.1,0.2,0.1,0.4,0.1,0.5c0.2,0.2,0.2,0.3,0.1,0.4c0,0.1,0.1,0.1,0.1,0.2
		c0.1,0.1,0.1,0.2,0.1,0.3c0,0.1,0,0.2,0,0.4c0,0.2,0,0.3,0,0.3c0,0,0.1,0.1,0.1,0.1c0,0,0,0.1,0,0.1c0,0-0.1,0.1-0.1,0.1
		C49,60.7,49,60.8,49,61c0,0-0.1,0.1-0.2,0.1c-0.1,0-0.2,0-0.2,0c0,0,0,0.1-0.1,0.1c-0.1,0.1-0.1,0.1-0.1,0.2
		c-0.1,0.1-0.2,0.2-0.2,0.3c-0.1,0-0.2,0-0.2-0.1c-0.1,0-0.1,0.1-0.1,0.2c-0.2,0-0.4,0-0.4,0c-0.1-0.1-0.2-0.1-0.2-0.1
		c-0.1,0-0.1,0-0.2,0.1c-0.1,0-0.1,0.1-0.2,0.1c0,0,0,0,0,0c0,0,0-0.1,0-0.1s0-0.1-0.1-0.1c-0.1,0-0.1-0.1-0.1-0.2
		c-0.1,0-0.1-0.1-0.2-0.2c-0.1-0.1-0.2-0.2-0.2-0.2c0,0-0.1-0.1-0.2-0.1c-0.1,0-0.1-0.1-0.1-0.1c-0.1,0-0.1,0-0.1,0c0,0,0,0-0.1,0
		c0-0.2-0.1-0.3-0.1-0.4c0,0-0.1,0-0.1,0c0,0-0.1,0-0.1,0c0-0.1-0.1-0.2-0.2-0.2c-0.1-0.1-0.1-0.1-0.2-0.1c0,0,0-0.1-0.1-0.1
		c-0.1-0.1-0.1-0.1-0.2-0.1c-0.1,0-0.2-0.1-0.3-0.2c-0.1-0.1-0.2-0.1-0.3-0.1c0-0.1,0-0.1-0.1-0.2c-0.1-0.1-0.1-0.1-0.2-0.1
		c0,0.1-0.1,0.1-0.1,0.1c-0.1,0-0.1-0.1-0.1-0.2h-0.1c-0.1-0.1-0.4-0.3-0.9-0.5c-0.1-0.1-0.2-0.3-0.4-0.4c-0.1,0-0.2-0.1-0.2-0.1
		c0,0-0.1,0-0.1,0c0,0-0.1,0-0.1,0V58c-0.1-0.1-0.3-0.3-0.6-0.5c-0.3-0.2-0.5-0.3-0.6-0.4c0,0-0.1,0-0.1,0c0,0-0.1,0-0.1,0
		c0,0,0,0,0-0.1c-0.3-0.2-0.5-0.4-0.6-0.4c0,0-0.1-0.1-0.1-0.1c-0.1-0.1-0.2-0.1-0.2-0.1c-0.1,0.1-0.1,0.1-0.1,0v-0.1
		c0,0-0.1-0.1-0.1-0.1c-0.1,0-0.1-0.1-0.1-0.1c0,0-0.1,0-0.1,0c0,0-0.1,0-0.1,0c0-0.1-0.1-0.2-0.2-0.3c-0.1,0-0.1,0-0.1,0
		c0,0,0,0,0-0.1c0,0,0-0.1-0.1-0.1c0,0-0.1,0-0.1,0.1c0,0-0.1,0.1-0.1,0c0,0,0-0.1,0-0.1c0-0.1,0-0.1,0-0.1c0,0,0-0.1,0-0.1
		c0,0-0.1,0-0.1-0.1c0-0.1-0.1-0.2-0.2-0.3c-0.1-0.1-0.2-0.2-0.3-0.2c-0.1-0.1-0.2-0.2-0.5-0.2v-0.1c-0.3-0.3-0.5-0.4-0.5-0.5
		c-0.1,0-0.2-0.1-0.4-0.2c0,0,0-0.1-0.1-0.2c0,0-0.1,0-0.1,0c0,0,0,0-0.1,0c0,0,0-0.1,0-0.1c-0.1,0-0.2-0.1-0.4-0.3
		c-0.1-0.2-0.3-0.3-0.4-0.3c0,0-0.1,0.2-0.1,0.4v0.5c0,0.1-0.1,0.1-0.1,0.2c-0.1,0.2-0.1,0.3,0,0.4c0,0,0.1,0,0.1,0s0.1,0,0.1,0.1
		c-0.1,0-0.2,0.1-0.2,0.1c0,0,0,0.1,0,0.2c0,0.1,0,0.1,0,0.1c0,0,0,0.1,0,0.1c0,0.1,0,0.1-0.1,0.1c0,0.1,0,0.2,0.1,0.3
		c0,0.1,0,0.2,0,0.3c0,0,0,0.1-0.1,0.2c0,0.1,0,0.1,0,0.2c0,0.1,0,0.2,0,0.2c0,0,0,0.1,0,0.3c0,0.2,0,0.3,0,0.3
		c-0.1,0.1-0.1,0.1-0.1,0.1c0,0.1,0.1,0.1,0.2,0.2v0.1c0,0-0.1,0-0.1,0c-0.1,0.1,0,0.2,0,0.3c0,0.1,0,0.3,0,0.5c0,0.2,0,0.4,0,0.5
		c0,0.1,0.1,0.2,0.1,0.2c0,0.1,0,0.1,0,0.2c0,0.1,0,0.2,0,0.2c-0.1,0.2-0.1,0.3,0,0.3c0,0,0.1,0,0.1,0c0,0.1-0.1,0.1-0.1,0.1
		c0,0,0,0,0,0.1c0,0,0,0.1,0,0.1c0,0,0,0.1-0.1,0.2c0,0,0,0.1,0.1,0.2v1c0,0-0.1,0.2-0.1,0.4c0,0,0,0.1,0,0.1c0,0,0,0.1,0.1,0.2
		c0.1,0.1,0.1,0.2,0,0.2l-0.1,0.1c0,0.1,0,0.2-0.1,0.3c-0.1,0.1-0.1,0.2-0.1,0.3c0,0,0.1,0.1,0.1,0.1c0,0,0,0.1,0,0.1c0,0,0,0-0.1,0
		c0,0-0.1,0-0.1,0.1c0,0.1,0,0.1-0.1,0.2c-0.1-0.2-0.3-0.3-0.4-0.2v0.2c0,0,0,0.1-0.1,0.1c-0.1,0-0.1,0-0.1,0c0,0,0,0-0.1,0
		c-0.1,0.1-0.1,0.1-0.2,0c-0.5,0.1-0.8,0.1-1,0c0,0-0.1-0.1-0.1-0.1c0,0-0.1-0.1-0.1-0.1c-0.1,0-0.1,0-0.1,0c0,0-0.1-0.1-0.2-0.2
		c-0.1-0.1-0.2-0.2-0.2-0.3c0,0-0.2-0.1-0.4-0.3c0-0.1,0-0.1-0.1-0.2l0-0.1l0-0.2c0,0,0-0.1,0-0.1c0,0,0-0.1,0-0.1
		c0-0.1-0.1-0.1-0.1-0.1l-0.1,0l0.1-0.1c0.1-0.1,0.2-0.4,0.1-0.7c0,0,0-0.1-0.1-0.1c0-0.1,0-0.1,0.1-0.2c0-0.1,0-0.2,0-0.2
		c0,0,0-0.1,0-0.1c0,0-0.1-0.1-0.1-0.1c0-0.3,0-0.4,0-0.4c0-0.1,0-0.2,0-0.3s0-0.2,0-0.3c0,0,0-0.1,0-0.1c0,0,0,0,0.1,0
		c0,0,0-0.1-0.1-0.2c0-0.1,0-0.2,0-0.2c0,0,0-0.1-0.1-0.1c0,0-0.1,0-0.1-0.1c0,0,0-0.1,0-0.2c0-0.1,0-0.1,0-0.2c0,0,0-0.1,0-0.1
		c0,0-0.1,0-0.1-0.1c0,0,0,0,0.1,0c0.1-0.2,0-0.4-0.1-0.6c0,0,0.1,0,0.1,0c0-0.1,0-0.2,0-0.5c0-0.3,0-0.5,0.1-0.5
		c-0.1,0-0.1-0.1-0.1-0.2c0-0.2,0-0.3,0-0.3c0,0,0-0.1,0-0.2c0-0.1-0.1-0.1-0.1-0.2c0-0.1,0.1-0.1,0.1-0.1c0-0.1,0-0.2-0.1-0.4
		c-0.1-0.2-0.1-0.4,0-0.5c0,0,0-0.1,0-0.1c0,0,0-0.1,0-0.1c0,0,0-0.1,0.1-0.2c0.1-0.2,0.1-0.4,0.1-0.5c-0.1-0.1-0.1-0.2-0.1-0.2
		v-0.1c0-0.1,0-0.2,0-0.3c0-0.2,0-0.3,0-0.4c0,0-0.1-0.1-0.1-0.1c0-0.1,0-0.2,0-0.3c0.1-0.1,0.1-0.2,0.1-0.3c0,0-0.1-0.1-0.1-0.2
		c-0.1-0.1-0.1-0.2,0-0.3c0,0,0-0.1,0-0.1c0,0,0-0.1,0-0.1c0,0,0-0.1,0-0.1c0-0.1,0-0.1,0-0.1c0,0-0.1-0.1-0.1-0.1
		c0,0-0.1-0.1-0.1-0.1l0.1,0c0-0.1-0.1-0.2-0.1-0.3c0-0.1,0-0.2,0-0.2l0-0.1c0-0.2-0.1-0.3-0.1-0.3c0,0,0.1,0,0.1,0c0,0,0-0.1,0-0.1
		s0-0.1,0-0.1c0,0,0-0.1,0-0.1c0-0.1-0.1-0.2-0.1-0.4c0-0.2,0-0.4-0.1-0.4c0.1-0.1,0.1-0.2-0.1-0.4c0,0,0-0.1,0-0.1c0,0,0,0,0-0.1
		c0,0-0.1-0.1-0.1-0.1c-0.1,0-0.1-0.1-0.1-0.1c0-0.2,0-0.4-0.1-0.4c0-0.1,0-0.2-0.1-0.4c0-0.1,0-0.2,0-0.3c0,0,0-0.1,0.1-0.1
		c0,0,0-0.1,0-0.1c0-0.1,0-0.2,0-0.3c0,0,0,0,0-0.1c0-0.1,0-0.1,0-0.2c0.1-0.2,0.2-0.3,0.3-0.3c0.1-0.4,0.3-0.6,0.6-0.7
		c0.2-0.2,0.2-0.3,0.2-0.3c0,0,0.1-0.1,0.3-0.1c0,0,0.1,0,0.1-0.1c0.1-0.1,0.1-0.1,0.1-0.1c0,0,0.1,0,0.1,0c0,0,0.1,0,0.1,0
		c0,0,0.1,0,0.1-0.1c0,0,0.1-0.1,0.1,0c0,0.2,0.1,0.4,0.4,0.4c0.3,0,0.4,0,0.4,0s0,0,0,0c0,0,0,0,0,0.1c0.1,0,0.2,0.1,0.3,0.2
		c0.1,0.1,0.2,0.1,0.2,0.1c0,0,0.1,0.1,0.1,0.1c0.1,0,0.3,0.2,0.4,0.5c0,0.2,0.1,0.3,0.1,0.3c0.1,0,0.1,0,0.1,0c0,0,0,0.1-0.1,0.1
		c0,0-0.1,0-0.1,0.1c0,0.3,0.1,0.4,0.2,0.4c0,0,0,0.1,0,0.1c0,0,0,0.1,0,0.1s0,0.1,0.1,0.1c0,0,0.1,0.1,0.1,0.1c0,0.1,0,0.2,0,0.2
		c0,0,0,0,0.1,0.1c0,0,0,0.1,0,0.1v0.1c0,0,0.1,0.1,0.1,0.1c0,0,0.1,0.1,0.1,0.1c0,0,0,0,0,0c0,0,0,0.1,0.1,0.1c0,0,0.1,0,0.1,0
		c0,0.1,0,0.1,0,0.2c0,0.1,0.1,0.2,0.2,0.2c0,0.1,0.1,0.3,0.4,0.6c0,0.2,0.1,0.3,0.3,0.5c0,0.1,0,0.2,0,0.2c0.2,0.1,0.3,0.2,0.4,0.4
		c0.1,0.1,0.2,0.2,0.4,0.4s0.3,0.3,0.4,0.4c0.1,0.2,0.4,0.5,0.8,0.8l0,0.1c0,0.1,0.1,0.1,0.2,0.2c0.1,0.1,0.2,0.2,0.3,0.2
		c0.1,0,0.2,0,0.2,0c0,0,0,0.1,0,0.1c0,0,0,0,0,0.1c0,0.1,0.1,0.1,0.2,0.1c0.2,0.2,0.3,0.4,0.5,0.4c0.1,0.1,0.2,0.2,0.2,0.2
		c0.4,0.4,0.7,0.7,0.8,0.7c0,0,0,0.1,0,0.1c0,0,0.1,0,0.1,0.1h0h0.1c0.1,0.1,0.2,0.2,0.3,0.3c0.1,0.1,0.3,0.2,0.4,0.3
		c0.1,0,0.1,0,0.2,0.1c0.1,0.1,0.2,0.1,0.2,0.1c0,0,0,0,0,0c0,0,0.1,0,0.1,0s0,0,0.1,0.1c0,0,0.1,0.1,0.1,0.1c0,0,0,0,0,0s0,0,0.1,0
		c0,0,0.1,0,0.2,0.1c0.1,0,0.2,0,0.2,0.1c0,0.1,0.1,0.1,0.1,0.1c0,0,0.1,0,0.1,0c0,0,0,0,0.1,0c0,0.1,0.1,0.1,0.1,0.2
		c0.1,0,0.1,0,0.1,0c0.1,0.1,0.2,0.2,0.3,0.3s0.2,0.2,0.3,0.2c0.1,0,0.1,0,0.1,0c0,0,0,0.1,0.1,0.1c0.1,0.1,0.1,0.1,0.2,0.1
		c0,0,0.1,0.1,0.3,0.2c0.1,0,0.1-0.1,0.1-0.2c0-0.1-0.1-0.2-0.1-0.3c0.1-0.2,0.1-0.3,0-0.3c0-0.1,0-0.2,0-0.3c0-0.1,0-0.2,0-0.2
		c0,0-0.1-0.1-0.1-0.1c-0.1-0.1-0.1-0.3,0-0.4c-0.1-0.2,0-0.4,0.1-0.4c-0.1,0-0.1-0.1,0-0.2c0-0.1,0-0.2,0-0.2c0,0,0-0.1,0-0.1
		c0-0.1-0.1-0.1-0.1-0.1c0-0.1,0-0.1,0-0.2c0-0.1,0-0.2,0.1-0.3c-0.2-0.1-0.1-0.2,0-0.3c0,0-0.1-0.1-0.1-0.1c0,0,0,0,0-0.1
		c0.1-0.1,0.1-0.2,0.1-0.3c0,0-0.1,0-0.1,0c0,0-0.1,0-0.1,0c-0.2-0.2-0.1-0.3,0.2-0.4c0,0,0-0.2-0.1-0.5c0,0-0.1,0-0.1,0
		s0,0.1-0.1,0.1c0,0-0.1-0.1-0.1-0.3c0-0.2-0.1-0.3-0.1-0.3c0,0,0-0.1,0-0.3s0-0.3,0.1-0.3c0,0,0,0,0,0c0,0,0,0,0.1,0
		c0.1,0,0.1,0,0.1-0.1c0-0.1,0-0.1,0-0.1c0,0-0.1,0-0.1,0.1c0,0-0.1,0.1-0.1,0.1c0,0,0-0.1,0.1-0.3c0.1,0,0.2-0.1,0.2-0.1
		c0.1-0.2,0-0.3-0.1-0.3c0,0,0-0.1,0-0.1c0,0,0.1,0,0.1-0.1c-0.1-0.1-0.2-0.2-0.2-0.4c0,0,0-0.1,0.1-0.1c0,0,0.1-0.1,0.1-0.1
		L44.2,48c0-0.2,0-0.3,0.1-0.5c0,0,0-0.1,0-0.2c0-0.1,0-0.2,0-0.2c0,0-0.1-0.1-0.1-0.2c0-0.1-0.1-0.1-0.1-0.2c0-0.2,0-0.3,0-0.3
		c-0.1,0-0.1,0-0.1,0c0,0,0-0.1,0-0.1c0,0-0.1-0.1-0.1-0.1c0.1,0,0.1,0,0.2,0l0-0.4c0,0,0-0.1,0-0.1c0,0,0,0,0,0c0,0,0-0.1,0-0.2
		c0-0.1,0-0.1,0-0.1c0,0,0-0.1,0-0.1s0-0.1,0-0.1c0,0,0-0.1,0-0.1c0,0,0-0.1,0-0.1c0,0,0-0.1,0.1-0.2c0-0.1-0.1-0.1-0.1-0.2
		c-0.1,0-0.1-0.1-0.1-0.1c0,0,0-0.1,0.1-0.2C44,44,44,44,44,43.9c-0.2-0.2-0.2-0.4,0-0.5c0,0,0-0.1,0-0.3c0-0.1-0.1-0.1-0.2-0.2
		c-0.2-0.2-0.3-0.3-0.2-0.5c0,0,0.1,0,0.1,0c0,0,0.1,0,0.1,0c0-0.1,0-0.1-0.1-0.1c0,0,0-0.1,0.1-0.2c-0.1-0.2-0.1-0.3-0.2-0.3
		c0,0-0.1,0-0.1,0c0,0,0,0-0.1,0c-0.1,0-0.1-0.1,0-0.2c0-0.1,0-0.1,0-0.1c0,0-0.1-0.1-0.1-0.1c0,0,0,0,0-0.1c-0.1-0.1-0.1-0.2,0-0.3
		c0.1-0.1,0.1-0.2,0.1-0.3c0,0-0.1-0.1-0.2-0.1c0,0,0-0.1,0.1-0.2c0-0.3,0-0.5-0.1-0.6c0-0.1,0.1-0.1,0.1-0.1c0,0,0-0.1,0-0.1
		c0,0,0-0.1,0-0.1c0,0,0-0.1,0-0.1c0,0,0,0,0-0.1c0-0.1,0-0.1,0-0.2c-0.1-0.3-0.1-0.4-0.2-0.4c0-0.1,0-0.2,0-0.5s0-0.4,0-0.5
		c0,0,0.1,0,0.1,0c0,0,0,0,0.1,0c0.1-0.2,0.2-0.3,0.2-0.3c0-0.1,0-0.3,0.2-0.5c0-0.1,0-0.2,0-0.2C43.7,36.8,43.8,36.8,43.9,36.9z
		 M43.6,36.8c0,0,0.1,0,0.3,0c0,0.1,0,0.2,0,0.2c0.1,0,0.1,0,0.2,0c0.1,0,0.1,0,0.2,0l0,0.1c0,0,0.1,0,0.1,0c0,0,0.1,0,0.1,0
		c0.1,0,0.1,0,0.1,0c0,0,0.1,0,0.1,0.1c0,0,0.1,0.1,0.1,0.1c0,0,0.1,0,0.1,0c0,0,0,0.1,0,0.1c0,0,0.1,0,0.1,0c0.2-0.1,0.3-0.1,0.4,0
		l0.1,0.2c0.2,0,0.4,0.1,0.4,0.1c0.1,0.2,0.1,0.2,0.2,0.2c0.2,0.2,0.3,0.3,0.3,0.3c0,0,0,0.1,0,0.3c0,0,0,0.1,0,0.1
		c0,0.1,0,0.1,0,0.1c0,0,0,0.1,0.1,0.1c0,0,0.1,0.1,0.1,0.1c0,0-0.1,0.1-0.1,0.1c0,0-0.1,0-0.1,0.1c0,0,0,0,0,0.1c0,0.1,0,0.2,0,0.2
		c0,0,0,0,0,0.1c0,0,0,0.1,0,0.1c0,0,0,0.1,0,0.1c0,0,0,0.1,0,0.1c0,0.1,0,0.1,0.1,0.2c0.1,0.1,0.1,0.1,0.1,0.1c0,0,0,0-0.1,0
		c0,0-0.1,0-0.1,0c0,0,0,0.1,0,0.2c0,0,0.1,0,0.1,0c0,0,0,0,0.1,0c0,0.1,0,0.1-0.1,0.1c0,0,0,0,0,0c0,0.1,0,0.2,0,0.3
		c0,0,0,0.1,0,0.1c0,0.1,0,0.2,0,0.3c0,0.2,0,0.3,0.1,0.3c0,0,0,0.1-0.1,0.1c0,0,0,0,0,0.1c0,0.1,0,0.2,0,0.4c0,0.2,0,0.3,0,0.3
		c0,0.1,0,0.1,0.1,0.2c0,0,0,0.1,0,0.1c0,0.1,0,0.2,0,0.3c0,0.1,0,0.2,0,0.2c0,0,0.1,0.1,0.1,0.1c0,0.1,0,0.1-0.1,0.1
		c-0.1,0.1-0.1,0.2,0,0.4c0,0,0,0.1,0,0.2c0,0.1,0,0.2,0,0.2c0.1,0.2,0.1,0.4,0.1,0.4c0,0,0,0.1,0,0.1c0,0,0,0.1,0,0.1
		s0,0.1,0.1,0.1c0,0.1,0,0.1,0,0.1c0,0.1,0,0.2,0,0.2c0,0,0,0,0.1,0s0.1,0,0.1,0v0c0,0,0,0-0.1,0c0,0,0,0-0.1,0c0,0,0,0.1,0,0.1
		c0,0,0,0.1,0,0.1h0.1c0.1,0.1,0,0.2-0.1,0.3c0,0,0,0.2,0,0.4c0,0.2,0,0.3,0.1,0.4c-0.1,0.1-0.1,0.2-0.1,0.3c0,0.1,0.1,0.2,0.2,0.1
		c0,0.1,0,0.1,0,0.2c0,0-0.1,0-0.1,0c0,0.6,0.1,1,0.1,1c0,0,0,0.1-0.1,0.1c0,0.1,0,0.2,0,0.2c0,0,0,0.1,0.1,0.1c0,0,0.1,0.1,0.1,0.1
		c0,0.1,0,0.2,0,0.5c0,0.2,0,0.4,0,0.5c0,0,0.1,0,0.1,0c0,0.1,0,0.2,0,0.3c0,0.1,0,0.2,0,0.4c0,0.2,0,0.3,0,0.4l0,0.7
		c0,0.2,0,0.3,0.1,0.3c0,0,0,0.1,0,0.1c0,0-0.1,0-0.1,0.1l0.1,0.1c0,0,0,0.1-0.1,0.1c0.1,0.1,0.1,0.2,0.1,0.2c-0.1,0-0.2,0-0.2,0.1
		c0,0.1,0,0.1,0.1,0.2c0,0.1,0,0.2,0,0.3c0,0.3,0.1,0.5,0.1,0.5c0,0.6,0.1,1,0.2,1.1c0,0.4,0,0.6,0,0.7c0,0,0,0.1,0,0.1
		c0,0,0.1,0.1,0.1,0.1c0,0,0,0.1,0,0.2c0,0.1,0,0.2,0,0.2c0,0,0,0.1,0.1,0.1c0,0,0.1,0.1,0.1,0.1c0,0,0,0.1,0,0.1c0,0,0,0,0,0
		s0,0,0,0c-0.1,0.3,0,0.4,0.1,0.5c0,0.2,0,0.3,0.1,0.5c0.1,0.2,0.1,0.4,0.1,0.5c0.2,0.2,0.2,0.3,0.1,0.4c0,0.1,0.1,0.1,0.1,0.2
		c0.1,0.1,0.1,0.2,0.1,0.3c0,0.1,0,0.2,0,0.4c0,0.2,0,0.3,0,0.3c0,0,0.1,0.1,0.1,0.1c0,0,0,0.1,0,0.1c0,0-0.1,0.1-0.1,0.1
		C49,60.7,49,60.8,49,61c0,0-0.1,0.1-0.2,0.1c-0.1,0-0.2,0-0.2,0c0,0,0,0.1-0.1,0.1c-0.1,0.1-0.1,0.1-0.1,0.2
		c-0.1,0.1-0.2,0.2-0.2,0.3c-0.1,0-0.2,0-0.2-0.1c-0.1,0-0.1,0.1-0.1,0.2c-0.2,0-0.4,0-0.4,0c-0.1-0.1-0.2-0.1-0.2-0.1
		c-0.1,0-0.1,0-0.2,0.1c-0.1,0-0.1,0.1-0.2,0.1c0,0,0,0,0,0c0,0,0-0.1,0-0.1s0-0.1-0.1-0.1c-0.1,0-0.1-0.1-0.1-0.2
		c-0.1,0-0.1-0.1-0.2-0.2c-0.1-0.1-0.2-0.2-0.2-0.2c0,0-0.1-0.1-0.2-0.1c-0.1,0-0.1-0.1-0.1-0.1c-0.1,0-0.1,0-0.1,0c0,0,0,0-0.1,0
		c0-0.2-0.1-0.3-0.1-0.4c0,0-0.1,0-0.1,0c0,0-0.1,0-0.1,0c0-0.1-0.1-0.2-0.2-0.2c-0.1-0.1-0.1-0.1-0.2-0.1c0,0,0-0.1-0.1-0.1
		c-0.1-0.1-0.1-0.1-0.2-0.1c-0.1,0-0.2-0.1-0.3-0.2c-0.1-0.1-0.2-0.1-0.3-0.1c0-0.1,0-0.2-0.1-0.2c-0.1,0-0.1-0.1-0.2-0.1
		c0,0.1-0.1,0.1-0.1,0.1c-0.1,0-0.1-0.1-0.1-0.2h-0.1c-0.1-0.1-0.4-0.3-0.9-0.5c-0.1-0.1-0.2-0.3-0.4-0.4c-0.1,0-0.2-0.1-0.2-0.1
		c0,0-0.1,0-0.1,0c0,0-0.1,0-0.1,0V58c-0.1-0.1-0.3-0.3-0.6-0.5c-0.3-0.2-0.5-0.3-0.6-0.4c0,0-0.1,0-0.1,0c0,0-0.1,0-0.1,0
		c0,0,0,0,0-0.1c-0.3-0.2-0.5-0.4-0.6-0.4c0,0-0.1-0.1-0.1-0.1c-0.1-0.1-0.2-0.1-0.2-0.1c-0.1,0.1-0.1,0.1-0.1,0v-0.1
		c0,0-0.1-0.1-0.1-0.1c-0.1,0-0.1-0.1-0.1-0.1c0,0-0.1,0-0.1,0c0,0-0.1,0-0.1,0c0-0.1-0.1-0.2-0.2-0.3l-0.1,0c0,0,0,0,0,0
		c0-0.1-0.1-0.1-0.1-0.1c0,0-0.1,0-0.1,0.1c0,0-0.1,0.1-0.1,0c0,0,0-0.1,0-0.1c0-0.1,0-0.1,0-0.1c0,0,0-0.1,0-0.1c0,0-0.1,0-0.1-0.1
		c0-0.1-0.1-0.2-0.2-0.3c-0.1-0.1-0.2-0.2-0.3-0.2c-0.1-0.1-0.2-0.2-0.5-0.2v-0.1c-0.3-0.3-0.5-0.4-0.5-0.5c-0.1,0-0.2-0.1-0.4-0.2
		c0,0,0-0.1-0.1-0.2c0,0-0.1,0-0.1,0c0,0,0,0-0.1,0c0,0,0-0.1,0-0.1c-0.1,0-0.2-0.1-0.4-0.3c-0.1-0.2-0.3-0.3-0.4-0.3
		c0,0-0.1,0.2-0.1,0.4v0.5c0,0.1-0.1,0.1-0.1,0.2c-0.1,0.2-0.1,0.3,0,0.4c0,0,0.1,0,0.1,0s0.1,0,0.1,0.1c-0.1,0-0.2,0.1-0.2,0.1
		c0,0,0,0.1,0,0.2c0,0.1,0,0.1,0,0.1c0,0,0,0.1,0,0.1c0,0.1,0,0.1-0.1,0.1c0,0.1,0,0.2,0.1,0.3c0,0.1,0,0.2,0,0.3c0,0,0,0.1-0.1,0.2
		c0,0.1,0,0.1,0,0.2c0,0.1,0,0.2,0,0.2c0,0,0,0.1,0,0.3c0,0.2,0,0.3,0,0.3c-0.1,0.1-0.1,0.1-0.1,0.1c0,0.1,0.1,0.1,0.2,0.2v0.1
		c0,0-0.1,0-0.1,0c-0.1,0.1,0,0.2,0,0.3c0,0.1,0,0.3,0,0.5c0,0.2,0,0.4,0,0.5c0,0.1,0.1,0.2,0.1,0.2c0,0.1,0,0.1,0,0.2
		c0,0.1,0,0.2,0,0.2c-0.1,0.2-0.1,0.3,0,0.3c0,0,0.1,0,0.1,0c0,0.1-0.1,0.1-0.1,0.1c0,0,0,0,0,0.1s0,0.1,0,0.1c0,0,0,0.1-0.1,0.2
		c0,0,0,0.1,0.1,0.2v1c0,0-0.1,0.2-0.1,0.4c0,0,0,0.1,0,0.1c0,0,0,0.1,0.1,0.2c0.1,0.1,0.1,0.2,0,0.2l-0.1,0.1c0,0.1,0,0.2-0.1,0.3
		c-0.1,0.1-0.1,0.2-0.1,0.3c0,0,0.1,0.1,0.1,0.1c0,0,0,0.1,0,0.1c0,0,0,0-0.1,0c0,0-0.1,0-0.1,0.1c0,0.1,0,0.1-0.1,0.2
		c-0.1-0.2-0.3-0.3-0.4-0.2v0.2c0,0,0,0.1-0.1,0.1c-0.1,0-0.1,0-0.1,0c0,0,0,0-0.1,0c-0.1,0.1-0.1,0.1-0.2,0c-0.5,0.1-0.8,0.1-1,0
		c0,0-0.1-0.1-0.1-0.1c0,0-0.1-0.1-0.1-0.1c-0.1,0-0.1,0-0.1,0c0,0-0.1-0.1-0.2-0.2c-0.1-0.1-0.2-0.2-0.2-0.3c0,0-0.2-0.1-0.4-0.3
		c0-0.1,0-0.1-0.1-0.2l0-0.1l0-0.2c0,0,0-0.1,0-0.1c0,0,0-0.1,0-0.1c0-0.1-0.1-0.1-0.1-0.1l-0.1,0l0.1-0.1c0.1-0.1,0.2-0.4,0.1-0.7
		c0,0,0-0.1-0.1-0.1c0-0.1,0-0.1,0.1-0.2c0-0.1,0-0.2,0-0.2c0,0,0-0.1,0-0.1c0,0-0.1-0.1-0.1-0.1c0-0.3,0-0.4,0-0.4
		c0-0.1,0-0.2,0-0.3s0-0.2,0-0.3c0,0,0-0.1,0-0.1c0,0,0,0,0.1,0c0,0,0-0.1-0.1-0.2c0-0.1,0-0.2,0-0.2c0,0,0-0.1-0.1-0.1
		c0,0-0.1,0-0.1-0.1c0,0,0-0.1,0-0.2c0-0.1,0-0.1,0-0.2c0,0,0-0.1,0-0.1c0,0-0.1,0-0.1-0.1c0,0,0,0,0.1,0c0.1-0.2,0-0.4-0.1-0.6
		c0,0,0.1,0,0.1,0c0-0.1,0-0.2,0-0.5c0-0.3,0-0.5,0.1-0.5c-0.1,0-0.1-0.1-0.1-0.2c0-0.2,0-0.3,0-0.3c0,0,0-0.1,0-0.2
		c0-0.1-0.1-0.1-0.1-0.2c0-0.1,0.1-0.1,0.1-0.1c0-0.1,0-0.2-0.1-0.4c-0.1-0.2,0-0.4,0.1-0.5c0,0-0.1-0.1-0.1-0.1c0,0,0-0.1,0-0.1
		c0,0,0-0.1,0.1-0.2c0.1-0.2,0.1-0.4,0.1-0.5c-0.1-0.1-0.1-0.2-0.1-0.2c0-0.1,0-0.2,0-0.2c0,0,0-0.1,0-0.3c0-0.2,0-0.3,0-0.4
		c0,0-0.1-0.1-0.1-0.1c0-0.1,0-0.2,0-0.3c0.1-0.1,0.1-0.2,0.1-0.3c0,0-0.1-0.1-0.1-0.2c-0.1-0.1-0.1-0.2,0-0.3c0,0,0-0.1,0-0.1
		c0,0,0-0.1,0-0.1c0,0,0-0.1,0-0.1c0-0.1,0-0.1,0-0.1c0,0-0.1-0.1-0.1-0.1c0,0-0.1-0.1-0.1-0.1l0.1,0c0-0.1-0.1-0.2-0.1-0.3
		c0-0.1,0-0.2,0-0.2l0-0.1c0-0.2-0.1-0.3-0.1-0.3c0,0,0.1,0,0.1,0c0,0,0-0.1,0-0.1s0-0.1,0-0.1c0,0,0-0.1,0-0.1
		c0-0.1-0.1-0.2-0.1-0.4c0-0.2,0-0.4-0.1-0.4c0.1-0.1,0.1-0.2-0.1-0.4c0,0,0-0.1,0-0.1c0,0,0,0,0-0.1c0,0-0.1-0.1-0.1-0.1
		c-0.1,0-0.1-0.1-0.1-0.1c0-0.2,0-0.4-0.1-0.4c0-0.1,0-0.2-0.1-0.4c0-0.1,0-0.3,0-0.4c0.1-0.1,0.1-0.1,0.1-0.1c0-0.1,0-0.2,0-0.3
		c0,0,0,0,0-0.1c0-0.1,0-0.1,0-0.2c0.1-0.2,0.2-0.3,0.3-0.3c0.1-0.4,0.3-0.6,0.6-0.7c0.2-0.2,0.2-0.3,0.2-0.3c0,0,0.1-0.1,0.3-0.1
		c0,0,0.1,0,0.1-0.1c0.1-0.1,0.1-0.1,0.1-0.1c0,0,0.1,0,0.1,0c0,0,0.1,0,0.1,0c0,0,0.1,0,0.1-0.1c0,0,0.1-0.1,0.1,0
		c0,0.2,0.1,0.4,0.4,0.4c0.3,0,0.4,0,0.4,0s0,0,0,0c0,0,0,0,0,0.1c0.1,0,0.2,0,0.3,0.1c0.1,0.1,0.2,0.1,0.2,0.1c0,0,0.1,0.1,0.1,0.1
		c0.1,0,0.3,0.2,0.4,0.5c0,0.2,0.1,0.3,0.1,0.3c0.1,0,0.1,0,0.1,0c0,0,0,0.1-0.1,0.1c0,0-0.1,0-0.1,0.1c0,0.3,0.1,0.4,0.2,0.4
		c0,0,0,0.1,0,0.1c0,0,0,0.1,0,0.1s0,0.1,0.1,0.1c0,0,0.1,0.1,0.1,0.1c0,0.1,0,0.2,0,0.2c0,0,0,0,0.1,0.1c0,0,0,0.1,0,0.1v0.1
		c0,0,0.1,0.1,0.1,0.1c0,0,0.1,0.1,0.1,0.1c0,0,0,0,0,0c0,0,0,0.1,0.1,0.1c0,0,0.1,0,0.1,0c0,0.1,0,0.1,0,0.2c0,0.1,0.1,0.2,0.2,0.2
		c0,0.1,0.1,0.3,0.4,0.6c0,0.2,0.1,0.3,0.3,0.5c0,0.1,0,0.2,0,0.2c0.2,0.1,0.3,0.2,0.4,0.4c0.1,0.1,0.2,0.2,0.4,0.4s0.3,0.3,0.4,0.4
		c0.1,0.2,0.4,0.5,0.8,0.8l0,0.1c0,0.1,0.1,0.1,0.2,0.2c0.1,0.1,0.2,0.2,0.3,0.2c0.1,0,0.2,0,0.2,0c0,0,0,0.1,0,0.1c0,0,0,0,0,0.1
		c0,0.1,0.1,0.1,0.2,0.1c0.2,0.2,0.3,0.4,0.5,0.4c0.1,0.1,0.2,0.2,0.2,0.2c0.4,0.4,0.7,0.7,0.8,0.7c0,0,0,0.1,0,0.1
		c0,0,0.1,0,0.1,0.1h0h0.1c0.1,0.1,0.2,0.2,0.3,0.3c0.1,0.1,0.3,0.2,0.4,0.3c0.1,0,0.1,0,0.2,0.1c0.1,0.1,0.2,0.1,0.2,0.1
		c0,0,0,0,0,0c0,0,0.1,0,0.1,0s0,0,0.1,0.1c0,0,0.1,0.1,0.1,0.1c0,0,0,0,0,0s0,0,0.1,0c0,0,0.1,0,0.2,0.1c0.1,0,0.2,0,0.2,0.1
		c0,0.1,0.1,0.1,0.1,0.1c0,0,0.1,0,0.1,0c0,0,0,0,0.1,0c0,0.1,0.1,0.1,0.1,0.2c0,0,0.1,0,0.1,0s0,0,0.1,0c0.1,0.1,0.2,0.2,0.3,0.3
		s0.2,0.2,0.3,0.2c0.1,0,0.1,0,0.1,0c0,0,0,0.1,0.1,0.1c0.1,0.1,0.1,0.1,0.2,0.1c0,0,0.1,0.1,0.3,0.2c0.1,0,0.1-0.1,0.1-0.2
		c0-0.1-0.1-0.2-0.1-0.2c0.1-0.2,0.1-0.3,0-0.3c0-0.1,0-0.2,0-0.3c0-0.1,0-0.2,0-0.2c0,0-0.1-0.1-0.1-0.1c-0.1-0.1-0.1-0.3,0-0.4
		c-0.1-0.2,0-0.4,0.1-0.4c0,0,0-0.1,0-0.2c0-0.1,0-0.2,0-0.2c0,0,0-0.1,0-0.1c0-0.1-0.1-0.1-0.1-0.1c0-0.1,0-0.1,0-0.2
		c0-0.1,0-0.2,0.1-0.3c-0.2-0.1-0.1-0.2,0-0.3c0,0-0.1-0.1-0.1-0.1c0,0,0,0,0-0.1c0.1-0.1,0.1-0.2,0.1-0.3c0,0-0.1,0-0.1,0
		c0,0-0.1,0-0.1,0c-0.2-0.2-0.1-0.3,0.2-0.4c0,0,0-0.2-0.1-0.5c0,0-0.1,0-0.1,0s0,0.1-0.1,0.1c0,0-0.1-0.1-0.1-0.3
		c0-0.2-0.1-0.3-0.1-0.3c0,0,0-0.1,0-0.3s0-0.3,0.1-0.3c0,0,0,0,0,0c0,0,0,0,0.1,0c0.1,0,0.1,0,0.1-0.1c0-0.1,0-0.1,0-0.1
		c0,0-0.1,0-0.1,0.1c0,0-0.1,0.1-0.1,0.1c0,0,0-0.1,0.1-0.3c0.1,0,0.2-0.1,0.2-0.1c0.1-0.2,0-0.3-0.1-0.3c0,0,0-0.1,0-0.1
		c0,0,0.1,0,0.1-0.1c-0.1-0.1-0.2-0.2-0.2-0.4c0,0,0-0.1,0.1-0.1c0,0,0.1-0.1,0.1-0.1L44.2,48c0-0.2,0-0.3,0.1-0.5c0,0,0-0.1,0-0.2
		c0-0.1,0-0.2,0-0.2c0,0-0.1-0.1-0.1-0.2c0-0.1-0.1-0.1-0.1-0.2c0-0.2,0-0.3,0-0.3c-0.1,0-0.1,0-0.1,0c0,0,0-0.1,0-0.1
		c0,0-0.1-0.1-0.1-0.1c0.1,0,0.1,0,0.2,0l0-0.4c0,0,0-0.1,0-0.1c0,0,0,0,0,0c0,0,0-0.1,0-0.2c0-0.1,0-0.1,0-0.1c0,0,0-0.1,0-0.1
		s0-0.1,0-0.1c0,0,0-0.1,0-0.1c0-0.1,0-0.1,0-0.1c0,0,0-0.1,0.1-0.2c0-0.1-0.1-0.1-0.1-0.2c-0.1,0-0.1-0.1-0.1-0.1
		c0,0,0-0.1,0.1-0.2C44,44,44,44,44,43.9c-0.2-0.2-0.2-0.4,0-0.5c0,0,0-0.1,0-0.3c0-0.1-0.1-0.1-0.2-0.2c-0.2-0.2-0.3-0.3-0.2-0.5
		c0,0,0.1,0,0.1,0c0,0,0.1,0,0.1,0c0-0.1,0-0.1-0.1-0.1c0,0,0-0.1,0.1-0.2c-0.1-0.2-0.1-0.3-0.2-0.3c0,0-0.1,0-0.1,0c0,0,0,0-0.1,0
		c-0.1,0-0.1-0.1,0-0.2c0-0.1,0-0.1,0-0.1c0,0-0.1-0.1-0.1-0.1c0,0,0,0,0-0.1c-0.1-0.1-0.1-0.2,0-0.3c0.1-0.1,0.1-0.2,0.1-0.3
		c0,0-0.1-0.1-0.2-0.1c0,0,0-0.1,0.1-0.2c0-0.3,0-0.5-0.1-0.6c0-0.1,0.1-0.1,0.1-0.1c0,0,0-0.1,0-0.1c0,0,0-0.1,0-0.1
		c0,0,0-0.1,0-0.1c0,0,0,0,0-0.1c0-0.1,0-0.1,0-0.2c-0.1-0.3-0.1-0.4-0.2-0.4c0-0.1,0-0.2,0-0.5s0-0.4,0-0.5c0,0,0.1,0,0.1,0
		c0,0,0,0,0.1,0c0.1-0.2,0.2-0.3,0.2-0.3c0-0.1,0-0.3,0.2-0.5C43.7,36.9,43.6,36.9,43.6,36.8z M39.7,56.8
		C39.7,56.8,39.7,56.9,39.7,56.8L39.7,56.8C39.6,56.8,39.6,56.8,39.7,56.8C39.6,56.8,39.6,56.8,39.7,56.8z M39.6,56.8
		C39.6,56.8,39.6,56.8,39.6,56.8C39.7,56.8,39.7,56.9,39.6,56.8L39.6,56.8C39.6,56.8,39.6,56.8,39.6,56.8z M43.6,43.8
		C43.6,43.8,43.6,43.8,43.6,43.8C43.6,43.7,43.6,43.8,43.6,43.8C43.6,43.8,43.6,43.8,43.6,43.8z M43.6,43.7
		C43.6,43.7,43.6,43.8,43.6,43.7C43.6,43.8,43.6,43.8,43.6,43.7C43.6,43.8,43.6,43.8,43.6,43.7z M43.7,43.3L43.7,43.3L43.7,43.3z
		 M43.7,43.3L43.7,43.3L43.7,43.3z M43.7,42.6C43.7,42.6,43.7,42.6,43.7,42.6c-0.1,0.1,0,0.1,0,0.1C43.8,42.7,43.8,42.7,43.7,42.6
		C43.8,42.6,43.8,42.6,43.7,42.6z M43.8,42.8C43.8,42.7,43.8,42.7,43.8,42.8c0-0.1,0-0.1,0-0.1C43.7,42.6,43.7,42.6,43.8,42.8
		C43.7,42.7,43.7,42.8,43.8,42.8z M43.8,46.4C43.8,46.5,43.8,46.5,43.8,46.4L43.8,46.4C43.7,46.5,43.7,46.4,43.8,46.4z M43.8,46.4
		C43.8,46.5,43.8,46.5,43.8,46.4L43.8,46.4C43.7,46.5,43.7,46.4,43.8,46.4z"/>
	<path fill="#D93427" d="M52.9,38.9c0.2,0,0.3,0,0.3,0c0,0,0,0.1,0,0.2c0.1,0.1,0.1,0.1,0.2,0c0.1-0.1,0.1-0.1,0.1-0.2
		c0.1,0,0.1,0.1,0.2,0.2c0.1,0.1,0.1,0.1,0.2,0.2c0.2,0,0.4,0.1,0.6,0.2c0,0,0.1,0,0.1,0c0,0,0.1,0.1,0.1,0.1c0.1,0,0.2,0,0.3,0.1
		c0,0,0.1,0,0.1,0s0.1,0,0.1,0c0,0,0.1,0,0.1,0c0,0,0.1,0.1,0.3,0.1c0.1,0.1,0.2,0,0.3,0c0.2,0.1,0.3,0.1,0.4,0.1
		c0,0.1,0.1,0.1,0.3,0.1c0.1,0,0.1,0,0.1,0c0,0,0.1,0,0.1,0.1c0.1,0,0.1,0.1,0.2,0.1c0.4,0,0.6,0.1,0.6,0.1c0.1,0,0.2,0,0.4,0
		c0.2,0,0.3,0,0.4,0c0,0,0.1,0,0.1,0.1c0.1,0,0.1,0.1,0.1,0.1c0.2,0,0.3,0,0.4,0c0.1,0,0.2,0,0.4,0c0.1,0,0.2,0.1,0.3,0.2
		c0.1,0,0.2,0,0.3,0c0,0,0.1,0,0.2,0.1c0.1,0,0.2,0.1,0.2,0.1c0,0,0.1,0,0.1,0c0,0,0.1,0,0.1,0c0.1,0,0.1,0,0.2,0.1
		c0,0,0.1,0.1,0.1,0.1c0.1,0,0.3,0,0.4,0c0,0,0,0.1,0,0.1c0,0,0.1,0.1,0.1,0.1c0.5,0,0.8,0,0.9,0.1h0.3c0.1-0.1,0.1-0.1,0.1-0.1
		c0,0.1,0,0.2,0.1,0.2c0.1,0.1,0.2,0.1,0.2,0c0,0,0.1,0,0.1,0c0.1,0,0.1,0.1,0.1,0.1c0,0,0.1,0,0.1,0c0,0,0.1,0,0.1,0s0.1,0,0.1,0
		c0,0,0.1,0,0.1,0s0,0,0.1,0c0,0,0.1,0,0.1,0c0,0,0.1,0,0.1,0.1h0.1c0.1,0,0.2,0,0.3,0.1c0.2,0,0.4,0,0.5,0.2c0.1,0,0.2,0,0.3,0
		c0.1,0.1,0.2,0.1,0.2,0.1c0,0,0.1,0.1,0.2,0.1c0,0,0.2,0,0.4,0.1c0.1,0,0.2,0,0.2,0c0,0,0,0,0,0.1c0.1,0,0.2,0.1,0.3,0.2
		c0.1,0,0.3,0.1,0.6,0.3c0.2,0,0.3,0,0.3,0c0,0,0,0.1,0,0.1c0,0,0.1,0.1,0.3,0.1c0.2,0.3,0.3,0.4,0.3,0.4s0.1,0,0.1,0
		c0,0,0.1,0.1,0.2,0.2c0.1,0.1,0.1,0.1,0.2,0.1c0.2,0.1,0.3,0.2,0.3,0.2c0.1,0.1,0.2,0.1,0.3,0.2c0.1,0.1,0.2,0.2,0.3,0.4
		c0.1,0.1,0.2,0.2,0.2,0.3c0,0.1,0.1,0.1,0.1,0.1c0.3,0.3,0.5,0.5,0.6,0.8c0,0,0,0.1,0.1,0.1c0,0,0.1,0.1,0.1,0.1c0,0.1,0,0.2,0,0.2
		c0,0,0,0.1,0.1,0.1c0.1,0,0.1,0,0.1,0.1c0,0,0,0.1,0,0.2c0,0.1,0,0.2,0,0.2c0,0,0.1,0.1,0.1,0.1c0,0,0,0,0.1,0.1c0,0.1,0,0.2,0,0.5
		c0,0,0,0.1,0,0.1c0,0.1,0,0.1,0,0.2s0,0.1,0,0.1c0,0,0,0.1,0,0.1c0,0,0,0.1,0,0.1c0,0,0,0.1,0,0.1c0,0.1,0,0.2,0,0.5
		c0,0.3,0,0.5,0,0.6c-0.1,0.1-0.1,0.2-0.2,0.3C71.1,50,71,50.1,71,50.1c0,0,0,0.1,0,0.1c0,0,0,0,0,0.1c0,0,0,0.1,0,0.2s0,0.2,0,0.2
		c0,0,0,0.1-0.1,0.1c0,0.1,0,0.1,0,0.1c0,0,0,0.1,0,0.1c0,0,0,0.1,0,0.1c0,0,0,0-0.1,0.1c0,0-0.1,0.1-0.1,0.1c0,0,0,0.1,0,0.1
		c0,0.1,0,0.1,0,0.1c-0.1,0.1-0.1,0.1-0.1,0.1c0,0,0,0,0,0.1c0,0,0,0.1,0,0.1c0,0,0,0-0.1,0.1c0,0,0,0.1,0,0.1
		c-0.1,0.1-0.1,0.2-0.1,0.2c0,0.1-0.1,0.2-0.2,0.3c0,0.1-0.1,0.2-0.1,0.4v0.1c0,0.1-0.1,0.1-0.1,0.2c-0.2,0.2-0.2,0.4-0.1,0.6
		c0,0,0,0-0.1,0c0,0-0.1,0.2-0.4,0.4c0,0.1,0,0.2-0.1,0.2C69,54.7,69,54.7,69,54.8c-0.2,0.1-0.3,0.3-0.4,0.6c0,0-0.1,0.1-0.1,0.2
		c-0.1,0.1-0.1,0.2-0.1,0.2c0,0,0,0,0,0v0c-0.1,0.1-0.1,0.1-0.1,0.1v0.1c-0.2,0.3-0.4,0.4-0.4,0.5c0,0,0,0-0.1,0
		c0,0-0.1,0.1-0.2,0.2c-0.1,0.1-0.2,0.2-0.2,0.3c-0.2,0.1-0.3,0.2-0.3,0.3c-0.1,0.1-0.2,0.2-0.3,0.3c-0.1,0.2-0.2,0.3-0.3,0.3
		c-0.1,0-0.1,0-0.1,0c-0.1,0.1-0.2,0.2-0.2,0.3c-0.1,0.1-0.3,0.2-0.5,0.4c-0.2,0.2-0.3,0.4-0.5,0.4c0,0,0,0.1-0.1,0.1
		c0,0,0,0.1,0,0.1c-0.1,0.1-0.2,0.2-0.3,0.3c-0.1,0.1-0.1,0.1-0.2,0.1c-0.2,0.2-0.3,0.4-0.4,0.4c0,0.1,0,0.1,0,0.1
		c-0.1,0.1-0.1,0.1-0.1,0.1s-0.1,0-0.1,0.1c0,0.1-0.1,0.1-0.1,0.1c0,0-0.1,0-0.2,0.1c-0.1,0-0.1,0.1-0.2,0.1l0,0.1
		c-0.1,0.1-0.1,0.2-0.2,0.3c0,0,0,0.1,0,0.1s0,0,0,0c0,0-0.1,0-0.1-0.1c-0.1,0-0.2,0.1-0.3,0.2c-0.1,0.1-0.2,0.2-0.2,0.2
		c0,0,0,0.1,0,0.1c0,0,0,0,0,0.1c0,0-0.1,0-0.1,0c-0.1,0-0.1,0.1-0.1,0.1c0,0,0,0,0,0c0,0-0.1,0-0.1,0c0,0-0.3,0.3-0.9,0.8
		c0,0.1,0,0.1-0.1,0.2H61c0,0-0.1,0-0.1,0.1c-0.1,0-0.1,0.1-0.2,0.1c0,0-0.1,0.1-0.1,0.2c0,0.1-0.1,0.2-0.2,0.2c0,0.1,0,0.1,0,0.1
		c0,0-0.1,0-0.1,0c0,0-0.1,0-0.1,0c0,0-0.1,0-0.2,0.1c0,0-0.1,0-0.1,0c0,0,0,0-0.1,0c0,0-0.1,0.1-0.1,0.1c0,0,0,0.1,0,0.1
		c-0.1,0-0.2,0-0.2,0c0-0.1-0.1-0.1-0.1-0.2l-0.1,0.1c0,0-0.1,0-0.1,0c0,0-0.1,0-0.1,0c0-0.1,0-0.1-0.1-0.2c0-0.1-0.1-0.1-0.1-0.1
		c-0.2,0-0.3,0-0.4-0.1c-0.1-0.1-0.2-0.2-0.2-0.3c-0.1,0-0.1-0.1-0.2-0.1c0-0.1,0-0.2,0-0.2c-0.1,0-0.1,0-0.2,0
		c-0.1-0.2-0.2-0.3-0.3-0.4c0,0,0-0.1,0-0.2c0-0.1,0-0.2,0-0.2c0-0.2,0-0.3,0-0.3l0.2-0.2c0,0,0-0.1,0-0.1c0,0,0.1-0.1,0.1-0.1
		c0,0,0.1,0,0.1,0c0,0,0,0,0,0s0,0,0,0c0,0,0-0.1,0-0.1l0.1-0.1c0-0.1-0.2-0.2-0.4-0.3c0,0,0-0.1,0-0.2c0-0.1,0-0.1,0-0.2
		s0-0.1-0.1-0.2c-0.1-0.1-0.1-0.2-0.1-0.2c0,0,0-0.1,0-0.2c0-0.1,0-0.1,0-0.1c0,0,0-0.1-0.1-0.1c-0.1,0-0.1,0-0.1-0.1
		c0.1-0.1,0.1-0.2,0.1-0.4c0-0.2-0.1-0.3-0.2-0.4c0-0.1,0-0.3,0-0.6s0-0.4,0-0.6c0-0.1,0-0.1,0-0.1c0,0,0-0.1-0.1-0.1
		c0,0-0.1-0.1-0.1-0.1c0-0.1,0-0.1,0-0.2c0-0.1,0-0.2,0-0.2c0,0,0-0.1-0.1-0.1c0,0-0.1-0.1-0.1-0.1c0,0,0-0.1,0-0.1
		c0-0.1,0-0.1,0-0.1c0-0.3,0-0.5,0-0.6c0,0,0-0.1-0.1-0.1c0-0.1-0.1-0.1-0.1-0.1c0,0,0-0.1,0-0.1c0,0,0-0.1,0-0.1c0,0,0-0.1,0-0.2
		c0-0.1,0-0.2,0-0.3l-0.1-0.1c0.1-0.4,0.1-0.6-0.1-0.7v-0.3c0,0,0-0.1,0-0.1c0,0,0,0,0-0.1c0,0,0-0.1,0-0.1c0,0,0-0.1,0-0.1
		c0-0.1-0.1-0.1-0.2-0.1c0-0.2,0-0.3,0-0.5c0,0,0,0,0.1,0c0.1-0.1,0.1-0.2-0.1-0.3c-0.1-0.1-0.1-0.2-0.1-0.2c0-0.1,0-0.1,0-0.2
		c0-0.1,0-0.1,0-0.2c0,0,0-0.1-0.1-0.1c0,0-0.1-0.1-0.1-0.1c0-0.6,0-1,0-1C56,50.3,56,50.2,56,50c0-0.1,0.1-0.1,0.1-0.1
		c0,0,0-0.2,0-0.4c0-0.2,0-0.4,0-0.4c0,0,0-0.1-0.1-0.1c0,0,0-0.1,0-0.1c0,0,0-0.1,0-0.1c0.1-0.1,0-0.2-0.1-0.2c0,0-0.1-0.2-0.1-0.4
		c0,0,0-0.1-0.1-0.2c-0.1-0.1-0.1-0.1-0.1-0.2c-0.1-0.2-0.1-0.3-0.1-0.3c0,0,0-0.2,0-0.5c0,0,0-0.1-0.1-0.1c0-0.1,0-0.2,0-0.4
		s-0.1-0.2-0.2-0.2c0,0,0-0.1,0-0.3c0-0.2,0-0.3,0-0.3c0,0-0.1-0.1-0.1-0.2c-0.1-0.1-0.1-0.2-0.1-0.2c-0.1-0.3-0.1-0.5-0.2-0.5
		c0-0.2-0.1-0.3-0.2-0.3c0-0.1,0-0.1,0-0.2c0.1-0.1,0.1-0.2,0.1-0.2c0,0-0.1,0-0.1,0c0,0,0-0.1,0-0.1c0-0.1,0-0.2-0.1-0.3
		c0,0-0.1-0.1-0.1-0.1c0,0,0-0.1,0-0.1c0,0,0-0.1,0-0.1s0-0.1-0.1-0.1c0,0-0.1-0.1-0.1-0.1c0,0,0,0,0-0.1c0,0,0-0.1,0-0.1
		c0,0-0.1-0.1-0.1-0.1c-0.1,0-0.1-0.1-0.1-0.1c-0.1,0-0.3-0.1-0.4-0.2H53c-0.1-0.2-0.2-0.3-0.4-0.3c0,0-0.1-0.1-0.1-0.1
		c0-0.1-0.1-0.1-0.1-0.1c0-0.1-0.2-0.2-0.4-0.3c0-0.2-0.2-0.4-0.4-0.5c0-0.1-0.1-0.2-0.1-0.2c0,0,0-0.1,0-0.1c0,0,0-0.1,0-0.1
		l-0.1-0.1c-0.1-0.2-0.1-0.3,0-0.5c0,0,0-0.1,0.1-0.2c0.1-0.1,0.1-0.1,0.1-0.2c0,0,0-0.1,0-0.1c0,0,0-0.1,0-0.1c0,0,0,0,0.1-0.1
		c0.1,0,0.1-0.1,0.1-0.1H52c0.1-0.1,0.2-0.1,0.5-0.1c0.1,0,0.2,0,0.3,0C52.8,39,52.8,39,52.9,38.9C52.9,38.9,52.9,38.9,52.9,38.9z
		 M53.2,38.9c0,0,0,0.1,0,0.2c0.1,0.1,0.1,0.1,0.2,0c0.1-0.1,0.1-0.1,0.1-0.2c0.1,0,0.1,0.1,0.2,0.2c0.1,0.1,0.1,0.1,0.2,0.2
		c0.2,0,0.4,0.1,0.6,0.2c0,0,0.1,0,0.1,0c0,0,0.1,0.1,0.1,0.1c0.1,0,0.2,0,0.3,0.1c0,0,0.1,0,0.1,0s0.1,0,0.1,0c0,0,0.1,0,0.1,0
		c0,0,0.1,0.1,0.3,0.1c0.1,0.1,0.2,0,0.3,0c0.2,0.1,0.3,0.1,0.4,0.1c0,0.1,0.1,0.1,0.3,0.1c0.1,0,0.1,0,0.1,0c0,0,0.1,0,0.1,0.1
		c0.1,0,0.1,0.1,0.2,0.1c0.4,0,0.6,0.1,0.6,0.1c0.1,0,0.2,0,0.4,0c0.2,0,0.3,0,0.4,0c0,0,0.1,0,0.1,0.1c0.1,0,0.1,0.1,0.1,0.1
		c0.2,0,0.3,0,0.4,0c0.1,0,0.2,0,0.4,0c0.1,0,0.2,0.1,0.3,0.2c0.1,0,0.2,0,0.3,0c0,0,0.1,0,0.2,0.1c0.1,0,0.2,0.1,0.2,0.1
		c0,0,0.1,0,0.1,0c0,0,0.1,0,0.1,0c0.1,0,0.1,0,0.2,0.1c0,0,0.1,0.1,0.1,0.1c0.1,0,0.3,0,0.4,0c0,0,0,0.1,0,0.1c0,0,0.1,0.1,0.1,0.1
		c0.5,0,0.8,0,0.9,0.1h0.3c0.1-0.1,0.1-0.1,0.1-0.1c0,0.1,0,0.2,0.1,0.2c0.1,0.1,0.2,0.1,0.2,0c0,0,0.1,0,0.1,0
		c0.1,0,0.1,0.1,0.1,0.1c0,0,0.1,0,0.1,0c0,0,0.1,0,0.1,0s0.1,0,0.1,0c0,0,0.1,0,0.1,0s0,0,0.1,0c0,0,0.1,0,0.1,0c0,0,0.1,0,0.1,0.1
		h0.1c0.1,0,0.2,0,0.3,0.1c0.2,0,0.4,0,0.5,0.2c0.1,0,0.2,0,0.3,0c0.1,0.1,0.2,0.1,0.2,0.1c0,0,0.1,0.1,0.2,0.1c0,0,0.2,0,0.4,0.1
		c0.1,0,0.2,0,0.2,0c0,0,0,0,0,0.1c0.1,0,0.2,0.1,0.3,0.2c0.1,0,0.3,0.1,0.6,0.3c0.2,0,0.3,0,0.3,0c0,0,0,0.1,0,0.1
		c0,0,0.1,0.1,0.3,0.1c0.2,0.3,0.3,0.4,0.3,0.4s0.1,0,0.1,0c0,0,0.1,0.1,0.2,0.2c0.1,0.1,0.1,0.1,0.2,0.1c0.2,0.1,0.3,0.2,0.3,0.2
		c0.1,0.1,0.2,0.1,0.3,0.2c0.1,0.1,0.2,0.2,0.3,0.4c0.1,0.1,0.2,0.2,0.2,0.3c0,0.1,0.1,0.1,0.1,0.1c0.3,0.3,0.5,0.5,0.6,0.8
		c0,0,0,0.1,0.1,0.1c0,0,0.1,0.1,0.1,0.1c0,0.1,0,0.2,0,0.2c0,0,0,0.1,0.1,0.1c0.1,0,0.1,0,0.1,0.1c0,0,0,0.1,0,0.2
		c0,0.1,0,0.2,0,0.2c0,0,0.1,0.1,0.1,0.1c0,0,0,0,0.1,0.1c0,0.1,0,0.2,0,0.5c0,0,0,0.1,0,0.1c0,0.1,0,0.1,0,0.2s0,0.1,0,0.1
		c0,0,0,0.1,0,0.1c0,0,0,0.1,0,0.1c0,0,0,0.1,0,0.1c0,0.1,0,0.2,0,0.5c0,0.3,0,0.5,0,0.6c-0.1,0.1-0.1,0.2-0.2,0.3
		C71.1,50,71,50.1,71,50.1c0,0,0,0.1,0,0.1c0,0,0,0,0,0.1c0,0,0,0.1,0,0.2s0,0.2,0,0.2c0,0,0,0.1-0.1,0.1c0,0.1,0,0.1,0,0.1
		c0,0,0,0.1,0,0.1c0,0,0,0.1,0,0.1c0,0,0,0-0.1,0.1c0,0-0.1,0.1-0.1,0.1c0,0,0,0.1,0,0.1c0,0.1,0,0.1,0,0.1
		c-0.1,0.1-0.1,0.1-0.1,0.1c0,0,0,0,0,0.1c0,0,0,0.1,0,0.1c0,0,0,0-0.1,0.1c0,0,0,0.1,0,0.1c-0.1,0.1-0.1,0.2-0.1,0.2
		c0,0.1-0.1,0.2-0.2,0.3c0,0.1-0.1,0.2-0.1,0.4v0.1c0,0.1-0.1,0.1-0.1,0.2c-0.2,0.2-0.2,0.4-0.1,0.6c0,0,0,0-0.1,0
		c0,0-0.1,0.2-0.4,0.4c0,0.1,0,0.2-0.1,0.2C69,54.7,69,54.7,69,54.8c-0.2,0.1-0.3,0.3-0.4,0.6c0,0-0.1,0.1-0.1,0.2
		c-0.1,0.1-0.1,0.2-0.1,0.2c0,0,0,0,0,0v0c-0.1,0.1-0.1,0.1-0.1,0.1v0.1c-0.2,0.3-0.4,0.4-0.4,0.5c0,0,0,0-0.1,0
		c0,0-0.1,0.1-0.2,0.2c-0.1,0.1-0.2,0.2-0.2,0.3c-0.2,0.1-0.3,0.2-0.3,0.3c-0.1,0.1-0.2,0.2-0.3,0.3c-0.1,0.2-0.2,0.3-0.3,0.3
		c-0.1,0-0.1,0-0.1,0c-0.1,0.1-0.2,0.2-0.2,0.3c-0.1,0.1-0.3,0.2-0.5,0.4c-0.2,0.2-0.3,0.4-0.5,0.4c0,0,0,0.1-0.1,0.1
		c0,0,0,0.1,0,0.1c-0.1,0.1-0.2,0.2-0.3,0.3c-0.1,0.1-0.1,0.1-0.2,0.1c-0.2,0.2-0.3,0.4-0.4,0.4c0,0.1,0,0.1,0,0.1
		c-0.1,0.1-0.1,0.1-0.1,0.1s-0.1,0-0.1,0.1c0,0.1-0.1,0.1-0.1,0.1c0,0-0.1,0-0.2,0.1c-0.1,0-0.1,0.1-0.2,0.1l0,0.1
		c-0.1,0.1-0.1,0.2-0.2,0.3c0,0,0,0.1,0,0.1s0,0,0,0c0,0-0.1,0-0.1-0.1c-0.1,0-0.2,0.1-0.3,0.2c-0.1,0.1-0.2,0.2-0.2,0.2
		c0,0,0,0.1,0,0.1c0,0,0,0,0,0.1c0,0-0.1,0-0.1,0c-0.1,0-0.1,0.1-0.1,0.1c0,0,0,0,0,0c0,0-0.1,0-0.1,0c0,0-0.3,0.3-0.9,0.8
		c0,0.1,0,0.1-0.1,0.2H61c0,0-0.1,0-0.1,0.1c-0.1,0-0.1,0.1-0.2,0.1c0,0-0.1,0.1-0.1,0.2c0,0.1-0.1,0.2-0.2,0.2c0,0.1,0,0.1,0,0.1
		c0,0-0.1,0-0.1,0c0,0-0.1,0-0.1,0c0,0-0.1,0-0.2,0.1c0,0-0.1,0-0.1,0c0,0,0,0-0.1,0c0,0-0.1,0.1-0.1,0.1c0,0,0,0.1,0,0.1
		c-0.1,0-0.2,0-0.2,0c0-0.1-0.1-0.1-0.1-0.2l-0.1,0.1c0,0-0.1,0-0.1,0c0,0-0.1,0-0.1,0c0-0.1,0-0.1-0.1-0.2c0-0.1-0.1-0.1-0.1-0.1
		c-0.2,0-0.3,0-0.4-0.1c-0.1-0.1-0.2-0.2-0.2-0.3c-0.1,0-0.1-0.1-0.2-0.1c0-0.1,0-0.2,0-0.2c-0.1,0-0.1,0-0.2,0
		c-0.1-0.2-0.2-0.3-0.3-0.4c0,0,0-0.1,0-0.2c0-0.1,0-0.2,0-0.2c0-0.2,0-0.3,0-0.3l0.2-0.2c0,0,0-0.1,0-0.1c0,0,0.1-0.1,0.1-0.1
		c0,0,0.1,0,0.1,0c0,0,0,0,0,0s0,0,0,0c0,0,0-0.1,0-0.1l0.1-0.1c0-0.1-0.2-0.2-0.4-0.3c0,0,0-0.1,0-0.2c0-0.1,0-0.1,0-0.2
		s0-0.1-0.1-0.2c-0.1-0.1-0.1-0.2-0.1-0.2c0,0,0-0.1,0-0.2c0-0.1,0-0.1,0-0.1c0,0,0-0.1-0.1-0.1c-0.1,0-0.1,0-0.1-0.1
		c0.1-0.1,0.1-0.2,0.1-0.4c0-0.2-0.1-0.3-0.2-0.4c0-0.1,0-0.3,0-0.6s0-0.4,0-0.6c0-0.1,0-0.1,0-0.1c0,0,0-0.1-0.1-0.1
		c0,0-0.1-0.1-0.1-0.1c0-0.1,0-0.1,0-0.2c0-0.1,0-0.2,0-0.2c0,0,0-0.1-0.1-0.1c0,0-0.1-0.1-0.1-0.1c0,0,0-0.1,0-0.1
		c0-0.1,0-0.1,0-0.1c0-0.3,0-0.5,0-0.6c0,0,0-0.1-0.1-0.1c0-0.1-0.1-0.1-0.1-0.1c0,0,0-0.1,0-0.1c0,0,0-0.1,0-0.1c0,0,0-0.1,0-0.2
		c0-0.1,0-0.2,0-0.3l-0.1-0.1c0.1-0.4,0.1-0.6-0.1-0.7v-0.3c0,0,0-0.1,0-0.1c0,0,0,0,0-0.1c0,0,0-0.1,0-0.1c0,0,0-0.1,0-0.1
		c0-0.1-0.1-0.1-0.2-0.1c0-0.2,0-0.3,0-0.5c0,0,0,0,0.1,0c0.1-0.1,0.1-0.2-0.1-0.3c-0.1-0.1-0.1-0.2-0.1-0.2c0-0.1,0-0.1,0-0.2
		c0-0.1,0-0.1,0-0.2c0,0,0-0.1-0.1-0.1c0,0-0.1-0.1-0.1-0.1c0-0.6,0-1,0-1C56,50.3,56,50.2,56,50c0-0.1,0.1-0.1,0.1-0.1
		c0,0,0-0.2,0-0.4c0-0.2,0-0.4,0-0.4c0,0,0-0.1-0.1-0.1c0,0,0-0.1,0-0.1c0,0,0-0.1,0-0.1c0.1-0.1,0-0.2-0.1-0.2c0,0-0.1-0.2-0.1-0.4
		c0,0,0-0.1-0.1-0.2c-0.1-0.1-0.1-0.1-0.1-0.2c-0.1-0.2-0.1-0.3-0.1-0.3c0,0,0-0.2,0-0.5c0,0,0-0.1-0.1-0.1c0-0.1,0-0.2,0-0.4
		s-0.1-0.2-0.2-0.2c0,0,0-0.1,0-0.3c0-0.2,0-0.3,0-0.3c0,0-0.1-0.1-0.1-0.2c-0.1-0.1-0.1-0.2-0.1-0.2c-0.1-0.3-0.1-0.5-0.2-0.5
		c0-0.2-0.1-0.3-0.2-0.3c0-0.1,0-0.1,0-0.2c0.1-0.1,0.1-0.2,0.1-0.2c0,0-0.1,0-0.1,0c0,0,0-0.1,0-0.1c0-0.1,0-0.2-0.1-0.3
		c0,0-0.1-0.1-0.1-0.1c0,0,0-0.1,0-0.1c0,0,0-0.1,0-0.1s0-0.1-0.1-0.1c0,0-0.1-0.1-0.1-0.1c0,0,0,0,0-0.1c0,0,0-0.1,0-0.1
		c0,0-0.1-0.1-0.1-0.1c-0.1,0-0.1-0.1-0.1-0.1c-0.1,0-0.3-0.1-0.4-0.2H53c-0.1-0.2-0.2-0.3-0.4-0.3c0,0-0.1-0.1-0.1-0.1
		c0-0.1-0.1-0.1-0.1-0.1c0-0.1-0.2-0.2-0.4-0.3c0-0.2-0.2-0.4-0.4-0.5c0-0.1-0.1-0.2-0.1-0.2c0,0,0-0.1,0-0.1c0,0,0-0.1,0-0.1
		l-0.1-0.1c-0.1-0.2-0.1-0.3,0-0.5c0,0,0-0.1,0.1-0.2c0.1-0.1,0.1-0.1,0.1-0.2c0,0,0-0.1,0-0.1c0,0,0-0.1,0-0.1c0,0,0,0,0.1-0.1
		c0.1,0,0.1-0.1,0.1-0.1H52c0.1-0.1,0.2-0.1,0.5-0.1c0.1,0,0.2,0,0.3,0c0,0,0.1,0,0.1,0c0,0,0-0.1,0-0.1
		C53,38.9,53.1,38.9,53.2,38.9z M62.8,44.5C62.7,44.5,62.7,44.4,62.8,44.5c-0.1-0.1-0.2-0.1-0.2-0.1c0,0-0.1,0-0.2,0
		c-0.1,0-0.1,0-0.2,0c0,0-0.1,0-0.1-0.1c0,0-0.1-0.1-0.1-0.1c-0.1,0-0.1,0-0.1,0c0,0,0,0-0.1,0c0,0-0.1,0-0.1,0c0,0-0.1,0-0.2,0
		c-0.1,0-0.2,0-0.2,0c0,0-0.1,0-0.1-0.1c-0.1,0-0.1-0.1-0.1-0.1c0,0-0.1,0-0.1,0c0,0-0.1,0-0.1,0s-0.1,0-0.2,0c-0.1,0-0.1,0-0.1,0
		c-0.1-0.1-0.2-0.1-0.5-0.1c-0.1,0-0.2,0-0.2,0c-0.2-0.1-0.3-0.2-0.4-0.1c0,0-0.1,0-0.1,0c0,0-0.1,0-0.1,0c-0.1,0-0.2,0-0.4-0.1
		c-0.5,0-0.7,0-0.9,0c0,0,0,0.1,0,0.2c0,0.1,0,0.2,0,0.2c0,0,0,0.1,0,0.1c0,0,0.1,0.1,0.1,0.1c0,0,0,0.1,0,0.2c0,0.1,0,0.1,0.1,0.2
		c0,0,0.1,0.1,0.1,0.1s0,0.1,0,0.2c0,0,0,0.1,0.1,0.2c0.1,0.1,0.1,0.2,0,0.3c0.1,0.2,0.2,0.4,0.2,0.5c0,0.2,0,0.3,0,0.3
		c0.2,0.2,0.2,0.3,0.2,0.4c0.1,0.1,0.1,0.2,0.1,0.5c0,0,0,0.1,0,0.1s0,0.1,0,0.1c0,0.1,0,0.1,0,0.1c0.1,0.1,0.1,0.2,0.1,0.2
		c0,0,0,0.1,0,0.1s0,0.1,0,0.1c0,0,0,0.1,0,0.2c0,0.1,0.1,0.1,0.1,0.2c0,0,0,0.1,0,0.2c0,0.1,0,0.2,0,0.2c0,0,0,0.1,0,0.1
		c0,0.2,0,0.3,0.1,0.3c0,0,0,0.1,0.1,0.1c0,0,0.1,0.1,0.1,0.1c0,0,0,0.1,0.1,0.3c0,0.1,0,0.2,0,0.3c0,0.1,0,0.2,0,0.3
		c0,0,0.1,0.1,0.1,0.1c0,0.1,0.1,0.1,0.1,0.1c0,0,0,0.1,0,0.2c0,0.1,0,0.2,0,0.2c0,0,0.1,0.1,0.1,0.1c0,0,0,0.1,0.1,0.1
		c0,0,0,0.1,0,0.3c0,0,0,0.1,0,0.1c0,0.1,0,0.1,0,0.1c0,0,0,0.1,0.1,0.1c0,0,0,0.1,0,0.1c0,0,0,0.1,0,0.2c0,0.1,0,0.1,0,0.1
		c0,0,0,0.1-0.1,0.1s-0.1,0,0,0.1c0.1,0.1,0.1,0.2,0.1,0.2c0.1,0.1,0.1,0.2,0.1,0.2c0,0,0,0.1,0,0.1c0,0-0.1,0.1-0.1,0.1
		c0,0,0,0.1,0.1,0.1c0,0,0.1,0.1,0.1,0.1s0,0,0,0.1c0,0,0,0.1,0,0.1c0,0,0.1,0.1,0.1,0.1c0,0.1,0,0.2,0,0.3c0,0,0,0.1,0.1,0.1
		c0,0,0,0.1,0,0.1c0,0,0,0.1,0,0.2s0,0.2,0,0.2c0,0,0,0.1,0.1,0.1c0.1,0,0.1,0.1,0.1,0.1c0,0.1,0,0.1,0,0.1s0,0,0,0.1
		c0,0,0,0.1,0,0.1c0,0,0,0.1,0,0.3c0,0.2,0,0.3,0,0.3c0,0,0.1,0.1,0.1,0.1c0,0.1,0.1,0.1,0.1,0.1c0,0.1,0,0.2,0,0.3
		c0,0.1,0,0.2,0,0.3c0.1,0,0.1,0.1,0.1,0.3c0.1,0.3,0.1,0.5,0.1,0.5c0.1,0.1,0.1,0.2,0.1,0.5c0,0.1,0,0.2,0,0.3c0,0,0,0.1,0.1,0.1
		c0,0,0.1,0,0.1,0.1c0,0,0,0.1,0,0.2c0,0.1,0,0.1,0,0.1c0.1,0.1,0.2,0,0.5-0.2c0,0,0.1,0,0.1,0c0.1,0,0.1-0.1,0.1-0.1
		c0.1-0.1,0.2-0.2,0.2-0.3c0,0,0.2-0.1,0.5-0.3c0,0,0-0.1,0.1-0.1c0.1-0.2,0.2-0.2,0.3-0.2c0.1-0.1,0.3-0.4,0.6-0.8
		c0-0.1,0.1-0.2,0.2-0.3c0-0.1,0.1-0.1,0.1-0.1c0.2-0.1,0.3-0.1,0.3-0.1c0-0.1,0.1-0.3,0.2-0.4c0.2-0.2,0.2-0.3,0.2-0.5
		c0.2-0.2,0.4-0.2,0.4-0.2c0-0.1,0-0.1,0.1-0.2c0.1-0.1,0.1-0.2,0.1-0.2c0,0,0.1-0.1,0.1-0.1c0.1-0.1,0.1-0.1,0.1-0.1
		c0-0.1,0.1-0.2,0.2-0.3c0.1-0.1,0.1-0.1,0.1-0.1c0,0,0.1,0,0.1,0c0,0,0-0.1,0-0.1c0,0,0.1,0,0.1-0.1c0,0,0.1-0.1,0.1-0.1
		c0-0.1,0-0.1,0-0.1c0-0.1,0.1-0.1,0.2-0.2c0.1-0.1,0.2-0.2,0.2-0.2c0-0.2,0.1-0.4,0.3-0.6c0.2-0.2,0.3-0.4,0.3-0.6
		c0,0,0-0.1,0.1-0.1c0,0,0.1-0.1,0.1-0.1c0-0.1,0-0.2,0.1-0.3c0.1-0.1,0.1-0.2,0.1-0.3c0.1,0,0.1-0.1,0.1-0.3c0-0.1,0-0.2,0-0.2
		c0.1-0.1,0.1-0.2,0.1-0.2c0,0,0-0.1,0-0.2c0-0.1,0-0.1,0.1-0.2c0.1-0.1,0.1-0.1,0.1-0.2c0,0,0-0.1,0-0.2c0-0.1,0-0.1,0-0.2
		c0,0,0-0.1,0.1-0.1c0.1-0.2,0.1-0.4,0.1-0.5c0.1-0.1,0.1-0.1,0.1-0.1c-0.1-0.1-0.1-0.3,0-0.6c0,0,0-0.1,0-0.1c0,0,0-0.1,0-0.1
		c-0.1-0.3-0.1-0.4,0-0.4l-0.1-0.3c0,0,0-0.1,0-0.1c0-0.1,0-0.1,0-0.1c0,0-0.1,0-0.1,0c0,0,0-0.1,0-0.1c-0.1-0.2-0.2-0.3-0.2-0.3
		c0,0,0,0-0.1,0c-0.1,0-0.1,0-0.1,0c0,0,0,0,0-0.1s0,0,0,0c0,0-0.1,0-0.1,0c-0.2-0.1-0.3-0.1-0.3-0.1c-0.1-0.1-0.1-0.1-0.1-0.1
		l-0.1,0c0,0-0.1,0-0.1-0.1c0-0.1-0.1-0.1-0.1-0.1h-0.2c0-0.1-0.1-0.1-0.3-0.1c-0.1-0.1-0.1-0.1-0.1-0.1s-0.1,0-0.2-0.1
		C65.1,45.1,65,45,64.8,45c0,0-0.1,0-0.1-0.1c0,0-0.1-0.1-0.1-0.1c0,0-0.1,0-0.1,0c-0.1,0-0.1,0-0.1,0c-0.1-0.1-0.2-0.1-0.2-0.1
		c-0.1,0-0.2,0-0.3,0c-0.1-0.1-0.2-0.1-0.2-0.1c0,0-0.1,0-0.1,0c-0.1,0-0.1,0-0.1,0c0,0,0,0-0.1-0.1c0,0-0.1-0.1-0.1-0.1
		c0,0,0,0-0.1,0c-0.1,0-0.1,0-0.1,0C63,44.4,63,44.4,63,44.4C62.9,44.4,62.8,44.5,62.8,44.5z M62.7,44.4
		C62.6,44.3,62.6,44.3,62.7,44.4C62.6,44.3,62.6,44.3,62.7,44.4c-0.1-0.1-0.2-0.1-0.3-0.1c-0.1,0-0.1,0-0.2,0c0,0-0.1,0-0.1-0.1
		c0,0-0.1-0.1-0.1-0.1c-0.1,0-0.1,0-0.1,0c0,0,0,0-0.1,0c0,0-0.1,0-0.1,0c0,0-0.1,0-0.2,0c-0.1,0-0.2,0-0.2,0c0,0-0.1,0-0.1-0.1
		c-0.1,0-0.1-0.1-0.1-0.1c0,0-0.1,0-0.1,0c0,0-0.1,0-0.1,0s-0.1,0-0.2,0c-0.1,0-0.1,0-0.1,0c-0.1-0.1-0.2-0.1-0.5-0.1
		c-0.1,0-0.2,0-0.2,0c-0.2-0.1-0.3-0.2-0.4-0.1c0,0-0.1,0-0.1,0c0,0-0.1,0-0.1,0c-0.1,0-0.2,0-0.4-0.1c-0.5,0-0.7,0-0.9,0
		c0,0,0,0.1,0,0.2c0,0.1,0,0.2,0,0.2c0,0,0,0.1,0,0.1c0,0,0.1,0.1,0.1,0.1c0,0,0,0.1,0,0.2c0,0.1,0,0.1,0.1,0.2c0,0,0.1,0.1,0.1,0.1
		s0,0.1,0,0.2c0,0,0,0.1,0.1,0.2c0.1,0.1,0.1,0.2,0,0.3c0.1,0.2,0.2,0.4,0.2,0.5c0,0.2,0,0.3,0,0.3c0.2,0.2,0.2,0.3,0.2,0.4
		c0.1,0.1,0.1,0.2,0.1,0.5c0,0,0,0.1,0,0.1s0,0.1,0,0.1c0,0.1,0,0.1,0,0.1c0.1,0.1,0.1,0.2,0.1,0.2c0,0,0,0.1,0,0.1s0,0.1,0,0.1
		c0,0,0,0.1,0,0.2c0,0.1,0.1,0.1,0.1,0.2c0,0,0,0.1,0,0.2c0,0.1,0,0.2,0,0.2c0,0,0,0.1,0,0.1c0,0.2,0,0.3,0.1,0.3c0,0,0,0.1,0.1,0.1
		c0,0,0.1,0.1,0.1,0.1c0,0,0,0.1,0.1,0.3c0,0.1,0,0.2,0,0.3c0,0.1,0,0.2,0,0.3c0,0,0.1,0.1,0.1,0.1c0,0.1,0.1,0.1,0.1,0.1
		c0,0,0,0.1,0,0.2c0,0.1,0,0.2,0,0.2c0,0,0.1,0.1,0.1,0.1c0,0,0,0.1,0.1,0.1c0,0.1,0,0.2,0,0.3c0,0,0,0.1,0,0.1c0,0.1,0,0.1,0,0.1
		c0,0,0,0.1,0.1,0.1c0,0,0,0.1,0,0.1c0,0,0,0.1,0,0.2c0,0.1,0,0.1,0,0.1c0,0,0,0.1-0.1,0.1s-0.1,0,0,0.1c0.1,0.1,0.1,0.2,0.1,0.2
		c0.1,0.1,0.1,0.2,0.1,0.2c0,0,0,0.1,0,0.1c0,0-0.1,0.1-0.1,0.1c0,0,0,0.1,0.1,0.1c0,0,0.1,0.1,0.1,0.1s0,0,0,0.1c0,0,0,0.1,0,0.1
		c0,0,0.1,0.1,0.1,0.1c0,0.1,0,0.2,0,0.3c0,0,0,0.1,0.1,0.1c0,0,0,0.1,0,0.1c0,0,0,0.1,0,0.2s0,0.2,0,0.2c0,0,0,0.1,0.1,0.1
		c0.1,0,0.1,0.1,0.1,0.1c0,0.1,0,0.1,0,0.1s0,0,0,0.1c0,0,0,0.1,0,0.1c0,0,0,0.1,0,0.3c0,0.2,0,0.3,0,0.3c0,0,0.1,0.1,0.1,0.1
		c0,0.1,0.1,0.1,0.1,0.1c0,0.1,0,0.2,0,0.3c0,0.1,0,0.2,0,0.3c0.1,0,0.1,0.1,0.1,0.3c0.1,0.3,0.1,0.5,0.1,0.5
		c0.1,0.1,0.1,0.2,0.1,0.5c0,0.1,0,0.2,0,0.3c0,0,0,0.1,0.1,0.1c0,0,0.1,0,0.1,0.1c0,0,0,0.1,0,0.2c0,0.1,0,0.1,0,0.1
		c0.1,0.1,0.2,0,0.5-0.2c0,0,0.1,0,0.1,0c0.1,0,0.1-0.1,0.1-0.1c0.1-0.1,0.2-0.2,0.2-0.3c0,0,0.2-0.1,0.5-0.3c0,0,0-0.1,0.1-0.1
		c0.1-0.2,0.2-0.2,0.3-0.2c0.1-0.1,0.3-0.4,0.6-0.8c0-0.1,0.1-0.2,0.2-0.3c0-0.1,0.1-0.1,0.1-0.1c0.2-0.1,0.3-0.1,0.3-0.1
		c0-0.1,0.1-0.3,0.2-0.4c0.2-0.2,0.2-0.3,0.2-0.5c0.2-0.2,0.4-0.2,0.4-0.2c0-0.1,0-0.1,0.1-0.2c0.1-0.1,0.1-0.2,0.1-0.2
		c0,0,0.1-0.1,0.1-0.1c0.1-0.1,0.1-0.1,0.1-0.1c0-0.1,0.1-0.2,0.2-0.3c0.1-0.1,0.1-0.1,0.1-0.1c0,0,0.1,0,0.1,0c0,0,0-0.1,0-0.1
		c0,0,0.1,0,0.1-0.1c0,0,0.1-0.1,0.1-0.1c0-0.1,0-0.1,0-0.1c0-0.1,0.1-0.1,0.2-0.2c0.1-0.1,0.2-0.2,0.2-0.2c0-0.2,0.1-0.4,0.3-0.6
		c0.2-0.2,0.3-0.4,0.3-0.6c0,0,0-0.1,0.1-0.1c0,0,0.1-0.1,0.1-0.1c0-0.1,0-0.2,0.1-0.3c0.1-0.1,0.1-0.2,0.1-0.3
		c0.1,0,0.1-0.1,0.1-0.3c0-0.1,0-0.2,0-0.2c0.1-0.1,0.1-0.2,0.1-0.2c0,0,0-0.1,0-0.2c0-0.1,0-0.1,0.1-0.2c0.1-0.1,0.1-0.1,0.1-0.2
		c0,0,0-0.1,0-0.2c0-0.1,0-0.1,0-0.2c0,0,0-0.1,0.1-0.1c0.1-0.2,0.1-0.4,0.1-0.5c0.1-0.1,0.1-0.1,0.1-0.1c-0.1-0.1-0.1-0.3,0-0.6
		c0,0,0-0.1,0-0.1c0,0,0-0.1,0-0.1c-0.1-0.3-0.1-0.4,0-0.4l-0.1-0.3c0,0,0-0.1,0-0.1c0-0.1,0-0.1,0-0.1c0,0-0.1,0-0.1,0
		c0,0,0-0.1,0-0.1c-0.1-0.2-0.2-0.3-0.2-0.3c0,0,0,0-0.1,0c-0.1,0-0.1,0-0.1,0c0,0,0,0,0-0.1s0,0,0,0c0,0-0.1,0-0.1,0
		c-0.2-0.1-0.3-0.1-0.3-0.1c-0.1-0.1-0.1-0.1-0.1-0.1l-0.1,0c0,0-0.1,0-0.1-0.1c0-0.1-0.1-0.1-0.1-0.1h-0.2c0-0.1-0.1-0.1-0.3-0.1
		c-0.1-0.1-0.1-0.1-0.1-0.1s-0.1,0-0.2-0.1C65.1,45.1,65,45,64.8,45c0,0-0.1,0-0.1-0.1c0,0-0.1-0.1-0.1-0.1c0,0-0.1,0-0.1,0
		c-0.1,0-0.1,0-0.1,0c-0.1-0.1-0.2-0.1-0.2-0.1c-0.1,0-0.2,0-0.3,0c-0.1-0.1-0.2-0.1-0.2-0.1c0,0-0.1,0-0.1,0c-0.1,0-0.1,0-0.1,0
		c0,0,0,0-0.1-0.1c0,0-0.1-0.1-0.1-0.1c0,0,0,0-0.1,0c-0.1,0-0.1,0-0.1,0C63,44.4,63,44.4,63,44.4C62.9,44.4,62.8,44.5,62.7,44.4
		C62.7,44.5,62.7,44.4,62.7,44.4z"/>
	<path fill="#D93427" d="M79.8,42.5c0.1,0,0.2,0,0.3,0c0.1,0,0.3,0,0.4,0c0,0,0.1,0,0.2,0.1c0,0,0.1,0,0.2,0s0.2,0,0.2,0
		s0.1,0,0.1,0c0,0,0.1,0,0.1,0s0,0,0.1,0c0,0,0.1,0,0.1,0c0.1,0.2,0.2,0.3,0.3,0.2l0.3,0.2c0,0.1,0,0.1,0.1,0.2
		c0.1,0.1,0.1,0.1,0.1,0.1c0.1,0,0.1,0,0.2,0.1c0.1,0.1,0.2,0.1,0.2,0.1c0,0,0.1,0,0.1,0c0,0,0.1,0,0.1,0c0.2-0.1,0.3-0.1,0.4-0.1
		c0,0,0.1,0,0.3,0c0,0,0.1,0,0.2,0c0.1,0,0.2,0,0.2,0c0,0,0.1,0,0.1,0.1c0,0,0.1,0.1,0.1,0.1c0,0,0.1,0,0.2,0c0.1,0,0.2,0,0.2,0
		c0,0,0.1,0.1,0.2,0.2c0.1,0.1,0.2,0.2,0.4,0.1c0,0,0,0.1,0.1,0.1c0.1,0,0.2,0,0.3,0.1c0.1,0.1,0.2,0.1,0.2,0.1c0,0,0.1,0,0.1,0
		c0.4,0.2,0.6,0.4,0.8,0.4h0.2c0,0.1-0.1,0.1-0.2,0l0,0.1c0,0.1,0.2,0.2,0.4,0.3c0.2,0.1,0.4,0.3,0.4,0.4c0,0.1,0.1,0.1,0.2,0.2
		c0.2,0.2,0.4,0.4,0.4,0.5c0.2,0.1,0.2,0.3,0.2,0.4c0,0.1,0.1,0.2,0.2,0.3c0.1,0.1,0.2,0.2,0.2,0.3c0.1,0.2,0.2,0.4,0.2,0.4
		c0,0,0,0.1,0.1,0.1c0.1,0.2,0.1,0.3,0.1,0.4l0.1,0.1c0,0.1,0,0.2,0.1,0.3c0.1,0.3,0.1,0.5,0.1,0.5c0,0.2,0.1,0.3,0.1,0.4
		c0,0,0,0.1,0.1,0.3c-0.1,0-0.1,0.1,0,0.2c0.1,0.1,0.1,0.2,0.1,0.3c0,0,0,0.1,0,0.1c0,0,0,0.1,0,0.1c0,0,0,0,0.1,0.1
		c0,0,0,0.1,0,0.1c0,0.1,0,0.2,0,0.4c0,0.2,0,0.3,0,0.4c0,0.1,0,0.2,0,0.2c0,0,0,0.1,0,0.2c0,0,0,0.1,0.1,0.2c0,0,0,0.1,0,0.1
		c0,0,0,0,0,0.1c0.1,0.1,0.1,0.5,0.1,1.2c0,0.7,0,1.1,0,1.2c0,0,0,0.1,0,0.2c0,0.1,0,0.2,0,0.3c0,0,0,0.1-0.1,0.2
		c-0.1,0.1-0.1,0.2,0,0.3c0,0,0,0.1,0,0.2c0,0.1,0.1,0.2,0.1,0.2c-0.1,0-0.2,0.1-0.2,0.1c0,0.3,0,0.5,0,0.5c0,0,0,0.1,0,0.1
		c0,0-0.1,0.1-0.1,0.1c0,0,0,0.1,0,0.1c-0.1,0.2-0.1,0.3-0.1,0.3c0,0,0,0.1-0.1,0.1c0,0-0.1,0-0.1,0c0,0,0,0,0,0.1
		c0,0-0.1,0.1-0.1,0.1c0,0.1-0.1,0.1-0.1,0.2l-0.3,0.3c0,0.1-0.1,0.3-0.2,0.5c-0.1,0.2-0.2,0.4-0.2,0.5c-0.2,0.2-0.2,0.3-0.2,0.5
		c0,0-0.1,0-0.2,0.1c0,0.1,0,0.1-0.1,0.2c-0.1,0.1-0.1,0.2-0.1,0.3c-0.1,0-0.2,0.1-0.2,0.2c-0.1,0.1-0.1,0.2-0.2,0.2
		c0,0-0.1,0.1-0.2,0.2c-0.1,0.1-0.1,0.2-0.2,0.2c0,0.1,0,0.1-0.1,0.2c-0.2,0.1-0.4,0.2-0.6,0.4c-0.1,0.1-0.2,0.2-0.2,0.2
		c-0.1,0.1-0.2,0.2-0.4,0.3c-0.2,0.1-0.3,0.2-0.4,0.3c0,0-0.1,0-0.1,0s0,0-0.1,0c0,0-0.1,0.1-0.2,0.1c-0.1,0.1-0.1,0.1-0.2,0.1
		c-0.1,0-0.2,0-0.3,0.1c-0.1,0-0.2,0-0.3,0.1c-0.1,0-0.1,0-0.2,0c-0.1,0-0.2,0-0.2,0c0,0-0.1,0.1-0.2,0.2c-0.2,0-0.3,0-0.4,0
		c0,0.1-0.1,0.1-0.3,0.1c-0.2,0-0.3,0.1-0.3,0.2c-0.1,0-0.4,0-0.8,0s-0.7,0-0.9,0c-0.1,0-0.2,0-0.3,0c-0.2,0-0.3,0-0.4,0
		c0,0-0.1-0.1-0.1-0.2c-0.1,0-0.2,0-0.2,0.1c0,0.1-0.1,0.1-0.1,0.1c0,0-0.1,0-0.1-0.1l0.1,0c0,0-0.1,0-0.1-0.1
		c-0.1,0-0.1-0.1-0.1-0.1c-0.2,0.1-0.4,0-0.6-0.1c-0.2-0.1-0.4-0.2-0.5-0.1c0,0,0-0.1,0-0.1c0,0-0.1,0-0.3-0.1
		c-0.1-0.1-0.3-0.1-0.5-0.1V63c0,0-0.1-0.1-0.1-0.2c-0.1-0.1-0.1-0.1-0.1-0.2c-0.1,0-0.1-0.1-0.1-0.1c0,0,0,0-0.1-0.1
		c0,0-0.1-0.1-0.1-0.1c0,0,0,0-0.1,0c0,0-0.1,0-0.1,0s0,0,0,0c0,0,0,0,0,0c0,0-0.1,0-0.2-0.1c0,0-0.1,0-0.1-0.1
		c-0.1-0.1-0.1-0.1-0.1-0.2c-0.1,0-0.1,0-0.1,0c-0.1-0.1-0.2-0.2-0.3-0.3c-0.1-0.1-0.2-0.3-0.3-0.4h-0.1c-0.3-0.4-0.5-0.6-0.5-0.8
		c0,0-0.1-0.2-0.3-0.4V60c0,0-0.1-0.1-0.1-0.2c-0.1-0.1-0.1-0.1-0.1-0.2c0-0.3-0.1-0.6-0.3-0.9c0-0.1,0-0.2-0.1-0.3
		c0-0.1,0-0.1,0-0.1c0,0,0,0,0-0.1c0,0,0-0.1,0-0.1c0,0,0-0.1-0.1-0.1c0,0-0.1-0.1-0.1-0.1c0,0,0-0.2,0-0.5c0,0,0-0.1,0-0.1
		c0,0,0-0.1,0-0.1c0,0-0.1,0-0.1-0.1c0,0,0-0.1,0-0.1c0-0.1,0-0.2,0-0.4c0-0.2,0-0.3,0-0.4c0,0-0.1,0-0.1-0.1c0,0,0-0.1,0-0.2
		c0,0,0-0.1,0-0.1c0,0,0-0.1-0.1-0.1c0-0.1,0-0.1,0-0.1c-0.1-0.1-0.1-0.2-0.1-0.2c0,0,0-0.1,0-0.1c0,0,0.1-0.1,0.1-0.1
		c0.1-0.2,0-0.3-0.1-0.4c0,0,0-0.1,0-0.2v-0.1l0.2-0.2c0-0.1,0-0.3,0-0.7c0-0.4,0-0.6,0-0.7c0-0.1,0-0.1,0-0.2c0-0.1,0-0.1,0-0.2
		c0-0.1,0-0.2,0-0.4c0-0.2,0-0.3,0-0.5c0-0.1,0.1-0.2,0.2-0.3c0,0,0-0.1,0-0.1c0,0,0-0.1,0-0.1c0,0,0-0.1,0-0.1c0,0,0.1-0.1,0.1-0.1
		c0,0,0-0.2,0-0.4c0-0.3,0-0.4,0-0.5c0-0.4,0-0.6,0-0.6c0,0,0.1,0,0.2-0.1c0.1-0.1,0.1-0.1,0.2-0.1c0-0.1,0-0.1,0-0.1
		c0,0-0.1-0.1-0.1-0.1c0,0,0.1-0.1,0.1-0.1c0,0,0.1-0.1,0.1-0.2c0-0.1,0-0.1,0-0.2c0.1-0.1,0.1-0.1,0.1-0.1c0-0.1,0-0.2,0-0.4
		c0-0.2,0-0.3,0.1-0.3c0,0,0.1,0,0.1,0c0.1,0,0.1,0,0.1,0c0-0.1,0-0.1-0.1-0.1c-0.1,0-0.1,0-0.1-0.1l0.1-0.2c0,0,0.1-0.1,0.1-0.2
		c0.1-0.1,0.1-0.2,0.1-0.2c0,0,0-0.1,0-0.1c0,0,0,0,0-0.1c0.1-0.1,0.1-0.2,0.1-0.3c0.1,0,0.1-0.1,0.2-0.2s0.1-0.2,0.1-0.2
		c0-0.1,0-0.2,0.1-0.3c0.1-0.1,0.2-0.2,0.2-0.2c0,0,0-0.1,0-0.1c0,0,0-0.1,0.1-0.1c0-0.1,0.1-0.1,0.2-0.2c0.1-0.1,0.2-0.2,0.2-0.3
		c0.1,0,0.2-0.1,0.3-0.3c0.1,0,0.2-0.1,0.2-0.3c0-0.1,0-0.2,0-0.2c0.1,0.1,0.2,0,0.3-0.1c0.1,0,0.1-0.1,0.1-0.1h0.1
		c0.1,0,0.1-0.1,0.2-0.1c0.1-0.1,0.1-0.1,0.2-0.1c0.2,0,0.4-0.1,0.6-0.3c0.1,0,0.2,0,0.3-0.1c0.1-0.1,0.2-0.1,0.2-0.2c0,0,0,0,0,0
		c0,0,0,0,0-0.1c0.1,0.1,0.2,0,0.4-0.1c0.1,0,0.2,0,0.3,0C79.6,42.4,79.7,42.5,79.8,42.5z M80.5,42.5c0,0,0.1,0,0.2,0.1
		c0,0,0.1,0,0.2,0s0.2,0,0.2,0s0.1,0,0.1,0c0,0,0.1,0,0.1,0s0,0,0.1,0c0,0,0.1,0,0.1,0c0.1,0.2,0.2,0.3,0.3,0.2l0.3,0.2
		c0,0.1,0,0.1,0.1,0.2c0.1,0.1,0.1,0.1,0.1,0.1c0.1,0,0.1,0,0.2,0.1c0.1,0.1,0.2,0.1,0.2,0.1c0,0,0.1,0,0.1,0c0,0,0.1,0,0.1,0
		c0.2-0.1,0.3-0.1,0.4-0.1c0,0,0.1,0,0.3,0c0,0,0.1,0,0.2,0c0.1,0,0.2,0,0.2,0c0,0,0.1,0,0.1,0.1c0,0,0.1,0.1,0.1,0.1
		c0,0,0.1,0,0.2,0c0.1,0,0.2,0,0.2,0c0,0,0.1,0.1,0.2,0.2c0.1,0.1,0.2,0.2,0.4,0.1c0,0,0,0.1,0.1,0.1c0.1,0,0.2,0,0.3,0.1
		c0.1,0.1,0.2,0.1,0.2,0.1c0,0,0.1,0,0.1,0c0.4,0.2,0.6,0.4,0.8,0.4h0.2c0,0.1-0.1,0.1-0.2,0l0,0.1c0,0.1,0.2,0.2,0.4,0.3
		c0.2,0.1,0.4,0.3,0.4,0.4c0,0.1,0.1,0.1,0.2,0.2c0.2,0.2,0.4,0.4,0.4,0.5c0.2,0.1,0.2,0.3,0.2,0.4c0,0.1,0.1,0.2,0.2,0.3
		c0.1,0.1,0.2,0.2,0.2,0.3c0.1,0.2,0.2,0.4,0.2,0.4c0,0,0,0.1,0.1,0.1c0.1,0.2,0.1,0.3,0.1,0.4l0.1,0.1c0,0.1,0,0.2,0.1,0.3
		c0.1,0.3,0.1,0.5,0.1,0.5c0,0.2,0.1,0.3,0.1,0.4c0,0,0,0.1,0.1,0.3c-0.1,0-0.1,0.1,0,0.2c0.1,0.1,0.1,0.2,0.1,0.3c0,0,0,0.1,0,0.1
		c0,0,0,0.1,0,0.1c0,0,0,0,0.1,0.1c0,0,0,0.1,0,0.1c0,0.1,0,0.2,0,0.4c0,0.2,0,0.3,0,0.4c0,0.1,0,0.2,0,0.2c0,0,0,0.1,0,0.2
		c0,0,0,0.1,0.1,0.2c0,0,0,0.1,0,0.1c0,0,0,0,0,0.1c0.1,0.1,0.1,0.5,0.1,1.2c0,0.7,0,1.1,0,1.2c0,0,0,0.1,0,0.2c0,0.1,0,0.2,0,0.3
		c0,0,0,0.1-0.1,0.2c-0.1,0.1-0.1,0.2,0,0.3c0,0,0,0.1,0,0.2c0,0.1,0.1,0.2,0.1,0.2c-0.1,0-0.2,0.1-0.2,0.1c0,0.3,0,0.5,0,0.5
		c0,0,0,0.1,0,0.1c0,0-0.1,0.1-0.1,0.1c0,0,0,0.1,0,0.1c-0.1,0.2-0.1,0.3-0.1,0.3c0,0,0,0.1-0.1,0.1c0,0-0.1,0-0.1,0c0,0,0,0,0,0.1
		c0,0-0.1,0.1-0.1,0.1c0,0.1-0.1,0.1-0.1,0.2l-0.3,0.3c0,0.1-0.1,0.3-0.2,0.5c-0.1,0.2-0.2,0.4-0.2,0.5c-0.2,0.2-0.2,0.3-0.2,0.5
		c0,0-0.1,0-0.2,0.1c0,0.1,0,0.1-0.1,0.2c-0.1,0.1-0.1,0.2-0.1,0.3c-0.1,0-0.2,0.1-0.2,0.2c-0.1,0.1-0.1,0.2-0.2,0.2
		c0,0-0.1,0.1-0.2,0.2c-0.1,0.1-0.1,0.2-0.2,0.2c0,0.1,0,0.1-0.1,0.2c-0.2,0.1-0.4,0.2-0.6,0.4c-0.1,0.1-0.2,0.2-0.2,0.2
		c-0.1,0.1-0.2,0.2-0.4,0.3c-0.2,0.1-0.3,0.2-0.4,0.3c0,0-0.1,0-0.1,0s0,0-0.1,0c0,0-0.1,0.1-0.2,0.1c-0.1,0.1-0.1,0.1-0.2,0.1
		c-0.1,0-0.2,0-0.3,0.1c-0.1,0-0.2,0-0.3,0.1c-0.1,0-0.1,0-0.2,0c-0.1,0-0.2,0-0.2,0c0,0-0.1,0.1-0.2,0.2c-0.2,0-0.3,0-0.4,0
		c0,0.1-0.1,0.1-0.3,0.1c-0.2,0-0.3,0.1-0.3,0.2c-0.1,0-0.4,0-0.8,0s-0.7,0-0.9,0c-0.1,0-0.2,0-0.3,0c-0.2,0-0.3,0-0.4,0
		c0,0-0.1-0.1-0.1-0.2c-0.1,0-0.2,0-0.2,0.1c0,0.1-0.1,0.1-0.1,0.1c0,0-0.1,0-0.1-0.1l0.1,0c0,0-0.1,0-0.1-0.1
		c-0.1,0-0.1-0.1-0.1-0.1c-0.2,0.1-0.4,0-0.6-0.1c-0.2-0.1-0.4-0.2-0.5-0.1c0,0,0-0.1,0-0.1c0,0-0.1,0-0.3-0.1
		c-0.1-0.1-0.3-0.1-0.5-0.1V63c0,0-0.1-0.1-0.1-0.2c-0.1-0.1-0.1-0.1-0.1-0.2c-0.1,0-0.1-0.1-0.1-0.1c0,0,0,0-0.1-0.1
		c0,0-0.1-0.1-0.1-0.1c0,0,0,0-0.1,0c0,0-0.1,0-0.1,0s0,0,0,0c0,0,0,0,0,0c0,0-0.1,0-0.2-0.1c0,0-0.1,0-0.1-0.1
		c-0.1-0.1-0.1-0.1-0.1-0.2c-0.1,0-0.1,0-0.1,0c-0.1-0.1-0.2-0.2-0.3-0.3c-0.1-0.1-0.2-0.3-0.3-0.4h-0.1c-0.3-0.4-0.5-0.6-0.5-0.8
		c0,0-0.1-0.2-0.3-0.4V60c0,0-0.1-0.1-0.1-0.2c-0.1-0.1-0.1-0.1-0.1-0.2c0-0.3-0.1-0.6-0.3-0.9c0-0.1,0-0.2-0.1-0.3
		c0-0.1,0-0.1,0-0.1c0,0,0,0,0-0.1c0,0,0-0.1,0-0.1c0,0,0-0.1-0.1-0.1c0,0-0.1-0.1-0.1-0.1c0,0,0-0.2,0-0.5c0,0,0-0.1,0-0.1
		c0,0,0-0.1,0-0.1c0,0-0.1,0-0.1-0.1c0,0,0-0.1,0-0.1c0-0.1,0-0.2,0-0.4c0-0.2,0-0.3,0-0.4c0,0-0.1,0-0.1-0.1c0,0,0-0.1,0-0.2
		c0,0,0-0.1,0-0.1c0,0,0-0.1-0.1-0.1c0-0.1,0-0.1,0-0.1c-0.1-0.1-0.1-0.2-0.1-0.2c0,0,0-0.1,0-0.1c0,0,0.1-0.1,0.1-0.1
		c0.1-0.2,0-0.3-0.1-0.4c0,0,0-0.1,0-0.2v-0.1l0.2-0.2c0-0.1,0-0.3,0-0.7c0-0.4,0-0.6,0-0.7c0-0.1,0-0.1,0-0.2c0-0.1,0-0.1,0-0.2
		c0-0.1,0-0.2,0-0.4c0-0.2,0-0.3,0-0.5c0-0.1,0.1-0.2,0.2-0.3c0,0,0-0.1,0-0.1c0,0,0-0.1,0-0.1c0,0,0-0.1,0-0.1c0,0,0.1-0.1,0.1-0.1
		c0,0,0-0.2,0-0.4c0-0.3,0-0.4,0-0.5c0-0.4,0-0.6,0-0.6c0,0,0.1,0,0.2-0.1c0.1-0.1,0.1-0.1,0.2-0.1c0-0.1,0-0.1,0-0.1
		c0,0-0.1-0.1-0.1-0.1c0,0,0.1-0.1,0.1-0.1c0,0,0.1-0.1,0.1-0.2c0-0.1,0-0.1,0-0.2c0.1-0.1,0.1-0.1,0.1-0.1c0-0.1,0-0.2,0-0.4
		c0-0.2,0-0.3,0.1-0.3c0,0,0.1,0,0.1,0c0.1,0,0.1,0,0.1,0c0-0.1,0-0.1-0.1-0.1c-0.1,0-0.1,0-0.1-0.1l0.1-0.2c0,0,0.1-0.1,0.1-0.2
		c0.1-0.1,0.1-0.2,0.1-0.2c0,0,0-0.1,0-0.1c0,0,0,0,0-0.1c0.1-0.1,0.1-0.2,0.1-0.3c0.1,0,0.1-0.1,0.2-0.2s0.1-0.2,0.1-0.2
		c0-0.1,0-0.2,0.1-0.3c0.1-0.1,0.2-0.2,0.2-0.2c0,0,0-0.1,0-0.1c0,0,0-0.1,0.1-0.1c0-0.1,0.1-0.1,0.2-0.2c0.1-0.1,0.2-0.2,0.2-0.3
		c0.1,0,0.2-0.1,0.3-0.3c0.1,0,0.2-0.1,0.2-0.3c0-0.1,0-0.2,0-0.2c0.1,0.1,0.2,0,0.3-0.1c0.1,0,0.1-0.1,0.1-0.1h0.1
		c0.1,0,0.1-0.1,0.2-0.1c0.1-0.1,0.1-0.1,0.2-0.1c0.2,0,0.4-0.1,0.6-0.3c0.1,0,0.2,0,0.3-0.1c0.1-0.1,0.2-0.1,0.2-0.2c0,0,0,0,0,0
		c0,0,0,0,0-0.1c0.1,0.1,0.2,0,0.4-0.1c0.1,0,0.2,0,0.3,0c0.1,0,0.3,0,0.3,0c0.1,0,0.2,0,0.3,0C80.2,42.5,80.4,42.5,80.5,42.5z
		 M80.4,45.5c-0.2,0.1-0.4,0.2-0.6,0.3s-0.4,0.2-0.6,0.4c-0.2,0.2-0.3,0.3-0.4,0.5c0,0-0.1,0.1-0.1,0.2c-0.1,0.1-0.1,0.1-0.1,0.1
		v0.1c0,0,0,0.1-0.1,0.1c0,0-0.1,0.1-0.1,0.1c0,0-0.1,0.2-0.2,0.4c0,0.1,0,0.1-0.1,0.2c-0.1,0.1-0.1,0.1-0.1,0.1c0,0.1,0,0.2,0,0.2
		c0,0,0,0.1-0.1,0.2c0,0,0,0.1,0,0.2c0,0.1,0,0.1,0,0.2c0,0,0,0.1,0,0.1c-0.1,0.1-0.1,0.2-0.1,0.2c-0.2,0.1-0.2,0.3-0.2,0.5
		c-0.1,0.1-0.2,0.3-0.1,0.7c-0.1,0.1-0.2,0.3-0.1,0.5c-0.2,0.3-0.2,0.5-0.1,0.7c0,0,0,0.1-0.1,0.1c0,0-0.1,0-0.1,0.1
		c0,0.1,0,0.2-0.1,0.4c-0.1,0.2-0.1,0.3,0,0.4c-0.1,0.1-0.1,0.3-0.1,0.6c0,0,0,0.1,0,0.1c0,0.1,0,0.1,0,0.1c0,0,0,0.1-0.1,0.1
		c0,0-0.1,0.1-0.1,0.1c0.1,0.1,0.1,0.2,0.1,0.3c0,0.1,0,0.3,0,0.5c0,0.2,0,0.3,0,0.4c0,0,0,0.1-0.1,0.1c0,0,0,0.1,0,0.1l0.1,0.1
		c0,0.1,0,0.2-0.1,0.5c0,0,0,0.1,0.1,0.1c0,0,0,0.1,0,0.1c0,0,0,0.1,0,0.1c0,0,0,0.1,0,0.1c0,0.2,0,0.3,0,0.4c0,0,0.1,0.1,0.1,0.1
		c0,0,0,0.1,0,0.1c0,0,0,0,0,0c0,0,0,0,0,0.1c0,0.1,0.1,0.2,0.1,0.2c0,0.1,0,0.1,0,0.2c0,0.1,0,0.1,0,0.1c0,0,0,0,0,0.1
		c0,0,0,0.1,0,0.1c0,0,0.1,0,0.1,0.1c0,0,0,0.1,0,0.1c0,0,0,0.1,0,0.1c0,0,0,0.1,0,0.1c0,0,0,0,0,0.1c0,0,0,0.1,0,0.1
		c0,0,0.1,0,0.1,0.1c0,0,0.1,0.1,0.1,0.1c0.1,0,0.1,0.1,0.1,0.1c-0.1,0.1-0.1,0.3,0.1,0.4V59c0,0,0,0.1,0.1,0.1
		c0.1,0,0.1,0.1,0.1,0.2l0.2,0.2c0.1,0.1,0.2,0.3,0.5,0.5c0.2,0.2,0.3,0.3,0.4,0.4c0.1,0,0.1,0,0.1,0c0.2,0.3,0.5,0.5,0.7,0.5
		c0.1,0.1,0.2,0.2,0.2,0.2c0,0,0.1,0,0.2,0c0.1,0,0.2,0,0.2,0c0,0,0.1,0.1,0.1,0.1c0,0,0.1,0.1,0.1,0.1c0,0,0.1,0,0.1,0
		c0,0,0.1,0,0.1,0c0,0,0,0,0.1,0c0.1,0,0.1,0,0.1,0c0.2,0,0.5,0,0.7,0c0,0,0.1,0,0.2-0.1c0.1-0.1,0.2-0.1,0.2-0.1c0.1,0,0.2,0,0.2,0
		c0,0,0.1,0,0.1-0.1c0,0,0.1-0.1,0.1-0.1c0,0,0.1,0,0.2,0c0.1-0.1,0.2-0.2,0.4-0.1c0.1-0.1,0.3-0.2,0.5-0.4c0.2-0.2,0.4-0.3,0.6-0.4
		c0,0,0-0.1,0.1-0.1c0,0,0.1-0.1,0.1-0.1c0,0,0,0,0-0.1c0-0.1,0.1-0.1,0.2-0.2c0.1-0.1,0.1-0.1,0.1-0.1c0,0,0.1-0.1,0.1-0.2
		c0.1-0.1,0.1-0.2,0.1-0.2c0,0,0-0.1,0.1-0.1c0.1,0,0.1-0.1,0.1-0.1c0.1-0.1,0.2-0.2,0.2-0.2c0,0,0-0.1,0-0.1c0,0,0.1-0.2,0.3-0.5
		c0,0,0-0.1,0.1-0.1c0,0,0.1-0.2,0.1-0.5c0-0.1,0.1-0.2,0.2-0.3c0,0,0-0.1,0-0.1c0,0,0-0.1,0.1-0.1c0,0,0.1-0.1,0.1-0.1
		c0,0,0-0.1,0-0.1c0-0.1,0-0.1,0-0.1c0.1-0.1,0.2-0.4,0.3-0.9l0.1-0.3c0,0,0-0.1,0-0.1c0-0.1,0-0.1,0-0.1c0.1-0.1,0.1-0.2,0.1-0.2
		c0,0,0-0.1-0.1-0.1c-0.1,0-0.1-0.1-0.1-0.1c0-0.1,0-0.1,0.1-0.2c0.1-0.1,0.1-0.2,0.1-0.2c0-0.1,0-0.2,0-0.3c-0.1-0.1-0.1-0.2,0-0.2
		c0,0,0-0.1,0.1-0.1c0,0,0-0.1,0-0.1c0,0-0.1-0.1-0.1-0.1c0,0-0.1-0.1-0.1-0.1c0.1-0.1,0.1-0.1,0.1-0.1c0,0,0-0.1-0.1-0.1
		c0,0,0-0.1,0-0.1c0-0.1,0-0.2,0-0.3c0-0.1,0-0.2,0-0.2c0,0,0-0.1,0-0.1c0,0,0.1-0.1,0.1-0.1c0,0,0-0.1-0.1-0.1c0-0.1,0-0.1-0.1-0.2
		c-0.1,0-0.1-0.1-0.1-0.1c0-0.1,0-0.1,0.1-0.2c0-0.1,0.1-0.1,0-0.2c0,0,0-0.1,0-0.1c0,0-0.1-0.1-0.1-0.1c0-0.1,0-0.1,0-0.1
		c0-0.1,0.1-0.1,0.1-0.1c-0.1,0-0.2-0.2-0.2-0.4c0-0.2-0.1-0.4-0.2-0.4c0,0,0-0.1,0-0.2c0-0.1,0-0.2,0-0.2c-0.1-0.1-0.2-0.2-0.2-0.3
		c-0.3-0.6-0.8-1.1-1.4-1.7h-0.2c0-0.1-0.1-0.2-0.3-0.3h-0.1l-0.2-0.1c0,0-0.1-0.1-0.1-0.1c-0.1-0.1-0.2-0.1-0.3-0.1
		c0,0-0.1,0-0.2,0c-0.1,0-0.2,0-0.2,0c-0.1-0.1-0.2-0.1-0.3-0.1c-0.1,0-0.2,0-0.3,0c-0.1,0-0.2,0-0.3,0c-0.2-0.2-0.3-0.3-0.4-0.2
		c-0.1-0.1-0.1-0.2,0-0.3c0,0,0-0.1,0.1-0.1c0,0,0.1-0.1,0.1-0.1c0-0.1,0-0.1-0.1-0.1c-0.1,0-0.1,0-0.1,0c0-0.2-0.1-0.2-0.1-0.2
		c-0.1,0-0.3,0-0.5,0C80.7,45.5,80.5,45.5,80.4,45.5z M81.4,45.5c-0.1,0-0.3,0-0.5,0c-0.2,0-0.4,0-0.6,0c-0.2,0.1-0.4,0.2-0.6,0.3
		s-0.4,0.2-0.6,0.4c-0.2,0.2-0.3,0.3-0.4,0.5c0,0-0.1,0.1-0.1,0.2c-0.1,0.1-0.1,0.1-0.1,0.1v0.1c0,0,0,0.1-0.1,0.1
		c0,0-0.1,0.1-0.1,0.1c0,0-0.1,0.2-0.2,0.4c0,0.1,0,0.1-0.1,0.2c-0.1,0.1-0.1,0.1-0.1,0.1c0,0.1,0,0.2,0,0.2c0,0,0,0.1-0.1,0.1
		c0,0,0,0.1,0,0.2c0,0.1,0,0.1,0,0.2c0,0,0,0.1,0,0.1c-0.1,0.1-0.1,0.2-0.1,0.2c-0.2,0.1-0.2,0.3-0.2,0.5c-0.1,0.1-0.2,0.3-0.1,0.7
		c-0.1,0.1-0.2,0.3-0.1,0.5c-0.2,0.3-0.2,0.5-0.1,0.7c0,0,0,0.1-0.1,0.1c0,0-0.1,0-0.1,0.1c0,0.1,0,0.2-0.1,0.4
		c-0.1,0.2-0.1,0.3,0,0.4c-0.1,0.1-0.1,0.3-0.1,0.6c0,0,0,0.1,0,0.1c0,0.1,0,0.1,0,0.1c0,0,0,0.1-0.1,0.1c0,0-0.1,0.1-0.1,0.1
		c0.1,0.1,0.1,0.2,0.1,0.3c0,0.1,0,0.3,0,0.5c0,0.2,0,0.3,0,0.4c0,0,0,0.1-0.1,0.1c0,0,0,0.1,0,0.1l0.1,0.1c0,0.1,0,0.2-0.1,0.5
		c0,0,0,0.1,0.1,0.1c0,0,0,0.1,0,0.1c0,0,0,0.1,0,0.1c0,0,0,0.1,0,0.1c0,0.2,0,0.3,0,0.4c0,0,0.1,0.1,0.1,0.1c0,0,0,0.1,0,0.1
		c0,0,0,0,0,0c0,0,0,0,0,0.1c0,0.1,0.1,0.2,0.1,0.2c0,0.1,0,0.1,0,0.2c0,0.1,0,0.1,0,0.1c0,0,0,0,0,0.1c0,0,0,0.1,0,0.1
		c0,0,0.1,0,0.1,0.1c0,0,0,0.1,0,0.1c0,0,0,0.1,0,0.1c0,0,0,0.1,0,0.1c0,0,0,0,0,0.1c0,0,0,0.1,0,0.1c0,0,0.1,0,0.1,0.1
		c0,0,0.1,0.1,0.1,0.1c0.1,0,0.1,0.1,0.1,0.1c-0.1,0.1-0.1,0.3,0.1,0.4V59c0,0,0,0.1,0.1,0.1c0.1,0,0.1,0.1,0.1,0.2l0.2,0.2
		c0.1,0.1,0.2,0.3,0.5,0.5c0.2,0.2,0.3,0.3,0.4,0.4c0.1,0,0.1,0,0.1,0c0.2,0.3,0.5,0.5,0.7,0.5c0.1,0.1,0.2,0.2,0.2,0.2
		c0,0,0.1,0,0.2,0c0.1,0,0.2,0,0.2,0c0,0,0.1,0.1,0.1,0.1c0,0,0.1,0.1,0.1,0.1c0,0,0.1,0,0.1,0c0,0,0.1,0,0.1,0c0,0,0,0,0.1,0
		c0.1,0,0.1,0,0.1,0c0.2,0,0.5,0,0.7,0c0,0,0.1,0,0.2-0.1c0.1-0.1,0.2-0.1,0.2-0.1c0.1,0,0.2,0,0.2,0c0,0,0.1,0,0.1-0.1
		c0,0,0.1-0.1,0.1-0.1c0,0,0.1,0,0.2,0c0.1-0.1,0.2-0.2,0.4-0.1c0.1-0.1,0.3-0.2,0.5-0.4c0.2-0.2,0.4-0.3,0.6-0.4c0,0,0-0.1,0.1-0.1
		c0,0,0.1-0.1,0.1-0.1c0,0,0,0,0-0.1c0-0.1,0.1-0.1,0.2-0.2c0.1-0.1,0.1-0.1,0.1-0.1c0,0,0.1-0.1,0.1-0.2c0.1-0.1,0.1-0.2,0.1-0.2
		c0,0,0-0.1,0.1-0.1c0.1,0,0.1-0.1,0.1-0.1c0.1-0.1,0.2-0.2,0.2-0.2c0,0,0-0.1,0-0.1c0,0,0.1-0.2,0.3-0.5c0,0,0-0.1,0.1-0.1
		c0,0,0.1-0.2,0.1-0.5c0-0.1,0.1-0.2,0.2-0.3c0,0,0-0.1,0-0.1c0,0,0-0.1,0.1-0.1c0,0,0.1-0.1,0.1-0.1c0,0,0-0.1,0-0.1
		c0-0.1,0-0.1,0-0.1c0.1-0.1,0.2-0.4,0.3-0.9l0.1-0.3c0,0,0-0.1,0-0.1c0-0.1,0-0.1,0-0.1c0.1-0.1,0.1-0.2,0.1-0.2c0,0,0-0.1-0.1-0.1
		c-0.1,0-0.1-0.1-0.1-0.1c0-0.1,0-0.1,0.1-0.2c0.1-0.1,0.1-0.2,0.1-0.2c0-0.1,0-0.2,0-0.3c-0.1-0.1-0.1-0.2,0-0.2c0,0,0-0.1,0.1-0.1
		c0,0,0-0.1,0-0.1c0,0-0.1-0.1-0.1-0.1c0,0-0.1-0.1-0.1-0.1c0.1-0.1,0.1-0.1,0.1-0.1c0,0,0-0.1-0.1-0.1c0,0,0-0.1,0-0.1
		c0-0.1,0-0.2,0-0.3c0-0.1,0-0.2,0-0.2c0,0,0-0.1,0-0.1c0,0,0.1-0.1,0.1-0.1c0,0,0-0.1-0.1-0.1c0-0.1,0-0.1-0.1-0.2
		c-0.1,0-0.1-0.1-0.1-0.1c0-0.1,0-0.1,0.1-0.2c0-0.1,0.1-0.1,0-0.2c0,0,0-0.1,0-0.1c0,0-0.1-0.1-0.1-0.1c0-0.1,0-0.1,0-0.1
		c0-0.1,0.1-0.1,0.1-0.1c-0.1,0-0.2-0.2-0.2-0.4c0-0.2-0.1-0.4-0.2-0.4c0,0,0-0.1,0-0.2c0-0.1,0-0.2,0-0.2c-0.1-0.1-0.2-0.2-0.2-0.3
		c-0.3-0.6-0.8-1.1-1.4-1.7h-0.2c0-0.1-0.1-0.2-0.3-0.3h-0.1l-0.2-0.1c0,0-0.1-0.1-0.1-0.1c-0.1-0.1-0.2-0.1-0.3-0.1
		c0,0-0.1,0-0.2,0c-0.1,0-0.2,0-0.2,0c-0.1-0.1-0.2-0.1-0.3-0.1c-0.1,0-0.2,0-0.3,0c-0.1,0-0.2,0-0.3,0c-0.2-0.2-0.3-0.3-0.4-0.2
		c-0.1-0.1-0.1-0.2,0-0.3c0,0,0-0.1,0.1-0.1c0,0,0.1-0.1,0.1-0.1c0-0.1,0-0.1-0.1-0.1c-0.1,0-0.1,0-0.1,0
		C81.5,45.6,81.4,45.5,81.4,45.5z"/>
</g>
</svg>
