<?xml version="1.0" encoding="utf-8"?>
<!-- Generator: Adobe Illustrator 19.0.1, SVG Export Plug-In . SVG Version: 6.00 Build 0)  -->
<svg version="1.1" id="Layer_1" xmlns="http://www.w3.org/2000/svg" xmlns:xlink="http://www.w3.org/1999/xlink" x="0px" y="0px"
	 viewBox="0 0 100 100" enable-background="new 0 0 100 100" xml:space="preserve">
<g id="Layer_1_1_">
	<g>
		<path fill="#643282" d="M23.3,25.1c4-6.1,1.1,1.9-0.4,4.7c-1.3,2.4-3.3,5.1-4.1,7.8c-1,3.4-1,4.6,0.6,7.8c0.6,1.3,2.2,2.1,3.6,2.1
			c4.4-0.2,6.7-2.7,10-5.4c2.5-2,11.6-11.2,13.6-10.8c5.3,1.1,1.5,8.9,0.4,11.1c-5.8,11.2-18.5,20.2-18.3,34.2
			c0.1,6.7,3.6,13.2,10.9,12.9C57,88.8,64.8,57,82.7,60.2c5.3,1,7.5-7.1,2.2-8.1c-7.4-1.3-13.2,0.5-19,5.2
			c-5.2,4.3-9.2,9.9-14.2,14.4c-1.9,1.7-7,7.4-9.3,7.5c-7.1,0.1-4.2-7.4-2.6-11.1c4.4-10.3,29.8-32,15.6-43.9
			C50.3,20,44.8,22.6,40,25.9c-1.2,0.9-12.4,10.5-12.8,10.2c1.6,1.4,6.6-9.2,7.1-11.5c3.4-14.2-11.6-12.4-17.2-3.2
			C14.6,25.4,20.7,28.9,23.3,25.1L23.3,25.1z"/>
	</g>
</g>
<g id="Layer_2" display="none">
	<circle display="inline" fill="none" stroke="#D93427" stroke-miterlimit="10" cx="50" cy="50" r="50"/>
</g>
</svg>
