<?xml version="1.0" encoding="utf-8"?>
<!-- Generator: Adobe Illustrator 19.0.1, SVG Export Plug-In . SVG Version: 6.00 Build 0)  -->
<svg version="1.1" id="Layer_1" xmlns="http://www.w3.org/2000/svg" xmlns:xlink="http://www.w3.org/1999/xlink" x="0px" y="0px"
	 viewBox="0 0 300 300" enable-background="new 0 0 300 300" xml:space="preserve">
<g>
	<g>
		<path fill="#643282" d="M116,151.7c8-0.1,16.5-0.6,23.4-5c4.2-2.7,9.7-7.9,8.3-13.5c-1.7-6.7-10-7.2-15.6-6.5
			c-6.8,0.9-13.1,4-16.8,10c-7.5,12-1.4,27.3,10.4,33.8c8.8,4.8,35.3,7.4,34.4-8.4c-0.2-3.2-5.2-3.2-5,0c0.4,6.4-9.5,7.2-14.1,7.2
			c-4.9,0-9.8-1.2-14-3.8c-7.7-4.8-12.2-14.2-8.9-23c1.8-5,5.7-8.4,10.8-10c3.4-1.1,17.2-2.7,13.3,4.9c-4.6,8.8-17.6,9.2-26.1,9.3
			C112.8,146.7,112.8,151.7,116,151.7L116,151.7z"/>
	</g>
</g>
<g>
	<g>
		<path fill="#643282" d="M158.8,104.9c-0.9,15.4-1.5,31.6,4.8,46.1c5.7,13.2,16.6,18.4,30.6,16.3c3.2-0.5,1.8-5.3-1.3-4.8
			c-31.4,4.8-30.3-36.8-29.1-57.6C164,101.7,159,101.7,158.8,104.9L158.8,104.9z"/>
	</g>
</g>
<g>
	<g>
		<path fill="#643282" d="M152,147.9c10.6-3,21.2-5.9,31.8-8.9c2.9-0.8,2-4.6-0.7-4.9c-0.8-0.1-1.7-0.2-2.5-0.3
			c-3.2-0.4-3.2,4.6,0,5c0.8,0.1,1.7,0.2,2.5,0.3c-0.2-1.6-0.4-3.3-0.7-4.9c-10.6,3-21.2,5.9-31.8,8.9
			C147.6,143.9,148.9,148.8,152,147.9L152,147.9z"/>
	</g>
</g>
<g>
	<g>
		<path fill="#643282" d="M212.7,134.4c2.2-1.9,2.3-5.1,0.4-7.4c-2.4-2.8-6.5-2.2-9.5-0.7c-8,3.8-13.5,12.4-13.5,21.3
			c0,9,6,14.7,14.8,15.6c6.8,0.7,21.7-0.8,20.3-10.6c-0.5-3.2-5.3-1.8-4.8,1.3c0.6,4.3-13.2,4.5-15.5,4.2c-4.7-0.6-8.5-2.8-9.5-7.8
			c-0.8-4,0.3-8.4,2.3-11.9c1.1-1.9,2.5-3.6,4.2-5.1c0.9-0.8,2-1.5,3-2.1c1.4-1.1,2.8-1.3,4.4-0.4
			C206.7,133,210.3,136.5,212.7,134.4L212.7,134.4z"/>
	</g>
</g>
<g>
	<g>
		<path fill="#643282" d="M213.3,101.9c6.5,8.4,9.6,19.4,12.3,29.5c2.8,10.3,5,20.7,6.7,31.2c1.6-0.4,3.2-0.9,4.8-1.3
			c-2.7-7.2-1.8-18.1,0.2-25.3c0.3-1.2,0.7-2.8,1.7-3.7c5.2-4.4,7.7,5.3,8.5,8.4c1,3.8,2,7.7,2.9,11.5c0.5,1.9,0.9,3.8,1.4,5.8
			c0.2,0.9,2.2,6.3,1.9,6.9c1.1-0.3,2.3-0.6,3.4-0.9c-0.1-0.1-0.3-0.2-0.4-0.2c0.3,1.1,0.6,2.3,0.9,3.4c0.1-0.1,0.1-0.2,0.2-0.3
			c1.6-2.8-2.7-5.3-4.3-2.5c-0.1,0.1-0.1,0.2-0.2,0.3c-0.7,1.2-0.3,2.7,0.9,3.4c0.1,0.1,0.3,0.2,0.4,0.2c1.2,0.7,2.7,0.2,3.4-0.9
			c1.9-3.2-1-9.3-1.8-12.6c-1.5-6.2-2.8-12.4-4.7-18.5c-2-6.6-8.6-13.4-15.6-7.7c-4.1,3.3-4.4,10.8-4.7,15.5
			c-0.4,5.8-0.9,13,1.2,18.6c1.1,3,5.4,1.8,4.8-1.3c-1.9-10.9-4.1-21.8-7.1-32.5c-2.8-10-6.1-20.9-12.5-29.3
			C215.7,96.9,211.4,99.3,213.3,101.9L213.3,101.9z"/>
	</g>
</g>
<g>
	<g>
		<path fill="#643282" d="M257.4,127.7c-0.9,8,1.2,24.4,11.7,25.5c3.8,0.4,7.3-1.9,9.2-5.1c3-4.9,1.7-10.9,0.5-16.1
			c-1.6,0.4-3.2,0.9-4.8,1.3c5,14.6,9.1,30,9.4,45.6c0.2,8.7-2.3,15.9-9.9,20.8c-6.4,4.1-14.2,6.4-21.8,6.9
			c-6.5,0.4-15,0.1-20.4-3.9c-5-3.6-4.3-9.4,1.6-11.4c4-1.4,8.4-1.8,12.5-1.9c16.2-0.2,31.6,6.5,47.2,9.8c-0.4-1.4-0.7-2.8-1.1-4.2
			c-0.1,0-0.2,0-0.4,0.1c0.9,0.4,1.9,0.8,2.8,1.1c0.1,0.3,0.1,0.7,0.2,1c-0.8,0.6-1.6,1.2-2.4,1.8c0.1,0,0.2,0,0.4,0
			c3.2,0.1,3.2-4.9,0-5c-0.1,0-0.2,0-0.4,0c-1.2,0-2,0.8-2.4,1.8c-0.4,1.1-0.2,1.9,0.3,2.8c0.6,1,1.7,1.3,2.8,1.1
			c1.2-0.2,1.7-0.6,2.6-1.4c1.4-1.2,0.7-3.8-1.1-4.2c-16.4-3.5-32.4-10.5-49.4-10c-5.9,0.2-14.1,0.8-18.7,5c-3.7,3.5-3.7,9-1.3,13.2
			c6.5,10.9,25.7,10,36.3,7.6c12.8-3,25.4-10.5,27.3-24.5c1.1-8.4-0.2-17.2-1.7-25.5c-1.7-9.6-4.4-19-7.5-28.3c-1-3-5.6-1.8-4.8,1.3
			c0.8,3.3,1.9,7,0.9,10.4c-1.5,4.9-6.5,5.5-9.1,1.4c-3.3-5.1-4-11.5-3.3-17.4C262.8,124.6,257.8,124.6,257.4,127.7L257.4,127.7z"/>
	</g>
</g>
<g>
	<g>
		<path fill="#643282" d="M77.1,95.3c7.2,28.4,6.7,58.7,8.4,87.8c1.6-0.2,3.3-0.4,4.9-0.7c-0.1-0.8-0.2-1.5-0.3-2.3
			c-0.5-3.2-5.3-1.8-4.8,1.3c0.1,0.8,0.2,1.5,0.3,2.3c0.4,2.8,5.1,2.1,4.9-0.7c-1.7-29.5-1.2-60.3-8.6-89.1
			C81.2,90.9,76.3,92.2,77.1,95.3L77.1,95.3z"/>
	</g>
</g>
<g>
	<g>
		<path fill="#643282" d="M75.2,144.4c17,0.8,25.9-15,31.8-28.4c1.3-2.9-3-5.5-4.3-2.5c-5.1,11.7-12.4,26.7-27.5,26
			C72,139.3,72,144.3,75.2,144.4L75.2,144.4z"/>
	</g>
</g>
<g>
	<g>
		<path fill="#643282" d="M90.9,138.6c10.6-1.6,13.4,17.1,14.5,24.1c1.3,8.5,1.3,18.1,5.2,26c3.2,6.4,9.4,10.2,16.6,10.1
			c8-0.1,14.7-4.8,19.5-10.8c2-2.5-1.5-6-3.5-3.5c-5.7,7.2-17,13.7-25.2,6c-6.4-5.9-6.2-18-7.3-25.9c-1.5-11.2-5.2-33.3-21.1-30.9
			C86.4,134.2,87.8,139,90.9,138.6L90.9,138.6z"/>
	</g>
</g>
<g>
	<g>
		<path fill="#643282" d="M62.8,105.7c2.6-0.8,3.3-3.1,2.4-5.6c-1.3-3.4-5.6-5-8.8-6.3c-8.2-3.2-17.5-3.1-25.8-0.4
			c-8.1,2.7-15.9,8.3-19.8,16c-4.3,8.5-0.7,16.3,8.3,18.8c4.9,1.3,10.1,1.8,15,3.2c5.9,1.7,11.6,3.9,17.1,6.8
			c8.5,4.5,24.7,13.1,23.9,24.5c-0.8,11.7-14.5,21.4-24.3,25.7c-11.1,4.9-24.5,5-34.6-2.1c-6.1-4.3-11-11.4-7.1-18.7
			c3-5.6,9.4-9.1,15.7-8.6c6.9,0.5,14.1,6.1,12.1,13.7c-1.8,6.7-11.8,7.7-13.1,0.1c-0.5-3.2-5.3-1.8-4.8,1.3
			c1.4,8.5,12.6,11.9,18.9,6.3c7.7-6.8,4.3-19.1-3.9-23.8c-8.9-5.1-20.4-2.7-27,5.1c-7.9,9.3-4,20.6,4.9,27.6
			c19.6,15.4,48.6,5.3,62.5-13c7.5-10,7.4-20.9-1.9-29.5c-9.2-8.5-20.5-14.8-32.3-18.8c-6.9-2.3-14.3-2.6-21.1-5
			c-11.1-4-1.9-15.9,4.1-20.3c5.3-3.9,11.8-6,18.4-6.3c3.3-0.1,6.6,0.2,9.7,1c2.7,0.7,7.5,4.3,10.2,3.4
			C58.4,101.9,59.7,106.7,62.8,105.7L62.8,105.7z"/>
	</g>
</g>
</svg>
