<?xml version="1.0" encoding="utf-8"?>
<!-- Generator: Adobe Illustrator 19.0.1, SVG Export Plug-In . SVG Version: 6.00 Build 0)  -->
<svg version="1.1" id="Layer_1" xmlns="http://www.w3.org/2000/svg" xmlns:xlink="http://www.w3.org/1999/xlink" x="0px" y="0px"
	 viewBox="0 0 100 100" enable-background="new 0 0 100 100" xml:space="preserve">
<g id="Layer_1_1_">
	<g>
		<g>
			<path fill="#643282" d="M56.1,41.7H45.5c-0.8,0-1.8-0.5-2.4-1.3c-0.7-0.9-1-2-0.7-3.3l0.4-3.7c0-1.4,1.2-2.7,2.7-2.7l9-0.7
				c1.6-0.2,2.7,0,3.4,0.7c0.9,0.8,0.9,1.9,0.9,2.7V39C58.8,40.5,57.5,41.7,56.1,41.7z M55.5,30.9c-0.3,0-0.6,0-0.9,0.1l-9,0.7
				c-1.1,0-1.9,0.8-1.9,1.9l-0.4,3.8c-0.3,1.3,0.1,2.1,0.5,2.6c0.5,0.7,1.3,1,1.7,1H56c1,0,1.9-0.8,1.9-1.9v-5.5
				c0-0.7,0-1.6-0.6-2.1C56.9,31.1,56.3,30.9,55.5,30.9z"/>
		</g>
		<g>
			<path fill="#643282" d="M77.9,41.7H67.4c-0.8,0-1.8-0.5-2.4-1.3c-0.7-0.9-1-2-0.7-3.3l0.4-3.7c0-1.4,1.2-2.7,2.7-2.7l9-0.7
				c1.6-0.2,2.7,0,3.4,0.7c0.9,0.8,0.9,1.9,0.9,2.7V39C80.6,40.5,79.4,41.7,77.9,41.7z M77.3,30.9c-0.3,0-0.6,0-0.9,0.1l-9,0.7
				c-1.1,0-1.9,0.8-1.9,1.9l-0.4,3.8c-0.3,1.3,0.1,2.1,0.5,2.6c0.5,0.7,1.3,1,1.7,1h10.5c1,0,1.9-0.8,1.9-1.9v-5.5
				c0-0.7,0-1.6-0.6-2.1C78.8,31.1,78.2,30.9,77.3,30.9z"/>
		</g>
		<g>
			<path fill="#643282" d="M33.4,41.7H22.9c-1.5,0-2.7-1.2-2.7-2.7l-0.4-5.3c0-1.6,1.7-2.8,3.1-2.8l9.6-0.7l0,0c1.4,0,2.4,0.3,3,0.9
				c0.7,0.7,0.7,1.6,0.6,2.3v5.7C36.1,40.5,34.9,41.7,33.4,41.7z M32.6,31L23,31.7c-1,0-2.3,0.9-2.3,2l0.4,5.3
				c0,1.1,0.8,1.9,1.9,1.9h10.5c1,0,1.9-0.8,1.9-1.9v-5.7c0-0.6,0-1.3-0.4-1.7C34.5,31.2,33.7,31,32.6,31z"/>
		</g>
		<g>
			<path fill="#643282" d="M77.9,56H67.4c-1.5,0-2.7-1.2-2.7-2.7L64.2,48c0-1.6,1.7-2.8,3.1-2.8l9.6-0.7l0,0c1.4,0,2.4,0.3,3,0.9
				c0.7,0.7,0.7,1.6,0.6,2.3v5.7C80.6,54.8,79.4,56,77.9,56z M77,45.3L67.4,46c-1,0-2.3,0.9-2.3,2l0.4,5.3c0,1.1,0.8,1.9,1.9,1.9
				h10.5c1,0,1.9-0.8,1.9-1.9v-5.7c0-0.6,0-1.3-0.4-1.7C79,45.5,78.2,45.3,77,45.3z"/>
		</g>
		<g>
			<path fill="#643282" d="M56,55.1H45.5c-1.5,0-2.7-1.2-2.7-2.7l-0.4-5.3c0-1.6,1.7-2.8,3.1-2.8l9.6-0.7l0,0c1.4,0,2.4,0.3,3,0.9
				c0.7,0.7,0.7,1.6,0.6,2.3v5.7C58.7,53.9,57.5,55.1,56,55.1z M55.1,44.4l-9.6,0.7c-1,0-2.3,0.9-2.3,2l0.4,5.3
				c0,1.1,0.8,1.9,1.9,1.9H56c1,0,1.9-0.8,1.9-1.9v-5.7c0-0.6,0-1.3-0.4-1.7S56.3,44.4,55.1,44.4z"/>
		</g>
		<g>
			<path fill="#643282" d="M77.9,69.3H67.4c-1.5,0-2.7-1.2-2.7-2.7l-0.4-5.3c0-1.6,1.7-2.8,3.1-2.8l9.6-0.7l0,0c1.4,0,2.4,0.3,3,0.9
				c0.7,0.7,0.7,1.6,0.6,2.3v5.7C80.6,68,79.4,69.3,77.9,69.3z M77,58.5l-9.6,0.7c-1,0-2.3,0.9-2.3,2l0.4,5.3c0,1.1,0.8,1.9,1.9,1.9
				h10.5c1,0,1.9-0.8,1.9-1.9v-5.7c0-0.6,0-1.3-0.4-1.7C79,58.7,78.2,58.5,77,58.5z"/>
		</g>
		<g>
			<path fill="#643282" d="M33.2,55.1h-11c-1.5,0-2.8-1.2-2.8-2.7v-5.7c0-0.7,0-1.6,0.6-2.3c0.6-0.6,1.6-0.9,3.1-0.9l10.1,0.7l0,0
				c1.4,0,3.2,1.3,3.2,2.8L36,52.4C36,53.9,34.8,55.1,33.2,55.1z M23.1,44.4c-1.2,0-2,0.2-2.5,0.6c-0.4,0.4-0.4,1.1-0.4,1.7v5.7
				c0,1,0.9,1.9,2,1.9h11c1.1,0,2-0.8,2-1.9l0.5-5.4c0-1-1.4-1.9-2.4-1.9L23.1,44.4z"/>
		</g>
		<g>
			<path fill="#643282" d="M33.4,68.4H22.9c-1.5,0-2.7-1.2-2.7-2.7l-0.4-5.3c0-1.6,1.7-2.8,3.1-2.8l9.6-0.7l0,0c1.4,0,2.4,0.3,3,0.9
				c0.7,0.7,0.7,1.6,0.6,2.3v5.7C36.1,67.2,34.9,68.4,33.4,68.4z M32.6,57.7L23,58.4c-1,0-2.3,0.9-2.3,2l0.4,5.3
				c0,1.1,0.8,1.9,1.9,1.9h10.5c1,0,1.9-0.8,1.9-1.9V60c0-0.6,0-1.3-0.4-1.7C34.5,57.9,33.7,57.7,32.6,57.7z"/>
		</g>
		<g>
			<path fill="#643282" d="M55.6,68.4H45.1c-1.5,0-2.7-1.2-2.7-2.7V60c0-0.7,0-1.6,0.6-2.3c0.6-0.6,1.5-0.9,2.9-0.9l9.7,0.7l0,0
				c1.4,0,3.1,1.3,3.1,2.8l-0.4,5.4C58.3,67.2,57.1,68.4,55.6,68.4z M45.9,57.7c-1.1,0-1.9,0.2-2.3,0.6c-0.4,0.4-0.4,1.1-0.4,1.7
				v5.7c0,1,0.8,1.9,1.9,1.9h10.5c1,0,1.9-0.8,1.9-1.9l0.4-5.4c0-1-1.3-1.9-2.3-1.9L45.9,57.7z"/>
		</g>
	</g>
</g>
<g id="Layer_2" display="none">
	<circle display="inline" fill="none" stroke="#231F20" stroke-miterlimit="10" cx="50" cy="50" r="50"/>
</g>
</svg>
