<?xml version="1.0" encoding="utf-8"?>
<!-- Generator: Adobe Illustrator 19.0.1, SVG Export Plug-In . SVG Version: 6.00 Build 0)  -->
<svg version="1.1" id="Layer_1" xmlns="http://www.w3.org/2000/svg" xmlns:xlink="http://www.w3.org/1999/xlink" x="0px" y="0px"
	 viewBox="0 0 100 100" enable-background="new 0 0 100 100" xml:space="preserve">
<g id="Layer_1_1_">
	<g>
		<path fill="#643282" d="M55.2,84.5c7.4,5.7,12.1-1.6,15-8.2c5-11.5,8.2-26.8,2.9-38.8c-9-20.4-35-19.8-48.6-4.2
			c2.2,1.3,4.3,2.5,6.5,3.8c1-5.2,2.8-10.2,3.6-15.5c0.8-5.5-7.5-8.1-8.6-2.4c-1,5.2-3.1,10-4.5,15.2c-0.6,2.4,0.8,5.2,3.3,5.8
			c3.2,0.6,6.2,1.8,9,3.6c5.7,5,12.7-3.9,6.4-8.3c-4.1-2.8-8.1-3.5-12.9-4.4c1.1,1.9,2.2,3.8,3.3,5.8c1.2-5.2,3.2-10,4-15.3
			c-2.9-0.4-5.8-0.8-8.7-1.2c-0.6,5.3-2.1,10.3-2.5,15.6c-0.2,3.2,4.5,5.3,6.6,2.7c9.8-12.3,30-15.3,37.2,1.3
			c5.7,13.2,0,34.5-12,42.6C54.5,83.1,54.5,83.9,55.2,84.5L55.2,84.5z"/>
	</g>
</g>
<g id="Layer_2" display="none">
	<circle display="inline" fill="none" stroke="#231F20" stroke-miterlimit="10" cx="50" cy="50" r="50"/>
</g>
</svg>
