<?xml version="1.0" encoding="utf-8"?>
<!-- Generator: Adobe Illustrator 19.0.1, SVG Export Plug-In . SVG Version: 6.00 Build 0)  -->
<svg version="1.1" id="Layer_1" xmlns="http://www.w3.org/2000/svg" xmlns:xlink="http://www.w3.org/1999/xlink" x="0px" y="0px"
	 viewBox="0 0 100 100" enable-background="new 0 0 100 100" xml:space="preserve">
<g>
	<path fill="#643282" d="M26,42.4c0,0,0.1,0,0.1,0.1c0.1,0.1,0.1,0.1,0.2,0.1c0,0.1,0.1,0.1,0.3,0.1c0.1,0,0.2,0,0.2,0
		c0.1,0.1,0.1,0.2,0.1,0.2c0.1,0,0.2,0,0.3,0.1c0.1,0.1,0.1,0.1,0.2,0.1s0.2,0,0.2,0s0,0,0,0.1v0.1c0,0,0,0,0.1,0h0.1v0.1h0.1H28
		c0,0,0,0.1,0,0.2c0,0.1,0,0.1,0,0.2v0.1c0,0.1,0,0.1,0.1,0.2c0.1,0.1,0.1,0.2,0.1,0.2c0,0.1,0.1,0.1,0.3,0.1c0,0.2,0,0.4-0.2,0.4
		c0,0,0,0.1,0,0.2c0,0.1,0,0.1,0,0.2c-0.2,0.1-0.2,0.3-0.1,0.5v0.1c0,0,0,0.1,0,0.2c-0.1,0-0.1,0-0.2,0.1c0.1,0.2,0.1,0.4,0,0.4
		s-0.2,0.1-0.2,0.2c0,0.1-0.1,0.2-0.2,0.3c0,0,0,0.1,0,0.2c0,0.1,0,0.1,0,0.2c-0.1,0.1-0.2,0.2-0.2,0.4c-0.1,0.2-0.2,0.4-0.3,0.4
		v0.1h0.1c0,0.1,0,0.1-0.1,0.2C27,48.6,27,48.6,27,48.7l-0.1,0.1c-0.1,0-0.1,0-0.2,0.1c0,0.1,0,0.1,0,0.1c-0.2,0.2-0.3,0.5-0.3,0.8
		c-0.1,0-0.1,0.1-0.1,0.2c0,0.1-0.1,0.2-0.1,0.2s0,0.1,0,0.2c0,0,0,0.1,0,0.2c0,0.1,0,0.2-0.1,0.3c0,0.1,0,0.2-0.1,0.3
		c-0.1,0-0.1,0.1-0.1,0.1c0,0.1,0.1,0.1,0.1,0.1c0,0.1-0.1,0.2-0.2,0.3s-0.2,0.3-0.2,0.4v0.1v0.1h-0.1c-0.1,0.1-0.1,0.2-0.1,0.5
		h-0.1l-0.1,0.1c0,0,0,0,0,0.1v0.1c0,0,0,0,0,0.1c0,0,0,0.1-0.1,0.1v0.1c0,0.1,0,0.1,0,0.1s0,0.1-0.1,0.2c-0.1,0.1-0.1,0.1-0.1,0.2
		V54c0,0.1,0,0.1,0,0.1s0,0,0,0.1c0,0,0,0,0,0.1v0.1v0.1v0.1v0.1c-0.1,0-0.2,0.1-0.2,0.2c0,0.1,0,0.1,0,0.1s0,0.1-0.1,0.1v0.1
		c0,0,0,0.1,0,0.2c0,0.1,0,0.2-0.1,0.3c0,0.2,0,0.4-0.1,0.5c-0.1,0.2-0.2,0.4-0.2,0.5c0,0,0,0.1-0.1,0.1c0,0.1,0,0.2,0,0.2
		C24,57.1,24,57.1,24,57.2s0,0.1,0,0.1v0.1v0.3c-0.1,0-0.2,0.2-0.1,0.4c-0.2,0.1-0.2,0.2-0.1,0.5l-0.2,0.1c0,0.1,0,0.1,0,0.2
		c0.1,0.1,0.1,0.1,0,0.2c0,0,0,0,0-0.1c-0.1,0-0.1,0.1-0.1,0.2c0,0.1,0,0.2,0,0.3c-0.1,0-0.2,0-0.2,0.1c0,0.3,0.1,0.4,0.2,0.4
		c0,0.1,0,0.2,0,0.2h-0.1l0,0c0,0,0,0,0.1,0h0.1v0.1c0,0.1,0,0.1,0,0.1c-0.1,0-0.2,0-0.2,0s-0.1,0-0.2,0.1c0,0.1,0,0.1,0,0.1v0.1
		h-0.1H23c0,0.1-0.1,0.2-0.2,0.3h-0.1c-0.1,0-0.2,0.1-0.1,0.2h-0.1c-0.1,0.1-0.2,0.1-0.2,0.2l0,0c-0.1,0-0.1-0.1-0.1-0.2h-0.1v0.1
		c-0.2,0.1-0.3,0-0.3,0s-0.1,0-0.2,0s-0.1,0-0.2,0c-0.1,0.1-0.2,0.1-0.2,0.1c0-0.1-0.1-0.2-0.1-0.3S21,61,20.9,61
		c-0.1-0.1-0.1-0.1-0.2-0.1c0-0.1,0-0.3-0.2-0.5v-0.1c-0.1-0.2-0.3-0.3-0.4-0.4H20h-0.1c0-0.3,0-0.5-0.2-0.7c0,0,0,0-0.1,0
		c0,0,0,0-0.1,0c0,0-0.1-0.1-0.1-0.2c0-0.1,0-0.2-0.1-0.2H19c0-0.1,0-0.1-0.1-0.2c-0.1-0.1-0.1-0.2-0.1-0.3
		c-0.1-0.1-0.3-0.2-0.4-0.4c0-0.1-0.1-0.3-0.3-0.4c-0.1,0.1-0.1,0-0.1-0.1s0-0.1-0.1-0.2h-0.1c0,0-0.1,0-0.2,0c0-0.2,0-0.3-0.1-0.4
		c0-0.1,0-0.2-0.1-0.3c-0.1,0-0.1,0-0.2,0l-0.1,0.1l0,0v-0.1v-0.1c0,0,0-0.1-0.1-0.2c0-0.1-0.1-0.2-0.2-0.2v-0.1c0-0.1,0-0.1,0-0.1
		s0,0-0.1-0.1c-0.1,0-0.1-0.1-0.1-0.2c-0.2-0.3-0.4-0.6-0.7-0.8v-0.1c-0.1-0.1-0.2-0.2-0.3-0.2c0-0.2-0.1-0.4-0.2-0.5v-0.1
		c-0.2-0.2-0.3-0.3-0.4-0.3c0,0,0-0.1,0-0.2c0-0.2,0-0.3-0.1-0.3h-0.1h-0.1c0,0,0-0.1,0-0.2c0-0.1,0-0.1,0-0.2
		c-0.1-0.1-0.2-0.2-0.2-0.2h-0.1c0-0.1,0-0.2,0-0.3V52l0,0v-0.1c0,0,0,0,0-0.1c0,0-0.1,0-0.2,0c-0.1,0-0.1,0-0.2,0
		c0-0.1,0-0.2,0-0.3l0,0h-0.1c0-0.1,0-0.1,0-0.3h-0.1v-0.1c0-0.1,0-0.1,0-0.1s0,0-0.1,0c-0.1-0.1-0.1-0.1,0-0.2
		c0.1-0.1,0.1-0.2,0.1-0.2s-0.1-0.1-0.2-0.2c-0.1-0.1-0.1-0.1-0.2-0.2v-0.1c0,0,0-0.1-0.1-0.1l-0.1-0.1c0-0.1,0-0.1-0.1-0.2
		c0-0.1-0.1-0.1-0.1-0.2c-0.1-0.1-0.2-0.3-0.3-0.6c0,0-0.1-0.1-0.2-0.1c0,0,0,0,0-0.1c0,0,0,0,0.1,0c0,0-0.1-0.1-0.1-0.3
		c0-0.1-0.1-0.3-0.1-0.4c0,0-0.1,0-0.3,0c0.1-0.1,0.1-0.3,0-0.3c0,0,0-0.1-0.1-0.1c0-0.1-0.1-0.3-0.2-0.4c0-0.1,0-0.1-0.1-0.2
		c-0.1-0.1-0.1-0.2-0.1-0.3c0,0,0-0.1-0.1-0.1h-0.1c0,0,0,0,0-0.1s0-0.1,0-0.1s0-0.1-0.1-0.1l-0.1-0.1c0,0,0-0.1,0-0.2
		c0-0.1,0-0.2,0-0.2h-0.1H11V46c0-0.1,0-0.1,0-0.1s0,0-0.1,0c0-0.1,0-0.2,0-0.4c0,0,0,0,0.1,0h0.1c0,0,0-0.1,0-0.2
		c0,0,0.1-0.1,0.1-0.2c0-0.1,0.1-0.1,0.1-0.2h0.1c0.1,0,0.2-0.1,0.2-0.2c0,0,0.1-0.1,0.1-0.2c0.1-0.1,0.1-0.1,0.2-0.1
		c0-0.1,0-0.2,0.1-0.3c0.1,0,0.1,0,0.2,0c0.2,0,0.3,0.1,0.3,0.2H13l0,0c0.1,0.1,0.2,0.1,0.2,0.1c0.1,0.1,0.2,0.2,0.3,0.3
		s0.2,0.2,0.3,0.3c0.1,0,0.1,0,0.3,0.1c-0.1,0.1,0,0.2,0.2,0.2c0.1,0.1,0,0.3-0.1,0.3c0,0,0.1,0.1,0.2,0.2c0,0.2,0.1,0.4,0.3,0.6
		c-0.1,0.2,0,0.3,0.1,0.3c0,0.1,0,0.2,0,0.3s0.1,0.2,0.1,0.2s0,0.1,0.1,0.1l0.1,0.1c0,0.1,0,0.2,0,0.2l0.1,0.1
		c0.1,0.1,0.1,0.1,0.1,0.1c0.1,0,0.1,0,0.1,0v0.1c0,0,0,0,0,0.1s0,0.1,0,0.2c0,0.1,0,0.1,0,0.2s0,0.1,0,0.1h0.1l0.3,0.3v0.1V49
		c0,0,0,0.1,0.1,0.1c0.1,0.1,0.1,0.1,0,0.2c0.1,0.1,0.1,0.1,0.2,0.1c0,0,0.1,0.2,0.3,0.6c0,0,0,0.1,0.1,0.1c0,0.1,0,0.1,0.1,0.2
		c0,0.1,0.1,0.1,0.1,0.2c0,0.1,0.1,0.1,0.1,0.1c0.1,0.3,0.2,0.4,0.3,0.4c0,0.1,0,0.1,0.1,0.2c0,0.1,0.1,0.1,0.1,0.2
		c0.1,0.1,0.2,0.2,0.2,0.3s0,0.2,0.1,0.2s0.1,0.1,0.3,0.1c0.1,0.1,0,0.1,0,0.3H18h0.1v0.1c0,0.1,0,0.1,0,0.2h0.1c0,0,0.1,0,0.2,0
		c0.1,0.3,0.2,0.5,0.2,0.6v0.1c0.1,0.1,0.2,0.2,0.2,0.3v-0.1c0,0,0,0,0.1,0.1c0,0.1,0,0.1,0.1,0.1c0,0.1,0,0.1,0.1,0.2
		c0.1,0.1,0.1,0.1,0.1,0.2h0.1c0,0.1,0.1,0.2,0.3,0.2c0,0.1,0,0.1,0,0.1s0,0,0.1,0.1c0,0.1,0,0.2,0,0.3c0.1,0.1,0.2,0.1,0.3,0.1
		c0,0,0,0.1,0,0.2c0,0.1,0.1,0.2,0.1,0.2s0,0,0.1,0c0,0,0,0,0.1,0c0,0.3,0.2,0.6,0.4,0.7c0.1,0,0.2,0,0.2,0v-0.2
		c0-0.1,0.1-0.2,0.3-0.3v-0.1c0.1-0.1,0.1-0.2,0.1-0.4l0.1-0.1c0,0,0-0.1,0.1-0.1s0.1-0.1,0.1-0.1v-0.1c0,0,0-0.1,0.1-0.2
		c0.1-0.1,0.1-0.2,0-0.2v-0.1c0-0.1,0-0.2,0-0.3c0.2,0,0.2,0,0.2-0.2c0.1-0.1,0.1-0.1,0.1-0.1c0-0.1,0-0.2,0-0.3c0-0.1,0-0.1,0-0.2
		c0.1,0,0.1-0.1,0.1-0.1c0-0.1,0-0.2,0.1-0.3s0.1-0.3,0-0.4c0.1-0.1,0.1-0.2,0.1-0.3v-0.1v-0.1c0,0,0.1-0.1,0.2-0.1
		c0-0.1,0.1-0.2,0.2-0.3c0-0.2,0.1-0.3,0.1-0.3v-0.1c0-0.1,0-0.1,0-0.1s0,0,0.1,0c0,0,0,0,0.1,0c0,0,0-0.1,0.1-0.2
		c0-0.1,0.1-0.1,0.1-0.2c0-0.1,0-0.1,0-0.2c0-0.1,0-0.2,0-0.2v-0.1c0-0.1,0-0.1,0-0.1c0.1-0.3,0.2-0.5,0.2-0.6h0.1
		c0-0.1,0.1-0.2,0.2-0.3s0.2-0.3,0.1-0.4c0-0.1,0.1-0.1,0.1-0.3C24,48.1,24,48,24.1,48c0,0,0.1-0.1,0.2-0.1c0,0,0-0.1,0-0.4v-0.1
		v-0.1v-0.1v-0.1c0,0,0.1-0.1,0.2-0.2l0,0l0,0c0,0,0-0.1,0-0.2c0-0.1,0-0.2,0-0.2c-0.1-0.1-0.1-0.2-0.1-0.2c0.2-0.1,0.3-0.1,0.3-0.2
		c0,0,0-0.1,0-0.2c0-0.1,0-0.1,0-0.2c0,0,0-0.1,0.1-0.1c0,0,0-0.1-0.1-0.1l-0.1-0.1c0,0,0.1-0.1,0.2-0.2c0-0.1,0-0.2,0-0.4
		s0-0.4,0-0.4l0.1-0.1l0.1-0.1l0-0.1c-0.1-0.1-0.1-0.2,0-0.3s0.1-0.1,0.1-0.2v-0.2c-0.1-0.1-0.1-0.2,0-0.3h0.3
		c0-0.2,0.1-0.4,0.3-0.5v-0.1l0,0c0,0,0,0,0.1,0C26,42.5,26,42.5,26,42.4z M25.7,42.5L25.7,42.5C25.7,42.5,25.8,42.5,25.7,42.5h0.1
		c0.1,0,0.2,0,0.2-0.1c0,0,0.1,0,0.1,0.1c0.1,0.1,0.1,0.1,0.2,0.1c0,0.1,0.1,0.1,0.3,0.1c0.1,0,0.2,0,0.2,0c0.1,0.1,0.1,0.2,0.1,0.2
		c0.1,0,0.2,0,0.3,0.1c0.1,0.1,0.1,0.1,0.2,0.1s0.2,0,0.2,0s0,0,0,0.1v0.1c0,0,0,0,0.1,0h0.1c0,0,0,0,0,0.1v0.1c0,0,0,0,0.1,0H28
		c0,0,0,0.1,0,0.2c0,0.1,0,0.1,0,0.2V44c0,0.1,0,0.1,0.1,0.2c0.1,0.1,0.1,0.2,0.1,0.2c0,0.1,0.1,0.1,0.3,0.1c0,0.2,0,0.4-0.2,0.4
		c0,0,0,0.1,0,0.2c0,0.1,0,0.1,0,0.2c-0.2,0.1-0.2,0.3-0.1,0.5v0.1c0,0,0,0.1,0,0.2c-0.1,0-0.1,0-0.2,0.1c0.1,0.2,0.1,0.4,0,0.4
		s-0.2,0.1-0.2,0.2c0,0.1-0.1,0.2-0.2,0.3c0,0,0,0.1,0,0.2c0,0.1,0,0.1,0,0.2c-0.1,0.1-0.2,0.2-0.2,0.4c-0.1,0.2-0.2,0.4-0.3,0.4
		v0.1h0.1c0,0.1,0,0.1-0.1,0.2C27,48.7,27,48.7,27,48.8l-0.1,0.1c-0.1,0-0.1,0-0.2,0.1c0,0.1,0,0.1,0,0.1c-0.2,0.2-0.3,0.5-0.3,0.8
		c-0.1,0-0.1,0.1-0.1,0.2c0,0.1-0.1,0.2-0.1,0.2s0,0.1,0,0.2c0,0,0,0.1,0,0.2c0,0.1,0,0.2-0.1,0.3c0,0.1,0,0.2-0.1,0.3
		c-0.1,0-0.1,0.1-0.1,0.1c0,0.1,0.1,0.1,0.1,0.1c0,0.1-0.1,0.2-0.2,0.3s-0.2,0.3-0.2,0.4v0.1v0.1h-0.1c-0.1,0.1-0.1,0.2-0.1,0.5
		h-0.1L25.2,53c0,0,0,0,0,0.1v0.1c0,0,0,0,0,0.1c0,0,0,0.1-0.1,0.1v0.1c0,0.1,0,0.1,0,0.1s0,0.1-0.1,0.2c-0.1,0.1-0.1,0.1-0.1,0.2
		v0.1c0,0.1,0,0.1,0,0.1s0,0,0,0.1c0,0,0,0,0,0.1v0.1v0.1v0.1v0.1c-0.1,0-0.2,0.1-0.2,0.2c0,0.1,0,0.1,0,0.1s0,0.1-0.1,0.1v0.1
		c0,0,0,0.1,0,0.2c0,0.1,0,0.2-0.1,0.3c0,0.2,0,0.4-0.1,0.5c-0.1,0.2-0.2,0.4-0.2,0.5c0,0,0,0.1-0.1,0.1c0,0.1,0,0.2,0,0.2
		C24,57.2,24,57.2,24,57.3s0,0.1,0,0.1v0.1v0.3c-0.1,0-0.2,0.2-0.1,0.4c-0.2,0.1-0.2,0.2-0.1,0.5l-0.2,0.1c0,0.1,0,0.1,0,0.2
		c0.1,0.1,0.1,0.1,0,0.2c0,0,0,0,0-0.1c-0.1,0-0.1,0.1-0.1,0.2c0,0.1,0,0.2,0,0.3c-0.1,0-0.2,0-0.2,0.1c0,0.3,0.1,0.4,0.2,0.4
		c0,0.1,0,0.2,0,0.2h-0.1l0,0c0,0,0,0,0.1,0h0.1v0.1c0,0.1,0,0.1,0,0.1c-0.1,0-0.2,0-0.2,0s-0.1,0-0.2,0.1c0,0.1,0,0.1,0,0.1v0.1
		h-0.1H23c0,0.1-0.1,0.2-0.2,0.3h-0.1c-0.1,0-0.2,0.1-0.1,0.2h-0.1c-0.1,0.1-0.2,0.1-0.2,0.2l0,0c-0.1,0-0.1-0.1-0.1-0.2h-0.1v0.1
		c-0.2,0.1-0.3,0-0.3,0s-0.1,0-0.2,0s-0.1,0-0.2,0c-0.1,0.1-0.2,0.1-0.2,0.1c0-0.1-0.1-0.2-0.1-0.3s-0.1-0.1-0.2-0.1
		C20.8,61,20.8,61,20.7,61c0-0.1,0-0.3-0.2-0.5v-0.1c-0.1-0.2-0.3-0.3-0.4-0.4H20h-0.1c0-0.3,0-0.5-0.2-0.7c0,0,0,0-0.1,0
		c0,0,0,0-0.1,0c0,0-0.1-0.1-0.1-0.2c0-0.1,0-0.2-0.1-0.2H19c0-0.1,0-0.1-0.1-0.2c-0.1-0.1-0.1-0.2-0.1-0.3
		c-0.1-0.1-0.3-0.2-0.4-0.4c0-0.1-0.1-0.3-0.3-0.4c-0.1,0-0.1-0.1-0.1-0.2s0-0.1-0.1-0.2c-0.1,0.1-0.2,0.1-0.3,0
		c0-0.2,0-0.3-0.1-0.4c0-0.1,0-0.2-0.1-0.3c-0.1,0-0.1,0-0.2,0l-0.1,0.1l0,0v-0.1v-0.1c0,0,0-0.1-0.1-0.2c0-0.1-0.1-0.2-0.2-0.2
		v-0.1c0-0.1,0-0.1,0-0.1s0,0-0.1-0.1c-0.1,0-0.1-0.1-0.1-0.2c-0.2-0.3-0.4-0.6-0.7-0.8v-0.1c-0.1-0.1-0.2-0.2-0.3-0.2
		c0-0.2-0.1-0.4-0.2-0.5v-0.1c-0.2-0.2-0.3-0.3-0.4-0.3c0,0,0-0.1,0-0.2c0-0.2,0-0.3-0.1-0.3h-0.1h-0.1c0,0,0-0.1,0-0.2
		c0-0.1,0-0.1,0-0.2c-0.1-0.1-0.2-0.2-0.2-0.2h-0.1c0-0.1,0-0.2,0-0.3V52l0,0v-0.1c0,0,0,0,0-0.1c0,0-0.1,0-0.2,0
		c-0.1,0-0.1,0-0.2,0c0-0.1,0-0.2,0-0.3l0,0h-0.1c0-0.1,0-0.1,0-0.3h-0.1v-0.1c0-0.1,0-0.1,0-0.1s0,0-0.1,0c-0.1-0.1-0.1-0.1,0-0.2
		c0.1-0.1,0.1-0.2,0.1-0.2s-0.1-0.1-0.2-0.2c-0.1-0.1-0.1-0.1-0.2-0.2v-0.1c0,0,0-0.1-0.1-0.1l-0.1-0.1c0-0.1,0-0.1-0.1-0.2
		c0-0.1-0.1-0.1-0.1-0.2c-0.1-0.1-0.2-0.3-0.3-0.6c0,0-0.1-0.1-0.2-0.1c0,0,0-0.1,0.1-0.1c0,0-0.1-0.1-0.1-0.3
		c0-0.1-0.1-0.3-0.1-0.4c0,0-0.1,0-0.3,0c0.1-0.1,0.1-0.3,0-0.3c0,0,0-0.1-0.1-0.1c0-0.1-0.1-0.3-0.2-0.4c0-0.1,0-0.1-0.1-0.2
		c-0.1-0.1-0.1-0.2-0.1-0.3c0,0,0-0.1-0.1-0.1h-0.1c0,0,0,0,0-0.1s0-0.1,0-0.1s0-0.1-0.1-0.1l-0.1-0.1c0,0,0-0.1,0-0.2
		c0-0.1,0-0.2,0-0.2h-0.1H11V46c0-0.1,0-0.1,0-0.1s0,0-0.1,0c0-0.1,0-0.2,0-0.4c0,0,0,0,0.1,0h0.1c0,0,0-0.1,0-0.2
		c0,0,0.1-0.1,0.1-0.2c0-0.1,0.1-0.1,0.1-0.2h0.1c0.1,0,0.2-0.1,0.2-0.2c0,0,0.1-0.1,0.1-0.2c0.1-0.1,0.1-0.1,0.2-0.1
		c0-0.1,0-0.2,0.1-0.3c0.1,0,0.1,0,0.2,0c0.2,0,0.3,0.1,0.3,0.2H13l0,0c0.1,0.1,0.2,0.1,0.2,0.1c0.1,0.1,0.2,0.2,0.3,0.3
		s0.2,0.2,0.3,0.3c0.1,0,0.1,0,0.3,0.1c-0.1,0.1,0,0.2,0.2,0.2c0.1,0.1,0,0.3-0.1,0.3c0,0,0.1,0.1,0.2,0.2c0,0.2,0.1,0.4,0.3,0.6
		c-0.1,0.2,0,0.3,0.1,0.3c0,0.1,0,0.2,0,0.3s0.1,0.2,0.1,0.2s0,0.1,0.1,0.1l0.1,0.1c0,0.1,0,0.2,0,0.2l0.1,0.1
		c0.1,0.1,0.1,0.1,0.1,0.1c0.1,0,0.1,0,0.1,0v0.1c0,0,0,0,0,0.1s0,0.1,0,0.2c0,0.1,0,0.1,0,0.2s0,0.1,0,0.1h0.1l0.3,0.3v0.1V49
		c0,0,0,0.1,0.1,0.1c0.1,0.1,0.1,0.1,0,0.2c0.1,0.1,0.1,0.1,0.2,0.1c0,0,0.1,0.2,0.3,0.6c0,0,0,0.1,0.1,0.1c0,0.1,0,0.1,0.1,0.2
		c0,0.1,0.1,0.1,0.1,0.2c0,0.1,0.1,0.1,0.1,0.1c0.1,0.3,0.2,0.4,0.3,0.4c0,0.1,0,0.1,0.1,0.2c0,0.1,0.1,0.1,0.1,0.2
		c0.1,0.1,0.2,0.2,0.2,0.3s0,0.2,0.1,0.2s0.1,0.1,0.3,0.1c0.1,0.1,0,0.1,0,0.3H18h0.1v0.1c0,0.1,0,0.1,0,0.2h0.1c0,0,0.1,0,0.2,0
		c0.1,0.3,0.2,0.5,0.2,0.6v0.1c0.1,0.1,0.2,0.2,0.2,0.3v-0.1c0,0,0,0,0.1,0.1c0,0.1,0,0.1,0.1,0.1c0,0.1,0,0.1,0.1,0.2
		c0.1,0.1,0.1,0.1,0.1,0.2h0.1c0,0.1,0.1,0.2,0.3,0.2c0,0.1,0,0.1,0,0.1s0,0,0.1,0.1c0,0.1,0,0.2,0,0.3c0.1,0.1,0.2,0.1,0.3,0.1
		c0,0,0,0.1,0,0.2c0,0.1,0.1,0.2,0.1,0.2s0,0,0.1,0c0,0,0,0,0.1,0c0,0.3,0.2,0.6,0.4,0.7c0.1,0,0.2,0,0.2,0v-0.2
		c0-0.1,0.1-0.2,0.3-0.3v-0.1c0.1-0.1,0.1-0.2,0.1-0.4l0.1-0.1c0,0,0-0.1,0.1-0.1s0.1-0.1,0.1-0.1v-0.1c0,0,0-0.1,0.1-0.2
		c0.1-0.1,0.1-0.2,0-0.2v-0.1c0-0.1,0-0.2,0-0.3c0.2,0,0.2,0,0.2-0.2c0.1-0.1,0.1-0.1,0.1-0.1c0-0.1,0-0.2,0-0.3c0-0.1,0-0.1,0-0.2
		c0.1,0,0.1-0.1,0.1-0.1c0-0.1,0-0.2,0.1-0.3s0.1-0.3,0-0.4c0.1-0.1,0.1-0.2,0.1-0.3v-0.1v-0.1c0,0,0.1-0.1,0.2-0.1
		c0-0.1,0.1-0.2,0.2-0.3c0-0.2,0.1-0.3,0.1-0.3v-0.1c0-0.1,0-0.1,0-0.1s0,0,0.1,0c0,0,0,0,0.1,0c0,0,0-0.1,0.1-0.2
		c0-0.1,0.1-0.1,0.1-0.2c0-0.1,0-0.1,0-0.2c0-0.1,0-0.2,0-0.2v-0.1c0-0.1,0-0.1,0-0.1c0.1-0.3,0.2-0.5,0.2-0.6h0.1
		c0-0.1,0.1-0.2,0.2-0.3s0.2-0.3,0.1-0.4c0-0.1,0.1-0.1,0.1-0.3C24,48.1,24,48,24.1,48c0,0,0.1-0.1,0.2-0.1c0,0,0-0.1,0-0.4v-0.1
		v-0.1v-0.1v-0.1c0,0,0.1-0.1,0.2-0.2l0,0l0,0c0,0,0-0.1,0-0.2c0-0.1,0-0.2,0-0.2c-0.1-0.1-0.1-0.2-0.1-0.2c0.2-0.1,0.3-0.1,0.3-0.2
		c0,0,0-0.1,0-0.2c0-0.1,0-0.1,0-0.2c0,0,0-0.1,0.1-0.1c0,0,0-0.1-0.1-0.1l-0.1-0.1c0,0,0.1-0.1,0.2-0.2c0-0.1,0-0.2,0-0.4
		s0-0.4,0-0.4l0.1-0.1l0.1-0.1l0-0.1c-0.1-0.1-0.1-0.2,0-0.3s0.1-0.1,0.1-0.2v-0.2c-0.1-0.1-0.1-0.2,0-0.3h0.3
		C25.4,42.9,25.5,42.8,25.7,42.5C25.7,42.6,25.7,42.6,25.7,42.5z M16.4,49.7L16.4,49.7L16.4,49.7C16.4,49.8,16.4,49.7,16.4,49.7
		L16.4,49.7z M16.4,49.7L16.4,49.7C16.4,49.8,16.4,49.7,16.4,49.7L16.4,49.7z M20.7,55.7C20.8,55.7,20.8,55.7,20.7,55.7
		C20.8,55.8,20.8,55.8,20.7,55.7L20.7,55.7z M20.7,55.8L20.7,55.8C20.8,55.7,20.8,55.7,20.7,55.8C20.8,55.8,20.8,55.8,20.7,55.8z"/>
	<path fill="#643282" d="M44.6,39.3C44.6,39.4,44.6,39.4,44.6,39.3C44.6,39.4,44.6,39.4,44.6,39.3c0.2,0.1,0.4,0.2,0.5,0.3
		c0.2,0.2,0.3,0.3,0.5,0.3c0,0.1,0.1,0.2,0.2,0.4c0.2,0.1,0.2,0.3,0.2,0.5c0,0,0.1,0,0.2,0c0,0.1,0,0.1-0.1,0.1S46,41,46,41v0.1v0.1
		c0,0.1,0,0.2-0.1,0.3c0.1,0.3,0.1,0.4,0.1,0.4c-0.1,0-0.1,0-0.2,0c0,0,0,0.1,0,0.2c0,0.1-0.1,0.1-0.2,0.1l-0.1,0.2
		c0,0-0.1,0-0.2,0.1h-0.1l-0.1,0.1c-0.1,0-0.1,0-0.1,0l0,0h-0.1c0,0,0,0-0.1,0s-0.2,0-0.3,0.1c-0.1,0-0.2-0.1-0.4-0.2
		c-0.1,0-0.2,0-0.3-0.1s-0.2-0.1-0.2-0.1h-0.1h-0.1c-0.1,0-0.2,0-0.4,0s-0.3,0-0.4,0.1c-0.1-0.1-0.3-0.1-0.5,0c0,0,0,0-0.1,0
		c0,0,0,0-0.1,0c0,0-0.1,0-0.2,0s-0.1,0-0.2,0c0,0-0.2,0-0.4,0s-0.3,0-0.3,0.1v0.1c0,0.1,0,0.1,0,0.1s0,0,0,0.1s0,0.1,0,0.1
		s0,0.1,0.1,0.2c0,0.1,0.1,0.1,0.1,0.2c0,0,0,0.1,0,0.2c0,0.1,0,0.2,0,0.3s0,0.2,0,0.2c0,0.1,0.1,0.1,0.2,0.1c0,0.1,0,0.2-0.1,0.2
		c0,0.1,0,0.1,0,0.3c0,0.1,0,0.2,0,0.2s0,0.1,0.1,0.1l0.1,0.1c0,0.1,0,0.2,0,0.5c0,0.2,0,0.4,0,0.5v0.1v0.1c0,0.1,0,0.2,0,0.3v0.1
		c0,0.1,0,0.1,0,0.3c0,0.3,0,0.5,0.1,0.6v0.1v0.1c0,0,0,0.1,0.1,0.1c0,0,0.1,0,0.1,0.1s0,0-0.1,0h-0.1l0,0c0,0,0.1,0.1,0.2,0.1v0.1
		v0.1c0,0,0,0.1,0,0.2c0,0.1,0,0.2,0,0.3s0,0.1,0,0.2c0,0,0,0,0,0.1v0.1c0,0.1,0,0.1,0,0.1c0,0.1,0,0.1,0,0.1v0.1v0.1
		c0,0.1,0,0.1,0,0.1c0.1,0.1,0.1,0.2,0,0.3c0,0.1,0,0.2,0,0.3c0,0,0.1,0,0.1,0.1v0.1c0,0,0,0.1-0.1,0.1c0,0.1-0.1,0.1-0.1,0.1
		l0.1,0.1c0,0,0,0.1,0.1,0.1v0.1c0,0.1,0,0.2,0,0.3c0,0.2,0,0.3,0,0.4c0,0.1,0,0.1,0,0.2c0,0,0,0,0,0.1V52c0,0,0,0.1,0,0.3
		c0,0.1,0,0.2,0,0.4c0,0,0,0.1,0,0.2c0,0.1,0,0.2,0,0.3l0.1,0.1c0,0.1,0,0.1,0,0.2c0,0.1,0,0.1,0,0.1s0,0.1,0.1,0.2
		c0,0.1,0.1,0.1,0.1,0.2s0,0.1,0,0.2c0,0.1,0,0.2,0,0.2s0,0.1,0.1,0.3c0,0.1,0,0.1,0,0.1s0,0.1,0,0.3s0,0.3,0,0.3s0,0.1,0,0.2
		c0,0.1,0,0.2,0,0.2c0,0.1,0,0.1,0,0.2c0,0,0,0,0,0.1c0,0,0,0,0.1,0c0,0.1,0,0.1,0,0.2c0,0.1,0,0.1,0,0.2v0.1v0.1v0.1
		c0,0.1,0,0.2,0.1,0.2c0,0.1,0.1,0.2,0.2,0.3c0.1,0,0.3,0,0.5,0s0.3,0,0.4,0h0.1l0.1-0.1c0.2,0,0.4,0,0.4,0.1h0.1h0.1h0.1h0.1h0.1
		c0.1,0,0.1,0,0.1,0c0.1,0.1,0.3,0.1,0.5,0c0,0,0.1,0,0.2,0c0.1,0,0.1,0,0.2,0l0.1-0.1c0,0,0.1,0,0.2,0c0.1,0,0.1,0,0.2,0v-0.1V57
		h0.2c0,0,0,0,0,0.1v0.1c0.1,0,0.2,0,0.2-0.1c0.1-0.1,0.1-0.1,0.2,0v0.1c0.5,0.1,0.9,0.1,1.3,0.1H48c0.3,0.1,0.6,0.1,0.6,0
		c0,0,0.1,0.1,0.2,0.1c0.1,0,0.1,0.1,0.2,0.1c0.1,0,0.2,0,0.3,0c0,0.1,0,0.2,0.2,0.3c0.1,0.1,0.2,0.2,0.2,0.3h0.1h0.1
		c0,0.1,0,0.1,0,0.2c0.2,0.2,0.3,0.4,0.2,0.6V59v0.1l0.1,0.1c0,0.1-0.1,0.1-0.2,0.1c0,0.1,0,0.2-0.1,0.3c0.1-0.1,0.1,0,0.1,0
		s-0.1,0-0.1,0.1l-0.1,0.1v0.1c-0.2,0-0.4,0.1-0.4,0.1v0.1c-0.1,0-0.1,0-0.2,0c-0.1,0-0.2,0.1-0.2,0.2h-0.1c0-0.2-0.1-0.2-0.3-0.2
		l-0.1,0.1h-0.1c-0.1,0-0.1-0.1-0.2-0.1c-0.1,0-0.1,0-0.2,0.1c-0.1,0-0.3,0-0.6,0s-0.5,0-0.7,0c0-0.1-0.1-0.2-0.1-0.1
		c0,0,0,0-0.1,0.1c0,0,0,0.1-0.1,0.1c0,0-0.1,0-0.3,0s-0.3,0-0.3,0L45.5,60c0,0,0,0-0.1,0c0,0,0,0.1-0.1,0.1c0,0-0.1-0.1-0.2-0.1
		c0,0,0,0-0.1,0c-0.2,0-0.3,0-0.3,0c-0.1,0-0.1,0.1-0.1,0.2c0,0-0.1,0-0.2,0c-0.1,0-0.2,0-0.2,0s0-0.1-0.1-0.1c0,0,0,0-0.1-0.1
		c-0.1,0-0.1,0-0.2,0.1c-0.1,0-0.1,0.1-0.2,0.1c-0.1-0.1-0.1-0.1-0.2-0.1c-0.1,0-0.1,0.1-0.1,0.2c-0.1,0-0.1,0-0.2-0.1
		c-0.1,0-0.1,0-0.3,0c-0.3,0-0.4,0-0.5,0.1c0,0-0.1,0-0.1-0.1c-0.2,0.1-0.4,0.2-0.4,0.2c-0.1,0-0.2,0-0.2,0
		c-0.1-0.1-0.2-0.1-0.5-0.1c-0.1,0-0.2,0-0.2,0h-0.1v0.1c-0.1,0-0.2,0-0.4,0s-0.3,0.1-0.3,0.1s-0.1,0-0.2,0c0,0,0,0-0.1,0
		c0,0,0,0-0.1,0h-0.1c-0.1,0-0.2,0.1-0.3,0.2c0,0-0.1,0-0.3,0s-0.3,0-0.3,0c-0.1,0-0.1,0-0.1,0s0,0-0.1,0v0.1c-0.1,0-0.1,0-0.1-0.1
		v-0.1c-0.1,0-0.1,0-0.1,0.1l0,0h-0.1h-0.1c-0.1,0-0.1,0.1-0.2,0.2c-0.3,0.1-0.5,0-0.5-0.1c-0.1,0-0.2,0.1-0.3,0.1
		c0,0.1,0,0.1,0,0.1s-0.1,0-0.2,0h-0.1c0,0-0.1,0-0.1-0.1c-0.2,0-0.4,0-0.7,0.1s-0.4,0.1-0.5,0.1c0,0.1,0,0.1,0,0.1
		c-0.1,0-0.1,0-0.2,0c-0.1,0-0.1,0-0.1,0s0,0,0-0.1V61l0,0l0,0h-0.1H35c0,0,0,0-0.1,0h-0.1c0,0-0.1,0-0.2,0c-0.1,0-0.2,0-0.3,0
		s-0.1,0-0.1,0c-0.1,0-0.2,0-0.3,0c-0.2,0-0.3,0-0.3,0h-0.1h-0.1h-0.1c-0.1,0-0.3,0-0.5,0c0,0,0,0,0,0.1v0.1l0,0c0,0,0-0.1,0-0.2
		h-0.1c-0.1,0-0.2,0-0.2-0.1c0,0-0.1,0-0.2,0c-0.1-0.2-0.2-0.3-0.3-0.3c0,0.1,0,0.1,0,0.1c-0.1,0-0.1,0-0.2,0c0-0.1-0.1-0.2-0.2-0.4
		c-0.2-0.1-0.3-0.2-0.3-0.3c0,0,0-0.1,0-0.2s0-0.2,0-0.2c-0.1-0.3-0.1-0.5,0-0.5c0,0,0.1-0.1,0.1-0.2c0-0.1,0-0.2,0-0.3h0.1h0.1
		c0.2-0.2,0.4-0.4,0.6-0.5c0.6,0,1.3,0,2.1,0c0.1-0.1,0.1-0.1,0.2-0.1c0.1,0,0.1,0,0.2,0.1c0.1,0,0.1,0,0.2,0C35,58.1,35,58,35,58
		c0.1,0,0.1,0,0.2,0.1c0.1,0,0.1,0.1,0.2,0c0,0,0.1,0,0.1-0.1c0.1,0,0.1-0.1,0.1-0.1s0.1,0,0.1,0.1l0.1,0.1c0,0,0.1,0,0.2-0.1h0.1
		c0.1-0.1,0.3-0.2,0.5-0.2c0,0,0.2-0.1,0.4-0.1h0.1c0.1,0,0.1,0,0.2,0c0.1,0,0.2,0,0.2,0h0.1l0.1-0.1h0.1c0.1,0,0.1,0,0.1,0
		s0-0.1,0.1-0.1s0.2,0,0.4,0s0.3,0,0.4-0.1v-0.1c0,0,0,0,0-0.1c0.1,0,0.3,0,0.8,0c0.1-0.1,0.1-0.2,0-0.4c0-0.3,0-0.6-0.1-0.7
		c0.1,0,0.1-0.1,0-0.2c0-0.1,0-0.1,0-0.2c0-0.1,0-0.1,0-0.2c0,0,0,0,0-0.1v-0.1v-0.1c0-0.1,0-0.1,0-0.1c-0.2-0.1-0.2-0.3-0.1-0.5
		c0-0.1,0-0.4,0-0.6s0-0.5,0-0.6l-0.1-0.1c0,0,0,0-0.1,0c0,0,0,0,0-0.1v-0.1c0.1,0,0.1-0.1,0.2-0.1c0-0.1,0-0.1-0.1-0.1
		c0-0.1,0-0.2,0-0.4s0-0.3,0-0.3c0-0.1,0-0.1,0-0.2c0-0.1,0-0.1,0-0.2s0-0.1,0-0.1c0-0.1,0-0.1,0-0.1s0-0.1,0-0.2c0-0.1,0-0.2,0-0.2
		s0,0-0.1,0c0-0.1,0-0.2,0-0.3s0-0.2,0-0.6c0-0.3,0-0.5,0-0.6v-0.1v-0.1c0,0,0,0,0-0.1v-0.1c0,0,0-0.1,0-0.2s0-0.1,0-0.2
		c0,0,0,0,0.1-0.1c0,0,0.1,0,0.1-0.1c0,0-0.1-0.2-0.2-0.5c-0.2,0-0.2-0.2-0.1-0.6c0.1,0,0.1,0,0.1,0l0,0c0,0,0,0-0.1,0l0,0
		c0,0,0-0.1,0-0.2c0,0,0,0,0.1,0c0-0.1,0-0.2,0-0.3c0-0.2,0-0.3-0.1-0.4c0-0.1-0.1-0.2-0.2-0.2v-0.2H39c0,0,0-0.1,0-0.2
		c0-0.1,0-0.3,0-0.5s0-0.3-0.1-0.3c0,0,0,0,0-0.1s0-0.1,0-0.1s0,0,0-0.1s0-0.1,0-0.1c0-0.1,0.1-0.1,0.1-0.1c0-0.1,0-0.2,0-0.2
		s-0.1-0.1-0.1-0.4v-0.1c0,0,0,0,0-0.1l0,0c0,0,0,0,0-0.1c0,0,0-0.1-0.1-0.1l-0.1-0.1v-0.1c0-0.1,0-0.1,0-0.1c0-0.1,0-0.2-0.1-0.3
		c0-0.1,0-0.2-0.1-0.3s-0.1-0.2-0.1-0.3c-0.1,0-0.1,0-0.1,0v0.1c0-0.1-0.1-0.1-0.3,0v-0.1v-0.1c-0.1,0-0.1,0-0.2,0v0.1v0.1h-0.1
		h-0.1h-0.1c-0.1,0-0.1,0-0.2,0h-0.1c0,0,0,0-0.1,0S37,42.8,37,42.9c-0.1,0-0.1,0-0.1,0v-0.1c-0.1-0.1-0.1-0.1-0.3,0v0.1l0,0h-0.1
		h-0.1c-0.1,0-0.2,0-0.4,0s-0.3,0-0.4,0c-0.2,0-0.4,0-0.4,0c-0.1-0.1-0.2-0.1-0.3,0c-0.1,0-0.2,0-0.3,0s-0.2,0-0.3,0s-0.2,0-0.4,0
		s-0.3,0-0.4,0c0,0-0.1,0-0.1,0.1l0,0v-0.1c0,0.1-0.1,0.1-0.1,0.1c-0.1,0-0.1-0.1-0.2-0.1H33l-0.1-0.1l-0.1-0.1
		c-0.2,0.1-0.4,0-0.6-0.2c-0.1,0-0.1-0.1-0.2-0.2c-0.1-0.1-0.2-0.2-0.2-0.2c-0.1,0-0.2,0-0.2-0.1c-0.1-0.1-0.1-0.1-0.1-0.3
		c-0.2-0.2-0.3-0.3-0.4-0.4c0-0.1,0-0.2-0.1-0.3c0,0,0-0.1,0.1-0.2c0-0.2,0.2-0.4,0.4-0.8c0.1,0,0.2-0.1,0.3-0.2h0.1H32
		c0,0,0.1,0,0.1-0.1l0.1-0.1c0,0,0.1,0,0.3,0c0.1,0,0.2,0,0.3,0l0.1-0.1l0.1-0.1c0.1,0,0.1,0,0.2,0.1c0.1,0.1,0.2,0.1,0.2,0.1h0.1
		c0.1,0,0.1,0,0.1,0c0.1,0,0.3,0,0.5,0s0.4,0,0.5,0s0.2,0,0.3-0.1c0.2,0.1,0.3,0.1,0.4,0h0.1h0.1h0.1c0,0,0,0,0-0.1
		c0.1,0,0.2,0,0.4,0s0.3,0,0.3-0.1c0.2,0.1,0.4,0.1,0.6,0c0,0,0,0,0-0.1c0,0,0.1,0,0.1-0.1c0.1,0,0.3,0,0.5,0s0.4,0,0.5,0
		s0.2-0.1,0.2-0.2c0.1,0,0.1,0,0.3,0.1h0.1c0.7,0,1.1,0,1.3-0.1c0.1,0,0.1,0,0.3,0c0,0,0,0,0.1,0c0,0,0,0,0.1,0
		c0.1-0.1,0.2-0.1,0.4-0.1s0.3,0,0.4,0c0.1-0.1,0.1-0.1,0.1-0.1h0.3h0.1c0.1,0,0.1,0,0.1,0c0.1,0,0.1,0,0.2,0c0.3,0,0.5,0,0.6-0.1
		l0.2,0.1c0.2-0.2,0.4-0.2,0.6,0c0,0,0.1,0,0.3,0s0.3,0,0.3,0h0.1c0,0,0.1,0,0.2,0c0.1,0,0.1,0,0.2,0c0.1,0,0.2,0,0.3,0
		c0.2,0,0.3,0,0.4,0C44.4,39.3,44.5,39.3,44.6,39.3z M44.3,39.4c0.1-0.1,0.2-0.1,0.3-0.1v0.1l0,0c0.2,0,0.4,0.1,0.5,0.2
		c0.2,0.2,0.3,0.3,0.5,0.3c0,0.1,0.1,0.2,0.2,0.4c0.2,0.1,0.2,0.3,0.2,0.5c0,0,0.1,0,0.2,0c0,0.1,0,0.1-0.1,0.1S46,41,46,41v0.1v0.1
		c0,0.1,0,0.2-0.1,0.3c0.1,0.3,0.1,0.4,0.1,0.4c-0.1,0-0.1,0-0.2,0c0,0,0,0.1,0,0.2c0,0.1-0.1,0.1-0.2,0.1l-0.1,0.2
		c0,0-0.1,0-0.2,0.1h-0.1l-0.1,0.1c-0.1,0-0.1,0-0.1,0l0,0h-0.1c0,0,0,0-0.1,0s-0.2,0-0.3,0.1c-0.1,0-0.2-0.1-0.4-0.2
		c-0.1,0-0.2,0-0.3-0.1s-0.2-0.1-0.2-0.1h-0.1h-0.1c-0.1,0-0.2,0-0.4,0s-0.3,0-0.4,0.1c-0.1-0.1-0.3-0.1-0.5,0c0,0,0,0-0.1,0
		c0,0,0,0-0.1,0c0,0-0.1,0-0.2,0s-0.1,0-0.2,0c0,0-0.2,0-0.4,0s-0.3,0-0.3,0.1v0.1c0,0.1,0,0.1,0,0.1s0,0,0,0.1s0,0.1,0,0.1
		s0,0.1,0.1,0.2c0,0.1,0.1,0.1,0.1,0.2c0,0,0,0.1,0,0.2c0,0.1,0,0.2,0,0.3s0,0.2,0,0.2c0,0.1,0.1,0.1,0.2,0.1c0,0.1,0,0.2-0.1,0.2
		c0,0.1,0,0.1,0,0.3c0,0.1,0,0.2,0,0.2s0,0.1,0.1,0.1l0.1,0.1c0,0.1,0,0.2,0,0.4s0,0.4,0,0.5c0.1,0.1,0.1,0.1,0.1,0.2
		c0,0.1,0,0.2,0,0.3v0.1c0,0.1,0,0.1,0,0.3c0,0.3,0,0.5,0.1,0.6v0.1v0.1c0,0,0,0.1,0.1,0.1c0,0,0.1,0,0.1,0.1s0,0-0.1,0h-0.1
		c0,0.1,0.1,0.1,0.2,0.2v0.1v0.1c0,0,0,0.1,0,0.2c0,0.1,0,0.2,0,0.3s0,0.1,0,0.2c0,0,0,0,0,0.1v0.1c0,0.1,0,0.1,0,0.1
		c0,0.1,0,0.1,0,0.1v0.1v0.1c0,0.1,0,0.1,0,0.1c0.1,0.1,0.1,0.2,0,0.3c0,0.1,0,0.2,0,0.3c0,0,0.1,0,0.1,0.1v0.1c0,0,0,0.1-0.1,0.1
		c0,0.1-0.1,0.1-0.1,0.1l0.1,0.1c0,0,0,0.1,0.1,0.1v0.1c0,0.1,0,0.2,0,0.3c0,0.2,0,0.3,0,0.4c0,0.1,0,0.1,0,0.2c0,0,0,0,0,0.1V52
		c0,0,0,0.1,0,0.3c0,0.1,0,0.2,0,0.4c0,0,0,0.1,0,0.2c0,0.1,0,0.2,0,0.3l0.1,0.1c0,0.1,0,0.1,0,0.2c0,0.1,0,0.1,0,0.1s0,0.1,0.1,0.2
		c0,0.1,0.1,0.1,0.1,0.2s0,0.1,0,0.2c0,0.1,0,0.2,0,0.2s0,0.1,0.1,0.3c0,0.1,0,0.1,0,0.1s0,0.1,0,0.3s0,0.3,0,0.3s0,0.1,0,0.2
		c0,0.1,0,0.2,0,0.2c0,0.1,0,0.1,0,0.2c0,0,0,0,0,0.1c0,0,0,0,0.1,0c0,0.1,0,0.1,0,0.2c0,0.1,0,0.1,0,0.2v0.1v0.1v0.1
		c0,0.1,0,0.2,0.1,0.2c0,0.1,0.1,0.2,0.2,0.3c0.1,0,0.3,0,0.5,0s0.3,0,0.4,0h0.1l0.1-0.1c0.2,0,0.4,0,0.4,0.1h0.1h0.1h0.1h0.1h0.1
		c0.1,0,0.1,0,0.1,0c0.1,0.1,0.3,0.1,0.5,0c0,0,0.1,0,0.2,0c0.1,0,0.1,0,0.2,0l0.1-0.1c0,0,0.1,0,0.2,0c0.1,0,0.1,0,0.2,0
		c0-0.1,0-0.1,0-0.1h0.2c0,0,0,0,0,0.1v0.1c0.1,0,0.2,0,0.2-0.1c0.1-0.1,0.1-0.1,0.2,0v0.1c0.5,0.1,0.9,0.1,1.3,0.1h0.1
		c0.3,0.1,0.6,0.1,0.6,0c0,0,0.1,0.1,0.2,0.1c0.1,0,0.1,0.1,0.2,0.1c0.1,0,0.2,0,0.3,0c0,0.1,0,0.2,0.2,0.3c0.1,0.1,0.2,0.2,0.2,0.3
		h0.1H50c0,0.1,0,0.1,0,0.2c0.2,0.2,0.3,0.4,0.2,0.6v0.1v0.1l0.1,0.1c0,0.1-0.1,0.1-0.2,0.1c0,0.1,0,0.2-0.1,0.3c0-0.2,0-0.1,0-0.1
		s-0.1,0-0.1,0.1l-0.1,0.1v0.1c-0.2,0-0.4,0.1-0.4,0.1v0.1c-0.1,0-0.1,0-0.2,0c-0.1,0-0.2,0.1-0.2,0.2h-0.1c0-0.2-0.1-0.2-0.3-0.2
		l-0.1,0.1h-0.1c-0.1,0-0.1-0.1-0.2-0.1c-0.1,0-0.1,0-0.2,0.1c-0.1,0-0.3,0-0.6,0s-0.5,0-0.7,0c0-0.1-0.1-0.2-0.1-0.2s0,0.1-0.1,0.1
		c0,0,0,0.1-0.1,0.1c0,0-0.1,0-0.3,0s-0.3,0-0.3,0L45.5,60c0,0,0,0-0.1,0c0,0,0,0.1-0.1,0.1c0,0-0.1-0.1-0.2-0.1c0,0,0,0-0.1,0
		c-0.2,0-0.3,0-0.3,0c-0.1,0-0.1,0.1-0.1,0.2c0,0-0.1,0-0.2,0c-0.1,0-0.2,0-0.2,0s0-0.1-0.1-0.1c0,0,0,0-0.1-0.1
		c-0.1,0-0.1,0-0.2,0.1c-0.1,0-0.1,0.1-0.2,0.1c-0.1-0.1-0.1-0.1-0.2-0.1c-0.1,0-0.1,0.1-0.1,0.2c-0.1,0-0.1,0-0.2-0.1
		c-0.1,0-0.1,0-0.3,0c-0.3,0-0.4,0-0.5,0.1c0,0-0.1,0-0.1-0.1c-0.2,0.1-0.4,0.2-0.4,0.2c-0.1,0-0.2,0-0.2,0
		c-0.1-0.1-0.2-0.1-0.5-0.1c-0.1,0-0.2,0-0.2,0h-0.1v0.1c-0.1,0-0.2,0-0.4,0s-0.3,0.1-0.3,0.1s-0.1,0-0.2,0c0,0,0,0-0.1,0
		c0,0,0,0-0.1,0h-0.1c-0.1,0-0.2,0.1-0.3,0.2c0,0-0.1,0-0.3,0s-0.3,0-0.3,0c-0.1,0-0.1,0-0.1,0s0,0-0.1,0v0.1c-0.1,0-0.1,0-0.1-0.1
		v-0.1c-0.1,0-0.1,0-0.1,0.1l0,0h-0.1h-0.1c-0.1,0-0.1,0.1-0.2,0.2c-0.3,0.1-0.5,0-0.5-0.1c-0.1,0-0.2,0.1-0.3,0.1
		c0,0.1,0,0.1,0,0.1s-0.1,0-0.2,0h-0.1c0,0-0.1,0-0.1-0.1c-0.2,0-0.4,0-0.7,0.1s-0.4,0.1-0.5,0.1c0,0.1,0,0.1,0,0.1
		c-0.1,0-0.1,0-0.2,0c-0.1,0-0.1,0-0.1,0s0,0,0-0.1V61l0,0l0,0h-0.1H35c0,0,0,0-0.1,0h-0.1c0,0-0.1,0-0.2,0c-0.1,0-0.2,0-0.3,0
		s-0.1,0-0.1,0c-0.1,0-0.2,0-0.3,0c-0.2,0-0.3,0-0.3,0h-0.1h-0.1h-0.1c-0.1,0-0.3,0-0.5,0c0,0,0,0,0,0.1v0.1l0,0c0,0,0,0,0-0.1h-0.1
		c-0.1,0-0.2,0-0.2-0.1c0,0-0.1,0-0.2,0c-0.1-0.2-0.2-0.3-0.3-0.3c0,0.1,0,0.1,0,0.1c-0.1,0-0.1,0-0.2,0c0-0.1-0.1-0.2-0.2-0.4
		c-0.2-0.1-0.3-0.2-0.3-0.3c0,0,0-0.1,0-0.2s0-0.2,0-0.2c-0.1-0.3-0.1-0.5,0-0.5c0,0,0.1-0.1,0.1-0.2c0-0.1,0-0.2,0-0.3h0.1h0.1
		c0.2-0.2,0.4-0.4,0.6-0.5c0.6,0,1.3,0,2.1,0c0.1-0.1,0.1-0.1,0.2-0.1c0.1,0,0.1,0,0.2,0.1c0.1,0,0.1,0,0.2,0c0.1,0,0.1-0.1,0.1-0.1
		c0.1,0,0.1,0,0.2,0.1c0.1,0,0.1,0.1,0.2,0c0,0,0.1,0,0.1-0.1c0.1,0,0.1-0.1,0.1-0.1s0.1,0,0.1,0.1l0.1,0.1c0,0,0.1,0,0.2-0.1h0.1
		c0.1-0.1,0.3-0.2,0.5-0.2c0,0,0.2-0.1,0.4-0.1h0.1c0.1,0,0.1,0,0.2,0c0.1,0,0.2,0,0.2,0h0.1l0.1-0.1h0.1c0.1,0,0.1,0,0.1,0
		s0-0.1,0.1-0.1s0.2,0,0.4,0s0.3,0,0.4-0.1v-0.1c0,0,0,0,0-0.1c0.1,0,0.3,0,0.8,0c0.1-0.1,0.1-0.2,0-0.4c0-0.3,0-0.6-0.1-0.7
		c0.1,0,0.1-0.1,0-0.2c0-0.1,0-0.1,0-0.2c0-0.1,0-0.1,0-0.2c0,0,0,0,0-0.1v-0.1v-0.1c0-0.1,0-0.1,0-0.1c-0.2-0.1-0.2-0.3-0.1-0.5
		c0-0.1,0-0.4,0-0.6s0-0.5,0-0.6l-0.1-0.1c0,0,0,0-0.1,0c0,0,0,0,0-0.1v-0.1c0.1,0,0.1-0.1,0.2-0.1c0-0.1,0-0.1-0.1-0.1
		c0-0.1,0-0.2,0-0.4s0-0.3,0-0.3c0-0.1,0-0.1,0-0.2c0-0.1,0-0.1,0-0.2s0-0.1,0-0.1c0-0.1,0-0.1,0-0.1s0-0.1,0-0.2c0-0.1,0-0.2,0-0.2
		s0,0-0.1,0c0-0.1,0-0.2,0-0.3s0-0.2,0-0.6c0-0.3,0-0.5,0-0.6v-0.1v-0.1c0,0,0,0,0-0.1v-0.1c0,0,0-0.1,0-0.2s0-0.1,0-0.2
		c0,0,0,0,0.1-0.1c0,0,0.1,0,0.1-0.1c0,0-0.1-0.2-0.2-0.5c-0.2,0-0.2-0.2-0.1-0.6c0.1,0,0.1,0,0.1,0l0,0c0,0,0,0-0.1,0l0,0
		c0,0,0-0.1,0-0.2c0,0,0,0,0.1,0c0-0.1,0-0.2,0-0.3c0-0.2,0-0.3-0.1-0.4c0-0.1-0.1-0.2-0.2-0.2v-0.2H39c0,0,0-0.1,0-0.2
		c0-0.1,0-0.3,0-0.5s0-0.3-0.1-0.3c0,0,0,0,0-0.1s0-0.1,0-0.1s0,0,0-0.1s0-0.1,0-0.1c0-0.1,0.1-0.1,0.1-0.1c0-0.1,0-0.2,0-0.2
		s-0.1-0.2-0.1-0.4v-0.1c0,0,0,0,0-0.1l0,0c0,0,0,0,0-0.1c0,0,0-0.1-0.1-0.1l-0.1-0.1v-0.1c0-0.1,0-0.1,0-0.1c0-0.1,0-0.2-0.1-0.3
		c0-0.1,0-0.2-0.1-0.3s-0.1-0.2-0.1-0.3c-0.1,0-0.1,0-0.1,0v0.1c0-0.1-0.1-0.1-0.3,0v-0.1v-0.1c-0.1,0-0.1,0-0.2,0v0.1v0.1h-0.1
		h-0.1h-0.1c-0.1,0-0.1,0-0.2,0h-0.1c0,0,0,0-0.1,0S37,42.9,37,43c-0.1,0-0.1,0-0.1,0v-0.1c-0.1-0.1-0.1-0.1-0.3,0V43l0,0h-0.1h-0.1
		c-0.1,0-0.2,0-0.4,0s-0.3,0-0.4,0c-0.2,0-0.4,0-0.4,0c-0.1-0.1-0.2-0.1-0.3,0c-0.1,0-0.2,0-0.3,0s-0.2,0-0.3,0s-0.2,0-0.4,0
		s-0.3,0-0.4,0c0,0,0,0-0.1,0c0,0,0,0,0,0.1l0,0V43c0,0.1-0.1,0.1-0.1,0.1c-0.1,0-0.1-0.1-0.2-0.1H33l-0.1-0.1l-0.1-0.1
		c-0.2,0.1-0.4,0-0.6-0.2c-0.1,0-0.1-0.1-0.2-0.2c-0.1-0.1-0.2-0.2-0.2-0.2c-0.1,0-0.2,0-0.2-0.1c-0.1-0.1-0.1-0.1-0.1-0.3
		c-0.2-0.2-0.3-0.3-0.4-0.4c0-0.1,0-0.2-0.1-0.3c0,0,0-0.1,0.1-0.2c0-0.2,0.2-0.4,0.4-0.8c0.1,0,0.2-0.1,0.3-0.2h0.1H32
		c0,0,0.1,0,0.1-0.1l0.1-0.1c0,0,0.1,0,0.3,0c0.1,0,0.2,0,0.3,0l0.1-0.1l0.1-0.1c0.1,0,0.1,0,0.2,0.1c0.1,0.1,0.2,0.1,0.2,0.1h0.1
		c0.1,0,0.1,0,0.1,0c0.1,0,0.3,0,0.5,0s0.4,0,0.5,0s0.2,0,0.3-0.1c0.2,0.1,0.3,0.1,0.4,0h0.1h0.1h0.1c0,0,0,0,0-0.1
		c0.1,0,0.2,0,0.4,0s0.3,0,0.3-0.1c0.2,0.1,0.4,0.1,0.6,0v-0.1H37c0.1,0,0.3,0,0.5,0s0.4,0,0.5,0s0.2-0.1,0.2-0.2
		c0.1,0,0.1,0,0.3,0.1h0.1c0.7,0,1.1,0,1.3-0.1c0.1,0,0.1,0,0.3,0c0,0,0,0,0.1,0c0,0,0,0,0.1,0c0.1-0.1,0.2-0.1,0.4-0.1s0.3,0,0.4,0
		c0.1-0.1,0.1-0.1,0.1-0.1h0.3h0.1c0.1,0,0.1,0,0.1,0c0.1,0,0.1,0,0.2,0c0.3,0,0.5,0,0.6-0.1l0.2,0.1c0.2-0.2,0.4-0.2,0.6,0
		c0,0,0.1,0,0.3,0s0.3,0,0.3,0c0.1,0,0.1-0.1,0.1-0.1s0.1,0,0.2,0c0.1,0,0.1,0,0.2,0c0.1,0,0.2,0,0.3,0
		C44.1,39.4,44.2,39.4,44.3,39.4z"/>
	<path fill="#643282" d="M60.3,39.4c0.6,0.1,0.9,0,0.9-0.2c0,0,0.2,0,0.4,0c0,0,0,0,0,0.1c0,0,0,0,0,0.1c0,0,0.1,0,0.2,0
		c0.1,0,0.2,0,0.2,0.1c0.1,0,0.3,0,0.4,0.1c0.5,0,0.8,0.1,0.9,0.3h0.1c0.1,0.1,0.2,0.1,0.3,0.2c0.2,0.1,0.3,0.2,0.3,0.2v0.1
		c0.2,0.1,0.3,0.4,0.4,0.8l0.1,0.1c0.1,0.2,0,0.3,0,0.4c0,0.1,0,0.2,0,0.3c-0.1,0.1-0.1,0.2-0.1,0.2c-0.1,0.1-0.1,0.1-0.1,0.1
		c0,0.1,0,0.2-0.1,0.3c0,0.1,0,0.1,0,0.2l-0.1,0.1H64c0,0,0,0-0.1,0c0,0,0,0.1-0.1,0.1s-0.1,0.1-0.2,0c0,0,0,0.1-0.1,0.1l-0.1,0.1
		c-0.1,0-0.2,0-0.3,0c0,0.1,0,0.1,0,0.1s-0.1,0-0.2,0c-0.1,0-0.1,0-0.2,0h-0.1h-0.1c0,0,0-0.1,0.1-0.1c0,0-0.1-0.1-0.1-0.2
		c0-0.1-0.1-0.1-0.1-0.2l-0.1,0.1h-0.1c0-0.1,0-0.1-0.1-0.2c-0.1-0.1-0.1-0.1-0.2-0.1v0.1v0.1l-0.1-0.1l-0.1-0.1c0,0,0,0-0.1-0.1
		c0-0.2-0.2-0.3-0.6-0.3c-0.1,0-0.1,0-0.2,0.1c-0.1,0-0.1,0-0.2,0s-0.1,0-0.2,0l-0.1,0.1c-0.1,0-0.2,0-0.4,0
		c-0.3,0.1-0.5,0.1-0.5,0.2c-0.2-0.1-0.3-0.1-0.3,0c-0.1,0-0.2,0-0.3,0s-0.2,0-0.2,0v0.1c-0.1,0-0.2,0-0.3,0c-0.1-0.1-0.2-0.1-0.3,0
		c0,0-0.1,0-0.1,0.1l-0.1,0.1c-0.1,0-0.1,0-0.2,0s-0.1,0-0.2,0L57.3,43h-0.1c-0.1,0-0.1,0-0.1,0v0.1c-0.3,0-0.5,0-0.6,0v0.1
		c0,0,0,0,0,0.1c-0.3-0.1-0.5-0.1-0.7,0.2c0,0-0.1,0-0.1-0.1c-0.1,0-0.1,0.1,0,0.2c0,0.1,0,0.1,0.1,0.1c0,0,0,0.1,0,0.2V44v0.1
		c0,0.1,0,0.2,0.1,0.2c0,0.1,0,0.2,0.1,0.4s0.1,0.3,0,0.3c0,0.1,0,0.2,0.1,0.3c0,0,0,0,0,0.1c0,0,0,0,0,0.1s0,0.1,0,0.2
		s0.1,0.1,0.1,0.1c0,0.7,0,1,0,1c-0.1,0.1-0.1,0.3,0,0.6c0,0,0,0.1,0,0.3c0,0,0,0.1-0.1,0.1c0,0.1,0,0.1,0,0.2
		c0.1,0.1,0.1,0.1,0.1,0.1v0.1v0.1c0,0.1,0,0.3,0,0.5c0,0.3,0,0.4,0,0.5c0,0,0,0.1,0,0.2c0,0.1,0.1,0.2,0.2,0.1
		c0.1,0,0.2-0.1,0.2-0.1c0.3,0,0.5,0,0.6-0.1c0.3,0,0.5,0,0.6,0c0.2,0,0.3,0,0.4,0c0,0,0.1,0,0.2-0.1c0.1,0,0.1-0.1,0.2-0.1
		s0.1,0,0.2,0c0.2,0,0.3,0,0.3-0.1c0.2,0.1,0.4,0,0.5,0h0.1h0.1c0,0,0.1,0,0.2,0c0.1,0,0.1,0,0.2,0c0.1,0,0.3,0,0.5,0V49
		c0.1,0.1,0.3,0.1,0.4,0c0.2,0,0.3-0.1,0.3-0.1c0.1,0,0.1,0,0.2,0c0.1,0,0.1-0.1,0.1-0.1h0.1c0,0,0,0,0.1,0.1c0,0,0.1,0,0.2-0.1
		c0.1-0.1,0.2-0.1,0.3-0.1c0.1-0.1,0.1-0.1,0.1-0.1s0.1,0,0.1,0.1c0.3,0,0.4,0,0.4-0.1c0.1,0,0.1,0,0.2,0c0.1,0,0.1,0,0.2,0
		s0.1,0,0.2,0.1c0.1,0,0.2,0.1,0.2,0.1c0.1,0,0.2,0.1,0.3,0.2c0.1,0,0.1,0,0.2,0c0,0,0,0,0.1,0c0,0,0,0.1,0.1,0.1c0.2,0,0.4,0,0.4,0
		s0,0.1,0.1,0.2v0.1c0,0.1,0.1,0.2,0.2,0.3c0,0.2,0.1,0.3,0.2,0.4c0,0,0,0.1-0.1,0.1c0,0.1,0,0.2-0.1,0.3s-0.1,0.2-0.1,0.3H65v0.1
		c0,0,0,0,0,0.1h-0.1l0,0h-0.1c0,0-0.1,0-0.1-0.1h-0.1c0,0-0.1,0-0.1,0.1h-0.1c0,0.1-0.1,0.1-0.3,0.2c-0.2,0.1-0.3,0.1-0.3,0.3
		c-0.2,0-0.4,0-0.6,0.2h-0.1c0,0-0.1,0-0.1,0.1c0,0,0,0,0,0.1c-0.1,0-0.2,0-0.2-0.1h-0.1v0.1c-0.1,0-0.2,0-0.3,0s-0.2,0-0.3,0
		c0,0-0.1,0-0.1,0.1l-0.1,0.1c-0.1,0-0.2,0-0.2,0c-0.1,0-0.1,0.1-0.1,0.2c-0.1-0.1-0.1-0.1-0.3-0.1c-0.1,0-0.2,0-0.3,0.1V52
		c-0.1,0-0.1,0-0.2,0c-0.1-0.1-0.1,0-0.2,0c0,0-0.1,0-0.2,0v0.2c-0.1,0-0.2,0-0.3,0s-0.1,0-0.2,0c-0.1,0-0.1,0.1,0,0.2l-0.2-0.1
		c0,0-0.2,0-0.4,0l-0.1,0.1l-0.1,0.1c-0.2,0-0.4,0-0.4,0l-0.1,0.2c-0.3,0-0.5,0-0.5,0c-0.1,0-0.1,0.1-0.3,0.1c0,0,0,0,0,0.1
		c-0.2,0.1-0.4,0.1-0.5,0c0,0-0.1,0-0.1,0.1l-0.1,0.1c0,0-0.1,0-0.1-0.1l-0.1-0.1c-0.1,0-0.1,0-0.2,0.1c-0.1,0-0.1,0-0.2,0
		c-0.1,0-0.1,0.2,0,0.5v0.1v0.1c0,0.1,0.1,0.1,0.2,0.1c0.1,0.1,0,0.2-0.1,0.3c0,0,0,0.1,0,0.2c0,0.1,0,0.2,0.1,0.2v0.1
		c0,0,0,0,0,0.1c0,0,0,0.1-0.1,0.3c0.1,0.1,0.1,0.3,0.1,0.5c0,0.3,0,0.5,0.1,0.6c-0.1,0.2-0.1,0.4,0,0.5c0,0.1,0,0.2,0,0.3V57v0.1
		c0.1,0.2,0.1,0.3,0.1,0.4c0.1,0.1,0.1,0.2,0.2,0.3s0.1,0.2,0.1,0.3c0.1,0,0.2,0,0.3,0.1c0.2,0,0.3,0,0.3,0s0.1,0,0.1-0.1
		c0.1,0,0.1,0,0.1,0.1c0.4,0,0.7-0.1,0.7-0.1c0.1,0,0.2,0,0.3,0c0.2,0,0.3,0,0.4,0c0.1-0.1,0.3-0.1,0.6-0.2c0,0,0,0,0-0.1v-0.1
		c0.1,0,0.1,0,0.2,0c0.1,0,0.2,0,0.2,0s0.1-0.1,0.2-0.1c0.1,0,0.2-0.1,0.2-0.1c0.2,0,0.4,0,0.5-0.2c0.2-0.1,0.4-0.2,0.5-0.2
		c0-0.1,0.1-0.1,0.1-0.1c0.2,0.1,0.3,0,0.3,0c0.2,0,0.4-0.1,0.6-0.3c0.1,0,0.2,0,0.3,0c0.1-0.1,0.2-0.1,0.3-0.1c0.5,0,0.8,0,0.8,0.1
		h0.1c0,0.1,0.1,0.3,0.3,0.4h0.1c0.1,0,0.1,0.1,0.2,0.2c0,0.1,0.1,0.3,0.2,0.3c0,0.1,0,0.1,0.1,0.2c0.1,0.1,0.1,0.2,0.1,0.2
		s0,0,0,0.1s0,0.1,0,0.2c-0.1,0.2-0.2,0.3-0.2,0.4c-0.1,0-0.2,0.1-0.3,0.2c-0.2,0-0.3,0.1-0.3,0.4h-0.1h-0.1c0,0-0.1,0.1-0.1,0.2
		h-0.1H64c0,0-0.1,0-0.1,0.1c-0.2,0-0.3,0.1-0.3,0.2h-0.2c-0.1,0.2-0.3,0.2-0.5,0.1c0,0-0.1,0.1-0.1,0.2h-0.1
		c-0.1-0.1-0.2-0.1-0.3,0c-0.1,0-0.1,0.1-0.1,0.2h-0.2c0,0,0,0,0,0.1c0,0,0,0.1,0,0.2c0,0-0.1-0.1-0.2-0.1c-0.1,0-0.2,0-0.3,0
		l-0.1,0.1c0,0,0,0.1-0.1,0.1h-0.1h-0.1c0,0-0.1,0.1-0.1,0.2c-0.1-0.1-0.3,0-0.4,0c0,0,0,0,0,0.1c-0.1,0-0.2,0-0.3,0
		c-0.2,0-0.3,0.1-0.3,0.1H60c0,0,0,0-0.1,0c0,0-0.1,0-0.2,0c-0.1,0-0.2,0-0.2,0.1s0,0.1,0,0.1s-0.1,0-0.3,0c-0.1,0-0.1,0-0.1,0
		s0-0.1-0.1-0.1c-0.3,0.1-0.4,0.1-0.5,0.1v0.1c-0.1,0-0.1,0-0.2,0l-0.1-0.1l-0.1,0.1H58c0,0-0.1,0-0.2,0c-0.1,0-0.2,0-0.2,0
		c0-0.1,0-0.1,0-0.1h-0.1c-0.1,0-0.1,0.1-0.1,0.2c-0.2,0-0.4,0-0.6,0c0-0.1,0-0.1-0.1-0.2c-0.1,0-0.1,0-0.2,0v0.1c0,0.1,0,0.1,0,0.1
		s0,0,0-0.1v-0.1h-0.2v-0.1c-0.1-0.1-0.2-0.1-0.3-0.1C55.9,61,55.8,61,55.8,61s-0.1,0-0.1-0.1c-0.1-0.1-0.1-0.1-0.1-0.2h-0.1h-0.1
		v-0.1c0,0,0-0.1-0.1-0.1h-0.1h-0.1c0-0.1,0-0.2-0.2-0.3v-0.1c-0.1-0.1-0.2-0.2-0.3-0.3h-0.1c-0.1-0.1-0.2-0.1-0.2-0.2
		C54,59.3,54,59.2,53.9,59c-0.1-0.1-0.1-0.2-0.2-0.3c-0.1-0.4-0.2-0.6-0.2-0.6c0-0.1,0-0.2-0.1-0.3c0-0.1,0-0.1,0-0.3
		c0-0.1,0-0.2,0-0.2c0-0.1,0-0.1-0.1-0.2V57v-0.1c0,0,0-0.1,0-0.3s0-0.3-0.1-0.3c0-0.1,0-0.2,0-0.4s0-0.3,0-0.3c0-0.4,0-1,0-1.8
		s0-1.4,0-1.8c0.1,0,0.2-0.1,0.2-0.2c0-0.1-0.1-0.2-0.2-0.2c0-0.1,0-0.2,0.1-0.3c0-0.1,0.1-0.2,0.1-0.2C53.1,51.1,53,51,53,51
		c0-0.1,0-0.1,0.1-0.1c0-0.1,0-0.7,0-1.6c0.1,0,0.1-0.1,0.1-0.1c0-0.1,0-0.1-0.1-0.2c0.1,0,0.1-0.1,0-0.3c0-0.1,0-0.3,0-0.3v-0.1
		c0.1-0.1,0-0.2,0-0.3s0-0.2,0-0.6s0-0.5-0.1-0.5c0.1,0,0.1-0.2,0.1-0.4s0-0.4,0-0.4L53,46c0-0.2,0-0.3,0.1-0.3L53,45.6v-0.1
		c0-0.3,0-0.5,0-0.5h-0.1c0,0,0,0-0.1,0c0-0.3,0-0.6,0-0.7c-0.1,0-0.1,0-0.1,0s0-0.1,0-0.2V44v-0.1v-0.1v-0.1l-0.1-0.1
		c-0.1-0.1-0.1-0.2,0-0.3l-0.1-0.1c0-0.1,0-0.1,0-0.2c-0.1,0-0.1-0.1-0.3-0.3c0-0.1,0-0.2,0-0.3s0-0.1,0-0.2c-0.1-0.1,0-0.2,0-0.3
		c0.1-0.1,0.1-0.2,0.1-0.3c0,0,0.1-0.1,0.2-0.2s0.2-0.2,0.2-0.2l0,0v-0.1l0.1,0.1c0,0,0.1,0,0.2,0c0.1,0,0.2,0,0.2,0
		c0.1,0,0.1,0,0.2-0.1c0.1-0.1,0.1-0.1,0.2-0.2c0.1,0,0.1,0,0.3,0c0.1,0,0.2,0,0.3,0h0.1h0.1c0.2,0,0.3,0,0.4-0.1
		c0.4-0.1,0.7-0.1,0.7-0.2h0.2c0,0,0,0,0.1,0c0,0,0,0,0.1,0c0,0,0.1,0,0.2,0c0.1,0,0.1,0,0.2-0.1c0.1-0.1,0.2-0.1,0.2-0.1
		s0-0.1,0-0.2c0.1,0,0.1,0,0.1,0s0,0,0,0.1v0.1c0.2-0.1,0.4-0.1,0.5-0.2c0.1,0,0.1,0,0.2,0.1l0.3-0.1c0,0,0.1-0.1,0.3-0.2
		c0,0.1,0.1,0.1,0.1,0.2c0,0,0.1-0.1,0.2-0.1c0.1,0,0.1,0,0.2,0s0.1,0,0.1,0s0.1,0,0.1-0.1c0,0,0.1,0,0.2,0c0.1,0,0.2,0,0.2,0
		c0.2,0,0.3-0.1,0.4-0.1h0.1c0.1,0,0.1,0,0.1-0.1c0.1,0,0.1,0,0.2,0c0,0,0.1,0,0.2-0.1c0.1,0,0.1,0,0.2,0
		C60.2,39.5,60.2,39.5,60.3,39.4C60.3,39.5,60.3,39.5,60.3,39.4L60.3,39.4z M61.2,39.2c0,0,0.1,0,0.2,0c0.1,0,0.2,0,0.2,0l0,0
		c0,0,0,0,0,0.1c0,0,0.1,0,0.2,0c0.1,0,0.2,0,0.2,0.1c0.1,0,0.3,0,0.4,0.1c0.5,0,0.8,0.1,0.9,0.3h0.1c0.1,0.1,0.2,0.1,0.3,0.2
		c0.2,0.1,0.3,0.2,0.3,0.2v0.1c0.2,0.1,0.3,0.4,0.4,0.8h0.1l0,0c0.1,0.2,0,0.3,0,0.4c0,0.1,0,0.2,0,0.3c-0.1,0.1-0.1,0.2-0.1,0.2
		c-0.1,0.1-0.1,0.1-0.1,0.1c0,0.1,0,0.2-0.1,0.3c0,0.1,0,0.1,0,0.2l-0.1,0.1H64c0,0,0,0-0.1,0c0,0,0,0.1-0.1,0.1s-0.1,0.1-0.2,0
		c0,0,0,0.1-0.1,0.1L63.4,43c-0.1,0-0.2,0-0.3,0c0,0.1,0,0.1,0,0.1s-0.1,0-0.2,0c-0.1,0-0.1,0-0.2,0h-0.1h-0.1c0,0,0-0.1,0.1-0.1
		c0,0-0.1-0.1-0.1-0.2c0-0.1-0.1-0.1-0.1-0.2l-0.1,0.1h-0.1c0-0.1,0-0.1-0.1-0.2c-0.1-0.1-0.1-0.1-0.2-0.1v0.1v0.1l-0.1-0.1
		l-0.1-0.1c0,0,0,0-0.1-0.1c0-0.2-0.2-0.3-0.6-0.3c-0.1,0-0.1,0-0.2,0.1c-0.1,0-0.1,0-0.2,0s-0.1,0-0.2,0l-0.1,0.1
		c-0.1,0-0.2,0-0.4,0c-0.3,0.1-0.5,0.1-0.5,0.2c-0.2-0.1-0.3-0.1-0.3,0c-0.1,0-0.2,0-0.3,0s-0.2,0-0.2,0v0.1c-0.1,0-0.2,0-0.3,0
		c-0.1-0.1-0.2-0.1-0.3,0c0,0-0.1,0-0.1,0.1l-0.1,0.1c-0.1,0-0.1,0-0.2,0s-0.1,0-0.2,0l-0.1,0.1h-0.1c-0.1,0-0.1,0-0.1,0v0.1
		c-0.3,0-0.5,0-0.6,0V43c0,0,0,0,0,0.1C56.2,43,56,43,55.8,43.3c0,0-0.1,0-0.1-0.1c-0.1,0-0.1,0.1,0,0.2c0,0.1,0,0.1,0.1,0.1
		c0,0,0,0.1,0,0.2v0.1v0.1c0,0.1,0,0.2,0.1,0.2c0,0.1,0,0.2,0.1,0.4s0.1,0.3,0,0.3c0,0.1,0,0.2,0.1,0.3c0,0,0,0,0,0.1c0,0,0,0,0,0.1
		s0,0.1,0,0.2s0.1,0.1,0.1,0.1c0,0.7,0,1,0,1c-0.1,0.1-0.1,0.3,0,0.6c0,0,0,0.1,0,0.3c0,0,0,0.1-0.1,0.1c0,0.1,0,0.1,0,0.2
		c0.1,0.1,0.1,0.1,0.1,0.1V48v0.1c0,0.1,0,0.3,0,0.5c0,0.3,0,0.4,0,0.5c0,0,0,0.1,0,0.2c0,0.1,0.1,0.2,0.2,0.1
		c0.1,0,0.2-0.1,0.2-0.1c0.3,0,0.5,0,0.6-0.1c0.3,0,0.5,0,0.6,0c0.2,0,0.3,0,0.4,0c0,0,0.1,0,0.2-0.1c0.1,0,0.1-0.1,0.2-0.1
		s0.1,0,0.2,0c0.2,0,0.3,0,0.3-0.1c0.2,0.1,0.4,0,0.5,0h0.1h0.1c0,0,0.1,0,0.2,0c0.1,0,0.1,0,0.2,0c0.1,0,0.3,0,0.5,0v-0.1
		c0.1,0.1,0.3,0.1,0.4,0c0.2,0,0.3-0.1,0.3-0.1c0.1,0,0.1,0,0.2,0c0.1,0,0.1-0.1,0.1-0.1h0.1c0,0,0,0,0.1,0.1c0,0,0.1,0,0.2-0.1
		c0.1-0.1,0.2-0.1,0.3-0.1c0.1-0.1,0.1-0.1,0.1-0.1s0.1,0,0.1,0.1c0.3,0,0.4,0,0.4-0.1c0.1,0,0.1,0,0.2,0c0.1,0,0.1,0,0.2,0
		s0.1,0,0.2,0.1c0.1,0,0.2,0.1,0.2,0.1c0.1,0,0.2,0.1,0.3,0.2c0.1,0,0.1,0,0.2,0c0,0,0,0,0.1,0c0,0,0,0.1,0.1,0.1c0.2,0,0.4,0,0.4,0
		s0,0.1,0.1,0.2v0.1c0,0.1,0.1,0.2,0.2,0.3c0,0.2,0.1,0.3,0.2,0.4c0,0,0,0.1-0.1,0.1c0,0.1,0,0.2-0.1,0.3s-0.1,0.2-0.1,0.3H65v0.1
		c0,0,0,0,0,0.1h-0.1l0,0h-0.1c0,0-0.1,0-0.1-0.1h-0.1c0,0-0.1,0-0.1,0.1h-0.1c0,0.1-0.1,0.1-0.3,0.2c-0.2,0.1-0.3,0.1-0.3,0.3
		c-0.2,0-0.4,0-0.6,0.2h-0.1c0,0-0.1,0-0.1,0.1c0,0,0,0,0,0.1c-0.1,0-0.2,0-0.2-0.1h-0.1v0.1c-0.1,0-0.2,0-0.3,0s-0.2,0-0.3,0
		c0,0-0.1,0-0.1,0.1l-0.1,0.1c-0.1,0-0.2,0-0.2,0c-0.1,0-0.1,0.1-0.1,0.2C61.5,52,61.5,52,61.3,52c-0.1,0-0.2,0-0.3,0.1V52
		c-0.1,0-0.1,0-0.2,0c-0.1-0.1-0.1,0-0.2,0c0,0-0.1,0-0.2,0v0.2c-0.1,0-0.2,0-0.3,0s-0.1,0-0.2,0c-0.1,0-0.1,0.1,0,0.2l-0.2-0.1
		c0,0-0.2,0-0.4,0l-0.1,0.1l-0.1,0.1c-0.2,0-0.4,0-0.4,0l-0.1,0.2c-0.3,0-0.5,0-0.5,0c-0.1,0-0.1,0.1-0.3,0.1c0,0,0,0,0,0.1
		c-0.2,0.1-0.4,0.1-0.5,0c0,0-0.1,0-0.1,0.1l-0.1,0.1c0,0-0.1,0-0.1-0.1l-0.1-0.1c-0.1,0-0.1,0-0.2,0.1c-0.1,0-0.1,0-0.2,0
		c-0.1,0-0.1,0.2,0,0.5v0.1v0.1c0,0.1,0.1,0.1,0.2,0.1c0.1,0.1,0,0.2-0.1,0.3c0,0,0,0.1,0,0.2c0,0.1,0,0.2,0.1,0.2v0.1
		c0,0,0,0,0,0.1c0,0,0,0.1-0.1,0.3c0.1,0.1,0.1,0.2,0.1,0.5s0,0.5,0.1,0.6c-0.1,0.2-0.1,0.4,0,0.5c0,0.1,0,0.2,0,0.3V57v0.1
		c0.1,0.2,0.1,0.3,0.1,0.4c0.1,0.1,0.1,0.2,0.2,0.3s0.1,0.2,0.1,0.3c0.1,0,0.2,0,0.3,0.1c0.2,0,0.3,0,0.3,0s0.1,0,0.1-0.1
		c0.1,0,0.1,0,0.1,0.1c0.4,0,0.7-0.1,0.7-0.1c0.1,0,0.2,0,0.3,0c0.2,0,0.3,0,0.4,0c0.1-0.1,0.3-0.1,0.6-0.2c0,0,0,0,0-0.1v-0.1
		c0.1,0,0.1,0,0.2,0c0.1,0,0.2,0,0.2,0s0.1-0.1,0.2-0.1c0.1,0,0.2-0.1,0.2-0.1c0.2,0,0.4,0,0.5-0.2c0.2-0.1,0.4-0.2,0.5-0.2
		c0-0.1,0.1-0.1,0.1-0.1c0.2,0.1,0.3,0,0.3,0c0.2,0,0.4-0.1,0.6-0.3c0.1,0,0.2,0,0.3,0c0.1-0.1,0.2-0.1,0.3-0.1c0.5,0,0.8,0,0.8,0.1
		h0.1c0,0.1,0.1,0.3,0.3,0.4h0.1c0.1,0,0.1,0.1,0.2,0.2c0,0.1,0.1,0.3,0.2,0.3c0,0.1,0,0.1,0.1,0.2c0.1,0.1,0.1,0.2,0.1,0.2
		s0,0,0,0.1s0,0.1,0,0.2c-0.1,0.2-0.2,0.3-0.2,0.4c-0.1,0-0.2,0.1-0.3,0.2c-0.2,0-0.3,0.1-0.3,0.4h-0.1h-0.1c0,0-0.1,0.1-0.1,0.2
		h-0.1H64c0,0-0.1,0-0.1,0.1c-0.2,0-0.3,0.1-0.3,0.2h-0.2c-0.1,0.2-0.3,0.2-0.5,0.1c0,0-0.1,0.1-0.1,0.2h-0.1
		c-0.1-0.1-0.2-0.1-0.3,0c-0.1,0-0.1,0.1-0.1,0.2h-0.2c0,0,0,0,0,0.1c0,0,0,0.1,0,0.2c0,0-0.1-0.1-0.2-0.1c-0.1,0-0.2,0-0.3,0
		l-0.1,0.1c0,0,0,0.1-0.1,0.1h-0.1h-0.1c0,0-0.1,0.1-0.1,0.2c-0.1-0.1-0.3,0-0.4,0c0,0,0,0,0,0.1c-0.1,0-0.2,0-0.3,0
		c-0.2,0-0.3,0.1-0.3,0.1H60c0,0,0,0-0.1,0c0,0-0.1,0-0.2,0c-0.1,0-0.2,0-0.2,0.1s0,0.1,0,0.1s-0.1,0-0.3,0c-0.1,0-0.1,0-0.1,0
		s0-0.1-0.1-0.1c-0.3,0.1-0.4,0.1-0.5,0.1v0.1c-0.1,0-0.1,0-0.2,0l-0.1-0.1l-0.1,0.1H58c0,0-0.1,0-0.2,0c-0.1,0-0.2,0-0.2,0
		c0-0.1,0-0.1,0-0.1h-0.1c-0.1,0-0.1,0.1-0.1,0.2c-0.2,0-0.4,0-0.6,0c0-0.1,0-0.1-0.1-0.2c-0.1,0-0.1,0-0.2,0v0.1c0,0.1,0,0.1,0,0.1
		s0,0,0-0.1v-0.1h-0.2v-0.1c-0.1-0.1-0.2-0.1-0.3-0.1C55.9,61,55.8,61,55.8,61s-0.1,0-0.1-0.1c-0.1-0.1-0.1-0.1-0.1-0.2h-0.1h-0.1
		v-0.1c0,0,0-0.1-0.1-0.1h-0.1h-0.1c0-0.1,0-0.2-0.2-0.3v-0.1c-0.1-0.1-0.2-0.2-0.3-0.3h-0.1c-0.1-0.1-0.2-0.1-0.2-0.2
		C54,59.3,54,59.2,53.9,59c-0.1-0.1-0.1-0.2-0.2-0.3c-0.1-0.4-0.2-0.6-0.2-0.6c0-0.1,0-0.2-0.1-0.3c0-0.1,0-0.1,0-0.3
		c0-0.1,0-0.2,0-0.3c0,0,0-0.1-0.1-0.1V57v-0.1c0,0,0-0.1,0-0.3s0-0.3-0.1-0.3c0-0.1,0-0.2,0-0.4s0-0.3,0-0.3c0-0.4,0-1,0-1.8
		s0-1.4,0-1.8c0.1,0,0.2-0.1,0.2-0.2c0-0.1-0.1-0.2-0.2-0.2c0-0.1,0-0.2,0.1-0.3c0-0.1,0.1-0.2,0.1-0.2C53.1,51.1,53,51,53,51
		c0-0.1,0-0.1,0.1-0.1c0-0.1,0-0.7,0-1.6c0.1,0,0.1-0.1,0.1-0.1c0-0.1,0-0.1-0.1-0.2c0.1,0,0.1-0.1,0-0.3c0-0.1,0-0.3,0-0.3v-0.1
		c0.1-0.1,0-0.2,0-0.2c0-0.1,0-0.2,0-0.6s0-0.5-0.1-0.5c0.1,0,0.1-0.2,0.1-0.4s0-0.4,0-0.4L53,46c0-0.2,0-0.3,0.1-0.3L53,45.6v-0.1
		c0-0.3,0-0.5,0-0.5h-0.1c0,0,0,0-0.1,0c0-0.3,0-0.6,0-0.7c-0.1,0-0.1,0-0.1,0s0-0.1,0-0.2V44v-0.1v-0.1v-0.1l-0.1-0.1
		c-0.1-0.1-0.1-0.2,0-0.3l-0.1-0.1c0-0.1,0-0.1,0-0.2c-0.1,0-0.1-0.1-0.3-0.3c0-0.1,0-0.2,0-0.3s0-0.1,0-0.2c-0.1-0.1,0-0.2,0-0.3
		c0.1-0.1,0.1-0.2,0.1-0.3c0,0,0.1-0.1,0.2-0.2s0.2-0.2,0.2-0.2l0,0v-0.1l0.1,0.1c0,0,0.1,0,0.2,0c0.1,0,0.2,0,0.2,0
		c0.1,0,0.1,0,0.2-0.1c0.1-0.1,0.1-0.1,0.2-0.2c0.1,0,0.1,0,0.3,0c0.1,0,0.2,0,0.3,0h0.1h0.1c0.2,0,0.3,0,0.4-0.1
		c0.4-0.1,0.7-0.1,0.7-0.2h0.2c0,0,0,0,0.1,0c0,0,0,0,0.1,0c0,0,0.1,0,0.2,0c0.1,0,0.1,0,0.2-0.1c0.1-0.1,0.2-0.1,0.2-0.1
		s0-0.1,0-0.2c0.1,0,0.1,0,0.1,0s0,0,0,0.1v0.1c0.2-0.1,0.4-0.1,0.5-0.2c0.1,0,0.1,0,0.2,0.1l0.3-0.1c0,0,0.1-0.1,0.3-0.2
		c0,0.1,0.1,0.1,0.1,0.2c0,0,0.1-0.1,0.2-0.1c0.1,0,0.1,0,0.2,0s0.1,0,0.1,0s0.1,0,0.1-0.1c0,0,0.1,0,0.2,0c0.1,0,0.2,0,0.2,0
		c0.2,0,0.3-0.1,0.4-0.1h0.1c0.1,0,0.1,0,0.1-0.1c0.1,0,0.1,0,0.2,0c0,0,0.1,0,0.2-0.1c0.1,0,0.1,0,0.2,0c0.1,0,0.1,0,0.1,0l0,0l0,0
		C60.9,39.5,61.2,39.4,61.2,39.2z"/>
	<path fill="#643282" d="M84.5,53.6c0.1-0.1,0.1-0.2,0.1-0.2c0.1,0,0.1,0,0.2-0.1c0,0,0,0,0-0.1c0,0,0,0,0-0.1s0-0.1,0-0.3
		c0-0.1,0-0.2,0-0.3c0,0,0.1,0,0.1-0.1c0,0,0-0.1-0.1-0.1l-0.1-0.1c0,0,0,0,0.1,0h0.1c0-0.1,0.1-0.2,0.2-0.3s0.1-0.1,0.1-0.1
		c0-0.1,0-0.2,0-0.2c0-0.1,0-0.1,0-0.1h0.1c0-0.1,0-0.2,0.1-0.3s0-0.2,0.1-0.3c-0.1-0.2-0.1-0.4,0.2-0.5l-0.1-0.1c0,0,0,0,0-0.1
		c0.1-0.1,0.1-0.2,0-0.4h0.1c0.1-0.4,0.1-0.6,0.3-0.7c0,0,0-0.1-0.1-0.2c0-0.1,0-0.2,0-0.3c0.1-0.1,0.1-0.1,0.2-0.1
		c0-0.2,0.1-0.3,0.1-0.3c0-0.1,0-0.3,0-0.4c0-0.1,0.1-0.2,0.2-0.3L86,47.4c0.1,0,0.2-0.1,0.2-0.1c0-0.1,0-0.1-0.1-0.1
		C86,47.1,86,47.1,86,47h0.1h0.1c0.1,0,0.1-0.1,0-0.2c0-0.1,0-0.2,0-0.3c0,0,0.1,0,0.2,0s0.1,0,0.2,0c0,0,0-0.1-0.1-0.1
		c0,0,0-0.1,0.1-0.1l0.1-0.1c0-0.1,0-0.2-0.1-0.3s-0.1-0.3-0.1-0.3c0.1-0.1,0.2-0.3,0.1-0.3s-0.1,0-0.1,0c0-0.1,0-0.1,0-0.2
		c0-0.1,0-0.1,0-0.1c0-0.1,0-0.2,0-0.5c0,0,0-0.1,0-0.2c0-0.1,0-0.1,0-0.2c-0.1-0.2-0.1-0.3,0-0.3l0.1-0.1c0-0.1,0-0.2,0-0.4
		s0-0.3,0.1-0.4c-0.1-0.1-0.1-0.1-0.1-0.1s0.1,0,0.2-0.1c0-0.1,0-0.2,0-0.2c0-0.1-0.1-0.1-0.1-0.2c0,0,0,0,0.1,0s0,0,0.1,0
		c0,0,0-0.1,0-0.2c0-0.1,0-0.1,0-0.2c0.1,0,0.1,0,0.2-0.1c0.1,0,0.2,0,0.2,0.1c0,0,0-0.1,0-0.2c0.1,0,0.2,0,0.3,0c0.1,0,0.2,0,0.3,0
		c0.1,0.1,0.2,0.2,0.3,0.1c0,0.1,0.1,0.1,0.1,0.1c0.1,0,0.2,0,0.3,0c0.1,0,0.2,0,0.3,0c0,0,0,0.1,0,0.2c0,0.1,0,0.2,0,0.2
		s0,0.1,0.1,0.2c0.1,0.1,0.2,0.1,0.2,0.2c0,0.1,0,0.1,0,0.2c0,0.1,0.1,0.2,0.1,0.2v0.1c0,0,0,0.1,0.1,0.2c0.1,0.1,0.1,0.2,0.1,0.3
		s0,0.2,0.1,0.3c0,0.2,0,0.3,0.1,0.3c0,0.1,0,0.1,0,0.2c-0.1,0.1-0.1,0.2-0.1,0.4s0,0.3,0,0.4c0.1,0,0.1,0.1,0,0.3
		c0.1,0.1,0.1,0.1,0,0.1c0,0,0,0.1-0.1,0.1s-0.1,0.1-0.1,0.1s0,0.1,0.1,0.2c0,0.1,0.1,0.1,0.1,0.2s0,0.1,0,0.2c0,0.1,0,0.2,0,0.2
		v0.1v0.1c0,0-0.1,0.1-0.2,0.1c0,0,0,0.1,0,0.2c0,0.1,0,0.1,0,0.2v0.1v0.1c-0.1,0-0.2,0-0.2,0c0,0.1,0,0.1,0,0.2c0,0,0,0.2,0,0.6
		c-0.2,0.1-0.2,0.2-0.1,0.5c-0.2,0.1-0.2,0.2,0,0.3c0,0.1,0,0.1,0,0.1s0,0-0.1,0c0,0.1,0,0.1,0,0.1c-0.1,0.1-0.2,0.1-0.2,0.1
		c0,0.1,0,0.1,0,0.2c-0.1,0-0.1,0.1-0.1,0.2c0,0.1,0,0.2,0.1,0.3c0,0.1,0,0.2,0,0.3c-0.2,0-0.3,0.1-0.3,0.3c0.1,0.1,0.1,0.2,0.1,0.3
		c-0.1,0-0.2,0.1-0.2,0.2c0,0.1,0,0.3,0,0.4c-0.1,0-0.2,0.1-0.2,0.3v0.1c0,0,0,0.1,0.1,0.1c0,0,0,0.1,0,0.2c0,0.1,0,0.1,0,0.2
		c-0.2,0.1-0.2,0.2-0.2,0.3C88,53,88,53.1,88,53.3c0,0,0,0.1,0.1,0.1l0.1,0.1h-0.1c-0.1,0-0.1,0.1-0.1,0.2c0,0.1-0.1,0.2-0.1,0.2
		c0,0.1,0,0.1,0,0.2c0,0.1,0,0.2,0,0.2s-0.1,0.1-0.2,0.2c-0.1,0.1-0.1,0.1-0.2,0.2c0,0.1,0,0.2-0.1,0.3s0,0.2,0.1,0.2
		c0,0.1,0,0.2,0,0.2c-0.1,0-0.2,0-0.2,0c0,0.1,0,0.2-0.1,0.3v0.1c0,0,0,0.1,0,0.2c0,0.1,0,0.2,0,0.2s0,0.1-0.1,0.2
		c-0.1,0.1-0.1,0.2,0,0.2L87,56.7c0,0,0,0,0,0.1c0,0.2,0,0.3,0,0.3h-0.1c0,0,0,0-0.1,0c0,0,0,0.1,0,0.2c0,0,0,0.1-0.1,0.2
		c0,0.1-0.1,0.2-0.1,0.2c0.1,0.1,0.1,0.2,0.1,0.3c-0.1,0-0.2,0-0.2,0.1c0,0-0.1,0.1-0.1,0.2c0.1,0.1,0.1,0.1,0.1,0.1
		c-0.2,0.1-0.2,0.1-0.2,0.3v0.1v0.1c-0.1,0-0.2,0.1-0.2,0.2c0,0.1-0.1,0.2-0.1,0.2v0.1c0,0.1,0,0.1,0,0.1h-0.1
		c-0.1,0-0.1,0.1-0.1,0.1v0.1c-0.1,0-0.1,0-0.2,0h-0.1c0,0-0.1,0.1-0.2,0.3H85c-0.1,0.1-0.1,0.2,0,0.3c-0.1,0-0.1,0-0.1,0l0,0
		c0,0.1,0,0.1,0,0.1c-0.1-0.1-0.1-0.2-0.2-0.2h-0.1h-0.1c0,0-0.1,0-0.1-0.1h-0.1c-0.1,0.1-0.2,0.1-0.3,0.1c0-0.1,0-0.1,0-0.2
		c0-0.1,0-0.1,0-0.2c0,0-0.1,0-0.3,0c-0.1,0-0.1-0.1-0.2-0.2c0-0.1,0-0.1,0-0.1c-0.1,0.1-0.2,0.1-0.2,0v-0.1v-0.1h-0.1
		c0,0,0-0.1-0.1-0.1L83,59.1h-0.1L82.8,59c-0.1-0.1-0.2-0.2-0.3-0.2v-0.1c0,0,0,0,0-0.1c0,0,0,0-0.1,0l0,0v-0.1l-0.1-0.1
		c0-0.1-0.2-0.4-0.4-0.6c-0.1,0-0.1,0-0.1,0s-0.1-0.1-0.1-0.3c-0.1-0.1-0.2-0.1-0.3-0.1c0-0.1,0-0.2-0.1-0.2c0-0.1,0-0.2-0.1-0.3
		c-0.1,0-0.1-0.1-0.1-0.1c0-0.2-0.1-0.3-0.3-0.4v-0.1c0-0.1,0-0.1,0-0.1s0,0-0.1-0.1c0,0-0.1,0-0.1-0.1c0,0-0.1-0.1-0.1-0.2
		c0-0.1-0.1-0.2-0.2-0.2c0-0.1,0-0.2-0.1-0.3v-0.1c0,0,0-0.1-0.1-0.1S80,55,79.9,55s-0.1,0-0.1,0v-0.1v-0.1c-0.1,0-0.1,0-0.1,0
		c0-0.1,0-0.2,0-0.2h0.1l0,0c0-0.1-0.1-0.1-0.2,0h-0.1c0-0.1,0-0.1,0-0.2c0-0.1,0-0.1,0-0.2c0,0,0-0.1-0.1-0.1l0,0
		c0-0.1-0.1-0.1-0.1-0.2v-0.1c0,0,0-0.1,0-0.2l-0.1-0.1h-0.1c0-0.1,0-0.2-0.1-0.3c0-0.1,0-0.2-0.1-0.2h-0.1c0-0.1,0-0.1-0.1-0.2
		c0-0.1,0-0.2-0.1-0.2c-0.1-0.1-0.1-0.2-0.1-0.2c0-0.1-0.1-0.1-0.2-0.1v-0.1c0-0.1,0-0.1,0-0.2c0,0-0.1,0-0.1-0.1c0,0-0.1,0-0.1-0.1
		s0-0.2,0-0.3C78,51.4,78,51.3,78,51.3s-0.1-0.1-0.1-0.2c0-0.1-0.1-0.1-0.1-0.2c-0.1,0-0.1,0.1-0.3,0.3v0.1c0,0.1-0.1,0.1-0.1,0.1
		s0,0-0.1,0.1v0.1c0,0,0,0,0,0.1v0.1c0,0,0,0-0.1,0.1c0,0-0.1,0.1-0.1,0.2c0,0.1-0.1,0.2-0.1,0.2c0,0.1-0.1,0.1-0.2,0.3
		c0,0.1,0,0.2-0.1,0.3V53l-0.1,0.1v0.1c0,0,0,0,0,0.1l-0.1,0.1c-0.1,0.1-0.1,0.2,0,0.3c0,0,0,0.1-0.1,0.1c0,0,0,0.1,0,0.2
		c0,0.1,0,0.2,0,0.2l0,0l0,0c-0.1,0.2-0.1,0.3-0.2,0.3c0,0,0,0.2-0.1,0.4s-0.1,0.3,0,0.3c-0.1,0-0.2,0.1-0.2,0.2
		c0,0.1-0.1,0.2-0.1,0.2c0,0.1,0,0.1,0,0.2v0.1l-0.1,0.2c0,0,0,0.1,0.1,0.1s0.1,0.1,0.1,0.2h-0.1c-0.1,0-0.1,0-0.1,0.2
		c0,0.1,0,0.2,0,0.2h-0.1c0,0,0,0.1,0,0.2v0.2h-0.1c-0.1,0-0.1,0.1-0.1,0.2c0,0.1,0,0.2,0,0.2c-0.1,0-0.2,0-0.2,0.2
		c0,0.1,0,0.2,0.1,0.2c0,0.1,0,0.1,0,0.1c-0.1,0-0.2,0.1-0.2,0.2c0,0,0,0.1,0,0.2c0,0.1,0,0.2,0,0.3c0,0,0,0-0.1,0s-0.1,0.1,0,0.2
		c0,0.1,0,0.2,0,0.2c-0.1,0-0.1,0.1-0.1,0.2c0,0.1,0,0.1,0.1,0.1c0,0,0,0.1,0,0.2c-0.1,0.1-0.1,0.1-0.2,0.2V60c0,0.1,0,0.1,0,0.1
		s0,0.1-0.1,0.1c0,0-0.1,0.1-0.1,0.2c-0.1,0-0.2,0-0.3,0.1c-0.1,0.1-0.1,0.1-0.1,0.1v0.1v0.1h-0.1l0,0C74,60.8,74,60.9,74,61
		c0,0-0.1,0.1-0.1,0.2c-0.1,0-0.1,0-0.2,0C73.2,61,73,61,73,61.2c0,0-0.1,0-0.2,0s-0.2,0-0.2,0v-0.1c0-0.1-0.1-0.2-0.2-0.2
		c0-0.1,0-0.1-0.1-0.3c0-0.1,0-0.2-0.1-0.3c0,0,0-0.1-0.1-0.2H72c0,0-0.1-0.1-0.1-0.2c0-0.1-0.1-0.1-0.2-0.1l-0.1-0.1
		c0-0.1,0-0.2,0-0.4s0-0.3,0-0.4c0,0,0-0.1-0.1-0.1s-0.1-0.1-0.1-0.1c-0.1-0.2-0.1-0.4-0.2-0.4c0,0,0-0.1,0-0.2c0-0.2,0-0.3-0.2-0.3
		c0-0.2,0-0.3,0.1-0.3c0-0.1,0-0.2-0.1-0.3c0,0,0,0-0.1,0c0,0,0,0-0.1,0v-0.1V57v-0.1c0,0,0,0-0.1,0h-0.1v-0.1
		c-0.1-0.1-0.1-0.2-0.1-0.4s0-0.4,0-0.5c-0.1,0-0.2-0.1-0.2-0.3s-0.1-0.3-0.2-0.3c0-0.1,0-0.2,0-0.3c0.1-0.1,0-0.2-0.2-0.2
		c-0.1-0.1-0.1-0.3,0-0.4c0-0.1,0-0.1,0-0.1s0,0,0-0.1c0,0,0,0-0.1-0.1c0,0,0-0.1,0-0.2s0-0.1,0-0.2c0,0,0,0-0.1-0.1l-0.1-0.1
		c0-0.1,0-0.2-0.1-0.3c0-0.1,0-0.3-0.1-0.3s-0.1,0-0.1,0l0.1-0.1c0-0.1,0-0.2-0.1-0.3h-0.1c-0.1,0-0.1,0-0.2,0c0-0.1,0-0.1,0.1-0.2
		c0-0.1,0-0.2,0-0.2C69,52,69,52,69,52c0-0.2,0-0.3-0.2-0.3c0-0.1,0-0.2,0-0.3c-0.1-0.1-0.1-0.2-0.1-0.3c0,0,0,0-0.1,0V51v-0.1
		c0,0-0.1,0-0.2,0v-0.1v-0.1h-0.1l0,0v-0.1c0-0.1,0.1-0.1,0.1-0.2c0,0-0.1,0-0.1-0.1l-0.1-0.1v-0.1c0,0,0-0.1-0.1-0.1L68,49.9v-0.1
		c0-0.1-0.1-0.2-0.1-0.3s-0.1-0.2-0.1-0.2V49c0-0.1,0-0.1-0.1-0.1s-0.1-0.1-0.1-0.1c-0.1,0-0.1,0-0.1,0c0-0.2-0.1-0.3-0.1-0.3
		c0.1-0.1,0.1-0.1,0.1-0.2c0-0.1-0.1-0.1-0.2-0.1c0-0.1,0-0.1,0-0.3s0-0.4-0.1-0.4c0-0.1,0-0.2-0.1-0.2s-0.1,0-0.1,0
		c0-0.1,0-0.2,0-0.5c0-0.2,0-0.3,0-0.4l0.1-0.1v-0.1v-0.1c0-0.1,0-0.1,0-0.1s0,0,0.1-0.1c0.1,0,0.1-0.1,0-0.1
		c0.2-0.1,0.3-0.2,0.3-0.3c0.1,0,0.2,0,0.3-0.1c0.1-0.1,0.1-0.1,0.1-0.2c0,0.1,0.1,0.1,0.2,0.1s0.2,0,0.3,0c0,0,0.1,0,0.1,0.1v0.1
		h0.4c0.1,0.1,0.3,0.2,0.4,0.2v0.1c0,0,0,0,0.1,0v0.1c0.1,0.1,0.2,0.2,0.2,0.3c0.1,0.1,0.2,0.1,0.3,0.1v0.1v0.1c0,0,0,0.1,0.1,0.1
		c0,0.1,0.1,0.1,0.1,0.1c0,0.1,0.1,0.1,0.2,0.1c0,0.1,0,0.1-0.1,0.2c0,0.1,0,0.2,0.1,0.2c0,0,0.1,0.1,0.2,0.1
		c-0.1,0.1-0.1,0.2-0.1,0.3c0,0,0.1,0.1,0.3,0.1c-0.1,0.2-0.1,0.3-0.1,0.3v0.1h0.1c0,0.1,0,0.2,0.1,0.3c0,0,0,0,0,0.1h0.1l0,0
		c0,0,0,0.1,0,0.3s0,0.3,0.1,0.3h0.1c0,0,0,0.1,0,0.2C71,49.4,71,49.4,71,49.5c0,0.1,0,0.1,0.1,0.2c0,0.1,0,0.2,0,0.2
		c0.1,0,0.1,0,0.2,0l0,0L71.2,50c0,0,0,0.1,0,0.2c0,0.1,0,0.1,0,0.2c0,0,0,0.1,0.1,0.1c0,0,0.1,0,0.1,0.1v0.1c0,0.1,0,0.1,0,0.1
		s0,0.1,0.1,0.1c0,0,0,0,0.1,0.1v0.1v0.1c0,0,0,0.1,0.1,0.1c0.1,0.1,0.1,0.1,0.1,0.2V51c0,0,0,0.1,0.1,0.1c0,0.1,0.1,0.2,0.2,0.4
		c0,0.1,0,0.2,0,0.3c0.1,0.1,0.1,0.2,0.1,0.2c0.1,0,0.2,0.1,0.1,0.3v0.1c0,0.1,0,0.1,0,0.2c0,0,0.1,0,0.2,0c0,0.1,0,0.1,0,0.2
		c0,0.1,0,0.1,0,0.1c0,0.1,0.1,0.1,0.2,0.1v0.1v0.1l0,0h0.1c0,0.1,0,0.2-0.1,0.3c0,0.1-0.1,0.2,0,0.3c0.1,0,0.2,0,0.2-0.1
		c0-0.3,0-0.4,0.1-0.5c0-0.1,0-0.2,0-0.3h0.1c0.1,0,0.1-0.1,0.1-0.2c0-0.1,0-0.2,0-0.2l0,0h0.1c0,0,0-0.1,0-0.2
		c0.1-0.1,0.1-0.1,0.2-0.2c-0.1-0.1,0-0.2,0.1-0.3c0,0,0-0.1,0-0.2c0.3-0.4,0.4-0.7,0.5-0.9c0.1-0.1,0.1-0.1,0.1-0.1
		c0-0.1,0-0.1,0-0.2c0-0.1,0-0.1,0-0.2c0.1,0,0.2-0.2,0.2-0.5c0.2-0.3,0.3-0.6,0.3-0.8C75,49,75,49,75,49c0.1-0.1,0.1-0.2,0.1-0.3
		c0,0,0.1-0.1,0.1-0.2c0.1-0.1,0.1-0.2,0.2-0.2v-0.1l0.1-0.1V48c0-0.1,0-0.1,0.1-0.2v-0.1h-0.1c-0.1-0.1-0.1-0.2,0-0.3
		c0,0,0.1,0,0.2,0c0-0.1,0-0.1,0-0.2h0.1l0.1-0.1v-0.2c0,0,0-0.1,0.1-0.1c0,0,0.1-0.1,0.1-0.2c0,0,0-0.1,0-0.2c0,0,0-0.1,0.1-0.1
		c0.1-0.1,0.1-0.1,0.1-0.1v-0.1c0,0,0,0,0-0.1c0.2-0.2,0.4-0.4,0.4-0.5c0.1,0,0.2-0.1,0.2-0.3c0,0,0.1,0,0.1,0.1
		c0.1,0,0.1-0.1,0.1-0.2c0.1-0.1,0.2,0,0.3,0c0,0,0.1-0.1,0.1-0.2h0.1c0.1,0,0.1,0,0.1,0s0.1,0.1,0.3,0.3c0,0,0,0,0-0.1l0,0
		c0,0,0,0,0.1,0c0,0.1,0,0.2,0.1,0.3c0.1-0.1,0.3-0.1,0.3-0.1c0,0.1,0.1,0.2,0.1,0.2c-0.1,0.1-0.1,0.2,0,0.3s0.2,0.1,0.3,0v0.1
		c0,0,0,0.1,0,0.2c0,0,0.1,0.1,0.1,0.2c0,0.1,0.1,0.2,0.1,0.2c0.1,0.2,0.1,0.3,0.1,0.3c0.1,0.1,0.1,0.1,0.1,0.1s0,0.1,0,0.2
		c0,0.1,0,0.1,0,0.1l0,0c0,0,0.1,0,0.1,0.1v0.1c0,0.1,0,0.1,0,0.1v0.1v0.1c0,0,0,0.1,0.1,0.1l0.1,0.1c0,0,0.1,0.1,0.1,0.2
		c0,0.1,0,0.2,0.1,0.2c0,0.2,0,0.3,0.1,0.4c0,0.2,0.1,0.4,0.3,0.6c0,0,0,0.1,0.1,0.2c0.1,0.1,0.1,0.2,0.1,0.3c0.1,0,0.1,0.1,0.1,0.3
		c0,0.1,0,0.2,0.1,0.3c0,0.1,0,0.3,0.2,0.3v0.1c0.1,0.1,0.2,0.2,0.2,0.3c-0.1,0.1,0,0.2,0,0.3c0.1,0.1,0.1,0.1,0.1,0.1
		c0,0.1,0,0.1,0,0.1s0,0.1,0.1,0.1s0.1,0.1,0.1,0.1v0.1V52c0,0,0.1,0.1,0.2,0.1c0,0.1,0,0.1,0.1,0.2s0,0.2,0.1,0.2
		c0.1,0.1,0.1,0.1,0.1,0.1v0.1v0.1c0,0,0,0,0.1,0.1L82,53c0,0.1,0,0.2,0.2,0.2v0.1v0.1h0.1v0.2h0.1v0.1l0,0c-0.1,0.1-0.1,0.2,0,0.4
		c0,0.1,0.2,0.2,0.4,0.5c0,0.1,0,0.2,0.1,0.3c0.1,0,0.1,0,0.2,0h0.1c0,0.1,0,0.1,0,0.2c0,0,0.1,0,0.1,0.1c0,0.2,0.1,0.4,0.3,0.6
		c0,0.2,0.1,0.2,0.2,0.1c0.1-0.1,0.1-0.2,0.1-0.4H84c0,0,0-0.1,0-0.2v-0.1c0.2,0,0.2-0.1,0.2-0.3c0-0.1,0-0.2,0-0.3c0,0,0.1,0,0.2,0
		s0.1,0,0.1,0s0-0.1,0-0.2c0-0.1,0-0.1,0-0.2c-0.1-0.1-0.1-0.2-0.1-0.3c0.1,0,0.2-0.1,0.3-0.2C84.4,53.8,84.5,53.8,84.5,53.6
		L84.5,53.6z M84.5,53.4c0.1,0,0.1,0,0.2-0.1c0,0,0,0,0-0.1c0,0,0,0,0-0.1s0-0.1,0-0.3c0-0.1,0-0.2,0-0.3c0,0,0.1,0,0.1-0.1
		c0,0,0-0.1-0.1-0.1l-0.1-0.1c0,0,0,0,0.1,0h0.1c0-0.1,0.1-0.2,0.2-0.3s0.1-0.1,0.1-0.1c0-0.1,0-0.2,0-0.2c0-0.1,0-0.1,0-0.1h0.1
		c0-0.1,0-0.2,0.1-0.3s0-0.2,0.1-0.3c-0.1-0.2-0.1-0.4,0.2-0.5l-0.1-0.1c0,0,0,0,0-0.1c0.1-0.1,0.1-0.2,0-0.4h0.1
		c0.1-0.4,0.2-0.6,0.3-0.7L85.8,49c0-0.1,0-0.2,0-0.3c0.1-0.1,0.1-0.1,0.2-0.1c0-0.2,0.1-0.3,0.1-0.3c0-0.1,0-0.3,0-0.4
		c0-0.1,0.1-0.2,0.2-0.3L86,47.4c0.1,0,0.2-0.1,0.2-0.1c0-0.1,0-0.1-0.1-0.1C86,47.1,86,47.1,86,47h0.1h0.1c0.1,0,0.1-0.1,0-0.2
		c0-0.1,0-0.2,0-0.3c0,0,0.1,0,0.2,0s0.1,0,0.2,0c0,0,0-0.1-0.1-0.1c0,0,0-0.1,0.1-0.1l0.1-0.1c0-0.1,0-0.2-0.1-0.3
		s-0.1-0.3-0.1-0.3c0.1-0.1,0.2-0.3,0.1-0.3s-0.1,0-0.1,0c0-0.1,0-0.1,0-0.2c0-0.1,0-0.1,0-0.1c0-0.1,0-0.2,0-0.5c0,0,0-0.1,0-0.2
		c0-0.1,0-0.1,0-0.2c-0.1-0.2-0.1-0.3,0-0.3l0.1-0.1c0-0.1,0-0.2,0-0.4s0-0.3,0.1-0.4c-0.1-0.1-0.1-0.1-0.1-0.1s0.1,0,0.2-0.1
		c0-0.1,0-0.2,0-0.2c0-0.1-0.1-0.1-0.1-0.2c0,0,0,0,0.1,0s0,0,0.1,0c0,0,0-0.1,0-0.2c0-0.1,0-0.1,0-0.2c0.1,0,0.1,0,0.2-0.1
		c0.1,0,0.2,0,0.2,0.1c0,0,0-0.1,0-0.2c0.1,0,0.2,0,0.3,0c0.1,0,0.2,0,0.3,0c0.1,0.1,0.2,0.2,0.3,0.1c0,0.1,0.1,0.1,0.1,0.1
		c0.1,0,0.2,0,0.3,0c0.1,0,0.2,0,0.3,0c0,0,0,0.1,0,0.2c0,0.1,0,0.2,0,0.2s0,0.1,0.1,0.2c0.1,0.1,0.2,0.1,0.2,0.2c0,0.1,0,0.1,0,0.2
		c0,0.1,0.1,0.2,0.1,0.2v0.1c0,0,0,0.1,0.1,0.2c0.1,0.1,0.1,0.2,0.1,0.3s0,0.2,0.1,0.3c0,0.2,0,0.3,0.1,0.4c0,0,0,0.1,0,0.2
		c-0.1,0.1-0.1,0.2-0.1,0.4s0,0.3,0,0.4c0.1,0,0.1,0.1,0,0.3c0.1,0.1,0.1,0.1,0,0.1c0,0,0,0.1-0.1,0.1S89.4,46,89.4,46
		s0,0.1,0.1,0.2c0,0.1,0.1,0.1,0.1,0.2s0,0.1,0,0.2c0,0.1,0,0.2,0,0.2c0,0.1,0,0.1,0,0.1S89.5,47,89.4,47c0,0,0,0.1,0,0.2
		c0,0.1,0,0.2,0,0.2c0.1,0.1,0.1,0.1,0.1,0.2c-0.1,0-0.2,0-0.2,0c0,0.1,0,0.1,0,0.2c0,0,0,0.2,0,0.6c-0.2,0.1-0.2,0.2-0.1,0.5
		c-0.2,0.1-0.2,0.2,0,0.3c0,0.1,0,0.1,0,0.1s0,0-0.1,0c0,0.1,0,0.1,0,0.1c-0.1,0.1-0.2,0.1-0.2,0.1c0,0.1,0,0.1,0,0.2
		c-0.1,0-0.1,0.1-0.1,0.2c0,0.1,0,0.2,0.1,0.3c0,0.1,0,0.2,0,0.3c-0.2,0-0.3,0.1-0.3,0.3c0.1,0.1,0.1,0.2,0.1,0.3
		c-0.1,0-0.2,0.1-0.2,0.2c0,0.1,0,0.3,0,0.4c-0.1,0-0.2,0.1-0.2,0.3v0.1c0,0,0,0.1,0.1,0.1c0,0,0,0.1,0,0.2c0,0.1,0,0.1,0,0.2
		c-0.2,0.1-0.2,0.2-0.2,0.3c-0.1,0.1-0.1,0.2-0.1,0.4c0,0,0,0.1,0.1,0.1l0.1,0.1h-0.1c-0.1,0-0.1,0.1-0.1,0.2c0,0.1-0.1,0.2-0.1,0.2
		c0,0.1,0,0.1,0,0.2c0,0.1,0,0.2,0,0.2s-0.1,0.1-0.2,0.2c-0.1,0.1-0.1,0.1-0.2,0.2c0,0.1,0,0.2-0.1,0.3s0,0.2,0.1,0.2
		c0,0.1,0,0.2,0,0.2c-0.1,0-0.2,0-0.2,0c0,0.1,0,0.2-0.1,0.3v0.1c0,0,0,0.1,0,0.2c0,0.1,0,0.2,0,0.2s0,0.1-0.1,0.2
		c-0.1,0.1-0.1,0.2,0,0.2l-0.1,0.1c0,0,0,0,0,0.1c0,0.2,0,0.3,0,0.3H87c0,0,0,0-0.1,0c0,0,0,0.1,0,0.2c0,0,0,0.1-0.1,0.2
		c0,0.1-0.1,0.2-0.1,0.2c0.1,0.1,0.1,0.2,0.1,0.3c-0.1,0-0.2,0-0.2,0.1c0,0-0.1,0.1-0.1,0.2c0.1,0.1,0.1,0.1,0.1,0.1
		c-0.2,0.1-0.2,0.1-0.2,0.3v0.1v0.1c-0.1,0-0.2,0.1-0.2,0.2c0,0.1-0.1,0.2-0.1,0.2v0.1c0,0.1,0,0.1,0,0.1H86l-0.1,0.1v0.1
		c-0.1,0-0.1,0-0.2,0h-0.1c0,0-0.1,0.1-0.2,0.3h-0.3c-0.1,0.1-0.1,0.2,0,0.3c-0.1,0-0.1,0-0.1,0l0,0c0,0.1,0,0.1,0,0.1
		c-0.1-0.1-0.1-0.2-0.2-0.2h-0.1h-0.1c0,0-0.1,0-0.1-0.1h-0.1c-0.1,0.1-0.2,0.1-0.3,0.1c0-0.1,0-0.1,0-0.2c0-0.1,0-0.1,0-0.2
		c0,0-0.1,0-0.3,0c-0.1,0-0.1-0.1-0.2-0.2c0-0.1,0-0.1,0-0.1c-0.1,0.1-0.2,0.1-0.2,0v-0.1v-0.1h-0.1c0,0,0-0.1-0.1-0.1l-0.1-0.1H83
		L82.9,59c-0.1-0.1-0.2-0.2-0.3-0.2c0-0.1,0-0.1,0-0.2c0,0,0,0-0.1,0l0,0v-0.1l-0.1-0.1c0-0.1-0.2-0.4-0.4-0.6c-0.1,0-0.1,0-0.1,0
		s-0.1-0.1-0.1-0.3c-0.1-0.1-0.2-0.1-0.3-0.1c0-0.1,0-0.2-0.1-0.2c0-0.1,0-0.2-0.1-0.3c-0.1,0-0.1-0.1-0.1-0.1
		c0-0.2-0.1-0.3-0.3-0.4v-0.1c0-0.1,0-0.1,0-0.1s0,0-0.1-0.1c0,0-0.1,0-0.1-0.1c0,0-0.1-0.1-0.1-0.2c0-0.1-0.1-0.2-0.2-0.2
		c0-0.1,0-0.2-0.1-0.3v-0.2c0,0,0-0.1-0.1-0.1s-0.1-0.1-0.2-0.1s-0.1,0-0.1,0v-0.1v-0.1c-0.1,0-0.1,0-0.1,0c0-0.1,0-0.2,0-0.2h0.1
		l0,0c0-0.1-0.1-0.1-0.2,0h-0.1c0-0.1,0-0.1,0-0.2c0-0.1,0-0.1,0-0.2c0,0,0-0.1-0.1-0.1l0,0c0-0.1-0.1-0.1-0.1-0.2v-0.1
		c0,0,0-0.1,0-0.2l-0.1-0.1h-0.1c0-0.1,0-0.2-0.1-0.3c0-0.1,0-0.2-0.1-0.2h-0.1c0-0.1,0-0.1-0.1-0.2c0-0.1,0-0.2-0.1-0.2
		c-0.1-0.1-0.1-0.2-0.1-0.2c0-0.1-0.1-0.1-0.2-0.1v-0.1c0-0.1,0-0.1,0-0.2c0,0-0.1,0-0.1-0.1c0,0,0,0,0-0.1s0-0.2-0.1-0.3
		s-0.1-0.2-0.1-0.2S78,51.1,78,51c0-0.1-0.1-0.1-0.1-0.2c-0.1,0-0.1,0.1-0.3,0.3v0.1c0,0.1-0.1,0.1-0.1,0.1s0,0-0.1,0.1v0.1
		c0,0,0,0,0,0.1v0.1c0,0,0,0-0.1,0.1c0,0-0.1,0.1-0.1,0.2c0,0.1-0.1,0.2-0.1,0.2c0,0.1-0.1,0.1-0.2,0.3c0,0.1,0,0.2-0.1,0.3V53
		c0,0,0,0.1-0.1,0.1v0.1l-0.1,0.1c-0.1,0.1-0.1,0.2,0,0.3c0,0,0,0.1-0.1,0.1c0,0,0,0.1,0,0.2c0,0.1,0,0.2,0,0.2l0,0l0,0
		c-0.1,0.2-0.1,0.3-0.2,0.3c0,0,0,0.2-0.1,0.4s-0.1,0.3,0,0.3c-0.1,0-0.2,0.1-0.2,0.2c0,0.1-0.1,0.2-0.1,0.2c0,0.1,0,0.1,0,0.2v0.1
		L75.8,56c0,0,0,0.1,0.1,0.1s0.1,0.1,0.1,0.2h-0.1c-0.1,0-0.1,0-0.1,0.2c0,0.1,0,0.2,0,0.2h-0.1c0,0,0,0.1,0,0.2v0.2h-0.1
		c-0.1,0-0.1,0.1-0.1,0.2c0,0.1,0,0.2,0,0.2c-0.1,0-0.2,0-0.2,0.2c0,0.1,0,0.2,0.1,0.2c0,0.1,0,0.1,0,0.1c-0.1,0-0.2,0.1-0.2,0.2
		c0,0,0,0.1,0,0.2c0,0.1,0,0.2,0,0.3c0,0,0,0-0.1,0s-0.1,0.1,0,0.2c0,0.1,0,0.2,0,0.2c-0.1,0-0.1,0.1-0.1,0.2c0,0.1,0,0.1,0.1,0.1
		c0,0,0,0.1,0,0.2c-0.1,0.1-0.1,0.1-0.2,0.2v0.1c0,0.1,0,0.1,0,0.1s0,0.1-0.1,0.1c0,0-0.1,0.1-0.1,0.2c-0.1,0-0.2,0-0.3,0.1
		c-0.1,0.1-0.1,0.1-0.1,0.1v0.1v0.1h-0.1l0,0c-0.1,0-0.1,0.1-0.1,0.2c0,0-0.1,0.1-0.1,0.2c-0.1,0-0.1,0-0.2,0C73.2,61,73,61,73,61.2
		c0,0-0.1,0-0.2,0s-0.2,0-0.2,0v-0.1c0-0.1-0.1-0.2-0.2-0.2c0-0.1,0-0.1-0.1-0.3c0-0.1,0-0.2-0.1-0.3c0,0,0-0.1-0.1-0.2H72
		c0,0-0.1-0.1-0.1-0.2c0-0.1-0.1-0.1-0.2-0.1l-0.1-0.1c0-0.1,0-0.2,0-0.4s0-0.3,0-0.4c0,0,0-0.1-0.1-0.1s-0.1-0.1-0.1-0.1
		c-0.1-0.2-0.1-0.4-0.2-0.4c0,0,0-0.1,0-0.2c0-0.2,0-0.3-0.2-0.3c0-0.2,0-0.3,0-0.3c0-0.1,0-0.2-0.1-0.3c0,0,0,0-0.1,0
		c0,0,0,0-0.1,0v-0.1V57v-0.1c0,0,0,0-0.1,0h-0.1v-0.1c-0.1-0.1-0.1-0.2-0.1-0.4s0-0.4,0-0.5c-0.1,0-0.2-0.1-0.2-0.3
		s-0.1-0.3-0.2-0.3c0-0.1,0-0.2,0-0.3c0.1-0.1,0-0.2-0.2-0.2c-0.1-0.1-0.1-0.3,0-0.4c0-0.1,0-0.1,0-0.1s0,0,0-0.1c0,0,0,0-0.1-0.1
		c0,0,0-0.1,0-0.2s0-0.1,0-0.2c0,0,0,0-0.1-0.1l-0.1-0.1c0-0.1,0-0.2-0.1-0.3c0-0.1,0-0.3-0.1-0.3s-0.1,0-0.1,0l0.1-0.1
		c0-0.1,0-0.2-0.1-0.3h-0.1c-0.1,0-0.1,0-0.2,0c0-0.1,0-0.1,0.1-0.2c0-0.1,0-0.2,0-0.2C68.9,52,68.9,52,68.9,52c0-0.2,0-0.3-0.2-0.3
		c0-0.1,0-0.2,0-0.3c-0.1-0.1-0.1-0.2-0.1-0.3c0,0,0,0-0.1,0V51v-0.1c0,0-0.1,0-0.2,0v-0.1v-0.1h-0.1l0,0v-0.1
		c0-0.1,0.1-0.1,0.1-0.2c0,0-0.1,0-0.1-0.1l-0.1-0.1v-0.1c0,0,0-0.1-0.1-0.1l-0.1-0.1v-0.1c0-0.1-0.1-0.2-0.1-0.3s-0.1-0.2-0.1-0.2
		V49c0-0.1,0-0.1-0.1-0.1s-0.1-0.1-0.1-0.1c-0.1,0-0.1,0-0.1,0c0-0.2-0.1-0.3-0.1-0.3c0.1-0.1,0.1-0.1,0.1-0.2
		c0-0.1-0.1-0.1-0.2-0.1c0-0.1,0-0.1,0-0.3s0-0.4-0.1-0.4c0-0.1,0-0.2-0.1-0.2s-0.1,0-0.1,0c0-0.1,0-0.2,0-0.5c0-0.2,0-0.3,0-0.4
		c0,0,0.1-0.1,0.1-0.2c0,0,0-0.1,0-0.2c0-0.1,0-0.1,0-0.1s0,0,0.1-0.1c0.1,0,0.1-0.1,0-0.1c0.2-0.1,0.3-0.2,0.3-0.3
		c0.1,0,0.2,0,0.3-0.1c0.1-0.1,0.1-0.1,0.1-0.2c0,0.1,0.1,0.1,0.2,0.1s0.2,0,0.3,0c0,0,0.1,0,0.1,0.1v0.1h0.4
		c0.1,0.1,0.3,0.2,0.4,0.2v0.1c0,0,0,0,0.1,0v0.1c0.1,0,0.2,0.1,0.2,0.3c0.1,0.1,0.2,0.1,0.3,0.1v0.1v0.1c0,0,0,0.1,0.1,0.1
		c0,0.1,0.1,0.1,0.1,0.1c0,0.1,0.1,0.1,0.2,0.1c0,0.1,0,0.1-0.1,0.2c0,0.1,0,0.2,0.1,0.2c0,0,0.1,0.1,0.2,0.1
		c-0.1,0.1-0.1,0.2-0.1,0.3c0,0,0.1,0.1,0.3,0.1c-0.1,0.2-0.1,0.3-0.1,0.3V48h0.1c0,0.1,0,0.2,0.1,0.3c0,0,0,0,0,0.1h0.1l0,0
		c0,0,0,0.1,0,0.3s0,0.3,0.1,0.3H71c0,0,0,0.1,0,0.2c-0.1,0.1-0.1,0.1-0.1,0.2c0,0.1,0,0.1,0.1,0.2c0,0.1,0,0.2,0,0.2
		c0.1,0,0.1,0,0.2,0l0,0l-0.1,0.1c0,0,0,0.1,0,0.2c0,0.1,0,0.1,0,0.2c0,0,0,0.1,0.1,0.1c0,0,0.1,0,0.1,0.1v0.1c0,0.1,0,0.1,0,0.1
		s0,0.1,0.1,0.1c0,0,0,0,0.1,0.1V51v0.1c0,0,0,0.1,0.1,0.1c0.1,0.1,0.1,0.1,0.1,0.2V51c0,0,0,0.1,0.1,0.1c0,0.1,0.1,0.2,0.2,0.4
		c0,0.1,0,0.2,0,0.3c0.1,0.1,0.1,0.2,0.1,0.2c0.1,0,0.2,0.1,0.1,0.3v0.1c0,0.1,0,0.1,0,0.2c0,0,0.1,0,0.2,0c0,0.1,0,0.1,0,0.2
		c0,0.1,0,0.1,0,0.1c0,0.1,0.1,0.1,0.2,0.1v0.1v0.1l0,0h0.1c0,0.1,0,0.2-0.1,0.3c0,0.1-0.1,0.2,0,0.3c0.1,0,0.2,0,0.2-0.1
		c0-0.3,0-0.4,0.1-0.5c0-0.1,0-0.2,0-0.3H73c0.1,0,0.1-0.1,0.1-0.2c0-0.1,0-0.2,0-0.2l0,0h0.1c0,0,0-0.1,0-0.2h0.1l0.1-0.1
		c-0.1-0.1,0-0.2,0.1-0.3c0,0,0-0.1,0-0.2c0.3-0.4,0.4-0.7,0.5-0.9c0.1-0.1,0.1-0.1,0.1-0.1c0-0.1,0-0.1,0-0.2c0-0.1,0-0.1,0-0.2
		c0.1,0,0.2-0.2,0.2-0.5c0.2-0.3,0.3-0.6,0.3-0.8c0.4,0,0.4,0,0.4,0c0.1-0.1,0.1-0.2,0.1-0.3c0,0,0.1-0.1,0.1-0.2
		c0.1-0.1,0.1-0.2,0.2-0.2v-0.1l0.1-0.1V48c0-0.1,0-0.1,0.1-0.2v-0.1h-0.1c-0.1-0.1-0.1-0.2,0-0.3c0,0,0.1,0,0.2,0
		c0-0.1,0-0.1,0-0.2h0.1l0.1-0.1v-0.2c0,0,0-0.1,0.1-0.1c0,0,0.1-0.1,0.1-0.2c0,0,0-0.1,0-0.2c0,0,0-0.1,0.1-0.1
		c0.1-0.1,0.1-0.1,0.1-0.1v-0.1c0,0,0,0,0-0.1c0.2-0.2,0.4-0.4,0.4-0.5c0.1,0,0.2-0.1,0.2-0.3c0,0,0.1,0,0.1,0.1
		c0.1,0,0.1-0.1,0.1-0.2c0.1-0.1,0.2,0,0.3,0c0,0,0.1-0.1,0.1-0.2h0.1c0.1,0,0.1,0,0.1,0s0.1,0.1,0.3,0.3c0,0,0,0,0-0.1l0,0
		c0,0,0,0,0.1,0c0,0.1,0,0.2,0.1,0.3c0.1-0.1,0.3-0.1,0.3-0.1c0,0.1,0.1,0.2,0.1,0.2c-0.1,0.1-0.1,0.2,0,0.3s0.2,0.1,0.3,0v0.1
		c0,0,0,0.1,0,0.2c0,0,0.1,0.1,0.1,0.2c0,0.1,0.1,0.1,0.1,0.2c0.1,0.2,0.1,0.3,0.1,0.3c0.1,0.1,0.1,0.1,0.1,0.1s0,0.1,0,0.2
		c0,0.1,0,0.1,0,0.2l0,0h0.1v0.1c0,0.1,0,0.1,0,0.1v0.1v0.1c0,0,0,0.1,0.1,0.1l0.1,0.1c0,0,0.1,0.1,0.1,0.2c0,0.1,0,0.2,0.1,0.2
		c0,0.2,0,0.3,0.1,0.4c0,0.2,0.1,0.4,0.3,0.6c0,0,0,0.1,0.1,0.2c0.1,0.1,0.1,0.2,0.1,0.3c0.1,0,0.1,0.1,0.1,0.3c0,0.1,0,0.2,0.1,0.3
		c0,0.1,0,0.3,0.2,0.3v0.1c0.1,0.1,0.2,0.2,0.2,0.3c-0.1,0.1,0,0.2,0.1,0.3c0,0.1,0.1,0.1,0.1,0.1c0,0.1,0,0.1,0,0.1s0,0.1,0.1,0.1
		s0.1,0.1,0.1,0.1v0.1V52c0,0,0.1,0.1,0.2,0.1c0,0.1,0,0.1,0.1,0.2s0,0.2,0.1,0.2c0.1,0.1,0.1,0.1,0.1,0.1v0.1v0.1c0,0,0,0,0.1,0.1
		l0.1,0.1c0,0.1,0,0.2,0.2,0.2v0.1v0.1h0.1v0.2h0.1v0.1l0,0c-0.1,0.1-0.1,0.2,0,0.4c0,0.1,0.2,0.2,0.4,0.5c0,0.1,0,0.2,0.1,0.3
		c0.1,0,0.1,0,0.2,0h0.1c0,0.1,0,0.1,0,0.2c0,0,0.1,0,0.1,0.1c0,0.2,0.1,0.4,0.3,0.6c0,0.2,0.1,0.2,0.2,0.1c0.1-0.1,0.1-0.2,0.1-0.4
		h0.1c0,0,0-0.1,0-0.2v-0.1c0.2,0,0.2-0.1,0.2-0.3c0-0.1,0-0.2,0-0.3c0,0,0.1,0,0.2,0s0.1,0,0.1,0s0-0.1,0-0.2c0-0.1,0-0.1,0-0.2
		c-0.1-0.1-0.1-0.2-0.1-0.3c0.1,0,0.2,0,0.3-0.2c0.1-0.1,0.1-0.2,0.1-0.2v-0.1C84.5,53.5,84.6,53.5,84.5,53.4z M73.1,53.4
		C73.1,53.5,73.1,53.5,73.1,53.4C73,53.5,73,53.5,73.1,53.4C73,53.4,73,53.4,73.1,53.4C73,53.4,73.1,53.4,73.1,53.4z M73,53.4
		C73,53.4,73.1,53.4,73,53.4C73.1,53.5,73.1,53.5,73,53.4C73,53.5,73,53.5,73,53.4L73,53.4z M89,47L89,47L89,47L89,47z M89,46.9
		C89,47,89,47,89,46.9C89,47,89,47,89,46.9L89,46.9z"/>
</g>
</svg>
