<?xml version="1.0" encoding="utf-8"?>
<!-- Generator: Adobe Illustrator 19.0.1, SVG Export Plug-In . SVG Version: 6.00 Build 0)  -->
<svg version="1.1" id="Layer_1" xmlns="http://www.w3.org/2000/svg" xmlns:xlink="http://www.w3.org/1999/xlink" x="0px" y="0px"
	 viewBox="-84 102.5 130 97.5" enable-background="new -84 102.5 130 97.5" xml:space="preserve">
<rect x="-84" y="102.5" fill="#F9B7B5" width="130" height="97.5"/>
<g>
	<g>
		<path fill="#D93427" d="M-5.1,175.1c2.1-16.7-4.2-33-6.9-49.7c-0.8-5.1-7.6-8-11.6-4.3c-5.5,5.1-10.6,10.4-15.4,16.2
			c-5.9,7.1,5.7,15.4,11.6,8.4c4-4.8,8.3-9.4,12.9-13.6c-3.9-1.4-7.7-2.9-11.6-4.3c2.5,15.5-5.5,31.2-7.4,46.6
			c-1.1,9.1,26.8,12.4,27.9,3.3L-5.1,175.1z"/>
	</g>
	<g>
		<path fill="#D93427" d="M-22.5,132.6c5.5,3.9,10.8,7.9,16,12.1c3,2.4,7.8,1.4,10-1.6c2.4-3.3,1.4-7.5-1.6-9.9
			C-3.3,129-8.6,125-14,121.1C-21.5,115.8-30,127.3-22.5,132.6L-22.5,132.6z"/>
	</g>
</g>
</svg>
