<?xml version="1.0" encoding="utf-8"?>
<!-- Generator: Adobe Illustrator 19.0.1, SVG Export Plug-In . SVG Version: 6.00 Build 0)  -->
<svg version="1.1" xmlns="http://www.w3.org/2000/svg" xmlns:xlink="http://www.w3.org/1999/xlink" x="0px" y="0px"
	 viewBox="0 0 100 100" enable-background="new 0 0 100 100" xml:space="preserve">
<g id="Layer_1">
	<g>
		<g>
			<path fill="#2B5799" d="M57.7,64.4c4.5,5.8,9.1,11.6,13.6,17.4c1.7,2.2,5.3,1.7,7.1,0c2.1-2.1,1.7-5,0-7.1
				c-4.5-5.8-9.1-11.6-13.6-17.4c-1.7-2.2-5.3-1.7-7.1,0C55.6,59.4,56,62.3,57.7,64.4L57.7,64.4z"/>
		</g>
		<g>
			<path fill="#2B5799" d="M45.9,77.3C51.7,72,58.2,67.5,64.7,63c3.1-2.2,6.2-4.3,9.2-6.5c2.1-1.5,4.1-4.3,6.4-5.4
				c5.8-2.8,0.7-11.5-5.1-8.7c-2.6,1.3-4.1,3.5-6.4,5.4c-3.5,2.9-7.6,5.3-11.3,7.9c-6.5,4.5-12.9,9.1-18.8,14.4
				C34,74.5,41.1,81.6,45.9,77.3L45.9,77.3z"/>
		</g>
		<g>
			<path fill="#2B5799" d="M38.1,69.3c6.1-4.6,11.5-10.1,17.7-14.6c5.9-4.2,11.9-8,17.7-12.3c2.5-1.9,0-6.3-2.5-4.3
				c-5.8,4.4-11.8,8.1-17.7,12.3c-6.3,4.5-11.6,10-17.7,14.6C33,66.8,35.5,71.2,38.1,69.3L38.1,69.3z"/>
		</g>
		<g>
			<path fill="#2B5799" d="M72.5,32.6c-6.4-10.4-14.9-17-27.6-16.3c-2.1,0.1-2.2,3.5,0,3.3c11.5-0.6,19,5.3,24.7,14.6
				C70.7,36.2,73.6,34.5,72.5,32.6L72.5,32.6z"/>
		</g>
		<g>
			<path fill="#2B5799" d="M33.1,63.6c-1-2.9-3.9-5.1-6.4-6.7c-3.1-1.9-5.5-1.8-9-1.7c-2.2,0-2.2,3.4,0,3.3c2.6,0,4.5-0.4,6.9,1
				c1.8,1.1,4.7,2.9,5.3,5C30.5,66.5,33.8,65.6,33.1,63.6L33.1,63.6z"/>
		</g>
		<g>
			<path fill="#2B5799" d="M26.8,36.9c0,2.2,0,4.4,0,6.6c0,0.5,0.8,0.5,0.8,0c0-2.2,0-4.4,0-6.6C27.7,36.3,26.8,36.3,26.8,36.9
				L26.8,36.9z"/>
		</g>
		<g>
			<path fill="#2B5799" d="M24.4,40.3c1.9,0,3.8,0,5.7,0c0.5,0,0.5-0.8,0-0.8c-1.9,0-3.8,0-5.7,0C23.9,39.4,23.9,40.3,24.4,40.3
				L24.4,40.3z"/>
		</g>
		<g>
			<path fill="#2B5799" d="M38.7,28.6c-0.1,4.7-0.1,9.3-0.2,14c0,0.8,1.2,0.8,1.2,0c0.1-4.7,0.1-9.3,0.2-14
				C39.9,27.9,38.7,27.9,38.7,28.6L38.7,28.6z"/>
		</g>
		<g>
			<path fill="#2B5799" d="M33.4,35.3c3.8-0.1,7.6-0.1,11.4-0.2c0.8,0,0.8-1.2,0-1.2c-3.8,0.1-7.6,0.1-11.4,0.2
				C32.7,34.1,32.7,35.3,33.4,35.3L33.4,35.3z"/>
		</g>
		<g>
			<path fill="#2B5799" d="M37.2,37.1c1.6-1.3,3.2-2.6,4.9-3.9c0.6-0.5-0.2-1.3-0.8-0.8c-1.6,1.3-3.2,2.6-4.9,3.9
				C35.8,36.7,36.6,37.6,37.2,37.1L37.2,37.1z"/>
		</g>
		<g>
			<path fill="#2B5799" d="M29.4,41.5C28.5,40,27,39.3,25.9,38c-0.3-0.4-0.9,0.2-0.6,0.6c1,1.2,2.5,2,3.3,3.3
				C28.9,42.3,29.7,41.9,29.4,41.5L29.4,41.5z"/>
		</g>
		<g>
			<path fill="#2B5799" d="M37.3,33.3c1.3,1.2,2.5,2.6,3.5,4.1c0.4,0.6,1.4,0,1-0.6c-1-1.6-2.3-3.1-3.7-4.4
				C37.5,32,36.7,32.8,37.3,33.3L37.3,33.3z"/>
		</g>
		<g>
			<path fill="#2B5799" d="M26,41.6c1.3-1.2,2.6-2.5,3.8-3.8c0.4-0.4-0.2-1-0.6-0.6c-1.2,1.3-2.5,2.6-3.8,3.8
				C25,41.4,25.6,42,26,41.6L26,41.6z"/>
		</g>
		<g>
			<path fill="#2B5799" d="M17.7,62.2c3.6,0,7.3,0,10.9,0c1.6,0,1.6-2.5,0-2.5c-3.6,0-7.3,0-10.9,0C16,59.7,16,62.2,17.7,62.2
				L17.7,62.2z"/>
		</g>
		<g>
			<path fill="#2B5799" d="M17.7,65.7c4.4,0,8.8,0,13.2,0c1.6,0,1.6-2.5,0-2.5c-4.4,0-8.8,0-13.2,0C16,63.2,16,65.7,17.7,65.7
				L17.7,65.7z"/>
		</g>
		<g>
			<path fill="#2B5799" d="M60.5,22.4c5.1,0,10.2,0,15.3,0c1.6,0,1.6-2.5,0-2.5c-5.1,0-10.2,0-15.3,0C58.8,19.9,58.8,22.4,60.5,22.4
				L60.5,22.4z"/>
		</g>
		<g>
			<path fill="#2B5799" d="M48.2,18.8c9.2,0,18.3,0,27.5,0c1.6,0,1.6-2.5,0-2.5c-9.2,0-18.3,0-27.5,0C46.6,16.3,46.6,18.8,48.2,18.8
				L48.2,18.8z"/>
		</g>
		<g>
			<path fill="#2B5799" d="M68.6,31c2.4,0,4.8,0,7.1,0c1.6,0,1.6-2.5,0-2.5c-2.4,0-4.8,0-7.1,0C67,28.5,67,31,68.6,31L68.6,31z"/>
		</g>
		<g>
			<path fill="#2B5799" d="M71,35c1.6,0,3.1,0,4.7,0c1.6,0,1.6-2.5,0-2.5c-1.6,0-3.1,0-4.7,0C69.4,32.5,69.4,35,71,35L71,35z"/>
		</g>
		<g>
			<path fill="#2B5799" d="M64.3,26.7c3.8,0,7.6,0,11.4,0c1.6,0,1.6-2.5,0-2.5c-3.8,0-7.6,0-11.4,0C62.7,24.2,62.7,26.7,64.3,26.7
				L64.3,26.7z"/>
		</g>
	</g>
</g>
<g id="Layer_2">
</g>
</svg>
