<?xml version="1.0" encoding="utf-8"?>
<!-- Generator: Adobe Illustrator 19.0.1, SVG Export Plug-In . SVG Version: 6.00 Build 0)  -->
<svg version="1.1" id="Layer_1" xmlns="http://www.w3.org/2000/svg" xmlns:xlink="http://www.w3.org/1999/xlink" x="0px" y="0px"
	 viewBox="0 0 100 100" enable-background="new 0 0 100 100" xml:space="preserve">
<g>
	<path fill="#2B5799" d="M18.7,39.1c0.2,0.1,0.3,0.2,0.4,0.3c0,0.1,0.1,0.1,0.2,0.2h0.1c0,0.1,0.1,0.2,0.2,0.3V40
		c0.1,0.1,0,0.2,0,0.3s0,0.1,0,0.2c0,0.1,0,0.1,0,0.1v0.1v0.1h-0.1c-0.1,0.1-0.1,0.1-0.1,0.3c-0.2,0.1-0.3,0.2-0.3,0.3H19
		c-0.1,0-0.1,0-0.1,0s-0.1,0-0.1,0.1h-0.1c-0.1,0-0.1,0-0.2,0h-0.1l-0.1-0.1h-0.1c-0.1,0-0.1,0-0.1,0H18l0,0c0,0,0,0,0-0.1
		c0,0-0.1-0.1-0.2-0.1c-0.3,0-0.4,0-0.5,0.1v0.1c-0.2,0-0.3,0.1-0.4,0.2l0,0l0,0c-0.1,0-0.1,0-0.2,0.1s-0.1,0.2-0.2,0.2V42
		c-0.1,0-0.1,0.1-0.1,0.1h-0.1c-0.3,0.2-0.5,0.4-0.5,0.6c-0.1,0-0.1,0-0.1,0v0.1c0,0,0,0,0,0.1c-0.1,0-0.2,0.1-0.3,0.2
		c-0.1,0.1-0.2,0.2-0.3,0.3c0,0.1-0.1,0.2-0.2,0.3c-0.1,0.1-0.2,0.2-0.2,0.3c-0.1,0-0.1,0.1-0.2,0.2c-0.1,0.1-0.1,0.1-0.1,0.1v0.1
		v0.1c0,0-0.1,0.1-0.2,0.2v0.1c0,0.1,0,0.2-0.1,0.3S14,45.3,14,45.3c-0.1,0-0.1,0.1-0.1,0.2c0,0.1-0.1,0.2-0.1,0.2V46
		c-0.1,0.1-0.1,0.2-0.2,0.2v0.2c-0.2,0.2-0.2,0.4-0.1,0.7h-0.1c0,0.1,0,0.3,0,0.5c-0.1,0-0.1,0-0.1,0c0,0.1,0,0.2,0,0.4
		s0,0.4-0.1,0.4c0,0.1,0,0.3,0,0.3c0,0.1-0.1,0.1-0.1,0.1C13,49.1,13,49.5,13,49.9c0,0,0,0.3,0,0.9c0,0.6,0,0.9,0,1s0,0.1,0,0.1
		c0,0.2,0,0.3,0.1,0.3c0,0.1,0,0.2,0,0.3c0,0.2,0,0.3,0,0.4c0,0.1,0,0.2,0.1,0.2c-0.1,0.3,0,0.5,0.2,0.5c-0.1,0.1-0.1,0.3,0,0.3
		c0,0,0,0.1,0.1,0.1l0.1,0.1c0,0,0,0,0,0.1v0.1c0,0,0,0.1,0.1,0.2c0,0.1,0,0.2,0.1,0.3c0,0.1,0,0.2,0.1,0.3s0.1,0.2,0.1,0.2
		c0.2,0.4,0.4,0.7,0.5,0.8v0.1c0,0,0,0,0,0.1c0,0,0.1,0.1,0.2,0.1c0,0.1,0,0.1,0.1,0.2c0.1,0,0.1,0.1,0.1,0.1v0.1H15h0.1l0.1,0.1
		c0,0.1,0.1,0.1,0.1,0.1c0.1,0,0.2,0,0.3,0s0.1,0,0.1,0.1s0,0.1,0.1,0.1h0.1c0.1,0,0.1,0,0.1,0s0.1,0,0.2,0s0.1,0,0.2,0.1
		s0.2,0.1,0.3,0.1h0.1h0.1H17c0.1,0,0.1,0,0.1,0c0.1,0.1,0.2,0.2,0.3,0.3h0.1c0.1,0,0.1,0,0.1,0c0.4,0,0.6,0,0.7-0.1
		c0.3,0,0.4,0.1,0.4,0.1s0.1,0,0.1-0.1v-0.1c0.3,0.1,0.4,0.1,0.5,0c0.2,0,0.4,0,0.5-0.2c0.2,0,0.3,0,0.3-0.1c0.1,0.1,0.2,0,0.3,0
		h0.1h0.1c0.1,0,0.1,0,0.3-0.1c0.1,0,0.1,0,0.2-0.1s0.1-0.1,0.2-0.1c0,0,0.1-0.1,0.3-0.1c0.2-0.1,0.2-0.1,0.3-0.2
		c0.1,0,0.2-0.1,0.3-0.2c0.1,0,0.1,0,0.2-0.1c0.1,0,0.2,0,0.3-0.1c0.1-0.1,0.1-0.1,0.2-0.1c0,0,0,0,0-0.1l0,0H23h0.1
		c0-0.1,0.1-0.1,0.1-0.2c0-0.1,0.1-0.1,0.1-0.2c0.2-0.2,0.4-0.4,0.4-0.5c0.1,0,0.1,0,0.2,0C23.9,55,24,55,24,55c0.1,0,0.1,0,0.2,0
		c0.1-0.1,0.2-0.1,0.3-0.1s0.2,0,0.3,0.1h0.1c0.1,0,0.2,0.1,0.3,0.2c0.1,0,0.1,0,0.2,0s0.1,0.1,0.1,0.3c0,0.1,0.1,0.2,0.2,0.2
		c0,0.1,0,0.1,0,0.1l0.1,0.1c0.1,0,0.1,0.1,0.1,0.1c0,0.1,0,0.2,0.1,0.4c0.1,0.1,0.1,0.2,0.1,0.3C26,56.8,26,56.9,26,57v0.1h-0.1
		c0,0.1,0,0.2,0,0.3c-0.1,0-0.2,0.1-0.3,0.2s-0.2,0.2-0.3,0.3C25.1,58,25,58.1,25,58.1c-0.1,0-0.3,0.1-0.5,0.3c-0.1,0-0.1,0-0.2,0.1
		s-0.1,0.1-0.2,0.1c0,0-0.1,0.1-0.2,0.1c-0.1,0.1-0.2,0.1-0.2,0.2c-0.2,0.1-0.4,0.2-0.5,0.4L23,58.8c-0.1,0.1-0.2,0.2-0.2,0.3
		c-0.3,0-0.4,0.1-0.5,0.2c-0.1,0-0.2,0-0.3,0.2h-0.1h-0.1c0,0-0.1,0-0.2,0.1h-0.1h-0.1c-0.1,0-0.1,0.1-0.3,0.1c-0.1,0-0.2,0-0.2,0
		s0,0-0.1,0.1h-0.1c0,0-0.1,0.1-0.2,0.2c-0.1,0-0.1,0-0.3-0.1c-0.2,0-0.3,0-0.4,0.2c-0.1,0.1-0.1,0.1-0.2,0h-0.1
		c-0.2-0.1-0.4-0.1-0.7,0c-0.2,0.1-0.4,0.1-0.4,0.1h-0.1c-0.1,0-0.1,0-0.1,0v0.1v0.1H18l-0.3-0.2h-0.1c-0.1,0-0.1,0-0.1,0h-0.1h-0.1
		h-0.1c-0.1,0-0.1,0-0.1,0s-0.1,0-0.1-0.1h-0.1h-0.1c-0.1,0-0.1,0-0.1,0s-0.1,0-0.1-0.1c-0.1,0-0.1-0.1-0.1-0.1h-0.1h-0.1v-0.1
		c0,0-0.1-0.1-0.3-0.1h-0.1h-0.1c0,0,0-0.1,0-0.2h-0.1c-0.1,0-0.1,0-0.1,0c-0.1-0.2-0.2-0.2-0.3,0c-0.1,0-0.1-0.1-0.1-0.2
		c0,0-0.1,0-0.2-0.1c-0.1-0.1-0.2-0.1-0.3-0.1s-0.1,0-0.2,0c0-0.1,0-0.1,0-0.1h-0.2c0-0.1,0-0.1,0-0.1s0,0-0.1,0s-0.1,0-0.1,0
		c-0.1,0-0.1,0-0.1-0.1s0-0.1,0-0.2c-0.1,0-0.2,0-0.2,0c-0.1-0.1-0.1-0.1-0.2-0.1c0-0.1,0-0.2-0.1-0.3s-0.2-0.1-0.3-0.2
		c-0.1-0.3-0.2-0.4-0.5-0.4c0-0.1,0-0.2-0.2-0.4c-0.2-0.1-0.2-0.2-0.2-0.4c-0.2-0.2-0.3-0.4-0.3-0.4c0.1-0.1,0-0.2-0.1-0.4
		c-0.1-0.1-0.2-0.2-0.2-0.3h-0.1c0,0,0,0-0.1,0c0-0.2-0.1-0.3-0.1-0.3c0.1-0.1,0-0.2-0.1-0.3c0.1-0.2,0-0.4-0.1-0.5c0,0-0.1,0-0.2,0
		c-0.1-0.2-0.1-0.4,0-0.5c-0.1-0.2-0.2-0.3-0.2-0.4c0,0,0-0.1,0-0.2c0-0.1,0-0.2,0-0.2c-0.1-0.2-0.2-0.3-0.1-0.4c0,0,0-0.1-0.1-0.1
		l-0.1-0.1c0-0.2,0-0.3,0-0.3c-0.1-0.2-0.1-0.3,0-0.4c-0.1,0-0.1,0-0.1,0v-0.1v-0.1v-0.1c0,0,0,0,0-0.1s0,0,0-0.1v-0.1
		c0,0,0-0.1,0-0.2c0-0.1,0-0.2,0-0.2c-0.4,0.1-0.4,0-0.6-0.1c0,0,0,0,0-0.1l0,0l0,0c0,0,0,0,0-0.1v-0.1v-0.1v-0.1v-0.1
		c0,0,0-0.1,0.1-0.3c-0.1,0-0.1-0.3,0-0.8s0.2-0.7,0.2-0.8s0-0.1,0-0.1c-0.2-0.1-0.2-0.3,0-0.4c0-0.1,0-0.1,0-0.1s0,0,0.1-0.1
		c0,0,0.1,0,0.1-0.1c0,0,0-0.1-0.1-0.1c0,0,0,0,0.1-0.1s0.1,0,0.1-0.1c0,0,0-0.1-0.1-0.1c0,0,0-0.1,0-0.2c0-0.1,0-0.2,0-0.2l0.1-0.1
		c0-0.1,0-0.2,0-0.4s0-0.3,0-0.4c0.1-0.1,0.1-0.2,0.1-0.4s0.1-0.3,0.1-0.4c0-0.1,0-0.1,0.1-0.3c-0.1,0-0.1-0.1,0-0.2
		c0-0.1,0.1-0.2,0-0.2c0.1,0,0.1-0.1,0.1-0.2c0-0.1,0.1-0.2,0.1-0.2c0-0.1,0-0.2,0.1-0.4c-0.1-0.1-0.1-0.1-0.1-0.2
		c0-0.1,0.1-0.1,0.1-0.2c0-0.2,0.1-0.4,0.3-0.5c0-0.1,0-0.2,0.1-0.3s0.1-0.2,0.1-0.3s0.1-0.1,0.1-0.2v-0.1c0.1-0.2,0.2-0.3,0.2-0.3
		s0.1-0.1,0.2-0.1l0.1-0.1c0-0.1,0.1-0.1,0.1-0.2c0.1,0,0.2-0.1,0.3-0.3c0.2-0.1,0.3-0.2,0.3-0.4c0.2-0.1,0.3-0.2,0.3-0.5
		c0,0,0.1,0,0.1,0.1c0.1-0.1,0.2-0.2,0.3-0.3c0.1,0,0.3-0.2,0.6-0.6c0.1,0,0.1,0,0.2-0.1h0.1c0,0,0,0,0.1,0l0.1-0.1
		c0.1,0,0.1-0.1,0.1-0.1c0.1,0,0.1,0,0.3-0.1c0.2,0,0.4,0,0.4-0.1c0.1,0,0.2,0,0.3-0.1s0.1-0.1,0.2-0.1H16c0.1,0,0.1,0,0.1,0h0.1
		h0.1c0,0,0.1,0,0.1,0.1c0.1,0,0.1,0,0.2,0h0.1h0.1h0.1l0.1,0.1c0.1,0,0.3,0,0.4,0c0.2,0.1,0.3,0.1,0.4,0.1c0.1,0.1,0.2,0.2,0.3,0.2
		c0.1,0.1,0.1,0.1,0.2,0.1h0.2C18.7,39,18.7,39,18.7,39.1z M18.6,38.9h0.2c0,0.1,0,0.1,0,0.1c0.2,0.1,0.3,0.2,0.4,0.3
		c0,0.1,0.1,0.1,0.2,0.2h0.1c0,0.1,0.1,0.2,0.2,0.3v0.1c0.1,0.1,0,0.2,0,0.3s0,0.1,0,0.2c0,0.1,0,0.1,0,0.1v0.1v0.1h-0.1
		c-0.1,0.1-0.1,0.1-0.1,0.3c-0.2,0.1-0.3,0.2-0.3,0.3h-0.1c-0.1,0-0.1,0-0.1,0s-0.1,0-0.1,0.1h-0.1c-0.1,0-0.1,0-0.2,0h-0.1
		l-0.1-0.1h-0.1c-0.1,0-0.1,0-0.1,0h-0.1l0,0c0,0,0,0,0-0.1c0,0-0.1-0.1-0.2-0.1c-0.3,0-0.4,0-0.5,0.1v0.1c-0.2,0-0.3,0.1-0.4,0.2
		l0,0l0,0c-0.1,0-0.1,0-0.2,0.1s-0.1,0.2-0.2,0.2v0.1c-0.1,0-0.1,0.1-0.1,0.1h-0.1c-0.3,0.2-0.5,0.4-0.5,0.6c-0.1,0-0.1,0-0.1,0v0.1
		c0,0,0,0,0,0.1c-0.1,0-0.2,0.1-0.3,0.2c-0.1,0.1-0.2,0.2-0.3,0.3c0,0.1-0.1,0.2-0.2,0.3c-0.1,0.1-0.2,0.2-0.2,0.3
		c-0.1,0-0.1,0.1-0.2,0.2c-0.1,0.1-0.1,0.1-0.1,0.1v0.1v0.1c0,0-0.1,0.1-0.2,0.2v0.1c0,0.1,0,0.2-0.1,0.3s-0.1,0.2-0.1,0.2
		c-0.1,0-0.1,0.1-0.1,0.2c0,0.1-0.1,0.2-0.1,0.2v0.3c-0.1,0.1-0.1,0.2-0.2,0.2v0.2c-0.2,0.2-0.2,0.4-0.1,0.7h-0.1c0,0.1,0,0.3,0,0.5
		c-0.1,0-0.1,0-0.1,0c0,0.1,0,0.2,0,0.4s0,0.4-0.1,0.4c0,0.1,0,0.3,0,0.3c0,0.1-0.1,0.1-0.1,0.1c-0.1,0.3-0.1,0.7-0.1,1.1
		c0,0,0,0.3,0,0.9c0,0.6,0,0.9,0,1s0,0.1,0,0.1c0,0.2,0,0.3,0.1,0.3c0,0.1,0,0.2,0,0.3c0,0.2,0,0.3,0,0.4c0,0.1,0,0.2,0.1,0.2
		c-0.1,0.3,0,0.5,0.2,0.5c-0.1,0.1-0.1,0.3,0,0.3c0,0,0,0.1,0.1,0.1l0.1,0.1c0,0,0,0,0,0.1v0.1c0,0,0,0.1,0.1,0.2
		c0,0.1,0,0.2,0.1,0.3c0,0.1,0,0.2,0.1,0.3s0.1,0.2,0.1,0.2c0.2,0.4,0.4,0.7,0.5,0.8v0.1c0,0,0,0,0,0.1c0,0,0.1,0.1,0.2,0.1
		c0,0.1,0,0.1,0.1,0.2c0.1,0,0.1,0.1,0.1,0.1v0.1h0.1h0.1l0.1,0.1c0,0.1,0.1,0.1,0.1,0.1c0.1,0,0.2,0,0.3,0s0.1,0,0.1,0.1
		s0,0.1,0.1,0.1H16c0.1,0,0.1,0,0.1,0s0.1,0,0.2,0s0.1,0,0.2,0.1s0.2,0.1,0.3,0.1h0.1H17h0.1c0.1,0,0.1,0,0.1,0
		c0.1,0.1,0.2,0.2,0.3,0.3h0.1c0.1,0,0.1,0,0.1,0c0.4,0,0.6,0,0.7-0.1c0.3,0,0.4,0.1,0.4,0.1s0.1,0,0.1-0.1v-0.1
		c0.3,0.1,0.4,0.1,0.5,0c0.2,0,0.4,0,0.5-0.2c0.2,0,0.3,0,0.3-0.1c0.1,0.1,0.2,0,0.3,0h0.1h0.1c0.1,0,0.1,0,0.3-0.1
		c0.1,0,0.1,0,0.2-0.1s0.1-0.1,0.2-0.1c0,0,0.1-0.1,0.3-0.1c0.2-0.1,0.2-0.1,0.3-0.2c0.1,0,0.2-0.1,0.3-0.2c0.1,0,0.1,0,0.2-0.1
		c0.1,0,0.2,0,0.3-0.1C22.9,56,22.9,56,23,56c0,0,0,0,0-0.1l0,0h0.1h0.1c0-0.1,0.1-0.1,0.1-0.2c0-0.1,0.1-0.1,0.1-0.2
		c0.2-0.2,0.4-0.4,0.4-0.5c0.1,0,0.1,0,0.2,0c0-0.1,0.1-0.1,0.1-0.1c0.1,0,0.1,0,0.2,0c0.1-0.1,0.2-0.1,0.3-0.1s0.2,0,0.3,0.1H25
		c0.1,0,0.2,0.1,0.3,0.2c0.1,0,0.1,0,0.2,0s0.1,0.1,0.1,0.3c0,0.1,0.1,0.2,0.2,0.2c0,0.1,0,0.1,0,0.1l0.1,0.1c0.1,0,0.1,0.1,0.1,0.1
		c0,0.1,0,0.2,0.1,0.4c0.1,0.1,0.1,0.2,0.1,0.3c-0.1,0.1-0.1,0.2-0.1,0.3V57H26c0,0.1,0,0.2,0,0.3c-0.1,0-0.2,0.1-0.3,0.2
		s-0.2,0.2-0.3,0.3c-0.2,0.1-0.3,0.2-0.3,0.2c-0.1,0-0.3,0.1-0.5,0.3c-0.1,0-0.1,0-0.2,0.1s-0.1,0.1-0.2,0.1c0,0-0.1,0.1-0.2,0.1
		c-0.1,0.1-0.2,0.1-0.2,0.2c-0.2,0.1-0.4,0.2-0.5,0.4L23,58.8c-0.1,0.1-0.2,0.2-0.2,0.3c-0.3,0-0.4,0.1-0.5,0.2
		c-0.1,0-0.2,0-0.3,0.2h-0.1h-0.1c0,0-0.1,0-0.2,0.1h-0.1h-0.1c-0.1,0-0.1,0.1-0.3,0.1c-0.1,0-0.2,0-0.2,0s0,0-0.1,0.1h-0.1
		c0,0-0.1,0.1-0.2,0.2c-0.1,0-0.1,0-0.3-0.1c-0.2,0-0.3,0-0.4,0.2c-0.1,0.1-0.1,0.1-0.2,0h-0.1c-0.2-0.1-0.4-0.1-0.7,0
		c-0.2,0.1-0.4,0.1-0.4,0.1h-0.1c-0.1,0-0.1,0-0.1,0v0.1v0.1H18l-0.3-0.2h-0.1c-0.1,0-0.1,0-0.1,0h-0.1h-0.1h-0.1
		c-0.1,0-0.1,0-0.1,0s-0.1,0-0.1-0.1h-0.1h-0.1c-0.1,0-0.1,0-0.1,0s-0.1,0-0.1-0.1c-0.1,0-0.1-0.1-0.1-0.1h-0.1h-0.1v-0.1
		c0,0-0.1-0.1-0.3-0.1h-0.1h-0.1c0,0,0-0.1,0-0.2h-0.1c-0.1,0-0.1,0-0.1,0c-0.1-0.2-0.2-0.2-0.3,0c-0.1,0-0.1-0.1-0.1-0.2
		c0,0-0.1,0-0.2-0.1c-0.1-0.1-0.2-0.1-0.3-0.1s-0.1,0-0.2,0c0-0.1,0-0.1,0-0.1h-0.2c0-0.1,0-0.1,0-0.1s0,0-0.1,0s-0.1,0-0.1,0
		c-0.1,0-0.1,0-0.1-0.1s0-0.1,0-0.2c-0.1,0-0.2,0-0.2,0c-0.1-0.1-0.1-0.1-0.2-0.1c0-0.1,0-0.2-0.1-0.3s-0.2-0.1-0.3-0.2
		c-0.1-0.3-0.2-0.4-0.5-0.4c0-0.1,0-0.2-0.2-0.4c-0.2-0.1-0.2-0.2-0.2-0.4c-0.2-0.2-0.3-0.4-0.3-0.4c0.1-0.1,0-0.2-0.1-0.4
		c-0.1-0.1-0.2-0.2-0.2-0.3h-0.1c0,0,0,0-0.1,0c0-0.2-0.1-0.3-0.1-0.3c0.1-0.1,0-0.2-0.1-0.3c0.1-0.2,0-0.4-0.1-0.5c0,0-0.1,0-0.2,0
		c-0.1-0.2-0.1-0.4,0-0.5c-0.1-0.2-0.2-0.3-0.2-0.4c0,0,0-0.1,0-0.2c0-0.1,0-0.2,0-0.2c-0.1-0.2-0.2-0.3-0.1-0.4c0,0,0-0.1-0.1-0.1
		l-0.1-0.1c0,0,0-0.1,0-0.2c0-0.1,0-0.2,0-0.2c-0.1-0.2-0.1-0.3,0-0.4c-0.1,0-0.1,0-0.1,0v-0.1v-0.1v-0.1c0,0,0,0,0-0.1s0,0,0-0.1
		v-0.1c0,0,0-0.1,0-0.2c0-0.1,0-0.2,0-0.2c-0.4,0.2-0.4,0.1-0.6,0c0,0,0,0,0-0.1l0,0l0,0c0,0,0,0,0-0.1v-0.1v-0.1v-0.1v-0.1
		c0,0,0-0.1,0.1-0.3c-0.1,0-0.1-0.3,0-0.8s0.2-0.7,0.2-0.8s0-0.1,0-0.1c-0.2-0.1-0.2-0.3,0-0.4c0-0.1,0-0.1,0-0.1s0,0,0.1-0.1
		c0,0,0.1,0,0.1-0.1c0,0,0-0.1-0.1-0.1c0,0,0,0,0.1-0.1s0.1,0,0.1-0.1l-0.1-0.1c0,0,0-0.1,0-0.2c0-0.1,0-0.2,0-0.2l0.1-0.1
		c0-0.1,0-0.2,0-0.4s0-0.3,0-0.4c0.1-0.1,0.1-0.2,0.1-0.4s0.1-0.3,0.1-0.4c0-0.1,0-0.1,0.1-0.3c-0.1,0-0.1-0.1,0-0.2
		c0-0.1,0.1-0.2,0-0.2c0.1,0,0.1-0.1,0.1-0.2c0-0.1,0.1-0.2,0.1-0.2c0-0.1,0-0.2,0.1-0.4c-0.1-0.1-0.1-0.1-0.1-0.2
		c0-0.1,0.1-0.1,0.1-0.2c0-0.2,0.1-0.4,0.3-0.5c0-0.1,0-0.2,0.1-0.3s0.1-0.2,0.1-0.3s0.1-0.1,0.1-0.1v-0.2c0.1-0.2,0.2-0.3,0.2-0.3
		s0.1-0.1,0.2-0.1l0.1-0.1c0-0.1,0.1-0.1,0.1-0.2c0.1,0,0.2-0.1,0.3-0.3c0.2-0.1,0.3-0.2,0.3-0.4c0.2-0.1,0.3-0.2,0.3-0.5
		c0,0,0.1,0,0.1,0.1c0.1-0.1,0.2-0.2,0.3-0.3c0.1,0,0.3-0.2,0.6-0.6c0.1,0,0.1,0,0.2-0.1h0.1c0,0,0,0,0.1,0l0.1-0.1
		c0.1,0,0.1-0.1,0.1-0.1c0.1,0,0.1,0,0.3-0.1c0.2,0,0.4,0,0.4-0.1c0.1,0,0.2,0,0.3-0.1s0.1-0.1,0.2-0.1H16c0.1,0,0.1,0,0.1,0h0.1
		h0.1c0,0,0.1,0,0.1,0.1c0.1,0,0.1,0,0.2,0h0.1h0.1h0.1l0.1,0.1c0.1,0,0.3,0,0.4,0c0.2,0.1,0.3,0.1,0.4,0.1c0.1,0.1,0.2,0.2,0.3,0.2
		C18.5,38.9,18.5,38.9,18.6,38.9z M10.3,45.9C10.3,45.9,10.4,45.9,10.3,45.9C10.3,46,10.3,46,10.3,45.9L10.3,45.9z M10.4,46
		C10.3,46,10.3,46,10.4,46C10.3,45.9,10.3,45.9,10.4,46C10.3,45.9,10.4,45.9,10.4,46z"/>
	<path fill="#2B5799" d="M28.8,40.9c0.1,0,0.2,0,0.3,0c0,0.1,0.1,0.1,0.3,0.1c0.1,0,0.1,0,0.2,0v0.1v0.1c0.1,0,0.2,0,0.3,0
		c0.1,0.1,0.2,0,0.2-0.1c0.1,0,0.1,0.1,0.1,0.3c0,0,0.1,0,0.3,0c0,0.1,0,0.2,0.1,0.2c0.1,0.1,0.1,0.1,0.1,0.1h0.1v0.1
		c0,0.1,0,0.1,0,0.1c0,0.1,0.1,0.1,0.2,0.2c0,0.2,0,0.3,0,0.3c0,0.1,0.1,0.1,0.3,0.1c0,0.1,0,0.2,0,0.5c-0.1,0-0.2,0-0.2,0.1
		s0.1,0.2,0.2,0.1v0.4c-0.1,0-0.1,0.1-0.1,0.3s0.1,0.2,0.2,0.2v0.1c-0.1,0-0.1,0.1-0.1,0.2s0,0.2,0.1,0.2c0,0,0,0.1-0.1,0.2
		c0,0.1-0.1,0.2,0,0.2v0.1c0.1,0.2,0.2,0.3,0.2,0.3c-0.1,0.1-0.1,0.2,0,0.3c0,0.1,0,0.2,0,0.3c0,0,0,0.1,0.1,0.1s0.1,0.1,0.1,0.1
		c0,0.1,0,0.1,0,0.1c-0.1,0-0.1,0-0.1,0.1s0,0.1,0.1,0.1c0,0.1,0,0.2,0,0.3s0,0.2,0,0.3c0.1,0.1,0.1,0.1,0.1,0.1s0,0,0,0.1
		c0,0,0,0.1,0.1,0.1l0,0H32c0,0.1,0,0.1,0,0.1L31.9,48l0.1,0.5c0,0,0.1,0,0.2,0v0.1c0,0,0,0-0.1,0c0,0.1,0,0.1,0,0.2
		c0,0.1,0,0.2,0,0.2c0.1,0.1,0.1,0.2,0.1,0.2s0,0-0.1,0c0,0.1,0,0.2,0,0.5c0,0.2,0,0.4,0,0.4c0,0.2,0,0.3,0.1,0.3V51
		c0,0,0,0.1,0.1,0.2s0.1,0.2,0.1,0.2s0,0.1,0,0.2c0,0.1,0,0.2,0,0.2s0.1,0,0.1,0.1c0,0,0.1,0,0.1,0.1v0.1l-0.1,0.1
		c0.1,0,0.1,0.1,0.1,0.1c0,0.1,0,0.2-0.1,0.2c-0.1,0.1-0.1,0.1-0.1,0.2c0,0.1,0,0.2,0.1,0.3s0.1,0.2,0.1,0.2c0.1,0,0.1,0,0.1,0
		c0,0.2,0,0.4,0,0.6c-0.1,0-0.2,0-0.2,0.1s0.1,0.1,0.2,0.1v0.5c-0.1,0-0.1,0.1-0.1,0.2c0,0.1,0.1,0.2,0.2,0.2c0,0.3,0,0.4,0,0.4
		c-0.1,0-0.2,0.1-0.2,0.1c0,0.1,0,0.1,0.1,0.2c0,0.1,0.1,0.1,0.1,0c0,0.1,0,0.2,0,0.3s0,0.1,0,0.1c-0.1,0.1-0.1,0.2-0.1,0.3l0.1,0.1
		l0.1,0.1c0,0.1,0,0.2,0,0.3s0,0.2,0,0.3c-0.1,0.1-0.1,0.1-0.1,0.1c0,0.1,0,0.1,0.1,0.2c0.1,0,0.1,0,0.2,0c0.1,0,0.1,0.1,0.2,0
		s0,0,0.1-0.1c0,0,0-0.1,0.1-0.1c0.3,0,0.4,0,0.4-0.1c0,0,0,0,0.1,0.1c0,0,0,0.1,0.1,0.1s0.1,0,0.2-0.1c0.1-0.1,0.2-0.1,0.3-0.1
		c0.1,0.1,0.1,0.1,0.2,0.1c0,0,0,0,0-0.1V57c0.1,0,0.2,0,0.2-0.1C34.9,57,35,57,35,57c0.2-0.1,0.3-0.1,0.3,0v-0.1v-0.1h0.1v0.1
		c0.1-0.1,0.3-0.2,0.6-0.1c0.1,0.1,0.1,0.1,0.2,0.1s0.1,0,0.1,0s0.1,0,0.1-0.1h0.1h0.1c0,0,0,0,0-0.1s0-0.1,0-0.1h0.6
		c0,0,0.2,0,0.5,0c0.1,0,0.1,0,0.2,0c0.1,0,0.1,0,0.1,0s0,0,0.1,0h0.1c0,0,0,0,0.1,0h0.1h0.1c0.1,0,0.1,0,0.2,0c0,0,0-0.1,0.1-0.1
		h0.1c0.3,0,0.4,0,0.5,0.1c0.1,0,0.1,0,0.2,0c0.1,0,0.1,0,0.2,0c0.1,0,0.3,0,0.5,0c0.3,0,0.4,0,0.4,0l0.1,0.2c0.1,0,0.1-0.1,0.1-0.2
		c0.1-0.1,0.2,0,0.3,0c0.1-0.1,0.2-0.1,0.3,0c0,0.1,0,0.1,0,0.1c0.1,0,0.1,0,0.2-0.1c0,0.1,0.1,0.2,0.3,0.3c0.1,0,0.1,0,0.2,0
		c0.1,0,0.1,0,0.2,0c0,0.1,0,0.2,0,0.2c0.1,0.1,0.2,0.2,0.3,0.2h0.1h0.1c0,0.1,0,0.1,0,0.2c0,0.1,0,0.1,0,0.1l0.1,0.1
		c0,0.1,0.1,0.1,0.1,0.2c0.1,0.1,0.1,0.1,0.1,0.1c0,0.1,0,0.2,0.1,0.3h0.1c0,0,0,0.1-0.1,0.2c0,0.1,0,0.2,0,0.3
		c-0.1,0-0.1,0.1-0.2,0.2c0,0.1-0.1,0.2-0.1,0.2c0,0.1,0,0.2,0,0.3h-0.1l0,0c-0.1,0-0.1,0.1-0.2,0.2c-0.1,0.1-0.2,0.2-0.3,0.2l0,0
		l0,0c0,0.1,0,0.1,0,0.2h-0.8c0,0-0.1,0-0.1-0.1c0,0,0-0.1-0.1-0.1s-0.1,0-0.1,0.1c0,0-0.1,0.1-0.2,0.1c0-0.2-0.1-0.3-0.1-0.3
		s0,0-0.1,0c0,0,0,0-0.1,0s-0.1,0-0.2,0c0-0.1,0-0.1-0.1-0.2c-0.1,0-0.1,0-0.1,0.1c-0.1-0.1-0.1-0.2-0.2-0.2c0,0-0.1,0.1-0.1,0.2
		c-0.1-0.1-0.1-0.2-0.2-0.2h-0.1c-0.1,0-0.1,0-0.2,0h-0.1h-0.1c0,0-0.1,0-0.1,0.1c-0.1,0-0.3,0-0.5-0.1c0,0,0,0.1-0.1,0.1
		s-0.1,0-0.1,0c0-0.1,0-0.2-0.1-0.2s-0.1,0.1-0.1,0.2c0,0-0.1,0-0.2-0.1c0,0.1-0.1,0.1-0.4,0.1s-0.5,0-0.5,0s-0.2-0.1-0.6-0.1
		c0,0.1-0.1,0.1-0.1,0.1c-0.1,0-0.1,0-0.1-0.1c-0.2,0-0.3,0.1-0.3,0.2c-0.1,0-0.2,0-0.3,0s-0.1,0-0.2,0c-0.1-0.1-0.1-0.1-0.2-0.1
		c-0.1,0-0.1,0.1-0.1,0.2c0,0-0.2,0-0.4,0s-0.4,0-0.4,0l0,0c0,0,0,0-0.1,0c0,0,0,0-0.1,0c-0.1,0.1-0.3,0.1-0.8,0.1
		c-0.1,0-0.2,0.1-0.3,0.2H33c-0.1,0-0.1,0-0.1,0h-0.1l-0.1,0.3c-0.3,0-0.5,0-0.5,0s0,0.1-0.1,0.2H32h-0.1c0-0.1-0.1-0.1-0.2-0.1
		s-0.2,0-0.3,0v0.1v0.1c-0.1,0-0.1,0-0.1-0.1l-0.1-0.1c-0.1,0.1-0.2,0.1-0.3,0.1c0,0,0,0,0-0.1c0,0,0.1,0,0.1-0.1h-0.2
		c0-0.1,0-0.1,0-0.1s-0.1,0-0.1-0.1s-0.1-0.1-0.1-0.2v-0.2c-0.1,0-0.2,0-0.3-0.1C30,60,29.9,60,29.9,60c0.1-0.1,0-0.2-0.3-0.3
		c0-0.1,0-0.1,0-0.3c0,0,0,0-0.1,0c0-0.2,0-0.3,0.1-0.3c0,0,0,0,0-0.1c0,0-0.1,0-0.1-0.1c0,0,0-0.1,0.1-0.1s0.1,0,0.1-0.1
		s-0.1-0.1-0.2-0.1v-0.1c0.1,0,0.1,0,0.1,0s0,0,0-0.1v-0.1c0,0,0.1,0,0.2,0c0-0.1,0-0.2,0-0.5s0-0.5,0-0.5c0.1,0,0.1-0.1,0.1-0.1
		s0-0.1-0.1-0.1c0-0.5,0-1,0-1.5c0-0.2,0-0.4,0-0.5c0.1-0.2,0.1-0.3-0.1-0.4v-0.4c0,0,0-0.2,0-0.4c0-0.5-0.1-0.7-0.1-0.8
		c0.1-0.1,0.1-0.3,0-0.3c0-0.1,0-0.2,0-0.3s0-0.2,0-0.3S29.5,52,29.4,52v-0.1c0-0.1,0-0.1,0-0.1l0.1-0.1v-0.1c0-0.1,0-0.1,0-0.1
		c-0.1-0.1-0.1-0.1-0.2-0.1v-0.1c0,0,0,0,0.1,0s0.1,0,0.1,0s-0.1-0.1-0.2-0.1c0-0.1,0-0.2,0.1-0.3c0-0.3-0.1-0.4-0.1-0.5
		c-0.1,0-0.1,0-0.1,0V50c0.1,0,0.2,0,0.2-0.1c0,0,0-0.1-0.1-0.1h-0.1c0-0.1,0-0.1,0-0.2h0.1c0,0,0.1,0,0.1-0.1c0,0,0,0,0-0.1
		c0,0,0,0,0-0.1s0-0.2,0-0.3s0-0.2,0-0.3c0,0,0-0.1-0.1-0.1l-0.1-0.1c0-0.1,0-0.2,0-0.3c0,0,0-0.1,0-0.2c0-0.1,0-0.2,0-0.2
		s0,0-0.1-0.1c0,0-0.1,0-0.1-0.1l0.1-0.2c0-0.1,0-0.2-0.1-0.4c0-0.2,0-0.3-0.1-0.4c0,0-0.1-0.1-0.1-0.3c0-0.1,0-0.2-0.1-0.2h-0.1
		c0,0,0,0-0.1,0c-0.1-0.1,0-0.2,0.1-0.3v-0.1c0-0.1,0-0.1,0-0.1s-0.1-0.1-0.2-0.1c0,0,0-0.1,0.1-0.1V45c-0.1,0-0.1-0.1-0.1-0.1
		s0-0.1,0-0.2c0-0.2,0-0.3-0.1-0.3v-0.1c0-0.1,0-0.2,0-0.3s0-0.2,0-0.3c0,0,0,0-0.1-0.1c0,0-0.1,0-0.1-0.1c0.1-0.1,0.1-0.1,0-0.2
		c0-0.1-0.1-0.1-0.2-0.2c0-0.2,0-0.4,0.1-0.4c0-0.1,0-0.2-0.1-0.4c-0.1-0.1-0.1-0.2-0.1-0.4c0,0.1-0.1,0.1,0,0.1c0,0,0,0,0.1,0
		c0-0.1,0-0.2,0-0.2c0.3,0,0.4-0.2,0.3-0.5C28.5,41.2,28.7,41.1,28.8,40.9z M29.1,40.9c0,0.1,0.1,0.1,0.3,0.1c0.1,0,0.1,0,0.2,0v0.1
		v0.1c0.1,0,0.2,0,0.3,0c0.1,0.1,0.2,0,0.2-0.1c0.1,0,0.1,0.1,0.1,0.3c0,0,0.1,0,0.3,0c0,0.1,0,0.2,0.1,0.2c0.1,0.1,0.1,0.1,0.1,0.1
		h0.1v0.1c0,0.1,0,0.1,0,0.1c0,0.1,0.1,0.1,0.2,0.2c0,0.2,0,0.3,0,0.3c0,0.1,0.1,0.1,0.3,0.1c0,0.1,0,0.2,0,0.5
		c-0.1,0-0.2,0-0.2,0.1s0.1,0.2,0.2,0.1v0.4c-0.1,0-0.1,0.1-0.1,0.3s0.1,0.2,0.2,0.2v0.1c-0.1,0-0.1,0.1-0.1,0.2s0,0.2,0.1,0.2
		c0,0,0,0.1-0.1,0.2c0,0.1-0.1,0.2,0,0.2v0.1c0.1,0.2,0.2,0.3,0.2,0.3c-0.1,0.1-0.1,0.2,0,0.3c0,0.1,0,0.2,0,0.3c0,0,0,0.1,0.1,0.1
		s0.1,0.1,0.1,0.1c0,0.1,0,0.1,0,0.1c-0.1,0-0.1,0-0.1,0.1s0,0.1,0.1,0.1c0,0.1,0,0.2,0,0.3s0,0.2,0,0.3c0.1,0.1,0.1,0.1,0.1,0.1
		s0,0,0,0.1c0,0,0,0.1,0.1,0.1l0,0H32c0,0.1,0,0.1,0,0.1L31.9,48l0.1,0.5c0,0,0.1,0,0.2,0v0.1c0,0,0,0-0.1,0c0,0.1,0,0.1,0,0.2
		c0,0.1,0,0.2,0,0.2c0.1,0.1,0.1,0.2,0.1,0.2s0,0-0.1,0c0,0.1,0,0.2,0,0.5c0,0.2,0,0.4,0,0.4c0,0.2,0,0.3,0.1,0.3V51
		c0,0,0,0.1,0.1,0.2s0.1,0.2,0.1,0.2s0,0.1,0,0.2c0,0.1,0,0.2,0,0.2s0.1,0,0.1,0.1c0,0,0.1,0,0.1,0.1v0.1l-0.1,0.1
		c0.1,0,0.1,0.1,0.1,0.1c0,0.1,0,0.2-0.1,0.2c-0.1,0.1-0.1,0.1-0.1,0.2c0,0.1,0,0.2,0.1,0.3s0.1,0.2,0.1,0.2c0.1,0,0.1,0,0.1,0
		c0,0.2,0,0.4,0,0.6c-0.1,0-0.2,0-0.2,0.1s0.1,0.1,0.2,0.1v0.5c-0.1,0-0.1,0.1-0.1,0.2c0,0.1,0.1,0.2,0.2,0.2c0,0.3,0,0.4,0,0.4
		c-0.1,0-0.2,0.1-0.2,0.1c0,0.1,0,0.1,0.1,0.2c0,0.1,0.1,0.1,0.1,0c0,0.1,0,0.2,0,0.3s0,0.1,0,0.1c-0.1,0.1-0.1,0.2-0.1,0.3l0.1,0.1
		l0.1,0.1c0,0.1,0,0.2,0,0.3s0,0.2,0,0.3c-0.1,0.1-0.1,0.1-0.1,0.1c0,0.1,0,0.1,0.1,0.2c0.1,0,0.1,0,0.2,0c0.1,0,0.1,0.1,0.2,0
		s0,0,0.1-0.1c0,0,0-0.1,0.1-0.1c0.3,0,0.4,0,0.4-0.1c0,0,0,0,0.1,0.1c0,0,0,0.1,0.1,0.1s0.1,0,0.2-0.1c0.1-0.1,0.2-0.1,0.3-0.1
		c0.1,0.1,0.1,0.1,0.2,0.1c0,0,0,0,0-0.1V57c0.1,0,0.2,0,0.2-0.1C34.9,57,35,57,35,57c0.2-0.1,0.3-0.1,0.3,0v-0.1v-0.1h0.1v0.1
		c0.1-0.1,0.3-0.2,0.6-0.1c0.1,0.1,0.1,0.1,0.2,0.1s0.1,0,0.1,0s0.1,0,0.1-0.1h0.1h0.1c0,0,0,0,0-0.1s0-0.1,0-0.1h0.6
		c0,0,0.2,0,0.5,0c0.1,0,0.1,0,0.2,0c0.1,0,0.1,0,0.1,0s0,0,0.1,0h0.1c0,0,0,0,0.1,0h0.1h0.1c0.1,0,0.1,0,0.2,0c0,0,0-0.1,0.1-0.1
		h0.1c0.3,0,0.4,0,0.5,0.1c0.1,0,0.1,0,0.2,0c0.1,0,0.1,0,0.2,0c0.1,0,0.3,0,0.5,0c0.3,0,0.4,0,0.4,0l0.1,0.2c0.1,0,0.1-0.1,0.1-0.2
		c0.1-0.1,0.2,0,0.3,0c0.1-0.1,0.2-0.1,0.3,0c0,0.1,0,0.1,0,0.1c0.1,0,0.1,0,0.2-0.1c0,0.1,0.1,0.2,0.3,0.3c0.1,0,0.1,0,0.2,0
		c0.1,0,0.1,0,0.2,0c0,0.1,0,0.2,0,0.2c0.1,0.1,0.2,0.2,0.3,0.2h0.1h0.1c0,0.1,0,0.1,0,0.2c0,0.1,0,0.1,0,0.1s0,0.1,0.1,0.1
		c0,0.1,0,0.2,0,0.3c0.1,0.1,0.1,0.1,0.1,0.1c0,0.1,0,0.2,0.1,0.3h0.1c0,0,0,0.1-0.1,0.2c0,0.1,0,0.2,0,0.3c-0.1,0-0.1,0.1-0.2,0.2
		c0,0.1-0.1,0.2-0.1,0.2c0,0.1,0,0.2,0,0.3h-0.1l0,0c-0.1,0-0.1,0.1-0.2,0.2c-0.1,0.1-0.2,0.2-0.3,0.2l0,0l0,0c0,0.1,0,0.1,0,0.2
		h-0.8c0,0-0.1,0-0.1-0.1c0,0,0-0.1-0.1-0.1s-0.1,0-0.1,0.1c0,0-0.1,0.1-0.2,0.1c0-0.2-0.1-0.3-0.1-0.3s0,0-0.1,0c0,0,0,0-0.1,0
		s-0.1,0-0.2,0c0-0.1,0-0.1-0.1-0.2c-0.1,0-0.1,0-0.1,0.1c-0.1-0.1-0.1-0.2-0.2-0.2c0,0-0.1,0.1-0.1,0.2c-0.1-0.1-0.1-0.2-0.2-0.2
		h-0.1c-0.1,0-0.1,0-0.2,0h-0.1h-0.1c0,0-0.1,0-0.1,0.1c-0.1,0-0.3,0-0.5-0.1c0,0,0,0.1-0.1,0.1s-0.1,0-0.1,0c0-0.1,0-0.2-0.1-0.2
		s-0.1,0.1-0.1,0.2c0,0-0.1,0-0.2-0.1c0,0.1-0.1,0.1-0.4,0.1s-0.5,0-0.5,0s-0.2-0.1-0.6-0.1c0,0.1-0.1,0.1-0.1,0.1
		c-0.1,0-0.1,0-0.1-0.1c-0.2,0-0.3,0.1-0.3,0.2c-0.1,0-0.2,0-0.3,0s-0.1,0-0.2,0c-0.1-0.1-0.1-0.1-0.2-0.1c-0.1,0-0.1,0.1-0.1,0.2
		c0,0-0.2,0-0.4,0s-0.4,0-0.4,0l0,0c0,0,0,0-0.1,0c0,0,0,0-0.1,0C34.2,60,34,60,33.5,60c-0.1,0-0.2,0.1-0.3,0.2h-0.3
		c-0.1,0-0.1,0-0.1,0h-0.1l-0.1,0.3c-0.3,0-0.5,0-0.5,0s0,0.1-0.1,0.2h-0.1h-0.1c0-0.1-0.1-0.1-0.2-0.1s-0.2,0-0.3,0v0.1v0.1
		c-0.1,0-0.1,0-0.1-0.1l-0.1-0.1c-0.1,0.1-0.2,0.1-0.3,0.1c0,0,0,0,0-0.1c0,0,0.1,0,0.1-0.1h-0.2c0-0.1,0-0.1,0-0.1s-0.1,0-0.1-0.1
		s-0.1-0.1-0.1-0.2v-0.2c-0.1,0-0.2,0-0.3-0.1C30,60,29.9,60,29.9,60c0.1-0.1,0-0.2-0.3-0.3c0-0.1,0-0.1,0-0.3c0,0,0,0-0.1,0
		c0-0.2,0-0.3,0.1-0.3c0,0,0,0,0-0.1c0,0-0.1,0-0.1-0.1c0,0,0-0.1,0.1-0.1s0.1,0,0.1-0.1s-0.1-0.1-0.2-0.1v-0.1c0.1,0,0.1,0,0.1,0
		s0,0,0-0.1v-0.1c0,0,0.1,0,0.2,0c0-0.1,0-0.2,0-0.5s0-0.5,0-0.5c0.1,0,0.1-0.1,0.1-0.1s0-0.1-0.1-0.1c0-0.5,0-1,0-1.5
		c0-0.2,0-0.4,0-0.5c0.1-0.2,0.1-0.3-0.1-0.4v-0.4c0,0,0-0.2,0-0.4c0-0.5-0.1-0.7-0.1-0.8c0.1-0.1,0.1-0.3,0-0.3c0-0.1,0-0.2,0-0.3
		s0-0.2,0-0.3S29.5,52,29.4,52v-0.1c0-0.1,0-0.1,0-0.1l0.1-0.1v-0.1c0-0.1,0-0.1,0-0.1c-0.1-0.1-0.1-0.1-0.2-0.1v-0.1c0,0,0,0,0.1,0
		s0.1,0,0.1,0s-0.1-0.1-0.2-0.1c0-0.1,0-0.2,0.1-0.3c0-0.3-0.1-0.4-0.1-0.5c-0.1,0-0.1,0-0.1,0c0-0.1,0-0.1,0-0.1
		c0.1,0,0.2,0,0.2-0.1c0,0,0-0.1-0.1-0.1h-0.1c0-0.1,0-0.1,0-0.2h0.1c0,0,0.1,0,0.1-0.1c0,0,0,0,0-0.1c0,0,0,0,0-0.1s0-0.2,0-0.3
		s0-0.2,0-0.3c0,0,0-0.1-0.1-0.1l-0.1-0.1c0-0.1,0-0.2,0-0.3c0,0,0-0.1,0-0.2c0-0.1,0-0.2,0-0.2s0,0-0.1-0.1c0,0-0.1,0-0.1-0.1
		l0.1-0.2c0-0.1,0-0.2-0.1-0.4c0-0.2,0-0.3-0.1-0.4c0,0-0.1-0.1-0.1-0.3c0-0.1,0-0.2-0.1-0.2h-0.1c0,0,0,0-0.1,0
		c-0.1-0.1,0-0.2,0.1-0.3V46c0-0.1,0-0.1,0-0.1s-0.1-0.1-0.2-0.1c0,0,0-0.1,0.1-0.1V45c-0.1,0-0.1-0.1-0.1-0.1s0-0.1,0-0.2
		c0-0.2,0-0.3-0.1-0.3v-0.1c0-0.1,0-0.2,0-0.3s0-0.2,0-0.3c0,0,0,0-0.1-0.1c0,0-0.1,0-0.1-0.1c0.1-0.1,0.1-0.1,0-0.2
		c0-0.1-0.1-0.1-0.2-0.2c0-0.2,0-0.4,0.1-0.4c0-0.1,0-0.2-0.1-0.4c-0.1-0.1-0.1-0.2-0.1-0.4c0,0.1-0.1,0.1,0,0.1c0,0,0,0,0.1,0H28
		c0,0,0,0,0-0.1s0-0.1,0-0.1c0.3,0,0.4-0.2,0.3-0.5c0.4-0.1,0.6-0.2,0.6-0.4C28.9,40.9,29,40.9,29.1,40.9z"/>
	<path fill="#2B5799" d="M51.3,42.1c0,0,0.1,0,0.2,0.1c0,0,0.1,0,0.2,0c0.1,0,0.1,0,0.2,0s0.1,0,0.1,0s0,0,0.1,0s0,0,0.1,0h0.1
		c0.1,0.2,0.2,0.2,0.3,0.2l0.3,0.2c0,0.1,0,0.1,0.1,0.2c0.1,0.1,0.1,0.1,0.1,0.1c0.1,0,0.1,0,0.2,0.1c0.1,0.1,0.1,0.1,0.2,0.1h0.1
		h0.1C53.9,43,54,43,54,43s0.1,0,0.3,0c0,0,0.1,0,0.2,0c0.1,0,0.1,0,0.2,0c0,0,0.1,0,0.1,0.1l0.1,0.1c0,0,0.1,0,0.2,0
		c0.1,0,0.1,0,0.2,0c0,0,0.1,0,0.2,0.1s0.2,0.1,0.3,0.1c0,0,0,0.1,0.1,0.1s0.2,0,0.3,0.1s0.2,0.1,0.2,0.1h0.1
		c0.3,0.2,0.5,0.3,0.7,0.3H57c0,0.1-0.1,0.1-0.2,0v0.1c0,0.1,0.1,0.2,0.3,0.3s0.3,0.2,0.3,0.4c0,0.1,0.1,0.1,0.2,0.2
		c0.2,0.2,0.3,0.3,0.3,0.5c0.1,0.1,0.2,0.2,0.2,0.3s0.1,0.1,0.2,0.3c0.1,0.1,0.1,0.2,0.1,0.3c0.1,0.2,0.2,0.3,0.2,0.4
		c0,0,0,0.1,0.1,0.1c0.1,0.1,0.1,0.3,0.1,0.3l0.1,0.1c0,0.1,0,0.2,0.1,0.3c0.1,0.3,0.1,0.4,0.1,0.4c0,0.2,0.1,0.3,0.1,0.3
		s0,0.1,0.1,0.3c-0.1,0-0.1,0.1,0,0.2c0.1,0.1,0.1,0.2,0.1,0.2v0.1v0.1c0,0,0,0,0,0.1v0.1c0,0.1,0,0.2,0,0.3c0,0.2,0,0.3,0,0.4
		c0,0.1,0,0.1,0,0.1v0.1c0,0,0,0.1,0.1,0.2c0,0,0,0,0,0.1c0,0,0,0,0,0.1c0.1,0.1,0.1,0.4,0.1,1s0,0.9,0,1c0,0,0,0.1,0,0.2
		c0,0.1,0,0.2,0,0.3c0,0,0,0.1-0.1,0.2c-0.1,0.1-0.1,0.2,0,0.2c0,0,0,0.1,0,0.2c0,0.1,0,0.1,0,0.2c-0.1,0-0.2,0.1-0.2,0.1
		c0,0.3,0,0.4,0,0.5v0.1l-0.1,0.1v0.1c-0.1,0.2-0.1,0.3-0.1,0.3s0,0.1-0.1,0.1s-0.1,0-0.1,0s0,0,0,0.1l-0.1,0.1
		c0,0.1-0.1,0.1-0.1,0.2L58.4,56c0,0.1-0.1,0.3-0.2,0.4c-0.1,0.2-0.2,0.3-0.2,0.4c-0.1,0.1-0.2,0.3-0.2,0.5c0,0-0.1,0-0.2,0.1
		c0,0.1,0,0.1-0.1,0.2c-0.1,0.1-0.1,0.2-0.1,0.3c-0.1,0-0.2,0.1-0.2,0.2c-0.1,0.1-0.1,0.2-0.2,0.2c0,0-0.1,0.1-0.1,0.2
		c-0.1,0.1-0.1,0.2-0.1,0.2c0,0.1,0,0.1-0.1,0.2c-0.2,0.1-0.4,0.2-0.5,0.4c-0.1,0.1-0.2,0.2-0.2,0.2c-0.1,0.1-0.2,0.2-0.3,0.2
		c-0.2,0.1-0.3,0.2-0.3,0.3h-0.1c0,0,0,0-0.1,0l-0.1,0.1C55,60.2,55,60.2,55,60.2c-0.1,0-0.2,0-0.3,0.1c-0.1,0-0.2,0-0.3,0.1
		c-0.1,0-0.1,0-0.2,0c-0.1,0-0.1,0-0.2,0c0,0-0.1,0.1-0.2,0.2c-0.2,0-0.3,0-0.3,0c0,0.1-0.1,0.1-0.3,0.1c-0.1,0-0.2,0.1-0.3,0.2
		c-0.1,0-0.3,0-0.7,0s-0.6,0-0.8,0c-0.1,0-0.2,0-0.3,0s-0.3,0-0.3,0s-0.1-0.1-0.1-0.2c-0.1,0-0.1,0-0.2,0.1c0,0.1-0.1,0.1-0.1,0.1
		s0,0,0-0.1l0,0c0,0-0.1,0-0.1-0.1c-0.1,0-0.1-0.1-0.1-0.1c-0.2,0.1-0.3,0-0.5-0.1s-0.3-0.1-0.4-0.1v-0.1c0,0-0.1,0-0.2-0.1
		c-0.1-0.1-0.3-0.1-0.4-0.1V60l-0.1-0.1c-0.1-0.1-0.1-0.1-0.1-0.1c-0.1,0-0.1,0-0.1-0.1c0,0,0,0-0.1-0.1c0,0-0.1,0-0.1-0.1
		c0,0,0,0-0.1,0H48l0,0l0,0c0,0-0.1,0-0.1-0.1c0,0-0.1,0-0.1-0.1c0-0.3-0.1-0.3-0.1-0.3c-0.1,0-0.1,0-0.1,0
		c-0.1-0.1-0.1-0.1-0.2-0.3c-0.1-0.1-0.2-0.2-0.2-0.3H47c-0.3-0.3-0.4-0.5-0.5-0.7c0,0-0.1-0.1-0.3-0.3v-0.1l-0.1-0.1
		c0-0.2,0-0.2-0.1-0.3c0-0.3-0.1-0.5-0.2-0.8c0-0.1,0-0.2-0.1-0.3c0-0.1,0-0.1,0-0.1s0,0,0-0.1v-0.1v-0.1l-0.1-0.1c0,0,0-0.2,0-0.5
		v-0.1v-0.1c0,0-0.1,0-0.1-0.1v-0.1c0-0.1,0-0.2,0-0.3c0-0.2,0-0.3,0-0.4c0,0-0.1,0-0.1-0.1c0,0,0-0.1,0-0.2v-0.1c0,0,0-0.1-0.1-0.1
		c0-0.1,0-0.1,0-0.1c-0.1-0.1-0.1-0.1-0.1-0.2v-0.1v-0.1c0.1-0.1,0-0.3-0.1-0.3c0,0,0-0.1,0-0.2v-0.1l0.2-0.2c0-0.1,0-0.2,0-0.6
		s0-0.5,0-0.6s0-0.1,0-0.2c0-0.1,0-0.1,0-0.1c0-0.1,0-0.2,0-0.3c0-0.2,0-0.3,0-0.4c0-0.1,0.1-0.2,0.1-0.2v-0.1v-0.1v-0.1l0.1-0.1
		c0,0,0-0.2,0-0.4s0-0.4,0-0.4c0-0.3,0-0.5,0-0.5s0.1,0,0.1-0.1c0.1-0.1,0.1-0.1,0.2-0.1c0-0.1,0-0.1,0-0.1v-0.1l0.1-0.1v-0.1
		c0-0.1,0-0.1,0-0.1C46,47,46,47,46,47c0-0.1,0-0.2,0-0.3c0-0.2,0-0.3,0.1-0.3h0.1h0.1c0-0.1,0-0.1-0.1-0.1c0,0-0.1,0-0.1-0.1
		l0.1-0.2c0,0,0.1-0.1,0.1-0.2c0.1-0.1,0.1-0.2,0.1-0.2s0,0,0-0.1s0,0,0-0.1c0.1-0.1,0.1-0.2,0.1-0.3c0.1,0,0.1-0.1,0.1-0.2
		c0-0.1,0.1-0.1,0.1-0.2c0-0.1,0-0.2,0.1-0.3s0.1-0.2,0.1-0.2v-0.1V44c0-0.1,0-0.1,0.1-0.2c0.1-0.1,0.1-0.2,0.1-0.2
		c0.1,0,0.2-0.1,0.3-0.3c0.1,0,0.2-0.1,0.2-0.3c0-0.1,0-0.1,0-0.2c0.1,0.1,0.2,0,0.3-0.1c0.1,0,0.1-0.1,0.1-0.1h0.1
		c0.1,0,0.1-0.1,0.2-0.1c0.1-0.1,0.1-0.1,0.2-0.1c0.1,0,0.3-0.1,0.5-0.3c0.1,0,0.2,0,0.2-0.1c0.1-0.1,0.2-0.1,0.2-0.1l0,0
		c0,0,0,0,0-0.1c0.1,0.1,0.2,0,0.4-0.1c0.1,0,0.1,0,0.3,0c0.1,0,0.2,0,0.3,0s0.1,0,0.3,0C51.1,42.1,51.2,42.1,51.3,42.1z M50.7,42.1
		c0.1,0,0.1,0,0.3,0c0.1,0,0.2,0,0.4,0c0,0,0.1,0,0.2,0.1c0,0,0.1,0,0.2,0c0.1,0,0.1,0,0.2,0s0.1,0,0.1,0s0,0,0.1,0s0,0,0.1,0h0.1
		c0.1,0.2,0.2,0.2,0.3,0.2l0.3,0.2c0,0.1,0,0.1,0.1,0.2c0.1,0.1,0.1,0.1,0.1,0.1c0.1,0,0.1,0,0.2,0.1c0.1,0.1,0.1,0.1,0.2,0.1h0.1
		h0.1C54,43,54.1,43,54.1,43s0.1,0,0.3,0c0,0,0.1,0,0.2,0c0.1,0,0.1,0,0.2,0c0,0,0.1,0,0.1,0.1l0.1,0.1c0,0,0.1,0,0.2,0
		c0.1,0,0.1,0,0.2,0c0,0,0.1,0,0.2,0.1s0.2,0.1,0.3,0.1c0,0,0,0.1,0.1,0.1s0.2,0,0.3,0.1s0.2,0.1,0.2,0.1h0.1
		c0.3,0.2,0.5,0.3,0.7,0.3H57c0,0.1-0.1,0.1-0.2,0v0.1c0,0.1,0.1,0.2,0.3,0.3s0.3,0.2,0.3,0.4c0,0.1,0.1,0.1,0.2,0.2
		c0.2,0.2,0.3,0.3,0.3,0.5c0.1,0.1,0.2,0.2,0.2,0.3s0.1,0.1,0.2,0.3c0.1,0.1,0.1,0.2,0.1,0.3c0.1,0.2,0.2,0.3,0.2,0.4
		c0,0,0,0.1,0.1,0.1c0.1,0.1,0.1,0.3,0.1,0.3l0.1,0.1c0,0.1,0,0.2,0.1,0.3c0.1,0.3,0.1,0.4,0.1,0.4c0,0.2,0.1,0.3,0.1,0.3
		s0,0.1,0.1,0.3c-0.1,0-0.1,0.1,0,0.2c0.1,0.1,0.1,0.2,0.1,0.2v0.1v0.1c0,0,0,0,0,0.1v0.1c0,0.1,0,0.2,0,0.3c0,0.2,0,0.3,0,0.4
		c0,0.1,0,0.1,0,0.1v0.1c0,0,0,0.1,0.1,0.2c0,0,0,0,0,0.1c0,0,0,0,0,0.1c0.1,0.1,0.1,0.4,0.1,1s0,0.9,0,1c0,0,0,0.1,0,0.2
		c0,0.1,0,0.2,0,0.3c0,0,0,0.1-0.1,0.2c-0.1,0.1-0.1,0.2,0,0.2c0,0,0,0.1,0,0.2c0,0.1,0,0.1,0,0.2c-0.1,0-0.2,0.1-0.2,0.1
		c0,0.3,0,0.4,0,0.5v0.1l-0.1,0.1v0.1c-0.1,0.2-0.1,0.3-0.1,0.3s0,0.1-0.1,0.1s-0.1,0-0.1,0s0,0,0,0.1l-0.1,0.1
		c0,0.1-0.1,0.1-0.1,0.2L58.4,56c0,0.1-0.1,0.3-0.2,0.4c-0.1,0.2-0.2,0.3-0.2,0.4c-0.1,0.1-0.2,0.3-0.2,0.5c0,0-0.1,0-0.2,0.1
		c0,0.1,0,0.1-0.1,0.2c-0.1,0.1-0.1,0.2-0.1,0.3c-0.1,0-0.2,0.1-0.2,0.2c-0.1,0.1-0.1,0.2-0.2,0.2c0,0-0.1,0.1-0.1,0.2
		c-0.1,0.1-0.1,0.2-0.1,0.2c0,0.1,0,0.1-0.1,0.2c-0.2,0.1-0.4,0.2-0.5,0.4c-0.1,0.1-0.2,0.2-0.2,0.2c-0.1,0.1-0.2,0.2-0.3,0.2
		c-0.2,0.1-0.3,0.2-0.3,0.3h-0.1c0,0,0,0-0.1,0l-0.1,0.1C55,60.2,55,60.2,55,60.2c-0.1,0-0.2,0-0.3,0.1c-0.1,0-0.2,0-0.3,0.1
		c-0.1,0-0.1,0-0.2,0c-0.1,0-0.1,0-0.2,0c0,0-0.1,0.1-0.2,0.2c-0.2,0-0.3,0-0.3,0c0,0.1-0.1,0.1-0.3,0.1c-0.1,0-0.2,0.1-0.3,0.2
		c-0.1,0-0.3,0-0.7,0s-0.6,0-0.8,0c-0.1,0-0.2,0-0.3,0s-0.3,0-0.3,0s-0.1-0.1-0.1-0.2c-0.1,0-0.1,0-0.2,0.1c0,0.1-0.1,0.1-0.1,0.1
		s0,0,0-0.1l0,0c0,0-0.1,0-0.1-0.1c-0.1,0-0.1-0.1-0.1-0.1c-0.2,0.1-0.3,0-0.5-0.1s-0.3-0.1-0.4-0.1v-0.1c0,0-0.1,0-0.2-0.1
		c-0.1-0.1-0.3-0.1-0.4-0.1V60l-0.1-0.1c-0.1-0.1-0.1-0.1-0.1-0.1c-0.1,0-0.1,0-0.1-0.1c0,0,0,0-0.1-0.1c0,0-0.1,0-0.1-0.1
		c0,0,0,0-0.1,0H48l0,0l0,0c0,0-0.1,0-0.1-0.1c0,0-0.1,0-0.1-0.1c0-0.3-0.1-0.3-0.1-0.3c-0.1,0-0.1,0-0.1,0
		c-0.1-0.1-0.1-0.1-0.2-0.3c-0.1-0.1-0.2-0.2-0.2-0.3H47c-0.3-0.3-0.4-0.5-0.5-0.7c0,0-0.1-0.1-0.3-0.3v-0.1l-0.1-0.1
		c0-0.2,0-0.2-0.1-0.3c0-0.3-0.1-0.5-0.2-0.8c0-0.1,0-0.2-0.1-0.3c0-0.1,0-0.1,0-0.1s0,0,0-0.1v-0.1v-0.1l-0.1-0.1c0,0,0-0.2,0-0.5
		v-0.1v-0.1c0,0-0.1,0-0.1-0.1v-0.1c0-0.1,0-0.2,0-0.3c0-0.2,0-0.3,0-0.4c0,0-0.1,0-0.1-0.1c0,0,0-0.1,0-0.2v-0.1c0,0,0-0.1-0.1-0.1
		c0-0.1,0-0.1,0-0.1c-0.1-0.1-0.1-0.1-0.1-0.2v-0.1v-0.1c0.1-0.1,0-0.3-0.1-0.3c0,0,0-0.1,0-0.2v-0.1l0.2-0.2c0-0.1,0-0.2,0-0.6
		s0-0.5,0-0.6s0-0.1,0-0.2c0-0.1,0-0.1,0-0.1c0-0.1,0-0.2,0-0.3c0-0.2,0-0.3,0-0.4c0-0.1,0.1-0.2,0.1-0.2v-0.1v-0.1v-0.1l0.1-0.1
		c0,0,0-0.2,0-0.4s0-0.4,0-0.4c0-0.3,0-0.5,0-0.5s0.1,0,0.1-0.1c0.1-0.1,0.1-0.1,0.2-0.1c0-0.1,0-0.1,0-0.1v-0.1l0.1-0.1v-0.1
		c0-0.1,0-0.1,0-0.1C46,47,46,47,46,47c0-0.1,0-0.2,0-0.3c0-0.2,0-0.3,0.1-0.3h0.1h0.1c0-0.1,0-0.1-0.1-0.1c0,0-0.1,0-0.1-0.1
		l0.1-0.2c0,0,0.1-0.1,0.1-0.2c0.1-0.1,0.1-0.2,0.1-0.2s0,0,0-0.1s0,0,0-0.1c0.1-0.1,0.1-0.2,0.1-0.3c0.1,0,0.1-0.1,0.1-0.2
		c0-0.1,0.1-0.1,0.1-0.2c0-0.1,0-0.2,0.1-0.3s0.1-0.2,0.1-0.2v-0.1V44c0-0.1,0-0.1,0.1-0.2c0.1-0.1,0.1-0.2,0.1-0.2
		c0.1,0,0.2-0.1,0.3-0.3c0.1,0,0.2-0.1,0.2-0.3c0-0.1,0-0.1,0-0.2c0.1,0.1,0.2,0,0.3-0.1c0.1,0,0.1-0.1,0.1-0.1h0.1
		c0.1,0,0.1-0.1,0.2-0.1c0.1-0.1,0.1-0.1,0.2-0.1c0.1,0,0.3-0.1,0.5-0.3c0.1,0,0.2,0,0.2-0.1c0.1-0.1,0.2-0.1,0.2-0.1l0,0
		c0,0,0,0,0-0.1c0.1,0.1,0.2,0,0.4-0.1c0.1,0,0.1,0,0.3,0C50.5,42.1,50.6,42.1,50.7,42.1z M51.2,44.7c-0.2,0.1-0.4,0.2-0.5,0.3
		c-0.2,0.1-0.3,0.2-0.5,0.3s-0.3,0.3-0.4,0.5l-0.1,0.1C49.6,46,49.6,46,49.6,46v0.1c0,0,0,0.1-0.1,0.1l-0.1,0.1c0,0-0.1,0.2-0.2,0.4
		c0,0.1,0,0.1-0.1,0.2c0,0.1,0,0.1,0,0.1c0,0.1,0,0.1,0,0.1s0,0.1-0.1,0.1v0.1c0,0.1,0,0.1,0,0.1v0.1c-0.1,0.1-0.1,0.2,0,0.2
		c-0.1,0.1-0.2,0.2-0.2,0.5c-0.1,0.1-0.2,0.3-0.1,0.6c-0.1,0.1-0.2,0.2-0.1,0.4c-0.2,0.3-0.2,0.5-0.1,0.6c0,0,0,0.1-0.1,0.1
		c0,0-0.1,0-0.1,0.1s0,0.2,0,0.3c-0.1,0.1-0.1,0.3,0,0.3C48,50.8,48,51,48,51.3v0.1c0,0.1,0,0.1,0,0.1s0,0.1-0.1,0.1l-0.1,0.1
		c0.1,0.1,0.1,0.1,0.1,0.3s0,0.2,0,0.4s0,0.3,0,0.4v0.1V53l0.1,0c0,0.1,0,0.2,0,0.4v0.1v0.1v0.1v0.1c0,0.1,0,0.2,0,0.3
		c0,0,0,0.1,0.1,0.1c0,0,0,0,0,0.1s0,0,0,0s0,0,0,0.1s0,0.2,0,0.2c0,0.1,0,0.1,0,0.2c0,0.1,0,0.1,0,0.1s0,0,0,0.1v0.1
		c0,0,0,0,0.1,0.1v0.1v0.1v0.1c0,0,0,0,0,0.1v0.1c0,0,0,0,0,0.1l0.1,0.1l0.1,0.1c-0.1,0.1-0.1,0.2,0.1,0.4v0.1c0,0,0,0.1,0.1,0.1
		s0.1,0.1,0.1,0.1l0.2,0.2c0.1,0.1,0.2,0.3,0.4,0.4c0.2,0.2,0.3,0.3,0.4,0.4c0.1,0,0.1,0,0.1,0c0.2,0.3,0.4,0.4,0.6,0.4
		c0.1,0.1,0.1,0.1,0.2,0.1c0,0,0.1,0,0.2,0c0.1,0,0.2,0,0.2,0l0.1,0.1l0.1,0.1h0.1h0.1c0,0,0,0,0.1,0h0.1c0.2,0,0.4,0,0.6,0
		c0,0,0.1,0,0.1-0.1c0.1-0.1,0.1-0.1,0.2-0.1c0.1,0,0.1,0,0.2,0c0,0,0.1,0,0.1-0.1l0.1-0.1c0,0,0.1,0,0.2,0c0.1-0.1,0.2-0.1,0.3-0.1
		c0.1-0.1,0.3-0.2,0.5-0.3c0.2-0.2,0.4-0.3,0.5-0.3c0,0,0-0.1,0.1-0.1l0.1-0.1c0,0,0,0,0-0.1s0.1-0.1,0.2-0.2
		c0.1-0.1,0.1-0.1,0.1-0.1s0.1-0.1,0.1-0.2c0.1-0.1,0.1-0.2,0.1-0.2s0-0.1,0.1-0.1s0.1-0.1,0.1-0.1c0.1-0.1,0.2-0.2,0.2-0.2v-0.1
		c0,0,0.1-0.2,0.3-0.4c0,0,0-0.1,0.1-0.1c0,0,0.1-0.2,0.1-0.4c0-0.1,0.1-0.1,0.2-0.2v-0.1c0,0,0,0,0-0.1c0,0,0-0.1,0.1-0.1v-0.1
		v-0.1c0.1-0.1,0.2-0.3,0.3-0.8v-0.3V53c0-0.1,0-0.1,0-0.1c0.1-0.1,0.1-0.1,0.1-0.2s0-0.1-0.1-0.1l-0.1-0.1c0-0.1,0-0.1,0.1-0.2
		c0.1-0.1,0.1-0.1,0.1-0.2c0-0.1,0-0.1,0-0.2c0-0.1-0.1-0.2,0-0.2v-0.1v-0.1l-0.1-0.1l-0.1-0.1c0.1-0.1,0.1-0.1,0.1-0.1v-0.1V51
		c0-0.1,0-0.1,0-0.3c0-0.1,0-0.2,0-0.2v-0.1v-0.1c0,0,0-0.1-0.1-0.1c0-0.1,0-0.1-0.1-0.1L56.3,50c0-0.1,0-0.1,0.1-0.2
		c0-0.1,0-0.1,0-0.1v-0.1v-0.1c0-0.1,0-0.1,0-0.1c0-0.1,0-0.1,0-0.1c-0.1,0-0.1-0.1-0.1-0.3s-0.1-0.3-0.1-0.3s0-0.1,0-0.2
		c0-0.1,0-0.2,0-0.2C56.1,48.2,56,48.1,56,48c-0.3-0.5-0.7-1-1.2-1.5h-0.2c0-0.1-0.1-0.2-0.3-0.3h-0.1L54,46.1L53.9,46
		c-0.1-0.1-0.2-0.1-0.2-0.1s-0.1,0-0.2,0s-0.1,0-0.1,0c-0.1-0.1-0.2-0.1-0.3-0.1s-0.2,0-0.3,0s-0.2,0-0.3,0
		c-0.1-0.2-0.3-0.3-0.4-0.2c-0.1-0.1-0.1-0.2,0-0.3c0,0,0-0.1,0.1-0.1l0.1-0.1c0-0.1,0-0.1-0.1-0.1s-0.1,0-0.1,0
		c0-0.1-0.1-0.2-0.1-0.2c-0.1,0-0.2,0-0.4,0C51.5,44.7,51.3,44.7,51.2,44.7z M52.1,44.7c-0.1,0-0.2,0-0.4,0s-0.4,0-0.5,0
		c-0.2,0.1-0.4,0.2-0.5,0.3c-0.2,0.1-0.3,0.2-0.5,0.3s-0.3,0.3-0.4,0.5l-0.1,0.1C49.6,46,49.6,46,49.6,46v0.1c0,0,0,0.1-0.1,0.1
		l-0.1,0.1c0,0-0.1,0.2-0.2,0.4c0,0.1,0,0.1-0.1,0.2c0,0.1,0,0.1,0,0.1c0,0.1,0,0.1,0,0.2c0,0,0,0.1-0.1,0.1v0.1c0,0.1,0,0.1,0,0.1
		v0.1c-0.1,0.1-0.1,0.2,0,0.2c-0.1,0.1-0.2,0.2-0.2,0.5c-0.1,0.1-0.2,0.3-0.1,0.6c-0.1,0.1-0.2,0.2-0.1,0.4
		c-0.2,0.3-0.2,0.5-0.1,0.6c0,0,0,0.1-0.1,0.1c0,0-0.1,0-0.1,0.1s0,0.2,0,0.3c-0.1,0.1-0.1,0.3,0,0.3C48,50.8,48,51,48,51.3v0.1
		c0,0.1,0,0.1,0,0.1s0,0.1-0.1,0.1l-0.1,0.1c0.1,0.1,0.1,0.1,0.1,0.3s0,0.2,0,0.4s0,0.3,0,0.4v0.1V53l0.1,0c0,0.1,0,0.2,0,0.4v0.1
		v0.1v0.1v0.1c0,0.1,0,0.2,0,0.3c0,0,0,0.1,0.1,0.1c0,0,0,0,0,0.1s0,0,0,0s0,0,0,0.1s0,0.2,0,0.2c0,0.1,0,0.1,0,0.2
		c0,0.1,0,0.1,0,0.1s0,0,0,0.1v0.1c0,0,0,0,0.1,0.1v0.1v0.1v0.1c0,0,0,0,0,0.1v0.1c0,0,0,0,0,0.1l0.1,0.1l0.1,0.1
		c-0.1,0.1-0.1,0.2,0.1,0.4v0.1c0,0,0,0.1,0.1,0.1s0.1,0.1,0.1,0.1l0.2,0.2c0.1,0.1,0.2,0.3,0.4,0.4c0.2,0.2,0.3,0.3,0.4,0.4
		c0.1,0,0.1,0,0.1,0c0.2,0.3,0.4,0.4,0.6,0.4c0.1,0.1,0.1,0.1,0.2,0.1c0,0,0.1,0,0.2,0c0.1,0,0.2,0,0.2,0l0.1,0.1l0.1,0.1h0.1h0.1
		c0,0,0,0,0.1,0h0.1c0.2,0,0.4,0,0.6,0c0,0,0.1,0,0.1-0.1c0.1-0.1,0.1-0.1,0.2-0.1c0.1,0,0.1,0,0.2,0c0,0,0.1,0,0.1-0.1l0.1-0.1
		c0,0,0.1,0,0.2,0c0.1-0.1,0.2-0.1,0.3-0.1c0.1-0.1,0.3-0.2,0.5-0.3c0.2-0.2,0.4-0.3,0.5-0.3c0,0,0-0.1,0.1-0.1l0.1-0.1
		c0,0,0,0,0-0.1s0.1-0.1,0.2-0.2c0.1-0.1,0.1-0.1,0.1-0.1s0.1-0.1,0.1-0.2c0.1-0.1,0.1-0.2,0.1-0.2s0-0.1,0.1-0.1s0.1-0.1,0.1-0.1
		c0.1-0.1,0.2-0.2,0.2-0.2v-0.1c0,0,0.1-0.2,0.3-0.4c0,0,0-0.1,0.1-0.1c0,0,0.1-0.2,0.1-0.4c0-0.1,0.1-0.1,0.2-0.2v-0.1
		c0,0,0,0,0-0.1c0,0,0-0.1,0.1-0.1v-0.1v-0.1c0.1-0.1,0.2-0.3,0.3-0.8v-0.3V53c0-0.1,0-0.1,0-0.1c0.1-0.1,0.1-0.1,0.1-0.2
		s0-0.1-0.1-0.1l-0.1-0.1c0-0.1,0-0.1,0.1-0.2c0.1-0.1,0.1-0.1,0.1-0.2c0-0.1,0-0.1,0-0.2c0-0.1-0.1-0.2,0-0.2v-0.1v-0.1l-0.1-0.1
		l-0.1-0.1c0.1-0.1,0.1-0.1,0.1-0.1v-0.1V51c0-0.1,0-0.1,0-0.3c0-0.1,0-0.2,0-0.2v-0.1v-0.1c0,0,0-0.1-0.1-0.1c0-0.1,0-0.1-0.1-0.1
		L56.3,50c0-0.1,0-0.1,0.1-0.2c0-0.1,0-0.1,0-0.1v-0.1v-0.1c0-0.1,0-0.1,0-0.1c0-0.1,0-0.1,0-0.1c-0.1,0-0.1-0.1-0.1-0.3
		s-0.1-0.3-0.1-0.3s0-0.1,0-0.2c0-0.1,0-0.2,0-0.2C56.1,48.2,56,48.1,56,48c-0.3-0.5-0.7-1-1.2-1.5h-0.2c0-0.1-0.1-0.2-0.3-0.3h-0.1
		L54,46.1L53.9,46c-0.1-0.1-0.2-0.1-0.2-0.1s-0.1,0-0.2,0s-0.1,0-0.1,0c-0.1-0.1-0.2-0.1-0.3-0.1s-0.2,0-0.3,0s-0.2,0-0.3,0
		c-0.1-0.2-0.3-0.3-0.4-0.2c-0.1-0.1-0.1-0.2,0-0.3c0,0,0-0.1,0.1-0.1l0.1-0.1c0-0.1,0-0.1-0.1-0.1s-0.1,0-0.1,0
		C52.2,44.7,52.1,44.7,52.1,44.7z"/>
	<path fill="#2B5799" d="M71.4,43.3c0,0,0,0.1,0,0.2c0.2,0.1,0.4,0.3,0.6,0.4h0.2c0,0.1,0.1,0.2,0.2,0.3c0,0.1,0,0.2,0.1,0.2
		s0.1,0,0.1,0c0,0.3,0,0.4,0,0.5c0.1,0.1,0.1,0.2,0.1,0.3s0,0.2,0,0.3s0,0.2,0,0.4c-0.2,0.1-0.3,0.2-0.3,0.4c-0.1,0-0.1,0-0.2,0
		c-0.1,0.1-0.1,0.1-0.1,0.1H72h-0.1c0,0,0,0-0.1,0.1s-0.1,0-0.1,0s0,0-0.1,0s-0.1,0.1-0.2,0.3c0,0-0.1,0-0.2-0.1c-0.1,0-0.1,0-0.1,0
		H71c0-0.1,0-0.2-0.2-0.3h-0.1h-0.1l-0.1-0.1c-0.1,0-0.1,0-0.1,0s0,0-0.1,0v-0.1c-0.1-0.1-0.2-0.2-0.3-0.1c0,0-0.1,0-0.1,0.1
		c-0.1,0-0.2,0-0.3,0h-0.1h-0.1h-0.1h-0.1c0,0-0.1,0-0.2-0.1c0,0-0.1,0-0.1,0.1c-0.1,0-0.1,0-0.1,0h-0.1c-0.1,0-0.1,0-0.1,0h-0.1
		h-0.1h-0.1h-0.1h-0.1c-0.1,0-0.2,0-0.2,0c-0.3,0-0.5,0.1-0.5,0.1c0,0.1,0,0.1,0,0.1h-0.1l-0.1-0.1c0,0-0.1,0-0.3,0.1c0,0,0,0-0.1,0
		c0,0,0,0-0.1,0c-0.1,0.1-0.2,0.1-0.4,0.1c-0.2,0-0.4,0.1-0.5,0.1v0.1c-0.1,0-0.1,0-0.1,0s0,0-0.1,0c0,0,0,0.1-0.1,0.1s-0.1,0-0.1,0
		s-0.1,0-0.2,0.1h-0.1c-0.1,0-0.1,0-0.2,0V47v0.1c0,0.1,0.1,0.2,0.1,0.2s0.1,0,0.2,0c0,0.1,0.1,0.1,0.3,0.2h0.1h0.1c0,0,0,0,0,0.1
		s0,0.1,0,0.1c0.1-0.1,0.2,0,0.3,0.1c0.1,0.1,0.2,0.1,0.3,0.1c0,0,0.1,0.1,0.2,0.1s0.2,0,0.2,0.1c0,0,0.1,0,0.1,0.1h0.1
		c0,0,0.1,0,0.1,0.1c0,0,0.1,0,0.1,0.1c0.3,0.1,0.5,0.1,0.5,0.2c0.1-0.1,0.2,0,0.3,0c0.1,0,0.1,0.1,0.1,0.1c0.1,0,0.1,0,0.2,0
		s0.2,0,0.2,0s0,0,0.1,0c0,0,0,0,0.1,0h0.1c0,0,0.1,0,0.1,0.1s0.1,0.1,0.1,0.1H69h0.1c0.2,0.1,0.4,0.2,0.5,0.2l0.1-0.1
		c0.1,0,0.2,0,0.2,0s0,0,0,0.1c0.1,0.1,0.2,0.1,0.2,0.1h0.1h0.1c0,0.1,0,0.2,0.1,0.2c0,0,0,0,0.1,0c0,0,0,0,0.1-0.1
		c0.2,0,0.3,0,0.3,0c0,0.1,0.1,0.1,0.2,0.2c0.1,0,0.2,0.1,0.2,0.1c0.2-0.1,0.4,0,0.5,0.1h0.1H72c0,0,0.1,0,0.1,0.1s0.1,0.1,0.1,0.1
		s0.1,0,0.1-0.1c0.1-0.1,0.1-0.1,0.2,0c0,0.1,0,0.2,0.1,0.2s0.2,0,0.2,0c0.1,0.1,0.1,0.1,0.1,0.1H73h0.1c0,0,0,0,0,0.1
		c0,0,0.1,0.1,0.2,0.1s0.2,0.1,0.3,0.2c0.1,0,0.1,0,0.2,0c0.1,0.1,0.1,0.1,0.2,0.1c0.1,0.2,0.2,0.3,0.2,0.3h0.1h0.1V51
		c0.1,0.1,0.2,0.2,0.3,0.3c0.2,0.2,0.3,0.3,0.4,0.3c0,0.1,0.1,0.1,0.1,0.2c0,0.1,0,0.1,0,0.2c0.1,0.1,0.2,0.3,0.3,0.5
		c0,0.1,0.1,0.1,0.1,0.2c0.1,0.1,0.1,0.2,0.1,0.2V53v0.1v0.1v0.1v0.1v0.1v0.1v0.1c0,0,0,0.1,0,0.3s0,0.3,0.1,0.3v0.1v0.1
		c0.1,0,0.1,0.1,0,0.4c-0.1,0.2-0.1,0.3-0.1,0.4v0.1c0,0.1,0,0.1-0.1,0.2c-0.1,0.1-0.1,0.1-0.1,0.1c0,0.1,0,0.2-0.1,0.3v0.1
		c-0.2,0.2-0.3,0.3-0.3,0.4c-0.1,0.2-0.3,0.3-0.4,0.4c0,0.2-0.1,0.3-0.2,0.4c-0.1,0.1-0.2,0.2-0.3,0.3c0,0.1,0,0.1-0.1,0.2v0.1H74
		h-0.1c-0.1,0-0.1,0.1,0,0.2c0,0-0.2,0.1-0.4,0.3v0.1c-0.2,0.1-0.3,0.2-0.3,0.3c-0.1,0-0.1,0-0.2,0.2c-0.1,0-0.2,0.1-0.3,0.2
		c-0.1,0.1-0.2,0.1-0.3,0.2v0.1c0,0.1,0,0.1,0,0.1s-0.1,0-0.1-0.1c0,0,0-0.1-0.1-0.1c0,0-0.1,0-0.2,0.1s-0.2,0.1-0.2,0.1
		c-0.1,0-0.1,0.1-0.1,0.1s-0.1,0-0.2,0s-0.1,0-0.2,0c-0.1,0.1-0.2,0.1-0.3,0c-0.1,0.1-0.2,0.2-0.2,0.2c-0.1,0.1-0.2,0.2-0.2,0.2
		c-0.1,0-0.1,0-0.1,0c-0.1,0-0.1,0-0.1,0.1s-0.1,0.1-0.1,0.1c-0.1,0-0.2,0-0.3,0.1c-0.1,0.1-0.2,0.1-0.2,0.1c-0.1,0-0.1,0-0.2,0
		s-0.1,0-0.1,0c-0.1,0-0.1,0-0.2,0.1c-0.1,0-0.1,0.1-0.2,0.1H69c-0.1,0-0.1,0-0.1,0s0,0.1-0.1,0.1c0,0-0.2,0-0.4,0
		c0,0-0.1,0-0.1-0.1c-0.2-0.1-0.3-0.1-0.4,0c-0.1,0-0.1,0-0.1,0c-0.1,0.1-0.1,0.1-0.1,0.1c-0.1-0.1-0.2-0.1-0.4-0.1
		c-0.1,0-0.2,0-0.2,0C67,60.6,67,60.6,67,60.6s0,0-0.1,0.1c-0.1,0-0.1,0-0.1,0v-0.1v-0.1c-0.1,0-0.1,0-0.2,0s-0.2,0-0.2,0
		s-0.1,0-0.2-0.1c0,0-0.1,0-0.2,0v-0.2c0,0-0.1,0-0.2,0l0,0v-0.1c-0.1,0-0.1,0-0.2-0.1s-0.1-0.1-0.1-0.2c-0.1-0.1-0.2-0.1-0.3-0.2
		c0-0.1,0-0.1,0-0.1c-0.1-0.1-0.1-0.1-0.2-0.2c-0.1-0.1-0.2-0.1-0.2-0.1h-0.1c0,0,0,0-0.1,0c0-0.1-0.1-0.3-0.1-0.3
		c-0.1-0.1-0.2-0.1-0.3-0.2v-0.1v-0.1c0,0-0.1,0-0.1-0.1S64,58.3,64,58.3c-0.1-0.1-0.2-0.1-0.2-0.2s0-0.1,0-0.1v-0.1v-0.1
		c0,0,0-0.1-0.1-0.1v-0.1v-0.1c0-0.1,0-0.1-0.1-0.2c0-0.1-0.1-0.1-0.1-0.1c0-0.1,0-0.1,0.1-0.2c0-0.1,0.1-0.1,0.1-0.2c0,0,0,0,0.1,0
		c0,0,0,0,0.1,0c0,0,0-0.2-0.1-0.4c0.1,0,0.2,0,0.2,0c0.1-0.1,0.1-0.1,0-0.3c0,0,0.1-0.1,0.1-0.2c0.1-0.1,0.1-0.2,0.1-0.2h0.1v0.1
		c0.1,0,0.1-0.1,0.1-0.1c0-0.1,0-0.1,0-0.1c0-0.1,0.1-0.1,0.2-0.1s0.1,0,0.1,0s0,0,0.1-0.1c0,0,0.1-0.1,0.1,0l0.1,0.1h0.1h0.1
		c0.1,0.1,0.2,0.2,0.2,0.3c0.1,0,0.1,0,0.1,0h0.1c0.1,0.1,0.2,0.1,0.2,0.1c0.1,0,0.1,0.1,0.1,0.2c0.1,0,0.1,0.1,0.1,0.1
		c0,0.1,0.1,0.1,0.1,0.2c0.1,0.1,0.1,0.2,0.1,0.2c0.1,0,0.2,0.1,0.3,0.3c0.1,0.2,0.2,0.3,0.3,0.3v0.1v0.1l0.3,0.2h0.1
		c0.1,0,0.1,0,0.1,0s0,0.1,0.1,0.1c0,0,0,0,0.1,0s0.1,0,0.3,0c0.1,0,0.2,0,0.3,0c0,0,0.1,0,0.1,0.1l0.1,0.1c0.1,0,0.2,0,0.3,0
		c0.1-0.1,0.1-0.1,0.1-0.1s0,0,0.1,0s0.1,0,0.1,0s0.1,0,0.1-0.1c0.1,0,0.1,0,0.2,0h0.1c0.1,0,0.1,0,0.1,0h0.1l0,0c0,0,0,0,0.1,0h0.1
		c0,0,0,0,0.1-0.1h0.1c0.1,0,0.1,0,0.1-0.1c0,0,0,0,0.1,0c0,0,0,0,0.1,0c0,0,0.1,0,0.2,0s0.1-0.1,0.1-0.2c0,0,0.1,0,0.1,0.1
		c0,0,0.1,0,0.2-0.1s0.2-0.1,0.3-0.1c0.1-0.1,0.2-0.3,0.5-0.5s0.5-0.3,0.5-0.5c0.1-0.1,0.2-0.1,0.2-0.3c0.1,0,0.1-0.1,0.2-0.2
		c0.1-0.1,0.1-0.2,0.1-0.2v-0.1c0,0,0-0.1,0.1-0.1V55c0.1-0.1,0.1-0.1,0.2-0.1c0-0.1,0-0.2,0-0.4s0-0.3,0-0.4c0,0,0-0.1-0.1-0.1
		c0,0,0,0,0-0.1c0,0,0-0.1-0.1-0.2c0-0.1-0.1-0.1-0.2-0.1s-0.1-0.1-0.2-0.1c-0.1,0.1-0.2,0.1-0.2,0s0-0.1,0-0.1h-0.2c0,0,0,0,0-0.1
		v-0.1c0,0,0,0-0.1,0s-0.1,0-0.1,0s0,0-0.1-0.1L71.5,53c0,0-0.1,0-0.2,0s-0.2,0-0.3,0c-0.2-0.1-0.3-0.1-0.3,0v-0.1
		c0,0-0.1-0.1-0.4-0.1c-0.2-0.1-0.3-0.1-0.4-0.1c-0.2-0.2-0.4-0.3-0.8-0.3l0,0l0,0v-0.1c-0.1,0-0.1,0-0.2-0.1s-0.1-0.1-0.2-0.1h-0.1
		c0,0,0,0.1-0.1,0.1c0,0,0-0.1-0.1-0.1s-0.1,0-0.2,0c-0.1-0.1-0.2-0.2-0.3,0c-0.1-0.1-0.1-0.2-0.1-0.2c-0.2,0.1-0.3,0.1-0.3,0
		c-0.1-0.1-0.2-0.1-0.5,0c0-0.1-0.1-0.2-0.1-0.2c-0.2,0-0.3,0-0.4-0.1h-0.1h-0.1c0,0,0,0-0.1,0l0,0c0,0,0,0-0.1,0s0,0-0.1,0
		c0,0,0,0-0.1,0c-0.2-0.1-0.4-0.1-0.5,0v-0.1c0,0,0-0.1-0.1-0.1h-0.1c0,0-0.1,0-0.1-0.1c0,0-0.1,0-0.1-0.1c0,0-0.1,0-0.2-0.1
		c-0.1,0-0.2-0.1-0.3-0.1c-0.1-0.1-0.1-0.1-0.1-0.1h-0.1h-0.1c0-0.1,0-0.2,0-0.2h-0.1H64l0,0c0,0,0,0,0-0.1l0,0c0,0,0,0,0-0.1h-0.1
		h-0.1v-0.1l0,0c-0.1-0.1-0.1-0.1-0.2-0.1c-0.1-0.1-0.1-0.1-0.2-0.2h-0.1h-0.1c0-0.1-0.1-0.1-0.2-0.2c0-0.1-0.1-0.2-0.2-0.3
		c-0.1-0.1-0.2-0.2-0.2-0.3h-0.1l-0.1-0.1c0-0.1,0-0.1,0-0.1c-0.2-0.2-0.3-0.4-0.3-0.5c-0.1,0-0.1,0-0.2-0.1
		c-0.1-0.1-0.1-0.1-0.1-0.1s0-0.1,0-0.3c-0.2-0.1-0.3-0.3-0.4-0.5c0,0,0,0,0-0.1s0-0.1,0-0.2c0,0,0-0.1-0.1-0.1c0,0-0.1,0-0.1-0.1
		s0-0.1,0-0.1s0-0.1,0-0.2c0-0.1,0-0.2,0-0.2v-0.1c0-0.1,0-0.1,0-0.1s0-0.1,0.1-0.2c0-0.1,0-0.1,0-0.2s0-0.1,0-0.1
		c0.1-0.1,0.2-0.2,0.4-0.4c0,0,0.1,0,0.2,0c0,0,0,0,0-0.1v-0.1c0,0,0.1,0,0.3-0.1s0.3-0.1,0.4-0.2c0.1,0,0.1,0,0.2,0
		c0,0,0.1-0.1,0.1-0.2c0,0,0,0,0.1,0c0,0,0.1,0,0.1-0.1l0.1-0.1c0.1,0,0.1,0,0.2,0c0.1,0,0.2-0.1,0.2-0.3c0.2,0,0.3,0,0.3-0.1
		c0.1,0,0.2,0,0.3,0s0.2,0,0.2,0c0.1,0,0.1,0,0.2-0.1s0.1-0.1,0.2-0.1s0.1,0,0.2,0h0.1c0.1,0,0.1-0.1,0.1-0.1s0.1,0,0.2,0
		c0,0,0.1,0,0.1-0.1l0.1-0.1c0.1,0,0.1,0,0.1,0s0.1-0.1,0.2-0.2c0.1,0,0.2,0,0.2-0.1v0.1c0.1-0.1,0.2-0.1,0.4-0.1s0.3,0,0.4,0H67
		l0.1-0.1c0.1,0,0.1,0,0.1,0s0.1,0,0.1-0.1l0.1-0.1c0.1,0,0.3,0,0.6,0s0.6,0,0.7,0s0.1,0,0.2,0s0.2,0,0.2,0s0.1,0,0.2,0s0.1,0,0.2,0
		c0,0,0.1,0,0.2,0.1c0.3,0,0.5,0,0.5,0.1c0.1,0,0.2,0,0.3,0.1C71.3,43.3,71.4,43.3,71.4,43.3z M70.8,43.1c0.1,0,0.2,0,0.3,0.1
		c0.1,0.1,0.2,0.1,0.3,0.1c0,0,0,0.1,0,0.2c0.2,0.1,0.4,0.3,0.6,0.4h0.2c0,0.1,0.1,0.2,0.2,0.3c0,0.1,0,0.2,0.1,0.2s0.1,0,0.1,0
		c0,0.3,0,0.4,0,0.5c0.1,0.1,0.1,0.2,0.1,0.3s0,0.2,0,0.3s0,0.2,0,0.4c-0.2,0.1-0.3,0.2-0.3,0.4c-0.1,0-0.1,0-0.2,0
		c-0.1,0.1-0.1,0.1-0.1,0.1H72h-0.1c0,0,0,0-0.1,0.1s-0.1,0-0.1,0s0,0-0.1,0s-0.1,0.1-0.2,0.3c0,0-0.1,0-0.2-0.1c-0.1,0-0.1,0-0.1,0
		H71c0-0.1,0-0.2-0.2-0.3h-0.1h-0.1l-0.1-0.1c-0.1,0-0.1,0-0.1,0s0,0-0.1,0v-0.1c-0.1-0.1-0.2-0.2-0.3-0.1c0,0-0.1,0-0.1,0.1
		c-0.1,0-0.2,0-0.3,0h-0.1h-0.1h-0.1h-0.1c0,0-0.1,0-0.2-0.1c0,0-0.1,0-0.1,0.1c-0.1,0-0.1,0-0.1,0h-0.1c-0.1,0-0.1,0-0.1,0h-0.1
		h-0.1h-0.1h-0.1h-0.1c-0.1,0-0.2,0-0.2,0c-0.3,0-0.5,0.1-0.5,0.1v0.1v0.1h-0.1l-0.1-0.1c0,0-0.1,0-0.3,0.1c0,0,0,0-0.1,0
		c0,0,0,0-0.1,0c-0.1,0.1-0.2,0.1-0.4,0.1c-0.2,0-0.4,0.1-0.5,0.1v0.1c-0.1,0-0.1,0-0.1,0s0,0-0.1,0c0,0,0,0.1-0.1,0.1s-0.1,0-0.1,0
		s-0.1,0-0.2,0.1h-0.1c-0.1,0-0.1,0-0.2,0v0.1v0.1c0,0.1,0.1,0.2,0.1,0.2s0.1,0,0.2,0c0,0.1,0.1,0.1,0.3,0.2h0.1h0.1c0,0,0,0,0,0.1
		s0,0.1,0,0.1c0.1-0.1,0.2,0,0.3,0.1c0.1,0.1,0.2,0.1,0.3,0.1c0,0,0.1,0.1,0.2,0.1s0.2,0,0.2,0.1c0,0,0.1,0,0.1,0.1h0.1
		c0,0,0.1,0,0.1,0.1c0,0,0.1,0,0.1,0.1c0.3,0.1,0.5,0.1,0.5,0.2c0.1-0.1,0.2,0,0.3,0c0.1,0,0.1,0.1,0.1,0.1c0.1,0,0.1,0,0.2,0
		s0.2,0,0.2,0s0,0,0.1,0c0,0,0,0,0.1,0h0.1c0,0,0.1,0,0.1,0.1s0.1,0.1,0.1,0.1H69h0.1c0.2,0.1,0.4,0.2,0.5,0.2l0.1-0.1
		c0.1,0,0.2,0,0.2,0s0,0,0,0.1c0.1,0.1,0.2,0.1,0.2,0.1h0.1h0.1c0,0.1,0,0.2,0.1,0.2c0,0,0,0,0.1,0c0,0,0,0,0.1-0.1
		c0.2,0,0.3,0,0.3,0c0,0.1,0.1,0.1,0.2,0.2c0.1,0,0.2,0.1,0.2,0.1c0.2-0.1,0.4,0,0.5,0.1h0.1H72c0,0,0.1,0,0.1,0.1s0.1,0.1,0.1,0.1
		s0.1,0,0.1-0.1c0.1-0.1,0.1-0.1,0.2,0c0,0.1,0,0.2,0.1,0.2s0.2,0,0.2,0c0.1,0.1,0.1,0.1,0.1,0.1H73h0.1c0,0,0,0,0,0.1
		c0,0,0.1,0.1,0.2,0.1s0.2,0.1,0.3,0.2c0.1,0,0.1,0,0.2,0c0.1,0.1,0.1,0.1,0.2,0.1c0.1,0.2,0.2,0.3,0.2,0.3h0.1h0.1v0.1
		c0.1,0.1,0.2,0.2,0.3,0.3c0.2,0.2,0.3,0.3,0.4,0.3c0,0.1,0.1,0.1,0.1,0.2c0,0.1,0,0.1,0,0.2c0.1,0.1,0.2,0.3,0.3,0.5
		c0,0.1,0.1,0.1,0.1,0.2c0.1,0.1,0.1,0.2,0.1,0.2v0.1v0.1v0.1v0.1v0.1v0.1c0,0,0,0,0,0.1v0.1c0,0,0,0.1,0,0.3s0,0.3,0.1,0.3v0.1v0.1
		c0.1,0,0.1,0.1,0,0.4c-0.1,0.2-0.1,0.3-0.1,0.4v0.1c0,0.1,0,0.1-0.1,0.2c-0.1,0.1-0.1,0.1-0.1,0.1c0,0.1,0,0.2-0.1,0.3v0.1
		c-0.2,0.2-0.3,0.3-0.3,0.4c-0.1,0.2-0.3,0.3-0.4,0.4c0,0.2-0.1,0.3-0.2,0.4c-0.1,0.1-0.2,0.2-0.3,0.3c0,0.1,0,0.1-0.1,0.2V58H74
		c0,0-0.1,0-0.1-0.1c-0.1,0-0.1,0.1,0,0.2c0,0-0.2,0.1-0.4,0.3v0.1c-0.2,0.1-0.3,0.2-0.3,0.2c-0.1,0-0.1,0.1-0.2,0.2
		c-0.1,0-0.2,0.1-0.3,0.2c-0.1,0.1-0.2,0.1-0.3,0.2v0.1c0,0.1,0,0.1,0,0.1s-0.1,0-0.1-0.1c0,0,0-0.1-0.1-0.1c0,0-0.1,0-0.2,0.1
		s-0.2,0.1-0.2,0.1c-0.1,0-0.1,0.1-0.1,0.1s-0.1,0-0.2,0s-0.1,0-0.2,0c-0.1,0.1-0.2,0.1-0.3,0c-0.1,0.1-0.2,0.2-0.2,0.2
		c-0.1,0.1-0.2,0.2-0.2,0.2c-0.1,0-0.1,0-0.1,0c-0.1,0-0.1,0-0.1,0.1s-0.1,0.1-0.1,0.1c-0.1,0-0.2,0-0.3,0.1c-0.1,0-0.2,0.1-0.2,0.1
		c-0.1,0-0.1,0-0.2,0s-0.1,0-0.1,0c-0.1,0-0.1,0-0.2,0.1c-0.1,0-0.1,0.1-0.2,0.1H69c-0.1,0-0.1,0-0.1,0s0,0.1-0.1,0.1
		c0,0-0.2,0-0.4,0c0,0-0.1,0-0.1-0.1c-0.2-0.1-0.3-0.1-0.4,0c-0.1,0-0.1,0-0.1,0c-0.1,0.1-0.1,0.1-0.1,0.1c-0.1-0.1-0.2-0.1-0.4-0.1
		c-0.1,0-0.2,0-0.2,0C67,60.5,67,60.5,67,60.5s0,0-0.1,0.1c-0.1,0-0.1,0-0.1,0v-0.1v-0.1c-0.1,0-0.1,0-0.2,0s-0.2,0-0.2,0
		s-0.1,0-0.2-0.1c0,0-0.1,0-0.2,0v-0.2c0,0-0.1,0-0.2,0l0,0V60c-0.1,0-0.1,0-0.2-0.1s-0.1-0.1-0.1-0.2c-0.1-0.1-0.2-0.1-0.3-0.2
		c0-0.1,0-0.1,0-0.1c-0.1-0.1-0.1-0.1-0.2-0.2c-0.1-0.1-0.2-0.1-0.2-0.1h-0.1c0,0,0,0-0.1,0c0-0.1-0.1-0.3-0.1-0.3
		c-0.1-0.1-0.2-0.1-0.3-0.2v-0.1v-0.1c0,0-0.1,0-0.1-0.1S64,58.2,64,58.2c-0.1-0.1-0.2-0.1-0.2-0.2s0-0.1,0-0.1v-0.1v-0.1
		c0,0,0-0.1-0.1-0.1v-0.1v-0.1c0-0.1,0-0.1-0.1-0.2c0-0.1-0.1-0.1-0.1-0.1c0-0.1,0-0.1,0.1-0.2c0-0.1,0.1-0.1,0.1-0.2c0,0,0,0,0.1,0
		c0,0,0,0,0.1,0c0,0,0-0.2-0.1-0.4c0.1,0,0.2,0,0.2,0c0.1-0.1,0.1-0.1,0-0.3c0,0,0.1-0.1,0.1-0.2c0.1-0.1,0.1-0.2,0.1-0.2
		s0.1,0,0.1,0.1c0.1,0,0.1,0,0.1-0.1s0-0.1,0-0.1c0-0.1,0.1-0.1,0.2-0.1s0.1,0,0.1,0s0,0,0.1-0.1c0,0,0.1-0.1,0.1,0l0.1,0.1h0.1h0.1
		c0.1,0.1,0.2,0.2,0.2,0.3c0.1,0,0.1,0,0.1,0h0.1c0.1,0.1,0.2,0.1,0.2,0.1c0.1,0,0.1,0.1,0.1,0.2c0.1,0,0.1,0.1,0.1,0.1
		c0,0.1,0.1,0.1,0.1,0.2c0.1,0.1,0.1,0.2,0.1,0.2c0.1,0,0.2,0.1,0.3,0.3c0.1,0.2,0.2,0.3,0.3,0.3v0.1v0.1l0.3,0.2h0.1
		c0.1,0,0.1,0,0.1,0s0,0.1,0.1,0.1c0,0,0,0,0.1,0s0.1,0,0.3,0c0.1,0,0.2,0,0.3,0c0,0,0.1,0,0.1,0.1l0.1,0.1c0.1,0,0.2,0,0.3,0
		c0.1-0.1,0.1-0.1,0.1-0.1s0,0,0.1,0s0.1,0,0.1,0s0.1,0,0.1-0.1c0.1,0,0.1,0,0.2,0h0.1c0.1,0,0.1,0,0.1,0h0.1l0,0c0,0,0,0,0.1,0h0.1
		c0,0,0,0,0.1-0.1h0.1c0.1,0,0.1,0,0.1-0.1c0,0,0,0,0.1,0c0,0,0,0,0.1,0c0,0,0.1,0,0.2,0s0.1-0.1,0.1-0.2c0,0,0.1,0,0.1,0.1
		c0,0,0.1,0,0.2-0.1s0.2-0.1,0.3-0.1c0.1-0.1,0.2-0.3,0.5-0.5s0.5-0.3,0.5-0.5c0.1-0.1,0.2-0.1,0.2-0.3c0.1,0,0.1-0.1,0.2-0.2
		c0.1-0.1,0.1-0.2,0.1-0.2v-0.1c0,0,0-0.1,0.1-0.1v-0.3c0.1-0.1,0.1-0.1,0.2-0.1c0-0.1,0-0.2,0-0.4s0-0.3,0-0.4c0,0,0-0.1-0.1-0.1
		c0,0,0,0,0-0.1c0,0,0-0.1-0.1-0.2c0-0.1-0.1-0.1-0.2-0.1s-0.1-0.1-0.2-0.1c-0.1,0.1-0.2,0.1-0.2,0s0-0.1,0-0.1h-0.2c0,0,0,0,0-0.1
		v-0.1c0,0,0,0-0.1,0s-0.1,0-0.1,0s0,0-0.1-0.1l-0.1-0.1c0,0-0.1,0-0.2,0s-0.2,0-0.3,0c-0.2-0.1-0.3-0.1-0.3,0v-0.1
		c0,0-0.1-0.1-0.4-0.1c-0.2-0.1-0.3-0.1-0.4-0.1c-0.2-0.2-0.4-0.3-0.8-0.3l0,0l0,0v-0.1c-0.1,0-0.1,0-0.2-0.1S68.8,52,68.7,52
		l-0.1,0.1c0,0,0,0.1-0.1,0.1c0,0,0-0.1-0.1-0.1S68.3,52,68.2,52c-0.1-0.1-0.2-0.1-0.3,0c-0.1-0.1-0.1-0.2-0.1-0.2
		c-0.2,0.1-0.3,0.1-0.3,0c-0.1-0.1-0.2-0.1-0.5,0c0-0.1-0.1-0.2-0.1-0.2c-0.2,0-0.3,0-0.4-0.1c0,0-0.1,0-0.2,0c0,0,0,0-0.1,0l0,0
		c0,0,0,0-0.1,0s0,0-0.1,0c0,0,0,0-0.1,0c-0.2-0.1-0.4-0.1-0.5,0v-0.1c0,0,0-0.1-0.1-0.1h-0.1c0,0-0.1,0-0.1-0.1c0,0-0.1,0-0.1-0.1
		c0,0-0.1,0-0.2-0.1c-0.1,0-0.2-0.1-0.3-0.1c-0.1-0.1-0.1-0.1-0.1-0.1h-0.1h-0.1c0-0.1,0-0.2,0-0.2h-0.1H64l0,0c0,0,0,0,0-0.1l0,0
		c0,0,0,0,0-0.1h-0.1h-0.1v-0.1l0,0c-0.1-0.1-0.1-0.1-0.2-0.1c-0.1-0.1-0.1-0.1-0.2-0.2h-0.1h-0.1c0-0.1-0.1-0.1-0.2-0.2
		c0-0.1-0.1-0.2-0.2-0.3c-0.1-0.1-0.2-0.2-0.2-0.3h-0.1l-0.1-0.1c0-0.1,0-0.1,0-0.1c-0.2-0.2-0.3-0.4-0.3-0.5c-0.1,0-0.1,0-0.2-0.1
		c-0.1-0.1-0.1-0.1-0.1-0.1s0-0.1,0-0.3c-0.2-0.1-0.3-0.3-0.4-0.5c0,0,0,0,0-0.1s0-0.1,0-0.2c0,0,0-0.1-0.1-0.1c0,0-0.1,0-0.1-0.1
		s0-0.1,0-0.1s0-0.1,0-0.2c0-0.1,0-0.2,0-0.2v-0.1c0-0.1,0-0.1,0-0.1s0-0.1,0.1-0.2c0-0.1,0-0.1,0-0.2s0-0.1,0-0.1
		c0.1-0.1,0.2-0.2,0.4-0.4c0,0,0.1,0,0.2,0c0,0,0,0,0-0.1v-0.1c0,0,0.1,0,0.3-0.1s0.3-0.1,0.4-0.2c0.1,0,0.1,0,0.2,0
		c0,0,0.1-0.1,0.1-0.2c0,0,0,0,0.1,0c0,0,0.1,0,0.1-0.1l0.1-0.1c0.1,0,0.1,0,0.2,0c0.1,0,0.2-0.1,0.2-0.3c0.2,0,0.3,0,0.3-0.1
		c0.1,0,0.2,0,0.3,0s0.2,0,0.2,0c0.1,0,0.1,0,0.2-0.1s0.1-0.1,0.2-0.1s0.1,0,0.2,0h0.1c0.1,0,0.1-0.1,0.1-0.1s0.1,0,0.2,0
		c0,0,0.1,0,0.1-0.1l0.1-0.1c0.1,0,0.1,0,0.1,0s0.1-0.1,0.2-0.2c0.1,0,0.2,0,0.2-0.1v0.1c0.1-0.1,0.2-0.1,0.4-0.1s0.3,0,0.4,0H67
		l0.1-0.1c0.1,0,0.1,0,0.1,0s0.1,0,0.1-0.1l0.1-0.1c0.1,0,0.3,0,0.6,0s0.6,0,0.7,0s0.1,0,0.2,0s0.2,0,0.2,0s0.1,0,0.2,0s0.1,0,0.2,0
		c0,0,0.1,0.1,0.2,0.1C70.6,43,70.7,43,70.8,43.1z"/>
	<path fill="#2B5799" d="M85.8,39.5c0.6,0.1,0.8,0,0.8-0.2c0,0,0.2,0,0.4,0c0,0,0,0,0,0.1c0,0,0,0,0,0.1c0,0,0.1,0,0.2,0
		s0.1,0,0.1,0.1c0.1,0,0.3,0,0.4,0.1c0.5,0,0.8,0.1,0.9,0.3h0.1c0.1,0.1,0.2,0.1,0.3,0.2c0.2,0.1,0.3,0.2,0.3,0.2v0.1
		c0.2,0.1,0.3,0.4,0.4,0.8l0.1,0.1c0.1,0.2,0,0.3,0,0.4c0,0.1,0,0.2,0,0.3c-0.1,0.1-0.1,0.2-0.1,0.2c-0.1,0.1-0.1,0.1-0.1,0.1
		c0,0.1,0,0.2-0.1,0.3c0,0.1,0,0.1,0,0.1l-0.1,0.1h-0.1c0,0,0,0-0.1,0c0,0,0,0.1-0.1,0.1s-0.1,0-0.2,0c0,0,0,0.1-0.1,0.1l-0.1,0.1
		c-0.1,0-0.2,0-0.3,0c0,0.1,0,0.1,0,0.1s-0.1,0-0.2,0s-0.1,0-0.2,0h-0.1h-0.1c0,0,0-0.1,0.1-0.1l-0.1-0.1c0-0.1-0.1-0.1-0.1-0.1
		l-0.1,0.1h-0.1c0-0.1,0-0.1-0.1-0.2c-0.1-0.1-0.1-0.1-0.2-0.1v0.1V43l-0.1-0.1L87,42.8c0,0,0,0-0.1-0.1c0-0.2-0.2-0.3-0.5-0.3
		c-0.1,0-0.1,0-0.2,0.1c-0.1,0-0.1,0-0.2,0s-0.1,0-0.2,0l-0.1,0.1c-0.1,0-0.2,0-0.4,0c-0.3,0.1-0.5,0.1-0.5,0.2
		c-0.2-0.1-0.3-0.1-0.3,0c-0.1,0-0.2,0-0.3,0c-0.1,0-0.2,0-0.2,0v0.1c-0.1,0-0.2,0-0.3,0c-0.1-0.1-0.2-0.1-0.2,0c0,0-0.1,0-0.1,0.1
		l-0.1,0.1c-0.1,0-0.1,0-0.2,0s-0.1,0-0.2,0s-0.1,0-0.1,0.1h-0.1c-0.1,0-0.1,0-0.1,0v0.1c-0.3,0-0.5,0-0.5,0v0.1c0,0,0,0,0,0.1
		c-0.2-0.1-0.5-0.1-0.7,0.2c0,0-0.1,0-0.1-0.1c-0.1,0-0.1,0.1,0,0.2c0,0.1,0,0.1,0.1,0.1V44v0.1c0,0.1,0,0.1,0,0.1
		c0,0.1,0,0.2,0.1,0.2c0,0.1,0,0.2,0.1,0.4s0.1,0.3,0,0.3c0,0.1,0,0.2,0.1,0.3c0,0,0,0,0,0.1c0,0,0,0,0,0.1s0,0.1,0,0.2
		c0,0.1,0.1,0.1,0.1,0.1c0,0.6,0,1,0,1c-0.1,0.1-0.1,0.3,0,0.5c0,0,0,0.1,0,0.3c0,0,0,0.1-0.1,0.1c0,0.1,0,0.1,0,0.2
		c0.3,0,0.3,0,0.3,0v0.1v0.1c0,0.1,0,0.3,0,0.5c0,0.3,0,0.4,0,0.5c0,0,0,0.1,0,0.2c0,0.1,0.1,0.2,0.2,0.1s0.2-0.1,0.2-0.1
		c0.3,0,0.5,0,0.5-0.1c0.3,0,0.5,0,0.5,0c0.2,0,0.3,0,0.4,0c0,0,0.1,0,0.1-0.1c0.1,0,0.1-0.1,0.1-0.1s0.1,0,0.2,0
		c0.2,0,0.3,0,0.3-0.1c0.2,0.1,0.4,0,0.5,0h0.1h0.1h0.1c0.1,0,0.1,0,0.1,0c0.1,0,0.3,0,0.5,0v-0.1c0.1,0.1,0.3,0.1,0.4,0
		c0.2,0,0.3-0.1,0.3-0.1c0.1,0,0.1,0,0.2,0s0.1-0.1,0.1-0.1H87c0,0,0,0,0.1,0.1c0,0,0.1,0,0.2-0.1s0.2-0.1,0.3-0.1
		c0.1-0.1,0.1-0.1,0.1-0.1s0.1,0,0.1,0.1c0.2,0,0.4,0,0.4-0.1c0.1,0,0.1,0,0.2,0s0.1,0,0.2,0s0.1,0,0.2,0.1c0.1,0,0.2,0.1,0.2,0.1
		c0.1,0,0.2,0.1,0.2,0.2c0.1,0,0.1,0,0.2,0c0,0,0,0,0.1,0s0,0.1,0.1,0.1c0.2,0,0.3,0,0.4,0c0,0,0,0.1,0.1,0.2v0.1
		c0,0.1,0.1,0.2,0.2,0.3c0,0.2,0.1,0.3,0.2,0.4c0,0,0,0.1-0.1,0.1c0,0.1,0,0.2-0.1,0.3s-0.1,0.2-0.1,0.3H90c0,0,0,0,0,0.1s0,0,0,0.1
		h-0.1l0,0h-0.1c0,0-0.1,0-0.1-0.1h-0.1c0,0-0.1,0-0.1,0.1h-0.1c0,0.1-0.1,0.1-0.3,0.2c-0.2,0.1-0.3,0.1-0.3,0.3
		c-0.2,0-0.4,0-0.6,0.2h-0.1c0,0-0.1,0-0.1,0.1c0,0,0,0,0,0.1c-0.1,0-0.2,0-0.2-0.1h-0.1v0.1c-0.1,0-0.1,0-0.3,0c-0.1,0-0.2,0-0.3,0
		c0,0-0.1,0-0.1,0.1L86.9,52c-0.1,0-0.2,0-0.2,0c-0.1,0-0.1,0.1-0.1,0.2c-0.1-0.1-0.1-0.1-0.3-0.1c-0.1,0-0.2,0-0.3,0.1v0.1
		c-0.1,0-0.1,0-0.2,0c-0.1-0.1-0.1,0-0.2,0c0,0-0.1,0-0.2,0v0.2c-0.1,0-0.2,0-0.3,0c-0.1,0-0.1,0-0.2,0s-0.1,0.1,0,0.2L84.8,52
		c0,0-0.2,0-0.4,0l-0.1,0.1l-0.1,0.1c-0.2,0-0.3,0-0.4,0l-0.1,0.2c-0.3,0-0.5,0-0.5,0c-0.1,0-0.1,0.1-0.3,0.1c0,0,0,0,0,0.1
		c-0.2,0.1-0.4,0.1-0.5,0c0,0-0.1,0-0.1,0.1l-0.1,0.1c0,0-0.1,0-0.1-0.1L82,52.6c-0.1,0-0.1,0-0.2,0.1c-0.1,0-0.1,0-0.2,0
		s-0.1,0.2,0,0.5v0.1v0.1c0,0.1,0.1,0.1,0.2,0.1c0.1,0.1,0,0.2-0.1,0.2c0,0,0,0.1,0,0.2c0,0.1,0,0.2,0.1,0.2c0,0,0,0,0,0.1
		s0,0,0,0.1c0,0,0,0.1-0.1,0.3c0.1,0.1,0.1,0.2,0.1,0.5s0,0.4,0.1,0.6c-0.1,0.2-0.1,0.4,0,0.5c0,0.1,0,0.2,0,0.3v0.1v0.1
		C82,56.9,82,57,82,57.1c0.1,0.1,0.1,0.2,0.2,0.3s0.1,0.2,0.1,0.3c0.1,0,0.2,0,0.3,0.1c0.2,0,0.3,0,0.3,0s0.1,0,0.1-0.1
		c0.1,0,0.1,0,0.1,0.1c0.4,0,0.7-0.1,0.7-0.1c0.1,0,0.2,0,0.3,0c0.2,0,0.3,0,0.4,0c0.1-0.1,0.3-0.1,0.6-0.2c0,0,0,0,0-0.1
		s0-0.1,0-0.1c0.1,0,0.1,0,0.2,0s0.2,0,0.2,0s0.1-0.1,0.2-0.1s0.2-0.1,0.2-0.1c0.2,0,0.3,0,0.5-0.1s0.3-0.2,0.5-0.2
		c0-0.1,0.1-0.1,0.1-0.1c0.2,0.1,0.3,0,0.3,0c0.2,0,0.4-0.1,0.5-0.3c0.1,0,0.2,0,0.3,0c0.1-0.1,0.2-0.1,0.3-0.1c0.5,0,0.7,0,0.8,0.1
		h0.1c0,0.1,0.1,0.3,0.2,0.4h0.1c0.1,0,0.1,0.1,0.2,0.2c0,0.1,0.1,0.3,0.2,0.3c0,0.1,0,0.1,0.1,0.2c0.1,0.1,0.1,0.2,0.1,0.2
		s0,0,0,0.1s0,0.1,0,0.2c-0.1,0.2-0.2,0.3-0.2,0.4c-0.1,0-0.2,0.1-0.3,0.2c-0.2,0-0.3,0.1-0.3,0.4h-0.1h-0.1c0,0-0.1,0.1-0.1,0.2H89
		h-0.1c0,0-0.1,0-0.1,0.1c-0.2,0-0.3,0.1-0.3,0.2h-0.2c-0.1,0.2-0.3,0.2-0.5,0.1c0,0-0.1,0.1-0.1,0.2h-0.1c-0.1-0.1-0.2-0.1-0.3,0
		c-0.1,0-0.1,0.1-0.1,0.2H87c0,0,0,0,0,0.1s0,0.1,0,0.1s-0.1-0.1-0.2-0.1s-0.2,0-0.3,0l-0.1,0.1c0,0,0,0.1-0.1,0.1h-0.1h-0.1
		c0,0-0.1,0.1-0.1,0.2c-0.1-0.1-0.3,0-0.4,0c0,0,0,0,0,0.1c-0.1,0-0.2,0-0.3,0c-0.2,0-0.3,0.1-0.3,0.1h-0.1c0,0,0,0-0.1,0
		c0,0-0.1,0-0.2,0s-0.2,0-0.2,0.1s0,0.1,0,0.1s-0.1,0-0.3,0c-0.1,0-0.1,0-0.1,0s0-0.1-0.1-0.1c-0.3,0.1-0.4,0.1-0.5,0.1V61
		c-0.1,0-0.1,0-0.2,0l-0.1-0.1L83,61h-0.1c0,0-0.1,0-0.2,0s-0.2,0-0.2,0c0-0.1,0-0.1,0-0.1h-0.1c-0.1,0-0.1,0.1-0.1,0.2
		c-0.2,0-0.4,0-0.6,0c0-0.1,0-0.1-0.1-0.2c-0.1,0-0.1,0-0.2,0V61c0,0.1,0,0.1,0,0.1s0,0,0-0.1v-0.1h-0.2v-0.1
		c-0.1-0.1-0.2-0.1-0.3-0.1c0.5-0.7,0.4-0.7,0.4-0.7s-0.1,0-0.1-0.1c-0.1-0.1-0.1-0.1-0.1-0.2H81h-0.1v-0.1c0,0,0-0.1-0.1-0.1
		s-0.1,0-0.1,0h-0.1c0-0.1,0-0.2-0.2-0.3v-0.1c-0.1-0.1-0.2-0.2-0.3-0.3H80c-0.1-0.1-0.2-0.1-0.2-0.2c-0.1-0.1-0.1-0.2-0.2-0.3
		s-0.1-0.2-0.2-0.3c-0.1-0.4-0.2-0.6-0.2-0.6c0-0.1,0-0.2-0.1-0.3c0-0.1,0-0.1,0-0.3c0-0.1,0-0.2,0-0.2c0-0.1,0-0.1-0.1-0.2v-0.1
		v-0.1c0,0,0-0.1,0-0.3s0-0.3-0.1-0.3c0-0.1,0-0.2,0-0.4s0-0.3,0-0.3c0-0.4,0-1,0-1.8s0-1.4,0-1.8c0.1,0,0.2-0.1,0.1-0.1
		c0-0.1-0.1-0.2-0.1-0.2c0-0.1,0-0.2,0.1-0.3c0-0.1,0.1-0.2,0.1-0.2C79,50.4,79,50.4,79,50.3c0-0.1,0-0.1,0.1-0.1c0-0.1,0-0.7,0-1.6
		c0.1,0,0.1-0.1,0.1-0.1c0-0.1,0-0.1-0.1-0.2c0.1,0,0.1-0.1,0-0.3c0-0.1,0-0.3,0-0.3v-0.1c0.1-0.1,0-0.2,0-0.3s0-0.2,0-0.5
		s0-0.5-0.1-0.5c0.1,0,0.1-0.2,0.1-0.4s0-0.4,0-0.4L78.7,46c0-0.2,0-0.3,0.1-0.3l-0.1-0.1v-0.1c0-0.3,0-0.5,0-0.5h-0.1
		c0,0,0,0-0.1,0c0-0.3,0-0.5,0-0.7c-0.1,0-0.1,0-0.1,0s0-0.1,0-0.2V44v-0.1v-0.1v-0.1l-0.1-0.1c-0.1-0.1-0.1-0.2,0-0.3l-0.1-0.1
		c0-0.1,0-0.1,0-0.2c-0.1,0-0.1-0.1-0.3-0.3c0-0.1,0-0.2,0-0.3s0-0.1,0-0.2c-0.1-0.1,0-0.2,0-0.3c0.1-0.1,0.1-0.2,0.1-0.3
		c0,0,0.1-0.1,0.2-0.2c0.1-0.1,0.2-0.2,0.2-0.2l0,0v-0.1l0.1,0.1c0,0,0.1,0,0.2,0s0.2,0,0.2,0c0.1,0,0.1,0,0.2-0.1s0.1-0.1,0.1-0.1
		c0.1,0,0.1,0,0.3,0c0.1,0,0.2,0,0.3,0h0.1H80c0.2,0,0.3,0,0.4-0.1c0.4-0.1,0.6-0.1,0.7-0.2h0.2c0,0,0,0,0.1,0c0,0,0,0,0.1,0
		c0,0,0.1,0,0.2,0s0.1,0,0.2-0.1s0.2-0.1,0.2-0.1s0-0.1,0-0.2c0.1,0,0.1,0,0.1,0s0,0,0,0.1v0.1c0.2-0.1,0.4-0.1,0.5-0.2
		c0.1,0,0.1,0,0.2,0.1l0.3-0.1c0,0,0.1-0.1,0.3-0.2c0,0.1,0.1,0.1,0.1,0.2c0,0,0.1-0.1,0.2-0.1s0.1,0,0.2,0s0.1,0,0.1,0
		s0.1,0,0.1-0.1c0,0,0.1,0,0.2,0s0.2,0,0.2,0c0.2,0,0.3-0.1,0.4-0.1h0.1c0.1,0,0.1,0,0.1-0.1c0.1,0,0.1,0,0.2,0c0,0,0.1,0,0.2-0.1
		c0.1,0,0.1,0,0.2,0C85.7,39.6,85.7,39.6,85.8,39.5C85.7,39.6,85.8,39.6,85.8,39.5C85.7,39.5,85.7,39.5,85.8,39.5z M86.6,39.4
		c0,0,0.1,0,0.2,0s0.2,0,0.2,0l0,0c0,0,0,0,0,0.1c0,0,0.1,0,0.2,0s0.1,0,0.1,0.1c0.1,0,0.3,0,0.4,0.1c0.5,0,0.8,0.1,0.9,0.3h0.1
		c0.1,0.1,0.2,0.1,0.3,0.2c0.2,0.1,0.3,0.2,0.3,0.2v0.1c0.2,0.1,0.3,0.4,0.4,0.8h0.1l0,0c0.1,0.2,0,0.3,0,0.4c0,0.1,0,0.2,0,0.3
		c-0.1,0.1-0.1,0.2-0.1,0.2c-0.1,0.1-0.1,0.1-0.1,0.1c0,0.1,0,0.2-0.1,0.3c0,0.1,0,0.1,0,0.1l-0.1,0.1h-0.1c0,0,0,0-0.1,0
		c0,0,0,0.1-0.1,0.1s-0.1,0-0.2,0c0,0,0,0.1-0.1,0.1l-0.1,0.1c-0.1,0-0.2,0-0.3,0c0,0.1,0,0.1,0,0.1s-0.1,0-0.2,0s-0.1,0-0.2,0h-0.1
		h-0.1c0,0,0-0.1,0.1-0.1L87.8,43c0-0.1-0.1-0.1-0.1-0.1L87.6,43h-0.1c0-0.1,0-0.1-0.1-0.2c-0.1-0.1-0.1-0.1-0.2-0.1v0.1v0.1
		l-0.1-0.1L87,42.7c0,0,0,0-0.1-0.1c0-0.2-0.2-0.3-0.5-0.3c-0.1,0-0.1,0-0.2,0.1c-0.1,0-0.1,0-0.2,0s-0.1,0-0.2,0l-0.1,0.1
		c-0.1,0-0.2,0-0.4,0c-0.3,0.1-0.5,0.1-0.5,0.2c-0.2-0.1-0.3-0.1-0.3,0c-0.1,0-0.2,0-0.3,0c-0.1,0-0.2,0-0.2,0v0.1
		c-0.1,0-0.2,0-0.3,0c-0.1-0.1-0.2-0.1-0.2,0c0,0-0.1,0-0.1,0.1L83.3,43c-0.1,0-0.1,0-0.2,0s-0.1,0-0.2,0s-0.1,0-0.1,0.1h-0.1
		c-0.1,0-0.1,0-0.1,0v0.1c-0.3,0-0.5,0-0.5,0v0.1c0,0,0,0,0,0.1c-0.2-0.1-0.5-0.1-0.7,0.2c0,0-0.1,0-0.1-0.1c-0.1,0-0.1,0.1,0,0.2
		c0,0.1,0,0.1,0.1,0.1v0.1V44c0,0.1,0,0.1,0,0.1c0,0.1,0,0.2,0.1,0.2c0,0.1,0,0.2,0.1,0.4s0.1,0.3,0,0.3c0,0.1,0,0.2,0.1,0.3
		c0,0,0,0,0,0.1c0,0,0,0,0,0.1s0,0.1,0,0.2c0,0.1,0.1,0.1,0.1,0.1c0,0.6,0,1,0,1c-0.1,0.1-0.1,0.3,0,0.5c0,0,0,0.1,0,0.3
		c0,0,0,0.1-0.1,0.1c0,0.1,0,0.1,0,0.2C82,48,82,48,82,48v0.1v0.1c0,0.1,0,0.3,0,0.5c0,0.3,0,0.4,0,0.5c0,0,0,0.1,0,0.2
		c0,0.1,0.1,0.2,0.2,0.1s0.2-0.1,0.2-0.1c0.3,0,0.5,0,0.5-0.1c0.3,0,0.5,0,0.5,0c0.2,0,0.3,0,0.4,0c0,0,0.1,0,0.1-0.1
		c0.1,0,0.1-0.1,0.1-0.1s0.1,0,0.2,0c0.2,0,0.3,0,0.3-0.1c0.2,0.1,0.4,0,0.5,0h0.1h0.1h0.1c0.1,0,0.1,0,0.1,0c0.1,0,0.3,0,0.5,0
		v-0.1c0.1,0.1,0.3,0.1,0.4,0c0.2,0,0.3-0.1,0.3-0.1c0.1,0,0.1,0,0.2,0s0.1-0.1,0.1-0.1H87c0,0,0,0,0.1,0.1c0,0,0.1,0,0.2-0.1
		s0.2-0.1,0.3-0.1c0.1-0.1,0.1-0.1,0.1-0.1s0.1,0,0.1,0.1c0.2,0,0.4,0,0.4-0.1c0.1,0,0.1,0,0.2,0s0.1,0,0.2,0s0.1,0,0.2,0.1
		c0.1,0,0.2,0.1,0.2,0.1c0.1,0,0.2,0.1,0.2,0.2c0.1,0,0.1,0,0.2,0c0,0,0,0,0.1,0s0,0.1,0.1,0.1c0.2,0,0.3,0,0.4,0c0,0,0,0.1,0.1,0.2
		v0.1c0,0.1,0.1,0.2,0.2,0.3c0,0.2,0.1,0.3,0.2,0.4c0,0,0,0.1-0.1,0.1c0,0.1,0,0.2-0.1,0.3s-0.1,0.2-0.1,0.3H90c0,0,0,0,0,0.1
		s0,0,0,0.1h-0.1l0,0h-0.1c0,0-0.1,0-0.1-0.1h-0.1c0,0-0.1,0-0.1,0.1h-0.1c0,0.1-0.1,0.1-0.3,0.2c-0.2,0.1-0.3,0.1-0.3,0.3
		c-0.2,0-0.4,0-0.6,0.2h-0.1c0,0-0.1,0-0.1,0.1c0,0,0,0,0,0.1c-0.1,0-0.2,0-0.2-0.1h-0.1v0.1c-0.1,0-0.1,0-0.3,0c-0.1,0-0.2,0-0.3,0
		c0,0-0.1,0-0.1,0.1L86.9,52c-0.1,0-0.2,0-0.2,0c-0.1,0-0.1,0.1-0.1,0.2c-0.1-0.1-0.1-0.1-0.3-0.1c-0.1,0-0.2,0-0.3,0.1v0.1
		c-0.1,0-0.1,0-0.2,0c-0.1-0.1-0.1,0-0.2,0c0,0-0.1,0-0.2,0v0.2c-0.1,0-0.2,0-0.3,0c-0.1,0-0.1,0-0.2,0s-0.1,0.1,0,0.2L84.8,52
		c0,0-0.2,0-0.4,0l-0.1,0.1l-0.1,0.1c-0.2,0-0.3,0-0.4,0l-0.1,0.2c-0.3,0-0.5,0-0.5,0c-0.1,0-0.1,0.1-0.3,0.1c0,0,0,0,0,0.1
		c-0.2,0.1-0.4,0.1-0.5,0c0,0-0.1,0-0.1,0.1l-0.1,0.1c0,0-0.1,0-0.1-0.1L82,52.6c-0.1,0-0.1,0-0.2,0.1c-0.1,0-0.1,0-0.2,0
		s-0.1,0.2,0,0.5v0.1v0.1c0,0.1,0.1,0.1,0.2,0.1c0.1,0.1,0,0.2-0.1,0.2c0,0,0,0.1,0,0.2c0,0.1,0,0.2,0.1,0.2c0,0,0,0,0,0.1
		s0,0,0,0.1c0,0,0,0.1-0.1,0.3c0.1,0.1,0.1,0.2,0.1,0.5s0,0.5,0.1,0.6c-0.1,0.2-0.1,0.4,0,0.5c0,0.1,0,0.2,0,0.3v0.1v0.1
		C82,56.9,82,57,82,57.1c0.1,0.1,0.1,0.2,0.2,0.3s0.1,0.2,0.1,0.3c0.1,0,0.2,0,0.3,0.1c0.2,0,0.3,0,0.3,0s0.1,0,0.1-0.1
		c0.1,0,0.1,0,0.1,0.1c0.4,0,0.7-0.1,0.7-0.1c0.1,0,0.2,0,0.3,0c0.2,0,0.3,0,0.4,0c0.1-0.1,0.3-0.1,0.6-0.2c0,0,0,0,0-0.1
		s0-0.1,0-0.1c0.1,0,0.1,0,0.2,0s0.2,0,0.2,0s0.1-0.1,0.2-0.1s0.2-0.1,0.2-0.1c0.2,0,0.3,0,0.5-0.1s0.3-0.2,0.5-0.2
		c0-0.1,0.1-0.1,0.1-0.1c0.2,0.1,0.3,0,0.3,0c0.2,0,0.4-0.1,0.5-0.3c0.1,0,0.2,0,0.3,0c0.1-0.1,0.2-0.1,0.3-0.1c0.5,0,0.7,0,0.8,0.1
		h0.1c0,0.1,0.1,0.3,0.2,0.4h0.1c0.1,0,0.1,0.1,0.2,0.2c0,0.1,0.1,0.3,0.2,0.3c0,0.1,0,0.1,0.1,0.2c0.1,0.1,0.1,0.2,0.1,0.2
		s0,0,0,0.1s0,0.1,0,0.2c-0.1,0.2-0.2,0.3-0.2,0.4c-0.1,0-0.2,0.1-0.3,0.2c-0.2,0-0.3,0.1-0.3,0.4h-0.1h-0.1c0,0-0.1,0.1-0.1,0.2H89
		h-0.1c0,0-0.1,0-0.1,0.1c-0.2,0-0.3,0.1-0.3,0.2h-0.2c-0.1,0.2-0.3,0.2-0.5,0.1c0,0-0.1,0.1-0.1,0.2h-0.1c-0.1-0.1-0.2-0.1-0.3,0
		c-0.1,0-0.1,0.1-0.1,0.2H87c0,0,0,0,0,0.1s0,0.1,0,0.1s-0.1-0.1-0.2-0.1s-0.2,0-0.3,0l-0.1,0.1c0,0,0,0.1-0.1,0.1h-0.1h-0.1
		c0,0-0.1,0.1-0.1,0.2c-0.1-0.1-0.3,0-0.4,0c0,0,0,0,0,0.1c-0.1,0-0.2,0-0.3,0c-0.2,0-0.3,0.1-0.3,0.1h-0.1c0,0,0,0-0.1,0
		c0,0-0.1,0-0.2,0s-0.2,0-0.2,0.1s0,0.1,0,0.1s-0.1,0-0.3,0c-0.1,0-0.1,0-0.1,0s0-0.1-0.1-0.1c-0.3,0.1-0.4,0.1-0.5,0.1V61
		c-0.1,0-0.1,0-0.2,0l-0.1-0.1L83,61h-0.1c0,0-0.1,0-0.2,0s-0.2,0-0.2,0c0-0.1,0-0.1,0-0.1h-0.1c-0.1,0-0.1,0.1-0.1,0.2
		c-0.2,0-0.4,0-0.6,0c0-0.1,0-0.1-0.1-0.2c-0.1,0-0.1,0-0.2,0V61c0,0.1,0,0.1,0,0.1s0,0,0-0.1v-0.1h-0.2v-0.1
		c-0.1-0.1-0.2-0.1-0.3-0.1c0.5-0.7,0.4-0.7,0.4-0.7s-0.1,0-0.1-0.1c-0.1-0.1-0.1-0.1-0.1-0.2H81h-0.1v-0.1c0,0,0-0.1-0.1-0.1
		s-0.1,0-0.1,0h-0.1c0-0.1,0-0.2-0.2-0.3v-0.1c-0.1-0.1-0.2-0.2-0.3-0.3H80c-0.1-0.1-0.2-0.1-0.2-0.2c-0.1-0.1-0.1-0.2-0.2-0.3
		s-0.1-0.2-0.2-0.3c-0.1-0.4-0.2-0.6-0.2-0.6c0-0.1,0-0.2-0.1-0.3c0-0.1,0-0.1,0-0.3c0-0.1,0-0.2,0-0.2s0-0.1-0.1-0.1v-0.1v-0.1
		c0,0,0-0.1,0-0.3s0-0.3-0.1-0.3c0-0.1,0-0.2,0-0.4s0-0.3,0-0.3c0-0.4,0-1,0-1.8s0-1.4,0-1.8c0.1,0,0.2-0.1,0.1-0.1
		c0-0.1-0.1-0.2-0.1-0.2c0-0.1,0-0.2,0.1-0.3c0-0.1,0.1-0.2,0.1-0.2C79,50.5,79,50.5,79,50.4c0-0.1,0-0.1,0.1-0.1c0-0.1,0-0.7,0-1.6
		c0.1,0,0.1-0.1,0.1-0.1c0-0.1,0-0.1-0.1-0.2c0.1,0,0.1-0.1,0-0.3c0-0.1,0-0.3,0-0.3v-0.1c0.1-0.1,0-0.2,0-0.2c0-0.1,0-0.2,0-0.5
		s0-0.5-0.1-0.5c0.1,0,0.1-0.2,0.1-0.4s0-0.4,0-0.4L78.7,46c0-0.2,0-0.3,0.1-0.3l-0.1-0.1v-0.1c0-0.3,0-0.5,0-0.5h-0.1
		c0,0,0,0-0.1,0c0-0.3,0-0.5,0-0.7c-0.1,0-0.1,0-0.1,0s0-0.1,0-0.2V44v-0.1v-0.1v-0.1l-0.1-0.1c-0.1-0.1-0.1-0.2,0-0.3l-0.1-0.1
		c0-0.1,0-0.1,0-0.2c-0.1,0-0.1-0.1-0.3-0.3c0-0.1,0-0.2,0-0.3s0-0.1,0-0.2c-0.1-0.1,0-0.2,0-0.3c0.1-0.1,0.1-0.2,0.1-0.3
		c0,0,0.1-0.1,0.2-0.2c0.1-0.1,0.2-0.2,0.2-0.2l0,0v-0.1l0.1,0.1c0,0,0.1,0,0.2,0s0.2,0,0.2,0c0.1,0,0.1,0,0.2-0.1s0.1-0.1,0.1-0.1
		c0.1,0,0.1,0,0.3,0c0.1,0,0.2,0,0.3,0h0.1H80c0.2,0,0.3,0,0.4-0.1c0.4-0.1,0.6-0.1,0.7-0.2h0.2c0,0,0,0,0.1,0c0,0,0,0,0.1,0
		c0,0,0.1,0,0.2,0s0.1,0,0.2-0.1s0.2-0.1,0.2-0.1s0-0.1,0-0.2c0.1,0,0.1,0,0.1,0s0,0,0,0.1v0.1c0.2-0.1,0.4-0.1,0.5-0.2
		c0.1,0,0.1,0,0.2,0.1l0.3-0.1c0,0,0.1-0.1,0.3-0.2c0,0.1,0.1,0.1,0.1,0.2c0,0,0.1-0.1,0.2-0.1s0.1,0,0.2,0s0.1,0,0.1,0
		s0.1,0,0.1-0.1c0,0,0.1,0,0.2,0s0.2,0,0.2,0c0.2,0,0.3-0.1,0.4-0.1h0.1c0.1,0,0.1,0,0.1-0.1c0.1,0,0.1,0,0.2,0c0,0,0.1,0,0.2-0.1
		c0.1,0,0.1,0,0.2,0s0.1,0,0.1,0l0,0l0,0C86.3,39.6,86.6,39.6,86.6,39.4z"/>
</g>
</svg>
