<?xml version="1.0" encoding="utf-8"?>
<!-- Generator: Adobe Illustrator 19.0.1, SVG Export Plug-In . SVG Version: 6.00 Build 0)  -->
<svg version="1.1" id="Layer_1" xmlns="http://www.w3.org/2000/svg" xmlns:xlink="http://www.w3.org/1999/xlink" x="0px" y="0px"
	 viewBox="0 0 100 100" enable-background="new 0 0 100 100" xml:space="preserve">
<g>
	<path fill="#2B5799" d="M24.4,43.8l0.1,0.1c0,0.1,0,0.1,0,0.1h0.1h0.1c0,0,0,0,0,0.1l0.1,0.1c0,0,0.1,0,0.1,0.1l0.1,0.1h0.1
		c0.1,0.1,0.2,0.2,0.2,0.3c0.1,0,0.2,0,0.2,0.1c0.1,0.1,0.1,0.1,0.1,0.1s0,0,0-0.1s0-0.1,0-0.1s0.1,0.1,0.1,0.2c0,0.1,0,0.1,0.1,0.1
		c0,0,0,0.1,0.1,0.2c0,0.1,0.1,0.2,0.1,0.2c0.1,0,0.2,0.1,0.3,0.1c0,0.2,0.1,0.4,0.2,0.5c0,0,0,0.1,0.1,0.1v0.1
		c0.1,0.2,0.1,0.3,0.2,0.3c0,0.2,0,0.3,0.2,0.3c0,0,0,0.1-0.1,0.1c0,0.1-0.1,0.1,0,0.2c0,0,0.1,0,0.2,0c0,0.1,0,0.1,0,0.2
		c-0.1,0.1-0.1,0.2,0,0.2l0.1,0.1l0.1,0.1c0,0.1,0,0.2,0,0.3s0,0.2,0,0.3c0,0,0,0.1,0.1,0.1s0.1,0,0.1,0.1s0,0.3,0,0.5
		c0,0.3,0,0.4,0,0.4c0.1,0,0.1,0,0.1,0c0,0.1,0,0.1,0,0.2c0,0.1,0,0.2,0,0.2s0,0.1-0.1,0.1c0,0-0.1,0-0.1,0.1c0,0,0.1,0.1,0.2,0.1
		c0,0.1,0,0.1,0,0.2c0,0.1,0,0.2,0,0.4c0,0.3,0,0.5,0.2,0.5c0,0.1,0,0.2-0.1,0.2s-0.2,0-0.3,0.1l0.1,0.1c-0.1,0.1-0.1,0.3-0.1,0.7
		c0,0.3,0,0.6-0.1,0.7l0.1,0.1v0.1v0.1v0.1v0.1v0.1c-0.1,0.1-0.2,0.2-0.2,0.3c0,0,0,0.1,0,0.2c0,0.1,0.1,0.2,0.1,0.2s0,0.1-0.1,0.1
		l-0.1,0.1v0.1c0,0.1,0,0.1-0.1,0.1v0.1v0.1C26.9,55,26.9,55,26.9,55v0.1c0,0,0,0,0,0.1c-0.1,0-0.1,0.1-0.1,0.3s0,0.3-0.1,0.3
		c0.1,0.1,0.1,0.2,0,0.4c0,0.1,0,0.2,0,0.2c-0.1,0.1-0.2,0.2-0.2,0.3v0.1c0,0,0,0,0,0.1C26.4,57,26.4,57,26.4,57v0.1
		c0,0.1,0,0.1,0,0.1s-0.1,0.1-0.1,0.2l-0.1,0.3v0.1c0,0,0,0-0.1,0.1V58C26,58.1,26,58.2,26,58.3c0,0.4,0,0.6,0,0.9h-0.1l-0.1,0.1
		c-0.1,0-0.1,0.1-0.1,0.1c-0.1,0.2-0.3,0.5-0.7,0.8v0.1l-0.1,0.1c0,0-0.1,0-0.1,0.1c0,0,0,0.1,0,0.2c0,0.1,0,0.1-0.1,0.2h-0.1
		c-0.1,0.1-0.2,0.2-0.4,0.4c-0.2,0.2-0.3,0.3-0.4,0.4c-0.1,0-0.2,0-0.2,0c0,0.1,0,0.2,0,0.2c-0.2,0.1-0.3,0.2-0.3,0.4h-0.1
		c-0.1,0-0.2,0.1-0.2,0.2h-0.1c-0.1,0-0.1,0-0.1,0l-0.1,0.1v0.1c0,0,0,0-0.1,0c0,0-0.1,0-0.1,0.1c-0.1,0.1-0.2,0.1-0.3,0.1
		c0,0,0,0.1-0.1,0.1C22,63.1,22,63.1,22,63.2c-0.3,0-0.4,0.1-0.4,0.3c-0.1-0.1-0.1-0.1-0.2,0c-0.1,0-0.1,0.1-0.1,0.2h-0.1h-0.1
		c-0.1,0-0.3,0-0.5,0.1c-0.2,0-0.3,0-0.4,0s-0.1,0-0.2,0c-0.2,0.1-0.4,0.1-0.4-0.1c-0.1,0-0.1,0-0.2,0s-0.1,0-0.2,0
		c0,0-0.1,0-0.1,0.1c-0.1,0-0.1,0.1-0.2,0h-0.1c0,0,0,0-0.1,0c0,0,0,0-0.1,0h-0.1l-0.1-0.1h-0.1c0,0-0.1,0-0.1,0.1
		c0-0.1,0-0.2-0.1-0.2s-0.2-0.1-0.2-0.1v0.1v0.1c0,0-0.1,0-0.1-0.2c-0.1,0-0.1,0-0.1,0h-0.1v-0.1h-0.1c-0.1,0-0.1,0-0.1,0v-0.1v-0.1
		c-0.1,0-0.2,0-0.2,0C17.1,63,17,62.9,16.9,63c-0.2-0.1-0.2-0.2-0.2-0.3c0,0-0.1,0-0.2,0c0,0-0.1-0.1-0.1-0.2c0-0.1,0-0.1-0.1-0.2
		l-0.1,0.1c0,0-0.1-0.1-0.1-0.2c0-0.1-0.1-0.1-0.1-0.1h-0.1h-0.1l0,0V62c0,0-0.1-0.1-0.1-0.2c0-0.1-0.1-0.2-0.1-0.2s-0.1,0-0.3-0.2
		v-0.1c0,0-0.1-0.1-0.2-0.2c-0.1-0.1-0.2-0.2-0.2-0.2c0-0.1,0-0.1-0.1-0.2c0-0.1-0.1-0.2-0.1-0.2h-0.1l-0.1-0.4c0,0-0.1-0.2-0.2-0.4
		c-0.1-0.2-0.3-0.3-0.4-0.3c0.1-0.2,0.1-0.4,0-0.5c0,0,0-0.1,0-0.2c0-0.1-0.1-0.2-0.1-0.2v-0.1c0-0.1-0.1-0.1-0.1-0.1s0,0,0-0.1
		v-0.1c0,0,0,0,0-0.1h-0.1l0,0v-0.1h-0.1l-0.1-0.1c0-0.1,0-0.1,0-0.1v-0.1c0,0-0.1-0.1-0.1-0.3s-0.1-0.3-0.2-0.4H12
		c0.1-0.2,0.1-0.4,0-0.6c-0.1-0.3-0.2-0.4-0.2-0.5c0,0,0-0.1-0.1-0.1l-0.1-0.1v-0.1c0-0.1,0-0.1,0-0.1s0,0,0-0.1l-0.1-0.1
		c0,0,0-0.1,0-0.2c0-0.1,0-0.1-0.1-0.2l-0.1-0.4c0-0.2-0.1-0.4-0.1-0.4c0-0.1,0-0.2-0.1-0.3c0-0.1,0-0.2,0-0.3s0-0.2,0-0.3
		c0,0-0.1-0.1-0.2-0.1c0,0,0-0.1,0.1-0.2c0-0.3-0.1-0.5-0.2-0.6c0-0.3-0.1-0.4-0.1-0.5c0-0.4,0-0.7-0.2-0.7c0,0,0-0.1,0-0.2
		c0-0.1,0-0.2,0-0.2s0-0.1-0.1-0.1l-0.1-0.1c0,0,0-0.1,0-0.2c0-0.1,0-0.1,0-0.1s0-0.1-0.1-0.2h-0.1c0,0,0-0.1,0-0.2
		c0.1-0.2,0-0.3-0.2-0.3c0,0,0-0.1,0.1-0.1s0.1-0.1,0.1-0.1s0-0.3-0.1-0.8c0,0,0-0.1-0.1-0.1c0,0-0.1,0-0.1-0.1c0-0.5,0-0.9,0-1.1
		c0.1-0.2,0.1-0.4,0.1-0.5c0,0,0.1-0.1,0.1-0.2c0.1-0.1,0.1-0.2,0.2-0.2c0.1,0,0.1,0,0.2,0h0.1h0.1c0,0,0.1,0,0.1-0.1l0.1-0.1
		c0,0,0.1,0,0.2,0c0.1,0,0.2-0.1,0.2-0.1s0.1,0,0.2,0s0.2,0,0.2,0l0.1,0.1c0.1,0,0.1,0.1,0.2,0.1c0,0.1,0.1,0.1,0.2,0.2
		c0.1,0,0.2,0.1,0.2,0.1c0.2,0,0.3,0.1,0.4,0.3c0.1,0.2,0.2,0.3,0.3,0.3c0,0.2,0.1,0.4,0.3,0.7v0.1c0,0,0,0.1,0.1,0.1
		c0,0.1,0,0.2,0,0.3s0,0.2,0,0.3c0,0-0.1,0-0.1,0.1v0.1c0,0,0,0,0.1,0.1c0.1,0,0.1,0.1,0.1,0.1c0,0.3,0,0.5,0.1,0.5
		c0,0.2,0,0.3,0.1,0.4c0.1,0,0.1,0,0.1,0v0.1h-0.1c0,0.1,0.1,0.2,0.1,0.3s0,0.2,0,0.3c0,0,0,0.1,0.1,0.1l0.1,0.1c0,0,0,0.1-0.1,0.1
		c0.1,0,0.1,0.1,0.1,0.3s0.1,0.3,0.1,0.3c0,0.1,0,0.2,0,0.3c0,0.4,0.1,0.5,0.2,0.6c0,0,0,0.1,0.1,0.3c-0.2,0.2-0.2,0.3,0,0.4
		c0,0.4,0.1,0.5,0.2,0.5c-0.1,0.1-0.1,0.2,0,0.4s0.1,0.4,0.1,0.4v0.1c0,0,0,0.1,0.1,0.1s0.1,0.1,0.1,0.1v0.1c0,0.1,0,0.1,0,0.1
		s0,0.1,0.1,0.1l0.1,0.1c0,0.2,0,0.3,0,0.4c0.1,0.1,0.1,0.1,0.1,0.1s0.1,0.1,0.1,0.2c0,0.1,0.1,0.2,0.1,0.2V56c0,0,0,0.1,0.1,0.2
		c0,0.1,0.1,0.3,0.2,0.6c0,0.1,0,0.1,0.1,0.2c0,0.1,0.1,0.2,0.1,0.2l0.1,0.1c0,0,0,0.1,0,0.2c0,0.1,0,0.1,0,0.1s0,0.1,0.1,0.1v0.1
		c0,0,0.1,0.1,0.2,0.2c0,0.1,0,0.2,0.1,0.3v0.1c0,0,0,0.1,0.1,0.1c0,0.1,0,0.1,0.1,0.2c0.1,0.1,0.1,0.1,0.1,0.1v0.1V59l0.1,0.1v0.1
		c0,0,0,0.1,0.1,0.1l0.1,0.1c0,0,0,0,0,0.1c0,0,0,0.1,0.1,0.1c0,0,0,0.1,0.1,0.1s0.1,0.1,0.1,0.1s0,0.1,0.1,0.1l0.1,0.1h0.1h0.1
		c0,0,0,0.1,0.1,0.1c0,0.1,0.1,0.1,0.1,0.1s0,0.1,0.1,0.1l0.1,0.1h0.1c0.1,0.1,0.2,0.1,0.2,0.1c0.1,0,0.1,0,0.1,0
		c0.1,0.2,0.4,0.2,0.9,0.1v-0.1c0.1,0,0.2,0,0.3,0c0.1,0,0.2,0,0.3-0.1c0.2,0.1,0.5,0,0.7-0.3c0.1,0,0.2-0.1,0.3-0.2
		c0.1-0.1,0.2-0.2,0.4-0.2l0.1-0.2h0.1c0,0,0.1-0.1,0.2-0.2c0.1-0.1,0.2-0.2,0.3-0.3c0.1-0.1,0.1-0.2,0.1-0.3
		c0.1-0.1,0.2-0.2,0.2-0.2v-0.2c0.3-0.2,0.4-0.3,0.4-0.5c0,0,0.1-0.1,0.2-0.1c0,0,0-0.1,0-0.2c0,0,0-0.1,0.1-0.2c0-0.1,0-0.2,0-0.2
		c0.1,0,0.2-0.1,0.2-0.1s0-0.1,0-0.2c0-0.1,0-0.2,0-0.2c0.1-0.1,0.2-0.1,0.2-0.1v-0.1v-0.1l0.1-0.1v-0.1c0-0.1,0-0.1,0-0.1
		s0-0.1-0.1-0.1c0.2-0.2,0.2-0.4,0.1-0.4v-0.2h0.1c0.1,0,0.1-0.1,0.1-0.3s0-0.3,0-0.3s0-0.1-0.1-0.1v-0.2c0.1,0,0.2-0.1,0.2-0.1
		s0-0.1-0.1-0.1c0.1-0.1,0.1-0.2,0.1-0.3c-0.1-0.1-0.1-0.2-0.1-0.3l0.1-0.1c0-0.1,0-0.1-0.1-0.2v-0.1c0,0,0,0,0.1-0.1
		c-0.1-0.2-0.1-0.4-0.1-0.4c0.1-0.1,0.2-0.1,0.2-0.2c0,0,0-0.1-0.1-0.1s-0.1,0-0.1-0.1c0.1-0.1,0.2-0.1,0.2-0.1c0-0.1,0-0.2,0-0.3
		s0-0.2,0-0.2s-0.1-0.1-0.2-0.1c0-0.1,0-0.1,0-0.2c0-0.1,0.1-0.2,0.1-0.3c0,0,0-0.1,0-0.3c0-0.1,0-0.2,0-0.3s-0.1-0.1-0.2-0.2
		c0-0.1,0-0.1,0.1-0.1l0.1-0.1c0,0,0-0.1,0-0.2c0,0,0-0.1,0-0.3c0-0.1,0-0.2,0-0.3C24,48.1,24,48,24,48s0-0.1,0-0.2
		c0-0.1,0-0.1-0.1-0.2s0-0.1-0.1-0.1s-0.1-0.1-0.1-0.1c0-0.1,0-0.2,0-0.2c-0.1,0-0.1,0-0.2,0h-0.1l0,0c0,0,0,0-0.1,0s-0.1,0-0.1-0.1
		s-0.1-0.2-0.1-0.2H23h-0.1c0-0.1,0-0.2,0-0.3s0-0.2,0-0.3s-0.1-0.1-0.2-0.2C22.6,46,22.6,46,22.5,46c-0.2-0.2-0.3-0.4-0.3-0.6v-0.1
		c0-0.2,0-0.3-0.1-0.4c0,0,0-0.1,0-0.2c0-0.1,0-0.2,0-0.2c0.1,0,0.1,0,0.2,0s0.2,0,0.2,0c0.1-0.2,0.1-0.3,0.2-0.3c0-0.1,0-0.2,0-0.2
		s0.1,0,0.2,0.1c0,0,0.2-0.1,0.4-0.2l0.1,0.1c0,0,0.1,0,0.1-0.1s0.1-0.1,0.1-0.1s0.1,0,0.1,0.1s0.1,0.1,0.1,0.1
		C24.3,43.9,24.3,43.9,24.4,43.8L24.4,43.8z M24.2,43.9C24.3,43.9,24.3,43.9,24.2,43.9c0.1-0.1,0.2-0.1,0.2-0.1l0.1,0.1
		c0,0.1,0,0.1,0,0.1h0.1h0.1c0,0,0,0,0,0.1l0.1,0.1h0.1l0.1,0.1h0.1c0.1,0.1,0.2,0.2,0.2,0.3c0.1,0,0.2,0,0.2,0.1
		c0.1,0.1,0.1,0.1,0.1,0.1s0,0,0-0.1s0-0.1,0-0.1s0.1,0.1,0.1,0.2c0,0.1,0,0.1,0.1,0.1c0,0,0,0.1,0.1,0.2c0,0.1,0.1,0.2,0.1,0.2
		c0.1,0,0.2,0.1,0.3,0.1c0,0.2,0.1,0.4,0.2,0.5c0,0,0,0.1,0.1,0.1v0.1c0.1,0.2,0.1,0.3,0.2,0.3c0,0.2,0,0.3,0.2,0.3
		c0,0,0,0.1-0.1,0.1c0,0.1-0.1,0.1,0,0.2c0,0,0.1,0,0.2,0c0,0.1,0,0.1,0,0.2c-0.1,0.1-0.1,0.2,0,0.2l0.1,0.1l0.1,0.1
		c0,0.1,0,0.2,0,0.3s0,0.2,0,0.3c0,0,0,0.1,0.1,0.1s0.1,0,0.1,0.1s0,0.3,0,0.5c0,0.3,0,0.4,0,0.4c0.1,0,0.1,0,0.1,0
		c0,0.1,0,0.1,0,0.2c0,0.1,0,0.2,0,0.2s0,0.1-0.1,0.1c0,0-0.1,0-0.1,0.1c0,0,0.1,0.1,0.2,0.1c0,0.1,0,0.1,0,0.2c0,0.1,0,0.2,0,0.4
		c0,0.3,0,0.5,0.2,0.5c0,0.1,0,0.2-0.1,0.2s-0.2,0-0.3,0.1l0.1,0.1c-0.1,0.1-0.1,0.3-0.1,0.7c0,0.3,0,0.6-0.1,0.7l0.1,0.1v0.1v0.1
		v0.1v0.1v0.1c-0.1,0.1-0.2,0.2-0.2,0.3c0,0,0,0.1,0,0.2c0,0.1,0.1,0.2,0.1,0.2s0,0.1-0.1,0.1l-0.1,0.1v0.1c0,0.1,0,0.1-0.1,0.1v0.1
		v0.1c-0.1,0.1-0.1,0.1-0.1,0.1V55c0,0,0,0,0,0.1c-0.1,0-0.1,0.1-0.1,0.3s0,0.3-0.1,0.3c0.1,0.1,0.1,0.2,0,0.4c0,0.1,0,0.2,0,0.2
		c-0.1,0.1-0.2,0.2-0.2,0.3v0.1c0,0,0,0,0,0.1c-0.1,0.1-0.1,0.1-0.1,0.1V57c0,0.1,0,0.1,0,0.1s-0.1,0.1-0.1,0.2l-0.1,0.3v0.1
		c0,0,0,0-0.1,0.1v0.1C26,58,26,58.1,26,58.2c0,0.5,0,0.7,0,1h-0.1l-0.1,0.1c-0.1,0-0.1,0.1-0.1,0.1c-0.1,0.2-0.3,0.5-0.7,0.8v0.1
		l-0.1,0.1c0,0-0.1,0-0.1,0.1c0,0,0,0.1,0,0.2c0,0.1,0,0.1-0.1,0.2h-0.1c-0.1,0.1-0.2,0.2-0.4,0.4c-0.2,0.2-0.3,0.3-0.4,0.4
		c-0.1,0-0.2,0-0.2,0c0,0.1,0,0.2,0,0.2c-0.2,0.1-0.3,0.2-0.3,0.4h-0.1c-0.1,0-0.2,0.1-0.2,0.2h-0.1c-0.1,0-0.1,0-0.1,0l-0.1,0.1
		v0.1c0,0,0,0-0.1,0c0,0-0.1,0-0.1,0.1c-0.1,0.1-0.2,0.1-0.3,0.1c0,0,0,0.1-0.1,0.1C22,63.1,22,63.1,22,63.2c-0.3,0-0.4,0.1-0.4,0.3
		c-0.1-0.1-0.1-0.1-0.2,0c-0.1,0-0.1,0.1-0.1,0.2h-0.1h-0.1c-0.1,0-0.3,0-0.5,0.1c-0.2,0-0.3,0-0.4,0s-0.1,0-0.2,0
		c-0.2,0.1-0.4,0.1-0.4-0.1c-0.1,0-0.1,0-0.2,0s-0.1,0-0.2,0c0,0-0.1,0-0.1,0.1c-0.1,0-0.1,0.1-0.2,0h-0.1c0,0,0,0-0.1,0
		c0,0,0,0-0.1,0h-0.1l-0.1-0.1h-0.1c0,0-0.1,0-0.1,0.1c0-0.1,0-0.2-0.1-0.2s-0.2-0.1-0.2-0.1v0.1v0.1c0,0-0.1,0-0.1-0.2
		c-0.1,0-0.1,0-0.1,0h-0.1v-0.1h-0.1c-0.1,0-0.1,0-0.1,0v-0.1v-0.1c-0.1,0-0.2,0-0.2,0C17.1,63,17,62.9,16.9,63
		c-0.2-0.1-0.2-0.2-0.2-0.3c0,0-0.1,0-0.2,0c0,0-0.1-0.1-0.1-0.2c0-0.1,0-0.1-0.1-0.2l-0.1,0.1c0,0-0.1-0.1-0.1-0.2
		c0-0.1-0.1-0.1-0.1-0.1h-0.1h-0.1l0,0V62c0,0-0.1-0.1-0.1-0.2c0-0.1-0.1-0.2-0.1-0.2s-0.1,0-0.3-0.2v-0.1c0,0-0.1-0.1-0.2-0.2
		c-0.1-0.1-0.2-0.2-0.2-0.2c0-0.1,0-0.1-0.1-0.2c0-0.1-0.1-0.2-0.1-0.2h-0.1l-0.1-0.4c0,0-0.1-0.2-0.2-0.4c-0.1-0.2-0.3-0.3-0.4-0.3
		c0.1-0.2,0.1-0.4,0-0.5c0,0,0-0.1,0-0.2c0-0.1-0.1-0.2-0.1-0.2v-0.1c0-0.1-0.1-0.1-0.1-0.1s0,0,0-0.1v-0.1c0,0,0,0,0-0.1h-0.1l0,0
		v-0.1h-0.1l-0.1-0.1c0-0.1,0-0.1,0-0.1v-0.1c0,0-0.1-0.1-0.1-0.3s-0.1-0.3-0.2-0.4H12c0.1-0.2,0.1-0.4,0-0.6
		c-0.1-0.3-0.2-0.4-0.2-0.5c0,0,0-0.1-0.1-0.1l-0.1-0.1v-0.1c0-0.1,0-0.1,0-0.1s0,0,0-0.1l-0.1-0.1c0,0,0-0.1,0-0.2
		c0-0.1,0-0.1-0.1-0.2l-0.1-0.4c0-0.2-0.1-0.4-0.1-0.4c0-0.1,0-0.2-0.1-0.3c0-0.1,0-0.2,0-0.3s0-0.2,0-0.3c0,0-0.1-0.1-0.2-0.1
		c0,0,0-0.1,0.1-0.2c0-0.3-0.1-0.5-0.2-0.6c0-0.3-0.1-0.4-0.1-0.5c0-0.4,0-0.7-0.2-0.7c0,0,0-0.1,0-0.2c0-0.1,0-0.2,0-0.2
		s0-0.1-0.1-0.1l-0.1-0.1c0,0,0-0.1,0-0.2c0-0.1,0-0.1,0-0.2s0-0.1-0.1-0.1h-0.1c0,0,0-0.1,0-0.2c0.1-0.2,0-0.3-0.2-0.3
		c0,0,0-0.1,0.1-0.1s0.1-0.1,0.1-0.1s0-0.3-0.1-0.8c0,0,0-0.1-0.1-0.1c0,0-0.1,0-0.1-0.1c0-0.5,0-0.9,0-1.1c0.1-0.2,0.1-0.4,0.1-0.5
		c0,0,0.1-0.1,0.1-0.2c0.1-0.1,0.1-0.2,0.2-0.2c0.1,0,0.1,0,0.2,0h0.1h0.1c0,0,0.1,0,0.1-0.1l0.1-0.1c0,0,0.1,0,0.2,0
		c0.1,0,0.2-0.1,0.2-0.1s0.1,0,0.2,0s0.2,0,0.2,0l0.1,0.1c0.1,0,0.1,0.1,0.2,0.1c0,0.1,0.1,0.1,0.2,0.2c0.1,0,0.2,0.1,0.2,0.1
		c0.2,0,0.3,0.1,0.4,0.3c0.1,0.2,0.2,0.3,0.3,0.3c0,0.2,0.1,0.4,0.3,0.7v0.1c0,0,0,0.1,0.1,0.1c0,0.1,0,0.2,0,0.3s0,0.2,0,0.3
		c0,0-0.1,0-0.1,0.1v0.1c0,0,0,0,0.1,0.1c0.1,0,0.1,0.1,0.1,0.1c0,0.3,0,0.5,0.1,0.5c0,0.2,0,0.3,0.1,0.4c0.1,0,0.1,0,0.1,0
		s0,0.1-0.1,0.1c0,0.1,0,0.2,0,0.3s0,0.2,0,0.3c0,0,0,0.1,0.1,0.1l0.1,0.1c0,0,0,0.1-0.1,0.1c0.1,0,0.1,0.1,0.1,0.3s0.1,0.3,0.1,0.3
		c0,0.1,0,0.2,0,0.3c0,0.4,0.1,0.5,0.2,0.6c0,0,0,0.1,0.1,0.3c-0.2,0.2-0.2,0.3,0,0.4c0,0.4,0.1,0.5,0.2,0.5c-0.1,0.1-0.1,0.2,0,0.4
		s0.1,0.4,0.1,0.4v0.1c0,0,0,0.1,0.1,0.1s0.1,0.1,0.1,0.1v0.1c0,0.1,0,0.1,0,0.1s0,0.1,0.1,0.1L15,55c0,0.2,0,0.3,0,0.4
		c0.1,0.1,0.1,0.1,0.1,0.1s0.1,0.1,0.1,0.2c0,0.1,0.1,0.2,0.1,0.2V56c0,0,0,0.1,0.1,0.2c0,0.1,0.1,0.3,0.2,0.6c0,0.1,0,0.1,0.1,0.2
		c0,0.1,0.1,0.2,0.1,0.2l0.1,0.1c0,0,0,0.1,0,0.2c0,0.1,0,0.1,0,0.1s0,0.1,0.1,0.1v0.1c0,0,0.1,0.1,0.2,0.2c0,0.1,0,0.2,0.1,0.3v0.1
		c0,0,0,0.1,0.1,0.1c0,0.1,0,0.1,0.1,0.2c0.1,0.1,0.1,0.1,0.1,0.1v0.1V59l0.1,0.1v0.1c0,0,0,0.1,0.1,0.1l0.1,0.1c0,0,0,0,0,0.1
		c0,0,0,0.1,0.1,0.1c0,0,0,0.1,0.1,0.1s0.1,0.1,0.1,0.1s0,0.1,0.1,0.1l0.1,0.1h0.1h0.1c0,0,0,0.1,0.1,0.1c0,0.1,0.1,0.1,0.1,0.1
		s0,0.1,0.1,0.1l0.1,0.1h0.1c0.1,0.1,0.2,0.1,0.2,0.1c0.1,0,0.1,0,0.1,0c0.1,0.2,0.4,0.2,0.9,0.1v-0.1c0.1,0,0.2,0,0.3,0
		c0.2,0,0.3,0,0.3-0.1c0.2,0.1,0.5,0,0.7-0.3c0.1,0,0.2-0.1,0.3-0.2c0.1-0.1,0.2-0.2,0.3-0.2l0.1-0.2h0.1c0,0,0.1-0.1,0.2-0.2
		c0.1-0.1,0.2-0.2,0.3-0.3c0.1-0.1,0.1-0.2,0.1-0.3c0.1-0.1,0.2-0.2,0.2-0.2v-0.2c0.3-0.2,0.4-0.3,0.4-0.5c0,0,0.1-0.1,0.2-0.1
		c0,0,0-0.1,0-0.2c0,0,0-0.1,0.1-0.2c0-0.1,0-0.2,0-0.2c0.1,0,0.2-0.1,0.2-0.1s0-0.1,0-0.2c0-0.1,0-0.2,0-0.2
		c0.1-0.1,0.2-0.1,0.2-0.1v-0.1v-0.1l0.1-0.1v-0.1c0-0.1,0-0.1,0-0.1s0-0.1-0.1-0.1c0.2-0.2,0.2-0.4,0.1-0.4v-0.2h0.1
		c0.1,0,0.1-0.1,0.1-0.3s0-0.3,0-0.3s0-0.1-0.1-0.1v-0.2c0.1,0,0.2-0.1,0.2-0.1s0-0.1-0.1-0.1c0.1-0.1,0.1-0.2,0.1-0.3
		c-0.1-0.1-0.1-0.2-0.1-0.3l0.1-0.1c0-0.1,0-0.1-0.1-0.2c0,0,0-0.1,0.1-0.1c0,0,0,0,0-0.1c-0.1-0.2-0.1-0.4-0.1-0.4
		c0.1-0.1,0.2-0.1,0.2-0.2c0,0,0-0.1-0.1-0.1s-0.1,0-0.1-0.1c0.1-0.1,0.2-0.1,0.2-0.1c0-0.1,0-0.2,0-0.3s0-0.2,0-0.2
		s-0.1-0.1-0.2-0.1c0-0.1,0-0.1,0-0.2c0-0.1,0.1-0.2,0.1-0.3c0,0,0-0.1,0-0.3c0-0.1,0-0.2,0-0.3s-0.1-0.1-0.2-0.2
		c0-0.1,0-0.1,0.1-0.1l0.1-0.1c0,0,0-0.1,0-0.2c0,0,0-0.1,0-0.3c0-0.1,0-0.2,0-0.3c0,0,0-0.1-0.1-0.1l-0.1-0.1c0,0,0-0.1,0-0.2
		c0-0.1,0-0.1-0.1-0.2s0-0.1-0.1-0.1s-0.1-0.1-0.1-0.1c0-0.1,0-0.2,0-0.2c-0.1,0-0.1,0-0.2,0h-0.1l0,0c0,0,0,0-0.1,0s-0.1,0-0.1-0.1
		S22.6,48,22.6,48h-0.1h-0.1c0-0.1,0-0.2,0-0.3s0-0.2,0-0.3s-0.1-0.1-0.2-0.2c-0.1-0.1-0.1-0.1-0.2-0.1c-0.2-0.2-0.3-0.4-0.3-0.6
		v-0.1c0-0.2,0-0.3-0.1-0.4c0,0,0-0.1,0-0.2c0-0.1,0-0.2,0-0.2c0.1,0,0.1,0,0.2,0s0.2,0,0.2,0c0.1-0.2,0.1-0.3,0.2-0.3
		c0-0.1,0-0.2,0-0.2s0.1,0,0.2,0.1c0,0,0.2-0.1,0.4-0.2l0.1,0.1c0,0,0.1,0,0.1-0.1s0.1-0.1,0.1-0.1C24.1,43.7,24.1,43.8,24.2,43.9
		L24.2,43.9z"/>
	<path fill="#2B5799" d="M43.9,36.9c0,0.1,0,0.2,0,0.2c0.1,0,0.1,0,0.2,0c0.1,0,0.1,0,0.2,0v0.1h0.1h0.1c0.1,0,0.1,0,0.1,0
		s0.1,0,0.1,0.1l0.1,0.1h0.1v0.1H45c0.2-0.1,0.3-0.1,0.4,0l0.1,0.2c0.2,0,0.4,0.1,0.4,0.1C46,38,46,38,46.1,38
		c0.2,0.2,0.3,0.3,0.3,0.3s0,0.1,0,0.3v0.1c0,0.1,0,0.1,0,0.1s0,0.1,0.1,0.1l0.1,0.1l-0.1,0.1c0,0-0.1,0-0.1,0.1c0,0,0,0,0,0.1
		s0,0.2,0,0.2s0,0,0,0.1v0.1c0,0,0,0.1,0,0.2c0,0.1,0,0.1,0.1,0.2c0.1,0.1,0.1,0.1,0.1,0.1s0,0-0.1,0h-0.1c0,0,0,0.1,0,0.2h0.1
		c0,0,0,0,0.1,0c0,0.1,0,0.1-0.1,0.1l0,0c0,0.1,0,0.2,0,0.3v0.1c0,0.1,0,0.2,0,0.3c0,0.2,0,0.3,0.1,0.3c0,0,0,0.1-0.1,0.1
		c0,0,0,0,0,0.1s0,0.2,0,0.4s0,0.3,0,0.4c0,0,0,0.1,0.1,0.1v0.1c0,0.1,0,0.2,0,0.3s0,0.2,0,0.2l0.1,0.1v0.1c0,0,0,0-0.1,0
		c-0.1,0.1-0.1,0.2,0,0.4c0,0,0,0.1,0,0.2c0,0.1,0,0.2,0,0.2c0.1,0.2,0.1,0.4,0.1,0.4v0.1v0.1c0,0,0,0.1,0.1,0.1c0,0.1,0,0.1,0,0.1
		c0,0.1,0,0.2,0,0.2s0,0,0.1,0s0.1,0,0.1,0l0,0c0,0,0,0-0.1,0c0,0,0,0-0.1,0v0.1v0.1h0.1c0.1,0.1,0,0.2-0.1,0.3c0,0,0,0.2,0,0.4
		s0,0.3,0.1,0.4c-0.1,0.1-0.1,0.2-0.1,0.3s0.1,0.2,0.2,0.1c0,0.1,0,0.1,0,0.2h-0.1c0,0.6,0.1,1,0.1,1s0,0.1-0.1,0.1
		c0,0.1,0,0.2,0,0.2s0,0.1,0.1,0.1l0.1,0.1c0,0.1,0,0.2,0,0.5c0,0.2,0,0.4,0,0.5h0.1c0,0.1,0,0.2,0,0.3s0,0.2,0,0.4s0,0.3,0,0.4v0.7
		c0,0.2,0,0.3,0.1,0.3v0.1c0,0-0.1,0-0.1,0.1l0.1,0.1c0,0,0,0.1-0.1,0.1c0.1,0.1,0.1,0.2,0.1,0.2c-0.1,0-0.2,0-0.2,0.1
		s0,0.1,0.1,0.2c0,0.1,0,0.2,0,0.3c0,0.3,0.1,0.5,0.1,0.5c0,0.6,0.1,1,0.2,1.1c0,0.4,0,0.6,0,0.7v0.1l0.1,0.1c0,0,0,0.1,0,0.2
		c0,0.1,0,0.2,0,0.2s0,0.1,0.1,0.1l0.1,0.1v0.1l0,0l0,0c-0.1,0.3,0,0.4,0.1,0.5c0,0.2,0,0.3,0.1,0.5s0.1,0.4,0.1,0.5
		c0.2,0.2,0.2,0.3,0.1,0.4c0,0.1,0.1,0.1,0.1,0.2c0.1,0.1,0.1,0.2,0.1,0.3s0,0.2,0,0.4s0,0.3,0,0.3l0.1,0.1v0.1l-0.1,0.1
		C49,60.7,49,60.8,49,61c0,0-0.1,0.1-0.2,0.1c-0.1,0-0.2,0-0.2,0s0,0.1-0.1,0.1c-0.1,0.1-0.1,0.1-0.1,0.2c-0.1,0.1-0.2,0.2-0.2,0.3
		c-0.1,0-0.2,0-0.2-0.1c-0.1,0-0.1,0.1-0.1,0.2c-0.2,0-0.4,0-0.4,0c-0.1-0.1-0.2-0.1-0.2-0.1c-0.1,0-0.1,0-0.2,0.1
		c-0.1,0-0.1,0.1-0.2,0.1l0,0v-0.1c0,0,0-0.1-0.1-0.1s-0.1-0.1-0.1-0.2c-0.1,0-0.1-0.1-0.2-0.2c-0.1-0.1-0.2-0.2-0.2-0.2
		S46.2,61,46.1,61C46,61,46,60.9,46,60.9c-0.1,0-0.1,0-0.1,0s0,0-0.1,0c0-0.2-0.1-0.3-0.1-0.4h-0.1h-0.1c0-0.1-0.1-0.2-0.2-0.2
		c-0.1-0.1-0.1-0.1-0.2-0.1c0,0,0-0.1-0.1-0.1C44.9,60,44.9,60,44.8,60c-0.1,0-0.2-0.1-0.3-0.2c-0.1-0.1-0.2-0.1-0.3-0.1
		c0-0.1,0-0.1-0.1-0.2c-0.1-0.1-0.1-0.1-0.2-0.1c0,0.1-0.1,0.1-0.1,0.1c-0.1,0-0.1-0.1-0.1-0.2h-0.1c-0.1-0.1-0.4-0.3-0.9-0.5
		c-0.1-0.1-0.2-0.3-0.4-0.4c-0.1,0-0.2-0.1-0.2-0.1H42h-0.1V58c-0.1-0.1-0.3-0.3-0.6-0.5s-0.5-0.3-0.6-0.4h-0.1h-0.1c0,0,0,0,0-0.1
		c-0.3-0.2-0.5-0.4-0.6-0.4l-0.1-0.1c-0.1-0.1-0.2-0.1-0.2-0.1c-0.1,0.1-0.1,0.1-0.1,0v-0.1l-0.1-0.1c-0.1,0-0.1-0.1-0.1-0.1h-0.1
		h-0.1c0-0.1-0.1-0.2-0.2-0.3c-0.1,0-0.1,0-0.1,0s0,0,0-0.1c0,0,0-0.1-0.1-0.1c0,0-0.1,0-0.1,0.1c0,0-0.1,0.1-0.1,0v-0.1
		c0-0.1,0-0.1,0-0.1v-0.1c0,0-0.1,0-0.1-0.1s-0.1-0.2-0.2-0.3c-0.1-0.1-0.2-0.2-0.3-0.2c-0.1-0.1-0.2-0.2-0.5-0.2v-0.1
		c-0.3-0.3-0.5-0.4-0.5-0.5c-0.1,0-0.2-0.1-0.4-0.2c0,0,0-0.1-0.1-0.2h-0.1c0,0,0,0-0.1,0v-0.1c-0.1,0-0.2-0.1-0.4-0.3
		c-0.1-0.2-0.3-0.3-0.4-0.3c0,0-0.1,0.2-0.1,0.4v0.5c0,0.1-0.1,0.1-0.1,0.2c-0.1,0.2-0.1,0.3,0,0.4h0.1c0,0,0.1,0,0.1,0.1
		c-0.1,0-0.2,0.1-0.2,0.1s0,0.1,0,0.2c0,0.1,0,0.1,0,0.1V55c0,0.1,0,0.1-0.1,0.1c0,0.1,0,0.2,0.1,0.3c0,0.1,0,0.2,0,0.3
		c0,0,0,0.1-0.1,0.2c0,0.1,0,0.1,0,0.2c0,0.1,0,0.2,0,0.2s0,0.1,0,0.3s0,0.3,0,0.3C35,57,35,57,35,57c0,0.1,0.1,0.1,0.2,0.2v0.1
		h-0.1c-0.1,0.1,0,0.2,0,0.3s0,0.3,0,0.5s0,0.4,0,0.5s0.1,0.2,0.1,0.2c0,0.1,0,0.1,0,0.2c0,0.1,0,0.2,0,0.2c-0.1,0.2-0.1,0.3,0,0.3
		h0.1c0,0.1-0.1,0.1-0.1,0.1s0,0,0,0.1v0.1c0,0,0,0.1-0.1,0.2c0,0,0,0.1,0.1,0.2v1c0,0-0.1,0.2-0.1,0.4v0.1c0,0,0,0.1,0.1,0.2
		c0.1,0.1,0.1,0.2,0,0.2l-0.1,0.1c0,0.1,0,0.2-0.1,0.3s-0.1,0.2-0.1,0.3l0.1,0.1V63c0,0,0,0-0.1,0c0,0-0.1,0-0.1,0.1s0,0.1-0.1,0.2
		c-0.1-0.2-0.3-0.3-0.4-0.2v0.2c0,0,0,0.1-0.1,0.1s-0.1,0-0.1,0s0,0-0.1,0c-0.1,0.1-0.1,0.1-0.2,0c-0.5,0.1-0.8,0.1-1,0l-0.1-0.1
		l-0.1-0.1c-0.1,0-0.1,0-0.1,0s-0.1-0.1-0.2-0.2c-0.1-0.1-0.2-0.2-0.2-0.3c0,0-0.2-0.1-0.4-0.3c0-0.1,0-0.1-0.1-0.2v-0.1v-0.2v-0.1
		v-0.1c0-0.1-0.1-0.1-0.1-0.1h-0.1l0.1-0.1c0.1-0.1,0.2-0.4,0.1-0.7c0,0,0-0.1-0.1-0.1c0-0.1,0-0.1,0.1-0.2c0-0.1,0-0.2,0-0.2v-0.1
		l-0.1-0.1c0-0.3,0-0.4,0-0.4c0-0.1,0-0.2,0-0.3s0-0.2,0-0.3V59c0,0,0,0,0.1,0c0,0,0-0.1-0.1-0.2c0-0.1,0-0.2,0-0.2s0-0.1-0.1-0.1
		c0,0-0.1,0-0.1-0.1c0,0,0-0.1,0-0.2c0-0.1,0-0.1,0-0.2v-0.1c0,0-0.1,0-0.1-0.1c0,0,0,0,0.1,0c0.1-0.2,0-0.4-0.1-0.6h0.1
		c0-0.1,0-0.2,0-0.5s0-0.5,0.1-0.5c-0.1,0-0.1-0.1-0.1-0.2c0-0.2,0-0.3,0-0.3s0-0.1,0-0.2c0-0.1-0.1-0.1-0.1-0.2
		c0-0.1,0.1-0.1,0.1-0.1c0-0.1,0-0.2-0.1-0.4s-0.1-0.4,0-0.5v-0.1v-0.1c0,0,0-0.1,0.1-0.2c0.1-0.2,0.1-0.4,0.1-0.5
		c-0.1-0.1-0.1-0.2-0.1-0.2v-0.1c0-0.1,0-0.2,0-0.3c0-0.2,0-0.3,0-0.4l-0.1-0.1c0-0.1,0-0.2,0-0.3c0.1-0.1,0.1-0.2,0.1-0.3
		c0,0-0.1-0.1-0.1-0.2c-0.1-0.1-0.1-0.2,0-0.3v-0.1V51v-0.1c0-0.1,0-0.1,0-0.1l-0.1-0.1L31,50.6h0.1c0-0.1-0.1-0.2-0.1-0.3
		s0-0.2,0-0.2V50c0-0.2-0.1-0.3-0.1-0.3H31v-0.1v-0.1v-0.1c0-0.1-0.1-0.2-0.1-0.4s0-0.4-0.1-0.4c0.1-0.1,0.1-0.2-0.1-0.4v-0.1
		c0,0,0,0,0-0.1l-0.1-0.1c-0.1,0-0.1-0.1-0.1-0.1c0-0.2,0-0.4-0.1-0.4c0-0.1,0-0.2-0.1-0.4c0-0.1,0-0.2,0-0.3c0,0,0-0.1,0.1-0.1
		v-0.1c0-0.1,0-0.2,0-0.3c0,0,0,0,0-0.1s0-0.1,0-0.2c0.1-0.2,0.2-0.3,0.3-0.3c0.1-0.4,0.3-0.6,0.6-0.7c0.2-0.2,0.2-0.3,0.2-0.3
		s0.1-0.1,0.3-0.1c0,0,0.1,0,0.1-0.1c0.1-0.1,0.1-0.1,0.1-0.1h0.1h0.1c0,0,0.1,0,0.1-0.1c0,0,0.1-0.1,0.1,0c0,0.2,0.1,0.4,0.4,0.4
		c0.3,0,0.4,0,0.4,0l0,0c0,0,0,0,0,0.1c0.1,0,0.2,0.1,0.3,0.2c0.1,0.1,0.2,0.1,0.2,0.1l0.1,0.1c0.1,0,0.3,0.2,0.4,0.5
		c0,0.2,0.1,0.3,0.1,0.3c0.1,0,0.1,0,0.1,0s0,0.1-0.1,0.1c0,0-0.1,0-0.1,0.1c0,0.3,0.1,0.4,0.2,0.4v0.1v0.1c0,0,0,0.1,0.1,0.1
		l0.1,0.1c0,0.1,0,0.2,0,0.2s0,0,0.1,0.1v0.1v0.1l0.1,0.1l0.1,0.1l0,0c0,0,0,0.1,0.1,0.1h0.1c0,0.1,0,0.1,0,0.2
		c0,0.1,0.1,0.2,0.2,0.2c0,0.1,0.1,0.3,0.4,0.6c0,0.2,0.1,0.3,0.3,0.5c0,0.1,0,0.2,0,0.2c0.2,0.1,0.3,0.2,0.4,0.4
		c0.1,0.1,0.2,0.2,0.4,0.4s0.3,0.3,0.4,0.4c0.1,0.2,0.4,0.5,0.8,0.8v0.1c0,0.1,0.1,0.1,0.2,0.2c0.1,0.1,0.2,0.2,0.3,0.2s0.2,0,0.2,0
		V52c0,0,0,0,0,0.1s0.1,0.1,0.2,0.1c0.2,0.2,0.3,0.4,0.5,0.4c0.1,0.1,0.2,0.2,0.2,0.2c0.4,0.4,0.7,0.7,0.8,0.7v0.1
		c0,0,0.1,0,0.1,0.1l0,0h0.1c0.1,0.1,0.2,0.2,0.3,0.3s0.3,0.2,0.4,0.3c0.1,0,0.1,0,0.2,0.1c0.1,0.1,0.2,0.1,0.2,0.1l0,0h0.1
		c0,0,0,0,0.1,0.1l0.1,0.1l0,0c0,0,0,0,0.1,0c0,0,0.1,0,0.2,0.1c0.1,0,0.2,0,0.2,0.1s0.1,0.1,0.1,0.1h0.1c0,0,0,0,0.1,0
		c0,0.1,0.1,0.1,0.1,0.2c0.1,0,0.1,0,0.1,0c0.1,0.1,0.2,0.2,0.3,0.3s0.2,0.2,0.3,0.2s0.1,0,0.1,0s0,0.1,0.1,0.1
		c0.1,0.1,0.1,0.1,0.2,0.1c0,0,0.1,0.1,0.3,0.2c0.1,0,0.1-0.1,0.1-0.2c0-0.1-0.1-0.2-0.1-0.3c0.1-0.2,0.1-0.3,0-0.3
		c0-0.1,0-0.2,0-0.3s0-0.2,0-0.2l-0.1-0.1c-0.1-0.1-0.1-0.3,0-0.4c-0.1-0.2,0-0.4,0.1-0.4c-0.1,0-0.1-0.1,0-0.2c0-0.1,0-0.2,0-0.2
		v-0.1c0-0.1-0.1-0.1-0.1-0.1c0-0.1,0-0.1,0-0.2c0-0.1,0-0.2,0.1-0.3c-0.2-0.1-0.1-0.2,0-0.3l-0.1-0.1c0,0,0,0,0-0.1
		c0.1-0.1,0.1-0.2,0.1-0.3h-0.1h-0.1c-0.2-0.2-0.1-0.3,0.2-0.4c0,0,0-0.2-0.1-0.5h-0.1c0,0,0,0.1-0.1,0.1c0,0-0.1-0.1-0.1-0.3
		s-0.1-0.3-0.1-0.3s0-0.1,0-0.3s0-0.3,0.1-0.3l0,0c0,0,0,0,0.1,0s0.1,0,0.1-0.1s0-0.1,0-0.1s-0.1,0-0.1,0.1L43.9,50
		c0,0,0-0.1,0.1-0.3c0.1,0,0.2-0.1,0.2-0.1c0.1-0.2,0-0.3-0.1-0.3v-0.1c0,0,0.1,0,0.1-0.1C44.1,49,44,48.9,44,48.7
		c0,0,0-0.1,0.1-0.1l0.1-0.1l0-0.5c0-0.2,0-0.3,0.1-0.5c0,0,0-0.1,0-0.2c0-0.1,0-0.2,0-0.2s-0.1-0.1-0.1-0.2c0-0.1-0.1-0.1-0.1-0.2
		c0-0.2,0-0.3,0-0.3c-0.1,0-0.1,0-0.1,0v-0.1l-0.1-0.1c0.1,0,0.1,0,0.2,0v-0.4v-0.1l0,0c0,0,0-0.1,0-0.2c0-0.1,0-0.1,0-0.1v-0.1
		v-0.1v-0.1V45c0,0,0-0.1,0.1-0.2c0-0.1-0.1-0.1-0.1-0.2c-0.1,0-0.1-0.1-0.1-0.1s0-0.1,0.1-0.2C44,44,44,44,44,43.9
		c-0.2-0.2-0.2-0.4,0-0.5c0,0,0-0.1,0-0.3c0-0.1-0.1-0.1-0.2-0.2c-0.2-0.2-0.3-0.3-0.2-0.5h0.1h0.1c0-0.1,0-0.1-0.1-0.1
		c0,0,0-0.1,0.1-0.2c-0.1-0.2-0.1-0.3-0.2-0.3h-0.1c0,0,0,0-0.1,0s-0.1-0.1,0-0.2c0-0.1,0-0.1,0-0.1l-0.1-0.1c0,0,0,0,0-0.1
		c-0.1-0.1-0.1-0.2,0-0.3s0.1-0.2,0.1-0.3c0,0-0.1-0.1-0.2-0.1c0,0,0-0.1,0.1-0.2c0-0.3,0-0.5-0.1-0.6c0-0.1,0.1-0.1,0.1-0.1v-0.1
		v-0.1v-0.1c0,0,0,0,0-0.1s0-0.1,0-0.2c-0.1-0.3-0.1-0.4-0.2-0.4c0-0.1,0-0.2,0-0.5s0-0.4,0-0.5h0.1c0,0,0,0,0.1,0
		c0.1-0.2,0.2-0.3,0.2-0.3c0-0.1,0-0.3,0.2-0.5c0-0.1,0-0.2,0-0.2C43.7,36.8,43.8,36.8,43.9,36.9z M43.6,36.8c0,0,0.1,0,0.3,0
		c0,0.1,0,0.2,0,0.2c0.1,0,0.1,0,0.2,0c0.1,0,0.1,0,0.2,0v0.1h0.1h0.1c0.1,0,0.1,0,0.1,0s0.1,0,0.1,0.1l0.1,0.1h0.1v0.1H45
		c0.2-0.1,0.3-0.1,0.4,0l0.1,0.2c0.2,0,0.4,0.1,0.4,0.1c0.1,0.2,0.1,0.2,0.2,0.2c0.2,0.2,0.3,0.3,0.3,0.3s0,0.1,0,0.3v0.1
		c0,0.1,0,0.1,0,0.1s0,0.1,0.1,0.1l0.1,0.1L46.5,39c0,0-0.1,0-0.1,0.1c0,0,0,0,0,0.1s0,0.2,0,0.2s0,0,0,0.1v0.1v0.1v0.1
		c0,0.1,0,0.1,0.1,0.2c0.1,0.1,0.1,0.1,0.1,0.1s0,0-0.1,0h-0.1c0,0,0,0.1,0,0.2h0.1c0,0,0,0,0.1,0c0,0.1,0,0.1-0.1,0.1l0,0
		c0,0.1,0,0.2,0,0.3v0.1c0,0.1,0,0.2,0,0.3c0,0.2,0,0.3,0.1,0.3c0,0,0,0.1-0.1,0.1c0,0,0,0,0,0.1s0,0.2,0,0.4s0,0.3,0,0.3
		c0,0.1,0,0.1,0.1,0.2v0.1c0,0.1,0,0.2,0,0.3s0,0.2,0,0.2l0.1,0.1c0,0.1,0,0.1-0.1,0.1c-0.1,0.1-0.1,0.2,0,0.4c0,0,0,0.1,0,0.2
		c0,0.1,0,0.2,0,0.2c0.1,0.2,0.1,0.4,0.1,0.4v0.1v0.1c0,0,0,0.1,0.1,0.1c0,0.1,0,0.1,0,0.1c0,0.1,0,0.2,0,0.2s0,0,0.1,0s0.1,0,0.1,0
		l0,0c0,0,0,0-0.1,0c0,0,0,0-0.1,0v0.1v0.1h0.1c0.1,0.1,0,0.2-0.1,0.3c0,0,0,0.2,0,0.4s0,0.3,0.1,0.4c-0.1,0.1-0.1,0.2-0.1,0.3
		s0.1,0.2,0.2,0.1c0,0.1,0,0.1,0,0.2h-0.1c0,0.6,0.1,1,0.1,1s0,0.1-0.1,0.1c0,0.1,0,0.2,0,0.2s0,0.1,0.1,0.1l0.1,0.1
		c0,0.1,0,0.2,0,0.5c0,0.2,0,0.4,0,0.5h0.1c0,0.1,0,0.2,0,0.3s0,0.2,0,0.4s0,0.3,0,0.4v0.7c0,0.2,0,0.3,0.1,0.3v0.1
		c0,0-0.1,0-0.1,0.1l0.1,0.1c0,0,0,0.1-0.1,0.1c0.1,0.1,0.1,0.2,0.1,0.2c-0.1,0-0.2,0-0.2,0.1s0,0.1,0.1,0.2c0,0.1,0,0.2,0,0.3
		c0,0.3,0.1,0.5,0.1,0.5c0,0.6,0.1,1,0.2,1.1c0,0.4,0,0.6,0,0.7v0.1l0.1,0.1c0,0,0,0.1,0,0.2c0,0.1,0,0.2,0,0.2s0,0.1,0.1,0.1
		l0.1,0.1V56l0,0l0,0c-0.1,0.3,0,0.4,0.1,0.5c0,0.2,0,0.3,0.1,0.5s0.1,0.4,0.1,0.5c0.2,0.2,0.2,0.3,0.1,0.4c0,0.1,0.1,0.1,0.1,0.2
		c0.1,0.1,0.1,0.2,0.1,0.3s0,0.2,0,0.4s0,0.3,0,0.3l0.1,0.1v0.1l-0.1,0.1C49,60.7,49,60.8,49,61c0,0-0.1,0.1-0.2,0.1
		c-0.1,0-0.2,0-0.2,0s0,0.1-0.1,0.1c-0.1,0.1-0.1,0.1-0.1,0.2c-0.1,0.1-0.2,0.2-0.2,0.3c-0.1,0-0.2,0-0.2-0.1
		c-0.1,0-0.1,0.1-0.1,0.2c-0.2,0-0.4,0-0.4,0c-0.1-0.1-0.2-0.1-0.2-0.1c-0.1,0-0.1,0-0.2,0.1c-0.1,0-0.1,0.1-0.2,0.1l0,0v-0.1
		c0,0,0-0.1-0.1-0.1s-0.1-0.1-0.1-0.2c-0.1,0-0.1-0.1-0.2-0.2c-0.1-0.1-0.2-0.2-0.2-0.2S46.2,61,46.1,61C46,61,46,60.9,46,60.9
		c-0.1,0-0.1,0-0.1,0s0,0-0.1,0c0-0.2-0.1-0.3-0.1-0.4h-0.1h-0.1c0-0.1-0.1-0.2-0.2-0.2c-0.1-0.1-0.1-0.1-0.2-0.1c0,0,0-0.1-0.1-0.1
		C44.9,60,44.9,60,44.8,60c-0.1,0-0.2-0.1-0.3-0.2c-0.1-0.1-0.2-0.1-0.3-0.1c0-0.1,0-0.2-0.1-0.2s-0.1-0.1-0.2-0.1
		c0,0.1-0.1,0.1-0.1,0.1c-0.1,0-0.1-0.1-0.1-0.2h-0.1c-0.1-0.1-0.4-0.3-0.9-0.5c-0.1-0.1-0.2-0.3-0.4-0.4c-0.1,0-0.2-0.1-0.2-0.1H42
		h-0.1V58c-0.1-0.1-0.3-0.3-0.6-0.5s-0.5-0.3-0.6-0.4h-0.1h-0.1c0,0,0,0,0-0.1c-0.3-0.2-0.5-0.4-0.6-0.4l-0.1-0.1
		c-0.1-0.1-0.2-0.1-0.2-0.1c-0.1,0.1-0.1,0.1-0.1,0v-0.1l-0.1-0.1c-0.1,0-0.1-0.1-0.1-0.1h-0.1h-0.1c0-0.1-0.1-0.2-0.2-0.3h-0.1l0,0
		c0-0.1-0.1-0.1-0.1-0.1s-0.1,0-0.1,0.1c0,0-0.1,0.1-0.1,0v-0.1c0-0.1,0-0.1,0-0.1v-0.1c0,0-0.1,0-0.1-0.1s-0.1-0.2-0.2-0.3
		c-0.1-0.1-0.2-0.2-0.3-0.2c-0.1-0.1-0.2-0.2-0.5-0.2v-0.1c-0.3-0.3-0.5-0.4-0.5-0.5c-0.1,0-0.2-0.1-0.4-0.2c0,0,0-0.1-0.1-0.2h-0.1
		c0,0,0,0-0.1,0v-0.1c-0.1,0-0.2-0.1-0.4-0.3c-0.1-0.2-0.3-0.3-0.4-0.3c0,0-0.1,0.2-0.1,0.4v0.5c0,0.1-0.1,0.1-0.1,0.2
		c-0.1,0.2-0.1,0.3,0,0.4h0.1c0,0,0.1,0,0.1,0.1c-0.1,0-0.2,0.1-0.2,0.1s0,0.1,0,0.2c0,0.1,0,0.1,0,0.1v0.1c0,0.1,0,0.1-0.1,0.1
		c0,0.1,0,0.2,0.1,0.3c0,0.1,0,0.2,0,0.3c0,0,0,0.1-0.1,0.2c0,0.1,0,0.1,0,0.2c0,0.1,0,0.2,0,0.2s0,0.1,0,0.3s0,0.3,0,0.3
		C35,57.1,35,57.1,35,57.1c0,0.1,0.1,0.1,0.2,0.2v0.1h-0.1c-0.1,0.1,0,0.2,0,0.3s0,0.3,0,0.5s0,0.4,0,0.5s0.1,0.2,0.1,0.2
		c0,0.1,0,0.1,0,0.2c0,0.1,0,0.2,0,0.2c-0.1,0.2-0.1,0.3,0,0.3h0.1c0,0.1-0.1,0.1-0.1,0.1s0,0,0,0.1s0,0.1,0,0.1s0,0.1-0.1,0.2
		c0,0,0,0.1,0.1,0.2v1c0,0-0.1,0.2-0.1,0.4v0.1c0,0,0,0.1,0.1,0.2c0.1,0.1,0.1,0.2,0,0.2l-0.1,0.1c0,0.1,0,0.2-0.1,0.3
		s-0.1,0.2-0.1,0.3L35,63v0.1c0,0,0,0-0.1,0c0,0-0.1,0-0.1,0.1s0,0.1-0.1,0.2c-0.1-0.2-0.3-0.3-0.4-0.2v0.2c0,0,0,0.1-0.1,0.1
		s-0.1,0-0.1,0s0,0-0.1,0c-0.1,0.1-0.1,0.1-0.2,0c-0.5,0.1-0.8,0.1-1,0l-0.1-0.1l-0.1-0.1c-0.1,0-0.1,0-0.1,0s-0.1-0.1-0.2-0.2
		c-0.1-0.1-0.2-0.2-0.2-0.3c0,0-0.2-0.1-0.4-0.3c0-0.1,0-0.1-0.1-0.2v-0.1V62v-0.1v-0.1c0-0.1-0.1-0.1-0.1-0.1h-0.1l0.1-0.1
		c0.1-0.1,0.2-0.4,0.1-0.7c0,0,0-0.1-0.1-0.1c0-0.1,0-0.1,0.1-0.2c0-0.1,0-0.2,0-0.2v-0.1l-0.1-0.1c0-0.3,0-0.4,0-0.4
		c0-0.1,0-0.2,0-0.3s0-0.2,0-0.3v-0.1c0,0,0,0,0.1,0c0,0,0-0.1-0.1-0.2c0-0.1,0-0.2,0-0.2s0-0.1-0.1-0.1c0,0-0.1,0-0.1-0.1
		c0,0,0-0.1,0-0.2c0-0.1,0-0.1,0-0.2V58c0,0-0.1,0-0.1-0.1c0,0,0,0,0.1,0c0.1-0.2,0-0.4-0.1-0.6h0.1c0-0.1,0-0.2,0-0.5
		s0-0.5,0.1-0.5c-0.1,0-0.1-0.1-0.1-0.2c0-0.2,0-0.3,0-0.3s0-0.1,0-0.2c0-0.1-0.1-0.1-0.1-0.2c0-0.1,0.1-0.1,0.1-0.1
		c0-0.1,0-0.2-0.1-0.4s0-0.4,0.1-0.5l-0.1-0.1v-0.1c0,0,0-0.1,0.1-0.2c0.1-0.2,0.1-0.4,0.1-0.5c-0.1-0.1-0.1-0.2-0.1-0.2
		c0-0.1,0-0.2,0-0.2s0-0.1,0-0.3s0-0.3,0-0.4l-0.1-0.1c0-0.1,0-0.2,0-0.3c0.1-0.1,0.1-0.2,0.1-0.3c0,0-0.1-0.1-0.1-0.2
		c-0.1-0.1-0.1-0.2,0-0.3v-0.1V51v-0.1c0-0.1,0-0.1,0-0.1l-0.1-0.1L31,50.6h0.1c0-0.1-0.1-0.2-0.1-0.3s0-0.2,0-0.2V50
		c0-0.2-0.1-0.3-0.1-0.3H31v-0.1v-0.1v-0.1c0-0.1-0.1-0.2-0.1-0.4s0-0.4-0.1-0.4c0.1-0.1,0.1-0.2-0.1-0.4v-0.1c0,0,0,0,0-0.1
		l-0.1-0.1c-0.1,0-0.1-0.1-0.1-0.1c0-0.2,0-0.4-0.1-0.4c0-0.1,0-0.2-0.1-0.4c0-0.1,0-0.3,0-0.4c0.1-0.1,0.1-0.1,0.1-0.1
		c0-0.1,0-0.2,0-0.3c0,0,0,0,0-0.1s0-0.1,0-0.2c0.1-0.2,0.2-0.3,0.3-0.3c0.1-0.4,0.3-0.6,0.6-0.7c0.2-0.2,0.2-0.3,0.2-0.3
		s0.1-0.1,0.3-0.1c0,0,0.1,0,0.1-0.1c0.1-0.1,0.1-0.1,0.1-0.1h0.1h0.1c0,0,0.1,0,0.1-0.1c0,0,0.1-0.1,0.1,0c0,0.2,0.1,0.4,0.4,0.4
		c0.3,0,0.4,0,0.4,0l0,0c0,0,0,0,0,0.1c0.1,0,0.2,0,0.3,0.1s0.2,0.1,0.2,0.1l0.1,0.1c0.1,0,0.3,0.2,0.4,0.5c0,0.2,0.1,0.3,0.1,0.3
		c0.1,0,0.1,0,0.1,0s0,0.1-0.1,0.1c0,0-0.1,0-0.1,0.1c0,0.3,0.1,0.4,0.2,0.4v0.1v0.1c0,0,0,0.1,0.1,0.1l0.1,0.1c0,0.1,0,0.2,0,0.2
		s0,0,0.1,0.1v0.1v0.1l0.1,0.1l0.1,0.1l0,0c0,0,0,0.1,0.1,0.1h0.1c0,0.1,0,0.1,0,0.2c0,0.1,0.1,0.2,0.2,0.2c0,0.1,0.1,0.3,0.4,0.6
		c0,0.2,0.1,0.3,0.3,0.5c0,0.1,0,0.2,0,0.2c0.2,0.1,0.3,0.2,0.4,0.4c0.1,0.1,0.2,0.2,0.4,0.4s0.3,0.3,0.4,0.4
		c0.1,0.2,0.4,0.5,0.8,0.8v0.1c0,0.1,0.1,0.1,0.2,0.2c0.1,0.1,0.2,0.2,0.3,0.2s0.2,0,0.2,0v0.1c0,0,0,0,0,0.1s0.1,0.1,0.2,0.1
		c0.2,0.2,0.3,0.4,0.5,0.4c0.1,0.1,0.2,0.2,0.2,0.2c0.4,0.4,0.7,0.7,0.8,0.7v0.1c0,0,0.1,0,0.1,0.1l0,0h0.1c0.1,0.1,0.2,0.2,0.3,0.3
		s0.3,0.2,0.4,0.3c0.1,0,0.1,0,0.2,0.1c0.1,0.1,0.2,0.1,0.2,0.1l0,0h0.1c0,0,0,0,0.1,0.1l0.1,0.1l0,0c0,0,0,0,0.1,0
		c0,0,0.1,0,0.2,0.1c0.1,0,0.2,0,0.2,0.1s0.1,0.1,0.1,0.1h0.1c0,0,0,0,0.1,0c0,0.1,0.1,0.1,0.1,0.2H43c0,0,0,0,0.1,0
		c0.1,0.1,0.2,0.2,0.3,0.3s0.2,0.2,0.3,0.2s0.1,0,0.1,0s0,0.1,0.1,0.1c0.1,0.1,0.1,0.1,0.2,0.1c0,0,0.1,0.1,0.3,0.2
		c0.1,0,0.1-0.1,0.1-0.2c0-0.1-0.1-0.2-0.1-0.2c0.1-0.2,0.1-0.3,0-0.3c0-0.1,0-0.2,0-0.3s0-0.2,0-0.2l-0.1-0.1
		c-0.1-0.1-0.1-0.3,0-0.4c-0.1-0.2,0-0.4,0.1-0.4c0,0,0-0.1,0-0.2c0-0.1,0-0.2,0-0.2v-0.1c0-0.1-0.1-0.1-0.1-0.1c0-0.1,0-0.1,0-0.2
		c0-0.1,0-0.2,0.1-0.3c-0.2-0.1-0.1-0.2,0-0.3l-0.1-0.1c0,0,0,0,0-0.1c0.1-0.1,0.1-0.2,0.1-0.3h-0.1h-0.1c-0.2-0.2-0.1-0.3,0.2-0.4
		c0,0,0-0.2-0.1-0.5h-0.1c0,0,0,0.1-0.1,0.1c0,0-0.1-0.1-0.1-0.3s-0.1-0.3-0.1-0.3s0-0.1,0-0.3s0-0.3,0.1-0.3l0,0c0,0,0,0,0.1,0
		s0.1,0,0.1-0.1s0-0.1,0-0.1s-0.1,0-0.1,0.1L44,50c0,0,0-0.1,0.1-0.3c0.1,0,0.2-0.1,0.2-0.1c0.1-0.2,0-0.3-0.1-0.3v-0.1
		c0,0,0.1,0,0.1-0.1c-0.1-0.1-0.2-0.2-0.2-0.4c0,0,0-0.1,0.1-0.1l0.1-0.1L44.2,48c0-0.2,0-0.3,0.1-0.5c0,0,0-0.1,0-0.2
		c0-0.1,0-0.2,0-0.2s-0.1-0.1-0.1-0.2c0-0.1-0.1-0.1-0.1-0.2c0-0.2,0-0.3,0-0.3c-0.1,0-0.1,0-0.1,0v-0.1l-0.1-0.1c0.1,0,0.1,0,0.2,0
		v-0.4v-0.1l0,0c0,0,0-0.1,0-0.2c0-0.1,0-0.1,0-0.1v-0.1v-0.1v-0.1c0-0.1,0-0.1,0-0.1s0-0.1,0.1-0.2c0-0.1-0.1-0.1-0.1-0.2
		c-0.1,0-0.1-0.1-0.1-0.1s0-0.1,0.1-0.2C44,44,44,44,44,43.9c-0.2-0.2-0.2-0.4,0-0.5c0,0,0-0.1,0-0.3c0-0.1-0.1-0.1-0.2-0.2
		c-0.2-0.2-0.3-0.3-0.2-0.5h0.1h0.1c0-0.1,0-0.1-0.1-0.1c0,0,0-0.1,0.1-0.2c-0.1-0.2-0.1-0.3-0.2-0.3h-0.1c0,0,0,0-0.1,0
		s-0.1-0.1,0-0.2c0-0.1,0-0.1,0-0.1l-0.1-0.1c0,0,0,0,0-0.1c-0.1-0.1-0.1-0.2,0-0.3s0.1-0.2,0.1-0.3c0,0-0.1-0.1-0.2-0.1
		c0,0,0-0.1,0.1-0.2c0-0.3,0-0.5-0.1-0.6c0-0.1,0.1-0.1,0.1-0.1v-0.1v-0.1v-0.1c0,0,0,0,0-0.1s0-0.1,0-0.2c-0.1-0.3-0.1-0.4-0.2-0.4
		c0-0.1,0-0.2,0-0.5s0-0.4,0-0.5h0.1c0,0,0,0,0.1,0c0.1-0.2,0.2-0.3,0.2-0.3c0-0.1,0-0.3,0.2-0.5C43.7,36.9,43.6,36.9,43.6,36.8z
		 M39.7,56.8C39.7,56.8,39.7,56.9,39.7,56.8L39.7,56.8C39.6,56.8,39.6,56.8,39.7,56.8C39.6,56.8,39.6,56.8,39.7,56.8z M39.6,56.8
		L39.6,56.8C39.7,56.8,39.7,56.9,39.6,56.8L39.6,56.8L39.6,56.8z M43.6,43.8L43.6,43.8C43.6,43.7,43.6,43.8,43.6,43.8L43.6,43.8z
		 M43.6,43.7C43.6,43.7,43.6,43.8,43.6,43.7C43.6,43.8,43.6,43.8,43.6,43.7C43.6,43.8,43.6,43.8,43.6,43.7z M43.7,43.3L43.7,43.3
		L43.7,43.3z M43.7,43.3L43.7,43.3L43.7,43.3z M43.7,42.6L43.7,42.6C43.6,42.7,43.7,42.7,43.7,42.6C43.8,42.7,43.8,42.7,43.7,42.6
		C43.8,42.6,43.8,42.6,43.7,42.6z M43.8,42.8C43.8,42.7,43.8,42.7,43.8,42.8C43.8,42.7,43.8,42.7,43.8,42.8
		C43.7,42.6,43.7,42.6,43.8,42.8C43.7,42.7,43.7,42.8,43.8,42.8z M43.8,46.4C43.8,46.5,43.8,46.5,43.8,46.4L43.8,46.4
		C43.7,46.5,43.7,46.4,43.8,46.4z M43.8,46.4C43.8,46.5,43.8,46.5,43.8,46.4L43.8,46.4C43.7,46.5,43.7,46.4,43.8,46.4z"/>
	<path fill="#2B5799" d="M52.9,38.9c0.2,0,0.3,0,0.3,0s0,0.1,0,0.2c0.1,0.1,0.1,0.1,0.2,0c0.1-0.1,0.1-0.1,0.1-0.2
		c0.1,0,0.1,0.1,0.2,0.2c0.1,0.1,0.1,0.1,0.2,0.2c0.2,0,0.4,0.1,0.6,0.2h0.1l0.1,0.1c0.1,0,0.2,0,0.3,0.1h0.1h0.1h0.1
		c0,0,0.1,0.1,0.3,0.1c0.1,0.1,0.2,0,0.3,0c0.2,0.1,0.3,0.1,0.4,0.1c0,0.1,0.1,0.1,0.3,0.1c0.1,0,0.1,0,0.1,0s0.1,0,0.1,0.1
		c0.1,0,0.1,0.1,0.2,0.1c0.4,0,0.6,0.1,0.6,0.1c0.1,0,0.2,0,0.4,0s0.3,0,0.4,0c0,0,0.1,0,0.1,0.1c0.1,0,0.1,0.1,0.1,0.1
		c0.2,0,0.3,0,0.4,0c0.1,0,0.2,0,0.4,0c0.1,0,0.2,0.1,0.3,0.2c0.1,0,0.2,0,0.3,0c0,0,0.1,0,0.2,0.1c0.1,0,0.2,0.1,0.2,0.1h0.1h0.1
		c0.1,0,0.1,0,0.2,0.1l0.1,0.1c0.1,0,0.3,0,0.4,0v0.1l0.1,0.1c0.5,0,0.8,0,0.9,0.1h0.3c0.1-0.1,0.1-0.1,0.1-0.1c0,0.1,0,0.2,0.1,0.2
		c0.1,0.1,0.2,0.1,0.2,0h0.1c0.1,0,0.1,0.1,0.1,0.1h0.1h0.1h0.1h0.1c0,0,0,0,0.1,0h0.1c0,0,0.1,0,0.1,0.1H64c0.1,0,0.2,0,0.3,0.1
		c0.2,0,0.4,0,0.5,0.2c0.1,0,0.2,0,0.3,0c0.1,0.1,0.2,0.1,0.2,0.1s0.1,0.1,0.2,0.1c0,0,0.2,0,0.4,0.1c0.1,0,0.2,0,0.2,0s0,0,0,0.1
		c0.1,0,0.2,0.1,0.3,0.2c0.1,0,0.3,0.1,0.6,0.3c0.2,0,0.3,0,0.3,0V43c0,0,0.1,0.1,0.3,0.1c0.2,0.3,0.3,0.4,0.3,0.4H68
		c0,0,0.1,0.1,0.2,0.2c0.1,0.1,0.1,0.1,0.2,0.1c0.2,0.1,0.3,0.2,0.3,0.2c0.1,0.1,0.2,0.1,0.3,0.2c0.1,0.1,0.2,0.2,0.3,0.4
		c0.1,0.1,0.2,0.2,0.2,0.3s0.1,0.1,0.1,0.1c0.3,0.3,0.5,0.5,0.6,0.8c0,0,0,0.1,0.1,0.1l0.1,0.1c0,0.1,0,0.2,0,0.2s0,0.1,0.1,0.1
		s0.1,0,0.1,0.1c0,0,0,0.1,0,0.2c0,0.1,0,0.2,0,0.2l0.1,0.1c0,0,0,0,0.1,0.1c0,0.1,0,0.2,0,0.5v0.1c0,0.1,0,0.1,0,0.2s0,0.1,0,0.1
		V48v0.1v0.1c0,0.1,0,0.2,0,0.5s0,0.5,0,0.6c-0.1,0.1-0.1,0.2-0.2,0.3c0.5,0.4,0.4,0.5,0.4,0.5v0.1c0,0,0,0,0,0.1c0,0,0,0.1,0,0.2
		s0,0.2,0,0.2s0,0.1-0.1,0.1c0,0.1,0,0.1,0,0.1V51v0.1c0,0,0,0-0.1,0.1l-0.1,0.1v0.1c0,0.1,0,0.1,0,0.1c-0.1,0.1-0.1,0.1-0.1,0.1
		s0,0,0,0.1v0.1c0,0,0,0-0.1,0.1V52c-0.1,0.1-0.1,0.2-0.1,0.2c0,0.1-0.1,0.2-0.2,0.3c0,0.1-0.1,0.2-0.1,0.4V53
		c0,0.1-0.1,0.1-0.1,0.2c-0.2,0.2-0.2,0.4-0.1,0.6c0,0,0,0-0.1,0c0,0-0.1,0.2-0.4,0.4c0,0.1,0,0.2-0.1,0.2C69,54.7,69,54.7,69,54.8
		c-0.2,0.1-0.3,0.3-0.4,0.6c0,0-0.1,0.1-0.1,0.2c-0.1,0.1-0.1,0.2-0.1,0.2l0,0l0,0c-0.1,0.1-0.1,0.1-0.1,0.1V56
		c-0.2,0.3-0.4,0.4-0.4,0.5c0,0,0,0-0.1,0c0,0-0.1,0.1-0.2,0.2c-0.1,0.1-0.2,0.2-0.2,0.3c-0.2,0.1-0.3,0.2-0.3,0.3
		c-0.1,0.1-0.2,0.2-0.3,0.3c-0.1,0.2-0.2,0.3-0.3,0.3c-0.1,0-0.1,0-0.1,0c-0.1,0.1-0.2,0.2-0.2,0.3c-0.1,0.1-0.3,0.2-0.5,0.4
		S65.4,59,65.2,59c0,0,0,0.1-0.1,0.1v0.1c-0.1,0.1-0.2,0.2-0.3,0.3c-0.1,0.1-0.1,0.1-0.2,0.1c-0.2,0.2-0.3,0.4-0.4,0.4
		c0,0.1,0,0.1,0,0.1c-0.1,0.1-0.1,0.1-0.1,0.1s-0.1,0-0.1,0.1s-0.1,0.1-0.1,0.1s-0.1,0-0.2,0.1c-0.1,0-0.1,0.1-0.2,0.1v0.1
		c-0.1,0.1-0.1,0.2-0.2,0.3v0.1l0,0c0,0-0.1,0-0.1-0.1c-0.1,0-0.2,0.1-0.3,0.2c-0.1,0.1-0.2,0.2-0.2,0.2v0.1c0,0,0,0,0,0.1h-0.1
		c-0.1,0-0.1,0.1-0.1,0.1l0,0h-0.1c0,0-0.3,0.3-0.9,0.8c0,0.1,0,0.1-0.1,0.2H61c0,0-0.1,0-0.1,0.1c-0.1,0-0.1,0.1-0.2,0.1
		c0,0-0.1,0.1-0.1,0.2c0,0.1-0.1,0.2-0.2,0.2c0,0.1,0,0.1,0,0.1h-0.1h-0.1c0,0-0.1,0-0.2,0.1h-0.1c0,0,0,0-0.1,0l-0.1,0.1v0.1
		c-0.1,0-0.2,0-0.2,0c0-0.1-0.1-0.1-0.1-0.2l-0.1,0.1h-0.1h-0.1c0-0.1,0-0.1-0.1-0.2c0-0.1-0.1-0.1-0.1-0.1c-0.2,0-0.3,0-0.4-0.1
		c-0.1-0.1-0.2-0.2-0.2-0.3c-0.1,0-0.1-0.1-0.2-0.1c0-0.1,0-0.2,0-0.2c-0.1,0-0.1,0-0.2,0c-0.1-0.2-0.2-0.3-0.3-0.4c0,0,0-0.1,0-0.2
		c0-0.1,0-0.2,0-0.2c0-0.2,0-0.3,0-0.3l0.2-0.2v-0.1l0.1-0.1H58l0,0l0,0V61l0.1-0.1c0-0.1-0.2-0.2-0.4-0.3c0,0,0-0.1,0-0.2
		c0-0.1,0-0.1,0-0.2s0-0.1-0.1-0.2c-0.1-0.1-0.1-0.2-0.1-0.2s0-0.1,0-0.2c0-0.1,0-0.1,0-0.1s0-0.1-0.1-0.1s-0.1,0-0.1-0.1
		c0.1-0.1,0.1-0.2,0.1-0.4s-0.1-0.3-0.2-0.4c0-0.1,0-0.3,0-0.6s0-0.4,0-0.6c0-0.1,0-0.1,0-0.1s0-0.1-0.1-0.1L57,57
		c0-0.1,0-0.1,0-0.2c0-0.1,0-0.2,0-0.2s0-0.1-0.1-0.1l-0.1-0.1v-0.1c0-0.1,0-0.1,0-0.1c0-0.3,0-0.5,0-0.6c0,0,0-0.1-0.1-0.1
		c0-0.1-0.1-0.1-0.1-0.1v-0.1v-0.1c0,0,0-0.1,0-0.2c0-0.1,0-0.2,0-0.3l-0.1-0.1c0.1-0.4,0.1-0.6-0.1-0.7v-0.3v-0.1c0,0,0,0,0-0.1
		v-0.1v-0.1c0-0.1-0.1-0.1-0.2-0.1c0-0.2,0-0.3,0-0.5c0,0,0,0,0.1,0c0.1-0.1,0.1-0.2-0.1-0.3c-0.1-0.1-0.1-0.2-0.1-0.2
		c0-0.1,0-0.1,0-0.2c0-0.1,0-0.1,0-0.2c0,0,0-0.1-0.1-0.1l-0.1-0.1c0-0.6,0-1,0-1C56,50.3,56,50.2,56,50c0-0.1,0.1-0.1,0.1-0.1
		s0-0.2,0-0.4s0-0.4,0-0.4s0-0.1-0.1-0.1v-0.1v-0.1c0.1-0.1,0-0.2-0.1-0.2c0,0-0.1-0.2-0.1-0.4c0,0,0-0.1-0.1-0.2
		c-0.1-0.1-0.1-0.1-0.1-0.2c-0.1-0.2-0.1-0.3-0.1-0.3s0-0.2,0-0.5c0,0,0-0.1-0.1-0.1c0-0.1,0-0.2,0-0.4s-0.1-0.2-0.2-0.2
		c0,0,0-0.1,0-0.3s0-0.3,0-0.3s-0.1-0.1-0.1-0.2C55,45.4,55,45.3,55,45.3c-0.1-0.3-0.1-0.5-0.2-0.5c0-0.2-0.1-0.3-0.2-0.3
		c0-0.1,0-0.1,0-0.2c0.1-0.1,0.1-0.2,0.1-0.2h-0.1V44c0-0.1,0-0.2-0.1-0.3l-0.1-0.1v-0.1v-0.1c0,0,0-0.1-0.1-0.1l-0.1-0.1
		c0,0,0,0,0-0.1V43l-0.1-0.1c-0.1,0-0.1-0.1-0.1-0.1c-0.1,0-0.3-0.1-0.4-0.2H53c-0.1-0.2-0.2-0.3-0.4-0.3l-0.1-0.1
		c0-0.1-0.1-0.1-0.1-0.1c0-0.1-0.2-0.2-0.4-0.3c0-0.2-0.2-0.4-0.4-0.5c0-0.1-0.1-0.2-0.1-0.2V41v-0.1l-0.1-0.1
		c-0.1-0.2-0.1-0.3,0-0.5c0,0,0-0.1,0.1-0.2c0.1-0.1,0.1-0.1,0.1-0.2v-0.1v-0.1c0,0,0,0,0.1-0.1c0.1,0,0.1-0.1,0.1-0.1H52
		c0.1-0.1,0.2-0.1,0.5-0.1c0.1,0,0.2,0,0.3,0C52.8,39,52.8,39,52.9,38.9L52.9,38.9z M53.2,38.9c0,0,0,0.1,0,0.2
		c0.1,0.1,0.1,0.1,0.2,0c0.1-0.1,0.1-0.1,0.1-0.2c0.1,0,0.1,0.1,0.2,0.2c0.1,0.1,0.1,0.1,0.2,0.2c0.2,0,0.4,0.1,0.6,0.2h0.1l0.1,0.1
		c0.1,0,0.2,0,0.3,0.1h0.1h0.1h0.1c0,0,0.1,0.1,0.3,0.1c0.1,0.1,0.2,0,0.3,0c0.2,0.1,0.3,0.1,0.4,0.1c0,0.1,0.1,0.1,0.3,0.1
		c0.1,0,0.1,0,0.1,0s0.1,0,0.1,0.1c0.1,0,0.1,0.1,0.2,0.1c0.4,0,0.6,0.1,0.6,0.1c0.1,0,0.2,0,0.4,0s0.3,0,0.4,0c0,0,0.1,0,0.1,0.1
		c0.1,0,0.1,0.1,0.1,0.1c0.2,0,0.3,0,0.4,0c0.1,0,0.2,0,0.4,0c0.1,0,0.2,0.1,0.3,0.2c0.1,0,0.2,0,0.3,0c0,0,0.1,0,0.2,0.1
		c0.1,0,0.2,0.1,0.2,0.1h0.1h0.1c0.1,0,0.1,0,0.2,0.1l0.1,0.1c0.1,0,0.3,0,0.4,0v0.1l0.1,0.1c0.5,0,0.8,0,0.9,0.1h0.3
		c0.1-0.1,0.1-0.1,0.1-0.1c0,0.1,0,0.2,0.1,0.2c0.1,0.1,0.2,0.1,0.2,0h0.1c0.1,0,0.1,0.1,0.1,0.1h0.1h0.1h0.1h0.1c0,0,0,0,0.1,0h0.1
		c0,0,0.1,0,0.1,0.1H64c0.1,0,0.2,0,0.3,0.1c0.2,0,0.4,0,0.5,0.2c0.1,0,0.2,0,0.3,0c0.1,0.1,0.2,0.1,0.2,0.1s0.1,0.1,0.2,0.1
		c0,0,0.2,0,0.4,0.1c0.1,0,0.2,0,0.2,0s0,0,0,0.1c0.1,0,0.2,0.1,0.3,0.2c0.1,0,0.3,0.1,0.6,0.3c0.2,0,0.3,0,0.3,0V43
		c0,0,0.1,0.1,0.3,0.1c0.2,0.3,0.3,0.4,0.3,0.4H68c0,0,0.1,0.1,0.2,0.2c0.1,0.1,0.1,0.1,0.2,0.1c0.2,0.1,0.3,0.2,0.3,0.2
		c0.1,0.1,0.2,0.1,0.3,0.2c0.1,0.1,0.2,0.2,0.3,0.4c0.1,0.1,0.2,0.2,0.2,0.3s0.1,0.1,0.1,0.1c0.3,0.3,0.5,0.5,0.6,0.8
		c0,0,0,0.1,0.1,0.1l0.1,0.1c0,0.1,0,0.2,0,0.2s0,0.1,0.1,0.1s0.1,0,0.1,0.1c0,0,0,0.1,0,0.2c0,0.1,0,0.2,0,0.2l0.1,0.1
		c0,0,0,0,0.1,0.1c0,0.1,0,0.2,0,0.5v0.1c0,0.1,0,0.1,0,0.2s0,0.1,0,0.1V48v0.1v0.1c0,0.1,0,0.2,0,0.5s0,0.5,0,0.6
		c-0.1,0.1-0.1,0.2-0.2,0.3c0.5,0.4,0.4,0.5,0.4,0.5v0.1c0,0,0,0,0,0.1c0,0,0,0.1,0,0.2s0,0.2,0,0.2s0,0.1-0.1,0.1
		c0,0.1,0,0.1,0,0.1V51v0.1c0,0,0,0-0.1,0.1l-0.1,0.1v0.1c0,0.1,0,0.1,0,0.1c-0.1,0.1-0.1,0.1-0.1,0.1s0,0,0,0.1v0.1
		c0,0,0,0-0.1,0.1V52c-0.1,0.1-0.1,0.2-0.1,0.2c0,0.1-0.1,0.2-0.2,0.3c0,0.1-0.1,0.2-0.1,0.4V53c0,0.1-0.1,0.1-0.1,0.2
		c-0.2,0.2-0.2,0.4-0.1,0.6c0,0,0,0-0.1,0c0,0-0.1,0.2-0.4,0.4c0,0.1,0,0.2-0.1,0.2C69,54.7,69,54.7,69,54.8
		c-0.2,0.1-0.3,0.3-0.4,0.6c0,0-0.1,0.1-0.1,0.2c-0.1,0.1-0.1,0.2-0.1,0.2l0,0l0,0c-0.1,0.1-0.1,0.1-0.1,0.1V56
		c-0.2,0.3-0.4,0.4-0.4,0.5c0,0,0,0-0.1,0c0,0-0.1,0.1-0.2,0.2c-0.1,0.1-0.2,0.2-0.2,0.3c-0.2,0.1-0.3,0.2-0.3,0.3
		c-0.1,0.1-0.2,0.2-0.3,0.3c-0.1,0.2-0.2,0.3-0.3,0.3c-0.1,0-0.1,0-0.1,0c-0.1,0.1-0.2,0.2-0.2,0.3c-0.1,0.1-0.3,0.2-0.5,0.4
		S65.4,59,65.2,59c0,0,0,0.1-0.1,0.1v0.1c-0.1,0.1-0.2,0.2-0.3,0.3c-0.1,0.1-0.1,0.1-0.2,0.1c-0.2,0.2-0.3,0.4-0.4,0.4
		c0,0.1,0,0.1,0,0.1c-0.1,0.1-0.1,0.1-0.1,0.1s-0.1,0-0.1,0.1s-0.1,0.1-0.1,0.1s-0.1,0-0.2,0.1c-0.1,0-0.1,0.1-0.2,0.1v0.1
		c-0.1,0.1-0.1,0.2-0.2,0.3v0.1l0,0c0,0-0.1,0-0.1-0.1c-0.1,0-0.2,0.1-0.3,0.2c-0.1,0.1-0.2,0.2-0.2,0.2v0.1c0,0,0,0,0,0.1h-0.1
		c-0.1,0-0.1,0.1-0.1,0.1l0,0h-0.1c0,0-0.3,0.3-0.9,0.8c0,0.1,0,0.1-0.1,0.2H61c0,0-0.1,0-0.1,0.1c-0.1,0-0.1,0.1-0.2,0.1
		c0,0-0.1,0.1-0.1,0.2c0,0.1-0.1,0.2-0.2,0.2c0,0.1,0,0.1,0,0.1h-0.1h-0.1c0,0-0.1,0-0.2,0.1h-0.1c0,0,0,0-0.1,0l-0.1,0.1v0.1
		c-0.1,0-0.2,0-0.2,0c0-0.1-0.1-0.1-0.1-0.2l-0.1,0.1h-0.1h-0.1c0-0.1,0-0.1-0.1-0.2c0-0.1-0.1-0.1-0.1-0.1c-0.2,0-0.3,0-0.4-0.1
		c-0.1-0.1-0.2-0.2-0.2-0.3c-0.1,0-0.1-0.1-0.2-0.1c0-0.1,0-0.2,0-0.2c-0.1,0-0.1,0-0.2,0c-0.1-0.2-0.2-0.3-0.3-0.4c0,0,0-0.1,0-0.2
		c0-0.1,0-0.2,0-0.2c0-0.2,0-0.3,0-0.3l0.2-0.2v-0.1l0.1-0.1H58l0,0l0,0V61l0.1-0.1c0-0.1-0.2-0.2-0.4-0.3c0,0,0-0.1,0-0.2
		c0-0.1,0-0.1,0-0.2s0-0.1-0.1-0.2c-0.1-0.1-0.1-0.2-0.1-0.2s0-0.1,0-0.2c0-0.1,0-0.1,0-0.1s0-0.1-0.1-0.1s-0.1,0-0.1-0.1
		c0.1-0.1,0.1-0.2,0.1-0.4s-0.1-0.3-0.2-0.4c0-0.1,0-0.3,0-0.6s0-0.4,0-0.6c0-0.1,0-0.1,0-0.1s0-0.1-0.1-0.1L57,57
		c0-0.1,0-0.1,0-0.2c0-0.1,0-0.2,0-0.2s0-0.1-0.1-0.1l-0.1-0.1v-0.1c0-0.1,0-0.1,0-0.1c0-0.3,0-0.5,0-0.6c0,0,0-0.1-0.1-0.1
		c0-0.1-0.1-0.1-0.1-0.1v-0.1v-0.1c0,0,0-0.1,0-0.2c0-0.1,0-0.2,0-0.3l-0.1-0.1c0.1-0.4,0.1-0.6-0.1-0.7v-0.3v-0.1c0,0,0,0,0-0.1
		v-0.1v-0.1c0-0.1-0.1-0.1-0.2-0.1c0-0.2,0-0.3,0-0.5c0,0,0,0,0.1,0c0.1-0.1,0.1-0.2-0.1-0.3c-0.1-0.1-0.1-0.2-0.1-0.2
		c0-0.1,0-0.1,0-0.2c0-0.1,0-0.1,0-0.2c0,0,0-0.1-0.1-0.1l-0.1-0.1c0-0.6,0-1,0-1C56,50.3,56,50.2,56,50c0-0.1,0.1-0.1,0.1-0.1
		s0-0.2,0-0.4s0-0.4,0-0.4s0-0.1-0.1-0.1v-0.1v-0.1c0.1-0.1,0-0.2-0.1-0.2c0,0-0.1-0.2-0.1-0.4c0,0,0-0.1-0.1-0.2
		c-0.1-0.1-0.1-0.1-0.1-0.2c-0.1-0.2-0.1-0.3-0.1-0.3s0-0.2,0-0.5c0,0,0-0.1-0.1-0.1c0-0.1,0-0.2,0-0.4s-0.1-0.2-0.2-0.2
		c0,0,0-0.1,0-0.3s0-0.3,0-0.3s-0.1-0.1-0.1-0.2C55,45.4,55,45.3,55,45.3c-0.1-0.3-0.1-0.5-0.2-0.5c0-0.2-0.1-0.3-0.2-0.3
		c0-0.1,0-0.1,0-0.2c0.1-0.1,0.1-0.2,0.1-0.2h-0.1V44c0-0.1,0-0.2-0.1-0.3l-0.1-0.1v-0.1v-0.1c0,0,0-0.1-0.1-0.1l-0.1-0.1
		c0,0,0,0,0-0.1V43l-0.1-0.1c-0.1,0-0.1-0.1-0.1-0.1c-0.1,0-0.3-0.1-0.4-0.2H53c-0.1-0.2-0.2-0.3-0.4-0.3l-0.1-0.1
		c0-0.1-0.1-0.1-0.1-0.1c0-0.1-0.2-0.2-0.4-0.3c0-0.2-0.2-0.4-0.4-0.5c0-0.1-0.1-0.2-0.1-0.2V41v-0.1l-0.1-0.1
		c-0.1-0.2-0.1-0.3,0-0.5c0,0,0-0.1,0.1-0.2c0.1-0.1,0.1-0.1,0.1-0.2v-0.1v-0.1c0,0,0,0,0.1-0.1c0.1,0,0.1-0.1,0.1-0.1H52
		c0.1-0.1,0.2-0.1,0.5-0.1c0.1,0,0.2,0,0.3,0h0.1v-0.1C53,38.9,53.1,38.9,53.2,38.9z M62.8,44.5C62.7,44.5,62.7,44.4,62.8,44.5
		c-0.1-0.1-0.2-0.1-0.2-0.1s-0.1,0-0.2,0c-0.1,0-0.1,0-0.2,0c0,0-0.1,0-0.1-0.1L62,44.2c-0.1,0-0.1,0-0.1,0s0,0-0.1,0h-0.1
		c0,0-0.1,0-0.2,0c-0.1,0-0.2,0-0.2,0s-0.1,0-0.1-0.1c-0.1,0-0.1-0.1-0.1-0.1H61h-0.1c0,0-0.1,0-0.2,0c-0.1,0-0.1,0-0.1,0
		c-0.1-0.1-0.2-0.1-0.5-0.1c-0.1,0-0.2,0-0.2,0c-0.2-0.1-0.3-0.2-0.4-0.1h-0.1h-0.1c-0.1,0-0.2,0-0.4-0.1c-0.5,0-0.7,0-0.9,0
		c0,0,0,0.1,0,0.2c0,0.1,0,0.2,0,0.2v0.1l0.1,0.1c0,0,0,0.1,0,0.2c0,0.1,0,0.1,0.1,0.2l0.1,0.1c0,0,0,0.1,0,0.2c0,0,0,0.1,0.1,0.2
		c0.1,0.1,0.1,0.2,0,0.3c0.1,0.2,0.2,0.4,0.2,0.5c0,0.2,0,0.3,0,0.3c0.2,0.2,0.2,0.3,0.2,0.4c0.1,0.1,0.1,0.2,0.1,0.5v0.1v0.1
		c0,0.1,0,0.1,0,0.1c0.1,0.1,0.1,0.2,0.1,0.2v0.1v0.1c0,0,0,0.1,0,0.2c0,0.1,0.1,0.1,0.1,0.2c0,0,0,0.1,0,0.2c0,0.1,0,0.2,0,0.2v0.1
		c0,0.2,0,0.3,0.1,0.3c0,0,0,0.1,0.1,0.1l0.1,0.1c0,0,0,0.1,0.1,0.3c0,0.1,0,0.2,0,0.3s0,0.2,0,0.3l0.1,0.1c0,0.1,0.1,0.1,0.1,0.1
		s0,0.1,0,0.2c0,0.1,0,0.2,0,0.2l0.1,0.1c0,0,0,0.1,0.1,0.1c0,0,0,0.1,0,0.3v0.1c0,0.1,0,0.1,0,0.1s0,0.1,0.1,0.1v0.1
		c0,0,0,0.1,0,0.2c0,0.1,0,0.1,0,0.1s0,0.1-0.1,0.1s-0.1,0,0,0.1s0.1,0.2,0.1,0.2c0.1,0.1,0.1,0.2,0.1,0.2v0.1L60,52.8
		c0,0,0,0.1,0.1,0.1l0.1,0.1c0,0,0,0,0,0.1v0.1l0.1,0.1c0,0.1,0,0.2,0,0.3c0,0,0,0.1,0.1,0.1v0.1c0,0,0,0.1,0,0.2s0,0.2,0,0.2
		s0,0.1,0.1,0.1s0.1,0.1,0.1,0.1c0,0.1,0,0.1,0,0.1s0,0,0,0.1v0.1c0,0,0,0.1,0,0.3s0,0.3,0,0.3l0.1,0.1c0,0.1,0.1,0.1,0.1,0.1
		c0,0.1,0,0.2,0,0.3s0,0.2,0,0.3c0.1,0,0.1,0.1,0.1,0.3c0.1,0.3,0.1,0.5,0.1,0.5c0.1,0.1,0.1,0.2,0.1,0.5c0,0.1,0,0.2,0,0.3
		c0,0,0,0.1,0.1,0.1c0,0,0.1,0,0.1,0.1c0,0,0,0.1,0,0.2c0,0.1,0,0.1,0,0.1c0.1,0.1,0.2,0,0.5-0.2h0.1c0.1,0,0.1-0.1,0.1-0.1
		c0.1-0.1,0.2-0.2,0.2-0.3c0,0,0.2-0.1,0.5-0.3c0,0,0-0.1,0.1-0.1C62.9,57,63,57,63.1,57c0.1-0.1,0.3-0.4,0.6-0.8
		c0-0.1,0.1-0.2,0.2-0.3c0-0.1,0.1-0.1,0.1-0.1c0.2-0.1,0.3-0.1,0.3-0.1c0-0.1,0.1-0.3,0.2-0.4c0.2-0.2,0.2-0.3,0.2-0.5
		c0.2-0.2,0.4-0.2,0.4-0.2c0-0.1,0-0.1,0.1-0.2c0.1-0.1,0.1-0.2,0.1-0.2l0.1-0.1c0.1-0.1,0.1-0.1,0.1-0.1c0-0.1,0.1-0.2,0.2-0.3
		s0.1-0.1,0.1-0.1h0.1v-0.1c0,0,0.1,0,0.1-0.1l0.1-0.1c0-0.1,0-0.1,0-0.1c0-0.1,0.1-0.1,0.2-0.2c0.1-0.1,0.2-0.2,0.2-0.2
		c0-0.2,0.1-0.4,0.3-0.6c0.2-0.2,0.3-0.4,0.3-0.6c0,0,0-0.1,0.1-0.1l0.1-0.1c0-0.1,0-0.2,0.1-0.3s0.1-0.2,0.1-0.3
		c0.1,0,0.1-0.1,0.1-0.3c0-0.1,0-0.2,0-0.2c0.1-0.1,0.1-0.2,0.1-0.2s0-0.1,0-0.2c0-0.1,0-0.1,0.1-0.2c0.1-0.1,0.1-0.1,0.1-0.2
		c0,0,0-0.1,0-0.2c0-0.1,0-0.1,0-0.2c0,0,0-0.1,0.1-0.1c0.1-0.2,0.1-0.4,0.1-0.5c0.1-0.1,0.1-0.1,0.1-0.1c-0.1-0.1-0.1-0.3,0-0.6
		v-0.1v-0.1c-0.1-0.3-0.1-0.4,0-0.4l-0.1-0.3v-0.1c0-0.1,0-0.1,0-0.1H68v-0.1c-0.1-0.2-0.2-0.3-0.2-0.3s0,0-0.1,0s-0.1,0-0.1,0
		s0,0,0-0.1s0,0,0,0h-0.1c-0.2-0.1-0.3-0.1-0.3-0.1C67.1,46,67.1,46,67.1,46H67c0,0-0.1,0-0.1-0.1s-0.1-0.1-0.1-0.1h-0.2
		c0-0.1-0.1-0.1-0.3-0.1c-0.1-0.1-0.1-0.1-0.1-0.1s-0.1,0-0.2-0.1c-0.9-0.4-1-0.5-1.2-0.5c0,0-0.1,0-0.1-0.1l-0.1-0.1h-0.1
		c-0.1,0-0.1,0-0.1,0c-0.1-0.1-0.2-0.1-0.2-0.1c-0.1,0-0.2,0-0.3,0c-0.1-0.1-0.2-0.1-0.2-0.1h-0.1c-0.1,0-0.1,0-0.1,0s0,0-0.1-0.1
		l-0.1-0.1c0,0,0,0-0.1,0s-0.1,0-0.1,0c-0.1,0-0.1,0-0.1,0C62.9,44.4,62.8,44.5,62.8,44.5z M62.7,44.4
		C62.6,44.3,62.6,44.3,62.7,44.4C62.6,44.3,62.6,44.3,62.7,44.4c-0.1-0.1-0.2-0.1-0.3-0.1s-0.1,0-0.2,0c0,0-0.1,0-0.1-0.1L62,44.1
		c-0.1,0-0.1,0-0.1,0s0,0-0.1,0h-0.1c0,0-0.1,0-0.2,0c-0.1,0-0.2,0-0.2,0s-0.1,0-0.1-0.1c-0.1,0-0.1-0.1-0.1-0.1H61h-0.1
		c0,0-0.1,0-0.2,0c-0.1,0-0.1,0-0.1,0c-0.1-0.1-0.2-0.1-0.5-0.1c-0.1,0-0.2,0-0.2,0c-0.2-0.1-0.3-0.2-0.4-0.1h-0.1h-0.1
		c-0.1,0-0.2,0-0.4-0.1c-0.5,0-0.7,0-0.9,0c0,0,0,0.1,0,0.2c0,0.1,0,0.2,0,0.2v0.1l0.1,0.1c0,0,0,0.1,0,0.2c0,0.1,0,0.1,0.1,0.2
		l0.1,0.1c0,0,0,0.1,0,0.2c0,0,0,0.1,0.1,0.2c0.1,0.1,0.1,0.2,0,0.3c0.1,0.2,0.2,0.4,0.2,0.5c0,0.2,0,0.3,0,0.3
		c0.2,0.2,0.2,0.3,0.2,0.4c0.1,0.1,0.1,0.2,0.1,0.5v0.1v0.1c0,0.1,0,0.1,0,0.1c0.1,0.1,0.1,0.2,0.1,0.2v0.1v0.1c0,0,0,0.1,0,0.2
		c0,0.1,0.1,0.1,0.1,0.2c0,0,0,0.1,0,0.2c0,0.1,0,0.2,0,0.2v0.1c0,0.2,0,0.3,0.1,0.3c0,0,0,0.1,0.1,0.1l0.1,0.1c0,0,0,0.1,0.1,0.3
		c0,0.1,0,0.2,0,0.3s0,0.2,0,0.3l0.1,0.1c0,0.1,0.1,0.1,0.1,0.1s0,0.1,0,0.2c0,0.1,0,0.2,0,0.2l0.1,0.1c0,0,0,0.1,0.1,0.1
		c0,0.1,0,0.2,0,0.3v0.1c0,0.1,0,0.1,0,0.1s0,0.1,0.1,0.1v0.1c0,0,0,0.1,0,0.2c0,0.1,0,0.1,0,0.1s0,0.1-0.1,0.1s-0.1,0,0,0.1
		s0.1,0.2,0.1,0.2c0.1,0.1,0.1,0.2,0.1,0.2v0.1L60,52.7c0,0,0,0.1,0.1,0.1l0.1,0.1c0,0,0,0,0,0.1v0.1l0.1,0.1c0,0.1,0,0.2,0,0.3
		c0,0,0,0.1,0.1,0.1v0.1c0,0,0,0.1,0,0.2s0,0.2,0,0.2s0,0.1,0.1,0.1s0.1,0.1,0.1,0.1c0,0.1,0,0.1,0,0.1s0,0,0,0.1v0.1
		c0,0,0,0.1,0,0.3s0,0.3,0,0.3l0.1,0.1c0,0.1,0.1,0.1,0.1,0.1c0,0.1,0,0.2,0,0.3s0,0.2,0,0.3c0.1,0,0.1,0.1,0.1,0.3
		c0.1,0.3,0.1,0.5,0.1,0.5c0.1,0.1,0.1,0.2,0.1,0.5c0,0.1,0,0.2,0,0.3c0,0,0,0.1,0.1,0.1c0,0,0.1,0,0.1,0.1c0,0,0,0.1,0,0.2
		c0,0.1,0,0.1,0,0.1c0.1,0.1,0.2,0,0.5-0.2h0.1c0.1,0,0.1-0.1,0.1-0.1c0.1-0.1,0.2-0.2,0.2-0.3c0,0,0.2-0.1,0.5-0.3
		c0,0,0-0.1,0.1-0.1c0.1-0.2,0.2-0.2,0.3-0.2c0.1-0.1,0.3-0.4,0.6-0.8c0-0.1,0.1-0.2,0.2-0.3c0-0.1,0.1-0.1,0.1-0.1
		c0.2-0.1,0.3-0.1,0.3-0.1c0-0.1,0.1-0.3,0.2-0.4c0.2-0.2,0.2-0.3,0.2-0.5c0.2-0.2,0.4-0.2,0.4-0.2c0-0.1,0-0.1,0.1-0.2
		c0.1-0.1,0.1-0.2,0.1-0.2l0.1-0.1c0.1-0.1,0.1-0.1,0.1-0.1c0-0.1,0.1-0.2,0.2-0.3s0.1-0.1,0.1-0.1h0.1v-0.1c0,0,0.1,0,0.1-0.1
		l0.1-0.1c0-0.1,0-0.1,0-0.1c0-0.1,0.1-0.1,0.2-0.2c0.1-0.1,0.2-0.2,0.2-0.2c0-0.2,0.1-0.4,0.3-0.6c0.2-0.2,0.3-0.4,0.3-0.6
		c0,0,0-0.1,0.1-0.1l0.1-0.1c0-0.1,0-0.2,0.1-0.3s0.1-0.2,0.1-0.3c0.1,0,0.1-0.1,0.1-0.3c0-0.1,0-0.2,0-0.2c0.1-0.1,0.1-0.2,0.1-0.2
		s0-0.1,0-0.2c0-0.1,0-0.1,0.1-0.2c0.1-0.1,0.1-0.1,0.1-0.2c0,0,0-0.1,0-0.2c0-0.1,0-0.1,0-0.2c0,0,0-0.1,0.1-0.1
		c0.1-0.2,0.1-0.4,0.1-0.5c0.1-0.1,0.1-0.1,0.1-0.1c-0.1-0.1-0.1-0.3,0-0.6v-0.1v-0.1c-0.1-0.3-0.1-0.4,0-0.4l-0.1-0.3v-0.1
		c0-0.1,0-0.1,0-0.1H68v-0.1c-0.1-0.2-0.2-0.3-0.2-0.3s0,0-0.1,0s-0.1,0-0.1,0s0,0,0-0.1s0,0,0,0h-0.1C67.3,46,67.2,46,67.2,46
		c-0.1-0.1-0.1-0.1-0.1-0.1H67c0,0-0.1,0-0.1-0.1s-0.1-0.1-0.1-0.1h-0.2c0-0.1-0.1-0.1-0.3-0.1c-0.1-0.1-0.1-0.1-0.1-0.1
		s-0.1,0-0.2-0.1c-0.9-0.3-1-0.4-1.2-0.4c0,0-0.1,0-0.1-0.1l-0.1-0.1h-0.1c-0.1,0-0.1,0-0.1,0c-0.1-0.1-0.2-0.1-0.2-0.1
		c-0.1,0-0.2,0-0.3,0c-0.1-0.1-0.2-0.1-0.2-0.1h-0.1c-0.1,0-0.1,0-0.1,0s0,0-0.1-0.1l-0.1-0.1c0,0,0,0-0.1,0s-0.1,0-0.1,0
		c-0.1,0-0.1,0-0.1,0C62.9,44.4,62.8,44.5,62.7,44.4C62.7,44.5,62.7,44.4,62.7,44.4z"/>
	<path fill="#2B5799" d="M79.8,42.5c0.1,0,0.2,0,0.3,0c0.1,0,0.3,0,0.4,0c0,0,0.1,0,0.2,0.1c0,0,0.1,0,0.2,0s0.2,0,0.2,0h0.1h0.1
		c0,0,0,0,0.1,0h0.1c0.1,0.2,0.2,0.3,0.3,0.2l0.3,0.2c0,0.1,0,0.1,0.1,0.2c0.1,0.1,0.1,0.1,0.1,0.1c0.1,0,0.1,0,0.2,0.1
		s0.2,0.1,0.2,0.1h0.1h0.1c0.2-0.1,0.3-0.1,0.4-0.1c0,0,0.1,0,0.3,0c0,0,0.1,0,0.2,0s0.2,0,0.2,0s0.1,0,0.1,0.1l0.1,0.1
		c0,0,0.1,0,0.2,0s0.2,0,0.2,0s0.1,0.1,0.2,0.2c0.1,0.1,0.2,0.2,0.4,0.1c0,0,0,0.1,0.1,0.1s0.2,0,0.3,0.1c0.1,0.1,0.2,0.1,0.2,0.1
		h0.1c0.4,0.2,0.6,0.4,0.8,0.4h0.2c0,0.1-0.1,0.1-0.2,0v0.1c0,0.1,0.2,0.2,0.4,0.3c0.2,0.1,0.4,0.3,0.4,0.4c0,0.1,0.1,0.1,0.2,0.2
		c0.2,0.2,0.4,0.4,0.4,0.5c0.2,0.1,0.2,0.3,0.2,0.4c0,0.1,0.1,0.2,0.2,0.3s0.2,0.2,0.2,0.3c0.1,0.2,0.2,0.4,0.2,0.4s0,0.1,0.1,0.1
		c0.1,0.2,0.1,0.3,0.1,0.4l0.1,0.1c0,0.1,0,0.2,0.1,0.3c0.1,0.3,0.1,0.5,0.1,0.5c0,0.2,0.1,0.3,0.1,0.4c0,0,0,0.1,0.1,0.3
		c-0.1,0-0.1,0.1,0,0.2c0.1,0.1,0.1,0.2,0.1,0.3v0.1v0.1c0,0,0,0,0.1,0.1v0.1c0,0.1,0,0.2,0,0.4s0,0.3,0,0.4c0,0.1,0,0.2,0,0.2
		s0,0.1,0,0.2c0,0,0,0.1,0.1,0.2V52c0,0,0,0,0,0.1c0.1,0.1,0.1,0.5,0.1,1.2s0,1.1,0,1.2c0,0,0,0.1,0,0.2c0,0.1,0,0.2,0,0.3
		c0,0,0,0.1-0.1,0.2c-0.1,0.1-0.1,0.2,0,0.3c0,0,0,0.1,0,0.2c0,0.1,0.1,0.2,0.1,0.2c-0.1,0-0.2,0.1-0.2,0.1c0,0.3,0,0.5,0,0.5v0.1
		l-0.1,0.1v0.1c-0.1,0.2-0.1,0.3-0.1,0.3s0,0.1-0.1,0.1h-0.1c0,0,0,0,0,0.1l-0.1,0.1c0,0.1-0.1,0.1-0.1,0.2l-0.3,0.3
		c0,0.1-0.1,0.3-0.2,0.5s-0.2,0.4-0.2,0.5c-0.2,0.2-0.2,0.3-0.2,0.5c0,0-0.1,0-0.2,0.1c0,0.1,0,0.1-0.1,0.2
		c-0.1,0.1-0.1,0.2-0.1,0.3c-0.1,0-0.2,0.1-0.2,0.2c-0.1,0.1-0.1,0.2-0.2,0.2c0,0-0.1,0.1-0.2,0.2c-0.1,0.1-0.1,0.2-0.2,0.2
		c0,0.1,0,0.1-0.1,0.2c-0.2,0.1-0.4,0.2-0.6,0.4c-0.1,0.1-0.2,0.2-0.2,0.2c-0.1,0.1-0.2,0.2-0.4,0.3c-0.2,0.1-0.3,0.2-0.4,0.3h-0.1
		c0,0,0,0-0.1,0c0,0-0.1,0.1-0.2,0.1c-0.1,0.1-0.1,0.1-0.2,0.1s-0.2,0-0.3,0.1c-0.1,0-0.2,0-0.3,0.1c-0.1,0-0.1,0-0.2,0
		s-0.2,0-0.2,0s-0.1,0.1-0.2,0.2c-0.2,0-0.3,0-0.4,0c0,0.1-0.1,0.1-0.3,0.1c-0.2,0-0.3,0.1-0.3,0.2c-0.1,0-0.4,0-0.8,0s-0.7,0-0.9,0
		c-0.1,0-0.2,0-0.3,0c-0.2,0-0.3,0-0.4,0c0,0-0.1-0.1-0.1-0.2c-0.1,0-0.2,0-0.2,0.1s-0.1,0.1-0.1,0.1s-0.1,0-0.1-0.1h0.1
		c0,0-0.1,0-0.1-0.1c-0.1,0-0.1-0.1-0.1-0.1c-0.2,0.1-0.4,0-0.6-0.1s-0.4-0.2-0.5-0.1v-0.1c0,0-0.1,0-0.3-0.1
		c-0.1-0.1-0.3-0.1-0.5-0.1V63c0,0-0.1-0.1-0.1-0.2c-0.1-0.1-0.1-0.1-0.1-0.2c-0.1,0-0.1-0.1-0.1-0.1s0,0-0.1-0.1l-0.1-0.1
		c0,0,0,0-0.1,0H77l0,0l0,0c0,0-0.1,0-0.2-0.1c0,0-0.1,0-0.1-0.1c-0.1-0.1-0.1-0.1-0.1-0.2c-0.1,0-0.1,0-0.1,0
		c-0.1-0.1-0.2-0.2-0.3-0.3c-0.1-0.1-0.2-0.3-0.3-0.4h-0.1c-0.3-0.4-0.5-0.6-0.5-0.8c0,0-0.1-0.2-0.3-0.4v0c0,0-0.1-0.1-0.1-0.2
		c-0.1-0.1-0.1-0.1-0.1-0.2c0-0.3-0.1-0.6-0.3-0.9c0-0.1,0-0.2-0.1-0.3c0-0.1,0-0.1,0-0.1s0,0,0-0.1v-0.1c0,0,0-0.1-0.1-0.1
		l-0.1-0.1c0,0,0-0.2,0-0.5v-0.1v-0.1c0,0-0.1,0-0.1-0.1V57c0-0.1,0-0.2,0-0.4s0-0.3,0-0.4c0,0-0.1,0-0.1-0.1c0,0,0-0.1,0-0.2v-0.1
		c0,0,0-0.1-0.1-0.1c0-0.1,0-0.1,0-0.1c-0.1-0.1-0.1-0.2-0.1-0.2v-0.1l0.1-0.1c0.1-0.2,0-0.3-0.1-0.4c0,0,0-0.1,0-0.2v-0.1l0.2-0.2
		c0-0.1,0-0.3,0-0.7s0-0.6,0-0.7c0-0.1,0-0.1,0-0.2c0-0.1,0-0.1,0-0.2c0-0.1,0-0.2,0-0.4s0-0.3,0-0.5c0-0.1,0.1-0.2,0.2-0.3v-0.1
		v-0.1V51l0.1-0.1c0,0,0-0.2,0-0.4c0-0.3,0-0.4,0-0.5c0-0.4,0-0.6,0-0.6s0.1,0,0.2-0.1s0.1-0.1,0.2-0.1c0-0.1,0-0.1,0-0.1L74.6,49
		l0.1-0.1c0,0,0.1-0.1,0.1-0.2c0-0.1,0-0.1,0-0.2c0.1-0.1,0.1-0.1,0.1-0.1c0-0.1,0-0.2,0-0.4s0-0.3,0.1-0.3h0.1c0.1,0,0.1,0,0.1,0
		c0-0.1,0-0.1-0.1-0.1s-0.1,0-0.1-0.1l0.1-0.2c0,0,0.1-0.1,0.1-0.2c0.1-0.1,0.1-0.2,0.1-0.2v-0.1c0,0,0,0,0-0.1
		c0.1-0.1,0.1-0.2,0.1-0.3c0.1,0,0.1-0.1,0.2-0.2s0.1-0.2,0.1-0.2c0-0.1,0-0.2,0.1-0.3s0.2-0.2,0.2-0.2v-0.1c0,0,0-0.1,0.1-0.1
		c0-0.1,0.1-0.1,0.2-0.2c0.1-0.1,0.2-0.2,0.2-0.3c0.1,0,0.2-0.1,0.3-0.3c0.1,0,0.2-0.1,0.2-0.3c0-0.1,0-0.2,0-0.2
		c0.1,0.1,0.2,0,0.3-0.1c0.1,0,0.1-0.1,0.1-0.1h0.1c0.1,0,0.1-0.1,0.2-0.1c0.1-0.1,0.1-0.1,0.2-0.1c0.2,0,0.4-0.1,0.6-0.3
		c0.1,0,0.2,0,0.3-0.1c0.1-0.1,0.2-0.1,0.2-0.2l0,0c0,0,0,0,0-0.1c0.1,0.1,0.2,0,0.4-0.1c0.1,0,0.2,0,0.3,0
		C79.6,42.4,79.7,42.5,79.8,42.5z M80.5,42.5c0,0,0.1,0,0.2,0.1c0,0,0.1,0,0.2,0s0.2,0,0.2,0h0.1h0.1c0,0,0,0,0.1,0h0.1
		c0.1,0.2,0.2,0.3,0.3,0.2l0.3,0.2c0,0.1,0,0.1,0.1,0.2c0.1,0.1,0.1,0.1,0.1,0.1c0.1,0,0.1,0,0.2,0.1s0.2,0.1,0.2,0.1h0.1h0.1
		c0.2-0.1,0.3-0.1,0.4-0.1c0,0,0.1,0,0.3,0c0,0,0.1,0,0.2,0s0.2,0,0.2,0s0.1,0,0.1,0.1l0.1,0.1c0,0,0.1,0,0.2,0s0.2,0,0.2,0
		s0.1,0.1,0.2,0.2c0.1,0.1,0.2,0.2,0.4,0.1c0,0,0,0.1,0.1,0.1s0.2,0,0.3,0.1c0.1,0.1,0.2,0.1,0.2,0.1h0.1c0.4,0.2,0.6,0.4,0.8,0.4
		h0.2c0,0.1-0.1,0.1-0.2,0v0.1c0,0.1,0.2,0.2,0.4,0.3c0.2,0.1,0.4,0.3,0.4,0.4c0,0.1,0.1,0.1,0.2,0.2c0.2,0.2,0.4,0.4,0.4,0.5
		c0.2,0.1,0.2,0.3,0.2,0.4c0,0.1,0.1,0.2,0.2,0.3s0.2,0.2,0.2,0.3c0.1,0.2,0.2,0.4,0.2,0.4s0,0.1,0.1,0.1c0.1,0.2,0.1,0.3,0.1,0.4
		l0.1,0.1c0,0.1,0,0.2,0.1,0.3c0.1,0.3,0.1,0.5,0.1,0.5c0,0.2,0.1,0.3,0.1,0.4c0,0,0,0.1,0.1,0.3c-0.1,0-0.1,0.1,0,0.2
		c0.1,0.1,0.1,0.2,0.1,0.3v0.1v0.1c0,0,0,0,0.1,0.1v0.1c0,0.1,0,0.2,0,0.4s0,0.3,0,0.4c0,0.1,0,0.2,0,0.2s0,0.1,0,0.2
		c0,0,0,0.1,0.1,0.2V52c0,0,0,0,0,0.1c0.1,0.1,0.1,0.5,0.1,1.2s0,1.1,0,1.2c0,0,0,0.1,0,0.2c0,0.1,0,0.2,0,0.3c0,0,0,0.1-0.1,0.2
		c-0.1,0.1-0.1,0.2,0,0.3c0,0,0,0.1,0,0.2c0,0.1,0.1,0.2,0.1,0.2c-0.1,0-0.2,0.1-0.2,0.1c0,0.3,0,0.5,0,0.5v0.1l-0.1,0.1v0.1
		c-0.1,0.2-0.1,0.3-0.1,0.3s0,0.1-0.1,0.1h-0.1c0,0,0,0,0,0.1l-0.1,0.1c0,0.1-0.1,0.1-0.1,0.2l-0.3,0.3c0,0.1-0.1,0.3-0.2,0.5
		s-0.2,0.4-0.2,0.5c-0.2,0.2-0.2,0.3-0.2,0.5c0,0-0.1,0-0.2,0.1c0,0.1,0,0.1-0.1,0.2c-0.1,0.1-0.1,0.2-0.1,0.3
		c-0.1,0-0.2,0.1-0.2,0.2c-0.1,0.1-0.1,0.2-0.2,0.2c0,0-0.1,0.1-0.2,0.2c-0.1,0.1-0.1,0.2-0.2,0.2c0,0.1,0,0.1-0.1,0.2
		c-0.2,0.1-0.4,0.2-0.6,0.4c-0.1,0.1-0.2,0.2-0.2,0.2c-0.1,0.1-0.2,0.2-0.4,0.3c-0.2,0.1-0.3,0.2-0.4,0.3h-0.1c0,0,0,0-0.1,0
		c0,0-0.1,0.1-0.2,0.1c-0.1,0.1-0.1,0.1-0.2,0.1s-0.2,0-0.3,0.1c-0.1,0-0.2,0-0.3,0.1c-0.1,0-0.1,0-0.2,0s-0.2,0-0.2,0
		s-0.1,0.1-0.2,0.2c-0.2,0-0.3,0-0.4,0c0,0.1-0.1,0.1-0.3,0.1c-0.2,0-0.3,0.1-0.3,0.2c-0.1,0-0.4,0-0.8,0s-0.7,0-0.9,0
		c-0.1,0-0.2,0-0.3,0c-0.2,0-0.3,0-0.4,0c0,0-0.1-0.1-0.1-0.2c-0.1,0-0.2,0-0.2,0.1s-0.1,0.1-0.1,0.1s-0.1,0-0.1-0.1h0.1
		c0,0-0.1,0-0.1-0.1c-0.1,0-0.1-0.1-0.1-0.1c-0.2,0.1-0.4,0-0.6-0.1s-0.4-0.2-0.5-0.1v-0.1c0,0-0.1,0-0.3-0.1
		c-0.1-0.1-0.3-0.1-0.5-0.1V63c0,0-0.1-0.1-0.1-0.2c-0.1-0.1-0.1-0.1-0.1-0.2c-0.1,0-0.1-0.1-0.1-0.1s0,0-0.1-0.1l-0.1-0.1
		c0,0,0,0-0.1,0H77l0,0l0,0c0,0-0.1,0-0.2-0.1c0,0-0.1,0-0.1-0.1c-0.1-0.1-0.1-0.1-0.1-0.2c-0.1,0-0.1,0-0.1,0
		c-0.1-0.1-0.2-0.2-0.3-0.3c-0.1-0.1-0.2-0.3-0.3-0.4h-0.1c-0.3-0.4-0.5-0.6-0.5-0.8c0,0-0.1-0.2-0.3-0.4v0c0,0-0.1-0.1-0.1-0.2
		c-0.1-0.1-0.1-0.1-0.1-0.2c0-0.3-0.1-0.6-0.3-0.9c0-0.1,0-0.2-0.1-0.3c0-0.1,0-0.1,0-0.1s0,0,0-0.1v-0.1c0,0,0-0.1-0.1-0.1
		l-0.1-0.1c0,0,0-0.2,0-0.5v-0.1v-0.1c0,0-0.1,0-0.1-0.1V57c0-0.1,0-0.2,0-0.4s0-0.3,0-0.4c0,0-0.1,0-0.1-0.1c0,0,0-0.1,0-0.2v-0.1
		c0,0,0-0.1-0.1-0.1c0-0.1,0-0.1,0-0.1c-0.1-0.1-0.1-0.2-0.1-0.2v-0.1l0.1-0.1c0.1-0.2,0-0.3-0.1-0.4c0,0,0-0.1,0-0.2v-0.1l0.2-0.2
		c0-0.1,0-0.3,0-0.7s0-0.6,0-0.7c0-0.1,0-0.1,0-0.2c0-0.1,0-0.1,0-0.2c0-0.1,0-0.2,0-0.4s0-0.3,0-0.5c0-0.1,0.1-0.2,0.2-0.3v-0.1
		v-0.1V51l0.1-0.1c0,0,0-0.2,0-0.4c0-0.3,0-0.4,0-0.5c0-0.4,0-0.6,0-0.6s0.1,0,0.2-0.1s0.1-0.1,0.2-0.1c0-0.1,0-0.1,0-0.1L74.6,49
		l0.1-0.1c0,0,0.1-0.1,0.1-0.2c0-0.1,0-0.1,0-0.2c0.1-0.1,0.1-0.1,0.1-0.1c0-0.1,0-0.2,0-0.4s0-0.3,0.1-0.3h0.1c0.1,0,0.1,0,0.1,0
		c0-0.1,0-0.1-0.1-0.1s-0.1,0-0.1-0.1l0.1-0.2c0,0,0.1-0.1,0.1-0.2c0.1-0.1,0.1-0.2,0.1-0.2v-0.1c0,0,0,0,0-0.1
		c0.1-0.1,0.1-0.2,0.1-0.3c0.1,0,0.1-0.1,0.2-0.2s0.1-0.2,0.1-0.2c0-0.1,0-0.2,0.1-0.3s0.2-0.2,0.2-0.2v-0.1c0,0,0-0.1,0.1-0.1
		c0-0.1,0.1-0.1,0.2-0.2c0.1-0.1,0.2-0.2,0.2-0.3c0.1,0,0.2-0.1,0.3-0.3c0.1,0,0.2-0.1,0.2-0.3c0-0.1,0-0.2,0-0.2
		c0.1,0.1,0.2,0,0.3-0.1c0.1,0,0.1-0.1,0.1-0.1h0.1c0.1,0,0.1-0.1,0.2-0.1c0.1-0.1,0.1-0.1,0.2-0.1c0.2,0,0.4-0.1,0.6-0.3
		c0.1,0,0.2,0,0.3-0.1c0.1-0.1,0.2-0.1,0.2-0.2l0,0c0,0,0,0,0-0.1c0.1,0.1,0.2,0,0.4-0.1c0.1,0,0.2,0,0.3,0c0.1,0,0.3,0,0.3,0
		c0.1,0,0.2,0,0.3,0C80.2,42.5,80.4,42.5,80.5,42.5z M80.4,45.5c-0.2,0.1-0.4,0.2-0.6,0.3s-0.4,0.2-0.6,0.4s-0.3,0.3-0.4,0.5
		c0,0-0.1,0.1-0.1,0.2C78.6,47,78.6,47,78.6,47v0.1c0,0,0,0.1-0.1,0.1l-0.1,0.1c0,0-0.1,0.2-0.2,0.4c0,0.1,0,0.1-0.1,0.2
		C78,48,78,48,78,48c0,0.1,0,0.2,0,0.2s0,0.1-0.1,0.2c0,0,0,0.1,0,0.2c0,0.1,0,0.1,0,0.2v0.1c-0.1,0.1-0.1,0.2-0.1,0.2
		c-0.2,0.1-0.2,0.3-0.2,0.5c-0.1,0.1-0.2,0.3-0.1,0.7c-0.1,0.1-0.2,0.3-0.1,0.5c-0.2,0.3-0.2,0.5-0.1,0.7c0,0,0,0.1-0.1,0.1
		c0,0-0.1,0-0.1,0.1s0,0.2-0.1,0.4s-0.1,0.3,0,0.4c-0.1,0.1-0.1,0.3-0.1,0.6v0.1c0,0.1,0,0.1,0,0.1s0,0.1-0.1,0.1l-0.1,0.1
		c0.1,0.1,0.1,0.2,0.1,0.3s0,0.3,0,0.5s0,0.3,0,0.4c0,0,0,0.1-0.1,0.1v0.1l0.1,0.1c0,0.1,0,0.2-0.1,0.5c0,0,0,0.1,0.1,0.1v0.1v0.1
		v0.1c0,0.2,0,0.3,0,0.4l0.1,0.1v0.1l0,0c0,0,0,0,0,0.1s0.1,0.2,0.1,0.2c0,0.1,0,0.1,0,0.2c0,0.1,0,0.1,0,0.1s0,0,0,0.1v0.1
		c0,0,0.1,0,0.1,0.1v0.1v0.1v0.1c0,0,0,0,0,0.1v0.1c0,0,0.1,0,0.1,0.1l0.1,0.1c0.1,0,0.1,0.1,0.1,0.1c-0.1,0.1-0.1,0.3,0.1,0.4V59
		c0,0,0,0.1,0.1,0.1s0.1,0.1,0.1,0.2l0.2,0.2c0.1,0.1,0.2,0.3,0.5,0.5c0.2,0.2,0.3,0.3,0.4,0.4c0.1,0,0.1,0,0.1,0
		c0.2,0.3,0.5,0.5,0.7,0.5c0.1,0.1,0.2,0.2,0.2,0.2s0.1,0,0.2,0s0.2,0,0.2,0l0.1,0.1l0.1,0.1h0.1h0.1c0,0,0,0,0.1,0s0.1,0,0.1,0
		c0.2,0,0.5,0,0.7,0c0,0,0.1,0,0.2-0.1s0.2-0.1,0.2-0.1c0.1,0,0.2,0,0.2,0s0.1,0,0.1-0.1l0.1-0.1c0,0,0.1,0,0.2,0
		c0.1-0.1,0.2-0.2,0.4-0.1c0.1-0.1,0.3-0.2,0.5-0.4s0.4-0.3,0.6-0.4c0,0,0-0.1,0.1-0.1l0.1-0.1c0,0,0,0,0-0.1s0.1-0.1,0.2-0.2
		c0.1-0.1,0.1-0.1,0.1-0.1s0.1-0.1,0.1-0.2c0.1-0.1,0.1-0.2,0.1-0.2s0-0.1,0.1-0.1s0.1-0.1,0.1-0.1c0.1-0.1,0.2-0.2,0.2-0.2v-0.1
		c0,0,0.1-0.2,0.3-0.5c0,0,0-0.1,0.1-0.1c0,0,0.1-0.2,0.1-0.5c0-0.1,0.1-0.2,0.2-0.3V57c0,0,0-0.1,0.1-0.1l0.1-0.1v-0.1
		c0-0.1,0-0.1,0-0.1c0.1-0.1,0.2-0.4,0.3-0.9l0.1-0.3v-0.1c0-0.1,0-0.1,0-0.1c0.1-0.1,0.1-0.2,0.1-0.2s0-0.1-0.1-0.1
		s-0.1-0.1-0.1-0.1c0-0.1,0-0.1,0.1-0.2c0.1-0.1,0.1-0.2,0.1-0.2c0-0.1,0-0.2,0-0.3c-0.1-0.1-0.1-0.2,0-0.2c0,0,0-0.1,0.1-0.1v-0.1
		l-0.1-0.1l-0.1-0.1c0.1-0.1,0.1-0.1,0.1-0.1s0-0.1-0.1-0.1v-0.1c0-0.1,0-0.2,0-0.3s0-0.2,0-0.2v-0.1l0.1-0.1c0,0,0-0.1-0.1-0.1
		c0-0.1,0-0.1-0.1-0.2c-0.1,0-0.1-0.1-0.1-0.1c0-0.1,0-0.1,0.1-0.2c0-0.1,0.1-0.1,0-0.2v-0.1l-0.1-0.1c0-0.1,0-0.1,0-0.1
		c0-0.1,0.1-0.1,0.1-0.1c-0.1,0-0.2-0.2-0.2-0.4s-0.1-0.4-0.2-0.4c0,0,0-0.1,0-0.2c0-0.1,0-0.2,0-0.2c-0.1-0.1-0.2-0.2-0.2-0.3
		c-0.3-0.6-0.8-1.1-1.4-1.7h-0.2c0-0.1-0.1-0.2-0.3-0.3h-0.1l-0.2-0.1l-0.1-0.1c-0.1-0.1-0.2-0.1-0.3-0.1c0,0-0.1,0-0.2,0
		s-0.2,0-0.2,0c-0.1-0.1-0.2-0.1-0.3-0.1c-0.1,0-0.2,0-0.3,0c-0.1,0-0.2,0-0.3,0c-0.2-0.2-0.3-0.3-0.4-0.2c-0.1-0.1-0.1-0.2,0-0.3
		c0,0,0-0.1,0.1-0.1l0.1-0.1c0-0.1,0-0.1-0.1-0.1s-0.1,0-0.1,0c0-0.2-0.1-0.2-0.1-0.2c-0.1,0-0.3,0-0.5,0
		C80.7,45.5,80.5,45.5,80.4,45.5z M81.4,45.5c-0.1,0-0.3,0-0.5,0s-0.4,0-0.6,0c-0.2,0.1-0.4,0.2-0.6,0.3s-0.4,0.2-0.6,0.4
		s-0.3,0.3-0.4,0.5c0,0-0.1,0.1-0.1,0.2C78.5,47,78.5,47,78.5,47v0.1c0,0,0,0.1-0.1,0.1l-0.1,0.1c0,0-0.1,0.2-0.2,0.4
		c0,0.1,0,0.1-0.1,0.2C77.9,48,77.9,48,77.9,48c0,0.1,0,0.2,0,0.2s0,0.1-0.1,0.1c0,0,0,0.1,0,0.2c0,0.1,0,0.1,0,0.2v0.1
		c-0.1,0.1-0.1,0.2-0.1,0.2c-0.2,0.1-0.2,0.3-0.2,0.5c-0.1,0.1-0.2,0.3-0.1,0.7c-0.1,0.1-0.2,0.3-0.1,0.5c-0.2,0.3-0.2,0.5-0.1,0.7
		c0,0,0,0.1-0.1,0.1c0,0-0.1,0-0.1,0.1s0,0.2-0.1,0.4s-0.1,0.3,0,0.4c-0.1,0.1-0.1,0.3-0.1,0.6v0.1c0,0.1,0,0.1,0,0.1s0,0.1-0.1,0.1
		l-0.1,0.1c0.1,0.1,0.1,0.2,0.1,0.3s0,0.3,0,0.5s0,0.3,0,0.4c0,0,0,0.1-0.1,0.1v0.1l0.1,0.1c0,0.1,0,0.2-0.1,0.5c0,0,0,0.1,0.1,0.1
		v0.1v0.1v0.1c0,0.2,0,0.3,0,0.4l0.1,0.1v0.1l0,0c0,0,0,0,0,0.1s0.1,0.2,0.1,0.2c0,0.1,0,0.1,0,0.2c0,0.1,0,0.1,0,0.1s0,0,0,0.1v0.1
		c0,0,0.1,0,0.1,0.1v0.1v0.1v0.1c0,0,0,0,0,0.1v0.1c0,0,0.1,0,0.1,0.1l0.1,0.1c0.1,0,0.1,0.1,0.1,0.1c-0.1,0.1-0.1,0.3,0.1,0.4V59
		c0,0,0,0.1,0.1,0.1s0.1,0.1,0.1,0.2l0.2,0.2c0.1,0.1,0.2,0.3,0.5,0.5c0.2,0.2,0.3,0.3,0.4,0.4c0.1,0,0.1,0,0.1,0
		c0.2,0.3,0.5,0.5,0.7,0.5c0.1,0.1,0.2,0.2,0.2,0.2s0.1,0,0.2,0s0.2,0,0.2,0l0.1,0.1l0.1,0.1h0.1h0.1c0,0,0,0,0.1,0s0.1,0,0.1,0
		c0.2,0,0.5,0,0.7,0c0,0,0.1,0,0.2-0.1s0.2-0.1,0.2-0.1c0.1,0,0.2,0,0.2,0s0.1,0,0.1-0.1l0.1-0.1c0,0,0.1,0,0.2,0
		c0.1-0.1,0.2-0.2,0.4-0.1c0.1-0.1,0.3-0.2,0.5-0.4s0.4-0.3,0.6-0.4c0,0,0-0.1,0.1-0.1l0.1-0.1c0,0,0,0,0-0.1s0.1-0.1,0.2-0.2
		c0.1-0.1,0.1-0.1,0.1-0.1s0.1-0.1,0.1-0.2c0.1-0.1,0.1-0.2,0.1-0.2s0-0.1,0.1-0.1s0.1-0.1,0.1-0.1c0.1-0.1,0.2-0.2,0.2-0.2v-0.1
		c0,0,0.1-0.2,0.3-0.5c0,0,0-0.1,0.1-0.1c0,0,0.1-0.2,0.1-0.5c0-0.1,0.1-0.2,0.2-0.3V57c0,0,0-0.1,0.1-0.1l0.1-0.1v-0.1
		c0-0.1,0-0.1,0-0.1c0.1-0.1,0.2-0.4,0.3-0.9l0.1-0.3v-0.1c0-0.1,0-0.1,0-0.1c0.1-0.1,0.1-0.2,0.1-0.2s0-0.1-0.1-0.1
		s-0.1-0.1-0.1-0.1c0-0.1,0-0.1,0.1-0.2c0.1-0.1,0.1-0.2,0.1-0.2c0-0.1,0-0.2,0-0.3c-0.1-0.1-0.1-0.2,0-0.2c0,0,0-0.1,0.1-0.1v-0.1
		l-0.1-0.1l-0.1-0.1c0.1-0.1,0.1-0.1,0.1-0.1s0-0.1-0.1-0.1v-0.1c0-0.1,0-0.2,0-0.3s0-0.2,0-0.2v-0.1l0.1-0.1c0,0,0-0.1-0.1-0.1
		c0-0.1,0-0.1-0.1-0.2c-0.1,0-0.1-0.1-0.1-0.1c0-0.1,0-0.1,0.1-0.2c0-0.1,0.1-0.1,0-0.2v-0.1l-0.1-0.1c0-0.1,0-0.1,0-0.1
		c0-0.1,0.1-0.1,0.1-0.1c-0.1,0-0.2-0.2-0.2-0.4s-0.1-0.4-0.2-0.4c0,0,0-0.1,0-0.2c0-0.1,0-0.2,0-0.2c-0.1-0.1-0.2-0.2-0.2-0.3
		c-0.3-0.6-0.8-1.1-1.4-1.7H84c0-0.1-0.1-0.2-0.3-0.3h-0.1l-0.2-0.1l-0.1-0.1c-0.1-0.1-0.2-0.1-0.3-0.1c0,0-0.1,0-0.2,0
		s-0.2,0-0.2,0c-0.1-0.1-0.2-0.1-0.3-0.1c-0.1,0-0.2,0-0.3,0c-0.1,0-0.2,0-0.3,0c-0.2-0.2-0.3-0.3-0.4-0.2c-0.1-0.1-0.1-0.2,0-0.3
		c0,0,0-0.1,0.1-0.1l0.1-0.1c0-0.1,0-0.1-0.1-0.1s-0.1,0-0.1,0C81.5,45.6,81.4,45.5,81.4,45.5z"/>
</g>
</svg>
