<?xml version="1.0" encoding="utf-8"?>
<!-- Generator: Adobe Illustrator 19.0.1, SVG Export Plug-In . SVG Version: 6.00 Build 0)  -->
<svg version="1.1" id="Layer_1" xmlns="http://www.w3.org/2000/svg" xmlns:xlink="http://www.w3.org/1999/xlink" x="0px" y="0px"
	 viewBox="0 0 100 100" enable-background="new 0 0 100 100" xml:space="preserve">
<g>
	<path fill="#BF9000" d="M17.6,42.8c0.5,0.1,0.8,0,0.8-0.2c0,0,0.1,0,0.4,0c0,0,0,0,0,0.1c0,0,0,0,0,0.1c0,0,0.1,0,0.2,0
		s0.1,0,0.1,0.1c0.1,0,0.2,0,0.4,0.1c0.4,0,0.7,0.1,0.8,0.2h0.1c0.1,0.1,0.2,0.1,0.3,0.2c0.1,0.1,0.2,0.2,0.3,0.2v0.1
		c0.2,0.1,0.3,0.3,0.4,0.7l0.1,0.1c0.1,0.2,0,0.3,0,0.4c0,0.1,0,0.2,0,0.3c-0.1,0.1-0.1,0.1-0.1,0.2c-0.1,0.1-0.1,0.1-0.1,0.1
		c0,0.1,0,0.2-0.1,0.3c0,0.1,0,0.1,0,0.1L21.1,46c0,0,0,0-0.1,0c0,0,0,0-0.1,0c0,0,0,0.1-0.1,0.1s-0.1,0-0.2,0c0,0,0,0.1-0.1,0.1
		c0,0,0,0.1-0.1,0.1s-0.2,0-0.2,0c0,0.1,0,0.1,0,0.1s-0.1,0-0.2,0s-0.1,0-0.2,0h-0.1h-0.1c0,0,0-0.1,0.1-0.1l-0.1-0.1
		c0-0.1-0.1-0.1-0.1-0.1l-0.1,0.1h-0.1c0-0.1,0-0.1-0.1-0.2c-0.1-0.1-0.1-0.1-0.2-0.1V46v0.1L18.9,46c0,0,0-0.1-0.1-0.1
		c0,0,0,0-0.1-0.1c0-0.2-0.2-0.2-0.5-0.2c-0.1,0-0.1,0-0.2,0.1c-0.1,0-0.1,0-0.2,0s-0.1,0-0.2,0l-0.1,0.1c-0.1,0-0.2,0-0.4,0
		c-0.3,0.1-0.4,0.1-0.5,0.2c-0.2-0.1-0.3-0.1-0.3,0c-0.1,0-0.2,0-0.3,0c-0.1,0-0.2,0-0.2,0v0.1c-0.1,0-0.2,0-0.2,0
		c-0.1-0.1-0.2-0.1-0.2,0c0,0-0.1,0-0.1,0.1l-0.1,0.1c-0.1,0-0.1,0-0.2,0c-0.1,0-0.1,0-0.2,0c0,0-0.1,0-0.1,0.1h-0.1
		c-0.1,0-0.1,0-0.1,0v0.1c-0.3,0-0.4,0-0.5,0c0,0,0,0,0,0.1s0,0,0,0.1c-0.2-0.1-0.4-0.1-0.6,0.2c0,0-0.1,0-0.1-0.1
		c-0.1,0-0.1,0.1,0,0.2c0,0.1,0,0.1,0.1,0.1s0,0.1,0,0.1v0.1c0,0.1,0,0.1,0,0.1c0,0.1,0,0.2,0.1,0.2c0,0.1,0,0.2,0.1,0.3
		s0.1,0.2,0,0.3c0,0.1,0,0.2,0.1,0.3c0,0,0,0,0,0.1c0,0,0,0,0,0.1s0,0.1,0,0.2c0,0.1,0.1,0.1,0.1,0.1c0,0.6,0,0.9,0,0.9
		c-0.1,0.1-0.1,0.3,0,0.5c0,0,0,0.1,0,0.2c0,0,0,0.1-0.1,0.1c0,0.1,0,0.1,0,0.2c0.1,0.1,0.1,0.1,0.1,0.1v0.1v0.1c0,0.1,0,0.2,0,0.5
		c0,0.2,0,0.4,0,0.5c0,0,0,0.1,0,0.2c0,0.1,0.1,0.1,0.2,0.1c0.1,0,0.2-0.1,0.2-0.1c0.3,0,0.4,0,0.5-0.1c0.3,0,0.5,0,0.5,0
		c0.2,0,0.3,0,0.4,0c0,0,0.1,0,0.1-0.1c0.1,0,0.1-0.1,0.1-0.1s0.1,0,0.2,0c0.2,0,0.3,0,0.3-0.1c0.2,0.1,0.3,0,0.5,0h0.1H17h0.1
		c0.1,0,0.1,0,0.1,0c0.1,0,0.3,0,0.4,0v-0.1c0.1,0.1,0.2,0.1,0.4,0c0.2,0,0.3-0.1,0.3-0.1c0.1,0,0.1,0,0.2,0s0.1-0.1,0.1-0.1
		s0,0,0.1,0s0,0,0.1,0.1c0,0,0.1,0,0.2-0.1s0.2-0.1,0.2-0.1c0.1-0.1,0.1-0.1,0.1-0.1s0.1,0,0.1,0.1c0.2,0,0.4,0,0.4-0.1
		c0.1,0,0.1,0,0.2,0s0.1,0,0.2,0s0.1,0,0.2,0.1c0.1,0,0.2,0.1,0.2,0.1c0.1,0,0.2,0.1,0.2,0.2c0.1,0,0.1,0,0.2,0c0,0,0,0,0.1,0
		c0,0,0,0.1,0.1,0.1c0.2,0,0.3,0,0.4,0c0,0,0,0.1,0.1,0.2v0.1c0,0.1,0.1,0.1,0.2,0.3c0,0.2,0.1,0.3,0.2,0.4c0,0,0,0.1-0.1,0.1
		c0,0.1,0,0.2-0.1,0.3s-0.1,0.2-0.1,0.3h-0.1c0,0,0,0,0,0.1s0,0,0,0.1h-0.1l0,0h-0.1c0,0-0.1,0-0.1-0.1h-0.1c0,0-0.1,0-0.1,0.1h-0.1
		c0,0.1-0.1,0.1-0.3,0.2c-0.2,0.1-0.3,0.1-0.3,0.2c-0.2,0-0.4,0-0.6,0.2h-0.1c0,0,0,0-0.1,0.1c0,0,0,0,0,0.1c-0.1,0-0.1,0-0.2-0.1
		c0,0,0,0-0.1,0s0,0.1,0,0.1c-0.1,0-0.1,0-0.3,0S19,54,19,54s-0.1,0-0.1,0.1l-0.1,0.1c-0.1,0-0.2,0-0.2,0c-0.1,0-0.1,0.1-0.1,0.2
		c-0.1-0.1-0.1-0.1-0.2-0.1s-0.2,0-0.2,0.1v0.1c-0.1,0-0.1,0-0.2,0c-0.1-0.1-0.1,0-0.2,0c0,0-0.1,0-0.2,0v0.2c-0.1,0-0.1,0-0.3,0
		c-0.1,0-0.1,0-0.2,0s-0.1,0.1,0,0.2l-0.2-0.1c0,0-0.2,0-0.4,0l-0.1,0.1L16.2,55c-0.2,0-0.3,0-0.4,0l-0.1,0.2c-0.3,0-0.5,0-0.5,0
		c-0.1,0-0.1,0.1-0.2,0.1c0,0,0,0,0,0.1c-0.2,0.1-0.4,0.1-0.5,0c0,0-0.1,0-0.1,0.1l-0.1,0.1c0,0-0.1,0-0.1-0.1l-0.1-0.1
		c-0.1,0-0.1,0-0.2,0.1c-0.1,0-0.1,0-0.2,0c-0.1,0-0.1,0.2,0,0.5v0.1v0.1c0,0.1,0.1,0.1,0.2,0.1c0.1,0.1,0,0.2-0.1,0.2
		c0,0,0,0.1,0,0.2c0,0.1,0,0.2,0.1,0.2c0,0,0,0,0,0.1c0,0,0,0,0,0.1s0,0.1-0.1,0.3c0.1,0.1,0.1,0.2,0.1,0.5c0,0.2,0,0.4,0.1,0.6
		c-0.1,0.2-0.1,0.4,0,0.4c0,0.1,0,0.1,0,0.3v0.1v0.1c0-0.4,0-0.2,0-0.2c0.1,0.1,0.1,0.1,0.2,0.3s0.1,0.2,0.1,0.3
		c0.1,0,0.2,0,0.3,0.1c0.2,0,0.3,0,0.3,0s0.1,0,0.1-0.1c0.1,0,0.1,0,0.1,0.1c0.4,0,0.6-0.1,0.7-0.1c0.1,0,0.2,0,0.3,0
		c0.1,0,0.3,0,0.3,0c0.1-0.1,0.2-0.1,0.6-0.2c0,0,0,0,0-0.1v-0.1c0.1,0,0.1,0,0.2,0s0.1,0,0.2,0c0,0,0.1-0.1,0.2-0.1
		s0.2-0.1,0.2-0.1c0.2,0,0.3,0,0.5-0.1s0.3-0.2,0.5-0.2c0-0.1,0.1-0.1,0.1-0.1c0.2,0.1,0.3,0,0.3,0c0.2,0,0.4-0.1,0.5-0.3
		c0.1,0,0.2,0,0.2,0c0.1-0.1,0.2-0.1,0.3-0.1c0.4,0,0.7,0,0.8,0.1h0.1c0,0.1,0.1,0.3,0.2,0.4h0.1c0.1,0,0.1,0.1,0.2,0.2
		c0,0.1,0.1,0.2,0.2,0.3c0,0.1,0,0.1,0.1,0.2c0.1,0.1,0.1,0.1,0.1,0.2c0,0,0,0,0,0.1s0,0.1,0,0.2c-0.1,0.2-0.2,0.3-0.2,0.4
		c-0.1,0-0.2,0.1-0.3,0.2c-0.2,0-0.3,0.1-0.3,0.4h-0.1H21c0,0-0.1,0.1-0.1,0.2h-0.1h-0.1c0,0-0.1,0-0.1,0.1c-0.2,0-0.3,0.1-0.3,0.2
		h-0.2c-0.1,0.2-0.3,0.2-0.4,0.1c0,0-0.1,0.1-0.1,0.2h-0.1c-0.1-0.1-0.2-0.1-0.3,0c-0.1,0-0.1,0.1-0.1,0.2h-0.2c0,0,0,0,0,0.1v0.1
		c0,0-0.1-0.1-0.2-0.1s-0.2,0-0.3,0c0,0,0,0.1-0.1,0.1s0,0.1-0.1,0.1h-0.1H18c0,0-0.1,0.1-0.1,0.2c-0.1-0.1-0.3,0-0.4,0
		c0,0,0,0,0,0.1c-0.1,0-0.2,0-0.3,0c-0.2,0-0.3,0.1-0.3,0.1h-0.1c0,0,0,0-0.1,0c0,0-0.1,0-0.2,0s-0.2,0-0.2,0.1s0,0.1,0,0.1
		s-0.1,0-0.2,0S16,63,16,63s0-0.1-0.1-0.1C15.6,63,15.5,63,15.5,63v0.1c-0.1,0-0.1,0-0.2,0L15.2,63l-0.1,0.1H15c0,0-0.1,0-0.2,0
		c-0.1,0-0.1,0-0.2,0c0-0.1,0-0.1,0-0.1h-0.1c-0.1,0-0.1,0.1-0.1,0.2c-0.2,0-0.4,0-0.6,0c0-0.1,0-0.1-0.1-0.2c-0.1,0-0.1,0-0.2,0
		v0.1c0,0.1,0,0.1,0,0.1s0,0,0-0.1s0-0.1,0-0.1h-0.2v-0.1c-0.1-0.1-0.1-0.1-0.3-0.1c-0.1-0.1-0.1-0.1-0.2-0.1c0,0-0.1,0-0.1-0.1
		c-0.1-0.1-0.1-0.1-0.1-0.2h-0.1h-0.1v-0.1c0,0,0-0.1-0.1-0.1h-0.1h-0.1c0-0.1,0-0.2-0.2-0.3v-0.1c-0.1-0.1-0.2-0.2-0.3-0.2h-0.1
		c-0.1-0.1-0.2-0.1-0.2-0.2c-0.1-0.1-0.1-0.2-0.2-0.3C11,61,11,60.9,10.9,60.9c-0.1-0.4-0.2-0.6-0.2-0.6c0-0.1,0-0.1-0.1-0.3
		c0-0.1,0-0.1,0-0.2c0-0.1,0-0.2,0-0.2c0-0.1,0-0.1-0.1-0.2v-0.1v-0.1c0,0,0-0.1,0-0.3s0-0.3-0.1-0.3c0-0.1,0-0.2,0-0.3
		c0-0.2,0-0.3,0-0.3c0-0.4,0-0.9,0-1.7s0-1.3,0-1.7c0.1,0,0.2,0,0.1-0.1c0-0.1-0.1-0.2-0.1-0.2c0-0.1,0-0.2,0.1-0.3
		c0-0.1,0.1-0.2,0.1-0.2c-0.1-0.1-0.1-0.1-0.1-0.2c0-0.1,0-0.1,0.1-0.1c0-0.1,0-0.6,0-1.5c0.1,0,0.1-0.1,0.1-0.1
		c0-0.1,0-0.1-0.1-0.2c0.1,0,0.1-0.1,0-0.2s0-0.2,0-0.3v-0.1c0.1-0.1,0-0.2,0-0.2c0-0.1,0-0.2,0-0.5s0-0.4-0.1-0.4
		c0.1,0,0.1-0.2,0.1-0.4s0-0.3,0-0.4l-0.2-0.1c0-0.2,0-0.3,0.1-0.3l-0.1-0.1v-0.1c0-0.3,0-0.4,0-0.5c0,0,0,0-0.1,0c0,0,0,0-0.1,0
		c0-0.3,0-0.5,0-0.7c-0.1,0-0.1,0-0.1,0s0-0.1,0-0.2v-0.1V47v-0.1v-0.1L10,46.7c-0.1-0.1-0.1-0.2,0-0.3l-0.1-0.1c0,0,0-0.1,0-0.2
		c-0.1,0-0.1-0.1-0.2-0.2c0-0.1,0-0.2,0-0.2c0-0.1,0-0.1,0-0.2c-0.1-0.1,0-0.2,0-0.3c0.1-0.1,0.1-0.2,0.1-0.3c0,0,0.1-0.1,0.2-0.2
		c0.1-0.1,0.1-0.2,0.2-0.2l0,0v-0.1l0.1,0.1c0,0,0.1,0,0.2,0c0.1,0,0.2,0,0.2,0c0.1,0,0.1,0,0.2-0.1c0.1-0.1,0.1-0.1,0.1-0.1
		c0.1,0,0.1,0,0.2,0s0.2,0,0.2,0h0.1h0.1c0.2,0,0.3,0,0.4-0.1c0.4-0.1,0.6-0.1,0.6-0.2h0.2c0,0,0,0,0.1,0c0,0,0,0,0.1,0
		c0,0,0.1,0,0.2,0c0.1,0,0.1,0,0.2-0.1c0.1-0.1,0.1-0.1,0.2-0.1c0,0,0-0.1,0-0.2c0.1,0,0.1,0,0.1,0s0,0,0,0.1v0.1
		c0.2-0.1,0.4-0.1,0.4-0.2c0.1,0,0.1,0,0.2,0.1l0.3-0.1c0,0,0.1-0.1,0.3-0.2c0,0.1,0.1,0.1,0.1,0.2c0,0,0.1,0,0.2-0.1
		c0.1,0,0.1,0,0.2,0h0.1c0,0,0.1,0,0.1-0.1c0,0,0.1,0,0.2,0c0.1,0,0.1,0,0.2,0c0.2,0,0.3-0.1,0.4-0.1h0.1c0.1,0,0.1,0,0.1-0.1
		c0.1,0,0.1,0,0.2,0c0,0,0.1,0,0.2-0.1c0.1,0,0.1,0,0.2,0C17.5,42.9,17.5,42.9,17.6,42.8C17.6,42.9,17.6,42.9,17.6,42.8L17.6,42.8z
		 M18.4,42.7c0,0,0.1,0,0.2,0s0.2,0,0.2,0l0,0c0,0,0,0,0,0.1c0,0,0.1,0,0.2,0s0.1,0,0.1,0.1c0.1,0,0.2,0,0.4,0.1
		c0.4,0,0.7,0.1,0.8,0.2h0.1c0.1,0.1,0.2,0.1,0.3,0.2c0.1,0.1,0.2,0.2,0.3,0.2v0.1c0.2,0.1,0.3,0.3,0.4,0.7h0.1l0,0
		c0.1,0.2,0,0.3,0,0.4c0,0.1,0,0.2,0,0.3c-0.1,0.1-0.1,0.1-0.1,0.2c-0.1,0.1-0.1,0.1-0.1,0.1c0,0.1,0,0.2-0.1,0.3c0,0.1,0,0.1,0,0.1
		l-0.1,0.1c0,0,0,0-0.1,0c0,0,0,0-0.1,0c0,0,0,0.1-0.1,0.1s-0.1,0-0.2,0c0,0,0,0.1-0.1,0.1c0,0,0,0.1-0.1,0.1s-0.2,0-0.2,0
		c0,0.1,0,0.1,0,0.1s-0.1,0-0.2,0s-0.1,0-0.2,0h-0.1h-0.1c0,0,0-0.1,0.1-0.1l-0.1-0.1c0-0.1-0.1-0.1-0.1-0.1l-0.1,0.1h-0.1
		c0-0.1,0-0.1-0.1-0.2c-0.1-0.1-0.1-0.1-0.2-0.1v0.1V46l-0.1-0.1c0,0,0-0.1-0.1-0.1c0,0,0,0-0.1-0.1c0-0.2-0.2-0.2-0.5-0.2
		c-0.1,0-0.1,0-0.2,0.1c-0.1,0-0.1,0-0.2,0s-0.1,0-0.2,0l-0.1,0.1c-0.1,0-0.2,0-0.4,0c-0.3,0.1-0.4,0.1-0.5,0.2
		c-0.2-0.1-0.3-0.1-0.3,0c-0.1,0-0.2,0-0.3,0c-0.1,0-0.2,0-0.2,0V46c-0.1,0-0.2,0-0.2,0c-0.1-0.1-0.2-0.1-0.2,0c0,0-0.1,0-0.1,0.1
		l-0.1,0.1c-0.1,0-0.1,0-0.2,0c-0.1,0-0.1,0-0.2,0c0,0-0.1,0-0.1,0.1h-0.1c-0.1,0-0.1,0-0.1,0v0.1c-0.3,0-0.4,0-0.5,0c0,0,0,0,0,0.1
		s0,0,0,0.1c-0.2-0.1-0.4-0.1-0.6,0.2c0,0-0.1,0-0.1-0.1c-0.1,0-0.1,0.1,0,0.2c0,0.1,0,0.1,0.1,0.1s0,0.1,0,0.1v0.1
		c0,0.1,0,0.1,0,0.1c0,0.1,0,0.2,0.1,0.2c0,0.1,0,0.2,0.1,0.3s0.1,0.2,0,0.3c0,0.1,0,0.2,0.1,0.3c0,0,0,0,0,0.1c0,0,0,0,0,0.1
		s0,0.1,0,0.2c0,0.1,0.1,0.1,0.1,0.1c0,0.6,0,0.9,0,0.9c-0.1,0.1-0.1,0.3,0,0.5c0,0,0,0.1,0,0.2c0,0,0,0.1-0.1,0.1
		c0,0.1,0,0.1,0,0.2c0.1,0.1,0.1,0.1,0.1,0.1V51v0.1c0,0.1,0,0.2,0,0.5c0,0.2,0,0.4,0,0.5c0,0,0,0.1,0,0.2c0,0.1,0.1,0.1,0.2,0.1
		c0.1,0,0.2-0.1,0.2-0.1c0.3,0,0.4,0,0.5-0.1c0.3,0,0.5,0,0.5,0c0.2,0,0.3,0,0.4,0c0,0,0.1,0,0.1-0.1c0.1,0,0.1-0.1,0.1-0.1
		s0.1,0,0.2,0c0.2,0,0.3,0,0.3-0.1c0.2,0.1,0.3,0,0.5,0h0.1H17h0.1c0.1,0,0.1,0,0.1,0c0.1,0,0.3,0,0.4,0v-0.1c0.1,0.1,0.2,0.1,0.4,0
		c0.2,0,0.3-0.1,0.3-0.1c0.1,0,0.1,0,0.2,0s0.1-0.1,0.1-0.1s0,0,0.1,0s0,0,0.1,0.1c0,0,0.1,0,0.2-0.1s0.2-0.1,0.2-0.1
		c0.1-0.1,0.1-0.1,0.1-0.1s0.1,0,0.1,0.1c0.2,0,0.4,0,0.4-0.1c0.1,0,0.1,0,0.2,0s0.1,0,0.2,0s0.1,0,0.2,0.1c0.1,0,0.2,0.1,0.2,0.1
		c0.1,0,0.2,0.1,0.2,0.2c0.1,0,0.1,0,0.2,0c0,0,0,0,0.1,0c0,0,0,0.1,0.1,0.1c0.2,0,0.3,0,0.4,0c0,0,0,0.1,0.1,0.2v0.1
		c0,0.1,0.1,0.1,0.2,0.3c0,0.2,0.1,0.3,0.2,0.4c0,0,0,0.1-0.1,0.1c0,0.1,0,0.2-0.1,0.3s-0.1,0.2-0.1,0.3h-0.1c0,0,0,0,0,0.1
		s0,0,0,0.1h-0.1l0,0h-0.1c0,0-0.1,0-0.1-0.1h-0.1c0,0-0.1,0-0.1,0.1h-0.1c0,0.1-0.1,0.1-0.3,0.2c-0.2,0.1-0.3,0.1-0.3,0.2
		c-0.2,0-0.4,0-0.6,0.2h-0.1c0,0,0,0-0.1,0.1c0,0,0,0,0,0.1c-0.1,0-0.1,0-0.2-0.1c0,0,0,0-0.1,0s0,0.1,0,0.1c-0.1,0-0.1,0-0.3,0
		S19,54,19,54s-0.1,0-0.1,0.1l-0.1,0.1c-0.1,0-0.2,0-0.2,0c-0.1,0-0.1,0.1-0.1,0.2c-0.1-0.1-0.1-0.1-0.2-0.1s-0.2,0-0.2,0.1v0.1
		c-0.1,0-0.1,0-0.2,0c-0.1-0.1-0.1,0-0.2,0c0,0-0.1,0-0.2,0v0.2c-0.1,0-0.1,0-0.3,0c-0.1,0-0.1,0-0.2,0s-0.1,0.1,0,0.2l-0.2-0.1
		c0,0-0.2,0-0.4,0l-0.1,0.1L16.2,55c-0.2,0-0.3,0-0.4,0l-0.1,0.2c-0.3,0-0.5,0-0.5,0c-0.1,0-0.1,0.1-0.2,0.1c0,0,0,0,0,0.1
		c-0.2,0.1-0.4,0.1-0.5,0c0,0-0.1,0-0.1,0.1l-0.1,0.1c0,0-0.1,0-0.1-0.1l-0.1-0.1c-0.1,0-0.1,0-0.2,0.1c-0.1,0-0.1,0-0.2,0
		c-0.1,0-0.1,0.2,0,0.5v0.1v0.1c0,0.1,0.1,0.1,0.2,0.1c0.1,0.1,0,0.2-0.1,0.2c0,0,0,0.1,0,0.2c0,0.1,0,0.2,0.1,0.2c0,0,0,0,0,0.1
		c0,0,0,0,0,0.1s0,0.1-0.1,0.3c0.1,0.1,0.1,0.2,0.1,0.5c0,0.2,0,0.4,0.1,0.6c-0.1,0.2-0.1,0.4,0,0.4c0,0.1,0,0.1,0,0.3v0.1v0.1
		c0-0.4,0-0.2,0-0.2c0.1,0.1,0.1,0.1,0.2,0.3s0.1,0.2,0.1,0.3c0.1,0,0.2,0,0.3,0.1c0.2,0,0.3,0,0.3,0s0.1,0,0.1-0.1
		c0.1,0,0.1,0,0.1,0.1c0.4,0,0.6-0.1,0.7-0.1c0.1,0,0.2,0,0.3,0c0.1,0,0.3,0,0.3,0c0.1-0.1,0.2-0.1,0.6-0.2c0,0,0,0,0-0.1v-0.1
		c0.1,0,0.1,0,0.2,0s0.1,0,0.2,0c0,0,0.1-0.1,0.2-0.1s0.2-0.1,0.2-0.1c0.2,0,0.3,0,0.5-0.1s0.3-0.2,0.5-0.2c0-0.1,0.1-0.1,0.1-0.1
		c0.2,0.1,0.3,0,0.3,0c0.2,0,0.4-0.1,0.5-0.3c0.1,0,0.2,0,0.2,0c0.1-0.1,0.2-0.1,0.3-0.1c0.4,0,0.7,0,0.8,0.1h0.1
		c0,0.1,0.1,0.3,0.2,0.4h0.1c0.1,0,0.1,0.1,0.2,0.2c0,0.1,0.1,0.2,0.2,0.3c0,0.1,0,0.1,0.1,0.2c0.1,0.1,0.1,0.1,0.1,0.2
		c0,0,0,0,0,0.1s0,0.1,0,0.2c-0.1,0.2-0.2,0.3-0.2,0.4c-0.1,0-0.2,0.1-0.3,0.2c-0.2,0-0.3,0.1-0.3,0.4h-0.1H21c0,0-0.1,0.1-0.1,0.2
		h-0.1h-0.1c0,0-0.1,0-0.1,0.1c-0.2,0-0.3,0.1-0.3,0.2h-0.2c-0.1,0.2-0.3,0.2-0.4,0.1c0,0-0.1,0.1-0.1,0.2h-0.1
		c-0.1-0.1-0.2-0.1-0.3,0c-0.1,0-0.1,0.1-0.1,0.2h-0.2c0,0,0,0,0,0.1v0.1c0,0-0.1-0.1-0.2-0.1s-0.2,0-0.3,0c0,0,0,0.1-0.1,0.1
		s0,0.1-0.1,0.1h-0.1H18c0,0-0.1,0.1-0.1,0.2c-0.1-0.1-0.3,0-0.4,0c0,0,0,0,0,0.1c-0.1,0-0.2,0-0.3,0c-0.2,0-0.3,0.1-0.3,0.1h-0.1
		c0,0,0,0-0.1,0c0,0-0.1,0-0.2,0s-0.2,0-0.2,0.1s0,0.1,0,0.1s-0.1,0-0.2,0S16,63,16,63s0-0.1-0.1-0.1C15.6,63,15.5,63,15.5,63v0.1
		c-0.1,0-0.1,0-0.2,0L15.2,63l-0.1,0.1H15c0,0-0.1,0-0.2,0c-0.1,0-0.1,0-0.2,0c0-0.1,0-0.1,0-0.1h-0.1c-0.1,0-0.1,0.1-0.1,0.2
		c-0.2,0-0.4,0-0.6,0c0-0.1,0-0.1-0.1-0.2c-0.1,0-0.1,0-0.2,0v0.1c0,0.1,0,0.1,0,0.1s0,0,0-0.1s0-0.1,0-0.1h-0.2v-0.1
		c-0.1-0.1-0.1-0.1-0.3-0.1c-0.1-0.1-0.1-0.1-0.2-0.1c0,0-0.1,0-0.1-0.1c-0.1-0.1-0.1-0.1-0.1-0.2h-0.1h-0.1v-0.1c0,0,0-0.1-0.1-0.1
		h-0.1h-0.1c0-0.1,0-0.2-0.2-0.3v-0.1c-0.1-0.1-0.2-0.2-0.3-0.2h-0.1c-0.1-0.1-0.2-0.1-0.2-0.2c-0.1-0.1-0.1-0.2-0.2-0.3
		C11,61,11,60.9,10.9,60.9c-0.1-0.4-0.2-0.6-0.2-0.6c0-0.1,0-0.1-0.1-0.3c0-0.1,0-0.1,0-0.2c0-0.1,0-0.2,0-0.2s0-0.1-0.1-0.1v-0.1
		v-0.1c0,0,0-0.1,0-0.3s0-0.3-0.1-0.3c0-0.1,0-0.2,0-0.3c0-0.2,0-0.3,0-0.3c0-0.4,0-0.9,0-1.7s0-1.3,0-1.7c0.1,0,0.2,0,0.1-0.1
		c0-0.1-0.1-0.2-0.1-0.2c0-0.1,0-0.2,0.1-0.3c0-0.1,0.1-0.2,0.1-0.2c-0.1-0.1-0.1-0.1-0.1-0.2c0-0.1,0-0.1,0.1-0.1
		c0-0.1,0-0.6,0-1.5c0.1,0,0.1-0.1,0.1-0.1c0-0.1,0-0.1-0.1-0.2c0.1,0,0.1-0.1,0-0.2s0-0.2,0-0.3v-0.1c0.1-0.1,0-0.1,0-0.2
		c0-0.1,0-0.2,0-0.5s0-0.4-0.1-0.4c0.1,0,0.1-0.2,0.1-0.4s0-0.3,0-0.4l-0.2-0.1c0-0.2,0-0.3,0.1-0.3l-0.1-0.1v-0.1
		c0-0.3,0-0.4,0-0.5c0,0,0,0-0.1,0c0,0,0,0-0.1,0c0-0.3,0-0.5,0-0.7c-0.1,0-0.1,0-0.1,0s0-0.1,0-0.2v-0.1v-0.1V47v-0.1L10,46.8
		c-0.1-0.1-0.1-0.2,0-0.3l-0.1-0.1c0,0,0-0.1,0-0.2c-0.1,0-0.1-0.1-0.2-0.2c0-0.1,0-0.2,0-0.2c0-0.1,0-0.1,0-0.2
		c-0.1-0.1,0-0.2,0-0.3c0.1-0.1,0.1-0.2,0.1-0.3c0,0,0.1-0.1,0.2-0.2c0.1-0.1,0.1-0.2,0.2-0.2l0,0v-0.1l0.1,0.1c0,0,0.1,0,0.2,0
		c0.1,0,0.2,0,0.2,0c0.1,0,0.1,0,0.2-0.1c0.1-0.1,0.1-0.1,0.1-0.1c0.1,0,0.1,0,0.2,0s0.2,0,0.2,0h0.1h0.1c0.2,0,0.3,0,0.4-0.1
		c0.4-0.1,0.6-0.1,0.6-0.2h0.2c0,0,0,0,0.1,0c0,0,0,0,0.1,0c0,0,0.1,0,0.2,0c0.1,0,0.1,0,0.2-0.1c0.1-0.1,0.1-0.1,0.2-0.1
		c0,0,0-0.1,0-0.2c0.1,0,0.1,0,0.1,0s0,0,0,0.1v0.1c0.2-0.1,0.4-0.1,0.4-0.2c0.1,0,0.1,0,0.2,0.1l0.3-0.1c0,0,0.1-0.1,0.3-0.2
		c0,0.1,0.1,0.1,0.1,0.2c0,0,0.1,0,0.2-0.1c0.1,0,0.1,0,0.2,0h0.1c0,0,0.1,0,0.1-0.1c0,0,0.1,0,0.2,0c0.1,0,0.1,0,0.2,0
		c0.2,0,0.3-0.1,0.4-0.1h0.1c0.1,0,0.1,0,0.1-0.1c0.1,0,0.1,0,0.2,0c0,0,0.1,0,0.2-0.1c0.1,0,0.1,0,0.2,0s0.1,0,0.1,0l0,0l0,0
		C18.1,42.9,18.4,42.8,18.4,42.7z"/>
	<path fill="#BF9000" d="M24.2,44.1c0.2,0,0.3-0.1,0.3-0.2c0.1,0.1,0.1,0.1,0.1,0.1c0-0.1,0.1-0.1,0.3-0.1c0.1,0,0.2,0,0.3,0h0.1
		h0.1h0.1c0.1,0,0.1,0,0.1,0c0.1,0,0.1,0,0.3,0c0.1,0,0.2,0,0.3,0h0.1c0.1,0,0.1,0,0.1,0h0.1c0,0,0.1,0,0.2-0.1
		c0.4,0,0.6,0.1,0.6,0.1c0.1,0,0.2,0,0.3,0c0.1,0,0.1,0,0.1,0s0.1,0,0.2,0s0.2,0,0.2,0c0.1,0,0.1,0,0.1,0s0.1,0,0.2,0s0.2,0,0.2,0
		s0.1,0,0.1,0.1c0.1,0,0.1,0,0.2,0H29c0,0,0.1,0,0.2,0s0.1,0,0.2,0l0.1,0.1h0.1h0.1c0.1,0,0.2,0,0.3,0c0.1,0,0.2,0,0.3,0
		c0,0,0.1,0,0.2,0.1c0.1,0,0.2,0,0.2-0.1c0,0,0,0,0.1,0c0,0,0,0,0.1,0s0.3,0,0.5,0.1c0.3,0.1,0.5,0.1,0.7,0c0.1-0.1,0.2-0.1,0.2-0.1
		v0.1c0.1,0.1,0.1,0.1,0.2,0.1c0,0,0.1,0,0.2,0c0.1,0,0.1,0,0.2,0H33c0.1,0.1,0.1,0.1,0.2,0c0.1,0.1,0.1,0.1,0.1,0.1
		c0.1-0.1,0.2,0,0.2,0c0.1-0.1,0.2-0.1,0.4-0.1v0.1c0,0,0.2,0.1,0.5,0.1c0,0.1,0.1,0.1,0.3,0.1c0.1,0,0.2,0,0.3,0.1h0.1
		c0.4,0.3,0.7,0.5,0.9,0.6h0.1c0,0.1,0.1,0.2,0.2,0.2c0.1,0,0.2,0.1,0.2,0.1c0.1,0.1,0.1,0.1,0.2,0.2c0.1,0.1,0.1,0.1,0.2,0.2
		c0,0.1,0,0.1,0.1,0.2c0.1,0.1,0.1,0.1,0.1,0.2c0.1,0.1,0.2,0.1,0.2,0.2c0,0.1,0,0.1,0,0.1s0,0,0.1,0.1c0,0.1,0.1,0.1,0.1,0.1
		c0,0.2,0,0.3,0,0.3s0,0,0,0.1s0,0.1,0.1,0.1c0,0,0,0.1,0,0.2c0,0.1,0,0.1,0.1,0.2c0,0,0,0,0.1,0h0.1v0.1h-0.1c0,0.1,0,0.1,0,0.2
		c0,0.1,0,0.2,0,0.2v0.1c0,0.1,0,0.2,0,0.4s0,0.3,0,0.3c-0.1,0.1-0.1,0.1-0.1,0.2c0,0.1,0,0.2,0,0.2C37.1,50,37.1,50,37.1,50
		c0,0.1-0.1,0.1-0.1,0.2c0,0.1,0,0.1,0,0.1c-0.1,0.1-0.1,0.2-0.1,0.3c0,0-0.1,0.1-0.2,0.2c-0.1,0.1-0.1,0.2-0.2,0.3v0.1
		c0,0,0,0.1-0.1,0.1l-0.1,0.1c-0.2,0.1-0.4,0.3-0.4,0.6c0,0,0,0-0.1,0c0,0,0,0-0.1,0s-0.1,0.1-0.1,0.2c-0.3,0.2-0.5,0.4-0.5,0.5
		c-0.1,0.1-0.2,0.1-0.2,0.2c-0.3,0.2-0.5,0.4-0.7,0.6c-0.1,0-0.2,0.1-0.3,0.2c0,0-0.1,0.1-0.2,0.1c-0.1,0.1-0.1,0.1-0.2,0.1
		c-0.2,0.1-0.2,0.1-0.2,0.2c0,0.1,0,0.1,0.1,0.1l0.1,0.1l0.1,0.1c0.1,0,0.1,0,0.1,0.1c0,0,0,0,0.1,0.1h0.1c0.1,0,0.1,0,0.1,0
		s0,0,0.1,0.1c0.1,0,0.1,0.1,0.1,0.1h0.1v0.1h0.2c0.1,0.1,0.2,0.1,0.2,0.1c0.1,0.1,0.1,0.1,0.3,0.2c0.1,0.1,0.2,0.1,0.3,0.2h0.1
		c0,0,0.1,0,0.1,0.1l0.1,0.1h0.2l0.1,0.1c0.1,0.1,0.2,0.2,0.3,0.2c0.1,0.1,0.2,0.1,0.3,0.1c0.1,0.2,0.3,0.3,0.4,0.2
		c0,0,0.1,0.1,0.1,0.2c0.2,0.1,0.4,0.3,0.6,0.4h0.1c0.2,0.2,0.4,0.3,0.4,0.3c0,0.1,0.1,0.1,0.2,0.1c0.1,0,0.2,0.1,0.2,0.2
		c0.1,0,0.1,0,0.2,0.1c0.1,0.1,0.1,0.1,0.2,0.1c0.1,0.1,0.2,0.2,0.5,0.4c0.2,0.1,0.4,0.3,0.5,0.4H40c0.2,0.1,0.3,0.2,0.3,0.2h0.1
		h0.1c0,0.1,0.1,0.2,0.4,0.3c0.1,0.1,0.2,0.1,0.2,0c0.1,0,0.2,0,0.2,0c0.1,0.1,0.2,0.1,0.3,0.1c0.1-0.1,0.1-0.1,0.1-0.1
		s0.1,0,0.1,0.1c0.2-0.1,0.3,0,0.4,0.1c0.1,0.1,0.1,0.2,0.1,0.2s0,0.1,0.1,0.1h0.1c0,0,0.1,0.1,0.1,0.2c0,0.1,0.1,0.2,0.1,0.2V60
		v0.1v0.1c0,0,0.1,0.1,0.2,0.1c0.1,0.1,0.1,0.1,0.1,0.1s0,0.1,0,0.2c0.1,0.2,0.1,0.4,0,0.4c0,0,0,0.1,0.1,0.2c0,0.1,0,0.2,0,0.4
		s0,0.3,0,0.4h-0.3c-0.1,0-0.1,0.1-0.1,0.1c0,0.1-0.1,0.1-0.1,0.1s0,0-0.1,0.1s-0.1,0-0.1,0.1c0.1,0.1,0.1,0.1,0.1,0.1
		s-0.1,0-0.1,0.1c-0.1,0-0.1,0-0.1,0.1c0,0,0,0,0,0.1c0,0,0,0,0,0.1c-0.1,0.1-0.1,0.1-0.2,0C42,62.8,42,62.8,42,62.8s-0.1,0-0.2,0.1
		C41.7,63,41.6,63,41.6,63c-0.1-0.2-0.2-0.3-0.3-0.3h-0.1h-0.1c0-0.1,0-0.2-0.1-0.2h-0.1l0,0c0,0,0,0,0-0.1s-0.1-0.1-0.2-0.2h-0.1
		h-0.1c-0.1-0.2-0.2-0.3-0.4-0.4H40c-0.1,0-0.1-0.1-0.2-0.2c-0.1-0.1-0.3-0.2-0.4-0.2l-0.1-0.1c-0.1-0.1-0.1-0.1-0.1-0.1
		C39,60.8,39,60.8,39,60.8s0,0-0.1-0.1c0-0.1,0-0.1-0.1-0.1s-0.1,0-0.1-0.1c-0.1,0-0.1-0.1-0.1-0.1c0-0.1-0.1-0.2-0.2-0.1
		c0-0.1,0-0.1,0-0.1C38.1,60.1,38,60,38,59.9c0,0-0.2-0.1-0.6-0.4c0,0,0,0-0.1,0c0,0,0,0-0.1,0c0-0.1-0.1-0.1-0.2-0.3
		c-0.1,0-0.2-0.1-0.4-0.2h-0.1h-0.1c0,0,0,0,0-0.1v-0.1h-0.1h-0.1c-0.1,0-0.1-0.1-0.2-0.2c-0.1-0.1-0.1-0.1-0.1-0.1s0-0.1-0.1-0.1
		s-0.1-0.1-0.1-0.1c-0.1,0-0.2-0.1-0.3-0.2c-0.1-0.1-0.2-0.2-0.3-0.2s-0.1,0-0.1,0c0-0.1-0.1-0.1-0.2-0.2c0-0.1-0.1-0.1-0.3-0.2
		h-0.1c0,0,0,0-0.1-0.1s0,0-0.1,0c0,0,0,0-0.1,0c0,0,0,0-0.1-0.1s-0.1,0-0.1,0c-0.1,0-0.2,0-0.2,0s-0.1,0-0.1-0.1
		c-0.1-0.1-0.1-0.1-0.2-0.1c-0.1,0.1-0.1,0.1-0.1,0c0,0,0,0,0-0.1v-0.1h-0.1h-0.1c0,0,0-0.1-0.1-0.1c0,0,0-0.1-0.1-0.1H33L32.9,57
		c-0.1,0-0.1,0-0.2-0.1c-0.1-0.1-0.1-0.1-0.2,0c0-0.1-0.1-0.1-0.2-0.1c-0.1,0-0.2-0.1-0.2-0.1c-0.1,0-0.2,0-0.3-0.1
		c-0.1,0-0.2-0.1-0.3-0.2c-0.1,0-0.1,0-0.3,0.1l0,0v-0.1c0,0-0.1,0-0.2,0c0,0,0,0,0-0.1c0,0,0,0,0-0.1C30.7,56,30.6,56,30.4,56
		c-0.1-0.1-0.2-0.2-0.4-0.2c0,0-0.1-0.1-0.2-0.1c0,0-0.1,0-0.1-0.1c-0.1,0-0.1,0.1-0.1,0.2c0,0.2,0,0.3,0,0.4c0,0,0,0.1,0.1,0.1
		c0,0,0,0,0,0.1s0,0,0,0.1s0,0.1,0,0.1c0,0.3,0,0.5,0.1,0.6v0.3v0.1c0,0,0,0.1,0.1,0.2c0,0.1,0,0.1,0,0.2c0,0.1,0,0.1,0,0.1l0.1,0.1
		c0,0.1,0.1,0.1,0.1,0.1c0,0.1,0,0.1,0,0.3c0,0.1,0,0.2,0,0.3c0,0,0,0,0.1,0.1c0,0,0.1,0,0.1,0.1c0,0.2,0,0.3,0,0.4
		c0,0.1,0,0.2,0.1,0.3c0,0,0,0.1,0,0.3s0,0.2,0,0.3h0.1l0.1,0.1c0,0.1,0,0.1-0.1,0.2v0.1c0,0,0,0.1,0,0.3c0,0.1,0,0.3,0,0.5
		c0,0.3,0,0.4,0,0.4v0.1c0,0,0,0-0.1,0c0,0,0,0-0.1,0.1c0,0.1-0.1,0.1-0.1,0.2c-0.1,0.1-0.1,0.1-0.1,0.2c-0.1,0-0.1,0-0.2,0
		c-0.2,0.1-0.3,0.2-0.3,0.3c0,0,0,0-0.1,0s0,0-0.1,0c0,0,0,0,0,0.1c0,0,0,0-0.1,0c0,0,0,0-0.1-0.1c-0.1,0-0.1,0-0.2,0
		c0,0.1-0.1,0.1-0.1,0.1c0-0.1,0-0.2-0.1-0.2c-0.2,0-0.3-0.1-0.4-0.3c-0.1,0-0.1,0-0.1,0h-0.1c0.1-0.1,0-0.2-0.2-0.3
		s-0.2-0.1-0.2-0.2c0,0,0,0-0.1,0c0,0,0,0-0.1,0c-0.1-0.1,0-0.2,0.1-0.2c0-0.1,0-0.1,0-0.2c0-0.1,0-0.1,0-0.1v-0.1l-0.1-0.1h-0.1
		c0,0,0-0.1,0.1-0.1c0.1-0.2,0.1-0.4,0-0.4v-0.4c0.1-0.1,0.1-0.2,0.1-0.3s0-0.2-0.1-0.3c0-0.1,0-0.2,0-0.3s0-0.2,0-0.3
		s-0.1-0.1-0.1-0.1c0-0.1,0-0.2,0-0.3c0-0.2,0-0.3-0.1-0.3c0-0.1,0-0.1,0-0.2c0-0.1,0-0.2,0-0.2s0-0.1-0.1-0.1
		c0-0.1-0.1-0.1-0.1-0.1c0-0.1,0-0.1,0-0.3c0-0.1,0-0.2,0-0.3s-0.1-0.1-0.1-0.2c0-0.1-0.1-0.1-0.1-0.2c0-0.1,0-0.2,0-0.3
		c0-0.2,0-0.3,0-0.3c0-0.1,0-0.2-0.1-0.2c0,0,0-0.2,0-0.4v-0.1v-0.1v-0.1c0-0.1,0-0.1,0-0.1s0-0.1-0.1-0.1c0,0,0,0-0.1,0
		c0-0.1,0-0.2,0-0.3s0-0.2,0-0.3c0,0,0-0.1-0.1-0.2c0-0.1,0-0.1,0-0.2c0-0.1,0-0.2,0-0.2s0-0.1,0-0.2c0-0.1,0-0.1,0-0.1v-0.1v-0.1
		c0-0.1,0-0.1,0-0.1v-0.1v-0.1c0-0.1-0.1-0.1-0.2-0.1c0-0.1,0-0.1,0-0.1s0,0,0.1,0c0,0,0,0,0.1,0v-0.2c0-0.1,0-0.2,0-0.4
		s0-0.3,0-0.4c-0.1-0.1-0.1-0.1-0.1-0.1v-0.1v-0.1v-0.1v-0.1c0-0.2-0.1-0.2-0.1-0.2v-0.1c0,0,0-0.1,0-0.4c0,0,0-0.1-0.1-0.2
		c0-0.1,0-0.2,0-0.2v-0.1v-0.1v-0.1V50v-0.1c-0.1-0.1-0.1-0.2,0-0.3c-0.1-0.1-0.1-0.2-0.1-0.3s0-0.2-0.1-0.3l0,0H26v-0.1l0,0
		c0-0.1,0-0.1,0-0.3s0-0.2,0-0.2v-0.1c0-0.2,0-0.3,0-0.3h-0.1l0,0c0,0,0,0,0-0.1c0,0,0,0,0-0.1s0-0.1,0-0.3c0-0.1,0-0.2,0-0.3
		c0,0,0,0,0-0.1c0,0,0,0,0-0.1c0,0,0-0.1-0.1-0.2c0-0.1,0-0.1,0-0.2c-0.1,0-0.2,0-0.4-0.1c-0.1,0-0.2,0-0.3,0l-0.2-0.2
		c0-0.1-0.1-0.1-0.3-0.2c0,0-0.1-0.1-0.1-0.2C24,46.2,24,46.1,24,46.1c-0.1-0.1-0.2-0.2-0.3-0.2c-0.1-0.1-0.1-0.2-0.1-0.3
		s0-0.2,0-0.3s0-0.2,0-0.4c0-0.1,0-0.1,0.1-0.3c0.1-0.1,0.1-0.2,0.1-0.3c0.1-0.1,0.1-0.1,0.1-0.1s0,0,0-0.1s0,0,0,0
		S24,44.1,24.2,44.1z M24.5,44c0.1,0.1,0.1,0.1,0.1,0.1c0-0.1,0.1-0.1,0.3-0.1c0.1,0,0.2,0,0.3,0h0.1h0.1h0.1c0.1,0,0.1,0,0.1,0
		c0.1,0,0.1,0,0.3,0c0.1,0,0.2,0,0.3,0h0.1c0.1,0,0.1,0,0.1,0h0.1c0,0,0.1,0,0.2-0.1c0.4,0,0.6,0.1,0.6,0.1c0.1,0,0.1,0,0.3,0
		c0.1,0,0.1,0,0.1,0s0.1,0,0.2,0s0.2,0,0.2,0c0.1,0,0.1,0,0.1,0s0.1,0,0.2,0s0.2,0,0.2,0h0.1c0.1,0,0.1,0,0.2,0H29c0,0,0.1,0,0.2,0
		s0.1,0,0.2,0l0.1,0.1h0.1h0.1c0.1,0,0.2,0,0.3,0c0.1,0,0.2,0,0.3,0c0,0,0.1,0,0.2,0.1c0.1,0,0.2,0,0.2-0.1c0,0,0,0,0.1,0
		c0,0,0,0,0.1,0s0.3,0,0.5,0.1c0.3,0.1,0.5,0.1,0.7,0c0.1-0.1,0.2-0.1,0.2-0.1v0.1c0.1,0.1,0.1,0.1,0.2,0.1c0,0,0.1,0,0.2,0
		c0.1,0,0.1,0,0.2,0H33c0.1,0.1,0.1,0.1,0.2,0c0.1,0.1,0.1,0.1,0.1,0.1c0.1-0.1,0.2,0,0.2,0c0.1-0.1,0.2-0.1,0.4-0.1v0.1
		c0,0,0.2,0.1,0.5,0.1c0,0.1,0.1,0.1,0.3,0.1c0.1,0,0.2,0,0.3,0.1h0.1c0.4,0.3,0.7,0.5,0.9,0.6h0.1c0,0.1,0.1,0.2,0.2,0.2
		c0.1,0,0.2,0.1,0.2,0.1c0.1,0.1,0.1,0.1,0.2,0.2c0.1,0.1,0.1,0.1,0.2,0.2c0,0.1,0,0.1,0.1,0.2c0.1,0.1,0.1,0.1,0.1,0.2
		c0.1,0.1,0.2,0.1,0.2,0.2c0,0.1,0,0.1,0,0.1s0,0,0.1,0.1c0,0.1,0.1,0.1,0.1,0.1c0,0.2,0,0.3,0,0.3s0,0,0,0.1s0,0.1,0.1,0.1
		c0,0,0,0.1,0,0.2c0,0.1,0,0.1,0.1,0.2c0,0,0,0,0.1,0h0.1v0.1h-0.1c0,0.1,0,0.1,0,0.2c0,0.1,0,0.2,0,0.2v0.1c0,0.1,0,0.2,0,0.4
		s0,0.3,0,0.3c-0.1,0.1-0.1,0.1-0.1,0.2c0,0.1,0,0.2,0,0.2C37.1,50,37.1,50,37.1,50c0,0.1-0.1,0.1-0.1,0.2c0,0.1,0,0.1,0,0.1
		c-0.1,0.1-0.1,0.2-0.1,0.3c0,0-0.1,0.1-0.2,0.2c-0.1,0.1-0.1,0.2-0.2,0.3v0.1c0,0,0,0.1-0.1,0.1l-0.1,0.1c-0.2,0.1-0.4,0.3-0.4,0.6
		c0,0,0,0-0.1,0c0,0,0,0-0.1,0s-0.1,0.1-0.1,0.2c-0.3,0.2-0.5,0.4-0.5,0.5c-0.1,0.1-0.2,0.1-0.2,0.2c-0.3,0.2-0.5,0.4-0.7,0.6
		c-0.1,0-0.2,0.1-0.3,0.2c0,0-0.1,0.1-0.2,0.1c-0.1,0.1-0.1,0.1-0.2,0.1c-0.2,0.1-0.2,0.1-0.2,0.2c0,0.1,0,0.1,0.1,0.1l0.1,0.1
		l0.1,0.1c0.1,0,0.1,0,0.1,0.1c0,0,0,0,0.1,0.1h0.1c0.1,0,0.1,0,0.1,0s0,0,0.1,0.1c0.1,0,0.1,0.1,0.1,0.1h0.1v0.1h0.2
		c0.1,0.1,0.2,0.1,0.2,0.1c0.1,0.1,0.1,0.1,0.3,0.2c0.1,0.1,0.2,0.1,0.3,0.2h0.1c0,0,0.1,0,0.1,0.1l0.1,0.1h0.2l0.1,0.1
		c0.1,0.1,0.2,0.2,0.3,0.2c0.1,0.1,0.2,0.1,0.3,0.1c0.1,0.2,0.3,0.3,0.4,0.2c0,0,0.1,0.1,0.1,0.2c0.2,0.1,0.4,0.3,0.6,0.4h0.1
		c0.2,0.2,0.4,0.3,0.4,0.3c0,0.1,0.1,0.1,0.2,0.1c0.1,0,0.2,0.1,0.2,0.2c0.1,0,0.1,0,0.2,0.1c0.1,0.1,0.1,0.1,0.2,0.1
		c0.1,0.1,0.2,0.2,0.5,0.4c0.2,0.1,0.4,0.3,0.5,0.4H40c0,0,0.1,0,0.1,0.1c0.1,0.1,0.1,0.1,0.1,0.1h0.1h0.1c0,0.1,0.1,0.2,0.4,0.3
		c0.1,0.1,0.2,0.1,0.2,0c0.1,0,0.2,0,0.2,0c0.1,0.1,0.2,0.1,0.3,0.1c0.1-0.1,0.1-0.1,0.1-0.1s0.1,0,0.1,0.1c0.2-0.1,0.3,0,0.4,0.1
		c0.1,0.1,0.1,0.2,0.1,0.2s0,0.1,0.1,0.1h0.1c0,0,0.1,0.1,0.1,0.2c0,0.1,0.1,0.2,0.1,0.2V60v0.1v0.1c0,0,0.1,0.1,0.2,0.1
		c0.1,0.1,0.1,0.1,0.1,0.1s0,0.1,0,0.2c0.1,0.2,0.1,0.4,0,0.4c0,0,0,0.1,0.1,0.2c0,0.1,0,0.2,0,0.4s0,0.3,0,0.4h-0.3
		c-0.1,0-0.1,0.1-0.1,0.1c0,0.1-0.1,0.1-0.1,0.1s0,0-0.1,0.1s-0.1,0-0.1,0.1c0.1,0.1,0.1,0.1,0.1,0.1s-0.1,0-0.1,0.1
		c-0.1,0-0.1,0-0.1,0.1c0,0,0,0,0,0.1c0,0,0,0,0,0.1c-0.1,0.1-0.1,0.1-0.2,0c-0.1-0.1-0.1-0.1-0.1-0.1s-0.1,0-0.2,0.1
		C41.6,63,41.5,63,41.5,63c-0.1-0.2-0.2-0.3-0.3-0.3h-0.1H41c0-0.1,0-0.2-0.1-0.2h-0.1l0,0c0,0,0,0,0-0.1s-0.1-0.1-0.2-0.2h-0.1
		h-0.1c-0.1-0.2-0.2-0.3-0.4-0.4h-0.1c-0.1,0-0.1-0.1-0.2-0.2c-0.1-0.1-0.3-0.2-0.4-0.2l-0.1-0.1c-0.1-0.1-0.1-0.1-0.1-0.1
		C39,60.8,39,60.8,39,60.8s0,0-0.1-0.1c0-0.1,0-0.1-0.1-0.1s-0.1,0-0.1-0.1c-0.1,0-0.1-0.1-0.1-0.1c0-0.1-0.1-0.2-0.2-0.1
		c0-0.1,0-0.1,0-0.1C38.1,60.1,38,60,38,59.9c0,0-0.2-0.1-0.6-0.4c0,0,0,0-0.1,0c0,0,0,0-0.1,0c0-0.1-0.1-0.1-0.2-0.3
		c-0.1,0-0.2-0.1-0.4-0.2h-0.1h-0.1c0,0,0,0,0-0.1v-0.1h-0.1h-0.1c-0.1,0-0.1-0.1-0.2-0.2c-0.1-0.1-0.1-0.1-0.1-0.1s0-0.1-0.1-0.1
		s-0.1-0.1-0.1-0.1c-0.1,0-0.2-0.1-0.3-0.2c-0.1-0.1-0.2-0.2-0.3-0.2s-0.1,0-0.1,0c0-0.1-0.1-0.1-0.2-0.2c0-0.1-0.1-0.1-0.3-0.2
		h-0.1c0,0,0,0-0.1-0.1s0,0-0.1,0c0,0,0,0-0.1,0c0,0,0,0-0.1-0.1s-0.1,0-0.1,0c-0.1,0-0.2,0-0.2,0s-0.1,0-0.1-0.1
		c-0.1-0.1-0.1-0.1-0.2-0.1c-0.1,0.1-0.1,0.1-0.1,0c0,0,0,0,0-0.1v-0.1h-0.1h-0.1c0,0,0-0.1-0.1-0.1c0,0,0-0.1-0.1-0.1H33L32.9,57
		c-0.1,0-0.1,0-0.2-0.1c-0.1-0.1-0.1-0.1-0.2,0c0-0.1-0.1-0.1-0.2-0.1c-0.1,0-0.2-0.1-0.2-0.1c-0.1,0-0.2,0-0.3-0.1
		c-0.1,0-0.2-0.1-0.3-0.2c-0.1,0-0.1,0-0.3,0.1l0,0v-0.1c0,0-0.1,0-0.2,0c0,0,0,0,0-0.1c0,0,0,0,0-0.1C30.7,56,30.6,56,30.4,56
		c-0.1-0.1-0.2-0.2-0.4-0.2c0,0-0.1-0.1-0.2-0.1c0,0-0.1,0-0.1-0.1c-0.1,0-0.1,0.1-0.1,0.2c0,0.2,0,0.3,0,0.4c0,0,0,0.1,0.1,0.1
		c0,0,0,0,0,0.1s0,0,0,0.1s0,0.1,0,0.1c0,0.3,0,0.5,0.1,0.6v0.3v0.1c0,0,0,0.1,0.1,0.2c0,0.1,0,0.1,0,0.2c0,0.1,0,0.1,0,0.1l0.1,0.1
		c0,0.1,0.1,0.1,0.1,0.1c0,0.1,0,0.1,0,0.3c0,0.1,0,0.2,0,0.3c0,0,0,0,0.1,0.1c0,0,0.1,0,0.1,0.1c0,0.2,0,0.3,0,0.4
		c0,0.1,0,0.2,0.1,0.3c0,0,0,0.1,0,0.3s0,0.2,0,0.3h0.1l0.1,0.1c0,0.1,0,0.1-0.1,0.2v0.1c0,0,0,0.1,0,0.3c0,0.1,0,0.3,0,0.5
		c0,0.3,0,0.4,0,0.4v0.1c0,0,0,0-0.1,0c0,0,0,0-0.1,0.1c0,0.1-0.1,0.1-0.1,0.2c-0.1,0.1-0.1,0.1-0.1,0.2c-0.1,0-0.1,0-0.2,0
		c-0.2,0.1-0.3,0.2-0.3,0.3c0,0,0,0-0.1,0s0,0-0.1,0c0,0,0,0,0,0.1c0,0,0,0-0.1,0c0,0,0,0-0.1-0.1c-0.1,0-0.1,0-0.2,0
		c0,0.1-0.1,0.1-0.1,0.1c0-0.1,0-0.2-0.1-0.2c-0.2,0-0.3-0.1-0.4-0.3c-0.1,0-0.1,0-0.1,0h-0.1c0.1-0.1,0-0.2-0.2-0.3
		s-0.2-0.1-0.2-0.2c0,0,0,0-0.1,0c0,0,0,0-0.1,0c-0.1-0.1,0-0.2,0.1-0.2c0-0.1,0-0.1,0-0.2c0-0.1,0-0.1,0-0.1v-0.1l-0.1-0.1h-0.1
		c0,0,0-0.1,0.1-0.1c0.1-0.2,0.1-0.4,0-0.4v-0.4c0.1-0.1,0.1-0.2,0.1-0.3s0-0.2-0.1-0.3c0-0.1,0-0.2,0-0.3s0-0.2,0-0.3
		s-0.1-0.1-0.1-0.1c0-0.1,0-0.2,0-0.3c0-0.2,0-0.3-0.1-0.3c0-0.1,0-0.1,0-0.2c0-0.1,0-0.2,0-0.2s0-0.1-0.1-0.1
		c0-0.1-0.1-0.1-0.1-0.1c0-0.1,0-0.1,0-0.3c0-0.1,0-0.2,0-0.3s-0.1-0.1-0.1-0.2c0-0.1-0.1-0.1-0.1-0.2c0-0.1,0-0.2,0-0.3
		c0-0.2,0-0.3,0-0.3c0-0.1,0-0.2-0.1-0.2c0,0,0-0.2,0-0.4v-0.1v-0.1v-0.1c0-0.1,0-0.1,0-0.1s0-0.1-0.1-0.1c0,0,0,0-0.1,0
		c0-0.1,0-0.2,0-0.3s0-0.2,0-0.3c0,0,0-0.1-0.1-0.2c0-0.1,0-0.1,0-0.2c0-0.1,0-0.2,0-0.2s0-0.1,0-0.2c0-0.1,0-0.1,0-0.1v-0.1v-0.1
		c0-0.1,0-0.1,0-0.1v-0.1v-0.1c0-0.1-0.1-0.1-0.2-0.1c0-0.1,0-0.1,0-0.1s0,0,0.1,0c0,0,0,0,0.1,0v-0.2c0-0.1,0-0.2,0-0.4
		s0-0.3,0-0.4c-0.1-0.1-0.1-0.1-0.1-0.1v-0.1v-0.1v-0.1v-0.1c0-0.2-0.1-0.2-0.1-0.2v-0.1c0,0,0-0.1,0-0.4c0,0,0-0.1-0.1-0.2
		c0-0.1,0-0.2,0-0.2v-0.1v-0.1v-0.1V50v-0.1c-0.1-0.1-0.1-0.2,0-0.3c-0.1-0.1-0.1-0.2-0.1-0.3s0-0.2-0.1-0.3l0,0H26v-0.1l0,0
		c0-0.1,0-0.1,0-0.3s0-0.2,0-0.2v-0.1c0-0.2,0-0.3,0-0.3h-0.1l0,0c0,0,0,0,0-0.1c0,0,0,0,0-0.1s0-0.1,0-0.3c0-0.1,0-0.2,0-0.3
		c0,0,0,0,0-0.1c0,0,0,0,0-0.1c0,0,0-0.1-0.1-0.2c0-0.1,0-0.1,0-0.2c-0.1,0-0.2,0-0.4-0.1c-0.1,0-0.2,0-0.3,0l-0.2-0.2
		c0-0.1-0.1-0.1-0.3-0.2c0,0-0.1-0.1-0.1-0.2C24,46.2,24,46.1,24,46.1c-0.1-0.1-0.2-0.2-0.3-0.2c-0.1-0.1-0.1-0.2-0.1-0.3
		s0-0.2,0-0.3s0-0.2,0-0.4c0-0.1,0-0.1,0.1-0.3c0.1-0.1,0.1-0.2,0.1-0.3c0.1-0.1,0.1-0.1,0.1-0.1s0,0,0-0.1s0,0,0,0s0.1,0,0.2,0
		C24.4,44.1,24.5,44.1,24.5,44z M29.2,47c-0.1,0-0.1,0-0.2-0.1c-0.1,0-0.2,0-0.3,0c-0.1,0-0.2,0-0.3,0c0,0,0,0.1,0,0.4v0.1v0.1
		c0,0.1,0,0.1,0.1,0.2c0.1,0.1,0.1,0.1,0.1,0.2V48v0.1c0,0.1,0,0.1,0,0.3c0,0.1,0,0.2,0,0.3c0.1,0.1,0.1,0.2,0.1,0.3s0,0.1,0,0.2
		c0,0,0,0.1,0.1,0.1c0,0.1,0.1,0.1,0.1,0.2c0,0,0,0.1,0,0.2c0,0.1,0,0.2,0,0.2c0,0.2,0,0.3,0,0.3v0.1v0.1c0,0,0,0.1,0,0.2
		c0,0.1,0,0.1,0,0.2c0,0.1,0,0.1,0,0.1s0,0.1,0.1,0.1v0.1c0,0.1,0,0.1,0,0.3c0,0.1,0,0.2,0,0.3v0.1c0,0,0,0,0.1,0c0,0.1,0,0.2,0,0.3
		s0,0.2,0.1,0.3c-0.1,0.1-0.1,0.2,0,0.4c0,0.1,0.1,0.1,0.1,0.2c0,0,0.1,0,0.3,0c0.1,0,0.2,0,0.3,0v-0.1H30h0.1c0.1,0,0.1,0,0.1,0
		h0.1c0.2,0,0.3-0.1,0.4-0.1h0.1c0.1-0.1,0.2-0.1,0.4-0.1c0.1,0,0.1,0,0.2,0s0.2-0.1,0.2-0.1c0.1-0.1,0.1-0.1,0.1-0.1s0,0,0.1,0
		s0.2-0.1,0.2-0.2c0.1-0.1,0.1-0.1,0.2-0.2c0.1,0,0.3-0.1,0.4-0.3s0.2-0.2,0.4-0.3c0.2-0.2,0.4-0.4,0.5-0.4c0-0.1,0.1-0.2,0.2-0.3
		c0.1-0.1,0.1-0.2,0.2-0.2c0.1-0.1,0.2-0.2,0.3-0.4s0.2-0.4,0.2-0.4c0-0.1,0-0.2,0.1-0.3s0.1-0.2,0.1-0.3c0.2-0.2,0.2-0.4,0.1-0.6
		c0,0,0-0.1,0-0.3c0-0.1-0.1-0.1-0.2-0.2c-0.1-0.1-0.2-0.1-0.2-0.2c0,0-0.1,0-0.2-0.1c-0.1,0-0.1,0-0.2,0c0-0.1-0.1-0.1-0.3-0.1
		c-0.1,0-0.1,0-0.2,0s-0.1,0-0.1-0.1l-0.1-0.1h-0.1H33c0,0-0.1,0-0.1-0.1s-0.1-0.1-0.2,0c-0.1,0-0.2,0-0.2,0c-0.2-0.1-0.3-0.1-0.3,0
		c-0.1-0.1-0.2-0.1-0.5-0.1c-0.1,0-0.2,0-0.2,0c-0.2,0-0.3,0-0.3,0h-0.1L31,47.2c-0.2,0-0.3,0-0.4,0h-0.1c0,0-0.2,0-0.5,0
		c0,0-0.1,0-0.1-0.1L29.8,47C29.5,46.9,29.4,47,29.2,47z M28.3,47c0,0,0,0.1,0,0.4v0.1v0.1c0,0.1,0,0.1,0.1,0.2
		c0.1,0.1,0.1,0.1,0.1,0.2v0.1v0.1c0,0.1,0,0.1,0,0.3c0,0.1,0,0.2,0,0.3c0.1,0.1,0.1,0.2,0.1,0.3s0,0.1,0,0.2c0,0,0,0.1,0.1,0.1
		c0,0.1,0.1,0.1,0.1,0.2c0,0,0,0.1,0,0.2c0,0.1,0,0.2,0,0.2c0,0.2,0,0.3,0,0.3v0.1v0.1c0,0,0,0.1,0,0.2c0,0.1,0,0.1,0,0.2
		c0,0.1,0,0.1,0,0.1s0,0.1,0.1,0.1v0.1c0,0.1,0,0.1,0,0.3c0,0.1,0,0.2,0,0.3v0.1c0,0,0,0,0.1,0c0,0.1,0,0.2,0,0.3s0,0.2,0.1,0.3
		c-0.1,0.1-0.1,0.2,0,0.4c0,0.1,0.1,0.1,0.1,0.2c0,0,0.1,0,0.3,0c0.1,0,0.2,0,0.3,0V53h0.1H30c0.1,0,0.1,0,0.1,0h0.1
		c0.2,0,0.3-0.1,0.4-0.1h0.1c0.1-0.1,0.2-0.1,0.4-0.1c0.1,0,0.1,0,0.2,0s0.2-0.1,0.2-0.1c0.1-0.1,0.1-0.1,0.1-0.1s0,0,0.1,0
		s0.2-0.1,0.2-0.2c0.1-0.1,0.1-0.1,0.2-0.2c0.1,0,0.3-0.1,0.4-0.3s0.2-0.2,0.4-0.3c0.2-0.2,0.4-0.4,0.5-0.4c0-0.1,0.1-0.2,0.2-0.3
		c0.1-0.1,0.1-0.2,0.2-0.2c0.1-0.1,0.2-0.2,0.3-0.4s0.2-0.4,0.2-0.4c0-0.1,0-0.2,0.1-0.3s0.1-0.2,0.1-0.3c0.2-0.2,0.2-0.4,0.1-0.6
		c0,0,0-0.1,0-0.3c0-0.1-0.1-0.1-0.2-0.2c-0.1-0.1-0.2-0.1-0.2-0.2c0,0-0.1,0-0.2-0.1c-0.1,0-0.1,0-0.2,0c0-0.1-0.1-0.1-0.3-0.1
		c-0.1,0-0.1,0-0.2,0s-0.1,0-0.1-0.1l-0.1-0.1H33h-0.1c0,0-0.1,0-0.1-0.1s-0.1-0.1-0.2,0c-0.1,0-0.2,0-0.2,0c-0.2-0.1-0.3-0.1-0.3,0
		c-0.1-0.1-0.2-0.1-0.5-0.1c-0.1,0-0.2,0-0.2,0c-0.2,0-0.3,0-0.3,0H31l-0.1-0.1c-0.2,0-0.3,0-0.4,0h-0.1c0,0-0.2,0-0.5,0
		c0,0-0.1,0-0.1-0.1l-0.1-0.1c-0.1,0-0.3,0-0.4,0s-0.1,0-0.2-0.1c-0.1,0-0.2,0-0.3,0C28.5,47,28.4,47,28.3,47z M42.7,61.9
		C42.7,61.9,42.6,61.9,42.7,61.9C42.6,61.9,42.6,61.8,42.7,61.9C42.7,61.8,42.7,61.8,42.7,61.9L42.7,61.9z M42.6,61.8
		C42.7,61.8,42.7,61.8,42.6,61.8C42.7,61.9,42.7,61.9,42.6,61.8C42.7,61.9,42.6,61.9,42.6,61.8C42.6,61.9,42.6,61.8,42.6,61.8z"/>
	<path fill="#BF9000" d="M54.6,38.4c0,0.1,0.1,0.2,0.2,0.2l0.1-0.1l0,0c0.1,0,0.1,0,0.1,0v0.1l0.1,0.1c0.1,0.1,0.1,0.1,0.1,0.2
		c0.1,0.1,0.1,0.2,0.2,0.3c0.1,0.1,0.2,0.1,0.3,0.1c0,0.1,0,0.1-0.1,0.2h-0.1c0,0.1,0,0.1,0.1,0.2c0,0.1,0,0.1,0.1,0.2
		c0,0.1,0.1,0.1,0.1,0.2s0,0.1,0,0.1c0,0.1,0,0.1,0,0.1v0.1l0.1,0.1v0.1v0.1c0,0,0,0.1,0.1,0.1c0,0,0,0.1,0.1,0.1
		c0,0.2,0.1,0.3,0.1,0.3c0.1,0.3,0.1,0.5,0.2,0.5c0,0.3,0,0.4,0.1,0.5c0,0.1,0,0.2,0,0.3c0.1,0.1,0.1,0.2,0,0.3v0.1c0,0,0,0.1,0,0.2
		c0,0.1,0,0.1,0,0.2h0.1h0.1c0,0.2,0,0.4,0,0.4c0,0.1,0,0.1,0,0.1l0,0l0,0c0,0,0,0,0,0.1V44v0.1v0.1c0,0.1,0,0.2,0.1,0.5
		c0.1,0.2,0.1,0.4,0,0.6c0.1,0.1,0.2,0.3,0.2,0.5c0,0.1,0,0.1,0,0.1s0,0,0,0.1c0,0,0,0.1,0.1,0.1c0,0,0,0.1,0,0.2c0,0.1,0,0.1,0,0.2
		s0,0.1,0,0.1l0.1,0.1c0,0,0,0.1,0,0.2c0,0.1,0,0.2,0,0.2c0,0.1,0,0.1,0.1,0.2c0.1,0.1,0.1,0.1,0,0.2l0.2,0.1c0,0.1,0,0.1-0.1,0.2
		c0,0.1,0,0.1,0,0.2c0,0.1,0,0.1,0,0.1s0,0,0,0.1c0,0,0,0,0,0.1l0,0c0.1,0.2,0.1,0.3,0,0.3c0.1,0.3,0.1,0.5,0.1,0.6h0.1
		c0,0,0,0.2,0,0.5v0.1c0,0,0,0.1,0.1,0.2c0,0,0,0.1,0,0.2c0,0.1,0,0.2,0,0.2s0,0.1,0.1,0.2c0,0.1,0.1,0.1,0.1,0.2c0,0.1,0,0.2,0,0.2
		v0.1v0.1c0,0.1,0.1,0.1,0.1,0.1c0.1,0.2,0.1,0.3,0.1,0.3c-0.1,0.1-0.1,0.2,0,0.2l0,0v0.1V52l0.1,0.1c0,0.1,0,0.1,0,0.2
		c0,0.1,0,0.1,0,0.3c0,0.1,0,0.2,0,0.3c0,0,0,0.1,0.1,0.1l0.1,0.1c0.1,0.2,0.1,0.4,0.1,0.4s0.1,0.1,0.2,0.1c0.1,0,0.2,0.1,0.2,0.1
		v0.1l0.1,0.1c0.1,0,0.1,0,0.2,0.1c0,0.1,0,0.2,0.1,0.3s0.1,0.2,0.1,0.3c0.1,0.1,0.1,0.1,0.1,0.1c-0.1,0.1-0.1,0.2-0.2,0.2
		c0,0,0,0.1-0.1,0.2s0,0.2-0.1,0.3c-0.1,0-0.1,0.1-0.1,0.1c0,0.1,0,0.1,0,0.2c0,0.1,0,0.1,0,0.1s0,0,0,0.1V56c0,0,0,0.1,0.1,0.1
		l0.1,0.1c0,0.1,0,0.1,0,0.2c0,0.1,0,0.2,0.1,0.2c0,0.4,0.1,0.7,0.3,0.8c-0.1,0.3,0,0.5,0.1,0.6c0,0.1,0,0.2,0.1,0.2h0.1v0.1
		c0,0.1,0,0.1,0,0.1c0,0.1,0,0.1,0,0.1l0.1,0.1c0,0.1,0,0.2,0.1,0.3s0.1,0.2,0.1,0.2s0.1,0.1,0.1,0.3c0,0.1,0.1,0.2,0.2,0.3
		c0,0.2,0.1,0.2,0.2,0.2c0,0,0,0.1,0.1,0.1c0,0.1,0.1,0.1,0.1,0.2c0.1,0.1,0.2,0.2,0.2,0.3l0.1,0.1l0.1,0.1v0.1c0,0.1,0,0.1,0,0.1
		c0,0.1,0,0.2,0,0.3s0,0.2,0,0.3c0.1,0.1,0.1,0.2,0,0.4c-0.1,0-0.1,0.1-0.2,0.2c-0.1,0-0.2,0.1-0.3,0.2c0.1-0.3,0-0.3-0.1-0.3v0.1
		v0.1h-0.4c0-0.1-0.1-0.2-0.2-0.3c-0.1-0.1-0.2-0.1-0.2-0.2c-0.2,0-0.3,0-0.4-0.1v0.1v0.1c-0.1,0-0.1,0-0.1-0.1s0-0.1,0-0.1
		c0-0.1-0.1-0.1-0.2-0.1c-0.2-0.2-0.4-0.4-0.6-0.4c0-0.2-0.1-0.4-0.3-0.4c0-0.1,0-0.1,0-0.2l0,0c0-0.1-0.1-0.1-0.1-0.3
		c-0.1-0.1-0.1-0.2-0.1-0.2C58,60,58,60,58,60c0.1-0.2,0-0.3-0.1-0.4c0-0.1,0-0.2-0.1-0.3h-0.1l0,0v-0.1c0-0.1,0-0.1,0-0.1
		s0-0.1-0.1-0.1c0-0.1,0-0.1,0-0.2h-0.2l0.1-0.2c0-0.1,0-0.2-0.1-0.2c0-0.2-0.1-0.4-0.2-0.4v-0.1c0-0.1,0-0.1,0-0.1v-0.1v-0.1
		c0,0,0-0.1-0.1-0.2c0-0.1-0.1-0.2-0.1-0.2c-0.1-0.3-0.1-0.4-0.2-0.4v-0.1c0-0.1,0-0.1,0-0.1s0-0.1-0.1-0.1l-0.1-0.1v-0.1
		c0-0.1,0-0.1,0-0.1s0,0,0-0.1c0,0,0,0,0-0.1c-0.1-0.1-0.1-0.2-0.1-0.2s-0.1,0-0.2,0c-0.1,0-0.1,0-0.2,0c-0.1,0-0.2,0.1-0.2,0.1l0,0
		l0,0h-0.1h-0.1c-0.1,0-0.1,0-0.1,0.1c0,0-0.1,0-0.1-0.1c-0.1,0-0.1,0-0.2,0.1c-0.1,0-0.1,0.1-0.1,0.1C55.1,56,55.1,56,55,56
		c-0.1,0-0.1,0.1-0.1,0.2c-0.2,0-0.3,0-0.3,0c-0.1-0.1-0.1-0.1-0.2-0.1c0,0-0.1,0-0.1,0.1c0,0-0.1,0-0.2-0.1c-0.1,0-0.2,0-0.3,0.2
		c-0.1,0-0.2,0-0.2,0c-0.1-0.1-0.2-0.1-0.4-0.1s-0.3,0.1-0.3,0.1c-0.5,0-0.7,0-0.8,0s-0.2,0-0.4,0s-0.3,0-0.4,0c0,0.1,0,0.1,0,0.2
		c-0.1,0-0.1,0-0.3-0.2c0,0-0.1,0-0.1,0.1c0,0-0.1,0-0.3,0c-0.1,0-0.2,0-0.3,0c0,0-0.1,0-0.1-0.1s-0.1,0-0.1,0c-0.1,0-0.1,0-0.2,0.1
		c-0.1-0.1-0.2-0.1-0.2-0.1s-0.1,0-0.1,0.1s-0.1,0.1-0.1,0.1c-0.1-0.1-0.1-0.2-0.1-0.2s-0.1,0-0.2,0.1c-0.1,0.1-0.1,0.1-0.1,0.1
		s-0.1,0.1-0.2,0.2c0,0.1,0,0.2-0.1,0.3v0.1l-0.1,0.1l-0.1,0.1c0,0.1,0,0.1-0.1,0.2c0,0.1-0.1,0.2-0.1,0.3l0,0l0,0V58
		c0,0,0,0.1-0.1,0.2c0,0.1-0.1,0.2-0.2,0.4c0.1,0.1,0,0.1,0,0.2C48,58.9,48,58.9,48,58.9s0,0,0,0.1v0.1c0,0,0,0-0.1,0.1
		c-0.1,0-0.1,0-0.1,0.1c0,0.2-0.1,0.4-0.2,0.4c0,0.1,0,0.2,0,0.3h-0.2c-0.1,0.3-0.1,0.4-0.2,0.4c0,0.1,0,0.1,0.1,0.2
		c0,0,0,0.1-0.1,0.1c0,0,0,0.1-0.1,0.2c-0.1,0-0.1,0.1-0.2,0.3c0,0,0,0.1-0.1,0.1s0,0.1,0,0.1s0,0,0,0.1v0.1
		c-0.1,0.2-0.2,0.3-0.2,0.4l-0.1,0.1c0,0.1,0,0.1-0.1,0.2v0.1v0.1c0,0,0,0.1-0.1,0.1s0,0-0.1,0c0,0,0,0-0.1,0c0,0-0.1,0.1-0.1,0.2
		c-0.1,0-0.1,0-0.1,0.1S45.8,63,45.8,63s-0.1,0-0.1-0.1l-0.1-0.1c-0.1,0-0.1,0-0.1,0h-0.1c0-0.1,0-0.2,0-0.2c-0.2,0-0.4,0-0.4,0
		c0-0.1,0-0.2-0.1-0.2h-0.1h-0.1c0,0,0,0,0-0.1s0-0.1,0-0.1c-0.1,0-0.1,0-0.1,0c0,0.1,0,0.1-0.1,0.1c0-0.1,0-0.1-0.1-0.2
		c-0.1-0.1-0.1-0.1-0.1-0.2c-0.1,0-0.1,0-0.1,0c0-0.1,0-0.2,0-0.2h-0.1c0-0.1,0-0.3,0-0.4l0,0l0,0c0.1-0.1,0.1-0.3,0.1-0.5
		c0.8-0.1,0.8-0.2,0.8-0.2h0.1l0,0c0,0,0-0.1,0-0.2h0.1c0,0,0-0.1,0-0.2c0-0.1,0-0.1,0-0.1l0.1-0.1c0-0.1,0.1-0.2,0.2-0.3
		c0-0.1,0-0.1,0-0.1l-0.1-0.1c0.1,0,0.2-0.1,0.2-0.2c0,0,0.1,0,0.1-0.1s0-0.2,0-0.2c0-0.1,0-0.1,0-0.1v-0.1c0-0.1,0-0.1,0-0.1
		s0-0.1,0.1-0.1c0-0.1,0.1-0.2,0.2-0.3c0.1-0.1,0.1-0.2,0.1-0.3c0.1-0.2,0.1-0.3,0.2-0.3c0-0.1,0-0.3,0.1-0.4
		c0.1-0.2,0.1-0.3,0.1-0.4c0.1,0,0.1,0,0.2-0.1c0.1-0.1,0.1-0.1,0.1-0.1c0-0.1,0-0.2,0.1-0.3C47,56.1,47,56,47,55.9
		c-0.1-0.1-0.1-0.1,0-0.2h0.1c0.1-0.1,0.1-0.2,0-0.3c-0.1,0-0.2,0-0.2,0c0-0.2-0.2-0.4-0.4-0.6c0,0,0,0,0.1-0.1c0,0,0.1,0,0.1-0.1
		s0-0.1-0.1-0.2c-0.1-0.1-0.1-0.1-0.1-0.1s0.1-0.1,0.2-0.4c0-0.1,0.1-0.2,0.2-0.3c0.1-0.1,0.2-0.1,0.2-0.2l0.5-0.1
		c0.1,0,0.2,0,0.3,0s0.2,0,0.2-0.1v-0.1c0-0.1,0-0.1,0-0.1s0.1,0,0.1-0.1s0-0.1,0-0.1v-0.1l0.1-0.1v-0.1c0-0.2,0.1-0.3,0.2-0.4
		c0.1-0.2,0.1-0.4,0-0.5c0.1,0,0.1-0.1,0.2-0.2c0.1-0.1,0.1-0.2,0.1-0.2c0-0.1,0-0.2,0.1-0.3C49,51.1,49,51,49,51
		c0-0.1,0.1-0.1,0.1-0.2c0-0.1,0.1-0.2,0.1-0.2c0-0.1,0-0.2,0.1-0.3c0,0,0-0.1,0.1-0.2c0,0,0,0,0-0.1c0,0,0,0,0-0.1
		c0.1-0.1,0.1-0.1,0.1-0.2v-0.1v-0.1c0,0,0,0,0.1-0.1c0.1-0.2,0.1-0.3,0.2-0.4v0c0,0,0,0,0.1-0.1c0,0,0.1,0,0.1-0.1v-0.1
		c0-0.1,0-0.1,0-0.1c0.1-0.2,0.1-0.3,0.1-0.4l0.1-0.1l0.1-0.1v-0.1c0-0.1,0-0.1,0-0.1s0-0.1,0.1-0.1s0.1-0.1,0.1-0.1v-0.1
		c0-0.1,0-0.1,0-0.2c0.1,0,0.1-0.1,0.1-0.1c0.1-0.2,0.1-0.4,0.1-0.4c0-0.1,0-0.2,0.1-0.3s0.1-0.3,0.1-0.4c0.1,0,0.1-0.1,0.1-0.3
		s0.1-0.3,0.1-0.3c0-0.1,0-0.1,0.1-0.2c0-0.1,0-0.1,0.1-0.1v-0.1V45c0,0,0.1,0,0.1-0.1c0.1,0,0.1-0.1,0.1-0.1s0-0.1,0-0.2
		c0-0.1,0-0.1,0-0.2c0,0,0,0-0.1,0h-0.1c0-0.1,0-0.1,0-0.2c0.1,0,0.2,0,0.2,0v-0.1V44v-0.1l0.1-0.1c0-0.1,0-0.1,0-0.2
		c0-0.1,0-0.1,0-0.1c0-0.1,0-0.1,0.1-0.3c0.1-0.1,0.1-0.2,0.1-0.3c0.1-0.1,0.1-0.1,0.1-0.3s0-0.2,0.1-0.2v-0.1l0.1-0.1
		c0-0.1,0.1-0.1,0.1-0.1c0-0.1,0-0.2,0-0.3c0.1-0.1,0.1-0.2,0.1-0.2v-0.1v-0.1c0,0,0-0.1,0.1-0.2c0-0.1,0-0.1,0.1-0.2
		c0.1-0.1,0.1-0.1,0.1-0.2v-0.1c0-0.1,0-0.1,0-0.2c0.1-0.2,0.1-0.4,0.1-0.4h0.1c0-0.2,0.1-0.3,0.2-0.4c0-0.1,0-0.2,0.1-0.2
		c0,0,0,0-0.1-0.1s0,0,0-0.1h-0.1c-0.1-0.1-0.1-0.1,0-0.2c0.1,0,0.1,0,0.1,0c0-0.1,0-0.1,0-0.2c-0.1-0.2-0.1-0.2,0-0.2
		s0.1,0,0.1-0.1c0,0,0,0,0.1,0.1c0,0,0,0,0.1,0c0-0.1,0.1-0.1,0.1-0.3c0-0.1,0-0.1,0-0.1s0,0,0.1,0s0,0,0.1,0
		c0.3-0.2,0.5-0.2,0.7-0.1c0.1,0.1,0.1,0.1,0.2,0.1c0,0,0.1,0,0.1-0.1C54.4,38.2,54.5,38.2,54.6,38.4z M54.6,38.4
		c0,0.1,0.1,0.2,0.2,0.2l0.1-0.1l0,0c0.1,0,0.1,0,0.1,0v0.1l0.1,0.1c0.1,0.1,0.1,0.1,0.1,0.2c0.1,0.1,0.1,0.2,0.2,0.3
		c0.1,0.1,0.2,0.1,0.3,0.1c0,0.1,0,0.1-0.1,0.2h-0.1c0,0.1,0,0.1,0.1,0.2c0,0.1,0,0.1,0.1,0.2c0,0.1,0.1,0.1,0.1,0.2s0,0.1,0,0.1
		c0,0.1,0,0.1,0,0.1v0.1l0.1,0.1v0.1v0.1c0,0,0,0.1,0.1,0.1c0,0,0,0.1,0.1,0.1c0,0.2,0.1,0.3,0.1,0.3c0.1,0.3,0.1,0.5,0.2,0.5
		c0,0.3,0,0.4,0.1,0.5c0,0.1,0,0.2,0,0.3c0.1,0.1,0.1,0.2,0,0.3v0.1c0,0,0,0.1,0,0.2c0,0.1,0,0.1,0,0.2h0.1h0.1c0,0.2,0,0.4,0,0.4
		c0,0.1,0,0.1,0,0.1l0,0l0,0c0,0,0,0,0,0.1V44c0,0,0,0.1,0,0.2c0,0.1,0,0.3,0.1,0.5s0.1,0.4,0,0.6c0.1,0.1,0.2,0.3,0.2,0.5
		c0,0.1,0,0.1,0,0.1s0,0,0,0.1c0,0,0,0.1,0.1,0.1c0,0,0,0.1,0,0.2c0,0.1,0,0.1,0,0.2s0,0.1,0,0.1l0.1,0.1c0,0,0,0.1,0,0.2
		c0,0.1,0,0.2,0,0.2c0,0.1,0,0.1,0.1,0.2c0.1,0.1,0.1,0.1,0,0.2l0.2,0.1c0,0.1,0,0.1-0.1,0.2c0,0.1,0,0.1,0,0.2c0,0.1,0,0.1,0,0.1
		s0,0,0,0.1c0,0,0,0,0,0.1l0,0c0.1,0.2,0.1,0.3,0,0.3c0.1,0.3,0.1,0.5,0.1,0.6h0.1c0,0,0,0.2,0,0.5v0.1c0,0,0,0.1,0.1,0.2
		c0,0,0,0.1,0,0.2c0,0.1,0,0.2,0,0.2s0,0.1,0.1,0.2c0,0.1,0.1,0.1,0.1,0.2c0,0.1,0,0.2,0,0.2v0.1v0.1c0,0.1,0.1,0.1,0.1,0.1
		c0.1,0.2,0.1,0.3,0.1,0.3c-0.1,0.1-0.1,0.2,0,0.2l0,0v0.1V52l0.1,0.1c0,0.1,0,0.1,0,0.2c0,0.1,0,0.1,0,0.3c0,0.1,0,0.2,0,0.3
		c0,0,0,0.1,0.1,0.1l0.1,0.1c0.1,0.2,0.1,0.4,0.1,0.4s0.1,0.1,0.2,0.1c0.1,0,0.2,0.1,0.2,0.1v0.1l0.1,0.1c0.1,0,0.1,0,0.2,0.1
		c0,0.1,0,0.2,0.1,0.3s0.1,0.2,0.1,0.3c0.1,0.1,0.1,0.1,0.1,0.1c-0.1,0.1-0.1,0.2-0.2,0.2c0,0,0,0.1-0.1,0.2s0,0.2-0.1,0.3
		c-0.1,0-0.1,0.1-0.1,0.1c0,0.1,0,0.1,0,0.2c0,0.1,0,0.1,0,0.1s0,0,0,0.1V56c0,0,0,0.1,0.1,0.1l0.1,0.1c0,0.1,0,0.1,0,0.2
		c0,0.1,0,0.2,0.1,0.2c0,0.4,0.1,0.7,0.3,0.8c-0.1,0.3,0,0.5,0.1,0.6c0,0.1,0,0.2,0.1,0.2h0.1l0,0v0.1c0,0.1,0,0.1,0,0.1
		c0,0.1,0,0.1,0,0.1l0.1,0.1c0,0.1,0,0.2,0.1,0.3s0.1,0.2,0.1,0.2s0.1,0.1,0.1,0.3c0,0.1,0.1,0.2,0.2,0.3c0,0.2,0.1,0.2,0.2,0.2
		c0,0,0,0.1,0.1,0.1c0,0.1,0.1,0.1,0.1,0.2c0.1,0.1,0.2,0.2,0.2,0.3l0.1,0.1l0.1,0.1v0.1c0,0.1,0,0.1,0,0.1c0,0.1,0,0.2,0,0.3
		s0,0.2,0,0.3c0.1,0.1,0.1,0.2,0,0.4c-0.1,0-0.1,0.1-0.2,0.2c-0.1,0-0.2,0.1-0.3,0.2c0.1-0.3,0-0.3-0.1-0.3v0.1v0.1h-0.4
		c0-0.1-0.1-0.2-0.2-0.3c-0.1-0.1-0.2-0.1-0.2-0.2c-0.2,0-0.3,0-0.4-0.1v0.1v0.1c-0.1,0-0.1,0-0.1-0.1s0-0.1,0-0.1
		c0-0.1-0.1-0.1-0.2-0.1c-0.2-0.2-0.4-0.4-0.6-0.4c0-0.2-0.1-0.4-0.3-0.4c0-0.1,0-0.1,0-0.2l0,0c0-0.1-0.1-0.1-0.1-0.3
		c-0.1-0.1-0.1-0.2-0.1-0.2C58,60,58,60,58,60c0.1-0.2,0-0.3-0.1-0.4c0-0.1,0-0.2-0.1-0.3h-0.1l0,0v-0.1c0-0.1,0-0.1,0-0.1
		s0-0.1-0.1-0.1c0-0.1,0-0.1,0-0.2h-0.2l0.1-0.2c0-0.1,0-0.2-0.1-0.2c0-0.2-0.1-0.4-0.2-0.4v-0.1c0-0.1,0-0.1,0-0.1v-0.1v-0.1
		c0,0,0-0.1-0.1-0.2c0-0.1-0.1-0.2-0.1-0.2c-0.1-0.3-0.1-0.4-0.2-0.4v-0.1c0-0.1,0-0.1,0-0.1s0-0.1-0.1-0.1l-0.1-0.1v-0.1
		c0-0.1,0-0.1,0-0.1s0,0,0-0.1c0,0,0,0,0-0.1c-0.1-0.1-0.1-0.2-0.1-0.2s-0.1,0-0.2,0c-0.1,0-0.1,0-0.2,0c-0.1,0-0.2,0.1-0.2,0.1l0,0
		l0,0h-0.1h-0.1c-0.1,0-0.1,0-0.1,0.1c0,0-0.1,0-0.1-0.1c-0.1,0-0.1,0-0.2,0.1c-0.1,0-0.1,0.1-0.1,0.1C55.1,56,55.1,56,55,56
		c-0.1,0-0.1,0.1-0.1,0.2c-0.2,0-0.3,0-0.3,0c-0.1-0.1-0.1-0.1-0.2-0.1c0,0-0.1,0-0.1,0.1c0,0-0.1,0-0.2-0.1c-0.1,0-0.2,0-0.3,0.2
		c-0.1,0-0.2,0-0.2,0c-0.1-0.1-0.2-0.1-0.4-0.1s-0.3,0.1-0.3,0.1c-0.5,0-0.7,0-0.8,0s-0.2,0-0.4,0s-0.3,0-0.4,0c0,0.1,0,0.1,0,0.2
		c-0.1,0-0.1,0-0.3-0.2c0,0-0.1,0-0.1,0.1c0,0-0.1,0-0.3,0c-0.1,0-0.2,0-0.3,0c0,0-0.1,0-0.1-0.1s-0.1,0-0.1,0c-0.1,0-0.1,0-0.2,0.1
		c-0.1-0.1-0.2-0.1-0.2-0.1s-0.1,0-0.1,0.1s-0.1,0.1-0.1,0.1c-0.1-0.1-0.1-0.2-0.1-0.2s-0.1,0-0.2,0.1c-0.1,0.1-0.1,0.1-0.1,0.1
		s-0.1,0.1-0.2,0.2c0,0.1,0,0.2-0.1,0.3v0.1l-0.1,0.1l-0.1,0.1c0,0.1,0,0.1-0.1,0.2c0,0.1-0.1,0.2-0.1,0.3l0,0l0,0V58
		c0,0,0,0.1-0.1,0.2c0,0.1-0.1,0.2-0.2,0.4c0.1,0.1,0,0.1,0,0.2C48,58.9,48,58.9,48,58.9s0,0,0,0.1v0.1c0,0,0,0-0.1,0.1
		c-0.1,0-0.1,0-0.1,0.1c0,0.2-0.1,0.4-0.2,0.4c0,0.1,0,0.2,0,0.3h-0.2c-0.1,0.3-0.1,0.4-0.2,0.4c0,0.1,0,0.1,0.1,0.2
		c0,0,0,0.1-0.1,0.1c0,0,0,0.1-0.1,0.2c-0.1,0-0.1,0.1-0.2,0.3c0,0,0,0.1-0.1,0.1s0,0.1,0,0.1s0,0,0,0.1v0.1
		c-0.1,0.2-0.2,0.3-0.2,0.4l-0.1,0.1c0,0.1,0,0.1-0.1,0.2v0.1v0.1c0,0,0,0.1-0.1,0.1s0,0-0.1,0c0,0,0,0-0.1,0c0,0-0.1,0.1-0.1,0.2
		c-0.1,0-0.1,0-0.1,0.1S45.8,63,45.8,63s-0.1,0-0.1-0.1l-0.1-0.1c-0.1,0-0.1,0-0.1,0h-0.1c0-0.1,0-0.2,0-0.2c-0.2,0-0.4,0-0.4,0
		c0-0.1,0-0.2-0.1-0.2h-0.1h-0.1c0,0,0,0,0-0.1s0-0.1,0-0.1c-0.1,0-0.1,0-0.1,0c0,0.1,0,0.1-0.1,0.1c0-0.1,0-0.1-0.1-0.2
		c-0.1-0.1-0.1-0.1-0.1-0.2c-0.1,0-0.1,0-0.1,0c0-0.1,0-0.2,0-0.2h-0.1c0-0.1,0-0.3,0-0.4l0,0l0,0c0.1-0.1,0.1-0.3,0.1-0.5
		c0.8-0.1,0.8-0.2,0.8-0.2h0.1l0,0c0,0,0-0.1,0-0.2h0.1c0,0,0-0.1,0-0.2c0-0.1,0-0.1,0-0.1l0.1-0.1c0-0.1,0.1-0.2,0.2-0.3
		c0-0.1,0-0.1,0-0.1l-0.1-0.1c0.1,0,0.2-0.1,0.2-0.2c0,0,0.1,0,0.1-0.1s0-0.2,0-0.2c0-0.1,0-0.1,0-0.1v-0.1c0-0.1,0-0.1,0-0.1
		s0-0.1,0.1-0.1c0-0.1,0.1-0.2,0.2-0.3c0.1-0.1,0.1-0.2,0.1-0.3c0.1-0.2,0.1-0.3,0.2-0.3c0-0.1,0-0.3,0.1-0.4
		c0.1-0.2,0.1-0.3,0.1-0.4c0.1,0,0.1,0,0.2-0.1c0.1-0.1,0.1-0.1,0.1-0.1c0-0.1,0-0.2,0.1-0.3C47,56.1,47,56,47,55.9
		c-0.1-0.1-0.1-0.1,0-0.2h0.1c0.1-0.1,0.1-0.2,0-0.3c-0.1,0-0.2,0-0.2,0c0-0.2-0.2-0.4-0.4-0.6c0,0,0,0,0.1-0.1c0,0,0.1,0,0.1-0.1
		s0-0.1-0.1-0.2c-0.1-0.1-0.1-0.1-0.1-0.1s0.1-0.1,0.2-0.4c0-0.1,0.1-0.2,0.2-0.3c0.1-0.1,0.2-0.1,0.2-0.2l0.5-0.1
		c0.1,0,0.2,0,0.3,0s0.2,0,0.2-0.1v-0.1c0-0.1,0-0.1,0-0.1s0.1,0,0.1-0.1s0-0.1,0-0.1v-0.1l0.1-0.1v-0.1c0-0.2,0.1-0.3,0.2-0.4
		c0.1-0.2,0.1-0.4,0-0.5c0.1,0,0.1-0.1,0.2-0.2c0.1-0.1,0.1-0.2,0.1-0.2c0-0.1,0-0.2,0.1-0.3C49,51.1,49,51,49,51
		c0-0.1,0.1-0.1,0.1-0.2c0.1-0.1,0.1-0.2,0.1-0.2c0-0.1,0-0.2,0.1-0.3c0,0,0-0.1,0.1-0.2c0,0,0,0,0-0.1c0,0,0,0,0-0.1
		c0.1-0.1,0.1-0.1,0.1-0.2v-0.1v-0.1c0,0,0,0,0.1-0.1c0.1-0.2,0.1-0.3,0.2-0.4v0c0,0,0,0,0.1-0.1c0,0,0.1,0,0.1-0.1v-0.1
		c0-0.1,0-0.1,0-0.1c0.1-0.2,0.1-0.3,0.1-0.4l0.1-0.1l0.1-0.1v-0.1c0-0.1,0-0.1,0-0.1s0-0.1,0.1-0.1s0.1-0.1,0.1-0.1v-0.1
		c0-0.1,0-0.1,0-0.2c0.1,0,0.1-0.1,0.1-0.1c0.1-0.2,0.1-0.4,0.1-0.4c0-0.1,0-0.2,0.1-0.3s0.1-0.3,0.1-0.4c0.1,0,0.1-0.1,0.1-0.3
		s0.1-0.3,0.1-0.3c0-0.1,0-0.1,0.1-0.2c0-0.1,0-0.1,0.1-0.1v-0.1V45c0,0,0.1,0,0.1-0.1c0.1,0,0.1-0.1,0.1-0.1s0-0.1,0-0.2
		c0-0.1,0-0.1,0-0.2c0,0,0,0-0.1,0h-0.1c0-0.1,0-0.1,0-0.2c0.1,0,0.2,0,0.2,0v-0.1V44v-0.1l0.1-0.1c0-0.1,0-0.1,0-0.2
		c0-0.1,0-0.1,0-0.1c0-0.1,0-0.1,0.1-0.3c0.1-0.1,0.1-0.2,0.1-0.3c0.1-0.1,0.1-0.1,0.1-0.3s0-0.2,0.1-0.2v-0.1l0.1-0.1
		c0-0.1,0.1-0.1,0.1-0.1c0-0.1,0-0.2,0-0.3c0.1-0.1,0.1-0.2,0.1-0.2v-0.1v-0.1c0,0,0-0.1,0.1-0.2c0-0.1,0-0.1,0.1-0.2
		c0.1-0.1,0.1-0.1,0.1-0.2v-0.1c0-0.1,0-0.1,0-0.2c0.1-0.2,0.1-0.4,0.1-0.4h0.1c0-0.2,0.1-0.3,0.2-0.4c0-0.1,0-0.2,0.1-0.2
		c0,0,0,0-0.1-0.1s0,0,0-0.1h-0.1c-0.1-0.1-0.1-0.1,0-0.2c0.1,0,0.1,0,0.1,0c0-0.1,0-0.1,0-0.2c-0.1-0.2-0.1-0.2,0-0.2
		s0.1,0,0.1-0.1c0,0,0,0,0.1,0.1c0,0,0,0,0.1,0c0-0.1,0.1-0.1,0.1-0.3c0-0.1,0-0.1,0-0.1s0,0,0.1,0s0,0,0.1,0
		c0.3-0.2,0.5-0.2,0.7-0.1c0.1,0.1,0.1,0.1,0.2,0.1c0,0,0.1,0,0.1-0.1C54.4,38.2,54.5,38.2,54.6,38.4z M47,55.8L47,55.8
		C47.1,55.9,47.1,55.9,47,55.8z M47,55.9C47.1,55.9,47.1,55.9,47,55.9C47,55.8,47,55.8,47,55.9z M54.1,43.5
		C54.1,43.6,54.1,43.6,54.1,43.5c-0.2,0.1-0.2,0.2-0.2,0.2v0.1c0,0,0,0.1,0,0.2c-0.1,0.1-0.1,0.1-0.1,0.1s0,0,0,0.1v0.1
		c0,0,0,0.1-0.1,0.1l-0.1,0.1c0,0,0,0.1,0,0.2c0,0.1,0,0.2-0.1,0.2V45c-0.1,0.1-0.1,0.2-0.1,0.4c-0.1,0.1-0.1,0.1-0.1,0.1v0.1
		c0,0.1,0,0.1-0.1,0.2c-0.1,0.1-0.1,0.1-0.1,0.1s0,0,0,0.1s0,0.1,0,0.1s0,0.1-0.1,0.1l-0.1,0.1c0,0,0,0.1,0,0.2c0,0.1,0,0.1,0,0.2
		l0,0.3c0,0,0,0.1,0,0.2v0.1l-0.1,0.3c-0.1,0-0.1,0.1-0.1,0.2c0,0.1-0.1,0.2-0.1,0.3s0,0.1,0,0.1c-0.1,0.2-0.1,0.3-0.1,0.4
		c0,0-0.1,0.1-0.1,0.2c0,0.1-0.1,0.2-0.1,0.2l-0.1,0.3v0.1c0,0,0,0,0,0.1c0,0,0,0,0,0.1c0,0,0,0,0,0.1c0,0,0,0,0,0.1v0.1V50
		c-0.1,0.2-0.1,0.3-0.1,0.4c0,0.1,0,0.1-0.1,0.2c-0.1,0.1-0.1,0.1-0.1,0.2v0.1V51c0,0,0,0.1,0,0.2c0,0.1,0,0.1,0,0.2
		c0,0-0.1,0-0.1,0.1l-0.1,0.1c0,0,0,0.1,0,0.2c0,0.1,0,0.2,0,0.2s-0.1,0.1-0.1,0.2c-0.1,0.1-0.1,0.2-0.1,0.4c-0.1,0-0.1,0.1-0.1,0.2
		c0,0.1-0.1,0.2-0.1,0.2c0,0.3,0,0.5-0.1,0.5c0,0.1,0,0.2-0.1,0.2L51,53.8v0.1V54v0.1c0,0.1,0.1,0.1,0.4,0c0,0,0,0,0.1,0
		s0.1,0,0.2,0c0,0,0,0,0.1,0c0,0,0,0,0.1,0H52h0.1h0.1c0.3,0,0.6,0,0.7-0.1c0.1,0.1,0.3,0.1,0.5,0h0.1l0.1-0.1h0.1h0.1
		c0.2,0,0.4,0,0.4,0h0.1h0.1c0.1,0.1,0.2,0.1,0.4,0.1l0.1-0.1c0.1,0,0.2,0,0.4,0s0.3,0,0.4,0c0.1-0.1,0.1-0.1,0.1-0.1
		c0.1,0,0.1,0,0.1,0l0.1-0.1h0.1c0.1,0,0.1,0,0.1,0s0.1,0,0.2-0.1c0.1-0.1,0.1-0.1,0.1-0.1v-0.1c0-0.1,0-0.1,0-0.1s0,0,0-0.1v-0.1
		c0,0,0,0,0-0.1v-0.1c-0.1-0.3-0.1-0.5-0.1-0.7h-0.1v-0.1c0-0.1,0-0.1,0-0.3c0,0,0,0,0-0.1s0-0.1,0-0.1s0,0,0-0.1v-0.1v-0.1
		c0-0.1,0-0.1-0.1-0.2c0-0.1-0.1-0.1-0.1-0.2v-0.1v-0.1c0,0-0.1,0-0.1-0.1s-0.1-0.2-0.1-0.3c-0.1,0-0.1-0.1-0.1-0.2
		c0-0.1,0-0.2,0-0.3s0-0.2-0.1-0.3S55.3,49,55.3,49v-0.3v-0.1v-0.1v-0.1v-0.1c0,0,0-0.1,0-0.2c0-0.1,0-0.1,0-0.2v-0.1
		c0-0.1,0-0.2,0-0.2s-0.1-0.1-0.2-0.4C55,47.1,55,47.1,55,47.1V47c0,0,0-0.1-0.1-0.1l-0.1-0.1v-0.1v-0.1c0-0.1,0-0.2,0-0.2
		s0-0.1-0.1-0.1c-0.1-0.1-0.1-0.1-0.1-0.2V46v-0.1c0,0,0-0.1-0.1-0.1v-0.1c0,0,0-0.1,0-0.2c0-0.1,0-0.2,0-0.2v-0.1l-0.1-0.1
		c0,0,0-0.1,0-0.2c0,0,0-0.1,0-0.2c0-0.1,0-0.2,0-0.2c-0.1-0.1-0.1-0.2-0.1-0.6C54.2,44,54.2,43.9,54.1,43.5L54.1,43.5z M54,43.7
		L54,43.7L54,43.7c-0.1,0.1-0.1,0.2-0.1,0.2s0,0.1,0,0.2c-0.1,0.1-0.1,0.1-0.1,0.1s0,0,0,0.1v0.1c0,0,0,0.1-0.1,0.1l-0.1,0.1
		c0,0,0,0.1,0,0.2c0,0.1,0,0.2-0.1,0.2v0c-0.1,0.1-0.1,0.2-0.1,0.4c-0.1,0.1-0.1,0.1-0.1,0.1v0.1c0,0.1,0,0.1-0.1,0.2
		c-0.1,0.1-0.1,0.1-0.1,0.1s0,0,0,0.1s0,0.1,0,0.1s0,0.1-0.1,0.1l-0.1,0.1c0,0,0,0.1,0,0.2c0,0.1,0,0.1,0,0.2l0,0.3c0,0,0,0.1,0,0.2
		v0.1l-0.1,0.3c-0.1,0-0.1,0.1-0.1,0.2c0,0.1-0.1,0.2-0.1,0.3s0,0.1,0,0.1c-0.1,0.2-0.1,0.3-0.1,0.4c0,0-0.1,0.1-0.1,0.2
		c0,0.1-0.1,0.2-0.1,0.2l-0.1,0.3v0.1c0,0,0,0,0,0.1c0,0,0,0,0,0.1c0,0,0,0,0,0.1c0,0,0,0,0,0.1v0.1V50c-0.1,0.2-0.1,0.3-0.1,0.4
		c0,0.1,0,0.1-0.1,0.2c-0.1,0.1-0.1,0.1-0.1,0.2v0.1V51c0,0,0,0.1,0,0.2c0,0.1,0,0.1,0,0.2c0,0-0.1,0-0.1,0.1l-0.1,0.1
		c0,0.1,0,0.1,0,0.2c0,0.1,0,0.2,0,0.2s-0.1,0.1-0.1,0.2c-0.1,0.1-0.1,0.2-0.1,0.4c-0.1,0-0.1,0.1-0.1,0.2c0,0.1-0.1,0.2-0.1,0.2
		c0,0.3,0,0.5-0.1,0.5c0,0.1,0,0.2-0.1,0.2L51,53.8v0.1V54v0.1c0,0.1,0.1,0.1,0.4,0c0,0,0.1,0,0.3,0c0,0,0,0,0.1,0c0,0,0,0,0.1,0H52
		h0.1h0.1c0.3,0,0.6,0,0.7-0.1c0.1,0.1,0.3,0.1,0.5,0h0.1l0.1-0.1h0.1h0.1c0.2,0,0.4,0,0.4,0h0.1h0.1c0.1,0.1,0.2,0.1,0.4,0.1
		l0.1-0.1c0.1,0,0.2,0,0.4,0s0.3,0,0.4,0c0.1-0.1,0.1-0.1,0.1-0.1c0.1,0,0.1,0,0.1,0l0.1-0.1h0.1c0.1,0,0.1,0,0.1,0s0.1,0,0.2-0.1
		c0.1-0.1,0.1-0.1,0.1-0.1v-0.1c0-0.1,0-0.1,0-0.1s0,0,0-0.1v-0.1c0,0,0,0,0-0.1v-0.1c-0.1-0.3-0.1-0.5-0.1-0.7h-0.1v-0.1
		c0-0.1,0-0.1,0-0.3c0,0,0,0,0-0.1s0-0.1,0-0.1s0,0,0-0.1v-0.1v-0.1c0-0.1,0-0.1-0.1-0.2c0-0.1-0.1-0.1-0.1-0.2v-0.1v-0.1
		c0,0-0.1,0-0.1-0.1s-0.1-0.2-0.1-0.3c-0.1,0-0.1-0.1-0.1-0.2c0-0.1,0-0.2,0-0.3s0-0.2-0.1-0.3S55.3,49,55.3,49v-0.3v-0.1v-0.1v-0.1
		v-0.1c0,0,0-0.1,0-0.2c0-0.1,0-0.1,0-0.2v-0.1c0-0.1,0-0.2,0-0.2s-0.1-0.1-0.2-0.4C55,47.1,55,47.1,55,47.1V47c0,0,0-0.1-0.1-0.1
		l-0.1-0.1v-0.1v-0.1c0-0.1,0-0.2,0-0.2s0-0.1-0.1-0.1c-0.1-0.1-0.1-0.1-0.1-0.2V46v-0.1c0,0,0-0.1-0.1-0.1v-0.1c0,0,0-0.1,0-0.2
		c0-0.1,0-0.2,0-0.2v-0.1l-0.1-0.1c0,0,0-0.1,0-0.2c0,0,0-0.1,0-0.2c0-0.1,0-0.2,0-0.2c-0.1-0.1-0.1-0.2-0.1-0.6
		c-0.1,0-0.1-0.2-0.2-0.5l0,0C54.1,43.6,54.1,43.6,54,43.7z M55.5,56L55.5,56L55.5,56z M55.5,56L55.5,56L55.5,56z M55.9,39.9
		C55.9,39.8,55.9,39.8,55.9,39.9C56,39.8,56,39.9,55.9,39.9L55.9,39.9z M56,39.8L56,39.8C55.9,39.9,55.9,39.9,56,39.8
		C55.9,39.8,55.9,39.8,56,39.8z"/>
	<path fill="#BF9000" d="M72.7,46.4c0,0,0,0.1,0,0.2c0.2,0.1,0.4,0.3,0.6,0.4h0.2c0,0.1,0.1,0.2,0.2,0.2c0,0.1,0,0.2,0.1,0.2
		s0.1,0,0.1,0c0,0.2,0,0.4,0,0.5C74,48,74,48.1,74,48.2s0,0.2,0,0.3s0,0.2,0,0.3c-0.2,0.1-0.2,0.2-0.2,0.4c-0.1,0-0.1,0-0.2,0
		c-0.1,0.1-0.1,0.1-0.1,0.1h-0.1h-0.1c0,0,0,0-0.1,0.1s-0.1,0-0.1,0s0,0-0.1,0s-0.1,0.1-0.2,0.2c0,0-0.1,0-0.2-0.1
		c-0.1,0-0.1,0-0.1,0h-0.1c0-0.1,0-0.2-0.2-0.3h-0.1H72l-0.1-0.1c-0.1,0-0.1,0-0.1,0s0,0-0.1,0V49c-0.1-0.1-0.2-0.1-0.3-0.1
		c0,0-0.1,0-0.1,0.1c-0.1,0-0.2,0-0.3,0h-0.1h-0.1h-0.1h-0.1c0,0-0.1,0-0.2-0.1c0,0-0.1,0-0.1,0.1c-0.1,0-0.1,0-0.1,0h-0.1
		C70,49,70,49,70,49h-0.1h-0.1h-0.1h-0.1h-0.1c-0.1,0-0.1,0-0.2,0c-0.3,0-0.5,0.1-0.5,0.1c0,0.1,0,0.1,0,0.1h-0.1l-0.1-0.1
		c0,0-0.1,0-0.2,0.1c0,0,0,0-0.1,0c0,0,0,0-0.1,0c-0.1,0.1-0.2,0.1-0.4,0.1c-0.2,0-0.4,0.1-0.4,0.1v0.1c-0.1,0-0.1,0-0.1,0
		s0,0-0.1,0c0,0,0,0.1-0.1,0.1s-0.1,0-0.1,0s-0.1,0-0.2,0.1h-0.1c-0.1,0-0.1,0-0.2,0v0.1v0.1c0,0.1,0.1,0.2,0.1,0.2s0.1,0,0.2,0
		c0,0.1,0.1,0.1,0.2,0.2h0.1h0.1c0,0,0,0,0,0.1s0,0.1,0,0.1c0.1-0.1,0.2,0,0.3,0.1c0.1,0.1,0.2,0.1,0.2,0.1s0.1,0,0.2,0.1
		c0.1,0,0.2,0,0.2,0.1c0,0,0.1,0,0.1,0.1h0.1c0,0,0.1,0,0.1,0.1c0,0,0.1,0,0.1,0.1c0.3,0.1,0.4,0.1,0.5,0.2c0.1-0.1,0.2,0,0.3,0
		c0.1,0,0.1,0.1,0.1,0.1c0.1,0,0.1,0,0.2,0s0.2,0,0.2,0s0,0,0.1,0c0,0,0,0,0.1,0h0.1c0,0,0.1,0,0.1,0.1l0.1,0.1h0.1h0.1
		c0.2,0.1,0.3,0.2,0.4,0.2l0.1-0.1c0.1,0,0.1,0,0.2,0c0,0,0,0,0,0.1c0.1,0.1,0.2,0.1,0.2,0.1h0.1h0.1c0,0.1,0,0.2,0.1,0.2
		c0,0,0,0,0.1,0c0,0,0,0,0.1-0.1c0.2,0,0.3,0,0.3,0c0,0.1,0.1,0.1,0.2,0.2c0.1,0,0.2,0.1,0.2,0.1c0.2-0.1,0.4,0,0.5,0.1h0.1h0.1
		c0,0,0.1,0,0.1,0.1s0.1,0.1,0.1,0.1s0.1,0,0.1-0.1c0.1-0.1,0.1-0.1,0.2,0c0,0.1,0,0.1,0.1,0.2c0.1,0,0.2,0,0.2,0
		c0.1,0.1,0.1,0.1,0.1,0.1h0.1h0.1c0,0,0,0,0,0.1c0,0,0.1,0.1,0.2,0.1c0.1,0.1,0.2,0.1,0.3,0.2c0.1,0,0.1,0,0.2,0
		c0.1,0.1,0.1,0.1,0.2,0.1c0.1,0.2,0.1,0.3,0.2,0.3h0.1h0.1v0.1c0.1,0.1,0.2,0.2,0.3,0.3c0.2,0.2,0.3,0.3,0.4,0.3
		c0,0.1,0.1,0.1,0.1,0.2c0,0.1,0,0.1,0,0.2c0.1,0.1,0.2,0.3,0.3,0.5c0,0.1,0.1,0.1,0.1,0.2c0.1,0.1,0.1,0.2,0.1,0.2v0.1v0.1V56v0.1
		v0.1v0.1v0.1v0.1c0,0,0,0.1,0,0.3s0,0.2,0.1,0.3v0.1v0.1c0.1,0,0.1,0.1,0,0.3S77,57.9,77,58v0.1c0,0.1,0,0.1-0.1,0.2
		C76.8,58,76.8,58,76.7,58c0,0.1,0,0.1-0.1,0.3v0.1c-0.2,0.2-0.3,0.3-0.2,0.4c-0.1,0.2-0.3,0.3-0.4,0.4c0,0.2-0.1,0.3-0.2,0.4
		c-0.1,0.1-0.2,0.2-0.3,0.3c0,0.1,0,0.1-0.1,0.2v0.1h-0.1h-0.1c-0.1,0-0.1,0.1,0,0.2c0,0-0.2,0.1-0.4,0.2v0.1
		c-0.2,0.1-0.3,0.2-0.3,0.2c-0.1,0-0.1,0-0.2,0.2c-0.1,0-0.2,0.1-0.3,0.2c-0.1,0.1-0.2,0.1-0.3,0.2v0.1c0,0.1,0,0.1,0,0.1
		s-0.1,0-0.1-0.1c0,0,0-0.1-0.1-0.1c0,0-0.1,0-0.2,0.1s-0.2,0.1-0.2,0.1c-0.1,0-0.1,0.1-0.1,0.1s-0.1,0-0.2,0s-0.1,0-0.2,0
		c-0.1,0.1-0.2,0.1-0.2,0c-0.1,0.1-0.2,0.2-0.2,0.2c-0.1,0.1-0.1,0.2-0.2,0.2s-0.1,0-0.1,0c-0.1,0-0.1,0-0.1,0.1s-0.1,0.1-0.1,0.1
		c-0.1,0-0.2,0-0.3,0.1c-0.1,0.1-0.2,0.1-0.2,0.1c-0.1,0-0.1,0-0.2,0s-0.1,0-0.1,0c-0.1,0-0.1,0-0.2,0.1c-0.1,0-0.1,0.1-0.2,0.1
		h-0.1c-0.1,0-0.1,0-0.1,0s0,0-0.1,0.1c0,0-0.2,0-0.4,0c0,0-0.1,0-0.1-0.1c-0.2-0.1-0.3-0.1-0.4,0c-0.1,0-0.1,0-0.1,0
		c-0.1,0.1-0.1,0.1-0.1,0.1c-0.1-0.1-0.2-0.1-0.4-0.1c-0.1,0-0.2,0-0.2,0c-0.1-0.1-0.1-0.1-0.1-0.1s0,0-0.1,0.1c-0.1,0-0.1,0-0.1,0
		v-0.1v-0.1c-0.1,0-0.1,0-0.2,0s-0.2,0-0.2,0s-0.1,0-0.2-0.1c0,0-0.1,0-0.2,0V62c0,0-0.1,0-0.2,0l0,0v-0.1c-0.1,0-0.1,0-0.2-0.1
		s-0.1-0.1-0.1-0.2c-0.1-0.1-0.2-0.1-0.2-0.2c0-0.1,0-0.1,0-0.1c-0.1-0.1-0.1-0.1-0.2-0.2c0-0.1,0-0.1,0-0.1s0,0-0.1,0
		c0,0,0,0-0.1,0c0-0.1,0-0.2-0.1-0.3s-0.2-0.1-0.3-0.2v-0.1v-0.1c0,0-0.1,0-0.1-0.1s-0.1-0.1-0.1-0.1c-0.1-0.1-0.2-0.1-0.2-0.2v-0.1
		v-0.1v-0.1c0,0,0-0.1-0.1-0.1v-0.1v-0.1c0-0.1,0-0.1-0.1-0.2c0-0.1-0.1-0.1-0.1-0.1c0-0.1,0-0.1,0.1-0.2c0-0.1,0.1-0.1,0.1-0.2
		c0,0,0,0,0.1,0c0,0,0,0,0.1,0c0,0,0-0.1-0.1-0.4c0.1,0,0.1,0,0.2,0c0.1-0.1,0.1-0.1,0-0.2c0,0,0.1-0.1,0.1-0.2
		c0.1-0.1,0.1-0.2,0.1-0.2H66v0.1c0.1,0,0.1-0.1,0.1-0.1c0-0.1,0-0.1,0-0.1c0-0.1,0.1-0.1,0.2-0.1s0.1,0,0.1,0s0,0,0.1-0.1
		c0,0,0.1-0.1,0.1,0s0.1,0,0.1,0.1h0.1h0.1c0.1,0.1,0.2,0.2,0.2,0.2c0.1,0,0.1,0,0.1,0h0.1c0.1,0.1,0.1,0.1,0.2,0.1s0.1,0.1,0.1,0.2
		c0.1,0,0.1,0.1,0.1,0.1c0,0.1,0.1,0.1,0.1,0.2c0.1,0.1,0.1,0.2,0.1,0.2c0.1,0,0.2,0.1,0.3,0.3s0.2,0.2,0.3,0.3v0.1v0.1l0.2,0.2h0.1
		c0.1,0,0.1,0,0.1,0s0,0.1,0.1,0.1c0,0,0,0,0.1,0s0.1,0,0.3,0c0.1,0,0.2,0,0.3,0c0,0,0.1,0,0.1,0.1l0.1,0.1c0.1,0,0.2,0,0.2,0
		c0.1-0.1,0.1-0.1,0.1-0.1s0,0,0.1,0s0.1,0,0.1,0s0.1,0,0.1-0.1c0.1,0,0.1,0,0.2,0h0.1c0.1,0,0.1,0,0.1,0s0,0,0.1,0l0,0
		c0,0,0,0,0.1,0h0.1c0,0,0,0,0.1-0.1h0.1c0.1,0,0.1,0,0.1-0.1c0,0,0,0,0.1,0c0,0,0,0,0.1,0s0.1,0,0.2,0s0.1-0.1,0.1-0.2
		c0,0,0.1,0,0.1,0.1c0,0,0.1,0,0.2-0.1s0.2-0.1,0.2-0.1c0.1-0.1,0.2-0.3,0.5-0.4c0.3-0.2,0.4-0.3,0.5-0.5c0.1-0.1,0.2-0.1,0.2-0.2
		c0.1,0,0.1-0.1,0.2-0.2c0.1-0.1,0.1-0.2,0.1-0.2v-0.1c0,0,0-0.1,0.1-0.1V57c0.1-0.1,0.1-0.1,0.2-0.1c0-0.1,0-0.2,0-0.4s0-0.3,0-0.4
		c0,0,0-0.1-0.1-0.1c0,0,0,0,0-0.1c0,0,0-0.1-0.1-0.2c0-0.1-0.1-0.1-0.2-0.1s-0.1-0.1-0.2-0.1c-0.1,0.1-0.1,0.1-0.2,0
		c0-0.1,0-0.1,0-0.1h-0.2c0,0,0,0,0-0.1v-0.1c0,0,0,0-0.1,0s-0.1,0-0.1,0s0,0-0.1-0.1c0,0,0-0.1-0.1-0.1c0,0-0.1,0-0.2,0
		s-0.2,0-0.3,0c-0.2-0.1-0.3-0.1-0.3,0v-0.1c0,0-0.1-0.1-0.4-0.1c-0.2-0.1-0.3-0.1-0.4-0.1c-0.2-0.2-0.4-0.2-0.8-0.3l0,0l0,0v-0.1
		c-0.1,0-0.1,0-0.2-0.1s-0.1-0.1-0.2-0.1c0,0,0,0-0.1,0c0,0,0,0.1-0.1,0.1c0,0,0-0.1-0.1-0.1s-0.1,0-0.2,0c-0.1-0.1-0.1-0.1-0.3,0
		c-0.1-0.1-0.1-0.2-0.1-0.2c-0.2,0.1-0.3,0.1-0.3,0c-0.1-0.1-0.2-0.1-0.4,0c0-0.1-0.1-0.2-0.1-0.2c-0.2,0-0.3,0-0.4-0.1h-0.1h-0.1
		c0,0,0,0-0.1,0l0,0c0,0,0,0-0.1,0s0,0-0.1,0c0,0,0,0-0.1,0c-0.2-0.1-0.4-0.1-0.5,0v-0.1c0,0,0-0.1-0.1-0.1h-0.1c0,0-0.1,0-0.1-0.1
		c0,0-0.1,0-0.1-0.1c0,0-0.1,0-0.2-0.1c-0.1,0-0.2-0.1-0.3-0.1c-0.1-0.1-0.1-0.1-0.1-0.1h-0.1h-0.1c0-0.1,0-0.2,0-0.2h-0.1h-0.1l0,0
		c0,0,0,0,0-0.1l0,0c0,0,0,0,0-0.1h-0.1h-0.1v-0.1l0,0c-0.1-0.1-0.1-0.1-0.2-0.1c-0.1-0.1-0.1-0.1-0.2-0.2h-0.1h-0.1
		c0-0.1-0.1-0.1-0.2-0.2c0-0.1-0.1-0.2-0.2-0.3s-0.2-0.2-0.2-0.3H64l-0.1-0.1c0-0.1,0-0.1,0-0.1c0.2,0.2,0.1,0,0.1-0.1
		c-0.1,0-0.1,0-0.2-0.1c-0.1-0.1-0.1-0.1-0.1-0.1s0-0.1,0-0.2c-0.2-0.1-0.3-0.3-0.4-0.4c0,0,0,0,0-0.1s0-0.1,0-0.2
		c0,0,0-0.1-0.1-0.1c0,0-0.1,0-0.1-0.1v-0.1c0,0,0-0.1,0-0.2c0-0.1,0-0.2,0-0.2v-0.1c0-0.1,0-0.1,0-0.1s0-0.1,0.1-0.2
		c0-0.1,0-0.1,0-0.2c0-0.1,0-0.1,0-0.1c0.1-0.1,0.2-0.2,0.4-0.4c0,0,0.1,0,0.2,0c0,0,0,0,0-0.1v-0.1c0,0,0.1,0,0.3-0.1
		c0.2-0.1,0.3-0.1,0.3-0.2c0.1,0,0.1,0,0.2,0c0,0,0.1-0.1,0.1-0.2c0,0,0,0,0.1,0c0,0,0.1,0,0.1-0.1l0.1-0.1c0.1,0,0.1,0,0.2,0
		s0.2-0.1,0.2-0.3c0.2,0,0.3,0,0.3-0.1c0.1,0,0.2,0,0.3,0c0.1,0,0.2,0,0.2,0c0.1,0,0.1,0,0.2-0.1s0.1-0.1,0.2-0.1s0.1,0,0.2,0h0.1
		c0.1,0,0.1-0.1,0.1-0.1s0.1,0,0.2,0c0,0,0.1,0,0.1-0.1l0.1-0.1c0.1,0,0.1,0,0.1,0s0.1-0.1,0.2-0.2c0.1,0,0.2,0,0.2-0.1v0.1
		C68,46,68.1,46,68.3,46c0.2,0,0.3,0,0.4,0h0.1l0.1-0.1c0.1,0,0.1,0,0.1,0s0.1,0,0.1-0.1l0.1-0.1c0.1,0,0.3,0,0.6,0
		c0.3,0,0.5,0,0.7,0c0.1,0,0.1,0,0.2,0s0.2,0,0.2,0s0.1,0,0.2,0s0.1,0,0.2,0c0,0,0.1,0,0.2,0.1c0.3,0,0.4,0,0.5,0.1
		c0.1,0,0.2,0,0.3,0.1C72.5,46.4,72.6,46.4,72.7,46.4z M72.1,46.2c0.1,0,0.2,0,0.3,0.1c0.1,0.1,0.2,0.1,0.3,0.1c0,0,0,0.1,0,0.2
		c0.2,0.1,0.4,0.3,0.6,0.4h0.2c0,0.1,0.1,0.2,0.2,0.2c0,0.1,0,0.2,0.1,0.2s0.1,0,0.1,0c0,0.2,0,0.4,0,0.5C74,48,74,48.1,74,48.2
		s0,0.2,0,0.3s0,0.2,0,0.3c-0.2,0.1-0.2,0.2-0.2,0.4c-0.1,0-0.1,0-0.2,0c-0.1,0.1-0.1,0.1-0.1,0.1h-0.1h-0.1c0,0,0,0-0.1,0.1
		s-0.1,0-0.1,0s0,0-0.1,0s-0.1,0.1-0.2,0.2c0,0-0.1,0-0.2-0.1c-0.1,0-0.1,0-0.1,0h-0.1c0-0.1,0-0.2-0.2-0.3h-0.1H72l-0.1-0.1
		c-0.1,0-0.1,0-0.1,0s0,0-0.1,0V49c-0.1-0.1-0.2-0.1-0.3-0.1c0,0-0.1,0-0.1,0.1c-0.1,0-0.2,0-0.3,0h-0.1h-0.1h-0.1h-0.1
		c0,0-0.1,0-0.2-0.1c0,0-0.1,0-0.1,0.1c-0.1,0-0.1,0-0.1,0h-0.1C70,49,70,49,70,49h-0.1h-0.1h-0.1h-0.1h-0.1c-0.1,0-0.1,0-0.2,0
		c-0.3,0-0.5,0.1-0.5,0.1v0.1v0.1h-0.1l-0.1-0.1c0,0-0.1,0-0.2,0.1c0,0,0,0-0.1,0c0,0,0,0-0.1,0c-0.1,0.1-0.2,0.1-0.4,0.1
		c-0.2,0-0.4,0.1-0.4,0.1v0.1c-0.1,0-0.1,0-0.1,0s0,0-0.1,0c0,0,0,0.1-0.1,0.1s-0.1,0-0.1,0s-0.1,0-0.2,0.1h-0.1c-0.1,0-0.1,0-0.2,0
		v0.1V50c0,0.1,0.1,0.2,0.1,0.2s0.1,0,0.2,0c0,0.1,0.1,0.1,0.2,0.2h0.1h0.1c0,0,0,0,0,0.1s0,0.1,0,0.1c0.1-0.1,0.2,0,0.3,0.1
		c0.1,0.1,0.2,0.1,0.2,0.1s0.1,0,0.2,0.1c0.1,0,0.2,0,0.2,0.1c0,0,0.1,0,0.1,0.1h0.1c0,0,0.1,0,0.1,0.1c0,0,0.1,0,0.1,0.1
		c0.3,0.1,0.4,0.1,0.5,0.2c0.1-0.1,0.2,0,0.3,0c0.1,0,0.1,0.1,0.1,0.1c0.1,0,0.1,0,0.2,0s0.2,0,0.2,0s0,0,0.1,0c0,0,0,0,0.1,0h0.1
		c0,0,0.1,0,0.1,0.1l0.1,0.1h0.1h0.1c0.2,0.1,0.3,0.2,0.4,0.2l0.1-0.1c0.1,0,0.1,0,0.2,0c0,0,0,0,0,0.1c0.1,0.1,0.2,0.1,0.2,0.1h0.1
		h0.1c0,0.1,0,0.2,0.1,0.2c0,0,0,0,0.1,0c0,0,0,0,0.1-0.1c0.2,0,0.3,0,0.3,0c0,0.1,0.1,0.1,0.2,0.2c0.1,0,0.2,0.1,0.2,0.1
		c0.2-0.1,0.4,0,0.5,0.1h0.1h0.1c0,0,0.1,0,0.1,0.1s0.1,0.1,0.1,0.1s0.1,0,0.1-0.1c0.1-0.1,0.1-0.1,0.2,0c0,0.1,0,0.1,0.1,0.2
		c0.1,0,0.2,0,0.2,0c0.1,0.1,0.1,0.1,0.1,0.1h0.1h0.1c0,0,0,0,0,0.1c0,0,0.1,0.1,0.2,0.1c0.1,0.1,0.2,0.1,0.3,0.2c0.1,0,0.1,0,0.2,0
		c0.1,0.1,0.1,0.1,0.2,0.1c0.1,0.2,0.1,0.3,0.2,0.3h0.1h0.1v0.1c0.1,0.1,0.2,0.2,0.3,0.3c0.2,0.2,0.3,0.3,0.4,0.3
		c0,0.1,0.1,0.1,0.1,0.2c0,0.1,0,0.1,0,0.2c0.1,0.1,0.2,0.3,0.3,0.5c0,0.1,0.1,0.1,0.1,0.2c0.1,0.1,0.1,0.2,0.1,0.2v0.1V56v0.1v0.1
		v0.1v0.1c0,0,0,0,0,0.1v0.1c0,0,0,0.1,0,0.3s0,0.2,0.1,0.3v0.1v0.1c0.1,0,0.1,0.1,0,0.3S77,58,77,58.1v0.1c0,0.1,0,0.1-0.1,0.2
		C76.8,58,76.8,58,76.7,58c0,0.1,0,0.1-0.1,0.3v0.1c-0.2,0.2-0.3,0.3-0.2,0.4c-0.1,0.2-0.3,0.3-0.4,0.4c0,0.2-0.1,0.3-0.2,0.4
		c-0.1,0.1-0.2,0.2-0.3,0.3c0,0.1,0,0.1-0.1,0.2v0.1h-0.1c0,0-0.1,0-0.1-0.1c-0.1,0-0.1,0.1,0,0.2c0,0-0.2,0.1-0.4,0.2v0.1
		c-0.2,0.1-0.3,0.2-0.3,0.2c-0.1,0-0.1,0.1-0.2,0.2c-0.1,0-0.2,0.1-0.3,0.2c-0.1,0.1-0.2,0.1-0.3,0.2v0.1c0,0.1,0,0.1,0,0.1
		s-0.1,0-0.1-0.1c0,0,0-0.1-0.1-0.1c0,0-0.1,0-0.2,0.1s-0.2,0.1-0.2,0.1c-0.1,0-0.1,0.1-0.1,0.1s-0.1,0-0.2,0s-0.1,0-0.2,0
		c-0.1,0.1-0.2,0.1-0.2,0c-0.1,0.1-0.2,0.2-0.2,0.2c-0.1,0.1-0.1,0.2-0.2,0.2s-0.1,0-0.1,0c-0.1,0-0.1,0-0.1,0.1s-0.1,0.1-0.1,0.1
		c-0.1,0-0.2,0-0.3,0.1c-0.1,0-0.2,0.1-0.2,0.1c-0.1,0-0.1,0-0.2,0s-0.1,0-0.1,0c-0.1,0-0.1,0-0.2,0.1c-0.1,0-0.1,0.1-0.2,0.1h-0.1
		c-0.1,0-0.1,0-0.1,0s0,0-0.1,0.1c0,0-0.2,0-0.4,0c0,0-0.1,0-0.1-0.1c-0.2-0.1-0.3-0.1-0.4,0c-0.1,0-0.1,0-0.1,0
		c-0.1,0.1-0.1,0.1-0.1,0.1c-0.1-0.1-0.2-0.1-0.4-0.1c-0.1,0-0.2,0-0.2,0c-0.1-0.1-0.1-0.1-0.1-0.1s0,0-0.1,0.1c-0.1,0-0.1,0-0.1,0
		v-0.1v-0.1c-0.1,0-0.1,0-0.2,0s-0.2,0-0.2,0s-0.1,0-0.2-0.1c0,0-0.1,0-0.2,0V62c0,0-0.1,0-0.2,0l0,0v-0.1c-0.1,0-0.1,0-0.2-0.1
		s-0.1-0.1-0.1-0.2c-0.1-0.1-0.2-0.1-0.2-0.2c0-0.1,0-0.1,0-0.1c-0.1-0.1-0.1-0.1-0.2-0.2c0-0.1,0-0.1,0-0.1s0,0-0.1,0
		c0,0,0,0-0.1,0c0-0.1,0-0.2-0.1-0.3s-0.2-0.1-0.3-0.2v-0.1v-0.1c0,0-0.1,0-0.1-0.1s-0.1-0.1-0.1-0.1c-0.1-0.1-0.2-0.1-0.2-0.2v-0.1
		v-0.1v-0.1c0,0,0-0.1-0.1-0.1v-0.1v-0.1c0-0.1,0-0.1-0.1-0.2c0-0.1-0.1-0.1-0.1-0.1c0-0.1,0-0.1,0.1-0.2c0-0.1,0.1-0.1,0.1-0.2
		c0,0,0,0,0.1,0c0,0,0,0,0.1,0c0,0,0-0.1-0.1-0.4c0.1,0,0.1,0,0.2,0c0.1-0.1,0.1-0.1,0-0.2c0,0,0.1-0.1,0.1-0.2
		c0.1-0.1,0.1-0.2,0.1-0.2s0.1,0,0.1,0.1c0.1,0,0.1,0,0.1-0.1s0-0.1,0-0.1c0-0.1,0.1-0.1,0.2-0.1s0.1,0,0.1,0s0,0,0.1-0.1
		c0,0,0.1-0.1,0.1,0s0.1,0,0.1,0.1h0.1h0.1c0.1,0.1,0.2,0.2,0.2,0.2c0.1,0,0.1,0,0.1,0h0.1c0.1,0.1,0.1,0.1,0.2,0.1s0.1,0.1,0.1,0.2
		c0.1,0,0.1,0.1,0.1,0.1c0,0.1,0.1,0.1,0.1,0.2c0.1,0.1,0.1,0.2,0.1,0.2c0.1,0,0.2,0.1,0.3,0.3s0.2,0.2,0.3,0.3v0.1v0.1l0.2,0.2h0.1
		c0.1,0,0.1,0,0.1,0s0,0.1,0.1,0.1c0,0,0,0,0.1,0s0.1,0,0.3,0c0.1,0,0.2,0,0.3,0c0,0,0.1,0,0.1,0.1l0.1,0.1c0.1,0,0.2,0,0.2,0
		c0.1-0.1,0.1-0.1,0.1-0.1s0,0,0.1,0s0.1,0,0.1,0s0.1,0,0.1-0.1c0.1,0,0.1,0,0.2,0h0.1c0.1,0,0.1,0,0.1,0s0,0,0.1,0l0,0
		c0,0,0,0,0.1,0h0.1c0,0,0,0,0.1-0.1h0.1c0.1,0,0.1,0,0.1-0.1c0,0,0,0,0.1,0c0,0,0,0,0.1,0s0.1,0,0.2,0s0.1-0.1,0.1-0.2
		c0,0,0.1,0,0.1,0.1c0,0,0.1,0,0.2-0.1s0.2-0.1,0.2-0.1c0.1-0.1,0.2-0.3,0.5-0.4c0.3-0.2,0.4-0.3,0.5-0.5c0.1-0.1,0.2-0.1,0.2-0.2
		c0.1,0,0.1-0.1,0.2-0.2c0.1-0.1,0.1-0.2,0.1-0.2v-0.1c0,0,0-0.1,0.1-0.1V57c0.1-0.1,0.1-0.1,0.2-0.1c0-0.1,0-0.2,0-0.4s0-0.3,0-0.4
		c0,0,0-0.1-0.1-0.1c0,0,0,0,0-0.1c0,0,0-0.1-0.1-0.2c0-0.1-0.1-0.1-0.2-0.1s-0.1-0.1-0.2-0.1c-0.1,0.1-0.1,0.1-0.2,0
		c0-0.1,0-0.1,0-0.1h-0.2c0,0,0,0,0-0.1v-0.1c0,0,0,0-0.1,0s-0.1,0-0.1,0s0,0-0.1-0.1c0,0,0-0.1-0.1-0.1c0,0-0.1,0-0.2,0
		s-0.2,0-0.3,0c-0.2-0.1-0.3-0.1-0.3,0v-0.1c0,0-0.1-0.1-0.4-0.1c-0.2-0.1-0.3-0.1-0.4-0.1c-0.2-0.2-0.4-0.2-0.8-0.3l0,0l0,0v-0.1
		c-0.1,0-0.1,0-0.2-0.1s-0.1-0.1-0.2-0.1c0,0,0,0.1-0.1,0.1c0,0,0,0.1-0.1,0.1c0,0,0-0.1-0.1-0.1s-0.1-0.1-0.2-0.1
		c-0.1-0.1-0.1-0.1-0.3,0c-0.1-0.1-0.1-0.2-0.1-0.2c-0.2,0.1-0.3,0.1-0.3,0c-0.1-0.1-0.2-0.1-0.4,0c0-0.1-0.1-0.2-0.1-0.2
		c-0.2,0-0.3,0-0.4-0.1c0,0-0.1,0-0.2,0c0,0,0,0-0.1,0l0,0c0,0,0,0-0.1,0s0,0-0.1,0c0,0,0,0-0.1,0c-0.2-0.1-0.4-0.1-0.5,0v-0.1
		c0,0,0-0.1-0.1-0.1h-0.1c0,0-0.1,0-0.1-0.1c0,0-0.1,0-0.1-0.1c0,0-0.1,0-0.2-0.1c-0.1,0-0.2-0.1-0.3-0.1c-0.1-0.1-0.1-0.1-0.1-0.1
		h-0.1h-0.1c0-0.1,0-0.2,0-0.2h-0.1h-0.1l0,0c0,0,0,0,0-0.1l0,0c0,0,0,0,0-0.1h-0.1h-0.1v-0.1l0,0c-0.1-0.1-0.1-0.1-0.2-0.1
		c-0.1-0.1-0.1-0.1-0.2-0.2h-0.1h-0.1c0-0.1-0.1-0.1-0.2-0.2c0-0.1-0.1-0.2-0.2-0.3s-0.2-0.2-0.2-0.3H64l-0.1-0.1c0-0.1,0-0.1,0-0.1
		c0.2,0.2,0.1,0,0.1-0.1c-0.1,0-0.1,0-0.2-0.1c-0.1-0.1-0.1-0.1-0.1-0.1s0-0.1,0-0.2c-0.2-0.1-0.3-0.3-0.4-0.4c0,0,0,0,0-0.1
		s0-0.1,0-0.2c0,0,0-0.1-0.1-0.1c0,0-0.1,0-0.1-0.1v-0.1c0,0,0-0.1,0-0.2c0-0.1,0-0.2,0-0.2v-0.1c0-0.1,0-0.1,0-0.1s0-0.1,0.1-0.2
		c0-0.1,0-0.1,0-0.2c0-0.1,0-0.1,0-0.1c0.1-0.1,0.2-0.2,0.4-0.4c0,0,0.1,0,0.2,0c0,0,0,0,0-0.1v-0.1c0,0,0.1,0,0.3-0.1
		c0.2-0.1,0.3-0.1,0.3-0.2c0.1,0,0.1,0,0.2,0c0,0,0.1-0.1,0.1-0.2c0,0,0,0,0.1,0c0,0,0.1,0,0.1-0.1l0.1-0.1c0.1,0,0.1,0,0.2,0
		s0.2-0.1,0.2-0.3c0.2,0,0.3,0,0.3-0.1c0.1,0,0.2,0,0.3,0c0.1,0,0.2,0,0.2,0c0.1,0,0.1,0,0.2-0.1s0.1-0.1,0.2-0.1s0.1,0,0.2,0h0.1
		c0.1,0,0.1-0.1,0.1-0.1s0.1,0,0.2,0c0,0,0.1,0,0.1-0.1l0.1-0.1c0.1,0,0.1,0,0.1,0s0.1-0.1,0.2-0.2c0.1,0,0.2,0,0.2-0.1v0.1
		C68,46,68.1,46,68.3,46c0.2,0,0.3,0,0.4,0h0.1l0.1-0.1c0.1,0,0.1,0,0.1,0s0.1,0,0.1-0.1l0.1-0.1c0.1,0,0.3,0,0.6,0
		c0.3,0,0.5,0,0.7,0c0.1,0,0.1,0,0.2,0s0.2,0,0.2,0s0.1,0,0.2,0s0.1,0,0.2,0c0,0,0.1,0.1,0.2,0.1C71.8,46.1,72,46.1,72.1,46.2z"/>
	<path fill="#BF9000" d="M86.2,42.8c0.5,0.1,0.8,0,0.8-0.2c0,0,0.1,0,0.4,0c0,0,0,0,0,0.1c0,0,0,0,0,0.1c0,0,0.1,0,0.2,0
		s0.1,0,0.1,0.1c0.1,0,0.2,0,0.4,0.1c0.4,0,0.7,0.1,0.8,0.2H89c0.1,0.1,0.2,0.1,0.3,0.2c0.1,0.1,0.2,0.2,0.3,0.2v0.1
		c0.2,0.1,0.3,0.3,0.4,0.7l0.1,0.1c0.1,0.2,0,0.3,0,0.4c0,0.1,0,0.2,0,0.3C90,45.3,90,45.3,90,45.4c-0.1,0.1-0.1,0.1-0.1,0.1
		c0,0.1,0,0.2-0.1,0.3c0,0.1,0,0.1,0,0.1L89.7,46c0,0,0,0-0.1,0c0,0,0,0-0.1,0c0,0,0,0.1-0.1,0.1s-0.1,0-0.2,0c0,0,0,0.1-0.1,0.1
		c0,0,0,0.1-0.1,0.1s-0.2,0-0.2,0c0,0.1,0,0.1,0,0.1s-0.1,0-0.2,0s-0.1,0-0.2,0h-0.1h-0.1c0,0,0-0.1,0.1-0.1l-0.1-0.1
		c0-0.1-0.1-0.1-0.1-0.1L88,46.2h-0.1c0-0.1,0-0.1-0.1-0.2c-0.1-0.1-0.1-0.1-0.2-0.1V46v0.1L87.5,46c0,0,0-0.1-0.1-0.1
		c0,0,0,0-0.1-0.1c0-0.2-0.2-0.2-0.5-0.2c-0.1,0-0.1,0-0.2,0.1c-0.1,0-0.1,0-0.2,0s-0.1,0-0.2,0l-0.1,0.1c-0.1,0-0.2,0-0.4,0
		c-0.3,0.1-0.4,0.1-0.5,0.2c-0.2-0.1-0.3-0.1-0.3,0c-0.1,0-0.2,0-0.3,0c-0.1,0-0.2,0-0.2,0v0.1c-0.1,0-0.2,0-0.2,0
		C84.1,46,84,46,84,46.1c0,0-0.1,0-0.1,0.1l-0.1,0.1c-0.1,0-0.1,0-0.2,0s-0.1,0-0.2,0c0,0-0.1,0-0.1,0.1h-0.1c-0.1,0-0.1,0-0.1,0
		v0.1c-0.3,0-0.4,0-0.5,0c0,0,0,0,0,0.1c0,0,0,0,0,0.1c-0.2-0.1-0.4-0.1-0.6,0.2c0,0-0.1,0-0.1-0.1c-0.1,0-0.1,0.1,0,0.2
		c0,0.1,0,0.1,0.1,0.1v0.1v0.1c0,0.1,0,0.1,0,0.1c0,0.1,0,0.2,0.1,0.2c0,0.1,0,0.2,0.1,0.3s0.1,0.2,0,0.3c0,0.1,0,0.2,0.1,0.3
		c0,0,0,0,0,0.1c0,0,0,0,0,0.1s0,0.1,0,0.2c0,0.1,0.1,0.1,0.1,0.1c0,0.6,0,0.9,0,0.9c-0.1,0.1-0.1,0.3,0,0.5c0,0,0,0.1,0,0.2
		c0,0,0,0.1-0.1,0.1c0,0.1,0,0.1,0,0.2c0.1,0.1,0.1,0.1,0.1,0.1v0.1v0.1c0,0.1,0,0.2,0,0.5c0,0.2,0,0.4,0,0.5c0,0,0,0.1,0,0.2
		c0,0.1,0.1,0.1,0.2,0.1s0.2-0.1,0.2-0.1c0.3,0,0.4,0,0.5-0.1c0.3,0,0.5,0,0.5,0c0.2,0,0.3,0,0.4,0c0,0,0.1,0,0.1-0.1
		c0.1,0,0.1-0.1,0.1-0.1s0.1,0,0.2,0c0.2,0,0.3,0,0.3-0.1c0.2,0.1,0.3,0,0.5,0h0.1h0.1h0.1c0.1,0,0.1,0,0.1,0c0.1,0,0.3,0,0.4,0
		v-0.1c0.1,0.1,0.2,0.1,0.4,0c0.2,0,0.3-0.1,0.3-0.1c0.1,0,0.1,0,0.2,0s0.1-0.1,0.1-0.1s0,0,0.1,0c0,0,0,0,0.1,0.1
		c0,0,0.1,0,0.2-0.1s0.2-0.1,0.2-0.1c0.1-0.1,0.1-0.1,0.1-0.1s0.1,0,0.1,0.1c0.2,0,0.4,0,0.4-0.1c0.1,0,0.1,0,0.2,0s0.1,0,0.2,0
		c0,0,0.1,0,0.2,0.1c0.1,0,0.2,0.1,0.2,0.1c0.1,0,0.2,0.1,0.2,0.2c0.1,0,0.1,0,0.2,0c0,0,0,0,0.1,0c0,0,0,0.1,0.1,0.1
		c0.2,0,0.3,0,0.4,0c0,0,0,0.1,0.1,0.2v0.1c0,0.1,0.1,0.1,0.2,0.3c0,0.2,0.1,0.3,0.2,0.4c0,0,0,0.1-0.1,0.1c0,0.1,0,0.2-0.1,0.3
		s-0.1,0.2-0.1,0.3h-0.1c0,0,0,0,0,0.1s0,0,0,0.1h-0.1l0,0h-0.1c0,0-0.1,0-0.1-0.1h-0.1c0,0-0.1,0-0.1,0.1h-0.1
		c0,0.1-0.1,0.1-0.3,0.2c-0.2,0.1-0.3,0.1-0.3,0.2c-0.2,0-0.4,0-0.6,0.2h-0.1c0,0,0,0-0.1,0.1c0,0,0,0,0,0.1c-0.1,0-0.1,0-0.2-0.1
		c0,0,0,0-0.1,0v0.1c-0.1,0-0.1,0-0.3,0c-0.1,0-0.2,0-0.3,0c0,0-0.1,0-0.1,0.1l-0.1,0.1c-0.1,0-0.2,0-0.2,0c-0.1,0-0.1,0.1-0.1,0.2
		C86.8,55,86.8,55,86.7,55s-0.2,0-0.2,0.1v0.1c-0.1,0-0.1,0-0.2,0c-0.1-0.1-0.1,0-0.2,0c0,0-0.1,0-0.2,0v0.2c-0.1,0-0.1,0-0.3,0
		c-0.1,0-0.1,0-0.2,0s-0.1,0.1,0,0.2l-0.2-0.1c0,0-0.2,0-0.4,0l-0.1,0.1l-0.1,0.1c-0.2,0-0.3,0-0.4,0l-0.1,0.2c-0.3,0-0.5,0-0.5,0
		c-0.1,0-0.1,0.1-0.2,0.1c0,0,0,0,0,0.1c-0.2,0.1-0.4,0.1-0.5,0c0,0-0.1,0-0.1,0.1l-0.1,0.1c0,0-0.1,0-0.1-0.1l-0.1-0.1
		c-0.1,0-0.1,0-0.2,0.1c-0.1,0-0.1,0-0.2,0s-0.1,0.2,0,0.5v0.1v0.1c0,0.1,0.1,0.1,0.2,0.1c0.1,0.1,0,0.2-0.1,0.2c0,0,0,0.1,0,0.2
		c0,0.1,0,0.2,0.1,0.2c0,0,0,0,0,0.1s0,0,0,0.1s0,0.1-0.1,0.3c0.1,0.1,0.1,0.2,0.1,0.5c0,0.2,0,0.4,0.1,0.6c-0.1,0.2-0.1,0.4,0,0.4
		c0,0.1,0,0.1,0,0.3V60v0.1c0.1,0.2,0.1,0.3,0.1,0.4c0.1,0.1,0.1,0.1,0.2,0.3c0.1,0.1,0.1,0.2,0.1,0.3c0.1,0,0.2,0,0.3,0.1
		c0.2,0,0.3,0,0.3,0s0.1,0,0.1-0.1c0.1,0,0.1,0,0.1,0.1c0.4,0,0.6-0.1,0.7-0.1s0.2,0,0.3,0c0.1,0,0.3,0,0.3,0
		c0.1-0.1,0.2-0.1,0.6-0.2c0,0,0,0,0-0.1v-0.1c0.1,0,0.1,0,0.2,0s0.1,0,0.2,0c0,0,0.1-0.1,0.2-0.1s0.2-0.1,0.2-0.1
		c0.2,0,0.3,0,0.5-0.1s0.3-0.2,0.5-0.2c0-0.1,0.1-0.1,0.1-0.1c0.2,0.1,0.3,0,0.3,0c0.2,0,0.4-0.1,0.5-0.3c0.1,0,0.2,0,0.2,0
		c0.1-0.1,0.2-0.1,0.3-0.1c0.4,0,0.7,0,0.8,0.1h0.1c0,0.1,0.1,0.3,0.2,0.4h0.1c0.1,0,0.1,0.1,0.2,0.2c0,0.1,0.1,0.2,0.2,0.3
		c0,0.1,0,0.1,0.1,0.2c0.1,0.1,0.1,0.1,0.1,0.2c0,0,0,0,0,0.1s0,0.1,0,0.2c-0.1,0.2-0.2,0.3-0.2,0.4c-0.1,0-0.2,0.1-0.3,0.2
		c-0.2,0-0.3,0.1-0.3,0.4h-0.1h-0.1c0,0-0.1,0.1-0.1,0.2h-0.1h-0.1c0,0-0.1,0-0.1,0.1c-0.2,0-0.3,0.1-0.3,0.2h-0.2
		c-0.1,0.2-0.3,0.2-0.4,0.1c0,0-0.1,0.1-0.1,0.2H88c-0.1-0.1-0.2-0.1-0.3,0c-0.1,0-0.1,0.1-0.1,0.2h-0.2c0,0,0,0,0,0.1v0.1
		c0,0-0.1-0.1-0.2-0.1s-0.2,0-0.3,0c0,0,0,0.1-0.1,0.1c0,0,0,0.1-0.1,0.1h-0.1h-0.1c0,0-0.1,0.1-0.1,0.2c-0.1-0.1-0.3,0-0.4,0
		c0,0,0,0,0,0.1c-0.1,0-0.2,0-0.3,0c-0.2,0-0.3,0.1-0.3,0.1h-0.1c0,0,0,0-0.1,0c0,0-0.1,0-0.2,0s-0.2,0-0.2,0.1s0,0.1,0,0.1
		s-0.1,0-0.2,0s-0.1,0-0.1,0s0-0.1-0.1-0.1c-0.3,0.1-0.4,0.1-0.4,0.1v0.1c-0.1,0-0.1,0-0.2,0l-0.1-0.1l-0.1,0.1h-0.1
		c0,0-0.1,0-0.2,0s-0.1,0-0.2,0c0-0.1,0-0.1,0-0.1H83c-0.1,0-0.1,0.1-0.1,0.2c-0.2,0-0.4,0-0.6,0c0-0.1,0-0.1-0.1-0.2
		c-0.1,0-0.1,0-0.2,0v0.1c0,0.1,0,0.1,0,0.1s0,0,0-0.1s0-0.1,0-0.1h-0.2v-0.1c-0.1-0.1-0.1-0.1-0.3-0.1C81.4,64,81.4,64,81.3,64
		c0,0-0.1,0-0.1-0.1c-0.1-0.1-0.1-0.1-0.1-0.2H81h-0.1v-0.1c0,0,0-0.1-0.1-0.1s-0.1,0-0.1,0h-0.1c0-0.1,0-0.2-0.2-0.3v-0.1
		c-0.1-0.1-0.2-0.2-0.3-0.2H80c-0.1-0.1-0.2-0.1-0.2-0.2c-0.1-0.1-0.1-0.2-0.2-0.3s-0.1-0.2-0.2-0.2c0.6-2,0.5-2.2,0.5-2.2
		c0-0.1,0-0.1-0.1-0.3c0-0.1,0-0.1,0-0.2c0-0.1,0-0.2,0-0.2c0-0.1,0-0.1-0.1-0.2V59v-0.1c0,0,0-0.1,0-0.3s0-0.3-0.1-0.3
		c0-0.1,0-0.2,0-0.3c0-0.2,0-0.3,0-0.3c0-0.4,0-0.9,0-1.7s0-1.3,0-1.7c0.1,0,0.2,0,0.1-0.1c0-0.1-0.1-0.2-0.1-0.2
		c0-0.1,0-0.2,0.1-0.3c0-0.1,0.1-0.2,0.1-0.2c-0.1-0.1-0.1-0.1-0.1-0.2c0-0.1,0-0.1,0.1-0.1c0-0.1,0-0.6,0-1.5
		c0.1,0,0.1-0.1,0.1-0.1c0-0.1,0-0.1-0.1-0.2c0.1,0,0.1-0.1,0-0.2c0-0.1,0-0.2,0-0.3v-0.1c0.1-0.1,0-0.2,0-0.2c0-0.1,0-0.2,0-0.5
		s0-0.4-0.1-0.4c0.1,0,0.1-0.2,0.1-0.4s0-0.3,0-0.4l-0.2-0.1c0-0.2,0-0.3,0.1-0.3l-0.1-0.1v-0.1c0-0.3,0-0.4,0-0.5c0,0,0,0-0.1,0
		c0,0,0,0-0.1,0c0-0.3,0-0.5,0-0.7c-0.1,0-0.1,0-0.1,0s0-0.1,0-0.2v-0.1v-0.1v-0.1v-0.1l-0.1-0.1c-0.1-0.1-0.1-0.2,0-0.3L79.1,46
		c0,0,0-0.1,0-0.2c-0.1,0-0.1-0.1-0.2-0.2c0-0.1,0-0.2,0-0.2c0-0.1,0-0.1,0-0.2c-0.1-0.1,0-0.2,0-0.3c0.1-0.1,0.1-0.2,0.1-0.3
		c0,0,0.1-0.1,0.2-0.2c0.1-0.1,0.1-0.2,0.2-0.2l0,0v-0.1l0.1,0.1c0,0,0.1,0,0.2,0s0.2,0,0.2,0c0.1,0,0.1,0,0.2-0.1s0.1-0.1,0.1-0.1
		c0.1,0,0.1,0,0.2,0s0.2,0,0.2,0h0.1h0.1c0.2,0,0.3,0,0.4-0.1c0.4-0.1,0.6-0.1,0.6-0.2H82c0,0,0,0,0.1,0c0,0,0,0,0.1,0
		c0,0,0.1,0,0.2,0s0.1,0,0.2-0.1s0.1-0.1,0.2-0.1c0,0,0-0.1,0-0.2c0.1,0,0.1,0,0.1,0s0,0,0,0.1v0.1c0.2-0.1,0.4-0.1,0.4-0.2
		c0.1,0,0.1,0,0.2,0.1l0.3-0.1c0,0,0.1-0.1,0.3-0.2c0,0.1,0.1,0.1,0.1,0.2c0,0,0.1,0,0.2-0.1c0.1,0,0.1,0,0.2,0s0.1,0,0.1,0
		s0.1,0,0.1-0.1c0,0,0.1,0,0.2,0s0.1,0,0.2,0c0.2,0,0.3-0.1,0.4-0.1h0.1c0.1,0,0.1,0,0.1-0.1c0.1,0,0.1,0,0.2,0
		C86,42.9,86.1,42.9,86.2,42.8c0.1,0,0.1,0,0.2,0C86.1,42.9,86.1,42.9,86.2,42.8C86.2,42.9,86.2,42.9,86.2,42.8L86.2,42.8z M87,42.7
		c0,0,0.1,0,0.2,0s0.2,0,0.2,0l0,0c0,0,0,0,0,0.1c0,0,0.1,0,0.2,0s0.1,0,0.1,0.1c0.1,0,0.2,0,0.4,0.1c0.4,0,0.7,0.1,0.8,0.2H89
		c0.1,0.1,0.2,0.1,0.3,0.2c0.1,0.1,0.2,0.2,0.3,0.2v0.1c0.2,0.1,0.3,0.3,0.4,0.7h0.1l0,0c0.1,0.2,0,0.3,0,0.4c0,0.1,0,0.2,0,0.3
		C90,45.2,90,45.2,90,45.3c-0.1,0.1-0.1,0.1-0.1,0.1c0,0.1,0,0.2-0.1,0.3c0,0.1,0,0.1,0,0.1l-0.1,0.1c0,0,0,0-0.1,0c0,0,0,0-0.1,0
		c0,0,0,0.1-0.1,0.1s-0.1,0-0.2,0c0,0,0,0.1-0.1,0.1c0,0,0,0.1-0.1,0.1s-0.2,0-0.2,0c0,0.1,0,0.1,0,0.1s-0.1,0-0.2,0s-0.1,0-0.2,0
		h-0.1h-0.1c0,0,0-0.1,0.1-0.1l-0.1-0.1c0-0.1-0.1-0.1-0.1-0.1L88,46.1h-0.1c0-0.1,0-0.1-0.1-0.2c-0.1-0.1-0.1-0.1-0.2-0.1v0.1V46
		l-0.1-0.1c0,0,0-0.1-0.1-0.1c0,0,0,0-0.1-0.1c0-0.2-0.2-0.2-0.5-0.2c-0.1,0-0.1,0-0.2,0.1c-0.1,0-0.1,0-0.2,0s-0.1,0-0.2,0
		l-0.1,0.1c-0.1,0-0.2,0-0.4,0c-0.3,0.1-0.4,0.1-0.5,0.2c-0.2-0.1-0.3-0.1-0.3,0c-0.1,0-0.2,0-0.3,0c-0.1,0-0.2,0-0.2,0V46
		c-0.1,0-0.2,0-0.2,0c-0.1-0.1-0.2-0.1-0.2,0c0,0-0.1,0-0.1,0.1l-0.1,0.1c-0.1,0-0.1,0-0.2,0s-0.1,0-0.2,0c0,0-0.1,0-0.1,0.1h-0.1
		c-0.1,0-0.1,0-0.1,0v0.1c-0.3,0-0.4,0-0.5,0c0,0,0,0,0,0.1c0,0,0,0,0,0.1c-0.2-0.1-0.4-0.1-0.6,0.2c0,0-0.1,0-0.1-0.1
		c-0.1,0-0.1,0.1,0,0.2c0,0.1,0,0.1,0.1,0.1v0.1v0.1c0,0.1,0,0.1,0,0.1c0,0.1,0,0.2,0.1,0.2c0,0.1,0,0.2,0.1,0.3s0.1,0.2,0,0.3
		c0,0.1,0,0.2,0.1,0.3c0,0,0,0,0,0.1c0,0,0,0,0,0.1s0,0.1,0,0.2c0,0.1,0.1,0.1,0.1,0.1c0,0.6,0,0.9,0,0.9c-0.1,0.1-0.1,0.3,0,0.5
		c0,0,0,0.1,0,0.2c0,0,0,0.1-0.1,0.1c0,0.1,0,0.1,0,0.2c0.1,0.1,0.1,0.1,0.1,0.1V51v0.1c0,0.1,0,0.2,0,0.5c0,0.2,0,0.4,0,0.5
		c0,0,0,0.1,0,0.2c0,0.1,0.1,0.1,0.2,0.1s0.2-0.1,0.2-0.1c0.3,0,0.4,0,0.5-0.1c0.3,0,0.5,0,0.5,0c0.2,0,0.3,0,0.4,0
		c0,0,0.1,0,0.1-0.1c0.1,0,0.1-0.1,0.1-0.1s0.1,0,0.2,0c0.2,0,0.3,0,0.3-0.1c0.2,0.1,0.3,0,0.5,0h0.1h0.1h0.1c0.1,0,0.1,0,0.1,0
		c0.1,0,0.3,0,0.4,0v-0.1c0.1,0.1,0.2,0.1,0.4,0c0.2,0,0.3-0.1,0.3-0.1c0.1,0,0.1,0,0.2,0s0.1-0.1,0.1-0.1s0,0,0.1,0
		c0,0,0,0,0.1,0.1c0,0,0.1,0,0.2-0.1s0.2-0.1,0.2-0.1c0.1-0.1,0.1-0.1,0.1-0.1s0.1,0,0.1,0.1c0.2,0,0.4,0,0.4-0.1c0.1,0,0.1,0,0.2,0
		s0.1,0,0.2,0c0,0,0.1,0,0.2,0.1c0.1,0,0.2,0.1,0.2,0.1c0.1,0,0.2,0.1,0.2,0.2c0.1,0,0.1,0,0.2,0c0,0,0,0,0.1,0c0,0,0,0.1,0.1,0.1
		c0.2,0,0.3,0,0.4,0c0,0,0,0.1,0.1,0.2v0.1c0,0.1,0.1,0.1,0.2,0.3c0,0.2,0.1,0.3,0.2,0.4c0,0,0,0.1-0.1,0.1c0,0.1,0,0.2-0.1,0.3
		s-0.1,0.2-0.1,0.3h-0.1c0,0,0,0,0,0.1s0,0,0,0.1h-0.1l0,0h-0.1c0,0-0.1,0-0.1-0.1h-0.1c0,0-0.1,0-0.1,0.1h-0.1
		c0,0.1-0.1,0.1-0.3,0.2c-0.2,0.1-0.3,0.1-0.3,0.2c-0.2,0-0.4,0-0.6,0.2h-0.1c0,0,0,0-0.1,0.1c0,0,0,0,0,0.1c-0.1,0-0.1,0-0.2-0.1
		c0,0,0,0-0.1,0v0.1c-0.1,0-0.1,0-0.3,0c-0.1,0-0.2,0-0.3,0c0,0-0.1,0-0.1,0.1l-0.1,0.1c-0.1,0-0.2,0-0.2,0c-0.1,0-0.1,0.1-0.1,0.2
		c-0.1-0.1-0.1-0.1-0.2-0.1s-0.2,0-0.2,0.1v0.1c-0.1,0-0.1,0-0.2,0c-0.1-0.1-0.1,0-0.2,0c0,0-0.1,0-0.2,0v0.2c-0.1,0-0.1,0-0.3,0
		c-0.1,0-0.1,0-0.2,0s-0.1,0.1,0,0.2l-0.2-0.1c0,0-0.2,0-0.4,0l-0.1,0.1l-0.1,0.1c-0.2,0-0.3,0-0.4,0l-0.1,0.2c-0.3,0-0.5,0-0.5,0
		c-0.1,0-0.1,0.1-0.2,0.1c0,0,0,0,0,0.1c-0.2,0.1-0.4,0.1-0.5,0c0,0-0.1,0-0.1,0.1l-0.1,0.1c0,0-0.1,0-0.1-0.1L82.5,56
		c-0.1,0-0.1,0-0.2,0.1c-0.1,0-0.1,0-0.2,0s-0.1,0.2,0,0.5v0.1v0.1c0,0.1,0.1,0.1,0.2,0.1c0.1,0.1,0,0.2-0.1,0.2c0,0,0,0.1,0,0.2
		c0,0.1,0,0.2,0.1,0.2c0,0,0,0,0,0.1s0,0,0,0.1s0,0.1-0.1,0.3c0.1,0.1,0.1,0.2,0.1,0.5c0,0.2,0,0.4,0.1,0.6c-0.1,0.2-0.1,0.4,0,0.4
		c0,0.1,0,0.1,0,0.3v0.1V60c0.1,0.2,0.1,0.3,0.1,0.4c0.1,0.1,0.1,0.1,0.2,0.3c0.1,0.1,0.1,0.2,0.1,0.3c0.1,0,0.2,0,0.3,0.1
		c0.2,0,0.3,0,0.3,0s0.1,0,0.1-0.1c0.1,0,0.1,0,0.1,0.1c0.4,0,0.6-0.1,0.7-0.1s0.2,0,0.3,0c0.1,0,0.3,0,0.3,0
		c0.1-0.1,0.2-0.1,0.6-0.2c0,0,0,0,0-0.1v-0.1c0.1,0,0.1,0,0.2,0s0.1,0,0.2,0c0,0,0.1-0.1,0.2-0.1s0.2-0.1,0.2-0.1
		c0.2,0,0.3,0,0.5-0.1s0.3-0.2,0.5-0.2c0-0.1,0.1-0.1,0.1-0.1c0.2,0.1,0.3,0,0.3,0c0.2,0,0.4-0.1,0.5-0.3c0.1,0,0.2,0,0.2,0
		c0.1-0.1,0.2-0.1,0.3-0.1c0.4,0,0.7,0,0.8,0.1h0.1c0,0.1,0.1,0.3,0.2,0.4h0.1c0.1,0,0.1,0.1,0.2,0.2c0,0.1,0.1,0.2,0.2,0.3
		c0,0.1,0,0.1,0.1,0.2c0.1,0.1,0.1,0.1,0.1,0.2c0,0,0,0,0,0.1s0,0.1,0,0.2c-0.1,0.2-0.2,0.3-0.2,0.4c-0.1,0-0.2,0.1-0.3,0.2
		c-0.2,0-0.3,0.1-0.3,0.4h-0.1h-0.1c0,0-0.1,0.1-0.1,0.2h-0.1h-0.1c0,0-0.1,0-0.1,0.1c-0.2,0-0.3,0.1-0.3,0.2h-0.2
		c-0.1,0.2-0.3,0.2-0.4,0.1c0,0-0.1,0.1-0.1,0.2H88c-0.1-0.1-0.2-0.1-0.3,0c-0.1,0-0.1,0.1-0.1,0.2h-0.2c0,0,0,0,0,0.1v0.1
		c0,0-0.1-0.1-0.2-0.1s-0.2,0-0.3,0c0,0,0,0.1-0.1,0.1c0,0,0,0.1-0.1,0.1h-0.1h-0.1c0,0-0.1,0.1-0.1,0.2c-0.1-0.1-0.3,0-0.4,0
		c0,0,0,0,0,0.1c-0.1,0-0.2,0-0.3,0c-0.2,0-0.3,0.1-0.3,0.1h-0.1c0,0,0,0-0.1,0c0,0-0.1,0-0.2,0s-0.2,0-0.2,0.1s0,0.1,0,0.1
		s-0.1,0-0.2,0s-0.1,0-0.1,0s0-0.1-0.1-0.1c-0.3,0.1-0.4,0.1-0.4,0.1v0.1c-0.1,0-0.1,0-0.2,0l-0.1-0.1l-0.1,0.1h-0.1
		c0,0-0.1,0-0.2,0s-0.1,0-0.2,0c0-0.1,0-0.1,0-0.1H83c-0.1,0-0.1,0.1-0.1,0.2c-0.2,0-0.4,0-0.6,0c0-0.1,0-0.1-0.1-0.2
		c-0.1,0-0.1,0-0.2,0v0.1c0,0.1,0,0.1,0,0.1s0,0,0-0.1s0-0.1,0-0.1h-0.2v-0.1C81.7,64,81.7,64,81.5,64c-0.1-0.1-0.1-0.1-0.2-0.1
		c0,0-0.1,0-0.1-0.1c-0.1-0.1-0.1-0.1-0.1-0.2H81h-0.1v-0.1c0,0,0-0.1-0.1-0.1s-0.1,0-0.1,0h-0.1c0-0.1,0-0.2-0.2-0.3V63
		c-0.1-0.1-0.2-0.2-0.3-0.2H80c-0.1-0.1-0.2-0.1-0.2-0.2c-0.1-0.1-0.1-0.2-0.2-0.3s-0.1-0.2-0.2-0.2c0.6-1.9,0.5-2.1,0.5-2.1
		c0-0.1,0-0.1-0.1-0.3c0-0.1,0-0.1,0-0.2c0-0.1,0-0.2,0-0.2s0-0.1-0.1-0.1v-0.1V59c0,0,0-0.1,0-0.3s0-0.3-0.1-0.3c0-0.1,0-0.2,0-0.3
		c0-0.2,0-0.3,0-0.3c0-0.4,0-0.9,0-1.7s0-1.3,0-1.7c0.1,0,0.2,0,0.1-0.1c0-0.1-0.1-0.2-0.1-0.2c0-0.1,0-0.2,0.1-0.3
		c0-0.1,0.1-0.2,0.1-0.2c-0.1-0.1-0.1-0.1-0.1-0.2c0-0.1,0-0.1,0.1-0.1c0-0.1,0-0.6,0-1.5c0.1,0,0.1-0.1,0.1-0.1
		c0-0.1,0-0.1-0.1-0.2c0.1,0,0.1-0.1,0-0.2c0-0.1,0-0.2,0-0.3v-0.1c0.1-0.1,0-0.1,0-0.2c0-0.1,0-0.2,0-0.5s0-0.4-0.1-0.4
		c0.1,0,0.1-0.2,0.1-0.4s0-0.3,0-0.4l-0.2-0.1c0-0.2,0-0.3,0.1-0.3l-0.1-0.1v-0.1c0-0.3,0-0.4,0-0.5c0,0,0,0-0.1,0c0,0,0,0-0.1,0
		c0-0.3,0-0.5,0-0.7c-0.1,0-0.1,0-0.1,0s0-0.1,0-0.2v-0.1v-0.1v-0.1v-0.1l-0.1-0.1c-0.1-0.1-0.1-0.2,0-0.3l-0.1-0.1c0,0,0-0.1,0-0.2
		c-0.1,0-0.1-0.1-0.2-0.2c0-0.1,0-0.2,0-0.2c0-0.1,0-0.1,0-0.2c-0.1-0.1,0-0.2,0-0.3c0.1-0.1,0.1-0.2,0.1-0.3c0,0,0.1-0.1,0.2-0.2
		c0.1-0.1,0.1-0.2,0.2-0.2l0,0v-0.1l0.1,0.1c0,0,0.1,0,0.2,0s0.2,0,0.2,0c0.1,0,0.1,0,0.2-0.1s0.1-0.1,0.1-0.1c0.1,0,0.1,0,0.2,0
		s0.2,0,0.2,0h0.1h0.1c0.2,0,0.3,0,0.4-0.1c0.4-0.1,0.6-0.1,0.6-0.2H82c0,0,0,0,0.1,0c0,0,0,0,0.1,0c0,0,0.1,0,0.2,0s0.1,0,0.2-0.1
		s0.1-0.1,0.2-0.1c0,0,0-0.1,0-0.2c0.1,0,0.1,0,0.1,0s0,0,0,0.1v0.1c0.2-0.1,0.4-0.1,0.4-0.2c0.1,0,0.1,0,0.2,0.1l0.3-0.1
		c0,0,0.1-0.1,0.3-0.2c0,0.1,0.1,0.1,0.1,0.2c0,0,0.1,0,0.2-0.1c0.1,0,0.1,0,0.2,0s0.1,0,0.1,0s0.1,0,0.1-0.1c0,0,0.1,0,0.2,0
		s0.1,0,0.2,0c0.2,0,0.3-0.1,0.4-0.1h0.1c0.1,0,0.1,0,0.1-0.1c0.1,0,0.1,0,0.2,0c0,0,0.1,0,0.2-0.1c0.1,0,0.1,0,0.2,0s0.1,0,0.1,0
		l0,0l0,0C86.7,42.9,87,42.8,87,42.7z"/>
</g>
</svg>
