<?xml version="1.0" encoding="utf-8"?>
<!-- Generator: Adobe Illustrator 19.0.1, SVG Export Plug-In . SVG Version: 6.00 Build 0)  -->
<svg version="1.1" id="Layer_1" xmlns="http://www.w3.org/2000/svg" xmlns:xlink="http://www.w3.org/1999/xlink" x="0px" y="0px"
	 viewBox="0 0 100 100" enable-background="new 0 0 100 100" xml:space="preserve">
<g id="Layer_1_1_">
	<g>
		<path fill="#BF9000" d="M43.2,81.3c-12.2-8-18.5-29.2-12.5-42.6c7.5-16.8,28.7-13.6,38.9-1.3c2.1,2.5,6.9,0.5,6.6-2.7
			c-0.4-5.4-1.9-10.3-2.6-15.6c-2.9,0.4-5.8,0.8-8.7,1.2c0.9,5.3,2.9,10.1,4.2,15.3c1.1-1.9,2.2-3.8,3.3-5.8
			c-5,0.9-9.1,1.5-13.3,4.4c-6.3,4.2,0.5,13.2,6.4,8.3c2.9-1.8,6.1-3.1,9.4-3.6c2.5-0.6,3.9-3.4,3.3-5.8c-1.4-5.2-3.6-9.9-4.7-15.2
			c-1.1-5.7-9.4-3.2-8.6,2.4c0.8,5.3,2.7,10.2,3.7,15.5c2.2-1.3,4.3-2.5,6.5-3.8C61.2,16.7,34,15.5,24.8,36.2
			c-5.2,11.7-2.2,25.3,2.2,36.7c2.9,7.3,7.9,16.5,16.3,10.3C43.8,82.7,43.9,81.8,43.2,81.3L43.2,81.3z"/>
	</g>
</g>
<g id="Layer_2" display="none">
	<circle display="inline" fill="none" stroke="#231F20" stroke-miterlimit="10" cx="50" cy="50" r="50"/>
</g>
</svg>
