<?xml version="1.0" encoding="utf-8"?>
<!-- Generator: Adobe Illustrator 19.0.1, SVG Export Plug-In . SVG Version: 6.00 Build 0)  -->
<svg version="1.1" id="Layer_1" xmlns="http://www.w3.org/2000/svg" xmlns:xlink="http://www.w3.org/1999/xlink" x="0px" y="0px"
	 viewBox="0 0 100 100" enable-background="new 0 0 100 100" xml:space="preserve">
<g id="Layer_1_1_">
	<g>
		<g>
			<path fill="#BF9000" d="M38.8,45.1H23.3c-2.2,0-4-1.8-4-4l-0.6-7.8c0-2.3,2.5-4.2,4.6-4.2l14.1-1l0,0c2.1,0,3.5,0.4,4.4,1.3
				c1,1,1,2.3,1,3.4v0.3v8C42.8,43.3,41,45.1,38.8,45.1z M37.5,29.3l-14.1,1c-1.5,0-3.4,1.4-3.4,2.9l0.6,7.8c0,1.5,1.2,2.8,2.7,2.8
				h15.4c1.5,0,2.7-1.2,2.7-2.7v-8.3c0-0.9,0-1.9-0.6-2.5C40.3,29.6,39.2,29.3,37.5,29.3z"/>
		</g>
		<g>
			<path fill="#BF9000" d="M77.1,52.4H60.3c-0.7,0-1.3-0.3-1.9-1c-1.2-1.4-2-4.1-1.7-6.4l1-4.7c0-2.2,1.8-3.9,4-3.9l12.7-1.3l0,0
				c4.9,0,6.7,2.7,6.7,5.2v8C81.1,50.6,79.3,52.4,77.1,52.4z M74.5,36.4l-12.7,1.3c-1.6,0-2.8,1.2-2.8,2.7v0.1l-1,4.7
				c-0.2,1.9,0.4,4.2,1.4,5.4c0.2,0.2,0.6,0.5,0.9,0.5h16.9c1.5,0,2.7-1.2,2.7-2.7v-8C79.8,39.2,79.3,36.4,74.5,36.4z"/>
		</g>
		<g>
			<path fill="#BF9000" d="M49.5,75.6c-0.2,0-0.3,0-0.5,0l0,0l-11-0.4l0,0c-2.2,0-4-1.8-4-4V64c0-0.7,0.1-3,1.8-4.3
				c1-0.8,2.3-1,3.8-0.6h13.8c2.2,0,4,1.8,4,4v8c0,0.8-0.4,1.7-1.1,2.4C54.9,74.8,52.5,75.6,49.5,75.6z M49,74.3
				c2.9,0.1,5.2-0.6,6.4-1.7c0.5-0.5,0.7-1,0.7-1.4v-8c0-1.5-1.2-2.7-2.7-2.7H39.3c-1.2-0.3-2.2-0.2-2.8,0.3
				c-0.9,0.7-1.3,2.2-1.3,3.3v7.1c0,1.5,1.2,2.7,2.7,2.7L49,74.3z"/>
		</g>
	</g>
</g>
<g id="Layer_2" display="none">
	<circle display="inline" fill="none" stroke="#231F20" stroke-miterlimit="10" cx="50" cy="50" r="50"/>
</g>
</svg>
