<?xml version="1.0" encoding="utf-8"?>
<!-- Generator: Adobe Illustrator 19.0.1, SVG Export Plug-In . SVG Version: 6.00 Build 0)  -->
<svg version="1.1" id="Layer_1" xmlns="http://www.w3.org/2000/svg" xmlns:xlink="http://www.w3.org/1999/xlink" x="0px" y="0px"
	 viewBox="0 0 100 100" enable-background="new 0 0 100 100" xml:space="preserve">
<g>
	<path fill="#BF9000" d="M22.3,30.1C22.4,30.1,22.4,30.1,22.3,30.1c0,0.1,0,0.1,0,0.1c0.2,0,0.3,0,0.3-0.1c0.1,0,0.1,0,0.2,0
		s0.2,0,0.2,0c0,0.1,0.1,0.1,0.2,0.1s0.2,0,0.3-0.1h0.1c0.1,0,0.1,0,0.2,0h-0.1h0.1c0.1,0,0.1,0,0.1,0s0.1,0,0.1-0.1h0.1l0,0l0,0
		c0.1,0,0.1,0,0.3-0.1c0,0.1,0,0.1,0.1,0.2c0.1,0,0.1,0,0.2-0.1c0,0,0,0,0.1,0c0,0,0,0,0.1,0c0.3,0,0.4,0.1,0.5,0.1
		c0,0,0.1,0,0.1-0.1s0.1-0.1,0.1-0.1V30c0,0.1,0,0.1,0.1,0.1c0,0,0.1,0,0.2,0s0.1,0,0.2,0s0.3,0,0.5,0s0.4,0,0.4,0v0.1
		c0.1,0.1,0.1,0.1,0.2,0.1s0.2,0,0.2,0h0.1h0.1c0.1,0,0.2,0,0.3,0c0,0.1,0.1,0.1,0.1,0.1c0.2,0,0.3,0,0.3,0.1c0.1,0,0.2,0.1,0.4,0.3
		h0.1c0.1,0.1,0.1,0.1,0.2,0.2s0.2,0.1,0.2,0.2c0,0,0.1,0,0.2,0c0,0.2,0.1,0.3,0.3,0.4V32c0.1,0.1,0.2,0.3,0.3,0.5
		c0,0,0,0.1,0.1,0.1c0.1,0.1,0,0.2,0,0.3c0.1,0.3,0.1,0.5,0.1,0.6c0,0.5-0.1,0.7-0.2,0.8c0,0.1,0,0.2,0,0.3
		c-0.1,0.1-0.1,0.2-0.1,0.3c-0.1,0-0.1,0.1-0.1,0.2c0,0.1,0,0.1,0,0.1v0.1c0,0,0,0,0,0.1c0,0,0,0,0,0.1s0,0.1,0,0.1
		c-0.1,0.2-0.1,0.3-0.1,0.3c-0.1,0.1-0.2,0.2-0.3,0.4c-0.1,0.2-0.2,0.3-0.3,0.4v0.1c-0.1,0.1-0.2,0.2-0.3,0.3
		c-0.1,0.2-0.2,0.3-0.3,0.3v0.1c0,0.1-0.1,0.1-0.2,0.1c0,0.1-0.1,0.2-0.2,0.3s-0.2,0.2-0.2,0.3h-0.1c-0.1,0.1-0.1,0.2-0.3,0.3
		c-0.1,0.1-0.2,0.2-0.2,0.3h-0.1L27,39c0,0.1-0.1,0.2-0.2,0.3s-0.2,0.2-0.2,0.2c0,0.1-0.1,0.2-0.3,0.3c-0.1,0.1-0.1,0.1-0.1,0.1
		c-0.1,0-0.1,0.1-0.2,0.1c-0.1,0.1-0.1,0.1-0.1,0.1l0,0c0,0,0,0-0.1,0c-0.2,0.2-0.3,0.4-0.3,0.4c-0.1,0.1-0.2,0.2-0.4,0.4
		c-0.2,0.2-0.3,0.4-0.4,0.5v0.1c0,0.1,0,0.1,0,0.2c0,0-0.1,0-0.2-0.1c-0.2,0.2-0.4,0.4-0.4,0.5c-0.2,0.1-0.3,0.2-0.3,0.3
		c-0.1,0-0.1,0.1-0.2,0.1c-0.1,0.1-0.1,0.1-0.2,0.1c-0.1,0.1-0.1,0.2-0.3,0.3c-0.1,0.1-0.2,0.2-0.3,0.2l0,0v0.1
		c-0.1,0-0.1,0.1-0.2,0.2c-0.1,0.1-0.2,0.2-0.3,0.2c-0.1,0.1-0.1,0.2-0.1,0.2c-0.1,0-0.1,0.1-0.1,0.1C22.1,44,22,44,22,44
		c-0.1,0-0.1,0-0.2,0.1v0.1l-0.1,0.1l-0.1,0.1c0,0.1,0,0.1-0.1,0.2c-0.1,0.1-0.1,0.1-0.1,0.2c0,0,0.1,0,0.2,0s0.2,0,0.2,0s0,0,0.1,0
		H22c0,0.1,0.1,0.1,0.1,0.1c0.2,0,0.3,0,0.3,0s0.1,0,0.1-0.1c0.1,0,0.1,0,0.1,0s0.1,0,0.1,0.1h0.1c0.1,0,0.1,0,0.1,0H23
		c0,0,0.1,0,0.1-0.1s0.1,0,0.1,0h0.1c0.1,0,0.1,0,0.2-0.1s0.1-0.1,0.1-0.1c0.1,0,0.1,0,0.2,0s0.1,0,0.1,0H24c0.1,0,0.1,0,0.2,0
		c0.1-0.1,0.1-0.1,0.2-0.1s0.2,0,0.2,0h0.1c0.2,0,0.4,0,0.6,0c0.3,0,0.5,0,0.6,0s0.1,0,0.1,0c0.1,0.1,0.2,0.1,0.3,0
		c0.1,0,0.3,0,0.5,0s0.5,0,0.6,0c0.1,0.1,0.1,0.1,0.1,0.1s0,0,0.1,0h0.1c0,0,0.1,0,0.2,0s0.2,0,0.2,0c0.2,0,0.3,0,0.3,0
		c0.2,0,0.2,0,0.3,0c0,0,0,0,0.1,0c0,0,0,0,0.1,0c0,0,0,0,0.1,0s0.1,0,0.1,0h0.1h0.1c0.4,0,0.7,0,0.7,0c0-0.1,0-0.1,0-0.1h0.2v0.1
		c0.2,0.1,0.3,0.1,0.4,0h0.1h0.1c0,0,0.1,0,0.1,0.1c0.1,0,0.1,0.1,0.1,0.1h0.1h0.1c0.2,0.1,0.3,0.1,0.3-0.1c0,0,0.1,0,0.2,0.1
		c0.1,0,0.2,0,0.2,0s0.1,0,0.2,0s0.1,0,0.2,0c0,0,0.1,0,0.2,0c0.1,0,0.1,0,0.2,0c0.1,0,0.2,0,0.4,0s0.3,0,0.4,0c0.1,0,0.2,0,0.2-0.1
		c0,0,0.1,0,0.1,0.1c0,0,0.1,0,0.1,0.1c0.5,0,0.7,0,0.8-0.1h0.1c0,0,0,0,0-0.1c0.1,0,0.2,0,0.3,0s0.2,0,0.3,0h0.1l0.1-0.1
		c0.1,0.1,0.2,0.1,0.3,0c0,0,0,0.1,0.1,0.1c0.1,0.1,0.1,0.1,0.2,0.2c0.1,0,0.1,0,0.1,0h0.1c0,0,0,0,0,0.1c0.1,0.1,0.2,0.1,0.3,0.2
		c0,0.1,0.1,0.1,0.2,0.2c0.1,0.1,0.2,0.2,0.2,0.2c0.1,0.1,0.1,0.2,0.1,0.3h0.1V46c0,0.1,0,0.1,0,0.2c0,0.1,0,0.1,0,0.2
		c0,0,0,0.1-0.1,0.1l-0.1,0.1c0,0,0,0.1,0,0.2c0,0.1,0,0.1,0,0.2C37,47.2,37,47.3,37,47.3l-0.1,0.1l-0.1,0.1c0,0-0.1,0-0.3,0.1
		c-0.2-0.1-0.3,0-0.3,0.2H36C35.9,47,35.8,47,35.8,47c-0.1,0-0.1,0-0.1,0.1c-0.1,0-0.2,0-0.3,0v0.1c0,0-0.1,0-0.2-0.1
		c-0.1-0.1-0.2,0-0.2,0.1c0,0-0.1,0-0.1-0.1h-0.1c-0.1,0-0.1,0-0.2,0c0,0.1,0,0.1,0,0.1c-0.1-0.1-0.1-0.2-0.2-0.2
		c-0.1,0-0.2,0-0.4,0.1c-0.2,0-0.4,0-0.4,0.1l0,0c0-0.1-0.1-0.1-0.2-0.1c-0.2,0-0.2,0.1-0.3,0.1c0,0.1-0.1,0.1-0.1,0.1h-0.2
		c0,0,0,0,0-0.1c0,0,0,0,0-0.1c-0.1,0-0.1,0-0.2,0.1c-0.1-0.1-0.2-0.1-0.2-0.1c-0.2,0-0.3,0-0.3,0c-0.1,0-0.2,0-0.3,0.1
		c-0.1,0.1-0.2,0.1-0.2,0.1c0-0.1-0.1-0.1-0.2-0.1s-0.1,0-0.1,0.1c-0.1,0-0.4,0-0.7,0.2c0,0,0,0-0.1,0c0,0,0,0-0.1,0
		c-0.3,0.1-0.4,0-0.5-0.1c-0.1,0-0.1,0-0.2,0.1h-0.1h-0.1c-0.1,0-0.1,0-0.1,0.1c-0.1,0-0.1,0-0.2-0.1c-0.2-0.1-0.4-0.1-0.5,0
		c-0.1,0-0.2,0-0.3,0c-0.1-0.1-0.1-0.1-0.3,0c-0.1,0-0.2,0-0.2,0h-0.1h-0.1c0,0-0.1,0-0.2,0.1c-0.1,0-0.1,0-0.2,0
		c-0.1-0.1-0.2-0.1-0.2,0C27,47.7,27,47.7,27,47.9h-0.3l0,0v-0.1c-0.1,0-0.2,0-0.3,0c-0.1,0-0.2-0.1-0.3-0.1c0-0.1-0.1-0.1-0.1-0.1
		s-0.1,0-0.1,0.1c-0.2,0-0.3,0-0.4,0s-0.2,0-0.4,0c-0.2,0-0.3,0-0.4,0c0,0-0.1,0-0.1,0.1l-0.1,0.1c-0.1,0-0.1,0-0.1,0h-0.1L24.2,48
		c-0.3,0-0.5,0-0.5,0.1c0-0.1,0-0.1-0.1,0c-0.1,0-0.1,0.1-0.1,0.1c-0.2,0-0.3,0-0.3-0.1c-0.1,0-0.2,0-0.2,0h-0.1h-0.1
		c0,0-0.1,0-0.2,0s-0.1,0-0.2,0.1c-0.1,0-0.1,0-0.3,0c-0.1,0-0.2,0-0.3,0c-0.1,0-0.1-0.1-0.1-0.1c-0.1,0-0.2,0-0.3,0h-0.1h-0.1
		c0,0-0.1,0-0.2,0s-0.1,0-0.2,0.1c-0.2,0-0.4,0-0.5,0s-0.1,0-0.2,0.1c-0.1,0-0.1,0.1-0.1,0.1l0-0.7c-0.1,0-0.2,0-0.3,0
		c0,0.1,0,0.1-0.1,0.1c0,0,0,0-0.1,0s0,0-0.1,0l0,0c0,0,0,0-0.1,0s-0.1,0-0.1,0c-0.1,0-0.1,0-0.1,0H19h-0.1h-0.1h-0.1
		c-0.1,0-0.2,0-0.3,0h-0.1h-0.1c-0.1,0-0.2,0-0.3-0.1c-0.1-0.1-0.1-0.1-0.1-0.1s-0.1,0-0.1,0.1c-0.1-0.1-0.2-0.1-0.5-0.1
		c-0.1-0.1-0.1-0.2-0.2-0.2c0-0.1,0-0.1,0-0.1s0-0.1-0.1-0.1s-0.1-0.1-0.1-0.1V47c0-0.1,0-0.1,0-0.1c-0.1-0.1-0.1-0.1-0.1-0.1
		c-0.1-0.1-0.1-0.2-0.1-0.2s0,0-0.1,0h-0.1c-0.1-0.1-0.1-0.2,0-0.3c0-0.1,0-0.1,0.1-0.1s0.1-0.1,0.1-0.1c-0.1-0.1-0.1-0.2-0.1-0.2
		c0.2-0.2,0.3-0.4,0.2-0.5c0.2-0.1,0.3-0.1,0.3-0.2h0.1c0.1-0.1,0.1-0.1,0.2-0.2c0.1-0.1,0.1-0.1,0.1-0.2c0.1,0,0.2-0.1,0.4-0.2
		c0-0.1,0.1-0.2,0.3-0.3v-0.1c0-0.1,0.1-0.1,0.2-0.1s0.1-0.1,0.2-0.1c0-0.1,0-0.2,0.1-0.3s0.1-0.1,0.2-0.2v-0.1v-0.1c0,0,0,0,0.1,0
		H19l0.1-0.1C19,43,19,43,19.1,43v-0.1l0.1,0.1c0.1-0.1,0.2-0.2,0.3-0.3c0.1,0,0.2-0.1,0.3-0.3c0.1-0.1,0.2-0.2,0.2-0.3
		s0-0.1,0.1-0.2h0.1c0.1,0,0.1-0.1,0.2-0.2c0.1-0.1,0.1-0.1,0.1-0.2c0.1-0.1,0.2-0.2,0.2-0.2c0.1-0.1,0.2-0.2,0.3-0.3
		c0.1-0.2,0.2-0.3,0.3-0.3h0.1c0,0,0.1-0.1,0.2-0.3s0.2-0.3,0.3-0.3c0-0.1,0.1-0.2,0.2-0.3c0-0.1,0-0.1,0-0.1c0.2,0,0.4,0,0.4-0.2
		h0.1c0.2-0.2,0.4-0.4,0.7-0.7c0,0,0,0,0.1,0c0,0,0,0,0.1,0l0,0c0,0,0-0.1-0.1-0.1c0-0.1,0.1-0.1,0.2-0.1c0-0.1,0.1-0.1,0.1-0.2
		c0.1-0.1,0.1-0.1,0.1-0.2c0.1,0,0.2-0.1,0.2-0.2c0.1-0.1,0.1-0.1,0.2-0.2c0-0.1,0.1-0.2,0.3-0.3c0-0.1,0-0.1,0-0.2
		c0.1,0,0.2,0,0.2-0.1c0.1-0.1,0.2-0.1,0.2-0.1c0.1,0,0.1-0.1,0-0.2c0.2-0.2,0.3-0.3,0.3-0.4c0.1-0.1,0.1-0.1,0.2-0.2
		c0.1-0.1,0.1-0.1,0.1-0.2c0-0.1,0.1-0.1,0.1-0.2c0,0,0.1,0,0.1-0.1l0.1-0.1v-0.1c0-0.1,0.1-0.1,0.1-0.1s0.1,0,0.1-0.1
		c0.1-0.1,0.1-0.1,0.1-0.1c0.1-0.2,0.2-0.3,0.2-0.3s0-0.1,0-0.2c0,0,0.1-0.1,0.3-0.4v-0.1c0,0,0,0,0.1-0.1c0,0,0,0,0-0.1
		s0-0.1,0-0.1s0-0.1,0.1-0.1c0.1-0.1,0.1-0.1,0.1-0.1c0-0.2,0-0.3,0-0.3c0.1,0,0.1-0.1,0.1-0.3s-0.1-0.3-0.1-0.3h-0.1h-0.1
		c0,0-0.1,0-0.1-0.1s-0.1-0.1-0.1-0.1s-0.2,0-0.4,0c-0.1,0-0.1,0-0.2,0s-0.2,0-0.2,0h-0.1h-0.1c-0.2,0-0.3,0-0.4,0v-0.1H25
		c-0.1,0-0.2,0-0.2,0s-0.1,0-0.3,0c-0.2,0-0.3,0-0.3,0c-0.2,0-0.3,0-0.3,0c-0.2,0.1-0.4,0.1-0.5,0c0,0.1-0.2,0.1-0.5,0.1
		s-0.5,0-0.5,0c-0.1,0-0.3,0.1-0.5,0.2c-0.1,0-0.2,0-0.5,0s-0.4,0-0.4-0.1c0,0-0.1,0-0.2,0s-0.1,0-0.2,0c0,0,0,0-0.1,0v0.1
		c-0.1,0-0.2,0-0.5,0c-0.2,0-0.4,0-0.5,0c0,0-0.1,0-0.1-0.1c-0.3,0-0.5,0-0.6,0.1c0-0.1-0.1-0.1-0.4-0.1s-0.5,0-0.5,0
		c-0.1,0-0.2,0-0.3,0c0,0.1-0.1,0.1-0.3,0.1v-0.1c0-0.1-0.1-0.1-0.2-0.1s-0.2,0-0.2,0c-0.1,0-0.1-0.1-0.2-0.1l0,0l0,0c0,0,0,0-0.1,0
		c0,0,0,0-0.1,0l0,0c0,0,0,0,0-0.1h-0.1c0,0-0.1,0-0.1-0.1s0-0.1,0-0.1l-0.1-0.1c-0.1,0-0.2,0-0.2-0.2c0-0.1,0-0.1,0-0.1
		c0-0.1-0.1-0.1-0.2-0.2v-0.1c0,0,0-0.1-0.1-0.1l-0.1-0.1c0-0.1,0-0.2,0-0.3v-0.2c0,0,0-0.1,0.1-0.1c0,0,0-0.1,0.1-0.1v-0.1v-0.1
		c0,0,0.1,0,0.1-0.1s0.1-0.1,0.1-0.1h0.1h0.1c0.2-0.1,0.4-0.2,0.4-0.2V30h0.1h0.1c0.1,0,0.1,0,0.1,0H17h0.1h0.3c0.2,0,0.3,0,0.4,0.1
		c0.1,0,0.3,0,0.5,0s0.3,0,0.4,0s0.1,0,0.1,0h0.1H19c0.1,0,0.2,0,0.4-0.1h0.1h0.1h0.1c0.1,0,0.1,0,0.2,0H20c0,0,0.1,0,0.1-0.1
		c0.1,0,0.1,0,0.2,0.1h0.1v-0.1v-0.1c0.2,0,0.3,0,0.4,0v0.1c0.1,0.1,0.1,0.1,0.1,0.1s0.1,0,0.1-0.1v-0.1c0,0,0.1,0,0.1,0.1
		c0.1,0,0.1,0,0.2-0.1c0.4,0,0.6,0,0.7-0.1C22.2,30.2,22.2,30.1,22.3,30.1C22.3,30,22.3,30,22.3,30.1z M22.2,30.2
		C22.2,30.2,22.2,30.1,22.2,30.2c0-0.1,0.1-0.1,0.1-0.1l0,0v0.1c0.2,0,0.3,0,0.3-0.1c0.1,0,0.1,0,0.2,0s0.2,0,0.2,0
		c0,0.1,0.1,0.1,0.2,0.1s0.2,0,0.3-0.1h0.1c0.1,0,0.1,0,0.2,0h-0.1h0.1c0.1,0,0.1,0,0.1,0s0.1,0,0.1-0.1h0.1l0,0l0,0
		c0.1,0,0.1,0,0.3-0.1c0,0.1,0,0.1,0.1,0.2c0.1,0,0.1,0,0.2-0.1c0,0,0,0,0.1,0c0,0,0,0,0.1,0c0.3,0,0.4,0.1,0.5,0.1
		c0,0,0.1,0,0.1-0.1s0.1-0.1,0.1-0.1V30c0,0.1,0,0.1,0.1,0.1c0,0,0.1,0,0.2,0s0.1,0,0.2,0s0.3,0,0.5,0s0.4,0,0.4,0v0.1
		c0.1,0.1,0.1,0.1,0.2,0.1s0.2,0,0.2,0h0.1h0.1c0.1,0,0.2,0,0.3,0c0,0.1,0.1,0.1,0.1,0.1c0.2,0,0.3,0,0.3,0.1c0.1,0,0.2,0.1,0.4,0.3
		h0.1c0.1,0.1,0.1,0.1,0.2,0.2s0.2,0.1,0.2,0.2c0,0,0.1,0,0.2,0c0,0.2,0.1,0.3,0.3,0.4V32c0.1,0.1,0.2,0.3,0.3,0.5
		c0,0,0,0.1,0.1,0.1c0.1,0.1,0,0.2,0,0.3c0.1,0.3,0.1,0.5,0.1,0.6c0,0.5-0.1,0.7-0.2,0.8c0,0.1,0,0.2,0,0.3
		c-0.1,0.1-0.1,0.2-0.1,0.3c-0.1,0-0.1,0.1-0.1,0.2c0,0.1,0,0.1,0,0.1v0.1c0,0,0,0,0,0.1c0,0,0,0,0,0.1s0,0.1,0,0.1
		c-0.1,0.2-0.1,0.3-0.1,0.3c-0.1,0.1-0.2,0.2-0.3,0.4c-0.1,0.2-0.2,0.3-0.3,0.4v0.1c-0.1,0.1-0.2,0.2-0.3,0.3
		c-0.1,0.2-0.2,0.3-0.3,0.3v0.1c0,0.1-0.1,0.1-0.2,0.1c0,0.1-0.1,0.2-0.2,0.3s-0.2,0.2-0.2,0.3h-0.1c-0.1,0.1-0.1,0.2-0.3,0.3
		c-0.1,0.1-0.2,0.2-0.2,0.3h-0.1L27,39c0,0.1-0.1,0.2-0.2,0.3s-0.2,0.2-0.2,0.2c0,0.1-0.1,0.2-0.3,0.3c-0.1,0.1-0.1,0.1-0.1,0.1
		c-0.1,0-0.1,0.1-0.2,0.1c-0.1,0.1-0.1,0.1-0.1,0.1l0,0c0,0,0,0-0.1,0c-0.2,0.2-0.3,0.4-0.3,0.4c-0.1,0.1-0.2,0.2-0.4,0.4
		c-0.2,0.2-0.3,0.4-0.4,0.5v0.1c0,0.1,0,0.1,0,0.2c0,0-0.1,0-0.2-0.1c-0.2,0.2-0.4,0.4-0.4,0.5c-0.2,0.1-0.3,0.2-0.3,0.3
		c-0.1,0-0.1,0.1-0.2,0.1c-0.1,0.1-0.1,0.1-0.2,0.1c-0.1,0.1-0.1,0.2-0.3,0.3c-0.1,0.1-0.2,0.2-0.3,0.2l0,0v0.1
		c-0.1,0-0.1,0.1-0.2,0.2c-0.1,0.1-0.2,0.2-0.3,0.2c-0.1,0.1-0.1,0.2-0.1,0.2c-0.1,0-0.1,0.1-0.1,0.1C22.1,44,22,44,22,44
		c-0.1,0-0.1,0-0.2,0.1v0.1l-0.1,0.1l-0.1,0.1c0,0.1,0,0.1-0.1,0.2c-0.1,0.1-0.1,0.1-0.1,0.2c0,0,0.1,0,0.2,0s0.2,0,0.2,0s0,0,0.1,0
		H22c0,0.1,0.1,0.1,0.1,0.1c0.2,0,0.3,0,0.3,0s0.1,0,0.1-0.1c0.1,0,0.1,0,0.1,0s0.1,0,0.1,0.1h0.1c0.1,0,0.1,0,0.1,0H23
		c0,0,0.1,0,0.1-0.1s0.1,0,0.2,0.1c0.1,0,0.1,0,0.2-0.1s0.1-0.1,0.1-0.1c0.1,0,0.1,0,0.2,0s0.1,0,0.1,0H24c0.1,0,0.1,0,0.2,0
		c0.1-0.1,0.1-0.1,0.2-0.1s0.2,0,0.2,0h0.1c0.2,0,0.4,0,0.6,0c0.3,0,0.5,0,0.6,0s0.1,0,0.1,0c0.1,0.1,0.2,0.1,0.3,0
		c0.1,0,0.3,0,0.5,0s0.5,0,0.6,0c0.1,0.1,0.1,0.1,0.1,0.1s0,0,0.1,0h0.1c0,0,0.1,0,0.2,0s0.2,0,0.2,0c0.2,0,0.3,0,0.3,0
		c0.2,0,0.2,0,0.3,0c0,0,0,0,0.1,0c0,0,0,0,0.1,0c0,0,0,0,0.1,0s0.1,0,0.1,0h0.1h0.1c0.4,0,0.7,0,0.7,0c0-0.1,0-0.1,0-0.1h0.2v0.1
		c0.2,0.1,0.3,0.1,0.4,0h0.1h0.1c0,0,0.1,0,0.1,0.1c0.1,0,0.1,0.1,0.1,0.1h0.1h0.1c0.2,0.1,0.3,0.1,0.3-0.1c0,0,0.1,0,0.2,0.1
		c0.1,0,0.2,0,0.2,0s0.1,0,0.2,0s0.1,0,0.2,0c0,0,0.1,0,0.2,0c0.1,0,0.2,0,0.2,0c0.1,0,0.2,0,0.3,0s0.3,0,0.4,0c0.1,0,0.2,0,0.2-0.1
		c0,0,0.1,0,0.1,0.1c0,0,0.1,0,0.1,0.1c0.5,0,0.7,0,0.8-0.1h0.1c0,0,0,0,0-0.1c0.1,0,0.2,0,0.3,0s0.2,0,0.3,0h0.1l0.1-0.1
		c0.1,0.1,0.2,0.1,0.3,0c0,0,0,0.1,0.1,0.1c0.1,0.1,0.1,0.1,0.2,0.2c0.1,0,0.1,0,0.1,0h0.1c0,0,0,0,0,0.1c0.1,0.1,0.2,0.1,0.3,0.2
		c0,0.1,0.1,0.1,0.2,0.2c0.1,0.1,0.2,0.2,0.2,0.2c0.1,0.1,0.1,0.2,0.1,0.3h0.1v0.1c0,0.1,0,0.1,0,0.2c0,0.1,0,0.1,0,0.2
		c0,0,0,0.1-0.1,0.1L37,46.7c0,0,0,0.1,0,0.2c0,0.1,0,0.1,0,0.2c-0.1,0.2-0.1,0.3-0.1,0.3l-0.1,0.1l-0.1,0.1c0,0-0.1,0-0.3,0.1
		c-0.2-0.1-0.3,0-0.3,0.2h-0.2c0-0.9-0.1-0.9-0.1-0.9c-0.1,0-0.1,0-0.1,0.1c-0.1,0-0.2,0-0.3,0v0.1c0,0-0.1,0-0.2-0.1
		c-0.1-0.1-0.2,0-0.2,0.1c0,0-0.1,0-0.1-0.1h-0.1c-0.1,0-0.1,0-0.1,0s0,0,0,0.1v0.1c-0.1-0.1-0.1-0.2-0.2-0.2c-0.1,0-0.2,0-0.4,0.1
		c-0.2,0-0.4,0-0.4,0.1l0,0c0-0.1-0.1-0.1-0.2-0.1c-0.2,0-0.2,0.1-0.3,0.1c0,0.1-0.1,0.1-0.1,0.1h-0.2c0,0,0,0,0-0.1c0,0,0,0,0-0.1
		c-0.1,0-0.1,0-0.2,0.1c-0.1-0.1-0.2-0.1-0.2-0.1c-0.2,0-0.3,0-0.3,0c-0.1,0-0.2,0-0.3,0.1c-0.1,0.1-0.2,0.1-0.2,0.1
		c0-0.1-0.1-0.1-0.2-0.1s-0.1,0-0.1,0.1c-0.1,0-0.4,0-0.7,0.2c0,0,0,0-0.1,0c0,0,0,0-0.1,0c-0.3,0.1-0.4,0-0.5-0.1
		c-0.1,0-0.1,0-0.2,0.1h-0.1h-0.1c-0.1,0-0.1,0-0.1,0.1c-0.1,0-0.1,0-0.2-0.1c-0.2-0.1-0.4-0.1-0.5,0c-0.1,0-0.2,0-0.3,0
		c-0.1-0.1-0.1-0.1-0.3,0c-0.1,0-0.2,0-0.2,0h-0.1h-0.1c0,0-0.1,0-0.2,0.1c-0.1,0-0.1,0-0.2,0c-0.1-0.1-0.2-0.1-0.2,0
		c-0.1,0.1-0.1,0.1-0.1,0.3h-0.3l0,0v-0.1c-0.1,0-0.2,0-0.3,0c-0.1,0-0.2-0.1-0.3-0.1c0-0.1-0.1-0.1-0.1-0.1s-0.1,0-0.1,0.1
		c-0.2,0-0.3,0-0.3,0c-0.1,0-0.3,0-0.4,0c-0.2,0-0.3,0-0.4,0c0,0-0.1,0-0.1,0.1L24.7,48c-0.1,0-0.1,0-0.1,0h-0.1l-0.1,0.1
		c-0.3,0-0.5,0-0.5,0.1c0-0.1,0-0.1-0.1,0c-0.1,0-0.1,0.1-0.1,0.1c-0.2,0-0.3,0-0.3-0.1c-0.1,0-0.2,0-0.2,0h-0.1H23c0,0-0.1,0-0.2,0
		s-0.1,0-0.2,0.1c-0.1,0-0.1,0-0.3,0c-0.1,0-0.2,0-0.3,0c-0.1,0-0.1-0.1-0.1-0.1c-0.1,0-0.2,0-0.3,0h-0.1h-0.1c0,0-0.1,0-0.2,0
		s-0.1,0-0.2,0.1c-0.2,0-0.4,0-0.5,0s-0.1,0-0.2,0.1c-0.1,0-0.1,0.1-0.1,0.1L20,47.7c-0.1,0-0.2,0-0.3,0c0,0.1,0,0.1-0.1,0.1
		c0,0,0,0-0.1,0s0,0-0.1,0l0,0c0,0,0,0-0.1,0s-0.1,0-0.1,0c-0.1,0-0.1,0-0.1,0H19h-0.1h-0.1h-0.1c-0.1,0-0.2,0-0.3,0h-0.1h-0.1
		c-0.1,0-0.2,0-0.3-0.1c-0.1-0.1-0.1-0.1-0.2-0.1c0,0-0.1,0-0.1,0.1c-0.1-0.1-0.2-0.1-0.5-0.1c-0.1-0.1-0.1-0.2-0.2-0.2
		c0-0.1,0-0.1,0-0.1s0-0.1-0.1-0.1s-0.1-0.1-0.1-0.1V47c0-0.1,0-0.1,0-0.1c-0.1-0.1-0.1-0.1-0.1-0.1c-0.1-0.1-0.1-0.2-0.1-0.2
		s0,0-0.1,0h-0.1c-0.1-0.1-0.1-0.2,0-0.3c0-0.1,0-0.1,0.1-0.1s0.1-0.1,0.1-0.1c-0.1-0.1-0.1-0.2-0.1-0.2c0.2-0.2,0.3-0.4,0.2-0.5
		c0.2-0.1,0.3-0.1,0.3-0.2H17c0.1-0.1,0.1-0.1,0.2-0.2c0.1-0.1,0.1-0.1,0.1-0.2c0.1,0,0.2-0.1,0.4-0.2c0-0.1,0.1-0.2,0.3-0.3v-0.1
		c0-0.1,0.1-0.1,0.2-0.1s0.1-0.1,0.2-0.1c0-0.1,0-0.2,0.1-0.3s0.1-0.1,0.2-0.2v-0.1v-0.1c0,0,0,0,0.1,0h0.1l0.1-0.1
		c0-0.2,0-0.2,0.1-0.2v-0.1l0.1,0.1c0.1-0.1,0.2-0.2,0.3-0.3c0.1,0,0.2-0.1,0.3-0.3c0.1-0.1,0.2-0.2,0.2-0.3s0-0.1,0.1-0.2h0.1
		c0.1,0,0.1-0.1,0.2-0.2c0.1-0.1,0.1-0.1,0.1-0.2c0.1-0.1,0.2-0.2,0.2-0.2c0.1-0.1,0.2-0.2,0.3-0.3c0.1-0.2,0.2-0.3,0.3-0.3h0.1
		c0,0,0.1-0.1,0.2-0.3s0.2-0.3,0.3-0.3c0-0.1,0.1-0.2,0.2-0.3c0-0.1,0-0.1,0-0.1c0.2,0,0.4,0,0.4-0.2h0.1c0.2-0.2,0.4-0.4,0.7-0.7
		c0,0,0,0,0.1,0c0,0,0,0,0.1,0l0,0c0,0,0-0.1-0.1-0.1c0-0.1,0.1-0.1,0.2-0.1c0-0.1,0.1-0.1,0.1-0.2c0.1-0.1,0.1-0.1,0.1-0.2
		c0.1,0,0.2-0.1,0.2-0.2c0.1-0.1,0.1-0.1,0.2-0.2c0-0.1,0.1-0.2,0.3-0.3c0-0.1,0-0.1,0-0.2c0.1,0,0.2,0,0.2-0.1
		c0.1-0.1,0.2-0.1,0.2-0.1c0.1,0,0.1-0.1,0-0.2c0.2-0.2,0.3-0.3,0.3-0.4c0.1-0.1,0.2-0.1,0.2-0.2c0-0.1,0.1-0.1,0.1-0.2
		c0-0.1,0.1-0.1,0.1-0.2c0,0,0.1,0,0.1-0.1l0.1-0.1v-0.1c0-0.1,0.1-0.1,0.1-0.1s0.1,0,0.1-0.1c0.1-0.1,0.1-0.1,0.1-0.1
		c0.1-0.2,0.2-0.3,0.2-0.3s0-0.1,0-0.2c0,0,0.1-0.1,0.3-0.4v-0.1c0,0,0,0,0.1-0.1c0,0,0,0,0-0.1s0-0.1,0-0.1s0-0.1,0.1-0.1
		c0.1-0.1,0.1-0.1,0.1-0.1c0-0.2,0-0.3,0-0.3c0.1,0,0.1-0.1,0.1-0.3s-0.1-0.3-0.1-0.3h-0.1h-0.1c0,0-0.1,0-0.1-0.1s-0.1-0.1-0.1-0.1
		s-0.2,0-0.4,0c-0.1,0-0.1,0-0.2,0s-0.2,0-0.2,0h-0.1h-0.1c-0.2,0-0.3,0-0.4,0v-0.1H25c-0.1,0-0.2,0-0.2,0s-0.1,0-0.3,0
		c-0.2,0-0.3,0-0.3,0c-0.2,0-0.3,0-0.3,0c-0.2,0.1-0.4,0.1-0.5,0c0,0.1-0.2,0.1-0.5,0.1s-0.5,0-0.5,0c-0.1,0-0.3,0.1-0.5,0.2
		c-0.1,0-0.2,0-0.5,0s-0.4,0-0.4-0.1c0,0-0.1,0-0.2,0s-0.1,0-0.2,0c0,0,0,0-0.1,0v0.1c-0.1,0-0.2,0-0.5,0c-0.2,0-0.4,0-0.5,0
		c0,0-0.1,0-0.1-0.1c-0.3,0-0.5,0-0.6,0.1c0-0.1-0.1-0.1-0.4-0.1s-0.5,0-0.5,0c-0.1,0-0.2,0-0.3,0c0,0.1-0.1,0.1-0.3,0.1v-0.1
		c0-0.1-0.1-0.1-0.2-0.1s-0.2,0-0.2,0c-0.1,0-0.1-0.1-0.2-0.1l0,0l0,0c0,0,0,0-0.1,0c0,0,0,0-0.1,0c0,0,0,0-0.1-0.1
		c0,0-0.1,0-0.1-0.1c0,0-0.1,0-0.1-0.1s0-0.1,0-0.1l-0.1-0.1c-0.1,0-0.2,0-0.2-0.2c0-0.1,0-0.1,0-0.1c0-0.1-0.1-0.1-0.2-0.2v-0.1
		c0,0,0-0.1-0.1-0.1l-0.1-0.1c0-0.1,0-0.2,0-0.3v-0.2c0,0,0-0.1,0.1-0.1c0,0,0-0.1,0.1-0.1v-0.1v-0.1c0,0,0.1,0,0.1-0.1
		s0.1-0.1,0.1-0.1H16h0.1c0.2-0.1,0.4-0.2,0.4-0.2v-0.1h0.1h0.1c0.1,0,0.1,0,0.1,0h0.1H17h0.3c0.2,0,0.3,0,0.4,0.1
		c0.1,0,0.3,0,0.5,0s0.3,0,0.4,0s0.1,0,0.1,0h0.1h0.1c0.1,0,0.2,0,0.4-0.1h0.1h0.1h0.1c0.1,0,0.1,0,0.2,0h0.1c0,0,0.1,0,0.1-0.1
		c0.1,0,0.1,0,0.2,0.1h0.1v-0.1v-0.1c0.2,0,0.3,0,0.4,0v0.1c0.1,0.1,0.1,0.1,0.1,0.1s0.1,0,0.1-0.1v-0.1c0,0,0.1,0,0.1,0.1
		c0.1,0,0.1,0,0.2-0.1C21.9,30.3,22.1,30.2,22.2,30.2z M23.1,30.1L23.1,30.1C23.1,30.2,23.1,30.2,23.1,30.1z M23,30.1
		C23.1,30.2,23.1,30.2,23,30.1L23,30.1z M24.4,47.4C24.4,47.5,24.3,47.5,24.4,47.4h-0.1C24.2,47.4,24.3,47.4,24.4,47.4z M24.2,47.4
		c0-0.1,0-0.1,0.1,0C24.4,47.5,24.3,47.5,24.2,47.4L24.2,47.4z"/>
	<path fill="#BF9000" d="M43.8,31.1c0.1,0,0.1,0,0.3,0c0.1,0,0.2,0,0.3,0c0,0,0.1,0,0.2,0.1c0,0,0.1,0,0.2,0c0.1,0,0.1,0,0.2,0
		s0.1,0,0.1,0s0,0,0.1,0s0,0,0.1,0h0.1c0.1,0.2,0.1,0.2,0.3,0.2l0.3,0.2c0,0.1,0,0.1,0.1,0.2s0.1,0.1,0.1,0.1c0.1,0,0.1,0,0.2,0.1
		c0.1,0.1,0.1,0.1,0.2,0.1h0.1h0.1C47,32,47.1,32,47.1,32s0.1,0,0.2,0c0,0,0.1,0,0.2,0c0.1,0,0.1,0,0.2,0c0,0,0.1,0,0.1,0.1l0.1,0.1
		c0,0,0.1,0,0.2,0c0.1,0,0.1,0,0.2,0c0,0,0.1,0,0.2,0.1c0.1,0.1,0.2,0.1,0.3,0.1c0,0,0,0.1,0.1,0.1s0.2,0,0.3,0.1s0.1,0.1,0.2,0.1
		h0.1c0.3,0.2,0.5,0.3,0.7,0.3h0.2c0,0.1-0.1,0.1-0.2,0v0.1c0,0.1,0.1,0.2,0.3,0.3s0.3,0.2,0.3,0.3s0.1,0.1,0.2,0.2
		c0.2,0.2,0.3,0.3,0.3,0.4c0.1,0.1,0.2,0.2,0.2,0.3s0.1,0.1,0.2,0.2c0.1,0.1,0.1,0.2,0.1,0.3c0.1,0.2,0.2,0.3,0.2,0.3s0,0.1,0.1,0.1
		c0.1,0.1,0.1,0.2,0.1,0.3l0.1,0.1c0,0.1,0,0.1,0.1,0.3s0.1,0.4,0.1,0.4c0,0.2,0.1,0.3,0.1,0.3s0,0.1,0.1,0.3c-0.1,0-0.1,0.1,0,0.2
		c0.1,0.1,0.1,0.2,0.1,0.2v0.1v0.1c0,0,0,0,0,0.1V38c0,0.1,0,0.2,0,0.3s0,0.2,0,0.3s0,0.1,0,0.1v0.1c0,0,0,0.1,0.1,0.2
		c0,0,0,0,0,0.1s0,0,0,0.1c0.1,0.1,0.1,0.4,0.1,0.9s0,0.9,0,1c0,0,0,0.1,0,0.2c0,0.1,0,0.2,0,0.2s0,0.1-0.1,0.2
		c-0.1,0.1-0.1,0.2,0,0.2c0,0,0,0.1,0,0.2c0,0.1,0,0.1,0,0.2c-0.1,0-0.2,0.1-0.2,0.1c0,0.3,0,0.4,0,0.4v0.1L52.6,43v0.1
		c-0.1,0.2-0.1,0.2-0.1,0.3c0,0,0,0.1-0.1,0.1h-0.1c0,0,0,0,0,0.1l-0.1,0.1c0,0.1-0.1,0.1-0.1,0.2l-0.2,0.3c0,0.1-0.1,0.2-0.2,0.4
		c-0.1,0.2-0.2,0.3-0.2,0.4c-0.1,0.1-0.2,0.3-0.2,0.4c0,0-0.1,0-0.2,0.1c0,0.1,0,0.1-0.1,0.2c-0.1,0.1-0.1,0.2-0.1,0.3
		c-0.1,0-0.1,0.1-0.2,0.2c-0.1,0.1-0.1,0.2-0.2,0.2c0,0-0.1,0.1-0.1,0.2c-0.1,0.1-0.1,0.2-0.1,0.2c0,0.1,0,0.1-0.1,0.2
		c-0.2,0.1-0.3,0.2-0.5,0.3c-0.1,0.1-0.1,0.2-0.2,0.2c-0.1,0.1-0.1,0.2-0.3,0.2c-0.1,0.1-0.2,0.2-0.3,0.2c0,0,0,0-0.1,0s0,0-0.1,0
		L48.6,48c-0.1,0.1-0.1,0.1-0.1,0.1c-0.1,0-0.2,0-0.2,0.1c-0.1,0-0.1,0-0.3,0.1c-0.1,0-0.1,0-0.2,0c-0.1,0-0.1,0-0.2,0
		c0,0-0.1,0.1-0.2,0.2c-0.2,0-0.3,0-0.3,0c0,0.1-0.1,0.1-0.2,0.1c-0.1,0-0.2,0.1-0.2,0.2c-0.1,0-0.3,0-0.6,0s-0.5,0-0.7,0
		c-0.1,0-0.1,0-0.3,0s-0.2,0-0.3,0c0,0-0.1-0.1-0.1-0.2c-0.1,0-0.1,0-0.2,0.1c0,0.1-0.1,0.1-0.1,0.1s0,0,0-0.1l0,0
		c0,0-0.1,0-0.1-0.1c-0.1,0-0.1-0.1-0.1-0.1c-0.2,0.1-0.3,0-0.5-0.1s-0.3-0.1-0.4-0.1v-0.1c0,0-0.1,0-0.2-0.1C43,48,42.9,48,42.7,48
		v-0.1l-0.1-0.1c-0.1-0.1-0.1-0.1-0.1-0.1c-0.1,0-0.1,0-0.1-0.1c0,0,0,0-0.1-0.1c0,0,0,0-0.1-0.1c0,0,0,0-0.1,0c0,0,0,0-0.1,0l0,0
		l0,0c0,0-0.1,0-0.1-0.1c0,0-0.1,0-0.1-0.1c-0.1-0.1-0.1-0.1-0.1-0.1c-0.1,0-0.1,0-0.1,0c-0.1-0.1-0.1-0.1-0.2-0.3
		c-0.1-0.1-0.2-0.2-0.2-0.3h-0.1c-0.3-0.3-0.4-0.5-0.4-0.6c0,0-0.1-0.1-0.2-0.3V45l-0.1-0.1c-0.1-0.1-0.1-0.1-0.1-0.1
		c0-0.2-0.1-0.5-0.2-0.7c0-0.1,0-0.2-0.1-0.2c0-0.1,0-0.1,0-0.1s0,0,0-0.1v-0.1v-0.1l-0.1-0.1c0,0,0-0.2,0-0.4v-0.1v-0.1
		c0,0-0.1,0-0.1-0.1v-0.1c0-0.1,0-0.1,0-0.3c0-0.1,0-0.3,0-0.3s-0.1,0-0.1-0.1c0,0,0-0.1,0-0.2v-0.1c0,0,0-0.1-0.1-0.1
		c0-0.1,0-0.1,0-0.1c-0.1-0.1-0.1-0.1-0.1-0.2s0-0.1,0-0.1V41c0.1-0.1,0-0.2-0.1-0.3c0,0,0-0.1,0-0.2v-0.1l0.2-0.2
		c0-0.1,0-0.2,0-0.5s0-0.5,0-0.6s0-0.1,0-0.2c0-0.1,0-0.1,0-0.1c0-0.1,0-0.2,0-0.3c0-0.2,0-0.3,0-0.4c0-0.1,0.1-0.2,0.1-0.2v-0.1
		v-0.1v-0.1l0.1-0.1c0,0,0-0.1,0-0.3s0-0.3,0-0.4c0-0.3,0-0.4,0-0.5c0,0,0.1,0,0.1-0.1c0.1-0.1,0.1-0.1,0.2-0.1c0-0.1,0-0.1,0-0.1
		v-0.1l0.1-0.1v-0.1c0-0.1,0-0.1,0-0.1c0.1-0.1,0.1-0.1,0.1-0.1c0-0.1,0-0.2,0-0.3c0-0.2,0-0.2,0.1-0.3h0.1h0.1c0-0.1,0-0.1-0.1-0.1
		c0,0-0.1,0-0.1-0.1l0.1-0.2c0,0,0.1-0.1,0.1-0.2c0.1-0.1,0.1-0.1,0.1-0.2c0,0,0,0,0-0.1c0,0,0,0,0-0.1c0.1-0.1,0.1-0.2,0.1-0.3
		c0.1,0,0.1-0.1,0.1-0.2c0-0.1,0.1-0.1,0.1-0.2c0-0.1,0-0.2,0.1-0.3s0.1-0.1,0.1-0.2v-0.1v-0.1c0-0.1,0-0.1,0.1-0.2
		c0.1-0.1,0.1-0.2,0.1-0.2c0.1,0,0.2-0.1,0.3-0.3c0.1,0,0.2-0.1,0.2-0.3c0-0.1,0-0.1,0-0.2c0.1,0.1,0.2,0,0.3-0.1
		c0.1,0,0.1-0.1,0.1-0.1h0.1c0.1,0,0.1-0.1,0.2-0.1c0.1-0.1,0.1-0.1,0.2-0.1c0.1,0,0.3-0.1,0.5-0.3c0.1,0,0.2,0,0.2-0.1
		c0.1-0.1,0.1-0.1,0.2-0.1l0,0c0,0,0,0,0-0.1c0.1,0.1,0.2,0,0.3-0.1c0.1,0,0.1,0,0.2,0C43.6,31,43.7,31,43.8,31.1z M44.4,31
		c0,0,0.1,0,0.2,0.1c0,0,0.1,0,0.2,0c0.1,0,0.1,0,0.2,0s0.1,0,0.1,0s0,0,0.1,0s0,0,0.1,0h0.1c0.1,0.2,0.1,0.2,0.3,0.2l0.3,0.2
		c0,0.1,0,0.1,0.1,0.2s0.1,0.1,0.1,0.1c0.1,0,0.1,0,0.2,0.1c0.1,0.1,0.1,0.1,0.2,0.1h0.1h0.1c0.2-0.1,0.3-0.1,0.3-0.1s0.1,0,0.2,0
		c0,0,0.1,0,0.2,0c0.1,0,0.1,0,0.2,0c0,0,0.1,0,0.1,0.1l0.1,0.1c0,0,0.1,0,0.2,0c0.1,0,0.1,0,0.2,0c0,0,0.1,0,0.2,0.1
		c0.1,0.1,0.2,0.1,0.3,0.1c0,0,0,0.1,0.1,0.1s0.2,0,0.3,0.1s0.1,0.1,0.2,0.1h0.1c0.3,0.2,0.5,0.3,0.7,0.3h0.2c0,0.1-0.1,0.1-0.2,0
		V33c0,0.1,0.1,0.2,0.3,0.3s0.3,0.2,0.3,0.3s0.1,0.1,0.2,0.2c0.2,0.2,0.3,0.3,0.3,0.4c0.1,0.1,0.2,0.2,0.2,0.3s0.1,0.1,0.2,0.2
		c0.1,0.1,0.1,0.2,0.1,0.3c0.1,0.2,0.2,0.3,0.2,0.3s0,0.1,0.1,0.1c0.1,0.1,0.1,0.2,0.1,0.3l0.1,0.1c0,0.1,0,0.1,0.1,0.3
		s0.1,0.4,0.1,0.4c0,0.2,0.1,0.3,0.1,0.3s0,0.1,0.1,0.3c-0.1,0-0.1,0.1,0,0.2c0.1,0.1,0.1,0.2,0.1,0.2v0.1v0.1c0,0,0,0,0,0.1v0.1
		c0,0.1,0,0.2,0,0.3s0,0.2,0,0.3s0,0.1,0,0.1v0.1c0,0,0,0.1,0.1,0.2c0,0,0,0,0,0.1s0,0,0,0.1C53,39.2,53,39.5,53,40s0,0.9,0,1
		c0,0,0,0.1,0,0.2c0,0.1,0,0.2,0,0.2s0,0.1-0.1,0.2c-0.1,0.1-0.1,0.2,0,0.2c0,0,0,0.1,0,0.2c0,0.1,0,0.1,0,0.2
		c-0.1,0-0.2,0.1-0.2,0.1c0,0.3,0,0.4,0,0.4v0.1l-0.1,0.1V43c-0.1,0.2-0.1,0.2-0.1,0.3c0,0,0,0.1-0.1,0.1h-0.1c0,0,0,0,0,0.1
		l-0.1,0.1c0,0.1-0.1,0.1-0.1,0.2l-0.2,0.3c0,0.1-0.1,0.2-0.2,0.4c-0.1,0.2-0.2,0.3-0.2,0.4c-0.1,0.1-0.2,0.3-0.2,0.4
		c0,0-0.1,0-0.2,0.1c0,0.1,0,0.1-0.1,0.2c-0.1,0.1-0.1,0.2-0.1,0.3c-0.1,0-0.1,0.1-0.2,0.2c-0.1,0.1-0.1,0.2-0.2,0.2
		c0,0-0.1,0.1-0.1,0.2c-0.1,0.1-0.1,0.2-0.1,0.2c0,0.1,0,0.1-0.1,0.2c-0.2,0.1-0.3,0.2-0.5,0.3c-0.1,0.1-0.1,0.2-0.2,0.2
		c-0.1,0.1-0.1,0.2-0.3,0.2c-0.1,0.1-0.2,0.2-0.3,0.2c0,0,0,0-0.1,0s0,0-0.1,0l-0.1,0.1C48.5,48,48.5,48,48.5,48
		c-0.1,0-0.2,0-0.2,0.1c-0.1,0-0.1,0-0.3,0.1c-0.1,0-0.1,0-0.2,0c-0.1,0-0.1,0-0.2,0c0,0-0.1,0.1-0.2,0.2c-0.2,0-0.3,0-0.3,0
		c0,0.1-0.1,0.1-0.2,0.1c-0.1,0-0.2,0.1-0.2,0.2c-0.1,0-0.3,0-0.6,0s-0.5,0-0.7,0c-0.1,0-0.1,0-0.3,0s-0.2,0-0.3,0
		c0,0-0.1-0.1-0.1-0.2c-0.1,0-0.1,0-0.2,0.1c0,0.1-0.1,0.1-0.1,0.1s0,0,0-0.1l0,0c0,0-0.1,0-0.1-0.1c-0.1,0-0.1-0.1-0.1-0.1
		c-0.2,0.1-0.3,0-0.5-0.1s-0.3-0.1-0.4-0.1v-0.1c0,0-0.1,0-0.2-0.1c-0.1-0.1-0.2-0.1-0.4-0.1v-0.1l-0.1-0.1
		c-0.1-0.1-0.1-0.1-0.1-0.1c-0.1,0-0.1,0-0.1-0.1c0,0,0,0-0.1-0.1c0,0,0,0-0.1-0.1c0,0,0,0-0.1,0c0,0,0,0-0.1,0l0,0l0,0
		c0,0-0.1,0-0.1-0.1c0,0-0.1,0-0.1-0.1C41.7,47,41.7,47,41.7,47c-0.1,0-0.1,0-0.1,0c-0.1-0.1-0.1-0.1-0.2-0.3
		c-0.1-0.1-0.2-0.2-0.2-0.3h-0.1c-0.3-0.3-0.4-0.5-0.4-0.6c0,0-0.1-0.1-0.2-0.3V45l-0.1-0.1c-0.1-0.1-0.1-0.1-0.1-0.1
		c0-0.2-0.1-0.5-0.2-0.7c0-0.1,0-0.2-0.1-0.2c0-0.1,0-0.1,0-0.1s0,0,0-0.1v-0.1v-0.1l-0.1-0.1c0,0,0-0.2,0-0.4v-0.1v-0.1
		c0,0-0.1,0-0.1-0.1v-0.1c0-0.1,0-0.1,0-0.3c0-0.1,0-0.3,0-0.3s-0.1,0-0.1-0.1c0,0,0-0.1,0-0.2v-0.1c0,0,0-0.1-0.1-0.1
		c0-0.1,0-0.1,0-0.1c-0.1-0.1-0.1-0.1-0.1-0.2s0-0.1,0-0.1V41c0.1-0.1,0-0.2-0.1-0.3c0,0,0-0.1,0-0.2v-0.1l0.2-0.2
		c0-0.1,0-0.2,0-0.5s0-0.5,0-0.6s0-0.1,0-0.2c0-0.1,0-0.1,0-0.1c0-0.1,0-0.2,0-0.3c0-0.2,0-0.3,0-0.4c0-0.1,0.1-0.2,0.1-0.2v-0.1
		v-0.1v-0.1l0.1-0.1c0,0,0-0.1,0-0.3s0-0.3,0-0.4c0-0.3,0-0.4,0-0.5c0,0,0.1,0,0.1-0.1c0.1-0.1,0.1-0.1,0.2-0.1c0-0.1,0-0.1,0-0.1
		v-0.1l0.1-0.1v-0.1c0-0.1,0-0.1,0-0.1c0.1-0.1,0.1-0.1,0.1-0.1c0-0.1,0-0.2,0-0.3c0-0.2,0-0.2,0.1-0.3h0.1h0.1c0-0.1,0-0.1-0.1-0.1
		c0,0-0.1,0-0.1-0.1l0.1-0.2c0,0,0.1-0.1,0.1-0.2c0.1-0.1,0.1-0.1,0.1-0.2c0,0,0,0,0-0.1c0,0,0,0,0-0.1c0.1-0.1,0.1-0.2,0.1-0.3
		c0.1,0,0.1-0.1,0.1-0.2c0-0.1,0.1-0.1,0.1-0.2c0-0.1,0-0.2,0.1-0.3s0.1-0.1,0.1-0.2v-0.1v-0.1c0-0.1,0-0.1,0.1-0.2
		c0.1-0.1,0.1-0.2,0.1-0.2c0.1,0,0.2-0.1,0.3-0.3c0.1,0,0.2-0.1,0.2-0.3c0-0.1,0-0.1,0-0.2c0.1,0.1,0.2,0,0.3-0.1
		c0.1,0,0.1-0.1,0.1-0.1h0.1c0.1,0,0.1-0.1,0.2-0.1c0.1-0.1,0.1-0.1,0.2-0.1c0.1,0,0.3-0.1,0.5-0.3c0.1,0,0.2,0,0.2-0.1
		c0.1-0.1,0.1-0.1,0.2-0.1l0,0c0,0,0,0,0-0.1c0.1,0.1,0.2,0,0.3-0.1c0.1,0,0.1,0,0.2,0c0.1,0,0.2,0,0.3,0s0.1,0,0.3,0
		C44.1,31,44.3,31,44.4,31z M44.2,33.5c-0.2,0.1-0.3,0.2-0.5,0.3s-0.3,0.2-0.4,0.3S43,34.3,43,34.5l-0.1,0.1
		c-0.1,0.1-0.1,0.1-0.1,0.1v0.1c0,0,0,0.1-0.1,0.1L42.6,35c0,0-0.1,0.1-0.2,0.3c0,0.1,0,0.1-0.1,0.2c-0.1,0.1-0.1,0.1-0.1,0.1
		c0,0.1,0,0.1,0,0.1s0,0.1-0.1,0.1v0.1c0,0.1,0,0.1,0,0.1v0.1c-0.1,0.1-0.1,0.1,0,0.2c-0.1,0.1-0.2,0.2-0.2,0.4
		c-0.1,0.1-0.1,0.3-0.1,0.5c-0.1,0.1-0.1,0.2-0.1,0.4c-0.2,0.2-0.2,0.4-0.1,0.6c0,0,0,0-0.1,0.1c0,0-0.1,0-0.1,0.1s0,0.2,0,0.3
		c-0.1,0.1-0.1,0.2,0,0.3c-0.1,0.1-0.1,0.2-0.1,0.5v0.1c0,0.1,0,0.1,0,0.1s0,0.1-0.1,0.1l-0.1,0.1c0.1,0.1,0.1,0.1,0.1,0.2
		c0,0.1,0,0.2,0,0.4c0,0.1,0,0.3,0,0.3v0.1V41l0.1,0.1c0,0.1,0,0.2,0,0.4v0.1v0.1v0.1v0.1c0,0.1,0,0.2,0,0.3c0,0,0,0.1,0.1,0.1
		s0,0,0,0.1l0,0c0,0,0,0,0,0.1s0,0.2,0,0.2c0,0.1,0,0.1,0,0.2s0,0.1,0,0.1s0,0,0,0.1v0.1c0,0,0,0,0.1,0.1v0.1v0.1v0.1c0,0,0,0,0,0.1
		v0.1c0,0,0,0,0,0.1l0.1,0.1l0.1,0.1c-0.1,0.1-0.1,0.2,0.1,0.3v0.1c0,0,0,0.1,0.1,0.1s0.1,0.1,0.1,0.1l0.2,0.2
		c0.1,0.1,0.2,0.2,0.4,0.4s0.3,0.3,0.3,0.3c0.1,0,0.1,0,0.1,0c0.2,0.3,0.4,0.4,0.6,0.4c0.1,0.1,0.1,0.1,0.2,0.1c0,0,0.1,0,0.2,0
		c0.1,0,0.1,0,0.2,0l0.1,0.1l0.1,0.1h0.1h0.1c0,0,0,0,0.1,0h0.1c0.2,0,0.4,0,0.5,0c0,0,0.1,0,0.1-0.1c0.1-0.1,0.1-0.1,0.2-0.1
		c0.1,0,0.1,0,0.2,0c0,0,0.1,0,0.1-0.1l0.1-0.1c0,0,0.1,0,0.2,0c0.1-0.1,0.2-0.1,0.3-0.1c0.1-0.1,0.2-0.2,0.4-0.3s0.3-0.3,0.5-0.3
		c0,0,0-0.1,0.1-0.1l0.1-0.1c0,0,0,0,0-0.1s0.1-0.1,0.2-0.2c0.1-0.1,0.1-0.1,0.1-0.1s0.1-0.1,0.1-0.2c0.1-0.1,0.1-0.1,0.1-0.2
		c0,0,0-0.1,0.1-0.1C48,44,48,44,48,43.9c0.1-0.1,0.1-0.2,0.2-0.2v-0.1c0,0,0.1-0.2,0.3-0.4c0,0,0-0.1,0.1-0.1c0,0,0.1-0.2,0.1-0.4
		c0-0.1,0.1-0.1,0.2-0.2v-0.1c0,0,0,0,0-0.1c0,0,0,0,0.1-0.1v-0.1c0-0.1,0-0.1,0-0.1c0.1-0.1,0.2-0.3,0.3-0.7v-0.2V41
		c0-0.1,0-0.1,0-0.1c0.1-0.1,0.1-0.1,0.1-0.2c0,0,0-0.1-0.1-0.1l-0.1-0.1c0-0.1,0-0.1,0.1-0.2c0.1-0.1,0.1-0.1,0.1-0.2
		c0-0.1,0-0.1,0-0.2c0-0.1,0-0.2,0-0.2v-0.1v-0.1l-0.1-0.1l-0.1-0.1c0.1-0.1,0.1-0.1,0.1-0.1v-0.1V39c0-0.1,0-0.1,0-0.2
		c0-0.1,0-0.2,0-0.2v-0.1v-0.1c0,0,0-0.1-0.1-0.1c0-0.1,0-0.1-0.1-0.1L49,38.1c0-0.1,0-0.1,0.1-0.2c0-0.1,0-0.1,0-0.1v-0.1v-0.1
		c0-0.1,0-0.1,0-0.1c0-0.1,0-0.1,0-0.1c-0.1,0-0.1-0.1-0.1-0.3s-0.1-0.3-0.1-0.3s0-0.1,0-0.2c0-0.1,0-0.1,0-0.2
		c-0.1-0.1-0.2-0.2-0.2-0.3c-0.3-0.5-0.6-0.9-1.1-1.4h-0.2c0-0.1-0.1-0.2-0.2-0.2h-0.1l-0.2-0.1l-0.1-0.1c-0.1-0.1-0.2-0.1-0.2-0.1
		s-0.1,0-0.2,0c-0.1,0-0.1,0-0.1,0c-0.1-0.1-0.2-0.1-0.3-0.1s-0.2,0-0.3,0s-0.2,0-0.3,0c-0.1-0.2-0.2-0.2-0.3-0.2
		c-0.1-0.1-0.1-0.2,0-0.2c0,0,0-0.1,0.1-0.1l0.1-0.1c0-0.1,0-0.1-0.1-0.1s-0.1,0-0.1,0c0-0.1-0.1-0.2-0.1-0.2c-0.1,0-0.2,0-0.4,0
		C44.5,33.4,44.4,33.4,44.2,33.5z M45.1,33.4c-0.1,0-0.2,0-0.4,0s-0.3,0-0.5,0c-0.2,0.1-0.3,0.2-0.5,0.3s-0.3,0.2-0.4,0.3
		S43,34.3,43,34.5l-0.1,0.1c-0.1,0.1-0.1,0.1-0.1,0.1v0.1c0,0,0,0.1-0.1,0.1L42.6,35c0,0-0.1,0.1-0.2,0.3c0,0.1,0,0.1-0.1,0.2
		c-0.1,0.1-0.1,0.1-0.1,0.1c0,0.1,0,0.1,0,0.2c0,0,0,0.1-0.1,0.1V36c0,0.1,0,0.1,0,0.1v0.1c-0.1,0.1-0.1,0.1,0,0.2
		c-0.1,0.1-0.2,0.2-0.2,0.4c-0.1,0.1-0.1,0.3-0.1,0.5c-0.1,0.1-0.1,0.2-0.1,0.4c-0.2,0.2-0.2,0.4-0.1,0.6c0,0,0,0-0.1,0.1
		c0,0-0.1,0-0.1,0.1s0,0.2,0,0.3c-0.1,0.1-0.1,0.2,0,0.3c-0.1,0.1-0.1,0.2-0.1,0.5v0.1c0,0.1,0,0.1,0,0.1s0,0.1-0.1,0.1L41.1,40
		c0.1,0.1,0.1,0.1,0.1,0.2c0,0.1,0,0.2,0,0.4c0,0.1,0,0.3,0,0.3V41v0.1l0.1,0.1c0,0.1,0,0.2,0,0.4v0.1v0.1v0.1V42c0,0.1,0,0.2,0,0.3
		c0,0,0,0.1,0.1,0.1s0,0,0,0.1l0,0c0,0,0,0,0,0.1s0,0.2,0,0.2c0,0.1,0,0.1,0,0.2s0,0.1,0,0.1s0,0,0,0.1v0.1c0,0,0,0,0.1,0.1v0.1v0.1
		v0.1c0,0,0,0,0,0.1v0.1c0,0,0,0,0,0.1l0.1,0.1l0.1,0.1c-0.1,0.1-0.1,0.2,0.1,0.3v0.1c0,0,0,0.1,0.1,0.1s0.1,0.1,0.1,0.1l0.2,0.2
		c0.1,0.1,0.2,0.2,0.4,0.4s0.3,0.3,0.3,0.3c0.1,0,0.1,0,0.1,0c0.2,0.3,0.4,0.4,0.6,0.4c0.1,0.1,0.1,0.1,0.2,0.1c0,0,0.1,0,0.2,0
		c0.1,0,0.1,0,0.2,0l0.1,0.1l0.1,0.1h0.1h0.1c0,0,0,0,0.1,0h0.1c0.2,0,0.4,0,0.5,0c0,0,0.1,0,0.1-0.1c0.1-0.1,0.1-0.1,0.2-0.1
		c0.1,0,0.1,0,0.2,0c0,0,0.1,0,0.1-0.1L46,46c0,0,0.1,0,0.2,0c0.1-0.1,0.2-0.1,0.3-0.1c0.1-0.1,0.2-0.2,0.4-0.3s0.3-0.3,0.5-0.3
		c0,0,0-0.1,0.1-0.1l0.1-0.1c0,0,0,0,0-0.1s0.1-0.1,0.2-0.2c0.1-0.1,0.1-0.1,0.1-0.1s0.1-0.1,0.1-0.2c0.1-0.1,0.1-0.1,0.1-0.2
		c0,0,0-0.1,0.1-0.1C48,44,48,44,48,43.9c0.1-0.1,0.1-0.2,0.2-0.2v-0.1c0,0,0.1-0.2,0.3-0.4c0,0,0-0.1,0.1-0.1c0,0,0.1-0.2,0.1-0.4
		c0-0.1,0.1-0.1,0.2-0.2v-0.1c0,0,0,0,0-0.1c0,0,0,0,0.1-0.1v-0.1c0-0.1,0-0.1,0-0.1c0.1-0.1,0.2-0.3,0.3-0.7v-0.2V41
		c0-0.1,0-0.1,0-0.1c0.1-0.1,0.1-0.1,0.1-0.2c0,0,0-0.1-0.1-0.1l-0.1-0.1c0-0.1,0-0.1,0.1-0.2c0.1-0.1,0.1-0.1,0.1-0.2
		c0-0.1,0-0.1,0-0.2c0-0.1,0-0.2,0-0.2v-0.1v-0.1l-0.1-0.1l-0.1-0.1c0.1-0.1,0.1-0.1,0.1-0.1v-0.1V39c0-0.1,0-0.1,0-0.2
		c0-0.1,0-0.2,0-0.2v-0.1v-0.1c0,0,0-0.1-0.1-0.1c0-0.1,0-0.1-0.1-0.1L49,38.1c0-0.1,0-0.1,0.1-0.2c0-0.1,0-0.1,0-0.1v-0.1v-0.1
		c0-0.1,0-0.1,0-0.1c0-0.1,0-0.1,0-0.1c-0.1,0-0.1-0.1-0.1-0.3s-0.1-0.3-0.1-0.3s0-0.1,0-0.2c0-0.1,0-0.1,0-0.2
		c-0.1-0.1-0.2-0.2-0.2-0.3c-0.3-0.5-0.6-0.9-1.1-1.4h-0.2c0-0.1-0.1-0.2-0.2-0.2h-0.1l-0.2-0.1l-0.1-0.1c-0.1-0.1-0.2-0.1-0.2-0.1
		s-0.1,0-0.2,0c-0.1,0-0.1,0-0.1,0c-0.1-0.1-0.2-0.1-0.3-0.1s-0.2,0-0.3,0s-0.2,0-0.3,0c-0.1-0.2-0.2-0.2-0.3-0.2
		c-0.1-0.1-0.1-0.2,0-0.2c0,0,0-0.1,0.1-0.1l0.1-0.1c0-0.1,0-0.1-0.1-0.1S45.1,33.4,45.1,33.4C45.1,33.5,45.1,33.4,45.1,33.4z"/>
	<path fill="#BF9000" d="M59.4,31c0,0,0.1,0,0.2,0.1c0,0,0.1,0,0.2,0s0.1,0,0.2,0h0.1c0,0,0,0,0.1,0c0,0,0,0,0.1,0h0.1
		c0.1,0.2,0.1,0.2,0.3,0.2l0.3,0.2c0,0.1,0,0.1,0.1,0.2s0.1,0.1,0.1,0.1c0.1,0,0.1,0,0.2,0.1c0.1,0.1,0.1,0.1,0.2,0.1h0.1h0.1
		c0.2-0.1,0.3-0.1,0.3-0.1s0.1,0,0.2,0c0,0,0.1,0,0.2,0c0.1,0,0.1,0,0.2,0c0,0,0.1,0,0.1,0.1l0.1,0.1c0,0,0.1,0,0.2,0
		c0.1,0,0.1,0,0.2,0c0,0,0.1,0,0.2,0.1c0.1,0.1,0.2,0.1,0.3,0.1c0,0,0,0.1,0.1,0.1s0.2,0,0.3,0.1s0.1,0.1,0.2,0.1h0.1
		c0.3,0.2,0.5,0.3,0.7,0.3h0.2c0,0.1-0.1,0.1-0.2,0V33c0,0.1,0.1,0.2,0.3,0.3c0.2,0.1,0.3,0.2,0.3,0.3s0.1,0.1,0.2,0.2
		c0.2,0.2,0.3,0.3,0.3,0.4c0.1,0.1,0.2,0.2,0.2,0.3s0.1,0.1,0.2,0.2c0.1,0.1,0.1,0.2,0.1,0.3c0.1,0.2,0.2,0.3,0.2,0.3s0,0.1,0.1,0.1
		c0.1,0.1,0.1,0.2,0.1,0.3l0.1,0.1c0,0.1,0,0.1,0.1,0.3s0.1,0.4,0.1,0.4c0,0.2,0.1,0.3,0.1,0.3s0,0.1,0.1,0.3c-0.1,0-0.1,0.1,0,0.2
		c0.1,0.1,0.1,0.2,0.1,0.2v0.1v0.1c0,0,0,0,0,0.1v0.1c0,0.1,0,0.2,0,0.3s0,0.2,0,0.3s0,0.1,0,0.1v0.1c0,0,0,0.1,0.1,0.2
		c0,0,0,0,0,0.1s0,0,0,0.1C68,39.2,68,39.5,68,40s0,0.9,0,1c0,0,0,0.1,0,0.2c0,0.1,0,0.2,0,0.2s0,0.1-0.1,0.2
		c-0.1,0.1-0.1,0.2,0,0.2c0,0,0,0.1,0,0.2c0,0.1,0,0.1,0,0.2c-0.1,0-0.2,0.1-0.2,0.1c0,0.3,0,0.4,0,0.4v0.1l-0.1,0.1V43
		c-0.1,0.2-0.1,0.2-0.1,0.3c0,0,0,0.1-0.1,0.1h-0.1c0,0,0,0,0,0.1l-0.1,0.1c0,0.1-0.1,0.1-0.1,0.2l-0.2,0.3c0,0.1-0.1,0.2-0.2,0.4
		s-0.2,0.3-0.2,0.4c-0.1,0.1-0.2,0.3-0.2,0.4c0,0-0.1,0-0.2,0.1c0,0.1,0,0.1-0.1,0.2c-0.1,0.1-0.1,0.2-0.1,0.3
		c-0.1,0-0.1,0.1-0.2,0.2c-0.1,0.1-0.1,0.2-0.2,0.2c0,0-0.1,0.1-0.1,0.2c-0.1,0.1-0.1,0.2-0.1,0.2c0,0.1,0,0.1-0.1,0.2
		c-0.2,0.1-0.3,0.2-0.5,0.3c-0.1,0.1-0.1,0.2-0.2,0.2c-0.1,0.1-0.1,0.2-0.3,0.2c-0.1,0.1-0.2,0.2-0.3,0.2c0,0,0,0-0.1,0
		c0,0,0,0-0.1,0l-0.1,0.1C63.5,48,63.5,48,63.5,48c-0.1,0-0.2,0-0.2,0.1c-0.1,0-0.1,0-0.3,0.1c-0.1,0-0.1,0-0.2,0
		c-0.1,0-0.1,0-0.2,0c0,0-0.1,0.1-0.2,0.2c-0.2,0-0.3,0-0.3,0c0,0.1-0.1,0.1-0.2,0.1c-0.1,0-0.2,0.1-0.2,0.2c-0.1,0-0.3,0-0.6,0
		s-0.5,0-0.7,0c-0.1,0-0.1,0-0.3,0s-0.2,0-0.3,0c0,0-0.1-0.1-0.1-0.2c-0.1,0-0.1,0-0.2,0.1c0,0.1-0.1,0.1-0.1,0.1s0,0,0-0.1l0,0
		c0,0-0.1,0-0.1-0.1c-0.1,0-0.1-0.1-0.1-0.1c-0.2,0.1-0.3,0-0.5-0.1s-0.3-0.1-0.4-0.1v-0.1c0,0-0.1,0-0.2-0.1
		c-0.1-0.1-0.2-0.1-0.4-0.1v-0.1l-0.1-0.1c-0.1-0.1-0.1-0.1-0.1-0.1c-0.1,0-0.1,0-0.1-0.1c0,0,0,0-0.1-0.1c0,0,0,0-0.1-0.1
		c0,0,0,0-0.1,0c0,0,0,0-0.1,0s0,0,0,0l0,0c0,0-0.1,0-0.1-0.1c0,0-0.1,0-0.1-0.1C56.7,47,56.7,47,56.7,47c-0.1,0-0.1,0-0.1,0
		c-0.1-0.1-0.1-0.1-0.2-0.3c-0.1-0.1-0.2-0.2-0.2-0.3h-0.1c-0.3-0.3-0.4-0.5-0.4-0.6c0,0-0.1-0.1-0.2-0.3V45l-0.1-0.1
		c-0.1-0.1-0.1-0.1-0.1-0.1c0-0.2-0.1-0.5-0.2-0.7c0-0.1,0-0.2-0.1-0.2c0-0.1,0-0.1,0-0.1s0,0,0-0.1v-0.1v-0.1l-0.1-0.1
		c0,0,0-0.2,0-0.4v-0.1v-0.1c0,0-0.1,0-0.1-0.1v-0.1c0-0.1,0-0.1,0-0.3c0-0.1,0-0.3,0-0.3s-0.1,0-0.1-0.1c0,0,0-0.1,0-0.2v-0.1
		c0,0,0-0.1-0.1-0.1c0-0.1,0-0.1,0-0.1c-0.1-0.1-0.1-0.1-0.1-0.2s0-0.1,0-0.1V41c0.1-0.1,0-0.2-0.1-0.3c0,0,0-0.1,0-0.2v-0.1
		l0.2-0.2c0-0.1,0-0.2,0-0.5s0-0.5,0-0.6s0-0.1,0-0.2c0-0.1,0-0.1,0-0.1c0-0.1,0-0.2,0-0.3s0-0.3,0-0.4c0-0.1,0.1-0.2,0.1-0.2v-0.1
		v-0.1v-0.1l0.1-0.1c0,0,0-0.1,0-0.3s0-0.3,0-0.4c0-0.3,0-0.4,0-0.5c0,0,0.1,0,0.1-0.1c0.1-0.1,0.1-0.1,0.2-0.1c0-0.1,0-0.1,0-0.1
		v-0.1l0.1-0.1v-0.1c0-0.1,0-0.1,0-0.1c0.1-0.1,0.1-0.1,0.1-0.1c0-0.1,0-0.2,0-0.3c0-0.2,0-0.2,0.1-0.3h0.1h0.1c0-0.1,0-0.1-0.1-0.1
		c0,0-0.1,0-0.1-0.1l0.1-0.2c0,0,0.1-0.1,0.1-0.2c0.1-0.1,0.1-0.1,0.1-0.2c0,0,0,0,0-0.1c0,0,0,0,0-0.1c0.1-0.1,0.1-0.2,0.1-0.3
		c0.1,0,0.1-0.1,0.1-0.2c0-0.1,0.1-0.1,0.1-0.2c0-0.1,0-0.2,0.1-0.3s0.1-0.1,0.1-0.2v-0.1v-0.1c0-0.1,0-0.1,0.1-0.2
		c0.1-0.1,0.1-0.2,0.1-0.2c0.1,0,0.2-0.1,0.3-0.3c0.1,0,0.2-0.1,0.2-0.3c0-0.1,0-0.1,0-0.2c0.1,0.1,0.2,0,0.3-0.1
		c0.1,0,0.1-0.1,0.1-0.1h0.1c0.1,0,0.1-0.1,0.2-0.1c0.1-0.1,0.1-0.1,0.2-0.1c0.1,0,0.3-0.1,0.5-0.3c0.1,0,0.2,0,0.2-0.1
		c0.1-0.1,0.1-0.1,0.2-0.1l0,0c0,0,0,0,0-0.1c0.1,0.1,0.2,0,0.3-0.1c0.1,0,0.1,0,0.2,0c0.1,0,0.2,0,0.3,0s0.1,0,0.3,0
		S59.3,31,59.4,31z M58.8,31.1c0.1,0,0.1,0,0.3,0s0.2,0,0.3,0c0,0,0.1,0,0.2,0.1c0,0,0.1,0,0.2,0s0.1,0,0.2,0h0.1c0,0,0,0,0.1,0
		c0,0,0,0,0.1,0h0.1c0.1,0.2,0.1,0.2,0.3,0.2l0.3,0.2c0,0.1,0,0.1,0.1,0.2s0.1,0.1,0.1,0.1c0.1,0,0.1,0,0.2,0.1
		c0.1,0.1,0.1,0.1,0.2,0.1h0.1h0.1C62,32,62.1,32,62.1,32s0.1,0,0.2,0c0,0,0.1,0,0.2,0c0.1,0,0.1,0,0.2,0c0,0,0.1,0,0.1,0.1l0.1,0.1
		c0,0,0.1,0,0.2,0c0.1,0,0.1,0,0.2,0c0,0,0.1,0,0.2,0.1c0.1,0.1,0.2,0.1,0.3,0.1c0,0,0,0.1,0.1,0.1s0.2,0,0.3,0.1
		c0.1,0.1,0.1,0.1,0.2,0.1h0.1c0.3,0.2,0.5,0.3,0.7,0.3h0.2c0,0.1-0.1,0.1-0.2,0v0.1c0,0.1,0.1,0.2,0.3,0.3c0.2,0.1,0.3,0.2,0.3,0.3
		s0.1,0.1,0.2,0.2c0.2,0.2,0.3,0.3,0.3,0.4c0.1,0.1,0.2,0.2,0.2,0.3s0.1,0.1,0.2,0.2c0.1,0.1,0.1,0.2,0.1,0.3
		c0.1,0.2,0.2,0.3,0.2,0.3s0,0.1,0.1,0.1c0.1,0.1,0.1,0.2,0.1,0.3l0.1,0.1c0,0.1,0,0.1,0.1,0.3s0.1,0.4,0.1,0.4
		c0,0.2,0.1,0.3,0.1,0.3s0,0.1,0.1,0.3c-0.1,0-0.1,0.1,0,0.2c0.1,0.1,0.1,0.2,0.1,0.2v0.1v0.1c0,0,0,0,0,0.1V38c0,0.1,0,0.2,0,0.3
		s0,0.2,0,0.3s0,0.1,0,0.1v0.1c0,0,0,0.1,0.1,0.2c0,0,0,0,0,0.1s0,0,0,0.1c0.1,0.1,0.1,0.4,0.1,0.9s0,0.9,0,1c0,0,0,0.1,0,0.2
		c0,0.1,0,0.2,0,0.2s0,0.1-0.1,0.2c-0.1,0.1-0.1,0.2,0,0.2c0,0,0,0.1,0,0.2c0,0.1,0,0.1,0,0.2c-0.1,0-0.2,0.1-0.2,0.1
		c0,0.3,0,0.4,0,0.4v0.1L67.6,43v0.1c-0.1,0.2-0.1,0.2-0.1,0.3c0,0,0,0.1-0.1,0.1h-0.1c0,0,0,0,0,0.1l-0.1,0.1
		c0,0.1-0.1,0.1-0.1,0.2l-0.2,0.3c0,0.1-0.1,0.2-0.2,0.4s-0.2,0.3-0.2,0.4c-0.1,0.1-0.2,0.3-0.2,0.4c0,0-0.1,0-0.2,0.1
		c0,0.1,0,0.1-0.1,0.2c-0.1,0.1-0.1,0.2-0.1,0.3c-0.1,0-0.1,0.1-0.2,0.2c-0.1,0.1-0.1,0.2-0.2,0.2c0,0-0.1,0.1-0.1,0.2
		c-0.1,0.1-0.1,0.2-0.1,0.2c0,0.1,0,0.1-0.1,0.2c-0.2,0.1-0.3,0.2-0.5,0.3c-0.1,0.1-0.1,0.2-0.2,0.2c-0.1,0.1-0.1,0.2-0.3,0.2
		c-0.1,0.1-0.2,0.2-0.3,0.2c0,0,0,0-0.1,0c0,0,0,0-0.1,0L63.6,48c-0.1,0.1-0.1,0.1-0.1,0.1c-0.1,0-0.2,0-0.2,0.1
		c-0.1,0-0.1,0-0.3,0.1c-0.1,0-0.1,0-0.2,0c-0.1,0-0.1,0-0.2,0c0,0-0.1,0.1-0.2,0.2c-0.2,0-0.3,0-0.3,0c0,0.1-0.1,0.1-0.2,0.1
		c-0.1,0-0.2,0.1-0.2,0.2c-0.1,0-0.3,0-0.6,0s-0.5,0-0.7,0c-0.1,0-0.1,0-0.3,0s-0.2,0-0.3,0c0,0-0.1-0.1-0.1-0.2
		c-0.1,0-0.1,0-0.2,0.1c0,0.1-0.1,0.1-0.1,0.1s0,0,0-0.1l0,0c0,0-0.1,0-0.1-0.1c-0.1,0-0.1-0.1-0.1-0.1c-0.2,0.1-0.3,0-0.5-0.1
		s-0.3-0.1-0.4-0.1v-0.1c0,0-0.1,0-0.2-0.1C58,48,57.9,48,57.7,48v-0.1l-0.1-0.1c-0.1-0.1-0.1-0.1-0.1-0.1c-0.1,0-0.1,0-0.1-0.1
		c0,0,0,0-0.1-0.1c0,0,0,0-0.1-0.1c0,0,0,0-0.1,0c0,0,0,0-0.1,0s0,0,0,0l0,0c0,0-0.1,0-0.1-0.1c0,0-0.1,0-0.1-0.1
		c-0.1-0.1-0.1-0.1-0.1-0.1c-0.1,0-0.1,0-0.1,0c-0.1-0.1-0.1-0.1-0.2-0.3c-0.1-0.1-0.2-0.2-0.2-0.3h-0.1c-0.3-0.3-0.4-0.5-0.4-0.6
		c0,0-0.1-0.1-0.2-0.3V45l-0.1-0.1c-0.1-0.1-0.1-0.1-0.1-0.1c0-0.2-0.1-0.5-0.2-0.7c0-0.1,0-0.2-0.1-0.2c0-0.1,0-0.1,0-0.1
		s0,0,0-0.1v-0.1v-0.1l-0.1-0.1c0,0,0-0.2,0-0.4v-0.1v-0.1c0,0-0.1,0-0.1-0.1v-0.1c0-0.1,0-0.1,0-0.3c0-0.1,0-0.3,0-0.3
		s-0.1,0-0.1-0.1c0,0,0-0.1,0-0.2v-0.1c0,0,0-0.1-0.1-0.1c0-0.1,0-0.1,0-0.1c-0.1-0.1-0.1-0.1-0.1-0.2s0-0.1,0-0.1V41
		c0.1-0.1,0-0.2-0.1-0.3c0,0,0-0.1,0-0.2v-0.1l0.2-0.2c0-0.1,0-0.2,0-0.5s0-0.5,0-0.6s0-0.1,0-0.2c0-0.1,0-0.1,0-0.1
		c0-0.1,0-0.2,0-0.3s0-0.3,0-0.4c0-0.1,0.1-0.2,0.1-0.2v-0.1v-0.1v-0.1l0.1-0.1c0,0,0-0.1,0-0.3s0-0.3,0-0.4c0-0.3,0-0.4,0-0.5
		c0,0,0.1,0,0.1-0.1c0.1-0.1,0.1-0.1,0.2-0.1c0-0.1,0-0.1,0-0.1v-0.1l0.1-0.1v-0.1c0-0.1,0-0.1,0-0.1c0.1-0.1,0.1-0.1,0.1-0.1
		c0-0.1,0-0.2,0-0.3c0-0.2,0-0.2,0.1-0.3h0.1h0.1c0-0.1,0-0.1-0.1-0.1c0,0-0.1,0-0.1-0.1l0.1-0.2c0,0,0.1-0.1,0.1-0.2
		c0.1-0.1,0.1-0.1,0.1-0.2c0,0,0,0,0-0.1c0,0,0,0,0-0.1c0.1-0.1,0.1-0.2,0.1-0.3c0.1,0,0.1-0.1,0.1-0.2c0-0.1,0.1-0.1,0.1-0.2
		c0-0.1,0-0.2,0.1-0.3s0.1-0.1,0.1-0.2v-0.1v-0.1c0-0.1,0-0.1,0.1-0.2c0.1-0.1,0.1-0.2,0.1-0.2c0.1,0,0.2-0.1,0.3-0.3
		c0.1,0,0.2-0.1,0.2-0.3c0-0.1,0-0.1,0-0.2c0.1,0.1,0.2,0,0.3-0.1c0.1,0,0.1-0.1,0.1-0.1h0.1c0.1,0,0.1-0.1,0.2-0.1
		c0.1-0.1,0.1-0.1,0.2-0.1c0.1,0,0.3-0.1,0.5-0.3c0.1,0,0.2,0,0.2-0.1c0.1-0.1,0.1-0.1,0.2-0.1l0,0c0,0,0,0,0-0.1
		c0.1,0.1,0.2,0,0.3-0.1c0.1,0,0.1,0,0.2,0C58.7,31,58.8,31,58.8,31.1z M59.3,33.5c-0.2,0.1-0.3,0.2-0.5,0.3s-0.3,0.2-0.4,0.3
		c-0.1,0.1-0.3,0.3-0.3,0.4L58,34.6c-0.1,0.1-0.1,0.1-0.1,0.1v0.1c0,0,0,0.1-0.1,0.1L57.7,35c0,0-0.1,0.1-0.2,0.3
		c0,0.1,0,0.1-0.1,0.2c-0.1,0.1-0.1,0.1-0.1,0.1c0,0.1,0,0.1,0,0.1s0,0.1-0.1,0.1v0.1c0,0.1,0,0.1,0,0.1v0.1c-0.1,0.1-0.1,0.1,0,0.2
		c-0.1,0.1-0.2,0.2-0.2,0.4c-0.1,0.1-0.1,0.3-0.1,0.5c-0.1,0.1-0.1,0.2-0.1,0.4c-0.2,0.2-0.2,0.4-0.1,0.6c0,0,0,0-0.1,0.1
		c0,0-0.1,0-0.1,0.1s0,0.2,0,0.3c-0.1,0.1-0.1,0.2,0,0.3c-0.1,0.1-0.1,0.2-0.1,0.5v0.1c0,0.1,0,0.1,0,0.1s0,0.1-0.1,0.1l-0.1,0.1
		c0.1,0.1,0.1,0.1,0.1,0.2c0,0.1,0,0.2,0,0.4c0,0.1,0,0.3,0,0.3v0.1V41l0.1,0.1c0,0.1,0,0.2,0,0.4v0.1v0.1v0.1v0.1
		c0,0.1,0,0.2,0,0.3c0,0,0,0.1,0.1,0.1s0,0,0,0.1l0,0c0,0,0,0,0,0.1s0,0.2,0,0.2c0,0.1,0,0.1,0,0.2s0,0.1,0,0.1s0,0,0,0.1v0.1
		c0,0,0,0,0.1,0.1v0.1v0.1v0.1c0,0,0,0,0,0.1v0.1c0,0,0,0,0,0.1l0.1,0.1l0.1,0.1c-0.1,0.1-0.1,0.2,0.1,0.3v0.1c0,0,0,0.1,0.1,0.1
		s0.1,0.1,0.1,0.1l0.2,0.2c0.1,0.1,0.2,0.2,0.4,0.4s0.3,0.3,0.3,0.3c0.1,0,0.1,0,0.1,0c0.2,0.3,0.4,0.4,0.6,0.4
		c0.1,0.1,0.1,0.1,0.2,0.1s0.1,0,0.2,0c0.1,0,0.1,0,0.2,0l0.1,0.1l0.1,0.1h0.1h0.1c0,0,0,0,0.1,0h0.1c0.2,0,0.4,0,0.5,0
		c0,0,0.1,0,0.1-0.1c0.1-0.1,0.1-0.1,0.2-0.1c0.1,0,0.1,0,0.2,0c0,0,0.1,0,0.1-0.1l0.1-0.1c0,0,0.1,0,0.2,0c0.1-0.1,0.2-0.1,0.3-0.1
		c0.1-0.1,0.2-0.2,0.4-0.3s0.3-0.3,0.5-0.3c0,0,0-0.1,0.1-0.1l0.1-0.1c0,0,0,0,0-0.1s0.1-0.1,0.2-0.2c0.1-0.1,0.1-0.1,0.1-0.1
		s0.1-0.1,0.1-0.2c0.1-0.1,0.1-0.1,0.1-0.2c0,0,0-0.1,0.1-0.1s0.1-0.1,0.1-0.1c0.1-0.1,0.1-0.2,0.2-0.2v-0.1c0,0,0.1-0.2,0.3-0.4
		c0,0,0-0.1,0.1-0.1c0,0,0.1-0.2,0.1-0.4c0-0.1,0.1-0.1,0.2-0.2v-0.1c0,0,0,0,0-0.1c0,0,0,0,0.1-0.1v-0.1c0-0.1,0-0.1,0-0.1
		c0.1-0.1,0.2-0.3,0.3-0.7v-0.2v-0.1c0-0.1,0-0.1,0-0.1c0.1-0.1,0.1-0.1,0.1-0.2c0,0,0-0.1-0.1-0.1l-0.1-0.1c0-0.1,0-0.1,0.1-0.2
		c0.1-0.1,0.1-0.1,0.1-0.2c0-0.1,0-0.1,0-0.2c0-0.1,0-0.2,0-0.2v-0.1v-0.1l-0.1-0.1l-0.1-0.1c0.1-0.1,0.1-0.1,0.1-0.1v-0.1v-0.1
		c0-0.1,0-0.1,0-0.2c0-0.1,0-0.2,0-0.2v-0.1v-0.1c0,0,0-0.1-0.1-0.1c0-0.1,0-0.1-0.1-0.1l-0.1-0.1c0-0.1,0-0.1,0.1-0.2
		c0-0.1,0-0.1,0-0.1v-0.1v-0.1c0-0.1,0-0.1,0-0.1c0-0.1,0-0.1,0-0.1c-0.1,0-0.1-0.1-0.1-0.3s-0.1-0.3-0.1-0.3s0-0.1,0-0.2
		c0-0.1,0-0.1,0-0.2c-0.1-0.1-0.2-0.2-0.2-0.3c-0.3-0.5-0.6-0.9-1.1-1.4h-0.2c0-0.1-0.1-0.2-0.2-0.2h-0.1l-0.2-0.1l-0.1-0.1
		c-0.1-0.1-0.2-0.1-0.2-0.1s-0.1,0-0.2,0c-0.1,0-0.1,0-0.1,0c-0.1-0.1-0.2-0.1-0.3-0.1s-0.2,0-0.3,0s-0.2,0-0.3,0
		C60.7,34,60.6,34,60.5,34c-0.1-0.1-0.1-0.2,0-0.2c0,0,0-0.1,0.1-0.1l0.1-0.1c0-0.1,0-0.1-0.1-0.1s-0.1,0-0.1,0
		c0-0.1-0.1-0.2-0.1-0.2c-0.1,0-0.2,0-0.4,0C59.6,33.4,59.4,33.4,59.3,33.5z M60.2,33.4c-0.1,0-0.2,0-0.4,0s-0.3,0-0.5,0
		c-0.2,0.1-0.3,0.2-0.5,0.3s-0.3,0.2-0.4,0.3c-0.1,0.1-0.3,0.3-0.3,0.4L58,34.5c-0.1,0.1-0.1,0.1-0.1,0.1v0.1c0,0,0,0.1-0.1,0.1
		l-0.1,0.1c0,0-0.1,0.1-0.2,0.3c0,0.1,0,0.1-0.1,0.2c-0.1,0.1-0.1,0.1-0.1,0.1c0,0.1,0,0.1,0,0.2c0,0,0,0.1-0.1,0.1v0.1
		c0,0.1,0,0.1,0,0.1v0.1c-0.1,0.1-0.1,0.1,0,0.2c-0.1,0.1-0.2,0.2-0.2,0.4c-0.1,0.1-0.1,0.3-0.1,0.5c-0.1,0.1-0.1,0.2-0.1,0.4
		c-0.2,0.2-0.2,0.4-0.1,0.6c0,0,0,0-0.1,0.1c0,0-0.1,0-0.1,0.1s0,0.2,0,0.3c-0.1,0.1-0.1,0.2,0,0.3c-0.1,0.1-0.1,0.2-0.1,0.5v0.1
		c0,0.1,0,0.1,0,0.1s0,0.1-0.1,0.1l-0.1,0.1c0.1,0.1,0.1,0.1,0.1,0.2c0,0.1,0,0.2,0,0.4c0,0.1,0,0.3,0,0.3v0.1V41l0.1,0.1
		c0,0.1,0,0.2,0,0.4v0.1v0.1v0.1v0.1c0,0.1,0,0.2,0,0.3c0,0,0,0.1,0.1,0.1s0,0,0,0.1l0,0c0,0,0,0,0,0.1s0,0.2,0,0.2
		c0,0.1,0,0.1,0,0.2s0,0.1,0,0.1s0,0,0,0.1v0.1c0,0,0,0,0.1,0.1v0.1v0.1v0.1c0,0,0,0,0,0.1v0.1c0,0,0,0,0,0.1l0.1,0.1l0.1,0.1
		c-0.1,0.1-0.1,0.2,0.1,0.3v0.1c0,0,0,0.1,0.1,0.1s0.1,0.1,0.1,0.1l0.2,0.2c0.1,0.1,0.2,0.2,0.4,0.4s0.3,0.3,0.3,0.3
		c0.1,0,0.1,0,0.1,0c0.2,0.3,0.4,0.4,0.6,0.4c0.1,0.1,0.1,0.1,0.2,0.1s0.1,0,0.2,0c0.1,0,0.1,0,0.2,0l0.1,0.1l0.1,0.1h0.1h0.1
		c0,0,0,0,0.1,0h0.1c0.2,0,0.4,0,0.5,0c0,0,0.1,0,0.1-0.1c0.1-0.1,0.1-0.1,0.2-0.1c0.1,0,0.1,0,0.2,0c0,0,0.1,0,0.1-0.1l0.1-0.1
		c0,0,0.1,0,0.2,0c0.1-0.1,0.2-0.1,0.3-0.1c0.1-0.1,0.2-0.2,0.4-0.3s0.3-0.3,0.5-0.3c0,0,0-0.1,0.1-0.1l0.1-0.1c0,0,0,0,0-0.1
		s0.1-0.1,0.2-0.2c0.1-0.1,0.1-0.1,0.1-0.1s0.1-0.1,0.1-0.2c0.1-0.1,0.1-0.1,0.1-0.2c0,0,0-0.1,0.1-0.1s0.1-0.1,0.1-0.1
		c0.1-0.1,0.1-0.2,0.2-0.2v-0.1c0,0,0.1-0.2,0.3-0.4c0,0,0-0.1,0.1-0.1c0,0,0.1-0.2,0.1-0.4c0-0.1,0.1-0.1,0.2-0.2v-0.1
		c0,0,0,0,0-0.1c0,0,0,0,0.1-0.1v-0.1c0-0.1,0-0.1,0-0.1c0.1-0.1,0.2-0.3,0.3-0.7v-0.2v-0.1c0-0.1,0-0.1,0-0.1
		c0.1-0.1,0.1-0.1,0.1-0.2c0,0,0-0.1-0.1-0.1l-0.1-0.1c0-0.1,0-0.1,0.1-0.2c0.1-0.1,0.1-0.1,0.1-0.2c0-0.1,0-0.1,0-0.2
		c0-0.1,0-0.2,0-0.2v-0.1v-0.1l-0.1-0.1l-0.1-0.1c0.1-0.1,0.1-0.1,0.1-0.1v-0.1v-0.1c0-0.1,0-0.1,0-0.2c0-0.1,0-0.2,0-0.2v-0.1v-0.1
		c0,0,0-0.1-0.1-0.1c0-0.1,0-0.1-0.1-0.1l-0.1-0.1c0-0.1,0-0.1,0.1-0.2c0-0.1,0-0.1,0-0.1v-0.1v-0.1c0-0.1,0-0.1,0-0.1
		c0-0.1,0-0.1,0-0.1c-0.1,0-0.1-0.1-0.1-0.3s-0.1-0.3-0.1-0.3s0-0.1,0-0.2c0-0.1,0-0.1,0-0.2c-0.1-0.1-0.2-0.2-0.2-0.3
		c-0.3-0.5-0.6-0.9-1.1-1.4h-0.2c0-0.1-0.1-0.2-0.2-0.2h-0.1l-0.2-0.1l-0.1-0.1c-0.1-0.1-0.2-0.1-0.2-0.1s-0.1,0-0.2,0
		c-0.1,0-0.1,0-0.1,0c-0.1-0.1-0.2-0.1-0.3-0.1s-0.2,0-0.3,0s-0.2,0-0.3,0C60.7,34,60.6,34,60.5,34c-0.1-0.1-0.1-0.2,0-0.2
		c0,0,0-0.1,0.1-0.1l0.1-0.1c0-0.1,0-0.1-0.1-0.1s-0.1,0-0.1,0C60.2,33.5,60.2,33.4,60.2,33.4z"/>
	<path fill="#BF9000" d="M81.4,29.4c0.1,0.2,0.1,0.3,0.3,0.3c0,0.1,0,0.2,0.1,0.3c0,0.1,0,0.1,0.1,0.1v0.1v0.1c0,0,0,0.1,0.1,0.2
		c0,0.1,0.1,0.2,0.1,0.2c0.1,0.1,0.1,0.2,0.2,0.3c0.1,0,0.1,0,0.1,0c0,0.1,0,0.1,0,0.2l0.1,0.3v0.1c0,0.1,0,0.1,0.1,0.1
		c0.1,0.1,0.1,0.2,0.1,0.2V32c0,0.1,0.1,0.2,0.1,0.3c0,0.2,0.1,0.3,0.1,0.3c0,0.1,0,0.1,0,0.2C83,32.9,83,32.9,83,33
		c0,0.2,0.1,0.3,0.1,0.3c0,0.1,0,0.2,0.1,0.4c0,0,0,0.1,0,0.2s0,0.2,0.1,0.3c0,0.1,0,0.1,0,0.1s0.1,0.1,0.1,0.3s0.1,0.2,0.1,0.3
		s0,0.1,0,0.2c0,0.1,0,0.2,0,0.2l0.1,0.1l0.1,0.1c0,0,0,0.1,0,0.2c0,0.1,0,0.1,0,0.2c0,0,0,0,0,0.1s0.1,0,0.1,0.1
		c-0.1,0.1-0.1,0.2-0.1,0.2c0,0.1,0,0.1,0,0.3c0,0.1,0,0.1,0,0.2c0,0,0,0.1,0.1,0.2c0,0.1,0,0.1,0,0.1v0.1c0,0.1,0,0.2,0.1,0.3
		s0.1,0.1,0.1,0.1v0.1v0.1c0,0,0,0.1,0.1,0.2c0,0.1,0,0.1,0,0.2c0,0.1,0,0.2,0,0.2c0.1,0.1,0.1,0.2,0.1,0.2c0,0.2,0,0.3,0,0.3
		c0.1,0.1,0.1,0.2,0.1,0.3c0,0.2,0.1,0.3,0.1,0.3c0,0.1,0,0.1,0,0.2c0,0,0,0,0,0.1v0.1c0,0,0,0.1,0.1,0.2c0,0.1,0.1,0.1,0.1,0.2
		c0,0.1,0,0.2,0.1,0.2c0,0.2,0,0.4,0.2,0.5v0.1c0,0,0,0.1,0.1,0.1c0,0.1,0,0.2,0,0.3l0.1,0.1c0,0,0,0.1,0,0.2c0,0.1,0,0.1,0,0.2
		l0.1,0.1v0.1c0,0.2,0.1,0.3,0.1,0.3c0,0.2,0,0.3,0.1,0.3c0,0.1,0,0.2,0.1,0.3c0,0.1,0,0.1,0,0.2c0,0.1,0,0.1,0,0.2
		c0.1,0.1,0.1,0.1,0.1,0.1s0,0,0,0.1v0.1c0,0,0,0.1,0.1,0.1l0.1,0.1c0,0,0,0,0,0.1s0,0.1,0,0.1s0,0,0,0.1s0,0,0,0s0,0,0,0.1v0.1
		c0.1,0,0.1,0.1,0.1,0.1s0.1,0.1,0.1,0.2c0.1,0.1,0.1,0.2,0.2,0.2v0.1c0,0.1,0,0.1,0,0.1c0.1,0.1,0.2,0.1,0.2,0.2v0.1
		c-0.1,0.1-0.1,0.1,0,0.2c0,0,0,0,0.1,0.1s0.1,0,0.1,0.1c0,0,0,0.1-0.1,0.1c-0.1,0.1-0.1,0.1-0.1,0.2v0.1v0.1c0.1,0,0.1,0.1,0.1,0.1
		c0,0.1-0.1,0.1-0.2,0.1l0,0l0,0c0,0-0.1,0.1-0.3,0.2c-0.1,0.1-0.2,0.2-0.2,0.2s0,0,0,0.1c-0.1,0-0.1,0-0.2,0c0,0,0,0.1-0.1,0.1
		c0,0.1,0,0.1-0.1,0c0,0,0,0,0-0.1c0,0,0,0,0-0.1c0,0-0.1,0-0.2,0.1c-0.1,0-0.1,0-0.2,0.1c-0.2,0-0.2,0-0.3,0v-0.1
		c-0.1,0-0.1,0-0.2,0s-0.1,0-0.2,0c0-0.1-0.1-0.1-0.1-0.1l0,0c0,0,0,0-0.1,0s0,0,0-0.1l0,0c0,0,0,0-0.1,0c-0.2-0.2-0.3-0.3-0.3-0.3
		h-0.1c-0.1,0-0.1-0.1-0.2-0.2c-0.1-0.1-0.1-0.1-0.1-0.2c0-0.1,0-0.2-0.1-0.3c0-0.1,0-0.2-0.1-0.3C83,45,83,44.9,83,44.8
		c0,0,0-0.1-0.1-0.1c0,0,0,0,0-0.1c0,0,0,0,0-0.1c-0.1-0.1-0.1-0.2-0.2-0.3c-0.1-0.2-0.1-0.3-0.2-0.3c0-0.2,0-0.4-0.1-0.4
		c0-0.1,0-0.2-0.1-0.3c0-0.1,0-0.1-0.1-0.1c0,0,0-0.1,0-0.2c0-0.1,0-0.2-0.1-0.2H82v-0.1c0-0.1,0-0.1-0.1-0.2c0-0.1-0.1-0.1-0.1-0.2
		v-0.1V42c0,0,0-0.1-0.1-0.1c0-0.1-0.1-0.1-0.1-0.1c0-0.1,0-0.1,0-0.1s0,0,0-0.1v-0.1v-0.1c0-0.1,0-0.1,0-0.1v-0.1
		c0-0.1,0-0.1,0-0.2c-0.1,0-0.1-0.1-0.1-0.1c0-0.1,0-0.2-0.1-0.3c0-0.1,0-0.2-0.2-0.3c0-0.1,0-0.1-0.1-0.3c-0.1-0.1,0-0.2,0.1-0.2
		c0-0.1,0-0.2,0-0.2c0-0.1-0.1-0.1-0.1,0H81v-0.1c0,0,0-0.2-0.1-0.4c-0.1-0.1-0.1-0.2-0.1-0.3c0,0,0-0.1-0.1-0.2v-0.1
		c0-0.1,0-0.1,0-0.2c0-0.1,0-0.1,0-0.2V38v-0.1c0-0.2,0-0.3,0-0.3s0,0-0.1,0c0,0,0,0-0.1,0c0,0,0-0.1,0-0.2c0-0.1,0-0.2,0-0.3
		L80.4,37c0-0.1,0-0.1,0-0.1s0-0.1,0-0.2c0-0.1,0-0.1,0-0.2h-0.1h-0.1c0-0.1,0-0.1,0.1-0.1l0,0c0,0,0-0.1,0-0.2c0-0.1,0-0.2,0-0.2
		c0-0.1,0-0.1,0-0.1v-0.1c0,0,0-0.1-0.1-0.1c0,0,0-0.1,0-0.2c0-0.1,0-0.1,0-0.2l-0.1-0.1v-0.1V35v-0.1c0-0.1-0.1-0.1-0.2-0.3
		c-0.1,0.1-0.2,0.2-0.2,0.3c0.3,0.5,0.3,0.6,0.3,0.7s0,0.1,0,0.1s0,0.1-0.1,0.1c0,0.1-0.1,0.1-0.1,0.1c-0.1,0-0.1,0.1-0.1,0.3
		s0,0.2-0.1,0.3c0,0.1,0,0.2,0,0.4l-0.1,0.3c-0.1,0.1-0.1,0.1-0.1,0.1c0,0.1,0,0.1,0,0.2c-0.1,0.4-0.1,0.6,0,0.7l-0.1,0.1
		c0,0,0,0.1,0,0.2c0,0.1,0,0.2,0,0.2s0,0.1-0.1,0.2c0,0.1,0,0.2,0,0.2v0.1v0.1v0.1c0,0.3-0.1,0.4-0.1,0.5s0,0.4,0,0.7s0,0.5,0,0.7
		s0,0.2,0.1,0.3c-0.1,0-0.2,0.1-0.3,0.2c-0.1,0.1-0.2,0.2-0.2,0.2v0.1l0,0c0,0,0,0-0.1,0s0,0-0.1,0s-0.1,0-0.1,0.1s-0.1,0.1-0.1,0.2
		c-0.1,0-0.2,0-0.3,0c0,0,0,0-0.1,0.1c0,0,0,0.1-0.1,0.1s-0.1-0.1-0.2-0.2c-0.1,0-0.1,0-0.2,0s-0.2,0-0.2,0
		c-0.1-0.2-0.2-0.2-0.3-0.3c-0.1-0.1-0.1-0.1-0.1-0.2c0-0.1-0.1-0.1-0.2-0.2c-0.1-0.1-0.2-0.1-0.2-0.1L76,41.1c0-0.1,0-0.2-0.1-0.3
		s-0.1-0.2-0.1-0.3c0,0-0.1,0-0.1-0.1c0,0,0,0,0-0.1v-0.1c0,0-0.1-0.1-0.1-0.2c-0.1-0.1-0.1-0.2-0.2-0.2v-0.1c0,0-0.1-0.1-0.2-0.2
		c-0.1-0.1-0.1-0.2-0.2-0.3c-0.1,0-0.1-0.1-0.2-0.2c-0.1-0.1-0.2-0.2-0.2-0.2s-0.1,0-0.1-0.1s-0.1-0.1-0.1-0.2c0-0.1,0-0.1-0.1-0.2
		c-0.1,0-0.1,0-0.1,0c-0.1-0.2-0.2-0.3-0.3-0.4c-0.1-0.2-0.2-0.3-0.3-0.4c0,0,0,0,0-0.1s0,0,0-0.1l-0.2-0.2c0,0,0,0,0-0.1h-0.1
		l-0.1-0.1l-0.1-0.1c0,0-0.1,0-0.1-0.1c0,0,0,0,0-0.1s-0.1-0.2-0.2-0.3s-0.1-0.1-0.1-0.1s-0.1,0-0.1-0.1S72.5,36,72.5,36
		s-0.1,0-0.1,0.1s0,0.3,0,0.6v0.1c0,0.1,0,0.1,0,0.1V37c0,0.1,0,0.2,0,0.4s0,0.3,0,0.3c0,0.1,0,0.2,0,0.3s0,0.2,0,0.3s0,0.2,0.1,0.2
		c0,0,0,0,0,0.1c0,0,0,0,0,0.1s0,0.1,0,0.2c0,0.1,0,0.2,0,0.2c0.1,0,0.1,0,0.1,0h0.1c0,0.1,0,0.1-0.1,0.2c-0.1,0.1-0.1,0.1-0.1,0.2
		c0,0,0,0,0,0.1c0,0,0,0,0.1,0.1c0,0.1-0.1,0.1-0.1,0.1c0,0.1,0,0.2,0,0.5c0,0.2,0,0.4,0,0.5s0.1,0.2,0.2,0.2l-0.1,0.1
		c0,0,0,0,0,0.1s0,0,0,0.1v0.1c0,0.1,0,0.1,0,0.1s0,0,0,0.1v0.1c-0.1,0.1-0.1,0.1-0.1,0.1V42c0,0.1,0,0.1,0,0.2c0,0.1,0,0.2,0.1,0.2
		v0.2v0.1v0.1c0,0,0,0,0,0.1c0,0,0,0,0,0.1c-0.1,0-0.1,0-0.1,0.1s0,0.1,0.1,0.2c0,0.2,0,0.5,0,0.7s0,0.4,0,0.7c0,0.2,0,0.5,0,0.7
		v0.1c0,0,0,0.1,0.1,0.1c0,0.1,0.1,0.1,0.1,0.1c0,0.1,0,0.2,0,0.3s0,0.3,0,0.3c0,0.1,0.1,0.1,0.2,0.1c-0.1,0.1-0.2,0.1-0.2,0.2
		s0.1,0.1,0.2,0.1c0,0,0,0,0,0.1s-0.1,0-0.1,0.1L73,47c0.1,0.2,0.1,0.3,0,0.4v0.1c0,0,0,0,0,0.1c0,0,0,0,0,0.1l0.1,0.1v0.1
		c0,0,0,0.1-0.1,0.2c-0.1,0.1-0.1,0.1,0,0.2c-0.1,0.1-0.2,0.2-0.2,0.3l-0.1,0.1c0,0.1-0.1,0.1-0.1,0.1s0-0.1-0.1-0.1
		c0,0,0-0.1-0.1-0.1s-0.1,0.1-0.2,0.3c0,0.1-0.1,0.1-0.1,0.1s-0.1,0-0.2,0c0,0,0,0,0,0.1s0,0.1,0,0.1c-0.1,0-0.1,0-0.2-0.1
		s-0.1-0.1-0.2-0.2c0,0,0,0,0,0.1c-0.1,0-0.2,0-0.2,0c-0.1-0.1-0.1-0.1-0.2-0.1c-0.1-0.2-0.2-0.2-0.3-0.1c0,0-0.1-0.1-0.2-0.1
		c0-0.2-0.1-0.3-0.4-0.5V48c-0.1,0-0.1-0.1-0.1-0.2c0-0.1-0.1-0.2-0.2-0.2c0.1-0.2,0.1-0.4,0-0.5c0.1-0.1,0.1-0.2,0-0.4
		c0-0.1,0-0.1,0-0.2c-0.1,0-0.1-0.1-0.1-0.2h0.1c0.1-0.1,0.1-0.2,0-0.3c0-0.1,0-0.1,0-0.2c0,0,0-0.1,0-0.2c0-0.1,0-0.2,0-0.2
		c0-0.1,0-0.1,0-0.1s0,0,0-0.1v-0.1V45l-0.1-0.1c0-0.1,0-0.2,0-0.4s0-0.4,0-0.4c0-0.1,0-0.2,0.1-0.2c-0.1-0.2-0.1-0.4-0.1-0.6
		l0.1-0.1v-0.1V43c0-0.1,0-0.1-0.1-0.2c0,0,0-0.1,0-0.2c0-0.1,0-0.1,0-0.2c0-0.1-0.1-0.1-0.2-0.2c0-0.1,0-0.1,0.1-0.1
		c0,0,0.1,0,0.1-0.1s0-0.3,0-0.4c0-0.2,0-0.4,0-0.5c-0.1-0.1-0.1-0.1,0-0.2c0-0.1,0-0.1,0-0.2c0-0.1,0-0.1,0-0.2c0,0,0-0.1,0-0.2
		c0-0.1,0-0.2,0-0.2s0-0.1-0.1-0.1l-0.1-0.1c0-0.1,0-0.2,0-0.3c-0.1-0.1-0.1-0.3,0-0.4v-0.1V39v-0.1c0,0,0-0.1,0-0.3s0-0.3-0.1-0.3
		c0,0,0,0,0-0.1s0,0,0-0.1c-0.1-0.1-0.1-0.1-0.1-0.2c0,0,0,0,0.1-0.1c0,0,0.1,0,0.1-0.1c0,0,0-0.1-0.1-0.1v-0.8h-0.1l0,0
		c0-0.1,0-0.1,0.1-0.2c-0.1-0.1-0.1-0.2-0.1-0.4s0-0.3-0.1-0.4c-0.1,0-0.1,0-0.1,0c0.1-0.1,0.1-0.2,0.1-0.2c0-0.1-0.1-0.1-0.2-0.3
		c0.1-0.1,0.1-0.2,0.1-0.3c0-0.2,0-0.3,0.1-0.4C69,34.5,69,34.4,69,34.2c-0.1-0.1-0.2-0.3-0.1-0.5c-0.1-0.1-0.1-0.3,0-0.4
		c-0.1-0.1-0.1-0.2-0.1-0.2V33v-0.1v-0.1v-0.1c0,0,0-0.1,0.1-0.1c0-0.2,0.1-0.4,0.3-0.6l0.1-0.1c0.1,0,0.1-0.1,0.1-0.1
		c0.1-0.1,0.1-0.1,0-0.2v-0.1c0,0,0-0.1,0-0.2s0-0.1,0-0.2c0,0-0.1-0.1-0.3-0.1c0-0.1,0-0.1,0.1-0.2c0-0.1,0-0.2,0-0.5
		c0-0.2,0-0.4,0-0.4s0.1,0,0.2,0s0.2,0,0.2-0.1s0-0.1,0-0.1c0-0.1-0.1-0.1-0.1-0.1s0-0.1,0.1-0.1s0.1-0.1,0.1-0.1
		c0.3,0,0.4,0,0.4-0.1c0.1,0,0.2,0,0.3-0.1h0.1h0.1c0.1,0,0.1,0,0.1,0c0.1,0,0.1,0,0.2,0.1s0.1,0.1,0.2,0.1c0,0,0,0,0.1,0s0,0,0.1,0
		h0.1c0.1,0,0.1,0,0.2,0c0.1,0.1,0.2,0.2,0.3,0.3c0,0,0,0.1,0.1,0.1v0.1c0.1,0,0.1,0,0.1,0.1l0.1,0.1l0.1,0.2c0,0.1,0,0.2,0.1,0.3
		c0,0.1,0,0.1,0,0.1s0,0,0.1,0.1l0.1,0.1V31c0,0,0,0,0,0.1s0,0,0,0.1v0.1c0,0,0.1,0,0.1,0.1s0.1,0.1,0.1,0.1c0,0.1,0,0.2,0.1,0.3
		v0.1c0.3,0.4,0.4,0.6,0.5,0.7c0.1,0,0.1,0.1,0.2,0.1v0.1c0,0.1,0.1,0.1,0.2,0.2c0,0.1,0,0.1,0.1,0.2c0,0,0.1,0.1,0.2,0.2v0.1v0.1
		l0.1,0.1c0.1,0.1,0.1,0.1,0.1,0.1l0.1,0.1c0,0.1,0.1,0.1,0.1,0.1v0.1h0.1v0.1c0.2,0.2,0.3,0.3,0.4,0.3v0.1v0.1
		c0.1,0,0.1,0.1,0.2,0.3c0,0,0,0,0.1,0c0,0,0,0,0.1,0v0.1l0.1,0.1l0.1,0.1v0.1c0,0,0.1,0.1,0.2,0.2c0,0,0,0,0,0.1s0,0,0,0.1
		c0.1,0,0.1,0.1,0.2,0.1c0.1,0.1,0.1,0.1,0.1,0.3c0.2,0.1,0.3,0.1,0.3,0.1c0,0.1,0,0.1,0,0.1s0.1,0.1,0.2,0.2
		c0.1,0.1,0.1,0.2,0.2,0.2c0,0,0.1,0,0.1,0.1C77,37,77,37,77.1,37c0.1-0.2,0.1-0.3,0.2-0.3c0-0.2,0-0.3,0-0.3v-0.1v-0.1
		c0,0,0-0.1,0-0.3s0-0.3,0-0.3c0.1-0.1,0.1-0.2,0.2-0.3c-0.1-0.2-0.1-0.3,0.1-0.4c0.1-0.3,0.2-0.4,0.3-0.5c0-0.1,0.1-0.3,0.1-0.6
		c0.1-0.1,0.1-0.2,0.2-0.2c0,0,0-0.1,0-0.2c0.1,0,0.1-0.1,0.1-0.2c0-0.1,0.1-0.1,0.1-0.2c0-0.1,0-0.1,0-0.2c0-0.1,0-0.1,0-0.1
		s0,0-0.1,0h-0.1h0.1c0.1,0,0.1-0.2,0.1-0.5c0.1-0.1,0.1-0.2,0.1-0.2c0.1,0,0.1-0.1,0.2-0.1c0-0.2,0-0.2,0-0.3
		c0.1-0.1,0.1-0.1,0.1-0.2c0.1,0,0.2-0.1,0.2-0.2v-0.1V31v-0.1c0,0,0,0,0-0.1c0,0,0,0,0-0.1s0-0.1,0-0.2v-0.2
		c0.1-0.1,0.1-0.1,0.1-0.3c0-0.1,0-0.2-0.1-0.2c0.1-0.1,0.1-0.3,0.1-0.6c0-0.1,0.1-0.2,0.3-0.3c0.1,0,0.1-0.1,0.1-0.1
		c0-0.1,0-0.2,0-0.2s0,0,0.1,0h0.1c0,0,0,0,0.1-0.1c0.1,0,0.2,0,0.3-0.1c0.1,0,0.1,0,0.2-0.1c0.1,0,0.1-0.1,0.2-0.1h0.1
		c0.1,0,0.1,0.1,0.1,0.1c0.1,0,0.1,0,0.1,0h0.1c0,0,0.1,0,0.1,0.1c0,0,0,0,0,0.1h0.1h0.1c0.1,0,0.1,0.1,0.2,0.2s0.1,0.2,0.2,0.2h0.1
		C81.3,29.3,81.3,29.3,81.4,29.4z M81.1,29.3L81.1,29.3c0.2,0,0.2,0,0.2,0c0.1,0.2,0.1,0.3,0.3,0.3c0,0.1,0,0.2,0.1,0.3
		c0,0.1,0,0.1,0.1,0.1v0.1v0.1c0,0,0,0.1,0.1,0.2c0,0.1,0.1,0.2,0.1,0.2c0.1,0.1,0.1,0.2,0.2,0.3c0.1,0,0.1,0,0.1,0
		c0,0.1,0,0.1,0,0.2l0.1,0.3v0.1c0,0.1,0,0.1,0.1,0.1c0.1,0.1,0.1,0.2,0.1,0.2V32c0,0.1,0.1,0.2,0.1,0.3c0,0.2,0.1,0.3,0.1,0.3
		c0,0.1,0,0.1,0,0.2c0.1,0.1,0.1,0.1,0.1,0.2c0,0.2,0.1,0.3,0.1,0.3c0,0.1,0,0.2,0.1,0.4c0,0,0,0.1,0,0.2s0,0.2,0.1,0.3
		c0,0.1,0,0.1,0,0.1s0.1,0.1,0.1,0.3s0.1,0.2,0.1,0.3s0,0.1,0,0.2c0,0.1,0,0.2,0,0.2l0.1,0.1l0.1,0.1c0,0,0,0.1,0,0.2
		c0,0.1,0,0.1,0,0.2c0,0,0,0,0,0.1s0.1,0,0.1,0.1c-0.1,0.1-0.1,0.2-0.1,0.2c0,0.1,0,0.1,0,0.3c0,0.1,0,0.1,0,0.2c0,0,0,0.1,0.1,0.2
		c0,0.1,0,0.1,0,0.1v0.1c0,0.1,0,0.2,0.1,0.3s0.1,0.1,0.1,0.1v0.1v0.1c0,0,0,0.1,0.1,0.2c0,0.1,0,0.1,0,0.2c0,0.1,0,0.2,0,0.2
		c0.1,0.1,0.1,0.2,0.1,0.2c0,0.2,0,0.3,0,0.3c0.1,0.1,0.1,0.2,0.1,0.3c0,0.2,0.1,0.3,0.1,0.3c0,0.1,0,0.1,0,0.2c0,0,0,0,0,0.1v0.1
		c0,0,0,0.1,0.1,0.2c0,0.1,0.1,0.1,0.1,0.2c0,0.1,0,0.2,0.1,0.2c0,0.2,0,0.4,0.2,0.5v0.1c0,0,0,0.1,0.1,0.1c0,0.1,0,0.2,0,0.3
		l0.1,0.1c0,0,0,0.1,0,0.2c0,0.1,0,0.1,0,0.2l0.1,0.1v0.1c0,0.2,0.1,0.3,0.1,0.3c0,0.2,0,0.3,0.1,0.3c0,0.1,0,0.2,0.1,0.3
		c0,0.1,0,0.1,0,0.2c0,0.1,0,0.1,0,0.2c0.1,0.1,0.1,0.1,0.1,0.1s0,0,0,0.1v0.1c0,0,0,0.1,0.1,0.1l0.1,0.1c0,0,0,0,0,0.1s0,0.1,0,0.1
		s0,0,0,0.1s0,0,0,0s0,0,0,0.1v0.1c0.1,0,0.1,0.1,0.1,0.1s0.1,0.1,0.1,0.2C86,44.9,86,45,86.1,45v0.1c0,0.1,0,0.1,0,0.1
		c0.1,0.1,0.2,0.1,0.2,0.2v0.1c-0.1,0.1-0.1,0.1,0,0.2c0,0,0,0,0.1,0.1s0.1,0,0.1,0.1c0,0,0,0.1-0.1,0.1c-0.1,0.1-0.1,0.1-0.1,0.2
		v0.1v0.1c0.1,0,0.1,0.1,0.1,0.1c0,0.1-0.1,0.1-0.2,0.1l0,0l0,0c0,0-0.1,0.1-0.3,0.2c-0.1,0.1-0.2,0.2-0.2,0.2s0,0,0,0.1
		c-0.1,0-0.1,0-0.2,0c0,0,0,0.1-0.1,0.1c0,0.1,0,0.1-0.1,0c0,0,0,0,0-0.1c0,0,0,0,0-0.1c0,0-0.1,0-0.2,0.1c-0.1,0-0.1,0-0.2,0.1
		h-0.2c0,0-0.1,0-0.1-0.1c-0.1,0-0.1,0-0.2,0s-0.1,0-0.2,0c0-0.1-0.1-0.1-0.1-0.1l0,0c0,0,0,0-0.1,0s0,0,0-0.1l0,0c0,0,0,0-0.1,0
		c-0.2-0.2-0.3-0.3-0.3-0.3h-0.1c-0.1,0-0.1-0.1-0.2-0.2c-0.1-0.1-0.1-0.1-0.1-0.2c0-0.1,0-0.2-0.1-0.3c0-0.1,0-0.2-0.1-0.3
		c0-0.6,0-0.7,0-0.8c0,0,0-0.1-0.1-0.1c0,0,0,0,0-0.1c0,0,0,0,0-0.1c-0.1-0.1-0.1-0.2-0.2-0.3c-0.1-0.2-0.1-0.3-0.2-0.3
		c0-0.2,0-0.4-0.1-0.4c0-0.1,0-0.2-0.1-0.3c0-0.1,0-0.1-0.1-0.1c0,0,0-0.1,0-0.2c0-0.1,0-0.2-0.1-0.2H82v-0.1c0-0.1,0-0.1-0.1-0.2
		c0-0.1-0.1-0.1-0.1-0.2v-0.1V42c0,0,0-0.1-0.1-0.1c0-0.1-0.1-0.1-0.1-0.1c0-0.1,0-0.1,0-0.1s0,0,0-0.1v-0.1v-0.1c0-0.1,0-0.1,0-0.1
		v-0.1c0-0.1,0-0.1,0-0.2c-0.1,0-0.1-0.1-0.1-0.1c0-0.1,0-0.2-0.1-0.3c0-0.1,0-0.2-0.2-0.3c0-0.1,0-0.1-0.1-0.3
		c-0.1-0.1,0-0.2,0.1-0.2c0-0.1,0-0.2,0-0.2c0-0.1-0.1-0.1-0.1,0H81v-0.1c0,0,0-0.2-0.1-0.4c-0.1-0.1-0.1-0.2-0.1-0.3
		c0,0,0-0.1-0.1-0.2v-0.1c0-0.1,0-0.1,0-0.2c0-0.1,0-0.1,0.1-0.2L80.7,38v-0.1c0-0.2,0-0.3,0-0.3s0,0-0.1,0c0,0,0,0-0.1,0
		c0,0,0-0.1,0-0.2c0-0.1,0-0.2,0-0.3L80.4,37c0-0.1,0-0.1,0-0.1s0-0.1,0-0.2c0-0.1,0-0.1,0-0.2h-0.1h-0.1c0-0.1,0-0.1,0.1-0.1l0,0
		c0,0,0-0.1,0-0.2c0-0.1,0-0.2,0-0.2c0-0.1,0-0.1,0-0.1v-0.1c0,0,0-0.1-0.1-0.1c0,0,0-0.1,0-0.2c0-0.1,0-0.1,0-0.2l-0.1-0.1v-0.1V35
		v-0.1c0-0.1-0.1-0.1-0.2-0.3c-0.1,0.1-0.2,0.2-0.2,0.3c0.3,0.5,0.3,0.6,0.3,0.7s0,0.1,0,0.1s0,0.1-0.1,0.1c0,0.1-0.1,0.1-0.1,0.1
		c-0.1,0-0.1,0.1-0.1,0.3s0,0.2-0.1,0.3c0,0.1,0,0.2,0,0.4l-0.1,0.3c-0.1,0.1-0.1,0.1-0.1,0.1c0,0.1,0,0.1,0,0.2
		c-0.1,0.4-0.1,0.6,0,0.7l-0.1,0.1c0,0,0,0.1,0,0.2c0,0.1,0,0.2,0,0.2s0,0.1-0.1,0.2c0,0.1,0,0.2,0,0.2v0.1v0.1v0.1
		c0,0.3-0.1,0.4-0.1,0.5s0,0.4,0,0.7s0,0.5,0,0.7s0,0.2,0.1,0.3c-0.1,0-0.2,0.1-0.3,0.2c-0.1,0.1-0.2,0.2-0.2,0.2v0.1l0,0
		c0,0,0,0-0.1,0s0,0-0.1,0s-0.1,0-0.1,0.1s-0.1,0.1-0.1,0.2c-0.1,0-0.2,0-0.3,0c0,0,0,0-0.1,0.1c0,0,0,0.1-0.1,0.1s-0.1-0.1-0.2-0.2
		c-0.1,0-0.1,0-0.2,0s-0.2,0-0.2,0c-0.1-0.2-0.2-0.2-0.3-0.3c-0.1-0.1-0.1-0.1-0.1-0.2c0-0.1-0.1-0.1-0.2-0.2
		c-0.1-0.1-0.2-0.1-0.2-0.1L76,41.1c0-0.1,0-0.2-0.1-0.3s-0.1-0.2-0.1-0.3c0,0-0.1,0-0.1-0.1c0,0,0,0,0-0.1v-0.1
		c0,0-0.1-0.1-0.1-0.2c-0.1-0.1-0.1-0.2-0.2-0.2v-0.1c0,0-0.1-0.1-0.2-0.2c-0.1-0.1-0.1-0.2-0.2-0.3c-0.1,0-0.1-0.1-0.2-0.2
		c-0.1-0.1-0.2-0.2-0.2-0.2s-0.1,0-0.1-0.1s-0.1-0.1-0.1-0.2c0-0.1,0-0.1-0.1-0.2c-0.1,0-0.1,0-0.1,0c-0.1-0.2-0.2-0.3-0.3-0.4
		c-0.1-0.2-0.2-0.3-0.3-0.4c0,0,0,0,0-0.1s0,0,0-0.1l-0.2-0.2C73.3,37,73.3,37,73.3,37l-0.1-0.1l-0.1-0.1L73,36.7
		c0-0.1-0.1-0.2-0.2-0.3s-0.1-0.1-0.1-0.1s-0.1,0-0.1-0.1s-0.1-0.1-0.1-0.1l-0.1,0.1c0,0.1,0,0.3,0,0.6v0.1c0,0.1,0,0.1,0,0.1v0.1
		c0,0.1,0,0.2,0,0.4s0,0.3,0,0.3c0,0.1,0,0.2,0,0.3s0,0.2,0,0.3s0,0.2,0.1,0.2c0,0,0,0,0,0.1c0,0,0,0,0,0.1s0,0.1,0,0.2
		c0,0.1,0,0.2,0,0.2c0.1,0,0.1,0,0.1,0h0.1c0,0.1,0,0.1-0.1,0.2c-0.1,0.1-0.1,0.1-0.1,0.2c0,0,0,0,0,0.1c0,0,0,0,0.1,0.1
		c0,0.1-0.1,0.1-0.1,0.1c0,0.1,0,0.2,0,0.5c0,0.2,0,0.4,0,0.5s0.1,0.2,0.2,0.2l-0.1,0.1c0,0,0,0,0,0.1s0,0,0,0.1v0.1
		c0,0.1,0,0.1,0,0.1s0,0,0,0.1v0.1c-0.1,0.1-0.1,0.1-0.1,0.1V42c0,0.1,0,0.1,0,0.2c0,0.1,0,0.2,0.1,0.2v0.2v0.1v0.1v0.1
		c-0.1,0-0.1,0-0.1,0.1s0,0.1,0.1,0.2c0,0.2,0,0.5,0,0.7s0,0.4,0,0.7c0,0.2,0,0.5,0,0.7v0.1c0,0,0,0.1,0.1,0.1
		c0,0.1,0.1,0.1,0.1,0.1c0,0.1,0,0.2,0,0.3s0,0.3,0,0.3c0,0.1,0.1,0.1,0.2,0.1c-0.1,0.1-0.2,0.1-0.2,0.2s0.1,0.1,0.2,0.1
		c0,0,0,0,0,0.1s-0.1,0-0.1,0.1l0.1,0.1c0.1,0.2,0.1,0.3,0,0.4v0.1c0,0,0,0,0,0.1c0,0,0,0,0,0.1l0.1,0.1v0.1c0,0,0,0.1-0.1,0.2
		c-0.1,0.1-0.1,0.1,0,0.2c-0.1,0.1-0.2,0.2-0.2,0.3l-0.1,0.1c0,0.1-0.1,0.1-0.1,0.1s0-0.1-0.1-0.1c0,0,0-0.1-0.1-0.1
		s-0.1,0.1-0.2,0.3c0,0.1-0.1,0.1-0.1,0.1s-0.1,0-0.2,0c0,0,0,0,0,0.1s0,0.1,0,0.1c-0.1,0-0.1,0-0.2-0.1s-0.1-0.1-0.2-0.2
		c0,0,0,0,0,0.1c-0.1,0-0.2,0-0.2,0c-0.1-0.1-0.1-0.1-0.2-0.1c-0.1-0.2-0.2-0.2-0.3-0.1c0,0-0.1-0.1-0.2-0.1c0-0.2-0.1-0.3-0.4-0.5
		v-0.2c-0.1,0-0.1-0.1-0.1-0.2c0-0.1-0.1-0.2-0.2-0.2c0.1-0.2,0.1-0.4,0-0.5c0.1-0.1,0.1-0.2,0-0.4c0-0.1,0-0.1,0-0.2
		c-0.1,0-0.1-0.1-0.1-0.2h0.1c0.1-0.1,0.1-0.2,0-0.3c0-0.1,0-0.1,0-0.2c0,0,0-0.1,0-0.2c0-0.1,0-0.2,0-0.2c0-0.1,0-0.1,0-0.1
		s0,0,0-0.1V45v-0.1l-0.1-0.1c0,0,0-0.2,0-0.4s0-0.4,0-0.5s0-0.2,0.1-0.2c-0.1-0.2-0.1-0.4-0.1-0.6l0.1-0.1v-0.1v-0.1
		c0-0.1,0-0.1-0.1-0.2c0,0,0-0.1,0-0.2c0-0.1,0-0.1,0-0.2c0-0.1-0.1-0.1-0.2-0.2c0,0,0-0.1,0.1-0.1l0.1-0.1c0-0.1,0-0.3,0-0.4
		c0-0.2,0-0.4,0-0.5c-0.1-0.1-0.1-0.1,0-0.2c0-0.1,0-0.1,0-0.2c0-0.1,0-0.1,0-0.2c0,0,0-0.1,0-0.2c0-0.1,0-0.2,0-0.2s0-0.1-0.1-0.1
		l-0.1-0.1c0-0.1,0-0.2,0-0.3c-0.1-0.1-0.1-0.3,0-0.4v-0.1v-0.1v-0.1c0,0,0-0.1,0-0.3s0-0.3-0.1-0.3c0,0,0,0,0-0.1s0,0,0-0.1
		c-0.1-0.1-0.1-0.1-0.1-0.2c0,0,0,0,0.1-0.1c0,0,0.1,0,0.1-0.1c0,0,0-0.1-0.1-0.1c0-0.5,0-0.7,0-0.8h-0.1l0,0c0-0.1,0-0.1,0.1-0.2
		c-0.1-0.1-0.1-0.2-0.1-0.4s0-0.3-0.1-0.4c-0.1,0-0.1,0-0.1,0c0.1-0.1,0.1-0.2,0.1-0.2c0-0.1-0.1-0.1-0.2-0.3
		c0.1-0.1,0.1-0.2,0.1-0.3c0-0.2,0-0.3,0.1-0.4c-0.3,0.1-0.3,0-0.3-0.2c-0.1-0.1-0.2-0.3-0.1-0.5c-0.1-0.1-0.1-0.3,0-0.4
		c-0.1-0.1-0.1-0.2-0.1-0.2V33v-0.1v-0.1v-0.1c0,0,0-0.1,0.1-0.1c0-0.2,0.1-0.4,0.3-0.6l0.1-0.1c0.1,0,0.1-0.1,0.1-0.1
		c0.1-0.1,0.1-0.1,0-0.2v-0.1c0,0,0-0.1,0-0.2s0-0.1,0-0.2c0,0-0.1-0.1-0.3-0.1c0-0.1,0-0.1,0.1-0.2c0-0.1,0-0.2,0-0.5
		c0-0.2,0-0.4,0-0.4s0.1,0,0.2,0s0.2,0,0.2-0.1s0-0.1,0-0.1c0-0.1-0.1-0.1-0.1-0.1l0.1-0.1c0.1,0,0.1-0.1,0.1-0.1
		c0.3,0,0.4,0,0.4-0.1c0.1,0,0.2,0,0.3-0.1h0.1h0.1c0.1,0,0.1,0,0.1,0c0.1,0,0.1,0,0.2,0.1s0.1,0.1,0.2,0.1c0,0,0,0,0.1,0s0,0,0.1,0
		h0.1c0.1,0,0.1,0,0.2,0c0.1,0.1,0.2,0.2,0.3,0.3c0,0,0,0.1,0.1,0.1v0.1c0.1,0,0.1,0,0.1,0.1l0.1,0.1l0.1,0.2c0,0.1,0,0.2,0.1,0.3
		c0,0.1,0,0.1,0.1,0.1c0,0,0,0,0.1,0.1v0.1V31c0,0,0,0,0,0.1s0,0,0,0.1v0.1c0,0,0.1,0,0.1,0.1s0.1,0.1,0.1,0.1c0,0.1,0,0.2,0.1,0.3
		v0.1c0.3,0.4,0.4,0.6,0.5,0.8c0.1,0,0.1,0,0.2,0.1v0.1c0,0.1,0.1,0.1,0.2,0.2c0,0.1,0,0.1,0.1,0.2c0,0,0.1,0.1,0.2,0.2
		c0,0,0,0.1,0,0.2l0.1,0.1c0.1,0.1,0.1,0.1,0.1,0.1l0.1,0.1c0,0.1,0.1,0.1,0.1,0.2c0.1,0.1,0.1,0.1,0.1,0.1v0.1
		c0.2,0.2,0.3,0.3,0.4,0.3v0.1v0.1c0.1,0,0.1,0.1,0.2,0.3c0,0,0,0,0.1,0c0,0,0,0,0.1,0v0.1l0.1,0.1l0.1,0.1v0.1c0,0,0.1,0.1,0.2,0.2
		c0,0,0,0,0,0.1s0,0,0,0.1c0.1,0,0.1,0.1,0.2,0.1c0.1,0.1,0.1,0.1,0.1,0.3c0.2,0.1,0.3,0.1,0.3,0.1c0,0.1,0,0.1,0,0.1
		s0.1,0.1,0.2,0.2c0.1,0.1,0.1,0.2,0.2,0.2c0,0,0.1,0,0.1,0.1c0.1,0.1,0.1,0.1,0.2,0.1c0.1-0.2,0.1-0.3,0.2-0.3c0-0.2,0-0.3,0-0.3
		v-0.1v-0.1c0,0,0-0.1,0-0.3s0-0.3,0-0.3c0.1-0.1,0.1-0.2,0.2-0.3c-0.1-0.2-0.1-0.3,0.1-0.4c0.1-0.3,0.2-0.4,0.3-0.5
		c0-0.1,0.1-0.3,0.1-0.6c0.1-0.1,0.1-0.2,0.2-0.2c0,0,0-0.1,0-0.2c0.1,0,0.1-0.1,0.1-0.2c0-0.1,0.1-0.1,0.1-0.2c0-0.1,0-0.1,0-0.2
		c0-0.1,0-0.1,0-0.1s0,0-0.1,0h-0.1h0.1c0.1,0,0.1-0.2,0.1-0.5c0.1-0.1,0.1-0.2,0.1-0.2c0.1,0,0.1-0.1,0.2-0.1c0-0.2,0-0.2,0-0.3
		c0.1-0.1,0.1-0.1,0.1-0.2c0.1,0,0.2-0.1,0.2-0.2v-0.1v-0.1v-0.1c0,0,0,0,0-0.1c0,0,0,0,0-0.1s0-0.1,0-0.2v-0.2
		c0.1-0.1,0.1-0.1,0.1-0.3c0-0.1,0-0.2-0.1-0.2c0.1-0.1,0.1-0.3,0.1-0.6c0-0.1,0.1-0.2,0.3-0.3c0.1,0,0.1-0.1,0.1-0.1
		c0-0.1,0-0.2,0-0.2s0,0,0.1,0h0.1c0,0,0,0,0.1-0.1c0.1,0,0.2,0,0.3-0.1c0.1,0,0.1,0,0.2-0.1c0.1,0,0.1-0.1,0.2-0.1h0.1
		c0.1,0,0.1,0.1,0.1,0.1c0.1,0,0.1,0,0.1,0h0.1c0,0,0.1,0,0.1,0.1c0,0,0,0,0,0.1h0.1h0.1c0.1,0,0.1,0.1,0.2,0.2
		C81,29.2,81.1,29.3,81.1,29.3z M69.4,40.8L69.4,40.8L69.4,40.8C69.4,40.9,69.4,40.9,69.4,40.8L69.4,40.8z M69.4,40.8L69.4,40.8
		L69.4,40.8L69.4,40.8C69.4,40.9,69.4,40.9,69.4,40.8z M78.6,30.9C78.6,30.9,78.5,30.9,78.6,30.9c0-0.1,0-0.1,0-0.1
		S78.6,30.8,78.6,30.9L78.6,30.9z M78.6,30.8L78.6,30.8c0,0.1,0,0.1,0,0.1S78.5,30.9,78.6,30.8C78.5,30.8,78.6,30.8,78.6,30.8z"/>
	<path fill="#BF9000" d="M32,56.8c0.1,0,0.1,0,0.3,0s0.2,0,0.3,0c0,0,0.1,0,0.2,0.1c0,0,0.1,0,0.2,0c0.1,0,0.1,0,0.2,0h0.1
		c0,0,0,0,0.1,0s0,0,0.1,0h0.1c0.1,0.2,0.1,0.2,0.3,0.2l0.3,0.2c0,0.1,0,0.1,0.1,0.2c0.1,0.1,0.1,0.1,0.1,0.1c0.1,0,0.1,0,0.2,0.1
		c0.1,0.1,0.1,0.1,0.2,0.1h0.1H35c0.2-0.1,0.3-0.1,0.3-0.1s0.1,0,0.2,0c0,0,0.1,0,0.2,0c0.1,0,0.1,0,0.2,0c0,0,0.1,0,0.1,0.1
		l0.1,0.1c0,0,0.1,0,0.2,0c0.1,0,0.1,0,0.2,0c0,0,0.1,0,0.2,0.1c0.1,0.1,0.2,0.1,0.3,0.1c0,0,0,0.1,0.1,0.1s0.2,0,0.3,0.1
		s0.1,0.1,0.2,0.1h0.1c0.3,0.2,0.5,0.3,0.7,0.3h0.2c0,0.1-0.1,0.1-0.2,0v0.1c0,0.1,0.1,0.2,0.3,0.3s0.3,0.2,0.3,0.3s0.1,0.1,0.2,0.2
		c0.2,0.2,0.3,0.3,0.3,0.4c0.1,0.1,0.2,0.2,0.2,0.3s0.1,0.1,0.2,0.2c0.1,0.1,0.1,0.2,0.1,0.3c0.1,0.2,0.2,0.3,0.2,0.3s0,0.1,0.1,0.1
		c0.1,0.1,0.1,0.2,0.1,0.3l0.1,0.1c0,0.1,0,0.1,0.1,0.3s0.1,0.4,0.1,0.4c0,0.2,0.1,0.3,0.1,0.3s0,0.1,0.1,0.3c-0.1,0-0.1,0.1,0,0.2
		c0.1,0.1,0.1,0.2,0.1,0.2v0.1v0.1c0,0,0,0,0,0.1v0.1c0,0.1,0,0.2,0,0.3c0,0.1,0,0.2,0,0.3s0,0.1,0,0.1v0.1c0,0,0,0.1,0.1,0.2
		c0,0,0,0,0,0.1s0,0,0,0.1c0.1,0.1,0.1,0.4,0.1,0.9s0,0.9,0,1c0,0,0,0.1,0,0.2s0,0.2,0,0.2s0,0.1-0.1,0.2s-0.1,0.2,0,0.2
		c0,0,0,0.1,0,0.2s0,0.1,0,0.2c-0.1,0-0.2,0.1-0.2,0.1c0,0.3,0,0.4,0,0.4v0.1l-0.1,0.1v0.1c-0.1,0.2-0.1,0.2-0.1,0.3
		c0,0,0,0.1-0.1,0.1h-0.1c0,0,0,0,0,0.1l-0.1,0.1c0,0.1-0.1,0.1-0.1,0.2l-0.2,0.3c0,0.1-0.1,0.2-0.2,0.4c-0.1,0.2-0.2,0.3-0.2,0.4
		c-0.1,0.1-0.2,0.3-0.2,0.4c0,0-0.1,0-0.2,0.1c0,0.1,0,0.1-0.1,0.2s-0.1,0.2-0.1,0.3c-0.1,0-0.1,0.1-0.2,0.2
		c-0.1,0.1-0.1,0.2-0.2,0.2c0,0-0.1,0.1-0.1,0.2c-0.1,0.1-0.1,0.2-0.1,0.2c0,0.1,0,0.1-0.1,0.2c-0.2,0.1-0.3,0.2-0.5,0.3
		c-0.1,0.1-0.1,0.2-0.2,0.2c-0.1,0.1-0.1,0.2-0.3,0.2c-0.1,0.1-0.2,0.2-0.3,0.2c0,0,0,0-0.1,0s0,0-0.1,0l-0.1,0.1
		c-0.1,0.1-0.1,0.1-0.1,0.1c-0.1,0-0.2,0-0.2,0.1c-0.1,0-0.1,0-0.3,0.1c-0.1,0-0.1,0-0.2,0c-0.1,0-0.1,0-0.2,0c0,0-0.1,0.1-0.2,0.2
		c-0.2,0-0.3,0-0.3,0c0,0.1-0.1,0.1-0.2,0.1c-0.1,0-0.2,0.1-0.2,0.2c-0.1,0-0.3,0-0.6,0s-0.5,0-0.7,0c-0.1,0-0.1,0-0.3,0
		c-0.1,0-0.2,0-0.3,0c0,0-0.1-0.1-0.1-0.2c-0.1,0-0.1,0-0.2,0.1c0,0.1-0.1,0.1-0.1,0.1s0,0,0-0.1l0,0c0,0-0.1,0-0.1-0.1
		c-0.1,0-0.1-0.1-0.1-0.1c-0.2,0.1-0.3,0-0.5-0.1S31.6,74,31.5,74v-0.1c0,0-0.1,0-0.2-0.1s-0.2-0.1-0.4-0.1v-0.1l-0.1-0.1
		C30.1,73,30,72.9,30,72.9c-0.1,0-0.1,0-0.1-0.1s0,0-0.1-0.1c0,0,0,0-0.1-0.1c0,0,0,0-0.1,0c0,0,0,0-0.1,0l0,0l0,0
		c0,0-0.1,0-0.1-0.1c0,0-0.1,0-0.1-0.1c-0.1-0.1-0.1-0.1-0.1-0.1c-0.1,0-0.1,0-0.1,0C29,72.2,29,72.2,28.9,72
		c-0.1-0.1-0.2-0.2-0.2-0.3h-0.1c-0.3-0.3-0.4-0.5-0.4-0.6c0,0-0.1-0.1-0.2-0.3v-0.1l-0.1-0.1c-0.1-0.1-0.1-0.1-0.1-0.1
		c0-0.2-0.1-0.5-0.2-0.7c0-0.1,0-0.2-0.1-0.2c0-0.1,0-0.1,0-0.1s0,0,0-0.1v-0.1v-0.1l-0.1-0.1c0,0,0-0.2,0-0.4v-0.1v-0.1
		c0,0-0.1,0-0.1-0.1v-0.1c0-0.1,0-0.1,0-0.3c0-0.1,0-0.3,0-0.3s-0.1,0-0.1-0.1c0,0,0-0.1,0-0.2v-0.1c0,0,0-0.1-0.1-0.1
		c0-0.1,0-0.1,0-0.1C27,67,27,67,27,66.9s0-0.1,0-0.1v-0.1c0.1-0.1,0-0.2-0.1-0.3c0,0,0-0.1,0-0.2v-0.1l0.2-0.2c0-0.1,0-0.2,0-0.5
		s0-0.5,0-0.6s0-0.1,0-0.2s0-0.1,0-0.1c0-0.1,0-0.2,0-0.3c0-0.2,0-0.3,0-0.4c0-0.1,0.1-0.2,0.1-0.2v-0.1v-0.1v-0.1l0.1-0.1
		c0,0,0-0.1,0-0.3s0-0.3,0-0.4c0-0.3,0-0.4,0-0.5c0,0,0.1,0,0.1-0.1c0.1-0.1,0.1-0.1,0.2-0.1c0-0.1,0-0.1,0-0.1v-0.1l0.1-0.1v-0.1
		c0-0.1,0-0.1,0-0.1c0.1-0.1,0.1-0.1,0.1-0.1c0-0.1,0-0.2,0-0.3c0-0.2,0-0.2,0.1-0.3H28h0.1c0-0.1,0-0.1-0.1-0.1c0,0-0.1,0-0.1-0.1
		l0.1-0.2c0,0,0.1-0.1,0.1-0.2c0.1-0.1,0.1-0.1,0.1-0.2c0,0,0,0,0-0.1c0,0,0,0,0-0.1c0.1-0.1,0.1-0.2,0.1-0.3c0.1,0,0.1-0.1,0.1-0.2
		c0-0.1,0.1-0.1,0.1-0.2c0-0.1,0-0.2,0.1-0.3s0.1-0.1,0.1-0.2v-0.1v-0.1c0-0.1,0-0.1,0.1-0.2c0.1-0.1,0.1-0.2,0.1-0.2
		c0.1,0,0.2-0.1,0.3-0.3c0.1,0,0.2-0.1,0.2-0.3c0-0.1,0-0.1,0-0.2c0.1,0.1,0.2,0,0.3-0.1c0.1,0,0.1-0.1,0.1-0.1h0.1
		c0.1,0,0.1-0.1,0.2-0.1c0.1-0.1,0.1-0.1,0.2-0.1s0.3-0.1,0.5-0.3c0.1,0,0.2,0,0.2-0.1c0,0.8,0,0.8,0.1,0.7l0,0c0,0,0,0,0-0.1
		c0.1,0.1,0.2,0,0.3-0.1c0.1,0,0.1,0,0.2,0C31.8,56.7,31.9,56.8,32,56.8z M32.5,56.8c0,0,0.1,0,0.2,0.1c0,0,0.1,0,0.2,0
		c0.1,0,0.1,0,0.2,0h0.1c0,0,0,0,0.1,0s0,0,0.1,0h0.1c0.1,0.2,0.1,0.2,0.3,0.2l0.3,0.2c0,0.1,0,0.1,0.1,0.2c0.1,0.1,0.1,0.1,0.1,0.1
		c0.1,0,0.1,0,0.2,0.1c0.1,0.1,0.1,0.1,0.2,0.1h0.1h0.1c0.2-0.1,0.3-0.1,0.3-0.1s0.1,0,0.2,0c0,0,0.1,0,0.2,0c0.1,0,0.1,0,0.2,0
		c0,0,0.1,0,0.1,0.1l0.1,0.1c0,0,0.1,0,0.2,0c0.1,0,0.1,0,0.2,0c0,0,0.1,0,0.2,0.1c0.1,0.1,0.2,0.1,0.3,0.1c0,0,0,0.1,0.1,0.1
		s0.2,0,0.3,0.1s0.1,0.1,0.2,0.1h0.1c0.3,0.2,0.5,0.3,0.7,0.3h0.2c0,0.1-0.1,0.1-0.2,0v0.1c0,0.1,0.1,0.2,0.3,0.3s0.3,0.2,0.3,0.3
		s0.1,0.1,0.2,0.2c0.2,0.2,0.3,0.3,0.3,0.4c0.1,0.1,0.2,0.2,0.2,0.3s0.1,0.1,0.2,0.2c0.1,0.1,0.1,0.2,0.1,0.3
		c0.1,0.2,0.2,0.3,0.2,0.3s0,0.1,0.1,0.1c0.1,0.1,0.1,0.2,0.1,0.3l0.1,0.1c0,0.1,0,0.1,0.1,0.3s0.1,0.4,0.1,0.4
		c0,0.2,0.1,0.3,0.1,0.3s0,0.1,0.1,0.3c-0.1,0-0.1,0.1,0,0.2c0.1,0.1,0.1,0.2,0.1,0.2v0.1v0.1c0,0,0,0,0,0.1v0.1c0,0.1,0,0.2,0,0.3
		c0,0.1,0,0.2,0,0.3s0,0.1,0,0.1v0.1c0,0,0,0.1,0.1,0.2c0,0,0,0,0,0.1s0,0,0,0.1c0.1,0.1,0.1,0.4,0.1,0.9s0,0.9,0,1c0,0,0,0.1,0,0.2
		s0,0.2,0,0.2s0,0.1-0.1,0.2s-0.1,0.2,0,0.2c0,0,0,0.1,0,0.2s0,0.1,0,0.2c-0.1,0-0.2,0.1-0.2,0.1c0,0.3,0,0.4,0,0.4v0.1l-0.1,0.1
		v0.1c-0.1,0.2-0.1,0.2-0.1,0.3c0,0,0,0.1-0.1,0.1h-0.1c0,0,0,0,0,0.1l-0.1,0.1c0,0.1-0.1,0.1-0.1,0.2L40,69.9
		c0,0.1-0.1,0.2-0.2,0.4c-0.1,0.2-0.2,0.3-0.2,0.4c-0.1,0.1-0.2,0.3-0.2,0.4c0,0-0.1,0-0.2,0.1c0,0.1,0,0.1-0.1,0.2S39,71.6,39,71.7
		c-0.1,0-0.1,0.1-0.2,0.2c-0.1,0.1-0.1,0.2-0.2,0.2c0,0-0.1,0.1-0.1,0.2c-0.1,0.1-0.1,0.2-0.1,0.2c0,0.1,0,0.1-0.1,0.2
		c-0.2,0.1-0.3,0.2-0.5,0.3c-0.1,0.1-0.1,0.2-0.2,0.2c-0.1,0.1-0.1,0.2-0.3,0.2c-0.1,0.1-0.2,0.2-0.3,0.2c0,0,0,0-0.1,0s0,0-0.1,0
		l-0.1,0.1c-0.1,0.1-0.1,0.1-0.1,0.1c-0.1,0-0.2,0-0.2,0.1c-0.1,0-0.1,0-0.3,0.1c-0.1,0-0.1,0-0.2,0c-0.1,0-0.1,0-0.2,0
		c0,0-0.1,0.1-0.2,0.2c-0.2,0-0.3,0-0.3,0c0,0.1-0.1,0.1-0.2,0.1c-0.1,0-0.2,0.1-0.2,0.2c-0.1,0-0.3,0-0.6,0s-0.5,0-0.7,0
		c-0.1,0-0.1,0-0.3,0c-0.1,0-0.2,0-0.3,0c0,0-0.1-0.1-0.1-0.2c-0.1,0-0.1,0-0.2,0.1c0,0.1-0.1,0.1-0.1,0.1s0,0,0-0.1l0,0
		c0,0-0.1,0-0.1-0.1c-0.1,0-0.1-0.1-0.1-0.1c-0.2,0.1-0.3,0-0.5-0.1S31.5,74,31.4,74v-0.1c0,0-0.1,0-0.2-0.1s-0.2-0.1-0.4-0.1v-0.1
		l-0.1-0.1C30.1,73,30,72.9,30,72.9c-0.1,0-0.1,0-0.1-0.1s0,0-0.1-0.1c0,0,0,0-0.1-0.1c0,0,0,0-0.1,0c0,0,0,0-0.1,0l0,0l0,0
		c0,0-0.1,0-0.1-0.1c0,0-0.1,0-0.1-0.1c-0.1-0.1-0.1-0.1-0.1-0.1c-0.1,0-0.1,0-0.1,0C29,72.2,29,72.2,28.9,72
		c-0.1-0.1-0.2-0.2-0.2-0.3h-0.1c-0.3-0.3-0.4-0.5-0.4-0.6c0,0-0.1-0.1-0.2-0.3v-0.1l-0.1-0.1c-0.1-0.1-0.1-0.1-0.1-0.1
		c0-0.2-0.1-0.5-0.2-0.7c0-0.1,0-0.2-0.1-0.2c0-0.1,0-0.1,0-0.1s0,0,0-0.1v-0.1v-0.1l-0.1-0.1c0,0,0-0.2,0-0.4v-0.1v-0.1
		c0,0-0.1,0-0.1-0.1v-0.1c0-0.1,0-0.1,0-0.3c0-0.1,0-0.3,0-0.3s-0.1,0-0.1-0.1c0,0,0-0.1,0-0.2v-0.1c0,0,0-0.1-0.1-0.1
		c0-0.1,0-0.1,0-0.1C27,67,27,67,27,66.9s0-0.1,0-0.1v-0.1c0.1-0.1,0-0.2-0.1-0.3c0,0,0-0.1,0-0.2v-0.1l0.2-0.2c0-0.1,0-0.2,0-0.5
		s0-0.5,0-0.6s0-0.1,0-0.2s0-0.1,0-0.1c0-0.1,0-0.2,0-0.3c0-0.2,0-0.3,0-0.4c0-0.1,0.1-0.2,0.1-0.2v-0.1v-0.1v-0.1l0.1-0.1
		c0,0,0-0.1,0-0.3s0-0.3,0-0.4c0-0.3,0-0.4,0-0.5c0,0,0.1,0,0.1-0.1c0.1-0.1,0.1-0.1,0.2-0.1c0-0.1,0-0.1,0-0.1v-0.1l0.1-0.1v-0.1
		c0-0.1,0-0.1,0-0.1c0.1-0.1,0.1-0.1,0.1-0.1c0-0.1,0-0.2,0-0.3c0-0.2,0-0.2,0.1-0.3H28h0.1c0-0.1,0-0.1-0.1-0.1c0,0-0.1,0-0.1-0.1
		l0.1-0.2c0,0,0.1-0.1,0.1-0.2c0.1-0.1,0.1-0.1,0.1-0.2c0,0,0,0,0-0.1c0,0,0,0,0-0.1c0.1-0.1,0.1-0.2,0.1-0.3c0.1,0,0.1-0.1,0.1-0.2
		c0-0.1,0.1-0.1,0.1-0.2c0-0.1,0-0.2,0.1-0.3s0.1-0.1,0.1-0.2v-0.1v-0.1c0-0.1,0-0.1,0.1-0.2c0.1-0.1,0.1-0.2,0.1-0.2
		c0.1,0,0.2-0.1,0.3-0.3c0.1,0,0.2-0.1,0.2-0.3c0-0.1,0-0.1,0-0.2c0.1,0.1,0.2,0,0.3-0.1c0.1,0,0.1-0.1,0.1-0.1h0.1
		c0.1,0,0.1-0.1,0.2-0.1c0.1-0.1,0.1-0.1,0.2-0.1s0.3-0.1,0.5-0.3c0.1,0,0.2,0,0.2-0.1c0,0.8,0,0.8,0.1,0.7l0,0c0,0,0,0,0-0.1
		c0.1,0.1,0.2,0,0.3-0.1c0.1,0,0.1,0,0.2,0s0.2,0,0.3,0c0.1,0,0.1,0,0.3,0S32.4,56.8,32.5,56.8z M33.3,59.2c-0.1,0-0.2,0-0.4,0
		s-0.3,0-0.5,0c-0.2,0.1-0.3,0.2-0.5,0.3s-0.3,0.2-0.4,0.3s-0.3,0.3-0.3,0.4l-0.1,0.1C31,60.4,31,60.4,31,60.4v0.1
		c0,0,0,0.1-0.1,0.1l-0.1,0.1c0,0-0.1,0.1-0.2,0.3c0,0.1,0,0.1-0.1,0.2c-0.1,0.1-0.1,0.1-0.1,0.1c0,0.1,0,0.1,0,0.2
		c0,0,0,0.1-0.1,0.1v0.1c0,0.1,0,0.1,0,0.1v0.1c-0.1,0.1-0.1,0.1,0,0.2c-0.1,0.1-0.2,0.2-0.2,0.4C30,62.6,30,62.8,30,63
		c-0.1,0.1-0.1,0.2-0.1,0.4c-0.2,0.2-0.2,0.4-0.1,0.6c0,0,0,0-0.1,0.1c0,0-0.1,0-0.1,0.1s0,0.2,0,0.3c-0.1,0.1-0.1,0.2,0,0.3
		c-0.1,0.1-0.1,0.2-0.1,0.5v0.1c0,0.1,0,0.1,0,0.1s0,0.1-0.1,0.1l-0.1,0.1c0.1,0.1,0.1,0.1,0.1,0.2s0,0.2,0,0.4c0,0.1,0,0.3,0,0.3
		v0.1v0.1l0.1,0.1c0,0.1,0,0.2,0,0.4v0.1v0.1v0.1v0.1c0,0.1,0,0.2,0,0.3c0,0,0,0.1,0.1,0.1c0,0,0,0,0,0.1l0,0c0,0,0,0,0,0.1
		s0,0.2,0,0.2c0,0.1,0,0.1,0,0.2s0,0.1,0,0.1s0,0,0,0.1V69c0,0,0,0,0.1,0.1v0.1v0.1v0.1c0,0,0,0,0,0.1v0.1c0,0,0,0,0,0.1l0.1,0.1
		l0.1,0.1c-0.1,0.1-0.1,0.2,0.1,0.3V70c0,0,0,0.1,0.1,0.1s0.1,0.1,0.1,0.1l0.2,0.2c0.1,0.1,0.2,0.2,0.4,0.4c0.2,0.2,0.3,0.3,0.3,0.3
		c0.1,0,0.1,0,0.1,0c0.2,0.3,0.4,0.4,0.6,0.4c0.1,0.1,0.1,0.1,0.2,0.1c0.1,0,0.1,0,0.2,0c0.1,0,0.1,0,0.2,0l0.1,0.1l0.1,0.1h0.1h0.1
		c0,0,0,0,0.1,0H33c0.2,0,0.4,0,0.5,0c0,0,0.1,0,0.1-0.1c0.1-0.1,0.1-0.1,0.2-0.1c0.1,0,0.1,0,0.2,0c0,0,0.1,0,0.1-0.1l0.1-0.1
		c0,0,0.1,0,0.2,0c0.1-0.1,0.2-0.1,0.3-0.1c0.1-0.1,0.2-0.2,0.4-0.3c0.2-0.2,0.3-0.3,0.5-0.3c0,0,0-0.1,0.1-0.1l0.1-0.1
		c0,0,0,0,0-0.1s0.1-0.1,0.2-0.2c0.1-0.1,0.1-0.1,0.1-0.1s0.1-0.1,0.1-0.2c-0.2,0.1-0.2,0-0.2,0s0-0.1,0.1-0.1s0.1-0.1,0.1-0.1
		c0.1-0.1,0.1-0.2,0.2-0.2v-0.1c0,0,0.1-0.2,0.3-0.4c0,0,0-0.1,0.1-0.1c0,0,0.1-0.2,0.1-0.4c0-0.1,0.1-0.1,0.2-0.2v-0.1
		c0,0,0,0,0-0.1c0,0,0,0,0.1-0.1v-0.1c0-0.1,0-0.1,0-0.1c0.1-0.1,0.2-0.3,0.3-0.7v-0.2v-0.1c0-0.1,0-0.1,0-0.1
		c0.1-0.1,0.1-0.1,0.1-0.2c0,0,0-0.1-0.1-0.1l-0.1-0.1c0-0.1,0-0.1,0.1-0.2s0.1-0.1,0.1-0.2s0-0.1,0-0.2s0-0.2,0-0.2v-0.1v-0.1
		l-0.1-0.1l-0.1-0.1c0.1-0.1,0.1-0.1,0.1-0.1v-0.1v-0.1c0-0.1,0-0.1,0-0.2s0-0.2,0-0.2v-0.1v-0.1c0,0,0-0.1-0.1-0.1
		c0-0.1,0-0.1-0.1-0.1l-0.1-0.1c0-0.1,0-0.1,0.1-0.2c0-0.1,0-0.1,0-0.1v-0.1v-0.1c0-0.1,0-0.1,0-0.1c0-0.1,0-0.1,0-0.1
		c-0.1,0-0.1-0.1-0.1-0.3s-0.1-0.3-0.1-0.3s0-0.1,0-0.2c0-0.1,0-0.1,0-0.2c-0.1-0.1-0.2-0.2-0.2-0.3c-0.3-0.5-0.6-0.9-1.1-1.4h-0.2
		c0-0.1-0.1-0.2-0.2-0.2h-0.1l-0.2-0.1L35,60.1C34.9,60,34.8,60,34.8,60s-0.1,0-0.2,0c-0.1,0-0.1,0-0.1,0c-0.1-0.1-0.2-0.1-0.3-0.1
		s-0.2,0-0.3,0s-0.2,0-0.3,0c-0.1-0.2-0.2-0.2-0.3-0.2c-0.1-0.1-0.1-0.2,0-0.2c0,0,0-0.1,0.1-0.1l0.1-0.1c0-0.1,0-0.1-0.1-0.1
		S33.3,59.2,33.3,59.2C33.3,59.2,33.3,59.2,33.3,59.2z M32.4,59.2c-0.2,0.1-0.3,0.2-0.5,0.3s-0.3,0.2-0.4,0.3s-0.3,0.3-0.3,0.4
		l-0.1,0.1C31,60.4,31,60.4,31,60.4v0.1c0,0,0,0.1-0.1,0.1l-0.1,0.1c0,0-0.1,0.1-0.2,0.3c0,0.1,0,0.1-0.1,0.2
		c-0.1,0.1-0.1,0.1-0.1,0.1c0,0.1,0,0.1,0,0.1s0,0.1-0.1,0.1v0.1c0,0.1,0,0.1,0,0.1v0.1c-0.1,0.1-0.1,0.1,0,0.2
		c-0.1,0.1-0.2,0.2-0.2,0.4C30,62.5,30,62.7,30,62.9c-0.1,0.1-0.1,0.2-0.1,0.4c-0.2,0.2-0.2,0.4-0.1,0.6c0,0,0,0-0.1,0.1
		c0,0-0.1,0-0.1,0.1s0,0.2,0,0.3c-0.1,0.1-0.1,0.2,0,0.3c-0.1,0.1-0.1,0.2-0.1,0.5v0.1c0,0.1,0,0.1,0,0.1s0,0.1-0.1,0.1l-0.1,0.1
		c0.1,0.1,0.1,0.1,0.1,0.2s0,0.2,0,0.4c0,0.1,0,0.3,0,0.3v0.1v0.1l0.1,0.1c0,0.1,0,0.2,0,0.4v0.1v0.1v0.1v0.1c0,0.1,0,0.2,0,0.3
		c0,0,0,0.1,0.1,0.1c0,0,0,0,0,0.1l0,0c0,0,0,0,0,0.1s0,0.2,0,0.2c0,0.1,0,0.1,0,0.2s0,0.1,0,0.1s0,0,0,0.1v0.1c0,0,0,0,0.1,0.1v0.1
		v0.1v0.1c0,0,0,0,0,0.1v0.1c0,0,0,0,0,0.1l0.1,0.1l0.1,0.1c-0.1,0.1-0.1,0.2,0.1,0.3V70c0,0,0,0.1,0.1,0.1s0.1,0.1,0.1,0.1l0.2,0.2
		c0.1,0.1,0.2,0.2,0.4,0.4c0.2,0.2,0.3,0.3,0.3,0.3c0.1,0,0.1,0,0.1,0c0.2,0.3,0.4,0.4,0.6,0.4c0.1,0.1,0.1,0.1,0.2,0.1
		c0.1,0,0.1,0,0.2,0c0.1,0,0.1,0,0.2,0l0.1,0.1l0.1,0.1h0.1h0.1c0,0,0,0,0.1,0H33c0.2,0,0.4,0,0.5,0c0,0,0.1,0,0.1-0.1
		c0.1-0.1,0.1-0.1,0.2-0.1c0.1,0,0.1,0,0.2,0c0,0,0.1,0,0.1-0.1l0.1-0.1c0,0,0.1,0,0.2,0c0.1-0.1,0.2-0.1,0.3-0.1
		c0.1-0.1,0.2-0.2,0.4-0.3c0.2-0.2,0.3-0.3,0.5-0.3c0,0,0-0.1,0.1-0.1l0.1-0.1c0,0,0,0,0-0.1s0.1-0.1,0.2-0.2
		c0.1-0.1,0.1-0.1,0.1-0.1s0.1-0.1,0.1-0.2c-0.2,0.1-0.2,0-0.2,0s0-0.1,0.1-0.1s0.1-0.1,0.1-0.1c0.1-0.1,0.1-0.2,0.2-0.2v-0.1
		c0,0,0.1-0.2,0.3-0.4c0,0,0-0.1,0.1-0.1c0,0,0.1-0.2,0.1-0.4c0-0.1,0.1-0.1,0.2-0.2v-0.1c0,0,0,0,0-0.1c0,0,0,0,0.1-0.1v-0.1
		c0-0.1,0-0.1,0-0.1c0.1-0.1,0.2-0.3,0.3-0.7v-0.2v-0.1c0-0.1,0-0.1,0-0.1c0.1-0.1,0.1-0.1,0.1-0.2c0,0,0-0.1-0.1-0.1l-0.1-0.1
		c0-0.1,0-0.1,0.1-0.2s0.1-0.1,0.1-0.2s0-0.1,0-0.2s0-0.2,0-0.2v-0.1v-0.1l-0.1-0.1l-0.1-0.1c0.1-0.1,0.1-0.1,0.1-0.1v-0.1v-0.1
		c0-0.1,0-0.1,0-0.2s0-0.2,0-0.2v-0.1v-0.1c0,0,0-0.1-0.1-0.1c0-0.1,0-0.1-0.1-0.1l-0.1-0.1c0-0.1,0-0.1,0.1-0.2c0-0.1,0-0.1,0-0.1
		v-0.1v-0.1c0-0.1,0-0.1,0-0.1c0-0.1,0-0.1,0-0.1c-0.1,0-0.1-0.1-0.1-0.3s-0.1-0.3-0.1-0.3s0-0.1,0-0.2c0-0.1,0-0.1,0-0.2
		c-0.1-0.1-0.2-0.2-0.2-0.3c-0.3-0.5-0.6-0.9-1.1-1.4h-0.2c0-0.1-0.1-0.2-0.2-0.2h-0.1l-0.2-0.1L35,60.1C34.9,60,34.8,60,34.8,60
		s-0.1,0-0.2,0c-0.1,0-0.1,0-0.1,0c-0.1-0.1-0.2-0.1-0.3-0.1s-0.2,0-0.3,0s-0.2,0-0.3,0c-0.1-0.2-0.2-0.2-0.3-0.2
		c-0.1-0.1-0.1-0.2,0-0.2c0,0,0-0.1,0.1-0.1l0.1-0.1c0-0.1,0-0.1-0.1-0.1s-0.1,0-0.1,0c0-0.1-0.1-0.2-0.1-0.2c-0.1,0-0.2,0-0.4,0
		C32.7,59.2,32.6,59.2,32.4,59.2z"/>
	<path fill="#BF9000" d="M53.4,57.9C53.5,57.9,53.5,57.9,53.4,57.9c0.1-0.1,0.1-0.1,0.2-0.1v0.1V58h0.1c0,0,0,0,0.1,0c0,0,0,0,0,0.1
		c0,0,0,0.1,0.1,0.1H54l0.1,0.1h0.1c0.1,0.1,0.1,0.2,0.2,0.3c0.1,0,0.1,0,0.2,0.1c0.1,0.1,0.1,0.1,0.1,0.1s0,0,0-0.1s0-0.1,0-0.1
		s0,0.1,0.1,0.1c0,0.1,0,0.1,0.1,0.1c0,0,0,0.1,0.1,0.1c0,0.1,0.1,0.1,0.1,0.2c0.1,0,0.2,0.1,0.2,0.1c0,0.2,0.1,0.3,0.2,0.4v0.1v0.1
		c0.1,0.1,0.1,0.2,0.2,0.2c0,0.1,0,0.2,0.2,0.2c0,0,0,0.1-0.1,0.1c0,0.1,0,0.1,0,0.2c0,0,0.1,0,0.2,0c0,0.1,0,0.1,0,0.2
		c-0.1,0.1-0.1,0.1,0,0.2l0.1,0.1l0.1,0.1c0,0.1,0,0.1,0,0.2c0,0.1,0,0.2,0,0.2s0,0,0.1,0.1c0,0,0.1,0,0.1,0.1s0,0.2,0,0.4
		s0,0.3,0,0.3c0.1,0,0.1,0,0.1,0c0,0.1,0,0.1,0,0.2c0,0.1,0,0.1,0,0.2c0,0,0,0-0.1,0.1c0,0-0.1,0-0.1,0.1s0.1,0.1,0.2,0.1
		c0,0.1,0,0.1,0,0.2c0,0.1,0,0.2,0,0.3c0,0.2,0,0.4,0.2,0.4c0,0.1,0,0.1,0,0.2c-0.1,0-0.2,0-0.3,0.1l0.1,0.1
		c-0.1,0.1-0.1,0.3-0.1,0.5c0,0.3,0,0.4-0.1,0.5c0,0,0,0.1,0.1,0.1v0.1v0.1v0.1v0.1V66c-0.1,0.1-0.2,0.2-0.2,0.3c0,0,0,0.1,0,0.2
		s0,0.1,0,0.2s0,0.1-0.1,0.1L56,66.9V67c0,0.1,0,0.1,0,0.1v0.1v0.1C55.7,67,55.7,67,55.7,67s0,0,0,0.1c0,0,0,0,0,0.1
		c-0.1,0-0.1,0.1-0.1,0.3s0,0.2-0.1,0.2c0.1,0.1,0.1,0.2,0,0.3c0,0.1,0,0.1,0,0.2c-0.1,0.1-0.1,0.1-0.2,0.2c0,0,0,0,0,0.1s0,0,0,0.1
		c-0.1,0.1-0.1,0.1-0.1,0.1v0.1c0,0.1,0,0.1,0,0.1s-0.1,0.1-0.1,0.2L55,69.4c0,0,0,0,0,0.1s0,0,0,0.1v0.1c-0.1,0.1-0.1,0.2-0.1,0.2
		c-0.1,0.1-0.1,0.2-0.1,0.5h-0.1l-0.1,0.1l-0.1,0.1c-0.1,0.2-0.3,0.4-0.5,0.6v0.1c0,0-0.1,0-0.1,0.1c0,0-0.1,0-0.1,0.1v0.1
		c0,0.1,0,0.1,0,0.1h-0.1c-0.1,0.1-0.1,0.1-0.3,0.3c-0.1,0.1-0.2,0.2-0.3,0.3c-0.1,0-0.1,0-0.2,0c0,0.1,0,0.2,0,0.2
		c-0.1,0.1-0.2,0.2-0.3,0.3h-0.1c-0.1,0-0.1,0.1-0.2,0.2h-0.1h-0.1c0,0,0,0.1-0.1,0.1v0.1c0,0,0,0-0.1,0c0,0-0.1,0-0.1,0.1
		c0.1-0.3,0-0.3-0.1-0.3c0,0,0,0.1-0.1,0.1c-0.1,0.1-0.1,0.1-0.1,0.2c-0.2,0-0.3,0.1-0.3,0.3c-0.1-0.1-0.1-0.1-0.2,0
		c-0.1,0-0.1,0.1-0.1,0.1h-0.1h-0.1c-0.1,0-0.2,0-0.4,0.1c-0.1,0-0.2,0-0.3,0s-0.1,0-0.2,0c-0.2,0.1-0.3,0.1-0.3-0.1
		c-0.1,0-0.1,0-0.2,0c-0.1,0-0.1,0-0.1,0s-0.1,0-0.1,0.1c-0.1,0-0.1,0-0.2,0c0,0,0,0-0.1,0l0,0c0,0,0,0-0.1,0h-0.1l-0.1-0.1h-0.1
		c0,0-0.1,0-0.1,0.1c0-0.1,0-0.1-0.1-0.2c-0.1,0-0.1-0.1-0.2-0.1v0.1c0,0,0,0,0,0.1c0,0-0.1,0-0.1-0.1c-0.1,0-0.1,0-0.1,0l0,0v-0.1
		h-0.1c-0.1,0-0.1,0-0.1,0v-0.1v-0.1c-0.1,0-0.1,0-0.2,0c-0.1-0.2-0.1-0.2-0.2-0.2C47,72.9,47,72.8,47,72.7c0,0-0.1,0-0.2,0
		c0,0,0-0.1-0.1-0.1c0-0.1,0-0.1-0.1-0.1l-0.1,0.1c0,0-0.1-0.1-0.1-0.2s-0.1-0.1-0.1-0.1h-0.1h-0.1l0,0v-0.1c0,0-0.1,0-0.1-0.1
		s-0.1-0.1-0.1-0.2c0,0-0.1,0-0.3-0.2v-0.1c0,0-0.1-0.1-0.2-0.2c-0.1-0.1-0.1-0.1-0.2-0.2c0-0.1,0-0.1-0.1-0.2
		c0-0.1-0.1-0.1-0.1-0.2h-0.1l-0.1-0.3c0,0-0.1-0.1-0.2-0.3c-0.1-0.2-0.2-0.3-0.3-0.2c0.1-0.2,0.1-0.3,0-0.4v-0.1
		c0-0.1-0.1-0.1-0.1-0.2v-0.1c0-0.1,0-0.1,0-0.1s0,0,0-0.1v-0.1c0,0,0,0,0-0.1c0,0,0,0-0.1,0l0,0v-0.1H44v-0.1c0-0.1,0-0.1,0-0.1
		s0,0,0-0.1c0,0-0.1-0.1-0.1-0.3c0-0.1-0.1-0.2-0.1-0.3h-0.1c0.1-0.1,0.1-0.3,0-0.5s-0.2-0.3-0.2-0.4c0,0,0-0.1-0.1-0.1l-0.1-0.1
		v-0.1c0-0.1,0-0.1,0-0.1s0,0,0-0.1v-0.1v-0.1c0-0.1,0-0.1-0.1-0.1l-0.1-0.3c0-0.2-0.1-0.3-0.1-0.3c0-0.1,0-0.2-0.1-0.3
		c0-0.1,0-0.1,0-0.2s0-0.2,0-0.3c0,0-0.1-0.1-0.2-0.1c0,0,0-0.1,0.1-0.2c0-0.3-0.1-0.4-0.2-0.5c0-0.2,0-0.3-0.1-0.4
		c0-0.3,0-0.5-0.2-0.6c0,0,0,0,0-0.1s0-0.1,0-0.2c0,0,0-0.1-0.1-0.1l-0.1-0.1v-0.1c0-0.1,0-0.1,0-0.1s0-0.1-0.1-0.1h-0.1
		c0,0,0-0.1,0-0.2c0.1-0.2,0-0.2-0.2-0.3v-0.1c0.1,0,0.1-0.1,0.1-0.1s0-0.2-0.1-0.6c0,0,0,0-0.1-0.1c0,0-0.1,0-0.1-0.1
		c0-0.4,0-0.7,0-0.8c0.1-0.2,0.1-0.3,0.1-0.4c0,0,0.1-0.1,0.1-0.2c0.1-0.1,0.1-0.2,0.2-0.2c0.1,0,0.1,0,0.2,0h0.1h0.1
		c0,0,0.1,0,0.1-0.1l0.1-0.1c0,0,0.1,0,0.2,0c0.1,0,0.2-0.1,0.2-0.1s0.1,0,0.2,0c0.1,0,0.2,0,0.2,0l0.1,0.1c0.1,0,0.1,0.1,0.2,0.1
		c0,0.1,0.1,0.1,0.2,0.1c0.1,0,0.1,0.1,0.2,0.1c0.1,0,0.2,0.1,0.3,0.2c0.1,0.1,0.2,0.2,0.3,0.3c0,0.1,0.1,0.3,0.3,0.6v0.1
		c0,0,0,0.1,0.1,0.1c0,0.1,0,0.1,0,0.2c0,0.1,0,0.2,0,0.2s-0.1,0-0.1,0.1V61c0,0,0,0,0.1,0.1l0.1,0.1c0,0.2,0,0.4,0.1,0.4
		c0,0.2,0,0.3,0.1,0.3s0.1,0,0.1,0s0,0.1-0.1,0.1c0,0.1,0,0.1,0,0.2c0,0.1,0,0.2,0,0.2s0,0.1,0.1,0.1l0.1,0.1c0,0,0,0.1-0.1,0.1
		c0.1,0,0.1,0.1,0.1,0.3c0,0.1,0,0.2,0.1,0.3c0,0.1,0,0.1,0,0.2c0,0.3,0.1,0.4,0.2,0.5c0,0,0,0.1,0.1,0.2c-0.1,0.1-0.1,0.2,0,0.3
		c0,0.3,0.1,0.4,0.2,0.4c-0.1,0.1-0.1,0.2,0,0.3c0.1,0.2,0.1,0.3,0.1,0.3v0.1c0,0,0,0.1,0.1,0.1l0.1,0.1v0.1c0,0.1,0,0.1,0,0.1
		s0,0.1,0.1,0.1l0.1,0.1c0,0.2,0,0.3,0,0.3c0.1,0.1,0.1,0.1,0.1,0.1s0,0.1,0.1,0.2c0,0.1,0,0.2,0.1,0.2v0.1c0,0,0,0.1,0.1,0.2
		c0,0.1,0.1,0.2,0.2,0.5c0,0.1,0,0.1,0.1,0.2c0,0.1,0.1,0.1,0.1,0.2c0,0,0,0.1,0.1,0.1v0.1c0,0.1,0,0.1,0,0.1s0,0,0.1,0.1v0.1
		c0,0,0.1,0.1,0.2,0.2c0,0.1,0,0.1,0.1,0.2v0.1c0,0,0,0.1,0.1,0.1c0,0.1,0,0.1,0.1,0.2s0.1,0.1,0.1,0.1v0.1v0.1l0.1,0.1V70
		c0,0,0,0.1,0.1,0.1c0,0,0.1,0,0.1,0.1c0,0,0,0,0,0.1c0,0,0,0.1,0.1,0.1c0,0,0,0.1,0.1,0.1s0.1,0.1,0.1,0.1s0,0.1,0.1,0.1l0.1,0.1
		h0.1c0,0,0,0,0.1,0s0,0,0.1,0.1c0,0.1,0.1,0.1,0.1,0.1s0,0.1,0.1,0.1l0.1,0.1h0.1c0.1,0.1,0.1,0.1,0.2,0.1c0.1,0,0.1,0,0.1,0
		c0.1,0.1,0.3,0.2,0.7,0.1v-0.1c0.1,0,0.1,0,0.2,0c0.1,0,0.2,0,0.2-0.1c0.2,0.1,0.4,0,0.5-0.2c0.1,0,0.2,0,0.3-0.1s0.2-0.1,0.3-0.2
		l0.1-0.2h0.1c0,0,0.1-0.1,0.2-0.2c0.1-0.1,0.2-0.2,0.2-0.2c0.1-0.1,0.1-0.1,0.1-0.3c0.1-0.1,0.2-0.1,0.2-0.2v-0.2
		c0.2-0.1,0.3-0.3,0.3-0.4c0,0,0.1-0.1,0.2-0.1c0,0,0-0.1,0-0.2v-0.1c0-0.1,0-0.1,0-0.2c0.1,0,0.2-0.1,0.2-0.1s0-0.1,0-0.2
		s0-0.1,0-0.2c0.1-0.1,0.2-0.1,0.2-0.1v-0.1v-0.1c0,0,0-0.1,0.1-0.1v-0.1c0-0.1,0-0.1,0-0.1s0-0.1-0.1-0.1c0.1-0.2,0.2-0.3,0.1-0.3
		v-0.2h0.1c0.1,0,0.1-0.1,0.1-0.3c0-0.2,0-0.2,0-0.3s0-0.1-0.1-0.1v-0.2c0.1,0,0.2-0.1,0.2-0.1s0-0.1-0.1-0.1
		c0.1-0.1,0.1-0.1,0.1-0.3c0-0.1-0.1-0.2-0.1-0.3l0.1-0.1c0-0.1,0-0.1-0.1-0.2c0,0,0,0,0-0.1c0,0,0,0,0-0.1
		c-0.1-0.2-0.1-0.3-0.1-0.3c0.1-0.1,0.2-0.1,0.2-0.2c0,0,0,0-0.1-0.1c-0.1,0-0.1,0-0.1-0.1c0.1-0.1,0.2-0.1,0.2-0.1
		c0-0.1,0-0.2,0-0.3s0-0.2,0-0.2s-0.1-0.1-0.2-0.1c0-0.1,0-0.1,0-0.2c0-0.1,0-0.1,0-0.2c0,0,0-0.1,0-0.2c0-0.1,0-0.2,0-0.2
		c0-0.1-0.1-0.1-0.2-0.2c0-0.1,0-0.1,0.1-0.1l0.1-0.1c0,0,0-0.1,0-0.2c0,0,0-0.1,0-0.2c0-0.1,0-0.2,0-0.2s0-0.1-0.1-0.1L54,61.1V61
		c0-0.1,0-0.1,0-0.1s0-0.1-0.1-0.1l-0.1-0.1c0-0.1,0-0.1,0-0.2c-0.1,0-0.1,0-0.2,0l0,0l0,0c0,0,0,0-0.1,0s-0.1,0-0.1-0.1
		s-0.1-0.2-0.1-0.2h-0.1h-0.1c0-0.1,0-0.1,0-0.2c0-0.1,0-0.2,0-0.2c0-0.1-0.1-0.1-0.1-0.2c-0.1-0.1-0.1-0.1-0.1-0.1
		c-0.2-0.2-0.2-0.3-0.2-0.5v-0.1c0-0.2,0-0.3-0.1-0.3c0,0,0-0.1,0-0.2c0-0.1,0-0.1,0-0.2c0.1,0,0.1,0,0.2,0c0.1,0,0.1,0,0.2,0
		c0.1-0.1,0.1-0.2,0.2-0.3c0-0.1,0-0.2,0-0.2S53.3,57.7,53.4,57.9c0-0.1,0.1-0.2,0.3-0.3l0.1,0.1c0,0,0.1,0,0.1-0.1
		c0.1-0.1,0.1-0.1,0.1-0.1C53.3,57.8,53.3,57.8,53.4,57.9L53.4,57.9z M53.6,57.8L53.6,57.8V58h0.1c0,0,0,0,0.1,0c0,0,0,0,0,0.1
		c0,0,0,0.1,0.1,0.1c0,0,0.1,0,0.1,0.1l0.1,0.1h0.1c0.1,0.1,0.1,0.2,0.2,0.3c0.1,0,0.1,0,0.2,0.1c0.1,0.1,0.1,0.1,0.1,0.1s0,0,0-0.1
		s0-0.1,0-0.1s0,0.1,0.1,0.1c0,0.1,0,0.1,0.1,0.1c0,0,0,0.1,0.1,0.1c0,0.1,0.1,0.1,0.1,0.2c0.1,0,0.2,0.1,0.2,0.1
		c0,0.2,0.1,0.3,0.2,0.4v0.1v0.1c0.1,0.1,0.1,0.2,0.2,0.2c0,0.1,0,0.2,0.2,0.2c0,0,0,0.1-0.1,0.1c0,0.1,0,0.1,0,0.2c0,0,0.1,0,0.2,0
		c0,0.1,0,0.1,0,0.2c-0.1,0.1-0.1,0.1,0,0.2l0.1,0.1l0.1,0.1c0,0.1,0,0.1,0,0.2c0,0.1,0,0.2,0,0.2s0,0,0.1,0.1c0,0,0.1,0,0.1,0.1
		s0,0.2,0,0.4s0,0.3,0,0.3c0.1,0,0.1,0,0.1,0c0,0.1,0,0.1,0,0.2c0,0.1,0,0.1,0,0.2c0,0,0,0-0.1,0.1c0,0-0.1,0-0.1,0.1
		s0.1,0.1,0.2,0.1c0,0.1,0,0.1,0,0.2c0,0.1,0,0.2,0,0.3c0,0.2,0,0.4,0.2,0.4c0,0.1,0,0.1,0,0.2c-0.1,0-0.2,0-0.3,0.1l0.1,0.1
		c-0.1,0.1-0.1,0.3-0.1,0.5c0,0.3,0,0.4-0.1,0.5c0,0,0,0.1,0.1,0.1v0.1v0.1v0.1V66v0.1c-0.1,0.1-0.2,0.2-0.2,0.3c0,0,0,0.1,0,0.2
		s0,0.1,0,0.2s0,0.1-0.1,0.1L56,67v0.1c0,0.1,0,0.1,0,0.1v0.1v0.1C55.7,67,55.7,67,55.7,67s0,0,0,0.1c0,0,0,0,0,0.1
		c-0.1,0-0.1,0.1-0.1,0.3s0,0.2-0.1,0.2c0.1,0.1,0.1,0.2,0,0.3c0,0.1,0,0.1,0,0.2c-0.1,0.1-0.1,0.1-0.2,0.2c0,0,0,0,0,0.1s0,0,0,0.1
		c-0.1,0.1-0.1,0.1-0.1,0.1v0.1c0,0.1,0,0.1,0,0.1s-0.1,0.1-0.1,0.2L55,69.4c0,0,0,0,0,0.1s0,0,0,0.1v0.1c-0.1,0.1-0.1,0.2-0.1,0.2
		c-0.1,0.1-0.1,0.2-0.1,0.5h-0.1l-0.1,0.1l-0.1,0.1c-0.1,0.2-0.3,0.4-0.5,0.6v0.1c0,0-0.1,0-0.1,0.1c0,0-0.1,0-0.1,0.1v0.1
		c0,0.1,0,0.1,0,0.1h-0.1c-0.1,0.1-0.1,0.1-0.3,0.3c-0.1,0.1-0.2,0.2-0.3,0.3c-0.1,0-0.1,0-0.2,0c0,0.1,0,0.2,0,0.2
		c-0.1,0.1-0.2,0.2-0.3,0.3h-0.1c-0.1,0-0.1,0.1-0.2,0.2h-0.1h-0.1c0,0,0,0.1-0.1,0.1v0.1c0,0,0,0-0.1,0c0,0-0.1,0-0.1,0.1
		c0.1-0.3,0-0.3-0.1-0.3c0,0,0,0.1-0.1,0.1c-0.1,0.1-0.1,0.1-0.1,0.2c-0.2,0-0.3,0.1-0.3,0.3c-0.1-0.1-0.1-0.1-0.2,0
		c-0.1,0-0.1,0.1-0.1,0.1h-0.1h-0.1c-0.1,0-0.2,0-0.4,0.1c-0.1,0-0.2,0-0.3,0s-0.1,0-0.2,0c-0.2,0.1-0.3,0.1-0.3-0.1
		c-0.1,0-0.1,0-0.2,0c-0.1,0-0.1,0-0.1,0s-0.1,0-0.1,0.1c-0.1,0-0.1,0-0.2,0c0,0,0,0-0.1,0l0,0c0,0,0,0-0.1,0h-0.1l-0.1-0.1h-0.1
		c0,0-0.1,0-0.1,0.1c0-0.1,0-0.1-0.1-0.2c-0.1,0-0.1-0.1-0.2-0.1v0.1c0,0,0,0,0,0.1c0,0-0.1,0-0.1-0.1c-0.1,0-0.1,0-0.1,0l0,0v-0.1
		h-0.1c-0.1,0-0.1,0-0.1,0v-0.1v-0.1c-0.1,0-0.1,0-0.2,0c-0.1-0.2-0.1-0.2-0.2-0.2C47,72.9,47,72.8,47,72.7c0,0-0.1,0-0.2,0
		c0,0,0-0.1-0.1-0.1c0-0.1,0-0.1-0.1-0.1l-0.1,0.1c0,0-0.1-0.1-0.1-0.2s-0.1-0.1-0.1-0.1h-0.1h-0.1l0,0v-0.1c0,0-0.1,0-0.1-0.1
		s-0.1-0.1-0.1-0.2c0,0-0.1,0-0.3-0.2v-0.1c0,0-0.1-0.1-0.2-0.2c-0.1-0.1-0.1-0.1-0.2-0.2c0-0.1,0-0.1-0.1-0.2
		c0-0.1-0.1-0.1-0.1-0.2h-0.1l-0.1-0.3c0,0-0.1-0.1-0.2-0.3c-0.1-0.2-0.2-0.3-0.3-0.2c0.1-0.2,0.1-0.3,0-0.4v-0.1
		c0-0.1-0.1-0.1-0.1-0.2v-0.1c0-0.1,0-0.1,0-0.1s0,0,0-0.1v-0.1c0,0,0,0,0-0.1c0,0,0,0-0.1,0l0,0v-0.1H44v-0.1c0-0.1,0-0.1,0-0.1
		s0,0,0-0.1c0,0-0.1-0.1-0.1-0.3c0-0.1-0.1-0.2-0.1-0.3h-0.1c0.1-0.1,0.1-0.3,0-0.5s-0.2-0.3-0.2-0.4c0,0,0-0.1-0.1-0.1l-0.1-0.1
		v-0.1c0-0.1,0-0.1,0-0.1s0,0,0-0.1v-0.1v-0.1c0-0.1,0-0.1-0.1-0.1l-0.1-0.3c0-0.2-0.1-0.3-0.1-0.3c0-0.1,0-0.2-0.1-0.3
		c0-0.1,0-0.1,0-0.2s0-0.2,0-0.3c0,0-0.1-0.1-0.2-0.1c0,0,0-0.1,0.1-0.2c0-0.3-0.1-0.4-0.2-0.5c0-0.2,0-0.3-0.1-0.4
		c0-0.3,0-0.5-0.2-0.6c0,0,0,0,0-0.1s0-0.1,0-0.2c0,0,0-0.1-0.1-0.1l-0.1-0.1v-0.1c0-0.1,0-0.1,0-0.1s0-0.1-0.1-0.1h-0.1
		c0,0,0-0.1,0-0.2c0.1-0.2,0-0.2-0.2-0.3v-0.1c0.1,0,0.1-0.1,0.1-0.1s0-0.2-0.1-0.6c0,0,0,0-0.1-0.1c0,0-0.1,0-0.1-0.1
		c0-0.4,0-0.7,0-0.8c0.1-0.2,0.1-0.3,0.1-0.4c0,0,0.1-0.1,0.1-0.2c0.1-0.1,0.1-0.2,0.2-0.2c0.1,0,0.1,0,0.2,0h0.1h0.1
		c0,0,0.1,0,0.1-0.1l0.1-0.1c0,0,0.1,0,0.2,0c0.1,0,0.2-0.1,0.2-0.1s0.1,0,0.2,0c0.1,0,0.2,0,0.2,0l0.1,0.1c0.1,0,0.1,0.1,0.2,0.1
		c0,0.1,0.1,0.1,0.2,0.1c0.1,0,0.1,0.1,0.2,0.1c0.1,0,0.2,0.1,0.3,0.2c0.1,0.1,0.2,0.2,0.3,0.3c0,0.1,0.1,0.3,0.3,0.6v0.1
		c0,0,0,0.1,0.1,0.1c0,0.1,0,0.1,0,0.2c0,0.1,0,0.2,0,0.2s-0.1,0-0.1,0.1V61c0,0,0,0,0.1,0.1l0.1,0.1c0,0.2,0,0.4,0.1,0.4
		c0,0.2,0,0.3,0.1,0.3s0.1,0,0.1,0V62h-0.1c0,0.1,0,0.1,0,0.2c0,0.1,0,0.2,0,0.2s0,0.1,0.1,0.1l0.1,0.1c0,0,0,0.1-0.1,0.1
		c0.1,0,0.1,0.1,0.1,0.3c0,0.1,0,0.2,0.1,0.3c0,0.1,0,0.1,0,0.2c0,0.3,0.1,0.4,0.2,0.5c0,0,0,0.1,0.1,0.2c-0.1,0.1-0.1,0.2,0,0.3
		c0,0.3,0.1,0.4,0.2,0.4c-0.1,0.1-0.1,0.2,0,0.3c0.1,0.2,0.1,0.3,0.1,0.3v0.1c0,0,0,0.1,0.1,0.1l0.1,0.1v0.1c0,0.1,0,0.1,0,0.1
		s0,0.1,0.1,0.1l0.1,0.1c0,0.2,0,0.3,0,0.3c0.1,0.1,0.1,0.1,0.1,0.1s0,0.1,0.1,0.2c0,0.1,0,0.2,0.1,0.2v0.1c0,0,0,0.1,0.1,0.2
		c0,0.1,0.1,0.2,0.2,0.5c0,0.1,0,0.1,0.1,0.2c0,0.1,0.1,0.1,0.1,0.2c0,0,0,0.1,0.1,0.1v0.1c0,0.1,0,0.1,0,0.1s0,0,0.1,0.1v0.1
		c0,0,0.1,0.1,0.2,0.2c0,0.1,0,0.1,0.1,0.2v0.1c0,0,0,0.1,0.1,0.1c0,0.1,0,0.1,0.1,0.2s0.1,0.1,0.1,0.1v0.1v0.1l0.1,0.1V70
		c0,0,0,0.1,0.1,0.1c0,0,0.1,0,0.1,0.1c0,0,0,0,0,0.1c0,0,0,0.1,0.1,0.1c0,0,0,0.1,0.1,0.1s0.1,0.1,0.1,0.1s0,0.1,0.1,0.1l0.1,0.1
		h0.1c0,0,0,0,0.1,0s0,0,0.1,0.1c0,0.1,0.1,0.1,0.1,0.1s0,0.1,0.1,0.1l0.1,0.1h0.1c0.1,0.1,0.1,0.1,0.2,0.1c0.1,0,0.1,0,0.1,0
		c0.1,0.1,0.3,0.2,0.7,0.1v-0.1c0.1,0,0.1,0,0.2,0c0.1,0,0.2,0,0.2-0.1c0.2,0.1,0.4,0,0.5-0.2c0.1,0,0.2,0,0.3-0.1s0.2-0.1,0.3-0.2
		l0.1-0.2h0.1c0,0,0.1-0.1,0.2-0.2c0.1-0.1,0.2-0.2,0.2-0.2c0.1-0.1,0.1-0.1,0.1-0.3c0.1-0.1,0.2-0.1,0.2-0.2v-0.2
		c0.2-0.1,0.3-0.3,0.3-0.4c0,0,0.1-0.1,0.2-0.1c0,0,0-0.1,0-0.2v-0.1c0-0.1,0-0.1,0-0.2c0.1,0,0.2-0.1,0.2-0.1s0-0.1,0-0.2
		s0-0.1,0-0.2c0.1-0.1,0.2-0.1,0.2-0.1v-0.1v-0.1c0,0,0-0.1,0.1-0.1v-0.1c0-0.1,0-0.1,0-0.1s0-0.1-0.1-0.1c0.1-0.2,0.2-0.3,0.1-0.3
		v-0.2h0.1c0.1,0,0.1-0.1,0.1-0.3c0-0.2,0-0.2,0-0.3s0-0.1-0.1-0.1v-0.2c0.1,0,0.2-0.1,0.2-0.1s0-0.1-0.1-0.1
		c0.1-0.1,0.1-0.1,0.1-0.3c0-0.1-0.1-0.2-0.1-0.3l0.1-0.1c0-0.1,0-0.1-0.1-0.2c0,0,0,0,0-0.1c0,0,0,0,0.1-0.1
		c-0.1-0.2-0.1-0.3-0.1-0.3c0.1-0.1,0.2-0.1,0.2-0.2c0,0,0,0-0.1-0.1c-0.1,0-0.1,0-0.1-0.1c0.1-0.1,0.2-0.1,0.2-0.1
		c0-0.1,0-0.2,0-0.3s0-0.2,0-0.2s-0.1-0.1-0.2-0.1c0-0.1,0-0.1,0-0.2c0-0.1,0-0.1,0-0.2c0,0,0-0.1,0-0.2c0-0.1,0-0.2,0-0.2
		c0-0.1-0.1-0.1-0.2-0.2c0-0.1,0-0.1,0.1-0.1l0.1-0.1c0,0,0-0.1,0-0.2c0,0,0-0.1,0-0.2c0-0.1,0-0.2,0-0.2c-0.1-0.1-0.1-0.2-0.1-0.2
		V61c0-0.1,0-0.1,0-0.1s0-0.1-0.1-0.1L54,60.7c0-0.1,0-0.1,0-0.2c-0.1,0-0.1,0-0.2,0l0,0l0,0c0,0,0,0-0.1,0s-0.1,0-0.1-0.1
		s-0.1-0.2-0.1-0.2h-0.1h-0.1c0-0.1,0-0.1,0-0.2c0-0.1,0-0.2,0-0.2c0-0.1-0.1-0.1-0.1-0.2c-0.1-0.1-0.1-0.1-0.1-0.1
		c-0.2-0.2-0.2-0.3-0.2-0.5v-0.1c0-0.2,0-0.3-0.1-0.3c0,0,0-0.1,0-0.2c0-0.1,0-0.1,0-0.2c0.1,0,0.1,0,0.2,0c0.1,0,0.1,0,0.2,0
		c0.1-0.1,0.1-0.2,0.2-0.3c0-0.1,0-0.2,0-0.2S53.5,57.7,53.6,57.8c0,0,0.1-0.1,0.3-0.2l0.1,0.1c0,0,0.1,0,0.1-0.1
		c0.1-0.1,0.1-0.1,0.1-0.1s0.1,0,0.1,0.1s0.1,0.1,0.1,0.1C53.5,57.9,53.5,57.9,53.6,57.8C53.5,57.8,53.6,57.8,53.6,57.8z"/>
	<path fill="#BF9000" d="M72.3,57.6C72.3,57.5,72.4,57.5,72.3,57.6L72.3,57.6L72.3,57.6c0.3,0.2,0.4,0.1,0.5,0.1c0,0,0,0,0.1,0
		c0,0,0,0,0.1,0h0.1c0.2,0.1,0.3,0.1,0.6,0c0,0.1,0.1,0.1,0.2,0.1s0.2,0,0.3,0.1c0,0,0,0,0.1,0c0,0,0,0,0.1,0s0.1,0,0.1,0.1h0.1h0.1
		c0,0.1,0.1,0.1,0.1,0.3c0.1,0,0.1,0,0.2,0.1s0.1,0.1,0.2,0.1c0.1,0.4,0.2,0.6,0.2,0.7c-0.1,0.2-0.1,0.3,0,0.3c0,0.3,0,0.5,0,0.5
		c0,0.1-0.1,0.1-0.2,0.2c-0.1,0.1-0.2,0.2-0.2,0.3c-0.1,0.1-0.1,0.1-0.1,0.2h-0.1h-0.1c0,0-0.1,0-0.1,0.1c-0.1,0.1-0.1,0.1-0.1,0.1
		h-0.1c-0.1,0-0.1,0-0.1,0s-0.1,0-0.1,0.1l-0.1,0.1c-0.1,0-0.1,0-0.2,0c-0.1,0.1-0.1,0.1-0.1,0.1s-0.1,0-0.1-0.1
		c-0.1,0-0.1-0.1-0.2-0.1s-0.1,0.1-0.1,0.2c0,0.1-0.1,0-0.2-0.1h-0.1H73c0-0.1,0-0.1-0.1-0.2h-0.1c0-0.2-0.1-0.2-0.3-0.2l-0.1,0.1
		h-0.1h-0.1h-0.1c0-0.1-0.1-0.1-0.1-0.1h-0.1v0.1c-0.1,0-0.2,0-0.3-0.1c0,0-0.1,0-0.1,0.1c-0.1,0-0.1,0-0.1-0.1c-0.1,0-0.3,0-0.6,0
		c-0.3,0-0.5,0-0.6,0h-0.1c0,0,0,0-0.1,0s0,0-0.1,0h-0.1c-0.2,0-0.4,0-0.7,0H69c-0.1,0-0.1,0-0.2,0c-0.2-0.1-0.2,0-0.3,0
		c0.1,0,0.1,0.1,0.1,0.3s0.1,0.2,0.2,0.2c-0.1,0.1-0.1,0.2-0.1,0.3v0.1c0.1,0.1,0,0.1,0,0.2c0,0.1,0,0.1,0.1,0.2
		c0,0.1,0.1,0.1,0.1,0.1c0.1,0.3,0,0.4-0.1,0.5c0,0.2,0.1,0.3,0.2,0.3v0.4v0.1l0.1,0.1c0,0.1,0,0.2,0,0.3c0,0,0.1,0.1,0.2,0.2
		c-0.1,0.2-0.1,0.3,0,0.3c-0.1,0.1-0.1,0.1-0.1,0.2s0,0.1,0.1,0.1c0.1,0.2,0.1,0.3,0,0.3c0,0.1,0,0.1,0,0.2s0,0.1,0,0.2s0,0.1,0,0.1
		s0,0.1,0.1,0.1s0.1,0.1,0.1,0.1s0,0.1-0.1,0.1c0,0.1,0,0.2,0,0.3c0,0.1,0,0.2,0,0.3c0.1,0.1,0.1,0.1,0.1,0.2s0,0.1,0,0.1v0.1
		c0,0,0,0,0,0.1v0.1V67v0.1v0.1v0.1c0,0,0,0,0,0.1s0,0.1,0,0.1s0,0.1,0,0.2s0,0.2,0,0.2c0,0.1,0,0.1,0,0.2s0,0.1,0,0.1
		c0,0.1,0.1,0.1,0.1,0.1v0.1c0,0.1,0,0.2,0,0.3l0.1,0.1c0.1,0.2,0.1,0.3,0.1,0.3s-0.1,0.1-0.1,0.2c0,0,0,0,0,0.1s0,0.1,0,0.1v0.1
		l0.1,0.1c0.1,0.2,0.1,0.3,0.1,0.3c0,0.4,0.1,0.6,0.1,0.6h0.1v0.1c0,0.1,0,0.1,0,0.1s-0.1,0-0.1-0.1c-0.1,0.1-0.1,0.1,0,0.2
		c0,0.1,0,0.2,0,0.3c0,0.1,0,0.2,0,0.2c0.1,0.1,0.1,0.2,0.1,0.3c0,0,0.1,0.1,0.1,0.4l0.1,0.1c0,0.1,0,0.2,0,0.4s0,0.4,0,0.4
		c0,0.1,0,0.1,0,0.2c0.1,0.1,0,0.2,0,0.2c0,0.4,0,0.7,0,0.7s0,0.1-0.1,0.1l-0.1,0.1c0,0-0.1,0-0.1,0.1c0,0-0.1,0-0.1-0.1
		c0,0-0.1,0-0.1,0.1c-0.1,0.1-0.1,0.1-0.1,0h-0.1h-0.1l0.5-0.3c-0.1,0-0.1,0-0.1-0.1c0,0,0-0.1-0.1-0.1c0,0-0.1,0.1-0.1,0.2
		c-0.1,0.1-0.2,0.1-0.3,0c0,0,0,0-0.1,0c0,0,0,0-0.1,0c0,0-0.1-0.1-0.2-0.1c-0.2,0-0.3,0-0.3-0.1c-0.1,0-0.1,0-0.2,0
		c0-0.3-0.1-0.4-0.3-0.4c0-0.1,0-0.1,0-0.1s-0.1,0-0.2,0c-0.1-0.2-0.1-0.3-0.2-0.3c0-0.1,0-0.1,0-0.2s0.1-0.1,0.1-0.1s0-0.1,0-0.2
		s0-0.1,0-0.2s0-0.1,0-0.2s0-0.2,0-0.2l0,0h-0.1c-0.1-0.1,0-0.2,0-0.3c0-0.1,0-0.2,0-0.3c-0.1-0.1-0.1-0.2-0.1-0.2s0-0.1,0-0.2
		s0-0.1,0-0.2c0,0,0-0.1-0.1-0.1l-0.1-0.1v-0.1c0-0.1,0-0.1,0-0.1h-0.1c0-0.2,0-0.3,0-0.4c-0.1-0.1-0.1-0.2-0.1-0.2
		c0-0.1,0-0.1,0-0.3c0-0.2-0.1-0.4-0.2-0.4c0.1-0.1,0.1-0.1,0-0.3c0-0.1-0.1-0.2-0.2-0.2c0.2-0.2,0.1-0.5,0-0.7c0,0,0-0.1,0-0.3
		c0-0.2-0.1-0.3-0.1-0.3c0-0.1,0-0.1,0-0.3s0-0.2,0-0.3c0-0.1,0-0.1-0.1-0.2c0-0.1-0.1-0.1-0.1-0.2s0-0.2,0-0.3v-0.1v-0.1
		c0-0.1-0.1-0.1-0.2-0.2c0,0,0-0.1,0.1-0.1s0.1-0.1,0.1-0.1s0-0.1-0.1-0.2c0-0.1,0-0.1,0-0.2s0-0.1,0-0.2s-0.1-0.1-0.1-0.1v-0.6V64
		v-0.1c0,0,0-0.1,0-0.2c0-0.1,0-0.1,0-0.2s0-0.1-0.1-0.1l-0.1-0.1c0,0,0-0.1,0-0.2s0-0.2,0-0.2s0-0.1,0-0.2c0-0.1,0-0.1,0-0.2v-0.1
		c0-0.1,0-0.1,0-0.1s0,0-0.1-0.1v-0.1c0-0.1,0-0.1,0-0.3s0-0.4-0.1-0.4c0-0.2-0.1-0.3-0.2-0.3V61c0,0,0-0.1,0.1-0.1
		c0-0.2-0.1-0.3-0.2-0.3c0.1-0.1,0.1-0.2,0-0.3v-0.1v-0.1c0-0.1,0-0.1,0-0.2s0-0.1-0.1-0.1c-0.1,0.1-0.2,0.1-0.3,0
		C65.1,59.9,65,59.9,65,60c-0.1,0-0.1,0-0.1,0h-0.1h-0.1c-0.1,0-0.1,0-0.2,0c0-0.1-0.1-0.1-0.2-0.2c0,0-0.1,0-0.1,0.1L64.1,60
		c-0.1,0-0.1,0-0.3,0c-0.1,0-0.2,0-0.2,0s-0.1,0-0.2,0c-0.1,0-0.1,0-0.2,0.1h-0.1H63c0,0-0.1,0-0.2,0h-0.1c-0.1,0-0.1,0-0.1,0
		c-0.1,0-0.1,0-0.2,0h-0.1h-0.1c-0.1,0-0.1,0-0.1,0H62c-0.1,0-0.1,0-0.2,0c0,0.1,0,0.1,0,0.1c-0.1,0-0.1,0-0.2,0c-0.1,0-0.1,0-0.2,0
		c0-0.1-0.1-0.1-0.1-0.1c-0.1,0-0.1,0-0.1,0.1c-0.3,0-0.5-0.1-0.5-0.1c-0.1,0-0.1,0-0.2,0c-0.1,0-0.1,0-0.1,0s-0.1,0-0.1,0.1h-0.1
		h-0.1c-0.1,0-0.1,0-0.3,0c-0.1,0-0.2,0-0.2,0s0,0.1-0.1,0.1c0,0,0,0-0.1,0h-0.1c0-0.1,0-0.2-0.1-0.2s-0.2,0-0.3,0.1
		c0,0-0.1,0-0.2,0c-0.1,0-0.1,0-0.1,0c0-0.1-0.1-0.2-0.1-0.2s0,0-0.1,0c0,0,0,0-0.1,0c0,0,0,0,0-0.1s0-0.1,0-0.1h-0.1
		c0-0.1,0-0.1-0.1-0.2v-0.1c0-0.1,0-0.1,0-0.1s-0.1-0.1-0.3-0.3c0-0.1-0.1-0.1-0.2-0.2c-0.1-0.1-0.1-0.1-0.1-0.2v-0.1l0.1-0.1
		c0-0.1,0-0.1,0-0.2c0-0.1,0-0.1,0-0.2c0-0.1,0.1-0.1,0.2-0.2c0,0,0,0,0-0.1s0,0,0,0s0,0,0.1-0.1s0.1-0.2,0.1-0.2
		c0.1-0.1,0.2-0.2,0.3-0.2c0.2,0.1,0.4,0.1,0.7,0v-0.1c0.3,0.1,0.4,0.1,0.5,0.1C59.9,58,60,58,60,58h0.1h0.1h0.1h0.1h0.1h0.1
		c0.2,0,0.3,0,0.4,0c0,0,0.1,0,0.1-0.1c0.1,0,0.1,0,0.2,0c0.1,0.1,0.1,0.1,0.2,0.1c0.1,0,0.2,0,0.4,0c0.1,0,0.1,0,0.2,0
		c0.1,0,0.1,0,0.2-0.1c0.1,0,0.1,0,0.3,0c0.1,0,0.2,0,0.3,0H63c0,0,0,0,0.1,0c0,0,0,0,0.1,0h0.1c0.1,0.1,0.3,0.1,0.6,0H64h0.1
		c0.1,0,0.1,0,0.1,0h0.1c0.1,0,0.1,0,0.2,0c0.1-0.1,0.2-0.1,0.4,0l0,0l0,0H65h0.1c0.1,0,0.3,0,0.5,0s0.4,0,0.5,0h0.1
		c0.1,0.1,0.2,0.1,0.5,0c0.2-0.1,0.3-0.1,0.3-0.1h0.1h0.1h0.1c0,0,0,0,0-0.1c0.1,0,0.1,0,0.2,0s0.2,0,0.2,0l0,0c0.1,0,0.1,0,0.2,0
		s0.1,0.1,0.2,0.1c0.1-0.1,0.2-0.1,0.2-0.1h0.1h0.1c0,0,0,0,0.1,0s0,0,0.1,0h0.1c0.1,0,0.2,0,0.2-0.1c0.1,0,0.2,0,0.3,0.1
		c0.1,0.1,0.1,0.1,0.2,0.1h0.1l0.1-0.1c0.1,0,0.2,0,0.2,0H70h0.1c0,0,0.1,0,0.2,0.1h0.1h0.1c0,0.1,0.1,0.1,0.2,0s0.2-0.1,0.2,0H71
		h0.1c0.1,0,0.1,0,0.2,0s0.1,0,0.2,0s0.1,0,0.1,0c0.1,0,0.1,0,0.2,0s0.1,0,0.2-0.1c0.1,0,0.1,0,0.2,0c0.1,0.1,0.1,0.1,0.1,0.1h0.1
		h0.1c0,0,0.1,0,0.2,0.1C72.3,57.7,72.3,57.7,72.3,57.6z M72.5,57.5C72.5,57.5,72.5,57.6,72.5,57.5c0,0.1,0,0.2,0,0.2
		c0.2,0.1,0.3,0,0.4,0c0,0,0,0,0.1,0c0,0,0,0,0.1,0h0.1c0.2,0.1,0.3,0.1,0.6,0c0,0.1,0.1,0.1,0.2,0.1s0.2,0,0.3,0.1c0,0,0,0,0.1,0
		c0,0,0,0,0.1,0s0.1,0,0.1,0.1h0.1h0.1c0,0.1,0.1,0.1,0.1,0.3c0.1,0,0.1,0,0.2,0.1s0.1,0.1,0.2,0.1c0.1,0.4,0.2,0.6,0.2,0.7
		c-0.1,0.2-0.1,0.3,0,0.3c0,0.3,0,0.5,0,0.5c0,0.1-0.1,0.1-0.2,0.2c-0.1,0.1-0.2,0.2-0.2,0.3C75,60.6,75,60.6,75,60.7h-0.1h-0.1
		c0,0-0.1,0-0.1,0.1c-0.1,0.1-0.1,0.1-0.1,0.1h-0.1c-0.1,0-0.1,0-0.1,0s-0.1,0-0.1,0.1l-0.1,0.1c-0.1,0-0.1,0-0.2,0
		c-0.1,0.1-0.1,0.1-0.1,0.1s-0.1,0-0.1-0.1c-0.1,0-0.1-0.1-0.2-0.1s-0.1,0.1-0.1,0.2c0,0.1-0.1,0-0.2-0.1h-0.1h-0.1
		c0-0.1,0-0.1-0.1-0.2h-0.1c0-0.2-0.1-0.2-0.3-0.2l-0.1,0.1h-0.1h-0.1h-0.1c0-0.1-0.1-0.1-0.1-0.1H72v0.1c-0.1,0-0.2,0-0.3-0.1
		c0,0-0.1,0-0.1,0.1c-0.1,0-0.1,0-0.1-0.1c-0.1,0-0.3,0-0.6,0c-0.3,0-0.5,0-0.6,0h-0.1c0,0,0,0-0.1,0s0,0-0.1,0h-0.1
		c-0.2,0-0.4,0-0.7,0h-0.1c-0.1,0-0.1,0-0.2,0c-0.2-0.1-0.2,0-0.3,0c0.1,0,0.1,0.1,0.1,0.3s0.1,0.2,0.2,0.2
		c-0.1,0.1-0.1,0.2-0.1,0.3v0.1c0.1,0.1,0,0.1,0,0.2c0,0.1,0,0.1,0.1,0.2c0,0.1,0.1,0.1,0.1,0.1c0.1,0.3,0,0.4-0.1,0.5
		c0,0.2,0.1,0.3,0.2,0.3v0.4v0.1l0.1,0.1c0,0.1,0,0.2,0,0.3c0,0,0.1,0.1,0.2,0.2c-0.1,0.2-0.1,0.3,0,0.3c-0.1,0.1-0.1,0.1-0.1,0.2
		s0,0.1,0.1,0.1c0.1,0.2,0.1,0.3,0,0.3c0,0.1,0,0.1,0,0.2s0,0.1,0,0.2s0,0.1,0,0.1s0,0.1,0.1,0.1s0.1,0.1,0.1,0.1s0,0.1-0.1,0.1
		c0,0.1,0,0.2,0,0.3c0,0.1,0,0.2,0,0.3c0.1,0.1,0.1,0.1,0.1,0.2s0,0.1,0,0.1v0.1c0,0,0,0,0,0.1v0.1V67v0.1v0.1v0.1c0,0,0,0,0,0.1
		s0,0.1,0,0.1s0,0.1,0,0.2s0,0.2,0,0.2c0,0.1,0,0.1,0,0.2s0,0.1,0,0.1c0,0.1,0.1,0.1,0.1,0.1v0.1c0,0.1,0,0.2,0,0.3l0.1,0.1
		c0.1,0.2,0.1,0.3,0.1,0.3s-0.1,0.1-0.1,0.2c0,0,0,0,0,0.1s0,0.1,0,0.1v0.1l0.1,0.1C70,69.9,70,70,70,70c0,0.4,0.1,0.6,0.1,0.6h0.1
		v0.1c0,0.1,0,0.1,0,0.1s-0.1,0-0.1-0.1c-0.1,0.1-0.1,0.1,0,0.2c0,0.1,0,0.2,0,0.3c0,0.1,0,0.2,0,0.2c0.1,0.1,0.1,0.2,0.1,0.3
		c0,0,0.1,0.1,0.1,0.4l0.1,0.1c0,0.1,0,0.2,0,0.4s0,0.4,0,0.4c0,0.1,0,0.1,0,0.2c0.1,0.1,0,0.2,0,0.2c0,0.4,0,0.7,0,0.7
		s0,0.1-0.1,0.1l-0.1,0.1c0,0-0.1,0-0.1,0.1c0,0-0.1,0-0.1-0.1c0,0-0.1,0-0.1,0.1c-0.1,0.1-0.1,0.1-0.1,0h-0.1h-0.1l0.4-0.3
		c0,0-0.1,0-0.1-0.1l-0.1-0.1c0,0-0.1,0.1-0.1,0.2c-0.1,0.1-0.2,0.1-0.3,0c0,0,0,0-0.1,0c0,0,0,0-0.1,0c0,0-0.1-0.1-0.2-0.1
		c-0.2,0-0.3,0-0.3-0.1c-0.1,0-0.1,0-0.2,0c0-0.3-0.1-0.4-0.3-0.4c0-0.1,0-0.1,0-0.1s-0.1,0-0.2,0c-0.1-0.2-0.1-0.3-0.2-0.3
		c0-0.1,0-0.1,0-0.2s0.1-0.1,0.1-0.1s0-0.1,0-0.2s0-0.1,0-0.2s0-0.1,0-0.2s0-0.2,0-0.2l0,0h-0.1c-0.1-0.1,0-0.2,0-0.3
		c0-0.1,0-0.2,0-0.3c-0.1-0.1-0.1-0.2-0.1-0.2s0-0.1,0-0.2s0-0.1,0-0.2c0,0,0-0.1-0.1-0.1l-0.1-0.1v-0.1c0-0.1,0-0.1,0-0.1h-0.1
		c0-0.2,0-0.3,0-0.4c-0.1-0.1-0.1-0.2-0.1-0.2c0-0.1,0-0.1,0-0.3c0-0.2-0.1-0.4-0.2-0.4c0.1-0.1,0.1-0.1,0-0.3
		c0-0.1-0.1-0.2-0.2-0.2c0.2-0.2,0.1-0.5,0-0.7c0,0,0-0.1,0-0.3c0-0.2-0.1-0.3-0.1-0.3c0-0.1,0-0.1,0-0.3s0-0.2,0-0.3
		c0-0.1,0-0.1-0.1-0.2c0-0.1-0.1-0.1-0.1-0.2s0-0.2,0-0.3v-0.1v-0.1c0-0.1-0.1-0.1-0.2-0.2c0,0,0-0.1,0.1-0.1s0.1-0.1,0.1-0.1
		s0-0.1-0.1-0.2c0-0.1,0-0.1,0-0.2s0-0.1,0-0.2s-0.1-0.1-0.1-0.1v-0.6V64v-0.1c0,0,0-0.1,0-0.2c0-0.1,0-0.1,0-0.2s0-0.1-0.1-0.1
		l-0.1-0.1c0,0,0-0.1,0-0.2s0-0.2,0-0.2s0-0.1,0-0.2c0-0.1,0-0.1,0-0.2v-0.1c0-0.1,0-0.1,0-0.1s0,0-0.1-0.1v-0.1c0-0.1,0-0.1,0-0.3
		s0-0.4-0.1-0.4c0-0.2-0.1-0.3-0.2-0.3V61c0,0,0-0.1,0.1-0.1c0-0.2-0.1-0.3-0.2-0.3c0.1-0.1,0.1-0.2,0-0.3v-0.1v-0.1
		c0-0.1,0-0.1,0-0.2s0-0.1-0.1-0.1c-0.1,0.1-0.2,0.1-0.3,0C65.1,59.9,65,59.9,65,60c-0.1,0-0.1,0-0.1,0h-0.1h-0.1
		c-0.1,0-0.1,0-0.2,0c0-0.1-0.1-0.1-0.2-0.2c0,0-0.1,0-0.1,0.1L64.1,60c-0.1,0-0.1,0-0.3,0c-0.1,0-0.2,0-0.2,0s-0.1,0-0.2,0
		c-0.1,0-0.1,0-0.2,0.1h-0.1H63c0,0-0.1,0-0.2,0h-0.1c-0.1,0-0.1,0-0.1,0c-0.1,0-0.1,0-0.2,0h-0.1h-0.1c-0.1,0-0.1,0-0.1,0H62
		c-0.1,0-0.1,0-0.2,0c0,0.1,0,0.1,0,0.1s-0.1,0-0.2,0c-0.1,0-0.2,0-0.2,0c0-0.1-0.1-0.1-0.1-0.1c-0.1,0-0.1,0-0.1,0.1
		c-0.3,0-0.5-0.1-0.5-0.1c-0.1,0-0.1,0-0.2,0c-0.1,0-0.1,0-0.1,0s-0.1,0-0.1,0.1h-0.1h-0.1c-0.1,0-0.1,0-0.3,0c-0.1,0-0.2,0-0.2,0
		s0,0.1-0.1,0.1c0,0,0,0-0.1,0h-0.1c0-0.1,0-0.2-0.1-0.2s-0.2,0-0.3,0.1c0,0-0.1,0-0.2,0c-0.1,0-0.1,0-0.1,0c0-0.1-0.1-0.2-0.1-0.2
		s0,0-0.1,0c0,0,0,0-0.1,0c0,0,0,0,0-0.1s0-0.1,0-0.1h-0.1c0-0.1,0-0.1,0-0.1v-0.1v-0.1c0-0.1,0-0.1,0-0.1s-0.1-0.1-0.3-0.3
		c0-0.1-0.1-0.1-0.2-0.2c-0.1-0.1-0.1-0.1-0.1-0.2v-0.1l0.1-0.1c0-0.1,0-0.1,0-0.2c0-0.1,0-0.1,0-0.2c0-0.1,0.1-0.1,0.2-0.2
		c0,0,0,0,0-0.1s0,0,0,0s0,0,0.1-0.1s0.1-0.2,0.1-0.2c0.1-0.1,0.2-0.2,0.3-0.2c0.2,0.1,0.4,0.1,0.7,0v-0.1c0.3,0.1,0.4,0.1,0.5,0.1
		C59.9,58,60,58,60,58h0.1h0.1h0.1h0.1h0.1h0.1c0.2,0,0.3,0,0.4,0c0,0,0.1,0,0.1-0.1c0.1,0,0.1,0,0.2,0c0.1,0.1,0.1,0.1,0.2,0.1
		c0.1,0,0.2,0,0.4,0c0.1,0,0.1,0,0.2,0c0.1,0,0.1,0,0.2-0.1c0.1,0,0.1,0,0.3,0c0.1,0,0.2,0,0.3,0H63c0,0,0,0,0.1,0c0,0,0,0,0.1,0
		h0.1c0.1,0.1,0.3,0.1,0.6,0H64h0.1c0.1,0,0.1,0,0.1,0h0.1c0.1,0,0.1,0,0.2,0c0.1-0.1,0.2-0.1,0.4,0l0,0l0,0H65h0.1
		c0.1,0,0.3,0,0.5,0s0.4,0,0.5,0c0,0,0-0.1,0.1-0.1c0.1,0.1,0.2,0.1,0.5,0c0.2-0.1,0.3-0.1,0.3-0.1h0.1h0.1h0.1c0,0,0,0,0-0.1
		c0.1,0,0.1,0,0.2,0s0.2,0,0.2,0l0,0c0.1,0,0.1,0,0.2,0s0.1,0.1,0.2,0.1c0.1-0.1,0.2-0.1,0.2-0.1h0.1h0.1c0,0,0,0,0.1,0s0,0,0.1,0
		h0.1c0.1,0,0.2,0,0.2-0.1c0.1,0,0.2,0,0.3,0.1c0.1,0.1,0.1,0.1,0.2,0.1c0,0,0.1,0,0.1-0.1l0.1-0.1c0.1,0,0.2,0,0.2,0H70h0.1
		c0,0,0.1,0,0.2,0.1h0.1h0.1c0,0.1,0.1,0.1,0.2,0s0.2-0.1,0.2,0H71h0.1c0.1,0,0.1,0,0.2,0s0.1,0,0.2,0s0.1,0,0.1,0
		c0.1,0,0.1,0,0.2,0s0.1,0,0.2-0.1c0.1,0,0.1,0,0.2,0c0.1,0.1,0.1,0.1,0.1,0.1h0.1h0.1c0,0,0.1,0,0.2,0.1c0.1,0,0.1,0,0.1-0.1
		C72.4,57.5,72.4,57.5,72.5,57.5z M67.1,68.2L67.1,68.2C67.1,68.1,67.2,68.1,67.1,68.2C67.2,68.2,67.2,68.2,67.1,68.2L67.1,68.2z
		 M67.2,68.2L67.2,68.2C67.1,68.2,67.1,68.2,67.2,68.2C67.1,68.2,67.1,68.2,67.2,68.2C67.1,68.1,67.2,68.1,67.2,68.2z M69.7,66.2
		C69.7,66.1,69.8,66.1,69.7,66.2L69.7,66.2z M69.7,66.2C69.7,66.1,69.8,66.1,69.7,66.2L69.7,66.2L69.7,66.2z"/>
</g>
</svg>
