<?xml version="1.0" encoding="utf-8"?>
<!-- Generator: Adobe Illustrator 19.0.1, SVG Export Plug-In . SVG Version: 6.00 Build 0)  -->
<svg version="1.1" id="Layer_1" xmlns="http://www.w3.org/2000/svg" xmlns:xlink="http://www.w3.org/1999/xlink" x="0px" y="0px"
	 viewBox="0 0 100 100" enable-background="new 0 0 100 100" xml:space="preserve">
<g>
	<path fill="#D93427" d="M26,42.4c0,0,0.1,0,0.1,0.1c0.1,0.1,0.1,0.1,0.2,0.1c0,0.1,0.1,0.1,0.3,0.1c0.1,0,0.2,0,0.2,0
		c0.1,0.1,0.1,0.2,0.1,0.2c0.1,0,0.2,0,0.3,0.1c0.1,0.1,0.1,0.1,0.2,0.1c0.1,0,0.2,0,0.2,0s0,0,0,0.1c0,0,0,0.1,0,0.1c0,0,0,0,0.1,0
		c0,0,0.1,0,0.1,0c0,0,0,0.1,0,0.1c0,0,0.1,0,0.1,0c0,0,0.1,0,0.1,0c0,0,0,0.1,0,0.2c0,0.1,0,0.1,0,0.2l0,0.1c0,0.1,0,0.1,0.1,0.2
		c0.1,0.1,0.1,0.2,0.1,0.2c0,0.1,0.1,0.1,0.3,0.1c0,0.2,0,0.4-0.2,0.4c0,0,0,0.1,0,0.2c0,0.1,0,0.1,0,0.2c-0.2,0.1-0.2,0.3-0.1,0.5
		c0,0,0,0.1,0,0.1c0,0,0,0.1,0,0.2c-0.1,0-0.1,0-0.2,0.1c0.1,0.2,0.1,0.4,0,0.4c-0.1,0-0.2,0.1-0.2,0.2c0,0.1-0.1,0.2-0.2,0.3
		c0,0,0,0.1,0,0.2c0,0.1,0,0.1,0,0.2c-0.1,0.1-0.2,0.2-0.2,0.4c-0.1,0.2-0.2,0.4-0.3,0.4c0,0,0,0.1,0,0.1c0,0,0.1,0,0.1,0
		c0,0.1,0,0.1-0.1,0.2c-0.1,0.1-0.1,0.1-0.1,0.2c0,0-0.1,0.1-0.1,0.1c-0.1,0-0.1,0-0.2,0.1c0,0.1,0,0.1,0,0.1
		c-0.2,0.2-0.3,0.5-0.3,0.8c-0.1,0-0.1,0.1-0.1,0.2c0,0.1-0.1,0.2-0.1,0.2c0,0,0,0.1,0,0.2c0,0,0,0.1,0,0.2c0,0.1,0,0.2-0.1,0.3
		c0,0.1,0,0.2-0.1,0.3c-0.1,0-0.1,0.1-0.1,0.1c0,0.1,0.1,0.1,0.1,0.1c0,0.1-0.1,0.2-0.2,0.3c-0.1,0.1-0.2,0.3-0.2,0.4
		c0,0,0,0.1,0,0.1c0,0,0,0.1,0,0.1h-0.1c-0.1,0.1-0.1,0.2-0.1,0.5c0,0-0.1,0-0.1,0c0,0-0.1,0.1-0.1,0.1c0,0,0,0,0,0.1
		c0,0,0,0.1,0,0.1c0,0,0,0,0,0.1c0,0,0,0.1-0.1,0.1c0,0,0,0.1,0,0.1c0,0.1,0,0.1,0,0.1s0,0.1-0.1,0.2c-0.1,0.1-0.1,0.1-0.1,0.2
		c0,0,0,0.1,0,0.1c0,0.1,0,0.1,0,0.1c0,0,0,0,0,0.1c0,0,0,0,0,0.1c0,0,0,0.1,0,0.1s0,0.1,0,0.1c0,0,0,0.1,0,0.1s0,0.1,0,0.1
		c-0.1,0-0.2,0.1-0.2,0.2c0,0.1,0,0.1,0,0.1c0,0,0,0.1-0.1,0.1c0,0,0,0.1,0,0.1c0,0,0,0.1,0,0.2c0,0.1,0,0.2-0.1,0.3
		c0,0.2,0,0.4-0.1,0.5c-0.1,0.2-0.2,0.4-0.2,0.5c0,0,0,0.1-0.1,0.1c0,0.1,0,0.2,0,0.2c-0.1,0.1-0.1,0.1-0.1,0.2s0,0.1,0,0.1
		c0,0,0,0.1,0,0.1l0,0.3c-0.1,0-0.2,0.2-0.1,0.4c-0.2,0.1-0.2,0.2-0.1,0.5l-0.2,0.1c0,0.1,0,0.1,0,0.2c0.1,0.1,0.1,0.1,0,0.2
		c0,0,0,0,0-0.1c-0.1,0-0.1,0.1-0.1,0.2c0,0.1,0,0.2,0,0.3c-0.1,0-0.2,0-0.2,0.1c0,0.3,0.1,0.4,0.2,0.4c0,0.1,0,0.2,0,0.2l-0.1,0v0
		c0,0,0,0,0.1,0c0,0,0.1,0,0.1,0c0,0,0,0.1,0,0.1c0,0.1,0,0.1,0,0.1c-0.1,0-0.2,0-0.2,0c0,0-0.1,0-0.2,0.1c0,0.1,0,0.1,0,0.1
		c0,0,0,0.1,0,0.1c0,0-0.1,0-0.1,0c0,0-0.1,0-0.1,0c0,0.1-0.1,0.2-0.2,0.3c0,0-0.1,0-0.1,0c-0.1,0-0.2,0.1-0.1,0.2c0,0-0.1,0-0.1,0
		c-0.1,0.1-0.2,0.1-0.2,0.2v0c-0.1,0-0.1-0.1-0.1-0.2c0,0-0.1,0-0.1,0v0.1c-0.2,0.1-0.3,0-0.3,0c0,0-0.1,0-0.2,0c-0.1,0-0.1,0-0.2,0
		c-0.1,0.1-0.2,0.1-0.2,0.1c0-0.1-0.1-0.2-0.1-0.3c0-0.1-0.1-0.1-0.2-0.1c-0.1-0.1-0.1-0.1-0.2-0.1c0-0.1,0-0.3-0.2-0.5v-0.1
		c-0.1-0.2-0.3-0.3-0.4-0.4c0,0-0.1,0-0.1,0h-0.1c0-0.3,0-0.5-0.2-0.7c0,0,0,0-0.1,0c0,0,0,0-0.1,0c0,0-0.1-0.1-0.1-0.2
		c0-0.1,0-0.2-0.1-0.2H19c0-0.1,0-0.1-0.1-0.2c-0.1-0.1-0.1-0.2-0.1-0.3c-0.1-0.1-0.3-0.2-0.4-0.4c0-0.1-0.1-0.3-0.3-0.4
		C18,57.6,18,57.5,18,57.4c0-0.1,0-0.1-0.1-0.2c0,0-0.1,0-0.1,0c0,0-0.1,0-0.2,0c0-0.2,0-0.3-0.1-0.4c0-0.1,0-0.2-0.1-0.3
		c-0.1,0-0.1,0-0.2,0c0,0-0.1,0.1-0.1,0.1h0c0,0,0-0.1,0-0.1c0,0,0-0.1,0-0.1c0,0,0-0.1-0.1-0.2c0-0.1-0.1-0.2-0.2-0.2
		c0,0,0-0.1,0-0.1c0-0.1,0-0.1,0-0.1s0,0-0.1-0.1c-0.1,0-0.1-0.1-0.1-0.2c-0.2-0.3-0.4-0.6-0.7-0.8v-0.1c-0.1-0.1-0.2-0.2-0.3-0.2
		c0-0.2-0.1-0.4-0.2-0.5v-0.1c-0.2-0.2-0.3-0.3-0.4-0.3c0,0,0-0.1,0-0.2c0-0.2,0-0.3-0.1-0.3c0,0-0.1,0-0.1,0c0,0-0.1,0-0.1,0
		c0,0,0-0.1,0-0.2c0-0.1,0-0.1,0-0.2c-0.1-0.1-0.2-0.2-0.2-0.2h-0.1c0-0.1,0-0.2,0-0.3c0,0,0-0.1,0-0.1l0,0c0,0,0-0.1,0-0.1
		c0,0,0,0,0-0.1c0,0-0.1,0-0.2,0c-0.1,0-0.1,0-0.2,0c0-0.1,0-0.2,0-0.3c0,0,0,0,0,0c0,0-0.1,0-0.1,0c0-0.1,0-0.1,0-0.3
		c0,0-0.1,0-0.1,0c0,0,0-0.1,0-0.1c0-0.1,0-0.1,0-0.1c0,0,0,0-0.1,0c-0.1-0.1-0.1-0.1,0-0.2c0.1-0.1,0.1-0.2,0.1-0.2
		c0,0-0.1-0.1-0.2-0.2c-0.1-0.1-0.1-0.1-0.2-0.2v-0.1c0,0,0-0.1-0.1-0.1c0,0-0.1-0.1-0.1-0.1c0-0.1,0-0.1-0.1-0.2
		c0-0.1-0.1-0.1-0.1-0.2c-0.1-0.1-0.2-0.3-0.3-0.6c0,0-0.1-0.1-0.2-0.1c0,0,0,0,0-0.1c0,0,0,0,0.1,0c0,0-0.1-0.1-0.1-0.3
		c0-0.1-0.1-0.3-0.1-0.4c0,0-0.1,0-0.3,0c0.1-0.1,0.1-0.3,0-0.3c0,0,0-0.1-0.1-0.1c0-0.1-0.1-0.3-0.2-0.4c0-0.1,0-0.1-0.1-0.2
		c-0.1-0.1-0.1-0.2-0.1-0.3c0,0,0-0.1-0.1-0.1c0,0-0.1,0-0.1,0c0,0,0,0,0-0.1c0-0.1,0-0.1,0-0.1c0,0,0-0.1-0.1-0.1
		c0,0-0.1-0.1-0.1-0.1s0-0.1,0-0.2c0-0.1,0-0.2,0-0.2c0,0-0.1,0-0.1,0s-0.1,0-0.1,0V46c0-0.1,0-0.1,0-0.1c0,0,0,0-0.1,0
		c0-0.1,0-0.2,0-0.4c0,0,0,0,0.1,0c0,0,0.1,0,0.1,0c0,0,0-0.1,0-0.2c0,0,0.1-0.1,0.1-0.2c0-0.1,0.1-0.1,0.1-0.2c0,0,0.1,0,0.1,0
		c0.1,0,0.2-0.1,0.2-0.2c0,0,0.1-0.1,0.1-0.2c0.1-0.1,0.1-0.1,0.2-0.1c0-0.1,0-0.2,0.1-0.3c0.1,0,0.1,0,0.2,0c0.2,0,0.3,0.1,0.3,0.2
		h0.5l0,0c0.1,0.1,0.2,0.1,0.2,0.1c0.1,0.1,0.2,0.2,0.3,0.3c0.1,0.1,0.2,0.2,0.3,0.3c0.1,0,0.1,0,0.3,0.1c-0.1,0.1,0,0.2,0.2,0.2
		c0.1,0.1,0,0.3-0.1,0.3c0,0,0.1,0.1,0.2,0.2c0,0.2,0.1,0.4,0.3,0.6c-0.1,0.2,0,0.3,0.1,0.3c0,0.1,0,0.2,0,0.3
		c0,0.1,0.1,0.2,0.1,0.2c0,0,0,0.1,0.1,0.1c0,0,0.1,0.1,0.1,0.1c0,0.1,0,0.2,0,0.2c0,0,0.1,0.1,0.1,0.1c0.1,0.1,0.1,0.1,0.1,0.1
		c0.1,0,0.1,0,0.1,0c0,0,0,0.1,0,0.1c0,0,0,0,0,0.1s0,0.1,0,0.2c0,0.1,0,0.1,0,0.2s0,0.1,0,0.1c0,0,0.1,0,0.1,0l0.3,0.3
		c0,0,0,0.1,0,0.1c0,0,0,0.1,0,0.1c0,0,0,0.1,0.1,0.1c0.1,0.1,0.1,0.1,0,0.2c0.1,0.1,0.1,0.1,0.2,0.1c0,0,0.1,0.2,0.3,0.6
		c0,0,0,0.1,0.1,0.1c0,0.1,0,0.1,0.1,0.2c0,0.1,0.1,0.1,0.1,0.2c0,0.1,0.1,0.1,0.1,0.1c0.1,0.3,0.2,0.4,0.3,0.4c0,0.1,0,0.1,0.1,0.2
		c0,0.1,0.1,0.1,0.1,0.2c0.1,0.1,0.2,0.2,0.2,0.3c0,0.1,0,0.2,0.1,0.2c0.1,0,0.1,0.1,0.3,0.1c0.1,0.1,0,0.1,0,0.3c0,0,0.1,0,0.1,0
		c0,0,0.1,0,0.1,0c0,0,0,0.1,0,0.1c0,0.1,0,0.1,0,0.2c0,0,0.1,0,0.1,0c0,0,0.1,0,0.2,0c0.1,0.3,0.2,0.5,0.2,0.6c0,0,0,0.1,0,0.1
		c0.1,0.1,0.2,0.2,0.2,0.3l0-0.1c0,0,0,0,0.1,0.1c0,0.1,0,0.1,0.1,0.1c0,0.1,0,0.1,0.1,0.2c0.1,0.1,0.1,0.1,0.1,0.2c0,0,0.1,0,0.1,0
		c0,0.1,0.1,0.2,0.3,0.2c0,0.1,0,0.1,0,0.1c0,0,0,0,0.1,0.1c0,0.1,0,0.2,0,0.3c0.1,0.1,0.2,0.1,0.3,0.1c0,0,0,0.1,0,0.2
		c0,0.1,0.1,0.2,0.1,0.2c0,0,0,0,0.1,0c0,0,0,0,0.1,0c0,0.3,0.2,0.6,0.4,0.7c0.1,0,0.2,0,0.2,0v-0.2c0-0.1,0.1-0.2,0.3-0.3v-0.1
		c0.1-0.1,0.1-0.2,0.1-0.4c0,0,0.1-0.1,0.1-0.1c0,0,0-0.1,0.1-0.1c0.1,0,0.1-0.1,0.1-0.1c0,0,0-0.1,0-0.1c0,0,0-0.1,0.1-0.2
		c0.1-0.1,0.1-0.2,0-0.2c0,0,0-0.1,0-0.1c0-0.1,0-0.2,0-0.3c0.2,0,0.2,0,0.2-0.2c0.1-0.1,0.1-0.1,0.1-0.1c0-0.1,0-0.2,0-0.3
		C22,53.1,22,53.1,22,53c0.1,0,0.1-0.1,0.1-0.1c0-0.1,0-0.2,0.1-0.3c0.1-0.1,0.1-0.3,0-0.4c0.1-0.1,0.1-0.2,0.1-0.3c0,0,0-0.1,0-0.1
		c0,0,0-0.1,0-0.1c0,0,0.1-0.1,0.2-0.1c0-0.1,0.1-0.2,0.2-0.3c0-0.2,0.1-0.3,0.1-0.3c0,0,0-0.1,0-0.1c0-0.1,0-0.1,0-0.1
		c0,0,0,0,0.1,0c0,0,0,0,0.1,0c0,0,0-0.1,0.1-0.2c0-0.1,0.1-0.1,0.1-0.2c0-0.1,0-0.1,0-0.2c0-0.1,0-0.2,0-0.2l0-0.1
		c0-0.1,0-0.1,0-0.1c0.1-0.3,0.2-0.5,0.2-0.6l0.1,0c0-0.1,0.1-0.2,0.2-0.3c0.1-0.1,0.2-0.3,0.1-0.4c0-0.1,0.1-0.1,0.1-0.3
		C24,48.1,24,48,24.1,48c0,0,0.1-0.1,0.2-0.1c0,0,0-0.1,0-0.4c0,0,0-0.1,0-0.1c0,0,0-0.1,0-0.1c0,0,0-0.1,0-0.1c0,0,0-0.1,0-0.1
		c0,0,0.1-0.1,0.2-0.2c0,0,0,0,0,0l0,0c0,0,0-0.1,0-0.2c0-0.1,0-0.2,0-0.2c-0.1-0.1-0.1-0.2-0.1-0.2c0.2-0.1,0.3-0.1,0.3-0.2
		c0,0,0-0.1,0-0.2c0-0.1,0-0.1,0-0.2c0,0,0-0.1,0.1-0.1c0,0,0-0.1-0.1-0.1c0,0-0.1-0.1-0.1-0.1c0,0,0.1-0.1,0.2-0.2
		c0-0.1,0-0.2,0-0.4c0-0.2,0-0.4,0-0.4c0,0,0.1-0.1,0.1-0.1c0,0,0.1-0.1,0.1-0.1L25,44.1c-0.1-0.1-0.1-0.2,0-0.3
		c0.1-0.1,0.1-0.1,0.1-0.2l0-0.2c-0.1-0.1-0.1-0.2,0-0.3h0.3c0-0.2,0.1-0.4,0.3-0.5c0,0,0-0.1,0-0.1s0,0,0,0s0,0,0.1,0
		C26,42.5,26,42.5,26,42.4z M25.7,42.5C25.7,42.5,25.7,42.5,25.7,42.5C25.7,42.5,25.8,42.5,25.7,42.5c0,0,0.1,0,0.1,0
		c0.1,0,0.2,0,0.2-0.1c0,0,0.1,0,0.1,0.1c0.1,0.1,0.1,0.1,0.2,0.1c0,0.1,0.1,0.1,0.3,0.1c0.1,0,0.2,0,0.2,0c0.1,0.1,0.1,0.2,0.1,0.2
		c0.1,0,0.2,0,0.3,0.1c0.1,0.1,0.1,0.1,0.2,0.1c0.1,0,0.2,0,0.2,0s0,0,0,0.1c0,0,0,0.1,0,0.1c0,0,0,0,0.1,0c0,0,0.1,0,0.1,0
		c0,0,0,0,0,0.1c0,0,0,0.1,0,0.1c0,0,0,0,0.1,0c0,0,0.1,0,0.1,0c0,0,0,0.1,0,0.2c0,0.1,0,0.1,0,0.2l0,0.1c0,0.1,0,0.1,0.1,0.2
		c0.1,0.1,0.1,0.2,0.1,0.2c0,0.1,0.1,0.1,0.3,0.1c0,0.2,0,0.4-0.2,0.4c0,0,0,0.1,0,0.2c0,0.1,0,0.1,0,0.2c-0.2,0.1-0.2,0.3-0.1,0.5
		c0,0,0,0.1,0,0.1c0,0,0,0.1,0,0.2c-0.1,0-0.1,0-0.2,0.1c0.1,0.2,0.1,0.4,0,0.4c-0.1,0-0.2,0.1-0.2,0.2c0,0.1-0.1,0.2-0.2,0.3
		c0,0,0,0.1,0,0.2c0,0.1,0,0.1,0,0.2c-0.1,0.1-0.2,0.2-0.2,0.4c-0.1,0.2-0.2,0.4-0.3,0.4c0,0,0,0.1,0,0.1c0,0,0.1,0,0.1,0
		c0,0.1,0,0.1-0.1,0.2c-0.1,0.1-0.1,0.1-0.1,0.2c0,0-0.1,0.1-0.1,0.1c-0.1,0-0.1,0-0.2,0.1c0,0.1,0,0.1,0,0.1
		c-0.2,0.2-0.3,0.5-0.3,0.8c-0.1,0-0.1,0.1-0.1,0.2c0,0.1-0.1,0.2-0.1,0.2c0,0,0,0.1,0,0.2c0,0,0,0.1,0,0.2c0,0.1,0,0.2-0.1,0.3
		c0,0.1,0,0.2-0.1,0.3c-0.1,0-0.1,0.1-0.1,0.1c0,0.1,0.1,0.1,0.1,0.1c0,0.1-0.1,0.2-0.2,0.3c-0.1,0.1-0.2,0.3-0.2,0.4
		c0,0,0,0.1,0,0.1c0,0,0,0.1,0,0.1h-0.1c-0.1,0.1-0.1,0.2-0.1,0.5c0,0-0.1,0-0.1,0c0,0-0.1,0.1-0.1,0.1c0,0,0,0,0,0.1
		c0,0,0,0.1,0,0.1c0,0,0,0,0,0.1c0,0,0,0.1-0.1,0.1c0,0,0,0.1,0,0.1c0,0.1,0,0.1,0,0.1s0,0.1-0.1,0.2c-0.1,0.1-0.1,0.1-0.1,0.2
		c0,0,0,0.1,0,0.1c0,0.1,0,0.1,0,0.1c0,0,0,0,0,0.1c0,0,0,0,0,0.1c0,0,0,0.1,0,0.1s0,0.1,0,0.1c0,0,0,0.1,0,0.1s0,0.1,0,0.1
		c-0.1,0-0.2,0.1-0.2,0.2c0,0.1,0,0.1,0,0.1c0,0,0,0.1-0.1,0.1c0,0,0,0.1,0,0.1c0,0,0,0.1,0,0.2c0,0.1,0,0.2-0.1,0.3
		c0,0.2,0,0.4-0.1,0.5c-0.1,0.2-0.2,0.4-0.2,0.5c0,0,0,0.1-0.1,0.1c0,0.1,0,0.2,0,0.2c-0.1,0.1-0.1,0.1-0.1,0.2s0,0.1,0,0.1
		c0,0,0,0.1,0,0.1l0,0.3c-0.1,0-0.2,0.2-0.1,0.4c-0.2,0.1-0.2,0.2-0.1,0.5l-0.2,0.1c0,0.1,0,0.1,0,0.2c0.1,0.1,0.1,0.1,0,0.2
		c0,0,0,0,0-0.1c-0.1,0-0.1,0.1-0.1,0.2c0,0.1,0,0.2,0,0.3c-0.1,0-0.2,0-0.2,0.1c0,0.3,0.1,0.4,0.2,0.4c0,0.1,0,0.2,0,0.2l-0.1,0v0
		c0,0,0,0,0.1,0c0,0,0.1,0,0.1,0c0,0,0,0.1,0,0.1c0,0.1,0,0.1,0,0.1c-0.1,0-0.2,0-0.2,0c0,0-0.1,0-0.2,0.1c0,0.1,0,0.1,0,0.1
		c0,0,0,0.1,0,0.1c0,0-0.1,0-0.1,0c0,0-0.1,0-0.1,0c0,0.1-0.1,0.2-0.2,0.3c0,0-0.1,0-0.1,0c-0.1,0-0.2,0.1-0.1,0.2c0,0-0.1,0-0.1,0
		c-0.1,0.1-0.2,0.1-0.2,0.2v0c-0.1,0-0.1-0.1-0.1-0.2c0,0-0.1,0-0.1,0v0.1c-0.2,0.1-0.3,0-0.3,0c0,0-0.1,0-0.2,0c-0.1,0-0.1,0-0.2,0
		c-0.1,0.1-0.2,0.1-0.2,0.1c0-0.1-0.1-0.2-0.1-0.3c0-0.1-0.1-0.1-0.2-0.1c-0.1-0.1-0.1-0.1-0.2-0.1c0-0.1,0-0.3-0.2-0.5v-0.1
		c-0.1-0.2-0.3-0.3-0.4-0.4c0,0-0.1,0-0.1,0h-0.1c0-0.3,0-0.5-0.2-0.7c0,0,0,0-0.1,0c0,0,0,0-0.1,0c0,0-0.1-0.1-0.1-0.2
		c0-0.1,0-0.2-0.1-0.2H19c0-0.1,0-0.1-0.1-0.2c-0.1-0.1-0.1-0.2-0.1-0.3c-0.1-0.1-0.3-0.2-0.4-0.4c0-0.1-0.1-0.3-0.3-0.4
		C18,57.6,18,57.5,18,57.4c0-0.1,0-0.1-0.1-0.2c-0.1,0.1-0.2,0.1-0.3,0c0-0.2,0-0.3-0.1-0.4c0-0.1,0-0.2-0.1-0.3c-0.1,0-0.1,0-0.2,0
		c0,0-0.1,0.1-0.1,0.1h0c0,0,0-0.1,0-0.1c0,0,0-0.1,0-0.1c0,0,0-0.1-0.1-0.2c0-0.1-0.1-0.2-0.2-0.2c0,0,0-0.1,0-0.1
		c0-0.1,0-0.1,0-0.1s0,0-0.1-0.1c-0.1,0-0.1-0.1-0.1-0.2c-0.2-0.3-0.4-0.6-0.7-0.8v-0.1c-0.1-0.1-0.2-0.2-0.3-0.2
		c0-0.2-0.1-0.4-0.2-0.5v-0.1c-0.2-0.2-0.3-0.3-0.4-0.3c0,0,0-0.1,0-0.2c0-0.2,0-0.3-0.1-0.3c0,0-0.1,0-0.1,0c0,0-0.1,0-0.1,0
		c0,0,0-0.1,0-0.2c0-0.1,0-0.1,0-0.2c-0.1-0.1-0.2-0.2-0.2-0.2h-0.1c0-0.1,0-0.2,0-0.3c0,0,0-0.1,0-0.1l0,0c0,0,0-0.1,0-0.1
		c0,0,0,0,0-0.1c0,0-0.1,0-0.2,0c-0.1,0-0.1,0-0.2,0c0-0.1,0-0.2,0-0.3c0,0,0,0,0,0c0,0-0.1,0-0.1,0c0-0.1,0-0.1,0-0.3
		c0,0-0.1,0-0.1,0c0,0,0-0.1,0-0.1c0-0.1,0-0.1,0-0.1c0,0,0,0-0.1,0c-0.1-0.1-0.1-0.1,0-0.2c0.1-0.1,0.1-0.2,0.1-0.2
		c0,0-0.1-0.1-0.2-0.2c-0.1-0.1-0.1-0.1-0.2-0.2v-0.1c0,0,0-0.1-0.1-0.1c0,0-0.1-0.1-0.1-0.1c0-0.1,0-0.1-0.1-0.2
		c0-0.1-0.1-0.1-0.1-0.2c-0.1-0.1-0.2-0.3-0.3-0.6c0,0-0.1-0.1-0.2-0.1c0,0,0-0.1,0.1-0.1c0,0-0.1-0.1-0.1-0.3
		c0-0.1-0.1-0.3-0.1-0.4c0,0-0.1,0-0.3,0c0.1-0.1,0.1-0.3,0-0.3c0,0,0-0.1-0.1-0.1c0-0.1-0.1-0.3-0.2-0.4c0-0.1,0-0.1-0.1-0.2
		c-0.1-0.1-0.1-0.2-0.1-0.3c0,0,0-0.1-0.1-0.1c0,0-0.1,0-0.1,0c0,0,0,0,0-0.1c0-0.1,0-0.1,0-0.1c0,0,0-0.1-0.1-0.1
		c0,0-0.1-0.1-0.1-0.1s0-0.1,0-0.2c0-0.1,0-0.2,0-0.2c0,0-0.1,0-0.1,0s-0.1,0-0.1,0V46c0-0.1,0-0.1,0-0.1c0,0,0,0-0.1,0
		c0-0.1,0-0.2,0-0.4c0,0,0,0,0.1,0c0,0,0.1,0,0.1,0c0,0,0-0.1,0-0.2c0,0,0.1-0.1,0.1-0.2c0-0.1,0.1-0.1,0.1-0.2c0,0,0.1,0,0.1,0
		c0.1,0,0.2-0.1,0.2-0.2c0,0,0.1-0.1,0.1-0.2c0.1-0.1,0.1-0.1,0.2-0.1c0-0.1,0-0.2,0.1-0.3c0.1,0,0.1,0,0.2,0c0.2,0,0.3,0.1,0.3,0.2
		h0.5l0,0c0.1,0.1,0.2,0.1,0.2,0.1c0.1,0.1,0.2,0.2,0.3,0.3c0.1,0.1,0.2,0.2,0.3,0.3c0.1,0,0.1,0,0.3,0.1c-0.1,0.1,0,0.2,0.2,0.2
		c0.1,0.1,0,0.3-0.1,0.3c0,0,0.1,0.1,0.2,0.2c0,0.2,0.1,0.4,0.3,0.6c-0.1,0.2,0,0.3,0.1,0.3c0,0.1,0,0.2,0,0.3
		c0,0.1,0.1,0.2,0.1,0.2c0,0,0,0.1,0.1,0.1c0,0,0.1,0.1,0.1,0.1c0,0.1,0,0.2,0,0.2c0,0,0.1,0.1,0.1,0.1c0.1,0.1,0.1,0.1,0.1,0.1
		c0.1,0,0.1,0,0.1,0c0,0,0,0.1,0,0.1c0,0,0,0,0,0.1s0,0.1,0,0.2c0,0.1,0,0.1,0,0.2s0,0.1,0,0.1c0,0,0.1,0,0.1,0l0.3,0.3
		c0,0,0,0.1,0,0.1c0,0,0,0.1,0,0.1c0,0,0,0.1,0.1,0.1c0.1,0.1,0.1,0.1,0,0.2c0.1,0.1,0.1,0.1,0.2,0.1c0,0,0.1,0.2,0.3,0.6
		c0,0,0,0.1,0.1,0.1c0,0.1,0,0.1,0.1,0.2c0,0.1,0.1,0.1,0.1,0.2c0,0.1,0.1,0.1,0.1,0.1c0.1,0.3,0.2,0.4,0.3,0.4c0,0.1,0,0.1,0.1,0.2
		c0,0.1,0.1,0.1,0.1,0.2c0.1,0.1,0.2,0.2,0.2,0.3c0,0.1,0,0.2,0.1,0.2c0.1,0,0.1,0.1,0.3,0.1c0.1,0.1,0,0.1,0,0.3c0,0,0.1,0,0.1,0
		c0,0,0.1,0,0.1,0c0,0,0,0.1,0,0.1c0,0.1,0,0.1,0,0.2c0,0,0.1,0,0.1,0c0,0,0.1,0,0.2,0c0.1,0.3,0.2,0.5,0.2,0.6c0,0,0,0.1,0,0.1
		c0.1,0.1,0.2,0.2,0.2,0.3l0-0.1c0,0,0,0,0.1,0.1c0,0.1,0,0.1,0.1,0.1c0,0.1,0,0.1,0.1,0.2c0.1,0.1,0.1,0.1,0.1,0.2c0,0,0.1,0,0.1,0
		c0,0.1,0.1,0.2,0.3,0.2c0,0.1,0,0.1,0,0.1c0,0,0,0,0.1,0.1c0,0.1,0,0.2,0,0.3c0.1,0.1,0.2,0.1,0.3,0.1c0,0,0,0.1,0,0.2
		c0,0.1,0.1,0.2,0.1,0.2c0,0,0,0,0.1,0c0,0,0,0,0.1,0c0,0.3,0.2,0.6,0.4,0.7c0.1,0,0.2,0,0.2,0v-0.2c0-0.1,0.1-0.2,0.3-0.3v-0.1
		c0.1-0.1,0.1-0.2,0.1-0.4c0,0,0.1-0.1,0.1-0.1c0,0,0-0.1,0.1-0.1c0.1,0,0.1-0.1,0.1-0.1c0,0,0-0.1,0-0.1c0,0,0-0.1,0.1-0.2
		c0.1-0.1,0.1-0.2,0-0.2c0,0,0-0.1,0-0.1c0-0.1,0-0.2,0-0.3c0.2,0,0.2,0,0.2-0.2c0.1-0.1,0.1-0.1,0.1-0.1c0-0.1,0-0.2,0-0.3
		C22,53.1,22,53.1,22,53c0.1,0,0.1-0.1,0.1-0.1c0-0.1,0-0.2,0.1-0.3c0.1-0.1,0.1-0.3,0-0.4c0.1-0.1,0.1-0.2,0.1-0.3c0,0,0-0.1,0-0.1
		c0,0,0-0.1,0-0.1c0,0,0.1-0.1,0.2-0.1c0-0.1,0.1-0.2,0.2-0.3c0-0.2,0.1-0.3,0.1-0.3c0,0,0-0.1,0-0.1c0-0.1,0-0.1,0-0.1
		c0,0,0,0,0.1,0c0,0,0,0,0.1,0c0,0,0-0.1,0.1-0.2c0-0.1,0.1-0.1,0.1-0.2c0-0.1,0-0.1,0-0.2c0-0.1,0-0.2,0-0.2l0-0.1
		c0-0.1,0-0.1,0-0.1c0.1-0.3,0.2-0.5,0.2-0.6l0.1,0c0-0.1,0.1-0.2,0.2-0.3c0.1-0.1,0.2-0.3,0.1-0.4c0-0.1,0.1-0.1,0.1-0.3
		C24,48.1,24,48,24.1,48c0,0,0.1-0.1,0.2-0.1c0,0,0-0.1,0-0.4c0,0,0-0.1,0-0.1c0,0,0-0.1,0-0.1c0,0,0-0.1,0-0.1c0,0,0-0.1,0-0.1
		c0,0,0.1-0.1,0.2-0.2c0,0,0,0,0,0l0,0c0,0,0-0.1,0-0.2c0-0.1,0-0.2,0-0.2c-0.1-0.1-0.1-0.2-0.1-0.2c0.2-0.1,0.3-0.1,0.3-0.2
		c0,0,0-0.1,0-0.2c0-0.1,0-0.1,0-0.2c0,0,0-0.1,0.1-0.1c0,0,0-0.1-0.1-0.1c0,0-0.1-0.1-0.1-0.1c0,0,0.1-0.1,0.2-0.2
		c0-0.1,0-0.2,0-0.4c0-0.2,0-0.4,0-0.4c0,0,0.1-0.1,0.1-0.1c0,0,0.1-0.1,0.1-0.1L25,44.1c-0.1-0.1-0.1-0.2,0-0.3
		c0.1-0.1,0.1-0.1,0.1-0.2l0-0.2c-0.1-0.1-0.1-0.2,0-0.3h0.3C25.4,42.9,25.5,42.8,25.7,42.5C25.7,42.6,25.7,42.6,25.7,42.5z
		 M16.4,49.7L16.4,49.7C16.4,49.7,16.4,49.7,16.4,49.7C16.4,49.8,16.4,49.7,16.4,49.7C16.4,49.7,16.4,49.7,16.4,49.7z M16.4,49.7
		C16.4,49.7,16.4,49.7,16.4,49.7C16.4,49.8,16.4,49.7,16.4,49.7L16.4,49.7z M20.7,55.7C20.8,55.7,20.8,55.7,20.7,55.7
		C20.8,55.8,20.8,55.8,20.7,55.7L20.7,55.7z M20.7,55.8L20.7,55.8C20.8,55.7,20.8,55.7,20.7,55.8C20.8,55.8,20.8,55.8,20.7,55.8z"/>
	<path fill="#D93427" d="M44.6,39.3C44.6,39.4,44.6,39.4,44.6,39.3c0,0.1,0,0.1,0,0.1c0.2,0,0.4,0.1,0.5,0.2
		c0.2,0.2,0.3,0.3,0.5,0.3c0,0.1,0.1,0.2,0.2,0.4c0.2,0.1,0.2,0.3,0.2,0.5c0,0,0.1,0,0.2,0c0,0.1,0,0.1-0.1,0.1
		c-0.1,0-0.1,0.1-0.1,0.1c0,0,0,0.1,0,0.1c0,0,0,0.1,0,0.1c0,0.1,0,0.2-0.1,0.3C46,41.8,46,41.9,46,41.9c-0.1,0-0.1,0-0.2,0
		c0,0,0,0.1,0,0.2c0,0.1-0.1,0.1-0.2,0.1l-0.1,0.2c0,0-0.1,0-0.2,0.1c0,0-0.1,0-0.1,0c0,0-0.1,0.1-0.1,0.1c-0.1,0-0.1,0-0.1,0
		c0,0,0,0,0,0c0,0-0.1,0-0.1,0c0,0,0,0-0.1,0c-0.1,0-0.2,0-0.3,0.1c-0.1,0-0.2-0.1-0.4-0.2c-0.1,0-0.2,0-0.3-0.1
		c-0.1-0.1-0.2-0.1-0.2-0.1c0,0-0.1,0-0.1,0c0,0-0.1,0-0.1,0c-0.1,0-0.2,0-0.4,0s-0.3,0-0.4,0.1c-0.1-0.1-0.3-0.1-0.5,0
		c0,0,0,0-0.1,0c0,0,0,0-0.1,0c0,0-0.1,0-0.2,0s-0.1,0-0.2,0c0,0-0.2,0-0.4,0c-0.2,0-0.3,0-0.3,0.1c0,0,0,0.1,0,0.1
		c0,0.1,0,0.1,0,0.1c0,0,0,0,0,0.1c0,0.1,0,0.1,0,0.1s0,0.1,0.1,0.2c0,0.1,0.1,0.1,0.1,0.2c0,0,0,0.1,0,0.2c0,0.1,0,0.2,0,0.3
		c0,0.1,0,0.2,0,0.2c0,0.1,0.1,0.1,0.2,0.1c0,0.1,0,0.2-0.1,0.2c0,0.1,0,0.1,0,0.3c0,0.1,0,0.2,0,0.2c0,0,0,0.1,0.1,0.1
		c0,0,0.1,0.1,0.1,0.1c0,0.1,0,0.2,0,0.5c0,0.2,0,0.4,0,0.5c0,0,0,0.1,0,0.1c0,0,0,0.1,0,0.1c0,0.1,0,0.2,0,0.3l0,0.1
		c0,0.1,0,0.1,0,0.3c0,0.3,0,0.5,0.1,0.6c0,0,0,0.1,0,0.1c0,0,0,0.1,0,0.1c0,0,0,0.1,0.1,0.1c0,0,0.1,0,0.1,0.1s0,0-0.1,0
		c0,0-0.1,0-0.1,0c0,0,0,0,0,0c0,0,0.1,0.1,0.2,0.1c0,0,0,0.1,0,0.1c0,0,0,0.1,0,0.1c0,0,0,0.1,0,0.2c0,0.1,0,0.2,0,0.3
		c0,0.1,0,0.1,0,0.2c0,0,0,0,0,0.1c0,0,0,0.1,0,0.1c0,0.1,0,0.1,0,0.1c0,0.1,0,0.1,0,0.1c0,0,0,0.1,0,0.1c0,0,0,0.1,0,0.1
		c0,0.1,0,0.1,0,0.1c0.1,0.1,0.1,0.2,0,0.3c0,0.1,0,0.2,0,0.3c0,0,0.1,0,0.1,0.1c0,0,0,0.1,0,0.1c0,0,0,0.1-0.1,0.1
		c0,0.1-0.1,0.1-0.1,0.1c0,0,0.1,0.1,0.1,0.1c0,0,0,0.1,0.1,0.1c0,0,0,0.1,0,0.1c0,0.1,0,0.2,0,0.3c0,0.2,0,0.3,0,0.4
		c0,0.1,0,0.1,0,0.2c0,0,0,0,0,0.1c0,0,0,0.1,0,0.1s0,0.1,0,0.3c0,0.1,0,0.2,0,0.4c0,0,0,0.1,0,0.2c0,0.1,0,0.2,0,0.3l0.1,0.1
		c0,0.1,0,0.1,0,0.2c0,0.1,0,0.1,0,0.1c0,0,0,0.1,0.1,0.2c0,0.1,0.1,0.1,0.1,0.2s0,0.1,0,0.2c0,0.1,0,0.2,0,0.2c0,0,0,0.1,0.1,0.3
		c0,0.1,0,0.1,0,0.1c0,0,0,0.1,0,0.3c0,0.2,0,0.3,0,0.3c0,0,0,0.1,0,0.2c0,0.1,0,0.2,0,0.2c0,0.1,0,0.1,0,0.2c0,0,0,0,0,0.1
		c0,0,0,0,0.1,0c0,0.1,0,0.1,0,0.2c0,0.1,0,0.1,0,0.2c0,0,0,0.1,0,0.1c0,0,0,0.1,0,0.1v0.1c0,0.1,0,0.2,0.1,0.2
		c0,0.1,0.1,0.2,0.2,0.3c0.1,0,0.3,0,0.5,0c0.2,0,0.3,0,0.4,0c0,0,0.1,0,0.1,0c0,0,0.1-0.1,0.1-0.1c0.2,0,0.4,0,0.4,0.1
		c0,0,0.1,0,0.1,0c0,0,0.1,0,0.1,0s0.1,0,0.1,0s0.1,0,0.1,0s0.1,0,0.1,0c0.1,0,0.1,0,0.1,0c0.1,0.1,0.3,0.1,0.5,0c0,0,0.1,0,0.2,0
		c0.1,0,0.1,0,0.2,0l0.1-0.1c0,0,0.1,0,0.2,0c0.1,0,0.1,0,0.2,0c0,0,0-0.1,0-0.1c0,0,0-0.1,0-0.1h0.2c0,0,0,0,0,0.1c0,0,0,0.1,0,0.1
		c0.1,0,0.2,0,0.2-0.1c0.1-0.1,0.1-0.1,0.2,0v0.1c0.5,0.1,0.9,0.1,1.3,0.1l0.1,0c0.3,0.1,0.6,0.1,0.6,0c0,0,0.1,0.1,0.2,0.1
		c0.1,0,0.1,0.1,0.2,0.1c0.1,0,0.2,0,0.3,0c0,0.1,0,0.2,0.2,0.3c0.1,0.1,0.2,0.2,0.2,0.3c0,0,0.1,0,0.1,0c0,0,0.1,0,0.1,0
		c0,0.1,0,0.1,0,0.2c0.2,0.2,0.3,0.4,0.2,0.6l0,0.1c0,0,0,0.1,0,0.1s0.1,0.1,0.1,0.1c0,0.1-0.1,0.1-0.2,0.1c0,0.1,0,0.2-0.1,0.3
		C50,59.5,50,59.6,50,59.6c0,0-0.1,0-0.1,0.1c0,0-0.1,0.1-0.1,0.1v0.1c-0.2,0-0.4,0.1-0.4,0.1c0,0,0,0.1,0,0.1c-0.1,0-0.1,0-0.2,0
		c-0.1,0-0.2,0.1-0.2,0.2l-0.1,0c0-0.2-0.1-0.2-0.3-0.2c0,0-0.1,0.1-0.1,0.1c0,0-0.1,0-0.1,0c-0.1,0-0.1-0.1-0.2-0.1
		c-0.1,0-0.1,0-0.2,0.1c-0.1,0-0.3,0-0.6,0c-0.3,0-0.5,0-0.7,0c0-0.1-0.1-0.2-0.1-0.1c0,0,0,0-0.1,0.1c0,0,0,0.1-0.1,0.1
		c0,0-0.1,0-0.3,0s-0.3,0-0.3,0L45.5,60c0,0,0,0-0.1,0c0,0,0,0.1-0.1,0.1c0,0-0.1-0.1-0.2-0.1C45.1,60,45.1,60,45,60
		c-0.2,0-0.3,0-0.3,0c-0.1,0-0.1,0.1-0.1,0.2c0,0-0.1,0-0.2,0c-0.1,0-0.2,0-0.2,0c0,0,0-0.1-0.1-0.1c0,0,0,0-0.1-0.1
		c-0.1,0-0.1,0-0.2,0.1c-0.1,0-0.1,0.1-0.2,0.1c-0.1-0.1-0.1-0.1-0.2-0.1c-0.1,0-0.1,0.1-0.1,0.2c-0.1,0-0.1,0-0.2-0.1
		c-0.1,0-0.1,0-0.3,0c-0.3,0-0.4,0-0.5,0.1c0,0-0.1,0-0.1-0.1c-0.2,0.1-0.4,0.2-0.4,0.2c-0.1,0-0.2,0-0.2,0
		c-0.1-0.1-0.2-0.1-0.5-0.1c-0.1,0-0.2,0-0.2,0c0,0-0.1,0-0.1,0c0,0,0,0.1,0,0.1c-0.1,0-0.2,0-0.4,0c-0.2,0-0.3,0.1-0.3,0.1
		c0,0-0.1,0-0.2,0c0,0,0,0-0.1,0c0,0,0,0-0.1,0c0,0-0.1,0-0.1,0c-0.1,0-0.2,0.1-0.3,0.2c0,0-0.1,0-0.3,0c-0.2,0-0.3,0-0.3,0
		c-0.1,0-0.1,0-0.1,0c0,0,0,0-0.1,0c0,0,0,0.1,0,0.1c-0.1,0-0.1,0-0.1-0.1c0,0,0-0.1,0-0.1c-0.1,0-0.1,0-0.1,0.1l0,0
		c0,0-0.1,0-0.1,0c0,0-0.1,0-0.1,0c-0.1,0-0.1,0.1-0.2,0.2c-0.3,0.1-0.5,0-0.5-0.1c-0.1,0-0.2,0.1-0.3,0.1c0,0.1,0,0.1,0,0.1
		c0,0-0.1,0-0.2,0c0,0-0.1,0-0.1,0c0,0-0.1,0-0.1-0.1c-0.2,0-0.4,0-0.7,0.1c-0.3,0.1-0.4,0.1-0.5,0.1c0,0.1,0,0.1,0,0.1
		c-0.1,0-0.1,0-0.2,0c-0.1,0-0.1,0-0.1,0c0,0,0,0,0-0.1c0,0,0-0.1,0-0.1c0,0,0,0,0,0s0,0,0,0c0,0-0.1,0-0.1,0c0,0-0.1,0-0.1,0
		c0,0,0,0-0.1,0c0,0-0.1,0-0.1,0c0,0-0.1,0-0.2,0c-0.1,0-0.2,0-0.3,0c-0.1,0-0.1,0-0.1,0c-0.1,0-0.2,0-0.3,0c-0.2,0-0.3,0-0.3,0
		c0,0-0.1,0-0.1,0c0,0-0.1,0-0.1,0c0,0-0.1,0-0.1,0c-0.1,0-0.3,0-0.5,0c0,0,0,0,0,0.1c0,0,0,0.1,0,0.1h0c0,0,0-0.1,0-0.2
		c0,0-0.1,0-0.1,0c-0.1,0-0.2,0-0.2-0.1c0,0-0.1,0-0.2,0c-0.1-0.2-0.2-0.3-0.3-0.3c0,0.1,0,0.1,0,0.1c-0.1,0-0.1,0-0.2,0
		c0-0.1-0.1-0.2-0.2-0.4c-0.2-0.1-0.3-0.2-0.3-0.3c0,0,0-0.1,0-0.2s0-0.2,0-0.2c-0.1-0.3-0.1-0.5,0-0.5c0,0,0.1-0.1,0.1-0.2
		c0-0.1,0-0.2,0-0.3c0,0,0.1,0,0.1,0c0,0,0.1,0,0.1,0c0.2-0.2,0.4-0.4,0.6-0.5c0.6,0,1.3,0,2.1,0c0.1-0.1,0.1-0.1,0.2-0.1
		c0.1,0,0.1,0,0.2,0.1c0.1,0,0.1,0,0.2,0c0.1,0,0.1-0.1,0.1-0.1c0.1,0,0.1,0,0.2,0.1c0.1,0,0.1,0.1,0.2,0c0,0,0.1,0,0.1-0.1
		c0.1,0,0.1-0.1,0.1-0.1s0.1,0,0.1,0.1c0,0,0.1,0.1,0.1,0.1s0.1,0,0.2-0.1h0.1c0.1-0.1,0.3-0.2,0.5-0.2c0,0,0.2-0.1,0.4-0.1
		c0,0,0.1,0,0.1,0c0.1,0,0.1,0,0.2,0c0.1,0,0.2,0,0.2,0c0,0,0.1,0,0.1,0s0.1-0.1,0.1-0.1c0,0,0.1,0,0.1,0c0.1,0,0.1,0,0.1,0
		c0,0,0-0.1,0.1-0.1c0.1,0,0.2,0,0.4,0c0.2,0,0.3,0,0.4-0.1c0,0,0-0.1,0-0.1c0,0,0,0,0-0.1c0.1,0,0.3,0,0.8,0c0.1-0.1,0.1-0.2,0-0.4
		c0-0.3,0-0.6-0.1-0.7c0.1,0,0.1-0.1,0-0.2c0-0.1,0-0.1,0-0.2c0-0.1,0-0.1,0-0.2c0,0,0,0,0-0.1c0,0,0-0.1,0-0.1c0,0,0-0.1,0-0.1
		c0-0.1,0-0.1,0-0.1c-0.2-0.1-0.2-0.3-0.1-0.5c0-0.1,0-0.4,0-0.6s0-0.5,0-0.6c0,0-0.1-0.1-0.1-0.1c0,0,0,0-0.1,0c0,0,0,0,0-0.1
		c0,0,0-0.1,0-0.1c0.1,0,0.1-0.1,0.2-0.1c0-0.1,0-0.1-0.1-0.1c0-0.1,0-0.2,0-0.4c0-0.2,0-0.3,0-0.3c0-0.1,0-0.1,0-0.2
		c0-0.1,0-0.1,0-0.2s0-0.1,0-0.1c0-0.1,0-0.1,0-0.1c0,0,0-0.1,0-0.2c0-0.1,0-0.2,0-0.2c0,0,0,0-0.1,0c0-0.1,0-0.2,0-0.3
		c0-0.1,0-0.2,0-0.6c0-0.3,0-0.5,0-0.6c0,0,0-0.1,0-0.1s0-0.1,0-0.1s0,0,0-0.1c0,0,0-0.1,0-0.1c0,0,0-0.1,0-0.2s0-0.1,0-0.2
		c0,0,0,0,0.1-0.1c0,0,0.1,0,0.1-0.1c0,0-0.1-0.2-0.2-0.5c-0.2,0-0.2-0.2-0.1-0.6c0.1,0,0.1,0,0.1,0v0c0,0,0,0-0.1,0c0,0,0,0,0,0
		c0,0,0-0.1,0-0.2c0,0,0,0,0.1,0c0-0.1,0-0.2,0-0.3c0-0.2,0-0.3-0.1-0.4c0-0.1-0.1-0.2-0.2-0.2v-0.2c0,0,0.1,0,0.1,0
		c0,0,0-0.1,0-0.2c0-0.1,0-0.3,0-0.5c0-0.2,0-0.3-0.1-0.3c0,0,0,0,0-0.1c0-0.1,0-0.1,0-0.1c0,0,0,0,0-0.1c0-0.1,0-0.1,0-0.1
		c0-0.1,0.1-0.1,0.1-0.1c0-0.1,0-0.2,0-0.2c0,0-0.1-0.1-0.1-0.4c0,0,0-0.1,0-0.1c0,0,0,0,0-0.1c0,0,0,0,0,0c0,0,0,0,0-0.1
		c0,0,0-0.1-0.1-0.1c0,0-0.1-0.1-0.1-0.1s0-0.1,0-0.1c0-0.1,0-0.1,0-0.1c0-0.1,0-0.2-0.1-0.3c0-0.1,0-0.2-0.1-0.3
		c-0.1-0.1-0.1-0.2-0.1-0.3c-0.1,0-0.1,0-0.1,0c0,0,0,0.1,0,0.1c0-0.1-0.1-0.1-0.3,0c0,0,0-0.1,0-0.1s0-0.1,0-0.1
		c-0.1,0-0.1,0-0.2,0c0,0,0,0.1,0,0.1c0,0,0,0.1,0,0.1s-0.1,0-0.1,0c0,0-0.1,0-0.1,0s-0.1,0-0.1,0c-0.1,0-0.1,0-0.2,0
		c0,0-0.1,0-0.1,0c0,0,0,0-0.1,0c-0.1,0-0.1,0.1-0.1,0.2c-0.1,0-0.1,0-0.1,0v-0.1c-0.1-0.1-0.1-0.1-0.3,0c0,0,0,0.1,0,0.1
		c0,0,0,0,0,0s-0.1,0-0.1,0s-0.1,0-0.1,0c-0.1,0-0.2,0-0.4,0c-0.2,0-0.3,0-0.4,0c-0.2,0-0.4,0-0.4,0c-0.1-0.1-0.2-0.1-0.3,0
		c-0.1,0-0.2,0-0.3,0c-0.1,0-0.2,0-0.3,0c-0.1,0-0.2,0-0.4,0c-0.2,0-0.3,0-0.4,0c0,0-0.1,0-0.1,0.1c0,0,0,0,0,0c0,0,0-0.1,0-0.1
		c0,0.1-0.1,0.1-0.1,0.1c-0.1,0-0.1-0.1-0.2-0.1c0,0-0.1,0-0.1,0c0,0-0.1-0.1-0.1-0.1c0,0-0.1-0.1-0.1-0.1c-0.2,0.1-0.4,0-0.6-0.2
		c-0.1,0-0.1-0.1-0.2-0.2c-0.1-0.1-0.2-0.2-0.2-0.2c-0.1,0-0.2,0-0.2-0.1c-0.1-0.1-0.1-0.1-0.1-0.3c-0.2-0.2-0.3-0.3-0.4-0.4
		c0-0.1,0-0.2-0.1-0.3c0,0,0-0.1,0.1-0.2c0-0.2,0.2-0.4,0.4-0.8c0.1,0,0.2-0.1,0.3-0.2c0,0,0.1,0,0.1,0s0.1,0,0.1,0
		c0,0,0.1,0,0.1-0.1c0,0,0.1-0.1,0.1-0.1c0,0,0.1,0,0.3,0c0.1,0,0.2,0,0.3,0c0,0,0.1-0.1,0.1-0.1c0,0,0.1-0.1,0.1-0.1
		c0.1,0,0.1,0,0.2,0.1c0.1,0.1,0.2,0.1,0.2,0.1c0,0,0.1,0,0.1,0c0.1,0,0.1,0,0.1,0c0.1,0,0.3,0,0.5,0c0.2,0,0.4,0,0.5,0
		c0.1,0,0.2,0,0.3-0.1c0.2,0.1,0.3,0.1,0.4,0c0,0,0.1,0,0.1,0c0,0,0.1,0,0.1,0s0.1,0,0.1,0c0,0,0,0,0-0.1c0.1,0,0.2,0,0.4,0
		c0.2,0,0.3,0,0.3-0.1c0.2,0.1,0.4,0.1,0.6,0c0,0,0,0,0-0.1c0,0,0.1,0,0.1-0.1c0.1,0,0.3,0,0.5,0c0.2,0,0.4,0,0.5,0
		c0.1,0,0.2-0.1,0.2-0.2c0.1,0,0.1,0,0.3,0.1c0,0,0.1,0,0.1,0c0.7,0,1.1,0,1.3-0.1c0.1,0,0.1,0,0.3,0c0,0,0,0,0.1,0c0,0,0,0,0.1,0
		c0.1-0.1,0.2-0.1,0.4-0.1c0.2,0,0.3,0,0.4,0c0.1-0.1,0.1-0.1,0.1-0.1h0.3c0,0,0.1,0,0.1,0c0.1,0,0.1,0,0.1,0c0.1,0,0.1,0,0.2,0
		c0.3,0,0.5,0,0.6-0.1l0.2,0.1c0.2-0.2,0.4-0.2,0.6,0c0,0,0.1,0,0.3,0c0.2,0,0.3,0,0.3,0l0.1,0c0,0,0.1,0,0.2,0c0.1,0,0.1,0,0.2,0
		c0.1,0,0.2,0,0.3,0c0.2,0,0.3,0,0.4,0C44.4,39.3,44.5,39.3,44.6,39.3z M44.3,39.4c0.1-0.1,0.2-0.1,0.3-0.1c0,0,0,0.1,0,0.1
		c0,0,0,0,0,0c0.2,0,0.4,0.1,0.5,0.2c0.2,0.2,0.3,0.3,0.5,0.3c0,0.1,0.1,0.2,0.2,0.4c0.2,0.1,0.2,0.3,0.2,0.5c0,0,0.1,0,0.2,0
		c0,0.1,0,0.1-0.1,0.1c-0.1,0-0.1,0.1-0.1,0.1c0,0,0,0.1,0,0.1c0,0,0,0.1,0,0.1c0,0.1,0,0.2-0.1,0.3C46,41.8,46,41.9,46,41.9
		c-0.1,0-0.1,0-0.2,0c0,0,0,0.1,0,0.2c0,0.1-0.1,0.1-0.2,0.1l-0.1,0.2c0,0-0.1,0-0.2,0.1c0,0-0.1,0-0.1,0c0,0-0.1,0.1-0.1,0.1
		c-0.1,0-0.1,0-0.1,0c0,0,0,0,0,0c0,0-0.1,0-0.1,0c0,0,0,0-0.1,0c-0.1,0-0.2,0-0.3,0.1c-0.1,0-0.2-0.1-0.4-0.2c-0.1,0-0.2,0-0.3-0.1
		c-0.1-0.1-0.2-0.1-0.2-0.1c0,0-0.1,0-0.1,0c0,0-0.1,0-0.1,0c-0.1,0-0.2,0-0.4,0s-0.3,0-0.4,0.1c-0.1-0.1-0.3-0.1-0.5,0
		c0,0,0,0-0.1,0c0,0,0,0-0.1,0c0,0-0.1,0-0.2,0s-0.1,0-0.2,0c0,0-0.2,0-0.4,0c-0.2,0-0.3,0-0.3,0.1c0,0,0,0.1,0,0.1
		c0,0.1,0,0.1,0,0.1c0,0,0,0,0,0.1c0,0.1,0,0.1,0,0.1s0,0.1,0.1,0.2c0,0.1,0.1,0.1,0.1,0.2c0,0,0,0.1,0,0.2c0,0.1,0,0.2,0,0.3
		c0,0.1,0,0.2,0,0.2c0,0.1,0.1,0.1,0.2,0.1c0,0.1,0,0.2-0.1,0.2c0,0.1,0,0.1,0,0.3c0,0.1,0,0.2,0,0.2c0,0,0,0.1,0.1,0.1
		c0,0,0.1,0.1,0.1,0.1c0,0.1,0,0.2,0,0.4c0,0.2,0,0.4,0,0.5c0.1,0.1,0.1,0.1,0.1,0.2c0,0.1,0,0.2,0,0.3l0,0.1c0,0.1,0,0.1,0,0.3
		c0,0.3,0,0.5,0.1,0.6c0,0,0,0.1,0,0.1c0,0,0,0.1,0,0.1c0,0,0,0.1,0.1,0.1c0,0,0.1,0,0.1,0.1s0,0-0.1,0c0,0-0.1,0-0.1,0
		c0,0.1,0.1,0.1,0.2,0.2c0,0,0,0.1,0,0.1c0,0,0,0.1,0,0.1c0,0,0,0.1,0,0.2c0,0.1,0,0.2,0,0.3c0,0.1,0,0.1,0,0.2c0,0,0,0,0,0.1
		c0,0,0,0.1,0,0.1c0,0.1,0,0.1,0,0.1c0,0.1,0,0.1,0,0.1c0,0,0,0.1,0,0.1c0,0,0,0.1,0,0.1c0,0.1,0,0.1,0,0.1c0.1,0.1,0.1,0.2,0,0.3
		c0,0.1,0,0.2,0,0.3c0,0,0.1,0,0.1,0.1c0,0,0,0.1,0,0.1c0,0,0,0.1-0.1,0.1c0,0.1-0.1,0.1-0.1,0.1c0,0,0.1,0.1,0.1,0.1
		c0,0,0,0.1,0.1,0.1c0,0,0,0.1,0,0.1c0,0.1,0,0.2,0,0.3c0,0.2,0,0.3,0,0.4c0,0.1,0,0.1,0,0.2c0,0,0,0,0,0.1c0,0,0,0.1,0,0.1
		s0,0.1,0,0.3c0,0.1,0,0.2,0,0.4c0,0,0,0.1,0,0.2c0,0.1,0,0.2,0,0.3l0.1,0.1c0,0.1,0,0.1,0,0.2c0,0.1,0,0.1,0,0.1c0,0,0,0.1,0.1,0.2
		c0,0.1,0.1,0.1,0.1,0.2s0,0.1,0,0.2c0,0.1,0,0.2,0,0.2c0,0,0,0.1,0.1,0.3c0,0.1,0,0.1,0,0.1c0,0,0,0.1,0,0.3c0,0.2,0,0.3,0,0.3
		c0,0,0,0.1,0,0.2c0,0.1,0,0.2,0,0.2c0,0.1,0,0.1,0,0.2c0,0,0,0,0,0.1c0,0,0,0,0.1,0c0,0.1,0,0.1,0,0.2c0,0.1,0,0.1,0,0.2
		c0,0,0,0.1,0,0.1c0,0,0,0.1,0,0.1v0.1c0,0.1,0,0.2,0.1,0.2c0,0.1,0.1,0.2,0.2,0.3c0.1,0,0.3,0,0.5,0c0.2,0,0.3,0,0.4,0
		c0,0,0.1,0,0.1,0c0,0,0.1-0.1,0.1-0.1c0.2,0,0.4,0,0.4,0.1c0,0,0.1,0,0.1,0c0,0,0.1,0,0.1,0s0.1,0,0.1,0s0.1,0,0.1,0s0.1,0,0.1,0
		c0.1,0,0.1,0,0.1,0c0.1,0.1,0.3,0.1,0.5,0c0,0,0.1,0,0.2,0c0.1,0,0.1,0,0.2,0l0.1-0.1c0,0,0.1,0,0.2,0c0.1,0,0.1,0,0.2,0
		c0-0.1,0-0.1,0-0.1h0.2c0,0,0,0,0,0.1c0,0,0,0.1,0,0.1c0.1,0,0.2,0,0.2-0.1c0.1-0.1,0.1-0.1,0.2,0v0.1c0.5,0.1,0.9,0.1,1.3,0.1
		l0.1,0c0.3,0.1,0.6,0.1,0.6,0c0,0,0.1,0.1,0.2,0.1c0.1,0,0.1,0.1,0.2,0.1c0.1,0,0.2,0,0.3,0c0,0.1,0,0.2,0.2,0.3
		c0.1,0.1,0.2,0.2,0.2,0.3c0,0,0.1,0,0.1,0c0,0,0.1,0,0.1,0c0,0.1,0,0.1,0,0.2c0.2,0.2,0.3,0.4,0.2,0.6c0,0,0,0.1,0,0.1
		c0,0,0,0.1,0,0.1s0.1,0.1,0.1,0.1c0,0.1-0.1,0.1-0.2,0.1c0,0.1,0,0.2-0.1,0.3C50,59.5,50,59.6,50,59.6c0,0-0.1,0-0.1,0.1
		c0,0-0.1,0.1-0.1,0.1v0.1c-0.2,0-0.4,0.1-0.4,0.1c0,0,0,0.1,0,0.1c-0.1,0-0.1,0-0.2,0c-0.1,0-0.2,0.1-0.2,0.2l-0.1,0
		c0-0.2-0.1-0.2-0.3-0.2c0,0-0.1,0.1-0.1,0.1c0,0-0.1,0-0.1,0c-0.1,0-0.1-0.1-0.2-0.1c-0.1,0-0.1,0-0.2,0.1c-0.1,0-0.3,0-0.6,0
		c-0.3,0-0.5,0-0.7,0c0-0.1-0.1-0.2-0.1-0.2c0,0,0,0.1-0.1,0.1c0,0,0,0.1-0.1,0.1c0,0-0.1,0-0.3,0s-0.3,0-0.3,0L45.5,60
		c0,0,0,0-0.1,0c0,0,0,0.1-0.1,0.1c0,0-0.1-0.1-0.2-0.1C45.1,60,45.1,60,45,60c-0.2,0-0.3,0-0.3,0c-0.1,0-0.1,0.1-0.1,0.2
		c0,0-0.1,0-0.2,0c-0.1,0-0.2,0-0.2,0c0,0,0-0.1-0.1-0.1c0,0,0,0-0.1-0.1c-0.1,0-0.1,0-0.2,0.1c-0.1,0-0.1,0.1-0.2,0.1
		c-0.1-0.1-0.1-0.1-0.2-0.1c-0.1,0-0.1,0.1-0.1,0.2c-0.1,0-0.1,0-0.2-0.1c-0.1,0-0.1,0-0.3,0c-0.3,0-0.4,0-0.5,0.1
		c0,0-0.1,0-0.1-0.1c-0.2,0.1-0.4,0.2-0.4,0.2c-0.1,0-0.2,0-0.2,0c-0.1-0.1-0.2-0.1-0.5-0.1c-0.1,0-0.2,0-0.2,0c0,0-0.1,0-0.1,0
		c0,0,0,0.1,0,0.1c-0.1,0-0.2,0-0.4,0c-0.2,0-0.3,0.1-0.3,0.1c0,0-0.1,0-0.2,0c0,0,0,0-0.1,0c0,0,0,0-0.1,0c0,0-0.1,0-0.1,0
		c-0.1,0-0.2,0.1-0.3,0.2c0,0-0.1,0-0.3,0c-0.2,0-0.3,0-0.3,0c-0.1,0-0.1,0-0.1,0c0,0,0,0-0.1,0c0,0,0,0.1,0,0.1
		c-0.1,0-0.1,0-0.1-0.1c0,0,0-0.1,0-0.1c-0.1,0-0.1,0-0.1,0.1l0,0c0,0-0.1,0-0.1,0c0,0-0.1,0-0.1,0c-0.1,0-0.1,0.1-0.2,0.2
		c-0.3,0.1-0.5,0-0.5-0.1c-0.1,0-0.2,0.1-0.3,0.1c0,0.1,0,0.1,0,0.1c0,0-0.1,0-0.2,0c0,0-0.1,0-0.1,0c0,0-0.1,0-0.1-0.1
		c-0.2,0-0.4,0-0.7,0.1c-0.3,0.1-0.4,0.1-0.5,0.1c0,0.1,0,0.1,0,0.1c-0.1,0-0.1,0-0.2,0c-0.1,0-0.1,0-0.1,0c0,0,0,0,0-0.1
		c0,0,0-0.1,0-0.1c0,0,0,0,0,0s0,0,0,0c0,0-0.1,0-0.1,0c0,0-0.1,0-0.1,0c0,0,0,0-0.1,0c0,0-0.1,0-0.1,0c0,0-0.1,0-0.2,0
		c-0.1,0-0.2,0-0.3,0c-0.1,0-0.1,0-0.1,0c-0.1,0-0.2,0-0.3,0c-0.2,0-0.3,0-0.3,0c0,0-0.1,0-0.1,0c0,0-0.1,0-0.1,0c0,0-0.1,0-0.1,0
		c-0.1,0-0.3,0-0.5,0c0,0,0,0,0,0.1c0,0,0,0.1,0,0.1h0c0,0,0,0,0-0.1c0,0-0.1,0-0.1,0c-0.1,0-0.2,0-0.2-0.1c0,0-0.1,0-0.2,0
		c-0.1-0.2-0.2-0.3-0.3-0.3c0,0.1,0,0.1,0,0.1c-0.1,0-0.1,0-0.2,0c0-0.1-0.1-0.2-0.2-0.4c-0.2-0.1-0.3-0.2-0.3-0.3c0,0,0-0.1,0-0.2
		s0-0.2,0-0.2c-0.1-0.3-0.1-0.5,0-0.5c0,0,0.1-0.1,0.1-0.2c0-0.1,0-0.2,0-0.3c0,0,0.1,0,0.1,0c0,0,0.1,0,0.1,0
		c0.2-0.2,0.4-0.4,0.6-0.5c0.6,0,1.3,0,2.1,0c0.1-0.1,0.1-0.1,0.2-0.1c0.1,0,0.1,0,0.2,0.1c0.1,0,0.1,0,0.2,0c0.1,0,0.1-0.1,0.1-0.1
		c0.1,0,0.1,0,0.2,0.1c0.1,0,0.1,0.1,0.2,0c0,0,0.1,0,0.1-0.1c0.1,0,0.1-0.1,0.1-0.1s0.1,0,0.1,0.1c0,0,0.1,0.1,0.1,0.1
		s0.1,0,0.2-0.1h0.1c0.1-0.1,0.3-0.2,0.5-0.2c0,0,0.2-0.1,0.4-0.1c0,0,0.1,0,0.1,0c0.1,0,0.1,0,0.2,0c0.1,0,0.2,0,0.2,0
		c0,0,0.1,0,0.1,0s0.1-0.1,0.1-0.1c0,0,0.1,0,0.1,0c0.1,0,0.1,0,0.1,0c0,0,0-0.1,0.1-0.1c0.1,0,0.2,0,0.4,0c0.2,0,0.3,0,0.4-0.1
		c0,0,0-0.1,0-0.1c0,0,0,0,0-0.1c0.1,0,0.3,0,0.8,0c0.1-0.1,0.1-0.2,0-0.4c0-0.3,0-0.6-0.1-0.7c0.1,0,0.1-0.1,0-0.2
		c0-0.1,0-0.1,0-0.2c0-0.1,0-0.1,0-0.2c0,0,0,0,0-0.1c0,0,0-0.1,0-0.1c0,0,0-0.1,0-0.1c0-0.1,0-0.1,0-0.1c-0.2-0.1-0.2-0.3-0.1-0.5
		c0-0.1,0-0.4,0-0.6s0-0.5,0-0.6c0,0-0.1-0.1-0.1-0.1c0,0,0,0-0.1,0c0,0,0,0,0-0.1c0,0,0-0.1,0-0.1c0.1,0,0.1-0.1,0.2-0.1
		c0-0.1,0-0.1-0.1-0.1c0-0.1,0-0.2,0-0.4c0-0.2,0-0.3,0-0.3c0-0.1,0-0.1,0-0.2c0-0.1,0-0.1,0-0.2s0-0.1,0-0.1c0-0.1,0-0.1,0-0.1
		c0,0,0-0.1,0-0.2c0-0.1,0-0.2,0-0.2c0,0,0,0-0.1,0c0-0.1,0-0.2,0-0.3c0-0.1,0-0.2,0-0.6c0-0.3,0-0.5,0-0.6c0,0,0-0.1,0-0.1
		s0-0.1,0-0.1s0,0,0-0.1c0,0,0-0.1,0-0.1c0,0,0-0.1,0-0.2s0-0.1,0-0.2c0,0,0,0,0.1-0.1c0,0,0.1,0,0.1-0.1c0,0-0.1-0.2-0.2-0.5
		c-0.2,0-0.2-0.2-0.1-0.6c0.1,0,0.1,0,0.1,0v0c0,0,0,0-0.1,0c0,0,0,0,0,0c0,0,0-0.1,0-0.2c0,0,0,0,0.1,0c0-0.1,0-0.2,0-0.3
		c0-0.2,0-0.3-0.1-0.4c0-0.1-0.1-0.2-0.2-0.2v-0.2c0,0,0.1,0,0.1,0c0,0,0-0.1,0-0.2c0-0.1,0-0.3,0-0.5c0-0.2,0-0.3-0.1-0.3
		c0,0,0,0,0-0.1c0-0.1,0-0.1,0-0.1c0,0,0,0,0-0.1c0-0.1,0-0.1,0-0.1c0-0.1,0.1-0.1,0.1-0.1c0-0.1,0-0.2,0-0.2c0,0-0.1-0.2-0.1-0.4
		c0,0,0-0.1,0-0.1c0,0,0,0,0-0.1c0,0,0,0,0,0c0,0,0,0,0-0.1c0,0,0-0.1-0.1-0.1c0,0-0.1-0.1-0.1-0.1s0-0.1,0-0.1c0-0.1,0-0.1,0-0.1
		c0-0.1,0-0.2-0.1-0.3c0-0.1,0-0.2-0.1-0.3c-0.1-0.1-0.1-0.2-0.1-0.3c-0.1,0-0.1,0-0.1,0c0,0,0,0.1,0,0.1c0-0.1-0.1-0.1-0.3,0
		c0,0,0-0.1,0-0.1s0-0.1,0-0.1c-0.1,0-0.1,0-0.2,0c0,0,0,0.1,0,0.1c0,0,0,0.1,0,0.1c0,0-0.1,0-0.1,0c0,0-0.1,0-0.1,0s-0.1,0-0.1,0
		c-0.1,0-0.1,0-0.2,0c0,0-0.1,0-0.1,0c0,0,0,0-0.1,0c-0.1,0-0.1,0.1-0.1,0.2c-0.1,0-0.1,0-0.1,0v-0.1c-0.1-0.1-0.1-0.1-0.3,0
		c0,0,0,0.1,0,0.1c0,0,0,0,0,0s-0.1,0-0.1,0s-0.1,0-0.1,0c-0.1,0-0.2,0-0.4,0c-0.2,0-0.3,0-0.4,0c-0.2,0-0.4,0-0.4,0
		c-0.1-0.1-0.2-0.1-0.3,0c-0.1,0-0.2,0-0.3,0c-0.1,0-0.2,0-0.3,0c-0.1,0-0.2,0-0.4,0c-0.2,0-0.3,0-0.4,0c0,0,0,0-0.1,0
		c0,0,0,0,0,0.1c0,0,0,0,0,0c0,0,0-0.1,0-0.1c0,0.1-0.1,0.1-0.1,0.1c-0.1,0-0.1-0.1-0.2-0.1c0,0-0.1,0-0.1,0c0,0-0.1-0.1-0.1-0.1
		c0,0-0.1-0.1-0.1-0.1c-0.2,0.1-0.4,0-0.6-0.2c-0.1,0-0.1-0.1-0.2-0.2c-0.1-0.1-0.2-0.2-0.2-0.2c-0.1,0-0.2,0-0.2-0.1
		c-0.1-0.1-0.1-0.1-0.1-0.3c-0.2-0.2-0.3-0.3-0.4-0.4c0-0.1,0-0.2-0.1-0.3c0,0,0-0.1,0.1-0.2c0-0.2,0.2-0.4,0.4-0.8
		c0.1,0,0.2-0.1,0.3-0.2c0,0,0.1,0,0.1,0s0.1,0,0.1,0c0,0,0.1,0,0.1-0.1c0,0,0.1-0.1,0.1-0.1c0,0,0.1,0,0.3,0c0.1,0,0.2,0,0.3,0
		c0,0,0.1-0.1,0.1-0.1c0,0,0.1-0.1,0.1-0.1c0.1,0,0.1,0,0.2,0.1c0.1,0.1,0.2,0.1,0.2,0.1c0,0,0.1,0,0.1,0c0.1,0,0.1,0,0.1,0
		c0.1,0,0.3,0,0.5,0c0.2,0,0.4,0,0.5,0c0.1,0,0.2,0,0.3-0.1c0.2,0.1,0.3,0.1,0.4,0c0,0,0.1,0,0.1,0c0,0,0.1,0,0.1,0s0.1,0,0.1,0
		c0,0,0,0,0-0.1c0.1,0,0.2,0,0.4,0c0.2,0,0.3,0,0.3-0.1c0.2,0.1,0.4,0.1,0.6,0c0,0,0-0.1,0-0.1s0.1,0,0.1,0c0.1,0,0.3,0,0.5,0
		c0.2,0,0.4,0,0.5,0c0.1,0,0.2-0.1,0.2-0.2c0.1,0,0.1,0,0.3,0.1c0,0,0.1,0,0.1,0c0.7,0,1.1,0,1.3-0.1c0.1,0,0.1,0,0.3,0
		c0,0,0,0,0.1,0c0,0,0,0,0.1,0c0.1-0.1,0.2-0.1,0.4-0.1c0.2,0,0.3,0,0.4,0c0.1-0.1,0.1-0.1,0.1-0.1h0.3c0,0,0.1,0,0.1,0
		c0.1,0,0.1,0,0.1,0c0.1,0,0.1,0,0.2,0c0.3,0,0.5,0,0.6-0.1l0.2,0.1c0.2-0.2,0.4-0.2,0.6,0c0,0,0.1,0,0.3,0c0.2,0,0.3,0,0.3,0
		c0.1,0,0.1-0.1,0.1-0.1c0,0,0.1,0,0.2,0c0.1,0,0.1,0,0.2,0c0.1,0,0.2,0,0.3,0C44.1,39.4,44.2,39.4,44.3,39.4z"/>
	<path fill="#D93427" d="M60.3,39.4c0.6,0.1,0.9,0,0.9-0.2c0,0,0.2,0,0.4,0c0,0,0,0,0,0.1c0,0,0,0,0,0.1c0,0,0.1,0,0.2,0
		c0.1,0,0.2,0,0.2,0.1c0.1,0,0.3,0,0.4,0.1c0.5,0,0.8,0.1,0.9,0.3h0.1c0.1,0.1,0.2,0.1,0.3,0.2c0.2,0.1,0.3,0.2,0.3,0.2v0.1
		c0.2,0.1,0.3,0.4,0.4,0.8c0,0,0.1,0.1,0.1,0.1c0.1,0.2,0,0.3,0,0.4c0,0.1,0,0.2,0,0.3c-0.1,0.1-0.1,0.2-0.1,0.2
		c-0.1,0.1-0.1,0.1-0.1,0.1c0,0.1,0,0.2-0.1,0.3c0,0.1,0,0.1,0,0.2c0,0-0.1,0.1-0.1,0.1c0,0-0.1,0-0.1,0c0,0,0,0-0.1,0
		c0,0,0,0.1-0.1,0.1c-0.1,0-0.1,0.1-0.2,0c0,0,0,0.1-0.1,0.1c0,0-0.1,0.1-0.1,0.1c-0.1,0-0.2,0-0.3,0c0,0.1,0,0.1,0,0.1
		s-0.1,0-0.2,0c-0.1,0-0.1,0-0.2,0c0,0-0.1,0-0.1,0c0,0-0.1,0-0.1,0c0,0,0-0.1,0.1-0.1c0,0-0.1-0.1-0.1-0.2c0-0.1-0.1-0.1-0.1-0.2
		c0,0-0.1,0.1-0.1,0.1c0,0-0.1,0-0.1,0c0-0.1,0-0.1-0.1-0.2c-0.1-0.1-0.1-0.1-0.2-0.1c0,0,0,0.1,0,0.1c0,0,0,0.1,0,0.1
		c0,0-0.1-0.1-0.1-0.1c0,0-0.1-0.1-0.1-0.1c0,0,0,0-0.1-0.1c0-0.2-0.2-0.3-0.6-0.3c-0.1,0-0.1,0-0.2,0.1c-0.1,0-0.1,0-0.2,0
		s-0.1,0-0.2,0c0,0-0.1,0.1-0.1,0.1c-0.1,0-0.2,0-0.4,0c-0.3,0.1-0.5,0.1-0.5,0.2c-0.2-0.1-0.3-0.1-0.3,0c-0.1,0-0.2,0-0.3,0
		c-0.1,0-0.2,0-0.2,0c0,0,0,0.1,0,0.1c-0.1,0-0.2,0-0.3,0c-0.1-0.1-0.2-0.1-0.3,0c0,0-0.1,0-0.1,0.1c0,0-0.1,0.1-0.1,0.1
		c-0.1,0-0.1,0-0.2,0s-0.1,0-0.2,0c0,0-0.1,0.1-0.1,0.1c0,0-0.1,0-0.1,0c-0.1,0-0.1,0-0.1,0l0,0.1c-0.3,0-0.5,0-0.6,0
		c0,0,0,0.1,0,0.1c0,0,0,0,0,0.1c-0.3-0.1-0.5-0.1-0.7,0.2c0,0-0.1,0-0.1-0.1c-0.1,0-0.1,0.1,0,0.2c0,0.1,0,0.1,0.1,0.1
		c0,0,0,0.1,0,0.2c0,0,0,0.1,0,0.1s0,0.1,0,0.1c0,0.1,0,0.2,0.1,0.2c0,0.1,0,0.2,0.1,0.4c0.1,0.2,0.1,0.3,0,0.3c0,0.1,0,0.2,0.1,0.3
		c0,0,0,0,0,0.1c0,0,0,0,0,0.1c0,0.1,0,0.1,0,0.2s0.1,0.1,0.1,0.1c0,0.7,0,1,0,1c-0.1,0.1-0.1,0.3,0,0.6c0,0,0,0.1,0,0.3
		c0,0,0,0.1-0.1,0.1c0,0.1,0,0.1,0,0.2c0.1,0.1,0.1,0.1,0.1,0.1c0,0,0,0.1,0,0.1c0,0,0,0.1,0,0.1c0,0.1,0,0.3,0,0.5
		c0,0.3,0,0.4,0,0.5c0,0,0,0.1,0,0.2c0,0.1,0.1,0.2,0.2,0.1c0.1,0,0.2-0.1,0.2-0.1c0.3,0,0.5,0,0.6-0.1c0.3,0,0.5,0,0.6,0
		c0.2,0,0.3,0,0.4,0c0,0,0.1,0,0.2-0.1c0.1,0,0.1-0.1,0.2-0.1s0.1,0,0.2,0c0.2,0,0.3,0,0.3-0.1c0.2,0.1,0.4,0,0.5,0c0,0,0.1,0,0.1,0
		c0,0,0.1,0,0.1,0c0,0,0.1,0,0.2,0c0.1,0,0.1,0,0.2,0c0.1,0,0.3,0,0.5,0c0,0,0-0.1,0-0.1c0.1,0.1,0.3,0.1,0.4,0
		c0.2,0,0.3-0.1,0.3-0.1c0.1,0,0.1,0,0.2,0c0.1,0,0.1-0.1,0.1-0.1s0.1,0,0.1,0c0,0,0,0,0.1,0.1c0,0,0.1,0,0.2-0.1
		c0.1-0.1,0.2-0.1,0.3-0.1c0.1-0.1,0.1-0.1,0.1-0.1s0.1,0,0.1,0.1c0.3,0,0.4,0,0.4-0.1c0.1,0,0.1,0,0.2,0c0.1,0,0.1,0,0.2,0
		s0.1,0,0.2,0.1c0.1,0,0.2,0.1,0.2,0.1c0.1,0,0.2,0.1,0.3,0.2c0.1,0,0.1,0,0.2,0c0,0,0,0,0.1,0c0,0,0,0.1,0.1,0.1c0.2,0,0.4,0,0.4,0
		c0,0,0,0.1,0.1,0.2c0,0,0,0.1,0,0.1c0,0.1,0.1,0.2,0.2,0.3c0,0.2,0.1,0.3,0.2,0.4c0,0,0,0.1-0.1,0.1c0,0.1,0,0.2-0.1,0.3
		c-0.1,0.1-0.1,0.2-0.1,0.3h-0.1c0,0,0,0.1,0,0.1c0,0,0,0,0,0.1c0,0-0.1,0-0.1,0h0l-0.1,0c0,0-0.1,0-0.1-0.1c0,0-0.1,0-0.1,0
		c0,0-0.1,0-0.1,0.1c0,0-0.1,0-0.1,0c0,0.1-0.1,0.1-0.3,0.2c-0.2,0.1-0.3,0.1-0.3,0.3c-0.2,0-0.4,0-0.6,0.2c0,0-0.1,0-0.1,0
		c0,0-0.1,0-0.1,0.1c0,0,0,0,0,0.1c-0.1,0-0.2,0-0.2-0.1c0,0-0.1,0-0.1,0c0,0,0,0.1,0,0.1c-0.1,0-0.2,0-0.3,0c-0.1,0-0.2,0-0.3,0
		c0,0-0.1,0-0.1,0.1c0,0-0.1,0.1-0.1,0.1c-0.1,0-0.2,0-0.2,0c-0.1,0-0.1,0.1-0.1,0.2c-0.1-0.1-0.1-0.1-0.3-0.1c-0.1,0-0.2,0-0.3,0.1
		V52c-0.1,0-0.1,0-0.2,0c-0.1-0.1-0.1,0-0.2,0c0,0-0.1,0-0.2,0l0,0.2c-0.1,0-0.2,0-0.3,0c-0.1,0-0.1,0-0.2,0c-0.1,0-0.1,0.1,0,0.2
		l-0.2-0.1c0,0-0.2,0-0.4,0c0,0-0.1,0.1-0.1,0.1c0,0-0.1,0.1-0.1,0.1c-0.2,0-0.4,0-0.4,0l-0.1,0.2c-0.3,0-0.5,0-0.5,0
		c-0.1,0-0.1,0.1-0.3,0.1c0,0,0,0,0,0.1c-0.2,0.1-0.4,0.1-0.5,0c0,0-0.1,0-0.1,0.1c0,0-0.1,0.1-0.1,0.1s-0.1,0-0.1-0.1
		c0,0-0.1-0.1-0.1-0.1c-0.1,0-0.1,0-0.2,0.1c-0.1,0-0.1,0-0.2,0c-0.1,0-0.1,0.2,0,0.5c0,0,0,0.1,0,0.1c0,0,0,0.1,0,0.1
		c0,0.1,0.1,0.1,0.2,0.1c0.1,0.1,0,0.2-0.1,0.3c0,0,0,0.1,0,0.2c0,0.1,0,0.2,0.1,0.2c0,0,0,0.1,0,0.1c0,0,0,0,0,0.1
		c0,0,0,0.1-0.1,0.3c0.1,0.1,0.1,0.3,0.1,0.5c0,0.3,0,0.5,0.1,0.6c-0.1,0.2-0.1,0.4,0,0.5c0,0.1,0,0.2,0,0.3c0,0,0,0.1,0,0.1
		c0,0,0,0.1,0,0.1c0.1,0.2,0.1,0.3,0.1,0.4c0.1,0.1,0.1,0.2,0.2,0.3s0.1,0.2,0.1,0.3c0.1,0,0.2,0,0.3,0.1c0.2,0,0.3,0,0.3,0
		c0,0,0.1,0,0.1-0.1c0.1,0,0.1,0,0.1,0.1c0.4,0,0.7-0.1,0.7-0.1c0.1,0,0.2,0,0.3,0c0.2,0,0.3,0,0.4,0c0.1-0.1,0.3-0.1,0.6-0.2
		c0,0,0,0,0-0.1c0,0,0-0.1,0-0.1c0.1,0,0.1,0,0.2,0c0.1,0,0.2,0,0.2,0c0,0,0.1-0.1,0.2-0.1c0.1,0,0.2-0.1,0.2-0.1
		c0.2,0,0.4,0,0.5-0.2c0.2-0.1,0.4-0.2,0.5-0.2c0-0.1,0.1-0.1,0.1-0.1c0.2,0.1,0.3,0,0.3,0c0.2,0,0.4-0.1,0.6-0.3c0.1,0,0.2,0,0.3,0
		c0.1-0.1,0.2-0.1,0.3-0.1c0.5,0,0.8,0,0.8,0.1c0,0,0.1,0,0.1,0c0,0.1,0.1,0.3,0.3,0.4c0,0,0.1,0,0.1,0c0.1,0,0.1,0.1,0.2,0.2
		c0,0.1,0.1,0.3,0.2,0.3c0,0.1,0,0.1,0.1,0.2c0.1,0.1,0.1,0.2,0.1,0.2c0,0,0,0,0,0.1c0,0.1,0,0.1,0,0.2c-0.1,0.2-0.2,0.3-0.2,0.4
		c-0.1,0-0.2,0.1-0.3,0.2c-0.2,0-0.3,0.1-0.3,0.4c0,0-0.1,0-0.1,0c0,0-0.1,0-0.1,0c0,0-0.1,0.1-0.1,0.2c0,0-0.1,0-0.1,0
		s-0.1,0-0.1,0s-0.1,0-0.1,0.1c-0.2,0-0.3,0.1-0.3,0.2h-0.2c-0.1,0.2-0.3,0.2-0.5,0.1c0,0-0.1,0.1-0.1,0.2c0,0-0.1,0-0.1,0
		c-0.1-0.1-0.2-0.1-0.3,0c-0.1,0-0.1,0.1-0.1,0.2l-0.2,0c0,0,0,0,0,0.1c0,0,0,0.1,0,0.2c0,0-0.1-0.1-0.2-0.1c-0.1,0-0.2,0-0.3,0
		c0,0-0.1,0.1-0.1,0.1s0,0.1-0.1,0.1c0,0-0.1,0-0.1,0c0,0-0.1,0-0.1,0c0,0-0.1,0.1-0.1,0.2c-0.1-0.1-0.3,0-0.4,0c0,0,0,0,0,0.1
		c-0.1,0-0.2,0-0.3,0c-0.2,0-0.3,0.1-0.3,0.1c0,0-0.1,0-0.1,0c0,0,0,0-0.1,0c0,0-0.1,0-0.2,0c-0.1,0-0.2,0-0.2,0.1
		c0,0.1,0,0.1,0,0.1c0,0-0.1,0-0.3,0c-0.1,0-0.1,0-0.1,0c0,0,0-0.1-0.1-0.1c-0.3,0.1-0.4,0.1-0.5,0.1c0,0,0,0.1,0,0.1
		c-0.1,0-0.1,0-0.2,0c0,0-0.1-0.1-0.1-0.1c0,0-0.1,0.1-0.1,0.1c0,0-0.1,0-0.1,0s-0.1,0-0.2,0c-0.1,0-0.2,0-0.2,0c0-0.1,0-0.1,0-0.1
		l-0.1,0c-0.1,0-0.1,0.1-0.1,0.2c-0.2,0-0.4,0-0.6,0c0-0.1,0-0.1-0.1-0.2c-0.1,0-0.1,0-0.2,0c0,0,0,0.1,0,0.1c0,0.1,0,0.1,0,0.1
		s0,0,0-0.1c0,0,0-0.1,0-0.1h-0.2v-0.1c-0.1-0.1-0.2-0.1-0.3-0.1c-0.1-0.1-0.2-0.1-0.2-0.1c0,0-0.1,0-0.1-0.1
		c-0.1-0.1-0.1-0.1-0.1-0.2c0,0-0.1,0-0.1,0c0,0-0.1,0-0.1,0c0,0,0-0.1,0-0.1c0,0,0-0.1-0.1-0.1c0,0-0.1,0-0.1,0c0,0-0.1,0-0.1,0
		c0-0.1,0-0.2-0.2-0.3v-0.1c-0.1-0.1-0.2-0.2-0.3-0.3h-0.1c-0.1-0.1-0.2-0.1-0.2-0.2C54,59.3,54,59.2,53.9,59
		c-0.1-0.1-0.1-0.2-0.2-0.3c-0.1-0.4-0.2-0.6-0.2-0.6c0-0.1,0-0.2-0.1-0.3c0-0.1,0-0.1,0-0.3c0-0.1,0-0.2,0-0.2c0-0.1,0-0.1-0.1-0.2
		c0,0,0-0.1,0-0.1c0,0,0-0.1,0-0.1c0,0,0-0.1,0-0.3c0-0.2,0-0.3-0.1-0.3c0-0.1,0-0.2,0-0.4c0-0.2,0-0.3,0-0.3c0-0.4,0-1,0-1.8
		c0-0.8,0-1.4,0-1.8c0.1,0,0.2-0.1,0.2-0.2c0-0.1-0.1-0.2-0.2-0.2c0-0.1,0-0.2,0.1-0.3c0-0.1,0.1-0.2,0.1-0.2C53.1,51.1,53,51,53,51
		c0-0.1,0-0.1,0.1-0.1c0-0.1,0-0.7,0-1.6c0.1,0,0.1-0.1,0.1-0.1c0-0.1,0-0.1-0.1-0.2c0.1,0,0.1-0.1,0-0.3c0-0.1,0-0.3,0-0.3
		c0,0,0-0.1,0-0.1c0.1-0.1,0-0.2,0-0.3c0-0.1,0-0.2,0-0.6s0-0.5-0.1-0.5c0.1,0,0.1-0.2,0.1-0.4c0-0.2,0-0.4,0-0.4L53,46
		c0-0.2,0-0.3,0.1-0.3c0,0-0.1-0.1-0.1-0.1c0,0,0-0.1,0-0.1c0-0.3,0-0.5,0-0.5c0,0-0.1,0-0.1,0c0,0,0,0-0.1,0c0-0.3,0-0.6,0-0.7
		c-0.1,0-0.1,0-0.1,0c0,0,0-0.1,0-0.2c0,0,0-0.1,0-0.1c0,0,0-0.1,0-0.1c0,0,0-0.1,0-0.1c0,0,0-0.1,0-0.1c0,0-0.1-0.1-0.1-0.1
		c-0.1-0.1-0.1-0.2,0-0.3c0,0-0.1-0.1-0.1-0.1c0-0.1,0-0.1,0-0.2c-0.1,0-0.1-0.1-0.3-0.3c0-0.1,0-0.2,0-0.3c0-0.1,0-0.1,0-0.2
		c-0.1-0.1,0-0.2,0-0.3c0.1-0.1,0.1-0.2,0.1-0.3c0,0,0.1-0.1,0.2-0.2s0.2-0.2,0.2-0.2c0,0,0,0,0,0c0,0,0-0.1,0-0.1l0.1,0.1
		c0,0,0.1,0,0.2,0c0.1,0,0.2,0,0.2,0c0.1,0,0.1,0,0.2-0.1c0.1-0.1,0.1-0.1,0.2-0.2c0.1,0,0.1,0,0.3,0c0.1,0,0.2,0,0.3,0
		c0,0,0.1,0,0.1,0c0,0,0.1,0,0.1,0c0.2,0,0.3,0,0.4-0.1c0.4-0.1,0.7-0.1,0.7-0.2h0.2c0,0,0,0,0.1,0c0,0,0,0,0.1,0c0,0,0.1,0,0.2,0
		c0.1,0,0.1,0,0.2-0.1c0.1-0.1,0.2-0.1,0.2-0.1c0,0,0-0.1,0-0.2c0.1,0,0.1,0,0.1,0c0,0,0,0,0,0.1c0,0,0,0.1,0,0.1
		c0.2-0.1,0.4-0.1,0.5-0.2c0.1,0,0.1,0,0.2,0.1l0.3-0.1c0,0,0.1-0.1,0.3-0.2c0,0.1,0.1,0.1,0.1,0.2c0,0,0.1-0.1,0.2-0.1
		c0.1,0,0.1,0,0.2,0s0.1,0,0.1,0c0,0,0.1,0,0.1-0.1c0,0,0.1,0,0.2,0c0.1,0,0.2,0,0.2,0c0.2,0,0.3-0.1,0.4-0.1c0,0,0.1,0,0.1,0
		c0.1,0,0.1,0,0.1-0.1c0.1,0,0.1,0,0.2,0c0,0,0.1,0,0.2-0.1c0.1,0,0.1,0,0.2,0C60.2,39.5,60.2,39.5,60.3,39.4
		C60.3,39.5,60.3,39.5,60.3,39.4C60.3,39.4,60.3,39.4,60.3,39.4z M61.2,39.2c0,0,0.1,0,0.2,0c0.1,0,0.2,0,0.2,0c0,0,0,0,0,0
		c0,0,0,0,0,0.1c0,0,0.1,0,0.2,0c0.1,0,0.2,0,0.2,0.1c0.1,0,0.3,0,0.4,0.1c0.5,0,0.8,0.1,0.9,0.3h0.1c0.1,0.1,0.2,0.1,0.3,0.2
		c0.2,0.1,0.3,0.2,0.3,0.2v0.1c0.2,0.1,0.3,0.4,0.4,0.8c0,0,0.1,0,0.1,0c0,0,0,0,0,0c0.1,0.2,0,0.3,0,0.4c0,0.1,0,0.2,0,0.3
		c-0.1,0.1-0.1,0.2-0.1,0.2c-0.1,0.1-0.1,0.1-0.1,0.1c0,0.1,0,0.2-0.1,0.3c0,0.1,0,0.1,0,0.2c0,0-0.1,0.1-0.1,0.1c0,0-0.1,0-0.1,0
		c0,0,0,0-0.1,0c0,0,0,0.1-0.1,0.1c-0.1,0-0.1,0.1-0.2,0c0,0,0,0.1-0.1,0.1c0,0-0.1,0.1-0.1,0.1c-0.1,0-0.2,0-0.3,0
		c0,0.1,0,0.1,0,0.1s-0.1,0-0.2,0c-0.1,0-0.1,0-0.2,0c0,0-0.1,0-0.1,0c0,0-0.1,0-0.1,0c0,0,0-0.1,0.1-0.1c0,0-0.1-0.1-0.1-0.2
		c0-0.1-0.1-0.1-0.1-0.2c0,0-0.1,0.1-0.1,0.1c0,0-0.1,0-0.1,0c0-0.1,0-0.1-0.1-0.2c-0.1-0.1-0.1-0.1-0.2-0.1c0,0,0,0.1,0,0.1
		c0,0,0,0.1,0,0.1c0,0-0.1-0.1-0.1-0.1c0,0-0.1-0.1-0.1-0.1c0,0,0,0-0.1-0.1c0-0.2-0.2-0.3-0.6-0.3c-0.1,0-0.1,0-0.2,0.1
		c-0.1,0-0.1,0-0.2,0s-0.1,0-0.2,0c0,0-0.1,0.1-0.1,0.1c-0.1,0-0.2,0-0.4,0c-0.3,0.1-0.5,0.1-0.5,0.2c-0.2-0.1-0.3-0.1-0.3,0
		c-0.1,0-0.2,0-0.3,0c-0.1,0-0.2,0-0.2,0c0,0,0,0.1,0,0.1c-0.1,0-0.2,0-0.3,0c-0.1-0.1-0.2-0.1-0.3,0c0,0-0.1,0-0.1,0.1
		c0,0-0.1,0.1-0.1,0.1c-0.1,0-0.1,0-0.2,0s-0.1,0-0.2,0c0,0-0.1,0.1-0.1,0.1c0,0-0.1,0-0.1,0c-0.1,0-0.1,0-0.1,0l0,0.1
		c-0.3,0-0.5,0-0.6,0c0,0,0,0.1,0,0.1c0,0,0,0,0,0.1c-0.3-0.1-0.5-0.1-0.7,0.2c0,0-0.1,0-0.1-0.1c-0.1,0-0.1,0.1,0,0.2
		c0,0.1,0,0.1,0.1,0.1c0,0,0,0.1,0,0.2c0,0,0,0.1,0,0.1s0,0.1,0,0.1c0,0.1,0,0.2,0.1,0.2c0,0.1,0,0.2,0.1,0.4c0.1,0.2,0.1,0.3,0,0.3
		c0,0.1,0,0.2,0.1,0.3c0,0,0,0,0,0.1c0,0,0,0,0,0.1c0,0.1,0,0.1,0,0.2s0.1,0.1,0.1,0.1c0,0.7,0,1,0,1c-0.1,0.1-0.1,0.3,0,0.6
		c0,0,0,0.1,0,0.3c0,0,0,0.1-0.1,0.1c0,0.1,0,0.1,0,0.2c0.1,0.1,0.1,0.1,0.1,0.1c0,0,0,0.1,0,0.1c0,0,0,0.1,0,0.1c0,0.1,0,0.3,0,0.5
		c0,0.3,0,0.4,0,0.5c0,0,0,0.1,0,0.2c0,0.1,0.1,0.2,0.2,0.1c0.1,0,0.2-0.1,0.2-0.1c0.3,0,0.5,0,0.6-0.1c0.3,0,0.5,0,0.6,0
		c0.2,0,0.3,0,0.4,0c0,0,0.1,0,0.2-0.1c0.1,0,0.1-0.1,0.2-0.1s0.1,0,0.2,0c0.2,0,0.3,0,0.3-0.1c0.2,0.1,0.4,0,0.5,0c0,0,0.1,0,0.1,0
		c0,0,0.1,0,0.1,0c0,0,0.1,0,0.2,0c0.1,0,0.1,0,0.2,0c0.1,0,0.3,0,0.5,0c0,0,0-0.1,0-0.1c0.1,0.1,0.3,0.1,0.4,0
		c0.2,0,0.3-0.1,0.3-0.1c0.1,0,0.1,0,0.2,0c0.1,0,0.1-0.1,0.1-0.1s0.1,0,0.1,0c0,0,0,0,0.1,0.1c0,0,0.1,0,0.2-0.1
		c0.1-0.1,0.2-0.1,0.3-0.1c0.1-0.1,0.1-0.1,0.1-0.1s0.1,0,0.1,0.1c0.3,0,0.4,0,0.4-0.1c0.1,0,0.1,0,0.2,0c0.1,0,0.1,0,0.2,0
		s0.1,0,0.2,0.1c0.1,0,0.2,0.1,0.2,0.1c0.1,0,0.2,0.1,0.3,0.2c0.1,0,0.1,0,0.2,0c0,0,0,0,0.1,0c0,0,0,0.1,0.1,0.1c0.2,0,0.4,0,0.4,0
		c0,0,0,0.1,0.1,0.2c0,0,0,0.1,0,0.1c0,0.1,0.1,0.2,0.2,0.3c0,0.2,0.1,0.3,0.2,0.4c0,0,0,0.1-0.1,0.1c0,0.1,0,0.2-0.1,0.3
		c-0.1,0.1-0.1,0.2-0.1,0.3h-0.1c0,0,0,0.1,0,0.1c0,0,0,0,0,0.1c0,0-0.1,0-0.1,0h0l-0.1,0c0,0-0.1,0-0.1-0.1c0,0-0.1,0-0.1,0
		c0,0-0.1,0-0.1,0.1c0,0-0.1,0-0.1,0c0,0.1-0.1,0.1-0.3,0.2c-0.2,0.1-0.3,0.1-0.3,0.3c-0.2,0-0.4,0-0.6,0.2c0,0-0.1,0-0.1,0
		c0,0-0.1,0-0.1,0.1c0,0,0,0,0,0.1c-0.1,0-0.2,0-0.2-0.1c0,0-0.1,0-0.1,0c0,0,0,0.1,0,0.1c-0.1,0-0.2,0-0.3,0c-0.1,0-0.2,0-0.3,0
		c0,0-0.1,0-0.1,0.1c0,0-0.1,0.1-0.1,0.1c-0.1,0-0.2,0-0.2,0c-0.1,0-0.1,0.1-0.1,0.2c-0.1-0.1-0.1-0.1-0.3-0.1c-0.1,0-0.2,0-0.3,0.1
		V52c-0.1,0-0.1,0-0.2,0c-0.1-0.1-0.1,0-0.2,0c0,0-0.1,0-0.2,0l0,0.2c-0.1,0-0.2,0-0.3,0c-0.1,0-0.1,0-0.2,0c-0.1,0-0.1,0.1,0,0.2
		l-0.2-0.1c0,0-0.2,0-0.4,0c0,0-0.1,0.1-0.1,0.1c0,0-0.1,0.1-0.1,0.1c-0.2,0-0.4,0-0.4,0l-0.1,0.2c-0.3,0-0.5,0-0.5,0
		c-0.1,0-0.1,0.1-0.3,0.1c0,0,0,0,0,0.1c-0.2,0.1-0.4,0.1-0.5,0c0,0-0.1,0-0.1,0.1c0,0-0.1,0.1-0.1,0.1s-0.1,0-0.1-0.1
		c0,0-0.1-0.1-0.1-0.1c-0.1,0-0.1,0-0.2,0.1c-0.1,0-0.1,0-0.2,0c-0.1,0-0.1,0.2,0,0.5c0,0,0,0.1,0,0.1c0,0,0,0.1,0,0.1
		c0,0.1,0.1,0.1,0.2,0.1c0.1,0.1,0,0.2-0.1,0.3c0,0,0,0.1,0,0.2c0,0.1,0,0.2,0.1,0.2c0,0,0,0.1,0,0.1c0,0,0,0,0,0.1
		c0,0,0,0.1-0.1,0.3c0.1,0.1,0.1,0.2,0.1,0.5c0,0.3,0,0.5,0.1,0.6c-0.1,0.2-0.1,0.4,0,0.5c0,0.1,0,0.2,0,0.3c0,0,0,0.1,0,0.1
		c0,0,0,0.1,0,0.1c0.1,0.2,0.1,0.3,0.1,0.4c0.1,0.1,0.1,0.2,0.2,0.3s0.1,0.2,0.1,0.3c0.1,0,0.2,0,0.3,0.1c0.2,0,0.3,0,0.3,0
		c0,0,0.1,0,0.1-0.1c0.1,0,0.1,0,0.1,0.1c0.4,0,0.7-0.1,0.7-0.1c0.1,0,0.2,0,0.3,0c0.2,0,0.3,0,0.4,0c0.1-0.1,0.3-0.1,0.6-0.2
		c0,0,0,0,0-0.1c0,0,0-0.1,0-0.1c0.1,0,0.1,0,0.2,0c0.1,0,0.2,0,0.2,0c0,0,0.1-0.1,0.2-0.1c0.1,0,0.2-0.1,0.2-0.1
		c0.2,0,0.4,0,0.5-0.2c0.2-0.1,0.4-0.2,0.5-0.2c0-0.1,0.1-0.1,0.1-0.1c0.2,0.1,0.3,0,0.3,0c0.2,0,0.4-0.1,0.6-0.3c0.1,0,0.2,0,0.3,0
		c0.1-0.1,0.2-0.1,0.3-0.1c0.5,0,0.8,0,0.8,0.1c0,0,0.1,0,0.1,0c0,0.1,0.1,0.3,0.3,0.4c0,0,0.1,0,0.1,0c0.1,0,0.1,0.1,0.2,0.2
		c0,0.1,0.1,0.3,0.2,0.3c0,0.1,0,0.1,0.1,0.2c0.1,0.1,0.1,0.2,0.1,0.2c0,0,0,0,0,0.1c0,0.1,0,0.1,0,0.2c-0.1,0.2-0.2,0.3-0.2,0.4
		c-0.1,0-0.2,0.1-0.3,0.2c-0.2,0-0.3,0.1-0.3,0.4c0,0-0.1,0-0.1,0c0,0-0.1,0-0.1,0c0,0-0.1,0.1-0.1,0.2c0,0-0.1,0-0.1,0
		s-0.1,0-0.1,0s-0.1,0-0.1,0.1c-0.2,0-0.3,0.1-0.3,0.2h-0.2c-0.1,0.2-0.3,0.2-0.5,0.1c0,0-0.1,0.1-0.1,0.2c0,0-0.1,0-0.1,0
		c-0.1-0.1-0.2-0.1-0.3,0c-0.1,0-0.1,0.1-0.1,0.2l-0.2,0c0,0,0,0,0,0.1c0,0,0,0.1,0,0.2c0,0-0.1-0.1-0.2-0.1c-0.1,0-0.2,0-0.3,0
		c0,0-0.1,0.1-0.1,0.1s0,0.1-0.1,0.1c0,0-0.1,0-0.1,0c0,0-0.1,0-0.1,0c0,0-0.1,0.1-0.1,0.2c-0.1-0.1-0.3,0-0.4,0c0,0,0,0,0,0.1
		c-0.1,0-0.2,0-0.3,0c-0.2,0-0.3,0.1-0.3,0.1c0,0-0.1,0-0.1,0c0,0,0,0-0.1,0c0,0-0.1,0-0.2,0c-0.1,0-0.2,0-0.2,0.1
		c0,0.1,0,0.1,0,0.1c0,0-0.1,0-0.3,0c-0.1,0-0.1,0-0.1,0c0,0,0-0.1-0.1-0.1c-0.3,0.1-0.4,0.1-0.5,0.1c0,0,0,0.1,0,0.1
		c-0.1,0-0.1,0-0.2,0c0,0-0.1-0.1-0.1-0.1c0,0-0.1,0.1-0.1,0.1c0,0-0.1,0-0.1,0s-0.1,0-0.2,0c-0.1,0-0.2,0-0.2,0c0-0.1,0-0.1,0-0.1
		l-0.1,0c-0.1,0-0.1,0.1-0.1,0.2c-0.2,0-0.4,0-0.6,0c0-0.1,0-0.1-0.1-0.2c-0.1,0-0.1,0-0.2,0c0,0,0,0.1,0,0.1c0,0.1,0,0.1,0,0.1
		s0,0,0-0.1c0,0,0-0.1,0-0.1h-0.2v-0.1c-0.1-0.1-0.2-0.1-0.3-0.1c-0.1-0.1-0.2-0.1-0.2-0.1c0,0-0.1,0-0.1-0.1
		c-0.1-0.1-0.1-0.1-0.1-0.2c0,0-0.1,0-0.1,0c0,0-0.1,0-0.1,0c0,0,0-0.1,0-0.1c0,0,0-0.1-0.1-0.1c0,0-0.1,0-0.1,0c0,0-0.1,0-0.1,0
		c0-0.1,0-0.2-0.2-0.3v-0.1c-0.1-0.1-0.2-0.2-0.3-0.3h-0.1c-0.1-0.1-0.2-0.1-0.2-0.2C54,59.3,54,59.2,53.9,59
		c-0.1-0.1-0.1-0.2-0.2-0.3c-0.1-0.4-0.2-0.6-0.2-0.6c0-0.1,0-0.2-0.1-0.3c0-0.1,0-0.1,0-0.3c0-0.1,0-0.2,0-0.3c0,0,0-0.1-0.1-0.1
		c0,0,0-0.1,0-0.1c0,0,0-0.1,0-0.1c0,0,0-0.1,0-0.3c0-0.2,0-0.3-0.1-0.3c0-0.1,0-0.2,0-0.4c0-0.2,0-0.3,0-0.3c0-0.4,0-1,0-1.8
		c0-0.8,0-1.4,0-1.8c0.1,0,0.2-0.1,0.2-0.2c0-0.1-0.1-0.2-0.2-0.2c0-0.1,0-0.2,0.1-0.3c0-0.1,0.1-0.2,0.1-0.2C53.1,51.1,53,51,53,51
		c0-0.1,0-0.1,0.1-0.1c0-0.1,0-0.7,0-1.6c0.1,0,0.1-0.1,0.1-0.1c0-0.1,0-0.1-0.1-0.2c0.1,0,0.1-0.1,0-0.3c0-0.1,0-0.3,0-0.3
		c0,0,0-0.1,0-0.1c0.1-0.1,0-0.2,0-0.2c0-0.1,0-0.2,0-0.6s0-0.5-0.1-0.5c0.1,0,0.1-0.2,0.1-0.4c0-0.2,0-0.4,0-0.4L53,46
		c0-0.2,0-0.3,0.1-0.3c0,0-0.1-0.1-0.1-0.1c0,0,0-0.1,0-0.1c0-0.3,0-0.5,0-0.5c0,0-0.1,0-0.1,0c0,0,0,0-0.1,0c0-0.3,0-0.6,0-0.7
		c-0.1,0-0.1,0-0.1,0c0,0,0-0.1,0-0.2c0,0,0-0.1,0-0.1c0,0,0-0.1,0-0.1c0,0,0-0.1,0-0.1c0,0,0-0.1,0-0.1c0,0-0.1-0.1-0.1-0.1
		c-0.1-0.1-0.1-0.2,0-0.3c0,0-0.1-0.1-0.1-0.1c0-0.1,0-0.1,0-0.2c-0.1,0-0.1-0.1-0.3-0.3c0-0.1,0-0.2,0-0.3c0-0.1,0-0.1,0-0.2
		c-0.1-0.1,0-0.2,0-0.3c0.1-0.1,0.1-0.2,0.1-0.3c0,0,0.1-0.1,0.2-0.2s0.2-0.2,0.2-0.2c0,0,0,0,0,0c0,0,0-0.1,0-0.1l0.1,0.1
		c0,0,0.1,0,0.2,0c0.1,0,0.2,0,0.2,0c0.1,0,0.1,0,0.2-0.1c0.1-0.1,0.1-0.1,0.2-0.2c0.1,0,0.1,0,0.3,0c0.1,0,0.2,0,0.3,0
		c0,0,0.1,0,0.1,0c0,0,0.1,0,0.1,0c0.2,0,0.3,0,0.4-0.1c0.4-0.1,0.7-0.1,0.7-0.2h0.2c0,0,0,0,0.1,0c0,0,0,0,0.1,0c0,0,0.1,0,0.2,0
		c0.1,0,0.1,0,0.2-0.1c0.1-0.1,0.2-0.1,0.2-0.1c0,0,0-0.1,0-0.2c0.1,0,0.1,0,0.1,0c0,0,0,0,0,0.1c0,0,0,0.1,0,0.1
		c0.2-0.1,0.4-0.1,0.5-0.2c0.1,0,0.1,0,0.2,0.1l0.3-0.1c0,0,0.1-0.1,0.3-0.2c0,0.1,0.1,0.1,0.1,0.2c0,0,0.1-0.1,0.2-0.1
		c0.1,0,0.1,0,0.2,0s0.1,0,0.1,0c0,0,0.1,0,0.1-0.1c0,0,0.1,0,0.2,0c0.1,0,0.2,0,0.2,0c0.2,0,0.3-0.1,0.4-0.1c0,0,0.1,0,0.1,0
		c0.1,0,0.1,0,0.1-0.1c0.1,0,0.1,0,0.2,0c0,0,0.1,0,0.2-0.1c0.1,0,0.1,0,0.2,0c0.1,0,0.1,0,0.1,0c0,0,0,0,0,0c0,0,0,0,0,0
		C60.9,39.5,61.2,39.4,61.2,39.2z"/>
	<path fill="#D93427" d="M84.5,53.6c0.1-0.1,0.1-0.2,0.1-0.2c0.1,0,0.1,0,0.2-0.1c0,0,0,0,0-0.1c0,0,0,0,0-0.1c0-0.1,0-0.1,0-0.3
		c0-0.1,0-0.2,0-0.3c0,0,0.1,0,0.1-0.1c0,0,0-0.1-0.1-0.1c0,0-0.1-0.1-0.1-0.1c0,0,0,0,0.1,0c0,0,0.1,0,0.1,0c0-0.1,0.1-0.2,0.2-0.3
		c0.1-0.1,0.1-0.1,0.1-0.1c0-0.1,0-0.2,0-0.2c0-0.1,0-0.1,0-0.1h0.1c0-0.1,0-0.2,0.1-0.3s0-0.2,0.1-0.3c-0.1-0.2-0.1-0.4,0.2-0.5
		c0,0-0.1-0.1-0.1-0.1c0,0,0,0,0-0.1c0.1-0.1,0.1-0.2,0-0.4c0,0,0.1,0,0.1,0c0.1-0.4,0.1-0.6,0.3-0.7c0,0,0-0.1-0.1-0.2
		c0-0.1,0-0.2,0-0.3c0.1-0.1,0.1-0.1,0.2-0.1c0-0.2,0.1-0.3,0.1-0.3c0-0.1,0-0.3,0-0.4c0-0.1,0.1-0.2,0.2-0.3L86,47.4
		c0.1,0,0.2-0.1,0.2-0.1c0-0.1,0-0.1-0.1-0.1C86,47.1,86,47.1,86,47c0,0,0.1,0,0.1,0c0,0,0.1,0,0.1,0c0.1,0,0.1-0.1,0-0.2
		c0-0.1,0-0.2,0-0.3c0,0,0.1,0,0.2,0c0.1,0,0.1,0,0.2,0c0,0,0-0.1-0.1-0.1c0,0,0-0.1,0.1-0.1c0,0,0.1-0.1,0.1-0.1
		c0-0.1,0-0.2-0.1-0.3c-0.1-0.1-0.1-0.3-0.1-0.3c0.1-0.1,0.2-0.3,0.1-0.3c-0.1,0-0.1,0-0.1,0c0-0.1,0-0.1,0-0.2c0-0.1,0-0.1,0-0.1
		c0-0.1,0-0.2,0-0.5c0,0,0-0.1,0-0.2c0-0.1,0-0.1,0-0.2c-0.1-0.2-0.1-0.3,0-0.3c0,0,0.1-0.1,0.1-0.1c0-0.1,0-0.2,0-0.4
		c0-0.2,0-0.3,0.1-0.4c-0.1-0.1-0.1-0.1-0.1-0.1c0,0,0.1,0,0.2-0.1c0-0.1,0-0.2,0-0.2c0-0.1-0.1-0.1-0.1-0.2c0,0,0,0,0.1,0
		s0,0,0.1,0c0,0,0-0.1,0-0.2c0-0.1,0-0.1,0-0.2c0.1,0,0.1,0,0.2-0.1c0.1,0,0.2,0,0.2,0.1c0,0,0-0.1,0-0.2c0.1,0,0.2,0,0.3,0
		c0.1,0,0.2,0,0.3,0c0.1,0.1,0.2,0.2,0.3,0.1c0,0.1,0.1,0.1,0.1,0.1c0.1,0,0.2,0,0.3,0c0.1,0,0.2,0,0.3,0c0,0,0,0.1,0,0.2
		c0,0.1,0,0.2,0,0.2c0,0,0,0.1,0.1,0.2c0.1,0.1,0.2,0.1,0.2,0.2c0,0.1,0,0.1,0,0.2c0,0.1,0.1,0.2,0.1,0.2v0.1c0,0,0,0.1,0.1,0.2
		c0.1,0.1,0.1,0.2,0.1,0.3c0,0.1,0,0.2,0.1,0.3c0,0.2,0,0.3,0.1,0.3c0,0.1,0,0.1,0,0.2c-0.1,0.1-0.1,0.2-0.1,0.4c0,0.2,0,0.3,0,0.4
		c0.1,0,0.1,0.1,0,0.3c0.1,0.1,0.1,0.1,0,0.1c0,0,0,0.1-0.1,0.1c-0.1,0-0.1,0.1-0.1,0.1c0,0,0,0.1,0.1,0.2c0,0.1,0.1,0.1,0.1,0.2
		s0,0.1,0,0.2c0,0.1,0,0.2,0,0.2c0,0,0,0.1,0,0.1c0,0,0,0.1,0,0.1c0,0-0.1,0.1-0.2,0.1c0,0,0,0.1,0,0.2c0,0.1,0,0.1,0,0.2
		c0,0,0,0.1,0,0.1c0,0,0,0.1,0,0.1c-0.1,0-0.2,0-0.2,0c0,0.1,0,0.1,0,0.2c0,0,0,0.2,0,0.6c-0.2,0.1-0.2,0.2-0.1,0.5
		c-0.2,0.1-0.2,0.2,0,0.3c0,0.1,0,0.1,0,0.1c0,0,0,0-0.1,0c0,0.1,0,0.1,0,0.1c-0.1,0.1-0.2,0.1-0.2,0.1c0,0.1,0,0.1,0,0.2
		c-0.1,0-0.1,0.1-0.1,0.2c0,0.1,0,0.2,0.1,0.3c0,0.1,0,0.2,0,0.3c-0.2,0-0.3,0.1-0.3,0.3c0.1,0.1,0.1,0.2,0.1,0.3
		c-0.1,0-0.2,0.1-0.2,0.2c0,0.1,0,0.3,0,0.4c-0.1,0-0.2,0.1-0.2,0.3c0,0,0,0.1,0,0.1c0,0,0,0.1,0.1,0.1c0,0,0,0.1,0,0.2
		c0,0.1,0,0.1,0,0.2c-0.2,0.1-0.2,0.2-0.2,0.3c-0.1,0.1-0.1,0.2-0.1,0.4c0,0,0,0.1,0.1,0.1c0,0,0.1,0.1,0.1,0.1h-0.1
		c-0.1,0-0.1,0.1-0.1,0.2c0,0.1-0.1,0.2-0.1,0.2c0,0.1,0,0.1,0,0.2c0,0.1,0,0.2,0,0.2c0,0-0.1,0.1-0.2,0.2c-0.1,0.1-0.1,0.1-0.2,0.2
		c0,0.1,0,0.2-0.1,0.3c-0.1,0.1,0,0.2,0.1,0.2c0,0.1,0,0.2,0,0.2c-0.1,0-0.2,0-0.2,0c0,0.1,0,0.2-0.1,0.3c0,0,0,0.1,0,0.1
		c0,0,0,0.1,0,0.2c0,0.1,0,0.2,0,0.2s0,0.1-0.1,0.2c-0.1,0.1-0.1,0.2,0,0.2c0,0-0.1,0.1-0.1,0.1c0,0,0,0,0,0.1c0,0.2,0,0.3,0,0.3
		c0,0-0.1,0-0.1,0c0,0,0,0-0.1,0c0,0,0,0.1,0,0.2c0,0,0,0.1-0.1,0.2c0,0.1-0.1,0.2-0.1,0.2c0.1,0.1,0.1,0.2,0.1,0.3
		c-0.1,0-0.2,0-0.2,0.1c0,0-0.1,0.1-0.1,0.2c0.1,0.1,0.1,0.1,0.1,0.1c-0.2,0.1-0.2,0.1-0.2,0.3c0,0,0,0.1,0,0.1c0,0,0,0.1,0,0.1
		c-0.1,0-0.2,0.1-0.2,0.2c0,0.1-0.1,0.2-0.1,0.2c0,0,0,0.1,0,0.1c0,0.1,0,0.1,0,0.1c0,0-0.1,0-0.1,0c-0.1,0-0.1,0.1-0.1,0.1
		s0,0.1,0,0.1c-0.1,0-0.1,0-0.2,0c0,0-0.1,0-0.1,0c0,0-0.1,0.1-0.2,0.3h-0.3c-0.1,0.1-0.1,0.2,0,0.3c-0.1,0-0.1,0-0.1,0s0,0,0,0
		c0,0.1,0,0.1,0,0.1c-0.1-0.1-0.1-0.2-0.2-0.2c0,0-0.1,0-0.1,0c0,0-0.1,0-0.1,0c0,0-0.1,0-0.1-0.1c0,0-0.1,0-0.1,0
		c-0.1,0.1-0.2,0.1-0.3,0.1c0-0.1,0-0.1,0-0.2c0-0.1,0-0.1,0-0.2c0,0-0.1,0-0.3,0c-0.1,0-0.1-0.1-0.2-0.2c0-0.1,0-0.1,0-0.1
		c-0.1,0.1-0.2,0.1-0.2,0v-0.1c0,0,0-0.1,0-0.1c0,0-0.1,0-0.1,0c0,0,0-0.1-0.1-0.1c0,0-0.1-0.1-0.1-0.1l-0.1,0c0,0-0.1-0.1-0.1-0.1
		c-0.1-0.1-0.2-0.2-0.3-0.2c0,0,0-0.1,0-0.1c0,0,0,0,0-0.1c0,0,0,0-0.1,0c0,0,0,0,0,0c0,0,0-0.1,0-0.1l-0.1-0.1
		c0-0.1-0.2-0.4-0.4-0.6c-0.1,0-0.1,0-0.1,0c0,0-0.1-0.1-0.1-0.3c-0.1-0.1-0.2-0.1-0.3-0.1c0-0.1,0-0.2-0.1-0.2c0-0.1,0-0.2-0.1-0.3
		c-0.1,0-0.1-0.1-0.1-0.1c0-0.2-0.1-0.3-0.3-0.4c0,0,0-0.1,0-0.1c0-0.1,0-0.1,0-0.1s0,0-0.1-0.1c0,0-0.1,0-0.1-0.1
		c0,0-0.1-0.1-0.1-0.2c0-0.1-0.1-0.2-0.2-0.2c0-0.1,0-0.2-0.1-0.3v-0.1c0,0,0-0.1-0.1-0.1c-0.1,0-0.1-0.1-0.2-0.1
		c-0.1,0-0.1,0-0.1,0c0,0,0-0.1,0-0.1c0,0,0-0.1,0-0.1c-0.1,0-0.1,0-0.1,0c0-0.1,0-0.2,0-0.2c0,0,0.1,0,0.1,0c0,0,0,0,0,0
		c0-0.1-0.1-0.1-0.2,0h-0.1c0-0.1,0-0.1,0-0.2c0-0.1,0-0.1,0-0.2c0,0,0-0.1-0.1-0.1l0,0c0-0.1-0.1-0.1-0.1-0.2l0-0.1
		c0,0,0-0.1,0-0.2c0,0-0.1-0.1-0.1-0.1c0,0-0.1,0-0.1,0c0-0.1,0-0.2-0.1-0.3c0-0.1,0-0.2-0.1-0.2c0,0-0.1,0-0.1,0
		c0-0.1,0-0.1-0.1-0.2c0-0.1,0-0.2-0.1-0.2c-0.1-0.1-0.1-0.2-0.1-0.2c0-0.1-0.1-0.1-0.2-0.1c0,0,0-0.1,0-0.1c0-0.1,0-0.1,0-0.2
		c0,0-0.1,0-0.1-0.1c0,0-0.1,0-0.1-0.1c0-0.1,0-0.2,0-0.3c-0.1-0.1-0.1-0.2-0.1-0.2c0,0-0.1-0.1-0.1-0.2c0-0.1-0.1-0.1-0.1-0.2
		c-0.1,0-0.1,0.1-0.3,0.3c0,0,0,0.1,0,0.1c0,0.1-0.1,0.1-0.1,0.1c0,0,0,0-0.1,0.1c0,0,0,0.1,0,0.1c0,0,0,0,0,0.1c0,0,0,0.1,0,0.1
		c0,0,0,0-0.1,0.1c0,0-0.1,0.1-0.1,0.2c0,0.1-0.1,0.2-0.1,0.2c0,0.1-0.1,0.1-0.2,0.3c0,0.1,0,0.2-0.1,0.3V53l-0.1,0.1
		c0,0,0,0.1,0,0.1c0,0,0,0,0,0.1c0,0-0.1,0.1-0.1,0.1c-0.1,0.1-0.1,0.2,0,0.3c0,0,0,0.1-0.1,0.1c0,0,0,0.1,0,0.2c0,0.1,0,0.2,0,0.2
		c0,0,0,0,0,0c0,0,0,0,0,0c-0.1,0.2-0.1,0.3-0.2,0.3c0,0,0,0.2-0.1,0.4c-0.1,0.2-0.1,0.3,0,0.3c-0.1,0-0.2,0.1-0.2,0.2
		c0,0.1-0.1,0.2-0.1,0.2c0,0.1,0,0.1,0,0.2c0,0,0,0.1,0,0.1l-0.1,0.2c0,0,0,0.1,0.1,0.1c0.1,0,0.1,0.1,0.1,0.2h-0.1
		c-0.1,0-0.1,0-0.1,0.2c0,0.1,0,0.2,0,0.2c0,0-0.1,0-0.1,0c0,0,0,0.1,0,0.2v0.2c0,0-0.1,0-0.1,0c-0.1,0-0.1,0.1-0.1,0.2
		c0,0.1,0,0.2,0,0.2c-0.1,0-0.2,0-0.2,0.2c0,0.1,0,0.2,0.1,0.2c0,0.1,0,0.1,0,0.1c-0.1,0-0.2,0.1-0.2,0.2c0,0,0,0.1,0,0.2
		c0,0.1,0,0.2,0,0.3c0,0,0,0-0.1,0c-0.1,0-0.1,0.1,0,0.2c0,0.1,0,0.2,0,0.2c-0.1,0-0.1,0.1-0.1,0.2c0,0.1,0,0.1,0.1,0.1
		c0,0,0,0.1,0,0.2c-0.1,0.1-0.1,0.1-0.2,0.2c0,0,0,0.1,0,0.1c0,0.1,0,0.1,0,0.1c0,0,0,0.1-0.1,0.1c0,0-0.1,0.1-0.1,0.2
		c-0.1,0-0.2,0-0.3,0.1c-0.1,0.1-0.1,0.1-0.1,0.1c0,0,0,0.1,0,0.1c0,0,0,0.1,0,0.1c0,0-0.1,0-0.1,0h0c-0.1,0-0.1,0.1-0.1,0.2
		c0,0-0.1,0.1-0.1,0.2c-0.1,0-0.1,0-0.2,0C73.2,61,73,61,73,61.2c0,0-0.1,0-0.2,0c-0.1,0-0.2,0-0.2,0c0,0,0-0.1,0-0.1
		c0-0.1-0.1-0.2-0.2-0.2c0-0.1,0-0.1-0.1-0.3c0-0.1,0-0.2-0.1-0.3c0,0,0-0.1-0.1-0.2l-0.1,0c0,0-0.1-0.1-0.1-0.2
		c0-0.1-0.1-0.1-0.2-0.1c0,0-0.1-0.1-0.1-0.1c0-0.1,0-0.2,0-0.4s0-0.3,0-0.4c0,0,0-0.1-0.1-0.1s-0.1-0.1-0.1-0.1
		c-0.1-0.2-0.1-0.4-0.2-0.4c0,0,0-0.1,0-0.2c0-0.2,0-0.3-0.2-0.3c0-0.2,0-0.3,0.1-0.3c0-0.1,0-0.2-0.1-0.3c0,0,0,0-0.1,0
		c0,0,0,0-0.1,0c0,0,0-0.1,0-0.1s0-0.1,0-0.1c0,0,0-0.1,0-0.1c0,0,0,0-0.1,0c0,0-0.1,0-0.1,0l0-0.1c-0.1-0.1-0.1-0.2-0.1-0.4
		c0-0.2,0-0.4,0-0.5c-0.1,0-0.2-0.1-0.2-0.3s-0.1-0.3-0.2-0.3c0-0.1,0-0.2,0-0.3c0.1-0.1,0-0.2-0.2-0.2c-0.1-0.1-0.1-0.3,0-0.4
		c0-0.1,0-0.1,0-0.1c0,0,0,0,0-0.1c0,0,0,0-0.1-0.1c0,0,0-0.1,0-0.2s0-0.1,0-0.2c0,0,0,0-0.1-0.1c0,0-0.1-0.1-0.1-0.1
		c0-0.1,0-0.2-0.1-0.3c0-0.1,0-0.3-0.1-0.3c-0.1,0-0.1,0-0.1,0l0.1-0.1c0-0.1,0-0.2-0.1-0.3c0,0-0.1,0-0.1,0c-0.1,0-0.1,0-0.2,0
		c0-0.1,0-0.1,0.1-0.2c0-0.1,0-0.2,0-0.2c-0.1-0.1-0.1-0.1-0.1-0.1c0-0.2,0-0.3-0.2-0.3c0-0.1,0-0.2,0-0.3c-0.1-0.1-0.1-0.2-0.1-0.3
		c0,0,0,0-0.1,0c0,0,0-0.1,0-0.1c0,0,0-0.1,0-0.1c0,0-0.1,0-0.2,0c0,0,0-0.1,0-0.1s0-0.1,0-0.1c0,0-0.1,0-0.1,0c0,0,0,0,0,0
		c0,0,0-0.1,0-0.1c0-0.1,0.1-0.1,0.1-0.2c0,0-0.1,0-0.1-0.1c0,0-0.1-0.1-0.1-0.1c0,0,0-0.1,0-0.1c0,0,0-0.1-0.1-0.1
		c0,0-0.1-0.1-0.1-0.1v-0.1c0-0.1-0.1-0.2-0.1-0.3c0-0.1-0.1-0.2-0.1-0.2v-0.3c0-0.1,0-0.1-0.1-0.1c-0.1,0-0.1-0.1-0.1-0.1
		c-0.1,0-0.1,0-0.1,0c0-0.2-0.1-0.3-0.1-0.3c0.1-0.1,0.1-0.1,0.1-0.2c0-0.1-0.1-0.1-0.2-0.1c0-0.1,0-0.1,0-0.3c0-0.2,0-0.4-0.1-0.4
		c0-0.1,0-0.2-0.1-0.2c-0.1,0-0.1,0-0.1,0c0-0.1,0-0.2,0-0.5c0-0.2,0-0.3,0-0.4c0,0,0.1-0.1,0.1-0.1c0,0,0-0.1,0-0.1
		c0,0,0-0.1,0-0.1c0-0.1,0-0.1,0-0.1c0,0,0,0,0.1-0.1c0.1,0,0.1-0.1,0-0.1c0.2-0.1,0.3-0.2,0.3-0.3c0.1,0,0.2,0,0.3-0.1
		c0.1-0.1,0.1-0.1,0.1-0.2c0,0.1,0.1,0.1,0.2,0.1s0.2,0,0.3,0c0,0,0.1,0,0.1,0.1c0,0,0,0.1,0,0.1h0.4c0.1,0.1,0.3,0.2,0.4,0.2v0.1
		c0,0,0,0,0.1,0v0.1c0.1,0.1,0.2,0.2,0.2,0.3c0.1,0.1,0.2,0.1,0.3,0.1c0,0,0,0.1,0,0.1s0,0.1,0,0.1c0,0,0,0.1,0.1,0.1
		c0,0.1,0.1,0.1,0.1,0.1c0,0.1,0.1,0.1,0.2,0.1c0,0.1,0,0.1-0.1,0.2c0,0.1,0,0.2,0.1,0.2c0,0,0.1,0.1,0.2,0.1
		c-0.1,0.1-0.1,0.2-0.1,0.3c0,0,0.1,0.1,0.3,0.1c-0.1,0.2-0.1,0.3-0.1,0.3s0,0.1,0,0.1c0,0,0.1,0,0.1,0c0,0.1,0,0.2,0.1,0.3
		c0,0,0,0,0,0.1c0,0,0.1,0,0.1,0c0,0,0,0,0,0c0,0,0,0.1,0,0.3c0,0.2,0,0.3,0.1,0.3c0,0,0.1,0,0.1,0c0,0,0,0.1,0,0.2
		c-0.1,0.1-0.1,0.1-0.1,0.2c0,0.1,0,0.1,0.1,0.2c0,0.1,0,0.2,0,0.2c0.1,0,0.1,0,0.2,0c0,0,0,0,0,0c0,0-0.1,0.1-0.1,0.1s0,0.1,0,0.2
		c0,0.1,0,0.1,0,0.2c0,0,0,0.1,0.1,0.1c0,0,0.1,0,0.1,0.1c0,0,0,0.1,0,0.1c0,0.1,0,0.1,0,0.1c0,0,0,0.1,0.1,0.1c0,0,0,0,0.1,0.1
		c0,0,0,0.1,0,0.1s0,0.1,0,0.1c0,0,0,0.1,0.1,0.1c0.1,0.1,0.1,0.1,0.1,0.2V51c0,0,0,0.1,0.1,0.1c0,0.1,0.1,0.2,0.2,0.4
		c0,0.1,0,0.2,0,0.3c0.1,0.1,0.1,0.2,0.1,0.2c0.1,0,0.2,0.1,0.1,0.3l0,0.1c0,0.1,0,0.1,0,0.2c0,0,0.1,0,0.2,0c0,0.1,0,0.1,0,0.2
		c0,0.1,0,0.1,0,0.1c0,0.1,0.1,0.1,0.2,0.1c0,0,0,0.1,0,0.1c0,0,0,0.1,0,0.1c0,0,0,0,0,0c0,0,0.1,0,0.1,0c0,0.1,0,0.2-0.1,0.3
		c0,0.1-0.1,0.2,0,0.3c0.1,0,0.2,0,0.2-0.1c0-0.3,0-0.4,0.1-0.5c0-0.1,0-0.2,0-0.3h0.1c0.1,0,0.1-0.1,0.1-0.2c0-0.1,0-0.2,0-0.2
		c0,0,0,0,0,0c0,0,0.1,0,0.1,0c0,0,0-0.1,0-0.2c0.1-0.1,0.1-0.1,0.2-0.2c-0.1-0.1,0-0.2,0.1-0.3c0,0,0-0.1,0-0.2
		c0.3-0.4,0.4-0.7,0.5-0.9c0.1-0.1,0.1-0.1,0.1-0.1c0-0.1,0-0.1,0-0.2c0-0.1,0-0.1,0-0.2c0.1,0,0.2-0.2,0.2-0.5
		c0.2-0.3,0.3-0.6,0.3-0.8C75,49,75,49,75,49c0.1-0.1,0.1-0.2,0.1-0.3c0,0,0.1-0.1,0.1-0.2c0.1-0.1,0.1-0.2,0.2-0.2c0,0,0-0.1,0-0.1
		c0,0,0.1-0.1,0.1-0.1c0,0,0-0.1,0-0.1c0-0.1,0-0.1,0.1-0.2c0,0,0-0.1,0-0.1c0,0-0.1,0-0.1,0c-0.1-0.1-0.1-0.2,0-0.3
		c0,0,0.1,0,0.2,0c0-0.1,0-0.1,0-0.2c0,0,0.1,0,0.1,0c0,0,0.1-0.1,0.1-0.1v-0.2c0,0,0-0.1,0.1-0.1c0,0,0.1-0.1,0.1-0.2
		c0,0,0-0.1,0-0.2c0,0,0-0.1,0.1-0.1c0.1-0.1,0.1-0.1,0.1-0.1s0-0.1,0-0.1c0,0,0,0,0-0.1c0.2-0.2,0.4-0.4,0.4-0.5
		c0.1,0,0.2-0.1,0.2-0.3c0,0,0.1,0,0.1,0.1c0.1,0,0.1-0.1,0.1-0.2c0.1-0.1,0.2,0,0.3,0c0,0,0.1-0.1,0.1-0.2c0,0,0.1,0,0.1,0
		c0.1,0,0.1,0,0.1,0c0,0,0.1,0.1,0.3,0.3c0,0,0,0,0-0.1v0c0,0,0,0,0.1,0c0,0.1,0,0.2,0.1,0.3c0.1-0.1,0.3-0.1,0.3-0.1
		c0,0.1,0.1,0.2,0.1,0.2c-0.1,0.1-0.1,0.2,0,0.3c0.1,0.1,0.2,0.1,0.3,0c0,0,0,0.1,0,0.1c0,0,0,0.1,0,0.2c0,0,0.1,0.1,0.1,0.2
		c0,0.1,0.1,0.2,0.1,0.2c0.1,0.2,0.1,0.3,0.1,0.3c0.1,0.1,0.1,0.1,0.1,0.1c0,0,0,0.1,0,0.2c0,0.1,0,0.1,0,0.1c0,0,0,0,0,0
		c0,0,0.1,0,0.1,0.1c0,0,0,0.1,0,0.1c0,0.1,0,0.1,0,0.1s0,0.1,0,0.1c0,0,0,0.1,0,0.1c0,0,0,0.1,0.1,0.1c0,0,0.1,0.1,0.1,0.1
		c0,0,0.1,0.1,0.1,0.2c0,0.1,0,0.2,0.1,0.2c0,0.2,0,0.3,0.1,0.4c0,0.2,0.1,0.4,0.3,0.6c0,0,0,0.1,0.1,0.2c0.1,0.1,0.1,0.2,0.1,0.3
		c0.1,0,0.1,0.1,0.1,0.3c0,0.1,0,0.2,0.1,0.3c0,0.1,0,0.3,0.2,0.3v0.1c0.1,0.1,0.2,0.2,0.2,0.3c-0.1,0.1,0,0.2,0,0.3
		c0.1,0.1,0.1,0.1,0.1,0.1c0,0.1,0,0.1,0,0.1c0,0,0,0.1,0.1,0.1s0.1,0.1,0.1,0.1s0,0.1,0,0.1c0,0,0,0.1,0,0.1c0,0,0.1,0.1,0.2,0.1
		c0,0.1,0,0.1,0.1,0.2s0,0.2,0.1,0.2c0.1,0.1,0.1,0.1,0.1,0.1s0,0.1,0,0.1s0,0.1,0,0.1c0,0,0,0,0.1,0.1c0,0,0.1,0.1,0.1,0.1
		c0,0.1,0,0.2,0.2,0.2c0,0,0,0.1,0,0.1c0,0,0,0.1,0,0.1h0.1v0.2c0,0,0.1,0,0.1,0c0,0,0,0.1,0,0.1v0c-0.1,0.1-0.1,0.2,0,0.4
		c0,0.1,0.2,0.2,0.4,0.5c0,0.1,0,0.2,0.1,0.3c0.1,0,0.1,0,0.2,0c0,0,0.1,0,0.1,0c0,0.1,0,0.1,0,0.2c0,0,0.1,0,0.1,0.1
		c0,0.2,0.1,0.4,0.3,0.6c0,0.2,0.1,0.2,0.2,0.1c0.1-0.1,0.1-0.2,0.1-0.4c0,0,0.1,0,0.1,0c0,0,0-0.1,0-0.2c0,0,0-0.1,0-0.1
		c0.2,0,0.2-0.1,0.2-0.3c0-0.1,0-0.2,0-0.3c0,0,0.1,0,0.2,0c0.1,0,0.1,0,0.1,0c0,0,0-0.1,0-0.2c0-0.1,0-0.1,0-0.2
		c-0.1-0.1-0.1-0.2-0.1-0.3c0.1,0,0.2-0.1,0.3-0.2C84.4,53.8,84.5,53.8,84.5,53.6L84.5,53.6z M84.5,53.4c0.1,0,0.1,0,0.2-0.1
		c0,0,0,0,0-0.1c0,0,0,0,0-0.1c0-0.1,0-0.1,0-0.3c0-0.1,0-0.2,0-0.3c0,0,0.1,0,0.1-0.1c0,0,0-0.1-0.1-0.1c0,0-0.1-0.1-0.1-0.1
		c0,0,0,0,0.1,0c0,0,0.1,0,0.1,0c0-0.1,0.1-0.2,0.2-0.3c0.1-0.1,0.1-0.1,0.1-0.1c0-0.1,0-0.2,0-0.2c0-0.1,0-0.1,0-0.1h0.1
		c0-0.1,0-0.2,0.1-0.3s0-0.2,0.1-0.3c-0.1-0.2-0.1-0.4,0.2-0.5c0,0-0.1-0.1-0.1-0.1c0,0,0,0,0-0.1c0.1-0.1,0.1-0.2,0-0.4
		c0,0,0.1,0,0.1,0c0.1-0.4,0.2-0.6,0.3-0.7l-0.1-0.1c0-0.1,0-0.2,0-0.3c0.1-0.1,0.1-0.1,0.2-0.1c0-0.2,0.1-0.3,0.1-0.3
		c0-0.1,0-0.3,0-0.4c0-0.1,0.1-0.2,0.2-0.3L86,47.4c0.1,0,0.2-0.1,0.2-0.1c0-0.1,0-0.1-0.1-0.1C86,47.1,86,47.1,86,47
		c0,0,0.1,0,0.1,0c0,0,0.1,0,0.1,0c0.1,0,0.1-0.1,0-0.2c0-0.1,0-0.2,0-0.3c0,0,0.1,0,0.2,0c0.1,0,0.1,0,0.2,0c0,0,0-0.1-0.1-0.1
		c0,0,0-0.1,0.1-0.1c0,0,0.1-0.1,0.1-0.1c0-0.1,0-0.2-0.1-0.3c-0.1-0.1-0.1-0.3-0.1-0.3c0.1-0.1,0.2-0.3,0.1-0.3c-0.1,0-0.1,0-0.1,0
		c0-0.1,0-0.1,0-0.2c0-0.1,0-0.1,0-0.1c0-0.1,0-0.2,0-0.5c0,0,0-0.1,0-0.2c0-0.1,0-0.1,0-0.2c-0.1-0.2-0.1-0.3,0-0.3
		c0,0,0.1-0.1,0.1-0.1c0-0.1,0-0.2,0-0.4c0-0.2,0-0.3,0.1-0.4c-0.1-0.1-0.1-0.1-0.1-0.1c0,0,0.1,0,0.2-0.1c0-0.1,0-0.2,0-0.2
		c0-0.1-0.1-0.1-0.1-0.2c0,0,0,0,0.1,0s0,0,0.1,0c0,0,0-0.1,0-0.2c0-0.1,0-0.1,0-0.2c0.1,0,0.1,0,0.2-0.1c0.1,0,0.2,0,0.2,0.1
		c0,0,0-0.1,0-0.2c0.1,0,0.2,0,0.3,0c0.1,0,0.2,0,0.3,0c0.1,0.1,0.2,0.2,0.3,0.1c0,0.1,0.1,0.1,0.1,0.1c0.1,0,0.2,0,0.3,0
		c0.1,0,0.2,0,0.3,0c0,0,0,0.1,0,0.2c0,0.1,0,0.2,0,0.2c0,0,0,0.1,0.1,0.2c0.1,0.1,0.2,0.1,0.2,0.2c0,0.1,0,0.1,0,0.2
		c0,0.1,0.1,0.2,0.1,0.2v0.1c0,0,0,0.1,0.1,0.2c0.1,0.1,0.1,0.2,0.1,0.3c0,0.1,0,0.2,0.1,0.3c0,0.2,0,0.3,0.1,0.4c0,0,0,0.1,0,0.2
		c-0.1,0.1-0.1,0.2-0.1,0.4c0,0.2,0,0.3,0,0.4c0.1,0,0.1,0.1,0,0.3c0.1,0.1,0.1,0.1,0,0.1c0,0,0,0.1-0.1,0.1c-0.1,0-0.1,0.1-0.1,0.1
		c0,0,0,0.1,0.1,0.2c0,0.1,0.1,0.1,0.1,0.2s0,0.1,0,0.2c0,0.1,0,0.2,0,0.2c0,0.1,0,0.1,0,0.1c0,0-0.1,0.1-0.2,0.1c0,0,0,0.1,0,0.2
		c0,0.1,0,0.2,0,0.2c0.1,0.1,0.1,0.1,0.1,0.2c-0.1,0-0.2,0-0.2,0c0,0.1,0,0.1,0,0.2c0,0,0,0.2,0,0.6c-0.2,0.1-0.2,0.2-0.1,0.5
		c-0.2,0.1-0.2,0.2,0,0.3c0,0.1,0,0.1,0,0.1c0,0,0,0-0.1,0c0,0.1,0,0.1,0,0.1c-0.1,0.1-0.2,0.1-0.2,0.1c0,0.1,0,0.1,0,0.2
		c-0.1,0-0.1,0.1-0.1,0.2c0,0.1,0,0.2,0.1,0.3c0,0.1,0,0.2,0,0.3c-0.2,0-0.3,0.1-0.3,0.3c0.1,0.1,0.1,0.2,0.1,0.3
		c-0.1,0-0.2,0.1-0.2,0.2c0,0.1,0,0.3,0,0.4c-0.1,0-0.2,0.1-0.2,0.3c0,0,0,0.1,0,0.1c0,0,0,0.1,0.1,0.1c0,0,0,0.1,0,0.2
		c0,0.1,0,0.1,0,0.2c-0.2,0.1-0.2,0.2-0.2,0.3c-0.1,0.1-0.1,0.2-0.1,0.4c0,0,0,0.1,0.1,0.1c0,0,0.1,0.1,0.1,0.1h-0.1
		c-0.1,0-0.1,0.1-0.1,0.2c0,0.1-0.1,0.2-0.1,0.2c0,0.1,0,0.1,0,0.2c0,0.1,0,0.2,0,0.2c0,0-0.1,0.1-0.2,0.2c-0.1,0.1-0.1,0.1-0.2,0.2
		c0,0.1,0,0.2-0.1,0.3c-0.1,0.1,0,0.2,0.1,0.2c0,0.1,0,0.2,0,0.2c-0.1,0-0.2,0-0.2,0c0,0.1,0,0.2-0.1,0.3c0,0,0,0.1,0,0.1
		c0,0,0,0.1,0,0.2c0,0.1,0,0.2,0,0.2s0,0.1-0.1,0.2c-0.1,0.1-0.1,0.2,0,0.2c0,0-0.1,0.1-0.1,0.1c0,0,0,0,0,0.1c0,0.2,0,0.3,0,0.3
		c0,0-0.1,0-0.1,0c0,0,0,0-0.1,0c0,0,0,0.1,0,0.2c0,0,0,0.1-0.1,0.2c0,0.1-0.1,0.2-0.1,0.2c0.1,0.1,0.1,0.2,0.1,0.3
		c-0.1,0-0.2,0-0.2,0.1c0,0-0.1,0.1-0.1,0.2c0.1,0.1,0.1,0.1,0.1,0.1c-0.2,0.1-0.2,0.1-0.2,0.3c0,0,0,0.1,0,0.1c0,0,0,0.1,0,0.1
		c-0.1,0-0.2,0.1-0.2,0.2c0,0.1-0.1,0.2-0.1,0.2c0,0,0,0.1,0,0.1c0,0.1,0,0.1,0,0.1c0,0-0.1,0-0.1,0c0,0-0.1,0.1-0.1,0.1
		c0,0,0,0.1,0,0.1c-0.1,0-0.1,0-0.2,0c0,0-0.1,0-0.1,0c0,0-0.1,0.1-0.2,0.3h-0.3c-0.1,0.1-0.1,0.2,0,0.3c-0.1,0-0.1,0-0.1,0s0,0,0,0
		c0,0.1,0,0.1,0,0.1c-0.1-0.1-0.1-0.2-0.2-0.2c0,0-0.1,0-0.1,0c0,0-0.1,0-0.1,0c0,0-0.1,0-0.1-0.1c0,0-0.1,0-0.1,0
		c-0.1,0.1-0.2,0.1-0.3,0.1c0-0.1,0-0.1,0-0.2c0-0.1,0-0.1,0-0.2c0,0-0.1,0-0.3,0c-0.1,0-0.1-0.1-0.2-0.2c0-0.1,0-0.1,0-0.1
		c-0.1,0.1-0.2,0.1-0.2,0v-0.1c0,0,0-0.1,0-0.1c0,0-0.1,0-0.1,0c0,0,0-0.1-0.1-0.1c0,0-0.1-0.1-0.1-0.1l-0.1,0c0,0-0.1-0.1-0.1-0.1
		c-0.1-0.1-0.2-0.2-0.3-0.2c0-0.1,0-0.1,0-0.2c0,0,0,0-0.1,0c0,0,0,0,0,0c0,0,0-0.1,0-0.1l-0.1-0.1c0-0.1-0.2-0.4-0.4-0.6
		c-0.1,0-0.1,0-0.1,0c0,0-0.1-0.1-0.1-0.3c-0.1-0.1-0.2-0.1-0.3-0.1c0-0.1,0-0.2-0.1-0.2c0-0.1,0-0.2-0.1-0.3
		c-0.1,0-0.1-0.1-0.1-0.1c0-0.2-0.1-0.3-0.3-0.4c0,0,0-0.1,0-0.1c0-0.1,0-0.1,0-0.1s0,0-0.1-0.1c0,0-0.1,0-0.1-0.1
		c0,0-0.1-0.1-0.1-0.2c0-0.1-0.1-0.2-0.2-0.2c0-0.1,0-0.2-0.1-0.3v-0.2c0,0,0-0.1-0.1-0.1c-0.1,0-0.1-0.1-0.2-0.1
		c-0.1,0-0.1,0-0.1,0c0,0,0-0.1,0-0.1c0,0,0-0.1,0-0.1c-0.1,0-0.1,0-0.1,0c0-0.1,0-0.2,0-0.2c0,0,0.1,0,0.1,0c0,0,0,0,0,0
		c0-0.1-0.1-0.1-0.2,0h-0.1c0-0.1,0-0.1,0-0.2c0-0.1,0-0.1,0-0.2c0,0,0-0.1-0.1-0.1l0,0c0-0.1-0.1-0.1-0.1-0.2l0-0.1
		c0,0,0-0.1,0-0.2c0,0-0.1-0.1-0.1-0.1c0,0-0.1,0-0.1,0c0-0.1,0-0.2-0.1-0.3c0-0.1,0-0.2-0.1-0.2c0,0-0.1,0-0.1,0
		c0-0.1,0-0.1-0.1-0.2c0-0.1,0-0.2-0.1-0.2c-0.1-0.1-0.1-0.2-0.1-0.2c0-0.1-0.1-0.1-0.2-0.1c0,0,0-0.1,0-0.1c0-0.1,0-0.1,0-0.2
		c0,0-0.1,0-0.1-0.1c0,0,0,0,0-0.1c0-0.1,0-0.2-0.1-0.3c-0.1-0.1-0.1-0.2-0.1-0.2c0,0-0.1-0.1-0.1-0.2c0-0.1-0.1-0.1-0.1-0.2
		c-0.1,0-0.1,0.1-0.3,0.3c0,0,0,0.1,0,0.1c0,0.1-0.1,0.1-0.1,0.1c0,0,0,0-0.1,0.1c0,0,0,0.1,0,0.1c0,0,0,0,0,0.1c0,0,0,0.1,0,0.1
		c0,0,0,0-0.1,0.1c0,0-0.1,0.1-0.1,0.2c0,0.1-0.1,0.2-0.1,0.2c0,0.1-0.1,0.1-0.2,0.3c0,0.1,0,0.2-0.1,0.3V53c0,0,0,0.1-0.1,0.1
		c0,0,0,0.1,0,0.1c0,0-0.1,0.1-0.1,0.1c-0.1,0.1-0.1,0.2,0,0.3c0,0,0,0.1-0.1,0.1c0,0,0,0.1,0,0.2c0,0.1,0,0.2,0,0.2c0,0,0,0,0,0
		c0,0,0,0,0,0c-0.1,0.2-0.1,0.3-0.2,0.3c0,0,0,0.2-0.1,0.4c-0.1,0.2-0.1,0.3,0,0.3c-0.1,0-0.2,0.1-0.2,0.2c0,0.1-0.1,0.2-0.1,0.2
		c0,0.1,0,0.1,0,0.2c0,0,0,0.1,0,0.1l-0.1,0.2c0,0,0,0.1,0.1,0.1c0.1,0,0.1,0.1,0.1,0.2h-0.1c-0.1,0-0.1,0-0.1,0.2
		c0,0.1,0,0.2,0,0.2c0,0-0.1,0-0.1,0c0,0,0,0.1,0,0.2v0.2c0,0-0.1,0-0.1,0c-0.1,0-0.1,0.1-0.1,0.2c0,0.1,0,0.2,0,0.2
		c-0.1,0-0.2,0-0.2,0.2c0,0.1,0,0.2,0.1,0.2c0,0.1,0,0.1,0,0.1c-0.1,0-0.2,0.1-0.2,0.2c0,0,0,0.1,0,0.2c0,0.1,0,0.2,0,0.3
		c0,0,0,0-0.1,0c-0.1,0-0.1,0.1,0,0.2c0,0.1,0,0.2,0,0.2c-0.1,0-0.1,0.1-0.1,0.2c0,0.1,0,0.1,0.1,0.1c0,0,0,0.1,0,0.2
		c-0.1,0.1-0.1,0.1-0.2,0.2c0,0,0,0.1,0,0.1c0,0.1,0,0.1,0,0.1c0,0,0,0.1-0.1,0.1c0,0-0.1,0.1-0.1,0.2c-0.1,0-0.2,0-0.3,0.1
		c-0.1,0.1-0.1,0.1-0.1,0.1c0,0,0,0.1,0,0.1c0,0,0,0.1,0,0.1c0,0-0.1,0-0.1,0h0c-0.1,0-0.1,0.1-0.1,0.2c0,0-0.1,0.1-0.1,0.2
		c-0.1,0-0.1,0-0.2,0C73.2,61,73,61,73,61.2c0,0-0.1,0-0.2,0c-0.1,0-0.2,0-0.2,0c0,0,0-0.1,0-0.1c0-0.1-0.1-0.2-0.2-0.2
		c0-0.1,0-0.1-0.1-0.3c0-0.1,0-0.2-0.1-0.3c0,0,0-0.1-0.1-0.2l-0.1,0c0,0-0.1-0.1-0.1-0.2c0-0.1-0.1-0.1-0.2-0.1
		c0,0-0.1-0.1-0.1-0.1c0-0.1,0-0.2,0-0.4s0-0.3,0-0.4c0,0,0-0.1-0.1-0.1s-0.1-0.1-0.1-0.1c-0.1-0.2-0.1-0.4-0.2-0.4c0,0,0-0.1,0-0.2
		c0-0.2,0-0.3-0.2-0.3c0-0.2,0-0.3,0-0.3c0-0.1,0-0.2-0.1-0.3c0,0,0,0-0.1,0c0,0,0,0-0.1,0c0,0,0-0.1,0-0.1s0-0.1,0-0.1
		c0,0,0-0.1,0-0.1c0,0,0,0-0.1,0c0,0-0.1,0-0.1,0l0-0.1c-0.1-0.1-0.1-0.2-0.1-0.4c0-0.2,0-0.4,0-0.5c-0.1,0-0.2-0.1-0.2-0.3
		s-0.1-0.3-0.2-0.3c0-0.1,0-0.2,0-0.3c0.1-0.1,0-0.2-0.2-0.2c-0.1-0.1-0.1-0.3,0-0.4c0-0.1,0-0.1,0-0.1c0,0,0,0,0-0.1
		c0,0,0,0-0.1-0.1c0,0,0-0.1,0-0.2s0-0.1,0-0.2c0,0,0,0-0.1-0.1c0,0-0.1-0.1-0.1-0.1c0-0.1,0-0.2-0.1-0.3c0-0.1,0-0.3-0.1-0.3
		c-0.1,0-0.1,0-0.1,0l0.1-0.1c0-0.1,0-0.2-0.1-0.3c0,0-0.1,0-0.1,0c-0.1,0-0.1,0-0.2,0c0-0.1,0-0.1,0.1-0.2c0-0.1,0-0.2,0-0.2
		c-0.1-0.1-0.1-0.1-0.1-0.1c0-0.2,0-0.3-0.2-0.3c0-0.1,0-0.2,0-0.3c-0.1-0.1-0.1-0.2-0.1-0.3c0,0,0,0-0.1,0c0,0,0-0.1,0-0.1
		c0,0,0-0.1,0-0.1c0,0-0.1,0-0.2,0c0,0,0-0.1,0-0.1s0-0.1,0-0.1c0,0-0.1,0-0.1,0c0,0,0,0,0,0c0,0,0-0.1,0-0.1c0-0.1,0.1-0.1,0.1-0.2
		c0,0-0.1,0-0.1-0.1c0,0-0.1-0.1-0.1-0.1c0,0,0-0.1,0-0.1c0,0,0-0.1-0.1-0.1c0,0-0.1-0.1-0.1-0.1v-0.1c0-0.1-0.1-0.2-0.1-0.3
		c0-0.1-0.1-0.2-0.1-0.2v-0.3c0-0.1,0-0.1-0.1-0.1c-0.1,0-0.1-0.1-0.1-0.1c-0.1,0-0.1,0-0.1,0c0-0.2-0.1-0.3-0.1-0.3
		c0.1-0.1,0.1-0.1,0.1-0.2c0-0.1-0.1-0.1-0.2-0.1c0-0.1,0-0.1,0-0.3c0-0.2,0-0.4-0.1-0.4c0-0.1,0-0.2-0.1-0.2c-0.1,0-0.1,0-0.1,0
		c0-0.1,0-0.2,0-0.5c0-0.2,0-0.3,0-0.4c0,0,0.1-0.1,0.1-0.2c0,0,0-0.1,0-0.2c0-0.1,0-0.1,0-0.1c0,0,0,0,0.1-0.1c0.1,0,0.1-0.1,0-0.1
		c0.2-0.1,0.3-0.2,0.3-0.3c0.1,0,0.2,0,0.3-0.1c0.1-0.1,0.1-0.1,0.1-0.2c0,0.1,0.1,0.1,0.2,0.1s0.2,0,0.3,0c0,0,0.1,0,0.1,0.1
		c0,0,0,0.1,0,0.1h0.4c0.1,0.1,0.3,0.2,0.4,0.2v0.1c0,0,0,0,0.1,0v0.1c0.1,0,0.2,0.1,0.2,0.3c0.1,0.1,0.2,0.1,0.3,0.1
		c0,0,0,0.1,0,0.1s0,0.1,0,0.1c0,0,0,0.1,0.1,0.1c0,0.1,0.1,0.1,0.1,0.1c0,0.1,0.1,0.1,0.2,0.1c0,0.1,0,0.1-0.1,0.2
		c0,0.1,0,0.2,0.1,0.2c0,0,0.1,0.1,0.2,0.1c-0.1,0.1-0.1,0.2-0.1,0.3c0,0,0.1,0.1,0.3,0.1c-0.1,0.2-0.1,0.3-0.1,0.3s0,0.1,0,0.1
		c0,0,0.1,0,0.1,0c0,0.1,0,0.2,0.1,0.3c0,0,0,0,0,0.1c0,0,0.1,0,0.1,0c0,0,0,0,0,0c0,0,0,0.1,0,0.3c0,0.2,0,0.3,0.1,0.3
		c0,0,0.1,0,0.1,0c0,0,0,0.1,0,0.2c-0.1,0.1-0.1,0.1-0.1,0.2c0,0.1,0,0.1,0.1,0.2c0,0.1,0,0.2,0,0.2c0.1,0,0.1,0,0.2,0c0,0,0,0,0,0
		c0,0-0.1,0.1-0.1,0.1s0,0.1,0,0.2c0,0.1,0,0.1,0,0.2c0,0,0,0.1,0.1,0.1c0,0,0.1,0,0.1,0.1c0,0,0,0.1,0,0.1c0,0.1,0,0.1,0,0.1
		c0,0,0,0.1,0.1,0.1c0,0,0,0,0.1,0.1c0,0,0,0.1,0,0.1s0,0.1,0,0.1c0,0,0,0.1,0.1,0.1c0.1,0.1,0.1,0.1,0.1,0.2V51c0,0,0,0.1,0.1,0.1
		c0,0.1,0.1,0.2,0.2,0.4c0,0.1,0,0.2,0,0.3c0.1,0.1,0.1,0.2,0.1,0.2c0.1,0,0.2,0.1,0.1,0.3l0,0.1c0,0.1,0,0.1,0,0.2c0,0,0.1,0,0.2,0
		c0,0.1,0,0.1,0,0.2c0,0.1,0,0.1,0,0.1c0,0.1,0.1,0.1,0.2,0.1c0,0,0,0.1,0,0.1c0,0,0,0.1,0,0.1c0,0,0,0,0,0c0,0,0.1,0,0.1,0
		c0,0.1,0,0.2-0.1,0.3c0,0.1-0.1,0.2,0,0.3c0.1,0,0.2,0,0.2-0.1c0-0.3,0-0.4,0.1-0.5c0-0.1,0-0.2,0-0.3h0.1c0.1,0,0.1-0.1,0.1-0.2
		c0-0.1,0-0.2,0-0.2c0,0,0,0,0,0c0,0,0.1,0,0.1,0c0,0,0-0.1,0-0.2c0,0,0.1,0,0.1,0c0,0,0.1-0.1,0.1-0.1c-0.1-0.1,0-0.2,0.1-0.3
		c0,0,0-0.1,0-0.2c0.3-0.4,0.4-0.7,0.5-0.9c0.1-0.1,0.1-0.1,0.1-0.1c0-0.1,0-0.1,0-0.2c0-0.1,0-0.1,0-0.2c0.1,0,0.2-0.2,0.2-0.5
		c0.2-0.3,0.3-0.6,0.3-0.8C75,49,75,49,75,49c0.1-0.1,0.1-0.2,0.1-0.3c0,0,0.1-0.1,0.1-0.2c0.1-0.1,0.1-0.2,0.2-0.2c0,0,0-0.1,0-0.1
		c0,0,0.1-0.1,0.1-0.1c0,0,0-0.1,0-0.1c0-0.1,0-0.1,0.1-0.2c0,0,0-0.1,0-0.1c0,0-0.1,0-0.1,0c-0.1-0.1-0.1-0.2,0-0.3
		c0,0,0.1,0,0.2,0c0-0.1,0-0.1,0-0.2c0,0,0.1,0,0.1,0c0,0,0.1-0.1,0.1-0.1v-0.2c0,0,0-0.1,0.1-0.1c0,0,0.1-0.1,0.1-0.2
		c0,0,0-0.1,0-0.2c0,0,0-0.1,0.1-0.1c0.1-0.1,0.1-0.1,0.1-0.1s0-0.1,0-0.1c0,0,0,0,0-0.1c0.2-0.2,0.4-0.4,0.4-0.5
		c0.1,0,0.2-0.1,0.2-0.3c0,0,0.1,0,0.1,0.1c0.1,0,0.1-0.1,0.1-0.2c0.1-0.1,0.2,0,0.3,0c0,0,0.1-0.1,0.1-0.2c0,0,0.1,0,0.1,0
		c0.1,0,0.1,0,0.1,0c0,0,0.1,0.1,0.3,0.3c0,0,0,0,0-0.1v0c0,0,0,0,0.1,0c0,0.1,0,0.2,0.1,0.3c0.1-0.1,0.3-0.1,0.3-0.1
		c0,0.1,0.1,0.2,0.1,0.2c-0.1,0.1-0.1,0.2,0,0.3c0.1,0.1,0.2,0.1,0.3,0c0,0,0,0.1,0,0.1c0,0,0,0.1,0,0.2c0,0,0.1,0.1,0.1,0.2
		c0,0.1,0.1,0.1,0.1,0.2c0.1,0.2,0.1,0.3,0.1,0.3c0.1,0.1,0.1,0.1,0.1,0.1c0,0,0,0.1,0,0.2c0,0.1,0,0.1,0,0.2c0,0,0,0,0,0
		c0,0,0.1,0,0.1,0c0,0,0,0.1,0,0.1c0,0.1,0,0.1,0,0.1s0,0.1,0,0.1c0,0,0,0.1,0,0.1c0,0,0,0.1,0.1,0.1c0,0,0.1,0.1,0.1,0.1
		c0,0,0.1,0.1,0.1,0.2c0,0.1,0,0.2,0.1,0.2c0,0.2,0,0.3,0.1,0.4c0,0.2,0.1,0.4,0.3,0.6c0,0,0,0.1,0.1,0.2c0.1,0.1,0.1,0.2,0.1,0.3
		c0.1,0,0.1,0.1,0.1,0.3c0,0.1,0,0.2,0.1,0.3c0,0.1,0,0.3,0.2,0.3v0.1c0.1,0.1,0.2,0.2,0.2,0.3c-0.1,0.1,0,0.2,0.1,0.3
		c0,0.1,0.1,0.1,0.1,0.1c0,0.1,0,0.1,0,0.1c0,0,0,0.1,0.1,0.1s0.1,0.1,0.1,0.1s0,0.1,0,0.1c0,0,0,0.1,0,0.1c0,0,0.1,0.1,0.2,0.1
		c0,0.1,0,0.1,0.1,0.2s0,0.2,0.1,0.2c0.1,0.1,0.1,0.1,0.1,0.1s0,0.1,0,0.1s0,0.1,0,0.1c0,0,0,0,0.1,0.1c0,0,0.1,0.1,0.1,0.1
		c0,0.1,0,0.2,0.2,0.2c0,0,0,0.1,0,0.1c0,0,0,0.1,0,0.1h0.1v0.2c0,0,0.1,0,0.1,0c0,0,0,0.1,0,0.1v0c-0.1,0.1-0.1,0.2,0,0.4
		c0,0.1,0.2,0.2,0.4,0.5c0,0.1,0,0.2,0.1,0.3c0.1,0,0.1,0,0.2,0c0,0,0.1,0,0.1,0c0,0.1,0,0.1,0,0.2c0,0,0.1,0,0.1,0.1
		c0,0.2,0.1,0.4,0.3,0.6c0,0.2,0.1,0.2,0.2,0.1c0.1-0.1,0.1-0.2,0.1-0.4c0,0,0.1,0,0.1,0c0,0,0-0.1,0-0.2c0,0,0-0.1,0-0.1
		c0.2,0,0.2-0.1,0.2-0.3c0-0.1,0-0.2,0-0.3c0,0,0.1,0,0.2,0c0.1,0,0.1,0,0.1,0c0,0,0-0.1,0-0.2c0-0.1,0-0.1,0-0.2
		c-0.1-0.1-0.1-0.2-0.1-0.3c0.1,0,0.2,0,0.3-0.2c0.1-0.1,0.1-0.2,0.1-0.2v-0.1C84.5,53.5,84.6,53.5,84.5,53.4z M73.1,53.4
		C73.1,53.5,73.1,53.5,73.1,53.4C73,53.5,73,53.5,73.1,53.4C73,53.4,73,53.4,73.1,53.4C73,53.4,73.1,53.4,73.1,53.4z M73,53.4
		C73,53.4,73.1,53.4,73,53.4c0.1,0.1,0.1,0.1,0,0.1C73,53.5,73,53.5,73,53.4C73,53.4,73,53.4,73,53.4z M89,47L89,47
		C89,47,89,47,89,47C89,47,89,47,89,47z M89,46.9C89,47,89,47,89,46.9C89,47,89,47,89,46.9L89,46.9z"/>
</g>
</svg>
