<?xml version="1.0" encoding="utf-8"?>
<!-- Generator: Adobe Illustrator 19.0.1, SVG Export Plug-In . SVG Version: 6.00 Build 0)  -->
<svg version="1.1" id="Layer_1" xmlns="http://www.w3.org/2000/svg" xmlns:xlink="http://www.w3.org/1999/xlink" x="0px" y="0px"
	 viewBox="0 0 100 100" enable-background="new 0 0 100 100" xml:space="preserve">
<g id="Layer_1_1_">
	<g>
		<g>
			<path fill="#2B5799" d="M40.1,38.4c2.8-7.1,10.9-7,16.1-2.5c2.2,1.8,3.4,3.5,3.3,6.5c-0.2,3.9-1.8,3.7-5.1,4.5
				c-6.7,1.5-10.2,7.5-8.8,14.1c0.9,4.3,7.5,2.5,6.6-1.8c-1.5-7.3,11.2-4.9,13.6-11.3c1.9-4.9,0.8-12-3.1-15.6
				c-9.6-8.7-24.1-9.1-29.4,4.3C31.8,40.7,38.5,42.5,40.1,38.4L40.1,38.4z"/>
		</g>
		<g>
			<path fill="#2B5799" d="M48.8,75.9c4.4,0,4.4-6.9,0-6.9S44.4,75.9,48.8,75.9L48.8,75.9z"/>
		</g>
	</g>
</g>
<g id="Layer_2" display="none">
	<circle display="inline" fill="none" stroke="#231F20" stroke-miterlimit="10" cx="50" cy="50" r="50"/>
</g>
</svg>
