<?xml version="1.0" encoding="utf-8"?>
<!-- Generator: Adobe Illustrator 19.0.1, SVG Export Plug-In . SVG Version: 6.00 Build 0)  -->
<svg version="1.1" id="Layer_1" xmlns="http://www.w3.org/2000/svg" xmlns:xlink="http://www.w3.org/1999/xlink" x="0px" y="0px"
	 viewBox="0 0 100 100" enable-background="new 0 0 100 100" xml:space="preserve">
<g>
	<path fill="#2B5799" d="M18.8,39.3c0,0.2,0.1,0.3,0.2,0.3c0,0.1,0,0.2,0.1,0.3c0,0.1,0,0.1,0,0.1v0.1v0.1c0,0,0,0.1,0,0.2
		c0,0.1,0,0.2,0,0.3c0.1,0.1,0.1,0.2,0.1,0.3h0.1c0,0.1,0,0.1,0,0.2l0.1,0.3v0.1c0,0.1,0,0.1,0,0.1c0,0.1,0.1,0.2,0.1,0.2V42
		c0,0.1,0,0.2,0.1,0.4c0,0.2,0.1,0.3,0.1,0.4c0,0.1,0,0.1,0,0.2c0,0.1,0.1,0.1,0.1,0.2c0,0.2,0,0.3,0.1,0.3c0,0.1,0,0.2,0.1,0.4
		c0,0,0,0.1,0,0.3c0,0.1,0,0.2,0.1,0.3c0,0.1,0,0.1,0,0.1s0,0.1,0.1,0.3c0,0.2,0,0.3,0.1,0.3c0,0.1,0,0.1,0,0.2c0,0.1,0,0.2,0,0.2
		s0,0.1,0.1,0.1v0.1c0,0,0,0.1,0,0.2c0,0.1,0,0.2,0,0.2s0,0,0,0.1c0,0,0,0,0.1,0.1c0,0.1-0.1,0.2-0.1,0.3s0,0.2,0,0.3s0,0.1,0,0.2
		c0,0,0,0.1,0.1,0.2c0,0.1,0,0.1,0,0.1v0.1c0,0.1,0,0.2,0.1,0.3c0,0.1,0.1,0.1,0.1,0.1v0.1v0.1c0,0,0,0.1,0.1,0.2c0,0.1,0,0.1,0,0.3
		c0,0.1,0,0.2,0,0.3s0.1,0.2,0.1,0.2c0,0.2,0,0.4,0,0.4c0,0.1,0.1,0.2,0.1,0.3c0,0.2,0,0.3,0.1,0.4c0,0.1,0,0.1,0,0.2c0,0,0,0,0,0.1
		v0.1c0,0,0,0.1,0,0.2c0,0.1,0,0.2,0,0.2c0,0.1,0,0.2,0.1,0.3c0,0.3,0,0.4,0.1,0.5V52c0,0,0,0.1,0.1,0.1c0,0.1,0,0.2,0,0.3
		c0,0,0,0.1,0.1,0.1c0,0,0,0.1,0,0.2c0,0.1,0,0.1,0,0.2c0,0,0,0.1,0.1,0.1s0,0.1,0,0.1c0,0.2,0,0.3,0.1,0.3c0,0.2,0,0.3,0.1,0.4
		c0,0.1,0,0.2,0.1,0.4c0,0.1,0,0.1,0,0.2c0,0.1,0,0.1,0,0.2c0.1,0.1,0.1,0.1,0.1,0.1s0,0,0,0.1s0,0.1,0,0.1V55v0.1c0,0,0,0,0,0.1
		s0,0.1,0,0.1s0,0,0,0.1s0,0,0,0s0,0,0,0.1s0,0.1,0,0.1l0.1,0.1c0,0,0,0.1,0.1,0.2c0,0.1,0.1,0.2,0.1,0.2v0.1c0,0.1,0,0.1,0,0.1
		c0.1,0.1,0.1,0.1,0.2,0.3v0.1c-0.1,0.1-0.1,0.2,0,0.2c0,0,0,0,0,0.1c0,0,0,0,0,0.1c0,0,0,0.1-0.1,0.1c0,0.1-0.1,0.1-0.1,0.2v0.1
		v0.1l0.1,0.1c0,0.1-0.1,0.1-0.1,0.1l0,0l0,0c0,0-0.1,0.1-0.2,0.2c-0.1,0.1-0.2,0.2-0.2,0.3c0,0,0,0,0,0.1h-0.1v0.1
		c0,0.1,0,0.1-0.1,0c0,0,0,0,0-0.1c0,0,0,0,0-0.1c0,0-0.1,0-0.1,0.1c-0.1,0-0.1,0-0.1,0.1c-0.1,0-0.2,0-0.2,0v-0.1h-0.1h-0.1
		c0-0.1,0-0.1-0.1-0.1l0,0l0,0c0,0,0,0,0-0.1l0,0l0,0c-0.2-0.3-0.2-0.4-0.3-0.4h-0.1c0,0-0.1-0.1-0.1-0.2c0-0.1-0.1-0.1-0.1-0.2
		c0-0.1,0-0.2-0.1-0.3c0-0.1,0-0.2-0.1-0.3c0-0.1-0.1-0.2,0-0.3c0,0,0-0.1-0.1-0.1c0,0,0,0,0-0.1c0,0,0,0,0-0.1S20,56,20,55.9
		c0-0.2-0.1-0.3-0.1-0.3c0-0.3,0-0.4-0.1-0.4c0-0.1,0-0.2-0.1-0.3c0-0.1,0-0.1,0-0.1s0-0.1,0-0.2c0-0.1,0-0.2-0.1-0.3h-0.1v-0.1
		c0-0.1,0-0.1,0-0.2c0-0.1,0-0.1,0-0.2v-0.1v-0.1v-0.1c0-0.1-0.1-0.1-0.1-0.1c0-0.1,0-0.1,0-0.1s0,0,0-0.1v-0.1V53
		c0-0.1,0-0.1,0-0.1v-0.1c0-0.1,0-0.1,0-0.2c-0.1,0-0.1-0.1-0.1-0.1c0-0.1,0-0.3-0.1-0.3c0-0.1,0-0.2-0.1-0.3c0-0.1,0-0.2,0-0.3
		s0-0.2,0-0.2c0-0.1,0-0.2,0-0.3s0-0.1-0.1,0c0,0,0,0-0.1,0V51c0,0,0-0.2-0.1-0.5c-0.1-0.1-0.1-0.2-0.1-0.3c0,0,0-0.1-0.1-0.2v-0.1
		c0-0.1,0-0.1,0-0.2c0-0.1,0-0.2,0-0.2v-0.1v-0.1c0-0.2,0-0.3,0-0.3l0,0l0,0c0,0,0-0.1,0-0.2c0-0.1,0-0.2,0-0.3c0,0,0-0.1-0.1-0.1
		c0-0.1,0-0.1,0-0.1s0-0.1,0-0.2c0-0.1,0-0.1,0-0.2c0,0,0,0-0.1,0c0,0,0,0-0.1,0c0-0.1,0-0.1,0.1-0.1l0,0c0,0,0-0.1,0-0.2
		c0-0.1,0-0.2,0-0.2c0-0.1,0-0.1,0-0.1v-0.1v-0.1c0,0,0-0.1,0-0.2c0-0.1,0-0.2,0-0.2s0-0.1-0.1-0.1v-0.1v-0.1v-0.1
		c0-0.1,0-0.2-0.1-0.3c-0.1,0.1-0.1,0.2-0.1,0.4c0,0.1-0.1,0.1-0.1,0.3c0,0.1,0,0.1,0,0.1v0.1c0,0.1,0,0.1,0,0.1
		c-0.1,0-0.1,0.1-0.1,0.3s0,0.3-0.1,0.3c0,0.1,0,0.3,0,0.4l-0.1,0.3c0,0.1-0.1,0.1-0.1,0.1c0,0.1,0,0.1,0,0.2c0,0.4,0,0.6,0,0.8
		L17.3,49c0,0,0,0.1,0,0.2c0,0.1,0,0.2,0,0.2s0,0.1,0,0.2c0,0.1,0,0.2,0,0.2v0.1V50v0.1c0,0.3,0,0.5-0.1,0.5c0,0.1,0,0.4,0,0.7
		c0,0.4,0,0.6,0,0.7c0,0.1,0,0.2,0.1,0.3c-0.1,0-0.1,0.1-0.2,0.2c-0.1,0.1-0.1,0.2-0.2,0.2v0.1l0,0l0,0l0,0c0,0-0.1,0-0.1,0.1
		s-0.1,0.1-0.1,0.2c0,0-0.1,0-0.3,0c0,0,0,0,0,0.1v0.1c0,0-0.1-0.1-0.2-0.2c0,0-0.1,0-0.2,0c-0.1,0-0.1,0-0.1,0
		c-0.1-0.2-0.1-0.3-0.3-0.3c0-0.1-0.1-0.1-0.1-0.2c0-0.1-0.1-0.1-0.1-0.2c-0.1-0.1-0.1-0.1-0.1-0.1L15.1,52c0-0.1,0-0.2-0.1-0.3
		s-0.1-0.2-0.1-0.3c0,0,0,0-0.1-0.1c0,0,0,0,0-0.1v-0.1c0,0-0.1-0.1-0.1-0.2c0-0.1-0.1-0.2-0.1-0.2v-0.1c0,0-0.1-0.1-0.1-0.2
		c-0.1-0.1-0.1-0.2-0.1-0.3c0,0-0.1-0.1-0.1-0.2c-0.1-0.1-0.1-0.2-0.2-0.2c0,0,0,0-0.1-0.1c0-0.1,0-0.2-0.1-0.2c0-0.1,0-0.1-0.1-0.2
		h-0.1c-0.1-0.2-0.1-0.4-0.2-0.4c-0.1-0.2-0.2-0.4-0.3-0.5v-0.1c0,0,0,0,0-0.1l-0.1-0.3c0,0,0,0,0-0.1c0,0,0,0-0.1,0
		c0,0,0-0.1-0.1-0.1c0,0,0-0.1-0.1-0.1c0,0,0,0-0.1-0.1c0,0,0,0,0-0.1s0-0.2-0.1-0.3s-0.1-0.1-0.1-0.1s0,0-0.1-0.1
		c0-0.1-0.1-0.1-0.1-0.1s0,0-0.1,0.1c0,0.1,0,0.3,0,0.6v0.1c0,0.1,0,0.1,0,0.1v0.1c0,0.1,0,0.3,0,0.5s0,0.3,0,0.3c0,0.1,0,0.2,0,0.4
		s0,0.3,0,0.3c0,0.1,0,0.2,0.1,0.3c0,0,0,0,0,0.1c0,0,0,0,0,0.1s0,0.1,0,0.3c0,0.1,0,0.2,0,0.2h0.1h0.1c0,0.1,0,0.1-0.1,0.2
		c-0.1,0.1-0.1,0.1-0.1,0.2v0.1c0,0,0,0,0,0.1s0,0.1-0.1,0.1c0,0.1,0,0.3,0,0.5c0,0.3,0,0.4,0,0.5s0.1,0.2,0.1,0.3
		c0,0,0,0.1-0.1,0.1v0.1c0,0,0,0,0,0.1v0.1c0,0.1,0,0.1,0,0.1s0,0,0,0.1v0.1c0,0.1-0.1,0.1-0.1,0.1v0.1c0,0.1,0,0.1,0,0.2
		c0,0.1,0,0.2,0.1,0.2v0.3v0.1V54c0,0,0,0,0,0.1c0,0,0,0,0,0.1c-0.1,0-0.1,0-0.1,0.1s0,0.1,0.1,0.2c0,0.3,0,0.5,0,0.7s0,0.5,0,0.7
		c0,0.3,0,0.5,0,0.7v0.1v0.1c0,0.1,0,0.1,0,0.1c0,0.1,0,0.2,0,0.4s0,0.3,0,0.4c0,0.1,0.1,0.1,0.1,0.1c-0.1,0.1-0.1,0.1-0.1,0.2
		s0,0.1,0.1,0.1v0.1c0,0,0,0-0.1,0.1c0,0,0,0.1,0.1,0.1c0.1,0.2,0.1,0.3,0,0.4v0.1c0,0,0,0,0,0.1c0,0,0,0,0,0.1c0,0,0,0.1,0.1,0.1
		v0.1c0,0,0,0.1-0.1,0.2c0,0.1,0,0.1,0,0.2c-0.1,0.1-0.1,0.2-0.1,0.3c0,0,0,0.1-0.1,0.1c0,0.1-0.1,0.1-0.1,0.1v-0.1V60
		c0-0.1,0,0,0,0.2c0,0.1,0,0.1-0.1,0.1c0,0,0,0-0.1,0c0,0,0,0,0,0.1s0,0.1,0,0.1c-0.1,0-0.1,0-0.1-0.1s-0.1-0.1-0.1-0.2
		c0,0,0,0,0,0.1c-0.1,0-0.1,0-0.2,0c-0.1-0.1-0.1-0.1-0.1-0.1C11,60,11,60,10.9,60.1c0,0,0-0.1-0.1-0.1c0-0.2-0.1-0.4-0.3-0.5v-0.2
		c0,0-0.1-0.1-0.1-0.2c0-0.1-0.1-0.2-0.1-0.2c0.1-0.3,0.1-0.4,0-0.5c0-0.1,0-0.2,0-0.5c0-0.1,0-0.1,0-0.2c-0.1,0-0.1-0.1-0.1-0.3
		h0.1c0-0.1,0-0.2,0-0.3s0-0.2,0-0.2s0-0.1,0-0.2s0-0.2,0-0.2c0-0.1,0-0.1,0-0.1s0,0,0-0.1v-0.1v-0.1V56c0-0.1,0-0.2,0-0.4
		s0-0.4,0-0.5s0-0.2,0.1-0.3c-0.1-0.2-0.1-0.4-0.1-0.7c0,0,0-0.1,0.1-0.1v-0.1v-0.1c0-0.1,0-0.1,0-0.2c0,0,0-0.1,0-0.2s0-0.2,0-0.2
		c0-0.1,0-0.1-0.1-0.2c0-0.1,0-0.1,0-0.1s0,0,0-0.1s0-0.3,0-0.5s0-0.4,0-0.6c-0.1-0.1-0.1-0.2,0-0.2c0-0.1,0-0.1,0-0.2
		c0-0.1,0-0.1,0-0.2c0,0,0-0.1,0-0.2c0-0.1,0-0.2,0-0.2v-0.1v-0.1c0-0.1,0-0.2,0-0.3s0-0.3,0-0.5v-0.1v-0.1v-0.1c0,0,0-0.1,0-0.3
		s0-0.3,0-0.4v-0.1c0,0,0,0,0-0.1c-0.1-0.1-0.1-0.1-0.1-0.2v-0.1c0,0,0,0,0-0.1c0,0,0-0.1-0.1-0.1v-0.8c0,0,0,0-0.1,0l0,0
		c0-0.1,0-0.1,0.1-0.2c0-0.1-0.1-0.2,0-0.4c0-0.2,0-0.4,0-0.5c-0.1,0-0.1,0-0.1,0c0-0.1,0.1-0.2,0.1-0.3S10,45.6,10,45.5
		s0.1-0.2,0-0.4c0-0.2,0-0.3,0-0.4c0-0.1-0.1-0.2-0.1-0.4c-0.1-0.1-0.1-0.3-0.1-0.5c-0.1-0.1,0-0.3,0-0.4c0-0.1-0.1-0.2-0.1-0.3V43
		v-0.1v-0.1v-0.1c0,0,0-0.1,0.1-0.1c0-0.2,0.1-0.4,0.2-0.6c0,0,0-0.1,0.1-0.1l0.1-0.1c0-0.1,0-0.1,0-0.3v-0.1c0,0,0-0.1,0-0.2
		c0-0.1,0-0.1,0-0.2c0,0-0.1-0.1-0.2-0.1c0-0.1,0-0.1,0.1-0.2c0-0.1,0-0.3,0-0.5c0-0.3,0-0.4,0-0.5h0.1c0.1,0,0.1,0,0.1-0.1v-0.1
		c0-0.1,0-0.1,0-0.1s0-0.1,0.1-0.1l0.1-0.1c0.2,0,0.3,0,0.3-0.1c0,0,0.1,0,0.2-0.1c0,0,0,0,0.1,0c0,0,0,0,0.1,0h0.1
		c0,0,0.1,0,0.1,0.1s0.1,0.1,0.1,0.1l0,0l0,0c0,0,0,0,0.1,0h0.1c0.1,0.1,0.1,0.2,0.3,0.3v0.1v0.1c0,0,0.1,0,0.1,0.1l0.1,0.1l0.1,0.3
		c0,0.1,0,0.2,0.1,0.4c0,0.1,0,0.1,0,0.1s0,0,0,0.1v0.1V41c0,0,0,0,0,0.1s0,0,0,0.1v0.1c0,0,0,0,0.1,0.1c0,0.1,0,0.1,0.1,0.1
		c0,0.1,0,0.2,0.1,0.3v0.1c0.2,0.4,0.3,0.7,0.3,0.8l0.1,0.1v0.1c0,0.1,0,0.1,0.1,0.2c0,0.1,0,0.1,0.1,0.3c0,0,0,0.1,0.1,0.3v0.1v0.1
		c0,0,0,0.1,0.1,0.1c0,0.1,0.1,0.1,0.1,0.1s0,0.1,0.1,0.1c0,0.1,0,0.1,0.1,0.1v0.1c0,0,0,0,0.1,0v0.1c0.1,0.2,0.2,0.3,0.3,0.4V45
		v0.1c0,0,0.1,0.1,0.2,0.3l0,0l0,0v0.1c0,0,0,0.1,0.1,0.1l0.1,0.1v0.1c0,0,0.1,0.1,0.2,0.2v0.1c0,0,0,0,0,0.1l0.1,0.1
		c0,0.1,0.1,0.2,0.1,0.3c0.1,0.1,0.2,0.1,0.2,0.1c0,0.1,0,0.1,0,0.1s0.1,0.1,0.1,0.2c0.1,0.1,0.1,0.2,0.1,0.3c0,0,0,0,0.1,0.1
		c0,0.1,0.1,0.1,0.1,0.1c0.1-0.2,0.1-0.3,0.1-0.3c0-0.2,0-0.3,0-0.3v-0.1v-0.1c0,0,0-0.1,0-0.3s0-0.3,0-0.3c0.1-0.1,0.1-0.2,0.1-0.3
		c-0.1-0.2-0.1-0.3,0.1-0.4c0.1-0.3,0.2-0.5,0.2-0.5c0-0.1,0-0.4,0.1-0.6c0.1-0.1,0.1-0.2,0.1-0.2s0-0.1,0-0.3c0,0,0.1-0.1,0.1-0.2
		c0-0.1,0.1-0.2,0.1-0.2c0-0.1,0-0.1,0-0.2c0-0.1,0-0.1,0-0.1l0,0l0,0c0,0,0,0,0.1,0c0,0,0.1-0.2,0.1-0.5c0-0.1,0.1-0.2,0.1-0.3
		l0.1-0.1c0-0.2,0-0.3,0-0.3c0.1-0.1,0.1-0.1,0.1-0.2c0.1,0,0.1-0.1,0.1-0.3v-0.1v-0.1v-0.1V41c0,0,0,0,0-0.1s0-0.1,0-0.2v-0.2
		c0-0.1,0.1-0.2,0.1-0.3s0-0.2-0.1-0.3c0-0.1,0.1-0.3,0.1-0.6c0-0.1,0.1-0.2,0.2-0.3l0.1-0.1c0-0.1,0-0.2,0-0.3l0,0c0,0,0,0,0.1,0
		c0,0,0,0,0.1-0.1c0.1,0,0.1,0,0.2-0.1c0,0,0.1,0,0.1-0.1l0.1-0.1c0,0,0,0,0.1,0l0.1,0.1h0.1h0.1c0,0,0,0,0.1,0.1s0,0,0,0.1
		c0,0,0,0,0.1,0l0,0c0,0,0.1,0.1,0.1,0.2c0.1,0.1,0.1,0.2,0.1,0.2C18.7,39.2,18.7,39.2,18.8,39.3C18.8,39.2,18.8,39.2,18.8,39.3z
		 M18.7,39.2L18.7,39.2c0.1,0,0.2,0.1,0.2,0.1c0,0.2,0.1,0.3,0.2,0.3c0,0.1,0,0.2,0.1,0.3c0,0.1,0,0.1,0,0.1v0.1v0.1
		c0,0,0,0.1,0,0.2c0,0.1,0,0.2,0,0.3c0.1,0.1,0.1,0.2,0.1,0.3h0.1c0,0.1,0,0.1,0,0.2l0.1,0.3v0.1c0,0.1,0,0.1,0,0.1
		c0,0.1,0.1,0.2,0.1,0.2V42c0,0.1,0,0.2,0.1,0.4c0,0.2,0.1,0.3,0.1,0.4c0,0.1,0,0.1,0,0.2c0,0.1,0.1,0.1,0.1,0.2
		c0,0.2,0,0.3,0.1,0.3c0,0.1,0,0.2,0.1,0.4c0,0,0,0.1,0,0.3c0,0.1,0,0.2,0.1,0.3c0,0.1,0,0.1,0,0.1s0,0.1,0.1,0.3
		c0,0.2,0,0.3,0.1,0.3c0,0.1,0,0.1,0,0.2c0,0.1,0,0.2,0,0.2s0,0.1,0.1,0.1v0.1c0,0,0,0.1,0,0.2c0,0.1,0,0.2,0,0.2s0,0,0,0.1
		c0,0,0,0,0.1,0.1c0,0.1-0.1,0.2-0.1,0.3s0,0.2,0,0.3s0,0.1,0,0.2c0,0,0,0.1,0.1,0.2c0,0.1,0,0.1,0,0.1v0.1c0,0.1,0,0.2,0.1,0.3
		c0,0.1,0.1,0.1,0.1,0.1v0.1v0.1c0,0,0,0.1,0.1,0.2c0,0.1,0,0.1,0,0.3c0,0.1,0,0.2,0,0.3s0.1,0.2,0.1,0.2c0,0.2,0,0.4,0,0.4
		c0,0.1,0.1,0.2,0.1,0.3c0,0.2,0,0.3,0.1,0.4c0,0.1,0,0.1,0,0.2c0,0,0,0,0,0.1v0.1c0,0,0,0.1,0,0.2c0,0.1,0,0.2,0,0.2
		c0,0.1,0,0.2,0.1,0.3c0,0.3,0,0.4,0.1,0.5V52c0,0,0,0.1,0.1,0.1c0,0.1,0,0.2,0,0.3c0,0,0,0.1,0.1,0.1c0,0,0,0.1,0,0.2
		c0,0.1,0,0.1,0,0.2c0,0,0,0.1,0.1,0.1s0,0.1,0,0.1c0,0.2,0,0.3,0.1,0.3c0,0.2,0,0.3,0.1,0.4c0,0.1,0,0.2,0.1,0.4c0,0.1,0,0.1,0,0.2
		c0,0.1,0,0.1,0,0.2c0.1,0.1,0.1,0.1,0.1,0.1s0,0,0,0.1s0,0.1,0,0.1V55v0.1c0,0,0,0,0,0.1s0,0.1,0,0.1s0,0,0,0.1s0,0,0,0s0,0,0,0.1
		s0,0.1,0,0.1l0.1,0.1c0,0,0,0.1,0.1,0.2c0,0.1,0.1,0.2,0.1,0.2v0.1c0,0.1,0,0.1,0,0.1c0.1,0.1,0.1,0.1,0.2,0.3v0.1
		c-0.1,0.1-0.1,0.2,0,0.2c0,0,0,0,0,0.1c0,0,0,0,0,0.1c0,0,0,0.1-0.1,0.1c0,0.1-0.1,0.1-0.1,0.2v0.1v0.1l0.1,0.1
		c0,0.1-0.1,0.1-0.1,0.1l0,0l0,0c0,0-0.1,0.1-0.2,0.2c-0.1,0.1-0.2,0.2-0.2,0.3c0,0,0,0,0,0.1h-0.1v0.1c0,0.1,0,0.1-0.1,0
		c0,0,0,0,0-0.1c0,0,0,0,0-0.1c0,0-0.1,0-0.1,0.1c-0.1,0-0.1,0-0.1,0.1h-0.2c0,0,0,0-0.1-0.1h-0.1h-0.1c0-0.1,0-0.1-0.1-0.1l0,0l0,0
		c0,0,0,0,0-0.1l0,0l0,0c-0.2-0.3-0.2-0.4-0.3-0.4h-0.1c0,0-0.1-0.1-0.1-0.2c0-0.1-0.1-0.1-0.1-0.2c0-0.1,0-0.2-0.1-0.3
		c0-0.1,0-0.2-0.1-0.3c0-0.1-0.1-0.2,0-0.3c0,0,0-0.1-0.1-0.1c0,0,0,0,0-0.1c0,0,0,0,0-0.1S20,56,20,55.9c0-0.2-0.1-0.3-0.1-0.3
		c0-0.3,0-0.4-0.1-0.4c0-0.1,0-0.2-0.1-0.3c0-0.1,0-0.1,0-0.1s0-0.1,0-0.2c0-0.1,0-0.2-0.1-0.3h-0.1v-0.1c0-0.1,0-0.1,0-0.2
		c0-0.1,0-0.1,0-0.2v-0.1v-0.1v-0.1c0-0.1-0.1-0.1-0.1-0.1c0-0.1,0-0.1,0-0.1s0,0,0-0.1v-0.1V53c0-0.1,0-0.1,0-0.1v-0.1
		c0-0.1,0-0.1,0-0.2c-0.1,0-0.1-0.1-0.1-0.1c0-0.1,0-0.3-0.1-0.3c0-0.1,0-0.2-0.1-0.3c0-0.1,0-0.2,0-0.3s0-0.2,0-0.2
		c0-0.1,0-0.2,0-0.3s0-0.1-0.1,0c0,0,0,0-0.1,0V51c0,0,0-0.2-0.1-0.5c-0.1-0.1-0.1-0.2-0.1-0.3c0,0,0-0.1-0.1-0.2v-0.1
		c0-0.1,0-0.1,0-0.2c0-0.1,0-0.2,0-0.2s0-0.1-0.1-0.1v-0.1c0-0.2,0-0.3,0-0.3l0,0l0,0c0,0,0-0.1,0-0.2c0-0.1,0-0.2,0-0.3
		c0,0,0-0.1-0.1-0.1c0-0.1,0-0.1,0-0.1s0-0.1,0-0.2c0-0.1,0-0.1,0-0.2c0,0,0,0-0.1,0c0,0,0,0-0.1,0c0-0.1,0-0.1,0.1-0.1l0,0
		c0,0,0-0.1,0-0.2c0-0.1,0-0.2,0-0.2c0-0.1,0-0.1,0-0.1v-0.1v-0.1c0,0,0-0.1,0-0.2c0-0.1,0-0.2,0-0.2s0-0.1-0.1-0.1v-0.1v-0.1v-0.1
		c0-0.1,0-0.2-0.1-0.3C18,46.1,18,46.2,18,46.4c0,0.1-0.1,0.1-0.1,0.3c0,0.1,0,0.1,0,0.1v0.1c0,0.1,0,0.1,0,0.1
		c-0.1,0-0.1,0.1-0.1,0.3s0,0.3-0.1,0.3c0,0.1,0,0.3,0,0.4l-0.1,0.3c0,0.1-0.1,0.1-0.1,0.1c0,0.1,0,0.1,0,0.2c0,0.4,0,0.6,0,0.8
		L17.3,49c0,0,0,0.1,0,0.2c0,0.1,0,0.2,0,0.2s0,0.1,0,0.2c0,0.1,0,0.2,0,0.2v0.1V50v0.1c0,0.3,0,0.5-0.1,0.5c0,0.1,0,0.4,0,0.7
		c0,0.4,0,0.6,0,0.7c0,0.1,0,0.2,0.1,0.3c-0.1,0-0.1,0.1-0.2,0.2c-0.1,0.1-0.1,0.2-0.2,0.2v0.1l0,0l0,0l0,0c0,0-0.1,0-0.1,0.1
		s-0.1,0.1-0.1,0.2c0,0-0.1,0-0.3,0c0,0,0,0,0,0.1v0.1c0,0-0.1-0.1-0.2-0.2c0,0-0.1,0-0.2,0c-0.1,0-0.1,0-0.1,0
		c-0.1-0.2-0.1-0.3-0.3-0.3c0-0.1-0.1-0.1-0.1-0.2c0-0.1-0.1-0.1-0.1-0.2c-0.1-0.1-0.1-0.1-0.1-0.1L15.1,52c0-0.1,0-0.2-0.1-0.3
		s-0.1-0.2-0.1-0.3c0,0,0,0-0.1-0.1c0,0,0,0,0-0.1v-0.1c0,0-0.1-0.1-0.1-0.2c0-0.1-0.1-0.2-0.1-0.2v-0.1c0,0-0.1-0.1-0.1-0.2
		c-0.1-0.1-0.1-0.2-0.1-0.3c0,0-0.1-0.1-0.1-0.2c-0.1-0.1-0.1-0.2-0.2-0.2c0,0,0,0-0.1-0.1c0-0.1,0-0.2-0.1-0.2c0-0.1,0-0.1-0.1-0.2
		h-0.1c-0.1-0.2-0.1-0.4-0.2-0.4c-0.1-0.2-0.2-0.4-0.3-0.5v-0.1c0,0,0,0,0-0.1l-0.1-0.3c0-0.1-0.1-0.1-0.1-0.1s0-0.1-0.1-0.1
		c0,0,0-0.1-0.1-0.1c0,0,0-0.1-0.1-0.1c0-0.1,0-0.3-0.1-0.4c-0.1-0.1-0.1-0.1-0.1-0.1s0,0-0.1-0.1c0-0.1-0.1-0.1-0.1-0.1
		s0,0.1-0.1,0.1c0,0.1,0,0.3,0,0.6v0.1c0,0.1,0,0.1,0,0.1v0.1c0,0.1,0,0.3,0,0.5s0,0.3,0,0.3c0,0.1,0,0.2,0,0.4s0,0.3,0,0.3
		c0,0.1,0,0.2,0.1,0.3c0,0,0,0,0,0.1c0,0,0,0,0,0.1s0,0.1,0,0.3c0,0.1,0,0.2,0,0.2h0.1h0.1c0,0.1,0,0.1-0.1,0.2
		c-0.1,0.1-0.1,0.1-0.1,0.2v0.1c0,0,0,0,0,0.1s0,0.1-0.1,0.1c0,0.1,0,0.3,0,0.5c0,0.3,0,0.4,0,0.5s0.1,0.2,0.1,0.3
		c0,0,0,0.1-0.1,0.1v0.1c0,0,0,0,0,0.1v0.1c0,0.1,0,0.1,0,0.1s0,0,0,0.1v0.1c0,0.1-0.1,0.1-0.1,0.1v0.1c0,0.1,0,0.1,0,0.2
		c0,0.1,0,0.2,0.1,0.2v0.3v0.1V54v0.1c-0.1,0-0.1,0-0.1,0.1s0,0.1,0.1,0.2c0,0.3,0,0.5,0,0.7s0,0.5,0,0.7c0,0.3,0,0.5,0,0.7v0.1v0.1
		c0,0.1,0,0.1,0,0.1c0,0.1,0,0.2,0,0.4s0,0.3,0,0.4c0,0.1,0.1,0.1,0.1,0.1c-0.1,0.1-0.1,0.1-0.1,0.2s0,0.1,0.1,0.1v0.1
		c0,0,0,0-0.1,0.1c0,0,0,0.1,0.1,0.1c0.1,0.2,0.1,0.3,0,0.4v0.1c0,0,0,0,0,0.1c0,0,0,0,0,0.1c0,0,0,0.1,0.1,0.1v0.1
		c0,0,0,0.1-0.1,0.2c0,0.1,0,0.1,0,0.2c-0.1,0.1-0.1,0.2-0.1,0.3c0,0,0,0.1-0.1,0.1c0,0.1-0.1,0.1-0.1,0.1V60v-0.1c0,0,0,0.1,0,0.3
		c0,0.1,0,0.1-0.1,0.1c0,0,0,0-0.1,0c0,0,0,0,0,0.1s0,0.1,0,0.1c-0.1,0-0.1,0-0.1-0.1s-0.1-0.1-0.1-0.2c0,0,0,0,0,0.1
		c-0.1,0-0.1,0-0.2,0c-0.1-0.1-0.1-0.1-0.1-0.1C11,60,11,60,10.9,60.1c0,0,0-0.1-0.1-0.1c0-0.2-0.1-0.4-0.3-0.5v-0.2
		c0,0-0.1-0.1-0.1-0.2c0-0.1-0.1-0.2-0.1-0.2c0.1-0.3,0.1-0.4,0-0.5c0-0.1,0-0.2,0-0.5c0-0.1,0-0.1,0-0.2c-0.1,0-0.1-0.1-0.1-0.3
		h0.1c0-0.1,0-0.2,0-0.3s0-0.2,0-0.2s0-0.1,0-0.2s0-0.2,0-0.2c0-0.1,0-0.1,0-0.1s0,0,0-0.1v-0.1v-0.1V56c0,0,0-0.2,0-0.4
		c0-0.3,0-0.4,0-0.5s0-0.2,0.1-0.3c-0.1-0.2-0.1-0.4-0.1-0.7c0,0,0-0.1,0.1-0.1v-0.1v-0.1c0-0.1,0-0.1,0-0.2c0,0,0-0.1,0-0.2
		s0-0.2,0-0.2c0-0.1,0-0.1-0.1-0.2v-0.1v-0.1c0-0.1,0-0.3,0-0.5s0-0.4,0-0.6c-0.1-0.1-0.1-0.2,0-0.2c0-0.1,0-0.1,0-0.2
		c0-0.1,0-0.1,0-0.2c0,0,0-0.1,0-0.2c0-0.1,0-0.2,0-0.2v-0.1v-0.1c0-0.1,0-0.2,0-0.3s0-0.3,0-0.5v-0.1v-0.1v-0.1c0,0,0-0.1,0-0.3
		s0-0.3,0-0.4v-0.1c0,0,0,0,0-0.1c-0.1-0.1-0.1-0.1-0.1-0.2v-0.1c0,0,0,0,0-0.1c0,0,0-0.1-0.1-0.1c0-0.5,0-0.8,0-0.8s0,0-0.1,0l0,0
		c0-0.1,0-0.1,0.1-0.2c0-0.1-0.1-0.2,0-0.4c0-0.2,0-0.4,0-0.5c-0.1,0-0.1,0-0.1,0c0-0.1,0.1-0.2,0.1-0.3S10,45.6,10,45.5
		s0.1-0.2,0-0.4c0-0.2,0-0.3,0-0.4c0-0.1-0.1-0.2-0.1-0.4c-0.1-0.1-0.1-0.3-0.1-0.5c-0.1-0.1,0-0.3,0-0.4c0-0.1-0.1-0.2-0.1-0.3V43
		v-0.1v-0.1v-0.1c0,0,0-0.1,0.1-0.1c0-0.2,0.1-0.4,0.2-0.6c0,0,0-0.1,0.1-0.1l0.1-0.1c0-0.1,0-0.1,0-0.3v-0.1c0,0,0-0.1,0-0.2
		c0-0.1,0-0.1,0-0.2c0,0-0.1-0.1-0.2-0.1c0-0.1,0-0.1,0.1-0.2c0-0.1,0-0.3,0-0.5c0-0.3,0-0.4,0-0.4h0.1c0.1,0,0.1,0,0.1-0.1v-0.1
		c0-0.1,0-0.1,0-0.1s0-0.1,0.1-0.1l0.1-0.1c0.2,0,0.3,0,0.3-0.1c0,0,0.1,0,0.2-0.1c0,0,0,0,0.1,0c0,0,0,0,0.1,0h0.1
		c0,0,0.1,0,0.1,0.1s0.1,0.1,0.1,0.1l0,0l0,0c0,0,0,0,0.1,0h0.1c0.1,0.1,0.1,0.2,0.3,0.3v0.1v0.1c0,0,0.1,0,0.1,0.1l0.1,0.1l0.1,0.3
		c0,0.1,0,0.2,0.1,0.4c0,0.1,0,0.1,0,0.1s0,0,0,0.1V41v0.1c0,0,0,0,0,0.1s0,0,0,0.1v0.1c0,0,0,0,0.1,0.1c0,0.1,0,0.1,0.1,0.1
		c0,0.1,0,0.2,0.1,0.3V42c0.2,0.4,0.3,0.7,0.3,0.8c0,0,0.1,0,0.1,0.1V43c0,0.1,0,0.1,0.1,0.2c0,0.1,0,0.1,0.1,0.3c0,0,0,0.1,0.1,0.3
		c0,0,0,0.1,0,0.2c0,0,0,0.1,0.1,0.1c0,0.1,0.1,0.1,0.1,0.1s0,0.1,0.1,0.1c0,0.1,0,0.1,0.1,0.2c0,0.1,0.1,0.1,0.1,0.1v0.1
		c0.2,0.2,0.3,0.3,0.3,0.4v0.1v0.1c0,0,0.1,0.1,0.2,0.3l0,0l0,0v0.1c0,0,0,0.1,0.1,0.1l0.1,0.1V46c0,0,0.1,0.1,0.2,0.2v0.1
		c0,0,0,0,0,0.1l0.1,0.1c0,0.1,0.1,0.2,0.1,0.3c0.1,0.1,0.2,0.1,0.2,0.1c0,0.1,0,0.1,0,0.1s0.1,0.1,0.1,0.2c0.1,0.1,0.1,0.2,0.1,0.3
		c0,0,0,0,0.1,0.1c0,0.1,0.1,0.1,0.1,0.1c0.1-0.2,0.1-0.3,0.1-0.3c0-0.2,0-0.3,0-0.3V47v-0.1c0,0,0-0.1,0-0.3s0-0.3,0-0.3
		c0.1-0.1,0.1-0.2,0.1-0.3c-0.1-0.2-0.1-0.3,0.1-0.4c0.1-0.3,0.2-0.5,0.2-0.5c0-0.1,0-0.4,0.1-0.6c0.1-0.1,0.1-0.2,0.1-0.2
		s0-0.1,0-0.3c0,0,0.1-0.1,0.1-0.2c0-0.1,0.1-0.2,0.1-0.2c0-0.1,0-0.1,0-0.2c0-0.1,0-0.1,0-0.1l0,0l0,0c0,0,0,0,0.1,0
		c0,0,0.1-0.2,0.1-0.5c0-0.1,0.1-0.2,0.1-0.3l0.1-0.1c0-0.2,0-0.3,0-0.3C17,42,17,42,17,41.9c0.1,0,0.1-0.1,0.1-0.3v-0.1v-0.1v-0.1
		v-0.1c0,0,0,0,0-0.1s0-0.1,0-0.2v-0.2c0-0.1,0.1-0.2,0.1-0.3s0-0.2-0.1-0.3c0-0.1,0.1-0.3,0.1-0.6c0-0.1,0.1-0.2,0.2-0.3l0.1-0.1
		c0-0.1,0-0.2,0-0.3l0,0c0,0,0,0,0.1,0c0,0,0,0,0.1-0.1c0.1,0,0.1,0,0.2-0.1c0,0,0.1,0,0.1-0.1l0.1-0.1c0,0,0,0,0.1,0l0.1,0.1h0.1
		h0.1c0,0,0,0,0.1,0.1s0,0,0,0.1c0,0,0,0,0.1,0l0,0c0,0,0.1,0.1,0.1,0.2C18.6,39.1,18.6,39.2,18.7,39.2z M9.9,51.8L9.9,51.8
		L9.9,51.8C10,51.8,10,51.8,9.9,51.8L9.9,51.8z M9.9,51.8L9.9,51.8L9.9,51.8L9.9,51.8C10,51.8,10,51.8,9.9,51.8z M16.8,41
		C16.8,40.9,16.7,40.9,16.8,41C16.8,40.9,16.8,40.9,16.8,41C16.8,40.8,16.8,40.9,16.8,41C16.8,40.9,16.8,41,16.8,41z M16.8,40.8
		C16.8,40.8,16.8,40.9,16.8,40.8C16.8,40.9,16.8,40.9,16.8,40.8C16.8,40.9,16.7,40.9,16.8,40.8C16.7,40.9,16.8,40.9,16.8,40.8z"/>
	<path fill="#2B5799" d="M33.2,38.5L33.2,38.5C33.2,38.6,33.2,38.6,33.2,38.5c0.1,0.1,0.2,0.2,0.4,0.3c0.1,0.2,0.2,0.3,0.3,0.3
		c0,0.1,0.1,0.2,0.2,0.4c0.1,0.1,0.1,0.3,0.1,0.5h0.1c0,0.1,0,0.1-0.1,0.1l-0.1,0.1v0.1v0.1c0,0.1,0,0.2,0,0.3S34,40.9,34,41
		c-0.1,0-0.1,0-0.1,0s0,0.1,0,0.2c0,0.1-0.1,0.1-0.1,0.1l-0.1,0.2c0,0-0.1,0-0.1,0.1c0,0,0,0-0.1,0c0,0,0,0.1-0.1,0.1h-0.1l0,0l0,0
		l0,0c-0.1,0-0.2,0-0.2,0.1c-0.1,0-0.2-0.1-0.3-0.2c-0.1,0-0.1,0-0.2-0.1c-0.1-0.1-0.1-0.1-0.1-0.1s0,0-0.1,0c0,0,0,0-0.1,0
		s-0.1,0-0.3,0s-0.2,0-0.3,0.1c-0.1-0.1-0.2-0.1-0.3,0l0,0l0,0h-0.1h-0.1c0,0-0.1,0-0.3,0c-0.2,0-0.2,0-0.2,0.1v0.1
		c0,0.1,0,0.1,0,0.1s0,0,0,0.1s0,0.1,0,0.1v0.1c0,0.1,0,0.1,0,0.2c0,0,0,0.1,0,0.2c0,0.1,0,0.2,0,0.3s0,0.2,0,0.2
		c0,0.1,0.1,0.1,0.1,0.1c0,0.1,0,0.2-0.1,0.2c0,0.1,0,0.1,0,0.3c0,0.1,0,0.2,0,0.2v0.1V44c0,0.1,0,0.2,0,0.4s0,0.4,0,0.4v0.1V45
		c0,0.1,0,0.2,0,0.3v0.1c0,0.1,0,0.1,0,0.3c0,0.3,0,0.5,0.1,0.5v0.1v0.1c0,0,0,0,0,0.1c0,0,0,0,0,0.1l0,0h-0.1l0,0
		c0,0,0,0.1,0.1,0.1v0.1v0.1c0,0,0,0.1,0,0.2c0,0.1,0,0.2,0,0.3s0,0.1,0,0.1s0,0,0,0.1v0.1c0,0.1,0,0.1,0,0.1c0,0.1,0,0.1,0,0.1V48
		v0.1c0,0.1,0,0.1,0,0.1c0,0.1,0,0.2,0,0.3s0,0.2,0,0.3c0,0,0,0,0.1,0.1V49v0.1c0,0.1,0,0.1,0,0.1s0,0.1,0.1,0.1v0.1v0.1
		c0,0.1,0,0.2,0,0.3s0,0.3,0,0.4c0,0.1,0,0.1,0,0.1s0,0,0,0.1v0.1c0,0,0,0.1,0,0.3c0,0.1,0,0.2,0,0.4c0,0,0,0.1,0,0.2
		c0,0.1,0,0.2,0,0.3l0.1,0.1c0,0.1,0,0.1,0,0.2c0,0.1,0,0.1,0,0.1v0.1c0,0.1,0,0.1,0,0.2c0,0.1,0,0.1,0,0.2c0,0.1,0,0.2,0,0.2
		s0,0.1,0.1,0.3c0,0.1,0,0.1,0,0.1s0,0.1,0,0.3s0,0.2,0,0.3c0,0,0,0.1,0,0.2c0,0.1,0,0.2,0,0.2c0,0.1,0,0.1,0,0.1s0,0,0,0.1l0,0
		c0,0.1,0,0.1,0,0.2c0,0.1,0,0.1,0,0.2v0.1V55v0.1c0,0.1,0,0.2,0.1,0.2c0,0.1,0,0.2,0.1,0.3c0.1,0,0.2,0,0.3,0c0.1,0,0.2,0,0.3,0
		c0,0,0,0,0.1,0c0,0,0-0.1,0.1-0.1c0.2,0,0.2,0,0.3,0.1c0,0,0,0,0.1,0c0,0,0,0,0.1,0s0,0,0.1,0s0.1,0,0.1,0s0,0,0.1,0h0.1
		c0.1,0.1,0.2,0.1,0.3,0h0.1h0.1l0.1-0.1h0.1h0.1v-0.1v-0.1H34c0,0,0,0,0,0.1v0.1c0.1,0,0.1,0,0.1-0.1s0.1-0.1,0.1,0v0.1
		c0.3,0.1,0.6,0.1,0.8,0.1h0.1c0.2,0.1,0.4,0.1,0.4,0l0.1,0.1l0.1,0.1c0.1,0,0.2,0,0.2,0c0,0.1,0,0.2,0.1,0.3s0.1,0.2,0.1,0.3
		c0,0,0,0,0.1,0h0.1c0,0.1,0,0.1,0,0.2c0.2,0.2,0.2,0.4,0.1,0.6v0.1v0.1c0,0.1,0,0.1,0,0.1c0,0.1-0.1,0.1-0.1,0.1
		c0,0.1,0,0.2-0.1,0.3s-0.1,0.2-0.1,0.3c0,0,0,0-0.1,0.1l-0.1,0.1v0.1c-0.2,0-0.2,0.1-0.3,0.1v0.1h-0.1c-0.1,0-0.1,0.1-0.1,0.2h-0.1
		c0-0.2,0-0.2-0.2-0.2c0,0,0,0-0.1,0.1c0,0,0,0-0.1,0s-0.1-0.1-0.1-0.1s-0.1,0-0.1,0.1c-0.1,0-0.2,0-0.4,0s-0.3,0-0.4,0
		c0-0.1,0-0.2-0.1-0.1c0,0,0,0,0,0.1v0.1c0,0-0.1,0-0.2,0s-0.2,0-0.2,0l-0.1-0.1l0,0v0.1l-0.1-0.1c-0.1,0-0.1-0.1-0.2-0.1
		c-0.2,0-0.2,0-0.2,0s-0.1,0.1-0.1,0.2c0,0-0.1,0-0.2,0c-0.1,0-0.1,0-0.1,0v-0.1c0,0,0,0,0-0.1c0,0-0.1,0-0.1,0.1
		c-0.1,0-0.1,0.1-0.1,0.1c-0.1-0.1-0.1-0.1-0.1-0.1S32,58.9,32,59c0,0-0.1,0-0.1-0.1c0,0-0.1,0-0.2,0c-0.2,0-0.3,0-0.3,0.1
		c0,0,0,0-0.1-0.1c-0.2,0.1-0.2,0.2-0.3,0.2c-0.1,0-0.1,0-0.1,0c0-0.1-0.2-0.1-0.3-0.1c-0.1,0-0.1,0-0.1,0l0,0v0.1
		c-0.1,0-0.2,0-0.3,0c-0.1,0-0.2,0-0.2,0.1h-0.1l0,0c0,0,0,0-0.1,0h-0.1c-0.1,0-0.1,0.1-0.2,0.2c0,0-0.1,0-0.2,0s-0.2,0-0.2,0H29
		l0,0v0.1c0,0-0.1,0,0-0.1v-0.1c0,0-0.1,0-0.1,0.1l0,0c0,0,0,0-0.1,0c0,0,0,0-0.1,0c0,0-0.1,0.1-0.1,0.2c-0.2,0.1-0.3,0-0.3-0.1
		c-0.1,0-0.1,0.1-0.2,0.1c0,0.1,0,0.1,0,0.1H28c0,0,0,0-0.1,0c0,0,0,0-0.1-0.1c-0.1,0-0.3,0-0.5,0.1c0,0.3-0.1,0.3-0.2,0.3
		c0,0.1,0,0.1,0,0.1H27h-0.1c0,0,0,0,0-0.1v-0.1l0,0l0,0c0,0,0,0-0.1,0c0,0,0,0-0.1,0s0,0,0,0s0,0-0.1,0c0,0-0.1,0-0.2,0
		s-0.1,0-0.2,0h-0.1c0,0-0.1,0-0.2,0s-0.2,0-0.2,0s0,0-0.1,0c0,0,0,0-0.1,0h-0.1c-0.1,0-0.2,0-0.3,0c0,0,0,0,0,0.1v0.1l0,0
		c0,0,0-0.1,0-0.2c0,0,0,0-0.1,0s-0.1,0-0.1-0.1h-0.1c0-0.2-0.1-0.3-0.2-0.3c0,0.1,0,0.1,0,0.1c-0.1,0-0.1,0-0.1,0
		c0-0.1,0-0.2-0.1-0.4c-0.1-0.1-0.2-0.2-0.2-0.3c0,0,0-0.1,0-0.2c0-0.1,0-0.2,0-0.2c0-0.3,0-0.4,0-0.5c0,0,0-0.1,0.1-0.2
		c0-0.1,0-0.2,0-0.3c0,0,0,0,0.1,0s0,0,0.1,0c0.1-0.2,0.2-0.4,0.4-0.5c0.4,0,0.9,0,1.4,0c0-0.1,0.1-0.1,0.1-0.1c0.1,0,0.1,0,0.1,0.1
		h0.1l0.1-0.1c0,0,0.1,0,0.1,0.1c0.1,0,0.1,0,0.1,0s0,0,0.1-0.1l0.1-0.1c0,0,0,0,0.1,0.1l0.1,0.1c0,0,0.1,0,0.1-0.1h0.1
		c0.1-0.1,0.2-0.2,0.3-0.2c0,0,0.1-0.1,0.3-0.1c0,0,0,0,0.1,0h0.1c0.1,0,0.1,0,0.1,0s0,0,0.1,0c0,0,0.1,0,0.1-0.1c0,0,0,0,0.1,0h0.1
		c0,0,0-0.1,0.1-0.1c0,0,0.1,0,0.2,0s0.2,0,0.2-0.1c0,0,0,0,0-0.1c0,0,0,0,0-0.1c0,0,0.2,0,0.5,0c0.1-0.1,0.1-0.2,0-0.4
		c0-0.3,0-0.6-0.1-0.7c0,0,0-0.1,0-0.2c0-0.1,0-0.1,0-0.2c0-0.1,0-0.1,0-0.1s0,0,0-0.1v-0.1v-0.1c0-0.1,0-0.1,0-0.1
		c-0.1-0.1-0.1-0.3-0.1-0.5c0-0.1,0-0.3,0-0.6s0-0.5,0-0.6c0,0,0,0-0.1-0.1l0,0c0,0,0,0,0-0.1v-0.1c0.1,0,0.1-0.1,0.1-0.1
		c0-0.1,0-0.1,0-0.1c0-0.1,0-0.2,0-0.4s0-0.3,0-0.3c0-0.1,0-0.1,0-0.2c0-0.1,0-0.1,0-0.2s0-0.1,0-0.1c0-0.1,0-0.1,0-0.1s0-0.1,0-0.2
		c0-0.1,0-0.2,0-0.2s0,0-0.1,0c0-0.1,0-0.2,0-0.3s0-0.2,0-0.5s0-0.5,0-0.6v-0.1v-0.1c0,0,0,0,0-0.1v-0.1v-0.1c0-0.1,0-0.1,0-0.1
		s0,0,0-0.1c0,0,0,0,0-0.1c0,0-0.1-0.2-0.1-0.5c-0.1,0-0.1-0.2-0.1-0.5h0.1l0,0c0,0,0,0-0.1,0l0,0c0,0,0-0.1,0-0.2c0,0,0,0,0.1,0
		c0-0.1,0-0.2,0-0.3s0-0.3,0-0.4c0-0.1-0.1-0.2-0.1-0.2v-0.2c0,0,0,0,0.1,0c0,0,0-0.1,0-0.2c0-0.1,0-0.3,0-0.5s0-0.3-0.1-0.3
		c0,0,0,0,0-0.1s0-0.1,0-0.1s0,0,0-0.1s0-0.1,0-0.1c0-0.1,0-0.1,0.1-0.1c0-0.1,0-0.2,0-0.2s0-0.1-0.1-0.4v-0.1c0,0,0,0,0-0.1l0,0
		c0,0,0,0,0-0.1v-0.1v-0.1V43c0-0.1,0-0.1,0-0.1c0-0.1,0-0.2-0.1-0.3c0-0.1,0-0.2-0.1-0.3c0-0.1-0.1-0.2-0.1-0.3h-0.1v0.1
		c0-0.1-0.1-0.1-0.2,0V42v-0.1h-0.1V42v0.1c0,0,0,0-0.1,0c0,0,0,0-0.1,0s0,0-0.1,0h-0.1l0,0l0,0c0,0-0.1,0.1-0.1,0.2H28v-0.1
		c0-0.1-0.1-0.1-0.2,0v0.1l0,0c0,0,0,0-0.1,0c0,0,0,0-0.1,0s-0.2,0-0.3,0c-0.1,0-0.2,0-0.3,0c-0.2,0-0.2,0-0.3,0
		c-0.1-0.1-0.2-0.1-0.2,0c-0.1,0-0.1,0-0.2,0s-0.1,0-0.2,0s-0.1,0-0.3,0c-0.1,0-0.2,0-0.3,0c0,0,0,0-0.1,0.1l0,0v-0.1
		c0,0.1,0,0.1-0.1,0.1s-0.1-0.1-0.1-0.1s0,0-0.1,0c0,0,0-0.1-0.1-0.1c0,0,0-0.1-0.1-0.1c-0.2,0.1-0.3,0-0.4-0.2c0,0-0.1-0.1-0.2-0.2
		c-0.1-0.1-0.1-0.2-0.2-0.2s-0.1,0-0.2-0.1c0-0.1-0.1-0.1-0.1-0.3c-0.1-0.2-0.2-0.3-0.3-0.4c0-0.1,0-0.2-0.1-0.3c0,0,0-0.1,0.1-0.2
		c0-0.2,0.1-0.4,0.3-0.8c0.1,0,0.1-0.1,0.2-0.2c0,0,0,0,0.1,0s0.1,0,0.1,0s0,0,0.1-0.1s0-0.1,0.1-0.1c0,0,0.1,0,0.2,0s0.2,0,0.2,0
		s0-0.1,0.1-0.1l0.1-0.1c0,0,0.1,0,0.2,0.1s0.1,0.1,0.2,0.1c0,0,0,0,0.1,0h0.1c0.1,0,0.2,0,0.3,0c0.1,0,0.2,0,0.3,0
		c0.1,0,0.2,0,0.2-0.1c0.1,0.1,0.2,0.1,0.3,0c0,0,0,0,0.1,0c0,0,0,0,0.1,0s0,0,0.1,0c0,0,0,0,0-0.1c0.1,0,0.2,0,0.3,0s0.2,0,0.2-0.1
		c0.1,0.1,0.2,0.1,0.4,0c0,0,0,0,0-0.1c0,0,0,0,0.1-0.1c0.1,0,0.2,0,0.3,0s0.2,0,0.3,0c0.1,0,0.1-0.1,0.1-0.2c0,0,0.1,0,0.2,0.1
		c0,0,0,0,0.1,0c0.4,0,0.7,0,0.8-0.1c0,0,0.1,0,0.2,0l0,0l0,0c0.1-0.1,0.1-0.1,0.3-0.1s0.2,0,0.3,0c0-0.1,0.1-0.1,0.1-0.1h0.2
		c0,0,0,0,0.1,0h0.1h0.1c0.2,0,0.3,0,0.4-0.1l0.1,0.1c0.2-0.2,0.3-0.2,0.4,0c0,0,0.1,0,0.2,0c0.1,0,0.2,0,0.2,0h0.1h0.1h0.1
		c0,0,0.1,0,0.2,0c0.1,0,0.2,0,0.3,0C33.1,38.5,33.2,38.4,33.2,38.5z M33,38.6c0.1-0.1,0.1-0.1,0.2-0.1v0.1l0,0
		c0.1,0,0.2,0.1,0.4,0.2c0.1,0.2,0.2,0.3,0.3,0.3c0,0.1,0.1,0.2,0.2,0.4c0.1,0.1,0.1,0.3,0.1,0.5h0.1c0,0.1,0,0.1-0.1,0.1l-0.1,0.1
		v0.1v0.1c0,0.1,0,0.2,0,0.3S34,40.9,34,41c-0.1,0-0.1,0-0.1,0s0,0.1,0,0.2c0,0.1-0.1,0.1-0.1,0.1l-0.1,0.2c0,0-0.1,0-0.1,0.1
		c0,0,0,0-0.1,0c0,0,0,0.1-0.1,0.1h-0.1l0,0l0,0l0,0c-0.1,0-0.2,0-0.2,0.1c-0.1,0-0.2-0.1-0.3-0.2c-0.1,0-0.1,0-0.2-0.1
		c-0.1-0.1-0.1-0.1-0.1-0.1s0,0-0.1,0c0,0,0,0-0.1,0s-0.1,0-0.3,0s-0.2,0-0.3,0.1c-0.1-0.1-0.2-0.1-0.3,0l0,0l0,0h-0.1h-0.1
		c0,0-0.1,0-0.3,0c-0.2,0-0.2,0-0.2,0.1v0.1c0,0.1,0,0.1,0,0.1s0,0,0,0.1s0,0.1,0,0.1v0.1c0,0.1,0,0.1,0,0.2c0,0,0,0.1,0,0.2
		c0,0.1,0,0.2,0,0.3s0,0.2,0,0.2c0,0.1,0.1,0.1,0.1,0.1c0,0.1,0,0.2-0.1,0.2c0,0.1,0,0.1,0,0.3c0,0.1,0,0.2,0,0.2v0.1V44
		c0,0.1,0,0.2,0,0.4s0,0.4,0,0.5s0.1,0.1,0.1,0.2c0,0.1,0,0.2,0,0.3v0.1c0,0.1,0,0.1,0,0.3c0,0.3,0,0.5,0.1,0.5v0.1v0.1
		c0,0,0,0,0,0.1c0,0,0,0,0,0.1l0,0h-0.1c0,0.1,0,0.1,0.1,0.2V47v0.1c0,0,0,0.1,0,0.2c0,0.1,0,0.2,0,0.3s0,0.1,0,0.1s0,0,0,0.1v0.1
		c0,0.1,0,0.1,0,0.1c0,0.1,0,0.1,0,0.1v0.1v0.1c0,0.1,0,0.1,0,0.1c0,0.1,0,0.2,0,0.3s0,0.2,0,0.3c0,0,0,0,0.1,0.1v0.1v0.1
		c0,0.1,0,0.1,0,0.1s0,0.1,0.1,0.1v0.1v0.1c0,0.1,0,0.2,0,0.3s0,0.3,0,0.4c0,0.1,0,0.1,0,0.1s0,0,0,0.1v0.1c0,0,0,0.1,0,0.3
		c0,0.1,0,0.2,0,0.4c0,0,0,0.1,0,0.2c0,0.1,0,0.2,0,0.3l0.1,0.1c0,0.1,0,0.1,0,0.2c0,0.1,0,0.1,0,0.1v0.1c0,0.1,0,0.1,0,0.2
		c0,0.1,0,0.1,0,0.2c0,0.1,0,0.2,0,0.2s0,0.1,0.1,0.3c0,0.1,0,0.1,0,0.1s0,0.1,0,0.3s0,0.2,0,0.3c0,0,0,0.1,0,0.2c0,0.1,0,0.2,0,0.2
		c0,0.1,0,0.1,0,0.1s0,0,0,0.1l0,0c0,0.1,0,0.1,0,0.2c0,0.1,0,0.1,0,0.2v0.1v0.1v0.1c0,0.1,0,0.2,0.1,0.2c0,0.1,0,0.2,0.1,0.3
		c0.1,0,0.2,0,0.3,0c0.1,0,0.2,0,0.3,0c0,0,0,0,0.1,0c0,0,0-0.1,0.1-0.1c0.2,0,0.2,0,0.3,0.1c0,0,0,0,0.1,0c0,0,0,0,0.1,0s0,0,0.1,0
		s0.1,0,0.1,0s0,0,0.1,0h0.1c0.1,0.1,0.2,0.1,0.3,0h0.1h0.1l0.1-0.1h0.1H34c0-0.1,0-0.1,0-0.1h0.1c0,0,0,0,0,0.1v0.1
		c0.1,0,0.1,0,0.1-0.1s0.1-0.1,0.1,0v0.1c0.3,0.1,0.6,0.1,0.8,0.1h0.1c0.2,0.1,0.4,0.1,0.4,0l0.1,0.1l0.1,0.1c0.1,0,0.2,0,0.2,0
		c0,0.1,0,0.2,0.1,0.3s0.1,0.2,0.1,0.3c0,0,0,0,0.1,0h0.1c0,0.1,0,0.1,0,0.2c0.2,0.2,0.2,0.4,0.1,0.5v0.1v0.1c0,0.1,0,0.1,0,0.1
		c0,0.1-0.1,0.1-0.1,0.1c0,0.1,0,0.2-0.1,0.3s-0.1,0.2-0.1,0.3c0,0,0,0-0.1,0.1L36,58.6v0.1c-0.2,0-0.2,0.1-0.3,0.1v0.1h-0.1
		c-0.1,0-0.1,0.1-0.1,0.2h-0.1c0-0.2,0-0.2-0.2-0.2c0,0,0,0-0.1,0.1c0,0,0,0-0.1,0s-0.1-0.1-0.1-0.1s-0.1,0-0.1,0.1
		c-0.1,0-0.2,0-0.4,0s-0.3,0-0.4,0c0-0.1,0-0.2-0.1-0.2v0.1V59c0,0-0.1,0-0.2,0s-0.2,0-0.2,0l-0.1-0.1l0,0V59l-0.1-0.1
		c-0.1,0-0.1-0.1-0.2-0.1c-0.2,0-0.2,0-0.2,0s-0.1,0.1-0.1,0.2c0,0-0.1,0-0.2,0c-0.1,0-0.1,0-0.1,0v-0.1c0,0,0,0,0-0.1
		c0,0-0.1,0-0.1,0.1c-0.1,0-0.1,0.1-0.1,0.1c-0.1-0.1-0.1-0.1-0.1-0.1s-0.1,0.1-0.1,0.2c0,0-0.1,0-0.1-0.1c0,0-0.1,0-0.2,0
		c-0.2,0-0.3,0-0.3,0.1c0,0,0,0-0.1-0.1c-0.2,0.1-0.2,0.2-0.3,0.2c-0.1,0-0.1,0-0.1,0c0-0.1-0.2-0.1-0.3-0.1c-0.1,0-0.1,0-0.1,0l0,0
		v0.1c-0.1,0-0.2,0-0.3,0c-0.1,0-0.2,0-0.2,0.1H30l0,0c0,0,0,0-0.1,0h-0.1c-0.1,0-0.1,0.1-0.2,0.2c0,0-0.1,0-0.2,0s-0.2,0-0.2,0
		h-0.1l0,0v0.1c0,0-0.1,0,0-0.1v-0.1c0,0-0.1,0-0.1,0.1l0,0c0,0,0,0-0.1,0c0,0,0,0-0.1,0c0,0-0.1,0.1-0.1,0.2
		c-0.2,0.1-0.3,0-0.3-0.1c-0.1,0-0.1,0.1-0.2,0.1c0,0.1,0,0.1,0,0.1h-0.1c0,0,0,0-0.1,0c0,0,0,0-0.1-0.1c-0.1,0-0.3,0-0.5,0.1
		C27.3,60,27.2,60,27.1,60c0,0.1,0,0.1,0,0.1H27h-0.1c0,0,0,0,0-0.1v-0.1l0,0l0,0c0,0,0,0-0.1,0c0,0,0,0-0.1,0s0,0,0,0s0,0-0.1,0
		c0,0-0.1,0-0.2,0s-0.1,0-0.2,0h-0.1c0,0-0.1,0-0.2,0s-0.2,0-0.2,0s0,0-0.1,0c0,0,0,0-0.1,0h-0.1c-0.1,0-0.2,0-0.3,0c0,0,0,0,0,0.1
		v0.1l0,0c0,0,0,0,0-0.1c0,0,0,0-0.1,0s-0.1,0-0.1-0.1h-0.1c0-0.2-0.1-0.3-0.2-0.3c0,0.1,0,0.1,0,0.1c-0.1,0-0.1,0-0.1,0
		c0-0.1,0-0.2-0.1-0.4c-0.1-0.1-0.2-0.2-0.2-0.3c0,0,0-0.1,0-0.2c0-0.1,0-0.2,0-0.2c0-0.3,0-0.4,0-0.5c0,0,0-0.1,0.1-0.2
		c0-0.1,0-0.2,0-0.3c0,0,0,0,0.1,0s0,0,0.1,0c0.1-0.2,0.2-0.4,0.4-0.5c0.4,0,0.9,0,1.4,0c0-0.1,0.1-0.1,0.1-0.1c0.1,0,0.1,0,0.1,0.1
		h0.1l0.1-0.1c0,0,0.1,0,0.1,0.1c0.1,0,0.1,0,0.1,0s0,0,0.1-0.1l0.1-0.1c0,0,0,0,0.1,0.1l0.1,0.1c0,0,0.1,0,0.1-0.1h0.1
		c0.1-0.1,0.2-0.2,0.3-0.2c0,0,0.1-0.1,0.3-0.1c0,0,0,0,0.1,0h0.1c0.1,0,0.1,0,0.1,0s0,0,0.1,0c0,0,0.1,0,0.1-0.1c0,0,0,0,0.1,0h0.1
		c0,0,0-0.1,0.1-0.1c0,0,0.1,0,0.2,0s0.2,0,0.2-0.1c0,0,0,0,0-0.1c0,0,0,0,0-0.1c0,0,0.2,0,0.5,0c0.1-0.1,0.1-0.2,0-0.4
		c0-0.3,0-0.6-0.1-0.7c0,0,0-0.1,0-0.2c0-0.1,0-0.1,0-0.2c0-0.1,0-0.1,0-0.1s0,0,0-0.1v-0.1v-0.1c0-0.1,0-0.1,0-0.1
		c-0.1-0.1-0.1-0.3-0.1-0.5c0-0.1,0-0.3,0-0.6s0-0.5,0-0.6c0,0,0,0-0.1-0.1l0,0c0,0,0,0,0-0.1v-0.1c0.1,0,0.1-0.1,0.1-0.1
		c0-0.1,0-0.1,0-0.1c0-0.1,0-0.2,0-0.4s0-0.3,0-0.3c0-0.1,0-0.1,0-0.2c0-0.1,0-0.1,0-0.2s0-0.1,0-0.1c0-0.1,0-0.1,0-0.1s0-0.1,0-0.2
		c0-0.1,0-0.2,0-0.2s0,0-0.1,0c0-0.1,0-0.2,0-0.3s0-0.2,0-0.5s0-0.5,0-0.6v-0.1v-0.1c0,0,0,0,0-0.1v-0.1v-0.1c0-0.1,0-0.1,0-0.1
		s0,0,0-0.1c0,0,0,0,0-0.1c0,0-0.1-0.2-0.1-0.5c-0.1,0-0.1-0.2-0.1-0.5h0.1l0,0c0,0,0,0-0.1,0l0,0c0,0,0-0.1,0-0.2c0,0,0,0,0.1,0
		c0-0.1,0-0.2,0-0.3s0-0.3,0-0.4c0-0.1-0.1-0.2-0.1-0.2v-0.2c0,0,0,0,0.1,0c0,0,0-0.1,0-0.2c0-0.1,0-0.3,0-0.5s0-0.3-0.1-0.3
		c0,0,0,0,0-0.1s0-0.1,0-0.1s0,0,0-0.1s0-0.1,0-0.1c0-0.1,0-0.1,0.1-0.1c0-0.1,0-0.2,0-0.2s0-0.2-0.1-0.4v-0.1c0,0,0,0,0-0.1l0,0
		c0,0,0,0,0-0.1v-0.1v-0.1v-0.1c0-0.1,0-0.1,0-0.1c0-0.1,0-0.2-0.1-0.3c0-0.1,0-0.2-0.1-0.3c0-0.1-0.1-0.2-0.1-0.3h-0.1v0.1
		c0-0.1-0.1-0.1-0.2,0v-0.1V42h-0.1v0.1v0.1c0,0,0,0-0.1,0c0,0,0,0-0.1,0s0,0-0.1,0h-0.1l0,0l0,0c0,0-0.1,0.1-0.1,0.2H28v-0.1
		c0-0.1-0.1-0.1-0.2,0v0.1l0,0c0,0,0,0-0.1,0c0,0,0,0-0.1,0s-0.2,0-0.3,0c-0.1,0-0.2,0-0.3,0c-0.2,0-0.2,0-0.3,0
		c-0.1-0.1-0.2-0.1-0.2,0c-0.1,0-0.1,0-0.2,0s-0.1,0-0.2,0s-0.1,0-0.3,0c-0.1,0-0.2,0-0.3,0l0,0c0,0,0,0,0,0.1l0,0v-0.1
		c0,0.1,0,0.1-0.1,0.1s-0.1-0.1-0.1-0.1s0,0-0.1,0c0,0,0-0.1-0.1-0.1c0,0,0-0.1-0.1-0.1c-0.2,0.1-0.3,0-0.4-0.2c0,0-0.1-0.1-0.2-0.2
		c-0.1-0.1-0.1-0.2-0.2-0.2s-0.1,0-0.2-0.1c0-0.1-0.1-0.1-0.1-0.3c-0.1-0.2-0.2-0.3-0.3-0.4c0-0.1,0-0.2-0.1-0.3c0,0,0-0.1,0.1-0.2
		c0-0.2,0.1-0.4,0.3-0.8c0.1,0,0.1-0.1,0.2-0.2c0,0,0,0,0.1,0s0.1,0,0.1,0s0,0,0.1-0.1s0-0.1,0.1-0.1c0,0,0.1,0,0.2,0s0.2,0,0.2,0
		s0-0.1,0.1-0.1l0.1-0.1c0,0,0.1,0,0.2,0.1s0.1,0.1,0.2,0.1c0,0,0,0,0.1,0h0.1c0.1,0,0.2,0,0.3,0c0.1,0,0.2,0,0.3,0
		c0.1,0,0.2,0,0.2-0.1c0.1,0.1,0.2,0.1,0.3,0c0,0,0,0,0.1,0c0,0,0,0,0.1,0s0,0,0.1,0c0,0,0,0,0-0.1c0.1,0,0.2,0,0.3,0s0.2,0,0.2-0.1
		c0.1,0.1,0.2,0.1,0.4,0v-0.1c0,0,0,0,0.1,0s0.2,0,0.3,0s0.2,0,0.3,0c0.1,0,0.1-0.1,0.1-0.2c0,0,0.1,0,0.2,0.1c0,0,0,0,0.1,0
		c0.4,0,0.7,0,0.8-0.1c0,0,0.1,0,0.2,0l0,0l0,0c0.1-0.1,0.1-0.1,0.3-0.1s0.2,0,0.3,0c0-0.1,0.1-0.1,0.1-0.1H31c0,0,0,0,0.1,0h0.1
		h0.1c0.2,0,0.3,0,0.4-0.1l0.1,0.1c0.2-0.2,0.3-0.2,0.4,0c0,0,0.1,0,0.2,0c0.1,0,0.2,0,0.2,0c0.1,0,0.1-0.1,0.1-0.1h0.1h0.1
		c0,0,0.1,0,0.2,0C32.9,38.6,33,38.6,33,38.6z"/>
	<path fill="#2B5799" d="M38.7,39.7C38.8,39.8,38.8,39.8,38.7,39.7c0.1,0,0.2,0,0.3,0s0.2,0,0.2,0s0,0,0.1,0h0.1h0.1h0.1
		c0,0,0.1,0,0.2,0s0.2,0,0.2,0h0.1h0.1h0.1c0,0,0.1,0,0.1-0.1c0.3,0,0.4,0.1,0.5,0.1c0,0,0.1,0,0.2,0h0.1h0.1c0.1,0,0.1,0,0.2,0h0.1
		h0.1c0.1,0,0.1,0,0.1,0s0,0,0.1,0H42c0,0,0,0,0.1,0h0.1c0.1,0,0.1,0,0.1,0s0,0.1,0.1,0.1c0,0,0,0,0.1,0h0.1c0.1,0,0.1,0,0.2,0
		c0.1,0,0.2,0,0.2,0l0.1,0.1c0.1,0,0.1,0,0.2-0.1l0,0l0,0c0.1,0,0.2,0,0.4,0.1s0.3,0.1,0.5,0c0.1-0.1,0.1-0.1,0.1-0.1v0.1
		c0.1,0.1,0.1,0.1,0.1,0.1h0.1c0.1,0,0.1,0,0.1,0s0,0,0.1,0c0.1,0.1,0.1,0.1,0.1,0c0,0.1,0.1,0.1,0.1,0.1c0.1-0.1,0.1,0,0.2,0
		c0.1-0.1,0.1-0.1,0.3-0.1v0.1c0,0,0.1,0.1,0.4,0.1c0,0.1,0.1,0.1,0.2,0.1c0.1,0,0.2,0.1,0.2,0.1h0.1c0.3,0.3,0.5,0.5,0.6,0.7H47
		c0,0.1,0.1,0.2,0.1,0.3c0.1,0,0.1,0.1,0.2,0.1c0,0.1,0.1,0.1,0.2,0.2c0.1,0.1,0.1,0.1,0.1,0.2c0,0.1,0,0.1,0.1,0.2
		c0,0.1,0.1,0.1,0.1,0.2c0.1,0.1,0.1,0.2,0.1,0.2c0,0.1,0,0.1,0,0.1s0,0,0,0.1s0,0.1,0.1,0.1c0,0.2,0,0.3,0,0.3s0,0,0,0.1v0.1
		c0,0,0,0.1,0,0.2c0,0.1,0,0.2,0.1,0.2l0,0l0,0v0.1c0,0,0,0-0.1,0c0,0.1,0,0.1,0,0.2c0,0.1,0,0.2,0,0.2v0.1c0,0.1,0,0.2,0,0.4
		s0,0.3,0,0.3c0,0.1-0.1,0.1-0.1,0.2c0,0.1,0,0.2,0,0.2c-0.1,0.1-0.1,0.1-0.1,0.1c0,0.1,0,0.1-0.1,0.2c0,0.1,0,0.1,0,0.1
		c-0.1,0.1-0.1,0.2-0.1,0.3c0,0-0.1,0.1-0.1,0.2c-0.1,0.1-0.1,0.2-0.1,0.3v0.1v0.1v0.1c-0.2,0.1-0.3,0.4-0.3,0.7l0,0l0,0
		c0,0-0.1,0.1-0.1,0.2c-0.2,0.3-0.3,0.4-0.4,0.5c-0.1,0.1-0.2,0.1-0.2,0.3c-0.2,0.2-0.4,0.4-0.5,0.6c-0.1,0-0.1,0.1-0.2,0.2
		l-0.1,0.1c-0.1,0.1-0.1,0.1-0.1,0.1c-0.1,0.1-0.2,0.1-0.2,0.2c0,0.1,0,0.1,0,0.1l0.1,0.1l0.1,0.1l0.1,0.1c0,0,0,0,0,0.1
		c0,0,0,0,0.1,0s0.1,0,0.1,0s0,0,0.1,0.1l0.1,0.1c0,0,0,0,0.1,0v0.1h0.1c0.1,0.1,0.1,0.1,0.2,0.1c0,0.1,0.1,0.1,0.2,0.2
		c0.1,0.1,0.1,0.1,0.2,0.2h0.1c0,0,0,0,0.1,0.1c0,0,0,0.1,0.1,0.1H47c0,0,0,0.1,0.1,0.1c0.1,0.1,0.1,0.2,0.2,0.2
		c0,0.1,0.1,0.1,0.2,0.1c0.1,0.2,0.2,0.3,0.3,0.2c0,0,0,0.1,0.1,0.2c0.2,0.1,0.3,0.3,0.4,0.5h0.1c0.2,0.2,0.3,0.3,0.3,0.3
		c0,0.1,0.1,0.1,0.2,0.1s0.1,0.1,0.1,0.2c0,0,0.1,0,0.1,0.1c0.1,0.1,0.1,0.1,0.1,0.1c0.1,0.1,0.2,0.2,0.3,0.4
		c0.2,0.2,0.3,0.3,0.3,0.4H50c0,0,0.1,0,0.1,0.1s0.1,0.1,0.1,0.1s0,0,0.1,0c0,0,0,0,0.1,0c0,0.1,0.1,0.2,0.3,0.3
		c0.1,0.1,0.1,0.1,0.2,0c0.1,0,0.2,0,0.2,0c0.1,0.1,0.2,0.1,0.2,0.1c0-0.1,0.1-0.1,0.1-0.1s0,0,0.1,0.1c0.1-0.1,0.2,0,0.3,0.1
		s0.1,0.2,0.1,0.2v0.1H52c0,0,0,0.1,0.1,0.2c0,0.1,0.1,0.2,0.1,0.2v0.2v0.1V56l0.1,0.1c0.1,0.1,0.1,0.1,0.1,0.1s0,0.1,0,0.2
		c0,0.3,0,0.4,0,0.4s0,0.1,0.1,0.2c0,0.1,0,0.2,0,0.4s0,0.3,0,0.4H52l-0.1,0.1c0,0.1-0.1,0.1-0.1,0.1s0,0,0,0.1c0,0-0.1,0-0.1,0.1
		s0.1,0.1,0,0.1c0,0,0,0.1-0.1,0.1s-0.1,0-0.1,0.1v0.1c0,0,0,0,0,0.1s-0.1,0.1-0.1,0s-0.1-0.1-0.1-0.1s-0.1,0-0.1,0.1
		c-0.1,0.1-0.1,0.1-0.2,0.1c0,0.3-0.1,0.2-0.2,0.2c0,0,0,0-0.1,0c0,0,0,0-0.1,0c0-0.1,0-0.2-0.1-0.2c0,0,0,0-0.1,0l0,0
		c0,0,0,0,0-0.1s-0.1-0.1-0.1-0.2c0,0,0,0-0.1,0h-0.1c-0.1-0.2-0.2-0.3-0.3-0.4h-0.1c0,0-0.1-0.1-0.1-0.2c-0.1-0.1-0.2-0.2-0.3-0.2
		l-0.1-0.1c0-0.1-0.1-0.1-0.1-0.1c0,0.1-0.1,0.1-0.1,0.1s0,0,0-0.1s0-0.1,0-0.1s-0.1,0-0.1-0.1l-0.1-0.1c0-0.1-0.1-0.2-0.2-0.1
		c0-0.1,0-0.1,0-0.1c-0.1-0.1-0.2-0.3-0.2-0.3s-0.2-0.1-0.4-0.4l0,0l0,0c0-0.1,0-0.2-0.1-0.3c-0.1,0-0.2-0.1-0.3-0.3c0,0,0,0-0.1,0
		c0,0,0,0-0.1,0c0,0,0,0,0-0.1s0-0.1,0-0.1s0,0-0.1,0c0,0,0,0-0.1,0c0,0-0.1-0.1-0.1-0.2c0-0.1-0.1-0.1-0.1-0.1s0-0.1-0.1-0.1
		L46.8,55c-0.1,0-0.1-0.1-0.2-0.2c-0.1-0.1-0.2-0.2-0.2-0.2h-0.1c0-0.1-0.1-0.2-0.2-0.2c0-0.1-0.1-0.1-0.2-0.3c0,0,0,0-0.1,0V54l0,0
		l0,0c0,0,0,0-0.1-0.1h-0.1c-0.1,0-0.1,0-0.1,0s0,0-0.1-0.1c0-0.1-0.1-0.1-0.1-0.1c-0.1,0.1-0.1,0.1-0.1,0c0,0,0,0,0-0.1v-0.1
		c0,0,0,0-0.1,0c0,0,0,0-0.1,0v-0.1v-0.1h-0.1l-0.1-0.1c0,0-0.1,0-0.1-0.1c-0.1-0.1-0.1-0.1-0.1,0c0-0.1-0.1-0.1-0.1-0.1l-0.1-0.1
		c-0.1,0-0.1,0-0.2-0.1c-0.1,0-0.2-0.1-0.2-0.2c0,0-0.1,0-0.2,0.1l0,0v-0.1c0,0-0.1,0-0.2,0c0,0,0,0,0-0.1c0,0,0,0,0-0.1
		c-0.2-0.2-0.3-0.2-0.4-0.2C43.1,52.1,43,52,42.9,52c0,0-0.1-0.1-0.2-0.1c0,0,0,0-0.1-0.1c0,0-0.1,0.1-0.1,0.3s0,0.3,0,0.4v0.1v0.1
		c0,0,0,0,0,0.1s0,0.1,0,0.1c0,0.4,0,0.6,0.1,0.6v0.3v0.1c0,0,0,0.1,0.1,0.2c0,0.1,0,0.1,0,0.2c0,0.1,0,0.1,0,0.1s0,0.1,0.1,0.1
		c0,0.1,0,0.1,0.1,0.1c0,0.1,0,0.2,0,0.3s0,0.2,0,0.3c0,0,0,0,0,0.1s0,0,0,0.1c0,0.2,0,0.4,0,0.4c0,0.1,0,0.2,0.1,0.3
		c0,0,0,0.1,0,0.3s0,0.3,0,0.3s0,0,0.1,0v0.1c0,0.1,0,0.1-0.1,0.2v0.1c0,0,0,0.1,0,0.3c0,0.1,0,0.3,0,0.5c0,0.3,0,0.4,0,0.5v0.1l0,0
		c0,0,0,0,0,0.1s0,0.1-0.1,0.2c0,0.1-0.1,0.1-0.1,0.2h-0.1c-0.2,0.1-0.2,0.2-0.2,0.3l0,0l0,0c0,0,0,0,0,0.1l0,0c0,0,0,0,0-0.1
		c0,0-0.1,0-0.2,0C42,60,41.9,60,41.9,60c0-0.1,0-0.2-0.1-0.2s-0.2-0.1-0.3-0.3h-0.1h-0.1c0-0.1,0-0.3-0.1-0.3
		C41.1,59,41,58.9,41,58.9l0,0l0,0c0-0.1,0-0.2,0.1-0.2c0-0.1,0-0.1,0-0.2c0-0.1,0-0.1,0-0.1v-0.1c0,0,0-0.1-0.1-0.1c0,0,0,0-0.1,0
		c0,0,0-0.1,0.1-0.1c0.1-0.3,0-0.4,0-0.4v-0.4c0-0.1,0.1-0.2,0.1-0.3s0-0.2-0.1-0.3c0-0.1,0-0.2,0-0.4s0-0.3,0-0.3
		c0-0.1,0-0.1-0.1-0.1c0-0.1,0-0.2,0-0.3c0-0.2,0-0.3-0.1-0.3c0-0.1,0-0.1,0-0.2c0-0.1,0-0.2,0-0.2v-0.1c0-0.1,0-0.1,0-0.1
		c0-0.1,0-0.2,0-0.3s0-0.3,0-0.3c0-0.1,0-0.1-0.1-0.2c0-0.1,0-0.1-0.1-0.2c0-0.1,0-0.2,0-0.4s0-0.3,0-0.3c0-0.1,0-0.2-0.1-0.3
		c0,0,0-0.2,0-0.5v-0.1V52v-0.1c0-0.1,0-0.1,0-0.1v-0.1l0,0c0-0.1,0-0.2,0-0.3s0-0.2,0-0.3c0,0,0-0.1-0.1-0.2c0-0.1,0-0.1,0-0.3
		s0-0.2,0-0.3c0,0,0-0.1,0-0.2c0-0.1,0-0.1,0-0.1v-0.1v-0.1c0-0.1,0-0.1,0-0.1v-0.1v-0.1c0-0.1-0.1-0.1-0.1-0.1c0-0.1,0-0.1,0-0.1
		l0,0l0,0v-0.2c0-0.1,0-0.2,0-0.4s0-0.3,0-0.4C40,48.1,40,48,40,48v-0.1v-0.1v-0.1v-0.1c0-0.2,0-0.3-0.1-0.3v-0.1c0,0,0-0.2,0-0.4
		c0,0,0-0.1,0-0.2s0-0.2,0-0.2v-0.1v-0.1v-0.1V46v-0.1c0-0.1,0-0.2,0-0.3s-0.1-0.2-0.1-0.4s0-0.3,0-0.3l0,0c0,0,0,0-0.1,0v-0.1l0,0
		c0-0.1,0-0.2,0-0.3s0-0.2,0-0.3v-0.1c0-0.2,0-0.3,0-0.3s0,0-0.1,0l0,0c0,0,0,0,0-0.1c0,0,0,0,0-0.1s0-0.1,0-0.3c0-0.1,0-0.2,0-0.3
		c0,0,0,0,0-0.1c0,0,0,0,0-0.1c0,0,0-0.1,0-0.2c0-0.1,0-0.1,0-0.2c-0.1,0-0.2,0-0.3-0.1c-0.1,0-0.2,0-0.2,0l-0.2-0.2
		c0-0.1-0.1-0.1-0.2-0.2c0,0,0-0.1-0.1-0.2c0-0.1-0.1-0.2-0.1-0.2c-0.1-0.1-0.1-0.2-0.2-0.2c0-0.1-0.1-0.2-0.1-0.3s0-0.2,0-0.4
		c0-0.1,0-0.2,0-0.4c0-0.1,0-0.1,0.1-0.3c0.1-0.1,0.1-0.2,0.1-0.3s0.1-0.1,0.1-0.1s0,0,0-0.1l0,0c0,0,0.1,0,0.2,0
		C38.7,39.9,38.7,39.9,38.7,39.7z M38.5,39.9c0.2,0,0.2-0.1,0.2-0.2c0,0.1,0.1,0.1,0.1,0.1c0-0.1,0.1-0.1,0.2-0.1c0.1,0,0.2,0,0.2,0
		s0,0,0.1,0h0.1h0.1h0.1c0,0,0.1,0,0.2,0s0.2,0,0.2,0h0.1h0.1h0.1c0,0,0.1,0,0.1-0.1c0.3,0,0.4,0.1,0.4,0.1c0.1,0,0.1,0,0.2,0h0.1
		h0.1c0.1,0,0.1,0,0.2,0h0.1h0.1c0.1,0,0.1,0,0.1,0s0,0,0.1,0.1h0.1c0,0,0,0,0.1,0h0.1c0.1,0,0.1,0,0.1,0s0,0.1,0.1,0.1
		c0,0,0,0,0.1,0h0.1c0.1,0,0.1,0,0.2,0c0.1,0,0.2,0,0.2,0L43,40c0.1,0,0.1,0,0.2-0.1l0,0l0,0c0.1,0,0.2,0,0.4,0.1s0.3,0.1,0.5,0
		c0.1-0.1,0.1-0.1,0.1-0.1V40c0.1,0.1,0.1,0.1,0.1,0.1h0.1c0.1,0,0.1,0,0.1,0s0,0,0.1,0c0.1,0.1,0.1,0.1,0.1,0
		c0,0.1,0.1,0.1,0.1,0.1c0.1-0.1,0.1,0,0.2,0c0.1-0.1,0.1-0.1,0.3-0.1v0.1c0,0,0.1,0.1,0.4,0.1c0,0.1,0.1,0.1,0.2,0.1
		c0.1,0,0.2,0.1,0.2,0.1h0.1c0.3,0.3,0.5,0.5,0.6,0.7h0.1c0,0.1,0.1,0.2,0.1,0.3c0.1,0,0.1,0.1,0.2,0.1c0,0.1,0.1,0.1,0.2,0.2
		c0.1,0.1,0.1,0.1,0.1,0.2c0,0.1,0,0.1,0.1,0.2c0,0.1,0.1,0.1,0.1,0.2c0.1,0.1,0.1,0.2,0.1,0.2c0,0.1,0,0.1,0,0.1s0,0,0,0.1
		s0,0.1,0.1,0.1c0,0.2,0,0.3,0,0.3s0,0,0,0.1v0.1c0,0,0,0.1,0,0.2c0,0.1,0,0.2,0.1,0.2l0,0l0,0v0.1c0,0,0,0-0.1,0c0,0.1,0,0.1,0,0.2
		c0,0.1,0,0.2,0,0.2v0.1c0,0.1,0,0.2,0,0.4s0,0.3,0,0.3c0,0.1-0.1,0.1-0.1,0.2c0,0.1,0,0.2,0,0.2c-0.1,0.1-0.1,0.1-0.1,0.1
		c0,0.1,0,0.1-0.1,0.2c0,0.1,0,0.1,0,0.1c-0.1,0.1-0.1,0.2-0.1,0.3c0,0-0.1,0.1-0.1,0.2c-0.1,0.1-0.1,0.2-0.1,0.3v0.1v0.1V47
		c-0.2,0.1-0.3,0.4-0.3,0.7l0,0l0,0c0,0-0.1,0.1-0.1,0.2c-0.2,0.3-0.3,0.4-0.4,0.5c-0.1,0.1-0.2,0.1-0.2,0.3
		c-0.2,0.2-0.4,0.4-0.5,0.6c-0.1,0-0.1,0.1-0.2,0.2l-0.1,0.1c-0.1,0.1-0.1,0.1-0.1,0.1c-0.1,0.1-0.2,0.1-0.2,0.2c0,0.1,0,0.1,0,0.1
		l0.1,0.1l0.1,0.1l0.1,0.1c0,0,0,0,0,0.1c0,0,0,0,0.1,0s0.1,0,0.1,0s0,0,0.1,0.1l0.1,0.1c0,0,0,0,0.1,0v0.1h0.1
		c0.1,0.1,0.1,0.1,0.2,0.1c0,0.1,0.1,0.1,0.2,0.2c0.1,0.1,0.1,0.1,0.2,0.2h0.1c0,0,0,0,0.1,0.1c0,0,0,0.1,0.1,0.1h0
		c0,0,0,0.1,0.1,0.1c0.1,0.1,0.1,0.2,0.2,0.2c0,0.1,0.1,0.1,0.2,0.1c0.1,0.2,0.2,0.3,0.3,0.2c0,0,0,0.1,0.1,0.2
		c0.2,0.1,0.3,0.3,0.4,0.5h0.1c0.2,0.2,0.3,0.3,0.3,0.3c0,0.1,0.1,0.1,0.2,0.1s0.1,0.1,0.1,0.2c0,0,0.1,0,0.1,0.1
		c0.1,0.1,0.1,0.1,0.1,0.1c0.1,0.1,0.2,0.2,0.3,0.4c0.2,0.2,0.3,0.3,0.3,0.4H50c0.1,0.1,0.2,0.2,0.2,0.3c0,0,0,0,0.1,0
		c0,0,0,0,0.1,0c0,0.1,0.1,0.2,0.3,0.3c0.1,0.1,0.1,0.1,0.2,0c0.1,0,0.2,0,0.2,0c0.1,0.1,0.2,0.1,0.2,0.1c0-0.1,0.1-0.1,0.1-0.1
		s0,0,0.1,0.1c0.1-0.1,0.2,0,0.3,0.1s0.1,0.2,0.1,0.2v0.1H52c0,0,0,0.1,0.1,0.2c0,0.1,0.1,0.2,0.1,0.2V56v0.1v0.1l0.1,0.1
		c0.1,0.1,0.1,0.1,0.1,0.1s0,0.1,0,0.2c0,0.3,0,0.4,0,0.4s0,0.1,0.1,0.2c0,0.1,0,0.2,0,0.4s0,0.3,0,0.4H52l-0.1,0.1
		c0,0.1-0.1,0.1-0.1,0.1s0,0,0,0.1c0,0-0.1,0-0.1,0.1s0.1,0.1,0,0.1c0,0,0,0.1-0.1,0.1s-0.1,0-0.1,0.1v0.1c0,0,0,0,0,0.1
		s-0.1,0.1-0.1,0s-0.1-0.1-0.1-0.1s-0.1,0-0.1,0.1C51.1,59,51.1,59,51,59c0,0.1-0.1,0-0.2,0c0,0,0,0-0.1,0c0,0,0,0-0.1,0
		c0-0.1,0-0.2-0.1-0.2c0,0,0,0-0.1,0l0,0c0,0,0,0,0-0.1s-0.1-0.1-0.1-0.2c0,0,0,0-0.1,0h-0.1c-0.1-0.2-0.2-0.3-0.3-0.4h-0.1
		c0,0-0.1-0.1-0.1-0.2c-0.1-0.1-0.2-0.2-0.3-0.2l-0.1-0.1c0-0.1-0.1-0.1-0.1-0.1c0,0.1-0.1,0.1-0.1,0.1s0,0,0-0.1s0-0.1,0-0.1
		s-0.1,0-0.1-0.1l-0.1-0.1c0-0.1-0.1-0.2-0.2-0.1c0-0.1,0-0.1,0-0.1c-0.1-0.1-0.2-0.3-0.2-0.3s-0.2-0.1-0.4-0.4l0,0l0,0
		c0-0.1,0-0.2-0.1-0.3c-0.1,0-0.2-0.1-0.3-0.3c0,0,0,0-0.1,0c0,0,0,0-0.1,0c0,0,0,0,0-0.1s0-0.1,0-0.1s0,0-0.1,0c0,0,0,0-0.1,0
		c0,0-0.1-0.1-0.1-0.2c0-0.1-0.1-0.1-0.1-0.1s0-0.1-0.1-0.1L46.8,55c-0.1,0-0.1-0.1-0.2-0.2c-0.1-0.1-0.2-0.2-0.2-0.2h-0.1
		c0-0.1-0.1-0.2-0.2-0.2c0-0.1-0.1-0.1-0.2-0.3c0,0,0,0-0.1,0V54l0,0l0,0c0,0,0,0-0.1-0.1h-0.1c-0.1,0-0.1,0-0.1,0s0,0-0.1-0.1
		c0-0.1-0.1-0.1-0.1-0.1c-0.1,0.1-0.1,0.1-0.1,0c0,0,0,0,0-0.1v-0.1c0,0,0,0-0.1,0c0,0,0,0-0.1,0v-0.1v-0.1h-0.1l-0.1-0.1
		c0,0-0.1,0-0.1-0.1c-0.1-0.1-0.1-0.1-0.1,0c0-0.1-0.1-0.1-0.1-0.1l-0.1-0.1c-0.1,0-0.1,0-0.2-0.1c-0.1,0-0.2-0.1-0.2-0.2
		c0,0-0.1,0-0.2,0.1l0,0v-0.1c0,0-0.1,0-0.2,0c0,0,0,0,0-0.1c0,0,0,0,0-0.1c-0.2-0.2-0.3-0.2-0.4-0.2C43.1,52.1,43,52,42.9,52
		c0,0-0.1-0.1-0.2-0.1c0,0,0,0-0.1-0.1c0,0-0.1,0.1-0.1,0.3s0,0.3,0,0.4v0.1v0.1c0,0,0,0,0,0.1s0,0.1,0,0.1c0,0.4,0,0.6,0.1,0.6v0.3
		v0.1c0,0,0,0.1,0.1,0.2c0,0.1,0,0.1,0,0.2c0,0.1,0,0.1,0,0.1s0,0.1,0.1,0.1c0,0.1,0,0.1,0.1,0.1c0,0.1,0,0.2,0,0.3s0,0.2,0,0.3
		c0,0,0,0,0,0.1s0,0,0,0.1c0,0.2,0,0.4,0,0.4c0,0.1,0,0.2,0.1,0.3c0,0,0,0.1,0,0.3s0,0.3,0,0.3s0,0,0.1,0v0.1c0,0.1,0,0.1-0.1,0.2
		v0.1c0,0,0,0.1,0,0.3c0,0.1,0,0.3,0,0.5c0,0.3,0,0.4,0,0.5v0.1l0,0c0,0,0,0,0,0.1s0,0.1-0.1,0.2c0,0.1-0.1,0.1-0.1,0.2h-0.1
		c-0.2,0.1-0.2,0.2-0.2,0.3l0,0l0,0c0,0,0,0,0,0.1l0,0c0,0,0,0,0-0.1c0,0-0.1,0-0.2,0C42,60,41.9,60,41.9,60c0-0.1,0-0.2-0.1-0.2
		s-0.2-0.1-0.3-0.3h-0.1h-0.1c0-0.1,0-0.3-0.1-0.3C41.1,59,41,58.9,41,58.9l0,0l0,0c0-0.1,0-0.2,0.1-0.2c0-0.1,0-0.1,0-0.2
		c0-0.1,0-0.1,0-0.1v-0.1c0,0,0-0.1-0.1-0.1c0,0,0,0-0.1,0c0,0,0-0.1,0.1-0.1c0.1-0.3,0-0.4,0-0.4v-0.4c0-0.1,0.1-0.2,0.1-0.3
		s0-0.2-0.1-0.3c0-0.1,0-0.2,0-0.4s0-0.3,0-0.3c0-0.1,0-0.1-0.1-0.1c0-0.1,0-0.2,0-0.3c0-0.2,0-0.3-0.1-0.3c0-0.1,0-0.1,0-0.2
		c0-0.1,0-0.2,0-0.2v-0.1c0-0.1,0-0.1,0-0.1c0-0.1,0-0.2,0-0.3s0-0.3,0-0.3c0-0.1,0-0.1-0.1-0.2c0-0.1,0-0.1-0.1-0.2
		c0-0.1,0-0.2,0-0.4s0-0.3,0-0.3c0-0.1,0-0.2-0.1-0.3c0,0,0-0.2,0-0.5v-0.1V52v-0.1c0-0.1,0-0.1,0-0.1v-0.1l0,0c0-0.1,0-0.2,0-0.3
		s0-0.2,0-0.3c0,0,0-0.1-0.1-0.2c0-0.1,0-0.1,0-0.3s0-0.2,0-0.3c0,0,0-0.1,0-0.2c0-0.1,0-0.1,0-0.1v-0.1v-0.1c0-0.1,0-0.1,0-0.1
		v-0.1v-0.1c0-0.1-0.1-0.1-0.1-0.1c0-0.1,0-0.1,0-0.1l0,0l0,0v-0.2c0-0.1,0-0.2,0-0.4s0-0.3,0-0.4C40,48.1,40,48,40,48v-0.1v-0.1
		v-0.1v-0.1c0-0.2,0-0.3-0.1-0.3v-0.1c0,0,0-0.2,0-0.4c0,0,0-0.1,0-0.2s0-0.2,0-0.2v-0.1v-0.1v-0.1V46v-0.1c0-0.1,0-0.2,0-0.3
		s-0.1-0.2-0.1-0.4s0-0.3,0-0.3l0,0c0,0,0,0-0.1,0v-0.1l0,0c0-0.1,0-0.2,0-0.3s0-0.2,0-0.3v-0.1c0-0.2,0-0.3,0-0.3s0,0-0.1,0l0,0
		c0,0,0,0,0-0.1c0,0,0,0,0-0.1s0-0.1,0-0.3c0-0.1,0-0.2,0-0.3c0,0,0,0,0-0.1c0,0,0,0,0-0.1c0,0,0-0.1,0-0.2c0-0.1,0-0.1,0-0.2
		c-0.1,0-0.2,0-0.3-0.1c-0.1,0-0.2,0-0.2,0l-0.2-0.2c0-0.1-0.1-0.1-0.2-0.2c0,0,0-0.1-0.1-0.2c0-0.1-0.1-0.2-0.1-0.2
		c-0.1-0.1-0.1-0.2-0.2-0.2c0-0.1-0.1-0.2-0.1-0.3s0-0.2,0-0.4c0-0.1,0-0.2,0-0.4c0-0.1,0-0.1,0.1-0.3c0.1-0.1,0.1-0.2,0.1-0.3
		s0.1-0.1,0.1-0.1s0,0,0-0.1l0,0C38.5,39.4,38.4,39.9,38.5,39.9z M41.5,42.9c0,0,0,0.1,0,0.4v0.1v0.1c0,0.1,0,0.1,0.1,0.2
		c0,0.1,0.1,0.1,0.1,0.2V44v0.1c0,0.1,0,0.2,0,0.3s0,0.3,0,0.3c0.1,0.1,0.1,0.2,0.1,0.3s0,0.2,0,0.2v0.1c0,0.1,0,0.1,0,0.2
		s0,0.1,0,0.2c0,0.1,0,0.2,0,0.2c0,0.2,0,0.3,0,0.3v0.1v0.1c0,0,0,0.1,0,0.3c0,0.1,0,0.1,0,0.2c0,0.1,0,0.1,0,0.1v0.1v0.1
		c0,0.1,0,0.1,0,0.3c0,0.1,0,0.2,0,0.3v0.1l0,0c0,0.1,0,0.2,0,0.3s0,0.3,0.1,0.3c-0.1,0.1-0.1,0.2,0,0.4c0,0.1,0,0.2,0.1,0.2
		c0,0,0.1,0,0.2,0c0.1,0,0.2,0,0.2,0V49c0,0,0,0,0.1,0s0,0,0.1,0h0.1c0,0,0,0,0.1,0s0.2-0.1,0.3-0.1c0,0,0,0,0.1,0
		c0-0.1,0.1-0.1,0.3-0.1c0.1,0,0.1,0,0.1,0c0.1,0,0.1-0.1,0.2-0.1c0-0.1,0.1-0.1,0.1-0.1s0,0,0.1,0s0.1-0.1,0.2-0.2
		c0.1-0.1,0.1-0.1,0.1-0.2c0.1,0,0.2-0.1,0.3-0.3s0.2-0.2,0.3-0.3c0.2-0.3,0.3-0.4,0.4-0.4c0-0.1,0.1-0.2,0.1-0.3
		c0.1-0.1,0.1-0.2,0.1-0.2c0.1-0.1,0.2-0.2,0.2-0.5c0.1-0.3,0.1-0.4,0.2-0.5c0-0.1,0-0.2,0.1-0.3c0-0.1,0.1-0.2,0-0.3
		c0.1-0.2,0.2-0.4,0.1-0.6c0,0,0-0.1,0-0.3c0-0.1-0.1-0.1-0.2-0.2c-0.1-0.1-0.1-0.1-0.2-0.2c0,0-0.1,0-0.1-0.1c-0.1,0-0.1,0-0.1,0
		c0-0.1-0.1-0.1-0.2-0.1c-0.1,0-0.1,0-0.1,0s0,0-0.1-0.1L45,43.4c0,0,0,0-0.1,0h-0.1c0,0,0,0-0.1-0.1c0-0.1-0.1-0.1-0.2,0
		c-0.1,0-0.2,0-0.2,0c-0.2-0.1-0.2-0.1-0.2,0c0-0.1-0.2-0.2-0.3-0.1c-0.1,0-0.2,0-0.2,0c-0.1,0-0.2,0-0.2,0s0,0-0.1,0
		c0,0,0-0.1-0.1-0.1c-0.2,0-0.2,0-0.3,0h-0.1c0,0-0.1,0-0.3,0c0,0,0,0-0.1-0.1l-0.1-0.1c-0.1,0-0.2,0-0.3,0c0,0-0.1,0-0.2-0.1
		C41.7,42.8,41.6,42.8,41.5,42.9C41.7,42.9,41.6,42.9,41.5,42.9z M42.1,43c0,0-0.1,0-0.2-0.1c-0.1,0-0.2,0-0.2,0c-0.1,0-0.2,0-0.2,0
		s0,0.1,0,0.4v0.1v0.1c0,0.1,0,0.1,0.1,0.2c0,0.1,0.1,0.1,0.1,0.2V44v0.1c0,0.1,0,0.2,0,0.3s0,0.3,0,0.3c0.1,0.1,0.1,0.2,0.1,0.3
		s0,0.2,0,0.2v0.1c0,0.1,0,0.1,0,0.2s0,0.1,0,0.2c0,0.1,0,0.2,0,0.2c0,0.2,0,0.3,0,0.3v0.1v0.1c0,0,0,0.1,0,0.3c0,0.1,0,0.1,0,0.2
		c0,0.1,0,0.1,0,0.1v0.1v0.1c0,0.1,0,0.1,0,0.3c0,0.1,0,0.2,0,0.3v0.1l0,0c0,0.1,0,0.2,0,0.3s0,0.3,0.1,0.3c-0.1,0.1-0.1,0.2,0,0.4
		c0,0.1,0,0.2,0.1,0.2c0,0,0.1,0,0.2,0c0.1,0,0.2,0,0.2,0V49c0,0,0,0,0.1,0s0,0,0.1,0h0.1c0,0,0,0,0.1,0s0.2-0.1,0.3-0.1
		c0,0,0,0,0.1,0c0-0.1,0.1-0.1,0.3-0.1c0.1,0,0.1,0,0.1,0c0.1,0,0.1-0.1,0.2-0.1c0-0.1,0.1-0.1,0.1-0.1s0,0,0.1,0s0.1-0.1,0.2-0.2
		c0.1-0.1,0.1-0.1,0.1-0.2c0.1,0,0.2-0.1,0.3-0.3s0.2-0.2,0.3-0.3c0.2-0.3,0.3-0.4,0.4-0.4c0-0.1,0.1-0.2,0.1-0.3
		c0.1-0.1,0.1-0.2,0.1-0.2c0.1-0.1,0.2-0.2,0.2-0.5c0.1-0.3,0.1-0.4,0.2-0.5c0-0.1,0-0.2,0.1-0.3c0-0.1,0.1-0.2,0-0.3
		c0.1-0.2,0.2-0.4,0.1-0.6c0,0,0-0.1,0-0.3c0-0.1-0.1-0.1-0.2-0.2c-0.1-0.1-0.1-0.1-0.2-0.2c0,0-0.1,0-0.1-0.1c-0.1,0-0.1,0-0.1,0
		c0-0.1-0.1-0.1-0.2-0.1c-0.1,0-0.1,0-0.1,0s0,0-0.1-0.1L45,43.4c0,0,0,0-0.1,0h-0.1c0,0,0,0-0.1-0.1c0-0.1-0.1-0.1-0.2,0
		c-0.1,0-0.2,0-0.2,0c-0.2-0.1-0.2-0.1-0.2,0c0-0.1-0.2-0.2-0.3-0.1c-0.1,0-0.2,0-0.2,0c-0.1,0-0.2,0-0.2,0s0,0-0.1,0
		c0,0,0-0.1-0.1-0.1c-0.2,0-0.2,0-0.3,0h-0.1c0,0-0.1,0-0.3,0c0,0,0,0-0.1-0.1l-0.1-0.1C42.4,42.9,42.3,42.9,42.1,43z M51.9,58.8
		L51.9,58.8L51.9,58.8C51.9,58.9,51.9,58.9,51.9,58.8L51.9,58.8z M51.9,58.8C51.9,58.9,51.9,58.9,51.9,58.8L51.9,58.8L51.9,58.8
		L51.9,58.8z"/>
	<path fill="#2B5799" d="M54,39.7C54,39.8,54,39.8,54,39.7c0.1,0,0.2,0,0.3,0s0.2,0,0.2,0s0,0,0.1,0h0.1h0.1h0.1c0,0,0.1,0,0.2,0
		s0.2,0,0.2,0h0.1h0.1h0.1c0,0,0.1,0,0.1-0.1c0.3,0,0.4,0.1,0.5,0.1c0,0,0.1,0,0.2,0h0.1h0.1c0.1,0,0.1,0,0.2,0h0.1H57
		c0.1,0,0.1,0,0.1,0s0,0,0.1,0h0.1c0,0,0,0,0.1,0h0.1c0.1,0,0.1,0,0.1,0s0,0.1,0.1,0.1c0,0,0,0,0.1,0h0.1c0.1,0,0.1,0,0.2,0
		c0.1,0,0.2,0,0.2,0l0.1,0.1c0.1,0,0.1,0,0.2-0.1l0,0l0,0c0.1,0,0.2,0,0.4,0.1s0.3,0.1,0.5,0c0.1-0.1,0.1-0.1,0.1-0.1v0.1
		c0.1,0.1,0.1,0.1,0.1,0.1h0.1c0.1,0,0.1,0,0.1,0s0,0,0.1,0c0.1,0.1,0.1,0.1,0.1,0c0,0.1,0.1,0.1,0.1,0.1c0.1-0.1,0.1,0,0.2,0
		c0.1-0.1,0.1-0.1,0.3-0.1v0.1c0,0,0.1,0.1,0.4,0.1c0,0.1,0.1,0.1,0.2,0.1c0.1,0,0.2,0.1,0.2,0.1h0.1c0.3,0.3,0.5,0.5,0.6,0.7h0.1
		c0,0.1,0.1,0.2,0.1,0.3c0.1,0,0.1,0.1,0.2,0.1c0,0.1,0.1,0.1,0.2,0.2c0.1,0.1,0.1,0.1,0.1,0.2c0,0.1,0,0.1,0.1,0.2
		c0,0.1,0.1,0.1,0.1,0.2c0.1,0.1,0.1,0.2,0.1,0.2c0,0.1,0,0.1,0,0.1s0,0,0,0.1s0,0.1,0.1,0.1c0,0.2,0,0.3,0,0.3s0,0,0,0.1v0.1
		c0,0,0,0.1,0,0.2c0,0.1,0,0.2,0.1,0.2l0,0l0,0v0.1c0,0,0,0-0.1,0c0,0.1,0,0.1,0,0.2c0,0.1,0,0.2,0,0.2v0.1c0,0.1,0,0.2,0,0.4
		s0,0.3,0,0.3c0,0.1-0.1,0.1-0.1,0.2c0,0.1,0,0.2,0,0.2c-0.1,0.1-0.1,0.1-0.1,0.1c0,0.1,0,0.1-0.1,0.2c0,0.1,0,0.1,0,0.1
		c0,0.8,0,0.9,0,1.1c0,0-0.1,0.1-0.1,0.2c-0.1,0.1-0.1,0.2-0.1,0.3v0.1v0.1v0.1c-0.2,0.1-0.3,0.4-0.3,0.7l0,0l0,0
		c0,0-0.1,0.1-0.1,0.2c-0.2,0.3-0.3,0.4-0.4,0.5c-0.1,0.1-0.2,0.1-0.2,0.3c-0.2,0.2-0.4,0.4-0.5,0.6c-0.1,0-0.1,0.1-0.2,0.2L61,50.3
		c-0.1,0.1-0.1,0.1-0.1,0.1c-0.1,0.1-0.2,0.1-0.2,0.2c0,0.1,0,0.1,0,0.1l0.1,0.1l0.1,0.1L61,51c0,0,0,0,0,0.1c0,0,0,0,0.1,0
		s0.1,0,0.1,0s0,0,0.1,0.1l0.1,0.1c0,0,0,0,0.1,0v0.1h0.1c0.1,0.1,0.1,0.1,0.2,0.1c0,0.1,0.1,0.1,0.2,0.2c0.1,0.1,0.1,0.1,0.2,0.2
		H62c0,0,0,0,0.1,0.1c0,0,0,0.1,0.1,0.1h0.1c0,0,0,0.1,0.1,0.1c0.1,0.1,0.1,0.2,0.2,0.2c0,0.1,0.1,0.1,0.2,0.1
		c0.1,0.2,0.2,0.3,0.3,0.2c0,0,0,0.1,0.1,0.2c0.2,0.1,0.3,0.3,0.4,0.5h0.1c0.2,0.2,0.3,0.3,0.3,0.3c0,0.1,0.1,0.1,0.2,0.1
		s0.1,0.1,0.1,0.2c0,0,0.1,0,0.1,0.1c0.1,0.1,0.1,0.1,0.1,0.1c0.1,0.1,0.2,0.2,0.3,0.4c0.2,0.2,0.3,0.3,0.3,0.4h0.1
		c0,0,0.1,0,0.1,0.1s0.1,0.1,0.1,0.1s0,0,0.1,0c0,0,0,0,0.1,0c0,0.1,0.1,0.2,0.3,0.3c0.1,0.1,0.1,0.1,0.2,0c0.1,0,0.2,0,0.2,0
		c0.1,0.1,0.2,0.1,0.2,0.1c0-0.1,0.1-0.1,0.1-0.1s0,0,0.1,0.1c0.1-0.1,0.2,0,0.3,0.1c0.1,0.1,0.1,0.2,0.1,0.2V56h0.1
		c0,0,0,0.1,0.1,0.2c0,0.1,0.1,0.2,0.1,0.2v0.2v0.1v0.1l0.1,0.1c0.1,0.1,0.1,0.1,0.1,0.1s0,0.1,0,0.2c0,0.3,0,0.4,0,0.4
		s0,0.1,0.1,0.2c0,0.1,0,0.2,0,0.4s0,0.3,0,0.4h-0.2l-0.1,0.1c0,0.1-0.1,0.1-0.1,0.1s0,0,0,0.1c0,0-0.1,0-0.1,0.1s0.1,0.1,0,0.1
		c0,0,0,0.1-0.1,0.1s-0.1,0-0.1,0.1v0.1c0,0,0,0,0,0.1s-0.1,0.1-0.1,0s-0.1-0.1-0.1-0.1s-0.1,0-0.1,0.1c-0.1,0.1-0.1,0.1-0.2,0.1
		c-0.1-0.2-0.2-0.3-0.2-0.3s0,0-0.1,0c0,0,0,0-0.1,0c0-0.1,0-0.2-0.1-0.2c0,0,0,0-0.1,0l0,0c0,0,0,0,0-0.1s-0.1-0.1-0.1-0.2
		c0,0,0,0-0.1,0h-0.1c-0.1-0.2-0.2-0.3-0.3-0.4h-0.1c0,0-0.1-0.1-0.1-0.2C65,58.1,64.9,58,64.8,58l-0.1-0.1c0-0.1-0.1-0.1-0.1-0.1
		c0,0.1-0.1,0.1-0.1,0.1s0,0,0-0.1s0-0.1,0-0.1s-0.1,0-0.1-0.1l-0.1-0.1c0-0.1-0.1-0.2-0.2-0.1c0-0.1,0-0.1,0-0.1
		C64,57.2,63.9,57,63.9,57s-0.2-0.1-0.4-0.4l0,0l0,0c0-0.1,0-0.2-0.1-0.3c-0.1,0-0.2-0.1-0.3-0.3c0,0,0,0-0.1,0c0,0,0,0-0.1,0
		c0,0,0,0,0-0.1s0-0.1,0-0.1s0,0-0.1,0c0,0,0,0-0.1,0c0,0-0.1-0.1-0.1-0.2c0-0.1-0.1-0.1-0.1-0.1s0-0.1-0.1-0.1l-0.1-0.1
		c-0.1,0-0.1-0.1-0.2-0.2c-0.1-0.1-0.2-0.2-0.2-0.2h-0.1c0-0.1-0.1-0.2-0.2-0.2c0-0.1-0.1-0.1-0.2-0.3c0,0,0,0-0.1,0v-0.1l0,0l0,0
		c0,0,0,0-0.1-0.1h-0.1c-0.1,0-0.1,0-0.1,0s0,0-0.1-0.1c0-0.1-0.1-0.1-0.1-0.1c-0.1,0.1-0.1,0.1-0.1,0c0,0,0,0,0-0.1v-0.1
		c0,0,0,0-0.1,0c0,0,0,0-0.1,0v-0.1v-0.1h-0.1l-0.4,0c0,0-0.1,0-0.1-0.1c-0.1-0.1-0.1-0.1-0.1,0c0-0.1-0.1-0.1-0.1-0.1l-0.1-0.1
		c-0.1,0-0.1,0-0.2-0.1c-0.1,0-0.2-0.1-0.2-0.2c0,0-0.1,0-0.2,0.1l0,0V53c0,0-0.1,0-0.2,0c0,0,0,0,0-0.1c0,0,0,0,0-0.1
		c-0.2-0.2-0.3-0.2-0.4-0.2c-0.1-0.1-0.2-0.2-0.3-0.2c0,0-0.1-0.1-0.2-0.1c0,0,0,0-0.1-0.1c0,0-0.1,0.1-0.1,0.3s0,0.3,0,0.4V53v0.1
		c0,0,0,0,0,0.1s0,0.1,0,0.1c0,0.4,0,0.6,0.1,0.6v0.3v0.1c0,0,0,0.1,0.1,0.2c0,0.1,0,0.1,0,0.2c0,0.1,0,0.1,0,0.1s0,0.1,0.1,0.1
		c0,0.1,0,0.1,0.1,0.1c0,0.1,0,0.2,0,0.3s0,0.2,0,0.3c0,0,0,0,0,0.1s0,0,0,0.1c0,0.2,0,0.4,0,0.4c0,0.1,0,0.2,0.1,0.3
		c0,0,0,0.1,0,0.3s0,0.3,0,0.3s0,0,0.1,0v0.1c0,0.1,0,0.1-0.1,0.2v0.1c0,0,0,0.1,0,0.3c0,0.1,0,0.3,0,0.5c0,0.3,0,0.4,0,0.5v0.1l0,0
		c0,0,0,0,0,0.1s0,0.1-0.1,0.2c0,0.1-0.1,0.1-0.1,0.2h-0.1c-0.2,0.1-0.2,0.2-0.2,0.3l0,0l0,0c0,0,0,0,0,0.1l0,0c0,0,0,0,0-0.1
		c0,0-0.1,0-0.2,0C57.2,60,57.2,60,57.2,60c0-0.1,0-0.2-0.1-0.2s-0.2-0.1-0.3-0.3h-0.1h-0.1c0-0.1,0-0.3-0.1-0.3
		c-0.1-0.1-0.2-0.2-0.2-0.2l0,0l0,0c0-0.1,0-0.2,0.1-0.2c0-0.1,0-0.1,0-0.2c0-0.1,0-0.1,0-0.1v-0.1c0,0,0-0.1-0.1-0.1c0,0,0,0-0.1,0
		c0,0,0-0.1,0.1-0.1c0.1-0.3,0-0.4,0-0.4v-0.4c0-0.1,0.1-0.2,0.1-0.3s0-0.2-0.1-0.3c0-0.1,0-0.2,0-0.4s0-0.3,0-0.3
		c0-0.1,0-0.1-0.1-0.1c0-0.1,0-0.2,0-0.3c0-0.2,0-0.3-0.1-0.3c0-0.1,0-0.1,0-0.2c0-0.1,0-0.2,0-0.2v-0.1c0-0.1,0-0.1,0-0.1
		c0-0.1,0-0.2,0-0.3s0-0.3,0-0.3c0-0.1,0-0.1-0.1-0.2c0-0.1,0-0.1-0.1-0.2c0-0.1,0-0.2,0-0.4s0-0.3,0-0.3c0-0.1,0-0.2-0.1-0.3
		c0,0,0-0.2,0-0.5v-0.1v-0.1V52c0-0.1,0-0.1,0-0.1v-0.1l0,0c0-0.1,0-0.2,0-0.3s0-0.2,0-0.3c0,0,0-0.1-0.1-0.2c0-0.1,0-0.1,0-0.3
		s0-0.2,0-0.3c0,0,0-0.1,0-0.2c0-0.1,0-0.1,0-0.1V50v-0.1c0-0.1,0-0.1,0-0.1v-0.1v-0.1c0-0.1-0.1-0.1-0.1-0.1c0-0.1,0-0.1,0-0.1l0,0
		l0,0v-0.2c0-0.1,0-0.2,0-0.4s0-0.3,0-0.4c0-0.1-0.1-0.1-0.1-0.1v-0.1v-0.1V48v-0.1c0-0.2,0-0.3-0.1-0.3v-0.1c0,0,0-0.2,0-0.4
		c0,0,0-0.1,0-0.2s0-0.2,0-0.2v-0.1v-0.1v-0.1v-0.1v-0.1c0-0.1,0-0.2,0-0.3s-0.1-0.2-0.1-0.4s0-0.3,0-0.3l0,0c0,0,0,0-0.1,0v-0.1
		l0,0c0-0.1,0-0.2,0-0.3s0-0.2,0-0.3v-0.1c0-0.2,0-0.3,0-0.3s0,0-0.1,0l0,0c0,0,0,0,0-0.1c0,0,0,0,0-0.1s0-0.1,0-0.3
		c0-0.1,0-0.2,0-0.3c0,0,0,0,0-0.1c0,0,0,0,0-0.1c0,0,0-0.1,0-0.2c0-0.1,0-0.1,0-0.2c-0.1,0-0.2,0-0.3-0.1c-0.1,0-0.2,0-0.2,0
		l-0.6,0c0-0.1-0.1-0.1-0.2-0.2c0,0,0-0.1-0.1-0.2c0-0.1-0.1-0.2-0.1-0.2c-0.1-0.1-0.1-0.2-0.2-0.2c0-0.1-0.1-0.2-0.1-0.3
		s0-0.2,0-0.4c0-0.1,0-0.2,0-0.4c0-0.1,0-0.1,0.1-0.3c0.1-0.1,0.1-0.2,0.1-0.3s0.1-0.1,0.1-0.1s0,0,0-0.1l0,0c0,0,0.1,0,0.2,0
		C53.9,39.9,54,39.9,54,39.7z M53.7,39.9c0.2,0,0.2-0.1,0.2-0.2c0,0.1,0.1,0.1,0.1,0.1c0-0.1,0.1-0.1,0.2-0.1c0.1,0,0.2,0,0.2,0
		s0,0,0.1,0h0.1h0.1h0.1c0,0,0.1,0,0.2,0s0.2,0,0.2,0h0.1h0.1h0.1c0,0,0.1,0,0.1-0.1c0.3,0,0.4,0.1,0.4,0.1c0.1,0,0.1,0,0.2,0h0.1
		h0.1c0.1,0,0.1,0,0.2,0h0.1h0.1c0.1,0,0.1,0,0.1,0s0,0,0.1,0.1h0.1c0,0,0,0,0.1,0h0.1c0.1,0,0.1,0,0.1,0s0,0.1,0.1,0.1
		c0,0,0,0,0.1,0h0.1c0.1,0,0.1,0,0.2,0c0.1,0,0.2,0,0.2,0l0.1,0.1c0.1,0,0.1,0,0.2-0.1l0,0l0,0c0.1,0,0.2,0,0.4,0.1s0.3,0.1,0.5,0
		c0.1-0.1,0.1-0.1,0.1-0.1V40c0.1,0.1,0.1,0.1,0.1,0.1h0.1c0.1,0,0.1,0,0.1,0s0,0,0.1,0c0.1,0.1,0.1,0.1,0.1,0
		c0,0.1,0.1,0.1,0.1,0.1c0.1-0.1,0.1,0,0.2,0c0.1-0.1,0.1-0.1,0.3-0.1v0.1c0,0,0.1,0.1,0.4,0.1c0,0.1,0.1,0.1,0.2,0.1
		c0.1,0,0.2,0.1,0.2,0.1h0.1c0.3,0.3,0.5,0.5,0.6,0.7h0.1c0,0.1,0.1,0.2,0.1,0.3c0.1,0,0.1,0.1,0.2,0.1c0,0.1,0.1,0.1,0.2,0.2
		c0.1,0.1,0.1,0.1,0.1,0.2c0,0.1,0,0.1,0.1,0.2c0,0.1,0.1,0.1,0.1,0.2c0.1,0.1,0.1,0.2,0.1,0.2c0,0.1,0,0.1,0,0.1s0,0,0,0.1
		s0,0.1,0.1,0.1c0,0.2,0,0.3,0,0.3s0,0,0,0.1v0.1c0,0,0,0.1,0,0.2c0,0.1,0,0.2,0.1,0.2l0,0l0,0v0.1c0,0,0,0-0.1,0c0,0.1,0,0.1,0,0.2
		c0,0.1,0,0.2,0,0.2v0.1c0,0.1,0,0.2,0,0.4s0,0.3,0,0.3c0,0.1-0.1,0.1-0.1,0.2c0,0.1,0,0.2,0,0.2c-0.1,0.1-0.1,0.1-0.1,0.1
		c0,0.1,0,0.1-0.1,0.2c0,0.1,0,0.1,0,0.1c0.2,0.7,0.2,0.8,0.2,1c0,0-0.1,0.1-0.1,0.2c-0.1,0.1-0.1,0.2-0.1,0.3v0.1v0.1v0.1
		c-0.2,0.1-0.3,0.4-0.3,0.7l0,0l0,0c0,0-0.1,0.1-0.1,0.2c-0.2,0.3-0.3,0.4-0.4,0.5c-0.1,0.1-0.2,0.1-0.2,0.3
		c-0.2,0.2-0.4,0.4-0.5,0.6c-0.1,0-0.1,0.1-0.2,0.2L61,50.3c-0.1,0.1-0.1,0.1-0.1,0.1c-0.1,0.1-0.2,0.1-0.2,0.2c0,0.1,0,0.1,0,0.1
		l0.1,0.1l0.1,0.1L61,51c0,0,0,0,0,0.1c0,0,0,0,0.1,0s0.1,0,0.1,0s0,0,0.1,0.1l0.1,0.1c0,0,0,0,0.1,0v0.1h0.1
		c0.1,0.1,0.1,0.1,0.2,0.1c0,0.1,0.1,0.1,0.2,0.2c0.1,0.1,0.1,0.1,0.2,0.2H62c0,0,0,0,0.1,0.1c0,0,0,0.1,0.1,0.1h0.1
		c0,0,0,0.1,0.1,0.1c0.1,0.1,0.1,0.2,0.2,0.2c0,0.1,0.1,0.1,0.2,0.1c0.1,0.2,0.2,0.3,0.3,0.2c0,0,0,0.1,0.1,0.2
		c0.2,0.1,0.3,0.3,0.4,0.5h0.1c0.2,0.2,0.3,0.3,0.3,0.3c0,0.1,0.1,0.1,0.2,0.1s0.1,0.1,0.1,0.2c0,0,0.1,0,0.1,0.1
		c0.1,0.1,0.1,0.1,0.1,0.1c0.1,0.1,0.2,0.2,0.3,0.4c0.2,0.2,0.3,0.3,0.3,0.4h0.1c0.1,0.1,0.2,0.2,0.2,0.3c0,0,0,0,0.1,0
		c0,0,0,0,0.1,0c0,0.1,0.1,0.2,0.3,0.3c0.1,0.1,0.1,0.1,0.2,0c0.1,0,0.2,0,0.2,0c0.1,0.1,0.2,0.1,0.2,0.1c0-0.1,0.1-0.1,0.1-0.1
		s0,0,0.1,0.1c0.1-0.1,0.2,0,0.3,0.1c0.1,0.1,0.1,0.2,0.1,0.2v0.1h0.1c0,0,0,0.1,0.1,0.2c0,0.1,0.1,0.2,0.1,0.2v0.2v0.1v0.1l0.1,0.1
		c0.1,0.1,0.1,0.1,0.1,0.1s0,0.1,0,0.2c0,0.3,0,0.4,0,0.4s0,0.1,0.1,0.2c0,0.1,0,0.2,0,0.4s0,0.3,0,0.4h-0.2l-0.1,0.1
		c0,0.1-0.1,0.1-0.1,0.1s0,0,0,0.1c0,0-0.1,0-0.1,0.1s0.1,0.1,0,0.1c0,0,0,0.1-0.1,0.1s-0.1,0-0.1,0.1v0.1c0,0,0,0,0,0.1
		s-0.1,0.1-0.1,0s-0.1-0.1-0.1-0.1s-0.1,0-0.1,0.1c-0.1,0.1-0.1,0.1-0.2,0.1c-0.1-0.2-0.2-0.3-0.2-0.3s0,0-0.1,0c0,0,0,0-0.1,0
		c0-0.1,0-0.2-0.1-0.2c0,0,0,0-0.1,0l0,0c0,0,0,0,0-0.1s-0.1-0.1-0.1-0.2c0,0,0,0-0.1,0h-0.1c-0.1-0.2-0.2-0.3-0.3-0.4h-0.1
		c0,0-0.1-0.1-0.1-0.2c-0.1-0.1-0.2-0.2-0.3-0.2L64.7,58c0-0.1-0.1-0.1-0.1-0.1c0,0.1-0.1,0.1-0.1,0.1s0,0,0-0.1s0-0.1,0-0.1
		s-0.1,0-0.1-0.1l-0.1-0.1c0-0.1-0.1-0.2-0.2-0.1c0-0.1,0-0.1,0-0.1c-0.1-0.1-0.2-0.3-0.2-0.3s-0.2-0.1-0.4-0.4l0,0l0,0
		c0-0.1,0-0.2-0.1-0.3c-0.1,0-0.2-0.1-0.3-0.3c0,0,0,0-0.1,0c0,0,0,0-0.1,0c0,0,0,0,0-0.1s0-0.1,0-0.1s0,0-0.1,0c0,0,0,0-0.1,0
		c0,0-0.1-0.1-0.1-0.2c0-0.1-0.1-0.1-0.1-0.1s0-0.1-0.1-0.1l-0.1-0.1c-0.1,0-0.1-0.1-0.2-0.2C62,55.1,61.9,55,61.9,55h-0.1
		c0-0.1-0.1-0.2-0.2-0.2c0-0.1-0.1-0.1-0.2-0.3c0,0,0,0-0.1,0v-0.1l0,0l0,0c0,0,0,0-0.1-0.1h-0.1c-0.1,0-0.1,0-0.1,0s0,0-0.1-0.1
		c0-0.1-0.1-0.1-0.1-0.1c-0.1,0.1-0.1,0.1-0.1,0c0,0,0,0,0-0.1v-0.1c0,0,0,0-0.1,0c0,0,0,0-0.1,0v-0.1v-0.1h-0.1L60,53.6
		c0,0-0.1,0-0.1-0.1c-0.1-0.1-0.1-0.1-0.1,0c0-0.1-0.1-0.1-0.1-0.1l-0.1-0.1c-0.1,0-0.1,0-0.2-0.1c-0.1,0-0.2-0.1-0.2-0.2
		c0,0-0.1,0-0.2,0.1l0,0V53c0,0-0.1,0-0.2,0c0,0,0,0,0-0.1c0,0,0,0,0-0.1c-0.2-0.2-0.3-0.2-0.4-0.2c-0.1-0.1-0.2-0.2-0.3-0.2
		c0,0-0.1-0.1-0.2-0.1c0,0,0,0-0.1-0.1c0,0-0.1,0.1-0.1,0.3s0,0.3,0,0.4V53v0.1c0,0,0,0,0,0.1s0,0.1,0,0.1c0,0.4,0,0.6,0.1,0.6v0.3
		v0.1c0,0,0,0.1,0.1,0.2c0,0.1,0,0.1,0,0.2c0,0.1,0,0.1,0,0.1s0,0.1,0.1,0.1c0,0.1,0,0.1,0.1,0.1c0,0.1,0,0.2,0,0.3s0,0.2,0,0.3
		c0,0,0,0,0,0.1s0,0,0,0.1c0,0.2,0,0.4,0,0.4c0,0.1,0,0.2,0.1,0.3c0,0,0,0.1,0,0.3s0,0.3,0,0.3s0,0,0.1,0v0.1c0,0.1,0,0.1-0.1,0.2
		v0.1c0,0,0,0.1,0,0.3c0,0.1,0,0.3,0,0.5c0,0.3,0,0.4,0,0.5v0.1l0,0c0,0,0,0,0,0.1s0,0.1-0.1,0.2c0,0.1-0.1,0.1-0.1,0.2h-0.1
		c-0.2,0.1-0.2,0.2-0.2,0.3l0,0l0,0c0,0,0,0,0,0.1l0,0c0,0,0,0,0-0.1c0,0-0.1,0-0.2,0C57.2,60,57.2,60,57.2,60c0-0.1,0-0.2-0.1-0.2
		s-0.2-0.1-0.3-0.3h-0.1h-0.1c0-0.1,0-0.3-0.1-0.3c-0.1-0.1-0.2-0.2-0.2-0.2l0,0l0,0c0-0.1,0-0.2,0.1-0.2c0-0.1,0-0.1,0-0.2
		c0-0.1,0-0.1,0-0.1v-0.1c0,0,0-0.1-0.1-0.1c0,0,0,0-0.1,0c0,0,0-0.1,0.1-0.1c0.1-0.3,0-0.4,0-0.4v-0.4c0-0.1,0.1-0.2,0.1-0.3
		s0-0.2-0.1-0.3c0-0.1,0-0.2,0-0.4s0-0.3,0-0.3c0-0.1,0-0.1-0.1-0.1c0-0.1,0-0.2,0-0.3c0-0.2,0-0.3-0.1-0.3c0-0.1,0-0.1,0-0.2
		c0-0.1,0-0.2,0-0.2v-0.1c0-0.1,0-0.1,0-0.1c0-0.1,0-0.2,0-0.3s0-0.3,0-0.3c0-0.1,0-0.1-0.1-0.2c0-0.1,0-0.1-0.1-0.2
		c0-0.1,0-0.2,0-0.4s0-0.3,0-0.3c0-0.1,0-0.2-0.1-0.3c0,0,0-0.2,0-0.5v-0.1v-0.1V52c0-0.1,0-0.1,0-0.1v-0.1l0,0c0-0.1,0-0.2,0-0.3
		s0-0.2,0-0.3c0,0,0-0.1-0.1-0.2c0-0.1,0-0.1,0-0.3s0-0.2,0-0.3c0,0,0-0.1,0-0.2c0-0.1,0-0.1,0-0.1V50v-0.1c0-0.1,0-0.1,0-0.1v-0.1
		v-0.1c0-0.1-0.1-0.1-0.1-0.1c0-0.1,0-0.1,0-0.1l0,0l0,0v-0.2c0-0.1,0-0.2,0-0.4s0-0.3,0-0.4c0-0.1-0.1-0.1-0.1-0.1v-0.1v-0.1V48
		v-0.1c0-0.2,0-0.3-0.1-0.3v-0.1c0,0,0-0.2,0-0.4c0,0,0-0.1,0-0.2s0-0.2,0-0.2v-0.1v-0.1v-0.1v-0.1v-0.1c0-0.1,0-0.2,0-0.3
		s-0.1-0.2-0.1-0.4s0-0.3,0-0.3l0,0c0,0,0,0-0.1,0v-0.1l0,0c0-0.1,0-0.2,0-0.3s0-0.2,0-0.3v-0.1c0-0.2,0-0.3,0-0.3s0,0-0.1,0l0,0
		c0,0,0,0,0-0.1c0,0,0,0,0-0.1s0-0.1,0-0.3c0-0.1,0-0.2,0-0.3c0,0,0,0,0-0.1c0,0,0,0,0-0.1c0,0,0-0.1,0-0.2c0-0.1,0-0.1,0-0.2
		c-0.1,0-0.2,0-0.3-0.1c-0.1,0-0.2,0-0.2,0l-0.6,0c0-0.1-0.1-0.1-0.2-0.2c0,0,0-0.1-0.1-0.2c0-0.1-0.1-0.2-0.1-0.2
		c-0.1-0.1-0.1-0.2-0.2-0.2c0-0.1-0.1-0.2-0.1-0.3s0-0.2,0-0.4c0-0.1,0-0.2,0-0.4c0-0.1,0-0.1,0.1-0.3c0.1-0.1,0.1-0.2,0.1-0.3
		s0.1-0.1,0.1-0.1s0,0,0-0.1l0,0C53.6,39.9,53.6,39.9,53.7,39.9z M56.8,42.9c0,0,0,0.1,0,0.4v0.1v0.1c0,0.1,0,0.1,0.1,0.2
		c0,0.1,0.1,0.1,0.1,0.2V44v0.1c0,0.1,0,0.2,0,0.3s0,0.3,0,0.3c0.1,0.1,0.1,0.2,0.1,0.3s0,0.2,0,0.2v0.1c0,0.1,0,0.1,0,0.2
		s0,0.1,0,0.2c0,0.1,0,0.2,0,0.2c0,0.2,0,0.3,0,0.3v0.1v0.1c0,0,0,0.1,0,0.3c0,0.1,0,0.1,0,0.2c0,0.1,0,0.1,0,0.1v0.1v0.1
		c0,0.1,0,0.1,0,0.3c0,0.1,0,0.2,0,0.3v0.1l0,0c0,0.1,0,0.2,0,0.3c0,0.2,0,0.3,0.1,0.3c-0.1,0.1-0.1,0.2,0,0.4c0,0.1,0,0.2,0.1,0.2
		c0,0,0.1,0,0.2,0c0.1,0,0.2,0,0.2,0V49c0,0,0,0,0.1,0s0,0,0.1,0H58c0,0,0,0,0.1,0s0.2-0.1,0.3-0.1c0,0,0,0,0.1,0
		c0-0.1,0.1-0.1,0.3-0.1c0.1,0,0.1,0,0.1,0c0.1,0,0.1-0.1,0.2-0.1c0-0.1,0.1-0.1,0.1-0.1s0,0,0.1,0s0.1-0.1,0.2-0.2
		c0.1-0.1,0.1-0.1,0.1-0.2c0.1,0,0.2-0.1,0.3-0.3s0.2-0.2,0.3-0.3c0.2-0.3,0.3-0.4,0.4-0.4c0-0.1,0.1-0.2,0.1-0.3
		c0.1-0.1,0.1-0.2,0.1-0.2c0.1-0.1,0.2-0.2,0.2-0.5c0.1-0.3,0.1-0.4,0.2-0.5c0-0.1,0-0.2,0.1-0.3c0-0.1,0.1-0.2,0-0.3
		c0.1-0.2,0.2-0.4,0.1-0.6c0,0,0-0.1,0-0.3c0-0.1-0.1-0.1-0.2-0.2c-0.1-0.1-0.1-0.1-0.2-0.2c0,0-0.1,0-0.1-0.1c-0.1,0-0.1,0-0.1,0
		c0-0.1-0.1-0.1-0.2-0.1c-0.1,0-0.1,0-0.1,0s0,0-0.1-0.1l-0.1-0.1c0,0,0,0-0.1,0h-0.1c0,0,0,0-0.1-0.1c0-0.1-0.1-0.1-0.2,0
		c-0.1,0-0.2,0-0.2,0c-0.2-0.1-0.2-0.1-0.2,0c0-0.1-0.2-0.2-0.3-0.1c-0.1,0-0.2,0-0.2,0c-0.1,0-0.2,0-0.2,0s0,0-0.1,0
		c0,0,0-0.1-0.1-0.1c-0.2,0-0.2,0-0.3,0h-0.1c0,0-0.1,0-0.3,0c0,0,0,0-0.1-0.1l-0.1-0.1c-0.1,0-0.2,0-0.3,0c0,0-0.1,0-0.2-0.1
		C57,42.8,56.9,42.8,56.8,42.9C56.9,42.9,56.8,42.9,56.8,42.9z M57.4,43c0,0-0.1,0-0.2-0.1c-0.1,0-0.2,0-0.2,0c-0.1,0-0.2,0-0.2,0
		s0,0.1,0,0.4v0.1v0.1c0,0.1,0,0.1,0.1,0.2c0,0.1,0.1,0.1,0.1,0.2V44v0.1c0,0.1,0,0.2,0,0.3s0,0.3,0,0.3c0.1,0.1,0.1,0.2,0.1,0.3
		s0,0.2,0,0.2v0.1c0,0.1,0,0.1,0,0.2s0,0.1,0,0.2c0,0.1,0,0.2,0,0.2c0,0.2,0,0.3,0,0.3v0.1v0.1c0,0,0,0.1,0,0.3c0,0.1,0,0.1,0,0.2
		c0,0.1,0,0.1,0,0.1v0.1v0.1c0,0.1,0,0.1,0,0.3c0,0.1,0,0.2,0,0.3v0.1l0,0c0,0.1,0,0.2,0,0.3c0,0.2,0,0.3,0.1,0.3
		c-0.1,0.1-0.1,0.2,0,0.4c0,0.1,0,0.2,0.1,0.2c0,0,0.1,0,0.2,0c0.1,0,0.2,0,0.2,0V49c0,0,0,0,0.1,0s0,0,0.1,0H58c0,0,0,0,0.1,0
		s0.2-0.1,0.3-0.1c0,0,0,0,0.1,0c0-0.1,0.1-0.1,0.3-0.1c0.1,0,0.1,0,0.1,0c0.1,0,0.1-0.1,0.2-0.1c0-0.1,0.1-0.1,0.1-0.1s0,0,0.1,0
		s0.1-0.1,0.2-0.2c0.1-0.1,0.1-0.1,0.1-0.2c0.1,0,0.2-0.1,0.3-0.3s0.2-0.2,0.3-0.3c0.2-0.3,0.3-0.4,0.4-0.4c0-0.1,0.1-0.2,0.1-0.3
		c0.1-0.1,0.1-0.2,0.1-0.2c0.1-0.1,0.2-0.2,0.2-0.5c0.1-0.3,0.1-0.4,0.2-0.5c0-0.1,0-0.2,0.1-0.3c0-0.1,0.1-0.2,0-0.3
		c0.1-0.2,0.2-0.4,0.1-0.6c0,0,0-0.1,0-0.3c0-0.1-0.1-0.1-0.2-0.2c-0.1-0.1-0.1-0.1-0.2-0.2c0,0-0.1,0-0.1-0.1c-0.1,0-0.1,0-0.1,0
		c0-0.1-0.1-0.1-0.2-0.1c-0.1,0-0.1,0-0.1,0s0,0-0.1-0.1l-0.1-0.1c0,0,0,0-0.1,0h-0.1c0,0,0,0-0.1-0.1c0-0.1-0.1-0.1-0.2,0
		c-0.1,0-0.2,0-0.2,0c-0.2-0.1-0.2-0.1-0.2,0c0-0.1-0.2-0.2-0.3-0.1c-0.1,0-0.2,0-0.2,0c-0.1,0-0.2,0-0.2,0s0,0-0.1,0
		c0,0,0-0.1-0.1-0.1c-0.2,0-0.2,0-0.3,0h-0.1c0,0-0.1,0-0.3,0c0,0,0,0-0.1-0.1l-0.1-0.1C57.6,42.9,57.5,42.9,57.4,43z M67.1,58.8
		C67.1,58.8,67.2,58.8,67.1,58.8C67.2,58.8,67.2,58.8,67.1,58.8C67.1,58.9,67.1,58.9,67.1,58.8L67.1,58.8z M67.2,58.8
		C67.1,58.9,67.1,58.9,67.2,58.8C67.1,58.8,67.1,58.8,67.2,58.8C67.1,58.8,67.2,58.8,67.2,58.8L67.2,58.8z"/>
	<path fill="#2B5799" d="M72.9,41.1C72.9,41.1,73,41.1,72.9,41.1l0.2,0.1c0.1,0,0.1,0,0.1,0s0,0,0.1,0l0,0c0,0,0,0,0.1,0l0,0
		c0,0.2,0.1,0.2,0.2,0.2l0.2,0.2c0,0.1,0,0.1,0.1,0.2c0,0.1,0.1,0.1,0.1,0.1s0.1,0,0.1,0.1s0.1,0.1,0.1,0.1s0,0,0.1,0h0.1
		c0.1-0.1,0.2-0.1,0.2-0.1s0.1,0,0.2,0h0.1c0.1,0,0.1,0,0.1,0s0,0,0.1,0.1l0.1,0.1h0.1c0.1,0,0.1,0,0.1,0s0.1,0,0.1,0.1
		c0.1,0.1,0.1,0.1,0.2,0.1c0,0,0,0.1,0.1,0.1s0.1,0,0.2,0.1s0.1,0.1,0.1,0.1s0,0,0.1,0c0.2,0.2,0.4,0.3,0.5,0.3h0.1
		c0,0.1,0,0.1-0.1,0v0.1c0,0.1,0.1,0.2,0.2,0.3s0.2,0.2,0.2,0.4c0,0.1,0.1,0.1,0.1,0.2c0.1,0.2,0.2,0.3,0.2,0.5
		c0.1,0.1,0.1,0.2,0.1,0.3s0.1,0.1,0.1,0.3c0.1,0.1,0.1,0.2,0.1,0.3c0.1,0.2,0.1,0.3,0.1,0.4c0,0,0,0.1,0.1,0.1
		C78,46,78,46.2,78,46.2l0.1,0.1c0,0.1,0,0.2,0.1,0.3c0,0.3,0.1,0.4,0.1,0.4c0,0.2,0,0.3,0.1,0.3c0,0,0,0.1,0.1,0.3c0,0,0,0.1,0,0.2
		c0,0.1,0.1,0.2,0.1,0.2v0.1v0.1c0,0,0,0,0,0.1v0.1c0,0.1,0,0.2,0,0.3s0,0.3,0,0.4c0,0.1,0,0.1,0,0.1v0.1c0,0,0,0.1,0.1,0.2v0.1
		c0,0,0,0,0,0.1s0.1,0.4,0,1s0,0.9,0,1.1c0,0,0,0.1,0,0.2s0,0.2,0,0.3c0,0,0,0.1-0.1,0.2c0,0.1,0,0.2,0,0.2s0,0.1,0,0.2
		c0,0.1,0,0.1,0,0.2c-0.1,0-0.1,0.1-0.1,0.1c0,0.3,0,0.4,0,0.5v0.1c0,0,0,0.1-0.1,0.1V54c0,0.2-0.1,0.3-0.1,0.3v0.1c0,0,0,0-0.1,0
		c0,0,0,0,0,0.1c0,0,0,0.1-0.1,0.1c0,0.1,0,0.1,0,0.2L77.9,55c0,0.1-0.1,0.3-0.1,0.4c-0.1,0.2-0.1,0.3-0.1,0.4
		c-0.1,0.1-0.1,0.3-0.1,0.5c0,0-0.1,0-0.1,0.1s0,0.1-0.1,0.2c0,0.1-0.1,0.2-0.1,0.3c-0.1,0-0.1,0.1-0.1,0.2c0,0.1-0.1,0.2-0.1,0.2
		S77,57.4,77,57.5c0,0.1-0.1,0.2-0.1,0.2c0,0.1,0,0.1-0.1,0.2c-0.1,0.1-0.3,0.2-0.4,0.4c-0.1,0.1-0.1,0.2-0.1,0.2
		c0,0.1-0.1,0.2-0.2,0.3s-0.2,0.2-0.2,0.3l0,0l0,0l-0.1,0.1c0,0.1-0.1,0.1-0.1,0.1c-0.1,0-0.1,0-0.2,0.1c0,0-0.1,0-0.2,0.1h-0.1
		h-0.1c0,0-0.1,0.1-0.1,0.2c-0.1,0-0.2,0-0.2,0c0,0.1-0.1,0.1-0.2,0.1s-0.2,0.1-0.2,0.2c-0.1,0-0.2,0-0.5,0s-0.4,0-0.5,0
		c0,0-0.1,0-0.2,0S73,60,73,60s0-0.1-0.1-0.2c-0.1,0-0.1,0-0.1,0.1s0,0.1-0.1,0.1s0,0,0-0.1l0,0c0,0,0,0-0.1-0.1l-0.1-0.1
		c-0.1,0.1-0.2,0-0.3-0.1c-0.1-0.1-0.2-0.1-0.3-0.1v-0.1c0,0-0.1,0-0.2-0.1s-0.2-0.1-0.3-0.1V59c0,0,0-0.1-0.1-0.1
		c0-0.1-0.1-0.1-0.1-0.1s-0.1,0-0.1-0.1s0,0,0-0.1c0,0,0,0,0-0.1l0,0l0,0l0,0l0,0c0,0,0,0-0.1-0.1c0,0,0,0-0.1-0.1
		c0-0.1-0.1-0.1-0.1-0.1h-0.1c0-0.1-0.1-0.1-0.2-0.3c-0.1-0.1-0.1-0.2-0.2-0.3H70c-0.2-0.3-0.3-0.5-0.3-0.7c0,0-0.1-0.1-0.2-0.3
		v-0.1c0,0,0-0.1-0.1-0.1c0-0.1-0.1-0.1-0.1-0.2c0-0.3-0.1-0.5-0.2-0.8c0-0.1,0-0.2-0.1-0.3c0-0.1,0-0.1,0-0.1s0,0,0-0.1v-0.1v-0.1
		c0,0,0-0.1-0.1-0.1c0,0,0-0.2,0-0.5V54v-0.1c0,0,0,0-0.1-0.1v-0.1c0-0.1,0-0.2,0-0.3c0-0.2,0-0.3,0-0.4c0,0,0,0-0.1-0.1
		c0,0,0-0.1,0-0.2v-0.1v-0.1c0-0.1,0-0.1,0-0.1c0-0.1-0.1-0.1-0.1-0.2v-0.1V52c0-0.1,0-0.3-0.1-0.3c0,0,0-0.1,0-0.2v-0.1l0.1-0.2
		c0-0.1,0-0.2,0-0.6c0-0.3,0-0.5,0-0.6s0-0.1,0-0.2c0-0.1,0-0.1,0-0.1c0-0.1,0-0.2,0-0.3c0-0.2,0-0.3,0-0.4c0-0.1,0-0.2,0.1-0.2
		v-0.1v-0.1v-0.1c0,0,0-0.1,0.1-0.1c0,0,0-0.2,0-0.4s0-0.4,0-0.4c0-0.3,0-0.5,0-0.5s0.1,0,0.1-0.1s0.1-0.1,0.1-0.1
		c0-0.1,0-0.1,0-0.1v-0.1c0,0,0-0.1,0.1-0.1v-0.1c0-0.1,0-0.1,0-0.1c0-0.1,0.1-0.1,0.1-0.1c0-0.1,0-0.2,0-0.3c0-0.2,0-0.3,0-0.3
		s0,0,0.1,0h0.1c0-0.1,0-0.1,0-0.1s0,0,0-0.1l0.1-0.2c0,0,0-0.1,0.1-0.2c0-0.1,0.1-0.2,0.1-0.2s0,0,0-0.1c0,0,0,0,0-0.1
		c0.1-0.1,0.1-0.2,0.1-0.3c0,0,0.1-0.1,0.1-0.2c0-0.1,0.1-0.1,0.1-0.2c0-0.1,0-0.2,0.1-0.3s0.1-0.2,0.1-0.2v-0.1v-0.1
		c0-0.1,0-0.1,0.1-0.2c0.1-0.1,0.1-0.2,0.1-0.3c0.1,0,0.1-0.1,0.2-0.3c0.1,0,0.1-0.1,0.1-0.3c0-0.1,0-0.1,0-0.2
		c0.1,0.1,0.1,0,0.2-0.1l0.1-0.1h0l0.1-0.1c0-0.1,0.1-0.1,0.1-0.1c0.1,0,0.2-0.1,0.3-0.3c0.1,0,0.1,0,0.2-0.1s0.1-0.1,0.1-0.1l0,0
		c0,0,0,0,0-0.1c0,0.1,0.1,0,0.3-0.1c0,0,0.1,0,0.2,0s0.1,0,0.2,0c0,0,0.1,0,0.2,0C72.8,41.1,72.9,41.1,72.9,41.1z M72.5,41.1
		c0,0,0.1,0,0.2,0s0.2,0,0.2,0s0.1,0,0.1,0.1h0.1c0.1,0,0.1,0,0.1,0s0,0,0.1,0l0,0c0,0,0,0,0.1,0l0,0c0,0.2,0.1,0.2,0.2,0.2l0.2,0.2
		c0,0.1,0,0.1,0.1,0.2c0,0.1,0.1,0.1,0.1,0.1s0.1,0,0.1,0.1s0.1,0.1,0.1,0.1s0,0,0.1,0h0.1c0.1-0.1,0.2-0.1,0.2-0.1s0.1,0,0.2,0h0.1
		c0.1,0,0.1,0,0.1,0s0,0,0.1,0.1l0.1,0.1h0.1c0.1,0,0.1,0,0.1,0s0.1,0,0.1,0.1c0.1,0.1,0.1,0.1,0.2,0.1c0,0,0,0.1,0.1,0.1
		s0.1,0,0.2,0.1s0.1,0.1,0.1,0.1s0,0,0.1,0c0.2,0.2,0.4,0.3,0.5,0.3h0.1c0,0.1,0,0.1-0.1,0v0.1c0,0.1,0.1,0.2,0.2,0.3
		s0.2,0.2,0.2,0.4c0,0.1,0.1,0.1,0.1,0.2c0.1,0.2,0.2,0.3,0.2,0.5c0.1,0.1,0.1,0.2,0.1,0.3s0.1,0.1,0.1,0.3c0.1,0.1,0.1,0.2,0.1,0.3
		c0.1,0.2,0.1,0.3,0.1,0.4c0,0,0,0.1,0.1,0.1C78,46,78,46.2,78,46.2l0.1,0.1c0,0.1,0,0.2,0.1,0.3c0,0.3,0.1,0.4,0.1,0.4
		c0,0.2,0,0.3,0.1,0.3c0,0,0,0.1,0.1,0.3c0,0,0,0.1,0,0.2c0,0.1,0.1,0.2,0.1,0.2v0.1v0.1c0,0,0,0,0,0.1v0.1c0,0.1,0,0.2,0,0.3
		s0,0.3,0,0.4c0,0.1,0,0.1,0,0.1v0.1c0,0,0,0.1,0.1,0.2v0.1c0,0,0,0,0,0.1s0.1,0.4,0,1s0,0.9,0,1.1c0,0,0,0.1,0,0.2s0,0.2,0,0.3
		c0,0,0,0.1-0.1,0.2c0,0.1,0,0.2,0,0.2s0,0.1,0,0.2c0,0.1,0,0.1,0,0.2c-0.1,0-0.1,0.1-0.1,0.1c0,0.3,0,0.4,0,0.5v0.1
		c0,0,0,0.1-0.1,0.1V54c0,0.2-0.1,0.3-0.1,0.3v0.1c0,0,0,0-0.1,0c0,0,0,0,0,0.1c0,0,0,0.1-0.1,0.1c0,0.1,0,0.1,0,0.2L77.9,55
		c0,0.1-0.1,0.3-0.1,0.4c-0.1,0.2-0.1,0.3-0.1,0.4c-0.1,0.1-0.1,0.3-0.1,0.5c0,0-0.1,0-0.1,0.1s0,0.1-0.1,0.2c0,0.1-0.1,0.2-0.1,0.3
		c-0.1,0-0.1,0.1-0.1,0.2c0,0.1-0.1,0.2-0.1,0.2S77,57.4,77,57.5c0,0.1-0.1,0.2-0.1,0.2c0,0.1,0,0.1-0.1,0.2
		c-0.1,0.1-0.3,0.2-0.4,0.4c-0.1,0.1-0.1,0.2-0.1,0.2c0,0.1-0.1,0.2-0.2,0.3s-0.2,0.2-0.2,0.3l0,0l0,0l-0.1,0.1
		c0,0.1-0.1,0.1-0.1,0.1c-0.1,0-0.1,0-0.2,0.1c0,0-0.1,0-0.2,0.1h-0.1h-0.1c0,0-0.1,0.1-0.1,0.2c-0.1,0-0.2,0-0.2,0
		c0,0.1-0.1,0.1-0.2,0.1s-0.2,0.1-0.2,0.2c-0.1,0-0.2,0-0.5,0s-0.4,0-0.5,0c0,0-0.1,0-0.2,0S73,60,73,60s0-0.1-0.1-0.2
		c-0.1,0-0.1,0-0.1,0.1s0,0.1-0.1,0.1s0,0,0-0.1l0,0c0,0,0,0-0.1-0.1l-0.1-0.1c-0.1,0.1-0.2,0-0.3-0.1c-0.1-0.1-0.2-0.1-0.3-0.1
		v-0.1c0,0-0.1,0-0.2-0.1s-0.2-0.1-0.3-0.1V59c0,0,0-0.1-0.1-0.1c0-0.1-0.1-0.1-0.1-0.1s-0.1,0-0.1-0.1s0,0,0-0.1c0,0,0,0,0-0.1l0,0
		l0,0l0,0l0,0c0,0,0,0-0.1-0.1c0,0,0,0-0.1-0.1c0-0.1-0.1-0.1-0.1-0.1h-0.1c0-0.1-0.1-0.1-0.2-0.3c-0.1-0.1-0.1-0.2-0.2-0.3H70
		c-0.2-0.3-0.3-0.5-0.3-0.7c0,0-0.1-0.1-0.2-0.3v-0.1c0,0,0-0.1-0.1-0.1c0-0.1-0.1-0.1-0.1-0.2c0-0.3-0.1-0.5-0.2-0.8
		c0-0.1,0-0.2-0.1-0.3c0-0.1,0-0.1,0-0.1s0,0,0-0.1v-0.1v-0.1c0,0,0-0.1-0.1-0.1c0,0,0-0.2,0-0.5V54v-0.1c0,0,0,0-0.1-0.1v-0.1
		c0-0.1,0-0.2,0-0.3c0-0.2,0-0.3,0-0.4c0,0,0,0-0.1-0.1c0,0,0-0.1,0-0.2v-0.1v-0.1c0-0.1,0-0.1,0-0.1c0-0.1-0.1-0.1-0.1-0.2v-0.1V52
		c0-0.1,0-0.3-0.1-0.3c0,0,0-0.1,0-0.2v-0.1l0.1-0.2c0-0.1,0-0.2,0-0.6c0-0.3,0-0.5,0-0.6s0-0.1,0-0.2c0-0.1,0-0.1,0-0.1
		c0-0.1,0-0.2,0-0.3c0-0.2,0-0.3,0-0.4c0-0.1,0-0.2,0.1-0.2v-0.1v-0.1v-0.1c0,0,0-0.1,0.1-0.1c0,0,0-0.2,0-0.4s0-0.4,0-0.4
		c0-0.3,0-0.5,0-0.5s0.1,0,0.1-0.1s0.1-0.1,0.1-0.1c0-0.1,0-0.1,0-0.1v-0.1c0,0,0-0.1,0.1-0.1v-0.1c0-0.1,0-0.1,0-0.1
		c0-0.1,0.1-0.1,0.1-0.1c0-0.1,0-0.2,0-0.3c0-0.2,0-0.3,0-0.3s0,0,0.1,0h0.1c0-0.1,0-0.1,0-0.1s0,0,0-0.1l0.1-0.2c0,0,0-0.1,0.1-0.2
		c0-0.1,0.1-0.2,0.1-0.2s0,0,0-0.1c0,0,0,0,0-0.1c0.1-0.1,0.1-0.2,0.1-0.3c0,0,0.1-0.1,0.1-0.2c0-0.1,0.1-0.1,0.1-0.2
		c0-0.1,0-0.2,0.1-0.3s0.1-0.2,0.1-0.2v-0.1v-0.1c0-0.1,0-0.1,0.1-0.2c0.1-0.1,0.1-0.2,0.1-0.3c0.1,0,0.1-0.1,0.2-0.3
		c0.1,0,0.1-0.1,0.1-0.3c0-0.1,0-0.1,0-0.2c0.1,0.1,0.1,0,0.2-0.1l0.1-0.1h0l0.1-0.1c0-0.1,0.1-0.1,0.1-0.1c0.1,0,0.2-0.1,0.3-0.3
		c0.1,0,0.1,0,0.2-0.1s0.1-0.1,0.1-0.1l0,0c0,0,0,0,0-0.1c0,0.1,0.1,0,0.3-0.1c0,0,0.1,0,0.2,0C72.4,41.1,72.5,41.1,72.5,41.1z
		 M72.9,43.7c-0.1,0.1-0.3,0.2-0.4,0.3s-0.2,0.2-0.3,0.3c-0.1,0.1-0.2,0.3-0.2,0.5c0,0,0,0.1-0.1,0.1c0,0.1-0.1,0.1-0.1,0.1v0.1v0.1
		v0.1c0,0-0.1,0.2-0.1,0.4c0,0.1,0,0.1-0.1,0.2c0,0.1-0.1,0.1-0.1,0.1c0,0.1,0,0.1,0,0.1s0,0.1-0.1,0.1v0.1c0,0.1,0,0.1,0,0.1v0.1
		c-0.1,0.1-0.1,0.2,0,0.2c-0.1,0.1-0.1,0.2-0.1,0.5C71,47.5,71,47.7,71,48c-0.1,0.1-0.1,0.2-0.1,0.4c-0.1,0.3-0.1,0.5-0.1,0.6
		c0,0,0,0,0,0.1c0,0,0,0,0,0.1s0,0.2,0,0.3s0,0.3,0,0.3c0,0.1-0.1,0.2-0.1,0.5v0.1c0,0.1,0,0.1,0,0.1v0.1v0.1c0,0.1,0.1,0.1,0.1,0.3
		c0,0.1,0,0.2,0,0.4s0,0.3,0,0.4v0.1V52l0.1,0.1c0,0.1,0,0.2,0,0.4v0.1v0.1v0.1v0.1c0,0.1,0,0.3,0,0.3v0.1c0,0,0,0,0,0.1l0,0
		c0,0,0,0,0,0.1s0,0.2,0,0.2c0,0.1,0,0.1,0,0.2c0,0.1,0,0.1,0,0.1s0,0,0,0.1v0.1c0,0,0,0,0,0.1v0.1v0.1v0.1c0,0,0,0,0,0.1v0.1
		c0,0,0,0,0,0.1c0,0,0,0.1,0.1,0.1v0.1c-0.1,0.1,0,0.2,0.1,0.4v0.1c0,0,0,0.1,0.1,0.1l0.1,0.1l0.1,0.2c0.1,0.1,0.1,0.3,0.3,0.4
		c0.1,0.2,0.2,0.3,0.2,0.4H72c0.1,0.3,0.3,0.4,0.4,0.4c0.1,0.1,0.1,0.1,0.1,0.1h0.1c0.1,0,0.1,0,0.1,0s0,0.1,0.1,0.1l0.1,0.1
		c0,0,0,0,0.1,0c0,0,0,0,0.1,0c0,0,0,0,0.1,0h0.1c0.1,0,0.3,0,0.4,0c0,0,0.1,0,0.1-0.1s0.1-0.1,0.1-0.1c0.1,0,0.1,0,0.1,0
		s0,0,0.1-0.1c0,0,0-0.1,0.1-0.1h0.1c0.1-0.1,0.1-0.2,0.2-0.1c0.1-0.1,0.2-0.2,0.3-0.3c0.1-0.2,0.2-0.3,0.3-0.3v-0.1v-0.1
		c0,0,0,0,0-0.1s0.1-0.1,0.1-0.2c0.1-0.1,0.1-0.1,0.1-0.1s0-0.1,0.1-0.2c0-0.1,0.1-0.2,0.1-0.2s0-0.1,0.1-0.1s0.1-0.1,0.1-0.1
		c0.1-0.1,0.1-0.2,0.1-0.2v-0.1c0,0,0.1-0.2,0.2-0.4c0,0,0-0.1,0.1-0.1c0,0,0-0.2,0.1-0.4c0-0.1,0-0.1,0.1-0.3v-0.1v-0.1
		c0,0,0,0,0.1-0.1v-0.1c0-0.1,0-0.1,0-0.1c0.1-0.1,0.1-0.4,0.2-0.8v-0.3V52c0-0.1,0-0.1,0-0.1c0.1-0.1,0.1-0.1,0.1-0.2v-0.1v-0.1
		c0-0.1,0-0.1,0.1-0.2c0-0.1,0.1-0.1,0.1-0.2c0-0.1,0-0.1,0-0.3c0-0.1,0-0.2,0-0.2v-0.1v-0.1c0,0,0-0.1-0.1-0.1v-0.1
		c0.1-0.1,0.1-0.1,0.1-0.1V50v-0.1c0-0.1,0-0.1,0-0.3s0-0.2,0-0.2v-0.1v-0.1c0,0,0-0.1-0.1-0.1c0-0.1,0-0.1,0-0.1v-0.1
		c0-0.1,0-0.1,0-0.2c0-0.1,0-0.1,0-0.1v-0.1v-0.1c0-0.1,0-0.1,0-0.1c0-0.1,0-0.1,0-0.1c-0.1,0-0.1-0.1-0.1-0.3s0-0.3-0.1-0.3
		c0,0,0-0.1,0-0.2c0-0.1,0-0.2,0-0.2c-0.1-0.1-0.1-0.2-0.1-0.3c-0.2-0.5-0.5-1-0.8-1.5h-0.1c0-0.1-0.1-0.2-0.2-0.3h-0.1L75,44.9
		c0,0,0-0.1-0.1-0.1c-0.1-0.1-0.1-0.1-0.2-0.1h-0.1c-0.1,0-0.1,0-0.1,0c-0.1-0.1-0.1-0.1-0.2-0.1c0,0-0.1,0-0.2,0s-0.1,0-0.2,0
		c-0.1-0.2-0.2-0.3-0.3-0.2c0-0.1,0-0.2,0-0.3V44v-0.1c0-0.1,0-0.1-0.1-0.1h-0.1c0-0.1,0-0.2-0.1-0.2s-0.2,0-0.3,0
		C73.1,43.7,73,43.7,72.9,43.7z M73.5,43.7c-0.1,0-0.2,0-0.3,0c-0.1,0-0.2,0-0.3,0c-0.1,0.1-0.3,0.2-0.4,0.3s-0.2,0.2-0.3,0.3
		c-0.1,0.1-0.2,0.3-0.2,0.5c0,0,0,0.1-0.1,0.1c0,0.1-0.1,0.1-0.1,0.1v0.1v0.1v0.1c0,0-0.1,0.2-0.1,0.4c0,0.1,0,0.1-0.1,0.2
		c0,0.1-0.1,0.1-0.1,0.1c0,0.1,0,0.1,0,0.2c0,0,0,0.1-0.1,0.1v0.1c0,0.1,0,0.1,0,0.1v0.1c-0.1,0.1-0.1,0.2,0,0.2
		c-0.1,0.1-0.1,0.2-0.1,0.5C71,47.5,71,47.7,71,48c-0.1,0.1-0.1,0.2-0.1,0.4c-0.1,0.3-0.1,0.5-0.1,0.6c0,0,0,0,0,0.1c0,0,0,0,0,0.1
		s0,0.2,0,0.3s0,0.3,0,0.3c0,0.1-0.1,0.2-0.1,0.5v0.1c0,0.1,0,0.1,0,0.1v0.1v0.1c0,0.1,0.1,0.1,0.1,0.3c0,0.1,0,0.2,0,0.4
		s0,0.3,0,0.4v0.1V52l0.1,0.1c0,0.1,0,0.2,0,0.4v0.1v0.1v0.1v0.1c0,0.1,0,0.3,0,0.3v0.1c0,0,0,0,0,0.1l0,0c0,0,0,0,0,0.1
		s0,0.2,0,0.2c0,0.1,0,0.1,0,0.2c0,0.1,0,0.1,0,0.1s0,0,0,0.1v0.1c0,0,0,0,0,0.1v0.1v0.1v0.1c0,0,0,0,0,0.1v0.1c0,0,0,0,0,0.1
		c0,0,0,0.1,0.1,0.1v0.1c-0.1,0.1,0,0.2,0.1,0.4v0.1c0,0,0,0.1,0.1,0.1l0.1,0.1l0.1,0.2c0.1,0.1,0.1,0.3,0.3,0.4
		c0.1,0.2,0.2,0.3,0.2,0.4H72c0.1,0.3,0.3,0.4,0.4,0.4c0.1,0.1,0.1,0.1,0.1,0.1h0.1c0.1,0,0.1,0,0.1,0s0,0.1,0.1,0.1l0.1,0.1
		c0,0,0,0,0.1,0c0,0,0,0,0.1,0c0,0,0,0,0.1,0h0.1c0.1,0,0.3,0,0.4,0c0,0,0.1,0,0.1-0.1s0.1-0.1,0.1-0.1c0.1,0,0.1,0,0.1,0
		s0,0,0.1-0.1c0,0,0-0.1,0.1-0.1h0.1c0.1-0.1,0.1-0.2,0.2-0.1c0.1-0.1,0.2-0.2,0.3-0.3c0.1-0.2,0.2-0.3,0.3-0.3v-0.1v-0.1
		c0,0,0,0,0-0.1s0.1-0.1,0.1-0.2c0.1-0.1,0.1-0.1,0.1-0.1s0-0.1,0.1-0.2c0-0.1,0.1-0.2,0.1-0.2s0-0.1,0.1-0.1s0.1-0.1,0.1-0.1
		c0.1-0.1,0.1-0.2,0.1-0.2v-0.1c0,0,0.1-0.2,0.2-0.4c0,0,0-0.1,0.1-0.1c0,0,0-0.2,0.1-0.4c0-0.1,0-0.1,0.1-0.3v-0.1v-0.1
		c0,0,0,0,0.1-0.1v-0.1c0-0.1,0-0.1,0-0.1c0.1-0.1,0.1-0.4,0.2-0.8v-0.3V52c0-0.1,0-0.1,0-0.1c0.1-0.1,0.1-0.1,0.1-0.2v-0.1v-0.1
		c0-0.1,0-0.1,0.1-0.2c0-0.1,0.1-0.1,0.1-0.2c0-0.1,0-0.1,0-0.3c0-0.1,0-0.2,0-0.2v-0.1v-0.1c0,0,0-0.1-0.1-0.1v-0.1
		c0.1-0.1,0.1-0.1,0.1-0.1V50v-0.1c0-0.1,0-0.1,0-0.3s0-0.2,0-0.2v-0.1v-0.1c0,0,0-0.1-0.1-0.1c0-0.1,0-0.1,0-0.1v-0.1
		c0-0.1,0-0.1,0-0.2c0-0.1,0-0.1,0-0.1v-0.1v-0.1c0-0.1,0-0.1,0-0.1c0-0.1,0-0.1,0-0.1c-0.1,0-0.1-0.1-0.1-0.3s0-0.3-0.1-0.3
		c0,0,0-0.1,0-0.2c0-0.1,0-0.2,0-0.2c-0.1-0.1-0.1-0.2-0.1-0.3c-0.2-0.5-0.5-1-0.8-1.5h-0.1c0-0.1-0.1-0.2-0.2-0.3h-0.1L75,44.9
		c0,0,0-0.1-0.1-0.1c-0.1-0.1-0.1-0.1-0.2-0.1h-0.1c-0.1,0-0.1,0-0.1,0c-0.1-0.1-0.1-0.1-0.2-0.1c0,0-0.1,0-0.2,0s-0.1,0-0.2,0
		c-0.1-0.2-0.2-0.3-0.3-0.2c0-0.1,0-0.2,0-0.3V44v-0.1c0-0.1,0-0.1-0.1-0.1h-0.1C73.5,43.8,73.5,43.7,73.5,43.7z"/>
	<path fill="#2B5799" d="M80.2,39.9c0.2,0,0.2-0.1,0.2-0.2c0,0.1,0.1,0.1,0.1,0.1c0-0.1,0.1-0.1,0.2-0.1s0.2,0,0.2,0s0,0,0.1,0h0.1
		h0.1h0.1c0,0,0.1,0,0.2,0s0.2,0,0.2,0h0.1h0.1H82c0,0,0.1,0,0.1-0.1c0.3,0,0.4,0.1,0.4,0.1c0.1,0,0.1,0,0.2,0h0.1h0.1
		c0.1,0,0.1,0,0.2,0h0.1h0.1c0.1,0,0.1,0,0.1,0s0,0,0.1,0.1h0.1c0,0,0,0,0.1,0h0.1c0.1,0,0.1,0,0.1,0s0,0.1,0.1,0.1c0,0,0,0,0.1,0
		h0.1c0.1,0,0.1,0,0.2,0s0.2,0,0.2,0l0.1,0.1c0.1,0,0.1,0,0.2-0.1l0,0l0,0c0.1,0,0.2,0,0.4,0.1c0.2,0.1,0.3,0.1,0.5,0
		c0.1-0.1,0.1-0.1,0.1-0.1V40c0.1,0.1,0.1,0.1,0.1,0.1h0.1c0.1,0,0.1,0,0.1,0s0,0,0.1,0c0.1,0.1,0.1,0.1,0.1,0
		c0,0.1,0.1,0.1,0.1,0.1c0.1-0.1,0.1,0,0.2,0c0.1-0.1,0.1-0.1,0.3-0.1v0.1c0,0,0.1,0.1,0.4,0.1c0,0.1,0.1,0.1,0.2,0.1
		s0.2,0.1,0.2,0.1h0.1c0.3,0.3,0.5,0.5,0.6,0.7h0.1c0,0.1,0.1,0.2,0.1,0.3c0.1,0,0.1,0.1,0.2,0.1c0,0.1,0.1,0.1,0.2,0.2
		c0.1,0.1,0.1,0.1,0.1,0.2c0,0.1,0,0.1,0.1,0.2c0,0.1,0.1,0.1,0.1,0.2c0.1,0.1,0.1,0.2,0.1,0.2c0,0.1,0,0.1,0,0.1s0,0,0,0.1
		s0,0.1,0.1,0.1c0,0.2,0,0.3,0,0.3s0,0,0,0.1v0.1c0,0,0,0.1,0,0.2c0,0.1,0,0.2,0.1,0.2l0,0l0,0v0.1c0,0,0,0-0.1,0c0,0.1,0,0.1,0,0.2
		c0,0.1,0,0.2,0,0.2v0.1c0,0.1,0,0.2,0,0.4s0,0.3,0,0.3c0,0.1-0.1,0.1-0.1,0.2c0,0.1,0,0.2,0,0.2c-0.1,0.1-0.1,0.1-0.1,0.1
		c0,0.1,0,0.1-0.1,0.2c0,0.1,0,0.1,0,0.1c-0.1,0.1-0.1,0.2-0.1,0.3c0,0-0.1,0.1-0.1,0.2C89,46.5,89,46.6,89,46.7v0.1v0.1V47
		c-0.2,0.1-0.3,0.4-0.3,0.7l0,0l0,0c0,0-0.1,0.1-0.1,0.2c-0.2,0.3-0.3,0.4-0.4,0.5S88,48.5,88,48.7c-0.2,0.2-0.4,0.4-0.5,0.6
		c-0.1,0-0.1,0.1-0.2,0.2l-0.1,0.1c-0.1,0.1-0.1,0.1-0.1,0.1C87,50.4,87,50.5,87,50.5c0,0.1,0,0.1,0,0.1l0.1,0.1l0.1,0.1l0.1,0.1
		c0,0,0,0,0,0.1c0,0,0,0,0.1,0s0.1,0,0.1,0s0,0,0.1,0.1l0.1,0.1c0,0,0,0,0.1,0v0.1h0.1c0.1,0.1,0.1,0.1,0.2,0.1
		c0,0.1,0.1,0.1,0.2,0.2c0.1,0.1,0.1,0.1,0.2,0.2h0.1c0,0,0,0,0.1,0.1c0,0,0,0.1,0.1,0.1h0.1c0,0,0,0.1,0.1,0.1
		c0.1,0.1,0.1,0.2,0.2,0.2c0,0.1,0.1,0.1,0.2,0.1c0.1,0.2,0.2,0.3,0.3,0.2c0,0,0,0.1,0.1,0.2c0.2,0.1,0.3,0.3,0.4,0.5h0.1
		c0.2,0.2,0.3,0.3,0.3,0.3c0,0.1,0.1,0.1,0.2,0.1s0.1,0.1,0.1,0.2c0,0,0.1,0,0.1,0.1c0.1,0.1,0.1,0.1,0.1,0.1
		c0.1,0.1,0.2,0.2,0.3,0.4c0.2,0.2,0.3,0.3,0.3,0.4h0.1c0.1,0.1,0.2,0.2,0.2,0.3c0,0,0,0,0.1,0c0,0,0,0,0.1,0c0,0.1,0.1,0.2,0.3,0.3
		c0.1,0.1,0.1,0.1,0.2,0c0.1,0,0.2,0,0.2,0c0.1,0.1,0.2,0.1,0.2,0.1c0-0.1,0.1-0.1,0.1-0.1s0,0,0.1,0.1c0.1-0.1,0.2,0,0.3,0.1
		c0.1,0.1,0.1,0.2,0.1,0.2V56h0.1c0,0,0,0.1,0.1,0.2c0,0.1,0.1,0.2,0.1,0.2v0.2v0.1v0.1l0.1,0.1c0.1,0.1,0.1,0.1,0.1,0.1
		s0,0.1,0,0.2c0,0.3,0,0.4,0,0.4s0,0.1,0.1,0.2c0,0.1,0,0.2,0,0.4s0,0.3,0,0.4h-0.2L94,58.7c0,0.1-0.1,0.1-0.1,0.1s0,0,0,0.1
		c0,0-0.1,0-0.1,0.1s0.1,0.1,0,0.1c0,0,0,0.1-0.1,0.1s-0.1,0-0.1,0.1v0.1c0,0,0,0,0,0.1s-0.1,0.1-0.1,0s-0.1-0.1-0.1-0.1
		s-0.1,0-0.1,0.1c-0.1,0.1-0.1,0.1-0.2,0.1c-0.1-0.2-0.2-0.3-0.2-0.3s0,0-0.1,0c0,0,0,0-0.1,0c0-0.1,0-0.2-0.1-0.2c0,0,0,0-0.1,0
		l0,0c0,0,0,0,0-0.1s-0.1-0.1-0.1-0.2c0,0,0,0-0.1,0h-0.1c-0.1-0.2-0.2-0.3-0.3-0.4h-0.1c0,0-0.1-0.1-0.1-0.2
		c-0.1-0.1-0.2-0.2-0.3-0.2l-0.1-0.1c0-0.1-0.1-0.1-0.1-0.1c0,0.1-0.1,0.1-0.1,0.1s0,0,0-0.1s0-0.1,0-0.1s-0.1,0-0.1-0.1l-0.1-0.1
		c0-0.1-0.1-0.2-0.2-0.1c0-0.1,0-0.1,0-0.1c-0.1-0.1-0.2-0.3-0.2-0.3s-0.2-0.1-0.4-0.4l0,0l0,0c0-0.1,0-0.2-0.1-0.3
		c-0.1,0-0.2-0.1-0.3-0.3c0,0,0,0-0.1,0c0,0,0,0-0.1,0c0,0,0,0,0-0.1s0-0.1,0-0.1s0,0-0.1,0c0,0,0,0-0.1,0c0,0-0.1-0.1-0.1-0.2
		c0-0.1-0.1-0.1-0.1-0.1s0-0.1-0.1-0.1l-0.1-0.1c-0.1,0-0.1-0.1-0.2-0.2c-0.1-0.1-0.2-0.2-0.2-0.2h-0.1c0-0.1-0.1-0.2-0.2-0.2
		c0-0.1-0.1-0.1-0.2-0.3c0,0,0,0-0.1,0v-0.1l0,0l0,0c0,0,0,0-0.1-0.1h-0.1c-0.1,0-0.1,0-0.1,0s0,0-0.1-0.1c0-0.1-0.1-0.1-0.1-0.1
		c-0.1,0.1-0.1,0.1-0.1,0c0,0,0,0,0-0.1v-0.1c0,0,0,0-0.1,0c0,0,0,0-0.1,0v-0.1v-0.1H87l-0.1-0.1c0,0-0.1,0-0.1-0.1
		c-0.1-0.1-0.1-0.1-0.1,0c0-0.1-0.1-0.1-0.1-0.1c-0.1,0-0.1-0.1-0.1-0.1c-0.1,0-0.1,0-0.2-0.1c-0.1,0-0.2-0.1-0.2-0.2
		c0,0-0.1,0-0.2,0.1l0,0v-0.1c0,0-0.1,0-0.2,0c0,0,0,0,0-0.1c0,0,0,0,0-0.1c-0.2-0.2-0.3-0.2-0.4-0.2c-0.1-0.1-0.2-0.2-0.3-0.2
		c0,0-0.1-0.1-0.2-0.1c0,0,0,0-0.1-0.1c0,0-0.1,0.1-0.1,0.3s0,0.3,0,0.4v0.1V53c0,0,0,0,0,0.1s0,0.1,0,0.1c0,0.4,0,0.6,0.1,0.6v0.3
		v0.1c0,0,0,0.1,0.1,0.2c0,0.1,0,0.1,0,0.2c0,0.1,0,0.1,0,0.1s0,0.1,0.1,0.1c0,0.1,0,0.1,0.1,0.1c0,0.1,0,0.2,0,0.3s0,0.2,0,0.3
		c0,0,0,0,0,0.1s0,0,0,0.1c0,0.2,0,0.4,0,0.4c0,0.1,0,0.2,0.1,0.3c0,0,0,0.1,0,0.3s0,0.3,0,0.3s0,0,0.1,0s0,0.1,0,0.1
		c0,0.1,0,0.1-0.1,0.2v0.1c0,0,0,0.1,0,0.3c0,0.1,0,0.3,0,0.5c0,0.3,0,0.4,0,0.5v0.1l0,0c0,0,0,0,0,0.1s0,0.1-0.1,0.2
		c0,0.1-0.1,0.1-0.1,0.2h-0.1c-0.2,0.1-0.2,0.2-0.2,0.3l0,0l0,0c0,0,0,0,0,0.1l0,0c0,0,0,0,0-0.1c0,0-0.1,0-0.2,0
		C83.6,60,83.6,60,83.6,60c0-0.1,0-0.2-0.1-0.2s-0.2-0.1-0.3-0.3h-0.1H83c0-0.1,0-0.3-0.1-0.3c-0.1-0.1-0.2-0.2-0.2-0.2l0,0l0,0
		c0-0.1,0-0.2,0.1-0.2c0-0.1,0-0.1,0-0.2c0-0.1,0-0.1,0-0.1v-0.1c0,0,0-0.1-0.1-0.1c0,0,0,0-0.1,0c0,0,0-0.1,0.1-0.1
		c0.1-0.3,0-0.4,0-0.4v-0.4c0-0.1,0.1-0.2,0.1-0.3s0-0.2-0.1-0.3c0-0.1,0-0.2,0-0.4s0-0.3,0-0.3c0-0.1,0-0.1-0.1-0.1
		c0-0.1,0-0.2,0-0.3c0-0.2,0-0.3-0.1-0.3c0-0.1,0-0.1,0-0.2c0-0.1,0-0.2,0-0.2v-0.1c0-0.1,0-0.1,0-0.1c0-0.1,0-0.2,0-0.3
		s0-0.3,0-0.3c0-0.1,0-0.1-0.1-0.2c0-0.1,0-0.1-0.1-0.2c0-0.1,0-0.2,0-0.4s0-0.3,0-0.3c0-0.1,0-0.2-0.1-0.3c0,0,0-0.2,0-0.5v-0.1
		v-0.1V52c0-0.1,0-0.1,0-0.1v-0.1l0,0c0-0.1,0-0.2,0-0.3s0-0.2,0-0.3c0,0,0-0.1-0.1-0.2c0-0.1,0-0.1,0-0.3s0-0.2,0-0.3
		c0,0,0-0.1,0-0.2c0-0.1,0-0.1,0-0.1V50v-0.1c0-0.1,0-0.1,0-0.1v-0.1v-0.1c0-0.1-0.1-0.1-0.1-0.1c0-0.1,0-0.1,0-0.1l0,0l0,0v-0.2
		c0-0.1,0-0.2,0-0.4s0-0.3,0-0.4c0-0.1-0.1-0.1-0.1-0.1v-0.1v-0.1V48v-0.1c0-0.2,0-0.3-0.1-0.3v-0.1c0,0,0-0.2,0-0.4
		c0,0,0-0.1,0-0.2s0-0.2,0-0.2v-0.1v-0.1v-0.1v-0.1v-0.1c0-0.1,0-0.2,0-0.3s-0.1-0.2-0.1-0.4s0-0.3,0-0.3l0,0c0,0,0,0-0.1,0v-0.1
		l0,0c0-0.1,0-0.2,0-0.3s0-0.2,0-0.3v-0.1c0-0.2,0-0.3,0-0.3s0,0-0.1,0l0,0c0,0,0,0,0-0.1c0,0,0,0,0-0.1s0-0.1,0-0.3
		c0-0.1,0-0.2,0-0.3c0,0,0,0,0-0.1c0,0,0,0,0-0.1c0,0,0-0.1,0-0.2c0-0.1,0-0.1,0-0.2c-0.1,0-0.2,0-0.3-0.1c-0.1,0-0.2,0-0.2,0
		l-0.2-0.2c0-0.1-0.1-0.1-0.2-0.2c0,0,0-0.1-0.1-0.2c0-0.1-0.1-0.2-0.1-0.2c-0.1-0.1-0.1-0.2-0.2-0.2c0-0.1-0.1-0.2-0.1-0.3
		s0-0.2,0-0.4c0-0.1,0-0.2,0-0.4c0-0.1,0-0.1,0.1-0.3c0.1-0.1,0.1-0.2,0.1-0.3C80,40,80,40,80,40s0,0,0-0.1l0,0
		C80,39.9,80.1,39.9,80.2,39.9z M80.4,39.7C80.4,39.8,80.5,39.8,80.4,39.7c0.1,0,0.2,0,0.3,0c0.1,0,0.2,0,0.2,0s0,0,0.1,0h0.1h0.1
		h0.1c0,0,0.1,0,0.2,0s0.2,0,0.2,0h0.1h0.1H82c0,0,0.1,0,0.1-0.1c0.3,0,0.4,0.1,0.5,0.1c0,0,0.1,0,0.2,0h0.1H83c0.1,0,0.1,0,0.2,0
		h0.1h0.1c0.1,0,0.1,0,0.1,0s0,0,0.1,0h0.1c0,0,0,0,0.1,0h0.1c0.1,0,0.1,0,0.1,0s0,0.1,0.1,0.1c0,0,0,0,0.1,0h0.1c0.1,0,0.1,0,0.2,0
		s0.2,0,0.2,0l0.1,0.1c0.1,0,0.1,0,0.2-0.1l0,0l0,0c0.1,0,0.2,0,0.4,0.1c0.2,0.1,0.3,0.1,0.5,0c0.1-0.1,0.1-0.1,0.1-0.1v0.1
		c0.1,0.1,0.1,0.1,0.1,0.1h0.1c0.1,0,0.1,0,0.1,0s0,0,0.1,0c0.1,0.1,0.1,0.1,0.1,0c0,0.1,0.1,0.1,0.1,0.1c0.1-0.1,0.1,0,0.2,0
		c0.1-0.1,0.1-0.1,0.3-0.1v0.1c0,0,0.1,0.1,0.4,0.1c0,0.1,0.1,0.1,0.2,0.1s0.2,0.1,0.2,0.1H88c0.3,0.3,0.5,0.5,0.6,0.7h0.1
		c0,0.1,0.1,0.2,0.1,0.3c0.1,0,0.1,0.1,0.2,0.1c0,0.1,0.1,0.1,0.2,0.2c0.1,0.1,0.1,0.1,0.1,0.2c0,0.1,0,0.1,0.1,0.2
		c0,0.1,0.1,0.1,0.1,0.2c0.1,0.1,0.1,0.2,0.1,0.2c0,0.1,0,0.1,0,0.1s0,0,0,0.1s0,0.1,0.1,0.1c0,0.2,0,0.3,0,0.3s0,0,0,0.1v0.1
		c0,0,0,0.1,0,0.2c0,0.1,0,0.2,0.1,0.2l0,0l0,0v0.1c0,0,0,0-0.1,0c0,0.1,0,0.1,0,0.2c0,0.1,0,0.2,0,0.2v0.1c0,0.1,0,0.2,0,0.4
		s0,0.3,0,0.3c0,0.1-0.1,0.1-0.1,0.2c0,0.1,0,0.2,0,0.2c-0.1,0.1-0.1,0.1-0.1,0.1c0,0.1,0,0.1-0.1,0.2c0,0.1,0,0.1,0,0.1
		c-0.1,0.1-0.1,0.2-0.1,0.3c0,0-0.1,0.1-0.1,0.2c-0.1,0.1-0.1,0.2-0.1,0.3v0.1v0.1v0.1c-0.2,0.1-0.3,0.4-0.3,0.7l0,0l0,0
		c0,0-0.1,0.1-0.1,0.2c-0.2,0.3-0.3,0.4-0.4,0.5s-0.2,0.1-0.2,0.3c-0.2,0.2-0.4,0.4-0.5,0.6c-0.1,0-0.1,0.1-0.2,0.2l-0.1,0.1
		c-0.1,0.1-0.1,0.1-0.1,0.1C87,50.4,87,50.5,87,50.5c0,0.1,0,0.1,0,0.1l0.1,0.1l0.1,0.1l0.1,0.1c0,0,0,0,0,0.1c0,0,0,0,0.1,0
		s0.1,0,0.1,0s0,0,0.1,0.1l0.1,0.1c0,0,0,0,0.1,0v0.1h0.1c0.1,0.1,0.1,0.1,0.2,0.1c0,0.1,0.1,0.1,0.2,0.2c0.1,0.1,0.1,0.1,0.2,0.2
		h0.1c0,0,0,0,0.1,0.1c0,0,0,0.1,0.1,0.1h0.1c0,0,0,0.1,0.1,0.1c0.1,0.1,0.1,0.2,0.2,0.2c0,0.1,0.1,0.1,0.2,0.1
		c0.1,0.2,0.2,0.3,0.3,0.2c0,0,0,0.1,0.1,0.2c0.2,0.1,0.3,0.3,0.4,0.5h0.1c0.2,0.2,0.3,0.3,0.3,0.3c0,0.1,0.1,0.1,0.2,0.1
		s0.1,0.1,0.1,0.2c0,0,0.1,0,0.1,0.1c0.1,0.1,0.1,0.1,0.1,0.1c0.1,0.1,0.2,0.2,0.3,0.4c0.2,0.2,0.3,0.3,0.3,0.4h0.1
		c0,0,0.1,0,0.1,0.1s0.1,0.1,0.1,0.1s0,0,0.1,0c0,0,0,0,0.1,0c0,0.1,0.1,0.2,0.3,0.3c0.1,0.1,0.1,0.1,0.2,0c0.1,0,0.2,0,0.2,0
		c0.1,0.1,0.2,0.1,0.2,0.1c0-0.1,0.1-0.1,0.1-0.1s0,0,0.1,0.1c0.1-0.1,0.2,0,0.3,0.1c0.1,0.1,0.1,0.2,0.1,0.2v0.1h0.1
		c0,0,0,0.1,0.1,0.2c0,0.1,0.1,0.2,0.1,0.2v0.2v0.1v0.1l0.1,0.1c0.1,0.1,0.1,0.1,0.1,0.1s0,0.1,0,0.2c0,0.3,0,0.4,0,0.4
		s0,0.1,0.1,0.2c0,0.1,0,0.2,0,0.4s0,0.3,0,0.4h-0.2L94,58.6c0,0.1-0.1,0.1-0.1,0.1s0,0,0,0.1c0,0-0.1,0-0.1,0.1s0.1,0.1,0,0.1
		c0,0,0,0.1-0.1,0.1s-0.1,0-0.1,0.1v0.1c0,0,0,0,0,0.1s-0.1,0.1-0.1,0s-0.1-0.1-0.1-0.1s-0.1,0-0.1,0.1c-0.1,0.1-0.1,0.1-0.2,0.1
		c-0.1-0.2-0.2-0.3-0.2-0.3s0,0-0.1,0c0,0,0,0-0.1,0c0-0.1,0-0.2-0.1-0.2c0,0,0,0-0.1,0l0,0c0,0,0,0,0-0.1s-0.1-0.1-0.1-0.2
		c0,0,0,0-0.1,0h-0.1c-0.1-0.2-0.2-0.3-0.3-0.4h-0.1c0,0-0.1-0.1-0.1-0.2c-0.1-0.1-0.2-0.2-0.3-0.2l-0.1-0.1c0-0.1-0.1-0.1-0.1-0.1
		c0,0.1-0.1,0.1-0.1,0.1s0,0,0-0.1s0-0.1,0-0.1s-0.1,0-0.1-0.1l-0.1-0.1c0-0.1-0.1-0.2-0.2-0.1c0-0.1,0-0.1,0-0.1
		c-0.1-0.1-0.2-0.3-0.2-0.3s-0.2-0.1-0.4-0.4l0,0l0,0c0-0.1,0-0.2-0.1-0.3c-0.1,0-0.2-0.1-0.3-0.3c0,0,0,0-0.1,0c0,0,0,0-0.1,0
		c0,0,0,0,0-0.1s0-0.1,0-0.1s0,0-0.1,0c0,0,0,0-0.1,0c0,0-0.1-0.1-0.1-0.2c0-0.1-0.1-0.1-0.1-0.1s0-0.1-0.1-0.1l-0.1-0.1
		c-0.1,0-0.1-0.1-0.2-0.2c-0.1-0.1-0.2-0.2-0.2-0.2h-0.1c0-0.1-0.1-0.2-0.2-0.2c0-0.1-0.1-0.1-0.2-0.3c0,0,0,0-0.1,0v-0.1l0,0l0,0
		c0,0,0,0-0.1-0.1h-0.1c-0.1,0-0.1,0-0.1,0s0,0-0.1-0.1c0-0.1-0.1-0.1-0.1-0.1c-0.1,0.1-0.1,0.1-0.1,0c0,0,0,0,0-0.1v-0.1
		c0,0,0,0-0.1,0c0,0,0,0-0.1,0v-0.1v-0.1H87l-0.1-0.1c0,0-0.1,0-0.1-0.1c-0.1-0.1-0.1-0.1-0.1,0c0-0.1-0.1-0.1-0.1-0.1
		c-0.1,0-0.1-0.1-0.1-0.1c-0.1,0-0.1,0-0.2-0.1c-0.1,0-0.2-0.1-0.2-0.2c0,0-0.1,0-0.2,0.1l0,0v-0.1c0,0-0.1,0-0.2,0c0,0,0,0,0-0.1
		c0,0,0,0,0-0.1c-0.2-0.2-0.3-0.2-0.4-0.2c-0.1-0.1-0.2-0.2-0.3-0.2c0,0-0.1-0.1-0.2-0.1c0,0,0,0-0.1-0.1c0,0-0.1,0.1-0.1,0.3
		s0,0.3,0,0.4v0.1v0.1c0,0,0,0,0,0.1s0,0.1,0,0.1c0,0.4,0,0.6,0.1,0.6V54v0.1c0,0,0,0.1,0.1,0.2c0,0.1,0,0.1,0,0.2
		c0,0.1,0,0.1,0,0.1s0,0.1,0.1,0.1c0,0.1,0,0.1,0.1,0.1c0,0.1,0,0.2,0,0.3s0,0.2,0,0.3c0,0,0,0,0,0.1s0,0,0,0.1c0,0.2,0,0.4,0,0.4
		c0,0.1,0,0.2,0.1,0.3c0,0,0,0.1,0,0.3s0,0.3,0,0.3s0,0,0.1,0s0,0.1,0,0.1c0,0.1,0,0.1-0.1,0.2v0.1c0,0,0,0.1,0,0.3
		c0,0.1,0,0.3,0,0.5c0,0.3,0,0.4,0,0.5v0.1l0,0c0,0,0,0,0,0.1s0,0.1-0.1,0.2c0,0.1-0.1,0.1-0.1,0.2h-0.1c-0.2,0.1-0.2,0.2-0.2,0.3
		l0,0l0,0c0,0,0,0,0,0.1l0,0c0,0,0,0,0-0.1c0,0-0.1,0-0.2,0C83.6,60,83.6,60,83.6,60c0-0.1,0-0.2-0.1-0.2s-0.2-0.1-0.3-0.3h-0.1H83
		c0-0.1,0-0.3-0.1-0.3c-0.1-0.1-0.2-0.2-0.2-0.2l0,0l0,0c0-0.1,0-0.2,0.1-0.2c0-0.1,0-0.1,0-0.2c0-0.1,0-0.1,0-0.1v-0.1
		c0,0,0-0.1-0.1-0.1c0,0,0,0-0.1,0c0,0,0-0.1,0.1-0.1c0.1-0.3,0-0.4,0-0.4v-0.4c0-0.1,0.1-0.2,0.1-0.3s0-0.2-0.1-0.3
		c0-0.1,0-0.2,0-0.4s0-0.3,0-0.3c0-0.1,0-0.1-0.1-0.1c0-0.1,0-0.2,0-0.3c0-0.2,0-0.3-0.1-0.3c0-0.1,0-0.1,0-0.2c0-0.1,0-0.2,0-0.2
		v-0.1c0-0.1,0-0.1,0-0.1c0-0.1,0-0.2,0-0.3s0-0.3,0-0.3c0-0.1,0-0.1-0.1-0.2c0-0.1,0-0.1-0.1-0.2c0-0.1,0-0.2,0-0.4s0-0.3,0-0.3
		c0-0.1,0-0.2-0.1-0.3c0,0,0-0.2,0-0.5v-0.1v-0.1V52c0-0.1,0-0.1,0-0.1v-0.1l0,0c0-0.1,0-0.2,0-0.3s0-0.2,0-0.3c0,0,0-0.1-0.1-0.2
		c0-0.1,0-0.1,0-0.3s0-0.2,0-0.3c0,0,0-0.1,0-0.2c0-0.1,0-0.1,0-0.1V50v-0.1c0-0.1,0-0.1,0-0.1v-0.1v-0.1c0-0.1-0.1-0.1-0.1-0.1
		c0-0.1,0-0.1,0-0.1l0,0l0,0v-0.2c0-0.1,0-0.2,0-0.4s0-0.3,0-0.4c0-0.1-0.1-0.1-0.1-0.1v-0.1v-0.1V48v-0.1c0-0.2,0-0.3-0.1-0.3v-0.1
		c0,0,0-0.2,0-0.4c0,0,0-0.1,0-0.2s0-0.2,0-0.2v-0.1v-0.1v-0.1v-0.1v-0.1c0-0.1,0-0.2,0-0.3s-0.1-0.2-0.1-0.4s0-0.3,0-0.3l0,0
		c0,0,0,0-0.1,0v-0.1l0,0c0-0.1,0-0.2,0-0.3s0-0.2,0-0.3v-0.1c0-0.2,0-0.3,0-0.3s0,0-0.1,0l0,0c0,0,0,0,0-0.1c0,0,0,0,0-0.1
		s0-0.1,0-0.3c0-0.1,0-0.2,0-0.3c0,0,0,0,0-0.1c0,0,0,0,0-0.1c0,0,0-0.1,0-0.2c0-0.1,0-0.1,0-0.2c-0.1,0-0.2,0-0.3-0.1
		c-0.1,0-0.2,0-0.2,0l-0.2-0.2c0-0.1-0.1-0.1-0.2-0.2c0,0,0-0.1-0.1-0.2c0-0.1-0.1-0.2-0.1-0.2c-0.1-0.1-0.1-0.2-0.2-0.2
		c0-0.1-0.1-0.2-0.1-0.3s0-0.2,0-0.4c0-0.1,0-0.2,0-0.4c0-0.1,0-0.1,0.1-0.3c0.1-0.1,0.1-0.2,0.1-0.3C80,40,80,40,80,40s0,0,0-0.1
		l0,0c0,0,0.1,0,0.2,0C80.3,39.9,80.4,39.9,80.4,39.7z M83.2,42.9c0,0,0,0.1,0,0.4v0.1v0.1c0,0.1,0,0.1,0.1,0.2
		c0,0.1,0.1,0.1,0.1,0.2V44v0.1c0,0.1,0,0.2,0,0.3s0,0.3,0,0.3c0.1,0.1,0.1,0.2,0.1,0.3s0,0.2,0,0.2v0.1c0,0.1,0,0.1,0,0.2
		s0,0.1,0,0.2c0,0.1,0,0.2,0,0.2c0,0.2,0,0.3,0,0.3v0.1v0.1c0,0,0,0.1,0,0.3c0,0.1,0,0.1,0,0.2c0,0.1,0,0.1,0,0.1v0.1v0.1
		c0,0.1,0,0.1,0,0.3c0,0.1,0,0.2,0,0.3v0.1l0,0c0,0.1,0,0.2,0,0.3s0,0.3,0.1,0.3c-0.1,0.1-0.1,0.2,0,0.4c0,0.1,0,0.2,0.1,0.2
		c0,0,0.1,0,0.2,0s0.2,0,0.2,0V49c0,0,0,0,0.1,0s0,0,0.1,0h0.1c0,0,0,0,0.1,0s0.2-0.1,0.3-0.1c0,0,0,0,0.1,0c0-0.1,0.1-0.1,0.3-0.1
		c0.1,0,0.1,0,0.1,0c0.1,0,0.1-0.1,0.2-0.1c0-0.1,0.1-0.1,0.1-0.1s0,0,0.1,0s0.1-0.1,0.2-0.2c0.1-0.1,0.1-0.1,0.1-0.2
		c0.1,0,0.2-0.1,0.3-0.3c0.1-0.2,0.2-0.2,0.3-0.3c0.2-0.3,0.3-0.4,0.4-0.4c0-0.1,0.1-0.2,0.1-0.3c0.1-0.1,0.1-0.2,0.1-0.2
		c0.1-0.1,0.2-0.2,0.2-0.5c0.1-0.3,0.1-0.4,0.2-0.5c0-0.1,0-0.2,0.1-0.3c0-0.1,0.1-0.2,0-0.3c0.1-0.2,0.2-0.4,0.1-0.6
		c0,0,0-0.1,0-0.3c0-0.1-0.1-0.1-0.2-0.2c-0.1-0.1-0.1-0.1-0.2-0.2c0,0-0.1,0-0.1-0.1c-0.1,0-0.1,0-0.1,0c0-0.1-0.1-0.1-0.2-0.1
		s-0.1,0-0.1,0s0,0-0.1-0.1l-0.1-0.1c0,0,0,0-0.1,0h-0.1c0,0,0,0-0.1-0.1c0-0.1-0.1-0.1-0.2,0c-0.1,0-0.2,0-0.2,0
		c-0.2-0.1-0.2-0.1-0.2,0c0-0.1-0.2-0.2-0.3-0.1c-0.1,0-0.2,0-0.2,0c-0.1,0-0.2,0-0.2,0s0,0-0.1,0c0,0,0-0.1-0.1-0.1
		c-0.2,0-0.2,0-0.3,0h-0.1c0,0-0.1,0-0.3,0c0,0,0,0-0.1-0.1L84,42.9c-0.1,0-0.2,0-0.3,0c0,0-0.1,0-0.2-0.1c-0.1,0-0.2,0-0.2,0
		C83.3,42.9,83.3,42.9,83.2,42.9z M83.8,43c0,0-0.1,0-0.2-0.1c-0.1,0-0.2,0-0.2,0c-0.1,0-0.2,0-0.2,0s0,0.1,0,0.4v0.1v0.1
		c0,0.1,0,0.1,0.1,0.2c0,0.1,0.1,0.1,0.1,0.2V44v0.1c0,0.1,0,0.2,0,0.3s0,0.3,0,0.3c0.1,0.1,0.1,0.2,0.1,0.3s0,0.2,0,0.2v0.1
		c0,0.1,0,0.1,0,0.2s0,0.1,0,0.2c0,0.1,0,0.2,0,0.2c0,0.2,0,0.3,0,0.3v0.1v0.1c0,0,0,0.1,0,0.3c0,0.1,0,0.1,0,0.2c0,0.1,0,0.1,0,0.1
		v0.1v0.1c0,0.1,0,0.1,0,0.3c0,0.1,0,0.2,0,0.3v0.1l0,0c0,0.1,0,0.2,0,0.3s0,0.3,0.1,0.3c-0.1,0.1-0.1,0.2,0,0.4
		c0,0.1,0,0.2,0.1,0.2c0,0,0.1,0,0.2,0s0.2,0,0.2,0V49c0,0,0,0,0.1,0s0,0,0.1,0h0.1c0,0,0,0,0.1,0s0.2-0.1,0.3-0.1c0,0,0,0,0.1,0
		c0-0.1,0.1-0.1,0.3-0.1c0.1,0,0.1,0,0.1,0c0.1,0,0.1-0.1,0.2-0.1c0-0.1,0.1-0.1,0.1-0.1s0,0,0.1,0s0.1-0.1,0.2-0.2
		c0.1-0.1,0.1-0.1,0.1-0.2c0.1,0,0.2-0.1,0.3-0.3c0.1-0.2,0.2-0.2,0.3-0.3c0.2-0.3,0.3-0.4,0.4-0.4c0-0.1,0.1-0.2,0.1-0.3
		c0.1-0.1,0.1-0.2,0.1-0.2c0.1-0.1,0.2-0.2,0.2-0.5c0.1-0.3,0.1-0.4,0.2-0.5c0-0.1,0-0.2,0.1-0.3c0-0.1,0.1-0.2,0-0.3
		c0.1-0.2,0.2-0.4,0.1-0.6c0,0,0-0.1,0-0.3c0-0.1-0.1-0.1-0.2-0.2c-0.1-0.1-0.1-0.1-0.2-0.2c0,0-0.1,0-0.1-0.1c-0.1,0-0.1,0-0.1,0
		c0-0.1-0.1-0.1-0.2-0.1s-0.1,0-0.1,0s0,0-0.1-0.1l-0.1-0.1c0,0,0,0-0.1,0h-0.1c0,0,0,0-0.1-0.1c0-0.1-0.1-0.1-0.2,0
		c-0.1,0-0.2,0-0.2,0c-0.2-0.1-0.2-0.1-0.2,0c0-0.1-0.2-0.2-0.3-0.1c-0.1,0-0.2,0-0.2,0c-0.1,0-0.2,0-0.2,0s0,0-0.1,0
		c0,0,0-0.1-0.1-0.1c-0.2,0-0.2,0-0.3,0h-0.1c0,0-0.1,0-0.3,0c0,0,0,0-0.1-0.1L84,42.9C84,42.9,83.9,42.9,83.8,43z M93.6,58.8
		C93.6,58.9,93.6,58.9,93.6,58.8L93.6,58.8L93.6,58.8L93.6,58.8z M93.6,58.8L93.6,58.8L93.6,58.8C93.6,58.9,93.6,58.9,93.6,58.8
		L93.6,58.8z"/>
</g>
</svg>
