<?xml version="1.0" encoding="utf-8"?>
<!-- Generator: Adobe Illustrator 19.0.1, SVG Export Plug-In . SVG Version: 6.00 Build 0)  -->
<svg version="1.1" id="Layer_1" xmlns="http://www.w3.org/2000/svg" xmlns:xlink="http://www.w3.org/1999/xlink" x="0px" y="0px"
	 viewBox="0 0 100 100" enable-background="new 0 0 100 100" xml:space="preserve">
<g>
	<path fill="#2B5799" d="M9.3,39.2c0,0,0,0.1,0.1,0.1c0,0,0,0.1,0.1,0.1c0.2,0,0.3,0,0.4,0.1c0,0,0.1,0,0.2,0
		c0.1,0.1,0.1,0.1,0.1,0.1s0,0,0.1,0c0,0,0,0,0.1,0c0,0,0.1,0,0.2,0c0.1,0,0.1,0,0.2,0h0.1c0,0,0,0,0.1,0c0,0,0,0,0.1,0
		c0,0,0,0,0.1,0h0.1h0.1h0.1c0,0,0,0,0.1,0c0,0,0,0,0.1,0c0.2,0.1,0.3,0.1,0.3,0.1c0-0.1,0.1-0.1,0.2-0.1c0,0.1,0.1,0.2,0.1,0.2
		c0.1,0.1,0.3,0.1,0.4,0c0-0.1,0.1-0.1,0.1-0.1s0.1,0.1,0.1,0.2c0,0,0.1,0.1,0.2,0.1c0.1,0,0.2,0,0.2,0.1c0,0,0,0,0.1,0
		c0,0,0,0,0.1,0l0.1,0.1H14c0,0,0.1,0.1,0.2,0.1c0.1,0,0.2,0.1,0.2,0.1c0.1,0,0.2,0,0.4,0s0.3,0,0.4,0v0.1c0,0,0,0,0.1,0
		s0.3,0,0.4-0.1c0,0,0,0,0,0.1l0,0c0,0,0.1,0.1,0.2,0.1s0.2,0.1,0.2,0.1h0.1c0.1,0,0.1,0,0.1,0s0,0,0.1,0c0,0,0,0,0.1,0v0.1
		c0,0.1,0.1,0.1,0.2,0.1h0.1l0.1,0.1c0.1,0,0.2,0,0.3,0c0.1,0,0.2,0,0.2,0s0.1,0.1,0.2,0.2c0,0.1,0.1,0.1,0.1,0.1h0.1
		c0.1,0,0.1-0.1,0.2,0c0,0.2,0.1,0.3,0.2,0.2c0,0.1,0.1,0.1,0.2,0.2c0.1,0.1,0.2,0.1,0.2,0.2c0.1,0,0.2,0,0.3,0.2
		c0,0.1,0,0.1,0.1,0.1h0.1c0,0,0.1,0.1,0.1,0.2c0.1,0.1,0.1,0.2,0.1,0.2c0.1,0.1,0.2,0.1,0.2,0.1v0.1v0.1c0,0.1,0.1,0.1,0.1,0.2
		c0.1,0,0.2,0.1,0.2,0.1s0,0.1,0,0.2c0,0.1,0,0.1,0.1,0.2c0,0,0.1,0.1,0.1,0.2l0.1,0.1c0,0.2,0,0.3,0.1,0.4c0,0,0,0.1,0,0.3
		s0,0.3,0.1,0.3c0,0,0,0.1,0,0.2c0,0.1,0,0.2,0,0.2c0,0.1,0,0.2,0,0.2s0,0.1,0,0.2s0,0.1,0,0.2c0,0,0,0.2,0,0.6h-0.1
		c0,0.1,0,0.2,0,0.3s0,0.2,0,0.2s0,0.1-0.1,0.1c0,0.2,0,0.3-0.1,0.4c-0.1,0.1-0.1,0.2-0.1,0.3c-0.1,0.1-0.2,0.3-0.4,0.7
		c0,0-0.1,0-0.1,0.1v0.1c0,0,0,0.1-0.1,0.1c0,0,0,0-0.1,0c0,0,0,0.1-0.1,0.1C19.1,49,19,49,19,49c-0.1,0-0.2,0.2-0.2,0.6
		c-0.2,0.1-0.3,0.2-0.4,0.4c-0.2,0.2-0.3,0.4-0.3,0.5s-0.1,0.2-0.2,0.3S17.7,51,17.7,51h-0.1l-0.3,0.5H17c0,0-0.1,0.1-0.2,0.2
		c-0.1,0.1-0.2,0.2-0.3,0.2c0,0.1-0.1,0.2-0.2,0.3s-0.2,0.2-0.2,0.2s-0.1,0-0.2,0.1c0,0,0,0-0.1,0c0,0,0,0-0.1,0
		c0,0-0.1,0.1-0.3,0.3c-0.1,0-0.2,0-0.3,0.1C15.1,53,15,53,15,53l0,0c0,0,0,0-0.1,0c0,0-0.1,0.1-0.1,0.2c-0.1,0.1-0.1,0.1-0.2,0.1
		c-0.1,0-0.1,0-0.2,0.1c-0.1,0.1-0.1,0.1-0.2,0.1c0,0,0,0-0.1,0.1H14h-0.1c0,0.1-0.2,0.2-0.4,0.3c-0.1,0-0.2,0-0.2,0
		c0,0.1,0,0.2,0.1,0.3s0.1,0.2,0,0.3v0.1c0,0,0,0,0,0.1v0.1v0.1V55v0.1c0,0.1,0,0.2,0,0.4s0,0.3,0,0.4c0,0,0,0.1,0.1,0.2
		c0,0.1,0.1,0.1,0.1,0.2c0,0.1,0,0.2,0,0.2v0.1v0.1c0,0,0,0.1,0.1,0.1c0,0,0,0,0,0.1c0,0,0,0.2,0,0.6l0.1,0.1c0,0,0,0.1,0,0.2
		s0,0.1-0.1,0.2c0,0.2,0,0.4,0.1,0.4c0,0,0,0,0.1,0c-0.1,0.1-0.1,0.3,0,0.5c0,0.1,0,0.2,0,0.2s0,0,0.1,0l0,0c0,0.1,0,0.2,0,0.4
		c-0.1,0.1-0.1,0.2-0.1,0.4s0,0.4,0,0.5h-0.1c0,0,0,0-0.1,0c0,0-0.1,0.1-0.1,0.2s0,0.2,0,0.2c0,0.1-0.1,0.1-0.2,0.2
		c-0.1,0.1-0.2,0.2-0.2,0.2c0,0.1-0.1,0.2-0.1,0.1c0-0.2,0-0.2,0-0.3c-0.1,0-0.2,0.1-0.4,0.2c-0.1,0.1-0.1,0.1-0.1,0.1
		c-0.1-0.2-0.1-0.2-0.1-0.3c0,0,0,0-0.1,0c0,0,0,0.1-0.1,0c0-0.1-0.1-0.1-0.1-0.2c0-0.1-0.1-0.1-0.1-0.2c0,0-0.1,0.1-0.1,0.2
		c-0.1-0.2-0.2-0.2-0.2-0.3c0-0.2-0.1-0.3-0.1-0.3H12c-0.1-0.1-0.2-0.2-0.2-0.4c0-0.1,0-0.2,0-0.2s0-0.1-0.1-0.1l-0.1-0.1v-0.1
		c0-0.1,0-0.1-0.1-0.3c0-0.1-0.1-0.2-0.1-0.2s0-0.1-0.1-0.1c0-0.1,0-0.1,0-0.2c0-0.1,0-0.2,0-0.2s0-0.1-0.1-0.1
		c0-0.1-0.1-0.1-0.1-0.1c0-0.1,0-0.2,0-0.4s0-0.3,0-0.4c0,0-0.1-0.1-0.1-0.3s0.2,0,0.2,0v-0.1c0,0,0,0,0.1,0s0,0,0,0s0-0.1,0-0.3
		s0-0.3,0-0.4v-0.1V56c0,0,0-0.1,0-0.2c-0.1,0-0.1-0.1-0.1-0.4c0-0.2,0-0.4,0-0.4v-0.1c0-0.2-0.1-0.4-0.1-0.4c0-0.2,0-0.4,0-0.7
		c0,0-0.1,0-0.1-0.1s-0.1-0.1-0.1-0.1v-0.1l0,0c0,0,0-0.1,0-0.2s0-0.2,0-0.2L10.8,53l-0.1-0.1c0.1-0.2,0-0.3-0.2-0.3
		c0-0.1,0-0.2,0.1-0.3c0-0.3-0.1-0.4-0.1-0.4v-0.1c0,0,0-0.1,0.1-0.1c0-0.1,0-0.2-0.1-0.3c0-0.1,0-0.2,0-0.3s-0.1-0.2-0.1-0.2
		s0,0,0-0.1v-0.1c0-0.1,0-0.2,0-0.4c0-0.1,0-0.2,0-0.2c0-0.1,0-0.1,0-0.2c0-0.1,0-0.1-0.1-0.1v-0.1v-0.1c0-0.1,0-0.2-0.1-0.4
		c0-0.2,0-0.4-0.1-0.5c-0.1,0.1-0.1,0.1-0.1,0s0-0.1,0-0.1s0,0,0-0.1c0,0,0-0.1,0-0.2c0-0.1,0-0.2,0-0.2V48v-0.1v-0.1v-0.1
		c0-0.2-0.1-0.3-0.2-0.4c0.1-0.4,0-0.6-0.1-0.6v-0.1c0-0.1,0-0.1,0-0.1c0-0.1,0-0.1,0-0.1s0,0,0-0.1v-0.1c0,0,0,0,0-0.1V46
		c0-0.2,0-0.4-0.1-0.4c0-0.6-0.1-0.9-0.1-1s-0.1-0.2-0.1-0.2c0-0.1,0-0.2,0-0.3s0-0.2,0-0.3s-0.1-0.1-0.1-0.1s0-0.1,0-0.3
		c0-0.1,0-0.3,0-0.3C9.3,43,9.4,43,9.5,43c0-0.1,0-0.1,0.1-0.2c0-0.1,0.1-0.1,0.1-0.1c0-0.1,0-0.1-0.1-0.1H9.5H9.4
		c-0.1,0-0.1-0.1-0.1-0.1c-0.1,0-0.2,0-0.2-0.1c0,0-0.1,0-0.2,0c-0.1-0.1-0.1-0.1-0.2-0.1c0,0,0-0.1-0.1-0.2H8.5
		c0-0.1-0.1-0.2-0.1-0.3C8.1,41.6,8,41.5,8,41.4H7.9c0-0.1-0.1-0.2-0.1-0.2C7.7,41.1,7.7,41,7.6,41c0,0,0-0.1,0-0.2
		c0-0.1,0-0.1,0-0.2c0-0.1,0-0.1,0-0.1v-0.1v-0.1c0,0,0,0,0-0.1v-0.1c0-0.1,0-0.1,0-0.2c0-0.1,0-0.2,0-0.2c0-0.1,0.1-0.1,0.2-0.2
		c0.2,0,0.2-0.1,0.3-0.2v-0.1c0,0,0-0.1,0.1-0.1s0.2,0,0.2,0h0.1c0,0,0.1,0,0.2,0c0.1,0,0.2,0,0.2,0c0-0.1,0.1-0.1,0.2,0
		S9.2,39.2,9.3,39.2z M9.4,39.3c0.2,0,0.3,0,0.4,0.1c0,0,0.1,0,0.2,0c0.1,0.1,0.1,0.1,0.1,0.1s0,0,0.1,0c0,0,0,0,0.1,0
		c0,0,0.1,0,0.2,0c0.1,0,0.1,0,0.2,0h0.1c0,0,0,0,0.1,0c0,0,0,0,0.1,0c0,0,0,0,0.1,0h0.1h0.1h0.1c0,0,0,0,0.1,0c0,0,0,0,0.1,0
		c0.2,0.1,0.3,0.1,0.3,0.1c0-0.1,0.1-0.1,0.2-0.1c0,0.1,0.1,0.2,0.1,0.2c0.1,0.1,0.3,0.1,0.4,0c0-0.1,0.1-0.1,0.1-0.1
		s0.1,0.1,0.1,0.2c0,0,0.1,0.1,0.2,0.1c0.1,0,0.2,0,0.2,0.1c0,0,0,0,0.1,0c0,0,0,0,0.1,0l0.1,0.1h0.4c0,0,0.1,0.1,0.2,0.1
		c0.1,0,0.2,0.1,0.2,0.1c0.1,0,0.2,0,0.4,0s0.3,0,0.4,0v0.1c0,0,0,0,0.1,0s0.3,0,0.4-0.1c0,0,0,0,0,0.1l0,0c0,0,0.1,0.1,0.2,0.1
		c0.1,0,0.2,0.1,0.2,0.1h0.1c0.1,0,0.1,0,0.1,0s0,0,0.1,0c0,0,0,0,0.1,0v0.1c0,0.1,0.1,0.1,0.2,0.1h0.1l0.1,0.1c0.1,0,0.2,0,0.3,0
		c0.1,0,0.2,0,0.2,0s0.1,0.1,0.2,0.2c0,0.1,0.1,0.1,0.1,0.1h0.1c0.1,0,0.1-0.1,0.2,0c0,0.2,0.1,0.3,0.2,0.2c0,0.1,0.1,0.1,0.2,0.2
		c0.1,0.1,0.2,0.1,0.2,0.2c0.1,0,0.2,0,0.3,0.2c0,0.1,0,0.1,0.1,0.1l0,0c0,0,0,0,0.1,0c0,0,0.1,0.1,0.1,0.2c0.1,0.1,0.1,0.2,0.1,0.2
		c0.1,0.1,0.2,0.1,0.2,0.1v0.1v0.1c0,0.1,0.1,0.1,0.1,0.2c0.1,0,0.2,0.1,0.2,0.1s0,0.1,0,0.2c0,0.1,0,0.1,0.1,0.2
		c0,0,0.1,0.1,0.1,0.2l0.1,0.1c0,0.2,0,0.3,0.1,0.4c0,0,0,0.1,0,0.3s0,0.3,0.1,0.3c0,0,0,0.1,0,0.2c0,0.1,0,0.2,0,0.2
		c0,0.1,0,0.2,0,0.2s0,0.1,0,0.2s0,0.1,0,0.2c0,0,0,0.2,0,0.6h-0.1c0,0.1,0,0.2,0,0.3s0,0.2,0,0.2s0,0.1-0.1,0.1
		c0,0.2,0,0.3-0.1,0.4c-0.1,0.1-0.1,0.2-0.1,0.3c-0.1,0.1-0.2,0.3-0.4,0.7c0,0-0.1,0-0.1,0.1v0.1c0,0,0,0.1-0.1,0.1c0,0,0,0-0.1,0
		c0,0,0,0.1-0.1,0.1c0,0.1-0.1,0.1-0.1,0.1c-0.1,0-0.2,0.2-0.2,0.6c-0.2,0.1-0.3,0.2-0.4,0.4c-0.2,0.2-0.3,0.4-0.3,0.5
		s-0.1,0.2-0.2,0.3s-0.2,0.2-0.2,0.2h-0.1l-0.3,0.5H17c0,0-0.1,0.1-0.2,0.2c-0.1,0.1-0.2,0.2-0.3,0.2c0,0.1-0.1,0.2-0.2,0.3
		s-0.2,0.2-0.2,0.2s-0.1,0-0.2,0.1c0,0,0,0-0.1,0c0,0,0,0-0.1,0c0,0-0.1,0.1-0.3,0.3c-0.1,0-0.2,0-0.3,0.1c0,0.1-0.1,0.1-0.1,0.1
		l0,0c0,0,0,0-0.1,0c0,0-0.1,0.1-0.1,0.2c-0.1,0.1-0.1,0.1-0.2,0.1c-0.1,0-0.1,0-0.2,0.1c-0.1,0.1-0.1,0.1-0.2,0.1c0,0,0,0-0.1,0.1
		H14h-0.1c0,0.1-0.2,0.2-0.4,0.3c-0.1,0-0.2,0-0.2,0c0,0.1,0,0.2,0.1,0.3s0.1,0.2,0,0.3v0.1c0,0,0,0,0,0.1v0.1v0.1v0.1V55
		c0,0.1,0,0.2,0,0.4s0,0.3,0,0.4c0,0,0,0.1,0.1,0.2c0,0.1,0.1,0.1,0.1,0.2c0,0.1,0,0.2,0,0.2v0.1v0.1c0,0,0,0.1,0.1,0.1
		c0,0,0,0,0,0.1c0,0,0,0.2,0,0.6l0.1,0.1c0,0,0,0.1,0,0.2s0,0.1-0.1,0.2c0,0.2,0,0.4,0.1,0.4c0,0,0,0,0.1,0c-0.1,0.1-0.1,0.3,0,0.5
		c0,0.1,0,0.2,0,0.2s0,0,0.1,0l0,0c0,0.1,0,0.2,0,0.4c-0.1,0.1-0.1,0.2-0.1,0.4s0,0.4,0,0.5h-0.1c0,0,0,0-0.1,0c0,0-0.1,0.1-0.1,0.2
		s0,0.2,0,0.2c0,0.1-0.1,0.1-0.2,0.2c-0.1,0.1-0.2,0.2-0.2,0.2c0,0.1-0.1,0.2-0.1,0.1c0-0.2,0-0.2,0-0.3c-0.1,0-0.2,0.1-0.4,0.2
		c-0.1,0.1-0.1,0.1-0.1,0.1c-0.1-0.2-0.1-0.2-0.1-0.3c0,0,0,0-0.1,0c0,0,0,0.1-0.1,0c0-0.1-0.1-0.1-0.1-0.2c0-0.1-0.1-0.1-0.1-0.2
		c0,0-0.1,0.1-0.1,0.2c-0.1-0.2-0.2-0.2-0.2-0.3c0-0.2-0.1-0.3-0.1-0.3H12c-0.1-0.1-0.2-0.2-0.2-0.4c0-0.1,0-0.2,0-0.2
		s0-0.1-0.1-0.1l-0.1-0.1v-0.1c0-0.1,0-0.1-0.1-0.3c0-0.1-0.1-0.2-0.1-0.2s0-0.1-0.1-0.1c0-0.1,0-0.1,0-0.2c0-0.1,0-0.2,0-0.2
		s0-0.1-0.1-0.1c0-0.1-0.1-0.1-0.1-0.1c0-0.1,0-0.2,0-0.4s0-0.3,0-0.4c0,0-0.1-0.1-0.1-0.3s0.2,0.1,0.2,0.1v-0.1c0,0,0,0,0.1,0
		s0,0,0,0s0-0.1,0-0.3s0-0.3,0-0.4v-0.1V56c0,0,0-0.1,0-0.2c-0.1,0-0.1-0.1-0.1-0.4c0-0.2,0-0.4,0-0.4v-0.1c0-0.2-0.1-0.4-0.1-0.4
		c0-0.2,0-0.4,0-0.7c0,0-0.1,0-0.1-0.1s-0.1-0.1-0.1-0.1v-0.1l0,0c0,0,0-0.1,0-0.2s0-0.2,0-0.2L10.8,53l-0.1-0.1
		c0.1-0.2,0-0.3-0.2-0.3c0-0.1,0-0.2,0.1-0.3c0-0.3-0.1-0.4-0.1-0.4v-0.1c0,0,0-0.1,0.1-0.1c0-0.1,0-0.2-0.1-0.3c0-0.1,0-0.2,0-0.3
		s-0.1-0.2-0.1-0.2s0,0,0-0.1v-0.1c0-0.1,0-0.2,0-0.4c0-0.1,0-0.2,0-0.2c0-0.1,0-0.1,0-0.2c0-0.1,0-0.1-0.1-0.1v-0.1v-0.1
		c0-0.1,0-0.2-0.1-0.4c0-0.2,0-0.4-0.1-0.5c-0.1,0.1-0.1,0.1-0.1,0s0-0.1,0-0.1s0,0,0-0.1c0,0,0-0.1,0-0.2c0-0.1,0-0.2,0-0.2V48
		v-0.1v-0.1v-0.1c0-0.2-0.1-0.3-0.2-0.4c0.1-0.4,0-0.6-0.1-0.6v-0.1c0-0.1,0-0.1,0-0.1c0-0.1,0-0.1,0-0.1s0,0,0-0.1v-0.1
		c0,0,0,0,0-0.1V46c0-0.2,0-0.4-0.1-0.4c0-0.6-0.1-0.9-0.1-1s-0.1-0.2-0.1-0.2c0-0.1,0-0.2,0-0.3s0-0.2,0-0.3s-0.1-0.1-0.1-0.1
		s0-0.1,0-0.3c0-0.1,0-0.3,0-0.3C9.3,43,9.4,43,9.5,43c0-0.1,0-0.1,0.1-0.2c0-0.1,0.1-0.1,0.1-0.1c0-0.1,0-0.1-0.1-0.1H9.5H9.4
		c-0.1,0-0.1-0.1-0.1-0.1c-0.1,0-0.2,0-0.2-0.1c0,0-0.1,0-0.2,0c-0.1-0.1-0.1-0.1-0.2-0.1c0,0,0-0.1-0.1-0.2H8.5
		c0-0.1-0.1-0.2-0.1-0.3C8.1,41.6,8,41.5,8,41.4H7.9c0-0.1-0.1-0.2-0.1-0.2C7.7,41.1,7.7,41,7.6,41c0,0,0-0.1,0-0.2
		c0-0.1,0-0.1,0-0.2c0-0.1,0-0.1,0-0.1v-0.1v-0.1c0,0,0,0,0-0.1v-0.1c0-0.1,0-0.1,0-0.2c0-0.1,0-0.2,0-0.2c0-0.1,0.1-0.1,0.2-0.2
		c0.2,0,0.2-0.1,0.3-0.2v-0.1c0,0,0-0.1,0.1-0.1s0.2,0,0.2,0h0.1c0,0,0.1,0,0.2,0c0.1,0,0.2,0,0.2,0c0-0.1,0.1-0.1,0.2,0
		c0.1,0.1,0.1,0.1,0.2,0C9.3,39.2,9.3,39.2,9.4,39.3L9.4,39.3z M15.2,43.8c-0.1,0-0.1,0-0.1,0s-0.1-0.1-0.2-0.1
		c-0.1,0-0.1-0.1-0.2-0.1c0,0-0.1,0-0.2,0c-0.1,0-0.1,0-0.2,0c0,0-0.1,0-0.1-0.1l-0.1-0.1H14h-0.1c-0.2,0-0.3,0-0.5-0.1L13,43.2
		c0,0-0.1,0-0.2,0c-0.1,0-0.2,0-0.2,0c0,0.1-0.1,0.1-0.3,0c-0.1-0.1-0.2-0.1-0.2-0.1H12h-0.1c0,0,0,0-0.1,0s-0.1,0-0.1,0
		c-0.1,0-0.1,0-0.1,0.1c0,0,0,0.1,0.1,0.2c0,0,0,0.1,0,0.2c0,0.1,0,0.2,0,0.2l0.1,0.1V44c0,0,0,0.2,0.1,0.4c0,0.1,0,0.1,0.1,0.2
		s0.1,0.1,0.1,0.1s0,0.1,0,0.3c0,0.1,0,0.2,0,0.3c0,0,0,0.1,0.1,0.1v0.1c0,0,0,0.1,0,0.2s0,0.2,0,0.2c0,0.1,0.1,0.1,0.1,0.2
		s0.1,0.2,0.1,0.2s0,0.1,0,0.2s0,0.1,0,0.1v0.1c0,0,0,0.1,0.1,0.1c0,0,0,0.1,0,0.2c0,0.1,0,0.2,0,0.2v0.1v0.1c0,0.1,0,0.2,0,0.4
		c0,0,0,0.1,0.1,0.1c0,0.1,0,0.3,0,0.4c0,0.2,0,0.3,0,0.4c0,0,0.1,0.1,0.1,0.2c0,0.1,0,0.2,0,0.2s0,0.1,0.1,0.1l0.1,0.1
		c0,0.1,0,0.1,0,0.2c0,0.1,0,0.2,0,0.2s0,0.1,0.1,0.1l0.1,0.1V50c0,0.1,0,0.1,0,0.1v0.1l0,0c0,0.1,0,0.2,0,0.2h0.1
		c0.1,0,0.1-0.1,0.1-0.1s0,0,0.1,0s0.1,0,0.2,0c0,0,0-0.1,0.1-0.1h0.1c0,0,0,0,0.1,0c0,0,0,0,0.1,0c0,0,0.1,0,0.2,0
		c0.1,0,0.1,0,0.2,0c0,0,0-0.1,0.1-0.1c0-0.1,0-0.1,0.1-0.1h0.1c0,0,0.1-0.1,0.2-0.2c0.1-0.1,0.2-0.2,0.2-0.3c0.1,0,0.1,0,0.1,0
		s0.1-0.1,0.2-0.2c0.1-0.1,0.2-0.2,0.2-0.2s0.1-0.1,0.1-0.2c0.1-0.1,0.1-0.2,0.1-0.2c0.3-0.3,0.5-0.5,0.5-0.5c0-0.2,0.1-0.3,0.3-0.4
		c0-0.1,0-0.1,0.1-0.2c0,0,0.1-0.1,0.1-0.2c0-0.1,0.1-0.2,0.1-0.2s0.1-0.1,0.2-0.1c0-0.1,0-0.1,0.1-0.2c0-0.1,0.1-0.2,0.1-0.2
		c0.1-0.2,0.2-0.4,0.2-0.5c0,0,0.1-0.1,0.1-0.2c0-0.1,0.1-0.1,0.1-0.2c0,0,0-0.1,0-0.2v-0.1c0,0,0,0,0-0.1v-0.1v-0.1v-0.1
		c0-0.1,0-0.1,0-0.1c0-0.1,0-0.1,0-0.2c0-0.1,0-0.2,0-0.2c0-0.1-0.1-0.1-0.1-0.1c-0.1-0.1-0.3-0.1-0.4-0.2l-0.1-0.1H17
		c0,0,0,0-0.1-0.1c0,0,0-0.1-0.1-0.1h-0.1c0,0,0,0-0.1-0.1c0,0,0-0.1-0.1-0.1s0,0-0.1,0h-0.1c0,0,0,0-0.1-0.1c0,0,0,0-0.1,0
		c0,0-0.1,0-0.2,0c-0.1,0-0.2,0-0.2,0s0,0-0.1,0c0,0,0,0-0.1,0s-0.1,0-0.2,0c0,0-0.1,0-0.1-0.1C15.3,43.8,15.2,43.8,15.2,43.8z
		 M15.4,44c0,0-0.1,0-0.1-0.1h-0.1c-0.1,0-0.1,0-0.1,0s-0.1,0-0.2-0.1c-0.1,0-0.1-0.1-0.2-0.1c0,0-0.1,0-0.2,0c-0.1,0-0.1,0-0.2,0
		c0,0-0.1,0-0.1-0.1l-0.1-0.1H14h-0.1c-0.2,0-0.3,0-0.5-0.1L13,43.3c0,0-0.1,0-0.2,0c-0.1,0-0.2,0-0.2,0c0,0.1-0.1,0.1-0.3,0
		c-0.1-0.1-0.2-0.1-0.2-0.1H12h-0.1c0,0,0,0-0.1,0s-0.1,0-0.1,0c-0.1,0-0.1,0-0.1,0.1c0,0,0,0.1,0.1,0.2c0,0,0,0.1,0,0.2
		c0,0.1,0,0.2,0,0.2l0.1,0.1v0c0,0,0,0.2,0.1,0.4c0,0.1,0,0.1,0.1,0.2s0.1,0.1,0.1,0.1s0,0.1,0,0.3c0,0.1,0,0.2,0,0.3
		c0,0,0,0.1,0.1,0.1v0.1c0,0,0,0.1,0,0.2s0,0.2,0,0.2c0,0.1,0.1,0.1,0.1,0.2s0.1,0.2,0.1,0.2s0,0.1,0,0.2s0,0.1,0,0.1v0.1
		c0,0,0,0.1,0.1,0.1c0,0,0,0.1,0,0.2c0,0.1,0,0.2,0,0.2v0.1v0.1c0,0.1,0,0.2,0,0.4c0,0,0,0.1,0.1,0.1c0,0.1,0,0.3,0,0.4
		c0,0.2,0,0.3,0,0.4c0,0,0.1,0.1,0.1,0.2c0,0.1,0,0.2,0,0.2s0,0.1,0.1,0.1l0.1,0.1c0,0.1,0,0.1,0,0.2c0,0.1,0,0.2,0,0.2
		s0,0.1,0.1,0.1l0.1,0.1V50c0,0.1,0,0.1,0,0.1v0.1l0,0c0,0.1,0,0.2,0,0.2h0.1c0.1,0,0.1-0.1,0.1-0.1s0,0,0.1,0s0.1,0,0.2,0
		c0,0,0-0.1,0.1-0.1h0.1c0,0,0,0,0.1,0c0,0,0,0,0.1,0c0,0,0.1,0,0.2,0c0.1,0,0.1,0,0.2,0c0,0,0-0.1,0.1-0.1c0-0.1,0-0.1,0.1-0.1h0.1
		c0,0,0.1-0.1,0.2-0.2c0.1-0.1,0.2-0.2,0.2-0.3c0.1,0,0.1,0,0.1,0s0.1-0.1,0.2-0.2c0.1-0.1,0.2-0.2,0.2-0.2s0.1-0.1,0.1-0.2
		c0.1-0.1,0.1-0.2,0.1-0.2c0.3-0.3,0.5-0.5,0.5-0.5c0-0.2,0.1-0.3,0.3-0.4c0-0.1,0-0.1,0.1-0.2c0,0,0.1-0.1,0.1-0.2
		c0-0.1,0.1-0.2,0.1-0.2s0.1-0.1,0.2-0.1c0-0.1,0-0.1,0.1-0.2c0-0.1,0.1-0.2,0.1-0.2c0.1-0.2,0.2-0.4,0.2-0.5c0,0,0.1-0.1,0.1-0.2
		c0-0.1,0.1-0.1,0.1-0.2c0,0,0-0.1,0-0.2v-0.1c0,0,0,0,0-0.1v-0.1c0-0.1,0-0.1,0-0.2c0-0.1,0-0.1,0-0.1c0-0.1,0-0.1,0-0.2
		c0-0.1,0-0.2,0-0.2c0-0.1-0.1-0.1-0.1-0.1c-0.1-0.1-0.3-0.1-0.4-0.2l-0.1-0.1H17c0,0,0,0-0.1-0.1c0,0,0-0.1-0.1-0.1h-0.1
		c0,0,0,0-0.1-0.1c0,0,0-0.1-0.1-0.1s0,0-0.1,0h-0.1c0,0,0,0-0.1-0.1c0,0,0,0-0.1,0c0,0-0.1,0-0.2,0c-0.1,0-0.2,0-0.2,0s0,0-0.1,0
		c0,0,0,0-0.1,0S15.5,44,15.4,44z"/>
	<path fill="#2B5799" d="M26.9,40.5c0,0,0.1,0,0.1,0.1h0.1c0.1,0,0.1,0,0.1,0s0,0,0.1,0c0,0,0,0,0.1,0s0,0,0.1,0h0.1
		c0,0.2,0.1,0.3,0.2,0.2L28,41c0,0.1,0,0.1,0.1,0.2c0,0.1,0.1,0.1,0.1,0.1s0.1,0,0.2,0.1s0.1,0.1,0.2,0.1h0.1h0.1
		c0.1-0.1,0.2-0.1,0.3-0.1c0,0,0.1,0,0.2,0h0.1c0.1,0,0.1,0,0.1,0s0.1,0,0.1,0.1l0.1,0.1h0.1c0.1,0,0.1,0,0.1,0s0.1,0.1,0.2,0.2
		c0.1,0.1,0.2,0.1,0.3,0.1c0,0,0,0.1,0.1,0.1s0.1,0,0.2,0.1s0.1,0.1,0.2,0.1c0,0,0,0,0.1,0c0.3,0.2,0.5,0.3,0.6,0.4h0.2
		c0,0.1-0.1,0.1-0.2,0v0.1c0,0.1,0.1,0.2,0.3,0.3s0.3,0.3,0.3,0.4c0,0.1,0.1,0.1,0.1,0.2c0.2,0.2,0.3,0.4,0.3,0.5
		c0.1,0.1,0.2,0.2,0.1,0.4c0,0.1,0.1,0.2,0.2,0.3C33,44.9,33,45,33,45.1c0.1,0.2,0.1,0.4,0.1,0.4s0,0.1,0.1,0.1
		c0.1,0.2,0.1,0.3,0.1,0.4l0.1,0.1c0,0.1,0,0.2,0.1,0.3c0,0.3,0.1,0.4,0.1,0.5c0,0.2,0.1,0.3,0.1,0.4c0,0,0,0.1,0.1,0.3
		c0,0,0,0.1,0,0.2c0,0.1,0.1,0.2,0.1,0.3v0.1v0.1c0,0,0,0,0,0.1v0.1c0,0.1,0,0.2,0,0.3c0,0.2,0,0.3,0,0.4c0,0.1,0,0.1,0,0.2
		c0,0,0,0.1,0,0.2c0,0,0,0.1,0.1,0.2v0.1c0,0,0,0,0,0.1c0,0,0,0.4,0,1s0,1,0,1.2c0,0,0,0.1,0,0.2c0,0.1,0,0.2,0,0.3
		c0,0,0,0.1-0.1,0.2c0,0.1-0.1,0.2,0,0.3c0,0,0,0.1,0,0.2s0,0.2,0,0.2c-0.1,0-0.2,0.1-0.2,0.1c0,0.3,0,0.5,0,0.5v0.1
		c0,0,0,0.1-0.1,0.1v0.1c0,0.2-0.1,0.3-0.1,0.3s0,0.1-0.1,0.1h-0.1c0,0,0,0,0,0.1l-0.1,0.1c0,0.1-0.1,0.1-0.1,0.2l-0.2,0.3
		c0,0.1-0.1,0.3-0.2,0.5c-0.1,0.2-0.1,0.3-0.1,0.5c-0.1,0.2-0.2,0.3-0.2,0.5c0,0-0.1,0-0.2,0.1c0,0.1,0,0.1-0.1,0.2
		C32,57.5,32,57.6,32,57.7c-0.1,0-0.1,0.1-0.2,0.2c0,0.1-0.1,0.2-0.2,0.2c0,0-0.1,0.1-0.1,0.2c-0.1,0.1-0.1,0.2-0.1,0.2
		c0,0.1,0,0.1-0.1,0.2c-0.2,0.1-0.3,0.2-0.5,0.4c-0.1,0.1-0.1,0.2-0.2,0.2c0,0.1-0.1,0.2-0.3,0.3c-0.1,0.1-0.2,0.2-0.3,0.3
		c0,0,0,0-0.1,0s0,0-0.1,0L29.7,60c-0.1,0.1-0.1,0.1-0.1,0.1c-0.1,0-0.1,0-0.2,0.1c0,0-0.1,0-0.2,0.1c0,0-0.1,0-0.2,0s-0.1,0-0.2,0
		c0,0-0.1,0.1-0.2,0.2c-0.1,0-0.2,0-0.3,0c0,0.1-0.1,0.1-0.2,0.1s-0.2,0.1-0.2,0.2c-0.1,0-0.3,0-0.6,0c-0.3,0-0.5,0-0.6,0
		c0,0-0.1,0-0.2,0s-0.2,0-0.3,0c0,0-0.1-0.1-0.1-0.2c-0.1,0-0.1,0-0.1,0.1s0,0.1-0.1,0.1s0,0,0-0.1l0,0c0,0-0.1,0-0.1-0.1l-0.1-0.1
		c-0.1,0.1-0.3,0-0.4-0.1s-0.3-0.2-0.4-0.1v-0.1c0,0-0.1,0-0.2-0.1S24.5,60,24.4,60v0c0,0-0.1-0.1-0.1-0.2c0-0.1-0.1-0.1-0.1-0.2
		l-0.1-0.1c0,0,0,0-0.1-0.1c0,0,0-0.1-0.1-0.1c0,0,0,0-0.1,0c0,0,0,0-0.1,0s0,0,0,0l0,0c0,0-0.1,0-0.1-0.1c0,0-0.1,0-0.1-0.1
		s-0.1-0.1-0.1-0.2h-0.1c0-0.1-0.1-0.2-0.2-0.3s-0.1-0.3-0.2-0.3h-0.1c-0.2-0.3-0.4-0.6-0.4-0.7c0,0-0.1-0.2-0.2-0.4v-0.1
		c0,0-0.1-0.1-0.1-0.2c0-0.1-0.1-0.1-0.1-0.2c0-0.3-0.1-0.6-0.2-0.8c0-0.1,0-0.2-0.1-0.3c0-0.1,0-0.1,0-0.1s0,0,0-0.1v-0.1v-0.1
		c0,0,0-0.1-0.1-0.1c0,0,0-0.2,0-0.5v-0.1v-0.1c0,0,0,0-0.1-0.1v-0.1c0-0.1,0-0.2,0-0.3c0-0.2,0-0.3,0-0.4c0,0,0,0-0.1-0.1
		c0,0,0-0.1,0-0.2v-0.1c0,0,0-0.1-0.1-0.1c0-0.1,0-0.1,0-0.1c0-0.1-0.1-0.2-0.1-0.2v-0.1v-0.1c0-0.2,0-0.3-0.1-0.4c0,0,0-0.1,0-0.2
		v-0.1l0.1-0.2c0-0.1,0-0.3,0-0.6c0-0.4,0-0.6,0-0.7c0-0.1,0-0.1,0-0.2s0-0.1,0-0.2c0-0.1,0-0.2,0-0.4s0-0.3,0-0.4
		c0-0.1,0.1-0.2,0.1-0.3v-0.1v-0.1v-0.1c0,0,0-0.1,0.1-0.1c0,0,0-0.2,0-0.4s0-0.4,0-0.5c0-0.3,0-0.5,0-0.6c0,0,0.1,0,0.1-0.1
		c0.1-0.1,0.1-0.1,0.2-0.1c0-0.1,0-0.1,0-0.1v-0.1l0.1-0.1c0,0,0-0.1,0-0.2s0-0.1,0-0.2c0-0.1,0.1-0.1,0.1-0.1c0-0.1,0-0.2,0-0.4
		s0-0.3,0.1-0.3h0.1h0.1c0-0.1,0-0.1-0.1-0.1c0,0-0.1,0-0.1-0.1l0.1-0.2c0,0,0.1-0.1,0.1-0.2c0-0.1,0.1-0.2,0.1-0.2v-0.1
		c0,0,0,0,0-0.1c0.1-0.1,0.1-0.2,0.1-0.3c0,0,0.1-0.1,0.1-0.2c0-0.1,0.1-0.2,0.1-0.2c0-0.1,0-0.2,0.1-0.3s0.1-0.2,0.1-0.2v-0.1v-0.1
		c0-0.1,0-0.1,0.1-0.2c0.1-0.1,0.1-0.2,0.1-0.3c0.1,0,0.2-0.1,0.2-0.3c0.1,0,0.2-0.1,0.2-0.3c0-0.1,0-0.2,0-0.2
		c0.1,0.1,0.2,0,0.2-0.1l0.1-0.1h0.1l0.1-0.1c0-0.1,0.1-0.1,0.1-0.1c0.1,0,0.3-0.1,0.4-0.3c0.1,0,0.1,0,0.2-0.1s0.1-0.1,0.2-0.2l0,0
		c0,0,0,0,0-0.1c0,0.1,0.2,0,0.3-0.1c0,0,0.1,0,0.2,0s0.2,0,0.2,0s0.1,0,0.2,0S26.9,40.5,26.9,40.5z M26.4,40.5c0,0,0.1,0,0.2,0
		s0.2,0,0.3,0c0,0,0.1,0,0.1,0.1h0.1c0.1,0,0.1,0,0.1,0s0,0,0.1,0c0,0,0,0,0.1,0s0,0,0.1,0h0.1c0,0.2,0.1,0.3,0.2,0.2L28,41
		c0,0.1,0,0.1,0.1,0.2c0,0.1,0.1,0.1,0.1,0.1s0.1,0,0.2,0.1s0.1,0.1,0.2,0.1h0.1h0.1c0.1-0.1,0.2-0.1,0.3-0.1c0,0,0.1,0,0.2,0h0.1
		c0.1,0,0.1,0,0.1,0s0.1,0,0.1,0.1l0.1,0.1h0.1c0.1,0,0.1,0,0.1,0s0.1,0.1,0.2,0.2c0.1,0.1,0.2,0.1,0.3,0.1c0,0,0,0.1,0.1,0.1
		s0.1,0,0.2,0.1s0.1,0.1,0.2,0.1c0,0,0,0,0.1,0c0.3,0.2,0.5,0.3,0.6,0.4h0.2c0,0.1-0.1,0.1-0.2,0v0.1c0,0.1,0.1,0.2,0.3,0.3
		s0.3,0.3,0.3,0.4c0,0.1,0.1,0.1,0.1,0.2c0.2,0.2,0.3,0.4,0.3,0.5c0.1,0.1,0.2,0.2,0.1,0.4c0,0.1,0.1,0.2,0.2,0.3
		C33,44.9,33,45,33,45.1c0.1,0.2,0.1,0.4,0.1,0.4s0,0.1,0.1,0.1c0.1,0.2,0.1,0.3,0.1,0.4l0.1,0.1c0,0.1,0,0.2,0.1,0.3
		c0,0.3,0.1,0.4,0.1,0.5c0,0.2,0.1,0.3,0.1,0.4c0,0,0,0.1,0.1,0.3c0,0,0,0.1,0,0.2c0,0.1,0.1,0.2,0.1,0.3v0.1v0.1c0,0,0,0,0,0.1v0.1
		c0,0.1,0,0.2,0,0.3c0,0.2,0,0.3,0,0.4c0,0.1,0,0.1,0,0.2c0,0,0,0.1,0,0.2c0,0,0,0.1,0.1,0.2v0.1c0,0,0,0,0,0.1c0,0,0,0.4,0,1
		s0,1,0,1.2c0,0,0,0.1,0,0.2c0,0.1,0,0.2,0,0.3c0,0,0,0.1-0.1,0.2c0,0.1-0.1,0.2,0,0.3c0,0,0,0.1,0,0.2s0,0.2,0,0.2
		c-0.1,0-0.2,0.1-0.2,0.1c0,0.3,0,0.5,0,0.5v0.1c0,0,0,0.1-0.1,0.1v0.1c0,0.2-0.1,0.3-0.1,0.3s0,0.1-0.1,0.1h-0.1c0,0,0,0,0,0.1
		l-0.1,0.1c0,0.1-0.1,0.1-0.1,0.2l-0.2,0.3c0,0.1-0.1,0.3-0.2,0.5c-0.1,0.2-0.1,0.3-0.1,0.5c-0.1,0.2-0.2,0.3-0.2,0.5
		c0,0-0.1,0-0.2,0.1c0,0.1,0,0.1-0.1,0.2C32,57.5,32,57.6,32,57.7c-0.1,0-0.1,0.1-0.2,0.2c0,0.1-0.1,0.2-0.2,0.2
		c0,0-0.1,0.1-0.1,0.2c-0.1,0.1-0.1,0.2-0.1,0.2c0,0.1,0,0.1-0.1,0.2c-0.2,0.1-0.3,0.2-0.5,0.4c-0.1,0.1-0.1,0.2-0.2,0.2
		c0,0.1-0.1,0.2-0.3,0.3c-0.1,0.1-0.2,0.2-0.3,0.3c0,0,0,0-0.1,0s0,0-0.1,0L29.7,60c-0.1,0.1-0.1,0.1-0.1,0.1c-0.1,0-0.1,0-0.2,0.1
		c0,0-0.1,0-0.2,0.1c0,0-0.1,0-0.2,0s-0.1,0-0.2,0c0,0-0.1,0.1-0.2,0.2c-0.1,0-0.2,0-0.3,0c0,0.1-0.1,0.1-0.2,0.1s-0.2,0.1-0.2,0.2
		c-0.1,0-0.3,0-0.6,0c-0.3,0-0.5,0-0.6,0c0,0-0.1,0-0.2,0s-0.2,0-0.3,0c0,0-0.1-0.1-0.1-0.2c-0.1,0-0.1,0-0.1,0.1s0,0.1-0.1,0.1
		s0,0,0-0.1l0,0c0,0-0.1,0-0.1-0.1l-0.1-0.1c-0.1,0.1-0.3,0-0.4-0.1s-0.3-0.2-0.4-0.1v-0.1c0,0-0.1,0-0.2-0.1S24.5,60,24.4,60v0
		c0,0-0.1-0.1-0.1-0.2c0-0.1-0.1-0.1-0.1-0.2l-0.1-0.1c0,0,0,0-0.1-0.1c0,0,0-0.1-0.1-0.1c0,0,0,0-0.1,0c0,0,0,0-0.1,0s0,0,0,0l0,0
		c0,0-0.1,0-0.1-0.1c0,0-0.1,0-0.1-0.1s-0.1-0.1-0.1-0.2h-0.1c0-0.1-0.1-0.2-0.2-0.3s-0.1-0.3-0.2-0.3h-0.1
		c-0.2-0.3-0.4-0.6-0.4-0.7c0,0-0.1-0.2-0.2-0.4v-0.1c0,0-0.1-0.1-0.1-0.2c0-0.1-0.1-0.1-0.1-0.2c0-0.3-0.1-0.6-0.2-0.8
		c0-0.1,0-0.2-0.1-0.3c0-0.1,0-0.1,0-0.1s0,0,0-0.1v-0.1v-0.1c0,0,0-0.1-0.1-0.1c0,0,0-0.2,0-0.5v-0.1v-0.1c0,0,0,0-0.1-0.1v-0.1
		c0-0.1,0-0.2,0-0.3c0-0.2,0-0.3,0-0.4c0,0,0,0-0.1-0.1c0,0,0-0.1,0-0.2v-0.1c0,0,0-0.1-0.1-0.1c0-0.1,0-0.1,0-0.1
		c0-0.1-0.1-0.2-0.1-0.2v-0.1v-0.1c0-0.2,0-0.3-0.1-0.4c0,0,0-0.1,0-0.2v-0.1l0.1-0.2c0-0.1,0-0.3,0-0.6c0-0.4,0-0.6,0-0.7
		c0-0.1,0-0.1,0-0.2s0-0.1,0-0.2c0-0.1,0-0.2,0-0.4s0-0.3,0-0.4c0-0.1,0.1-0.2,0.1-0.3v-0.1v-0.1v-0.1c0,0,0-0.1,0.1-0.1
		c0,0,0-0.2,0-0.4s0-0.4,0-0.5c0-0.3,0-0.5,0-0.6c0,0,0.1,0,0.1-0.1c0.1-0.1,0.1-0.1,0.2-0.1c0-0.1,0-0.1,0-0.1v-0.1l0.1-0.1
		c0,0,0-0.1,0-0.2s0-0.1,0-0.2c0-0.1,0.1-0.1,0.1-0.1c0-0.1,0-0.2,0-0.4s0-0.3,0.1-0.3h0.1h0.1c0-0.1,0-0.1-0.1-0.1
		c0,0-0.1,0-0.1-0.1l0.1-0.2c0,0,0.1-0.1,0.1-0.2c0-0.1,0.1-0.2,0.1-0.2v-0.1c0,0,0,0,0-0.1c0.1-0.1,0.1-0.2,0.1-0.3
		c0,0,0.1-0.1,0.1-0.2c0-0.1,0.1-0.2,0.1-0.2c0-0.1,0-0.2,0.1-0.3s0.1-0.2,0.1-0.2v-0.1v-0.1c0-0.1,0-0.1,0.1-0.2
		c0.1-0.1,0.1-0.2,0.1-0.3c0.1,0,0.2-0.1,0.2-0.3c0.1,0,0.2-0.1,0.2-0.3c0-0.1,0-0.2,0-0.2c0.1,0.1,0.2,0,0.2-0.1l0.1-0.1h0.1
		l0.1-0.1c0-0.1,0.1-0.1,0.1-0.1c0.1,0,0.3-0.1,0.4-0.3c0.1,0,0.1,0,0.2-0.1s0.1-0.1,0.2-0.2l0,0c0,0,0,0,0-0.1c0,0.1,0.2,0,0.3-0.1
		c0,0,0.1,0,0.2,0C26.3,40.4,26.4,40.4,26.4,40.5z M26.8,43.4c-0.2,0.1-0.3,0.2-0.5,0.3c-0.1,0.1-0.3,0.2-0.4,0.4s-0.2,0.3-0.3,0.5
		c0,0-0.1,0.1-0.1,0.2c0,0.1-0.1,0.1-0.1,0.1V45c0,0,0,0.1-0.1,0.1l-0.1,0.1c0,0-0.1,0.2-0.1,0.4c0,0.1,0,0.1-0.1,0.2
		c0,0.1-0.1,0.1-0.1,0.1c0,0.1,0,0.1,0,0.2s0,0.1-0.1,0.2c0,0,0,0.1,0,0.2s0,0.1,0,0.2v0.1c-0.1,0.1-0.1,0.2,0,0.2
		c-0.1,0.1-0.2,0.3-0.1,0.5c-0.1,0.1-0.1,0.3-0.1,0.6c-0.1,0.1-0.1,0.2-0.1,0.5c-0.1,0.3-0.2,0.5-0.1,0.7c0,0,0,0.1-0.1,0.1
		c0,0-0.1,0-0.1,0.1s0,0.2,0,0.4s-0.1,0.3,0,0.4c0,0.1-0.1,0.2-0.1,0.6V51c0,0.1,0,0.1,0,0.1s0,0.1-0.1,0.1l-0.1,0.1
		c0,0.1,0.1,0.2,0.1,0.3s0,0.3,0,0.4c0,0.2,0,0.3,0,0.4v0.1v0.1l0.1,0.1c0,0.1,0,0.2,0,0.5v0.1v0.1v0.1v0.1c0,0.2,0,0.3,0,0.4
		c0,0,0,0.1,0.1,0.1v0.1l0,0c0,0,0,0,0,0.1s0,0.2,0,0.2c0,0.1,0,0.1,0,0.2c0,0.1,0,0.1,0,0.1s0,0,0,0.1V55c0,0,0,0,0.1,0.1v0.1v0.1
		v0.1c0,0,0,0,0,0.1v0.1c0,0,0,0,0,0.1l0.1,0.1l0.1,0.1c-0.1,0.1,0,0.3,0.1,0.4v0.1c0,0,0,0.1,0.1,0.1c0,0,0.1,0.1,0.1,0.2l0.2,0.2
		c0.1,0.1,0.2,0.3,0.3,0.5c0.2,0.2,0.3,0.3,0.3,0.4h0.1c0.2,0.3,0.3,0.5,0.5,0.5c0.1,0.1,0.1,0.1,0.1,0.2c0,0,0.1,0,0.2,0
		s0.1,0,0.2,0l0.1,0.1l0.1,0.1H27h0.1c0,0,0,0,0.1,0h0.1c0.2,0,0.3,0,0.5,0c0,0,0.1,0,0.1-0.1c0.1-0.1,0.1-0.1,0.2-0.1s0.1,0,0.1,0
		s0,0,0.1-0.1c0,0,0-0.1,0.1-0.1h0.1c0.1-0.1,0.2-0.2,0.3-0.1c0.1-0.1,0.2-0.2,0.4-0.4c0.2-0.2,0.3-0.3,0.4-0.4c0,0,0-0.1,0.1-0.1
		l0.1-0.1c0,0,0,0,0-0.1s0.1-0.1,0.1-0.2c0.1-0.1,0.1-0.1,0.1-0.1s0.1-0.1,0.1-0.2c0-0.1,0.1-0.2,0.1-0.2s0-0.1,0.1-0.1l0.1-0.1
		c0.1-0.1,0.1-0.2,0.2-0.2v-0.1c0,0,0.1-0.2,0.2-0.5c0,0,0-0.1,0.1-0.1c0,0,0.1-0.2,0.1-0.5c0-0.1,0.1-0.2,0.2-0.3v-0.1v-0.1
		c0,0,0-0.1,0.1-0.1v-0.1c0-0.1,0-0.1,0-0.1c0.1-0.1,0.2-0.4,0.2-0.9v-0.3v-0.1v-0.1c0.1-0.1,0.1-0.2,0.1-0.2s0-0.1-0.1-0.1
		l-0.1-0.1c0-0.1,0-0.1,0.1-0.2c0.1-0.1,0.1-0.2,0.1-0.2c0-0.1,0-0.2,0-0.3s0-0.2,0-0.2v-0.1v-0.1L31.5,51l-0.1-0.1
		c0.1-0.1,0.1-0.1,0.1-0.1v-0.1v-0.1c0-0.1,0-0.2,0-0.3s0-0.2,0-0.2V50v-0.1c0,0,0-0.1-0.1-0.1c0-0.1,0-0.1-0.1-0.2l-0.1-0.1
		c0-0.1,0-0.1,0.1-0.2c0-0.1,0-0.1,0-0.2V49v-0.1c0-0.1,0-0.1,0-0.1c0-0.1,0-0.1,0-0.1c-0.1,0-0.1-0.2-0.1-0.4s-0.1-0.3-0.1-0.4
		c0,0,0-0.1,0-0.2c0-0.1,0-0.2,0-0.2C31,47.4,31,47.3,31,47.2c-0.2-0.6-0.6-1.1-1-1.6h-0.1c0-0.1-0.1-0.2-0.2-0.3h-0.1l-0.1-0.1
		l-0.1-0.1C29.3,45,29.2,45,29.2,45s-0.1,0-0.2,0s-0.1,0-0.1,0c-0.1-0.1-0.2-0.1-0.2-0.1c-0.1,0-0.1,0-0.2,0s-0.2,0-0.2,0
		c-0.1-0.2-0.2-0.3-0.3-0.2c0-0.1-0.1-0.2,0-0.3c0,0,0-0.1,0.1-0.1l0.1-0.1c0-0.1,0-0.1-0.1-0.1H28c0-0.2,0-0.2-0.1-0.2
		s-0.2,0-0.4,0C27.1,43.3,27,43.3,26.8,43.4z M27.6,43.3c-0.1,0-0.2,0-0.4,0c-0.2,0-0.3,0-0.4,0c-0.2,0.1-0.3,0.2-0.5,0.3
		c-0.1,0.1-0.3,0.2-0.4,0.4s-0.2,0.3-0.3,0.5c0,0-0.1,0.1-0.1,0.2c0,0.1-0.1,0.1-0.1,0.1V45c0,0,0,0.1-0.1,0.1l-0.1,0.1
		c0,0-0.1,0.2-0.1,0.4c0,0.1,0,0.1-0.1,0.2c0,0.1-0.1,0.1-0.1,0.1c0,0.1,0,0.2,0,0.2s0,0.1-0.1,0.1c0,0,0,0.1,0,0.2s0,0.1,0,0.2v0.1
		c-0.1,0.1-0.1,0.2,0,0.2c-0.1,0.1-0.2,0.3-0.1,0.5c-0.1,0.1-0.1,0.3-0.1,0.6c-0.1,0.1-0.1,0.2-0.1,0.5c-0.1,0.3-0.2,0.5-0.1,0.7
		c0,0,0,0.1-0.1,0.1c0,0-0.1,0-0.1,0.1s0,0.2,0,0.4s-0.1,0.3,0,0.4c0,0.1-0.1,0.2-0.1,0.6v0.1c0,0.1,0,0.1,0,0.1s0,0.1-0.1,0.1
		l-0.1,0.1c0,0.1,0.1,0.2,0.1,0.3s0,0.3,0,0.4c0,0.2,0,0.3,0,0.4v0.1v0.1l0.1,0.1c0,0.1,0,0.2,0,0.5v0.1v0.1v0.1v0.1
		c0,0.2,0,0.3,0,0.4c0,0,0,0.1,0.1,0.1v0.1l0,0c0,0,0,0,0,0.1s0,0.2,0,0.2c0,0.1,0,0.1,0,0.2c0,0.1,0,0.1,0,0.1s0,0,0,0.1v0.1
		c0,0,0,0,0.1,0.1v0.1v0.1v0.1c0,0,0,0,0,0.1v0.1c0,0,0,0,0,0.1l0.1,0.1l0.1,0.1c-0.1,0.1,0,0.3,0.1,0.4v0.1c0,0,0,0.1,0.1,0.1
		c0,0,0.1,0.1,0.1,0.2l0.2,0.2c0.1,0.1,0.2,0.3,0.3,0.5c0.2,0.2,0.3,0.3,0.3,0.4h0.1c0.2,0.3,0.3,0.5,0.5,0.5
		c0.1,0.1,0.1,0.1,0.1,0.2c0,0,0.1,0,0.2,0s0.1,0,0.2,0l0.1,0.1l0.1,0.1H27h0.1c0,0,0,0,0.1,0h0.1c0.2,0,0.3,0,0.5,0
		c0,0,0.1,0,0.1-0.1c0.1-0.1,0.1-0.1,0.2-0.1s0.1,0,0.1,0s0,0,0.1-0.1c0,0,0-0.1,0.1-0.1h0.1c0.1-0.1,0.2-0.2,0.3-0.1
		c0.1-0.1,0.2-0.2,0.4-0.4c0.2-0.2,0.3-0.3,0.4-0.4c0,0,0-0.1,0.1-0.1l0.1-0.1c0,0,0,0,0-0.1s0.1-0.1,0.1-0.2
		c0.1-0.1,0.1-0.1,0.1-0.1s0.1-0.1,0.1-0.2c0-0.1,0.1-0.2,0.1-0.2s0-0.1,0.1-0.1l0.1-0.1c0.1-0.1,0.1-0.2,0.2-0.2v-0.1
		c0,0,0.1-0.2,0.2-0.5c0,0,0-0.1,0.1-0.1c0,0,0.1-0.2,0.1-0.5c0-0.1,0.1-0.2,0.2-0.3v-0.1v-0.1c0,0,0-0.1,0.1-0.1V54
		c0-0.1,0-0.1,0-0.1c0.1-0.1,0.2-0.4,0.2-0.9v-0.3v-0.1v-0.1c0.1-0.1,0.1-0.2,0.1-0.2s0-0.1-0.1-0.1l-0.1-0.1c0-0.1,0-0.1,0.1-0.2
		c0.1-0.1,0.1-0.2,0.1-0.2c0-0.1,0-0.2,0-0.3s0-0.2,0-0.2v-0.1V51l-0.1-0.1l-0.1-0.1c0.1-0.1,0.1-0.1,0.1-0.1v-0.1v-0.1
		c0-0.1,0-0.2,0-0.3s0-0.2,0-0.2v-0.1v-0.1c0,0,0-0.1-0.1-0.1c0-0.1,0-0.1-0.1-0.2l-0.1-0.1c0-0.1,0-0.1,0.1-0.2c0-0.1,0-0.1,0-0.2
		v-0.1v-0.1c0-0.1,0-0.1,0-0.1c0-0.1,0-0.1,0-0.1c-0.1,0-0.1-0.2-0.1-0.4s-0.1-0.3-0.1-0.4c0,0,0-0.1,0-0.2c0-0.1,0-0.2,0-0.2
		C31,47.3,31,47.2,31,47.1c-0.2-0.6-0.6-1.1-1-1.6h-0.1c0-0.1-0.1-0.2-0.2-0.3h-0.1l-0.1-0.1L29.4,45c-0.1-0.1-0.2-0.1-0.2-0.1
		s-0.1,0-0.2,0s-0.1,0-0.1,0c-0.1-0.1-0.2-0.1-0.2-0.1c-0.1,0-0.1,0-0.2,0s-0.2,0-0.2,0c-0.1-0.2-0.2-0.3-0.3-0.2
		c0-0.1-0.1-0.2,0-0.3c0,0,0-0.1,0.1-0.1l0.1-0.1c0-0.1,0-0.1-0.1-0.1H28C27.7,43.4,27.6,43.3,27.6,43.3z"/>
	<path fill="#2B5799" d="M44,41.8c0,0,0,0.1,0,0.2c0.2,0.2,0.4,0.3,0.5,0.5h0.1c0,0.1,0,0.2,0.1,0.3c0,0.1,0,0.2,0.1,0.3h0.1
		c0,0.3,0,0.5,0,0.6S45,43.9,45,44s0,0.2,0,0.3s0,0.2,0,0.4c-0.1,0.1-0.2,0.2-0.2,0.5h-0.1c0,0.1-0.1,0.1-0.1,0.1h-0.1h-0.1
		c0,0,0,0-0.1,0.1c0,0,0,0-0.1,0c0,0,0,0-0.1,0c0,0-0.1,0.1-0.1,0.3c0,0-0.1,0-0.2-0.1h-0.1c0,0,0,0-0.1,0c0-0.1,0-0.2-0.2-0.4
		c0,0,0,0-0.1,0c0,0,0,0-0.1,0l-0.1-0.1H43c0,0,0,0-0.1,0V45c-0.1-0.1-0.2-0.2-0.3-0.1c0,0-0.1,0-0.1,0.1c-0.1,0-0.2,0-0.2,0h-0.1
		h-0.1H42h-0.1c0,0-0.1,0-0.2-0.1c0,0,0,0-0.1,0.1h-0.1c0,0,0,0-0.1,0h-0.1h-0.1h-0.1H41c0,0,0,0-0.1,0c0,0,0,0-0.1,0s-0.1,0-0.2,0
		c-0.3,0-0.4,0.1-0.4,0.1c0,0.1,0,0.1,0,0.1h-0.1L40,45.1c0,0-0.1,0-0.2,0.1c0,0,0,0-0.1,0c0,0,0,0-0.1,0c0,0.1-0.2,0.1-0.4,0.2
		c-0.2,0-0.3,0.1-0.4,0.2v0.1h-0.1c0,0,0,0-0.1,0c0,0,0,0.1-0.1,0.1h-0.1c0,0-0.1,0-0.1,0.1h-0.1c-0.1,0-0.1,0-0.1,0V46v0.1
		c0,0.1,0,0.2,0.1,0.2s0.1,0,0.1,0c0,0.1,0.1,0.2,0.2,0.3c0,0,0,0,0.1,0c0,0,0,0,0.1,0s0,0,0,0.1s0,0.1,0,0.1c0.1-0.1,0.2,0,0.2,0.1
		C39,47,39,47,39.1,47c0,0,0,0.1,0.1,0.1s0.2,0,0.2,0.1c0,0,0.1,0,0.1,0.1h0.1l0.1,0.1c0,0,0.1,0,0.1,0.1c0.3,0.1,0.4,0.1,0.4,0.2
		c0.1-0.1,0.2,0,0.3,0l0.1,0.1c0,0,0.1,0,0.2,0s0.1,0,0.2,0c0,0,0,0,0.1,0c0,0,0,0,0.1,0h0.1c0,0,0,0,0.1,0.1c0,0,0,0.1,0.1,0.1h0.1
		h0.1c0.2,0.2,0.3,0.2,0.4,0.2l0.1-0.1c0.1,0,0.1,0,0.2,0c0,0,0,0,0,0.1c0.1,0.1,0.2,0.1,0.2,0.1s0,0,0.1,0c0,0,0,0,0.1,0
		c0,0.2,0,0.2,0.1,0.2c0,0,0,0,0.1,0c0,0,0,0,0.1-0.1c0.1,0,0.2,0,0.2,0c0,0.1,0.1,0.2,0.2,0.2c0.1,0,0.2,0.1,0.2,0.2
		c0.2-0.1,0.4,0,0.4,0.1h0.1h0.1c0,0,0.1,0,0.1,0.1s0.1,0.1,0.1,0.1s0.1,0,0.1-0.1s0.1-0.1,0.1,0s0,0.2,0.1,0.2s0.1,0,0.2,0
		c0.1,0.1,0.1,0.1,0.1,0.1h0.1h0.1c0,0,0,0,0,0.1c0,0,0.1,0.1,0.2,0.1c0.1,0.1,0.2,0.1,0.2,0.2c0,0,0.1,0,0.2,0
		c0.1,0.1,0.1,0.1,0.2,0.1c0.1,0.2,0.1,0.3,0.2,0.3c0,0,0,0,0.1,0c0,0,0,0,0.1,0v0.1c0,0.1,0.1,0.2,0.3,0.4c0.1,0.2,0.2,0.3,0.3,0.4
		c0,0.1,0,0.1,0.1,0.2c0,0.1,0,0.1,0,0.2c0.1,0.1,0.2,0.3,0.2,0.6c0,0.1,0.1,0.1,0.1,0.3c0,0.1,0.1,0.2,0.1,0.3v0.1v0.1v0.1V53v0.1
		v0.1v0.1v0.1c0,0,0,0.1,0,0.3s0,0.3,0.1,0.3v0.1v0.1c0,0,0,0.2,0,0.4S47.6,55,47.6,55v0.1c0,0.1,0,0.1-0.1,0.2
		c0,0.1-0.1,0.1-0.1,0.1c0,0.1,0,0.2-0.1,0.3v0.1c-0.2,0.2-0.2,0.3-0.2,0.4c-0.1,0.2-0.2,0.4-0.3,0.4c0,0.2,0,0.3-0.1,0.4
		c-0.1,0.1-0.2,0.2-0.2,0.3s0,0.1-0.1,0.2v0.1c0,0,0,0-0.1,0c0,0,0,0-0.1,0c0,0-0.1,0.1,0,0.2c0,0-0.1,0.1-0.4,0.3v0.1
		c-0.2,0.1-0.3,0.2-0.3,0.3c0,0-0.1,0-0.2,0.2c-0.1,0-0.2,0.1-0.3,0.2c-0.1,0.1-0.2,0.2-0.2,0.2s0,0.1,0,0.2s0,0.1,0,0.2
		c0,0,0,0-0.1-0.1c0,0,0-0.1-0.1-0.1c0,0-0.1,0-0.1,0.1c-0.1,0.1-0.1,0.1-0.2,0.1l-0.1,0.1h-0.1c-0.1,0-0.1,0-0.1,0
		c-0.1,0.1-0.2,0.1-0.2,0c-0.1,0.1-0.2,0.2-0.2,0.2C43.5,60,43.5,60,43.4,60h-0.1c0,0-0.1,0-0.1,0.1s-0.1,0.1-0.1,0.1
		c-0.1,0-0.2,0-0.2,0.1c-0.1,0.1-0.2,0.1-0.2,0.1s-0.1,0-0.2,0c-0.1,0-0.1,0-0.1,0s-0.1,0-0.2,0.1c-0.1,0-0.1,0.1-0.2,0.1h-0.1h-0.1
		c0,0,0,0.1-0.1,0.1c0,0-0.1,0-0.4,0c0,0,0,0-0.1-0.1c-0.2-0.1-0.3-0.1-0.4,0h-0.1c0,0.1-0.1,0.1-0.1,0.1c0-0.1-0.2-0.1-0.4-0.1
		c-0.1,0-0.2,0-0.2,0c-0.1-0.1-0.1-0.1-0.1-0.1s0,0-0.1,0.1c0,0-0.1,0.1-0.1,0v-0.1v-0.1c0,0-0.1,0-0.2,0c-0.1,0-0.1,0-0.1,0
		s-0.1,0-0.1-0.1h-0.1V60c0,0-0.1,0-0.2,0l0,0v-0.1c0,0-0.1,0-0.1-0.1s-0.1-0.2-0.1-0.2c-0.1-0.1-0.2-0.2-0.2-0.2c0-0.1,0-0.1,0-0.1
		c0-0.1-0.1-0.1-0.2-0.2c-0.1-0.1-0.1-0.1-0.2-0.2c0,0,0,0-0.1,0c0,0,0,0-0.1,0c0-0.2,0-0.3-0.1-0.4c-0.1-0.1-0.2-0.2-0.2-0.2v-0.1
		v-0.1c0,0-0.1,0-0.1-0.1s-0.1-0.1-0.1-0.2c-0.1-0.1-0.1-0.2-0.2-0.2v-0.1v-0.1v-0.1c0,0,0-0.1-0.1-0.1v-0.1V57c0-0.1,0-0.1-0.1-0.2
		c0-0.1-0.1-0.1-0.1-0.2c0-0.1,0-0.1,0.1-0.2c0-0.1,0.1-0.2,0.1-0.2s0,0,0.1,0c0,0,0,0,0.1,0c0,0,0-0.2-0.1-0.4c0.1,0,0.1,0,0.2,0
		c0-0.1,0.1-0.2,0-0.3c0,0,0.1-0.1,0.1-0.2c0-0.1,0.1-0.2,0.1-0.2s0,0,0.1,0v0.1l0.1-0.1c0-0.1,0-0.1,0-0.1c0-0.1,0.1-0.1,0.1-0.1
		c0.1,0,0.1,0,0.1,0s0,0,0.1-0.1c0,0,0.1-0.1,0.1,0s0,0.1,0.1,0.1c0,0,0,0,0.1,0c0,0,0,0,0.1,0c0.1,0.2,0.2,0.2,0.2,0.3
		c0.1,0,0.1,0,0.1,0s0,0,0.1,0c0.1,0.1,0.1,0.1,0.2,0.1c0,0,0.1,0.1,0.1,0.2l0.1,0.1c0,0.1,0.1,0.1,0.1,0.3c0,0.1,0.1,0.2,0.1,0.3
		c0.1,0,0.2,0.1,0.3,0.3s0.2,0.3,0.3,0.3v0.1V57l0.2,0.2h0.1c0.1,0,0.1,0,0.1,0s0,0.1,0.1,0.1c0,0,0,0,0.1,0c0,0,0.1,0,0.2,0
		c0.1,0,0.2,0,0.2,0s0,0,0.1,0.1c0,0,0,0.1,0.1,0.1s0.1,0,0.2,0c0.1-0.1,0.1-0.1,0.1-0.1s0,0,0.1,0h0.1c0,0,0.1,0,0.1-0.1
		c0.1,0,0.1,0,0.2,0h0.1h0.1c0,0,0,0,0.1,0l0,0c0,0,0,0,0.1,0h0.1c0,0,0,0,0.1-0.1h0.1c0,0,0.1,0,0.1-0.1c0,0,0,0,0.1,0
		c0,0,0,0,0.1,0h0.1c0.1,0,0.1-0.1,0.1-0.2c0,0,0.1,0,0.1,0.1c0,0,0.1,0,0.1-0.1c0.1-0.1,0.1-0.1,0.2-0.1c0-0.2,0.2-0.3,0.4-0.5
		s0.4-0.4,0.4-0.6c0.1-0.1,0.2-0.2,0.2-0.3c0,0,0.1-0.1,0.2-0.2c0.1-0.1,0.1-0.2,0.1-0.2v-0.1c0,0,0-0.1,0.1-0.1v-0.3
		c0.1-0.1,0.1-0.1,0.1-0.1c0-0.1,0-0.2,0-0.4s0-0.3,0-0.4c0,0,0-0.1-0.1-0.1v-0.1c0,0,0-0.1-0.1-0.2c0-0.1-0.1-0.1-0.1-0.2
		c-0.1,0-0.1-0.1-0.1-0.1c-0.1,0.1-0.1,0.1-0.2,0c0-0.1,0-0.1,0-0.1h-0.1c0,0,0,0,0-0.1v-0.1c0,0,0,0-0.1,0h-0.1c0,0,0,0-0.1-0.1
		c0,0,0-0.1-0.1-0.1c0,0-0.1,0-0.2,0c-0.1,0-0.2,0-0.2,0c-0.1-0.1-0.2-0.1-0.3,0v-0.1c0,0-0.1-0.1-0.3-0.1c-0.2-0.1-0.3-0.1-0.3-0.1
		c-0.1-0.2-0.4-0.3-0.7-0.3l0,0l0,0v-0.1c0,0-0.1,0-0.2-0.1c-0.1-0.1-0.1-0.1-0.2-0.1c0,0,0,0-0.1,0c0,0,0,0.1-0.1,0.1
		c0,0,0-0.1-0.1-0.1c0,0-0.1-0.1-0.1,0c0-0.2-0.1-0.2-0.2,0c0-0.2-0.1-0.2-0.1-0.2c-0.1,0.1-0.2,0.1-0.3,0c0-0.1-0.2-0.1-0.4,0
		c0-0.1-0.1-0.2-0.1-0.2c-0.1,0-0.3,0-0.4-0.1h-0.1h-0.1c0,0,0,0-0.1,0l0,0c0,0,0,0-0.1,0s0,0-0.1,0c0,0,0,0-0.1,0
		c-0.2-0.1-0.3-0.1-0.5,0v-0.1c0,0,0-0.1-0.1-0.1c0,0,0,0-0.1,0c0,0,0,0-0.1-0.1c0,0,0-0.1-0.1-0.1c0,0-0.1,0-0.2-0.1
		c-0.1,0-0.2-0.1-0.2-0.1c0-0.1-0.1-0.1-0.1-0.1h-0.1h-0.1c0-0.1,0-0.2,0-0.2s0,0-0.1,0c0,0,0,0-0.1,0s0,0,0,0V50l0,0c0,0,0,0,0-0.1
		c0,0,0,0-0.1,0h-0.1v-0.1l0,0c0-0.1-0.1-0.1-0.2-0.1C37,49.6,37,49.6,37,49.5h-0.1h-0.1c0-0.1,0-0.1-0.1-0.2c0-0.1-0.1-0.2-0.2-0.3
		c-0.1-0.1-0.2-0.2-0.2-0.3h-0.1l-0.1-0.1c0-0.1,0-0.1,0-0.1c-0.2-0.2-0.2-0.4-0.2-0.6c0,0-0.1,0-0.1-0.1s-0.1-0.1-0.1-0.1
		s0-0.1,0-0.3c-0.2-0.1-0.3-0.3-0.4-0.5c0,0,0,0,0-0.1s0-0.2,0-0.2s0-0.1-0.1-0.1l-0.1-0.1c0,0,0-0.1,0-0.2c0,0,0-0.1,0-0.2
		c0-0.1,0-0.2,0-0.3v-0.1v-0.1c0,0,0-0.1,0.1-0.2c0-0.1,0-0.1,0-0.2c0-0.1,0-0.1,0-0.1c0.1-0.1,0.2-0.2,0.4-0.4h0.1c0,0,0,0,0-0.1
		v-0.1c0,0,0.1,0,0.2-0.1c0.2-0.1,0.3-0.2,0.3-0.2c0.1,0,0.1,0,0.1,0s0-0.1,0.1-0.2c0,0,0,0,0.1,0c0,0,0.1,0,0.1-0.1l0.1-0.1
		c0.1,0,0.1,0,0.1,0c0.1,0,0.2-0.1,0.2-0.3c0.1,0,0.2,0,0.2-0.1c0.1,0,0.2,0,0.2,0c0.1,0,0.2,0,0.2,0s0.1,0,0.2-0.1
		c0.1-0.1,0.1-0.1,0.2-0.1c0.1,0,0.1,0,0.1,0h0.1c0.1,0,0.1-0.1,0.1-0.1h0.1c0,0,0.1,0,0.1-0.1l0.1-0.1h0.1c0,0,0.1-0.1,0.2-0.2
		c0.1,0,0.2,0,0.2-0.1v0.1c0.1-0.1,0.2-0.1,0.3-0.1c0.2,0,0.3,0,0.4,0h0.1l0.1-0.1h0.1c0,0,0.1,0,0.1-0.1l0.1-0.1c0.1,0,0.3,0,0.5,0
		c0.3,0,0.5,0,0.6,0c0,0,0.1,0,0.2,0c0.1,0,0.1,0,0.2,0h0.1c0.1,0,0.1,0,0.2,0c0,0,0.1,0,0.2,0.1c0.2,0,0.4,0,0.5,0.1
		c0.1,0,0.2,0,0.3,0.1C43.8,41.8,43.9,41.8,44,41.8z M43.5,41.6c0.1,0,0.2,0,0.3,0.1s0.2,0.1,0.2,0.1s0,0.1,0,0.2
		c0.2,0.2,0.4,0.3,0.5,0.5h0.1c0,0.1,0,0.2,0.1,0.3c0,0.1,0,0.2,0.1,0.3h0.1c0,0.3,0,0.5,0,0.6S45,43.9,45,44s0,0.2,0,0.3
		s0,0.2,0,0.4c-0.1,0.1-0.2,0.2-0.2,0.5h-0.1c0,0.1-0.1,0.1-0.1,0.1h-0.1h-0.1c0,0,0,0-0.1,0.1c0,0,0,0-0.1,0c0,0,0,0-0.1,0
		c0,0-0.1,0.1-0.1,0.3c0,0-0.1,0-0.2-0.1h-0.1c0,0,0,0-0.1,0c0-0.1,0-0.2-0.2-0.4c0,0,0,0-0.1,0c0,0,0,0-0.1,0l-0.1-0.1H43
		c0,0,0,0-0.1,0V45c-0.1-0.1-0.2-0.2-0.3-0.1c0,0-0.1,0-0.1,0.1c-0.1,0-0.2,0-0.2,0h-0.1h-0.1H42h-0.1c0,0-0.1,0-0.2-0.1
		c0,0,0,0-0.1,0.1h-0.1c0,0,0,0-0.1,0h-0.1h-0.1h-0.1H41c0,0,0,0-0.1,0c0,0,0,0-0.1,0s-0.1,0-0.2,0c-0.3,0-0.4,0.1-0.4,0.1v0.1v0.1
		h-0.1L40,45.2c0,0-0.1,0-0.2,0.1c0,0,0,0-0.1,0c0,0,0,0-0.1,0c0,0.1-0.2,0.1-0.4,0.2c-0.2,0-0.3,0.1-0.4,0.2v0.1h-0.1
		c0,0,0,0-0.1,0c0,0,0,0.1-0.1,0.1h-0.1c0,0-0.1,0-0.1,0.1h-0.1c-0.1,0-0.1,0-0.1,0v0.1v0.1c0,0.1,0,0.2,0.1,0.2s0.1,0,0.1,0
		c0,0.1,0.1,0.2,0.2,0.3c0,0,0,0,0.1,0c0,0,0,0,0.1,0s0,0,0,0.1s0,0.1,0,0.1c0.1-0.1,0.2,0,0.2,0.1c0.1,0.1,0.1,0.1,0.2,0.1
		c0,0,0,0.1,0.1,0.1s0.2,0,0.2,0.1c0,0,0.1,0,0.1,0.1h0.1l0.1,0.1c0,0,0.1,0,0.1,0.1c0.3,0.1,0.4,0.1,0.4,0.2c0.1-0.1,0.2,0,0.3,0
		l0.1,0.1c0,0,0.1,0,0.2,0s0.1,0,0.2,0c0,0,0,0,0.1,0c0,0,0,0,0.1,0h0.1c0,0,0,0,0.1,0.1c0,0,0,0.1,0.1,0.1h0.1h0.1
		c0.2,0.2,0.3,0.2,0.4,0.2l0.1-0.1c0.1,0,0.1,0,0.2,0c0,0,0,0,0,0.1c0.1,0.1,0.2,0.1,0.2,0.1s0,0,0.1,0c0,0,0,0,0.1,0
		c0,0.2,0,0.2,0.1,0.2c0,0,0,0,0.1,0c0,0,0,0,0.1-0.1c0.1,0,0.2,0,0.2,0c0,0.1,0.1,0.2,0.2,0.2c0.1,0,0.2,0.1,0.2,0.2
		c0.2-0.1,0.4,0,0.4,0.1h0.1h0.1c0,0,0.1,0,0.1,0.1s0.1,0.1,0.1,0.1s0.1,0,0.1-0.1s0.1-0.1,0.1,0s0,0.2,0.1,0.2s0.1,0,0.2,0
		c0.1,0.1,0.1,0.1,0.1,0.1h0.1h0.1c0,0,0,0,0,0.1c0,0,0.1,0.1,0.2,0.1c0.1,0.1,0.2,0.1,0.2,0.2c0,0,0.1,0,0.2,0
		c0.1,0.1,0.1,0.1,0.2,0.1c0.1,0.2,0.1,0.3,0.2,0.3c0,0,0,0,0.1,0c0,0,0,0,0.1,0v0.1c0,0.1,0.1,0.2,0.3,0.4c0.1,0.2,0.2,0.3,0.3,0.4
		c0,0.1,0,0.1,0.1,0.2c0,0.1,0,0.1,0,0.2c0.1,0.1,0.2,0.3,0.2,0.6c0,0.1,0.1,0.1,0.1,0.3c0,0.1,0.1,0.2,0.1,0.3v0.1v0.1V53v0.1v0.1
		v0.1c0,0,0,0,0,0.1v0.1c0,0,0,0.1,0,0.3s0,0.3,0.1,0.3v0.1v0.1c0,0,0,0.2,0,0.4s-0.1,0.4-0.1,0.4v0.1c0,0.1,0,0.1-0.1,0.2
		c0,0.1-0.1,0.1-0.1,0.1c0,0.1,0,0.2-0.1,0.3v0.1c-0.2,0.2-0.2,0.3-0.2,0.4c-0.1,0.2-0.2,0.4-0.3,0.4c0,0.2,0,0.3-0.1,0.4
		c-0.1,0.1-0.2,0.2-0.2,0.3s0,0.1-0.1,0.2v0.1c0,0,0,0-0.1,0c0,0,0,0-0.1-0.1c0,0-0.1,0.1,0,0.2c0,0-0.1,0.1-0.4,0.3v0.1
		c-0.2,0.1-0.3,0.2-0.3,0.2s-0.1,0.1-0.2,0.2c-0.1,0-0.2,0.1-0.3,0.2c-0.1,0.1-0.2,0.2-0.2,0.2s0,0.1,0,0.2s0,0.1,0,0.2
		c0,0,0,0-0.1-0.1c0,0,0-0.1-0.1-0.1c0,0-0.1,0-0.1,0.1c-0.1,0.1-0.1,0.1-0.2,0.1l-0.1,0.1h-0.1c-0.1,0-0.1,0-0.1,0
		c-0.1,0.1-0.2,0.1-0.2,0c-0.1,0.1-0.2,0.2-0.2,0.2c-0.1,0.2-0.1,0.2-0.2,0.2h-0.1c0,0-0.1,0-0.1,0.1s-0.1,0.1-0.1,0.1
		c-0.1,0-0.2,0-0.2,0.1c-0.1,0-0.2,0.1-0.2,0.1s-0.1,0-0.2,0c-0.1,0-0.1,0-0.1,0s-0.1,0-0.2,0.1c-0.1,0-0.1,0.1-0.2,0.1h-0.1h-0.1
		c0,0,0,0.1-0.1,0.1c0,0-0.1,0-0.4,0c0,0,0,0-0.1-0.1c-0.2-0.1-0.3-0.1-0.4,0h-0.1c0,0.1-0.1,0.1-0.1,0.1c0-0.1-0.2-0.1-0.4-0.1
		c-0.1,0-0.2,0-0.2,0c-0.1-0.1-0.1-0.1-0.1-0.1s0,0-0.1,0.1c0,0-0.1,0.1-0.1,0v-0.1v-0.1c0,0-0.1,0-0.2,0c-0.1,0-0.1,0-0.1,0
		s-0.1,0-0.1-0.1h-0.1V60c0,0-0.1,0-0.2,0l0,0v-0.1c0,0-0.1,0-0.1-0.1s-0.1-0.2-0.1-0.2c-0.1-0.1-0.2-0.2-0.2-0.2c0-0.1,0-0.1,0-0.1
		c0-0.1-0.1-0.1-0.2-0.2c-0.1-0.1-0.1-0.1-0.2-0.2c0,0,0,0-0.1,0c0,0,0,0-0.1,0c0-0.2,0-0.3-0.1-0.4c-0.1-0.1-0.2-0.2-0.2-0.2v-0.1
		v-0.1c0,0-0.1,0-0.1-0.1s-0.1-0.1-0.1-0.2c-0.1-0.1-0.1-0.2-0.2-0.2v-0.1v-0.1v-0.1c0,0,0-0.1-0.1-0.1v-0.1V57c0-0.1,0-0.1-0.1-0.2
		c0-0.1-0.1-0.1-0.1-0.2c0-0.1,0-0.1,0.1-0.2c0-0.1,0.1-0.2,0.1-0.2s0,0,0.1,0c0,0,0,0,0.1,0c0,0,0-0.2-0.1-0.4c0.1,0,0.1,0,0.2,0
		c0-0.1,0.1-0.2,0-0.3c0,0,0.1-0.1,0.1-0.2c0-0.1,0.1-0.2,0.1-0.2s0.1,0,0.1,0.1c0,0,0.1,0,0.1-0.1s0-0.1,0-0.1
		c0-0.1,0.1-0.1,0.1-0.1c0.1,0,0.1,0,0.1,0s0,0,0.1-0.1c0,0,0.1-0.1,0.1,0s0,0.1,0.1,0.1c0,0,0,0,0.1,0c0,0,0,0,0.1,0
		c0.1,0.2,0.2,0.2,0.2,0.3c0.1,0,0.1,0,0.1,0s0,0,0.1,0c0.1,0.1,0.1,0.1,0.2,0.1c0,0,0.1,0.1,0.1,0.2l0.1,0.1c0,0.1,0.1,0.1,0.1,0.3
		c0,0.1,0.1,0.2,0.1,0.3c0.1,0,0.2,0.1,0.3,0.3s0.2,0.3,0.3,0.3v0.1V57l0.2,0.2h0.1c0.1,0,0.1,0,0.1,0s0,0.1,0.1,0.1c0,0,0,0,0.1,0
		c0,0,0.1,0,0.2,0c0.1,0,0.2,0,0.2,0s0,0,0.1,0.1c0,0,0,0.1,0.1,0.1s0.1,0,0.2,0c0.1-0.1,0.1-0.1,0.1-0.1s0,0,0.1,0h0.1
		c0,0,0.1,0,0.1-0.1c0.1,0,0.1,0,0.2,0h0.1h0.1c0,0,0,0,0.1,0l0,0c0,0,0,0,0.1,0h0.1c0,0,0,0,0.1-0.1h0.1c0,0,0.1,0,0.1-0.1
		c0,0,0,0,0.1,0c0,0,0,0,0.1,0h0.1c0.1,0,0.1-0.1,0.1-0.2c0,0,0.1,0,0.1,0.1c0,0,0.1,0,0.1-0.1c0.1-0.1,0.1-0.1,0.2-0.1
		c0-0.2,0.2-0.3,0.4-0.5s0.4-0.4,0.4-0.6c0.1-0.1,0.2-0.2,0.2-0.3c0,0,0.1-0.1,0.2-0.2c0.1-0.1,0.1-0.2,0.1-0.2v-0.1
		c0,0,0-0.1,0.1-0.1v-0.3c0.1-0.1,0.1-0.1,0.1-0.1c0-0.1,0-0.2,0-0.4s0-0.3,0-0.4c0,0,0-0.1-0.1-0.1v-0.1c0,0,0-0.1-0.1-0.2
		c0-0.1-0.1-0.1-0.1-0.2c-0.1,0-0.1-0.1-0.1-0.1c-0.1,0.1-0.1,0.1-0.2,0c0-0.1,0-0.1,0-0.1h-0.1c0,0,0,0,0-0.1v-0.1c0,0,0,0-0.1,0
		h-0.1c0,0,0,0-0.1-0.1c0,0,0-0.1-0.1-0.1c0,0-0.1,0-0.2,0c-0.1,0-0.2,0-0.2,0c-0.1-0.1-0.2-0.1-0.3,0v-0.1c0,0-0.1-0.1-0.3-0.1
		c-0.2-0.1-0.3-0.1-0.3-0.1c-0.1-0.2-0.4-0.3-0.7-0.3l0,0l0,0v-0.1c0,0-0.1,0-0.2-0.1c-0.1-0.1-0.1-0.1-0.2-0.1c0,0,0,0.1-0.1,0.1
		c0,0,0,0.1-0.1,0.1c0,0,0-0.1-0.1-0.1l-0.1-0.1c0-0.1-0.1-0.1-0.2,0c0-0.2-0.1-0.2-0.1-0.2c-0.1,0.1-0.2,0.1-0.3,0
		c0-0.1-0.2-0.1-0.4,0c0-0.1-0.1-0.2-0.1-0.2c-0.1,0-0.3,0-0.4-0.1c0,0-0.1,0-0.2,0c0,0,0,0-0.1,0l0,0c0,0,0,0-0.1,0s0,0-0.1,0
		c0,0,0,0-0.1,0c-0.2-0.1-0.3-0.1-0.5,0v-0.1c0,0,0-0.1-0.1-0.1c0,0,0,0-0.1,0c0,0,0,0-0.1-0.1c0,0,0-0.1-0.1-0.1c0,0-0.1,0-0.2-0.1
		c-0.1,0-0.2-0.1-0.2-0.1c0-0.1-0.1-0.1-0.1-0.1h-0.1h-0.1c0-0.1,0-0.2,0-0.2s0,0-0.1,0c0,0,0,0-0.1,0s0,0,0,0V50l0,0c0,0,0,0,0-0.1
		c0,0,0,0-0.1,0h-0.1v-0.1l0,0c0-0.1-0.1-0.1-0.2-0.1C37,49.6,37,49.6,37,49.5h-0.1h-0.1c0-0.1,0-0.1-0.1-0.2c0-0.1-0.1-0.2-0.2-0.3
		c-0.1-0.1-0.2-0.2-0.2-0.3h-0.1l-0.1-0.1c0-0.1,0-0.1,0-0.1c-0.2-0.2-0.2-0.4-0.2-0.6c0,0-0.1,0-0.1-0.1s-0.1-0.1-0.1-0.1
		s0-0.1,0-0.3c-0.2-0.1-0.3-0.3-0.4-0.5c0,0,0,0,0-0.1s0-0.2,0-0.2s0-0.1-0.1-0.1l-0.1-0.1c0,0,0-0.1,0-0.2c0,0,0-0.1,0-0.2
		c0-0.1,0-0.2,0-0.3v-0.1v-0.1c0,0,0-0.1,0.1-0.2c0-0.1,0-0.1,0-0.2c0-0.1,0-0.1,0-0.1c0.1-0.1,0.2-0.2,0.4-0.4h0.1c0,0,0,0,0-0.1
		v-0.1c0,0,0.1,0,0.2-0.1c0.2-0.1,0.3-0.2,0.3-0.2c0.1,0,0.1,0,0.1,0s0-0.1,0.1-0.2c0,0,0,0,0.1,0c0,0,0.1,0,0.1-0.1l0.1-0.1
		c0.1,0,0.1,0,0.1,0c0.1,0,0.2-0.1,0.2-0.3c0.1,0,0.2,0,0.2-0.1c0.1,0,0.2,0,0.2,0c0.1,0,0.2,0,0.2,0s0.1,0,0.2-0.1
		c0.1-0.1,0.1-0.1,0.2-0.1c0.1,0,0.1,0,0.1,0h0.1c0.1,0,0.1-0.1,0.1-0.1h0.1c0,0,0.1,0,0.1-0.1l0.1-0.1h0.1c0,0,0.1-0.1,0.2-0.2
		c0.1,0,0.2,0,0.2-0.1v0.1c0.1-0.1,0.2-0.1,0.3-0.1c0.2,0,0.3,0,0.4,0h0.1l0.1-0.1h0.1c0,0,0.1,0,0.1-0.1l0.1-0.1c0.1,0,0.3,0,0.5,0
		c0.3,0,0.5,0,0.6,0c0,0,0.1,0,0.2,0c0.1,0,0.1,0,0.2,0h0.1c0.1,0,0.1,0,0.2,0c0,0,0.1,0.1,0.2,0.2C43.2,41.5,43.4,41.5,43.5,41.6z"
		/>
	<path fill="#2B5799" d="M62.7,41.3L62.7,41.3v0.2c0.2,0.1,0.3,0,0.4,0c0,0,0,0,0.1,0c0,0,0,0,0.1,0s0.1,0,0.1,0
		c0.1,0.1,0.3,0.1,0.5,0c0,0.1,0.1,0.1,0.2,0.1c0.1,0,0.2,0.1,0.2,0.1s0,0,0.1,0c0,0,0,0,0.1,0c0,0,0.1,0,0.1,0.1c0,0,0,0,0.1,0
		c0,0,0,0,0.1,0c0,0.1,0,0.2,0.1,0.3c0,0,0.1,0,0.2,0.1s0.1,0.1,0.2,0.1c0.1,0.5,0.2,0.7,0.2,0.8c0,0.2-0.1,0.3,0,0.4
		c0,0.4,0,0.6,0,0.6c0,0.1-0.1,0.2-0.2,0.3s-0.2,0.2-0.2,0.3C65,44.8,65,44.8,65,44.9c0,0,0,0-0.1,0c0,0,0,0-0.1,0
		c0,0-0.1,0-0.1,0.1s-0.1,0.1-0.1,0.1h-0.1h-0.1c0,0,0,0-0.1,0.1c0,0,0,0.1-0.1,0.1h-0.1c0,0.1-0.1,0.1-0.1,0.1s-0.1,0-0.1-0.1
		c-0.1,0-0.1-0.1-0.2-0.1c-0.1,0-0.1,0.1-0.1,0.2c0,0.1-0.1,0-0.2-0.1h-0.1h-0.1c0-0.1,0-0.1-0.1-0.2H63c0-0.2-0.1-0.2-0.2-0.2
		L62.6,45c0,0,0,0-0.1,0c0,0,0,0-0.1,0h-0.1c0-0.1,0-0.1-0.1-0.1c0,0,0,0-0.1,0V45c-0.1,0-0.2,0-0.2-0.1c0,0-0.1,0-0.1,0.1
		c0,0-0.1,0-0.1-0.1c-0.1,0-0.3,0-0.6,0s-0.5,0-0.5,0s0,0-0.1,0c0,0,0,0-0.1,0c0,0,0,0-0.1,0c0,0,0,0-0.1,0c-0.2,0-0.4,0-0.7,0h-0.1
		h-0.1c-0.1-0.1-0.2,0-0.2,0s0.1,0.1,0.1,0.3s0.1,0.3,0.2,0.2c-0.1,0.1-0.1,0.3-0.1,0.4v0.1c0,0.1,0,0.2,0,0.2c0,0.1,0,0.2,0.1,0.3
		c0,0.1,0.1,0.1,0.1,0.1c0,0.3,0,0.5-0.1,0.6c0,0.2,0,0.4,0.1,0.4V48v0.1c0,0,0,0.1,0.1,0.1c0,0.2,0,0.3,0,0.4c0,0,0,0.1,0.1,0.2
		c-0.1,0.2-0.1,0.4,0,0.4c0,0.1-0.1,0.1-0.1,0.2c0,0.1,0,0.1,0.1,0.1C60,49.8,60,50,60,50c0,0.1,0,0.1,0,0.2s0,0.2,0,0.2
		c0,0.1,0,0.1,0,0.1s0,0.1,0.1,0.1l0.1,0.1c0,0,0,0.1-0.1,0.1c0,0.1,0,0.2,0,0.3s0,0.2,0,0.3s0.1,0.2,0.1,0.2v0.1v0.1c0,0,0,0,0,0.1
		V52v0.1v0.1v0.1v0.1v0.1c0,0.1,0,0.1,0,0.1s0,0.1,0,0.2c0,0.1,0,0.2,0,0.3s0,0.2,0,0.2v0.1c0,0.1,0,0.1,0.1,0.1v0.1
		c0,0.1,0,0.2,0,0.3l0.1,0.1c0,0.2,0.1,0.4,0.1,0.4s-0.1,0.1-0.1,0.2c0,0,0,0,0,0.1s0,0.1,0,0.1v0.1c0,0,0,0.1,0.1,0.1
		c0,0.2,0.1,0.3,0.1,0.3c0,0.4,0,0.7,0.1,0.7h0.1v0.1c0,0.1,0,0.1,0,0.1s0,0-0.1-0.1c-0.1,0.1-0.1,0.1,0,0.2c0,0.1,0,0.2,0,0.3
		s0,0.2,0,0.3s0.1,0.2,0.1,0.4c0,0,0.1,0.2,0.1,0.5l0.1,0.1c0,0.1,0,0.2,0,0.5s0,0.4,0,0.5s0,0.1,0,0.2c0,0.1,0,0.2,0,0.3
		c0,0.5,0,0.8,0,0.9c0,0,0,0.1-0.1,0.1c0,0-0.1,0.1-0.1,0.2c0,0,0,0-0.1,0.1c0,0,0,0-0.1-0.1c0,0-0.1,0-0.1,0.1s-0.1,0.1-0.1,0
		c0,0,0,0-0.1,0c0,0,0,0-0.1,0L60.1,61c0,0,0,0-0.1-0.1c0,0,0-0.1-0.1-0.1c0,0-0.1,0.1-0.1,0.2c-0.1,0.2-0.2,0.2-0.2,0
		c0,0,0,0-0.1,0c0,0,0,0-0.1,0l-0.1-0.1c-0.1,0-0.2,0-0.3-0.1c-0.1,0-0.1,0-0.1,0c0-0.3-0.1-0.5-0.2-0.5c0-0.1,0-0.1,0-0.1h-0.1
		c0-0.2-0.1-0.3-0.2-0.3c0-0.1,0-0.1,0-0.2c0-0.1,0.1-0.1,0.1-0.2c0,0,0-0.1,0-0.2c0-0.1,0-0.2,0-0.2s0-0.1,0-0.3s0-0.2,0-0.2l0,0
		c0,0,0,0-0.1,0c0-0.2,0-0.3,0-0.4c0-0.1,0-0.2,0-0.3s-0.1-0.2-0.1-0.3c0,0,0-0.1,0-0.2c0-0.1,0-0.2,0-0.2s0-0.1-0.1-0.1L58.1,57
		v-0.1c0-0.1,0-0.1,0-0.2H58c0-0.2,0-0.4,0-0.5S57.9,56,57.9,56c0-0.1,0-0.2,0-0.3c0-0.3,0-0.4-0.1-0.5c0-0.1,0.1-0.2,0-0.3
		c0-0.2-0.1-0.2-0.2-0.2c0.1-0.3,0.1-0.6,0-0.9c0,0,0-0.2,0-0.4s0-0.4-0.1-0.4c0-0.1,0-0.2,0-0.3s0-0.2,0-0.3s0-0.1-0.1-0.2
		c0-0.1-0.1-0.2-0.1-0.2c0-0.1,0-0.2,0-0.3v-0.1v-0.1c0-0.1-0.1-0.1-0.2-0.2c0,0,0-0.1,0.1-0.1l0.1-0.1c0,0,0-0.1-0.1-0.2
		c0-0.1,0-0.1,0-0.3c0-0.1,0-0.2,0-0.2l-0.1-0.1v-0.7v-0.1v-0.1c0,0,0-0.1,0-0.2c0-0.1,0-0.2,0-0.2s0-0.1-0.1-0.1l-0.1-0.1
		c0,0,0-0.1,0-0.3s0-0.2,0-0.3c0,0,0-0.1,0-0.2c0-0.1,0-0.2,0-0.2v-0.1v-0.1c0,0,0,0-0.1-0.1v-0.1c0-0.1,0-0.2,0-0.3
		c0-0.3,0-0.4-0.1-0.5c0-0.3-0.1-0.4-0.2-0.4v-0.1c0,0,0-0.1,0.1-0.1c0-0.2-0.1-0.3-0.2-0.3c0-0.1,0.1-0.2,0-0.4v-0.1v-0.1
		c0-0.1,0-0.1,0-0.2c0-0.1,0-0.1-0.1-0.1c-0.1,0.1-0.2,0.1-0.3,0c-0.2,0.1-0.3,0.2-0.3,0.2h-0.1h-0.1c0,0,0,0-0.1,0s-0.1,0-0.2,0
		c0-0.1-0.1-0.1-0.2-0.2c0,0,0,0-0.1,0.1s0,0.1-0.1,0.1c0,0-0.1,0-0.2,0c-0.1,0-0.2,0-0.2,0h-0.1c-0.1,0-0.1,0-0.1,0.1
		c0,0,0,0-0.1,0c0,0,0,0-0.1,0c0,0-0.1,0-0.2,0h-0.1h-0.1c-0.1,0-0.1,0-0.1,0h-0.1h-0.1h-0.1h-0.1c-0.1,0-0.1,0-0.2,0
		c0,0.1,0,0.1,0,0.1s-0.1,0-0.2,0c-0.1,0-0.2,0-0.2,0c0-0.1-0.1-0.1-0.1-0.1s-0.1,0-0.1,0.1c-0.3,0-0.4-0.1-0.5-0.1h-0.1h-0.1
		c0,0,0,0-0.1,0.1c0,0,0,0-0.1,0c0,0,0,0-0.1,0c0,0-0.1,0-0.2,0c-0.1,0-0.2,0-0.2,0s0,0.1-0.1,0.1c0,0,0,0-0.1,0c0,0,0,0-0.1,0
		c0-0.2,0-0.2-0.1-0.3s-0.2,0-0.2,0.1c0,0-0.1,0-0.2,0c-0.1,0-0.1,0-0.1,0c0-0.1-0.1-0.2-0.1-0.2s0,0-0.1,0c0,0,0,0-0.1,0s0,0,0-0.1
		v-0.1H50c0-0.1,0-0.1,0-0.2v-0.1v-0.1c0-0.1,0-0.1,0-0.1s-0.1-0.2-0.2-0.4c0-0.1-0.1-0.2-0.2-0.3c-0.1-0.1-0.1-0.2-0.1-0.3v-0.1
		c0,0,0-0.1,0.1-0.1c0-0.1,0-0.1,0-0.2c0-0.1,0-0.2,0-0.2c0-0.1,0.1-0.2,0.2-0.3v-0.1l0,0c0,0,0,0,0.1-0.1s0.1-0.2,0.1-0.3
		c0.1-0.2,0.2-0.2,0.2-0.3c0.1,0.1,0.4,0.1,0.6,0v-0.1c0.3,0.1,0.4,0.1,0.4,0.1c0.1-0.1,0.1-0.1,0.1-0.1h0.1h0.1c0,0,0,0,0.1,0
		c0,0,0,0,0.1,0s0,0,0.1,0c0,0,0,0,0.1,0c0.2,0,0.3,0,0.4,0c0,0,0.1,0,0.1-0.1c0.1,0,0.1-0.1,0.2,0c0.1,0.1,0.1,0.1,0.1,0.1
		c0.1,0,0.2,0,0.4,0c0,0,0.1,0,0.2,0c0.1,0,0.1,0,0.2-0.1c0,0,0.1,0,0.3,0c0.1,0,0.2,0,0.3,0c0,0,0,0,0.1,0c0,0,0,0,0.1,0
		c0,0,0,0,0.1,0s0,0,0.1,0c0.1,0.1,0.3,0.1,0.5,0h0.1h0.1h0.1h0.1h0.1c0.1-0.1,0.2-0.1,0.4,0l0,0l0,0c0,0,0,0,0.1,0c0,0,0,0,0.1,0
		s0.3,0,0.5,0s0.4,0,0.5,0c0,0,0-0.1,0.1-0.1c0.1,0.1,0.2,0.1,0.4,0s0.3-0.1,0.3-0.1s0,0,0.1,0c0,0,0,0,0.1,0c0,0,0,0,0.1,0
		c0,0,0,0,0-0.1c0,0,0.1,0,0.2,0c0.1,0,0.1,0,0.2,0l0,0c0,0,0.1,0,0.2,0c0.1,0,0.1,0.1,0.2,0.1c0.1-0.1,0.1-0.1,0.2-0.1h0.1
		c0,0,0,0,0.1,0c0,0,0,0,0.1,0c0,0,0,0,0.1,0c0,0,0,0,0.1,0s0.1,0,0.2-0.1c0.1,0,0.2,0,0.2,0.1c0.1,0.1,0.1,0.1,0.2,0.2
		c0,0,0.1,0,0.1-0.1l0.1-0.1c0.1,0,0.2,0,0.2,0s0,0,0.1,0c0,0,0,0,0.1,0c0,0,0.1,0,0.2,0.1c0,0,0,0,0.1,0c0,0,0,0,0.1,0
		c0,0.1,0.1,0.1,0.2,0c0.1-0.1,0.2-0.1,0.2,0c0,0,0,0,0.1,0c0,0,0,0,0.1,0c0,0,0.1,0,0.2,0c0.1,0,0.1,0,0.1,0h0.1h0.1
		c0,0,0.1,0,0.2-0.1h0.1c0,0.1,0.1,0.1,0.1,0.1s0,0,0.1,0c0,0,0,0,0.1,0s0.1,0,0.1,0.1c0,0,0.1,0,0.1-0.1
		C62.7,41.4,62.7,41.3,62.7,41.3z M62.6,41.4C62.6,41.3,62.7,41.3,62.6,41.4L62.6,41.4L62.6,41.4c0.3,0.2,0.4,0.1,0.5,0.1
		c0,0,0,0,0.1,0c0,0,0,0,0.1,0s0.1,0,0.1,0c0.1,0.1,0.3,0.1,0.5,0c0,0.1,0.1,0.1,0.2,0.1s0.2,0.1,0.2,0.1s0,0,0.1,0s0,0,0.1,0
		c0,0,0.1,0,0.1,0.1c0,0,0,0,0.1,0c0,0,0,0,0.1,0c0,0.1,0,0.2,0.1,0.3c0,0,0.1,0,0.2,0.1s0.1,0.1,0.2,0.1c0.1,0.5,0.2,0.7,0.2,0.8
		c0,0.2-0.1,0.3,0,0.4c0,0.4,0,0.6,0,0.6c0,0.1-0.1,0.2-0.2,0.3s-0.2,0.2-0.2,0.3C65,44.8,65,44.8,65,44.9c0,0,0,0-0.1,0
		c0,0,0,0-0.1,0c0,0-0.1,0-0.1,0.1s-0.1,0.1-0.1,0.1h-0.1h-0.1c0,0,0,0-0.1,0.1c0,0,0,0.1-0.1,0.1h-0.1c0,0.1-0.1,0.1-0.1,0.1
		s-0.1,0-0.1-0.1c-0.1,0-0.1-0.1-0.2-0.1c-0.1,0-0.1,0.1-0.1,0.2c0,0.1-0.1,0-0.2-0.1h-0.1h-0.1c0-0.1,0-0.1-0.1-0.2H63
		c0-0.2-0.1-0.2-0.2-0.2L62.6,45c0,0,0,0-0.1,0c0,0,0,0-0.1,0h-0.1c0-0.1,0-0.1-0.1-0.1c0,0,0,0-0.1,0V45c-0.1,0-0.2,0-0.2-0.1
		c0,0-0.1,0-0.1,0.1c0,0-0.1,0-0.1-0.1c-0.1,0-0.3,0-0.6,0s-0.5,0-0.5,0s0,0-0.1,0c0,0,0,0-0.1,0c0,0,0,0-0.1,0c0,0,0,0-0.1,0
		c-0.2,0-0.4,0-0.7,0h-0.1h-0.1c-0.1-0.1-0.2,0-0.2,0s0.1,0.1,0.1,0.3s0.1,0.3,0.2,0.2c-0.1,0.1-0.1,0.3-0.1,0.4v0.1
		c0,0.1,0,0.2,0,0.2c0,0.1,0,0.2,0.1,0.3c0,0.1,0.1,0.1,0.1,0.1c0,0.3,0,0.5-0.1,0.6c0,0.2,0,0.4,0.1,0.4V48v0.1c0,0,0,0.1,0.1,0.1
		c0,0.2,0,0.3,0,0.4c0,0,0,0.1,0.1,0.2c-0.1,0.2-0.1,0.4,0,0.4c0,0.1-0.1,0.1-0.1,0.2c0,0.1,0,0.1,0.1,0.1C60,49.8,60,50,60,50
		c0,0.1,0,0.1,0,0.2s0,0.2,0,0.2c0,0.1,0,0.1,0,0.1s0,0.1,0.1,0.1l0.1,0.1c0,0,0,0.1-0.1,0.1c0,0.1,0,0.2,0,0.3s0,0.2,0,0.3
		s0.1,0.2,0.1,0.2v0.1v0.1c0,0,0,0,0,0.1V52v0.1v0.1v0.1v0.1v0.1c0,0.1,0,0.1,0,0.1s0,0.1,0,0.2c0,0.1,0,0.2,0,0.3s0,0.2,0,0.2v0.1
		c0,0.1,0,0.1,0.1,0.1v0.1c0,0.1,0,0.2,0,0.3l0.1,0.1c0,0.2,0.1,0.4,0.1,0.4s-0.1,0.1-0.1,0.2c0,0,0,0,0,0.1s0,0.1,0,0.1v0.1
		c0,0,0,0.1,0.1,0.1c0,0.2,0.1,0.3,0.1,0.3c0,0.4,0,0.7,0.1,0.7h0.1v0.1c0,0.1,0,0.1,0,0.1s0,0-0.1-0.1c-0.1,0.1-0.1,0.1,0,0.2
		c0,0.1,0,0.2,0,0.3s0,0.2,0,0.3s0.1,0.2,0.1,0.4c0,0,0.1,0.2,0.1,0.5l0.1,0.1c0,0.1,0,0.2,0,0.5s0,0.4,0,0.5s0,0.1,0,0.2
		c0,0.1,0,0.2,0,0.3c0,0.5,0,0.8,0,0.9c0,0,0,0.1-0.1,0.1c0,0-0.1,0.1-0.1,0.2c0,0,0,0-0.1,0.1c0,0,0,0-0.1-0.1c0,0-0.1,0-0.1,0.1
		s-0.1,0.1-0.1,0c0,0,0,0-0.1,0c0,0,0,0-0.1,0L60.1,61c0,0-0.1,0-0.1-0.1c0,0,0-0.1-0.1-0.1c0,0-0.1,0.1-0.1,0.2
		c-0.1,0.2-0.2,0.2-0.2,0c0,0,0,0-0.1,0c0,0,0,0-0.1,0l-0.1-0.1c-0.1,0-0.2,0-0.3-0.1c-0.1,0-0.1,0-0.1,0c0-0.3-0.1-0.5-0.2-0.5
		c0-0.1,0-0.1,0-0.1h-0.1c0-0.2-0.1-0.3-0.2-0.3c0-0.1,0-0.1,0-0.2c0-0.1,0.1-0.1,0.1-0.2c0,0,0-0.1,0-0.2c0-0.1,0-0.2,0-0.2
		s0-0.1,0-0.3s0-0.2,0-0.2l0,0c0,0,0,0-0.1,0c0-0.2,0-0.3,0-0.4c0-0.1,0-0.2,0-0.3s-0.1-0.2-0.1-0.3c0,0,0-0.1,0-0.2
		c0-0.1,0-0.2,0-0.2s0-0.1-0.1-0.1L58.1,57v-0.1c0-0.1,0-0.1,0-0.2H58c0-0.2,0-0.4,0-0.5S57.9,56,57.9,56c0-0.1,0-0.2,0-0.3
		c0-0.3,0-0.4-0.1-0.5c0-0.1,0.1-0.2,0-0.3c0-0.2-0.1-0.2-0.2-0.2c0.1-0.3,0.1-0.6,0-0.9c0,0,0-0.2,0-0.4s0-0.4-0.1-0.4
		c0-0.1,0-0.2,0-0.3s0-0.2,0-0.3s0-0.1-0.1-0.2c0-0.1-0.1-0.2-0.1-0.2c0-0.1,0-0.2,0-0.3v-0.1v-0.1c0-0.1-0.1-0.1-0.2-0.2
		c0,0,0-0.1,0.1-0.1l0.1-0.1c0,0,0-0.1-0.1-0.2c0-0.1,0-0.1,0-0.3c0-0.1,0-0.2,0-0.2l-0.1-0.1v-0.7v-0.1v-0.1c0,0,0-0.1,0-0.2
		c0-0.1,0-0.2,0-0.2s0-0.1-0.1-0.1l-0.1-0.1c0,0,0-0.1,0-0.3s0-0.2,0-0.3c0,0,0-0.1,0-0.2c0-0.1,0-0.2,0-0.2v-0.1v-0.1
		c0,0,0,0-0.1-0.1v-0.1c0-0.1,0-0.2,0-0.3c0-0.3,0-0.4-0.1-0.5c0-0.3-0.1-0.4-0.2-0.4v-0.1c0,0,0-0.1,0.1-0.1c0-0.2-0.1-0.3-0.2-0.3
		c0-0.1,0.1-0.2,0-0.4v-0.1v-0.1c0-0.1,0-0.1,0-0.2c0-0.1,0-0.1-0.1-0.1c-0.1,0.1-0.2,0.1-0.3,0c-0.2,0.1-0.3,0.2-0.3,0.2h-0.1h-0.1
		c0,0,0,0-0.1,0s-0.1,0-0.2,0c0-0.1-0.1-0.2-0.2-0.2c0,0,0,0-0.1,0.1s0,0.1-0.1,0.1c0,0-0.1,0-0.2,0c-0.1,0-0.2,0-0.2,0h-0.1
		c-0.1,0-0.1,0-0.1,0.1c0,0,0,0-0.1,0c0,0,0,0-0.1,0c0,0-0.1,0-0.2,0h-0.1h-0.1c-0.1,0-0.1,0-0.1,0h-0.1h-0.1h-0.1h-0.1
		c-0.1,0-0.1,0-0.2,0c0,0.1,0,0.1,0,0.1s-0.1,0-0.2,0c-0.1,0-0.1,0-0.2,0c0-0.1-0.1-0.1-0.1-0.1s-0.1,0-0.1,0.1
		c-0.3,0-0.4-0.1-0.5-0.1h-0.1h-0.1c0,0,0,0-0.1,0.1c0,0,0,0-0.1,0c0,0,0,0-0.1,0c0,0-0.1,0-0.2,0c-0.1,0-0.2,0-0.2,0s0,0.1-0.1,0.1
		c0,0,0,0-0.1,0c0,0,0,0-0.1,0c0-0.2,0-0.2-0.1-0.3s-0.2,0-0.2,0.1c0,0-0.1,0-0.2,0c-0.1,0-0.1,0-0.1,0c0-0.1-0.1-0.2-0.1-0.2
		s0,0-0.1,0c0,0,0,0-0.1,0s0,0,0-0.1v-0.1H50c0-0.1,0-0.2-0.1-0.3v-0.1c0-0.1,0-0.1,0-0.1s-0.1-0.2-0.2-0.4c0-0.1-0.1-0.2-0.2-0.3
		c-0.1-0.1-0.1-0.2-0.1-0.3v-0.1c0,0,0-0.1,0.1-0.1c0-0.1,0-0.1,0-0.2c0-0.1,0-0.2,0-0.2c0-0.1,0.1-0.2,0.2-0.3v-0.1l0,0
		c0,0,0,0,0.1-0.1s0.1-0.2,0.1-0.3c0.1-0.2,0.2-0.2,0.2-0.3c0.1,0.1,0.4,0.1,0.6,0v-0.1c0.3,0.1,0.4,0.1,0.4,0.1
		c0.1-0.1,0.1-0.1,0.1-0.1h0.1h0.1c0,0,0,0,0.1,0c0,0,0,0,0.1,0s0,0,0.1,0c0,0,0,0,0.1,0c0.2,0,0.3,0,0.4,0c0,0,0.1,0,0.1-0.1
		c0.1,0,0.1-0.1,0.2,0c0.1,0.1,0.1,0.1,0.1,0.1c0.1,0,0.2,0,0.4,0c0,0,0.1,0,0.2,0c0.1,0,0.1,0,0.2-0.1c0,0,0.1,0,0.3,0
		c0.1,0,0.2,0,0.3,0c0,0,0,0,0.1,0c0,0,0,0,0.1,0c0,0,0,0,0.1,0s0,0,0.1,0c0.1,0.1,0.3,0.1,0.5,0H55h0.1h0.1h0.1h0.1
		c0.1-0.1,0.2-0.1,0.4,0l0,0l0,0c0,0,0,0,0.1,0c0,0,0,0,0.1,0s0.3,0,0.5,0s0.4,0,0.5,0h0.1c0.1,0.1,0.2,0.1,0.4,0s0.3-0.1,0.3-0.1
		s0,0,0.1,0c0,0,0,0,0.1,0c0,0,0,0,0.1,0c0,0,0,0,0-0.1c0,0,0.1,0,0.2,0c0.1,0,0.1,0,0.2,0l0,0c0,0,0.1,0,0.2,0
		c0.1,0,0.1,0.1,0.2,0.1c0.1-0.1,0.1-0.1,0.2-0.1h0.1c0,0,0,0,0.1,0c0,0,0,0,0.1,0c0,0,0,0,0.1,0c0,0,0,0,0.1,0s0.1,0,0.2-0.1
		c0.1,0,0.2,0,0.2,0.1c0.1,0.1,0.1,0.1,0.2,0.1h0.1l0.1-0.1c0.1,0,0.2,0,0.2,0s0,0,0.1,0c0,0,0,0,0.1,0c0,0,0.1,0,0.2,0.1
		c0,0,0,0,0.1,0c0,0,0,0,0.1,0c0,0.1,0.1,0.1,0.2,0c0.1-0.1,0.2-0.1,0.2,0c0,0,0,0,0.1,0c0,0,0,0,0.1,0c0,0,0.1,0,0.2,0
		c0.1,0,0.1,0,0.1,0h0.1h0.1c0,0,0.1,0,0.2-0.1h0.1c0,0.1,0.1,0.1,0.1,0.1s0,0,0.1,0c0,0,0,0,0.1,0s0.1,0,0.1,0.1
		C62.5,41.6,62.6,41.5,62.6,41.4z M57.9,54.1L57.9,54.1C57.8,54.1,57.8,54.1,57.9,54.1C57.8,54.1,57.8,54.1,57.9,54.1
		C57.8,54,57.9,54,57.9,54.1z M57.8,54.2L57.8,54.2C57.8,54,57.9,54,57.8,54.2C57.9,54.1,57.9,54.1,57.8,54.2
		C57.8,54.1,57.8,54.1,57.8,54.2z M60.2,51.7L60.2,51.7L60.2,51.7z M60.2,51.7L60.2,51.7L60.2,51.7L60.2,51.7z"/>
	<path fill="#2B5799" d="M73.5,37.6c0.5,0.1,0.7,0,0.7-0.2c0,0,0.1,0,0.3,0v0.1c0,0,0,0,0,0.1c0,0,0.1,0,0.2,0s0.1,0,0.1,0.1
		c0.1,0,0.2,0,0.4,0.1c0.4,0,0.6,0.1,0.7,0.3H76c0,0.1,0.1,0.1,0.3,0.3c0.1,0.1,0.2,0.2,0.3,0.3v0.1c0.1,0.1,0.3,0.4,0.4,0.8
		l0.1,0.1c0,0.2,0,0.3,0,0.4c0,0.1,0,0.2,0,0.3S77,40.6,77,40.6c0,0.1-0.1,0.1-0.1,0.1c0,0.1,0,0.2-0.1,0.3c0,0.1,0,0.1,0,0.2
		l-0.1,0.1c0,0,0,0-0.1,0c0,0,0,0-0.1,0c0,0,0,0.1-0.1,0.1c0,0-0.1,0.1-0.1,0c0,0,0,0.1-0.1,0.1c0,0,0,0.1-0.1,0.1s-0.2,0-0.2,0
		c0,0.1,0,0.1,0,0.1h-0.1c-0.1,0-0.1,0-0.1,0s0,0-0.1,0c0,0,0,0-0.1,0c0,0,0-0.1,0.1-0.1c0,0,0-0.1-0.1-0.2c0-0.1,0-0.1-0.1-0.2
		l-0.1,0.1h-0.1c0-0.1,0-0.1-0.1-0.2C75.1,41,75,41,75,41v0.1v0.1c0,0,0-0.1-0.1-0.1c0,0,0-0.1-0.1-0.1c0,0,0,0-0.1-0.1
		c0-0.2-0.2-0.3-0.5-0.3c0,0-0.1,0-0.2,0.1c0,0-0.1,0-0.2,0s-0.1,0-0.1,0s0,0.1-0.1,0.1c0,0-0.2,0-0.4,0c-0.3,0.1-0.4,0.1-0.4,0.2
		c-0.1-0.1-0.2-0.1-0.3,0c-0.1,0-0.1,0-0.2,0s-0.1,0-0.2,0v0.1c-0.1,0-0.2,0-0.2,0c-0.1-0.1-0.2-0.1-0.2,0c0,0,0,0-0.1,0.1
		c0,0,0,0.1-0.1,0.1c0,0-0.1,0-0.2,0s-0.1,0-0.1,0l-0.1,0.1H71h-0.1v0.1c-0.2,0-0.4,0-0.5,0v0.1c0,0,0,0,0,0.1
		c-0.2-0.2-0.4-0.1-0.6,0.2c0,0-0.1,0-0.1-0.1c-0.1,0-0.1,0.1,0,0.2c0,0.1,0,0.1,0.1,0.1c0,0,0,0.1,0,0.2v0.1c0,0.1,0,0.1,0,0.1
		c0,0.2,0,0.2,0.1,0.2c0,0.1,0,0.2,0.1,0.4s0.1,0.3,0,0.3c0,0.1,0,0.2,0.1,0.3v0.1c0,0,0,0,0,0.1s0,0.1,0,0.2c0,0.1,0,0.1,0.1,0.1
		c0,0.7,0,1.1,0,1.1c-0.1,0.2-0.1,0.4,0,0.6c0,0,0,0.1,0,0.3c0,0,0,0.1-0.1,0.1c0,0.1,0,0.1,0,0.2c0.1,0.1,0.1,0.1,0.1,0.1v0.1v0.1
		c0,0.1,0,0.3,0,0.6s0,0.5,0,0.6c0,0,0,0.1,0,0.2c0,0.1,0.1,0.2,0.2,0.1c0.1,0,0.2-0.1,0.2-0.1c0.2,0,0.4,0,0.5-0.1
		c0.3,0,0.4,0,0.5,0s0.2,0,0.3,0c0,0,0.1,0,0.1-0.1c0.1,0,0.1-0.1,0.1-0.1h0.1c0.1,0,0.2,0,0.2-0.1c0.2,0.1,0.3,0,0.4,0
		c0,0,0,0,0.1,0c0,0,0,0,0.1,0h0.1c0.1,0,0.1,0,0.1,0c0.1,0,0.2,0,0.4,0v-0.1c0.1,0.1,0.2,0.1,0.4,0c0.1,0,0.2-0.1,0.3-0.1h0.1
		l0.1-0.1c0,0,0,0,0.1,0c0,0,0,0,0.1,0.1c0,0,0.1,0,0.1-0.1c0.1-0.1,0.1-0.1,0.2-0.1c0-0.1,0.1-0.1,0.1-0.1s0,0,0.1,0.1
		c0.2,0,0.3,0,0.4-0.1c0,0,0.1,0,0.2,0s0.1,0,0.1,0s0.1,0,0.2,0.1c0.1,0,0.1,0.1,0.2,0.1s0.2,0.1,0.2,0.2c0,0,0.1,0,0.2,0
		c0,0,0,0,0.1,0c0,0,0,0.1,0.1,0.1c0.2,0,0.3,0,0.3,0s0,0.1,0.1,0.2v0.1c0,0.1,0,0.2,0.1,0.3c0,0.2,0.1,0.4,0.2,0.4
		c0,0,0,0.1-0.1,0.1c0,0.1,0,0.2-0.1,0.3c0,0.1-0.1,0.2-0.1,0.3h-0.1v0.1c0,0,0,0,0,0.1h-0.1l0,0H77c0,0,0-0.1-0.1-0.1
		c0,0,0,0-0.1,0c0,0-0.1,0-0.1,0.1h-0.1c0,0.1-0.1,0.1-0.3,0.2c-0.2,0.1-0.2,0.2-0.2,0.3c-0.2,0-0.4,0-0.5,0.2c0,0,0,0-0.1,0
		c0,0,0,0.1-0.1,0.1c0,0,0,0,0,0.1c-0.1,0-0.1,0-0.2-0.1c0,0,0,0-0.1,0v0.1c0,0-0.1,0-0.2,0s-0.2,0-0.2,0s-0.1,0-0.1,0.1l-0.1,0.1
		c-0.1,0-0.1,0-0.2,0s-0.1,0.1-0.1,0.2c0-0.1-0.1-0.1-0.2-0.1s-0.2,0-0.2,0.1v0.1c0,0-0.1,0-0.2,0c-0.1-0.1-0.1,0-0.1,0
		s-0.1,0-0.2,0v0.2c0,0-0.1,0-0.2,0H73c0,0-0.1,0.1,0,0.2l-0.2-0.1c0,0-0.1,0-0.4,0c0,0,0,0.1-0.1,0.1c0,0,0,0.1-0.1,0.1
		c-0.2,0-0.3,0-0.3,0l-0.1,0.2c-0.3,0-0.4,0-0.4,0s-0.1,0.1-0.2,0.1c0,0,0,0,0,0.1c-0.2,0.1-0.3,0.1-0.4,0c0,0-0.1,0-0.1,0.1
		l-0.1,0.1c0,0,0,0-0.1-0.1c0,0,0-0.1-0.1-0.1c0,0-0.1,0-0.2,0.1c-0.1,0-0.1,0-0.1,0c-0.1,0-0.1,0.2,0,0.6v0.1v0.1
		c0,0.1,0,0.1,0.1,0.1c0,0.1,0,0.2-0.1,0.3c0,0,0,0.1,0,0.2c0,0.1,0,0.2,0.1,0.2v0.1c0,0,0,0,0,0.1c0,0,0,0.1-0.1,0.3
		c0.1,0.1,0.1,0.3,0.1,0.6s0,0.5,0.1,0.6c-0.1,0.2-0.1,0.4,0,0.5c0,0.1,0,0.2,0,0.3v0.1v0.1c0.1,0.2,0.1,0.4,0.1,0.5
		s0.1,0.2,0.1,0.3s0.1,0.3,0.1,0.3c0.1,0,0.2,0,0.3,0.1c0.2,0,0.3,0,0.3,0s0,0,0.1-0.1c0,0,0.1,0,0.1,0.1c0.4,0,0.6-0.1,0.6-0.1
		s0.1,0,0.3,0c0.1,0,0.2,0,0.3,0c0-0.1,0.2-0.2,0.5-0.2c0,0,0,0,0-0.1v-0.1c0,0,0.1,0,0.2,0s0.1,0,0.2,0c0,0,0.1-0.1,0.2-0.1
		s0.1-0.1,0.2-0.1s0.3,0,0.4-0.2c0.2-0.1,0.3-0.2,0.4-0.2c0-0.1,0-0.1,0.1-0.1c0.1,0.1,0.2,0,0.3,0c0.2,0,0.3-0.1,0.5-0.3
		c0.1,0,0.2,0,0.2,0C75.9,56,76,56,76,56c0.4,0,0.6,0,0.7,0.1h0.1c0,0.2,0.1,0.3,0.2,0.4h0.1c0,0,0.1,0.1,0.2,0.2
		c0,0.2,0.1,0.3,0.2,0.4c0,0.1,0,0.1,0.1,0.2c0.1,0.1,0.1,0.2,0.1,0.2s0,0,0,0.1s0,0.2,0,0.2c-0.1,0.2-0.2,0.3-0.2,0.5
		c-0.1,0-0.2,0.1-0.2,0.2c-0.2,0-0.3,0.1-0.3,0.5c0,0,0,0-0.1,0c0,0,0,0-0.1,0c0,0,0,0.1-0.1,0.2c0,0,0,0-0.1,0c0,0,0,0-0.1,0
		c0,0-0.1,0-0.1,0.1c-0.2,0-0.2,0.1-0.2,0.2h-0.1c-0.1,0.2-0.2,0.2-0.4,0.1c0,0-0.1,0.1-0.1,0.2c0,0,0,0-0.1,0
		c-0.1-0.1-0.2-0.1-0.2,0c0,0-0.1,0.1-0.1,0.2h-0.1c0,0,0,0,0,0.1c0,0,0,0.1,0,0.2c0,0-0.1-0.1-0.2-0.1s-0.2,0-0.2,0s0,0.1-0.1,0.1
		c0,0,0,0.1-0.1,0.1c0,0,0,0-0.1,0c0,0,0,0-0.1,0c0,0,0,0.1-0.1,0.2c-0.1-0.1-0.2,0-0.4,0c0,0,0,0,0,0.1c-0.1,0-0.2,0-0.2,0
		c-0.1,0-0.2,0.1-0.2,0.1s0,0-0.1,0c0,0,0,0-0.1,0c0,0-0.1,0-0.2,0s-0.2,0-0.2,0.1s0,0.1,0,0.1s-0.1,0-0.2,0h-0.1c0,0,0-0.1-0.1-0.1
		C72.2,61,72,61,72,61v0.1h-0.1c0,0,0-0.1-0.1-0.1c0,0,0,0.1-0.1,0.1c0,0,0,0-0.1,0h-0.1c-0.1,0-0.1,0-0.2,0c0-0.1,0-0.1,0-0.1h-0.1
		c-0.1,0-0.1,0.1-0.1,0.2c-0.2,0-0.3,0-0.5,0c0-0.1,0-0.2-0.1-0.2h-0.1v0.1c0,0.1,0,0.1,0,0.1s0,0,0-0.1V61h-0.1v-0.1
		c0-0.1-0.1-0.1-0.2-0.1c-0.1-0.1-0.1-0.1-0.2-0.1c0,0-0.1,0-0.1-0.1s-0.1-0.2-0.1-0.2s0,0-0.1,0c0,0,0,0-0.1,0v-0.1
		c0,0,0-0.1-0.1-0.1c0,0,0,0-0.1,0h-0.1c0-0.1,0-0.2-0.2-0.4v-0.1c-0.1-0.1-0.2-0.2-0.2-0.3h-0.1c-0.1-0.1-0.1-0.1-0.2-0.2
		c-0.1-0.1-0.1-0.2-0.2-0.3s-0.1-0.2-0.2-0.3c-0.1-0.4-0.2-0.7-0.2-0.7c0-0.1,0-0.2-0.1-0.3c0-0.1,0-0.2,0-0.3s0-0.2,0-0.2
		c0-0.1,0-0.1-0.1-0.2v-0.1v-0.1c0,0,0-0.1,0-0.3s0-0.3-0.1-0.3c0-0.1,0-0.2,0-0.4s0-0.3,0-0.3c0-0.4,0-1.1,0-1.9s0-1.5,0-1.9
		c0.1,0,0.1-0.1,0.1-0.2c0-0.1-0.1-0.2-0.1-0.2c0-0.1,0-0.2,0.1-0.3c0-0.1,0.1-0.2,0.1-0.3s-0.1-0.1-0.1-0.2c0-0.1,0-0.1,0.1-0.1
		c0-0.2,0-0.7,0-1.8l0.1-0.1c0-0.1,0-0.1-0.1-0.2c0,0,0.1-0.1,0-0.3c0-0.2,0-0.3,0-0.4v-0.1c0-0.1,0-0.2,0-0.3s0-0.3,0-0.6
		s0-0.5-0.1-0.5c0.1,0,0.1-0.2,0.1-0.4c0-0.3,0-0.4,0-0.4l-0.1-0.1c0-0.2,0-0.3,0.1-0.4c0,0,0-0.1-0.1-0.1v-0.1c0-0.3,0-0.5,0-0.6
		c0,0,0,0-0.1,0s0,0-0.1,0c0-0.3,0-0.6,0-0.8h-0.1c0,0,0-0.1,0-0.2v-0.1v-0.1v-0.1v-0.1c0,0,0-0.1-0.1-0.1c-0.1-0.1-0.1-0.2,0-0.3
		L67.2,42c0-0.1,0-0.1,0-0.2c0,0-0.1-0.1-0.2-0.3c0-0.1,0-0.2,0-0.3s0-0.1,0-0.2c0-0.1,0-0.2,0-0.3c0-0.5,0-0.7,0-0.8
		c0,0,0.1-0.1,0.1-0.2c0.1-0.1,0.1-0.2,0.2-0.2l0,0v-0.1l0.1,0.1c0,0,0.1,0,0.2,0s0.1,0,0.2,0c0,0,0.1,0,0.2-0.1s0.1-0.1,0.1-0.2
		c0,0,0.1,0,0.2,0s0.2,0,0.2,0s0,0,0.1,0c0,0,0,0,0.1,0c0.2,0,0.3,0,0.3-0.1c0.4-0.1,0.5-0.2,0.6-0.2h0.2c0,0,0,0,0.1,0
		c0,0,0,0,0.1,0h0.1c0,0,0.1,0,0.2-0.1s0.1-0.1,0.2-0.1c0,0,0-0.1,0-0.2h0.1c0,0,0,0,0,0.1v0.1c0.2-0.1,0.3-0.1,0.4-0.2
		c0,0,0.1,0,0.2,0.1l0.2-0.1c0,0,0.1-0.1,0.2-0.2c0,0.1,0,0.2,0.1,0.2l0.1-0.1c0.1,0,0.1,0,0.1,0H72c0-0.4,0-0.4,0-0.4h0.1
		c0.1,0,0.1,0,0.2,0s0.2-0.1,0.3-0.1h0.1c0,0,0.1,0,0.1-0.1c0.1,0,0.1,0,0.1,0s0.1,0,0.2-0.1h0.1C73.4,37.8,73.4,37.8,73.5,37.6
		C73.5,37.7,73.5,37.7,73.5,37.6C73.5,37.7,73.5,37.6,73.5,37.6z M74.2,37.5c0,0,0.1,0,0.2,0s0.1,0,0.2,0l0,0c0,0,0,0,0,0.1
		c0,0,0.1,0,0.2,0s0.1,0,0.1,0.1c0.1,0,0.2,0,0.4,0.1c0.4,0,0.6,0.1,0.7,0.3h0c0,0.1,0.1,0.1,0.3,0.3c0.1,0.1,0.2,0.2,0.3,0.3v0.1
		c0.1,0.1,0.3,0.4,0.4,0.8c0,0,0,0,0.1,0l0,0c0,0.2,0,0.3,0,0.4c0,0.1,0,0.2,0,0.3S77,40.5,77,40.5c0,0.1-0.1,0.1-0.1,0.1
		c0,0.1,0,0.2-0.1,0.3c0,0.1,0,0.1,0,0.2l-0.1,0.1c0,0,0,0-0.1,0c0,0,0,0-0.1,0c0,0,0,0.1-0.1,0.1c0,0-0.1,0.1-0.1,0
		c0,0,0,0.1-0.1,0.1c0,0,0,0.1-0.1,0.1s-0.2,0-0.2,0c0,0.1,0,0.1,0,0.1h-0.1c-0.1,0-0.1,0-0.1,0s0,0-0.1,0c0,0,0,0-0.1,0
		c0,0,0-0.1,0.1-0.1c0,0,0-0.1-0.1-0.2c0-0.1,0-0.1-0.1-0.2l-0.1,0.1h-0.1c0-0.1,0-0.1-0.1-0.2c0-0.1-0.1-0.1-0.1-0.1V41v0.1
		c0,0,0-0.1-0.1-0.1c0,0,0-0.1-0.1-0.1c0,0,0,0-0.1-0.1c0-0.2-0.2-0.3-0.5-0.3c0,0-0.1,0-0.2,0.1c0,0-0.1,0-0.2,0s-0.1,0-0.1,0
		s0,0.1-0.1,0.1c0,0-0.2,0-0.4,0c-0.3,0.1-0.4,0.1-0.4,0.2c-0.1-0.1-0.2-0.1-0.3,0c-0.1,0-0.1,0-0.2,0s-0.1,0-0.2,0V41
		c-0.1,0-0.2,0-0.2,0c-0.1-0.1-0.2-0.1-0.2,0c0,0,0,0-0.1,0.1c0,0,0,0.1-0.1,0.1c0,0-0.1,0-0.2,0s-0.1,0-0.1,0l-0.1,0.1H71h-0.1v0.1
		c-0.2,0-0.4,0-0.5,0v0.1c0,0,0,0,0,0.1c-0.2-0.2-0.4-0.1-0.6,0.2c0,0-0.1,0-0.1-0.1c-0.1,0-0.1,0.1,0,0.2c0,0.1,0,0.1,0.1,0.1
		c0,0,0,0.1,0,0.2v0.1c0,0.1,0,0.1,0,0.1c0,0.2,0,0.2,0.1,0.2c0,0.1,0,0.2,0.1,0.4s0.1,0.3,0,0.3c0,0.1,0,0.2,0.1,0.3v0.1
		c0,0,0,0,0,0.1s0,0.1,0,0.2c0,0.1,0,0.1,0.1,0.1c0,0.7,0,1.1,0,1.1c-0.1,0.2-0.1,0.4,0,0.6c0,0,0,0.1,0,0.3c0,0,0,0.1-0.1,0.1
		c0,0.1,0,0.1,0,0.2c0.1,0.1,0.1,0.1,0.1,0.1v0.1v0.1c0,0.1,0,0.3,0,0.6s0,0.5,0,0.6c0,0,0,0.1,0,0.2c0,0.1,0.1,0.2,0.2,0.1
		c0.1,0,0.2-0.1,0.2-0.1c0.2,0,0.4,0,0.5-0.1c0.3,0,0.4,0,0.5,0s0.2,0,0.3,0c0,0,0.1,0,0.1-0.1c0.1,0,0.1-0.1,0.1-0.1h0.1
		c0.1,0,0.2,0,0.2-0.1c0.2,0.1,0.3,0,0.4,0c0,0,0,0,0.1,0c0,0,0,0,0.1,0h0.1c0.1,0,0.1,0,0.1,0c0.1,0,0.2,0,0.4,0v-0.1
		c0.1,0.1,0.2,0.1,0.4,0c0.1,0,0.2-0.1,0.3-0.1h0.1l0.1-0.1c0,0,0,0,0.1,0c0,0,0,0,0.1,0.1c0,0,0.1,0,0.1-0.1
		c0.1-0.1,0.1-0.1,0.2-0.1c0-0.1,0.1-0.1,0.1-0.1s0,0,0.1,0.1c0.2,0,0.3,0,0.4-0.1c0,0,0.1,0,0.2,0s0.1,0,0.1,0s0.1,0,0.2,0.1
		c0.1,0,0.1,0.1,0.2,0.1s0.2,0.1,0.2,0.2c0,0,0.1,0,0.2,0c0,0,0,0,0.1,0c0,0,0,0.1,0.1,0.1c0.2,0,0.3,0,0.3,0s0,0.1,0.1,0.2V48
		c0,0.1,0,0.2,0.1,0.3c0,0.2,0.1,0.4,0.2,0.4c0,0,0,0.1-0.1,0.1c0,0.1,0,0.2-0.1,0.3c0,0.1-0.1,0.2-0.1,0.3h-0.1v0.1c0,0,0,0,0,0.1
		h-0.1l0,0H77c0,0,0-0.1-0.1-0.1c0,0,0,0-0.1,0c0,0-0.1,0-0.1,0.1h-0.1c0,0.1-0.1,0.1-0.3,0.2c-0.2,0.1-0.2,0.2-0.2,0.3
		c-0.2,0-0.4,0-0.5,0.2c0,0,0,0-0.1,0c0,0,0,0.1-0.1,0.1c0,0,0,0,0,0.1c-0.1,0-0.1,0-0.2-0.1c0,0,0,0-0.1,0v0.1c0,0-0.1,0-0.2,0
		s-0.2,0-0.2,0s-0.1,0-0.1,0.1l-0.1,0.1c-0.1,0-0.1,0-0.2,0s-0.1,0.1-0.1,0.2c0-0.1-0.1-0.1-0.2-0.1s-0.2,0-0.2,0.1V51
		c0,0-0.1,0-0.2,0c-0.1-0.1-0.1,0-0.1,0s-0.1,0-0.2,0v0.2c0,0-0.1,0-0.2,0H73c0,0-0.1,0.1,0,0.2l-0.2-0.1c0,0-0.1,0-0.4,0
		c0,0,0,0.1-0.1,0.1c0,0,0,0.1-0.1,0.1c-0.2,0-0.3,0-0.3,0l-0.1,0.2c-0.3,0-0.4,0-0.4,0s-0.1,0.1-0.2,0.1c0,0,0,0,0,0.1
		c-0.2,0.1-0.3,0.1-0.4,0c0,0-0.1,0-0.1,0.1l-0.1,0.1c0,0,0,0-0.1-0.1c0,0,0-0.1-0.1-0.1c0,0-0.1,0-0.2,0.1c-0.1,0-0.1,0-0.1,0
		c-0.1,0-0.1,0.2,0,0.6v0.1v0.1c0,0.1,0,0.1,0.1,0.1c0,0.1,0,0.2-0.1,0.3c0,0,0,0.1,0,0.2c0,0.1,0,0.2,0.1,0.2v0.1c0,0,0,0,0,0.1
		c0,0,0,0.1-0.1,0.3c0.1,0.1,0.1,0.2,0.1,0.5s0,0.5,0.1,0.7c-0.1,0.2-0.1,0.4,0,0.5c0,0.1,0,0.2,0,0.3v0.1v0.1
		c0.1,0.2,0.1,0.4,0.1,0.5s0.1,0.2,0.1,0.3s0.1,0.3,0.1,0.3c0.1,0,0.2,0,0.3,0.1c0.2,0,0.3,0,0.3,0s0,0,0.1-0.1c0,0,0.1,0,0.1,0.1
		c0.4,0,0.6-0.1,0.6-0.1s0.1,0,0.3,0c0.1,0,0.2,0,0.3,0c0-0.1,0.2-0.2,0.5-0.2c0,0,0,0,0-0.1V57c0,0,0.1,0,0.2,0s0.1,0,0.2,0
		c0,0,0.1-0.1,0.2-0.1s0.1-0.1,0.2-0.1s0.3,0,0.4-0.2c0.2-0.1,0.3-0.2,0.4-0.2c0-0.1,0-0.1,0.1-0.1c0.1,0.1,0.2,0,0.3,0
		c0.2,0,0.3-0.1,0.5-0.3c0.1,0,0.2,0,0.2,0c0.1-0.1,0.2-0.1,0.2-0.1c0.4,0,0.6,0,0.7,0.1h0.1c0,0.2,0.1,0.3,0.2,0.4h0.1
		c0,0,0.1,0.1,0.2,0.2c0,0.2,0.1,0.3,0.2,0.4c0,0.1,0,0.1,0.1,0.2c0.1,0.1,0.1,0.2,0.1,0.2s0,0,0,0.1s0,0.2,0,0.2
		c-0.1,0.2-0.2,0.3-0.2,0.5c-0.1,0-0.2,0.1-0.2,0.2c-0.2,0-0.3,0.1-0.3,0.5c0,0,0,0-0.1,0c0,0,0,0-0.1,0c0,0,0,0.1-0.1,0.2
		c0,0,0,0-0.1,0c0,0,0,0-0.1,0c0,0-0.1,0-0.1,0.1c-0.2,0-0.2,0.1-0.2,0.2h-0.1c-0.1,0.2-0.2,0.2-0.4,0.1c0,0-0.1,0.1-0.1,0.2
		c0,0,0,0-0.1,0c-0.1-0.1-0.2-0.1-0.2,0c0,0-0.1,0.1-0.1,0.2h-0.1c0,0,0,0,0,0.1c0,0,0,0.1,0,0.2c0,0-0.1-0.1-0.2-0.1s-0.2,0-0.2,0
		s0,0.1-0.1,0.1c0,0,0,0.1-0.1,0.1c0,0,0,0-0.1,0c0,0,0,0-0.1,0c0,0,0,0.1-0.1,0.2c-0.1-0.1-0.2,0-0.4,0c0,0,0,0,0,0.1
		c-0.1,0-0.2,0-0.2,0c-0.1,0-0.2,0.1-0.2,0.1s0,0-0.1,0c0,0,0,0-0.1,0c0,0-0.1,0-0.2,0s-0.2,0-0.2,0.1s0,0.1,0,0.1s-0.1,0-0.2,0
		h-0.1c0,0,0-0.1-0.1-0.1c-0.2,0.1-0.4,0.1-0.4,0.1V61h-0.1c0,0,0-0.1-0.1-0.1c0,0,0,0.1-0.1,0.1c0,0,0,0-0.1,0h-0.1
		c-0.1,0-0.1,0-0.2,0c0-0.1,0-0.1,0-0.1h-0.1c-0.1,0-0.1,0.1-0.1,0.2c-0.2,0-0.3,0-0.5,0c0-0.1,0-0.2-0.1-0.2h-0.1V61
		c0,0.1,0,0.1,0,0.1s0,0,0-0.1v-0.1h-0.1v-0.1c0-0.1-0.1-0.1-0.2-0.1c-0.1-0.1-0.1-0.1-0.2-0.1c0,0-0.1,0-0.1-0.1s-0.1-0.2-0.1-0.2
		s0,0-0.1,0c0,0,0,0-0.1,0v-0.1c0,0,0-0.1-0.1-0.1c0,0,0,0-0.1,0h-0.1c0-0.1,0-0.2-0.2-0.4v-0.1c-0.1-0.1-0.2-0.2-0.2-0.3h-0.1
		c-0.1-0.1-0.1-0.1-0.2-0.2c-0.1-0.1-0.1-0.2-0.2-0.3s-0.1-0.2-0.2-0.3c-0.1-0.4-0.2-0.7-0.2-0.7c0-0.1,0-0.2-0.1-0.3
		c0-0.1,0-0.2,0-0.3s0-0.2,0-0.3c0,0,0-0.1-0.1-0.1v-0.1v-0.1c0,0,0-0.1,0-0.3s0-0.3-0.1-0.3c0-0.1,0-0.2,0-0.4s0-0.3,0-0.3
		c0-0.4,0-1.1,0-1.9s0-1.5,0-1.9c0.1,0,0.1-0.1,0.1-0.2c0-0.1-0.1-0.2-0.1-0.2c0-0.1,0-0.2,0.1-0.3c0-0.1,0.1-0.2,0.1-0.3
		s-0.1-0.1-0.1-0.2c0-0.1,0-0.1,0.1-0.1c0-0.2,0-0.7,0-1.8l0.1-0.1c0-0.1,0-0.1-0.1-0.2c0,0,0.1-0.1,0-0.3c0-0.2,0-0.3,0-0.4v-0.1
		c0-0.1,0-0.2,0-0.2c0-0.1,0-0.3,0-0.6s0-0.5-0.1-0.5c0.1,0,0.1-0.2,0.1-0.4c0-0.3,0-0.4,0-0.4l-0.1-0.1c0-0.2,0-0.3,0.1-0.4
		c0,0,0-0.1-0.1-0.1v-0.1c0-0.3,0-0.5,0-0.6c0,0,0,0-0.1,0s0,0-0.1,0c0-0.3,0-0.6,0-0.8h-0.1c0,0,0-0.1,0-0.2v-0.1v-0.1v-0.1v-0.1
		c0,0,0-0.1-0.1-0.1c-0.1-0.1-0.1-0.2,0-0.3L67.2,42c0-0.1,0-0.1,0-0.2c0,0-0.1-0.1-0.2-0.3c0-0.1,0-0.2,0-0.3s0-0.1,0-0.2
		c0-0.1,0-0.2,0-0.3c0-0.5,0-0.7,0-0.8c0,0,0.1-0.1,0.1-0.2c0.1-0.1,0.1-0.2,0.2-0.2l0,0v-0.1l0.1,0.1c0,0,0.1,0,0.2,0s0.1,0,0.2,0
		c0,0,0.1,0,0.2-0.1s0.1-0.1,0.1-0.2c0,0,0.1,0,0.2,0s0.2,0,0.2,0s0,0,0.1,0c0,0,0,0,0.1,0c0.2,0,0.3,0,0.3-0.1
		c0.4-0.1,0.5-0.2,0.6-0.2h0.2c0,0,0,0,0.1,0c0,0,0,0,0.1,0h0.1c0,0,0.1,0,0.2-0.1s0.1-0.1,0.2-0.1c0,0,0-0.1,0-0.2h0.1
		c0,0,0,0,0,0.1v0.1c0.2-0.1,0.3-0.1,0.4-0.2c0,0,0.1,0,0.2,0.1l0.2-0.1c0,0,0.1-0.1,0.2-0.2c0,0.1,0,0.2,0.1,0.2l0.1-0.1
		c0.1,0,0.1,0,0.1,0H72c0-0.4,0-0.4,0-0.4h0.1c0.1,0,0.1,0,0.2,0s0.2-0.1,0.3-0.1h0.1c0,0,0.1,0,0.1-0.1c0.1,0,0.1,0,0.1,0
		s0.1,0,0.2-0.1h0.1h0.1l0,0l0,0C74,37.7,74.2,37.7,74.2,37.5z"/>
	<path fill="#2B5799" d="M80.3,37c0,0,0,0.1,0,0.2c0,0.1,0.1,0.1,0.2,0s0.1-0.1,0.1-0.2c0,0,0.1,0.1,0.1,0.2c0,0.1,0.1,0.1,0.1,0.2
		c0.1,0,0.3,0.1,0.4,0.2h0.1l0.1,0.1c0.1,0,0.2,0,0.2,0.1c0,0,0,0,0.1,0c0,0,0,0,0.1,0c0,0,0,0,0.1,0c0,0,0.1,0.1,0.2,0.1
		c0.1,0.1,0.2,0,0.2,0c0.1,0.1,0.2,0.1,0.3,0.1c0,0.1,0.1,0.1,0.2,0.1h0.1c0,0,0.1,0,0.1,0.1l0.1,0.1c0.3,0,0.4,0.1,0.5,0.1
		s0.2,0,0.3,0c0.1,0,0.2,0,0.3,0c0,0,0.1,0,0.1,0.1l0.1,0.1c0.1,0,0.2,0,0.3,0c0.1,0,0.2,0,0.3,0c0.1,0,0.1,0.1,0.2,0.2
		c0.1,0,0.2,0,0.2,0s0.1,0,0.1,0.1c0.1,0,0.1,0.1,0.2,0.1c0,0,0,0,0.1,0c0,0,0,0,0.1,0c0,0,0.1,0,0.1,0.1c0,0,0,0.1,0.1,0.1
		s0.2,0,0.3,0v0.1c0,0,0,0.1,0.1,0.1c0.4,0,0.6,0,0.6,0.1h0.2c0-0.1,0.1-0.1,0.1-0.1c0,0.1,0,0.2,0.1,0.2c0.1,0.1,0.1,0.1,0.2,0h0.1
		l0.1,0.1c0,0,0,0,0.1,0c0,0,0,0,0.1,0c0,0,0,0,0.1,0c0,0,0,0,0.1,0c0,0,0,0,0.1,0c0,0,0,0,0.1,0s0.1,0,0.1,0.1h0.1
		c0,0,0.1,0,0.2,0.1c0.2,0,0.3,0,0.4,0.2c0.1,0,0.1,0,0.2,0c0.1,0.1,0.1,0.1,0.2,0.1l0.1,0.1c0,0,0.1,0,0.3,0.1c0.1,0,0.2,0,0.2,0
		s0,0,0,0.1c0.1,0,0.2,0.1,0.2,0.2c0,0,0.2,0.1,0.4,0.3c0.1,0,0.2,0,0.2,0v0.1c0,0,0.1,0.1,0.2,0.1c0.1,0.2,0.2,0.4,0.2,0.4
		s0,0,0.1,0c0,0,0.1,0.1,0.1,0.2c0.1,0.1,0.1,0.1,0.1,0.1c0.1,0.1,0.2,0.2,0.2,0.2c0.1,0.1,0.1,0.1,0.2,0.2c0.1,0.1,0.1,0.2,0.2,0.3
		s0.1,0.2,0.2,0.3c0,0.1,0,0.1,0,0.1c0.2,0.2,0.4,0.5,0.4,0.8c0,0,0,0.1,0.1,0.1l0.1,0.1c0,0.1,0,0.2,0,0.2s0,0.1,0.1,0.1
		c0,0,0.1,0,0.1,0.1c0,0,0,0.1,0,0.2c0,0.1,0,0.2,0,0.2s0,0.1,0.1,0.1s0,0,0.1,0.1c0,0.1,0,0.2,0,0.5v0.1c0,0.1,0,0.1,0,0.2v0.1V46
		v0.1v0.1c0,0.1,0,0.2,0,0.5s0,0.5,0,0.6s-0.1,0.2-0.1,0.3s-0.1,0.2-0.1,0.2v0.1c0,0,0,0,0,0.1c0,0,0,0.1,0,0.2c0,0.1,0,0.2,0,0.2
		s0,0.1-0.1,0.1c0,0.1,0,0.1,0,0.1v0.1v0.1c0,0,0,0-0.1,0.1c0,0,0,0.1-0.1,0.1v0.1c0,0.1,0,0.1,0,0.1c0,0.1-0.1,0.1-0.1,0.1
		s0,0,0,0.1v0.1c0,0,0,0-0.1,0.1v0.1c0,0.1-0.1,0.2-0.1,0.2c0,0.1,0,0.2-0.1,0.3c0,0.1,0,0.2-0.1,0.4v0.1c0,0.1-0.1,0.1-0.1,0.2
		c-0.1,0.2-0.2,0.4-0.1,0.6c0,0,0,0-0.1,0c0,0-0.1,0.2-0.3,0.4c0,0.1,0,0.2-0.1,0.2c-0.1,0.1-0.1,0.1-0.1,0.2
		c-0.1,0.1-0.2,0.3-0.3,0.6c0,0-0.1,0.1-0.1,0.2c0,0.1-0.1,0.2-0.1,0.2l0,0l0,0c0,0.1-0.1,0.1-0.1,0.1v0.1C91.1,53.8,91,53.9,91,54
		c0,0,0,0-0.1,0c0,0,0,0.1-0.1,0.2c-0.1,0.1-0.1,0.2-0.1,0.3c-0.1,0.1-0.2,0.2-0.2,0.3c-0.1,0.1-0.1,0.2-0.2,0.3
		c-0.1,0.2-0.2,0.3-0.2,0.3H90c-0.1,0.1-0.1,0.2-0.1,0.3c-0.1,0.1-0.2,0.2-0.3,0.4c-0.1,0.2-0.3,0.4-0.4,0.4v0.1v0.1
		C89.1,56.8,89,56.9,89,57s-0.1,0.1-0.1,0.1c-0.1,0.2-0.2,0.4-0.3,0.4c0,0.1,0,0.1,0,0.1c0,0.1-0.1,0.1-0.1,0.1s0,0-0.1,0.1
		c0,0.1,0,0.1-0.1,0.1c0,0-0.1,0-0.1,0.1c-0.1,0-0.1,0.1-0.1,0.1v0.1c0,0.1-0.1,0.2-0.1,0.3v0.1l0,0c0,0-0.1,0-0.1-0.1
		c-0.1,0-0.1,0.1-0.2,0.2c-0.1,0.1-0.1,0.2-0.1,0.2V59c0,0,0,0,0,0.1h-0.1l-0.1,0.1l0,0c0,0,0,0-0.1,0c0,0-0.2,0.3-0.7,0.8
		c0,0.1,0,0.1-0.1,0.2h-0.1c0,0-0.1,0-0.1,0.1l-0.1,0.1c0,0-0.1,0.1-0.1,0.2c0,0.1-0.1,0.2-0.1,0.2c0,0.1,0,0.1,0,0.1s0,0-0.1,0
		c0,0,0,0-0.1,0c0,0-0.1,0-0.1,0.1c0,0,0,0-0.1,0c0,0,0,0-0.1,0c0,0,0,0.1-0.1,0.1v0.1c-0.1,0-0.1,0-0.2,0c0-0.1,0-0.1-0.1-0.2
		L85,61.1c0,0,0,0-0.1,0c0,0,0,0-0.1,0c0-0.1,0-0.1-0.1-0.2c0-0.1,0-0.1,0-0.1c-0.1,0-0.2,0-0.3-0.1c-0.1-0.1-0.1-0.2-0.2-0.3
		l-0.1-0.1c0-0.1,0-0.2,0-0.2H84c-0.1-0.2-0.2-0.3-0.2-0.4c0,0,0-0.1,0-0.2c0-0.1,0-0.2,0-0.2c0-0.2,0-0.2,0-0.3l0.2-0.2v-0.1v-0.1
		c0,0,0,0,0.1,0l0,0l0,0v-0.1l0.1-0.1c0-0.1-0.1-0.2-0.3-0.3c0,0,0-0.1,0-0.2c0-0.1,0-0.1,0-0.2c0,0,0-0.1-0.1-0.2
		c0-0.1-0.1-0.1-0.1-0.2c0,0,0-0.1,0-0.2c0-0.1,0-0.1,0-0.1s0-0.1-0.1-0.1c0,0-0.1,0-0.1-0.1s0.1-0.2,0.1-0.4s-0.1-0.3-0.1-0.4
		c0-0.1,0-0.3,0-0.5s0-0.4,0-0.5s0-0.1,0-0.1v-0.1c0,0,0-0.1-0.1-0.1c0-0.1,0-0.1,0-0.2c0-0.1,0-0.2,0-0.2s0-0.1-0.1-0.1l-0.1-0.1
		V54c0-0.1,0-0.1,0-0.1c0-0.3,0-0.5,0-0.6v-0.1c0-0.1,0-0.1-0.1-0.1V53v-0.1c0,0,0-0.1,0-0.2c0-0.1,0-0.2,0-0.3L83,52.3
		c0.1-0.3,0-0.6-0.1-0.7v-0.3v-0.1c0,0,0,0,0-0.1V51v-0.1c0-0.1-0.1-0.1-0.2-0.1c0-0.2,0-0.3,0-0.5c0,0,0,0,0.1,0
		c0.1-0.1,0.1-0.2,0-0.3c0-0.1-0.1-0.2-0.1-0.2c0-0.1,0-0.1,0-0.2c0-0.1,0-0.1,0-0.2c0,0,0-0.1-0.1-0.1l-0.1-0.1c0-0.6,0-0.9,0-1
		c-0.1-0.1-0.1-0.2-0.1-0.4c0-0.1,0-0.1,0-0.1s0-0.2,0-0.4s0-0.3,0-0.3v-0.1v-0.1v-0.1c0-0.1,0-0.2-0.1-0.2c0,0,0-0.2-0.1-0.4
		c0,0,0-0.1-0.1-0.2c0-0.1-0.1-0.1-0.1-0.2c0-0.2-0.1-0.3-0.1-0.3s0-0.2,0-0.5c0,0,0-0.1-0.1-0.1c0-0.1,0-0.2,0-0.4s0-0.2-0.1-0.2
		c0,0,0-0.1,0-0.3s0-0.2,0-0.3c0,0-0.1-0.1-0.1-0.2c0-0.1-0.1-0.2-0.1-0.2c0-0.3-0.1-0.5-0.1-0.5c0-0.2,0-0.3-0.2-0.3
		c0-0.1,0-0.1,0-0.2c0-0.1,0.1-0.2,0.1-0.2s0,0-0.1,0v-0.1c0-0.1,0-0.2-0.1-0.3c0,0,0-0.1-0.1-0.1v-0.1v-0.1v-0.1c0,0,0-0.1-0.1-0.1
		s0,0,0-0.1v-0.1l-0.1-0.1l-0.1-0.1c-0.1,0-0.2-0.1-0.3-0.2h-0.2C80.1,40.1,80,40,79.9,40l-0.1-0.1c0-0.1-0.1-0.1-0.1-0.1
		c0-0.1-0.1-0.2-0.3-0.3c0-0.2-0.1-0.4-0.3-0.5c0-0.1-0.1-0.2-0.1-0.2v-0.1v-0.1v-0.2c0-0.2,0-0.3,0-0.5c0,0,0-0.1,0.1-0.2
		c0-0.1,0.1-0.1,0.1-0.2v-0.1v-0.1c0,0,0,0,0.1-0.1l0.1-0.1h0.1c0-0.1,0.2-0.1,0.4-0.1c0.1,0,0.2,0,0.2,0s0,0,0.1,0v-0.1
		C80.2,37,80.3,37,80.3,37z M80.1,37c0.1,0,0.2,0,0.2,0s0,0.1,0,0.2c0,0.1,0.1,0.1,0.2,0s0.1-0.1,0.1-0.2c0,0,0.1,0.1,0.1,0.2
		c0,0.1,0.1,0.1,0.1,0.2c0.1,0,0.3,0.1,0.4,0.2h0.1l0.1,0.1c0.1,0,0.2,0,0.2,0.1c0,0,0,0,0.1,0c0,0,0,0,0.1,0c0,0,0,0,0.1,0
		c0,0,0.1,0.1,0.2,0.1c0.1,0.1,0.2,0,0.2,0c0.1,0.1,0.2,0.1,0.3,0.1c0,0.1,0.1,0.1,0.2,0.1h0.1c0,0,0.1,0,0.1,0.1l0.1,0.1
		c0.3,0,0.4,0.1,0.5,0.1s0.2,0,0.3,0c0.1,0,0.2,0,0.3,0c0,0,0.1,0,0.1,0.1l0.1,0.1c0.1,0,0.2,0,0.3,0c0.1,0,0.2,0,0.3,0
		c0.1,0,0.1,0.1,0.2,0.2c0.1,0,0.2,0,0.2,0s0.1,0,0.1,0.1c0.1,0,0.1,0.1,0.2,0.1c0,0,0,0,0.1,0c0,0,0,0,0.1,0c0,0,0.1,0,0.1,0.1
		c0,0,0,0.1,0.1,0.1s0.2,0,0.3,0v0.1c0,0,0,0.1,0.1,0.1c0.4,0,0.6,0,0.6,0.1h0.2c0-0.1,0.1-0.1,0.1-0.1c0,0.1,0,0.2,0.1,0.2
		c0.1,0.1,0.1,0.1,0.2,0h0.1l0.1,0.1c0,0,0,0,0.1,0c0,0,0,0,0.1,0c0,0,0,0,0.1,0c0,0,0,0,0.1,0c0,0,0,0,0.1,0c0,0,0,0,0.1,0
		s0.1,0,0.1,0.1h0.1c0,0,0.1,0,0.2,0.1c0.2,0,0.3,0,0.4,0.2c0.1,0,0.1,0,0.2,0c0.1,0.1,0.1,0.1,0.2,0.1l0.1,0.1c0,0,0.1,0,0.3,0.1
		c0.1,0,0.2,0,0.2,0s0,0,0,0.1c0.1,0,0.2,0.1,0.2,0.2c0,0,0.2,0.1,0.4,0.3c0.1,0,0.2,0,0.2,0v0.1c0,0,0.1,0.1,0.2,0.1
		c0.1,0.2,0.2,0.4,0.2,0.4s0,0,0.1,0c0,0,0.1,0.1,0.1,0.2c0.1,0.1,0.1,0.1,0.1,0.1c0.1,0.1,0.2,0.2,0.2,0.2c0.1,0.1,0.1,0.1,0.2,0.2
		c0.1,0.1,0.1,0.2,0.2,0.3s0.1,0.2,0.2,0.3c0,0.1,0,0.1,0,0.1c0.2,0.2,0.4,0.5,0.4,0.8c0,0,0,0.1,0.1,0.1l0.1,0.1c0,0.1,0,0.2,0,0.2
		s0,0.1,0.1,0.1c0,0,0.1,0,0.1,0.1c0,0,0,0.1,0,0.2c0,0.1,0,0.2,0,0.2s0,0.1,0.1,0.1s0,0,0.1,0.1c0,0.1,0,0.2,0,0.5v0.1
		c0,0.1,0,0.1,0,0.2v0.1V46v0.1v0.1c0,0.1,0,0.2,0,0.5s0,0.5,0,0.6s-0.1,0.2-0.1,0.3s-0.1,0.2-0.1,0.2v0.1c0,0,0,0,0,0.1
		c0,0,0,0.1,0,0.2c0,0.1,0,0.2,0,0.2s0,0.1-0.1,0.1c0,0.1,0,0.1,0,0.1v0.1v0.1c0,0,0,0-0.1,0.1c0,0,0,0.1-0.1,0.1v0.1
		c0,0.1,0,0.1,0,0.1c0,0.1-0.1,0.1-0.1,0.1s0,0,0,0.1v0.1c0,0,0,0-0.1,0.1v0.1c0,0.1-0.1,0.2-0.1,0.2c0,0.1,0,0.2-0.1,0.3
		c0,0.1,0,0.2-0.1,0.4v0.1c0,0.1-0.1,0.1-0.1,0.2c-0.1,0.2-0.2,0.4-0.1,0.6c0,0,0,0-0.1,0c0,0-0.1,0.2-0.3,0.4c0,0.1,0,0.2-0.1,0.2
		c-0.1,0.1-0.1,0.1-0.1,0.2c-0.1,0.1-0.2,0.3-0.3,0.6c0,0-0.1,0.1-0.1,0.2c0,0.1-0.1,0.2-0.1,0.2l0,0l0,0c0,0.1-0.1,0.1-0.1,0.1v0.1
		C91.1,53.8,91,53.9,91,54c0,0,0,0-0.1,0c0,0,0,0.1-0.1,0.2c-0.1,0.1-0.1,0.2-0.1,0.3c-0.1,0.1-0.2,0.2-0.2,0.3
		c-0.1,0.1-0.1,0.2-0.2,0.3c-0.1,0.2-0.2,0.3-0.2,0.3H90c-0.1,0.1-0.1,0.2-0.1,0.3c-0.1,0.1-0.2,0.2-0.3,0.4
		c-0.1,0.2-0.3,0.4-0.4,0.4v0.1v0.1C89.1,56.8,89,56.9,89,57s-0.1,0.1-0.1,0.1c-0.1,0.2-0.2,0.4-0.3,0.4c0,0.1,0,0.1,0,0.1
		c0,0.1-0.1,0.1-0.1,0.1s0,0-0.1,0.1c0,0.1,0,0.1-0.1,0.1c0,0-0.1,0-0.1,0.1c-0.1,0-0.1,0.1-0.1,0.1v0.1c0,0.1-0.1,0.2-0.1,0.3v0.1
		l0,0c0,0-0.1,0-0.1-0.1c-0.1,0-0.1,0.1-0.2,0.2c-0.1,0.1-0.1,0.2-0.1,0.2V59c0,0,0,0,0,0.1h-0.1l-0.1,0.1l0,0c0,0,0,0-0.1,0
		c0,0-0.2,0.3-0.7,0.8c0,0.1,0,0.1-0.1,0.2h-0.1c0,0-0.1,0-0.1,0.1l-0.1,0.1c0,0-0.1,0.1-0.1,0.2c0,0.1-0.1,0.2-0.1,0.2
		c0,0.1,0,0.1,0,0.1s0,0-0.1,0c0,0,0,0-0.1,0c0,0-0.1,0-0.1,0.1c0,0,0,0-0.1,0c0,0,0,0-0.1,0c0,0,0,0.1-0.1,0.1v0.1
		c-0.1,0-0.1,0-0.2,0c0-0.1,0-0.1-0.1-0.2L85,61.1c0,0,0,0-0.1,0c0,0,0,0-0.1,0c0-0.1,0-0.1-0.1-0.2c0-0.1,0-0.1,0-0.1
		c-0.1,0-0.2,0-0.3-0.1c-0.1-0.1-0.1-0.2-0.2-0.3l-0.1-0.1c0-0.1,0-0.2,0-0.2H84c-0.1-0.2-0.2-0.3-0.2-0.4c0,0,0-0.1,0-0.2
		c0-0.1,0-0.2,0-0.2c0-0.2,0-0.2,0-0.3l0.2-0.2v-0.1v-0.1c0,0,0,0,0.1,0l0,0l0,0v-0.1l0.1-0.1c0-0.1-0.1-0.2-0.3-0.3
		c0,0,0-0.1,0-0.2c0-0.1,0-0.1,0-0.2c0,0,0-0.1-0.1-0.2c0-0.1-0.1-0.1-0.1-0.2c0,0,0-0.1,0-0.2c0-0.1,0-0.1,0-0.1s0-0.1-0.1-0.1
		c0,0-0.1,0-0.1-0.1s0.1-0.2,0.1-0.4s-0.1-0.3-0.1-0.4c0-0.1,0-0.3,0-0.5s0-0.4,0-0.5s0-0.1,0-0.1v-0.1c0,0,0-0.1-0.1-0.1
		c0-0.1,0-0.1,0-0.2c0-0.1,0-0.2,0-0.2s0-0.1-0.1-0.1l-0.1-0.1V54c0-0.1,0-0.1,0-0.1c0-0.3,0-0.5,0-0.6v-0.1c0-0.1,0-0.1-0.1-0.1V53
		v-0.1c0,0,0-0.1,0-0.2c0-0.1,0-0.2,0-0.3L83,52.3c0.1-0.3,0-0.6-0.1-0.7v-0.3v-0.1c0,0,0,0,0-0.1V51v-0.1c0-0.1-0.1-0.1-0.2-0.1
		c0-0.2,0-0.3,0-0.5c0,0,0,0,0.1,0c0.1-0.1,0.1-0.2,0-0.3c0-0.1-0.1-0.2-0.1-0.2c0-0.1,0-0.1,0-0.2c0-0.1,0-0.1,0-0.2
		c0,0,0-0.1-0.1-0.1l-0.1-0.1c0-0.6,0-0.9,0-1c-0.1-0.1-0.1-0.2-0.1-0.4c0-0.1,0-0.1,0-0.1s0-0.2,0-0.4s0-0.3,0-0.3v-0.1v-0.1v-0.1
		c0-0.1,0-0.2-0.1-0.2c0,0,0-0.2-0.1-0.4c0,0,0-0.1-0.1-0.2c0-0.1-0.1-0.1-0.1-0.2c0-0.2-0.1-0.3-0.1-0.3s0-0.2,0-0.5
		c0,0,0-0.1-0.1-0.1c0-0.1,0-0.2,0-0.4s0-0.2-0.1-0.2c0,0,0-0.1,0-0.3s0-0.2,0-0.3c0,0-0.1-0.1-0.1-0.2c0-0.1-0.1-0.2-0.1-0.2
		c0-0.3-0.1-0.5-0.1-0.5c0-0.2,0-0.3-0.2-0.3c0-0.1,0-0.1,0-0.2c0-0.1,0.1-0.2,0.1-0.2s0,0-0.1,0v-0.1c0-0.1,0-0.2-0.1-0.3
		c0,0,0-0.1-0.1-0.1v-0.1v-0.1v-0.1c0,0,0-0.1-0.1-0.1s0,0,0-0.1v-0.1l-0.1-0.1l-0.1-0.1c-0.1,0-0.2-0.1-0.3-0.2h-0.2
		C80.1,40.1,80,40,79.9,40l-0.1-0.1c0-0.1-0.1-0.1-0.1-0.1c0-0.1-0.1-0.2-0.3-0.3c0-0.2-0.1-0.4-0.3-0.5c0-0.1-0.1-0.2-0.1-0.2v-0.1
		v-0.1v-0.2c0-0.2,0-0.3,0-0.5c0,0,0-0.1,0.1-0.2c0-0.1,0.1-0.1,0.1-0.2v-0.1v-0.1c0,0,0,0,0.1-0.1l0.1-0.1h0.1
		c0-0.1,0.2-0.1,0.4-0.1C80,37,80.1,37,80.1,37C80.1,37.1,80.1,37.1,80.1,37C80.1,37.1,80.1,37,80.1,37z M87.4,42.3
		C87.4,42.3,87.3,42.3,87.4,42.3C87.3,42.2,87.3,42.2,87.4,42.3l-0.2-0.1c-0.1,0-0.1,0-0.1,0s0,0-0.1-0.1c0,0,0-0.1-0.1-0.1h-0.1
		c0,0,0,0-0.1,0c0,0,0,0-0.1,0c0,0-0.1,0-0.2,0s-0.1,0-0.2,0c0,0-0.1,0-0.1-0.1L86,41.8c0,0,0,0-0.1,0c0,0,0,0-0.1,0s-0.1,0-0.1,0
		c-0.1,0-0.1,0-0.1,0c0-0.1-0.2-0.1-0.4-0.1c-0.1,0-0.1,0-0.2,0c-0.1-0.1-0.2-0.2-0.3-0.1c0,0,0,0-0.1,0c0,0,0,0-0.1,0
		s-0.2,0-0.3-0.1c-0.3,0-0.5,0-0.6,0c0,0,0,0.1,0,0.2c0,0.1,0,0.2,0,0.2V42c0,0,0,0.1,0.1,0.1c0,0,0,0.1,0,0.2c0,0.1,0,0.1,0.1,0.2
		l0.1,0.1c0,0,0,0.1,0,0.2c0,0,0,0.1,0.1,0.2c0,0.1,0.1,0.2,0,0.3c0.1,0.2,0.1,0.3,0.1,0.5s0,0.2,0,0.3c0.1,0.2,0.2,0.3,0.1,0.4
		c0,0.1,0.1,0.2,0.1,0.5v0.1v0.1c0,0.1,0,0.1,0,0.1c0,0.1,0.1,0.2,0.1,0.2v0.1v0.1c0,0,0,0.1,0,0.2c0,0.1,0,0.1,0.1,0.2
		c0,0,0,0.1,0,0.2c0,0.1,0,0.2,0,0.2v0.1c0,0.2,0,0.3,0,0.3s0,0.1,0.1,0.1l0.1,0.1c0,0,0,0.1,0.1,0.3c0,0.1,0,0.2,0,0.3s0,0.2,0,0.3
		c0,0,0,0.1,0.1,0.1c0,0.1,0,0.1,0.1,0.1c0,0,0,0.1,0,0.2c0,0.1,0,0.2,0,0.2s0,0.1,0.1,0.1c0,0,0,0.1,0.1,0.1c0,0,0,0.1,0,0.3v0.1
		c0,0.1,0,0.1,0,0.1v0.1v0.1c0,0,0,0.1,0,0.2c0,0.1,0,0.1,0,0.1s0,0.1-0.1,0.1c0,0,0,0,0,0.1s0.1,0.2,0.1,0.2c0,0.1,0.1,0.2,0.1,0.2
		v0.1v0.1v0.1c0,0,0,0.1,0.1,0.1c0,0,0,0,0,0.1V51c0,0,0,0.1,0.1,0.1c0,0.1,0,0.2,0,0.3v0.1v0.1c0,0,0,0.1,0,0.2c0,0.1,0,0.2,0,0.2
		s0,0.1,0.1,0.1l0.1,0.1c0,0.1,0,0.1,0,0.1s0,0,0,0.1v0.1c0,0,0,0.1,0,0.3s0,0.2,0,0.3c0,0,0,0.1,0.1,0.1c0,0.1,0,0.1,0,0.1
		c0,0.1,0,0.2,0,0.3s0,0.2,0,0.3c0,0,0.1,0.1,0.1,0.3c0,0.3,0.1,0.4,0.1,0.5c0,0.3,0,0.5,0,0.7c0,0.1,0,0.2,0,0.3c0,0,0,0.1,0.1,0.1
		s0.1,0,0.1,0.1c0,0,0,0.1,0,0.2c0,0.1,0,0.1,0,0.1c0,0.1,0.2,0,0.4-0.2h0.1l0.1-0.1c0.1-0.1,0.1-0.2,0.1-0.3c0,0,0.1-0.1,0.4-0.3
		c0,0,0-0.1,0.1-0.1c0-0.2,0.1-0.2,0.2-0.2c0-0.1,0.2-0.4,0.5-0.7c0-0.1,0-0.2,0.1-0.3c0-0.1,0-0.1,0.1-0.1c0.1-0.1,0.2-0.1,0.2-0.1
		c0-0.1,0.1-0.3,0.2-0.4c0.1-0.2,0.2-0.3,0.2-0.5c0.2-0.2,0.3-0.2,0.3-0.2c0-0.1,0-0.1,0.1-0.2c0-0.1,0.1-0.2,0.1-0.2l0.1-0.1
		c0-0.1,0.1-0.1,0.1-0.1c0-0.1,0-0.2,0.1-0.3c0-0.1,0.1-0.1,0.1-0.1l0,0v-0.1c0,0,0,0,0.1-0.1c0,0,0-0.1,0.1-0.1c0-0.1,0-0.1,0-0.1
		c0-0.1,0-0.1,0.1-0.2c0.1-0.1,0.1-0.1,0.2-0.2c0-0.2,0.1-0.3,0.2-0.6c0.1-0.2,0.2-0.4,0.2-0.6c0,0,0-0.1,0.1-0.1l0.1-0.1
		c0-0.1,0-0.2,0.1-0.3c0-0.1,0.1-0.2,0.1-0.3c0.1,0,0.1-0.1,0.1-0.3c0-0.1,0-0.2,0-0.2c0-0.1,0.1-0.1,0.1-0.2s0-0.1,0-0.2
		c0-0.1,0-0.1,0.1-0.2c0-0.1,0.1-0.1,0.1-0.2c0,0,0-0.1,0-0.2c0-0.1,0-0.1,0-0.2c0,0,0-0.1,0.1-0.1c0.1-0.2,0.1-0.4,0-0.5
		c0-0.1,0.1-0.1,0.1-0.1c0-0.1-0.1-0.3,0-0.6v-0.1v-0.1C91,45.2,91,45,91.1,45L91,44.7v-0.1c0-0.1,0-0.1,0-0.1s0,0-0.1,0v-0.1
		c-0.1-0.2-0.1-0.2-0.2-0.3c0,0,0,0-0.1,0h-0.1c0,0,0,0,0-0.1l0,0c0,0,0,0-0.1,0c-0.1-0.1-0.2-0.1-0.2-0.1c0-0.1-0.1-0.1-0.1-0.1H90
		c0,0,0,0-0.1-0.1c0-0.1-0.1-0.1-0.1-0.1h-0.1c0-0.1-0.1-0.1-0.2-0.1c0-0.1-0.1-0.1-0.1-0.1s-0.1,0-0.2-0.1s-0.2-0.1-0.3-0.1
		c0,0,0,0-0.1-0.1c0,0,0-0.1-0.1-0.1h-0.1h-0.1c-0.1-0.1-0.1-0.1-0.1-0.1s-0.1,0-0.2,0c-0.1-0.1-0.1-0.1-0.2-0.1c0,0,0,0-0.1,0h-0.1
		c0,0,0,0-0.1-0.1c0,0,0-0.1-0.1-0.1s0,0-0.1,0h-0.1c0-0.1-0.1-0.1-0.1-0.1C87.4,42.3,87.4,42.3,87.4,42.3z M87.3,42.3
		C87.3,42.2,87.3,42.2,87.3,42.3C87.3,42.2,87.3,42.2,87.3,42.3c-0.1-0.1-0.1-0.1-0.2-0.1s-0.1,0-0.1,0s0,0-0.1-0.1
		c0,0,0-0.1-0.1-0.1h-0.1c0,0,0,0-0.1,0c0,0,0,0-0.1,0c0,0-0.1,0-0.2,0s-0.1,0-0.2,0c0,0-0.1,0-0.1-0.1l-0.1-0.1c0,0,0,0-0.1,0
		c0,0,0,0-0.1,0s-0.1,0-0.1,0c-0.1,0-0.1,0-0.1,0c0-0.1-0.2-0.1-0.4-0.1c-0.1,0-0.1,0-0.2,0c-0.1-0.1-0.2-0.2-0.3-0.1c0,0,0,0-0.1,0
		c0,0,0,0-0.1,0s-0.2,0-0.3-0.1c-0.3,0-0.5,0-0.6,0c0,0,0,0.1,0,0.2c0,0.1,0,0.2,0,0.2V42c0,0,0,0.1,0.1,0.1c0,0,0,0.1,0,0.2
		c0,0.1,0,0.1,0.1,0.2l0.1,0.1c0,0,0,0.1,0,0.2c0,0,0,0.1,0.1,0.2c0,0.1,0.1,0.2,0,0.3c0.1,0.2,0.1,0.3,0.1,0.5s0,0.2,0,0.3
		c0.1,0.2,0.2,0.3,0.1,0.4c0,0.1,0.1,0.2,0.1,0.5v0.1v0.1c0,0.1,0,0.1,0,0.1c0,0.1,0.1,0.2,0.1,0.2v0.1v0.1c0,0,0,0.1,0,0.2
		c0,0.1,0,0.1,0.1,0.2c0,0,0,0.1,0,0.2c0,0.1,0,0.2,0,0.2v0.1c0,0.2,0,0.3,0,0.3s0,0.1,0.1,0.1l0.1,0.1c0,0,0,0.1,0.1,0.3
		c0,0.1,0,0.2,0,0.3s0,0.2,0,0.3c0,0,0,0.1,0.1,0.1c0,0.1,0,0.1,0.1,0.1c0,0,0,0.1,0,0.2c0,0.1,0,0.2,0,0.2s0,0.1,0.1,0.1
		c0,0,0,0.1,0.1,0.1c0,0.1,0,0.2,0,0.3v0.1c0,0.1,0,0.1,0,0.1v0.1v0.1c0,0,0,0.1,0,0.2c0,0.1,0,0.1,0,0.1s0,0.1-0.1,0.1
		c0,0,0,0,0,0.1s0.1,0.2,0.1,0.2c0,0.1,0.1,0.2,0.1,0.2v0.1v0.1v0.1c0,0,0,0.1,0.1,0.1c0,0,0,0,0,0.1V51c0,0,0,0.1,0.1,0.1
		c0,0.1,0,0.2,0,0.3v0.1v0.1c0,0,0,0.1,0,0.2c0,0.1,0,0.2,0,0.2s0,0.1,0.1,0.1l0.1,0.1c0,0.1,0,0.1,0,0.1s0,0,0,0.1v0.1
		c0,0,0,0.1,0,0.3s0,0.2,0,0.3c0,0,0,0.1,0.1,0.1c0,0.1,0,0.1,0,0.1c0,0.1,0,0.2,0,0.3s0,0.2,0,0.3c0,0,0.1,0.1,0.1,0.3
		c0,0.3,0.1,0.4,0.1,0.5C86,55,86,55.2,86,55.4c0,0.1,0,0.2,0,0.3c0,0,0,0.1,0.1,0.1s0.1,0,0.1,0.1c0,0,0,0.1,0,0.2
		c0,0.1,0,0.1,0,0.1c0,0.1,0.2,0,0.4-0.2h0.1l0.1-0.1c0.1-0.1,0.1-0.2,0.1-0.3c0,0,0.1-0.1,0.4-0.3c0,0,0-0.1,0.1-0.1
		c0-0.2,0.1-0.2,0.2-0.2c0-0.1,0.2-0.4,0.5-0.7c0-0.1,0-0.2,0.1-0.3c0-0.1,0-0.1,0.1-0.1c0.1-0.1,0.2-0.1,0.2-0.1
		c0-0.1,0.1-0.3,0.2-0.4c0.1-0.2,0.2-0.3,0.2-0.5c0.2-0.2,0.3-0.2,0.3-0.2c0-0.1,0-0.1,0.1-0.2c0-0.1,0.1-0.2,0.1-0.2l0.1-0.1
		c0-0.1,0.1-0.1,0.1-0.1c0-0.1,0-0.2,0.1-0.3c0-0.1,0.1-0.1,0.1-0.1l0,0v-0.1c0,0,0,0,0.1-0.1c0,0,0-0.1,0.1-0.1c0-0.1,0-0.1,0-0.1
		c0-0.1,0-0.1,0.1-0.2c0.1-0.1,0.1-0.1,0.2-0.2c0-0.2,0.1-0.3,0.2-0.6c0.1-0.2,0.2-0.4,0.2-0.6c0,0,0-0.1,0.1-0.1l0.1-0.1
		c0-0.1,0-0.2,0.1-0.3c0-0.1,0.1-0.2,0.1-0.3c0.1,0,0.1-0.1,0.1-0.3c0-0.1,0-0.2,0-0.2c0-0.1,0.1-0.1,0.1-0.2s0-0.1,0-0.2
		c0-0.1,0-0.1,0.1-0.2c0-0.1,0.1-0.1,0.1-0.2c0,0,0-0.1,0-0.2c0-0.1,0-0.1,0-0.2c0,0,0-0.1,0.1-0.1c0.1-0.2,0.1-0.4,0-0.5
		c0-0.1,0.1-0.1,0.1-0.1c0-0.1-0.1-0.3,0-0.6v-0.1v-0.1C91,45.2,91,45,91.1,45L91,44.7v-0.1c0-0.1,0-0.1,0-0.1s0,0-0.1,0v-0.1
		c-0.1-0.2-0.1-0.2-0.2-0.3c0,0,0,0-0.1,0h-0.1c0,0,0,0,0-0.1l0,0c0,0,0,0-0.1,0c-0.1-0.1-0.2-0.1-0.2-0.1c0-0.1-0.1-0.1-0.1-0.1H90
		c0,0,0,0-0.1-0.1c0-0.1-0.1-0.1-0.1-0.1h-0.1c0-0.1-0.1-0.1-0.2-0.1c0-0.1-0.1-0.1-0.1-0.1s-0.1,0-0.2-0.1s-0.2-0.1-0.3-0.1
		c0,0,0,0-0.1-0.1c0,0,0-0.1-0.1-0.1h-0.1h-0.1c-0.1-0.1-0.1-0.1-0.1-0.1s-0.1,0-0.2,0c-0.1-0.1-0.1-0.1-0.2-0.1c0,0,0,0-0.1,0h-0.1
		c0,0,0,0-0.1-0.1c0,0,0-0.1-0.1-0.1s0,0-0.1,0h-0.1c0-0.1-0.1-0.1-0.1-0.1C87.4,42.3,87.4,42.3,87.3,42.3
		C87.4,42.3,87.3,42.3,87.3,42.3z"/>
</g>
</svg>
