<?xml version="1.0" encoding="utf-8"?>
<!-- Generator: Adobe Illustrator 19.0.1, SVG Export Plug-In . SVG Version: 6.00 Build 0)  -->
<svg version="1.1" id="Layer_1" xmlns="http://www.w3.org/2000/svg" xmlns:xlink="http://www.w3.org/1999/xlink" x="0px" y="0px"
	 viewBox="0 0 100 100" enable-background="new 0 0 100 100" xml:space="preserve">
<g>
	<path fill="#2B5799" d="M25.1,44c0,0,0,0.1,0,0.2c0.2,0.2,0.5,0.3,0.6,0.5h0.2c0,0.1,0.1,0.2,0.2,0.3c0,0.1,0,0.2,0.1,0.3
		c0.1,0,0.1,0,0.1,0c0,0.3,0,0.5,0,0.5c0.1,0.1,0.1,0.2,0.1,0.3s0,0.2,0,0.3s0,0.2,0,0.4c-0.2,0.1-0.3,0.2-0.3,0.5
		c-0.1,0-0.1,0-0.2,0c-0.1,0.1-0.1,0.1-0.1,0.1h-0.1h-0.1c0,0,0,0-0.1,0.1h-0.1c0,0,0,0-0.1,0s-0.1,0.1-0.2,0.3c0,0-0.1,0-0.2-0.1
		c-0.1,0-0.1,0-0.1,0h-0.1c0-0.1,0-0.2-0.2-0.4h-0.1h-0.1l-0.1-0.1c-0.1,0-0.1,0-0.1,0s0,0-0.1,0v-0.1c-0.1-0.1-0.2-0.2-0.4-0.1
		c0,0-0.1,0-0.1,0.1c-0.1,0-0.2,0-0.3,0h-0.1H23h-0.1h-0.1c0,0-0.1,0-0.2-0.1c0,0-0.1,0-0.1,0.1c-0.1,0-0.1,0-0.1,0h-0.1
		c-0.1,0-0.1,0-0.2,0H22h-0.1c0,0-0.1,0-0.2,0h-0.1h-0.1c-0.1,0-0.2,0-0.2,0c-0.3,0-0.5,0.1-0.5,0.1c0,0.1,0,0.1,0,0.1h-0.1
		l-0.1-0.1c0,0-0.1,0-0.3,0.1h-0.1c0,0,0,0-0.1,0c-0.1,0.1-0.2,0.1-0.5,0.2c-0.2,0-0.4,0.1-0.5,0.2v0.1c-0.1,0-0.1,0-0.1,0h-0.1
		c0,0,0,0.1-0.1,0.1s-0.1,0-0.1,0s-0.1,0-0.2,0.1h-0.1c-0.1,0-0.2,0-0.2,0v0.1v0.1c0,0.1,0.1,0.2,0.1,0.2s0.1,0,0.2,0
		c0,0.1,0.1,0.2,0.3,0.3h0.1H19c0,0,0,0,0,0.1s0,0.1,0,0.1c0.1-0.1,0.2,0,0.3,0.1c0.1,0.1,0.2,0.1,0.3,0.1c0,0,0.1,0.1,0.2,0.1
		s0.2,0,0.2,0.1c0,0,0.1,0,0.1,0.1h0.1l0.1,0.1c0,0,0.1,0,0.1,0.1c0.3,0.1,0.5,0.1,0.5,0.2c0.1-0.1,0.2,0,0.4,0
		c0.1,0,0.1,0.1,0.1,0.1c0.1,0,0.1,0,0.2,0s0.2,0,0.3,0H22c0,0,0,0,0.1,0h0.1c0,0,0.1,0,0.1,0.1l0.1,0.1h0.1h0.1
		c0.2,0.2,0.4,0.2,0.5,0.2l0.1-0.1c0.1,0,0.2,0,0.2,0s0,0,0,0.1c0.1,0.1,0.2,0.1,0.2,0.1h0.1h0.1c0,0.2,0,0.2,0.1,0.2H24
		c0,0,0,0,0.1-0.1c0.2,0,0.3,0,0.3,0c0,0.1,0.1,0.2,0.2,0.2s0.2,0.1,0.2,0.2c0.3-0.1,0.5,0,0.5,0.1h0.1h0.1c0,0,0.1,0,0.1,0.1
		s0.1,0.1,0.1,0.1L26,51c0.1-0.1,0.1-0.1,0.2,0c0,0.1,0,0.2,0.1,0.2s0.2,0,0.2,0c0.1,0.1,0.1,0.1,0.2,0.1s0.1,0,0.1,0h0.1
		c0,0,0,0,0,0.1c0,0,0.1,0.1,0.2,0.1s0.2,0.1,0.3,0.2c0.1,0,0.1,0,0.2,0c0.1,0.1,0.2,0.1,0.3,0.1c0.1,0.2,0.2,0.3,0.2,0.3h0.1h0.1
		v0.1c0.1,0.1,0.2,0.2,0.4,0.4s0.3,0.3,0.4,0.4c0,0.1,0.1,0.1,0.1,0.2c0,0.1,0,0.1,0,0.2c0.2,0.1,0.3,0.3,0.3,0.6
		c0,0.1,0.1,0.1,0.1,0.3c0.1,0.1,0.1,0.2,0.1,0.3v0.1v0.1v0.1V55v0.1v0.1v0.1v0.1c0,0,0,0.1,0,0.3s0,0.3,0.1,0.3v0.1v0.1
		c0.1,0,0.1,0.2,0,0.4S29.7,57,29.7,57v0.1c0,0.1,0,0.1-0.1,0.2c-0.1,0.1-0.1,0.1-0.1,0.1c0,0.1,0,0.2-0.1,0.3v0.1
		c-0.2,0.2-0.3,0.3-0.3,0.4c-0.2,0.2-0.3,0.3-0.4,0.4c0,0.2-0.1,0.3-0.2,0.4c-0.1,0.1-0.2,0.2-0.3,0.3c0,0.1,0,0.1-0.1,0.2v0.1H28
		h-0.1c-0.1,0-0.1,0.1,0,0.2c0,0-0.2,0.1-0.5,0.3v0.1c-0.2,0.1-0.3,0.2-0.4,0.3c-0.1,0-0.1,0-0.2,0.2c-0.1,0-0.2,0.1-0.3,0.2
		c-0.1,0.1-0.2,0.2-0.3,0.2c0,0,0,0.1,0,0.2c0,0.1,0,0.1,0,0.2c0,0-0.1,0-0.1-0.1L26,61.3c0,0-0.1,0-0.2,0.1s-0.2,0.1-0.2,0.1
		c-0.1,0-0.1,0.1-0.1,0.1s-0.1,0-0.2,0s-0.2,0-0.2,0c-0.2,0.1-0.2,0.1-0.3,0c-0.1,0.1-0.2,0.2-0.2,0.2c0.2,0.2,0.1,0.2,0,0.2
		s-0.1,0-0.1,0c-0.1,0-0.1,0-0.2,0.1c0,0.1-0.1,0.1-0.1,0.1c-0.1,0-0.2,0-0.3,0.1c-0.1,0.1-0.2,0.1-0.3,0.1c-0.1,0-0.1,0-0.2,0
		s-0.1,0-0.2,0s-0.1,0-0.2,0.1c-0.1,0-0.1,0.1-0.2,0.1h-0.1c-0.1,0-0.1,0-0.1,0l-0.1,0.1c0,0-0.2,0-0.5,0c0,0-0.1,0-0.1-0.1
		c-0.2-0.1-0.4-0.1-0.5,0c-0.1,0-0.1,0-0.1,0c-0.1,0.1-0.1,0.1-0.1,0.1c-0.1-0.1-0.2-0.1-0.5-0.1c-0.1,0-0.2,0-0.2,0
		c-0.1-0.1-0.1-0.1-0.2-0.1c0,0-0.1,0-0.1,0.1c-0.1,0-0.1,0.1-0.1,0v-0.1v-0.1c-0.1,0-0.2,0-0.3,0c-0.1,0-0.2,0-0.2,0
		s-0.1,0-0.2-0.1c0,0-0.1,0-0.2,0v-0.2c0,0-0.1,0-0.2,0l0,0V62c-0.1,0-0.1,0-0.2-0.1s-0.1-0.2-0.1-0.2c-0.2-0.1-0.2-0.2-0.3-0.2
		c0-0.1,0-0.1,0-0.1c-0.1-0.1-0.1-0.1-0.3-0.2c-0.1-0.1-0.2-0.1-0.2-0.2h-0.1c0,0,0,0-0.1,0c0-0.2-0.1-0.3-0.2-0.4
		c-0.1-0.1-0.2-0.2-0.3-0.2v-0.1v-0.1c0,0-0.1,0-0.1-0.1S17,60,17,59.9c-0.1-0.1-0.2-0.2-0.2-0.2v-0.1v-0.1v-0.1c0,0,0-0.1-0.1-0.1
		v-0.1v-0.1c0-0.1,0-0.1-0.1-0.2c0-0.1-0.1-0.1-0.1-0.2c0-0.1,0-0.1,0.1-0.2c0-0.1,0.1-0.1,0.1-0.2h0.1c0,0,0,0,0.1,0
		c0,0,0-0.2-0.1-0.4c0.1,0,0.2,0,0.2,0c0.1-0.1,0.1-0.2,0-0.3c0,0,0.1-0.1,0.1-0.2c0.1-0.1,0.1-0.2,0.1-0.2h0.1v0.1
		c0.1,0,0.1-0.1,0.1-0.1c0-0.1,0-0.1,0-0.1c0-0.1,0.1-0.1,0.2-0.1s0.1,0,0.1,0s0,0,0.1-0.1c0,0,0.1-0.1,0.1,0L18,57h0.1h0.1
		c0.1,0.2,0.2,0.2,0.2,0.3c0.1,0,0.1,0,0.1,0h0.1c0.1,0.1,0.2,0.1,0.2,0.1c0.1,0,0.1,0.1,0.1,0.2c0.1,0,0.1,0.1,0.1,0.1
		c0,0.1,0.1,0.1,0.1,0.2c0.1,0.1,0.1,0.2,0.1,0.3c0.1,0,0.2,0.1,0.3,0.3c0.1,0.2,0.3,0.3,0.3,0.3v0.1V59l0.3,0.2c0,0,0.1,0,0.2,0
		s0.1,0,0.2,0l0.1,0.1c0,0,0,0,0.1,0s0.2,0,0.3,0c0.1,0,0.2,0,0.3,0c0,0,0.1,0,0.1,0.1l0.1,0.1c0.1,0,0.2,0,0.3,0
		c0.1-0.1,0.1-0.1,0.2-0.1h0.1c0.1,0,0.1,0,0.1,0s0.1,0,0.2-0.1c0.1,0,0.1,0,0.2,0h0.1c0.1,0,0.1,0,0.1,0h0.1l0,0c0,0,0,0,0.1,0h0.1
		c0,0,0,0,0.1-0.1h0.1c0.1,0,0.1,0,0.1-0.1h0.1c0,0,0,0,0.1,0s0.1,0,0.2,0s0.1-0.1,0.1-0.2c0,0,0.1,0,0.1,0.1c0,0,0.1,0,0.2-0.1
		s0.2-0.1,0.3-0.1c0.1-0.1,0.2-0.3,0.6-0.5s0.5-0.4,0.6-0.5c0.2-0.1,0.2-0.2,0.2-0.3c0.1,0,0.1-0.1,0.2-0.2c0.1-0.1,0.1-0.2,0.2-0.2
		V57c0,0,0-0.1,0.1-0.1v-0.3c0.1-0.1,0.2-0.1,0.2-0.1c0-0.1,0-0.2,0-0.4s0-0.3,0-0.4l-0.1-0.1v-0.1c0,0,0-0.1-0.1-0.2
		c0-0.1-0.1-0.1-0.2-0.2C26.1,55.1,26,55,26,55c-0.1,0.1-0.2,0.1-0.2,0s0-0.1,0-0.1h-0.2c0,0,0,0,0-0.1v-0.1c0,0,0,0-0.1,0
		s-0.1,0-0.1,0s0,0-0.1-0.1l-0.1-0.1c0,0-0.1,0-0.2,0s-0.2,0-0.3,0c-0.2-0.1-0.3-0.1-0.4,0v-0.1c0,0-0.1-0.1-0.4-0.1
		c-0.2-0.1-0.4-0.1-0.4-0.1c-0.2-0.2-0.5-0.3-0.9-0.3l0,0l0,0v-0.1c-0.1,0-0.1,0-0.2-0.1s-0.1-0.1-0.2-0.1h-0.1c0,0,0,0.1-0.1,0.1
		c0,0,0-0.1-0.1-0.1s-0.1-0.1-0.2,0c-0.1-0.2-0.2-0.2-0.3,0c-0.1-0.2-0.1-0.2-0.1-0.2c-0.2,0.1-0.3,0.1-0.4,0s-0.2-0.1-0.5,0
		c0-0.1-0.1-0.2-0.1-0.2c-0.2,0-0.3,0-0.5-0.1h-0.1h-0.1h-0.1l0,0c0,0,0,0-0.1,0h-0.1c0,0,0,0-0.1,0c-0.2-0.1-0.4-0.1-0.6,0V53
		c0,0,0-0.1-0.1-0.1h-0.1c0,0-0.1,0-0.1-0.1l-0.1-0.1c0,0-0.1,0-0.2-0.1c-0.1,0-0.2-0.1-0.3-0.1c-0.1-0.1-0.1-0.1-0.1-0.1h-0.1h-0.1
		c0-0.1,0-0.2,0-0.2h-0.1h-0.1l0,0v-0.1l0,0c0,0,0,0,0-0.1h-0.1H17v-0.1l0,0c-0.1-0.1-0.1-0.1-0.2-0.1c-0.1-0.1-0.2-0.1-0.2-0.2
		h-0.1h-0.1c0-0.1-0.1-0.1-0.2-0.2c0-0.1-0.1-0.2-0.2-0.3c-0.1-0.1-0.2-0.2-0.2-0.3h-0.1l-0.1-0.1c0-0.1,0-0.1,0-0.1
		c-0.2-0.2-0.3-0.4-0.3-0.6c-0.1,0-0.1,0-0.2-0.1C14.9,49,14.8,49,14.8,49s0-0.1,0-0.3c-0.2-0.1-0.4-0.3-0.5-0.5c0,0,0,0,0-0.1
		s0-0.2,0-0.2s0-0.1-0.1-0.1l-0.1-0.1c0,0,0-0.1,0-0.2c0,0,0-0.1,0-0.2c0-0.1,0-0.2,0-0.3v-0.1c0-0.1,0-0.1,0-0.1s0-0.1,0.1-0.2
		c0-0.1,0-0.1,0-0.2s0-0.1,0-0.1c0.1-0.1,0.2-0.2,0.5-0.4c0,0,0.1,0,0.2,0c0,0,0,0,0-0.1v-0.1c0,0,0.1,0,0.3-0.1s0.3-0.2,0.4-0.2
		c0.1,0,0.2,0,0.2,0s0.1-0.1,0.1-0.2c0,0,0,0,0.1,0c0,0,0.1,0,0.1-0.1c0,0,0.1-0.1,0.2-0.1s0.2,0,0.2,0c0.1,0,0.2-0.1,0.2-0.3
		c0.2,0,0.3,0,0.3-0.1c0.1,0,0.2,0,0.3,0c0.1,0,0.2,0,0.2,0c0.1,0,0.1,0,0.2-0.1s0.1-0.1,0.2-0.1s0.2,0,0.2,0s0.1,0,0.2,0
		s0.1-0.1,0.2-0.1c0,0,0.1,0,0.2,0c0,0,0.1,0,0.1-0.1l0.1-0.1c0.1,0,0.1,0,0.1,0s0.1-0.1,0.3-0.2c0.1,0,0.2,0,0.2-0.1v0.1
		c0.1-0.1,0.2-0.1,0.4-0.1c0.2,0,0.4,0,0.5,0h0.1l0.1-0.1c0.1,0,0.1,0,0.1,0s0.1,0,0.1-0.1l0.1-0.1c0.1,0,0.4,0,0.7,0
		c0.3,0,0.6,0,0.8,0c0.1,0,0.1,0,0.3,0c0.1,0,0.2,0,0.2,0s0.1,0,0.2,0s0.2,0,0.2,0s0.1,0,0.2,0.1c0.3,0,0.5,0,0.6,0.1
		c0.1,0,0.2,0,0.4,0.1C24.9,43.9,25,44,25.1,44z M24.4,43.8c0.1,0,0.2,0,0.4,0.1C24.9,44,25,44,25.1,44c0,0,0,0.1,0,0.2
		c0.2,0.2,0.5,0.3,0.6,0.5h0.2c0,0.1,0.1,0.2,0.2,0.3c0,0.1,0,0.2,0.1,0.3c0.1,0,0.1,0,0.1,0c0,0.3,0,0.5,0,0.5
		c0.1,0.1,0.1,0.2,0.1,0.3s0,0.2,0,0.3s0,0.2,0,0.4c-0.2,0.1-0.3,0.2-0.3,0.5c-0.1,0-0.1,0-0.2,0c-0.1,0.1-0.1,0.1-0.1,0.1h-0.1
		h-0.1c0,0,0,0-0.1,0.1h-0.1c0,0,0,0-0.1,0s-0.1,0.1-0.2,0.3c0,0-0.1,0-0.2-0.1c-0.1,0-0.1,0-0.1,0h-0.1c0-0.1,0-0.2-0.2-0.4h-0.1
		h-0.1l-0.1-0.1c-0.1,0-0.1,0-0.1,0s0,0-0.1,0v-0.1c-0.1-0.1-0.2-0.2-0.4-0.1c0,0-0.1,0-0.1,0.1c-0.1,0-0.2,0-0.3,0h-0.1H23h-0.1
		h-0.1c0,0-0.1,0-0.2-0.1c0,0-0.1,0-0.1,0.1c-0.1,0-0.1,0-0.1,0h-0.1c-0.1,0-0.1,0-0.2,0H22h-0.1c0,0-0.1,0-0.2,0h-0.1h-0.1
		c-0.1,0-0.2,0-0.2,0c-0.3,0-0.5,0.1-0.5,0.1v0.1v0.1h-0.1l-0.1-0.1c0,0-0.1,0-0.3,0.1h-0.1c0,0,0,0-0.1,0c-0.1,0.1-0.2,0.1-0.5,0.2
		c-0.2,0-0.4,0.1-0.5,0.2v0.1c-0.1,0-0.1,0-0.1,0h-0.1c0,0,0,0.1-0.1,0.1s-0.1,0-0.1,0s-0.1,0-0.2,0.1h-0.1c-0.1,0-0.2,0-0.2,0v0.1
		v0.1c0,0.1,0.1,0.2,0.1,0.2s0.1,0,0.2,0c0,0.1,0.1,0.2,0.3,0.3h0.1H19c0,0,0,0,0,0.1s0,0.1,0,0.1c0.1-0.1,0.2,0,0.3,0.1
		c0.1,0.1,0.2,0.1,0.3,0.1c0,0,0.1,0.1,0.2,0.1s0.2,0,0.2,0.1c0,0,0.1,0,0.1,0.1h0.1l0.1,0.1c0,0,0.1,0,0.1,0.1
		c0.3,0.1,0.5,0.1,0.5,0.2c0.1-0.1,0.2,0,0.4,0c0.1,0,0.1,0.1,0.1,0.1c0.1,0,0.1,0,0.2,0s0.2,0,0.3,0H22c0,0,0,0,0.1,0h0.1
		c0,0,0.1,0,0.1,0.1l0.1,0.1h0.1h0.1c0.2,0.2,0.4,0.2,0.5,0.2l0.1-0.1c0.1,0,0.2,0,0.2,0s0,0,0,0.1c0.1,0.1,0.2,0.1,0.2,0.1h0.1h0.1
		c0,0.2,0,0.2,0.1,0.2H24c0,0,0,0,0.1-0.1c0.2,0,0.3,0,0.3,0c0,0.1,0.1,0.2,0.2,0.2s0.2,0.1,0.2,0.2c0.3-0.1,0.5,0,0.5,0.1h0.1h0.1
		c0,0,0.1,0,0.1,0.1s0.1,0.1,0.1,0.1L26,51c0.1-0.1,0.1-0.1,0.2,0c0,0.1,0,0.2,0.1,0.2s0.2,0,0.2,0c0.1,0.1,0.1,0.1,0.2,0.1
		s0.1,0,0.1,0h0.1c0,0,0,0,0,0.1c0,0,0.1,0.1,0.2,0.1s0.2,0.1,0.3,0.2c0.1,0,0.1,0,0.2,0c0.1,0.1,0.2,0.1,0.3,0.1
		c0.1,0.2,0.2,0.3,0.2,0.3h0.1h0.1v0.1c0.1,0.1,0.2,0.2,0.4,0.4s0.3,0.3,0.4,0.4c0,0.1,0.1,0.1,0.1,0.2c0,0.1,0,0.1,0,0.2
		c0.2,0.1,0.3,0.3,0.3,0.6c0,0.1,0.1,0.1,0.1,0.3c0.1,0.1,0.1,0.2,0.1,0.3v0.1v0.1v0.1V55v0.1v0.1c0,0,0,0,0,0.1v0.1
		c0,0,0,0.1,0,0.3s0,0.3,0.1,0.3v0.1v0.1c0.1,0,0.1,0.2,0,0.4S29.7,57,29.7,57v0.1c0,0.1,0,0.1-0.1,0.2c-0.1,0.1-0.1,0.1-0.1,0.1
		c0,0.1,0,0.2-0.1,0.3v0.1c-0.2,0.2-0.3,0.3-0.3,0.4c-0.2,0.2-0.3,0.3-0.4,0.4c0,0.2-0.1,0.3-0.2,0.4c-0.1,0.1-0.2,0.2-0.3,0.3
		c0,0.1,0,0.1-0.1,0.2v0.1H28c0,0-0.1,0-0.1-0.1c-0.1,0-0.1,0.1,0,0.2c0,0-0.2,0.1-0.5,0.3v0.1c-0.2,0.1-0.3,0.2-0.4,0.2
		s-0.1,0.1-0.2,0.2c-0.1,0-0.2,0.1-0.3,0.2c-0.1,0.1-0.2,0.2-0.3,0.2c0,0,0,0.1,0,0.2c0,0.1,0,0.1,0,0.2c0,0-0.1,0-0.1-0.1L26,61.1
		c0,0-0.1,0-0.2,0.1s-0.2,0.1-0.2,0.1c-0.1,0-0.1,0.1-0.1,0.1s-0.1,0-0.2,0s-0.2,0-0.2,0c-0.2,0.1-0.2,0.1-0.3,0
		c-0.1,0.1-0.2,0.2-0.2,0.2c0.2,0.4,0.1,0.4,0,0.4s-0.1,0-0.1,0c-0.1,0-0.1,0-0.2,0.1c0,0.1-0.1,0.1-0.1,0.1c-0.1,0-0.2,0-0.3,0.1
		c-0.1,0-0.2,0.1-0.3,0.1c-0.1,0-0.1,0-0.2,0s-0.1,0-0.2,0s-0.1,0-0.2,0.1c-0.1,0-0.1,0.1-0.2,0.1h-0.1c-0.1,0-0.1,0-0.1,0l-0.1,0.1
		c0,0-0.2,0-0.5,0c0,0-0.1,0-0.1-0.1c-0.2-0.1-0.4-0.1-0.5,0c-0.1,0-0.1,0-0.1,0c-0.1,0.1-0.1,0.1-0.1,0.1c-0.1-0.1-0.2-0.1-0.5-0.1
		c-0.1,0-0.2,0-0.2,0c-0.1-0.1-0.1-0.1-0.2-0.1c0,0-0.1,0-0.1,0.1c-0.1,0-0.1,0.1-0.1,0v-0.1v-0.1c-0.1,0-0.2,0-0.3,0
		c-0.1,0-0.2,0-0.2,0s-0.1,0-0.2-0.1c0,0-0.1,0-0.2,0v-0.2c0,0-0.1,0-0.2,0l0,0V62c-0.1,0-0.1,0-0.2-0.1s-0.1-0.2-0.1-0.2
		c-0.2-0.1-0.2-0.2-0.3-0.2c0-0.1,0-0.1,0-0.1c-0.1-0.1-0.1-0.1-0.3-0.2c-0.1-0.1-0.2-0.1-0.2-0.2h-0.1c0,0,0,0-0.1,0
		c0-0.2-0.1-0.3-0.2-0.4c-0.1-0.1-0.2-0.2-0.3-0.2v-0.1v-0.1c0,0-0.1,0-0.1-0.1S17,60,17,59.9c-0.1-0.1-0.2-0.2-0.2-0.2v-0.1v-0.1
		v-0.1c0,0,0-0.1-0.1-0.1v-0.1v-0.1c0-0.1,0-0.1-0.1-0.2c0-0.1-0.1-0.1-0.1-0.2c0-0.1,0-0.1,0.1-0.2c0-0.1,0.1-0.1,0.1-0.2h0.1
		c0,0,0,0,0.1,0c0,0,0-0.2-0.1-0.4c0.1,0,0.2,0,0.2,0c0.1-0.1,0.1-0.2,0-0.3c0,0,0.1-0.1,0.1-0.2c0.1-0.1,0.1-0.2,0.1-0.2
		s0.1,0,0.1,0.1c0.1,0,0.1,0,0.1-0.1s0-0.1,0-0.1c0-0.1,0.1-0.1,0.2-0.1s0.1,0,0.1,0s0,0,0.1-0.1c0,0,0.1-0.1,0.1,0L18,57h0.1h0.1
		c0.1,0.2,0.2,0.2,0.2,0.3c0.1,0,0.1,0,0.1,0h0.1c0.1,0.1,0.2,0.1,0.2,0.1c0.1,0,0.1,0.1,0.1,0.2c0.1,0,0.1,0.1,0.1,0.1
		c0,0.1,0.1,0.1,0.1,0.2c0.1,0.1,0.1,0.2,0.1,0.3c0.1,0,0.2,0.1,0.3,0.3c0.1,0.2,0.3,0.3,0.3,0.3v0.1V59l0.3,0.2c0,0,0.1,0,0.2,0
		s0.1,0,0.2,0l0.1,0.1c0,0,0,0,0.1,0s0.2,0,0.3,0c0.1,0,0.2,0,0.3,0c0,0,0.1,0,0.1,0.1l0.1,0.1c0.1,0,0.2,0,0.3,0
		c0.1-0.1,0.1-0.1,0.2-0.1h0.1c0.1,0,0.1,0,0.1,0s0.1,0,0.2-0.1c0.1,0,0.1,0,0.2,0h0.1c0.1,0,0.1,0,0.1,0h0.1l0,0c0,0,0,0,0.1,0h0.1
		c0,0,0,0,0.1-0.1h0.1c0.1,0,0.1,0,0.1-0.1h0.1c0,0,0,0,0.1,0s0.1,0,0.2,0s0.1-0.1,0.1-0.2c0,0,0.1,0,0.1,0.1c0,0,0.1,0,0.2-0.1
		s0.2-0.1,0.3-0.1c0.1-0.1,0.2-0.3,0.6-0.5s0.5-0.4,0.6-0.5c0.2-0.1,0.2-0.2,0.2-0.3c0.1,0,0.1-0.1,0.2-0.2c0.1-0.1,0.1-0.2,0.2-0.2
		V57c0,0,0-0.1,0.1-0.1v-0.3c0.1-0.1,0.2-0.1,0.2-0.1c0-0.1,0-0.2,0-0.4s0-0.3,0-0.4l-0.1-0.1v-0.1c0,0,0-0.1-0.1-0.2
		c0-0.1-0.1-0.1-0.2-0.2C26.1,55.1,26,55,26,55c-0.1,0.1-0.2,0.1-0.2,0s0-0.1,0-0.1h-0.2c0,0,0,0,0-0.1v-0.1c0,0,0,0-0.1,0
		s-0.1,0-0.1,0s0,0-0.1-0.1l-0.1-0.1c0,0-0.1,0-0.2,0s-0.2,0-0.3,0c-0.2-0.1-0.3-0.1-0.4,0v-0.1c0,0-0.1-0.1-0.4-0.1
		c-0.2-0.1-0.4-0.1-0.4-0.1c-0.2-0.2-0.5-0.3-0.9-0.3l0,0l0,0v-0.1c-0.1,0-0.1,0-0.2-0.1s-0.1-0.1-0.2-0.1l-0.1,0.1
		c0,0,0,0.1-0.1,0.1c0,0,0-0.1-0.1-0.1s-0.1-0.1-0.2-0.1c-0.1-0.1-0.2-0.1-0.3,0c-0.1-0.2-0.1-0.2-0.1-0.2c-0.2,0.1-0.3,0.1-0.4,0
		s-0.2-0.1-0.5,0c0-0.1-0.1-0.2-0.1-0.2c-0.2,0-0.3,0-0.5-0.1c0,0-0.1,0-0.2,0h-0.1l0,0c0,0,0,0-0.1,0h-0.1c0,0,0,0-0.1,0
		c-0.2-0.1-0.4-0.1-0.6,0V53c0,0,0-0.1-0.1-0.1h-0.1c0,0-0.1,0-0.1-0.1l-0.1-0.1c0,0-0.1,0-0.2-0.1c-0.1,0-0.2-0.1-0.3-0.1
		c-0.1-0.1-0.1-0.1-0.1-0.1h-0.1h-0.1c0-0.1,0-0.2,0-0.2h-0.1h-0.1l0,0v-0.1l0,0c0,0,0,0,0-0.1h-0.1H17v-0.1l0,0
		c-0.1-0.1-0.1-0.1-0.2-0.1c-0.1-0.1-0.2-0.1-0.2-0.2h-0.1h-0.1c0-0.1-0.1-0.1-0.2-0.2c0-0.1-0.1-0.2-0.2-0.3
		c-0.1-0.1-0.2-0.2-0.2-0.3h-0.1l-0.1-0.1c0-0.1,0-0.1,0-0.1c-0.2-0.2-0.3-0.4-0.3-0.6c-0.1,0-0.1,0-0.2-0.1
		C14.9,49,14.8,49,14.8,49s0-0.1,0-0.3c-0.2-0.1-0.4-0.3-0.5-0.5c0,0,0,0,0-0.1s0-0.2,0-0.2s0-0.1-0.1-0.1l-0.1-0.1c0,0,0-0.1,0-0.2
		c0,0,0-0.1,0-0.2c0-0.1,0-0.2,0-0.3v-0.1c0-0.1,0-0.1,0-0.1s0-0.1,0.1-0.2c0-0.1,0-0.1,0-0.2s0-0.1,0-0.1c0.1-0.1,0.2-0.2,0.5-0.4
		c0,0,0.1,0,0.2,0c0,0,0,0,0-0.1v-0.1c0,0,0.1,0,0.3-0.1s0.3-0.2,0.4-0.2c0.1,0,0.2,0,0.2,0s0.1-0.1,0.1-0.2c0,0,0,0,0.1,0
		c0,0,0.1,0,0.1-0.1c0,0,0.1-0.1,0.2-0.1s0.2,0,0.2,0c0.1,0,0.2-0.1,0.2-0.3c0.2,0,0.3,0,0.3-0.1c0.1,0,0.2,0,0.3,0
		c0.1,0,0.2,0,0.2,0c0.1,0,0.1,0,0.2-0.1s0.1-0.1,0.2-0.1s0.2,0,0.2,0s0.1,0,0.2,0s0.1-0.1,0.2-0.1c0,0,0.1,0,0.2,0
		c0,0,0.1,0,0.1-0.1l0.1-0.1c0.1,0,0.1,0,0.1,0s0.1-0.1,0.3-0.2c0.1,0,0.2,0,0.2-0.1v0.1c0.1-0.1,0.2-0.1,0.4-0.1c0.2,0,0.4,0,0.5,0
		h0.1l0.1-0.1c0.1,0,0.1,0,0.1,0s0.1,0,0.1-0.1l0.1-0.1c0.1,0,0.4,0,0.7,0c0.3,0,0.6,0,0.8,0c0.1,0,0.1,0,0.3,0c0.1,0,0.2,0,0.2,0
		s0.1,0,0.2,0s0.2,0,0.2,0s0.1,0.1,0.2,0.2C24.1,43.6,24.3,43.7,24.4,43.8z"/>
	<path fill="#2B5799" d="M43.3,34.7c0,0.1,0.1,0.2,0.3,0.3l0.1-0.1l0,0c0.1,0,0.1,0,0.1,0V35l0.1,0.1c0.1,0.1,0.1,0.1,0.1,0.2
		c0.1,0.1,0.1,0.2,0.3,0.3c0.1,0.1,0.2,0.2,0.4,0.2c0,0.1,0,0.2-0.1,0.2h-0.1c0,0.1,0,0.2,0.1,0.3c0,0.1,0,0.1,0.1,0.2
		c0,0.1,0.1,0.2,0.1,0.2s0,0.1,0,0.2c0,0.1,0,0.1,0,0.2s0,0.1,0,0.1l0.1,0.1v0.1v0.1l0.1,0.1c0,0,0,0.1,0.1,0.1
		c0,0.2,0.1,0.3,0.1,0.3c0.1,0.3,0.1,0.5,0.2,0.6c0,0.3,0,0.5,0.1,0.5c0,0.1,0,0.2,0,0.3c0.1,0.1,0.1,0.2,0,0.3v0.1c0,0,0,0.1,0,0.2
		c0,0.1,0,0.2,0,0.2h0.1h0.1c0,0.2,0,0.4,0,0.5s0,0.1,0,0.1l0,0l0,0c0,0,0,0,0,0.1V41c0,0,0,0.1,0,0.2c0,0.1,0,0.3,0.1,0.6
		s0.1,0.5,0,0.7c0.2,0.1,0.2,0.3,0.2,0.6c0,0.1,0,0.1,0,0.1s0,0,0,0.1c0,0,0,0.1,0.1,0.1c0,0,0,0.1,0,0.2c0,0.1,0,0.2,0,0.2v0.1
		l0.1,0.1c0,0,0,0.1,0,0.2c0,0.1,0,0.2,0,0.2c0,0.1,0,0.1,0.1,0.2c0.1,0.1,0.1,0.1,0,0.2l0.2,0.1c0,0.1,0,0.1-0.1,0.2
		c0,0.1,0,0.1,0,0.2c0,0.1,0,0.1,0,0.1v0.1c0,0,0,0,0,0.1l0,0c0.1,0.2,0.1,0.3,0,0.4c0.1,0.3,0.1,0.5,0.1,0.6h0.1c0,0,0,0.2,0,0.6
		v0.1c0,0,0,0.1,0.1,0.2c0,0,0,0.1,0,0.2s0,0.2,0,0.2s0,0.1,0.1,0.2c0,0.1,0.1,0.2,0.1,0.2c0,0.1,0,0.2,0,0.3v0.1v0.1
		c0,0.1,0.1,0.1,0.1,0.1c0.1,0.2,0.1,0.4,0.1,0.4c-0.1,0.1-0.1,0.2,0,0.3l0,0v0.1v0.1c0,0,0.1,0.1,0.1,0.2c0,0.1,0,0.1,0,0.2
		c0,0.1,0,0.2,0,0.3c0,0.2,0,0.3,0,0.4c0,0,0,0.1,0.1,0.1s0.1,0.1,0.1,0.2c0.1,0.3,0.1,0.4,0.1,0.5c0,0,0.1,0.1,0.2,0.1
		c0.1,0,0.2,0.1,0.3,0.1V52l0.1,0.1c0.1,0,0.2,0,0.2,0.1s0,0.2,0.1,0.3s0.1,0.2,0.1,0.3c0.1,0.1,0.1,0.1,0.1,0.1
		c-0.1,0.2-0.1,0.2-0.2,0.2c0,0-0.1,0.1-0.1,0.2c0,0.1,0,0.3-0.1,0.3s-0.1,0.1-0.1,0.1c0,0.1,0,0.2,0,0.3s0,0.1,0,0.1s0,0,0,0.1
		s0,0.1,0,0.1s0,0.1,0.1,0.1l0.1,0.1c0,0.1,0,0.1,0,0.2c0,0.2,0,0.2,0.1,0.3c0,0.5,0.1,0.8,0.3,0.9c-0.1,0.3,0,0.5,0.1,0.6
		c0,0.1,0,0.2,0.1,0.3H49l0,0v0.1c0,0.1,0,0.1,0,0.1c0,0.1,0,0.1,0,0.1l0.1,0.1c0,0.1,0,0.2,0.1,0.3C50,57.9,50,58,50,58.1
		c0,0,0.1,0.1,0.1,0.3c0,0.1,0.1,0.2,0.2,0.4c0,0.2,0.1,0.3,0.2,0.3c0,0,0,0.1,0.1,0.2c0,0.1,0.1,0.1,0.1,0.2
		c0.2,0.1,0.2,0.2,0.3,0.4l0.1,0.1l0.1,0.1v0.1c0,0.1,0,0.1,0,0.1c0,0.1,0,0.2,0,0.4s0,0.3,0,0.3c0.1,0.1,0.1,0.2,0,0.4
		c-0.1,0-0.2,0.1-0.2,0.2c-0.1,0-0.2,0.1-0.3,0.2S50.4,62,50.3,62v0.1v0.1h-0.4c0-0.1-0.1-0.2-0.2-0.3c-0.1-0.1-0.2-0.1-0.2-0.2
		c-0.2,0-0.3,0-0.4-0.1v0.1v0.1c-0.1,0-0.1,0-0.1-0.1s0-0.1,0-0.1c0-0.1-0.1-0.1-0.2-0.1c-0.2-0.3-0.5-0.4-0.6-0.5
		c0-0.3-0.1-0.4-0.3-0.4c0-0.1,0-0.1,0-0.2l0,0c0-0.1-0.1-0.2-0.2-0.3c-0.1-0.1-0.1-0.2-0.2-0.2c-0.1,0-0.1,0-0.1,0
		c0.1-0.2,0-0.4-0.1-0.5c0-0.2,0-0.3-0.1-0.4h-0.1l0,0c0,0,0-0.1,0-0.2c0-0.1,0-0.1,0-0.2c0,0,0-0.1-0.1-0.2c0-0.1-0.1-0.2,0-0.2
		h-0.2l0.1-0.2c0-0.1,0-0.2-0.1-0.3c0-0.3-0.1-0.4-0.2-0.4v-0.1c0-0.1,0-0.1,0-0.1V57v-0.1c0,0,0-0.1-0.1-0.2c0-0.1-0.1-0.2-0.1-0.2
		c-0.1-0.3-0.1-0.5-0.2-0.5v-0.1c0-0.1,0-0.1,0-0.1s0-0.1-0.1-0.1L46,55.6v-0.1c0-0.1,0-0.1,0-0.1v-0.1c0,0,0,0,0-0.1
		c-0.1-0.1-0.1-0.2-0.1-0.2s-0.1,0-0.2,0c-0.1,0-0.2,0-0.2,0c-0.2,0-0.2,0.1-0.3,0.1l0,0l0,0h-0.1H45c-0.1,0-0.1,0-0.1,0.1
		c0,0-0.1,0-0.1-0.1c-0.1,0-0.1,0-0.2,0.1c-0.1,0-0.1,0.1-0.1,0.1c-0.1-0.1-0.1-0.1-0.2-0.1c-0.1,0-0.1,0.1-0.1,0.2
		c-0.2,0-0.3,0-0.3,0C43.7,55,43.6,55,43.5,55c0,0-0.1,0-0.1,0.1c0,0-0.1,0-0.2-0.1c-0.2,0-0.3,0-0.4,0.2c-0.2,0-0.2,0-0.2,0
		c-0.1-0.1-0.2-0.1-0.4-0.1s-0.3,0.1-0.3,0.2c-0.5,0-0.8,0-0.9,0c-0.1,0-0.2,0-0.4,0s-0.3,0-0.5,0c0,0.1,0,0.2,0,0.2
		c-0.1,0-0.2,0-0.3-0.2c0,0-0.1,0-0.1,0.1c0,0-0.1,0-0.3,0s-0.3,0-0.3,0L39,55.3h-0.1c-0.1,0-0.2,0-0.2,0.1
		c-0.1-0.1-0.2-0.1-0.2-0.1s-0.1,0-0.1,0.1s-0.1,0.1-0.1,0.1c-0.1-0.1-0.1-0.2-0.2-0.2c0,0-0.1,0-0.2,0.1c-0.1,0.1-0.1,0.1-0.2,0.1
		c0,0-0.1,0.1-0.2,0.2c0,0.1,0,0.2-0.1,0.3v0.1l-0.1,0.1l-0.1,0.1c0,0.1,0,0.2-0.1,0.3c0,0.1-0.1,0.2-0.1,0.3l0,0l0,0V57
		c0,0,0,0.1-0.1,0.2c0,0.1-0.1,0.3-0.2,0.4c0.1,0.1,0.1,0.1,0,0.2c-0.1,0.1-0.1,0.1-0.1,0.1s0,0,0,0.1v0.1c0,0,0,0.1-0.1,0.1
		s-0.1,0.1-0.1,0.1c0,0.3-0.1,0.4-0.2,0.5c0,0.1,0,0.2,0,0.4H36c-0.1,0.3-0.2,0.5-0.2,0.5c0,0.1,0,0.2,0.1,0.3c0,0,0,0.1-0.1,0.1
		c0,0,0,0.1-0.1,0.2c-0.1,0-0.1,0.1-0.2,0.3l-0.1,0.1v0.1c0,0,0,0,0,0.1V61c-0.1,0.2-0.2,0.4-0.2,0.5L35,61.9c0,0.1,0,0.2-0.1,0.2
		v0.1v0.1c0,0,0,0.1-0.1,0.1h-0.1c0,0,0,0-0.1,0c0,0-0.1,0.1-0.1,0.2c-0.1,0-0.1,0-0.2,0.1c0,0.1-0.1,0.1-0.2,0.1c0,0-0.1,0-0.1-0.1
		l-0.1-0.1c-0.1,0-0.1,0-0.2,0c0,0-0.1,0-0.2,0c0-0.2,0-0.2,0-0.2c-0.2,0-0.4,0-0.5,0c0-0.1,0-0.2-0.1-0.2h-0.1h-0.1c0,0,0,0,0-0.1
		V62c-0.1,0-0.1,0-0.1,0c0,0.1,0,0.1-0.1,0.1c0-0.1,0-0.1-0.1-0.2c-0.1-0.1-0.1-0.1-0.1-0.2c-0.1,0-0.1,0-0.1,0c0-0.1,0-0.2,0-0.3
		h-0.1c0-0.2,0-0.3,0-0.5l0,0l0,0c0.1-0.1,0.2-0.3,0.1-0.6c-0.1-0.1-0.1-0.2-0.1-0.3h0.1l0,0c0,0,0-0.1,0-0.2h0.1c0,0,0-0.1,0-0.2
		c0-0.1,0-0.1,0-0.1l0.1-0.1c0-0.1,0.1-0.2,0.2-0.3c0-0.1,0-0.1,0-0.2s-0.1-0.1-0.1-0.2c0.2,0,0.2-0.1,0.2-0.2c0,0,0.1,0,0.1-0.1
		s0-0.2,0-0.3s0-0.1,0-0.1s0-0.1,0-0.2c0-0.1,0-0.1,0-0.1s0-0.1,0.1-0.1c0-0.1,0.1-0.2,0.2-0.3c0.1-0.1,0.1-0.2,0.1-0.3
		c0.1-0.2,0.1-0.3,0.2-0.3c0-0.2,0-0.3,0.1-0.5s0.2-0.3,0.1-0.5c0.1,0,0.1,0,0.2-0.1c0.1-0.1,0.1-0.1,0.1-0.1c0-0.1,0-0.2,0.1-0.3
		s0.1-0.2,0.1-0.4c-0.1-0.1-0.1-0.1,0-0.2h0.1c0.1-0.1,0.1-0.2,0-0.4c-0.2,0-0.2,0-0.3,0c0-0.3-0.2-0.5-0.5-0.6c0,0,0-0.1,0.1-0.1
		c0,0,0.1,0,0.1-0.1s0-0.1-0.1-0.2c-0.1-0.1-0.1-0.1-0.1-0.1s0.1-0.2,0.3-0.4c0-0.1,0.1-0.2,0.3-0.3c0.1-0.1,0.2-0.2,0.2-0.2
		l0.6-0.1c0.1,0,0.2,0,0.4,0s0.3,0,0.3-0.1c0,0,0-0.1,0-0.2c0-0.1,0-0.1,0-0.2c0,0,0.1,0,0.1-0.1s0-0.1,0-0.1v-0.1l0.1-0.1v-0.1
		c0-0.2,0.1-0.3,0.3-0.4c0.1-0.2,0.1-0.4,0-0.6c0.1,0,0.1-0.1,0.2-0.2c0.1-0.1,0.1-0.2,0.1-0.2c0-0.1,0-0.2,0.1-0.3s0.1-0.3,0-0.3
		c0-0.1,0.1-0.1,0.1-0.3c0.1-0.1,0.1-0.2,0.1-0.2c0-0.1,0-0.2,0.1-0.4c0,0,0-0.1,0.1-0.2v-0.1c0,0,0,0,0-0.1
		c0.1-0.1,0.1-0.2,0.1-0.2v-0.1v-0.1c0,0,0-0.1,0.1-0.1c0.1-0.2,0.2-0.4,0.2-0.4v-0.2c0,0,0-0.1,0.1-0.1c0,0,0.1,0,0.1-0.1
		s0-0.1,0-0.1c0-0.1,0-0.1,0-0.1c0.1-0.2,0.2-0.3,0.1-0.4l0.1-0.1l0.1-0.1v-0.1c0-0.1,0-0.1,0-0.1s0-0.1,0.1-0.1l0.1-0.1v-0.1
		c0-0.1,0-0.1,0-0.2c0.1,0,0.1-0.1,0.1-0.1c0.1-0.3,0.1-0.4,0.1-0.5s0-0.2,0.1-0.4s0.1-0.3,0.1-0.5c0.1,0,0.1-0.2,0.1-0.4
		s0.1-0.4,0.1-0.4c0-0.1,0-0.2,0.1-0.2c0-0.1,0.1-0.1,0.1-0.1v-0.1v-0.1c0,0,0.1,0,0.1-0.1c0.1,0,0.1-0.1,0.1-0.1s0-0.1,0-0.2
		c0-0.1,0-0.2,0-0.2s0,0-0.1,0h-0.1c0-0.1,0-0.1,0-0.2c0.1,0,0.2,0,0.2,0v-0.1v-0.1v-0.1L39,41c0-0.1,0-0.1,0-0.2c0-0.1,0-0.1,0-0.2
		c0-0.1,0-0.2,0.1-0.3s0.1-0.2,0.1-0.3c0.1-0.1,0.1-0.2,0.2-0.3c0-0.2,0-0.2,0.1-0.3v-0.1c0,0,0.1-0.1,0.1-0.2
		c0-0.1,0.1-0.1,0.1-0.2c0-0.1,0-0.2,0-0.3c0.1-0.1,0.1-0.2,0.1-0.2v-0.1v-0.1c0,0,0-0.1,0.1-0.2c0-0.1,0-0.1,0.1-0.2
		c0.1-0.1,0.1-0.2,0.1-0.2s0-0.1,0-0.2c0-0.1,0-0.1,0-0.2c0.1-0.3,0.1-0.4,0.1-0.5h0.1c0-0.2,0.1-0.4,0.2-0.5c0-0.1,0-0.2,0.1-0.3
		l-0.1-0.1c0,0,0,0,0-0.1h-0.1c-0.1-0.1-0.1-0.2,0-0.2s0.1,0,0.2,0c0-0.1,0.1-0.1,0-0.2c-0.1-0.2-0.1-0.3,0-0.3s0.1,0,0.1-0.1
		l0.1,0.1c0,0,0,0,0.1,0c0-0.1,0.1-0.2,0.1-0.3s0-0.1,0-0.1h0.1c0,0,0,0,0.1,0c0.3-0.2,0.6-0.2,0.8-0.1c0.1,0.1,0.1,0.1,0.2,0.1
		c0,0,0.1,0,0.1-0.1C43,34.6,43.2,34.6,43.3,34.7z M43.3,34.7c0,0.1,0.1,0.2,0.3,0.3l0.1-0.1l0,0c0.1,0,0.1,0,0.1,0V35l0.1,0.1
		c0.1,0.1,0.1,0.1,0.1,0.2c0.1,0.1,0.1,0.2,0.3,0.3c0.1,0.1,0.2,0.2,0.4,0.2c0,0.1,0,0.2-0.1,0.2h-0.1c0,0.1,0,0.2,0.1,0.3
		c0,0.1,0,0.1,0.1,0.2c0,0.1,0.1,0.2,0.1,0.2s0,0.1,0,0.2c0,0.1,0,0.1,0,0.2s0,0.1,0,0.1l0.1,0.1v0.1v0.1l0.1,0.1c0,0,0,0.1,0.1,0.1
		c0,0.2,0.1,0.3,0.1,0.3c0.1,0.3,0.1,0.5,0.2,0.6c0,0.3,0,0.5,0.1,0.5c0,0.1,0,0.2,0,0.3c0.1,0.1,0.1,0.2,0,0.3v0.1c0,0,0,0.1,0,0.2
		c0,0.1,0,0.2,0,0.2h0.1h0.1c0,0.2,0,0.4,0,0.5s0,0.1,0,0.1l0,0l0,0c0,0,0,0,0,0.1V41v0.1v0.1c0,0.1,0,0.3,0.1,0.5
		c0.1,0.3,0.1,0.5,0,0.7C46,42.5,46,42.7,46,43c0,0.1,0,0.1,0,0.1s0,0,0,0.1c0,0,0,0.1,0.1,0.1c0,0,0,0.1,0,0.2c0,0.1,0,0.2,0,0.2
		v0.1l0.1,0.1c0,0,0,0.1,0,0.2c0,0.1,0,0.2,0,0.2c0,0.1,0,0.1,0.1,0.2c0.1,0.1,0.1,0.1,0,0.2l0.2,0.1c0,0.1,0,0.1-0.1,0.2
		c0,0.1,0,0.1,0,0.2c0,0.1,0,0.1,0,0.1v0.1c0,0,0,0,0,0.1l0,0c0.1,0.2,0.1,0.3,0,0.4c0.1,0.3,0.1,0.5,0.1,0.6h0.1c0,0,0,0.2,0,0.6
		v0.1c0,0,0,0.1,0.1,0.2c0,0,0,0.1,0,0.2s0,0.2,0,0.2s0,0.1,0.1,0.2c0,0.1,0.1,0.2,0.1,0.2c0,0.1,0,0.2,0,0.3v0.1v0.1
		c0,0.1,0.1,0.1,0.1,0.1c0.1,0.2,0.1,0.4,0.1,0.4c-0.1,0.1-0.1,0.2,0,0.3l0,0v0.1v0.1c0,0,0.1,0.1,0.1,0.2c0,0.1,0,0.1,0,0.2
		c0,0.1,0,0.2,0,0.3c0,0.2,0,0.3,0,0.4c0,0,0,0.1,0.1,0.1s0.1,0.1,0.1,0.2c0.1,0.3,0.1,0.4,0.1,0.5c0,0,0.1,0.1,0.2,0.1
		c0.1,0,0.2,0.1,0.3,0.1v0.1l0.1,0.1c0.1,0,0.2,0,0.2,0.1s0,0.2,0.1,0.3s0.1,0.2,0.1,0.3c0.1,0.1,0.1,0.1,0.1,0.1
		C48.5,53,48.5,53,48.4,53c0,0-0.1,0.1-0.1,0.3s0,0.3-0.1,0.3s-0.1,0.1-0.1,0.1c0,0.1,0,0.2,0,0.3s0,0.1,0,0.1s0,0,0,0.1
		s0,0.1,0,0.1s0,0.1,0.1,0.1l0.1,0.1c0,0.1,0,0.1,0,0.2c0,0.2,0,0.2,0.1,0.3c0,0.5,0.1,0.8,0.3,0.9c-0.1,0.3,0,0.5,0.1,0.6
		c0,0.1,0,0.2,0.1,0.3H49v0.1c0,0.1,0,0.1,0,0.1c0,0.1,0,0.1,0,0.1l0.1,0.1c0,0.1,0,0.2,0.1,0.3C50,57.9,50,58,50,58.1
		c0,0,0.1,0.1,0.1,0.3c0,0.1,0.1,0.2,0.2,0.4c0,0.2,0.1,0.3,0.2,0.3c0,0,0,0.1,0.1,0.2c0,0.1,0.1,0.1,0.1,0.2
		c0.2,0.1,0.2,0.2,0.3,0.4l0.1,0.1l0.1,0.1v0.1c0,0.1,0,0.1,0,0.1c0,0.1,0,0.2,0,0.4s0,0.3,0,0.3c0.1,0.1,0.1,0.2,0,0.4
		c-0.1,0-0.2,0.1-0.2,0.2c-0.1,0-0.2,0.1-0.3,0.2S50.4,62,50.3,62v0.1v0.1h-0.4c0-0.1-0.1-0.2-0.2-0.3c-0.1-0.1-0.2-0.1-0.2-0.2
		c-0.2,0-0.3,0-0.4-0.1v0.1v0.1c-0.1,0-0.1,0-0.1-0.1s0-0.1,0-0.1c0-0.1-0.1-0.1-0.2-0.1c-0.2-0.3-0.5-0.4-0.6-0.5
		c0-0.3-0.1-0.4-0.3-0.4c0-0.1,0-0.1,0-0.2l0,0c0-0.1-0.1-0.2-0.2-0.3c-0.1-0.1-0.1-0.2-0.2-0.2c-0.1,0-0.1,0-0.1,0
		c0.1-0.2,0-0.4-0.1-0.5c0-0.1,0-0.2-0.1-0.4h-0.1l0,0c0,0,0-0.1,0-0.2c0-0.1,0-0.1,0-0.2c0,0,0-0.1-0.1-0.2c0-0.1-0.1-0.2,0-0.2
		h-0.2l0.1-0.2c0-0.1,0-0.2-0.1-0.3c0-0.3-0.1-0.4-0.2-0.4v-0.1c0-0.1,0-0.1,0-0.1V57v-0.1c0,0,0-0.1-0.1-0.2c0-0.1-0.1-0.2-0.1-0.2
		c-0.1-0.3-0.1-0.5-0.2-0.5v-0.1c0-0.1,0-0.1,0-0.1s0-0.1-0.1-0.1L46,55.6v-0.1c0-0.1,0-0.1,0-0.2v-0.1c0,0,0,0,0-0.1
		c-0.1-0.1-0.1-0.2-0.1-0.2s-0.1,0-0.2,0c-0.1,0-0.2,0-0.2,0c-0.2,0-0.2,0.1-0.3,0.1l0,0l0,0h-0.1H45c-0.1,0-0.1,0-0.1,0.1
		c0,0-0.1,0-0.1-0.1c-0.1,0-0.1,0-0.2,0.1c-0.1,0-0.1,0.1-0.1,0.1c-0.1-0.1-0.1-0.1-0.2-0.1c-0.1,0-0.1,0.1-0.1,0.2
		c-0.2,0-0.3,0-0.3,0C43.7,55,43.6,55,43.5,55c0,0-0.1,0-0.1,0.1c0,0-0.1,0-0.2-0.1c-0.2,0-0.3,0-0.4,0.2c-0.2,0-0.2,0-0.2,0
		c-0.1-0.1-0.2-0.1-0.4-0.1s-0.3,0.1-0.3,0.2c-0.5,0-0.8,0-0.9,0c-0.1,0-0.2,0-0.4,0s-0.3,0-0.5,0c0,0.1,0,0.2,0,0.2
		c-0.1,0-0.2,0-0.3-0.2c0,0-0.1,0-0.1,0.1c0,0-0.1,0-0.3,0s-0.3,0-0.3,0L39,55.3h-0.1c-0.1,0-0.2,0-0.2,0.1
		c-0.1-0.1-0.2-0.1-0.2-0.1s-0.1,0-0.1,0.1s-0.1,0.1-0.1,0.1c-0.1-0.1-0.1-0.2-0.2-0.2c0,0-0.1,0-0.2,0.1c-0.1,0.1-0.1,0.1-0.2,0.1
		c0,0-0.1,0.1-0.2,0.2c0,0.1,0,0.2-0.1,0.3v0.1l-0.1,0.1l-0.1,0.1c0,0.1,0,0.2-0.1,0.3c0,0.1-0.1,0.2-0.1,0.3l0,0l0,0V57
		c0,0,0,0.1-0.1,0.2c0,0.1-0.1,0.3-0.2,0.4c0.1,0.1,0.1,0.1,0,0.2c-0.1,0.1-0.1,0.1-0.1,0.1s0,0,0,0.1v0.1c0,0,0,0.1-0.1,0.1
		s-0.1,0.1-0.1,0.1c0,0.3-0.1,0.4-0.2,0.5c0,0.1,0,0.2,0,0.4H36c-0.1,0.3-0.2,0.5-0.2,0.5c0,0.1,0,0.2,0.1,0.3c0,0,0,0.1-0.1,0.1
		c0,0,0,0.1-0.1,0.2c-0.1,0-0.1,0.1-0.2,0.3l-0.1,0.1v0.1c0,0,0,0,0,0.1V61c-0.1,0.2-0.2,0.4-0.2,0.5L35,61.9c0,0.1,0,0.2-0.1,0.2
		v0.1v0.1c0,0,0,0.1-0.1,0.1h-0.1c0,0,0,0-0.1,0c0,0-0.1,0.1-0.1,0.2c-0.1,0-0.1,0-0.2,0.1c0,0.1-0.1,0.1-0.2,0.1c0,0-0.1,0-0.1-0.1
		l-0.1-0.1c-0.1,0-0.1,0-0.2,0c0,0-0.1,0-0.2,0c0-0.2,0-0.2,0-0.2c-0.2,0-0.4,0-0.5,0c0-0.1,0-0.2-0.1-0.2h-0.1h-0.1c0,0,0,0,0-0.1
		V62c-0.1,0-0.1,0-0.1,0c0,0.1,0,0.1-0.1,0.1c0-0.1,0-0.1-0.1-0.2c-0.1-0.1-0.1-0.1-0.1-0.2c-0.1,0-0.1,0-0.1,0c0-0.1,0-0.2,0-0.3
		h-0.1c0-0.2,0-0.3,0-0.5l0,0l0,0c0.1-0.1,0.2-0.3,0.1-0.6c-0.1-0.1-0.1-0.2-0.1-0.3h0.1l0,0c0,0,0-0.1,0-0.2h0.1c0,0,0-0.1,0-0.2
		c0-0.1,0-0.1,0-0.1l0.1-0.1c0-0.1,0.1-0.2,0.2-0.3c0-0.1,0-0.1,0-0.2s-0.1-0.1-0.1-0.2c0.2,0,0.2-0.1,0.2-0.2c0,0,0.1,0,0.1-0.1
		s0-0.2,0-0.3s0-0.1,0-0.1s0-0.1,0-0.2c0-0.1,0-0.1,0-0.1s0-0.1,0.1-0.1c0-0.1,0.1-0.2,0.2-0.3c0.1-0.1,0.1-0.2,0.1-0.3
		c0.1-0.2,0.1-0.3,0.2-0.3c0-0.2,0-0.3,0.1-0.5s0.2-0.3,0.1-0.5c0.1,0,0.1,0,0.2-0.1c0.1-0.1,0.1-0.1,0.1-0.1c0-0.1,0-0.2,0.1-0.3
		s0.1-0.2,0.1-0.4c-0.1-0.1-0.1-0.1,0-0.2h0.1c0.1-0.1,0.1-0.2,0-0.4c-0.2,0-0.2,0-0.3,0c0-0.3-0.2-0.5-0.5-0.6c0,0,0-0.1,0.1-0.1
		c0,0,0.1,0,0.1-0.1s0-0.1-0.1-0.2c-0.1-0.1-0.1-0.1-0.1-0.1s0.1-0.2,0.3-0.4c0-0.1,0.1-0.2,0.3-0.3c0.1-0.1,0.2-0.2,0.2-0.2
		l0.6-0.1c0.1,0,0.2,0,0.4,0s0.3,0,0.3-0.1c0,0,0-0.1,0-0.2c0-0.1,0-0.1,0-0.2c0,0,0.1,0,0.1-0.1s0-0.1,0-0.1v-0.1l0.1-0.1v-0.1
		c0-0.2,0.1-0.3,0.3-0.4c0.1-0.2,0.1-0.4,0-0.6c0.1,0,0.1-0.1,0.2-0.2c0.1-0.1,0.1-0.2,0.1-0.2c0-0.1,0-0.2,0.1-0.3s0.1-0.3,0-0.3
		c0-0.1,0.1-0.1,0.1-0.3c0-0.1,0.1-0.2,0.1-0.2c0-0.1,0-0.2,0.1-0.4c0,0,0-0.1,0.1-0.2v-0.1c0,0,0,0,0-0.1c0.1-0.1,0.1-0.2,0.1-0.2
		v-0.1v-0.1c0,0,0-0.1,0.1-0.1c0.1-0.2,0.2-0.4,0.2-0.4v-0.2c0,0,0-0.1,0.1-0.1c0,0,0.1,0,0.1-0.1s0-0.1,0-0.1c0-0.1,0-0.1,0-0.1
		c0.1-0.2,0.2-0.3,0.1-0.4l0.1-0.1l0.1-0.1v-0.1c0-0.1,0-0.1,0-0.1s0-0.1,0.1-0.1l0.1-0.1v-0.1c0-0.1,0-0.1,0-0.2
		c0.1,0,0.1-0.1,0.1-0.1c0.1-0.3,0.1-0.4,0.1-0.5s0-0.2,0.1-0.4s0.1-0.3,0.1-0.5c0.1,0,0.1-0.2,0.1-0.4s0.1-0.4,0.1-0.4
		c0-0.1,0-0.2,0.1-0.2c0-0.1,0.1-0.1,0.1-0.1v-0.1v-0.1c0,0,0.1,0,0.1-0.1c0.1,0,0.1-0.1,0.1-0.1s0-0.1,0-0.2c0-0.1,0-0.2,0-0.2
		s0,0-0.1,0h-0.1c0-0.1,0-0.1,0-0.2c0.1,0,0.2,0,0.2,0v-0.1v-0.1v-0.1L39,41c0-0.1,0-0.1,0-0.2c0-0.1,0-0.1,0-0.2
		c0-0.1,0-0.2,0.1-0.3s0.1-0.2,0.1-0.3c0.1-0.1,0.1-0.2,0.2-0.3c0-0.2,0-0.2,0.1-0.3v-0.1c0,0,0.1-0.1,0.1-0.2
		c0-0.1,0.1-0.1,0.1-0.2c0-0.1,0-0.2,0-0.3c0.1-0.1,0.1-0.2,0.1-0.2v-0.1v-0.1c0,0,0-0.1,0.1-0.2c0-0.1,0-0.1,0.1-0.2
		c0.1-0.1,0.1-0.2,0.1-0.2s0-0.1,0-0.2c0-0.1,0-0.1,0-0.2c0.1-0.3,0.1-0.4,0.1-0.5h0.1c0-0.2,0.1-0.4,0.2-0.5c0-0.1,0-0.2,0.1-0.3
		l-0.1-0.1c0,0,0,0,0-0.1h-0.1c-0.1-0.1-0.1-0.2,0-0.2s0.1,0,0.2,0c0-0.1,0.1-0.1,0-0.2c-0.1-0.2-0.1-0.3,0-0.3s0.1,0,0.1-0.1
		l0.1,0.1c0,0,0,0,0.1,0c0-0.1,0.1-0.2,0.1-0.3s0-0.1,0-0.1h0.1c0,0,0,0,0.1,0c0.3-0.2,0.6-0.2,0.8-0.1c0.1,0.1,0.1,0.1,0.2,0.1
		c0,0,0.1,0,0.1-0.1C43,34.6,43.2,34.6,43.3,34.7z M34.6,54.9L34.6,54.9L34.6,54.9z M34.6,54.9L34.6,54.9L34.6,54.9z M42.8,40.7
		c0,0.1,0,0.1-0.1,0.2c-0.1,0-0.1,0.1-0.1,0.1s0,0.1,0,0.2c0,0.1,0,0.1,0,0.2c-0.1,0.1-0.1,0.1-0.1,0.2c0,0,0,0,0,0.1v0.1
		c0,0,0,0.1-0.1,0.1S42.3,42,42.3,42s0,0.1,0,0.2c0,0.2,0,0.2-0.1,0.3v0.1c-0.1,0.1-0.1,0.2-0.1,0.5C42,43.2,42,43.2,42,43.2
		s0,0.1,0,0.2c0,0.1,0,0.1-0.1,0.2c-0.1,0.1-0.1,0.1-0.1,0.2v0.1c0,0.1,0,0.1,0,0.1s0,0.1-0.1,0.1l-0.1,0.1c0,0,0,0.1,0,0.2
		c0,0.1,0,0.2,0,0.2l-0.1,0.3c0,0,0,0.1,0,0.2v0.1l-0.1,0.3c-0.1,0-0.1,0.1-0.1,0.3s-0.1,0.2-0.1,0.3s0,0.1,0,0.1
		c-0.1,0.2-0.2,0.3-0.1,0.4c0,0-0.1,0.1-0.1,0.2c0,0.1-0.1,0.2-0.1,0.2l-0.1,0.3v0.1v0.1c0,0,0,0,0,0.1v0.1c0,0,0,0,0,0.1v0.1V48
		c-0.1,0.2-0.1,0.4-0.1,0.5s0,0.1-0.1,0.2c-0.1,0.1-0.1,0.2-0.1,0.2V49v0.1c0,0,0,0.1,0,0.2c0,0.1,0,0.2,0,0.2s-0.1,0-0.1,0.1
		c0,0-0.1,0.1-0.1,0.2c0,0,0,0.1,0,0.2c0,0.1,0,0.2,0,0.2s-0.1,0.1-0.1,0.2c-0.1,0.1-0.2,0.3-0.1,0.4c-0.1,0-0.1,0.1-0.1,0.3
		s-0.1,0.2-0.1,0.3c0,0.3,0,0.5-0.1,0.6c0,0.1,0,0.2-0.1,0.3C39,52,39,52,39,52v0.1v0.1v0.1c0,0.2,0.2,0.2,0.4,0c0,0,0,0,0.1,0
		s0.2,0,0.2,0h0.1c0,0,0,0,0.1,0H40h0.1h0.1c0.4,0,0.7,0,0.8-0.1c0.2,0.1,0.3,0.1,0.6,0h0.1l0.1-0.1h0.1H42c0.3,0,0.4,0,0.5,0h0.1
		h0.1c0.1,0.1,0.3,0.2,0.5,0.1l0.1-0.1c0.1,0,0.2,0,0.4,0s0.3,0,0.4,0c0.1-0.1,0.1-0.1,0.1-0.1c0.1,0,0.1,0,0.1,0l0.1-0.1h0.1
		c0.1,0,0.1,0,0.1,0s0.1,0,0.2-0.1c0.1-0.1,0.1-0.1,0.1-0.1v-0.1c0-0.1,0-0.1,0-0.1s0,0,0-0.1v-0.1c0,0,0,0,0-0.1v-0.1
		c-0.1-0.3-0.1-0.6-0.1-0.8h-0.1v-0.1c0-0.1,0-0.2,0-0.3c0,0,0,0,0-0.1s0-0.1,0-0.1s0,0,0-0.1v-0.1c0,0,0-0.1,0-0.2
		c0-0.1,0-0.1-0.1-0.2c0-0.1-0.1-0.1-0.1-0.2c0,0,0-0.1,0-0.2c0-0.1,0-0.1,0-0.1s-0.1-0.1-0.1-0.2c0-0.1-0.1-0.2-0.1-0.3
		c-0.1,0-0.1-0.1-0.1-0.2c0-0.1,0-0.2,0-0.3s0-0.2-0.1-0.3S44,47.1,44,47v-0.3v-0.1v-0.1v-0.1v-0.1c0,0,0-0.1,0-0.2s0-0.2,0-0.2
		s0-0.1,0-0.2c0-0.1,0-0.2,0-0.3c0,0-0.1-0.2-0.2-0.4c-0.1-0.1-0.1-0.1-0.1-0.1s0-0.1,0-0.2c0,0,0-0.1-0.1-0.1l-0.1-0.1v-0.1v-0.1
		c0-0.2,0-0.2,0-0.3c0,0,0-0.1-0.1-0.1c-0.1-0.1-0.1-0.1-0.1-0.2v-0.1v-0.1c0,0,0-0.1-0.1-0.1v-0.1c0,0,0-0.1,0-0.2
		c0-0.1,0-0.2,0-0.2v-0.1l-0.1-0.1c0,0,0-0.1,0-0.2c0,0,0-0.1,0-0.3s0-0.2,0-0.3c-0.1,0-0.1-0.2-0.1-0.6
		C42.9,41.2,42.8,41.1,42.8,40.7L42.8,40.7z M42.7,40.8C42.6,40.9,42.6,40.9,42.7,40.8C42.6,40.9,42.6,40.9,42.7,40.8
		c-0.1,0.1-0.1,0.2-0.1,0.3c0,0.1,0,0.1,0,0.2c-0.1,0.1-0.1,0.1-0.1,0.2c0,0,0,0,0,0.1v0.1c0,0,0,0.1-0.1,0.1s-0.1,0.1-0.1,0.1
		s0,0.1,0,0.2c0,0.2,0,0.2-0.1,0.3v0.1c-0.1,0.1-0.1,0.2-0.1,0.5C42,43.1,42,43.1,42,43.1s0,0.1,0,0.2c0,0.1,0,0.1-0.1,0.2
		c-0.1,0.1-0.1,0.1-0.1,0.2v0.1c0,0.1,0,0.1,0,0.1s0,0.1-0.1,0.1l-0.1,0.1c0,0,0,0.1,0,0.2c0,0.1,0,0.2,0,0.2l-0.1,0.3
		c0,0,0,0.1,0,0.2v0.1l-0.1,0.3c-0.1,0-0.1,0.1-0.1,0.3s-0.1,0.2-0.1,0.3s0,0.1,0,0.1c-0.1,0.2-0.2,0.3-0.1,0.4c0,0-0.1,0.1-0.1,0.2
		c0,0.1-0.1,0.2-0.1,0.2l-0.1,0.3v0.1v0.1c0,0,0,0,0,0.1v0.1c0,0,0,0,0,0.1v0.1v0.1c-0.1,0.2-0.1,0.4-0.1,0.5s0,0.1-0.1,0.2
		c-0.1,0.1-0.1,0.2-0.1,0.2v0.1V49c0,0,0,0.1,0,0.2c0,0.1,0,0.2,0,0.2s-0.1,0-0.1,0.1l-0.1,0.1c0,0.1,0,0.1,0,0.3c0,0.1,0,0.2,0,0.2
		s-0.1,0.1-0.1,0.2c-0.1,0.1-0.2,0.3-0.1,0.4C40,50.7,40,50.8,40,51s-0.1,0.2-0.1,0.3c0,0.3,0,0.5-0.1,0.6c0,0.1,0,0.2-0.1,0.3
		C39,52,39,52,39,52v0.1v0.1v0.1c0,0.2,0.2,0.2,0.4,0c0,0,0.1,0,0.3,0h0.1c0,0,0,0,0.1,0H40h0.1h0.1c0.4,0,0.7,0,0.8-0.1
		c0.2,0.1,0.3,0.1,0.6,0h0.1l0.1-0.1h0.1H42c0.3,0,0.4,0,0.5,0h0.1h0.1c0.1,0.1,0.3,0.2,0.5,0.1l0.1-0.1c0.1,0,0.2,0,0.4,0
		s0.3,0,0.4,0c0.1-0.1,0.1-0.1,0.1-0.1c0.1,0,0.1,0,0.1,0l0.1-0.1h0.1c0.1,0,0.1,0,0.1,0s0.1,0,0.2-0.1c0.1-0.1,0.1-0.1,0.1-0.1
		v-0.1c0-0.1,0-0.1,0-0.1s0,0,0-0.1v-0.1c0,0,0,0,0-0.1v-0.1c-0.1-0.3-0.1-0.6-0.1-0.8h-0.1v-0.1c0-0.1,0-0.2,0-0.3c0,0,0,0,0-0.1
		s0-0.1,0-0.1s0,0,0-0.1v-0.1c0,0,0-0.1,0-0.2c0-0.1,0-0.1-0.1-0.2c0-0.1-0.1-0.1-0.1-0.2c0,0,0-0.1,0-0.2c0-0.1,0-0.1,0-0.1
		s-0.1-0.1-0.1-0.2c0-0.1-0.1-0.2-0.1-0.3c-0.1,0-0.1-0.1-0.1-0.2c0-0.1,0-0.2,0-0.3s0-0.2-0.1-0.3S44,47.1,44,47v-0.3v-0.1v-0.1
		v-0.1v-0.1c0,0,0-0.1,0-0.2s0-0.2,0-0.2s0-0.1,0-0.2c0-0.1,0-0.2,0-0.3c0,0-0.1-0.2-0.2-0.4c-0.1-0.1-0.1-0.1-0.1-0.1s0-0.1,0-0.2
		c0,0,0-0.1-0.1-0.1l-0.1-0.1v-0.1v-0.1c0-0.2,0-0.2,0-0.3c0,0,0-0.1-0.1-0.1c-0.1-0.1-0.1-0.1-0.1-0.2v-0.1v-0.1c0,0,0-0.1-0.1-0.1
		v-0.1c0,0,0-0.1,0-0.2c0-0.1,0-0.2,0-0.2v-0.1l-0.1-0.1c0,0,0-0.1,0-0.2c0,0,0-0.1,0-0.3s0-0.2,0-0.3c-0.1,0-0.1-0.2-0.1-0.6
		C42.9,41.3,42.8,41.1,42.7,40.8L42.7,40.8L42.7,40.8z M44.4,55.1C44.3,55.1,44.3,55.1,44.4,55.1C44.4,55,44.4,55,44.4,55.1z
		 M44.3,55C44.4,55,44.4,55,44.3,55C44.3,55.1,44.3,55.1,44.3,55z M44.8,36.4C44.8,36.4,44.9,36.4,44.8,36.4
		C44.9,36.4,44.9,36.5,44.8,36.4C44.9,36.5,44.8,36.5,44.8,36.4z M44.9,36.4L44.9,36.4C44.9,36.5,44.8,36.5,44.9,36.4
		C44.8,36.4,44.9,36.4,44.9,36.4z"/>
	<path fill="#2B5799" d="M68.6,43.2C68.6,43.2,68.6,43.1,68.6,43.2C68.6,43.1,68.6,43.1,68.6,43.2L68.6,43.2c0.2,0,0.3,0,0.3-0.1
		c0,0,0.1,0,0.1,0.1c0.1,0.1,0.1,0.1,0.2,0.1c0,0.1,0.1,0.1,0.3,0.1c0.1,0,0.2,0,0.2,0c0.1,0.1,0.1,0.2,0.1,0.2c0.1,0,0.2,0,0.3,0.1
		c0.1,0.1,0.2,0.1,0.2,0.1c0.1,0,0.2,0,0.2,0s0,0,0,0.1s0,0.1,0,0.1s0,0,0.1,0h0.1c0,0,0,0,0,0.1v0.1c0,0,0,0,0.1,0h0.1
		c0,0,0,0.1,0,0.2c0,0.1,0,0.2,0,0.2v0.1c0,0.1,0,0.1,0.1,0.2c0.1,0.1,0.1,0.2,0.1,0.2c0,0.1,0.1,0.1,0.3,0.1c0,0.2,0,0.4-0.2,0.4
		c0,0,0,0.1,0,0.2c0,0.1,0,0.1,0,0.2c-0.2,0.1-0.2,0.3-0.1,0.5v0.1c0,0,0,0.1,0,0.2c-0.1,0-0.2,0-0.2,0.1c0.1,0.2,0.1,0.4,0,0.5
		c-0.1,0-0.2,0.1-0.2,0.2c0,0.2-0.1,0.2-0.2,0.3c0,0,0,0.1,0,0.2c0,0.1,0,0.2,0,0.2c-0.1,0.1-0.2,0.2-0.3,0.5
		c-0.1,0.2-0.2,0.4-0.3,0.4v0.1H70c0,0.1,0,0.1-0.1,0.2c0.1-0.1,0.1-0.1,0.1,0l-0.1,0.1c-0.1,0-0.2,0-0.2,0.1s0,0.1,0,0.1
		c-0.2,0.2-0.3,0.5-0.3,0.8c-0.1,0-0.1,0.1-0.1,0.3c0,0.1-0.1,0.2-0.1,0.2s0,0.1,0,0.2c0,0,0,0.1,0,0.2c0,0.2,0,0.2-0.1,0.3
		c0,0.1,0,0.2-0.1,0.3c-0.1,0-0.1,0.1-0.1,0.1c0,0.1,0.1,0.1,0.1,0.1c0,0.1-0.1,0.2-0.3,0.3s-0.2,0.3-0.2,0.4v0.1v0.1h-0.1
		c-0.1,0.1-0.2,0.2-0.1,0.5h-0.1l-0.1,0.1c0,0,0,0,0,0.1V54c0,0,0,0,0,0.1L68,54.2v0.1c0,0.1,0,0.1,0,0.1s0,0.1-0.1,0.2
		c-0.1,0.1-0.1,0.1-0.1,0.2v0.1c0,0.1,0,0.1,0,0.1s0,0,0,0.1v0.1v0.1c0,0.1,0,0.1,0,0.1v0.1c0,0.1,0,0.1,0,0.1
		c-0.1,0-0.2,0.1-0.2,0.2c0,0.1,0,0.1,0,0.1s0,0.1-0.1,0.1v0.1c0,0,0,0.1,0,0.2c0,0.2,0,0.2-0.1,0.3c0,0.2,0,0.4-0.1,0.6
		c-0.1,0.2-0.2,0.4-0.2,0.6c0,0,0,0.1-0.1,0.1c0,0.1,0,0.2,0,0.3c-0.1,0.1-0.1,0.1-0.1,0.2v0.1v0.1v0.3c-0.2,0-0.2,0.2-0.1,0.5
		c-0.2,0.1-0.2,0.2-0.1,0.5L66,60.1c0,0.1,0,0.1,0,0.2c0.1,0.1,0.1,0.2,0,0.2c0,0,0,0,0-0.1c-0.1,0-0.1,0.1-0.1,0.2
		c0,0.1,0,0.2,0,0.3c-0.1,0-0.2,0-0.2,0.1c0,0.3,0.1,0.4,0.2,0.4c0,0.1,0,0.2,0,0.2h-0.1l0,0c0,0,0,0,0.1,0s0.1,0,0.1,0v0.1
		c0,0.1,0,0.1,0,0.1c-0.1,0-0.2,0-0.2,0s-0.1,0-0.2,0.1c0,0.1,0,0.1,0,0.1v0.1h-0.1h-0.1c0,0.1-0.1,0.2-0.2,0.3h-0.1
		c-0.1,0-0.2,0.1-0.1,0.2h-0.1c-0.2,0.1-0.2,0.1-0.2,0.2l0,0c-0.1,0-0.1-0.1-0.1-0.2h-0.1v0.1c-0.2,0.1-0.3,0-0.4,0c0,0-0.1,0-0.2,0
		c-0.1,0-0.1,0-0.2,0c-0.1,0.1-0.2,0.1-0.2,0.1c0-0.1-0.1-0.2-0.1-0.3s-0.1-0.1-0.3-0.1c-0.1-0.1-0.1-0.1-0.2-0.1
		c0-0.2,0-0.3-0.2-0.5v-0.1c-0.2-0.2-0.3-0.3-0.4-0.4h-0.1H62c0-0.3,0-0.5-0.2-0.7h-0.1c0,0,0,0-0.1,0c0,0-0.1-0.1-0.1-0.2
		c0-0.1,0-0.2-0.1-0.2h-0.1c0-0.1,0-0.1-0.1-0.2c-0.1-0.1-0.1-0.2-0.1-0.3c-0.2-0.1-0.3-0.2-0.5-0.4c0-0.2-0.1-0.3-0.3-0.4
		c-0.1-0.1-0.1-0.1-0.1-0.2c0-0.1,0-0.2-0.1-0.2c-0.1,0.1-0.2,0.1-0.3,0c0-0.2,0-0.3-0.1-0.4c0-0.1,0-0.2-0.1-0.4
		c-0.1,0-0.1,0-0.2,0l-0.1,0.1l0,0v-0.1v-0.1c0,0,0-0.1-0.1-0.3c0-0.1-0.1-0.2-0.3-0.2V57c0-0.1,0-0.1,0-0.1s0,0-0.1-0.1
		c-0.1,0-0.1-0.1-0.1-0.2c-0.2-0.4-0.4-0.7-0.7-0.9V56c-0.2-0.1-0.3-0.2-0.3-0.2c0-0.2-0.1-0.4-0.2-0.5v-0.1
		c-0.2-0.2-0.4-0.3-0.5-0.3c0,0,0-0.1,0-0.2c0-0.2,0-0.3-0.1-0.3h-0.1h-0.1c0,0,0-0.1,0-0.2c0-0.1,0-0.1,0-0.2
		c-0.1-0.1-0.2-0.2-0.2-0.2h-0.1c0-0.1,0-0.2,0-0.3v-0.1l0,0v-0.1c0,0,0,0,0-0.1c0,0-0.1,0-0.2,0c-0.1,0-0.1,0-0.2,0
		c0-0.2,0-0.2,0-0.3s0,0,0,0h-0.1c0-0.1,0-0.2,0-0.3h-0.1v-0.1c0-0.1,0-0.1,0-0.1s0,0-0.1,0c-0.1-0.1-0.1-0.1,0-0.2
		c0.1-0.1,0.1-0.2,0.1-0.2s-0.1-0.1-0.2-0.2c-0.1-0.1-0.2-0.1-0.2-0.2v-0.1c0,0,0-0.1-0.1-0.1l-0.1-0.1c0-0.1,0-0.1-0.1-0.2
		c0-0.1-0.1-0.1-0.1-0.2c-0.1-0.1-0.2-0.3-0.3-0.6c0,0-0.1-0.1-0.2-0.1c0,0,0-0.1,0.1-0.1c0,0-0.1-0.1-0.1-0.3s-0.1-0.3-0.1-0.4
		c0,0-0.1,0-0.3,0c0.1-0.2,0.1-0.3,0-0.4c0,0,0-0.1-0.1-0.1c0-0.2-0.1-0.3-0.2-0.4c0-0.1,0-0.1-0.1-0.2c-0.1-0.1-0.1-0.2-0.1-0.3
		c0,0,0-0.1-0.1-0.1s-0.1,0-0.1,0v-0.1c0-0.1,0-0.1,0-0.1s0-0.1-0.1-0.1l-0.1-0.1c0,0,0-0.1,0-0.2c0-0.1,0-0.2,0-0.2h-0.1H53V47
		c0-0.1,0-0.1,0-0.1s0,0-0.1,0c0-0.1,0-0.2,0-0.4c0,0,0,0,0.1,0h0.1c0,0,0-0.1,0-0.2c0,0,0.1-0.1,0.1-0.2c0-0.1,0.1-0.1,0.1-0.2h0.1
		c0.1,0,0.2-0.1,0.2-0.2c0,0,0.1-0.1,0.1-0.2c0.1-0.1,0.1-0.1,0.2-0.1c0-0.1,0-0.2,0.1-0.3c0.1,0,0.1,0,0.2,0c0.2,0,0.3,0.1,0.3,0.2
		H55l0,0c0.1,0.1,0.2,0.1,0.2,0.1c0.1,0.1,0.2,0.2,0.3,0.4c0.2,0.1,0.2,0.2,0.3,0.3c0.1,0,0.2,0,0.3,0.1c-0.1,0.1,0,0.2,0.2,0.2
		c0.1,0.2,0,0.3-0.1,0.4c0,0,0.1,0.1,0.2,0.2c0,0.2,0.1,0.4,0.3,0.6c-0.1,0.2,0,0.3,0.1,0.3c0,0.1,0,0.2,0,0.3s0.1,0.2,0.1,0.3
		c0,0,0,0.1,0.1,0.1l0.1,0.1c0,0.1,0,0.2,0,0.2l0.1,0.1c0.1,0.1,0.1,0.1,0.1,0.1c0.1,0,0.1,0,0.1,0v0.1c0,0,0,0,0,0.1
		c0,0,0,0.1,0,0.2c0,0.1,0,0.1,0,0.2v0.1h0.1l0.3,0.3v0.1v0.1c0,0,0,0.1,0.1,0.1c0.1,0.1,0.1,0.1,0,0.2c0.1,0.1,0.2,0.1,0.2,0.1
		s0.1,0.3,0.3,0.7c0,0,0,0.1,0.1,0.1c0,0.1,0,0.1,0.1,0.2c0,0.1,0.1,0.1,0.1,0.2c0,0.1,0.1,0.1,0.1,0.1c0.2,0.3,0.3,0.5,0.3,0.5
		c0,0.1,0,0.1,0.1,0.2c0,0.1,0.1,0.1,0.1,0.2c0.1,0.1,0.2,0.2,0.2,0.3s0,0.2,0.1,0.3c0.1,0,0.2,0.1,0.3,0.1c0.1,0.1,0,0.2,0,0.3H60
		h0.1V54c0,0.1,0,0.1,0,0.2h0.1c0,0,0.1,0,0.2,0c0.1,0.4,0.2,0.6,0.2,0.6v0.1c0.2,0.2,0.2,0.2,0.2,0.3v-0.1c0,0,0.1,0,0.1,0.1
		s0,0.1,0.1,0.1c0,0.1,0,0.1,0.1,0.2c0.1,0.1,0.1,0.1,0.1,0.2h0.1c0,0.2,0.1,0.2,0.3,0.2c0,0.1,0,0.1,0,0.1s0,0,0.1,0.1
		c0,0.2,0,0.3,0,0.3c0.2,0.1,0.3,0.1,0.3,0.1s0,0.1,0,0.2c0,0.1,0.1,0.2,0.1,0.2h0.1c0,0,0,0,0.1,0c0,0.3,0.2,0.6,0.4,0.8
		c0.1,0,0.2,0,0.2,0v-0.2c0-0.1,0.1-0.2,0.3-0.4V57c0.1-0.1,0.2-0.2,0.1-0.4l0.1-0.1c0,0,0-0.1,0.1-0.1s0.1-0.1,0.1-0.1v-0.1
		c0,0,0-0.1,0.1-0.2c0.1-0.1,0.1-0.2,0-0.3v-0.1c0-0.1,0-0.2,0-0.3c0.2,0,0.3,0,0.2-0.2C64,55,64,55,64,55c0-0.1,0-0.2,0-0.3
		c0.1-0.1,0.1-0.2,0.1-0.2c0.1,0,0.1-0.1,0.1-0.1c0-0.1,0-0.2,0.1-0.3c0.1-0.2,0.1-0.3,0-0.4c0.1-0.1,0.1-0.2,0.1-0.3v-0.1v-0.1
		c0,0,0.1-0.1,0.2-0.1c0-0.1,0.1-0.2,0.2-0.3c0-0.2,0.1-0.3,0.1-0.3v-0.1c0-0.1,0-0.1,0-0.1H65c0,0,0,0,0.1,0c0,0,0-0.1,0.1-0.2
		c0-0.1,0.1-0.1,0.1-0.2c0-0.1,0-0.1,0-0.2c0-0.1,0-0.2,0-0.3v-0.1c0-0.1,0-0.1,0-0.1c0.1-0.3,0.2-0.5,0.2-0.6h0.1
		c0-0.1,0.1-0.2,0.2-0.3c0.2-0.1,0.2-0.3,0.1-0.4c0-0.1,0.1-0.2,0.1-0.3c0.1-0.1,0.1-0.2,0.1-0.3c0,0,0.1-0.1,0.2-0.1
		c0,0,0-0.2,0-0.5v-0.1v-0.1v-0.1v-0.1c0,0,0.1-0.1,0.2-0.2l0,0l0,0c0,0,0-0.1,0-0.2c0-0.1,0-0.2,0-0.2c-0.1-0.1-0.1-0.2-0.1-0.2
		c0.2-0.1,0.3-0.1,0.4-0.2c0,0,0-0.1,0-0.2c0-0.1,0-0.2,0-0.2s0-0.1,0.1-0.1c0,0,0-0.1-0.1-0.1l-0.1-0.1c0,0,0.1-0.1,0.2-0.2
		c0-0.1,0-0.2,0-0.5c0-0.2,0-0.4,0-0.5l0.1-0.1l0.1-0.1L67,45.1c-0.1-0.1-0.1-0.2,0-0.3s0.1-0.2,0.1-0.2v-0.2
		c-0.1-0.1-0.1-0.2,0-0.3h0.3C68.2,43.6,68.3,43.4,68.6,43.2C68.6,43.3,68.6,43.2,68.6,43.2z M68.9,43.1
		C68.9,43.1,69,43.1,68.9,43.1c0.2,0.2,0.2,0.2,0.3,0.2c0,0.1,0.1,0.1,0.3,0.1c0.1,0,0.2,0,0.2,0c0.1,0.1,0.1,0.2,0.1,0.2
		c0.1,0,0.2,0,0.3,0.1c0.1,0.1,0.2,0.1,0.2,0.1c0.1,0,0.2,0,0.2,0s0,0,0,0.1s0,0.1,0,0.1s0,0,0.1,0h0.1v0.1h0.1h0.1c0,0,0,0.1,0,0.2
		c0,0.1,0,0.2,0,0.2v0.1c0,0.1,0,0.1,0.1,0.2c0.1,0.1,0.1,0.2,0.1,0.2c0,0.1,0.1,0.1,0.3,0.1c0,0.2,0,0.4-0.2,0.4c0,0,0,0.1,0,0.2
		c0,0.1,0,0.1,0,0.2C71,46,71,46.2,71.1,46.4v0.1c0,0,0,0.1,0,0.2c-0.1,0-0.2,0-0.2,0.1c0.1,0.2,0.1,0.4,0,0.5
		c-0.1,0-0.2,0.1-0.2,0.2c0,0.2-0.1,0.2-0.2,0.3c0,0,0,0.1,0,0.2c0,0.1,0,0.2,0,0.2c-0.1,0.1-0.2,0.2-0.3,0.5
		c-0.1,0.2-0.2,0.4-0.3,0.4v0.1H70c0,0.1,0,0.1-0.1,0.2c0.1,0,0.1,0,0.1,0.1l-0.1,0.1c-0.1,0-0.2,0-0.2,0.1s0,0.1,0,0.1
		c-0.2,0.2-0.3,0.5-0.3,0.8c-0.1,0-0.1,0.1-0.1,0.3c0,0.1-0.1,0.2-0.1,0.2s0,0.1,0,0.2c0,0,0,0.1,0,0.2c0,0.2,0,0.2-0.1,0.3
		c0,0.1,0,0.2-0.1,0.3c-0.1,0-0.1,0.1-0.1,0.1c0,0.1,0.1,0.1,0.1,0.1c0,0.1-0.1,0.2-0.3,0.3s-0.2,0.3-0.2,0.4v0.1v0.1h-0.1
		c-0.1,0.1-0.2,0.2-0.1,0.5h-0.1l-0.1,0.1c0,0,0,0,0,0.1V54c0,0,0,0,0,0.1L68,54.2v0.1c0,0.1,0,0.1,0,0.1s0,0.1-0.1,0.2
		c-0.1,0.1-0.1,0.1-0.1,0.2v0.1c0,0.1,0,0.1,0,0.1s0,0,0,0.1v0.1v0.1c0,0.1,0,0.1,0,0.1v0.1c0,0.1,0,0.1,0,0.1
		c-0.1,0-0.2,0.1-0.2,0.2c0,0.1,0,0.1,0,0.1s0,0.1-0.1,0.1v0.1c0,0,0,0.1,0,0.2c0,0.2,0,0.2-0.1,0.3c0,0.2,0,0.4-0.1,0.6
		c-0.1,0.2-0.2,0.4-0.2,0.6c0,0,0,0.1-0.1,0.1c0,0.1,0,0.2,0,0.3c-0.1,0.1-0.1,0.1-0.1,0.2v0.1v0.1v0.3c-0.2,0-0.2,0.2-0.1,0.5
		c-0.2,0.1-0.2,0.2-0.1,0.5L66,60.1c0,0.1,0,0.1,0,0.2c0.1,0.1,0.1,0.2,0,0.2c0,0,0,0,0-0.1c-0.1,0-0.1,0.1-0.1,0.2
		c0,0.1,0,0.2,0,0.3c-0.1,0-0.2,0-0.2,0.1c0,0.3,0.1,0.4,0.2,0.4c0,0.1,0,0.2,0,0.2h-0.1l0,0c0,0,0,0,0.1,0s0.1,0,0.1,0v0.1
		c0,0.1,0,0.1,0,0.1c-0.1,0-0.2,0-0.2,0s-0.1,0-0.2,0.1c0,0.1,0,0.1,0,0.1v0.1h-0.1h-0.1c0,0.1-0.1,0.2-0.2,0.3h-0.1
		c-0.1,0-0.2,0.1-0.1,0.2h-0.1c-0.2,0.1-0.2,0.1-0.2,0.2l0,0c-0.1,0-0.1-0.1-0.1-0.2h-0.1v0.1c-0.2,0.1-0.3,0-0.4,0c0,0-0.1,0-0.2,0
		c-0.1,0-0.1,0-0.2,0c-0.1,0.1-0.2,0.1-0.2,0.1c0-0.1-0.1-0.2-0.1-0.3s-0.1-0.1-0.3-0.1c-0.1-0.1-0.1-0.1-0.2-0.1
		c0-0.2,0-0.3-0.2-0.5v-0.1c-0.2-0.2-0.3-0.3-0.4-0.4h-0.1H62c0-0.3,0-0.5-0.2-0.7h-0.1c0,0,0,0-0.1,0c0,0-0.1-0.1-0.1-0.2
		c0-0.1,0-0.2-0.1-0.2h-0.1c0-0.1,0-0.1-0.1-0.2c-0.1-0.1-0.1-0.2-0.1-0.3c-0.2-0.1-0.3-0.2-0.5-0.4c0-0.2-0.1-0.3-0.3-0.4
		c-0.1-0.1-0.1-0.1-0.1-0.2c0-0.1,0-0.2-0.1-0.2H60c0,0-0.1,0-0.2,0c0-0.2,0-0.3-0.1-0.4c0-0.1,0-0.2-0.1-0.4c-0.1,0-0.1,0-0.2,0
		l-0.1,0.1l0,0v-0.1v-0.1c0,0,0-0.1-0.1-0.3c0-0.1-0.1-0.2-0.3-0.2V57c0-0.1,0-0.1,0-0.1s0,0-0.1-0.1c-0.1,0-0.1-0.1-0.1-0.2
		c-0.2-0.4-0.4-0.7-0.7-0.9V56c-0.2-0.1-0.3-0.2-0.3-0.2c0-0.2-0.1-0.4-0.2-0.5v-0.1c-0.2-0.2-0.4-0.3-0.5-0.3c0,0,0-0.1,0-0.2
		c0-0.2,0-0.3-0.1-0.3h-0.1h-0.1c0,0,0-0.1,0-0.2c0-0.1,0-0.1,0-0.2c-0.1-0.1-0.2-0.2-0.2-0.2h-0.1c0-0.1,0-0.2,0-0.3v-0.1l0,0v-0.1
		c0,0,0,0,0-0.1c0,0-0.1,0-0.2,0c-0.1,0-0.1,0-0.2,0c0-0.2,0-0.2,0-0.3s0,0,0,0h-0.1c0-0.1,0-0.2,0-0.3h-0.1v-0.1c0-0.1,0-0.1,0-0.1
		s0,0-0.1,0c-0.1-0.1-0.1-0.1,0-0.2c0.1-0.1,0.1-0.2,0.1-0.2s-0.1-0.1-0.2-0.2c-0.1-0.1-0.2-0.1-0.2-0.2v-0.1c0,0,0-0.1-0.1-0.1
		l-0.1-0.1c0-0.1,0-0.1-0.1-0.2c0-0.1-0.1-0.1-0.1-0.2c-0.1-0.1-0.2-0.3-0.3-0.6c0,0-0.1-0.1-0.2-0.1v-0.1c0,0,0,0,0.1,0
		c0,0-0.1-0.1-0.1-0.3s-0.1-0.3-0.1-0.4c0,0-0.1,0-0.3,0c0.1-0.2,0.1-0.3,0-0.4c0,0,0-0.1-0.1-0.1c0-0.2-0.1-0.3-0.2-0.4
		c0-0.1,0-0.1-0.1-0.2c-0.1-0.1-0.1-0.2-0.1-0.3c0,0,0-0.1-0.1-0.1s-0.1,0-0.1,0v-0.1c0-0.1,0-0.1,0-0.1s0-0.1-0.1-0.1l-0.1-0.1
		c0,0,0-0.1,0-0.2c0-0.1,0-0.2,0-0.2h-0.1H53V47c0-0.1,0-0.1,0-0.1s0,0-0.1,0c0-0.1,0-0.2,0-0.4c0,0,0,0,0.1,0h0.1c0,0,0-0.1,0-0.2
		c0,0,0.1-0.1,0.1-0.2c0-0.1,0.1-0.1,0.1-0.2h0.1c0.1,0,0.2-0.1,0.2-0.2c0,0,0.1-0.1,0.1-0.2c0.1-0.1,0.1-0.1,0.2-0.1
		c0-0.1,0-0.2,0.1-0.3c0.1,0,0.1,0,0.2,0c0.2,0,0.3,0.1,0.3,0.2H55l0,0c0.1,0.1,0.2,0.1,0.2,0.1c0.1,0.1,0.2,0.2,0.3,0.4
		c0.2,0.1,0.2,0.2,0.3,0.3c0.1,0,0.2,0,0.3,0.1c-0.1,0.1,0,0.2,0.2,0.2c0.1,0.2,0,0.3-0.1,0.4c0,0,0.1,0.1,0.2,0.2
		c0,0.2,0.1,0.4,0.3,0.6c-0.1,0.2,0,0.3,0.1,0.3c0,0.1,0,0.2,0,0.3s0.1,0.2,0.1,0.3c0,0,0,0.1,0.1,0.1l0.1,0.1c0,0.1,0,0.2,0,0.2
		l0.1,0.1c0.1,0.1,0.1,0.1,0.1,0.1c0.1,0,0.1,0,0.1,0v0.1c0,0,0,0,0,0.1c0,0,0,0.1,0,0.2c0,0.1,0,0.1,0,0.2v0.1h0.1l0.3,0.3v0.1v0.1
		c0,0,0,0.1,0.1,0.1c0.1,0.1,0.1,0.1,0,0.2c0.1,0.1,0.2,0.1,0.2,0.1s0.1,0.3,0.3,0.7c0,0,0,0.1,0.1,0.1c0,0.1,0,0.1,0.1,0.2
		c0,0.1,0.1,0.1,0.1,0.2c0,0.1,0.1,0.1,0.1,0.1c0.2,0.3,0.3,0.5,0.3,0.5c0,0.1,0,0.1,0.1,0.2c0,0.1,0.1,0.1,0.1,0.2
		c0.1,0.1,0.2,0.2,0.2,0.3s0,0.2,0.1,0.3c0.1,0,0.2,0.1,0.3,0.1c0.1,0.1,0,0.2,0,0.3H60h0.1V54c0,0.1,0,0.1,0,0.2h0.1
		c0,0,0.1,0,0.2,0c0.1,0.4,0.2,0.6,0.2,0.6v0.1c0.2,0.2,0.2,0.2,0.2,0.3v-0.1c0,0,0.1,0,0.1,0.1s0,0.1,0.1,0.1c0,0.1,0,0.1,0.1,0.2
		c0.1,0.1,0.1,0.1,0.1,0.2h0.1c0,0.2,0.1,0.2,0.3,0.2c0,0.1,0,0.1,0,0.1s0,0,0.1,0.1c0,0.2,0,0.3,0,0.3c0.2,0.1,0.3,0.1,0.3,0.1
		s0,0.1,0,0.2c0,0.1,0.1,0.2,0.1,0.2h0.1c0,0,0,0,0.1,0c0,0.3,0.2,0.6,0.4,0.8c0.1,0,0.2,0,0.2,0v-0.2c0-0.1,0.1-0.2,0.3-0.4V57
		c0.1-0.1,0.2-0.2,0.1-0.4l0.1-0.1c0,0,0-0.1,0.1-0.1s0.1-0.1,0.1-0.1v-0.1c0,0,0-0.1,0.1-0.2c0.1-0.1,0.1-0.2,0-0.3v-0.1
		c0-0.1,0-0.2,0-0.3c0.2,0,0.3,0,0.2-0.2C64,55,64,55,64,55c0-0.1,0-0.2,0-0.3c0.1-0.1,0.1-0.2,0.1-0.2c0.1,0,0.1-0.1,0.1-0.1
		c0-0.1,0-0.2,0.1-0.3c0.1-0.2,0.1-0.3,0-0.4c0.1-0.1,0.1-0.2,0.1-0.3v-0.1v-0.1c0,0,0.1-0.1,0.2-0.1c0-0.1,0.1-0.2,0.2-0.3
		c0-0.2,0.1-0.3,0.1-0.3v-0.1c0-0.1,0-0.1,0-0.1H65c0,0,0,0,0.1,0c0,0,0-0.1,0.1-0.2c0-0.1,0.1-0.1,0.1-0.2c0-0.1,0-0.1,0-0.2
		c0-0.1,0-0.2,0-0.3v-0.1c0-0.1,0-0.1,0-0.1c0.1-0.3,0.2-0.5,0.2-0.6h0.1c0-0.1,0.1-0.2,0.2-0.3c0.2-0.1,0.2-0.3,0.1-0.4
		c0-0.1,0.1-0.2,0.1-0.3c0.1-0.1,0.1-0.2,0.1-0.3c0,0,0.1-0.1,0.2-0.1c0,0,0-0.2,0-0.5v-0.1v-0.1v-0.1v-0.1c0,0,0.1-0.1,0.2-0.2l0,0
		l0,0c0,0,0-0.1,0-0.2c0-0.1,0-0.2,0-0.2c-0.1-0.1-0.1-0.2-0.1-0.2c0.2-0.1,0.3-0.1,0.4-0.2c0,0,0-0.1,0-0.2c0-0.1,0-0.2,0-0.2
		s0-0.1,0.1-0.1c0,0,0-0.1-0.1-0.1l-0.1-0.1c0,0,0.1-0.1,0.2-0.2c0-0.1,0-0.2,0-0.5c0-0.2,0-0.4,0-0.5l0.1-0.1l0.1-0.1L67,45.1
		c-0.1-0.1-0.1-0.2,0-0.3s0.1-0.2,0.1-0.2v-0.2c-0.1-0.1-0.1-0.2,0-0.3h0.3c0-0.2,0.1-0.4,0.4-0.5v-0.1l0,0h0.1
		C68.8,43.2,68.9,43.1,68.9,43.1z M58.7,50.7L58.7,50.7L58.7,50.7C58.7,50.8,58.7,50.8,58.7,50.7C58.7,50.8,58.7,50.7,58.7,50.7z
		 M58.7,50.7L58.7,50.7C58.7,50.8,58.7,50.8,58.7,50.7L58.7,50.7z M63.3,57.1C63.3,57.1,63.4,57.1,63.3,57.1
		C63.4,57.2,63.3,57.2,63.3,57.1L63.3,57.1z M63.3,57.2L63.3,57.2C63.3,57.1,63.4,57.1,63.3,57.2C63.4,57.2,63.3,57.2,63.3,57.2z"/>
	<path fill="#2B5799" d="M81.9,39.9c0.6,0.1,0.9,0,0.9-0.2c0,0,0.2,0,0.4,0v0.1c0,0,0,0,0,0.1c0,0,0.1,0,0.2,0s0.2,0,0.2,0.1
		c0.1,0,0.3,0,0.5,0.1c0.5,0,0.8,0.1,1,0.3h0.1c0.1,0.1,0.2,0.1,0.3,0.3c0.2,0.1,0.3,0.2,0.3,0.2V41c0.2,0.1,0.3,0.4,0.5,0.8
		l0.1,0.1c0.1,0.2,0,0.3,0,0.4c0,0.1,0,0.2,0,0.3c-0.1,0.1-0.1,0.2-0.1,0.2c-0.1,0.1-0.1,0.1-0.1,0.1c0,0.1,0,0.2-0.1,0.3
		c0,0.1,0,0.1,0,0.2S86,43.5,86,43.5h-0.1c0,0,0,0-0.1,0c0,0,0,0.1-0.1,0.1s-0.1,0.1-0.2,0l-0.1,0.1l-0.1,0.1c-0.2,0-0.2,0-0.3,0
		c0,0.1,0,0.1,0,0.1s-0.1,0-0.2,0s-0.2,0-0.2,0h-0.1h-0.1c0,0,0-0.1,0.1-0.1c0,0-0.1-0.1-0.1-0.2c0-0.1-0.1-0.1-0.1-0.2l-0.1,0.1
		h-0.1c0-0.1,0-0.1-0.1-0.2c-0.1-0.1-0.1-0.1-0.2-0.1v0.1v0.1l-0.1-0.1l-0.1-0.1c0,0-0.1,0-0.1-0.1c0-0.2-0.2-0.3-0.6-0.3
		c-0.1,0-0.1,0-0.2,0.1c-0.1,0-0.1,0-0.2,0s-0.2,0-0.2,0L82.2,43c-0.1,0-0.2,0-0.5,0c-0.3,0.1-0.5,0.1-0.5,0.2
		c-0.2-0.1-0.3-0.1-0.4,0c-0.1,0-0.2,0-0.3,0c-0.1,0-0.2,0-0.3,0v0.1c-0.2,0-0.2,0-0.3,0c-0.1-0.1-0.2-0.1-0.3,0c0,0-0.1,0-0.1,0.1
		l-0.1,0.1c-0.1,0-0.1,0-0.2,0s-0.2,0-0.2,0l-0.1,0.1h-0.1c-0.1,0-0.1,0-0.1,0v0.1c-0.3,0-0.5,0-0.6,0v0.1c0,0,0,0,0,0.1
		c-0.3-0.2-0.5-0.1-0.7,0.2c0,0-0.1,0-0.1-0.1c-0.1,0-0.1,0.1,0,0.2c0,0.1,0.1,0.1,0.1,0.1s0,0.1,0,0.2v0.1c0,0.1,0,0.1,0,0.1
		c0,0.2,0,0.2,0.1,0.2c0,0.1,0,0.2,0.1,0.4s0.1,0.3,0,0.3c0,0.1,0,0.2,0.1,0.3V46c0,0,0,0,0,0.1s0,0.1,0,0.2c0,0.1,0.1,0.1,0.1,0.1
		c0,0.7,0,1.1,0,1.1c-0.1,0.2-0.1,0.4,0,0.6c0,0,0,0.1,0,0.3c0,0,0,0.1-0.1,0.1c0,0.1-0.1,0.1,0,0.2c0.1,0.1,0.1,0.1,0.1,0.1v0.1V49
		c0,0.1,0,0.3,0,0.5c0,0.3,0,0.5,0,0.5s0,0.1,0,0.2c0,0.1,0.1,0.2,0.2,0.1c0.1,0,0.2-0.1,0.3-0.1c0.3,0,0.5,0,0.6-0.1
		c0.4,0,0.6,0,0.6,0c0.2,0,0.3,0,0.4,0c0,0,0.1,0,0.2-0.1c0.1,0,0.1-0.1,0.2-0.1s0.1,0,0.2,0c0.2,0,0.3,0,0.3-0.1
		c0.2,0.1,0.4,0,0.5,0h0.1h0.1c0,0,0.1,0,0.2,0s0.1,0,0.2,0s0.3,0,0.5,0v-0.1c0.1,0.1,0.3,0.1,0.5,0c0.2,0,0.3-0.1,0.4-0.1
		s0.1,0,0.2,0s0.1-0.1,0.1-0.1h0.1c0,0,0,0,0.1,0.1c0,0,0.1,0,0.2-0.1s0.2-0.1,0.3-0.1c0.1-0.1,0.1-0.1,0.1-0.1s0.1,0,0.1,0.1
		c0.3,0,0.4,0,0.5-0.1c0.1,0,0.1,0,0.2,0s0.2,0,0.2,0s0.1,0,0.2,0.1c0.1,0,0.2,0.1,0.2,0.1c0.2,0,0.2,0.1,0.3,0.2c0.1,0,0.1,0,0.2,0
		h0.1c0,0,0,0.1,0.1,0.1c0.2,0,0.4,0,0.4,0s0,0.1,0.1,0.2v0.1c0,0.1,0.1,0.2,0.2,0.3c0,0.2,0.1,0.3,0.2,0.4c0,0,0,0.1-0.1,0.1
		c0,0.1,0,0.2-0.1,0.3s-0.1,0.2-0.1,0.3H87v0.1c0,0,0,0,0,0.1h-0.1l0,0h-0.1l-0.1-0.1h-0.1c0,0-0.1,0-0.1,0.1h-0.1
		c0,0.1-0.2,0.1-0.4,0.2c-0.2,0.1-0.3,0.2-0.3,0.3c-0.2,0-0.5,0-0.6,0.2H85l-0.1,0.1c0,0,0,0,0,0.1c-0.1,0-0.2,0-0.2-0.1h-0.1v0.1
		c-0.1,0-0.2,0-0.3,0s-0.2,0-0.3,0c0,0-0.1,0-0.1,0.1l-0.1,0.1c-0.1,0-0.2,0-0.3,0c-0.1,0-0.1,0.1-0.1,0.2c-0.6,0-0.6,0-0.8,0
		c-0.1,0-0.2,0-0.3,0.1v0.1c-0.1,0-0.1,0-0.2,0c-0.1-0.1-0.2,0-0.2,0s-0.1,0-0.2,0v0.2c-0.1,0-0.2,0-0.3,0c-0.1,0-0.1,0-0.2,0
		s-0.1,0.1,0,0.2L81,53.5c0,0-0.2,0-0.5,0l-0.1,0.1l-0.1,0.1c-0.2,0-0.4,0-0.4,0l-0.1,0.2c-0.3,0-0.5,0-0.5,0
		c-0.1,0-0.2,0.1-0.3,0.1c0,0,0,0,0,0.1c-0.2,0.1-0.4,0.1-0.5,0c0,0-0.1,0-0.1,0.1S78.1,54,78.1,54S78,54,78,53.9l-0.1-0.1
		c-0.1,0-0.1,0-0.2,0.1c-0.1,0-0.2,0-0.2,0c-0.1,0-0.1,0.2,0,0.5v0.1v0.1c0,0.1,0.1,0.1,0.2,0.1c0.1,0.1,0,0.2-0.1,0.3
		c0,0,0,0.1,0,0.2c0,0.1,0,0.2,0.1,0.2v0.1c0,0,0,0,0,0.1c0,0,0,0.1-0.1,0.3c0.1,0.1,0.1,0.3,0.1,0.5s0,0.5,0.1,0.6
		c-0.2,0.2-0.1,0.4,0,0.5c0,0.1,0,0.2,0,0.3v0.1V58c0.1,0.2,0.1,0.4,0.1,0.5c0.1,0.1,0.1,0.2,0.2,0.3c0.1,0.2,0.1,0.3,0.1,0.3
		c0.1,0,0.2,0,0.4,0.1c0.2,0,0.3,0,0.4,0c0,0,0.1,0,0.1-0.1c0.1,0,0.1,0,0.1,0.1c0.5,0,0.7-0.1,0.8-0.1c0.1,0,0.2,0,0.3,0
		c0.2,0,0.3,0,0.4,0c0.1-0.1,0.3-0.2,0.7-0.2c0,0,0,0,0-0.1s0-0.1,0-0.1c0.1,0,0.1,0,0.2,0s0.2,0,0.2,0s0.1-0.1,0.2-0.1
		s0.2-0.1,0.2-0.1c0.2,0,0.4,0,0.6-0.2c0.2-0.1,0.4-0.2,0.5-0.2c0-0.1,0.1-0.1,0.1-0.1c0.2,0.1,0.3,0,0.4,0c0.2,0,0.4-0.1,0.6-0.3
		c0.2,0,0.2,0,0.3,0c0.1-0.1,0.2-0.1,0.3-0.1c0.5,0,0.8,0,0.9,0.1H86c0,0.2,0.1,0.3,0.3,0.4h0.1c0.1,0,0.1,0.1,0.2,0.2
		c0,0.2,0.1,0.3,0.2,0.4c0,0.1,0,0.1,0.1,0.2C87,59,87,59.1,87,59.1s0,0,0,0.1s0,0.2,0,0.2c-0.2,0.2-0.2,0.3-0.2,0.5
		c-0.2,0-0.3,0.1-0.3,0.2c-0.2,0-0.3,0.1-0.4,0.5H86h-0.1c0,0-0.1,0.1-0.1,0.2h-0.1h-0.1c0,0-0.1,0-0.1,0.1c-0.2,0-0.3,0.1-0.3,0.2
		H85c-0.2,0.2-0.3,0.2-0.5,0.1c0,0-0.1,0.1-0.1,0.2h-0.1c-0.1-0.1-0.2-0.1-0.3,0c-0.1,0-0.1,0.1-0.1,0.2h-0.2c0,0,0,0,0,0.1
		s0,0.1,0,0.2c0,0-0.1-0.1-0.2-0.1s-0.2,0-0.3,0l-0.1,0.1c0,0,0,0.1-0.1,0.1h-0.1h-0.1c0,0-0.1,0.1-0.1,0.2c-0.2-0.1-0.3,0-0.5,0
		c0,0,0,0,0,0.1c-0.2,0-0.3,0-0.3,0c-0.2,0-0.3,0.1-0.3,0.1h-0.1h-0.1c0,0-0.1,0-0.2,0s-0.2,0-0.2,0.1s0,0.1,0,0.1s-0.1,0-0.3,0
		c-0.1,0-0.1,0-0.1,0s0-0.1-0.1-0.1c-0.3,0.1-0.5,0.1-0.5,0.1v0.1c-0.1,0-0.1,0-0.2,0l-0.1-0.1l-0.1,0.1h-0.1c0,0-0.1,0-0.2,0
		s-0.2,0-0.2,0c0-0.1,0-0.1,0-0.1H79c-0.1,0-0.1,0.1-0.1,0.2c-0.2,0-0.4,0-0.6,0c0-0.1,0-0.2-0.1-0.2s-0.1,0-0.2,0v0.1
		c0,0.1,0,0.1,0,0.1s0,0,0-0.1v-0.1h-0.2v-0.1c-0.1-0.1-0.2-0.1-0.3-0.1c-0.1-0.1-0.2-0.1-0.2-0.1s-0.1,0-0.1-0.1
		c-0.1-0.1-0.1-0.2-0.1-0.2H77h-0.1v-0.1c0,0,0-0.1-0.1-0.1s-0.1,0-0.1,0h-0.1c0-0.1,0-0.2-0.2-0.4v-0.1c-0.1-0.1-0.2-0.2-0.3-0.3
		H76c-0.1-0.1-0.2-0.1-0.3-0.2c-0.1-0.1-0.2-0.2-0.2-0.3c-0.1-0.1-0.1-0.2-0.2-0.3c-0.2-0.4-0.2-0.7-0.2-0.7c0-0.1,0-0.2-0.1-0.3
		c0-0.1,0-0.2,0-0.3s0-0.2,0-0.2c0-0.1,0-0.1-0.1-0.2v-0.1v-0.1c0,0,0-0.1,0-0.3s0-0.3-0.1-0.3c0-0.1,0-0.2,0-0.4s0-0.3,0-0.3
		c0-0.4,0-1.1,0-1.9c0-0.9,0-1.5,0-1.9c0.1,0,0.2-0.1,0.2-0.2c0-0.1-0.1-0.2-0.2-0.2c0-0.1,0-0.2,0.1-0.3c0-0.1,0.1-0.2,0.1-0.2
		c-0.1-0.1-0.1-0.1-0.1-0.2c0-0.1,0-0.1,0.1-0.1c0-0.2,0-0.7,0-1.7c0.1,0,0.1-0.1,0.1-0.1c0-0.1,0-0.1-0.1-0.2c0.1,0,0.1-0.1,0-0.3
		c0-0.2-0.1-0.3,0-0.4v-0.1c0.1-0.1,0-0.2,0-0.3s0-0.3,0-0.6s0-0.5-0.1-0.5c0.1,0,0.1-0.2,0.1-0.4c0-0.3,0-0.4,0-0.4l-0.2-0.1
		c0-0.2,0-0.3,0.1-0.4l-0.1-0.1v-0.1c0-0.3,0-0.5,0-0.5h-0.1c0,0,0,0-0.1,0c0-0.3,0-0.6,0-0.8c-0.1,0-0.1,0-0.1,0s0-0.1,0-0.2v-0.1
		v-0.1v-0.1v-0.1l-0.1-0.1c-0.1-0.1-0.1-0.2,0-0.3l-0.1-0.1c0-0.1-0.1-0.1,0-0.2c-0.1,0-0.2-0.1-0.3-0.3c0-0.1,0-0.2,0-0.3
		s0-0.1,0-0.2c-0.1-0.1,0-0.2,0-0.3c0.1-0.1,0.1-0.3,0.1-0.3s0.1-0.1,0.2-0.2c0.1-0.1,0.2-0.2,0.2-0.2l0,0v-0.1l0.1,0.1
		c0,0,0.1,0,0.2,0s0.2,0,0.2,0c0.1,0,0.1,0,0.2-0.1s0.1-0.1,0.2-0.2c0.1,0,0.2,0,0.3,0c0.1,0,0.2,0,0.3,0h0.1h0.1
		c0.2,0,0.3,0,0.4-0.1c0.5-0.1,0.7-0.2,0.7-0.2H77h0.1c0,0,0,0,0.1,0c0,0,0.1,0,0.2,0s0.1,0,0.2-0.1s0.2-0.1,0.2-0.1s0-0.1,0-0.2
		c0.1,0,0.1,0,0.1,0s0,0,0,0.1v0.1c0.2-0.1,0.4-0.1,0.5-0.2c0.1,0,0.1,0,0.2,0.1l0.3-0.1c0,0,0.1-0.1,0.3-0.2c0,0.1,0.1,0.2,0.1,0.2
		s0.1-0.1,0.2-0.1s0.2,0,0.2,0h0.1l0.1-0.1c0,0,0.1,0,0.2,0s0.2,0,0.2,0c0.2,0,0.3-0.1,0.4-0.1h0.1c0.1,0,0.1,0,0.1-0.1
		c0.1,0,0.1,0,0.2,0c0,0,0.1,0,0.2-0.1c0.1,0,0.1,0,0.2,0C81.8,40,81.8,40,81.9,39.9C81.9,40,81.9,39.9,81.9,39.9L81.9,39.9z
		 M82.8,39.7c0,0,0.1,0,0.2,0s0.2,0,0.2,0l0,0c0,0,0,0,0,0.1c0,0,0.1,0,0.2,0s0.2,0,0.2,0.1c0.1,0,0.3,0,0.5,0.1
		c0.5,0,0.8,0.1,1,0.3h0.1c0.1,0.1,0.2,0.1,0.3,0.3c0.2,0.1,0.3,0.2,0.3,0.2V41c0.2,0.1,0.3,0.4,0.5,0.8h0.1l0,0
		c0.1,0.2,0,0.3,0,0.4c0,0.1,0,0.2,0,0.3c-0.1,0.1-0.1,0.2-0.1,0.2c-0.1,0.1-0.1,0.1-0.1,0.1c0,0.1,0,0.2-0.1,0.3c0,0.1,0,0.1,0,0.2
		S86,43.4,86,43.4h-0.1c0,0,0,0-0.1,0c0,0,0,0.1-0.1,0.1s-0.1,0.1-0.2,0l-0.1,0.1l-0.1,0.1c-0.2,0-0.2,0-0.3,0c0,0.1,0,0.1,0,0.1
		s-0.1,0-0.2,0s-0.2,0-0.2,0h-0.1h-0.1c0,0,0-0.1,0.1-0.1c0,0-0.1-0.1-0.1-0.2c0-0.1-0.1-0.1-0.1-0.2l-0.1,0.1h-0.1
		c0-0.1,0-0.1-0.1-0.2c-0.1-0.1-0.1-0.1-0.2-0.1v0.1v0.1l-0.1-0.1l-0.1-0.1c0,0-0.1,0-0.1-0.1c0-0.2-0.2-0.3-0.6-0.3
		c-0.1,0-0.1,0-0.2,0.1c-0.1,0-0.1,0-0.2,0s-0.2,0-0.2,0l-0.1,0.1c-0.1,0-0.2,0-0.5,0c-0.3,0.1-0.5,0.1-0.5,0.2
		c-0.2-0.1-0.3-0.1-0.4,0c-0.1,0-0.2,0-0.3,0c-0.1,0-0.2,0-0.3,0v0.1c-0.2,0-0.2,0-0.3,0c-0.1-0.1-0.2-0.1-0.3,0c0,0-0.1,0-0.1,0.1
		l-0.1,0.1c-0.1,0-0.1,0-0.2,0s-0.2,0-0.2,0l-0.1,0.1h-0.1c-0.1,0-0.1,0-0.1,0v0.1c-0.3,0-0.5,0-0.6,0v0.1c0,0,0,0,0,0.1
		c-0.3-0.2-0.5-0.1-0.7,0.2c0,0-0.1,0-0.1-0.1c-0.1,0-0.1,0.1,0,0.2c0,0.1,0.1,0.1,0.1,0.1s0,0.1,0,0.2v0.1c0,0.1,0,0.1,0,0.1
		c0,0.2,0,0.2,0.1,0.2c0,0.1,0,0.2,0.1,0.4s0.1,0.3,0,0.3c0,0.1,0,0.2,0.1,0.3v0.1c0,0,0,0,0,0.1s0,0.1,0,0.2c0,0.1,0.1,0.1,0.1,0.1
		c0,0.7,0,1.1,0,1.1c-0.1,0.2-0.1,0.4,0,0.6c0,0,0,0.1,0,0.3c0,0,0,0.1-0.1,0.1c0,0.1-0.1,0.1,0,0.2c0.1,0.1,0.1,0.1,0.1,0.1v0.1
		v0.1c0,0.1,0,0.3,0,0.5c0,0.3,0,0.5,0,0.5s0,0.1,0,0.2c0,0.1,0.1,0.2,0.2,0.1c0.1,0,0.2-0.1,0.3-0.1c0.3,0,0.5,0,0.6-0.1
		c0.4,0,0.6,0,0.6,0c0.2,0,0.3,0,0.4,0c0,0,0.1,0,0.2-0.1c0.1,0,0.1-0.1,0.2-0.1s0.1,0,0.2,0c0.2,0,0.3,0,0.3-0.1
		c0.2,0.1,0.4,0,0.5,0h0.1h0.1c0,0,0.1,0,0.2,0s0.1,0,0.2,0s0.3,0,0.5,0v-0.1c0.1,0.1,0.3,0.1,0.5,0c0.2,0,0.3-0.1,0.4-0.1
		s0.1,0,0.2,0s0.1-0.1,0.1-0.1h0.1c0,0,0,0,0.1,0.1c0,0,0.1,0,0.2-0.1s0.2-0.1,0.3-0.1c0.1-0.1,0.1-0.1,0.1-0.1s0.1,0,0.1,0.1
		c0.3,0,0.4,0,0.5-0.1c0.1,0,0.1,0,0.2,0s0.2,0,0.2,0s0.1,0,0.2,0.1c0.1,0,0.2,0.1,0.2,0.1c0.2,0,0.2,0.1,0.3,0.2c0.1,0,0.1,0,0.2,0
		h0.1c0,0,0,0.1,0.1,0.1c0.2,0,0.4,0,0.4,0s0,0.1,0.1,0.2V50c0,0.1,0.1,0.2,0.2,0.3c0,0.2,0.1,0.3,0.2,0.4c0,0,0,0.1-0.1,0.1
		c0,0.1,0,0.2-0.1,0.3s-0.1,0.2-0.1,0.3H87v0.1c0,0,0,0,0,0.1h-0.1l0,0h-0.1l-0.1-0.1h-0.1c0,0-0.1,0-0.1,0.1h-0.1
		c0,0.1-0.2,0.1-0.4,0.2c-0.2,0.1-0.3,0.2-0.3,0.3c-0.2,0-0.5,0-0.6,0.2H85l-0.1,0.1c0,0,0,0,0,0.1c-0.1,0-0.2,0-0.2-0.1h-0.1v0.1
		c-0.1,0-0.2,0-0.3,0s-0.2,0-0.3,0c0,0-0.1,0-0.1,0.1l-0.1,0.1c-0.1,0-0.2,0-0.3,0c-0.1,0-0.1,0.1-0.1,0.2C82.8,53,82.8,53,82.6,53
		c-0.1,0-0.2,0-0.3,0.1v0.1c-0.1,0-0.1,0-0.2,0c-0.1-0.1-0.2,0-0.2,0s-0.1,0-0.2,0v0.2c-0.1,0-0.2,0-0.3,0c-0.1,0-0.1,0-0.2,0
		s-0.1,0.1,0,0.2L81,53.5c0,0-0.2,0-0.5,0l-0.1,0.1l-0.1,0.1c-0.2,0-0.4,0-0.4,0l-0.1,0.2c-0.3,0-0.5,0-0.5,0
		c-0.1,0-0.2,0.1-0.3,0.1c0,0,0,0,0,0.1c-0.2,0.1-0.4,0.1-0.5,0c0,0-0.1,0-0.1,0.1S78.1,54,78.1,54S78,54,78,53.9l-0.1-0.1
		c-0.1,0-0.1,0-0.2,0.1c-0.1,0-0.2,0-0.2,0c-0.1,0-0.1,0.2,0,0.5v0.1v0.1c0,0.1,0.1,0.1,0.2,0.1c0.1,0.1,0,0.2-0.1,0.3
		c0,0,0,0.1,0,0.2c0,0.1,0,0.2,0.1,0.2v0.1c0,0,0,0,0,0.1c0,0,0,0.1-0.1,0.3c0.1,0.1,0.1,0.2,0.1,0.5s0,0.5,0.1,0.7
		c-0.2,0.2-0.1,0.4,0,0.5c0,0.1,0,0.2,0,0.3V58v0.1c0.1,0.2,0.1,0.4,0.1,0.5c0.1,0.1,0.1,0.2,0.2,0.3c0.1,0.2,0.1,0.3,0.1,0.3
		c0.1,0,0.2,0,0.4,0.1c0.2,0,0.3,0,0.4,0c0,0,0.1,0,0.1-0.1c0.1,0,0.1,0,0.1,0.1c0.5,0,0.7-0.1,0.8-0.1c0.1,0,0.2,0,0.3,0
		c0.2,0,0.3,0,0.4,0c0.1-0.1,0.3-0.2,0.7-0.2c0,0,0,0,0-0.1s0-0.1,0-0.1c0.1,0,0.1,0,0.2,0s0.2,0,0.2,0s0.1-0.1,0.2-0.1
		s0.2-0.1,0.2-0.1c0.2,0,0.4,0,0.6-0.2c0.2-0.1,0.4-0.2,0.5-0.2c0-0.1,0.1-0.1,0.1-0.1c0.2,0.1,0.3,0,0.4,0c0.2,0,0.4-0.1,0.6-0.3
		c0.2,0,0.2,0,0.3,0c0.1-0.1,0.2-0.1,0.3-0.1c0.5,0,0.8,0,0.9,0.1H86c0,0.2,0.1,0.3,0.3,0.4h0.1c0.1,0,0.1,0.1,0.2,0.2
		c0,0.2,0.1,0.3,0.2,0.4c0,0.1,0,0.1,0.1,0.2c0.1,0.1,0.1,0.2,0.1,0.2s0,0,0,0.1s0,0.2,0,0.2c-0.2,0.2-0.2,0.3-0.2,0.5
		c-0.2,0-0.3,0.1-0.3,0.2c-0.2,0-0.3,0.1-0.4,0.5H86h-0.1c0,0-0.1,0.1-0.1,0.2h-0.1h-0.1c0,0-0.1,0-0.1,0.1c-0.2,0-0.3,0.1-0.3,0.2
		H85c-0.2,0.2-0.3,0.2-0.5,0.1c0,0-0.1,0.1-0.1,0.2h-0.1c-0.1-0.1-0.2-0.1-0.3,0c-0.1,0-0.1,0.1-0.1,0.2h-0.2c0,0,0,0,0,0.1
		s0,0.1,0,0.2c0,0-0.1-0.1-0.2-0.1s-0.2,0-0.3,0L83.1,62c0,0,0,0.1-0.1,0.1h-0.1h-0.1c0,0-0.1,0.1-0.1,0.2c-0.2-0.1-0.3,0-0.5,0
		c0,0,0,0,0,0.1c-0.2,0-0.3,0-0.3,0c-0.2,0-0.3,0.1-0.3,0.1h-0.1h-0.1c0,0-0.1,0-0.2,0s-0.2,0-0.2,0.1s0,0.1,0,0.1s-0.1,0-0.3,0
		c-0.1,0-0.1,0-0.1,0s0-0.1-0.1-0.1c-0.3,0.1-0.5,0.1-0.5,0.1v0.1c-0.1,0-0.1,0-0.2,0l-0.1-0.1l-0.1,0.1h-0.1c0,0-0.1,0-0.2,0
		s-0.2,0-0.2,0c0-0.1,0-0.1,0-0.1H79c-0.1,0-0.1,0.1-0.1,0.2c-0.2,0-0.4,0-0.6,0c0-0.1,0-0.2-0.1-0.2s-0.1,0-0.2,0v0.1
		c0,0.1,0,0.1,0,0.1s0,0,0-0.1v-0.1h-0.2v-0.1c-0.1-0.1-0.2-0.1-0.3-0.1c-0.1-0.1-0.2-0.1-0.2-0.1s-0.1,0-0.1-0.1
		c-0.1-0.1-0.1-0.2-0.1-0.2H77h-0.1V62c0,0,0-0.1-0.1-0.1s-0.1,0-0.1,0h-0.1c0-0.1,0-0.2-0.2-0.4v-0.1c-0.1-0.1-0.2-0.2-0.3-0.3H76
		c-0.1-0.1-0.2-0.1-0.3-0.2c-0.1-0.1-0.2-0.2-0.2-0.3c-0.1-0.1-0.1-0.2-0.2-0.3c-0.2-0.4-0.2-0.7-0.2-0.7c0-0.1,0-0.2-0.1-0.3
		c0-0.1,0-0.2,0-0.3s0-0.2,0-0.3c0,0,0-0.1-0.1-0.1v-0.1v-0.1c0,0,0-0.1,0-0.3s0-0.3-0.1-0.3c0-0.1,0-0.2,0-0.4s0-0.3,0-0.3
		c0-0.4,0-1.1,0-1.9c0-0.9,0-1.5,0-1.9c0.1,0,0.2-0.1,0.2-0.2c0-0.1-0.1-0.2-0.2-0.2c0-0.1,0-0.2,0.1-0.3c0-0.1,0.1-0.2,0.1-0.2
		c-0.1-0.1-0.1-0.1-0.1-0.2c0-0.1,0-0.1,0.1-0.1c0-0.2,0-0.7,0-1.7c0.1,0,0.1-0.1,0.1-0.1c0-0.1,0-0.1-0.1-0.2c0.1,0,0.1-0.1,0-0.3
		c0-0.2-0.1-0.3,0-0.4v-0.1c0.1-0.1,0-0.2,0-0.2c0-0.1,0-0.3,0-0.6s0-0.5-0.1-0.5c0.1,0,0.1-0.2,0.1-0.4c0-0.3,0-0.4,0-0.4l-0.2-0.1
		c0-0.2,0-0.3,0.1-0.4l-0.1-0.1v-0.1c0-0.3,0-0.5,0-0.5h-0.1c0,0,0,0-0.1,0c0-0.3,0-0.6,0-0.8c-0.1,0-0.1,0-0.1,0s0-0.1,0-0.2v-0.1
		v-0.1v-0.1v-0.1l-0.1-0.1c-0.1-0.1-0.1-0.2,0-0.3l-0.1-0.1c0-0.1-0.1-0.1,0-0.2c-0.1,0-0.2-0.1-0.3-0.3c0-0.1,0-0.2,0-0.3
		s0-0.1,0-0.2c-0.1-0.1,0-0.2,0-0.3c0.1-0.1,0.1-0.3,0.1-0.3s0.1-0.1,0.2-0.2c0.1-0.1,0.2-0.2,0.2-0.2l0,0V42l0.1,0.1
		c0,0,0.1,0,0.2,0s0.2,0,0.2,0c0.1,0,0.1,0,0.2-0.1s0.1-0.1,0.2-0.2c0.1,0,0.2,0,0.3,0c0.1,0,0.2,0,0.3,0h0.1h0.1
		c0.2,0,0.3,0,0.4-0.1c0.5-0.1,0.7-0.2,0.7-0.2H77h0.1c0,0,0,0,0.1,0c0,0,0.1,0,0.2,0s0.1,0,0.2-0.1s0.2-0.1,0.2-0.1s0-0.1,0-0.2
		c0.1,0,0.1,0,0.1,0s0,0,0,0.1v0.1c0.2-0.1,0.4-0.1,0.5-0.2c0.1,0,0.1,0,0.2,0.1l0.3-0.1c0,0,0.1-0.1,0.3-0.2c0,0.1,0.1,0.2,0.1,0.2
		s0.1-0.1,0.2-0.1s0.2,0,0.2,0h0.1l0.1-0.1c0,0,0.1,0,0.2,0s0.2,0,0.2,0c0.2,0,0.3-0.1,0.4-0.1h0.1c0.1,0,0.1,0,0.1-0.1
		c0.1,0,0.1,0,0.2,0c0,0,0.1,0,0.2-0.1c0.1,0,0.1,0,0.2,0s0.1,0,0.1,0l0,0l0,0C82.5,40,82.8,39.9,82.8,39.7z"/>
</g>
</svg>
