<?xml version="1.0" encoding="utf-8"?>
<!-- Generator: Adobe Illustrator 19.0.1, SVG Export Plug-In . SVG Version: 6.00 Build 0)  -->
<svg version="1.1" id="Layer_1" xmlns="http://www.w3.org/2000/svg" xmlns:xlink="http://www.w3.org/1999/xlink" x="0px" y="0px"
	 viewBox="0 0 100 100" enable-background="new 0 0 100 100" xml:space="preserve">
<g id="Layer_1_1_">
	<g>
		<g>
			<path fill="#2B5799" d="M28.5,21.1c-0.7,9.2-1.2,18.3,0.7,27.3c0.6,2.7,4.3,4.2,6.4,2.1c2.9-2.9,5.5-6,8-9.3c3-4-3.5-8.3-6.5-4.3
				c-2.1,2.8-4.3,5.3-6.7,7.8c2.1,0.7,4.3,1.4,6.4,2.1c-1.7-8.4-1.2-16.8-0.6-25.3C36.6,16.5,28.9,16.1,28.5,21.1L28.5,21.1z"/>
		</g>
		<g>
			<path fill="#2B5799" d="M34.7,44.2c-3.1-2-6-4-9-6.2c-1.7-1.2-4.3-0.6-5.4,1.1c-1.2,1.8-0.6,4.1,1.1,5.4c2.9,2.2,5.9,4.2,9,6.2
				C34.7,53.4,38.9,46.9,34.7,44.2L34.7,44.2z"/>
		</g>
		<g>
			<path fill="#2B5799" d="M64.4,19.9c-0.7,9.2-1.2,18.3,0.7,27.3c0.6,2.7,4.3,4.2,6.4,2.1c2.9-2.9,5.5-6,8-9.3c3-4-3.5-8.3-6.5-4.3
				c-2.1,2.7-4.3,5.3-6.7,7.8c2.1,0.7,4.3,1.4,6.4,2.1c-1.7-8.4-1.2-16.8-0.5-25.3C72.6,15.3,64.8,14.9,64.4,19.9L64.4,19.9z"/>
		</g>
		<g>
			<path fill="#2B5799" d="M70.6,43c-3.1-2-6-4-9-6.2c-1.7-1.3-4.3-0.6-5.4,1.1c-1.2,1.8-0.6,4.1,1.1,5.4c2.9,2.2,5.9,4.2,9,6.2
				C70.6,52.2,74.8,45.7,70.6,43L70.6,43z"/>
		</g>
		<g>
			<path fill="#2B5799" d="M45.1,53.7c0,9.2,0.2,18.3,2.7,27.2c0.8,2.7,4.6,3.8,6.5,1.6c2.6-3.1,5.1-6.4,7.3-9.8
				c2.7-4.2-4.1-8-6.8-3.8c-1.9,2.9-3.9,5.6-6.1,8.2c2.2,0.5,4.4,1.1,6.5,1.6c-2.3-8.2-2.4-16.7-2.4-25.2
				C52.9,48.5,45.1,48.7,45.1,53.7L45.1,53.7z"/>
		</g>
		<g>
			<path fill="#2B5799" d="M52.9,76.3c-3.2-1.7-6.3-3.6-9.4-5.5c-1.8-1.1-4.3-0.3-5.3,1.5c-1.1,1.9-0.3,4.2,1.5,5.3
				c3.1,1.9,6.2,3.8,9.4,5.5C53.6,85.4,57.4,78.6,52.9,76.3L52.9,76.3z"/>
		</g>
	</g>
</g>
<g id="Layer_2" display="none">
	<circle display="inline" fill="none" stroke="#231F20" stroke-miterlimit="10" cx="50" cy="50" r="50"/>
</g>
</svg>
