<?xml version="1.0" encoding="utf-8"?>
<!-- Generator: Adobe Illustrator 19.0.1, SVG Export Plug-In . SVG Version: 6.00 Build 0)  -->
<svg version="1.1" id="Layer_1" xmlns="http://www.w3.org/2000/svg" xmlns:xlink="http://www.w3.org/1999/xlink" x="0px" y="0px"
	 viewBox="0 0 100 100" enable-background="new 0 0 100 100" xml:space="preserve">
<g>
	<path fill="#2B5799" d="M20.1,44.3L20.1,44.3c0,0.1,0,0.2,0,0.2c0.2,0.1,0.3,0,0.4,0c0,0,0,0,0.1,0c0,0,0,0,0.1,0s0.1,0,0.1,0
		c0.1,0.1,0.3,0.1,0.5,0c0,0.1,0.1,0.1,0.2,0.1s0.2,0,0.2,0.1c0,0,0,0,0.1,0c0,0,0,0,0.1,0s0.1,0,0.1,0.1c0,0,0,0,0.1,0
		c0,0,0,0,0.1,0c0,0.1,0,0.1,0.1,0.3c0,0,0.1,0,0.2,0.1s0.1,0.1,0.2,0.1c0.1,0.4,0.2,0.6,0.2,0.7c0,0.2-0.1,0.3,0,0.3
		c0,0.3,0,0.5,0,0.6s-0.1,0.1-0.2,0.2c-0.1,0.1-0.2,0.2-0.2,0.3c-0.1,0.1-0.1,0.1-0.1,0.2c0,0,0,0-0.1,0h-0.1c0,0-0.1,0-0.1,0.1
		S22,47.8,22,47.8h-0.1c-0.1,0-0.1,0-0.1,0s-0.1,0-0.1,0.1c0,0,0,0.1-0.1,0.1s-0.1,0-0.1,0c0,0.1-0.1,0.1-0.1,0.1s-0.1,0-0.1-0.1
		c-0.1,0-0.1-0.1-0.2-0.1S21,48,21,48.1c0,0.1-0.1,0-0.2-0.1h-0.1h-0.1c0-0.1,0-0.1-0.1-0.2h-0.1c0-0.2-0.1-0.2-0.3-0.2L20,47.4
		c0,0,0,0-0.1,0h-0.1h-0.1c0-0.1,0-0.1-0.1-0.1h-0.1v0.1c-0.1,0-0.2,0-0.3-0.1c0,0-0.1,0-0.1,0.1c-0.1,0-0.1,0-0.1-0.1
		c-0.1,0-0.3,0-0.6,0c-0.3,0-0.5,0-0.5,0s0,0-0.1,0c0,0,0,0-0.1,0c0,0,0,0-0.1,0h-0.1c-0.2,0-0.4,0-0.7,0h-0.1c-0.1,0-0.1,0-0.1,0
		c-0.1-0.1-0.2,0-0.3,0c0,0,0.1,0.1,0.1,0.3s0.1,0.2,0.2,0.2c-0.1,0.1-0.1,0.2-0.1,0.4v0.1c0,0.1,0,0.1,0,0.2c0,0.1,0,0.2,0.1,0.2
		c0,0.1,0.1,0.1,0.1,0.1c0,0.3,0,0.4-0.1,0.5c0,0.2,0,0.3,0.1,0.4v0.4v0.1c0,0,0,0.1,0.1,0.1c0,0.1,0,0.2,0,0.3c0,0,0,0.1,0.1,0.2
		c-0.1,0.2-0.1,0.3,0,0.4c-0.1,0.1-0.1,0.1-0.1,0.2c0,0.1,0,0.1,0.1,0.1c0.1,0.2,0.1,0.3,0,0.4c0,0.1,0,0.1,0,0.2c0,0.1,0,0.1,0,0.2
		c0,0.1,0,0.1,0,0.1s0,0.1,0.1,0.1s0.1,0.1,0.1,0.1s0,0.1-0.1,0.1c0,0.1,0,0.2,0,0.3s0,0.2,0,0.3s0.1,0.1,0.1,0.2v0.1v0.1
		c0,0,0,0,0,0.1v0.1V54v0.1v0.1v0.1c0,0,0,0,0,0.1s0,0.1,0,0.1s0,0.1,0,0.2c0,0.1,0,0.2,0,0.2c0,0.1,0,0.1,0,0.2v0.1
		c0,0.1,0,0.1,0.1,0.1v0.1c0,0.1,0,0.2,0,0.3l0.1,0.1c0.1,0.2,0.1,0.3,0.1,0.4c0,0-0.1,0.1-0.1,0.2c0,0,0,0,0,0.1s0,0.1,0,0.1v0.1
		c0,0,0,0.1,0.1,0.1c0.1,0.2,0.1,0.3,0.1,0.3c0,0.4,0.1,0.6,0.1,0.6h0.1v0.1c0,0.1,0,0.1,0,0.1s-0.1,0-0.1-0.1
		c-0.1,0.1-0.1,0.1,0,0.2c0,0.1,0,0.2,0,0.3s0,0.2,0,0.2c0.1,0.1,0.1,0.2,0.1,0.4c0,0,0.1,0.1,0.1,0.4l0.1,0.1c0,0.1,0,0.2,0,0.4
		s0,0.4,0,0.4c0,0.1,0,0.1,0,0.2c0,0.1,0,0.2,0,0.2c0,0.4,0,0.7,0,0.8c0,0,0,0.1-0.1,0.1l-0.1,0.1c0,0-0.1,0-0.1,0.1
		c0,0,0,0-0.1-0.1c0,0-0.1,0-0.1,0.1c-0.1,0.1-0.1,0.1-0.1,0h-0.1c0,0,0,0-0.1,0L17,62c0,0,0,0-0.1-0.1l-0.1-0.1
		c0,0-0.1,0.1-0.1,0.2c-0.1,0.1-0.2,0.1-0.3,0c0,0,0,0-0.1,0c0,0,0,0-0.1,0l-0.1-0.1c-0.1,0-0.2,0-0.3-0.1c-0.1,0-0.1,0-0.1,0
		c0-0.3-0.1-0.4-0.3-0.4c0-0.1,0-0.1,0-0.1h-0.1c0-0.2-0.1-0.3-0.2-0.3c0-0.1,0-0.1,0-0.2c0-0.1,0.1-0.1,0.1-0.1s0-0.1,0-0.2
		c0-0.1,0-0.1,0-0.2c0,0,0-0.1,0-0.2c0-0.1,0-0.2,0-0.2l0,0c0,0,0,0-0.1,0c-0.1-0.1,0-0.2,0-0.3s0-0.2,0-0.3
		C15,59.2,15,59.1,15,59.1s0-0.1,0-0.2s0-0.1,0-0.2c0,0,0-0.1-0.1-0.1l-0.1-0.1v-0.1c0-0.1,0-0.1,0-0.1h-0.1c0-0.2,0-0.3,0-0.4
		c0-0.1-0.1-0.2-0.1-0.2c0-0.1,0-0.1,0-0.3s0-0.4-0.1-0.4c0.1-0.1,0.1-0.2,0-0.3c0-0.1-0.1-0.2-0.2-0.2c0.1-0.2,0.1-0.5,0-0.8
		c0,0,0-0.1,0-0.4c0-0.2-0.1-0.3-0.1-0.4c0-0.1,0-0.1,0-0.3c0-0.1,0-0.2,0-0.3s0-0.1-0.1-0.2c0-0.1-0.1-0.1-0.1-0.2
		c0-0.1,0-0.2,0-0.3v-0.1v-0.1c0-0.1-0.1-0.1-0.2-0.2c0,0,0-0.1,0.1-0.1L14,53c0,0,0-0.1-0.1-0.2c0-0.1,0-0.1,0-0.2
		c0-0.1,0-0.2,0-0.2l-0.1-0.1v-0.6v-0.1v-0.1c0,0,0-0.1,0-0.2c0-0.1,0-0.1,0-0.2c0,0,0-0.1-0.1-0.1l-0.1-0.1c0,0,0-0.1,0-0.2
		c0-0.1,0-0.2,0-0.2s0-0.1,0-0.2c0-0.1,0-0.1,0-0.2V50c0-0.1,0-0.1,0-0.1s0,0-0.1-0.1v-0.1c0-0.1,0-0.1,0-0.3s0-0.4-0.1-0.4
		c0-0.2-0.1-0.4-0.2-0.4v-0.1c0,0,0-0.1,0.1-0.1c0-0.2-0.1-0.3-0.2-0.3c0-0.1,0.1-0.2,0-0.3v-0.1v-0.1c0-0.1,0-0.1,0-0.2
		s0-0.1-0.1-0.1c-0.1,0.1-0.2,0.1-0.3,0c-0.2,0.1-0.3,0.1-0.3,0.2h-0.1h-0.1c0,0,0,0-0.1,0s-0.1,0-0.2,0c0-0.1-0.1-0.1-0.2-0.2
		c0,0-0.1,0-0.1,0.1c0,0,0,0.1-0.1,0.1s-0.1,0-0.3,0c-0.1,0-0.2,0-0.2,0h-0.1c-0.1,0-0.1,0-0.1,0.1h-0.1c0,0,0,0-0.1,0
		c0,0-0.1,0-0.2,0h-0.1c-0.1,0-0.1,0-0.1,0c-0.1,0-0.1,0-0.1,0H10H9.9H9.8H9.7c-0.1,0-0.1,0-0.2,0c0,0.1,0,0.1,0,0.1s-0.1,0-0.2,0
		c-0.1,0-0.2,0-0.2,0c0-0.1-0.1-0.1-0.1-0.1s-0.1,0-0.1,0.1c-0.3,0-0.4-0.1-0.5-0.1s-0.1,0-0.1,0H8.2c0,0-0.1,0-0.1,0.1
		c0,0,0,0-0.1,0c0,0,0,0-0.1,0s-0.1,0-0.2,0s-0.2,0-0.2,0s0,0.1-0.1,0.1c0,0,0,0-0.1,0H7.2c0-0.1,0-0.2-0.1-0.2s-0.2,0-0.2,0.1
		c0,0-0.1,0-0.2,0s-0.1,0-0.1,0c0-0.1-0.1-0.2-0.1-0.2s0,0-0.1,0c0,0,0,0-0.1,0s0,0,0-0.1s0-0.1,0-0.1h0.8c0-0.1,0-0.1,0-0.1v-0.1
		V47v-0.1c0,0-0.1-0.1-0.3-0.3c0-0.1-0.1-0.2-0.2-0.2c-0.1-0.1-0.1-0.1-0.1-0.2v-0.1c0,0,0-0.1,0.1-0.1c0-0.1,0-0.1,0-0.2
		c0-0.1,0-0.1,0-0.2c0-0.1,0.1-0.1,0.2-0.2c0,0,0,0,0-0.1s0,0,0,0s0,0,0.1-0.1S7,45,7,45c0.1-0.1,0.2-0.2,0.3-0.2
		c0.1,0.1,0.4,0.1,0.7,0v-0.1c0.3,0.1,0.4,0.1,0.4,0.1c0.1-0.1,0.1-0.1,0.1-0.1h0.1h0.1c0,0,0,0,0.1,0h0.1c0,0,0,0,0.1,0h0.1
		c0.2,0,0.3,0,0.4,0c0,0,0.1,0,0.1-0.1c0.1,0,0.1,0,0.2,0c0.1,0.1,0.1,0.1,0.1,0.1c0.1,0,0.2,0,0.4,0c0,0,0.1,0,0.2,0s0.1,0,0.2-0.1
		c0.1,0,0.1,0,0.3,0c0.1,0,0.2,0,0.3,0c0,0,0,0,0.1,0c0,0,0,0,0.1,0c0,0,0,0,0.1,0h0.1c0.1,0.1,0.3,0.1,0.5,0h0.1h0.1h0.1h0.1h0.1
		c0.1-0.1,0.2-0.1,0.4,0l0,0l0,0c0,0,0,0,0.1,0c0,0,0,0,0.1,0s0.3,0,0.5,0s0.4,0,0.5,0c0,0,0-0.1,0.1-0.1c0.1,0.1,0.2,0.1,0.4,0
		s0.3-0.1,0.3-0.1h0.1c0,0,0,0,0.1,0h0.1c0,0,0,0,0-0.1c0.1,0,0.1,0,0.2,0c0.1,0,0.2,0,0.2,0l0,0c0,0,0.1,0,0.2,0s0.1,0.1,0.2,0.1
		c0.1-0.1,0.1-0.1,0.2-0.1h0.1h0.1c0,0,0,0,0.1,0c0,0,0,0,0.1,0c0,0,0,0,0.1,0s0.1,0,0.2-0.1c0.1,0,0.2,0,0.2,0.1
		c0.1,0.1,0.1,0.1,0.2,0.1c0,0,0.1,0,0.1-0.1l0.1-0.1c0.1,0,0.2,0,0.2,0s0,0,0.1,0c0,0,0,0,0.1,0s0.1,0,0.2,0.1c0,0,0,0,0.1,0h0.1
		c0,0.1,0.1,0.1,0.2,0s0.2-0.1,0.2,0H19c0,0,0,0,0.1,0s0.1,0,0.2,0s0.1,0,0.1,0h0.1h0.1c0.1,0,0.1,0,0.2-0.1h0.1
		C19.9,44.3,20,44.3,20.1,44.3C20,44.3,20,44.3,20.1,44.3c0,0,0,0,0.1,0s0.1,0,0.1,0.1c0.1,0,0.1,0,0.1-0.1
		C20,44.3,20.1,44.3,20.1,44.3z M20,44.4c0-0.1,0.1-0.1,0.1-0.1v0.1v0.1c0.2,0.1,0.3,0,0.4,0c0,0,0,0,0.1,0c0,0,0,0,0.1,0
		s0.1,0,0.1,0c0.1,0.1,0.3,0.1,0.5,0c0,0.1,0.1,0.1,0.2,0.1s0.2,0,0.2,0.1c0,0,0,0,0.1,0c0,0,0,0,0.1,0s0.1,0,0.1,0.1c0,0,0,0,0.1,0
		c0,0,0,0,0.1,0c0,0.1,0,0.1,0.1,0.3c0,0,0.1,0,0.2,0.1s0.1,0.1,0.2,0.1c0.1,0.4,0.2,0.6,0.2,0.7c0,0.2-0.1,0.3,0,0.3
		c0,0.3,0,0.5,0,0.6s-0.1,0.1-0.2,0.2c-0.1,0.1-0.2,0.2-0.2,0.3c-0.1,0.1-0.1,0.1-0.1,0.2c0,0,0,0-0.1,0h-0.1c0,0-0.1,0-0.1,0.1
		S22,47.8,22,47.8h-0.1c-0.1,0-0.1,0-0.1,0s-0.1,0-0.1,0.1c0,0,0,0.1-0.1,0.1s-0.1,0-0.1,0c0,0.1-0.1,0.1-0.1,0.1s-0.1,0-0.1-0.1
		c-0.1,0-0.1-0.1-0.2-0.1S21,48,21,48.1c0,0.1-0.1,0-0.2-0.1h-0.1h-0.1c0-0.1,0-0.1-0.1-0.2h-0.1c0-0.2-0.1-0.2-0.3-0.2L20,47.4
		c0,0,0,0-0.1,0h-0.1h-0.1c0-0.1,0-0.1-0.1-0.1h-0.1v0.1c-0.1,0-0.2,0-0.3-0.1c0,0-0.1,0-0.1,0.1c-0.1,0-0.1,0-0.1-0.1
		c-0.1,0-0.3,0-0.6,0c-0.3,0-0.5,0-0.5,0s0,0-0.1,0c0,0,0,0-0.1,0c0,0,0,0-0.1,0h-0.1c-0.2,0-0.4,0-0.7,0h-0.1c-0.1,0-0.1,0-0.1,0
		c-0.1-0.1-0.2,0-0.3,0c0,0,0.1,0.1,0.1,0.3s0.1,0.2,0.2,0.2c-0.1,0.1-0.1,0.2-0.1,0.4v0.1c0,0.1,0,0.1,0,0.2c0,0.1,0,0.2,0.1,0.2
		c0,0.1,0.1,0.1,0.1,0.1c0,0.3,0,0.4-0.1,0.5c0,0.2,0,0.3,0.1,0.4v0.4v0.1c0,0,0,0.1,0.1,0.1c0,0.1,0,0.2,0,0.3c0,0,0,0.1,0.1,0.2
		c-0.1,0.2-0.1,0.3,0,0.4c-0.1,0.1-0.1,0.1-0.1,0.2c0,0.1,0,0.1,0.1,0.1c0.1,0.2,0.1,0.3,0,0.4c0,0.1,0,0.1,0,0.2c0,0.1,0,0.1,0,0.2
		c0,0.1,0,0.1,0,0.1s0,0.1,0.1,0.1s0.1,0.1,0.1,0.1s0,0.1-0.1,0.1c0,0.1,0,0.2,0,0.3s0,0.2,0,0.3s0.1,0.1,0.1,0.2v0.1v0.1
		c0,0,0,0,0,0.1v0.1V54v0.1v0.1v0.1c0,0,0,0,0,0.1s0,0.1,0,0.1s0,0.1,0,0.2c0,0.1,0,0.2,0,0.2c0,0.1,0,0.1,0,0.2v0.1
		c0,0.1,0,0.1,0.1,0.1v0.1c0,0.1,0,0.2,0,0.3l0.1,0.1c0.1,0.2,0.1,0.3,0.1,0.4c0,0-0.1,0.1-0.1,0.2c0,0,0,0,0,0.1s0,0.1,0,0.1v0.1
		c0,0,0,0.1,0.1,0.1c0.1,0.2,0.1,0.3,0.1,0.3c0,0.4,0.1,0.6,0.1,0.6h0.1v0.1c0,0.1,0,0.1,0,0.1s-0.1,0-0.1-0.1
		c-0.1,0.1-0.1,0.1,0,0.2c0,0.1,0,0.2,0,0.3s0,0.2,0,0.2c0.1,0.1,0.1,0.2,0.1,0.4c0,0,0.1,0.1,0.1,0.4l0.1,0.1c0,0.1,0,0.2,0,0.4
		s0,0.4,0,0.4c0,0.1,0,0.1,0,0.2c0,0.1,0,0.2,0,0.2c0,0.4,0,0.7,0,0.8c0,0,0,0.1-0.1,0.1l-0.1,0.1c0,0-0.1,0-0.1,0.1
		c0,0,0,0-0.1-0.1c0,0-0.1,0-0.1,0.1c-0.1,0.1-0.1,0.1-0.1,0h-0.1c0,0,0,0-0.1,0L17,62c0,0-0.1,0-0.1-0.1c0,0,0-0.1-0.1-0.1
		c0,0-0.1,0.1-0.1,0.2c-0.1,0.1-0.2,0.1-0.3,0c0,0,0,0-0.1,0c0,0,0,0-0.1,0l-0.1-0.1c-0.1,0-0.2,0-0.3-0.1c-0.1,0-0.1,0-0.1,0
		c0-0.3-0.1-0.4-0.3-0.4c0-0.1,0-0.1,0-0.1h-0.1c0-0.2-0.1-0.3-0.2-0.3c0-0.1,0-0.1,0-0.2c0-0.1,0.1-0.1,0.1-0.1s0-0.1,0-0.2
		c0-0.1,0-0.1,0-0.2c0,0,0-0.1,0-0.2c0-0.1,0-0.2,0-0.2l0,0c0,0,0,0-0.1,0c-0.1-0.1,0-0.2,0-0.3s0-0.2,0-0.3
		C15,59.2,15,59.1,15,59.1s0-0.1,0-0.2s0-0.1,0-0.2c0,0,0-0.1-0.1-0.1l-0.1-0.1v-0.1c0-0.1,0-0.1,0-0.1h-0.1c0-0.2,0-0.3,0-0.4
		c0-0.1-0.1-0.2-0.1-0.2c0-0.1,0-0.1,0-0.3s0-0.4-0.1-0.4c0.1-0.1,0.1-0.2,0-0.3c0-0.1-0.1-0.2-0.2-0.2c0.1-0.2,0.1-0.5,0-0.8
		c0,0,0-0.1,0-0.4c0-0.2-0.1-0.3-0.1-0.4c0-0.1,0-0.1,0-0.3c0-0.1,0-0.2,0-0.3s0-0.1-0.1-0.2c0-0.1-0.1-0.1-0.1-0.2
		c0-0.1,0-0.2,0-0.3v-0.1v-0.1c0-0.1-0.1-0.1-0.2-0.2c0,0,0-0.1,0.1-0.1L14,53c0,0,0-0.1-0.1-0.2c0-0.1,0-0.1,0-0.2
		c0-0.1,0-0.2,0-0.2l-0.1-0.1v-0.6v-0.1v-0.1c0,0,0-0.1,0-0.2c0-0.1,0-0.1,0-0.2c0,0,0-0.1-0.1-0.1l-0.1-0.1c0,0,0-0.1,0-0.2
		c0-0.1,0-0.2,0-0.2s0-0.1,0-0.2c0-0.1,0-0.1,0-0.2V50c0-0.1,0-0.1,0-0.1s0,0-0.1-0.1v-0.1c0-0.1,0-0.1,0-0.3s0-0.4-0.1-0.4
		c0-0.2-0.1-0.4-0.2-0.4v-0.1c0,0,0-0.1,0.1-0.1c0-0.2-0.1-0.3-0.2-0.3c0-0.1,0.1-0.2,0-0.3v-0.1v-0.1c0-0.1,0-0.1,0-0.2
		s0-0.1-0.1-0.1c-0.1,0.1-0.2,0.1-0.3,0c-0.2,0.1-0.3,0.1-0.3,0.2h-0.1h-0.1c0,0,0,0-0.1,0s-0.1,0-0.2,0c0-0.1-0.1-0.1-0.2-0.2
		c0,0-0.1,0-0.1,0.1c0,0,0,0.1-0.1,0.1s-0.1,0-0.3,0c-0.1,0-0.2,0-0.2,0h-0.1c-0.1,0-0.1,0-0.1,0.1h-0.1c0,0,0,0-0.1,0
		c0,0-0.1,0-0.2,0h-0.1c-0.1,0-0.1,0-0.1,0c-0.1,0-0.1,0-0.1,0H10H9.9H9.8H9.7c-0.1,0-0.1,0-0.2,0c0,0.1,0,0.1,0,0.1
		c-0.1,0-0.1,0-0.2,0c-0.1,0-0.1,0-0.2,0c0-0.1-0.1-0.1-0.1-0.1s-0.1,0-0.1,0.1c-0.3,0-0.4-0.1-0.5-0.1s-0.1,0-0.1,0H8.2
		c0,0-0.1,0-0.1,0.1c0,0,0,0-0.1,0c0,0,0,0-0.1,0s-0.1,0-0.2,0s-0.2,0-0.2,0s0,0.1-0.1,0.1c0,0,0,0-0.1,0H7.2c0-0.1,0-0.2-0.1-0.2
		s-0.2,0-0.2,0.1c0,0-0.1,0-0.2,0s-0.1,0-0.1,0c0-0.1-0.1-0.2-0.1-0.2s0,0-0.1,0c0,0,0,0-0.1,0s0,0,0-0.1s0-0.1,0-0.1h0.8
		c0-0.1,0-0.1-0.1-0.2V47v-0.1c0,0-0.1-0.1-0.3-0.3c0-0.1-0.1-0.2-0.2-0.2c-0.1-0.1-0.1-0.1-0.1-0.2v-0.1c0,0,0-0.1,0.1-0.1
		c0-0.1,0-0.1,0-0.2c0-0.1,0-0.1,0-0.2c0-0.1,0.1-0.1,0.2-0.2c0,0,0,0,0-0.1s0,0,0,0s0,0,0.1-0.1S6.9,45,6.9,45
		c0.1-0.1,0.2-0.2,0.3-0.2c0.1,0.1,0.4,0.1,0.7,0v-0.1c0.3,0.1,0.4,0.1,0.4,0.1c0.1-0.1,0.1-0.1,0.1-0.1h0.1h0.1c0,0,0,0,0.1,0h0.1
		c0,0,0,0,0.1,0H9c0.2,0,0.3,0,0.4,0c0,0,0.1,0,0.1-0.1c0.1,0,0.1,0,0.2,0c0.1,0.1,0.1,0.1,0.1,0.1c0.1,0,0.2,0,0.4,0
		c0,0,0.1,0,0.2,0s0.1,0,0.2-0.1c0.1,0,0.1,0,0.3,0c0.1,0,0.2,0,0.3,0c0,0,0,0,0.1,0c0,0,0,0,0.1,0c0,0,0,0,0.1,0h0.1
		c0.1,0.1,0.3,0.1,0.5,0h0.1h0.1h0.1h0.1h0.1c0.1-0.1,0.2-0.1,0.4,0l0,0l0,0c0,0,0,0,0.1,0c0,0,0,0,0.1,0s0.3,0,0.5,0s0.4,0,0.5,0
		h0.1c0.1,0.1,0.2,0.1,0.4,0s0.3-0.1,0.3-0.1h0.1c0,0,0,0,0.1,0h0.1c0,0,0,0,0-0.1c0.1,0,0.1,0,0.2,0c0.1,0,0.2,0,0.2,0l0,0
		c0,0,0.1,0,0.2,0s0.1,0.1,0.2,0.1c0.1-0.1,0.1-0.1,0.2-0.1h0.1h0.1c0,0,0,0,0.1,0c0,0,0,0,0.1,0c0,0,0,0,0.1,0s0.1,0,0.2-0.1
		c0.1,0,0.2,0,0.2,0.1c0.1,0.1,0.1,0.1,0.2,0.1h0.1l0.1-0.1c0.1,0,0.2,0,0.2,0s0,0,0.1,0c0,0,0,0,0.1,0s0.1,0,0.2,0.1c0,0,0,0,0.1,0
		h0.1c0,0.1,0.1,0.1,0.2,0s0.2-0.1,0.2,0h0.1c0,0,0,0,0.1,0s0.1,0,0.2,0s0.1,0,0.1,0h0.1h0.1c0.1,0,0.1,0,0.2-0.1h0.1
		C19.8,44.5,19.9,44.5,20,44.4C19.9,44.5,19.9,44.5,20,44.4c0,0.1,0,0.1,0.1,0.1s0.1,0,0.1,0.1C19.9,44.5,19.9,44.5,20,44.4z
		 M15.1,55.3C15.1,55.2,15.1,55.2,15.1,55.3C15.1,55.1,15.1,55.1,15.1,55.3C15.1,55.2,15.1,55.2,15.1,55.3
		C15.1,55.2,15.1,55.2,15.1,55.3z M15.1,55.2L15.1,55.2L15.1,55.2L15.1,55.2C15.1,55.1,15.1,55.1,15.1,55.2z M17.5,53.1L17.5,53.1
		C17.5,53.2,17.5,53.2,17.5,53.1z M17.5,53.1L17.5,53.1L17.5,53.1L17.5,53.1z"/>
	<path fill="#2B5799" d="M24.9,42.3c0.1,0.1,0.1,0.1,0.1,0.1c0-0.1,0.1-0.1,0.2-0.1s0.2,0,0.2,0h0.1h0.1h0.1c0.1,0,0.1,0,0.1,0
		c0.1,0,0.1,0,0.3,0s0.2,0,0.3,0h0.1c0.1,0,0.1,0,0.1,0h0.1c0,0,0.1,0,0.1-0.1c0.4,0,0.6,0.1,0.6,0.1c0.1,0,0.1,0,0.3,0
		c0.1,0,0.1,0,0.1,0s0.1,0,0.2,0s0.2,0,0.2,0c0.1,0,0.1,0,0.1,0s0.1,0,0.2,0s0.1,0,0.2,0s0.1,0,0.1,0h0.1H29h0.1c0.1,0,0.1,0,0.1,0
		s0,0.1,0.1,0.1c0,0,0,0,0.1,0h0.1c0.1,0,0.2,0,0.3,0c0.1,0,0.2,0,0.3,0c0,0,0.1,0,0.2,0.1c0.1,0,0.2,0,0.2-0.1c0,0,0,0,0.1,0
		c0,0,0,0,0.1,0s0.3,0,0.5,0.1s0.4,0.1,0.6,0c0.1-0.1,0.2-0.1,0.2-0.1v0.1c0.1,0.1,0.1,0.1,0.1,0.1h0.1c0.1,0,0.1,0,0.1,0h0.1
		c0.1,0.1,0.1,0.1,0.2,0c0,0.1,0.1,0.1,0.1,0.1c0.1-0.1,0.2,0,0.2,0C33,43,33.1,43,33.2,43v0.1c0,0,0.2,0.1,0.5,0.1
		c0,0.1,0.1,0.1,0.2,0.1c0.1,0,0.2,0,0.2,0.1h0.1c0.4,0.3,0.7,0.5,0.8,0.6h0.1c0,0.1,0.1,0.2,0.1,0.2c0.1,0,0.1,0.1,0.2,0.1
		c0.1,0.1,0.1,0.1,0.2,0.2c0.1,0.1,0.1,0.1,0.2,0.2c0,0.1,0,0.1,0.1,0.2c0,0.1,0.1,0.1,0.1,0.2c0.1,0.1,0.2,0.1,0.2,0.2
		c0,0.1,0,0.1,0,0.1s0,0,0.1,0.1c0,0.1,0.1,0.1,0.1,0.1c0,0.2,0,0.3,0,0.3s0,0,0,0.1c0,0,0,0.1,0.1,0.1c0,0,0,0.1,0,0.2
		c0,0.1,0,0.1,0.1,0.2c0,0,0,0,0.1,0h0.1v0.1h-0.1c0,0.1,0,0.1,0,0.2c0,0.1,0,0.2,0,0.2v0.1c0,0.1,0,0.2,0,0.4s0,0.3,0,0.3
		c0,0.1-0.1,0.1-0.1,0.2c0,0.1,0,0.2,0,0.2c-0.1,0.1-0.1,0.1-0.1,0.1c0,0.1,0,0.1-0.1,0.2c0,0.1,0,0.1,0,0.1
		c-0.1,0.1-0.1,0.2-0.1,0.3c0,0-0.1,0.1-0.1,0.2c-0.1,0.1-0.1,0.2-0.2,0.3v0.1c0,0,0,0.1-0.1,0.1l-0.1,0.1c-0.2,0.1-0.4,0.3-0.4,0.6
		c0,0,0,0-0.1,0c0,0,0,0-0.1,0c0,0-0.1,0.1-0.1,0.2c-0.3,0.2-0.4,0.4-0.5,0.5s-0.2,0.1-0.2,0.2c-0.3,0.2-0.5,0.4-0.6,0.6
		c-0.1,0-0.2,0.1-0.3,0.2l-0.1,0.1c-0.1,0.1-0.1,0.1-0.1,0.1c-0.1,0.1-0.2,0.1-0.2,0.2c0,0.1,0,0.1,0.1,0.1l0.1,0.1l0.1,0.1
		c0.1,0,0.1,0,0.1,0.1c0,0,0,0,0.1,0.1c0,0,0,0,0.1,0s0.1,0,0.1,0s0,0,0.1,0.1c0.1,0,0.1,0.1,0.1,0.1s0,0,0.1,0v0.1h0.1
		c0.1,0.1,0.2,0.1,0.2,0.1c0,0.1,0.1,0.1,0.2,0.2c0.1,0.1,0.2,0.1,0.2,0.2H35c0,0,0,0,0.1,0.1c0,0,0,0.1,0.1,0.1h0.1l0.1,0.1
		c0.1,0.1,0.2,0.2,0.3,0.2c0,0.1,0.1,0.1,0.3,0.1c0.1,0.2,0.2,0.3,0.4,0.2c0,0,0.1,0.1,0.1,0.2c0.2,0.1,0.4,0.3,0.5,0.4h0.1
		c0.2,0.2,0.3,0.3,0.4,0.3c0,0.1,0.1,0.1,0.2,0.1s0.2,0.1,0.2,0.2c0.1,0,0.1,0,0.2,0.1c0.1,0.1,0.1,0.1,0.2,0.1
		c0.1,0.1,0.2,0.2,0.4,0.4c0.2,0.1,0.3,0.3,0.4,0.4h0.1c0,0,0.1,0,0.1,0.1c0.1,0.1,0.1,0.1,0.1,0.1h0.1c0,0,0,0,0.1,0
		c0,0.1,0.1,0.2,0.3,0.3c0.1,0.1,0.2,0.1,0.2,0c0.1,0,0.2,0,0.2,0c0.1,0.1,0.2,0.1,0.3,0.1c0-0.1,0.1-0.1,0.1-0.1s0,0,0.1,0.1
		c0.1-0.1,0.3,0,0.3,0.1c0.1,0.1,0.1,0.2,0.1,0.2s0,0.1,0.1,0.1h0.1c0,0,0.1,0.1,0.1,0.2c0,0.1,0.1,0.2,0.1,0.2V58v0.1v0.1l0.1,0.1
		c0.1,0.1,0.1,0.1,0.1,0.1s0,0.1,0,0.2c0,0.2,0.1,0.4,0,0.4c0,0,0,0.1,0.1,0.2c0,0.1,0,0.2,0,0.4s0,0.3,0,0.4h-0.3l-0.1,0.1
		c0,0.1-0.1,0.1-0.1,0.1s0,0-0.1,0.1c0,0-0.1,0-0.1,0.1c0.1,0.1,0.1,0.1,0.1,0.1s-0.1,0-0.1,0.1c-0.1,0-0.1,0-0.1,0.1c0,0,0,0,0,0.1
		s0,0,0,0.1C41,61,41,61,41,60.9c-0.1-0.1-0.1-0.1-0.1-0.1s-0.1,0-0.1,0.1C40.7,61,40.7,61,40.6,61c-0.1-0.2-0.2-0.3-0.3-0.3
		c0,0,0,0-0.1,0h-0.1c0-0.1,0-0.2-0.1-0.2c0,0,0,0-0.1,0l0,0c0,0,0,0,0-0.1s-0.1-0.1-0.2-0.2h-0.1h-0.1c-0.1-0.2-0.2-0.3-0.3-0.4H39
		c-0.1,0-0.1-0.1-0.1-0.2c-0.1-0.1-0.2-0.2-0.4-0.2l-0.1-0.1C38.3,59,38.2,59,38.2,59c-0.1,0.1-0.1,0.1-0.1,0.1s0,0-0.1-0.1
		c0-0.1,0-0.1-0.1-0.1c0,0-0.1,0-0.1-0.1c-0.1,0-0.1-0.1-0.1-0.1c0-0.1-0.1-0.2-0.2-0.1c0-0.1,0-0.1,0-0.1c-0.1-0.1-0.2-0.2-0.3-0.3
		c0,0-0.2-0.1-0.5-0.4c0,0,0,0-0.1,0c0,0,0,0-0.1,0c0-0.1-0.1-0.1-0.2-0.3c-0.1,0-0.2-0.1-0.4-0.2h-0.1h-0.1c0,0,0,0,0-0.1v-0.1
		h-0.1c0,0,0,0-0.1,0s-0.1-0.1-0.2-0.2c0-0.1-0.1-0.1-0.1-0.1s0-0.1-0.1-0.1S35,56.6,35,56.6c-0.1,0-0.2-0.1-0.3-0.2
		c-0.1-0.1-0.2-0.2-0.3-0.2h-0.1c0-0.1-0.1-0.1-0.2-0.2c0-0.1-0.1-0.1-0.3-0.2c0,0,0,0-0.1,0c0,0,0,0-0.1-0.1c0,0,0,0-0.1,0
		c0,0,0,0-0.1,0c0,0,0,0-0.1-0.1h-0.1c-0.1,0-0.2,0-0.2,0s-0.1,0-0.1-0.1c-0.1-0.1-0.1-0.1-0.1-0.1c-0.1,0.1-0.1,0.1-0.1,0
		c0,0,0,0,0-0.1v-0.1c0,0,0,0-0.1,0h-0.1c0,0,0-0.1-0.1-0.1c0,0,0-0.1-0.1-0.1h-0.1l-0.1-0.1c0,0-0.1,0-0.2-0.1
		c-0.1-0.1-0.1-0.1-0.2,0c0-0.1-0.1-0.1-0.2-0.1s-0.1-0.1-0.2-0.1s-0.2,0-0.3-0.1c-0.1,0-0.2-0.1-0.3-0.2c0,0-0.1,0-0.3,0.1l0,0
		v-0.1c0,0-0.1,0-0.2,0c0,0,0,0,0-0.1c0,0,0,0,0-0.1c-0.2-0.2-0.4-0.2-0.5-0.2c-0.1-0.1-0.2-0.2-0.3-0.2c0,0-0.1-0.1-0.2-0.1
		c0,0-0.1,0-0.1-0.1c0,0-0.1,0.1-0.1,0.2c0,0.2,0,0.3,0,0.4c0,0,0,0.1,0.1,0.1c0,0,0,0,0,0.1s0,0,0,0.1s0,0.1,0,0.1
		c0,0.3,0,0.5,0.1,0.6v0.3v0.1c0,0,0,0.1,0.1,0.2c0,0.1,0,0.1,0,0.2c0,0.1,0,0.1,0,0.1l0.1,0.1c0,0.1,0,0.1,0.1,0.1
		c0,0.1,0,0.1,0,0.3s0,0.2,0,0.3c0,0,0,0,0.1,0.1c0,0,0.1,0,0.1,0.1c0,0.2,0,0.3,0,0.4c0,0.1,0,0.2,0.1,0.3c0,0,0,0.1,0,0.3
		c0,0.1,0,0.2,0,0.3h0.1l0.1,0.1c0,0.1,0,0.1-0.1,0.2v0.1c0,0,0,0.1,0,0.3c0,0.1,0,0.3,0,0.5c0,0.3,0,0.4,0,0.4V60c0,0,0,0-0.1,0
		c0,0,0,0-0.1,0.1c0,0.1-0.1,0.1-0.1,0.2c0,0.1-0.1,0.1-0.1,0.2c-0.1,0-0.1,0-0.2,0c-0.2,0.1-0.3,0.2-0.3,0.3c0,0,0,0-0.1,0
		c0,0,0,0-0.1,0c0,0,0,0,0,0.1c0,0,0,0-0.1,0c0,0,0,0-0.1-0.1c0,0-0.1,0-0.2,0c-0.1,0.1-0.1,0.1-0.2,0.1c0-0.1,0-0.2-0.1-0.2
		s-0.3-0.1-0.4-0.3h-0.1h-0.1c0.1-0.1,0-0.2-0.1-0.3s-0.2-0.1-0.2-0.2c0,0,0,0-0.1,0c0,0,0,0-0.1,0c-0.1-0.1,0-0.2,0.1-0.2
		c0-0.1,0-0.1,0-0.2c0-0.1,0-0.1,0-0.1v-0.1c0,0,0-0.1-0.1-0.1h-0.1c0,0,0-0.1,0.1-0.1c0.1-0.2,0.1-0.4,0-0.4v-0.4
		c0-0.1,0.1-0.2,0.1-0.3s0-0.2-0.1-0.3c0-0.1,0-0.2,0-0.3s0-0.2,0-0.3s0-0.1-0.1-0.1c0-0.1,0-0.2,0-0.3c0-0.2,0-0.3-0.1-0.3
		c0-0.1,0-0.1,0-0.2c0-0.1,0-0.2,0-0.2s0-0.1-0.1-0.1c0-0.1-0.1-0.1-0.1-0.1c0-0.1,0-0.1,0-0.3c0-0.1,0-0.2,0-0.3s-0.1-0.1-0.1-0.2
		c0-0.1,0-0.1-0.1-0.2c0-0.1,0-0.2,0-0.3s0-0.3,0-0.3c0-0.1,0-0.2-0.1-0.2c0,0,0-0.2,0-0.4v-0.1v-0.1v-0.1c0-0.1,0-0.1,0-0.1
		s0-0.1-0.1-0.1c0,0,0,0-0.1,0c0-0.1,0-0.2,0-0.3s0-0.2,0-0.3c0,0,0-0.1-0.1-0.2c0-0.1,0-0.1,0-0.2s0-0.2,0-0.2s0-0.1,0-0.2
		c0-0.1,0-0.1,0-0.1v-0.1v-0.1c0-0.1,0-0.1,0-0.1v-0.1v-0.1c0-0.1-0.1-0.1-0.2-0.1c0-0.1,0-0.1,0-0.1s0,0,0.1,0c0,0,0,0,0.1,0v-0.2
		c0-0.1,0-0.2,0-0.4s0-0.3,0-0.4c0-0.1-0.1-0.1-0.1-0.1v-0.1v-0.1v-0.1v-0.1c0-0.2-0.1-0.2-0.1-0.2v-0.1c0,0,0-0.1,0-0.4
		c0,0,0-0.1-0.1-0.2s0-0.2,0-0.2v-0.1v-0.1V48v-0.1v-0.1c0-0.1,0-0.2,0-0.3s-0.1-0.2-0.1-0.3s0-0.2-0.1-0.3l0,0h-0.1v-0.1l0,0
		c0-0.1,0-0.1,0-0.3s0-0.2,0-0.2v-0.1c0-0.2,0-0.3,0-0.3s0,0-0.1,0l0,0c0,0,0,0,0-0.1c0,0,0,0,0-0.1s0-0.1,0-0.3s0-0.2,0-0.3
		c0,0,0,0,0-0.1c0,0,0,0,0-0.1c0,0,0-0.1-0.1-0.2c0-0.1,0-0.1,0-0.2c-0.1,0-0.2,0-0.4-0.1c-0.1,0-0.2,0-0.3,0l-0.2-0.2
		c0-0.1-0.1-0.1-0.3-0.2c0,0-0.1-0.1-0.1-0.2c0-0.1-0.1-0.2-0.1-0.2c-0.1-0.1-0.2-0.2-0.3-0.2c0-0.1-0.1-0.2-0.1-0.3s0-0.2,0-0.3
		s0-0.2,0-0.4c0-0.1,0-0.1,0.1-0.3c0.1-0.1,0.1-0.2,0.1-0.3s0.1-0.1,0.1-0.1s0,0,0-0.1l0,0c0,0,0.1,0,0.2,0
		C24.8,42.4,24.9,42.4,24.9,42.3z M24.6,42.4c0.2,0,0.3-0.1,0.3-0.2c0.1,0.1,0.1,0.1,0.1,0.1c0-0.1,0.1-0.1,0.2-0.1s0.2,0,0.2,0h0.1
		h0.1h0.1c0.1,0,0.1,0,0.1,0c0.1,0,0.1,0,0.3,0s0.2,0,0.3,0h0.1c0.1,0,0.1,0,0.1,0h0.1c0,0,0.1,0,0.1-0.1c0.4,0,0.5,0.1,0.5,0.1
		c0.1,0,0.2,0,0.3,0c0.1,0,0.1,0,0.1,0s0.1,0,0.2,0s0.2,0,0.2,0c0.1,0,0.1,0,0.1,0s0.1,0,0.2,0s0.1,0,0.2,0s0.1,0,0.1,0.1h0.1h0.1
		H29c0.1,0,0.1,0,0.1,0s0,0.1,0.1,0.1c0,0,0,0,0.1,0h0.1c0.1,0,0.2,0,0.3,0c0.1,0,0.2,0,0.3,0c0,0,0.1,0,0.2,0.1
		c0.1,0,0.2,0,0.2-0.1c0,0,0,0,0.1,0c0,0,0,0,0.1,0s0.3,0,0.5,0.1s0.4,0.1,0.6,0c0.1-0.1,0.2-0.1,0.2-0.1v0.1
		c0.1,0.1,0.1,0.1,0.1,0.1h0.1c0.1,0,0.1,0,0.1,0h0.1c0.1,0.1,0.1,0.1,0.2,0c0,0.1,0.1,0.1,0.1,0.1c0.1-0.1,0.1,0,0.2,0
		C33,43,33.1,43,33.2,43v0.1c0,0,0.2,0.1,0.5,0.1c0,0.1,0.1,0.1,0.2,0.1c0.1,0,0.2,0,0.2,0.1h0.1c0.4,0.3,0.7,0.5,0.8,0.6h0.1
		c0,0.1,0.1,0.2,0.1,0.2c0.1,0,0.1,0.1,0.2,0.1c0.1,0.1,0.1,0.1,0.2,0.2c0.1,0.1,0.1,0.1,0.2,0.2c0,0.1,0,0.1,0.1,0.2
		c0,0.1,0.1,0.1,0.1,0.2c0.1,0.1,0.2,0.1,0.2,0.2c0,0.1,0,0.1,0,0.1s0,0,0.1,0.1c0,0.1,0.1,0.1,0.1,0.1c0,0.2,0,0.3,0,0.3s0,0,0,0.1
		c0,0,0,0.1,0.1,0.1c0,0,0,0.1,0,0.2c0,0.1,0,0.1,0.1,0.2c0,0,0,0,0.1,0h0.1v0.1h-0.1c0,0.1,0,0.1,0,0.2c0,0.1,0,0.2,0,0.2v0.1
		c0,0.1,0,0.2,0,0.4s0,0.3,0,0.3c0,0.1-0.1,0.1-0.1,0.2c0,0.1,0,0.2,0,0.2c-0.1,0.1-0.1,0.1-0.1,0.1c0,0.1,0,0.1-0.1,0.2
		c0,0.1,0,0.1,0,0.1c-0.1,0.1-0.1,0.2-0.1,0.3c0,0-0.1,0.1-0.1,0.2c-0.1,0.1-0.1,0.2-0.2,0.3v0.1c0,0,0,0.1-0.1,0.1l-0.1,0.1
		c-0.2,0.1-0.4,0.3-0.4,0.6c0,0,0,0-0.1,0c0,0,0,0-0.1,0c0,0-0.1,0.1-0.1,0.2c-0.3,0.2-0.4,0.4-0.5,0.5s-0.2,0.1-0.2,0.2
		c-0.3,0.2-0.5,0.4-0.6,0.6c-0.1,0-0.2,0.1-0.3,0.2l-0.1,0.1c-0.1,0.1-0.1,0.1-0.1,0.1c-0.1,0.1-0.2,0.1-0.2,0.2
		c0,0.1,0,0.1,0.1,0.1l0.1,0.1l0.1,0.1c0.1,0,0.1,0,0.1,0.1c0,0,0,0,0.1,0.1c0,0,0,0,0.1,0s0.1,0,0.1,0s0,0,0.1,0.1
		c0.1,0,0.1,0.1,0.1,0.1s0,0,0.1,0v0.1h0.1c0.1,0.1,0.2,0.1,0.2,0.1c0,0.1,0.1,0.1,0.2,0.2c0.1,0.1,0.2,0.1,0.2,0.2H35
		c0,0,0,0,0.1,0.1c0,0,0,0.1,0.1,0.1h0.1l0.1,0.1c0.1,0.1,0.2,0.2,0.3,0.2c0,0.1,0.1,0.1,0.3,0.1c0.1,0.2,0.2,0.3,0.4,0.2
		c0,0,0.1,0.1,0.1,0.2c0.2,0.1,0.4,0.3,0.5,0.4h0.1c0.2,0.2,0.3,0.3,0.4,0.3c0,0.1,0.1,0.1,0.2,0.1s0.2,0.1,0.2,0.2
		c0.1,0,0.1,0,0.2,0.1c0.1,0.1,0.1,0.1,0.2,0.1c0.1,0.1,0.2,0.2,0.4,0.4c0.2,0.1,0.3,0.3,0.4,0.4h0.1c0.1,0.1,0.2,0.2,0.3,0.2h0.1
		c0,0,0,0,0.1,0c0,0.1,0.1,0.2,0.3,0.3c0.1,0.1,0.2,0.1,0.2,0c0.1,0,0.2,0,0.2,0c0.1,0.1,0.2,0.1,0.3,0.1c0-0.1,0.1-0.1,0.1-0.1
		s0,0,0.1,0.1c0.1-0.1,0.3,0,0.3,0.1c0.1,0.1,0.1,0.2,0.1,0.2s0,0.1,0.1,0.1h0.1c0,0,0.1,0.1,0.1,0.2c0,0.1,0.1,0.2,0.1,0.2V58v0.1
		v0.1l0.1,0.1c0.1,0.1,0.1,0.1,0.1,0.1s0,0.1,0,0.2c0,0.2,0.1,0.4,0,0.4c0,0,0,0.1,0.1,0.2c0,0.1,0,0.2,0,0.4s0,0.3,0,0.4h-0.3
		l-0.1,0.1c0,0.1-0.1,0.1-0.1,0.1s0,0-0.1,0.1c0,0-0.1,0-0.1,0.1c0.1,0.1,0.1,0.1,0.1,0.1s-0.1,0-0.1,0.1c-0.1,0-0.1,0-0.1,0.1
		c0,0,0,0,0,0.1s0,0,0,0.1c-0.1,0.1-0.1,0.1-0.1,0C41,60.8,41,60.8,41,60.8s-0.1,0-0.1,0.1C40.8,61,40.8,61,40.7,61
		c-0.1-0.2-0.2-0.3-0.3-0.3c0,0,0,0-0.1,0h-0.1c0-0.1,0-0.2-0.1-0.2c0,0,0,0-0.1,0l0,0c0,0,0,0,0-0.1s-0.1-0.1-0.2-0.2h-0.1h-0.1
		c-0.1-0.2-0.2-0.3-0.3-0.4H39c-0.1,0-0.1-0.1-0.1-0.2c-0.1-0.1-0.2-0.2-0.4-0.2l-0.1-0.1C38.3,59,38.2,59,38.2,59
		c-0.1,0.1-0.1,0.1-0.1,0.1s0,0-0.1-0.1c0-0.1,0-0.1-0.1-0.1c0,0-0.1,0-0.1-0.1c-0.1,0-0.1-0.1-0.1-0.1c0-0.1-0.1-0.2-0.2-0.1
		c0-0.1,0-0.1,0-0.1c-0.1-0.1-0.2-0.2-0.3-0.3c0,0-0.2-0.1-0.5-0.4c0,0,0,0-0.1,0c0,0,0,0-0.1,0c0-0.1-0.1-0.1-0.2-0.3
		c-0.1,0-0.2-0.1-0.4-0.2h-0.1h-0.1c0,0,0,0,0-0.1v-0.1h-0.1c0,0,0,0-0.1,0s-0.1-0.1-0.2-0.2c0-0.1-0.1-0.1-0.1-0.1s0-0.1-0.1-0.1
		S35,56.6,35,56.6c-0.1,0-0.2-0.1-0.3-0.2c-0.1-0.1-0.2-0.2-0.3-0.2h-0.1c0-0.1-0.1-0.1-0.2-0.2c0-0.1-0.1-0.1-0.3-0.2
		c0,0,0,0-0.1,0c0,0,0,0-0.1-0.1c0,0,0,0-0.1,0c0,0,0,0-0.1,0c0,0,0,0-0.1-0.1h-0.1c-0.1,0-0.2,0-0.2,0s-0.1,0-0.1-0.1
		c-0.1-0.1-0.1-0.1-0.1-0.1c-0.1,0.1-0.1,0.1-0.1,0c0,0,0,0,0-0.1v-0.1c0,0,0,0-0.1,0h-0.1c0,0,0-0.1-0.1-0.1c0,0,0-0.1-0.1-0.1
		h-0.1l-0.1-0.1c0,0-0.1,0-0.2-0.1c-0.1-0.1-0.1-0.1-0.2,0c0-0.1-0.1-0.1-0.2-0.1s-0.1-0.1-0.2-0.1s-0.2,0-0.3-0.1
		c-0.1,0-0.2-0.1-0.3-0.2c0,0-0.1,0-0.3,0.1l0,0v-0.1c0,0-0.1,0-0.2,0c0,0,0,0,0-0.1c0,0,0,0,0-0.1c-0.2-0.2-0.4-0.2-0.5-0.2
		c-0.1-0.1-0.2-0.2-0.3-0.2c0,0-0.1-0.1-0.2-0.1c0,0-0.1,0-0.1-0.1c0,0-0.1,0.1-0.1,0.2c0,0.2,0,0.3,0,0.4c0,0,0,0.1,0.1,0.1
		c0,0,0,0,0,0.1s0,0,0,0.1s0,0.1,0,0.1c0,0.3,0,0.5,0.1,0.6v0.3v0.1c0,0,0,0.1,0.1,0.2c0,0.1,0,0.1,0,0.2c0,0.1,0,0.1,0,0.1l0.1,0.1
		c0,0.1,0,0.1,0.1,0.1c0,0.1,0,0.1,0,0.3s0,0.2,0,0.3c0,0,0,0,0.1,0.1c0,0,0.1,0,0.1,0.1c0,0.2,0,0.3,0,0.4c0,0.1,0,0.2,0.1,0.3
		c0,0,0,0.1,0,0.3c0,0.1,0,0.2,0,0.3h0.1l0.1,0.1c0,0.1,0,0.1-0.1,0.2v0.1c0,0,0,0.1,0,0.3c0,0.1,0,0.3,0,0.5c0,0.3,0,0.4,0,0.4V60
		c0,0,0,0-0.1,0c0,0,0,0-0.1,0.1c0,0.1-0.1,0.1-0.1,0.2c0,0.1-0.1,0.1-0.1,0.2c-0.1,0-0.1,0-0.2,0c-0.2,0.1-0.3,0.2-0.3,0.3
		c0,0,0,0-0.1,0c0,0,0,0-0.1,0c0,0,0,0,0,0.1c0,0,0,0-0.1,0c0,0,0,0-0.1-0.1c0,0-0.1,0-0.2,0c-0.1,0.1-0.1,0.1-0.2,0.1
		c0-0.1,0-0.2-0.1-0.2s-0.3-0.1-0.4-0.3h-0.1h-0.1c0.1-0.1,0-0.2-0.1-0.3s-0.2-0.1-0.2-0.2c0,0,0,0-0.1,0c0,0,0,0-0.1,0
		c-0.1-0.1,0-0.2,0.1-0.2c0-0.1,0-0.1,0-0.2c0-0.1,0-0.1,0-0.1v-0.1c0,0,0-0.1-0.1-0.1h-0.1c0,0,0-0.1,0.1-0.1
		c0.1-0.2,0.1-0.4,0-0.4v-0.4c0-0.1,0.1-0.2,0.1-0.3s0-0.2-0.1-0.3c0-0.1,0-0.2,0-0.3s0-0.2,0-0.3s0-0.1-0.1-0.1c0-0.1,0-0.2,0-0.3
		c0-0.2,0-0.3-0.1-0.3c0-0.1,0-0.1,0-0.2c0-0.1,0-0.2,0-0.2s0-0.1-0.1-0.1c0-0.1-0.1-0.1-0.1-0.1c0-0.1,0-0.1,0-0.3
		c0-0.1,0-0.2,0-0.3s-0.1-0.1-0.1-0.2c0-0.1,0-0.1-0.1-0.2c0-0.1,0-0.2,0-0.3s0-0.3,0-0.3c0-0.1,0-0.2-0.1-0.2c0,0,0-0.2,0-0.4v-0.1
		v-0.1v-0.1c0-0.1,0-0.1,0-0.1s0-0.1-0.1-0.1c0,0,0,0-0.1,0c0-0.1,0-0.2,0-0.3s0-0.2,0-0.3c0,0,0-0.1-0.1-0.2c0-0.1,0-0.1,0-0.2
		s0-0.2,0-0.2s0-0.1,0-0.2c0-0.1,0-0.1,0-0.1v-0.1v-0.1c0-0.1,0-0.1,0-0.1v-0.1v-0.1c0-0.1-0.1-0.1-0.2-0.1c0-0.1,0-0.1,0-0.1
		s0,0,0.1,0c0,0,0,0,0.1,0v-0.2c0-0.1,0-0.2,0-0.4s0-0.3,0-0.4c0-0.1-0.1-0.1-0.1-0.1v-0.1v-0.1v-0.1v-0.1c0-0.2-0.1-0.2-0.1-0.2
		v-0.1c0,0,0-0.1,0-0.4c0,0,0-0.1-0.1-0.2s0-0.2,0-0.2v-0.1v-0.1V48v-0.1v-0.1c0-0.1,0-0.2,0-0.3s-0.1-0.2-0.1-0.3s0-0.2-0.1-0.3
		l0,0h-0.1v-0.1l0,0c0-0.1,0-0.1,0-0.3s0-0.2,0-0.2v-0.1c0-0.2,0-0.3,0-0.3s0,0-0.1,0l0,0c0,0,0,0,0-0.1c0,0,0,0,0-0.1s0-0.1,0-0.3
		s0-0.2,0-0.3c0,0,0,0,0-0.1c0,0,0,0,0-0.1c0,0,0-0.1-0.1-0.2c0-0.1,0-0.1,0-0.2c-0.1,0-0.2,0-0.4-0.1c-0.1,0-0.2,0-0.3,0l-0.2-0.2
		c0-0.1-0.1-0.1-0.3-0.2c0,0-0.1-0.1-0.1-0.2c0-0.1-0.1-0.2-0.1-0.2c-0.1-0.1-0.2-0.2-0.3-0.2c0-0.1-0.1-0.2-0.1-0.3s0-0.2,0-0.3
		s0-0.2,0-0.4c0-0.1,0-0.1,0.1-0.3c0.1-0.1,0.1-0.2,0.1-0.3s0.1-0.1,0.1-0.1s0,0,0-0.1l0,0C24.4,42.4,24.5,42.4,24.6,42.4z
		 M28.4,45.3c0,0,0,0.1,0,0.4v0.1v0.1c0,0.1,0,0.1,0.1,0.2c0.1,0.1,0.1,0.1,0.1,0.2v0.1v0.1c0,0.1,0,0.1,0,0.3c0,0.1,0,0.2,0,0.3
		c0.1,0.1,0.1,0.2,0.1,0.3s0,0.1,0,0.2c0,0,0,0.1,0.1,0.1c0,0.1,0.1,0.1,0.1,0.2c0,0,0,0.1,0,0.2c0,0.1,0,0.2,0,0.2
		c0,0.2,0,0.3,0,0.3v0.1v0.1c0,0,0,0.1,0,0.2c0,0.1,0,0.1,0,0.2c0,0.1,0,0.1,0,0.1s0,0.1,0.1,0.1v0.1c0,0.1,0,0.1,0,0.3
		c0,0.1,0,0.2,0,0.3v0.1c0,0,0,0,0.1,0c0,0.1,0,0.2,0,0.3s0,0.2,0.1,0.3c-0.1,0.1-0.1,0.2,0,0.4c0,0.1,0,0.1,0.1,0.2
		c0,0,0.1,0,0.2,0s0.2,0,0.2,0v-0.1c0,0,0,0,0.1,0h0.1H30h0.1c0.2,0,0.3-0.1,0.3-0.1h0.1c0-0.1,0.2-0.1,0.3-0.1c0.1,0,0.1,0,0.2,0
		s0.1-0.1,0.2-0.1c0-0.1,0.1-0.1,0.1-0.1s0,0,0.1,0s0.1-0.1,0.2-0.2c0.1-0.1,0.1-0.1,0.1-0.2c0.1,0,0.2-0.1,0.3-0.3s0.2-0.2,0.3-0.3
		c0.2-0.2,0.4-0.4,0.5-0.4c0-0.1,0.1-0.2,0.1-0.3C33,49.1,33,49,33,49c0.1-0.1,0.2-0.2,0.3-0.4s0.2-0.4,0.2-0.4c0-0.1,0-0.2,0.1-0.3
		s0.1-0.2,0.1-0.3c0.2-0.2,0.2-0.4,0.1-0.6c0,0,0-0.1,0-0.3c0-0.1-0.1-0.1-0.2-0.2c-0.1-0.1-0.2-0.1-0.2-0.2c0,0-0.1,0-0.1-0.1
		c-0.1,0-0.1,0-0.2,0c0-0.1-0.1-0.1-0.3-0.1c-0.1,0-0.1,0-0.1,0s-0.1,0-0.1-0.1l-0.1-0.1h-0.1h-0.1c0,0-0.1,0-0.1-0.1
		s-0.1-0.1-0.2,0c-0.1,0-0.2,0-0.2,0c-0.2-0.1-0.3-0.1-0.3,0c0-0.1-0.2-0.1-0.4-0.1c-0.1,0-0.2,0-0.2,0c-0.1,0-0.2,0-0.3,0
		s0,0-0.1,0l-0.1-0.1c-0.2,0-0.3,0-0.3,0H30c0,0-0.2,0-0.4,0c0,0-0.1,0-0.1-0.1l-0.1-0.1c-0.1,0-0.3,0-0.4,0s-0.1,0-0.2-0.1
		c-0.1,0-0.2,0-0.3,0C28.6,45.3,28.5,45.3,28.4,45.3z M29.2,45.3c-0.1,0-0.1,0-0.2-0.1c-0.1,0-0.2,0-0.3,0c-0.1,0-0.2,0-0.3,0
		c0,0,0,0.1,0,0.4v0.1v0.1c0,0.1,0,0.1,0.1,0.2c0.1,0.1,0.1,0.1,0.1,0.2v0.1v0.1c0,0.1,0,0.1,0,0.3c0,0.1,0,0.2,0,0.3
		c0.1,0.1,0.1,0.2,0.1,0.3s0,0.1,0,0.2c0,0,0,0.1,0.1,0.1c0,0.1,0.1,0.1,0.1,0.2c0,0,0,0.1,0,0.2c0,0.1,0,0.2,0,0.2
		c0,0.2,0,0.3,0,0.3v0.1v0.1c0,0,0,0.1,0,0.2c0,0.1,0,0.1,0,0.2c0,0.1,0,0.1,0,0.1s0,0.1,0.1,0.1v0.1c0,0.1,0,0.1,0,0.3
		c0,0.1,0,0.2,0,0.3v0.1c0,0,0,0,0.1,0c0,0.1,0,0.2,0,0.3s0,0.2,0.1,0.3c-0.1,0.1-0.1,0.2,0,0.4c0,0.1,0,0.1,0.1,0.2
		c0,0,0.1,0,0.2,0s0.2,0,0.2,0v-0.1c0,0,0,0,0.1,0h0.1H30h0.1c0.2,0,0.3-0.1,0.3-0.1h0.1c0-0.1,0.2-0.1,0.3-0.1c0.1,0,0.1,0,0.2,0
		s0.1-0.1,0.2-0.1c0-0.1,0.1-0.1,0.1-0.1s0,0,0.1,0s0.1-0.1,0.2-0.2c0.1-0.1,0.1-0.1,0.1-0.2c0.1,0,0.2-0.1,0.3-0.3
		c0.1-0.2,0.2-0.2,0.3-0.3c0.2-0.2,0.4-0.4,0.5-0.4c0-0.1,0.1-0.2,0.1-0.3C33,49,33,48.9,33,48.9c0.1-0.1,0.2-0.2,0.3-0.4
		s0.2-0.4,0.2-0.4c0-0.1,0-0.2,0.1-0.3s0.1-0.2,0.1-0.3c0.2-0.2,0.2-0.4,0.1-0.6c0,0,0-0.1,0-0.3c0-0.1-0.1-0.1-0.2-0.2
		c-0.1-0.1-0.2-0.1-0.2-0.2c0,0-0.1,0-0.1-0.1c-0.1,0-0.1,0-0.2,0c0-0.1-0.1-0.1-0.3-0.1c-0.1,0-0.1,0-0.1,0s-0.1,0-0.1-0.1
		l-0.1-0.1h-0.1h-0.1c0,0-0.1,0-0.1-0.1s-0.1-0.1-0.2,0c-0.1,0-0.2,0-0.2,0c-0.2-0.1-0.3-0.1-0.3,0c0-0.1-0.2-0.1-0.4-0.1
		c-0.1,0-0.2,0-0.2,0c-0.1,0-0.2,0-0.3,0s0,0-0.1,0l-0.1-0.1c-0.2,0-0.3,0-0.3,0H30c0,0-0.2,0-0.4,0c0,0-0.1,0-0.1-0.1l-0.1-0.1
		C29.5,45.3,29.3,45.3,29.2,45.3z M41.5,60.1L41.5,60.1C41.5,60.2,41.5,60.2,41.5,60.1C41.5,60.2,41.5,60.2,41.5,60.1L41.5,60.1z
		 M41.5,60.2L41.5,60.2C41.5,60.1,41.5,60.1,41.5,60.2C41.5,60.1,41.5,60.1,41.5,60.2L41.5,60.2z"/>
	<path fill="#2B5799" d="M55.5,41.1L55.5,41.1C55.5,41.2,55.5,41.2,55.5,41.1c0.1,0.1,0.3,0.1,0.5,0.3s0.3,0.3,0.4,0.3
		c0,0.1,0.1,0.2,0.2,0.4s0.2,0.3,0.2,0.4h0.1c0,0.1,0,0.1-0.1,0.1l-0.1,0.1v0.1v0.1c0,0.1,0,0.2-0.1,0.3s-0.1,0.2-0.1,0.3
		c-0.1,0-0.1,0-0.1,0s0,0.1,0,0.2c0,0.1-0.1,0.1-0.1,0.1L56.2,44c0,0-0.1,0-0.2,0.1h-0.1c0,0,0,0.1-0.1,0.1s-0.1,0-0.1,0l0,0
		c0,0,0,0-0.1,0c0,0,0,0-0.1,0s-0.2,0-0.3,0.1c-0.1,0-0.2-0.1-0.4-0.2c-0.1,0-0.2,0-0.2-0.1c-0.1-0.1-0.1-0.1-0.2-0.1h-0.1
		c0,0,0,0-0.1,0s-0.2,0-0.3,0s-0.3,0-0.3,0.1c-0.1-0.1-0.2-0.1-0.4,0c0,0,0,0-0.1,0c0,0,0,0-0.1,0s-0.1,0-0.1,0c-0.1,0-0.1,0-0.1,0
		s-0.1,0-0.3,0s-0.3,0-0.3,0.1v0.1c0,0.1,0,0.1,0,0.1s0,0,0,0.1s0,0.1,0,0.1s0,0.1,0.1,0.1c0,0.1,0.1,0.1,0.1,0.2c0,0,0,0.1,0,0.2
		c0,0.1,0,0.2,0,0.2c0,0.1,0,0.2,0,0.2c0,0.1,0.1,0.1,0.2,0.1c0,0.1,0,0.1-0.1,0.2c0,0.1,0,0.1,0,0.2c0,0.1,0,0.2,0,0.2
		s0,0.1,0.1,0.1l0.1,0.1c0,0.1,0,0.2,0,0.4s0,0.3,0,0.4v0.1v0.1c0,0.1,0,0.2,0,0.2v0.1c0,0.1,0,0.1,0,0.2c0,0.3,0,0.5,0.1,0.5v0.1
		v0.1c0,0,0,0,0.1,0.1c0,0,0.1,0,0.1,0.1c0,0,0,0-0.1,0h-0.1l0,0c0,0,0,0.1,0.1,0.1v0.1V49c0,0,0,0.1,0,0.2c0,0.1,0,0.2,0,0.2
		c0,0.1,0,0.1,0,0.1s0,0,0,0.1v0.1c0,0.1,0,0.1,0,0.1c0,0.1,0,0.1,0,0.1V50v0.1c0,0.1,0,0.1,0,0.1c0,0.1,0.1,0.2,0,0.3
		c0,0.1,0,0.2,0,0.2s0.1,0,0.1,0.1v0.1c0,0,0,0.1-0.1,0.1c0,0.1-0.1,0.1-0.1,0.1l0.1,0.1c0,0,0,0.1,0.1,0.1c0,0,0,0,0,0.1
		s0,0.2,0,0.3c0,0.2,0,0.3,0,0.4c0,0.1,0,0.1,0,0.1s0,0,0,0.1v0.1c0,0,0,0.1,0,0.3c0,0.1,0,0.2,0,0.4c0,0,0,0.1,0,0.2
		c0,0.1,0,0.2,0,0.3l0.1,0.1c0,0.1,0,0.1,0,0.2c0,0.1,0,0.1,0,0.1s0,0.1,0.1,0.1c0,0.1,0.1,0.1,0.1,0.2c0,0.1,0,0.1,0,0.2
		c0,0.1,0,0.2,0,0.2s0,0.1,0.1,0.2c0,0.1,0,0.1,0,0.1s0,0.1,0,0.3c0,0.1,0,0.2,0,0.3c0,0,0,0.1,0,0.2c0,0.1,0,0.1,0,0.2
		c0,0.1,0,0.1,0,0.1s0,0,0,0.1c0,0,0,0,0.1,0c0,0.1,0,0.1,0,0.2c0,0.1,0,0.1,0,0.2v0.1v0.1v0.1c0,0.1,0,0.2,0.1,0.2
		c0,0.1,0.1,0.2,0.2,0.3c0.1,0,0.2,0,0.4,0s0.3,0,0.4,0h0.1c0,0,0-0.1,0.1-0.1c0.2,0,0.3,0,0.3,0.1c0,0,0,0,0.1,0c0,0,0,0,0.1,0h0.1
		h0.1h0.1h0.1c0.1,0.1,0.2,0.1,0.4,0h0.1c0.1,0,0.1,0,0.1,0l0.1-0.1h0.1c0.1,0,0.1,0,0.1,0v-0.1v-0.1h0.1c0,0,0,0,0,0.1s0,0.1,0,0.1
		c0.1,0,0.1,0,0.2-0.1c0.1-0.1,0.1-0.1,0.2,0v0.1c0.4,0.1,0.7,0.1,1,0.1h0.1c0.3,0.1,0.5,0.1,0.5,0l0.1,0.1c0.1,0,0.1,0.1,0.1,0.1
		c0.1,0,0.2,0,0.3,0c0,0.1,0,0.2,0.1,0.2c0.1,0.1,0.1,0.2,0.1,0.3h0.1h0.1c0,0.1,0,0.1,0,0.2c0.2,0.2,0.3,0.4,0.2,0.6V59v0.1
		c0,0.1,0.1,0.1,0.1,0.1c0,0.1-0.1,0.1-0.1,0.1c0,0.1,0,0.2-0.1,0.3c0.3-0.1,0.3,0,0.3,0.1c0,0-0.1,0-0.1,0.1s-0.1,0.1-0.1,0.1V60
		c-0.2,0-0.3,0.1-0.4,0.1v0.1c0,0-0.1,0-0.2,0c-0.1,0-0.2,0.1-0.2,0.2h-0.1c0-0.2-0.1-0.2-0.3-0.2c0,0,0,0-0.1,0.1h-0.1
		c-0.1,0-0.1-0.1-0.1-0.1c-0.1,0-0.1,0-0.2,0.1c-0.1,0-0.3,0-0.5,0s-0.4,0-0.5,0c0-0.1-0.1-0.1-0.1-0.1s0,0-0.1,0.1
		c0,0,0,0.1-0.1,0.1c0,0-0.1,0-0.3,0s-0.2,0-0.3,0l0.1-0.4c0,0,0,0-0.1,0c0,0,0,0.1-0.1,0.1L56,60c-0.1,0-0.1-0.1-0.2-0.1
		c-0.2,0-0.3,0-0.3,0c-0.1,0-0.1,0.1-0.1,0.2c0,0-0.1,0-0.2,0c-0.1,0-0.2,0-0.2,0s0,0-0.1-0.1c0,0,0,0-0.1-0.1c0,0-0.1,0-0.2,0.1
		c-0.1,0-0.1,0.1-0.1,0.1C54.4,60,54.4,60,54.4,60c-0.1,0-0.1,0.1-0.1,0.2c-0.1,0-0.1,0-0.1-0.1c-0.1,0-0.1,0-0.2,0
		c-0.2,0-0.4,0-0.4,0.1c0,0-0.1,0-0.1-0.1c-0.2,0.1-0.3,0.2-0.3,0.2c-0.1,0-0.2,0-0.2,0c-0.1-0.1-0.2-0.1-0.4-0.1
		c-0.1,0-0.1,0-0.2,0c0,0,0,0-0.1,0v0.1c-0.1,0-0.2,0-0.3,0s-0.2,0-0.3,0.1c0,0-0.1,0-0.2,0c0,0,0,0-0.1,0c0,0,0,0-0.1,0h-0.1
		c-0.1,0-0.2,0.1-0.3,0.2c0,0-0.1,0-0.2,0c-0.1,0-0.2,0-0.3,0s-0.1,0-0.1,0s0,0-0.1,0v0.1c0,0-0.1,0-0.1-0.1v-0.1
		c-0.1,0-0.1,0-0.1,0.1l0,0c0,0,0,0-0.1,0c0,0,0,0-0.1,0s-0.1,0.1-0.1,0.2c-0.3,0.1-0.4,0-0.4-0.1c-0.1,0-0.2,0.1-0.3,0.1
		c0,0.1,0,0.1,0,0.1s-0.1,0-0.2,0c0,0,0,0-0.1,0c0,0-0.1,0-0.1-0.1c-0.2,0-0.4,0-0.6,0.1C47.8,61,47.6,61,47.6,61c0,0.1,0,0.1,0,0.1
		c-0.1,0-0.1,0-0.1,0h-0.1c0,0,0,0,0-0.1v-0.1l0,0l0,0h-0.1h-0.1c0,0,0,0-0.1,0H47c0,0-0.1,0-0.2,0c-0.1,0-0.2,0-0.2,0
		c-0.1,0-0.1,0-0.1,0c-0.1,0-0.1,0-0.3,0c-0.1,0-0.2,0-0.3,0h-0.1h-0.1h-0.1c-0.1,0-0.3,0-0.4,0c0,0,0,0,0,0.1v0.1l0,0
		c0,0,0-0.1,0-0.2h-0.1c-0.1,0-0.1,0-0.1-0.1h-0.1c0-0.2-0.1-0.3-0.3-0.3c0,0.1,0,0.1,0,0.1c-0.1,0-0.1,0-0.1,0c0-0.1,0-0.2-0.1-0.4
		c-0.1-0.1-0.2-0.2-0.2-0.2s0-0.1,0-0.2c0-0.1,0-0.1,0-0.2c0-0.3-0.1-0.4,0-0.5c0,0,0.1-0.1,0.1-0.2c0-0.1,0-0.2,0-0.2s0,0,0.1,0
		h0.1c0.1-0.2,0.3-0.4,0.5-0.5c0.5,0,1.1,0,1.7,0c0-0.1,0.1-0.1,0.2-0.1c0.1,0,0.1,0,0.1,0.1c0,0,0.1,0,0.2,0c0.1,0,0.1-0.1,0.1-0.1
		s0.1,0,0.2,0.1c0.1,0,0.1,0,0.1,0s0.1,0,0.1-0.1l0.1-0.1c0,0,0.1,0,0.1,0.1l0.1,0.1c0,0,0.1,0,0.1-0.1H48c0.1-0.1,0.2-0.2,0.4-0.2
		c0,0,0.1-0.1,0.4-0.1h0.1c0,0,0.1,0,0.2,0s0.1,0,0.2,0h0.1c0,0,0.1,0,0.1-0.1h0.1h0.1c0,0,0-0.1,0.1-0.1s0.2,0,0.3,0
		c0.2,0,0.3,0,0.3-0.1c0,0,0,0,0-0.1c0,0,0,0,0-0.1c0,0,0.3,0,0.7,0c0.1-0.1,0.1-0.2,0-0.4c0-0.3,0-0.5-0.1-0.7c0.1,0,0.1-0.1,0-0.2
		c0-0.1,0-0.1,0-0.2c0-0.1,0-0.1,0-0.1s0,0,0-0.1v-0.1v-0.1c0-0.1,0-0.1,0-0.1c-0.1-0.1-0.2-0.3-0.1-0.5c0-0.1,0-0.3,0-0.6
		s0-0.4,0-0.5c0,0-0.1,0-0.1-0.1c0,0,0,0-0.1,0c0,0,0,0,0-0.1v-0.1c0.1,0,0.1-0.1,0.1-0.1c0-0.1,0-0.1-0.1-0.1c0-0.1,0-0.2,0-0.4
		s0-0.3,0-0.3c0-0.1,0-0.1,0-0.2c0-0.1,0-0.1,0-0.2V52c0-0.1,0-0.1,0-0.1s0-0.1,0-0.2c0-0.1,0-0.2,0-0.2s0,0-0.1,0
		c0-0.1,0-0.2,0-0.3s0-0.2,0-0.5s0-0.5,0-0.6V50c0,0,0,0,0-0.1s0,0,0-0.1v-0.1v-0.1c0-0.1,0-0.1,0-0.1s0,0,0.1-0.1
		c0,0,0.1,0,0.1-0.1c0,0-0.1-0.1-0.1-0.4c-0.1,0-0.2-0.2-0.1-0.5c0.1,0,0.1,0,0.1,0l0,0c0,0,0,0-0.1,0l0,0c0,0,0-0.1,0-0.2
		c0,0,0,0,0.1,0c0-0.1,0-0.2,0-0.3c0-0.2,0-0.3-0.1-0.4c0-0.1-0.1-0.2-0.2-0.2v-0.2h0.1c0,0,0-0.1,0-0.2c0-0.1,0-0.3,0-0.4
		c0-0.2,0-0.2-0.1-0.3c0,0,0,0,0-0.1s0-0.1,0-0.1s0,0,0-0.1s0-0.1,0-0.1c0-0.1,0.1-0.1,0.1-0.1c0-0.1,0-0.2,0-0.2s-0.1-0.1-0.1-0.4
		V45c0,0,0,0,0-0.1l0,0c0,0,0,0,0-0.1c0,0,0-0.1-0.1-0.1l-0.1-0.1v-0.1c0-0.1,0-0.1,0-0.1c0-0.1,0-0.2-0.1-0.3c0-0.1,0-0.2-0.1-0.3
		s-0.1-0.2-0.1-0.3h-0.1v0.1c0-0.1-0.1-0.1-0.3,0v-0.1v-0.1h-0.1v0.1v0.1h-0.1c0,0,0,0-0.1,0h-0.1c-0.1,0-0.1,0-0.1,0s0,0-0.1,0
		c0,0,0,0-0.1,0s-0.1,0.1-0.1,0.2h-0.1v-0.1c-0.1-0.1-0.1-0.1-0.2,0v0.1l0,0h-0.1c0,0,0,0-0.1,0s-0.2,0-0.4,0s-0.3,0-0.3,0
		c-0.2,0-0.3,0-0.3,0c-0.1-0.1-0.2-0.1-0.2,0c-0.1,0-0.2,0-0.3,0s-0.2,0-0.2,0c-0.1,0-0.2,0-0.3,0s-0.3,0-0.3,0s-0.1,0-0.1,0.1l0,0
		v-0.1c0,0.1-0.1,0.1-0.1,0.1c-0.1,0-0.1-0.1-0.1-0.1h-0.1c0,0,0-0.1-0.1-0.1l-0.1-0.1c-0.2,0.1-0.4,0-0.5-0.2c0,0-0.1-0.1-0.2-0.2
		c-0.1-0.1-0.2-0.2-0.2-0.2c-0.1,0-0.1,0-0.2-0.1c-0.1-0.1-0.1-0.1-0.1-0.2c-0.2-0.2-0.3-0.3-0.4-0.4c0-0.1,0-0.2-0.1-0.3
		c0,0,0-0.1,0.1-0.2c0-0.2,0.1-0.4,0.4-0.7c0.1,0,0.1-0.1,0.2-0.2h0.1h0.1c0,0,0,0,0.1-0.1l0.1-0.1c0,0,0.1,0,0.2,0
		c0.1,0,0.2,0,0.3,0l0.1-0.1l0.1-0.1c0,0,0.1,0,0.2,0.1c0.1,0.1,0.2,0.1,0.2,0.1h0.1H46c0.1,0,0.2,0,0.4,0s0.3,0,0.4,0
		c0.1,0,0.2,0,0.3-0.1c0.2,0.1,0.3,0.1,0.3,0c0,0,0,0,0.1,0c0,0,0,0,0.1,0h0.1c0,0,0,0,0-0.1c0.1,0,0.2,0,0.4,0s0.3,0,0.3-0.1
		c0.1,0.1,0.3,0.1,0.5,0c0,0,0,0,0-0.1c0,0,0.1,0,0.1-0.1c0.1,0,0.3,0,0.4,0c0.2,0,0.3,0,0.4,0c0.1,0,0.2-0.1,0.2-0.2
		c0,0,0.1,0,0.2,0.1h0.1c0.6,0,0.9,0,1-0.1c0,0,0.1,0,0.2,0c0,0,0,0,0.1,0c0,0,0,0,0.1,0c0.1-0.1,0.2-0.1,0.3-0.1s0.3,0,0.3,0
		c0-0.1,0.1-0.1,0.1-0.1h0.3h0.1c0.1,0,0.1,0,0.1,0c0.1,0,0.1,0,0.2,0c0.3,0,0.4,0,0.5-0.1l0.1,0.1c0.2-0.2,0.3-0.2,0.5,0
		c0,0,0.1,0,0.2,0c0.1,0,0.2,0,0.2,0h0.1h0.1c0.1,0,0.1,0,0.1,0s0.1,0,0.3,0c0.1,0,0.3,0,0.3,0C55.3,41.1,55.4,41.1,55.5,41.1z
		 M55.2,41.2c0.1-0.1,0.2-0.1,0.2-0.1v0.1l0,0c0.1,0,0.3,0,0.5,0.2s0.3,0.3,0.4,0.3c0,0.1,0.1,0.2,0.2,0.4s0.2,0.3,0.2,0.4h0.1
		c0,0.1,0,0.1-0.1,0.1l-0.1,0.1v0.1v0.1c0,0.1,0,0.2-0.1,0.3s-0.1,0.2-0.1,0.3c-0.1,0-0.1,0-0.1,0s0,0.1,0,0.2
		c0,0.1-0.1,0.1-0.1,0.1L56.1,44c0,0-0.1,0-0.2,0.1h-0.1c0,0,0,0.1-0.1,0.1s-0.1,0-0.1,0l0,0c0,0,0,0-0.1,0c0,0,0,0-0.1,0
		s-0.2,0-0.3,0.1c-0.1,0-0.2-0.1-0.4-0.2c-0.1,0-0.2,0-0.2-0.1c-0.1-0.1-0.1-0.1-0.2-0.1h-0.1c0,0,0,0-0.1,0s-0.2,0-0.3,0
		s-0.3,0-0.3,0.1c-0.1-0.1-0.2-0.1-0.4,0c0,0,0,0-0.1,0c0,0,0,0-0.1,0s-0.1,0-0.1,0c-0.1,0-0.1,0-0.1,0s-0.1,0-0.3,0s-0.3,0-0.3,0.1
		v0.1c0,0.1,0,0.1,0,0.1s0,0,0,0.1s0,0.1,0,0.1s0,0.1,0.1,0.1c0,0.1,0.1,0.1,0.1,0.2c0,0,0,0.1,0,0.2c0,0.1,0,0.2,0,0.2
		c0,0.1,0,0.2,0,0.2c0,0.1,0.1,0.1,0.2,0.1c0,0.1,0,0.1-0.1,0.2c0,0.1,0,0.1,0,0.2c0,0.1,0,0.2,0,0.2s0,0.1,0.1,0.1l0.1,0.1
		c0,0.1,0,0.2,0,0.4s0,0.4,0,0.4c0,0.1,0.1,0.1,0.1,0.2c0,0.1,0,0.2,0,0.2v0.1c0,0.1,0,0.1,0,0.2c0,0.3,0,0.5,0.1,0.5v0.1v0.1
		c0,0,0,0,0.1,0.1c0,0,0.1,0,0.1,0.1c0,0,0,0-0.1,0h-0.1c0,0.1,0,0.1,0.1,0.2V49v0.1c0,0,0,0.1,0,0.2c0,0.1,0,0.2,0,0.2
		c0,0.1,0,0.1,0,0.1s0,0,0,0.1v0.1c0,0.1,0,0.1,0,0.1c0,0.1,0,0.1,0,0.1v0.1v0.1c0,0.1,0,0.1,0,0.1c0,0.1,0.1,0.2,0,0.3
		c0,0.1,0,0.2,0,0.2s0.1,0,0.1,0.1V51c0,0,0,0.1-0.1,0.1c0,0.1-0.1,0.1-0.1,0.1l0.1,0.1c0,0,0,0.1,0.1,0.1c0,0,0,0,0,0.1
		s0,0.2,0,0.3c0,0.2,0,0.3,0,0.4c0,0.1,0,0.1,0,0.1s0,0,0,0.1v0.1c0,0,0,0.1,0,0.3c0,0.1,0,0.2,0,0.4c0,0,0,0.1,0,0.2
		c0,0.1,0,0.2,0,0.3l0.1,0.1c0,0.1,0,0.1,0,0.2c0,0.1,0,0.1,0,0.1s0,0.1,0.1,0.1c0,0.1,0.1,0.1,0.1,0.2c0,0.1,0,0.1,0,0.2
		c0,0.1,0,0.2,0,0.2s0,0.1,0.1,0.2c0,0.1,0,0.1,0,0.1s0,0.1,0,0.3c0,0.1,0,0.2,0,0.3c0,0,0,0.1,0,0.2c0,0.1,0,0.1,0,0.2
		c0,0.1,0,0.1,0,0.1s0,0,0,0.1c0,0,0,0,0.1,0c0,0.1,0,0.1,0,0.2c0,0.1,0,0.1,0,0.2v0.1v0.1V57c0,0.1,0,0.2,0.1,0.2
		c0,0.1,0.1,0.2,0.2,0.3c0.1,0,0.2,0,0.4,0s0.3,0,0.4,0h0.1c0,0,0-0.1,0.1-0.1c0.2,0,0.3,0,0.3,0.1c0,0,0,0,0.1,0c0,0,0,0,0.1,0h0.1
		h0.1h0.1h0.1c0.1,0.1,0.2,0.1,0.4,0h0.1c0.1,0,0.1,0,0.1,0l0.1-0.1h0.1c0.1,0,0.1,0,0.1,0c0-0.1,0-0.1,0-0.1h0.1c0,0,0,0,0,0.1
		s0,0.1,0,0.1c0.1,0,0.1,0,0.2-0.1c0.1-0.1,0.1-0.1,0.2,0v0.1c0.4,0.1,0.7,0.1,1,0.1h0.1c0.3,0.1,0.5,0.1,0.5,0l0.1,0.1
		c0.1,0,0.1,0.1,0.1,0.1c0.1,0,0.2,0,0.3,0c0,0.1,0,0.2,0.1,0.2c0.1,0.1,0.1,0.2,0.1,0.3h0.1h0.1c0,0.1,0,0.1,0,0.2
		c0.2,0.2,0.3,0.4,0.2,0.5v0.1v0.1c0,0.1,0.1,0.1,0.1,0.1c0,0.1-0.1,0.1-0.1,0.1c0,0.1,0,0.2-0.1,0.3c0.3-0.2,0.3-0.1,0.3,0
		c0,0-0.1,0-0.1,0.1s-0.1,0.1-0.1,0.1V60c-0.2,0-0.3,0.1-0.4,0.1v0.1c0,0-0.1,0-0.2,0c-0.1,0-0.2,0.1-0.2,0.2h-0.1
		c0-0.2-0.1-0.2-0.3-0.2c0,0,0,0-0.1,0.1h-0.1c-0.1,0-0.1-0.1-0.1-0.1c-0.1,0-0.1,0-0.2,0.1c-0.1,0-0.3,0-0.5,0s-0.4,0-0.5,0
		c0-0.1-0.1-0.2-0.1-0.2s0,0.1-0.1,0.1c0,0,0,0.1-0.1,0.1c0,0-0.1,0-0.3,0s-0.2,0-0.3,0l0.1-0.3c0,0,0,0-0.1,0c0,0,0,0.1-0.1,0.1
		L56,60c-0.1,0-0.1-0.1-0.2-0.1c-0.2,0-0.3,0-0.3,0c-0.1,0-0.1,0.1-0.1,0.2c0,0-0.1,0-0.2,0c-0.1,0-0.2,0-0.2,0s0,0-0.1-0.1
		c0,0,0,0-0.1-0.1c0,0-0.1,0-0.2,0.1c-0.1,0-0.1,0.1-0.1,0.1C54.4,60,54.4,60,54.4,60c-0.1,0-0.1,0.1-0.1,0.2c-0.1,0-0.1,0-0.1-0.1
		c-0.1,0-0.1,0-0.2,0c-0.2,0-0.4,0-0.4,0.1c0,0-0.1,0-0.1-0.1c-0.2,0.1-0.3,0.2-0.3,0.2c-0.1,0-0.2,0-0.2,0
		c-0.1-0.1-0.2-0.1-0.4-0.1c-0.1,0-0.1,0-0.2,0c0,0,0,0-0.1,0v0.1c-0.1,0-0.2,0-0.3,0s-0.2,0-0.3,0.1c0,0-0.1,0-0.2,0c0,0,0,0-0.1,0
		c0,0,0,0-0.1,0h-0.1c-0.1,0-0.2,0.1-0.3,0.2c0,0-0.1,0-0.2,0c-0.1,0-0.2,0-0.3,0s-0.1,0-0.1,0s0,0-0.1,0v0.1c0,0-0.1,0-0.1-0.1
		v-0.1c-0.1,0-0.1,0-0.1,0.1l0,0c0,0,0,0-0.1,0c0,0,0,0-0.1,0s-0.1,0.1-0.1,0.2c-0.3,0.1-0.4,0-0.4-0.1c-0.1,0-0.2,0.1-0.3,0.1
		c0,0.1,0,0.1,0,0.1s-0.1,0-0.2,0c0,0,0,0-0.1,0c0,0-0.1,0-0.1-0.1c-0.2,0-0.4,0-0.6,0.1C47.8,61,47.6,61,47.6,61c0,0.1,0,0.1,0,0.1
		c-0.1,0-0.1,0-0.1,0h-0.1c0,0,0,0,0-0.1v-0.1l0,0l0,0h-0.1h-0.1c0,0,0,0-0.1,0H47c0,0-0.1,0-0.2,0c-0.1,0-0.2,0-0.2,0
		c-0.1,0-0.1,0-0.1,0c-0.1,0-0.1,0-0.3,0c-0.1,0-0.2,0-0.3,0h-0.1h-0.1h-0.1c-0.1,0-0.3,0-0.4,0c0,0,0,0,0,0.1v0.1l0,0
		c0,0,0,0,0-0.1h-0.1C45,61,45,61,45,60.9h-0.1c0-0.2-0.1-0.3-0.3-0.3c0,0.1,0,0.1,0,0.1c-0.1,0-0.1,0-0.1,0c0-0.1,0-0.2-0.1-0.4
		c-0.1-0.1-0.2-0.2-0.2-0.2s0-0.1,0-0.2c0-0.1,0-0.1,0-0.2c0-0.3-0.1-0.4,0-0.5c0,0,0.1-0.1,0.1-0.2c0-0.1,0-0.2,0-0.2s0,0,0.1,0
		h0.1c0.1-0.2,0.3-0.4,0.5-0.5c0.5,0,1.1,0,1.7,0c0-0.1,0.1-0.1,0.2-0.1c0.1,0,0.1,0,0.1,0.1c0,0,0.1,0,0.2,0c0.1,0,0.1-0.1,0.1-0.1
		s0.1,0,0.2,0.1c0.1,0,0.1,0,0.1,0s0.1,0,0.1-0.1l0.1-0.1c0,0,0.1,0,0.1,0.1l0.1,0.1c0,0,0.1,0,0.1-0.1H48c0.1-0.1,0.2-0.2,0.4-0.2
		c0,0,0.1-0.1,0.4-0.1h0.1c0,0,0.1,0,0.2,0s0.1,0,0.2,0h0.1c0,0,0.1,0,0.1-0.1h0.1h0.1c0,0,0-0.1,0.1-0.1s0.2,0,0.3,0
		c0.2,0,0.3,0,0.3-0.1c0,0,0,0,0-0.1c0,0,0,0,0-0.1c0,0,0.3,0,0.7,0c0.1-0.1,0.1-0.2,0-0.4c0-0.3,0-0.5-0.1-0.7c0.1,0,0.1-0.1,0-0.2
		c0-0.1,0-0.1,0-0.2c0-0.1,0-0.1,0-0.1s0,0,0-0.1v-0.1v-0.1c0-0.1,0-0.1,0-0.1c-0.1-0.1-0.2-0.3-0.1-0.5c0-0.1,0-0.3,0-0.6
		s0-0.4,0-0.5c0,0-0.1,0-0.1-0.1c0,0,0,0-0.1,0c0,0,0,0,0-0.1v-0.1c0.1,0,0.1-0.1,0.1-0.1c0-0.1,0-0.1-0.1-0.1c0-0.1,0-0.2,0-0.4
		s0-0.3,0-0.3c0-0.1,0-0.1,0-0.2c0-0.1,0-0.1,0-0.2v-0.1c0-0.1,0-0.1,0-0.1s0-0.1,0-0.2c0-0.1,0-0.2,0-0.2s0,0-0.1,0
		c0-0.1,0-0.2,0-0.3s0-0.2,0-0.5s0-0.5,0-0.6v-0.1c0,0,0,0,0-0.1s0,0,0-0.1v-0.1v-0.1c0-0.1,0-0.1,0-0.1s0,0,0.1-0.1
		c0,0,0.1,0,0.1-0.1c0,0-0.1-0.1-0.1-0.4c-0.1,0-0.2-0.2-0.1-0.5c0.1,0,0.1,0,0.1,0l0,0c0,0,0,0-0.1,0l0,0c0,0,0-0.1,0-0.2
		c0,0,0,0,0.1,0c0-0.1,0-0.2,0-0.3c0-0.2,0-0.3-0.1-0.4c0-0.1-0.1-0.2-0.2-0.2v-0.2h0.1c0,0,0-0.1,0-0.2c0-0.1,0-0.3,0-0.4
		c0-0.2,0-0.2-0.1-0.3c0,0,0,0,0-0.1s0-0.1,0-0.1s0,0,0-0.1s0-0.1,0-0.1c0-0.1,0.1-0.1,0.1-0.1c0-0.1,0-0.2,0-0.2s-0.1-0.2-0.1-0.4
		v-0.1c0,0,0,0,0-0.1l0,0c0,0,0,0,0-0.1c0,0,0-0.1-0.1-0.1l-0.1-0.1v-0.1c0-0.1,0-0.1,0-0.1c0-0.1,0-0.2-0.1-0.3
		c0-0.1,0-0.2-0.1-0.3s-0.1-0.2-0.1-0.3h-0.1v0.1c0-0.1-0.1-0.1-0.3,0v-0.1v-0.1h-0.1v0.1v0.1h-0.1c0,0,0,0-0.1,0h-0.1
		c-0.1,0-0.1,0-0.1,0s0,0-0.1,0c0,0,0,0-0.1,0s-0.1,0.1-0.1,0.2h-0.1v-0.1c-0.1-0.1-0.1-0.1-0.2,0v0.1l0,0h-0.1c0,0,0,0-0.1,0
		s-0.2,0-0.4,0s-0.3,0-0.3,0c-0.2,0-0.3,0-0.3,0c-0.1-0.1-0.2-0.1-0.2,0c-0.1,0-0.2,0-0.3,0s-0.2,0-0.2,0c-0.1,0-0.2,0-0.3,0
		s-0.3,0-0.3,0s0,0-0.1,0c0,0,0,0,0,0.1l0,0v-0.1c0,0.1-0.1,0.1-0.1,0.1c-0.1,0-0.1-0.1-0.1-0.1h-0.1c0,0,0-0.1-0.1-0.1l-0.1-0.1
		c-0.2,0.1-0.4,0-0.5-0.2c0,0-0.1-0.1-0.2-0.2c-0.1-0.1-0.2-0.2-0.2-0.2c-0.1,0-0.1,0-0.2-0.1c-0.1-0.1-0.1-0.1-0.1-0.2
		c-0.2-0.2-0.3-0.3-0.4-0.4c0-0.1,0-0.2-0.1-0.3c0,0,0-0.1,0.1-0.2c0-0.2,0.1-0.4,0.4-0.7c0.1,0,0.1-0.1,0.2-0.2h0.1h0.1
		c0,0,0,0,0.1-0.1l0.1-0.1c0,0,0.1,0,0.2,0c0.1,0,0.2,0,0.3,0l0.1-0.1l0.1-0.1c0,0,0.1,0,0.2,0.1c0.1,0.1,0.2,0.1,0.2,0.1h0.1H46
		c0.1,0,0.2,0,0.4,0s0.3,0,0.4,0c0.1,0,0.2,0,0.3-0.1c0.2,0.1,0.3,0.1,0.3,0c0,0,0,0,0.1,0c0,0,0,0,0.1,0h0.1c0,0,0,0,0-0.1
		c0.1,0,0.2,0,0.4,0s0.3,0,0.3-0.1c0.1,0.1,0.3,0.1,0.5,0v-0.1H49c0.1,0,0.3,0,0.4,0c0.2,0,0.3,0,0.4,0c0.1,0,0.2-0.1,0.2-0.2
		c0,0,0.1,0,0.2,0.1h0.1c0.6,0,0.9,0,1-0.1c0,0,0.1,0,0.2,0c0,0,0,0,0.1,0c0,0,0,0,0.1,0c0.1-0.1,0.2-0.1,0.3-0.1s0.3,0,0.3,0
		c0-0.1,0.1-0.1,0.1-0.1h0.3h0.1c0.1,0,0.1,0,0.1,0c0.1,0,0.1,0,0.2,0c0.3,0,0.4,0,0.5-0.1l0.1,0.1c0.2-0.2,0.3-0.2,0.5,0
		c0,0,0.1,0,0.2,0c0.1,0,0.2,0,0.2,0c0.1,0,0.1-0.1,0.1-0.1h0.1c0.1,0,0.1,0,0.1,0s0.1,0,0.3,0C55.1,41.2,55.2,41.2,55.2,41.2z"/>
	<path fill="#2B5799" d="M61.8,40.5C61.8,40.6,61.7,40.6,61.8,40.5C61.7,40.5,61.7,40.5,61.8,40.5z M61.7,40.6
		C61.7,40.5,61.7,40.5,61.7,40.6C61.8,40.6,61.7,40.6,61.7,40.6z M72.3,36.8c0,0.1,0.2,0.2,0.4,0.1c0.2,0,0.3,0,0.4,0.1
		c0.1,0,0.2,0,0.3,0c0.1,0,0.2,0,0.3,0h0.1c0,0,0,0,0.1,0.1H74c0,0,0,0,0.1,0c0,0,0,0,0.1,0c0,0,0,0,0.1,0.1c0,0,0,0,0.1,0
		s0.1,0,0.1,0s0,0,0.1,0.1c0.1,0,0.1,0.1,0.1,0.1l0.1,0.1h0.1l0.1,0.1c0.1,0.1,0.1,0.1,0.1,0.1c0.1,0,0.2,0.1,0.2,0.1v0.1V38
		c0.1,0,0.1,0,0.1,0l0.1,0.1c0,0.1,0.1,0.1,0.1,0.1c0.1,0.1,0.1,0.2,0.1,0.2s0.1,0,0.1,0.1c0,0,0,0,0,0.1c0,0,0,0.1,0.1,0.3
		c0,0.1,0,0.2,0,0.4s0,0.3,0.1,0.3c0,0.1,0,0.1,0,0.2c0,0,0,0.1,0,0.2c0,0.3,0,0.4-0.1,0.5c0,0.2,0,0.4,0,0.6c0,0,0,0-0.1,0.1
		c0,0,0,0-0.1,0.1v0.1c0,0.1,0,0.1,0,0.1s-0.1,0.1-0.1,0.2c0,0.2,0,0.4-0.1,0.5c0,0.1-0.1,0.3-0.2,0.6c0,0.1,0,0.2-0.1,0.3
		c0,0.1-0.1,0.2-0.1,0.2H75v0.1c0,0.2-0.1,0.4-0.3,0.6v0.1c-0.1,0.1-0.1,0.1-0.1,0.2c0,0.1,0,0.2-0.1,0.2c-0.1,0.1-0.1,0.1-0.1,0.1
		v0.1v0.1h-0.1c0,0-0.1,0.1-0.1,0.4c0,0-0.1,0-0.1,0.1C74,45.4,74,45.4,74,45.4c0,0.1-0.1,0.2-0.2,0.3s-0.1,0.2-0.1,0.2V46
		c-0.2,0.2-0.4,0.4-0.5,0.6c-0.1,0-0.2,0.1-0.2,0.2c-0.2,0.2-0.3,0.4-0.4,0.4h0.1c0-0.1,0.1-0.1,0.1,0l0,0v0.1l0.1-0.1
		c0.9,0,1.4,0,1.4,0c0-0.1,0.1-0.1,0.3,0c0,0.1,0,0.2,0.1,0.2h0.1h0.1c0.1,0,0.1,0,0.1,0h0.1c0.1,0,0.1,0,0.1,0h0.1h0.1h0.1
		c0.1,0,0.1,0,0.1,0s0.1,0,0.2,0.1s0.1,0.1,0.1,0.1c0.1,0.1,0.2,0.1,0.2,0.2c0.1,0,0.1,0,0.2,0.1c0,0,0,0,0.1,0.1c0,0,0,0,0.1,0h0.1
		c0,0,0,0.1,0.1,0.1c0,0.1,0.1,0.1,0.2,0.1v0.1v0.1c0.1,0.1,0.1,0.2,0.2,0.3c0.1,0.2,0.1,0.3,0.1,0.3c0,0.1,0.1,0.2,0.2,0.5l0,0
		c0,0.1,0,0.1,0,0.1c-0.1,0.1-0.1,0.2-0.1,0.3V50c0,0.1,0,0.1,0,0.1s0,0.1,0.1,0.2c0,0.1,0,0.2-0.1,0.4l-0.1,0.1
		c0,0.1-0.1,0.2-0.1,0.2c0.1,0.1,0.1,0.1,0.1,0.2s0,0.2-0.1,0.2c0,0.1,0,0.2-0.1,0.3c0,0.1-0.1,0.1-0.1,0.2c0,0.1,0,0.1,0,0.2
		c0,0.1,0,0.1,0,0.2c0,0,0,0.1-0.1,0.1c-0.1,0.1-0.1,0.1,0,0.2c0,0,0,0.1-0.1,0.1l0,0c0,0,0,0.1,0,0.2c0,0-0.1,0.1-0.3,0.2v0.1
		c-0.1,0.2-0.2,0.4-0.3,0.4c0,0.1-0.1,0.2-0.1,0.3c-0.1,0.1-0.2,0.3-0.2,0.4c0,0-0.1,0.1-0.1,0.2c0,0.1-0.1,0.2-0.1,0.2s0,0-0.1,0.1
		c0,0-0.1,0-0.1,0.1V55c-0.1,0.1-0.3,0.3-0.3,0.5c-0.1,0.1-0.1,0.1-0.2,0.2c-0.1,0.1-0.1,0.2-0.2,0.2h-0.1c0,0,0,0.1-0.1,0.1
		c0,0,0,0.1-0.1,0.1c0,0-0.1,0-0.1,0.1l-0.1,0.1c0,0-0.1,0.1-0.1,0.2C74,56.6,74,56.6,74,56.7h-0.1c0,0,0,0-0.1,0c0,0,0,0,0,0.1
		c0,0,0,0.1-0.1,0.1c-0.1,0.1-0.1,0.1-0.1,0.2c-0.2,0.1-0.3,0.2-0.3,0.4c-0.1,0-0.2,0-0.2,0.1H73c0,0.1-0.1,0.1-0.2,0.2
		c-0.2,0.1-0.3,0.3-0.3,0.4c-0.1,0-0.1,0-0.1,0c0,0.1-0.1,0.1-0.2,0.2c-0.1,0.1-0.2,0.2-0.2,0.2c-0.2,0-0.3,0.1-0.4,0.3h-0.1
		c0,0-0.1,0.1-0.1,0.3c-0.1-0.2-0.3-0.1-0.5,0.2c-0.1,0-0.2,0.1-0.2,0.2c-0.1,0-0.2,0-0.2,0c0,0.1,0,0.1-0.1,0.2h-0.1
		c-0.1,0-0.2,0-0.2,0s-0.1,0-0.1,0.1c0,0,0,0.1-0.1,0.1c0,0,0,0-0.1,0h-0.1v0.1l-0.1,0.1c0,0-0.1,0-0.2,0s-0.2,0-0.2,0s0,0-0.1,0
		c0,0,0,0.1-0.1,0.1c-0.4-0.1-0.6,0-0.6,0.1h-0.1c-0.1,0-0.1,0.1-0.1,0.2c0,0-0.1,0-0.1,0.1S68,60.8,68,60.8v0.1
		c-0.1,0.1-0.2,0.3-0.3,0.5c0-0.1-0.1-0.2-0.1-0.2s-0.1,0-0.2,0.1s-0.1,0-0.2,0c-0.2,0.1-0.4,0-0.5,0l-0.1-0.1l-0.1-0.1l0,0l0,0
		c0,0,0,0-0.1,0c0,0,0,0-0.1,0c0,0,0,0,0-0.1v-0.1c-0.1-0.1-0.2-0.2-0.3-0.2l-0.1,0.1h-0.1c0-0.2-0.1-0.3-0.1-0.4
		c0-0.2,0-0.2-0.1-0.2c0-0.1,0-0.2,0-0.3c0-0.3,0-0.4-0.1-0.5c-0.1,0-0.1,0-0.1,0c0-0.1-0.1-0.3-0.3-0.5c0-0.1,0-0.2,0-0.3
		s0-0.2,0-0.3c0.1-0.1,0.2-0.2,0.1-0.4c0.1-0.1,0.2-0.3,0.1-0.5c0-0.1-0.1-0.1-0.1-0.2c0-0.1,0-0.1,0.1-0.2c0.1-0.1,0.1-0.1,0.1-0.2
		l-0.1-0.1c0-0.1-0.1-0.1,0-0.2c0,0,0,0-0.1-0.1h-0.1c0,0,0-0.1,0-0.4c0,0,0-0.1,0-0.3c0-0.1,0-0.2,0-0.2s0,0-0.1-0.1
		c-0.1,0-0.1,0-0.1-0.1s0-0.2,0-0.3s0-0.2,0-0.3c0,0,0-0.1-0.1-0.1l-0.1-0.1c0-0.1,0-0.1,0.1-0.1l0.1-0.1c0,0-0.1-0.1-0.2-0.2v-0.2
		v-0.1c0-0.1,0-0.2,0-0.2c-0.1-0.1-0.1-0.1-0.1-0.1v-0.1c0-0.1,0-0.1,0-0.2h-0.1v-0.4l0,0l0,0c0-0.1,0-0.1,0-0.3c0-0.1,0-0.2,0-0.2
		s0-0.1-0.1-0.1l-0.1-0.1c0-0.1,0-0.2,0-0.3s0-0.2,0-0.2c0-0.1,0-0.3,0-0.5s0-0.3,0-0.4c0,0,0-0.1,0-0.3l-0.1-0.1c0,0,0,0,0-0.1
		c0,0,0,0,0-0.1c-0.1-0.1-0.1-0.2,0-0.4c0-0.1,0-0.2,0-0.2v-0.1v-0.1v-0.1v-0.1c0-0.1,0-0.1-0.1-0.2c0.9-0.1,0.9-0.1,0.9-0.1
		c0-0.1,0.1-0.2,0.1-0.2v-0.1v-0.1c0,0,0-0.1,0-0.2c0-0.1,0-0.1,0-0.1V48c0-0.1,0-0.1,0-0.2c0-0.2,0-0.3,0-0.4v-0.1v-0.1v-0.1V47
		c0,0,0-0.1,0-0.2c0-0.1,0-0.2,0-0.2C65,46.5,65,46.5,65,46.5s0,0,0-0.1c0,0,0,0,0-0.1s-0.1-0.1-0.2-0.1c0,0,0-0.1,0-0.3
		c0.1-0.1,0-0.2,0-0.6l0,0l0,0c0-0.1,0-0.2,0-0.4c0.1,0,0.1-0.1,0.1-0.1s-0.1-0.1-0.1-0.2c0,0,0-0.2,0-0.4s0-0.4,0-0.4h-0.1
		c0,0,0,0-0.1,0c0,0,0-0.1,0.1-0.2c0,0,0-0.1-0.1-0.3c0-0.2-0.1-0.2-0.1-0.3c0-0.2,0-0.4,0-0.5h-0.1l0,0c0-0.1,0-0.1,0-0.2
		c0-0.1,0.1-0.2,0-0.2c0,0,0-0.1-0.1-0.1v-0.1c0-0.1,0-0.1-0.1-0.1s-0.1,0-0.1,0s0,0-0.1,0h-0.1l-0.1-0.1c0,0,0,0-0.1,0
		c0,0,0,0-0.1,0c0,0,0,0-0.1,0h-0.1v0.1v0.1c-0.1,0-0.2,0-0.3-0.1s-0.2-0.1-0.2-0.1s0,0,0-0.1c0,0,0,0,0-0.1h-0.1l-0.1-0.1
		c0-0.2-0.2-0.4-0.4-0.6c0-0.1,0-0.1,0-0.1s0-0.1-0.1-0.1h-0.1c0-0.1,0-0.1-0.1-0.2c0-0.1,0-0.2,0-0.3s0-0.2,0-0.3l0,0
		c0,0,0,0,0.1,0c0-0.1,0.1-0.3,0.3-0.4c0.1,0,0.2,0,0.2-0.1c0.1-0.1,0.1-0.1,0.2-0.1c0,0,0,0,0.1,0c0,0,0,0,0.1,0c0,0,0,0,0.1,0
		l0.1-0.1c0,0,0.1,0,0.2,0c0.1,0,0.1,0,0.2,0c0,0,0-0.1,0.1-0.1c0,0,0,0,0.1,0c0,0,0,0,0.1,0c0.1,0,0.1,0,0.1,0h0.1h0.1
		c0.2,0,0.3-0.1,0.3-0.1c0.1,0,0.2,0,0.3-0.1c0-0.1,0-0.1,0-0.1s0,0,0.1,0c0,0,0,0,0.1,0c0,0,0.1,0,0.2,0s0.2,0,0.2,0s0.1,0,0.1-0.1
		c0,0,0-0.1,0.1-0.1s0.2-0.1,0.2-0.1c0.2,0,0.3-0.1,0.4-0.1c0-0.1,0-0.1,0-0.1c0.1,0.1,0.2,0.1,0.3,0.1c0.1,0,0.2-0.1,0.2-0.1
		c0.2,0,0.4-0.1,0.4-0.2c0.2,0,0.3,0,0.3,0s0,0,0.1,0c0,0,0,0,0.1,0c0,0,0.1,0,0.1-0.1l0.1-0.1c0,0,0,0,0.1,0c0,0,0,0,0.1,0
		c0,0,0,0,0.1,0c0,0,0,0,0.1,0s0,0,0.1,0c0,0,0,0,0.1,0c0,0,0.2-0.1,0.5-0.1c0-0.1,0.1-0.1,0.2-0.1h0.1c0,0,0,0,0.1-0.1
		c0,0,0-0.1,0.1-0.1c0,0,0.1,0,0.2,0.1l0.1-0.1c0-0.1,0.1-0.1,0.1-0.1c0.1,0,0.1,0,0.3,0c0.1,0,0.2,0,0.3,0l0.1-0.1l0.1-0.1
		c0,0,0.1,0,0.1,0.1h0.1c0-0.1,0.1-0.1,0.1-0.1H71c0,0,0.1,0,0.2-0.1s0.2-0.1,0.2-0.1s0.1,0,0.1,0.1c0.2-0.1,0.3-0.2,0.3-0.2h0.1
		c0.1,0,0.1,0,0.1,0s0.2,0,0.5,0c0.2,0,0.4,0,0.4-0.1c0,0,0.1,0,0.2,0C72.2,36.8,72.2,36.8,72.3,36.8z M71.9,36.9c0,0,0.1,0,0.2,0
		s0.1,0,0.2,0c0,0.1,0.2,0.2,0.4,0.1c0.2,0,0.3,0,0.4,0.1c0.1,0,0.2,0,0.3,0c0.1,0,0.2,0,0.3,0h0.1c0,0,0,0,0.1,0.1H74
		c0,0,0,0,0.1,0c0,0,0,0,0.1,0c0,0,0,0,0.1,0.1c0,0,0,0,0.1,0s0.1,0,0.1,0s0,0,0.1,0.1c0.1,0,0.1,0.1,0.1,0.1l0.1,0.1l0,0l0.1,0.1
		c0.1,0.1,0.1,0.1,0.1,0.1c0.1,0,0.2,0.1,0.2,0.1V38v0.1c0.1,0,0.1,0,0.1,0l0.1,0.1c0,0.1,0.1,0.1,0.1,0.1c0.1,0.1,0.1,0.2,0.1,0.2
		s0.1,0,0.1,0.1c0,0,0,0,0.1,0.1c0,0,0,0.1,0.1,0.3c0,0.1,0,0.2,0,0.4s0,0.3,0.1,0.3c0,0.1,0,0.1,0,0.2c0,0,0,0.1,0,0.2
		c0,0.3,0,0.4-0.1,0.5c0,0.2,0,0.4,0,0.6c0,0,0,0-0.1,0.1c0,0,0,0-0.1,0.1v0.1c0,0.1,0,0.1,0,0.1s-0.1,0.1-0.1,0.2
		c0,0.2,0,0.4-0.1,0.5c0,0.1-0.1,0.3-0.2,0.6c0,0.1,0,0.2-0.1,0.3c0,0.1-0.1,0.2-0.1,0.2H75v0.1c0,0.2-0.1,0.4-0.3,0.6v0.1
		c-0.1,0.1-0.1,0.1-0.1,0.2c0,0.1,0,0.2-0.1,0.2c-0.1,0.1-0.1,0.1-0.1,0.1v0.1v0.1h-0.1c0,0-0.1,0.1-0.1,0.4c0,0-0.1,0-0.1,0.1
		C74,45.5,74,45.5,74,45.5c0,0.1-0.1,0.2-0.2,0.3S73.7,46,73.7,46v0.1c-0.2,0.2-0.4,0.4-0.5,0.6c-0.1,0-0.2,0.1-0.2,0.2
		c-0.2,0.2-0.3,0.4-0.4,0.4h0.1c0-0.1,0.1-0.1,0.1,0l0,0v0.1l0.1-0.1c0.9,0,1.4,0,1.4,0c0-0.1,0.1-0.1,0.3,0c0,0.1,0,0.2,0.1,0.2
		h0.1h0.1c0.1,0,0.1,0,0.1,0h0.1c0.1,0,0.1,0,0.1,0h0.1h0.1h0.1c0.1,0,0.1,0,0.1,0s0.1,0,0.2,0.1s0.1,0.1,0.1,0.1
		c0.1,0.1,0.2,0.1,0.2,0.2c0.1,0,0.1,0,0.2,0.1c0,0,0,0,0.1,0.1c0,0,0,0,0.1,0h0.1c0,0,0,0.1,0.1,0.1c0.1,0.1,0.1,0.1,0.2,0.1v0.1
		v0.1c0.1,0.1,0.1,0.2,0.2,0.3c0.1,0.2,0.1,0.3,0.1,0.3c0,0.1,0.1,0.2,0.2,0.5l0,0c0,0.1,0,0.1,0,0.1c-0.1,0.1-0.1,0.2-0.1,0.3v0.1
		c0,0.1,0,0.1,0,0.1s0,0.1,0.1,0.2c0,0.1,0,0.2-0.1,0.4l-0.1,0.1c0,0.1-0.1,0.2-0.1,0.2c0.1,0.1,0.1,0.1,0.1,0.2s0,0.2-0.1,0.2
		c0,0.1,0,0.2-0.1,0.3c0,0.1-0.1,0.1-0.1,0.2c0,0.1,0,0.1,0,0.2c0,0.1,0,0.1,0,0.2c0,0,0,0.1-0.1,0.1c-0.1,0.1-0.1,0.1,0,0.2
		c0,0,0,0.1-0.1,0.1l0,0c0,0,0,0.1,0,0.2c0,0-0.1,0.1-0.3,0.2v0.1c-0.1,0.2-0.2,0.4-0.3,0.4c0,0.1-0.1,0.2-0.1,0.3
		c-0.1,0.1-0.2,0.3-0.2,0.4c0,0-0.1,0.1-0.1,0.2c0,0.1-0.1,0.2-0.1,0.2s0,0-0.1,0.1c0,0-0.1,0-0.1,0.1v0.1c-0.1,0.1-0.3,0.3-0.3,0.5
		c-0.1,0.1-0.1,0.1-0.2,0.2c-0.1,0.1-0.1,0.2-0.2,0.2h-0.1c0,0,0,0.1-0.1,0.1c0,0,0,0.1-0.1,0.1c0,0-0.1,0-0.1,0.1l-0.1,0.1
		c0,0-0.1,0.1-0.1,0.2C74,56.7,74,56.7,74,56.8h-0.1c0,0,0,0-0.1,0c0,0,0,0,0,0.1c0,0,0,0.1-0.1,0.1c-0.1,0.1-0.1,0.1-0.1,0.2
		c-0.2,0.1-0.3,0.2-0.3,0.4c-0.1,0-0.2,0-0.2,0.1H73c0,0.1-0.1,0.1-0.2,0.2c-0.2,0.1-0.3,0.3-0.3,0.4c-0.1,0-0.1,0-0.1,0
		c0,0.1-0.1,0.1-0.2,0.2c-0.1,0.1-0.2,0.2-0.2,0.2c-0.2,0-0.3,0.1-0.4,0.3h-0.1c0,0-0.1,0.1-0.1,0.3c-0.1-0.2-0.3-0.1-0.5,0.2
		c-0.1,0-0.2,0.1-0.2,0.2c-0.1,0-0.2,0-0.2,0c0,0.1,0,0.1-0.1,0.2h-0.1c-0.1,0-0.2,0-0.2,0S70,59.9,70,60c0,0,0,0.1-0.1,0.1
		c0,0,0,0-0.1,0h-0.1v0.1l-0.1,0.1c0,0-0.1,0-0.2,0s-0.2,0-0.2,0s0,0-0.1,0c0,0,0,0.1-0.1,0.1c-0.4-0.1-0.6,0-0.6,0.1h-0.1
		c-0.1,0-0.1,0.1-0.1,0.2c0,0-0.1,0-0.1,0.1S68,60.9,68,60.9V61c-0.1,0.1-0.2,0.3-0.3,0.5c0-0.1-0.1-0.2-0.1-0.2s-0.1,0-0.2,0.1
		s-0.1,0-0.2,0c-0.2,0.1-0.4,0-0.5,0l-0.1-0.1l-0.1-0.1l0,0l0,0c0,0,0,0-0.1,0c0,0,0,0-0.1,0c0,0,0,0,0-0.1V61
		c-0.1-0.1-0.2-0.2-0.3-0.2l-0.1,0.1h-0.1c0-0.2-0.1-0.3-0.1-0.4c0-0.2-0.1-0.2-0.2-0.2c0-0.1,0-0.2,0-0.3c0-0.3,0-0.4-0.1-0.5
		c-0.1,0-0.1,0-0.1,0c0-0.1-0.1-0.3-0.3-0.5c0-0.1,0-0.2,0-0.3s0-0.2,0-0.3c0.1-0.1,0.2-0.2,0.1-0.4c0.1-0.1,0.2-0.3,0.1-0.5
		c0-0.1-0.1-0.1-0.1-0.2c0-0.1,0-0.1,0.1-0.2c0.1-0.1,0.1-0.1,0.1-0.2l-0.1-0.1c0-0.1-0.1-0.1,0-0.2c0,0,0,0-0.1-0.1H65
		c0,0,0-0.1,0-0.4c0,0,0-0.1,0-0.3c0-0.1,0-0.2,0-0.2s0,0-0.1-0.1c-0.1,0-0.1,0-0.1-0.1s0-0.2,0-0.3s0-0.2,0-0.3c0,0,0-0.1-0.1-0.1
		l-0.1-0.1c0-0.1,0-0.1,0.1-0.1l0.1-0.1c0,0-0.1-0.1-0.2-0.2V54v-0.1c0-0.1,0-0.2,0-0.2c-0.1-0.1-0.1-0.1-0.1-0.1v-0.1
		c0-0.1,0-0.1,0-0.2h-0.1v-0.4l0,0l0,0c0-0.1,0-0.1,0-0.3c0-0.1,0-0.2,0-0.2s0-0.1-0.1-0.1l-0.1-0.1c0-0.1,0-0.2,0-0.3s0-0.2,0-0.2
		c0-0.1,0-0.3,0-0.5s0-0.3,0-0.4c0,0,0-0.1,0-0.3l-0.1-0.1c0,0,0,0,0-0.1c0,0,0,0,0-0.1c-0.1-0.1-0.1-0.2,0-0.4c0-0.1,0-0.2,0-0.2
		v-0.1v-0.1v-0.1v-0.1c0-0.1,0-0.1-0.1-0.2c1-0.2,1-0.2,1-0.2c0-0.1,0.1-0.2,0.1-0.2v-0.1v-0.1c0,0,0-0.1,0-0.2c0-0.1,0-0.1,0-0.1
		V48c0-0.1,0-0.1,0-0.2c0-0.2,0-0.3,0-0.4v-0.1v-0.1v-0.1V47c0,0,0-0.1,0-0.2c0-0.1,0-0.2,0-0.2C65,46.5,65,46.5,65,46.5s0,0,0-0.1
		c0,0,0,0,0-0.1s-0.1-0.1-0.2-0.1c0,0,0-0.1,0-0.3c0.1-0.1,0-0.2,0-0.6l0,0l0,0c0-0.1,0-0.2,0-0.4c0.1,0,0.1-0.1,0.1-0.1
		s-0.1-0.1-0.1-0.2c0,0,0-0.2,0-0.4s0-0.4,0-0.4h-0.1c0,0,0,0-0.1,0c0,0,0-0.1,0.1-0.2c0,0,0-0.1-0.1-0.3c0-0.2-0.1-0.2-0.1-0.3
		c0-0.2,0-0.4,0-0.5h-0.1l0,0c0-0.1,0-0.1,0-0.2c0-0.1,0.1-0.2,0-0.2c0,0,0-0.1-0.1-0.1v-0.1c0-0.1,0-0.1-0.1-0.1s-0.1,0-0.1,0
		s0,0-0.1,0h-0.1l-0.1-0.1c0,0,0,0-0.1,0c0,0,0,0-0.1,0c0,0,0,0-0.1,0h-0.1v0.1v0.1c-0.1,0-0.2,0-0.3-0.1s-0.2-0.1-0.2-0.1
		s0,0,0-0.1c0,0,0,0-0.1-0.1h-0.1l-0.1-0.1c0-0.2-0.2-0.4-0.4-0.6c0-0.1,0-0.1,0-0.1s0-0.1-0.1-0.1H62c0-0.1,0-0.1-0.1-0.2
		c0-0.1,0-0.2,0-0.3s0-0.2,0-0.3c0,0,0,0,0.1,0c0,0,0,0,0.1,0c0-0.1,0.1-0.3,0.3-0.4c0.1,0,0.2,0,0.2-0.1c0.1-0.1,0.1-0.1,0.2-0.1
		c0,0,0,0,0.1,0c0,0,0,0,0.1,0c0,0,0,0,0.1,0l0.1-0.1c0,0,0.1,0,0.2,0c0.1,0,0.1,0,0.2,0c0,0,0-0.1,0.1-0.1c0,0,0,0,0.1,0
		c0,0,0,0,0.1,0c0.1,0,0.1,0,0.1,0h0.1h0.1c0.2,0,0.3-0.1,0.3-0.1c0.1,0,0.2,0,0.3-0.1c-0.1-0.1-0.1-0.1,0-0.1c0,0,0,0,0.1,0
		c0,0,0,0,0.1,0c0,0,0.1,0,0.2,0s0.2,0,0.2,0s0.1,0,0.1-0.1c0,0,0-0.1,0.1-0.1s0.2-0.1,0.2-0.1c0.2,0,0.3-0.1,0.4-0.1
		c0-0.1,0-0.1,0-0.1c0.1,0.1,0.2,0.1,0.3,0.1c0.1,0,0.2-0.1,0.2-0.1c0.2,0,0.4-0.1,0.4-0.2c0.2,0,0.3,0,0.3,0s0,0,0.1,0
		c0,0,0,0,0.1,0c0,0,0.1,0,0.1-0.1l0.1-0.1c0,0,0,0,0.1,0c0,0,0,0,0.1,0c0,0,0,0,0.1,0c0,0,0,0,0.1,0s0,0,0.1,0c0,0,0,0,0.1,0
		c0,0,0.2-0.1,0.5-0.1c0-0.1,0.1-0.1,0.2-0.1h0.1c0,0,0,0,0.1-0.1c0,0,0-0.1,0.1-0.1c0,0,0.1,0,0.2,0.1l0.1-0.1
		c0-0.1,0.1-0.1,0.1-0.1c0.1,0,0.1,0,0.3,0c0.1,0,0.2,0,0.3,0l0.1-0.1l0.1-0.1c0,0,0.1,0,0.1,0.1h0.1c0-0.1,0.1-0.1,0.1-0.1H71
		c0,0,0.1,0,0.2-0.1s0.2-0.1,0.2-0.1s0.1,0,0.1,0.1c0.2-0.1,0.3-0.2,0.3-0.2L71.9,36.9C72,36.8,72,36.8,71.9,36.9
		c0.1-0.1,0.3-0.1,0.6-0.1C71.7,37,71.9,36.9,71.9,36.9z M73.2,39.6c-0.2-0.1-0.4-0.2-0.4-0.2h-0.1c-0.1,0-0.1,0-0.2,0
		c-0.2,0-0.3,0-0.3,0s-0.1,0-0.2,0s-0.1,0-0.1,0h-0.1h-0.1l-0.1,0.1h-0.1c-0.1,0-0.1,0-0.1,0h-0.1c-0.1,0-0.1,0-0.1,0
		c-0.1,0-0.1,0-0.3,0.1h-0.1h-0.1c0,0-0.1,0-0.2,0s-0.1,0-0.1,0s-0.1,0-0.1,0.1l-0.1,0.1c0,0-0.1,0-0.2,0s-0.1,0-0.1,0
		s-0.1,0-0.1,0.1L69.7,40h-0.1c-0.1,0-0.1,0-0.1,0c-0.1,0-0.2,0.1-0.3,0.1c-0.1,0.1-0.2,0.1-0.2,0.1c-0.1,0-0.2,0-0.3,0
		c-0.1,0-0.1,0-0.1,0v0.1l-0.1,0.1c-0.1-0.1-0.2,0-0.3,0h-0.1c0,0-0.1,0-0.2,0s-0.1,0-0.2,0c0,0,0,0-0.1,0c0,0,0,0,0,0.1h-0.1
		c-0.1,0-0.1,0-0.1,0s-0.1,0-0.1,0.1s0,0.1-0.1,0.1s-0.2,0-0.3,0l-0.1,0.1h-0.1h-0.1c0,0-0.1,0-0.1,0.1c0,0,0,0.1-0.1,0.1
		c0,0,0,0-0.1,0s-0.1,0-0.1,0c0,0.1,0,0.1,0.1,0.2c0,0.1,0,0.1,0,0.1s0.1,0.1,0.1,0.2v0.1c0,0,0,0.1,0,0.2c0,0.1,0,0.1,0,0.2v0.1
		c0,0,0,0.1,0.1,0.1c0,0.1,0,0.2,0,0.2s0,0,0.1,0.1c0,0,0,0.1,0.1,0.1c0,0.4,0,0.6,0,0.7c0.1,0.1,0.1,0.1,0.1,0.1c0,0.1,0,0.1,0,0.3
		s0,0.2,0,0.3c0,0,0,0.1,0.1,0.1l0.1,0.1c0,0,0,0.1,0,0.2s0,0.2,0,0.2v0.1c0,0,0,0,0,0.1s0,0,0,0.1V45l0.1,0.1c0,0.1,0,0.2,0,0.4
		s0,0.3,0,0.4c0,0.1,0.1,0.2,0.1,0.3s0,0.3,0,0.3v0.1v0.1c0,0.1,0,0.1,0,0.1v0.1c0,0.1,0,0.1,0,0.1v0.1c0,0.1,0,0.1,0,0.2
		c0,0.1,0,0.1,0,0.1v0.1c0,0,0,0,0,0.1c0,0,0,0,0,0.1c0,0,0,0.1,0.1,0.1c0,0.2,0,0.4,0,0.4s0.1,0,0.1-0.1h0.1c0-0.1,0.1-0.1,0.2-0.1
		l0.1-0.1h0.1H68l0.1-0.1c0.1,0,0.1-0.1,0.2-0.1l0.1-0.1c0-0.1,0.1-0.1,0.1-0.1s0.1,0,0.1-0.1c0,0,0.1-0.1,0.1-0.2
		c0-0.1,0.1-0.1,0.1-0.2c0.1-0.1,0.1-0.1,0.1-0.2c0.1,0,0.1-0.1,0.2-0.1c0.1-0.1,0.1-0.1,0.2-0.1c0-0.2,0.1-0.2,0.3-0.3v-0.1
		l0.4-0.4c0-0.1,0.1-0.2,0.2-0.4c0,0,0.2-0.1,0.3-0.3c0.1,0,0.2-0.1,0.3-0.3c0.1-0.2,0.2-0.3,0.3-0.3v-0.1c0.1-0.1,0.3-0.3,0.3-0.5
		c0-0.1,0-0.1,0-0.1s0,0,0.1-0.1c0,0,0.1,0,0.1-0.1c0,0,0.1-0.1,0.1-0.2c0.1-0.1,0.1-0.2,0.2-0.2c0-0.1,0.1-0.1,0.1-0.3
		c0-0.1,0.1-0.2,0.1-0.2c0-0.2,0.1-0.3,0.2-0.4c0-0.1,0-0.2,0.1-0.3c0-0.1,0-0.1,0-0.1v-0.1c0,0,0,0,0-0.1c0,0,0,0,0-0.1
		c0,0,0,0,0-0.1l0,0c0,0,0,0,0.1-0.1v-0.1v-0.1c0.1-0.2,0.1-0.3,0.1-0.3c0.1-0.1,0.1-0.2,0.1-0.2s0-0.1,0.1-0.2v-0.1v-0.1
		c0-0.1,0-0.2,0-0.4C73.2,39.8,73.2,39.7,73.2,39.6z M72.9,39.4C72.9,39.4,72.8,39.4,72.9,39.4c-0.1,0-0.1,0-0.2,0s-0.1,0-0.2,0
		c-0.2,0-0.3,0-0.3,0s-0.1,0-0.2,0s-0.1,0-0.1,0h-0.1h-0.1l-0.1,0.1h-0.1c-0.1,0-0.1,0-0.1,0h-0.1c-0.1,0-0.1,0-0.1,0
		c-0.1,0-0.1,0-0.3,0.1h-0.1h-0.1c0,0-0.1,0-0.2,0s-0.1,0-0.1,0s-0.1,0-0.1,0.1l-0.1,0.1c0,0-0.1,0-0.2,0s-0.1,0-0.1,0
		s-0.1,0-0.1,0.1L69.7,40h-0.1c-0.1,0-0.1,0-0.1,0c-0.1,0-0.2,0.1-0.3,0.1c-0.1,0.1-0.2,0.1-0.2,0.1c-0.1,0-0.2,0-0.3,0
		c-0.1,0-0.1,0-0.1,0v0.1l-0.1,0.1c-0.1-0.1-0.2,0-0.3,0h-0.1c0,0-0.1,0-0.2,0s-0.1,0-0.2,0c0,0,0,0-0.1,0c0,0,0,0,0,0.1h-0.1
		c-0.1,0-0.1,0-0.1,0s-0.1,0-0.1,0.1s0,0.1-0.1,0.1s-0.2,0-0.3,0l-0.1,0.1h-0.1h-0.1c0,0-0.1,0-0.1,0.1c0,0,0,0.1-0.1,0.1
		c0,0,0,0-0.1,0s-0.1,0-0.1,0c0,0.1,0,0.1,0.1,0.2c0,0.1,0,0.1,0,0.1s0.1,0.1,0.1,0.2v0.1c0,0,0,0.1,0,0.2c0,0.1,0,0.1,0,0.2v0.1
		c0,0,0,0.1,0.1,0.1c0,0.1,0,0.2,0,0.2s0,0,0.1,0.1c0,0,0,0.1,0.1,0.1c0,0.4,0,0.6,0,0.7c0.1,0.1,0.1,0.1,0.1,0.1c0,0.1,0,0.1,0,0.3
		s0,0.2,0,0.3c0,0,0,0.1,0.1,0.1l0.1,0.1c0,0,0,0.1,0,0.2s0,0.2,0,0.2v0.1c0,0,0,0,0,0.1s0,0,0,0.1V45l0.1,0.1c0,0.1,0,0.2,0,0.4
		s0,0.3,0,0.4c0,0.1,0.1,0.2,0.1,0.3s0,0.3,0,0.3v0.1v0.1c0,0.1,0,0.1,0,0.1v0.1c0,0.1,0,0.1,0,0.1v0.1c0,0.1,0,0.1,0,0.2
		c0,0.1,0,0.1,0,0.1v0.1c0,0,0,0,0,0.1c0,0,0,0,0,0.1c0,0,0,0.1,0.1,0.1c0,0.2,0,0.4,0,0.4s0.1,0,0.1-0.1h0.1c0-0.1,0.1-0.1,0.2-0.1
		l0.1-0.1h0.1H68l0.1-0.1c0.1,0,0.1-0.1,0.2-0.1l0.1-0.1c0-0.1,0.1-0.1,0.1-0.1s0.1,0,0.1-0.1c0,0,0.1-0.1,0.1-0.2
		c0-0.1,0.1-0.1,0.1-0.2c0.1-0.1,0.1-0.1,0.1-0.2c0.1,0,0.1-0.1,0.2-0.1c0.1-0.1,0.1-0.1,0.2-0.1c0-0.2,0.1-0.2,0.3-0.3v-0.1
		l0.4-0.4c0-0.1,0.1-0.2,0.2-0.4c0,0,0.2-0.1,0.3-0.3c0.1,0,0.2-0.1,0.3-0.3c0.1-0.2,0.2-0.3,0.3-0.3v-0.1c0.1-0.1,0.3-0.3,0.3-0.5
		c0-0.1,0-0.1,0-0.1s0,0,0.1-0.1c0,0,0.1,0,0.1-0.1c0,0,0.1-0.1,0.1-0.2c0.1-0.1,0.1-0.2,0.2-0.2c0-0.1,0.1-0.1,0.1-0.3
		c0-0.1,0.1-0.2,0.1-0.2c0-0.2,0.1-0.3,0.2-0.4c0-0.1,0-0.2,0.1-0.3c0-0.1,0-0.1,0-0.1v-0.1c0,0,0,0,0-0.1c0,0,0,0,0-0.1
		c0,0,0,0,0-0.1l0,0c0,0,0,0,0.1-0.1v-0.1v-0.1c0.1-0.2,0.1-0.3,0.1-0.3c0.1-0.1,0.1-0.2,0.1-0.2s0-0.1,0.1-0.2v-0.1v-0.1
		c0-0.1,0-0.2,0-0.4S72.8,39.6,72.9,39.4C73,39.5,72.9,39.4,72.9,39.4z M69.2,50.6L69.2,50.6c-0.1,0.2-0.2,0.2-0.2,0.2h-0.1
		c-0.1,0-0.1,0-0.1,0c-0.1,0.1-0.1,0.1-0.1,0.1s-0.1,0-0.1-0.1c-0.1-0.1-0.1-0.2-0.1-0.3c0,0-0.2-0.1-0.4-0.2c0,0,0-0.1-0.1-0.1
		c0-0.1-0.1-0.1-0.1-0.1c0-0.1-0.1-0.1-0.1-0.1c-0.1,0-0.1,0.1-0.1,0.2v0.1v0.1c0,0,0,0,0,0.1c0,0,0,0,0,0.1c0,0,0,0.1,0,0.3V51
		c0,0.1,0,0.1,0.1,0.1c0,0.1,0,0.2,0,0.3c0,0.2,0,0.3,0,0.3s0,0.1,0.1,0.2c0,0.1,0,0.2,0,0.5c0,0,0,0.1,0,0.3c0,0.1,0,0.1,0,0.1v0.1
		c0,0.1,0,0.1,0,0.1v0.1v0.1c0,0,0,0.1,0,0.3s0,0.4,0,0.5c0,0,0,0.1,0.1,0.1c0-0.1,0-0.1,0-0.1c0,0.1,0,0.2,0,0.3s-0.1,0.1-0.1,0.1
		c0,0.1,0,0.1,0,0.2c0,0.1,0,0.1,0,0.2c0,0,0,0.1,0.1,0.1c0,0.1,0.1,0.1,0.1,0.1v0.1v0.1v0.1c0,0.1,0,0.1,0,0.2c0,0.1,0,0.1,0,0.2
		c0,0,0,0.1,0.1,0.1v0.1c0,0.1,0,0.2,0,0.3s0,0.3,0.1,0.3c0,0.1,0.1,0.1,0.1,0.1c0,0.1,0,0.1,0,0.3c0,0.1,0,0.2,0,0.3
		s0.1,0.1,0.1,0.1c-0.1,0.1,0,0.2,0.1,0.3h0.1c0.1,0,0.1,0,0.1,0s0.1,0,0.1-0.1l0.1-0.1c0,0,0,0,0.1,0s0.1,0,0.1,0s0.1,0,0.2-0.1
		s0.1-0.1,0.2-0.1h0.1h0.1c0,0,0.1-0.1,0.1-0.2c0.1-0.1,0.2-0.2,0.3-0.2c0.1-0.2,0.2-0.2,0.2-0.2c0.1-0.1,0.2-0.1,0.4-0.2
		c0-0.1,0-0.1,0-0.2c0.1,0,0.1-0.1,0.2-0.2c0.1-0.1,0.2-0.1,0.3-0.1c0-0.1,0.1-0.1,0.1-0.1l0.1-0.1c0,0,0-0.1,0.1-0.2
		c0.1-0.1,0.1-0.2,0.2-0.2c0,0,0,0,0.1,0c0,0,0,0,0.1,0c0,0,0,0,0.1-0.1l0.1-0.1c0,0,0,0,0.1,0c0,0,0,0,0.1,0s0,0,0-0.1
		c0,0,0-0.1,0.1-0.1h0.1c0-0.1,0.1-0.3,0.2-0.4c0.1-0.1,0.2-0.2,0.3-0.3v-0.1c0-0.1,0.1-0.1,0.3-0.3c0.1-0.1,0.2-0.2,0.3-0.3
		c0,0,0,0,0-0.1c0.1-0.1,0.2-0.2,0.3-0.5c0.1-0.2,0.2-0.4,0.3-0.5c0-0.1,0-0.2,0-0.2c0-0.1,0.1-0.2,0-0.2l0.1-0.1l0.1-0.1v-0.1
		c0,0,0.1-0.1,0.1-0.3c0-0.1,0-0.1,0.1-0.2c0.1-0.1,0.1-0.1,0.1-0.1V51c0-0.1,0-0.1,0-0.2c0,0,0,0,0.1-0.1v-0.1c0-0.1,0-0.1,0-0.3
		c0-0.1,0-0.2,0-0.3c-0.4,0-0.4,0-0.5,0s-0.1,0-0.3,0c-0.1,0-0.2,0-0.3,0c0,0.2-0.1,0.2-0.3,0c0,0.1,0,0.1-0.1,0.1s-0.1,0.1-0.2,0.1
		c0,0-0.1,0-0.1-0.1c0,0,0-0.1-0.1-0.1s-0.1,0-0.1,0c-0.1,0-0.1,0-0.1,0c-0.1,0-0.1,0-0.1,0s0,0-0.1,0c0,0,0,0-0.1,0h-0.1
		c-0.1,0-0.2,0-0.3,0c0,0-0.1,0-0.1,0.1c-0.1,0-0.1,0.1-0.1,0.1h-0.1h-0.1c0,0-0.1,0-0.2,0s-0.2,0-0.2,0c-0.1,0.1-0.3,0.1-0.7,0.1
		c-0.1,0.1-0.3,0.2-0.6,0.2c-0.1,0.1-0.2,0.1-0.4,0.1C69.6,50.6,69.4,50.6,69.2,50.6z M69,50.8L69,50.8c-0.2,0-0.2,0-0.2,0
		c-0.1,0.1-0.1,0.1-0.1,0.1l-0.1-0.1c-0.1-0.1-0.1-0.2-0.1-0.3c0,0-0.2-0.1-0.4-0.2c0,0,0-0.1-0.1-0.1c0-0.1-0.1-0.1-0.1-0.1
		c0-0.1-0.1-0.1-0.1-0.1c-0.1,0-0.1,0.1-0.1,0.2v0.1v0.1c0,0,0,0,0,0.1c0,0,0,0,0,0.1c0,0,0,0.1,0,0.3V51c0,0.1,0,0.1,0.1,0.1
		c0,0.1,0,0.2,0,0.4s0,0.3,0,0.3s0,0.1,0.1,0.2c0,0.1,0,0.2,0,0.5c0,0,0,0.1,0,0.3c0,0.1,0,0.1,0,0.1V53c0,0.1,0,0.1,0,0.1v0.1v0.1
		c0,0,0,0.1,0,0.3s0,0.4,0,0.5c0,0,0,0.1,0.1,0.1c0-0.2,0-0.2,0-0.2c0,0.1,0,0.2,0,0.3s-0.1,0.1-0.1,0.1c0,0.1,0,0.1,0,0.2
		c0,0.1,0,0.1,0,0.2c0,0,0,0.1,0.1,0.1c0,0.1,0.1,0.1,0.1,0.1v0.1v0.1v0.1c0,0.1,0,0.1,0,0.2c0,0.1,0,0.1,0,0.2c0,0,0,0.1,0.1,0.1
		v0.1c0,0.1,0,0.2,0,0.3s0,0.3,0.1,0.3c0,0.1,0.1,0.1,0.1,0.1c0,0.1,0,0.1,0,0.3c0,0.1,0,0.2,0,0.3s0.1,0.1,0.1,0.1
		c-0.1,0.1,0,0.2,0.1,0.3h0.1c0.1,0,0.1,0,0.1,0s0.1,0,0.1-0.1l0.1-0.1c0,0,0,0,0.1,0s0.1,0,0.1,0s0.1,0,0.2-0.1s0.1-0.1,0.2-0.1
		h0.1h0.1c0,0,0.1-0.1,0.1-0.2c0.1-0.1,0.2-0.2,0.3-0.2c0.1-0.2,0.2-0.2,0.2-0.2c0.1-0.1,0.2-0.1,0.4-0.2c0-0.1,0-0.1,0-0.2
		c0.1,0,0.1-0.1,0.2-0.2c0.1-0.1,0.2-0.1,0.3-0.1c0-0.1,0.1-0.1,0.1-0.1l0.1-0.1c0,0,0-0.1,0.1-0.2c0.1-0.1,0.1-0.2,0.2-0.2
		c0,0,0,0,0.1,0c0,0,0,0,0.1,0c0,0,0,0,0.1-0.1l0.1-0.1c0,0,0,0,0.1,0c0,0,0,0,0.1,0s0,0,0-0.1c0,0,0-0.1,0.1-0.1h0.1
		c0-0.1,0.1-0.3,0.2-0.4c0.1-0.1,0.2-0.2,0.3-0.3v-0.1c0-0.1,0.1-0.1,0.3-0.3c0.1-0.1,0.2-0.2,0.3-0.3c0,0,0,0,0-0.1
		c0.1-0.1,0.2-0.2,0.3-0.5c0.1-0.2,0.2-0.4,0.3-0.5c0-0.1,0-0.2,0-0.2c0-0.1,0.1-0.2,0-0.2l0.1-0.1l0.1-0.1v-0.1
		c0,0,0.1-0.1,0.1-0.3c0-0.1,0-0.1,0.1-0.2c0.1-0.1,0.1-0.1,0.1-0.1V51c0-0.1,0-0.1,0-0.2c0,0,0,0,0.1-0.1v-0.1c0-0.1,0-0.1,0-0.3
		c0-0.1,0-0.2,0-0.3c-0.4,0-0.4,0-0.5,0s-0.1,0-0.3,0c-0.1,0-0.2,0-0.3,0c0,0.2-0.1,0.2-0.3,0c0,0.1,0,0.1-0.1,0.1s-0.1,0.1-0.2,0.1
		c0,0-0.1,0-0.1-0.1c0,0,0-0.1-0.1-0.1s-0.1,0-0.1,0c-0.1,0-0.1,0-0.1,0c-0.1,0-0.1,0-0.1,0s0,0-0.1,0c0,0,0,0-0.1,0h-0.1
		c-0.1,0-0.2,0-0.3,0c0,0-0.1,0-0.1,0.1c-0.1,0-0.1,0.1-0.1,0.1h-0.1h-0.1c0,0-0.1,0-0.2,0s-0.2,0-0.2,0c-0.1,0.1-0.3,0.1-0.7,0.1
		c-0.1,0.1-0.3,0.2-0.6,0.2c-0.1,0.1-0.2,0.1-0.4,0.1c-0.2,0-0.4,0-0.5,0c0,0-0.1,0-0.1,0.1C69.1,50.7,69.1,50.8,69,50.8z M73.6,37
		L73.6,37L73.6,37z M73.7,37L73.7,37L73.7,37z"/>
	<path fill="#2B5799" d="M85.7,41.1c0.5,0.1,0.7,0,0.7-0.2c0,0,0.1,0,0.3,0c0,0,0,0,0,0.1c0,0,0,0,0,0.1c0,0,0.1,0,0.2,0
		s0.1,0,0.1,0.1c0.1,0,0.2,0,0.4,0.1c0.4,0,0.7,0.1,0.8,0.2h0.1c0,0.1,0.1,0.1,0.3,0.2c0.1,0.1,0.2,0.2,0.3,0.2V42
		c0.1,0.1,0.3,0.3,0.4,0.7l0.1,0.1c0,0.2,0,0.3,0,0.4c0,0.1,0,0.2,0,0.3s-0.1,0.1-0.1,0.2c-0.1,0.1-0.1,0.1-0.1,0.1
		c0,0.1,0,0.2-0.1,0.3c0,0.1,0,0.1,0,0.1L89,44.3c0,0,0,0-0.1,0c0,0,0,0-0.1,0c0,0,0,0.1-0.1,0.1h-0.1c0,0,0,0.1-0.1,0.1
		c0,0,0,0.1-0.1,0.1s-0.2,0-0.2,0c0,0.1,0,0.1,0,0.1h-0.1c-0.1,0-0.1,0-0.1,0s0,0-0.1,0h-0.1c0,0,0-0.1,0.1-0.1l-0.1-0.1
		c0-0.1,0-0.1-0.1-0.1l-0.1,0.1h-0.1c0-0.1,0-0.1-0.1-0.2c-0.1-0.1-0.1-0.1-0.1-0.1v0.1v0.1c0,0,0-0.1-0.1-0.1c0,0,0-0.1-0.1-0.1
		c0,0,0,0-0.1-0.1c0-0.2-0.2-0.2-0.5-0.2c-0.1,0-0.1,0-0.2,0.1c0,0-0.1,0-0.2,0S86,44,86,44l-0.1,0.1c0,0-0.2,0-0.4,0
		c-0.3,0.1-0.4,0.1-0.4,0.2c-0.1-0.1-0.2-0.1-0.3,0c-0.1,0-0.2,0-0.2,0c-0.1,0-0.2,0-0.2,0v0.1c-0.1,0-0.2,0-0.2,0
		c-0.1-0.1-0.2-0.1-0.2,0c0,0-0.1,0-0.1,0.1c0,0,0,0.1-0.1,0.1s-0.1,0-0.2,0s-0.1,0-0.1,0s-0.1,0-0.1,0.1h-0.1h-0.1v0.1
		c-0.2,0-0.4,0-0.5,0c0,0,0,0,0,0.1c0,0,0,0,0,0.1c-0.2-0.1-0.4-0.1-0.6,0.2c0,0-0.1,0-0.1-0.1c-0.1,0-0.1,0.1,0,0.2
		c0,0.1,0,0.1,0.1,0.1v0.1v0.1c0,0.1,0,0.1,0,0.1c0,0.1,0,0.2,0.1,0.2c0,0.1,0,0.2,0.1,0.3s0.1,0.2,0,0.3c0,0.1,0,0.2,0.1,0.3
		c0,0,0,0,0,0.1c0,0,0,0,0,0.1s0,0.1,0,0.2c0,0.1,0.1,0.1,0.1,0.1c0,0.6,0,0.9,0,0.9c-0.1,0.1-0.1,0.3,0,0.5c0,0,0,0.1,0,0.2
		c0,0,0,0.1-0.1,0.1c0,0.1,0,0.1,0,0.2c0.1,0.1,0.1,0.1,0.1,0.1v0.1v0.1c0,0.1,0,0.2,0,0.5c0,0.2,0,0.4,0,0.5c0,0,0,0.1,0,0.2
		c0,0.1,0.1,0.1,0.2,0.1s0.2-0.1,0.2-0.1c0.2,0,0.4,0,0.5-0.1c0.3,0,0.4,0,0.5,0s0.3,0,0.3,0s0.1,0,0.1-0.1c0.1,0,0.1-0.1,0.1-0.1
		h0.1c0.1,0,0.2,0,0.3-0.1c0.2,0.1,0.3,0,0.4,0c0,0,0,0,0.1,0c0,0,0,0,0.1,0h0.1c0.1,0,0.1,0,0.1,0c0.1,0,0.2,0,0.4,0v-0.1
		c0.1,0.1,0.2,0.1,0.4,0c0.1,0,0.2-0.1,0.3-0.1c0.1,0,0.1,0,0.1,0l0.1-0.1c0,0,0,0,0.1,0c0,0,0,0,0.1,0.1c0,0,0.1,0,0.1-0.1
		c0.1-0.1,0.1-0.1,0.2-0.1c0-0.1,0.1-0.1,0.1-0.1s0,0,0.1,0.1c0.2,0,0.3,0,0.4-0.1c0.1,0,0.1,0,0.2,0s0.1,0,0.1,0s0.1,0,0.2,0.1
		c0.1,0,0.1,0.1,0.2,0.1s0.2,0.1,0.2,0.2c0.1,0,0.1,0,0.2,0c0,0,0,0,0.1,0c0,0,0,0.1,0.1,0.1c0.2,0,0.3,0,0.3,0s0,0.1,0.1,0.2v0.1
		c0,0.1,0,0.1,0.1,0.3c0,0.2,0.1,0.3,0.2,0.4c0,0,0,0.1-0.1,0.1c0,0.1,0,0.2-0.1,0.3s-0.1,0.2-0.1,0.3h-0.1c0,0,0,0,0,0.1
		c0,0,0,0,0,0.1h-0.1l0,0h-0.1c0,0,0,0-0.1-0.1h-0.1c0,0-0.1,0-0.1,0.1H89c0,0.1-0.1,0.1-0.3,0.2c-0.2,0.1-0.3,0.1-0.3,0.2
		c-0.2,0-0.4,0-0.5,0.2c0,0,0,0-0.1,0c0,0,0,0-0.1,0.1c0,0,0,0,0,0.1c-0.1,0-0.1,0-0.2-0.1c0,0,0,0-0.1,0V53c0,0-0.1,0-0.2,0
		S87,53,87,53s-0.1,0-0.1,0.1l-0.1,0.1c-0.1,0-0.1,0-0.2,0s-0.1,0.1-0.1,0.2c-0.1-0.1-0.1-0.1-0.2-0.1s-0.2,0-0.2,0.1v0.1
		c0,0-0.1,0-0.2,0c-0.1-0.1-0.1,0-0.1,0s-0.1,0-0.2,0v0.2c0,0-0.1,0-0.3,0h-0.1c-0.1,0-0.1,0.1,0,0.2L85,53.8c0,0-0.1,0-0.4,0
		c0,0,0,0.1-0.1,0.1L84.4,54c-0.2,0-0.3,0-0.3,0L84,53.2c-0.3,0-0.4,0-0.4,0s-0.1,0.1-0.2,0.1c0,0,0,0,0,0.1c-0.2,0.1-0.3,0.1-0.4,0
		c0,0-0.1,0-0.1,0.1l-0.1,0.1c0,0,0,0-0.1-0.1l-0.1-0.1c0,0-0.1,0-0.2,0.1c-0.1,0-0.1,0-0.1,0c-0.1,0-0.1,0.2,0,0.5v0.1v0.1
		c0,0.1,0.1,0.1,0.1,0.1c0.1,0.1,0,0.2-0.1,0.2c0,0,0,0.1,0,0.2c0,0.1,0,0.2,0.1,0.2c0,0,0,0,0,0.1c0,0,0,0,0,0.1c0,0,0,0.1-0.1,0.3
		c0.1,0.1,0.1,0.2,0.1,0.5c0,0.2,0,0.4,0.1,0.6c-0.1,0.2-0.1,0.4,0,0.4c0,0.1,0,0.1,0,0.3v0.1v0.1c0.1,0.2,0.1,0.3,0.1,0.4
		c0,0.1,0.1,0.1,0.1,0.3c0,0.1,0.1,0.2,0.1,0.3c0.1,0,0.2,0,0.3,0.1c0.2,0,0.3,0,0.3,0s0,0,0.1-0.1c0.1,0,0.1,0,0.1,0.1
		c0.4,0,0.6-0.1,0.6-0.1s0.1,0,0.3,0c0.1,0,0.2,0,0.3,0c0-0.1,0.2-0.1,0.5-0.2c0,0,0,0,0-0.1V58c0.1,0,0.1,0,0.2,0s0.1,0,0.2,0
		c0,0,0.1-0.1,0.2-0.1s0.1-0.1,0.2-0.1s0.3,0,0.5-0.1s0.3-0.2,0.4-0.2c0-0.1,0-0.1,0.1-0.1c0.1,0.1,0.2,0,0.3,0
		c0.2,0,0.3-0.1,0.5-0.3c0.1,0,0.2,0,0.2,0c0.1-0.1,0.2-0.1,0.3-0.1c0.4,0,0.6,0,0.7,0.1h0.1c0,0.1,0.1,0.3,0.2,0.4h0.1
		c0,0,0.1,0.1,0.2,0.2c0,0.1,0.1,0.2,0.2,0.3c0,0.1,0,0.1,0.1,0.2c0.1,0.1,0.1,0.1,0.1,0.2c0,0,0,0,0,0.1s0,0.1,0,0.2
		c-0.1,0.2-0.2,0.3-0.2,0.4c-0.1,0-0.2,0.1-0.3,0.2c-0.2,0-0.3,0.1-0.3,0.4h-0.1c0,0,0,0-0.1,0c0,0-0.1,0.1-0.1,0.2h-0.1
		c0,0,0,0-0.1,0s-0.1,0-0.1,0.1c-0.2,0-0.3,0.1-0.3,0.2h-0.1c-0.1,0.2-0.3,0.2-0.4,0.1c0,0-0.1,0.1-0.1,0.2h-0.1
		c-0.1-0.1-0.2-0.1-0.3,0c0,0-0.1,0.1-0.1,0.2L87,60c0,0,0,0,0,0.1v0.1c0,0-0.1-0.1-0.2-0.1s-0.2,0-0.2,0s0,0.1-0.1,0.1
		c0,0,0,0.1-0.1,0.1h-0.1c0,0,0,0-0.1,0c0,0-0.1,0.1-0.1,0.2c-0.1-0.1-0.2,0-0.4,0c0,0,0,0,0,0.1c-0.1,0-0.2,0-0.3,0
		c-0.1,0-0.2,0.1-0.3,0.1H85c0,0,0,0-0.1,0c0,0-0.1,0-0.2,0s-0.2,0-0.2,0.1s0,0.1,0,0.1s-0.1,0-0.2,0h-0.1c0,0,0-0.1-0.1-0.1
		c-0.2,0.1-0.4,0.1-0.4,0.1V61c-0.1,0-0.1,0-0.1,0l-0.1-0.1c0,0,0,0.1-0.1,0.1h-0.1h-0.1c-0.1,0-0.1,0-0.2,0c0-0.1,0-0.1,0-0.1h-0.1
		c-0.1,0-0.1,0.1-0.1,0.2c-0.2,0-0.3,0-0.5,0c0-0.1,0-0.1-0.1-0.2h-0.1V61c0,0.1,0,0.1,0,0.1s0,0,0-0.1v-0.1H82v-0.1
		c0-0.1-0.1-0.1-0.3-0.1c-0.1-0.1-0.1-0.1-0.2-0.1c0,0-0.1,0-0.1-0.1c-0.1-0.1-0.1-0.1-0.1-0.2h-0.1c0,0,0,0-0.1,0v-0.1
		c0,0,0-0.1-0.1-0.1c0,0,0,0-0.1,0h-0.1c0-0.1,0-0.2-0.2-0.3v-0.1c-0.1-0.1-0.2-0.2-0.3-0.2h-0.1c-0.1-0.1-0.1-0.1-0.2-0.2
		c-0.1-0.1-0.1-0.2-0.2-0.3s-0.1-0.2-0.2-0.2c0.4-0.3,0.4-0.5,0.4-0.5c0-0.1,0-0.1-0.1-0.3c0-0.1,0-0.1,0-0.2c0-0.1,0-0.2,0-0.2
		c0-0.1,0-0.1-0.1-0.2v-0.1v-0.1c0,0,0-0.1,0-0.3s0-0.3-0.1-0.3c0-0.1,0-0.2,0-0.3c0-0.2,0-0.3,0-0.3c0-0.4,0-0.9,0-1.7
		c0-0.7,0-1.3,0-1.7c0.1,0,0.1,0,0.1-0.1s-0.1-0.2-0.1-0.2c0-0.1,0-0.2,0.1-0.3c0-0.1,0.1-0.2,0.1-0.2c-0.1-0.1-0.1-0.1-0.1-0.2
		c0-0.1,0-0.1,0.1-0.1c0-0.1,0-0.6,0-1.5l0.1-0.1c0-0.1,0-0.1-0.1-0.2c0,0,0.1-0.1,0-0.2s0-0.2,0-0.3v-0.1c0.1-0.1,0-0.2,0-0.2
		c0-0.1,0-0.2,0-0.5s0-0.4-0.1-0.4c0.1,0,0.1-0.2,0.1-0.4s0-0.3,0-0.4l-0.1-0.1c0-0.2,0-0.3,0.1-0.3l-0.1-0.1v-0.1
		c0-0.3,0-0.4,0-0.5c0,0,0,0-0.1,0s0,0-0.1,0c0-0.3,0-0.5,0-0.7c-0.1,0-0.1,0-0.1,0s0-0.1,0-0.2v-0.1V45v-0.1v-0.1l-0.1-0.1
		c-0.1-0.1-0.1-0.2,0-0.3l-0.1-0.1c0-0.1,0-0.1,0-0.2c-0.1,0-0.1-0.1-0.2-0.2c0-0.1,0-0.2,0-0.2c0-0.1,0-0.1,0-0.2
		c-0.1-0.1,0-0.2,0-0.3c0.1-0.1,0.1-0.2,0.1-0.3c0,0,0.1-0.1,0.1-0.2c0.1-0.1,0.1-0.2,0.2-0.2l0,0v-0.1l0.1,0.1c0,0,0.1,0,0.2,0
		s0.1,0,0.2,0c0,0,0.1,0,0.2-0.1s0.1-0.1,0.1-0.1c0.1,0,0.1,0,0.2,0s0.2,0,0.2,0s0,0,0.1,0h0.1c0.2,0,0.3,0,0.3-0.1
		c0.4-0.1,0.6-0.1,0.6-0.2H82c0,0,0,0,0.1,0s0,0,0.1,0h0.1c0,0,0.1,0,0.2-0.1s0.1-0.1,0.2-0.1c0,0,0-0.1,0-0.2h0.1c0,0,0,0,0,0.1
		v0.1c0.2-0.1,0.3-0.1,0.4-0.2c0,0,0.1,0,0.2,0.1l0.3-0.1c0,0,0.1-0.1,0.3-0.2c0,0.1,0.1,0.1,0.1,0.2c0,0,0.1,0,0.1-0.1
		c0.1,0,0.1,0,0.1,0h0.1c0,0,0.1,0,0.1-0.1h0.1c0.1,0,0.1,0,0.2,0s0.3-0.1,0.3-0.1h0.1c0,0,0.1,0,0.1-0.1c0.1,0,0.1,0,0.1,0
		s0.1,0,0.2-0.1L85.7,41.1C85.6,41.2,85.6,41.2,85.7,41.1C85.7,41.2,85.7,41.2,85.7,41.1L85.7,41.1z M86.4,41c0,0,0.1,0,0.2,0
		s0.2,0,0.2,0l0,0c0,0,0,0,0,0.1c0,0,0.1,0,0.2,0s0.1,0,0.1,0.1c0.1,0,0.2,0,0.4,0.1c0.4,0,0.7,0.1,0.8,0.2h0.1
		c0,0.1,0.1,0.1,0.3,0.2c0.1,0.1,0.2,0.2,0.3,0.2V42c0.1,0.1,0.3,0.3,0.4,0.7c0,0,0,0,0.1,0l0,0c0,0.2,0,0.3,0,0.4
		c0,0.1,0,0.2,0,0.3s-0.1,0.1-0.1,0.2c-0.1,0.1-0.1,0.1-0.1,0.1c0,0.1,0,0.2-0.1,0.3c0,0.1,0,0.1,0,0.1l-0.1,0.1c0,0,0,0-0.1,0
		c0,0,0,0-0.1,0c0,0,0,0.1-0.1,0.1h-0.1c0,0,0,0.1-0.1,0.1c0,0,0,0.1-0.1,0.1s-0.2,0-0.2,0c0,0.1,0,0.1,0,0.1h-0.1
		c-0.1,0-0.1,0-0.1,0s0,0-0.1,0h-0.1c0,0,0-0.1,0.1-0.1l-0.1-0.1c0-0.1,0-0.1-0.1-0.1l-0.1,0.1h-0.1c0-0.1,0-0.1-0.1-0.2
		c-0.1-0.1-0.1-0.1-0.1-0.1v0.1v0.1c0,0,0-0.1-0.1-0.1c0,0,0-0.1-0.1-0.1c0,0,0,0-0.1-0.1c0-0.2-0.2-0.2-0.5-0.2
		c-0.1,0-0.1,0-0.2,0.1c0,0-0.1,0-0.2,0s-0.1,0-0.1,0L86,44c0,0-0.2,0-0.4,0c-0.3,0.1-0.4,0.1-0.4,0.2c-0.1-0.1-0.2-0.1-0.3,0
		c-0.1,0-0.2,0-0.2,0c-0.1,0-0.2,0-0.2,0v0.1c-0.1,0-0.2,0-0.2,0c-0.1-0.1-0.2-0.1-0.2,0c0,0-0.1,0-0.1,0.1c0,0,0,0.1-0.1,0.1
		s-0.1,0-0.2,0s-0.1,0-0.1,0s-0.1,0-0.1,0.1h-0.1h-0.1v0.1c-0.2,0-0.4,0-0.5,0c0,0,0,0,0,0.1c0,0,0,0,0,0.1
		c-0.2-0.1-0.4-0.1-0.6,0.2c0,0-0.1,0-0.1-0.1c-0.1,0-0.1,0.1,0,0.2c0,0.1,0,0.1,0.1,0.1v0.1v0.1c0,0.1,0,0.1,0,0.1
		c0,0.1,0,0.2,0.1,0.2c0,0.1,0,0.2,0.1,0.3s0.1,0.2,0,0.3c0,0.1,0,0.2,0.1,0.3c0,0,0,0,0,0.1c0,0,0,0,0,0.1s0,0.1,0,0.2
		c0,0.1,0.1,0.1,0.1,0.1c0,0.6,0,0.9,0,0.9c-0.1,0.1-0.1,0.3,0,0.5c0,0,0,0.1,0,0.2c0,0,0,0.1-0.1,0.1c0,0.1,0,0.1,0,0.2
		c0.1,0.1,0.1,0.1,0.1,0.1v0.1v0.1c0,0.1,0,0.2,0,0.5c0,0.2,0,0.4,0,0.5c0,0,0,0.1,0,0.2c0,0.1,0.1,0.1,0.2,0.1s0.2-0.1,0.2-0.1
		c0.2,0,0.4,0,0.5-0.1c0.3,0,0.4,0,0.5,0s0.3,0,0.3,0s0.1,0,0.1-0.1c0.1,0,0.1-0.1,0.1-0.1h0.1c0.1,0,0.2,0,0.3-0.1
		c0.2,0.1,0.3,0,0.4,0c0,0,0,0,0.1,0c0,0,0,0,0.1,0h0.1c0.1,0,0.1,0,0.1,0c0.1,0,0.2,0,0.4,0v-0.1c0.1,0.1,0.2,0.1,0.4,0
		c0.1,0,0.2-0.1,0.3-0.1c0.1,0,0.1,0,0.1,0l0.1-0.1c0,0,0,0,0.1,0c0,0,0,0,0.1,0.1c0,0,0.1,0,0.1-0.1c0.1-0.1,0.1-0.1,0.2-0.1
		c0-0.1,0.1-0.1,0.1-0.1s0,0,0.1,0.1c0.2,0,0.3,0,0.4-0.1c0.1,0,0.1,0,0.2,0s0.1,0,0.1,0s0.1,0,0.2,0.1c0.1,0,0.1,0.1,0.2,0.1
		S89,50,89,50.1c0.1,0,0.1,0,0.2,0c0,0,0,0,0.1,0c0,0,0,0.1,0.1,0.1c0.2,0,0.3,0,0.3,0s0,0.1,0.1,0.2v0.1c0,0.1,0,0.1,0.1,0.3
		c0,0.2,0.1,0.3,0.2,0.4c0,0,0,0.1-0.1,0.1c0,0.1,0,0.2-0.1,0.3s-0.1,0.2-0.1,0.3h-0.1c0,0,0,0,0,0.1c0,0,0,0,0,0.1h-0.1l0,0h-0.1
		c0,0,0,0-0.1-0.1h-0.1c0,0-0.1,0-0.1,0.1h-0.1c0,0.1-0.1,0.1-0.3,0.2c-0.2,0.1-0.3,0.1-0.3,0.2c-0.2,0-0.4,0-0.5,0.2c0,0,0,0-0.1,0
		c0,0,0,0-0.1,0.1c0,0,0,0,0,0.1c-0.1,0-0.1,0-0.2-0.1c0,0,0,0-0.1,0v0.1c0,0-0.1,0-0.2,0s-0.2,0-0.2,0S87,52.9,87,53l-0.1,0.1
		c-0.1,0-0.1,0-0.2,0s-0.1,0.1-0.1,0.2c-0.1-0.1-0.1-0.1-0.2-0.1s-0.2,0-0.2,0.1v0.1c0,0-0.1,0-0.2,0c-0.1-0.1-0.1,0-0.1,0
		s-0.1,0-0.2,0v0.2c0,0-0.1,0-0.3,0h-0.1c-0.1,0-0.1,0.1,0,0.2l-0.2-0.1c0,0-0.1,0-0.4,0c0,0,0,0.1-0.1,0.1l-0.1,0.1
		c-0.2,0-0.3,0-0.3,0L84,53.2c-0.3,0-0.4,0-0.4,0s-0.1,0.1-0.2,0.1c0,0,0,0,0,0.1c-0.2,0.1-0.3,0.1-0.4,0c0,0-0.1,0-0.1,0.1
		l-0.1,0.1c0,0,0,0-0.1-0.1l-0.1-0.1c0,0-0.1,0-0.2,0.1c-0.1,0-0.1,0-0.1,0c-0.1,0-0.1,0.2,0,0.5v0.1v0.1c0,0.1,0.1,0.1,0.1,0.1
		c0.1,0.1,0,0.2-0.1,0.2c0,0,0,0.1,0,0.2c0,0.1,0,0.2,0.1,0.2c0,0,0,0,0,0.1c0,0,0,0,0,0.1c0,0,0,0.1-0.1,0.3
		c0.1,0.1,0.1,0.2,0.1,0.5c0,0.2,0,0.4,0.1,0.6c-0.1,0.2-0.1,0.4,0,0.4c0,0.1,0,0.1,0,0.3v0.1v0.1c0.1,0.2,0.1,0.3,0.1,0.4
		c0,0.1,0.1,0.1,0.1,0.3c0,0.1,0.1,0.2,0.1,0.3c0.1,0,0.2,0,0.3,0.1c0.2,0,0.3,0,0.3,0s0,0,0.1-0.1c0.1,0,0.1,0,0.1,0.1
		c0.4,0,0.6-0.1,0.6-0.1s0.1,0,0.3,0c0.1,0,0.2,0,0.3,0c0-0.1,0.2-0.1,0.5-0.2c0,0,0,0,0-0.1V58c0.1,0,0.1,0,0.2,0s0.1,0,0.2,0
		c0,0,0.1-0.1,0.2-0.1s0.1-0.1,0.2-0.1s0.3,0,0.5-0.1s0.3-0.2,0.4-0.2c0-0.1,0-0.1,0.1-0.1c0.1,0.1,0.2,0,0.3,0
		c0.2,0,0.3-0.1,0.5-0.3c0.1,0,0.2,0,0.2,0c0.1-0.1,0.2-0.1,0.3-0.1c0.4,0,0.6,0,0.7,0.1h0.1c0,0.1,0.1,0.3,0.2,0.4h0.1
		c0,0,0.1,0.1,0.2,0.2c0,0.1,0.1,0.2,0.2,0.3c0,0.1,0,0.1,0.1,0.2c0.1,0.1,0.1,0.1,0.1,0.2c0,0,0,0,0,0.1s0,0.1,0,0.2
		c-0.1,0.2-0.2,0.3-0.2,0.4c-0.1,0-0.2,0.1-0.3,0.2c-0.2,0-0.3,0.1-0.3,0.4h-0.1c0,0,0,0-0.1,0c0,0-0.1,0.1-0.1,0.2h-0.1
		c0,0,0,0-0.1,0s-0.1,0-0.1,0.1c-0.2,0-0.3,0.1-0.3,0.2h-0.1c-0.1,0.2-0.3,0.2-0.4,0.1c0,0-0.1,0.1-0.1,0.2h-0.1
		c-0.1-0.1-0.2-0.1-0.3,0c0,0-0.1,0.1-0.1,0.2L87,60c0,0,0,0,0,0.1v0.1c0,0-0.1-0.1-0.2-0.1s-0.2,0-0.2,0s0,0.1-0.1,0.1
		c0,0,0,0.1-0.1,0.1h-0.1c0,0,0,0-0.1,0c0,0-0.1,0.1-0.1,0.2c-0.1-0.1-0.2,0-0.4,0c0,0,0,0,0,0.1c-0.1,0-0.2,0-0.3,0
		c-0.1,0-0.2,0.1-0.3,0.1H85c0,0,0,0-0.1,0c0,0-0.1,0-0.2,0s-0.2,0-0.2,0.1s0,0.1,0,0.1s-0.1,0-0.2,0h-0.1c0,0,0-0.1-0.1-0.1
		c-0.2,0.1-0.4,0.1-0.4,0.1V61c-0.1,0-0.1,0-0.1,0l-0.1-0.1c0,0,0,0.1-0.1,0.1h-0.1h-0.1c-0.1,0-0.1,0-0.2,0c0-0.1,0-0.1,0-0.1h-0.1
		c-0.1,0-0.1,0.1-0.1,0.2c-0.2,0-0.3,0-0.5,0c0-0.1,0-0.1-0.1-0.2h-0.1V61c0,0.1,0,0.1,0,0.1s0,0,0-0.1v-0.1H82v-0.1
		c0-0.1-0.1-0.1-0.3-0.1c-0.1-0.1-0.1-0.1-0.2-0.1c0,0-0.1,0-0.1-0.1c-0.1-0.1-0.1-0.1-0.1-0.2h-0.1c0,0,0,0-0.1,0v-0.1
		c0,0,0-0.1-0.1-0.1c0,0,0,0-0.1,0h-0.1c0-0.1,0-0.2-0.2-0.3v-0.1c-0.1-0.1-0.2-0.2-0.3-0.2h-0.1c-0.1-0.1-0.1-0.1-0.2-0.2
		c-0.1-0.1-0.1-0.2-0.2-0.3s-0.1-0.2-0.2-0.2c0.4-0.3,0.4-0.5,0.4-0.5c0-0.1,0-0.1-0.1-0.3c0-0.1,0-0.1,0-0.2c0-0.1,0-0.2,0-0.2
		s0-0.1-0.1-0.1v-0.1v-0.1c0,0,0-0.1,0-0.3s0-0.3-0.1-0.3c0-0.1,0-0.2,0-0.3c0-0.2,0-0.3,0-0.3c0-0.4,0-0.9,0-1.7c0-0.7,0-1.3,0-1.7
		c0.1,0,0.1,0,0.1-0.1s-0.1-0.2-0.1-0.2c0-0.1,0-0.2,0.1-0.3c0-0.1,0.1-0.2,0.1-0.2c-0.1-0.1-0.1-0.1-0.1-0.2c0-0.1,0-0.1,0.1-0.1
		c0-0.1,0-0.6,0-1.5L80,50c0-0.1,0-0.1-0.1-0.2c0,0,0.1-0.1,0-0.2s0-0.2,0-0.3v-0.1c0.1-0.1,0-0.1,0-0.2c0-0.1,0-0.2,0-0.5
		s0-0.4-0.1-0.4c0.1,0,0.1-0.2,0.1-0.4s0-0.3,0-0.4l-0.1-0.1c0-0.2,0-0.3,0.1-0.3l-0.1-0.1v-0.1c0-0.3,0-0.4,0-0.5c0,0,0,0-0.1,0
		s0,0-0.1,0c0-0.3,0-0.5,0-0.7c-0.1,0-0.1,0-0.1,0s0-0.1,0-0.2v-0.1v-0.1V45v-0.1l-0.1-0.1c-0.1-0.1-0.1-0.2,0-0.3l-0.1-0.1
		c0-0.1,0-0.1,0-0.2c-0.1,0-0.1-0.1-0.2-0.2c0-0.1,0-0.2,0-0.2c0-0.1,0-0.1,0-0.2c-0.1-0.1,0-0.2,0-0.3c0.1-0.1,0.1-0.2,0.1-0.3
		c0,0,0.1-0.1,0.1-0.2c0.1-0.1,0.1-0.2,0.2-0.2l0,0v-0.1l0.1,0.1c0,0,0.1,0,0.2,0s0.1,0,0.2,0c0,0,0.1,0,0.2-0.1s0.1-0.1,0.1-0.1
		c0.1,0,0.1,0,0.2,0s0.2,0,0.2,0s0,0,0.1,0h0.1c0.2,0,0.3,0,0.3-0.1c0.4-0.1,0.6-0.1,0.6-0.2H82c0,0,0,0,0.1,0s0,0,0.1,0h0.1
		c0,0,0.1,0,0.2-0.1s0.1-0.1,0.2-0.1c0,0,0-0.1,0-0.2h0.1c0,0,0,0,0,0.1v0.1c0.2-0.1,0.3-0.1,0.4-0.2c0,0,0.1,0,0.2,0.1l0.3-0.1
		c0,0,0.1-0.1,0.3-0.2c0,0.1,0.1,0.1,0.1,0.2c0,0,0.1,0,0.1-0.1c0.1,0,0.1,0,0.1,0h0.1c0,0,0.1,0,0.1-0.1h0.1c0.1,0,0.1,0,0.2,0
		s0.3-0.1,0.3-0.1h0.1c0,0,0.1,0,0.1-0.1c0.1,0,0.1,0,0.1,0s0.1,0,0.2-0.1h0.1c0.1,0,0.1,0,0.1,0l0,0l0,0
		C86.2,41.2,86.4,41.2,86.4,41z"/>
</g>
</svg>
