<?xml version="1.0" encoding="utf-8"?>
<!-- Generator: Adobe Illustrator 19.0.1, SVG Export Plug-In . SVG Version: 6.00 Build 0)  -->
<svg version="1.1" id="Layer_1" xmlns="http://www.w3.org/2000/svg" xmlns:xlink="http://www.w3.org/1999/xlink" x="0px" y="0px"
	 viewBox="0 0 130 97.5" enable-background="new 0 0 130 97.5" xml:space="preserve">
<g>
	<g>
		<path fill="#D93427" d="M78.9,72.6c2.1-16.7-4.2-33-6.9-49.7c-0.8-5.1-7.6-8-11.6-4.3C54.9,23.7,49.8,29,45,34.8
			c-5.9,7.1,5.7,15.4,11.6,8.4c4-4.8,8.3-9.4,12.9-13.6c-3.9-1.4-7.7-2.9-11.6-4.3c2.5,15.5-5.5,31.2-7.4,46.6
			c-1.1,9.1,26.8,12.4,27.9,3.3L78.9,72.6z"/>
	</g>
	<g>
		<path fill="#D93427" d="M61.5,30.1C67,34,72.3,38,77.5,42.2c3,2.4,7.8,1.4,10-1.6c2.4-3.3,1.4-7.5-1.6-9.9
			c-5.2-4.2-10.5-8.2-15.9-12.1C62.5,13.3,54,24.8,61.5,30.1L61.5,30.1z"/>
	</g>
</g>
</svg>
