<?xml version="1.0" encoding="utf-8"?>
<!-- Generator: Adobe Illustrator 19.0.1, SVG Export Plug-In . SVG Version: 6.00 Build 0)  -->
<svg version="1.1" id="Layer_1" xmlns="http://www.w3.org/2000/svg" xmlns:xlink="http://www.w3.org/1999/xlink" x="0px" y="0px"
	 viewBox="0 0 100 100" enable-background="new 0 0 100 100" xml:space="preserve">
<g id="Layer_2" display="none">
	<circle display="inline" fill="none" stroke="#231F20" stroke-miterlimit="10" cx="50" cy="50" r="50"/>
</g>
<g>
	<path fill="#C35B28" d="M34.5,61.2c-3.7-5.3-7.4-10.5-11.2-15.7c-0.5-0.7-1.4-1.1-2.2-0.6c-0.7,0.4-1.1,1.5-0.6,2.2
		c3.8,5.2,7.6,10.4,11.2,15.7c0.5,0.7,1.4,1,2.2,0.6C34.6,63,35,61.9,34.5,61.2L34.5,61.2z"/>
</g>
<g>
	<g>
		<path fill="#C35B28" d="M51.8,70.2c2,0,4-1.8,3.9-3.9s-1.7-3.9-3.9-3.9c-2,0-4,1.8-3.9,3.9C48,68.5,49.6,70.2,51.8,70.2L51.8,70.2
			z"/>
	</g>
	<g>
		<path fill="#C35B28" d="M51.7,63.5c-6.1-6.4-11.9-13.1-17.3-20.1c-1.5-2-3-4-4.5-6.1c-0.5-0.7-1.4-1-2.2-0.6
			c-0.7,0.4-1.1,1.5-0.6,2.2c5.3,7.4,10.9,14.5,17,21.3c1.7,1.9,3.5,3.8,5.2,5.6C50.9,67.3,53.1,65,51.7,63.5L51.7,63.5z"/>
	</g>
	<g>
		<path fill="#C35B28" d="M34.9,64.1c7.8-4.3,17.6-7.6,26.2-3.6c2.2,1,4.2,2.4,6.1,3.9c0.7,0.6,1.6,0.7,2.3,0c0.6-0.6,0.7-1.7,0-2.3
			c-3.7-3.1-8-5.6-12.7-6.3C51.6,55,46.3,56,41.4,57.7c-2.8,1-5.5,2.2-8,3.6C31.4,62.3,33,65.1,34.9,64.1L34.9,64.1z"/>
	</g>
	<g>
		<path fill="#C35B28" d="M70,64.4c3.8-5.6,7.6-11.3,11.3-17c0.5-0.7,0.1-1.8-0.6-2.2c-0.8-0.5-1.7-0.2-2.2,0.6
			c-3.7,5.7-7.5,11.3-11.3,17c-0.5,0.7-0.1,1.8,0.6,2.2C68.6,65.4,69.5,65.1,70,64.4L70,64.4z"/>
	</g>
	<g>
		<path fill="#C35B28" d="M22.3,46.3c5.6-5.8,13-9.5,20.9-10.8c3.7-0.6,8-0.7,11.7-0.2c4.6,0.7,8.9,2.4,13.2,4.2
			c2.4,1,4.7,1.8,7,3.1c0.9,0.5,1.5,1,2.2,1.8c0.5,0.5,0.7,1.2,0.7,2c0,2.1,3.2,2.1,3.2,0c0.1-4.9-5.2-7-8.9-8.6
			c-4.7-2-9.4-4.2-14.5-5.3c-8.7-1.8-17.7-0.6-25.8,3c-4.5,2-8.6,4.9-12,8.5C18.5,45.5,20.8,47.8,22.3,46.3L22.3,46.3z"/>
	</g>
</g>
<g>
	<path fill="#C35B28" d="M29.7,37.5c-0.9-1.2-1.8-2.4-2.6-3.5c-0.5-0.7-1.4-1.1-2.2-0.6c-0.7,0.4-1.1,1.5-0.6,2.2
		c0.9,1.2,1.8,2.4,2.6,3.5c0.5,0.7,1.4,1.1,2.2,0.6C29.8,39.3,30.2,38.2,29.7,37.5L29.7,37.5z"/>
</g>
</svg>
