<?xml version="1.0" encoding="utf-8"?>
<!-- Generator: Adobe Illustrator 19.0.1, SVG Export Plug-In . SVG Version: 6.00 Build 0)  -->
<svg version="1.1" id="Layer_1" xmlns="http://www.w3.org/2000/svg" xmlns:xlink="http://www.w3.org/1999/xlink" x="0px" y="0px"
	 viewBox="0 0 100 100" enable-background="new 0 0 100 100" xml:space="preserve">
<g id="Layer_1_1_">
	<g>
		<g>
			<path fill="#C35B28" d="M30.1,29.6c14.4,13.1,23,29.6,33.5,45.7c2.8,4.4,9.9,0.3,7-4.1C59.8,54.5,50.8,37.4,35.9,23.9
				C32,20.3,26.2,26.1,30.1,29.6L30.1,29.6z"/>
		</g>
		<g>
			<path fill="#C35B28" d="M36.5,70.9C46,58.7,56.9,47.7,69.2,38.3c4.1-3.2,0-10.2-4.1-7C51.6,41.6,39.8,53.4,29.5,66.8
				C26.3,71,33.4,75,36.5,70.9L36.5,70.9z"/>
		</g>
	</g>
</g>
<g id="Layer_2" display="none">
	<circle display="inline" fill="none" stroke="#231F20" stroke-miterlimit="10" cx="50" cy="50" r="50"/>
</g>
</svg>
