<?xml version="1.0" encoding="utf-8"?>
<!-- Generator: Adobe Illustrator 19.0.1, SVG Export Plug-In . SVG Version: 6.00 Build 0)  -->
<svg version="1.1" id="Layer_1" xmlns="http://www.w3.org/2000/svg" xmlns:xlink="http://www.w3.org/1999/xlink" x="0px" y="0px"
	 viewBox="0 0 100 100" style="enable-background:new 0 0 100 100;" xml:space="preserve">
<style type="text/css">
	.st0{fill:#C35B28;}
	.st1{display:none;}
	.st2{display:inline;fill:none;stroke:#231F20;stroke-miterlimit:10;}
</style>
<g id="Layer_1_1_">
	<g>
		<g>
			<path class="st0" d="M33.7,80.4c4.8-8.3,9.5-16.5,14.3-24.8c2.7-4.8-4.6-9-7.4-4.3c-4.8,8.3-9.5,16.5-14.3,24.8
				C23.6,80.9,31,85.2,33.7,80.4L33.7,80.4z"/>
		</g>
		<g>
			<path class="st0" d="M45.8,46.7c-2.8-1.2-4.5-5.5-4.8-8.3c-0.3-2.9,0.3-3.3,2.1-5.3c5.5-6.2,14.9-9.3,20-1.1
				c2.4,3.9,5.7,9.3,1.3,12.6c-4.2,3.1-10.1,4.5-15.3,3.8c-5.4-0.8-7.7,7.4-2.3,8.2c9.2,1.4,21.5-1.2,27-9.5c5.2-7.8-3-22.2-10-26.6
				c-10-6.2-24.5,1-30.3,10.2c-5.1,8.1,2,21,9.9,24.2C48.6,57,50.8,48.8,45.8,46.7L45.8,46.7z"/>
		</g>
	</g>
</g>
<g id="Layer_2" class="st1">
	<circle class="st2" cx="50" cy="50" r="50"/>
</g>
</svg>
