<?xml version="1.0" encoding="utf-8"?>
<!-- Generator: Adobe Illustrator 19.0.1, SVG Export Plug-In . SVG Version: 6.00 Build 0)  -->
<svg version="1.1" id="Layer_1" xmlns="http://www.w3.org/2000/svg" xmlns:xlink="http://www.w3.org/1999/xlink" x="0px" y="0px"
	 viewBox="0 0 100 100" style="enable-background:new 0 0 100 100;" xml:space="preserve">
<style type="text/css">
	.st0{fill:#C35B28;}
</style>
<g>
	<path class="st0" d="M20.3,42l0.1,0.1c0.1,0.1,0.1,0.1,0.1,0.1s0,0,0.1,0s0.1,0.1,0.1,0.2c0.1,0.1,0.1,0.2,0.1,0.3c0,0,0,0,0,0.1
		c0,0,0,0,0,0.1v0.3c0,0-0.1,0.1-0.2,0.2c-0.1,0.1-0.2,0.2-0.2,0.2v0.1v0.1c0,0,0,0-0.1,0l0,0c0,0,0,0,0,0.1h-0.1
		c-0.1,0-0.1,0-0.1,0s0,0-0.1,0s-0.1,0-0.1,0s-0.1,0-0.1,0.1c-0.1,0-0.1,0.1-0.1,0.1s0,0,0-0.1s0,0,0,0s-0.1,0-0.1,0.1
		c0,0,0,0,0-0.1v-0.1c0,0-0.1,0-0.3,0c-0.1,0-0.2,0-0.3,0.1h-0.1c-0.1,0-0.1,0-0.1,0s0,0-0.1,0h-0.1h-0.1h-0.1c0,0,0,0-0.1,0h-0.1
		c0,0,0,0-0.1,0H18c0,0-0.1,0-0.2,0s-0.1,0-0.2,0.1c0,0.1,0,0.1,0,0.1s0,0-0.1,0h-0.1c-0.1,0-0.2,0-0.3,0.2c-0.1,0-0.1-0.1-0.2,0
		c0,0,0,0-0.1,0h-0.1c0,0,0,0-0.1,0h-0.1c0,0,0,0-0.1,0c0,0,0,0-0.1,0c-0.2,0-0.3,0-0.3,0.1c0,0-0.1,0-0.2,0c-0.1,0-0.1,0-0.2,0.2
		c0,0,0,0-0.1,0c0,0,0,0-0.1,0s-0.2,0-0.3,0.1V45c0,0,0,0-0.1,0h-0.1c-0.1,0-0.1,0.1-0.1,0.2h-0.1c0,0,0,0-0.1,0c0,0,0,0-0.1,0
		c0,0,0,0,0,0.1c-0.2,0-0.3,0-0.3,0.1c-0.1,0-0.2,0-0.3,0.1c0,0.1,0,0.1,0,0.1c-0.1,0-0.1,0-0.2,0l0,0l0,0c-0.1,0-0.2,0-0.2,0.1
		c0,0,0,0,0,0.1c0,0,0,0,0,0.1c0,0,0,0.1,0,0.2c0,0.1,0,0.2,0,0.2s0,0.1,0.1,0.1l0.1,0.1l0,0l0,0v0.1c0,0,0,0.1,0,0.2
		c0,0.1,0,0.1,0,0.2c0,0,0,0,0,0.1l0,0c0,0.1,0,0.2,0,0.4s0.1,0.3,0.1,0.4c0,0,0,0.1,0,0.2c0,0.1,0,0.1,0,0.2c0,0,0,0.1,0.1,0.3
		c0,0,0,0.1,0,0.2c0,0.1,0,0.2,0,0.2v0.1v0.1c0,0.1,0,0.2,0,0.3s0,0.3,0,0.3c0,0.3,0.1,0.4,0.3,0.3c0.1,0,0.3,0,0.3-0.1l0.1-0.1
		c0.1,0,0.1-0.1,0.1-0.1h0.1c0.1,0,0.1,0,0.1,0l0,0l0,0c0,0,0,0,0.1,0h0.1h0.1h0.1h0.1h0.1c0,0,0,0,0.1,0s0.1,0,0.1,0s0,0,0.1-0.1
		c0,0,0,0,0.1-0.1c0,0,0,0,0.1,0h0.1c0.1-0.1,0.1-0.1,0.1-0.1s0,0,0.1,0s0.1,0,0.2,0c0,0,0.1,0,0.1-0.1h0.1h0.1h0.1H17
		c0,0,0.1,0,0.1-0.1c0,0,0.1,0,0.2,0s0.1,0,0.2,0c0,0,0.1,0,0.2-0.1c0.1,0,0.1-0.1,0.2-0.1H18c0.1,0,0.1,0,0.1,0h0.2
		c0,0,0.1,0,0.1-0.1c0.1,0,0.2-0.1,0.2-0.1s0.1,0,0.1,0.1c0.1,0,0.2,0,0.2-0.1c0,0,0,0,0.1,0c0,0,0.1,0,0.1,0.1
		c0.1,0,0.1,0.1,0.1,0.1s0,0,0.1,0c0,0,0,0,0.1,0l0,0v0.1c0,0,0,0,0.1,0h0.1l0.1,0.3c0.1,0,0.2,0.1,0.2,0.1c0,0.1,0,0.1,0.1,0.2
		c0.1,0,0.1,0.1,0.1,0.1c0,0.1,0,0.2,0,0.2c-0.1,0-0.1,0.2-0.1,0.3c-0.1,0.1-0.1,0.1-0.2,0.1c-0.1,0.1-0.2,0.2-0.2,0.3
		c-0.1,0-0.2,0.1-0.2,0.2h-0.1c0,0,0,0-0.1,0h-0.1c0,0,0,0-0.1,0h-0.1l-0.1,0.1c0,0,0,0.1-0.1,0.1s-0.2,0-0.2,0.1c0,0,0,0-0.1,0
		c0,0,0,0-0.1,0c0,0,0,0-0.1,0s-0.2,0-0.3,0.1c-0.3,0-0.4,0-0.4,0.2c-0.1,0-0.1,0-0.2-0.1v0.1v0.1h-0.1c-0.1,0-0.1,0-0.2,0
		c0,0,0,0,0,0.1l0,0l-0.1-0.1c-0.1,0-0.2,0-0.2,0l0,0l0,0c0,0,0,0-0.1,0l0,0c0,0-0.1,0-0.1,0.1c0,0-0.1,0-0.3,0l-0.1,0.1
		c0,0-0.1,0-0.3,0.1c-0.1,0-0.1,0-0.2,0.1c-0.1,0-0.1,0.1-0.2,0.1c-0.1,0.1-0.2,0.1-0.2,0.2l0,0l0,0c-0.1,0-0.2,0.1-0.3,0.2
		c0,0,0,0-0.1,0c0,0,0,0-0.1,0c0,0-0.1,0-0.2,0c-0.1,0-0.2,0-0.2,0c-0.1,0.1-0.1,0.3-0.1,0.3s-0.1,0.2,0,0.4l0.1,0.1v0.1v0.1
		c0,0,0,0,0,0.1v0.1c0,0,0,0.2,0,0.4s0,0.4,0,0.4s0,0.1,0.1,0.1c-0.1,0.1-0.1,0.2,0,0.2c-0.1,0.2-0.1,0.4,0,0.5c0,0.1,0,0.2,0,0.3
		l0,0l0,0l0,0c0,0,0,0,0,0.1c0,0,0,0,0,0.1V56c0,0,0,0,0,0.1c0,0,0,0,0,0.1c0,0,0,0.1,0,0.3c-0.1,0.1,0,0.2,0,0.2s0,0,0,0.1v0.1
		c0,0,0,0,0,0.1l0,0c0,0,0,0,0,0.1s0,0.1,0,0.1s0,0.1,0.1,0.1c0,0.1,0,0.2,0,0.3l-0.1,0.1c0,0.2-0.1,0.3-0.2,0.3l-0.1,0.1
		c0,0-0.1,0.1-0.1,0.2c0,0,0,0-0.1,0c0,0,0,0,0,0.1h-0.1h-0.1l0,0c0,0,0,0,0,0.1c-0.1,0-0.2,0-0.3-0.1h-0.1c-0.1,0-0.2-0.1-0.2-0.1
		s-0.1,0-0.2,0c-0.1,0-0.1,0-0.2,0c0-0.2-0.1-0.3-0.3-0.3c0-0.1,0-0.1-0.1-0.2c-0.1,0-0.1-0.1-0.1-0.1c0-0.1,0-0.1-0.1-0.2
		C12,57.4,12,57.4,12,57.4s0-0.1,0.1-0.2c0-0.1,0-0.2,0-0.2c0.1,0,0.1-0.1,0-0.3c0-0.1-0.1-0.2-0.1-0.3v-0.1v-0.1c0,0,0-0.1,0-0.2
		c0-0.1,0-0.2,0-0.2v-0.1c0,0,0-0.1-0.1-0.2c0-0.1-0.1-0.1-0.1-0.1l0,0l0,0c0-0.2,0-0.6,0-1.2c-0.1,0-0.1-0.1-0.1-0.2
		c0-0.1,0-0.2,0-0.3s0.1-0.1,0.1-0.2l0,0l0,0c0,0,0-0.1,0-0.4V53c0-0.1,0-0.1,0-0.2v-0.1v-0.1c0-0.1,0-0.1,0-0.1c0-0.2,0-0.3,0-0.3
		l0,0l0,0l0,0c0,0,0,0,0-0.1l0,0l0,0c-0.1-0.1-0.1-0.1-0.1-0.3h-0.1l0,0c0,0,0-0.1,0.1-0.1c0-0.1,0-0.2,0-0.2s0-0.1,0.1-0.1
		c0,0,0-0.1,0-0.2c0-0.1,0-0.2,0-0.2s0-0.1,0-0.2c0-0.1,0-0.1,0-0.2l-0.1-0.1c0-0.1,0-0.1,0-0.2l-0.1-0.1v-0.1c0,0,0,0,0.1,0
		c0,0,0.1-0.1,0-0.3c0,0,0,0,0-0.1v-0.1l0,0l0,0c0-0.1,0-0.2,0-0.5s0-0.4-0.1-0.4h-0.1c0,0,0-0.1,0-0.2c0-0.1,0-0.1,0-0.1s0,0,0-0.1
		l0,0c0,0,0-0.1-0.1-0.2c0-0.1,0.1-0.1,0.1-0.1c-0.1-0.2-0.1-0.3-0.2-0.3v-0.1c0,0,0-0.1-0.1-0.3c0-0.1-0.1-0.2-0.1-0.3
		c0-0.2-0.1-0.3-0.1-0.3c0-0.1,0-0.1,0-0.2c0-0.1,0-0.1,0-0.2c-0.1-0.1-0.1-0.2-0.1-0.4c0,0,0,0-0.1-0.1c0,0,0,0,0-0.1s0-0.1,0-0.2
		c0-0.1-0.1-0.1-0.1-0.2c-0.1-0.1-0.1-0.1-0.3-0.2V45c0,0,0,0,0-0.1l0,0c0,0,0,0,0-0.1s0-0.1,0-0.1v-0.1v-0.1c0,0,0,0,0-0.1l0,0
		v-0.1c0-0.1,0-0.1,0-0.1s0.1-0.1,0.1-0.2c0,0,0,0,0-0.1v-0.1l0.1-0.1c0,0,0,0,0-0.1l0,0c0,0,0,0,0.1-0.1c0,0,0.1,0,0.1-0.1
		c0.1,0,0.2,0,0.3-0.1s0.2-0.1,0.2-0.1s0.1,0,0.1,0.1c0.1,0,0.2,0,0.3,0h0.1c0,0,0.1,0,0.2,0c0.1,0.1,0.2,0.1,0.3,0.2
		c0,0,0.1,0,0.2,0c0.1,0,0.1,0,0.2,0c0,0,0.1,0,0.1-0.1s0.1-0.1,0.1-0.1s0,0,0.1,0c0,0,0,0,0.1,0s0.1-0.1,0.2-0.2c0,0,0.1,0,0.2,0.1
		c0,0,0.1,0,0.1-0.1s0.1-0.1,0.1-0.1s0,0,0.1,0.1c0.1,0,0.3,0,0.3-0.1h0.1h0.1c0,0,0,0,0.1,0c0,0,0,0,0.1-0.1c0.1,0,0.1,0,0.2,0
		c0.1,0,0.2,0,0.2,0c0-0.1,0-0.1,0-0.1s0,0,0.1,0h0.1c0,0,0,0,0.1,0h0.1h0.1c0.1,0,0.1,0,0.2,0l0.1-0.1c0.1-0.1,0.1-0.1,0.1-0.1h0.1
		c0.1,0,0.1,0,0.2,0c0,0,0.1,0,0.1-0.1c0.1,0,0.1,0,0.1,0c0.2,0,0.3,0,0.3-0.1h0.1h0.1l0,0v-0.1h0.1v0.1c0,0,0,0,0.1,0h0.1
		c0,0,0,0,0.1,0h0.1c0,0,0,0,0.1-0.1c0,0,0.1,0,0.1-0.1c0,0,0,0,0.1,0h0.1c0,0,0,0,0.1,0c0,0,0,0,0.1,0H18c0.1,0,0.1,0,0.1,0
		s0.1,0,0.1-0.1l0.1-0.1h0.1c0.1,0,0.1,0,0.2,0c0,0,0.1,0,0.1-0.1c0.1,0,0.2,0,0.3,0c0.1,0,0.2,0,0.3,0c0.1,0,0.2,0,0.3,0
		c0.1,0.1,0.2,0.1,0.3,0.1C20.1,42,20.2,42,20.3,42z M20,41.9c0.1,0.1,0.2,0.1,0.3,0.1l0.1,0.1c0.1,0.1,0.1,0.1,0.1,0.1s0,0,0.1,0
		s0.1,0.1,0.1,0.2c0.1,0.1,0.1,0.2,0.1,0.3c0,0,0,0,0,0.1c0,0,0,0,0,0.1v0.3c0,0-0.1,0.1-0.2,0.2c-0.1,0.1-0.2,0.2-0.2,0.2v0.1v0.1
		c0,0,0,0-0.1,0l0,0c0,0,0,0,0,0.1h-0.1c-0.1,0-0.1,0-0.1,0s0,0-0.1,0s-0.1,0-0.1,0s-0.1,0-0.1,0.1c-0.1,0-0.1,0.1-0.1,0.1
		s0,0,0-0.1s0,0,0,0s-0.1,0-0.1,0.1c0,0,0,0,0-0.1v-0.1c0,0-0.1,0-0.3,0c-0.1,0-0.2,0-0.3,0.1h-0.1c-0.1,0-0.1,0-0.1,0s0,0-0.1,0
		h-0.1h-0.1h-0.1c0,0,0,0-0.1,0h-0.1c0,0,0,0-0.1,0H18c0,0-0.1,0-0.2,0s-0.1,0-0.2,0.1c0,0.1,0,0.1,0,0.1s0,0-0.1,0h-0.1
		c-0.1,0-0.2,0-0.3,0.2c-0.1,0-0.1-0.1-0.2,0c0,0,0,0-0.1,0h-0.1c0,0,0,0-0.1,0h-0.1c0,0,0,0-0.1,0c0,0,0,0-0.1,0
		c-0.2,0-0.3,0-0.3,0.1c0,0-0.1,0-0.2,0c-0.1,0-0.1,0-0.2,0.2c0,0,0,0-0.1,0c0,0,0,0-0.1,0s-0.2,0-0.3,0.1v0.1c0,0,0,0-0.1,0h-0.1
		c-0.1,0-0.1,0.1-0.1,0.2h-0.1c0,0,0,0-0.1,0c0,0,0,0-0.1,0c0,0,0,0,0,0.1c-0.2,0-0.3,0-0.3,0.1c-0.1,0-0.2,0-0.3,0.1
		c0,0.1,0,0.1,0,0.1c-0.1,0-0.1,0-0.2,0l0,0l0,0c-0.1,0-0.2,0-0.2,0.1c0,0,0,0,0,0.1c0,0,0,0,0,0.1c0,0,0,0.1,0,0.2
		c0,0.1,0,0.2,0,0.2s0,0.1,0.1,0.1l0.1,0.1l0,0l0,0v0.1c0,0,0,0.1,0,0.2c0,0.1,0,0.1,0,0.2c0,0,0,0,0,0.1l0,0c0,0.1,0,0.2,0,0.4
		s0.1,0.3,0.1,0.4c0,0,0,0.1,0,0.2c0,0.1,0,0.1,0,0.2c0,0,0,0.1,0.1,0.3c0,0,0,0.1,0,0.2c0,0.1,0,0.2,0,0.2V49v0.1
		c0,0.1,0,0.2,0,0.3s0,0.3,0,0.3c0,0.3,0.1,0.4,0.3,0.3c0.1,0,0.3,0,0.3-0.1l0.1-0.1c0.1,0,0.1-0.1,0.1-0.1h0.1c0.1,0,0.1,0,0.1,0
		l0,0l0,0c0,0,0,0,0.1,0h0.1h0.1h0.1h0.1h0.1c0,0,0,0,0.1,0s0.1,0,0.1,0s0,0,0.1-0.1c0,0,0,0,0.1-0.1c0,0,0,0,0.1,0h0.1
		c0.1-0.1,0.1-0.1,0.1-0.1s0,0,0.1,0s0.1,0,0.2,0c0,0,0.1,0,0.1-0.1h0.1h0.1h0.1H17c0,0,0.1,0,0.1-0.1c0,0,0.1,0,0.2,0s0.1,0,0.2,0
		c0,0,0.1,0,0.2-0.1c0.1,0,0.1-0.1,0.2-0.1H18c0.1,0,0.1,0,0.1,0c0.1,0,0.2,0,0.2,0c0.1-0.1,0.3-0.1,0.3-0.1s0.1,0,0.1,0.1
		c0.1,0,0.2,0,0.2-0.1c0,0,0,0,0.1,0c0,0,0.1,0,0.1,0.1c0.1,0,0.1,0.1,0.1,0.1s0,0,0.1,0c0,0,0,0,0.1,0l0,0v0.1c0,0,0,0,0.1,0h0.1
		l0.1,0.3c0.1,0,0.2,0.1,0.2,0.1c0,0.1,0,0.1,0.1,0.2c0.1,0,0.1,0.1,0.1,0.1c0,0.1,0,0.2,0,0.2c-0.1,0-0.1,0.2-0.1,0.3
		c-0.1,0.1-0.1,0.1-0.2,0.1c-0.1,0.1-0.2,0.2-0.2,0.3c-0.1,0-0.2,0.1-0.2,0.2h-0.1c0,0,0,0-0.1,0h-0.1c0,0,0,0-0.1,0h-0.1l-0.1,0.1
		c0,0,0,0.1-0.1,0.1s-0.2,0-0.2,0.1c0,0,0,0-0.1,0c0,0,0,0-0.1,0c0,0,0,0-0.1,0s-0.2,0-0.3,0.1c-0.3,0-0.4,0-0.4,0.1
		c-0.1,0-0.1,0-0.2,0c0,0,0,0,0,0.1v0.1h-0.1c-0.1,0-0.1,0-0.2,0c0,0,0,0,0,0.1l0,0l-0.1-0.1c-0.1,0-0.2,0-0.2,0l0,0l0,0
		c0,0,0,0-0.1,0l0,0c0,0-0.1,0-0.1,0.1c0,0-0.1,0-0.3,0l-0.1,0.1c0,0-0.1,0-0.3,0.1c-0.1,0-0.1,0-0.2,0.1c-0.1,0-0.1,0.1-0.2,0.1
		c-0.1,0.1-0.2,0.1-0.2,0.2l0,0l0,0c-0.1,0-0.2,0.1-0.3,0.2c0,0,0,0-0.1,0c0,0,0,0-0.1,0c0,0-0.1,0-0.2,0c-0.1,0-0.2,0-0.2,0
		c-0.1,0.1-0.1,0.3-0.1,0.3s-0.1,0.2,0,0.4l0.1,0.1v0.1v0.1c0,0,0,0,0,0.1v0.1c0,0,0,0.2,0,0.4s0,0.4,0,0.4s0,0.1,0.1,0.1
		c-0.1,0.1-0.1,0.2,0,0.2c-0.1,0.2-0.1,0.4,0,0.5c0,0.1,0,0.2,0,0.3l0,0l0,0l0,0c0,0,0,0,0,0.1c0,0,0,0,0,0.1V56c0,0,0,0,0,0.1
		c0,0,0,0,0,0.1c0,0,0,0.1,0,0.3c-0.1,0.1,0,0.2,0,0.2s0,0,0,0.1v0.1c0,0,0,0,0,0.1l0,0c0,0,0,0,0,0.1s0,0.1,0,0.1s0,0.1,0.1,0.1
		c0,0.1,0,0.2,0,0.3l-0.1,0.1c0,0.2-0.1,0.3-0.2,0.3c0,0-0.1,0.1-0.1,0.2S14,58.3,14,58.4c0,0,0,0-0.1,0c0,0,0,0,0,0.1h-0.1h-0.1
		l0,0c0,0,0,0,0,0.1c-0.1,0-0.2,0-0.3-0.1h-0.1c-0.1,0-0.2-0.1-0.2-0.1s-0.1,0-0.2,0c-0.1,0-0.1,0-0.2,0c0-0.2-0.1-0.3-0.3-0.3
		c0-0.1,0-0.1-0.1-0.2c-0.1,0-0.1-0.1-0.1-0.1c0-0.1,0-0.1-0.1-0.2C12,57.5,12,57.5,12,57.5s0-0.1,0.1-0.2c0-0.1,0-0.2,0-0.2
		c0.1,0,0.1-0.1,0-0.3c0-0.1-0.1-0.2-0.1-0.3v-0.1v-0.1c0,0,0-0.1,0-0.2c0-0.1,0-0.2,0-0.2v-0.1c0,0,0-0.1-0.1-0.2
		c0-0.1-0.1-0.1-0.1-0.1l0,0l0,0c0-0.2,0-0.6,0-1.2c-0.1,0-0.1-0.1-0.1-0.2c0-0.1,0-0.2,0-0.3s0.1-0.1,0.1-0.2c0,0,0-0.1-0.1-0.1
		c0,0,0-0.1,0-0.4V53c0-0.1,0-0.1,0-0.2v-0.1v-0.1c0-0.1,0-0.1,0-0.1c0-0.2,0-0.3,0-0.3l0,0l0,0l0,0c0,0,0,0,0-0.1l0,0l0,0
		c-0.1-0.1-0.1-0.1-0.1-0.3h-0.1l0,0c0,0,0-0.1,0.1-0.1c0-0.1,0-0.2,0-0.2s0,0,0-0.1v-0.1c0,0,0-0.1,0-0.2c0-0.1,0-0.2,0-0.2
		s0-0.1,0-0.2c0-0.1,0-0.1,0-0.2l-0.1-0.1c0-0.1,0-0.1,0-0.2l-0.1-0.1V50c0,0,0,0,0.1,0c0,0,0.1-0.1,0-0.3c0,0,0,0,0-0.1v-0.1l0,0
		l0,0c0-0.1,0-0.2,0-0.5s0-0.4-0.1-0.4h-0.1c0,0,0-0.1,0-0.2c0-0.1,0-0.1,0-0.1s0,0,0-0.1l0,0c0,0,0-0.1-0.1-0.2c0,0,0,0,0-0.1
		c0,0,0,0,0-0.1v-0.1c0-0.1-0.1-0.1-0.1-0.1v-0.1c0,0,0-0.1-0.1-0.3c0-0.1-0.1-0.2-0.1-0.3c0-0.2-0.1-0.3-0.1-0.3c0-0.1,0-0.1,0-0.2
		c0-0.1,0-0.1,0-0.2c-0.1-0.1-0.1-0.2-0.1-0.4c0,0,0,0-0.1-0.1c0,0,0,0,0-0.1s0-0.1,0-0.2c0-0.1-0.1-0.1-0.1-0.2
		c-0.1-0.1-0.1-0.1-0.3-0.2v-0.1c0,0,0,0,0-0.1l0,0c0,0,0,0,0-0.1s0-0.1,0-0.1v-0.1v-0.1c0,0,0,0,0-0.1l0,0v-0.1c0-0.1,0-0.1,0-0.1
		s0.1-0.1,0.1-0.2c0,0,0,0,0-0.1v-0.1l0.1-0.1c0,0,0,0,0-0.1l0,0c0,0,0,0,0.1-0.1c0,0,0.1,0,0.1-0.1c0.1,0,0.2,0,0.3-0.1
		s0.2-0.1,0.2-0.1s0.1,0,0.1,0.1c0.1,0,0.2,0,0.3,0h0.1c0,0,0.1,0,0.2,0c0.1,0.1,0.2,0.1,0.3,0.2c0,0,0.1,0,0.2,0c0.1,0,0.1,0,0.2,0
		c0,0,0.1,0,0.1-0.1s0.1-0.1,0.1-0.1s0,0,0.1,0c0,0,0,0,0.1,0s0.1-0.1,0.2-0.2c0,0,0.1,0,0.2,0.1c0,0,0.1,0,0.1-0.1s0.1-0.1,0.1-0.1
		s0,0,0.1,0.1c0.1,0,0.3,0,0.3-0.1H14h0.1c0,0,0,0,0.1,0c0,0,0,0,0.1-0.1c0.1,0,0.1,0,0.2,0c0.1,0,0.2,0,0.2,0c0-0.1,0-0.1,0-0.1
		s0,0,0.1,0h0.1c0,0,0,0,0.1,0h0.1h0.1c0.1,0,0.1,0,0.2,0l0.1-0.1c0.1-0.1,0.1-0.1,0.1-0.1h0.1c0.1,0,0.1,0,0.2,0c0,0,0.1,0,0.1-0.1
		c0.1,0,0.1,0,0.1,0c0.2,0,0.3,0,0.3-0.1h0.1h0.1l0,0v-0.1h0.1v0.1c0,0,0,0,0.1,0h0.1c0,0,0,0,0.1,0h0.1c0,0,0,0,0.1-0.1
		c0,0,0.1,0,0.1-0.1c0,0,0,0,0.1,0h0.1c0,0,0,0,0.1,0c0,0,0,0,0.1,0h0.1c0.1,0,0.1,0,0.1,0s0.1,0,0.1-0.1l0.1-0.1h0.1
		c0.1,0,0.1,0,0.2,0c0,0,0.1,0,0.1-0.1c0.1,0,0.2,0,0.3,0c0.1,0,0.2,0,0.3,0c0.1,0,0.2,0,0.3,0C19.8,41.9,19.9,41.9,20,41.9z
		 M12,48.2L12,48.2C12,48.1,12,48.1,12,48.2z M12,48.1L12,48.1L12,48.1z"/>
	<path class="st0" d="M30.1,38.5c0,0.1,0.1,0.1,0.2,0.2c0,0,0-0.1,0.1-0.1l0,0h0.1v0.1c0,0,0,0,0.1,0.1c0.1,0,0.1,0.1,0.1,0.2
		c0,0.1,0.1,0.1,0.2,0.2c0.1,0.1,0.2,0.1,0.3,0.1c0,0.1,0,0.1-0.1,0.1H31c0,0,0,0.1,0.1,0.2c0,0,0,0.1,0,0.2c0,0.1,0,0.1,0,0.1V40
		c0,0.1,0,0.1,0,0.1s0,0,0,0.1c0,0,0,0,0.1,0.1c0,0,0,0,0,0.1s0,0.1,0,0.1s0,0,0,0.1c0,0,0,0,0,0.1s0,0.2,0.1,0.2
		c0,0.2,0.1,0.4,0.1,0.4c0,0.2,0,0.3,0.1,0.4c0,0.1,0,0.1,0,0.2c0,0.1,0.1,0.2,0,0.2v0.1v0.1c0,0.1,0,0.1,0,0.1s0,0,0.1,0
		c0,0,0,0,0.1,0c0,0.2,0,0.3,0,0.3v0.1l0,0l0,0l0,0c0,0,0,0,0,0.1V43c0,0.1,0,0.2,0.1,0.4s0.1,0.3,0,0.5c0.1,0.1,0.2,0.2,0.2,0.4
		v0.1l0,0c0,0,0,0,0,0.1v0.1v0.1c0,0,0,0,0,0.1c0,0,0,0.1,0.1,0.1V45c0,0.1,0,0.1,0,0.1s0,0.1,0.1,0.1c0,0.1,0.1,0.1,0,0.1l0.1,0.1
		c0,0,0,0.1-0.1,0.1c0,0,0,0.1,0,0.2v0.1l0,0l0,0l0,0c0.1,0.1,0.1,0.2,0,0.3c0,0.2,0.1,0.4,0.1,0.4h0.1c0,0,0,0.1,0,0.4V47
		c0,0,0,0.1,0.1,0.1v0.1c0,0.1,0,0.1,0,0.2s0,0.1,0,0.1c0,0.1,0,0.1,0.1,0.1c0,0.1,0,0.1,0,0.2c0,0,0,0,0,0.1V48c0,0,0,0.1,0.1,0.1
		c0,0.2,0.1,0.3,0.1,0.3c0,0.1-0.1,0.1,0,0.2l0,0c0,0,0,0,0,0.1v0.1c0,0,0,0.1,0.1,0.1c0,0.1,0,0.1,0,0.1s0,0.1,0,0.2
		c0,0.1,0,0.2,0,0.3c0,0,0,0,0,0.1s0,0.1,0,0.1c0,0.2,0.1,0.3,0.1,0.3s0.1,0,0.2,0.1c0.1,0,0.1,0.1,0.2,0.1c0,0,0,0,0,0.1
		c0,0,0,0.1,0.1,0.1s0.1,0,0.2,0.1c0,0.1,0,0.2,0,0.2c0.1,0.1,0.1,0.2,0,0.2l0.1,0.1c0,0.1-0.1,0.1-0.2,0.1c0,0,0,0.1,0,0.2
		c0,0.1,0,0.2,0,0.2c-0.1,0-0.1,0-0.1,0.1c0,0,0,0.1,0,0.2v0.1c0,0,0,0,0,0.1v0.1c0,0,0,0,0,0.1v0.1v0.1c0,0.1,0,0.2,0.1,0.2
		c0,0.3,0.1,0.5,0.2,0.6c0,0.2,0,0.4,0.1,0.4c0,0.1,0,0.1,0.1,0.2c0,0,0,0,0.1,0l0,0v0.1V54v0.1c0,0,0,0,0.1,0.1c0,0.1,0,0.1,0,0.2
		c0.1,0.1,0.1,0.1,0.1,0.2c0,0,0.1,0.1,0.1,0.2c0,0,0.1,0.1,0.2,0.3c0,0.1,0.1,0.2,0.2,0.2v0.1c0,0.1,0.1,0.1,0.1,0.1
		c0.1,0,0.2,0.1,0.2,0.3c0,0,0,0,0.1,0.1V56v0.1v0.1c0,0.1,0,0.2,0,0.3s0,0.2,0,0.2c0.1,0,0.1,0.1,0,0.3c-0.1,0-0.1,0.1-0.2,0.2
		c-0.1,0-0.1,0.1-0.2,0.2c-0.1,0.1-0.2,0.1-0.3,0.1c0,0,0,0,0,0.1c0,0,0,0,0,0.1h-0.3c0-0.1-0.1-0.2-0.2-0.2
		c-0.1-0.1-0.1-0.1-0.2-0.1c-0.1,0-0.2,0-0.3-0.1c0,0,0,0,0,0.1s0,0,0,0s-0.1,0-0.1-0.1v-0.1l-0.1-0.1c-0.2-0.2-0.3-0.3-0.4-0.3
		c0-0.2-0.1-0.3-0.2-0.3v-0.1l0,0c0,0-0.1-0.1-0.1-0.2c-0.1-0.1-0.1-0.2-0.1-0.2h-0.1c0-0.1,0-0.3-0.1-0.3c0-0.1,0-0.2-0.1-0.3
		c0,0,0,0-0.1,0l0,0v-0.1c0-0.1,0-0.1,0-0.1v-0.1c0-0.1,0-0.1,0-0.2h-0.2l0.1-0.1c0-0.1,0-0.1-0.1-0.2c0-0.2,0-0.3-0.1-0.3v-0.1
		v-0.1c0,0,0,0,0-0.1c0,0,0,0,0-0.1c0,0,0-0.1,0-0.2c0-0.1,0-0.1,0-0.2c0-0.2-0.1-0.3-0.1-0.3v-0.1V53c0,0,0,0,0-0.1v-0.1v-0.1v-0.1
		l0,0l0,0c0-0.1-0.1-0.1-0.1-0.2h-0.1c-0.1,0-0.1,0-0.1,0c-0.1,0-0.2,0-0.2,0.1l0,0l0,0c0,0,0,0-0.1,0c0,0,0,0-0.1,0
		c0,0-0.1,0-0.1,0.1c0,0,0,0-0.1-0.1h-0.1h-0.1c0,0-0.1-0.1-0.1,0c-0.1,0-0.1,0.1-0.1,0.1c-0.1,0-0.2,0-0.2,0c0-0.1-0.1-0.1-0.2-0.1
		c0,0,0,0-0.1,0.1c0,0-0.1,0-0.2-0.1c-0.1,0-0.2,0-0.3,0.1c-0.1,0-0.2,0-0.2,0c-0.1,0-0.2-0.1-0.3,0c-0.1,0-0.2,0-0.2,0.1
		c-0.4,0-0.6,0-0.6,0c-0.1,0-0.2,0-0.3,0c-0.1,0-0.2,0-0.3,0c0,0.1,0,0.1,0,0.1s-0.1,0-0.2-0.1c0,0-0.1,0-0.1,0.1c0,0-0.1,0-0.2,0
		s-0.2,0-0.2,0s0,0-0.1,0c0,0,0,0-0.1,0s-0.1,0-0.1,0.1c-0.1,0-0.1-0.1-0.2-0.1c0,0,0,0-0.1,0.1L26.1,53c0-0.1-0.1-0.1-0.1-0.1
		s-0.1,0-0.1,0.1c-0.1,0-0.1,0.1-0.1,0.1s0,0.1-0.1,0.2c0,0.1,0,0.1-0.1,0.2v0.1c0,0,0,0-0.1,0.1c0,0,0,0-0.1,0.1c0,0,0,0.1,0,0.2
		c0,0.1,0,0.2,0,0.2l0,0l0,0v0.1c0,0,0,0.1-0.1,0.1c0,0.1,0,0.2-0.1,0.3v0.1c-0.1,0.1-0.1,0.1-0.1,0.1s0,0,0,0.1v0.1c0,0,0,0-0.1,0
		s-0.1,0-0.1,0.1c0,0.2-0.1,0.3-0.2,0.3c0,0,0,0.1,0,0.3h-0.1c-0.1,0.2-0.1,0.3-0.1,0.3s0,0.1,0.1,0.2c0,0,0,0-0.1,0.1
		c0,0,0,0.1-0.1,0.2c0,0-0.1,0.1-0.1,0.2c0,0,0,0,0,0.1s0,0.1,0,0.1l0,0c0,0,0,0,0,0.1c-0.1,0.1-0.1,0.3-0.1,0.3l-0.1,0.1
		c0,0.1,0,0.1-0.1,0.2c0,0,0,0,0,0.1c0,0,0,0,0,0.1l0,0l0,0l0,0c0,0,0,0-0.1,0.1c0,0-0.1,0-0.1,0.1l-0.1,0.1c0,0,0,0-0.1,0
		c0,0,0,0-0.1,0h-0.1h-0.1c0-0.1,0-0.2,0-0.2c-0.2,0-0.3,0-0.3,0c0-0.1,0-0.1-0.1-0.2c0,0,0,0-0.1,0h-0.1l0,0l0,0h-0.1v0.1
		c0,0,0-0.1-0.1-0.1c-0.1-0.1-0.1-0.1-0.1-0.1c-0.1,0-0.1,0-0.1,0c0-0.1,0-0.1,0-0.2h-0.1c0-0.1,0-0.2,0-0.3l0,0l0,0
		c0.1-0.1,0.1-0.2,0.1-0.4c-0.1-0.1-0.1-0.1-0.1-0.2h0.1l0,0c0,0,0-0.1,0-0.2h0.1c0,0,0-0.1,0-0.2v-0.1l0.1-0.1c0-0.1,0-0.2,0.1-0.2
		v-0.1v-0.1c0.1,0,0.2-0.1,0.2-0.2c0,0,0.1,0,0.1-0.1s0-0.1,0-0.2V55v-0.1c0-0.1,0-0.1,0-0.1s0-0.1,0.1-0.1c0-0.1,0.1-0.1,0.1-0.2
		c0.1-0.1,0.1-0.2,0.1-0.2c0-0.1,0.1-0.2,0.1-0.2c0-0.1,0-0.2,0.1-0.3s0.1-0.2,0.1-0.3c0,0,0.1,0,0.1-0.1s0.1-0.1,0.1-0.1
		c0-0.1,0-0.1,0-0.2c0.1-0.1,0.1-0.2,0-0.3c0,0-0.1-0.1,0-0.1h0.1c0.1-0.1,0.1-0.2,0-0.3c-0.1,0-0.2,0-0.2,0c0-0.2-0.1-0.3-0.3-0.4
		l0,0l0,0c0,0,0-0.1-0.1-0.1s-0.1-0.1-0.1-0.1s0.1-0.1,0.2-0.3c0-0.1,0.1-0.2,0.2-0.2c0.1-0.1,0.1-0.1,0.1-0.1l0.4-0.1
		c0,0,0.1,0,0.3,0c0.1,0,0.2,0,0.2,0V51c0-0.1,0-0.1,0-0.1s0,0,0.1-0.1v-0.1v-0.1c0,0,0,0,0.1-0.1c0,0,0,0,0-0.1s0.1-0.2,0.2-0.3
		c0.1-0.2,0.1-0.3,0-0.4c0,0,0.1,0,0.1-0.1s0.1-0.1,0.1-0.2c0-0.1,0-0.1,0.1-0.2c0-0.1,0.1-0.2,0-0.2c0,0,0.1-0.1,0.1-0.2
		c0-0.1,0.1-0.1,0.1-0.1c0-0.1,0-0.1,0.1-0.3c0,0,0-0.1,0.1-0.2l0,0l0,0c0.1-0.1,0.1-0.1,0.1-0.1s0,0,0-0.1s0-0.1,0-0.1s0,0,0-0.1
		c0.1-0.2,0.1-0.3,0.1-0.3v-0.2l0,0l0,0v-0.1v-0.1c0.1-0.1,0.1-0.2,0.1-0.3c0,0,0,0,0.1-0.1c0,0,0,0,0.1-0.1v-0.1v-0.1
		c0,0,0,0,0.1-0.1c0,0,0,0,0-0.1v-0.1V46c0,0,0.1,0,0.1-0.1c0.1-0.2,0.1-0.3,0.1-0.3c0-0.1,0-0.1,0.1-0.3c0-0.1,0.1-0.2,0.1-0.3
		c0,0,0.1-0.1,0.1-0.3s0.1-0.2,0.1-0.3s0-0.1,0.1-0.2v-0.1c0,0,0,0,0-0.1v-0.1H27l0.1-0.1v-0.1c0-0.1,0-0.1,0-0.2l0,0l0,0
		c0,0,0-0.1,0-0.2c0.1,0,0.1,0,0.1,0s0,0,0-0.1v-0.1c0,0,0,0,0-0.1c0,0,0,0,0.1-0.1v-0.1c0-0.1,0-0.1,0-0.1s0-0.1,0.1-0.2
		c0.1-0.1,0.1-0.2,0.1-0.2c0.1,0,0.1-0.1,0.1-0.2c0-0.1,0-0.2,0-0.2v-0.1c0,0,0-0.1,0.1-0.1c0-0.1,0.1-0.1,0.1-0.1
		c0-0.1,0-0.1,0-0.2s0.1-0.1,0.1-0.1s0,0,0-0.1l0,0c0,0,0-0.1,0.1-0.1c0,0,0-0.1,0.1-0.2c0-0.1,0.1-0.1,0.1-0.1v-0.1
		c0-0.1,0-0.1,0-0.1c0.1-0.2,0.1-0.3,0.1-0.3h0.1c0-0.1,0-0.3,0.1-0.3c0-0.1,0-0.1,0.1-0.2l0,0l0,0c0,0,0,0-0.1,0c0-0.1,0-0.1,0-0.2
		h0.1v-0.1c-0.1-0.1-0.1-0.2,0-0.2s0.1,0,0.1-0.1l0,0l0,0c0,0,0-0.1,0.1-0.2v-0.1l0,0l0,0c0.2-0.1,0.4-0.2,0.6-0.1
		c0.1,0.1,0.1,0.1,0.1,0.1s0.1,0,0.1-0.1C29.9,38.4,30,38.4,30.1,38.5z M30.1,38.5c0,0.1,0.1,0.1,0.2,0.2c0,0,0-0.1,0.1-0.1l0,0h0.1
		v0.1c0,0,0,0,0.1,0.1c0.1,0,0.1,0.1,0.1,0.2c0,0.1,0.1,0.1,0.2,0.2c0.1,0.1,0.2,0.1,0.3,0.1c0,0.1,0,0.1-0.1,0.1H31
		c0,0,0,0.1,0.1,0.2c0,0,0,0.1,0,0.2c0,0.1,0,0.1,0,0.1V40c0,0.1,0,0.1,0,0.1s0,0,0,0.1c0,0,0,0,0.1,0.1c0,0,0,0,0,0.1s0,0.1,0,0.1
		s0,0,0,0.1c0,0,0,0,0,0.1s0,0.2,0.1,0.2c0,0.2,0.1,0.4,0.1,0.4c0,0.2,0,0.3,0.1,0.4c0,0.1,0,0.1,0,0.2c0,0.1,0.1,0.2,0,0.2v0.1v0.1
		c0,0.1,0,0.1,0,0.1s0,0,0.1,0c0,0,0,0,0.1,0c0,0.2,0,0.3,0,0.3v0.1l0,0l0,0l0,0c0,0,0,0,0,0.1c0,0,0,0,0,0.1v0.1
		c0,0.1,0,0.2,0.1,0.4s0.1,0.3,0,0.5c0.1,0.1,0.2,0.2,0.2,0.4v0.1l0,0c0,0,0,0,0,0.1v0.1v0.1c0,0,0,0,0,0.1c0,0,0,0.1,0.1,0.1v0.1
		c0,0.1,0,0.1,0,0.1s0,0.1,0.1,0.1c0,0.1,0.1,0.1,0,0.1l0.1,0.1c0,0,0,0.1-0.1,0.1c0,0,0,0.1,0,0.2v0.1l0,0l0,0l0,0
		c0.1,0.1,0.1,0.2,0,0.3c0,0.2,0.1,0.4,0.1,0.4h0.1c0,0,0,0.1,0,0.4v0.1c0,0,0,0.1,0.1,0.1v0.1c0,0.1,0,0.1,0,0.2s0,0.1,0,0.1
		c0,0.1,0,0.1,0.1,0.1c0,0.1,0,0.1,0,0.2c0,0,0,0,0,0.1v0.1c0,0,0,0.1,0.1,0.1c0,0.2,0.1,0.3,0.1,0.3c0,0.1-0.1,0.1,0,0.2l0,0
		c0,0,0,0,0,0.1v0.1c0,0,0,0.1,0.1,0.1c0,0.1,0,0.1,0,0.1s0,0.1,0,0.2c0,0.1,0,0.2,0,0.3c0,0,0,0,0,0.1s0,0.1,0,0.1
		c0,0.2,0.1,0.3,0.1,0.3s0.1,0,0.2,0.1c0.1,0,0.1,0.1,0.2,0.1c0,0,0,0,0,0.1c0,0,0,0.1,0.1,0.1s0.1,0,0.2,0.1c0,0.1,0,0.2,0,0.2
		c0.1,0.1,0.1,0.2,0,0.2l0.1,0.1c0,0.1-0.1,0.1-0.2,0.1c0,0,0,0.1,0,0.2c0,0.1,0,0.2,0,0.2c-0.1,0-0.1,0-0.1,0.1c0,0,0,0.1,0,0.2V52
		c0,0,0,0,0,0.1v0.1c0,0,0,0,0,0.1v0.1v0.1c0,0.1,0,0.2,0.1,0.2c0,0.3,0.1,0.5,0.2,0.6c0,0.2,0,0.4,0.1,0.4c0,0.1,0,0.1,0.1,0.2h0.1
		V54v0.1v0.1c0,0,0,0,0.1,0.1c0,0.1,0,0.1,0,0.2c0.1,0.1,0.1,0.1,0.1,0.2c0,0,0.1,0.1,0.1,0.2c0,0,0.1,0.1,0.2,0.3
		c0,0.1,0.1,0.2,0.2,0.2v0.1c0,0.1,0.1,0.1,0.1,0.1c0.1,0,0.2,0.1,0.2,0.3c0,0,0,0,0.1,0.1v0.1v0.1v0.1c0,0.1,0,0.2,0,0.3
		s0,0.2,0,0.2c0.1,0,0.1,0.1,0,0.3c-0.1,0-0.1,0.1-0.2,0.2c-0.1,0-0.1,0.1-0.2,0.2c-0.1,0.1-0.2,0.1-0.3,0.1c0,0,0,0,0,0.1
		c0,0,0,0,0,0.1h-0.3c0-0.1-0.1-0.2-0.2-0.2c-0.1-0.1-0.1-0.1-0.2-0.1c-0.1,0-0.2,0-0.3-0.1c0,0,0,0,0,0.1s0,0,0,0s-0.1,0-0.1-0.1
		v-0.1l-0.1-0.1c-0.2-0.2-0.3-0.3-0.4-0.3c0-0.2-0.1-0.3-0.2-0.3v-0.1l0,0c0,0-0.1-0.1-0.1-0.2c-0.1-0.1-0.1-0.2-0.1-0.2h-0.1
		c0-0.1,0-0.3-0.1-0.3c0-0.1,0-0.2-0.1-0.3c0,0,0,0-0.1,0l0,0v-0.1c0-0.1,0-0.1,0-0.1v-0.1c0-0.1,0-0.1,0-0.2h-0.2l0.1-0.1
		c0-0.1,0-0.1-0.1-0.2c0-0.2,0-0.3-0.1-0.3v-0.1v-0.1c0,0,0,0,0-0.1c0,0,0,0,0-0.1c0,0,0-0.1,0-0.2c0-0.1,0-0.1,0-0.2
		c0-0.2-0.1-0.3-0.1-0.3v-0.1v-0.1c0,0,0,0,0-0.1v-0.1c0,0,0,0,0-0.1s0-0.1,0-0.1l0,0l0,0c0-0.1-0.1-0.1-0.1-0.2h-0.1
		c-0.1,0-0.1,0-0.1,0c-0.1,0-0.2,0-0.2,0.1l0,0l0,0c0,0,0,0-0.1,0c0,0,0,0-0.1,0c0,0-0.1,0-0.1,0.1c0,0,0,0-0.1-0.1h-0.1h-0.1
		c0,0-0.1-0.1-0.1,0c-0.1,0-0.1,0.1-0.1,0.1c-0.1,0-0.2,0-0.2,0c0-0.1-0.1-0.1-0.2-0.1c0,0,0,0-0.1,0.1c0,0-0.1,0-0.2-0.1
		c-0.1,0-0.2,0-0.3,0.1c-0.1,0-0.2,0-0.2,0c-0.1,0-0.2-0.1-0.3,0c-0.1,0-0.2,0-0.2,0.1c-0.4,0-0.6,0-0.6,0c-0.1,0-0.2,0-0.3,0
		c-0.1,0-0.2,0-0.3,0c0,0.1,0,0.1,0,0.1s-0.1,0-0.2-0.1c0,0-0.1,0-0.1,0.1c0,0-0.1,0-0.2,0s-0.2,0-0.2,0s0,0-0.1,0c0,0,0,0-0.1,0
		s-0.1,0-0.1,0.1c-0.1,0-0.1-0.1-0.2-0.1c0,0,0,0-0.1,0.1l-0.1,0.1C26.1,53,26,53,26,53s-0.1,0-0.1,0.1c-0.1,0-0.1,0.1-0.1,0.1
		s0,0.1-0.1,0.2c0,0.1,0,0.1-0.1,0.2v0.1c0,0,0,0-0.1,0.1c0,0,0,0-0.1,0.1c0,0,0,0.1,0,0.2c0,0.1,0,0.2,0,0.2l0,0l0,0v0.1
		c0,0,0,0.1-0.1,0.1c0,0.1,0,0.2-0.1,0.3v0.1C25.1,55,25.1,55,25.1,55s0,0,0,0.1v0.1c0,0,0,0-0.1,0s-0.1,0-0.1,0.1
		c0,0.2-0.1,0.3-0.2,0.3c0,0,0,0.1,0,0.3h-0.1c-0.1,0.2-0.1,0.3-0.1,0.3s0,0.1,0.1,0.2c0,0,0,0-0.1,0.1c0,0,0,0.1-0.1,0.2
		c0,0-0.1,0.1-0.1,0.2c0,0,0,0,0,0.1s0,0.1,0,0.1l0,0c0,0,0,0,0,0.1c-0.1,0.1-0.1,0.3-0.1,0.3l-0.1,0.1c0,0.1,0,0.1-0.1,0.2
		c0,0,0,0,0,0.1c0,0,0,0,0,0.1l0,0l0,0l0,0c0,0,0,0-0.1,0.1c0,0-0.1,0-0.1,0.1l-0.1,0.1c0,0,0,0-0.1,0c0,0,0,0-0.1,0h-0.1h-0.1
		c0-0.1,0-0.2,0-0.2c-0.2,0-0.3,0-0.3,0c0-0.1,0-0.1-0.1-0.2c0,0,0,0-0.1,0h-0.1l0,0l0,0h-0.1V58c0,0,0-0.1-0.1-0.1
		c-0.1-0.1-0.1-0.1-0.1-0.1c-0.1,0-0.1,0-0.1,0c0-0.1,0-0.1,0-0.2h-0.1c0-0.1,0-0.2,0-0.3l0,0l0,0c0.1-0.1,0.1-0.2,0.1-0.4
		c-0.1-0.1-0.1-0.1-0.1-0.2h0.1l0,0c0,0,0-0.1,0-0.2h0.1c0,0,0-0.1,0-0.2v-0.1l0.1-0.1c0-0.1,0-0.2,0.1-0.2v-0.1v-0.1
		c0.1,0,0.2-0.1,0.2-0.2c0,0,0.1,0,0.1-0.1s0-0.1,0-0.2v-0.1V55c0-0.1,0-0.1,0-0.1s0-0.1,0.1-0.1c0-0.1,0.1-0.1,0.1-0.2
		c0.1-0.1,0.1-0.2,0.1-0.2c0-0.1,0.1-0.2,0.1-0.2c0-0.1,0-0.2,0.1-0.3s0.1-0.2,0.1-0.3c0,0,0.1,0,0.1-0.1s0.1-0.1,0.1-0.1
		c0-0.1,0-0.1,0-0.2c0.1-0.1,0.1-0.2,0-0.3c0,0-0.1-0.1,0-0.1h0.1c0.1-0.1,0.1-0.2,0-0.3c-0.1,0-0.2,0-0.2,0c0-0.2-0.1-0.3-0.3-0.4
		l0,0l0,0c0,0,0-0.1-0.1-0.1s-0.1-0.1-0.1-0.1s0.1-0.1,0.2-0.3c0-0.1,0.1-0.2,0.2-0.2c0.1-0.1,0.1-0.1,0.1-0.1l0.4-0.1
		c0,0,0.1,0,0.3,0c0.1,0,0.2,0,0.2,0v-0.1c0-0.1,0-0.1,0-0.1s0,0,0.1-0.1v-0.1v-0.1c0,0,0,0,0.1-0.1c0,0,0,0,0-0.1s0.1-0.2,0.2-0.3
		c0.1-0.2,0.1-0.3,0-0.4c0,0,0.1,0,0.1-0.1s0.1-0.1,0.1-0.2c0-0.1,0-0.1,0.1-0.2c0-0.1,0.1-0.2,0-0.2c0,0,0-0.1,0.1-0.2
		c0-0.1,0.1-0.1,0.1-0.1c0-0.1,0-0.1,0.1-0.3c0,0,0-0.1,0.1-0.2l0,0l0,0c0.1-0.1,0.1-0.1,0.1-0.1s0,0,0-0.1s0-0.1,0-0.1s0,0,0-0.1
		c0.1-0.2,0.1-0.3,0.1-0.3v-0.2l0,0l0,0v-0.1v-0.1c0.1-0.1,0.1-0.2,0.1-0.3c0,0,0,0,0.1-0.1c0,0,0,0,0.1-0.1v-0.1v-0.1
		c0,0,0,0,0.1-0.1c0,0,0,0,0-0.1v-0.1v-0.1c0,0,0.1,0,0.1-0.1c0.1-0.2,0.1-0.3,0.1-0.3c0-0.1,0-0.1,0.1-0.3c0-0.1,0.1-0.2,0.1-0.3
		c0,0,0.1-0.1,0.1-0.3s0.1-0.2,0.1-0.3s0-0.1,0.1-0.2v-0.1c0,0,0,0,0-0.1V44H27l0.1-0.1v-0.1c0-0.1,0-0.1,0-0.2l0,0l0,0
		c0,0,0-0.1,0-0.2c0.1,0,0.1,0,0.1,0s0,0,0-0.1v-0.1c0,0,0,0,0-0.1c0,0,0,0,0.1-0.1v-0.1c0-0.1,0-0.1,0-0.1s0-0.1,0.1-0.2
		c0.1-0.1,0.1-0.2,0.1-0.2c0.1,0,0.1-0.1,0.1-0.2c0-0.1,0-0.2,0-0.2v-0.1c0,0,0-0.1,0.1-0.1c0-0.1,0.1-0.1,0.1-0.1
		c0-0.1,0-0.1,0-0.2s0.1-0.1,0.1-0.1s0,0,0-0.1l0,0c0,0,0-0.1,0.1-0.1c0,0,0-0.1,0.1-0.2c0-0.1,0.1-0.1,0.1-0.1v-0.1
		c0-0.1,0-0.1,0-0.1c0.1-0.2,0.1-0.3,0.1-0.3h0.1c0-0.1,0-0.3,0.1-0.3c0-0.1,0-0.1,0.1-0.2l0,0l0,0c0,0,0,0-0.1,0c0-0.1,0-0.1,0-0.2
		h0.1v-0.1c-0.1-0.1-0.1-0.2,0-0.2s0.1,0,0.1-0.1l0,0l0,0c0,0,0-0.1,0.1-0.2V39l0,0l0,0c0.2-0.1,0.4-0.2,0.6-0.1
		c0.1,0.1,0.1,0.1,0.1,0.1s0.1,0,0.1-0.1C29.9,38.4,30,38.4,30.1,38.5z M24,52.4L24,52.4C24,52.5,24,52.5,24,52.4z M24,52.5L24,52.5
		C24,52.4,24,52.4,24,52.5z M29.7,42.6c0,0,0,0.1-0.1,0.1l-0.1,0.1v0.1c0,0.1,0,0.1,0,0.1c0,0.1-0.1,0.1-0.1,0.1l0,0c0,0,0,0,0,0.1
		c0,0,0,0,0,0.1c0,0,0,0,0,0.1v0.1c0,0.1,0,0.2-0.1,0.2v0.1c0,0-0.1,0.1-0.1,0.3l-0.1,0.1v0.1c0,0.1,0,0.1,0,0.1
		c0,0.1-0.1,0.1-0.1,0.1s0,0,0,0.1v0.1c0,0,0,0,0,0.1l-0.1,0.1V45c0,0.1,0,0.1,0,0.1l-0.1,0.2v0.1c0,0,0,0,0,0.1l-0.1,0.2
		c0,0-0.1,0.1-0.1,0.2c0,0.1,0,0.2-0.1,0.2v0.1c-0.1,0.1-0.1,0.2-0.1,0.3c0,0,0,0.1-0.1,0.1c0,0.1-0.1,0.1-0.1,0.1l-0.1,0.2
		c0,0,0,0,0,0.1l0,0l0,0l0,0c0,0,0,0,0,0.1v0.1v0.1C28,47.7,28,47.8,28,47.9c0,0,0,0.1-0.1,0.2c-0.1,0.1-0.1,0.1-0.1,0.1s0,0,0,0.1
		s0,0.1,0,0.1v0.1c0,0.1,0,0.1,0,0.2c0,0,0,0-0.1,0v0.1v0.1c0,0.1,0,0.1,0,0.1l-0.1,0.1c-0.1,0.1-0.1,0.2-0.1,0.3
		c0,0-0.1,0.1-0.1,0.2c0,0.1-0.1,0.2-0.1,0.2c0,0.2,0,0.4-0.1,0.4c0,0.1,0,0.1-0.1,0.2c0,0,0,0-0.1,0.1v0.1c0,0,0,0,0,0.1
		c0,0,0,0,0,0.1s0.1,0.1,0.3,0c0,0,0,0,0.1,0s0.1,0,0.1,0l0,0c0,0,0,0,0.1,0h0.1c0,0,0,0,0.1,0c0,0,0,0,0.1,0c0.3,0,0.5,0,0.6-0.1
		c0.1,0.1,0.2,0.1,0.4,0c0,0,0,0,0.1,0c0,0,0.1,0,0.1-0.1c0,0,0,0,0.1,0c0,0,0,0,0.1,0c0.2,0,0.3,0,0.3,0s0,0,0.1,0c0,0,0,0,0.1,0
		c0.1,0.1,0.2,0.1,0.3,0.1l0.1-0.1c0.1,0,0.2,0,0.3,0c0.1,0,0.2,0,0.3,0l0.1-0.1H31l0.1-0.1h0.1h0.1c0,0,0.1,0,0.1-0.1
		c0.1,0,0.1-0.1,0.1-0.1v-0.1V50c0,0,0,0,0-0.1s0-0.1,0-0.1l0,0c0,0,0,0,0-0.1c-0.1-0.2-0.1-0.4-0.1-0.6c0,0,0,0-0.1,0
		c0,0,0,0,0-0.1c0,0,0-0.1,0-0.2c0,0,0,0,0-0.1v-0.1c0,0,0,0,0-0.1v-0.1c0,0,0,0,0-0.1v-0.1c0-0.1,0-0.1,0-0.1V48v-0.1
		c0,0,0,0-0.1-0.1c0-0.1,0-0.1,0-0.2l-0.1-0.1c0-0.1,0-0.1,0-0.2c0-0.1,0-0.1,0-0.2c0-0.1,0-0.2,0-0.2v-0.2c0,0,0,0,0-0.1v-0.1
		c0,0,0,0,0-0.1c0,0,0,0,0-0.1v-0.1c0-0.1,0-0.1,0-0.1V46c0-0.1,0-0.1,0-0.2c0,0-0.1-0.1-0.1-0.3l-0.1-0.1c0,0,0,0,0-0.1
		c0,0,0,0,0-0.1v-0.1c0,0,0,0,0-0.1v-0.1c0-0.1,0-0.2,0-0.2s0-0.1-0.1-0.1l-0.1-0.1c0,0,0,0,0-0.1s0-0.1,0-0.1s0,0,0-0.1
		c0,0,0,0,0-0.1V44c0-0.1,0-0.1,0-0.1s0,0,0-0.1c0,0,0,0-0.1-0.1v-0.1c0,0,0-0.1,0-0.2c0-0.1,0-0.2,0-0.2c-0.1,0-0.1-0.2-0.1-0.5
		C29.8,43,29.7,42.9,29.7,42.6L29.7,42.6z M29.6,42.7C29.6,42.8,29.5,42.8,29.6,42.7C29.5,42.8,29.5,42.8,29.6,42.7
		c-0.1,0.1-0.1,0.1-0.1,0.2c0,0.1,0,0.1,0,0.1c0,0.1-0.1,0.1-0.1,0.1l0,0c0,0,0,0,0,0.1c0,0,0,0,0,0.1c0,0,0,0,0,0.1v0.1
		c0,0.1,0,0.2-0.1,0.2v0.1c0,0-0.1,0.1-0.1,0.3l-0.1,0.1v0.1c0,0.1,0,0.1,0,0.1c0,0.1-0.1,0.1-0.1,0.1s0,0,0,0.1v0.1c0,0,0,0,0,0.1
		l-0.1,0.1V45c0,0.1,0,0.1,0,0.1l-0.1,0.2v0.1c0,0,0,0,0,0.1l-0.1,0.2c0,0-0.1,0.1-0.1,0.2c0,0.1,0,0.2-0.1,0.2v0.1
		c-0.1,0.1-0.1,0.2-0.1,0.3c0,0,0,0.1-0.1,0.1c0,0.1-0.1,0.1-0.1,0.1l-0.1,0.2c0,0,0,0,0,0.1l0,0l0,0l0,0c0,0,0,0,0,0.1v0.1v0.1
		C28,47.7,28,47.8,28,47.9c0,0,0,0.1-0.1,0.2c-0.1,0.1-0.1,0.1-0.1,0.1s0,0,0,0.1s0,0.1,0,0.1v0.1c0,0.1,0,0.1,0,0.2c0,0,0,0-0.1,0
		v0.1c0,0,0,0.1,0,0.2c0,0.1,0,0.1,0,0.1l-0.1,0.1c-0.1,0.1-0.1,0.2-0.1,0.3c0,0-0.1,0.1-0.1,0.2c0,0.1-0.1,0.2-0.1,0.2
		c0,0.2,0,0.4-0.1,0.4c0,0.1,0,0.1-0.1,0.2c0,0,0,0-0.1,0.1v0.1c0,0,0,0,0,0.1c0,0,0,0,0,0.1s0.1,0.1,0.3,0c0,0,0.1,0,0.2,0l0,0
		c0,0,0,0,0.1,0h0.1c0,0,0,0,0.1,0c0,0,0,0,0.1,0c0.3,0,0.5,0,0.6-0.1c0.1,0.1,0.2,0.1,0.4,0c0,0,0,0,0.1,0c0,0,0.1,0,0.1-0.1
		c0,0,0,0,0.1,0c0,0,0,0,0.1,0c0.2,0,0.3,0,0.3,0s0,0,0.1,0c0,0,0,0,0.1,0c0.1,0.1,0.2,0.1,0.3,0.1l0.1-0.1c0.1,0,0.2,0,0.3,0
		c0.1,0,0.2,0,0.3,0l0.1-0.1H31l0.1-0.1h0.1h0.1c0,0,0.1,0,0.1-0.1c0.1,0,0.1-0.1,0.1-0.1v-0.1v-0.1c0,0,0,0,0-0.1s0-0.1,0-0.1l0,0
		c0,0,0,0,0-0.1c-0.1-0.2-0.1-0.4-0.1-0.6c0,0,0,0-0.1,0c0,0,0,0,0-0.1c0,0,0-0.1,0-0.2c0,0,0,0,0-0.1v-0.1c0,0,0,0,0-0.1v-0.1
		c0,0,0,0,0-0.1v-0.1c0-0.1,0-0.1,0-0.1v-0.1V48c0,0,0,0-0.1-0.1c0-0.1,0-0.1,0-0.2l-0.1-0.1c0-0.1,0-0.1,0-0.2c0-0.1,0-0.1,0-0.2
		c0-0.1,0-0.2,0-0.2v-0.2c0,0,0,0,0-0.1v-0.1c0,0,0,0,0-0.1c0,0,0,0,0-0.1v-0.1c0-0.1,0-0.1,0-0.1v-0.1c0-0.1,0-0.1,0-0.2
		c0,0-0.1-0.1-0.1-0.3l-0.1-0.1c0,0,0,0,0-0.1c0,0,0,0,0-0.1v-0.1c0,0,0,0,0-0.1V45c0-0.1,0-0.2,0-0.2s0-0.1-0.1-0.1l-0.1-0.1
		c0,0,0,0,0-0.1s0-0.1,0-0.1s0,0,0-0.1c0,0,0,0,0-0.1v-0.1c0-0.1,0-0.1,0-0.1s0,0,0-0.1c0,0,0,0-0.1-0.1v-0.1c0,0,0-0.1,0-0.2
		c0-0.1,0-0.2,0-0.2c-0.1,0-0.1-0.2-0.1-0.5c-0.1,0-0.1-0.2-0.1-0.4l0,0C29.7,42.7,29.6,42.7,29.6,42.7z M30.7,52.5
		C30.8,52.5,30.8,52.5,30.7,52.5C30.8,52.6,30.7,52.6,30.7,52.5z M30.8,52.6C30.8,52.6,30.7,52.6,30.8,52.6
		C30.8,52.5,30.8,52.5,30.8,52.6z M31.1,39.6C31.1,39.7,31.1,39.7,31.1,39.6C31.1,39.7,31.1,39.7,31.1,39.6
		C31.1,39.7,31.1,39.6,31.1,39.6z M31.1,39.7C31.1,39.7,31.1,39.6,31.1,39.7L31.1,39.7L31.1,39.7z"/>
	<path class="st0" d="M44.5,44.9L44.5,44.9c0.2,0.2,0.3,0.3,0.4,0.4H45c0,0.1,0,0.1,0.1,0.2c0,0.1,0,0.1,0.1,0.2h0.1
		c0,0.2,0,0.3,0,0.4c0,0.1,0.1,0.1,0.1,0.2c0,0.1,0,0.1,0,0.2c0,0.1,0,0.2,0,0.3c-0.1,0.1-0.2,0.2-0.2,0.3h-0.1L45,47.2
		c0,0,0,0-0.1,0h-0.1l0,0c0,0,0,0-0.1,0c0,0,0,0-0.1,0c0,0-0.1,0.1-0.1,0.2c0,0-0.1,0-0.2-0.1h-0.1c0,0,0,0-0.1,0
		c0-0.1,0-0.2-0.2-0.3c0,0,0,0-0.1,0c0,0,0,0-0.1,0l-0.1-0.1h-0.1l0,0v-0.1c0.2,0.2,0.1,0.2,0,0.2c0,0-0.1,0-0.1,0.1
		c-0.1,0-0.2,0-0.2,0s0,0-0.1,0H43c0,0,0,0-0.1,0h-0.1c0,0-0.1,0-0.2-0.1c0,0,0,0-0.1,0.1h-0.1c0,0,0,0-0.1,0h-0.1h-0.1
		c0,0,0,0-0.1,0h-0.1c0,0,0,0-0.1,0c0,0,0,0-0.1,0s-0.1,0-0.2,0c-0.2,0-0.4,0.1-0.4,0.1v0.1c0,0,0,0-0.1,0c0,0-0.1,0-0.1-0.1
		c0,0-0.1,0-0.2,0.1l0,0l0,0c0,0-0.1,0.1-0.3,0.1s-0.3,0.1-0.3,0.1v0.1H40l0,0c0,0,0,0,0,0.1h-0.1c0,0-0.1,0-0.1,0.1h-0.1
		c-0.1,0-0.1,0-0.1,0s0,0,0,0.1c0,0,0,0,0,0.1s0,0.1,0.1,0.1h0.1c0,0,0.1,0.1,0.2,0.2c0,0,0,0,0.1,0c0,0,0,0,0.1,0c0,0,0,0,0,0.1
		v0.1c0.1,0,0.1,0,0.2,0.1c0.1,0,0.1,0.1,0.2,0.1c0,0,0,0,0.1,0s0.1,0,0.2,0c0,0,0.1,0,0.1,0.1h0.1c0,0,0,0,0.1,0l0,0
		c0.2,0,0.4,0.1,0.4,0.1c0.1,0,0.2,0,0.3,0c0,0,0.1,0,0.1,0.1c0,0,0.1,0,0.2,0s0.1,0,0.2,0l0,0l0,0h0.1c0,0,0,0,0.1,0c0,0,0,0,0.1,0
		s0,0,0.1,0s0.1,0,0.1,0c0.1,0.1,0.3,0.1,0.3,0.1l0.1-0.1c0.1,0,0.1,0,0.2,0c0,0,0,0,0,0.1c0.1,0.1,0.1,0.1,0.2,0.1c0,0,0,0,0.1,0
		c0,0,0,0,0.1,0c0,0.1,0,0.2,0.1,0.2l0,0l0,0c0.1,0,0.2,0,0.2,0c0,0.1,0,0.1,0.1,0.1s0.1,0.1,0.1,0.1c0.2,0,0.3,0,0.4,0.1
		c0,0,0,0,0.1,0s0.1,0,0.1,0s0,0,0.1,0.1l0.1,0.1c0,0,0.1,0,0.1-0.1h0.1c0,0.1,0,0.1,0.1,0.2c0.1,0,0.1,0,0.2,0
		c0.1,0,0.1,0.1,0.1,0.1s0,0,0.1,0H46c0,0,0,0,0,0.1c0,0,0.1,0.1,0.2,0.1c0.1,0,0.2,0.1,0.2,0.2h0.1c0.1,0,0.1,0.1,0.2,0.1
		c0.1,0.1,0.1,0.2,0.2,0.2c0,0,0,0,0.1,0c0,0,0,0,0.1,0c0,0,0,0,0,0.1c0,0,0.1,0.1,0.3,0.3c0.1,0.1,0.2,0.2,0.3,0.3
		c0,0,0,0.1,0.1,0.1c0,0.1,0,0.1,0,0.1c0.1,0.1,0.2,0.2,0.2,0.4c0,0,0.1,0.1,0.1,0.2c0,0.1,0.1,0.1,0.1,0.2c0,0,0,0,0,0.1
		c0,0,0,0,0,0.1c0,0,0,0,0,0.1v0.1c0,0,0,0,0,0.1v0.1c0,0,0,0,0,0.1c0,0,0,0,0,0.1c0,0,0,0.1,0,0.2c0,0.1,0,0.2,0.1,0.2
		c0,0,0,0,0,0.1c0,0,0,0,0,0.1c0,0,0,0.1,0,0.3s-0.1,0.3-0.1,0.3v0.1c0,0,0,0.1-0.1,0.1L48,54.8c0,0,0,0.1-0.1,0.2v0.1
		c-0.1,0.1-0.2,0.2-0.2,0.3c-0.1,0.1-0.2,0.2-0.3,0.3c0,0.1,0,0.2-0.1,0.3s-0.2,0.1-0.2,0.2c0,0,0,0.1-0.1,0.1c0,0,0,0,0,0.1
		c0,0,0,0-0.1,0c0,0,0,0-0.1,0c0,0-0.1,0.1,0,0.1c0,0-0.1,0.1-0.3,0.2v0.1c-0.1,0.1-0.2,0.1-0.3,0.2c0,0-0.1,0-0.2,0.1
		c-0.1,0-0.1,0.1-0.2,0.1c-0.1,0.1-0.2,0.1-0.2,0.1v0.1c0,0.1,0,0.1,0,0.1s0,0-0.1,0l0,0c0,0-0.1,0-0.1,0.1C45,56.9,45,57,45,57
		l-0.1,0.1h-0.1c-0.1,0-0.1,0-0.1,0c-0.1,0-0.2,0.1-0.2,0c-0.1,0.1-0.1,0.1-0.2,0.1c-0.1,0.1-0.1,0.1-0.2,0.1H44c0,0-0.1,0-0.1,0.1
		l-0.1,0.1c-0.1,0-0.1,0-0.2,0.1c-0.1,0-0.1,0.1-0.2,0.1h-0.1c-0.1,0-0.1,0-0.1,0h-0.1c-0.1,0-0.1,0-0.1,0h-0.1h-0.1
		c0,0,0,0-0.1,0.1c0,0-0.1,0-0.3,0c0,0,0,0-0.1-0.1s-0.3-0.1-0.3,0h-0.1l-0.1,0.1c0-0.1-0.1-0.1-0.3-0.1c-0.1,0-0.1,0-0.2,0
		c-0.1-0.1-0.1-0.1-0.1-0.1s0,0-0.1,0s-0.1,0-0.1,0s0,0,0-0.1c0,0,0,0,0-0.1c0,0-0.1,0-0.2,0c-0.1,0-0.1,0-0.1,0s-0.1,0-0.1-0.1
		h-0.1v-0.1c0,0-0.1,0-0.2,0l0,0c0,0,0,0,0-0.1c0,0-0.1,0-0.1-0.1s-0.1-0.1-0.1-0.1c-0.1-0.1-0.2-0.1-0.2-0.1v-0.1
		c0,0-0.1-0.1-0.2-0.1c-0.1-0.1-0.1-0.1-0.1-0.1l0,0l0,0c0-0.1,0-0.2-0.1-0.3s-0.1-0.1-0.2-0.1c0,0,0,0,0-0.1c0,0,0,0,0-0.1
		c0,0,0,0-0.1-0.1c0-0.1-0.1-0.1-0.1-0.1C39,55.6,39,55.6,39,55.6s0,0,0-0.1v-0.1c0,0,0,0,0-0.1v-0.1c0,0,0,0,0-0.1c0,0,0,0,0-0.1
		v-0.1c0-0.1-0.1-0.1-0.1-0.1s0-0.1,0-0.2c0-0.1,0-0.1,0-0.1l0,0l0,0c0,0,0-0.1-0.1-0.3c0.1,0,0.1,0,0.2,0c0,0,0.1-0.1,0-0.2
		l0.1-0.1c0-0.1,0.1-0.1,0.1-0.1s0,0,0.1,0c0,0,0,0,0,0.1l0.1-0.1v-0.1l0.1-0.1c0.1,0,0.1,0,0.1,0s0,0,0-0.1h0.1c0,0,0,0,0.1,0.1
		c0,0,0,0,0.1,0c0,0,0,0,0.1,0C39.9,54,40,54,40,54c0.1,0,0.1,0,0.1,0s0,0,0.1,0s0.1,0.1,0.2,0.1l0.1,0.1c0,0,0.1,0,0.1,0.1
		c0,0,0.1,0.1,0.1,0.2c0,0.1,0.1,0.1,0.1,0.2c0.1,0,0.1,0.1,0.2,0.2c0.1,0.1,0.2,0.2,0.2,0.2s0,0,0,0.1c0,0,0,0,0,0.1l0.2,0.1h0.1
		c0.1,0,0.1,0,0.1,0s0,0,0,0.1l0,0c0,0,0.1,0,0.2,0c0.1,0,0.2,0,0.2,0s0,0,0.1,0c0,0,0,0,0.1,0s0.1,0,0.2,0c0.1,0,0.1-0.1,0.1-0.1
		s0,0,0.1,0h0.1h0.1c0.1,0,0.1,0,0.1,0H43h0.1l0,0l0,0c0,0,0,0,0.1,0h0.1c0,0,0,0,0-0.1h0.1h0.1l0,0l0,0h0.1c0.1,0,0.1-0.1,0.1-0.2
		c0,0,0.1,0,0.1,0.1c0,0,0.1,0,0.1-0.1C44,55,44,55,44.1,55c0-0.1,0.2-0.2,0.4-0.3s0.4-0.3,0.4-0.4c0.1,0,0.2-0.1,0.2-0.2l0.1-0.1
		c0.1-0.1,0.1-0.1,0.1-0.1v-0.1c0,0,0-0.1,0.1-0.1v-0.2c0.1,0,0.1-0.1,0.1-0.1c0-0.1,0-0.2,0-0.3s0-0.2,0-0.3c0,0,0,0,0-0.1l0,0
		v-0.1l-0.1-0.1c-0.1,0-0.1-0.1-0.1-0.1c-0.1,0-0.1,0.1-0.2,0v-0.1H45l0,0l0,0c0,0,0,0-0.1,0h-0.1l0,0v-0.1c0,0-0.1,0-0.2,0
		c-0.1,0-0.2,0-0.2,0c-0.1,0-0.2-0.1-0.3,0c0,0,0,0,0-0.1c0,0-0.1-0.1-0.3-0.1s-0.3-0.1-0.3-0.1c-0.1-0.1-0.3-0.2-0.6-0.2l0,0l0,0
		c0,0,0,0,0-0.1c0,0-0.1,0-0.1-0.1c-0.1-0.1-0.1-0.1-0.1,0l0,0c0,0,0,0,0,0.1c0,0,0,0-0.1-0.1s-0.1,0-0.1,0c0-0.1-0.1-0.1-0.2,0
		c0-0.1-0.1-0.2-0.1-0.2c-0.1,0.1-0.2,0.1-0.3,0c0,0-0.2-0.1-0.3,0c0-0.1-0.1-0.1-0.1-0.2c-0.1,0-0.2,0-0.3-0.1c0,0,0,0-0.1,0H41
		l0,0l0,0l0,0l0,0l0,0c-0.2-0.1-0.3-0.1-0.4,0c0,0,0,0,0-0.1c0,0,0,0-0.1-0.1c0,0,0,0-0.1,0c0,0,0,0-0.1,0c0,0,0,0-0.1,0
		c0,0-0.1,0-0.2,0c-0.1,0-0.2,0-0.2-0.1l-0.1-0.1c0,0,0,0-0.1,0h-0.1c0-0.1,0-0.1,0-0.1s0,0-0.1,0c0,0,0,0-0.1,0l0,0l0,0l0,0l0,0
		c0,0,0,0-0.1,0h-0.1c0,0,0,0,0-0.1l0,0c0-0.1-0.1-0.1-0.2-0.1c-0.1,0-0.1-0.1-0.1-0.2c0,0,0,0-0.1,0h-0.1c0,0,0-0.1-0.1-0.2
		c0-0.1,0-0.1-0.1-0.2C38,49.3,38,49.2,38,49.1c0,0,0,0-0.1,0c0,0-0.1,0-0.1-0.1v-0.1c-0.1-0.1-0.2-0.3-0.2-0.4c0,0-0.1,0-0.1-0.1
		s-0.1-0.1-0.1-0.1s0-0.1,0-0.2c-0.1-0.1-0.3-0.2-0.3-0.3c0,0,0,0,0-0.1s0-0.1,0-0.1s0,0,0-0.1l0,0c0,0,0,0,0-0.1v-0.1
		c0-0.1,0-0.1,0-0.2V47v-0.1c0,0,0-0.1,0.1-0.1v-0.1v-0.1c0.1,0,0.2-0.1,0.3-0.3h0.1l0,0l0,0c0,0,0.1,0,0.2-0.1
		c0.1-0.1,0.2-0.1,0.3-0.2c0.1,0,0.1,0,0.1,0s0,0,0.1-0.1c0,0,0,0,0.1,0c0,0,0,0,0.1,0h0.1c0.1,0,0.1,0,0.1,0c0.1,0,0.1-0.1,0.2-0.2
		c0.1,0,0.2,0,0.2-0.1c0.1,0,0.1,0,0.2,0c0.1,0,0.1,0,0.2,0c0,0,0.1,0,0.1-0.1c0.1-0.1,0.1-0.1,0.1-0.1c0.1,0,0.1,0,0.1,0h0.1
		c0.1,0,0.1,0,0.1-0.1h0.1c0,0,0,0,0.1,0h0.1h0.1c0,0,0.1-0.1,0.2-0.2c0.1,0,0.1,0,0.2-0.1v0.1c0.1,0,0.2-0.1,0.3,0
		c0.1,0,0.2,0,0.3,0c0,0,0,0,0.1,0c0,0,0.1,0,0.1-0.1h0.1c0,0,0,0,0.1,0h0.1c0.1,0,0.2,0,0.5,0c0.2,0,0.4,0,0.6,0c0,0,0.1,0,0.2,0
		c0.1,0,0.1,0,0.1,0h0.1c0.1,0,0.1,0,0.1,0s0.1,0,0.1,0.1c0.2,0,0.3,0,0.4,0.1c0.1,0,0.2,0,0.3,0.1C44.3,44.9,44.4,44.9,44.5,44.9z
		 M44,44.8c0.1,0,0.2,0,0.3,0.1c0.1,0,0.2,0.1,0.2,0.1v0.1c0.2,0.1,0.3,0.2,0.4,0.3H45c0,0.1,0,0.1,0.1,0.2c0,0.1,0,0.1,0.1,0.2h0.1
		c0,0.2,0,0.3,0,0.4c0,0.1,0.1,0.1,0.1,0.2c0,0.1,0,0.1,0,0.2c0,0.1,0,0.2,0,0.3c-0.1,0.1-0.2,0.2-0.2,0.3h-0.1L45,47.3
		c0,0,0,0-0.1,0h-0.1l0,0c0,0,0,0-0.1,0c0,0,0,0-0.1,0c0,0-0.1,0.1-0.1,0.2c0,0-0.1,0-0.2-0.1h-0.1c0,0,0,0-0.1,0
		c0-0.1,0-0.2-0.2-0.3c0,0,0,0-0.1,0c0,0,0,0-0.1,0L43.6,47h-0.1l0,0v-0.1c0.2,0.1,0.1,0.1,0,0.1c0,0-0.1,0-0.1,0.1
		c-0.1,0-0.2,0-0.2,0s0,0-0.1,0H43c0,0,0,0-0.1,0h-0.1c0,0-0.1,0-0.2-0.1c0,0,0,0-0.1,0.1h-0.1c0,0,0,0-0.1,0h-0.1h-0.1
		c0,0,0,0-0.1,0h-0.1c0,0,0,0-0.1,0c0,0,0,0-0.1,0s-0.1,0-0.2,0c-0.2,0-0.4,0-0.4,0.1c0,0,0,0,0,0.1c0,0,0,0,0,0.1c0,0,0,0-0.1,0
		c0,0-0.1,0-0.1-0.1c0,0-0.1,0-0.2,0.1l0,0l0,0c0,0-0.1,0.1-0.3,0.1s-0.3,0.1-0.3,0.1v0.1H40l0,0c0,0,0,0,0,0.1h-0.1
		c0,0-0.1,0-0.1,0.1h-0.1c-0.1,0-0.1,0-0.1,0s0,0,0,0.1c0,0,0,0,0,0.1s0,0.1,0.1,0.1h0.1c0,0,0.1,0.1,0.2,0.2c0,0,0,0,0.1,0
		c0,0,0,0,0.1,0c0,0,0,0,0,0.1v0.1c0.1,0,0.1,0,0.2,0.1c0.1,0,0.1,0.1,0.2,0.1c0,0,0,0,0.1,0s0.1,0,0.2,0c0,0,0.1,0,0.1,0.1h0.1
		c0,0,0,0,0.1,0l0,0c0.2,0,0.4,0.1,0.4,0.1c0.1,0,0.2,0,0.3,0c0,0,0.1,0,0.1,0.1c0,0,0.1,0,0.2,0s0.1,0,0.2,0l0,0l0,0h0.1
		c0,0,0,0,0.1,0c0,0,0,0,0.1,0s0,0,0.1,0s0.1,0,0.1,0c0.1,0.1,0.3,0.1,0.3,0.1l0.1-0.1c0.1,0,0.1,0,0.2,0c0,0,0,0,0,0.1
		c0.1,0.1,0.1,0.1,0.2,0.1c0,0,0,0,0.1,0c0,0,0,0,0.1,0c0,0.1,0,0.2,0.1,0.2l0,0l0,0c0.1,0,0.2,0,0.2,0c0,0.1,0,0.1,0.1,0.1
		s0.1,0.1,0.1,0.1c0.2,0,0.3,0,0.4,0.1c0,0,0,0,0.1,0s0.1,0,0.1,0s0,0,0.1,0.1l0.1,0.1c0,0,0.1,0,0.1-0.1h0.1c0,0.1,0,0.1,0.1,0.2
		c0.1,0,0.1,0,0.2,0c0.1,0,0.1,0.1,0.1,0.1s0,0,0.1,0H46c0,0,0,0,0,0.1c0,0,0.1,0.1,0.2,0.1c0.1,0,0.2,0.1,0.2,0.2h0.1
		c0.1,0,0.1,0.1,0.2,0.1c0.1,0.1,0.1,0.2,0.2,0.2c0,0,0,0,0.1,0c0,0,0,0,0.1,0c0,0,0,0,0,0.1c0,0,0.1,0.1,0.3,0.3
		c0.1,0.1,0.2,0.2,0.3,0.3c0,0,0,0.1,0.1,0.1c0,0.1,0,0.1,0,0.1c0.1,0.1,0.2,0.2,0.2,0.4c0,0,0.1,0.1,0.1,0.2c0,0.1,0.1,0.1,0.1,0.2
		c0,0,0,0,0,0.1c0,0,0,0,0,0.1c0,0,0,0,0,0.1V53c0,0,0,0,0,0.1v0.1c0,0,0,0,0,0.1v0.1c0,0,0,0.1,0,0.2c0,0.1,0,0.2,0.1,0.2
		c0,0,0,0,0,0.1c0,0,0,0,0,0.1c0,0,0,0.1,0,0.3s-0.1,0.3-0.1,0.3v0.1c0,0,0,0.1-0.1,0.1L48,54.9c0,0,0,0.1-0.1,0.2v0.1
		c-0.1,0.1-0.2,0.2-0.2,0.3c-0.1,0.1-0.2,0.2-0.3,0.3c0,0.1,0,0.2-0.1,0.3s-0.2,0.1-0.2,0.2c0,0,0,0.1-0.1,0.1c0,0,0,0,0,0.1
		c0,0,0,0-0.1,0c0,0,0,0-0.1,0c0,0-0.1,0.1,0,0.2c0,0-0.1,0.1-0.3,0.2V57c-0.1,0.1-0.2,0.1-0.3,0.2c0,0-0.1,0.1-0.2,0.2
		c-0.1,0-0.1,0.1-0.2,0.1c-0.1,0.1-0.2,0.1-0.2,0.1v0.1c0,0.1,0,0.1,0,0.1s0,0-0.1,0l0,0c0,0-0.1,0-0.1,0.1C45,56.9,45,57,45,57
		l-0.1,0.1h-0.1c-0.1,0-0.1,0-0.1,0c-0.1,0-0.2,0.1-0.2,0c-0.1,0.1-0.1,0.1-0.2,0.1c-0.1,0.1-0.1,0.1-0.2,0.1H44c0,0-0.1,0-0.1,0.1
		l-0.1,0.1c-0.1,0-0.1,0-0.2,0c-0.1,0-0.1,0.1-0.2,0.1h-0.1c-0.1,0-0.1,0-0.1,0h-0.1c-0.1,0-0.1,0-0.1,0h-0.1h-0.1c0,0,0,0-0.1,0.1
		c0,0-0.1,0-0.3,0c0,0,0,0-0.1-0.1s-0.3-0.1-0.3,0h-0.1l-0.1,0.1c0-0.1-0.1-0.1-0.3-0.1c-0.1,0-0.1,0-0.2,0
		c-0.1-0.1-0.1-0.1-0.1-0.1s0,0-0.1,0s-0.1,0-0.1,0s0,0,0-0.1c0,0,0,0,0-0.1c0,0-0.1,0-0.2,0c-0.1,0-0.1,0-0.1,0s-0.1,0-0.1-0.1
		h-0.1v-0.1c0,0-0.1,0-0.2,0l0,0c0,0,0,0,0-0.1c0,0-0.1,0-0.1-0.1s-0.1-0.1-0.1-0.1c-0.1-0.1-0.2-0.1-0.2-0.1v-0.1
		c0,0-0.1-0.1-0.2-0.1c-0.1-0.1-0.1-0.1-0.1-0.1l0,0l0,0c0-0.1,0-0.2-0.1-0.3S39.4,56,39.3,56c0,0,0,0,0-0.1c0,0,0,0,0-0.1
		c0,0,0,0-0.1-0.1c0-0.1-0.1-0.1-0.1-0.1C39,55.5,39,55.5,39,55.5s0,0,0-0.1v-0.1c0,0,0,0,0-0.1v-0.1c0,0,0,0,0-0.1c0,0,0,0,0-0.1
		v-0.1c0-0.1-0.1-0.1-0.1-0.1s0-0.1,0-0.2c0-0.1,0-0.1,0-0.1l0,0l0,0c0,0,0-0.1-0.1-0.3c0.1,0,0.1,0,0.2,0c0,0,0.1-0.1,0-0.2
		l0.1-0.1c0-0.1,0.1-0.1,0.1-0.1s0.1,0,0.1,0.1c0,0,0.1,0,0.1-0.1v-0.1l0.1-0.1c0.1,0,0.1,0,0.1,0s0,0,0-0.1h0.1c0,0,0,0,0.1,0.1
		c0,0,0,0,0.1,0c0,0,0,0,0.1,0C39.9,54,40,54,40,54c0.1,0,0.1,0,0.1,0s0,0,0.1,0s0.1,0.1,0.2,0.1l0.1,0.1c0,0,0.1,0,0.1,0.1
		c0,0,0.1,0.1,0.1,0.2c0,0.1,0.1,0.1,0.1,0.2c0.1,0,0.1,0.1,0.2,0.2c0.1,0.1,0.2,0.2,0.2,0.2s0,0,0,0.1c0,0,0,0,0,0.1l0.2,0.1h0.1
		c0.1,0,0.1,0,0.1,0s0,0,0,0.1l0,0c0,0,0.1,0,0.2,0c0.1,0,0.2,0,0.2,0s0,0,0.1,0c0,0,0,0,0.1,0s0.1,0,0.2,0c0.1,0,0.1-0.1,0.1-0.1
		s0,0,0.1,0h0.1h0.1c0.1,0,0.1,0,0.1,0H43h0.1l0,0l0,0c0,0,0,0,0.1,0h0.1c0,0,0,0,0-0.1h0.1h0.1l0,0l0,0h0.1c0.1,0,0.1-0.1,0.1-0.2
		c0,0,0.1,0,0.1,0.1c0,0,0.1,0,0.1-0.1C44,55,44,55,44.1,55c0-0.1,0.2-0.2,0.4-0.3s0.4-0.3,0.4-0.4c0.1,0,0.2-0.1,0.2-0.2l0.1-0.1
		c0.1-0.1,0.1-0.1,0.1-0.1v-0.1c0,0,0-0.1,0.1-0.1v-0.2c0.1,0,0.1-0.1,0.1-0.1c0-0.1,0-0.2,0-0.3s0-0.2,0-0.3c0,0,0,0,0-0.1l0,0
		v-0.1l-0.1-0.1c-0.1,0-0.1-0.1-0.1-0.1c-0.1,0-0.1,0.1-0.2,0v-0.1H45l0,0l0,0c0,0,0,0-0.1,0h-0.1l0,0v-0.1c0,0-0.1,0-0.2,0
		c-0.1,0-0.2,0-0.2,0c-0.1,0-0.2-0.1-0.3,0c0,0,0,0,0-0.1c0,0-0.1-0.1-0.3-0.1s-0.3-0.1-0.3-0.1c-0.1-0.1-0.3-0.2-0.6-0.2l0,0l0,0
		c0,0,0,0,0-0.1c0,0-0.1,0-0.1-0.1c-0.1-0.1-0.1-0.1-0.1-0.1s0,0,0,0.1c0,0,0,0,0,0.1c0,0,0,0-0.1-0.1s-0.1,0-0.1,0
		c0-0.1-0.1-0.1-0.2,0c0-0.1-0.1-0.2-0.1-0.2c-0.1,0.1-0.2,0.1-0.3,0c0,0-0.2-0.1-0.3,0c0-0.1-0.1-0.1-0.1-0.2c-0.1,0-0.2,0-0.3-0.1
		c0,0-0.1,0-0.2,0l0,0l0,0l0,0l0,0l0,0c-0.2-0.1-0.3-0.1-0.4,0c0,0,0,0,0-0.1c0,0,0,0-0.1-0.1c0,0,0,0-0.1,0c0,0,0,0-0.1,0
		c0,0,0,0-0.1,0c0,0-0.1,0-0.2,0c-0.1,0-0.2,0-0.2-0.1l-0.1-0.1c0,0,0,0-0.1,0h-0.1c0-0.1,0-0.1,0-0.1s0,0-0.1,0c0,0,0,0-0.1,0l0,0
		l0,0l0,0l0,0c0,0,0,0-0.1,0h-0.1c0,0,0,0,0-0.1l0,0c0-0.1-0.1-0.1-0.2-0.1c-0.1,0-0.1-0.1-0.1-0.2c0,0,0,0-0.1,0h-0.1
		c0,0,0-0.1-0.1-0.2c0-0.1,0-0.1-0.1-0.2C38,49.3,38,49.2,38,49.1c0,0,0,0-0.1,0c0,0-0.1,0-0.1-0.1v-0.1c-0.1-0.1-0.2-0.3-0.2-0.4
		c0,0-0.1,0-0.1-0.1s-0.1-0.1-0.1-0.1s0-0.1,0-0.2c-0.1-0.1-0.3-0.2-0.3-0.3c0,0,0,0,0-0.1s0-0.1,0-0.1s0,0,0-0.1l0,0c0,0,0,0,0-0.1
		v-0.1c0-0.1,0-0.1,0-0.2V47v-0.1c0,0,0-0.1,0.1-0.1v-0.1v-0.1c0.1,0,0.2-0.1,0.3-0.3h0.1l0,0l0,0c0,0,0.1,0,0.2-0.1
		c0.1-0.1,0.2-0.1,0.3-0.2c0.1,0,0.1,0,0.1,0s0,0,0.1-0.1c0,0,0,0,0.1,0c0,0,0,0,0.1,0h0.1c0.1,0,0.1,0,0.1,0c0.1,0,0.1-0.1,0.2-0.2
		c0.1,0,0.2,0,0.2-0.1c0.1,0,0.1,0,0.2,0c0.1,0,0.1,0,0.2,0c0,0,0.1,0,0.1-0.1c0.1-0.1,0.1-0.1,0.1-0.1c0.1,0,0.1,0,0.1,0h0.1
		c0.1,0,0.1,0,0.1-0.1h0.1c0,0,0,0,0.1,0h0.1h0.1c0,0,0.1-0.1,0.2-0.2c0.1,0,0.1,0,0.2-0.1v0.1c0.1,0,0.2-0.1,0.3,0
		c0.1,0,0.2,0,0.3,0c0,0,0,0,0.1,0c0,0,0.1,0,0.1-0.1h0.1c0,0,0,0,0.1,0h0.1c0.1,0,0.2,0,0.5,0c0.2,0,0.4,0,0.6,0c0,0,0.1,0,0.2,0
		c0.1,0,0.1,0,0.1,0h0.1c0.1,0,0.1,0,0.1,0s0.1,0,0.1,0.1C43.8,44.7,43.9,44.7,44,44.8z"/>
	<path class="st0" d="M61,44.6C61,44.5,61.1,44.5,61,44.6C61.1,44.5,61.1,44.5,61,44.6L61,44.6c0.2,0,0.4,0,0.4,0l0,0l0,0h0.1
		c0.1,0.1,0.3,0.1,0.5,0c0,0,0.1,0.1,0.2,0.1c0.1,0,0.2,0,0.2,0.1l0,0l0,0c0,0,0.1,0,0.1,0.1c0,0,0,0,0.1,0c0,0,0,0,0.1,0
		c0,0,0,0.1,0.1,0.2c0,0,0.1,0,0.1,0.1c0.1,0.1,0.1,0.1,0.2,0c0.1,0.3,0.2,0.5,0.2,0.5c0,0.1-0.1,0.2,0,0.3c0,0.3,0,0.4,0,0.4
		s-0.1,0.1-0.2,0.2c-0.1,0.1-0.1,0.2-0.2,0.2c-0.1,0-0.1,0.1-0.1,0.2c0,0,0,0-0.1,0s0,0-0.1,0c0,0-0.1,0-0.1,0.1l-0.1,0.1h-0.1h-0.1
		c0,0,0,0-0.1,0c0,0,0,0-0.1,0h-0.1l-0.1,0.1h-0.1c-0.1,0-0.1,0-0.1,0c-0.1,0-0.1,0.1-0.1,0.2c0,0-0.1,0-0.2-0.1c0,0,0,0-0.1,0h-0.1
		c0,0,0-0.1-0.1-0.2h-0.1c0-0.1-0.1-0.2-0.2-0.1l0.3,0c0,0,0,0-0.1,0c0,0,0,0-0.1,0h-0.1c0,0,0-0.1-0.1-0.1c0,0,0,0-0.1,0
		c0,0,0,0,0,0.1c-0.1,0-0.2,0-0.2-0.1c0,0-0.1,0-0.1,0.1c0,0-0.1,0-0.1-0.1c-0.1,0-0.3,0-0.5,0c-0.3,0-0.4,0-0.5,0c0,0,0,0-0.1,0
		l0,0l0,0c0,0,0,0-0.1,0c-0.2,0-0.4,0-0.6,0h-0.1h-0.1c-0.1,0-0.2,0-0.2,0s0.1,0.1,0.1,0.2c0,0.1,0.1,0.2,0.2,0.2
		c-0.1,0.1-0.1,0.2-0.1,0.3c0,0,0,0,0,0.1s0,0.1,0,0.2c0,0.1,0,0.1,0,0.2c0,0.1,0.1,0.1,0.1,0c0,0.2,0,0.3-0.1,0.4
		c0,0.1,0,0.2,0.1,0.3v0.3c0,0,0,0,0,0.1c0,0,0,0.1,0.1,0.1c0,0.1,0,0.2,0,0.3c0,0,0,0.1,0.1,0.1c-0.1,0.1-0.1,0.2,0,0.3
		c0,0-0.1,0.1,0,0.1c0,0.1,0,0.1,0.1,0.1c0.1,0.1,0.1,0.2,0,0.3c0,0,0,0.1,0,0.2s0,0.1,0,0.1V51c0,0,0,0,0.1,0.1c0,0,0.1,0,0.1,0.1
		c0,0,0,0.1-0.1,0.1c0,0.1,0,0.1,0,0.2c0,0.1,0,0.1,0,0.2c0,0.1,0.1,0.1,0.1,0.1s0,0,0,0.1s0,0.1,0,0.1l0,0c0,0,0,0,0,0.1
		c0,0,0,0,0,0.1v0.1c0,0,0,0,0,0.1v0.1c0,0,0,0,0,0.1v0.1v0.1c0,0.1,0,0.1,0,0.2c0,0.1,0,0.1,0,0.1v0.1c0,0,0,0.1,0.1,0.1v0.1
		c0,0.1,0,0.1,0,0.2l0.1,0.1c0,0.2,0.1,0.3,0.1,0.3l-0.1,0.1c0,0,0,0,0,0.1v0.1c0,0,0,0,0,0.1c0,0,0,0.1,0.1,0.1
		c0,0.1,0.1,0.2,0.1,0.2c0,0.3,0,0.5,0.1,0.5h0.1c0,0,0,0,0,0.1v0.1c0,0,0,0-0.1-0.1c-0.1,0-0.1,0.1,0,0.2c0,0.1,0,0.1,0,0.2
		c0,0.1,0,0.1,0,0.2c0,0.1,0.1,0.2,0.1,0.3c0,0,0.1,0.1,0.1,0.3l0.1,0.1c0,0,0,0.2,0,0.3s0,0.3,0,0.3v0.1c0,0.1,0,0.1,0,0.2
		c0,0.4,0,0.6,0,0.6s0,0,0,0.1s0,0.1,0,0.1s0,0-0.1,0.1c0,0,0,0-0.1-0.1c0,0-0.1,0-0.1,0.1c0,0-0.1,0.1-0.1,0c0,0,0,0-0.1,0
		c0,0,0,0-0.1,0l-0.1,0.2h-0.1l0,0l-0.1,0.1c-0.1,0.1-0.1,0.1-0.2,0l0,0l0,0l-0.1-0.1c-0.1,0-0.2,0-0.3-0.1c-0.1,0-0.1,0-0.1,0
		c0-0.2-0.1-0.3-0.2-0.3c0-0.1,0-0.1,0-0.1h-0.1c0-0.1-0.1-0.2-0.2-0.2v-0.1c0-0.1,0-0.1,0-0.1v-0.1c0-0.1,0-0.1,0-0.1s0-0.1,0-0.2
		c0-0.1,0-0.2,0-0.2l0,0c0,0,0,0-0.1,0c0-0.1,0-0.2,0-0.3s0-0.1,0-0.2c0-0.1-0.1-0.2-0.1-0.2v-0.1c0-0.1,0-0.1,0-0.1s0,0,0-0.1
		L57.1,56c0,0,0,0,0-0.1s0-0.1,0-0.1H57c0-0.1,0-0.3,0-0.3c0-0.1-0.1-0.1-0.1-0.2c0,0,0-0.1,0-0.2c0-0.2,0-0.3-0.1-0.3
		c0,0,0.1-0.1,0-0.2c0-0.1-0.1-0.2-0.2-0.1c0.1-0.2,0.1-0.4,0-0.6c0,0,0-0.1,0-0.3s0-0.3-0.1-0.3c0,0,0-0.1,0-0.2c0-0.1,0-0.2,0-0.2
		s0-0.1,0-0.2c0-0.1,0-0.1,0-0.1c0-0.1,0-0.2,0-0.2s0,0,0-0.1v-0.1c0,0-0.1-0.1-0.2-0.2c0,0,0,0,0-0.1c0,0,0,0,0-0.1
		c0,0,0-0.1-0.1-0.1c0,0,0-0.1,0-0.2c0-0.1,0-0.1,0-0.1s0-0.1-0.1-0.1v-0.5c0,0,0,0,0-0.1c0,0,0,0,0-0.1v-0.1c0-0.1,0-0.1,0-0.1
		s0,0,0-0.1c0,0,0,0,0-0.1c0,0,0-0.1,0-0.2c0-0.1,0-0.2,0-0.2v-0.1c0-0.1,0-0.1,0-0.1v-0.1v-0.1l0,0c0,0,0,0,0-0.1c0,0,0-0.1,0-0.2
		c0-0.2,0-0.3-0.1-0.3c0-0.2-0.1-0.3-0.2-0.3c0,0,0,0,0-0.1c0,0,0,0,0-0.1s-0.1-0.2-0.2-0.2c0-0.1,0.1-0.2,0-0.3c0,0,0,0,0-0.1
		c0,0,0,0,0-0.1v-0.1c0,0,0-0.1-0.1-0.1s-0.2,0-0.3,0c-0.2,0.1-0.3,0.1-0.3,0.1h-0.1h-0.1c0,0,0,0-0.1,0s-0.1,0-0.1,0
		c0-0.1-0.1-0.1-0.2-0.1c0,0,0,0-0.1,0c0,0,0,0-0.1,0c0,0-0.1,0-0.2,0c-0.1,0-0.2,0-0.2,0h-0.1c-0.1,0-0.1,0-0.1,0.1c0,0,0,0-0.1,0
		c0,0,0,0-0.1,0c0,0-0.1,0-0.2,0H53h-0.1c-0.1,0-0.1,0-0.1,0H53h-0.1h-0.1c0,0,0,0-0.1,0s-0.1,0-0.2,0v0.1c0,0-0.1,0-0.2,0
		c-0.1,0-0.1,0-0.1,0l-0.1-0.1c0,0-0.1,0-0.1,0.1c-0.3,0-0.4,0-0.4-0.1h-0.1h-0.1c0,0,0,0-0.1,0.1c0,0,0,0-0.1,0c0,0,0,0-0.1,0
		c0,0-0.1,0-0.2,0c-0.1,0-0.2,0-0.2,0s0,0,0,0.1l0,0c0,0,0,0-0.1,0c0-0.1,0-0.2-0.1-0.2s-0.2,0-0.2,0h-0.1c-0.1,0-0.1,0-0.1,0
		c0-0.1-0.1-0.1-0.1-0.2l0,0l0,0l0,0l0,0h-0.1c0,0,0-0.1-0.1-0.2V47v-0.1c0,0-0.1-0.1-0.2-0.3c0-0.1-0.1-0.1-0.1-0.2
		c-0.1-0.1-0.1-0.1-0.1-0.2c0,0,0,0,0-0.1c0,0,0,0,0.1-0.1c0,0,0-0.1,0-0.2c0-0.1,0-0.1,0-0.1s0.1-0.1,0.2-0.2l0,0l0,0l0,0
		c0.1-0.1,0.1-0.1,0.1-0.2c0.1-0.1,0.2-0.2,0.2-0.2c0.1,0,0.3,0.1,0.6,0V45c0.2,0.1,0.4,0.1,0.4,0.1c0.1,0,0.1-0.1,0.1-0.1
		s0,0,0.1,0h0.1c0,0,0,0,0.1,0c0,0,0,0,0.1,0c0,0,0,0,0.1,0c0,0,0,0,0.1,0s0.3,0,0.3,0h0.1c0.1,0,0.1,0,0.2,0c0.1,0,0.1,0.1,0.1,0.1
		c0.1,0,0.2,0,0.3,0c0,0,0.1,0,0.2,0c0.1,0,0.1,0,0.1-0.1c0,0,0.1,0,0.2,0c0.1,0,0.2,0,0.2,0s0,0,0.1,0l0,0l0,0c0,0,0,0,0.1,0
		s0.3,0.1,0.5,0h0.1h0.1h0.1h0.1h0.1c0.1,0,0.2-0.1,0.3,0l0,0l0,0c0,0,0,0,0.1,0c0,0,0,0,0.1,0s0.3,0,0.4,0c0.2,0,0.3,0,0.4,0H56
		c0.1,0.1,0.2,0.1,0.4,0s0.3-0.1,0.3-0.1s0,0,0.1,0c0,0,0,0,0.1,0c0,0,0,0,0.1,0l0,0c0,0,0.1,0,0.2,0c0.1,0,0.1,0,0.2,0l0,0
		c0,0,0.1,0,0.2,0c0.1,0,0.1,0,0.1,0.1c0.1,0,0.1-0.1,0.2-0.1H58c0,0,0,0,0.1,0l0,0l0,0c0,0,0,0,0.1,0s0.1,0,0.2-0.1
		c0.1,0,0.2,0,0.2,0c0.1,0.1,0.1,0.1,0.1,0.1s0,0,0.1,0l0.1-0.1c0.1,0,0.1,0,0.2,0c0,0,0,0,0.1,0c0,0,0,0,0.1,0c0,0,0.1,0,0.2,0.1
		c0,0,0,0,0.1,0c0,0,0,0,0.1,0c0,0.1,0.1,0.1,0.2,0c0.1,0,0.2-0.1,0.2,0c0,0,0,0,0.1,0c0,0,0,0,0.1,0c0,0,0.1,0,0.2,0
		c0.1,0,0.1,0,0.1,0h0.1h0.1c0,0,0.1,0,0.2-0.1h0.1l0.1,0.1c0,0,0,0,0.1,0c0,0,0,0,0.1,0c0,0,0.1,0,0.1,0.1C61,44.7,61,44.7,61,44.6
		z M61.1,44.6C61.2,44.6,61.2,44.6,61.1,44.6C61.1,44.7,61.1,44.7,61.1,44.6c0.1,0.1,0.3,0.1,0.3,0.1l0,0l0,0h0.1
		c0.1,0.1,0.3,0.1,0.5,0c0,0,0.1,0.1,0.2,0.1c0.1,0,0.2,0,0.2,0.1l0,0l0,0c0,0,0.1,0,0.1,0.1c0,0,0,0,0.1,0c0,0,0,0,0.1,0
		c0,0,0,0.1,0.1,0.2c0,0,0.1,0,0.1,0.1c0.1,0.1,0.1,0.1,0.2,0c0.1,0.3,0.2,0.5,0.2,0.5c0,0.1-0.1,0.2,0,0.3c0,0.3,0,0.4,0,0.4
		s-0.1,0.1-0.2,0.2c-0.1,0.1-0.1,0.2-0.2,0.2c-0.1,0-0.1,0.1-0.1,0.2c0,0,0,0-0.1,0s0,0-0.1,0c0,0-0.1,0-0.1,0.1l-0.1,0.1h-0.1h-0.1
		c0,0,0,0-0.1,0c0,0,0,0-0.1,0h-0.1l-0.1,0.1h-0.1c-0.1,0-0.1,0-0.1,0c-0.1,0-0.1,0.1-0.1,0.2c0,0-0.1,0-0.2-0.1c0,0,0,0-0.1,0h-0.1
		c0,0,0-0.1-0.1-0.2h-0.1c0-0.1-0.1-0.2-0.2-0.1l0.3-0.1c0,0,0,0-0.1,0c0,0,0,0-0.1,0h-0.1c0,0,0-0.1-0.1-0.1c0,0,0,0-0.1,0
		c0,0,0,0,0,0.1c-0.1,0-0.2,0-0.2-0.1c0,0-0.1,0-0.1,0.1c0,0-0.1,0-0.1-0.1c-0.1,0-0.3,0-0.5,0c-0.3,0-0.4,0-0.5,0c0,0,0,0-0.1,0
		l0,0l0,0c0,0,0,0-0.1,0c-0.2,0-0.4,0-0.6,0h-0.1h-0.1c-0.1,0-0.2,0-0.2,0s0.1,0.1,0.1,0.2c0,0.1,0.1,0.2,0.2,0.2
		c-0.1,0.1-0.1,0.2-0.1,0.3c0,0,0,0,0,0.1s0,0.1,0,0.2c0,0.1,0,0.1,0,0.2c0,0.1,0.1,0.1,0.1,0c0,0.2,0,0.3-0.1,0.4
		c0,0.1,0,0.2,0.1,0.3v0.3c0,0,0,0,0,0.1c0,0,0,0.1,0.1,0.1c0,0.1,0,0.2,0,0.3c0,0,0,0.1,0.1,0.1c-0.1,0.1-0.1,0.2,0,0.3
		c0,0-0.1,0.1,0,0.1c0,0.1,0,0.1,0.1,0.1c0.1,0.1,0.1,0.2,0,0.3c0,0,0,0.1,0,0.2s0,0.1,0,0.1V51c0,0,0,0,0.1,0.1c0,0,0.1,0,0.1,0.1
		c0,0,0,0.1-0.1,0.1c0,0.1,0,0.1,0,0.2c0,0.1,0,0.1,0,0.2c0,0.1,0.1,0.1,0.1,0.1s0,0,0,0.1s0,0.1,0,0.1l0,0c0,0,0,0,0,0.1
		c0,0,0,0,0,0.1v0.1c0,0,0,0,0,0.1v0.1c0,0,0,0,0,0.1v0.1v0.1c0,0.1,0,0.1,0,0.2c0,0.1,0,0.1,0,0.1v0.1c0,0,0,0.1,0.1,0.1v0.1
		c0,0.1,0,0.1,0,0.2l0.1,0.1c0,0.2,0.1,0.3,0.1,0.3l-0.1,0.1c0,0,0,0,0,0.1v0.1c0,0,0,0,0,0.1c0,0,0,0.1,0.1,0.1
		c0,0.1,0.1,0.2,0.1,0.2c0,0.3,0,0.5,0.1,0.5h0.1c0,0,0,0,0,0.1v0.1c0,0,0,0-0.1-0.1c-0.1,0-0.1,0.1,0,0.2c0,0.1,0,0.1,0,0.2
		c0,0.1,0,0.1,0,0.2c0,0.1,0.1,0.2,0.1,0.3c0,0,0.1,0.1,0.1,0.3l0.1,0.1c0,0,0,0.2,0,0.3s0,0.3,0,0.3v0.1c0,0.1,0,0.1,0,0.2
		c0,0.4,0,0.6,0,0.6s0,0,0,0.1s0,0.1,0,0.1s0,0-0.1,0.1c0,0,0,0-0.1-0.1c0,0-0.1,0-0.1,0.1c0,0-0.1,0.1-0.1,0c0,0,0,0-0.1,0
		c0,0,0,0-0.1,0l-0.1,0.2c0,0,0,0-0.1,0c0,0,0,0-0.1,0l-0.1,0.1c-0.1,0.1-0.1,0.1-0.2,0l0,0l0,0l-0.1-0.1c-0.1,0-0.2,0-0.3-0.1
		c-0.1,0-0.1,0-0.1,0c0-0.2-0.1-0.3-0.2-0.3c0-0.1,0-0.1,0-0.1h-0.1c0-0.1-0.1-0.2-0.2-0.2v-0.1c0-0.1,0-0.1,0-0.1v-0.1
		c0-0.1,0-0.1,0-0.1s0-0.1,0-0.2c0-0.1,0-0.2,0-0.2l0,0c0,0,0,0-0.1,0c0-0.1,0-0.2,0-0.3s0-0.1,0-0.2c0-0.1-0.1-0.2-0.1-0.2v-0.1
		c0-0.1,0-0.1,0-0.1s0,0,0-0.1L57,56c0,0,0,0,0-0.1s0-0.1,0-0.1h-0.1c0-0.1,0-0.3,0-0.3c0-0.1-0.1-0.1-0.1-0.2c0,0,0-0.1,0-0.2
		c0-0.2,0-0.3-0.1-0.3c0,0,0.1-0.1,0-0.2c0-0.1-0.1-0.2-0.2-0.1c0.1-0.2,0.1-0.4,0-0.6c0,0,0-0.1,0-0.3s0-0.3-0.1-0.3
		c0,0,0-0.1,0-0.2c0-0.1,0-0.2,0-0.2s0-0.1,0-0.2c0-0.1,0-0.1,0-0.1c0-0.1,0-0.2,0-0.2s0,0,0-0.1v-0.1c0,0-0.1-0.1-0.2-0.2
		c0,0,0,0,0-0.1c0,0,0,0,0-0.1c0,0,0-0.1-0.1-0.1c0,0,0-0.1,0-0.2c0-0.1,0-0.1,0-0.1s0-0.1-0.1-0.1v-0.5c0,0,0,0,0-0.1
		c0,0,0,0,0-0.1v-0.1c0-0.1,0-0.1,0-0.1s0,0,0-0.1c0,0,0,0,0-0.1c0,0,0-0.1,0-0.2c0-0.1,0-0.2,0-0.2v-0.1c0-0.1,0-0.1,0-0.1v-0.1
		v-0.1l0,0c0,0,0,0,0-0.1c0,0,0-0.1,0-0.2c0-0.2,0-0.3-0.1-0.3c0-0.2-0.1-0.3-0.2-0.3c0,0,0,0,0-0.1c0,0,0,0,0-0.1s-0.1-0.2-0.2-0.2
		c0-0.1,0.1-0.2,0-0.3c0,0,0,0,0-0.1c0,0,0,0,0-0.1v-0.1c0,0,0-0.1-0.1-0.1s-0.2,0-0.3,0c-0.2,0.1-0.3,0.1-0.3,0.1h-0.1h-0.1
		c0,0,0,0-0.1,0s-0.1,0-0.1,0s-0.1-0.1-0.2-0.1c0,0,0,0-0.1,0c0,0,0,0-0.1,0c0,0-0.1,0-0.2,0c-0.1,0-0.2,0-0.2,0h-0.1
		c-0.1,0-0.1,0-0.1,0.1c0,0,0,0-0.1,0c0,0,0,0-0.1,0c0,0-0.1,0-0.2,0h-0.1h-0.1c-0.1,0-0.1,0-0.1,0H53h-0.1h-0.1c0,0,0,0-0.1,0
		s-0.1,0-0.2,0v0.1c0,0-0.1,0-0.2,0c-0.1,0-0.1,0-0.2,0L52,47.5c0,0-0.1,0-0.1,0.1c-0.3,0-0.4,0-0.4-0.1h-0.1h-0.1c0,0,0,0-0.1,0.1
		c0,0,0,0-0.1,0c0,0,0,0-0.1,0c0,0-0.1,0-0.2,0c-0.1,0-0.2,0-0.2,0s0,0,0,0.1l0,0c0,0,0,0-0.1,0c0-0.1,0-0.2-0.1-0.2s-0.2,0-0.2,0
		h-0.1c-0.1,0-0.1,0-0.1,0c0-0.1-0.1-0.1-0.1-0.2l0,0l0,0l0,0l0,0h-0.1v-0.1v-0.1V47v-0.1c0,0-0.1-0.1-0.2-0.3
		c0-0.1-0.1-0.1-0.1-0.2c-0.1-0.1-0.1-0.1-0.1-0.2c0,0,0,0,0-0.1c0,0,0,0,0.1-0.1c0,0,0-0.1,0-0.2c0-0.1,0-0.1,0-0.1
		s0.1-0.1,0.2-0.2l0,0l0,0l0,0c0.1-0.1,0.1-0.1,0.1-0.2c0.1-0.1,0.2-0.2,0.2-0.2c0.1,0,0.3,0.1,0.6,0V45c0.2,0.1,0.4,0.1,0.4,0.1
		c0.1,0,0.1-0.1,0.1-0.1s0,0,0.1,0h0.1c0,0,0,0,0.1,0c0,0,0,0,0.1,0c0,0,0,0,0.1,0c0,0,0,0,0.1,0s0.3,0,0.3,0h0.1c0.1,0,0.1,0,0.2,0
		c0.1,0,0.1,0.1,0.1,0.1c0.1,0,0.2,0,0.3,0c0,0,0.1,0,0.2,0c0.1,0,0.1,0,0.1-0.1c0,0,0.1,0,0.2,0c0.1,0,0.2,0,0.2,0s0,0,0.1,0l0,0
		l0,0c0,0,0,0,0.1,0s0.3,0.1,0.5,0h0.1h0.1h0.1h0.1h0.1c0.1,0,0.2-0.1,0.3,0l0,0l0,0c0,0,0,0,0.1,0c0,0,0,0,0.1,0s0.3,0,0.4,0
		c0.2,0,0.3,0,0.4,0c0,0,0,0,0.1-0.1c0.1,0.1,0.2,0.1,0.4,0s0.3-0.1,0.3-0.1s0,0,0.1,0c0,0,0,0,0.1,0c0,0,0,0,0.1,0l0,0
		c0,0,0.1,0,0.2,0c0.1,0,0.1,0,0.2,0l0,0c0,0,0.1,0,0.2,0c0.1,0,0.1,0,0.1,0.1c0.1,0,0.1-0.1,0.2-0.1H58c0,0,0,0,0.1,0l0,0l0,0
		c0,0,0,0,0.1,0s0.1,0,0.2-0.1c0.1,0,0.2,0,0.2,0c0.1,0.1,0.1,0.1,0.1,0.1s0,0,0.1,0l0.1-0.1c0.1,0,0.1,0,0.2,0c0,0,0,0,0.1,0
		c0,0,0,0,0.1,0c0,0,0.1,0,0.2,0.1c0,0,0,0,0.1,0c0,0,0,0,0.1,0c0,0.1,0.1,0.1,0.2,0c0.1,0,0.2-0.1,0.2,0c0,0,0,0,0.1,0
		c0,0,0,0,0.1,0c0,0,0.1,0,0.2,0c0.1,0,0.1,0,0.1,0h0.1h0.1c0,0,0.1,0,0.2-0.1h0.1l0.1,0.1c0,0,0,0,0.1,0c0,0,0,0,0.1,0
		c0,0,0.1,0,0.1,0.1c0,0,0.1,0,0.1-0.1C61.1,44.6,61.1,44.6,61.1,44.6z M56.8,53.3C56.7,53.3,56.7,53.3,56.8,53.3
		C56.8,53.2,56.8,53.2,56.8,53.3L56.8,53.3L56.8,53.3z M56.8,53.3L56.8,53.3L56.8,53.3C56.7,53.3,56.7,53.3,56.8,53.3
		C56.8,53.2,56.8,53.2,56.8,53.3z M58.9,51.6L58.9,51.6C58.9,51.7,58.9,51.7,58.9,51.6z M58.9,51.6L58.9,51.6L58.9,51.6L58.9,51.6z"
		/>
	<path class="st0" d="M71.3,41.9c0,0,0.1,0,0.2,0s0.1,0,0.1,0l0,0l0,0h0.1c0.1,0,0.1,0,0.1,0c0.1,0,0.2,0,0.3,0.1
		c0.4,0,0.6,0.1,0.7,0.2h0.1c0,0,0.1,0.1,0.2,0.2c0.1,0.1,0.2,0.1,0.2,0.2v0.1c0.1,0.1,0.2,0.3,0.3,0.6c0,0,0,0,0.1,0l0,0
		c0,0.1,0,0.2,0,0.3s0,0.2,0,0.2c0,0.1-0.1,0.1-0.1,0.2l-0.1,0.1c0,0.1,0,0.1-0.1,0.2v0.1v0.1l0,0l0,0c0,0,0,0-0.1,0.1h-0.1
		c0,0,0,0,0,0.1c0,0,0,0-0.1,0.1c-0.1,0-0.2,0-0.2,0c0,0.1,0,0.1,0,0.1h-0.1c-0.1,0-0.1,0-0.1,0s0,0-0.1,0c0,0,0,0-0.1,0
		c0,0,0,0,0.1-0.1c0,0,0-0.1-0.1-0.1c0-0.1,0-0.1-0.1-0.1c0,0,0,0-0.1,0.1h-0.1c0,0,0-0.1-0.1-0.1c0-0.1-0.1-0.1-0.1-0.1s0,0,0,0.1
		l0,0c0,0,0,0-0.1-0.1v-0.1c0,0,0,0-0.1,0c0-0.1-0.2-0.2-0.4-0.2c0,0-0.1,0-0.2,0.1c0,0-0.1,0-0.2,0s-0.1,0-0.1,0s0,0-0.1,0.1
		c0,0-0.1,0-0.3,0c-0.2,0-0.4,0.1-0.4,0.2c-0.1-0.1-0.2-0.1-0.3,0c-0.1,0-0.1,0-0.2,0s-0.1,0-0.2,0v0.1c-0.1,0-0.2,0-0.2,0
		c-0.1,0-0.1-0.1-0.2,0c0,0,0,0-0.1,0c0,0,0,0-0.1,0c0,0-0.1,0-0.2,0s-0.1,0-0.1,0s-0.1,0-0.1,0.1h-0.1h-0.1v0.1c-0.2,0-0.3,0-0.4,0
		l0,0l0,0c-0.2-0.1-0.4-0.1-0.5,0.1c0,0-0.1,0-0.1-0.1c-0.1,0-0.1,0.1,0,0.2v0.1c0,0,0,0,0,0.1v0.1v0.1c0,0.1,0,0.2,0.1,0.2
		c0,0.1,0,0.2,0.1,0.3s0.1,0.2,0,0.2c0,0.1,0,0.2,0.1,0.2l0,0l0,0v0.1c0,0,0,0.1,0.1,0.1c0,0.5,0,0.7,0,0.8c-0.1,0.1-0.1,0.2,0,0.4
		c0,0,0,0.1,0,0.2v0.1v0.1c0.1,0,0.1,0.1,0.1,0.1s0,0,0,0.1c0,0,0,0,0,0.1s0,0.2,0,0.4s0,0.3,0,0.4c0,0,0,0.1,0,0.2
		c0,0.1,0.1,0.1,0.2,0.1s0.2-0.1,0.2-0.1c0.2,0,0.3,0,0.4-0.1c0.3,0,0.4,0,0.4,0c0.1,0,0.2,0,0.3,0h0.1c0.1,0,0.1,0,0.1,0h0.1
		c0.1,0,0.2,0,0.2-0.1c0.1,0,0.3,0,0.4,0c0,0,0,0,0.1,0c0,0,0,0,0.1,0s0.1,0,0.1,0c0.1,0,0.1,0,0.1,0c0.1,0,0.2,0,0.3,0v-0.1
		c0.1,0,0.2,0.1,0.3,0c0.1,0,0.2-0.1,0.3-0.1h0.1h0.1l0,0l0,0c0,0,0.1,0,0.1-0.1c0.1-0.1,0.1-0.1,0.2,0l0.1-0.1c0,0,0,0,0.1,0.1
		c0.2,0,0.3,0,0.3-0.1c0,0,0.1,0,0.2,0s0.1,0,0.1,0h0.1c0.1,0,0.1,0,0.1,0c0.1,0,0.2,0.1,0.2,0.1s0.1,0,0.2,0l0,0c0,0,0,0,0,0.1
		c0.2,0,0.3,0,0.3,0s0,0.1,0.1,0.2v0.1c0,0,0,0.1,0.1,0.2c0,0.1,0.1,0.2,0.2,0.3c0,0,0,0-0.1,0.1c0,0.1,0,0.2-0.1,0.2
		c0,0.1-0.1,0.1-0.1,0.2h-0.1l0,0l0,0h-0.1l0,0h-0.1c0,0,0,0-0.1,0c0,0,0,0-0.1,0c0,0-0.1,0-0.1,0.1H73c0,0-0.1,0.1-0.3,0.1
		c-0.1,0-0.2,0.1-0.2,0.2c-0.2,0-0.3,0-0.4,0.2c0,0,0,0-0.1,0l0,0l0,0c-0.1,0-0.1,0-0.2-0.1l0,0c0,0,0,0,0,0.1c0,0-0.1,0-0.2,0
		s-0.2,0-0.2,0s0,0-0.1,0l-0.1,0.1c-0.1,0-0.1,0-0.2,0s-0.1,0,0,0.1c0,0-0.1-0.1-0.2,0c-0.1,0-0.1,0-0.2,0v0.1c0,0-0.1,0-0.2,0
		s-0.1,0-0.1,0s-0.1,0-0.2,0v0.1c0,0-0.1,0-0.2,0h-0.1c0,0-0.1,0.1,0,0.1l0.2-0.1c0,0-0.1,0-0.3,0c0,0,0,0-0.1,0.1c0,0,0,0-0.1,0
		c-0.2,0-0.3,0-0.3,0l-0.1,0.1c-0.2,0-0.4,0-0.4,0s-0.1,0-0.2,0.1c0,0,0,0,0,0.1c-0.2,0.1-0.3,0.1-0.4,0c0,0,0,0-0.1,0h-0.1
		c0,0,0,0-0.1,0c0,0,0,0-0.1,0c0,0-0.1,0-0.2,0.1c-0.1,0-0.1,0-0.1,0c-0.1,0-0.1,0.1,0,0.4c0,0,0,0,0,0.1v0.1c0,0,0,0.1,0.1,0.1
		c0,0.1,0,0.1-0.1,0.2v0.1c0,0.1,0,0.1,0.1,0.2l0,0l0,0c0,0,0,0.1-0.1,0.2c0.1,0,0.1,0.2,0.1,0.4s0,0.4,0,0.5
		c-0.1,0.2-0.1,0.3,0,0.3c0,0,0,0.1,0,0.2c0,0,0,0,0,0.1v0.1c0.1,0.1,0.1,0.3,0.1,0.3s0.1,0.1,0.1,0.2c0,0.1,0.1,0.2,0.1,0.2
		c0.1,0,0.1,0,0.3,0.1c0.1,0,0.2,0,0.3,0c0,0,0,0,0.1-0.1c0,0,0.1,0,0.1,0.1c0.3,0,0.5,0,0.5-0.1c0,0,0.1,0,0.2,0s0.2,0,0.3,0
		c0-0.1,0.2-0.1,0.5-0.1l0,0l0,0c0,0,0.1,0,0.2,0s0.1,0,0.2,0c0,0,0.1,0,0.1-0.1c0.1,0,0.1-0.1,0.1-0.1c0.1,0,0.3,0,0.4-0.1
		s0.3-0.1,0.4-0.1c0-0.1,0-0.1,0.1-0.1s0.2,0,0.3,0c0.2,0,0.3-0.1,0.4-0.2c0.1,0,0.2,0,0.2,0c0.1-0.1,0.1-0.1,0.2-0.1
		c0.4,0,0.6,0,0.6,0.1h0.1c0,0.1,0.1,0.2,0.2,0.3h0.1c0,0,0.1,0.1,0.2,0.2c0,0.1,0.1,0.2,0.2,0.3c0,0,0,0.1,0.1,0.2
		c0.1,0.1,0.1,0.1,0.1,0.2c0,0,0,0,0,0.1s0,0.1,0,0.1C74.1,55.9,74,56,74,56.1c-0.1,0-0.2,0.1-0.2,0.2c-0.1,0-0.2,0.1-0.3,0.3
		c0,0,0,0-0.1,0c0,0,0,0-0.1,0c0,0,0,0.1-0.1,0.2c0,0,0,0-0.1,0c0,0,0,0-0.1,0c0,0-0.1,0-0.1,0.1c-0.1,0-0.2,0-0.2,0.1h-0.1
		c-0.1,0.1-0.2,0.2-0.3,0.1c0,0-0.1,0-0.1,0.1c0,0,0,0-0.1,0s-0.2-0.1-0.2,0c0,0-0.1,0.1-0.1,0.2h-0.1l0,0v0.1c0,0-0.1,0-0.1-0.1
		c-0.1,0-0.1,0-0.2,0c0,0,0,0,0,0.1c0,0,0,0,0,0.1c0,0,0,0-0.1,0c0,0,0,0-0.1,0c0,0,0,0-0.1,0.1c-0.1,0-0.2,0-0.3,0c0,0,0,0,0,0.1
		c-0.1,0-0.2,0-0.2,0c-0.1,0-0.2,0-0.2,0.1c0,0,0,0-0.1,0l0,0c0,0-0.1,0-0.2,0s-0.2,0-0.2,0.1v0.1c0,0-0.1,0-0.2,0h-0.1
		c0,0,0-0.1-0.1-0.1c-0.2,0-0.3,0.1-0.3,0.1v0.1h-0.1c0,0,0,0-0.1-0.1c0,0,0,0-0.1,0.1c0,0,0,0-0.1,0h-0.1c-0.1,0-0.1,0-0.2,0v-0.1
		h-0.1c-0.1,0-0.1,0-0.1,0.1c-0.1,0-0.3,0-0.4,0c0-0.1,0-0.1-0.1-0.1h-0.1c0,0,0,0,0,0.1v0.1l0,0l0,0h-0.1v-0.1
		c0-0.1-0.1-0.1-0.2-0.1S67.3,58,67.2,58c0,0-0.1,0-0.1-0.1S67,57.8,67,57.8s0,0-0.1,0c0,0,0,0-0.1,0c0,0,0,0,0-0.1l0,0
		c0,0,0,0-0.1,0h-0.1c0-0.1,0-0.2-0.2-0.3v-0.1c-0.1-0.1-0.2-0.1-0.2-0.2h-0.1C66,57.1,66,57,65.9,57c-0.1-0.1-0.1-0.1-0.2-0.2
		c-0.1-0.1-0.1-0.1-0.1-0.2c-0.1-0.3-0.2-0.5-0.2-0.5s0-0.1-0.1-0.2c0,0,0-0.1,0-0.2c0-0.1,0-0.1,0-0.2c0,0,0-0.1-0.1-0.1
		c0,0,0,0,0-0.1c0,0,0,0,0-0.1c0,0,0-0.1,0-0.2c0-0.1,0-0.2-0.1-0.2c0,0,0-0.1,0-0.3c0-0.1,0-0.2,0-0.2c0-0.3,0-0.7,0-1.3s0-1,0-1.3
		c0.1,0,0.1,0,0.1-0.1s0-0.1-0.1-0.1c0-0.1,0-0.1,0-0.2c0-0.1,0-0.2,0-0.2L65,51c0,0,0-0.1,0.1-0.1c0-0.1,0-0.5,0-1.2l0.1-0.1
		c0,0,0-0.1-0.1-0.1c0,0,0-0.1,0-0.2c0-0.1,0-0.2,0-0.3v-0.1c0-0.1,0-0.1,0-0.2c0,0,0-0.2,0-0.4s0-0.3-0.1-0.3
		c0.1,0,0.1-0.1,0.1-0.3s0-0.3,0-0.3L65,47.3c0-0.1,0-0.2,0.1-0.3c0,0,0,0-0.1-0.1c0,0,0,0,0-0.1c0-0.2,0-0.4,0-0.4l0,0l0,0
		c0-0.2,0-0.4,0-0.5h-0.1c0,0,0-0.1,0-0.2c0,0,0,0,0-0.1c0,0,0,0,0-0.1c0,0,0,0,0-0.1v-0.1c0,0,0-0.1-0.1-0.1C65,45,65,44.9,65,44.8
		c0,0,0-0.1-0.1-0.1v-0.1c0,0-0.1-0.1-0.2-0.2c0-0.1,0-0.1,0-0.2v-0.1c0-0.1,0-0.1,0-0.2c0.1-0.1,0.1-0.2,0.1-0.2s0.1-0.1,0.1-0.2
		c0.1-0.1,0.1-0.1,0.2-0.2l0,0c0,0,0,0,0-0.1l0.1,0.1h0.1c0.1,0,0.1,0,0.1,0s0.1,0,0.1-0.1c0.1-0.1,0.1-0.1,0.1-0.1s0.1,0,0.2,0
		s0.1,0,0.2,0c0,0,0,0,0.1,0c0,0,0,0,0.1,0s0.2,0,0.3-0.1c0.3-0.1,0.5-0.1,0.5-0.1h0.2l0,0l0,0h0.1c0,0,0.1,0,0.2-0.1
		s0.1-0.1,0.2-0.1v-0.1h0.1l0,0l0,0c0.2,0,0.3-0.1,0.3-0.1s0.1,0,0.2,0.1l0.2-0.1c0,0,0.1-0.1,0.2-0.2c0,0.1,0,0.1,0.1,0.1h0.1
		c0.1,0,0.1,0,0.1,0s0,0,0.1,0h0.1h0.1c0.1,0,0.1,0,0.2,0s0.2,0,0.3-0.1h0.1H70c0.1,0,0.1,0,0.1,0s0.1,0,0.2-0.1h0.1h0.1l0,0l0,0
		C71.1,42.1,71.3,42.1,71.3,41.9z M70.7,42c0.4,0.1,0.6,0,0.6-0.1c0,0,0.1,0,0.3,0l0,0l0,0h0.1c0.1,0,0.1,0,0.1,0
		c0.1,0,0.2,0,0.3,0.1c0.4,0,0.6,0.1,0.7,0.2h0.1c0,0,0.1,0.1,0.2,0.2c0.1,0.1,0.2,0.1,0.2,0.2v0.1c0.1,0.1,0.2,0.3,0.3,0.6
		c0,0,0.1,0,0.1,0.1s0,0.2,0,0.3s0,0.2,0,0.2c0,0.1-0.1,0.1-0.1,0.2l-0.1,0.1c0,0.1,0,0.1-0.1,0.2v0.1v0.1l0,0l0,0c0,0,0,0-0.1,0.1
		h-0.1c0,0,0,0,0,0.1c0,0,0,0-0.1,0.1c-0.1,0-0.2,0-0.2,0c0,0.1,0,0.1,0,0.1h-0.1c-0.1,0-0.1,0-0.1,0s0,0-0.1,0c0,0,0,0-0.1,0
		c0,0,0,0,0.1-0.1c0,0,0-0.1-0.1-0.1c0-0.1,0-0.1-0.1-0.1c0,0,0,0-0.1,0.1h-0.1c0,0,0-0.1-0.1-0.1c0-0.1-0.1-0.1-0.1-0.1s0,0,0,0.1
		l0,0c0,0,0,0-0.1-0.1v-0.1c0,0,0,0-0.1,0c0-0.1-0.2-0.2-0.4-0.2c0,0-0.1,0-0.2,0.1c0,0-0.1,0-0.2,0s-0.1,0-0.1,0s0,0-0.1,0.1
		c0,0-0.1,0-0.3,0c-0.2,0-0.4,0.1-0.4,0.2c-0.1-0.1-0.2-0.1-0.3,0c-0.1,0-0.1,0-0.2,0s-0.1,0-0.2,0v0.1c-0.1,0-0.2,0-0.2,0
		c-0.1,0-0.1-0.1-0.2,0c0,0,0,0-0.1,0c0,0,0,0-0.1,0c0,0-0.1,0-0.2,0s-0.1,0-0.1,0s-0.1,0-0.1,0.1h-0.1h-0.1V45c-0.2,0-0.3,0-0.4,0
		l0,0l0,0c-0.2-0.1-0.4-0.1-0.5,0.1c0,0-0.1,0-0.1-0.1c-0.1,0-0.1,0.1,0,0.2v0.1c0,0,0,0,0,0.1v0.1v0.1c0,0.1,0,0.2,0.1,0.2
		c0,0.1,0,0.2,0.1,0.3s0.1,0.2,0,0.2c0,0.1,0,0.2,0.1,0.2l0,0l0,0v0.1c0,0,0,0.1,0.1,0.1c0,0.5,0,0.7,0,0.8c-0.1,0.1-0.1,0.2,0,0.4
		c0,0,0,0.1,0,0.2v0.1v0.1c0.1,0,0.1,0.1,0.1,0.1s0,0,0,0.1c0,0,0,0,0,0.1s0,0.2,0,0.4s0,0.3,0,0.4c0,0,0,0.1,0,0.2
		c0,0.1,0.1,0.1,0.2,0.1s0.2-0.1,0.2-0.1c0.2,0,0.3,0,0.4-0.1c0.3,0,0.4,0,0.4,0c0.1,0,0.2,0,0.3,0h0.1c0.1,0,0.1,0,0.1,0h0.1
		c0.1,0,0.2,0,0.2-0.1c0.1,0,0.3,0,0.4,0c0,0,0,0,0.1,0c0,0,0,0,0.1,0s0.1,0,0.1,0c0.1,0,0.1,0,0.1,0c0.1,0,0.2,0,0.3,0v-0.1
		c0.1,0,0.2,0.1,0.3,0c0.1,0,0.2-0.1,0.3-0.1h0.1h0.1l0,0l0,0c0,0,0.1,0,0.1-0.1c0.1-0.1,0.1-0.1,0.2,0L72,49c0,0,0,0,0.1,0.1
		c0.2,0,0.3,0,0.3-0.1c0,0,0.1,0,0.2,0s0.1,0,0.1,0h0.1c0.1,0,0.1,0,0.1,0c0.1,0,0.2,0.1,0.2,0.1s0.1,0,0.2,0l0,0c0,0,0,0,0,0.1
		c0.2,0,0.3,0,0.3,0s0,0.1,0.1,0.2v0.1c0,0,0,0.1,0.1,0.2c0,0.1,0.1,0.2,0.2,0.3c0,0,0,0-0.1,0.1c0,0.1,0,0.2-0.1,0.2
		c0,0.1-0.1,0.1-0.1,0.2h-0.1l0,0l0,0h-0.1l0,0h-0.1c0,0,0,0-0.1,0c0,0,0,0-0.1,0c0,0-0.1,0-0.1,0.1H73c0,0-0.1,0.1-0.3,0.1
		c-0.1,0-0.2,0.1-0.2,0.2c-0.2,0-0.3,0-0.4,0.2c0,0,0,0-0.1,0l0,0l0,0c-0.1,0-0.1,0-0.2-0.1l0,0c0,0,0,0,0,0.1c0,0-0.1,0-0.2,0
		s-0.2,0-0.2,0s0,0-0.1,0l-0.1,0.1c-0.1,0-0.1,0-0.2,0s-0.1,0,0,0.1c0,0-0.1-0.1-0.2,0c-0.1,0-0.1,0-0.2,0v0.1c0,0-0.1,0-0.2,0
		s-0.1,0-0.1,0s-0.1,0-0.2,0v0.1c0,0-0.1,0-0.2,0h-0.1c0,0-0.1,0.1,0,0.1l0.2-0.2c0,0-0.1,0-0.3,0c0,0,0,0-0.1,0.1c0,0,0,0-0.1,0
		c-0.2,0-0.3,0-0.3,0l-0.1,0.1c-0.2,0-0.4,0-0.4,0s-0.1,0-0.2,0.1c0,0,0,0,0,0.1c-0.2,0.1-0.3,0.1-0.4,0c0,0,0,0-0.1,0h-0.1
		c0,0,0,0-0.1,0c0,0,0,0-0.1,0c0,0-0.1,0-0.2,0.1c-0.1,0-0.1,0-0.1,0c-0.1,0-0.1,0.1,0,0.4c0,0,0,0,0,0.1v0.1c0,0,0,0.1,0.1,0.1
		c0,0.1,0,0.1-0.1,0.2v0.1c0,0.1,0,0.1,0.1,0.2l0,0l0,0c0,0,0,0.1-0.1,0.2c0.1,0.1,0.1,0.2,0.1,0.4s0,0.3,0,0.4
		c-0.1,0.2-0.1,0.3,0,0.3c0,0,0,0.1,0,0.2c0,0,0,0,0,0.1v0.1c0.1,0.1,0.1,0.3,0.1,0.3s0.1,0.1,0.1,0.2c0,0.1,0.1,0.2,0.1,0.2
		c0.1,0,0.1,0,0.3,0.1c0.1,0,0.2,0,0.3,0c0,0,0,0,0.1-0.1c0,0,0.1,0,0.1,0.1c0.3,0,0.5,0,0.5-0.1c0,0,0.1,0,0.2,0s0.2,0,0.3,0
		c0-0.1,0.2-0.1,0.5-0.1l0,0l0,0c0,0,0.1,0,0.2,0s0.1,0,0.2,0c0,0,0.1,0,0.1-0.1c0.1,0,0.1-0.1,0.1-0.1c0.1,0,0.3,0,0.4-0.1
		s0.3-0.1,0.4-0.1c0-0.1,0-0.1,0.1-0.1s0.2,0,0.3,0c0.2,0,0.3-0.1,0.4-0.2c0.1,0,0.2,0,0.2,0c0.1-0.1,0.1-0.1,0.2-0.1
		c0.4,0,0.6,0,0.6,0.1h0.1c0,0.1,0.1,0.2,0.2,0.3h0.1c0,0,0.1,0.1,0.2,0.2c0,0.1,0.1,0.2,0.2,0.3c0,0,0,0.1,0.1,0.2
		c0.1,0.1,0.1,0.1,0.1,0.2c0,0,0,0,0,0.1s0,0.1,0,0.1c-0.2-0.2-0.3-0.1-0.3,0c-0.1,0-0.2,0.1-0.2,0.2c-0.1,0-0.2,0.1-0.3,0.3
		c0,0,0,0-0.1,0c0,0,0,0-0.1,0c0,0,0,0.1-0.1,0.2c0,0,0,0-0.1,0c0,0,0,0-0.1,0c0,0-0.1,0-0.1,0.1c-0.1,0-0.2,0-0.2,0.1h-0.1
		c-0.1,0.1-0.2,0.2-0.3,0.1c0,0-0.1,0-0.1,0.1c0,0,0,0-0.1,0s-0.2-0.1-0.2,0c0,0-0.1,0.1-0.1,0.2h-0.1l0,0v0.1c0,0-0.1,0-0.1-0.1
		c-0.1,0-0.1,0-0.2,0c0,0,0,0,0,0.1c0,0,0,0,0,0.1c0,0,0,0-0.1,0c0,0,0,0-0.1,0c0,0,0,0-0.1,0.1c-0.1,0-0.2,0-0.3,0c0,0,0,0,0,0.1
		c-0.1,0-0.2,0-0.2,0c-0.1,0-0.2,0-0.2,0.1c0,0,0,0-0.1,0l0,0c0,0-0.1,0-0.2,0s-0.2,0-0.2,0.1v0.1c0,0-0.1,0-0.2,0h-0.1
		c0,0,0-0.1-0.1-0.1c-0.2,0-0.3,0.1-0.3,0.1v0.1h-0.1c0,0,0,0-0.1-0.1c0,0,0,0-0.1,0.1c0,0,0,0-0.1,0h-0.1c-0.1,0-0.1,0-0.2,0v-0.1
		h-0.1c-0.1,0-0.1,0-0.1,0.1c-0.1,0-0.3,0-0.4,0c0-0.1,0-0.1-0.1-0.1h-0.1c0,0,0,0,0,0.1v0.1l0,0l0,0h-0.1v-0.1
		c0-0.1-0.1-0.1-0.2-0.1S67.3,58,67.2,58c0,0-0.1,0-0.1-0.1S67,57.8,67,57.8s0,0-0.1,0c0,0,0,0-0.1,0c0,0,0,0,0-0.1l0,0
		c0,0,0,0-0.1,0h-0.1c0-0.1,0-0.2-0.2-0.3v-0.1c-0.1-0.1-0.2-0.1-0.2-0.2h-0.1C66,57.1,66,57,65.9,57c-0.1-0.1-0.1-0.1-0.2-0.2
		c-0.1-0.1-0.1-0.1-0.1-0.2c-0.1-0.3-0.2-0.5-0.2-0.5s0-0.1-0.1-0.2c0,0,0-0.1,0-0.2c0-0.1,0-0.1,0-0.2c0,0,0-0.1-0.1-0.1
		c0,0,0,0,0-0.1c0,0,0,0,0-0.1c0,0,0-0.1,0-0.2c0-0.1,0-0.2-0.1-0.2c0,0,0-0.1,0-0.3c0-0.1,0-0.2,0-0.2c0-0.3,0-0.7,0-1.3s0-1,0-1.3
		c0.1,0,0.1,0,0.1-0.1s0-0.1-0.1-0.1c0-0.1,0-0.1,0-0.2c0-0.1,0-0.2,0-0.2L65,51c0,0,0-0.1,0.1-0.1c0-0.1,0-0.5,0-1.2l0.1-0.1
		c0,0,0-0.1-0.1-0.1c0,0,0-0.1,0-0.2c0-0.1,0-0.2,0-0.3c0,0,0,0,0-0.1s0-0.1,0-0.2c0,0,0-0.2,0-0.4s0-0.3-0.1-0.3
		c0.1,0,0.1-0.1,0.1-0.3s0-0.3,0-0.3L65,47.3c0-0.1,0-0.2,0.1-0.3c0,0,0,0-0.1-0.1c0,0,0,0,0-0.1c0-0.2,0-0.4,0-0.4l0,0l0,0
		c0-0.2,0-0.4,0-0.5h-0.1c0,0,0-0.1,0-0.2c0,0,0,0,0-0.1c0,0,0,0,0-0.1c0,0,0,0,0-0.1v-0.1c0,0,0-0.1-0.1-0.1C65,45,65,44.9,65,44.8
		c0,0,0-0.1-0.1-0.1v-0.1c0,0-0.1-0.1-0.2-0.2c0-0.1,0-0.1,0-0.2v-0.1c0-0.1,0-0.1,0-0.2c0.1-0.1,0.1-0.2,0.1-0.2s0.1-0.1,0.1-0.2
		c0.1-0.1,0.1-0.1,0.2-0.2l0,0c0,0,0,0,0-0.1l0.1,0.1h0.1c0.1,0,0.1,0,0.1,0s0.1,0,0.1-0.1c0.1-0.1,0.1-0.1,0.1-0.1s0.1,0,0.2,0
		s0.1,0,0.2,0c0,0,0,0,0.1,0c0,0,0,0,0.1,0s0.2,0,0.3-0.1c0.3-0.1,0.5-0.1,0.5-0.1h0.2l0,0l0,0h0.1c0,0,0.1,0,0.2-0.1
		s0.1-0.1,0.2-0.1v-0.1h0.1l0,0l0,0c0.2,0,0.3-0.1,0.3-0.1s0.1,0,0.2,0.1l0.2-0.1c0,0,0.1-0.1,0.2-0.2c0,0.1,0,0.1,0.1,0.1h0.1
		c0.1,0,0.1,0,0.1,0s0,0,0.1,0h0.1h0.1c0.1,0,0.1,0,0.2,0s0.2,0,0.3-0.1h0.1H70c0.1,0,0.1,0,0.1,0s0.1,0,0.2-0.1h0.1
		C70.6,42.1,70.6,42.1,70.7,42C70.7,42.1,70.7,42.1,70.7,42C70.7,42.1,70.7,42,70.7,42z"/>
	<path class="st0" d="M75.9,43.1c0.2,0,0.3,0,0.3-0.1l0.1,0.1c0,0,0.1-0.1,0.2,0c0.1,0,0.2,0,0.2,0s0,0,0.1,0h0.1H77
		c0.1,0,0.1,0,0.1,0s0.1,0,0.2,0s0.2,0,0.3,0h0.1c0.1,0,0.1,0,0.1,0h0.1c0,0,0.1,0,0.1-0.1c0.3,0,0.5,0,0.5,0.1c0.1,0,0.1,0,0.3,0
		h0.1c0,0,0.1,0,0.2,0s0.1,0,0.2,0h0.1h0.1c0.1,0,0.1,0,0.1,0h0.1h0.1h0.1H80c0.1,0,0.1,0,0.1,0s0,0,0.1,0.1c0,0,0,0,0.1,0h0.1
		c0.1,0,0.1,0,0.3,0c0.1,0,0.2,0,0.3,0h0.1c0.1,0,0.1,0,0.2,0l0,0l0,0c0.1,0,0.2,0,0.4,0.1c0.2,0,0.4,0.1,0.5,0
		c0.1,0,0.1-0.1,0.2-0.1v0.1c0.1,0,0.1,0.1,0.1,0.1h0.1c0.1,0,0.1,0,0.1,0h0.1c0.1,0,0.1,0,0.2,0l0.1,0.1c0.1,0,0.1,0,0.2,0
		c0.1-0.1,0.2-0.1,0.3-0.1v0.1c0,0,0.2,0.1,0.4,0.1c0,0,0.1,0.1,0.2,0.1s0.2,0,0.2,0.1h0.1c0.4,0.2,0.6,0.4,0.7,0.5h0.1
		c0,0.1,0.1,0.1,0.1,0.2c0.1,0,0.1,0.1,0.2,0.1c0.1,0.1,0.1,0.1,0.2,0.2c0.1,0.1,0.1,0.1,0.2,0.1c0,0,0,0.1,0.1,0.2
		c0,0.1,0.1,0.1,0.1,0.1c0.1,0.1,0.1,0.1,0.2,0.2v0.1c0,0,0,0,0,0.1c0,0,0,0.1,0.1,0.1c0,0.1,0,0.2,0,0.2l0,0c0,0,0,0,0,0.1
		c0,0,0,0.1,0,0.2c0,0.1,0,0.1,0.1,0.2l0,0l0,0c0,0,0,0,0,0.1c0,0,0,0-0.1,0c0,0,0,0.1,0,0.2c0,0.1,0,0.1,0,0.1v0.1c0,0,0,0.1,0,0.3
		c0,0.1,0,0.2,0,0.3s-0.1,0.1-0.1,0.1c0,0.1,0,0.1,0,0.2c-0.1,0-0.1,0.1-0.1,0.1s0,0.1-0.1,0.2v0.1c-0.1,0-0.1,0.1-0.1,0.3
		c0,0-0.1,0.1-0.1,0.2c-0.1,0.1-0.1,0.2-0.2,0.2V49c0,0,0,0,0,0.1v0.1c-0.2,0.1-0.3,0.3-0.3,0.5l0,0l0,0c0,0-0.1,0.1-0.1,0.2
		c-0.2,0.2-0.4,0.3-0.4,0.4c-0.1,0-0.2,0.1-0.2,0.2c-0.3,0.2-0.4,0.3-0.5,0.4c-0.1,0-0.1,0.1-0.2,0.1L84,51.1
		c-0.1,0.1-0.1,0.1-0.1,0.1c-0.1,0.1-0.2,0.1-0.2,0.1v0.1h0.1c0,0,0.1,0,0.1,0.1c0.1,0,0.1,0,0.1,0l0,0c0,0,0,0,0.1,0s0.1,0,0.1,0
		s0,0,0.1,0.1c0.1,0,0.1,0,0.1,0s0,0,0.1,0c0,0,0,0,0,0.1h0.1c0.1,0.1,0.1,0.1,0.2,0.1c0,0,0.1,0.1,0.2,0.1c0.1,0.1,0.2,0.1,0.2,0.1
		h0.1c0,0,0,0,0.1,0s0,0,0.1,0h0.1c0,0,0,0.1,0.1,0.1c0.1,0.1,0.1,0.1,0.2,0.1c0,0.1,0.1,0.1,0.3,0.1c0.1,0.1,0.2,0.2,0.3,0.2
		c0,0,0.1,0.1,0.1,0.2c0.2,0.1,0.3,0.2,0.5,0.3h0.1c0.2,0.1,0.3,0.2,0.3,0.2s0.1,0.1,0.2,0.1s0.1,0.1,0.1,0.1s0.1,0,0.2,0.1
		c0.1,0,0.1,0.1,0.2,0.1c0.1,0.1,0.2,0.2,0.4,0.3c0.2,0.1,0.3,0.2,0.4,0.3h0.1c0.1,0.1,0.2,0.2,0.2,0.2s0,0,0.1,0c0,0,0,0,0.1,0
		c0,0.1,0.1,0.1,0.3,0.3c0.1,0,0.1,0,0.2,0s0.2,0,0.2,0c0.1,0,0.2,0.1,0.2,0.1l0.1-0.1c0,0,0,0,0.1,0.1c0.1,0,0.2,0,0.3,0.1
		C91,55,91,55,91,55.1c0,0,0,0,0,0.1h0.1c0,0,0,0.1,0.1,0.2c0,0.1,0.1,0.1,0.1,0.2v0.1c0,0,0,0,0,0.1v0.1l0.1,0.1
		c0.1,0.1,0.1,0.1,0.1,0.1s0,0.1,0,0.2c0,0.2,0.1,0.3,0,0.3c0,0,0,0.1,0.1,0.1c0,0.1,0,0.2,0,0.3s0,0.2,0,0.3h-0.3l-0.1,0.1
		l-0.1,0.1l0,0H91c0,0,0.1,0.1,0,0.1c0,0,0,0-0.1,0s-0.1,0-0.1,0l0,0l0,0h-0.1l-0.1-0.1c0,0-0.1,0-0.1,0.1c-0.1,0.1-0.1,0.1-0.2,0
		s-0.2-0.2-0.2-0.2s0,0-0.1,0h-0.1c0-0.1,0-0.1-0.1-0.2c0,0,0,0-0.1,0l0,0c0,0,0,0,0-0.1c0,0-0.1-0.1-0.2-0.2c0,0,0,0-0.1,0h-0.1
		c-0.1-0.1-0.2-0.3-0.3-0.3h-0.1l-0.1-0.1c-0.1-0.1-0.2-0.2-0.3-0.2l-0.1-0.1c-0.1,0-0.1-0.1-0.1-0.1s-0.1,0.1-0.1,0c0,0,0,0,0-0.1
		v-0.1h-0.1c-0.1,0-0.1,0-0.1,0c0-0.1-0.1-0.1-0.2-0.1v-0.1c-0.1-0.1-0.2-0.2-0.2-0.3c0,0-0.2-0.1-0.4-0.3l0,0l0,0
		c0,0-0.1-0.1-0.2-0.2c-0.1,0-0.2-0.1-0.3-0.2c0,0,0,0-0.1,0c0,0,0,0-0.1,0c0,0,0,0,0-0.1v-0.1c0,0,0,0-0.1,0c0,0,0,0-0.1,0
		c0,0-0.1,0-0.2-0.1L86,54.3c0,0,0,0-0.1-0.1c0,0-0.1,0-0.1-0.1c-0.1,0-0.1-0.1-0.3-0.1c-0.1-0.1-0.2-0.1-0.3-0.1h-0.1
		c0-0.1-0.1-0.1-0.2-0.2c0,0-0.1-0.1-0.3-0.2c0,0,0,0-0.1,0l0,0l0,0l0,0c0,0,0,0-0.1,0h-0.1c-0.1,0-0.1,0-0.2,0c0,0-0.1,0-0.1-0.1
		s-0.1-0.1-0.1-0.1c-0.1,0-0.1,0.1-0.1,0l0,0v-0.1c0,0,0,0-0.1,0c0,0,0,0-0.1,0c0,0,0,0,0-0.1l0,0H83L82.9,53c0,0-0.1,0-0.2-0.1
		c-0.1,0-0.1-0.1-0.2,0l-0.1-0.1c-0.1,0-0.1-0.1-0.1-0.1c-0.1,0-0.1,0-0.2-0.1c-0.1,0-0.2,0-0.3-0.1c0,0-0.1,0-0.2,0.1l0,0
		c0,0,0,0,0-0.1c0,0-0.1,0-0.2,0l0,0l0,0c-0.2-0.1-0.3-0.2-0.4-0.1c-0.1-0.1-0.2-0.2-0.3-0.2c0,0-0.1,0-0.2-0.1c0,0-0.1,0-0.1-0.1
		c0,0-0.1,0.1-0.1,0.2c0,0.1,0,0.2,0,0.3c0,0,0,0,0,0.1l0,0c0,0,0,0,0,0.1v0.1c0,0.3,0,0.4,0.1,0.5v0.3v0.1c0,0,0,0.1,0.1,0.1v0.1
		c0,0.1,0,0.1,0,0.1s0,0.1,0.1,0.1c0,0,0,0.1,0.1,0.1c0,0,0,0.1,0,0.2c0,0.1,0,0.2,0,0.2l0,0l0,0c0,0.2,0,0.3,0,0.3
		c0,0.1,0,0.1,0.1,0.3c0,0,0,0.1,0,0.2c0,0.1,0,0.2,0,0.2s0,0,0.1,0c0,0,0,0,0,0.1c0,0,0,0.1-0.1,0.2c0,0,0,0,0,0.1c0,0,0,0.1,0,0.3
		c0,0.1,0,0.2,0,0.4s0,0.3,0,0.3s0,0,0,0.1l0,0c0,0,0,0,0,0.1c0,0-0.1,0.1-0.1,0.2c0,0.1-0.1,0.1-0.1,0.1s-0.1,0-0.2,0
		c-0.2,0-0.3,0.1-0.3,0.3l0,0l0,0c0,0,0,0,0,0.1l0,0c0,0,0,0,0-0.1c0,0-0.1,0-0.2,0s-0.1,0.1-0.1,0.1c0-0.1,0-0.1-0.1-0.2
		c-0.1,0-0.2-0.1-0.3-0.3h-0.1h-0.1c0-0.1,0-0.2-0.1-0.3s-0.2-0.1-0.2-0.2l0,0l0,0c0-0.1,0-0.1,0.1-0.2v-0.1v-0.1c0,0,0,0,0-0.1
		c0,0,0,0-0.1-0.1c0,0,0,0-0.1,0c0,0,0-0.1,0.1-0.1c0.1-0.2,0.1-0.3,0-0.3V56c0,0,0.1-0.1,0.1-0.2c0-0.1,0-0.2-0.1-0.2
		c0-0.1,0-0.2,0-0.3s0-0.2,0-0.2s0-0.1-0.1-0.1c0,0,0-0.1,0-0.3c0-0.1,0-0.2-0.1-0.3c0,0,0-0.1,0-0.2c0-0.1,0-0.1,0-0.2v-0.1v-0.1
		c0,0,0-0.1,0-0.2c0-0.1,0-0.2,0-0.3c0,0,0-0.1-0.1-0.2c0-0.1,0-0.1-0.1-0.1c0,0,0-0.1,0-0.3c0-0.1,0-0.2,0-0.2c0-0.1,0-0.1-0.1-0.2
		c0,0,0-0.1,0-0.3c0,0,0,0,0-0.1c0,0,0,0,0-0.1v-0.1c0-0.1,0-0.1,0-0.1s0,0,0-0.1l0,0c0-0.1,0-0.1,0-0.3c0-0.1,0-0.2,0-0.2
		s0-0.1-0.1-0.1c0,0,0-0.1,0-0.2c0-0.1,0-0.1,0-0.2v-0.1v-0.1v-0.1v-0.1V50c0,0,0,0,0-0.1c0,0,0,0,0-0.1s-0.1-0.1-0.2-0.1v-0.1l0,0
		l0,0v-0.1c0,0,0-0.1,0-0.3c0-0.1,0-0.3,0-0.3L78,48.8c0,0,0,0,0-0.1v-0.1c0,0,0,0,0-0.1c0,0,0,0,0-0.1s-0.1-0.2-0.1-0.2v-0.1
		c0,0,0-0.1,0-0.3c0,0,0-0.1,0-0.2c0-0.1,0-0.1,0-0.1s0,0,0-0.1c0,0,0,0,0-0.1c0,0,0,0,0-0.1l0,0v-0.1c0-0.1,0-0.2,0-0.2
		c0-0.1-0.1-0.2-0.1-0.3s0-0.2,0-0.2l0,0c0,0,0,0-0.1,0c0,0,0,0,0-0.1l0,0c0,0,0-0.1,0-0.2c0-0.1,0-0.2,0-0.2v-0.1
		c0-0.1,0-0.2,0-0.2s0,0-0.1,0l0,0l0,0l0,0c0,0,0-0.1,0-0.2c0-0.1,0-0.2,0-0.2l0,0l0,0v-0.1c0-0.1,0-0.1,0-0.1c-0.1,0-0.2,0-0.3-0.1
		c-0.1,0-0.2,0-0.2,0l-0.2-0.1c0-0.1-0.1-0.1-0.2-0.1l-0.1-0.1c0-0.1-0.1-0.1-0.1-0.2c-0.1-0.1-0.2-0.1-0.2-0.2
		c0-0.1-0.1-0.1-0.1-0.2c0-0.1,0-0.2,0-0.3s0-0.2,0-0.3c0,0,0-0.1,0.1-0.2c0.1-0.1,0.1-0.2,0.1-0.2c0-0.1,0.1-0.1,0.1-0.1l0,0l0,0
		C75.8,43.1,75.8,43.1,75.9,43.1z M76.2,43C76.2,43,76.3,43,76.2,43c0.1,0,0.2,0,0.3,0c0.1,0,0.2,0,0.2,0s0,0,0.1,0h0.1H77
		c0.1,0,0.1,0,0.1,0s0.1,0,0.2,0s0.2,0,0.3,0h0.1c0.1,0,0.1,0,0.1,0h0.1c0,0,0.1,0,0.1-0.1c0.3,0,0.5,0,0.5,0.1c0,0,0.1,0,0.2,0h0.1
		c0,0,0.1,0,0.2,0s0.1,0,0.2,0h0.1h0.1c0.1,0,0.1,0,0.1,0h0.1h0.1h0.1h0.1c0.1,0,0.1,0,0.1,0s0,0,0.1,0.1c0,0,0,0,0.1,0h0.1
		c0.1,0,0.1,0,0.3,0c0.1,0,0.2,0,0.3,0H81c0.1,0,0.1,0,0.2,0l0,0l0,0c0.1,0,0.2,0,0.4,0.1c0.2,0,0.4,0.1,0.5,0
		c0.1,0,0.1-0.1,0.2-0.1v0.1c0.1,0,0.1,0.1,0.1,0.1h0.1c0.1,0,0.1,0,0.1,0h0.1c0.1,0,0.1,0,0.2,0l0.1,0.1c0.1,0,0.1,0,0.2,0
		c0.1-0.1,0.2-0.1,0.3-0.1v0.1c0,0,0.2,0.1,0.4,0.1c0,0,0.1,0.1,0.2,0.1s0.2,0,0.2,0.1h0.1c0.4,0.2,0.6,0.4,0.7,0.5h0.1
		c0,0.1,0.1,0.1,0.1,0.2c0.1,0,0.1,0.1,0.2,0.1c0.1,0.1,0.1,0.1,0.2,0.2c0.1,0.1,0.1,0.1,0.2,0.1c0,0,0,0.1,0.1,0.2
		c0,0.1,0.1,0.1,0.1,0.1c0.1,0.1,0.1,0.1,0.2,0.2v0.1c0,0,0,0,0,0.1c0,0,0,0.1,0.1,0.1c0,0.1,0,0.2,0,0.2l0,0c0,0,0,0,0,0.1
		c0,0,0,0.1,0,0.2c0,0.1,0,0.1,0.1,0.2l0,0l0,0c0,0,0,0,0,0.1c0,0,0,0-0.1,0c0,0,0,0.1,0,0.2c0,0.1,0,0.1,0,0.1v0.1c0,0,0,0.1,0,0.3
		c0,0.1,0,0.2,0,0.3s-0.1,0.1-0.1,0.1c0,0.1,0,0.1,0,0.2c-0.1,0-0.1,0.1-0.1,0.1s0,0.1-0.1,0.2v0.1c-0.1,0-0.1,0.1-0.1,0.3
		c0,0-0.1,0.1-0.1,0.2c-0.1,0.1-0.1,0.2-0.2,0.2v0.1c0,0,0,0,0,0.1v0.1c-0.2,0.1-0.3,0.3-0.3,0.5l0,0l0,0c0,0-0.1,0.1-0.1,0.2
		c-0.2,0.2-0.4,0.3-0.4,0.4c-0.1,0-0.2,0.1-0.2,0.2c-0.3,0.2-0.4,0.3-0.5,0.4c-0.1,0-0.1,0.1-0.2,0.1L83.9,51
		c-0.1,0.1-0.1,0.1-0.1,0.1c-0.1,0.1-0.2,0.1-0.2,0.1v0.1h0.1c0,0,0.1,0,0.1,0.1c0.1,0,0.1,0,0.1,0l0,0c0,0,0,0,0.1,0s0.1,0,0.1,0
		s0,0,0.1,0.1c0.1,0,0.1,0,0.1,0s0,0,0.1,0c0,0,0,0,0,0.1h0.1c0.1,0.1,0.1,0.1,0.2,0.1c0,0,0.1,0.1,0.2,0.1c0.1,0.1,0.2,0.1,0.2,0.1
		h0.1c0,0,0,0,0.1,0s0,0,0.1,0h0.1c0,0,0,0.1,0.1,0.1c0.1,0.1,0.1,0.1,0.2,0.1c0,0.1,0.1,0.1,0.3,0.1c0.1,0.1,0.2,0.2,0.3,0.2
		c0,0,0.1,0.1,0.1,0.2c0.2,0.1,0.3,0.2,0.5,0.3h0.1c0.2,0.1,0.3,0.2,0.3,0.2s0.1,0.1,0.2,0.1s0.1,0.1,0.1,0.1s0.1,0,0.2,0.1
		c0.1,0,0.1,0.1,0.2,0.1c0.1,0.1,0.2,0.2,0.4,0.3c0.2,0.1,0.3,0.2,0.4,0.3H89c0,0,0.1,0,0.1,0.1c0.1,0.1,0.1,0.1,0.1,0.1s0,0,0.1,0
		c0,0,0,0,0.1,0c0,0.1,0.1,0.1,0.3,0.3c0.1,0,0.1,0,0.2,0s0.2,0,0.2,0c0.1,0,0.2,0.1,0.2,0.1l0.1-0.1c0,0,0,0,0.1,0.1
		c0.1,0,0.2,0,0.3,0.1c0.1,0.1,0.1,0.1,0.1,0.2c0,0,0,0,0,0.1H91c0,0,0,0.1,0.1,0.2c0,0.1,0.1,0.1,0.1,0.2v0.1c0,0,0,0,0,0.1v0.1
		l0.1,0.1c0.1,0.1,0.1,0.1,0.1,0.1s0,0.1,0,0.2c0,0.2,0.1,0.3,0,0.3c0,0,0,0.1,0.1,0.1c0,0.1,0,0.2,0,0.3s0,0.2,0,0.3h-0.3l-0.1,0.1
		L91,57.4l0,0h-0.1c0,0,0.1,0.1,0,0.1c0,0,0,0-0.1,0s-0.1,0-0.1,0l0,0l0,0h-0.1l-0.1-0.1c0,0-0.1,0-0.1,0.1c-0.1,0.1-0.1,0.1-0.2,0
		S90,57.3,90,57.3s0,0-0.1,0h-0.1c0-0.1,0-0.1-0.1-0.2c0,0,0,0-0.1,0l0,0c0,0,0,0,0-0.1c0,0-0.1-0.1-0.2-0.2c0,0,0,0-0.1,0h-0.1
		c-0.1-0.1-0.2-0.3-0.3-0.3h-0.1l-0.1-0.1c-0.1-0.1-0.2-0.2-0.3-0.2l-0.1-0.1c-0.1,0-0.1-0.1-0.1-0.1s-0.1,0.1-0.1,0c0,0,0,0,0-0.1
		v-0.1H88c-0.1,0-0.1,0-0.1,0c0-0.1-0.1-0.1-0.2-0.1v-0.1c-0.1-0.1-0.2-0.2-0.2-0.3c0,0-0.2-0.1-0.4-0.3l0,0l0,0
		c0,0-0.1-0.1-0.2-0.2c-0.1,0-0.2-0.1-0.3-0.2c0,0,0,0-0.1,0c0,0,0,0-0.1,0c0,0,0,0,0-0.1v-0.1c0,0,0,0-0.1,0c0,0,0,0-0.1,0
		c0,0-0.1,0-0.2-0.1l-0.1-0.1c0,0,0,0-0.1-0.1c0,0-0.1,0-0.1-0.1c-0.1,0-0.1-0.1-0.3-0.1c-0.1-0.1-0.2-0.1-0.3-0.1H85
		c0-0.1-0.1-0.1-0.2-0.2c0,0-0.1-0.1-0.3-0.2c0,0,0,0-0.1,0l0,0l0,0l0,0c0,0,0,0-0.1,0h-0.1c-0.1,0-0.1,0-0.2,0c0,0-0.1,0-0.1-0.1
		s-0.1-0.1-0.1-0.1c-0.1,0-0.1,0.1-0.1,0l0,0v-0.1c0,0,0,0-0.1,0c0,0,0,0-0.1,0c0,0,0,0,0-0.1l0,0H83l-0.1-0.1c0,0-0.1,0-0.2-0.1
		c-0.1,0-0.1-0.1-0.2,0l-0.1-0.1c-0.1,0-0.1-0.1-0.1-0.1c-0.1,0-0.1,0-0.2-0.1c-0.1,0-0.2,0-0.3-0.1c0,0-0.1,0-0.2,0.1l0,0
		c0,0,0,0,0-0.1c0,0-0.1,0-0.2,0l0,0l0,0c-0.2-0.1-0.3-0.2-0.4-0.1c-0.1-0.1-0.2-0.2-0.3-0.2c0,0-0.1,0-0.2-0.1c0,0-0.1,0-0.1-0.1
		c0,0-0.1,0.1-0.1,0.2c0,0.1,0,0.2,0,0.3c0,0,0,0,0,0.1l0,0c0,0,0,0,0,0.1v0.1c0,0.3,0,0.4,0.1,0.5v0.3v0.1c0,0,0,0.1,0.1,0.1v0.1
		c0,0.1,0,0.1,0,0.1s0,0.1,0.1,0.1c0,0,0,0.1,0.1,0.1c0,0,0,0.1,0,0.2c0,0.1,0,0.2,0,0.2l0,0l0,0c0,0.2,0,0.3,0,0.3
		c0,0.1,0,0.1,0.1,0.3c0,0,0,0.1,0,0.2c0,0.1,0,0.2,0,0.2s0,0,0.1,0c0,0,0,0,0,0.1c0,0,0,0.1-0.1,0.2c0,0,0,0,0,0.1c0,0,0,0.1,0,0.3
		c0,0.1,0,0.2,0,0.4s0,0.3,0,0.3s0,0,0,0.1l0,0c0,0,0,0,0,0.1c0,0-0.1,0.1-0.1,0.2c0,0.1-0.1,0.1-0.1,0.1s-0.1,0-0.2,0
		c-0.2,0-0.3,0.1-0.3,0.3l0,0l0,0c0,0,0,0,0,0.1l0,0c0,0,0,0,0-0.1c0,0-0.1,0-0.2,0s-0.1,0.1-0.1,0.1c0-0.1,0-0.1-0.1-0.2
		c-0.1,0-0.2-0.1-0.3-0.3h-0.1h-0.1c0-0.1,0-0.2-0.1-0.3s-0.2-0.1-0.2-0.2l0,0l0,0c0-0.1,0-0.1,0.1-0.2v-0.1v-0.1c0,0,0,0,0-0.1
		c0,0,0,0-0.1-0.1c0,0,0,0-0.1,0c0,0,0-0.1,0.1-0.1c0.1-0.2,0.1-0.3,0-0.3V56c0,0,0.1-0.1,0.1-0.2c0-0.1,0-0.2-0.1-0.2
		c0-0.1,0-0.2,0-0.3s0-0.2,0-0.2s0-0.1-0.1-0.1c0,0,0-0.1,0-0.3c0-0.1,0-0.2-0.1-0.3c0,0,0-0.1,0-0.2c0-0.1,0-0.1,0-0.2v-0.1v-0.1
		c0,0,0-0.1,0-0.2c0-0.1,0-0.2,0-0.3c0,0,0-0.1-0.1-0.2c0-0.1,0-0.1-0.1-0.1c0,0,0-0.1,0-0.3c0-0.1,0-0.2,0-0.2c0-0.1,0-0.1-0.1-0.2
		c0,0,0-0.1,0-0.3c0,0,0,0,0-0.1c0,0,0,0,0-0.1v-0.1c0-0.1,0-0.1,0-0.1s0,0,0-0.1l0,0c0-0.1,0-0.1,0-0.3c0-0.1,0-0.2,0-0.2
		s0-0.1-0.1-0.1c0,0,0-0.1,0-0.2c0-0.1,0-0.1,0-0.2v-0.1v-0.1v-0.1v-0.1V50c0,0,0,0,0-0.1c0,0,0,0,0-0.1s-0.1-0.1-0.2-0.1v-0.1l0,0
		l0,0v-0.1c0,0,0-0.1,0-0.3c0-0.1,0-0.3,0-0.3L78,48.8c0,0,0,0,0-0.1v-0.1c0,0,0,0,0-0.1c0,0,0,0,0-0.1s-0.1-0.2-0.1-0.2v-0.1
		c0,0,0-0.1,0-0.3c0,0,0-0.1,0-0.2c0-0.1,0-0.1,0-0.1s0,0,0-0.1c0,0,0,0,0-0.1c0,0,0,0,0-0.1l0,0v-0.1c0-0.1,0-0.2,0-0.2
		c0-0.1-0.1-0.2-0.1-0.3s0-0.2,0-0.2l0,0c0,0,0,0-0.1,0c0,0,0,0,0-0.1l0,0c0,0,0-0.1,0-0.2c0-0.1,0-0.2,0-0.2v-0.1
		c0-0.1,0-0.2,0-0.2s0,0-0.1,0l0,0l0,0l0,0c0,0,0-0.1,0-0.2c0-0.1,0-0.2,0-0.2l0,0l0,0v-0.1c0-0.1,0-0.1,0-0.1c-0.1,0-0.2,0-0.3-0.1
		c-0.1,0-0.2,0-0.2,0l-0.2-0.1c0-0.1-0.1-0.1-0.2-0.1l-0.1-0.1c0-0.1-0.1-0.1-0.1-0.2c-0.1-0.1-0.2-0.1-0.2-0.2
		c0-0.1-0.1-0.1-0.1-0.2c0-0.1,0-0.2,0-0.3s0-0.2,0-0.3c0,0,0-0.1,0.1-0.2c0.1-0.1,0.1-0.2,0.1-0.2c0-0.1,0.1-0.1,0.1-0.1l0,0l0,0
		c0,0,0.1,0,0.2,0C76.1,43.1,76.2,43,76.2,43z M79.9,45.4c0,0-0.1,0-0.2,0s-0.2,0-0.3,0c-0.1,0-0.2,0-0.3,0c0,0,0,0.1,0,0.3
		c0,0,0,0,0,0.1v0.1c0,0,0,0.1,0.1,0.2c0,0.1,0.1,0.1,0.1,0.1s0,0,0,0.1c0,0,0,0,0,0.1c0,0,0,0.1,0,0.2c0,0.1,0,0.2,0,0.3
		c0.1,0,0.1,0.1,0.1,0.3c0,0.1,0,0.1,0,0.2v0.1c0,0.1,0,0.1,0,0.1s0,0.1,0,0.2c0,0.1,0,0.1,0,0.1c0,0.1,0,0.2,0,0.2s0,0,0,0.1
		c0,0,0,0,0,0.1c0,0,0,0.1,0,0.2v0.1v0.1c0,0,0,0,0,0.1v0.1c0,0,0,0.1,0,0.2c0,0.1,0,0.2,0,0.2s0,0,0,0.1l0,0c0,0,0,0.1,0,0.2
		c0,0.1,0,0.2,0.1,0.2c-0.1,0.1-0.1,0.2,0,0.3c0,0.1,0,0.1,0.1,0.2c0,0,0.1,0,0.2,0s0.2,0,0.2,0s0,0,0-0.1c0,0,0,0,0.1,0h0.1h0.1
		h0.1c0.1,0,0.2-0.1,0.3-0.1h0.1c0,0,0.1-0.1,0.3-0.1c0.1,0,0.1,0,0.2,0s0.1-0.1,0.2-0.1l0.1-0.1c0,0,0,0,0.1,0s0.1-0.1,0.2-0.1
		c0.1-0.1,0.1-0.1,0.1-0.1c0.1,0,0.2-0.1,0.3-0.2c0.1-0.1,0.2-0.2,0.3-0.2c0.2-0.2,0.3-0.3,0.4-0.3c0-0.1,0.1-0.1,0.1-0.2
		c0.1-0.1,0.1-0.1,0.1-0.1c0.1,0,0.2-0.2,0.3-0.3c0.1-0.2,0.1-0.3,0.2-0.3c0-0.1,0-0.1,0.1-0.2c0.1-0.1,0.1-0.2,0-0.2
		c0.1-0.1,0.2-0.3,0.1-0.4c0,0,0-0.1,0-0.3c0,0-0.1-0.1-0.2-0.1c-0.1-0.1-0.2-0.1-0.2-0.2h-0.1c-0.1,0-0.1,0-0.2,0
		c0-0.1-0.1-0.1-0.2-0.1s-0.1,0-0.1,0s0,0-0.1,0h-0.1c0,0,0,0-0.1,0h-0.1c0,0-0.1,0-0.1-0.1c0,0-0.1-0.1-0.2,0c-0.1,0-0.2,0-0.2,0
		c-0.2-0.1-0.3-0.1-0.3,0c0-0.1-0.2-0.1-0.4-0.1c-0.1,0-0.2,0-0.2,0c-0.1,0-0.2,0-0.2,0s0,0-0.1,0c0,0,0,0-0.1-0.1
		c-0.2,0-0.3,0-0.3,0h-0.1c0,0-0.1,0-0.4,0c0,0,0,0-0.1,0h-0.1C80.2,45.3,80.1,45.3,79.9,45.4z M79.2,45.4c0,0,0,0.1,0,0.3
		c0,0,0,0,0,0.1v0.1c0,0,0,0.1,0.1,0.2c0,0.1,0.1,0.1,0.1,0.1s0,0,0,0.1c0,0,0,0,0,0.1c0,0,0,0.1,0,0.2c0,0.1,0,0.2,0,0.3
		c0.1,0,0.1,0.1,0.1,0.3c0,0.1,0,0.1,0,0.2v0.1c0,0.1,0,0.1,0,0.1s0,0.1,0,0.2c0,0.1,0,0.1,0,0.1c0,0.1,0,0.2,0,0.2s0,0,0,0.1
		c0,0,0,0,0,0.1c0,0,0,0.1,0,0.2v0.1v0.1c0,0,0,0,0,0.1v0.1c0,0,0,0.1,0,0.2c0,0.1,0,0.2,0,0.2s0,0,0,0.1l0,0c0,0,0,0.1,0,0.2
		c0,0.1,0,0.2,0.1,0.2c-0.1,0.1-0.1,0.2,0,0.3c0,0.1,0,0.1,0.1,0.2c0,0,0.1,0,0.2,0s0.2,0,0.2,0s0,0,0-0.1c0,0,0,0,0.1,0h0.1h0.1
		h0.1c0.1,0,0.2-0.1,0.3-0.1h0.1c0,0,0.1-0.1,0.3-0.1c0.1,0,0.1,0,0.2,0s0.1-0.1,0.2-0.1l0.1-0.1c0,0,0,0,0.1,0s0.1-0.1,0.2-0.1
		c0.1-0.1,0.1-0.1,0.1-0.1c0.1,0,0.2-0.1,0.3-0.2c0.1-0.1,0.2-0.2,0.3-0.2c0.2-0.2,0.3-0.3,0.4-0.3c0-0.1,0.1-0.1,0.1-0.2
		c0.1-0.1,0.1-0.1,0.1-0.1c0.1,0,0.2-0.2,0.3-0.3c0.1-0.2,0.1-0.3,0.2-0.3c0-0.1,0-0.1,0.1-0.2c0.1-0.1,0.1-0.2,0-0.2
		c0.1-0.1,0.2-0.3,0.1-0.4c0,0,0-0.1,0-0.3c0,0-0.1-0.1-0.2-0.1c-0.1-0.1-0.2-0.1-0.2-0.2h-0.1c-0.1,0-0.1,0-0.2,0
		c0-0.1-0.1-0.1-0.2-0.1s-0.1,0-0.1,0s0,0-0.1,0h-0.1c0,0,0,0-0.1,0h-0.1c0,0-0.1,0-0.1-0.1c0,0-0.1-0.1-0.2,0c-0.1,0-0.2,0-0.2,0
		c-0.2-0.1-0.3-0.1-0.3,0c0-0.1-0.2-0.1-0.4-0.1c-0.1,0-0.2,0-0.2,0c-0.1,0-0.2,0-0.2,0s0,0-0.1,0c0,0,0,0-0.1-0.1
		c-0.2,0-0.3,0-0.3,0h-0.1c0,0-0.1,0-0.4,0c0,0,0,0-0.1,0h-0.1c-0.1,0-0.2,0-0.3,0c0,0-0.1,0-0.2,0s-0.2,0-0.3,0
		C79.4,45.4,79.3,45.4,79.2,45.4z M90.7,57.2L90.7,57.2C90.7,57.2,90.7,57.3,90.7,57.2C90.7,57.3,90.7,57.3,90.7,57.2L90.7,57.2z
		 M90.7,57.3L90.7,57.3C90.7,57.2,90.7,57.2,90.7,57.3C90.7,57.2,90.7,57.2,90.7,57.3C90.7,57.2,90.7,57.3,90.7,57.3z"/>
</g>
</svg>
