<?xml version="1.0" encoding="utf-8"?>
<!-- Generator: Adobe Illustrator 19.0.1, SVG Export Plug-In . SVG Version: 6.00 Build 0)  -->
<svg version="1.1" id="Layer_1" xmlns="http://www.w3.org/2000/svg" xmlns:xlink="http://www.w3.org/1999/xlink" x="0px" y="0px"
	 viewBox="15 2.5 130 97.5" style="enable-background:new 15 2.5 130 97.5;" xml:space="preserve">
<style type="text/css">
	.st0{fill:#F8CBAD;}
	.st1{fill:#C35B28;}
</style>
<rect x="15" y="2.5" class="st0" width="130" height="97.5"/>
<g>
	<path class="st1" d="M55.8,27.1c3.6-5.6,1,1.7-0.4,4.3c-1.2,2.2-3,4.6-3.7,7c-0.9,3.1-0.9,4.1,0.6,7c0.6,1.1,2,1.9,3.3,1.9
		c4-0.2,6-2.5,9.1-4.9c2.2-1.8,10.5-10.2,12.3-9.8c4.8,1,1.4,8.1,0.4,10c-5.3,10.2-16.7,18.3-16.5,31c0.1,6,3.3,11.9,9.9,11.7
		c15.7-0.6,22.7-29.3,38.9-26.4c4.8,0.9,6.8-6.4,2-7.3c-6.7-1.2-12,0.4-17.2,4.7c-4.7,3.9-8.3,9-12.9,13.1c-1.7,1.6-6.3,6.7-8.4,6.7
		c-6.4,0.1-3.8-6.7-2.4-10c4-9.3,26.9-29,14.1-39.7c-4.7-3.9-9.7-1.6-14,1.4c-1.1,0.8-11.3,9.5-11.6,9.2c1.5,1.3,5.9-8.4,6.4-10.4
		c3.1-12.8-10.5-11.2-15.6-2.9C47.9,27.4,53.5,30.6,55.8,27.1L55.8,27.1z"/>
</g>
</svg>
