<?xml version="1.0" encoding="utf-8"?>
<!-- Generator: Adobe Illustrator 19.0.1, SVG Export Plug-In . SVG Version: 6.00 Build 0)  -->
<svg version="1.1" id="Layer_1" xmlns="http://www.w3.org/2000/svg" xmlns:xlink="http://www.w3.org/1999/xlink" x="0px" y="0px"
	 viewBox="0 0 100 100" style="enable-background:new 0 0 100 100;" xml:space="preserve">
<style type="text/css">
	.st0{fill:#C35B28;}
	.st1{display:none;}
	.st2{display:inline;fill:none;stroke:#231F20;stroke-miterlimit:10;}
</style>
<g id="Layer_1_1_">
	<g>
		<g>
			<path class="st0" d="M38,42.1H28c-2,0-3.6-1.6-3.6-3.6v-7c0-2,1.6-3.6,3.6-3.6l11-0.7l0,0c1.9,0,6.1,2.2,6.1,4.2v7
				C45.1,40.9,39.4,42.1,38,42.1z M39,28.5l-11,0.7c-1.3,0-2.4,1-2.4,2.3v7c0,1.3,1,2.3,2.3,2.3H38c1.7,0,5.8-1.4,5.8-2.3v-7
				C43.8,30.4,40.5,28.5,39,28.5z"/>
		</g>
		<g>
			<path class="st0" d="M71,42.1H57.5c-1.9,0-3.5-1.5-3.6-3.5l-1.3-4.3c-0.4-2.4,0.3-3.8,1-4.6c1.1-1.3,2.7-1.8,3.8-1.8H71
				c1.9,0,3.5,1.6,3.6,3.5l0.8,5c0.2,2.2-0.2,3.6-1,4.6C73.4,42.1,72,42.1,71,42.1z M57.5,29.1c-0.8,0-2.1,0.4-2.8,1.4
				c-0.8,0.9-1,2.1-0.8,3.6l1.3,4.4c0,1.3,1,2.3,2.3,2.3H71c0.9,0,1.8,0,2.5-0.7c0.6-0.6,0.8-1.8,0.7-3.6l-0.8-5.1
				c0-1.3-1-2.3-2.3-2.3H57.5z"/>
		</g>
		<g>
			<path class="st0" d="M41.5,65.5H28c-1.1,0-2.3-0.7-3.1-1.7c-0.9-1.2-1.3-2.7-0.9-4.3l0.5-4.7c0-1.9,1.6-3.5,3.5-3.5l11.5-0.9
				c2-0.2,3.5,0,4.4,0.9c1.1,1,1.1,2.5,1.1,3.5v7C45.1,63.9,43.5,65.5,41.5,65.5z M40.8,51.6c-0.4,0-0.8,0-1.2,0.1L28,52.5
				c-1.3,0-2.4,1-2.4,2.3l-0.5,4.8c-0.3,1.6,0.2,2.7,0.7,3.3c0.7,0.8,1.6,1.2,2.2,1.2h13.5c1.3,0,2.3-1,2.3-2.3v-7
				c0-0.9,0-2-0.7-2.6C42.6,51.8,41.8,51.6,40.8,51.6z"/>
		</g>
		<g>
			<g>
				<path class="st0" d="M65.6,77.6c-0.5-1.1-0.8-3.2-2.1-3.7c-1.8-0.6-3,1.5-4.5,2c-2.9,0.9-2-0.6-1.9-2.4c0.2-1.6,0.3-3.3,0.5-4.9
					c0.4-3.8,0.8-7.7,1.2-11.5c0.1-1.1-1.6-1.1-1.7,0c-0.4,3.8-0.8,7.7-1.2,11.5c-0.2,2.3-1.5,6.3-0.6,8.5c0.4,0.9,1,1.4,2,1.5
					c0.9,0.1,1.8-0.9,2.4-1.2c0.9-0.8,1.9-1.4,3.1-1.7c0.4,0.9,0.8,1.9,1.2,2.8C64.6,79.4,66,78.6,65.6,77.6L65.6,77.6z"/>
			</g>
			<g>
				<path class="st0" d="M70.1,76.7c-0.2-0.4-1.3-2.8-1.2-2.9c0.2-0.7,3.4-1.3,4.1-1.8c0.8-0.7,1.2-1.4,0.9-2.5
					c-0.6-2.3-4.1-4.3-5.7-5.7c-3-2.6-6.1-5.1-9.2-7.5c-0.8-0.7-2,0.5-1.2,1.2c2.7,2.1,5.4,4.3,8.1,6.5c1.8,1.5,7.4,5,4.9,7.2
					c-1,0.9-3,0.7-3.7,2c-0.8,1.6,0.8,2.6,1.4,4C68.9,78.1,70.5,77.7,70.1,76.7L70.1,76.7z"/>
			</g>
		</g>
		<g>
			<path class="st0" d="M71.5,67H73c1.6,0,2.9-1.3,2.9-2.9V52.7c0-1.6-1.3-2.9-2.9-2.9l-14.6-1.2c-3.5,0-5.9,2.5-5.9,4.1v11.4
				c0,1.6,1.3,2.9,2.9,2.9H57l1.2-10.5l11.2,9.3"/>
		</g>
	</g>
</g>
<g id="Layer_2" class="st1">
	<circle class="st2" cx="50" cy="50" r="50"/>
</g>
</svg>
