<?xml version="1.0" encoding="utf-8"?>
<!-- Generator: Adobe Illustrator 19.0.1, SVG Export Plug-In . SVG Version: 6.00 Build 0)  -->
<svg version="1.1" id="Layer_1" xmlns="http://www.w3.org/2000/svg" xmlns:xlink="http://www.w3.org/1999/xlink" x="0px" y="0px"
	 viewBox="0 0 100 100" enable-background="new 0 0 100 100" xml:space="preserve">
<g>
	<path fill="#54813B" d="M13.1,44c0,0,0.1,0,0.1,0.1h0.1c0.1,0,0.1,0,0.1,0s0,0,0.1,0l0,0c0,0,0,0,0.1,0l0,0c0,0.2,0.1,0.2,0.2,0.2
		l0.2,0.2c0,0.1,0,0.1,0.1,0.2c0,0.1,0.1,0.1,0.1,0.1s0.1,0,0.1,0.1s0.1,0.1,0.1,0.1s0,0,0.1,0h0.1c0.1-0.1,0.2-0.1,0.2-0.1
		s0.1,0,0.2,0h0.1c0.1,0,0.1,0,0.1,0s0,0,0.1,0.1l0.1,0.1h0.1c0.1,0,0.1,0,0.1,0s0.1,0,0.1,0.1c0.1,0.1,0.1,0.1,0.2,0.1
		c0,0,0,0.1,0.1,0.1c0.1,0,0.1,0,0.2,0.1s0.1,0.1,0.1,0.1s0,0,0.1,0c0.2,0.2,0.4,0.3,0.5,0.3H17c0,0.1,0,0.1-0.1,0V46
		c0,0.1,0.1,0.2,0.2,0.3s0.2,0.2,0.2,0.4c0,0.1,0.1,0.1,0.1,0.2c0.1,0.2,0.2,0.3,0.2,0.4c0.1,0.1,0.1,0.2,0.1,0.3s0.1,0.1,0.1,0.2
		c0.1,0.1,0.1,0.2,0.1,0.3c0.1,0.2,0.1,0.3,0.1,0.4c0,0,0,0.1,0.1,0.1c0.1,0.1,0.1,0.2,0.1,0.3l0.1,0.1c0,0.1,0,0.1,0.1,0.3
		c0,0.2,0.1,0.4,0.1,0.4c0,0.2,0,0.3,0.1,0.3c0,0,0,0.1,0.1,0.3c0,0,0,0.1,0,0.2c0,0.1,0.1,0.2,0.1,0.2v0.1v0.1c0,0,0,0,0,0.1v0.1
		c0,0.1,0,0.2,0,0.3s0,0.3,0,0.3c0,0.1,0,0.1,0,0.1v0.1c0,0,0,0.1,0.1,0.2c0,0,0,0,0,0.1c0,0,0,0,0,0.1s0.1,0.4,0,0.9
		c0,0.5,0,0.9,0,1c0,0,0,0.1,0,0.2c0,0.1,0,0.2,0,0.2s0,0.1-0.1,0.2c0,0.1,0,0.2,0,0.2s0,0.1,0,0.2c0,0.1,0,0.1,0,0.2
		c-0.1,0-0.1,0.1-0.1,0.1c0,0.3,0,0.4,0,0.4V56c0,0,0,0.1-0.1,0.1v0.1c0,0.2-0.1,0.2-0.1,0.3v0.1c0,0,0,0-0.1,0c0,0,0,0,0,0.1
		c0,0,0,0.1-0.1,0.1c0,0.1,0,0.1,0,0.2l-0.2,0c0,0.1-0.1,0.2-0.1,0.4c-0.1,0.2-0.1,0.3-0.1,0.4c-0.1,0.1-0.1,0.3-0.1,0.4
		c0,0-0.1,0-0.1,0.1s0,0.1-0.1,0.2c0,0.1-0.1,0.2-0.1,0.3c-0.1,0-0.1,0.1-0.1,0.2c0,0.1-0.1,0.2-0.1,0.2s-0.1,0.1-0.1,0.2
		c0,0.1-0.1,0.2-0.1,0.2c0,0.1,0,0.1-0.1,0.2c-0.1,0.1-0.3,0.2-0.4,0.4c-0.1,0.1-0.1,0.2-0.1,0.2c0,0.1-0.1,0.2-0.2,0.2
		c-0.1,0.1-0.2,0.2-0.2,0.2l0,0l0,0L16,60.9c0,0.1-0.1,0.1-0.1,0.1c-0.1,0-0.1,0-0.2,0.1c0,0-0.1,0-0.2,0.1h-0.1h-0.1
		c0,0-0.1,0.1-0.1,0.2c-0.1,0-0.2,0-0.2,0c0,0.1-0.1,0.1-0.2,0.1c-0.1,0-0.2,0.1-0.2,0.2c-0.1,0-0.2,0-0.5,0s-0.4,0-0.5,0
		c0,0-0.1,0-0.2,0c-0.1,0-0.2,0-0.2,0s0-0.1-0.1-0.2c-0.1,0-0.1,0-0.1,0.1s0,0.1-0.1,0.1c0,0,0,0,0-0.1l0,0c0,0,0,0-0.1-0.1
		l-0.1-0.1c-0.1,0.1-0.2,0-0.3-0.1C12,61,11.9,61,11.8,61v-0.1c0,0-0.1,0-0.2-0.1c-0.1-0.1-0.2-0.1-0.3-0.1v-0.1c0,0,0-0.1-0.1-0.1
		c0-0.1-0.1-0.1-0.1-0.1s-0.1,0-0.1-0.1c0,0,0,0,0-0.1c0,0,0,0,0-0.1s0,0,0,0l0,0l0,0l0,0c0,0,0,0-0.1-0.1c0,0,0,0-0.1-0.1
		c0-0.1-0.1-0.1-0.1-0.1h-0.1c0-0.1-0.1-0.1-0.2-0.3c-0.1-0.1-0.1-0.2-0.2-0.3h-0.1c-0.2-0.3-0.3-0.5-0.3-0.6c0,0-0.1-0.1-0.2-0.3
		v-0.1c0,0,0-0.1-0.1-0.1C9.5,58,9.4,58,9.4,58c0-0.2-0.1-0.5-0.2-0.7c0-0.1,0-0.2-0.1-0.2c0-0.1,0-0.1,0-0.1s0,0,0-0.1v-0.1v-0.1
		c0,0,0-0.1-0.1-0.1c0,0,0-0.2,0-0.4v-0.1V56c0,0,0,0-0.1-0.1v-0.1c0-0.1,0-0.2,0-0.3s0-0.3,0-0.3s0,0-0.1-0.1c0,0,0-0.1,0-0.2v-0.1
		v-0.1c0-0.1,0-0.1,0-0.1c0-0.1-0.1-0.1-0.1-0.2v-0.1v-0.1c0-0.1,0-0.2-0.1-0.3c0,0,0-0.1,0-0.2v-0.1l0.1-0.2c0-0.1,0-0.2,0-0.5
		s0-0.5,0-0.6s0-0.1,0-0.2c0-0.1,0-0.1,0-0.1c0-0.1,0-0.2,0-0.3c0-0.2,0-0.3,0-0.4c0-0.1,0-0.2,0.1-0.2V51v-0.1v-0.1
		c0,0,0-0.1,0.1-0.1c0,0,0-0.1,0-0.4s0-0.3,0-0.4c0-0.3,0-0.5,0-0.5s0.1,0,0.1-0.1s0.1-0.1,0.1-0.1c0-0.1,0-0.1,0-0.1V49
		c0,0,0-0.1,0.1-0.1v-0.1c0-0.1,0-0.1,0-0.1c0-0.1,0.1-0.1,0.1-0.1c0-0.1,0-0.2,0-0.3c0-0.2,0-0.2,0-0.3c0,0,0,0,0.1,0h0.1
		c0-0.1,0-0.1,0-0.1s0,0,0-0.1l0.1-0.2c0,0,0-0.1,0.1-0.2c0-0.1,0.1-0.2,0.1-0.2s0,0,0-0.1c0,0,0,0,0-0.1c0.1-0.1,0.1-0.2,0.1-0.3
		c0,0,0.1-0.1,0.1-0.2c0-0.1,0.1-0.1,0.1-0.2c0-0.1,0-0.2,0.1-0.3s0.1-0.2,0.1-0.2v-0.1v-0.1c0-0.1,0-0.1,0.1-0.2
		c0.1-0.1,0.1-0.2,0.1-0.2c0.1,0,0.1-0.1,0.2-0.3c0.1,0,0.1-0.1,0.1-0.3c0-0.1,0-0.1,0-0.2c0.1,0.1,0.1,0,0.2-0.1l0.1-0.1h0.1
		l0.1-0.1c0-0.1,0.1-0.1,0.1-0.1c0.1,0,0.2-0.1,0.3-0.3c0.1,0,0.1,0,0.2-0.1c0.1-0.1,0.1-0.1,0.1-0.1l0,0c0,0,0,0,0-0.1
		c0,0.1,0.1,0,0.3-0.1c0,0,0.1,0,0.2,0c0.1,0,0.2,0,0.2,0s0.1,0,0.2,0S13,44,13.1,44z M12.7,44c0,0,0.1,0,0.2,0s0.2,0,0.2,0
		s0.1,0,0.1,0.1h0.1c0.1,0,0.1,0,0.1,0s0,0,0.1,0l0,0c0,0,0,0,0.1,0l0,0c0,0.2,0.1,0.2,0.2,0.2l0.2,0.2c0,0.1,0,0.1,0.1,0.2
		c0,0.1,0.1,0.1,0.1,0.1s0.1,0,0.1,0.1s0.1,0.1,0.1,0.1s0,0,0.1,0h0.1c0.1-0.1,0.2-0.1,0.2-0.1s0.1,0,0.2,0h0.1c0.1,0,0.1,0,0.1,0
		s0,0,0.1,0.1l0.1,0.1h0.1c0.1,0,0.1,0,0.1,0s0.1,0,0.1,0.1c0.1,0.1,0.1,0.1,0.2,0.1c0,0,0,0.1,0.1,0.1s0.1,0,0.2,0.1
		s0.1,0.1,0.1,0.1s0,0,0.1,0c0.2,0.2,0.4,0.3,0.5,0.3H17c0,0.1,0,0.1-0.1,0V46c0,0.1,0.1,0.2,0.2,0.3s0.2,0.2,0.2,0.4
		c0,0.1,0.1,0.1,0.1,0.2c0.1,0.2,0.2,0.3,0.2,0.4c0.1,0.1,0.1,0.2,0.1,0.3s0.1,0.1,0.1,0.2c0.1,0.1,0.1,0.2,0.1,0.3
		c0.1,0.2,0.1,0.3,0.1,0.4c0,0,0,0.1,0.1,0.1c0.1,0.1,0.1,0.2,0.1,0.3l0.1,0.1c0,0.1,0,0.1,0.1,0.3c0,0.2,0.1,0.4,0.1,0.4
		c0,0.2,0,0.3,0.1,0.3c0,0,0,0.1,0.1,0.3c0,0,0,0.1,0,0.2c0,0.1,0.1,0.2,0.1,0.2v0.1v0.1c0,0,0,0,0,0.1v0.1c0,0.1,0,0.2,0,0.3
		s0,0.3,0,0.3c0,0.1,0,0.1,0,0.1v0.1c0,0,0,0.1,0.1,0.2c0,0,0,0,0,0.1c0,0,0,0,0,0.1s0.1,0.4,0,0.9c0,0.5,0,0.9,0,1c0,0,0,0.1,0,0.2
		c0,0.1,0,0.2,0,0.2s0,0.1-0.1,0.2c0,0.1,0,0.2,0,0.2s0,0.1,0,0.2c0,0.1,0,0.1,0,0.2c-0.1,0-0.1,0.1-0.1,0.1c0,0.3,0,0.4,0,0.4V56
		c0,0,0,0.1-0.1,0.1v0.1c0,0.2-0.1,0.2-0.1,0.3v0.1c0,0,0,0-0.1,0c0,0,0,0,0,0.1c0,0,0,0.1-0.1,0.1c0,0.1,0,0.1,0,0.2l-0.2,0
		c0,0.1-0.1,0.2-0.1,0.4c-0.1,0.2-0.1,0.3-0.1,0.4c-0.1,0.1-0.1,0.3-0.1,0.4c0,0-0.1,0-0.1,0.1s0,0.1-0.1,0.2c0,0.1-0.1,0.2-0.1,0.3
		c-0.1,0-0.1,0.1-0.1,0.2c0,0.1-0.1,0.2-0.1,0.2s-0.1,0.1-0.1,0.2c0,0.1-0.1,0.2-0.1,0.2c0,0.1,0,0.1-0.1,0.2
		c-0.1,0.1-0.3,0.2-0.4,0.4c-0.1,0.1-0.1,0.2-0.1,0.2c0,0.1-0.1,0.2-0.2,0.2c-0.1,0.1-0.2,0.2-0.2,0.2l0,0l0,0L16,60.9
		c0,0.1-0.1,0.1-0.1,0.1c-0.1,0-0.1,0-0.2,0.1c0,0-0.1,0-0.2,0.1h-0.1h-0.1c0,0-0.1,0.1-0.1,0.2c-0.1,0-0.2,0-0.2,0
		c0,0.1-0.1,0.1-0.2,0.1c-0.1,0-0.2,0.1-0.2,0.2c-0.1,0-0.2,0-0.5,0s-0.4,0-0.5,0c0,0-0.1,0-0.2,0c-0.1,0-0.2,0-0.2,0s0-0.1-0.1-0.2
		c-0.1,0-0.1,0-0.1,0.1s0,0.1-0.1,0.1c0,0,0,0,0-0.1l0,0c0,0,0,0-0.1-0.1l-0.1-0.1c-0.1,0.1-0.2,0-0.3-0.1C12,61,11.9,61,11.8,61
		v-0.1c0,0-0.1,0-0.2-0.1c-0.1-0.1-0.2-0.1-0.3-0.1v-0.1c0,0,0-0.1-0.1-0.1c0-0.1-0.1-0.1-0.1-0.1s-0.1,0-0.1-0.1c0,0,0,0,0-0.1
		c0,0,0,0,0-0.1s0,0,0,0l0,0l0,0l0,0c0,0,0,0-0.1-0.1c0,0,0,0-0.1-0.1c0-0.1-0.1-0.1-0.1-0.1h-0.1c0-0.1-0.1-0.1-0.2-0.3
		c-0.1-0.1-0.1-0.2-0.2-0.3h-0.1c-0.2-0.3-0.3-0.5-0.3-0.6c0,0-0.1-0.1-0.2-0.3v-0.1c0,0,0-0.1-0.1-0.1C9.5,58,9.4,58,9.4,58
		c0-0.2-0.1-0.5-0.2-0.7c0-0.1,0-0.2-0.1-0.2c0-0.1,0-0.1,0-0.1s0,0,0-0.1v-0.1v-0.1c0,0,0-0.1-0.1-0.1c0,0,0-0.2,0-0.4v-0.1V56
		c0,0,0,0-0.1-0.1v-0.1c0-0.1,0-0.2,0-0.3s0-0.3,0-0.3s0,0-0.1-0.1c0,0,0-0.1,0-0.2v-0.1v-0.1c0-0.1,0-0.1,0-0.1
		c0-0.1-0.1-0.1-0.1-0.2v-0.1v-0.1c0-0.1,0-0.2-0.1-0.3c0,0,0-0.1,0-0.2v-0.1l0.1-0.2c0-0.1,0-0.2,0-0.5s0-0.5,0-0.6s0-0.1,0-0.2
		c0-0.1,0-0.1,0-0.1c0-0.1,0-0.2,0-0.3c0-0.2,0-0.3,0-0.4c0-0.1,0-0.2,0.1-0.2V51v-0.1v-0.1c0,0,0-0.1,0.1-0.1c0,0,0-0.1,0-0.4
		s0-0.3,0-0.4c0-0.3,0-0.5,0-0.5s0.1,0,0.1-0.1s0.1-0.1,0.1-0.1c0-0.1,0-0.1,0-0.1V49c0,0,0-0.1,0.1-0.1v-0.1c0-0.1,0-0.1,0-0.1
		c0-0.1,0.1-0.1,0.1-0.1c0-0.1,0-0.2,0-0.3c0-0.2,0-0.2,0-0.3c0,0,0,0,0.1,0h0.1c0-0.1,0-0.1,0-0.1s0,0,0-0.1l0.1-0.2
		c0,0,0-0.1,0.1-0.2c0-0.1,0.1-0.2,0.1-0.2s0,0,0-0.1c0,0,0,0,0-0.1c0.1-0.1,0.1-0.2,0.1-0.3c0,0,0.1-0.1,0.1-0.2
		c0-0.1,0.1-0.1,0.1-0.2c0-0.1,0-0.2,0.1-0.3s0.1-0.2,0.1-0.2v-0.1v-0.1c0-0.1,0-0.1,0.1-0.2c0.1-0.1,0.1-0.2,0.1-0.2
		c0.1,0,0.1-0.1,0.2-0.3c0.1,0,0.1-0.1,0.1-0.3c0-0.1,0-0.1,0-0.2c0.1,0.1,0.1,0,0.2-0.1l0.1-0.1h0.1l0.1-0.1c0-0.1,0.1-0.1,0.1-0.1
		c0.1,0,0.2-0.1,0.3-0.3c0.1,0,0.1,0,0.2-0.1c0.1-0.1,0.1-0.1,0.1-0.1l0,0c0,0,0,0,0-0.1c0,0.1,0.1,0,0.3-0.1c0,0,0.1,0,0.2,0
		C12.6,43.9,12.6,44,12.7,44z M13,46.4c-0.1,0.1-0.3,0.2-0.4,0.3s-0.2,0.2-0.3,0.3s-0.2,0.3-0.2,0.4c0,0,0,0.1-0.1,0.1
		c0,0.1-0.1,0.1-0.1,0.1v0.1v0.1v0.1c0,0-0.1,0.1-0.1,0.4c0,0.1,0,0.1-0.1,0.2c0,0.1-0.1,0.1-0.1,0.1c0,0.1,0,0.1,0,0.1
		s0,0.1-0.1,0.1v0.1c0,0.1,0,0.1,0,0.1v0.1c-0.1,0.1-0.1,0.1,0,0.2c-0.1,0.1-0.1,0.2-0.1,0.4c-0.1,0.1-0.1,0.3-0.1,0.5
		c-0.1,0.1-0.1,0.2-0.1,0.4c-0.1,0.2-0.1,0.4-0.1,0.6c0,0,0,0,0,0.1c0,0,0,0,0,0.1s0,0.2,0,0.3s0,0.2,0,0.3S11,52.2,11,52.5v0.1
		c0,0.1,0,0.1,0,0.1v0.1v0.1c0,0.1,0.1,0.1,0.1,0.2c0,0.1,0,0.2,0,0.4c0,0.1,0,0.3,0,0.3v0.1V54l0.1,0.1c0,0.1,0,0.2,0,0.4v0.1v0.1
		v0.1v0.1c0,0.1,0,0.2,0,0.3v0.1c0,0,0,0,0,0.1l0,0c0,0,0,0,0,0.1s0,0.2,0,0.2c0,0.1,0,0.1,0,0.2c0,0.1,0,0.1,0,0.1s0,0,0,0.1v0.1
		c0,0,0,0,0,0.1v0.1v0.1v0.1c0,0,0,0,0,0.1v0.1c0,0,0,0,0,0.1c0,0,0,0.1,0.1,0.1v0.1c-0.1,0.1,0,0.2,0.1,0.4v0.1c0,0,0,0.1,0.1,0.1
		l0.1,0.1l0.1,0.2c0.1,0.1,0.1,0.2,0.3,0.4c0.1,0.2,0.2,0.3,0.2,0.3h0.1c0.1,0.3,0.3,0.4,0.4,0.4c0.1,0.1,0.1,0.1,0.1,0.1h0.1
		c0.1,0,0.1,0,0.1,0s0,0.1,0.1,0.1l0.1,0.1c0,0,0,0,0.1,0c0,0,0,0,0.1,0c0,0,0,0,0.1,0h0.1c0.1,0,0.3,0,0.4,0c0,0,0.1,0,0.1-0.1
		s0.1-0.1,0.1-0.1c0.1,0,0.1,0,0.1,0s0,0,0.1-0.1c0,0,0-0.1,0.1-0.1h0.1c0.1-0.1,0.1-0.1,0.2-0.1c0.1-0.1,0.2-0.2,0.3-0.3
		c0.1-0.2,0.3-0.3,0.3-0.3v-0.1v-0.1c0,0,0,0,0-0.1s0.1-0.1,0.1-0.2c0.1-0.1,0.1-0.1,0.1-0.1s0-0.1,0.1-0.2c0-0.1,0.1-0.2,0.1-0.2
		s0-0.1,0.1-0.1l0.1-0.1c0.1-0.1,0.1-0.2,0.1-0.2v-0.1c0,0,0.1-0.2,0.2-0.4c0,0,0-0.1,0.1-0.1c0,0,0-0.2,0.1-0.4
		c0-0.1,0-0.1,0.1-0.2v-0.1c0,0,0,0,0-0.1c0,0,0,0,0.1-0.1v-0.1c0-0.1,0-0.1,0-0.1c0.1-0.1,0.1-0.3,0.2-0.7v-0.2v-0.1
		c0-0.1,0-0.1,0-0.1C17,54,17,54,17,53.9v-0.1v-0.1c0-0.1,0-0.1,0.1-0.2c0-0.1,0.1-0.1,0.1-0.2c0-0.1,0-0.1,0-0.2c0-0.1,0-0.2,0-0.2
		v-0.1v-0.1c0,0,0-0.1-0.1-0.1v-0.1c0.1-0.1,0.1-0.1,0.1-0.1v-0.1v-0.1c0-0.1,0-0.1,0-0.2c0-0.1,0-0.2,0-0.2v-0.1v-0.1
		c0,0,0-0.1-0.1-0.1c0-0.1,0-0.1,0-0.1v-0.1c0-0.1,0-0.1,0-0.2c0-0.1,0-0.1,0-0.1v-0.1v-0.1c0-0.1,0-0.1,0-0.1c0-0.1,0-0.1,0-0.1
		c-0.1,0-0.1-0.1-0.1-0.3s0-0.3-0.1-0.3c0,0,0-0.1,0-0.2c0-0.1,0-0.2,0-0.2c-0.1-0.1-0.1-0.2-0.1-0.3c-0.2-0.5-0.5-0.9-0.8-1.4h-0.1
		c0-0.1-0.1-0.2-0.2-0.2h-0.1l-0.1-0.1c0,0,0-0.1-0.1-0.1c-0.1-0.1-0.1-0.1-0.2-0.1h-0.1c-0.1,0-0.1,0-0.1,0
		c-0.1-0.1-0.1-0.1-0.2-0.1c0,0-0.1,0-0.2,0c-0.1,0-0.1,0-0.2,0c-0.1-0.2-0.2-0.2-0.3-0.2c0-0.1,0-0.2,0-0.2v-0.1v-0.1
		c0-0.1,0-0.1-0.1-0.1h-0.1c0-0.1,0-0.2-0.1-0.2s-0.2,0-0.3,0C13.2,46.4,13.1,46.4,13,46.4z M13.6,46.4c-0.1,0-0.2,0-0.3,0
		s-0.2,0-0.3,0c-0.1,0.1-0.3,0.2-0.4,0.3s-0.2,0.2-0.3,0.3s-0.2,0.3-0.2,0.4c0,0,0,0.1-0.1,0.1c0,0.1-0.1,0.1-0.1,0.1v0.1v0.1v0.1
		c0,0-0.1,0.1-0.1,0.4c0,0.1,0,0.1-0.1,0.2c0,0.1-0.1,0.1-0.1,0.1c0,0.1,0,0.1,0,0.2c0,0,0,0.1-0.1,0.1V49c0,0.1,0,0.1,0,0.1v0.1
		c-0.1,0.1-0.1,0.1,0,0.2c-0.1,0.1-0.1,0.2-0.1,0.4c-0.1,0.1-0.1,0.3-0.1,0.5c-0.1,0.1-0.1,0.2-0.1,0.4c-0.1,0.2-0.1,0.4-0.1,0.6
		c0,0,0,0,0,0.1c0,0,0,0,0,0.1s0,0.2,0,0.3s0,0.2,0,0.3S11,52.3,11,52.6v0.1c0,0.1,0,0.1,0,0.1v0.1V53c0,0.1,0.1,0.1,0.1,0.2
		c0,0.1,0,0.2,0,0.4c0,0.1,0,0.3,0,0.3V54v0.1l0.1,0.1c0,0.1,0,0.2,0,0.4v0.1v0.1v0.1V55c0,0.1,0,0.2,0,0.3v0.1c0,0,0,0,0,0.1l0,0
		c0,0,0,0,0,0.1s0,0.2,0,0.2c0,0.1,0,0.1,0,0.2c0,0.1,0,0.1,0,0.1s0,0,0,0.1v0.1c0,0,0,0,0,0.1v0.1v0.1v0.1c0,0,0,0,0,0.1v0.1
		c0,0,0,0,0,0.1c0,0,0,0.1,0.1,0.1v0.1c-0.1,0.1,0,0.2,0.1,0.4v0.1c0,0,0,0.1,0.1,0.1l0.1,0.1l0.1,0.2c0.1,0.1,0.1,0.2,0.3,0.4
		c0.1,0.2,0.2,0.3,0.2,0.3h0.1c0.1,0.3,0.3,0.4,0.4,0.4c0.1,0.1,0.1,0.1,0.1,0.1h0.1c0.1,0,0.1,0,0.1,0s0,0.1,0.1,0.1l0.1,0.1
		c0,0,0,0,0.1,0c0,0,0,0,0.1,0c0,0,0,0,0.1,0h0.1c0.1,0,0.3,0,0.4,0c0,0,0.1,0,0.1-0.1s0.1-0.1,0.1-0.1c0.1,0,0.1,0,0.1,0
		s0,0,0.1-0.1c0,0,0-0.1,0.1-0.1h0.1c0.1-0.1,0.1-0.1,0.2-0.1c0.1-0.1,0.2-0.2,0.3-0.3c0.1-0.2,0.3-0.3,0.3-0.3v-0.1v-0.1
		c0,0,0,0,0-0.1s0.1-0.1,0.1-0.2c0.1-0.1,0.1-0.1,0.1-0.1s0-0.1,0.1-0.2c0-0.1,0.1-0.2,0.1-0.2s0-0.1,0.1-0.1l0.1-0.1
		c0.1-0.1,0.1-0.2,0.1-0.2v-0.1c0,0,0.1-0.2,0.2-0.4c0,0,0-0.1,0.1-0.1c0,0,0-0.2,0.1-0.4c0-0.1,0-0.1,0.1-0.2v-0.1c0,0,0,0,0-0.1
		c0,0,0,0,0.1-0.1v-0.1c0-0.1,0-0.1,0-0.1c0.1-0.1,0.1-0.3,0.2-0.7v-0.2v-0.1c0-0.1,0-0.1,0-0.1C17,54.1,17,54.1,17,54v-0.1v-0.1
		c0-0.1,0-0.1,0.1-0.2c0-0.1,0.1-0.1,0.1-0.2c0-0.1,0-0.1,0-0.2c0-0.1,0-0.2,0-0.2v-0.1v-0.1c0,0,0-0.1-0.1-0.1v-0.1
		c0.1-0.1,0.1-0.1,0.1-0.1v-0.1v-0.1c0-0.1,0-0.1,0-0.2c0-0.1,0-0.2,0-0.2v-0.1v-0.1c0,0,0-0.1-0.1-0.1c0-0.1,0-0.1,0-0.1v-0.1
		c0-0.1,0-0.1,0-0.2c0-0.1,0-0.1,0-0.1V51v-0.1c0-0.1,0-0.1,0-0.1c0-0.1,0-0.1,0-0.1c-0.1,0-0.1-0.1-0.1-0.3s0-0.3-0.1-0.3
		c0,0,0-0.1,0-0.2c0-0.1,0-0.2,0-0.2c-0.1-0.1-0.1-0.2-0.1-0.3c-0.2-0.5-0.5-0.9-0.8-1.4h-0.1c0-0.1-0.1-0.2-0.2-0.2h-0.1l-0.1-0.1
		c0,0,0-0.1-0.1-0.1c-0.1-0.1-0.1-0.1-0.2-0.1h-0.1c-0.1,0-0.1,0-0.1,0c-0.1-0.1-0.1-0.1-0.2-0.1c0,0-0.1,0-0.2,0
		c-0.1,0-0.1,0-0.2,0c-0.1-0.2-0.2-0.2-0.3-0.2c0-0.1,0-0.2,0-0.2v-0.1v-0.1c0-0.1,0-0.1-0.1-0.1h-0.1
		C13.7,46.5,13.7,46.4,13.6,46.4z"/>
	<path fill="#54813B" d="M21.3,43c0.1,0,0.2,0,0.3,0.1h0.1c0,0.1,0.1,0.1,0.1,0.1s0,0,0.1,0c0,0,0,0,0.1,0c0,0,0.1,0,0.2,0
		s0.1,0,0.2,0h0.1c0,0,0,0,0.1,0l0,0c0,0,0,0,0.1,0h0.1c0,0,0,0,0.1,0H23c0,0,0,0,0.1,0c0,0,0,0,0.1,0c0.2,0.1,0.2,0.1,0.3,0.1
		c0-0.1,0.1-0.1,0.1-0.1c0,0.1,0.1,0.2,0.1,0.2c0.1,0.1,0.2,0.1,0.3,0c0-0.1,0.1-0.1,0.1-0.1s0,0.1,0.1,0.2c0,0,0.1,0,0.2,0.1
		c0.1,0,0.2,0,0.2,0.1l0,0l0,0l0.1,0.1H25c0,0,0.1,0.1,0.2,0.1s0.2,0.1,0.2,0.1c0.1,0,0.2,0,0.3,0c0.2,0,0.3,0,0.3,0v0.1
		c0,0,0,0,0.1,0s0.2,0,0.3-0.1c0,0,0,0,0,0.1l0,0c0,0,0.1,0.1,0.2,0.1s0.2,0.1,0.2,0.1h0.1c0.1,0,0.1,0,0.1,0s0,0,0.1,0
		c0,0,0,0,0.1,0v0.1c0,0.1,0.1,0.1,0.2,0.1h0.1l0.1,0.1c0.1,0,0.1,0,0.2,0s0.2,0,0.2,0s0,0.1,0.1,0.2c0,0.1,0.1,0.1,0.1,0.1h0.1h0.1
		c0,0.2,0.1,0.2,0.2,0.2c0,0.1,0.1,0.1,0.2,0.2c0.1,0.1,0.1,0.1,0.2,0.2c0.1,0,0.2,0,0.2,0.2c0,0.1,0,0.1,0.1,0.1l0,0c0,0,0,0,0.1,0
		c0,0,0.1,0.1,0.1,0.2c0,0.1,0.1,0.1,0.1,0.2c0.1,0.1,0.2,0.1,0.2,0.1v0.1v0.1c0,0.1,0.1,0.1,0.1,0.2c0.1,0,0.1,0.1,0.1,0.1
		s0,0.1,0,0.2c0,0.1,0,0.1,0,0.1l0.1,0.1l0.1,0.1c0,0.1,0,0.2,0.1,0.3c0,0,0,0.1,0,0.3c0,0.1,0,0.2,0.1,0.3c0,0,0,0.1,0,0.2
		c0,0.1,0,0.1,0,0.2c0,0.1,0,0.1,0,0.2s0,0.1,0,0.1c0,0.1,0,0.1,0,0.1s0,0.2,0,0.5c0,0,0,0-0.1,0c0,0.1,0,0.1,0,0.3
		c0,0.1,0,0.1,0,0.2c0,0,0,0.1-0.1,0.1c0,0.1,0,0.2-0.1,0.3S30,50.6,30,50.7c-0.1,0.1-0.2,0.2-0.3,0.6c0,0-0.1,0-0.1,0.1v0.1
		c0,0,0,0-0.1,0.1l0,0c0,0,0,0-0.1,0.1c0,0.1-0.1,0.1-0.1,0.1c-0.1,0-0.2,0.2-0.2,0.5c-0.2,0.1-0.3,0.2-0.3,0.3
		c-0.2,0.2-0.2,0.3-0.3,0.4c0,0.1-0.1,0.1-0.2,0.2c-0.1,0.1-0.1,0.2-0.2,0.2H28l-0.3,0.4h-0.1c0,0-0.1,0.1-0.1,0.2
		c-0.1,0.1-0.2,0.2-0.2,0.2c0,0.1-0.1,0.2-0.2,0.3s-0.2,0.2-0.2,0.2s-0.1,0-0.2,0.1l0,0l0,0c0,0-0.1,0.1-0.2,0.2
		c-0.1,0-0.2,0-0.3,0.1C26,55,26,55,25.9,55l0,0c0,0,0,0-0.1,0l-0.1,0.1c-0.1,0.1-0.1,0.1-0.1,0.1c-0.1,0-0.1,0-0.2,0.1
		c0,0.1-0.1,0.1-0.1,0.1s0,0-0.1,0.1c0,0,0,0-0.1,0H25c0,0.1-0.1,0.2-0.3,0.2c-0.1,0-0.1,0-0.2,0c0,0.1,0,0.2,0,0.3s0,0.2,0,0.2
		s0,0,0,0.1c0,0,0,0,0,0.1v0.1v0.1v0.1v0.1c0,0.1,0,0.2,0,0.4s0,0.3,0,0.3v0.1c0,0.1,0,0.1,0,0.1c0,0.1,0,0.1,0,0.2V58v0.1
		c0,0,0,0,0.1,0.1c0,0,0,0,0,0.1c0,0,0,0.2,0,0.5l0.1,0.1V59c0,0.1,0,0.1,0,0.1c0,0.2,0,0.3,0.1,0.4c0,0,0,0,0.1,0
		c-0.1,0.1-0.1,0.2,0,0.4c0,0.1,0,0.1,0,0.2c0,0,0,0,0.1,0l0,0c0,0.1,0,0.2,0,0.3c-0.1,0.1-0.1,0.2-0.1,0.4s0,0.3,0,0.4h-0.1
		c0,0,0,0-0.1,0c0,0-0.1,0.1,0,0.2c0,0.1,0,0.1,0,0.2c0,0.1-0.1,0.1-0.1,0.2s-0.1,0.1-0.1,0.2c0,0.1,0,0.1-0.1,0.1
		c0-0.1,0-0.2,0-0.2c-0.1,0-0.2,0.1-0.3,0.2C24,62.2,24,62.2,24,62.2c-0.1-0.1-0.1-0.2-0.1-0.2l0,0c0,0,0,0-0.1,0
		c0-0.1,0-0.1-0.1-0.2c0-0.1-0.1-0.1-0.1-0.1s-0.1,0.1-0.1,0.2c-0.1-0.1-0.2-0.2-0.2-0.2c0-0.2-0.1-0.2-0.1-0.3h-0.1
		c-0.1-0.1-0.2-0.2-0.2-0.3s0-0.1,0-0.2v-0.1v-0.1v-0.1c0-0.1,0-0.1,0-0.2c0-0.1,0-0.2,0-0.2s0-0.1-0.1-0.1c0-0.1,0-0.1,0-0.2
		c0-0.1,0-0.1,0-0.2v-0.1c0-0.1,0-0.1,0-0.1c0-0.1,0-0.2,0-0.3c0-0.2,0-0.3,0-0.4c0,0-0.1-0.1-0.1-0.2c0-0.1-0.1-0.2-0.1-0.2v-0.1
		c0,0,0,0,0.1,0s0,0,0,0s0-0.1,0-0.3s0-0.3,0-0.4v-0.1v-0.1c0,0,0-0.1,0-0.2c-0.1,0-0.1-0.1-0.1-0.3s0-0.3,0-0.4v-0.1
		c0-0.2-0.1-0.3-0.1-0.4c0-0.2,0-0.4,0-0.6c0,0-0.1,0-0.1-0.1s-0.1-0.1-0.1-0.1s0,0,0-0.1l0,0c0,0,0-0.1,0-0.2c0-0.1,0-0.2,0-0.2
		s0-0.1-0.1-0.1v-0.1c0.1-0.2,0-0.2-0.1-0.2c0-0.1,0-0.2,0.1-0.2c0-0.2-0.1-0.4-0.1-0.4v-0.1c0,0,0-0.1,0.1-0.1c0-0.1,0-0.2-0.1-0.3
		c0-0.1,0-0.1,0-0.2c0-0.1-0.1-0.2-0.1-0.2s0,0,0-0.1s0-0.1,0-0.1c0-0.1,0-0.2,0-0.3s0-0.1,0-0.2c0-0.1,0-0.1,0-0.2
		c0-0.1,0-0.1-0.1-0.1v-0.1v-0.1c0-0.1,0-0.2-0.1-0.3c0-0.2,0-0.3-0.1-0.4c-0.1,0.1-0.1,0.1-0.1,0s0-0.1,0-0.1s0,0,0-0.1
		s0-0.1,0-0.2c0-0.1,0-0.2,0-0.2v-0.1v-0.1V50v-0.1c0-0.1,0-0.2-0.1-0.3c0.1-0.3,0-0.5-0.1-0.5V49c0-0.1,0-0.1,0-0.1
		c0-0.1,0-0.1,0-0.1s0,0,0-0.1c0,0,0,0,0-0.1c0,0,0,0,0-0.1v-0.1c0-0.2,0-0.3-0.1-0.4c0-0.5-0.1-0.8-0.1-0.9c0-0.1-0.1-0.1-0.1-0.2
		c0-0.1,0-0.1,0-0.2c0-0.1,0-0.2,0-0.2c0-0.1-0.1-0.1-0.1-0.1s0-0.1,0-0.2c0-0.1,0-0.2,0-0.3s0.1-0.1,0.2-0.1c0-0.1,0-0.1,0-0.2
		s0-0.1,0-0.1c0-0.1,0-0.1-0.1-0.1H21h-0.1l-0.1-0.1c-0.1,0-0.2,0-0.2-0.1h-0.1c-0.1-0.1-0.1-0.1-0.1-0.1s0-0.1-0.1-0.2h-0.1
		c0-0.1-0.1-0.2-0.1-0.3C20,44.5,20,44.4,20,44.3c0,0,0,0-0.1,0c0-0.1-0.1-0.1-0.1-0.2C19.7,44,19.7,44,19.7,44v-0.1
		c0-0.1,0-0.1,0-0.1c0-0.1,0-0.1,0-0.1v-0.1v-0.1c0,0,0,0,0-0.1v-0.1c0-0.1,0-0.1,0-0.2c0-0.1,0-0.1,0-0.2c0-0.1,0.1-0.1,0.2-0.2
		c0.1-0.1,0.1-0.1,0.2-0.2v-0.1c0,0,0-0.1,0.1-0.1s0.2,0,0.2,0h0.1h0.1c0.1,0,0.1,0,0.2,0c0-0.1,0.1-0.1,0.1,0
		c0.1,0.1,0.1,0.1,0.1,0C21.2,42.9,21.3,42.9,21.3,43L21.3,43z M21.2,42.9C21.2,42.9,21.3,42.9,21.2,42.9c0.1,0.1,0.1,0.2,0.1,0.2
		c0.1,0,0.2,0,0.3,0.1h0.1c0,0.1,0.1,0.1,0.1,0.1s0,0,0.1,0c0,0,0,0,0.1,0c0,0,0.1,0,0.2,0s0.1,0,0.2,0h0.1c0,0,0,0,0.1,0l0,0
		c0,0,0,0,0.1,0h0.1c0,0,0,0,0.1,0H23c0,0,0,0,0.1,0c0,0,0,0,0.1,0c0.2,0.1,0.2,0.1,0.3,0.1c0-0.1,0.1-0.1,0.1-0.1
		c0,0.1,0.1,0.2,0.1,0.2c0.1,0.1,0.2,0.1,0.3,0c0-0.1,0.1-0.1,0.1-0.1s0,0.1,0.1,0.2c0,0,0.1,0,0.2,0.1c0.1,0,0.2,0,0.2,0.1l0,0l0,0
		l0.1,0.1H25c0,0,0.1,0.1,0.2,0.1s0.2,0.1,0.2,0.1c0.1,0,0.2,0,0.3,0c0.2,0,0.3,0,0.3,0v0.1c0,0,0,0,0.1,0s0.2,0,0.3-0.1
		c0,0,0,0,0,0.1l0,0c0,0,0.1,0.1,0.2,0.1s0.2,0.1,0.2,0.1h0.1c0.1,0,0.1,0,0.1,0s0,0,0.1,0c0,0,0,0,0.1,0v0.1c0,0.1,0.1,0.1,0.2,0.1
		h0.1l0.1,0.1c0.1,0,0.1,0,0.2,0s0.2,0,0.2,0s0,0.1,0.1,0.2c0,0.1,0.1,0.1,0.1,0.1h0.1h0.1c0,0.2,0.1,0.2,0.2,0.2
		c0,0.1,0.1,0.1,0.2,0.2c0.1,0.1,0.1,0.1,0.2,0.2c0.1,0,0.2,0,0.2,0.2c0,0.1,0,0.1,0.1,0.1h0.1c0,0,0.1,0.1,0.1,0.2
		c0,0.1,0.1,0.1,0.1,0.2c0.1,0.1,0.2,0.1,0.2,0.1v0.1v0.1c0,0.1,0.1,0.1,0.1,0.2c0.1,0,0.1,0.1,0.1,0.1s0,0.1,0,0.2
		c0,0.1,0,0.1,0,0.1l0.1,0.1l0.1,0.1c0,0.1,0,0.2,0.1,0.3c0,0,0,0.1,0,0.3c0,0.1,0,0.2,0.1,0.3c0,0,0,0.1,0,0.2c0,0.1,0,0.1,0,0.2
		c0,0.1,0,0.1,0,0.2s0,0.1,0,0.1c0,0.1,0,0.1,0,0.1s0,0.2,0,0.5c0,0,0,0-0.1,0c0,0.1,0,0.1,0,0.3c0,0.1,0,0.1,0,0.2
		c0,0,0,0.1-0.1,0.1c0,0.1,0,0.2-0.1,0.3S30,50.7,30,50.8c-0.1,0.1-0.2,0.2-0.3,0.6c0,0-0.1,0-0.1,0.1v0.1c0,0,0,0-0.1,0.1l0,0
		c0,0,0,0-0.1,0.1c0,0.1-0.1,0.1-0.1,0.1c-0.1,0-0.2,0.2-0.2,0.5c-0.2,0.1-0.3,0.2-0.3,0.3c-0.2,0.2-0.2,0.3-0.3,0.4
		c0,0.1-0.1,0.1-0.2,0.2c-0.1,0.1-0.1,0.2-0.2,0.2H28l-0.3,0.4h-0.1c0,0-0.1,0.1-0.1,0.2c-0.1,0.1-0.2,0.2-0.2,0.2
		c0,0.1-0.1,0.2-0.2,0.3s-0.2,0.2-0.2,0.2s-0.1,0-0.2,0.1l0,0l0,0c0,0-0.1,0.1-0.2,0.2c-0.1,0-0.2,0-0.3,0.1C26,55,26,55,25.9,55
		l0,0c0,0,0,0-0.1,0l-0.1,0.1c-0.1,0.1-0.1,0.1-0.1,0.1c-0.1,0-0.1,0-0.2,0.1c0,0.1-0.1,0.1-0.1,0.1s0,0-0.1,0.1c0,0,0,0-0.1,0H25
		c0,0.1-0.1,0.2-0.3,0.2c-0.1,0-0.1,0-0.2,0c0,0.1,0,0.2,0,0.3s0,0.2,0,0.2s0,0,0,0.1c0,0,0,0,0,0.1v0.1v0.1v0.1v0.1
		c0,0.1,0,0.2,0,0.4s0,0.3,0,0.3v0.1c0,0.1,0,0.1,0,0.1c0,0.1,0,0.1,0,0.2V58v0.1c0,0,0,0,0.1,0.1c0,0,0,0,0,0.1c0,0,0,0.2,0,0.5
		l0.1,0.1V59c0,0.1,0,0.1,0,0.1c0,0.2,0,0.3,0.1,0.4c0,0,0,0,0.1,0c-0.1,0.1-0.1,0.2,0,0.4c0,0.1,0,0.1,0,0.2c0,0,0,0,0.1,0l0,0
		c0,0.1,0,0.2,0,0.3c-0.1,0.1-0.1,0.2-0.1,0.4s0,0.3,0,0.4h-0.1c0,0,0,0-0.1,0c0,0-0.1,0.1,0,0.2c0,0.1,0,0.1,0,0.2
		c0,0.1-0.1,0.1-0.1,0.2s-0.1,0.1-0.1,0.2c0,0.1,0,0.1-0.1,0.1c0-0.1,0-0.2,0-0.2c-0.1,0-0.2,0.1-0.3,0.2C24,62.2,24,62.2,24,62.2
		c-0.1-0.1-0.1-0.2-0.1-0.2l0,0c0,0,0,0-0.1,0c0-0.1,0-0.1-0.1-0.2c0-0.1-0.1-0.1-0.1-0.1s-0.1,0.1-0.1,0.2
		c-0.1-0.1-0.2-0.2-0.2-0.2c0-0.2-0.1-0.2-0.1-0.3h-0.1c-0.1-0.1-0.2-0.2-0.2-0.3s0-0.1,0-0.2v-0.1v-0.1v-0.1c0-0.1,0-0.1,0-0.2
		c0-0.1,0-0.2,0-0.2s0-0.1-0.1-0.1c0-0.1,0-0.1,0-0.2c0-0.1,0-0.1,0-0.2v-0.1c0-0.1,0-0.1,0-0.1c0-0.1,0-0.2,0-0.3
		c0-0.2,0-0.3,0-0.4c0,0-0.1-0.1-0.1-0.2c0-0.1-0.1-0.2-0.1-0.2v-0.1c0,0,0,0,0.1,0s0,0,0,0s0-0.1,0-0.3s0-0.3,0-0.4v-0.1v-0.1
		c0,0,0-0.1,0-0.2c-0.1,0-0.1-0.1-0.1-0.3s0-0.3,0-0.4v-0.1c0-0.2-0.1-0.3-0.1-0.4c0-0.2,0-0.4,0-0.6c0,0-0.1,0-0.1-0.1
		s-0.1-0.1-0.1-0.1s0,0,0-0.1l0,0c0,0,0-0.1,0-0.2c0-0.1,0-0.2,0-0.2s0-0.1-0.1-0.1v-0.1c0.1-0.2,0-0.2-0.1-0.2c0-0.1,0-0.2,0.1-0.2
		c0-0.2-0.1-0.4-0.1-0.4v-0.1c0,0,0-0.1,0.1-0.1c0-0.1,0-0.2-0.1-0.3c0-0.1,0-0.1,0-0.2c0-0.1-0.1-0.2-0.1-0.2s0,0,0-0.1
		s0-0.1,0-0.1c0-0.1,0-0.2,0-0.3s0-0.1,0-0.2c0-0.1,0-0.1,0-0.2c0-0.1,0-0.1-0.1-0.1v-0.1v-0.1c0-0.1,0-0.2-0.1-0.3
		c0-0.2,0-0.3-0.1-0.4c-0.1,0.1-0.1,0.1-0.1,0s0-0.1,0-0.1s0,0,0-0.1s0-0.1,0-0.2c0-0.1,0-0.2,0-0.2v-0.1v-0.1V50v-0.1
		c0-0.1,0-0.2-0.1-0.3c0.1-0.3,0-0.5-0.1-0.5V49c0-0.1,0-0.1,0-0.1c0-0.1,0-0.1,0-0.1s0,0,0-0.1c0,0,0,0,0-0.1c0,0,0,0,0-0.1v-0.1
		c0-0.2,0-0.3-0.1-0.4c0-0.5-0.1-0.8-0.1-0.9c0-0.1-0.1-0.1-0.1-0.2c0-0.1,0-0.1,0-0.2c0-0.1,0-0.2,0-0.2c0-0.1-0.1-0.1-0.1-0.1
		s0-0.1,0-0.2c0-0.1,0-0.2,0-0.3s0.1-0.1,0.2-0.1c0-0.1,0-0.1,0-0.2s0-0.1,0-0.1c0-0.1,0-0.1-0.1-0.1H21h-0.1l-0.1-0.1
		c-0.1,0-0.2,0-0.2-0.1h-0.1c-0.1-0.1-0.1-0.1-0.1-0.1s0-0.1-0.1-0.2h-0.1c0-0.1-0.1-0.2-0.1-0.3C20,44.5,20,44.4,20,44.3
		c0,0,0,0-0.1,0c0-0.1-0.1-0.1-0.1-0.2C19.7,44,19.7,44,19.7,44v-0.1c0-0.1,0-0.1,0-0.1c0-0.1,0-0.1,0-0.1v-0.1v-0.1c0,0,0,0,0-0.1
		v-0.1c0-0.1,0-0.1,0-0.2c0-0.1,0-0.1,0-0.2c0-0.1,0.1-0.1,0.2-0.2c0.1-0.1,0.1-0.1,0.2-0.2v-0.1c0,0,0-0.1,0.1-0.1s0.2,0,0.2,0h0.1
		h0.1c0.1,0,0.1,0,0.2,0c0-0.1,0.1-0.1,0.1,0C21.1,42.9,21.2,42.9,21.2,42.9z M26.2,47c0,0,0,0-0.1-0.1H26h-0.1c0,0-0.1,0-0.1-0.1
		c-0.1,0-0.1-0.1-0.1-0.1s-0.1,0-0.2,0s-0.1,0-0.1,0s0,0-0.1-0.1l-0.1-0.1c0,0,0,0-0.1,0H25c-0.1,0-0.3,0-0.4-0.1l-0.3-0.1
		c0,0-0.1,0-0.2,0s-0.1,0-0.2,0c0,0.1-0.1,0.1-0.2,0s-0.2-0.1-0.2-0.1s0,0-0.1,0c0,0,0,0-0.1,0c0,0,0,0-0.1,0h-0.1
		c-0.1,0-0.1,0-0.1,0.1c0,0,0,0.1,0.1,0.2c0,0,0,0.1,0,0.2c0,0.1,0,0.1,0,0.2c0,0,0,0.1,0.1,0.1v0c0,0,0,0.1,0.1,0.4
		c0,0.1,0,0.1,0,0.2c0,0.1,0,0.1,0,0.1s0,0.1,0,0.2c0,0.1,0,0.2,0,0.3c0,0,0,0.1,0.1,0.1v0.1c0,0,0,0.1,0,0.2c0,0.1,0,0.1,0,0.2
		c0,0.1,0,0.1,0.1,0.2c0,0.1,0,0.1,0,0.2v0.1c0,0.1,0,0.1,0,0.1v0.1v0.1c0,0,0,0.1,0,0.2c0,0.1,0,0.2,0,0.2v0.1v0.1
		c0,0.1,0,0.2,0,0.4c0,0,0,0.1,0.1,0.1c0,0.1,0,0.2,0,0.4c0,0.1,0,0.3,0,0.3s0.1,0.1,0.1,0.2c0,0.1,0,0.1,0,0.2c0,0,0,0.1,0.1,0.1
		V52c0,0.1,0,0.1,0,0.2s0,0.1,0,0.2v0.1l0.1,0.1v0.1c0,0.1,0,0.1,0,0.1v0.1l0,0c0,0.1,0,0.2,0,0.2H24l0.1-0.1c0,0,0,0,0.1,0h0.1
		c0,0,0,0,0.1-0.1h0.1l0,0c0,0,0,0,0.1,0h0.1c0.1,0,0.1,0,0.1,0v-0.1c0-0.1,0-0.1,0-0.1h0.1c0,0,0.1-0.1,0.1-0.2
		c0.1-0.1,0.1-0.2,0.2-0.2s0.1,0,0.1,0s0.1-0.1,0.2-0.2c0.1-0.1,0.1-0.2,0.2-0.2c0,0,0.1-0.1,0.1-0.2c0.1-0.1,0.1-0.1,0.1-0.2
		c0.3-0.3,0.4-0.4,0.4-0.4c0-0.2,0.1-0.3,0.3-0.3c0-0.1,0-0.1,0.1-0.2c0,0,0-0.1,0.1-0.2c0-0.1,0.1-0.2,0.1-0.2s0.1-0.1,0.2-0.1
		c0-0.1,0-0.1,0.1-0.2c0-0.1,0.1-0.1,0.1-0.2c0.1-0.2,0.2-0.3,0.2-0.4c0,0,0-0.1,0.1-0.1c0-0.1,0.1-0.1,0.1-0.1s0-0.1,0-0.2
		c0,0,0,0,0-0.1c0,0,0,0,0-0.1s0-0.1,0-0.1c0-0.1,0-0.1,0-0.2c0-0.1,0-0.1,0-0.1c0-0.1,0-0.1,0-0.2c0-0.1,0-0.1,0-0.2
		c0-0.1-0.1-0.1-0.1-0.1c-0.1-0.1-0.2-0.1-0.3-0.2c0,0,0,0-0.1-0.1h-0.1c0,0,0,0-0.1-0.1c0,0,0-0.1-0.1-0.1s-0.1,0-0.1,0
		s0,0-0.1-0.1v-0.1c0,0,0,0-0.1,0h-0.1c0,0,0,0-0.1-0.1c0,0,0,0-0.1,0C26.3,47,26.2,47,26.2,47C26,47,26,47,26,47s0,0-0.1,0l0,0
		C26.4,47,26.3,47,26.2,47z M26,46.8h-0.1l-0.1-0.1c-0.1,0-0.1,0-0.1-0.1c0,0-0.1,0-0.2,0s-0.1,0-0.1,0s0,0-0.1-0.1l-0.1-0.1
		c0,0,0,0-0.1,0H25c-0.1,0-0.3,0-0.4-0.1l-0.3-0.1c0,0-0.1,0-0.2,0s-0.1,0-0.2,0c0,0.1-0.1,0.1-0.2,0s-0.2-0.1-0.2-0.1s0,0-0.1,0
		c0,0,0,0-0.1,0c0,0,0,0-0.1,0h-0.1c-0.1,0-0.1,0-0.1,0.1c0,0,0,0.1,0.1,0.2c0,0,0,0.1,0,0.2c0,0.1,0,0.1,0,0.2c0,0,0,0.1,0.1,0.1
		V47c0,0,0,0.1,0.1,0.4c0,0.1,0,0.1,0,0.2c0,0.1,0,0.1,0,0.1s0,0.1,0,0.2c0,0.1,0,0.2,0,0.3c0,0,0,0.1,0.1,0.1v0.1c0,0,0,0.1,0,0.2
		c0,0.1,0,0.1,0,0.2c0,0.1,0,0.1,0.1,0.2c0,0.1,0,0.1,0,0.2v0.1c0,0.1,0,0.1,0,0.1v0.1v0.1c0,0,0,0.1,0,0.2c0,0.1,0,0.1,0,0.2v0.1
		v0.1c0,0.1,0,0.2,0,0.4c0,0,0,0.1,0.1,0.1c0,0.1,0,0.2,0,0.4c0,0.1,0,0.3,0,0.3s0.1,0.1,0.1,0.2c0,0.1,0,0.1,0,0.2
		c0,0,0,0.1,0.1,0.1V52c0,0.1,0,0.1,0,0.2s0,0.1,0,0.2v0.1l0.1,0.1v0.1c0,0.1,0,0.1,0,0.1v0.1l0,0c0,0.1,0,0.2,0,0.2H24l0.1-0.1
		c0,0,0,0,0.1,0h0.1c0,0,0,0,0.1-0.1h0.1l0,0c0,0,0,0,0.1,0h0.1c0.1,0,0.1,0,0.1,0v-0.1c0-0.1,0-0.1,0-0.1h0.1c0,0,0.1-0.1,0.1-0.2
		c0.1-0.1,0.1-0.2,0.2-0.2s0.1,0,0.1,0s0.1-0.1,0.2-0.2c0.1-0.1,0.1-0.2,0.2-0.2c0,0,0.1-0.1,0.1-0.2c0.1-0.1,0.1-0.1,0.1-0.2
		c0.3-0.3,0.4-0.4,0.4-0.4c0-0.2,0.1-0.3,0.3-0.3c0-0.1,0-0.1,0.1-0.2c0,0,0-0.1,0.1-0.2c0-0.1,0.1-0.2,0.1-0.2s0.1-0.1,0.2-0.1
		c0-0.1,0-0.1,0.1-0.2c0-0.1,0.1-0.1,0.1-0.2c0.1-0.2,0.2-0.3,0.2-0.4c0,0,0-0.1,0.1-0.1c0-0.1,0.1-0.1,0.1-0.1s0-0.1,0-0.2
		c0,0,0,0,0-0.1c0,0,0,0,0-0.1s0-0.1,0-0.1v-0.1v-0.1c0-0.1,0-0.1,0-0.1c0-0.1,0-0.1,0-0.2c0-0.1,0-0.1,0-0.2c0-0.1-0.1-0.1-0.1-0.1
		c-0.1-0.1-0.2-0.1-0.3-0.2c0,0,0,0-0.1-0.1h-0.1c0,0,0,0-0.1-0.1c0,0,0-0.1-0.1-0.1s-0.1,0-0.1,0s0,0-0.1-0.1v-0.1c0,0,0,0-0.1,0
		h-0.1c0,0,0,0-0.1-0.1c0,0,0,0-0.1,0c0,0-0.1,0-0.2,0S26,47,26,47s0,0-0.1,0l0,0c0,0-0.1,0-0.2,0c0,0,0,0-0.1-0.1
		C26.1,46.8,26.1,46.8,26,46.8z"/>
	<path fill="#54813B" d="M42.2,44.8C42.2,44.7,42.3,44.7,42.2,44.8L42.2,44.8L42.2,44.8c0.2,0.2,0.3,0.1,0.4,0.1l0,0l0,0
		c0,0,0,0,0.1,0c0.1,0.1,0.3,0.1,0.4,0c0,0.1,0.1,0.1,0.2,0.1c0.1,0,0.2,0,0.2,0.1l0,0l0,0c0,0,0,0,0.1,0.1c0,0,0,0,0.1,0
		c0,0,0,0,0.1,0c0,0.1,0,0.1,0.1,0.3c0,0,0.1,0,0.1,0.1s0.1,0.1,0.2,0.1c0.1,0.4,0.1,0.6,0.1,0.7c0,0.2,0,0.3,0,0.3
		c0,0.3,0,0.5,0,0.5c0,0.1-0.1,0.1-0.1,0.2c-0.1,0.1-0.1,0.2-0.1,0.3c-0.1-0.2-0.1-0.1-0.1,0c0,0,0,0-0.1,0c0,0,0,0-0.1,0
		s0,0-0.1,0.1c0,0.1-0.1,0.1-0.1,0.1s0,0-0.1,0h-0.1c0,0,0,0-0.1,0.1c0,0,0,0.1-0.1,0.1h-0.1c0,0.1-0.1,0.1-0.1,0.1s-0.1,0-0.1-0.1
		L42.8,48c-0.1,0-0.1,0.1-0.1,0.2c0,0.1-0.1,0-0.2-0.1c0,0,0,0-0.1,0h-0.1c0-0.1,0-0.1-0.1-0.2c0,0,0,0-0.1,0c0-0.2-0.1-0.2-0.2-0.2
		l-0.1,0.1c0,0,0,0-0.1,0c0,0,0,0-0.1,0c0,0,0,0-0.1,0c0-0.1,0-0.1-0.1-0.1c0,0,0,0-0.1,0v0.1c-0.1,0-0.2,0-0.2-0.1c0,0,0,0-0.1,0.1
		c0,0-0.1,0-0.1-0.1c-0.1,0-0.2,0-0.5,0c-0.2,0-0.4,0-0.4,0s0,0-0.1,0l0,0l0,0c0,0,0,0-0.1,0c-0.2,0-0.3,0-0.5,0c0,0,0,0-0.1,0h-0.1
		c-0.1-0.1-0.2,0-0.2,0S39,47.8,39,48s0.1,0.2,0.1,0.2C39,48.3,39,48.4,39,48.6v0.1c0,0.1,0,0.1,0,0.2c0,0.1,0,0.2,0,0.2
		c0,0.1,0.1,0.1,0.1,0.1c0,0.3,0,0.4-0.1,0.5c0,0.2,0,0.3,0.1,0.4v0.4v0.1c0,0,0,0.1,0.1,0.1c0,0.1,0,0.2,0,0.3c0,0,0,0.1,0.1,0.2
		c-0.1,0.2-0.1,0.3,0,0.4c0,0.1-0.1,0.1,0,0.2c0,0.1,0,0.1,0.1,0.1c0.1,0.2,0.1,0.3,0,0.4c0,0.1,0,0.1,0,0.2s0,0.1,0,0.2
		c0,0.1,0,0.1,0,0.1s0,0.1,0.1,0.1l0.1,0.1c0,0,0,0.1-0.1,0.1c0,0.1,0,0.2,0,0.3s0,0.2,0,0.3s0.1,0.1,0.1,0.2s0,0.1,0,0.1v0.1
		c0,0,0,0,0,0.1v0.1v0.1v0.1v0.1v0.1c0,0,0,0,0,0.1s0,0.1,0,0.1s0,0.1,0,0.2c0,0.1,0,0.2,0,0.2c0,0.1,0,0.1,0,0.2v0.1
		c0,0.1,0,0.1,0.1,0.1v0.1c0,0.1,0,0.2,0,0.3l0.1,0.1c0,0.2,0.1,0.3,0.1,0.4c0,0,0,0.1-0.1,0.2c0,0,0,0,0,0.1s0,0.1,0,0.1v0.1
		c0,0,0,0.1,0.1,0.1c0,0.2,0.1,0.3,0.1,0.3c0,0.4,0,0.6,0.1,0.6c0,0,0,0,0.1,0v0.1c0,0.1,0,0.1,0,0.1s0,0-0.1-0.1
		c-0.1,0.1-0.1,0.1,0,0.2c0,0.1,0,0.2,0,0.3s0,0.2,0,0.2c0,0.1,0.1,0.2,0.1,0.4c0,0,0,0.1,0.1,0.4L41,59c0,0.1,0,0.2,0,0.4
		s0,0.4,0,0.4c0,0.1,0,0.1,0,0.2c0,0.1,0,0.2,0,0.2c0,0.4,0,0.7,0,0.7V61v0.1c0,0,0,0-0.1,0.1c0,0,0,0-0.1-0.1c0,0,0,0-0.1,0.1
		c0,0.1-0.1,0.1-0.1,0c0,0,0,0-0.1,0c0,0,0,0-0.1,0l-0.1,0.3c0,0-0.1,0-0.1-0.1v-0.1c0,0,0,0.1-0.1,0.2c-0.1,0.1-0.1,0.1-0.2,0l0,0
		l0,0l-0.1-0.1c-0.1,0-0.2,0-0.2-0.1c-0.1,0-0.1,0-0.1,0c0-0.3-0.1-0.4-0.2-0.4c0-0.1,0-0.1,0-0.1h-0.1c0-0.2-0.1-0.3-0.2-0.3
		c0-0.1,0-0.1,0-0.2c0-0.1,0-0.1,0-0.1s0-0.1,0-0.2c0-0.1,0-0.1,0-0.2s0-0.1,0-0.2c0-0.1,0-0.2,0-0.2l0,0c0,0,0,0-0.1,0
		c0-0.1,0-0.2,0-0.3s0-0.2,0-0.3s-0.1-0.2-0.1-0.2s0-0.1,0-0.2c0-0.1,0-0.1,0-0.2v-0.1c0,0,0-0.1-0.1-0.1v-0.1c0-0.1,0-0.1,0-0.1
		h-0.1c0-0.2,0-0.3,0-0.4c0-0.1-0.1-0.2-0.1-0.2c0-0.1,0-0.1,0-0.3s0-0.4-0.1-0.4c0-0.1,0-0.2,0-0.3S38.3,56,38.3,56
		c0.1-0.2,0.1-0.5,0-0.7c0,0,0-0.1,0-0.4c0-0.2,0-0.3-0.1-0.4c0-0.1,0-0.1,0-0.3c0-0.1,0-0.2,0-0.3s0-0.1,0-0.2c0-0.1,0-0.1,0-0.2
		c0-0.1,0-0.2,0-0.3v-0.1V53c0-0.1-0.1-0.1-0.1-0.2v-0.1v-0.1c0,0,0-0.1-0.1-0.2c0-0.1,0-0.1,0-0.2c0-0.1,0-0.2,0-0.2s0-0.1-0.1-0.1
		v-0.6v-0.1v-0.1c0,0,0-0.1,0-0.2s0-0.1,0-0.2v-0.1v-0.1c0,0,0-0.1,0-0.2s0-0.2,0-0.2s0-0.1,0-0.2c0-0.1,0-0.1,0-0.2v-0.1v-0.1
		c0,0,0,0,0-0.1v-0.1c0-0.1,0-0.1,0-0.3s0-0.4-0.1-0.4c0-0.2,0-0.4-0.1-0.4v-0.1V48c0-0.2,0-0.3-0.1-0.3c0-0.1,0-0.2,0-0.3v-0.1
		v-0.1c0-0.1,0-0.1,0-0.2c0-0.1,0-0.1-0.1-0.1c-0.1,0.1-0.2,0.1-0.2,0c-0.2,0.1-0.2,0.1-0.2,0.2H37c0,0,0,0-0.1,0c0,0,0,0-0.1,0
		h-0.1c0-0.1-0.1-0.1-0.1-0.2c0,0,0,0-0.1,0.1c0,0,0,0.1-0.1,0.1c0,0-0.1,0-0.2,0c-0.1,0-0.2,0-0.2,0h-0.1c-0.1,0-0.1,0-0.1,0.1
		c0,0,0,0-0.1,0c0,0,0,0-0.1,0c0,0-0.1,0-0.2,0c0,0,0,0-0.1,0h-0.1c-0.1,0-0.1,0-0.1,0H35c0,0,0,0-0.1,0h-0.1c0,0,0,0-0.1,0
		s-0.1,0-0.1,0c0,0.1,0,0.1,0,0.1s-0.1,0-0.2,0c-0.1,0-0.1,0-0.1,0c0-0.1,0-0.1-0.1-0.1c0,0-0.1,0-0.1,0.1c-0.2,0-0.4-0.1-0.4-0.1
		h-0.1h-0.1c0,0,0,0-0.1,0.1c0,0,0,0-0.1,0c0,0,0,0-0.1,0c0,0-0.1,0-0.2,0c-0.1,0-0.1,0-0.2,0v0.1l0,0c0,0,0,0-0.1,0
		c0-0.1,0-0.2-0.1-0.2s-0.2,0-0.2,0.1h-0.1c-0.1,0-0.1,0-0.1,0c0-0.1,0-0.2-0.1-0.2l0,0l0,0c0,0,0,0,0-0.1v-0.1H32
		c0-0.1,0-0.1-0.1-0.2v-0.1c0-0.1,0-0.1,0-0.1s-0.1-0.1-0.2-0.3c0-0.1-0.1-0.2-0.1-0.2c-0.1-0.1-0.1-0.1-0.1-0.2v-0.1
		c0,0,0-0.1,0.1-0.1c0-0.1,0-0.1,0-0.2c0-0.1,0-0.1,0-0.2c0-0.1,0.1-0.1,0.2-0.2c0,0,0,0,0-0.1l0,0c0,0,0,0,0-0.1
		c0.1-0.1,0.1-0.2,0.1-0.2c0.1-0.1,0.1-0.2,0.2-0.2c0.1,0.1,0.3,0.1,0.5,0v-0.1c0.2,0.1,0.3,0.1,0.3,0.1c0.1-0.1,0.1-0.1,0.1-0.1
		s0,0,0.1,0h0.1c0,0,0,0,0.1,0c0,0,0,0,0.1,0c0,0,0,0,0.1,0c0,0,0,0,0.1,0s0.2,0,0.3,0c0,0,0.1,0,0.1-0.1c0,0,0.1,0,0.2,0
		c0.1,0.1,0.1,0.1,0.1,0.1c0.1,0,0.2,0,0.3,0c0,0,0.1,0,0.2,0c0.1,0,0.1,0,0.1-0.1c0,0,0.1,0,0.2,0c0.1,0,0.2,0,0.2,0s0,0,0.1,0l0,0
		l0,0c0,0,0,0,0.1,0c0.1,0.1,0.2,0.1,0.4,0c0,0,0,0,0.1,0c0,0,0,0,0.1,0h0.1c0,0,0,0,0.1,0h0.1c0.1-0.1,0.2-0.1,0.3,0l0,0l0,0
		c0,0,0,0,0.1,0c0,0,0,0,0.1,0s0.2,0,0.4,0s0.3,0,0.4,0h0.1c0.1,0.1,0.2,0.1,0.3,0c0.2-0.1,0.2-0.1,0.3-0.1c0,0,0,0,0.1,0
		c0,0,0,0,0.1,0c0,0,0,0,0.1,0c0,0,0,0,0-0.1c0,0,0.1,0,0.2,0c0.1,0,0.1,0,0.2,0l0,0c0,0,0.1,0,0.2,0c0.1,0,0.1,0.1,0.1,0.1
		c0.1-0.1,0.1-0.1,0.2-0.1c0,0,0,0,0.1,0c0,0,0,0,0.1,0l0,0l0,0c0,0,0,0,0.1,0s0.1,0,0.2-0.1c0.1,0,0.1,0,0.2,0.1
		c0,0.1,0.1,0.1,0.1,0.1s0,0,0.1,0l0.1-0.1c0.1,0,0.1,0,0.1,0s0,0,0.1,0c0,0,0,0,0.1,0s0.1,0,0.2,0.1c0,0,0,0,0.1,0c0,0,0,0,0.1,0
		c0,0.1,0,0.1,0.1,0s0.2-0.1,0.2,0c0,0,0,0,0.1,0c0,0,0,0,0.1,0c0,0,0.1,0,0.2,0c0.1,0,0.1,0,0.1,0s0,0,0.1,0h0.1c0,0,0.1,0,0.2-0.1
		h0.1l0.1,0.1c0,0,0,0,0.1,0c0,0,0,0,0.1,0s0.1,0,0.1,0.1C42.1,44.9,42.1,44.9,42.2,44.8z M42.3,44.7C42.3,44.7,42.3,44.8,42.3,44.7
		c0,0.1,0,0.2,0,0.2c0.1,0.1,0.2,0,0.3,0l0,0l0,0c0,0,0,0,0.1,0c0.1,0.1,0.3,0.1,0.4,0c0,0.1,0.1,0.1,0.2,0.1c0.1,0,0.2,0,0.2,0.1
		l0,0l0,0c0,0,0,0,0.1,0.1c0,0,0,0,0.1,0c0,0,0,0,0.1,0c0,0.1,0,0.1,0.1,0.3c0,0,0.1,0,0.1,0.1s0.1,0.1,0.2,0.1
		c0.1,0.4,0.1,0.6,0.1,0.7c0,0.2,0,0.3,0,0.3c0,0.3,0,0.5,0,0.5c0,0.1-0.1,0.1-0.1,0.2c-0.1,0.1-0.1,0.2-0.1,0.3
		c-0.1-0.2-0.1-0.1-0.1,0c0,0,0,0-0.1,0c0,0,0,0-0.1,0s0,0-0.1,0.1c0,0.1-0.1,0.1-0.1,0.1s0,0-0.1,0h-0.1c0,0,0,0-0.1,0.1
		c0,0,0,0.1-0.1,0.1h-0.1c0,0.1-0.1,0.1-0.1,0.1s-0.1,0-0.1-0.1L42.8,48c-0.1,0-0.1,0.1-0.1,0.2c0,0.1-0.1,0-0.2-0.1c0,0,0,0-0.1,0
		h-0.1c0-0.1,0-0.1-0.1-0.2c0,0,0,0-0.1,0c0-0.2-0.1-0.2-0.2-0.2l-0.1,0.1c0,0,0,0-0.1,0c0,0,0,0-0.1,0c0,0,0,0-0.1,0
		c0-0.1,0-0.1-0.1-0.1c0,0,0,0-0.1,0v0.1c-0.1,0-0.2,0-0.2-0.1c0,0,0,0-0.1,0.1c0,0-0.1,0-0.1-0.1c-0.1,0-0.2,0-0.5,0
		c-0.2,0-0.4,0-0.4,0s0,0-0.1,0l0,0l0,0c0,0,0,0-0.1,0c-0.2,0-0.3,0-0.5,0c0,0,0,0-0.1,0h-0.1c-0.1-0.1-0.2,0-0.2,0S39,47.8,39,48
		s0.1,0.2,0.1,0.2C39,48.3,39,48.4,39,48.6v0.1c0,0.1,0,0.1,0,0.2c0,0.1,0,0.2,0,0.2c0,0.1,0.1,0.1,0.1,0.1c0,0.3,0,0.4-0.1,0.5
		c0,0.2,0,0.3,0.1,0.4v0.4v0.1c0,0,0,0.1,0.1,0.1c0,0.1,0,0.2,0,0.3c0,0,0,0.1,0.1,0.2c-0.1,0.2-0.1,0.3,0,0.4c0,0.1-0.1,0.1,0,0.2
		c0,0.1,0,0.1,0.1,0.1c0.1,0.2,0.1,0.3,0,0.4c0,0.1,0,0.1,0,0.2s0,0.1,0,0.2c0,0.1,0,0.1,0,0.1s0,0.1,0.1,0.1l0.1,0.1
		c0,0,0,0.1-0.1,0.1c0,0.1,0,0.2,0,0.3s0,0.2,0,0.3s0.1,0.1,0.1,0.2s0,0.1,0,0.1v0.1c0,0,0,0,0,0.1v0.1v0.1v0.1v0.1v0.1
		c0,0,0,0,0,0.1s0,0.1,0,0.1s0,0.1,0,0.2c0,0.1,0,0.2,0,0.2c0,0.1,0,0.1,0,0.2v0.1c0,0.1,0,0.1,0.1,0.1v0.1c0,0.1,0,0.2,0,0.3
		l0.1,0.1c0,0.2,0.1,0.3,0.1,0.4c0,0,0,0.1-0.1,0.2c0,0,0,0,0,0.1s0,0.1,0,0.1v0.1c0,0,0,0.1,0.1,0.1c0,0.2,0.1,0.3,0.1,0.3
		c0,0.4,0,0.6,0.1,0.6c0,0,0,0,0.1,0v0.1c0,0.1,0,0.1,0,0.1s0,0-0.1-0.1c-0.1,0.1-0.1,0.1,0,0.2c0,0.1,0,0.2,0,0.3s0,0.2,0,0.2
		c0,0.1,0.1,0.2,0.1,0.4c0,0,0,0.1,0.1,0.4L41,59c0,0.1,0,0.2,0,0.4s0,0.4,0,0.4c0,0.1,0,0.1,0,0.2c0,0.1,0,0.2,0,0.2
		c0,0.4,0,0.7,0,0.7V61v0.1c0,0,0,0-0.1,0.1c0,0,0,0-0.1-0.1c0,0,0,0-0.1,0.1c0,0.1-0.1,0.1-0.1,0c0,0,0,0-0.1,0c0,0,0,0-0.1,0
		l-0.1,0.3c0,0,0,0-0.1-0.1c0,0,0-0.1-0.1-0.1c0,0,0,0.1-0.1,0.2c-0.1,0.1-0.1,0.1-0.2,0l0,0l0,0l-0.1-0.1c-0.1,0-0.2,0-0.2-0.1
		c-0.1,0-0.1,0-0.1,0c0-0.3-0.1-0.4-0.2-0.4c0-0.1,0-0.1,0-0.1h-0.1c0-0.2-0.1-0.3-0.2-0.3c0-0.1,0-0.1,0-0.2c0-0.1,0-0.1,0-0.1
		s0-0.1,0-0.2c0-0.1,0-0.1,0-0.2s0-0.1,0-0.2c0-0.1,0-0.2,0-0.2l0,0c0,0,0,0-0.1,0c0-0.1,0-0.2,0-0.3s0-0.2,0-0.3s-0.1-0.2-0.1-0.2
		s0-0.1,0-0.2c0-0.1,0-0.1,0-0.2v-0.1c0,0,0-0.1-0.1-0.1v-0.1c0-0.1,0-0.1,0-0.1h-0.1c0-0.2,0-0.3,0-0.4c0-0.1-0.1-0.2-0.1-0.2
		c0-0.1,0-0.1,0-0.3s0-0.4-0.1-0.4c0-0.1,0-0.2,0-0.3S38.2,56,38.2,56c0.1-0.2,0.1-0.5,0-0.7c0,0,0-0.1,0-0.4c0-0.2,0-0.3-0.1-0.4
		c0-0.1,0-0.1,0-0.3c0-0.1,0-0.2,0-0.3s0-0.1,0-0.2c0-0.1,0-0.1,0-0.2c0-0.1,0-0.2,0-0.3v-0.1V53c0-0.1-0.1-0.1-0.1-0.2v-0.1v-0.1
		c0,0,0-0.1-0.1-0.2c0-0.1,0-0.1,0-0.2c0-0.1,0-0.2,0-0.2s0-0.1-0.1-0.1v-0.6v-0.1v-0.1c0,0,0-0.1,0-0.2s0-0.1,0-0.2v-0.1v-0.1
		c0,0,0-0.1,0-0.2s0-0.2,0-0.2s0-0.1,0-0.2c0-0.1,0-0.1,0-0.2v-0.1v-0.1c0,0,0,0,0-0.1v-0.1c0-0.1,0-0.1,0-0.3s0-0.4-0.1-0.4
		c0-0.2,0-0.4-0.1-0.4v-0.1V48c0-0.2,0-0.3-0.1-0.3c0-0.1,0-0.2,0-0.3v-0.1v-0.1c0-0.1,0-0.1,0-0.2c0-0.1,0-0.1-0.1-0.1
		c-0.1,0.1-0.2,0.1-0.2,0C37,47,37,47,37,47.1h-0.1c0,0,0,0-0.1,0c0,0,0,0-0.1,0h-0.1c0-0.1-0.1-0.1-0.1-0.2c0,0,0,0-0.1,0.1
		c0,0,0,0.1-0.1,0.1c0,0-0.1,0-0.2,0c-0.1,0-0.2,0-0.2,0h-0.1c-0.1,0-0.1,0-0.1,0.1c0,0,0,0-0.1,0c0,0,0,0-0.1,0c0,0-0.1,0-0.2,0
		c0,0,0,0-0.1,0h-0.1c-0.1,0-0.1,0-0.1,0h-0.1c0,0,0,0-0.1,0h-0.1c0,0,0,0-0.1,0s-0.1,0-0.1,0c0,0.1,0,0.1,0,0.1h-0.1
		c-0.1,0-0.1,0-0.1,0c0-0.1,0-0.1-0.1-0.1c0,0-0.1,0-0.1,0.1c-0.2,0-0.4-0.1-0.4-0.1h-0.1h-0.1c0,0,0,0-0.1,0.1c0,0,0,0-0.1,0
		c0,0,0,0-0.1,0c0,0-0.1,0-0.2,0c-0.1,0-0.1,0-0.2,0v0.1l0,0c0,0,0,0-0.1,0c0-0.1,0-0.2-0.1-0.2s-0.2,0-0.2,0.1h-0.1
		c-0.1,0-0.1,0-0.1,0c0-0.1,0-0.2-0.1-0.2l0,0l0,0c0,0,0,0,0-0.1v-0.1H32c0-0.1,0-0.1,0-0.1v-0.1v-0.1c0-0.1,0-0.1,0-0.1
		s-0.1-0.1-0.2-0.3c0-0.1-0.1-0.2-0.1-0.2c-0.1-0.1-0.1-0.1-0.1-0.2v-0.1c0,0,0-0.1,0.1-0.1c0-0.1,0-0.1,0-0.2c0-0.1,0-0.1,0-0.2
		c0-0.1,0.1-0.1,0.2-0.2c0,0,0,0,0-0.1l0,0c0,0,0,0,0-0.1c0.1-0.1,0.1-0.2,0.1-0.2c0.1-0.1,0.1-0.2,0.2-0.2c0.1,0.1,0.3,0.1,0.5,0
		v-0.1c0.2,0.1,0.3,0.1,0.3,0.1c0.1-0.1,0.1-0.1,0.1-0.1s0,0,0.1,0h0.1c0,0,0,0,0.1,0c0,0,0,0,0.1,0c0,0,0,0,0.1,0c0,0,0,0,0.1,0
		s0.2,0,0.3,0c0,0,0.1,0,0.1-0.1c0,0,0.1,0,0.2,0c0.1,0.1,0.1,0.1,0.1,0.1c0.1,0,0.2,0,0.3,0c0,0,0.1,0,0.2,0c0.1,0,0.1,0,0.1-0.1
		c0,0,0.1,0,0.2,0c0.1,0,0.2,0,0.2,0s0,0,0.1,0l0,0l0,0c0,0,0,0,0.1,0c0.1,0.1,0.2,0.1,0.4,0c0,0,0,0,0.1,0c0,0,0,0,0.1,0h0.1
		c0,0,0,0,0.1,0h0.1c0.1-0.1,0.2-0.1,0.3,0l0,0l0,0c0,0,0,0,0.1,0c0,0,0,0,0.1,0s0.2,0,0.4,0s0.3,0,0.4,0c0,0,0-0.1,0.1-0.1
		c0.1,0.1,0.2,0.1,0.3,0c0.2-0.1,0.2-0.1,0.3-0.1c0,0,0,0,0.1,0c0,0,0,0,0.1,0c0,0,0,0,0.1,0c0,0,0,0,0-0.1c0,0,0.1,0,0.2,0
		c0.1,0,0.1,0,0.2,0l0,0c0,0,0.1,0,0.2,0c0.1,0,0.1,0.1,0.1,0.1c0.1-0.1,0.1-0.1,0.2-0.1c0,0,0,0,0.1,0c0,0,0,0,0.1,0l0,0l0,0
		c0,0,0,0,0.1,0s0.1,0,0.2-0.1c0.1,0,0.1,0,0.2,0.1c0,0.1,0.1,0.1,0.1,0.1s0,0,0.1-0.1l0.1-0.1c0.1,0,0.1,0,0.1,0s0,0,0.1,0
		c0,0,0,0,0.1,0s0.1,0,0.2,0.1c0,0,0,0,0.1,0c0,0,0,0,0.1,0c0,0.1,0,0.1,0.1,0s0.2-0.1,0.2,0c0,0,0,0,0.1,0c0,0,0,0,0.1,0
		c0,0,0.1,0,0.2,0c0.1,0,0.1,0,0.1,0s0,0,0.1,0h0.1c0,0,0.1,0,0.2-0.1h0.1l0.1,0.1c0,0,0,0,0.1,0c0,0,0,0,0.1,0s0.1,0,0.1,0.1
		c0,0,0.1,0,0.1-0.1C42.2,44.8,42.2,44.7,42.3,44.7z M38.3,55.6L38.3,55.6C38.2,55.6,38.2,55.6,38.3,55.6
		C38.2,55.6,38.2,55.6,38.3,55.6C38.3,55.5,38.3,55.5,38.3,55.6z M38.2,55.6L38.2,55.6C38.3,55.5,38.3,55.5,38.2,55.6
		C38.3,55.6,38.3,55.6,38.2,55.6L38.2,55.6z M40.2,53.5L40.2,53.5L40.2,53.5z M40.2,53.5L40.2,53.5L40.2,53.5L40.2,53.5z"/>
	<path fill="#54813B" d="M55.2,41.5C55.2,41.6,55.2,41.6,55.2,41.5C55.2,41.6,55.2,41.6,55.2,41.5c0.1,0.1,0.2,0.1,0.4,0.3
		c0.1,0.2,0.2,0.3,0.3,0.3c0,0.1,0.1,0.2,0.2,0.4s0.2,0.3,0.1,0.4h0.1c0,0.1,0,0.1-0.1,0.1l-0.1,0.1v0.1v0.1c0,0.1,0,0.2,0,0.3
		S56,43.8,56,43.9c-0.1,0-0.1,0-0.1,0s0,0.1,0,0.2c0,0.1-0.1,0.1-0.1,0.1l-0.1,0.2c0,0-0.1,0-0.1,0.1c0,0,0,0-0.1,0
		c0,0,0,0.1-0.1,0.1h-0.1l0,0l0,0l0,0c-0.1,0-0.2,0-0.2,0.1c-0.1,0-0.2-0.1-0.3-0.2c-0.1,0-0.1,0-0.2-0.1c-0.1-0.1-0.1-0.1-0.1-0.1
		s0,0-0.1,0c0,0,0,0-0.1,0s-0.1,0-0.3,0s-0.2,0-0.3,0.1c-0.1-0.1-0.2-0.1-0.3,0l0,0l0,0h-0.1h-0.1c0,0-0.1,0-0.3,0s-0.2,0-0.2,0.1
		v0.1c0,0.1,0,0.1,0,0.1s0,0,0,0.1s0,0.1,0,0.1V45c0,0.1,0,0.1,0,0.2c0,0,0,0.1,0,0.2c0,0.1,0,0.2,0,0.2c0,0.1,0,0.2,0,0.2
		c0,0.1,0.1,0.1,0.1,0.1c0,0.1,0,0.1-0.1,0.2c0,0.1,0,0.1,0,0.2c0,0.1,0,0.2,0,0.2v0.1v0.1c0,0.1,0,0.2,0,0.4s0,0.3,0,0.4v0.1v0.1
		c0,0.1,0,0.2,0,0.2V48c0,0.1,0,0.1,0,0.2c0,0.3,0,0.5,0.1,0.5v0.1v0.1c0,0,0,0,0,0.1c0,0,0,0,0,0.1s0,0,0,0h-0.1l0,0
		c0,0,0,0.1,0.1,0.1v0.1v0.1c0,0,0,0.1,0,0.2c0,0.1,0,0.2,0,0.2c0,0.1,0,0.1,0,0.1s0,0,0,0.1v0.1c0,0.1,0,0.1,0,0.1
		c0,0.1,0,0.1,0,0.1v0.1v0.1c0,0.1,0,0.1,0,0.1c0,0.1,0,0.2,0,0.3s0,0.2,0,0.2s0,0,0.1,0.1v0.1v0.1v0.1c0,0,0,0.1,0.1,0.1v0.1
		c0,0,0,0,0,0.1s0,0.2,0,0.3s0,0.3,0,0.4c0,0.1,0,0.1,0,0.1s0,0,0,0.1v0.1c0,0,0,0.1,0,0.3c0,0.1,0,0.2,0,0.4c0,0,0,0.1,0,0.2
		c0,0.1,0,0.2,0,0.3l0.1,0.1c0,0.1,0,0.1,0,0.2c0,0.1,0,0.1,0,0.1v0.1c0,0.1,0,0.1,0,0.2s0,0.1,0,0.2c0,0.1,0,0.2,0,0.2
		s0,0.1,0.1,0.2c0,0.1,0,0.1,0,0.1s0,0.1,0,0.3s0,0.2,0,0.3c0,0,0,0.1,0,0.2s0,0.1,0,0.2c0,0.1,0,0.1,0,0.1s0,0,0,0.1l0,0
		c0,0.1,0,0.1,0,0.2s0,0.1,0,0.2v0.1v0.1v0.1c0,0.1,0,0.2,0.1,0.2c0,0.1,0,0.2,0.1,0.3c0.1,0,0.2,0,0.3,0s0.2,0,0.3,0c0,0,0,0,0.1,0
		c0,0,0-0.1,0.1-0.1c0.2,0,0.2,0,0.3,0.1c0,0,0,0,0.1,0c0,0,0,0,0.1,0c0,0,0,0,0.1,0h0.1c0,0,0,0,0.1,0h0.1c0.1,0.1,0.2,0.1,0.3,0
		h0.1h0.1l0.1-0.1h0.1h0.1v-0.1v-0.1H56c0,0,0,0,0,0.1v0.1c0.1,0,0.1,0,0.1-0.1s0.1-0.1,0.1,0v0.1c0.3,0.1,0.6,0.1,0.8,0.1h0.1
		c0.2,0.1,0.4,0.1,0.4,0l0.1,0.1l0.1,0.1c0.1,0,0.2,0,0.2,0c0,0.1,0,0.2,0.1,0.2c0.1,0.1,0.1,0.2,0.1,0.3c0,0,0,0,0.1,0h0.1
		c0,0.1,0,0.1,0,0.2c0.2,0.2,0.2,0.4,0.1,0.5v0.1v0.1c0,0.1,0,0.1,0,0.1c0,0.1-0.1,0.1-0.1,0.1c0,0.1,0,0.2-0.1,0.3
		s-0.1,0.2-0.1,0.3c0,0,0,0-0.1,0.1l-0.1,0.1v0.1c-0.2,0-0.2,0.1-0.3,0.1v0.1h-0.1c-0.1,0-0.1,0.1-0.1,0.2h-0.1c0-0.2,0-0.2-0.2-0.2
		c0,0,0,0-0.1,0.1c0,0,0,0-0.1,0s-0.1-0.1-0.1-0.1s-0.1,0-0.1,0.1c-0.1,0-0.2,0-0.4,0s-0.3,0-0.4,0c0-0.1,0-0.1-0.1-0.1
		c0,0,0,0,0,0.1v0.1c0,0-0.1,0-0.2,0s-0.2,0-0.2,0l-0.1-0.1l0,0v0.1l-0.1-0.1c-0.1,0-0.1-0.1-0.2-0.1c-0.2,0-0.2,0-0.2,0
		s-0.1,0.1-0.1,0.2c0,0-0.1,0-0.2,0c-0.1,0-0.1,0-0.1,0s0,0,0-0.1c0,0,0,0,0-0.1c0,0-0.1,0-0.1,0.1c-0.1,0-0.1,0.1-0.1,0.1
		c-0.1-0.1-0.1-0.1-0.1-0.1S54,60.9,54,61c0,0-0.1,0-0.1-0.1c0,0-0.1,0-0.2,0c-0.2,0-0.3,0-0.3,0.1c0,0,0,0-0.1-0.1
		c-0.2,0.1-0.2,0.2-0.3,0.2s-0.1,0-0.1,0c0-0.1-0.2-0.1-0.3-0.1s-0.1,0-0.1,0l0,0v0.1c-0.1,0-0.2,0-0.3,0s-0.2,0-0.2,0.1h-0.1l0,0
		c0,0,0,0-0.1,0h-0.1c-0.1,0-0.1,0.1-0.2,0.2c0,0-0.1,0-0.2,0c-0.1,0-0.2,0-0.2,0H51l0,0v0.1c0,0-0.1,0,0-0.1v-0.1
		c0,0-0.1,0-0.1,0.1l0,0c0,0,0,0-0.1,0c0,0,0,0-0.1,0c0,0-0.1,0.1-0.1,0.2c-0.2,0.1-0.3,0-0.3-0.1c-0.1,0-0.1,0.1-0.2,0.1
		c0,0.1,0,0.1,0,0.1H50c0,0,0,0-0.1,0c0,0,0,0-0.1-0.1c-0.1,0-0.3,0-0.5,0.1S49,61.8,49,61.8c0,0.1,0,0.1,0,0.1h-0.1h-0.1
		c0,0,0,0,0-0.1v-0.1l0,0l0,0c0,0,0,0-0.1,0c0,0,0,0-0.1,0l0,0c0,0,0,0-0.1,0c0,0-0.1,0-0.2,0c-0.1,0-0.2,0-0.2,0H48
		c0,0-0.1,0-0.2,0c-0.1,0-0.2,0-0.2,0s0,0-0.1,0c0,0,0,0-0.1,0h-0.1c-0.1,0-0.2,0-0.3,0c0,0,0,0,0,0.1v0.1l0,0c0,0,0-0.1,0-0.2
		c0,0,0,0-0.1,0s-0.1,0-0.1-0.1h-0.1c0-0.2-0.1-0.2-0.2-0.3c0,0.1,0,0.1,0,0.1c-0.1,0-0.1,0-0.1,0c0-0.1,0-0.2-0.1-0.4
		c-0.1-0.1-0.2-0.2-0.2-0.2s0-0.1,0-0.2s0-0.1,0-0.2c0-0.3,0-0.4,0-0.5c0,0,0-0.1,0.1-0.2c0-0.1,0-0.2,0-0.2s0,0,0.1,0
		c0,0,0,0,0.1,0c0.1-0.2,0.2-0.4,0.4-0.5c0.4,0,0.9,0,1.4,0c0-0.1,0.1-0.1,0.1-0.1c0.1,0,0.1,0,0.1,0.1h0.1l0.1-0.1
		c0,0,0.1,0,0.1,0.1c0.1,0,0.1,0,0.1,0s0,0,0.1-0.1l0.1-0.1c0,0,0,0,0.1,0.1l0.1,0.1c0,0,0.1,0,0.1-0.1h0.1c0.1-0.1,0.2-0.2,0.3-0.2
		c0,0,0.1-0.1,0.3-0.1c0,0,0,0,0.1,0h0.1c0.1,0,0.1,0,0.1,0s0,0,0.1,0c0,0,0.1,0,0.1-0.1c0,0,0,0,0.1,0h0.1c0,0,0-0.1,0.1-0.1
		c0,0,0.1,0,0.2,0c0.1,0,0.2,0,0.2-0.1c0,0,0,0,0-0.1c0,0,0,0,0-0.1c0,0,0.2,0,0.6,0c0.1-0.1,0.1-0.2,0-0.4c0-0.3,0-0.5-0.1-0.7
		c0,0,0-0.1,0-0.2c0-0.1,0-0.1,0-0.2c0-0.1,0-0.1,0-0.1s0,0,0-0.1v-0.1v-0.1v-0.1c-0.1-0.1-0.1-0.3-0.1-0.5c0-0.1,0-0.3,0-0.6
		s0-0.4,0-0.5c0,0,0,0-0.1-0.1l0,0c0,0,0,0,0-0.1v-0.1c0.1,0,0.1-0.1,0.1-0.1c0-0.1,0-0.1,0-0.1c0-0.1,0-0.2,0-0.4s0-0.2,0-0.3
		s0-0.1,0-0.2c0-0.1,0-0.1,0-0.2v-0.1c0-0.1,0-0.1,0-0.1s0-0.1,0-0.2c0-0.1,0-0.2,0-0.2s0,0-0.1,0c0-0.1,0-0.2,0-0.3s0-0.2,0-0.5
		s0-0.5,0-0.6v-0.1c0,0,0,0,0-0.1c0,0,0,0,0-0.1v-0.1v-0.1c0-0.1,0-0.1,0-0.1s0,0,0-0.1c0,0,0,0,0-0.1c0,0-0.1-0.1-0.1-0.4
		c-0.1,0-0.1-0.2-0.1-0.5h0.1l0,0c0,0,0,0-0.1,0l0,0c0,0,0-0.1,0-0.2c0,0,0,0,0.1,0c0-0.1,0-0.2,0-0.3c0-0.2,0-0.3,0-0.4
		c0-0.1-0.1-0.2-0.1-0.2v-0.2c0,0,0,0,0.1,0c0,0,0-0.1,0-0.2c0-0.1,0-0.3,0-0.4c0-0.2,0-0.2-0.1-0.3c0,0,0,0,0-0.1s0-0.1,0-0.1
		s0,0,0-0.1s0-0.1,0-0.1c0-0.1,0-0.1,0.1-0.1c0-0.1,0-0.2,0-0.2s0-0.1-0.1-0.4v-0.1c0,0,0,0,0-0.1l0,0c0,0,0,0,0-0.1v-0.1v-0.1v-0.1
		c0-0.1,0-0.1,0-0.1c0-0.1,0-0.2-0.1-0.3c0-0.1,0-0.2-0.1-0.3c0-0.1-0.1-0.2-0.1-0.3h-0.1v0.1c0-0.1-0.1-0.1-0.2,0v-0.1v-0.1h-0.1
		v0.1v0.1c0,0,0,0-0.1,0c0,0,0,0-0.1,0c0,0,0,0-0.1,0h-0.1l0,0l0,0c0,0-0.1,0.1-0.1,0.2H50v-0.1c0-0.1-0.1-0.1-0.2,0v0.1l0,0
		c0,0,0,0-0.1,0c0,0,0,0-0.1,0s-0.2,0-0.3,0s-0.2,0-0.3,0c-0.2,0-0.2,0-0.3,0c-0.1-0.1-0.2-0.1-0.2,0c-0.1,0-0.1,0-0.2,0
		c-0.1,0-0.1,0-0.2,0c-0.1,0-0.1,0-0.3,0c-0.1,0-0.2,0-0.3,0c0,0,0,0-0.1,0.1l0,0v-0.1c0,0.1,0,0.1-0.1,0.1s-0.1-0.1-0.1-0.1
		s0,0-0.1,0c0,0,0-0.1-0.1-0.1c0,0,0-0.1-0.1-0.1c-0.2,0.1-0.3,0-0.4-0.2c0,0-0.1-0.1-0.2-0.2c-0.1-0.1-0.1-0.2-0.2-0.2
		c-0.1,0-0.1,0-0.2-0.1c0-0.1-0.1-0.1-0.1-0.2c-0.1-0.2-0.2-0.3-0.3-0.4c0-0.1,0-0.2-0.1-0.3c0,0,0-0.1,0.1-0.2
		c0-0.2,0.1-0.4,0.3-0.7c0.1,0,0.1-0.1,0.2-0.2c0,0,0,0,0.1,0s0.1,0,0.1,0s0,0,0.1-0.1c0,0,0-0.1,0.1-0.1c0,0,0.1,0,0.2,0
		c0.1,0,0.2,0,0.2,0s0-0.1,0.1-0.1l0.1-0.1c0,0,0.1,0,0.2,0.1c0.1,0.1,0.1,0.1,0.2,0.1c0,0,0,0,0.1,0h0.1c0.1,0,0.2,0,0.3,0
		s0.2,0,0.3,0s0.2,0,0.2-0.1c0.1,0.1,0.2,0.1,0.3,0c0,0,0,0,0.1,0c0,0,0,0,0.1,0c0,0,0,0,0.1,0c0,0,0,0,0-0.1c0.1,0,0.2,0,0.3,0
		s0.2,0,0.2-0.1c0.1,0.1,0.2,0.1,0.4,0c0,0,0,0,0-0.1c0,0,0,0,0.1-0.1c0.1,0,0.2,0,0.3,0s0.2,0,0.3,0s0.1-0.1,0.1-0.2
		c0,0,0.1,0,0.2,0.1c0,0,0,0,0.1,0c0.4,0,0.7,0,0.8-0.1c0,0,0.1,0,0.2,0l0,0l0,0c0.1-0.1,0.1-0.1,0.3-0.1c0.1,0,0.2,0,0.3,0
		c0-0.1,0.1-0.1,0.1-0.1h0.2c0,0,0,0,0.1,0h0.1h0.1c0.2,0,0.3,0,0.4-0.1l0.1,0.1c0.2-0.2,0.3-0.2,0.4,0c0,0,0.1,0,0.2,0
		c0.1,0,0.2,0,0.2,0h0.1h0.1h0.1c0,0,0.1,0,0.2,0s0.2,0,0.3,0C55.1,41.5,55.1,41.5,55.2,41.5z M55,41.6c0.1-0.1,0.1-0.1,0.2-0.1v0.1
		l0,0c0.1,0,0.2,0,0.4,0.2c0.1,0.2,0.2,0.3,0.3,0.3c0,0.1,0.1,0.2,0.2,0.4s0.2,0.3,0.1,0.4h0.1c0,0.1,0,0.1-0.1,0.1l-0.1,0.1v0.1
		v0.1c0,0.1,0,0.2,0,0.3S56,43.8,56,43.9c-0.1,0-0.1,0-0.1,0s0,0.1,0,0.2c0,0.1-0.1,0.1-0.1,0.1l-0.1,0.2c0,0-0.1,0-0.1,0.1
		c0,0,0,0-0.1,0c0,0,0,0.1-0.1,0.1h-0.1l0,0l0,0l0,0c-0.1,0-0.2,0-0.2,0.1c-0.1,0-0.2-0.1-0.3-0.2c-0.1,0-0.1,0-0.2-0.1
		c-0.1-0.1-0.1-0.1-0.1-0.1s0,0-0.1,0c0,0,0,0-0.1,0s-0.1,0-0.3,0s-0.2,0-0.3,0.1c-0.1-0.1-0.2-0.1-0.3,0l0,0l0,0h-0.1h-0.1
		c0,0-0.1,0-0.3,0s-0.2,0-0.2,0.1v0.1c0,0.1,0,0.1,0,0.1s0,0,0,0.1s0,0.1,0,0.1V45c0,0.1,0,0.1,0,0.2c0,0,0,0.1,0,0.2
		c0,0.1,0,0.2,0,0.2c0,0.1,0,0.2,0,0.2c0,0.1,0.1,0.1,0.1,0.1c0,0.1,0,0.1-0.1,0.2c0,0.1,0,0.1,0,0.2c0,0.1,0,0.2,0,0.2v0.1v0.1
		c0,0.1,0,0.2,0,0.4s0,0.4,0,0.4c0,0.1,0.1,0.1,0.1,0.2c0,0.1,0,0.2,0,0.2V48c0,0.1,0,0.1,0,0.2c0,0.3,0,0.5,0.1,0.5v0.1v0.1
		c0,0,0,0,0,0.1c0,0,0,0,0,0.1s0,0,0,0h-0.1c0,0.1,0,0.1,0.1,0.2v0.1v0.1c0,0,0,0.1,0,0.2c0,0.1,0,0.2,0,0.2c0,0.1,0,0.1,0,0.1
		s0,0,0,0.1v0.1c0,0.1,0,0.1,0,0.1c0,0.1,0,0.1,0,0.1v0.1v0.1c0,0.1,0,0.1,0,0.1c0,0.1,0,0.2,0,0.3s0,0.2,0,0.2s0,0,0.1,0.1v0.1v0.1
		v0.1c0,0,0,0.1,0.1,0.1v0.1c0,0,0,0,0,0.1s0,0.2,0,0.3s0,0.3,0,0.4c0,0.1,0,0.1,0,0.1s0,0,0,0.1v0.1c0,0,0,0.1,0,0.3
		c0,0.1,0,0.2,0,0.4c0,0,0,0.1,0,0.2c0,0.1,0,0.2,0,0.3l0.1,0.1c0,0.1,0,0.1,0,0.2c0,0.1,0,0.1,0,0.1v0.1c0,0.1,0,0.1,0,0.2
		s0,0.1,0,0.2c0,0.1,0,0.2,0,0.2s0,0.1,0.1,0.2c0,0.1,0,0.1,0,0.1s0,0.1,0,0.3s0,0.2,0,0.3c0,0,0,0.1,0,0.2s0,0.1,0,0.2
		c0,0.1,0,0.1,0,0.1s0,0,0,0.1l0,0c0,0.1,0,0.1,0,0.2s0,0.1,0,0.2v0.1v0.1v0.1c0,0.1,0,0.2,0.1,0.2c0,0.1,0,0.2,0.1,0.3
		c0.1,0,0.2,0,0.3,0s0.2,0,0.3,0c0,0,0,0,0.1,0c0,0,0-0.1,0.1-0.1c0.2,0,0.2,0,0.3,0.1c0,0,0,0,0.1,0c0,0,0,0,0.1,0c0,0,0,0,0.1,0
		H55c0,0,0,0,0.1,0h0.1c0.1,0.1,0.2,0.1,0.3,0h0.1h0.1l0.1-0.1h0.1H56c0-0.1,0-0.1,0-0.1h0.1c0,0,0,0,0,0.1v0.1c0.1,0,0.1,0,0.1-0.1
		s0.1-0.1,0.1,0v0.1c0.3,0.1,0.6,0.1,0.8,0.1h0.1c0.2,0.1,0.4,0.1,0.4,0l0.1,0.1l0.1,0.1c0.1,0,0.2,0,0.2,0c0,0.1,0,0.2,0.1,0.2
		c0.1,0.1,0.1,0.2,0.1,0.3c0,0,0,0,0.1,0h0.1c0,0.1,0,0.1,0,0.2c0.2,0.2,0.2,0.4,0.1,0.5v0.1v0.1c0,0.1,0,0.1,0,0.1
		c0,0.1-0.1,0.1-0.1,0.1c0,0.1,0,0.2-0.1,0.3s-0.1,0.2-0.1,0.3c0,0,0,0-0.1,0.1L58,60.6v0.1c-0.2,0-0.2,0.1-0.3,0.1v0.1h-0.1
		c-0.1,0-0.1,0.1-0.1,0.2h-0.1c0-0.2,0-0.2-0.2-0.2c0,0,0,0-0.1,0.1c0,0,0,0-0.1,0s-0.1-0.1-0.1-0.1s-0.1,0-0.1,0.1
		c-0.1,0-0.2,0-0.4,0s-0.3,0-0.4,0c0-0.1,0-0.2-0.1-0.2v0.1V61c0,0-0.1,0-0.2,0s-0.2,0-0.2,0l-0.1-0.1l0,0V61l-0.1-0.1
		c-0.1,0-0.1-0.1-0.2-0.1c-0.2,0-0.2,0-0.2,0s-0.1,0.1-0.1,0.2c0,0-0.1,0-0.2,0c-0.1,0-0.1,0-0.1,0s0,0,0-0.1c0,0,0,0,0-0.1
		c0,0-0.1,0-0.1,0.1c-0.1,0-0.1,0.1-0.1,0.1c-0.1-0.1-0.1-0.1-0.1-0.1s-0.1,0.1-0.1,0.2c0,0-0.1,0-0.1-0.1c0,0-0.1,0-0.2,0
		c-0.2,0-0.3,0-0.3,0.1c0,0,0,0-0.1-0.1c-0.2,0.1-0.2,0.2-0.3,0.2s-0.1,0-0.1,0c0-0.1-0.2-0.1-0.3-0.1s-0.1,0-0.1,0l0,0v0.1
		c-0.1,0-0.2,0-0.3,0s-0.2,0-0.2,0.1H52l0,0c0,0,0,0-0.1,0h-0.1c-0.1,0-0.1,0.1-0.2,0.2c0,0-0.1,0-0.2,0c-0.1,0-0.2,0-0.2,0h-0.1
		l0,0v0.1c0,0-0.1,0,0-0.1v-0.1c0,0-0.1,0-0.1,0.1l0,0c0,0,0,0-0.1,0c0,0,0,0-0.1,0c0,0-0.1,0.1-0.1,0.2c-0.2,0.1-0.3,0-0.3-0.1
		c-0.1,0-0.1,0.1-0.2,0.1c0,0.1,0,0.1,0,0.1h-0.1c0,0,0,0-0.1,0c0,0,0,0-0.1-0.1c-0.1,0-0.3,0-0.5,0.1s-0.3,0.1-0.3,0.1
		c0,0.1,0,0.1,0,0.1H49h-0.1c0,0,0,0,0-0.1v-0.1l0,0l0,0c0,0,0,0-0.1,0c0,0,0,0-0.1,0l0,0c0,0,0,0-0.1,0c0,0-0.1,0-0.2,0
		c-0.1,0-0.2,0-0.2,0h-0.1c0,0-0.1,0-0.2,0c-0.1,0-0.2,0-0.2,0s0,0-0.1,0c0,0,0,0-0.1,0h-0.1c-0.1,0-0.2,0-0.3,0c0,0,0,0,0,0.1V62
		l0,0c0,0,0,0,0-0.1c0,0,0,0-0.1,0s-0.1,0-0.1-0.1h-0.1c0-0.2-0.1-0.2-0.2-0.3c0,0.1,0,0.1,0,0.1c-0.1,0-0.1,0-0.1,0
		c0-0.1,0-0.2-0.1-0.4c-0.1-0.1-0.2-0.2-0.2-0.2s0-0.1,0-0.2s0-0.1,0-0.2c0-0.3,0-0.4,0-0.5c0,0,0-0.1,0.1-0.2c0-0.1,0-0.2,0-0.2
		s0,0,0.1,0c0,0,0,0,0.1,0c0.1-0.2,0.2-0.4,0.4-0.5c0.4,0,0.9,0,1.4,0c0-0.1,0.1-0.1,0.1-0.1c0.1,0,0.1,0,0.1,0.1h0.1l0.1-0.1
		c0,0,0.1,0,0.1,0.1c0.1,0,0.1,0,0.1,0s0,0,0.1-0.1l0.1-0.1c0,0,0,0,0.1,0.1l0.1,0.1c0,0,0.1,0,0.1-0.1h0.1c0.1-0.1,0.2-0.2,0.3-0.2
		c0,0,0.1-0.1,0.3-0.1c0,0,0,0,0.1,0h0.1c0.1,0,0.1,0,0.1,0s0,0,0.1,0c0,0,0.1,0,0.1-0.1c0,0,0,0,0.1,0h0.1c0,0,0-0.1,0.1-0.1
		c0,0,0.1,0,0.2,0c0.1,0,0.2,0,0.2-0.1c0,0,0,0,0-0.1c0,0,0,0,0-0.1c0,0,0.2,0,0.6,0c0.1-0.1,0.1-0.2,0-0.4c0-0.3,0-0.5-0.1-0.7
		c0,0,0-0.1,0-0.2c0-0.1,0-0.1,0-0.2c0-0.1,0-0.1,0-0.1s0,0,0-0.1v-0.1v-0.1v-0.1c-0.1-0.1-0.1-0.3-0.1-0.5c0-0.1,0-0.3,0-0.6
		s0-0.4,0-0.5c0,0,0,0-0.1-0.1l0,0c0,0,0,0,0-0.1v-0.1c0.1,0,0.1-0.1,0.1-0.1c0-0.1,0-0.1,0-0.1c0-0.1,0-0.2,0-0.4s0-0.2,0-0.3
		s0-0.1,0-0.2c0-0.1,0-0.1,0-0.2V53c0-0.1,0-0.1,0-0.1s0-0.1,0-0.2c0-0.1,0-0.2,0-0.2s0,0-0.1,0c0-0.1,0-0.2,0-0.3s0-0.2,0-0.5
		s0-0.5,0-0.6V51c0,0,0,0,0-0.1c0,0,0,0,0-0.1v-0.1v-0.1c0-0.1,0-0.1,0-0.1s0,0,0-0.1c0,0,0,0,0-0.1c0,0-0.1-0.1-0.1-0.4
		c-0.1,0-0.1-0.2-0.1-0.5h0.1l0,0c0,0,0,0-0.1,0l0,0c0,0,0-0.1,0-0.2c0,0,0,0,0.1,0c0-0.1,0-0.2,0-0.3c0-0.2,0-0.3,0-0.4
		c0-0.1-0.1-0.2-0.1-0.2v-0.2c0,0,0,0,0.1,0c0,0,0-0.1,0-0.2c0-0.1,0-0.3,0-0.4c0-0.2,0-0.2-0.1-0.3c0,0,0,0,0-0.1s0-0.1,0-0.1
		s0,0,0-0.1s0-0.1,0-0.1c0-0.1,0-0.1,0.1-0.1c0-0.1,0-0.2,0-0.2s0-0.2-0.1-0.4V46c0,0,0,0,0-0.1l0,0c0,0,0,0,0-0.1v-0.1v-0.1v-0.1
		c0-0.1,0-0.1,0-0.1c0-0.1,0-0.2-0.1-0.3c0-0.1,0-0.2-0.1-0.3c0-0.1-0.1-0.2-0.1-0.3H51v0.1c0-0.1-0.1-0.1-0.2,0v-0.1v-0.1h-0.1v0.1
		v0.1c0,0,0,0-0.1,0c0,0,0,0-0.1,0c0,0,0,0-0.1,0h-0.1l0,0l0,0c0,0-0.1,0.1-0.1,0.2h-0.1v-0.1c0-0.1-0.1-0.1-0.2,0v0.1l0,0
		c0,0,0,0-0.1,0c0,0,0,0-0.1,0s-0.2,0-0.3,0s-0.2,0-0.3,0c-0.2,0-0.2,0-0.3,0c-0.1-0.1-0.2-0.1-0.2,0c-0.1,0-0.1,0-0.2,0
		c-0.1,0-0.1,0-0.2,0c-0.1,0-0.1,0-0.3,0c-0.1,0-0.2,0-0.3,0l0,0c0,0,0,0,0,0.1l0,0v-0.1c0,0.1,0,0.1-0.1,0.1s-0.1-0.1-0.1-0.1
		s0,0-0.1,0c0,0,0-0.1-0.1-0.1c0,0,0-0.1-0.1-0.1c-0.2,0.1-0.3,0-0.4-0.2c0,0-0.1-0.1-0.2-0.2c-0.1-0.1-0.1-0.2-0.2-0.2
		c-0.1,0-0.1,0-0.2-0.1c0-0.1-0.1-0.1-0.1-0.2c-0.1-0.2-0.2-0.3-0.3-0.4c0-0.1,0-0.2-0.1-0.3c0,0,0-0.1,0.1-0.2
		c0-0.2,0.1-0.4,0.3-0.7c0.1,0,0.1-0.1,0.2-0.2c0,0,0,0,0.1,0s0.1,0,0.1,0s0,0,0.1-0.1c0,0,0-0.1,0.1-0.1c0,0,0.1,0,0.2,0
		c0.1,0,0.2,0,0.2,0s0-0.1,0.1-0.1l0.1-0.1c0,0,0.1,0,0.2,0.1c0.1,0.1,0.1,0.1,0.2,0.1c0,0,0,0,0.1,0h0.1c0.1,0,0.2,0,0.3,0
		s0.2,0,0.3,0s0.2,0,0.2-0.1c0.1,0.1,0.2,0.1,0.3,0c0,0,0,0,0.1,0c0,0,0,0,0.1,0c0,0,0,0,0.1,0c0,0,0,0,0-0.1c0.1,0,0.2,0,0.3,0
		s0.2,0,0.2-0.1c0.1,0.1,0.2,0.1,0.4,0v-0.1c0,0,0,0,0.1,0s0.2,0,0.3,0s0.2,0,0.3,0s0.1-0.1,0.1-0.2c0,0,0.1,0,0.2,0.1
		c0,0,0,0,0.1,0c0.4,0,0.7,0,0.8-0.1c0,0,0.1,0,0.2,0l0,0l0,0c0.1-0.1,0.1-0.1,0.3-0.1c0.1,0,0.2,0,0.3,0c0-0.1,0.1-0.1,0.1-0.1h0.2
		c0,0,0,0,0.1,0h0.1h0.1c0.2,0,0.3,0,0.4-0.1l0.1,0.1c0.2-0.2,0.3-0.2,0.4,0c0,0,0.1,0,0.2,0c0.1,0,0.2,0,0.2,0
		c0.1,0,0.1-0.1,0.1-0.1h0.1H55c0,0,0.1,0,0.2,0S54.9,41.6,55,41.6z"/>
	<path fill="#54813B" d="M64.5,44C64.5,44,64.6,44,64.5,44l0.2,0.1h0.1c0,0,0,0,0.1,0l0,0c0,0,0,0,0.1,0l0,0c0,0.2,0.1,0.2,0.2,0.2
		l0.2,0.2c0,0.1,0,0.1,0.1,0.2c0,0.1,0.1,0.1,0.1,0.1s0.1,0,0.1,0.1s0.1,0.1,0.1,0.1s0,0,0.1,0s0.1,0,0.1,0c0.1-0.1,0.2-0.1,0.2-0.1
		s0.1,0,0.2,0h0.1c0.1,0,0.1,0,0.1,0s0,0,0.1,0.1l0.1,0.1h0.1c0.1,0,0.1,0,0.1,0s0.1,0,0.1,0.1c0.1,0.1,0.1,0.1,0.2,0.1
		c0,0,0,0.1,0.1,0.1s0.1,0,0.2,0.1s0.1,0.1,0.1,0.1s0,0,0.1,0c0.2,0.2,0.4,0.3,0.5,0.3h0.1c0,0.1,0,0.1-0.1,0V46
		c0,0.1,0.1,0.2,0.2,0.3s0.2,0.2,0.2,0.4c0,0.1,0.1,0.1,0.1,0.2c0.1,0.2,0.2,0.3,0.2,0.4c0.1,0.1,0.1,0.2,0.1,0.3s0.1,0.1,0.1,0.2
		c0.1,0.1,0.1,0.2,0.1,0.3c0.1,0.2,0.1,0.3,0.1,0.4c0,0,0,0.1,0.1,0.1c0.1,0.1,0.1,0.2,0.1,0.3l0.1,0.1c0,0.1,0,0.1,0.1,0.3
		c0,0.2,0.1,0.4,0.1,0.4c0,0.2,0,0.3,0.1,0.3c0,0,0,0.1,0.1,0.3c0,0,0,0.1,0,0.2c0,0.1,0.1,0.2,0.1,0.2v0.1v0.1c0,0,0,0,0,0.1v0.1
		c0,0.1,0,0.2,0,0.3s0,0.3,0,0.3c0,0.1,0,0.1,0,0.1v0.1c0,0,0,0.1,0.1,0.2c0,0,0,0,0,0.1c0,0,0,0,0,0.1s0.1,0.4,0,0.9s0,0.9,0,1
		c0,0,0,0.1,0,0.2c0,0.1,0,0.2,0,0.2s0,0.1-0.1,0.2c0,0.1,0,0.2,0,0.2s0,0.1,0,0.2c0,0.1,0,0.1,0,0.2c-0.1,0-0.1,0.1-0.1,0.1
		c0,0.3,0,0.4,0,0.4V56c0,0,0,0.1-0.1,0.1v0.1c0,0.2-0.1,0.2-0.1,0.3v0.1c0,0,0,0-0.1,0c0,0,0,0,0,0.1c0,0,0,0.1-0.1,0.1
		c0,0.1,0,0.1,0,0.2l-0.1,0c0,0.1-0.1,0.2-0.1,0.4c-0.1,0.2-0.1,0.3-0.1,0.4c-0.1,0.1-0.1,0.3-0.1,0.4c0,0-0.1,0-0.1,0.1
		s0,0.1-0.1,0.2c0,0.1-0.1,0.2-0.1,0.3c-0.1,0-0.1,0.1-0.1,0.2c0,0.1-0.1,0.2-0.1,0.2s-0.1,0.1-0.1,0.2c0,0.1-0.1,0.2-0.1,0.2
		c0,0.1,0,0.1-0.1,0.2c-0.1,0.1-0.3,0.2-0.4,0.4C68,60.3,68,60.4,68,60.4c0,0.1-0.1,0.2-0.2,0.2c-0.1,0.1-0.2,0.2-0.2,0.2l0,0l0,0
		l-0.1,0.1c0,0.1-0.1,0.1-0.1,0.1c-0.1,0-0.1,0-0.2,0.1c0,0-0.1,0-0.2,0.1h-0.1h-0.1c0,0-0.1,0.1-0.1,0.2c-0.1,0-0.2,0-0.2,0
		c0,0.1-0.1,0.1-0.2,0.1s-0.2,0.1-0.2,0.2c-0.1,0-0.2,0-0.5,0s-0.4,0-0.5,0c0,0-0.1,0-0.2,0s-0.2,0-0.2,0s0-0.1-0.1-0.2
		c-0.1,0-0.1,0-0.1,0.1s0,0.1-0.1,0.1c0,0,0,0,0-0.1l0,0c0,0,0,0-0.1-0.1l-0.1-0.1c-0.1,0.1-0.2,0-0.3-0.1C63.4,61,63.3,61,63.2,61
		v-0.1c0,0-0.1,0-0.2-0.1c-0.1-0.1-0.2-0.1-0.3-0.1v-0.1c0,0,0-0.1-0.1-0.1c0-0.1-0.1-0.1-0.1-0.1s-0.1,0-0.1-0.1c0,0,0,0,0-0.1
		c0,0,0,0,0-0.1s0,0,0,0l0,0l0,0l0,0c0,0,0,0-0.1-0.1c0,0,0,0-0.1-0.1c0-0.1-0.1-0.1-0.1-0.1H62c0-0.1-0.1-0.1-0.2-0.3
		c-0.1-0.1-0.1-0.2-0.2-0.3h-0.1c-0.2-0.3-0.3-0.5-0.3-0.6c0,0-0.1-0.1-0.2-0.3v-0.1c0,0,0-0.1-0.1-0.1c0-0.1-0.1-0.1-0.1-0.1
		c0-0.2-0.1-0.5-0.2-0.7c0-0.1,0-0.2-0.1-0.2c0-0.1,0-0.1,0-0.1s0,0,0-0.1v-0.1v-0.1c0,0,0-0.1-0.1-0.1c0,0,0-0.2,0-0.4v-0.1V56
		c0,0,0,0-0.1-0.1v-0.1c0-0.1,0-0.2,0-0.3s0-0.3,0-0.3s0,0-0.1-0.1c0,0,0-0.1,0-0.2v-0.1v-0.1c0-0.1,0-0.1,0-0.1
		c0-0.1-0.1-0.1-0.1-0.2v-0.1v-0.1c0-0.1,0-0.2-0.1-0.3c0,0,0-0.1,0-0.2v-0.1l0.1-0.2c0-0.1,0-0.2,0-0.5s0-0.5,0-0.6s0-0.1,0-0.2
		c0-0.1,0-0.1,0-0.1c0-0.1,0-0.2,0-0.3c0-0.2,0-0.3,0-0.4s0-0.2,0.1-0.2V51v-0.1v-0.1c0,0,0-0.1,0.1-0.1c0,0,0-0.1,0-0.4
		s0-0.3,0-0.4c0-0.3,0-0.5,0-0.5s0.1,0,0.1-0.1s0.1-0.1,0.1-0.1c0-0.1,0-0.1,0-0.1V49c0,0,0-0.1,0.1-0.1v-0.1c0-0.1,0-0.1,0-0.1
		c0-0.1,0.1-0.1,0.1-0.1c0-0.1,0-0.2,0-0.3c0-0.2,0-0.2,0-0.3c0,0,0,0,0.1,0h0.1c0-0.1,0-0.1,0-0.1s0,0,0-0.1l0.1-0.2
		c0,0,0-0.1,0.1-0.2c0-0.1,0.1-0.2,0.1-0.2s0,0,0-0.1c0,0,0,0,0-0.1c0.1-0.1,0.1-0.2,0.1-0.3c0,0,0.1-0.1,0.1-0.2s0.1-0.1,0.1-0.2
		c0-0.1,0-0.2,0.1-0.3s0.1-0.2,0.1-0.2v-0.1v-0.1c0-0.1,0-0.1,0.1-0.2c0.1-0.1,0.1-0.2,0.1-0.2c0.1,0,0.1-0.1,0.2-0.3
		c0.1,0,0.1-0.1,0.1-0.3c0-0.1,0-0.1,0-0.2c0.1,0.1,0.1,0,0.2-0.1l0.1-0.1h0.1l0.1-0.1c0-0.1,0.1-0.1,0.1-0.1c0.1,0,0.2-0.1,0.3-0.3
		c0.1,0,0.1,0,0.2-0.1c0.1-0.1,0.1-0.1,0.1-0.1l0,0c0,0,0,0,0-0.1c0,0.1,0.1,0,0.3-0.1c0,0,0.1,0,0.2,0c0.1,0,0.2,0,0.2,0
		s0.1,0,0.2,0S64.4,44,64.5,44z M64.1,44c0,0,0.1,0,0.2,0s0.2,0,0.2,0s0.1,0,0.1,0.1h0.1h0.1c0,0,0,0,0.1,0l0,0c0,0,0,0,0.1,0l0,0
		c0,0.2,0.1,0.2,0.2,0.2l0.2,0.2c0,0.1,0,0.1,0.1,0.2c0,0.1,0.1,0.1,0.1,0.1s0.1,0,0.1,0.1s0.1,0.1,0.1,0.1s0,0,0.1,0s0.1,0,0.1,0
		c0.1-0.1,0.2-0.1,0.2-0.1s0.1,0,0.2,0h0.1c0.1,0,0.1,0,0.1,0s0,0,0.1,0.1l0.1,0.1h0.1c0.1,0,0.1,0,0.1,0s0.1,0,0.1,0.1
		c0.1,0.1,0.1,0.1,0.2,0.1c0,0,0,0.1,0.1,0.1s0.1,0,0.2,0.1s0.1,0.1,0.1,0.1s0,0,0.1,0c0.2,0.2,0.4,0.3,0.5,0.3h0.1
		c0,0.1,0,0.1-0.1,0V46c0,0.1,0.1,0.2,0.2,0.3s0.2,0.2,0.2,0.4c0,0.1,0.1,0.1,0.1,0.2c0.1,0.2,0.2,0.3,0.2,0.4
		c0.1,0.1,0.1,0.2,0.1,0.3s0.1,0.1,0.1,0.2c0.1,0.1,0.1,0.2,0.1,0.3c0.1,0.2,0.1,0.3,0.1,0.4c0,0,0,0.1,0.1,0.1
		c0.1,0.1,0.1,0.2,0.1,0.3l0.1,0.1c0,0.1,0,0.1,0.1,0.3c0,0.2,0.1,0.4,0.1,0.4c0,0.2,0,0.3,0.1,0.3c0,0,0,0.1,0.1,0.3
		c0,0,0,0.1,0,0.2c0,0.1,0.1,0.2,0.1,0.2v0.1v0.1c0,0,0,0,0,0.1v0.1c0,0.1,0,0.2,0,0.3s0,0.3,0,0.3c0,0.1,0,0.1,0,0.1v0.1
		c0,0,0,0.1,0.1,0.2c0,0,0,0,0,0.1c0,0,0,0,0,0.1s0.1,0.4,0,0.9s0,0.9,0,1c0,0,0,0.1,0,0.2c0,0.1,0,0.2,0,0.2s0,0.1-0.1,0.2
		c0,0.1,0,0.2,0,0.2s0,0.1,0,0.2c0,0.1,0,0.1,0,0.2c-0.1,0-0.1,0.1-0.1,0.1c0,0.3,0,0.4,0,0.4V56c0,0,0,0.1-0.1,0.1v0.1
		c0,0.2-0.1,0.2-0.1,0.3v0.1c0,0,0,0-0.1,0c0,0,0,0,0,0.1c0,0,0,0.1-0.1,0.1c0,0.1,0,0.1,0,0.2l-0.1,0c0,0.1-0.1,0.2-0.1,0.4
		c-0.1,0.2-0.1,0.3-0.1,0.4c-0.1,0.1-0.1,0.3-0.1,0.4c0,0-0.1,0-0.1,0.1s0,0.1-0.1,0.2c0,0.1-0.1,0.2-0.1,0.3
		c-0.1,0-0.1,0.1-0.1,0.2c0,0.1-0.1,0.2-0.1,0.2s-0.1,0.1-0.1,0.2c0,0.1-0.1,0.2-0.1,0.2c0,0.1,0,0.1-0.1,0.2
		c-0.1,0.1-0.3,0.2-0.4,0.4C68,60.3,68,60.4,68,60.4c0,0.1-0.1,0.2-0.2,0.2c-0.1,0.1-0.2,0.2-0.2,0.2l0,0l0,0l-0.1,0.1
		c0,0.1-0.1,0.1-0.1,0.1c-0.1,0-0.1,0-0.2,0.1c0,0-0.1,0-0.2,0.1h-0.1h-0.1c0,0-0.1,0.1-0.1,0.2c-0.1,0-0.2,0-0.2,0
		c0,0.1-0.1,0.1-0.2,0.1s-0.2,0.1-0.2,0.2c-0.1,0-0.2,0-0.5,0s-0.4,0-0.5,0c0,0-0.1,0-0.2,0s-0.2,0-0.2,0s0-0.1-0.1-0.2
		c-0.1,0-0.1,0-0.1,0.1s0,0.1-0.1,0.1c0,0,0,0,0-0.1l0,0c0,0,0,0-0.1-0.1l-0.1-0.1c-0.1,0.1-0.2,0-0.3-0.1C63.4,61,63.3,61,63.2,61
		v-0.1c0,0-0.1,0-0.2-0.1c-0.1-0.1-0.2-0.1-0.3-0.1v-0.1c0,0,0-0.1-0.1-0.1c0-0.1-0.1-0.1-0.1-0.1s-0.1,0-0.1-0.1c0,0,0,0,0-0.1
		c0,0,0,0,0-0.1s0,0,0,0l0,0l0,0l0,0c0,0,0,0-0.1-0.1c0,0,0,0-0.1-0.1c0-0.1-0.1-0.1-0.1-0.1H62c0-0.1-0.1-0.1-0.2-0.3
		c-0.1-0.1-0.1-0.2-0.2-0.3h-0.1c-0.2-0.3-0.3-0.5-0.3-0.6c0,0-0.1-0.1-0.2-0.3v-0.1c0,0,0-0.1-0.1-0.1c0-0.1-0.1-0.1-0.1-0.1
		c0-0.2-0.1-0.5-0.2-0.7c0-0.1,0-0.2-0.1-0.2c0-0.1,0-0.1,0-0.1s0,0,0-0.1v-0.1v-0.1c0,0,0-0.1-0.1-0.1c0,0,0-0.2,0-0.4v-0.1V56
		c0,0,0,0-0.1-0.1v-0.1c0-0.1,0-0.2,0-0.3s0-0.3,0-0.3s0,0-0.1-0.1c0,0,0-0.1,0-0.2v-0.1v-0.1c0-0.1,0-0.1,0-0.1
		c0-0.1-0.1-0.1-0.1-0.2v-0.1v-0.1c0-0.1,0-0.2-0.1-0.3c0,0,0-0.1,0-0.2v-0.1l0.1-0.2c0-0.1,0-0.2,0-0.5s0-0.5,0-0.6s0-0.1,0-0.2
		c0-0.1,0-0.1,0-0.1c0-0.1,0-0.2,0-0.3c0-0.2,0-0.3,0-0.4s0-0.2,0.1-0.2V51v-0.1v-0.1c0,0,0-0.1,0.1-0.1c0,0,0-0.1,0-0.4
		s0-0.3,0-0.4c0-0.3,0-0.5,0-0.5s0.1,0,0.1-0.1s0.1-0.1,0.1-0.1c0-0.1,0-0.1,0-0.1V49c0,0,0-0.1,0.1-0.1v-0.1c0-0.1,0-0.1,0-0.1
		c0-0.1,0.1-0.1,0.1-0.1c0-0.1,0-0.2,0-0.3c0-0.2,0-0.2,0-0.3c0,0,0,0,0.1,0h0.1c0-0.1,0-0.1,0-0.1s0,0,0-0.1l0.1-0.2
		c0,0,0-0.1,0.1-0.2c0-0.1,0.1-0.2,0.1-0.2s0,0,0-0.1c0,0,0,0,0-0.1c0.1-0.1,0.1-0.2,0.1-0.3c0,0,0.1-0.1,0.1-0.2s0.1-0.1,0.1-0.2
		c0-0.1,0-0.2,0.1-0.3s0.1-0.2,0.1-0.2v-0.1v-0.1c0-0.1,0-0.1,0.1-0.2c0.1-0.1,0.1-0.2,0.1-0.2c0.1,0,0.1-0.1,0.2-0.3
		c0.1,0,0.1-0.1,0.1-0.3c0-0.1,0-0.1,0-0.2c0.1,0.1,0.1,0,0.2-0.1l0.1-0.1h0.1l0.1-0.1c0-0.1,0.1-0.1,0.1-0.1c0.1,0,0.2-0.1,0.3-0.3
		c0.1,0,0.1,0,0.2-0.1c0.1-0.1,0.1-0.1,0.1-0.1l0,0c0,0,0,0,0-0.1c0,0.1,0.1,0,0.3-0.1c0,0,0.1,0,0.2,0C64,43.9,64,44,64.1,44z
		 M64.4,46.4c-0.1,0.1-0.3,0.2-0.4,0.3s-0.2,0.2-0.3,0.3s-0.2,0.3-0.2,0.4c0,0,0,0.1-0.1,0.1c0,0.1-0.1,0.1-0.1,0.1v0.1v0.1v0.1
		c0,0-0.1,0.1-0.1,0.4c0,0.1,0,0.1-0.1,0.2c0,0.1-0.1,0.1-0.1,0.1c0,0.1,0,0.1,0,0.1s0,0.1-0.1,0.1v0.1c0,0.1,0,0.1,0,0.1v0.1
		c-0.1,0.1-0.1,0.1,0,0.2c-0.1,0.1-0.1,0.2-0.1,0.4c-0.1,0.1-0.1,0.3-0.1,0.5c-0.1,0.1-0.1,0.2-0.1,0.4c-0.1,0.2-0.1,0.4-0.1,0.6
		c0,0,0,0,0,0.1c0,0,0,0,0,0.1s0,0.2,0,0.3s0,0.2,0,0.3s-0.1,0.2-0.1,0.5v0.1c0,0.1,0,0.1,0,0.1v0.1v0.1c0,0.1,0.1,0.1,0.1,0.2
		c0,0.1,0,0.2,0,0.4c0,0.1,0,0.3,0,0.3v0.1V54l0.1,0.1c0,0.1,0,0.2,0,0.4v0.1v0.1v0.1v0.1c0,0.1,0,0.2,0,0.3v0.1c0,0,0,0,0,0.1l0,0
		c0,0,0,0,0,0.1s0,0.2,0,0.2c0,0.1,0,0.1,0,0.2c0,0.1,0,0.1,0,0.1s0,0,0,0.1v0.1c0,0,0,0,0,0.1v0.1v0.1v0.1c0,0,0,0,0,0.1v0.1
		c0,0,0,0,0,0.1c0,0,0,0.1,0.1,0.1v0.1c-0.1,0.1,0,0.2,0.1,0.4v0.1c0,0,0,0.1,0.1,0.1l0.1,0.1l0.1,0.2c0.1,0.1,0.1,0.2,0.3,0.4
		c0.1,0.2,0.2,0.3,0.2,0.3h0.1c0.1,0.3,0.3,0.4,0.4,0.4c0.1,0.1,0.1,0.1,0.1,0.1h0.1c0.1,0,0.1,0,0.1,0s0,0.1,0.1,0.1l0.1,0.1
		c0,0,0,0,0.1,0c0,0,0,0,0.1,0c0,0,0,0,0.1,0H65c0.1,0,0.3,0,0.4,0c0,0,0.1,0,0.1-0.1s0.1-0.1,0.1-0.1c0.1,0,0.1,0,0.1,0
		s0,0,0.1-0.1c0,0,0-0.1,0.1-0.1H66c0.1-0.1,0.1-0.1,0.2-0.1c0.1-0.1,0.2-0.2,0.3-0.3c0.1-0.2,0.3-0.3,0.3-0.3v-0.1v-0.1
		c0,0,0,0,0-0.1s0.1-0.1,0.1-0.2c0.1-0.1,0.1-0.1,0.1-0.1s0-0.1,0.1-0.2c0-0.1,0.1-0.2,0.1-0.2s0-0.1,0.1-0.1l0.1-0.1
		c0.1-0.1,0.1-0.2,0.1-0.2v-0.1c0,0,0.1-0.2,0.2-0.4c0,0,0-0.1,0.1-0.1c0,0,0-0.2,0.1-0.4c0-0.1,0-0.1,0.1-0.2v-0.1c0,0,0,0,0-0.1
		c0,0,0,0,0.1-0.1v-0.1c0-0.1,0-0.1,0-0.1c0.1-0.1,0.1-0.3,0.2-0.7v-0.2v-0.1v-0.1c0.1-0.1,0.1-0.1,0.1-0.2v-0.1v-0.1
		c0-0.1,0-0.1,0.1-0.2c0-0.1,0.1-0.1,0.1-0.2c0-0.1,0-0.1,0-0.2c0-0.1,0-0.2,0-0.2v-0.1v-0.1c0,0,0-0.1-0.1-0.1v-0.1
		c0.1-0.1,0.1-0.1,0.1-0.1v-0.1v-0.1c0-0.1,0-0.1,0-0.2c0-0.1,0-0.2,0-0.2v-0.1v-0.1c0,0,0-0.1-0.1-0.1c0-0.1,0-0.1,0-0.1v-0.1
		c0-0.1,0-0.1,0-0.2c0-0.1,0-0.1,0-0.1v-0.1v-0.1c0-0.1,0-0.1,0-0.1c0-0.1,0-0.1,0-0.1c-0.1,0-0.1-0.1-0.1-0.3s0-0.3-0.1-0.3
		c0,0,0-0.1,0-0.2c0-0.1,0-0.2,0-0.2c-0.1-0.1-0.1-0.2-0.1-0.3c-0.2-0.5-0.5-0.9-0.8-1.4h-0.1c0-0.1-0.1-0.2-0.2-0.2H67l-0.1-0.1
		c0,0,0-0.1-0.1-0.1c-0.1-0.1-0.1-0.1-0.2-0.1h-0.1c-0.1,0-0.1,0-0.1,0c-0.1-0.1-0.1-0.1-0.2-0.1c0,0-0.1,0-0.2,0s-0.1,0-0.2,0
		c-0.1-0.2-0.2-0.2-0.3-0.2c0-0.1,0-0.2,0-0.2v-0.1v-0.1c0-0.1,0-0.1-0.1-0.1h-0.1c0-0.1,0-0.2-0.1-0.2s-0.2,0-0.3,0
		C64.6,46.4,64.5,46.4,64.4,46.4z M65.1,46.4c-0.1,0-0.2,0-0.3,0c-0.1,0-0.2,0-0.3,0c-0.1,0.1-0.3,0.2-0.4,0.3s-0.2,0.2-0.3,0.3
		s-0.2,0.3-0.2,0.4c0,0,0,0.1-0.1,0.1c0,0.1-0.1,0.1-0.1,0.1v0.1v0.1v0.1c0,0-0.1,0.1-0.1,0.4c0,0.1,0,0.1-0.1,0.2
		c0,0.1-0.1,0.1-0.1,0.1c0,0.1,0,0.1,0,0.2c0,0,0,0.1-0.1,0.1V49c0,0.1,0,0.1,0,0.1v0.1c-0.1,0.1-0.1,0.1,0,0.2
		c-0.1,0.1-0.1,0.2-0.1,0.4c-0.1,0.1-0.1,0.3-0.1,0.5c-0.1,0.1-0.1,0.2-0.1,0.4c-0.1,0.2-0.1,0.4-0.1,0.6c0,0,0,0,0,0.1
		c0,0,0,0,0,0.1s0,0.2,0,0.3s0,0.2,0,0.3s-0.1,0.2-0.1,0.5v0.1c0,0.1,0,0.1,0,0.1v0.1V53c0,0.1,0.1,0.1,0.1,0.2c0,0.1,0,0.2,0,0.4
		c0,0.1,0,0.3,0,0.3V54v0.1l0.1,0.1c0,0.1,0,0.2,0,0.4v0.1v0.1v0.1V55c0,0.1,0,0.2,0,0.3v0.1c0,0,0,0,0,0.1l0,0c0,0,0,0,0,0.1
		s0,0.2,0,0.2c0,0.1,0,0.1,0,0.2c0,0.1,0,0.1,0,0.1s0,0,0,0.1v0.1c0,0,0,0,0,0.1v0.1v0.1v0.1c0,0,0,0,0,0.1v0.1c0,0,0,0,0,0.1
		c0,0,0,0.1,0.1,0.1v0.1c-0.1,0.1,0,0.2,0.1,0.4v0.1c0,0,0,0.1,0.1,0.1l0.1,0.1l0.1,0.2c0.1,0.1,0.1,0.2,0.3,0.4
		c0.1,0.2,0.2,0.3,0.2,0.3h0.1c0.1,0.3,0.3,0.4,0.4,0.4c0.1,0.1,0.1,0.1,0.1,0.1h0.1c0.1,0,0.1,0,0.1,0s0,0.1,0.1,0.1l0.1,0.1
		c0,0,0,0,0.1,0c0,0,0,0,0.1,0c0,0,0,0,0.1,0h0.1c0.1,0,0.3,0,0.4,0c0,0,0.1,0,0.1-0.1s0.1-0.1,0.1-0.1c0.1,0,0.1,0,0.1,0
		s0,0,0.1-0.1c0,0,0-0.1,0.1-0.1h0.1c0.1-0.1,0.1-0.1,0.2-0.1c0.1-0.1,0.2-0.2,0.3-0.3c0.1-0.2,0.3-0.3,0.3-0.3v-0.1v-0.1
		c0,0,0,0,0-0.1S67,58,67,57.9c0.1-0.1,0.1-0.1,0.1-0.1s0-0.1,0.1-0.2c0-0.1,0.1-0.2,0.1-0.2s0-0.1,0.1-0.1l0.1-0.1
		c0.1-0.1,0.1-0.2,0.1-0.2v-0.1c0,0,0.1-0.2,0.2-0.4c0,0,0-0.1,0.1-0.1c0,0,0-0.2,0.1-0.4c0-0.1,0-0.1,0.1-0.2v-0.1c0,0,0,0,0-0.1
		c0,0,0,0,0.1-0.1v-0.1c0-0.1,0-0.1,0-0.1c0.1-0.1,0.1-0.3,0.2-0.7v-0.2v-0.1v-0.1c0.1-0.1,0.1-0.1,0.1-0.2v-0.1v-0.1
		c0-0.1,0-0.1,0.1-0.2c0-0.1,0.1-0.1,0.1-0.2c0-0.1,0-0.1,0-0.2c0-0.1,0-0.2,0-0.2v-0.1v-0.1c0,0,0-0.1-0.1-0.1v-0.1
		c0.1-0.1,0.1-0.1,0.1-0.1v-0.1v-0.1c0-0.1,0-0.1,0-0.2c0-0.1,0-0.2,0-0.2v-0.1v-0.1c0,0,0-0.1-0.1-0.1c0-0.1,0-0.1,0-0.1v-0.1
		c0-0.1,0-0.1,0-0.2c0-0.1,0-0.1,0-0.1V51v-0.1c0-0.1,0-0.1,0-0.1c0-0.1,0-0.1,0-0.1c-0.1,0-0.1-0.1-0.1-0.3s0-0.3-0.1-0.3
		c0,0,0-0.1,0-0.2c0-0.1,0-0.2,0-0.2c-0.1-0.1-0.1-0.2-0.1-0.3c-0.2-0.5-0.5-0.9-0.8-1.4h-0.1c0-0.1-0.1-0.2-0.2-0.2h-0.1L67,47.7
		c0,0,0-0.1-0.1-0.1c-0.1-0.1-0.1-0.1-0.2-0.1h-0.1c-0.1,0-0.1,0-0.1,0c-0.1-0.1-0.1-0.1-0.2-0.1c0,0-0.1,0-0.2,0s-0.1,0-0.2,0
		c-0.1-0.2-0.2-0.2-0.3-0.2c0-0.1,0-0.2,0-0.2v-0.1v-0.1c0-0.1,0-0.1-0.1-0.1h-0.1C65.1,46.5,65.1,46.4,65.1,46.4z"/>
	<path fill="#54813B" d="M79.8,39.4c0,0,0.1,0,0.2,0c0,0.1,0,0.1,0,0.2h0.1h0.1v0.1c0,0,0,0,0.1,0c0,0,0,0,0.1,0h0.1
		c0,0,0,0,0.1,0.1c0,0,0,0,0,0.1c0,0,0,0,0.1,0V40c0,0,0,0,0.1,0c0.1-0.1,0.2-0.1,0.3,0l0.1,0.2c0.1,0,0.2,0.1,0.2,0.1
		c0,0.1,0.1,0.2,0.1,0.2c0.1,0.2,0.2,0.2,0.2,0.3c0,0,0,0.1,0,0.2v0.1c0,0.1,0,0.1,0,0.1v0.1l0.1,0.1c0,0,0,0-0.1,0.1c0,0,0,0,0,0.1
		c0,0,0,0,0,0.1s0,0.1,0,0.1s0,0,0,0.1V42v0.1v0.1c0,0.1,0,0.1,0.1,0.2c0,0.1,0.1,0.1,0.1,0.1l0,0h-0.1c0,0,0,0.1,0,0.2l0,0l0,0
		c0,0.1,0,0.1-0.1,0.1l0,0c0,0.1,0,0.2,0,0.3v0.1c0,0.1,0,0.1,0,0.3c0,0.1,0,0.2,0.1,0.2c0,0,0,0,0,0.1s0,0,0,0.1s0,0.2,0,0.3
		c0,0.2,0,0.2,0,0.3s0,0.1,0,0.1v0.1c0,0.1,0,0.1,0,0.2c0,0.1,0,0.2,0,0.2s0,0.1,0.1,0.1c0,0.1,0,0.1-0.1,0.1
		c-0.1,0.1-0.1,0.2,0,0.3c0,0,0,0.1,0,0.2c0,0.1,0,0.2,0,0.2c0,0.2,0.1,0.3,0.1,0.4v0.1v0.1v0.1c0,0.1,0,0.1,0,0.1
		c0,0.1,0,0.1,0,0.2l0,0H82l0,0l0,0c0,0,0,0-0.1,0v0.1v0.1H82c0,0.1,0,0.2-0.1,0.3c0,0,0,0.1,0,0.3s0,0.3,0.1,0.3
		c-0.1,0.1-0.1,0.1-0.1,0.2c0,0.1,0.1,0.1,0.1,0.1c0,0.1,0,0.1,0,0.2c0,0,0,0-0.1,0c0,0.5,0,0.8,0.1,0.8v0.1c0,0.1,0,0.1,0,0.2v0.1
		c0,0,0,0.1,0.1,0.1c0,0.1,0,0.2,0,0.4s0,0.3,0,0.4c0,0,0,0,0.1,0c0,0.1,0,0.2,0,0.2c0,0.1,0,0.2,0,0.4s0,0.3,0,0.3v0.5
		c0,0.2,0,0.2,0.1,0.3c0,0,0,0,0,0.1c0,0,0,0-0.1,0.1l0.1,0.1c0,0,0,0.1-0.1,0.1c0.1,0.1,0.1,0.1,0.1,0.2c-0.1,0-0.1,0-0.1,0.1
		s0,0.1,0.1,0.1c0,0.1,0,0.1,0,0.3c0,0.3,0,0.4,0.1,0.4c0,0.5,0,0.8,0.1,0.9c0,0.3,0,0.5,0,0.5v0.1c0,0,0,0.1,0.1,0.1
		c0,0,0,0.1,0,0.2c0,0.1,0,0.2,0,0.2V56v0.1v0.1l0,0l0,0c0,0.2,0,0.3,0.1,0.4c0,0.1,0,0.3,0.1,0.4c0.1,0.2,0.1,0.3,0.1,0.4
		c0.1,0.2,0.1,0.3,0.1,0.3c0,0.1,0,0.1,0.1,0.2c0.1,0.1,0.1,0.1,0.1,0.2c0,0.1,0,0.2,0,0.3s0,0.2,0,0.3c0,0,0,0.1,0.1,0.1v0.1
		c0,0,0,0.1-0.1,0.1C83,58.7,83,58.9,83,59c0,0-0.1,0-0.1,0.1c-0.1,0-0.1,0-0.1,0s0,0.1-0.1,0.1c0,0.1-0.1,0.1-0.1,0.2
		c-0.1,0.1-0.1,0.1-0.1,0.2c-0.1,0-0.1,0-0.1-0.1c-0.1,0-0.1,0.1-0.1,0.2c-0.1,0-0.2,0-0.2,0C82,59.6,82,59.6,82,59.6
		s-0.1,0-0.1,0.1l-0.1,0.1l0,0v-0.1c0,0,0-0.1-0.1-0.1l-0.1-0.1c0,0-0.1-0.1-0.1-0.2c-0.1-0.1-0.1-0.2-0.1-0.2L81.3,59l-0.1-0.1
		h-0.1l0,0c0-0.2,0-0.3-0.1-0.3c0,0,0,0-0.1,0c0,0,0,0-0.1,0c0-0.1-0.1-0.2-0.1-0.2c0-0.1-0.1-0.1-0.1-0.1s0-0.1-0.1-0.1
		c0-0.1-0.1-0.1-0.1-0.1c-0.1,0-0.1-0.1-0.2-0.2c-0.1-0.1-0.1-0.1-0.2-0.1c0-0.1,0-0.1-0.1-0.2l-0.1-0.1c0,0.1,0,0.1-0.1,0.1
		c0,0-0.1-0.1-0.1-0.2h-0.1c-0.1-0.1-0.3-0.2-0.5-0.4c0-0.1-0.1-0.2-0.3-0.3c-0.1,0-0.1-0.1-0.1-0.1s0,0-0.1,0c0,0,0,0-0.1,0v-0.1
		c-0.1-0.1-0.2-0.2-0.3-0.4c-0.2-0.1-0.3-0.3-0.3-0.3s0,0-0.1,0c0,0,0,0-0.1,0c0,0,0,0,0-0.1c-0.2-0.2-0.3-0.3-0.3-0.3
		s0-0.1-0.1-0.1c-0.1-0.1-0.1-0.1-0.1-0.1c0,0.1-0.1,0.1-0.1,0v-0.1c0,0,0-0.1-0.1-0.1l-0.1-0.1c0,0,0,0-0.1,0c0,0,0,0-0.1,0
		c0-0.1-0.1-0.2-0.1-0.2h-0.1l0,0c0-0.1,0-0.1-0.1-0.1c0,0,0,0-0.1,0.1c0,0,0,0-0.1,0v-0.1v-0.1c0,0,0,0,0-0.1c0,0,0,0-0.1-0.1
		c0-0.1-0.1-0.1-0.1-0.2c0.2,0,0.1-0.1,0-0.1c0-0.1-0.1-0.2-0.3-0.2v-0.1c-0.2-0.2-0.3-0.4-0.3-0.4s-0.1-0.1-0.2-0.2
		c0,0,0-0.1-0.1-0.2l0,0l0,0v-0.1c-0.1,0-0.1-0.1-0.2-0.2c-0.1-0.1-0.2-0.2-0.2-0.2s0,0.1,0,0.4v0.4c0,0.1,0,0.1-0.1,0.2
		c0,0.2,0,0.3,0,0.4c0,0,0,0,0.1,0c0,0,0,0,0,0.1c-0.1,0-0.1,0.1-0.1,0.1v0.1c0,0.1,0,0.1,0,0.1v0.1c0,0.1,0,0.1,0,0.1
		c0,0.1,0,0.1,0,0.2c0,0.1,0,0.2,0,0.2s0,0.1,0,0.2c0,0.1,0,0.1,0,0.2c0,0.1,0,0.1,0,0.2c0,0,0,0.1,0,0.2c0,0.1,0,0.2,0,0.3
		S74.4,56,74.4,56c0,0.1,0,0.1,0.1,0.2v0.1c0,0,0,0-0.1,0c0,0.1,0,0.2,0,0.3s0,0.2,0,0.4s0,0.3,0,0.4c0,0.1,0,0.2,0,0.2
		c0,0.1,0,0.1,0,0.2c0,0.1,0,0.1,0,0.2c0,0.2,0,0.2,0,0.2s0,0,0.1,0c0,0.1,0,0.1,0,0.1s0,0,0,0.1s0,0.1,0,0.1v0.1c0,0,0,0.1,0.1,0.2
		v0.8c0,0,0,0.1,0,0.4v0.1c0,0,0,0.1,0.1,0.1c0,0.1,0,0.1,0,0.2l-0.1,0.1c0,0.1,0,0.1-0.1,0.2c0,0.1-0.1,0.2-0.1,0.2V61v0.1
		c0,0,0,0-0.1,0c0,0,0,0,0,0.1s0,0.1,0,0.1C74.2,61.1,74.1,61,74,61v0.2c0,0,0,0-0.1,0.1h-0.1l0,0c0,0.1-0.1,0.1-0.1,0
		c-0.3,0.1-0.5,0.1-0.6,0c0,0,0-0.1-0.1-0.1c0,0,0-0.1-0.1-0.1h-0.1c0,0,0-0.1-0.1-0.2c-0.1-0.1-0.1-0.2-0.1-0.3
		c0,0-0.1-0.1-0.3-0.3c0-0.1,0-0.1,0-0.2V60v-0.2v-0.1v-0.1c0-0.1,0-0.1-0.1-0.1h-0.1l0.1-0.1c0.1-0.1,0.1-0.3,0.1-0.5v-0.1
		c0-0.1,0-0.1,0-0.2c0-0.1,0-0.1,0-0.2v-0.1c0,0,0-0.1-0.1-0.1c0-0.2,0-0.3,0-0.4c0-0.1,0-0.1,0-0.3s0-0.2,0-0.3v-0.1l0,0
		c0,0,0-0.1,0-0.2c0-0.1,0-0.2,0-0.2s0,0,0-0.1c0,0,0,0,0-0.1v-0.1c0-0.1,0-0.1,0-0.1s0,0,0-0.1c0,0,0,0,0-0.1c0,0,0,0,0.1,0
		c0-0.2,0-0.3-0.1-0.5c0,0,0,0,0.1,0c0-0.1,0-0.2,0-0.4s0-0.4,0-0.4s-0.1-0.1,0-0.2c0-0.1,0-0.2,0-0.2v-0.1c0-0.1,0-0.1,0-0.1
		c0-0.1,0-0.1,0-0.1c0-0.1,0-0.2,0-0.4s0-0.3,0-0.4c0,0,0-0.1-0.1-0.1v-0.1c0,0,0-0.1,0.1-0.2c0-0.2,0-0.3,0-0.4
		c0-0.1-0.1-0.1-0.1-0.2c0-0.1,0-0.1,0-0.2s0-0.1,0-0.2c0-0.1,0-0.2,0-0.3c0,0,0-0.1-0.1-0.1c0-0.1,0-0.2,0-0.3s0.1-0.2,0.1-0.3
		c0,0,0-0.1-0.1-0.2c0-0.1,0-0.2,0-0.3v-0.1v-0.1v-0.1V50c0,0,0,0-0.1-0.1c0,0,0,0-0.1-0.1H72c0-0.1,0-0.1,0-0.2s0-0.2,0-0.2v-0.1
		c0-0.2,0-0.2-0.1-0.3c0,0,0,0,0.1,0v-0.1v-0.1v-0.1c0-0.1,0-0.2,0-0.4s0-0.3-0.1-0.4c0.1-0.1,0-0.2-0.1-0.4c0,0,0,0,0-0.1
		c0,0,0,0,0-0.1c0,0,0-0.1-0.1-0.1v-0.1c0-0.2,0-0.3-0.1-0.4c0-0.1,0-0.2,0-0.3s0-0.2,0-0.3s0.1-0.1,0.1-0.1c0-0.1,0-0.1,0-0.2
		c0,0,0,0,0-0.1s0-0.1,0-0.1c0.1-0.1,0.1-0.2,0.2-0.3c0.1-0.3,0.2-0.5,0.3-0.6c0.1-0.1,0.1-0.2,0.1-0.2s0.1-0.1,0.2-0.1
		c0,0,0,0,0.1-0.1c0-0.1,0.1-0.1,0.1-0.1s0,0,0.1,0c0,0,0,0,0.1,0c0,0,0,0,0.1-0.1c0,0,0,0,0.1,0c0,0.2,0.1,0.3,0.2,0.3
		c0.2,0,0.2,0,0.3,0l0,0c0,0,0,0,0,0.1c0.1,0,0.1,0,0.2,0.1s0.1,0.1,0.1,0.1v0.1c0.1,0,0.2,0.2,0.2,0.4c0,0.1,0,0.2,0.1,0.3h0.1
		c0,0,0,0,0,0.1c0,0,0,0-0.1,0.1c0,0.2,0,0.3,0.1,0.4v0.1v0.1v0.1v0.1c0,0.1,0,0.1,0,0.1s0,0,0,0.1v0.1v0.1c0,0,0,0.1,0.1,0.1
		c0,0,0,0.1,0.1,0.1l0,0v0.1c0,0,0,0,0.1,0c0,0.1,0,0.1,0,0.2c0,0.1,0.1,0.2,0.1,0.2c0,0.1,0.1,0.3,0.2,0.5c0,0.1,0.1,0.3,0.2,0.4
		c0,0.1,0,0.1,0,0.2c0.1,0.1,0.2,0.2,0.3,0.4c0.1,0.1,0.1,0.2,0.2,0.3s0.2,0.2,0.2,0.3c0.1,0.2,0.2,0.4,0.5,0.6v0.1
		c0,0.1,0.1,0.1,0.1,0.2c0.1,0.1,0.1,0.1,0.2,0.2c0.1,0,0.1,0,0.1,0s0,0,0,0.1c0,0,0,0,0,0.1s0.1,0.1,0.1,0.1
		c0.1,0.2,0.2,0.3,0.3,0.3c0.1,0.1,0.1,0.2,0.1,0.2c0.2,0.3,0.4,0.5,0.5,0.6c0,0,0,0,0,0.1c0,0,0,0,0.1,0.1l0,0l0,0
		c0,0.1,0.1,0.1,0.2,0.2c0.1,0.1,0.2,0.2,0.2,0.2s0.1,0,0.1,0.1s0.1,0.1,0.1,0.1l0,0l0,0c0,0,0,0,0,0.1v0.1l0,0l0,0
		c0,0,0.1,0,0.1,0.1c0.1,0,0.1,0,0.1,0.1s0.1,0.1,0.1,0.1l0,0l0,0c0,0.1,0,0.1,0.1,0.2l0,0l0,0c0,0.1,0.1,0.2,0.2,0.2
		c0.1,0.1,0.1,0.1,0.2,0.2h0.1c0,0,0,0.1,0.1,0.1c0,0.1,0.1,0.1,0.1,0.1s0.1,0.1,0.2,0.2c0.1,0,0.1-0.1,0.1-0.2c0-0.1,0-0.2-0.1-0.2
		c0.1-0.1,0.1-0.2,0-0.3c0-0.1,0-0.1,0-0.2c0-0.1,0-0.2,0-0.2s0-0.1-0.1-0.1c-0.1-0.1-0.1-0.2,0-0.3c-0.1-0.2,0-0.3,0.1-0.4
		c0,0,0-0.1,0-0.2c0-0.1,0-0.2,0-0.2v-0.1c0-0.1,0-0.1,0-0.1c0-0.1,0-0.1,0-0.2c0-0.1,0-0.2,0-0.2c-0.1-0.1-0.1-0.2,0-0.3
		c0,0,0,0-0.1-0.1c0,0,0,0,0-0.1c0.1-0.1,0.1-0.2,0.1-0.2s0,0-0.1,0s0,0-0.1,0c-0.1-0.1-0.1-0.2,0.1-0.4c0,0,0-0.2,0-0.4l0,0v0.1
		c0,0,0-0.1,0-0.2c0-0.1,0-0.2-0.1-0.2c0,0,0-0.1,0-0.3s0-0.2,0-0.2l0,0l0,0c0,0,0.1,0,0.1-0.1s0-0.1,0-0.1s0,0-0.1,0.1
		c0,0,0,0.1-0.1,0.1c0,0,0-0.1,0-0.2c0.1,0,0.1-0.1,0.1-0.1c0-0.1,0-0.2-0.1-0.3c0,0,0,0,0-0.1c0,0,0,0,0-0.1
		c0.7,0.5,0.6,0.4,0.6,0.3v-0.1l0.1-0.1v-0.1c0-0.1,0-0.3,0.1-0.4c0,0,0-0.1,0-0.2c0-0.1,0-0.1,0-0.2c0,0,0-0.1-0.1-0.1
		c0-0.1,0-0.1-0.1-0.1c0-0.2,0-0.2,0-0.3h-0.1v-0.1V47H80v-0.3v-0.1l0,0v-0.1c0-0.1,0-0.1,0-0.1s0,0,0-0.1s0-0.1,0-0.1v-0.1
		c0-0.1,0-0.1,0-0.1s0-0.1,0.1-0.1c0-0.1,0-0.1-0.1-0.1l-0.1-0.1c0,0,0-0.1,0.1-0.1c0-0.1,0.1-0.1,0.1-0.1c-0.1-0.2-0.1-0.3,0-0.4
		c0,0,0-0.1,0-0.2c0-0.1-0.1-0.1-0.1-0.2c-0.1-0.1-0.2-0.3-0.1-0.4c0,0,0,0,0.1,0c0,0,0,0,0.1,0c0-0.1,0-0.1-0.1-0.1
		c0,0,0-0.1,0.1-0.2c0-0.1-0.1-0.2-0.1-0.2l0,0l0,0c0,0,0-0.1,0-0.2c0-0.1,0-0.1,0-0.1s0,0-0.1-0.1c0,0,0,0,0-0.1s0-0.1,0-0.3
		c0-0.1,0.1-0.2,0.1-0.2s0-0.1-0.1-0.1c0,0,0-0.1,0.1-0.2c0-0.3,0-0.4,0-0.5s0-0.1,0.1-0.1v-0.1v-0.1c0,0,0,0,0-0.1c0,0,0,0,0-0.1
		s0-0.1,0-0.2c0-0.2-0.1-0.3-0.1-0.4c0-0.1,0-0.2,0-0.4s0-0.3,0-0.4l0,0l0,0c0.1-0.1,0.1-0.2,0.1-0.2c0-0.1,0-0.2,0.1-0.4
		C79.8,39.5,79.8,39.4,79.8,39.4z M79.9,39.4c0,0.1,0,0.1,0,0.2H80h0.1v0.1c0,0,0,0,0.1,0c0,0,0,0,0.1,0h0.1c0,0,0,0,0.1,0.1
		c0,0,0,0,0,0.1c0,0,0,0,0.1,0V40c0,0,0,0,0.1,0c0.1-0.1,0.2-0.1,0.3,0l0.1,0.2c0.1,0,0.2,0.1,0.2,0.1c0,0.1,0.1,0.2,0.1,0.2
		c0.1,0.2,0.2,0.2,0.2,0.3c0,0,0,0.1,0,0.2v0.1c0,0.1,0,0.1,0,0.1v0.1l0.1,0.1c0,0,0,0-0.1,0.1c0,0,0,0,0,0.1c0,0,0,0,0,0.1
		s0,0.1,0,0.1s0,0,0,0.1V42c0,0,0,0.1,0,0.2c0,0.1,0,0.1,0.1,0.2c0,0.1,0.1,0.1,0.1,0.1l0,0h-0.1c0,0,0,0.1,0,0.2l0,0l0,0
		c0,0.1,0,0.1-0.1,0.1l0,0c0,0.1,0,0.2,0,0.3v0.1c0,0.1,0,0.1,0,0.3c0,0.1,0,0.2,0.1,0.2c0,0,0,0,0,0.1s0,0,0,0.1s0,0.2,0,0.3
		c0,0.2,0,0.3,0,0.3v0.1v0.1c0,0.1,0,0.1,0,0.2c0,0.1,0,0.2,0,0.2v0.1v0.1c0,0,0,0-0.1,0c-0.1,0.1-0.1,0.2,0,0.3c0,0,0,0.1,0,0.2
		c0,0.1,0,0.2,0,0.2c0,0.2,0.1,0.3,0.1,0.4v0.1v0.1v0.1c0,0.1,0,0.1,0,0.1c0,0.1,0,0.1,0,0.2l0,0h0.1l0,0l0,0c0,0,0,0-0.1,0v0.1v0.1
		h0.1c0,0.1,0,0.2-0.1,0.3c0,0,0,0.1,0,0.3s0,0.3,0.1,0.3c-0.1,0.1-0.1,0.1-0.1,0.2c0,0.1,0.1,0.1,0.1,0.1c0,0.1,0,0.1,0,0.2
		c0,0,0,0-0.1,0c0,0.5,0,0.8,0.1,0.8v0.1c0,0.1,0,0.1,0,0.2v0.1c0,0,0,0.1,0.1,0.1c0,0.1,0,0.2,0,0.4s0,0.3,0,0.4c0,0,0,0,0.1,0
		c0,0.1,0,0.2,0,0.2c0,0.1,0,0.2,0,0.4s0,0.3,0,0.3v0.5c0,0.2,0,0.2,0.1,0.3c0,0,0,0,0,0.1c0,0,0,0-0.1,0.1l0.1,0.1
		c0,0,0,0.1-0.1,0.1c0.1,0.1,0.1,0.1,0.1,0.2C82,53,82,53,82,53.1s0,0.1,0.1,0.1c0,0.1,0,0.1,0,0.3c0,0.3,0,0.4,0.1,0.4
		c0,0.5,0,0.8,0.1,0.9c0,0.3,0,0.5,0,0.5v0.1c0,0,0,0.1,0.1,0.1c0,0,0,0.1,0,0.2c0,0.1,0,0.2,0,0.2V56v0.1v0.1l0,0l0,0
		c0,0.2,0,0.3,0.1,0.4c0,0.1,0,0.3,0.1,0.4c0.1,0.2,0.1,0.3,0.1,0.4c0.1,0.2,0.1,0.3,0.1,0.3c0,0.1,0,0.1,0.1,0.2
		C83,58,83,58,83,58.1c0,0.1,0,0.2,0,0.3s0,0.2,0,0.3c0,0,0,0.1,0.1,0.1v0.1c0,0,0,0.1-0.1,0.1c0-0.3,0-0.1,0,0c0,0-0.1,0-0.1,0.1
		c-0.1,0-0.1,0-0.1,0s0,0.1-0.1,0.1c0,0.1-0.1,0.1-0.1,0.2c-0.1,0.1-0.1,0.1-0.1,0.2c-0.1,0-0.1,0-0.1-0.1c-0.1,0-0.1,0.1-0.1,0.2
		c-0.1,0-0.2,0-0.2,0C82,59.6,82,59.6,82,59.6s-0.1,0-0.1,0.1l-0.1,0.1l0,0v-0.1c0,0,0-0.1-0.1-0.1l-0.1-0.1c0,0-0.1-0.1-0.1-0.2
		c-0.1-0.1-0.1-0.2-0.1-0.2L81.3,59l-0.1-0.1h-0.1l0,0c0-0.2,0-0.3-0.1-0.3c0,0,0,0-0.1,0c0,0,0,0-0.1,0c0-0.1-0.1-0.2-0.1-0.2
		c0-0.1-0.1-0.1-0.1-0.1s0-0.1-0.1-0.1c0-0.1-0.1-0.1-0.1-0.1c-0.1,0-0.1-0.1-0.2-0.2c-0.1-0.1-0.1-0.1-0.2-0.1c0-0.1,0-0.1-0.1-0.2
		c0-0.1-0.1-0.1-0.1-0.1c0,0.1,0,0.1-0.1,0.1c0,0-0.1-0.1-0.1-0.2h-0.1c-0.1-0.1-0.3-0.2-0.5-0.4c0-0.1-0.1-0.2-0.3-0.3
		c-0.1,0-0.1-0.1-0.1-0.1s0,0-0.1,0c0,0,0,0-0.1,0v-0.1c-0.1-0.1-0.2-0.2-0.3-0.4c-0.2-0.1-0.3-0.3-0.3-0.3s0,0-0.1,0c0,0,0,0-0.1,0
		c0,0,0,0,0-0.1c-0.2-0.2-0.3-0.3-0.3-0.3s0-0.1-0.1-0.1c-0.1-0.1-0.1-0.1-0.1-0.1c0,0.1-0.1,0.1-0.1,0v-0.1c0,0,0-0.1-0.1-0.1
		l-0.1-0.1c0,0,0,0-0.1,0c0,0,0,0-0.1,0c0-0.1-0.1-0.2-0.1-0.2h-0.1c0,0,0,0,0-0.1v-0.1c0,0,0,0-0.1,0.1c0,0,0,0-0.1,0v-0.1v-0.1
		c0,0,0,0,0-0.1c0,0,0,0-0.1-0.1c0-0.1-0.1-0.1-0.1-0.2c0.1,0.1,0,0-0.1,0c0-0.1-0.1-0.2-0.3-0.2v-0.1c-0.2-0.2-0.3-0.4-0.3-0.4
		s-0.1-0.1-0.2-0.2c0,0,0-0.1-0.1-0.2l0,0l0,0v-0.1c-0.1,0-0.1-0.1-0.2-0.2c-0.1-0.1-0.2-0.2-0.2-0.2s0,0.1,0,0.4v0.4
		c0,0.1,0,0.1-0.1,0.2c0,0.2,0,0.3,0,0.4c0,0,0,0,0.1,0c0,0,0,0,0,0.1c-0.1,0-0.1,0.1-0.1,0.1v0.1c0,0.1,0,0.1,0,0.1v0.1
		c0,0.1,0,0.1,0,0.1c0,0.1,0,0.1,0,0.2c0,0.1,0,0.2,0,0.2s0,0.1,0,0.2c0,0.1,0,0.1,0,0.2c0,0.1,0,0.1,0,0.2c0,0,0,0.1,0,0.2
		c0,0.1,0,0.2,0,0.3S74.4,56,74.4,56c0,0.1,0,0.1,0.1,0.2v0.1c0,0,0,0-0.1,0c0,0.1,0,0.2,0,0.3s0,0.2,0,0.4s0,0.3,0,0.4
		c0,0.1,0,0.2,0,0.2c0,0.1,0,0.1,0,0.2c0,0.1,0,0.1,0,0.2c0,0.2,0,0.2,0,0.2s0,0,0.1,0c0,0.1,0,0.1,0,0.1s0,0,0,0.1v0.1v0.1
		c0,0,0,0.1,0.1,0.2v0.8c0,0,0,0.1,0,0.4v0.1c0,0,0,0.1,0.1,0.1c0,0.1,0,0.1,0,0.2l-0.1,0.1c0,0.1,0,0.1-0.1,0.2
		c0,0.1-0.1,0.2-0.1,0.2V61v0.1c0,0,0,0-0.1,0c0,0,0,0,0,0.1s0,0.1,0,0.1C74.2,61.1,74.1,61,74,61v0.2c0,0,0,0-0.1,0.1h-0.1l0,0
		c0,0.1-0.1,0.1-0.1,0c-0.3,0.1-0.5,0.1-0.6,0c0,0,0-0.1-0.1-0.1c0,0,0-0.1-0.1-0.1h-0.1c0,0,0-0.1-0.1-0.2
		c-0.1-0.1-0.1-0.2-0.1-0.3c0,0-0.1-0.1-0.3-0.3c0-0.1,0-0.1,0-0.2V60v-0.2v-0.1v-0.1c0-0.1,0-0.1-0.1-0.1h-0.1l0.1-0.1
		c0.1-0.1,0.1-0.3,0.1-0.5v-0.1c0-0.1,0-0.1,0-0.2c0-0.1,0-0.1,0-0.2v-0.1c0,0,0-0.1-0.1-0.1c0-0.2,0-0.3,0-0.4c0-0.1,0-0.1,0-0.3
		s0-0.2,0-0.3v-0.1l0,0c0,0,0-0.1,0-0.2c0-0.1,0-0.2,0-0.2s0,0,0-0.1c0,0,0,0,0-0.1v-0.1c0-0.1,0-0.1,0-0.1s0,0,0-0.1c0,0,0,0,0-0.1
		c0,0,0,0,0.1,0c0-0.2,0-0.3-0.1-0.5c0,0,0,0,0.1,0c0-0.1,0-0.2,0-0.4s0-0.4,0-0.4s-0.1-0.1,0-0.2c0-0.1,0-0.2,0-0.2v-0.1
		c0-0.1,0-0.1,0-0.1c0-0.1,0-0.1,0-0.1c0-0.1,0-0.2,0-0.4s0-0.3,0-0.4v-0.1v-0.1c0,0,0-0.1,0.1-0.2c0-0.2,0-0.3,0-0.4
		c0-0.1-0.1-0.1-0.1-0.2v-0.1c0-0.1,0-0.1,0-0.3c0-0.1,0-0.2,0-0.3c0,0,0-0.1-0.1-0.1c0-0.1,0-0.2,0-0.3s0.1-0.2,0.1-0.3
		c0,0,0-0.1-0.1-0.2c0-0.1,0-0.2,0-0.3v-0.1v-0.1v-0.1V50c0,0,0,0-0.1-0.1c0,0,0,0-0.1-0.1h0.1c0-0.1,0-0.1,0-0.2s0-0.2,0-0.2v-0.1
		c0-0.2,0-0.2-0.1-0.3c0,0,0,0,0.1,0v-0.1v-0.1v-0.1c0-0.1,0-0.2,0-0.4s0-0.3-0.1-0.4c0.1-0.1,0-0.2-0.1-0.4c0,0,0,0,0-0.1
		c0,0,0,0,0-0.1c0,0,0-0.1-0.1-0.1v-0.1c0-0.2,0-0.3-0.1-0.4c0-0.1,0-0.2,0-0.3s0-0.2,0-0.3V46v-0.1c0-0.1,0-0.1,0-0.2
		c0,0,0,0,0-0.1s0-0.1,0-0.1c0.1-0.1,0.1-0.2,0.2-0.3c0.1-0.3,0.2-0.5,0.3-0.6c0.1-0.1,0.1-0.2,0.1-0.2s0.1-0.1,0.2-0.1
		c0,0,0,0,0.1-0.1c0-0.1,0.1-0.1,0.1-0.1s0,0,0.1,0c0,0,0,0,0.1,0c0,0,0,0,0.1-0.1c0,0,0,0,0.1,0c0,0.2,0.1,0.3,0.2,0.3
		c0.2,0,0.2,0,0.3,0l0,0c0,0,0,0,0,0.1c0.1,0,0.1,0.1,0.2,0.1c0.1,0.1,0.1,0.1,0.1,0.1v0.1c0.1,0,0.2,0.2,0.2,0.4
		c0,0.1,0,0.2,0.1,0.3h0.1c0,0,0,0,0,0.1c0,0,0,0-0.1,0.1c0,0.2,0,0.3,0.1,0.4v0.1v0.1v0.1v0.1c0,0.1,0,0.1,0,0.1s0,0,0,0.1v0.1v0.1
		c0,0,0,0.1,0.1,0.1c0,0,0,0.1,0.1,0.1l0,0v0.1c0,0,0,0,0.1,0c0,0.1,0,0.1,0,0.2c0,0.1,0.1,0.2,0.1,0.2c0,0.1,0.1,0.3,0.2,0.5
		c0,0.1,0.1,0.3,0.2,0.4c0,0.1,0,0.1,0,0.2c0.1,0.1,0.2,0.2,0.3,0.4c0.1,0.1,0.1,0.2,0.2,0.3s0.2,0.2,0.2,0.3
		c0.1,0.2,0.2,0.4,0.5,0.6v0.1c0,0.1,0.1,0.1,0.1,0.2c0.1,0.1,0.1,0.1,0.2,0.2c0.1,0,0.1,0,0.1,0s0,0,0,0.1c0,0,0,0,0,0.1
		s0.1,0.1,0.1,0.1c0.1,0.2,0.2,0.3,0.3,0.3c0.1,0.1,0.1,0.2,0.1,0.2c0.2,0.3,0.4,0.5,0.5,0.6c0,0,0,0,0,0.1c0,0,0,0,0.1,0.1l0,0l0,0
		c0,0.1,0.1,0.1,0.2,0.2c0.1,0.1,0.2,0.2,0.2,0.2s0.1,0,0.1,0.1s0.1,0.1,0.1,0.1l0,0l0,0c0,0,0,0,0,0.1v0.1l0,0l0,0
		c0,0,0.1,0,0.1,0.1c0.1,0,0.1,0,0.1,0.1s0.1,0.1,0.1,0.1l0,0l0,0c0,0.1,0,0.1,0.1,0.2h0.1c0,0.1,0.1,0.2,0.2,0.2
		c0.1,0.1,0.1,0.1,0.2,0.2h0.1c0,0,0,0.1,0.1,0.1c0,0.1,0.1,0.1,0.1,0.1s0.1,0.1,0.2,0.2c0.1,0,0.1-0.1,0.1-0.2c0-0.1,0-0.2-0.1-0.2
		c0.1-0.1,0.1-0.2,0-0.3c0-0.1,0-0.1,0-0.2c0-0.1,0-0.2,0-0.2s0-0.1-0.1-0.1c-0.1-0.1-0.1-0.2,0-0.3c-0.1-0.2,0-0.3,0.1-0.4
		c0,0,0-0.1,0-0.2c0-0.1,0-0.2,0-0.2V52c0-0.1,0-0.1,0-0.1c0-0.1,0-0.1,0-0.2c0-0.1,0-0.2,0-0.2c-0.1-0.1-0.1-0.2,0-0.3
		c0,0,0,0-0.1-0.1c0,0,0,0,0-0.1c0.1-0.1,0.1-0.2,0.1-0.2s0,0-0.1,0s0,0-0.1,0c-0.1-0.1-0.1-0.2,0.1-0.4c0,0,0-0.2,0-0.4l0,0v0.1
		c0,0,0-0.1,0-0.2c0-0.1,0-0.2-0.1-0.2c0,0,0-0.1,0-0.3s0-0.2,0-0.2l0,0l0,0c0,0,0.1,0,0.1-0.1s0-0.1,0-0.1s0,0-0.1,0.1
		c0,0,0,0.1-0.1,0.1c0,0,0-0.1,0-0.2c0.1,0,0.1-0.1,0.1-0.1c0-0.1,0-0.2-0.1-0.3c0,0,0,0,0-0.1c0,0,0,0,0-0.1
		c0.6,0.6,0.5,0.5,0.5,0.4v-0.1l0.1-0.1v-0.1c0-0.1,0-0.3,0.1-0.4c0,0,0-0.1,0-0.2c0-0.1,0-0.1,0-0.2c0,0,0-0.1-0.1-0.1
		c0-0.1,0-0.1-0.1-0.1c0-0.2,0-0.2,0-0.3h-0.1v-0.1V47H80v-0.3v-0.1l0,0v-0.1c0-0.1,0-0.1,0-0.1s0,0,0-0.1s0-0.1,0-0.1v-0.1V46
		c0,0,0-0.1,0.1-0.2c0-0.1,0-0.1-0.1-0.1l-0.1-0.1c0,0,0-0.1,0.1-0.1c0-0.1,0.1-0.1,0.1-0.1c-0.1-0.2-0.1-0.3,0-0.4c0,0,0-0.1,0-0.2
		c0-0.1-0.1-0.1-0.1-0.2c-0.1-0.1-0.2-0.3-0.1-0.4c0,0,0,0,0.1,0c0,0,0,0,0.1,0c0-0.1,0-0.1-0.1-0.1c0,0,0-0.1,0.1-0.2
		c0-0.1-0.1-0.2-0.1-0.2l0,0l0,0c0,0,0-0.1,0-0.2c0-0.1,0-0.1,0-0.1s0,0-0.1-0.1c0,0,0,0,0-0.1s0-0.1,0-0.3c0-0.1,0.1-0.2,0.1-0.2
		s0-0.1-0.1-0.1c0,0,0-0.1,0.1-0.2c0-0.3,0-0.4,0-0.5s0-0.1,0.1-0.1v-0.1v-0.1c0,0,0,0,0-0.1c0,0,0,0,0-0.1s0-0.1,0-0.2
		c0-0.2-0.1-0.3-0.1-0.4c0-0.1,0-0.2,0-0.4s0-0.3,0-0.4l0,0l0,0c0.1-0.1,0.1-0.2,0.1-0.2c0-0.1,0-0.2,0.1-0.4c0-0.1,0-0.1,0-0.2
		C79.8,39.4,79.8,39.4,79.9,39.4z M77.4,55.6C77.4,55.6,77.4,55.7,77.4,55.6L77.4,55.6C77.3,55.6,77.3,55.6,77.4,55.6L77.4,55.6z
		 M77.4,55.6L77.4,55.6C77.4,55.6,77.4,55.7,77.4,55.6L77.4,55.6C77.3,55.6,77.3,55.6,77.4,55.6z M79.7,45.1
		C79.7,45,79.7,45,79.7,45.1C79.8,45,79.8,45,79.7,45.1C79.8,45.1,79.8,45.1,79.7,45.1z M79.7,45C79.8,45,79.8,45,79.7,45
		C79.8,45.1,79.8,45.1,79.7,45L79.7,45z M79.8,44.6L79.8,44.6L79.8,44.6z M79.8,44.6L79.8,44.6L79.8,44.6z M79.8,44.1L79.8,44.1
		C79.8,44.2,79.8,44.2,79.8,44.1C79.9,44.2,79.9,44.2,79.8,44.1C79.9,44.1,79.8,44.1,79.8,44.1z M79.9,44.2L79.9,44.2
		C79.9,44.1,79.9,44.1,79.9,44.2C79.8,44.1,79.8,44.1,79.9,44.2C79.8,44.2,79.8,44.2,79.9,44.2z M79.9,47.2
		C79.9,47.2,79.8,47.3,79.9,47.2L79.9,47.2C79.8,47.2,79.8,47.2,79.9,47.2z M79.9,47.2C79.9,47.2,79.8,47.3,79.9,47.2L79.9,47.2
		C79.8,47.2,79.8,47.2,79.9,47.2z"/>
	<path fill="#54813B" d="M90.9,45c0.1,0,0.2,0,0.2,0.1c0.1,0.1,0.1,0.1,0.2,0.1c0,0,0,0.1,0,0.2c0.2,0.1,0.3,0.3,0.4,0.4h0.1
		c0,0.1,0,0.2,0.1,0.2c0,0.1,0,0.2,0.1,0.2h0.1c0,0.2,0,0.4,0,0.5s0.1,0.2,0.1,0.3s0,0.2,0,0.3s0,0.2,0,0.3C92.1,47.7,92,47.8,92,48
		h-0.1c0,0.1-0.1,0.1-0.1,0.1s0,0-0.1,0c0,0,0,0-0.1,0c0,0,0,0,0,0.1c0,0,0,0-0.1,0c0,0,0,0-0.1,0c0,0-0.1,0.1-0.1,0.2
		c0,0-0.1,0-0.1-0.1h-0.1c0,0,0,0-0.1,0c0-0.1,0-0.2-0.1-0.3c0,0,0,0-0.1,0c0,0,0,0-0.1,0l-0.1-0.1h-0.1l0,0v-0.1
		c-0.1-0.1-0.1-0.1-0.2-0.1c0,0,0,0-0.1,0.1c-0.1,0-0.1,0-0.2,0c0,0,0,0-0.1,0h-0.1c0,0,0,0-0.1,0h-0.1c0,0-0.1,0-0.1-0.1
		c0,0,0,0-0.1,0.1h-0.1c0,0,0,0-0.1,0h-0.1H89c0,0,0,0-0.1,0h-0.1c0,0,0,0-0.1,0c0,0,0,0-0.1,0s-0.1,0-0.1,0c-0.2,0-0.3,0.1-0.3,0.1
		V48v0.1c0,0,0,0-0.1,0L88,48c0,0-0.1,0-0.2,0.1l0,0l0,0c0,0.1-0.1,0.1-0.3,0.1c-0.2,0-0.3,0.1-0.3,0.1v0.1h-0.1l0,0v0.1H87
		c0,0-0.1,0-0.1,0.1c0,0,0,0-0.1,0s-0.1,0-0.1,0v0.1v0.1c0,0.1,0,0.2,0.1,0.2s0.1,0,0.1,0c0,0.1,0.1,0.1,0.2,0.2c0,0,0,0,0.1,0
		c0,0,0,0,0.1,0c0,0,0,0,0,0.1s0,0.1,0,0.1c0.1-0.1,0.1,0,0.2,0.1s0.1,0.1,0.2,0.1c0,0,0,0,0.1,0.1c0.1,0,0.1,0,0.1,0.1
		c0,0,0,0,0.1,0.1c0,0,0,0,0.1,0c0,0,0,0,0.1,0.1c0,0,0,0,0,0.1c0.2,0.1,0.3,0.1,0.3,0.2c0.1-0.1,0.2,0,0.2,0l0.1,0.1
		c0,0,0.1,0,0.2,0s0.1,0,0.2,0l0,0l0,0c0,0,0,0,0.1,0c0,0,0,0,0.1,0.1c0,0,0,0.1,0.1,0.1c0,0,0,0,0.1,0h0.1c0.1,0.1,0.2,0.2,0.3,0.2
		l0.1-0.1c0.1,0,0.1,0,0.1,0s0,0,0,0.1c0.1,0.1,0.1,0.1,0.1,0.1s0,0,0.1,0c0,0,0,0,0.1,0c0,0.1,0,0.2,0.1,0.2l0,0c0,0,0,0,0-0.1
		c0.1,0,0.2,0,0.2,0c0,0.1,0,0.1,0.1,0.2c0.1,0,0.1,0.1,0.1,0.1c0.2-0.1,0.3,0,0.3,0.1c0,0,0,0,0.1,0h0.1c0,0,0,0,0.1,0.1
		c0,0.1,0.1,0.1,0.1,0.1s0,0,0.1-0.1c0-0.1,0.1-0.1,0.1,0s0,0.1,0.1,0.2c0.1,0,0.1,0,0.2,0c0,0.1,0.1,0.1,0.1,0.1s0,0,0.1,0h0.1
		c0,0,0,0,0,0.1c0,0,0.1,0.1,0.2,0.1c0.1,0.1,0.2,0.1,0.2,0.2H93c0,0.1,0.1,0.1,0.2,0.1c0.1,0.2,0.1,0.2,0.1,0.3c0,0,0,0,0.1,0
		c0,0,0,0,0.1,0v0.1c0,0.1,0.1,0.2,0.2,0.3c0.1,0.2,0.2,0.3,0.3,0.3c0,0.1,0,0.1,0.1,0.2c0,0.1,0,0.1,0,0.2c0.1,0.1,0.2,0.3,0.2,0.5
		c0,0.1,0,0.1,0.1,0.2c0,0.1,0.1,0.2,0.1,0.2v0.1v0.1v0.1V55v0.1v0.1c0,0,0,0,0,0.1v0.1c0,0,0,0.1,0,0.3c0,0.1,0,0.2,0.1,0.3v0.1
		v0.1c0,0,0,0.1,0,0.3s-0.1,0.3-0.1,0.4V57c0,0.1,0,0.1-0.1,0.2c0,0.1-0.1,0.1-0.1,0.1c0,0.1,0,0.1-0.1,0.3v0.1
		C94.1,57.9,94,58,94,58.1c-0.1,0.2-0.2,0.3-0.3,0.4c0,0.2,0,0.3-0.1,0.4c-0.1,0.1-0.1,0.2-0.2,0.3c0,0.1,0,0.1-0.1,0.2v0.1
		c0,0,0,0-0.1,0c0,0,0,0-0.1-0.1c0,0,0,0.1,0,0.2c0,0-0.1,0.1-0.3,0.2v0.1c-0.1,0.1-0.2,0.2-0.2,0.2s-0.1,0.1-0.1,0.2
		c-0.1,0-0.1,0.1-0.2,0.2c-0.1,0.1-0.1,0.1-0.2,0.2v0.1c0,0.1,0,0.1,0,0.1s0,0-0.1-0.1v-0.1c0,0,0,0-0.1,0.1s-0.1,0.1-0.1,0.1
		L91.7,61h-0.1c-0.1,0-0.1,0-0.1,0c-0.1,0.1-0.2,0.1-0.2,0c-0.1,0.1-0.1,0.2-0.1,0.2c-0.1,0.1-0.1,0.2-0.1,0.2H91c0,0-0.1,0-0.1,0.1
		s-0.1,0.1-0.1,0.1c-0.1,0-0.1,0-0.2,0.1c-0.1,0-0.1,0.1-0.2,0.1h-0.1h-0.1c0,0-0.1,0-0.1,0.1L90,62c0,0,0,0-0.1,0h-0.1
		c0,0,0,0-0.1,0.1c0,0-0.1,0-0.3,0c0,0,0,0-0.1-0.1s-0.2-0.1-0.3,0h-0.1c0,0.1-0.1,0.1-0.1,0.1c0-0.1-0.1-0.1-0.3-0.1
		c-0.1,0-0.1,0-0.1,0c-0.1-0.1-0.1-0.1-0.1-0.1s0,0-0.1,0.1h-0.1v-0.1v-0.1c0,0-0.1,0-0.2,0s-0.1,0-0.1,0s-0.1,0-0.1-0.1h-0.1v-0.2
		h-0.1l0,0v-0.1c0,0-0.1,0-0.1-0.1s-0.1-0.1-0.1-0.2c-0.1-0.1-0.2-0.1-0.2-0.2c0-0.1,0-0.1,0-0.1c0-0.1-0.1-0.1-0.2-0.2
		c-0.1-0.1-0.1-0.1-0.1-0.1l0,0l0,0c0-0.1,0-0.2-0.1-0.3s-0.1-0.1-0.2-0.2v-0.1v-0.1c0,0,0,0-0.1-0.1c0-0.1-0.1-0.1-0.1-0.1
		c-0.1-0.1-0.1-0.1-0.1-0.2v-0.1v-0.1v-0.1V59v-0.1v-0.1c0-0.1,0-0.1,0-0.2c0-0.1-0.1-0.1-0.1-0.1c0-0.1,0-0.1,0-0.2
		c0-0.1,0-0.1,0-0.2l0,0l0,0c0,0,0-0.1-0.1-0.4c0.1,0,0.1,0,0.1,0c0-0.1,0-0.1,0-0.2c0,0,0-0.1,0.1-0.2c0-0.1,0.1-0.2,0.1-0.2
		s0,0,0.1,0.1c0,0,0.1,0,0.1-0.1s0-0.1,0-0.1c0-0.1,0.1-0.1,0.1-0.1c0.1,0,0.1,0,0.1,0s0,0,0-0.1c0,0,0.1-0.1,0.1,0c0,0,0,0,0.1,0.1
		c0,0,0,0,0.1,0c0,0,0,0,0.1,0c0.1,0.1,0.1,0.2,0.1,0.2c0.1,0,0.1,0,0.1,0s0,0,0.1,0c0.1,0.1,0.1,0.1,0.1,0.1s0.1,0.1,0.1,0.2
		l0.1,0.1c0,0.1,0,0.1,0.1,0.2c0,0.1,0.1,0.2,0.1,0.2c0.1,0,0.1,0.1,0.2,0.3c0.1,0.1,0.2,0.2,0.2,0.3v0.1v0.1l0.2,0.2h0.1h0.1V59
		l0,0c0,0,0.1,0,0.2,0s0.2,0,0.2,0s0,0,0.1,0.1c0,0,0,0.1,0.1,0.1s0.1,0,0.2,0c0.1-0.1,0.1-0.1,0.1-0.1s0,0,0.1,0h0.1
		c0,0,0.1,0,0.1-0.1H90c0,0,0,0,0.1,0h0.1l0,0l0,0c0,0,0,0,0.1,0c0,0,0,0,0.1,0s0,0,0-0.1c0,0,0,0,0.1,0c0,0,0.1,0,0.1-0.1l0,0l0,0
		h0.1c0.1,0,0.1-0.1,0.1-0.2c0,0,0,0,0.1,0.1c0,0,0.1,0,0.1-0.1c0.1-0.1,0.1-0.1,0.2-0.1c0-0.1,0.2-0.3,0.4-0.4
		c0.2-0.2,0.3-0.3,0.4-0.5c0.1-0.1,0.1-0.1,0.1-0.2c0,0,0.1-0.1,0.1-0.2c0-0.1,0.1-0.2,0.1-0.2v-0.1c0,0,0-0.1,0.1-0.1v-0.3
		c0.1-0.1,0.1-0.1,0.1-0.1c0-0.1,0-0.2,0-0.4s0-0.3,0-0.4v-0.1c0,0,0,0,0-0.1s0-0.1,0-0.2c0-0.1-0.1-0.1-0.1-0.1
		c-0.1,0-0.1-0.1-0.1-0.1c-0.1,0.1-0.1,0.1-0.1,0s0-0.1,0-0.1h-0.1c0,0,0,0,0-0.1v-0.1c0,0,0,0-0.1,0h-0.1c0,0,0,0,0-0.1v-0.1h-0.1
		c-0.1,0-0.2,0-0.2,0c-0.1-0.1-0.2-0.1-0.2,0v-0.1c0,0-0.1-0.1-0.3-0.1c-0.2-0.1-0.2-0.1-0.3-0.1c-0.1-0.2-0.3-0.2-0.6-0.3l0,0l0,0
		v-0.1c0,0-0.1,0-0.1-0.1S90,53.6,90,53.6v0.1v0.1c0,0,0-0.1-0.1-0.1l-0.1-0.1c0-0.1-0.1-0.1-0.2,0c0-0.1-0.1-0.2-0.1-0.2
		c-0.1,0.1-0.2,0.1-0.2,0s-0.1-0.1-0.3,0c0-0.1,0-0.2-0.1-0.2s-0.2,0-0.3-0.1h-0.1l0,0l0,0l0,0l0,0l0,0c-0.2-0.1-0.3-0.1-0.4,0V53
		c0,0,0-0.1-0.1-0.1c0,0,0,0-0.1,0c0,0,0,0-0.1-0.1c0,0,0,0-0.1-0.1c0,0-0.1,0-0.2-0.1c-0.1,0-0.2-0.1-0.2-0.1
		c0-0.1-0.1-0.1-0.1-0.1s0,0-0.1,0H87c0-0.1,0-0.2,0-0.2s0,0-0.1,0c0,0,0,0-0.1,0s0,0,0,0s0,0,0-0.1l0,0c0,0,0,0,0-0.1
		c0,0,0,0-0.1,0c0,0,0,0-0.1,0v-0.1l0,0c0-0.1-0.1-0.1-0.1-0.1c-0.1-0.1-0.1-0.1-0.1-0.2c0,0,0,0-0.1,0h-0.1c0-0.1,0-0.1-0.1-0.2
		c0-0.1,0-0.2-0.1-0.3s-0.1-0.2-0.2-0.3c0,0,0,0-0.1,0l-0.1-0.1c0-0.1,0-0.1,0-0.1C85,50,85,49.8,85,49.7c0,0-0.1,0-0.1-0.1
		s-0.1-0.1-0.1-0.1s0-0.1,0-0.2c-0.1-0.1-0.2-0.2-0.3-0.4c0,0,0,0,0-0.1s0-0.1,0-0.2v-0.1c0,0,0,0,0-0.1v-0.1c0,0,0-0.1,0-0.2
		c0-0.1,0-0.2,0-0.2v-0.1v-0.1c0,0,0-0.1,0.1-0.2c0-0.1,0-0.1,0-0.2c0-0.1,0-0.1,0-0.1c0.1-0.1,0.2-0.2,0.3-0.4H85c0,0,0,0,0-0.1
		s0-0.1,0-0.1s0.1,0,0.2-0.1s0.2-0.1,0.2-0.2c0.1,0,0.1,0,0.1,0s0-0.1,0.1-0.2c0,0,0,0,0.1,0c0,0,0,0,0.1-0.1l0.1-0.1
		c0.1,0,0.1,0,0.1,0c0.1,0,0.1-0.1,0.1-0.3c0.1,0,0.2,0,0.2-0.1c0.1,0,0.1,0,0.2,0s0.1,0,0.1,0s0.1,0,0.1-0.1s0.1-0.1,0.1-0.1
		c0.1,0,0.1,0,0.1,0H87l0.1-0.1h0.1c0,0,0,0,0.1-0.1l0.1-0.1h0.1c0,0,0.1-0.1,0.2-0.2c0.1,0,0.1,0,0.1-0.1v0.1
		C88,45,88.1,45,88.2,45s0.2,0,0.3,0c0,0,0,0,0.1,0l0.1-0.1h0.1c0,0,0,0,0.1-0.1l0.1-0.1c0.1,0,0.2,0,0.4,0s0.4,0,0.5,0
		c0,0,0.1,0,0.2,0s0.1,0,0.1,0h0.1c0.1,0,0.1,0,0.1,0l0.1,0.1C90.7,44.8,90.8,44.9,90.9,45z M91.3,45.1c0,0,0,0.1,0,0.2
		c0.2,0.1,0.3,0.3,0.4,0.4h0.1c0,0.1,0,0.2,0.1,0.2c0,0.1,0,0.2,0.1,0.2h0.1c0,0.2,0,0.4,0,0.5s0.1,0.2,0.1,0.3s0,0.2,0,0.3
		s0,0.2,0,0.3c-0.1,0.1-0.2,0.2-0.2,0.4h-0.1c0,0.1-0.1,0.1-0.1,0.1s0,0-0.1,0c0,0,0,0-0.1,0c0,0,0,0,0,0.1c0,0,0,0-0.1,0
		c0,0,0,0-0.1,0c0,0-0.1,0.1-0.1,0.2c0,0-0.1,0-0.1-0.1h-0.1c0,0,0,0-0.1,0c0-0.1,0-0.2-0.1-0.3c0,0,0,0-0.1,0c0,0,0,0-0.1,0
		l-0.1-0.1h-0.1l0,0v-0.1c-0.1-0.1-0.1-0.1-0.2-0.1c0,0,0,0-0.1,0.1c-0.1,0-0.1,0-0.2,0c0,0,0,0-0.1,0h-0.1c0,0,0,0-0.1,0h-0.1
		c0,0-0.1,0-0.1-0.1c0,0,0,0-0.1,0.1h-0.1c0,0,0,0-0.1,0h-0.1H89c0,0,0,0-0.1,0h-0.1c0,0,0,0-0.1,0c0,0,0,0-0.1,0s-0.1,0-0.1,0
		c-0.2,0-0.3,0.1-0.3,0.1c0,0.1,0,0.1,0,0.1s0,0-0.1,0L88,47.8c0,0-0.1,0-0.2,0.1l0,0l0,0c0,0.1-0.1,0.1-0.3,0.1
		c-0.2,0-0.3,0.1-0.3,0.1v0.1h-0.1l0,0v0.1H87c0,0-0.1,0-0.1,0.1c0,0,0,0-0.1,0s-0.1,0-0.1,0v0.1v0.1c0,0.1,0,0.2,0.1,0.2
		s0.1,0,0.1,0c0,0.1,0.1,0.1,0.2,0.2c0,0,0,0,0.1,0c0,0,0,0,0.1,0c0,0,0,0,0,0.1s0,0.1,0,0.1c0.1-0.1,0.1,0,0.2,0.1s0.1,0.1,0.2,0.1
		c0,0,0,0,0.1,0.1c0.1,0,0.1,0,0.1,0.1c0,0,0,0,0.1,0.1c0,0,0,0,0.1,0c0,0,0,0,0.1,0.1c0,0,0,0,0,0.1c0.2,0.1,0.3,0.1,0.3,0.2
		c0.1-0.1,0.2,0,0.2,0l0.1,0.1c0,0,0.1,0,0.2,0s0.1,0,0.2,0l0,0l0,0c0,0,0,0,0.1,0c0,0,0,0,0.1,0.1c0,0,0,0.1,0.1,0.1c0,0,0,0,0.1,0
		h0.1c0.1,0.1,0.2,0.2,0.3,0.2l0.1-0.1c0.1,0,0.1,0,0.1,0s0,0,0,0.1c0.1,0.1,0.1,0.1,0.1,0.1s0,0,0.1,0c0,0,0,0,0.1,0
		c0,0.1,0,0.2,0.1,0.2l0,0c0,0,0,0,0-0.1c0.1,0,0.2,0,0.2,0c0,0.1,0,0.1,0.1,0.2c0.1,0,0.1,0.1,0.1,0.1c0.2-0.1,0.3,0,0.3,0.1
		c0,0,0,0,0.1,0h0.1c0,0,0,0,0.1,0.1c0,0.1,0.1,0.1,0.1,0.1s0,0,0.1-0.1c0-0.1,0.1-0.1,0.1,0s0,0.1,0.1,0.2c0.1,0,0.1,0,0.2,0
		c0,0.1,0.1,0.1,0.1,0.1s0,0,0.1,0h0.1c0,0,0,0,0,0.1c0,0,0.1,0.1,0.2,0.1c0.1,0.1,0.2,0.1,0.2,0.2H93c0,0.1,0.1,0.1,0.2,0.1
		c0.1,0.2,0.1,0.2,0.1,0.3c0,0,0,0,0.1,0c0,0,0,0,0.1,0v0.1c0,0.1,0.1,0.2,0.2,0.3c0.1,0.2,0.2,0.3,0.3,0.3c0,0.1,0,0.1,0.1,0.2
		c0,0.1,0,0.1,0,0.2c0.1,0.1,0.2,0.3,0.2,0.5c0,0.1,0,0.1,0.1,0.2c0,0.1,0.1,0.2,0.1,0.2v0.1v0.1v0.1v0.1v0.1V55v0.1v0.1
		c0,0,0,0.1,0,0.3c0,0.1,0,0.2,0.1,0.3v0.1V56c0,0,0,0.1,0,0.3s-0.1,0.3-0.1,0.4v0.1c0,0.1,0,0.1-0.1,0.2c0,0.1-0.1,0.1-0.1,0.1
		c0,0.1,0,0.1-0.1,0.3v0.1c-0.1,0.2-0.2,0.3-0.2,0.4c-0.1,0.2-0.2,0.3-0.3,0.4c0,0.2,0,0.3-0.1,0.4c-0.1,0.1-0.1,0.2-0.2,0.3
		c0,0.1,0,0.1-0.1,0.2v0.1c0,0,0,0-0.1,0c0,0,0,0-0.1,0c0,0,0,0.1,0,0.2c0,0-0.1,0.1-0.3,0.2v0.1c-0.1,0.1-0.2,0.2-0.2,0.2
		s-0.1,0-0.1,0.2c-0.1,0-0.1,0.1-0.2,0.2c-0.1,0.1-0.1,0.1-0.2,0.2v0.1c0,0.1,0,0.1,0,0.1s0,0-0.1-0.1v-0.1c0,0,0,0-0.1,0.1
		s-0.1,0.1-0.1,0.1l-0.1,0.1h-0.1c-0.1,0-0.1,0-0.1,0c-0.1,0.1-0.2,0.1-0.2,0c-0.1,0.1-0.1,0.2-0.1,0.2c-0.1,0.1-0.1,0.2-0.1,0.2H91
		c0,0-0.1,0-0.1,0.1s-0.1,0.1-0.1,0.1c-0.1,0-0.1,0-0.2,0.1s-0.1,0.1-0.2,0.1h-0.1h-0.1c0,0-0.1,0-0.1,0.1L90,61.9c0,0,0,0-0.1,0
		h-0.1c0,0,0,0-0.1,0.1c0,0-0.1,0-0.3,0c0,0,0,0-0.1-0.1s-0.2-0.1-0.3,0h-0.1c0,0.1-0.1,0.1-0.1,0.1c0-0.1-0.1-0.1-0.3-0.1
		c-0.1,0-0.1,0-0.1,0c-0.1-0.1-0.1-0.1-0.1-0.1s0,0-0.1,0.1h-0.1v-0.1v-0.1c0,0-0.1,0-0.2,0s-0.1,0-0.1,0s-0.1,0-0.1-0.1h-0.1v-0.2
		h-0.1l0,0v-0.1c0,0-0.1,0-0.1-0.1s-0.1-0.1-0.1-0.2c-0.1-0.1-0.2-0.1-0.2-0.2c0-0.1,0-0.1,0-0.1c0-0.1-0.1-0.1-0.2-0.2
		c-0.1-0.1-0.1-0.1-0.1-0.1l0,0l0,0c0-0.1,0-0.2-0.1-0.3s-0.1-0.1-0.2-0.2v-0.1v-0.1c0,0,0,0-0.1-0.1c0-0.1-0.1-0.1-0.1-0.1
		c-0.1-0.1-0.1-0.1-0.1-0.2v-0.1v-0.1V59v-0.1v-0.1v-0.1c0-0.1,0-0.1,0-0.2c0-0.1-0.1-0.1-0.1-0.1c0-0.1,0-0.1,0-0.2
		c0-0.1,0-0.1,0-0.2l0,0l0,0c0,0,0-0.1-0.1-0.4c0.1,0,0.1,0,0.1,0c0-0.1,0-0.1,0-0.2c0,0,0-0.1,0.1-0.2c0-0.1,0.1-0.2,0.1-0.2
		s0,0,0.1,0v0.1l0.1-0.1c0-0.1,0-0.1,0-0.1c0-0.1,0.1-0.1,0.1-0.1c0.1,0,0.1,0,0.1,0s0,0,0-0.1c0,0,0.1-0.1,0.1,0c0,0,0,0,0.1,0.1
		c0,0,0,0,0.1,0c0,0,0,0,0.1,0c0.1,0.1,0.1,0.2,0.1,0.2c0.1,0,0.1,0,0.1,0s0,0,0.1,0c0.1,0.1,0.1,0.1,0.1,0.1s0.1,0.1,0.1,0.2
		l0.1,0.1c0,0.1,0,0.1,0.1,0.2c0,0.1,0.1,0.2,0.1,0.2c0.1,0,0.1,0.1,0.2,0.3c0.1,0.1,0.2,0.2,0.2,0.3v0.1v0.1l0.2,0.2h0.1h0.1v0.1
		l0,0c0,0,0.1,0,0.2,0s0.2,0,0.2,0s0,0,0.1,0.1c0,0,0,0.1,0.1,0.1s0.1,0,0.2,0c0.1-0.1,0.1-0.1,0.1-0.1s0,0,0.1,0h0.1
		c0,0,0.1,0,0.1-0.1H90c0,0,0,0,0.1,0h0.1l0,0l0,0c0,0,0,0,0.1,0c0,0,0,0,0.1,0s0,0,0-0.1c0,0,0,0,0.1,0c0,0,0.1,0,0.1-0.1l0,0l0,0
		h0.1c0.1,0,0.1-0.1,0.1-0.2c0,0,0,0,0.1,0.1c0,0,0.1,0,0.1-0.1c0.1-0.1,0.1-0.1,0.2-0.1c0-0.1,0.2-0.3,0.4-0.4
		c0.2-0.2,0.3-0.3,0.4-0.5c0.1-0.1,0.1-0.1,0.1-0.2c0,0,0.1-0.1,0.1-0.2c0-0.1,0.1-0.2,0.1-0.2v-0.1c0,0,0-0.1,0.1-0.1v-0.3
		c0.1-0.1,0.1-0.1,0.1-0.1c0-0.1,0-0.2,0-0.4s0-0.3,0-0.4v-0.1c0,0,0,0,0-0.1s0-0.1,0-0.2c0-0.1-0.1-0.1-0.1-0.1
		c-0.1,0-0.1-0.1-0.1-0.1c-0.1,0.1-0.1,0.1-0.1,0s0-0.1,0-0.1h-0.1c0,0,0,0,0-0.1v-0.1c0,0,0,0-0.1,0h-0.1c0,0,0,0,0-0.1v-0.1h-0.1
		c-0.1,0-0.2,0-0.2,0c-0.1-0.1-0.2-0.1-0.2,0v-0.1c0,0-0.1-0.1-0.3-0.1c-0.2-0.1-0.2-0.1-0.3-0.1c-0.1-0.2-0.3-0.2-0.6-0.3l0,0l0,0
		v-0.1c0,0-0.1,0-0.1-0.1S90,53.5,90,53.5l0,0v0.1c0,0,0-0.1-0.1-0.1h-0.1c0-0.1-0.1-0.1-0.2,0c0-0.1-0.1-0.2-0.1-0.2
		c-0.1,0.1-0.2,0.1-0.2,0s-0.1-0.1-0.3,0c0-0.1,0-0.2-0.1-0.2s-0.2,0-0.3-0.1c0,0,0,0-0.1,0h-0.1l0,0l0,0l0,0l0,0l0,0
		c-0.2-0.1-0.3-0.1-0.4,0v-0.1c0,0,0-0.1-0.1-0.1c0,0,0,0-0.1,0c0,0,0,0-0.1-0.1c0,0,0,0-0.1-0.1c0,0-0.1,0-0.2-0.1
		c-0.1,0-0.2-0.1-0.2-0.1c0-0.1-0.1-0.1-0.1-0.1s0,0-0.1,0h-0.1c0-0.1,0-0.2,0-0.2s0,0-0.1,0c0,0,0,0-0.1,0s0,0,0,0s0,0,0-0.1l0,0
		c0,0,0,0,0-0.1c0,0,0,0-0.1,0c0,0,0,0-0.1,0v-0.1l0,0c0-0.1-0.1-0.1-0.1-0.1c-0.1-0.1-0.1-0.1-0.1-0.2c0,0,0,0-0.1,0h-0.1
		c0-0.1,0-0.1-0.1-0.2c0-0.1,0-0.2-0.1-0.3s-0.1-0.2-0.2-0.3c0,0,0,0-0.1,0l-0.1-0.1c0-0.1,0-0.1,0-0.1C85,50,85,49.8,85,49.7
		c0,0-0.1,0-0.1-0.1s-0.1-0.1-0.1-0.1s0-0.1,0-0.2c-0.1-0.1-0.2-0.2-0.3-0.4c0,0,0,0,0-0.1s0-0.1,0-0.2v-0.1c0,0,0,0,0-0.1v-0.1
		c0,0,0-0.1,0-0.2c0-0.1,0-0.2,0-0.2v-0.1v-0.1c0,0,0-0.1,0.1-0.2c0-0.1,0-0.1,0-0.2c0-0.1,0-0.1,0-0.1c0.1-0.1,0.2-0.2,0.3-0.4H85
		c0,0,0,0,0-0.1s0-0.1,0-0.1s0.1,0,0.2-0.1s0.2-0.1,0.2-0.2c0.1,0,0.1,0,0.1,0s0-0.1,0.1-0.2c0,0,0,0,0.1,0c0,0,0,0,0.1-0.1l0.1-0.1
		c0.1,0,0.1,0,0.1,0c0.1,0,0.1-0.1,0.1-0.3c0.1,0,0.2,0,0.2-0.1c0.1,0,0.1,0,0.2,0s0.1,0,0.1,0s0.1,0,0.1-0.1s0.1-0.1,0.1-0.1
		c0.1,0,0.1,0,0.1,0H87l0.1-0.1h0.1c0,0,0,0,0.1-0.1l0.1-0.1h0.1c0,0,0.1-0.1,0.2-0.2c0.1,0,0.1,0,0.1-0.1v0.1
		C88,45,88.1,45,88.2,45s0.2,0,0.3,0c0,0,0,0,0.1,0l0.1-0.1h0.1c0,0,0,0,0.1-0.1l0.1-0.1c0.1,0,0.2,0,0.4,0s0.4,0,0.5,0
		c0,0,0.1,0,0.2,0s0.1,0,0.1,0h0.1c0.1,0,0.1,0,0.1,0s0.1,0,0.1,0.1c0.2,0,0.3,0,0.4,0.1c0.1,0,0.2,0,0.2,0.1
		C91.2,45.1,91.3,45.1,91.3,45.1z"/>
</g>
</svg>
