<?xml version="1.0" encoding="utf-8"?>
<!-- Generator: Adobe Illustrator 19.0.1, SVG Export Plug-In . SVG Version: 6.00 Build 0)  -->
<svg version="1.1" id="Layer_1" xmlns="http://www.w3.org/2000/svg" xmlns:xlink="http://www.w3.org/1999/xlink" x="0px" y="0px"
	 viewBox="0 0 100 100" enable-background="new 0 0 100 100" xml:space="preserve">
<g>
	<path fill="#54813B" d="M10.9,40.5c0.1,0.1,0.1,0.1,0.1,0.1c0-0.1,0.1-0.1,0.3-0.1s0.3,0,0.3,0h0.1h0.1c0,0,0.1,0,0.2,0
		c0.1,0,0.1,0,0.2,0c0.1,0,0.2,0,0.3,0c0.2,0,0.3,0,0.4,0c0,0,0.1,0,0.2,0c0.1,0,0.1,0,0.2,0h0.1c0,0,0.1,0,0.2-0.1
		c0.5,0,0.7,0.1,0.8,0.1s0.2,0,0.3,0s0.1,0,0.2,0c0.1,0,0.1,0,0.2,0c0.1,0,0.2,0,0.3,0s0.1,0,0.1,0s0.1,0,0.2,0c0.1,0,0.2,0,0.2,0
		H16c0.1,0,0.1,0,0.2,0h0.1c0,0,0.1,0,0.2,0s0.2,0,0.2,0l0.1,0.1h0.1H17c0.1,0,0.2,0,0.4,0c0.2,0,0.3,0,0.4,0c0,0,0.1,0.1,0.2,0.1
		s0.2,0,0.3-0.1h0.1c0,0,0,0,0.1,0s0.3,0,0.7,0.1c0.3,0.1,0.6,0.1,0.8,0c0.1-0.1,0.2-0.1,0.2-0.1v0.1c0.1,0.1,0.2,0.1,0.2,0.1
		s0.1,0,0.2,0s0.2,0,0.2,0h0.1c0.1,0.1,0.2,0.1,0.2,0c0.1,0.1,0.1,0.1,0.1,0.1c0.1-0.1,0.2,0,0.3,0c0.1-0.1,0.2-0.1,0.4-0.1v0.1
		c0,0,0.2,0.1,0.6,0.1c0,0.1,0.1,0.1,0.3,0.1c0.2,0,0.3,0.1,0.3,0.1h0.1c0.5,0.4,0.9,0.6,1.1,0.8h0.1c0,0.1,0.1,0.2,0.2,0.3
		c0.1,0,0.2,0.1,0.3,0.2c0.1,0.1,0.2,0.2,0.3,0.3c0.1,0.1,0.2,0.2,0.2,0.2c0,0.1,0,0.1,0.1,0.2c0.1,0.1,0.1,0.2,0.1,0.2
		c0.1,0.1,0.2,0.2,0.2,0.2c0,0.1,0,0.1,0,0.1s0,0.1,0.1,0.1c0,0.1,0.1,0.1,0.1,0.1c0,0.2,0,0.3,0,0.4c0,0,0,0,0,0.1l0.1,0.1
		c0,0,0,0.1,0,0.2c0,0.1,0.1,0.2,0.1,0.2s0,0,0.1,0h0.1V45h-0.1c0,0.1,0,0.2,0.1,0.3c0,0.1,0,0.2,0,0.2v0.1c0,0.1,0,0.2,0,0.4
		s0,0.4-0.1,0.4c-0.1,0.1-0.1,0.2-0.1,0.2c0,0.1,0,0.2,0,0.2c-0.1,0.1-0.1,0.1-0.1,0.1c0,0.1-0.1,0.1-0.1,0.2c0,0.1,0,0.1,0,0.1
		c-0.1,0.1-0.1,0.2-0.1,0.4c0,0-0.1,0.1-0.2,0.3c-0.1,0.1-0.2,0.2-0.2,0.3v0.1c0,0,0,0.1-0.1,0.1s-0.1,0.1-0.1,0.2
		c-0.3,0.2-0.5,0.4-0.5,0.8h-0.1c0,0,0,0-0.1,0s-0.1,0.1-0.1,0.2c-0.4,0.3-0.6,0.5-0.6,0.6c-0.2,0.1-0.3,0.2-0.3,0.3
		c-0.4,0.3-0.7,0.5-0.8,0.7c-0.1,0-0.2,0.1-0.3,0.2c0,0-0.1,0.1-0.2,0.2c-0.1,0.1-0.2,0.1-0.2,0.1c-0.2,0.1-0.3,0.2-0.3,0.2
		c0,0.1,0,0.1,0.1,0.2c0,0,0.1,0.1,0.2,0.1c0,0,0.1,0.1,0.2,0.1s0.1,0.1,0.1,0.1s0,0,0.1,0.1h0.1c0.1,0,0.1,0,0.1,0s0,0,0.1,0.1
		c0.1,0,0.1,0.1,0.2,0.1h0.1v0.1h0.2c0.1,0.1,0.2,0.1,0.3,0.1c0.1,0.1,0.2,0.1,0.3,0.2c0.1,0.1,0.2,0.2,0.3,0.2h0.1
		c0,0,0.1,0,0.1,0.1l0.1,0.1h0.2l0.1,0.1c0.1,0.1,0.2,0.2,0.3,0.2c0.1,0.1,0.2,0.1,0.4,0.1c0.2,0.2,0.3,0.3,0.5,0.2
		c0,0,0.1,0.1,0.1,0.2c0.3,0.1,0.5,0.3,0.7,0.5h0.1c0.3,0.2,0.4,0.3,0.5,0.3c0,0.1,0.1,0.1,0.3,0.2c0.1,0,0.2,0.1,0.2,0.2
		c0.1,0,0.1,0,0.2,0.1s0.2,0.1,0.2,0.1c0.1,0.1,0.3,0.3,0.6,0.5c0.3,0.2,0.5,0.3,0.6,0.5h0.1c0,0,0.1,0,0.2,0.1s0.1,0.1,0.2,0.2h0.1
		h0.1c0,0.1,0.1,0.2,0.4,0.4c0.1,0.1,0.2,0.1,0.3,0c0.2,0,0.3,0,0.3,0c0.2,0.1,0.3,0.1,0.3,0.1c0.1-0.1,0.1-0.1,0.1-0.1
		s0.1,0,0.1,0.1c0.2-0.1,0.3,0,0.4,0.1c0.1,0.1,0.1,0.2,0.1,0.2s0,0.1,0.1,0.1h0.1c0,0,0.1,0.1,0.1,0.2c0.1,0.1,0.1,0.2,0.2,0.2v0.2
		c0,0,0,0.1,0.1,0.1v0.1c0,0,0.1,0.1,0.2,0.2c0.1,0.1,0.1,0.1,0.1,0.2c0,0,0,0.1,0,0.2c0.1,0.3,0.1,0.4,0,0.4c0,0,0.1,0.1,0.1,0.2
		c0,0.1,0,0.2,0,0.4s0,0.3,0,0.4h-0.4c-0.1,0-0.1,0.1-0.2,0.1c0,0.1-0.1,0.1-0.1,0.1s0,0.1-0.1,0.1c0,0-0.1,0-0.1,0.1
		c0.1,0.1,0.1,0.1,0.1,0.1s-0.1,0.1-0.2,0.1c-0.1,0-0.1,0-0.1,0.1v0.1c0,0,0,0,0,0.1c-0.1,0.1-0.1,0.1-0.2,0
		c-0.1-0.1-0.1-0.1-0.1-0.1s-0.1,0-0.2,0.1c0.3,1.4,0.2,1.4,0.1,1.4c-0.2-0.2-0.3-0.3-0.3-0.3h-0.1h-0.1c0-0.1,0-0.2-0.1-0.2H31l0,0
		c0,0,0,0,0-0.1s-0.1-0.1-0.2-0.2h-0.1c-0.1,0-0.1,0-0.1,0c-0.1-0.2-0.3-0.4-0.4-0.5h-0.1c-0.1,0-0.1-0.1-0.2-0.2
		c-0.2-0.2-0.3-0.2-0.5-0.2c0,0-0.1-0.1-0.2-0.1c-0.1-0.1-0.1-0.1-0.2-0.1c-0.1,0.1-0.1,0.1-0.1,0.1l-0.1-0.1c0-0.1,0-0.1-0.1-0.1
		c0,0-0.1,0-0.2-0.1c-0.1,0-0.1-0.1-0.2-0.1c0-0.2-0.1-0.2-0.3-0.1c0-0.1,0-0.1,0-0.1c-0.2-0.2-0.3-0.3-0.3-0.4c0,0-0.3-0.1-0.7-0.4
		h-0.1c0,0,0,0-0.1,0c0-0.1-0.1-0.2-0.2-0.3c-0.1,0-0.3-0.1-0.5-0.3H26h-0.1c0,0,0,0,0-0.1V59h-0.1h-0.1c-0.1,0-0.1-0.1-0.2-0.2
		c-0.1-0.1-0.1-0.1-0.1-0.1s0-0.1-0.1-0.1s-0.1-0.1-0.1-0.1c-0.1,0-0.2-0.1-0.4-0.2C24.2,58.1,24.1,58,24,58s-0.1,0-0.1,0
		c0-0.1-0.1-0.2-0.3-0.2c0-0.1-0.2-0.2-0.4-0.3h-0.1L23,57.4c0,0,0,0-0.1,0h-0.1c0,0-0.1,0-0.1-0.1h-0.1c-0.1,0-0.2,0-0.2,0
		s-0.1,0-0.1-0.1c-0.1-0.1-0.1-0.1-0.2-0.2C22,57.1,22,57.1,22,57c0,0,0,0,0-0.1s0-0.1-0.1-0.1h-0.1h-0.1l-0.1-0.1
		c0,0,0-0.1-0.1-0.1h-0.2l-0.1-0.1c-0.1,0-0.1,0-0.2-0.1s-0.2-0.1-0.2,0c0-0.1-0.1-0.1-0.2-0.2c-0.1,0-0.2-0.1-0.2-0.1
		c-0.1,0-0.2,0-0.3-0.1c-0.2,0-0.3-0.1-0.4-0.2c-0.1,0-0.2,0-0.3,0.1l0,0v-0.1c0,0-0.1,0-0.3,0v-0.1c0,0,0,0,0-0.1
		c-0.3-0.2-0.5-0.3-0.7-0.2c-0.1-0.2-0.3-0.2-0.4-0.2c0,0-0.1-0.1-0.3-0.1c0,0-0.1,0-0.1-0.1c-0.1,0-0.1,0.1-0.1,0.3s0,0.3,0,0.4
		l0.1,0.1v0.1V56c0,0.1,0,0.1,0,0.1c0,0.4,0,0.7,0.1,0.7l0.1,0.4v0.1c0,0,0,0.1,0.1,0.2c0,0.1,0,0.1,0,0.2s0,0.1,0,0.2L18,58
		c0,0.1,0.1,0.1,0.1,0.1c0,0.1,0,0.2,0,0.3c0,0.2,0,0.3,0,0.3s0,0.1,0.1,0.1c0,0,0.1,0,0.1,0.1c0,0.3,0,0.4,0.1,0.5
		c0,0.1,0,0.2,0.1,0.4c0,0,0,0.1,0,0.3s0,0.3,0,0.4h0.1l0.1,0.1c0,0.1,0,0.1-0.1,0.2l-0.1,0.1c0,0,0,0.2,0,0.4c0,0.1,0,0.3,0,0.6
		s0,0.5,0,0.5v0.1h-0.1c0,0,0,0-0.1,0.1c0,0.1-0.1,0.1-0.1,0.2c-0.1,0.1-0.1,0.2-0.1,0.2c-0.1,0-0.1,0-0.2,0
		c-0.3,0.1-0.4,0.2-0.4,0.4h-0.1c0,0,0,0-0.1,0c0,0,0,0,0,0.1h-0.1c0,0,0-0.1-0.1-0.1s-0.2,0-0.3,0c-0.1,0.1-0.2,0.1-0.2,0.1
		c0-0.1,0-0.2-0.1-0.2c-0.2,0-0.4-0.1-0.5-0.4c-0.1,0-0.1,0-0.2,0c0,0-0.1,0-0.2,0c0.1-0.2,0-0.3-0.2-0.4c-0.2-0.1-0.3-0.2-0.3-0.2
		H15c0,0,0,0-0.1,0c-0.1-0.1,0-0.2,0.1-0.2c0-0.1,0-0.1,0-0.2c0-0.1,0-0.1,0-0.1s0-0.1,0-0.2l-0.1-0.1h-0.1c0,0,0-0.1,0.1-0.1
		c0.1-0.3,0.1-0.5,0-0.5v-0.5C15,60.3,15,60.2,15,60s0-0.3-0.1-0.3c0-0.1,0-0.2,0-0.4s0-0.3,0-0.4S14.5,59,14.5,59
		c0-0.1,0-0.2,0-0.4s-0.1-0.3-0.1-0.4c0-0.1,0-0.2,0-0.3s0-0.2,0-0.3c0,0,0-0.1-0.1-0.1c0-0.1-0.1-0.1-0.1-0.1c0-0.1,0-0.2,0-0.3
		c0-0.2,0-0.3,0-0.4c0-0.1-0.1-0.1-0.1-0.2c0-0.1-0.1-0.2-0.1-0.2c0-0.1,0-0.2,0-0.4s0-0.3-0.1-0.3c0-0.1,0-0.2-0.1-0.3
		c0,0,0-0.2,0-0.5v-0.1l-0.1-0.1c0,0,0-0.1,0-0.2c0-0.1,0-0.1,0-0.2l-0.1-0.1c0,0,0,0-0.1,0c0-0.1,0-0.2,0-0.4s0-0.3,0-0.3
		s0-0.1-0.1-0.2c0-0.1,0-0.2,0-0.3s0-0.2,0-0.3c0,0,0-0.1,0-0.2c0-0.1,0-0.1,0-0.2v-0.1V52c0-0.1-0.1-0.1-0.1-0.1v-0.1v-0.1
		c0-0.1-0.1-0.1-0.2-0.1c0-0.1,0-0.1,0-0.1h0.1c0,0,0,0,0.1,0l-0.1-0.2c0-0.1,0-0.2,0-0.4s0-0.4,0-0.5C13,50.1,13,50.1,13,50v-0.1
		v-0.1v-0.1l-0.1-0.1c0-0.2-0.1-0.3-0.1-0.3l0.1-0.1c0,0-0.1-0.2-0.1-0.4c0,0,0-0.1-0.1-0.3c0-0.1,0-0.2,0-0.2v-0.1v-0.1V48v-0.1
		c0,0,0-0.1-0.1-0.1c-0.1-0.2-0.1-0.3,0-0.3c-0.1-0.1-0.1-0.2-0.1-0.4s0-0.3-0.1-0.4l0,0h-0.1c0,0,0-0.1,0.1-0.1l0,0
		c0-0.1,0-0.2,0-0.3c0-0.2,0-0.3,0-0.3v-0.1c0-0.2-0.1-0.3-0.1-0.3h-0.1h-0.1c0,0,0-0.1,0.1-0.1c0,0,0,0,0-0.1s0-0.2,0-0.3
		s0-0.2,0-0.3v-0.1c0,0-0.1,0-0.1-0.1c0,0-0.1-0.1-0.1-0.2s0-0.2,0-0.2c-0.1,0-0.3,0-0.5-0.1c-0.2,0-0.3,0-0.3,0l-0.3-0.2
		c0-0.1-0.1-0.2-0.3-0.2c0,0-0.1-0.1-0.1-0.2c-0.1-0.1-0.1-0.2-0.1-0.3c-0.1-0.1-0.2-0.2-0.3-0.2C10,42.9,10,42.8,10,42.6
		s0-0.3,0-0.4c0-0.1,0-0.3,0-0.4c0-0.1,0.1-0.2,0.2-0.3c0.1-0.1,0.2-0.3,0.2-0.4c0.1-0.1,0.1-0.2,0.1-0.2s0,0,0-0.1l0,0
		c0,0,0.1,0,0.3,0C10.8,40.7,10.9,40.7,10.9,40.5z M10.5,40.7c0.3,0,0.4-0.1,0.4-0.2c0.1,0.1,0.1,0.1,0.1,0.1c0-0.1,0.1-0.1,0.3-0.1
		s0.3,0,0.3,0h0.1h0.1c0,0,0.1,0,0.2,0c0.1,0,0.1,0,0.2,0c0.1,0,0.2,0,0.3,0c0.2,0,0.3,0,0.4,0c0,0,0.1,0,0.2,0c0.1,0,0.1,0,0.2,0
		h0.1c0,0,0.1,0,0.2-0.1c0.5,0,0.7,0.1,0.7,0.1c0.1,0,0.2,0,0.4,0c0.1,0,0.1,0,0.2,0c0.1,0,0.1,0,0.2,0c0.1,0,0.2,0,0.3,0
		s0.1,0,0.1,0s0.1,0,0.2,0c0.1,0,0.2,0,0.2,0s0.1,0,0.1,0.1c0.1,0,0.1,0.1,0.2,0h0.1c0,0,0.1,0,0.2,0s0.2,0,0.2,0l0.1,0.1h0.1H17
		c0.1,0,0.2,0,0.4,0c0.2,0,0.3,0,0.4,0c0,0,0.1,0.1,0.2,0.1s0.2,0,0.3-0.1h0.1c0,0,0,0,0.1,0s0.3,0,0.7,0.1c0.3,0.1,0.6,0.1,0.8,0
		c0.1-0.1,0.2-0.1,0.2-0.1v0.1c0.1,0.1,0.2,0.1,0.2,0.1s0.1,0,0.2,0s0.2,0,0.2,0h0.1c0.1,0.1,0.2,0.1,0.2,0c0.1,0.1,0.1,0.1,0.1,0.1
		c0.1-0.1,0.2,0,0.3,0c0.1-0.1,0.2-0.1,0.4-0.1V41c0,0,0.2,0.1,0.6,0.1c0,0.1,0.1,0.1,0.3,0.1c0.2,0,0.3,0.1,0.3,0.1h0.1
		c0.5,0.4,0.9,0.6,1.1,0.8h0.1c0,0.1,0.1,0.2,0.2,0.3c0.1,0,0.2,0.1,0.3,0.2c0.1,0.1,0.2,0.2,0.3,0.3c0.1,0.1,0.2,0.2,0.2,0.2
		c0,0.1,0,0.1,0.1,0.2c0.1,0.1,0.1,0.2,0.1,0.2c0.1,0.1,0.2,0.2,0.2,0.2c0,0.1,0,0.1,0,0.1s0,0.1,0.1,0.1C25.9,44,26,44,26,44
		c0,0.2,0,0.3,0,0.4c0,0,0,0,0,0.1l0.1,0.1c0,0,0,0.1,0,0.2c0,0.1,0.1,0.2,0.1,0.2s0,0,0.1,0h0.1v0.1h-0.1c0,0.1,0,0.2,0.1,0.3
		c0,0.1,0,0.2,0,0.2v0.1c0,0.1,0,0.2,0,0.4s0,0.4-0.1,0.4c-0.1,0.1-0.1,0.2-0.1,0.2c0,0.1,0,0.2,0,0.2C26.1,47,26.1,47,26.1,47
		c0,0.1-0.1,0.1-0.1,0.2c0,0.1,0,0.1,0,0.1c-0.1,0.1-0.1,0.2-0.1,0.4c0,0-0.1,0.1-0.2,0.3c-0.1,0.1-0.2,0.2-0.2,0.3v0.1
		c0,0,0,0.1-0.1,0.1s-0.1,0.1-0.1,0.2c-0.3,0.2-0.5,0.4-0.5,0.8h-0.1c0,0,0,0-0.1,0s-0.1,0.1-0.1,0.2c-0.4,0.3-0.6,0.5-0.6,0.6
		c-0.2,0.1-0.3,0.2-0.3,0.3c-0.4,0.3-0.7,0.5-0.8,0.7c-0.1,0-0.2,0.1-0.3,0.2c0,0-0.1,0.1-0.2,0.2c-0.1,0.1-0.2,0.1-0.2,0.1
		c-0.2,0.1-0.3,0.2-0.3,0.2c0,0.1,0,0.1,0.1,0.2c0,0,0.1,0.1,0.2,0.1c0,0,0.1,0.1,0.2,0.1s0.1,0.1,0.1,0.1s0,0,0.1,0.1h0.1
		c0.1,0,0.1,0,0.1,0s0,0,0.1,0.1c0.1,0,0.1,0.1,0.2,0.1h0.1v0.1h0.2c0.1,0.1,0.2,0.1,0.3,0.1c0.1,0.1,0.2,0.1,0.3,0.2
		c0.1,0.1,0.2,0.2,0.3,0.2h0.1c0,0,0.1,0,0.1,0.1l0.1,0.1h0.2l0.1,0.1c0.1,0.1,0.2,0.2,0.3,0.2c0.1,0.1,0.2,0.1,0.4,0.1
		c0.2,0.2,0.3,0.3,0.5,0.2c0,0,0.1,0.1,0.1,0.2c0.3,0.1,0.5,0.3,0.7,0.5h0.1c0.3,0.2,0.4,0.3,0.5,0.3c0,0.1,0.1,0.1,0.3,0.2
		c0.1,0,0.2,0.1,0.2,0.2c0.1,0,0.1,0,0.2,0.1s0.2,0.1,0.2,0.1c0.1,0.1,0.3,0.3,0.6,0.5c0.3,0.2,0.5,0.3,0.6,0.5h0.1
		c0.2,0.2,0.3,0.3,0.3,0.3H30h0.1c0,0.1,0.1,0.2,0.4,0.4c0.1,0.1,0.2,0.1,0.3,0c0.2,0,0.3,0,0.3,0c0.2,0.1,0.3,0.1,0.3,0.1
		c0.1-0.1,0.1-0.1,0.1-0.1s0.1,0,0.1,0.1c0.2-0.1,0.3,0,0.4,0.1c0.1,0.1,0.1,0.2,0.1,0.2s0,0.1,0.1,0.1h0.1c0,0,0.1,0.1,0.1,0.2
		c0.1,0.1,0.1,0.2,0.2,0.2v0.2c0,0,0,0.1,0.1,0.1v0.1c0,0,0.1,0.1,0.2,0.2c0.1,0.1,0.1,0.1,0.1,0.2c0,0,0,0.1,0,0.2
		c0.1,0.3,0.1,0.4,0,0.4c0,0,0.1,0.1,0.1,0.2c0,0.1,0,0.2,0,0.4s0,0.3,0,0.4h-0.4c-0.1,0-0.1,0.1-0.2,0.1c0,0.1-0.1,0.1-0.1,0.1
		s0,0.1-0.1,0.1c0,0-0.1,0-0.1,0.1c0.1,0.1,0.1,0.1,0.1,0.1s-0.1,0.1-0.2,0.1c-0.1,0-0.1,0-0.1,0.1v0.1c0,0,0,0,0,0.1
		c-0.1,0.1-0.1,0.1-0.2,0s-0.1-0.1-0.1-0.1s-0.1,0-0.2,0.1c0.4,1.3,0.3,1.3,0.2,1.3c-0.2-0.2-0.3-0.3-0.3-0.3h-0.1h-0.1
		c0-0.1,0-0.2-0.1-0.2H31l0,0c0,0,0,0,0-0.1s-0.1-0.1-0.2-0.2h-0.1c-0.1,0-0.1,0-0.1,0c-0.1-0.2-0.3-0.4-0.4-0.5h-0.1
		c-0.1,0-0.1-0.1-0.2-0.2c-0.2-0.2-0.3-0.2-0.5-0.2c0,0-0.1-0.1-0.2-0.1c-0.1-0.1-0.1-0.1-0.2-0.1c-0.1,0.1-0.1,0.1-0.1,0.1
		l-0.1-0.1c0-0.1,0-0.1-0.1-0.1c0,0-0.1,0-0.2-0.1c-0.1,0-0.1-0.1-0.2-0.1c0-0.2-0.1-0.2-0.3-0.1c0-0.1,0-0.1,0-0.1
		c-0.2-0.2-0.3-0.3-0.3-0.4c0,0-0.3-0.1-0.7-0.4h-0.1c0,0,0,0-0.1,0c0-0.1-0.1-0.2-0.2-0.3c-0.1,0-0.3-0.1-0.5-0.3H26h-0.1
		c0,0,0,0,0-0.1V59h-0.1h-0.1c-0.1,0-0.1-0.1-0.2-0.2c-0.1-0.1-0.1-0.1-0.1-0.1s0-0.1-0.1-0.1s-0.1-0.1-0.1-0.1
		c-0.1,0-0.2-0.1-0.4-0.2C24.2,58.1,24.1,58,24,58s-0.1,0-0.1,0c0-0.1-0.1-0.2-0.3-0.2c0-0.1-0.2-0.2-0.4-0.3h-0.1L23,57.4
		c0,0,0,0-0.1,0h-0.1c0,0-0.1,0-0.1-0.1h-0.1c-0.1,0-0.2,0-0.2,0s-0.1,0-0.1-0.1c-0.1-0.1-0.1-0.1-0.2-0.2C22,57.1,22,57.1,22,57
		c0,0,0,0,0-0.1s0-0.1-0.1-0.1h-0.1h-0.1l-0.1-0.1c0,0,0-0.1-0.1-0.1h-0.2l-0.1-0.1c-0.1,0-0.1,0-0.2-0.1s-0.2-0.1-0.2,0
		c0-0.1-0.1-0.1-0.2-0.2c-0.1,0-0.2-0.1-0.2-0.1c-0.1,0-0.2,0-0.3-0.1c-0.2,0-0.3-0.1-0.4-0.2c-0.1,0-0.2,0-0.3,0.1l0,0v-0.1
		c0,0-0.1,0-0.3,0v-0.1c0,0,0,0,0-0.1c-0.3-0.2-0.5-0.3-0.7-0.2c-0.1-0.2-0.3-0.2-0.4-0.2c0,0-0.1-0.1-0.3-0.1c0,0-0.1,0-0.1-0.1
		c-0.1,0-0.1,0.1-0.1,0.3s0,0.3,0,0.4l0.1,0.1v0.1V56c0,0.1,0,0.1,0,0.1c0,0.4,0,0.7,0.1,0.7l0.1,0.4v0.1c0,0,0,0.1,0.1,0.2
		c0,0.1,0,0.1,0,0.2s0,0.1,0,0.2L18,58c0,0.1,0.1,0.1,0.1,0.1c0,0.1,0,0.2,0,0.3c0,0.2,0,0.3,0,0.3s0,0.1,0.1,0.1c0,0,0.1,0,0.1,0.1
		c0,0.3,0,0.4,0.1,0.5c0,0.1,0,0.2,0.1,0.4c0,0,0,0.1,0,0.3s0,0.3,0,0.4h0.1l0.1,0.1c0,0.1,0,0.1-0.1,0.2l-0.1,0.1c0,0,0,0.2,0,0.4
		c0,0.1,0,0.3,0,0.6s0,0.5,0,0.5v0.1h-0.1c0,0,0,0-0.1,0.1c0,0.1-0.1,0.1-0.1,0.2c-0.1,0.1-0.1,0.2-0.1,0.2c-0.1,0-0.1,0-0.2,0
		c-0.3,0.1-0.4,0.2-0.4,0.4h-0.1c0,0,0,0-0.1,0c0,0,0,0,0,0.1h-0.1c0,0,0-0.1-0.1-0.1s-0.2,0-0.3,0c-0.1,0.1-0.2,0.1-0.2,0.1
		c0-0.1,0-0.2-0.1-0.2c-0.2,0-0.4-0.1-0.5-0.4c-0.1,0-0.1,0-0.2,0c0,0-0.1,0-0.2,0c0.1-0.2,0-0.3-0.2-0.4c-0.2-0.1-0.3-0.2-0.3-0.2
		H15c0,0,0,0-0.1,0c-0.1-0.1,0-0.2,0.1-0.2c0-0.1,0-0.1,0-0.2c0-0.1,0-0.1,0-0.1s0-0.1,0-0.2l-0.1-0.1h-0.1c0,0,0-0.1,0.1-0.1
		c0.1-0.3,0.1-0.5,0-0.5v-0.5C15,60.3,15,60.2,15,60s0-0.3-0.1-0.3c0-0.1,0-0.2,0-0.4s0-0.3,0-0.4S14.5,59,14.5,59
		c0-0.1,0-0.2,0-0.4s-0.1-0.3-0.1-0.4c0-0.1,0-0.2,0-0.3s0-0.2,0-0.3c0,0,0-0.1-0.1-0.1c0-0.1-0.1-0.1-0.1-0.1c0-0.1,0-0.2,0-0.3
		c0-0.2,0-0.3,0-0.4c0-0.1-0.1-0.1-0.1-0.2c0-0.1-0.1-0.2-0.1-0.2c0-0.1,0-0.2,0-0.4s0-0.3-0.1-0.3c0-0.1,0-0.2-0.1-0.3
		c0,0,0-0.2,0-0.5v-0.1l-0.1-0.1c0,0,0-0.1,0-0.2c0-0.1,0-0.1,0-0.2l-0.1-0.1c0,0,0,0-0.1,0c0-0.1,0-0.2,0-0.4s0-0.3,0-0.3
		s0-0.1-0.1-0.2c0-0.1,0-0.2,0-0.3s0-0.2,0-0.3c0,0,0-0.1,0-0.2c0-0.1,0-0.1,0-0.2v-0.1V52c0-0.1-0.1-0.1-0.1-0.1v-0.1v-0.1
		c0-0.1-0.1-0.1-0.2-0.1c0-0.1,0-0.1,0-0.1h0.1c0,0,0,0,0.1,0l-0.1-0.2c0-0.1,0-0.2,0-0.4s0-0.4,0-0.5C13,50.1,13,50.1,13,50v-0.1
		v-0.1v-0.1l-0.1-0.1c0-0.2-0.1-0.3-0.1-0.3l0.1-0.1c0,0-0.1-0.2-0.1-0.4c0,0,0-0.1-0.1-0.3c0-0.1,0-0.2,0-0.2v-0.1v-0.1V48v-0.1
		c0,0,0-0.1-0.1-0.1c-0.1-0.2-0.1-0.3,0-0.3c-0.1-0.1-0.1-0.2-0.1-0.4s0-0.3-0.1-0.4l0,0h-0.1c0,0,0-0.1,0.1-0.1l0,0
		c0-0.1,0-0.2,0-0.3c0-0.2,0-0.3,0-0.3v-0.1c0-0.2-0.1-0.3-0.1-0.3h-0.1h-0.1c0,0,0-0.1,0.1-0.1c0,0,0,0,0-0.1s0-0.2,0-0.3
		s0-0.2,0-0.3v-0.1c0,0-0.1,0-0.1-0.1c0,0-0.1-0.1-0.1-0.2s0-0.2,0-0.2c-0.1,0-0.3,0-0.5-0.1c-0.2,0-0.3,0-0.3,0l-0.3-0.2
		c0-0.1-0.1-0.2-0.3-0.2c0,0-0.1-0.1-0.1-0.2c-0.1-0.1-0.1-0.2-0.1-0.3c-0.1-0.1-0.2-0.2-0.3-0.2C10,42.9,10,42.8,10,42.6
		s0-0.3,0-0.4c0-0.1,0-0.3,0-0.4c0-0.1,0.1-0.2,0.2-0.3c0.1-0.1,0.2-0.3,0.2-0.4c0.1-0.1,0.1-0.2,0.1-0.2s0,0,0-0.1l0,0
		C10.3,40.7,10.4,40.7,10.5,40.7z M15.6,44.2c0,0,0,0.1,0,0.4v0.1v0.1c0,0.1,0,0.1,0.1,0.2c0.1,0.1,0.1,0.2,0.1,0.2v0.1l-0.1,0.1
		c0,0.1,0,0.2,0.1,0.3c0,0.2,0,0.3,0,0.4c0.1,0.1,0.1,0.2,0.1,0.4c0,0.1,0,0.2,0,0.2s0,0.1,0.1,0.2s0.1,0.1,0.1,0.2c0,0,0,0.1,0,0.2
		c0,0.1,0,0.2,0.1,0.2c0,0.2,0,0.3,0,0.3v0.1V48c0,0,0,0.1,0,0.3c0,0.1,0,0.1,0,0.2c0,0.1,0,0.1,0,0.1s0,0.1,0.1,0.1v0.1
		c0,0.1,0,0.2,0,0.3s0,0.2,0,0.3v0.1c0,0,0,0,0.1,0c0,0.1,0,0.2,0,0.4s0.1,0.3,0.1,0.4c-0.1,0.1-0.1,0.3,0,0.4
		c0,0.1,0.1,0.2,0.1,0.2s0.1,0,0.3,0c0.2,0,0.3,0,0.3,0s0-0.1,0.1-0.1h0.1h0.1c0.1,0,0.1,0,0.1,0h0.1c0.2,0,0.4-0.1,0.4-0.1h0.1
		c0.1-0.1,0.2-0.1,0.4-0.1c0.1,0,0.2,0,0.2,0c0.1,0,0.2-0.1,0.3-0.1c0.1-0.1,0.1-0.1,0.1-0.1h0.1c0.1,0,0.2-0.1,0.3-0.2
		c0.1-0.1,0.2-0.2,0.2-0.2c0.2,0,0.3-0.1,0.5-0.3s0.3-0.3,0.5-0.3c0.3-0.3,0.5-0.5,0.6-0.5c0-0.1,0.1-0.2,0.2-0.3s0.2-0.2,0.2-0.2
		c0.2-0.1,0.3-0.2,0.4-0.5s0.2-0.5,0.3-0.5c0-0.1,0-0.2,0.1-0.3s0.1-0.2,0.1-0.3c0.2-0.2,0.3-0.5,0.1-0.7c0,0,0-0.1,0-0.4
		c0-0.1-0.1-0.1-0.3-0.2c-0.1-0.1-0.2-0.2-0.3-0.3c0,0-0.1,0-0.2-0.1c-0.1,0-0.2-0.1-0.2,0c0-0.1-0.1-0.1-0.3-0.1
		c-0.1,0-0.2,0-0.2,0s-0.1,0-0.1-0.1l-0.1-0.1H21c-0.1,0-0.1,0-0.1,0s-0.1,0-0.1-0.1s-0.1-0.1-0.3,0c-0.2,0-0.3,0-0.3,0
		c-0.3-0.1-0.4-0.1-0.4,0c-0.1-0.1-0.3-0.2-0.6-0.1c-0.2,0-0.3,0-0.3,0c-0.2,0-0.3,0-0.3,0h-0.1l-0.1-0.1c-0.3,0-0.4,0-0.4,0h-0.1
		c0,0-0.2,0-0.6,0c0,0-0.1,0-0.1-0.1l-0.1-0.1c-0.2,0-0.3,0-0.5,0c-0.1,0-0.2-0.1-0.3-0.1c-0.1,0-0.3,0-0.4,0
		C15.9,44.2,15.7,44.2,15.6,44.2z M16.7,44.3c-0.1,0-0.2-0.1-0.3-0.1c-0.1,0-0.3,0-0.4,0s-0.3,0-0.4,0c0,0,0,0.1,0,0.4v0.1v0.1
		c0,0.1,0,0.1,0.1,0.2c0.1,0.1,0.1,0.2,0.1,0.2v0.1l-0.1,0.1c0,0.1,0,0.2,0.1,0.3c0,0.2,0,0.3,0,0.4c0.1,0.1,0.1,0.2,0.1,0.4
		c0,0.1,0,0.2,0,0.2s0,0.1,0.1,0.2s0.1,0.1,0.1,0.2c0,0,0,0.1,0,0.2c0,0.1,0,0.2,0.1,0.2c0,0.2,0,0.3,0,0.3v0.1V48c0,0,0,0.1,0,0.3
		c0,0.1,0,0.1,0,0.2c0,0.1,0,0.1,0,0.1s0,0.1,0.1,0.1v0.1c0,0.1,0,0.2,0,0.3s0,0.2,0,0.3v0.1c0,0,0,0,0.1,0c0,0.1,0,0.2,0,0.4
		s0.1,0.3,0.1,0.4c-0.1,0.1-0.1,0.3,0,0.4c0,0.1,0.1,0.2,0.1,0.2s0.1,0,0.3,0c0.2,0,0.3,0,0.3,0s0-0.1,0.1-0.1h0.1h0.1
		c0.1,0,0.1,0,0.1,0h0.1c0.2,0,0.4-0.1,0.4-0.1h0.1c0.1-0.1,0.2-0.1,0.4-0.1c0.1,0,0.2,0,0.2,0c0.1,0,0.2-0.1,0.3-0.1
		c0.1-0.1,0.1-0.1,0.1-0.1h0.1c0.1,0,0.2-0.1,0.3-0.2c0.1-0.1,0.2-0.2,0.2-0.2c0.2,0,0.3-0.1,0.5-0.3s0.3-0.3,0.5-0.3
		c0.3-0.3,0.5-0.5,0.6-0.5c0-0.1,0.1-0.2,0.2-0.3s0.2-0.2,0.2-0.2c0.2-0.1,0.3-0.2,0.4-0.5s0.2-0.5,0.3-0.5c0-0.1,0-0.2,0.1-0.3
		s0.1-0.2,0.1-0.3c0.2-0.2,0.3-0.5,0.1-0.7c0,0,0-0.1,0-0.4c0-0.1-0.1-0.1-0.3-0.2c-0.1-0.1-0.2-0.2-0.3-0.3c0,0-0.1,0-0.2-0.1
		c-0.1,0-0.2-0.1-0.2,0c0-0.1-0.1-0.1-0.3-0.1c-0.1,0-0.2,0-0.2,0s-0.1,0-0.1-0.1l-0.1-0.1H21c-0.1,0-0.1,0-0.1,0s-0.1,0-0.1-0.1
		s-0.1-0.1-0.3,0c-0.2,0-0.3,0-0.3,0c-0.3-0.1-0.4-0.1-0.4,0c-0.1-0.1-0.3-0.2-0.6-0.1c-0.2,0-0.3,0-0.3,0c-0.2,0-0.3,0-0.3,0h-0.1
		l-0.1-0.1c-0.3,0-0.4,0-0.4,0h-0.1c0,0-0.2,0-0.6,0c0,0-0.1,0-0.1-0.1l-0.1-0.1C17,44.2,16.9,44.2,16.7,44.3z M33.1,62.4
		C33.1,62.4,33.2,62.4,33.1,62.4C33.2,62.4,33.2,62.5,33.1,62.4C33.1,62.5,33.1,62.5,33.1,62.4L33.1,62.4z M33.2,62.5
		C33.1,62.5,33.1,62.5,33.2,62.5C33.1,62.4,33.1,62.4,33.2,62.5C33.1,62.4,33.2,62.4,33.2,62.5C33.2,62.4,33.2,62.5,33.2,62.5z"/>
	<path fill="#54813B" d="M45.9,39c0,0,0.1,0,0.2,0c0.1,0,0.2,0,0.2,0l0,0c0,0,0,0,0,0.1c0,0,0.1,0,0.2,0c0.1,0,0.2,0,0.2,0.1
		c0.1,0,0.3,0,0.5,0.1c0.5,0,0.9,0.1,1,0.3h0.1c0.1,0.1,0.2,0.2,0.4,0.3s0.3,0.2,0.4,0.3v0.1c0.2,0.1,0.4,0.4,0.5,0.9h0.1l0,0
		c0.1,0.2,0,0.3,0,0.4c0,0.1,0,0.2-0.1,0.3s-0.1,0.2-0.1,0.2c-0.1,0.1-0.1,0.1-0.1,0.1c0,0.1,0,0.2-0.1,0.3c0,0.1,0,0.1,0,0.2
		l-0.1,0.1h-0.1c0,0,0,0-0.1,0c0,0,0,0.1-0.1,0.1s-0.1,0.1-0.2,0L48.6,43l-0.1,0.1c-0.2,0-0.3,0-0.3,0c0,0.1,0,0.1,0,0.1
		s-0.1,0-0.2,0c-0.1,0-0.2,0-0.2,0h-0.1h-0.1c0,0,0-0.1,0.1-0.1c0,0-0.1-0.1-0.1-0.2c0-0.1-0.1-0.1-0.1-0.2l-0.1,0.1h-0.1
		c0-0.1,0-0.1-0.1-0.2c-0.1-0.1-0.1-0.1-0.2-0.1v0.1v0.1l-0.1-0.1l-0.1-0.1c0,0-0.1,0-0.1-0.1c0-0.2-0.2-0.3-0.6-0.3
		c-0.1,0-0.1,0-0.2,0.1c-0.1,0-0.1,0-0.2,0s-0.2,0-0.2,0l-0.1,0.1c-0.1,0-0.2,0-0.5,0c-0.4,0.1-0.5,0.1-0.6,0.2
		c-0.2-0.1-0.3-0.1-0.4,0c-0.1,0-0.2,0-0.3,0s-0.2,0-0.3,0v0.1c-0.2,0-0.3,0-0.3,0c-0.1-0.1-0.2-0.1-0.3,0c0,0-0.1,0-0.1,0.1
		l-0.1,0.1c-0.1,0-0.1,0-0.2,0s-0.2,0-0.2,0L42,42.9h-0.1c-0.1,0-0.1,0-0.1,0V43c-0.3,0-0.5,0-0.6,0v0.1c0,0,0,0,0,0.1
		c-0.3-0.2-0.5-0.1-0.8,0.2c0,0-0.1,0-0.1-0.1c-0.1,0-0.1,0.1,0,0.2c0,0.1,0.1,0.1,0.1,0.1s0,0.1,0,0.2v0.1l0.1,0.1
		c0,0.2,0,0.2,0.1,0.2c0,0.1,0,0.2,0.1,0.4s0.1,0.3,0,0.4c0,0.1,0,0.2,0.1,0.3c0,0,0,0.1-0.1,0.1c0,0,0,0,0,0.1s0,0.1,0,0.2
		s0.1,0.1,0.1,0.1c0,0.7,0,1.1,0,1.2c-0.1,0.2-0.1,0.4,0.1,0.6c0,0,0,0.1,0,0.3c0,0,0,0.1-0.1,0.1c0,0.1-0.1,0.1,0,0.2
		c0.1,0.1,0.1,0.1,0.1,0.1v0.1l-0.1,0.1c0,0.1,0,0.3,0,0.6s0,0.5,0,0.6c0,0,0,0.1,0,0.2c0,0.1,0.1,0.2,0.3,0.1
		c0.1,0,0.2-0.1,0.3-0.1c0.3,0,0.5,0,0.6-0.1c0.4,0,0.6,0,0.6,0c0.2,0,0.3,0,0.4,0c0,0,0.1,0,0.2-0.1c0.1,0,0.1-0.1,0.2-0.1
		s0.1,0,0.2,0c0.2,0,0.3,0,0.3-0.1c0.2,0.1,0.4,0,0.6,0h0.1h0.1c0,0,0.1,0,0.2,0c0.1,0,0.1,0,0.2,0c0.1,0,0.3,0,0.5,0v-0.1
		c0.1,0.1,0.3,0.1,0.5,0c0.2,0,0.3-0.1,0.4-0.1c0.1,0,0.1,0,0.2,0c0.1,0,0.1-0.1,0.1-0.1h0.1c0,0,0,0,0.1,0.1c0,0,0.1,0,0.2-0.1
		c0.1-0.1,0.2-0.1,0.3-0.1c0.1-0.1,0.1-0.1,0.1-0.1s0.1,0,0.1,0.1c0.3,0,0.4,0,0.5-0.1c0.1,0,0.1,0,0.2,0c0.1,0,0.2,0,0.2,0
		s0.1,0,0.2,0.1c0.1,0,0.2,0.1,0.2,0.1c0.2,0,0.3,0.1,0.3,0.2c0.1,0,0.1,0,0.2,0h0.1c0,0,0,0.1,0.1,0.1c0.3,0,0.4,0,0.4,0
		s0.1,0.1,0.1,0.2v0.1c0,0.1,0.1,0.2,0.2,0.3c0,0.2,0.1,0.4,0.2,0.4c0,0,0,0.1-0.1,0.1c0,0.1,0,0.2-0.1,0.4
		c-0.1,0.1-0.1,0.2-0.1,0.3h-0.1v0.1c0,0,0,0,0,0.1h-0.1l0,0H50l-0.1-0.1h-0.1c0,0-0.1,0-0.1,0.1h-0.1c0,0.1-0.2,0.1-0.4,0.2
		c-0.2,0.1-0.3,0.2-0.3,0.3c-0.3,0-0.5,0-0.7,0.2h-0.1L48,52.3c0,0,0,0,0,0.1c-0.1,0-0.2,0-0.2-0.1h-0.1v0.1c-0.1,0-0.2,0-0.3,0
		s-0.2,0-0.3,0c0,0-0.1,0-0.1,0.1c-0.1,0-0.1,0.1-0.1,0.1c-0.1,0-0.2,0-0.3,0C46,53,46,53,46,53.2c-0.1-0.1-0.2-0.1-0.3-0.1
		s-0.2,0-0.3,0.1v0.1c-0.1,0-0.1,0-0.2,0c-0.1-0.1-0.2,0-0.2,0s-0.1,0-0.2,0v0.2c-0.1,0-0.2,0-0.3,0s-0.1,0-0.2,0
		c-0.1,0-0.1,0.1,0,0.2l-0.2-0.1c0,0-0.2,0-0.5,0l-0.1,0.1l-0.1,0.1c-0.3,0-0.4,0-0.4,0L42.9,54c-0.4,0-0.6,0-0.6,0
		c-0.1,0-0.2,0.1-0.3,0.1c0,0,0,0,0,0.1c-0.3,0.1-0.5,0.1-0.6,0c0,0-0.1,0-0.1,0.1l-0.1,0.1c0,0-0.1,0-0.1-0.1L41,54.2
		c-0.1,0-0.1,0-0.2,0.1c-0.1,0-0.2,0-0.2,0c-0.1,0-0.1,0.2,0,0.6V55l-0.1,0.1c0,0.1,0.1,0.1,0.2,0.1c0.1,0.1,0,0.2-0.1,0.3
		c0,0,0,0.1,0,0.2c0,0.1,0,0.2,0.1,0.2V56c0,0,0,0,0,0.1s0,0.1-0.1,0.3c0.1,0.1,0.1,0.2,0.1,0.6c0,0.3,0,0.5,0.1,0.7
		c-0.2,0.3-0.1,0.4,0.1,0.5c0,0.1,0,0.2,0,0.3v0.1v0.1c0.1,0.2,0.1,0.4,0.1,0.5c0.1,0.1,0.1,0.2,0.2,0.3c0.1,0.2,0.1,0.3,0.1,0.3
		c0.1,0,0.2,0,0.4,0.1c0.2,0,0.4,0,0.4,0s0.1,0,0.1-0.1c0.1,0,0.1,0,0.1,0.1c0.5,0,0.8-0.1,0.8-0.1c0.1,0,0.2,0,0.4,0s0.3,0,0.4,0
		c0.1-0.1,0.3-0.2,0.7-0.2c0,0,0,0,0-0.1v-0.1c0.1,0,0.1,0,0.2,0c0.1,0,0.2,0,0.2,0s0.1-0.1,0.2-0.1c0.1,0,0.2-0.1,0.2-0.1
		c0.2,0,0.4,0,0.6-0.2c0.2-0.1,0.4-0.2,0.6-0.2c0-0.1,0.1-0.1,0.1-0.1c0.2,0.1,0.3,0,0.4,0c0.3,0,0.5-0.1,0.6-0.3c0.2,0,0.3,0,0.3,0
		c0.1-0.1,0.2-0.1,0.3-0.1c0.5,0,0.9,0,0.9,0.1h0.1c0,0.2,0.1,0.3,0.3,0.4h0.1c0.1,0,0.1,0.1,0.2,0.2c0,0.2,0.1,0.3,0.2,0.4
		c0,0.1,0,0.1,0.1,0.2c0.1,0.1,0.1,0.2,0.1,0.2s0,0,0,0.1s0,0.2,0,0.2c-0.2,0.2-0.2,0.4-0.2,0.5c-0.2,0-0.3,0.1-0.3,0.2
		c-0.2,0-0.4,0.1-0.4,0.5h-0.1h-0.1c0,0-0.1,0.1-0.1,0.2H49h-0.1c0,0-0.1,0-0.1,0.1c-0.2,0-0.3,0.1-0.3,0.2h-0.2
		C48,62,47.8,62,47.6,61.9c0,0-0.1,0.1-0.1,0.2h-0.1C47.3,62,47.1,62,47,62s-0.1,0.1-0.1,0.2h-0.2c0,0,0,0,0,0.1c0,0,0,0.1,0,0.2
		c0,0-0.1-0.1-0.2-0.1c-0.1,0-0.2,0-0.3,0l-0.1,0.1c0,0,0,0.1-0.1,0.1h-0.1h-0.1c0,0-0.1,0.1-0.1,0.2c-0.2-0.1-0.3,0-0.5,0
		c0,0,0,0,0,0.1c-0.2,0-0.3,0-0.3,0c-0.2,0-0.3,0.1-0.3,0.1h-0.1h-0.1c0,0-0.1,0-0.2,0c-0.1,0-0.2,0-0.3,0.1c0,0.1,0,0.1,0,0.1
		s-0.1,0-0.3,0c-0.1,0-0.1,0-0.1,0s0-0.1-0.1-0.1c-0.3,0.1-0.5,0.1-0.5,0.1v0.1c-0.1,0-0.1,0-0.2,0l-0.1-0.1l-0.1,0.1h-0.1
		c0,0-0.1,0-0.2,0c-0.1,0-0.2,0-0.2,0c0-0.1,0.1-0.1,0.1-0.1H42c-0.1,0-0.1,0.1-0.1,0.2c-0.2,0-0.5,0-0.7,0c0-0.1,0-0.2-0.1-0.2
		s-0.1,0-0.2,0v0.1c0,0.1,0,0.1,0,0.1s0,0,0-0.1s0-0.1-0.1-0.1h-0.2V63c-0.1-0.1-0.2-0.1-0.3-0.1c-0.1-0.1-0.2-0.1-0.2-0.1
		s-0.1,0-0.1-0.1c-0.1-0.1-0.1-0.2-0.1-0.2h-0.1h-0.1v-0.1c0,0,0-0.1-0.1-0.1s-0.1,0-0.1,0h-0.1c0-0.1-0.1-0.3-0.2-0.4V62
		c-0.1-0.1-0.2-0.2-0.3-0.3h-0.1c-0.1-0.1-0.2-0.1-0.3-0.2c-0.1-0.1-0.2-0.2-0.2-0.3c-0.1-0.1-0.2-0.2-0.2-0.3
		c-0.2-0.5-0.2-0.7-0.2-0.7c0-0.1,0-0.2-0.1-0.3c0-0.1,0-0.2,0-0.3s0-0.2,0-0.3c0,0,0-0.1-0.1-0.1v-0.1V59c0,0,0-0.2,0-0.4
		s0-0.3-0.1-0.4c0-0.1,0-0.2,0-0.4s0-0.3,0-0.4c0-0.5,0-1.1,0-2s0-1.6,0-2c0.1,0,0.2-0.1,0.2-0.2c0-0.1-0.1-0.2-0.2-0.2
		c0-0.1,0-0.2,0.1-0.4c0.1-0.1,0.1-0.2,0.1-0.3c-0.1-0.1-0.1-0.1-0.1-0.2c0-0.1,0-0.1,0.1-0.1c0-0.2,0-0.8,0-1.8
		c0.1,0,0.1-0.1,0.1-0.1c0-0.1,0-0.1-0.1-0.2c0.1,0,0.1-0.1,0-0.3s-0.1-0.3,0-0.4v-0.1c0.1-0.1,0.1-0.2,0-0.2c0-0.1,0-0.3,0-0.6
		c0-0.4,0-0.5-0.1-0.5c0.1,0,0.1-0.2,0.1-0.5s0-0.4,0-0.5l-0.2-0.1c0-0.2,0-0.4,0.1-0.4l-0.1-0.1v-0.1c0-0.4,0-0.5,0-0.6h-0.1
		c0,0,0,0-0.1,0c0-0.4,0-0.6,0-0.8c-0.1,0-0.1,0-0.1,0s0-0.1,0-0.2v-0.1v-0.1v-0.1v-0.1L37.2,44c-0.1-0.1-0.1-0.2,0-0.3l-0.1-0.1
		c0-0.1-0.1-0.1,0-0.2c-0.1,0-0.2-0.1-0.3-0.3c0-0.1,0-0.2,0-0.3s0.1-0.1,0.1-0.2c-0.1-0.1-0.1-0.2,0-0.4c0.1-0.1,0.1-0.3,0.1-0.4
		c0,0,0.1-0.1,0.2-0.2c0.1-0.1,0.2-0.2,0.2-0.2l0,0v-0.1l0.1,0.1c0,0,0.1,0,0.2,0c0.1,0,0.2,0,0.2,0c0.1,0,0.1,0,0.2-0.1
		c0.1-0.1,0.1-0.1,0.2-0.2c0.1,0,0.2,0,0.3,0s0.2,0,0.3,0H39h0.1c0.2,0,0.4,0,0.4-0.1c0.5-0.1,0.7-0.2,0.8-0.2h0.2h0.1
		c0,0,0,0,0.1,0c0,0,0.1,0,0.2,0c0.1,0,0.1,0,0.2-0.1c0.1-0.1,0.2-0.1,0.2-0.1s0-0.1,0-0.2c0.1,0,0.1,0,0.1,0s0,0,0,0.1v0.1
		c0.3-0.1,0.4-0.1,0.5-0.2c0.1,0,0.1,0,0.2,0.1l0.3-0.1c0,0,0.1-0.1,0.3-0.2c0,0.1,0.1,0.2,0.1,0.2s0.1-0.1,0.2-0.1
		c0.1,0,0.2,0,0.2,0h0.1l0.1-0.1c0,0,0.1,0,0.2,0c0.1,0,0.2,0,0.2,0c0.2,0,0.3-0.1,0.4-0.1h0.1c0.1,0,0.1,0,0.1-0.1
		c0.1,0,0.2,0,0.2,0s0.1,0,0.2-0.1c0.1,0,0.1,0,0.2,0c0.1,0,0.1,0,0.1,0l0,0l0,0C45.6,39.2,45.9,39.2,45.9,39z M44.9,39.1
		c0.6,0.1,1,0,1-0.2c0,0,0.2,0,0.4,0V39c0,0,0,0,0,0.1c0,0,0.1,0,0.2,0c0.1,0,0.2,0,0.2,0.1c0.1,0,0.3,0,0.5,0.1
		c0.5,0,0.9,0.1,1,0.3h0.1c0.1,0.1,0.2,0.2,0.4,0.3s0.3,0.2,0.4,0.3v0.1c0.2,0.1,0.4,0.4,0.5,0.9l0.1,0.1c0.1,0.2,0,0.3,0,0.4
		c0,0.1,0,0.2-0.1,0.3s-0.1,0.2-0.1,0.2c-0.1,0.1-0.1,0.1-0.1,0.1c0,0.1,0,0.2-0.1,0.3c0,0.1,0,0.1,0,0.2l-0.1,0.1h-0.1
		c0,0,0,0-0.1,0c0,0,0,0.1-0.1,0.1s-0.1,0.1-0.2,0l-0.1,0.1l-0.1,0.1c-0.2,0-0.3,0-0.3,0c0,0.1,0,0.1,0,0.1s-0.1,0-0.2,0
		c-0.1,0-0.2,0-0.2,0h-0.1h-0.1c0,0,0-0.1,0.1-0.1c0,0-0.1-0.1-0.1-0.2c0-0.1-0.1-0.1-0.1-0.2l-0.1,0.1h-0.1c0-0.1,0-0.1-0.1-0.2
		c-0.1-0.1-0.1-0.1-0.2-0.1v0.1v0.1l-0.1-0.1l-0.1-0.1c0,0-0.1,0-0.1-0.1c0-0.2-0.2-0.3-0.6-0.3c-0.1,0-0.1,0-0.2,0.1
		c-0.1,0-0.1,0-0.2,0s-0.2,0-0.2,0l-0.1,0.1c-0.1,0-0.2,0-0.5,0c-0.4,0.1-0.5,0.1-0.6,0.2c-0.2-0.1-0.3-0.1-0.4,0
		c-0.1,0-0.2,0-0.3,0s-0.2,0-0.3,0v0.1c-0.2,0-0.3,0-0.3,0c-0.1-0.1-0.2-0.1-0.3,0c0,0-0.1,0-0.1,0.1l-0.1,0.1c-0.1,0-0.1,0-0.2,0
		s-0.2,0-0.2,0L42,43h-0.1c-0.1,0-0.1,0-0.1,0v0.1c-0.3,0-0.5,0-0.6,0v0.1c0,0,0,0,0,0.1c-0.3-0.2-0.5-0.1-0.8,0.2
		c0,0-0.1,0-0.1-0.1c-0.1,0-0.1,0.1,0,0.2c0,0.1,0.1,0.1,0.1,0.1s0,0.1,0,0.2V44l0.1,0.1c0,0.2,0,0.2,0.1,0.2c0,0.1,0,0.2,0.1,0.4
		s0.1,0.3,0,0.4c0,0.1,0,0.2,0.1,0.3c0,0,0,0.1-0.1,0.1c0,0,0,0,0,0.1s0,0.1,0,0.2s0.1,0.1,0.1,0.1c0,0.7,0,1.1,0,1.2
		c-0.1,0.2-0.1,0.4,0.1,0.6c0,0,0,0.1,0,0.3c0,0,0,0.1-0.1,0.1c0,0.1-0.1,0.1,0,0.2c0.1,0.1,0.1,0.1,0.1,0.1v0.1l-0.1,0.1
		c0,0.1,0,0.3,0,0.6s0,0.5,0,0.6c0,0,0,0.1,0,0.2c0,0.1,0.1,0.2,0.3,0.1c0.1,0,0.2-0.1,0.3-0.1c0.3,0,0.5,0,0.6-0.1
		c0.4,0,0.6,0,0.6,0c0.2,0,0.3,0,0.4,0c0,0,0.1,0,0.2-0.1c0.1,0,0.1-0.1,0.2-0.1s0.1,0,0.2,0c0.2,0,0.3,0,0.3-0.1
		c0.2,0.1,0.4,0,0.6,0h0.1h0.1c0,0,0.1,0,0.2,0c0.1,0,0.1,0,0.2,0c0.1,0,0.3,0,0.5,0v-0.1c0.1,0.1,0.3,0.1,0.5,0
		c0.2,0,0.3-0.1,0.4-0.1c0.1,0,0.1,0,0.2,0c0.1,0,0.1-0.1,0.1-0.1h0.1c0,0,0,0,0.1,0.1c0,0,0.1,0,0.2-0.1c0.1-0.1,0.2-0.1,0.3-0.1
		c0.1-0.1,0.1-0.1,0.1-0.1s0.1,0,0.1,0.1c0.3,0,0.4,0,0.5-0.1c0.1,0,0.1,0,0.2,0c0.1,0,0.2,0,0.2,0s0.1,0,0.2,0.1
		c0.1,0,0.2,0.1,0.2,0.1c0.2,0,0.3,0.1,0.3,0.2c0.1,0,0.1,0,0.2,0h0.1c0,0,0,0.1,0.1,0.1c0.3,0,0.4,0,0.4,0s0.1,0.1,0.1,0.2v0.1
		c0,0.1,0.1,0.2,0.2,0.3c0,0.2,0.1,0.4,0.2,0.4c0,0,0,0.1-0.1,0.1c0,0.1,0,0.2-0.1,0.4c-0.1,0.1-0.1,0.2-0.1,0.3h-0.1v0.1
		c0,0,0,0,0,0.1h-0.1l0,0H50l-0.1-0.1h-0.1c0,0-0.1,0-0.1,0.1h-0.1c0,0.1-0.2,0.1-0.4,0.2c-0.2,0.1-0.3,0.2-0.3,0.3
		c-0.3,0-0.5,0-0.7,0.2h-0.1L48,52.4c0,0,0,0,0,0.1c-0.1,0-0.2,0-0.2-0.1h-0.1v0.1c-0.1,0-0.2,0-0.3,0s-0.2,0-0.3,0
		c0,0-0.1,0-0.1,0.1c-0.1,0-0.1,0.1-0.1,0.1c-0.1,0-0.2,0-0.3,0C46,53,46,53,46,53.2c-0.1-0.1-0.2-0.1-0.3-0.1s-0.2,0-0.3,0.1v0.1
		c-0.1,0-0.1,0-0.2,0c-0.1-0.1-0.2,0-0.2,0s-0.1,0-0.2,0v0.2c-0.1,0-0.2,0-0.3,0s-0.1,0-0.2,0c-0.1,0-0.1,0.1,0,0.2l-0.2-0.1
		c0,0-0.2,0-0.5,0l-0.1,0.1l-0.1,0.1c-0.3,0-0.4,0-0.4,0L42.9,54c-0.4,0-0.6,0-0.6,0c-0.1,0-0.2,0.1-0.3,0.1c0,0,0,0,0,0.1
		c-0.3,0.1-0.5,0.1-0.6,0c0,0-0.1,0-0.1,0.1l-0.1,0.1c0,0-0.1,0-0.1-0.1L41,54.2c-0.1,0-0.1,0-0.2,0.1c-0.1,0-0.2,0-0.2,0
		c-0.1,0-0.1,0.2,0,0.6V55l-0.1,0.1c0,0.1,0.1,0.1,0.2,0.1c0.1,0.1,0,0.2-0.1,0.3c0,0,0,0.1,0,0.2c0,0.1,0,0.2,0.1,0.2V56
		c0,0,0,0,0,0.1s0,0.1-0.1,0.3c0.1,0.1,0.1,0.3,0.1,0.6s0,0.5,0.1,0.7c-0.2,0.3-0.1,0.4,0.1,0.5c0,0.1,0,0.2,0,0.3v0.1v0.1
		c0.1,0.2,0.1,0.4,0.1,0.5c0.1,0.1,0.1,0.2,0.2,0.3c0.1,0.2,0.1,0.3,0.1,0.3c0.1,0,0.2,0,0.4,0.1c0.2,0,0.4,0,0.4,0s0.1,0,0.1-0.1
		c0.1,0,0.1,0,0.1,0.1c0.5,0,0.8-0.1,0.8-0.1c0.1,0,0.2,0,0.4,0s0.3,0,0.4,0c0.1-0.1,0.3-0.2,0.7-0.2c0,0,0,0,0-0.1v-0.1
		c0.1,0,0.1,0,0.2,0c0.1,0,0.2,0,0.2,0s0.1-0.1,0.2-0.1c0.1,0,0.2-0.1,0.2-0.1c0.2,0,0.4,0,0.6-0.2c0.2-0.1,0.4-0.2,0.6-0.2
		c0-0.1,0.1-0.1,0.1-0.1c0.2,0.1,0.3,0,0.4,0c0.3,0,0.5-0.1,0.6-0.3c0.2,0,0.3,0,0.3,0c0.1-0.1,0.2-0.1,0.3-0.1c0.5,0,0.9,0,0.9,0.1
		h0.1c0,0.2,0.1,0.3,0.3,0.4h0.1c0.1,0,0.1,0.1,0.2,0.2c0,0.2,0.1,0.3,0.2,0.4c0,0.1,0,0.1,0.1,0.2c0.1,0.1,0.1,0.2,0.1,0.2
		s0,0,0,0.1s0,0.2,0,0.2c-0.2,0.2-0.2,0.4-0.2,0.5c-0.2,0-0.3,0.1-0.3,0.2c-0.2,0-0.4,0.1-0.4,0.5h-0.1h-0.1c0,0-0.1,0.1-0.1,0.2H49
		h-0.1c0,0-0.1,0-0.1,0.1c-0.2,0-0.3,0.1-0.3,0.2h-0.2C48,62,47.8,62,47.6,61.9c0,0-0.1,0.1-0.1,0.2h-0.1C47.3,62,47.1,62,47,62
		s-0.1,0.1-0.1,0.2h-0.2c0,0,0,0,0,0.1c0,0,0,0.1,0,0.2c0,0-0.1-0.1-0.2-0.1c-0.1,0-0.2,0-0.3,0l-0.1,0.1c0,0,0,0.1-0.1,0.1h-0.1
		h-0.1c0,0-0.1,0.1-0.1,0.2c-0.2-0.1-0.3,0-0.5,0c0,0,0,0,0,0.1c-0.2,0-0.3,0-0.3,0c-0.2,0-0.3,0.1-0.3,0.1h-0.1h-0.1
		c0,0-0.1,0-0.2,0c-0.1,0-0.2,0-0.3,0.1c0,0.1,0,0.1,0,0.1s-0.1,0-0.3,0c-0.1,0-0.1,0-0.1,0s0-0.1-0.1-0.1c-0.3,0.1-0.5,0.1-0.5,0.1
		v0.1c-0.1,0-0.1,0-0.2,0l-0.1-0.1l-0.1,0.1h-0.1c0,0-0.1,0-0.2,0c-0.1,0-0.2,0-0.2,0c0-0.1,0.1-0.1,0.1-0.1H42
		c-0.1,0-0.1,0.1-0.1,0.2c-0.2,0-0.5,0-0.7,0c0-0.1,0-0.2-0.1-0.2s-0.1,0-0.2,0v0.1c0,0.1,0,0.1,0,0.1s0,0,0-0.1s0-0.1-0.1-0.1h-0.2
		V63c-0.1-0.1-0.2-0.1-0.3-0.1c-0.1-0.1-0.2-0.1-0.2-0.1s-0.1,0-0.1-0.1c-0.1-0.1-0.1-0.2-0.1-0.2h-0.1h-0.1v-0.1c0,0,0-0.1-0.1-0.1
		s-0.1,0-0.1,0h-0.1c0-0.1-0.1-0.3-0.2-0.4V62c-0.1-0.1-0.2-0.2-0.3-0.3h-0.1c-0.1-0.1-0.2-0.1-0.3-0.2c-0.1-0.1-0.2-0.2-0.2-0.3
		c-0.1-0.1-0.2-0.2-0.2-0.3c-0.2-0.5-0.2-0.7-0.2-0.7c0-0.1,0-0.2-0.1-0.3c0-0.1,0-0.2,0-0.3s0-0.2,0-0.2c0-0.1,0-0.1-0.1-0.2v-0.1
		V59c0,0,0-0.2,0-0.4s0-0.3-0.1-0.4c0-0.1,0-0.2,0-0.4s0-0.3,0-0.4c0-0.5,0-1.1,0-2s0-1.6,0-2c0.1,0,0.2-0.1,0.2-0.2
		c0-0.1-0.1-0.2-0.2-0.2c0-0.1,0-0.2,0.1-0.4c0.1-0.1,0.1-0.2,0.1-0.3c-0.1-0.1-0.1-0.1-0.1-0.2c0-0.1,0-0.1,0.1-0.1
		c0-0.2,0-0.8,0-1.8c0.1,0,0.1-0.1,0.1-0.1c0-0.1,0-0.1-0.1-0.2c0.1,0,0.1-0.1,0-0.3s-0.1-0.3,0-0.4v-0.1c0.1-0.1,0.1-0.2,0-0.3
		c0-0.1,0-0.3,0-0.6c0-0.4,0-0.5-0.1-0.5c0.1,0,0.1-0.2,0.1-0.5s0-0.4,0-0.5l-0.2-0.1c0-0.2,0-0.4,0.1-0.4l-0.1-0.1V46
		c0-0.4,0-0.5,0-0.6h-0.1c0,0,0,0-0.1,0c0-0.4,0-0.6,0-0.8c-0.1,0-0.1,0-0.1,0s0-0.1,0-0.2v-0.1v-0.1v-0.1V44l-0.1-0.1
		c-0.1-0.1-0.1-0.2,0-0.3l-0.1-0.1c0-0.1-0.1-0.1,0-0.2c-0.1,0-0.2-0.1-0.3-0.3c0-0.1,0-0.2,0-0.3s0.1-0.1,0.1-0.2
		c-0.1-0.1-0.1-0.2,0-0.4C37,42,37,41.8,37,41.7c0,0,0.1-0.1,0.2-0.2c0.1-0.1,0.2-0.2,0.2-0.2l0,0v-0.1l0.1,0.1c0,0,0.1,0,0.2,0
		c0.1,0,0.2,0,0.2,0c0.1,0,0.1,0,0.2-0.1c0.1-0.1,0.1-0.1,0.2-0.2c0.1,0,0.2,0,0.3,0s0.2,0,0.3,0H39h0.1c0.2,0,0.4,0,0.4-0.1
		c0.5-0.1,0.7-0.2,0.8-0.2h0.2h0.1c0,0,0,0,0.1,0c0,0,0.1,0,0.2,0c0.1,0,0.1,0,0.2-0.1c0.1-0.1,0.2-0.1,0.2-0.1s0-0.1,0-0.2
		c0.1,0,0.1,0,0.1,0s0,0,0,0.1v0.1c0.3-0.1,0.4-0.1,0.5-0.2c0.1,0,0.1,0,0.2,0.1l0.3-0.1c0,0,0.1-0.1,0.3-0.2c0,0.1,0.1,0.2,0.1,0.2
		s0.1-0.1,0.2-0.1c0.1,0,0.2,0,0.2,0h0.1l0.1-0.1c0,0,0.1,0,0.2,0c0.1,0,0.2,0,0.2,0c0.2,0,0.3-0.1,0.4-0.1h0.1c0.1,0,0.1,0,0.1-0.1
		c0.1,0,0.2,0,0.2,0s0.1,0,0.2-0.1c0.1,0,0.1,0,0.2,0C44.8,39.3,44.8,39.3,44.9,39.1C44.9,39.2,44.9,39.2,44.9,39.1
		C44.9,39.2,44.9,39.1,44.9,39.1z"/>
	<path fill="#54813B" d="M54.3,38.5c0,0,0,0.1,0,0.2c0.1,0.1,0.1,0.1,0.2,0c0.1-0.1,0.1-0.1,0.1-0.2c0.1,0,0.1,0.1,0.2,0.2
		c0.1,0.1,0.1,0.1,0.2,0.2c0.2,0,0.4,0.1,0.6,0.2h0.1l0.1,0.1c0.1,0,0.2,0,0.3,0.1h0.1h0.1h0.1c0,0,0.1,0.1,0.3,0.1
		c0.1,0.1,0.2,0,0.3,0c0.2,0.1,0.3,0.1,0.4,0.1c0,0.1,0.1,0.1,0.3,0.1c0.1,0,0.1,0,0.1,0s0.1,0,0.1,0.1c0.1,0,0.1,0.1,0.2,0.1
		c0.4,0,0.6,0.1,0.6,0.1c0.1,0,0.2,0,0.4,0s0.3,0,0.4,0c0,0,0.1,0,0.1,0.1c0.1,0,0.1,0.1,0.1,0.1c0.2,0,0.3,0,0.4,0
		c0.1,0,0.2,0,0.4,0c0.1,0,0.2,0.1,0.3,0.2c0.1,0,0.2,0,0.3,0c0,0,0.1,0,0.2,0.1c0.1,0,0.2,0.1,0.2,0.1h0.1h0.1c0.1,0,0.1,0,0.2,0.1
		l0.1,0.1c0.1,0,0.3,0,0.4,0v0.1l0.1,0.1c0.5,0,0.8,0,0.9,0.1H64c0.1-0.1,0.1-0.1,0.1-0.1c0,0.1,0,0.2,0.1,0.2
		c0.1,0.1,0.2,0.1,0.2,0h0.1c0.1,0,0.1,0.1,0.1,0.1h0.1h0.1h0.1H65c0,0,0,0,0.1,0h0.1c0,0,0.1,0,0.1,0.1h0.1c0.1,0,0.2,0,0.3,0.1
		c0.2,0,0.4,0,0.5,0.2c0.1,0,0.2,0,0.3,0c0.1,0.1,0.2,0.1,0.2,0.1s0.1,0.1,0.2,0.1c0,0,0.2,0,0.4,0.1c0.1,0,0.2,0,0.2,0s0,0,0,0.1
		c0.1,0,0.2,0.1,0.3,0.2c0.1,0,0.3,0.1,0.6,0.3c0.2,0,0.3,0,0.3,0v0.1c0,0,0.1,0.1,0.3,0.1c0.2,0.3,0.3,0.4,0.3,0.4h0.1
		c0,0,0.1,0.1,0.2,0.2c0.1,0.1,0.1,0.1,0.2,0.1c0.2,0.1,0.3,0.2,0.3,0.2c0.1,0.1,0.2,0.1,0.3,0.2c0.1,0.1,0.2,0.2,0.3,0.4
		s0.2,0.2,0.2,0.3s0.1,0.1,0.1,0.1c0.3,0.3,0.5,0.5,0.6,0.8c0,0,0,0.1,0.1,0.1l0.1,0.1c0,0.1,0,0.2,0,0.2s0,0.1,0.1,0.1
		s0.1,0,0.1,0.1c0,0,0,0.1,0,0.2c0,0.1,0,0.2,0,0.2l0.1,0.1c0,0,0,0,0.1,0.1c0,0.1,0,0.2,0,0.5v0.1c0,0.1,0,0.1,0,0.2v0.1v0.1v0.1
		v0.1c0,0.1,0,0.2,0,0.5s0,0.5,0,0.6c-0.1,0.1-0.1,0.2-0.2,0.3s-0.1,0.2-0.1,0.2v0.1c0,0,0,0,0,0.1c0,0,0,0.1,0,0.2
		c0,0.1,0,0.2,0,0.2s0,0.1-0.1,0.1c0,0.1,0,0.1,0,0.1v0.1v0.1c0,0,0,0-0.1,0.1l-0.1,0.1v0.1c0,0.1,0,0.1,0,0.1
		c-0.1,0.1-0.1,0.1-0.1,0.1s0,0,0,0.1s0,0.1,0,0.1s0,0-0.1,0.1v0.1c-0.1,0.1-0.1,0.2-0.1,0.2c0,0.1-0.1,0.2-0.2,0.3
		c0,0.1-0.1,0.2-0.1,0.4v0.1c0,0.1-0.1,0.1-0.1,0.2c-0.2,0.2-0.2,0.4-0.1,0.6c0,0,0,0-0.1,0c0,0-0.1,0.2-0.4,0.4
		c0,0.1,0,0.2-0.1,0.2c-0.1,0.1-0.1,0.1-0.1,0.2c-0.2,0.1-0.3,0.3-0.4,0.6c0,0-0.1,0.1-0.1,0.2c-0.1,0.1-0.1,0.2-0.1,0.2l0,0l0,0
		C69.4,55,69.4,55,69.4,55v0.1c-0.2,0.3-0.4,0.4-0.4,0.5c0,0,0,0-0.1,0c0,0-0.1,0.1-0.2,0.2c-0.1,0.1-0.2,0.2-0.2,0.3
		c-0.2,0.1-0.3,0.2-0.3,0.3c-0.1,0.1-0.2,0.2-0.3,0.3c-0.1,0.2-0.2,0.3-0.3,0.3c-0.1,0-0.1,0-0.1,0c-0.1,0.1-0.2,0.2-0.2,0.3
		c-0.1,0.1-0.3,0.2-0.5,0.4s-0.4,0.4-0.5,0.4c0,0,0,0.1-0.1,0.1v0.1c-0.1,0.1-0.2,0.2-0.3,0.3c-0.1,0.1-0.1,0.1-0.2,0.1
		c-0.2,0.2-0.3,0.4-0.4,0.4c0,0.1,0,0.1,0,0.1c-0.1,0.1-0.1,0.1-0.1,0.1s-0.1,0-0.1,0.1S65,59.5,65,59.5s-0.1,0-0.2,0.1
		c-0.1,0-0.1,0.1-0.2,0.1v0.1c-0.1,0.1-0.1,0.2-0.2,0.3v0.1l0,0c0,0-0.1,0-0.1-0.1c-0.1,0-0.2,0.1-0.3,0.2c-0.1,0.1-0.2,0.2-0.2,0.2
		v0.1c0,0,0,0,0,0.1h-0.1c-0.1,0-0.1,0.1-0.1,0.1l0,0h-0.1c0,0-0.3,0.3-0.9,0.8c0,0.1,0,0.1-0.1,0.2h-0.1c0,0-0.1,0-0.1,0.1
		c-0.1,0-0.1,0.1-0.2,0.1c0,0-0.1,0.1-0.1,0.2c0,0.1-0.1,0.2-0.2,0.2c0,0.1,0,0.1,0,0.1h-0.1h-0.1c0,0-0.1,0-0.2,0.1h-0.1
		c0,0,0,0-0.1,0l-0.1,0.1v0.1c-0.1,0-0.2,0-0.2,0c0-0.1-0.1-0.1-0.1-0.2l-0.1,0.1h-0.1h-0.1c0-0.1,0-0.1-0.1-0.2
		c0-0.1-0.1-0.1-0.1-0.1c-0.2,0-0.3,0-0.4-0.1c-0.1-0.1-0.2-0.2-0.2-0.3c-0.1,0-0.1-0.1-0.2-0.1c0-0.1,0-0.2,0-0.2
		c-0.1,0-0.1,0-0.2,0c-0.1-0.2-0.2-0.3-0.3-0.4c0,0,0-0.1,0-0.2c0-0.1,0-0.2,0-0.2c0-0.2,0-0.3,0-0.3l0.2-0.2v-0.1l0.1-0.1h0.1l0,0
		l0,0v-0.1l0.1-0.1c0-0.1-0.2-0.2-0.4-0.3c0,0,0-0.1,0-0.2c0-0.1,0-0.1,0-0.2s0-0.1-0.1-0.2c-0.1-0.1-0.1-0.2-0.1-0.2s0-0.1,0-0.2
		s0-0.1,0-0.1s0-0.1-0.1-0.1s-0.1,0-0.1-0.1c0.1-0.1,0.1-0.2,0.1-0.4s-0.1-0.3-0.2-0.4c0-0.1,0-0.3,0-0.6c0-0.2,0-0.4,0-0.6
		c0-0.1,0-0.1,0-0.1s0-0.1-0.1-0.1l-0.1-0.1c0-0.1,0-0.1,0-0.2c0-0.1,0-0.2,0-0.2s0-0.1-0.1-0.1l-0.1-0.1v-0.1c0-0.1,0-0.1,0-0.1
		c0-0.3,0-0.5,0-0.6c0,0,0-0.1-0.1-0.1c0-0.1-0.1-0.1-0.1-0.1v-0.1v-0.1c0,0,0-0.1,0-0.2c0-0.1,0-0.2,0-0.3l-0.1-0.1
		c0.1-0.4,0.1-0.6-0.1-0.7v-0.3v-0.1c0,0,0,0,0-0.1s0-0.1,0-0.1v-0.1c0-0.1-0.1-0.1-0.2-0.1c0-0.2,0-0.3,0-0.5c0,0,0,0,0.1,0
		c0.1-0.1,0.1-0.2-0.1-0.3c-0.1-0.1-0.1-0.2-0.1-0.2c0-0.1,0-0.1,0-0.2c0-0.1,0-0.1,0-0.2c0,0,0-0.1-0.1-0.1l-0.1-0.1c0-0.6,0-1,0-1
		c-0.1-0.1-0.2-0.2-0.2-0.4c0-0.1,0.1-0.1,0.1-0.1s0-0.2,0-0.4s0-0.4,0-0.4s0-0.1-0.1-0.1v-0.1V48c0.1-0.1,0-0.2-0.1-0.2
		c0,0-0.1-0.2-0.1-0.4c0,0,0-0.1-0.1-0.2c-0.1-0.1-0.1-0.1-0.1-0.2c-0.1-0.2-0.1-0.3-0.1-0.3s0-0.2,0-0.5c0,0,0-0.1-0.1-0.1
		c0-0.1,0-0.2,0-0.4s-0.1-0.2-0.2-0.2c0,0,0-0.1,0-0.3s0-0.3,0-0.3s-0.1-0.1-0.1-0.2c-0.1-0.1-0.1-0.2-0.1-0.2
		C56,44.2,56,44,55.9,44c0-0.2-0.1-0.3-0.2-0.3c0-0.1,0-0.1,0-0.2c0.1-0.1,0.1-0.2,0.1-0.2h-0.1v-0.1c0-0.1,0-0.2-0.1-0.3l-0.1-0.1
		v-0.1v-0.1c0,0,0-0.1-0.1-0.1l-0.1-0.1c0,0,0,0,0-0.1v-0.1l-0.1-0.1c-0.1,0-0.1-0.1-0.1-0.1c-0.1,0-0.3-0.1-0.4-0.2h-0.3
		c-0.1-0.2-0.2-0.3-0.4-0.3l-0.1-0.1l-0.1-0.1c0-0.1-0.2-0.2-0.4-0.3c0-0.2-0.2-0.4-0.4-0.5c0-0.1-0.1-0.2-0.1-0.2v-0.1v-0.1
		L52.5,40c-0.1-0.2-0.1-0.3,0-0.5c0,0,0-0.1,0.1-0.2c0.1-0.1,0.1-0.1,0.1-0.2V39v-0.1c0,0,0,0,0.1-0.1c0.1,0,0.1-0.1,0.1-0.1H53
		c0.1-0.1,0.2-0.1,0.5-0.1c0.1,0,0.2,0,0.3,0h0.1v-0.1C54.1,38.5,54.2,38.5,54.3,38.5z M54,38.5c0.2,0,0.3,0,0.3,0s0,0.1,0,0.2
		c0.1,0.1,0.1,0.1,0.2,0c0.1-0.1,0.1-0.1,0.1-0.2c0.1,0,0.1,0.1,0.2,0.2c0.1,0.1,0.1,0.1,0.2,0.2c0.2,0,0.4,0.1,0.6,0.2h0.1l0.1,0.1
		c0.1,0,0.2,0,0.3,0.1h0.1h0.1h0.1c0,0,0.1,0.1,0.3,0.1c0.1,0.1,0.2,0,0.3,0c0.2,0.1,0.3,0.1,0.4,0.1c0,0.1,0.1,0.1,0.3,0.1
		c0.1,0,0.1,0,0.1,0s0.1,0,0.1,0.1c0.1,0,0.1,0.1,0.2,0.1c0.4,0,0.6,0.1,0.6,0.1c0.1,0,0.2,0,0.4,0s0.3,0,0.4,0c0,0,0.1,0,0.1,0.1
		c0.1,0,0.1,0.1,0.1,0.1c0.2,0,0.3,0,0.4,0c0.1,0,0.2,0,0.4,0c0.1,0,0.2,0.1,0.3,0.2c0.1,0,0.2,0,0.3,0c0,0,0.1,0,0.2,0.1
		c0.1,0,0.2,0.1,0.2,0.1h0.1h0.1c0.1,0,0.1,0,0.2,0.1l0.1,0.1c0.1,0,0.3,0,0.4,0v0.1l0.1,0.1c0.5,0,0.8,0,0.9,0.1H64
		c0.1-0.1,0.1-0.1,0.1-0.1c0,0.1,0,0.2,0.1,0.2c0.1,0.1,0.2,0.1,0.2,0h0.1c0.1,0,0.1,0.1,0.1,0.1h0.1h0.1h0.1H65c0,0,0,0,0.1,0h0.1
		c0,0,0.1,0,0.1,0.1h0.1c0.1,0,0.2,0,0.3,0.1c0.2,0,0.4,0,0.5,0.2c0.1,0,0.2,0,0.3,0c0.1,0.1,0.2,0.1,0.2,0.1s0.1,0.1,0.2,0.1
		c0,0,0.2,0,0.4,0.1c0.1,0,0.2,0,0.2,0s0,0,0,0.1c0.1,0,0.2,0.1,0.3,0.2c0.1,0,0.3,0.1,0.6,0.3c0.2,0,0.3,0,0.3,0v0.1
		c0,0,0.1,0.1,0.3,0.1c0.2,0.3,0.3,0.4,0.3,0.4h0.1c0,0,0.1,0.1,0.2,0.2c0.1,0.1,0.1,0.1,0.2,0.1c0.2,0.1,0.3,0.2,0.3,0.2
		c0.1,0.1,0.2,0.1,0.3,0.2c0.1,0.1,0.2,0.2,0.3,0.4s0.2,0.2,0.2,0.3s0.1,0.1,0.1,0.1c0.3,0.3,0.5,0.5,0.6,0.8c0,0,0,0.1,0.1,0.1
		l0.1,0.1c0,0.1,0,0.2,0,0.2s0,0.1,0.1,0.1s0.1,0,0.1,0.1c0,0,0,0.1,0,0.2c0,0.1,0,0.2,0,0.2l0.1,0.1c0,0,0,0,0.1,0.1
		c0,0.1,0,0.2,0,0.5v0.1c0,0.1,0,0.1,0,0.2v0.1v0.1v0.1v0.1c0,0.1,0,0.2,0,0.5s0,0.5,0,0.6c-0.1,0.1-0.1,0.2-0.2,0.3
		s-0.1,0.2-0.1,0.2v0.1c0,0,0,0,0,0.1c0,0,0,0.1,0,0.2c0,0.1,0,0.2,0,0.2s0,0.1-0.1,0.1c0,0.1,0,0.1,0,0.1v0.1v0.1c0,0,0,0-0.1,0.1
		l-0.1,0.1v0.1c0,0.1,0,0.1,0,0.1c-0.1,0.1-0.1,0.1-0.1,0.1s0,0,0,0.1s0,0.1,0,0.1s0,0-0.1,0.1v0.1c-0.1,0.1-0.1,0.2-0.1,0.2
		c0,0.1-0.1,0.2-0.2,0.3c0,0.1-0.1,0.2-0.1,0.4v0.1c0,0.1-0.1,0.1-0.1,0.2c-0.2,0.2-0.2,0.4-0.1,0.6c0,0,0,0-0.1,0
		c0,0-0.1,0.2-0.4,0.4c0,0.1,0,0.2-0.1,0.2c-0.1,0.1-0.1,0.1-0.1,0.2c-0.2,0.1-0.3,0.3-0.4,0.6c0,0-0.1,0.1-0.1,0.2
		c-0.1,0.1-0.1,0.2-0.1,0.2l0,0l0,0C69.4,55,69.4,55,69.4,55v0.1c-0.2,0.3-0.4,0.4-0.4,0.5c0,0,0,0-0.1,0c0,0-0.1,0.1-0.2,0.2
		c-0.1,0.1-0.2,0.2-0.2,0.3c-0.2,0.1-0.3,0.2-0.3,0.3c-0.1,0.1-0.2,0.2-0.3,0.3c-0.1,0.2-0.2,0.3-0.3,0.3c-0.1,0-0.1,0-0.1,0
		c-0.1,0.1-0.2,0.2-0.2,0.3c-0.1,0.1-0.3,0.2-0.5,0.4s-0.4,0.4-0.5,0.4c0,0,0,0.1-0.1,0.1v0.1c-0.1,0.1-0.2,0.2-0.3,0.3
		c-0.1,0.1-0.1,0.1-0.2,0.1c-0.2,0.2-0.3,0.4-0.4,0.4c0,0.1,0,0.1,0,0.1c-0.1,0.1-0.1,0.1-0.1,0.1s-0.1,0-0.1,0.1S65,59.5,65,59.5
		s-0.1,0-0.2,0.1c-0.1,0-0.1,0.1-0.2,0.1v0.1c-0.1,0.1-0.1,0.2-0.2,0.3v0.1l0,0c0,0-0.1,0-0.1-0.1c-0.1,0-0.2,0.1-0.3,0.2
		c-0.1,0.1-0.2,0.2-0.2,0.2v0.1c0,0,0,0,0,0.1h-0.1c-0.1,0-0.1,0.1-0.1,0.1l0,0h-0.1c0,0-0.3,0.3-0.9,0.8c0,0.1,0,0.1-0.1,0.2h-0.1
		c0,0-0.1,0-0.1,0.1c-0.1,0-0.1,0.1-0.2,0.1c0,0-0.1,0.1-0.1,0.2c0,0.1-0.1,0.2-0.2,0.2c0,0.1,0,0.1,0,0.1h-0.1h-0.1
		c0,0-0.1,0-0.2,0.1h-0.1c0,0,0,0-0.1,0l-0.1,0.1v0.1c-0.1,0-0.2,0-0.2,0c0-0.1-0.1-0.1-0.1-0.2l-0.1,0.1h-0.1h-0.1
		c0-0.1,0-0.1-0.1-0.2c0-0.1-0.1-0.1-0.1-0.1c-0.2,0-0.3,0-0.4-0.1c-0.1-0.1-0.2-0.2-0.2-0.3c-0.1,0-0.1-0.1-0.2-0.1
		c0-0.1,0-0.2,0-0.2c-0.1,0-0.1,0-0.2,0c-0.1-0.2-0.2-0.3-0.3-0.4c0,0,0-0.1,0-0.2c0-0.1,0-0.2,0-0.2c0-0.2,0-0.3,0-0.3l0.2-0.2
		v-0.1l0.1-0.1h0.1l0,0l0,0v-0.1l0.1-0.1c0-0.1-0.2-0.2-0.4-0.3c0,0,0-0.1,0-0.2c0-0.1,0-0.1,0-0.2s0-0.1-0.1-0.2
		c-0.1-0.1-0.1-0.2-0.1-0.2s0-0.1,0-0.2s0-0.1,0-0.1s0-0.1-0.1-0.1s-0.1,0-0.1-0.1c0.1-0.1,0.1-0.2,0.1-0.4s-0.1-0.3-0.2-0.4
		c0-0.1,0-0.3,0-0.6c0-0.2,0-0.4,0-0.6c0-0.1,0-0.1,0-0.1s0-0.1-0.1-0.1l-0.1-0.1c0-0.1,0-0.1,0-0.2c0-0.1,0-0.2,0-0.2
		s0-0.1-0.1-0.1l-0.1-0.1v-0.1c0-0.1,0-0.1,0-0.1c0-0.3,0-0.5,0-0.6c0,0,0-0.1-0.1-0.1c0-0.1-0.1-0.1-0.1-0.1v-0.1v-0.1
		c0,0,0-0.1,0-0.2c0-0.1,0-0.2,0-0.3l-0.1-0.1c0.1-0.4,0.1-0.6-0.1-0.7v-0.3v-0.1c0,0,0,0,0-0.1s0-0.1,0-0.1v-0.1
		c0-0.1-0.1-0.1-0.2-0.1c0-0.2,0-0.3,0-0.5c0,0,0,0,0.1,0c0.1-0.1,0.1-0.2-0.1-0.3c-0.1-0.1-0.1-0.2-0.1-0.2c0-0.1,0-0.1,0-0.2
		c0-0.1,0-0.1,0-0.2c0,0,0-0.1-0.1-0.1l-0.1-0.1c0-0.6,0-1,0-1c-0.1-0.1-0.2-0.2-0.2-0.4c0-0.1,0.1-0.1,0.1-0.1s0-0.2,0-0.4
		s0-0.4,0-0.4s0-0.1-0.1-0.1v-0.1V48c0.1-0.1,0-0.2-0.1-0.2c0,0-0.1-0.2-0.1-0.4c0,0,0-0.1-0.1-0.2c-0.1-0.1-0.1-0.1-0.1-0.2
		c-0.1-0.2-0.1-0.3-0.1-0.3s0-0.2,0-0.5c0,0,0-0.1-0.1-0.1c0-0.1,0-0.2,0-0.4s-0.1-0.2-0.2-0.2c0,0,0-0.1,0-0.3s0-0.3,0-0.3
		s-0.1-0.1-0.1-0.2c-0.1-0.1-0.1-0.2-0.1-0.2C56,44.2,56,44,55.9,44c0-0.2-0.1-0.3-0.2-0.3c0-0.1,0-0.1,0-0.2
		c0.1-0.1,0.1-0.2,0.1-0.2h-0.1v-0.1c0-0.1,0-0.2-0.1-0.3l-0.1-0.1v-0.1v-0.1c0,0,0-0.1-0.1-0.1l-0.1-0.1c0,0,0,0,0-0.1v-0.1
		l-0.1-0.1c-0.1,0-0.1-0.1-0.1-0.1c-0.1,0-0.3-0.1-0.4-0.2h-0.3c-0.1-0.2-0.2-0.3-0.4-0.3l-0.1-0.1l-0.1-0.1c0-0.1-0.2-0.2-0.4-0.3
		c0-0.2-0.2-0.4-0.4-0.5c0-0.1-0.1-0.2-0.1-0.2v-0.1v-0.1L52.5,40c-0.1-0.2-0.1-0.3,0-0.5c0,0,0-0.1,0.1-0.2
		c0.1-0.1,0.1-0.1,0.1-0.2V39v-0.1c0,0,0,0,0.1-0.1c0.1,0,0.1-0.1,0.1-0.1H53c0.1-0.1,0.2-0.1,0.5-0.1c0.1,0,0.2,0,0.3,0
		C53.9,38.6,53.9,38.6,54,38.5L54,38.5z M63.9,44.1C63.8,44.1,63.8,44.1,63.9,44.1C63.8,44,63.7,44,63.7,44s-0.1,0-0.2,0
		c-0.1,0-0.1,0-0.2,0s-0.1,0-0.1-0.1l-0.1-0.1c-0.1,0-0.1,0-0.1,0s0,0-0.1,0h-0.1c0,0-0.1,0-0.2,0c-0.1,0-0.2,0-0.2,0
		s-0.1,0-0.1-0.1c-0.1,0-0.1-0.1-0.1-0.1h-0.1H62c0,0-0.1,0-0.2,0c-0.1,0-0.1,0-0.1,0c-0.1-0.1-0.2-0.1-0.5-0.1c-0.1,0-0.2,0-0.2,0
		c-0.2-0.1-0.3-0.2-0.4-0.1h-0.1h-0.1c-0.1,0-0.2,0-0.4-0.1c-0.5,0-0.7,0-0.9,0c0,0,0,0.1,0,0.2c0,0.1,0,0.2,0,0.2v0.1l0.1,0.1
		c0,0,0,0.1,0,0.2c0,0.1,0,0.1,0.1,0.2l0.1,0.1c0,0,0,0.1,0,0.2c0,0,0,0.1,0.1,0.2c0.1,0.1,0.1,0.2,0,0.3c0.1,0.2,0.2,0.4,0.2,0.5
		c0,0.2,0,0.3,0,0.3c0.2,0.2,0.2,0.3,0.2,0.4c0.1,0.1,0.1,0.2,0.1,0.5v0.1V47c0,0.1,0,0.1,0,0.1c0.1,0.1,0.1,0.2,0.1,0.2v0.1v0.1
		c0,0,0,0.1,0,0.2c0,0.1,0.1,0.1,0.1,0.2c0,0,0,0.1,0,0.2c0,0.1,0,0.2,0,0.2v0.1c0,0.2,0,0.3,0.1,0.3c0,0,0,0.1,0.1,0.1l0.1,0.1
		c0,0,0,0.1,0.1,0.3c0,0.1,0,0.2,0,0.3s0,0.2,0,0.3l0.1,0.1c0,0.1,0.1,0.1,0.1,0.1s0,0.1,0,0.2c0,0.1,0,0.2,0,0.2l0.1,0.1
		c0,0,0,0.1,0.1,0.1c0,0,0,0.1,0,0.3V51c0,0.1,0,0.1,0,0.1s0,0.1,0.1,0.1v0.1c0,0,0,0.1,0,0.2c0,0.1,0,0.1,0,0.1s0,0.1-0.1,0.1
		c0,0-0.1,0,0,0.1s0.1,0.2,0.1,0.2c0.1,0.1,0.1,0.2,0.1,0.2v0.1l-0.1,0.1c0,0,0,0.1,0.1,0.1l0.1,0.1c0,0,0,0,0,0.1v0.1l0.1,0.1
		c0,0.1,0,0.2,0,0.3c0,0,0,0.1,0.1,0.1v0.1c0,0,0,0.1,0,0.2c0,0.1,0,0.2,0,0.2s0,0.1,0.1,0.1s0.1,0.1,0.1,0.1c0,0.1,0,0.1,0,0.1
		s0,0,0,0.1v0.1c0,0,0,0.1,0,0.3s0,0.3,0,0.3l0.1,0.1c0,0.1,0.1,0.1,0.1,0.1c0,0.1,0,0.2,0,0.3s0,0.2,0,0.3c0.1,0,0.1,0.1,0.1,0.3
		c0.1,0.3,0.1,0.5,0.1,0.5c0.1,0.1,0.1,0.2,0.1,0.5c0,0.1,0,0.2,0,0.3c0,0,0,0.1,0.1,0.1c0,0,0.1,0,0.1,0.1c0,0,0,0.1,0,0.2
		c0,0.1,0,0.1,0,0.1c0.1,0.1,0.2,0,0.5-0.2H63c0.1,0,0.1-0.1,0.1-0.1c0.1-0.1,0.2-0.2,0.2-0.3c0,0,0.2-0.1,0.5-0.3
		c0,0,0-0.1,0.1-0.1c0.1-0.2,0.2-0.2,0.3-0.2c0.1-0.1,0.3-0.4,0.6-0.8c0-0.1,0.1-0.2,0.2-0.3c0-0.1,0.1-0.1,0.1-0.1
		c0.2-0.1,0.3-0.1,0.3-0.1c0-0.1,0.1-0.3,0.2-0.4c0.2-0.2,0.2-0.3,0.2-0.5c0.2-0.2,0.4-0.2,0.4-0.2c0-0.1,0-0.1,0.1-0.2
		c0.1-0.1,0.1-0.2,0.1-0.2l0.1-0.1c0.1-0.1,0.1-0.1,0.1-0.1c0-0.1,0.1-0.2,0.2-0.3s0.1-0.1,0.1-0.1H67v-0.1c0,0,0.1,0,0.1-0.1
		l0.1-0.1c0-0.1,0-0.1,0-0.1c0-0.1,0.1-0.1,0.2-0.2c0.1-0.1,0.2-0.2,0.2-0.2c0-0.2,0.1-0.4,0.3-0.6c0.2-0.2,0.3-0.4,0.3-0.6
		c0,0,0-0.1,0.1-0.1l0.1-0.1c0-0.1,0-0.2,0.1-0.3s0.1-0.2,0.1-0.3c0.1,0,0.1-0.1,0.1-0.3c0-0.1,0-0.2,0-0.2c0.1-0.1,0.1-0.2,0.1-0.2
		s0-0.1,0-0.2c0-0.1,0-0.1,0.1-0.2c0.1-0.1,0.1-0.1,0.1-0.2c0,0,0-0.1,0-0.2c0-0.1,0-0.1,0-0.2c0,0,0-0.1,0.1-0.1
		c0.1-0.2,0.1-0.4,0.1-0.5c0.1-0.1,0.1-0.1,0.1-0.1c-0.1-0.1-0.1-0.3,0-0.6v-0.1v-0.1c-0.1-0.3-0.1-0.4,0-0.4l-0.1-0.3v-0.1
		c0-0.1,0-0.1,0-0.1h-0.1v-0.1c-0.1-0.2-0.2-0.3-0.2-0.3s0,0-0.1,0s-0.1,0-0.1,0s0,0,0-0.1s0,0,0,0h-0.1c-0.2-0.1-0.3-0.1-0.3-0.1
		c-0.1-0.1-0.1-0.1-0.1-0.1h-0.1c0,0-0.1,0-0.1-0.1s-0.1-0.1-0.1-0.1H67c0-0.1-0.1-0.1-0.3-0.1c-0.1-0.1-0.1-0.1-0.1-0.1
		s-0.1,0-0.2-0.1S66.1,45,66,45c0,0-0.1,0-0.1-0.1l-0.1-0.1h-0.1c-0.1,0-0.1,0-0.1,0c-0.1-0.1-0.2-0.1-0.2-0.1c-0.1,0-0.2,0-0.3,0
		c-0.1-0.1-0.2-0.1-0.2-0.1h-0.1c-0.1,0-0.1,0-0.1,0s0,0-0.1-0.1l-0.1-0.1c0,0,0,0-0.1,0s-0.1,0-0.1,0c-0.1-0.1-0.1-0.1-0.1-0.1
		C64,44.1,63.9,44.1,63.9,44.1z M63.8,44C63.7,44,63.7,43.9,63.8,44C63.7,43.9,63.7,43.9,63.8,44c-0.1-0.1-0.2-0.1-0.3-0.1
		s-0.1,0-0.2,0s-0.1,0-0.1-0.1l-0.1-0.1c-0.1,0-0.1,0-0.1,0s0,0-0.1,0h-0.1c0,0-0.1,0-0.2,0c-0.1,0-0.2,0-0.2,0s-0.1,0-0.1-0.1
		c-0.1,0-0.1-0.1-0.1-0.1h-0.1H62c0,0-0.1,0-0.2,0c-0.1,0-0.1,0-0.1,0c-0.1-0.1-0.2-0.1-0.5-0.1c-0.1,0-0.2,0-0.2,0
		c-0.2-0.1-0.3-0.2-0.4-0.1h-0.1h-0.1c-0.1,0-0.2,0-0.4-0.1c-0.5,0-0.7,0-0.9,0c0,0,0,0.1,0,0.2c0,0.1,0,0.2,0,0.2v0.1l0.1,0.1
		c0,0,0,0.1,0,0.2c0,0.1,0,0.1,0.1,0.2l0.1,0.1c0,0,0,0.1,0,0.2c0,0,0,0.1,0.1,0.2c0.1,0.1,0.1,0.2,0,0.3c0.1,0.2,0.2,0.4,0.2,0.5
		c0,0.2,0,0.3,0,0.3c0.2,0.2,0.2,0.3,0.2,0.4c0.1,0.1,0.1,0.2,0.1,0.5v0.1v0.1c0,0.1,0,0.1,0,0.1c0.1,0.1,0.1,0.2,0.1,0.2v0.1v0.1
		c0,0,0,0.1,0,0.2c0,0.1,0.1,0.1,0.1,0.2c0,0,0,0.1,0,0.2c0,0.1,0,0.2,0,0.2v0.1c0,0.2,0,0.3,0.1,0.3c0,0,0,0.1,0.1,0.1l0.1,0.1
		c0,0,0,0.1,0.1,0.3c0,0.1,0,0.2,0,0.3s0,0.2,0,0.3l0.1,0.1c0,0.1,0.1,0.1,0.1,0.1s0,0.1,0,0.2c0,0.1,0,0.2,0,0.2l0.1,0.1
		c0,0,0,0.1,0.1,0.1c0,0.1,0,0.2,0,0.3v0.1c0,0.1,0,0.1,0,0.1s0,0.1,0.1,0.1v0.1c0,0,0,0.1,0,0.2c0,0.1,0,0.1,0,0.1s0,0.1-0.1,0.1
		c0,0-0.1,0,0,0.1s0.1,0.2,0.1,0.2c0.1,0.1,0.1,0.2,0.1,0.2v0.1l-0.1,0.1c0,0,0,0.1,0.1,0.1l0.1,0.1c0,0,0,0,0,0.1v0.1l0.1,0.1
		c0,0.1,0,0.2,0,0.3c0,0,0,0.1,0.1,0.1v0.1c0,0,0,0.1,0,0.2c0,0.1,0,0.2,0,0.2s0,0.1,0.1,0.1s0.1,0.1,0.1,0.1c0,0.1,0,0.1,0,0.1
		s0,0,0,0.1v0.1c0,0,0,0.1,0,0.3s0,0.3,0,0.3l0.1,0.1c0,0.1,0.1,0.1,0.1,0.1c0,0.1,0,0.2,0,0.3s0,0.2,0,0.3c0.1,0,0.1,0.1,0.1,0.3
		c0.1,0.3,0.1,0.5,0.1,0.5c0.1,0.1,0.1,0.2,0.1,0.5c0,0.1,0,0.2,0,0.3c0,0,0,0.1,0.1,0.1c0,0,0.1,0,0.1,0.1c0,0,0,0.1,0,0.2
		c0,0.1,0,0.1,0,0.1c0.1,0.1,0.2,0,0.5-0.2H63c0.1,0,0.1-0.1,0.1-0.1c0.1-0.1,0.2-0.2,0.2-0.3c0,0,0.2-0.1,0.5-0.3
		c0,0,0-0.1,0.1-0.1c0.1-0.2,0.2-0.2,0.3-0.2c0.1-0.1,0.3-0.4,0.6-0.8c0-0.1,0.1-0.2,0.2-0.3c0-0.1,0.1-0.1,0.1-0.1
		c0.2-0.1,0.3-0.1,0.3-0.1c0-0.1,0.1-0.3,0.2-0.4c0.2-0.2,0.2-0.3,0.2-0.5c0.2-0.2,0.4-0.2,0.4-0.2c0-0.1,0-0.1,0.1-0.2
		c0.1-0.1,0.1-0.2,0.1-0.2l0.1-0.1c0.1-0.1,0.1-0.1,0.1-0.1c0-0.1,0.1-0.2,0.2-0.3s0.1-0.1,0.1-0.1H67V53c0,0,0.1,0,0.1-0.1l0.1-0.1
		c0-0.1,0-0.1,0-0.1c0-0.1,0.1-0.1,0.2-0.2c0.1-0.1,0.2-0.2,0.2-0.2c0-0.2,0.1-0.4,0.3-0.6c0.2-0.2,0.3-0.4,0.3-0.6
		c0,0,0-0.1,0.1-0.1l0.1-0.1c0-0.1,0-0.2,0.1-0.3s0.1-0.2,0.1-0.3c0.1,0,0.1-0.1,0.1-0.3c0-0.1,0-0.2,0-0.2c0.1-0.1,0.1-0.2,0.1-0.2
		s0-0.1,0-0.2c0-0.1,0-0.1,0.1-0.2C69,49.1,69,49.1,69,49c0,0,0-0.1,0-0.2c0-0.1,0-0.1,0-0.2c0,0,0-0.1,0.1-0.1
		c0.1-0.2,0.1-0.4,0.1-0.5c0.1-0.1,0.1-0.1,0.1-0.1c-0.1-0.1-0.1-0.3,0-0.6v-0.1v-0.1c-0.1-0.3-0.1-0.4,0-0.4l-0.1-0.3v-0.1
		c0-0.1,0-0.1,0-0.1h-0.1v-0.1c-0.1-0.2-0.2-0.3-0.2-0.3s0,0-0.1,0s-0.1,0-0.1,0s0,0,0-0.1s0,0,0,0h-0.1c-0.2-0.1-0.3-0.1-0.3-0.1
		c-0.1-0.1-0.1-0.1-0.1-0.1h-0.1c0,0-0.1,0-0.1-0.1s-0.1-0.1-0.1-0.1H67c0-0.1-0.1-0.1-0.3-0.1c-0.1-0.1-0.1-0.1-0.1-0.1
		s-0.1,0-0.2-0.1s-0.3-0.1-0.4-0.1c0,0-0.1,0-0.1-0.1l-0.1-0.1h-0.1c-0.1,0-0.1,0-0.1,0c-0.1-0.1-0.2-0.1-0.2-0.1
		c-0.1,0-0.2,0-0.3,0c-0.1-0.1-0.2-0.1-0.2-0.1h-0.1c-0.1,0-0.1,0-0.1,0s0,0-0.1-0.1l-0.1-0.1c0,0,0,0-0.1,0s-0.1,0-0.1,0
		c-0.1-0.1-0.1-0.1-0.1-0.1C64,44.1,63.9,44.1,63.8,44C63.8,44.1,63.8,44.1,63.8,44z"/>
	<path fill="#54813B" d="M81.6,42.1c0,0,0.1,0,0.2,0.1c0,0,0.1,0,0.2,0s0.2,0,0.2,0h0.1h0.1c0,0,0,0,0.1,0h0.1
		c0.1,0.2,0.2,0.3,0.3,0.2l0.3,0.2c0,0.1,0,0.1,0.1,0.2c0.1,0.1,0.1,0.1,0.1,0.1c0.1,0,0.1,0,0.2,0.1s0.2,0.1,0.2,0.1h0.1H84
		c0.2-0.1,0.3-0.1,0.4-0.1c0,0,0.1,0,0.3,0c0,0,0.1,0,0.2,0s0.2,0,0.2,0s0.1,0,0.1,0.1l0.1,0.1c0,0,0.1,0,0.2,0s0.2,0,0.2,0
		s0.1,0.1,0.2,0.2c0.1,0.1,0.2,0.2,0.4,0.1c0,0,0,0.1,0.1,0.1s0.2,0,0.3,0.1c0.1,0.1,0.2,0.1,0.2,0.1H87c0.4,0.2,0.6,0.4,0.8,0.4H88
		c0,0.1-0.1,0.1-0.2,0v0.1c0,0.1,0.2,0.2,0.4,0.3c0.2,0.1,0.4,0.3,0.4,0.4c0,0.1,0.1,0.1,0.2,0.2c0.2,0.2,0.4,0.4,0.4,0.5
		c0.2,0.1,0.2,0.3,0.2,0.4c0,0.1,0.1,0.2,0.2,0.3s0.2,0.2,0.2,0.3c0.1,0.2,0.2,0.4,0.2,0.4s0,0.1,0.1,0.1c0.1,0.2,0.1,0.3,0.1,0.4
		l0.1,0.1c0,0.1,0,0.2,0.1,0.3c0.1,0.3,0.1,0.5,0.1,0.5c0,0.2,0.1,0.3,0.1,0.4c0,0,0,0.1,0.1,0.3c-0.1,0-0.1,0.1,0,0.2
		C90.9,50,91,50,91,50.1v0.1v0.1c0,0,0,0,0.1,0.1v0.1c0,0.1,0,0.2,0,0.4s0,0.3,0,0.4c0,0.1,0,0.2,0,0.2s0,0.1,0,0.2
		c0,0,0,0.1,0.1,0.2V52c0,0,0,0,0,0.1c0.1,0.1,0.1,0.5,0.1,1.2s0,1.1,0,1.2c0,0,0,0.1,0,0.2c0,0.1,0,0.2,0,0.3c0,0,0,0.1-0.1,0.2
		c-0.1,0.1-0.1,0.2,0,0.3c0,0,0,0.1,0,0.2s0.1,0.2,0.1,0.2c-0.1,0-0.2,0.1-0.2,0.1c0,0.3,0,0.5,0,0.5v0.1L91,56.7v0.1
		c-0.1,0.2-0.1,0.3-0.1,0.3s0,0.1-0.1,0.1h-0.1c0,0,0,0,0,0.1l-0.1,0.1c0,0.1-0.1,0.1-0.1,0.2L90,58.1c0,0.1-0.1,0.3-0.2,0.5
		s-0.2,0.4-0.2,0.5c-0.2,0.2-0.2,0.3-0.2,0.5c0,0-0.1,0-0.2,0.1c0,0.1,0,0.1-0.1,0.2C89,60,89,60.1,89,60.2c-0.1,0-0.2,0.1-0.2,0.2
		c-0.1,0.1-0.1,0.2-0.2,0.2c0,0-0.1,0.1-0.2,0.2c-0.1,0.1-0.1,0.2-0.2,0.2c0,0.1,0,0.1-0.1,0.2c-0.2,0.1-0.4,0.2-0.6,0.4
		c-0.1,0.1-0.2,0.2-0.2,0.2c-0.1,0.1-0.2,0.2-0.4,0.3c-0.2,0.1-0.3,0.2-0.4,0.3h-0.1c0,0,0,0-0.1,0c0,0-0.1,0.1-0.2,0.1
		c-0.1,0.1-0.1,0.1-0.2,0.1s-0.2,0-0.3,0.1c-0.1,0-0.2,0-0.3,0.1c-0.1,0-0.1,0-0.2,0s-0.2,0-0.2,0s-0.1,0.1-0.2,0.2
		c-0.2,0-0.3,0-0.4,0c0,0.1-0.1,0.1-0.3,0.1c-0.2,0-0.3,0.1-0.3,0.2c-0.1,0-0.4,0-0.8,0s-0.7,0-0.9,0c-0.1,0-0.2,0-0.3,0
		c-0.2,0-0.3,0-0.4,0c0,0-0.1-0.1-0.1-0.2c-0.1,0-0.2,0-0.2,0.1s-0.1,0.1-0.1,0.1s-0.1,0-0.1-0.1h0.1c0,0-0.1,0-0.1-0.1
		c-0.1,0-0.1-0.1-0.1-0.1c-0.2,0.1-0.4,0-0.6-0.1s-0.4-0.2-0.5-0.1v-0.1c0,0-0.1,0-0.3-0.1s-0.3-0.1-0.5-0.1v-0.1
		c0,0-0.1-0.1-0.1-0.2c-0.1-0.1-0.1-0.1-0.1-0.2c-0.1,0-0.1-0.1-0.1-0.1s0,0-0.1-0.1l-0.1-0.1c0,0,0,0-0.1,0h-0.1l0,0l0,0
		c0,0-0.1,0-0.2-0.1c0,0-0.1,0-0.1-0.1c-0.1-0.1-0.1-0.1-0.1-0.2c-0.1,0-0.1,0-0.1,0c-0.1-0.1-0.2-0.2-0.3-0.3
		c-0.1-0.1-0.2-0.3-0.3-0.4h-0.1c-0.3-0.4-0.5-0.6-0.5-0.8c0,0-0.1-0.2-0.3-0.4v-0.1c0,0-0.1-0.1-0.1-0.2c-0.1-0.1-0.1-0.1-0.1-0.2
		c0-0.3-0.1-0.6-0.3-0.9c0-0.1,0-0.2-0.1-0.3c0-0.1,0-0.1,0-0.1s0,0,0-0.1v-0.1c0,0,0-0.1-0.1-0.1l-0.1-0.1c0,0,0-0.2,0-0.5v-0.1
		v-0.1c0,0-0.1,0-0.1-0.1v-0.1c0-0.1,0-0.2,0-0.4s0-0.3,0-0.4c0,0-0.1,0-0.1-0.1c0,0,0-0.1,0-0.2v-0.1c0,0,0-0.1-0.1-0.1
		c0-0.1,0-0.1,0-0.1c-0.1-0.1-0.1-0.2-0.1-0.2v-0.1l0.1-0.1c0.1-0.2,0-0.3-0.1-0.4c0,0,0-0.1,0-0.2v-0.1l0.2-0.2c0-0.1,0-0.3,0-0.7
		s0-0.6,0-0.7c0-0.1,0-0.1,0-0.2s0-0.1,0-0.2c0-0.1,0-0.2,0-0.4s0-0.3,0-0.5s0.1-0.2,0.2-0.3v-0.1v-0.1v-0.1l0.1-0.1
		c0,0,0-0.2,0-0.4c0-0.3,0-0.4,0-0.5c0-0.4,0-0.6,0-0.6s0.1,0,0.2-0.1s0.1-0.1,0.2-0.1c0-0.1,0-0.1,0-0.1l-0.1-0.1l0.1-0.1
		c0,0,0.1-0.1,0.1-0.2c0-0.1,0-0.1,0-0.2c0.1-0.1,0.1-0.1,0.1-0.1c0-0.1,0-0.2,0-0.4s0-0.3,0.1-0.3h0.1c0.1,0,0.1,0,0.1,0
		c0-0.1,0-0.1-0.1-0.1s-0.1,0-0.1-0.1l0.1-0.2c0,0,0.1-0.1,0.1-0.2c0.1-0.1,0.1-0.2,0.1-0.2v-0.1c0,0,0,0,0-0.1
		c0.1-0.1,0.1-0.2,0.1-0.3c0.1,0,0.1-0.1,0.2-0.2c0-0.1,0.1-0.2,0.1-0.2c0-0.1,0-0.2,0.1-0.3s0.2-0.2,0.2-0.2v-0.1
		c0,0,0-0.1,0.1-0.1c0-0.1,0.1-0.1,0.2-0.2c0.1-0.1,0.2-0.2,0.2-0.3c0.1,0,0.2-0.1,0.3-0.3c0.1,0,0.2-0.1,0.2-0.3c0-0.1,0-0.2,0-0.2
		c0.1,0.1,0.2,0,0.3-0.1c0.1,0,0.1-0.1,0.1-0.1h0.1c0.1,0,0.1-0.1,0.2-0.1c0.1-0.1,0.1-0.1,0.2-0.1c0.2,0,0.4-0.1,0.6-0.3
		c0.1,0,0.2,0,0.3-0.1c0.1-0.1,0.2-0.1,0.2-0.2l0,0c0,0,0,0,0-0.1c0.1,0.1,0.2,0,0.4-0.1c0.1,0,0.2,0,0.3,0c0.1,0,0.3,0,0.3,0
		c0.1,0,0.2,0,0.3,0S81.5,42.1,81.6,42.1z M80.9,42.1c0.1,0,0.2,0,0.3,0s0.3,0,0.4,0c0,0,0.1,0,0.2,0.1c0,0,0.1,0,0.2,0s0.2,0,0.2,0
		h0.1h0.1c0,0,0,0,0.1,0h0.1c0.1,0.2,0.2,0.3,0.3,0.2l0.3,0.2c0,0.1,0,0.1,0.1,0.2c0.1,0.1,0.1,0.1,0.1,0.1c0.1,0,0.1,0,0.2,0.1
		s0.2,0.1,0.2,0.1h0.1H84c0.2-0.1,0.3-0.1,0.4-0.1c0,0,0.1,0,0.3,0c0,0,0.1,0,0.2,0s0.2,0,0.2,0s0.1,0,0.1,0.1l0.1,0.1
		c0,0,0.1,0,0.2,0s0.2,0,0.2,0s0.1,0.1,0.2,0.2c0.1,0.1,0.2,0.2,0.4,0.1c0,0,0,0.1,0.1,0.1s0.2,0,0.3,0.1c0.1,0.1,0.2,0.1,0.2,0.1
		H87c0.4,0.2,0.6,0.4,0.8,0.4H88c0,0.1-0.1,0.1-0.2,0v0.1c0,0.1,0.2,0.2,0.4,0.3c0.2,0.1,0.4,0.3,0.4,0.4c0,0.1,0.1,0.1,0.2,0.2
		c0.2,0.2,0.4,0.4,0.4,0.5c0.2,0.1,0.2,0.3,0.2,0.4c0,0.1,0.1,0.2,0.2,0.3s0.2,0.2,0.2,0.3c0.1,0.2,0.2,0.4,0.2,0.4s0,0.1,0.1,0.1
		c0.1,0.2,0.1,0.3,0.1,0.4l0.1,0.1c0,0.1,0,0.2,0.1,0.3c0.1,0.3,0.1,0.5,0.1,0.5c0,0.2,0.1,0.3,0.1,0.4c0,0,0,0.1,0.1,0.3
		c-0.1,0-0.1,0.1,0,0.2C90.9,50,91,50,91,50.1v0.1v0.1c0,0,0,0,0.1,0.1v0.1c0,0.1,0,0.2,0,0.4s0,0.3,0,0.4c0,0.1,0,0.2,0,0.2
		s0,0.1,0,0.2c0,0,0,0.1,0.1,0.2V52c0,0,0,0,0,0.1c0.1,0.1,0.1,0.5,0.1,1.2s0,1.1,0,1.2c0,0,0,0.1,0,0.2c0,0.1,0,0.2,0,0.3
		c0,0,0,0.1-0.1,0.2c-0.1,0.1-0.1,0.2,0,0.3c0,0,0,0.1,0,0.2s0.1,0.2,0.1,0.2c-0.1,0-0.2,0.1-0.2,0.1c0,0.3,0,0.5,0,0.5v0.1L91,56.7
		v0.1c-0.1,0.2-0.1,0.3-0.1,0.3s0,0.1-0.1,0.1h-0.1c0,0,0,0,0,0.1l-0.1,0.1c0,0.1-0.1,0.1-0.1,0.2L90,58.1c0,0.1-0.1,0.3-0.2,0.5
		s-0.2,0.4-0.2,0.5c-0.2,0.2-0.2,0.3-0.2,0.5c0,0-0.1,0-0.2,0.1c0,0.1,0,0.1-0.1,0.2C89,60,89,60.1,89,60.2c-0.1,0-0.2,0.1-0.2,0.2
		c-0.1,0.1-0.1,0.2-0.2,0.2c0,0-0.1,0.1-0.2,0.2c-0.1,0.1-0.1,0.2-0.2,0.2c0,0.1,0,0.1-0.1,0.2c-0.2,0.1-0.4,0.2-0.6,0.4
		c-0.1,0.1-0.2,0.2-0.2,0.2c-0.1,0.1-0.2,0.2-0.4,0.3c-0.2,0.1-0.3,0.2-0.4,0.3h-0.1c0,0,0,0-0.1,0c0,0-0.1,0.1-0.2,0.1
		c-0.1,0.1-0.1,0.1-0.2,0.1s-0.2,0-0.3,0.1c-0.1,0-0.2,0-0.3,0.1c-0.1,0-0.1,0-0.2,0s-0.2,0-0.2,0s-0.1,0.1-0.2,0.2
		c-0.2,0-0.3,0-0.4,0c0,0.1-0.1,0.1-0.3,0.1c-0.2,0-0.3,0.1-0.3,0.2c-0.1,0-0.4,0-0.8,0s-0.7,0-0.9,0c-0.1,0-0.2,0-0.3,0
		c-0.2,0-0.3,0-0.4,0c0,0-0.1-0.1-0.1-0.2c-0.1,0-0.2,0-0.2,0.1s-0.1,0.1-0.1,0.1s-0.1,0-0.1-0.1h0.1c0,0-0.1,0-0.1-0.1
		c-0.1,0-0.1-0.1-0.1-0.1c-0.2,0.1-0.4,0-0.6-0.1s-0.4-0.2-0.5-0.1v-0.1c0,0-0.1,0-0.3-0.1s-0.3-0.1-0.5-0.1v-0.1
		c0,0-0.1-0.1-0.1-0.2c-0.1-0.1-0.1-0.1-0.1-0.2c-0.1,0-0.1-0.1-0.1-0.1s0,0-0.1-0.1l-0.1-0.1c0,0,0,0-0.1,0h-0.1l0,0l0,0
		c0,0-0.1,0-0.2-0.1c0,0-0.1,0-0.1-0.1c-0.1-0.1-0.1-0.1-0.1-0.2c-0.1,0-0.1,0-0.1,0c-0.1-0.1-0.2-0.2-0.3-0.3
		c-0.1-0.1-0.2-0.3-0.3-0.4h-0.1c-0.3-0.4-0.5-0.6-0.5-0.8c0,0-0.1-0.2-0.3-0.4v-0.1c0,0-0.1-0.1-0.1-0.2c-0.1-0.1-0.1-0.1-0.1-0.2
		c0-0.3-0.1-0.6-0.3-0.9c0-0.1,0-0.2-0.1-0.3c0-0.1,0-0.1,0-0.1s0,0,0-0.1v-0.1c0,0,0-0.1-0.1-0.1l-0.1-0.1c0,0,0-0.2,0-0.5v-0.1
		v-0.1c0,0-0.1,0-0.1-0.1v-0.1c0-0.1,0-0.2,0-0.4s0-0.3,0-0.4c0,0-0.1,0-0.1-0.1c0,0,0-0.1,0-0.2v-0.1c0,0,0-0.1-0.1-0.1
		c0-0.1,0-0.1,0-0.1c-0.1-0.1-0.1-0.2-0.1-0.2v-0.1l0.1-0.1c0.1-0.2,0-0.3-0.1-0.4c0,0,0-0.1,0-0.2v-0.1l0.2-0.2c0-0.1,0-0.3,0-0.7
		s0-0.6,0-0.7c0-0.1,0-0.1,0-0.2s0-0.1,0-0.2c0-0.1,0-0.2,0-0.4s0-0.3,0-0.5s0.1-0.2,0.2-0.3v-0.1v-0.1v-0.1l0.1-0.1
		c0,0,0-0.2,0-0.4c0-0.3,0-0.4,0-0.5c0-0.4,0-0.6,0-0.6s0.1,0,0.2-0.1s0.1-0.1,0.2-0.1c0-0.1,0-0.1,0-0.1l-0.1-0.1l0.1-0.1
		c0,0,0.1-0.1,0.1-0.2c0-0.1,0-0.1,0-0.2c0.1-0.1,0.1-0.1,0.1-0.1c0-0.1,0-0.2,0-0.4s0-0.3,0.1-0.3h0.1c0.1,0,0.1,0,0.1,0
		c0-0.1,0-0.1-0.1-0.1s-0.1,0-0.1-0.1l0.1-0.2c0,0,0.1-0.1,0.1-0.2c0.1-0.1,0.1-0.2,0.1-0.2v-0.1c0,0,0,0,0-0.1
		c0.1-0.1,0.1-0.2,0.1-0.3c0.1,0,0.1-0.1,0.2-0.2c0-0.1,0.1-0.2,0.1-0.2c0-0.1,0-0.2,0.1-0.3s0.2-0.2,0.2-0.2v-0.1
		c0,0,0-0.1,0.1-0.1c0-0.1,0.1-0.1,0.2-0.2c0.1-0.1,0.2-0.2,0.2-0.3c0.1,0,0.2-0.1,0.3-0.3c0.1,0,0.2-0.1,0.2-0.3c0-0.1,0-0.2,0-0.2
		c0.1,0.1,0.2,0,0.3-0.1c0.1,0,0.1-0.1,0.1-0.1h0.1c0.1,0,0.1-0.1,0.2-0.1c0.1-0.1,0.1-0.1,0.2-0.1c0.2,0,0.4-0.1,0.6-0.3
		c0.1,0,0.2,0,0.3-0.1c0.1-0.1,0.2-0.1,0.2-0.2l0,0c0,0,0,0,0-0.1c0.1,0.1,0.2,0,0.4-0.1C80.6,42.1,80.7,42.1,80.9,42.1
		C80.7,42.1,80.8,42.1,80.9,42.1z M82.5,45.1c-0.1,0-0.3,0-0.5,0s-0.4,0-0.6,0c-0.2,0.1-0.4,0.2-0.6,0.3s-0.4,0.2-0.6,0.4
		s-0.3,0.3-0.4,0.5c0,0-0.1,0.1-0.1,0.2c-0.1,0.1-0.1,0.1-0.1,0.1v0.1c0,0,0,0.1-0.1,0.1l-0.1,0.1c0,0-0.1,0.2-0.2,0.4
		c0,0.1,0,0.1-0.1,0.2C79,47.6,79,47.6,79,47.6c0,0.1,0,0.2,0,0.2s0,0.1-0.1,0.1c0,0,0,0.1,0,0.2s0,0.1,0,0.2v0.1
		c-0.1,0.1-0.1,0.2-0.1,0.2c-0.2,0.1-0.2,0.3-0.2,0.5c-0.1,0.1-0.2,0.3-0.1,0.7c-0.1,0.1-0.2,0.3-0.1,0.5C78,50.8,78,51,78.1,51.2
		c0,0,0,0.1-0.1,0.1c0,0-0.1,0-0.1,0.1s0,0.2-0.1,0.4s-0.1,0.3,0,0.4c-0.1,0.1-0.1,0.3-0.1,0.6v0.1c0,0.1,0,0.1,0,0.1s0,0.1-0.1,0.1
		l-0.1,0.1c0.1,0.1,0.1,0.2,0.1,0.3s0,0.3,0,0.5s0,0.3,0,0.4c0,0,0,0.1-0.1,0.1v0.1l0.1,0.1c0,0.1,0,0.2-0.1,0.5c0,0,0,0.1,0.1,0.1
		v0.1v0.1v0.1c0,0.2,0,0.3,0,0.4l0.1,0.1v0.1l0,0c0,0,0,0,0,0.1s0.1,0.2,0.1,0.2c0,0.1,0,0.1,0,0.2c0,0.1,0,0.1,0,0.1s0,0,0,0.1V57
		c0,0,0.1,0,0.1,0.1v0.1v0.1v0.1c0,0,0,0,0,0.1v0.1c0,0,0.1,0,0.1,0.1l0.1,0.1c0.1,0,0.1,0.1,0.1,0.1c-0.1,0.1-0.1,0.3,0.1,0.4v0.1
		c0,0,0,0.1,0.1,0.1s0.1,0.1,0.1,0.2l0.2,0.2c0.1,0.1,0.2,0.3,0.5,0.5c0.2,0.2,0.3,0.3,0.4,0.4c0.1,0,0.1,0,0.1,0
		c0.2,0.3,0.5,0.5,0.7,0.5c0.1,0.1,0.2,0.2,0.2,0.2s0.1,0,0.2,0s0.2,0,0.2,0l0.1,0.1l0.1,0.1h0.1h0.1c0,0,0,0,0.1,0s0.1,0,0.1,0
		c0.2,0,0.5,0,0.7,0c0,0,0.1,0,0.2-0.1s0.2-0.1,0.2-0.1c0.1,0,0.2,0,0.2,0s0.1,0,0.1-0.1l0.1-0.1c0,0,0.1,0,0.2,0
		c0.1-0.1,0.2-0.2,0.4-0.1c0.1-0.1,0.3-0.2,0.5-0.4s0.4-0.3,0.6-0.4c0,0,0-0.1,0.1-0.1l0.1-0.1c0,0,0,0,0-0.1s0.1-0.1,0.2-0.2
		c0.1-0.1,0.1-0.1,0.1-0.1s0.1-0.1,0.1-0.2c0.1-0.1,0.1-0.2,0.1-0.2s0-0.1,0.1-0.1s0.1-0.1,0.1-0.1c0.1-0.1,0.2-0.2,0.2-0.2v-0.1
		c0,0,0.1-0.2,0.3-0.5c0,0,0-0.1,0.1-0.1c0,0,0.1-0.2,0.1-0.5c0-0.1,0.1-0.2,0.2-0.3v-0.1c0,0,0-0.1,0.1-0.1l0.1-0.1v-0.1
		c0-0.1,0-0.1,0-0.1c0.1-0.1,0.2-0.4,0.3-0.9l0.1-0.3v-0.1v-0.1c0.1-0.1,0.1-0.2,0.1-0.2s0-0.1-0.1-0.1s-0.1-0.1-0.1-0.1
		c0-0.1,0-0.1,0.1-0.2c0.1-0.1,0.1-0.2,0.1-0.2c0-0.1,0-0.2,0-0.3c-0.1-0.1-0.1-0.2,0-0.2c0,0,0-0.1,0.1-0.1v-0.1L87.3,53l-0.1-0.1
		c0.1-0.1,0.1-0.1,0.1-0.1s0-0.1-0.1-0.1v-0.1c0-0.1,0-0.2,0-0.3s0-0.2,0-0.2V52l0.1-0.1c0,0,0-0.1-0.1-0.1c0-0.1,0-0.1-0.1-0.2
		c-0.1,0-0.1-0.1-0.1-0.1c0-0.1,0-0.1,0.1-0.2c0-0.1,0.1-0.1,0-0.2V51L87,50.9c0-0.1,0-0.1,0-0.1c0-0.1,0.1-0.1,0.1-0.1
		c-0.1,0-0.2-0.2-0.2-0.4s-0.1-0.4-0.2-0.4c0,0,0-0.1,0-0.2c0-0.1,0-0.2,0-0.2c-0.1-0.1-0.2-0.2-0.2-0.3c-0.3-0.6-0.8-1.1-1.4-1.7
		h-0.2c0-0.1-0.1-0.2-0.3-0.3h-0.1l-0.2-0.1L84.2,47c-0.1-0.1-0.2-0.1-0.3-0.1c0,0-0.1,0-0.2,0s-0.2,0-0.2,0
		c-0.1-0.1-0.2-0.1-0.3-0.1c-0.1,0-0.2,0-0.3,0c-0.1,0-0.2,0-0.3,0c0.5-0.8,0.4-0.9,0.2-0.8c-0.1-0.1-0.1-0.2,0-0.3
		c0,0,0-0.1,0.1-0.1l0.1-0.1c0-0.1,0-0.1-0.1-0.1s-0.1,0-0.1,0C82.6,45.2,82.6,45.1,82.5,45.1z M81.5,45.1c-0.2,0.1-0.4,0.2-0.6,0.3
		s-0.4,0.2-0.6,0.4s-0.3,0.3-0.4,0.5c0,0-0.1,0.1-0.1,0.2c-0.1,0.1-0.1,0.1-0.1,0.1v0.1c0,0,0,0.1-0.1,0.1l-0.1,0.1
		c0,0-0.1,0.2-0.2,0.4c0,0.1,0,0.1-0.1,0.2c-0.1,0.1-0.1,0.1-0.1,0.1c0,0.1,0,0.2,0,0.2s0,0.1-0.1,0.2c0,0,0,0.1,0,0.2s0,0.1,0,0.2
		v0.1c-0.1,0.1-0.1,0.2-0.1,0.2c-0.2,0.1-0.2,0.3-0.2,0.5c-0.1,0.1-0.2,0.3-0.1,0.7c-0.1,0.1-0.2,0.3-0.1,0.5
		C78,50.8,78,51,78.1,51.2c0,0,0,0.1-0.1,0.1c0,0-0.1,0-0.1,0.1s0,0.2-0.1,0.4s-0.1,0.3,0,0.4c-0.1,0.1-0.1,0.3-0.1,0.6v0.1
		c0,0.1,0,0.1,0,0.1s0,0.1-0.1,0.1l-0.1,0.1c0.1,0.1,0.1,0.2,0.1,0.3s0,0.3,0,0.5s0,0.3,0,0.4c0,0,0,0.1-0.1,0.1v0.1l0.1,0.1
		c0,0.1,0,0.2-0.1,0.5c0,0,0,0.1,0.1,0.1v0.1v0.1v0.1c0,0.2,0,0.3,0,0.4l0.1,0.1v0.1l0,0c0,0,0,0,0,0.1s0.1,0.2,0.1,0.2
		c0,0.1,0,0.1,0,0.2c0,0.1,0,0.1,0,0.1s0,0,0,0.1V57c0,0,0.1,0,0.1,0.1v0.1v0.1v0.1c0,0,0,0,0,0.1v0.1c0,0,0.1,0,0.1,0.1l0.1,0.1
		c0.1,0,0.1,0.1,0.1,0.1c-0.1,0.1-0.1,0.3,0.1,0.4v0.1c0,0,0,0.1,0.1,0.1s0.1,0.1,0.1,0.2l0.2,0.2c0.1,0.1,0.2,0.3,0.5,0.5
		c0.2,0.2,0.3,0.3,0.4,0.4c0.1,0,0.1,0,0.1,0c0.2,0.3,0.5,0.5,0.7,0.5c0.1,0.1,0.2,0.2,0.2,0.2s0.1,0,0.2,0s0.2,0,0.2,0l0.1,0.1
		l0.1,0.1h0.1h0.1c0,0,0,0,0.1,0s0.1,0,0.1,0c0.2,0,0.5,0,0.7,0c0,0,0.1,0,0.2-0.1s0.2-0.1,0.2-0.1c0.1,0,0.2,0,0.2,0s0.1,0,0.1-0.1
		l0.1-0.1c0,0,0.1,0,0.2,0c0.1-0.1,0.2-0.2,0.4-0.1c0.1-0.1,0.3-0.2,0.5-0.4s0.4-0.3,0.6-0.4c0,0,0-0.1,0.1-0.1l0.1-0.1
		c0,0,0,0,0-0.1s0.1-0.1,0.2-0.2c0.1-0.1,0.1-0.1,0.1-0.1s0.1-0.1,0.1-0.2c0.1-0.1,0.1-0.2,0.1-0.2s0-0.1,0.1-0.1s0.1-0.1,0.1-0.1
		c0.1-0.1,0.2-0.2,0.2-0.2v-0.1c0,0,0.1-0.2,0.3-0.5c0,0,0-0.1,0.1-0.1c0,0,0.1-0.2,0.1-0.5c0-0.1,0.1-0.2,0.2-0.3v-0.1
		c0,0,0-0.1,0.1-0.1l0.1-0.1v-0.1c0-0.1,0-0.1,0-0.1c0.1-0.1,0.2-0.4,0.3-0.9l0.1-0.3v-0.1v-0.1c0.1-0.1,0.1-0.2,0.1-0.2
		s0-0.1-0.1-0.1s-0.1-0.1-0.1-0.1c0-0.1,0-0.1,0.1-0.2c0.1-0.1,0.1-0.2,0.1-0.2c0-0.1,0-0.2,0-0.3c-0.1-0.1-0.1-0.2,0-0.2
		c0,0,0-0.1,0.1-0.1v-0.1L87.3,53l-0.1-0.1c0.1-0.1,0.1-0.1,0.1-0.1s0-0.1-0.1-0.1v-0.1c0-0.1,0-0.2,0-0.3s0-0.2,0-0.2V52l0.1-0.1
		c0,0,0-0.1-0.1-0.1c0-0.1,0-0.1-0.1-0.2c-0.1,0-0.1-0.1-0.1-0.1c0-0.1,0-0.1,0.1-0.2c0-0.1,0.1-0.1,0-0.2V51L87,50.9
		c0-0.1,0-0.1,0-0.1c0-0.1,0.1-0.1,0.1-0.1c-0.1,0-0.2-0.2-0.2-0.4s-0.1-0.4-0.2-0.4c0,0,0-0.1,0-0.2c0-0.1,0-0.2,0-0.2
		c-0.1-0.1-0.2-0.2-0.2-0.3c-0.3-0.6-0.8-1.1-1.4-1.7h-0.2c0-0.1-0.1-0.2-0.3-0.3h-0.1l-0.2-0.1L84.2,47c-0.1-0.1-0.2-0.1-0.3-0.1
		c0,0-0.1,0-0.2,0s-0.2,0-0.2,0c-0.1-0.1-0.2-0.1-0.3-0.1c-0.1,0-0.2,0-0.3,0c-0.1,0-0.2,0-0.3,0c0.5-0.8,0.4-0.9,0.2-0.8
		c-0.1-0.1-0.1-0.2,0-0.3c0,0,0-0.1,0.1-0.1l0.1-0.1c0-0.1,0-0.1-0.1-0.1s-0.1,0-0.1,0c0-0.2-0.1-0.2-0.1-0.2c-0.1,0-0.3,0-0.5,0
		C81.8,45.1,81.6,45.1,81.5,45.1z"/>
</g>
</svg>
