<?xml version="1.0" encoding="utf-8"?>
<!-- Generator: Adobe Illustrator 19.0.1, SVG Export Plug-In . SVG Version: 6.00 Build 0)  -->
<svg version="1.1" id="Layer_1" xmlns="http://www.w3.org/2000/svg" xmlns:xlink="http://www.w3.org/1999/xlink" x="0px" y="0px"
	 viewBox="0 0 100 100" enable-background="new 0 0 100 100" xml:space="preserve">
<g>
	<path fill="#54813B" d="M26.9,33c0,0,0,0.1,0,0.2c0.2,0.1,0.4,0.3,0.6,0.4h0.2c0,0.1,0.1,0.2,0.2,0.2c0,0.1,0,0.2,0.1,0.2
		s0.1,0,0.1,0c0,0.2,0,0.4,0,0.5c0.1,0.1,0.1,0.2,0.1,0.3s0,0.2,0,0.3s0,0.2,0,0.3C28,35.5,28,35.6,28,35.8c-0.1,0-0.1,0-0.2,0
		c-0.1,0.1-0.1,0.1-0.1,0.1h-0.1h-0.1c0,0,0,0-0.1,0.1h-0.1c0,0,0,0-0.1,0s-0.1,0.1-0.2,0.2c0,0-0.1,0-0.2-0.1c-0.1,0-0.1,0-0.1,0
		h-0.1c0-0.1,0-0.2-0.2-0.3h-0.1h-0.1l-0.1-0.1c-0.1,0-0.1,0-0.1,0s0,0-0.1,0v-0.1c-0.1-0.1-0.2-0.1-0.3-0.1c0,0-0.1,0-0.1,0.1
		c-0.1,0-0.2,0-0.3,0h-0.1H25h-0.1h-0.1c0,0-0.1,0-0.2-0.1c0,0-0.1,0-0.1,0.1c-0.1,0-0.1,0-0.1,0h-0.1c-0.1,0-0.1,0-0.1,0h-0.1H24
		h-0.1h-0.1h-0.1c-0.1,0-0.1,0-0.2,0c-0.3,0-0.5,0.1-0.5,0.1c0,0.1,0,0.1,0,0.1h-0.1l-0.1-0.1c0,0-0.1,0-0.2,0.1c0,0,0,0-0.1,0
		c0,0,0,0-0.1,0c-0.1,0.1-0.2,0.1-0.4,0.1c-0.2,0-0.4,0.1-0.4,0.1v0.1c-0.1,0-0.1,0-0.1,0s0,0-0.1,0c0,0,0,0.1-0.1,0.1s-0.1,0-0.1,0
		s-0.1,0-0.2,0.1h-0.1c-0.1,0-0.1,0-0.2,0v0.1v0.1c0,0.1,0.1,0.2,0.1,0.2s0.1,0,0.2,0c0,0.1,0.1,0.1,0.2,0.2h0.1h0.1c0,0,0,0,0,0.1
		s0,0.1,0,0.1c0.1-0.1,0.2,0,0.3,0.1c0.1,0.1,0.2,0.1,0.2,0.1s0.1,0,0.2,0.1c0.1,0,0.2,0,0.2,0.1c0,0,0.1,0,0.1,0.1h0.1
		c0,0,0.1,0,0.1,0.1c0,0,0.1,0,0.1,0.1c0.3,0.1,0.5,0.1,0.5,0.2c0.1-0.1,0.2,0,0.3,0c0.1,0,0.1,0.1,0.1,0.1c0.1,0,0.1,0,0.2,0
		s0.2,0,0.2,0s0,0,0.1,0c0,0,0,0,0.1,0h0.1c0,0,0.1,0,0.1,0.1l0.1,0.1h0.1h0.1c0.2,0.1,0.3,0.2,0.4,0.2l0.1-0.1c0.1,0,0.1,0,0.2,0
		c0,0,0,0,0,0.1c0.1,0.1,0.2,0.1,0.2,0.1h0.1h0.1c0,0.1,0,0.2,0.1,0.2c0,0,0,0,0.1,0c0,0,0,0,0.1-0.1c0.2,0,0.3,0,0.3,0
		c0,0.1,0.1,0.1,0.2,0.2c0.1,0,0.2,0.1,0.2,0.1c0.2-0.1,0.4,0,0.5,0.1h0.1h0.1c0,0,0.1,0,0.1,0.1s0.1,0.1,0.1,0.1s0.1,0,0.1-0.1
		c0.1-0.1,0.1-0.1,0.2,0c0,0.1,0,0.2,0.1,0.2s0.2,0,0.2,0c0.1,0.1,0.1,0.1,0.1,0.1h0.1h0.1c0,0,0,0,0,0.1c0,0,0.1,0.1,0.2,0.1
		c0.1,0.1,0.2,0.1,0.3,0.2c0.1,0,0.1,0,0.2,0c0.1,0.1,0.1,0.1,0.2,0.1c0.1,0.2,0.1,0.3,0.2,0.3h0.1h0.1v0.1c0.1,0.1,0.2,0.2,0.3,0.3
		c0.2,0.2,0.3,0.3,0.4,0.3c0,0.1,0.1,0.1,0.1,0.2c0,0.1,0,0.1,0,0.2c0.1,0.1,0.2,0.3,0.3,0.5c0,0.1,0.1,0.1,0.1,0.2
		c0.1,0.1,0.1,0.2,0.1,0.2v0.1v0.1v0.1v0.1v0.1v0.1V43v0.1c0,0,0,0.1,0,0.3c0,0.1,0,0.3,0.1,0.3v0.1v0.1c0.1,0,0.1,0.1,0,0.3
		s-0.1,0.3-0.1,0.4v0.1c0,0.1,0,0.1-0.1,0.2c0.1,0.1,0.1,0.1,0,0.1c0,0.1,0,0.1-0.1,0.3v0.1c-0.2,0.2-0.3,0.3-0.2,0.4
		c-0.1,0.2-0.3,0.3-0.4,0.4c0,0.2-0.1,0.3-0.2,0.4c-0.1,0.1-0.2,0.2-0.3,0.3c0,0.1,0,0.1-0.1,0.2v0.1h-0.1h-0.1
		c-0.1,0-0.1,0.1,0,0.2c0,0-0.2,0.1-0.4,0.2v0.1c-0.2,0.1-0.3,0.2-0.3,0.2c-0.1,0-0.1,0-0.2,0.2c-0.1,0-0.2,0.1-0.3,0.2
		c-0.1,0.1-0.2,0.1-0.3,0.2v0.1c0,0.1,0,0.1,0,0.1s-0.1,0-0.1-0.1c0,0,0-0.1-0.1-0.1s-0.1,0-0.2,0.1s-0.2,0.1-0.2,0.1
		c-0.1,0-0.1,0.1-0.1,0.1s-0.1,0-0.2,0s-0.1,0-0.2,0c-0.1,0.1-0.2,0.1-0.2,0c0,0.2-0.1,0.2-0.1,0.2c-0.1,0.1-0.1,0.2-0.2,0.2
		s-0.1,0-0.1,0c-0.1,0-0.1,0-0.1,0.1s-0.1,0.1-0.1,0.1c-0.1,0-0.2,0-0.3,0.1c-0.1,0.1-0.2,0.1-0.2,0.1c-0.1,0-0.1,0-0.2,0
		s-0.1,0-0.1,0c-0.1,0-0.1,0-0.2,0.1c-0.1,0-0.1,0.1-0.2,0.1h-0.1c-0.1,0-0.1,0-0.1,0s0,0-0.1,0.1c0,0-0.2,0-0.4,0
		c0,0-0.1,0-0.1-0.1c-0.2-0.1-0.3-0.1-0.4,0c-0.1,0-0.1,0-0.1,0c-0.1,0.1-0.1,0.1-0.1,0.1c-0.1-0.1-0.2-0.1-0.4-0.1
		c-0.1,0-0.2,0-0.2,0c-0.1-0.1-0.1-0.1-0.1-0.1s0,0-0.1,0.1c-0.1,0-0.1,0-0.1,0v-0.1v-0.1c-0.1,0-0.1,0-0.2,0s-0.2,0-0.2,0
		s-0.1,0-0.2-0.1c0,0-0.1,0-0.2,0v-0.2c0,0-0.1,0-0.2,0l0,0v-0.1c-0.1,0-0.1,0-0.2-0.1s-0.1-0.1-0.1-0.2c-0.1-0.1-0.2-0.1-0.2-0.2
		c0-0.1,0-0.1,0-0.1c-0.1-0.1-0.1-0.1-0.2-0.2c-0.1-0.1-0.2-0.1-0.2-0.1s0,0-0.1,0c0,0,0,0-0.1,0c0-0.1,0-0.2-0.1-0.3
		s-0.2-0.1-0.3-0.2v-0.1v-0.1c0,0-0.1,0-0.1-0.1S20,47.4,20,47.4c-0.1-0.1-0.2-0.1-0.2-0.2v-0.1V47v-0.1c0,0,0-0.1-0.1-0.1v-0.1
		v-0.1c0-0.1,0-0.1-0.1-0.2c0-0.1-0.1-0.1-0.1-0.1c0-0.1,0-0.1,0.1-0.2c0-0.1,0.1-0.1,0.1-0.2c0,0,0,0,0.1,0c0,0,0,0,0.1,0
		c0,0,0-0.1-0.1-0.4c0.1,0,0.1,0,0.2,0c0.1-0.1,0.1-0.1,0-0.2c0,0,0.1-0.1,0.1-0.2c0.1-0.1,0.1-0.2,0.1-0.2h0.1V45
		c0.1,0,0.1-0.1,0.1-0.1c0-0.1,0-0.1,0-0.1c0-0.1,0.1-0.1,0.2-0.1s0.1,0,0.1,0s0,0,0.1-0.1c0,0,0.1-0.1,0.1,0s0.1,0,0.1,0.1h0.1h0.1
		c0.1,0.1,0.2,0.2,0.2,0.2c0.1,0,0.1,0,0.1,0h0.1c0.1,0.1,0.1,0.1,0.2,0.1s0.1,0.1,0.1,0.2c0.1,0,0.1,0.1,0.1,0.1
		c0,0.1,0.1,0.1,0.1,0.2c0.1,0.1,0.1,0.2,0.1,0.2c0.1,0,0.2,0.1,0.3,0.3c0.1,0.1,0.2,0.3,0.3,0.3v0.1v0.1l0.2,0.2h0.1
		c0.1,0,0.1,0,0.1,0s0,0.1,0.1,0.1c0,0,0,0,0.1,0s0.1,0,0.3,0c0.1,0,0.2,0,0.3,0c0,0,0.1,0,0.1,0.1l0.1,0.1c0.1,0,0.2,0,0.2,0
		c0.1-0.1,0.1-0.1,0.1-0.1s0,0,0.1,0s0.1,0,0.1,0s0.1,0,0.1-0.1c0.1,0,0.1,0,0.2,0h0.1c0.1,0,0.1,0,0.1,0s0,0,0.1,0l0,0
		c0,0,0,0,0.1,0h0.1c0,0,0,0,0.1-0.1h0.1c0.1,0,0.1,0,0.1-0.1c0,0,0,0,0.1,0c0,0,0,0,0.1,0c0,0,0.1,0,0.2,0s0.1-0.1,0.1-0.2
		c0,0,0.1,0,0.1,0.1c0,0,0.1,0,0.2-0.1s0.2-0.1,0.2-0.1c0.1-0.1,0.2-0.3,0.5-0.4c0.3-0.2,0.5-0.3,0.5-0.5c0.1-0.1,0.2-0.1,0.2-0.2
		c0.1,0,0.1-0.1,0.2-0.2c0.1-0.1,0.1-0.2,0.1-0.2v-0.1c0,0,0-0.1,0.1-0.1v-0.3c0.1-0.1,0.1-0.1,0.2-0.1c0-0.1,0-0.2,0-0.4
		s0-0.3,0-0.4c0,0,0-0.1-0.1-0.1c0,0,0,0,0-0.1c0,0,0-0.1-0.1-0.2c0-0.1-0.1-0.1-0.2-0.1s-0.1-0.1-0.2-0.1c-0.1,0.1-0.1,0.1-0.2,0
		c0-0.1,0-0.1,0-0.1h-0.2c0,0,0,0,0-0.1v-0.1c0,0,0,0-0.1,0s-0.1,0-0.1,0s0,0-0.1-0.1c0,0,0-0.1-0.1-0.1c0,0-0.1,0-0.2,0
		s-0.2,0-0.3,0c-0.2-0.1-0.3-0.1-0.3,0v-0.1c0,0-0.1-0.1-0.4-0.1C25.8,42,25.7,42,25.6,42c-0.2-0.2-0.4-0.3-0.8-0.3l0,0l0,0v-0.1
		c-0.1,0-0.1,0-0.2-0.1s-0.1-0.1-0.2-0.1c0,0,0,0-0.1,0c0,0,0,0.1-0.1,0.1c0,0,0-0.1-0.1-0.1s-0.1,0-0.2,0c-0.1-0.1-0.1-0.1-0.3,0
		c-0.1-0.1-0.1-0.2-0.1-0.2c-0.2,0.1-0.3,0.1-0.3,0c-0.1-0.1-0.2-0.1-0.4,0c0-0.1-0.1-0.2-0.1-0.2c-0.2,0-0.3,0-0.4-0.1h-0.1h-0.1
		c0,0,0,0-0.1,0l0,0c0,0,0,0-0.1,0c0,0,0,0-0.1,0c0,0,0,0-0.1,0c-0.2-0.1-0.4-0.1-0.5,0v-0.1c0,0,0-0.1-0.1-0.1H21
		c0,0-0.1,0-0.1-0.1c0,0-0.1,0-0.1-0.1c0,0-0.1,0-0.2-0.1c-0.1,0-0.2-0.1-0.3-0.1c-0.1-0.1-0.1-0.1-0.1-0.1h-0.1H20
		c0-0.1,0-0.2,0-0.2h-0.1h-0.1l0,0c0,0,0,0,0-0.1l0,0c0,0,0,0,0-0.1h-0.1h-0.1v-0.1l0,0c-0.1-0.1-0.1-0.1-0.2-0.1
		c-0.1-0.1-0.1-0.1-0.2-0.2h-0.1H19c0-0.1-0.1-0.1-0.2-0.2c0-0.1-0.1-0.2-0.2-0.3s-0.2-0.2-0.2-0.3h-0.1l-0.1-0.1c0-0.1,0-0.1,0-0.1
		C18,38.1,18,37.9,18,37.7c-0.1,0-0.1,0-0.2-0.1s-0.1-0.1-0.1-0.1s0-0.1,0-0.2c-0.2-0.1-0.3-0.3-0.4-0.5c0,0,0,0,0-0.1s0-0.1,0-0.2
		c0,0,0-0.1-0.1-0.1c0,0-0.1,0-0.1-0.1v-0.1c0,0,0-0.1,0-0.2c0-0.1,0-0.2,0-0.2v-0.1c0-0.1,0-0.1,0-0.1s0-0.1,0.1-0.2
		c0-0.1,0-0.1,0-0.2c0-0.1,0-0.1,0-0.1c0.1-0.1,0.2-0.2,0.4-0.4c0,0,0.1,0,0.2,0c0,0,0,0,0-0.1v-0.1c0,0,0.1,0,0.3-0.1
		c0.2-0.1,0.3-0.1,0.3-0.2c0.1,0,0.1,0,0.2,0c0,0,0.1-0.1,0.1-0.2c0,0,0,0,0.1,0c0,0,0.1,0,0.1-0.1l0.1-0.1c0.1,0,0.1,0,0.2,0
		s0.2-0.1,0.2-0.3c0.2,0,0.3,0,0.3-0.1c0.1,0,0.2,0,0.3,0c0.1,0,0.2,0,0.2,0c0.1,0,0.1,0,0.2-0.1s0.1-0.1,0.2-0.1s0.1,0,0.2,0h0.1
		c0.1,0,0.1-0.1,0.1-0.1s0.1,0,0.2,0c0,0,0.1,0,0.1-0.1l0.1-0.1c0.1,0,0.1,0,0.1,0s0.1-0.1,0.2-0.2c0.1,0,0.2,0,0.2-0.1v0.1
		c0.1-0.1,0.2-0.1,0.4-0.1c0.2,0,0.3,0,0.4,0h0.1l0.1-0.1c0.1,0,0.1,0,0.1,0s0.1,0,0.1-0.1l0.1-0.1c0.1,0,0.3,0,0.6,0s0.6,0,0.7,0
		s0.1,0,0.2,0s0.2,0,0.2,0s0.1,0,0.2,0s0.1,0,0.2,0c0,0,0.1,0,0.2,0.1c0.3,0,0.4,0,0.5,0.1c0.1,0,0.2,0,0.3,0.1
		C26.7,32.9,26.8,33,26.9,33z M26.3,32.8c0.1,0,0.2,0,0.3,0.1c0.1,0.1,0.2,0.1,0.3,0.1c0,0,0,0.1,0,0.2c0.2,0.1,0.4,0.3,0.6,0.4h0.2
		c0,0.1,0.1,0.2,0.2,0.2c0,0.1,0,0.2,0.1,0.2s0.1,0,0.1,0c0,0.2,0,0.4,0,0.5c0.1,0.1,0.1,0.2,0.1,0.3s0,0.2,0,0.3s0,0.2,0,0.3
		C28,35.5,28,35.6,28,35.8c-0.1,0-0.1,0-0.2,0c-0.1,0.1-0.1,0.1-0.1,0.1h-0.1h-0.1c0,0,0,0-0.1,0.1h-0.1c0,0,0,0-0.1,0
		s-0.1,0.1-0.2,0.2c0,0-0.1,0-0.2-0.1c-0.1,0-0.1,0-0.1,0h-0.1c0-0.1,0-0.2-0.2-0.3h-0.1h-0.1l-0.1-0.1c-0.1,0-0.1,0-0.1,0
		s0,0-0.1,0v-0.1c-0.1-0.1-0.2-0.1-0.3-0.1c0,0-0.1,0-0.1,0.1c-0.1,0-0.2,0-0.3,0h-0.1H25h-0.1h-0.1c0,0-0.1,0-0.2-0.1
		c0,0-0.1,0-0.1,0.1c-0.1,0-0.1,0-0.1,0h-0.1c-0.1,0-0.1,0-0.1,0h-0.1H24h-0.1h-0.1h-0.1c-0.1,0-0.1,0-0.2,0c-0.3,0-0.5,0.1-0.5,0.1
		v0.1v0.1h-0.1l-0.1-0.1c0,0-0.1,0-0.2,0.1c0,0,0,0-0.1,0c0,0,0,0-0.1,0C22.3,36,22.2,36,22,36c-0.2,0-0.4,0.1-0.4,0.1v0.1
		c-0.1,0-0.1,0-0.1,0s0,0-0.1,0c0,0,0,0.1-0.1,0.1s-0.1,0-0.1,0s-0.1,0-0.2,0.1h-0.1c-0.1,0-0.1,0-0.2,0v0.1v0.1
		c0,0.1,0.1,0.2,0.1,0.2s0.1,0,0.2,0c0,0.1,0.1,0.1,0.2,0.2h0.1h0.1c0,0,0,0,0,0.1s0,0.1,0,0.1c0.1-0.1,0.2,0,0.3,0.1
		c0.1,0.1,0.2,0.1,0.2,0.1s0.1,0,0.2,0.1c0.1,0,0.2,0,0.2,0.1c0,0,0.1,0,0.1,0.1h0.1c0,0,0.1,0,0.1,0.1c0,0,0.1,0,0.1,0.1
		c0.3,0.1,0.5,0.1,0.5,0.2c0.1-0.1,0.2,0,0.3,0c0.1,0,0.1,0.1,0.1,0.1c0.1,0,0.1,0,0.2,0s0.2,0,0.2,0s0,0,0.1,0c0,0,0,0,0.1,0h0.1
		c0,0,0.1,0,0.1,0.1l0.1,0.1h0.1h0.1c0.2,0.1,0.3,0.2,0.4,0.2l0.1-0.1c0.1,0,0.1,0,0.2,0c0,0,0,0,0,0.1c0.1,0.1,0.2,0.1,0.2,0.1h0.1
		h0.1c0,0.1,0,0.2,0.1,0.2c0,0,0,0,0.1,0c0,0,0,0,0.1-0.1c0.2,0,0.3,0,0.3,0c0,0.1,0.1,0.1,0.2,0.2c0.1,0,0.2,0.1,0.2,0.1
		c0.2-0.1,0.4,0,0.5,0.1h0.1h0.1c0,0,0.1,0,0.1,0.1s0.1,0.1,0.1,0.1s0.1,0,0.1-0.1c0.1-0.1,0.1-0.1,0.2,0c0,0.1,0,0.2,0.1,0.2
		s0.2,0,0.2,0c0.1,0.1,0.1,0.1,0.1,0.1h0.1h0.1c0,0,0,0,0,0.1c0,0,0.1,0.1,0.2,0.1c0.1,0.1,0.2,0.1,0.3,0.2c0.1,0,0.1,0,0.2,0
		c0.1,0.1,0.1,0.1,0.2,0.1c0.1,0.2,0.1,0.3,0.2,0.3h0.1h0.1v0.1c0.1,0.1,0.2,0.2,0.3,0.3c0.2,0.2,0.3,0.3,0.4,0.3
		c0,0.1,0.1,0.1,0.1,0.2c0,0.1,0,0.1,0,0.2c0.1,0.1,0.2,0.3,0.3,0.5c0,0.1,0.1,0.1,0.1,0.2c0.1,0.1,0.1,0.2,0.1,0.2v0.1v0.1v0.1v0.1
		v0.1V43c0,0,0,0,0,0.1v0.1c0,0,0,0.1,0,0.3c0,0.1,0,0.3,0.1,0.3v0.1V44c0.1,0,0.1,0.1,0,0.3s-0.1,0.3-0.1,0.4v0.1
		c0,0.1,0,0.1-0.1,0.2c0.1,0,0.1,0,0,0c0,0.1,0,0.1-0.1,0.3v0.1c-0.2,0.2-0.3,0.3-0.2,0.4c-0.1,0.2-0.3,0.3-0.4,0.4
		c0,0.2-0.1,0.3-0.2,0.4c-0.1,0.1-0.2,0.2-0.3,0.3c0,0.1,0,0.1-0.1,0.2v0.1h-0.1c0,0-0.1,0-0.1-0.1c-0.1,0-0.1,0.1,0,0.2
		c0,0-0.2,0.1-0.4,0.2v0.1c-0.2,0.1-0.3,0.2-0.3,0.2c-0.1,0-0.1,0.1-0.2,0.2c-0.1,0-0.2,0.1-0.3,0.2c-0.1,0.1-0.2,0.1-0.3,0.2v0.1
		c0,0.1,0,0.1,0,0.1s-0.1,0-0.1-0.1c0,0,0-0.1-0.1-0.1s-0.1,0-0.2,0.1s-0.2,0.1-0.2,0.1c-0.1,0-0.1,0.1-0.1,0.1s-0.1,0-0.2,0
		s-0.1,0-0.2,0c-0.1,0.1-0.2,0.1-0.2,0c0,0.3-0.1,0.3-0.1,0.3c-0.1,0.1-0.1,0.2-0.2,0.2s-0.1,0-0.1,0c-0.1,0-0.1,0-0.1,0.1
		s-0.1,0.1-0.1,0.1c-0.1,0-0.2,0-0.3,0.1c-0.1,0-0.2,0.1-0.2,0.1c-0.1,0-0.1,0-0.2,0s-0.1,0-0.1,0c-0.1,0-0.1,0-0.2,0.1
		c-0.1,0-0.1,0.1-0.2,0.1h-0.1c-0.1,0-0.1,0-0.1,0s0,0-0.1,0.1c0,0-0.2,0-0.4,0c0,0-0.1,0-0.1-0.1c-0.2-0.1-0.3-0.1-0.4,0
		c-0.1,0-0.1,0-0.1,0c-0.1,0.1-0.1,0.1-0.1,0.1c-0.1-0.1-0.2-0.1-0.4-0.1c-0.1,0-0.2,0-0.2,0c-0.1-0.1-0.1-0.1-0.1-0.1s0,0-0.1,0.1
		c-0.1,0-0.1,0-0.1,0v-0.1v-0.1c-0.1,0-0.1,0-0.2,0s-0.2,0-0.2,0s-0.1,0-0.2-0.1c0,0-0.1,0-0.2,0v-0.2c0,0-0.1,0-0.2,0l0,0v-0.1
		c-0.1,0-0.1,0-0.2-0.1s-0.1-0.1-0.1-0.2c-0.1-0.1-0.2-0.1-0.2-0.2c0-0.1,0-0.1,0-0.1c-0.1-0.1-0.1-0.1-0.2-0.2
		c-0.1-0.1-0.2-0.1-0.2-0.1s0,0-0.1,0c0,0,0,0-0.1,0c0-0.1,0-0.2-0.1-0.3s-0.2-0.1-0.3-0.2v-0.1v-0.1c0,0-0.1,0-0.1-0.1
		S20,47.4,20,47.4c-0.1-0.1-0.2-0.1-0.2-0.2v-0.1V47v-0.1c0,0,0-0.1-0.1-0.1v-0.1v-0.1c0-0.1,0-0.1-0.1-0.2c0-0.1-0.1-0.1-0.1-0.1
		c0-0.1,0-0.1,0.1-0.2c0-0.1,0.1-0.1,0.1-0.2c0,0,0,0,0.1,0c0,0,0,0,0.1,0c0,0,0-0.1-0.1-0.4c0.1,0,0.1,0,0.2,0
		c0.1-0.1,0.1-0.1,0-0.2c0,0,0.1-0.1,0.1-0.2c0.1-0.1,0.1-0.2,0.1-0.2s0.1,0,0.1,0.1c0.1,0,0.1,0,0.1-0.1s0-0.1,0-0.1
		c0-0.1,0.1-0.1,0.2-0.1s0.1,0,0.1,0s0,0,0.1-0.1c0,0,0.1-0.1,0.1,0s0.1,0,0.1,0.1h0.1h0.1c0.1,0.1,0.2,0.2,0.2,0.2
		c0.1,0,0.1,0,0.1,0h0.1c0.1,0.1,0.1,0.1,0.2,0.1s0.1,0.1,0.1,0.2c0.1,0,0.1,0.1,0.1,0.1c0,0.1,0.1,0.1,0.1,0.2
		c0.1,0.1,0.1,0.2,0.1,0.2c0.1,0,0.2,0.1,0.3,0.3c0.1,0.1,0.2,0.3,0.3,0.3v0.1v0.1l0.2,0.2h0.1c0.1,0,0.1,0,0.1,0s0,0.1,0.1,0.1
		c0,0,0,0,0.1,0s0.1,0,0.3,0c0.1,0,0.2,0,0.3,0c0,0,0.1,0,0.1,0.1l0.1,0.1c0.1,0,0.2,0,0.2,0c0.1-0.1,0.1-0.1,0.1-0.1s0,0,0.1,0
		s0.1,0,0.1,0s0.1,0,0.1-0.1c0.1,0,0.1,0,0.2,0h0.1c0.1,0,0.1,0,0.1,0s0,0,0.1,0l0,0c0,0,0,0,0.1,0h0.1c0,0,0,0,0.1-0.1h0.1
		c0.1,0,0.1,0,0.1-0.1c0,0,0,0,0.1,0c0,0,0,0,0.1,0c0,0,0.1,0,0.2,0s0.1-0.1,0.1-0.2c0,0,0.1,0,0.1,0.1c0,0,0.1,0,0.2-0.1
		s0.2-0.1,0.2-0.1c0.1-0.1,0.2-0.3,0.5-0.4c0.3-0.2,0.5-0.3,0.5-0.5c0.1-0.1,0.2-0.1,0.2-0.2c0.1,0,0.1-0.1,0.2-0.2
		c0.1-0.1,0.1-0.2,0.1-0.2v-0.1c0,0,0-0.1,0.1-0.1v-0.3c0.1-0.1,0.1-0.1,0.2-0.1c0-0.1,0-0.2,0-0.4s0-0.3,0-0.4c0,0,0-0.1-0.1-0.1
		c0,0,0,0,0-0.1c0,0,0-0.1-0.1-0.2c0-0.1-0.1-0.1-0.2-0.1s-0.1-0.1-0.2-0.1c-0.1,0.1-0.1,0.1-0.2,0c0-0.1,0-0.1,0-0.1h-0.2
		c0,0,0,0,0-0.1v-0.1c0,0,0,0-0.1,0s-0.1,0-0.1,0s0,0-0.1-0.1c0,0,0-0.1-0.1-0.1c0,0-0.1,0-0.2,0s-0.2,0-0.3,0
		c-0.2-0.1-0.3-0.1-0.3,0v-0.1c0,0-0.1-0.1-0.4-0.1C25.8,42,25.7,42,25.6,42c-0.2-0.2-0.4-0.3-0.8-0.3l0,0l0,0v-0.1
		c-0.1,0-0.1,0-0.2-0.1s-0.1-0.1-0.2-0.1c0,0,0,0.1-0.1,0.1c0,0,0,0.1-0.1,0.1c0,0,0-0.1-0.1-0.1s-0.1-0.1-0.2-0.1
		c-0.1-0.1-0.1-0.1-0.3,0c-0.1-0.1-0.1-0.2-0.1-0.2c-0.2,0.1-0.3,0.1-0.3,0c-0.1-0.1-0.2-0.1-0.4,0c0-0.1-0.1-0.2-0.1-0.2
		c-0.2,0-0.3,0-0.4-0.1c0,0-0.1,0-0.2,0c0,0,0,0-0.1,0l0,0c0,0,0,0-0.1,0c0,0,0,0-0.1,0c0,0,0,0-0.1,0c-0.2-0.1-0.4-0.1-0.5,0v-0.1
		c0,0,0-0.1-0.1-0.1H21c0,0-0.1,0-0.1-0.1c0,0-0.1,0-0.1-0.1c0,0-0.1,0-0.2-0.1c-0.1,0-0.2-0.1-0.3-0.1c-0.1-0.1-0.1-0.1-0.1-0.1
		h-0.1H20c0-0.1,0-0.2,0-0.2h-0.1h-0.1l0,0c0,0,0,0,0-0.1l0,0c0,0,0,0,0-0.1h-0.1h-0.1v-0.1l0,0c-0.1-0.1-0.1-0.1-0.2-0.1
		c-0.1-0.1-0.1-0.1-0.2-0.2h-0.1H19c0-0.1-0.1-0.1-0.2-0.2c0-0.1-0.1-0.2-0.2-0.3s-0.2-0.2-0.2-0.3h-0.1l-0.1-0.1c0-0.1,0-0.1,0-0.1
		C18,38.1,18,37.9,18,37.7c-0.1,0-0.1,0-0.2-0.1s-0.1-0.1-0.1-0.1s0-0.1,0-0.2c-0.2-0.1-0.3-0.3-0.4-0.5c0,0,0,0,0-0.1s0-0.1,0-0.2
		c0,0,0-0.1-0.1-0.1c0,0-0.1,0-0.1-0.1v-0.1c0,0,0-0.1,0-0.2c0-0.1,0-0.2,0-0.2v-0.1c0-0.1,0-0.1,0-0.1s0-0.1,0.1-0.2
		c0-0.1,0-0.1,0-0.2c0-0.1,0-0.1,0-0.1c0.1-0.1,0.2-0.2,0.4-0.4c0,0,0.1,0,0.2,0c0,0,0,0,0-0.1v-0.1c0,0,0.1,0,0.3-0.1
		c0.2-0.1,0.3-0.1,0.3-0.2c0.1,0,0.1,0,0.2,0c0,0,0.1-0.1,0.1-0.2c0,0,0,0,0.1,0c0,0,0.1,0,0.1-0.1l0.1-0.1c0.1,0,0.1,0,0.2,0
		s0.2-0.1,0.2-0.3c0.2,0,0.3,0,0.3-0.1c0.1,0,0.2,0,0.3,0c0.1,0,0.2,0,0.2,0c0.1,0,0.1,0,0.2-0.1s0.1-0.1,0.2-0.1s0.1,0,0.2,0h0.1
		c0.1,0,0.1-0.1,0.1-0.1s0.1,0,0.2,0c0,0,0.1,0,0.1-0.1l0.1-0.1c0.1,0,0.1,0,0.1,0s0.1-0.1,0.2-0.2c0.1,0,0.2,0,0.2-0.1v0.1
		c0.1-0.1,0.2-0.1,0.4-0.1c0.2,0,0.3,0,0.4,0h0.1l0.1-0.1c0.1,0,0.1,0,0.1,0s0.1,0,0.1-0.1l0.1-0.1c0.1,0,0.3,0,0.6,0s0.6,0,0.7,0
		s0.1,0,0.2,0s0.2,0,0.2,0s0.1,0,0.2,0s0.1,0,0.2,0c0,0,0.1,0.1,0.2,0.1C26,32.7,26.2,32.7,26.3,32.8z"/>
	<path fill="#54813B" d="M43.3,24.6c0,0.1,0.1,0.2,0.2,0.2l0.1-0.1l0,0c0.1,0,0.1,0,0.1,0v0.1l0.1,0.1C44,25,44,25.1,44,25.1
		c0.1,0.1,0.1,0.2,0.2,0.3c0.1,0.1,0.2,0.1,0.3,0.1c0,0.1,0,0.1-0.1,0.2h-0.1c0,0.1,0,0.1,0.1,0.2c0,0.1,0,0.1,0.1,0.2
		c0,0.1,0.1,0.1,0.1,0.2v0.1c0,0.1,0,0.1,0,0.1v0.1l0.1,0.1v0.1v0.1c0,0,0,0.1,0.1,0.1c0,0,0,0.1,0.1,0.1c0,0.2,0.1,0.3,0.1,0.3
		c0.1,0.3,0.1,0.5,0.2,0.5c0,0.3,0,0.4,0.1,0.5c0,0.1,0,0.2,0,0.3c0.1,0.1,0.1,0.2,0,0.3v0.1c0,0,0,0.1,0,0.2s0,0.1,0,0.2h0.1h0.1
		c0,0.2,0,0.4,0,0.5s0,0.1,0,0.1l0,0l0,0c0,0,0,0,0,0.1v0.1v0.1v0.1c0,0.1,0,0.2,0.1,0.5c0.1,0.2,0.1,0.4,0,0.6
		c0.1,0.1,0.2,0.3,0.2,0.5c0,0.1,0,0.1,0,0.1s0,0,0,0.1c0,0,0,0.1,0.1,0.1c0,0,0,0.1,0,0.2c0,0.1,0,0.1,0,0.2v0.1L46,33
		c0,0,0,0.1,0,0.2c0,0.1,0,0.2,0,0.2c0,0.1,0,0.1,0.1,0.2c0.1,0.1,0.1,0.1,0,0.2l0.2,0.1c0,0.1,0,0.1-0.1,0.2c0,0.1,0,0.1,0,0.2
		c0,0.1,0,0.1,0,0.1s0,0,0,0.1c0,0,0,0,0,0.1l0,0c0.1,0.2,0.1,0.3,0,0.3c0.1,0.3,0.1,0.5,0.1,0.6h0.1c0,0,0,0.2,0,0.5v0.1
		c0,0,0,0.1,0.1,0.2c0,0,0,0.1,0,0.2c0,0.1,0,0.2,0,0.2s0,0.1,0.1,0.2c0,0.1,0.1,0.1,0.1,0.2c0,0.1,0,0.2,0,0.2v0.1v0.1
		c0,0.1,0.1,0.1,0.1,0.1c0.1,0.2,0.1,0.3,0.1,0.3c-0.1,0.1-0.1,0.2,0,0.2l0,0v0.1v0.1l0.1,0.1c0,0.1,0,0.1,0,0.2c0,0.1,0,0.1,0,0.3
		c0,0.1,0,0.2,0,0.3c0,0,0,0.1,0.1,0.1l0.1,0.1c0.1,0.2,0.1,0.4,0.1,0.4s0.1,0.1,0.2,0.1c0.1,0,0.2,0.1,0.2,0.1v0.1l0.1,0.1
		c0.1,0,0.1,0,0.2,0.1c0,0.1,0,0.2,0.1,0.3s0.1,0.2,0.1,0.3c0.1,0.1,0.1,0.1,0.1,0.1c-0.1,0.1-0.1,0.2-0.2,0.2c0,0,0,0.1-0.1,0.2
		c0,0.1,0,0.2-0.1,0.3c-0.1,0-0.1,0.1-0.1,0.1c0,0.1,0,0.1,0,0.2c0,0.1,0,0.1,0,0.1s0,0,0,0.1v0.1c0,0,0,0.1,0.1,0.1l0.1,0.1
		c0,0.1,0,0.1,0,0.2c0,0.1,0,0.2,0.1,0.2c0,0.4,0.1,0.7,0.3,0.8c-0.1,0.3,0,0.5,0.1,0.6c0,0.1,0,0.2,0.1,0.2h0.1v0.1
		c0,0.1,0,0.1,0,0.1c0,0.1,0,0.1,0,0.1l0.1,0.1c0,0.1,0,0.2,0.1,0.3s0.1,0.2,0.1,0.2s0.1,0.1,0.1,0.3c0,0.1,0.1,0.2,0.2,0.3
		c0,0.2,0.1,0.2,0.2,0.2c0,0,0,0.1,0.1,0.1c0,0.1,0.1,0.1,0.1,0.2c0.1,0.1,0.2,0.2,0.2,0.3l0.1,0.1l0.1,0.1v0.1c0,0.1,0,0.1,0,0.1
		c0,0.1,0,0.2,0,0.3s0,0.3,0,0.3c0.1,0.1,0.1,0.2,0,0.4c-0.1,0-0.2,0.1-0.2,0.2c-0.1,0-0.2,0.1-0.3,0.2c-0.1,0.1-0.2,0.2-0.3,0.2
		v0.1V49h-0.4c0-0.1-0.1-0.2-0.2-0.3c-0.1-0.1-0.2-0.1-0.2-0.2c-0.2,0-0.3,0-0.4-0.1v0.1v0.1c-0.1,0-0.1,0-0.1-0.1s0-0.1,0-0.1
		c0-0.1-0.1-0.1-0.2-0.1c-0.2-0.2-0.4-0.4-0.6-0.4c0-0.2-0.1-0.4-0.3-0.4c0-0.1,0-0.1,0-0.2l0,0c0-0.1-0.1-0.1-0.1-0.3
		c-0.1-0.1-0.1-0.2-0.1-0.2c-0.1,0-0.1,0-0.1,0c0.1-0.2,0-0.3-0.1-0.4c0-0.1,0-0.2-0.1-0.3h-0.1l0,0V46c0-0.1,0-0.1,0-0.1
		s0-0.1-0.1-0.1c0-0.1,0-0.1,0-0.2H46l0.1-0.2c0-0.1,0-0.2-0.1-0.2c0-0.2-0.1-0.4-0.2-0.4v-0.1c0-0.1,0-0.1,0-0.1v-0.1v-0.1
		c0,0,0-0.1-0.1-0.2c0-0.1-0.1-0.2-0.1-0.2c-0.1-0.3-0.1-0.4-0.2-0.5v-0.1c0-0.1,0-0.1,0-0.1s0-0.1-0.1-0.1l-0.1-0.1V43
		c0-0.1,0-0.1,0-0.1s0,0,0-0.1c0,0,0,0,0-0.1c-0.1-0.1-0.1-0.2-0.1-0.2s-0.1,0-0.2,0c-0.1,0-0.1,0-0.2,0c-0.1,0-0.2,0.1-0.2,0.1l0,0
		l0,0h-0.1h-0.1c-0.1,0-0.1,0-0.1,0.1c0,0-0.1,0-0.1-0.1c-0.1,0-0.1,0-0.2,0.1c-0.1,0-0.1,0.1-0.1,0.1c-0.1-0.1-0.1-0.1-0.2-0.1
		C44,42.8,44,42.8,44,43c-0.2,0-0.3,0-0.3,0c-0.1-0.1-0.1-0.1-0.2-0.1c0,0-0.1,0-0.1,0.1c0,0-0.1,0-0.2-0.1c-0.1,0-0.2,0-0.3,0.2
		c-0.1,0-0.2,0-0.2,0C42.6,43,42.4,43,42.3,43c-0.2,0-0.3,0.1-0.3,0.1c-0.5,0-0.7,0-0.8,0s-0.2,0-0.4,0s-0.3,0-0.4,0
		c0,0.1,0,0.1,0,0.2c-0.1,0-0.1,0-0.3-0.2c0,0-0.1,0-0.1,0.1c0,0-0.1,0-0.3,0c-0.1,0-0.2,0-0.3,0c0,0-0.1,0-0.1-0.1h-0.1
		c-0.1,0-0.1,0-0.2,0.1c-0.1-0.1-0.2-0.1-0.2-0.1s-0.1,0-0.1,0.1s-0.1,0.1-0.1,0.1c-0.1-0.1-0.1-0.2-0.1-0.2s-0.1,0-0.2,0.1
		c-0.1,0.1-0.1,0.1-0.1,0.1s-0.1,0.1-0.2,0.2c0,0.1,0,0.2-0.1,0.3v0.1L37.8,44l-0.1,0.1c0,0.1,0,0.1-0.1,0.2c0,0.1-0.1,0.2-0.1,0.3
		l0,0l0,0V45c0,0,0,0.1-0.1,0.2c0,0.1-0.1,0.2-0.2,0.4c0.1,0.1,0,0.1,0,0.2c-0.1,0.1-0.1,0.1-0.1,0.1s0,0,0,0.1v0.1c0,0,0,0-0.1,0.1
		c-0.1,0-0.1,0-0.1,0.1c0,0.2-0.1,0.4-0.2,0.5c0,0.1,0,0.2,0,0.3h-0.2c-0.1,0.3-0.1,0.4-0.2,0.4c0,0.1,0,0.1,0.1,0.2
		c0,0,0,0.1-0.1,0.1c0,0,0,0.1-0.1,0.2c-0.1,0-0.1,0.1-0.2,0.3c0,0,0,0.1-0.1,0.1s0,0.1,0,0.1s0,0,0,0.1v0.1
		c-0.1,0.2-0.2,0.3-0.2,0.4l-0.1,0.1c0,0.1,0,0.1-0.1,0.2v0.1v0.1c0,0,0,0.1-0.1,0.1c0,0,0,0-0.1,0c0,0,0,0-0.1,0
		c0,0-0.1,0.1-0.1,0.2c-0.1,0-0.1,0-0.1,0.1s-0.1,0.1-0.1,0.1s-0.1,0-0.1-0.1l-0.1-0.1c-0.1,0-0.1,0-0.1,0h-0.1c0-0.1,0-0.2,0-0.2
		c-0.2,0-0.4,0-0.4,0c0-0.1,0-0.2-0.1-0.2h-0.1h-0.1c0,0,0,0,0-0.1s0-0.1,0-0.1c-0.1,0-0.1,0-0.1,0c0,0.1,0,0.1-0.1,0.1
		c0-0.1,0-0.1-0.1-0.2c-0.1-0.1-0.1-0.1-0.1-0.2c-0.1,0-0.1,0-0.1,0c0-0.1,0-0.2,0-0.2h-0.1c0-0.1,0-0.3,0-0.4l0,0l0,0
		c0.1-0.1,0.1-0.3,0.1-0.5c-0.1-0.1-0.1-0.2-0.1-0.2h0.1l0,0c0,0,0-0.1,0-0.2h0.1c0,0,0-0.1,0-0.2c0-0.1,0-0.1,0-0.1l0.1-0.1
		c0-0.1,0.1-0.2,0.2-0.3c0-0.1,0-0.1,0-0.1l-0.1-0.1c0.1,0,0.2-0.1,0.2-0.2c0,0,0.1,0,0.1-0.1s0-0.2,0-0.2c0-0.1,0-0.1,0-0.1v-0.1
		c0-0.1,0-0.1,0-0.1s0-0.1,0.1-0.1c0-0.1,0.1-0.2,0.2-0.3c0.1-0.1,0.1-0.2,0.1-0.3c0.1-0.2,0.1-0.3,0.2-0.3c0-0.1,0-0.3,0.1-0.5
		s0.1-0.3,0.1-0.4c0.1,0,0.1,0,0.2-0.1c0.1-0.1,0.1-0.1,0.1-0.1c0-0.1,0-0.2,0.1-0.3s0.1-0.2,0.1-0.3c-0.1-0.1-0.1-0.1,0-0.2h0.1
		c0.1-0.1,0.1-0.2,0-0.3c-0.1,0-0.2,0-0.2,0c0-0.2-0.2-0.4-0.4-0.6c0,0,0,0,0.1-0.1c0,0,0.1,0,0.1-0.1s0-0.1-0.1-0.2
		c-0.1-0.1-0.1-0.1-0.1-0.1s0.1-0.1,0.2-0.4c0-0.1,0.1-0.2,0.2-0.3c0.1-0.1,0.2-0.1,0.2-0.2l0.5-0.1c0.1,0,0.2,0,0.3,0
		s0.2,0,0.2-0.1v-0.1c0-0.1,0-0.1,0-0.1s0.1,0,0.1-0.1s0-0.1,0-0.1v-0.1l0.1-0.1v-0.1c0-0.2,0.1-0.3,0.2-0.4c0.1-0.2,0.1-0.4,0-0.5
		c0.1,0,0.1-0.1,0.2-0.2c0.1-0.1,0.1-0.2,0.1-0.2c0-0.1,0-0.2,0.1-0.3s0.1-0.2,0-0.3c0-0.1,0.1-0.1,0.1-0.2c0-0.1,0.1-0.2,0.1-0.2
		c0-0.1,0-0.2,0.1-0.3c0,0,0-0.1,0.1-0.2c0,0,0,0,0-0.1c0,0,0,0,0-0.1c0.1-0.1,0.1-0.1,0.1-0.2v-0.1v-0.1c0,0,0,0,0.1-0.1
		c0.1-0.2,0.1-0.3,0.2-0.4v-0.2c0,0,0,0,0.1-0.1c0,0,0.1,0,0.1-0.1v-0.1c0-0.1,0-0.1,0-0.1c0.1-0.2,0.1-0.3,0.1-0.4l0.1-0.1l0.1-0.1
		v-0.1c0-0.1,0-0.1,0-0.1s0-0.1,0.1-0.1l0.1-0.1v-0.1c0-0.1,0-0.1,0-0.2c0.1,0,0.1-0.1,0.1-0.1c0.1-0.2,0.1-0.4,0.1-0.4
		c0-0.1,0-0.2,0.1-0.3s0.1-0.3,0.1-0.4c0.1,0,0.1-0.1,0.1-0.3s0.1-0.3,0.1-0.3c0-0.1,0-0.1,0.1-0.2c0-0.1,0-0.1,0.1-0.1v-0.1v-0.1
		c0,0,0.1,0,0.1-0.1c0.1,0,0.1-0.1,0.1-0.1s0-0.1,0-0.2s0-0.1,0-0.2c0,0,0,0-0.1,0h-0.1c0-0.1,0-0.1,0-0.2c0.1,0,0.2,0,0.2,0v-0.1
		v-0.1v-0.1l0.1-0.1c0-0.1,0-0.1,0-0.2s0-0.1,0-0.1c0-0.1,0-0.1,0.1-0.3c0.1-0.1,0.1-0.2,0.1-0.3c0.1-0.1,0.1-0.1,0.1-0.3
		s0-0.2,0.1-0.2v-0.1l0.1-0.1c0-0.1,0.1-0.1,0.1-0.1c0-0.1,0-0.2,0-0.3c0.1-0.1,0.1-0.2,0.1-0.2v-0.1V28c0,0,0-0.1,0.1-0.2
		c0-0.1,0-0.1,0.1-0.2s0.1-0.1,0.1-0.2v-0.1c0-0.1,0-0.1,0-0.2c0.1-0.2,0.1-0.4,0.1-0.5h0.1c0-0.2,0.1-0.3,0.2-0.5
		c0-0.1,0-0.2,0.1-0.2c0,0,0,0-0.1-0.1c0,0,0,0,0-0.1H41c-0.1-0.1-0.1-0.1,0-0.2c0.1,0,0.1,0,0.1,0c0-0.1,0-0.1,0-0.2
		c-0.1-0.2-0.1-0.2,0-0.2s0.1,0,0.1-0.1c0,0,0,0,0.1,0.1c0,0,0,0,0.1,0c0-0.1,0.1-0.1,0.1-0.3c0-0.1,0-0.1,0-0.1s0,0,0.1,0
		c0,0,0,0,0.1,0c0.3-0.2,0.5-0.2,0.7-0.1c0.1,0.1,0.1,0.1,0.2,0.1c0,0,0.1,0,0.1-0.1C43.1,24.5,43.2,24.5,43.3,24.6z M43.3,24.6
		c0,0.1,0.1,0.2,0.2,0.2l0.1-0.1l0,0c0.1,0,0.1,0,0.1,0v0.1l0.1,0.1C44,25,44,25.1,44,25.1c0.1,0.1,0.1,0.2,0.2,0.3
		c0.1,0.1,0.2,0.1,0.3,0.1c0,0.1,0,0.1-0.1,0.2h-0.1c0,0.1,0,0.1,0.1,0.2c0,0.1,0,0.1,0.1,0.2c0,0.1,0.1,0.1,0.1,0.2v0.1
		c0,0.1,0,0.1,0,0.1v0.1l0.1,0.1v0.1v0.1c0,0,0,0.1,0.1,0.1c0,0,0,0.1,0.1,0.1c0,0.2,0.1,0.3,0.1,0.3c0.1,0.3,0.1,0.5,0.2,0.5
		c0,0.3,0,0.4,0.1,0.5c0,0.1,0,0.2,0,0.3c0.1,0.1,0.1,0.2,0,0.3v0.1c0,0,0,0.1,0,0.2s0,0.1,0,0.2h0.1h0.1c0,0.2,0,0.4,0,0.5
		s0,0.1,0,0.1l0,0l0,0c0,0,0,0,0,0.1v0.1c0,0,0,0.1,0,0.2s0,0.3,0.1,0.5s0.1,0.4,0,0.6c0.1,0.1,0.2,0.3,0.2,0.5c0,0.1,0,0.1,0,0.1
		s0,0,0,0.1c0,0,0,0.1,0.1,0.1c0,0,0,0.1,0,0.2c0,0.1,0,0.1,0,0.2v0.1L46,33c0,0,0,0.1,0,0.2c0,0.1,0,0.2,0,0.2c0,0.1,0,0.1,0.1,0.2
		c0.1,0.1,0.1,0.1,0,0.2l0.2,0.1c0,0.1,0,0.1-0.1,0.2c0,0.1,0,0.1,0,0.2c0,0.1,0,0.1,0,0.1s0,0,0,0.1c0,0,0,0,0,0.1l0,0
		c0.1,0.2,0.1,0.3,0,0.3c0.1,0.3,0.1,0.5,0.1,0.6h0.1c0,0,0,0.2,0,0.5v0.1c0,0,0,0.1,0.1,0.2c0,0,0,0.1,0,0.2c0,0.1,0,0.2,0,0.2
		s0,0.1,0.1,0.2c0,0.1,0.1,0.1,0.1,0.2c0,0.1,0,0.2,0,0.2v0.1v0.1c0,0.1,0.1,0.1,0.1,0.1c0.1,0.2,0.1,0.3,0.1,0.3
		c-0.1,0.1-0.1,0.2,0,0.2l0,0v0.1v0.1l0.1,0.1c0,0.1,0,0.1,0,0.2c0,0.1,0,0.1,0,0.3c0,0.1,0,0.2,0,0.3c0,0,0,0.1,0.1,0.1l0.1,0.1
		c0.1,0.2,0.1,0.4,0.1,0.4s0.1,0.1,0.2,0.1c0.1,0,0.2,0.1,0.2,0.1v0.1l0.1,0.1c0.1,0,0.1,0,0.2,0.1c0,0.1,0,0.2,0.1,0.3
		s0.1,0.2,0.1,0.3c0.1,0.1,0.1,0.1,0.1,0.1c-0.1,0.1-0.1,0.2-0.2,0.2c0,0,0,0.1-0.1,0.2c0,0.1,0,0.2-0.1,0.3c-0.1,0-0.1,0.1-0.1,0.1
		c0,0.1,0,0.1,0,0.2c0,0.1,0,0.1,0,0.1s0,0,0,0.1v0.1c0,0,0,0.1,0.1,0.1l0.1,0.1c0,0.1,0,0.1,0,0.2c0,0.1,0,0.2,0.1,0.2
		c0,0.4,0.1,0.7,0.3,0.8c-0.1,0.3,0,0.5,0.1,0.6c0,0.1,0,0.2,0.1,0.2h0.1l0,0v0.1c0,0.1,0,0.1,0,0.1c0,0.1,0,0.1,0,0.1l0.1,0.1
		c0,0.1,0,0.2,0.1,0.3s0.1,0.2,0.1,0.2s0.1,0.1,0.1,0.3c0,0.1,0.1,0.2,0.2,0.3c0,0.2,0.1,0.2,0.2,0.2c0,0,0,0.1,0.1,0.1
		c0,0.1,0.1,0.1,0.1,0.2c0.1,0.1,0.2,0.2,0.2,0.3l0.1,0.1l0.1,0.1v0.1c0,0.1,0,0.1,0,0.1c0,0.1,0,0.2,0,0.3s0,0.3,0,0.3
		c0.1,0.1,0.1,0.2,0,0.4c-0.1,0-0.2,0.1-0.2,0.2c-0.1,0-0.2,0.1-0.3,0.2c-0.1,0.1-0.2,0.2-0.3,0.2v0.1V49h-0.4
		c0-0.1-0.1-0.2-0.2-0.3c-0.1-0.1-0.2-0.1-0.2-0.2c-0.2,0-0.3,0-0.4-0.1v0.1v0.1c-0.1,0-0.1,0-0.1-0.1s0-0.1,0-0.1
		c0-0.1-0.1-0.1-0.2-0.1c-0.2-0.2-0.4-0.4-0.6-0.4c0-0.2-0.1-0.4-0.3-0.4c0-0.1,0-0.1,0-0.2l0,0c0-0.1-0.1-0.1-0.1-0.3
		c-0.1-0.1-0.1-0.2-0.1-0.2c-0.1,0-0.1,0-0.1,0c0.1-0.2,0-0.3-0.1-0.4c0-0.1,0-0.2-0.1-0.3h-0.1l0,0V46c0-0.1,0-0.1,0-0.1
		s0-0.1-0.1-0.1c0-0.1,0-0.1,0-0.2H46l0.1-0.2c0-0.1,0-0.2-0.1-0.2c0-0.2-0.1-0.4-0.2-0.4v-0.1c0-0.1,0-0.1,0-0.1v-0.1v-0.1
		c0,0,0-0.1-0.1-0.2c0-0.1-0.1-0.2-0.1-0.2c-0.1-0.3-0.1-0.4-0.2-0.5v-0.1c0-0.1,0-0.1,0-0.1s0-0.1-0.1-0.1l-0.1-0.1V43
		c0-0.1,0-0.1,0-0.1s0,0,0-0.1c0,0,0,0,0-0.1c-0.1-0.1-0.1-0.2-0.1-0.2s-0.1,0-0.2,0c-0.1,0-0.1,0-0.2,0c-0.1,0-0.2,0.1-0.2,0.1l0,0
		l0,0h-0.1h-0.1c-0.1,0-0.1,0-0.1,0.1c0,0-0.1,0-0.1-0.1c-0.1,0-0.1,0-0.2,0.1c-0.1,0-0.1,0.1-0.1,0.1c-0.1-0.1-0.1-0.1-0.2-0.1
		C44,42.8,44,42.8,44,43c-0.2,0-0.3,0-0.3,0c-0.1-0.1-0.1-0.1-0.2-0.1c0,0-0.1,0-0.1,0.1c0,0-0.1,0-0.2-0.1c-0.1,0-0.2,0-0.3,0.2
		c-0.1,0-0.2,0-0.2,0C42.6,43,42.4,43,42.3,43c-0.2,0-0.3,0.1-0.3,0.1c-0.5,0-0.7,0-0.8,0s-0.2,0-0.4,0s-0.3,0-0.4,0
		c0,0.1,0,0.1,0,0.2c-0.1,0-0.1,0-0.3-0.2c0,0-0.1,0-0.1,0.1c0,0-0.1,0-0.3,0c-0.1,0-0.2,0-0.3,0c0,0-0.1,0-0.1-0.1h-0.1
		c-0.1,0-0.1,0-0.2,0.1c-0.1-0.1-0.2-0.1-0.2-0.1s-0.1,0-0.1,0.1s-0.1,0.1-0.1,0.1c-0.1-0.1-0.1-0.2-0.1-0.2s-0.1,0-0.2,0.1
		c-0.1,0.1-0.1,0.1-0.1,0.1s-0.1,0.1-0.2,0.2c0,0.1,0,0.2-0.1,0.3v0.1L37.8,44l-0.1,0.1c0,0.1,0,0.1-0.1,0.2c0,0.1-0.1,0.2-0.1,0.3
		l0,0l0,0V45c0,0,0,0.1-0.1,0.2c0,0.1-0.1,0.2-0.2,0.4c0.1,0.1,0,0.1,0,0.2c-0.1,0.1-0.1,0.1-0.1,0.1s0,0,0,0.1v0.1c0,0,0,0-0.1,0.1
		c-0.1,0-0.1,0-0.1,0.1c0,0.2-0.1,0.4-0.2,0.5c0,0.1,0,0.2,0,0.3h-0.2c-0.1,0.3-0.1,0.4-0.2,0.4c0,0.1,0,0.1,0.1,0.2
		c0,0,0,0.1-0.1,0.1c0,0,0,0.1-0.1,0.2c-0.1,0-0.1,0.1-0.2,0.3c0,0,0,0.1-0.1,0.1s0,0.1,0,0.1s0,0,0,0.1v0.1
		c-0.1,0.2-0.2,0.3-0.2,0.4l-0.1,0.1c0,0.1,0,0.1-0.1,0.2v0.1v0.1c0,0,0,0.1-0.1,0.1c0,0,0,0-0.1,0c0,0,0,0-0.1,0
		c0,0-0.1,0.1-0.1,0.2c-0.1,0-0.1,0-0.1,0.1s-0.1,0.1-0.1,0.1s-0.1,0-0.1-0.1l-0.1-0.1c-0.1,0-0.1,0-0.1,0h-0.1c0-0.1,0-0.2,0-0.2
		c-0.2,0-0.4,0-0.4,0c0-0.1,0-0.2-0.1-0.2h-0.1h-0.1c0,0,0,0,0-0.1s0-0.1,0-0.1c-0.1,0-0.1,0-0.1,0c0,0.1,0,0.1-0.1,0.1
		c0-0.1,0-0.1-0.1-0.2c-0.1-0.1-0.1-0.1-0.1-0.2c-0.1,0-0.1,0-0.1,0c0-0.1,0-0.2,0-0.2h-0.1c0-0.1,0-0.3,0-0.4l0,0l0,0
		c0.1-0.1,0.1-0.3,0.1-0.5c-0.1-0.1-0.1-0.2-0.1-0.2h0.1l0,0c0,0,0-0.1,0-0.2h0.1c0,0,0-0.1,0-0.2c0-0.1,0-0.1,0-0.1l0.1-0.1
		c0-0.1,0.1-0.2,0.2-0.3c0-0.1,0-0.1,0-0.1l-0.1-0.1c0.1,0,0.2-0.1,0.2-0.2c0,0,0.1,0,0.1-0.1s0-0.2,0-0.2c0-0.1,0-0.1,0-0.1v-0.1
		c0-0.1,0-0.1,0-0.1s0-0.1,0.1-0.1c0-0.1,0.1-0.2,0.2-0.3c0.1-0.1,0.1-0.2,0.1-0.3c0.1-0.2,0.1-0.3,0.2-0.3c0-0.1,0-0.3,0.1-0.5
		s0.1-0.3,0.1-0.4c0.1,0,0.1,0,0.2-0.1c0.1-0.1,0.1-0.1,0.1-0.1c0-0.1,0-0.2,0.1-0.3s0.1-0.2,0.1-0.3c-0.1-0.1-0.1-0.1,0-0.2h0.1
		c0.1-0.1,0.1-0.2,0-0.3c-0.1,0-0.2,0-0.2,0c0-0.2-0.2-0.4-0.4-0.6c0,0,0,0,0.1-0.1c0,0,0.1,0,0.1-0.1s0-0.1-0.1-0.2
		c-0.1-0.1-0.1-0.1-0.1-0.1s0.1-0.1,0.2-0.4c0-0.1,0.1-0.2,0.2-0.3c0.1-0.1,0.2-0.1,0.2-0.2l0.5-0.1c0.1,0,0.2,0,0.3,0
		s0.2,0,0.2-0.1v-0.1c0-0.1,0-0.1,0-0.1s0.1,0,0.1-0.1s0-0.1,0-0.1v-0.1l0.1-0.1v-0.1c0-0.2,0.1-0.3,0.2-0.4c0.1-0.2,0.1-0.4,0-0.5
		c0.1,0,0.1-0.1,0.2-0.2c0.1-0.1,0.1-0.2,0.1-0.2c0-0.1,0-0.2,0.1-0.3s0.1-0.2,0-0.3c0-0.1,0.1-0.1,0.1-0.2c0.1-0.1,0.1-0.2,0.1-0.2
		c0-0.1,0-0.2,0.1-0.3c0,0,0-0.1,0.1-0.2c0,0,0,0,0-0.1c0,0,0,0,0-0.1c0.1-0.1,0.1-0.1,0.1-0.2v-0.1v-0.1c0,0,0,0,0.1-0.1
		c0.1-0.2,0.1-0.3,0.2-0.4v-0.2c0,0,0,0,0.1-0.1c0,0,0.1,0,0.1-0.1v-0.1c0-0.1,0-0.1,0-0.1c0.1-0.2,0.1-0.3,0.1-0.4l0.1-0.1l0.1-0.1
		v-0.1c0-0.1,0-0.1,0-0.1s0-0.1,0.1-0.1l0.1-0.1v-0.1c0-0.1,0-0.1,0-0.2c0.1,0,0.1-0.1,0.1-0.1c0.1-0.2,0.1-0.4,0.1-0.4
		c0-0.1,0-0.2,0.1-0.3s0.1-0.3,0.1-0.4c0.1,0,0.1-0.1,0.1-0.3s0.1-0.3,0.1-0.3c0-0.1,0-0.1,0.1-0.2c0-0.1,0-0.1,0.1-0.1v-0.1v-0.1
		c0,0,0.1,0,0.1-0.1c0.1,0,0.1-0.1,0.1-0.1s0-0.1,0-0.2s0-0.1,0-0.2c0,0,0,0-0.1,0h-0.1c0-0.1,0-0.1,0-0.2c0.1,0,0.2,0,0.2,0v-0.1
		v-0.1v-0.1l0.1-0.1c0-0.1,0-0.1,0-0.2s0-0.1,0-0.1c0-0.1,0-0.1,0.1-0.3c0.1-0.1,0.1-0.2,0.1-0.3c0.1-0.1,0.1-0.1,0.1-0.3
		s0-0.2,0.1-0.2v-0.1l0.1-0.1c0-0.1,0.1-0.1,0.1-0.1c0-0.1,0-0.2,0-0.3c0.1-0.1,0.1-0.2,0.1-0.2v-0.1V28c0,0,0-0.1,0.1-0.2
		c0-0.1,0-0.1,0.1-0.2s0.1-0.1,0.1-0.2v-0.1c0-0.1,0-0.1,0-0.2c0.1-0.2,0.1-0.4,0.1-0.5h0.1c0-0.2,0.1-0.3,0.2-0.5
		c0-0.1,0-0.2,0.1-0.2c0,0,0,0-0.1-0.1c0,0,0,0,0-0.1H41c-0.1-0.1-0.1-0.1,0-0.2c0.1,0,0.1,0,0.1,0c0-0.1,0-0.1,0-0.2
		c-0.1-0.2-0.1-0.2,0-0.2s0.1,0,0.1-0.1c0,0,0,0,0.1,0.1c0,0,0,0,0.1,0c0-0.1,0.1-0.1,0.1-0.3c0-0.1,0-0.1,0-0.1s0,0,0.1,0
		c0,0,0,0,0.1,0c0.3-0.2,0.5-0.2,0.7-0.1c0.1,0.1,0.1,0.1,0.2,0.1c0,0,0.1,0,0.1-0.1C43.1,24.5,43.2,24.5,43.3,24.6z M35.5,42.7
		C35.5,42.7,35.5,42.8,35.5,42.7C35.5,42.8,35.5,42.8,35.5,42.7z M35.5,42.8L35.5,42.8C35.5,42.7,35.5,42.8,35.5,42.8z M42.8,30
		c0,0.1,0,0.1-0.1,0.1s-0.1,0.1-0.1,0.1v0.1c0,0.1,0,0.1,0,0.2c-0.1,0.1-0.1,0.1-0.1,0.1s0,0,0,0.1v0.1c0,0,0,0.1-0.1,0.1L42.3,31
		c0,0,0,0.1,0,0.2s0,0.2-0.1,0.2v0.1c-0.1,0.1-0.1,0.2-0.1,0.4c0,0.1-0.1,0.2-0.1,0.2v0.1c0,0,0,0.1-0.1,0.2
		c-0.1,0.1-0.1,0.1-0.1,0.1s0,0,0,0.1s0,0.1,0,0.1s0,0.1-0.1,0.1l-0.1,0.1c0,0,0,0.1,0,0.2c0,0.1,0,0.1,0,0.2l-0.1,0.3
		c0,0,0,0.1,0,0.2v0.1l-0.1,0.3c-0.1,0-0.1,0.1-0.1,0.2c0,0.1-0.1,0.2-0.1,0.3s0,0.1,0,0.1c-0.1,0.2-0.1,0.3-0.1,0.4
		c0,0-0.1,0.1-0.1,0.2c0,0.1-0.1,0.2-0.1,0.2l-0.1,0.3V36c0,0,0,0,0,0.1c0,0,0,0,0,0.1c0,0,0,0,0,0.1c0,0,0,0,0,0.1v0.1v0.1
		c-0.1,0.2-0.1,0.3-0.1,0.4c0,0.1,0,0.1-0.1,0.2c-0.1,0.1-0.1,0.1-0.1,0.2v0.1v0.1c0,0,0,0.1,0,0.2c0,0.1,0,0.1,0,0.2
		c0,0-0.1,0-0.1,0.1l-0.1,0.1c0,0,0,0.1,0,0.2c0,0.1,0,0.2,0,0.2s-0.1,0.1-0.1,0.2c-0.1,0.1-0.1,0.2-0.1,0.4c-0.1,0-0.1,0.1-0.1,0.2
		c0,0.1-0.1,0.2-0.1,0.2c0,0.3,0,0.5-0.1,0.5c0,0.1,0,0.2-0.1,0.2l-0.1,0.1v0.1v0.1v0.1c0,0.1,0.1,0.1,0.4,0c0,0,0,0,0.1,0
		s0.1,0,0.2,0c0,0,0,0,0.1,0c0,0,0,0,0.1,0h0.1h0.1h0.1c0.4,0,0.6,0,0.7-0.1c0.1,0.1,0.3,0.1,0.5,0h0.1l0.1-0.1h0.1h0.1
		c0.2,0,0.4,0,0.4,0h0.1H43c0.1,0.1,0.2,0.1,0.4,0.1l0.1-0.1c0.1,0,0.2,0,0.4,0s0.3,0,0.4,0c0.1-0.1,0.1-0.1,0.1-0.1
		c0.1,0,0.1,0,0.1,0l0.1-0.1h0.1c0.1,0,0.1,0,0.1,0s0.1,0,0.2-0.1c0.1-0.1,0.1-0.1,0.1-0.1V40c0-0.1,0-0.1,0-0.1s0,0,0-0.1v-0.1
		c0,0,0,0,0-0.1v-0.1C45,39.2,45,39,45,38.8h-0.1v-0.1c0-0.1,0-0.1,0-0.3c0,0,0,0,0-0.1s0-0.1,0-0.1s0,0,0-0.1V38v-0.1
		c0-0.1,0-0.1-0.1-0.2c0-0.1-0.1-0.1-0.1-0.2v-0.1c0-0.1,0-0.1,0-0.1s-0.1,0-0.1-0.1s-0.1-0.2-0.1-0.3c-0.1,0-0.1-0.1-0.1-0.2
		c0-0.1,0-0.2,0-0.3s0-0.2-0.1-0.3c0-0.1-0.1-0.2-0.1-0.3v-0.3v-0.1v-0.1v-0.1v-0.1c0,0,0-0.1,0-0.2c0-0.1,0-0.1,0-0.2v-0.1
		c0-0.1,0-0.2,0-0.2S44.1,34.3,44,34c-0.1-0.1-0.1-0.1-0.1-0.1v-0.1c0,0,0-0.1-0.1-0.1l-0.1-0.1v-0.1v-0.1c0-0.1,0-0.2,0-0.2
		s0-0.1-0.1-0.1c-0.1-0.1-0.1-0.1-0.1-0.2v-0.1v-0.1c0,0,0-0.1-0.1-0.1v-0.1c0,0,0-0.1,0-0.2c0-0.1,0-0.2,0-0.2V32l-0.1-0.1
		c0,0,0-0.1,0-0.2c0,0,0-0.1,0-0.2s0-0.2,0-0.2C43,31.1,43,30.9,43,30.5C42.9,30.5,42.9,30.3,42.8,30L42.8,30z M42.7,30.2L42.7,30.2
		c-0.1,0.1-0.1,0.1-0.1,0.1v0.1c0,0.1,0,0.1,0,0.2c-0.1,0.1-0.1,0.1-0.1,0.1s0,0,0,0.1v0.1c0,0,0,0.1-0.1,0.1l-0.1,0.1
		c0,0,0,0.1,0,0.2s0,0.2-0.1,0.2v0.1c-0.1,0.1-0.1,0.2-0.1,0.4c0,0-0.1,0.1-0.1,0.1v0.1c0,0,0,0.1-0.1,0.2c-0.1,0.1-0.1,0.1-0.1,0.1
		s0,0,0,0.1s0,0.1,0,0.1s0,0.1-0.1,0.1l-0.1,0.1c0,0,0,0.1,0,0.2c0,0.1,0,0.1,0,0.2l-0.1,0.3c0,0,0,0.1,0,0.2v0.1l-0.1,0.3
		c-0.1,0-0.1,0.1-0.1,0.2c0,0.1-0.1,0.2-0.1,0.3s0,0.1,0,0.1c-0.1,0.2-0.1,0.3-0.1,0.4c0,0-0.1,0.1-0.1,0.2c0,0.1-0.1,0.2-0.1,0.2
		l-0.1,0.3V36c0,0,0,0,0,0.1c0,0,0,0,0,0.1c0,0,0,0,0,0.1c0,0,0,0,0,0.1v0.1v0.1c-0.1,0.2-0.1,0.3-0.1,0.4c0,0.1,0,0.1-0.1,0.2
		c-0.1,0.1-0.1,0.1-0.1,0.2v0.1v0.1c0,0,0,0.1,0,0.2c0,0.1,0,0.1,0,0.2c0,0-0.1,0-0.1,0.1l-0.1,0.1c0,0.1,0,0.1,0,0.2
		c0,0.1,0,0.2,0,0.2s-0.1,0.1-0.1,0.2c-0.1,0.1-0.1,0.2-0.1,0.4c-0.1,0-0.1,0.1-0.1,0.2c0,0.1-0.1,0.2-0.1,0.2c0,0.3,0,0.5-0.1,0.5
		c0,0.1,0,0.2-0.1,0.2l-0.1,0.1v0.1v0.1v0.1c0,0.1,0.1,0.1,0.4,0c0,0,0.1,0,0.3,0c0,0,0,0,0.1,0c0,0,0,0,0.1,0h0.1h0.1h0.1
		c0.4,0,0.6,0,0.7-0.1c0.1,0.1,0.3,0.1,0.5,0h0.1l0.1-0.1h0.1h0.1c0.2,0,0.4,0,0.4,0h0.1H43c0.1,0.1,0.2,0.1,0.4,0.1l0.1-0.1
		c0.1,0,0.2,0,0.4,0s0.3,0,0.4,0c0.1-0.1,0.1-0.1,0.1-0.1c0.1,0,0.1,0,0.1,0l0.1-0.1h0.1c0.1,0,0.1,0,0.1,0s0.1,0,0.2-0.1
		c0.1-0.1,0.1-0.1,0.1-0.1V40c0-0.1,0-0.1,0-0.1s0,0,0-0.1v-0.1c0,0,0,0,0-0.1v-0.1C45,39.2,45,39,45,38.8h-0.1v-0.1
		c0-0.1,0-0.1,0-0.3c0,0,0,0,0-0.1s0-0.1,0-0.1s0,0,0-0.1V38v-0.1c0-0.1,0-0.1-0.1-0.2c0-0.1-0.1-0.1-0.1-0.2v-0.1
		c0-0.1,0-0.1,0-0.1s-0.1,0-0.1-0.1s-0.1-0.2-0.1-0.3c-0.1,0-0.1-0.1-0.1-0.2c0-0.1,0-0.2,0-0.3s0-0.2-0.1-0.3
		c0-0.1-0.1-0.2-0.1-0.3v-0.3v-0.1v-0.1v-0.1v-0.1c0,0,0-0.1,0-0.2c0-0.1,0-0.1,0-0.2v-0.1c0-0.1,0-0.2,0-0.2S44.1,34.3,44,34
		c-0.1-0.1-0.1-0.1-0.1-0.1v-0.1c0,0,0-0.1-0.1-0.1l-0.1-0.1v-0.1v-0.1c0-0.1,0-0.2,0-0.2s0-0.1-0.1-0.1c-0.1-0.1-0.1-0.1-0.1-0.2
		v-0.1v-0.1c0,0,0-0.1-0.1-0.1v-0.1c0,0,0-0.1,0-0.2c0-0.1,0-0.2,0-0.2V32l-0.1-0.1c0,0,0-0.1,0-0.2c0,0,0-0.1,0-0.2s0-0.2,0-0.2
		C43,31.1,43,30.9,43,30.5c-0.1,0-0.1-0.2-0.2-0.5l0,0C42.8,30.1,42.8,30.1,42.7,30.2z M44.3,43C44.2,43,44.2,42.9,44.3,43
		C44.3,42.9,44.3,42.9,44.3,43z M44.2,42.9C44.3,42.9,44.3,42.9,44.2,42.9C44.2,43,44.2,42.9,44.2,42.9z M44.7,26.2L44.7,26.2
		L44.7,26.2C44.7,26.3,44.7,26.3,44.7,26.2z M44.7,26.2v0.1C44.7,26.3,44.7,26.3,44.7,26.2L44.7,26.2z"/>
	<path fill="#54813B" d="M66.3,32.1C66.3,32.1,66.4,32.1,66.3,32.1c0.2,0.2,0.2,0.2,0.3,0.2c0,0.1,0.1,0.1,0.2,0.1s0.1,0,0.2,0
		c0.1,0.1,0.1,0.2,0.1,0.2c0.1,0,0.2,0,0.2,0.1c0.1,0.1,0.1,0.1,0.2,0.1s0.2,0,0.2,0s0,0,0,0.1V33c0,0,0,0,0.1,0h0.1c0,0,0,0,0,0.1
		H68h0.1c0,0,0,0.1,0,0.2c0,0.1,0,0.1,0,0.2v0.1c0,0.1,0,0.1,0.1,0.2c0.1,0.1,0.1,0.1,0.1,0.2c0,0.1,0.1,0.1,0.3,0.1
		c0,0.2,0,0.3-0.2,0.4v0.1c0,0.1,0,0.1,0,0.1c-0.2,0.1-0.2,0.2-0.1,0.5v0.1v0.1c-0.1,0-0.1,0-0.2,0.1c0.1,0.2,0.1,0.4,0,0.4
		S68,36,67.9,36.1c0,0.1-0.1,0.2-0.1,0.2s0,0.1,0,0.2c0,0.1,0,0.1,0,0.2c-0.1,0.1-0.2,0.2-0.2,0.4c-0.1,0.2-0.2,0.3-0.3,0.4v0.1h0.1
		c0,0.1,0,0.1-0.1,0.2c-0.1,0.1-0.1,0.1-0.1,0.2l-0.1,0.1c-0.1,0-0.1,0-0.2,0.1c0,0.1,0,0.1,0,0.1c-0.2,0.2-0.3,0.5-0.2,0.7
		c-0.1,0-0.1,0.1-0.1,0.2c0,0.1-0.1,0.2-0.1,0.2s0,0.1,0,0.2c0,0,0,0.1,0,0.2c0,0.1,0,0.2-0.1,0.2c0,0.1,0,0.2-0.1,0.3
		c-0.1,0-0.1,0.1-0.1,0.1c0,0.1,0.1,0.1,0.1,0.1c0,0.1-0.1,0.1-0.2,0.3s-0.2,0.3-0.1,0.4v0.1v0.1h-0.1c-0.1,0.1-0.1,0.2-0.1,0.4
		h-0.1c0,0-0.1,0-0.1,0.1c0,0,0,0,0,0.1v0.1c0,0,0,0,0,0.1c0,0,0,0.1-0.1,0.1v0.1c0,0.1,0,0.1,0,0.1s0,0.1-0.1,0.1
		c-0.1,0.1-0.1,0.1-0.1,0.2v0.1c0,0.1,0,0.1,0,0.1s0,0,0,0.1c0,0,0,0,0,0.1c0,0,0,0,0,0.1s0,0.1,0,0.1v0.1c0,0.1,0,0.1,0,0.1
		c-0.1,0-0.2,0.1-0.2,0.2c0,0.1,0,0.1,0,0.1s0,0.1-0.1,0.1v0.1c0,0,0,0.1,0,0.2c0,0.1,0,0.2-0.1,0.2c0,0.2,0,0.3-0.1,0.5
		s-0.2,0.3-0.2,0.5c0,0,0,0.1-0.1,0.1c0,0.1,0,0.2,0,0.2L64.1,46v0.1v0.1v0.2c-0.1,0-0.2,0.2-0.1,0.4c-0.2,0.1-0.2,0.2-0.1,0.5
		l-0.2,0.1c0,0.1,0,0.1,0,0.2c0.1,0.1,0.1,0.1,0,0.2c0,0,0,0,0-0.1c-0.1,0-0.1,0-0.1,0.1s0,0.2,0,0.3c-0.1,0-0.1,0-0.2,0.1
		c0,0.2,0.1,0.4,0.2,0.4c0,0.1,0,0.1,0,0.2h-0.1l0,0c0,0,0,0,0.1,0h0.1v0.1c0,0.1,0,0.1,0,0.1c-0.1,0-0.1,0-0.2,0c0,0-0.1,0-0.2,0.1
		c0,0.1,0,0.1,0,0.1v0.1h-0.1h-0.1c0,0.1-0.1,0.2-0.2,0.3h-0.1c-0.1,0-0.1,0.1-0.1,0.2h-0.1c-0.1,0.1-0.2,0.1-0.2,0.2l0,0
		c-0.1,0-0.1-0.1-0.1-0.2h-0.1v0.1c-0.2,0.1-0.3,0-0.3,0h-0.1c-0.1,0-0.1,0-0.1,0C61.6,50,61.6,50,61.5,50c0-0.1-0.1-0.2-0.1-0.2
		c0-0.1-0.1-0.1-0.2-0.1c-0.1-0.1-0.1-0.1-0.2-0.1c0-0.1,0-0.3-0.2-0.5V49c-0.1-0.2-0.3-0.3-0.4-0.4h-0.1h-0.1c0-0.3,0-0.5-0.2-0.7
		c0,0,0,0-0.1,0c0,0,0,0-0.1,0c0,0,0-0.1-0.1-0.2c0-0.1,0-0.2-0.1-0.2h-0.1c0-0.1,0-0.1-0.1-0.2c-0.1-0.1-0.1-0.2-0.1-0.2
		c-0.1-0.1-0.3-0.2-0.4-0.4c0-0.1-0.1-0.3-0.2-0.4c-0.1-0.1-0.1-0.1-0.1-0.2c0-0.1,0-0.1-0.1-0.2h-0.1h-0.1c0-0.2,0-0.3-0.1-0.4
		c0-0.1,0-0.2-0.1-0.3c-0.1,0-0.1,0-0.1,0l-0.1,0.1l0,0v-0.1v-0.1c0,0,0-0.1-0.1-0.2c0-0.1-0.1-0.2-0.2-0.1v-0.1c0-0.1,0-0.1,0-0.1
		s0,0-0.1-0.1c-0.1,0-0.1-0.1-0.1-0.2c-0.2-0.3-0.4-0.6-0.6-0.8v-0.1c-0.1-0.1-0.2-0.2-0.3-0.2c0-0.2-0.1-0.4-0.2-0.5V43
		c-0.2-0.2-0.3-0.3-0.4-0.3c0,0,0-0.1,0-0.2c0-0.2,0-0.3-0.1-0.3h-0.1h-0.1v-0.1c0-0.1,0-0.1,0-0.1c-0.1-0.1-0.2-0.1-0.2-0.2h-0.1
		c0-0.1,0-0.1,0-0.3v-0.1l0,0c0,0,0,0,0-0.1c0,0,0,0,0-0.1h-0.1c-0.1,0-0.1,0-0.1,0c0-0.1,0-0.2,0-0.2l0,0H55c0-0.1,0-0.1,0-0.2
		h-0.1v-0.1c0-0.1,0-0.1,0-0.1s0,0-0.1,0c-0.1-0.1-0.1-0.1,0-0.2c0.1-0.1,0.1-0.1,0.1-0.2l-0.1-0.1c-0.1-0.1-0.1-0.1-0.2-0.2v-0.1
		c0,0,0-0.1-0.1-0.1l-0.1-0.1c0-0.1,0-0.1-0.1-0.2c0-0.1-0.1-0.1-0.1-0.2c-0.1-0.1-0.2-0.3-0.2-0.5c0,0-0.1-0.1-0.2-0.1
		c0,0,0,0,0-0.1s0,0,0.1,0c0,0-0.1-0.1-0.1-0.2c0-0.1-0.1-0.3-0.1-0.4c0,0-0.1,0-0.2,0c0.1-0.1,0.1-0.2,0-0.3c0,0,0-0.1-0.1-0.1
		c0-0.1-0.1-0.3-0.2-0.4c0-0.1,0-0.1-0.1-0.2C53,36.8,53,36.7,53,36.7s0,0-0.1-0.1h-0.1c0,0,0,0,0-0.1s0-0.1,0-0.1s0-0.1-0.1-0.1
		l-0.1-0.1c0,0,0-0.1,0-0.2c0-0.1,0-0.1,0-0.1h-0.1h-0.1v-0.1c0-0.1,0-0.1,0-0.1s0,0-0.1,0c0-0.1,0-0.2,0-0.4c0,0,0,0,0.1,0h0.1
		v-0.1l0.1-0.1c0-0.1,0.1-0.1,0.1-0.1h0.1c0.1,0,0.2-0.1,0.2-0.2l0.1-0.1c0.1-0.1,0.1-0.1,0.2-0.1c0-0.1,0-0.2,0.1-0.2s0.1,0,0.2,0
		c0.2,0,0.3,0.1,0.3,0.2h0.5l0,0c0.1,0.1,0.1,0.1,0.2,0.1c0.1,0.1,0.1,0.2,0.3,0.3c0.1,0.1,0.2,0.2,0.2,0.3c0.1,0,0.1,0,0.2,0.1
		c-0.1,0.1,0,0.2,0.2,0.2c0.1,0.1,0,0.2-0.1,0.3c0,0,0.1,0.1,0.2,0.2c0,0.2,0.1,0.4,0.3,0.5c-0.1,0.2,0,0.3,0.1,0.3
		c0,0.1,0,0.2,0,0.3s0.1,0.2,0.1,0.2s0,0.1,0.1,0.1l0.1,0.1c0,0.1,0,0.2,0,0.2l0.1,0.1c0.1,0.1,0.1,0.1,0.1,0.1c0.1,0,0.1,0,0.1,0
		s0,0,0,0.1c0,0,0,0,0,0.1v0.1c0,0.1,0,0.1,0,0.1v0.1h0.1l0.3,0.2v0.1v0.1c0,0,0,0.1,0.1,0.1c0.1,0.1,0.1,0.1,0,0.2
		C56.9,38.9,57,39,57,39s0.1,0.2,0.3,0.6c0,0,0,0.1,0.1,0.1c0,0.1,0,0.1,0.1,0.2c0,0.1,0.1,0.1,0.1,0.2c0,0.1,0.1,0.1,0.1,0.1
		c0.1,0.3,0.2,0.4,0.3,0.4c0,0.1,0,0.1,0.1,0.2c0,0.1,0.1,0.1,0.1,0.2c0.1,0.1,0.2,0.2,0.2,0.2c0,0.1,0,0.2,0.1,0.2s0.1,0.1,0.2,0.1
		c0.1,0.1,0,0.1,0,0.2h0.1h0.1v0.1c0,0.1,0,0.1,0,0.2H59h0.1c0.1,0.3,0.1,0.5,0.2,0.5v0.1c0.1,0.1,0.2,0.2,0.2,0.2v-0.1
		c0,0,0,0,0.1,0.1c0,0.1,0,0.1,0.1,0.1c0,0.1,0,0.1,0.1,0.2c0.1,0.1,0.1,0.1,0.1,0.2H60c0,0.1,0.1,0.2,0.2,0.2c0,0.1,0,0.1,0,0.1
		s0,0,0.1,0.1c0,0.1,0,0.2,0,0.3c0.1,0.1,0.2,0.1,0.3,0.1c0,0,0,0.1,0,0.2c0,0.1,0.1,0.2,0.1,0.2s0,0,0.1,0c0,0,0,0,0.1,0
		c0,0.3,0.1,0.5,0.4,0.7c0.1,0,0.2,0,0.2,0V45c0-0.1,0.1-0.2,0.2-0.3v-0.1c0.1-0.1,0.1-0.2,0.1-0.4l0.1-0.1c0,0,0-0.1,0.1-0.1
		s0.1-0.1,0.1-0.1v-0.1c0,0,0-0.1,0.1-0.1c0.1-0.1,0.1-0.1,0-0.2v-0.1c0-0.1,0-0.2,0-0.2c0.2,0,0.2,0,0.2-0.2
		c0.1-0.1,0.1-0.1,0.1-0.1c0-0.1,0-0.2,0-0.3c0.1-0.1,0.1-0.2,0.1-0.2c0.1,0,0.1-0.1,0.1-0.1c0-0.1,0-0.1,0.1-0.3
		c0.1-0.1,0.1-0.3,0-0.4c0.1-0.1,0.1-0.2,0.1-0.3v-0.1c0,0,0,0,0-0.1s0.1,0,0.1-0.1s0.1-0.2,0.2-0.2c0-0.2,0.1-0.3,0.1-0.3v-0.1
		c0-0.1,0-0.1,0-0.1s0,0,0.1,0c0,0,0,0,0.1,0c0,0,0-0.1,0.1-0.1c0-0.1,0.1-0.1,0.1-0.1c0-0.1,0-0.1,0-0.2c0-0.1,0-0.2,0-0.2v-0.1
		c0-0.1,0-0.1,0-0.1c0.1-0.3,0.2-0.5,0.2-0.6H64c0-0.1,0.1-0.2,0.2-0.3s0.2-0.2,0.1-0.3c0-0.1,0.1-0.1,0.1-0.2
		c0.1-0.1,0.1-0.2,0.1-0.2s0.1-0.1,0.2-0.1c0,0,0-0.1,0-0.4v-0.1v-0.1v-0.1V37c0,0,0.1-0.1,0.2-0.2l0,0l0,0c0,0,0-0.1,0-0.2
		c0-0.1,0-0.2,0-0.2c-0.1-0.1-0.1-0.2-0.1-0.2c0.2-0.1,0.3-0.1,0.3-0.2c0,0,0-0.1,0-0.2c0-0.1,0-0.1,0-0.2c0,0,0-0.1,0.1-0.1
		c0,0,0-0.1-0.1-0.1L65,35.3c0,0,0.1-0.1,0.2-0.2c0-0.1,0-0.2,0-0.4s0-0.4,0-0.4l0.1-0.1l0.1-0.1L65.3,34c-0.1-0.1,0-0.2,0-0.2
		c0.1-0.1,0.1-0.1,0.1-0.2v-0.2c-0.1-0.1-0.1-0.2,0-0.3h0.3c0-0.2,0.1-0.4,0.3-0.5v-0.1l0,0c0,0,0,0,0.1,0
		C66.2,32.3,66.3,32.2,66.3,32.1z M66,32.3C66,32.2,66,32.2,66,32.3C66,32.2,66,32.2,66,32.3L66,32.3c0.2,0,0.3,0,0.3-0.1
		c0,0,0.1,0,0.1,0.1c0.1,0.1,0.1,0.1,0.2,0.1c0,0.1,0.1,0.1,0.2,0.1s0.1,0,0.2,0c0.1,0.1,0.1,0.2,0.1,0.2c0.1,0,0.2,0,0.2,0.1
		c0.1,0.1,0.1,0.1,0.2,0.1s0.2,0,0.2,0s0,0,0,0.1v0.1c0,0,0,0,0.1,0h0.1c0,0,0,0,0,0.1c0,0,0,0,0,0.1c0,0,0,0,0.1,0h0.1
		c0,0,0,0.1,0,0.2c0,0.1,0,0.1,0,0.2v0.1c0,0.1,0,0.1,0.1,0.2c0.1,0.1,0.1,0.1,0.1,0.2c0,0.1,0.1,0.1,0.3,0.1c0,0.2,0,0.3-0.2,0.4
		v0.1c0,0.1,0,0.1,0,0.1c-0.2,0.1-0.2,0.2-0.1,0.5v0.1v0.1c-0.1,0-0.1,0-0.2,0.1c0.1,0.2,0.1,0.4,0,0.4s-0.1,0.1-0.2,0.2
		c0,0.1-0.1,0.2-0.1,0.2s0,0.1,0,0.2c0,0.1,0,0.1,0,0.2c-0.1,0.1-0.2,0.2-0.2,0.4c-0.1,0.2-0.2,0.3-0.3,0.4v0.1h0.1
		c0,0.1,0,0.1-0.1,0.2c-0.1,0.1-0.1,0.1-0.1,0.2l-0.1,0.1c-0.1,0-0.1,0-0.2,0.1c0,0.1,0,0.1,0,0.1c-0.2,0.2-0.3,0.5-0.2,0.7
		c-0.1,0-0.1,0.1-0.1,0.2c0,0.1-0.1,0.2-0.1,0.2s0,0.1,0,0.2c0,0,0,0.1,0,0.2c0,0.1,0,0.2-0.1,0.2c0,0.1,0,0.2-0.1,0.3
		c-0.1,0-0.1,0.1-0.1,0.1c0,0.1,0.1,0.1,0.1,0.1c0,0.1-0.1,0.1-0.2,0.3s-0.2,0.3-0.1,0.4v0.1v0.1h-0.1c-0.1,0.1-0.1,0.2-0.1,0.4
		h-0.1c0,0-0.1,0-0.1,0.1c0,0,0,0,0,0.1v0.1c0,0,0,0,0,0.1c0,0,0,0.1-0.1,0.1v0.1c0,0.1,0,0.1,0,0.1s0,0.1-0.1,0.1
		c-0.1,0.1-0.1,0.1-0.1,0.2v0.1c0,0.1,0,0.1,0,0.1s0,0,0,0.1c0,0,0,0,0,0.1c0,0,0,0,0,0.1s0,0.1,0,0.1v0.1c0,0.1,0,0.1,0,0.1
		c-0.1,0-0.2,0.1-0.2,0.2c0,0.1,0,0.1,0,0.1s0,0.1-0.1,0.1v0.1c0,0,0,0.1,0,0.2c0,0.1,0,0.2-0.1,0.2c0,0.2,0,0.3-0.1,0.5
		s-0.2,0.3-0.2,0.5c0,0,0,0.1-0.1,0.1c0,0.1,0,0.2,0,0.2l-0.4,0v0.1v0.1v0.2c-0.1,0-0.2,0.2-0.1,0.4c-0.2,0.1-0.2,0.2-0.1,0.5
		l-0.2,0.1c0,0.1,0,0.1,0,0.2c0.1,0.1,0.1,0.1,0,0.2c0,0,0,0,0-0.1c-0.1,0-0.1,0-0.1,0.1s0,0.2,0,0.3c-0.1,0-0.1,0-0.2,0.1
		c0,0.2,0.1,0.4,0.2,0.4c0,0.1,0,0.1,0,0.2h-0.1l0,0c0,0,0,0,0.1,0h0.1v0.1c0,0.1,0,0.1,0,0.1c-0.1,0-0.1,0-0.2,0c0,0-0.1,0-0.2,0.1
		c0,0.1,0,0.1,0,0.1v0.1h-0.1h-0.1c0,0.1-0.1,0.2-0.2,0.3h-0.1c-0.1,0-0.1,0.1-0.1,0.2h-0.1c-0.1,0.1-0.2,0.1-0.2,0.2l0,0
		c-0.1,0-0.1-0.1-0.1-0.2h-0.1v0.1c-0.2,0.1-0.3,0-0.3,0h-0.1c-0.1,0-0.1,0-0.1,0C61.6,50,61.6,50,61.5,50c0-0.1-0.1-0.2-0.1-0.2
		c0-0.1-0.1-0.1-0.2-0.1c-0.1-0.1-0.1-0.1-0.2-0.1c0-0.1,0-0.3-0.2-0.5V49c-0.1-0.2-0.3-0.3-0.4-0.4h-0.1h-0.1c0-0.3,0-0.5-0.2-0.7
		c0,0,0,0-0.1,0c0,0,0,0-0.1,0c0,0,0-0.1-0.1-0.2c0-0.1,0-0.2-0.1-0.2h-0.1c0-0.1,0-0.1-0.1-0.2c-0.1-0.1-0.1-0.2-0.1-0.2
		c-0.1-0.1-0.3-0.2-0.4-0.4c0-0.1-0.1-0.3-0.2-0.4c-0.1-0.1-0.1-0.1-0.1-0.2c0-0.1,0-0.1-0.1-0.2c-0.1,0.1-0.2,0.1-0.2,0
		c0-0.2,0-0.3-0.1-0.4c0-0.1,0-0.2-0.1-0.3c-0.1,0-0.1,0-0.1,0l-0.1,0.1l0,0v-0.1v-0.1c0,0,0-0.1-0.1-0.2c0-0.1-0.1-0.2-0.2-0.1
		v-0.1c0-0.1,0-0.1,0-0.1s0,0-0.1-0.1c-0.1,0-0.1-0.1-0.1-0.2c-0.2-0.3-0.4-0.6-0.6-0.8v-0.1c-0.1-0.1-0.2-0.2-0.3-0.2
		c0-0.2-0.1-0.4-0.2-0.5V43c-0.2-0.2-0.3-0.3-0.4-0.3c0,0,0-0.1,0-0.2c0-0.2,0-0.3-0.1-0.3h-0.1h-0.1v-0.1c0-0.1,0-0.1,0-0.1
		c-0.1-0.1-0.2-0.1-0.2-0.2h-0.1c0-0.1,0-0.1,0-0.3v-0.1l0,0c0,0,0,0,0-0.1c0,0,0,0,0-0.1h-0.1c-0.1,0-0.1,0-0.1,0
		c0-0.1,0-0.2,0-0.2l0,0H55c0-0.1,0-0.1,0-0.2h-0.1v-0.1c0-0.1,0-0.1,0-0.1s0,0-0.1,0c-0.1-0.1-0.1-0.1,0-0.2
		c0.1-0.1,0.1-0.1,0.1-0.2l-0.1-0.1c-0.1-0.1-0.1-0.1-0.2-0.2v-0.1c0,0,0-0.1-0.1-0.1l-0.1-0.1c0-0.1,0-0.1-0.1-0.2
		c0-0.1-0.1-0.1-0.1-0.2c-0.1-0.1-0.2-0.3-0.2-0.5c0,0-0.1-0.1-0.2-0.1c0,0,0-0.1,0.1-0.1c0,0-0.1-0.1-0.1-0.2
		c0-0.1-0.1-0.3-0.1-0.4c0,0-0.1,0-0.2,0c0.1-0.1,0.1-0.2,0-0.3c0,0,0-0.1-0.1-0.1c0-0.1-0.1-0.3-0.2-0.4c0-0.1,0-0.1-0.1-0.2
		C53,36.8,53,36.7,53,36.7s0,0-0.1-0.1h-0.1c0,0,0,0,0-0.1s0-0.1,0-0.1s0-0.1-0.1-0.1l-0.1-0.1c0,0,0-0.1,0-0.2c0-0.1,0-0.1,0-0.1
		h-0.1h-0.1v-0.1c0-0.1,0-0.1,0-0.1s0,0-0.1,0c0-0.1,0-0.2,0-0.4c0,0,0,0,0.1,0h0.1v-0.1l0.1-0.1c0-0.1,0.1-0.1,0.1-0.1h0.1
		c0.1,0,0.2-0.1,0.2-0.2l0.1-0.1c0.1-0.1,0.1-0.1,0.2-0.1c0-0.1,0-0.2,0.1-0.2s0.1,0,0.2,0c0.2,0,0.3,0.1,0.3,0.2h0.5l0,0
		c0.1,0.1,0.1,0.1,0.2,0.1c0.1,0.1,0.1,0.2,0.3,0.3c0.1,0.1,0.2,0.2,0.2,0.3c0.1,0,0.1,0,0.2,0.1c-0.1,0.1,0,0.2,0.2,0.2
		c0.1,0.1,0,0.2-0.1,0.3c0,0,0.1,0.1,0.2,0.2c0,0.2,0.1,0.4,0.3,0.5c-0.1,0.2,0,0.3,0.1,0.3c0,0.1,0,0.2,0,0.3s0.1,0.2,0.1,0.2
		s0,0.1,0.1,0.1l0.1,0.1c0,0.1,0,0.2,0,0.2l0.1,0.1c0.1,0.1,0.1,0.1,0.1,0.1c0.1,0,0.1,0,0.1,0s0,0,0,0.1c0,0,0,0,0,0.1v0.1
		c0,0.1,0,0.1,0,0.1v0.1h0.1l0.3,0.2v0.1v0.1c0,0,0,0.1,0.1,0.1c0.1,0.1,0.1,0.1,0,0.2C56.9,38.9,57,39,57,39s0.1,0.2,0.3,0.6
		c0,0,0,0.1,0.1,0.1c0,0.1,0,0.1,0.1,0.2c0,0.1,0.1,0.1,0.1,0.2c0,0.1,0.1,0.1,0.1,0.1c0.1,0.3,0.2,0.4,0.3,0.4c0,0.1,0,0.1,0.1,0.2
		c0,0.1,0.1,0.1,0.1,0.2c0.1,0.1,0.2,0.2,0.2,0.2c0,0.1,0,0.2,0.1,0.2s0.1,0.1,0.2,0.1c0.1,0.1,0,0.1,0,0.2h0.1h0.1v0.1
		c0,0.1,0,0.1,0,0.2H59h0.1c0.1,0.3,0.1,0.5,0.2,0.5v0.1c0.1,0.1,0.2,0.2,0.2,0.2v-0.1c0,0,0,0,0.1,0.1c0,0.1,0,0.1,0.1,0.1
		c0,0.1,0,0.1,0.1,0.2c0.1,0.1,0.1,0.1,0.1,0.2H60c0,0.1,0.1,0.2,0.2,0.2c0,0.1,0,0.1,0,0.1s0,0,0.1,0.1c0,0.1,0,0.2,0,0.3
		c0.1,0.1,0.2,0.1,0.3,0.1c0,0,0,0.1,0,0.2c0,0.1,0.1,0.2,0.1,0.2s0,0,0.1,0c0,0,0,0,0.1,0c0,0.3,0.1,0.5,0.4,0.7c0.1,0,0.2,0,0.2,0
		V45c0-0.1,0.1-0.2,0.2-0.3v-0.1c0.1-0.1,0.1-0.2,0.1-0.4l0.1-0.1c0,0,0-0.1,0.1-0.1s0.1-0.1,0.1-0.1v-0.1c0,0,0-0.1,0.1-0.1
		c0.1-0.1,0.1-0.1,0-0.2v-0.1c0-0.1,0-0.2,0-0.2c0.2,0,0.2,0,0.2-0.2c0.1-0.1,0.1-0.1,0.1-0.1c0-0.1,0-0.2,0-0.3
		c0.1-0.1,0.1-0.2,0.1-0.2c0.1,0,0.1-0.1,0.1-0.1c0-0.1,0-0.1,0.1-0.3c0.1-0.1,0.1-0.3,0-0.4c0.1-0.1,0.1-0.2,0.1-0.3v-0.1
		c0,0,0,0,0-0.1s0.1,0,0.1-0.1s0.1-0.2,0.2-0.2c0-0.2,0.1-0.3,0.1-0.3v-0.1c0-0.1,0-0.1,0-0.1s0,0,0.1,0c0,0,0,0,0.1,0
		c0,0,0-0.1,0.1-0.1c0-0.1,0.1-0.1,0.1-0.1c0-0.1,0-0.1,0-0.2c0-0.1,0-0.2,0-0.2v-0.1c0-0.1,0-0.1,0-0.1c0.1-0.3,0.2-0.5,0.2-0.6H64
		c0-0.1,0.1-0.2,0.2-0.3s0.2-0.2,0.1-0.3c0-0.1,0.1-0.1,0.1-0.2c0.1-0.1,0.1-0.2,0.1-0.2s0.1-0.1,0.2-0.1c0,0,0-0.1,0-0.4v-0.1v-0.1
		v-0.1V37c0,0,0.1-0.1,0.2-0.2l0,0l0,0c0,0,0-0.1,0-0.2c0-0.1,0-0.2,0-0.2c-0.1-0.1-0.1-0.2-0.1-0.2c0.2-0.1,0.3-0.1,0.3-0.2
		c0,0,0-0.1,0-0.2c0-0.1,0-0.1,0-0.2c0,0,0-0.1,0.1-0.1c0,0,0-0.1-0.1-0.1L65,35.3c0,0,0.1-0.1,0.2-0.2c0-0.1,0-0.2,0-0.4
		s0-0.4,0-0.4l0.1-0.1l0.1-0.1L65.3,34c-0.1-0.1,0-0.2,0-0.2c0.1-0.1,0.1-0.1,0.1-0.2v-0.2c-0.1-0.1-0.1-0.2,0-0.3h0.3
		C65.7,32.6,65.8,32.5,66,32.3L66,32.3z M57.1,39L57.1,39C57.2,39,57.2,39,57.1,39C57.1,39.1,57.1,39.1,57.1,39
		C57.1,39.1,57.1,39,57.1,39z M57.2,39L57.2,39C57.1,39.1,57.1,39.1,57.2,39L57.2,39z M61.2,44.8C61.3,44.8,61.3,44.8,61.2,44.8
		C61.3,44.8,61.3,44.8,61.2,44.8L61.2,44.8z M61.2,44.8L61.2,44.8C61.3,44.8,61.3,44.8,61.2,44.8C61.3,44.8,61.3,44.8,61.2,44.8z"/>
	<path fill="#54813B" d="M78,29.3c0.5,0.1,0.8,0,0.8-0.2c0,0,0.1,0,0.4,0c0,0,0,0,0,0.1c0,0,0,0,0,0.1c0,0,0.1,0,0.2,0
		s0.1,0,0.1,0.1c0.1,0,0.2,0,0.4,0.1c0.5,0,0.7,0.1,0.9,0.2h0.1c0.1,0.1,0.2,0.1,0.3,0.2s0.3,0.2,0.3,0.2v0.1
		c0.2,0.1,0.3,0.4,0.4,0.7L82,31c0.1,0.2,0,0.3,0,0.4s0,0.2,0,0.3c-0.1,0.1-0.1,0.2-0.1,0.2C81.8,32,81.8,32,81.8,32
		c0,0.1,0,0.2-0.1,0.3c0,0.1,0,0.1,0,0.1l-0.1,0.1c0,0,0,0-0.1,0c0,0,0,0-0.1,0c0,0,0,0.1-0.1,0.1s-0.1,0-0.2,0c0,0,0,0.1-0.1,0.1
		l-0.1,0.1c-0.1,0-0.2,0-0.2,0c0,0.1,0,0.1,0,0.1s-0.1,0-0.2,0s-0.1,0-0.2,0h-0.1h-0.1c0,0,0-0.1,0.1-0.1l-0.1-0.1
		c0-0.1-0.1-0.1-0.1-0.1l-0.1,0.1h-0.1c0-0.1,0-0.1-0.1-0.2c-0.1-0.1-0.1-0.1-0.2-0.1v0.1v0.1l-0.1-0.1l-0.1-0.1c0,0,0,0-0.1-0.1
		c0-0.2-0.2-0.2-0.5-0.2c-0.1,0-0.1,0-0.2,0.1c-0.1,0-0.1,0-0.2,0s-0.1,0-0.2,0L78,32.3c-0.1,0-0.2,0-0.4,0
		c-0.3,0.1-0.5,0.1-0.5,0.2c-0.2-0.1-0.3-0.1-0.3,0c-0.1,0-0.2,0-0.3,0c-0.1,0-0.2,0-0.2,0v0.1c-0.1,0-0.2,0-0.2,0
		c-0.1-0.1-0.2-0.1-0.2,0c0,0-0.1,0-0.1,0.1l-0.1,0.1c-0.1,0-0.1,0-0.2,0s-0.1,0-0.2,0c0,0-0.1,0-0.1,0.1h-0.1c-0.1,0-0.1,0-0.1,0
		V33c-0.3,0-0.4,0-0.5,0c0,0,0,0,0,0.1c0,0,0,0,0,0.1c-0.2-0.1-0.5-0.1-0.7,0.2c0,0-0.1,0-0.1-0.1c-0.1,0-0.1,0.1,0,0.2
		c0,0.1,0,0.1,0.1,0.1v0.1v0.1c0,0.1,0,0.1,0,0.1c0,0.1,0,0.2,0.1,0.2c0,0.1,0,0.2,0.1,0.3s0.1,0.3,0,0.3c0,0.1,0,0.2,0.1,0.3
		c0,0,0,0,0,0.1c0,0,0,0,0,0.1s0,0.1,0,0.2c0,0.1,0.1,0.1,0.1,0.1c0,0.6,0,1,0,1c-0.1,0.1-0.1,0.3,0,0.5c0,0,0,0.1,0,0.2
		c0,0,0,0.1-0.1,0.1c0,0.1,0,0.1,0,0.2c0.1,0.1,0.1,0.1,0.1,0.1v0.1v0.1c0,0.1,0,0.2,0,0.5c0,0.2,0,0.4,0,0.5c0,0,0,0.1,0,0.2
		c0,0.1,0.1,0.1,0.2,0.1s0.2-0.1,0.2-0.1c0.3,0,0.4,0,0.5-0.1c0.3,0,0.5,0,0.5,0c0.2,0,0.3,0,0.4,0c0,0,0.1,0,0.1-0.1
		c0.1,0,0.1-0.1,0.1-0.1s0.1,0,0.2,0c0.2,0,0.3,0,0.3-0.1c0.2,0.1,0.4,0,0.5,0h0.1h0.1h0.1c0.1,0,0.1,0,0.1,0c0.1,0,0.3,0,0.4,0
		v-0.1c0.1,0.1,0.2,0.1,0.4,0c0.2,0,0.3-0.1,0.3-0.1c0.1,0,0.1,0,0.2,0s0.1-0.1,0.1-0.1h0.1c0,0,0,0,0.1,0.1c0,0,0.1,0,0.2-0.1
		s0.2-0.1,0.2-0.1c0.1-0.1,0.1-0.1,0.1-0.1s0.1,0,0.1,0.1c0.2,0,0.4,0,0.4-0.1c0.1,0,0.1,0,0.2,0s0.1,0,0.2,0s0.1,0,0.2,0.1
		c0.1,0,0.2,0.1,0.2,0.1c0.1,0,0.2,0.1,0.2,0.2c0.1,0,0.1,0,0.2,0c0,0,0,0,0.1,0c0,0,0,0.1,0.1,0.1c0.2,0,0.3,0,0.4,0
		c0,0,0,0.1,0.1,0.2v0.1c0,0.1,0.1,0.1,0.2,0.3c0,0.2,0.1,0.3,0.2,0.4c0,0,0,0.1-0.1,0.1c0,0.1,0,0.2-0.1,0.3s-0.1,0.2-0.1,0.3h-0.1
		c0,0,0,0,0,0.1c0,0,0,0,0,0.1H82l0,0l0-0.5c0,0-0.1,0-0.1-0.1h-0.1c0,0-0.1,0-0.1,0.1h-0.1c0,0.1-0.1,0.1-0.3,0.2
		c-0.2,0.1-0.3,0.1-0.3,0.2c-0.2,0-0.4,0-0.6,0.2h-0.1c0,0-0.1,0-0.1,0.1c0,0,0,0,0,0.1c-0.1,0-0.1,0-0.2-0.1h-0.1v0.1
		c-0.1,0-0.1,0-0.3,0s-0.2,0-0.3,0c0,0-0.1,0-0.1,0.1L79.1,41c-0.1,0-0.2,0-0.2,0c-0.1,0-0.1,0.1-0.1,0.2c-0.1-0.1-0.1-0.1-0.2-0.1
		s-0.2,0-0.2,0.1v0.1c-0.1,0-0.1,0-0.2,0c-0.1-0.1-0.1,0-0.2,0c0,0-0.1,0-0.2,0v0.2c-0.1,0-0.1,0-0.3,0c-0.1,0-0.1,0-0.2,0
		s-0.1,0.1,0,0.2l-0.2-0.1c0,0-0.2,0-0.4,0l-0.1,0.1l-0.1,0.1c-0.2,0-0.3,0-0.4,0l-0.1,0c-0.3,0-0.5,0-0.5,0c-0.1,0-0.1,0.1-0.2,0.1
		c0,0,0,0,0,0.1c-0.2,0.1-0.4,0.1-0.5,0c0,0-0.1,0-0.1,0.1l-0.1,0.1c0,0-0.1,0-0.1-0.1L74.4,42c-0.1,0-0.1,0-0.2,0.1
		c-0.1,0-0.1,0-0.2,0s-0.1,0.2,0,0.5v0.1v0.1c0,0.1,0.1,0.1,0.2,0.1c0.1,0.1,0,0.2-0.1,0.2c0,0,0,0.1,0,0.2c0,0.1,0,0.2,0.1,0.2
		c0,0,0,0,0,0.1c0,0,0,0,0,0.1c0,0,0,0.1-0.1,0.3c0.1,0.1,0.1,0.2,0.1,0.5c0,0.2,0,0.4,0.1,0.6c-0.1,0.2-0.1,0.4,0,0.4
		c0,0.1,0,0.1,0,0.3v0.1V46c0.1,0.2,0.1,0.3,0.1,0.4c0.1,0.1,0.1,0.1,0.2,0.3c0.1,0.1,0.1,0.2,0.1,0.3c0.1,0,0.2,0,0.3,0.1
		c0.2,0,0.3,0,0.3,0s0.1,0,0.1-0.1c0.1,0,0.1,0,0.1,0.1c0.4,0,0.6-0.1,0.7-0.1s0.2,0,0.3,0c0.1,0,0.3,0,0.3,0
		c0.1-0.1,0.3-0.1,0.6-0.2c0,0,0,0,0-0.1v-0.1c0.1,0,0.1,0,0.2,0s0.2,0,0.2,0s0.1-0.1,0.2-0.1s0.2-0.1,0.2-0.1c0.2,0,0.3,0,0.5-0.1
		s0.3-0.2,0.5-0.2c0-0.1,0.1-0.1,0.1-0.1c0.2,0.1,0.3,0,0.3,0c0.2,0,0.4-0.1,0.5-0.3c0.1,0,0.2,0,0.2,0c0.1-0.1,0.2-0.1,0.3-0.1
		c0.5,0,0.7,0,0.8,0.1h0.1c0,0.1,0.1,0.3,0.2,0.4h0.1c0.1,0,0.1,0.1,0.2,0.2c0,0.1,0.1,0.2,0.2,0.3c0,0.1,0,0.1,0.1,0.2
		c0.1,0.1,0.1,0.1,0.1,0.2c0,0,0,0,0,0.1s0,0.1,0,0.2c-0.1,0.2-0.2,0.3-0.2,0.4c-0.1,0-0.2,0.1-0.3,0.2c-0.2,0-0.3,0.1-0.3,0.4h-0.1
		h-0.1c0,0-0.1,0.1-0.1,0.2h-0.1h-0.1c0,0-0.1,0-0.1,0.1c-0.2,0-0.3,0.1-0.3,0.2h-0.2c-0.1,0.2-0.3,0.2-0.4,0.1c0,0-0.1,0.1-0.1,0.2
		h-0.1c-0.1-0.1-0.2-0.1-0.3,0c-0.1,0-0.1,0.1-0.1,0.2h-0.2c0,0,0,0,0,0.1v0.1c0,0-0.1-0.1-0.2-0.1s-0.2,0-0.3,0c0,0,0,0.1-0.1,0.1
		c0,0,0,0.1-0.1,0.1h-0.1h-0.1c0,0-0.1,0.1-0.1,0.2c-0.1-0.1-0.3,0-0.4,0c0,0,0,0,0,0.1c-0.1,0-0.2,0-0.3,0c-0.2,0-0.3,0.1-0.3,0.1
		h-0.1c0,0,0,0-0.1,0c0,0-0.1,0-0.2,0s-0.2,0-0.2,0.1s0,0.1,0,0.1s-0.1,0-0.2,0s-0.1,0-0.1,0s0-0.1-0.1-0.1
		c-0.3,0.1-0.4,0.1-0.4,0.1v0.1c-0.1,0-0.1,0-0.2,0l-0.1-0.1l-0.1,0.1h-0.1c0,0-0.1,0-0.2,0s-0.1,0-0.2,0c0-0.1,0-0.1,0-0.1h-0.1
		c-0.1,0-0.1,0.1-0.1,0.2c-0.2,0-0.4,0-0.6,0c0-0.1,0-0.1-0.1-0.2c-0.1,0-0.1,0-0.2,0v0.1c0,0.1,0,0.1,0,0.1s0,0,0-0.1v-0.1h-0.2
		v-0.1C73.6,50,73.5,50,73.4,50c-0.1-0.1-0.2-0.1-0.2-0.1s-0.1,0-0.1-0.1C73,49.7,73,49.7,73,49.6h-0.1h-0.1v-0.1c0,0,0-0.1-0.1-0.1
		s-0.1,0-0.1,0h-0.1c0-0.1,0-0.2-0.2-0.3V49c-0.1-0.1-0.2-0.2-0.3-0.2h-0.1c-0.1-0.1-0.2-0.1-0.2-0.2c-0.1-0.1-0.1-0.2-0.2-0.3
		s-0.1-0.2-0.2-0.2c-0.1-0.4-0.2-0.6-0.2-0.6c0-0.1,0-0.1-0.1-0.3c0-0.1,0-0.1,0-0.2c0-0.1,0-0.2,0-0.2c0-0.1,0-0.1-0.1-0.2v-0.1
		v-0.1c0,0,0-0.1,0-0.3s0-0.3-0.1-0.3c0-0.1,0-0.2,0-0.3c0-0.2,0-0.3,0-0.3c0-0.4,0-1,0-1.7c0-0.8,0-1.3,0-1.7c0.1,0,0.2,0,0.1-0.1
		c0-0.1-0.1-0.2-0.1-0.2c0-0.1,0-0.2,0.1-0.3c0-0.1,0.1-0.2,0.1-0.2c-0.1-0.1-0.1-0.1-0.1-0.2c0-0.1,0-0.1,0.1-0.1
		c0-0.1,0-0.7,0-1.6c0.1,0,0.1-0.1,0.1-0.1c0-0.1,0-0.1-0.1-0.2c0.1,0,0.1-0.1,0-0.2c0-0.1,0-0.2,0-0.3v-0.1c0.1-0.1,0-0.2,0-0.2
		c0-0.1,0-0.2,0-0.5s0-0.4-0.1-0.4c0.1,0,0.1-0.2,0.1-0.4s0-0.4,0-0.4l-0.2-0.1c0-0.2,0-0.3,0.1-0.3l-0.1-0.1v-0.1
		c0-0.3,0-0.5,0-0.5s0,0-0.1,0s0,0-0.1,0c0-0.3,0-0.5,0-0.7c-0.1,0-0.1,0-0.1,0s0-0.1,0-0.2v-0.1v-0.1V34v-0.1l-0.1-0.1
		c-0.1-0.1-0.1-0.2,0-0.3l-0.1-0.1c0-0.1,0-0.1,0-0.2c-0.1,0-0.1-0.1-0.2-0.2c0-0.1,0-0.2,0-0.2c0-0.1,0-0.1,0-0.2
		c-0.1-0.1,0-0.2,0-0.3c0.1-0.1,0.1-0.2,0.1-0.3c0,0,0.1-0.1,0.2-0.2s0.1-0.2,0.2-0.2l0,0v-0.1l0.1,0.1c0,0,0.1,0,0.2,0s0.2,0,0.2,0
		c0.1,0,0.1,0,0.2-0.1s0.1-0.1,0.1-0.1c0.1,0,0.1,0,0.2,0s0.2,0,0.2,0h0.1H72c0.2,0,0.3,0,0.4-0.1c0.4-0.1,0.6-0.1,0.7-0.2h0.2
		c0,0,0,0,0.1,0c0,0,0,0,0.1,0c0,0,0.1,0,0.2,0s0.1,0,0.2-0.1s0.1-0.1,0.2-0.1c0,0,0-0.1,0-0.2c0.1,0,0.1,0,0.1,0s0,0,0,0.1v0.1
		c0.2-0.1,0.4-0.1,0.4-0.2c0.1,0,0.1,0,0.2,0.1l0.3-0.1c0,0,0.1-0.1,0.3-0.2c0,0.1,0.1,0.1,0.1,0.2c0,0,0.1,0,0.2-0.1
		c0.1,0,0.1,0,0.2,0H76c0,0,0.1,0,0.1-0.1c0,0,0.1,0,0.2,0s0.1,0,0.2,0c0.2,0,0.3-0.1,0.4-0.1H77c0.1,0,0.1,0,0.1-0.1
		c0.1,0,0.1,0,0.2,0c0,0,0.1,0,0.2-0.1c0.1,0,0.1,0,0.2,0C77.9,29.4,77.9,29.4,78,29.3C78,29.4,78,29.3,78,29.3L78,29.3z M78.8,29.1
		c0,0,0.1,0,0.2,0s0.2,0,0.2,0l0,0c0,0,0,0,0,0.1c0,0,0.1,0,0.2,0s0.1,0,0.1,0.1c0.1,0,0.2,0,0.4,0.1c0.5,0,0.7,0.1,0.9,0.2h0.1
		c0.1,0.1,0.2,0.1,0.3,0.2s0.3,0.2,0.3,0.2v0.1c0.2,0.1,0.3,0.4,0.4,0.7H82l0,0c0.1,0.2,0,0.3,0,0.4s0,0.2,0,0.3
		c-0.1,0.1-0.1,0.2-0.1,0.2c-0.1,0.1-0.1,0.1-0.1,0.1c0,0.1,0,0.2-0.1,0.3c0,0.1,0,0.1,0,0.1l-0.1,0.1c0,0,0,0-0.1,0c0,0,0,0-0.1,0
		c0,0,0,0.1-0.1,0.1s-0.1,0-0.2,0c0,0,0,0.1-0.1,0.1l-0.1,0.1c-0.1,0-0.2,0-0.2,0c0,0.1,0,0.1,0,0.1s-0.1,0-0.2,0s-0.1,0-0.2,0h-0.1
		h-0.1c0,0,0-0.1,0.1-0.1l-0.1-0.1c0-0.1-0.1-0.1-0.1-0.1l-0.1,0.1h-0.1c0-0.1,0-0.1-0.1-0.2c-0.1-0.1-0.1-0.1-0.2-0.1v0.1v0.1
		l-0.1-0.1l-0.1-0.1c0,0,0,0-0.1-0.1c0-0.2-0.2-0.2-0.5-0.2c-0.1,0-0.1,0-0.2,0.1c-0.1,0-0.1,0-0.2,0s-0.1,0-0.2,0L78,32.1
		c-0.1,0-0.2,0-0.4,0c-0.3,0.1-0.5,0.1-0.5,0.2c-0.2-0.1-0.3-0.1-0.3,0c-0.1,0-0.2,0-0.3,0c-0.1,0-0.2,0-0.2,0v0.1
		c-0.1,0-0.2,0-0.2,0c-0.1-0.1-0.2-0.1-0.2,0c0,0-0.1,0-0.1,0.1l-0.1,0.1c-0.1,0-0.1,0-0.2,0s-0.1,0-0.2,0c0,0-0.1,0-0.1,0.1h-0.1
		c-0.1,0-0.1,0-0.1,0v0.1c-0.3,0-0.4,0-0.5,0c0,0,0,0,0,0.1c0,0,0,0,0,0.1c-0.2-0.1-0.5-0.1-0.7,0.2c0,0-0.1,0-0.1-0.1
		c-0.1,0-0.1,0.1,0,0.2c0,0.1,0,0.1,0.1,0.1v0.1v0.1c0,0.1,0,0.1,0,0.1c0,0.1,0,0.2,0.1,0.2c0,0.1,0,0.2,0.1,0.3s0.1,0.3,0,0.3
		c0,0.1,0,0.2,0.1,0.3c0,0,0,0,0,0.1c0,0,0,0,0,0.1s0,0.1,0,0.2c0,0.1,0.1,0.1,0.1,0.1c0,0.6,0,1,0,1c-0.1,0.1-0.1,0.3,0,0.5
		c0,0,0,0.1,0,0.2c0,0,0,0.1-0.1,0.1c0,0.1,0,0.1,0,0.2c0.1,0.1,0.1,0.1,0.1,0.1v0.1v0.1c0,0.1,0,0.2,0,0.5c0,0.2,0,0.4,0,0.5
		c0,0,0,0.1,0,0.2c0,0.1,0.1,0.1,0.2,0.1s0.2-0.1,0.2-0.1c0.3,0,0.4,0,0.5-0.1c0.3,0,0.5,0,0.5,0c0.2,0,0.3,0,0.4,0
		c0,0,0.1,0,0.1-0.1c0.1,0,0.1-0.1,0.1-0.1s0.1,0,0.2,0c0.2,0,0.3,0,0.3-0.1c0.2,0.1,0.4,0,0.5,0h0.1h0.1h0.1c0.1,0,0.1,0,0.1,0
		c0.1,0,0.3,0,0.4,0v-0.1c0.1,0.1,0.2,0.1,0.4,0c0.2,0,0.3-0.1,0.3-0.1c0.1,0,0.1,0,0.2,0s0.1-0.1,0.1-0.1h0.1c0,0,0,0,0.1,0.1
		c0,0,0.1,0,0.2-0.1s0.2-0.1,0.2-0.1c0.1-0.1,0.1-0.1,0.1-0.1s0.1,0,0.1,0.1c0.2,0,0.4,0,0.4-0.1c0.1,0,0.1,0,0.2,0s0.1,0,0.2,0
		s0.1,0,0.2,0.1c0.1,0,0.2,0.1,0.2,0.1c0.1,0,0.2,0.1,0.2,0.2c0.1,0,0.1,0,0.2,0c0,0,0,0,0.1,0c0,0,0,0.1,0.1,0.1c0.2,0,0.3,0,0.4,0
		c0,0,0,0.1,0.1,0.2v0.1c0,0.1,0.1,0.1,0.2,0.3c0,0.2,0.1,0.3,0.2,0.4c0,0,0,0.1-0.1,0.1c0,0.1,0,0.2-0.1,0.3s-0.1,0.2-0.1,0.3h-0.1
		c0,0,0,0,0,0.1c0,0,0,0,0,0.1H82l0,0l0-0.3c0,0-0.1,0-0.1-0.1h-0.1c0,0-0.1,0-0.1,0.1h-0.1c0,0.1-0.1,0.1-0.3,0.2
		c-0.2,0.1-0.3,0.1-0.3,0.2c-0.2,0-0.4,0-0.6,0.2h-0.1c0,0-0.1,0-0.1,0.1c0,0,0,0,0,0.1c-0.1,0-0.1,0-0.2-0.1h-0.1v0.1
		c-0.1,0-0.1,0-0.3,0s-0.2,0-0.3,0c0,0-0.1,0-0.1,0.1L79.1,41c-0.1,0-0.2,0-0.2,0c-0.1,0-0.1,0.1-0.1,0.2c-0.1-0.1-0.1-0.1-0.2-0.1
		s-0.2,0-0.2,0.1v0.1c-0.1,0-0.1,0-0.2,0c-0.1-0.1-0.1,0-0.2,0c0,0-0.1,0-0.2,0v0.2c-0.1,0-0.1,0-0.3,0c-0.1,0-0.1,0-0.2,0
		s-0.1,0.1,0,0.2l-0.2-0.1c0,0-0.2,0-0.4,0l-0.1,0.1l-0.1,0.1c-0.2,0-0.3,0-0.4,0l-0.1,0c-0.3,0-0.5,0-0.5,0c-0.1,0-0.1,0.1-0.2,0.1
		c0,0,0,0,0,0.1c-0.2,0.1-0.4,0.1-0.5,0c0,0-0.1,0-0.1,0.1l-0.1,0.1c0,0-0.1,0-0.1-0.1L74.4,42c-0.1,0-0.1,0-0.2,0.1
		c-0.1,0-0.1,0-0.2,0s-0.1,0.2,0,0.5v0.1v0.1c0,0.1,0.1,0.1,0.2,0.1c0.1,0.1,0,0.2-0.1,0.2c0,0,0,0.1,0,0.2c0,0.1,0,0.2,0.1,0.2
		c0,0,0,0,0,0.1c0,0,0,0,0,0.1c0,0,0,0.1-0.1,0.3c0.1,0.1,0.1,0.2,0.1,0.5s0,0.5,0.1,0.6c-0.1,0.2-0.1,0.4,0,0.4c0,0.1,0,0.1,0,0.3
		v0.1V46c0.1,0.2,0.1,0.3,0.1,0.4c0.1,0.1,0.1,0.1,0.2,0.3c0.1,0.1,0.1,0.2,0.1,0.3c0.1,0,0.2,0,0.3,0.1c0.2,0,0.3,0,0.3,0
		s0.1,0,0.1-0.1c0.1,0,0.1,0,0.1,0.1c0.4,0,0.6-0.1,0.7-0.1s0.2,0,0.3,0c0.1,0,0.3,0,0.3,0c0.1-0.1,0.3-0.1,0.6-0.2c0,0,0,0,0-0.1
		v-0.1c0.1,0,0.1,0,0.2,0s0.2,0,0.2,0s0.1-0.1,0.2-0.1s0.2-0.1,0.2-0.1c0.2,0,0.3,0,0.5-0.1s0.3-0.2,0.5-0.2c0-0.1,0.1-0.1,0.1-0.1
		c0.2,0.1,0.3,0,0.3,0c0.2,0,0.4-0.1,0.5-0.3c0.1,0,0.2,0,0.2,0c0.1-0.1,0.2-0.1,0.3-0.1c0.5,0,0.7,0,0.8,0.1h0.1
		c0,0.1,0.1,0.3,0.2,0.4h0.1c0.1,0,0.1,0.1,0.2,0.2c0,0.1,0.1,0.2,0.2,0.3c0,0.1,0,0.1,0.1,0.2c0.1,0.1,0.1,0.1,0.1,0.2
		c0,0,0,0,0,0.1s0,0.1,0,0.2c-0.1,0.2-0.2,0.3-0.2,0.4c-0.1,0-0.2,0.1-0.3,0.2c-0.2,0-0.3,0.1-0.3,0.4h-0.1h-0.1
		c0,0-0.1,0.1-0.1,0.2h-0.1h-0.1c0,0-0.1,0-0.1,0.1c-0.2,0-0.3,0.1-0.3,0.2h-0.2c-0.1,0.2-0.3,0.2-0.4,0.1c0,0-0.1,0.1-0.1,0.2h-0.1
		c-0.1-0.1-0.2-0.1-0.3,0c-0.1,0-0.1,0.1-0.1,0.2h-0.2c0,0,0,0,0,0.1v0.1c0,0-0.1-0.1-0.2-0.1s-0.2,0-0.3,0c0,0,0,0.1-0.1,0.1
		c0,0,0,0.1-0.1,0.1h-0.1h-0.1c0,0-0.1,0.1-0.1,0.2c-0.1-0.1-0.3,0-0.4,0c0,0,0,0,0,0.1c-0.1,0-0.2,0-0.3,0c-0.2,0-0.3,0.1-0.3,0.1
		h-0.1c0,0,0,0-0.1,0c0,0-0.1,0-0.2,0s-0.2,0-0.2,0.1s0,0.1,0,0.1s-0.1,0-0.2,0s-0.1,0-0.1,0s0-0.1-0.1-0.1
		c-0.3,0.1-0.4,0.1-0.4,0.1v0.1c-0.1,0-0.1,0-0.2,0l-0.1-0.1l-0.1,0.1h-0.1c0,0-0.1,0-0.2,0s-0.1,0-0.2,0c0-0.1,0-0.1,0-0.1h-0.1
		c-0.1,0-0.1,0.1-0.1,0.2c-0.2,0-0.4,0-0.6,0c0-0.1,0-0.1-0.1-0.2c-0.1,0-0.1,0-0.2,0v0.1c0,0.1,0,0.1,0,0.1s0,0,0-0.1v-0.1h-0.2
		v-0.1C73.6,50,73.5,50,73.4,50c-0.1-0.1-0.2-0.1-0.2-0.1s-0.1,0-0.1-0.1C73,49.7,73,49.7,73,49.6h-0.1h-0.1v-0.1c0,0,0-0.1-0.1-0.1
		s-0.1,0-0.1,0h-0.1c0-0.1,0-0.2-0.2-0.3V49c-0.1-0.1-0.2-0.2-0.3-0.2h-0.1c-0.1-0.1-0.2-0.1-0.2-0.2c-0.1-0.1-0.1-0.2-0.2-0.3
		s-0.1-0.2-0.2-0.2c-0.1-0.4-0.2-0.6-0.2-0.6c0-0.1,0-0.1-0.1-0.3c0-0.1,0-0.1,0-0.2c0-0.1,0-0.2,0-0.2s0-0.1-0.1-0.1v-0.1v-0.1
		c0,0,0-0.1,0-0.3s0-0.3-0.1-0.3c0-0.1,0-0.2,0-0.3c0-0.2,0-0.3,0-0.3c0-0.4,0-1,0-1.7c0-0.8,0-1.3,0-1.7c0.1,0,0.2,0,0.1-0.1
		c0-0.1-0.1-0.2-0.1-0.2c0-0.1,0-0.2,0.1-0.3c0-0.1,0.1-0.2,0.1-0.2c-0.1-0.1-0.1-0.1-0.1-0.2c0-0.1,0-0.1,0.1-0.1
		c0-0.1,0-0.7,0-1.6c0.1,0,0.1-0.1,0.1-0.1c0-0.1,0-0.1-0.1-0.2c0.1,0,0.1-0.1,0-0.2c0-0.1,0-0.2,0-0.3v-0.1c0.1-0.1,0-0.1,0-0.2
		c0-0.1,0-0.2,0-0.5s0-0.4-0.1-0.4c0.1,0,0.1-0.2,0.1-0.4s0-0.4,0-0.4l-0.2-0.1c0-0.2,0-0.3,0.1-0.3l-0.1-0.1v-0.1
		c0-0.3,0-0.5,0-0.5s0,0-0.1,0s0,0-0.1,0c0-0.3,0-0.5,0-0.7c-0.1,0-0.1,0-0.1,0s0-0.1,0-0.2v-0.1v-0.1v-0.1V34l-0.1-0.1
		c-0.1-0.1-0.1-0.2,0-0.3l-0.1-0.1c0-0.1,0-0.1,0-0.2c-0.1,0-0.1-0.1-0.2-0.2c0-0.1,0-0.2,0-0.2c0-0.1,0-0.1,0-0.2
		c-0.1-0.1,0-0.2,0-0.3c0.1-0.1,0.1-0.2,0.1-0.3c0,0,0.1-0.1,0.2-0.2c0.1-0.1,0.1-0.2,0.2-0.2l0,0v-0.1l0.1,0.1c0,0,0.1,0,0.2,0
		s0.2,0,0.2,0c0.1,0,0.1,0,0.2-0.1s0.1-0.1,0.1-0.1c0.1,0,0.1,0,0.2,0s0.2,0,0.2,0h0.1H72c0.2,0,0.3,0,0.4-0.1
		c0.4-0.1,0.6-0.1,0.7-0.2h0.2c0,0,0,0,0.1,0c0,0,0,0,0.1,0c0,0,0.1,0,0.2,0s0.1,0,0.2-0.1S74,31,74.1,31c0,0,0-0.1,0-0.2
		c0.1,0,0.1,0,0.1,0s0,0,0,0.1V31c0.2-0.1,0.4-0.1,0.4-0.2c0.1,0,0.1,0,0.2,0.1l0.3-0.1c0,0,0.1-0.1,0.3-0.2c0,0.1,0.1,0.1,0.1,0.2
		c0,0,0.1,0,0.2-0.1c0.1,0,0.1,0,0.2,0H76c0,0,0.1,0,0.1-0.1c0,0,0.1,0,0.2,0s0.1,0,0.2,0c0.2,0,0.3-0.1,0.4-0.1H77
		c0.1,0,0.1,0,0.1-0.1c0.1,0,0.1,0,0.2,0c0,0,0.1,0,0.2-0.1c0.1,0,0.1,0,0.2,0s0.1,0,0.1,0l0,0l0,0C78.5,29.4,78.8,29.3,78.8,29.1z"
		/>
	<path fill="#54813B" d="M34.4,52c0,0.1,0.1,0.2,0.2,0.2l0.1-0.1l0,0c0.1,0,0.1,0,0.1,0v0.1l0.1,0.1c0.1,0.1,0.1,0.1,0.1,0.2
		c0.1,0.1,0.1,0.2,0.2,0.3c0.1,0.1,0.2,0.1,0.3,0.1c0,0.1,0,0.1-0.1,0.2h-0.1c0,0.1,0,0.1,0.1,0.2c0,0.1,0,0.1,0.1,0.2
		c0,0.1,0.1,0.1,0.1,0.2v0.1c0,0.1,0,0.1,0,0.1V54l0.1,0.1v0.1v0.1c0,0,0,0.1,0.1,0.1c0,0,0,0.1,0.1,0.1c0,0.2,0.1,0.3,0.1,0.3
		c0.1,0.3,0.1,0.5,0.2,0.5c0,0.3,0,0.4,0.1,0.5c0,0.1,0,0.2,0,0.3c0.1,0.1,0.1,0.2,0,0.3v0.1c0,0,0,0.1,0,0.2s0,0.1,0,0.2h0.1h0.1
		c0,0.2,0,0.4,0,0.5s0,0.1,0,0.1l0,0l0,0c0,0,0,0,0,0.1v0.1v0.1v0.1c0,0.1,0,0.2,0.1,0.5c0.1,0.2,0.1,0.4,0,0.6
		c0.1,0.1,0.2,0.3,0.2,0.5c0,0.1,0,0.1,0,0.1s0,0,0,0.1c0,0,0,0.1,0.1,0.1c0,0,0,0.1,0,0.2c0,0.1,0,0.1,0,0.2v0.1l0.1,0.1
		c0,0,0,0.1,0,0.2c0,0.1,0,0.2,0,0.2c0,0.1,0,0.1,0.1,0.2c0.1,0.1,0.1,0.1,0,0.2l0.2,0.1c0,0.1,0,0.1-0.1,0.2c0,0.1,0,0.1,0,0.2
		c0,0.1,0,0.1,0,0.1s0,0,0,0.1c0,0,0,0,0,0.1l0,0c0.1,0.2,0.1,0.3,0,0.3c0.1,0.3,0.1,0.5,0.1,0.6h0.1c0,0,0,0.2,0,0.5v0.1
		c0,0,0,0.1,0.1,0.2c0,0,0,0.1,0,0.2c0,0.1,0,0.2,0,0.2s0,0.1,0.1,0.2c0,0.1,0.1,0.1,0.1,0.2s0,0.2,0,0.2v0.1v0.1
		c0,0.1,0.1,0.1,0.1,0.1c0.1,0.2,0.1,0.3,0.1,0.3c-0.1,0.1-0.1,0.2,0,0.2l0,0v0.1v0.1l0.1,0.1c0,0.1,0,0.1,0,0.2s0,0.1,0,0.3
		c0,0.1,0,0.2,0,0.3c0,0,0,0.1,0.1,0.1l0.1,0.1c0.1,0.2,0.1,0.4,0.1,0.4s0.1,0.1,0.2,0.1c0.1,0,0.2,0.1,0.2,0.1v0.1l0.1,0.1
		c0.1,0,0.1,0,0.2,0.1c0,0.1,0,0.2,0.1,0.3c0.1,0.1,0.1,0.2,0.1,0.3c0.1,0.1,0.1,0.1,0.1,0.1c-0.1,0.1-0.1,0.2-0.2,0.2
		c0,0,0,0.1-0.1,0.2c0,0.1,0,0.2-0.1,0.3c-0.1,0-0.1,0.1-0.1,0.1c0,0.1,0,0.1,0,0.2s0,0.1,0,0.1s0,0,0,0.1v0.1c0,0,0,0.1,0.1,0.1
		l0.1,0.1c0,0.1,0,0.1,0,0.2s0,0.2,0.1,0.2c0,0.4,0.1,0.7,0.3,0.8c-0.1,0.3,0,0.5,0.1,0.6c0,0.1,0,0.2,0.1,0.2h0.1V72
		c0,0.1,0,0.1,0,0.1c0,0.1,0,0.1,0,0.1l0.1,0.1c0,0.1,0,0.2,0.1,0.3c0.1,0.1,0.1,0.2,0.1,0.2s0.1,0.1,0.1,0.3c0,0.1,0.1,0.2,0.2,0.3
		c0,0.2,0.1,0.2,0.2,0.2c0,0,0,0.1,0.1,0.1c0,0.1,0.1,0.1,0.1,0.2c0.1,0.1,0.2,0.2,0.2,0.3l0.1,0.1l0.1,0.1v0.1c0,0.1,0,0.1,0,0.1
		c0,0.1,0,0.2,0,0.3c0,0.1,0,0.3,0,0.3c0.1,0.1,0.1,0.2,0,0.4c-0.1,0-0.2,0.1-0.2,0.2c-0.1,0-0.2,0.1-0.3,0.2s-0.2,0.2-0.3,0.2v0.1
		v0.1h-0.4c0-0.1-0.1-0.2-0.2-0.3c-0.1-0.1-0.2-0.1-0.2-0.2c-0.2,0-0.3,0-0.4-0.1v0.1V76C39,76,39,76,39,75.9s0-0.1,0-0.1
		c0-0.1-0.1-0.1-0.2-0.1c-0.2-0.2-0.4-0.4-0.6-0.4c0-0.2-0.1-0.4-0.3-0.4c0-0.1,0-0.1,0-0.2l0,0c0-0.1-0.1-0.1-0.1-0.3
		c-0.1-0.1-0.1-0.2-0.1-0.2c-0.1,0-0.1,0-0.1,0c0.1-0.2,0-0.3-0.1-0.4c0-0.1,0-0.2-0.1-0.3h-0.1l0,0v-0.1c0-0.1,0-0.1,0-0.1
		s0-0.1-0.1-0.1c0-0.1,0-0.1,0-0.2H37l0.1-0.2c0-0.1,0-0.2-0.1-0.2c0-0.2-0.1-0.4-0.2-0.4v-0.1c0-0.1,0-0.1,0-0.1v-0.1v-0.1
		c0,0,0-0.1-0.1-0.2c0-0.1-0.1-0.2-0.1-0.2c-0.1-0.3-0.1-0.4-0.2-0.5v-0.1v-0.1c0,0,0-0.1-0.1-0.1l-0.1-0.1v-0.1c0-0.1,0-0.1,0-0.1
		s0,0,0-0.1c0,0,0,0,0-0.1c-0.1-0.1-0.1-0.2-0.1-0.2s-0.1,0-0.2,0c-0.1,0-0.1,0-0.2,0C36,70,35.9,70,35.9,70l0,0l0,0h-0.1h-0.1
		c-0.1,0-0.1,0-0.1,0.1c0,0-0.1,0-0.1-0.1c-0.1,0-0.1,0-0.2,0.1c-0.1,0-0.1,0.1-0.1,0.1c-0.1-0.1-0.1-0.1-0.2-0.1
		c-0.1,0-0.1,0.1-0.1,0.2c-0.2,0-0.3,0-0.3,0c-0.1-0.1-0.1-0.1-0.2-0.1c0,0-0.1,0-0.1,0.1c0,0-0.1,0-0.2-0.1c-0.1,0-0.2,0-0.3,0.2
		c-0.1,0-0.2,0-0.2,0c-0.1-0.1-0.2-0.1-0.4-0.1s-0.3,0.1-0.3,0.1c-0.5,0-0.7,0-0.8,0s-0.2,0-0.4,0c-0.2,0-0.3,0-0.4,0
		c0,0.1,0,0.1,0,0.2c-0.1,0-0.1,0-0.3-0.2c0,0-0.1,0-0.1,0.1c0,0-0.1,0-0.3,0c-0.1,0-0.2,0-0.3,0c0,0-0.1,0-0.1-0.1h-0.1
		c-0.1,0-0.1,0-0.2,0.1c-0.1-0.1-0.2-0.1-0.2-0.1s-0.1,0-0.1,0.1s-0.1,0.1-0.1,0.1c-0.1-0.1-0.1-0.2-0.1-0.2s-0.1,0-0.2,0.1
		s-0.1,0.1-0.1,0.1s-0.1,0.1-0.2,0.2c0,0.1,0,0.2-0.1,0.3v0.1l-0.1,0.1l-0.1,0.1c0,0.1,0,0.1-0.1,0.2c0,0.1-0.1,0.2-0.1,0.3l0,0l0,0
		V72c0,0,0,0.1-0.1,0.2c0,0.1-0.1,0.2-0.2,0.4c0.1,0.1,0,0.1,0,0.2C28,72.9,28,72.9,28,72.9s0,0,0,0.1v0.1c0,0,0,0-0.1,0.1
		c-0.1,0-0.1,0-0.1,0.1c0,0.2-0.1,0.4-0.2,0.5c0,0.1,0,0.2,0,0.3h-0.2c-0.1,0.3-0.1,0.4-0.2,0.4c0,0.1,0,0.1,0.1,0.2
		c0,0,0,0.1-0.1,0.1c0,0,0,0.1-0.1,0.2c-0.1,0-0.1,0.1-0.2,0.3c0,0,0,0.1-0.1,0.1v0.1c0,0,0,0,0,0.1v0.1c-0.1,0.2-0.2,0.3-0.2,0.4
		l-0.1,0.1c0,0.1,0,0.1-0.1,0.2v0.1v0.1c0,0,0,0.1-0.1,0.1c0,0,0,0-0.1,0c0,0,0,0-0.1,0c0,0-0.1,0.1-0.1,0.2c-0.1,0-0.1,0-0.1,0.1
		s-0.1,0.1-0.1,0.1s-0.1,0-0.1-0.1l-0.1-0.1c-0.1,0-0.1,0-0.1,0h-0.1c0-0.1,0-0.2,0-0.2c-0.2,0-0.4,0-0.4,0c0-0.1,0-0.2-0.1-0.2
		h-0.1h-0.1c0,0,0,0,0-0.1s0-0.1,0-0.1c-0.1,0-0.1,0-0.1,0c0,0.1,0,0.1-0.1,0.1c0-0.1,0-0.1-0.1-0.2s-0.1-0.1-0.1-0.2
		c-0.1,0-0.1,0-0.1,0c0-0.1,0-0.2,0-0.2h-0.1c0-0.1,0-0.3,0-0.4l0,0l0,0c0.1-0.1,0.1-0.3,0.1-0.5c-0.1-0.1-0.1-0.2-0.1-0.2h0.1l0,0
		c0,0,0-0.1,0-0.2h0.1c0,0,0-0.1,0-0.2s0-0.1,0-0.1l0.1-0.1c0-0.1,0.1-0.2,0.2-0.3c0-0.1,0-0.1,0-0.1l-0.1-0.1
		c0.1,0,0.2-0.1,0.2-0.2c0,0,0.1,0,0.1-0.1s0-0.2,0-0.2c0-0.1,0-0.1,0-0.1v-0.1c0-0.1,0-0.1,0-0.1s0-0.1,0.1-0.1
		c0-0.1,0.1-0.2,0.2-0.3c0.1-0.1,0.1-0.2,0.1-0.3c0.1-0.2,0.1-0.3,0.2-0.3c0-0.1,0-0.3,0.1-0.5s0.1-0.3,0.1-0.4c0.1,0,0.1,0,0.2-0.1
		s0.1-0.1,0.1-0.1c0-0.1,0-0.2,0.1-0.3c0.1-0.1,0.1-0.2,0.1-0.3C26,70,26,70,26.1,69.9h0.1c0.1-0.1,0.1-0.2,0-0.3
		c-0.1,0-0.2,0-0.2,0c0-0.2-0.2-0.4-0.4-0.6c0,0,0,0,0.1-0.1c0,0,0.1,0,0.1-0.1s0-0.1-0.1-0.2s-0.1-0.1-0.1-0.1s0.1-0.1,0.2-0.4
		c0-0.1,0.1-0.2,0.2-0.3c0.1-0.1,0.2-0.1,0.2-0.2l0.5-0.1c0.1,0,0.2,0,0.3,0c0.2,0,0.2,0,0.2-0.1v-0.1c0-0.1,0-0.1,0-0.1
		s0.1,0,0.1-0.1s0-0.1,0-0.1v-0.1l0.1-0.1v-0.1c0-0.2,0.1-0.3,0.2-0.4c0.1-0.2,0.1-0.4,0-0.5c0.1,0,0.1-0.1,0.2-0.2s0.1-0.2,0.1-0.2
		c0-0.1,0-0.2,0.1-0.3c0.1-0.1,0.1-0.2,0-0.3c0-0.1,0.1-0.1,0.1-0.2s0.1-0.2,0.1-0.2c0-0.1,0-0.2,0.1-0.3c0,0,0-0.1,0.1-0.2
		c0,0,0,0,0-0.1c0,0,0,0,0-0.1c0.1-0.1,0.1-0.1,0.1-0.2v-0.1v-0.1c0,0,0,0,0.1-0.1c0.1-0.2,0.1-0.3,0.2-0.4v-0.2c0,0,0,0,0.1-0.1
		c0,0,0.1,0,0.1-0.1v-0.1c0-0.1,0-0.1,0-0.1c0.1-0.2,0.1-0.3,0.1-0.4l0.1-0.1l0.1-0.1v-0.1c0-0.1,0-0.1,0-0.1s0-0.1,0.1-0.1
		s0.1-0.1,0.1-0.1v-0.1c0-0.1,0-0.1,0-0.2c0.1,0,0.1-0.1,0.1-0.1c0.4,0.2,0.4,0.1,0.4,0c0-0.1,0-0.2,0.1-0.3s0.1-0.3,0.1-0.4
		c0.1,0,0.1-0.1,0.1-0.3s0.1-0.3,0.1-0.3c0-0.1,0-0.1,0.1-0.2c0-0.1,0-0.1,0.1-0.1v-0.1V59c0,0,0.1,0,0.1-0.1c0.1,0,0.1-0.1,0.1-0.1
		s0-0.1,0-0.2c0-0.1,0-0.1,0-0.2c0,0,0,0-0.1,0h-0.1c0-0.1,0-0.1,0-0.2c0.1,0,0.2,0,0.2,0v-0.1V58v-0.1l0.1-0.1c0-0.1,0-0.1,0-0.2
		c0-0.1,0-0.1,0-0.1c0-0.1,0-0.1,0.1-0.3c0.1-0.1,0.1-0.2,0.1-0.3c0.1-0.1,0.1-0.1,0.1-0.3c0-0.1,0-0.2,0.1-0.2v-0.1l0.1-0.1
		c0-0.1,0.1-0.1,0.1-0.1c0-0.1,0-0.2,0-0.3c0.1-0.1,0.1-0.2,0.1-0.2v-0.1v-0.1c0,0,0-0.1,0.1-0.2c0-0.1,0-0.1,0.1-0.2
		c0.1-0.1,0.1-0.1,0.1-0.2v-0.1c0-0.1,0-0.1,0-0.2C32,54.3,32,54.1,32,54h0.1c0-0.2,0.1-0.3,0.2-0.5c0-0.1,0-0.2,0.1-0.2
		c0,0,0,0-0.1-0.1c0,0,0,0,0-0.1h-0.1c-0.1-0.1-0.1-0.1,0-0.2c0.1,0,0.1,0,0.1,0c0-0.1,0-0.1,0-0.2c-0.1-0.2-0.1-0.2,0-0.2
		s0.1,0,0.1-0.1c0,0,0,0,0.1,0.1c0,0,0,0,0.1,0c0-0.1,0.1-0.1,0.1-0.3c0-0.1,0-0.1,0-0.1s0,0,0.1,0s0,0,0.1,0
		c0.3-0.2,0.5-0.2,0.7-0.1c0.1,0.1,0.1,0.1,0.2,0.1c0,0,0.1,0,0.1-0.1C34.1,51.8,34.2,51.8,34.4,52z M34.4,52c0,0.1,0.1,0.2,0.2,0.2
		l0.1-0.1l0,0c0.1,0,0.1,0,0.1,0v0.1l0.1,0.1c0.1,0.1,0.1,0.1,0.1,0.2c0.1,0.1,0.1,0.2,0.2,0.3c0.1,0.1,0.2,0.1,0.3,0.1
		c0,0.1,0,0.1-0.1,0.2h-0.1c0,0.1,0,0.1,0.1,0.2c0,0.1,0,0.1,0.1,0.2c0,0.1,0.1,0.1,0.1,0.2v0.1c0,0.1,0,0.1,0,0.1V54l0.1,0.1v0.1
		v0.1c0,0,0,0.1,0.1,0.1c0,0,0,0.1,0.1,0.1c0,0.2,0.1,0.3,0.1,0.3c0.1,0.3,0.1,0.5,0.2,0.5c0,0.3,0,0.4,0.1,0.5c0,0.1,0,0.2,0,0.3
		c0.1,0.1,0.1,0.2,0,0.3v0.1c0,0,0,0.1,0,0.2s0,0.1,0,0.2h0.1h0.1c0,0.2,0,0.4,0,0.5s0,0.1,0,0.1l0,0l0,0c0,0,0,0,0,0.1v0.1
		c0,0,0,0.1,0,0.2c0,0.1,0,0.3,0.1,0.5s0.1,0.4,0,0.6c0.1,0.1,0.2,0.3,0.2,0.5c0,0.1,0,0.1,0,0.1s0,0,0,0.1c0,0,0,0.1,0.1,0.1
		c0,0,0,0.1,0,0.2c0,0.1,0,0.1,0,0.2v0.1l0.1,0.1c0,0,0,0.1,0,0.2c0,0.1,0,0.2,0,0.2c0,0.1,0,0.1,0.1,0.2c0.1,0.1,0.1,0.1,0,0.2
		l0.2,0.1c0,0.1,0,0.1-0.1,0.2c0,0.1,0,0.1,0,0.2c0,0.1,0,0.1,0,0.1s0,0,0,0.1c0,0,0,0,0,0.1l0,0c0.1,0.2,0.1,0.3,0,0.3
		c0.1,0.3,0.1,0.5,0.1,0.6h0.1c0,0,0,0.2,0,0.5v0.1c0,0,0,0.1,0.1,0.2c0,0,0,0.1,0,0.2c0,0.1,0,0.2,0,0.2s0,0.1,0.1,0.2
		c0,0.1,0.1,0.1,0.1,0.2s0,0.2,0,0.2v0.1v0.1c0,0.1,0.1,0.1,0.1,0.1c0.1,0.2,0.1,0.3,0.1,0.3c-0.1,0.1-0.1,0.2,0,0.2l0,0v0.1v0.1
		l0.1,0.1c0,0.1,0,0.1,0,0.2s0,0.1,0,0.3c0,0.1,0,0.2,0,0.3c0,0,0,0.1,0.1,0.1l0.1,0.1c0.1,0.2,0.1,0.4,0.1,0.4s0.1,0.1,0.2,0.1
		c0.1,0,0.2,0.1,0.2,0.1v0.1l0.1,0.1c0.1,0,0.1,0,0.2,0.1c0,0.1,0,0.2,0.1,0.3c0.1,0.1,0.1,0.2,0.1,0.3c0.1,0.1,0.1,0.1,0.1,0.1
		c-0.1,0.1-0.1,0.2-0.2,0.2c0,0,0,0.1-0.1,0.2s0,0.2-0.1,0.3c-0.1,0-0.1,0.1-0.1,0.1c0,0.1,0,0.1,0,0.2s0,0.1,0,0.1s0,0,0,0.1v0.1
		c0,0,0,0.1,0.1,0.1l0.1,0.1c0,0.1,0,0.1,0,0.2s0,0.2,0.1,0.2c0,0.4,0.1,0.7,0.3,0.8c-0.1,0.3,0,0.5,0.1,0.6c0,0.1,0,0.2,0.1,0.2
		h0.1l0,0V72c0,0.1,0,0.1,0,0.1c0,0.1,0,0.1,0,0.1l0.1,0.1c0,0.1,0,0.2,0.1,0.3c0.1,0.1,0.1,0.2,0.1,0.2s0.1,0.1,0.1,0.3
		c0,0.1,0.1,0.2,0.2,0.3c0,0.2,0.1,0.2,0.2,0.2c0,0,0,0.1,0.1,0.1c0,0.1,0.1,0.1,0.1,0.2c0.1,0.1,0.2,0.2,0.2,0.3l0.1,0.1l0.1,0.1
		v0.1c0,0.1,0,0.1,0,0.1c0,0.1,0,0.2,0,0.3c0,0.1,0,0.3,0,0.3c0.1,0.1,0.1,0.2,0,0.4c-0.1,0-0.2,0.1-0.2,0.2c-0.1,0-0.2,0.1-0.3,0.2
		s-0.2,0.2-0.3,0.2v0.1v0.1h-0.4c0-0.1-0.1-0.2-0.2-0.3c-0.1-0.1-0.2-0.1-0.2-0.2c-0.2,0-0.3,0-0.4-0.1v0.1V76C39,76,39,76,39,75.9
		s0-0.1,0-0.1c0-0.1-0.1-0.1-0.2-0.1c-0.2-0.2-0.4-0.4-0.6-0.4c0-0.2-0.1-0.4-0.3-0.4c0-0.1,0-0.1,0-0.2l0,0c0-0.1-0.1-0.1-0.1-0.3
		c-0.1-0.1-0.1-0.2-0.1-0.2c-0.1,0-0.1,0-0.1,0c0.1-0.2,0-0.3-0.1-0.4c0-0.1,0-0.2-0.1-0.3h-0.1l0,0v-0.1c0-0.1,0-0.1,0-0.1
		s0-0.1-0.1-0.1c0-0.1,0-0.1,0-0.2H37l0.1-0.2c0-0.1,0-0.2-0.1-0.2c0-0.2-0.1-0.4-0.2-0.4v-0.1c0-0.1,0-0.1,0-0.1v-0.1v-0.1
		c0,0,0-0.1-0.1-0.2c0-0.1-0.1-0.2-0.1-0.2c-0.1-0.3-0.1-0.4-0.2-0.5v-0.1v-0.1c0,0,0-0.1-0.1-0.1l-0.1-0.1v-0.1c0-0.1,0-0.1,0-0.1
		s0,0,0-0.1c0,0,0,0,0-0.1c-0.1-0.1-0.1-0.2-0.1-0.2s-0.1,0-0.2,0c-0.1,0-0.1,0-0.2,0C36,70,35.9,70,35.9,70l0,0l0,0h-0.1h-0.1
		c-0.1,0-0.1,0-0.1,0.1c0,0-0.1,0-0.1-0.1c-0.1,0-0.1,0-0.2,0.1c-0.1,0-0.1,0.1-0.1,0.1c-0.1-0.1-0.1-0.1-0.2-0.1
		c-0.1,0-0.1,0.1-0.1,0.2c-0.2,0-0.3,0-0.3,0c-0.1-0.1-0.1-0.1-0.2-0.1c0,0-0.1,0-0.1,0.1c0,0-0.1,0-0.2-0.1c-0.1,0-0.2,0-0.3,0.2
		c-0.1,0-0.2,0-0.2,0c-0.1-0.1-0.2-0.1-0.4-0.1s-0.3,0.1-0.3,0.1c-0.5,0-0.7,0-0.8,0s-0.2,0-0.4,0c-0.2,0-0.3,0-0.4,0
		c0,0.1,0,0.1,0,0.2c-0.1,0-0.1,0-0.3-0.2c0,0-0.1,0-0.1,0.1c0,0-0.1,0-0.3,0c-0.1,0-0.2,0-0.3,0c0,0-0.1,0-0.1-0.1h-0.1
		c-0.1,0-0.1,0-0.2,0.1c-0.1-0.1-0.2-0.1-0.2-0.1s-0.1,0-0.1,0.1s-0.1,0.1-0.1,0.1c-0.1-0.1-0.1-0.2-0.1-0.2s-0.1,0-0.2,0.1
		s-0.1,0.1-0.1,0.1s-0.1,0.1-0.2,0.2c0,0.1,0,0.2-0.1,0.3v0.1l-0.1,0.1l-0.1,0.1c0,0.1,0,0.1-0.1,0.2c0,0.1-0.1,0.2-0.1,0.3l0,0l0,0
		V72c0,0,0,0.1-0.1,0.2c0,0.1-0.1,0.2-0.2,0.4c0.1,0.1,0,0.1,0,0.2C28,72.9,28,72.9,28,72.9s0,0,0,0.1v0.1c0,0,0,0-0.1,0.1
		c-0.1,0-0.1,0-0.1,0.1c0,0.2-0.1,0.4-0.2,0.5c0,0.1,0,0.2,0,0.3h-0.2c-0.1,0.3-0.1,0.4-0.2,0.4c0,0.1,0,0.1,0.1,0.2
		c0,0,0,0.1-0.1,0.1c0,0,0,0.1-0.1,0.2c-0.1,0-0.1,0.1-0.2,0.3c0,0,0,0.1-0.1,0.1v0.1c0,0,0,0,0,0.1v0.1c-0.1,0.2-0.2,0.3-0.2,0.4
		l-0.1,0.1c0,0.1,0,0.1-0.1,0.2v0.1v0.1c0,0,0,0.1-0.1,0.1c0,0,0,0-0.1,0c0,0,0,0-0.1,0c0,0-0.1,0.1-0.1,0.2c-0.1,0-0.1,0-0.1,0.1
		s-0.1,0.1-0.1,0.1s-0.1,0-0.1-0.1l-0.1-0.1c-0.1,0-0.1,0-0.1,0h-0.1c0-0.1,0-0.2,0-0.2c-0.2,0-0.4,0-0.4,0c0-0.1,0-0.2-0.1-0.2
		h-0.1h-0.1c0,0,0,0,0-0.1s0-0.1,0-0.1c-0.1,0-0.1,0-0.1,0c0,0.1,0,0.1-0.1,0.1c0-0.1,0-0.1-0.1-0.2s-0.1-0.1-0.1-0.2
		c-0.1,0-0.1,0-0.1,0c0-0.1,0-0.2,0-0.2h-0.1c0-0.1,0-0.3,0-0.4l0,0l0,0c0.1-0.1,0.1-0.3,0.1-0.5c-0.1-0.1-0.1-0.2-0.1-0.2h0.1l0,0
		c0,0,0-0.1,0-0.2h0.1c0,0,0-0.1,0-0.2s0-0.1,0-0.1l0.1-0.1c0-0.1,0.1-0.2,0.2-0.3c0-0.1,0-0.1,0-0.1l-0.1-0.1
		c0.1,0,0.2-0.1,0.2-0.2c0,0,0.1,0,0.1-0.1s0-0.2,0-0.2c0-0.1,0-0.1,0-0.1v-0.1c0-0.1,0-0.1,0-0.1s0-0.1,0.1-0.1
		c0-0.1,0.1-0.2,0.2-0.3c0.1-0.1,0.1-0.2,0.1-0.3c0.1-0.2,0.1-0.3,0.2-0.3c0-0.1,0-0.3,0.1-0.5s0.1-0.3,0.1-0.4c0.1,0,0.1,0,0.2-0.1
		s0.1-0.1,0.1-0.1c0-0.1,0-0.2,0.1-0.3c0.1-0.1,0.1-0.2,0.1-0.3C26,70,26,70,26.1,69.9h0.1c0.1-0.1,0.1-0.2,0-0.3
		c-0.1,0-0.2,0-0.2,0c0-0.2-0.2-0.4-0.4-0.6c0,0,0,0,0.1-0.1c0,0,0.1,0,0.1-0.1s0-0.1-0.1-0.2s-0.1-0.1-0.1-0.1s0.1-0.1,0.2-0.4
		c0-0.1,0.1-0.2,0.2-0.3c0.1-0.1,0.2-0.1,0.2-0.2l0.5-0.1c0.1,0,0.2,0,0.3,0c0.2,0,0.2,0,0.2-0.1v-0.1c0-0.1,0-0.1,0-0.1
		s0.1,0,0.1-0.1s0-0.1,0-0.1v-0.1l0.1-0.1v-0.1c0-0.2,0.1-0.3,0.2-0.4c0.1-0.2,0.1-0.4,0-0.5c0.1,0,0.1-0.1,0.2-0.2s0.1-0.2,0.1-0.2
		c0-0.1,0-0.2,0.1-0.3c0.1-0.1,0.1-0.2,0-0.3c0-0.1,0.1-0.1,0.1-0.2c0.1-0.1,0.1-0.2,0.1-0.2c0-0.1,0-0.2,0.1-0.3c0,0,0-0.1,0.1-0.2
		c0,0,0,0,0-0.1c0,0,0,0,0-0.1c0.1-0.1,0.1-0.1,0.1-0.2v-0.1v-0.1c0,0,0,0,0.1-0.1c0.1-0.2,0.1-0.3,0.2-0.4v-0.2c0,0,0,0,0.1-0.1
		c0,0,0.1,0,0.1-0.1v-0.1c0-0.1,0-0.1,0-0.1c0.1-0.2,0.1-0.3,0.1-0.4l0.1-0.1l0.1-0.1v-0.1c0-0.1,0-0.1,0-0.1s0-0.1,0.1-0.1
		s0.1-0.1,0.1-0.1v-0.1c0-0.1,0-0.1,0-0.2c0.1,0,0.1-0.1,0.1-0.1c0.4,0.2,0.4,0.1,0.4,0c0-0.1,0-0.2,0.1-0.3s0.1-0.3,0.1-0.4
		c0.1,0,0.1-0.1,0.1-0.3s0.1-0.3,0.1-0.3c0-0.1,0-0.1,0.1-0.2c0-0.1,0-0.1,0.1-0.1v-0.1V59c0,0,0.1,0,0.1-0.1c0.1,0,0.1-0.1,0.1-0.1
		s0-0.1,0-0.2c0-0.1,0-0.1,0-0.2c0,0,0,0-0.1,0h-0.1c0-0.1,0-0.1,0-0.2c0.1,0,0.2,0,0.2,0v-0.1V58v-0.1l0.1-0.1c0-0.1,0-0.1,0-0.2
		c0-0.1,0-0.1,0-0.1c0-0.1,0-0.1,0.1-0.3c0.1-0.1,0.1-0.2,0.1-0.3c0.1-0.1,0.1-0.1,0.1-0.3c0-0.1,0-0.2,0.1-0.2v-0.1l0.1-0.1
		c0-0.1,0.1-0.1,0.1-0.1c0-0.1,0-0.2,0-0.3c0.1-0.1,0.1-0.2,0.1-0.2v-0.1v-0.1c0,0,0-0.1,0.1-0.2c0-0.1,0-0.1,0.1-0.2
		c0.1-0.1,0.1-0.1,0.1-0.2v-0.1c0-0.1,0-0.1,0-0.2C32,54.3,32,54.1,32,54h0.1c0-0.2,0.1-0.3,0.2-0.5c0-0.1,0-0.2,0.1-0.2
		c0,0,0,0-0.1-0.1c0,0,0,0,0-0.1h-0.1c-0.1-0.1-0.1-0.1,0-0.2c0.1,0,0.1,0,0.1,0c0-0.1,0-0.1,0-0.2c-0.1-0.2-0.1-0.2,0-0.2
		s0.1,0,0.1-0.1c0,0,0,0,0.1,0.1c0,0,0,0,0.1,0c0-0.1,0.1-0.1,0.1-0.3c0-0.1,0-0.1,0-0.1s0,0,0.1,0s0,0,0.1,0
		c0.3-0.2,0.5-0.2,0.7-0.1c0.1,0.1,0.1,0.1,0.2,0.1c0,0,0.1,0,0.1-0.1C34.1,51.8,34.2,51.8,34.4,52z M26.5,70.1L26.5,70.1L26.5,70.1
		z M26.5,70.1L26.5,70.1L26.5,70.1z M33.7,57.5L33.7,57.5C33.6,57.6,33.6,57.6,33.7,57.5l-0.1,0.2c0,0.1,0,0.1,0,0.2
		c0,0.1-0.1,0.1-0.1,0.1s0,0,0,0.1v0.1c0,0,0,0.1-0.1,0.1l-0.1,0.1c0,0,0,0.1,0,0.2c0,0.1,0,0.2-0.1,0.2v0.1
		c-0.1,0.1-0.1,0.2-0.1,0.4C33,59.4,33,59.4,33,59.4v0.1c0,0.1,0,0.1-0.1,0.2c-0.1,0.1-0.1,0.1-0.1,0.1s0,0,0,0.1s0,0.1,0,0.1
		s0,0.1-0.1,0.1l-0.1,0.1c0,0,0,0.1,0,0.2c0,0.1,0,0.1,0,0.2l-0.1,0.3c0,0,0,0.1,0,0.2v0.1l-0.1,0.3c-0.1,0-0.1,0.1-0.1,0.2
		c0,0.1-0.1,0.2-0.1,0.3s0,0.1,0,0.1c-0.1,0.2-0.1,0.3-0.1,0.4c0,0-0.1,0.1-0.1,0.2c0,0.1-0.1,0.2-0.1,0.2l-0.1,0.3v0.1
		c0,0,0,0,0,0.1c0,0,0,0,0,0.1c0,0,0,0,0,0.1c0,0,0,0,0,0.1v0.1v0.1c-0.1,0.2-0.1,0.3-0.1,0.4s0,0.1-0.1,0.2s-0.1,0.1-0.1,0.2v0.1
		v0.1c0,0,0,0.1,0,0.2s0,0.1,0,0.2c0,0-0.1,0-0.1,0.1l-0.1,0.1c0,0.1,0,0.1,0,0.2s0,0.2,0,0.2s-0.1,0.1-0.1,0.2
		c-0.1,0.1-0.1,0.2-0.1,0.4c-0.1,0-0.1,0.1-0.1,0.2s-0.1,0.2-0.1,0.2c0,0.3,0,0.5-0.1,0.5c0,0.1,0,0.2-0.1,0.2l-0.1,0.1v0.1v0.1V68
		c0,0.1,0.1,0.1,0.4,0c0,0,0.1,0,0.3,0c0,0,0,0,0.1,0c0,0,0,0,0.1,0h0.1h0.1h0.1c0.4,0,0.6,0,0.7-0.1c0.1,0.1,0.3,0.1,0.5,0h0.1
		l0.1-0.1h0.1h0.1c0.2,0,0.4,0,0.4,0h0.1H34c0.1,0.1,0.2,0.1,0.4,0.1l0.1-0.1c0.1,0,0.2,0,0.4,0s0.3,0,0.4,0
		c0.1-0.1,0.1-0.1,0.1-0.1c0.1,0,0.1,0,0.1,0l0.1-0.1h0.1c0.1,0,0.1,0,0.1,0s0.1,0,0.2-0.1c0.1-0.1,0.1-0.1,0.1-0.1v-0.1
		c0-0.1,0-0.1,0-0.1s0,0,0-0.1V67c0,0,0,0,0-0.1v-0.1C36,66.5,36,66.3,36,66.1h-0.1V66c0-0.1,0-0.1,0-0.3c0,0,0,0,0-0.1s0-0.1,0-0.1
		s0,0,0-0.1v-0.1v-0.1c0-0.1,0-0.1-0.1-0.2c0-0.1-0.1-0.1-0.1-0.2s0-0.1,0-0.1c0-0.1,0-0.1,0-0.1s-0.1,0-0.1-0.1s-0.1-0.2-0.1-0.3
		c-0.1,0-0.1-0.1-0.1-0.2c0-0.1,0-0.2,0-0.3s0-0.2-0.1-0.3c0-0.1-0.1-0.2-0.1-0.3v-0.3v-0.1v-0.1v-0.1v-0.1c0,0,0-0.1,0-0.2
		c0-0.1,0-0.1,0-0.2v-0.1c0-0.1,0-0.2,0-0.2s-0.1-0.1-0.2-0.4c-0.1-0.1-0.1-0.1-0.1-0.1v-0.1c0,0,0-0.1-0.1-0.1l-0.1-0.1v-0.1v-0.1
		c0-0.1,0-0.2,0-0.2s0-0.1-0.1-0.1c-0.1-0.1-0.1-0.1-0.1-0.2v-0.1V60c0,0,0-0.1-0.1-0.1v-0.1c0,0,0-0.1,0-0.2c0-0.1,0-0.2,0-0.2
		v-0.1l-0.1-0.1c0,0,0-0.1,0-0.2c0,0,0-0.1,0-0.2c0-0.1,0-0.2,0-0.2C34,58.4,34,58.2,34,57.9C33.9,57.9,33.9,57.7,33.7,57.5
		L33.7,57.5C33.8,57.4,33.8,57.4,33.7,57.5z M33.8,57.3C33.8,57.4,33.8,57.4,33.8,57.3c-0.2,0.1-0.2,0.2-0.2,0.2v0.1
		c0,0.1,0,0.1,0,0.2c0,0.2-0.1,0.2-0.1,0.2s0,0,0,0.1v0.1c0,0,0,0.1-0.1,0.1l-0.1,0.1c0,0,0,0.1,0,0.2c0,0.1,0,0.2-0.1,0.2v0.1
		c-0.1,0.1-0.1,0.2-0.1,0.4C33,59.4,33,59.4,33,59.4v0.1c0,0.1,0,0.1-0.1,0.2c-0.1,0.1-0.1,0.1-0.1,0.1s0,0,0,0.1s0,0.1,0,0.1
		s0,0.1-0.1,0.1l-0.1,0.1c0,0,0,0.1,0,0.2c0,0.1,0,0.1,0,0.2l-0.1,0.3c0,0,0,0.1,0,0.2v0.1l-0.1,0.3c-0.1,0-0.1,0.1-0.1,0.2
		c0,0.1-0.1,0.2-0.1,0.3s0,0.1,0,0.1c-0.1,0.2-0.1,0.3-0.1,0.4c0,0-0.1,0.1-0.1,0.2c0,0.1-0.1,0.2-0.1,0.2l-0.1,0.3v0.1
		c0,0,0,0,0,0.1c0,0,0,0,0,0.1c0,0,0,0,0,0.1c0,0,0,0,0,0.1v0.1v0.1c-0.1,0.2-0.1,0.3-0.1,0.4s0,0.1-0.1,0.2s-0.1,0.1-0.1,0.2v0.1
		v0.1c0,0,0,0.1,0,0.2s0,0.1,0,0.2c0,0-0.1,0-0.1,0.1l-0.1,0.1c0,0,0,0.1,0,0.2s0,0.2,0,0.2s-0.1,0.1-0.1,0.2
		c-0.1,0.1-0.1,0.2-0.1,0.4c-0.1,0-0.1,0.1-0.1,0.2s-0.1,0.2-0.1,0.2c0,0.3,0,0.5-0.1,0.5c0,0.1,0,0.2-0.1,0.2l-0.1,0.1v0.1v0.1V68
		c0,0.1,0.1,0.1,0.4,0c0,0,0,0,0.1,0s0.1,0,0.2,0c0,0,0,0,0.1,0c0,0,0,0,0.1,0h0.1h0.1h0.1c0.4,0,0.6,0,0.7-0.1
		c0.1,0.1,0.3,0.1,0.5,0h0.1l0.1-0.1h0.1h0.1c0.2,0,0.4,0,0.4,0h0.1H34c0.1,0.1,0.2,0.1,0.4,0.1l0.1-0.1c0.1,0,0.2,0,0.4,0
		s0.3,0,0.4,0c0.1-0.1,0.1-0.1,0.1-0.1c0.1,0,0.1,0,0.1,0l0.1-0.1h0.1c0.1,0,0.1,0,0.1,0s0.1,0,0.2-0.1c0.1-0.1,0.1-0.1,0.1-0.1
		v-0.1c0-0.1,0-0.1,0-0.1s0,0,0-0.1V67c0,0,0,0,0-0.1v-0.1C36,66.5,36,66.3,36,66.1h-0.1V66c0-0.1,0-0.1,0-0.3c0,0,0,0,0-0.1
		s0-0.1,0-0.1s0,0,0-0.1v-0.1v-0.1c0-0.1,0-0.1-0.1-0.2c0-0.1-0.1-0.1-0.1-0.2s0-0.1,0-0.1c0-0.1,0-0.1,0-0.1s-0.1,0-0.1-0.1
		s-0.1-0.2-0.1-0.3c-0.1,0-0.1-0.1-0.1-0.2c0-0.1,0-0.2,0-0.3s0-0.2-0.1-0.3c0-0.1-0.1-0.2-0.1-0.3v-0.3v-0.1v-0.1v-0.1v-0.1
		c0,0,0-0.1,0-0.2c0-0.1,0-0.1,0-0.2v-0.1c0-0.1,0-0.2,0-0.2s-0.1-0.1-0.2-0.4c-0.1-0.1-0.1-0.1-0.1-0.1v-0.1c0,0,0-0.1-0.1-0.1
		l-0.1-0.1v-0.1v-0.1c0-0.1,0-0.2,0-0.2s0-0.1-0.1-0.1c-0.1-0.1-0.1-0.1-0.1-0.2v-0.1V60c0,0,0-0.1-0.1-0.1v-0.1c0,0,0-0.1,0-0.2
		c0-0.1,0-0.2,0-0.2v-0.1l-0.1-0.1c0,0,0-0.1,0-0.2c0,0,0-0.1,0-0.2c0-0.1,0-0.2,0-0.2C34,58.4,34,58.2,34,57.9
		C33.9,57.8,33.9,57.6,33.8,57.3L33.8,57.3z M35.2,70.2C35.3,70.2,35.3,70.2,35.2,70.2C35.2,70.3,35.2,70.2,35.2,70.2z M35.3,70.3
		C35.2,70.3,35.2,70.2,35.3,70.3C35.3,70.2,35.3,70.2,35.3,70.3z M35.7,53.5L35.7,53.5L35.7,53.5C35.7,53.6,35.7,53.6,35.7,53.5z
		 M35.7,53.5L35.7,53.5C35.7,53.6,35.7,53.6,35.7,53.5L35.7,53.5z"/>
	<path fill="#54813B" d="M44.3,57.9c0.1,0,0.2,0,0.3,0c0,0.1,0.1,0.1,0.2,0.1c0.1,0,0.1,0,0.2,0v0.1v0.1c0.1,0,0.1,0,0.3,0
		c0.1,0.1,0.2,0,0.2-0.1c0.1,0,0.1,0.1,0.1,0.3c0,0,0.1,0,0.2,0c0,0.1,0,0.1,0.1,0.2c0.1,0.1,0.1,0.1,0.1,0.1h0.1v0.1
		c0,0.1,0,0.1,0,0.1c0,0.1,0.1,0.1,0.2,0.2c0,0.2,0,0.3,0,0.3c0,0.1,0.1,0.1,0.3,0.1c0,0.1,0,0.2,0,0.4c-0.1,0-0.2,0-0.2,0.1
		s0.1,0.2,0.2,0.1v0.4c-0.1,0-0.1,0.1-0.1,0.3s0.1,0.2,0.2,0.2v0.1c-0.1,0-0.1,0.1-0.1,0.2c0,0.1,0,0.2,0.1,0.2c0,0,0,0.1-0.1,0.2
		c0,0.1,0,0.2,0,0.2V62c0.1,0.2,0.1,0.3,0.2,0.3c-0.1,0.1-0.1,0.2,0,0.3s0,0.2,0,0.3c0,0,0,0.1,0.1,0.1s0.1,0.1,0.1,0.1
		c0,0.1,0,0.1,0,0.1c-0.1,0-0.1,0-0.1,0.1s0,0.1,0.1,0.1c0,0.1,0,0.2,0,0.3s0,0.2,0,0.3c0.1,0.1,0.1,0.1,0.1,0.1s0,0,0,0.1
		c0,0,0,0.1,0.1,0.1l0,0h0.1c0,0.1,0,0.1,0,0.1l-0.1,0.1l0.1,0.5c0,0,0.1,0,0.2,0v0.1c0,0,0,0-0.1,0c0,0.1,0,0.1,0,0.2s0,0.1,0,0.2
		c0.1,0.1,0.1,0.2,0.1,0.2s0,0-0.1,0c0,0.1,0,0.2,0,0.5c0,0.2,0,0.4,0,0.4c0,0.2,0,0.3,0.1,0.3v0.4c0,0,0,0.1,0.1,0.2
		c0,0.1,0.1,0.2,0.1,0.2s0,0.1,0,0.2s0,0.2,0,0.2s0.1,0,0.1,0.1c0,0,0.1,0,0.1,0.1v0.1l-0.1,0.1c0.1,0,0.1,0.1,0.1,0.1
		c0,0.1,0,0.2-0.1,0.2c-0.1,0.1-0.1,0.1-0.1,0.2s0,0.2,0.1,0.2c0.1,0.1,0.1,0.2,0.1,0.2c0.1,0,0.1,0,0.1,0c0,0.2,0,0.4,0,0.6
		c-0.1,0-0.2,0-0.2,0.1s0.1,0.1,0.2,0.1V71c-0.1,0-0.1,0.1-0.1,0.2s0.1,0.2,0.2,0.2c0,0.2,0,0.4,0,0.4c-0.1,0-0.2,0.1-0.2,0.1
		c0,0.1,0,0.1,0.1,0.2c0,0.1,0.1,0.1,0.1,0c0,0.1,0,0.2,0,0.3c0,0.1,0,0.1,0,0.1C48,72.6,48,72.7,48,72.8l0.1,0.1l0.1,0.1
		c0,0.1,0,0.2,0,0.3c0,0.1,0,0.2,0,0.3c-0.1,0.1-0.1,0.1-0.1,0.1c0,0.1,0,0.1,0.1,0.2c0.1,0,0.1,0,0.2,0c0.1,0,0.1,0.1,0.2,0
		c0,0,0,0,0.1-0.1c0,0,0-0.1,0.1-0.1c0.2,0,0.4,0,0.4-0.1c0,0,0,0,0.1,0.1c0,0,0,0.1,0.1,0.1s0.1,0,0.2-0.1c0.1-0.1,0.2-0.1,0.2-0.1
		c0.1,0.1,0.1,0.1,0.2,0.1c0,0,0,0,0-0.1s0-0.1,0-0.1c0.1,0,0.1,0,0.2-0.1c0,0.1,0.1,0.1,0.2,0.1c0.2-0.1,0.3-0.1,0.3,0v-0.1v-0.1
		h0.1v0.1c0.1-0.1,0.2-0.2,0.6-0.1c0.1,0.1,0.1,0.1,0.2,0.1h0.1c0,0,0.1,0,0.1-0.1h0.1H52c0,0,0,0,0-0.1v-0.1h0.6c0,0,0.2,0,0.5,0
		c0.1,0,0.1,0,0.2,0c0.1,0,0.1,0,0.1,0s0,0,0.1,0h0.1c0,0,0,0,0.1,0h0.1h0.1c0.1,0,0.1,0,0.2,0c0,0,0-0.1,0.1-0.1h0.1
		c0.3,0,0.4,0,0.5,0.1c0.1,0,0.1,0,0.2,0c0.1,0,0.1,0,0.2,0c0.1,0,0.3,0,0.5,0c0.3,0,0.4,0,0.4,0l0.1,0.2c0.1,0,0.1-0.1,0.1-0.2
		c0.1-0.1,0.2,0,0.3,0c0.1-0.1,0.2-0.1,0.3,0c0,0.1,0,0.1,0,0.1c0.1,0,0.1,0,0.2-0.1c0,0.1,0.1,0.1,0.3,0.3c0.1,0,0.1,0,0.2,0
		c0.1,0,0.1,0,0.2,0c0,0.1,0,0.1,0,0.2c0.1,0.1,0.2,0.2,0.2,0.2h0.1h0.1c0,0.1,0,0.1,0,0.2s0,0.1,0,0.1l0.1,0.1
		c0,0.1,0.1,0.1,0.1,0.2c0.1,0.1,0.1,0.1,0.1,0.1c0,0.1,0,0.2,0.1,0.3h0.1c0,0,0,0.1-0.1,0.2c0,0.1,0,0.2,0,0.3
		c-0.1,0-0.1,0.1-0.2,0.2c0,0.1-0.1,0.2-0.1,0.2c0,0.1,0,0.2,0,0.2h-0.1l0,0c-0.1,0-0.1,0.1-0.2,0.2c-0.1,0.1-0.2,0.2-0.2,0.2l0,0
		l0,0c0,0.1,0,0.1,0,0.2h-0.7c0,0,0,0-0.1-0.1c0,0,0-0.1-0.1-0.1c0,0-0.1,0-0.1,0.1c0,0-0.1,0.1-0.2,0.1c0-0.2-0.1-0.2-0.1-0.2
		s0,0-0.1,0c0,0,0,0-0.1,0s-0.1,0-0.2,0c0-0.1,0-0.1-0.1-0.2c-0.1,0-0.1,0-0.1,0.1c-0.1-0.1-0.1-0.2-0.2-0.2c0,0-0.1,0.1-0.1,0.2
		c-0.1-0.1-0.1-0.2-0.2-0.2h-0.1c-0.1,0-0.1,0-0.2,0H55h-0.1c0,0-0.1,0-0.1,0.1c-0.1,0-0.3,0-0.4-0.1c0,0,0,0-0.1,0.1
		c-0.1,0-0.1,0-0.1,0c0-0.1,0-0.2-0.1-0.2S54,76,54,76.1c0,0-0.1,0-0.2-0.1c0,0.1-0.1,0.1-0.4,0.1c-0.3,0-0.4,0-0.5,0
		c0,0-0.2-0.1-0.6-0.1c0,0.1-0.1,0.1-0.1,0.1c-0.1,0-0.1,0-0.1-0.1c-0.2,0-0.3,0.1-0.3,0.2c-0.1,0-0.2,0-0.3,0s-0.1,0-0.2,0
		c-0.1-0.1-0.1-0.1-0.2-0.1c-0.1,0-0.1,0.1-0.1,0.2c0,0-0.1,0-0.4,0s-0.4,0-0.4,0l0,0c0,0,0,0-0.1,0c0,0,0,0-0.1,0
		c-0.1,0.1-0.3,0.1-0.8,0.1c-0.1,0-0.2,0.1-0.2,0.2h-0.3c-0.1,0-0.1,0-0.1,0h-0.1L48,77.2c-0.3,0-0.5,0-0.5,0s0,0.1-0.1,0.2h-0.1
		h-0.1c0-0.1-0.1-0.1-0.2-0.1c-0.1,0-0.2,0-0.3,0v0.1v0.1c-0.1,0-0.1,0-0.1-0.1l-0.1-0.1c-0.1,0.1-0.2,0.1-0.2,0.1s0,0,0-0.1
		c0,0,0.1,0,0.1-0.1h-0.2c0-0.1,0-0.1,0-0.1s-0.1,0-0.1-0.1S46,76.9,46,76.8v-0.2c-0.1,0-0.2,0-0.3-0.1s-0.1-0.1-0.2-0.1
		c0.1-0.1,0-0.2-0.2-0.3c0-0.1,0-0.1,0-0.2c0,0,0,0-0.1,0c0-0.2,0-0.3,0.1-0.3c0,0,0,0,0-0.1c0,0-0.1,0-0.1-0.1c0,0,0,0,0.1-0.1
		c0.1,0,0.1,0,0.1-0.1s-0.1-0.1-0.2-0.1V75c0.1,0,0.1,0,0.1,0s0,0,0-0.1v-0.1c0,0,0.1,0,0.2,0c0-0.1,0-0.2,0-0.5s0-0.5,0-0.5
		c0.1,0,0.1-0.1,0.1-0.1s0-0.1-0.1-0.1c0-0.5,0-1,0-1.5c0-0.2,0-0.4,0-0.5c0.1-0.2,0.1-0.3-0.1-0.4v-0.4c0,0,0-0.2,0-0.4
		c0-0.5-0.1-0.7-0.1-0.8c0.1-0.1,0.1-0.2,0-0.3c0-0.1,0-0.2,0-0.3c0-0.1,0-0.2,0-0.3c0-0.1-0.1-0.2-0.2-0.2v-0.1c0-0.1,0-0.1,0-0.1
		l0.1-0.1v-0.1c0-0.1,0-0.1,0-0.1c-0.1-0.1-0.1-0.1-0.2-0.1v-0.1c0,0,0,0,0.1,0s0.1,0,0.1,0s-0.1-0.1-0.2-0.1c0-0.1,0-0.2,0.1-0.2
		c0-0.3-0.1-0.4-0.1-0.4c-0.1,0-0.1,0-0.1,0V67c0.1,0,0.2,0,0.2-0.1c0,0,0-0.1-0.1-0.1h-0.1c0-0.1,0-0.1,0-0.2H45c0,0,0.1,0,0.1-0.1
		c0,0,0,0,0-0.1c0,0,0,0,0-0.1s0-0.2,0-0.3c0-0.1,0-0.2,0-0.3c0,0,0-0.1-0.1-0.1l-0.1-0.1c0-0.1,0-0.2,0-0.3c0,0,0-0.1,0-0.2
		s0-0.1,0-0.2c0,0,0,0-0.1-0.1c0,0-0.1,0-0.1-0.1l0.1-0.2c0-0.1,0-0.2-0.1-0.4c0-0.2,0-0.3-0.1-0.4c0,0,0-0.1-0.1-0.2
		c0-0.1,0-0.2-0.1-0.2c0,0,0,0-0.1,0c0,0,0,0-0.1,0c-0.1-0.1,0-0.2,0.1-0.3v-0.1c0-0.1,0-0.1,0-0.1s-0.1,0-0.2-0.1
		c0,0,0-0.1,0.1-0.1V62c-0.1,0-0.1-0.1-0.1-0.1s0-0.1,0-0.2c0-0.2,0-0.3-0.1-0.3v-0.1c0-0.1,0-0.1,0-0.3c0-0.1,0-0.2,0-0.2
		s0,0-0.1-0.1c0,0-0.1,0-0.1-0.1c0.1-0.1,0.1-0.1,0-0.2c0-0.1-0.1-0.1-0.2-0.2c0-0.2,0-0.3,0.1-0.4c0-0.1,0-0.2-0.1-0.3
		s-0.1-0.2-0.1-0.3C43.3,59,43.3,59,43.3,59s0,0,0.1,0c0-0.1,0-0.2,0-0.2c0.2,0,0.3-0.2,0.3-0.5C44,58.2,44.2,58.1,44.3,57.9z
		 M44.6,57.9c0,0.1,0.1,0.1,0.2,0.1c0.1,0,0.1,0,0.2,0v0.1v0.1c0.1,0,0.1,0,0.3,0c0.1,0.1,0.2,0,0.2-0.1c0.1,0,0.1,0.1,0.1,0.3
		c0,0,0.1,0,0.2,0c0,0.1,0,0.1,0.1,0.2c0.1,0.1,0.1,0.1,0.1,0.1h0.1v0.1c0,0.1,0,0.1,0,0.1c0,0.1,0.1,0.1,0.2,0.2c0,0.2,0,0.3,0,0.3
		c0,0.1,0.1,0.1,0.3,0.1c0,0.1,0,0.2,0,0.4c-0.1,0-0.2,0-0.2,0.1s0.1,0.2,0.2,0.1v0.4c-0.1,0-0.1,0.1-0.1,0.3s0.1,0.2,0.2,0.2v0.1
		c-0.1,0-0.1,0.1-0.1,0.2c0,0.1,0,0.2,0.1,0.2c0,0,0,0.1-0.1,0.2c0,0.1,0,0.2,0,0.2V62c0.1,0.2,0.1,0.3,0.2,0.3
		c-0.1,0.1-0.1,0.2,0,0.3s0,0.2,0,0.3c0,0,0,0.1,0.1,0.1s0.1,0.1,0.1,0.1c0,0.1,0,0.1,0,0.1c-0.1,0-0.1,0-0.1,0.1s0,0.1,0.1,0.1
		c0,0.1,0,0.2,0,0.3s0,0.2,0,0.3c0.1,0.1,0.1,0.1,0.1,0.1s0,0,0,0.1c0,0,0,0.1,0.1,0.1l0,0h0.1c0,0.1,0,0.1,0,0.1l-0.1,0.1l0.1,0.5
		c0,0,0.1,0,0.2,0v0.1c0,0,0,0-0.1,0c0,0.1,0,0.1,0,0.2s0,0.1,0,0.2c0.1,0.1,0.1,0.2,0.1,0.2s0,0-0.1,0c0,0.1,0,0.2,0,0.5
		c0,0.2,0,0.4,0,0.4c0,0.2,0,0.3,0.1,0.3v0.4c0,0,0,0.1,0.1,0.2c0,0.1,0.1,0.2,0.1,0.2s0,0.1,0,0.2s0,0.2,0,0.2s0.1,0,0.1,0.1
		c0,0,0.1,0,0.1,0.1v0.1l-0.1,0.1c0.1,0,0.1,0.1,0.1,0.1c0,0.1,0,0.2-0.1,0.2c-0.1,0.1-0.1,0.1-0.1,0.2s0,0.2,0.1,0.2
		c0.1,0.1,0.1,0.2,0.1,0.2c0.1,0,0.1,0,0.1,0c0,0.2,0,0.4,0,0.6c-0.1,0-0.2,0-0.2,0.1s0.1,0.1,0.2,0.1V71c-0.1,0-0.1,0.1-0.1,0.2
		s0.1,0.2,0.2,0.2c0,0.2,0,0.4,0,0.4c-0.1,0-0.2,0.1-0.2,0.1c0,0.1,0,0.1,0.1,0.2c0,0.1,0.1,0.1,0.1,0c0,0.1,0,0.2,0,0.3
		c0,0.1,0,0.1,0,0.1C48,72.6,48,72.7,48,72.8l0.1,0.1l0.1,0.1c0,0.1,0,0.2,0,0.3c0,0.1,0,0.2,0,0.3c-0.1,0.1-0.1,0.1-0.1,0.1
		c0,0.1,0,0.1,0.1,0.2c0.1,0,0.1,0,0.2,0c0.1,0,0.1,0.1,0.2,0c0,0,0,0,0.1-0.1c0,0,0-0.1,0.1-0.1c0.2,0,0.4,0,0.4-0.1
		c0,0,0,0,0.1,0.1c0,0,0,0.1,0.1,0.1s0.1,0,0.2-0.1c0.1-0.1,0.2-0.1,0.2-0.1c0.1,0.1,0.1,0.1,0.2,0.1c0,0,0,0,0-0.1s0-0.1,0-0.1
		c0.1,0,0.1,0,0.2-0.1c0,0.1,0.1,0.1,0.2,0.1c0.2-0.1,0.3-0.1,0.3,0v-0.1v-0.1h0.1v0.1c0.1-0.1,0.2-0.2,0.6-0.1
		c0.1,0.1,0.1,0.1,0.2,0.1h0.1c0,0,0.1,0,0.1-0.1h0.1H52c0,0,0,0,0-0.1v-0.1h0.6c0,0,0.2,0,0.5,0c0.1,0,0.1,0,0.2,0
		c0.1,0,0.1,0,0.1,0s0,0,0.1,0h0.1c0,0,0,0,0.1,0h0.1h0.1c0.1,0,0.1,0,0.2,0c0,0,0-0.1,0.1-0.1h0.1c0.3,0,0.4,0,0.5,0.1
		c0.1,0,0.1,0,0.2,0c0.1,0,0.1,0,0.2,0c0.1,0,0.3,0,0.5,0c0.3,0,0.4,0,0.4,0l0.1,0.2c0.1,0,0.1-0.1,0.1-0.2c0.1-0.1,0.2,0,0.3,0
		c0.1-0.1,0.2-0.1,0.3,0c0,0.1,0,0.1,0,0.1c0.1,0,0.1,0,0.2-0.1c0,0.1,0.1,0.1,0.3,0.3c0.1,0,0.1,0,0.2,0c0.1,0,0.1,0,0.2,0
		c0,0.1,0,0.1,0,0.2c0.1,0.1,0.2,0.2,0.2,0.2h0.1h0.1c0,0.1,0,0.1,0,0.2s0,0.1,0,0.1s0,0.1,0.1,0.1c0.1,0.1,0.1,0.1,0.1,0.2
		c0.1,0.1,0.1,0.1,0.1,0.1c0,0.1,0,0.2,0.1,0.3h0.1c0,0,0,0.1-0.1,0.2c0,0.1,0,0.2,0,0.3c-0.1,0-0.1,0.1-0.2,0.2
		c0,0.1-0.1,0.2-0.1,0.2c0,0.1,0,0.2,0,0.2h-0.1l0,0c-0.1,0-0.1,0.1-0.2,0.2c-0.1,0.1-0.2,0.2-0.2,0.2l0,0l0,0c0,0.1,0,0.1,0,0.2
		h-0.7c0,0,0,0-0.1-0.1c0,0,0-0.1-0.1-0.1c0,0-0.1,0-0.1,0.1c0,0-0.1,0.1-0.2,0.1c0-0.2-0.1-0.2-0.1-0.2s0,0-0.1,0c0,0,0,0-0.1,0
		s-0.1,0-0.2,0c0-0.1,0-0.1-0.1-0.2c-0.1,0-0.1,0-0.1,0.1c-0.1-0.1-0.1-0.2-0.2-0.2c0,0-0.1,0.1-0.1,0.2c-0.1-0.1-0.1-0.2-0.2-0.2
		h-0.1c-0.1,0-0.1,0-0.2,0H55h-0.1c0,0-0.1,0-0.1,0.1c-0.1,0-0.3,0-0.4-0.1c0,0,0,0-0.1,0.1c-0.1,0-0.1,0-0.1,0c0-0.1,0-0.2-0.1-0.2
		S54,76,54,76.1c0,0-0.1,0-0.2-0.1c0,0.1-0.1,0.1-0.4,0.1c-0.3,0-0.4,0-0.5,0c0,0-0.2-0.1-0.6-0.1c0,0.1-0.1,0.1-0.1,0.1
		c-0.1,0-0.1,0-0.1-0.1c-0.2,0-0.3,0.1-0.3,0.2c-0.1,0-0.2,0-0.3,0s-0.1,0-0.2,0c-0.1-0.1-0.1-0.1-0.2-0.1c-0.1,0-0.1,0.1-0.1,0.2
		c0,0-0.1,0-0.4,0s-0.4,0-0.4,0l0,0c0,0,0,0-0.1,0c0,0,0,0-0.1,0c-0.1,0.1-0.3,0.1-0.8,0.1c-0.1,0-0.2,0.1-0.2,0.2h-0.3
		c-0.1,0-0.1,0-0.1,0h-0.1L48,77.2c-0.3,0-0.5,0-0.5,0s0,0.1-0.1,0.2h-0.1h-0.1c0-0.1-0.1-0.1-0.2-0.1c-0.1,0-0.2,0-0.3,0v0.1v0.1
		c-0.1,0-0.1,0-0.1-0.1l-0.1-0.1c-0.1,0.1-0.2,0.1-0.2,0.1s0,0,0-0.1c0,0,0.1,0,0.1-0.1h-0.2c0-0.1,0-0.1,0-0.1s-0.1,0-0.1-0.1
		S46,76.9,46,76.8v-0.2c-0.1,0-0.2,0-0.3-0.1s-0.1-0.1-0.2-0.1c0.1-0.1,0-0.2-0.2-0.3c0-0.1,0-0.1,0-0.2c0,0,0,0-0.1,0
		c0-0.2,0-0.3,0.1-0.3c0,0,0,0,0-0.1c0,0-0.1,0-0.1-0.1c0,0,0,0,0.1-0.1c0.1,0,0.1,0,0.1-0.1s-0.1-0.1-0.2-0.1V75c0.1,0,0.1,0,0.1,0
		s0,0,0-0.1v-0.1c0,0,0.1,0,0.2,0c0-0.1,0-0.2,0-0.5s0-0.5,0-0.5c0.1,0,0.1-0.1,0.1-0.1s0-0.1-0.1-0.1c0-0.5,0-1,0-1.5
		c0-0.2,0-0.4,0-0.5c0.1-0.2,0.1-0.3-0.1-0.4v-0.4c0,0,0-0.2,0-0.4c0-0.5-0.1-0.7-0.1-0.8c0.1-0.1,0.1-0.2,0-0.3c0-0.1,0-0.2,0-0.3
		c0-0.1,0-0.2,0-0.3c0-0.1-0.1-0.2-0.2-0.2v-0.1c0-0.1,0-0.1,0-0.1l0.1-0.1v-0.1c0-0.1,0-0.1,0-0.1c-0.1-0.1-0.1-0.1-0.2-0.1v-0.1
		c0,0,0,0,0.1,0s0.1,0,0.1,0s-0.1-0.1-0.2-0.1c0-0.1,0-0.2,0.1-0.2c0-0.3-0.1-0.4-0.1-0.4c-0.1,0-0.1,0-0.1,0c0-0.1,0-0.1,0-0.1
		c0.1,0,0.2,0,0.2-0.1c0,0,0-0.1-0.1-0.1h-0.1c0-0.1,0-0.1,0-0.2H45c0,0,0.1,0,0.1-0.1c0,0,0,0,0-0.1c0,0,0,0,0-0.1s0-0.2,0-0.3
		c0-0.1,0-0.2,0-0.3c0,0,0-0.1-0.1-0.1l-0.1-0.1c0-0.1,0-0.2,0-0.3c0,0,0-0.1,0-0.2s0-0.1,0-0.2c0,0,0,0-0.1-0.1c0,0-0.1,0-0.1-0.1
		l0.1-0.2c0-0.1,0-0.2-0.1-0.4c0-0.2,0-0.3-0.1-0.4c0,0,0-0.1-0.1-0.2c0-0.1,0-0.2-0.1-0.2c0,0,0,0-0.1,0c0,0,0,0-0.1,0
		c-0.1-0.1,0-0.2,0.1-0.3v-0.1c0-0.1,0-0.1,0-0.1s-0.1,0-0.2-0.1c0,0,0-0.1,0.1-0.1V62c-0.1,0-0.1-0.1-0.1-0.1s0-0.1,0-0.2
		c0-0.2,0-0.3-0.1-0.3v-0.1c0-0.1,0-0.1,0-0.3c0-0.1,0-0.2,0-0.2s0,0-0.1-0.1c0,0-0.1,0-0.1-0.1c0.1-0.1,0.1-0.1,0-0.2
		c0-0.1-0.1-0.1-0.2-0.2c0-0.2,0-0.3,0.1-0.4c0-0.1,0-0.2-0.1-0.3s-0.1-0.2-0.1-0.3C43.3,59,43.3,59,43.3,59s0,0,0.1,0h0.1
		c0,0,0,0,0-0.1s0-0.1,0-0.1c0.2,0,0.3-0.2,0.3-0.5c0.4-0.1,0.5-0.2,0.6-0.4C44.4,57.9,44.5,57.9,44.6,57.9z"/>
	<path fill="#54813B" d="M61.6,57.9c0,0.1,0.1,0.1,0.2,0.1c0.1,0,0.1,0,0.2,0v0.1v0.1c0.1,0,0.1,0,0.3,0c0.1,0.1,0.2,0,0.2-0.1
		c0.1,0,0.1,0.1,0.1,0.3c0,0,0.1,0,0.2,0c0,0.1,0,0.1,0.1,0.2c0.1,0.1,0.1,0.1,0.1,0.1h0.1v0.1c0,0.1,0,0.1,0,0.1
		c0,0.1,0.1,0.1,0.2,0.2c0,0.2,0,0.3,0,0.3c0,0.1,0.1,0.1,0.3,0.1c0,0.1,0,0.2,0,0.4c-0.1,0-0.2,0-0.2,0.1s0.1,0.2,0.2,0.1v0.4
		c-0.1,0-0.1,0.1-0.1,0.3s0.1,0.2,0.2,0.2v0.1c-0.1,0-0.1,0.1-0.1,0.2c0,0.1,0,0.2,0.1,0.2c0,0,0,0.1-0.1,0.2c0,0.1,0,0.2,0,0.2V62
		c0.1,0.2,0.1,0.3,0.2,0.3c-0.1,0.1-0.1,0.2,0,0.3c0,0.1,0,0.2,0,0.3c0,0,0,0.1,0.1,0.1s0.1,0.1,0.1,0.1c0,0.1,0,0.1,0,0.1
		c-0.1,0-0.1,0-0.1,0.1s0,0.1,0.1,0.1c0,0.1,0,0.2,0,0.3s0,0.2,0,0.3c0.1,0.1,0.1,0.1,0.1,0.1s0,0,0,0.1c0,0,0,0.1,0.1,0.1l0,0h0.1
		c0,0.1,0,0.1,0,0.1l-0.1,0.1l0.1,0.5c0,0,0.1,0,0.2,0v0.1c0,0,0,0-0.1,0c0,0.1,0,0.1,0,0.2s0,0.1,0,0.2c0.1,0.1,0.1,0.2,0.1,0.2
		s0,0-0.1,0c0,0.1,0,0.2,0,0.5c0,0.2,0,0.4,0,0.4c0,0.2,0,0.3,0.1,0.3v0.4c0,0,0,0.1,0.1,0.2c0,0.1,0.1,0.2,0.1,0.2s0,0.1,0,0.2
		s0,0.2,0,0.2s0.1,0,0.1,0.1c0,0,0.1,0,0.1,0.1v0.1l-0.1,0.1c0.1,0,0.1,0.1,0.1,0.1c0,0.1,0,0.2-0.1,0.2c-0.1,0.1-0.1,0.1-0.1,0.2
		s0,0.2,0.1,0.2c0.1,0.1,0.1,0.2,0.1,0.2c0.1,0,0.1,0,0.1,0c0,0.2,0,0.4,0,0.6c-0.1,0-0.2,0-0.2,0.1s0.1,0.1,0.2,0.1V71
		c0,0,0,0.1,0,0.2s0.1,0.2,0.2,0.2c0,0.2,0,0.4,0,0.4c-0.1,0-0.2,0.1-0.2,0.1c0,0.1,0,0.1,0.1,0.2c0,0.1,0.1,0.1,0.1,0
		c0,0.1,0,0.2,0,0.3c0,0.1,0,0.1,0,0.1c-0.1,0.1-0.1,0.2-0.1,0.3l0.1,0.1l0.1,0.1c0,0.1,0,0.2,0,0.3c0,0.1,0,0.2,0,0.3
		c-0.1,0.1-0.1,0.1-0.1,0.1c0,0.1,0,0.1,0.1,0.2c0.1,0,0.1,0,0.2,0s0.1,0.1,0.2,0c0,0,0,0,0.1-0.1c0,0,0-0.1,0.1-0.1
		c0.2,0,0.4,0,0.4-0.1c0,0,0,0,0.1,0.1c0,0,0,0.1,0.1,0.1s0.1,0,0.2-0.1s0.2-0.1,0.2-0.1c0.1,0.1,0.1,0.1,0.2,0.1c0,0,0,0,0-0.1
		s0-0.1,0-0.1c0.1,0,0.1,0,0.2-0.1c0,0.1,0.1,0.1,0.2,0.1c0.2-0.1,0.3-0.1,0.3,0v-0.1v-0.1h0.1v0.1c0.1-0.1,0.2-0.2,0.6-0.1
		c0.1,0.1,0.1,0.1,0.2,0.1s0.1,0,0.1,0s0.1,0,0.1-0.1H69h0.1c0,0,0,0,0-0.1v-0.1h0.6c0,0,0.2,0,0.5,0c0.1,0,0.1,0,0.2,0s0.1,0,0.1,0
		s0,0,0.1,0h0.1c0,0,0,0,0.1,0h0.1H71c0.1,0,0.1,0,0.2,0c0,0,0-0.1,0.1-0.1h0.1c0.3,0,0.4,0,0.5,0.1c0.1,0,0.1,0,0.2,0s0.1,0,0.2,0
		s0.3,0,0.5,0c0.3,0,0.4,0,0.4,0l0.1,0.2c0.1,0,0.1-0.1,0.1-0.2c0.1-0.1,0.2,0,0.3,0c0.1-0.1,0.2-0.1,0.3,0c0,0.1,0,0.1,0,0.1
		c0.1,0,0.1,0,0.2-0.1c0,0.1,0.1,0.1,0.3,0.3c0.1,0,0.1,0,0.2,0s0.1,0,0.2,0c0,0.1,0,0.1,0,0.2c0.1,0.1,0.2,0.2,0.2,0.2h0.1h0.1
		c0,0.1,0,0.1,0,0.2s0,0.1,0,0.1s0,0.1,0.1,0.1c0.1,0.1,0.1,0.1,0.1,0.2c0.1,0.1,0.1,0.1,0.1,0.1c0,0.1,0,0.2,0.1,0.3h0.1
		c0,0,0,0.1-0.1,0.2c0,0.1,0,0.2,0,0.3c-0.1,0-0.1,0.1-0.2,0.2c0,0.1-0.1,0.2-0.1,0.2c0,0.1,0,0.2,0,0.2h-0.1l0,0
		c-0.1,0-0.1,0.1-0.2,0.2s-0.2,0.2-0.2,0.2l0,0l0,0c0,0.1,0,0.1,0,0.2h-0.7c0,0-0.1,0-0.1-0.1c0,0,0-0.1-0.1-0.1c0,0-0.1,0-0.1,0.1
		c0,0-0.1,0.1-0.2,0.1c0-0.2-0.1-0.2-0.1-0.2s0,0-0.1,0c0,0,0,0-0.1,0s-0.1,0-0.2,0c0-0.1,0-0.1-0.1-0.2c-0.1,0-0.1,0-0.1,0.1
		c-0.1-0.1-0.1-0.2-0.2-0.2c0,0-0.1,0.1-0.1,0.2c-0.1-0.1-0.1-0.2-0.2-0.2h-0.1c-0.1,0-0.1,0-0.2,0h-0.1H72c0,0-0.1,0-0.1,0.1
		c-0.1,0-0.3,0-0.4-0.1c0,0,0,0-0.1,0.1c-0.1,0-0.1,0-0.1,0c0-0.1,0-0.2-0.1-0.2s-0.1,0.1-0.1,0.2c0,0-0.1,0-0.2-0.1
		c0,0.1-0.1,0.1-0.4,0.1s-0.4,0-0.5,0c0,0-0.2-0.1-0.6-0.1c0,0.1-0.1,0.1-0.1,0.1c-0.1,0-0.1,0-0.1-0.1c-0.2,0-0.3,0.1-0.3,0.2
		c-0.1,0-0.2,0-0.3,0c-0.1,0-0.1,0-0.2,0c-0.1-0.1-0.1-0.1-0.2-0.1s-0.1,0.1-0.1,0.2c0,0-0.1,0-0.4,0s-0.4,0-0.4,0l0,0
		c0,0,0,0-0.1,0c0,0,0,0-0.1,0c-0.1,0.1-0.3,0.1-0.8,0.1c-0.1,0-0.2,0.1-0.2,0.2h-0.3c-0.1,0-0.1,0-0.1,0h-0.1l-0.1,0.2
		c-0.3,0-0.5,0-0.5,0s0,0.1-0.1,0.2h-0.1h-0.1c0-0.1-0.1-0.1-0.2-0.1s-0.2,0-0.3,0V77v0.1c-0.1,0-0.1,0-0.1-0.1L64,76.9
		C63.9,77,63.8,77,63.8,77s0,0,0-0.1c0,0,0.1,0,0.1-0.1h-0.2c0-0.1,0-0.1,0-0.1s-0.1,0-0.1-0.1s-0.1-0.1-0.1-0.2v-0.2
		c-0.1,0-0.2,0-0.3-0.1S63.1,76,63,76c0.1-0.1,0-0.2-0.2-0.3c0-0.1,0-0.1,0-0.2c0,0,0,0-0.1,0c0-0.2,0-0.3,0.1-0.3c0,0,0,0,0-0.1
		c0,0-0.1,0-0.1-0.1c0,0,0,0,0.1-0.1c0.1,0,0.1,0,0.1-0.1s-0.1-0.1-0.2-0.1v-0.1c0.1,0,0.1,0,0.1,0s0,0,0-0.1v-0.1c0,0,0.1,0,0.2,0
		c0-0.1,0-0.2,0-0.5s0-0.5,0-0.5c0.1,0,0.1-0.1,0.1-0.1s0-0.1-0.1-0.1c0-0.5,0-1,0-1.5c0-0.2,0-0.4,0-0.5c0.1-0.2,0.1-0.3-0.1-0.4
		v-0.4c0,0,0-0.2,0-0.4c0-0.5-0.1-0.7-0.1-0.8c0.1-0.1,0.1-0.2,0-0.3c0-0.1,0-0.2,0-0.3c0-0.1,0-0.2,0-0.3c0-0.1-0.1-0.2-0.2-0.2V68
		c0-0.1,0-0.1,0-0.1l0.1-0.1v-0.1c0-0.1,0-0.1,0-0.1c-0.1-0.1-0.1-0.1-0.2-0.1v-0.1c0,0,0,0,0.1,0s0.1,0,0.1,0s-0.1-0.1-0.2-0.1
		c0-0.1,0-0.2,0.1-0.2c0-0.3-0.1-0.4-0.1-0.4c-0.1,0-0.1,0-0.1,0c0-0.1,0-0.1,0-0.1c0.1,0,0.2,0,0.2-0.1c0,0,0-0.1-0.1-0.1h-0.1
		c0-0.1,0-0.1,0-0.2h0.1c0,0,0.1,0,0.1-0.1c0,0,0,0,0-0.1c0,0,0,0,0-0.1s0-0.2,0-0.3c0-0.1,0-0.2,0-0.3c0,0,0-0.1-0.1-0.1l-0.1-0.1
		c0-0.1,0-0.2,0-0.3c0,0,0-0.1,0-0.2s0-0.1,0-0.2c0,0,0,0-0.1-0.1c0,0-0.1,0-0.1-0.1l0.1-0.2c0-0.1,0-0.2-0.1-0.4
		c0-0.2,0-0.3-0.1-0.4c0,0,0-0.1-0.1-0.2c0-0.1,0-0.2-0.1-0.2c0,0,0,0-0.1,0c0,0,0,0-0.1,0c-0.1-0.1,0-0.2,0.1-0.3v-0.1
		c0-0.1,0-0.1,0-0.1s-0.1,0-0.2-0.1c0,0,0-0.1,0.1-0.1v-0.5c-0.1,0-0.1-0.1-0.1-0.1s0-0.1,0-0.2c0-0.2,0-0.3-0.1-0.3v-0.1
		c0-0.1,0-0.1,0-0.3c0-0.1,0-0.2,0-0.2s0,0-0.1-0.1c0,0-0.1,0-0.1-0.1c0.1-0.1,0.1-0.1,0-0.2c0-0.1-0.1-0.1-0.2-0.2
		c0-0.2,0-0.3,0.1-0.4c0-0.1,0-0.2-0.1-0.3S61,58.9,61,58.8C60.3,59,60.3,59,60.3,59s0,0,0.1,0h0.1c0,0,0,0,0-0.1s0-0.1,0-0.1
		c0.2,0,0.3-0.2,0.3-0.5c0.4-0.1,0.5-0.2,0.6-0.4C61.4,57.9,61.5,57.9,61.6,57.9z M61.3,57.9c0.1,0,0.2,0,0.3,0
		c0,0.1,0.1,0.1,0.2,0.1c0.1,0,0.1,0,0.2,0v0.1v0.1c0.1,0,0.1,0,0.3,0c0.1,0.1,0.2,0,0.2-0.1c0.1,0,0.1,0.1,0.1,0.3c0,0,0.1,0,0.2,0
		c0,0.1,0,0.1,0.1,0.2c0.1,0.1,0.1,0.1,0.1,0.1h0.1v0.1c0,0.1,0,0.1,0,0.1c0,0.1,0.1,0.1,0.2,0.2c0,0.2,0,0.3,0,0.3
		c0,0.1,0.1,0.1,0.3,0.1c0,0.1,0,0.2,0,0.4c-0.1,0-0.2,0-0.2,0.1s0.1,0.2,0.2,0.1v0.4c-0.1,0-0.1,0.1-0.1,0.3s0.1,0.2,0.2,0.2v0.1
		c-0.1,0-0.1,0.1-0.1,0.2c0,0.1,0,0.2,0.1,0.2c0,0,0,0.1-0.1,0.2c0,0.1,0,0.2,0,0.2V62c0.1,0.2,0.1,0.3,0.2,0.3
		c-0.1,0.1-0.1,0.2,0,0.3c0,0.1,0,0.2,0,0.3c0,0,0,0.1,0.1,0.1s0.1,0.1,0.1,0.1c0,0.1,0,0.1,0,0.1c-0.1,0-0.1,0-0.1,0.1
		s0,0.1,0.1,0.1c0,0.1,0,0.2,0,0.3s0,0.2,0,0.3c0.1,0.1,0.1,0.1,0.1,0.1s0,0,0,0.1c0,0,0,0.1,0.1,0.1l0,0h0.1c0,0.1,0,0.1,0,0.1
		l-0.1,0.1l0.1,0.5c0,0,0.1,0,0.2,0v0.1c0,0,0,0-0.1,0c0,0.1,0,0.1,0,0.2s0,0.1,0,0.2c0.1,0.1,0.1,0.2,0.1,0.2s0,0-0.1,0
		c0,0.1,0,0.2,0,0.5c0,0.2,0,0.4,0,0.4c0,0.2,0,0.3,0.1,0.3v0.4c0,0,0,0.1,0.1,0.2c0,0.1,0.1,0.2,0.1,0.2s0,0.1,0,0.2s0,0.2,0,0.2
		s0.1,0,0.1,0.1c0,0,0.1,0,0.1,0.1v0.1l-0.1,0.1c0.1,0,0.1,0.1,0.1,0.1c0,0.1,0,0.2-0.1,0.2c-0.1,0.1-0.1,0.1-0.1,0.2s0,0.2,0.1,0.2
		c0.1,0.1,0.1,0.2,0.1,0.2c0.1,0,0.1,0,0.1,0c0,0.2,0,0.4,0,0.6c-0.1,0-0.2,0-0.2,0.1s0.1,0.1,0.2,0.1V71c0,0,0,0.1,0,0.2
		s0.1,0.2,0.2,0.2c0,0.2,0,0.4,0,0.4c-0.1,0-0.2,0.1-0.2,0.1c0,0.1,0,0.1,0.1,0.2c0,0.1,0.1,0.1,0.1,0c0,0.1,0,0.2,0,0.3
		c0,0.1,0,0.1,0,0.1c-0.1,0.1-0.1,0.2-0.1,0.3l0.1,0.1l0.1,0.1c0,0.1,0,0.2,0,0.3c0,0.1,0,0.2,0,0.3c-0.1,0.1-0.1,0.1-0.1,0.1
		c0,0.1,0,0.1,0.1,0.2c0.1,0,0.1,0,0.2,0s0.1,0.1,0.2,0c0,0,0,0,0.1-0.1c0,0,0-0.1,0.1-0.1c0.2,0,0.4,0,0.4-0.1c0,0,0,0,0.1,0.1
		c0,0,0,0.1,0.1,0.1s0.1,0,0.2-0.1s0.2-0.1,0.2-0.1c0.1,0.1,0.1,0.1,0.2,0.1c0,0,0,0,0-0.1s0-0.1,0-0.1c0.1,0,0.1,0,0.2-0.1
		c0,0.1,0.1,0.1,0.2,0.1c0.2-0.1,0.3-0.1,0.3,0v-0.1v-0.1h0.1v0.1c0.1-0.1,0.2-0.2,0.6-0.1c0.1,0.1,0.1,0.1,0.2,0.1s0.1,0,0.1,0
		s0.1,0,0.1-0.1H69h0.1c0,0,0,0,0-0.1v-0.1h0.6c0,0,0.2,0,0.5,0c0.1,0,0.1,0,0.2,0s0.1,0,0.1,0s0,0,0.1,0h0.1c0,0,0,0,0.1,0h0.1H71
		c0.1,0,0.1,0,0.2,0c0,0,0-0.1,0.1-0.1h0.1c0.3,0,0.4,0,0.5,0.1c0.1,0,0.1,0,0.2,0s0.1,0,0.2,0s0.3,0,0.5,0c0.3,0,0.4,0,0.4,0
		l0.1,0.2c0.1,0,0.1-0.1,0.1-0.2c0.1-0.1,0.2,0,0.3,0c0.1-0.1,0.2-0.1,0.3,0c0,0.1,0,0.1,0,0.1c0.1,0,0.1,0,0.2-0.1
		c0,0.1,0.1,0.1,0.3,0.3c0.1,0,0.1,0,0.2,0s0.1,0,0.2,0c0,0.1,0,0.1,0,0.2c0.1,0.1,0.2,0.2,0.2,0.2h0.1h0.1c0,0.1,0,0.1,0,0.2
		s0,0.1,0,0.1l0.1,0.1c0,0.1,0.1,0.1,0.1,0.2c0.1,0.1,0.1,0.1,0.1,0.1c0,0.1,0,0.2,0.1,0.3h0.1c0,0,0,0.1-0.1,0.2c0,0.1,0,0.2,0,0.3
		c-0.1,0-0.1,0.1-0.2,0.2c0,0.1-0.1,0.2-0.1,0.2c0,0.1,0,0.2,0,0.2h-0.1l0,0c-0.1,0-0.1,0.1-0.2,0.2s-0.2,0.2-0.2,0.2l0,0l0,0
		c0,0.1,0,0.1,0,0.2h-0.7c0,0-0.1,0-0.1-0.1c0,0,0-0.1-0.1-0.1c0,0-0.1,0-0.1,0.1c0,0-0.1,0.1-0.2,0.1c0-0.2-0.1-0.2-0.1-0.2
		s0,0-0.1,0c0,0,0,0-0.1,0s-0.1,0-0.2,0c0-0.1,0-0.1-0.1-0.2c-0.1,0-0.1,0-0.1,0.1c-0.1-0.1-0.1-0.2-0.2-0.2c0,0-0.1,0.1-0.1,0.2
		c-0.1-0.1-0.1-0.2-0.2-0.2h-0.1c-0.1,0-0.1,0-0.2,0h-0.1H72c0,0-0.1,0-0.1,0.1c-0.1,0-0.3,0-0.4-0.1c0,0,0,0-0.1,0.1
		c-0.1,0-0.1,0-0.1,0c0-0.1,0-0.2-0.1-0.2s-0.1,0.1-0.1,0.2c0,0-0.1,0-0.2-0.1c0,0.1-0.1,0.1-0.4,0.1s-0.4,0-0.5,0
		c0,0-0.2-0.1-0.6-0.1c0,0.1-0.1,0.1-0.1,0.1c-0.1,0-0.1,0-0.1-0.1c-0.2,0-0.3,0.1-0.3,0.2c-0.1,0-0.2,0-0.3,0c-0.1,0-0.1,0-0.2,0
		c-0.1-0.1-0.1-0.1-0.2-0.1s-0.1,0.1-0.1,0.2c0,0-0.1,0-0.4,0s-0.4,0-0.4,0l0,0c0,0,0,0-0.1,0c0,0,0,0-0.1,0
		c-0.1,0.1-0.3,0.1-0.8,0.1c-0.1,0-0.2,0.1-0.2,0.2h-0.3c-0.1,0-0.1,0-0.1,0h-0.1l-0.1,0.2c-0.3,0-0.5,0-0.5,0s0,0.1-0.1,0.2h-0.1
		h-0.1c0-0.1-0.1-0.1-0.2-0.1s-0.2,0-0.3,0V77v0.1c-0.1,0-0.1,0-0.1-0.1L64,76.9C63.9,77,63.8,77,63.8,77s0,0,0-0.1
		c0,0,0.1,0,0.1-0.1h-0.2c0-0.1,0-0.1,0-0.1s-0.1,0-0.1-0.1s-0.1-0.1-0.1-0.2v-0.2c-0.1,0-0.2,0-0.3-0.1S63.1,76,63,76
		c0.1-0.1,0-0.2-0.2-0.3c0-0.1,0-0.1,0-0.2c0,0,0,0-0.1,0c0-0.2,0-0.3,0.1-0.3c0,0,0,0,0-0.1c0,0-0.1,0-0.1-0.1c0,0,0,0,0.1-0.1
		c0.1,0,0.1,0,0.1-0.1s-0.1-0.1-0.2-0.1v-0.1c0.1,0,0.1,0,0.1,0s0,0,0-0.1v-0.1c0,0,0.1,0,0.2,0c0-0.1,0-0.2,0-0.5s0-0.5,0-0.5
		c0.1,0,0.1-0.1,0.1-0.1s0-0.1-0.1-0.1c0-0.5,0-1,0-1.5c0-0.2,0-0.4,0-0.5c0.1-0.2,0.1-0.3-0.1-0.4v-0.4c0,0,0-0.2,0-0.4
		c0-0.5-0.1-0.7-0.1-0.8c0.1-0.1,0.1-0.2,0-0.3c0-0.1,0-0.2,0-0.3c0-0.1,0-0.2,0-0.3c0-0.1-0.1-0.2-0.2-0.2V68c0-0.1,0-0.1,0-0.1
		l0.1-0.1v-0.1c0-0.1,0-0.1,0-0.1c-0.1-0.1-0.1-0.1-0.2-0.1v-0.1c0,0,0,0,0.1,0s0.1,0,0.1,0s-0.1-0.1-0.2-0.1c0-0.1,0-0.2,0.1-0.2
		c0-0.3-0.1-0.4-0.1-0.4c-0.1,0-0.1,0-0.1,0v-0.1c0.1,0,0.2,0,0.2-0.1c0,0,0-0.1-0.1-0.1h-0.1c0-0.1,0-0.1,0-0.2h0.1
		c0,0,0.1,0,0.1-0.1c0,0,0,0,0-0.1c0,0,0,0,0-0.1s0-0.2,0-0.3c0-0.1,0-0.2,0-0.3c0,0,0-0.1-0.1-0.1l-0.1-0.1c0-0.1,0-0.2,0-0.3
		c0,0,0-0.1,0-0.2s0-0.1,0-0.2c0,0,0,0-0.1-0.1c0,0-0.1,0-0.1-0.1l0.1-0.2c0-0.1,0-0.2-0.1-0.4c0-0.2,0-0.3-0.1-0.4
		c0,0,0-0.1-0.1-0.2c0-0.1,0-0.2-0.1-0.2c0,0,0,0-0.1,0c0,0,0,0-0.1,0c-0.1-0.1,0-0.2,0.1-0.3v-0.1c0-0.1,0-0.1,0-0.1
		s-0.1,0-0.2-0.1c0,0,0-0.1,0.1-0.1v-0.5c-0.1,0-0.1-0.1-0.1-0.1s0-0.1,0-0.2c0-0.2,0-0.3-0.1-0.3v-0.1c0-0.1,0-0.1,0-0.3
		c0-0.1,0-0.2,0-0.2s0,0-0.1-0.1c0,0-0.1,0-0.1-0.1c0.1-0.1,0.1-0.1,0-0.2c0-0.1-0.1-0.1-0.2-0.2c0-0.2,0-0.3,0.1-0.4
		c0-0.1,0-0.2-0.1-0.3S61,58.9,61,58.8C60.3,59,60.3,59,60.3,59s0,0,0.1,0c0-0.1,0-0.2,0-0.2c0.2,0,0.3-0.2,0.3-0.5
		C61.1,58.2,61.3,58.1,61.3,57.9z"/>
</g>
</svg>
