<?xml version="1.0" encoding="utf-8"?>
<!-- Generator: Adobe Illustrator 19.0.1, SVG Export Plug-In . SVG Version: 6.00 Build 0)  -->
<svg version="1.1" id="Layer_1" xmlns="http://www.w3.org/2000/svg" xmlns:xlink="http://www.w3.org/1999/xlink" x="0px" y="0px"
	 viewBox="0 0 100 100" enable-background="new 0 0 100 100" xml:space="preserve">
<g id="Layer_1_1_">
	<g>
		<g>
			<g>
				<g>
					<path fill="#54813B" d="M20.3,30.3C42,41.5,57.9,57.7,76,73.7c2.9,2.6,7.2-1.7,4.3-4.3C61.7,53.1,45.5,36.5,23.4,25.1
						C19.9,23.3,16.8,28.5,20.3,30.3L20.3,30.3z"/>
				</g>
			</g>
			<g>
				<g>
					<path fill="#54813B" d="M23.4,70c17.5-12.9,36.4-23.3,56.3-32.1c3.6-1.6,0.5-6.8-3-5.2c-19.9,8.7-38.8,19.2-56.3,32.1
						C17.2,67.1,20.2,72.3,23.4,70L23.4,70z"/>
				</g>
			</g>
		</g>
		<g>
			<path fill="#54813B" d="M55.6,42.8h-9.8c-0.8,0-1.6-0.5-2.2-1.2c-0.7-0.8-0.9-1.9-0.7-3.1l0.4-3.4c0-1.3,1.1-2.5,2.5-2.5l8.4-0.6
				c1.5-0.2,2.5,0,3.2,0.6c0.8,0.7,0.8,1.8,0.8,2.5v5.1C58.1,41.6,57,42.8,55.6,42.8z M55.1,32.7c-0.3,0-0.6,0-0.9,0.1l-8.4,0.6
				c-1,0-1.8,0.8-1.8,1.7l-0.4,3.5c-0.3,1.2,0.1,2,0.5,2.4c0.5,0.6,1.2,0.9,1.6,0.9h9.8c1,0,1.7-0.8,1.7-1.7v-5.1c0-0.7,0-1.5-0.6-2
				C56.4,32.9,55.9,32.7,55.1,32.7z"/>
		</g>
		<g>
			<path fill="#54813B" d="M76,42.8h-9.8c-0.8,0-1.6-0.5-2.2-1.2c-0.7-0.8-0.9-1.9-0.7-3.1l0.4-3.4c0-1.3,1.1-2.5,2.5-2.5l8.4-0.6
				c1.5-0.2,2.5,0,3.2,0.6c0.8,0.7,0.8,1.8,0.8,2.5v5.1C78.5,41.6,77.4,42.8,76,42.8z M75.5,32.7c-0.3,0-0.6,0-0.9,0.1l-8.4,0.6
				c-1,0-1.8,0.8-1.8,1.7L64,38.7c-0.3,1.2,0.1,2,0.5,2.4c0.5,0.6,1.2,0.9,1.6,0.9H76c1,0,1.7-0.8,1.7-1.7v-5.1c0-0.7,0-1.5-0.6-2
				C76.8,32.9,76.2,32.7,75.5,32.7z"/>
		</g>
		<g>
			<path fill="#54813B" d="M34.5,42.7h-9.8c-1.4,0-2.5-1.1-2.5-2.5l-0.4-5c0-1.5,1.6-2.7,2.9-2.7l9-0.6l0,0c1.3,0,2.2,0.3,2.8,0.8
				c0.6,0.6,0.6,1.5,0.6,2.1v5.3C37,41.6,35.9,42.7,34.5,42.7z M33.7,32.7l-9,0.6c-1,0-2.2,0.9-2.2,1.8l0.4,5c0,1,0.8,1.8,1.7,1.8
				h9.8c1,0,1.7-0.8,1.7-1.7v-5.3c0-0.6,0-1.2-0.4-1.6C35.5,32.9,34.8,32.7,33.7,32.7z"/>
		</g>
		<g>
			<path fill="#54813B" d="M76,56.1h-9.8c-1.4,0-2.5-1.1-2.5-2.5l-0.4-5c0-1.5,1.6-2.7,2.9-2.7l9-0.6l0,0c1.3,0,2.2,0.3,2.8,0.8
				c0.6,0.6,0.6,1.5,0.6,2.1v5.3C78.5,55,77.4,56.1,76,56.1z M75.1,46.1l-9,0.6c-1,0-2.2,0.9-2.2,1.8l0.4,5c0,1,0.8,1.8,1.7,1.8h10
				c1,0,1.7-0.8,1.7-1.7v-5.3c0-0.6,0-1.2-0.4-1.6C77,46.3,76.2,46.1,75.1,46.1z"/>
		</g>
		<g>
			<path fill="#54813B" d="M55.6,55.3h-9.8c-1.4,0-2.5-1.1-2.5-2.5l-0.4-5c0-1.5,1.6-2.7,2.9-2.7l9-0.6l0,0c1.3,0,2.2,0.3,2.8,0.8
				c0.6,0.6,0.6,1.5,0.6,2.1v5.3C58.1,54.1,57,55.3,55.6,55.3z M54.7,45.3l-9,0.6c-1,0-2.2,0.9-2.2,1.8l0.4,5c0,1,0.8,1.8,1.7,1.8
				h9.8c1,0,1.7-0.8,1.7-1.7v-5.3c0-0.6,0-1.2-0.4-1.6C56.6,45.5,55.8,45.3,54.7,45.3z"/>
		</g>
		<g>
			<path fill="#54813B" d="M76,68.5h-9.8c-1.4,0-2.5-1.1-2.5-2.5l-0.4-5c0-1.5,1.6-2.7,2.9-2.7l9-0.6l0,0c1.3,0,2.2,0.3,2.8,0.8
				c0.6,0.6,0.6,1.5,0.6,2.1v5.3C78.5,67.3,77.4,68.5,76,68.5z M75.1,58.5l-9,0.6c-1,0-2.2,0.9-2.2,1.8l0.4,5c0,1,0.8,1.8,1.7,1.8
				h10c1,0,1.7-0.8,1.7-1.7v-5.3c0-0.6,0-1.2-0.4-1.6C77,58.7,76.2,58.5,75.1,58.5z"/>
		</g>
		<g>
			<path fill="#54813B" d="M34.3,55.3H24.1c-1.4,0-2.6-1.1-2.6-2.5v-5.3c0-0.7,0-1.5,0.6-2.1c0.5-0.6,1.5-0.8,2.9-0.8l9.4,0.6l0,0
				c1.4,0,3,1.2,3,2.6l-0.4,5C36.9,54.1,35.7,55.3,34.3,55.3z M24.9,45.3c-1.1,0-1.9,0.2-2.3,0.6c-0.4,0.4-0.4,1-0.4,1.6v5.3
				c0,1,0.8,1.7,1.8,1.7h10.2c1,0,1.8-0.8,1.8-1.7l0.4-5c0-0.9-1.3-1.8-2.3-1.8L24.9,45.3z"/>
		</g>
		<g>
			<path fill="#54813B" d="M34.5,67.7h-9.8c-1.4,0-2.5-1.1-2.5-2.5l-0.4-5c0-1.5,1.6-2.7,2.9-2.7l9-0.6l0,0c1.3,0,2.2,0.3,2.8,0.8
				c0.6,0.6,0.6,1.5,0.6,2.1v5.3C37,66.5,35.9,67.7,34.5,67.7z M33.7,57.7l-9,0.6c-1,0-2.2,0.9-2.2,1.8l0.4,5c0,1,0.8,1.8,1.7,1.8
				h9.8c1,0,1.7-0.8,1.7-1.7v-5.3c0-0.6,0-1.2-0.4-1.6C35.5,57.9,34.8,57.7,33.7,57.7z"/>
		</g>
		<g>
			<path fill="#54813B" d="M55.2,67.7h-9.8c-1.4,0-2.5-1.1-2.5-2.5v-5.3c0-0.7,0-1.5,0.6-2.1c0.5-0.5,1.4-0.8,2.7-0.8l9,0.6l0,0
				c1.3,0,2.9,1.2,2.9,2.6l-0.4,5C57.7,66.5,56.6,67.7,55.2,67.7z M46.1,57.7c-1,0-1.8,0.2-2.2,0.6c-0.4,0.4-0.4,1-0.4,1.6v5.3
				c0,1,0.8,1.7,1.7,1.7H55c1,0,1.7-0.8,1.7-1.7l0.4-5c0-0.9-1.2-1.8-2.2-1.8L46.1,57.7z"/>
		</g>
	</g>
</g>
<g id="Layer_2" display="none">
	<circle display="inline" fill="none" stroke="#231F20" stroke-miterlimit="10" cx="50" cy="50" r="50"/>
</g>
</svg>
