<?xml version="1.0" encoding="utf-8"?>
<!-- Generator: Adobe Illustrator 19.0.1, SVG Export Plug-In . SVG Version: 6.00 Build 0)  -->
<svg version="1.1" id="Layer_1" xmlns="http://www.w3.org/2000/svg" xmlns:xlink="http://www.w3.org/1999/xlink" x="0px" y="0px"
	 viewBox="0 0 100 100" enable-background="new 0 0 100 100" xml:space="preserve">
<g id="Layer_1_1_">
	<g>
		<g>
			<path fill="#54813B" d="M40,27.9c-1,14.8-1.3,29.4-0.1,44.3c0.8,10.1,16.7,10.2,15.9,0c-1.2-14.8-1-29.4,0.1-44.3
				C56.6,17.7,40.7,17.7,40,27.9L40,27.9z"/>
		</g>
		<g>
			<path fill="#54813B" d="M29.8,57.5c13.5,0.2,26.9,0.5,40.4,0.7c10.2,0.2,10.2-15.7,0-15.9c-13.5-0.2-26.9-0.5-40.4-0.7
				C19.6,41.5,19.6,57.3,29.8,57.5L29.8,57.5z"/>
		</g>
	</g>
</g>
<g id="Layer_2" display="none">
	<circle display="inline" fill="none" stroke="#231F20" stroke-miterlimit="10" cx="50" cy="50" r="50"/>
</g>
</svg>
