<?xml version="1.0" encoding="utf-8"?>
<!-- Generator: Adobe Illustrator 19.0.1, SVG Export Plug-In . SVG Version: 6.00 Build 0)  -->
<svg version="1.1" id="Layer_1" xmlns="http://www.w3.org/2000/svg" xmlns:xlink="http://www.w3.org/1999/xlink" x="0px" y="0px"
	 viewBox="0 0 100 100" enable-background="new 0 0 100 100" xml:space="preserve">
<g id="Layer_1_1_">
	<g>
		<g>
			<path fill="#C35B28" d="M20.5,46c4.1,9.6,16.1,15,25.9,16.7c12.6,2.2,23.3-5.1,32.5-12.8c2.8-2.4-1.3-6.5-4.1-4.1
				c-8.4,7.2-18,13.6-29.5,10.7c-7.7-1.9-16.5-5.8-19.8-13.4C24,39.7,19,42.6,20.5,46L20.5,46z"/>
		</g>
		<g>
			<path fill="#C35B28" d="M29.4,60.1c0.3-1.1,0.7-1.9,1.5-2.8c2-2.2-1.3-5.5-3.3-3.3c-1.3,1.4-2.2,3-2.7,4.8
				C24.1,61.7,28.6,62.9,29.4,60.1L29.4,60.1z"/>
		</g>
		<g>
			<path fill="#C35B28" d="M38.9,63.5c-0.1-0.7,0-1.4,0.5-2c1.9-2.3-1.4-5.6-3.3-3.3c-1.6,2-2.2,4-1.7,6.5
				C35,67.7,39.5,66.4,38.9,63.5L38.9,63.5z"/>
		</g>
		<g>
			<path fill="#C35B28" d="M53.2,65.8c0-0.9,0-1.9,0-2.8c0-3-4.6-3-4.6,0c0,0.9,0,1.9,0,2.8C48.5,68.8,53.2,68.8,53.2,65.8
				L53.2,65.8z"/>
		</g>
		<g>
			<path fill="#C35B28" d="M58.5,61.3c0.5,1,1,1.9,1.5,2.9c1.4,2.7,5.4,0.3,4-2.3c-0.5-1-1-1.9-1.5-2.9
				C61.1,56.3,57.1,58.6,58.5,61.3L58.5,61.3z"/>
		</g>
		<g>
			<path fill="#C35B28" d="M68.1,56.9c0.8,1.3,1.7,2.5,2.8,3.5c2.2,2.1,5.4-1.2,3.3-3.3c-0.8-0.8-1.5-1.6-2-2.6
				C70.6,51.9,66.6,54.3,68.1,56.9L68.1,56.9z"/>
		</g>
	</g>
</g>
<g id="Layer_2" display="none">
	<circle display="inline" fill="none" stroke="#231F20" stroke-miterlimit="10" cx="50" cy="50" r="50"/>
</g>
</svg>
