<?xml version="1.0" encoding="utf-8"?>
<!-- Generator: Adobe Illustrator 19.0.1, SVG Export Plug-In . SVG Version: 6.00 Build 0)  -->
<svg version="1.1" id="Layer_1" xmlns="http://www.w3.org/2000/svg" xmlns:xlink="http://www.w3.org/1999/xlink" x="0px" y="0px"
	 viewBox="0 0 100 100" enable-background="new 0 0 100 100" xml:space="preserve">
<g>
	<path fill="#C35B28" d="M30.9,40.3c-0.1,0.1,0,0.4,0,0.9c0.1,0,0.1,0.1,0.1,0.1c0,0.2,0,0.3,0,0.3s0,0.1-0.1,0.1
		c0,0.2,0,0.4,0.1,0.5c0,0.1,0,0.2,0,0.5s0,0.4-0.1,0.5v0.1c0,0.1,0,0.1,0,0.1s0,0.1,0.1,0.2c0.1,0.1,0.1,0.2,0.1,0.3V44l0.1,0.1
		c0,0.1,0.1,0.1,0.1,0.1s0,0.1,0,0.2v0.1v0.1v0.1v0.1v0.1l0.1,0.1v0.1c0,0.1,0,0.1,0,0.1s0,0.1,0.1,0.2c0.1,0.4,0.1,0.6,0.2,0.6
		s0.1,0,0.1-0.1h0.1c0,0,0,0,0.1,0l0.1-0.1v0.1c0,0,0,0,0.1,0c0.3-0.1,0.4-0.1,0.4-0.1c0.1,0,0.1,0,0.1,0h0.1h0.1
		c0.1,0,0.2,0,0.2-0.1h0.2c0.2,0.1,0.2,0.2,0.2,0.2h0.1c0.1,0.1,0.2,0.2,0.4,0.4s0.3,0.3,0.4,0.4c0.1,0,0.1,0,0.2,0
		c0,0.1,0,0.2,0,0.4s0,0.4,0,0.5c0.1,0.1,0.1,0.1,0,0.2c-0.1,0.1-0.1,0.1-0.2,0.1c0,0.1,0,0.2,0,0.3c-0.1,0-0.1,0.1-0.2,0.1
		c0,0,0,0,0,0.1s0,0.1,0,0.1c-0.1,0-0.1,0-0.1,0C34,48.6,34,48.6,34,48.7c-0.1,0.1-0.2,0.1-0.2,0.1s-0.1,0.1-0.1,0.2
		c-0.1,0.1-0.1,0.1-0.2,0.2h-0.1c-0.1,0.1-0.1,0.1-0.1,0.1c-0.1,0-0.2,0-0.3,0s-0.2,0-0.2,0.1c-0.1,0-0.2,0-0.3,0s-0.2,0-0.3,0
		s-0.1,0.1-0.1,0.2c0,0.1,0,0.2,0.1,0.3V50c0,0,0,0,0,0.1s0,0.2,0,0.4s0,0.3,0,0.4c0,0.1,0,0.2,0.1,0.3s0.1,0.2,0.1,0.3v0.1v0.1v0.1
		h0.1l0,0l0,0c0,0.1,0,0.1-0.1,0.1s-0.1,0.1-0.1,0.2c0,0.1,0,0.1,0,0.2v0.1l0.1,0.1c0,0,0,0.1-0.1,0.1c0,0-0.1,0-0.1,0.1
		c0,0,0.1,0.1,0.2,0.1c0.1,0.1,0.1,0.1,0.1,0.2c0,0,0,0.1-0.1,0.1c0,0.1-0.1,0.1-0.1,0.1s0,0,0,0.1s0,0.2,0,0.4s0,0.3,0,0.4
		s0.1,0.2,0.1,0.3c0,0,0,0.1,0,0.2c0,0.1,0,0.3,0,0.7s0,0.6,0,0.6s0,0.1,0.1,0.2c0,0.1,0,0.3,0,0.5s0,0.4,0,0.5c0,0.2,0,0.3,0,0.3
		c0,0.2,0,0.3,0,0.4c0,0,0.1,0,0.1,0.1s0.1,0.1,0,0.2c-0.1,0-0.1,0.1-0.1,0.3s0,0.2,0.1,0.3c0,0.1,0,0.2,0,0.3
		c-0.1,0.1-0.1,0.3,0,0.5c0.1,0.3,0.1,0.4-0.1,0.5v0.3c-0.2,0.1-0.4,0.1-0.5,0.2c0.1,0.1,0.1,0.1,0,0.1h-0.1l-0.1-0.1l-0.1,0.1
		l-0.1,0.1h-0.1h-0.1c-0.2,0.2-0.4,0.2-0.5,0.1h-0.1h-0.1h-0.1c0,0,0,0-0.1,0h-0.1c-0.1-0.2-0.1-0.4-0.1-0.4c-0.1,0-0.3-0.1-0.7-0.4
		h-0.1h-0.1c0-0.1,0-0.2-0.1-0.3l0,0h-0.1c0,0,0-0.1,0.1-0.2c0-0.2,0-0.3-0.1-0.3v-0.1V59c0,0,0-0.1,0-0.2c0-0.1-0.1-0.2-0.1-0.2
		c0-0.1,0-0.2,0-0.3c0-0.2,0.1-0.3,0.1-0.4c0,0,0-0.1-0.1-0.1v-0.1v-0.1c0,0,0-0.1-0.1-0.1c0-0.1-0.1-0.1-0.1-0.1c0-0.1,0-0.1,0-0.1
		v-0.1v-0.1V57c0,0,0-0.1-0.1-0.1c0.1-0.1,0.1-0.2,0.1-0.3c0,0-0.1,0-0.1-0.1s0-0.1,0-0.2c0,0,0-0.1,0-0.2c0-0.1,0-0.2,0-0.2
		c0-0.1,0-0.2,0-0.3c0-0.2,0-0.4-0.1-0.4c0-0.4,0-0.8,0-1.2c0,0,0-0.1,0-0.2s0-0.2,0-0.2s0-0.1-0.1-0.1s-0.1-0.1,0-0.2
		c0.1,0,0.1-0.1,0.1-0.1c-0.1-0.2-0.1-0.3-0.1-0.3c0.1-0.1,0.1-0.1,0.1-0.1s0-0.1-0.1-0.2c0-0.1,0-0.2,0-0.2c0-0.1,0-0.2,0-0.3
		s0-0.2,0-0.3s0-0.1,0-0.2c0-0.1,0-0.1,0-0.1s0,0,0-0.1c0,0,0-0.1,0.1-0.1c0-0.2-0.1-0.3-0.2-0.4v-0.1v-0.1c0-0.1-0.1-0.1-0.1,0
		l-0.1,0.1c-0.1,0-0.2,0-0.3,0c-0.2,0-0.3,0-0.4,0.1c0,0-0.1,0-0.3,0c0,0-0.1,0.1-0.2,0.2c0,0,0,0,0-0.1v-0.1c0-0.1-0.1,0-0.2,0
		s-0.1,0-0.2,0s-0.1,0-0.2,0L26.4,51h-0.1c-0.4,0-0.6,0.1-0.7,0.2c-0.6,0-0.9,0.1-0.9,0.2c0,0-0.1,0-0.3,0H25c-0.1,0-0.2,0-0.4,0.1
		c-0.2,0-0.3,0.1-0.3,0.1c-0.1,0-0.1,0-0.2,0c-0.2,0-0.3,0-0.4,0c0,0-0.1,0-0.1,0.1s0,0.1-0.1,0.1c0,0-0.1,0-0.2,0s-0.2,0-0.2,0H23
		h-0.1c0,0-0.1,0-0.1,0.1h-1.2c0,0-0.1-0.1-0.3-0.1h-0.1c-0.1-0.1-0.2-0.1-0.3-0.1c-0.1,0-0.1,0.2-0.1,0.4v0.1v0.1
		c0,0.1,0,0.1,0,0.1c0,0.1,0,0.2,0,0.3c0,0.3,0,0.4,0,0.5c0,0.2,0,0.3,0,0.4c0.1,0,0.1,0,0.1,0v0.1v0.1c0,0.2,0,0.3-0.1,0.4
		c0,0,0.1,0.1,0.2,0.1v0.1c0,0,0,0.1-0.1,0.1c0,0.5,0,0.7,0,0.8s0,0.2,0,0.3c0,0.2,0,0.3,0.1,0.4v0.1v0.1c0,0,0,0-0.1,0.1l-0.1,0.1
		c0,0,0,0.1,0.1,0.2c0,0.1,0.1,0.2,0,0.2c0,0,0,0.1-0.1,0.2c0,0,0,0.1,0.1,0.2v0.1c0,0,0,0,0,0.1c0.1,0,0.1,0.2,0,0.5
		c0,0.1,0,0.2,0,0.3s0,0.2,0,0.2c0,0.6,0,0.9,0.1,1v0.4c0,0.2,0,0.4,0,0.6c0,0.2,0,0.4,0.1,0.5V61c0,0.3-0.2,0.6-0.6,1
		c-0.1,0-0.2,0-0.3,0.2c-0.1,0.1-0.2,0.1-0.2,0.1c-0.1-0.1-0.2-0.1-0.2-0.1c-0.1,0-0.1,0.1-0.2,0.2l0,0v-0.1c0-0.1-0.2-0.1-0.4-0.1
		C19.1,62.1,19,62.1,19,62c-0.3,0-0.5-0.1-0.5-0.3c-0.1,0.1-0.3,0.1-0.4,0v-0.1c0,0-0.1-0.1-0.1-0.2c0,0.2,0,0.1,0,0.1
		c-0.1,0-0.1,0-0.1,0c0-0.1,0-0.2,0.1-0.2c0,0,0-0.2,0-0.5s0-0.5,0-0.6s0-0.3,0-0.7c0-0.1,0-0.2,0-0.2h-0.1l0,0c0,0,0-0.1,0-0.4
		l0.1-0.1c0,0,0,0,0-0.1s0-0.3,0-0.6s0-0.5,0-0.6v-0.1v-0.1v-0.1c0-0.1,0-0.1,0-0.1c0-0.1,0-0.2,0-0.2v-0.1v-0.1c0-0.1,0-0.1,0-0.1
		v-0.1v-0.1c0,0,0,0,0-0.1v-0.1c0,0,0-0.1,0-0.2c0-0.1,0-0.3,0-0.4c0-0.2,0-0.3,0-0.4c0,0,0,0,0-0.1c0-0.2,0-0.3,0-0.3v-0.1
		c0-0.1-0.1-0.1-0.1-0.1c-0.1-0.2,0-0.3,0.1-0.3v-0.1c0,0-0.1,0-0.1-0.1C18,54,18,53.9,18,53.8s0-0.3,0-0.8c0-0.4,0-0.7,0-0.8
		c0-0.4,0-0.7-0.1-0.8c0.1-0.1,0.1-0.2,0.1-0.3s-0.1-0.2-0.2-0.2v-0.1l0,0h0.1c0,0,0,0,0.1,0v-0.1v-0.1c0-0.1,0-0.4,0-0.9
		s0-0.7-0.1-0.7h-0.1c0,0,0-0.1,0.1-0.2c-0.1-0.1-0.1-0.3,0-0.4c0-0.2,0-0.3,0-0.5c0-0.1-0.1-0.2-0.2-0.2c0-0.3,0.1-0.5,0.1-0.5
		c0-0.1,0-0.2,0-0.4s0-0.4,0-0.5l-0.1-0.1v-0.1c0,0,0-0.1,0-0.2c0,0,0-0.2,0-0.5c0,0,0-0.1,0-0.2c0-0.1,0-0.2,0-0.2v-0.1
		c0,0,0-0.1-0.1-0.1c0,0-0.1-0.1,0-0.1l0.1-0.1v-0.1v-0.1c0-0.1,0-0.1,0-0.2c0-0.1,0-0.1,0-0.2c0,0,0-0.1,0-0.2c0-0.1,0-0.2,0-0.2
		s0-0.1,0-0.2c0-0.1,0-0.2,0-0.2c0-0.2,0-0.3,0-0.3c0.1-0.1,0.1-0.2,0-0.3c0,0,0,0-0.1,0h-0.1c0-0.1,0-0.2,0.1-0.3
		c-0.1-0.1-0.1-0.2-0.1-0.3s0-0.2,0-0.3c0-0.2,0-0.3,0-0.3c0-0.1,0-0.2,0-0.2s0,0,0-0.1V41c0,0,0-0.1,0.1-0.2
		c0.1-0.1,0.1-0.2,0.1-0.3c0,0,0.1-0.1,0.2-0.2c0.2-0.2,0.3-0.3,0.5-0.3l0.1-0.1v-0.1c0.1,0,0.1,0,0.2,0c0,0,0.1,0,0.2,0
		c0,0,0.1,0,0.1-0.1c0,0,0-0.1,0.1-0.1s0.1,0,0.1,0l0.1,0.1c0.1,0,0.1,0,0.2,0s0.1,0,0.2,0c0.2,0.1,0.3,0.2,0.3,0.2
		c0.4,0.2,0.7,0.4,0.9,0.7c0,0.1,0,0.1,0,0.1c0.1,0.1,0.1,0.2,0.2,0.3v0.1v0.1c0.1,0.1,0.1,0.2,0.1,0.3v0.1v0.1c0,0,0,0.1,0,0.2
		c0,0.1,0,0.2,0,0.3s0,0.2,0,0.3c0,0.2,0,0.3,0.1,0.3c-0.2,0.1-0.1,0.2,0,0.3c0,0,0,0.1-0.1,0.1c0,0.5,0.1,0.7,0.1,0.7
		c0,0.2,0,0.3,0.1,0.4c-0.1,0-0.1,0.1,0,0.4c0,0.3,0,0.4,0,0.5s0,0.2,0,0.2s0,0,0,0.1l0,0c0,0.1,0,0.1,0,0.2c0,0.2,0,0.4,0.1,0.4
		c-0.1,0.1-0.1,0.1-0.1,0.1c0,0.1,0,0.2,0,0.4s0.1,0.3,0.1,0.4c0,0.2,0.1,0.3,0.1,0.3s0,0.2,0,0.4c0,0.1,0,0.2,0,0.2s0,0,0,0.1v0.1
		v0.1v0.1c0,0,0,0,0,0.1v0.1v0.1c0,0-0.1,0-0.1,0.1c0.1,0.1,0.1,0.2,0.1,0.3s0,0.2,0,0.3s0.1,0.2,0.2,0.2s0.3,0.1,0.4,0
		c0.1,0,0.3,0,0.4,0c0.3,0.1,0.5,0.1,0.5,0h0.2h0.1h0.1c0.1,0,0.2,0,0.4-0.1c0.1,0,0.1,0,0.2,0s0.2,0,0.2,0l0,0
		c0.3,0.1,0.6,0,0.7-0.1c0.1,0,0.1,0,0.1,0l0.1,0.1c0.3-0.2,0.4-0.3,0.4-0.3c0.1,0,0.2,0,0.3,0c0.1,0,0.1,0,0.2,0s0.2,0,0.2,0h0.1
		h0.1h0.1h0.1h0.1c0.1,0,0.1,0,0.2,0l0.7-0.1c0,0,0.1,0,0.1-0.1l0.1-0.1H28h0.1c0.1,0,0.1,0,0.2-0.1c0,0,0.1,0,0.1-0.1
		c0.1-0.1,0.2-0.1,0.3,0c0.1-0.1,0.2-0.1,0.4-0.1c0.2,0,0.3,0,0.4-0.1c0,0,0-0.1,0-0.2c0-0.1,0-0.1,0-0.1s0,0-0.1-0.1v-0.1
		c0-0.1,0-0.1,0-0.1v-0.1c-0.1-0.1-0.1-0.2,0-0.2c0-0.2,0-0.3-0.1-0.3c0-0.1,0-0.3,0-0.5s0-0.4,0-0.5c-0.1-0.1-0.1-0.2-0.1-0.2
		c0-0.1,0-0.2,0-0.3c0-0.2,0-0.3,0-0.3c0-0.1,0-0.2,0-0.2s0,0-0.1,0H29c0-0.1,0-0.1,0.1-0.2c0-0.2,0-0.3,0-0.5s-0.1-0.2-0.2-0.2
		c0-0.1,0-0.1,0.1-0.2c0-0.1,0-0.2,0-0.3s0-0.2,0-0.3c0,0,0-0.1-0.1-0.2c0-0.1,0-0.1,0-0.2c0-0.1,0-0.2,0-0.2l-0.1-0.1
		c0,0-0.1,0-0.1-0.1c0-0.4,0-0.7,0-0.8s0-0.2,0-0.3s0-0.2,0-0.3v-0.1c0-0.1,0-0.1,0-0.1s0-0.1-0.1-0.1c0-0.1,0-0.2,0-0.3
		c-0.1-0.1-0.1-0.2-0.1-0.2c0-0.1,0-0.2,0-0.3s0-0.3,0-0.3l-0.1-0.1c0,0,0-0.1,0-0.2c0-0.1,0-0.2,0-0.2l-0.1-0.1l-0.1-0.1
		c0,0,0-0.1,0-0.3s0-0.3,0-0.4c-0.1,0-0.1,0-0.1,0s0-0.1,0-0.3s0-0.3-0.1-0.3c0.1-0.3,0.1-0.6,0-0.8h0.1l0,0
		c0.1-0.2,0.2-0.3,0.2-0.4c0.1-0.1,0.2-0.3,0.4-0.4c0.2-0.1,0.3-0.2,0.4-0.3c0.1,0.1,0.1,0.1,0.1,0.1c0-0.1,0.2-0.1,0.5-0.1
		c0.1,0.1,0.2,0.1,0.3,0.1c0.1,0,0.2,0.1,0.3,0.1c0.1,0,0.2,0.2,0.3,0.3h0.1c0,0,0,0,0.1,0c0,0,0,0.1,0.1,0.2
		c0.1,0.1,0.2,0.1,0.2,0.2l0.1,0.1c0,0.1,0,0.1,0,0.1s0.1,0.1,0.1,0.2C30,36,30,36.1,30,36.1v0.1c0.1,0.1,0.1,0.2,0.2,0.3
		c0,0.2,0.1,0.3,0.2,0.3c0,0.1,0,0.2,0,0.4s0,0.3,0,0.4c0,0,0,0.1,0.1,0.1v0.1v0.1V38v0.1v0.1c0,0.1,0.1,0.2,0.1,0.3
		s0.1,0.2,0.1,0.3c0,0,0,0.1,0,0.2c0,0,0,0.1,0,0.2c0,0.1,0.1,0.2,0.1,0.2L30.9,40.3C30.9,40.2,30.9,40.2,30.9,40.3z M30.9,40.3
		c-0.1,0.1,0,0.4,0,0.9c0.1,0,0.1,0.1,0.1,0.1c0,0.2,0,0.3,0,0.3s0,0.1-0.1,0.1c0,0.2,0,0.4,0.1,0.5c0,0.1,0,0.2,0,0.5
		s0,0.4-0.1,0.5v0.1c0,0.1,0,0.1,0,0.1s0,0.1,0.1,0.2c0.1,0.1,0.1,0.2,0.1,0.3V44l0.1,0.1c0,0.1,0.1,0.1,0.1,0.1s0,0.1,0,0.2v0.1
		v0.1v0.1v0.1v0.1l0.1,0.1v0.1c0,0.1,0,0.1,0,0.1s0,0.1,0.1,0.2c0.1,0.4,0.1,0.6,0.2,0.6s0.1,0,0.1-0.1h0.1c0,0,0,0,0.1,0l0.1-0.1
		v0.1c0,0,0,0,0.1,0c0.3-0.1,0.4-0.1,0.4-0.1c0.1,0,0.1,0,0.1,0h0.1h0.1c0.1,0,0.2,0,0.2-0.1h0.2c0.2,0.1,0.2,0.2,0.2,0.2h0.1
		c0.1,0.1,0.2,0.2,0.4,0.4s0.3,0.3,0.4,0.4c0.1,0,0.1,0,0.2,0c0,0.1,0,0.2,0,0.4s0,0.4,0,0.5c0.1,0.1,0.1,0.1,0,0.2
		c-0.1,0.1-0.1,0.1-0.2,0.1c0,0.1,0,0.2,0,0.3c-0.1,0-0.1,0.1-0.2,0.1c0,0,0,0,0,0.1s0,0.1,0,0.1c-0.1,0-0.1,0-0.1,0
		C34,48.6,34,48.6,34,48.7c-0.1,0.1-0.2,0.1-0.2,0.1s-0.1,0.1-0.1,0.2c-0.1,0.1-0.1,0.1-0.2,0.2h-0.1c-0.1,0.1-0.1,0.1-0.1,0.1
		c-0.1,0-0.2,0-0.3,0s-0.2,0-0.2,0.1c-0.1,0-0.2,0-0.3,0s-0.2,0-0.3,0s-0.1,0.1-0.1,0.2c0,0.1,0,0.2,0.1,0.3V50c0,0,0,0,0,0.1
		s0,0.2,0,0.4s0,0.3,0,0.4c0,0.1,0,0.2,0.1,0.3s0.1,0.2,0.1,0.3v0.1v0.1v0.1h0.1l0,0l0,0c0,0.1,0,0.1-0.1,0.1s-0.1,0.1-0.1,0.2
		c0,0.1,0,0.1,0,0.2v0.1l0.1,0.1c0,0,0,0.1-0.1,0.1c0,0-0.1,0-0.1,0.1c0,0,0.1,0.1,0.2,0.1c0.1,0.1,0.1,0.1,0.1,0.2
		c0,0,0,0.1-0.1,0.1c0,0.1-0.1,0.1-0.1,0.1s0,0,0,0.1s0,0.2,0,0.4s0,0.3,0,0.4s0.1,0.2,0.1,0.3c0,0,0,0.1,0,0.2c0,0.1,0,0.3,0,0.7
		s0,0.6,0,0.6s0,0.1,0.1,0.2c0,0.1,0,0.3,0,0.5s0,0.4,0,0.5c0,0.2,0,0.3,0,0.3c0,0.2,0,0.3,0,0.4c0,0,0.1,0,0.1,0.1s0.1,0.1,0,0.2
		c-0.1,0-0.1,0.1-0.1,0.3s0,0.2,0.1,0.3c0,0.1,0,0.2,0,0.3c-0.1,0.1-0.1,0.3,0,0.5c0.1,0.3,0.1,0.4-0.1,0.5v0.3
		c-0.2,0.1-0.4,0.1-0.5,0.2c0.1,0.1,0.1,0.1,0,0.1h-0.1l-0.1-0.1l-0.1,0.1l-0.1,0.1h-0.1h-0.1c-0.2,0.2-0.4,0.2-0.5,0.1
		c-0.1,0-0.1,0-0.1,0h-0.1h-0.1c0,0,0,0-0.1,0h-0.1c-0.1-0.2-0.1-0.4-0.1-0.4c-0.1,0-0.3-0.1-0.7-0.4h-0.1h-0.1c0-0.1,0-0.2-0.1-0.3
		l0,0h-0.1c0,0,0-0.1,0.1-0.2c0-0.2,0-0.3-0.1-0.3v-0.1V59c0,0,0-0.1,0-0.2c0-0.1-0.1-0.2-0.1-0.2c0-0.1,0-0.2,0-0.3
		c0-0.2,0.1-0.3,0.1-0.4c0,0,0-0.1-0.1-0.1v-0.1v-0.1c0,0,0-0.1-0.1-0.1c0-0.1-0.1-0.1-0.1-0.1c0-0.1,0-0.1,0-0.1v-0.1v-0.1V57
		c0,0,0-0.1-0.1-0.1c0.1-0.1,0.1-0.2,0.1-0.3c0,0-0.1,0-0.1-0.1s0-0.1,0-0.2c0,0,0-0.1,0-0.2c0-0.1,0-0.2,0-0.2c0-0.1,0-0.2,0-0.3
		c0-0.2,0-0.4-0.1-0.4c0-0.4,0-0.8,0-1.2c0,0,0-0.1,0-0.2s0-0.2,0-0.2s0-0.1-0.1-0.1s-0.1-0.1,0-0.2c0.1,0,0.1-0.1,0.1-0.1
		c-0.1-0.2-0.1-0.3-0.1-0.3c0.1-0.1,0.1-0.1,0.1-0.1s0-0.1-0.1-0.2c0-0.1,0-0.2,0-0.2c0-0.1,0-0.2,0-0.3s0-0.2,0-0.3s0-0.1,0-0.2
		c0-0.1,0-0.1,0-0.1s0,0,0-0.1c0,0,0-0.1,0.1-0.1c0-0.2-0.1-0.3-0.2-0.4v-0.1v-0.1c0-0.1-0.1-0.1-0.1,0l-0.1,0.1c-0.1,0-0.2,0-0.3,0
		c-0.2,0-0.3,0-0.4,0.1c0,0-0.1,0-0.3,0c0,0-0.1,0.1-0.2,0.2c0,0,0,0,0-0.1v-0.1c0-0.1-0.1,0-0.2,0s-0.1,0-0.2,0s-0.1,0-0.2,0
		L26.4,51h-0.1c-0.4,0-0.6,0.1-0.7,0.2c-0.6,0-0.9,0.1-0.9,0.2c0,0-0.1,0-0.3,0H25c-0.1,0-0.2,0-0.4,0.1c-0.2,0-0.3,0.1-0.3,0.1
		c-0.1,0-0.1,0-0.2,0c-0.2,0-0.3,0-0.4,0c0,0-0.1,0-0.1,0.1s0,0.1-0.1,0.1c0,0-0.1,0-0.2,0s-0.2,0-0.2,0H23h-0.1c0,0-0.1,0-0.1,0.1
		h-1.2c0,0-0.1-0.1-0.3-0.1h-0.1c-0.1-0.1-0.2-0.1-0.3-0.1c-0.1,0-0.1,0.2-0.1,0.4v0.1v0.1c0,0.1,0,0.1,0,0.1c0,0.1,0,0.2,0,0.3
		c0,0.3,0,0.4,0,0.5c0,0.2,0,0.3,0,0.4c0.1,0,0.1,0,0.1,0v0.1v0.1c0,0.2,0,0.3-0.1,0.4c0,0,0.1,0.1,0.2,0.1v0.1c0,0,0,0.1-0.1,0.1
		c0,0.5,0,0.7,0,0.8s0,0.2,0,0.3c0,0.2,0,0.3,0.1,0.4v0.1v0.1c0,0,0,0-0.1,0.1l-0.1,0.1c0,0,0,0.1,0.1,0.2c0,0.1,0.1,0.2,0,0.2
		c0,0,0,0.1-0.1,0.2c0,0,0,0.1,0.1,0.2v0.1c0,0,0,0,0,0.1c0.1,0,0.1,0.2,0,0.5c0,0.1,0,0.2,0,0.3s0,0.2,0,0.2c0,0.6,0,0.9,0.1,1v0.4
		c0,0.2,0,0.4,0,0.6c0,0.2,0,0.4,0.1,0.5V61c0,0.3-0.2,0.6-0.6,1c-0.1,0-0.2,0-0.3,0.2c-0.1,0.1-0.2,0.1-0.2,0.1
		c-0.1-0.1-0.2-0.1-0.2-0.1c-0.1,0-0.1,0.1-0.2,0.2l0,0v-0.1c0-0.1-0.2-0.1-0.4-0.1C19.1,62.1,19,62.1,19,62c-0.3,0-0.5-0.1-0.5-0.3
		c-0.1,0.1-0.3,0.1-0.4,0v-0.1c0,0-0.1-0.1-0.1-0.2c0,0.2,0,0.1,0,0.1c-0.1,0-0.1,0-0.1,0c0-0.1,0-0.2,0.1-0.2c0,0,0-0.2,0-0.5
		s0-0.5,0-0.6s0-0.3,0-0.7c0-0.1,0-0.2,0-0.2h-0.1l0,0c0,0,0-0.1,0-0.4l0.1-0.1c0,0,0,0,0-0.1s0-0.3,0-0.6s0-0.5,0-0.6v-0.1v-0.1
		v-0.1c0-0.1,0-0.1,0-0.1c0-0.1,0-0.2,0-0.2v-0.1v-0.1c0-0.1,0-0.1,0-0.1v-0.1v-0.1c0,0,0,0,0-0.1v-0.1c0,0,0-0.1,0-0.2
		c0-0.1,0-0.3,0-0.4c0-0.2,0-0.3,0-0.4c0,0,0,0,0-0.1c0-0.2,0-0.3,0-0.3v-0.1c0-0.1-0.1-0.1-0.1-0.1c-0.1-0.2,0-0.3,0.1-0.3v-0.1
		c0,0-0.1,0-0.1-0.1C18,54,18,53.9,18,53.8s0-0.3,0-0.8c0-0.4,0-0.7,0-0.8c0-0.4,0-0.7-0.1-0.8c0.1-0.1,0.1-0.2,0.1-0.3
		s-0.1-0.2-0.2-0.2v-0.1l0,0h0.1c0,0,0,0,0.1,0v-0.1v-0.1c0-0.1,0-0.4,0-0.9s0-0.7-0.1-0.7h-0.1c0,0,0-0.1,0.1-0.2
		c-0.1-0.1-0.1-0.3,0-0.4c0-0.2,0-0.3,0-0.5c0-0.1-0.1-0.2-0.2-0.2c0-0.3,0.1-0.5,0.1-0.5c0-0.1,0-0.2,0-0.4s0-0.4,0-0.5l-0.1-0.1
		v-0.1c0,0,0-0.1,0-0.2c0,0,0-0.2,0-0.5c0,0,0-0.1,0-0.2c0-0.1,0-0.2,0-0.2v-0.1c0,0,0-0.1-0.1-0.1c0,0-0.1-0.1,0-0.1l0.1-0.1v-0.1
		v-0.1c0-0.1,0-0.1,0-0.2c0-0.1,0-0.1,0-0.2c0,0,0-0.1,0-0.2c0-0.1,0-0.2,0-0.2s0-0.1,0-0.2c0-0.1,0-0.2,0-0.2c0-0.2,0-0.3,0-0.3
		c0.1-0.1,0.1-0.2,0-0.3c0,0,0,0-0.1,0h-0.1c0-0.1,0-0.2,0.1-0.3c-0.1-0.1-0.1-0.2-0.1-0.3s0-0.2,0-0.3c0-0.2,0-0.3,0-0.3
		c0-0.1,0-0.2,0-0.2s0,0,0-0.1V41c0,0,0-0.1,0.1-0.2c0.1-0.1,0.1-0.2,0.1-0.3c0,0,0.1-0.1,0.2-0.2c0.2-0.2,0.3-0.3,0.5-0.3l0.1-0.1
		v-0.1c0.1,0,0.1,0,0.2,0c0,0,0.1,0,0.2,0c0,0,0.1,0,0.1-0.1c0,0,0-0.1,0.1-0.1s0.1,0,0.1,0l0.1,0.1c0.1,0,0.1,0,0.2,0s0.1,0,0.2,0
		c0.2,0.1,0.3,0.2,0.3,0.2c0.4,0.2,0.7,0.4,0.9,0.7c0,0.1,0,0.1,0,0.1c0.1,0.1,0.1,0.2,0.2,0.3v0.1v0.1c0.1,0.1,0.1,0.2,0.1,0.3v0.1
		v0.1c0,0,0,0.1,0,0.2c0,0.1,0,0.2,0,0.3s0,0.2,0,0.3c0,0.2,0,0.3,0.1,0.3c-0.2,0.1-0.1,0.2,0,0.3c0,0,0,0.1-0.1,0.1
		c0,0.5,0.1,0.7,0.1,0.7c0,0.2,0,0.3,0,0.4c0,0,0,0.1,0,0.4c0,0.3,0,0.4,0,0.5s0,0.2,0,0.2v0.1c0,0.1,0,0.1,0,0.2
		c0,0.2,0,0.4,0.1,0.4c-0.1,0.1-0.1,0.1-0.1,0.1c0,0.1,0,0.2,0.1,0.4c0,0.2,0.1,0.3,0.1,0.4c0,0.2,0.1,0.3,0.1,0.3s0,0.2,0,0.4
		c0,0.1,0,0.2,0,0.2s0,0,0,0.1v0.1v0.1v0.1c0,0,0,0,0,0.1v0.1v0.1c0,0-0.1,0-0.1,0.1c0.1,0.1,0.1,0.2,0.1,0.3s0,0.2,0,0.3
		s0.1,0.2,0.2,0.2s0.3,0.1,0.4,0c0.1,0,0.3,0,0.4,0c0.3,0.1,0.5,0.1,0.5,0h0.2h0.1h0.1c0.1,0,0.2,0,0.4-0.1c0.1,0,0.1,0,0.2,0
		s0.2,0,0.2,0l0,0c0.3,0.1,0.6,0,0.7-0.1c0.1,0,0.1,0,0.1,0l0.1,0.1c0.3-0.2,0.4-0.3,0.4-0.3c0.1,0,0.2,0,0.3,0c0.1,0,0.1,0,0.2,0
		s0.2,0,0.2,0h0.1h0.1h0.1h0.1h0.1c0.1,0,0.1,0,0.2,0l0.7-0.1c0,0,0.1,0,0.1-0.1l0.1-0.1H28h0.1c0.1,0,0.1,0,0.2-0.1
		c0,0,0.1,0,0.1-0.1c0.1-0.1,0.2-0.1,0.3,0c0.1-0.1,0.2-0.1,0.4-0.1c0.2,0,0.3,0,0.4-0.1c0,0,0-0.1,0-0.2c0-0.1,0-0.1,0-0.1
		s0,0-0.1-0.1v-0.1c0-0.1,0-0.1,0-0.1v-0.1c-0.1-0.1-0.1-0.2,0-0.2c0-0.2,0-0.3-0.1-0.3c0-0.1,0-0.3,0-0.5s0-0.4,0-0.5
		c-0.1-0.1-0.1-0.2-0.1-0.2c0-0.1,0-0.2,0-0.3c0-0.2,0-0.3,0-0.3c0-0.1,0-0.2,0-0.2s0,0-0.1,0H29c0-0.1,0-0.1,0.1-0.2
		c0-0.2,0-0.3,0-0.5s-0.1-0.2-0.2-0.2c0-0.1,0-0.1,0.1-0.2c0-0.1,0-0.2,0-0.3s0-0.2,0-0.3c0,0,0-0.1-0.1-0.2c0-0.1,0-0.1,0-0.2
		c0-0.1,0-0.2,0-0.2v-0.1c0,0-0.1,0-0.1-0.1c0-0.4,0-0.7,0-0.8s0-0.2,0-0.3s0-0.2,0-0.3v-0.1c0-0.1,0-0.1,0-0.1s0-0.1-0.1-0.1
		c0-0.1,0-0.2,0-0.3c-0.1-0.1-0.1-0.2-0.1-0.2c0-0.1,0-0.2,0-0.3s0-0.3,0-0.3l-0.1-0.1c0,0,0-0.1,0-0.2c0-0.1,0-0.2,0-0.2l-0.1-0.1
		l-0.1-0.1c0,0,0-0.1,0-0.3s0-0.3,0-0.4c-0.1,0-0.1,0-0.1,0s0-0.1,0-0.3s0-0.3-0.1-0.3c0.1-0.3,0.1-0.6,0-0.8h0.1l0,0
		c0.1-0.2,0.2-0.3,0.2-0.4c0.1-0.1,0.2-0.3,0.4-0.4c0.2-0.1,0.3-0.2,0.4-0.3c0.1,0.1,0.1,0.1,0.1,0.1c0-0.1,0.2-0.1,0.5-0.1
		c0.1,0.1,0.2,0.1,0.3,0.1c0.1,0,0.2,0.1,0.3,0.1c0.1,0,0.2,0.2,0.3,0.3h0.1c0,0,0,0,0.1,0c0,0,0,0.1,0.1,0.2
		c0.1,0.1,0.2,0.1,0.2,0.2l0.1,0.1c0,0.1,0,0.1,0,0.1s0.1,0.1,0.1,0.2C30,36,30,36.1,30,36.1v0.1c0.1,0.1,0.1,0.2,0.2,0.3
		c0,0.2,0.1,0.3,0.2,0.3c0,0.1,0,0.2,0,0.4s0,0.3,0,0.4c0,0,0,0.1,0.1,0.1v0.1v0.1V38v0.1v0.1c0,0.1,0.1,0.2,0.1,0.3
		s0.1,0.2,0.1,0.3c0,0,0,0.1,0,0.2c0,0,0,0.1,0,0.2c0,0.1,0.1,0.2,0.1,0.2L30.9,40.3C30.9,40.2,30.9,40.2,30.9,40.3z"/>
	<path fill="#C35B28" d="M46.6,38.4c0,0,0.1,0,0.2,0c0.1,0,0.2,0,0.2,0l0,0c0,0,0,0,0,0.1c0,0,0.1,0,0.2,0s0.2,0,0.2,0.1
		c0.1,0,0.3,0,0.5,0.1c0.5,0,0.9,0.1,1,0.3H49c0.1,0.1,0.2,0.2,0.3,0.3c0.2,0.1,0.3,0.2,0.3,0.3v0.1c0.2,0.1,0.3,0.4,0.5,0.9h0.1
		l0,0c0.1,0.2,0,0.3,0,0.4c0,0.1,0,0.2,0,0.3c-0.1,0.1-0.1,0.2-0.1,0.2C50,41.8,50,41.9,50,41.9c0,0.1,0,0.2-0.1,0.3
		c0,0.1,0,0.1,0,0.2l-0.1,0.1h-0.1c0,0,0,0-0.1,0c0,0,0,0.1-0.1,0.1s-0.1,0.1-0.2,0l-0.1,0.1l-0.1,0.1c-0.2,0-0.3,0-0.3,0
		c0,0.1,0,0.1,0,0.1s-0.1,0-0.2,0c-0.1,0-0.2,0-0.2,0h-0.1h-0.1c0,0,0-0.1,0.1-0.1c0,0-0.1-0.1-0.1-0.2c0-0.1-0.1-0.1-0.1-0.2
		L48,42.5h-0.1c0-0.1,0-0.1-0.1-0.2c-0.1-0.1-0.1-0.1-0.2-0.1v0.1v0.1l-0.1-0.1l-0.1-0.1c0,0-0.1,0-0.1-0.1c0-0.2-0.2-0.3-0.6-0.3
		c-0.1,0-0.1,0-0.2,0.1c-0.1,0-0.1,0-0.2,0s-0.2,0-0.2,0L46,42c-0.1,0-0.2,0-0.5,0c-0.3,0.1-0.5,0.1-0.6,0.2c-0.2-0.1-0.3-0.1-0.4,0
		c-0.1,0-0.2,0-0.3,0s-0.2,0-0.3,0v0.1c-0.2,0-0.3,0-0.3,0c-0.1-0.1-0.2-0.1-0.3,0c0,0-0.1,0-0.1,0.1l-0.1,0.1c-0.1,0-0.1,0-0.2,0
		c-0.1,0-0.2,0-0.2,0l-0.1,0.1h-0.1c-0.1,0-0.1,0-0.1,0v0.1c-0.3,0-0.5,0-0.6,0v0.1c0,0,0,0,0,0.1C41.5,43,41.2,43,41,43.3
		c0,0-0.1,0-0.1-0.1c-0.1,0-0.1,0.1,0,0.2c0,0.1,0.1,0.1,0.1,0.1s0,0.1,0,0.2v0.1c0,0.1,0,0.1,0,0.1c0,0.2,0,0.2,0.1,0.2
		c0,0.1,0,0.2,0.1,0.4s0.1,0.3,0,0.4c0,0.1,0,0.2,0.1,0.3v0.1c0,0,0,0,0,0.1s0,0.1,0,0.2c0,0.1,0.1,0.1,0.1,0.1c0,0.7,0,1.1,0,1.2
		c-0.1,0.2-0.1,0.4,0,0.6c0,0,0,0.1,0,0.3c0,0,0,0.1-0.1,0.1c0,0.1-0.1,0.1,0,0.2c0.1,0.1,0.1,0.1,0.1,0.1v0.1v0.1
		c0,0.1,0,0.3,0,0.6s0,0.5,0,0.6c0,0,0,0.1,0,0.2c0,0.1,0.1,0.2,0.3,0.1c0.1,0,0.2-0.1,0.3-0.1c0.3,0,0.5,0,0.6-0.1
		c0.4,0,0.6,0,0.6,0c0.2,0,0.3,0,0.4,0c0,0,0.1,0,0.2-0.1c0.1,0,0.1-0.1,0.2-0.1c0,0,0.1,0,0.2,0c0.2,0,0.3,0,0.3-0.1
		c0.2,0.1,0.4,0,0.6,0h0.1h0.1c0,0,0.1,0,0.2,0c0.1,0,0.1,0,0.2,0c0.1,0,0.3,0,0.5,0v-0.1c0.1,0.1,0.3,0.1,0.5,0
		c0.2,0,0.3-0.1,0.4-0.1c0.1,0,0.1,0,0.2,0c0.1,0,0.1-0.1,0.1-0.1h0.1c0,0,0,0,0.1,0.1c0,0,0.1,0,0.2-0.1C47.9,49,48,49,48.1,49
		c0.1-0.1,0.1-0.1,0.1-0.1s0.1,0,0.1,0.1c0.3,0,0.4,0,0.5-0.1c0.1,0,0.1,0,0.2,0c0.1,0,0.2,0,0.2,0s0.1,0,0.2,0.1
		c0.1,0,0.2,0.1,0.2,0.1c0.2,0,0.2,0.1,0.3,0.2c0.1,0,0.1,0,0.2,0h0.1c0,0,0,0.1,0.1,0.1c0.2,0,0.4,0,0.4,0s0,0.1,0.1,0.2v0.1
		c0,0.1,0.1,0.2,0.2,0.3c0,0.2,0.1,0.4,0.2,0.4c0,0,0,0.1-0.1,0.1c0,0.1,0,0.3-0.1,0.4c-0.1,0.1-0.1,0.2-0.1,0.3h-0.1v0.1
		c0,0,0,0,0,0.1h-0.1l0,0h-0.1l-0.1-0.1h-0.1c0,0-0.1,0-0.1,0.1h-0.1c0,0.1-0.2,0.1-0.4,0.2c-0.2,0.1-0.3,0.2-0.3,0.3
		c-0.2,0-0.5,0-0.7,0.2h-0.1l-0.1,0.1c0,0,0,0,0,0.1c-0.1,0-0.2,0-0.2-0.1h-0.1v0.1c-0.1,0-0.2,0-0.3,0s-0.2,0-0.3,0
		c0,0-0.1,0-0.1,0.1l-0.1,0.1c-0.1,0-0.2,0-0.3,0s-0.1,0.1-0.1,0.2c-0.1-0.1-0.2-0.1-0.3-0.1s-0.2,0-0.3,0.1v0.1c-0.1,0-0.1,0-0.2,0
		c-0.1-0.1-0.2,0-0.2,0s-0.1,0-0.2,0V53c-0.1,0-0.2,0-0.3,0s-0.1,0-0.2,0c-0.1,0-0.1,0.1,0,0.2l-0.2-0.1c0,0-0.2,0-0.5,0l-0.1,0.1
		l-0.1,0.1c-0.3,0-0.4,0-0.4,0L44,53.5c-0.3,0-0.5,0-0.6,0s-0.2,0.1-0.3,0.1c0,0,0,0,0,0.1c-0.2,0.1-0.4,0.1-0.6,0
		c0,0-0.1,0-0.1,0.1l-0.1,0.1c0,0-0.1,0-0.1-0.1l-0.1-0.1c-0.1,0-0.1,0-0.2,0.1c-0.1,0-0.2,0-0.2,0c-0.1,0-0.1,0.2,0,0.6v0.1v0.1
		c0,0.1,0.1,0.1,0.2,0.1c0.1,0.1,0,0.2-0.1,0.3c0,0,0,0.1,0,0.2c0,0.1,0,0.2,0.1,0.2v0.1c0,0,0,0,0,0.1c0,0,0,0.1-0.1,0.3
		c0.1,0.1,0.1,0.3,0.1,0.6s0,0.5,0.1,0.7c-0.2,0.3-0.1,0.4,0,0.5c0,0.1,0,0.2,0,0.3v0.1v0.1c0.1,0.2,0.1,0.4,0.1,0.5
		c0.1,0.1,0.1,0.2,0.2,0.3c0.1,0.2,0.1,0.3,0.1,0.3c0.1,0,0.2,0,0.4,0.1c0.2,0,0.3,0,0.4,0c0,0,0.1,0,0.1-0.1c0.1,0,0.1,0,0.1,0.1
		c0.5,0,0.7-0.1,0.8-0.1s0.2,0,0.3,0c0.2,0,0.3,0,0.4,0c0.1-0.1,0.3-0.2,0.7-0.2c0,0,0,0,0-0.1v-0.1c0.1,0,0.1,0,0.2,0
		c0.1,0,0.2,0,0.2,0s0.1-0.1,0.2-0.1c0.1,0,0.2-0.1,0.2-0.1c0.2,0,0.4,0,0.6-0.2c0.2-0.1,0.4-0.2,0.5-0.2c0-0.1,0.1-0.1,0.1-0.1
		c0.2,0.1,0.3,0,0.4,0c0.2,0,0.4-0.1,0.6-0.3c0.2,0,0.3,0,0.3,0c0.1-0.1,0.2-0.1,0.3-0.1c0.5,0,0.8,0,0.9,0.1h0.1
		c0,0.2,0.1,0.3,0.3,0.4h0.1c0.1,0,0.1,0.1,0.2,0.2c0,0.2,0.1,0.3,0.2,0.4c0,0.1,0,0.1,0.1,0.2c0.1,0.1,0.1,0.2,0.1,0.2s0,0,0,0.1
		s0,0.2,0,0.2C51,59.8,51,60,51,60.1c-0.2,0-0.3,0.1-0.3,0.2c-0.2,0-0.3,0.1-0.4,0.5h-0.1h-0.1c0,0-0.1,0.1-0.1,0.2h-0.1h-0.1
		c0,0-0.1,0-0.1,0.1c-0.2,0-0.3,0.1-0.3,0.2h-0.2c-0.2,0.2-0.3,0.3-0.5,0.1c0,0-0.1,0.1-0.1,0.2h-0.1c-0.1-0.1-0.2-0.1-0.3,0
		c-0.1,0-0.1,0.1-0.1,0.2h-0.2c0,0,0,0,0,0.1c0,0,0,0.1,0,0.2c0,0-0.1-0.1-0.2-0.1c-0.1,0-0.2,0-0.3,0l-0.1,0.1c0,0,0,0.1-0.1,0.1
		h-0.1H47c0,0-0.1,0.1-0.1,0.2c-0.2-0.1-0.3,0-0.5,0c0,0,0,0,0,0.1c-0.2,0-0.3,0-0.3,0c-0.2,0-0.3,0.1-0.3,0.1h-0.1h-0.1
		c0,0-0.1,0-0.2,0c-0.1,0-0.2,0-0.3,0.1c0,0.1,0,0.1,0,0.1s-0.1,0-0.3,0c-0.1,0-0.1,0-0.1,0s0-0.1-0.1-0.1c-0.3,0.1-0.5,0.1-0.5,0.1
		v0.1c-0.1,0-0.1,0-0.2,0l-0.1-0.1l-0.1,0.1h-0.1c0,0-0.1,0-0.2,0c-0.1,0-0.2,0-0.2,0c0-0.1,0-0.1,0-0.1h-0.1C43,62.8,43,62.9,43,63
		c-0.2,0-0.4,0-0.7,0c0-0.1,0-0.2-0.1-0.2s-0.1,0-0.2,0v0.1c0,0.1,0,0.1,0,0.1s0,0,0-0.1s0-0.1,0-0.1h-0.2v-0.1
		c-0.1-0.1-0.2-0.1-0.3-0.1c-0.1-0.1-0.2-0.1-0.2-0.1s-0.1,0-0.1-0.1c-0.1-0.1-0.1-0.2-0.1-0.2H41h-0.1v-0.1c0,0,0-0.1-0.1-0.1h-0.1
		h-0.1c0-0.1,0-0.3-0.2-0.4v-0.1c-0.1-0.1-0.2-0.2-0.3-0.3H40c-0.1-0.1-0.2-0.1-0.3-0.2c-0.1-0.1-0.2-0.2-0.2-0.3
		c-0.1-0.1-0.1-0.2-0.2-0.3c-0.2-0.5-0.2-0.7-0.2-0.7c0-0.1,0-0.2-0.1-0.3c0-0.1,0-0.2,0-0.3s0-0.2,0-0.3c0,0,0-0.1-0.1-0.1v-0.1
		v-0.1c0,0,0-0.2,0-0.4s0-0.3-0.1-0.4c0-0.1,0-0.2,0-0.4s0-0.3,0-0.4c0-0.5,0-1.1,0-2s0-1.6,0-2c0.1,0,0.2-0.1,0.2-0.2
		c0-0.1-0.1-0.2-0.2-0.2c0-0.1,0-0.2,0.1-0.4c0-0.1,0.1-0.2,0.1-0.3c-0.1-0.1-0.1-0.1-0.1-0.2c0-0.1,0-0.1,0.1-0.1
		c0-0.2,0-0.8,0-1.9c0.1,0,0.1-0.1,0.1-0.1c0-0.1,0-0.1-0.1-0.2c0.1,0,0.1-0.1,0-0.3s-0.1-0.3,0-0.4v-0.1c0.1-0.1,0-0.2,0-0.2
		c0-0.1,0-0.3,0-0.6s0-0.5-0.1-0.5c0.1,0,0.1-0.2,0.1-0.5s0-0.4,0-0.5l-0.2-0.1c0-0.2,0-0.4,0.1-0.4l-0.1-0.1v-0.1
		c0-0.4,0-0.6,0-0.6h-0.1c0,0,0,0-0.1,0c0-0.4,0-0.6,0-0.8c-0.1,0-0.1,0-0.1,0s0-0.1,0-0.2v-0.1v-0.1v-0.1v-0.1l-0.1-0.1
		c-0.1-0.1-0.1-0.2,0-0.3L38.3,43c0-0.1-0.1-0.1,0-0.2c-0.1,0-0.2-0.1-0.3-0.3c0-0.1,0-0.2,0-0.3s0-0.1,0-0.2c-0.1-0.1,0-0.2,0-0.4
		c0.1-0.1,0.1-0.3,0.1-0.4c0,0,0.1-0.1,0.2-0.2c0.1-0.1,0.2-0.2,0.2-0.2l0,0v-0.1l0.1,0.1c0,0,0.1,0,0.2,0c0.1,0,0.2,0,0.2,0
		c0.1,0,0.1,0,0.2-0.1c0.1-0.1,0.1-0.1,0.2-0.2c0.1,0,0.2,0,0.3,0s0.2,0,0.3,0h0.1h0.1c0.2,0,0.4,0,0.4-0.1c0.5-0.1,0.7-0.2,0.7-0.2
		h0.2h0.1c0,0,0,0,0.1,0c0,0,0.1,0,0.2,0c0.1,0,0.1,0,0.2-0.1c0.1-0.1,0.2-0.1,0.2-0.1s0-0.1,0-0.2c0.1,0,0.1,0,0.1,0s0,0,0,0.1V40
		c0.2-0.1,0.4-0.1,0.5-0.2c0.1,0,0.1,0,0.2,0.1l0.3-0.1c0,0,0.1-0.1,0.3-0.2c0,0.1,0.1,0.2,0.1,0.2s0.1-0.1,0.2-0.1
		c0.1,0,0.2,0,0.2,0h0.1l0.1-0.1c0,0,0.1,0,0.2,0c0.1,0,0.2,0,0.2,0c0.2,0,0.3-0.1,0.4-0.1h0.1c0.1,0,0.1,0,0.1-0.1
		c0.1,0,0.2,0,0.2,0s0.1,0,0.2-0.1c0.1,0,0.1,0,0.2,0c0.1,0,0.1,0,0.1,0l0,0l0,0C46.3,38.7,46.6,38.6,46.6,38.4z M45.7,38.6
		c0.6,0.1,0.9,0,0.9-0.2c0,0,0.2,0,0.4,0v0.1c0,0,0,0,0,0.1c0,0,0.1,0,0.2,0s0.2,0,0.2,0.1c0.1,0,0.3,0,0.5,0.1c0.5,0,0.9,0.1,1,0.3
		H49c0.1,0.1,0.2,0.2,0.3,0.3c0.2,0.1,0.3,0.2,0.3,0.3v0.1c0.2,0.1,0.3,0.4,0.5,0.9l0.1,0.1c0.1,0.2,0,0.3,0,0.4c0,0.1,0,0.2,0,0.3
		c-0.1,0.1-0.1,0.2-0.1,0.2C50,41.8,50,41.9,50,41.9c0,0.1,0,0.2-0.1,0.3c0,0.1,0,0.1,0,0.2l-0.1,0.1h-0.1c0,0,0,0-0.1,0
		c0,0,0,0.1-0.1,0.1s-0.1,0.1-0.2,0l-0.1,0.1l-0.1,0.1c-0.2,0-0.3,0-0.3,0c0,0.1,0,0.1,0,0.1s-0.1,0-0.2,0c-0.1,0-0.2,0-0.2,0h-0.1
		h-0.1c0,0,0-0.1,0.1-0.1c0,0-0.1-0.1-0.1-0.2c0-0.1-0.1-0.1-0.1-0.2L48,42.5h-0.1c0-0.1,0-0.1-0.1-0.2c-0.1-0.1-0.1-0.1-0.2-0.1
		v0.1v0.1l-0.1-0.1l-0.1-0.1c0,0-0.1,0-0.1-0.1c0-0.2-0.2-0.3-0.6-0.3c-0.1,0-0.1,0-0.2,0.1c-0.1,0-0.1,0-0.2,0s-0.2,0-0.2,0L46,42
		c-0.1,0-0.2,0-0.5,0c-0.3,0.1-0.5,0.1-0.6,0.2c-0.2-0.1-0.3-0.1-0.4,0c-0.1,0-0.2,0-0.3,0s-0.2,0-0.3,0v0.1c-0.2,0-0.3,0-0.3,0
		c-0.1-0.1-0.2-0.1-0.3,0c0,0-0.1,0-0.1,0.1l-0.1,0.1c-0.1,0-0.1,0-0.2,0c-0.1,0-0.2,0-0.2,0l-0.1,0.1h-0.1c-0.1,0-0.1,0-0.1,0v0.1
		c-0.3,0-0.5,0-0.6,0v0.1c0,0,0,0,0,0.1C41.5,43,41.2,43,41,43.3c0,0-0.1,0-0.1-0.1c-0.1,0-0.1,0.1,0,0.2c0,0.1,0.1,0.1,0.1,0.1
		s0,0.1,0,0.2v0.1c0,0.1,0,0.1,0,0.1c0,0.2,0,0.2,0.1,0.2c0,0.1,0,0.2,0.1,0.4s0.1,0.3,0,0.4c0,0.1,0,0.2,0.1,0.3v0.1c0,0,0,0,0,0.1
		s0,0.1,0,0.2c0,0.1,0.1,0.1,0.1,0.1c0,0.7,0,1.1,0,1.2c-0.1,0.2-0.1,0.4,0,0.6c0,0,0,0.1,0,0.3c0,0,0,0.1-0.1,0.1
		c0,0.1-0.1,0.1,0,0.2c0.1,0.1,0.1,0.1,0.1,0.1v0.1v0.1c0,0.1,0,0.3,0,0.6s0,0.5,0,0.6c0,0,0,0.1,0,0.2c0,0.1,0.1,0.2,0.3,0.1
		c0.1,0,0.2-0.1,0.3-0.1c0.3,0,0.5,0,0.6-0.1c0.4,0,0.6,0,0.6,0c0.2,0,0.3,0,0.4,0c0,0,0.1,0,0.2-0.1c0.1,0,0.1-0.1,0.2-0.1
		c0,0,0.1,0,0.2,0c0.2,0,0.3,0,0.3-0.1c0.2,0.1,0.4,0,0.6,0h0.1h0.1c0,0,0.1,0,0.2,0c0.1,0,0.1,0,0.2,0c0.1,0,0.3,0,0.5,0v-0.1
		c0.1,0.1,0.3,0.1,0.5,0c0.2,0,0.3-0.1,0.4-0.1c0.1,0,0.1,0,0.2,0c0.1,0,0.1-0.1,0.1-0.1h0.1c0,0,0,0,0.1,0.1c0,0,0.1,0,0.2-0.1
		C47.9,49,48,49,48.1,49c0.1-0.1,0.1-0.1,0.1-0.1s0.1,0,0.1,0.1c0.3,0,0.4,0,0.5-0.1c0.1,0,0.1,0,0.2,0c0.1,0,0.2,0,0.2,0
		s0.1,0,0.2,0.1c0.1,0,0.2,0.1,0.2,0.1c0.2,0,0.2,0.1,0.3,0.2c0.1,0,0.1,0,0.2,0h0.1c0,0,0,0.1,0.1,0.1c0.2,0,0.4,0,0.4,0
		s0,0.1,0.1,0.2v0.1c0,0.1,0.1,0.2,0.2,0.3c0,0.2,0.1,0.4,0.2,0.4c0,0,0,0.1-0.1,0.1c0,0.1,0,0.3-0.1,0.4c-0.1,0.1-0.1,0.2-0.1,0.3
		h-0.1v0.1c0,0,0,0,0,0.1h-0.1l0,0h-0.1l-0.1-0.1h-0.1c0,0-0.1,0-0.1,0.1h-0.1c0,0.1-0.2,0.1-0.4,0.2c-0.2,0.1-0.3,0.2-0.3,0.3
		c-0.2,0-0.5,0-0.7,0.2h-0.1l-0.1,0.1c0,0,0,0,0,0.1c-0.1,0-0.2,0-0.2-0.1h-0.1v0.1c-0.1,0-0.2,0-0.3,0s-0.2,0-0.3,0
		c0,0-0.1,0-0.1,0.1l-0.1,0.1c-0.1,0-0.2,0-0.3,0s-0.1,0.1-0.1,0.2c-0.1-0.1-0.2-0.1-0.3-0.1s-0.2,0-0.3,0.1v0.1c-0.1,0-0.1,0-0.2,0
		c-0.1-0.1-0.2,0-0.2,0s-0.1,0-0.2,0V53c-0.1,0-0.2,0-0.3,0s-0.1,0-0.2,0c-0.1,0-0.1,0.1,0,0.2l-0.2-0.1c0,0-0.2,0-0.5,0l-0.1,0.1
		l-0.1,0.1c-0.3,0-0.4,0-0.4,0L44,53.5c-0.3,0-0.5,0-0.6,0s-0.2,0.1-0.3,0.1c0,0,0,0,0,0.1c-0.2,0.1-0.4,0.1-0.6,0
		c0,0-0.1,0-0.1,0.1l-0.1,0.1c0,0-0.1,0-0.1-0.1l-0.1-0.1c-0.1,0-0.1,0-0.2,0.1c-0.1,0-0.2,0-0.2,0c-0.1,0-0.1,0.2,0,0.6v0.1v0.1
		c0,0.1,0.1,0.1,0.2,0.1c0.1,0.1,0,0.2-0.1,0.3c0,0,0,0.1,0,0.2c0,0.1,0,0.2,0.1,0.2v0.1c0,0,0,0,0,0.1c0,0,0,0.1-0.1,0.3
		c0.1,0.1,0.1,0.3,0.1,0.6s0,0.5,0.1,0.7c-0.2,0.3-0.1,0.4,0,0.5c0,0.1,0,0.2,0,0.3v0.1v0.1c0.1,0.2,0.1,0.4,0.1,0.5
		c0.1,0.1,0.1,0.2,0.2,0.3c0.1,0.2,0.1,0.3,0.1,0.3c0.1,0,0.2,0,0.4,0.1c0.2,0,0.3,0,0.4,0c0,0,0.1,0,0.1-0.1c0.1,0,0.1,0,0.1,0.1
		c0.5,0,0.7-0.1,0.8-0.1s0.2,0,0.3,0c0.2,0,0.3,0,0.4,0c0.1-0.1,0.3-0.2,0.7-0.2c0,0,0,0,0-0.1v-0.1c0.1,0,0.1,0,0.2,0
		c0.1,0,0.2,0,0.2,0s0.1-0.1,0.2-0.1c0.1,0,0.2-0.1,0.2-0.1c0.2,0,0.4,0,0.6-0.2c0.2-0.1,0.4-0.2,0.5-0.2c0-0.1,0.1-0.1,0.1-0.1
		c0.2,0.1,0.3,0,0.4,0c0.2,0,0.4-0.1,0.6-0.3c0.2,0,0.3,0,0.3,0c0.1-0.1,0.2-0.1,0.3-0.1c0.5,0,0.8,0,0.9,0.1h0.1
		c0,0.2,0.1,0.3,0.3,0.4h0.1c0.1,0,0.1,0.1,0.2,0.2c0,0.2,0.1,0.3,0.2,0.4c0,0.1,0,0.1,0.1,0.2c0.1,0.1,0.1,0.2,0.1,0.2s0,0,0,0.1
		s0,0.2,0,0.2C51,59.8,51,60,51,60.1c-0.2,0-0.3,0.1-0.3,0.2c-0.2,0-0.3,0.1-0.4,0.5h-0.1h-0.1c0,0-0.1,0.1-0.1,0.2h-0.1h-0.1
		c0,0-0.1,0-0.1,0.1c-0.2,0-0.3,0.1-0.3,0.2h-0.2c-0.2,0.2-0.3,0.3-0.5,0.1c0,0-0.1,0.1-0.1,0.2h-0.1c-0.1-0.1-0.2-0.1-0.3,0
		c-0.1,0-0.1,0.1-0.1,0.2h-0.2c0,0,0,0,0,0.1c0,0,0,0.1,0,0.2c0,0-0.1-0.1-0.2-0.1c-0.1,0-0.2,0-0.3,0l-0.1,0.1c0,0,0,0.1-0.1,0.1
		h-0.1H47c0,0-0.1,0.1-0.1,0.2c-0.2-0.1-0.3,0-0.5,0c0,0,0,0,0,0.1c-0.2,0-0.3,0-0.3,0c-0.2,0-0.3,0.1-0.3,0.1h-0.1h-0.1
		c0,0-0.1,0-0.2,0c-0.1,0-0.2,0-0.3,0.1c0,0.1,0,0.1,0,0.1s-0.1,0-0.3,0c-0.1,0-0.1,0-0.1,0s0-0.1-0.1-0.1c-0.3,0.1-0.5,0.1-0.5,0.1
		v0.1c-0.1,0-0.1,0-0.2,0l-0.1-0.1l-0.1,0.1h-0.1c0,0-0.1,0-0.2,0c-0.1,0-0.2,0-0.2,0c0-0.1,0-0.1,0-0.1h-0.1C43,62.8,43,62.9,43,63
		c-0.2,0-0.4,0-0.7,0c0-0.1,0-0.2-0.1-0.2s-0.1,0-0.2,0v0.1c0,0.1,0,0.1,0,0.1s0,0,0-0.1s0-0.1,0-0.1h-0.2v-0.1
		c-0.1-0.1-0.2-0.1-0.3-0.1c-0.1-0.1-0.2-0.1-0.2-0.1s-0.1,0-0.1-0.1c-0.1-0.1-0.1-0.2-0.1-0.2H41h-0.1v-0.1c0,0,0-0.1-0.1-0.1h-0.1
		h-0.1c0-0.1,0-0.3-0.2-0.4v-0.1c-0.1-0.1-0.2-0.2-0.3-0.3H40c-0.1-0.1-0.2-0.1-0.3-0.2c-0.1-0.1-0.2-0.2-0.2-0.3
		c-0.1-0.1-0.1-0.2-0.2-0.3c-0.2-0.5-0.2-0.7-0.2-0.7c0-0.1,0-0.2-0.1-0.3c0-0.1,0-0.2,0-0.3s0-0.2,0-0.2c0-0.1,0-0.1-0.1-0.2v-0.1
		v-0.1c0,0,0-0.2,0-0.4s0-0.3-0.1-0.4c0-0.1,0-0.2,0-0.4s0-0.3,0-0.4c0-0.5,0-1.1,0-2s0-1.6,0-2c0.1,0,0.2-0.1,0.2-0.2
		c0-0.1-0.1-0.2-0.2-0.2c0-0.1,0-0.2,0.1-0.4c0-0.1,0.1-0.2,0.1-0.3c-0.1-0.1-0.1-0.1-0.1-0.2c0-0.1,0-0.1,0.1-0.1
		c0-0.2,0-0.8,0-1.9c0.1,0,0.1-0.1,0.1-0.1c0-0.1,0-0.1-0.1-0.2c0.1,0,0.1-0.1,0-0.3s-0.1-0.3,0-0.4v-0.1c0.1-0.1,0-0.2,0-0.3
		s0-0.3,0-0.6s0-0.5-0.1-0.5c0.1,0,0.1-0.2,0.1-0.5s0-0.4,0-0.5L38.8,46c0-0.2,0-0.4,0.1-0.4l-0.1-0.1v-0.1c0-0.4,0-0.6,0-0.6h-0.1
		c0,0,0,0-0.1,0c0-0.4,0-0.6,0-0.8c-0.1,0-0.1,0-0.1,0s0-0.1,0-0.2v-0.1v-0.1v-0.1v-0.1l-0.1-0.1c-0.1-0.1-0.1-0.2,0-0.3l-0.1-0.1
		c0-0.1-0.1-0.1,0-0.2c-0.1,0-0.2-0.1-0.3-0.3c0-0.1,0-0.2,0-0.3s0-0.1,0-0.2c-0.1-0.1,0-0.2,0-0.4c0.1-0.1,0.1-0.3,0.1-0.4
		c0,0,0.1-0.1,0.2-0.2c0.1-0.1,0.2-0.2,0.2-0.2l0,0v-0.1l0.1,0.1c0,0,0.1,0,0.2,0c0.1,0,0.2,0,0.2,0c0.1,0,0.1,0,0.2-0.1
		c0.1-0.1,0.1-0.1,0.2-0.2c0.1,0,0.2,0,0.3,0s0.2,0,0.3,0h0.1h0.1c0.2,0,0.4,0,0.4-0.1c0.5-0.1,0.7-0.2,0.7-0.2h0.2h0.1
		c0,0,0,0,0.1,0c0,0,0.1,0,0.2,0c0.1,0,0.1,0,0.2-0.1c0.1-0.1,0.2-0.1,0.2-0.1s0-0.1,0-0.2c0.1,0,0.1,0,0.1,0s0,0,0,0.1v0.1
		c0.2-0.1,0.4-0.1,0.5-0.2c0.1,0,0.1,0,0.2,0.1l0.3-0.1c0,0,0.1-0.1,0.3-0.2c0,0.1,0.1,0.2,0.1,0.2s0.1-0.1,0.2-0.1
		c0.1,0,0.2,0,0.2,0h0.1l0.1-0.1c0,0,0.1,0,0.2,0c0.1,0,0.2,0,0.2,0c0.2,0,0.3-0.1,0.4-0.1h0.1c0.1,0,0.1,0,0.1-0.1
		c0.1,0,0.2,0,0.2,0s0.1,0,0.2-0.1c0.1,0,0.1,0,0.2,0C45.6,38.7,45.6,38.7,45.7,38.6C45.7,38.7,45.7,38.7,45.7,38.6
		C45.6,38.6,45.7,38.6,45.7,38.6z"/>
	<path fill="#C35B28" d="M54.4,40.2c0,0.1,0.1,0.1,0.3,0.1c0.1,0,0.2,0,0.2,0v0.1v0.1c0.1,0,0.2,0,0.3,0c0.2,0.1,0.2,0,0.2-0.1
		c0.1,0,0.1,0.2,0.1,0.4c0,0,0.1,0,0.3,0c0,0.1,0,0.2,0.1,0.2c0.1,0.1,0.1,0.1,0.1,0.1h0.1c0,0,0,0.1,0,0.2c0,0.1,0,0.1,0,0.2
		c0,0.1,0.1,0.2,0.2,0.3c0,0.2,0,0.4,0,0.4c0,0.1,0.2,0.1,0.4,0.1c0,0.1,0,0.3,0,0.5c-0.2,0-0.2,0-0.2,0.2c0,0.1,0.1,0.2,0.2,0.1
		v0.4c-0.1,0-0.1,0.2-0.1,0.4s0.1,0.3,0.3,0.2v0.1c-0.1,0-0.1,0.1-0.1,0.2c0,0.1,0,0.2,0.1,0.2c0,0,0,0.1-0.1,0.2
		c0,0.1-0.1,0.2,0,0.2v0.1c0.1,0.2,0.2,0.3,0.2,0.3c-0.1,0.1-0.1,0.2,0,0.4c0,0.2,0,0.3,0,0.3s0,0.1,0.1,0.1s0.1,0.1,0.1,0.1
		c0,0.1,0,0.1,0,0.1c-0.1,0-0.1,0-0.1,0.1s0,0.1,0.1,0.2c0,0.1,0,0.2,0,0.4s0,0.3,0,0.3c0.1,0.1,0.1,0.2,0.2,0.2c0,0,0,0,0,0.1
		c0,0,0,0.1,0.1,0.1l0,0h0.1c0,0.1,0,0.1,0,0.1L57.5,48l0.1,0.6c0,0,0.1,0,0.2,0v0.1c0,0,0,0-0.1,0c0,0.1,0,0.1,0,0.2
		c0,0.1,0,0.2,0,0.2c0.1,0.1,0.1,0.2,0.1,0.2s0,0-0.1,0c0,0.1,0,0.3,0,0.5c0,0.3,0,0.4,0,0.5c0,0.2,0,0.3,0.1,0.3v0.5
		c0,0,0,0.1,0.1,0.2c0,0.1,0.1,0.2,0.1,0.2s0,0.1,0,0.2c0,0.1,0,0.2,0,0.2l0.1,0.1c0,0,0.1,0,0.1,0.1v0.1l-0.1,0.1
		c0.1,0,0.1,0.1,0.1,0.1c0,0.1,0,0.2-0.1,0.3S58,52.9,58,52.9c0,0.1,0,0.2,0.1,0.3s0.1,0.2,0.1,0.2c0.1,0,0.1,0,0.1,0
		c0,0.2,0,0.5,0,0.7c-0.2,0-0.2,0-0.2,0.1s0.1,0.1,0.2,0.1v0.5c-0.1,0-0.1,0.1-0.1,0.2c0,0.1,0.1,0.2,0.2,0.2c0,0.3,0,0.5,0,0.5
		c-0.1,0-0.2,0.1-0.2,0.1c0,0.1,0,0.1,0.1,0.2c0,0.1,0.1,0.1,0.2,0c0,0.1,0,0.2,0,0.4c0,0.1,0,0.1,0,0.1c-0.1,0.1-0.1,0.2-0.1,0.4
		l0.1,0.1l0.1,0.1c0,0.1,0,0.2,0,0.3c0,0.2,0,0.3,0,0.3c-0.1,0.1-0.1,0.1-0.1,0.1c0,0.1,0,0.1,0.1,0.2c0.1,0,0.1,0,0.2,0
		c0.1,0,0.2,0.1,0.2,0c0,0,0.1,0,0.1-0.1c0,0,0-0.1,0.1-0.1c0.3,0,0.4,0,0.5-0.1c0,0,0.1,0,0.1,0.1s0,0.1,0.1,0.1s0.2,0,0.3-0.1
		s0.2-0.1,0.3-0.1c0.1,0.1,0.1,0.1,0.2,0.1c0,0,0,0,0-0.1s0-0.1,0-0.1c0.1,0,0.2,0,0.2-0.1c0,0.1,0.1,0.1,0.2,0.1
		c0.2-0.1,0.3-0.1,0.4,0v-0.1v-0.1h0.1v0.1c0.1-0.2,0.3-0.2,0.7-0.1c0.1,0.1,0.2,0.1,0.2,0.1h0.1l0.1-0.1h0.1h0.1c0,0,0,0,0-0.1
		v-0.1h0.7c0,0,0.2,0,0.6,0c0.1,0,0.1,0,0.2,0s0.1,0,0.1,0s0,0,0.1,0h0.1c0,0,0,0,0.1,0h0.1H65c0.1,0,0.1,0,0.2,0c0,0,0-0.1,0.1-0.1
		h0.1c0.3,0,0.5,0,0.6,0.1c0.1,0,0.1,0,0.2,0s0.1,0,0.2,0s0.3,0,0.6,0c0.3,0,0.5,0,0.5,0l0.1,0.2c0.1,0,0.1-0.1,0.1-0.2
		c0.1-0.1,0.2,0,0.3,0c0.1-0.1,0.3-0.1,0.4,0c0,0.1,0,0.1,0,0.1c0.1,0,0.1,0,0.2-0.1c0,0.1,0.1,0.2,0.3,0.3c0.1,0,0.1,0,0.2,0
		s0.1,0,0.2,0c0,0.1,0,0.2,0,0.2c0.1,0.1,0.2,0.2,0.3,0.2h0.1c0,0,0.1-0.1,0.1,0s0,0.1,0,0.2c0,0.1,0,0.1,0,0.2c0,0,0,0.1,0.1,0.1
		c0.1,0.1,0.1,0.1,0.1,0.2c0.1,0.1,0.1,0.1,0.1,0.1c0,0.1,0,0.2,0.1,0.3h0.1c0,0,0,0.1-0.1,0.2c0,0.2,0,0.3,0,0.3
		c-0.1,0-0.2,0.1-0.2,0.2c0,0.1-0.1,0.2-0.1,0.2c0,0.2,0,0.3,0,0.3h-0.1l0,0c-0.1,0-0.1,0.1-0.2,0.2c-0.1,0.1-0.2,0.2-0.3,0.2l0,0
		l0,0c0,0.1,0,0.2,0,0.2h-0.8c0,0-0.1,0-0.1-0.1c0,0,0-0.1-0.1-0.1s-0.1,0-0.1,0.1c0,0-0.1,0.1-0.2,0.1c0-0.2-0.1-0.3-0.1-0.3h-0.1
		c0,0,0,0-0.1,0s-0.2,0-0.2,0c0-0.1,0-0.2-0.1-0.2s-0.1,0-0.1,0.1c-0.1-0.1-0.2-0.2-0.2-0.2S67,60.3,67,60.4
		c-0.1-0.2-0.1-0.2-0.2-0.2h-0.1c-0.1,0-0.1,0-0.2,0h-0.1h-0.1c0,0-0.1,0-0.1,0.1c-0.1,0-0.3,0-0.5-0.1c0,0,0,0.1-0.1,0.1
		s-0.1,0-0.1,0c0-0.1,0-0.2-0.1-0.2s-0.4,2-0.4,2.1c0,0-0.1,0-0.2-0.1c0,0.1-0.2,0.1-0.5,0.1s-0.5,0-0.5,0s-0.2-0.1-0.7-0.1
		c0,0.1-0.1,0.1-0.2,0.1c-0.1,0-0.1,0-0.2-0.1c-0.2,0-0.3,0.1-0.3,0.2c-0.1,0-0.2,0-0.4,0c-0.1,0-0.2,0-0.2,0
		c-0.1-0.1-0.1-0.1-0.3-0.1c-0.1,0-0.1,0.1-0.1,0.2c0,0-0.2,0-0.4,0s-0.4,0-0.5,0l0,0h-0.1c0,0,0,0-0.1,0c-0.1,0.1-0.4,0.1-0.9,0.1
		c-0.1,0-0.2,0.1-0.3,0.2h-0.4c-0.1,0-0.1,0-0.2,0c0,0-0.1,0-0.2,0L58.2,63c-0.3,0-0.5,0-0.6,0c0,0,0,0.1-0.1,0.2h-0.1h-0.1
		c0-0.1-0.1-0.1-0.3-0.1c-0.1,0-0.3,0-0.3,0v0.1v0.1c-0.1,0-0.1,0-0.1-0.1l-0.1-0.1c-0.1,0.1-0.2,0.1-0.3,0.1v-0.1
		c0,0,0.1,0,0.1-0.1h-0.2c0-0.1,0-0.1,0-0.1s-0.1,0-0.1-0.1s-0.1-0.2-0.2-0.2v-0.2c-0.1,0-0.2,0-0.3-0.1s-0.2-0.1-0.2-0.1
		c0.1-0.1,0-0.2-0.3-0.3c0-0.1,0-0.2,0-0.3c0,0,0,0-0.1,0c0-0.2,0-0.4,0.1-0.4v-0.1c0,0-0.1,0-0.1-0.1c0,0,0-0.1,0.1-0.1
		s0.1,0,0.1-0.1s-0.1-0.1-0.2-0.1v-0.1c0.1,0,0.1,0,0.2,0c0,0,0,0,0-0.1v-0.1c0,0,0.1,0,0.2,0c0-0.1,0-0.3,0-0.6s0-0.5,0-0.6
		c0.1,0,0.1-0.1,0.1-0.1s0-0.1-0.1-0.1c0-0.6,0-1.2,0-1.8c0-0.2,0-0.4,0-0.6c0.2-0.2,0.1-0.4-0.1-0.4v-0.4c0,0,0-0.2,0-0.5
		c0-0.6-0.1-0.9-0.1-0.9c0.1-0.2,0.1-0.3,0-0.4c0-0.1,0-0.3,0-0.4c0-0.1,0-0.3,0-0.4c0-0.1-0.1-0.2-0.2-0.2v-0.1c0-0.1,0-0.1,0-0.1
		l0.1-0.1v-0.1c0-0.1,0-0.1,0-0.1c-0.1-0.1-0.1-0.1-0.2-0.1v-0.1c0,0,0,0,0.1,0s0.1,0,0.1,0s-0.1-0.1-0.2-0.1c0-0.1,0-0.2,0.1-0.3
		c0-0.3-0.1-0.5-0.1-0.5c-0.1,0-0.1,0-0.1,0c0-0.1,0-0.1,0-0.1c0.2,0,0.2,0,0.2-0.1c0,0,0-0.1-0.1-0.1c0,0-0.1,0-0.2,0
		c0-0.1,0-0.1,0-0.2h0.1c0,0,0.1,0,0.1-0.1v-0.1c0,0,0,0,0-0.1s0-0.2,0-0.3c0-0.2,0-0.3,0-0.3s0-0.1-0.1-0.1l-0.1-0.1
		c0-0.1,0-0.2,0-0.4c0,0,0-0.1,0-0.2s0-0.2,0-0.2s0-0.1-0.1-0.1c0,0-0.1,0-0.1-0.1l0.1-0.2c0-0.1-0.1-0.2-0.1-0.5
		c0-0.2,0-0.4-0.1-0.5c0,0-0.1-0.1-0.1-0.3s0-0.3-0.1-0.3H54c0,0,0,0-0.1,0c-0.1-0.1,0-0.3,0.1-0.4v-0.1c0-0.1,0-0.1,0-0.1
		s-0.1-0.1-0.3-0.1c0,0,0-0.1,0.1-0.1V45c-0.1,0-0.1-0.1-0.1-0.1s0-0.1,0-0.3s0-0.3-0.1-0.3v-0.1c0-0.1,0-0.2,0-0.3s0-0.3,0-0.3
		s0-0.1-0.1-0.1c0,0-0.1,0-0.1-0.1c0.1-0.1,0.1-0.1,0-0.2c0-0.1-0.1-0.2-0.2-0.2c0-0.3,0-0.4,0.1-0.4c0-0.1,0-0.3-0.1-0.4
		c-0.1-0.1-0.1-0.3-0.1-0.4C53,41.5,53,41.5,53,41.4c0,0,0,0,0.1,0h0.1v-0.1c0-0.1,0-0.1,0-0.1c0.3,0,0.4-0.2,0.3-0.5
		c0.4-0.1,0.6-0.2,0.7-0.4C54.2,40.2,54.4,40.2,54.4,40.2z M54.1,40.2c0.1,0,0.2,0,0.3,0c0,0.1,0.1,0.1,0.3,0.1c0.1,0,0.2,0,0.2,0
		v0.1v0.1c0.1,0,0.2,0,0.3,0c0.2,0.1,0.2,0,0.2-0.1c0.1,0,0.1,0.2,0.1,0.4c0,0,0.1,0,0.3,0c0,0.1,0,0.2,0.1,0.2
		c0.1,0.1,0.1,0.1,0.1,0.1h0.1c0,0,0,0.1,0,0.2c0,0.1,0,0.1,0,0.2c0,0.1,0.1,0.2,0.2,0.3c0,0.2,0,0.4,0,0.4c0,0.1,0.2,0.1,0.4,0.1
		c0,0.1,0,0.3,0,0.5c-0.2,0-0.2,0-0.2,0.2c0,0.1,0.1,0.2,0.2,0.1v0.4c-0.1,0-0.1,0.2-0.1,0.4s0.1,0.3,0.3,0.2v0.1
		c-0.1,0-0.1,0.1-0.1,0.2c0,0.1,0,0.2,0.1,0.2c0,0,0,0.1-0.1,0.2c0,0.1-0.1,0.2,0,0.2v0.1c0.1,0.2,0.2,0.3,0.2,0.3
		c-0.1,0.1-0.1,0.2,0,0.4c0,0.2,0,0.3,0,0.3s0,0.1,0.1,0.1s0.1,0.1,0.1,0.1c0,0.1,0,0.1,0,0.1c-0.1,0-0.1,0-0.1,0.1s0,0.1,0.1,0.2
		c0,0.1,0,0.2,0,0.4s0,0.3,0,0.3c0.1,0.1,0.1,0.2,0.2,0.2c0,0,0,0,0,0.1c0,0,0,0.1,0.1,0.1l0,0h0.1c0,0.1,0,0.1,0,0.1L57.5,48
		l0.1,0.6c0,0,0.1,0,0.2,0v0.1c0,0,0,0-0.1,0c0,0.1,0,0.1,0,0.2c0,0.1,0,0.2,0,0.2c0.1,0.1,0.1,0.2,0.1,0.2s0,0-0.1,0
		c0,0.1,0,0.3,0,0.5c0,0.3,0,0.4,0,0.5c0,0.2,0,0.3,0.1,0.3v0.5c0,0,0,0.1,0.1,0.2c0,0.1,0.1,0.2,0.1,0.2s0,0.1,0,0.2
		c0,0.1,0,0.2,0,0.2l0.1,0.1c0,0,0.1,0,0.1,0.1v0.1l-0.1,0.1c0.1,0,0.1,0.1,0.1,0.1c0,0.1,0,0.2-0.1,0.3S58,52.9,58,52.9
		c0,0.1,0,0.2,0.1,0.3s0.1,0.2,0.1,0.2c0.1,0,0.1,0,0.1,0c0,0.2,0,0.5,0,0.7c-0.2,0-0.2,0-0.2,0.1s0.1,0.1,0.2,0.1v0.5
		c-0.1,0-0.1,0.1-0.1,0.2c0,0.1,0.1,0.2,0.2,0.2c0,0.3,0,0.5,0,0.5c-0.1,0-0.2,0.1-0.2,0.1c0,0.1,0,0.1,0.1,0.2c0,0.1,0.1,0.1,0.2,0
		c0,0.1,0,0.2,0,0.4c0,0.1,0,0.1,0,0.1c-0.1,0.1-0.1,0.2-0.1,0.4l0.1,0.1l0.1,0.1c0,0.1,0,0.2,0,0.3c0,0.2,0,0.3,0,0.3
		c-0.1,0.1-0.1,0.1-0.1,0.1c0,0.1,0,0.1,0.1,0.2c0.1,0,0.1,0,0.2,0c0.1,0,0.2,0.1,0.2,0c0,0,0.1,0,0.1-0.1c0,0,0-0.1,0.1-0.1
		c0.3,0,0.4,0,0.5-0.1c0,0,0.1,0,0.1,0.1s0,0.1,0.1,0.1s0.2,0,0.3-0.1s0.2-0.1,0.3-0.1c0.1,0.1,0.1,0.1,0.2,0.1c0,0,0,0,0-0.1
		s0-0.1,0-0.1c0.1,0,0.2,0,0.2-0.1c0,0.1,0.1,0.1,0.2,0.1c0.2-0.1,0.3-0.1,0.4,0v-0.1v-0.1h0.1v0.1c0.1-0.2,0.3-0.2,0.7-0.1
		c0.1,0.1,0.2,0.1,0.2,0.1h0.1l0.1-0.1h0.1h0.1c0,0,0,0,0-0.1v-0.1h0.7c0,0,0.2,0,0.6,0c0.1,0,0.1,0,0.2,0s0.1,0,0.1,0s0,0,0.1,0
		h0.1c0,0,0,0,0.1,0h0.1H65c0.1,0,0.1,0,0.2,0c0,0,0-0.1,0.1-0.1h0.1c0.3,0,0.5,0,0.6,0.1c0.1,0,0.1,0,0.2,0s0.1,0,0.2,0
		s0.3,0,0.6,0c0.3,0,0.5,0,0.5,0l0.1,0.2c0.1,0,0.1-0.1,0.1-0.2c0.1-0.1,0.2,0,0.3,0c0.1-0.1,0.3-0.1,0.4,0c0,0.1,0,0.1,0,0.1
		c0.1,0,0.1,0,0.2-0.1c0,0.1,0.1,0.2,0.3,0.3c0.1,0,0.1,0,0.2,0s0.1,0,0.2,0c0,0.1,0,0.2,0,0.2c0.1,0.1,0.2,0.2,0.3,0.2h0.1
		c0,0,0.1-0.1,0.1,0s0,0.1,0,0.2c0,0.1,0,0.1,0,0.2l0.1,0.1c0,0.1,0.1,0.1,0.1,0.2c0.1,0.1,0.1,0.1,0.1,0.1c0,0.1,0,0.2,0.1,0.3h0.1
		c0,0,0,0.1-0.1,0.2c0,0.2,0,0.3,0,0.3c-0.1,0-0.2,0.1-0.2,0.2c0,0.1-0.1,0.2-0.1,0.2c0,0.2,0,0.3,0,0.3h-0.1l0,0
		c-0.1,0-0.1,0.1-0.2,0.2c-0.1,0.1-0.2,0.2-0.3,0.2l0,0l0,0c0,0.1,0,0.2,0,0.2h-0.8c0,0-0.1,0-0.1-0.1c0,0,0-0.1-0.1-0.1
		s-0.1,0-0.1,0.1c0,0-0.1,0.1-0.2,0.1c0-0.2-0.1-0.3-0.1-0.3h-0.1c0,0,0,0-0.1,0s-0.2,0-0.2,0c0-0.1,0-0.2-0.1-0.2s-0.1,0-0.1,0.1
		c-0.1-0.1-0.2-0.2-0.2-0.2S67,60.3,67,60.4c-0.1-0.2-0.1-0.2-0.2-0.2h-0.1c-0.1,0-0.1,0-0.2,0h-0.1h-0.1c0,0-0.1,0-0.1,0.1
		c-0.1,0-0.3,0-0.5-0.1c0,0,0,0.1-0.1,0.1s-0.1,0-0.1,0c0-0.1,0-0.2-0.1-0.2s-0.4,2-0.4,2.1c0,0-0.1,0-0.2-0.1
		c0,0.1-0.2,0.1-0.5,0.1s-0.5,0-0.5,0s-0.2-0.1-0.7-0.1c0,0.1-0.1,0.1-0.2,0.1c-0.1,0-0.1,0-0.2-0.1c-0.2,0-0.3,0.1-0.3,0.2
		c-0.1,0-0.2,0-0.4,0c-0.1,0-0.2,0-0.2,0c-0.1-0.1-0.1-0.1-0.3-0.1c-0.1,0-0.1,0.1-0.1,0.2c0,0-0.2,0-0.4,0s-0.4,0-0.5,0l0,0h-0.1
		c0,0,0,0-0.1,0c-0.1,0.1-0.4,0.1-0.9,0.1c-0.1,0-0.2,0.1-0.3,0.2h-0.4c-0.1,0-0.1,0-0.2,0c0,0-0.1,0-0.2,0L58.2,63
		c-0.3,0-0.5,0-0.6,0c0,0,0,0.1-0.1,0.2h-0.1h-0.1c0-0.1-0.1-0.1-0.3-0.1c-0.1,0-0.2,0-0.3,0v0.1v0.1c-0.1,0-0.1,0-0.1-0.1l-0.1-0.1
		c-0.1,0.1-0.2,0.1-0.3,0.1v-0.1c0,0,0.1,0,0.1-0.1h-0.2c0-0.1,0-0.1,0-0.1s-0.1,0-0.1-0.1s-0.1-0.2-0.2-0.2v-0.2
		c-0.1,0-0.2,0-0.3-0.1s-0.2-0.1-0.2-0.1c0.1-0.1,0-0.2-0.3-0.3c0-0.1,0-0.2,0-0.3c0,0,0,0-0.1,0c0-0.2,0-0.4,0.1-0.4v-0.1
		c0,0-0.1,0-0.1-0.1c0,0,0-0.1,0.1-0.1s0.1,0,0.1-0.1s-0.1-0.1-0.2-0.1v-0.1c0.1,0,0.1,0,0.2,0c0,0,0,0,0-0.1v-0.1c0,0,0.1,0,0.2,0
		c0-0.1,0-0.3,0-0.6s0-0.5,0-0.6c0.1,0,0.1-0.1,0.1-0.1s0-0.1-0.1-0.1c0-0.6,0-1.2,0-1.8c0-0.2,0-0.4,0-0.6c0.2-0.2,0.1-0.4-0.1-0.4
		v-0.4c0,0,0-0.2,0-0.5c0-0.6-0.1-0.9-0.1-0.9c0.1-0.2,0.1-0.3,0-0.4c0-0.1,0-0.3,0-0.4c0-0.1,0-0.3,0-0.4c0-0.1-0.1-0.2-0.2-0.2
		v-0.1c0-0.1,0-0.1,0-0.1l0.1-0.1v-0.1c0-0.1,0-0.1,0-0.1c-0.1-0.1-0.1-0.1-0.2-0.1v-0.1c0,0,0,0,0.1,0s0.1,0,0.1,0
		s-0.1-0.1-0.2-0.1c0-0.1,0-0.2,0.1-0.3c0-0.3-0.1-0.5-0.1-0.5c-0.1,0-0.1,0-0.1,0v-0.1c0.2,0,0.2,0,0.2-0.1c0,0,0-0.1-0.1-0.1
		c0,0-0.1,0-0.2,0c0-0.1,0-0.1,0-0.2h0.1c0,0,0.1,0,0.1-0.1v-0.1c0,0,0,0,0-0.1s0-0.2,0-0.3c0-0.2,0-0.3,0-0.3s0-0.1-0.1-0.1
		l-0.1-0.1c0-0.1,0-0.2,0-0.4c0,0,0-0.1,0-0.2s0-0.2,0-0.2s0-0.1-0.1-0.1c0,0-0.1,0-0.1-0.1l0.1-0.2c0-0.1-0.1-0.2-0.1-0.5
		c0-0.2,0-0.4-0.1-0.5c0,0-0.1-0.1-0.1-0.3s0-0.3-0.1-0.3H54c0,0,0,0-0.1,0c-0.1-0.1,0-0.3,0.1-0.4v-0.1c0-0.1,0-0.1,0-0.1
		s-0.1-0.1-0.3-0.1c0,0,0-0.1,0.1-0.1V45c-0.1,0-0.1-0.1-0.1-0.1s0-0.1,0-0.3s0-0.3-0.1-0.3v-0.1c0-0.1,0-0.2,0-0.3s0-0.3,0-0.3
		s0-0.1-0.1-0.1c0,0-0.1,0-0.1-0.1c0.1-0.1,0.1-0.1,0-0.2c0-0.1-0.1-0.2-0.2-0.2c0-0.3,0-0.4,0.1-0.4c0-0.1,0-0.3-0.1-0.4
		c-0.1-0.1-0.1-0.3-0.1-0.4C53,41.5,53,41.5,53,41.4c0,0,0,0,0.1,0c0-0.1,0-0.2,0-0.2c0.3,0,0.4-0.2,0.3-0.5
		C53.9,40.5,54.1,40.4,54.1,40.2z"/>
	<path fill="#C35B28" d="M74.3,40.4c0.2,0,0.4,0,0.5,0.1c0.1,0,0.1,0,0.2,0c0.1,0.1,0.1,0.1,0.2,0.1h0.1h0.1c0.1,0,0.1,0,0.3,0
		c0.1,0,0.2,0,0.3,0c0.1,0,0.1,0,0.1,0h0.1h0.1c0,0,0,0,0.1,0h0.1h0.1c0.1,0,0.1,0,0.1,0h0.1h0.1c0.3,0.1,0.4,0.1,0.4,0.1
		c0.1-0.1,0.1-0.1,0.2-0.1c0.1,0.1,0.1,0.2,0.1,0.2c0.2,0.1,0.3,0.1,0.6,0c0.1-0.1,0.1-0.1,0.1-0.1s0.1,0.1,0.1,0.2
		c0.1,0,0.2,0.1,0.3,0.1c0.1,0,0.2,0,0.3,0.1h0.1c0,0,0,0,0.1,0l0.2,0.1H80c0.1,0,0.2,0.1,0.3,0.1c0.2,0,0.2,0.1,0.3,0.1
		c0.1,0,0.3,0,0.5,0c0.3,0,0.4,0,0.5,0v0.1h0.1c0.2,0,0.3,0,0.5-0.1c0,0,0,0,0,0.1l0,0c0,0,0.1,0.1,0.3,0.1c0.2,0,0.3,0.1,0.3,0.1
		s0.1,0,0.2,0s0.2,0,0.2,0h0.1h0.1v0.1c0,0.1,0.1,0.1,0.3,0.1c0.1,0,0.1,0,0.2,0L84,42c0.1,0,0.2,0,0.3,0c0.1,0,0.2,0,0.3,0
		c0,0,0.1,0.1,0.2,0.2c0.1,0.1,0.1,0.1,0.1,0.1s0.1,0,0.2,0s0.1-0.1,0.2,0c0,0.2,0.1,0.3,0.3,0.2c0.1,0.1,0.2,0.1,0.3,0.2
		c0.1,0.1,0.2,0.2,0.3,0.2c0.1,0,0.3,0,0.4,0.2c0,0.1,0.1,0.1,0.1,0.1l0,0h0.1c0,0,0.1,0.1,0.2,0.2c0.1,0.1,0.1,0.2,0.2,0.2
		c0.2,0.1,0.3,0.1,0.3,0.1v0.1v0.1c0,0.1,0.1,0.1,0.2,0.2c0.1,0,0.2,0.1,0.2,0.1s0,0.1,0,0.2c0,0.1,0,0.1,0.1,0.2s0.1,0.1,0.1,0.2
		l0.1,0.1c0,0.2,0,0.3,0.1,0.4c0,0,0,0.1,0,0.3s0.1,0.3,0.1,0.3s0,0.1,0,0.2c0,0.1,0,0.2,0,0.2c0,0.1,0,0.2,0,0.2s0,0.1,0,0.2
		c0,0.1,0,0.1,0,0.2c0,0,0,0.3,0,0.7h-0.1c0,0.1,0,0.2,0,0.3s0,0.2,0,0.2s0,0.1-0.1,0.1c0,0.2,0,0.3-0.1,0.4
		C88,48.7,88,48.8,88,48.9c-0.1,0.1-0.3,0.3-0.5,0.7c-0.1,0-0.1,0-0.1,0.1v0.1l-0.1,0.1h-0.1c0,0,0,0.1-0.1,0.1
		c0,0.1-0.1,0.1-0.1,0.1c-0.2,0-0.3,0.2-0.3,0.6c-0.3,0.1-0.4,0.3-0.5,0.4c-0.3,0.2-0.4,0.4-0.4,0.5c-0.1,0.1-0.2,0.2-0.3,0.3
		c-0.1,0.1-0.2,0.2-0.3,0.2H85l-0.4,0.5h-0.2c0,0-0.1,0.1-0.2,0.2c-0.1,0.1-0.3,0.2-0.4,0.2c0,0.1-0.1,0.3-0.3,0.4
		c-0.2,0.1-0.3,0.2-0.3,0.2s-0.1,0-0.3,0.1h-0.1c0,0,0,0-0.1,0c0,0-0.2,0.1-0.4,0.3c-0.1,0-0.3,0-0.4,0.1s-0.1,0.1-0.2,0.1l0,0h-0.1
		c0,0-0.1,0.1-0.2,0.2c-0.1,0.1-0.2,0.1-0.2,0.1c-0.1,0-0.2,0-0.3,0.1c-0.1,0.1-0.1,0.1-0.2,0.1c0,0-0.1,0-0.1,0.1h-0.1h-0.1
		c-0.1,0.1-0.2,0.2-0.5,0.3c-0.1,0-0.2,0-0.3,0c0,0.1,0,0.2,0.1,0.3s0.1,0.2,0,0.3v0.1c0,0,0,0,0,0.1V56v0.1v0.1v0.1
		c0,0.1,0,0.2,0,0.4s0,0.3,0,0.4c0,0,0,0.1,0.1,0.2c0,0.1,0.1,0.1,0.1,0.2c0,0.1,0,0.2,0,0.2v0.1v0.1L80,58c0,0,0,0,0,0.1
		c0,0,0,0.2,0,0.7c0.1,0,0.1,0.1,0.1,0.1s0,0.1,0,0.2c0,0.1,0,0.1-0.1,0.2c0,0.3,0,0.4,0.1,0.4h0.1c-0.1,0.1-0.1,0.3,0,0.5
		c0,0.1,0,0.2,0,0.2h0.1l0,0c0,0.1,0,0.2,0,0.4c-0.1,0.1-0.1,0.2-0.1,0.4s0,0.4,0,0.5c-0.1,0-0.1,0-0.1,0H80c-0.1,0-0.1,0.1-0.1,0.2
		c0,0.1,0,0.2,0,0.2c0,0.1-0.1,0.1-0.2,0.2s-0.2,0.2-0.2,0.2c0,0.1-0.1,0.2-0.1,0.1c0-0.2,0-0.3,0-0.3c-0.2,0-0.3,0.1-0.5,0.2
		c-0.1,0.1-0.2,0.1-0.2,0.1c-0.1-0.2-0.1-0.3-0.2-0.3c0,0,0,0-0.1,0c0,0-0.1,0.1-0.1,0s-0.1-0.1-0.1-0.2c-0.1-0.1-0.1-0.1-0.1-0.2
		C78,61.9,78,62,78,62.1c0.1,1,0,0.9,0,0.9c-0.1-0.2-0.1-0.3-0.1-0.3h-0.1c-0.2-0.1-0.3-0.3-0.3-0.4c0-0.1,0-0.2,0-0.2
		s0-0.1-0.1-0.1l-0.1-0.1v-0.1c0-0.1,0-0.2-0.1-0.3c0-0.1-0.1-0.2-0.1-0.2s0-0.1-0.1-0.1c0-0.1,0-0.1,0-0.2c0-0.1,0-0.2,0-0.2
		s0-0.1-0.1-0.1c0-0.1-0.1-0.1-0.1-0.1c0-0.1,0-0.2,0-0.4s0-0.3,0-0.4c-0.1,0-0.1-0.1-0.2-0.3c0-0.2-0.1-0.2-0.2-0.2v-0.1h0.1l0,0
		c0,0,0-0.1,0-0.3s0-0.3,0-0.4v-0.1v-0.1c0,0,0-0.1,0-0.2c-0.1,0-0.1-0.1-0.1-0.4s0-0.4,0-0.4v-0.1c-0.1-0.3-0.1-0.4-0.1-0.4
		c0-0.2,0-0.5,0-0.8c-0.1,0-0.1,0-0.2-0.1c0-0.1-0.1-0.1-0.1-0.1v-0.1l0,0c0,0,0-0.1,0-0.2c0-0.1,0-0.2,0-0.2l-0.1-0.1l-0.1-0.1
		c0.1-0.2,0-0.3-0.2-0.3c0-0.1,0-0.2,0.1-0.3c-0.1-0.3-0.1-0.4-0.1-0.4V54l0.1-0.1c0-0.1,0-0.2-0.1-0.3c0-0.1,0-0.2,0-0.3
		c-0.1-0.1-0.1-0.2-0.1-0.2s0,0,0-0.1s0-0.1,0-0.1c0-0.1,0-0.2,0-0.4c0-0.1,0-0.2,0-0.2c0-0.1,0-0.1,0-0.2c0-0.1-0.1-0.1-0.1-0.1
		v-0.1v-0.1c0-0.1-0.1-0.3-0.2-0.4c0-0.2,0-0.4-0.1-0.5C75,51,75,51,75,50.9s0-0.1,0-0.1s0,0,0-0.1c0,0,0-0.1,0-0.2
		c0-0.1,0-0.2,0-0.2v-0.1v-0.1V50v-0.1c0-0.2-0.1-0.3-0.2-0.4c0.1-0.4,0-0.6-0.1-0.6v-0.1c0-0.1,0-0.1,0-0.1c0-0.1,0-0.1,0-0.1
		s0,0,0-0.1v-0.1c0,0,0,0,0-0.1v-0.1c0-0.3,0-0.4-0.1-0.4c-0.1-0.6-0.1-0.9-0.2-1.1c-0.1-0.1-0.1-0.2-0.1-0.2c0-0.1,0-0.2,0-0.3
		s0-0.2,0-0.3c-0.1-0.1-0.1-0.1-0.1-0.1s0-0.1,0-0.3c0-0.1,0-0.3,0-0.4c0.1-0.1,0.2-0.1,0.3-0.1c0-0.1,0-0.1,0.1-0.2
		c0-0.1,0.1-0.1,0.1-0.1c0-0.1,0-0.1-0.1-0.1s-0.1,0-0.1,0s-0.1,0-0.2,0s-0.1-0.1-0.2-0.1c-0.2,0-0.3,0-0.3-0.1c-0.1,0-0.1,0-0.2,0
		c-0.1-0.1-0.2-0.1-0.2-0.1s0-0.1-0.1-0.2c-0.1,0-0.1,0-0.2,0c0-0.1-0.1-0.2-0.2-0.3s-0.1-0.2-0.1-0.3h-0.1c0-0.1-0.1-0.2-0.2-0.2
		c-0.1-0.1-0.2-0.1-0.2-0.1s0-0.1,0-0.2c0-0.1,0-0.1,0-0.2c0-0.1,0-0.1,0-0.1v-0.1v-0.1c0,0,0,0,0-0.1v-0.1c0-0.1,0-0.1,0-0.2
		c0-0.1,0-0.2,0-0.2c0.1-0.1,0.2-0.1,0.3-0.2c0.1-0.1,0.2-0.1,0.3-0.2v-0.1l0.1-0.1c0.2,0,0.2,0,0.3,0h0.1c0,0,0.1,0,0.2,0
		s0.2,0,0.3,0c0-0.1,0.1-0.1,0.2,0s0.2,0.1,0.2,0C74.2,40.2,74.2,40.3,74.3,40.4L74.3,40.4z M74.1,40.2L74.1,40.2l0.2,0.2
		c0.2,0,0.4,0,0.5,0.1c0.1,0,0.1,0,0.2,0c0.1,0.1,0.1,0.1,0.2,0.1h0.1h0.1c0.1,0,0.1,0,0.3,0c0.1,0,0.2,0,0.3,0c0.1,0,0.1,0,0.1,0
		h0.1h0.1c0,0,0,0,0.1,0h0.1h0.1c0.1,0,0.1,0,0.1,0h0.1h0.1c0.3,0.1,0.4,0.1,0.4,0.1c0.1-0.1,0.1-0.1,0.2-0.1
		c0.1,0.1,0.1,0.2,0.1,0.2c0.2,0.1,0.3,0.1,0.6,0c0.1-0.1,0.1-0.1,0.1-0.1s0.1,0.1,0.1,0.2c0.1,0,0.2,0.1,0.3,0.1
		c0.1,0,0.2,0,0.3,0.1h0.1c0,0,0,0,0.1,0l0.2,0.1H80c0.1,0,0.2,0.1,0.3,0.1c0.2,0,0.2,0.1,0.3,0.1c0.1,0,0.3,0,0.5,0
		c0.3,0,0.4,0,0.5,0v0.1h0.1c0.2,0,0.3,0,0.5-0.1c0,0,0,0,0,0.1l0,0c0,0,0.1,0.1,0.3,0.1c0.2,0,0.3,0.1,0.3,0.1s0.1,0,0.2,0
		s0.2,0,0.2,0h0.1h0.1v0.1c0,0.1,0.1,0.1,0.3,0.1c0.1,0,0.1,0,0.2,0L84,42c0.1,0,0.2,0,0.3,0c0.1,0,0.2,0,0.3,0c0,0,0.1,0.1,0.2,0.2
		c0.1,0.1,0.1,0.1,0.1,0.1s0.1,0,0.2,0s0.1-0.1,0.2,0c0,0.2,0.1,0.3,0.3,0.2c0.1,0.1,0.2,0.1,0.3,0.2c0.1,0.1,0.2,0.2,0.3,0.2
		c0.1,0,0.3,0,0.4,0.2c0,0.1,0.1,0.1,0.1,0.1c0.1,0,0.1,0,0.1,0s0.1,0.1,0.2,0.2c0.1,0.1,0.1,0.2,0.2,0.2c0.2,0.1,0.3,0.1,0.3,0.1
		v0.1v0.1c0,0.1,0.1,0.1,0.2,0.2c0.1,0,0.2,0.1,0.2,0.1s0,0.1,0,0.2c0,0.1,0,0.1,0.1,0.2s0.1,0.1,0.1,0.2l0.1,0.1
		c0,0.2,0,0.3,0.1,0.4c0,0,0,0.1,0,0.3s0.1,0.3,0.1,0.3s0,0.1,0,0.2c0,0.1,0,0.2,0,0.2c0,0.1,0,0.2,0,0.2s0,0.1,0,0.2
		c0,0.1,0,0.1,0,0.2c0,0,0,0.3,0,0.7h-0.1c0,0.1,0,0.2,0,0.3s0,0.2,0,0.2s0,0.1-0.1,0.1c0,0.2,0,0.3-0.1,0.4
		C88,48.7,88,48.8,88,48.9c-0.1,0.1-0.3,0.3-0.5,0.7c-0.1,0-0.1,0-0.1,0.1v0.1l-0.1,0.1h-0.1c0,0,0,0.1-0.1,0.1
		c0,0.1-0.1,0.1-0.1,0.1c-0.2,0-0.3,0.2-0.3,0.6c-0.3,0.1-0.4,0.3-0.5,0.4c-0.3,0.2-0.4,0.4-0.4,0.5c-0.1,0.1-0.2,0.2-0.3,0.3
		c-0.1,0.1-0.2,0.2-0.3,0.2H85l-0.4,0.5h-0.2c0,0-0.1,0.1-0.2,0.2c-0.1,0.1-0.3,0.2-0.4,0.2c0,0.1-0.1,0.3-0.3,0.4
		c-0.2,0.1-0.3,0.2-0.3,0.2s-0.1,0-0.3,0.1h-0.1c0,0,0,0-0.1,0c0,0-0.2,0.1-0.4,0.3c-0.1,0-0.3,0-0.4,0.1s-0.1,0.1-0.2,0.1l0,0h-0.1
		c0,0-0.1,0.1-0.2,0.2c-0.1,0.1-0.2,0.1-0.2,0.1c-0.1,0-0.2,0-0.3,0.1c-0.1,0.1-0.1,0.1-0.2,0.1c0,0-0.1,0-0.1,0.1h-0.1h-0.1
		c-0.1,0.1-0.2,0.2-0.5,0.3c-0.1,0-0.2,0-0.3,0c0,0.1,0,0.2,0.1,0.3s0.1,0.2,0,0.3v0.1c0,0,0,0,0,0.1V56v0.1v0.1v0.1
		c0,0.1,0,0.2,0,0.4s0,0.3,0,0.4c0,0,0,0.1,0.1,0.2c0,0.1,0.1,0.1,0.1,0.2c0,0.1,0,0.2,0,0.2v0.1v0.1L80,58c0,0,0,0,0,0.1
		c0,0,0,0.2,0,0.7c0.1,0,0.1,0.1,0.1,0.1s0,0.1,0,0.2c0,0.1,0,0.1-0.1,0.2c0,0.3,0,0.4,0.1,0.4h0.1c-0.1,0.1-0.1,0.3,0,0.5
		c0,0.1,0,0.2,0,0.2h0.1l0,0c0,0.1,0,0.2,0,0.4c-0.1,0.1-0.1,0.2-0.1,0.4s0,0.4,0,0.5c-0.1,0-0.1,0-0.1,0H80c-0.1,0-0.1,0.1-0.1,0.2
		c0,0.1,0,0.2,0,0.2c0,0.1-0.1,0.1-0.2,0.2s-0.2,0.2-0.2,0.2c0,0.1-0.1,0.2-0.1,0.1c0-0.2,0-0.3,0-0.3c-0.2,0-0.3,0.1-0.5,0.2
		c-0.1,0.1-0.2,0.1-0.2,0.1c-0.1-0.2-0.1-0.3-0.2-0.3c0,0,0,0-0.1,0c0,0-0.1,0.1-0.1,0s-0.1-0.1-0.1-0.2c-0.1-0.1-0.1-0.1-0.1-0.2
		C78,61.9,78,62,78,62.1c0.1,1,0,0.9,0,0.9c-0.1-0.2-0.1-0.3-0.1-0.3h-0.1c-0.2-0.1-0.3-0.3-0.3-0.4c0-0.1,0-0.2,0-0.2
		s0-0.1-0.1-0.1l-0.1-0.1v-0.1c0-0.1,0-0.2-0.1-0.3c0-0.1-0.1-0.2-0.1-0.2s0-0.1-0.1-0.1c0-0.1,0-0.1,0-0.2c0-0.1,0-0.2,0-0.2
		s0-0.1-0.1-0.1c0-0.1-0.1-0.1-0.1-0.1c0-0.1,0-0.2,0-0.4s0-0.3,0-0.4c-0.1,0-0.1-0.1-0.2-0.3c0-0.2-0.1-0.2-0.2-0.2v-0.1h0.1l0,0
		c0,0,0-0.1,0-0.3s0-0.3,0-0.4v-0.1v-0.1c0,0,0-0.1,0-0.2c-0.1,0-0.1-0.1-0.1-0.4s0-0.4,0-0.4v-0.1c-0.1-0.3-0.1-0.4-0.1-0.4
		c0-0.2,0-0.5,0-0.8c-0.1,0-0.1,0-0.2-0.1c0-0.1-0.1-0.1-0.1-0.1v-0.1l0,0c0,0,0-0.1,0-0.2c0-0.1,0-0.2,0-0.2l-0.1-0.1l-0.1-0.1
		c0.1-0.2,0-0.3-0.2-0.3c0-0.1,0-0.2,0.1-0.3c-0.1-0.3-0.1-0.4-0.1-0.4V54l0.1-0.1c0-0.1,0-0.2-0.1-0.3c0-0.1,0-0.2,0-0.3
		c-0.1-0.1-0.1-0.2-0.1-0.2s0,0,0-0.1s0-0.1,0-0.1c0-0.1,0-0.2,0-0.4c0-0.1,0-0.2,0-0.2c0-0.1,0-0.1,0-0.2c0-0.1-0.1-0.1-0.1-0.1
		v-0.1v-0.1c0-0.1-0.1-0.3-0.2-0.4c0-0.2,0-0.4-0.1-0.5C75,51,75,51,75,50.9s0-0.1,0-0.1s0,0,0-0.1c0,0,0-0.1,0-0.2
		c0-0.1,0-0.2,0-0.2v-0.1v-0.1V50v-0.1c0-0.2-0.1-0.3-0.2-0.4c0.1-0.4,0-0.6-0.1-0.6v-0.1c0-0.1,0-0.1,0-0.1c0-0.1,0-0.1,0-0.1
		s0,0,0-0.1v-0.1c0,0,0,0,0-0.1v-0.1c0-0.3,0-0.4-0.1-0.4c-0.1-0.6-0.1-0.9-0.2-1.1c-0.1-0.1-0.1-0.2-0.1-0.2c0-0.1,0-0.2,0-0.3
		s0-0.2,0-0.3c-0.1-0.1-0.1-0.1-0.1-0.1s0-0.1,0-0.3c0-0.1,0-0.3,0-0.4c0.1-0.1,0.2-0.1,0.3-0.1c0-0.1,0-0.1,0.1-0.2
		c0-0.1,0.1-0.1,0.1-0.1c0-0.1,0-0.1-0.1-0.1s-0.1,0-0.1,0s-0.1,0-0.2,0s-0.1-0.1-0.2-0.1c-0.2,0-0.3,0-0.3-0.1c-0.1,0-0.1,0-0.2,0
		c-0.1-0.1-0.2-0.1-0.2-0.1s0-0.1-0.1-0.2c-0.1,0-0.1,0-0.2,0c0-0.1-0.1-0.2-0.2-0.3s-0.1-0.2-0.1-0.3h-0.1c0-0.1-0.1-0.2-0.2-0.2
		c-0.1-0.1-0.2-0.1-0.2-0.1s0-0.1,0-0.2c0-0.1,0-0.1,0-0.2c0-0.1,0-0.1,0-0.1v-0.1v-0.1c0,0,0,0,0-0.1v-0.1c0-0.1,0-0.1,0-0.2
		c0-0.1,0-0.2,0-0.2c0.1-0.1,0.2-0.1,0.3-0.2c0.1-0.1,0.2-0.1,0.3-0.2v-0.1l0.1-0.1c0.2,0,0.2,0,0.3,0h0.1c0,0,0.1,0,0.2,0
		s0.2,0,0.3,0c0-0.1,0.1-0.1,0.2,0C74,40.2,74.1,40.2,74.1,40.2z M81.9,45.1c-0.1,0-0.1,0-0.2,0S81.6,45,81.5,45s-0.2-0.1-0.2-0.1
		c-0.1,0-0.1,0-0.3,0c-0.1,0-0.2,0-0.2,0s-0.1,0-0.1-0.1l-0.1-0.1h-0.1h-0.1c-0.2,0-0.4,0-0.7-0.1l-0.6-0.1c-0.1,0-0.2,0-0.3,0
		c-0.1,0-0.2,0-0.3,0c-0.1,0.1-0.2,0.1-0.4,0c-0.2-0.1-0.3-0.1-0.3-0.1h-0.1h-0.1h-0.1c-0.1,0-0.1,0-0.2,0s-0.2,0-0.2,0.1
		c0,0,0,0.1,0.1,0.2c0,0,0,0.1,0,0.2c0,0.1,0,0.2,0,0.2s0.1,0.1,0.2,0.1v0.1c0,0,0.1,0.2,0.1,0.4c0,0.1,0,0.1,0.1,0.2
		c0,0.1,0.1,0.1,0.1,0.1s0,0.1,0,0.3c0,0.1,0,0.3,0,0.3l0.1,0.1v0.1c0,0,0,0.1,0,0.2c0,0.1,0,0.2,0,0.2c0,0.1,0.1,0.1,0.1,0.2
		s0.1,0.2,0.1,0.2s0,0.1,0,0.2c0,0.1,0,0.1,0,0.1V48l0.1,0.1c0,0,0,0.1,0,0.2c0,0.1,0,0.2,0,0.2v0.1v0.1c0,0.1,0,0.2,0,0.4l0.1,0.1
		c0,0.1,0,0.3,0,0.5s0,0.3,0,0.4c0.1,0,0.1,0.1,0.1,0.2c0,0.1,0,0.2,0,0.2s0,0.1,0.1,0.1l0.1,0.1c0,0.1,0,0.1,0,0.2s0,0.2,0,0.2
		s0,0.1,0.1,0.1l0.1,0.1v0.1c0,0.1,0,0.1,0,0.1v0.1l0,0c-0.1,0.1-0.1,0.2,0,0.2c0,0,0.1,0,0.2,0s0.1-0.1,0.1-0.1h0.1
		c0.1,0,0.1,0,0.2,0c0,0,0-0.1,0.1-0.1s0.1,0,0.1,0s0,0,0.1,0h0.1c0,0,0.1,0,0.2,0s0.2,0,0.2,0l0.1-0.1c0-0.1,0-0.1,0.1-0.1h0.1
		c0,0,0.1-0.1,0.2-0.2c0.1-0.1,0.2-0.2,0.3-0.3c0.1,0,0.1,0,0.1,0c0.1,0,0.2-0.1,0.3-0.2c0.1-0.1,0.2-0.2,0.3-0.2
		c0,0,0.1-0.1,0.2-0.2c0.1-0.1,0.2-0.2,0.2-0.2c0.4-0.3,0.7-0.5,0.7-0.5c0-0.2,0.2-0.3,0.4-0.4c0-0.1,0.1-0.1,0.1-0.2
		c0,0,0.1-0.1,0.1-0.2c0-0.1,0.1-0.2,0.1-0.2c0.1,0,0.2-0.1,0.3-0.1c0-0.1,0-0.1,0.1-0.2c0.1-0.1,0.1-0.2,0.1-0.2
		c0.2-0.2,0.3-0.4,0.3-0.5c0,0,0.1-0.1,0.1-0.2c0.1-0.1,0.1-0.1,0.1-0.2c0,0,0-0.1,0-0.2v-0.1c0,0,0,0,0-0.1v-0.1v-0.1v-0.1
		c0-0.1,0-0.1,0-0.1c0-0.1,0-0.1,0-0.2c0-0.1,0-0.2,0-0.2c-0.1-0.1-0.1-0.1-0.1-0.1c-0.2-0.1-0.4-0.1-0.5-0.2l-0.1-0.1h-0.1
		c0,0-0.1,0-0.1-0.1l-0.1-0.1c0,0-0.1,0-0.2,0c0,0-0.1,0-0.1-0.1L83,45.2h-0.1c-0.1,0-0.1,0-0.1,0s-0.1,0-0.1-0.1h-0.1
		c-0.1,0-0.2,0-0.3,0c-0.1,0-0.2,0-0.2,0L81.9,45.1L81.9,45.1c0,0-0.1,0-0.3,0c0,0-0.1,0-0.1-0.1C82,45.1,82,45.1,81.9,45.1z
		 M82.2,45.3C82.2,45.3,82.1,45.3,82.2,45.3c-0.1-0.1-0.2-0.1-0.3-0.1s-0.1,0-0.2,0s-0.1,0-0.2-0.1c-0.1,0-0.2-0.1-0.2-0.1
		c-0.1,0-0.1,0-0.3,0c-0.1,0-0.2,0-0.2,0s-0.1,0-0.1-0.1l-0.1-0.1h-0.1h-0.1c-0.2,0-0.4,0-0.7-0.1l-0.6-0.1c-0.1,0-0.2,0-0.3,0
		c-0.1,0-0.2,0-0.3,0c-0.1,0.1-0.2,0.1-0.4,0c-0.2-0.1-0.3-0.1-0.3-0.1h-0.1h-0.1h-0.1c-0.1,0-0.1,0-0.2,0s-0.2,0-0.2,0.1
		c0,0,0,0.1,0.1,0.2c0,0,0,0.1,0,0.2c0,0.1,0,0.2,0,0.2s0.1,0.1,0.2,0.1v0.1c0,0,0.1,0.2,0.1,0.4c0,0.1,0,0.1,0.1,0.2
		c0,0.1,0.1,0.1,0.1,0.1s0,0.1,0,0.3c0,0.1,0,0.3,0,0.3l0.1,0.1v0.1c0,0,0,0.1,0,0.2c0,0.1,0,0.2,0,0.2c0,0.1,0.1,0.1,0.1,0.2
		s0.1,0.2,0.1,0.2s0,0.1,0,0.2c0,0.1,0,0.1,0,0.1v0.1l0.1,0.1c0,0,0,0.1,0,0.2c0,0.1,0,0.2,0,0.2v0.1v0.1c0,0.1,0,0.2,0,0.4l0.1,0.1
		c0,0.1,0,0.3,0,0.5s0,0.3,0,0.4c0.1,0,0.1,0.1,0.1,0.2c0,0.1,0,0.2,0,0.2s0,0.1,0.1,0.1l0.1,0.1c0,0.1,0,0.1,0,0.2s0,0.2,0,0.2
		s0,0.1,0.1,0.1l0.1,0.1v0.1c0,0.1,0,0.1,0,0.1v0.1l0,0c-0.1,0.1-0.1,0.2,0,0.2c0,0,0.1,0,0.2,0s0.1-0.1,0.1-0.1h0.1
		c0.1,0,0.1,0,0.2,0c0,0,0-0.1,0.1-0.1s0.1,0,0.1,0s0,0,0.1,0h0.1c0,0,0.1,0,0.2,0s0.2,0,0.2,0l0.1-0.1c0-0.1,0-0.1,0.1-0.1h0.1
		c0,0,0.1-0.1,0.2-0.2c0.1-0.1,0.2-0.2,0.3-0.3c0.1,0,0.1,0,0.1,0c0.1,0,0.2-0.1,0.3-0.2c0.1-0.1,0.2-0.2,0.3-0.2
		c0,0,0.1-0.1,0.2-0.2c0.1-0.1,0.2-0.2,0.2-0.2c0.4-0.3,0.7-0.5,0.7-0.5c0-0.2,0.2-0.3,0.4-0.4c0-0.1,0.1-0.1,0.1-0.2
		c0,0,0.1-0.1,0.1-0.2c0-0.1,0.1-0.2,0.1-0.2c0.1,0,0.2-0.1,0.3-0.1c0-0.1,0-0.1,0.1-0.2c0.1-0.1,0.1-0.2,0.1-0.2
		c0.2-0.2,0.3-0.4,0.3-0.5c0,0,0.1-0.1,0.1-0.2c0.1-0.1,0.1-0.1,0.1-0.2c0,0,0-0.1,0-0.2V47c0,0,0,0,0-0.1v-0.1c0-0.1,0-0.1,0-0.2
		c0-0.1,0-0.1,0-0.1c0-0.1,0-0.1,0-0.2c0-0.1,0-0.2,0-0.2C84.3,46,84.3,46,84.3,46c-0.2-0.1-0.4-0.1-0.5-0.2l-0.1-0.1h-0.1
		c0,0-0.1,0-0.1-0.1l-0.1-0.1c0,0-0.1,0-0.2,0c0,0-0.1,0-0.1-0.1L83,45.3h-0.1c-0.1,0-0.1,0-0.1,0s-0.1,0-0.1-0.1h-0.1
		C82.5,45.2,82.4,45.2,82.2,45.3c0-0.1-0.1-0.1-0.1-0.1H82h-0.1C82.5,45.3,82.4,45.3,82.2,45.3z"/>
</g>
</svg>
