<?xml version="1.0" encoding="utf-8"?>
<!-- Generator: Adobe Illustrator 19.0.1, SVG Export Plug-In . SVG Version: 6.00 Build 0)  -->
<svg version="1.1" id="Layer_1" xmlns="http://www.w3.org/2000/svg" xmlns:xlink="http://www.w3.org/1999/xlink" x="0px" y="0px"
	 viewBox="0 0 100 100" enable-background="new 0 0 100 100" xml:space="preserve">
<g id="Layer_1_1_">
	<g>
		<g>
			<g>
				<path fill="#C35B28" d="M45.6,54.1c10.9,1.3,21.6,2.4,32.5,0.7c3.3-0.5,5.2-4.9,2.8-7.5c-3.3-3.6-6.8-6.9-10.6-10
					c-4.6-3.8-10,3.7-5.4,7.5c3.2,2.6,6.1,5.4,8.9,8.3c0.9-2.5,1.9-5,2.8-7.5c-10.1,1.6-20,0.5-30-0.8
					C40.6,44.2,39.7,53.4,45.6,54.1L45.6,54.1z"/>
			</g>
			<g>
				<path fill="#C35B28" d="M73.4,48c-2.5,3.5-5.1,7-7.8,10.3c-1.6,1.9-0.9,5,1,6.5c2.1,1.5,4.9,0.9,6.5-1c2.7-3.3,5.3-6.8,7.8-10.3
					C84.3,48.6,76.8,43.2,73.4,48L73.4,48z"/>
			</g>
		</g>
		<g>
			<g>
				<path fill="#C35B28" d="M54.4,45.9c-10.9-1.3-21.6-2.4-32.5-0.7c-3.3,0.5-5.2,4.9-2.8,7.5c3.3,3.6,6.8,6.9,10.6,10
					c4.6,3.8,10-3.7,5.4-7.5c-3.2-2.6-6.1-5.4-8.9-8.3c-0.9,2.5-1.9,5-2.8,7.5c10.1-1.6,20-0.5,30,0.8
					C59.4,55.8,60.3,46.6,54.4,45.9L54.4,45.9z"/>
			</g>
			<g>
				<path fill="#C35B28" d="M26.6,52c2.5-3.5,5.1-7,7.8-10.3c1.6-1.9,0.9-5-1-6.5c-2.1-1.5-4.9-0.9-6.5,1c-2.7,3.3-5.3,6.8-7.8,10.3
					C15.7,51.4,23.2,56.8,26.6,52L26.6,52z"/>
			</g>
		</g>
	</g>
</g>
<g id="Layer_2" display="none">
	<circle display="inline" fill="none" stroke="#231F20" stroke-miterlimit="10" cx="50" cy="50" r="50"/>
</g>
</svg>
