<?xml version="1.0" encoding="utf-8"?>
<!-- Generator: Adobe Illustrator 19.0.1, SVG Export Plug-In . SVG Version: 6.00 Build 0)  -->
<svg version="1.1" id="Layer_1" xmlns="http://www.w3.org/2000/svg" xmlns:xlink="http://www.w3.org/1999/xlink" x="0px" y="0px"
	 viewBox="0 0 100 100" style="enable-background:new 0 0 100 100;" xml:space="preserve">
<style type="text/css">
	.st0{fill:#C35B28;}
	.st1{display:none;}
	.st2{display:inline;fill:none;stroke:#D93427;stroke-miterlimit:10;}
</style>
<g id="Layer_1_1_">
	<g>
		<path class="st0" d="M14.1,44.4L14.1,44.4c0.2,0.2,0.3,0.3,0.5,0.4h0.1c0,0.1,0,0.1,0.1,0.2c0,0.1,0,0.1,0.1,0.2H15
			c0,0.2,0,0.3,0,0.4c0,0.1,0.1,0.1,0.1,0.2c0,0.1,0,0.2,0,0.2c0,0.1,0,0.2,0,0.3c-0.1,0.1-0.2,0.2-0.2,0.3h-0.1l-0.1,0.1h-0.1h-0.1
			c0,0,0,0-0.1,0.1c0,0,0,0-0.1,0c0,0,0,0-0.1,0c0,0-0.1,0.1-0.1,0.2c0,0-0.1,0-0.2-0.1h-0.1c0,0,0,0-0.1,0c0-0.1,0-0.2-0.2-0.3
			c0,0,0,0-0.1,0c0,0,0,0-0.1,0l-0.1-0.1h-0.1l0,0v-0.1c-0.1-0.1-0.2-0.1-0.3-0.1c0,0-0.1,0-0.1,0.1c-0.1,0-0.2,0-0.2,0h-0.1h-0.1
			c0,0,0,0-0.1,0h-0.1c0,0-0.1,0-0.2-0.1c0,0,0,0-0.1,0.1h-0.1c0,0,0,0-0.1,0h-0.1h-0.1h-0.1h-0.1c0,0,0,0-0.1,0c0,0,0,0-0.1,0
			s-0.1,0-0.2,0c-0.2,0-0.4,0.1-0.4,0.1v0.1h-0.1c0,0-0.1,0-0.1-0.1c0,0-0.1,0-0.2,0.1c0,0,0,0-0.1,0l0,0c0,0-0.2,0.1-0.3,0.1
			c-0.2,0-0.3,0.1-0.4,0.1v0.1H9.1c0,0,0,0-0.1,0c0,0,0,0,0,0.1H8.9c0,0-0.1,0-0.1,0.1H8.7c-0.1,0-0.1,0-0.1,0s0,0,0,0.1
			c0,0,0,0,0,0.1s0,0.1,0.1,0.1h0.1c0,0,0.1,0.1,0.2,0.2c0,0,0,0,0.1,0c0,0,0,0,0.1,0c0,0,0,0,0,0.1v0.1c0.1,0,0.1,0,0.2,0.1
			c0.1,0,0.1,0.1,0.2,0.1c0,0,0,0,0.1,0.1c0.1,0,0.1,0,0.2,0.1c0,0,0.1,0,0.1,0.1h0.1c0,0,0.1,0,0.1,0.1c0,0,0.1,0,0.1,0.1
			c0.2,0,0.4,0.1,0.4,0.1c0.1,0,0.2,0,0.3,0c0,0,0.1,0,0.1,0.1c0,0,0.1,0,0.2,0s0.1,0,0.2,0c0,0,0,0,0.1,0l0,0h0.1c0,0,0,0,0.1,0.1
			c0,0,0,0.1,0.1,0.1s0.1,0,0.1,0h0.1c0.2,0.1,0.3,0.2,0.4,0.1l0.1-0.1c0.1,0,0.1,0,0.2,0c0,0,0,0,0,0.1c0.1,0.1,0.1,0.1,0.2,0.1
			c0,0,0,0,0.1,0c0,0,0,0,0.1,0c0,0.1,0,0.2,0.1,0.2l0,0c0,0,0,0,0.1-0.1c0.1,0,0.2,0,0.2,0c0,0.1,0,0.1,0.2,0.2
			c0.1,0,0.2,0.1,0.2,0.1c0.2,0,0.3,0,0.4,0.1h0.1h0.1c0,0,0.1,0,0.1,0.1l0.1,0.1c0,0,0.1,0,0.1-0.1H15c0,0.1,0,0.1,0.1,0.2
			c0.1,0,0.1,0,0.2,0c0.1,0,0.1,0.1,0.1,0.1s0,0,0.1,0h0.1c0,0,0,0,0,0.1c0,0,0.1,0.1,0.2,0.1c0.1,0,0.2,0.1,0.2,0.2
			c0,0,0.1,0,0.2,0s0.1,0.1,0.2,0.1c0.1,0.1,0.1,0.2,0.2,0.2c0,0,0,0,0.1,0c0,0,0,0,0.1,0c0,0,0,0,0,0.1c0,0,0.1,0.1,0.3,0.3
			c0.1,0.1,0.2,0.2,0.3,0.3c0,0,0,0.1,0.1,0.2c0,0.1,0,0.1,0,0.2c0.1,0.1,0.2,0.2,0.2,0.4c0,0,0.1,0.1,0.1,0.2
			c0,0.1,0.1,0.1,0.1,0.2c0,0,0,0,0,0.1c0,0,0,0,0,0.1v0.1V53v0.1v0.1c0,0,0,0,0,0.1c0,0,0,0,0,0.1c0,0,0,0.1,0,0.2
			c0,0.1,0,0.2,0.1,0.3c0,0,0,0,0,0.1c0,0,0,0,0,0.1c0,0,0,0.1,0,0.3s-0.1,0.3-0.1,0.3v0.1c0,0,0,0.1-0.1,0.1L17.7,55
			c0,0,0,0.1-0.1,0.2v0.1c-0.2,0.1-0.2,0.2-0.2,0.3c-0.1,0.2-0.2,0.3-0.3,0.3c0,0.1,0,0.2-0.1,0.3s-0.2,0.2-0.2,0.2s0,0.1-0.1,0.1
			c0,0,0,0,0,0.1c0,0,0,0-0.1,0c0,0,0,0-0.1,0c0,0-0.1,0.1,0,0.1c0,0-0.1,0.1-0.3,0.2V57c-0.2,0.1-0.2,0.2-0.3,0.2
			c0,0-0.1,0-0.2,0.1c-0.1,0-0.2,0.1-0.3,0.1c-0.1,0.1-0.2,0.1-0.2,0.1v0.1c0,0.1,0,0.1,0,0.1s0,0-0.1-0.1c0,0,0-0.1-0.1-0.1
			s-0.1,0-0.1,0.1c-0.1,0-0.1,0.1-0.2,0.1l-0.1,0.1h-0.1h-0.1c-0.1,0-0.2,0.1-0.2,0c-0.1,0.1-0.1,0.1-0.2,0.1
			c-0.1,0.1-0.1,0.2-0.2,0.1h-0.1c0,0-0.1,0-0.1,0.1l-0.1,0.1c-0.1,0-0.1,0-0.2,0.1c-0.1,0-0.2,0.1-0.2,0.1s-0.1,0-0.2,0
			c-0.1,0-0.1,0-0.1,0s-0.1,0-0.2,0.1c-0.1,0-0.1,0.1-0.2,0.1h-0.1h-0.1c0,0,0,0-0.1,0.1c0,0-0.1,0-0.3,0c0,0,0,0-0.1-0.1
			c-0.2-0.1-0.3-0.1-0.3,0h-0.1l-0.1,0.1c0-0.1-0.2-0.1-0.3-0.1s-0.1,0-0.2,0c-0.1-0.1-0.1-0.1-0.1-0.1s0,0-0.1,0.1h-0.1
			c0,0,0,0,0-0.1c0,0,0,0,0-0.1c0,0-0.1,0-0.2,0c-0.1,0-0.1,0-0.1,0s-0.1,0-0.1-0.1H9.9v-0.1c0,0-0.1,0-0.2,0l0,0c0,0,0,0,0-0.1
			c0,0-0.1,0-0.1-0.1s-0.1-0.1-0.1-0.1c-0.1-0.1-0.2-0.1-0.2-0.1v-0.1c0,0-0.1-0.1-0.2-0.2C9,57.4,9,57.4,8.9,57.4c0,0,0,0-0.1,0
			c0,0,0,0-0.1,0c0-0.1,0-0.2-0.1-0.3S8.4,57,8.4,57s0,0,0-0.1c0,0,0,0,0-0.1c0,0,0,0-0.1-0.1c0-0.1-0.1-0.1-0.1-0.1
			C8.1,56,8.1,56,8.1,56v-0.1v-0.1v-0.1c0,0,0-0.1-0.1-0.1c0,0,0,0,0-0.1c0,0,0,0,0-0.1c0,0,0-0.1-0.1-0.2c0-0.1-0.1-0.1-0.1-0.1
			s0-0.1,0-0.2C8,55,8,54.9,8,54.9s0,0,0.1,0l0,0c0,0,0-0.1-0.1-0.3c0.1,0,0.1,0,0.2,0c0,0,0.1-0.1,0-0.2c0,0,0.1-0.1,0.1-0.2
			c0-0.1,0.1-0.1,0.1-0.2c0,0,0,0,0.1,0c0,0,0,0,0,0.1L8.6,54v-0.1l0.1-0.1c0.1,0,0.1,0,0.1,0s0,0,0-0.1h0.1c0,0,0,0,0.1,0.1
			c0,0,0,0,0.1,0c0,0,0,0,0.1,0C9.3,53.9,9.3,54,9.4,54c0.1,0,0.1,0,0.1,0s0,0,0.1,0s0.1,0.1,0.2,0.1l0.1,0.1c0,0,0.1,0,0.1,0.1
			c0,0,0.1,0.1,0.1,0.2c0,0.1,0.1,0.1,0.1,0.2c0.1,0,0.2,0.1,0.3,0.2c0.1,0.1,0.2,0.2,0.3,0.3c0,0,0,0,0,0.1c0,0,0,0,0,0.1l0.2,0.1
			h0.1c0.1,0,0.1,0,0.1,0s0,0,0,0.1c0,0,0,0,0.1,0c0,0,0.1,0,0.2,0c0.1,0,0.2,0,0.2,0s0,0,0.1,0.1c0,0,0,0.1,0.1,0.1s0.1,0,0.2,0
			c0.1,0,0.1-0.1,0.1-0.1s0,0,0.1,0h0.1c0,0,0.1,0,0.1-0.1c0.1,0,0.1,0,0.2,0h0.1h0.1l0,0l0,0c0,0,0,0,0.1,0h0.1c0,0,0,0,0-0.1h0.1
			c0,0,0.1,0,0.1-0.1c0,0,0,0,0.1,0l0,0h0.1c0.1,0,0.1-0.1,0.1-0.2c0,0,0.1,0,0.1,0.1c0,0,0.1,0,0.1-0.1c0.1-0.1,0.1-0.1,0.2-0.1
			c0-0.1,0.2-0.2,0.4-0.4c0.2-0.1,0.4-0.3,0.4-0.4c0.1,0,0.2-0.1,0.2-0.2c0,0,0.1-0.1,0.2-0.2c0.1-0.1,0.1-0.1,0.1-0.2v-0.1
			c0,0,0-0.1,0.1-0.1v-0.2c0.1,0,0.1-0.1,0.1-0.1c0-0.1,0-0.2,0-0.3s0-0.2,0-0.3c0,0,0,0-0.1-0.1c0,0,0,0,0-0.1c0,0,0-0.1,0-0.2
			l-0.1-0.1c-0.1,0-0.1-0.1-0.1-0.1c-0.1,0-0.1,0.1-0.2,0v-0.1h-0.1c0,0,0,0,0-0.1s0-0.1,0-0.1s0,0-0.1,0h-0.1c0,0,0,0-0.1-0.1
			c0,0,0-0.1-0.1-0.1c0,0-0.1,0-0.2,0c-0.1,0-0.2,0-0.2,0c-0.1,0-0.2-0.1-0.3,0c0,0,0,0,0-0.1c0,0-0.1-0.1-0.3-0.1s-0.3-0.1-0.3-0.1
			c-0.1-0.1-0.3-0.2-0.6-0.2l0,0l0,0c0,0,0,0,0-0.1c0,0-0.1,0-0.2-0.1c-0.1-0.1-0.1-0.1-0.2-0.1c0,0,0,0-0.1,0c0,0,0,0-0.1,0.1
			c0,0,0-0.1-0.1-0.1s-0.1,0-0.1,0c0-0.1-0.1-0.1-0.2,0c0-0.1-0.1-0.2-0.1-0.2c-0.1,0.1-0.2,0.1-0.3,0c0,0-0.2-0.1-0.4,0
			c0-0.1-0.1-0.1-0.1-0.2c-0.1,0-0.2,0-0.3-0.1c0,0,0,0-0.1,0h-0.1c0,0,0,0-0.1,0l0,0l0,0c0,0,0,0-0.1,0c0,0,0,0-0.1,0
			c-0.2-0.1-0.3-0.1-0.4,0c0,0,0,0,0-0.1c0,0,0,0-0.1-0.1c0,0,0,0-0.1,0c0,0,0,0-0.1-0.1c0,0,0,0-0.1-0.1c0,0-0.1,0-0.2-0.1
			c-0.1,0-0.2,0-0.2-0.1l-0.1-0.1c0,0,0,0-0.1,0H8.4c0-0.1,0-0.1,0-0.1s0,0-0.1,0c0,0,0,0-0.1,0s0,0,0,0s0,0,0-0.1l0,0
			c0,0,0,0,0-0.1c0,0,0,0-0.1,0H8c0,0,0,0,0-0.1l0,0C8,49,7.9,49,7.8,49s-0.1-0.1-0.1-0.2H7.6H7.5c0,0,0-0.1-0.1-0.2
			c0-0.1-0.1-0.1-0.2-0.2c0.1,0.7,0,0.6,0,0.6H7.1c0,0-0.1,0-0.1-0.1v-0.1c-0.2-0.2-0.2-0.3-0.2-0.4c0,0-0.1,0-0.1-0.1
			s-0.1-0.1-0.1-0.1s0-0.1,0-0.2c-0.2-0.1-0.3-0.2-0.3-0.4c0,0,0,0,0-0.1s0-0.1,0-0.1s0,0,0-0.1c0,0-0.1,0-0.1-0.1v-0.1
			c0,0,0-0.1,0-0.2c0-0.1,0-0.1,0-0.2v-0.1v-0.1c0,0,0-0.1,0.1-0.1v-0.1v-0.1c0.1,0,0.2-0.1,0.3-0.3h0.1c0,0,0,0,0-0.1v-0.1
			c0,0,0.1,0,0.2-0.1s0.2-0.1,0.3-0.2c0.1,0,0.1,0,0.1,0s0,0,0.1-0.1c0,0,0,0,0.1,0c0,0,0,0,0.1-0.1l0.1-0.1c0.1,0,0.1,0,0.1,0
			c0.1,0,0.1-0.1,0.2-0.2c0.1,0,0.2,0,0.2-0.1c0.1,0,0.1,0,0.2,0c0.1,0,0.1,0,0.2,0c0,0,0.1,0,0.2-0.1c0.1,0.1,0.2,0,0.2,0
			c0.1,0,0.1,0,0.1,0h0.1c0.1,0,0.1,0,0.1-0.1h0.1c0,0,0,0,0.1-0.1l0.1-0.1h0.1c0,0,0.1-0.1,0.2-0.2c0.1,0,0.1,0,0.2-0.1v0.1
			c0.1,0,0.2-0.1,0.3-0.1s0.3,0,0.4,0h0.1c0,0,0.1,0,0.1-0.1h0.1c0,0,0,0,0.1-0.1l0.1-0.1c0.1,0,0.3,0,0.5,0c0.3,0,0.5,0,0.6,0
			c0,0,0.1,0,0.2,0c0.1,0,0.1,0,0.2,0h0.1c0.1,0,0.1,0,0.2,0s0.1,0,0.2,0.1c0.2,0,0.4,0,0.4,0.1c0.1,0,0.2,0,0.3,0.1
			C13.9,44.4,14,44.4,14.1,44.4z M13.6,44.3c0.1,0,0.2,0,0.3,0.1c0.1,0,0.2,0.1,0.2,0.1v0.1c0.2,0.1,0.3,0.2,0.5,0.3h0.1
			c0,0.1,0,0.1,0.1,0.2c0,0.1,0,0.1,0.1,0.2H15c0,0.2,0,0.3,0,0.4c0,0.1,0.1,0.1,0.1,0.2c0,0.1,0,0.2,0,0.2c0,0.1,0,0.2,0,0.3
			c-0.1,0.1-0.2,0.2-0.2,0.3h-0.1l-0.1,0.1h-0.1h-0.1c0,0,0,0-0.1,0.1c0,0,0,0-0.1,0c0,0,0,0-0.1,0c0,0-0.1,0.1-0.1,0.2
			c0,0-0.1,0-0.2-0.1h-0.1c0,0,0,0-0.1,0c0-0.1,0-0.2-0.2-0.3c0,0,0,0-0.1,0c0,0,0,0-0.1,0l-0.1-0.1h-0.1l0,0v-0.1
			c-0.1-0.1-0.2-0.1-0.3-0.1c0,0-0.1,0-0.1,0.1c-0.1,0-0.2,0-0.2,0h-0.1h-0.1c0,0,0,0-0.1,0h-0.1c0,0-0.1,0-0.2-0.1c0,0,0,0-0.1,0.1
			h-0.1c0,0,0,0-0.1,0h-0.1h-0.1h-0.1h-0.1c0,0,0,0-0.1,0c0,0,0,0-0.1,0s-0.1,0-0.2,0c-0.2,0-0.4,0-0.4,0.1c0,0,0,0,0,0.1
			c0,0,0,0,0,0.1h-0.1c0,0-0.1,0-0.1-0.1c0,0-0.1,0-0.2,0.1c0,0,0,0-0.1,0l0,0c0,0-0.2,0.1-0.3,0.1c-0.2,0-0.3,0.1-0.4,0.1v0.1H9.1
			c0,0,0,0-0.1,0c0,0,0,0,0,0.1H8.9c0,0-0.1,0-0.1,0.1H8.7c-0.1,0-0.1,0-0.1,0s0,0,0,0.1c0,0,0,0,0,0.1s0,0.1,0.1,0.1h0.1
			c0,0,0.1,0.1,0.2,0.2c0,0,0,0,0.1,0c0,0,0,0,0.1,0c0,0,0,0,0,0.1V48c0.1,0,0.1,0,0.2,0.1c0.1,0,0.1,0.1,0.2,0.1c0,0,0,0,0.1,0.1
			c0.1,0,0.1,0,0.2,0.1c0,0,0.1,0,0.1,0.1h0.1c0,0,0.1,0,0.1,0.1c0,0,0.1,0,0.1,0.1c0.2,0,0.4,0.1,0.4,0.1c0.1,0,0.2,0,0.3,0
			c0,0,0.1,0,0.1,0.1c0,0,0.1,0,0.2,0s0.1,0,0.2,0c0,0,0,0,0.1,0l0,0h0.1c0,0,0,0,0.1,0.1c0,0,0,0.1,0.1,0.1s0.1,0,0.1,0h0.1
			c0.2,0.1,0.3,0.2,0.4,0.1l0.1-0.1c0.1,0,0.1,0,0.2,0c0,0,0,0,0,0.1c0.1,0.1,0.1,0.1,0.2,0.1c0,0,0,0,0.1,0c0,0,0,0,0.1,0
			c0,0.1,0,0.2,0.1,0.2l0,0c0,0,0,0,0.1-0.1c0.1,0,0.2,0,0.2,0c0,0.1,0,0.1,0.2,0.2c0.1,0,0.2,0.1,0.2,0.1c0.2,0,0.3,0,0.4,0.1h0.1
			h0.1c0,0,0.1,0,0.1,0.1l0.1,0.1c0,0,0.1,0,0.1-0.1H15c0,0.1,0,0.1,0.1,0.2c0.1,0,0.1,0,0.2,0c0.1,0,0.1,0.1,0.1,0.1s0,0,0.1,0h0.1
			c0,0,0,0,0,0.1c0,0,0.1,0.1,0.2,0.1c0.1,0,0.2,0.1,0.2,0.2c0,0,0.1,0,0.2,0s0.1,0.1,0.2,0.1c0.1,0.1,0.1,0.2,0.2,0.2
			c0,0,0,0,0.1,0c0,0,0,0,0.1,0c0,0,0,0,0,0.1c0,0,0.1,0.1,0.3,0.3c0.1,0.1,0.2,0.2,0.3,0.3c0,0,0,0.1,0.1,0.2c0,0.1,0,0.1,0,0.2
			c0.1,0.1,0.2,0.2,0.2,0.4c0,0,0.1,0.1,0.1,0.2c0,0.1,0.1,0.1,0.1,0.2c0,0,0,0,0,0.1c0,0,0,0,0,0.1v0.1v0.1v0.1v0.1c0,0,0,0,0,0.1
			s0,0.1,0,0.1s0,0.1,0,0.2c0,0.1,0,0.2,0.1,0.3c0,0,0,0,0,0.1c0,0,0,0,0,0.1c0,0,0,0.1,0,0.3s-0.1,0.3-0.1,0.3V55
			c0,0,0,0.1-0.1,0.1l-0.1,0.1c0,0,0,0.1-0.1,0.2v0.1c-0.2,0.1-0.2,0.2-0.2,0.3c-0.1,0.2-0.2,0.3-0.3,0.3c0,0.1,0,0.2-0.1,0.3
			s-0.2,0.2-0.2,0.2s0,0.1-0.1,0.1c0,0,0,0,0,0.1c0,0,0,0-0.1,0c0,0,0,0-0.1-0.1c0,0-0.1,0.1,0,0.2c0,0-0.1,0.1-0.3,0.2v0.1
			c-0.2,0.1-0.2,0.1-0.3,0.2c0,0-0.1,0.1-0.2,0.2c-0.1,0-0.2,0.1-0.3,0.1c-0.1,0.1-0.2,0.1-0.2,0.1v0.1c0,0.1,0,0.1,0,0.1
			s0,0-0.1-0.1c0,0,0-0.1-0.1-0.1s-0.1,0-0.1,0.1c-0.1,0-0.1,0.1-0.2,0.1l-0.1,0.1h-0.1h-0.1c-0.1,0-0.2,0.1-0.2,0
			c-0.1,0.1-0.1,0.1-0.2,0.1c-0.1,0.1-0.1,0.2-0.2,0.1h-0.1c0,0-0.1,0-0.1,0.1l-0.1,0.1c-0.1,0-0.1,0-0.2,0.1
			c-0.1,0-0.2,0.1-0.2,0.1s-0.1,0-0.2,0c-0.1,0-0.1,0-0.1,0s-0.1,0-0.2,0.1c-0.1,0-0.1,0.1-0.2,0.1h-0.1h-0.1c0,0,0,0-0.1,0.1
			c0,0-0.1,0-0.3,0c0,0,0,0-0.1-0.1c-0.2-0.1-0.3-0.1-0.3,0h-0.1L11.2,59c0-0.1-0.2-0.1-0.3-0.1s-0.1,0-0.2,0
			c-0.1-0.1-0.1-0.1-0.1-0.1s0,0-0.1,0.1h-0.1c0,0,0,0,0-0.1c0,0,0,0,0-0.1c0,0-0.1,0-0.2,0c-0.1,0-0.1,0-0.1,0s-0.1,0-0.1-0.1H9.9
			v-0.1c0,0-0.1,0-0.2,0l0,0c0,0,0,0,0-0.1c0,0-0.1,0-0.1-0.1s-0.1-0.1-0.1-0.1c-0.1-0.1-0.2-0.1-0.2-0.1V58c0,0-0.1-0.1-0.2-0.2
			C9,57.7,9,57.7,8.9,57.7c0,0,0,0-0.1,0c0,0,0,0-0.1,0c0-0.1,0-0.2-0.1-0.3s-0.2-0.1-0.2-0.1s0,0,0-0.1c0,0,0,0,0-0.1
			c0,0,0,0-0.1-0.1c0-0.1-0.1-0.1-0.1-0.1C8.1,56,8.1,56,8.1,56v-0.1v-0.1v-0.1c0,0,0-0.1-0.1-0.1c0,0,0,0,0-0.1c0,0,0,0,0-0.1
			c0,0,0-0.1-0.1-0.2c0-0.1-0.1-0.1-0.1-0.1s0-0.1,0-0.2C8,55,8,54.9,8,54.9s0,0,0.1,0l0,0c0,0,0-0.1-0.1-0.3c0.1,0,0.1,0,0.2,0
			c0,0,0.1-0.1,0-0.2c0,0,0.1-0.1,0.1-0.2c0-0.1,0.1-0.1,0.1-0.2c0,0,0.1,0,0.1,0.1c0,0,0.1,0,0.1-0.1v-0.1l0.1-0.1
			c0.1,0,0.1,0,0.1,0s0,0,0-0.1h0.1c0,0,0,0,0.1,0.1c0,0,0,0,0.1,0c0,0,0,0,0.1,0C9.3,53.9,9.3,54,9.4,54c0.1,0,0.1,0,0.1,0
			s0,0,0.1,0s0.1,0.1,0.2,0.1l0.1,0.1c0,0,0.1,0,0.1,0.1c0,0,0.1,0.1,0.1,0.2c0,0.1,0.1,0.1,0.1,0.2c0.1,0,0.2,0.1,0.3,0.2
			c0.1,0.1,0.2,0.2,0.3,0.3c0,0,0,0,0,0.1c0,0,0,0,0,0.1l0.2,0.1h0.1c0.1,0,0.1,0,0.1,0s0,0,0,0.1c0,0,0,0,0.1,0c0,0,0.1,0,0.2,0
			c0.1,0,0.2,0,0.2,0s0,0,0.1,0.1c0,0,0,0.1,0.1,0.1s0.1,0,0.2,0c0.1,0,0.1-0.1,0.1-0.1s0,0,0.1,0h0.1c0,0,0.1,0,0.1-0.1
			c0.1,0,0.1,0,0.2,0h0.1h0.1l0,0l0,0c0,0,0,0,0.1,0h0.1c0,0,0,0,0-0.1h0.1c0,0,0.1,0,0.1-0.1c0,0,0,0,0.1,0l0,0h0.1
			c0.1,0,0.1-0.1,0.1-0.2c0,0,0.1,0,0.1,0.1c0,0,0.1,0,0.1-0.1c0.1-0.1,0.1-0.1,0.2-0.1c0-0.1,0.2-0.2,0.4-0.4
			c0.2-0.1,0.4-0.3,0.4-0.4c0.1,0,0.2-0.1,0.2-0.2c0,0,0.1-0.1,0.2-0.2c0.1-0.1,0.1-0.1,0.1-0.2v-0.1c0,0,0-0.1,0.1-0.1v-0.2
			c0.1,0,0.1-0.1,0.1-0.1c0-0.1,0-0.2,0-0.3s0-0.2,0-0.3c0,0,0,0-0.1-0.1c0,0,0,0,0-0.1c0,0,0-0.1,0-0.2l-0.1-0.1
			c-0.1,0-0.1-0.1-0.1-0.1c-0.1,0-0.1,0.1-0.2,0v-0.1h-0.1c0,0,0,0,0-0.1s0-0.1,0-0.1s0,0-0.1,0h-0.1c0,0,0,0-0.1-0.1
			c0,0,0-0.1-0.1-0.1c0,0-0.1,0-0.2,0c-0.1,0-0.2,0-0.2,0c-0.1,0-0.2-0.1-0.3,0c0,0,0,0,0-0.1c0,0-0.1-0.1-0.3-0.1s-0.3-0.1-0.3-0.1
			c-0.1-0.1-0.3-0.2-0.6-0.2l0,0l0,0c0,0,0,0,0-0.1c0,0-0.1,0-0.2-0.1c-0.1-0.1-0.1-0.1-0.2-0.1c0,0,0,0-0.1,0.1c0,0,0,0-0.1,0.1
			c0,0,0-0.1-0.1-0.1s-0.1-0.1-0.1-0.1c0-0.1-0.1-0.1-0.2,0c0-0.1-0.1-0.2-0.1-0.2c-0.1,0.1-0.2,0.1-0.3,0c0,0-0.2-0.1-0.4,0
			c0-0.1-0.1-0.1-0.1-0.2c-0.1,0-0.2,0-0.3-0.1c0,0-0.1,0-0.2,0c0,0,0,0-0.1,0l0,0l0,0c0,0,0,0-0.1,0c0,0,0,0-0.1,0
			c-0.2-0.1-0.3-0.1-0.4,0c0,0,0,0,0-0.1c0,0,0,0-0.1-0.1c0,0,0,0-0.1,0c0,0,0,0-0.1-0.1c0,0,0,0-0.1-0.1c0,0-0.1,0-0.2-0.1
			c-0.1,0-0.2,0-0.2-0.1l-0.1-0.1c0,0,0,0-0.1,0H8.4c0-0.1,0-0.1,0-0.1s0,0-0.1,0c0,0,0,0-0.1,0s0,0,0,0s0,0,0-0.1l0,0
			c0,0,0,0,0-0.1c0,0,0,0-0.1,0H8c0,0,0,0,0-0.1l0,0C8,49,7.9,49,7.8,49s-0.1-0.1-0.1-0.2H7.6H7.5c0,0,0-0.1-0.1-0.2
			c0-0.1-0.1-0.1-0.2-0.2c0.1,0.7,0,0.6,0,0.6H7.1c0,0-0.1,0-0.1-0.1v-0.1c-0.2-0.2-0.2-0.3-0.2-0.4c0,0-0.1,0-0.1-0.1
			s-0.1-0.1-0.1-0.1s0-0.1,0-0.2c-0.2-0.1-0.3-0.2-0.3-0.4c0,0,0,0,0-0.1s0-0.1,0-0.1s0,0,0-0.1c0,0-0.1,0-0.1-0.1v-0.1
			c0,0,0-0.1,0-0.2c0-0.1,0-0.1,0-0.2v-0.1v-0.1c0,0,0-0.1,0.1-0.1v-0.1v-0.1c0.1,0,0.2-0.1,0.3-0.3h0.1c0,0,0,0,0-0.1v-0.1
			c0,0,0.1,0,0.2-0.1s0.2-0.1,0.3-0.2c0.1,0,0.1,0,0.1,0s0,0,0.1-0.1c0,0,0,0,0.1,0c0,0,0,0,0.1-0.1l0.1-0.1c0.1,0,0.1,0,0.1,0
			c0.1,0,0.1-0.1,0.2-0.2c0.1,0,0.2,0,0.2-0.1c0.1,0,0.1,0,0.2,0c0.1,0,0.1,0,0.2,0c0,0,0.1,0,0.2-0.1c0.1,0.1,0.2,0,0.2,0
			c0.1,0,0.1,0,0.1,0h0.1c0.1,0,0.1,0,0.1-0.1h0.1c0,0,0,0,0.1-0.1l0.1-0.1h0.1c0,0,0.1-0.1,0.2-0.2c0.1,0,0.1,0,0.2-0.1v0.1
			c0.1,0,0.2-0.1,0.3-0.1s0.3,0,0.4,0h0.1c0,0,0.1,0,0.1-0.1h0.1c0,0,0,0,0.1-0.1l0.1-0.1c0.1,0,0.3,0,0.5,0c0.3,0,0.5,0,0.6,0
			c0,0,0.1,0,0.2,0c0.1,0,0.1,0,0.2,0h0.1c0.1,0,0.1,0,0.2,0c0,0,0.1,0.1,0.2,0.1C13.4,44.2,13.5,44.2,13.6,44.3z"/>
		<path class="st0" d="M25.5,41.4c0.4,0.1,0.7,0,0.7-0.1c0,0,0.1,0,0.3,0c0,0,0,0,0,0.1c0,0,0,0,0,0.1c0,0,0.1,0,0.2,0
			s0.1,0,0.1,0.1c0.1,0,0.2,0,0.3,0.1c0.4,0,0.6,0.1,0.7,0.2h0.1c0,0,0.1,0.1,0.3,0.2c0.1,0.1,0.2,0.1,0.3,0.2v0.1
			c0.1,0.1,0.2,0.3,0.3,0.6c0,0,0.1,0,0.1,0.1s0,0.2,0,0.3s0,0.2,0,0.2c0,0.1-0.1,0.1-0.1,0.2l-0.1,0.1c0,0.1,0,0.1-0.1,0.2v0.1
			l-0.1,0.1c0,0,0,0-0.1,0l0,0c0,0,0,0.1-0.1,0.1h-0.1c0,0,0,0-0.1,0.1c0,0,0,0-0.1,0.1c-0.1,0-0.2,0-0.2,0c0,0.1,0,0.1,0,0.1h-0.1
			c-0.1,0-0.1,0-0.1,0s0,0-0.1,0c0,0,0,0-0.1,0c0,0,0,0,0.1-0.1c0,0,0-0.1-0.1-0.1c0-0.1,0-0.1-0.1-0.1c0,0,0,0-0.1,0.1h-0.1
			c0,0,0-0.1-0.1-0.2c0-0.1-0.1-0.1-0.1-0.1v0.1v0.1c0,0,0-0.1-0.1-0.1c0,0,0-0.1-0.1-0.1c0,0,0,0-0.1-0.1c0-0.1-0.2-0.2-0.4-0.2
			c0,0-0.1,0-0.2,0.1c0,0-0.1,0-0.2,0s-0.1,0-0.1,0s0,0-0.1,0.1c0,0-0.2,0-0.3,0c-0.2,0-0.4,0.1-0.4,0.2c-0.1-0.1-0.2-0.1-0.3,0
			c-0.1,0-0.1,0-0.2,0s-0.1,0-0.2,0v0.1c-0.1,0-0.2,0-0.2,0c-0.1,0-0.2-0.1-0.2,0c0,0,0,0-0.1,0.1c0,0,0,0.1-0.1,0.1
			c0,0-0.1,0-0.2,0s-0.1,0-0.1,0s-0.1,0-0.1,0.1h-0.1H23v0.1c-0.2,0-0.4,0-0.4,0s0,0,0,0.1c0,0,0,0,0,0.1c-0.2-0.1-0.4-0.1-0.5,0.1
			c0,0-0.1,0-0.1-0.1c-0.1,0-0.1,0.1,0,0.2c0,0,0,0.1,0.1,0.1v0.1v0.1v0.1c0,0.1,0,0.2,0.1,0.2c0,0.1,0,0.2,0.1,0.3s0.1,0.2,0,0.3
			c0,0.1,0,0.2,0.1,0.2c0,0,0,0,0,0.1c0,0,0,0,0,0.1v0.1c0,0,0,0.1,0.1,0.1c0,0.5,0,0.8,0,0.8c-0.1,0.1-0.1,0.3,0,0.4
			c0,0,0,0.1,0,0.2v0.1v0.1c0.1,0,0.1,0.1,0.1,0.1s0,0,0,0.1c0,0,0,0,0,0.1s0,0.2,0,0.4s0,0.3,0,0.4c0,0,0,0.1,0,0.2
			c0,0.1,0.1,0.1,0.2,0.1s0.2-0.1,0.2-0.1c0.2,0,0.4,0,0.4-0.1c0.3,0,0.4,0,0.4,0c0.1,0,0.2,0,0.3,0c0,0,0.1,0,0.1-0.1
			c0.1,0,0.1-0.1,0.1-0.1h0.1c0.1,0,0.2,0,0.2-0.1c0.2,0,0.3,0,0.4,0c0,0,0,0,0.1,0c0,0,0,0,0.1,0s0.1,0,0.1,0h0.1
			c0.1,0,0.2,0,0.4,0v-0.1c0.1,0,0.2,0.1,0.3,0c0.1,0,0.2-0.1,0.3-0.1h0.1l0.1-0.1c0,0,0,0,0.1,0c0,0,0,0,0,0.1c0,0,0.1,0,0.1-0.1
			c0.1-0.1,0.1-0.1,0.2-0.1l0.1-0.1c0,0,0,0,0.1,0.1c0.2,0,0.3,0,0.3-0.1c0,0,0.1,0,0.2,0s0.1,0,0.1,0s0.1,0,0.2,0.1
			c0.1,0,0.1,0.1,0.2,0.1s0.2,0.1,0.2,0.1s0.1,0,0.2,0c0,0,0,0,0.1,0c0,0,0,0,0,0.1c0.2,0,0.3,0,0.3,0s0,0.1,0.1,0.2v0.1
			c0,0,0,0.1,0.1,0.2c0,0.2,0.1,0.3,0.2,0.3c0,0,0,0-0.1,0.1c0,0.1,0,0.2-0.1,0.3C29,50,29,50,29,50.1h-0.1c0,0,0,0,0,0.1
			c0,0,0,0,0,0.1h-0.1l0,0h-0.1c0,0,0,0-0.1-0.1c0,0,0,0-0.1,0c0,0-0.1,0-0.1,0.1h-0.1c0,0-0.1,0.1-0.3,0.1c-0.2,0-0.2,0.1-0.2,0.2
			c-0.2,0-0.3,0-0.5,0.2c0,0,0,0-0.1,0c0,0,0,0-0.1,0.1c0,0,0,0,0,0.1c-0.1,0-0.1,0-0.2-0.1c0,0,0,0-0.1,0c0,0,0,0,0,0.1
			c0,0-0.1,0-0.2,0s-0.2,0-0.2,0s0,0-0.1,0.1l-0.1,0.1c-0.1,0-0.1,0-0.2,0s-0.1,0-0.1,0.1c0,0-0.1-0.1-0.2-0.1s-0.2,0-0.2,0.1v0.1
			c0,0-0.1,0-0.2,0s-0.1,0-0.1,0s-0.1,0-0.2,0v0.1c0,0-0.1,0-0.2,0h-0.1c0,0-0.1,0.1,0,0.1l-0.2-0.1c0,0-0.1,0-0.3,0
			c0,0,0,0.1-0.1,0.1c0,0,0,0.1-0.1,0.1c-0.2,0-0.3,0-0.3,0l-0.1,0.1c-0.2,0-0.4,0-0.4,0s-0.1,0-0.2,0.1c0,0,0,0,0,0.1
			c-0.2,0.1-0.3,0.1-0.4,0c0,0-0.1,0-0.1,0.1l-0.1,0.1c0,0,0,0-0.1-0.1c0,0,0-0.1-0.1-0.1c0,0-0.1,0-0.2,0.1c-0.1,0-0.1,0-0.1,0
			c-0.1,0-0.1,0.1,0,0.4v0.1v0.1c0,0,0,0.1,0.1,0.1c0,0.1,0,0.2-0.1,0.2v0.1c0,0.1,0,0.1,0.1,0.2c0,0,0,0,0,0.1c0,0,0,0,0,0.1
			c0,0,0,0.1-0.1,0.2c0.1,0.1,0.1,0.2,0.1,0.4s0,0.4,0.1,0.5c-0.1,0.2-0.1,0.3,0,0.4c0,0,0,0.1,0,0.2v0.1v0.1
			c0.1,0.2,0.1,0.3,0.1,0.3s0.1,0.1,0.1,0.2c0,0.1,0.1,0.2,0.1,0.2c0.1,0,0.2,0,0.3,0.1c0.2,0,0.2,0,0.3,0c0,0,0,0,0.1-0.1
			c0,0,0.1,0,0.1,0.1c0.3,0,0.5,0,0.6-0.1c0,0,0.1,0,0.3,0c0.1,0,0.2,0,0.3,0c0-0.1,0.2-0.1,0.5-0.1c0,0,0,0,0-0.1v-0.1
			c0,0,0.1,0,0.2,0s0.1,0,0.2,0c0,0,0.1-0.1,0.2-0.1s0.1-0.1,0.2-0.1s0.3,0,0.4-0.1s0.3-0.2,0.4-0.2c0-0.1,0-0.1,0.1-0.1
			s0.2,0,0.3,0c0.2,0,0.3-0.1,0.4-0.2c0.1,0,0.2,0,0.2,0c0.1-0.1,0.1-0.1,0.2-0.1c0.4,0,0.6,0,0.6,0.1h0.1c0,0.1,0.1,0.2,0.2,0.3
			h0.1c0,0,0.1,0.1,0.2,0.2c0,0.1,0.1,0.2,0.2,0.3c0,0,0,0.1,0.1,0.2c0.1,0.1,0.1,0.1,0.1,0.2c0,0,0,0,0,0.1s0,0.1,0,0.1
			c-0.1,0.1-0.2,0.2-0.2,0.3c-0.1,0-0.2,0.1-0.2,0.2c-0.2,0-0.2,0.1-0.3,0.3c0,0,0,0-0.1,0c0,0,0,0-0.1,0c0,0,0,0.1-0.1,0.2
			c0,0,0,0-0.1,0c0,0,0,0-0.1,0s-0.1,0-0.1,0.1c-0.2,0-0.2,0-0.2,0.1h-0.1c-0.1,0.2-0.2,0.2-0.4,0.1c0,0-0.1,0-0.1,0.1
			c0,0,0,0-0.1,0s-0.2-0.1-0.2,0c0,0-0.1,0.1-0.1,0.2h-0.1c0,0,0,0,0,0.1v0.1c0,0-0.1,0-0.2-0.1c-0.1,0-0.2,0-0.2,0s0,0,0,0.1
			c0,0,0,0-0.1,0.1c0,0,0,0-0.1,0c0,0,0,0-0.1,0c0,0,0,0-0.1,0.1c-0.1,0-0.2,0-0.3,0c0,0,0,0,0,0.1c-0.1,0-0.2,0-0.2,0
			c-0.1,0-0.2,0-0.2,0.1c0,0,0,0-0.1,0c0,0,0,0-0.1,0c0,0-0.1,0-0.2,0s-0.2,0-0.2,0.1v0.1c0,0-0.1,0-0.2,0h-0.1c0,0,0-0.1-0.1-0.1
			c0-0.7-0.2-0.7-0.2-0.6v0.1h-0.1c0,0,0,0-0.1-0.1c0,0,0,0-0.1,0.1c0,0,0,0-0.1,0s-0.1,0-0.1,0c-0.1,0-0.1,0-0.2,0v-0.1h-0.1
			c-0.1,0-0.1,0-0.1,0.1c-0.2,0-0.3,0-0.5,0c0-0.1,0-0.1-0.1-0.1h-0.1c0,0,0,0,0,0.1v0.1c0,0,0,0,0-0.1v-0.1h-0.1V58
			c0-0.1-0.1-0.1-0.2-0.1s-0.1-0.1-0.2-0.1c0,0-0.1,0-0.1-0.1s-0.1-0.1-0.1-0.1s0,0-0.1,0c0,0,0,0-0.1,0v-0.1c0,0,0-0.1-0.1-0.1
			s0,0-0.1,0h-0.1c0-0.1,0-0.2-0.2-0.3V57c0.1,0.1,0,0.1,0,0h-0.1c-0.1,0-0.1-0.1-0.2-0.2c-0.1-0.1-0.1-0.1-0.2-0.2
			c-0.1-0.1-0.1-0.2-0.2-0.2c-0.1-0.3-0.2-0.5-0.2-0.5s0-0.1-0.1-0.2c0,0,0-0.1,0-0.2c0-0.1,0-0.1,0-0.2c0,0,0-0.1-0.1-0.1
			c0,0,0,0,0-0.1c0,0,0,0,0-0.1c0,0,0-0.1,0-0.3c0-0.1,0-0.2-0.1-0.3c0,0,0-0.1,0-0.3c0-0.1,0-0.2,0-0.3c0-0.3,0-0.8,0-1.4
			c0-0.6,0-1.1,0-1.4c0.1,0,0.1,0,0.1-0.1s-0.1-0.1-0.1-0.2c0-0.1,0-0.2,0.1-0.3c0-0.1,0.1-0.2,0.1-0.2l-0.1-0.1c0,0,0-0.1,0.1-0.1
			c0-0.1,0-0.5,0-1.3l0.1-0.1c0,0,0-0.1-0.1-0.1c0,0,0-0.1,0-0.2c0-0.1,0-0.2,0-0.3c0,0,0,0,0-0.1s0-0.2,0-0.2s0-0.2,0-0.4
			s0-0.4-0.1-0.4c0.1,0,0.1-0.1,0.1-0.3s0-0.3,0-0.3l-0.1-0.1c0-0.2,0-0.2,0.1-0.3c0,0,0,0-0.1-0.1c0,0,0,0,0-0.1c0-0.2,0-0.4,0-0.4
			l0,0c0,0,0,0-0.1,0c0-0.2,0-0.4,0-0.6h-0.1c0,0,0-0.1,0-0.2c0,0,0,0,0-0.1c0,0,0,0,0-0.1v-0.1v-0.1c0,0,0-0.1-0.1-0.1
			c-0.1-0.1-0.1-0.2,0-0.2l-0.1-0.1v-0.1c0,0-0.1-0.1-0.2-0.2c0-0.1,0-0.1,0-0.2v-0.1c0-0.1,0-0.2,0-0.3c0.1-0.1,0.1-0.2,0.1-0.3
			c0,0,0.1-0.1,0.1-0.2s0.1-0.1,0.2-0.2l0,0c0,0,0,0,0-0.1l0.1,0.1c0,0,0.1,0,0.2,0s0.1,0,0.2,0c0,0,0.1,0,0.2-0.1s0.1-0.1,0.1-0.1
			s0.1,0,0.2,0s0.2,0,0.2,0s0,0,0.1,0c0,0,0,0,0.1,0c0.2,0,0.3,0,0.3-0.1c0.3-0.1,0.5-0.1,0.5-0.1H22l0,0c0,0,0,0,0.1,0h0.1
			c0,0,0.1,0,0.2-0.1c0.1,0,0.1-0.1,0.2-0.1v-0.1h0.1c0,0,0,0,0,0.1v0.1c0.2,0,0.3-0.1,0.4-0.1c0,0,0.1,0,0.2,0.1l0.2-0.1
			c0,0,0.1-0.1,0.2-0.2c0,0.1,0,0.1,0.1,0.1c0,0,0.1,0,0.1-0.1c0.1,0,0.1,0,0.1,0h0.1c0,0,0.1,0,0.1-0.1h0.1c0.1,0,0.1,0,0.2,0
			s0.2,0,0.3-0.1h0.1c0,0,0.1,0,0.1-0.1c0.1,0,0.1,0,0.1,0s0.1,0,0.2-0.1h0.1C25.4,41.5,25.5,41.5,25.5,41.4
			C25.5,41.5,25.5,41.5,25.5,41.4L25.5,41.4z M26.2,41.3c0,0,0.1,0,0.2,0s0.1,0,0.2,0l0,0c0,0,0,0,0,0.1c0,0,0.1,0,0.2,0
			s0.1,0,0.1,0.1c0.1,0,0.2,0,0.3,0.1c0.4,0,0.6,0.1,0.7,0.2H28c0,0,0.1,0.1,0.3,0.2c0.1,0.1,0.2,0.1,0.3,0.2v0.1
			c0.1,0.1,0.2,0.3,0.3,0.6c0,0,0,0,0.1,0l0,0c0,0.1,0,0.2,0,0.3s0,0.2,0,0.2c0,0.1-0.1,0.1-0.1,0.2l-0.1,0.1c0,0.1,0,0.1-0.1,0.2
			V44l-0.1,0.1c0,0,0,0-0.1,0l0,0c0,0,0,0.1-0.1,0.1h-0.1c0,0,0,0-0.1,0.1c0,0,0,0-0.1,0.1c-0.1,0-0.2,0-0.2,0c0,0.1,0,0.1,0,0.1
			h-0.1c-0.1,0-0.1,0-0.1,0s0,0-0.1,0c0,0,0,0-0.1,0c0,0,0,0,0.1-0.1c0,0,0-0.1-0.1-0.1c0-0.1,0-0.1-0.1-0.1c0,0,0,0-0.1,0.1h-0.1
			c0,0,0-0.1-0.1-0.2C27.1,44,27,44,27,44v0.1v0.1c0,0,0-0.1-0.1-0.1c0,0,0-0.1-0.1-0.1c0,0,0,0-0.1-0.1c0-0.1-0.2-0.2-0.4-0.2
			c0,0-0.1,0-0.2,0.1c0,0-0.1,0-0.2,0s-0.1,0-0.1,0s0,0-0.1,0.1c0,0-0.2,0-0.3,0c-0.2,0-0.4,0.1-0.4,0.2c-0.1-0.1-0.2-0.1-0.3,0
			c-0.1,0-0.1,0-0.2,0s-0.1,0-0.2,0v0.1c-0.1,0-0.2,0-0.2,0c-0.1,0-0.2-0.1-0.2,0c0,0,0,0-0.1,0.1c0,0,0,0.1-0.1,0.1
			c0,0-0.1,0-0.2,0s-0.1,0-0.1,0s-0.1,0-0.1,0.1h-0.1h-0.1v0.1c-0.2,0-0.4,0-0.4,0s0,0,0,0.1c0,0,0,0,0,0.1
			c-0.2-0.1-0.4-0.1-0.5,0.1c0,0-0.1,0-0.1-0.1c-0.1,0-0.1,0.1,0,0.2c0,0,0,0.1,0.1,0.1v0.1v0.1v0.1c0,0.1,0,0.2,0.1,0.2
			c0,0.1,0,0.2,0.1,0.3s0.1,0.2,0,0.3c0,0.1,0,0.2,0.1,0.2c0,0,0,0,0,0.1c0,0,0,0,0,0.1v0.1c0,0,0,0.1,0.1,0.1c0,0.5,0,0.8,0,0.8
			c-0.1,0.1-0.1,0.3,0,0.4c0,0,0,0.1,0,0.2v0.1v0.1c0.1,0,0.1,0.1,0.1,0.1s0,0,0,0.1c0,0,0,0,0,0.1s0,0.2,0,0.4s0,0.3,0,0.4
			c0,0,0,0.1,0,0.2c0,0.1,0.1,0.1,0.2,0.1s0.2-0.1,0.2-0.1c0.2,0,0.4,0,0.4-0.1c0.3,0,0.4,0,0.4,0c0.1,0,0.2,0,0.3,0
			c0,0,0.1,0,0.1-0.1c0.1,0,0.1-0.1,0.1-0.1h0.1c0.1,0,0.2,0,0.2-0.1c0.2,0,0.3,0,0.4,0c0,0,0,0,0.1,0c0,0,0,0,0.1,0s0.1,0,0.1,0
			h0.1c0.1,0,0.2,0,0.4,0v-0.1c0.1,0,0.2,0.1,0.3,0c0.1,0,0.2-0.1,0.3-0.1h0.1l0.1-0.1c0,0,0,0,0.1,0c0,0,0,0,0,0.1
			c0,0,0.1,0,0.1-0.1c0.1-0.1,0.1-0.1,0.2-0.1l0.1-0.1c0,0,0,0,0.1,0.1c0.2,0,0.3,0,0.3-0.1c0,0,0.1,0,0.2,0s0.1,0,0.1,0
			s0.1,0,0.2,0.1c0.1,0,0.1,0.1,0.2,0.1s0.2,0.1,0.2,0.1s0.1,0,0.2,0c0,0,0,0,0.1,0c0,0,0,0,0,0.1c0.2,0,0.3,0,0.3,0s0,0.1,0.1,0.2
			v0.1c0,0,0,0.1,0.1,0.2c0,0.2,0.1,0.3,0.2,0.3c0,0,0,0-0.1,0.1c0,0.1,0,0.2-0.1,0.3C29,50,29,50,29,50.1h-0.1c0,0,0,0,0,0.1
			c0,0,0,0,0,0.1h-0.1l0,0h-0.1c0,0,0,0-0.1-0.1c0,0,0,0-0.1,0c0,0-0.1,0-0.1,0.1h-0.1c0,0-0.1,0.1-0.3,0.1c-0.2,0-0.2,0.1-0.2,0.2
			c-0.2,0-0.3,0-0.5,0.2c0,0,0,0-0.1,0c0,0,0,0-0.1,0.1c0,0,0,0,0,0.1c-0.1,0-0.1,0-0.2-0.1c0,0,0,0-0.1,0c0,0,0,0,0,0.1
			c0,0-0.1,0-0.2,0s-0.2,0-0.2,0s0,0-0.1,0.1l-0.1,0.1c-0.1,0-0.1,0-0.2,0s-0.1,0-0.1,0.1c0,0-0.1-0.1-0.2-0.1s-0.2,0-0.2,0.1v0.1
			c0,0-0.1,0-0.2,0s-0.1,0-0.1,0s-0.1,0-0.2,0v0.1c0,0-0.1,0-0.2,0h-0.1c0,0-0.1,0.1,0,0.1l-0.2-0.1c0,0-0.1,0-0.3,0
			c0,0,0,0.1-0.1,0.1c0,0,0,0.1-0.1,0.1c-0.2,0-0.3,0-0.3,0l-0.1,0.1c-0.2,0-0.4,0-0.4,0s-0.1,0-0.2,0.1c0,0,0,0,0,0.1
			c-0.2,0.1-0.3,0.1-0.4,0c0,0-0.1,0-0.1,0.1l-0.1,0.1c0,0,0,0-0.1-0.1c0,0,0-0.1-0.1-0.1c0,0-0.1,0-0.2,0.1c-0.1,0-0.1,0-0.1,0
			c-0.1,0-0.1,0.1,0,0.4v0.1v0.1c0,0,0,0.1,0.1,0.1c0,0.1,0,0.2-0.1,0.2v0.1c0,0.1,0,0.1,0.1,0.2c0,0,0,0,0,0.1c0,0,0,0,0,0.1
			c0,0,0,0.1-0.1,0.2c0.1,0,0.1,0.2,0.1,0.4s0,0.4,0.1,0.5c-0.1,0.2-0.1,0.3,0,0.4c0,0,0,0.1,0,0.2v0.1v0.1c0.1,0.2,0.1,0.3,0.1,0.3
			s0.1,0.1,0.1,0.2c0,0.1,0.1,0.2,0.1,0.2c0.1,0,0.2,0,0.3,0.1c0.2,0,0.2,0,0.3,0c0,0,0,0,0.1-0.1c0,0,0.1,0,0.1,0.1
			c0.3,0,0.5,0,0.6-0.1c0,0,0.1,0,0.3,0c0.1,0,0.2,0,0.3,0c0-0.1,0.2-0.1,0.5-0.1c0,0,0,0,0-0.1v-0.1c0,0,0.1,0,0.2,0s0.1,0,0.2,0
			c0,0,0.1-0.1,0.2-0.1s0.1-0.1,0.2-0.1s0.3,0,0.4-0.1s0.3-0.2,0.4-0.2c0-0.1,0-0.1,0.1-0.1s0.2,0,0.3,0c0.2,0,0.3-0.1,0.4-0.2
			c0.1,0,0.2,0,0.2,0c0.1-0.1,0.1-0.1,0.2-0.1c0.4,0,0.6,0,0.6,0.1h0.1c0,0.1,0.1,0.2,0.2,0.3h0.1c0,0,0.1,0.1,0.2,0.2
			c0,0.1,0.1,0.2,0.2,0.3c0,0,0,0.1,0.1,0.2c0.1,0.1,0.1,0.1,0.1,0.2c0,0,0,0,0,0.1s0,0.1,0,0.1c-0.1,0.1-0.2,0.2-0.2,0.3
			c-0.1,0-0.2,0.1-0.2,0.2c-0.2,0-0.2,0.1-0.3,0.3c0,0,0,0-0.1,0c0,0,0,0-0.1,0c0,0,0,0.1-0.1,0.2c0,0,0,0-0.1,0c0,0,0,0-0.1,0
			s-0.1,0-0.1,0.1c-0.2,0-0.2,0-0.2,0.1h-0.1c-0.1,0.2-0.2,0.2-0.4,0.1c0,0-0.1,0-0.1,0.1c0,0,0,0-0.1,0s-0.2-0.1-0.2,0
			c0,0-0.1,0.1-0.1,0.2h-0.1c0,0,0,0,0,0.1v0.1c0,0-0.1,0-0.2-0.1c-0.1,0-0.2,0-0.2,0s0,0,0,0.1c0,0,0,0-0.1,0.1c0,0,0,0-0.1,0
			c0,0,0,0-0.1,0c0,0,0,0-0.1,0.1c-0.1,0-0.2,0-0.3,0c0,0,0,0,0,0.1c-0.1,0-0.2,0-0.2,0c-0.1,0-0.2,0-0.2,0.1c0,0,0,0-0.1,0
			c0,0,0,0-0.1,0c0,0-0.1,0-0.2,0s-0.2,0-0.2,0.1v0.1c0,0-0.1,0-0.2,0h-0.1c0,0,0-0.1-0.1-0.1c0-0.7-0.2-0.7-0.2-0.6v0.1h-0.1
			c0,0,0,0-0.1-0.1c0,0,0,0-0.1,0.1c0,0,0,0-0.1,0s-0.1,0-0.1,0c-0.1,0-0.1,0-0.2,0v-0.1h-0.1c-0.1,0-0.1,0-0.1,0.1
			c-0.2,0-0.3,0-0.5,0c0-0.1,0-0.1-0.1-0.1h-0.1c0,0,0,0,0,0.1v0.1c0,0,0,0,0-0.1v-0.1h-0.1V58c0-0.1-0.1-0.1-0.2-0.1
			s-0.1-0.1-0.2-0.1c0,0-0.1,0-0.1-0.1s-0.1-0.1-0.1-0.1s0,0-0.1,0c0,0,0,0-0.1,0v-0.1c0,0,0-0.1-0.1-0.1s0,0-0.1,0h-0.1
			c0-0.1,0-0.2-0.2-0.3V57c0.1,0.1,0,0.1,0,0h-0.1c-0.1,0-0.1-0.1-0.2-0.2c-0.1-0.1-0.1-0.1-0.2-0.2c-0.1-0.1-0.1-0.2-0.2-0.2
			c-0.1-0.3-0.2-0.5-0.2-0.5s0-0.1-0.1-0.2c0,0,0-0.1,0-0.2c0-0.1,0-0.2,0-0.2s0-0.1-0.1-0.1c0,0,0,0,0-0.1c0,0,0,0,0-0.1
			c0,0,0-0.1,0-0.3c0-0.1,0-0.2-0.1-0.3c0,0,0-0.1,0-0.3c0-0.1,0-0.2,0-0.3c0-0.3,0-0.8,0-1.4c0-0.6,0-1.1,0-1.4
			c0.1,0,0.1,0,0.1-0.1s-0.1-0.1-0.1-0.2c0-0.1,0-0.2,0.1-0.3c0-0.1,0.1-0.2,0.1-0.2l-0.1-0.1c0,0,0-0.1,0.1-0.1c0-0.1,0-0.5,0-1.3
			l0.1-0.1c0,0,0-0.1-0.1-0.1c0,0,0-0.1,0-0.2c0-0.1,0-0.2,0-0.3v-0.1c0-0.1,0-0.1,0-0.2c0,0,0-0.2,0-0.4s0-0.4-0.1-0.4
			c0.1,0,0.1-0.1,0.1-0.3s0-0.3,0-0.3l-0.1-0.1c0-0.2,0-0.2,0.1-0.3c0,0,0,0-0.1-0.1c0,0,0,0,0-0.1c0-0.2,0-0.4,0-0.4l0,0
			c0,0,0,0-0.1,0c0-0.2,0-0.4,0-0.6h-0.1c0,0,0-0.1,0-0.2c0,0,0,0,0-0.1c0,0,0,0,0-0.1v-0.1v-0.1c0,0,0-0.1-0.1-0.1
			c-0.1-0.1-0.1-0.2,0-0.2l-0.1-0.1v-0.1c0,0-0.1-0.1-0.2-0.2c0-0.1,0-0.1,0-0.2v-0.1c0-0.1,0-0.2,0-0.3c0.1-0.1,0.1-0.2,0.1-0.3
			c0,0,0.1-0.1,0.1-0.2s0.1-0.1,0.2-0.2l0,0c0,0,0,0,0-0.1l0.1,0.1c0,0,0.1,0,0.2,0s0.1,0,0.2,0c0,0,0.1,0,0.2-0.1s0.1-0.1,0.1-0.1
			s0.1,0,0.2,0s0.2,0,0.2,0s0,0,0.1,0c0,0,0,0,0.1,0c0.2,0,0.3,0,0.3-0.1c0.3-0.1,0.5-0.1,0.5-0.1H22l0,0c0,0,0,0,0.1,0h0.1
			c0,0,0.1,0,0.2-0.1c0.1,0,0.1-0.1,0.2-0.1v-0.1h0.1c0,0,0,0,0,0.1v0.1c0.2,0,0.3-0.1,0.4-0.1c0,0,0.1,0,0.2,0.1l0.2-0.1
			c0,0,0.1-0.1,0.2-0.2c0,0.1,0,0.1,0.1,0.1c0,0,0.1,0,0.1-0.1c0.1,0,0.1,0,0.1,0h0.1c0,0,0.1,0,0.1-0.1h0.1c0.1,0,0.1,0,0.2,0
			s0.2,0,0.3-0.1h0.1c0,0,0.1,0,0.1-0.1c0.1,0,0.1,0,0.1,0s0.1,0,0.2-0.1h0.1h0.1l0,0l0,0C26,41.5,26.2,41.5,26.2,41.3z"/>
		<path class="st0" d="M39,37.7c0,0.1,0.1,0.2,0.2,0.2c0,0,0-0.1,0.1-0.1l0,0h0.1v0.1c0,0,0,0,0.1,0.1c0.1,0,0.1,0.1,0.1,0.2
			c0,0.1,0.1,0.1,0.2,0.2c0.1,0.1,0.2,0.1,0.3,0.1c0,0.1,0,0.1-0.1,0.1h-0.1c0,0,0,0.1,0.1,0.2c0,0,0,0.1,0.1,0.2c0,0.1,0,0.1,0,0.1
			v0.1c0,0.1,0,0.1,0,0.1s0,0,0,0.1c0,0,0,0,0.1,0.1v0.1v0.1c0,0,0,0,0,0.1c0,0,0,0,0.1,0.1c0,0.1,0,0.2,0.1,0.2
			c0,0.2,0.1,0.4,0.1,0.4c0,0.2,0,0.4,0.1,0.4c0,0.1,0,0.2,0,0.3s0.1,0.2,0,0.2v0.1v0.1c0,0.1,0,0.1,0,0.1s0,0,0.1,0c0,0,0,0,0.1,0
			c0,0.2,0,0.3,0,0.4v0.1l0,0l0,0c0,0,0,0,0,0.1c0,0,0,0,0,0.1v0.1c0,0.1,0,0.2,0.1,0.4s0.1,0.4,0,0.5c0.1,0.1,0.2,0.2,0.2,0.4v0.1
			c0,0,0,0,0,0.1c0,0,0,0,0.1,0.1v0.1c0,0.1,0,0.1,0,0.1v0.1c0,0,0,0.1,0.1,0.1c0,0,0,0.1,0,0.2c0,0.1,0,0.1,0,0.2
			c0,0,0,0.1,0.1,0.2c0,0.1,0.1,0.1,0,0.2l0.1,0.1c0,0,0,0.1-0.1,0.1c0,0,0,0.1,0,0.2v0.1c0,0,0,0,0,0.1c0,0,0,0,0,0.1l0,0
			c0.1,0.1,0.1,0.2,0,0.3c0,0.2,0.1,0.4,0.1,0.5h0.1c0,0,0,0.1,0,0.4v0.1c0,0,0,0.1,0.1,0.1c0,0,0,0.1,0,0.2c0,0.1,0,0.1,0,0.2
			s0,0.1,0.1,0.2c0,0.1,0,0.1,0.1,0.1c0,0.1,0,0.2,0,0.2v0.1v0.1c0,0,0,0.1,0.1,0.1c0,0.2,0.1,0.3,0.1,0.3c0,0.1-0.1,0.2,0,0.2l0,0
			v0.1v0.1c0,0,0,0.1,0.1,0.1c0,0.1,0,0.1,0,0.2c0,0,0,0.1,0,0.2c0,0.1,0,0.2,0,0.3c0,0,0,0.1,0.1,0.1v0.1c0,0.2,0.1,0.3,0.1,0.3
			s0.1,0.1,0.2,0.1c0.1,0,0.2,0.1,0.2,0.1v0.1c0,0,0,0.1,0.1,0.1s0.1,0,0.2,0.1c0,0.1,0,0.2,0,0.3c0.1,0.1,0.1,0.2,0.1,0.3l0.1,0.1
			c0,0.1-0.1,0.2-0.2,0.1c0,0,0,0.1-0.1,0.2c0,0.1,0,0.2,0,0.3c-0.1,0-0.1,0-0.1,0.1c0,0,0,0.1,0,0.2v0.1c0,0,0,0,0,0.1V53
			c0,0,0,0.1,0.1,0.1l0.1,0.1v0.1c0,0.1,0,0.2,0.1,0.2c0,0.4,0.1,0.6,0.2,0.7c0,0.2,0,0.4,0.1,0.5c0,0.1,0,0.2,0.1,0.2
			c0,0,0,0,0.1,0l0,0V55v0.1v0.1c0,0,0,0,0.1,0.1c0,0.1,0,0.1,0,0.2c0.1,0.1,0.1,0.1,0.1,0.2c0,0,0.1,0.1,0.1,0.2
			c0,0,0.1,0.1,0.2,0.3c0,0.1,0.1,0.2,0.2,0.2v0.1c0,0.1,0.1,0.1,0.1,0.2c0.1,0,0.2,0.1,0.2,0.3c0,0,0,0.1,0.1,0.1l0.1,0.1v0.1v0.1
			c0,0.1,0,0.2,0,0.3s0,0.2,0,0.3c0.1,0,0.1,0.1,0,0.3c-0.1,0-0.1,0.1-0.2,0.2c-0.1,0-0.2,0.1-0.3,0.2c-0.1,0.1-0.2,0.1-0.3,0.1
			c0,0,0,0,0,0.1c0,0,0,0,0,0.1h-0.3c0-0.1-0.1-0.2-0.2-0.2c-0.1-0.1-0.1-0.1-0.2-0.2c-0.2,0-0.3,0-0.3-0.1v0.1v0.1
			c0,0-0.1,0-0.1-0.1v-0.1l-0.1-0.1c-0.2-0.2-0.3-0.3-0.5-0.3c0-0.2-0.1-0.3-0.2-0.3v-0.1l0,0c0,0-0.1-0.1-0.1-0.2
			c0-1.4,0-1.5-0.1-1.5h-0.1c0-0.2,0-0.3-0.1-0.3c0-0.1,0-0.2-0.1-0.3c0,0,0,0-0.1,0l0,0v-0.1c0-0.1,0-0.1,0-0.1v-0.1
			c0-0.1,0-0.1,0-0.2h-0.2l0.1-0.1c0-0.1,0-0.1-0.1-0.2c0-0.2,0-0.3-0.1-0.3v-0.1v-0.1c0,0,0,0,0-0.1c0,0,0,0,0-0.1
			c0,0,0-0.1-0.1-0.2c0-0.1,0-0.1,0-0.2c0-0.2-0.1-0.3-0.1-0.4V53v-0.1v-0.1L41,52.7v-0.1v-0.1c0,0,0,0,0-0.1c0,0,0,0,0-0.1
			s-0.1-0.1-0.1-0.2h-0.1c-0.1,0-0.1,0-0.1,0c-0.1,0-0.2,0-0.2,0.1l0,0l0,0c0,0,0,0-0.1,0c0,0,0,0-0.1,0c0,0-0.1,0-0.1,0.1
			c0,0,0,0-0.1-0.1c0,0-0.1,0-0.1,0.1l-0.1,0.1c0,0-0.1-0.1-0.2-0.1c-0.1,0-0.1,0.1-0.1,0.2c-0.1,0-0.2,0-0.2,0
			c0-0.1-0.1-0.1-0.2-0.1c0,0,0,0-0.1,0.1c0,0-0.1,0-0.2-0.1c-0.1,0-0.2,0-0.3,0.1c-0.1,0-0.2,0-0.2,0c-0.1,0-0.2-0.1-0.3-0.1
			s-0.2,0.1-0.3,0.1c-0.4,0-0.6,0-0.7,0c-0.1,0-0.2,0-0.3,0s-0.2,0-0.3,0c0,0.1,0,0.1,0,0.1s-0.1,0-0.2-0.1c0,0-0.1,0-0.1,0.1
			c0,0-0.1,0-0.2,0c-0.1,0-0.2,0-0.2,0s0,0-0.1-0.1c0,0,0,0-0.1,0s-0.1,0-0.1,0.1c-0.1,0-0.1-0.1-0.2-0.1c0,0,0,0-0.1,0.1l-0.1,0.1
			c0-0.1-0.1-0.1-0.1-0.1s-0.1,0-0.1,0.1c-0.1,0-0.1,0.1-0.1,0.1s0,0.1-0.1,0.2c0,0.1,0,0.1-0.1,0.2v0.1c0,0,0,0-0.1,0.1
			c0,0,0,0-0.1,0.1c0,0,0,0.1-0.1,0.2s-0.1,0.2-0.1,0.2l0,0l0,0V54c0,0,0,0.1-0.1,0.1c0,0.1,0,0.2-0.1,0.3c0,0,0,0.1,0,0.2
			c0,0.3,0,0.3,0,0.3s0,0,0,0.1v0.1c0,0,0,0-0.1,0.1c-0.1,0-0.1,0-0.1,0.1c0,0.2-0.1,0.3-0.2,0.4c0,0,0,0.1,0,0.3h-0.1
			c-0.1,0.2-0.1,0.3-0.1,0.4c0,0,0,0.1,0.1,0.2c0,0,0,0-0.1,0.1c0,0,0,0.1-0.1,0.2c0,0-0.1,0.1-0.1,0.2c0,0,0,0.1-0.1,0.1v0.1
			c0,0,0,0,0,0.1c0,0,0,0,0,0.1c-0.1-0.2-0.1,0-0.1,0l-0.1,0.1c0,0.1,0,0.1-0.1,0.2c0,0,0,0,0,0.1V58c0,0,0,0.1-0.1,0.1l0,0
			c0,0,0,0-0.1,0c0,0,0,0-0.1,0.1c0,0-0.1,0-0.1,0.1l-0.1,0.1c0,0,0,0-0.1-0.1c0,0,0-0.1-0.1-0.1H32h-0.1c0-0.1,0-0.2,0-0.2
			c-0.2,0-0.3,0-0.4,0c0-0.1,0-0.1-0.1-0.2h-0.1h-0.1c0,0,0,0,0-0.1v-0.1h-0.1v0.1c0,0,0-0.1-0.1-0.2c0,0.2,0,0.2,0,0.1
			c-0.1,0-0.1,0-0.1,0c0-0.1,0-0.1,0-0.2h-0.1c0-0.1,0-0.2,0-0.3l0,0l0,0c0.1-0.1,0.1-0.2,0.1-0.4c-0.1-0.1-0.1-0.2-0.1-0.2h0.1l0,0
			c0,0,0-0.1,0-0.2H31c0,0,0-0.1,0-0.2V56l0.1-0.1c0-0.1,0-0.2,0.1-0.2v-0.1l-0.1-0.1c0.1,0,0.2-0.1,0.2-0.2c0,0,0.1,0,0.1-0.1
			s0-0.1,0-0.2v-0.1v-0.1c0-0.1,0-0.1,0-0.1s0-0.1,0.1-0.1c0-0.1,0.1-0.1,0.1-0.2c0.1-0.1,0.1-0.2,0.1-0.2c0-0.1,0.1-0.2,0.1-0.2
			c0-0.1,0-0.2,0.1-0.4c0.1-0.1,0.1-0.3,0.1-0.4c0,0,0.1,0,0.1-0.1s0.1-0.1,0.1-0.1c0-0.1,0-0.1,0-0.2c0.1-0.1,0.1-0.2,0.1-0.3
			c0,0-0.1-0.1,0-0.1h0.1c0.1-0.1,0.1-0.2,0-0.3c-0.1,0-0.2,0-0.2,0c0-0.2-0.1-0.4-0.3-0.5c0,0,0,0,0-0.1c0,0,0.1,0,0.1-0.1
			c0,0,0-0.1-0.1-0.1s-0.1-0.1-0.1-0.1s0.1-0.1,0.2-0.3c0-0.1,0.1-0.2,0.2-0.2c0.1-0.1,0.2-0.1,0.2-0.1l0.4-0.1c0,0,0.1,0,0.3,0
			c0.1,0,0.2,0,0.2-0.1v-0.1c0-0.1,0-0.1,0-0.1s0,0,0.1-0.1V50v-0.1c0,0,0,0,0.1-0.1c0,0,0,0,0-0.1c0-0.2,0.1-0.3,0.2-0.3
			c0.1-0.2,0.1-0.3,0-0.4c0,0,0.1,0,0.1-0.1s0.1-0.1,0.1-0.2c0-0.1,0-0.2,0.1-0.3c0-0.1,0.1-0.2,0-0.3c0,0,0.1-0.1,0.1-0.2
			c0-0.1,0.1-0.1,0.1-0.2c0-0.1,0-0.2,0.1-0.3c0,0,0-0.1,0.1-0.2c0,0,0,0,0-0.1c0,0,0,0,0-0.1c0.1-0.1,0.1-0.1,0.1-0.1v-0.1v-0.1
			c0,0,0,0,0.1-0.1c0.1-0.2,0.1-0.3,0.1-0.3v-0.2c0,0,0,0,0.1-0.1c0,0,0,0,0-0.1v-0.1v-0.1c0.1-0.2,0.1-0.3,0.1-0.3s0,0,0.1-0.1
			c0,0,0,0,0.1-0.1v-0.1V45c0,0,0,0,0.1-0.1c0,0,0,0,0-0.1v-0.1v-0.1c0,0,0.1,0,0.1-0.1c0.1-0.2,0.1-0.3,0.1-0.3
			c0-0.1,0-0.2,0.1-0.3c0-0.1,0.1-0.2,0.1-0.3c0,0,0.1-0.1,0.1-0.3s0.1-0.3,0.1-0.3c0-0.1,0-0.1,0.1-0.2c0,0,0-0.1,0.1-0.1v-0.1
			v-0.1c0,0,0.1,0,0.1-0.1l0.1-0.1c0,0,0-0.1,0-0.2c0-0.1,0-0.1,0-0.2c0,0,0,0-0.1,0l0,0c0,0,0-0.1,0-0.2c0.1,0,0.1,0,0.2,0v-0.1
			v-0.1c0,0,0,0,0-0.1c0,0,0,0,0.1-0.1c0,0,0-0.1,0-0.2c0-0.1,0-0.1,0-0.1s0-0.1,0.1-0.2c0.1-0.1,0.1-0.2,0.1-0.3
			c0.1,0,0.1-0.1,0.1-0.2c0-0.1,0-0.2,0-0.2V40l0.1-0.1c0-0.1,0.1-0.1,0.1-0.1c0-0.1,0-0.1,0-0.2s0.1-0.1,0.1-0.2v-0.1v-0.1
			c0,0,0-0.1,0.1-0.1c0,0,0-0.1,0.1-0.2c0-0.1,0.1-0.1,0.1-0.1v-0.1c0-0.1,0-0.1,0-0.2c0.1-0.2,0.1-0.3,0.1-0.4h0.1
			c0-0.2,0-0.3,0.1-0.4c0-0.1,0-0.1,0.1-0.2c0,0,0,0,0-0.1c0,0,0,0,0-0.1c0,0,0,0-0.1,0c0-0.1,0-0.1,0-0.2h0.1V37
			c-0.1-0.1-0.1-0.2,0-0.2s0.1,0,0.1-0.1c0,0,0,0,0.1,0.1c0,0,0,0,0.1,0c0,0,0-0.1,0.1-0.2v-0.1c0,0,0,0,0.1,0l0,0
			c0.2-0.1,0.4-0.2,0.6-0.1c0.1,0.1,0.1,0.1,0.1,0.1s0.1,0,0.1-0.1C38.8,37.5,38.9,37.6,39,37.7z M39,37.7c0,0.1,0.1,0.2,0.2,0.2
			c0,0,0-0.1,0.1-0.1l0,0h0.1v0.1c0,0,0,0,0.1,0.1c0.1,0,0.1,0.1,0.1,0.2c0,0.1,0.1,0.1,0.2,0.2c0.1,0.1,0.2,0.1,0.3,0.1
			c0,0.1,0,0.1-0.1,0.1h-0.1c0,0,0,0.1,0.1,0.2c0,0,0,0.1,0.1,0.2c0,0.1,0,0.1,0,0.1v0.1c0,0.1,0,0.1,0,0.1s0,0,0,0.1
			c0,0,0,0,0.1,0.1v0.1v0.1c0,0,0,0,0,0.1c0,0,0,0,0.1,0.1c0,0.1,0,0.2,0.1,0.2c0,0.2,0.1,0.4,0.1,0.4c0,0.2,0,0.4,0.1,0.4
			c0,0.1,0,0.2,0,0.3s0.1,0.2,0,0.2v0.1v0.1c0,0.1,0,0.1,0,0.1s0,0,0.1,0c0,0,0,0,0.1,0c0,0.2,0,0.3,0,0.4v0.1l0,0l0,0
			c0,0,0,0,0,0.1c0,0,0,0,0,0.1v0.1v0.1c0,0.1,0,0.2,0.1,0.4s0.1,0.4,0,0.5c0.1,0.1,0.2,0.2,0.2,0.4V44c0,0,0,0,0,0.1
			c0,0,0,0,0.1,0.1v0.1c0,0.1,0,0.1,0,0.1v0.1c0,0,0,0.1,0.1,0.1c0,0,0,0.1,0,0.2c0,0.1,0,0.1,0,0.2c0,0,0,0.1,0.1,0.2
			c0,0.1,0.1,0.1,0,0.2l0.1,0.1c0,0,0,0.1-0.1,0.1c0,0,0,0.1,0,0.2v0.1c0,0,0,0,0,0.1c0,0,0,0,0,0.1l0,0c0.1,0.1,0.1,0.2,0,0.3
			c0,0.2,0.1,0.4,0.1,0.5h0.1c0,0,0,0.1,0,0.4v0.1c0,0,0,0.1,0.1,0.1c0,0,0,0.1,0,0.2c0,0.1,0,0.1,0,0.2s0,0.1,0.1,0.2
			c0,0.1,0,0.1,0.1,0.1c0,0.1,0,0.2,0,0.2v0.1v0.1c0,0,0,0.1,0.1,0.1c0,0.2,0.1,0.3,0.1,0.3c0,0.1-0.1,0.2,0,0.2l0,0v0.1v0.1
			c0,0,0,0.1,0.1,0.1c0,0.1,0,0.1,0,0.2c0,0,0,0.1,0,0.2c0,0.1,0,0.2,0,0.3c0,0,0,0.1,0.1,0.1v0.1c0,0.2,0.1,0.3,0.1,0.3
			s0.1,0.1,0.2,0.1c0.1,0,0.2,0.1,0.2,0.1V51c0,0,0,0.1,0.1,0.1s0.1,0,0.2,0.1c0,0.1,0,0.2,0,0.3c0.1,0.1,0.1,0.2,0.1,0.3l0.1,0.1
			c0,0.1-0.1,0.2-0.2,0.1c0,0,0,0.1-0.1,0.2c0,0.1,0,0.2,0,0.2c-0.1,0-0.1,0-0.1,0.1c0,0,0,0.1,0,0.2v0.1c0,0,0,0,0,0.1V53
			c0,0,0,0.1,0.1,0.1l0.1,0.1v0.1c0,0.1,0,0.2,0.1,0.2c0,0.4,0.1,0.6,0.2,0.7c0,0.2,0,0.4,0.1,0.5c0,0.1,0,0.2,0.1,0.2h0.1V55v0.1
			v0.1c0,0,0,0,0.1,0.1c0,0.1,0,0.1,0,0.2c0.1,0.1,0.1,0.1,0.1,0.2c0,0,0.1,0.1,0.1,0.2c0,0,0.1,0.1,0.2,0.3c0,0.1,0.1,0.2,0.2,0.2
			v0.1c0,0.1,0.1,0.1,0.1,0.2c0.1,0,0.2,0.1,0.2,0.3c0,0,0,0.1,0.1,0.1l0.1,0.1v0.1v0.1c0,0.1,0,0.2,0,0.3s0,0.2,0,0.3
			c0.1,0,0.1,0.1,0,0.3c-0.1,0-0.1,0.1-0.2,0.2c-0.1,0-0.2,0.1-0.3,0.2c-0.1,0.1-0.2,0.1-0.3,0.1c0,0,0,0,0,0.1c0,0,0,0,0,0.1h-0.3
			c0-0.1-0.1-0.2-0.2-0.2c-0.1-0.1-0.1-0.1-0.2-0.2c-0.2,0-0.3,0-0.3-0.1v0.1v0.1c0,0-0.1,0-0.1-0.1v-0.1l-0.1-0.1
			c-0.2-0.2-0.3-0.3-0.5-0.3c0-0.2-0.1-0.3-0.2-0.3v-0.1l0,0c0,0-0.1-0.1-0.1-0.2c0-1.4,0-1.5-0.1-1.5h-0.1c0-0.2,0-0.3-0.1-0.3
			c0-0.1,0-0.2-0.1-0.3c0,0,0,0-0.1,0l0,0v-0.1c0-0.1,0-0.1,0-0.1v-0.1c0-0.1,0-0.1,0-0.2h-0.2l0.1-0.1c0-0.1,0-0.1-0.1-0.2
			c0-0.2,0-0.3-0.1-0.3v-0.1v-0.1c0,0,0,0,0-0.1c0,0,0,0,0-0.1c0,0,0-0.1-0.1-0.2c0-0.1,0-0.1,0-0.2c0-0.2-0.1-0.3-0.1-0.4V53v-0.1
			v-0.1L41,52.7c0,0,0,0,0-0.1s0-0.1,0-0.1s0,0,0-0.1c0,0,0,0,0-0.1s-0.1-0.1-0.1-0.2h-0.1c-0.1,0-0.1,0-0.1,0c-0.1,0-0.2,0-0.2,0.1
			l0,0l0,0c0,0,0,0-0.1,0c0,0,0,0-0.1,0c0,0-0.1,0-0.1,0.1c0,0,0,0-0.1-0.1c0,0-0.1,0-0.1,0.1l-0.1,0.1c0,0-0.1-0.1-0.2-0.1
			c-0.1,0-0.1,0.1-0.1,0.2c-0.1,0-0.2,0-0.2,0c0-0.1-0.1-0.1-0.2-0.1c0,0,0,0-0.1,0.1c0,0-0.1,0-0.2-0.1c-0.1,0-0.2,0-0.3,0.1
			c-0.1,0-0.2,0-0.2,0c-0.1,0-0.2-0.1-0.3-0.1s-0.2,0.1-0.3,0.1c-0.4,0-0.6,0-0.7,0c-0.1,0-0.2,0-0.3,0s-0.2,0-0.3,0
			c0,0.1,0,0.1,0,0.1s-0.1,0-0.2-0.1c0,0-0.1,0-0.1,0.1c0,0-0.1,0-0.2,0c-0.1,0-0.2,0-0.2,0s0,0-0.1-0.1c0,0,0,0-0.1,0
			s-0.1,0-0.1,0.1c-0.1,0-0.1-0.1-0.2-0.1c0,0,0,0-0.1,0.1l-0.1,0.1c0-0.1-0.1-0.1-0.1-0.1s-0.1,0-0.1,0.1c-0.1,0-0.1,0.1-0.1,0.1
			s0,0.1-0.1,0.2c0,0.1,0,0.1-0.1,0.2v0.1c0,0,0,0-0.1,0.1c0,0,0,0-0.1,0.1c0,0,0,0.1-0.1,0.2s-0.1,0.2-0.1,0.2l0,0l0,0V54
			c0,0,0,0.1-0.1,0.1c0,0.1,0,0.2-0.1,0.3c0,0,0,0.1,0,0.2c0,0.3,0,0.3,0,0.3s0,0,0,0.1v0.1c0,0,0,0-0.1,0.1c-0.1,0-0.1,0-0.1,0.1
			c0,0.2-0.1,0.3-0.2,0.4c0,0,0,0.1,0,0.3h-0.1c-0.1,0.2-0.1,0.3-0.1,0.4c0,0,0,0.1,0.1,0.2c0,0,0,0-0.1,0.1c0,0,0,0.1-0.1,0.2
			c0,0-0.1,0.1-0.1,0.2c0,0,0,0.1-0.1,0.1v0.1c0,0,0,0,0,0.1c0,0,0,0,0,0.1c-0.1-0.2-0.1,0-0.1,0l-0.1,0.1c0,0.1,0,0.1-0.1,0.2
			c0,0,0,0,0,0.1V58c0,0,0,0.1-0.1,0.1l0,0c0,0,0,0-0.1,0c0,0,0,0-0.1,0.1c0,0-0.1,0-0.1,0.1l-0.1,0.1c0,0,0,0-0.1-0.1
			c0,0,0-0.1-0.1-0.1H32h-0.1c0-0.1,0-0.2,0-0.2c-0.2,0-0.3,0-0.4,0c0-0.1,0-0.1-0.1-0.2h-0.1h-0.1c0,0,0,0,0-0.1v-0.1h-0.1v0.1
			c0,0,0-0.1-0.1-0.2c0,0.2,0,0.2,0,0.1c-0.1,0-0.1,0-0.1,0c0-0.1,0-0.1,0-0.2h-0.1c0-0.1,0-0.2,0-0.3l0,0l0,0
			c0.1-0.1,0.1-0.2,0.1-0.4c-0.1-0.1-0.1-0.2-0.1-0.2h0.1l0,0c0,0,0-0.1,0-0.2H31c0,0,0-0.1,0-0.2V56l0.1-0.1c0-0.1,0-0.2,0.1-0.2
			v-0.1l-0.1-0.1c0.1,0,0.2-0.1,0.2-0.2c0,0,0.1,0,0.1-0.1s0-0.1,0-0.2v-0.1v-0.1c0-0.1,0-0.1,0-0.1s0-0.1,0.1-0.1
			c0-0.1,0.1-0.1,0.1-0.2c0.1-0.1,0.1-0.2,0.1-0.2c0-0.1,0.1-0.2,0.1-0.2c0-0.1,0-0.2,0.1-0.4c0.1-0.1,0.1-0.3,0.1-0.4
			c0,0,0.1,0,0.1-0.1s0.1-0.1,0.1-0.1c0-0.1,0-0.1,0-0.2c0.1-0.1,0.1-0.2,0.1-0.3c0,0-0.1-0.1,0-0.1h0.1c0.1-0.1,0.1-0.2,0-0.3
			c-0.1,0-0.2,0-0.2,0c0-0.2-0.1-0.4-0.3-0.5c0,0,0,0,0-0.1c0,0,0.1,0,0.1-0.1c0,0,0-0.1-0.1-0.1s-0.1-0.1-0.1-0.1s0.1-0.1,0.2-0.3
			c0-0.1,0.1-0.2,0.2-0.2c0.1-0.1,0.2-0.1,0.2-0.1l0.4-0.1c0,0,0.1,0,0.3,0c0.1,0,0.2,0,0.2-0.1v-0.1c0-0.1,0-0.1,0-0.1s0,0,0.1-0.1
			V50v-0.1c0,0,0,0,0.1-0.1c0,0,0,0,0-0.1c0-0.2,0.1-0.3,0.2-0.3c0.1-0.2,0.1-0.3,0-0.4c0,0,0.1,0,0.1-0.1s0.1-0.1,0.1-0.2
			c0-0.1,0-0.2,0.1-0.3c0-0.1,0.1-0.2,0-0.3c0,0,0.1-0.1,0.1-0.2c0-0.1,0.1-0.1,0.1-0.2c0-0.1,0-0.2,0.1-0.3c0,0,0-0.1,0.1-0.2
			c0,0,0,0,0-0.1c0,0,0,0,0-0.1c0.1-0.1,0.1-0.1,0.1-0.1v-0.1v-0.1c0,0,0,0,0.1-0.1c0.1-0.2,0.1-0.3,0.1-0.3v-0.2c0,0,0,0,0.1-0.1
			c0,0,0,0,0-0.1v-0.1v-0.1c0.1-0.2,0.1-0.3,0.1-0.3s0,0,0.1-0.1c0,0,0,0,0.1-0.1v-0.1V45c0,0,0,0,0.1-0.1c0,0,0,0,0-0.1v-0.1v-0.1
			c0,0,0.1,0,0.1-0.1c0.1-0.2,0.1-0.3,0.1-0.3c0-0.1,0-0.2,0.1-0.3c0-0.1,0.1-0.2,0.1-0.3c0,0,0.1-0.1,0.1-0.3s0.1-0.3,0.1-0.3
			c0-0.1,0-0.1,0.1-0.2c0,0,0-0.1,0.1-0.1v-0.1v-0.1c0,0,0.1,0,0.1-0.1l0.1-0.1c0,0,0-0.1,0-0.2c0-0.1,0-0.1,0-0.2c0,0,0,0-0.1,0
			l0,0c0,0,0-0.1,0-0.2c0.1,0,0.1,0,0.2,0v-0.1v-0.1c0,0,0,0,0-0.1c0,0,0,0,0.1-0.1c0,0,0-0.1,0-0.2c0-0.1,0-0.1,0-0.1
			s0-0.1,0.1-0.2c0.1-0.1,0.1-0.2,0.1-0.3c0.1,0,0.1-0.1,0.1-0.2c0-0.1,0-0.2,0-0.2V40l0.1-0.1c0-0.1,0.1-0.1,0.1-0.1
			c0-0.1,0-0.1,0-0.2s0.1-0.1,0.1-0.2v-0.1v-0.1c0,0,0-0.1,0.1-0.1c0,0,0-0.1,0.1-0.2c0-0.1,0.1-0.1,0.1-0.1v-0.1c0-0.1,0-0.1,0-0.2
			c0.1-0.2,0.1-0.3,0.1-0.4h0.1c0-0.2,0-0.3,0.1-0.4c0-0.1,0-0.1,0.1-0.2c0,0,0,0,0-0.1c0,0,0,0,0-0.1c0,0,0,0-0.1,0
			c0-0.1,0-0.1,0-0.2h0.1V37c-0.1-0.1-0.1-0.2,0-0.2s0.1,0,0.1-0.1c0,0,0,0,0.1,0.1c0,0,0,0,0.1,0c0,0,0-0.1,0.1-0.2v-0.1
			c0,0,0,0,0.1,0l0,0c0.2-0.1,0.4-0.2,0.6-0.1c0.1,0.1,0.1,0.1,0.1,0.1s0.1,0,0.1-0.1C38.8,37.5,38.9,37.6,39,37.7z M32.6,52.4
			C32.6,52.4,32.6,52.5,32.6,52.4C32.6,52.5,32.6,52.5,32.6,52.4z M32.6,52.5L32.6,52.5C32.6,52.4,32.6,52.5,32.6,52.5z M38.6,42
			C38.6,42,38.6,42.1,38.6,42l-0.2,0.2v0.1c0,0.1,0,0.1,0,0.2c0,0.1-0.1,0.1-0.1,0.1s0,0,0,0.1c0,0,0,0,0,0.1c0,0,0,0-0.1,0.1
			c0,0-0.1,0-0.1,0.1v0.1c0,0.1,0,0.2-0.1,0.2v0.1c0,0-0.1,0.2-0.1,0.3l-0.1,0.1v0.1c0,0.1,0,0.1-0.1,0.2c0,0.1-0.1,0.1-0.1,0.1
			s0,0,0,0.1v0.1v0.1l-0.1,0.1v0.1c0,0.1,0,0.1,0,0.1l0.1,0.2v0.1c0,0,0,0,0,0.1l-0.1,0.2c0,0-0.1,0.1-0.1,0.2c0,0.1,0,0.2-0.1,0.2
			v0.1c-0.1,0.1-0.1,0.2-0.1,0.3c0,0,0,0.1-0.1,0.2c0,0.1-0.1,0.1-0.1,0.2l0,0.2c0,0,0,0,0,0.1c0,0,0,0,0,0.1c0,0,0,0,0,0.1
			c0,0,0,0,0,0.1c0,0,0,0,0,0.1v0.1v0.1c-0.1,0.2-0.1,0.3-0.1,0.4c0,0,0,0.1-0.1,0.2c-0.1,0.1-0.1,0.1-0.1,0.1v0.1v0.1v0.1
			c0,0.1,0,0.1,0,0.2c0,0,0,0-0.1,0.1l-0.1,0.1c0,0,0,0.1,0,0.2c0,0.1,0,0.1,0,0.2l-0.1,0.1c-0.1,0.1-0.1,0.2-0.1,0.3
			c0,0-0.1,0.1-0.1,0.2c0,0.1-0.1,0.2-0.1,0.2c0,0.2,0,0.4-0.1,0.4c0,0.1,0,0.1-0.1,0.2c0,0,0,0-0.1,0.1v0.1c0,0,0,0,0,0.1
			c0,0,0,0,0,0.1s0.1,0.1,0.3,0c0,0,0,0,0.1,0s0.1,0,0.1,0l0,0c0,0,0,0,0.1,0h0.1c0,0,0,0,0.1,0c0,0,0,0,0.1,0c0.3,0,0.5,0,0.6-0.1
			c0.1,0.1,0.3,0.1,0.4,0c0,0,0,0,0.1,0c0,0,0.1,0,0.1-0.1c0,0,0,0,0.1,0c0,0,0,0,0.1,0c0.2,0,0.3,0,0.4,0c0,0,0,0,0.1,0
			c0,0,0,0,0.1,0C38.8,51,38.9,51,39,51l0.1-0.1c0.1,0,0.2,0,0.3,0s0.3,0,0.3,0l0.1-0.1h0.1l0.1-0.1h0.1h0.1c0,0,0.1,0,0.1-0.1
			c0.1,0,0.1-0.1,0.1-0.1v-0.1v-0.1c0,0,0,0,0-0.1v-0.1c0,0,0,0,0-0.1c0,0,0,0,0-0.1c-0.1-0.2-0.1-0.4-0.1-0.6c0,0,0,0-0.1,0
			c0,0,0,0,0-0.1c0,0,0-0.1,0-0.2c0,0,0,0,0-0.1v-0.1c0,0,0,0,0-0.1v-0.1v-0.1c0,0,0-0.1-0.1-0.2c0-0.1,0-0.1,0-0.1v-0.1V48
			c0,0-0.1,0-0.1-0.1s-0.1-0.2-0.1-0.2s-0.1-0.1-0.1-0.2c0-0.1,0-0.2,0-0.2c0-0.1,0-0.2-0.1-0.3c0-0.1,0-0.2,0-0.2v-0.2v-0.1v-0.1
			c0,0,0,0,0-0.1c0,0,0,0,0-0.1v-0.1c0-0.1,0-0.1,0-0.2v-0.1c0-0.1,0-0.2,0-0.2s-0.1-0.1-0.1-0.3l-0.1-0.1v-0.1c0,0,0-0.1-0.1-0.1
			l-0.1-0.1v-0.1v-0.1c0-0.1,0-0.2,0-0.2s0-0.1-0.1-0.1l-0.1-0.1v-0.1v-0.1c0,0,0,0-0.1-0.1c0,0,0,0,0-0.1c0,0,0-0.1,0-0.2
			c0-0.1,0-0.1,0-0.2c0,0,0,0,0-0.1c0,0,0,0-0.1-0.1v-0.1c0,0,0-0.1,0-0.2c0-0.1,0-0.2,0-0.2c-0.1,0-0.1-0.2-0.1-0.5
			C38.7,42.5,38.7,42.3,38.6,42L38.6,42z M38.5,42.2L38.5,42.2L38.5,42.2c-0.1,0.1-0.1,0.1-0.1,0.2c0,0.1,0,0.1,0,0.2
			c0,0.1-0.1,0.1-0.1,0.1s0,0,0,0.1c0,0,0,0,0,0.1c0,0,0,0-0.1,0.1c0,0-0.1,0-0.1,0.1v0.1c0,0.1,0,0.2-0.1,0.2v0.1
			c0,0-0.1,0.2-0.1,0.3l-0.1,0.1V44c0,0.1,0,0.1-0.1,0.2c0,0.1-0.1,0.1-0.1,0.1s0,0,0,0.1v0.1v0.1l-0.1,0.1v0.1c0,0.1,0,0.1,0,0.1
			l0.1,0.1v0.1c0,0,0,0,0,0.1l-0.1,0.2c0,0-0.1,0.1-0.1,0.2c0,0.1,0,0.2-0.1,0.2v0.1c-0.1,0.1-0.1,0.2-0.1,0.3c0,0,0,0.1-0.1,0.2
			c0,0.1-0.1,0.1-0.1,0.2l0,0.2c0,0,0,0,0,0.1c0,0,0,0,0,0.1c0,0,0,0,0,0.1c0,0,0,0,0,0.1c0,0,0,0,0,0.1v0.1v0.1
			c-0.1,0.2-0.1,0.3-0.1,0.4c0,0,0,0.1-0.1,0.2c-0.1,0.1-0.1,0.1-0.1,0.1v0.1v0.1v0.1c0,0.1,0,0.1,0,0.2c0,0,0,0-0.1,0.1l-0.1,0.1
			c0,0,0,0.1,0,0.2c0,0.1,0,0.1,0,0.2l-0.1,0.1c-0.1,0.1-0.1,0.2-0.1,0.3c0,0-0.1,0.1-0.1,0.2c0,0.1-0.1,0.2-0.1,0.2
			c0,0.2,0,0.4-0.1,0.4c0,0.1,0,0.1-0.1,0.2c0,0,0,0-0.1,0.1v0.1c0,0,0,0,0,0.1c0,0,0,0,0,0.1s0.1,0.1,0.3,0c0,0,0.1,0,0.2,0l0,0
			c0,0,0,0,0.1,0h0.1c0,0,0,0,0.1,0c0,0,0,0,0.1,0c0.3,0,0.5,0,0.6-0.1c0.1,0.1,0.3,0.1,0.4,0c0,0,0,0,0.1,0c0,0,0.1,0,0.1-0.1
			c0,0,0,0,0.1,0c0,0,0,0,0.1,0c0.2,0,0.3,0,0.4,0c0,0,0,0,0.1,0c0,0,0,0,0.1,0C38.8,51,38.9,51,39,51l0.1-0.1c0.1,0,0.2,0,0.3,0
			s0.3,0,0.3,0l0.1-0.1h0.1l0.1-0.1h0.1h0.1c0,0,0.1,0,0.1-0.1c0.1,0,0.1-0.1,0.1-0.1v-0.1v-0.1c0,0,0,0,0-0.1v-0.1c0,0,0,0,0-0.1
			c0,0,0,0,0-0.1c-0.1-0.2-0.1-0.4-0.1-0.6c0,0,0,0-0.1,0c0,0,0,0,0-0.1c0,0,0-0.1,0-0.2c0,0,0,0,0-0.1v-0.1c0,0,0,0,0-0.1v-0.1
			v-0.1c0,0,0-0.1-0.1-0.2c0-0.1,0-0.1,0-0.1v-0.1V48c0,0-0.1,0-0.1-0.1s-0.1-0.2-0.1-0.2s-0.1-0.1-0.1-0.2c0-0.1,0-0.2,0-0.2
			c0-0.1,0-0.2-0.1-0.3c0-0.1,0-0.2,0-0.2v-0.2v-0.1v-0.1c0,0,0,0,0-0.1c0,0,0,0,0-0.1v-0.1c0-0.1,0-0.1,0-0.2v-0.1
			c0-0.1,0-0.2,0-0.2s-0.1-0.1-0.1-0.3l-0.1-0.1v-0.1c0,0,0-0.1-0.1-0.1l-0.1-0.1v-0.1v-0.1c0-0.1,0-0.2,0-0.2s0-0.1-0.1-0.1
			l-0.1-0.1v-0.1v-0.1c0,0,0,0-0.1-0.1c0,0,0,0,0-0.1c0,0,0-0.1,0-0.2c0-0.1,0-0.1,0-0.2c0,0,0,0,0-0.1c0,0,0,0-0.1-0.1v-0.1
			c0,0,0-0.1,0-0.2c0-0.1,0-0.2,0-0.2c-0.1,0-0.1-0.2-0.1-0.5c-0.1,0-0.1-0.2-0.1-0.4l0,0C38.6,42.1,38.6,42.1,38.5,42.2z
			 M39.7,52.5C39.8,52.5,39.8,52.6,39.7,52.5C39.8,52.6,39.7,52.6,39.7,52.5z M39.8,52.6C39.8,52.6,39.7,52.6,39.8,52.6
			C39.8,52.5,39.8,52.6,39.8,52.6z M40.1,38.9C40.1,38.9,40.2,38.9,40.1,38.9C40.2,38.9,40.2,39,40.1,38.9
			C40.2,39,40.1,39,40.1,38.9z M40.2,38.9L40.2,38.9C40.2,39,40.1,39,40.2,38.9C40.1,38.9,40.2,38.9,40.2,38.9z"/>
		<path class="st0" d="M46.6,42.5c0.2,0,0.3,0,0.3-0.1l0.1,0.1c0,0,0.1-0.1,0.2-0.1c0.1,0,0.2,0,0.2,0s0,0,0.1,0h0.1h0.1
			c0.1,0,0.1,0,0.1,0s0.1,0,0.2,0c0.1,0,0.2,0,0.3,0h0.1c0.1,0,0.1,0,0.1,0h0.1c0,0,0.1,0,0.1-0.1c0.3,0,0.5,0,0.5,0.1
			c0.1,0,0.2,0,0.3,0h0.1c0,0,0.1,0,0.2,0c0.1,0,0.1,0,0.2,0h0.1c0,0,0.1,0,0.2,0c0.1,0,0.1,0,0.2,0c0,0,0.1,0,0.1,0.1h0.1h0.1h0.1
			c0.1,0,0.1,0,0.1,0s0,0,0.1,0.1c0,0,0,0,0.1,0h0.1c0.1,0,0.2,0,0.3,0s0.2,0,0.3,0c0,0,0.1,0,0.2,0.1c0.1,0,0.1,0,0.2-0.1
			c0,0,0,0,0.1,0c0,0,0,0,0.1,0s0.2,0,0.5,0.1c0.2,0,0.4,0.1,0.6,0c0.1,0,0.1-0.1,0.2-0.1v0.1c0.1,0,0.1,0.1,0.1,0.1H54
			c0.1,0,0.1,0,0.1,0h0.1c0.1,0,0.1,0,0.2,0l0.1,0.1c0.1,0,0.1,0,0.2,0c0.1-0.1,0.2-0.1,0.3-0.1v0.1c0,0,0.2,0.1,0.4,0.1
			c0,0,0.1,0.1,0.2,0.1c0.1,0,0.2,0,0.2,0.1h0.1c0.4,0.2,0.6,0.4,0.7,0.5h0.1c0,0.1,0.1,0.1,0.1,0.2c0.1,0,0.1,0.1,0.2,0.1
			c0.1,0.1,0.1,0.1,0.2,0.2c0.1,0.1,0.1,0.1,0.2,0.1c0,0,0,0.1,0.1,0.2c0,0.1,0.1,0.1,0.1,0.1c0.1,0.1,0.1,0.1,0.2,0.2v0.1
			c0,0,0,0,0.1,0.1c0,0,0,0.1,0.1,0.1c0,0.2,0,0.2,0,0.3c0,0,0,0,0,0.1c0,0,0,0,0.1,0.1c0,0,0,0.1,0,0.2c0,0.1,0,0.1,0.1,0.2l0,0
			h0.1c0,0,0,0,0,0.1c0,0,0,0-0.1,0c0,0,0,0.1,0,0.2c0,0.1,0,0.1,0,0.2v0.1c0,0,0,0.1,0,0.3s0,0.2,0,0.3s-0.1,0.1-0.1,0.1
			c0,0.1,0,0.1,0,0.2c-0.1,0-0.1,0.1-0.1,0.1s0,0.1-0.1,0.2v0.1c-0.1,0-0.1,0.1-0.1,0.3c0,0-0.1,0.1-0.1,0.2
			c-0.1,0.1-0.1,0.2-0.2,0.2v0.1c0,0,0,0.1-0.1,0.1l-0.1,0.1c-0.2,0.1-0.3,0.3-0.4,0.5l0,0c0,0,0,0-0.1,0c0,0-0.1,0.1-0.1,0.2
			c-0.2,0.2-0.4,0.3-0.4,0.4c-0.1,0-0.2,0.1-0.2,0.2c-0.3,0.2-0.5,0.3-0.6,0.5c-0.1,0-0.1,0.1-0.2,0.1l-0.1,0.1
			C55.1,51,55.1,51,55.1,51c-0.1,0.1-0.2,0.1-0.2,0.1s0,0.1,0.1,0.1l0.1,0.1c0,0,0.1,0,0.1,0.1c0.1,0,0.1,0,0.1,0.1c0,0,0,0,0,0.1
			c0,0,0,0,0.1,0s0.1,0,0.1,0s0,0,0.1,0.1c0.1,0,0.1,0.1,0.1,0.1s0,0,0.1,0c0,0,0,0,0,0.1h0.1C56,52,56.1,52,56.1,52
			s0.1,0.1,0.2,0.2c0.1,0.1,0.2,0.1,0.2,0.2h0.1c0,0,0,0,0.1,0.1c0,0,0,0.1,0.1,0.1h0.1c0,0,0,0.1,0.1,0.1c0.1,0.1,0.1,0.1,0.2,0.1
			c0,0.1,0.1,0.1,0.3,0.1c0.1,0.2,0.2,0.2,0.3,0.2c0,0,0.1,0.1,0.1,0.2c0.2,0.1,0.4,0.2,0.5,0.4h0.1c0.2,0.1,0.3,0.2,0.4,0.2
			c0,0,0.1,0.1,0.2,0.1c0.1,0,0.2,0.1,0.2,0.2c0,0,0.1,0,0.2,0.1c0.1,0,0.1,0.1,0.2,0.1c0.1,0.1,0.2,0.2,0.4,0.3s0.3,0.2,0.4,0.3H60
			c0.1,0.1,0.2,0.2,0.2,0.2s0,0,0.1,0c0,0,0,0,0.1,0c0,0.1,0.1,0.2,0.3,0.3c0.1,0,0.2,0,0.2,0c0.1,0,0.2,0,0.2,0
			c0.1,0,0.2,0.1,0.2,0.1l0.1-0.1c0,0,0,0,0.1,0.1c0.1,0,0.2,0,0.3,0.1s0.1,0.1,0.1,0.2c0,0,0,0,0,0.1H62c0,0,0.1,0.1,0.1,0.2
			c0,0.1,0.1,0.1,0.1,0.2v0.1v0.1v0.1l0.1,0.1c0.1,0.1,0.1,0.1,0.1,0.1s0,0.1,0,0.2c0,0.2,0.1,0.3,0,0.3c0,0,0,0.1,0.1,0.1
			c0,0.1,0,0.2,0,0.3s0,0.2,0,0.3h-0.3l-0.1,0.1L62,58.3c0,0,0,0,0,0.1c0,0-0.1,0-0.1,0.1l0.1,0.1c0,0-0.1,0-0.1,0.1
			c-0.1,0-0.1,0-0.1,0.1c0,0,0,0,0,0.1c0,0,0,0,0,0.1h-0.1l-0.1-0.1c0,0-0.1,0-0.1,0.1c-0.1,0.1-0.1,0.1-0.2,0.1
			c-0.1-0.2-0.2-0.2-0.2-0.2s0,0-0.1,0h-0.1c0-0.1,0-0.1-0.1-0.2c0,0,0,0-0.1,0l0,0c0,0,0,0,0-0.1c0,0-0.1-0.1-0.2-0.2
			c0,0,0,0-0.1,0h-0.1c-0.1-0.2-0.2-0.3-0.3-0.3h-0.1L59.8,58c-0.1-0.1-0.2-0.2-0.3-0.2l-0.1-0.1c-0.1,0-0.1-0.1-0.1-0.1l-0.1,0.1
			c0,0,0,0-0.1-0.1v-0.1c0,0-0.1,0-0.1-0.1c-0.1,0-0.1-0.1-0.1-0.1c0-0.1-0.1-0.1-0.2-0.1v-0.1c-0.1-0.1-0.2-0.2-0.2-0.3
			c0,0-0.2-0.1-0.5-0.3l0,0c0,0,0,0-0.1,0c0,0-0.1-0.1-0.2-0.2c-0.1,0-0.2-0.1-0.3-0.2c0,0,0,0-0.1,0c0,0,0,0-0.1,0c0,0,0,0,0-0.1
			v-0.1c0,0,0,0-0.1,0c0,0,0,0-0.1,0c0,0-0.1,0-0.2-0.1l-0.1-0.1c0,0,0,0-0.1-0.1c0,0-0.1,0-0.1-0.1c-0.1,0-0.2-0.1-0.3-0.2
			c-0.1-0.1-0.2-0.1-0.3-0.2h-0.1c0-0.1-0.1-0.1-0.2-0.2c0,0-0.1-0.1-0.3-0.2c0,0,0,0-0.1,0c0,0,0,0,0-0.1c0,0,0,0-0.1,0
			c0,0,0,0-0.1,0c0,0,0,0-0.1-0.1h-0.1c-0.1,0-0.1,0-0.2,0c0,0-0.1,0-0.1-0.1s-0.1-0.1-0.1-0.1c-0.1,0-0.1,0.1-0.1,0c0,0,0,0,0-0.1
			v-0.1c0,0,0,0-0.1,0c0,0,0,0-0.1,0c0,0,0-0.1-0.1-0.1v-0.1h-0.1l0.1-0.5c0,0-0.1,0-0.2-0.1c-0.1,0-0.1-0.1-0.2,0
			c0,0-0.1-0.1-0.2-0.1s-0.1-0.1-0.2-0.1c-0.1,0-0.1,0-0.2-0.1c-0.1,0-0.2,0-0.3-0.1c0,0-0.1,0-0.2,0.1l0,0c0,0,0,0,0-0.1
			c0,0-0.1,0-0.2,0c0,0,0,0,0-0.1c0,0,0,0,0-0.1c-0.2-0.1-0.4-0.2-0.5-0.1c-0.1-0.1-0.2-0.2-0.3-0.2c0,0-0.1,0-0.2-0.1
			c0,0-0.1,0-0.1-0.1c0,0-0.1,0.1-0.1,0.2c0,0.1,0,0.2,0,0.3c0,0,0,0,0,0.1c0,0,0,0,0,0.1c0,0,0,0,0,0.1v0.1c0,0.3,0,0.5,0.1,0.5
			v0.3V54c0,0,0,0.1,0.1,0.1c0,0,0,0.1,0,0.2c0,0.1,0,0.1,0,0.1s0,0.1,0.1,0.1c0,0,0,0.1,0.1,0.1c0,0,0,0.1,0,0.2c0,0.1,0,0.2,0,0.2
			s0,0,0.1,0.1c0,0,0,0,0,0.1c0,0.2,0,0.3,0,0.3c0,0.1,0,0.2,0.1,0.3c0,0,0,0.1,0,0.2c0,0.1,0,0.2,0,0.3c0,0,0,0,0.1,0
			c0,0,0.1,0,0.1,0.1c0,0,0,0.1-0.1,0.2c0,0,0,0,0,0.1c0,0,0,0.1,0,0.3c0,0.1,0,0.2,0,0.4s0,0.3,0,0.4c0,0,0,0,0,0.1l0,0
			c0,0,0,0-0.1,0.1c0,0-0.1,0.1-0.1,0.2c0,0.1-0.1,0.1-0.1,0.1s-0.1,0-0.2,0c-0.2,0-0.3,0.1-0.3,0.3l0,0c0,0,0,0-0.1,0
			c0,0,0,0,0,0.1c0,0,0,0-0.1,0c0,0,0,0,0-0.1c0,0-0.1,0-0.2,0c-0.1,0-0.1,0.1-0.2,0.1c0-0.1,0-0.1-0.1-0.2c-0.1,0-0.3-0.1-0.4-0.3
			h-0.1h-0.1c0-0.1,0-0.2-0.1-0.3s-0.2-0.1-0.2-0.2l0,0c0,0,0,0-0.1,0c0-0.1,0-0.1,0.1-0.2v-0.1v-0.1v-0.1c0,0,0,0-0.1-0.1
			c0,0,0,0-0.1,0c0,0,0-0.1,0.1-0.1c0.1-0.2,0.1-0.3,0-0.3v-0.3c0,0,0.1-0.1,0.1-0.3c0-0.1,0-0.2-0.1-0.2c0-0.1,0-0.2,0-0.3
			s0-0.2,0-0.3c0,0,0-0.1-0.1-0.1c0,0,0-0.1,0-0.3c0-0.1,0-0.2-0.1-0.3c0,0,0-0.1,0-0.2c0-0.1,0-0.1,0-0.2v-0.1L49,54
			c0,0,0-0.1,0-0.2c0-0.1,0-0.2,0-0.3c0,0,0-0.1-0.1-0.2c0-0.1,0-0.1-0.1-0.1c0,0,0-0.1,0-0.3c0-0.1,0-0.2,0-0.2
			c0-0.1,0-0.1-0.1-0.2c0,0,0-0.1,0-0.4c0,0,0,0,0-0.1c0,0,0,0,0-0.1v-0.1c0-0.1,0-0.1,0-0.1s0,0-0.1-0.1l0,0c0-0.1,0-0.2,0-0.3
			s0-0.2,0-0.2s0-0.1-0.1-0.1c0,0,0-0.1,0-0.2c0-0.1,0-0.2,0-0.2v-0.1v-0.1v-0.1v-0.1v-0.1c0,0,0,0,0-0.1c0,0,0,0,0-0.1
			s-0.1-0.1-0.2-0.1v-0.1l0,0c0,0,0,0,0.1,0v-0.1c0,0,0-0.1,0-0.3s0-0.3,0-0.3l-0.1-0.1v-0.1v-0.1c0,0,0,0,0-0.1c0,0,0,0,0-0.1
			s-0.1-0.2-0.1-0.2v-0.1c0,0,0-0.1,0-0.3c0,0,0-0.1-0.1-0.2c0-0.1,0-0.2,0-0.2s0,0,0-0.1c0,0,0,0,0-0.1v-0.1v-0.1V47
			c0-0.1,0-0.2,0-0.2c0-0.1-0.1-0.2-0.1-0.3s0-0.2-0.1-0.3l0,0c0,0,0,0-0.1,0c0,0,0,0,0-0.1l0,0c0,0,0-0.1,0-0.2c0-0.1,0-0.2,0-0.2
			v-0.1c0-0.1,0-0.2,0-0.2s0,0-0.1,0l0,0c0,0,0,0,0-0.1c0,0,0,0,0-0.1c0,0,0-0.1,0-0.2c0-0.1,0-0.2,0-0.2s0,0,0-0.1c0,0,0,0,0-0.1
			c0,0,0-0.1-0.1-0.1c0-0.1,0-0.1,0-0.1c-0.1,0-0.2,0-0.3-0.1c-0.1,0-0.2,0-0.2,0l-0.2-0.1c0-0.1-0.1-0.1-0.2-0.1
			c0,0-0.1-0.1-0.1-0.2c0-0.1-0.1-0.1-0.1-0.2c-0.1-0.1-0.2-0.1-0.2-0.2c0-0.1-0.1-0.2-0.1-0.3s0-0.2,0-0.3s0-0.2,0-0.3
			c0,0,0-0.1,0.1-0.2c0.1-0.1,0.1-0.2,0.1-0.3s0.1-0.1,0.1-0.1s0,0,0-0.1l0,0C46.5,42.5,46.5,42.5,46.6,42.5z M46.9,42.4L46.9,42.4
			c0.1,0.1,0.2,0,0.3,0c0.1,0,0.2,0,0.2,0s0,0,0.1,0h0.1h0.1c0.1,0,0.1,0,0.1,0s0.1,0,0.2,0c0.1,0,0.2,0,0.3,0h0.1
			c0.1,0,0.1,0,0.1,0h0.1c0,0,0.1,0,0.1-0.1c0.3,0,0.5,0,0.5,0.1c0,0,0.1,0,0.2,0h0.1c0,0,0.1,0,0.2,0c0.1,0,0.1,0,0.2,0H50
			c0,0,0.1,0,0.2,0c0.1,0,0.1,0,0.2,0h0.1h0.1h0.1h0.1c0.1,0,0.1,0,0.1,0s0,0,0.1,0.1c0,0,0,0,0.1,0h0.1c0.1,0,0.2,0,0.3,0
			s0.2,0,0.3,0c0,0,0.1,0,0.2,0.1c0.1,0,0.1,0,0.2-0.1c0,0,0,0,0.1,0c0,0,0,0,0.1,0s0.2,0,0.5,0.1c0.2,0,0.4,0.1,0.6,0
			c0.1,0,0.1-0.1,0.2-0.1v0.1c0.1,0,0.1,0.1,0.1,0.1h0.1c0.1,0,0.1,0,0.1,0h0.1c0.1,0,0.1,0,0.2,0l0.1,0.1c0.1,0,0.2,0,0.2,0
			c0.1-0.1,0.2-0.1,0.3-0.1v0.1c0,0,0.2,0.1,0.4,0.1c0,0,0.1,0.1,0.2,0.1c0.1,0,0.2,0,0.2,0.1h0.1c0.4,0.2,0.6,0.4,0.7,0.5h0.1
			c0,0.1,0.1,0.1,0.1,0.2c0.1,0,0.1,0.1,0.2,0.1C57,44,57,44,57.1,44.1c0.1,0.1,0.1,0.1,0.2,0.1c0,0,0,0.1,0.1,0.2
			c0,0.1,0.1,0.1,0.1,0.1c0.1,0.1,0.1,0.1,0.2,0.2v0.1c0,0,0,0,0.1,0.1c0,0,0,0.1,0.1,0.1c0,0.2,0,0.2,0,0.3c0,0,0,0,0,0.1
			c0,0,0,0,0.1,0.1c0,0,0,0.1,0,0.2c0,0.1,0,0.1,0.1,0.2l0,0h0.1c0,0,0,0,0,0.1c0,0,0,0-0.1,0c0,0,0,0.1,0,0.2c0,0.1,0,0.1,0,0.2
			v0.1c0,0,0,0.1,0,0.3s0,0.2,0,0.3S58,47.2,58,47.2c0,0.1,0,0.1,0,0.2c-0.1,0-0.1,0.1-0.1,0.1s0,0.1-0.1,0.2v0.1
			c-0.1,0-0.1,0.1-0.1,0.3c0,0-0.1,0.1-0.1,0.2c-0.1,0.1-0.1,0.2-0.2,0.2v0.1c0,0,0,0.1-0.1,0.1l-0.1,0.1c-0.2,0.1-0.3,0.3-0.4,0.5
			l0,0c0,0,0,0-0.1,0c0,0-0.1,0.1-0.1,0.2c-0.2,0.2-0.4,0.3-0.4,0.4c-0.1,0-0.2,0.1-0.2,0.2c-0.3,0.2-0.5,0.3-0.6,0.5
			c-0.1,0-0.1,0.1-0.2,0.1l-0.1,0.1C55,50.9,55,50.9,55,50.9C54.9,51,54.8,51,54.8,51s0,0.1,0.1,0.1l0.1,0.1c0,0,0.1,0,0.1,0.1
			c0.1,0,0.1,0,0.1,0.1c0,0,0,0,0,0.1c0,0,0,0,0.1,0s0.1,0,0.1,0s0,0,0.1,0.1c0.1,0,0.1,0.1,0.1,0.1s0,0,0.1,0c0,0,0,0,0,0.1h0.1
			c0.1,0.1,0.2,0.1,0.2,0.1s0.1,0.1,0.2,0.2c0.1,0.1,0.2,0.1,0.2,0.2h0.1c0,0,0,0,0.1,0.1c0,0,0,0.1,0.1,0.1h0.1c0,0,0,0.1,0.1,0.1
			c0.1,0.1,0.1,0.1,0.2,0.1c0,0.1,0.1,0.1,0.3,0.1c0.1,0.2,0.2,0.2,0.3,0.2c0,0,0.1,0.1,0.1,0.2c0.2,0.1,0.4,0.2,0.5,0.4h0.1
			c0.2,0.1,0.3,0.2,0.4,0.2c0,0,0.1,0.1,0.2,0.1c0.1,0,0.2,0.1,0.2,0.2c0,0,0.1,0,0.2,0.1c0.1,0,0.1,0.1,0.2,0.1
			c0.1,0.1,0.2,0.2,0.4,0.3s0.3,0.2,0.4,0.3H60c0,0,0.1,0,0.1,0.1c0.1,0.1,0.1,0.1,0.1,0.1s0,0,0.1,0c0,0,0,0,0.1,0
			c0,0.1,0.1,0.2,0.3,0.3c0.1,0,0.2,0,0.2,0c0.1,0,0.2,0,0.2,0c0.1,0,0.2,0.1,0.2,0.1l0.1-0.1c0,0,0,0,0.1,0.1c0.1,0,0.2,0,0.3,0.1
			s0.1,0.1,0.1,0.2c0,0,0,0,0,0.1H62c0,0,0.1,0.1,0.1,0.2c0,0.1,0.1,0.1,0.1,0.2v0.1v0.1v0.1l0.1,0.1c0.1,0.1,0.1,0.1,0.1,0.1
			s0,0.1,0,0.2c0,0.2,0.1,0.3,0,0.3c0,0,0,0.1,0.1,0.1c0,0.1,0,0.2,0,0.3s0,0.2,0,0.3h-0.3l-0.1,0.1L62,58.2c0,0,0,0,0,0.1
			c0,0-0.1,0-0.1,0.1l0.1,0.1c0,0-0.1,0-0.1,0.1c-0.1,0-0.1,0-0.1,0.1c0,0,0,0,0,0.1c0,0,0,0,0,0.1h-0.1l-0.1-0.1c0,0-0.1,0-0.1,0.1
			C61.4,59,61.4,59,61.3,59c-0.1-0.2-0.2-0.2-0.2-0.2s0,0-0.1,0h-0.1c0-0.1,0-0.1-0.1-0.2c0,0,0,0-0.1,0l0,0c0,0,0,0,0-0.1
			c0,0-0.1-0.1-0.2-0.2c0,0,0,0-0.1,0h-0.1C60.2,58.1,60.1,58,60,58h-0.1l-0.1-0.1c-0.1-0.1-0.2-0.2-0.3-0.2l-0.1-0.1
			c-0.1,0-0.1-0.1-0.1-0.1l-0.1,0.1c0,0,0,0-0.1-0.1v-0.1c0,0-0.1,0-0.1-0.1c-0.1,0-0.1-0.1-0.1-0.1c0-0.1-0.1-0.1-0.2-0.1V57
			c-0.1-0.1-0.2-0.2-0.2-0.3c0,0-0.2-0.1-0.5-0.3l0,0c0,0,0,0-0.1,0c0,0-0.1-0.1-0.2-0.2c-0.1,0-0.2-0.1-0.3-0.2c0,0,0,0-0.1,0
			c0,0,0,0-0.1,0c0,0,0,0,0-0.1v-0.1c0,0,0,0-0.1,0c0,0,0,0-0.1,0c0,0-0.1,0-0.2-0.1l-0.1-0.1c0,0,0,0-0.1-0.1c0,0-0.1,0-0.1-0.1
			c-0.1,0-0.2-0.1-0.3-0.2c-0.1-0.1-0.2-0.1-0.3-0.2h-0.1c0-0.1-0.1-0.1-0.2-0.2c0,0-0.1-0.1-0.3-0.2c0,0,0,0-0.1,0c0,0,0,0,0-0.1
			c0,0,0,0-0.1,0c0,0,0,0-0.1,0c0,0,0,0-0.1-0.1h-0.1c-0.1,0-0.1,0-0.2,0c0,0-0.1,0-0.1-0.1s-0.1-0.1-0.1-0.1c-0.1,0-0.1,0.1-0.1,0
			c0,0,0,0,0-0.1V54c0,0,0,0-0.1,0c0,0,0,0-0.1,0c0,0,0-0.1-0.1-0.1v-0.1h-0.1l0.1-0.4c0,0-0.1,0-0.2-0.1c-0.1,0-0.1-0.1-0.2,0
			c0,0-0.1-0.1-0.2-0.1s-0.1-0.1-0.2-0.1c-0.1,0-0.1,0-0.2-0.1c-0.1,0-0.2,0-0.3-0.1c0,0-0.1,0-0.2,0.1l0,0c0,0,0,0,0-0.1
			c0,0-0.1,0-0.2,0c0,0,0,0,0-0.1c0,0,0,0,0-0.1c-0.2-0.1-0.4-0.2-0.5-0.1c-0.1-0.1-0.2-0.2-0.3-0.2c0,0-0.1,0-0.2-0.1
			c0,0-0.1,0-0.1-0.1c0,0-0.1,0.1-0.1,0.2c0,0.1,0,0.2,0,0.3c0,0,0,0,0,0.1c0,0,0,0,0,0.1c0,0,0,0,0,0.1v0.1c0,0.3,0,0.5,0.1,0.5
			v0.3V54c0,0,0,0.1,0.1,0.1c0,0,0,0.1,0,0.2c0,0.1,0,0.1,0,0.1s0,0.1,0.1,0.1c0,0,0,0.1,0.1,0.1c0,0,0,0.1,0,0.2c0,0.1,0,0.2,0,0.2
			s0,0,0.1,0.1c0,0,0,0,0,0.1c0,0.2,0,0.3,0,0.3c0,0.1,0,0.2,0.1,0.3c0,0,0,0.1,0,0.2c0,0.1,0,0.2,0,0.3c0,0,0,0,0.1,0
			c0,0,0.1,0,0.1,0.1c0,0,0,0.1-0.1,0.2c0,0,0,0,0,0.1c0,0,0,0.1,0,0.3c0,0.1,0,0.2,0,0.4s0,0.3,0,0.4c0,0,0,0,0,0.1l0,0
			c0,0,0,0-0.1,0.1c0,0-0.1,0.1-0.1,0.2c0,0.1-0.1,0.1-0.1,0.1s-0.1,0-0.2,0c-0.2,0-0.3,0.1-0.3,0.3l0,0c0,0,0,0-0.1,0
			c0,0,0,0,0,0.1c0,0,0,0-0.1,0c0,0,0,0,0-0.1c0,0-0.1,0-0.2,0c-0.1,0-0.1,0.1-0.2,0.1c0-0.1,0-0.1-0.1-0.2c-0.1,0-0.3-0.1-0.4-0.3
			h-0.1h-0.1c0-0.1,0-0.2-0.1-0.3s-0.2-0.1-0.2-0.2l0,0c0,0,0,0-0.1,0c0-0.1,0-0.1,0.1-0.2v-0.1v-0.1v-0.1c0,0,0,0-0.1-0.1
			c0,0,0,0-0.1,0c0,0,0-0.1,0.1-0.1c0.1-0.2,0.1-0.3,0-0.3v-0.3c0,0,0.1-0.1,0.1-0.3c0-0.1,0-0.2-0.1-0.2c0-0.1,0-0.2,0-0.3
			s0-0.2,0-0.3c0,0,0-0.1-0.1-0.1c0,0,0-0.1,0-0.3c0-0.1,0-0.2-0.1-0.3c0,0,0-0.1,0-0.2c0-0.1,0-0.1,0-0.2v-0.1L49,54
			c0,0,0-0.1,0-0.2c0-0.1,0-0.2,0-0.3c0,0,0-0.1-0.1-0.2c0-0.1,0-0.1-0.1-0.1c0,0,0-0.1,0-0.3c0-0.1,0-0.2,0-0.2
			c0-0.1,0-0.1-0.1-0.2c0,0,0-0.1,0-0.4c0,0,0,0,0-0.1c0,0,0,0,0-0.1v-0.1c0-0.1,0-0.1,0-0.1s0,0-0.1-0.1l0,0c0-0.1,0-0.2,0-0.3
			s0-0.2,0-0.2s0-0.1-0.1-0.1c0,0,0-0.1,0-0.2c0-0.1,0-0.2,0-0.2v-0.1v-0.1v-0.1v-0.1v-0.1c0,0,0,0,0-0.1c0,0,0,0,0-0.1
			s-0.1-0.1-0.2-0.1v-0.1l0,0c0,0,0,0,0.1,0v-0.1c0,0,0-0.1,0-0.3s0-0.3,0-0.3l-0.1-0.1v-0.1v-0.1c0,0,0,0,0-0.1c0,0,0,0,0-0.1
			s-0.1-0.2-0.1-0.2v-0.1c0,0,0-0.1,0-0.3c0,0,0-0.1-0.1-0.2c0-0.1,0-0.2,0-0.2s0,0,0-0.1c0,0,0,0,0-0.1v-0.1v-0.1V47
			c0-0.1,0-0.2,0-0.2c0-0.1-0.1-0.2-0.1-0.3s0-0.2-0.1-0.3l0,0c0,0,0,0-0.1,0c0,0,0,0,0-0.1l0,0c0,0,0-0.1,0-0.2c0-0.1,0-0.2,0-0.2
			v-0.1c0-0.1,0-0.2,0-0.2s0,0-0.1,0l0,0c0,0,0,0,0-0.1c0,0,0,0,0-0.1c0,0,0-0.1,0-0.2c0-0.1,0-0.2,0-0.2s0,0,0-0.1c0,0,0,0,0-0.1
			c0,0,0-0.1-0.1-0.1c0-0.1,0-0.1,0-0.1c-0.1,0-0.2,0-0.3-0.1c-0.1,0-0.2,0-0.2,0l-0.2-0.1c0-0.1-0.1-0.1-0.2-0.1
			c0,0-0.1-0.1-0.1-0.2c0-0.1-0.1-0.1-0.1-0.2c-0.1-0.1-0.2-0.1-0.2-0.2c0-0.1-0.1-0.2-0.1-0.3s0-0.2,0-0.3s0-0.2,0-0.3
			c0,0,0-0.1,0.1-0.2c0.1-0.1,0.1-0.2,0.1-0.3s0.1-0.1,0.1-0.1s0,0,0-0.1l0,0c0,0,0.1,0,0.2,0C46.8,42.5,46.9,42.5,46.9,42.4z
			 M50.9,45c0,0-0.1,0-0.2-0.1c-0.1,0-0.2,0-0.3,0s-0.2,0-0.3,0c0,0,0,0.1,0,0.3v0.1v0.1c0,0,0,0.1,0.1,0.2c0,0.1,0.1,0.1,0.1,0.1
			s0,0,0,0.1c0,0,0,0,0,0.1c0,0,0,0.1,0,0.2c0,0.1,0,0.2,0,0.3c0.1,0,0.1,0.1,0.1,0.3c0,0.1,0,0.1,0,0.2V47c0,0.1,0.1,0.1,0.1,0.1
			s0,0.1,0,0.2c0,0.1,0,0.1,0,0.2c0,0.1,0,0.2,0,0.2s0,0,0,0.1c0,0,0,0,0,0.1c0,0,0,0.1,0,0.2v0.1v0.1v0.1v0.1c0,0,0,0.1,0,0.2
			c0,0.1,0,0.2,0,0.2s0,0,0,0.1c0,0,0,0,0.1,0c0,0,0,0.1,0,0.3c0,0.1,0,0.2,0.1,0.3c-0.1,0.1-0.1,0.2,0,0.3c0,0.1,0,0.1,0.1,0.2
			c0,0,0.1,0,0.2,0c0.1,0,0.2,0,0.2,0s0,0,0-0.1c0,0,0,0,0.1,0h0.1h0.1h0.1c0.2,0,0.3-0.1,0.3-0.1H52c0,0,0.1-0.1,0.3-0.1
			c0.1,0,0.1,0,0.2,0c0.1,0,0.1-0.1,0.2-0.1l0.1-0.1c0,0,0,0,0.1,0s0.1-0.1,0.2-0.1c0.1-0.1,0.1-0.1,0.1-0.1c0.1,0,0.2-0.1,0.3-0.2
			c0.1-0.1,0.2-0.2,0.3-0.2c0.2-0.2,0.3-0.3,0.4-0.3c0-0.1,0.1-0.1,0.1-0.2c0.1-0.1,0.1-0.1,0.1-0.2c0.1,0,0.2-0.2,0.3-0.4
			s0.1-0.3,0.2-0.4c0-0.1,0-0.1,0.1-0.2c0.1-0.1,0.1-0.2,0.1-0.2c0.2-0.2,0.2-0.3,0.1-0.5c0,0,0-0.1,0-0.3c0,0-0.1-0.1-0.2-0.2
			c0-0.4,0-0.4,0-0.5c0,0-0.1,0-0.1-0.1c-0.1,0-0.1,0-0.2,0c0-0.1-0.1-0.1-0.2-0.1c-0.1,0-0.1,0-0.1,0s-0.1,0-0.1-0.1l-0.1-0.1h-0.1
			H54c0,0-0.1,0-0.1-0.1c0,0-0.1-0.1-0.2,0c-0.1,0-0.2,0-0.2,0c-0.2-0.1-0.3-0.1-0.3,0c0-0.1-0.2-0.1-0.4-0.1c-0.1,0-0.2,0-0.2,0
			c-0.1,0-0.2,0-0.2,0s0,0-0.1,0c0,0,0,0-0.1-0.1c-0.2,0-0.3,0-0.3,0h-0.1c0,0-0.2,0-0.4,0c0,0-0.1,0-0.1-0.1l-0.1-0.1
			C51.1,44.9,51,44.9,50.9,45z M50.1,44.9c0,0,0,0.1,0,0.3v0.1v0.1c0,0,0,0.1,0.1,0.2c0,0.1,0.1,0.1,0.1,0.1s0,0,0,0.1
			c0,0,0,0,0,0.1c0,0,0,0.1,0,0.2c0,0.1,0,0.2,0,0.3c0.1,0,0.1,0.1,0.1,0.3c0,0.1,0,0.1,0,0.2V47c0,0.1,0.1,0.1,0.1,0.1s0,0.1,0,0.2
			c0,0.1,0,0.1,0,0.2c0,0.1,0,0.2,0,0.2s0,0,0,0.1c0,0,0,0,0,0.1c0,0,0,0.1,0,0.2v0.1v0.1v0.1v0.1c0,0,0,0.1,0,0.2
			c0,0.1,0,0.2,0,0.2s0,0,0,0.1c0,0,0,0,0.1,0c0,0,0,0.1,0,0.3c0,0.1,0,0.2,0.1,0.3c-0.1,0.1-0.1,0.2,0,0.3c0,0.1,0,0.1,0.1,0.2
			c0,0,0.1,0,0.2,0c0.1,0,0.2,0,0.2,0s0,0,0-0.1c0,0,0,0,0.1,0h0.1h0.1h0.1c0.2,0,0.3-0.1,0.3-0.1H52c0,0,0.1-0.1,0.3-0.1
			c0.1,0,0.1,0,0.2,0c0.1,0,0.1-0.1,0.2-0.1l0.1-0.1c0,0,0,0,0.1,0s0.1-0.1,0.2-0.1c0.1-0.1,0.1-0.1,0.1-0.1c0.1,0,0.2-0.1,0.3-0.2
			c0.1-0.1,0.2-0.2,0.3-0.2c0.2-0.2,0.3-0.3,0.4-0.3c0-0.1,0.1-0.1,0.1-0.2c0.1-0.1,0.1-0.1,0.1-0.2c0.1,0,0.2-0.2,0.3-0.4
			s0.1-0.3,0.2-0.4c0-0.1,0-0.1,0.1-0.2c0.1-0.1,0.1-0.2,0.1-0.2c0.2-0.2,0.2-0.3,0.1-0.5c0,0,0-0.1,0-0.3c0,0-0.1-0.1-0.2-0.2
			c0-0.4,0-0.4,0-0.5c0,0-0.1,0-0.1-0.1c-0.1,0-0.1,0-0.2,0c0-0.1-0.1-0.1-0.2-0.1c-0.1,0-0.1,0-0.1,0s-0.1,0-0.1-0.1l-0.1-0.1h-0.1
			H54c0,0-0.1,0-0.1-0.1c0,0-0.1-0.1-0.2,0c-0.1,0-0.2,0-0.2,0c-0.2-0.1-0.3-0.1-0.3,0c0-0.1-0.2-0.1-0.4-0.1c-0.1,0-0.2,0-0.2,0
			c-0.1,0-0.2,0-0.2,0s0,0-0.1,0c0,0,0,0-0.1-0.1c-0.2,0-0.3,0-0.3,0h-0.1c0,0-0.2,0-0.4,0c0,0-0.1,0-0.1-0.1l-0.1-0.1
			c-0.1,0-0.2,0-0.4,0c0,0-0.1,0-0.2-0.1c-0.1,0-0.2,0-0.3,0C50.3,44.9,50.2,44.9,50.1,44.9z M62.2,57.5
			C62.3,57.5,62.3,57.5,62.2,57.5C62.3,57.5,62.3,57.6,62.2,57.5C62.3,57.6,62.2,57.6,62.2,57.5L62.2,57.5z M62.3,57.6
			C62.3,57.6,62.2,57.6,62.3,57.6C62.2,57.5,62.2,57.5,62.3,57.6C62.3,57.5,62.3,57.5,62.3,57.6C62.3,57.5,62.3,57.6,62.3,57.6z"/>
		<path class="st0" d="M71,41L71,41L71,41c0.3,0.2,0.4,0.2,0.4,0.3c0,0,0,0.1,0.1,0.1c0,0,0,0,0.1,0c0,0.1,0,0.2,0.1,0.2v0.1
			c0,0.1,0,0.2,0,0.2s0,0.1,0,0.2c0,0.1,0,0.1,0,0.1v0.1v0.1h-0.1c0,0-0.1,0.1-0.1,0.2c-0.1,0.1-0.2,0.2-0.3,0.2h-0.1H71
			c0,0,0,0-0.1,0.1c0,0,0,0-0.1,0c0,0-0.1,0-0.2,0c0,0,0,0-0.1,0c0,0,0,0-0.1-0.1h-0.1h-0.1l0,0l0,0c0,0,0,0,0-0.1l-0.1-0.1
			c-0.2,0-0.4,0-0.4,0.1v0.1c-0.2,0-0.3,0-0.3,0.1l0,0l0,0c0,0-0.1,0-0.2,0.1s-0.1,0.1-0.1,0.2v0.1c0,0-0.1,0-0.1,0.1h-0.1
			c-0.2,0.2-0.4,0.3-0.4,0.5h-0.1c0,0,0,0,0,0.1c0,0,0,0,0,0.1c-0.1,0-0.1,0.1-0.2,0.2c-0.1,0.1-0.2,0.2-0.2,0.2
			c0,0.1,0,0.2-0.1,0.3s-0.1,0.2-0.1,0.3l-0.1,0.1c0,0.1-0.1,0.1-0.1,0.1v0.1v0.1c0,0-0.1,0.1-0.1,0.2c0,0,0,0,0,0.1s0,0.1-0.1,0.2
			c0,0.1-0.1,0.1-0.1,0.2c0,0-0.1,0.1-0.1,0.2c0,0.1-0.1,0.1-0.1,0.2v0.2C67,46.9,67,47,67,47v0.1c-0.1,0.1-0.2,0.3-0.1,0.5h-0.1
			c0,0.1,0,0.2,0,0.4h-0.1c0,0.1,0,0.2,0,0.4s0,0.3-0.1,0.4c0,0.1,0,0.2,0,0.3s0,0.1-0.1,0.1c0,0.2-0.1,0.5-0.1,0.9c0,0,0,0.3,0,0.7
			s0,0.7,0,0.8s0,0.1,0,0.1c0,0.2,0,0.2,0.1,0.2c0,0,0,0.1,0,0.3c0,0.1,0,0.2,0,0.3s0,0.1,0.1,0.2c-0.1,0.3,0,0.4,0.1,0.4
			c0,0.1-0.1,0.2,0,0.3v0.1l0.1,0.1c0,0,0,0,0,0.1s0,0.1,0,0.1s0,0.1,0.1,0.2c0,0,0,0.1,0.1,0.2c0,0.1,0,0.2,0.1,0.2
			c0,0.1,0.1,0.1,0.1,0.2c0.2,0.4,0.3,0.6,0.4,0.6c0,0,0,0,0,0.1c0,0,0,0,0,0.1c0,0,0.1,0.1,0.2,0.1c0,0,0,0.1,0.1,0.2
			c0,0,0.1,0,0.1,0.1v0.1c0,0,0,0,0.1,0c0,0,0,0,0.1,0c0,0,0,0.1,0.1,0.1c0,0.1,0.1,0.1,0.1,0.1s0.1,0,0.3,0c0,0,0.1,0,0.1,0.1v0.1
			h0.1H69h0.1c0,0,0.1,0,0.2,0.1s0.1,0.1,0.2,0.1c0,0,0,0,0.1,0c0,0,0,0,0.1,0h0.1c0.1,0,0.1,0,0.1,0c0.1,0.1,0.1,0.2,0.2,0.2h0.1
			c0.1,0,0.1,0,0.1,0c0.3,0,0.5,0,0.5-0.1c0.2,0,0.3,0,0.3,0.1c0,0,0,0,0.1-0.1v-0.1c0.2,0.1,0.3,0.1,0.4,0c0.2,0,0.3,0,0.4-0.1
			c0.2,0,0.2,0,0.3-0.1c0.1,0,0.1,0,0.2,0c0,0,0,0,0.1,0h0.1c0,0,0.1,0,0.2-0.1c0,0,0.1,0,0.2-0.1c0.1,0,0.1-0.1,0.2-0.1
			c0,0,0.1-0.1,0.2-0.1c0.1-0.1,0.2-0.1,0.2-0.2c0.1,0,0.1,0,0.2-0.1c0,0,0.1,0,0.2-0.1c0.1,0,0.2,0,0.2-0.1
			c0.1-0.1,0.1-0.1,0.2-0.1c0,0,0,0,0-0.1l0,0c0,0,0,0,0.1,0c0,0,0,0,0.1,0c0,0,0-0.1,0.1-0.2c0-0.1,0.1-0.1,0.1-0.2
			c0.2-0.2,0.3-0.3,0.3-0.4c0.1,0,0.1,0,0.1,0l0.1-0.1c0.1,0,0.1,0,0.2,0c0,0,0.1-0.1,0.2-0.1s0.2,0,0.2,0.1h0.1
			c0.1,0,0.1,0.1,0.2,0.2c0.1,0,0.1,0,0.1,0s0.1,0.1,0.1,0.2c0,0.1,0.1,0.2,0.2,0.2V55v0.1c0,0,0.1,0,0.1,0.1s0,0.2,0,0.3
			c0.1,0.1,0.1,0.2,0.1,0.2c-0.1,0.1-0.1,0.2-0.1,0.2s0,0,0,0.1c0,0,0,0-0.1,0c0,0.1,0,0.2,0,0.2c-0.1,0-0.1,0.1-0.2,0.2
			c-0.1,0.1-0.2,0.2-0.2,0.2c-0.1,0.1-0.2,0.1-0.2,0.2c-0.1,0-0.2,0.1-0.4,0.2c0,0-0.1,0-0.1,0.1c0,0-0.1,0.1-0.2,0.1
			c0,0-0.1,0.1-0.2,0.1c-0.1,0.1-0.1,0.1-0.2,0.2c-0.2,0-0.3,0.1-0.4,0.3l-0.1-0.1c-0.1,0.1-0.2,0.2-0.2,0.2c-0.2,0-0.3,0.1-0.4,0.2
			c-0.1,0-0.2,0-0.2,0.2c0,0,0,0-0.1,0c0,0,0,0-0.1,0c0,0-0.1,0-0.1,0.1c0,0,0,0-0.1,0c0,0,0,0-0.1,0c0,0-0.1,0-0.2,0.1
			c-0.1,0-0.2,0-0.2,0s0,0,0,0.1h-0.1c0,0-0.1,0.1-0.1,0.2c0,0-0.1,0-0.2-0.1c-0.2,0-0.3,0-0.3,0.2H72h-0.1c-0.1,0-0.3,0-0.6,0
			C71.1,58.9,71,59,71,59h-0.1h-0.1c0,0,0,0,0,0.1c0,0,0,0,0,0.1h-0.2L70.4,59h-0.1h-0.1c0,0,0,0-0.1,0H70h-0.1c-0.1,0-0.1,0-0.1,0
			s0,0-0.1-0.1c0,0,0,0-0.1,0h-0.1c-0.1,0-0.1,0-0.1,0s-0.1,0-0.1-0.1c-0.1,0-0.1-0.1-0.1-0.1s0,0-0.1,0H69v-0.1c0,0-0.1,0-0.2-0.1
			c0,0,0,0-0.1,0c0,0,0,0-0.1,0v-0.1h-0.1h-0.1c-0.1-0.1-0.2-0.1-0.2,0c0,0-0.1-0.1-0.1-0.2c0,0-0.1,0-0.2-0.1S67.7,58,67.7,58h-0.1
			v-0.1h-0.2c0-0.1,0-0.1,0-0.1s0,0-0.1,0h-0.1c0,0-0.1,0-0.1-0.1s0-0.1,0-0.1c-0.1,0-0.1,0-0.2,0s-0.1-0.1-0.2-0.1
			c0-0.1,0-0.2-0.1-0.2c-0.1-0.1-0.2-0.1-0.2-0.1c-0.1-0.2-0.2-0.3-0.4-0.3c0-0.1,0-0.2-0.2-0.3c-0.1-0.1-0.2-0.2-0.2-0.3
			c-0.1-0.2-0.2-0.3-0.3-0.3c0-0.1,0-0.2-0.1-0.3S65,55.5,65,55.5s0,0-0.1,0s0,0-0.1,0c0-0.1,0-0.2-0.1-0.2c0-0.1,0-0.1-0.1-0.2
			c0-0.2,0-0.3-0.1-0.4h-0.1c-0.1-0.2-0.1-0.3,0-0.4c-0.1-0.2-0.1-0.3-0.2-0.3c0,0,0-0.1,0-0.2c0-0.1,0-0.1,0-0.2
			c-0.1-0.2-0.1-0.3-0.1-0.3s0,0-0.1-0.1c0,0,0,0,0-0.1c0,0,0-0.1,0-0.2c0-0.1,0-0.1,0-0.2c0-0.1,0-0.2,0-0.3h-0.1v-0.1v-0.1
			c0,0,0,0,0-0.1c0,0,0,0,0-0.1c0,0,0,0,0-0.1c0,0,0,0,0-0.1v-0.1c0-0.1,0-0.1,0-0.2c0.1-0.1,0-0.2-0.1-0.2c0,0,0,0,0-0.1l0,0l0,0
			c0,0,0,0,0-0.1V51v-0.1v-0.1v-0.1c0,0,0-0.1,0.1-0.2c-0.1,0-0.1-0.2,0-0.6c0.1-0.4,0.2-0.6,0.2-0.6v-0.1c-0.1-0.1-0.1-0.2,0-0.3
			v-0.1c0,0,0,0,0-0.1c0,0,0.1,0,0.1-0.1c0,0,0-0.1-0.1-0.1c0,0,0,0,0-0.1c0,0,0.1,0,0.1-0.1l-0.1-0.1c0,0,0-0.1,0-0.2
			c0-0.1,0-0.1,0-0.2l0.1-0.1c0,0,0-0.1,0-0.3c0-0.1,0-0.3,0-0.3s0.1-0.1,0.1-0.3c0-0.1,0.1-0.2,0.1-0.3c0,0,0-0.1,0.1-0.2
			c0,0,0-0.1,0-0.2c0-0.1,0-0.1,0-0.2c0,0,0.1-0.1,0.1-0.2c0-0.1,0.1-0.1,0.1-0.2c0-0.1,0-0.2,0.1-0.3c0,0-0.1-0.1,0-0.2
			c0-0.1,0-0.1,0.1-0.1c0-0.2,0.1-0.3,0.2-0.4c0-0.1,0-0.1,0.1-0.2c0.1-0.1,0.1-0.1,0.1-0.2l0.1-0.1v-0.1c0.1-0.1,0.1-0.2,0.1-0.3
			l0.1-0.1l0.1-0.1c0-0.1,0-0.1,0-0.2c0.1,0,0.1-0.1,0.2-0.2c0.1-0.1,0.2-0.2,0.3-0.3c0.1,0,0.2-0.2,0.3-0.4c0,0,0.1,0,0.1,0.1
			c0.1,0,0.1-0.1,0.2-0.3c0.1,0,0.2-0.2,0.5-0.5c0.1,0,0.1,0,0.1-0.1l0,0c0,0,0,0,0.1,0l0.1-0.1l0.1-0.1c0,0,0.1,0,0.2-0.1
			c0.2,0,0.3,0,0.3-0.1c0.1,0,0.1,0,0.2-0.1l0.1-0.1h0.1h0.1h0.1h0.1c0,0,0.1,0,0.1,0.1h0.1h0.1h0.1c0,0,0,0,0.1,0
			c0,0,0,0.1,0.1,0.1s0.2,0,0.4,0c0.1,0,0.2,0.1,0.3,0.1c0,0.1,0.1,0.1,0.3,0.2C70.9,40.9,71,40.9,71,41z M71.1,41.1
			c0.2,0.1,0.3,0.1,0.3,0.2c0,0,0,0.1,0.1,0.1c0,0,0,0,0.1,0c0,0.1,0,0.2,0.1,0.2v0.1c0,0.1,0,0.2,0,0.2s0,0.1,0,0.2
			c0,0.1,0,0.1,0,0.1v0.1v0.1h-0.1c0,0-0.1,0.1-0.1,0.2c-0.1,0.1-0.2,0.2-0.3,0.2h-0.1H71c0,0,0,0-0.1,0.1c0,0,0,0-0.1,0
			c0,0-0.1,0-0.2,0c0,0,0,0-0.1,0c0,0,0,0-0.1-0.1h-0.1h-0.1l0,0l0,0c0,0,0,0,0-0.1l-0.1-0.1c-0.2,0-0.4,0-0.4,0.1v0.1
			c-0.2,0-0.3,0-0.3,0.1l0,0l0,0c0,0-0.1,0-0.2,0.1s-0.1,0.1-0.1,0.2v0.1c0,0-0.1,0-0.1,0.1h-0.1c-0.2,0.2-0.4,0.3-0.4,0.5h-0.1
			c0,0,0,0,0,0.1c0,0,0,0,0,0.1c-0.1,0-0.1,0.1-0.2,0.2c-0.1,0.1-0.2,0.2-0.2,0.2c0,0.1,0,0.2-0.1,0.3s-0.1,0.2-0.1,0.3l-0.1,0.1
			c0,0.1-0.1,0.1-0.1,0.1v0.1v0.1c0,0-0.1,0.1-0.1,0.2c0,0,0,0,0,0.1s0,0.1-0.1,0.2c0,0.1-0.1,0.1-0.1,0.2c0,0-0.1,0.1-0.1,0.2
			c0,0.1-0.1,0.1-0.1,0.2v0.2C67,46.9,67,47,67,47v0.1c-0.1,0.1-0.2,0.3-0.1,0.5h-0.1c0,0.1,0,0.2,0,0.4h-0.1c0,0.1,0,0.2,0,0.4
			s0,0.3-0.1,0.4c0,0.1,0,0.2,0,0.3s0,0.1-0.1,0.1c0,0.2-0.1,0.5-0.1,0.9c0,0,0,0.3,0,0.7s0,0.7,0,0.8s0,0.1,0,0.1
			c0,0.2,0,0.2,0.1,0.2c0,0,0,0.1,0,0.3c0,0.1,0,0.2,0,0.3s0,0.1,0.1,0.2c-0.1,0.3,0,0.4,0.1,0.4c0,0.1-0.1,0.2,0,0.3v0.1l0.1,0.1
			c0,0,0,0,0,0.1s0,0.1,0,0.1s0,0.1,0.1,0.2c0,0,0,0.1,0.1,0.2c0,0.1,0,0.2,0.1,0.2c0,0.1,0.1,0.1,0.1,0.2c0.2,0.4,0.3,0.6,0.4,0.6
			c0,0,0,0,0,0.1c0,0,0,0,0,0.1c0,0,0.1,0.1,0.2,0.1c0,0,0,0.1,0.1,0.2c0,0,0.1,0,0.1,0.1v0.1c0,0,0,0,0.1,0c0,0,0,0,0.1,0
			c0,0,0,0.1,0.1,0.1c0,0.1,0.1,0.1,0.1,0.1s0.1,0,0.3,0c0,0,0.1,0,0.1,0.1v0.1h0.1H69h0.1c0,0,0.1,0,0.2,0.1s0.1,0.1,0.2,0.1
			c0,0,0,0,0.1,0c0,0,0,0,0.1,0h0.1c0.1,0,0.1,0,0.1,0c0.1,0.1,0.1,0.2,0.2,0.2h0.1c0.1,0,0.1,0,0.1,0c0.3,0,0.5,0,0.5-0.1
			c0.2,0,0.3,0,0.3,0.1c0,0,0,0,0.1-0.1v-0.1c0.2,0.1,0.3,0.1,0.4,0c0.2,0,0.3,0,0.4-0.1c0.2,0,0.2,0,0.3-0.1c0.1,0,0.1,0,0.2,0
			c0,0,0,0,0.1,0h0.1c0,0,0.1,0,0.2-0.1c0,0,0.1,0,0.2-0.1c0.1,0,0.1-0.1,0.2-0.1c0,0,0.1-0.1,0.2-0.1c0.1-0.1,0.2-0.1,0.2-0.2
			c0.1,0,0.1,0,0.2-0.1c0,0,0.1,0,0.2-0.1c0.1,0,0.2,0,0.2-0.1c0.1-0.1,0.1-0.1,0.2-0.1c0,0,0,0,0-0.1l0,0c0,0,0,0,0.1,0
			c0,0,0,0,0.1,0c0,0,0-0.1,0.1-0.2c0-0.1,0.1-0.1,0.1-0.2c0.2-0.2,0.3-0.3,0.3-0.4c0.1,0,0.1,0,0.1,0l0.1-0.1c0.1,0,0.1,0,0.2,0
			c0,0,0.1-0.1,0.2-0.1s0.2,0,0.2,0.1h0.1c0.1,0,0.1,0.1,0.2,0.2c0.1,0,0.1,0,0.1,0s0.1,0.1,0.1,0.2c0,0.1,0.1,0.2,0.2,0.2V55v0.1
			c0,0,0.1,0,0.1,0.1s0,0.2,0,0.3c0.1,0.1,0.1,0.2,0.1,0.2c-0.1,0.1-0.1,0.2-0.1,0.2s0,0,0,0.1c0,0,0,0-0.1,0c0,0.1,0,0.2,0,0.2
			c-0.1,0-0.1,0.1-0.2,0.2c-0.1,0.1-0.2,0.2-0.2,0.2c-0.1,0.1-0.2,0.1-0.2,0.2c-0.1,0-0.2,0.1-0.4,0.2c0,0-0.1,0-0.1,0.1
			c0,0-0.1,0.1-0.2,0.1c0,0-0.1,0.1-0.2,0.1c-0.1,0.1-0.1,0.1-0.2,0.2c-0.2,0-0.3,0.1-0.4,0.3l-0.1-0.1c-0.1,0.1-0.2,0.2-0.2,0.2
			c-0.2,0-0.3,0.1-0.4,0.2c-0.1,0-0.2,0-0.2,0.2c0,0,0,0-0.1,0c0,0,0,0-0.1,0c0,0-0.1,0-0.1,0.1c0,0,0,0-0.1,0c0,0,0,0-0.1,0
			c0,0-0.1,0-0.2,0.1c-0.1,0-0.2,0-0.2,0s0,0,0,0.1h-0.1c0,0-0.1,0.1-0.1,0.2c0,0-0.1,0-0.2-0.1c-0.2,0-0.3,0-0.3,0.2H72h-0.1
			c-0.1,0-0.3,0-0.6,0C71.1,58.9,71,59,71,59h-0.1h-0.1c0,0,0,0,0,0.1c0,0,0,0,0,0.1h-0.2L70.4,59h-0.1h-0.1c0,0,0,0-0.1,0H70h-0.1
			c-0.1,0-0.1,0-0.1,0s0,0-0.1-0.1c0,0,0,0-0.1,0h-0.1c-0.1,0-0.1,0-0.1,0s-0.1,0-0.1-0.1c-0.1,0-0.1-0.1-0.1-0.1s0,0-0.1,0H69v-0.1
			c0,0-0.1,0-0.2-0.1c0,0,0,0-0.1,0c0,0,0,0-0.1,0v-0.1h-0.1h-0.1c-0.1-0.1-0.2-0.1-0.2,0c0,0-0.1-0.1-0.1-0.2c0,0-0.1,0-0.2-0.1
			S67.7,58,67.7,58h-0.1v-0.1h-0.2c0-0.1,0-0.1,0-0.1s0,0-0.1,0h-0.1c0,0-0.1,0-0.1-0.1s0-0.1,0-0.1c-0.1,0-0.1,0-0.2,0
			s-0.1-0.1-0.2-0.1c0-0.1,0-0.2-0.1-0.2c-0.1-0.1-0.2-0.1-0.2-0.1c-0.1-0.2-0.2-0.3-0.4-0.3c0-0.1,0-0.2-0.2-0.3
			c-0.1-0.1-0.2-0.2-0.2-0.3c-0.1-0.2-0.2-0.3-0.3-0.3c0-0.1,0-0.2-0.1-0.3S65,55.5,65,55.5s0,0-0.1,0s0,0-0.1,0
			c0-0.1,0-0.2-0.1-0.2c0-0.1,0-0.1-0.1-0.2c0-0.2,0-0.3-0.1-0.4h-0.1c-0.1-0.2-0.1-0.3,0-0.4c-0.1-0.2-0.1-0.3-0.2-0.3
			c0,0,0-0.1,0-0.2c0-0.1,0-0.1,0-0.2c-0.1-0.2-0.1-0.3-0.1-0.3s0,0-0.1-0.1v-0.1c0-0.2,0-0.2,0-0.3s0-0.2,0-0.3h-0.1v-0.1v-0.1
			c0,0,0,0,0-0.1c0,0,0,0,0-0.1c0,0,0,0,0-0.1c0,0,0,0,0-0.1v-0.1c0-0.1,0-0.1,0-0.2c0.1-0.1,0-0.2-0.1-0.2c0,0,0,0,0-0.1l0,0l0,0
			c0,0,0,0,0-0.1v-0.1V51v-0.1v-0.1c0,0,0-0.1,0.1-0.2c-0.1,0-0.1-0.2,0-0.6c0.1-0.4,0.2-0.6,0.2-0.6v-0.1c-0.1-0.1-0.1-0.2,0-0.3
			v-0.1c0,0,0,0,0-0.1c0,0,0.1,0,0.1-0.1c0,0,0-0.1-0.1-0.1c0,0,0,0,0-0.1c0,0,0.1,0,0.1-0.1c0,0,0-0.1-0.1-0.1c0,0,0-0.1,0-0.2
			c0-0.1,0-0.1,0-0.2l0.1-0.1c0,0,0-0.1,0-0.3c0-0.1,0-0.3,0-0.3s0.1-0.1,0.1-0.3c0-0.1,0.1-0.2,0.1-0.3c0,0,0-0.1,0.1-0.2
			c0,0,0-0.1,0-0.2c0-0.1,0-0.1,0-0.2c0,0,0.1-0.1,0.1-0.2c0-0.1,0.1-0.1,0.1-0.2c0-0.1,0-0.2,0.1-0.3c0,0-0.1-0.1,0-0.2
			c0-0.1,0-0.1,0.1-0.1c0-0.2,0.1-0.3,0.2-0.4c0-0.1,0-0.1,0.1-0.2c0.1-0.1,0.1-0.1,0.1-0.2l0.1-0.1V44c0.1-0.1,0.1-0.2,0.1-0.3
			l0.1-0.1l0.1-0.1c0-0.1,0-0.1,0-0.2c0.1,0,0.1-0.1,0.2-0.2c0.1-0.1,0.2-0.2,0.3-0.3c0.1,0,0.2-0.2,0.3-0.4c0,0,0.1,0,0.1,0.1
			c0.1,0,0.1-0.1,0.2-0.3c0.1,0,0.2-0.2,0.5-0.5c0.1,0,0.1,0,0.1-0.1l0,0c0,0,0,0,0.1,0l0.1-0.1l0.1-0.1c0,0,0.1,0,0.2-0.1
			c0.2,0,0.3,0,0.3-0.1c0.1,0,0.1,0,0.2-0.1l0.1-0.1h0.1h0.1h0.1h0.1c0,0,0.1,0,0.1,0.1h0.1h0.1h0.1c0,0,0,0,0.1,0
			c0,0,0,0.1,0.1,0.1s0.2,0,0.4,0c0.1,0,0.2,0.1,0.3,0.1c0,0.1,0.1,0.1,0.3,0.2c0.1,0,0.1,0.1,0.1,0.1h0.1
			C71.1,41,71.1,41,71.1,41.1z M64.4,46.6L64.4,46.6C64.4,46.6,64.4,46.5,64.4,46.6C64.4,46.5,64.4,46.5,64.4,46.6z M64.4,46.5
			L64.4,46.5C64.4,46.6,64.4,46.6,64.4,46.5C64.4,46.6,64.4,46.5,64.4,46.5z"/>
		<path class="st0" d="M88.6,42.6c0,0.1,0,0.3,0,0.6c0.1,0,0.1,0,0.1,0.1s0,0.2,0,0.2s0,0.1-0.1,0.1c0,0.1,0,0.2,0.1,0.3
			c0,0,0,0.2,0,0.3c0,0.2,0,0.3-0.1,0.3v0.1v0.1c0,0,0,0.1,0.1,0.2c0,0.1,0.1,0.2,0.1,0.2v0.1c0,0,0,0.1,0.1,0.1c0,0,0,0.1,0.1,0.1
			c0,0,0,0.1,0,0.2v0.1v0.1v0.1V46v0.1c0,0,0,0.1,0.1,0.1c0,0,0,0,0,0.1v0.1c0,0,0,0.1,0.1,0.2c0,0.3,0.1,0.4,0.2,0.4
			c0,0,0.1,0,0.1-0.1l0,0c0,0,0,0,0.1,0c0,0,0.1,0,0.1-0.1c0,0,0,0,0,0.1l0,0c0.2,0,0.3-0.1,0.3-0.1h0.1c0,0,0,0,0.1,0h0.1
			c0.1,0,0.1,0,0.2-0.1h0.2c0.1,0.1,0.2,0.1,0.2,0.2H91c0.1,0.1,0.2,0.2,0.3,0.3c0.1,0.1,0.2,0.2,0.3,0.3h0.1c0,0,0,0.1,0,0.3
			s0,0.3,0,0.3c0.1,0,0.1,0.1,0,0.1l-0.1,0.1c0,0,0,0.1,0,0.2c0,0-0.1,0-0.2,0.1c0,0,0,0,0,0.1v0.1h-0.1c-0.1,0-0.1,0.1-0.1,0.2
			c-0.1,0.1-0.1,0.1-0.1,0.1L91,49.2c0,0.1-0.1,0.1-0.1,0.1h-0.1l-0.1,0.1c0,0-0.1,0-0.2,0s-0.1,0-0.2,0.1c0,0-0.1,0-0.2,0
			s-0.2,0-0.2,0s-0.1,0.1-0.1,0.2s0,0.1,0.1,0.2c0,0,0,0,0,0.1c0,0,0,0,0,0.1s0,0.2,0,0.3s0,0.2,0,0.3c0,0,0,0.1,0.1,0.2
			c0,0.1,0.1,0.2,0.1,0.2v0.1v0.1c0,0,0,0,0,0.1c0,0,0,0,0.1,0l0,0l0,0c0,0,0,0.1-0.1,0.1L90,51.6c0,0.1,0,0.1,0,0.1s0,0,0,0.1
			c0,0,0,0,0.1,0.1c0,0,0,0-0.1,0.1c0,0,0,0,0,0.1l0.1,0.1c0.1,0,0.1,0.1,0.1,0.1v0.1l-0.1,0.1c0,0,0,0,0,0.1c0,0,0,0.1,0,0.3
			c0,0.1,0,0.2,0,0.3s0,0.1,0.1,0.2c0,0,0,0.1,0,0.2c0,0.1,0,0.2,0,0.5c0,0.2,0,0.4,0,0.4s0,0.1,0.1,0.1c0,0.1,0,0.2,0,0.3
			c0,0.2,0,0.3,0,0.3c0,0.1,0,0.2,0,0.2c0,0.1,0,0.2,0,0.3c0,0,0,0,0.1,0.1v0.1c-0.1,0-0.1,0.1-0.1,0.2c0,0.1,0,0.2,0.1,0.2
			c0,0.1,0,0.1,0,0.2c-0.1,0.1-0.1,0.2,0,0.4s0,0.3-0.1,0.3v0.2c-0.2,0-0.3,0.1-0.4,0.2c0,0,0.1,0.1,0,0.1c0,0,0,0-0.1,0
			c0,0,0-0.1-0.1-0.1c0,0,0,0.1-0.1,0.1c0,0,0,0.1-0.1,0.1h-0.1h-0.1C89.1,57.9,89,58,89,57.9h-0.1c0,0,0,0-0.1,0c0,0,0,0-0.1,0
			c0,0,0,0-0.1,0c0,0,0,0-0.1,0c0-0.2-0.1-0.2-0.1-0.3c-0.1,0-0.2-0.1-0.5-0.3c0,0,0,0-0.1,0c0,0,0,0-0.1,0c0-0.1,0-0.1-0.1-0.2l0,0
			c0,0,0,0-0.1,0c0,0,0-0.1,0.1-0.1c0-0.1,0-0.2-0.1-0.2c0,0,0,0,0-0.1c0,0,0,0,0-0.1v-0.1c0-0.1,0-0.1-0.1-0.2c0-0.1,0-0.1,0-0.2
			c0-0.1,0.1-0.2,0.1-0.3c0,0,0-0.1-0.1-0.1c0,0,0,0,0-0.1c0,0,0,0,0-0.1v-0.1l-0.1-0.1v-0.1c0,0,0,0,0-0.1c0,0,0,0,0-0.1
			c0,0,0,0,0-0.1c0,0,0-0.1-0.1-0.1c0.1-0.1,0.1-0.2,0.1-0.2s0,0-0.1-0.1v-0.1c0,0,0-0.1,0-0.2c0-0.1,0-0.1,0-0.2c0-0.1,0-0.1,0-0.2
			c0-0.2,0-0.3-0.1-0.3c0-0.3,0-0.6,0-0.8v-0.1c0-0.1,0-0.1,0-0.1s0-0.1-0.1-0.1c0,0-0.1-0.1,0-0.1s0.1,0,0.1-0.1S87,52,87,52
			l0.1-0.1c0,0,0-0.1-0.1-0.2c0-0.1,0-0.1,0-0.2c0,0,0-0.1,0-0.2c0-0.1,0-0.2,0-0.2V51v-0.1c0,0,0,0,0-0.1v-0.1c0-0.1,0-0.2-0.1-0.3
			v-0.1v-0.1c0,0-0.1-0.1-0.1,0v0.1c-0.1,0-0.1,0-0.2,0s-0.2,0-0.3,0.1c0,0-0.1,0-0.2,0c0,0-0.1,0.1-0.2,0.2c0,0,0,0,0-0.1v-0.1
			c0,0,0,0-0.1,0c0,0-0.1,0-0.2,0s-0.1,0-0.1,0s0,0-0.1,0.1c0,0,0,0-0.1,0c-0.3,0-0.4,0.1-0.5,0.1c-0.4,0-0.6,0-0.7,0.1
			c0,0-0.1,0-0.2,0h-0.1c-0.1,0-0.2,0-0.3,0.1c-0.1,0-0.2,0.1-0.2,0.1s-0.1,0-0.2,0c-0.2,0-0.2,0-0.3,0c0,0,0,0-0.1,0.1s0,0.1,0,0.1
			h-0.1c-0.1,0-0.1,0-0.1,0s0,0-0.1,0c0,0,0,0-0.1,0s-0.1,0-0.1,0.1h-0.9c0,0-0.1,0-0.2-0.1c0,0,0,0-0.1,0S80.8,51,80.8,51
			c-0.1,0-0.1,0.1-0.1,0.3v0.1v0.1v0.1c0,0,0,0.1,0,0.2c0,0.2,0,0.3,0,0.3c0,0.1,0,0.2,0,0.3h0.1c0,0,0,0,0,0.1c0,0,0,0,0,0.1
			s0,0.2-0.1,0.3c0,0,0,0.1,0.1,0.1v0.1c0,0,0,0-0.1,0.1c0,0.3,0,0.5,0,0.5s0,0.1,0,0.2c0,0.1,0,0.2,0.1,0.3v0.1v0.1c0,0,0,0,0,0.1
			c0,0-0.1,0-0.1,0.1c0,0,0,0.1,0.1,0.1c0,0.1,0,0.1,0,0.2c0,0,0,0.1-0.1,0.1c0,0,0,0.1,0.1,0.1c0,0,0,0,0,0.1c0,0,0,0,0,0.1
			c0,0,0.1,0.1,0,0.3c0,0,0,0.1,0,0.2c0,0.1,0,0.1,0,0.2c0,0.4,0,0.6,0.1,0.7V57c0,0.1,0,0.3,0,0.4c0,0.2,0,0.3,0.1,0.3v0.1
			c0,0.2-0.2,0.4-0.4,0.7c0,0-0.1,0-0.2,0.1s-0.1,0.1-0.2,0.1s-0.1-0.1-0.1-0.1s-0.1,0.1-0.2,0.2l0,0c0,0,0,0,0-0.1
			s-0.1-0.1-0.3-0.1c-0.1,0-0.1-0.1-0.1-0.2c-0.2,0-0.3,0-0.3-0.2c-0.1,0-0.2,0.1-0.3,0v-0.1L78.8,58c0-0.1-0.1-0.1-0.1-0.1
			c-0.1,0-0.1,0-0.1,0c0-0.1,0-0.1,0.1-0.2c0,0,0-0.1,0-0.4c0-0.2,0-0.3,0-0.4c0,0,0-0.2,0-0.5c0-0.1,0-0.1,0-0.2c0,0,0,0-0.1,0l0,0
			c0,0,0-0.1,0-0.3c0,0,0,0,0.1-0.1c0,0,0,0,0-0.1s0-0.2,0-0.4s0-0.3,0-0.4c0,0,0,0,0-0.1c0,0,0,0,0-0.1v-0.1v-0.1
			c0-0.1,0-0.1,0-0.2v-0.1v-0.1V54c0,0,0,0,0-0.1c0,0,0,0,0-0.1c0,0,0,0,0-0.1v-0.1c0,0,0-0.1,0-0.2c0-0.1,0-0.2,0-0.3s0-0.2,0-0.3
			c0,0,0,0,0-0.1s0-0.2,0-0.2v-0.1c0,0,0-0.1-0.1-0.1c0-0.1,0-0.2,0.1-0.2c0,0,0,0,0-0.1c0,0,0,0-0.1-0.1c0.1-0.1,0.1-0.1,0.1-0.2
			c0-0.1,0-0.2,0-0.5s0-0.5,0-0.6c0-0.3,0-0.5-0.1-0.6c0-0.1,0.1-0.1,0.1-0.2c0-0.1-0.1-0.1-0.1-0.1v-0.1l0,0l0,0c0,0,0,0,0.1,0
			v-0.1c0,0,0,0,0-0.1s0-0.3,0-0.6s0-0.5-0.1-0.5h-0.1c0,0,0-0.1,0.1-0.2c0-0.1-0.1-0.2,0-0.3c0-0.1,0-0.2,0-0.3s-0.1-0.2-0.2-0.2
			c0-0.2,0.1-0.3,0.1-0.4c0,0,0-0.1,0-0.3s0-0.3,0-0.3s0-0.1-0.1-0.1v-0.1c0,0,0-0.1,0-0.2c0,0,0-0.1,0-0.3v-0.1c0-0.1,0-0.1,0-0.1
			v-0.1c0,0,0,0-0.1-0.1c0,0,0,0,0-0.1c0,0,0-0.1,0.1-0.1v-0.1v-0.1c0,0,0-0.1,0-0.2c0-0.1,0-0.1,0-0.1v-0.1c0-0.1,0-0.1,0-0.2
			c0,0,0-0.1,0-0.2c0-0.1,0-0.1,0-0.2c0-0.1,0-0.2,0-0.2c0.1-0.1,0.1-0.2,0-0.2l0,0h-0.1c0,0,0-0.1,0.1-0.2c0,0-0.1-0.1-0.1-0.2
			c0,0,0-0.1,0-0.2c0-0.1,0-0.2,0-0.2c0-0.1,0-0.1,0-0.2c0,0,0,0,0-0.1v-0.1c0,0,0-0.1,0.1-0.1c0-0.1,0.1-0.1,0.1-0.2l0.1-0.1
			c0.1-0.1,0.2-0.2,0.3-0.2c0,0,0-0.1,0.1-0.1c0,0,0,0,0-0.1h0.1h0.1c0,0,0,0,0.1-0.1v-0.1h0.1c0,0,0.1,0,0.1,0.1h0.1h0.1
			c0.2,0.1,0.2,0.1,0.2,0.2c0.3,0.1,0.5,0.3,0.7,0.5v0.1c0,0,0.1,0.1,0.2,0.2c0,0,0,0,0,0.1c0,0,0,0,0,0.1s0.1,0.1,0.1,0.2v0.1v0.1
			V43c0,0,0,0.1,0,0.2c0,0.1,0,0.1,0,0.2c0,0.1,0,0.2,0.1,0.2c-0.1,0.1-0.1,0.1,0,0.2c0,0,0,0.1-0.1,0.1c0,0.3,0,0.5,0.1,0.5
			c0,0.1,0,0.2,0.1,0.3c0,0-0.1,0.1,0,0.3c0,0.2,0,0.3,0,0.3c0,0.1,0,0.1,0,0.1s0,0,0,0.1l0,0c0,0,0,0.1,0,0.2c0,0.2,0,0.2,0.1,0.3
			l-0.1,0.1c0,0,0,0.1,0,0.3c0,0.1,0.1,0.2,0.1,0.3s0,0.2,0.1,0.2c0,0,0,0.1,0,0.3c0,0.1,0,0.1,0,0.1s0,0,0,0.1v0.1v0.1v0.1
			c0,0,0,0,0,0.1c0,0,0,0,0,0.1c0,0,0,0,0,0.1c0,0,0,0-0.1,0.1c0,0,0.1,0.1,0,0.2c0,0.1,0,0.2,0,0.2c0,0.1,0.1,0.1,0.2,0.2
			c0.1,0,0.2,0,0.3,0c0.1,0,0.2,0,0.3,0c0.2,0,0.3,0,0.4,0h0.2h0.1h0.1c0.1,0,0.2,0,0.3-0.1c0,0,0.1,0,0.2,0s0.1,0,0.1,0l0,0
			c0.2,0.1,0.4,0,0.5-0.1H84c0,0,0,0,0.1,0.1c0.2-0.1,0.3-0.2,0.3-0.2s0.1,0,0.2,0c0,0,0.1,0,0.2,0s0.1,0,0.1,0s0,0,0.1,0h0.1h0.1
			h0.1c0,0,0,0,0.1,0s0.1,0,0.1,0l0.5-0.1c0,0,0.1,0,0.1-0.1l0.1-0.1c0,0,0,0,0.1,0c0,0,0,0,0.1,0c0,0,0.1,0,0.2-0.1
			c0,0,0,0,0.1-0.1s0.1-0.1,0.2,0c0,0,0.1-0.1,0.3-0.1c0.1,0,0.2,0,0.3-0.1v-0.1c0-0.1,0-0.1,0-0.1s0,0-0.1-0.1c0,0,0,0,0-0.1v-0.1
			v-0.1c0-0.1,0-0.1,0-0.2c0-0.1,0-0.2-0.1-0.2c0-0.1,0-0.2,0-0.3s0-0.3,0-0.3c0-0.1-0.1-0.1-0.1-0.1s0-0.1,0-0.2c0-0.1,0-0.2,0-0.2
			c0-0.1,0-0.1,0-0.1s0,0-0.1,0H87c0,0,0-0.1,0.1-0.1c0-0.1,0-0.2,0-0.3S87,44.9,86.9,45c0,0,0-0.1,0.1-0.2c0,0,0-0.1,0-0.2
			c0-0.1,0-0.2,0-0.2s0-0.1-0.1-0.1c0,0,0-0.1,0-0.2c0-0.1,0-0.1,0-0.1s0,0-0.1-0.1c0,0,0,0-0.1-0.1c0-0.3,0-0.5,0-0.5s0-0.1,0-0.2
			c0-0.1,0-0.2,0-0.2v-0.1v-0.1c0,0,0-0.1-0.1-0.1c0-0.1,0-0.1,0-0.2c0-0.1-0.1-0.1-0.1-0.2c0,0,0-0.1,0-0.2c0-0.1,0-0.2,0-0.2
			l-0.1-0.1v-0.1c0-0.1,0-0.1,0-0.1s0-0.1-0.1-0.1c0,0,0-0.1-0.1-0.1c0,0,0-0.1,0-0.2c0-0.1,0-0.2,0-0.3h-0.1c0,0,0-0.1,0-0.2
			s0-0.2-0.1-0.2c0.1-0.2,0.1-0.4,0-0.5c0,0,0,0,0.1,0l0,0c0.1-0.1,0.1-0.2,0.1-0.3c0.1-0.1,0.2-0.2,0.3-0.3
			c0.1-0.1,0.2-0.2,0.3-0.2l0.1,0.1c0,0,0.1-0.1,0.3-0.1c0,0,0.1,0.1,0.2,0.1s0.2,0.1,0.2,0.1s0.1,0.1,0.2,0.2c0,0,0,0,0.1,0
			c0,0,0,0,0.1,0c0,0,0,0.1,0.1,0.1c0.1,0.1,0.1,0.1,0.1,0.1s0,0.1,0.1,0.1v0.1l0.1,0.1c0,0.1,0.1,0.1,0.1,0.1v0.1
			c0,0,0.1,0.1,0.1,0.2c0,0.1,0.1,0.2,0.1,0.2s0,0.1,0,0.3c0,0.1,0,0.2,0,0.3c0,0,0,0.1,0.1,0.1v0.1v0.1v0.1v0.1v0.1
			c0,0,0.1,0.1,0.1,0.2c0,0.1,0,0.2,0,0.2v0.1v0.1c0,0.1,0,0.1,0.1,0.2L88.6,42.6C88.5,42.5,88.6,42.6,88.6,42.6z M88.6,42.6
			c0,0.1,0,0.3,0,0.6c0.1,0,0.1,0,0.1,0.1s0,0.2,0,0.2s0,0.1-0.1,0.1c0,0.1,0,0.2,0.1,0.3c0,0,0,0.2,0,0.3c0,0.2,0,0.3-0.1,0.3v0.1
			v0.1c0,0,0,0.1,0.1,0.2c0,0.1,0.1,0.2,0.1,0.2v0.1c0,0,0,0.1,0.1,0.1c0,0,0,0.1,0.1,0.1c0,0,0,0.1,0,0.2v0.1v0.1v0.1V46v0.1
			c0,0,0,0.1,0.1,0.1c0,0,0,0,0,0.1v0.1c0,0,0,0.1,0.1,0.2c0,0.3,0.1,0.4,0.2,0.4c0,0,0.1,0,0.1-0.1l0,0c0,0,0,0,0.1,0
			c0,0,0.1,0,0.1-0.1c0,0,0,0,0,0.1l0,0c0.2,0,0.3-0.1,0.3-0.1h0.1c0,0,0,0,0.1,0h0.1c0.1,0,0.1,0,0.2-0.1h0.2
			c0.1,0.1,0.2,0.1,0.2,0.2H91c0.1,0.1,0.2,0.2,0.3,0.3c0.1,0.1,0.2,0.2,0.3,0.3h0.1c0,0,0,0.1,0,0.3s0,0.3,0,0.3
			c0.1,0,0.1,0.1,0,0.1l-0.1,0.1c0,0,0,0.1,0,0.2c0,0-0.1,0-0.2,0.1c0,0,0,0,0,0.1v0.1h-0.1c-0.1,0-0.1,0.1-0.1,0.2
			c-0.1,0.1-0.1,0.1-0.1,0.1L91,49.2c0,0.1-0.1,0.1-0.1,0.1h-0.1l-0.1,0.1c0,0-0.1,0-0.2,0s-0.1,0-0.2,0.1c0,0-0.1,0-0.2,0
			s-0.2,0-0.2,0s-0.1,0.1-0.1,0.2s0,0.1,0.1,0.2c0,0,0,0,0,0.1c0,0,0,0,0,0.1s0,0.2,0,0.3s0,0.2,0,0.3c0,0,0,0.1,0.1,0.2
			c0,0.1,0.1,0.2,0.1,0.2v0.1v0.1c0,0,0,0,0,0.1c0,0,0,0,0.1,0l0,0l0,0c0,0,0,0.1-0.1,0.1L90,51.6c0,0.1,0,0.1,0,0.1s0,0,0,0.1
			c0,0,0,0,0.1,0.1c0,0,0,0-0.1,0.1c0,0,0,0,0,0.1l0.1,0.1c0.1,0,0.1,0.1,0.1,0.1v0.1l-0.1,0.1c0,0,0,0,0,0.1c0,0,0,0.1,0,0.3
			c0,0.1,0,0.2,0,0.3s0,0.1,0.1,0.2c0,0,0,0.1,0,0.2c0,0.1,0,0.2,0,0.5c0,0.2,0,0.4,0,0.4s0,0.1,0.1,0.1c0,0.1,0,0.2,0,0.3
			c0,0.2,0,0.3,0,0.3c0,0.1,0,0.2,0,0.2c0,0.1,0,0.2,0,0.3c0,0,0,0,0.1,0.1v0.1c-0.1,0-0.1,0.1-0.1,0.2c0,0.1,0,0.2,0.1,0.2
			c0,0.1,0,0.1,0,0.2c-0.1,0.1-0.1,0.2,0,0.4s0,0.3-0.1,0.3v0.2c-0.2,0-0.3,0.1-0.4,0.2c0,0,0.1,0.1,0,0.1c0,0,0,0-0.1,0
			c0,0,0-0.1-0.1-0.1c0,0,0,0.1-0.1,0.1c0,0,0,0.1-0.1,0.1h-0.1h-0.1C89.1,57.9,89,58,89,57.9h-0.1c0,0,0,0-0.1,0c0,0,0,0-0.1,0
			c0,0,0,0-0.1,0c0,0,0,0-0.1,0c0-0.2-0.1-0.2-0.1-0.3c-0.1,0-0.2-0.1-0.5-0.3c0,0,0,0-0.1,0c0,0,0,0-0.1,0c0-0.1,0-0.1-0.1-0.2l0,0
			c0,0,0,0-0.1,0c0,0,0-0.1,0.1-0.1c0-0.1,0-0.2-0.1-0.2c0,0,0,0,0-0.1c0,0,0,0,0-0.1v-0.1c0-0.1,0-0.1-0.1-0.2c0-0.1,0-0.1,0-0.2
			c0-0.1,0.1-0.2,0.1-0.3c0,0,0-0.1-0.1-0.1c0,0,0,0,0-0.1c0,0,0,0,0-0.1v-0.1l-0.1-0.1v-0.1c0,0,0,0,0-0.1c0,0,0,0,0-0.1
			c0,0,0,0,0-0.1c0,0,0-0.1-0.1-0.1c0.1-0.1,0.1-0.2,0.1-0.2s0,0-0.1-0.1v-0.1c0,0,0-0.1,0-0.2c0-0.1,0-0.1,0-0.2c0-0.1,0-0.1,0-0.2
			c0-0.2,0-0.3-0.1-0.3c0-0.3,0-0.6,0-0.8v-0.1c0-0.1,0-0.1,0-0.1s0-0.1-0.1-0.1c0,0-0.1-0.1,0-0.1s0.1,0,0.1-0.1S87,52,87,52
			l0.1-0.1c0,0,0-0.1-0.1-0.2c0-0.1,0-0.1,0-0.2c0,0,0-0.1,0-0.2c0-0.1,0-0.2,0-0.2V51v-0.1c0,0,0,0,0-0.1v-0.1c0-0.1,0-0.2-0.1-0.3
			v-0.1v-0.1c0,0-0.1-0.1-0.1,0v0.1c-0.1,0-0.1,0-0.2,0s-0.2,0-0.3,0.1c0,0-0.1,0-0.2,0c0,0-0.1,0.1-0.2,0.2c0,0,0,0,0-0.1v-0.1
			c0,0,0,0-0.1,0c0,0-0.1,0-0.2,0s-0.1,0-0.1,0s0,0-0.1,0.1c0,0,0,0-0.1,0c-0.3,0-0.4,0.1-0.5,0.1c-0.4,0-0.6,0-0.7,0.1
			c0,0-0.1,0-0.2,0h-0.1c-0.1,0-0.2,0-0.3,0.1c-0.1,0-0.2,0.1-0.2,0.1s-0.1,0-0.2,0c-0.2,0-0.2,0-0.3,0c0,0,0,0-0.1,0.1s0,0.1,0,0.1
			h-0.1c-0.1,0-0.1,0-0.1,0s0,0-0.1,0c0,0,0,0-0.1,0s-0.1,0-0.1,0.1h-0.9c0,0-0.1,0-0.2-0.1c0,0,0,0-0.1,0S80.8,51,80.8,51
			c-0.1,0-0.1,0.1-0.1,0.3v0.1v0.1v0.1c0,0,0,0.1,0,0.2c0,0.2,0,0.3,0,0.3c0,0.1,0,0.2,0,0.3h0.1c0,0,0,0,0,0.1c0,0,0,0,0,0.1
			s0,0.2-0.1,0.3c0,0,0,0.1,0.1,0.1v0.1c0,0,0,0-0.1,0.1c0,0.3,0,0.5,0,0.5s0,0.1,0,0.2c0,0.1,0,0.2,0.1,0.3v0.1v0.1c0,0,0,0,0,0.1
			c0,0-0.1,0-0.1,0.1c0,0,0,0.1,0.1,0.1c0,0.1,0,0.1,0,0.2c0,0,0,0.1-0.1,0.1c0,0,0,0.1,0.1,0.1c0,0,0,0,0,0.1c0,0,0,0,0,0.1
			c0,0,0.1,0.1,0,0.3c0,0,0,0.1,0,0.2c0,0.1,0,0.1,0,0.2c0,0.4,0,0.6,0.1,0.7V57c0,0.1,0,0.3,0,0.4c0,0.2,0,0.3,0.1,0.3v0.1
			c0,0.2-0.2,0.4-0.4,0.7c0,0-0.1,0-0.2,0.1s-0.1,0.1-0.2,0.1s-0.1-0.1-0.1-0.1s-0.1,0.1-0.2,0.2l0,0c0,0,0,0,0-0.1
			s-0.1-0.1-0.3-0.1c-0.1,0-0.1-0.1-0.1-0.2c-0.2,0-0.3,0-0.3-0.2c-0.1,0-0.2,0.1-0.3,0v-0.1L78.8,58c0-0.1-0.1-0.1-0.1-0.1
			c-0.1,0-0.1,0-0.1,0c0-0.1,0-0.1,0.1-0.2c0,0,0-0.1,0-0.4c0-0.2,0-0.3,0-0.4c0,0,0-0.2,0-0.5c0-0.1,0-0.1,0-0.2c0,0,0,0-0.1,0l0,0
			c0,0,0-0.1,0-0.3c0,0,0,0,0.1-0.1c0,0,0,0,0-0.1s0-0.2,0-0.4s0-0.3,0-0.4c0,0,0,0,0-0.1c0,0,0,0,0-0.1v-0.1v-0.1
			c0-0.1,0-0.1,0-0.2v-0.1v-0.1V54c0,0,0,0,0-0.1c0,0,0,0,0-0.1c0,0,0,0,0-0.1v-0.1c0,0,0-0.1,0-0.2c0-0.1,0-0.2,0-0.3s0-0.2,0-0.3
			c0,0,0,0,0-0.1s0-0.2,0-0.2v-0.1c0,0,0-0.1-0.1-0.1c0-0.1,0-0.2,0.1-0.2c0,0,0,0,0-0.1c0,0,0,0-0.1-0.1c0.1-0.1,0.1-0.1,0.1-0.2
			c0-0.1,0-0.2,0-0.5s0-0.5,0-0.6c0-0.3,0-0.5-0.1-0.6c0-0.1,0.1-0.1,0.1-0.2c0-0.1-0.1-0.1-0.1-0.1v-0.1l0,0l0,0c0,0,0,0,0.1,0
			v-0.1c0,0,0,0,0-0.1s0-0.3,0-0.6s0-0.5-0.1-0.5h-0.1c0,0,0-0.1,0.1-0.2c0-0.1-0.1-0.2,0-0.3c0-0.1,0-0.2,0-0.3s-0.1-0.2-0.2-0.2
			c0-0.2,0.1-0.3,0.1-0.4c0,0,0-0.1,0-0.3s0-0.3,0-0.3s0-0.1-0.1-0.1v-0.1c0,0,0-0.1,0-0.2c0,0,0-0.1,0-0.3v-0.1c0-0.1,0-0.1,0-0.1
			v-0.1c0,0,0,0-0.1-0.1c0,0,0,0,0-0.1c0,0,0-0.1,0.1-0.1v-0.1v-0.1c0,0,0-0.1,0-0.2c0-0.1,0-0.1,0-0.1v-0.1c0-0.1,0-0.1,0-0.2
			c0,0,0-0.1,0-0.2c0-0.1,0-0.1,0-0.2c0-0.1,0-0.2,0-0.2c0.1-0.1,0.1-0.2,0-0.2l0,0h-0.1c0,0,0-0.1,0.1-0.2c0,0-0.1-0.1-0.1-0.2
			c0,0,0-0.1,0-0.2c0-0.1,0-0.2,0-0.2c0-0.1,0-0.1,0-0.2c0,0,0,0,0-0.1v-0.1c0,0,0-0.1,0.1-0.1c0-0.1,0.1-0.1,0.1-0.2l0.1-0.1
			c0.1-0.1,0.2-0.2,0.3-0.2c0,0,0-0.1,0.1-0.1c0,0,0,0,0-0.1h0.1h0.1c0,0,0,0,0.1-0.1v-0.1h0.1c0,0,0.1,0,0.1,0.1h0.1h0.1
			c0.2,0.1,0.2,0.1,0.2,0.2c0.3,0.1,0.5,0.3,0.7,0.5v0.1c0,0,0.1,0.1,0.2,0.2c0,0,0,0,0,0.1c0,0,0,0,0,0.1s0.1,0.1,0.1,0.2v0.1v0.1
			V43c0,0,0,0.1,0,0.2c0,0.1,0,0.1,0,0.2c0,0.1,0,0.2,0.1,0.2c-0.1,0.1-0.1,0.1,0,0.2c0,0,0,0.1-0.1,0.1c0,0.3,0,0.5,0.1,0.5
			c0,0.1,0,0.2,0,0.3c0,0,0,0.1,0,0.3s0,0.3,0,0.3c0,0.1,0,0.1,0,0.1s0,0,0,0.1c0,0,0,0.1,0,0.2c0,0.2,0,0.2,0.1,0.3L81,46.1
			c0,0,0,0.1,0.1,0.3c0,0.1,0.1,0.2,0.1,0.3s0,0.2,0.1,0.2c0,0,0,0.1,0,0.3c0,0.1,0,0.1,0,0.1s0,0,0,0.1v0.1v0.1v0.1c0,0,0,0,0,0.1
			c0,0,0,0,0,0.1c0,0,0,0,0,0.1c0,0,0,0-0.1,0.1c0,0,0.1,0.1,0,0.2c0,0.1,0,0.2,0,0.2c0,0.1,0.1,0.1,0.2,0.2c0.1,0,0.2,0,0.3,0
			c0.1,0,0.2,0,0.3,0c0.2,0,0.3,0,0.4,0h0.2h0.1h0.1c0.1,0,0.2,0,0.3-0.1c0,0,0.1,0,0.2,0s0.1,0,0.1,0l0,0c0.2,0.1,0.4,0,0.5-0.1H84
			c0,0,0,0,0.1,0.1c0.2-0.1,0.3-0.2,0.3-0.2s0.1,0,0.2,0c0,0,0.1,0,0.2,0s0.1,0,0.1,0s0,0,0.1,0h0.1h0.1h0.1c0,0,0,0,0.1,0
			s0.1,0,0.1,0l0.5-0.1c0,0,0.1,0,0.1-0.1l0.1-0.1c0,0,0,0,0.1,0c0,0,0,0,0.1,0c0,0,0.1,0,0.2-0.1c0,0,0,0,0.1-0.1s0.1-0.1,0.2,0
			c0,0,0.1-0.1,0.3-0.1c0.1,0,0.2,0,0.3-0.1v-0.1c0-0.1,0-0.1,0-0.1s0,0-0.1-0.1c0,0,0,0,0-0.1v-0.1v-0.1c0-0.1,0-0.1,0-0.2
			c0-0.1,0-0.2-0.1-0.2c0-0.1,0-0.2,0-0.3s0-0.3,0-0.3c0-0.1-0.1-0.1-0.1-0.1s0-0.1,0-0.2c0-0.1,0-0.2,0-0.2c0-0.1,0-0.1,0-0.1
			s0,0-0.1,0H87c0,0,0-0.1,0.1-0.1c0-0.1,0-0.2,0-0.3S87,44.9,86.9,45c0,0,0-0.1,0.1-0.2c0,0,0-0.1,0-0.2c0-0.1,0-0.2,0-0.2
			s0-0.1-0.1-0.1c0,0,0-0.1,0-0.2c0-0.1,0-0.1,0-0.1s0,0,0-0.1c0,0,0,0-0.1-0.1c0-0.3,0-0.5,0-0.5s0-0.1,0-0.2c0-0.1,0-0.2,0-0.2
			v-0.1v-0.1c0,0,0-0.1-0.1-0.1c0-0.1,0-0.1,0-0.2c0-0.1-0.1-0.1-0.1-0.2c0,0,0-0.1,0-0.2c0-0.1,0-0.2,0-0.2l-0.1-0.1v-0.1
			c0-0.1,0-0.1,0-0.1s0-0.1-0.1-0.1c0,0,0-0.1-0.1-0.1c0,0,0-0.1,0-0.2c0-0.1,0-0.2,0-0.3h-0.1c0,0,0-0.1,0-0.2s0-0.2-0.1-0.2
			c0.1-0.2,0.1-0.4,0-0.5c0,0,0,0,0.1,0l0,0c0.1-0.1,0.1-0.2,0.1-0.3c0.1-0.1,0.2-0.2,0.3-0.3c0.1-0.1,0.2-0.2,0.3-0.2l0.1,0.1
			c0,0,0.1-0.1,0.3-0.1c0,0,0.1,0.1,0.2,0.1s0.2,0.1,0.2,0.1s0.1,0.1,0.2,0.2c0,0,0,0,0.1,0c0,0,0,0,0.1,0c0,0,0,0.1,0.1,0.1
			c0.1,0.1,0.1,0.1,0.1,0.1s0,0.1,0.1,0.1v0.1l0.1,0.1c0,0.1,0.1,0.1,0.1,0.1v0.1c0,0,0.1,0.1,0.1,0.2c0,0.1,0.1,0.2,0.1,0.2
			s0,0.1,0,0.3c0,0.1,0,0.2,0,0.3c0,0,0,0.1,0.1,0.1v0.1v0.1v0.1v0.1v0.1c0,0,0.1,0.1,0.1,0.2c0,0.1,0,0.2,0,0.2v0.1v0.1
			c0,0.1,0,0.1,0.1,0.2L88.6,42.6C88.5,42.5,88.6,42.6,88.6,42.6z"/>
	</g>
</g>
<g id="Layer_2" class="st1">
	<circle class="st2" cx="50" cy="50" r="50"/>
</g>
</svg>
