<?xml version="1.0" encoding="utf-8"?>
<!-- Generator: Adobe Illustrator 19.0.1, SVG Export Plug-In . SVG Version: 6.00 Build 0)  -->
<svg version="1.1" id="Layer_1" xmlns="http://www.w3.org/2000/svg" xmlns:xlink="http://www.w3.org/1999/xlink" x="0px" y="0px"
	 viewBox="0 0 100 100" style="enable-background:new 0 0 100 100;" xml:space="preserve">
<style type="text/css">
	.st0{fill:#C35B28;}
</style>
<g>
	<path class="st0" d="M19.3,43.2C19.3,43.3,19.3,43.3,19.3,43.2c0.1,0.1,0.1,0.1,0.1,0.1c0.1,0,0.3,0,0.3,0.1h0.1
		c0.1,0,0.1,0.1,0.1,0.1s0,0,0.1,0c0,0,0,0,0.1,0c0,0,0.1,0,0.2,0s0.1,0,0.2,0h0.1c0,0,0,0,0.1,0l0,0c0,0,0,0,0.1,0h0.1H21h0.1
		c0,0,0,0,0.1,0c0,0,0,0,0.1,0c0.2,0.1,0.3,0.1,0.3,0.1c0-0.1,0.1-0.1,0.2-0.1c0,0.1,0.1,0.1,0.1,0.2c0.1,0,0.2,0,0.4,0l0.1-0.1
		c0,0,0.1,0,0.1,0.1c0,0,0.1,0,0.2,0s0.2,0,0.2,0l0,0l0,0l0.1,0.1h0.4c0,0,0.1,0,0.2,0.1c0.1,0,0.2,0.1,0.2,0.1c0.1,0,0.2,0,0.3,0
		c0.2,0,0.3,0,0.3,0s0,0,0,0.1c0,0,0,0,0.1,0s0.2,0,0.3-0.1c0,0,0,0,0,0.1l0,0c0,0,0.1,0,0.2,0.1c0.1,0,0.2,0.1,0.2,0.1h0.1
		c0.1,0,0.1,0,0.1,0s0,0,0.1,0c0,0,0,0,0.1,0v0.1c0,0.1,0.1,0.1,0.2,0.1h0.1l0.1,0.1c0.1,0,0.1,0,0.2,0s0.2,0,0.2,0s0.1,0.1,0.2,0.2
		l0.1,0.1h0.1c0.1,0,0.1,0,0.1,0c0,0.1,0.1,0.2,0.2,0.2c0,0,0.1,0.1,0.2,0.1c0.1,0.1,0.2,0.1,0.2,0.1c0.1,0,0.2,0,0.3,0.1
		c0,0,0,0.1,0.1,0.1H28l0.1,0.1c0.1,0.1,0.1,0.1,0.1,0.1c0.1,0,0.2,0.1,0.2,0.1s0,0,0,0.1s0,0.1,0,0.1l0.1,0.1c0.1,0,0.1,0,0.2,0.1
		v0.1v0.1l0.1,0.1l0.1,0.1c0,0.1,0,0.2,0.1,0.3c0,0,0,0.1,0,0.2c0,0.1,0,0.2,0.1,0.2v0.1c0,0.1,0,0.1,0,0.1c0,0.1,0,0.1,0,0.1v0.1
		c0,0.1,0,0.1,0,0.1s0,0.2,0,0.4H29c0,0,0,0.1,0,0.2c0,0.1,0,0.1,0,0.1s0,0.1-0.1,0.1c0,0.1,0,0.2-0.1,0.3s-0.1,0.1-0.1,0.2
		c-0.1,0-0.2,0.2-0.3,0.5c0,0-0.1,0-0.1,0.1c0,0,0,0,0,0.1c0,0,0,0-0.1,0l0,0c0,0,0,0-0.1,0.1L28,50c-0.1,0-0.2,0.1-0.2,0.4
		c-0.2,0.1-0.3,0.2-0.3,0.3c-0.2,0.1-0.3,0.3-0.3,0.3s-0.1,0.1-0.2,0.2c-0.1,0.1-0.1,0.1-0.2,0.2h-0.1l-0.3,0.3h-0.1
		c0,0-0.1,0.1-0.2,0.2C26,52,25.9,52,25.8,52c0,0.1-0.1,0.2-0.2,0.2c-0.1,0.1-0.2,0.1-0.2,0.1s-0.1,0-0.2,0.1l0,0l0,0
		c0,0-0.1,0.1-0.3,0.2c-0.1,0-0.2,0-0.3,0.1l-0.1,0.1l0,0c0,0,0,0-0.1,0l-0.1,0.1C24.2,53,24.2,53,24.1,53s-0.1,0-0.2,0.1
		c-0.1,0-0.1,0.1-0.1,0.1s0,0-0.1,0.1c0,0,0,0-0.1,0h-0.1c0,0.1-0.1,0.1-0.3,0.2c-0.1,0-0.1,0-0.2,0c0,0.1,0,0.1,0,0.2
		c0.1,0.1,0,0.1,0,0.2l0,0l0,0c0,0,0,0,0,0.1v0.1c0,0,0,0,0,0.1v0.1c0,0.1,0,0.2,0,0.3s0,0.2,0,0.3V55c0,0.1,0,0.1,0,0.1
		c0,0.1,0,0.1,0,0.1s0,0,0,0.1v0.1c0,0,0,0,0.1,0l0,0c0,0,0,0.1,0,0.4c0,0,0.1,0,0.1,0.1V56c0,0.1,0,0.1,0,0.1c0,0.2,0,0.3,0.1,0.3
		c0,0,0,0,0.1,0c-0.1,0.1-0.1,0.2,0,0.3c0,0.1,0,0.1,0,0.1s0,0,0.1,0l0,0c0,0,0,0.1,0,0.3c-0.1,0-0.1,0.1-0.1,0.3c0,0.1,0,0.3,0,0.3
		h-0.1c0,0,0,0-0.1,0c0,0-0.1,0.1,0,0.1c0,0.1,0,0.1,0,0.1S23.1,58,23,58.1c-0.1,0.1-0.1,0.1-0.2,0.1c0,0.1-0.1,0.1-0.1,0.1
		c0-0.1,0-0.2,0-0.2c-0.1,0-0.2,0-0.3,0.1c-0.1,0-0.1,0.1-0.1,0.1c-0.1-0.1-0.1-0.2-0.1-0.2l0,0c0,0,0,0-0.1,0L22,58
		c0-0.1-0.1-0.1-0.1-0.1s-0.1,0-0.1,0.1c0.2,0,0.1,0,0.1,0c0-0.1-0.1-0.2-0.1-0.2h-0.1c-0.1-0.1-0.2-0.2-0.2-0.3s0-0.1,0-0.1
		s0,0,0-0.1v-0.1v-0.1c0,0,0-0.1,0-0.2s0-0.1,0-0.1s0,0-0.1-0.1c0,0,0-0.1,0-0.2c0-0.1,0-0.1,0-0.1v-0.1v-0.1c0,0,0-0.1,0-0.3
		c0-0.1,0-0.2,0-0.3c0,0-0.1-0.1-0.1-0.2c0-0.1-0.1-0.1-0.1-0.1s0,0,0-0.1c0,0,0,0,0.1,0l0,0c0,0,0-0.1,0-0.2c0-0.1,0-0.2,0-0.3
		c0,0,0,0,0-0.1c0,0,0,0,0-0.1c0,0,0-0.1,0-0.2c-0.1,0-0.1-0.1-0.1-0.3s0-0.3,0-0.3v-0.1c0-0.2-0.1-0.3-0.1-0.3c0-0.1,0-0.3,0-0.5
		c0,0-0.1,0-0.1-0.1s-0.1-0.1-0.1-0.1l0,0l0,0v-0.1c0-0.1,0-0.1,0-0.2c0,0,0,0-0.1-0.1c0,0,0,0,0-0.1c0.1-0.1,0-0.2-0.2-0.2
		c0-0.1,0-0.1,0.1-0.2c0-0.2-0.1-0.3-0.1-0.3s0,0,0-0.1c0,0,0,0,0.1-0.1c0-0.1,0-0.1-0.1-0.2c0,0,0-0.1,0-0.2c0-0.1-0.1-0.1-0.1-0.1
		s0,0,0-0.1s0-0.1,0-0.1s0-0.1,0-0.3c0-0.1,0-0.1,0-0.1V50c0,0,0-0.1-0.1-0.1c0,0,0,0,0-0.1c0,0,0,0,0-0.1s0-0.2-0.1-0.3
		c0-0.1,0-0.3-0.1-0.3s-0.1,0.1-0.1,0V49l0,0v-0.1c0-0.1,0-0.1,0-0.1s0,0,0-0.1c0,0,0,0,0-0.1c0,0,0,0,0-0.1s0-0.1,0-0.1
		c0-0.1-0.1-0.2-0.2-0.3c0.1-0.3,0-0.4-0.1-0.4v-0.1v-0.1v-0.1l0,0l0,0l0,0c0,0,0,0,0-0.1c0-0.2,0-0.3-0.1-0.3
		c0-0.4-0.1-0.6-0.1-0.7c0-0.1-0.1-0.1-0.1-0.1s0-0.1,0-0.2c0-0.1,0-0.1,0-0.2l-0.1-0.1c0,0,0-0.1,0-0.2c0-0.1,0-0.2,0-0.2
		s0.1-0.1,0.2-0.1v-0.1V45c0,0,0-0.1-0.1-0.1h-0.1h-0.1c-0.1,0-0.1,0-0.1-0.1c-0.1,0-0.2,0-0.2-0.1c0,0-0.1,0-0.2,0
		s-0.1-0.1-0.2-0.1c0,0,0-0.1-0.1-0.1h-0.1c0-0.1-0.1-0.1-0.1-0.2c-0.1-0.1-0.1-0.2-0.1-0.2h-0.1c0-0.1-0.1-0.1-0.1-0.2
		s-0.1-0.1-0.1-0.1v-0.1c0-0.1,0-0.1,0-0.1v-0.1c0,0,0,0,0-0.1v-0.1c0,0,0,0,0-0.1v-0.1c0,0,0-0.1,0-0.2c0-0.1,0-0.1,0-0.1
		s0.1-0.1,0.2-0.1s0.1-0.1,0.2-0.1c0,0,0,0,0-0.1c0,0,0,0,0.1-0.1c0.1,0,0.2,0,0.2,0h0.1h0.1c0,0,0.1,0,0.2,0c0,0,0.1-0.1,0.2,0
		C19.2,43.2,19.2,43.3,19.3,43.2z M19.4,43.4c0.1,0,0.3,0,0.3,0.1h0.1c0.1,0,0.1,0.1,0.1,0.1s0,0,0.1,0c0,0,0,0,0.1,0
		c0,0,0.1,0,0.2,0s0.1,0,0.2,0h0.1c0,0,0,0,0.1,0l0,0c0,0,0,0,0.1,0h0.1H21h0.1c0,0,0,0,0.1,0c0,0,0,0,0.1,0
		c0.2,0.1,0.3,0.1,0.3,0.1c0-0.1,0.1-0.1,0.2-0.1c0,0.1,0.1,0.1,0.1,0.2c0.1,0,0.2,0,0.4,0l0.1-0.1c0,0,0.1,0,0.1,0.1
		c0,0,0.1,0,0.2,0s0.2,0,0.2,0l0,0l0,0l0.1,0.1h0.4c0,0,0.1,0,0.2,0.1c0.1,0,0.2,0.1,0.2,0.1c0.1,0,0.2,0,0.3,0c0.2,0,0.3,0,0.3,0
		s0,0,0,0.1c0,0,0,0,0.1,0s0.2,0,0.3-0.1c0,0,0,0,0,0.1l0,0c0,0,0.1,0,0.2,0.1c0.1,0,0.2,0.1,0.2,0.1h0.1c0.1,0,0.1,0,0.1,0
		s0,0,0.1,0c0,0,0,0,0.1,0v0.1c0,0.1,0.1,0.1,0.2,0.1h0.1l0.1,0.1c0.1,0,0.1,0,0.2,0s0.2,0,0.2,0s0.1,0.1,0.2,0.2l0.1,0.1h0.1
		c0.1,0,0.1,0,0.1,0c0,0.1,0.1,0.2,0.2,0.2c0,0,0.1,0.1,0.2,0.1c0.1,0.1,0.2,0.1,0.2,0.1c0.1,0,0.2,0,0.3,0.1c0,0,0,0.1,0.1,0.1l0,0
		c0,0,0,0,0.1,0l0.1,0.1c0.1,0.1,0.1,0.1,0.1,0.1c0.1,0,0.2,0.1,0.2,0.1s0,0,0,0.1s0,0.1,0,0.1l0.1,0.1c0.1,0,0.1,0,0.2,0.1v0.1v0.1
		l0.1,0.1l0.1,0.1c0,0.1,0,0.2,0.1,0.3c0,0,0,0.1,0,0.2c0,0.1,0,0.2,0.1,0.2v0.1c0,0.1,0,0.1,0,0.1c0,0.1,0,0.1,0,0.1v0.1
		c0,0.1,0,0.1,0,0.1s0,0.2,0,0.4H29c0,0,0,0.1,0,0.2c0,0.1,0,0.1,0,0.1s0,0.1-0.1,0.1c0,0.1,0,0.2-0.1,0.3s-0.1,0.1-0.1,0.2
		c-0.1,0-0.2,0.2-0.3,0.5c0,0-0.1,0-0.1,0.1c0,0,0,0,0,0.1c0,0,0,0-0.1,0l0,0c0,0,0,0-0.1,0.1L28,50.1c-0.1,0-0.2,0.1-0.2,0.4
		c-0.2,0.1-0.3,0.2-0.3,0.3c-0.2,0.1-0.3,0.3-0.3,0.3s-0.1,0.1-0.2,0.2c-0.1,0.1-0.1,0.1-0.2,0.2h-0.1l-0.3,0.3h-0.1
		c0,0-0.1,0.1-0.2,0.2c-0.1,0.1-0.2,0.1-0.3,0.1c0,0.1-0.1,0.2-0.2,0.2c-0.1,0.1-0.2,0.1-0.2,0.1s-0.1,0-0.2,0.1l0,0l0,0
		c0,0-0.1,0.1-0.3,0.2c-0.1,0-0.2,0-0.3,0.1l-0.1,0.1l0,0c0,0,0,0-0.1,0L24.3,53c-0.1,0.1-0.1,0.1-0.2,0.1s-0.1,0-0.2,0.1
		c-0.1,0-0.1,0.1-0.1,0.1s0,0-0.1,0.1c0,0,0,0-0.1,0h-0.1c0,0.1-0.1,0.1-0.3,0.2c-0.1,0-0.1,0-0.2,0c0,0.1,0,0.1,0,0.2
		c0.1,0.1,0,0.1,0,0.2l0,0l0,0c0,0,0,0,0,0.1v0.1c0,0,0,0,0,0.1v0.1c0,0.1,0,0.2,0,0.3s0,0.2,0,0.3v0.1c0,0.1,0,0.1,0,0.1
		c0,0.1,0,0.1,0,0.1s0,0,0,0.1v0.1c0,0,0,0,0.1,0l0,0c0,0,0,0.1,0,0.4c0,0,0.1,0,0.1,0.1v0.1c0,0.1,0,0.1,0,0.1c0,0.2,0,0.3,0.1,0.3
		c0,0,0,0,0.1,0c-0.1,0.1-0.1,0.2,0,0.3c0,0.1,0,0.1,0,0.1s0,0,0.1,0l0,0c0,0,0,0.1,0,0.3c-0.1,0-0.1,0.1-0.1,0.3c0,0.1,0,0.3,0,0.3
		h-0.1c0,0,0,0-0.1,0c0,0-0.1,0.1,0,0.1c0,0.1,0,0.1,0,0.1s-0.1,0.1-0.2,0.2c-0.1,0.1-0.1,0.1-0.2,0.1c0,0.1-0.1,0.1-0.1,0.1
		c0-0.1,0-0.2,0-0.2c-0.1,0-0.2,0-0.3,0.1c-0.1,0-0.1,0.1-0.1,0.1c-0.1-0.1-0.1-0.2-0.1-0.2l0,0c0,0,0,0-0.1,0L22,58.1
		c0-0.1-0.1-0.1-0.1-0.1s-0.1,0-0.1,0.1C22,58,21.9,58,21.9,58c0-0.1-0.1-0.2-0.1-0.2h-0.1c-0.1-0.1-0.2-0.2-0.2-0.3s0-0.1,0-0.1
		s0,0,0-0.1v-0.1v-0.1c0,0,0-0.1,0-0.2s0-0.1,0-0.1s0,0-0.1-0.1c0,0,0-0.1,0-0.2c0-0.1,0-0.1,0-0.1v-0.1v-0.1c0,0,0-0.1,0-0.3
		c0-0.1,0-0.2,0-0.3c0,0-0.1-0.1-0.1-0.2c0-0.1-0.1-0.1-0.1-0.1s0,0,0-0.1c0,0,0,0,0.1,0l0,0c0,0,0-0.1,0-0.2c0-0.1,0-0.2,0-0.3
		c0,0,0,0,0-0.1c0,0,0,0,0-0.1c0,0,0-0.1,0-0.2c-0.1,0-0.1-0.1-0.1-0.3s0-0.3,0-0.3v-0.1c0-0.2-0.1-0.3-0.1-0.3c0-0.1,0-0.3,0-0.5
		c0,0-0.1,0-0.1-0.1s-0.1-0.1-0.1-0.1l0,0l0,0v-0.1c0-0.1,0-0.1,0-0.2c0,0,0,0-0.1-0.1c0,0,0,0,0-0.1c0.1-0.1,0-0.2-0.2-0.2
		c0-0.1,0-0.1,0.1-0.2c0-0.2-0.1-0.3-0.1-0.3s0,0,0-0.1c0,0,0,0,0.1-0.1c0-0.1,0-0.1-0.1-0.2c0,0,0-0.1,0-0.2c0-0.1-0.1-0.1-0.1-0.1
		s0,0,0-0.1s0-0.1,0-0.1s0-0.1,0-0.3c0-0.1,0-0.1,0-0.1V50c0,0,0-0.1-0.1-0.1c0,0,0,0,0-0.1c0,0,0,0,0-0.1s0-0.2-0.1-0.3
		c0-0.1,0-0.3-0.1-0.3s-0.1,0.1-0.1,0V49l0,0v-0.1c0-0.1,0-0.1,0-0.1s0,0,0-0.1c0,0,0,0,0-0.1c0,0,0,0,0-0.1s0-0.1,0-0.1
		c0-0.1-0.1-0.2-0.2-0.3c0.1-0.3,0-0.4-0.1-0.4v-0.1v-0.1v-0.1l0,0l0,0l0,0c0,0,0,0,0-0.1c0-0.2,0-0.3-0.1-0.3
		c0-0.4-0.1-0.6-0.1-0.7c0-0.1-0.1-0.1-0.1-0.1s0-0.1,0-0.2c0-0.1,0-0.1,0-0.2l-0.1-0.1c0,0,0-0.1,0-0.2c0-0.1,0-0.2,0-0.2
		s0.1-0.1,0.2-0.1v-0.1V45c0,0,0-0.1-0.1-0.1h-0.1h-0.1c-0.1,0-0.1,0-0.1-0.1c-0.1,0-0.2,0-0.2-0.1c0,0-0.1,0-0.2,0
		s-0.1-0.1-0.2-0.1c0,0,0-0.1-0.1-0.1h-0.1c0-0.1-0.1-0.1-0.1-0.2c-0.1-0.1-0.1-0.2-0.1-0.2h-0.1c0-0.1-0.1-0.1-0.1-0.2
		s-0.1-0.1-0.1-0.1v-0.1c0-0.1,0-0.1,0-0.1v-0.1c0,0,0,0,0-0.1v-0.1c0,0,0,0,0-0.1v-0.1c0,0,0-0.1,0-0.2c0-0.1,0-0.1,0-0.1
		s0.1-0.1,0.2-0.1s0.1-0.1,0.2-0.1c0,0,0,0,0-0.1c0,0,0,0,0.1-0.1c0.1,0,0.2,0,0.2,0h0.1h0.1c0,0,0.1,0,0.2,0c0,0,0.1-0.1,0.2,0
		c0.1,0,0.1,0.1,0.2,0C19.3,43.3,19.3,43.3,19.4,43.4C19.4,43.3,19.4,43.4,19.4,43.4z M24.5,46.4c-0.1,0-0.1,0-0.1,0s-0.1,0-0.2-0.1
		c-0.1,0-0.1,0-0.2,0s-0.1,0-0.2,0s-0.1,0-0.1,0s0,0-0.1,0s-0.1,0-0.1,0s0,0-0.1,0h-0.1c-0.1,0-0.3,0-0.4-0.1L22.6,46
		c0,0-0.1,0-0.2,0s-0.1,0-0.2,0c0,0-0.1,0-0.3,0c-0.1,0-0.2-0.1-0.2-0.1s0,0-0.1,0h-0.1c0,0,0,0-0.1,0s-0.1,0-0.1,0
		c-0.1,0-0.1,0-0.1,0.1c0,0,0,0.1,0.1,0.1v0.1c0,0.1,0,0.1,0,0.1s0,0.1,0.1,0.1v0.1c0,0,0,0.1,0.1,0.3v0.1V47c0,0,0,0.1,0,0.2
		c0,0.1,0,0.2,0,0.2s0,0,0.1,0.1v0.1v0.1c0,0.1,0,0.1,0,0.1s0,0.1,0.1,0.2c0,0.1,0,0.1,0,0.2v0.1c0,0.1,0,0.1,0,0.1s0,0,0,0.1v0.1
		v0.1c0,0.1,0,0.1,0,0.2c0,0,0,0,0,0.1v0.1c0,0,0,0.1,0,0.3c0,0,0,0.1,0.1,0.1c0,0.1,0,0.2,0,0.3s0,0.2,0,0.3c0,0,0.1,0.1,0.1,0.2
		c0,0.1,0,0.1,0,0.1s0,0.1,0.1,0.1v0.1c0,0,0,0.1,0,0.2c0,0.1,0,0.1,0,0.1s0,0,0,0.1l0.1,0.1v0.1v0.1c0,0,0,0,0,0.1l0,0
		c0,0.1,0,0.1,0,0.1h0.1c0.1,0,0.1-0.1,0.1-0.1s0,0,0.1,0s0.1,0,0.1,0s0,0,0.1,0h0.1l0,0c0,0,0,0,0.1,0h0.1c0.1,0,0.1,0,0.1,0v-0.1
		v-0.1h0.1c0,0,0.1-0.1,0.2-0.1c0.1-0.1,0.2-0.1,0.2-0.2c0.1,0,0.1,0,0.1,0s0.1-0.1,0.2-0.1c0.1-0.1,0.2-0.1,0.2-0.1l0.1-0.1
		c0.1-0.1,0.1-0.1,0.1-0.1c0.3-0.2,0.5-0.3,0.5-0.3c0-0.1,0.1-0.2,0.3-0.3c0,0,0-0.1,0.1-0.2c0,0,0-0.1,0.1-0.1
		c0-0.1,0.1-0.1,0.1-0.1s0.1-0.1,0.2-0.1c0,0,0-0.1,0.1-0.2c0-0.1,0.1-0.1,0.1-0.2c0.1-0.1,0.2-0.3,0.2-0.3l0.1-0.1
		c0-0.1,0.1-0.1,0.1-0.1v-0.1l0,0l0,0c0,0,0,0,0-0.1c0,0,0,0,0-0.1v-0.1V48c0,0,0-0.1,0-0.2c0-0.1,0-0.1,0-0.1L26,47.6
		c-0.1,0-0.2-0.1-0.3-0.2c0,0,0,0-0.1,0h-0.1c0,0,0,0-0.1-0.1c0,0,0,0-0.1,0h-0.1c0,0,0,0-0.1,0l0,0c0,0,0,0-0.1,0h-0.1
		c0,0,0,0-0.1,0c0,0,0,0-0.1,0c0,0-0.1,0-0.2,0s-0.1,0-0.2,0c0,0,0,0-0.1,0l0,0c0,0-0.1,0-0.2,0c0,0-0.1,0-0.1-0.1
		C24.6,46.4,24.6,46.4,24.5,46.4z M24.7,46.5L24.7,46.5c-0.1-0.1-0.2-0.1-0.2-0.1c-0.1,0-0.1,0-0.1,0s-0.1,0-0.2,0s-0.1-0.1-0.2-0.1
		s-0.1,0-0.2,0s-0.1,0-0.1,0s0,0-0.1,0s-0.1,0-0.1,0s0,0-0.1,0h-0.1c-0.1,0-0.3,0-0.4-0.1L22.6,46c0,0-0.1,0-0.2,0s-0.1,0-0.2,0
		c0,0-0.1,0-0.3,0c-0.1,0-0.2-0.1-0.2-0.1s0,0-0.1,0h-0.1c0,0,0,0-0.1,0s-0.1,0-0.1,0c-0.1,0-0.1,0-0.1,0.1c0,0,0,0.1,0.1,0.1v0.1
		c0,0.1,0,0.1,0,0.1s0,0.1,0.1,0.1v0.1c0,0,0,0.1,0.1,0.3v0.1V47c0,0,0,0.1,0,0.2c0,0.1,0,0.2,0,0.2s0,0,0.1,0.1v0.1v0.1
		c0,0.1,0,0.1,0,0.1s0,0.1,0.1,0.2c0,0.1,0,0.1,0,0.2v0.1c0,0.1,0,0.1,0,0.1s0,0,0,0.1v0.1v0.1v0.1c0,0,0,0,0,0.1V49
		c0,0,0,0.1,0,0.3c0,0,0,0.1,0.1,0.1c0,0.1,0,0.2,0,0.3s0,0.2,0,0.3c0,0,0.1,0.1,0.1,0.2c0,0.1,0,0.1,0,0.1s0,0.1,0.1,0.1v0.1
		c0,0,0,0.1,0,0.2c0,0.1,0,0.1,0,0.1s0,0,0,0.1l0.1,0.1v0.1v0.1c0,0,0,0,0,0.1l0,0c0,0.1,0,0.1,0,0.1h0.1c0.1,0,0.1-0.1,0.1-0.1
		s0,0,0.1,0s0.1,0,0.1,0s0,0,0.1,0h0.1l0,0c0,0,0,0,0.1,0h0.1c0.1,0,0.1,0,0.1,0v-0.1v-0.1h0.1c0,0,0.1-0.1,0.2-0.1
		c0.1-0.1,0.2-0.1,0.2-0.2c0.1,0,0.1,0,0.1,0s0.1-0.1,0.2-0.1c0.1-0.1,0.2-0.1,0.2-0.1l0.1-0.1c0.1-0.1,0.1-0.1,0.1-0.1
		c0.3-0.2,0.5-0.3,0.5-0.3c0-0.1,0.1-0.2,0.3-0.3c0,0,0-0.1,0.1-0.2c0,0,0-0.1,0.1-0.1c0-0.1,0.1-0.1,0.1-0.1s0.1-0.1,0.2-0.1
		c0,0,0-0.1,0.1-0.2c0-0.1,0.1-0.1,0.1-0.2c0.1-0.1,0.2-0.3,0.2-0.3l0.1-0.1c0-0.1,0.1-0.1,0.1-0.1v-0.1l0,0l0,0v-0.1v-0.1V48
		c0,0,0-0.1,0-0.2c0-0.1,0-0.1,0-0.1L26,47.6c-0.1,0-0.2-0.1-0.3-0.2c0,0,0,0-0.1,0h-0.1c0,0,0,0-0.1-0.1c0,0,0,0-0.1,0h-0.1
		c0,0,0,0-0.1,0l0,0c0,0,0,0-0.1,0h-0.1c0,0,0,0-0.1,0c0,0,0,0-0.1,0c0,0-0.1,0-0.2,0s-0.1,0-0.2,0c0,0,0,0-0.1,0l0,0
		C24.2,47.3,24.9,46.5,24.7,46.5z"/>
	<path class="st0" d="M38.2,38.6c0,0.1,0.1,0.1,0.2,0.2c0,0,0-0.1,0.1-0.1l0,0h0.1v0.1c0,0,0,0,0.1,0.1c0.1,0,0.1,0.1,0.1,0.2
		c0,0.1,0.1,0.1,0.2,0.2c0.1,0.1,0.2,0.1,0.3,0.1c0,0.1,0,0.1-0.1,0.1h-0.1c0,0,0,0.1,0.1,0.2c0,0,0,0.1,0,0.2c0,0.1,0,0.1,0,0.1
		v0.1c0,0.1,0,0.1,0,0.1s0,0,0,0.1c0,0,0,0,0.1,0.1c0,0,0,0,0,0.1s0,0.1,0,0.1s0,0,0,0.1c0,0,0,0,0,0.1s0,0.2,0.1,0.2
		c0,0.2,0.1,0.4,0.1,0.4c0,0.2,0,0.3,0.1,0.4c0,0.1,0,0.1,0,0.2c0,0.1,0.1,0.2,0,0.2v0.1v0.1c0,0.1,0,0.1,0,0.1s0,0,0.1,0s0,0,0.1,0
		c0,0.2,0,0.3,0,0.3v0.1l0,0l0,0l0,0c0,0,0,0,0,0.1v0.1c0,0.1,0,0.2,0.1,0.4s0.1,0.3,0,0.5c0.1,0.1,0.2,0.2,0.2,0.4v0.1l0,0
		c0,0,0,0,0,0.1v0.1v0.1c0,0,0,0,0,0.1c0,0,0,0.1,0.1,0.1v0.1c0,0.1,0,0.1,0,0.1s0,0.1,0.1,0.1c0,0.1,0.1,0.1,0,0.1l0.1,0.1
		c0,0,0,0.1-0.1,0.1c0,0,0,0.1,0,0.2v0.1l0,0l0,0l0,0c0.1,0.1,0.1,0.2,0,0.3c0,0.2,0.1,0.4,0.1,0.4h0.1c0,0,0,0.1,0,0.4v0.1
		c0,0,0,0.1,0.1,0.1v0.1c0,0.1,0,0.1,0,0.2s0,0.1,0,0.1c0,0.1,0,0.1,0.1,0.1c0,0.1,0,0.1,0,0.2c0,0,0,0,0,0.1v0.1c0,0,0,0.1,0.1,0.1
		c0,0.2,0.1,0.3,0.1,0.3c0,0.1-0.1,0.1,0,0.2l0,0c0,0,0,0,0,0.1s0,0.1,0,0.1s0,0.1,0.1,0.1c0,0.1,0,0.1,0,0.1s0,0.1,0,0.2
		c0,0.1,0,0.2,0,0.3c0,0,0,0,0,0.1v0.1c0,0.2,0.1,0.3,0.1,0.3s0.1,0,0.2,0.1c0.1,0,0.1,0.1,0.2,0.1c0,0,0,0,0,0.1c0,0,0,0.1,0.1,0.1
		s0.1,0,0.2,0.1c0,0.1,0,0.2,0,0.2c0.1,0.1,0.1,0.2,0,0.2l0.1,0.1c0,0.1-0.1,0.1-0.2,0.1c0,0,0,0.1,0,0.2c0,0.1,0,0.2,0,0.2
		c-0.1,0-0.1,0-0.1,0.1c0,0,0,0.1,0,0.2V52c0,0,0,0,0,0.1v0.1c0,0,0,0,0,0.1s0,0.1,0,0.1v0.1c0,0.1,0,0.2,0.1,0.2
		c0,0.3,0.1,0.5,0.2,0.6c0,0.2,0,0.4,0.1,0.4c0,0.1,0,0.1,0.1,0.2c0,0,0,0,0.1,0l0,0V54v0.1v0.1c0,0,0,0,0.1,0.1c0,0.1,0,0.1,0,0.2
		c0.1,0.1,0.1,0.1,0.1,0.2c0,0,0.1,0.1,0.1,0.2c0,0,0.1,0.1,0.2,0.3c0,0.1,0.1,0.2,0.2,0.2v0.1c0,0.1,0.1,0.1,0.1,0.1
		c0.1,0,0.2,0.1,0.2,0.3c0,0,0,0,0.1,0.1s0,0.1,0,0.1v0.1v0.1c0,0.1,0,0.2,0,0.3s0,0.2,0,0.2c0.1,0,0.1,0.1,0,0.3
		c-0.1,0-0.1,0.1-0.2,0.2c-0.1,0-0.1,0.1-0.2,0.2c-0.1,0.1-0.2,0.1-0.3,0.1c0,0,0,0,0,0.1s0,0,0,0.1h-0.3c0-0.1-0.1-0.2-0.2-0.2
		c-0.1-0.1-0.1-0.1-0.2-0.1c-0.1,0-0.2,0-0.3-0.1c0,0,0,0,0,0.1l0,0c0,0-0.1,0-0.1-0.1v-0.1l-0.1-0.1c-0.2-0.2-0.3-0.3-0.4-0.3
		c0-0.2-0.1-0.3-0.2-0.3v-0.1l0,0c0,0-0.1-0.1-0.1-0.2C41.1,56,41,56,41,55.9h-0.1c0-0.1,0-0.3-0.1-0.3c0-0.1,0-0.2-0.1-0.3
		c0,0,0,0-0.1,0l0,0v-0.1c0-0.1,0-0.1,0-0.1V55c0-0.1,0-0.1,0-0.2h-0.2l0.1-0.1c0-0.1,0-0.1-0.1-0.2c0-0.2,0-0.3-0.1-0.3v-0.1V54
		c0,0,0,0,0-0.1c0,0,0,0,0-0.1c0,0,0-0.1,0-0.2c0-0.1,0-0.1,0-0.2c0-0.2-0.1-0.3-0.1-0.3V53v-0.1c0,0,0,0,0-0.1v-0.1v-0.1v-0.1l0,0
		l0,0c0-0.1-0.1-0.1-0.1-0.2H40c-0.1,0-0.1,0-0.1,0c-0.1,0-0.2,0-0.2,0.1l0,0l0,0c0,0,0,0-0.1,0c0,0,0,0-0.1,0c0,0-0.1,0-0.1,0.1
		c0,0,0,0-0.1-0.1h-0.1h-0.1c0,0-0.1-0.1-0.1,0c-0.1,0-0.1,0.1-0.1,0.1c-0.1,0-0.2,0-0.2,0c0-0.1-0.1-0.1-0.2-0.1c0,0,0,0-0.1,0.1
		c0,0-0.1,0-0.2-0.1c-0.1,0-0.2,0-0.3,0.1c-0.1,0-0.2,0-0.2,0c-0.1,0-0.2-0.1-0.3,0c-0.1,0-0.2,0-0.2,0.1c-0.4,0-0.6,0-0.6,0
		c-0.1,0-0.2,0-0.3,0s-0.2,0-0.3,0c0,0.1,0,0.1,0,0.1s-0.1,0-0.2-0.1c0,0-0.1,0-0.1,0.1c0,0-0.1,0-0.2,0c-0.1,0-0.2,0-0.2,0
		s0,0-0.1,0c0,0,0,0-0.1,0s-0.1,0-0.1,0.1c-0.1,0-0.1-0.1-0.2-0.1c0,0,0,0-0.1,0.1l-0.1,0.1c0-0.1-0.1-0.1-0.1-0.1s-0.1,0-0.1,0.1
		c-0.1,0-0.1,0.1-0.1,0.1s0,0.1-0.1,0.2c0,0.1,0,0.1-0.1,0.2v0.1c0,0,0,0-0.1,0.1c0,0,0,0-0.1,0.1c0,0,0,0.1,0,0.2
		c0,0.1,0,0.2,0,0.2l0,0l0,0v0.1c0,0,0,0.1-0.1,0.1c0,0.1,0,0.2-0.1,0.3v0.1c-0.1,0.1-0.1,0.1-0.1,0.1s0,0,0,0.1V55c0,0,0,0-0.1,0
		s-0.1,0-0.1,0.1c0,0.2-0.1,0.3-0.2,0.3c0,0,0,0.1,0,0.3h-0.1C33,55.9,33,56,33,56s0,0.1,0.1,0.2c0,0,0,0-0.1,0.1c0,0,0,0.1-0.1,0.2
		c0,0-0.1,0.1-0.1,0.2c0,0,0,0,0,0.1v0.1l0,0c0,0,0,0,0,0.1c-0.1,0.1-0.1,0.3-0.1,0.3l-0.1,0.1c0,0.1,0,0.1-0.1,0.2c0,0,0,0,0,0.1
		c0,0,0,0,0,0.1l0,0l0,0l0,0c0,0,0,0-0.1,0.1c0,0-0.1,0-0.1,0.1l-0.1,0.1c0,0,0,0-0.1,0c0,0,0,0-0.1,0h-0.1h-0.1c0-0.1,0-0.2,0-0.2
		c-0.2,0-0.3,0-0.3,0c0-0.1,0-0.1-0.1-0.2c0,0,0,0-0.1,0h-0.1l0,0l0,0h-0.1v0.1c0,0,0-0.1-0.1-0.1c-0.1-0.1-0.1-0.1-0.1-0.1
		c-0.1,0-0.1,0-0.1,0c0-0.1,0-0.1,0-0.2h-0.1c0-0.1,0-0.2,0-0.3l0,0l0,0c0.1-0.1,0.1-0.2,0.1-0.4c-0.1-0.1-0.1-0.1-0.1-0.2h0.1l0,0
		c0,0,0-0.1,0-0.2h0.1c0,0,0-0.1,0-0.2V56l0.1-0.1c0-0.1,0-0.2,0.1-0.2v-0.1v-0.1c0.1,0,0.2-0.1,0.2-0.2c0,0,0.1,0,0.1-0.1
		s0-0.1,0-0.2v-0.1v-0.1c0-0.1,0-0.1,0-0.1s0-0.1,0.1-0.1c0-0.1,0.1-0.1,0.1-0.2c0.1-0.1,0.1-0.2,0.1-0.2c0-0.1,0.1-0.2,0.1-0.2
		c0-0.1,0-0.2,0.1-0.3c0.1-0.1,0.1-0.2,0.1-0.3c0,0,0.1,0,0.1-0.1s0.1-0.1,0.1-0.1c0-0.1,0-0.1,0-0.2c0.1-0.1,0.1-0.2,0-0.3
		c0,0-0.1-0.1,0-0.1h0.1c0.1-0.1,0.1-0.2,0-0.3c-0.1,0-0.2,0-0.2,0c0-0.2-0.1-0.3-0.3-0.4l0,0l0,0c0,0,0-0.1-0.1-0.1
		s-0.1-0.1-0.1-0.1s0.1-0.1,0.2-0.3c0-0.1,0.1-0.2,0.2-0.2c0.1-0.1,0.1-0.1,0.1-0.1l0.4-0.1c0,0,0.1,0,0.3,0c0.1,0,0.2,0,0.2,0v-0.1
		c0-0.1,0-0.1,0-0.1s0,0,0.1-0.1v-0.1v-0.1c0,0,0,0,0.1-0.1c0,0,0,0,0-0.1s0.1-0.2,0.2-0.3c0.1-0.2,0.1-0.3,0-0.4c0,0,0.1,0,0.1-0.1
		s0.1-0.1,0.1-0.2c0-0.1,0-0.1,0.1-0.2c0-0.1,0.1-0.2,0-0.2c0,0,0.1-0.1,0.1-0.2c0-0.1,0.1-0.1,0.1-0.1c0-0.1,0-0.1,0.1-0.3
		c0,0,0-0.1,0.1-0.2l0,0l0,0c0.1-0.1,0.1-0.1,0.1-0.1s0,0,0-0.1s0-0.1,0-0.1s0,0,0-0.1c0.1-0.2,0.1-0.3,0.1-0.3v-0.2l0,0l0,0v-0.1
		V47c0.1-0.1,0.1-0.2,0.1-0.3c0,0,0,0,0.1-0.1c0,0,0,0,0.1-0.1v-0.1v-0.1c0,0,0,0,0.1-0.1c0,0,0,0,0-0.1V46v-0.1c0,0,0.1,0,0.1-0.1
		c0.1-0.2,0.1-0.3,0.1-0.3c0-0.1,0-0.1,0.1-0.3c0-0.1,0.1-0.2,0.1-0.3c0,0,0.1-0.1,0.1-0.3s0.1-0.2,0.1-0.3s0-0.1,0.1-0.2V44
		c0,0,0,0,0-0.1v-0.1h0.1l0.1-0.1v-0.1c0-0.1,0-0.1,0-0.2l0,0l0,0c0,0,0-0.1,0-0.2c0.1,0,0.1,0,0.1,0s0,0,0-0.1V43c0,0,0,0,0-0.1
		c0,0,0,0,0.1-0.1v-0.1c0-0.1,0-0.1,0-0.1s0-0.1,0.1-0.2c0.1-0.1,0.1-0.2,0.1-0.2c0.1,0,0.1-0.1,0.1-0.2c0-0.1,0-0.2,0-0.2v-0.1
		c0,0,0-0.1,0.1-0.1c0-0.1,0.1-0.1,0.1-0.1c0-0.1,0-0.1,0-0.2s0.1-0.1,0.1-0.1s0,0,0-0.1l0,0c0,0,0-0.1,0.1-0.1c0,0,0-0.1,0.1-0.2
		c0-0.1,0.1-0.1,0.1-0.1v-0.1c0-0.1,0-0.1,0-0.1c0.1-0.2,0.1-0.3,0.1-0.3h0.1c0-0.1,0-0.3,0.1-0.3c0-0.1,0-0.1,0.1-0.2l0,0l0,0
		c0,0,0,0-0.1,0c0-0.1,0-0.1,0-0.2h0.1v-0.1c-0.1-0.1-0.1-0.2,0-0.2s0.1,0,0.1-0.1l0,0l0,0c0,0,0-0.1,0.1-0.2v-0.1l0,0l0,0
		c0.2-0.1,0.4-0.2,0.6-0.1c0.1,0.1,0.1,0.1,0.1,0.1s0.1,0,0.1-0.1C38,38.5,38.1,38.5,38.2,38.6z M38.2,38.6c0,0.1,0.1,0.1,0.2,0.2
		c0,0,0-0.1,0.1-0.1l0,0h0.1v0.1c0,0,0,0,0.1,0.1c0.1,0,0.1,0.1,0.1,0.2c0,0.1,0.1,0.1,0.2,0.2c0.1,0.1,0.2,0.1,0.3,0.1
		c0,0.1,0,0.1-0.1,0.1h-0.1c0,0,0,0.1,0.1,0.2c0,0,0,0.1,0,0.2c0,0.1,0,0.1,0,0.1v0.1c0,0.1,0,0.1,0,0.1s0,0,0,0.1c0,0,0,0,0.1,0.1
		c0,0,0,0,0,0.1s0,0.1,0,0.1s0,0,0,0.1c0,0,0,0,0,0.1s0,0.2,0.1,0.2c0,0.2,0.1,0.4,0.1,0.4c0,0.2,0,0.3,0.1,0.4c0,0.1,0,0.1,0,0.2
		c0,0.1,0.1,0.2,0,0.2v0.1v0.1c0,0.1,0,0.1,0,0.1s0,0,0.1,0s0,0,0.1,0c0,0.2,0,0.3,0,0.3v0.1l0,0l0,0l0,0c0,0,0,0,0,0.1
		c0,0,0,0,0,0.1v0.1c0,0.1,0,0.2,0.1,0.4s0.1,0.3,0,0.5c0.1,0.1,0.2,0.2,0.2,0.4v0.1l0,0c0,0,0,0,0,0.1v0.1v0.1c0,0,0,0,0,0.1
		c0,0,0,0.1,0.1,0.1v0.1c0,0.1,0,0.1,0,0.1s0,0.1,0.1,0.1c0,0.1,0.1,0.1,0,0.1l0.1,0.1c0,0,0,0.1-0.1,0.1c0,0,0,0.1,0,0.2V46l0,0
		l0,0l0,0c0.1,0.1,0.1,0.2,0,0.3c0,0.2,0.1,0.4,0.1,0.4h0.1c0,0,0,0.1,0,0.4v0.1c0,0,0,0.1,0.1,0.1v0.1c0,0.1,0,0.1,0,0.2
		s0,0.1,0,0.1c0,0.1,0,0.1,0.1,0.1c0,0.1,0,0.1,0,0.2c0,0,0,0,0,0.1v0.1c0,0,0,0.1,0.1,0.1c0,0.2,0.1,0.3,0.1,0.3
		c0,0.1-0.1,0.1,0,0.2l0,0c0,0,0,0,0,0.1s0,0.1,0,0.1s0,0.1,0.1,0.1c0,0.1,0,0.1,0,0.1s0,0.1,0,0.2c0,0.1,0,0.2,0,0.3c0,0,0,0,0,0.1
		v0.1c0,0.2,0.1,0.3,0.1,0.3s0.1,0,0.2,0.1c0.1,0,0.1,0.1,0.2,0.1c0,0,0,0,0,0.1c0,0,0,0.1,0.1,0.1s0.1,0,0.2,0.1c0,0.1,0,0.2,0,0.2
		c0.1,0.1,0.1,0.2,0,0.2l0.1,0.1c0,0.1-0.1,0.1-0.2,0.1c0,0,0,0.1,0,0.2c0,0.1,0,0.2,0,0.2c-0.1,0-0.1,0-0.1,0.1c0,0,0,0.1,0,0.2
		v0.1c0,0,0,0,0,0.1v0.1c0,0,0,0,0,0.1s0,0.1,0,0.1v0.1c0,0.1,0,0.2,0.1,0.2c0,0.3,0.1,0.5,0.2,0.6c0,0.2,0,0.4,0.1,0.4
		c0,0.1,0,0.1,0.1,0.2h0.1v0.1v0.1v0.1c0,0,0,0,0.1,0.1c0,0.1,0,0.1,0,0.2c0.1,0.1,0.1,0.1,0.1,0.2c0,0,0.1,0.1,0.1,0.2
		c0,0,0.1,0.1,0.2,0.3c0,0.1,0.1,0.2,0.2,0.2v0.1c0,0.1,0.1,0.1,0.1,0.1c0.1,0,0.2,0.1,0.2,0.3c0,0,0,0,0.1,0.1s0,0.1,0,0.1v0.1v0.1
		c0,0.1,0,0.2,0,0.3s0,0.2,0,0.2c0.1,0,0.1,0.1,0,0.3c-0.1,0-0.1,0.1-0.2,0.2c-0.1,0-0.1,0.1-0.2,0.2c-0.1,0.1-0.2,0.1-0.3,0.1
		c0,0,0,0,0,0.1s0,0,0,0.1h-0.3c0-0.1-0.1-0.2-0.2-0.2c-0.1-0.1-0.1-0.1-0.2-0.1c-0.1,0-0.2,0-0.3-0.1c0,0,0,0,0,0.1l0,0
		c0,0-0.1,0-0.1-0.1v-0.1l-0.1-0.1C41.2,57.1,41.1,57,41,57c0-0.2-0.1-0.3-0.2-0.3v-0.1l0,0c0,0-0.1-0.1-0.1-0.2
		C41.1,56,41,56,41,55.9h-0.1c0-0.1,0-0.3-0.1-0.3c0-0.1,0-0.2-0.1-0.3c0,0,0,0-0.1,0l0,0v-0.1c0-0.1,0-0.1,0-0.1V55
		c0-0.1,0-0.1,0-0.2h-0.2l0.1-0.1c0-0.1,0-0.1-0.1-0.2c0-0.2,0-0.3-0.1-0.3v-0.1V54c0,0,0,0,0-0.1c0,0,0,0,0-0.1c0,0,0-0.1,0-0.2
		c0-0.1,0-0.1,0-0.2c0-0.2-0.1-0.3-0.1-0.3V53v-0.1c0,0,0,0,0-0.1v-0.1c0,0,0,0,0-0.1s0-0.1,0-0.1l0,0l0,0c0-0.1-0.1-0.1-0.1-0.2H40
		c-0.1,0-0.1,0-0.1,0c-0.1,0-0.2,0-0.2,0.1l0,0l0,0c0,0,0,0-0.1,0c0,0,0,0-0.1,0c0,0-0.1,0-0.1,0.1c0,0,0,0-0.1-0.1h-0.1h-0.1
		c0,0-0.1-0.1-0.1,0c-0.1,0-0.1,0.1-0.1,0.1c-0.1,0-0.2,0-0.2,0c0-0.1-0.1-0.1-0.2-0.1c0,0,0,0-0.1,0.1c0,0-0.1,0-0.2-0.1
		c-0.1,0-0.2,0-0.3,0.1c-0.1,0-0.2,0-0.2,0c-0.1,0-0.2-0.1-0.3,0c-0.1,0-0.2,0-0.2,0.1c-0.4,0-0.6,0-0.6,0c-0.1,0-0.2,0-0.3,0
		s-0.2,0-0.3,0c0,0.1,0,0.1,0,0.1s-0.1,0-0.2-0.1c0,0-0.1,0-0.1,0.1c0,0-0.1,0-0.2,0c-0.1,0-0.2,0-0.2,0s0,0-0.1,0c0,0,0,0-0.1,0
		s-0.1,0-0.1,0.1c-0.1,0-0.1-0.1-0.2-0.1c0,0,0,0-0.1,0.1l-0.1,0.1c0-0.1-0.1-0.1-0.1-0.1s-0.1,0-0.1,0.1c-0.1,0-0.1,0.1-0.1,0.1
		s0,0.1-0.1,0.2c0,0.1,0,0.1-0.1,0.2v0.1c0,0,0,0-0.1,0.1c0,0,0,0-0.1,0.1c0,0,0,0.1,0,0.2c0,0.1,0,0.2,0,0.2l0,0l0,0v0.1
		c0,0,0,0.1-0.1,0.1c0,0.1,0,0.2-0.1,0.3v0.1c-0.1,0.1-0.1,0.1-0.1,0.1s0,0,0,0.1V55c0,0,0,0-0.1,0s-0.1,0-0.1,0.1
		c0,0.2-0.1,0.3-0.2,0.3c0,0,0,0.1,0,0.3h-0.1C33,55.9,33,56,33,56s0,0.1,0.1,0.2c0,0,0,0-0.1,0.1c0,0,0,0.1-0.1,0.2
		c0,0-0.1,0.1-0.1,0.2c0,0,0,0,0,0.1v0.1l0,0c0,0,0,0,0,0.1c-0.1,0.1-0.1,0.3-0.1,0.3l-0.1,0.1c0,0.1,0,0.1-0.1,0.2c0,0,0,0,0,0.1
		c0,0,0,0,0,0.1l0,0l0,0l0,0c0,0,0,0-0.1,0.1c0,0-0.1,0-0.1,0.1l-0.1,0.1c0,0,0,0-0.1,0c0,0,0,0-0.1,0h-0.1h-0.1c0-0.1,0-0.2,0-0.2
		c-0.2,0-0.3,0-0.3,0c0-0.1,0-0.1-0.1-0.2c0,0,0,0-0.1,0h-0.1l0,0l0,0h-0.1v0.1c0,0,0-0.1-0.1-0.1c-0.1-0.1-0.1-0.1-0.1-0.1
		c-0.1,0-0.1,0-0.1,0c0-0.1,0-0.1,0-0.2h-0.1c0-0.1,0-0.2,0-0.3l0,0l0,0c0.1-0.1,0.1-0.2,0.1-0.4c-0.1-0.1-0.1-0.1-0.1-0.2h0.1l0,0
		c0,0,0-0.1,0-0.2h0.1c0,0,0-0.1,0-0.2V56l0.1-0.1c0-0.1,0-0.2,0.1-0.2v-0.1v-0.1c0.1,0,0.2-0.1,0.2-0.2c0,0,0.1,0,0.1-0.1
		s0-0.1,0-0.2v-0.1v-0.1c0-0.1,0-0.1,0-0.1s0-0.1,0.1-0.1c0-0.1,0.1-0.1,0.1-0.2c0.1-0.1,0.1-0.2,0.1-0.2c0-0.1,0.1-0.2,0.1-0.2
		c0-0.1,0-0.2,0.1-0.3c0.1-0.1,0.1-0.2,0.1-0.3c0,0,0.1,0,0.1-0.1s0.1-0.1,0.1-0.1c0-0.1,0-0.1,0-0.2c0.1-0.1,0.1-0.2,0-0.3
		c0,0-0.1-0.1,0-0.1h0.1c0.1-0.1,0.1-0.2,0-0.3c-0.1,0-0.2,0-0.2,0c0-0.2-0.1-0.3-0.3-0.4l0,0l0,0c0,0,0-0.1-0.1-0.1
		s-0.1-0.1-0.1-0.1s0.1-0.1,0.2-0.3c0-0.1,0.1-0.2,0.2-0.2c0.1-0.1,0.1-0.1,0.1-0.1l0.4-0.1c0,0,0.1,0,0.3,0c0.1,0,0.2,0,0.2,0v-0.1
		c0-0.1,0-0.1,0-0.1s0,0,0.1-0.1v-0.1v-0.1c0,0,0,0,0.1-0.1c0,0,0,0,0-0.1s0.1-0.2,0.2-0.3c0.1-0.2,0.1-0.3,0-0.4c0,0,0.1,0,0.1-0.1
		s0.1-0.1,0.1-0.2c0-0.1,0-0.1,0.1-0.2c0-0.1,0.1-0.2,0-0.2c0,0,0-0.1,0.1-0.2c0-0.1,0.1-0.1,0.1-0.1c0-0.1,0-0.1,0.1-0.3
		c0,0,0-0.1,0.1-0.2l0,0l0,0c0.1-0.1,0.1-0.1,0.1-0.1s0,0,0-0.1s0-0.1,0-0.1s0,0,0-0.1c0.1-0.2,0.1-0.3,0.1-0.3v-0.2l0,0l0,0v-0.1
		V47c0.1-0.1,0.1-0.2,0.1-0.3c0,0,0,0,0.1-0.1c0,0,0,0,0.1-0.1v-0.1v-0.1c0,0,0,0,0.1-0.1c0,0,0,0,0-0.1V46v-0.1c0,0,0.1,0,0.1-0.1
		c0.1-0.2,0.1-0.3,0.1-0.3c0-0.1,0-0.1,0.1-0.3c0-0.1,0.1-0.2,0.1-0.3c0,0,0.1-0.1,0.1-0.3s0.1-0.2,0.1-0.3s0-0.1,0.1-0.2V44
		c0,0,0,0,0-0.1v-0.1h0.1l0.1-0.1v-0.1c0-0.1,0-0.1,0-0.2l0,0l0,0c0,0,0-0.1,0-0.2c0.1,0,0.1,0,0.1,0s0,0,0-0.1V43c0,0,0,0,0-0.1
		c0,0,0,0,0.1-0.1v-0.1c0-0.1,0-0.1,0-0.1s0-0.1,0.1-0.2c0.1-0.1,0.1-0.2,0.1-0.2c0.1,0,0.1-0.1,0.1-0.2c0-0.1,0-0.2,0-0.2v-0.1
		c0,0,0-0.1,0.1-0.1c0-0.1,0.1-0.1,0.1-0.1c0-0.1,0-0.1,0-0.2s0.1-0.1,0.1-0.1s0,0,0-0.1l0,0c0,0,0-0.1,0.1-0.1c0,0,0-0.1,0.1-0.2
		c0-0.1,0.1-0.1,0.1-0.1v-0.1c0-0.1,0-0.1,0-0.1c0.1-0.2,0.1-0.3,0.1-0.3h0.1c0-0.1,0-0.3,0.1-0.3c0-0.1,0-0.1,0.1-0.2l0,0l0,0
		c0,0,0,0-0.1,0c0-0.1,0-0.1,0-0.2h0.1v-0.1c-0.1-0.1-0.1-0.2,0-0.2s0.1,0,0.1-0.1l0,0l0,0c0,0,0-0.1,0.1-0.2v-0.1l0,0l0,0
		c0.2-0.1,0.4-0.2,0.6-0.1c0.1,0.1,0.1,0.1,0.1,0.1s0.1,0,0.1-0.1C38,38.5,38.1,38.5,38.2,38.6z M32.1,52.6L32.1,52.6L32.1,52.6z
		 M32.1,52.6L32.1,52.6L32.1,52.6z M37.8,42.8C37.8,42.8,37.8,42.9,37.8,42.8L37.6,43v0.1c0,0.1,0,0.1,0,0.1c0,0.1-0.1,0.1-0.1,0.1
		l0,0c0,0,0,0,0,0.1c0,0,0,0,0,0.1c0,0,0,0,0,0.1v0.1c0,0.1,0,0.2-0.1,0.2V44c0,0-0.1,0.1-0.1,0.3l-0.1,0.1v0.1c0,0.1,0,0.1,0,0.1
		c0,0.1-0.1,0.1-0.1,0.1s0,0,0,0.1v0.1c0,0,0,0,0,0.1L37,45.1v0.1c0,0.1,0,0.1,0,0.1l-0.1,0.2v0.1c0,0,0,0,0,0.1l-0.1,0.2
		c0,0-0.1,0.1-0.1,0.2c0,0.1,0,0.2-0.1,0.2v0.1c-0.1,0.1-0.1,0.2-0.1,0.3c0,0,0,0.1-0.1,0.1c0,0.1-0.1,0.1-0.1,0.1l-0.1,0.2
		c0,0,0,0,0,0.1l0,0l0,0l0,0c0,0,0,0,0,0.1s0,0.1,0,0.1v0.1c-0.1,0.1-0.1,0.3-0.1,0.3s0,0.1-0.1,0.2c0,0.2,0,0.3,0,0.3s0,0,0,0.1
		s0,0.1,0,0.1v0.1c0,0.1,0,0.1,0,0.2c0,0,0,0-0.1,0v0.1V49c0,0.1,0,0.1,0,0.1l-0.1,0.1c-0.1,0.1-0.1,0.2-0.1,0.3
		c0,0-0.1,0.1-0.1,0.2c0,0.1-0.1,0.2-0.1,0.2c0,0.2,0,0.4-0.1,0.4c0,0.1,0,0.1-0.1,0.2c0,0,0,0-0.1,0.1v0.1c0,0,0,0,0,0.1
		c0,0,0,0,0,0.1s0.1,0.1,0.3,0c0,0,0,0,0.1,0s0.1,0,0.1,0l0,0c0,0,0,0,0.1,0h0.1c0,0,0,0,0.1,0c0,0,0,0,0.1,0c0.3,0,0.5,0,0.6-0.1
		c0.1,0.1,0.2,0.1,0.4,0c0,0,0,0,0.1,0c0,0,0.1,0,0.1-0.1c0,0,0,0,0.1,0c0,0,0,0,0.1,0c0.2,0,0.3,0,0.3,0s0,0,0.1,0c0,0,0,0,0.1,0
		c0.1,0.1,0.2,0.1,0.3,0.1l0.1-0.1c0.1,0,0.2,0,0.3,0s0.2,0,0.3,0l0.1-0.1h0.1l0.1-0.1h0.1h0.1c0,0,0.1,0,0.1-0.1
		c0.1,0,0.1-0.1,0.1-0.1v-0.1v-0.1c0,0,0,0,0-0.1s0-0.1,0-0.1l0,0c0,0,0,0,0-0.1c-0.1-0.2-0.1-0.4-0.1-0.6c0,0,0,0-0.1,0
		c0,0,0,0,0-0.1c0,0,0-0.1,0-0.2c0,0,0,0,0-0.1v-0.1c0,0,0,0,0-0.1s0-0.1,0-0.1s0,0,0-0.1v-0.1c0-0.1,0-0.1,0-0.1v-0.1V48
		c0,0,0,0-0.1-0.1s0-0.1,0-0.2l-0.1-0.1c0-0.1,0-0.1,0-0.2c0-0.1,0-0.1,0-0.2c0-0.1,0-0.2,0-0.2v-0.2c0,0,0,0,0-0.1v-0.1
		c0,0,0,0,0-0.1c0,0,0,0,0-0.1v-0.1v-0.1v-0.1c0-0.1,0-0.1,0-0.2c0,0-0.1-0.1-0.1-0.3l-0.1-0.1c0,0,0,0,0-0.1c0,0,0,0,0-0.1
		s0-0.1,0-0.1s0,0,0-0.1V45c0-0.1,0-0.2,0-0.2s0-0.1-0.1-0.1s-0.1-0.1-0.1-0.1s0,0,0-0.1s0-0.1,0-0.1s0,0,0-0.1c0,0,0,0,0-0.1v-0.1
		V44c0,0,0,0,0-0.1c0,0,0,0-0.1-0.1v-0.1c0,0,0-0.1,0-0.2c0-0.1,0-0.2,0-0.2c-0.1,0-0.1-0.2-0.1-0.5C37.9,43.1,37.8,43,37.8,42.8
		L37.8,42.8z M37.7,42.9C37.7,42.9,37.6,42.9,37.7,42.9C37.6,42.9,37.6,42.9,37.7,42.9c-0.1,0.1-0.1,0.1-0.1,0.2c0,0.1,0,0.1,0,0.1
		c0,0.1-0.1,0.1-0.1,0.1l0,0c0,0,0,0,0,0.1c0,0,0,0,0,0.1c0,0,0,0,0,0.1v0.1c0,0.1,0,0.2-0.1,0.2V44c0,0-0.1,0.1-0.1,0.3l-0.1,0.1
		v0.1c0,0.1,0,0.1,0,0.1c0,0.1-0.1,0.1-0.1,0.1s0,0,0,0.1v0.1c0,0,0,0,0,0.1L37,45.1v0.1c0,0.1,0,0.1,0,0.1l-0.1,0.2v0.1
		c0,0,0,0,0,0.1l-0.1,0.2c0,0-0.1,0.1-0.1,0.2c0,0.1,0,0.2-0.1,0.2v0.1c-0.1,0.1-0.1,0.2-0.1,0.3c0,0,0,0.1-0.1,0.1
		c0,0.1-0.1,0.1-0.1,0.1l-0.1,0.2c0,0,0,0,0,0.1l0,0l0,0l0,0c0,0,0,0,0,0.1s0,0.1,0,0.1v0.1c-0.1,0.1-0.1,0.3-0.1,0.3s0,0.1-0.1,0.2
		c0,0.2,0,0.3,0,0.3s0,0,0,0.1s0,0.1,0,0.1v0.1c0,0.1,0,0.1,0,0.2c0,0,0,0-0.1,0v0.1c0,0,0,0.1,0,0.2c0,0.1,0,0.1,0,0.1l-0.1,0.1
		c-0.1,0.1-0.1,0.2-0.1,0.3c0,0-0.1,0.1-0.1,0.2c0,0.1-0.1,0.2-0.1,0.2c0,0.2,0,0.4-0.1,0.4c0,0.1,0,0.1-0.1,0.2c0,0,0,0-0.1,0.1
		v0.1c0,0,0,0,0,0.1c0,0,0,0,0,0.1s0.1,0.1,0.3,0c0,0,0.1,0,0.2,0l0,0c0,0,0,0,0.1,0h0.1c0,0,0,0,0.1,0c0,0,0,0,0.1,0
		c0.3,0,0.5,0,0.6-0.1c0.1,0.1,0.2,0.1,0.4,0c0,0,0,0,0.1,0c0,0,0.1,0,0.1-0.1c0,0,0,0,0.1,0c0,0,0,0,0.1,0c0.2,0,0.3,0,0.3,0
		s0,0,0.1,0c0,0,0,0,0.1,0c0.1,0.1,0.2,0.1,0.3,0.1l0.1-0.1c0.1,0,0.2,0,0.3,0s0.2,0,0.3,0l0.1-0.1h0.1l0.1-0.1h0.1h0.1
		c0,0,0.1,0,0.1-0.1c0.1,0,0.1-0.1,0.1-0.1v-0.1v-0.1c0,0,0,0,0-0.1s0-0.1,0-0.1l0,0c0,0,0,0,0-0.1c-0.1-0.2-0.1-0.4-0.1-0.6
		c0,0,0,0-0.1,0c0,0,0,0,0-0.1c0,0,0-0.1,0-0.2c0,0,0,0,0-0.1v-0.1c0,0,0,0,0-0.1s0-0.1,0-0.1s0,0,0-0.1v-0.1c0-0.1,0-0.1,0-0.1
		v-0.1v-0.1c0,0,0,0-0.1-0.1s0-0.1,0-0.2l-0.1-0.1c0-0.1,0-0.1,0-0.2c0-0.1,0-0.1,0-0.2c0-0.1,0-0.2,0-0.2v-0.2c0,0,0,0,0-0.1v-0.1
		c0,0,0,0,0-0.1c0,0,0,0,0-0.1v-0.1v-0.1v-0.1c0-0.1,0-0.1,0-0.2c0,0-0.1-0.1-0.1-0.3l-0.1-0.1c0,0,0,0,0-0.1c0,0,0,0,0-0.1
		s0-0.1,0-0.1s0,0,0-0.1v-0.1c0-0.1,0-0.2,0-0.2s0-0.1-0.1-0.1s-0.1-0.1-0.1-0.1s0,0,0-0.1s0-0.1,0-0.1s0,0,0-0.1c0,0,0,0,0-0.1
		v-0.1v-0.1c0,0,0,0,0-0.1c0,0,0,0-0.1-0.1v-0.1c0,0,0-0.1,0-0.2c0-0.1,0-0.2,0-0.2c-0.1,0-0.1-0.2-0.1-0.5c-0.1,0-0.1-0.2-0.1-0.4
		l0,0C37.8,42.8,37.7,42.8,37.7,42.9z M38.8,52.7C38.9,52.7,38.9,52.7,38.8,52.7C38.9,52.7,38.8,52.7,38.8,52.7z M38.9,52.7
		C38.9,52.7,38.8,52.7,38.9,52.7L38.9,52.7z M39.2,39.8L39.2,39.8L39.2,39.8C39.2,39.9,39.2,39.9,39.2,39.8z M39.2,39.8L39.2,39.8
		C39.2,39.9,39.2,39.9,39.2,39.8L39.2,39.8z"/>
	<path class="st0" d="M54.6,45L54.6,45c0,0.1,0,0.2,0.1,0.2c0,0,0,0,0.1,0l0,0c0,0,0,0,0,0.1c0,0,0,0.1,0.1,0.1c0,0,0,0,0.1,0h0.1
		c0,0,0,0,0.1,0c0.1,0.1,0.1,0.2,0.1,0.2c0.1,0,0.1,0,0.2,0.1l0.1,0.1c0,0,0,0,0-0.1v-0.1v0.1c0,0.1,0,0.1,0,0.1v0.1
		c0,0.1,0,0.1,0,0.1c0.1,0,0.1,0,0.2,0.1c0,0.1,0,0.3,0.1,0.3v0.1c0,0,0,0,0,0.1s0.1,0.2,0.1,0.2c0,0.1,0,0.2,0.2,0.2v0.1v0.1
		c0,0,0.1,0,0.2,0v0.1c0,0.1-0.1,0.1,0,0.1c0,0,0,0,0.1,0.1c0,0,0,0,0.1,0.1c0,0,0,0.1,0,0.2s0,0.1,0,0.2l0,0l0,0c0,0.1,0,0.2,0,0.3
		c0,0.2,0,0.3,0,0.3h0.1c0,0,0,0.1,0,0.2c0,0.1,0,0.1,0,0.2l0,0l0,0c0,0,0,0,0.1,0.1v0.1c0,0.1,0,0.2,0,0.3c0,0.2,0,0.3,0.1,0.3
		c0,0.1,0,0.1,0,0.1c-0.1,0-0.2,0-0.2,0.1l0.1,0.1c-0.1,0.1-0.1,0.2-0.1,0.4s0,0.4-0.1,0.4c0,0,0,0,0,0.1c0,0,0,0,0,0.1s0,0,0,0.1
		c0,0,0,0,0,0.1c0,0,0,0,0,0.1v0.1c-0.1,0.1-0.1,0.2-0.2,0.2v0.1c0,0.1,0,0.1,0,0.1s0,0,0,0.1c0,0,0,0,0,0.1v0.1v0.1c0,0,0,0,0,0.1
		c0,0,0,0,0,0.1c-0.1,0-0.1,0.1-0.1,0.1l0,0l0,0c0,0-0.1,0.1-0.1,0.2c0,0.1,0,0.2-0.1,0.2c0,0.1,0,0.2,0,0.3s0,0.1,0,0.1
		c-0.1,0-0.1,0.1-0.2,0.2l0,0l0,0c-0.1,0-0.1,0.1-0.1,0.1v0.1v0.1L55.7,54l-0.1,0.2l0,0l0,0v0.1c-0.1,0.1-0.1,0.1-0.1,0.2
		c-0.1,0-0.1,0.2-0.1,0.4c0,0,0,0-0.1,0c0,0,0,0-0.1,0.1c0,0,0,0,0,0.1c-0.1,0.1-0.2,0.3-0.4,0.5c0,0,0,0,0,0.1c0,0,0,0-0.1,0
		c0,0,0,0-0.1,0v0.1c0,0.1,0,0.1,0,0.1h-0.1c0,0-0.1,0.1-0.2,0.2c-0.1,0.1-0.2,0.2-0.2,0.2c-0.1,0-0.1,0-0.1,0c0,0.1,0,0.1,0,0.2
		c-0.1,0.1-0.2,0.1-0.2,0.3h-0.1c-0.1,0-0.1,0-0.1,0.1h-0.1h-0.1c0,0,0,0,0,0.1s0,0.1,0,0.1l0,0h-0.1c-0.1,0.1-0.2,0.1-0.2,0.1
		s0,0.1-0.1,0.1s-0.1,0.1-0.1,0.1c-0.2,0-0.3,0.1-0.3,0.2h-0.1c-0.1,0-0.1,0.1,0,0.1c0,0,0,0-0.1,0s0,0-0.1,0s-0.2,0-0.3,0.1
		c-0.1,0-0.2,0-0.3,0c0,0-0.1,0-0.2,0c-0.1,0.1-0.2,0-0.3-0.1h-0.1c-0.1,0-0.1,0-0.1,0h-0.1h-0.1l0,0l0,0l0,0c0,0,0,0-0.1,0
		c0,0,0,0-0.1-0.1c0,0,0,0-0.1,0c0,0-0.1,0-0.1,0.1c0-0.1,0-0.1-0.1-0.1s-0.1-0.1-0.1-0.1s0,0,0,0.1l0,0c0,0,0,0-0.1-0.1
		c-0.1,0-0.1,0-0.1,0l0,0c0,0,0,0,0-0.1h-0.1h-0.1c0,0,0,0,0-0.1c0,0,0,0,0-0.1c-0.1,0-0.1,0-0.1,0c0-0.1-0.1-0.2-0.2-0.2
		c-0.1-0.1-0.1-0.2-0.1-0.2s-0.1,0-0.2,0v-0.1c0-0.1,0-0.1,0-0.1L48.9,57c0,0,0-0.1-0.1-0.1c0-0.1-0.1-0.1-0.1-0.1s0,0-0.1,0l0,0
		l0,0c0,0,0,0,0-0.1c0,0,0,0-0.1-0.1c0-0.1-0.1-0.1-0.1-0.1s-0.1,0-0.2-0.2v-0.1l-0.1-0.1C48,56,48,56,47.9,56v-0.1
		c0-0.1-0.1-0.1-0.1-0.1h-0.1l-0.1-0.3c0,0-0.1-0.1-0.2-0.3c-0.1-0.1-0.2-0.2-0.3-0.2c0-0.1,0.1-0.3,0-0.3v-0.1c0-0.1,0-0.1-0.1-0.1
		v-0.1v-0.1l0,0v-0.1l0,0l0,0l0,0c0,0,0,0,0-0.1c0,0,0,0-0.1,0c0,0,0,0,0-0.1v-0.1c0,0,0,0,0-0.1c0,0,0-0.1-0.1-0.2
		c0-0.1-0.1-0.2-0.1-0.2h-0.1c0.1-0.1,0.1-0.2,0-0.4s-0.1-0.3-0.1-0.3s0,0,0-0.1c0,0-0.1,0-0.1-0.1v-0.1v-0.1c0,0,0,0,0-0.1v-0.1V52
		c0-0.1,0-0.1,0-0.1L46,51.4c0-0.1,0-0.2-0.1-0.3c0-0.1,0-0.2-0.1-0.2c0,0,0-0.1,0-0.2c0-0.1,0-0.2,0-0.2s-0.1,0-0.2-0.1
		c0,0,0,0,0.1-0.1c0-0.2-0.1-0.3-0.1-0.4c0-0.2,0-0.3-0.1-0.3c0-0.3,0-0.4-0.1-0.5c0,0,0,0,0-0.1s0-0.1,0-0.1s0,0,0-0.1v-0.1v-0.1
		c0-0.1,0-0.1,0-0.1s0,0-0.1-0.1h-0.1v-0.1c0-0.1,0-0.2-0.1-0.2c0,0,0,0,0-0.1c0.1,0,0.1,0,0.1-0.1c0,0,0-0.2-0.1-0.5l0,0l0,0
		c0-0.4,0-0.6,0-0.7c0-0.1,0.1-0.2,0.1-0.3c0,0,0.1-0.1,0.1-0.2c0-0.1,0.1-0.1,0.1-0.2h0.1c0,0,0,0,0.1,0h0.1c0,0,0,0,0.1,0
		c0,0,0,0,0.1,0H46c0.1,0,0.1-0.1,0.2-0.1c0,0,0.1,0,0.2,0c0.1,0,0.1,0,0.1,0s0.1,0,0.1,0.1h0.1l0.1,0.1c0.1,0,0.1,0,0.1,0
		c0.1,0,0.2,0.1,0.3,0.2c0.1,0.1,0.1,0.2,0.2,0.2c0,0.1,0.1,0.3,0.2,0.5v0.1c0,0,0,0,0.1,0.1c0,0,0,0.1,0,0.2c0,0.1,0,0.1,0,0.2
		c0,0,0,0-0.1,0v0.1l0,0c0,0,0,0,0,0.1c0,0.2,0,0.3,0.1,0.3c0,0.1,0,0.2,0.1,0.3c0.1,0,0.1,0,0.1,0s0,0,0,0.1c0,0,0,0-0.1,0
		c0,0,0,0.1,0,0.2c0,0.1,0,0.1,0,0.2c0,0,0,0,0,0.1s0,0.1,0,0.1s0,0.1-0.1,0.1c0,0,0.1,0.1,0.1,0.2c0,0.1,0,0.2,0.1,0.2
		c0,0,0,0.1,0,0.2c0,0.2,0,0.4,0.1,0.4c0,0,0,0.1,0.1,0.2c-0.1,0.1-0.1,0.2,0,0.3c0,0.2,0.1,0.3,0.2,0.3c0,0,0,0.1,0,0.3
		c0,0.1,0.1,0.2,0.1,0.3v0.1c0,0,0,0,0,0.1v0.1V52v0.1c0,0,0,0,0,0.1v0.1c0,0.1,0,0.2,0,0.3c0.1,0,0.1,0.1,0.1,0.1s0,0,0,0.1
		s0,0.1,0.1,0.2v0.1c0,0,0,0.1,0.1,0.1c0,0.1,0,0.2,0.1,0.4c0,0,0,0.1,0,0.2s0,0.1,0,0.2c0,0,0,0.1,0.1,0.1v0.1c0,0.1,0,0.1,0,0.1
		s0,0,0.1,0.1c0,0,0,0,0,0.1c0,0,0,0.1,0.1,0.2c0,0,0,0.1,0.1,0.2V55c0,0,0,0,0.1,0.1c0,0,0,0.1,0.1,0.1l0.1,0.1v0.1c0,0,0,0,0,0.1
		c0,0,0,0,0.1,0.1v0.1c0,0,0,0,0,0.1h0.1l0,0c0,0,0,0,0,0.1c0,0,0,0,0.1,0.1c0.1,0,0.1,0.1,0.1,0.1s0,0,0.1,0.1v0.1c0,0,0,0,0.1,0
		l0,0c0,0,0,0,0,0.1c0,0,0,0.1,0.1,0.1c0,0,0,0,0.1,0.1l0.1,0.1h0.1c0.1,0.1,0.1,0.1,0.1,0.1h0.1c0.1,0.1,0.3,0.1,0.6,0.1v-0.1
		c0,0,0.1,0,0.2,0c0.1,0,0.1,0,0.2-0.1c0.1,0,0.3,0,0.4-0.2c0.1,0,0.1,0,0.2-0.1s0.2-0.1,0.2-0.1l0.1-0.1h0.1l0.1-0.1
		c0,0,0.1-0.1,0.2-0.2c0-0.1,0.1-0.1,0.1-0.2c0.1-0.1,0.1-0.1,0.2-0.1v-0.2c0.2-0.1,0.3-0.2,0.3-0.3l0.1-0.1c0,0,0-0.1,0-0.2v-0.1
		c0-0.1,0-0.1,0-0.1c0.1,0,0.1-0.1,0.2-0.1v-0.1c0-0.1,0-0.1,0-0.1c0.1,0,0.1-0.1,0.1-0.1v-0.1c0,0,0,0,0-0.1c0,0,0,0,0-0.1v-0.1
		v-0.1c0,0,0-0.1-0.1-0.1c0.1-0.1,0.1-0.2,0.1-0.3V52h0.1c0,0,0.1-0.1,0.1-0.2c0-0.1,0-0.2,0-0.2s0,0-0.1-0.1v-0.1
		c0.1,0,0.1-0.1,0.2-0.1c0,0,0-0.1-0.1-0.1c0.1,0,0.1-0.1,0-0.2c0-0.1,0-0.2,0-0.2s0.1,0,0.1-0.1c0,0,0-0.1-0.1-0.1l0,0l0,0
		c-0.1-0.1-0.1-0.2-0.1-0.3c0.1,0,0.1-0.1,0.1-0.1s0,0-0.1,0H54c0.1,0,0.1-0.1,0.2-0.1c0-0.1,0-0.1,0-0.2c0-0.1,0-0.1,0-0.2
		c0,0-0.1-0.1-0.2-0.1v-0.1c0-0.1,0-0.1,0-0.2c0,0,0-0.1,0-0.2c0-0.1,0-0.2,0-0.2s-0.1-0.1-0.2-0.1v-0.1c0,0,0,0,0-0.1
		c0,0,0-0.1,0-0.2c0,0,0-0.1,0-0.2c0-0.1,0-0.2,0-0.2c-0.1-0.1-0.1-0.1-0.1-0.2v-0.1c0-0.1,0-0.1,0-0.1s0,0-0.1-0.1
		c0,0-0.1,0-0.1-0.1s0-0.1,0-0.1h-0.1l0,0l0,0c0,0,0,0-0.1,0s-0.1,0-0.1,0c0-0.1,0-0.1-0.1-0.1c0,0,0,0-0.1,0c0,0,0,0-0.1,0
		c0,0,0-0.1,0-0.2c0-0.1,0-0.1,0-0.2l-0.1-0.1c-0.1,0-0.1-0.1-0.1-0.1c-0.1-0.1-0.2-0.3-0.2-0.4v-0.1c0-0.1,0-0.2-0.1-0.3v-0.1
		c0-0.1,0-0.1,0-0.1s0.1,0,0.2,0c0.1,0,0.1,0,0.2,0c0-0.1,0.1-0.2,0.2-0.2c0-0.1,0-0.1,0-0.1s0.1,0,0.2,0.1c0,0,0.1-0.1,0.3-0.2
		l0.1,0.1c0,0,0.1,0,0.1-0.1l0.1-0.1c0,0,0,0,0.1,0.1c0,0,0,0.1,0.1,0.1C54.5,45.1,54.5,45,54.6,45C54.5,45,54.6,45,54.6,45z
		 M54.4,45.1C54.5,45.1,54.5,45,54.4,45.1C54.5,45,54.5,45,54.4,45.1L54.4,45.1L54.4,45.1c0.1,0.1,0.1,0.1,0.2,0.1l0,0
		c0,0,0,0,0,0.1c0,0,0,0.1,0.1,0.1c0,0,0,0,0.1,0c0,0,0.1,0,0.1,0.1c0,0,0,0,0.1,0c0.1,0.1,0.1,0.2,0.1,0.2c0.1,0,0.1,0,0.2,0.1
		l0.1,0.1c0,0,0,0,0-0.1v-0.1v0.1c0,0.1,0,0.1,0,0.1V46c0,0.1,0,0.1,0,0.1c0.1,0,0.1,0,0.2,0.1c0,0.1,0,0.3,0.1,0.3v0.1
		c0,0,0,0,0,0.1s0.1,0.2,0.1,0.2c0,0.1,0,0.2,0.2,0.2v0.1v0.1c0,0,0.1,0,0.2,0v0.1c0,0.1-0.1,0.1,0,0.1c0,0,0,0,0.1,0.1
		c0,0,0,0,0.1,0.1c0,0,0,0.1,0,0.2s0,0.1,0,0.2l0,0l0,0c0,0.1,0,0.2,0,0.3c0,0.2,0,0.3,0,0.3h0.1c0,0,0,0.1,0,0.2c0,0.1,0,0.1,0,0.2
		l0,0l0,0c0,0,0,0,0.1,0.1v0.1c0,0.1,0,0.2,0,0.3c0,0.2,0,0.3,0.1,0.3c0,0.1,0,0.1,0,0.1c-0.1,0-0.2,0-0.2,0.1l0.1,0.1
		c-0.1,0.1-0.1,0.2-0.1,0.4s0,0.4-0.1,0.4c0,0,0,0,0,0.1c0,0,0,0,0,0.1s0,0,0,0.1c0,0,0,0,0,0.1c0,0,0,0,0,0.1v0.1
		c-0.1,0.1-0.1,0.2-0.2,0.2v0.1c0,0.1,0,0.1,0,0.1s0,0,0,0.1c0,0,0,0,0,0.1v0.1v0.1c0,0,0,0,0,0.1c0,0,0,0,0,0.1
		c-0.1,0-0.1,0.1-0.1,0.1l0,0l0,0c0,0-0.1,0.1-0.1,0.2c0,0.1,0,0.2-0.1,0.2c0,0.1,0,0.2,0,0.3s0,0.1,0,0.1c-0.1,0-0.1,0.1-0.2,0.2
		l0,0l0,0c-0.1,0-0.1,0.1-0.1,0.1v0.1V54l-0.1,0.1l-0.1,0.2l0,0l0,0v0.1c-0.1,0.1-0.1,0.1-0.1,0.2c-0.1,0-0.1,0.2-0.1,0.4
		c0,0,0,0-0.1,0c0,0,0,0-0.1,0.1c0,0,0,0,0,0.1c-0.1,0.1-0.2,0.3-0.4,0.5c0,0,0,0,0,0.1c0,0,0,0-0.1,0c0,0,0,0-0.1,0v0.1
		c0,0.1,0,0.1,0,0.1h-0.1c0,0-0.1,0.1-0.2,0.2c-0.1,0.1-0.2,0.2-0.2,0.2c-0.1,0-0.1,0-0.1,0c0,0.1,0,0.1,0,0.2
		c-0.1,0.1-0.2,0.1-0.2,0.3h-0.1c-0.1,0-0.1,0-0.1,0.1h-0.1h-0.1c0,0,0,0,0,0.1s0,0.1,0,0.1l0,0h-0.1c-0.1,0.1-0.2,0.1-0.2,0.1
		s0,0.1-0.1,0.1s-0.1,0.1-0.1,0.1c-0.2,0-0.3,0.1-0.3,0.2h-0.1c-0.1,0-0.1,0.1,0,0.1c0,0,0,0-0.1,0s0,0-0.1,0s-0.2,0-0.3,0.1
		c-0.1,0-0.2,0-0.3,0c0,0-0.1,0-0.2,0c-0.1,0.1-0.2,0-0.3-0.1h-0.1c-0.1,0-0.1,0-0.1,0h-0.1h-0.1l0,0l0,0l0,0c0,0,0,0-0.1,0
		c0,0,0,0-0.1-0.1c0,0,0,0-0.1,0c0,0-0.1,0-0.1,0.1c0-0.1,0-0.1-0.1-0.1S50,57.6,50,57.6s0,0,0,0.1l0,0c0,0,0,0-0.1-0.1
		c-0.1,0-0.1,0-0.1,0l0,0c0,0,0,0,0-0.1h-0.1h-0.1c0,0,0,0,0-0.1c0,0,0,0,0-0.1c-0.1,0-0.1,0-0.1,0c0-0.1-0.1-0.2-0.2-0.2
		c-0.1-0.1-0.1-0.2-0.1-0.2s-0.1,0-0.2,0v-0.1c0-0.1,0-0.1,0-0.1L48.9,57c0,0,0-0.1-0.1-0.1c0-0.1-0.1-0.1-0.1-0.1s0,0-0.1,0l0,0
		l0,0c0,0,0,0,0-0.1c0,0,0,0-0.1-0.1c0-0.1-0.1-0.1-0.1-0.1s-0.1,0-0.2-0.2v-0.1l-0.1-0.1C48,56,48,56,47.9,56v-0.1
		c0-0.1-0.1-0.1-0.1-0.1h-0.1l-0.1-0.3c0,0-0.1-0.1-0.2-0.3c-0.1-0.1-0.2-0.2-0.3-0.2c0-0.1,0.1-0.3,0-0.3v-0.1c0-0.1,0-0.1-0.1-0.1
		v-0.1v-0.1l0,0v-0.1l0,0l0,0l0,0c0,0,0,0,0-0.1c0,0,0,0-0.1,0c0,0,0,0,0-0.1v-0.1c0,0,0,0,0-0.1c0,0,0-0.1-0.1-0.2
		c0-0.1-0.1-0.2-0.1-0.2h-0.1c0.1-0.1,0.1-0.2,0-0.4s-0.1-0.3-0.1-0.3s0,0,0-0.1c0,0-0.1,0-0.1-0.1v-0.1v-0.1c0,0,0,0,0-0.1v-0.1V52
		c0-0.1,0-0.1,0-0.1L46,51.4c0-0.1,0-0.2-0.1-0.3c0-0.1,0-0.2-0.1-0.2c0,0,0-0.1,0-0.2c0-0.1,0-0.2,0-0.2s-0.1,0-0.2-0.1
		c0,0,0,0,0.1-0.1c0-0.2-0.1-0.3-0.1-0.4c0-0.2,0-0.3-0.1-0.3c0-0.3,0-0.4-0.1-0.5c0,0,0,0,0-0.1s0-0.1,0-0.1s0,0,0-0.1v-0.1v-0.1
		c0-0.1,0-0.1,0-0.1s0-0.1-0.1-0.1h-0.1v-0.1c0-0.1,0-0.2-0.1-0.2c0,0,0,0,0-0.1c0.1,0,0.1,0,0.1-0.1c0,0,0-0.2-0.1-0.5l0,0l0,0
		c0-0.4,0-0.6,0-0.7c0-0.1,0.1-0.2,0.1-0.3c0,0,0.1-0.1,0.1-0.2c0-0.1,0.1-0.1,0.1-0.2h0.1c0,0,0,0,0.1,0h0.1c0,0,0,0,0.1,0
		c0,0,0,0,0.1,0H46c0.1,0,0.1-0.1,0.2-0.1c0,0,0.1,0,0.2,0c0.1,0,0.1,0,0.1,0s0.1,0,0.1,0.1h0.1l0.1,0.1c0.1,0,0.1,0,0.1,0
		c0.1,0,0.2,0.1,0.3,0.2c0.1,0.1,0.1,0.2,0.2,0.2c0,0.1,0.1,0.3,0.2,0.5v0.1c0,0,0,0,0.1,0.1c0,0,0,0.1,0,0.2c0,0.1,0,0.1,0,0.2
		c0,0,0,0-0.1,0v0.1l0,0c0,0,0,0,0,0.1c0,0.2,0,0.3,0.1,0.3c0,0.1,0,0.2,0.1,0.3c0.1,0,0.1,0,0.1,0s0,0.1-0.1,0.1c0,0,0,0.1,0,0.2
		c0,0.1,0,0.1,0,0.2c0,0,0,0,0,0.1s0,0.1,0,0.1s0,0.1-0.1,0.1c0,0,0.1,0.1,0.1,0.2c0,0.1,0,0.2,0.1,0.2c0,0,0,0.1,0,0.2
		c0,0.2,0,0.4,0.1,0.4c0,0,0,0.1,0.1,0.2c-0.1,0.1-0.1,0.2,0,0.3c0,0.2,0.1,0.3,0.2,0.3c0,0,0,0.1,0,0.3c0,0.1,0.1,0.2,0.1,0.3v0.1
		c0,0,0,0,0,0.1v0.1V52v0.1c0,0,0,0,0,0.1v0.1c0,0.1,0,0.2,0,0.3c0.1,0,0.1,0.1,0.1,0.1s0,0,0,0.1s0,0.1,0.1,0.2v0.1
		c0,0,0,0.1,0.1,0.1c0,0.1,0,0.2,0.1,0.4c0,0,0,0.1,0,0.2s0,0.1,0,0.2c0,0,0,0.1,0.1,0.1v0.1c0,0.1,0,0.1,0,0.1s0,0,0.1,0.1
		c0,0,0,0,0,0.1c0,0,0,0.1,0.1,0.2c0,0,0,0.1,0.1,0.2V55c0,0,0,0,0.1,0.1c0,0,0,0.1,0.1,0.1l0.1,0.1v0.1c0,0,0,0,0,0.1
		c0,0,0,0,0.1,0.1v0.1c0,0,0,0,0,0.1h0.1l0,0c0,0,0,0,0,0.1c0,0,0,0,0.1,0.1c0.1,0,0.1,0.1,0.1,0.1s0,0,0.1,0.1v0.1c0,0,0,0,0.1,0
		l0,0c0,0,0,0,0,0.1c0,0,0,0.1,0.1,0.1c0,0,0,0,0.1,0.1l0.1,0.1h0.1c0.1,0.1,0.1,0.1,0.1,0.1h0.1c0.1,0.1,0.3,0.1,0.6,0.1v-0.1
		c0,0,0.1,0,0.2,0c0.1,0,0.2,0,0.2-0.1c0.1,0,0.3,0,0.4-0.2c0.1,0,0.1,0,0.2-0.1c0.1-0.1,0.2-0.1,0.2-0.1l0.1-0.1h0.1l0.1-0.1
		c0,0,0.1-0.1,0.2-0.2c0-0.1,0.1-0.1,0.1-0.2c0.1-0.1,0.1-0.1,0.2-0.1v-0.2c0.2-0.1,0.3-0.2,0.3-0.3l0.1-0.1c0,0,0-0.1,0-0.2v-0.1
		c0-0.1,0-0.1,0-0.1c0.1,0,0.1-0.1,0.2-0.1v-0.1c0-0.1,0-0.1,0-0.1c0.1,0,0.1-0.1,0.1-0.1v-0.1c0,0,0,0,0-0.1c0,0,0,0,0-0.1v-0.1
		v-0.1c0,0,0-0.1-0.1-0.1c0.1-0.1,0.1-0.2,0.1-0.3V52h0.1c0,0,0.1-0.1,0.1-0.2c0-0.1,0-0.2,0-0.2s0,0-0.1-0.1v-0.1
		c0.1,0,0.1-0.1,0.2-0.1c0,0,0-0.1-0.1-0.1c0.1,0,0.1-0.1,0-0.2c0-0.1,0-0.2,0-0.2s0.1,0,0.1-0.1c0,0,0-0.1-0.1-0.1l0,0l0,0
		c-0.1-0.1-0.1-0.2-0.1-0.3c0.1,0,0.1-0.1,0.1-0.1s0,0-0.1,0H54c0.1,0,0.1-0.1,0.2-0.1c0-0.1,0-0.1,0-0.2c0-0.1,0-0.1,0-0.2
		c0,0-0.1-0.1-0.2-0.1v-0.1c0-0.1,0-0.1,0-0.2c0,0,0-0.1,0-0.2c0-0.1,0-0.2,0-0.2s-0.1-0.1-0.2-0.1v-0.1c0,0,0,0,0-0.1
		c0,0,0-0.1,0-0.2c0,0,0-0.1,0-0.2c0-0.1,0-0.2,0-0.2s0,0,0-0.1v-0.1v-0.1c0-0.1,0-0.1,0-0.1s0,0-0.1-0.1c0,0-0.1,0-0.1-0.1
		s0-0.1,0-0.1h-0.1l0,0l0,0c0,0,0,0-0.1,0s-0.1,0-0.1,0c0-0.1,0-0.1-0.1-0.1c0,0,0,0-0.1,0c0,0,0,0-0.1,0c0,0,0-0.1,0-0.2
		c0-0.1,0-0.1,0-0.2l-0.1-0.1c-0.1,0-0.1-0.1-0.1-0.1c-0.1-0.1-0.2-0.3-0.2-0.4v-0.1c0-0.1,0-0.2-0.1-0.3v-0.1c0-0.1,0-0.1,0-0.1
		s0.1,0,0.2,0c0.1,0,0.1,0,0.2,0c0-0.1,0.1-0.2,0.2-0.2c0-0.1,0-0.1,0-0.1s0.1,0,0.2,0.1c0,0,0.1-0.1,0.3-0.2l0.1,0.1
		c0,0,0.1,0,0.1-0.1l0.1-0.1C54.3,44.9,54.4,45,54.4,45.1C54.4,45,54.4,45.1,54.4,45.1z"/>
	<path class="st0" d="M65.7,45L65.7,45c0.2,0.2,0.3,0.3,0.4,0.4h0.1c0,0.1,0,0.1,0.1,0.2c0,0.1,0,0.1,0.1,0.2h0.1c0,0.2,0,0.3,0,0.4
		c0,0.1,0.1,0.1,0.1,0.2c0,0.1,0,0.1,0,0.2c0,0.1,0,0.2,0,0.3c-0.1,0.1-0.2,0.2-0.2,0.3h-0.1l-0.1,0.1c0,0,0,0-0.1,0s-0.1,0-0.1,0
		l0,0c0,0,0,0-0.1,0c0,0,0,0-0.1,0c0,0-0.1,0.1-0.1,0.2c0,0-0.1,0-0.2-0.1h-0.1c0,0,0,0-0.1,0c0-0.1,0-0.2-0.2-0.3c0,0,0,0-0.1,0
		c0,0,0,0-0.1,0L64.8,47h-0.1l0,0v-0.1c-0.1-0.1-0.1-0.1-0.3-0.1c0,0-0.1,0-0.1,0.1c-0.1,0-0.2,0-0.2,0s0,0-0.1,0h-0.1
		c0,0,0,0-0.1,0h-0.1c0,0-0.1,0-0.2-0.1c0,0,0,0-0.1,0.1h-0.1c0,0,0,0-0.1,0h-0.1H63c0,0,0,0-0.1,0h-0.1c0,0,0,0-0.1,0
		c0,0,0,0-0.1,0s-0.1,0-0.2,0C62.2,46.9,62,47,62,47v0.1c0,0,0,0-0.1,0c0,0-0.1,0-0.1-0.1c0,0-0.1,0-0.2,0.1l0,0l0,0
		c0,0-0.1,0.1-0.3,0.1S61,47.3,61,47.3v0.1h-0.1l0,0c0,0,0,0,0,0.1h-0.1c0,0-0.1,0-0.1,0.1h-0.1c-0.1,0-0.1,0-0.1,0s0,0,0,0.1
		c0,0,0,0,0,0.1s0,0.1,0.1,0.1h0.1c0,0,0.1,0.1,0.2,0.2c0,0,0,0,0.1,0c0,0,0,0,0.1,0c0,0,0,0,0,0.1v0.1c0.1,0,0.1,0,0.2,0.1
		c0.1,0,0.1,0.1,0.2,0.1c0,0,0,0,0.1,0s0.1,0,0.2,0c0,0,0.1,0,0.1,0.1H62c0,0,0,0,0.1,0l0,0c0.2,0,0.4,0.1,0.4,0.1
		c0.1,0,0.2,0,0.3,0c0,0,0.1,0,0.1,0.1c0,0,0.1,0,0.2,0c0.1,0,0.1,0,0.2,0l0,0l0,0h0.1c0,0,0,0,0.1,0c0,0,0,0,0.1,0s0,0,0.1,0h0.1
		c0.1,0.1,0.3,0.1,0.3,0.1l0.1-0.1c0.1,0,0.1,0,0.2,0c0,0,0,0,0,0.1c0.1,0.1,0.1,0.1,0.2,0.1c0,0,0,0,0.1,0c0,0,0,0,0.1,0
		c0,0.1,0,0.2,0.1,0.2l0,0l0,0c0.1,0,0.2,0,0.2,0c0,0.1,0,0.1,0.1,0.1s0.1,0.1,0.1,0.1c0.2,0,0.3,0,0.4,0.1c0,0,0,0,0.1,0
		s0.1,0,0.1,0s0,0,0.1,0.1l0.1,0.1c0,0,0.1,0,0.1-0.1h0.1c0,0.1,0,0.1,0.1,0.2c0.1,0,0.1,0,0.2,0s0.1,0.1,0.1,0.1s0,0,0.1,0h0.1
		c0,0,0,0,0,0.1c0,0,0.1,0.1,0.2,0.1s0.2,0.1,0.2,0.2h0.1c0.1,0,0.1,0.1,0.2,0.1c0.1,0.1,0.1,0.2,0.2,0.2c0,0,0,0,0.1,0
		c0,0,0,0,0.1,0c0,0,0,0,0,0.1c0,0,0.1,0.1,0.3,0.3c0.1,0.1,0.2,0.2,0.3,0.3c0,0,0,0.1,0.1,0.1c0,0.1,0,0.1,0,0.1
		c0.1,0.1,0.2,0.2,0.2,0.4c0,0,0.1,0.1,0.1,0.2c0,0.1,0.1,0.1,0.1,0.2c0,0,0,0,0,0.1c0,0,0,0,0,0.1c0,0,0,0,0,0.1v0.1c0,0,0,0,0,0.1
		v0.1c0,0,0,0,0,0.1c0,0,0,0,0,0.1c0,0,0,0.1,0,0.2c0,0.1,0,0.2,0.1,0.2c0,0,0,0,0,0.1c0,0,0,0,0,0.1c0,0,0,0.1,0,0.3
		s-0.1,0.3-0.1,0.3v0.1c0,0,0,0.1-0.1,0.1l-0.1,0.1c0,0,0,0.1-0.1,0.2v0.1c-0.1,0.1-0.2,0.2-0.2,0.3c-0.1,0.1-0.2,0.2-0.3,0.3
		c0,0.1,0,0.2-0.1,0.3S68,55.9,68,56c0,0,0,0.1-0.1,0.1c0,0,0,0,0,0.1c0,0,0,0-0.1,0c0,0,0,0-0.1,0c0,0-0.1,0.1,0,0.1
		c0,0-0.1,0.1-0.3,0.2v0.1c-0.1,0.1-0.2,0.1-0.3,0.2c0,0-0.1,0-0.2,0.1c-0.1,0-0.1,0.1-0.2,0.1c-0.1,0.1-0.2,0.1-0.2,0.1v0.1
		c0,0.1,0,0.1,0,0.1s0,0-0.1,0l0,0c0,0-0.1,0-0.1,0.1c-0.1,0-0.1,0.1-0.1,0.1l-0.1,0.1H66h-0.1c-0.1,0-0.2,0.1-0.2,0
		c-0.1,0.1-0.1,0.1-0.2,0.1c-0.1,0.1-0.1,0.1-0.2,0.1h-0.1c0,0-0.1,0-0.1,0.1L65,58c-0.1,0-0.1,0-0.2,0.1c-0.1,0-0.1,0.1-0.2,0.1
		h-0.1c-0.1,0-0.1,0-0.1,0h-0.1c-0.1,0-0.1,0-0.1,0h-0.1H64c0,0,0,0-0.1,0.1c0,0-0.1,0-0.3,0c0,0,0,0-0.1-0.1s-0.3-0.1-0.3,0h-0.1
		L63,58.3c0-0.1-0.1-0.1-0.3-0.1c-0.1,0-0.1,0-0.2,0c-0.1-0.1-0.1-0.1-0.1-0.1s0,0-0.1,0s-0.1,0-0.1,0s0,0,0-0.1c0,0,0,0,0-0.1
		c0,0-0.1,0-0.2,0c-0.1,0-0.1,0-0.1,0s-0.1,0-0.1-0.1h-0.1v-0.1c0,0-0.1,0-0.2,0l0,0c0,0,0,0,0-0.1c0,0-0.1,0-0.1-0.1
		s-0.1-0.1-0.1-0.1c-0.1-0.1-0.2-0.1-0.2-0.1v-0.1c0,0-0.1-0.1-0.2-0.1C60.8,57,60.8,57,60.8,57l0,0l0,0c0-0.1,0-0.2-0.1-0.3
		s-0.1-0.1-0.2-0.1c0,0,0,0,0-0.1c0,0,0,0,0-0.1c0,0,0,0-0.1-0.1c0-0.1-0.1-0.1-0.1-0.1C60,55.9,60,55.9,60,55.9s0,0,0-0.1
		s0-0.1,0-0.1s0,0,0-0.1v-0.1c0,0,0,0,0-0.1c0,0,0,0,0-0.1v-0.1c0-0.1-0.1-0.1-0.1-0.1s0-0.1,0-0.2s0-0.1,0-0.1l0,0l0,0
		c0,0,0-0.1-0.1-0.3c0.1,0,0.1,0,0.2,0c0,0,0.1-0.1,0-0.2l0.1-0.1c0-0.1,0.1-0.1,0.1-0.1s0,0,0.1,0c0,0,0,0,0,0.1l0.1-0.1V54
		l0.1-0.1c0.1,0,0.1,0,0.1,0s0,0,0-0.1h0.1c0,0,0,0,0.1,0.1c0,0,0,0,0.1,0c0,0,0,0,0.1,0c0.1,0.1,0.1,0.2,0.2,0.2c0.1,0,0.1,0,0.1,0
		s0,0,0.1,0s0.1,0.1,0.2,0.1l0.1,0.1c0,0,0.1,0,0.1,0.1c0,0,0.1,0.1,0.1,0.2c0,0.1,0.1,0.1,0.1,0.2c0.1,0,0.1,0.1,0.2,0.2
		c0.1,0.1,0.2,0.2,0.2,0.2s0,0,0,0.1c0,0,0,0,0,0.1l0.2,0.1h0.1c0.1,0,0.1,0,0.1,0s0,0,0,0.1l0,0c0,0,0.1,0,0.2,0c0.1,0,0.2,0,0.2,0
		s0,0,0.1,0c0,0,0,0,0.1,0s0.1,0,0.2,0c0.1,0,0.1-0.1,0.1-0.1s0,0,0.1,0h0.1H64c0.1,0,0.1,0,0.1,0h0.1h0.1l0,0l0,0c0,0,0,0,0.1,0
		h0.1c0,0,0,0,0-0.1h0.1h0.1l0,0l0,0h0.1c0.1,0,0.1-0.1,0.1-0.2c0,0,0.1,0,0.1,0.1c0,0,0.1,0,0.1-0.1c0.1-0.1,0.1-0.1,0.2-0.1
		c0-0.1,0.2-0.2,0.4-0.3c0.2-0.1,0.4-0.3,0.4-0.4c0.1,0,0.2-0.1,0.2-0.2l0.1-0.1c0.1-0.1,0.1-0.1,0.1-0.1v-0.1c0,0,0-0.1,0.1-0.1
		v-0.2c0.1,0,0.1-0.1,0.1-0.1c0-0.1,0-0.2,0-0.3s0-0.2,0-0.3c0,0,0,0,0-0.1l0,0v-0.1l-0.1-0.1c-0.1,0-0.1-0.1-0.1-0.1
		c-0.1,0-0.1,0.1-0.2,0v-0.1h-0.1l0,0l0,0c0,0,0,0-0.1,0H66l0,0v-0.1c0,0-0.1,0-0.2,0s-0.2,0-0.2,0c-0.1,0-0.2-0.1-0.3,0
		c0,0,0,0,0-0.1c0,0-0.1-0.1-0.3-0.1c-0.2,0-0.3-0.1-0.3-0.1c-0.1-0.1-0.3-0.2-0.6-0.2l0,0l0,0c0,0,0,0,0-0.1c0,0-0.1,0-0.1-0.1
		c-0.1-0.1-0.1-0.1-0.1,0l0,0c0,0,0,0,0,0.1c0,0,0,0-0.1-0.1s-0.1,0-0.1,0c0-0.1-0.1-0.1-0.2,0c0-0.1-0.1-0.2-0.1-0.2
		c-0.1,0.1-0.2,0.1-0.3,0c0,0-0.2-0.1-0.3,0c0-0.1-0.1-0.1-0.1-0.2c-0.1,0-0.2,0-0.3-0.1c0,0,0,0-0.1,0h-0.1l0,0l0,0l0,0l0,0l0,0
		c-0.2-0.1-0.3-0.1-0.4,0c0,0,0,0,0-0.1c0,0,0,0-0.1-0.1c0,0,0,0-0.1,0c0,0,0,0-0.1,0c0,0,0,0-0.1,0c0,0-0.1,0-0.2,0
		c-0.1,0-0.2,0-0.2-0.1l-0.1-0.1c0,0,0,0-0.1,0h-0.1c0-0.1,0-0.1,0-0.1s0,0-0.1,0c0,0,0,0-0.1,0s0,0,0,0l0,0l0,0l0,0c0,0,0,0-0.1,0
		h-0.1c0,0,0,0,0-0.1l0,0C60,50,60,50,59.9,50s-0.1-0.1-0.1-0.2c0,0,0,0-0.1,0h-0.1c0,0,0-0.1-0.1-0.2c0-0.1,0-0.1-0.1-0.2
		c-0.1-0.1-0.2-0.1-0.2-0.2c0,0,0,0-0.1,0c0,0-0.1,0-0.1-0.1V49c-0.1-0.1-0.2-0.3-0.2-0.4c0,0-0.1,0-0.1-0.1s-0.1-0.1-0.1-0.1
		s0-0.1,0-0.2c-0.1-0.1-0.3-0.2-0.3-0.3c0,0,0,0,0-0.1s0-0.1,0-0.1s0,0,0-0.1l0,0c0,0,0,0,0-0.1v-0.1c0-0.1,0-0.1,0-0.2v-0.1V47
		c0,0,0-0.1,0.1-0.1v-0.1v-0.1c0.1,0,0.2-0.1,0.3-0.3h0.1l0,0l0,0c0,0,0.1,0,0.2-0.1c0.1-0.1,0.2-0.1,0.3-0.2c0.1,0,0.1,0,0.1,0
		s0,0,0.1-0.1c0,0,0,0,0.1,0c0,0,0,0,0.1,0h0.1c0.1,0,0.1,0,0.1,0c0.1,0,0.1-0.1,0.2-0.2c0.1,0,0.2,0,0.2-0.1c0.1,0,0.1,0,0.2,0
		c0.1,0,0.1,0,0.2,0c0,0,0.1,0,0.1-0.1c0.1-0.1,0.1-0.1,0.1-0.1c0.1,0,0.1,0,0.1,0h0.1c0.1,0,0.1,0,0.1-0.1h0.1c0,0,0,0,0.1,0h0.1
		h0.1c0,0,0.1-0.1,0.2-0.2c0.1,0,0.1,0,0.2-0.1v0.1c0.1,0,0.2-0.1,0.3,0c0.1,0,0.2,0,0.3,0c0,0,0,0,0.1,0s0.1,0,0.1-0.1h0.1
		c0,0,0,0,0.1,0h0.1c0.1,0,0.2,0,0.5,0s0.4,0,0.6,0c0,0,0.1,0,0.2,0s0.1,0,0.1,0h0.1h0.1c0,0,0.1,0,0.1,0.1c0.2,0,0.3,0,0.4,0.1
		c0.1,0,0.2,0,0.3,0.1C65.5,45,65.6,45,65.7,45z M65.2,44.9c0.1,0,0.2,0,0.3,0.1c0.1,0,0.2,0.1,0.2,0.1v0.1c0.2,0.1,0.3,0.2,0.4,0.3
		h0.1c0,0.1,0,0.1,0.1,0.2c0,0.1,0,0.1,0.1,0.2h0.1c0,0.2,0,0.3,0,0.4c0,0.1,0.1,0.1,0.1,0.2c0,0.1,0,0.1,0,0.2c0,0.1,0,0.2,0,0.3
		c-0.1,0.1-0.2,0.2-0.2,0.3h-0.1l-0.1,0.1c0,0,0,0-0.1,0s-0.1,0-0.1,0l0,0c0,0,0,0-0.1,0c0,0,0,0-0.1,0c0,0-0.1,0.1-0.1,0.2
		c0,0-0.1,0-0.2-0.1h-0.1c0,0,0,0-0.1,0c0-0.1,0-0.2-0.2-0.3c0,0,0,0-0.1,0c0,0,0,0-0.1,0l-0.1-0.1h-0.1l0,0V47
		c-0.1-0.1-0.1-0.1-0.3-0.1c0,0-0.1,0-0.1,0.1c-0.1,0-0.2,0-0.2,0s0,0-0.1,0h-0.1c0,0,0,0-0.1,0h-0.1c0,0-0.1,0-0.2-0.1
		c0,0,0,0-0.1,0.1h-0.1c0,0,0,0-0.1,0h-0.1H63c0,0,0,0-0.1,0h-0.1c0,0,0,0-0.1,0c0,0,0,0-0.1,0s-0.1,0-0.2,0c-0.2,0-0.4,0-0.4,0.1
		c0,0,0,0,0,0.1c0,0,0,0,0,0.1c0,0,0,0-0.1,0c0,0-0.1,0-0.1-0.1c0,0-0.1,0-0.2,0.1l0,0l0,0c0,0-0.1,0.1-0.3,0.1S61,47.5,61,47.5v0.1
		h-0.1l0,0c0,0,0,0,0,0.1h-0.1c0,0-0.1,0-0.1,0.1h-0.1c-0.1,0-0.1,0-0.1,0s0,0,0,0.1c0,0,0,0,0,0.1s0,0.1,0.1,0.1h0.1
		c0,0,0.1,0.1,0.2,0.2c0,0,0,0,0.1,0c0,0,0,0,0.1,0c0,0,0,0,0,0.1v0.1c0.1,0,0.1,0,0.2,0.1c0.1,0,0.1,0.1,0.2,0.1c0,0,0,0,0.1,0
		s0.1,0,0.2,0c0,0,0.1,0,0.1,0.1H62c0,0,0,0,0.1,0l0,0c0.2,0,0.4,0.1,0.4,0.1c0.1,0,0.2,0,0.3,0c0,0,0.1,0,0.1,0.1c0,0,0.1,0,0.2,0
		c0.1,0,0.1,0,0.2,0l0,0l0,0h0.1c0,0,0,0,0.1,0c0,0,0,0,0.1,0s0,0,0.1,0h0.1c0.1,0.1,0.3,0.1,0.3,0.1l0.1-0.1c0.1,0,0.1,0,0.2,0
		c0,0,0,0,0,0.1c0.1,0.1,0.1,0.1,0.2,0.1c0,0,0,0,0.1,0c0,0,0,0,0.1,0c0,0.1,0,0.2,0.1,0.2l0,0l0,0c0.1,0,0.2,0,0.2,0
		c0,0.1,0,0.1,0.1,0.1s0.1,0.1,0.1,0.1c0.2,0,0.3,0,0.4,0.1c0,0,0,0,0.1,0s0.1,0,0.1,0s0,0,0.1,0.1l0.1,0.1c0,0,0.1,0,0.1-0.1h0.1
		c0,0.1,0,0.1,0.1,0.2c0.1,0,0.1,0,0.2,0s0.1,0.1,0.1,0.1s0,0,0.1,0h0.1c0,0,0,0,0,0.1c0,0,0.1,0.1,0.2,0.1s0.2,0.1,0.2,0.2h0.1
		c0.1,0,0.1,0.1,0.2,0.1c0.1,0.1,0.1,0.2,0.2,0.2c0,0,0,0,0.1,0c0,0,0,0,0.1,0c0,0,0,0,0,0.1c0,0,0.1,0.1,0.3,0.3
		c0.1,0.1,0.2,0.2,0.3,0.3c0,0,0,0.1,0.1,0.1c0,0.1,0,0.1,0,0.1c0.1,0.1,0.2,0.2,0.2,0.4c0,0,0.1,0.1,0.1,0.2c0,0.1,0.1,0.1,0.1,0.2
		c0,0,0,0,0,0.1c0,0,0,0,0,0.1c0,0,0,0,0,0.1v0.1c0,0,0,0,0,0.1v0.1c0,0,0,0,0,0.1v0.1c0,0,0,0.1,0,0.2c0,0.1,0,0.2,0.1,0.2
		c0,0,0,0,0,0.1c0,0,0,0,0,0.1c0,0,0,0.1,0,0.3s-0.1,0.3-0.1,0.3v0.1c0,0,0,0.1-0.1,0.1l-0.1,0.1c0,0,0,0.1-0.1,0.2v0.1
		c-0.1,0.1-0.2,0.2-0.2,0.3c-0.1,0.1-0.2,0.2-0.3,0.3c0,0.1,0,0.2-0.1,0.3S68,56.1,68,56.2c0,0,0,0.1-0.1,0.1c0,0,0,0,0,0.1
		c0,0,0,0-0.1,0c0,0,0,0-0.1,0c0,0-0.1,0.1,0,0.2c0,0-0.1,0.1-0.3,0.2v0.1c-0.1,0.1-0.2,0.1-0.3,0.2c0,0-0.1,0.1-0.2,0.2
		c-0.1,0-0.1,0.1-0.2,0.1c-0.1,0.1-0.2,0.1-0.2,0.1v0.1c0,0.1,0,0.1,0,0.1s0,0-0.1,0l0,0c0,0-0.1,0-0.1,0.1c-0.1,0-0.1,0.1-0.1,0.1
		L66.1,58H66h-0.1c-0.1,0-0.2,0.1-0.2,0c-0.1,0.1-0.1,0.1-0.2,0.1c-0.1,0.1-0.1,0.1-0.2,0.1h-0.1c0,0-0.1,0-0.1,0.1L65,58.4
		c-0.1,0-0.1,0-0.2,0s-0.1,0.1-0.2,0.1h-0.1c-0.1,0-0.1,0-0.1,0h-0.1c-0.1,0-0.1,0-0.1,0h-0.1H64c0,0,0,0-0.1,0.1c0,0-0.1,0-0.3,0
		c0,0,0,0-0.1-0.1s-0.3-0.1-0.3,0h-0.1L63,58.6c0-0.1-0.1-0.1-0.3-0.1c-0.1,0-0.1,0-0.2,0c-0.1-0.1-0.1-0.1-0.1-0.1s0,0-0.1,0
		s-0.1,0-0.1,0s0,0,0-0.1c0,0,0,0,0-0.1c0,0-0.1,0-0.2,0c-0.1,0-0.1,0-0.1,0s-0.1,0-0.1-0.1h-0.1V58c0,0-0.1,0-0.2,0l0,0
		c0,0,0,0,0-0.1c0,0-0.1,0-0.1-0.1s-0.1-0.1-0.1-0.1c-0.1-0.1-0.2-0.1-0.2-0.1v-0.1c0,0-0.1-0.1-0.2-0.1c-0.1-0.1-0.1-0.1-0.1-0.1
		l0,0l0,0c0-0.1,0-0.2-0.1-0.3s-0.1-0.1-0.2-0.1c0,0,0,0,0-0.1c0,0,0,0,0-0.1c0,0,0,0-0.1-0.1c0-0.1-0.1-0.1-0.1-0.1
		C60,55.9,60,55.9,60,55.9s0,0,0-0.1s0-0.1,0-0.1s0,0,0-0.1v-0.1c0,0,0,0,0-0.1c0,0,0,0,0-0.1v-0.1c0-0.1-0.1-0.1-0.1-0.1
		s0-0.1,0-0.2s0-0.1,0-0.1l0,0l0,0c0,0,0-0.1-0.1-0.3c0.1,0,0.1,0,0.2,0c0,0,0.1-0.1,0-0.2l0.1-0.1c0-0.1,0.1-0.1,0.1-0.1
		s0.1,0,0.1,0.1c0,0,0.1,0,0.1-0.1V54l0.1-0.1c0.1,0,0.1,0,0.1,0s0,0,0-0.1h0.1c0,0,0,0,0.1,0.1c0,0,0,0,0.1,0c0,0,0,0,0.1,0
		c0.1,0.1,0.1,0.2,0.2,0.2c0.1,0,0.1,0,0.1,0s0,0,0.1,0s0.1,0.1,0.2,0.1l0.1,0.1c0,0,0.1,0,0.1,0.1c0,0,0.1,0.1,0.1,0.2
		c0,0.1,0.1,0.1,0.1,0.2c0.1,0,0.1,0.1,0.2,0.2c0.1,0.1,0.2,0.2,0.2,0.2s0,0,0,0.1c0,0,0,0,0,0.1l0.2,0.1h0.1c0.1,0,0.1,0,0.1,0
		s0,0,0,0.1l0,0c0,0,0.1,0,0.2,0c0.1,0,0.2,0,0.2,0s0,0,0.1,0c0,0,0,0,0.1,0s0.1,0,0.2,0c0.1,0,0.1-0.1,0.1-0.1s0,0,0.1,0h0.1H64
		c0.1,0,0.1,0,0.1,0h0.1h0.1l0,0l0,0c0,0,0,0,0.1,0h0.1c0,0,0,0,0-0.1h0.1h0.1l0,0l0,0h0.1c0.1,0,0.1-0.1,0.1-0.2c0,0,0.1,0,0.1,0.1
		c0,0,0.1,0,0.1-0.1c0.1-0.1,0.1-0.1,0.2-0.1c0-0.1,0.2-0.2,0.4-0.3c0.2-0.1,0.4-0.3,0.4-0.4c0.1,0,0.2-0.1,0.2-0.2l0.1-0.1
		c0.1-0.1,0.1-0.1,0.1-0.1v-0.1c0,0,0-0.1,0.1-0.1v-0.2c0.1,0,0.1-0.1,0.1-0.1c0-0.1,0-0.2,0-0.3s0-0.2,0-0.3c0,0,0,0,0-0.1l0,0
		v-0.1l-0.1-0.1c-0.1,0-0.1-0.1-0.1-0.1c-0.1,0-0.1,0.1-0.2,0v-0.1h-0.1l0,0l0,0c0,0,0,0-0.1,0H66l0,0v-0.1c0,0-0.1,0-0.2,0
		s-0.2,0-0.2,0c-0.1,0-0.2-0.1-0.3,0c0,0,0,0,0-0.1c0,0-0.1-0.1-0.3-0.1c-0.2,0-0.3-0.1-0.3-0.1c-0.1-0.1-0.3-0.2-0.6-0.2l0,0l0,0
		c0,0,0,0,0-0.1c0,0-0.1,0-0.1-0.1c-0.1-0.1-0.1-0.1-0.1-0.1s0,0,0,0.1c0,0,0,0,0,0.1c0,0,0,0-0.1-0.1s-0.1,0-0.1,0
		c0-0.1-0.1-0.1-0.2,0c0-0.1-0.1-0.2-0.1-0.2c-0.1,0.1-0.2,0.1-0.3,0c0,0-0.2-0.1-0.3,0c0-0.1-0.1-0.1-0.1-0.2c-0.1,0-0.2,0-0.3-0.1
		c0,0-0.1,0-0.2,0l0,0l0,0l0,0l0,0l0,0c-0.2-0.1-0.3-0.1-0.4,0c0,0,0,0,0-0.1c0,0,0,0-0.1-0.1c0,0,0,0-0.1,0c0,0,0,0-0.1,0
		c0,0,0,0-0.1,0c0,0-0.1,0-0.2,0c-0.1,0-0.2,0-0.2-0.1l-0.1-0.1c0,0,0,0-0.1,0h-0.1c0-0.1,0-0.1,0-0.1s0,0-0.1,0c0,0,0,0-0.1,0
		s0,0,0,0l0,0l0,0l0,0c0,0,0,0-0.1,0h-0.1c0,0,0,0,0-0.1l0,0C60,50,60,50,59.9,50s-0.1-0.1-0.1-0.2c0,0,0,0-0.1,0h-0.1
		c0,0,0-0.1-0.1-0.2c0-0.1,0-0.1-0.1-0.2c-0.1-0.1-0.2-0.1-0.2-0.2c0,0,0,0-0.1,0c0,0-0.1,0-0.1-0.1V49c-0.1-0.1-0.2-0.3-0.2-0.4
		c0,0-0.1,0-0.1-0.1s-0.1-0.1-0.1-0.1s0-0.1,0-0.2c-0.1-0.1-0.3-0.2-0.3-0.3c0,0,0,0,0-0.1s0-0.1,0-0.1s0,0,0-0.1l0,0c0,0,0,0,0-0.1
		v-0.1c0-0.1,0-0.1,0-0.2v-0.1V47c0,0,0-0.1,0.1-0.1v-0.1v-0.1c0.1,0,0.2-0.1,0.3-0.3h0.1l0,0l0,0c0,0,0.1,0,0.2-0.1
		c0.1-0.1,0.2-0.1,0.3-0.2c0.1,0,0.1,0,0.1,0s0,0,0.1-0.1c0,0,0,0,0.1,0c0,0,0,0,0.1,0h0.1c0.1,0,0.1,0,0.1,0c0.1,0,0.1-0.1,0.2-0.2
		c0.1,0,0.2,0,0.2-0.1c0.1,0,0.1,0,0.2,0c0.1,0,0.1,0,0.2,0c0,0,0.1,0,0.1-0.1c0.1-0.1,0.1-0.1,0.1-0.1c0.1,0,0.1,0,0.1,0h0.1
		c0.1,0,0.1,0,0.1-0.1h0.1c0,0,0,0,0.1,0h0.1h0.1c0,0,0.1-0.1,0.2-0.2c0.1,0,0.1,0,0.2-0.1v0.1c0.1,0,0.2-0.1,0.3,0
		c0.1,0,0.2,0,0.3,0c0,0,0,0,0.1,0s0.1,0,0.1-0.1h0.1c0,0,0,0,0.1,0h0.1c0.1,0,0.2,0,0.5,0s0.4,0,0.6,0c0,0,0.1,0,0.2,0s0.1,0,0.1,0
		h0.1c0.1,0,0.1,0,0.1,0s0.1,0,0.1,0.1C65,44.8,65.1,44.8,65.2,44.9z"/>
	<path class="st0" d="M77.1,42.1c0,0,0.1,0,0.2,0s0.1,0,0.1,0l0,0l0,0h0.1c0.1,0,0.1,0,0.1,0c0.1,0,0.2,0,0.3,0.1
		c0.4,0,0.6,0.1,0.7,0.2h0.1c0,0,0.1,0.1,0.2,0.2c0.1,0.1,0.2,0.1,0.2,0.2v0.1c0.1,0.1,0.2,0.3,0.3,0.6c0,0,0,0,0.1,0l0,0
		c0,0.1,0,0.2,0,0.3s0,0.2,0,0.2c0,0.1-0.1,0.1-0.1,0.2l-0.1,0.1c0,0.1,0,0.1-0.1,0.2v0.1v0.1l0,0l0,0c0,0,0,0-0.1,0.1H79
		c0,0,0,0,0,0.1c0,0,0,0-0.1,0.1c-0.1,0-0.2,0-0.2,0c0,0.1,0,0.1,0,0.1h-0.1c-0.1,0-0.1,0-0.1,0s0,0-0.1,0c0,0,0,0-0.1,0
		c0,0,0,0,0.1-0.1c0,0,0-0.1-0.1-0.1c0-0.1,0-0.1-0.1-0.1c0,0,0,0-0.1,0.1H78c0,0,0-0.1-0.1-0.1c0-0.1-0.1-0.1-0.1-0.1s0,0,0,0.1
		l0,0c0,0,0,0-0.1-0.1v-0.1c0,0,0,0-0.1,0c0-0.1-0.2-0.2-0.4-0.2c0,0-0.1,0-0.2,0.1c0,0-0.1,0-0.2,0s-0.1,0-0.1,0s0,0-0.1,0.1
		c0,0-0.1,0-0.3,0c-0.2,0-0.4,0.1-0.4,0.2c-0.1-0.1-0.2-0.1-0.3,0c-0.1,0-0.1,0-0.2,0s-0.1,0-0.2,0v0.1c-0.1,0-0.2,0-0.2,0
		c-0.1,0-0.1-0.1-0.2,0c0,0,0,0-0.1,0c0,0,0,0-0.1,0c0,0-0.1,0-0.2,0s-0.1,0-0.1,0s-0.1,0-0.1,0.1h-0.1H74v0.1c-0.2,0-0.3,0-0.4,0
		l0,0l0,0c-0.2-0.1-0.4-0.1-0.5,0.1c0,0-0.1,0-0.1-0.1c-0.1,0-0.1,0.1,0,0.2v0.1c0,0,0,0,0,0.1v0.1v0.1c0,0.1,0,0.2,0.1,0.2
		c0,0.1,0,0.2,0.1,0.3s0.1,0.2,0,0.2c0,0.1,0,0.2,0.1,0.2l0,0l0,0v0.1c0,0,0,0.1,0.1,0.1c0,0.5,0,0.7,0,0.8c-0.1,0.1-0.1,0.2,0,0.4
		c0,0,0,0.1,0,0.2v0.1v0.1c0.1,0,0.1,0.1,0.1,0.1s0,0,0,0.1c0,0,0,0,0,0.1s0,0.2,0,0.4s0,0.3,0,0.4c0,0,0,0.1,0,0.2
		c0,0.1,0.1,0.1,0.2,0.1s0.2-0.1,0.2-0.1c0.2,0,0.3,0,0.4-0.1c0.3,0,0.4,0,0.4,0c0.1,0,0.2,0,0.3,0h0.1c0.1,0,0.1,0,0.1,0h0.1
		c0.1,0,0.2,0,0.2-0.1c0.1,0,0.3,0,0.4,0c0,0,0,0,0.1,0c0,0,0,0,0.1,0s0.1,0,0.1,0c0.1,0,0.1,0,0.1,0c0.1,0,0.2,0,0.3,0v-0.1
		c0.1,0,0.2,0.1,0.3,0c0.1,0,0.2-0.1,0.3-0.1h0.1h0.1l0,0l0,0c0,0,0.1,0,0.1-0.1c0.1-0.1,0.1-0.1,0.2,0l0.1-0.1c0,0,0,0,0.1,0.1
		c0.2,0,0.3,0,0.3-0.1c0,0,0.1,0,0.2,0s0.1,0,0.1,0h0.1c0.1,0,0.1,0,0.1,0c0.1,0,0.2,0.1,0.2,0.1s0.1,0,0.2,0l0,0c0,0,0,0,0,0.1
		c0.2,0,0.3,0,0.3,0s0,0.1,0.1,0.2v0.1c0,0,0,0.1,0.1,0.2c0,0.1,0.1,0.2,0.2,0.3c0,0,0,0-0.1,0.1c0,0.1,0,0.2-0.1,0.2
		c0,0.1-0.1,0.1-0.1,0.2h-0.1l0,0l0,0h-0.1l0,0h-0.1c0,0,0,0-0.1,0c0,0,0,0-0.1,0c0,0-0.1,0-0.1,0.1h-0.1c0,0-0.1,0.1-0.3,0.1
		c-0.1,0-0.2,0.1-0.2,0.2c-0.2,0-0.3,0-0.4,0.2c0,0,0,0-0.1,0l0,0l0,0c-0.1,0-0.1,0-0.2-0.1l0,0c0,0,0,0,0,0.1c0,0-0.1,0-0.2,0
		s-0.2,0-0.2,0s0,0-0.1,0L77,51.3c-0.1,0-0.1,0-0.2,0s-0.1,0,0,0.1c0,0-0.1-0.1-0.2,0c-0.1,0-0.1,0-0.2,0v0.1c0,0-0.1,0-0.2,0
		s-0.1,0-0.1,0s-0.1,0-0.2,0v0.1c0,0-0.1,0-0.2,0h-0.1c0,0-0.1,0.1,0,0.1l-0.2-0.1c0,0-0.1,0-0.3,0c0,0,0,0-0.1,0.1c0,0,0,0-0.1,0
		c-0.2,0-0.3,0-0.3,0l0.4,0.1c-0.2,0-0.4,0-0.4,0s-0.1,0-0.2,0.1c0,0,0,0,0,0.1c-0.2,0.1-0.3,0.1-0.4,0c0,0,0,0-0.1,0h-0.1
		c0,0,0,0-0.1,0c0,0,0,0-0.1,0c0,0-0.1,0-0.2,0.1c-0.1,0-0.1,0-0.1,0c-0.1,0-0.1,0.1,0,0.4c0,0,0,0,0,0.1v0.1c0,0,0,0.1,0.1,0.1
		c0,0.1,0,0.1-0.1,0.2v0.1c0,0.1,0,0.1,0.1,0.2l0,0l0,0c0,0,0,0.1-0.1,0.2c0.1,0,0.1,0.2,0.1,0.4s0,0.4,0,0.5
		c-0.1,0.2-0.1,0.3,0,0.3c0,0,0,0.1,0,0.2c0,0,0,0,0,0.1v0.1c0.1,0.1,0.1,0.3,0.1,0.3s0.1,0.1,0.1,0.2c0,0.1,0.1,0.2,0.1,0.2
		c0.1,0,0.1,0,0.3,0.1c0.1,0,0.2,0,0.3,0c0,0,0,0,0.1-0.1c0,0,0.1,0,0.1,0.1c0.3,0,0.5,0,0.5-0.1c0,0,0.1,0,0.2,0s0.2,0,0.3,0
		c0-0.1,0.2-0.1,0.5-0.1l0,0l0,0c0,0,0.1,0,0.2,0s0.1,0,0.2,0c0,0,0.1,0,0.1-0.1c0.1,0,0.1-0.1,0.1-0.1c0.1,0,0.3,0,0.4-0.1
		s0.3-0.1,0.4-0.1c0-0.1,0-0.1,0.1-0.1s0.2,0,0.3,0c0.2,0,0.3-0.1,0.4-0.2c0.1,0,0.2,0,0.2,0c0.1-0.1,0.1-0.1,0.2-0.1
		c0.4,0,0.6,0,0.6,0.1h0.1c0,0.1,0.1,0.2,0.2,0.3h0.1c0,0,0.1,0.1,0.2,0.2c0,0.1,0.1,0.2,0.2,0.3c0,0,0,0.1,0.1,0.2
		c0.1,0.1,0.1,0.1,0.1,0.2c0,0,0,0,0,0.1s0,0.1,0,0.1c-0.1,0.1-0.2,0.2-0.2,0.3c-0.1,0-0.2,0.1-0.2,0.2c-0.1,0-0.2,0.1-0.3,0.3
		c0,0,0,0-0.1,0c0,0,0,0-0.1,0c0,0,0,0.1-0.1,0.2c0,0,0,0-0.1,0c0,0,0,0-0.1,0c0,0-0.1,0-0.1,0.1c-0.1,0-0.2,0-0.2,0.1h-0.1
		c-0.1,0.1-0.2,0.2-0.3,0.1c0,0-0.1,0-0.1,0.1c0,0,0,0-0.1,0s-0.2-0.1-0.2,0c0,0-0.1,0.1-0.1,0.2h-0.1l0,0v0.1c0,0-0.1,0-0.1-0.1
		c-0.1,0-0.1,0-0.2,0c0,0,0,0,0,0.1c0,0,0,0,0,0.1c0,0,0,0-0.1,0c0,0,0,0-0.1,0c0,0,0,0-0.1,0.1c-0.1,0-0.2,0-0.3,0c0,0,0,0,0,0.1
		c-0.1,0-0.2,0-0.2,0c-0.1,0-0.2,0-0.2,0.1c0,0,0,0-0.1,0l0,0c0,0-0.1,0-0.2,0s-0.2,0-0.2,0.1v0.1c0,0-0.1,0-0.2,0h-0.1
		c0,0,0-0.1-0.1-0.1c-0.2,0-0.3,0.1-0.3,0.1v0.1h-0.1c0,0,0,0-0.1-0.1c0,0,0,0-0.1,0.1c0,0,0,0-0.1,0h-0.1c0,0-0.1,0-0.2,0v-0.1
		h-0.1c-0.1,0-0.1,0-0.1,0.1c-0.1,0-0.3,0-0.4,0c0-0.1,0-0.1-0.1-0.1h-0.1c0,0,0,0,0,0.1v0.1l0,0l0,0h-0.1v-0.1
		c0-0.1-0.1-0.1-0.2-0.1s-0.1-0.1-0.2-0.1c0,0-0.1,0-0.1-0.1S73,58.4,73,58.4s0,0-0.1,0c0,0,0,0-0.1,0c0,0,0,0,0-0.1l0,0
		c0,0,0,0-0.1,0h-0.1c0-0.1,0-0.2-0.2-0.3v-0.1c-0.1-0.1-0.2-0.1-0.2-0.2h-0.1c-0.1,0-0.1-0.1-0.2-0.1c-0.1-0.1-0.1-0.1-0.2-0.2
		c-0.1-0.1-0.1-0.1-0.1-0.2c-0.1-0.3-0.2-0.5-0.2-0.5s0-0.1-0.1-0.2c0,0,0-0.1,0-0.2c0-0.1,0-0.1,0-0.2c0,0,0-0.1-0.1-0.1
		c0,0,0,0,0-0.1c0,0,0,0,0-0.1c0,0,0-0.1,0-0.2c0-0.1,0-0.2-0.1-0.2c0,0,0-0.1,0-0.3c0-0.1,0-0.2,0-0.2c0-0.3,0-0.7,0-1.3s0-1,0-1.3
		c0.1,0,0.1,0,0.1-0.1s0-0.1-0.1-0.1c0-0.1,0-0.1,0-0.2c0-0.1,0-0.2,0-0.2L71,51.6c0,0,0-0.1,0.1-0.1c0-0.1,0-0.5,0-1.2l0.1-0.1
		c0,0,0-0.1-0.1-0.1c0,0,0-0.1,0-0.2c0-0.1,0-0.2,0-0.3v-0.1c0-0.1,0-0.1,0-0.2c0,0,0-0.2,0-0.4s0-0.3-0.1-0.3
		c0.1,0,0.1-0.1,0.1-0.3s0-0.3,0-0.3l0-1c0-0.1,0-0.2,0.1-0.3c0,0,0,0-0.1-0.1s0,0,0-0.1c0-0.2,0-0.4,0-0.4l0,0l0,0
		c0-0.2,0-0.4,0-0.5H71c0,0,0-0.1,0-0.2c0,0,0,0,0-0.1c0,0,0,0,0-0.1s0,0,0-0.1V45c0,0,0-0.1-0.1-0.1c-0.1-0.1-0.1-0.2,0-0.2
		c0,0,0-0.1-0.1-0.1v-0.1c0,0-0.1-0.1-0.2-0.2c0-0.1,0-0.1,0-0.2V44c0-0.1,0-0.1,0-0.2c0.1-0.1,0.1-0.2,0.1-0.2s0.1-0.1,0.1-0.2
		c0.1-0.1,0.1-0.1,0.2-0.2l0,0c0,0,0,0,0-0.1l0.1,0.1h0.1c0.1,0,0.1,0,0.1,0s0.1,0,0.1-0.1c0.1-0.1,0.1-0.1,0.1-0.1s0.1,0,0.2,0
		s0.1,0,0.2,0c0,0,0,0,0.1,0c0,0,0,0,0.1,0s0.2,0,0.3-0.1c0.3-0.1,0.5-0.1,0.5-0.1h0.2l0,0l0,0h0.1c0,0,0.1,0,0.2-0.1
		s0.1-0.1,0.2-0.1v-0.1h0.1l0,0l0,0c0.2,0,0.3-0.1,0.3-0.1s0.1,0,0.2,0.1l0.2-0.1c0,0,0.1-0.1,0.2-0.2c0,0.1,0,0.1,0.1,0.1h0.1
		c0.1,0,0.1,0,0.1,0s0,0,0.1,0h0.1h0.1c0.1,0,0.1,0,0.2,0s0.2,0,0.3-0.1h0.1h0.1c0.1,0,0.1,0,0.1,0s0.1,0,0.2-0.1h0.1h0.1l0,0l0,0
		C76.9,42.3,77.1,42.2,77.1,42.1z M76.5,42.2c0.4,0.1,0.6,0,0.6-0.1c0,0,0.1,0,0.3,0l0,0l0,0h0.1c0.1,0,0.1,0,0.1,0
		c0.1,0,0.2,0,0.3,0.1c0.4,0,0.6,0.1,0.7,0.2h0.1c0,0,0.1,0.1,0.2,0.2c0.1,0.1,0.2,0.1,0.2,0.2v0.1c0.1,0.1,0.2,0.3,0.3,0.6
		c0,0,0.1,0,0.1,0.1s0,0.2,0,0.3s0,0.2,0,0.2c0,0.1-0.1,0.1-0.1,0.2l-0.1,0.1c0,0.1,0,0.1-0.1,0.2v0.1v0.1l0,0l0,0c0,0,0,0-0.1,0.1
		H79c0,0,0,0,0,0.1c0,0,0,0-0.1,0.1c-0.1,0-0.2,0-0.2,0c0,0.1,0,0.1,0,0.1h-0.1c-0.1,0-0.1,0-0.1,0s0,0-0.1,0c0,0,0,0-0.1,0
		c0,0,0,0,0.1-0.1c0,0,0-0.1-0.1-0.1c0-0.1,0-0.1-0.1-0.1c0,0,0,0-0.1,0.1H78c0,0,0-0.1-0.1-0.1c0-0.1-0.1-0.1-0.1-0.1s0,0,0,0.1
		l0,0c0,0,0,0-0.1-0.1v-0.1c0,0,0,0-0.1,0c0-0.1-0.2-0.2-0.4-0.2c0,0-0.1,0-0.2,0.1c0,0-0.1,0-0.2,0s-0.1,0-0.1,0s0,0-0.1,0.1
		c0,0-0.1,0-0.3,0c-0.2,0-0.4,0.1-0.4,0.2c-0.1-0.1-0.2-0.1-0.3,0c-0.1,0-0.1,0-0.2,0s-0.1,0-0.2,0V45c-0.1,0-0.2,0-0.2,0
		c-0.1,0-0.1-0.1-0.2,0c0,0,0,0-0.1,0c0,0,0,0-0.1,0c0,0-0.1,0-0.2,0s-0.1,0-0.1,0s-0.1,0-0.1,0.1h-0.1H74v0.1c-0.2,0-0.3,0-0.4,0
		l0,0l0,0c-0.2-0.1-0.4-0.1-0.5,0.1c0,0-0.1,0-0.1-0.1c-0.1,0-0.1,0.1,0,0.2v0.1c0,0,0,0,0,0.1v0.1v0.1c0,0.1,0,0.2,0.1,0.2
		c0,0.1,0,0.2,0.1,0.3s0.1,0.2,0,0.2c0,0.1,0,0.2,0.1,0.2l0,0l0,0v0.1c0,0,0,0.1,0.1,0.1c0,0.5,0,0.7,0,0.8c-0.1,0.1-0.1,0.2,0,0.4
		c0,0,0,0.1,0,0.2v0.1v0.1c0.1,0,0.1,0.1,0.1,0.1s0,0,0,0.1c0,0,0,0,0,0.1s0,0.2,0,0.4s0,0.3,0,0.4c0,0,0,0.1,0,0.2
		c0,0.1,0.1,0.1,0.2,0.1s0.2-0.1,0.2-0.1c0.2,0,0.3,0,0.4-0.1c0.3,0,0.4,0,0.4,0c0.1,0,0.2,0,0.3,0h0.1c0.1,0,0.1,0,0.1,0h0.1
		c0.1,0,0.2,0,0.2-0.1c0.1,0,0.3,0,0.4,0c0,0,0,0,0.1,0c0,0,0,0,0.1,0s0.1,0,0.1,0c0.1,0,0.1,0,0.1,0c0.1,0,0.2,0,0.3,0v-0.1
		c0.1,0,0.2,0.1,0.3,0c0.1,0,0.2-0.1,0.3-0.1h0.1h0.1l0,0l0,0c0,0,0.1,0,0.1-0.1c0.1-0.1,0.1-0.1,0.2,0l0.1-0.1c0,0,0,0,0.1,0.1
		c0.2,0,0.3,0,0.3-0.1c0,0,0.1,0,0.2,0s0.1,0,0.1,0h0.1c0.1,0,0.1,0,0.1,0c0.1,0,0.2,0.1,0.2,0.1s0.1,0,0.2,0l0,0c0,0,0,0,0,0.1
		c0.2,0,0.3,0,0.3,0s0,0.1,0.1,0.2v0.1c0,0,0,0.1,0.1,0.2c0,0.1,0.1,0.2,0.2,0.3c0,0,0,0-0.1,0.1c0,0.1,0,0.2-0.1,0.2
		c0,0.1-0.1,0.1-0.1,0.2h-0.1l0,0l0,0h-0.1l0,0h-0.1c0,0,0,0-0.1,0c0,0,0,0-0.1,0c0,0-0.1,0-0.1,0.1h-0.1c0,0-0.1,0.1-0.3,0.1
		c-0.1,0-0.2,0.1-0.2,0.2c-0.2,0-0.3,0-0.4,0.2c0,0,0,0-0.1,0l0,0l0,0c-0.1,0-0.1,0-0.2-0.1l0,0c0,0,0,0,0,0.1c0,0-0.1,0-0.2,0
		s-0.2,0-0.2,0s0,0-0.1,0L77,51.4c-0.1,0-0.1,0-0.2,0s-0.1,0,0,0.1c0,0-0.1-0.1-0.2,0c-0.1,0-0.1,0-0.2,0v0.1c0,0-0.1,0-0.2,0
		s-0.1,0-0.1,0s-0.1,0-0.2,0v0.1c0,0-0.1,0-0.2,0h-0.1c0,0-0.1,0.1,0,0.1l-0.2-0.1c0,0-0.1,0-0.3,0c0,0,0,0-0.1,0.1c0,0,0,0-0.1,0
		c-0.2,0-0.3,0-0.3,0l0.4,0c-0.2,0-0.4,0-0.4,0s-0.1,0-0.2,0.1c0,0,0,0,0,0.1c-0.2,0.1-0.3,0.1-0.4,0c0,0,0,0-0.1,0h-0.1
		c0,0,0,0-0.1,0c0,0,0,0-0.1,0c0,0-0.1,0-0.2,0.1c-0.1,0-0.1,0-0.1,0c-0.1,0-0.1,0.1,0,0.4c0,0,0,0,0,0.1v0.1c0,0,0,0.1,0.1,0.1
		c0,0.1,0,0.1-0.1,0.2v0.1c0,0.1,0,0.1,0.1,0.2l0,0l0,0c0,0,0,0.1-0.1,0.2c0.1,0.1,0.1,0.2,0.1,0.4s0,0.3,0,0.4
		c-0.1,0.2-0.1,0.3,0,0.3c0,0,0,0.1,0,0.2c0,0,0,0,0,0.1V55c0.1,0.1,0.1,0.3,0.1,0.3s0.1,0.1,0.1,0.2c0,0.1,0.1,0.2,0.1,0.2
		c0.1,0,0.1,0,0.3,0.1c0.1,0,0.2,0,0.3,0c0,0,0,0,0.1-0.1c0,0,0.1,0,0.1,0.1c0.3,0,0.5,0,0.5-0.1c0,0,0.1,0,0.2,0s0.2,0,0.3,0
		c0-0.1,0.2-0.1,0.5-0.1l0,0l0,0c0,0,0.1,0,0.2,0s0.1,0,0.2,0c0,0,0.1,0,0.1-0.1c0.1,0,0.1-0.1,0.1-0.1c0.1,0,0.3,0,0.4-0.1
		s0.3-0.1,0.4-0.1c0-0.1,0-0.1,0.1-0.1s0.2,0,0.3,0c0.2,0,0.3-0.1,0.4-0.2c0.1,0,0.2,0,0.2,0c0.1-0.1,0.1-0.1,0.2-0.1
		c0.4,0,0.6,0,0.6,0.1h0.1c0,0.1,0.1,0.2,0.2,0.3h0.1c0,0,0.1,0.1,0.2,0.2c0,0.1,0.1,0.2,0.2,0.3c0,0,0,0.1,0.1,0.2
		c0.1,0.1,0.1,0.1,0.1,0.2c0,0,0,0,0,0.1s0,0.1,0,0.1c-0.1,0.1-0.2,0.2-0.2,0.3c-0.1,0-0.2,0.1-0.2,0.2c-0.1,0-0.2,0.1-0.3,0.3
		c0,0,0,0-0.1,0c0,0,0,0-0.1,0c0,0,0,0.1-0.1,0.2c0,0,0,0-0.1,0c0,0,0,0-0.1,0c0,0-0.1,0-0.1,0.1c-0.1,0-0.2,0-0.2,0.1h-0.1
		c-0.1,0.1-0.2,0.2-0.3,0.1c0,0-0.1,0-0.1,0.1c0,0,0,0-0.1,0s-0.2-0.1-0.2,0c0,0-0.1,0.1-0.1,0.2h-0.1l0,0V58c0,0-0.1,0-0.1-0.1
		c-0.1,0-0.1,0-0.2,0c0,0,0,0,0,0.1c0,0,0,0,0,0.1c0,0,0,0-0.1,0c0,0,0,0-0.1,0c0,0,0,0-0.1,0.1c-0.1,0-0.2,0-0.3,0c0,0,0,0,0,0.1
		c-0.1,0-0.2,0-0.2,0c-0.1,0-0.2,0-0.2,0.1c0,0,0,0-0.1,0l0,0c0,0-0.1,0-0.2,0s-0.2,0-0.2,0.1v0.1c0,0-0.1,0-0.2,0h-0.1
		c0,0,0-0.1-0.1-0.1c-0.2,0-0.3,0.1-0.3,0.1v0.1h-0.1c0,0,0,0-0.1-0.1c0,0,0,0-0.1,0.1c0,0,0,0-0.1,0h-0.1c0,0-0.1,0-0.2,0v-0.1
		h-0.1c-0.1,0-0.1,0-0.1,0.1c-0.1,0-0.3,0-0.4,0c0-0.1,0-0.1-0.1-0.1h-0.1c0,0,0,0,0,0.1v0.1l0,0l0,0h-0.1v-0.1
		c0-0.1-0.1-0.1-0.2-0.1s-0.1-0.1-0.2-0.1c0,0-0.1,0-0.1-0.1S73,58.3,73,58.3s0,0-0.1,0c0,0,0,0-0.1,0c0,0,0,0,0-0.1l0,0
		c0,0,0,0-0.1,0h-0.1c0-0.1,0-0.2-0.2-0.3v-0.1c-0.1-0.1-0.2-0.1-0.2-0.2h-0.1c-0.1,0-0.1-0.1-0.2-0.1c-0.1-0.1-0.1-0.1-0.2-0.2
		c-0.1-0.1-0.1-0.1-0.1-0.2c-0.1-0.3-0.2-0.5-0.2-0.5s0-0.1-0.1-0.2c0,0,0-0.1,0-0.2c0-0.1,0-0.1,0-0.2c0,0,0-0.1-0.1-0.1
		c0,0,0,0,0-0.1c0,0,0,0,0-0.1c0,0,0-0.1,0-0.2c0-0.1,0-0.2-0.1-0.2c0,0,0-0.1,0-0.3c0-0.1,0-0.2,0-0.2c0-0.3,0-0.7,0-1.3s0-1,0-1.3
		c0.1,0,0.1,0,0.1-0.1s0-0.1-0.1-0.1c0-0.1,0-0.1,0-0.2c0-0.1,0-0.2,0-0.2L71,51.5c0,0,0-0.1,0.1-0.1c0-0.1,0-0.5,0-1.2l0.1-0.1
		c0,0,0-0.1-0.1-0.1c0,0,0-0.1,0-0.2c0-0.1,0-0.2,0-0.3c0,0,0,0,0-0.1s0-0.1,0-0.2c0,0,0-0.2,0-0.4s0-0.3-0.1-0.3
		c0.1,0,0.1-0.1,0.1-0.3s0-0.3,0-0.3l0-0.9c0-0.1,0-0.2,0.1-0.3c0,0,0,0-0.1-0.1s0,0,0-0.1c0-0.2,0-0.4,0-0.4l0,0l0,0
		c0-0.2,0-0.4,0-0.5H71c0,0,0-0.1,0-0.2c0,0,0,0,0-0.1c0,0,0,0,0-0.1s0,0,0-0.1V45c0,0,0-0.1-0.1-0.1c-0.1-0.1-0.1-0.2,0-0.2
		c0,0,0-0.1-0.1-0.1v-0.1c0,0-0.1-0.1-0.2-0.2c0-0.1,0-0.1,0-0.2V44c0-0.1,0-0.1,0-0.2c0.1-0.1,0.1-0.2,0.1-0.2s0.1-0.1,0.1-0.2
		c0.1-0.1,0.1-0.1,0.2-0.2l0,0c0,0,0,0,0-0.1l0.1,0.1h0.1c0.1,0,0.1,0,0.1,0s0.1,0,0.1-0.1c0.1-0.1,0.1-0.1,0.1-0.1s0.1,0,0.2,0
		s0.1,0,0.2,0c0,0,0,0,0.1,0c0,0,0,0,0.1,0s0.2,0,0.3-0.1c0.3-0.1,0.5-0.1,0.5-0.1h0.2l0,0l0,0h0.1c0,0,0.1,0,0.2-0.1
		s0.1-0.1,0.2-0.1v-0.1h0.1l0,0l0,0c0.2,0,0.3-0.1,0.3-0.1s0.1,0,0.2,0.1l0.2-0.1c0,0,0.1-0.1,0.2-0.2c0,0.1,0,0.1,0.1,0.1h0.1
		c0.1,0,0.1,0,0.1,0s0,0,0.1,0h0.1h0.1c0.1,0,0.1,0,0.2,0s0.2,0,0.3-0.1h0.1h0.1c0.1,0,0.1,0,0.1,0s0.1,0,0.2-0.1h0.1
		C76.4,42.3,76.4,42.3,76.5,42.2C76.5,42.3,76.5,42.2,76.5,42.2C76.4,42.2,76.4,42.2,76.5,42.2z"/>
</g>
</svg>
