<?xml version="1.0" encoding="utf-8"?>
<!-- Generator: Adobe Illustrator 19.0.1, SVG Export Plug-In . SVG Version: 6.00 Build 0)  -->
<svg version="1.1" id="Layer_1" xmlns="http://www.w3.org/2000/svg" xmlns:xlink="http://www.w3.org/1999/xlink" x="0px" y="0px"
	 viewBox="0 0 100 100" style="enable-background:new 0 0 100 100;" xml:space="preserve">
<style type="text/css">
	.st0{fill:#C35B28;}
	.st1{display:none;}
	.st2{display:inline;fill:none;stroke:#231F20;stroke-miterlimit:10;}
</style>
<g id="Layer_1_1_">
	<g>
		<g>
			<path class="st0" d="M23,39.9c-3.1-1.6-2.5,12.3-1.8,18.7c0,0.4,0.4,1.3,1.5,1.6c2.4,0.6,10.9-4.6,15.7-8.9
				c1.4-1.3,1.4-1.7,1.4-1.9C39.7,46.9,28.9,42.6,23,39.9"/>
		</g>
		<g>
			<path class="st0" d="M43.2,39.9c-3.1-1.6-2.5,12.3-1.8,18.7c0,0.4,0.4,1.3,1.5,1.6c2.4,0.6,10.9-4.6,15.7-8.9
				C60,50,60,49.6,60,49.4C60,46.9,49.1,42.6,43.2,39.9"/>
		</g>
		<g>
			<path class="st0" d="M63.4,39.9c-3.1-1.6-2.5,12.3-1.8,18.7c0,0.4,0.4,1.3,1.5,1.6c2.4,0.6,10.9-4.6,15.7-8.9
				c1.4-1.3,1.4-1.7,1.4-1.9C80.2,46.9,69.4,42.6,63.4,39.9"/>
		</g>
	</g>
</g>
<g id="Layer_2" class="st1">
	<circle class="st2" cx="50" cy="50" r="50"/>
</g>
</svg>
