<?xml version="1.0" encoding="utf-8"?>
<!-- Generator: Adobe Illustrator 19.0.1, SVG Export Plug-In . SVG Version: 6.00 Build 0)  -->
<svg version="1.1" id="Layer_1" xmlns="http://www.w3.org/2000/svg" xmlns:xlink="http://www.w3.org/1999/xlink" x="0px" y="0px"
	 viewBox="0 0 100 100" style="enable-background:new 0 0 100 100;" xml:space="preserve">
<style type="text/css">
	.st0{fill:#C35B28;}
</style>
<g>
	<path class="st0" d="M17.9,43.2L17.9,43.2c0.2,0.2,0.3,0.3,0.4,0.4h0.1c0,0.1,0,0.1,0.1,0.2c0,0.1,0,0.1,0.1,0.2h0.1
		c0,0.2,0,0.3,0,0.4c0,0.1,0.1,0.1,0.1,0.2c0,0.1,0,0.1,0,0.2c0,0.1,0,0.2,0,0.3c-0.1,0.1-0.2,0.2-0.2,0.3h-0.1l-0.1,0.1
		c0,0,0,0-0.1,0h-0.1l0,0c0,0,0,0-0.1,0c0,0,0,0-0.1,0c0,0-0.1,0.1-0.1,0.2c0,0-0.1,0-0.2-0.1h-0.1c0,0,0,0-0.1,0
		c0-0.1,0-0.2-0.2-0.3c0,0,0,0-0.1,0c0,0,0,0-0.1,0L17,45.2h-0.1l0,0v-0.1C16.8,45,16.8,45,16.6,45c0,0-0.1,0-0.1,0.1
		c-0.1,0-0.2,0-0.2,0s0,0-0.1,0h-0.1c0,0,0,0-0.1,0h-0.1c0,0-0.1,0-0.2-0.1c0,0,0,0-0.1,0.1h-0.1c0,0,0,0-0.1,0h-0.1h-0.1
		c0,0,0,0-0.1,0H15c0,0,0,0-0.1,0c0,0,0,0-0.1,0s-0.1,0-0.2,0c-0.2,0-0.4,0.1-0.4,0.1v0.1c0,0,0,0-0.1,0c0,0-0.1,0-0.1-0.1
		c0,0-0.1,0-0.2,0.1l0,0l0,0c0,0-0.1,0.1-0.3,0.1s-0.3,0.1-0.3,0.1v0.1h-0.1l0,0c0,0,0,0,0,0.1H13c0,0-0.1,0-0.1,0.1h-0.1
		c-0.1,0-0.1,0-0.1,0s0,0,0,0.1c0,0,0,0,0,0.1s0,0.1,0.1,0.1h0.1c0,0,0.1,0.1,0.2,0.2c0,0,0,0,0.1,0c0,0,0,0,0.1,0c0,0,0,0,0,0.1
		v0.1c0.1,0,0.1,0,0.2,0.1c0.1,0,0.1,0.1,0.2,0.1c0,0,0,0,0.1,0s0.1,0,0.2,0c0,0,0.1,0,0.1,0.1h0.1c0,0,0,0,0.1,0l0,0
		c0.2,0,0.4,0.1,0.4,0.1c0.1,0,0.2,0,0.3,0c0,0,0.1,0,0.1,0.1c0,0,0.1,0,0.2,0c0.1,0,0.1,0,0.2,0l0,0l0,0h0.1c0,0,0,0,0.1,0
		c0,0,0,0,0.1,0s0,0,0.1,0H16c0.1,0.1,0.3,0.1,0.3,0.1l0.1-0.1c0.1,0,0.1,0,0.2,0c0,0,0,0,0,0.1c0.1,0.1,0.1,0.1,0.2,0.1
		c0,0,0,0,0.1,0c0,0,0,0,0.1,0c0,0.1,0,0.2,0.1,0.2l0,0l0,0c0.1,0,0.2,0,0.2,0c0,0.1,0,0.1,0.1,0.1s0.1,0.1,0.1,0.1
		c0.2,0,0.3,0,0.4,0.1c0,0,0,0,0.1,0h0.1c0,0,0,0,0.1,0.1l0.1,0.1c0,0,0.1,0,0.1-0.1h0.1c0,0.1,0,0.1,0.1,0.2c0.1,0,0.1,0,0.2,0
		s0.1,0.1,0.1,0.1s0,0,0.1,0h0.1c0,0,0,0,0,0.1c0,0,0.1,0.1,0.2,0.1s0.2,0.1,0.2,0.2h0.1c0.1,0,0.1,0.1,0.2,0.1
		c0.1,0.1,0.1,0.2,0.2,0.2c0,0,0,0,0.1,0c0,0,0,0,0.1,0c0,0,0,0,0,0.1c0,0,0.1,0.1,0.3,0.3c0.1,0.1,0.2,0.2,0.3,0.3
		c0,0,0,0.1,0.1,0.1c0,0.1,0,0.1,0,0.1c0.1,0.1,0.2,0.2,0.2,0.4c0,0,0.1,0.1,0.1,0.2c0,0.1,0.1,0.1,0.1,0.2c0,0,0,0,0,0.1
		c0,0,0,0,0,0.1c0,0,0,0,0,0.1v0.1c0,0,0,0,0,0.1v0.1c0,0,0,0,0,0.1c0,0,0,0,0,0.1c0,0,0,0.1,0,0.2c0,0.1,0,0.2,0.1,0.2
		c0,0,0,0,0,0.1c0,0,0,0,0,0.1c0,0,0,0.1,0,0.3s-0.1,0.3-0.1,0.3v0.1c0,0,0,0.1-0.1,0.1l-0.1,0.1c0,0,0,0.1-0.1,0.2v0.1
		c-0.1,0.1-0.2,0.2-0.2,0.3c-0.1,0.1-0.2,0.2-0.3,0.3c0,0.1,0,0.2-0.1,0.3s-0.2,0.1-0.2,0.2c0,0,0,0.1-0.1,0.1c0,0,0,0,0,0.1
		c0,0,0,0-0.1,0c0,0,0,0-0.1,0c0,0-0.1,0.1,0,0.1c0,0-0.1,0.1-0.3,0.2v0.1c-0.1,0.1-0.2,0.1-0.3,0.2c0,0-0.1,0-0.2,0.1
		c-0.1,0-0.1,0.1-0.2,0.1c0.1-0.2,0-0.2,0-0.2v0.1c0,0.1,0,0.1,0,0.1s0,0-0.1,0l0,0c0,0-0.1,0-0.1,0.1c-0.1,0-0.1,0.1-0.1,0.1
		l-0.1,0.1h-0.1c-0.1,0-0.1,0-0.1,0c-0.1,0-0.2,0.1-0.2,0c-0.1,0.1-0.1,0.1-0.2,0.1c-0.1,0.1-0.1,0.1-0.2,0.1h-0.1
		c0,0-0.1,0-0.1,0.1l-0.1,0.1c-0.1,0-0.1,0-0.2,0.1c-0.1,0-0.1,0.1-0.2,0.1h-0.1c-0.1,0-0.1,0-0.1,0h-0.1c-0.1,0-0.1,0-0.1,0h-0.1
		h-0.1c0,0,0,0-0.1,0.1c0,0-0.1,0-0.3,0c0,0,0,0-0.1-0.1s-0.3-0.1-0.3,0h-0.1l-0.1,0.1c0-0.1-0.1-0.1-0.3-0.1c-0.1,0-0.1,0-0.2,0
		C14.8,56,14.8,56,14.8,56s0,0-0.1,0h-0.1c0,0,0,0,0-0.1c0,0,0,0,0-0.1c0,0-0.1,0-0.2,0c-0.1,0-0.1,0-0.1,0s-0.1,0-0.1-0.1h-0.1
		v-0.1c0,0-0.1,0-0.2,0l0,0c0,0,0,0,0-0.1c0,0-0.1,0-0.1-0.1s-0.1-0.1-0.1-0.1c-0.1-0.1-0.2-0.1-0.2-0.1v-0.1c0,0-0.1-0.1-0.2-0.1
		C13,54.9,13,54.8,13,54.8l0,0l0,0c0-0.1,0-0.2-0.1-0.3s-0.1-0.1-0.2-0.1c0,0,0,0,0-0.1c0,0,0,0,0-0.1c0,0,0,0-0.1-0.1
		c0-0.1-0.1-0.1-0.1-0.1c-0.1-0.1-0.1-0.1-0.1-0.1s0,0,0-0.1v-0.1c0,0,0,0,0-0.1v-0.1c0,0,0,0,0-0.1c0,0,0,0,0-0.1v-0.1
		c0-0.1-0.1-0.1-0.1-0.1s0-0.1,0-0.2c0-0.1,0-0.1,0-0.1l0,0l0,0c0,0,0-0.1-0.1-0.3c0.1,0,0.1,0,0.2,0c0,0,0.1-0.1,0-0.2l0.1-0.1
		l0.1-0.1c0,0,0,0,0.1,0c0,0,0,0,0,0.1l0.1-0.1V52l0.1-0.1c0.1,0,0.1,0,0.1,0s0,0,0-0.1h0.1c0,0,0,0,0.1,0.1c0,0,0,0,0.1,0
		c0,0,0,0,0.1,0c0.1,0.1,0.1,0.2,0.2,0.2c0.1,0,0.1,0,0.1,0s0,0,0.1,0s0.1,0.1,0.2,0.1l0.1,0.1c0,0,0.1,0,0.1,0.1
		c0,0,0.1,0.1,0.1,0.2c0,0.1,0.1,0.1,0.1,0.2c0.1,0,0.1,0.1,0.2,0.2c0.1,0.1,0.2,0.2,0.2,0.2s0,0,0,0.1c0,0,0,0,0,0.1l0.2,0.1h0.1
		c0.1,0,0.1,0,0.1,0s0,0,0,0.1l0,0c0,0,0.1,0,0.2,0c0.1,0,0.2,0,0.2,0s0,0,0.1,0c0,0,0,0,0.1,0s0.1,0,0.2,0c0.1,0,0.1-0.1,0.1-0.1
		s0,0,0.1,0h0.1h0.1c0.1,0,0.1,0,0.1,0h0.1h0.1l0,0l0,0c0,0,0,0,0.1,0h0.1c0,0,0,0,0-0.1H17h0.1l0,0l0,0h0.1c0.1,0,0.1-0.1,0.1-0.2
		c0,0,0.1,0,0.1,0.1c0,0,0.1,0,0.1-0.1c0.1-0.1,0.1-0.1,0.2-0.1c0-0.1,0.2-0.2,0.4-0.3c0.2-0.1,0.4-0.3,0.4-0.4
		c0.1,0,0.2-0.1,0.2-0.2l0.1-0.1l0.1-0.1v-0.1c0,0,0-0.1,0.1-0.1v-0.2c0.1,0,0.1-0.1,0.1-0.1c0-0.1,0-0.2,0-0.3s0-0.2,0-0.3
		c0,0,0,0,0-0.1l0,0v-0.1L19,50.6c-0.1,0-0.1-0.1-0.1-0.1c-0.1,0-0.1,0.1-0.2,0v-0.1h-0.1l0,0l0,0c0,0,0,0-0.1,0s-0.1,0-0.1,0l0,0
		v-0.1c0,0-0.1,0-0.2,0s-0.2,0-0.2,0c-0.1,0-0.2-0.1-0.3,0c0,0,0,0,0-0.1c0,0-0.1-0.1-0.3-0.1c-0.2,0-0.3-0.1-0.3-0.1
		c-0.1-0.1-0.3-0.2-0.6-0.2l0,0l0,0c0,0,0,0,0-0.1c0,0-0.1,0-0.1-0.1c-0.1-0.1-0.1-0.1-0.1,0l0,0c0,0,0,0,0,0.1c0,0,0,0-0.1-0.1
		s-0.1,0-0.1,0c0-0.1-0.1-0.1-0.2,0c0-0.1-0.1-0.2-0.1-0.2c-0.1,0.1-0.2,0.1-0.3,0c0,0-0.2-0.1-0.3,0c0-0.1-0.1-0.1-0.1-0.2
		c-0.1,0-0.2,0-0.3-0.1c0,0,0,0-0.1,0h-0.1l0,0l0,0l0,0l0,0l0,0c-0.2-0.1-0.3-0.1-0.4,0c0,0,0,0,0-0.1c0,0,0,0-0.1-0.1
		c0,0,0,0-0.1,0c0,0,0,0-0.1,0c0,0,0,0-0.1,0c0,0-0.1,0-0.2,0c-0.1,0-0.2,0-0.2-0.1l-0.1-0.1c0,0,0,0-0.1,0h-0.1c0-0.1,0-0.1,0-0.1
		s0,0-0.1,0c0,0,0,0-0.1,0s0,0,0,0l0,0l0,0l0,0c0,0,0,0-0.1,0h-0.1c0,0,0,0,0-0.1l0,0c0-0.1-0.1-0.1-0.2-0.1c-0.1,0-0.1-0.1-0.1-0.2
		c0,0,0,0-0.1,0h-0.1c0,0,0-0.1-0.1-0.2c0-0.1,0-0.1-0.1-0.2c-0.1-0.1-0.2-0.1-0.2-0.2c0,0,0,0-0.1,0c0,0-0.1,0-0.1-0.1v-0.1
		C11.1,47.1,11,47,11,46.8c0,0-0.1,0-0.1-0.1s-0.1-0.1-0.1-0.1s0-0.1,0-0.2c-0.1-0.1-0.3-0.2-0.3-0.3c0,0,0,0,0-0.1s0-0.1,0-0.1
		s0,0,0-0.1l0,0c0,0,0,0,0-0.1v-0.1c0-0.1,0-0.1,0-0.2v-0.1v-0.1c0,0,0-0.1,0.1-0.1V45v-0.1c0.1,0,0.2-0.1,0.3-0.3H11l0,0l0,0
		c0,0,0.1,0,0.2-0.1c0.1-0.1,0.2-0.1,0.3-0.2c0.1,0,0.1,0,0.1,0s0,0,0.1-0.1c0,0,0,0,0.1,0c0,0,0,0,0.1,0H12c0.1,0,0.1,0,0.1,0
		c0.1,0,0.1-0.1,0.2-0.2c0.1,0,0.2,0,0.2-0.1c0.1,0,0.1,0,0.2,0c0.1,0,0.1,0,0.2,0c0,0,0.1,0,0.1-0.1c0.1-0.1,0.1-0.1,0.1-0.1
		c0.1,0,0.1,0,0.1,0h0.1c0.1,0,0.1,0,0.1-0.1h0.1c0,0,0,0,0.1,0h0.1h0.1c0,0,0.1-0.1,0.2-0.2c0.1,0,0.1,0,0.2-0.1v0.1
		c0.1,0,0.2-0.1,0.3,0c0.1,0,0.2,0,0.3,0c0,0,0,0,0.1,0c0,0,0.1,0,0.1-0.1h0.1c0,0,0,0,0.1,0h0.1c0.1,0,0.2,0,0.5,0
		c0.2,0,0.4,0,0.6,0c0,0,0.1,0,0.2,0s0.1,0,0.1,0h0.1c0.1,0,0.1,0,0.1,0s0.1,0,0.1,0.1c0.2,0,0.3,0,0.4,0.1c0.1,0,0.2,0,0.3,0.1
		C17.8,43.2,17.8,43.2,17.9,43.2z M17.4,43.1c0.1,0,0.2,0,0.3,0.1c0.1,0,0.2,0.1,0.2,0.1v0.1c0.2,0.1,0.3,0.2,0.4,0.3h0.1
		c0,0.1,0,0.1,0.1,0.2c0,0.1,0,0.1,0.1,0.2h0.1c0,0.2,0,0.3,0,0.4c0,0.1,0.1,0.1,0.1,0.2c0,0.1,0,0.1,0,0.2c0,0.1,0,0.2,0,0.3
		c-0.1,0.1-0.2,0.2-0.2,0.3h-0.1l-0.1,0.1c0,0,0,0-0.1,0h-0.1l0,0c0,0,0,0-0.1,0c0,0,0,0-0.1,0c0,0-0.1,0.1-0.1,0.2
		c0,0-0.1,0-0.2-0.1h-0.1c0,0,0,0-0.1,0c0-0.1,0-0.2-0.2-0.3c0,0,0,0-0.1,0c0,0,0,0-0.1,0L17,45.3h-0.1l0,0v-0.1
		c-0.1-0.1-0.1-0.1-0.3-0.1c0,0-0.1,0-0.1,0.1c-0.1,0-0.2,0-0.2,0s0,0-0.1,0h-0.1c0,0,0,0-0.1,0h-0.1c0,0-0.1,0-0.2-0.1
		c0,0,0,0-0.1,0.1h-0.1c0,0,0,0-0.1,0h-0.1h-0.1c0,0,0,0-0.1,0H15c0,0,0,0-0.1,0c0,0,0,0-0.1,0s-0.1,0-0.2,0c-0.2,0-0.4,0-0.4,0.1
		c0,0,0,0,0,0.1c0,0,0,0,0,0.1c0,0,0,0-0.1,0c0,0-0.1,0-0.1-0.1c0,0-0.1,0-0.2,0.1l0,0l0,0c0,0-0.1,0.1-0.3,0.1s-0.3,0.1-0.3,0.1
		v0.1h-0.1l0,0c0,0,0,0,0,0.1H13c0,0-0.1,0-0.1,0.1h-0.1c-0.1,0-0.1,0-0.1,0s0,0,0,0.1c0,0,0,0,0,0.1s0,0.1,0.1,0.1h0.1
		c0,0,0.1,0.1,0.2,0.2c0,0,0,0,0.1,0c0,0,0,0,0.1,0c0,0,0,0,0,0.1v0.1c0.1,0,0.1,0,0.2,0.1c0.1,0,0.1,0.1,0.2,0.1c0,0,0,0,0.1,0
		s0.1,0,0.2,0c0,0,0.1,0,0.1,0.1h0.1c0,0,0,0,0.1,0l0,0c0.2,0,0.4,0.1,0.4,0.1c0.1,0,0.2,0,0.3,0c0,0,0.1,0,0.1,0.1c0,0,0.1,0,0.2,0
		c0.1,0,0.1,0,0.2,0l0,0l0,0h0.1c0,0,0,0,0.1,0c0,0,0,0,0.1,0s0,0,0.1,0H16c0.1,0.1,0.3,0.1,0.3,0.1l0.1-0.1c0.1,0,0.1,0,0.2,0
		c0,0,0,0,0,0.1c0.1,0.1,0.1,0.1,0.2,0.1c0,0,0,0,0.1,0c0,0,0,0,0.1,0c0,0.1,0,0.2,0.1,0.2l0,0l0,0c0.1,0,0.2,0,0.2,0
		c0,0.1,0,0.1,0.1,0.1s0.1,0.1,0.1,0.1c0.2,0,0.3,0,0.4,0.1c0,0,0,0,0.1,0h0.1c0,0,0,0,0.1,0.1l0.1,0.1c0,0,0.1,0,0.1-0.1h0.1
		c0,0.1,0,0.1,0.1,0.2c0.1,0,0.1,0,0.2,0s0.1,0.1,0.1,0.1s0,0,0.1,0h0.1c0,0,0,0,0,0.1c0,0,0.1,0.1,0.2,0.1s0.2,0.1,0.2,0.2h0.1
		c0.1,0,0.1,0.1,0.2,0.1c0.1,0.1,0.1,0.2,0.2,0.2c0,0,0,0,0.1,0c0,0,0,0,0.1,0c0,0,0,0,0,0.1c0,0,0.1,0.1,0.3,0.3
		c0.1,0.1,0.2,0.2,0.3,0.3c0,0,0,0.1,0.1,0.1c0,0.1,0,0.1,0,0.1c0.1,0.1,0.2,0.2,0.2,0.4c0,0,0.1,0.1,0.1,0.2c0,0.1,0.1,0.1,0.1,0.2
		c0,0,0,0,0,0.1c0,0,0,0,0,0.1c0,0,0,0,0,0.1v0.1c0,0,0,0,0,0.1v0.1c0,0,0,0,0,0.1v0.1c0,0,0,0.1,0,0.2c0,0.1,0,0.2,0.1,0.2
		c0,0,0,0,0,0.1c0,0,0,0,0,0.1c0,0,0,0.1,0,0.3s-0.1,0.3-0.1,0.3v0.1c0,0,0,0.1-0.1,0.1L21.1,53c0,0,0,0.1-0.1,0.2v0.1
		c-0.1,0.1-0.2,0.2-0.2,0.3c-0.1,0.1-0.2,0.2-0.3,0.3c0,0.1,0,0.2-0.1,0.3s-0.2,0.1-0.2,0.2c0,0,0,0.1-0.1,0.1c0,0,0,0,0,0.1
		c0,0,0,0-0.1,0c0,0,0,0-0.1,0c0,0-0.1,0.1,0,0.2c0,0-0.1,0.1-0.3,0.2v0.1c-0.1,0.1-0.2,0.1-0.3,0.2c0,0-0.1,0.1-0.2,0.2
		c-0.1,0-0.1,0.1-0.2,0.1c0.1-0.6,0-0.6,0-0.6v0.1c0,0.1,0,0.1,0,0.1s0,0-0.1,0l0,0c0,0-0.1,0-0.1,0.1c-0.1,0-0.1,0.1-0.1,0.1
		l-0.1,0.1h-0.1c-0.1,0-0.1,0-0.1,0c-0.1,0-0.2,0.1-0.2,0c-0.1,0.1-0.1,0.1-0.2,0.1c-0.1,0.1-0.1,0.1-0.2,0.1h-0.1
		c0,0-0.1,0-0.1,0.1l-0.1,0.1c-0.1,0-0.1,0-0.2,0S17.1,56,17,56h-0.1c-0.1,0-0.1,0-0.1,0h-0.1c-0.1,0-0.1,0-0.1,0h-0.1h-0.1
		c0,0,0,0-0.1,0.1c0,0-0.1,0-0.3,0c0,0,0,0-0.1-0.1s-0.3-0.1-0.3,0h-0.1l-0.1,0.1c0-0.1-0.1-0.1-0.3-0.1c-0.1,0-0.1,0-0.2,0
		c-0.1-0.1-0.1-0.1-0.1-0.1s0,0-0.1,0h-0.1c0,0,0,0,0-0.1c0,0,0,0,0-0.1c0,0-0.1,0-0.2,0c-0.1,0-0.1,0-0.1,0s-0.1,0-0.1-0.1h-0.1
		v-0.1c0,0-0.1,0-0.2,0l0,0c0,0,0,0,0-0.1c0,0-0.1,0-0.1-0.1s-0.1-0.1-0.1-0.1c-0.1-0.1-0.2-0.1-0.2-0.1V55c0,0-0.1-0.1-0.2-0.1
		c-0.3,0-0.3-0.1-0.3-0.1l0,0l0,0c0-0.1,0-0.2-0.1-0.3s-0.1-0.1-0.2-0.1c0,0,0,0,0-0.1c0,0,0,0,0-0.1c0,0,0,0-0.1-0.1
		c0-0.1-0.1-0.1-0.1-0.1c-0.1-0.1-0.1-0.1-0.1-0.1s0,0,0-0.1v-0.1c0,0,0,0,0-0.1v-0.1c0,0,0,0,0-0.1c0,0,0,0,0-0.1v-0.1
		c0-0.1-0.1-0.1-0.1-0.1s0-0.1,0-0.2c0-0.1,0-0.1,0-0.1l0,0l0,0c0,0,0-0.1-0.1-0.3c0.1,0,0.1,0,0.2,0c0,0,0.1-0.1,0-0.2l0.1-0.1
		l0.1-0.1c0,0,0.1,0,0.1,0.1c0,0,0.1,0,0.1-0.1s0-0.1,0-0.1l0.1-0.1c0.1,0,0.1,0,0.1,0s0,0,0-0.1h0.1c0,0,0,0,0.1,0.1c0,0,0,0,0.1,0
		c0,0,0,0,0.1,0c0.1,0.1,0.1,0.2,0.2,0.2c0.1,0,0.1,0,0.1,0s0,0,0.1,0s0.1,0.1,0.2,0.1l0.1,0.1c0,0,0.1,0,0.1,0.1
		c0,0,0.1,0.1,0.1,0.2c0,0.1,0.1,0.1,0.1,0.2c0.1,0,0.1,0.1,0.2,0.2c0.1,0.1,0.2,0.2,0.2,0.2s0,0,0,0.1c0,0,0,0,0,0.1l0.2,0.1h0.1
		c0.1,0,0.1,0,0.1,0s0,0,0,0.1l0,0c0,0,0.1,0,0.2,0c0.1,0,0.2,0,0.2,0s0,0,0.1,0c0,0,0,0,0.1,0s0.1,0,0.2,0c0.1,0,0.1-0.1,0.1-0.1
		s0,0,0.1,0h0.1h0.1c0.1,0,0.1,0,0.1,0h0.1h0.1l0,0l0,0c0,0,0,0,0.1,0h0.1c0,0,0,0,0-0.1H17h0.1l0,0l0,0h0.1c0.1,0,0.1-0.1,0.1-0.2
		c0,0,0.1,0,0.1,0.1c0,0,0.1,0,0.1-0.1c0.1-0.1,0.1-0.1,0.2-0.1c0-0.1,0.2-0.2,0.4-0.3c0.2-0.1,0.4-0.3,0.4-0.4
		c0.1,0,0.2-0.1,0.2-0.2l0.1-0.1l0.1-0.1v-0.1c0,0,0-0.1,0.1-0.1v-0.2c0.1,0,0.1-0.1,0.1-0.1c0-0.1,0-0.2,0-0.3s0-0.2,0-0.3
		c0,0,0,0,0-0.1l0,0v-0.1L19,50.6c-0.1,0-0.1-0.1-0.1-0.1c-0.1,0-0.1,0.1-0.2,0v-0.1h-0.1l0,0l0,0c0,0,0,0-0.1,0s-0.1,0-0.1,0l0,0
		v-0.1c0,0-0.1,0-0.2,0s-0.2,0-0.2,0c-0.1,0-0.2-0.1-0.3,0c0,0,0,0,0-0.1c0,0-0.1-0.1-0.3-0.1c-0.2,0-0.3-0.1-0.3-0.1
		c-0.1-0.1-0.3-0.2-0.6-0.2l0,0l0,0c0,0,0,0,0-0.1c0,0-0.1,0-0.1-0.1c-0.1-0.1-0.1-0.1-0.1-0.1s0,0,0,0.1c0,0,0,0,0,0.1
		c0,0,0,0-0.1-0.1s-0.1,0-0.1,0c0-0.1-0.1-0.1-0.2,0c0-0.1-0.1-0.2-0.1-0.2c-0.1,0.1-0.2,0.1-0.3,0c0,0-0.2-0.1-0.3,0
		c0-0.1-0.1-0.1-0.1-0.2c-0.1,0-0.2,0-0.3-0.1c0,0-0.1,0-0.2,0l0,0l0,0l0,0l0,0l0,0c-0.2-0.1-0.3-0.1-0.4,0c0,0,0,0,0-0.1
		c0,0,0,0-0.1-0.1c0,0,0,0-0.1,0c0,0,0,0-0.1,0c0,0,0,0-0.1,0c0,0-0.1,0-0.2,0c-0.1,0-0.2,0-0.2-0.1l-0.1-0.1c0,0,0,0-0.1,0h-0.1
		c0-0.1,0-0.1,0-0.1s0,0-0.1,0c0,0,0,0-0.1,0s0,0,0,0l0,0l0,0l0,0c0,0,0,0-0.1,0h-0.1c0,0,0,0,0-0.1l0,0c0-0.1-0.1-0.1-0.2-0.1
		c-0.1,0-0.1-0.1-0.1-0.2c0,0,0,0-0.1,0h-0.1c0,0,0-0.1-0.1-0.2c0-0.1,0-0.1-0.1-0.2c-0.1-0.1-0.2-0.1-0.2-0.2c0,0,0,0-0.1,0
		c0,0-0.1,0-0.1-0.1v-0.1C11.1,47.1,11,47,11,46.8c0,0-0.1,0-0.1-0.1s-0.1-0.1-0.1-0.1s0-0.1,0-0.2c-0.1-0.1-0.3-0.2-0.3-0.3
		c0,0,0,0,0-0.1s0-0.1,0-0.1s0,0,0-0.1l0,0c0,0,0,0,0-0.1v-0.1c0-0.1,0-0.1,0-0.2v-0.1v-0.1c0,0,0-0.1,0.1-0.1V45v-0.1
		c0.1,0,0.2-0.1,0.3-0.3H11l0,0l0,0c0,0,0.1,0,0.2-0.1c0.1-0.1,0.2-0.1,0.3-0.2c0.1,0,0.1,0,0.1,0s0,0,0.1-0.1c0,0,0,0,0.1,0
		c0,0,0,0,0.1,0H12c0.1,0,0.1,0,0.1,0c0.1,0,0.1-0.1,0.2-0.2c0.1,0,0.2,0,0.2-0.1c0.1,0,0.1,0,0.2,0c0.1,0,0.1,0,0.2,0
		c0,0,0.1,0,0.1-0.1c0.1-0.1,0.1-0.1,0.1-0.1c0.1,0,0.1,0,0.1,0h0.1c0.1,0,0.1,0,0.1-0.1h0.1c0,0,0,0,0.1,0h0.1h0.1
		c0,0,0.1-0.1,0.2-0.2c0.1,0,0.1,0,0.2-0.1v0.1c0.1,0,0.2-0.1,0.3,0c0.1,0,0.2,0,0.3,0c0,0,0,0,0.1,0c0,0,0.1,0,0.1-0.1h0.1
		c0,0,0,0,0.1,0h0.1c0.1,0,0.2,0,0.5,0c0.2,0,0.4,0,0.6,0c0,0,0.1,0,0.2,0s0.1,0,0.1,0h0.1c0.1,0,0.1,0,0.1,0s0.1,0,0.1,0.1
		C17.2,43,17.4,43,17.4,43.1z"/>
	<path class="st0" d="M23.5,41.4c0.1,0,0.2,0,0.2,0c0,0.1,0.1,0.1,0.2,0.1s0.1,0,0.1,0s0,0,0,0.1c0,0,0,0,0,0.1c0,0,0.1,0,0.2,0
		s0.2,0,0.2-0.1c0,0,0.1,0.1,0.1,0.3c0,0,0.1,0,0.2,0c0,0.1,0,0.1,0.1,0.2c0.1,0,0.1,0.1,0.1,0.1H25v0.1c0,0.1,0,0.1,0,0.1
		s0,0.1,0.1,0.2c0,0.1,0,0.2,0,0.3s0.1,0.1,0.3,0.1c0,0.1,0,0.2,0,0.3c-0.1,0-0.2,0-0.2,0.1s0,0.1,0.1,0.1v0.3
		c-0.1,0-0.1,0.1-0.1,0.2c0,0.1,0.1,0.2,0.2,0.1v0.1c0,0-0.1,0.1-0.1,0.2c0,0.1,0,0.1,0.1,0.2v0.1c0,0.1,0,0.1,0,0.2V45
		c0.1,0.1,0.1,0.2,0.2,0.2c0,0.1-0.1,0.1,0,0.3c0,0.1,0,0.2,0,0.2s0,0,0.1,0.1c0.1,0,0.1,0,0.1,0.1V46c0,0-0.1,0-0.1,0.1
		s0,0.1,0.1,0.1c0,0.1,0,0.1,0,0.3c0,0.1,0,0.2,0,0.2c0.1,0.1,0.1,0.1,0.1,0.1s0,0,0,0.1l0,0l0,0c0,0,0,0,0.1,0V47c0,0,0,0-0.1,0.1
		l0.1,0.4h0.1v0.1c0,0,0,0-0.1,0c0,0,0,0.1,0,0.2c0,0.1,0,0.1,0,0.2c0,0.1,0.1,0.1,0.1,0.2c0,0,0,0-0.1,0c0,0.1,0,0.2,0,0.3
		c0,0.2,0,0.3,0,0.3c0,0.1,0,0.2,0.1,0.2v0v0.1c0,0.1,0,0.1,0,0.2v0.1c0,0.1,0,0.1,0,0.2c0,0,0,0,0.1,0l0,0c0,0,0,0,0,0.1
		c0,0,0,0,0,0.1c0,0,0.1,0,0.1,0.1s0,0.1,0,0.2c-0.1,0.1-0.1,0.1-0.1,0.1c0,0.1,0,0.1,0.1,0.2s0.1,0.1,0.1,0.2h0.1
		c0,0.1,0,0.3,0,0.4c-0.1,0-0.2,0-0.1,0.1c0,0.1,0.1,0.1,0.1,0.1v0.3c-0.1,0-0.1,0.1-0.1,0.2c0,0.1,0.1,0.1,0.2,0.1
		c0,0.2,0,0.3,0,0.3c-0.1,0-0.1,0-0.2,0.1v0.1c0,0,0.1,0.1,0.1,0c0,0,0,0.1,0,0.3v0.1c-0.1,0.1-0.1,0.1-0.1,0.3c0,0,0,0,0.1,0.1
		c0,0,0,0,0,0.1c0,0,0,0.1,0,0.2c0,0.1,0,0.2,0,0.2l-0.1,0.1c0,0,0,0.1,0.1,0.2c0,0,0.1,0,0.2,0s0.1,0,0.1,0s0,0,0-0.1l0,0
		c0.2,0,0.3,0,0.3-0.1l0,0l0,0c0,0,0.1,0,0.2,0c0.1-0.1,0.1-0.1,0.2,0c0,0.1,0.1,0.1,0.1,0.1l0,0l0,0c0.1,0,0.1,0,0.2-0.1l0.1,0.1
		c0.1-0.1,0.2-0.1,0.3,0c0,0,0,0,0-0.1l0,0c0,0,0,0,0.1,0c0,0,0,0,0,0.1c0-0.1,0.2-0.1,0.4-0.1c0.1,0,0.1,0.1,0.1,0.1s0,0,0.1,0
		c0,0,0,0,0.1,0c0,0,0,0,0.1,0c0,0,0,0,0.1,0l0,0c0,0,0,0,0-0.1h0.4c0,0,0.1,0,0.4,0h0.1h0.1c0,0,0,0,0.1,0h0.1c0,0,0,0,0.1,0h0.1
		h0.1h0.1c0,0,0,0,0-0.1h0.1c0.2,0,0.3,0,0.4,0.1h0.1c0.1,0,0.1,0,0.1,0c0.1,0,0.2,0,0.4,0c0.2,0,0.3,0,0.3,0l0.1,0.1
		c0,0,0.1,0,0.1-0.1c0.1,0,0.1,0,0.2,0c0.1-0.1,0.2-0.1,0.3,0v0.1c0,0,0.1,0,0.1-0.1c0,0,0.1,0.1,0.2,0.2h0.1c0.1,0,0.1,0,0.1,0
		c0,0.1,0,0.1,0,0.2c0.1,0.1,0.1,0.1,0.2,0.1c0,0,0,0,0.1,0s0.1,0,0.1,0v0.1c0,0.1,0,0.1,0,0.1s0,0.1,0.1,0.1c0,0,0,0.1,0,0.2
		c0.1,0,0.1,0.1,0.1,0.1c0,0.1,0,0.1,0.1,0.2h0.1c0,0,0,0.1-0.1,0.2c0,0.1,0,0.2,0,0.2c-0.1,0-0.1,0.1-0.1,0.1
		c0,0.1-0.1,0.1-0.1,0.1c0,0.1,0,0.2,0,0.2s0,0-0.1,0l0,0c0,0-0.1,0.1-0.2,0.2c-0.1,0.1-0.1,0.1-0.2,0.2l0,0l0,0c0,0.1,0,0.1,0,0.1
		h-0.6l0,0l0,0c0,0,0,0-0.1,0s-0.1,0-0.1,0c0-0.1,0-0.2-0.1-0.2l0,0l0,0c-0.1,0-0.1,0-0.1,0c0-0.1,0-0.1-0.1-0.1c0,0-0.1,0-0.1,0.1
		C32.1,56,32.1,56,32.1,56S32,56.1,32,56.2c0-0.1-0.1-0.2-0.2-0.2h-0.1h-0.1c0,0,0,0-0.1,0c0,0,0,0-0.1,0c0,0-0.1,0-0.1,0.1
		c-0.1,0-0.2,0-0.3-0.1c0,0,0,0-0.1,0h-0.1c0-0.1,0-0.1-0.1-0.1s-0.1,0-0.1,0.1c0,0-0.1,0-0.1-0.1c0,0-0.1,0.1-0.3,0.1
		c-0.2,0-0.3,0-0.4,0c0,0-0.2,0-0.5-0.1L29.2,56c-0.1,0-0.1,0-0.1-0.1c-0.1,0-0.2,0.1-0.2,0.2c0,0-0.1,0-0.3,0c-0.1,0-0.1,0-0.1,0
		c0-0.1-0.1-0.1-0.2,0c-0.1,0-0.1,0.1-0.1,0.1s-0.1,0-0.3,0c-0.2,0-0.3,0-0.3,0l0,0l0,0l0,0c0,0.1-0.2,0.1-0.6,0.1
		c-0.1,0-0.1,0-0.2,0.1h-0.3h-0.1h-0.1l-0.1,0.2c-0.2,0-0.4,0-0.4,0s0,0.1-0.1,0.2c0,0,0,0-0.1,0h-0.1c0,0-0.1-0.1-0.2-0.1
		s-0.2,0-0.2,0s0,0,0,0.1s0,0.1,0,0.1H25c0,0,0,0-0.1,0C24.8,57,24.8,57,24.7,57l0,0l0,0H25v-0.1c0,0,0,0-0.1-0.1
		c0-0.1-0.1-0.1-0.1-0.1v-0.1c-0.1,0-0.2,0-0.2-0.1c-0.1-0.1-0.1-0.1-0.2-0.1c0-0.1,0-0.2-0.2-0.2c0,0,0-0.1,0-0.2c0,0,0,0-0.1,0
		c0-0.1,0-0.2,0.1-0.3l0,0l0,0c0,0,0,0,0.1,0h0.1c0,0-0.1-0.1-0.2-0.1v-0.1c0.1,0,0.1,0,0.1,0l0,0c0,0,0,0,0-0.1h0.1
		c0,0,0-0.2,0-0.4s0-0.3,0-0.4c0.1,0,0.1,0,0.1-0.1c0,0,0-0.1-0.1-0.1c0-0.4,0-0.8,0-1.2c0-0.1,0-0.3,0-0.4c0.1-0.1,0.1-0.2-0.1-0.3
		v-0.3c0,0,0-0.1,0-0.3c0-0.4,0-0.6-0.1-0.6c0.1-0.1,0.1-0.2,0-0.3c0-0.1,0-0.2,0-0.3s0-0.2,0-0.2c0-0.1-0.1-0.1-0.1-0.1v-0.1v-0.1
		c0,0,0-0.1,0.1-0.1V50v-0.1c0-0.1-0.1-0.1-0.2-0.1c0,0,0,0,0-0.1s0,0,0.1,0s0.1,0,0.1,0s0-0.1-0.1-0.1c0-0.1,0-0.1,0.1-0.2
		c0-0.2,0-0.3-0.1-0.3s-0.1,0-0.1,0V49c0.1,0,0.2,0,0.2,0v-0.1h-0.1c0,0,0-0.1,0-0.2h0.1c0,0,0,0,0.1-0.1l0,0l0,0c0,0,0-0.1,0-0.2
		c0-0.1,0-0.2,0-0.2s0,0,0-0.1c0,0,0,0,0-0.1c0,0,0-0.1,0-0.3v-0.1c0-0.1,0-0.1,0-0.2l0,0l0,0l0.1-0.2c0-0.1,0-0.2,0-0.3
		s0-0.2,0-0.3c0,0,0-0.1,0-0.2c0-0.1,0-0.2,0-0.2l0,0l0,0c0-0.1,0-0.2,0.1-0.3v-0.1v-0.1c0,0-0.1,0-0.2-0.1c0,0,0-0.1,0.1-0.1v-0.3
		c-0.1,0-0.1,0-0.1-0.1c0,0,0-0.1,0-0.2c0-0.1,0-0.2-0.1-0.2v-0.1c0,0,0-0.1,0-0.2c0-0.1,0-0.2,0-0.2l0,0l0,0c0,0,0.1-0.1,0-0.2
		c0-0.1-0.1-0.1-0.2-0.1c0-0.2,0-0.3,0.1-0.3c0-0.1,0-0.2,0-0.3c-0.1-0.1-0.1-0.2,0-0.3C24,42.9,24,42.9,24,42.9s0,0,0.1,0
		c0-0.1,0-0.1,0-0.2c0.2,0,0.3-0.1,0.2-0.3C23.4,41.6,23.5,41.5,23.5,41.4z M23.7,41.4c0,0.1,0.1,0.1,0.2,0.1s0.1,0,0.1,0s0,0,0,0.1
		c0,0,0,0,0,0.1c0,0,0.1,0,0.2,0s0.2,0,0.2-0.1c0,0,0.1,0.1,0.1,0.3c0,0,0.1,0,0.2,0c0,0.1,0,0.1,0.1,0.2c0.1,0,0.1,0.1,0.1,0.1H25
		v0.1c0,0.1,0,0.1,0,0.1s0,0.1,0.1,0.2c0,0.1,0,0.2,0,0.3s0.1,0.1,0.3,0.1c0,0.1,0,0.2,0,0.3c-0.1,0-0.2,0-0.2,0.1s0,0.1,0.1,0.1
		v0.3c-0.1,0-0.1,0.1-0.1,0.2c0,0.1,0.1,0.2,0.2,0.1v0.1c0,0-0.1,0.1-0.1,0.2c0,0.1,0,0.1,0.1,0.2v0.1c0,0.1,0,0.1,0,0.2V45
		c0.1,0.1,0.1,0.2,0.2,0.2c0,0.1-0.1,0.1,0,0.3c0,0.1,0,0.2,0,0.2s0,0,0.1,0.1c0.1,0,0.1,0,0.1,0.1V46c0,0-0.1,0-0.1,0.1
		s0,0.1,0.1,0.1c0,0.1,0,0.1,0,0.3c0,0.1,0,0.2,0,0.2c0.1,0.1,0.1,0.1,0.1,0.1s0,0,0,0.1l0,0l0,0c0,0,0,0,0.1,0V47c0,0,0,0-0.1,0.1
		l0.1,0.4h0.1v0.1c0,0,0,0-0.1,0c0,0,0,0.1,0,0.2c0,0.1,0,0.1,0,0.2c0,0.1,0.1,0.1,0.1,0.2c0,0,0,0-0.1,0c0,0.1,0,0.2,0,0.3
		c0,0.2,0,0.3,0,0.3c0,0.1,0,0.2,0.1,0.2v0v0.1c0,0.1,0,0.1,0,0.2v0.1c0,0.1,0,0.1,0,0.2c0,0,0,0,0.1,0l0,0c0,0,0,0,0,0.1
		c0,0,0,0,0,0.1c0,0,0.1,0,0.1,0.1s0,0.1,0,0.2c-0.1,0.1-0.1,0.1-0.1,0.1c0,0.1,0,0.1,0.1,0.2s0.1,0.1,0.1,0.2h0.1
		c0,0.1,0,0.3,0,0.4c-0.1,0-0.2,0-0.1,0.1c0,0.1,0.1,0.1,0.1,0.1v0.3c-0.1,0-0.1,0.1-0.1,0.2c0,0.1,0.1,0.1,0.2,0.1
		c0,0.2,0,0.3,0,0.3c-0.1,0-0.1,0-0.2,0.1v0.1c0,0,0.1,0.1,0.1,0c0,0,0,0.1,0,0.3v0.1c-0.1,0.1-0.1,0.1-0.1,0.3c0,0,0,0,0.1,0.1
		c0,0,0,0,0,0.1c0,0,0,0.1,0,0.2c0,0.1,0,0.2,0,0.2l-0.1,0.1c0,0,0,0.1,0.1,0.2c0,0,0.1,0,0.2,0s0.1,0,0.1,0s0,0,0-0.1l0,0
		c0.2,0,0.3,0,0.3-0.1l0,0l0,0c0,0,0.1,0,0.2,0c0.1-0.1,0.1-0.1,0.2,0c0,0.1,0.1,0.1,0.1,0.1l0,0l0,0c0.1,0,0.1,0,0.2-0.1l0.1,0.1
		c0.1-0.1,0.2-0.1,0.3,0c0,0,0,0,0-0.1l0,0c0,0,0,0,0.1,0c0,0,0,0,0,0.1c0-0.1,0.2-0.1,0.4-0.1c0.1,0,0.1,0.1,0.1,0.1s0,0,0.1,0
		c0,0,0,0,0.1,0c0,0,0,0,0.1,0c0,0,0,0,0.1,0l0,0c0,0,0,0,0-0.1h0.4c0,0,0.1,0,0.4,0h0.1h0.1c0,0,0,0,0.1,0h0.1c0,0,0,0,0.1,0h0.1
		h0.1h0.1c0,0,0,0,0-0.1h0.1c0.2,0,0.3,0,0.4,0.1h0.1c0.1,0,0.1,0,0.1,0c0.1,0,0.2,0,0.4,0c0.2,0,0.3,0,0.3,0l0.1,0.1
		c0,0,0.1,0,0.1-0.1c0.1,0,0.1,0,0.2,0c0.1-0.1,0.2-0.1,0.3,0v0.1c0,0,0.1,0,0.1-0.1c0,0,0.1,0.1,0.2,0.2h0.1c0.1,0,0.1,0,0.1,0
		c0,0.1,0,0.1,0,0.2c0.1,0.1,0.1,0.1,0.2,0.1c0,0,0,0,0.1,0s0.1,0,0.1,0v0.1c0,0.1,0,0.1,0,0.1s0,0.1,0.1,0.1c0,0,0.1,0.1,0.1,0.2
		c0.1,0,0.1,0.1,0.1,0.1c0,0.1,0,0.1,0.1,0.2h0.1c0,0,0,0.1-0.1,0.2c0,0.1,0,0.2,0,0.2c-0.1,0-0.1,0.1-0.1,0.1
		c0,0.1-0.1,0.1-0.1,0.1c0,0.1,0,0.2,0,0.2s0,0-0.1,0l0,0c0,0-0.1,0.1-0.2,0.2c-0.1,0.1-0.1,0.1-0.2,0.2l0,0l0,0c0,0.1,0,0.1,0,0.1
		h-0.6l0,0l0,0c0,0,0,0-0.1,0s-0.1,0-0.1,0c0-0.1,0-0.2-0.1-0.2l0,0l0,0c-0.1,0-0.1,0-0.1,0c0-0.1,0-0.1-0.1-0.1c0,0-0.1,0-0.1,0.1
		C32.2,56,32.2,56,32.2,56s-0.1,0.1-0.1,0.2c0-0.1-0.1-0.2-0.2-0.2h-0.1h-0.1c0,0,0,0-0.1,0c0,0,0,0-0.1,0c0,0-0.1,0-0.1,0.1
		c-0.1,0-0.2,0-0.3-0.1c0,0,0,0-0.1,0h-0.1c0-0.1,0-0.1-0.1-0.1s-0.1,0-0.1,0.1c0,0-0.1,0-0.1-0.1c0,0-0.1,0.1-0.3,0.1
		c-0.2,0-0.3,0-0.4,0c0,0-0.2,0-0.5-0.1L29.3,56c-0.1,0-0.1,0-0.1-0.1c-0.1,0-0.2,0.1-0.2,0.2c0,0-0.1,0-0.3,0c-0.1,0-0.1,0-0.1,0
		c0-0.1-0.1-0.1-0.2,0c-0.1,0-0.1,0.1-0.1,0.1s-0.1,0-0.3,0c-0.2,0-0.3,0-0.3,0l0,0l0,0l0,0c0,0.1-0.2,0.1-0.6,0.1
		c-0.1,0-0.1,0-0.2,0.1h-0.3h-0.1h-0.1l-0.1,0.2c-0.2,0-0.4,0-0.4,0s0,0.1-0.1,0.2c0,0,0,0-0.1,0h-0.1c0,0-0.1-0.1-0.2-0.1
		s-0.2,0-0.2,0s0,0,0,0.1s0,0.1,0,0.1h-0.1c0,0,0,0-0.1,0C24.9,57,24.9,57,24.8,57l0,0l0,0H25v-0.1c0,0,0,0-0.1-0.1
		c0-0.1-0.1-0.1-0.1-0.1v-0.1c-0.1,0-0.2,0-0.2-0.1c-0.1-0.1-0.1-0.1-0.2-0.1c0-0.1,0-0.2-0.2-0.2c0,0,0-0.1,0-0.2c0,0,0,0-0.1,0
		c0-0.1,0-0.2,0.1-0.3l0,0l0,0c0,0,0,0,0.1,0h0.1c0,0-0.1-0.1-0.2-0.1v-0.1c0.1,0,0.1,0,0.1,0l0,0c0,0,0,0,0-0.1h0.1
		c0,0,0-0.2,0-0.4s0-0.3,0-0.4c0.1,0,0.1,0,0.1-0.1c0,0,0-0.1-0.1-0.1c0-0.4,0-0.8,0-1.2c0-0.1,0-0.3,0-0.4c0.1-0.1,0.1-0.2-0.1-0.3
		v-0.3c0,0,0-0.1,0-0.3c0-0.4,0-0.6-0.1-0.6c0.1-0.1,0.1-0.2,0-0.3c0-0.1,0-0.2,0-0.3s0-0.2,0-0.2c0-0.1-0.1-0.1-0.1-0.1v-0.1v-0.1
		c0,0,0-0.1,0.1-0.1V50v-0.1c0-0.1-0.1-0.1-0.2-0.1c0,0,0,0,0-0.1s0,0,0.1,0s0.1,0,0.1,0s0-0.1-0.1-0.1c0-0.1,0-0.1,0.1-0.2
		c0-0.2,0-0.3-0.1-0.3s-0.1,0-0.1,0V49c0.1,0,0.2,0,0.2,0v-0.1h-0.1c0,0,0-0.1,0-0.2h0.1c0,0,0,0,0.1-0.1l0,0l0,0c0,0,0-0.1,0-0.2
		c0-0.1,0-0.2,0-0.2s0,0,0-0.1c0,0,0,0,0-0.1c0,0,0-0.1,0-0.3v-0.1c0-0.1,0-0.1,0-0.2l0,0l0,0l0.1-0.2c0-0.1,0-0.2,0-0.3
		s0-0.2,0-0.3c0,0,0-0.1,0-0.2c0-0.1,0-0.2,0-0.2l0,0l0,0c0-0.1,0-0.2,0.1-0.3v-0.1v-0.1c0,0-0.1,0-0.2-0.1c0,0,0-0.1,0.1-0.1v-0.3
		c-0.1,0-0.1,0-0.1-0.1c0,0,0-0.1,0-0.2c0-0.1,0-0.2-0.1-0.2v-0.1c0,0,0-0.1,0-0.2c0-0.1,0-0.2,0-0.2l0,0l0,0c0,0,0.1-0.1,0-0.2
		c0-0.1-0.1-0.1-0.2-0.1c0-0.2,0-0.3,0.1-0.3c0-0.1,0-0.2,0-0.3c-0.1-0.1-0.1-0.2,0-0.3C24,42.9,24,42.9,24,42.9l0,0l0,0
		c0,0,0,0,0-0.1s0-0.1,0-0.1c0.2,0,0.3-0.1,0.2-0.3c0.3,0,0.4-0.1,0.4-0.3C23.6,41.4,23.7,41.4,23.7,41.4z"/>
	<path class="st0" d="M40.5,42.3C40.5,42.3,40.6,42.3,40.5,42.3l0.2,0.1c0.1,0,0.1,0,0.1,0s0,0,0.1,0l0,0c0,0,0,0,0.1,0l0,0
		c0,0.1,0.1,0.2,0.2,0.2l0.2,0.1c0,0,0,0.1,0.1,0.1c0,0.1,0.1,0.1,0.1,0.1s0.1,0,0.1,0.1c0.2,0,0.3,0,0.3,0s0,0,0.1,0h0.1
		c0.1,0,0.2-0.1,0.3-0.1c0,0,0.1,0,0.2,0h0.1c0.1,0,0.1,0,0.1,0s0,0,0.1,0s0.1,0,0.1,0h0.1c0.1,0,0.1,0,0.1,0s0.1,0,0.1,0.1
		c0.1,0.1,0.2,0.1,0.2,0.1s0,0.1,0.1,0.1s0.1,0,0.2,0.1c0.1,0.1,0.1,0.1,0.1,0.1s0,0,0.1,0c0.2,0.1,0.4,0.2,0.5,0.3h0.2
		c0,0-0.1,0.1-0.2,0v0.1c0,0.1,0.1,0.1,0.3,0.2c0.1,0.1,0.2,0.2,0.3,0.3c0,0,0.1,0.1,0.1,0.2c0.1,0.1,0.2,0.2,0.3,0.3
		s0.1,0.2,0.1,0.3c0,0,0.1,0.1,0.1,0.2c0.1,0.1,0.1,0.2,0.1,0.2c0.1,0.1,0.1,0.2,0.1,0.3c0,0,0,0,0.1,0.1s0.1,0.2,0.1,0.3l0.1,0.1
		c0,0,0,0.1,0.1,0.2c0,0.2,0.1,0.3,0.1,0.3c0,0.1,0.1,0.2,0.1,0.3c0,0,0,0.1,0.1,0.2c0,0,0,0,0,0.1s0.1,0.2,0.1,0.2s0,0,0,0.1v0.1
		c0,0,0,0,0,0.1V48c0,0,0,0.1,0,0.2c0,0.1,0,0.2,0,0.3s0,0.1,0,0.1s0,0,0,0.1c0,0,0,0.1,0.1,0.2l0,0l0,0c0,0.1,0.1,0.3,0,0.8
		c0,0.4,0,0.7,0,0.8c0,0,0,0.1,0,0.2c0,0.1,0,0.1,0,0.2c0,0,0,0.1-0.1,0.1c0,0.1-0.1,0.1,0,0.2v0.1c0,0.1,0,0.1,0,0.1
		c-0.1,0-0.1,0.1-0.2,0.1c0,0.2,0,0.3,0,0.3s0,0,0,0.1c0,0,0,0-0.1,0.1v0.1c0,0.1-0.1,0.2-0.1,0.2s0,0,0,0.1h-0.1c0,0,0,0,0,0.1
		c0,0,0,0.1-0.1,0.1s0,0.1,0,0.1l-0.2,0c0,0.1-0.1,0.2-0.2,0.3c-0.1,0.1-0.1,0.2-0.1,0.3c-0.1,0.1-0.2,0.2-0.2,0.3
		c0,0-0.1,0-0.2,0.1c0,0,0,0.1-0.1,0.2c-0.1,0.1-0.1,0.1-0.1,0.2c-0.1,0-0.1,0-0.2,0.1c0,0.1-0.1,0.1-0.2,0.2c0,0-0.1,0.1-0.1,0.2
		c-0.1,0.1-0.1,0.1-0.1,0.2c0,0,0,0.1-0.1,0.2c-0.1,0.1-0.3,0.2-0.4,0.3c-0.1,0.1-0.1,0.1-0.2,0.1c0,0.1-0.1,0.1-0.2,0.2
		c-0.1,0.1-0.2,0.1-0.2,0.2l0,0l0,0l-0.1,0.1c-0.1,0-0.1,0.1-0.1,0.1c-0.1,0-0.1,0-0.2,0.1c0,0-0.1,0-0.2,0.1h-0.1
		c-0.1,0-0.1,0-0.1,0s-0.1,0-0.2,0.1c-0.1,0-0.2,0-0.3,0c0,0-0.1,0.1-0.2,0.1c-0.1,0-0.2,0.1-0.2,0.1c-0.1,0-0.3,0-0.5,0
		s-0.4,0-0.6,0c0,0-0.1,0-0.2,0c-0.1,0-0.2,0-0.3,0c0,0-0.1-0.1-0.1-0.2c-0.1,0-0.1,0-0.1,0.1s0,0.1-0.1,0.1c0,0,0,0,0-0.1l0,0h-0.1
		l-0.1-0.1c-0.1,0-0.3,0-0.4-0.1c0.1-0.2,0-0.2-0.1-0.2v-0.1c0,0-0.1,0-0.2-0.1c-0.1-0.1-0.2-0.1-0.3-0.1v-0.1l-0.1-0.1
		c0-0.1-0.1-0.1-0.1-0.1h-0.1l0,0l0,0l0,0l0,0l0,0l0,0c0,0,0,0-0.1,0c0,0-0.1,0-0.1-0.1S38,55.2,38,55.2h-0.1c0,0-0.1-0.1-0.2-0.2
		c-0.1-0.1-0.1-0.2-0.2-0.2h-0.1c-0.2-0.2-0.3-0.4-0.3-0.5c0,0-0.1-0.1-0.2-0.3v-0.1l-0.1-0.1c0-0.1-0.1-0.1-0.1-0.1
		c0-0.2-0.1-0.4-0.2-0.6c0-0.1,0-0.1-0.1-0.2v-0.1l0,0l0,0c0,0,0,0,0-0.1c0,0,0,0-0.1,0c0,0,0-0.1,0-0.3c0,0,0,0,0-0.1v-0.1
		c0,0,0,0-0.1,0v-0.1c0,0,0-0.1,0-0.2c0-0.1,0-0.2,0-0.3c0,0,0,0-0.1-0.1c0,0,0-0.1,0-0.2c0,0,0,0,0-0.1c0,0,0,0,0-0.1V51
		c0-0.1-0.1-0.1-0.1-0.1s0,0,0-0.1c0,0,0,0,0-0.1s0-0.2-0.1-0.3v-0.1v-0.1L36,50c0,0,0-0.2,0-0.4s0-0.4,0-0.5V49c0-0.1,0-0.1,0-0.1
		s0-0.1,0-0.3c0-0.1,0-0.2,0-0.3s0-0.1,0.1-0.2c0,0,0,0,0-0.1s0-0.1,0-0.1v-0.1c0,0,0-0.1,0.1-0.1c0,0,0-0.1,0-0.3s0-0.3,0-0.3
		c0-0.2,0-0.4,0-0.4s0.1,0,0.1-0.1c0.1-0.1,0.1-0.1,0.1,0v-0.1c0,0,0,0,0-0.1l0.1-0.1v-0.1c0-0.1,0-0.1,0-0.1l0.1-0.1
		c0,0,0-0.1,0-0.3c0-0.1,0-0.2,0-0.2s0,0,0.1,0h0.1v-0.1l0,0l0.1-0.1l0.1-0.1c0-0.1,0.1-0.1,0.1-0.1l0,0l0,0
		c0.1-0.1,0.1-0.2,0.1-0.2l0.1-0.1c0-0.1,0.1-0.1,0.1-0.1c0-0.1,0-0.1,0.1-0.2c0.1-0.1,0.1-0.1,0.1-0.1s0,0,0-0.1s0,0,0,0
		s0-0.1,0.1-0.2c0.1-0.1,0.1-0.1,0.1-0.2c0.1,0,0.2-0.1,0.2-0.2c0.1,0,0.1-0.1,0.2-0.2c0-0.1,0-0.1,0-0.1c0.1,0,0.1,0,0.2-0.1
		c0,0,0.1,0,0.1-0.1h0.1l0.1-0.1l0.1-0.1c0.1,0,0.2-0.1,0.4-0.2c0.1,0,0.1,0,0.2,0c0.1-0.1,0.1-0.1,0.2-0.1l0,0l0,0
		c0,0,0.1,0,0.3-0.1c0,0,0.1,0,0.2,0c0.1,0,0.2,0,0.2,0s0.1,0,0.2,0C40.4,42.3,40.4,42.3,40.5,42.3z M40.1,42.3c0,0,0.1,0,0.2,0
		c0.1,0,0.2,0,0.3,0c0,0,0.1,0,0.1,0.1h0.1c0.1,0,0.1,0,0.1,0s0,0,0.1,0l0,0c0,0,0,0,0.1,0l0,0c0,0.1,0.1,0.2,0.2,0.2l0.2,0.1
		c0,0,0,0.1,0.1,0.1c0,0.1,0.1,0.1,0.1,0.1s0.1,0,0.1,0.1c0.1,0,0.2,0,0.2,0s0,0,0.1,0h0.1c0.1,0,0.2-0.1,0.3-0.1c0,0,0.1,0,0.2,0
		h0.1c0.1,0,0.1,0,0.1,0s0,0,0.1,0s0.1,0,0.1,0h0.1c0.1,0,0.1,0,0.1,0s0.1,0,0.1,0.1c0.1,0.1,0.2,0.1,0.2,0.1s0,0.1,0.1,0.1
		s0.1,0,0.2,0.1c0.1,0.1,0.1,0.1,0.1,0.1s0,0,0.1,0c0.2,0.1,0.4,0.2,0.5,0.3h0.2c0,0-0.1,0.1-0.2,0v0.1c0,0.1,0.1,0.1,0.3,0.2
		c0.1,0.1,0.2,0.2,0.3,0.3c0,0,0.1,0.1,0.1,0.2c0.1,0.1,0.2,0.2,0.3,0.3s0.1,0.2,0.1,0.3c0,0,0.1,0.1,0.1,0.2
		c0.1,0.1,0.1,0.2,0.1,0.2c0.1,0.1,0.1,0.2,0.1,0.3c0,0,0,0,0.1,0.1s0.1,0.2,0.1,0.3l0.1,0.1c0,0,0,0.1,0.1,0.2
		c0,0.2,0.1,0.3,0.1,0.3c0,0.1,0.1,0.2,0.1,0.3c0,0,0,0.1,0.1,0.2c0,0,0,0,0,0.1s0.1,0.2,0.1,0.2s0,0,0,0.1v0.1c0,0,0,0,0,0.1V48
		c0,0,0,0.1,0,0.2c0,0.1,0,0.2,0,0.3s0,0.1,0,0.1s0,0,0,0.1c0,0,0,0.1,0.1,0.2l0,0l0,0c0,0.1,0.1,0.3,0,0.8c0,0.4,0,0.7,0,0.8
		c0,0,0,0.1,0,0.2c0,0.1,0,0.1,0,0.2c0,0,0,0.1-0.1,0.1c0,0.1-0.1,0.1,0,0.2v0.1c0,0.1,0,0.1,0,0.1c-0.1,0-0.1,0.1-0.2,0.1
		c0,0.2,0,0.3,0,0.3s0,0,0,0.1c0,0,0,0-0.1,0.1v0.1c0,0.1-0.1,0.2-0.1,0.2s0,0,0,0.1h-0.1c0,0,0,0,0,0.1c0,0,0,0.1-0.1,0.1
		s0,0.1,0,0.1l-0.2,0c0,0.1-0.1,0.2-0.2,0.3c-0.1,0.1-0.1,0.2-0.1,0.3c-0.1,0.1-0.2,0.2-0.2,0.3c0,0-0.1,0-0.2,0.1
		c0,0,0,0.1-0.1,0.2c-0.1,0.1-0.1,0.1-0.1,0.2c-0.1,0-0.1,0-0.2,0.1c0,0.1-0.1,0.1-0.2,0.2c0,0-0.1,0.1-0.1,0.2
		c-0.1,0.1-0.1,0.1-0.1,0.2c0,0,0,0.1-0.1,0.2c-0.1,0.1-0.3,0.2-0.4,0.3c-0.1,0.1-0.1,0.1-0.2,0.1c0,0.1-0.1,0.1-0.2,0.2
		c-0.1,0.1-0.2,0.1-0.2,0.2l0,0l0,0l-0.1,0.1c-0.1,0-0.1,0.1-0.1,0.1c-0.1,0-0.1,0-0.2,0.1c0,0-0.1,0-0.2,0.1h-0.1
		c-0.1,0-0.1,0-0.1,0s-0.1,0-0.2,0.1c-0.1,0-0.2,0-0.3,0c0,0-0.1,0.1-0.2,0.1c-0.1,0-0.2,0.1-0.2,0.1c-0.1,0-0.3,0-0.5,0
		s-0.4,0-0.6,0c0,0-0.1,0-0.2,0c-0.1,0-0.2,0-0.3,0c0,0-0.1-0.1-0.1-0.2c-0.1,0-0.1,0-0.1,0.1s0,0.1-0.1,0.1c0,0,0,0,0-0.1l0,0h-0.1
		l-0.1-0.1c-0.1,0-0.3,0-0.4-0.1c0.1-0.2,0-0.2-0.1-0.2v-0.1c0,0-0.1,0-0.2-0.1c-0.1-0.1-0.2-0.1-0.3-0.1v-0.1l-0.1-0.1
		c0-0.1-0.1-0.1-0.1-0.1h-0.1l0,0l0,0l0,0l0,0l0,0l0,0c0,0,0,0-0.1,0c0,0-0.1,0-0.1-0.1S38,55.2,38,55.2h-0.1c0,0-0.1-0.1-0.2-0.2
		c-0.1-0.1-0.1-0.2-0.2-0.2h-0.1c-0.2-0.2-0.3-0.4-0.3-0.5c0,0-0.1-0.1-0.2-0.3v-0.1l-0.1-0.1c0-0.1-0.1-0.1-0.1-0.1
		c0-0.2-0.1-0.4-0.2-0.6c0-0.1,0-0.1-0.1-0.2v-0.1l0,0l0,0c0,0,0,0,0-0.1c0,0,0,0-0.1,0c0,0,0-0.1,0-0.3c0,0,0,0,0-0.1v-0.1
		c0,0,0,0-0.1,0v-0.1c0,0,0-0.1,0-0.2c0-0.1,0-0.2,0-0.3c0,0,0,0-0.1-0.1c0,0,0-0.1,0-0.2c0,0,0,0,0-0.1c0,0,0,0,0-0.1V51
		c0-0.1-0.1-0.1-0.1-0.1s0,0,0-0.1c0,0,0,0,0-0.1s0-0.2-0.1-0.3v-0.1v-0.1L36,50c0,0,0-0.2,0-0.4s0-0.4,0-0.5V49c0-0.1,0-0.1,0-0.1
		s0-0.1,0-0.3c0-0.1,0-0.2,0-0.3s0-0.1,0.1-0.2c0,0,0,0,0-0.1s0-0.1,0-0.1v-0.1c0,0,0-0.1,0.1-0.1c0,0,0-0.1,0-0.3s0-0.3,0-0.3
		c0-0.2,0-0.4,0-0.4s0.1,0,0.1-0.1c0.1-0.1,0.1-0.1,0.1,0v-0.1c0,0,0,0,0-0.1l0.1-0.1v-0.1c0-0.1,0-0.1,0-0.1l0.1-0.1
		c0,0,0-0.1,0-0.3c0-0.1,0-0.2,0-0.2s0,0,0.1,0h0.1v-0.1l0,0l0.1-0.1l0.1-0.1c0-0.1,0.1-0.1,0.1-0.1l0,0l0,0
		c0.1-0.1,0.1-0.2,0.1-0.2l0.1-0.1c0-0.1,0.1-0.1,0.1-0.1c0-0.1,0-0.1,0.1-0.2c0.1-0.1,0.1-0.1,0.1-0.1s0,0,0-0.1s0,0,0,0
		s0-0.1,0.1-0.2c0.1-0.1,0.1-0.1,0.1-0.2c0.1,0,0.2-0.1,0.2-0.2c0.1,0,0.1-0.1,0.2-0.2c0-0.1,0-0.1,0-0.1c0.1,0,0.1,0,0.2-0.1
		c0,0,0.1,0,0.1-0.1h0.1l0.1-0.1l0.1-0.1c0.1,0,0.2-0.1,0.4-0.2c0.1,0,0.1,0,0.2,0c0.1-0.1,0.1-0.1,0.2-0.1l0,0l0,0
		c0,0,0.1,0,0.3-0.1c0,0,0.1,0,0.2,0C39.9,42.2,40,42.3,40.1,42.3z M41.1,44.2c-0.1,0-0.2,0-0.3,0s-0.3,0-0.4,0
		c-0.1,0.1-0.3,0.2-0.4,0.2c-0.1,0.1-0.2,0.1-0.4,0.3c-0.1,0.1-0.2,0.2-0.3,0.3l-0.1,0.1c0,0.1-0.1,0.1-0.1,0.1v0.1c0,0,0,0,0,0.1
		c0,0,0,0,0,0.1c0,0-0.1,0.1-0.1,0.3c0,0,0,0.1-0.1,0.1L38.8,46c0,0.1,0,0.1,0,0.1s0,0.1-0.1,0.1v0.1c0,0.1,0,0.1,0,0.1s0,0,0,0.1
		c-0.1,0.1-0.1,0.1,0,0.2c-0.1,0.1-0.1,0.2-0.1,0.3c-0.1,0.1-0.1,0.2-0.1,0.4c-0.1,0.1-0.1,0.2-0.1,0.3c-0.1,0.2-0.2,0.3-0.1,0.5
		l0,0l0,0c0,0.1,0,0.1,0,0.3c0,0.1-0.1,0.2,0,0.3c0,0-0.1,0.2-0.1,0.4v0.1v0.1c0,0,0,0,0,0.1c0,0,0,0,0,0.1c0,0,0.1,0.1,0.1,0.2
		c0,0.1,0,0.2,0,0.3s0,0.2,0,0.3c0,0,0,0,0,0.1c0,0,0,0,0,0.1l0.1,0.1c0,0,0,0.1,0,0.3c0,0,0,0,0,0.1s0,0.1,0,0.1s0,0,0,0.1v0.1
		c0,0.1,0,0.2,0,0.3c0,0,0,0,0,0.1l0,0l0,0l0,0c0,0.1,0,0.1,0,0.2v0.1c0,0.1,0,0.1,0,0.1l0,0c0,0,0,0,0,0.1l0,0v0.1c0,0,0,0,0,0.1
		v0.1l0,0c0,0,0,0,0,0.1c0,0,0,0,0,0.1c0,0,0,0,0.1,0.1c0,0,0,0,0,0.1c-0.1,0.1,0,0.2,0.1,0.3v0.1c0,0,0,0,0.1,0.1l0.1,0.1l0.2,0.2
		c0.1,0.1,0.2,0.2,0.3,0.3s0.2,0.2,0.3,0.3h0.1c0.1,0.2,0.3,0.3,0.5,0.3c0.1,0.1,0.1,0.1,0.1,0.1h0.1c0.1,0,0.1,0,0.1,0s0,0,0.1,0.1
		h0.1c0,0,0,0,0.1,0h0.1c0,0,0,0,0.1,0h0.1c0.1,0,0.3,0,0.4,0c0,0,0.1,0,0.1-0.1c0.1,0,0.1-0.1,0.1-0.1c0.1,0,0.1,0,0.1,0s0,0,0.1,0
		s0,0,0.1,0h0.1c0.1-0.1,0.1-0.1,0.3-0.1c0.1,0,0.2-0.1,0.3-0.3c0.1-0.1,0.3-0.2,0.4-0.3c0,0,0,0,0-0.1v-0.1c0,0,0,0,0-0.1l0.1-0.1
		c0.1,0,0.1-0.1,0.1-0.1l0.1-0.1c0-0.1,0.1-0.1,0.1-0.1s0,0,0.1-0.1s0.1-0.1,0.1-0.1c0.1-0.1,0.1-0.1,0.2-0.2v-0.1
		c0,0,0.1-0.1,0.2-0.3c0,0,0,0,0.1-0.1c0,0,0.1-0.1,0.1-0.3c0,0,0.1-0.1,0.2-0.2c0,0,0,0,0-0.1l0,0c0,0,0,0,0.1-0.1v-0.1v-0.1
		c0.1-0.1,0.1-0.3,0.2-0.6v-0.2v-0.1v-0.1c0.1-0.1,0.1-0.1,0.1-0.1s0,0,0-0.1c0,0,0,0,0-0.1c0,0,0-0.1,0.1-0.2
		c0.1-0.1,0.1-0.1,0.1-0.1s0-0.1,0-0.2c0-0.1,0-0.1,0-0.2c0,0,0,0,0-0.1v-0.1c0,0,0,0-0.1-0.1v-0.1c0.1,0,0.1-0.1,0.1-0.1s0,0,0-0.1
		v-0.1c0,0,0-0.1,0-0.2c0-0.1,0-0.1,0-0.2c0,0,0,0,0-0.1v-0.1c0,0,0,0-0.1-0.1V48v-0.1v-0.1c0-0.1,0-0.1,0-0.1s0,0,0-0.1
		c0,0,0,0,0-0.1v-0.1v-0.1c-0.1,0-0.1-0.1-0.1-0.3c0-0.1,0-0.2-0.1-0.3v-0.1c0-0.1,0-0.1,0-0.1c-0.1-0.1-0.1-0.2-0.1-0.2
		c-0.2-0.4-0.5-0.7-0.9-1.1h-0.1c0-0.1-0.1-0.1-0.2-0.2h-0.1l-0.1-0.1c0,0-0.1,0-0.1-0.1c-0.1,0-0.1-0.1-0.2-0.1h-0.1
		c-0.1,0-0.1,0-0.1,0c-0.1,0-0.2-0.1-0.2-0.1c-0.1,0-0.1,0-0.2,0c-0.1,0-0.2,0-0.2,0c-0.1-0.1-0.2-0.2-0.3-0.2c0-0.1-0.1-0.1,0-0.2
		c0,0,0,0,0-0.1c0,0,0,0,0-0.1c0,0,0-0.1-0.1-0.1h-0.1C41.2,44.3,41.2,44.2,41.1,44.2z M40.4,44.3c-0.1,0.1-0.3,0.2-0.4,0.2
		c-0.1,0.1-0.2,0.1-0.4,0.3c-0.1,0.1-0.2,0.2-0.3,0.3l-0.1,0.1c0,0.1-0.1,0.1-0.1,0.1v0.1c0,0,0,0,0,0.1c0,0,0,0,0,0.1
		c0,0-0.1,0.1-0.1,0.3c0,0,0,0.1-0.1,0.1l-0.1,0.1c0,0.1,0,0.1,0,0.1s0,0-0.1,0.1v0.1c0,0.1,0,0.1,0,0.1s0,0,0,0.1
		c-0.1,0.1-0.1,0.1,0,0.2c-0.1,0.1-0.1,0.2-0.1,0.3c-0.1,0.1-0.1,0.2-0.1,0.4c-0.1,0.1-0.1,0.2-0.1,0.3c-0.1,0.2-0.2,0.3-0.1,0.5
		l0,0l0,0c0,0.1,0,0.1,0,0.3c0,0.1-0.1,0.2,0,0.3c0,0-0.1,0.2-0.1,0.4v0.1v0.1c0,0,0,0,0,0.1c0,0,0,0,0,0.1c0,0,0.1,0.1,0.1,0.2
		c0,0.1,0,0.2,0,0.3s0,0.2,0,0.3c0,0,0,0,0,0.1c0,0,0,0,0,0.1l0.1,0.1c0,0,0,0.1,0,0.3c0,0,0,0,0,0.1s0,0.1,0,0.1s0,0,0,0.1v0.1
		c0,0.1,0,0.2,0,0.3c0,0,0,0,0,0.1l0,0l0,0l0,0c0,0.1,0,0.1,0,0.2v0.1c0,0.1,0,0.1,0,0.1l0,0c0,0,0,0,0,0.1l0,0v0.1c0,0,0,0,0,0.1
		v0.1l0,0c0,0,0,0,0,0.1c0,0,0,0,0,0.1c0,0,0,0,0.1,0.1c0,0,0,0,0,0.1c-0.1,0.1,0,0.2,0.1,0.3v0.1c0,0,0,0,0.1,0.1l0.1,0.1l0.2,0.2
		c0.1,0.1,0.2,0.2,0.3,0.3s0.2,0.2,0.3,0.3h0.1c0.1,0.2,0.3,0.3,0.5,0.3c0.1,0.1,0.1,0.1,0.1,0.1h0.1c0.1,0,0.1,0,0.1,0s0,0,0.1,0.1
		h0.1c0,0,0,0,0.1,0h0.1c0,0,0,0,0.1,0h0.1c0.1,0,0.3,0,0.4,0c0,0,0.1,0,0.1-0.1c0.1,0,0.1-0.1,0.1-0.1c0.1,0,0.1,0,0.1,0s0,0,0.1,0
		s0,0,0.1,0h0.1c0.1-0.1,0.1-0.1,0.3-0.1c0.1,0,0.2-0.1,0.3-0.3c0.1-0.1,0.3-0.2,0.4-0.3c0,0,0,0,0-0.1v-0.1c0,0,0,0,0-0.1l0.1-0.1
		c0.1,0,0.1-0.1,0.1-0.1l0.1-0.1c0-0.1,0.1-0.1,0.1-0.1s0,0,0.1-0.1s0.1-0.1,0.1-0.1c0.1-0.1,0.1-0.1,0.2-0.2v-0.1
		c0,0,0.1-0.1,0.2-0.3c0,0,0,0,0.1-0.1c0,0,0.1-0.1,0.1-0.3c0,0,0.1-0.1,0.2-0.2c0,0,0,0,0-0.1l0,0c0,0,0,0,0.1-0.1v-0.1v-0.1
		c0.1-0.1,0.1-0.3,0.2-0.6v-0.2v-0.1v-0.1c0.1-0.1,0.1-0.1,0.1-0.1s0,0,0-0.1c0,0,0,0,0-0.1c0,0,0-0.1,0.1-0.2
		c0.1-0.1,0.1-0.1,0.1-0.1s0-0.1,0-0.2c0-0.1,0-0.1,0-0.2c0,0,0,0,0-0.1v-0.1c0,0,0,0-0.1-0.1v-0.1c0.1,0,0.1-0.1,0.1-0.1s0,0,0-0.1
		v-0.1c0,0,0-0.1,0-0.2c0-0.1,0-0.1,0-0.2c0,0,0,0,0-0.1v-0.1c0,0,0,0-0.1-0.1v-0.1V48v-0.1c0-0.1,0-0.1,0-0.1s0,0,0-0.1
		c0,0,0,0,0-0.1v-0.1v-0.1c-0.1,0-0.1-0.1-0.1-0.3c0-0.1,0-0.2-0.1-0.3v-0.1c0-0.1,0-0.1,0-0.1c-0.1-0.1-0.1-0.2-0.1-0.2
		c-0.2-0.4-0.5-0.7-0.9-1.1h-0.1c0-0.1-0.1-0.1-0.2-0.2h-0.1L43.3,45c0,0-0.1,0-0.1-0.1c-0.1,0-0.1-0.1-0.2-0.1h-0.1
		c-0.1,0-0.1,0-0.1,0c-0.1,0-0.2-0.1-0.2-0.1c-0.1,0-0.1,0-0.2,0c-0.1,0-0.2,0-0.2,0c-0.1-0.1-0.2-0.2-0.3-0.2c0-0.1-0.1-0.1,0-0.2
		c0,0,0,0,0-0.1c0,0,0,0,0-0.1c0,0,0-0.1-0.1-0.1h-0.1c0-0.1,0-0.2-0.1-0.2s-0.2,0-0.3,0C40.7,44.2,40.5,44.2,40.4,44.3z"/>
	<path class="st0" d="M60.9,50.8c0.1-0.1,0.1-0.1,0.1-0.2c0.1,0,0.1,0,0.1-0.1l0,0l0,0c0,0,0-0.1,0-0.2c0-0.1,0-0.1,0-0.2
		c0,0,0,0,0.1-0.1c0,0,0,0,0-0.1c0,0,0,0,0-0.1s0,0,0,0l0,0c0-0.1,0-0.2,0.1-0.2l0.1-0.1c0-0.1,0-0.1,0-0.2v-0.1h0.1
		c0,0,0-0.1,0-0.2c0-0.1,0-0.2,0-0.2c-0.1-0.2,0-0.3,0.1-0.3c0,0,0,0-0.1,0l0,0c0-0.1,0-0.2,0-0.3h0.1c0-0.3,0.1-0.4,0.2-0.5
		c0,0,0,0-0.1-0.1c0-0.1,0-0.1,0-0.2l0.1-0.1c0-0.1,0-0.2,0.1-0.2c0-0.1,0-0.2,0-0.3s0.1-0.2,0.1-0.2l0-0.4c0.1,0,0.1,0,0.1-0.1
		c0,0,0-0.1-0.1-0.1l-0.1-0.1c0,0,0,0,0.1,0c0,0,0,0,0.1,0c0,0,0.1-0.1,0-0.2c0-0.1,0-0.2,0-0.2h0.1c0.1,0,0.1,0,0.1,0
		s0-0.1-0.1-0.1c0,0,0,0,0-0.1c0,0,0,0,0-0.1c0,0,0-0.1-0.1-0.2C62,44.9,62,44.8,62,44.7c0.1-0.1,0.1-0.2,0.1-0.3H62
		c0,0,0-0.1,0-0.2v-0.1c0,0,0-0.2,0-0.3v-0.1c0-0.1,0-0.1,0-0.1c0-0.1-0.1-0.2,0-0.3l0.1-0.1c0,0,0-0.1,0-0.3c0-0.1,0-0.2,0-0.3
		c0,0-0.1-0.1,0-0.1c0,0,0,0,0.1-0.1c0-0.1,0-0.1,0-0.2c0-0.1,0-0.1,0-0.1l0,0l0,0V42c0-0.1,0-0.1,0-0.1c0.1,0,0.1,0,0.1-0.1
		c0.1,0,0.1,0,0.2,0.1c0,0,0-0.1,0-0.2c0.1,0,0.1,0,0.2,0c0.1,0,0.2,0,0.2,0c0.1,0.1,0.2,0.1,0.2,0.1c0,0.1,0,0.1,0.1,0.1
		s0.1,0,0.2,0c0.1,0,0.2,0,0.2,0V42c0,0.1,0,0.1,0,0.1s0,0.1,0.1,0.1c0.1,0.1,0.1,0.1,0.2,0.1c0,0,0,0.1,0,0.2c0,0.1,0,0.1,0,0.1
		v0.1c0,0,0,0.1,0.1,0.2c0.1,0.1,0.1,0.2,0,0.2c0,0,0,0.1,0,0.3c0,0.1,0,0.2,0,0.3c0,0,0,0.1,0,0.2c0,0-0.1,0.1-0.1,0.3
		c0,0.1,0,0.3,0,0.3c0.1,0,0.1,0.1,0,0.2c0,0.1,0.1,0.1,0,0.1c0,0,0,0-0.1,0.1L63.7,45v0.1c0,0.1,0,0.1,0,0.1s0,0.1,0,0.2
		c0,0.1,0,0.1,0,0.1s0,0,0,0.1c0,0,0,0,0,0.1c0,0-0.1,0-0.1,0.1v0.1c0,0.1,0,0.1,0,0.1s0,0,0,0.1v0.1c-0.1,0-0.1,0-0.1,0v0.1
		c0,0,0,0.2,0,0.4C64,47,64,47.1,64,47.3c-0.1,0.1-0.1,0.2,0,0.2c0,0.1,0,0.1,0,0.1s0,0-0.1,0v0.1c-0.1,0-0.1,0.1-0.1,0.1
		c0,0.1,0,0.1,0,0.1s-0.1,0.1-0.1,0.2c0,0.1,0,0.1,0.1,0.2c0,0.1,0,0.1,0,0.2c-0.1,0-0.2,0.1-0.2,0.3c0.1,0.1,0.1,0.2,0.1,0.2
		c-0.1,0-0.1,0.1-0.2,0.2c0,0.1,0,0.2,0,0.3c-0.1,0-0.1,0.1-0.1,0.2c0,0,0,0,0,0.1c0,0,0,0,0,0.1V50c0,0.1,0,0.1,0,0.1
		c-0.1,0.1-0.2,0.1-0.1,0.3c-0.1,0-0.1,0.1-0.1,0.3c0,0,0,0,0,0.1v0.1h-0.1c0,0-0.1,0-0.1,0.1s0,0.1-0.1,0.1c0,0,0,0.1,0,0.2
		c0,0.1,0,0.1,0,0.2l-0.1,0.1c-0.1,0.1-0.1,0.1-0.1,0.1s0,0.1,0,0.2c-0.1,0.1,0,0.2,0,0.2c0,0.1,0,0.1,0,0.2c-0.1,0-0.1,0-0.2,0
		c0,0.1,0,0.1-0.1,0.2c0,0,0,0,0,0.1v0.1c0,0.1,0,0.1,0,0.1s0,0.1-0.1,0.1c0,0.1-0.1,0.1,0,0.2c0,0,0,0-0.1,0l0,0c0,0.1,0,0.2,0,0.2
		l0,0l0,0c0,0,0,0.1,0,0.2v0.1c0,0.1,0,0.1,0,0.2c0.1,0.1,0.1,0.1,0.1,0.2c-0.1,0-0.1,0-0.1,0s0,0.1,0,0.2c0.1,0,0.1,0.1,0.1,0.1
		c-0.1,0-0.2,0.1-0.2,0.2c0,0,0,0,0,0.1c0,0,0,0,0,0.1c-0.1,0-0.1,0-0.1,0.1s-0.1,0.1-0.1,0.1V55v0.1h-0.1c0,0-0.1,0-0.1,0.1v0.1
		h-0.1h-0.1c0,0-0.1,0.1-0.2,0.2h-0.2c0,0-0.1,0.1,0,0.2H61l0,0v0.1c-0.1-0.1-0.1-0.2-0.1-0.2s0,0-0.1,0c0,0,0,0-0.1,0
		c0,0,0,0-0.1,0s-0.1,0-0.1,0c-0.1,0-0.1,0.1-0.2,0.1v-0.1v-0.1c0,0-0.1,0-0.2,0L60,55.4v-0.1c-0.1,0-0.1,0.1-0.2,0v-0.1
		c0,0,0,0,0-0.1s0,0-0.1,0c0,0,0,0,0-0.1l-0.1-0.1h-0.1l-0.1-0.1c-0.1-0.1-0.2-0.1-0.3-0.1c0,0,0,0,0-0.1l0,0l0,0l0,0c0,0,0,0,0-0.1
		L59,54.4c0-0.1-0.1-0.3-0.3-0.5h-0.1c0,0,0-0.1-0.1-0.2c-0.1-0.1-0.1-0.1-0.2-0.1c0-0.1,0-0.1-0.1-0.2c0-0.1,0-0.1-0.1-0.2
		c0,0-0.1,0-0.1-0.1s-0.1-0.2-0.2-0.3v-0.1v-0.1l0,0l0,0c0,0,0-0.1-0.1-0.1c0-0.1-0.1-0.1-0.1-0.1c0-0.1,0-0.2-0.1-0.2v-0.1
		c0,0,0,0-0.1-0.1c-0.1,0-0.1,0-0.1-0.1h-0.1c0,0,0,0,0-0.1c0,0,0,0,0-0.1h-0.1c0-0.1,0-0.1,0-0.2c0,0,0,0,0.1,0l0,0
		c0,0,0-0.1-0.1,0H57v-0.1c0-0.1,0-0.1,0-0.1s0,0-0.1-0.1l0,0c0-0.1,0-0.1-0.1-0.1V51v-0.1c0,0,0,0-0.1-0.1c0,0,0,0-0.1,0
		c0-0.1,0-0.1-0.1-0.2c0-0.1,0-0.1-0.1-0.2c0,0,0,0-0.1,0c0,0,0-0.1,0-0.2c0-0.1,0-0.1,0-0.1c0-0.1-0.1-0.1-0.1-0.2
		c0-0.1-0.1-0.1-0.2-0.1v-0.1v-0.1c0,0,0,0-0.1,0c0,0,0,0-0.1,0c0-0.1,0-0.1,0-0.2c0-0.1-0.1-0.1-0.1-0.2c0,0,0-0.1-0.1-0.1
		c0-0.1,0-0.1-0.1-0.1c0,0-0.1,0.1-0.2,0.2v0.1v0.1c0,0,0,0,0,0.1v0.1l0,0v0.1l0,0c0,0,0,0.1-0.1,0.1c0,0.1,0,0.1-0.1,0.1
		c0,0,0,0.1-0.1,0.2c0,0.1,0,0.1-0.1,0.2v0.1l0.1-0.1l0,0l0,0c0,0,0,0.1-0.1,0.1c-0.1,0.1-0.1,0.1,0,0.2c0,0,0,0.1-0.1,0.1v0.1
		c0,0.1,0,0.1,0,0.1l0,0l0,0c-0.1,0.1-0.1,0.2-0.1,0.2s0,0.1-0.1,0.3s-0.1,0.3,0,0.3c-0.1,0-0.1,0-0.2,0.1c0,0.1-0.1,0.1-0.1,0.1V52
		v0.1l-0.1,0.1c0,0,0,0,0.1,0.1c0.1,0,0.1,0.1,0,0.1h-0.1c0,0-0.1,0,0,0.1c0,0.1,0,0.1,0,0.1h-0.1v0.1v0.2c0,0,0,0-0.1,0
		S53.9,53,53.9,53c0,0.1,0,0.1,0,0.2c-0.1,0-0.1,0-0.1,0.1s0,0.2,0.1,0.2c0,0.1,0,0.1,0,0.1c-0.1,0-0.1,0.1-0.2,0.1c0,0,0,0.1,0,0.2
		c0,0.1,0,0.2,0,0.2s0,0-0.1,0c0,0-0.1,0,0,0.1c0,0.1,0,0.2,0,0.2l-0.1,0.1c0,0.1,0,0.1,0.1,0.1c0,0,0,0.1,0,0.2
		c-0.1,0.1-0.1,0.1-0.1,0.1V55v0.1c0,0,0,0-0.1,0.1s0,0.1,0,0.1c-0.1,0-0.2,0-0.3,0.1L53,55.5c0,0,0,0,0,0.1s0,0,0,0s0,0-0.1,0l0,0
		c0,0-0.1,0.1-0.1,0.2c0,0-0.1,0-0.1,0.1h-0.1c-0.2-0.2-0.3-0.2-0.3,0c0,0-0.1,0-0.2,0c-0.1,0-0.2,0-0.2,0v-0.1
		c0-0.1-0.1-0.1-0.2-0.1c0,0,0-0.1-0.1-0.2c0-0.1,0-0.2-0.1-0.2c0,0,0-0.1-0.1-0.2h-0.1c0,0,0-0.1-0.1-0.1c0-0.1-0.1-0.1-0.1-0.1
		s0,0-0.1-0.1c0-0.1,0-0.2,0-0.3s0-0.2,0-0.3c0,0,0,0,0-0.1c0,0,0,0,0-0.1c0-0.2-0.1-0.3-0.1-0.3v-0.1c0-0.2,0-0.2-0.2-0.2
		c0-0.1,0-0.2,0.1-0.3c0-0.1,0-0.2-0.1-0.2l0,0l0,0v-0.1v-0.1c0,0,0,0,0-0.1l0,0c0,0,0,0-0.1,0v-0.1c-0.1,0-0.1-0.1-0.1-0.3
		c0-0.1,0-0.3,0-0.4c-0.1,0-0.2-0.1-0.2-0.2c0-0.2-0.1-0.2-0.2-0.2c0,0,0-0.1,0-0.2c0-0.1,0-0.2-0.1-0.2c0-0.1-0.1-0.2,0-0.3v-0.1
		l0,0l0,0v-0.1c0-0.1,0-0.1,0-0.1s0,0,0-0.1c0,0,0,0-0.1,0c0,0,0-0.1,0-0.2c0-0.1,0-0.2-0.1-0.3h-0.1l0.1-0.1c0-0.1,0-0.1-0.1-0.3
		h-0.1h-0.1v-0.1c0-0.1,0-0.1,0-0.2c0-0.1-0.1-0.1-0.1-0.1c0-0.1,0-0.2-0.1-0.3c0-0.1,0-0.2,0-0.3s-0.1-0.1-0.1-0.2c0,0,0,0-0.1,0
		c0,0,0,0,0-0.1c0,0,0,0,0-0.1H49v-0.1v-0.1c0,0,0,0-0.1,0l0,0v-0.1c0,0,0-0.1,0-0.2c0,0,0,0-0.1,0c0,0,0-0.1-0.1-0.1v-0.1
		c0,0,0,0,0-0.1c0,0-0.1,0-0.1-0.1V47c0,0,0-0.1-0.1-0.2c0-0.1-0.1-0.2-0.1-0.2V47c0,0,0-0.1-0.1-0.1s-0.1-0.1-0.1-0.1h-0.1
		c0-0.1,0-0.2-0.1-0.2c0.1,0,0.1-0.1,0-0.2c0-0.1-0.1-0.1-0.1-0.1s0-0.1,0-0.2c0-0.2,0-0.3-0.1-0.3c0-0.1,0-0.1-0.1-0.2h-0.1
		c0-0.1,0-0.2,0-0.3c0-0.2,0-0.2,0-0.3c0,0,0,0,0.1-0.1v-0.1c0,0,0,0,0-0.1s0-0.1,0-0.1l0,0c0,0,0.1-0.1,0-0.1
		c0.1-0.1,0.2-0.1,0.2-0.2c0.1,0,0.1,0,0.2-0.1c0-0.1,0.1-0.1,0.1-0.1s0.1,0.1,0.2,0.1c0.1,0,0.2,0,0.2,0s0,0,0.1,0v0.1H49
		c0.1,0.1,0.2,0.1,0.3,0.2v0.1c0,0,0,0,0.1,0v0.1c0.1,0,0.1,0.1,0.2,0.3c0.1,0,0.2,0.1,0.2,0.1v0.1v0.1v0.1v0.1c0,0,0.1,0.1,0.2,0.1
		c0,0,0,0.1-0.1,0.1c0,0.1,0,0.1,0,0.1H50c0,0.1-0.1,0.2-0.1,0.2s0.1,0,0.2,0.1c0,0.1-0.1,0.2-0.1,0.2s0,0,0,0.1c0,0,0,0,0.1,0
		c0,0.1,0,0.2,0.1,0.2c0,0,0,0,0,0.1c0,0,0,0,0.1,0l0,0c0,0,0,0.1,0,0.2c0,0.1,0,0.2,0.1,0.2h0.1v0.1c0,0-0.1,0.1,0,0.1
		c0,0.1,0,0.1,0.1,0.1c0,0.1,0,0.1,0,0.2h0.1l0,0l0,0c0,0,0,0,0,0.1s0,0.1,0,0.1l0,0l0,0v0.1V48c0,0,0,0,0,0.1l0,0c0,0,0,0,0,0.1
		v0.1c0,0,0,0,0.1,0.1c0,0.1,0.1,0.1,0.1,0.1v0.1c0,0,0,0.1,0.1,0.1c0,0.1,0,0.2,0.1,0.3c0,0.1,0,0.1,0,0.2c0,0.1,0.1,0.1,0.1,0.2
		c0.1,0,0.1,0.1,0.1,0.2v0.1c0,0.1,0,0.1,0,0.1s0,0,0.1,0v0.1V50c0,0.1,0.1,0.1,0.2,0.1c0,0,0,0,0,0.1s0,0,0,0l0,0c0,0,0,0,0.1,0
		c0,0.1,0,0.1,0,0.2c0,0.1,0,0.2,0,0.2c0.1,0,0.1,0,0.2-0.1c0-0.2,0-0.3,0.1-0.3c0-0.1,0-0.2,0-0.2h0.1c0.1,0,0.1,0,0-0.1
		c0-0.1,0-0.2,0-0.2l0,0c0,0,0,0,0.1,0c0,0,0-0.1,0-0.2c0.1-0.1,0.1-0.1,0.1-0.1c0-0.1,0-0.2,0.1-0.2c0,0,0-0.1,0-0.2
		c0.2-0.3,0.3-0.5,0.3-0.7l0.1-0.1c0,0,0-0.1,0-0.2c0-0.1,0-0.1,0-0.1c0.1,0,0.2-0.1,0.2-0.4c0.1-0.2,0.2-0.4,0.2-0.6l0.1-0.1
		c0-0.1,0.1-0.2,0.1-0.3c0,0,0.1,0,0.1-0.1s0.1-0.1,0.1-0.1s0,0,0-0.1v-0.1V46c0-0.1,0-0.1,0.1-0.1c0,0,0,0,0-0.1c0,0,0,0-0.1,0
		c0-0.1,0-0.2,0-0.2h0.1v-0.1c0,0,0,0,0.1,0c0,0,0,0,0.1-0.1v-0.1c0,0,0,0,0-0.1s0-0.1,0-0.1s0-0.1,0-0.2c0,0,0-0.1,0.1-0.1l0.1-0.1
		l0,0l0,0c0.2-0.2,0.3-0.3,0.3-0.3c0.1,0,0.1-0.1,0.2-0.3c0,0,0.1,0,0.1,0.1c0.1,0,0.1-0.1,0.1-0.2c0.1,0,0.2,0,0.2,0s0-0.1,0.1-0.2
		c0,0,0,0,0.1,0h0.1c0,0,0.1,0.1,0.2,0.3c0,0,0,0,0-0.1l0,0c0,0,0,0,0.1,0c0,0.1,0,0.2,0.1,0.2c0.1-0.1,0.2-0.1,0.3-0.1
		c0,0.1,0,0.2,0.1,0.2c-0.1,0.1-0.1,0.1,0,0.2c0.1,0.1,0.1,0.1,0.2,0c0,0,0,0,0,0.1v0.1c0,0,0,0.1,0.1,0.1c0,0.1,0,0.1,0.1,0.1
		c0.1,0.1,0.1,0.2,0.1,0.3c0.1,0,0.1,0.1,0.1,0.1v0.1c0,0.1,0,0.1,0,0.1l0,0c0,0,0,0,0.1,0v0.1v0.1c0,0,0,0,0,0.1v0.1c0,0,0,0,0,0.1
		c0,0,0,0,0,0.1v0.1c0,0.1,0,0.1,0.1,0.1c0,0.1,0,0.2,0.1,0.3c0,0.1,0.1,0.3,0.2,0.4c0,0,0,0.1,0.1,0.1c0.1,0.1,0.1,0.2,0,0.2
		c0,0,0.1,0.1,0.1,0.2c0,0.1,0,0.2,0.1,0.2c0,0.1,0,0.2,0.1,0.3v0.1c0.1,0.1,0.1,0.2,0.2,0.2c0,0.1,0,0.1,0,0.2l0.1,0.1v0.1
		c0,0,0,0.1,0.1,0.1l0.1,0.1c0,0,0,0,0,0.1c0,0,0,0,0,0.1c0,0,0.1,0,0.1,0.1c0,0,0,0.1,0,0.2c0,0.1,0,0.1,0,0.2l0.1,0.1
		c0,0,0,0,0,0.1l0,0l0,0c0,0,0,0,0,0.1s0,0.2,0.1,0.2c0,0,0,0,0,0.1s0,0.1,0,0.1H59v0.1h0.1v0.1l0,0c-0.1,0.1-0.1,0.2,0,0.3
		c0,0,0.1,0.2,0.3,0.4c0,0.1,0,0.1,0.1,0.2h0.1h0.1v0.1c0,0,0,0,0.1,0.1c0,0.1,0.1,0.3,0.3,0.4c0,0.1,0.1,0.2,0.1,0.1
		c0.1-0.1,0.1-0.2,0-0.3h0.1v-0.1c0,0,0,0,0-0.1c0.1,0,0.2-0.1,0.1-0.2c0-0.1,0-0.2,0-0.2h0.1c0.1,0,0.1,0,0.1,0v-0.1
		c0-0.1,0-0.1,0-0.1c-0.1-0.1-0.1-0.1-0.1-0.2c0.1,0,0.2,0,0.2-0.1C60.9,50.9,60.9,50.8,60.9,50.8L60.9,50.8z M60.9,50.6
		C61,50.6,61,50.6,60.9,50.6L60.9,50.6L60.9,50.6c0.1-0.1,0.1-0.2,0.1-0.3c0-0.1,0-0.1,0-0.2c0,0,0,0,0.1-0.1c0,0,0,0,0-0.1
		c0,0,0,0,0-0.1s0,0,0,0l0,0c0-0.1,0-0.2,0.1-0.2l0.1-0.1c0-0.1,0-0.1,0-0.2v-0.1h0.1c0,0,0-0.1,0-0.2c0-0.1,0-0.2,0-0.2
		c-0.1-0.2,0-0.3,0.1-0.3c0,0,0,0-0.1,0l0,0c0-0.1,0-0.2,0-0.3h0.1c0-0.3,0.1-0.4,0.2-0.5l-0.1-0.1c0-0.1,0-0.2,0-0.3l0.1-0.1
		c0-0.1,0-0.2,0.1-0.2c0-0.1,0-0.2,0-0.3s0.1-0.2,0.1-0.2l0.1-0.3c0.1,0,0.1,0,0.1-0.1c0,0,0-0.1-0.1-0.1l-0.1-0.1c0,0,0,0,0.1,0
		c0,0,0,0,0.1,0c0,0,0.1-0.1,0-0.2c0-0.1,0-0.2,0-0.2h0.1c0.1,0,0.1,0,0.1,0s0-0.1-0.1-0.1c0,0,0,0,0-0.1c0,0,0,0,0-0.1
		c0,0,0-0.1-0.1-0.2C62,44.9,62,44.8,62,44.7c0.1-0.1,0.1-0.2,0.1-0.3H62c0,0,0-0.1,0-0.2v-0.1c0,0,0-0.2,0-0.3v-0.1
		c0-0.1,0-0.1,0-0.1c0-0.1-0.1-0.2,0-0.3l0.1-0.1c0,0,0-0.1,0-0.3c0-0.1,0-0.2,0-0.3c0,0-0.1-0.1,0-0.1c0,0,0,0,0.1-0.1
		c0-0.1,0-0.1,0-0.2c0-0.1,0-0.1,0-0.1l0,0l0,0V42c0-0.1,0-0.1,0-0.1c0.1,0,0.1,0,0.1-0.1c0.1,0,0.1,0,0.2,0.1c0,0,0-0.1,0-0.2
		c0.1,0,0.1,0,0.2,0c0.1,0,0.2,0,0.2,0c0.1,0.1,0.2,0.1,0.2,0.1c0,0.1,0,0.1,0.1,0.1s0.1,0,0.2,0c0.1,0,0.2,0,0.2,0V42
		c0,0.1,0,0.1,0,0.1s0,0.1,0.1,0.1c0.1,0.1,0.1,0.1,0.2,0.1c0,0,0,0.1,0,0.2c0,0.1,0,0.1,0,0.1v0.1c0,0,0,0.1,0.1,0.2
		c0.1,0.1,0.1,0.2,0,0.2c0,0,0,0.1,0,0.3c0,0.1,0,0.2,0,0.3v0.1c0,0-0.1,0.1-0.1,0.3c0,0.1,0,0.3,0,0.3c0.1,0,0.1,0.1,0,0.2
		c0,0.1,0.1,0.1,0,0.1c0,0,0,0-0.1,0.1l-0.1,0.1V45c0,0.1,0,0.1,0,0.1s0,0.1,0,0.2c0,0.1,0,0.1,0,0.2v0.1c0,0-0.1,0-0.1,0.1v0.1
		c0,0.1,0,0.1,0,0.2l0.1,0.1c-0.1,0-0.1,0-0.1,0v0.1c0,0,0,0.2,0,0.4C64,47,64,47.1,64,47.3c-0.1,0.1-0.1,0.2,0,0.2
		c0,0.1,0,0.1,0,0.1s0,0-0.1,0v0.1c-0.1,0-0.1,0.1-0.1,0.1c0,0.1,0,0.1,0,0.1s-0.1,0.1-0.1,0.2c0,0.1,0,0.1,0.1,0.2
		c0,0.1,0,0.1,0,0.2c-0.1,0-0.2,0.1-0.2,0.3c0.1,0.1,0.1,0.2,0.1,0.2c-0.1,0-0.1,0.1-0.2,0.2c0,0.1,0,0.2,0,0.3
		c-0.1,0-0.1,0.1-0.1,0.2c0,0,0,0,0,0.1c0,0,0,0,0,0.1V50c0,0.1,0,0.1,0,0.1c-0.1,0.1-0.2,0.1-0.1,0.3c-0.1,0-0.1,0.1-0.1,0.3
		c0,0,0,0,0,0.1v0.1h-0.1c0,0-0.1,0-0.1,0.1s0,0.1-0.1,0.1c0,0,0,0.1,0,0.2c0,0.1,0,0.1,0,0.2l-0.1,0.1c-0.1,0.1-0.1,0.1-0.1,0.1
		s0,0.1,0,0.2c-0.1,0.1,0,0.2,0,0.2c0,0.1,0,0.1,0,0.2c-0.1,0-0.1,0-0.2,0c0,0.1,0,0.1-0.1,0.2c0,0,0,0,0,0.1v0.1c0,0.1,0,0.1,0,0.1
		s0,0.1-0.1,0.1c0,0.1-0.1,0.1,0,0.2c0,0,0,0-0.1,0l0,0c0,0.1,0,0.2,0,0.2l0,0l0,0c0,0,0,0.1,0,0.2v0.1c0,0.1,0,0.1,0,0.2
		c0.1,0.1,0.1,0.1,0.1,0.2c-0.1,0-0.1,0-0.1,0s0,0.1,0,0.2c0.1,0,0.1,0.1,0.1,0.1c-0.1,0-0.2,0.1-0.2,0.2c0,0,0,0,0,0.1
		c0,0,0,0,0,0.1c-0.1,0-0.1,0-0.1,0.1s-0.1,0.1-0.1,0.1V55v0.1c0,0,0,0-0.1,0c0,0-0.1,0-0.1,0.1v0.1h-0.1h-0.1c0,0-0.1,0.1-0.2,0.2
		h-0.2c0,0-0.1,0.1,0,0.2H61l0,0v0.1c-0.1-0.1-0.1-0.2-0.1-0.2s0,0-0.1,0c0,0,0,0-0.1,0c0,0,0,0-0.1,0s-0.1,0-0.1,0
		c-0.1,0-0.1,0.1-0.2,0.1v-0.1v-0.1c0,0-0.1,0-0.2,0L60,55.4v-0.1c-0.1,0-0.1,0.1-0.2,0v-0.1c0,0,0,0,0-0.1s0,0-0.1,0c0,0,0,0,0-0.1
		l-0.1-0.1h-0.1l-0.1-0.1c-0.1-0.1-0.2-0.1-0.3-0.1c0-0.1,0-0.1,0-0.1l0,0l0,0c0,0,0,0,0-0.1L59,54.4c0-0.1-0.1-0.3-0.3-0.5h-0.1
		c0,0,0-0.1-0.1-0.2c-0.1-0.1-0.1-0.1-0.2-0.1c0-0.1,0-0.1-0.1-0.2c0-0.1,0-0.1-0.1-0.2c0,0-0.1,0-0.1-0.1s-0.1-0.2-0.2-0.3v-0.1
		v-0.1l0,0l0,0c0,0,0-0.1-0.1-0.1c0-0.1-0.1-0.1-0.1-0.1c0-0.1,0-0.1-0.1-0.2v-0.1c0,0,0,0-0.1-0.1c-0.1,0-0.1,0-0.1-0.1h-0.1
		c0,0,0,0,0-0.1c0,0,0,0,0-0.1h-0.1c0-0.1,0-0.1,0-0.2c0,0,0,0,0.1,0l0,0c0,0,0-0.1-0.1,0H57v-0.1c0-0.1,0-0.1,0-0.1s0,0-0.1-0.1
		l0,0c0-0.1,0-0.1-0.1-0.1V51v-0.1c0,0,0,0-0.1-0.1c0,0,0,0-0.1,0c0,0,0-0.1-0.1-0.2c0-0.1,0-0.1-0.1-0.2c0,0,0,0-0.1,0
		c0,0,0-0.1,0-0.2c0-0.1,0-0.1,0-0.1c0-0.1-0.1-0.1-0.1-0.2c0-0.1-0.1-0.1-0.2-0.1v-0.1v-0.1c0,0,0,0-0.1,0l0,0c0-0.1,0-0.1-0.1-0.2
		c0-0.1-0.1-0.1-0.1-0.2c0,0,0-0.1-0.1-0.1c0-0.1,0-0.1-0.1-0.1c0,0-0.1,0.1-0.2,0.2v0.1v0.1c0,0,0,0,0,0.1v0.1l0,0v0.1l0,0
		c0,0,0,0.1-0.1,0.1c0,0.1,0,0.1-0.1,0.1c0,0,0,0.1-0.1,0.2c0,0.1,0,0.1-0.1,0.2v0.1c0,0,0,0.1-0.1,0.1v0.1c0,0,0,0.1-0.1,0.1
		c-0.1,0.1-0.1,0.1,0,0.2c0,0,0,0.1-0.1,0.1v0.1c0,0.1,0,0.1,0,0.1l0,0l0,0c-0.1,0.1-0.1,0.2-0.1,0.2s0,0.1-0.1,0.3s-0.1,0.3,0,0.3
		c-0.1,0-0.1,0-0.2,0.1c0,0.1-0.1,0.1-0.1,0.1v0.1v0.1L54,52.5c0,0,0,0,0.1,0.1c0.1,0,0.1,0.1,0,0.1H54c0,0-0.1,0,0,0.1
		c0,0.1,0,0.1,0,0.1h-0.1V53v0.2c0,0,0,0-0.1,0s-0.1,0.1-0.1,0.1c0,0.1,0,0.1,0,0.2c-0.1,0-0.1,0-0.1,0.1s0,0.2,0.1,0.2
		c0,0.1,0,0.1,0,0.1c-0.1,0-0.1,0.1-0.2,0.1c0,0,0,0.1,0,0.2c0,0.1,0,0.2,0,0.2s0,0-0.1,0c0,0-0.1,0,0,0.1c0,0.1,0,0.2,0,0.2
		l-0.1,0.1c0,0.1,0,0.1,0.1,0.1c0,0,0,0.1,0,0.2c-0.1,0.1-0.1,0.1-0.1,0.1v0.1v0.1c0,0,0,0-0.1,0.1s0,0.1,0,0.1
		c-0.1,0-0.2,0-0.3,0.1l-0.1,0.1c0,0,0,0,0,0.1s0,0,0,0s0,0-0.1,0l0,0c0,0-0.1,0.1-0.1,0.2c0,0-0.1,0-0.1,0.1h-0.1
		c-0.2-0.2-0.3-0.2-0.3,0c0,0-0.1,0-0.2,0c-0.1,0-0.2,0-0.2,0v-0.1c0-0.1-0.1-0.1-0.2-0.1c0,0,0-0.1-0.1-0.2c0-0.1,0-0.2-0.1-0.2
		c0,0,0-0.1-0.1-0.2h-0.1c0,0,0-0.1-0.1-0.1c0-0.1-0.1-0.1-0.1-0.1s0,0-0.1-0.1c0-0.1,0-0.2,0-0.3s0-0.2,0-0.3c0,0,0,0,0-0.1
		c0,0,0,0,0-0.1c0-0.2-0.1-0.3-0.1-0.3v-0.1c0-0.2,0-0.2-0.1-0.2c0-0.1,0-0.2,0-0.3s0-0.2-0.1-0.2l0,0l0,0v-0.1V53c0,0,0,0,0-0.1
		l0,0c0,0,0,0-0.1,0v-0.1c-0.1,0-0.1-0.1-0.1-0.3c0-0.1,0-0.3,0-0.4c-0.1,0-0.2-0.1-0.2-0.2c0-0.2-0.1-0.2-0.2-0.2c0,0,0-0.1,0-0.2
		c0-0.1,0-0.2-0.1-0.2c0-0.1-0.1-0.2,0-0.3v-0.1l0,0l0,0v-0.1c0-0.1,0-0.1,0-0.1s0,0,0-0.1c0,0,0,0-0.1,0c0,0,0-0.1,0-0.2
		c0-0.1,0-0.2-0.1-0.3h-0.1l0.1-0.1c0-0.1,0-0.1-0.1-0.3h-0.1h-0.1v-0.1c0-0.1,0-0.1,0-0.2c0-0.1-0.1-0.1-0.1-0.1
		c0-0.1,0-0.2-0.1-0.3c0-0.1,0-0.2,0-0.3S49,48.6,49,48.5c0,0,0,0-0.1,0c0,0,0,0,0-0.1c0,0,0,0,0-0.1h-0.1v-0.1v-0.1c0,0,0,0-0.1,0
		l0,0V48c0,0,0-0.1,0-0.2c0,0,0,0-0.1,0c0,0,0-0.1-0.1-0.1v-0.1c0,0,0,0,0-0.1c0,0-0.1,0-0.1-0.1v-0.1c0,0,0-0.1-0.1-0.2
		c0-0.1-0.1-0.2-0.1-0.2V47c0,0,0-0.1-0.1-0.1S48,46.8,48,46.8h-0.1c0-0.1,0-0.2-0.1-0.2c0.1,0,0.1-0.1,0-0.2c0-0.1-0.1-0.1-0.1-0.1
		s0-0.1,0-0.2c0-0.2,0-0.3-0.1-0.3c0-0.1,0-0.1-0.1-0.2h-0.1c0-0.1,0-0.2,0-0.3c0-0.2,0-0.2,0-0.3l0.1-0.1v-0.1c0-0.1,0-0.1,0-0.1
		l0,0c0,0,0.1-0.1,0-0.1c0.1-0.1,0.2-0.1,0.2-0.2c0.1,0,0.1,0,0.2-0.1c0-0.1,0.1-0.1,0.1-0.1s0.1,0.1,0.2,0.1c0.1,0,0.2,0,0.2,0
		s0,0,0.1,0v0.1h0.3c0.1,0.1,0.2,0.1,0.3,0.2v0.1c0,0,0,0,0.1,0v0.1c0.1,0,0.1,0.1,0.2,0.2c0.1,0,0.2,0.1,0.2,0.1v0.1v0.1v0.1v0.1
		c0,0,0.1,0.1,0.2,0.1c0,0,0,0.1-0.1,0.1c0,0.1,0,0.1,0,0.1h0.1c0,0.1-0.1,0.2-0.1,0.2s0.1,0,0.2,0.1c0,0.1-0.1,0.2-0.1,0.2
		s0,0,0,0.1c0,0,0,0,0.1,0c0,0.1,0,0.2,0.1,0.2c0,0,0,0,0,0.1c0,0,0,0,0.1,0l0,0c0,0,0,0.1,0,0.2c0,0.1,0,0.2,0.1,0.2h0.1v0.1
		c0,0-0.1,0.1,0,0.1c0,0.1,0,0.1,0.1,0.1c0,0.1,0,0.1,0,0.2h0.1l0,0l0,0c0,0,0,0,0,0.1s0,0.1,0,0.1l0,0l0,0v0.1V48c0,0,0,0,0,0.1
		l0,0c0,0,0,0,0,0.1v0.1c0,0,0,0,0.1,0.1c0,0.1,0.1,0.1,0.1,0.1v0.1c0,0,0,0.1,0.1,0.1c0,0.1,0,0.2,0.1,0.3c0,0.1,0,0.1,0,0.2
		c0,0.1,0.1,0.1,0.1,0.2c0.1,0,0.1,0.1,0.1,0.2v0.1c0,0.1,0,0.1,0,0.1s0,0,0.1,0v0.1V50c0,0.1,0.1,0.1,0.2,0.1c0,0,0,0,0,0.1
		s0,0,0,0l0,0c0,0,0,0,0.1,0c0,0.1,0,0.1,0,0.2c0,0.1,0,0.2,0,0.2c0.1,0,0.1,0,0.2-0.1c0-0.2,0-0.3,0.1-0.3c0-0.1,0-0.2,0-0.2h0.1
		c0.1,0,0.1,0,0-0.1c0-0.1,0-0.2,0-0.2l0,0c0,0,0,0,0.1,0c0,0,0-0.1,0-0.2c0,0,0,0,0.1,0c0,0,0-0.1,0.1-0.1c0-0.1,0-0.2,0.1-0.2
		c0,0,0-0.1,0-0.2c0.2-0.3,0.3-0.5,0.3-0.7l0.1-0.1c0,0,0-0.1,0-0.2c0-0.1,0-0.1,0-0.1c0.1,0,0.2-0.1,0.2-0.4
		c0.1-0.2,0.2-0.4,0.2-0.6l0.1-0.1c0-0.1,0.1-0.2,0.1-0.3c0,0,0.1,0,0.1-0.1s0.1-0.1,0.1-0.1s0,0,0-0.1v-0.1V46c0-0.1,0-0.1,0.1-0.1
		c0,0,0,0,0-0.1c0,0,0,0-0.1,0c0-0.1,0-0.2,0-0.2h0.1v-0.1c0,0,0,0,0.1,0c0,0,0,0,0.1-0.1v-0.1c0,0,0,0,0-0.1s0-0.1,0-0.1
		s0-0.1,0-0.2c0,0,0-0.1,0.1-0.1l0.1-0.1l0,0l0,0c0.2-0.2,0.3-0.3,0.3-0.3c0.1,0,0.1-0.1,0.2-0.3c0,0,0.1,0,0.1,0.1
		c0.1,0,0.1-0.1,0.1-0.2c0.1,0,0.2,0,0.2,0s0-0.1,0.1-0.2c0,0,0,0,0.1,0h0.1c0,0,0.1,0.1,0.2,0.3c0,0,0,0,0-0.1l0,0c0,0,0,0,0.1,0
		c0,0.1,0,0.2,0.1,0.2c0.1-0.1,0.2-0.1,0.3-0.1c0,0.1,0,0.2,0.1,0.2c-0.1,0.1-0.1,0.1,0,0.2c0.1,0.1,0.1,0.1,0.2,0c0,0,0,0,0,0.1
		v0.1c0,0,0,0.1,0.1,0.2c0,0,0,0.1,0.1,0.1c0.1,0.1,0.1,0.2,0.1,0.3c0.1,0,0.1,0.1,0.1,0.1v0.1c0,0.1,0,0.1,0,0.1l0,0c0,0,0,0,0.1,0
		v0.1v0.1c0,0,0,0,0,0.1V46c0,0,0,0,0,0.1c0,0,0,0,0,0.1v0.1c0,0.1,0,0.1,0.1,0.1c0,0.1,0,0.2,0.1,0.3c0,0.1,0.1,0.3,0.2,0.4
		c0,0,0,0.1,0.1,0.1c0.1,0.1,0.1,0.2,0,0.2c0,0,0.1,0.1,0.1,0.2c0,0.1,0,0.2,0.1,0.2c0,0.1,0,0.2,0.1,0.3v0.1
		c0.1,0.1,0.1,0.2,0.2,0.2c0,0.1,0,0.1,0.1,0.2c0,0,0,0.1,0.1,0.1v0.1c0,0,0,0.1,0.1,0.1l0.1,0.1c0,0,0,0,0,0.1c0,0,0,0,0,0.1
		c0,0,0.1,0,0.1,0.1c0,0,0,0.1,0,0.2c0,0.1,0,0.1,0,0.2l0.1,0.1c0,0,0,0,0,0.1l0,0l0,0c0,0,0,0,0,0.1s0,0.2,0.1,0.2c0,0,0,0,0,0.1
		s0,0.1,0,0.1H59v0.1h0.1v0.1l0,0c-0.1,0.1-0.1,0.2,0,0.3c0,0,0.1,0.2,0.3,0.4c0,0.1,0,0.1,0.1,0.2h0.1h0.1v0.1c0,0,0,0,0.1,0.1
		c0,0.1,0.1,0.3,0.3,0.4c0,0.1,0.1,0.2,0.1,0.1c0.1-0.1,0.1-0.2,0-0.3h0.1v-0.1c0,0,0,0,0-0.1c0.1,0,0.2-0.1,0.1-0.2
		c0-0.1,0-0.2,0-0.2h0.1c0.1,0,0.1,0,0.1,0v-0.1c0-0.1,0-0.1,0-0.1c-0.1-0.1-0.1-0.1-0.1-0.2c0.1,0,0.2,0,0.2-0.1
		c0.1-0.1,0.1-0.2,0.1-0.2v-0.1C60.9,50.7,61,50.6,60.9,50.6z M52.6,50.6L52.6,50.6C52.5,50.7,52.5,50.7,52.6,50.6
		C52.5,50.6,52.5,50.6,52.6,50.6C52.5,50.6,52.6,50.6,52.6,50.6z M52.5,50.6C52.5,50.6,52.6,50.6,52.5,50.6
		C52.6,50.6,52.6,50.6,52.5,50.6C52.5,50.7,52.5,50.7,52.5,50.6L52.5,50.6z M64.2,45.9L64.2,45.9L64.2,45.9L64.2,45.9z M64.2,45.9
		L64.2,45.9L64.2,45.9L64.2,45.9z"/>
	<path class="st0" d="M72.3,40.2c0,0,0.1,0,0.2,0s0.1,0,0.1,0l0,0l0,0h0.1c0.1,0,0.1,0,0.1,0c0.1,0,0.2,0,0.3,0.1
		c0.4,0,0.6,0.1,0.7,0.2h0.1c0,0,0.1,0.1,0.2,0.2c0.1,0.1,0.2,0.1,0.2,0.2V41c0.1,0.1,0.2,0.3,0.3,0.6c0,0,0,0,0.1,0l0,0
		c0,0.1,0,0.2,0,0.3s0,0.2,0,0.2c0,0.1-0.1,0.1-0.1,0.2l-0.1,0.1c0,0.1,0,0.1-0.1,0.2v0.1v0.1l0,0l0,0c0,0,0,0-0.1,0.1h-0.1
		c0,0,0,0,0,0.1c0,0,0,0-0.1,0.1c-0.1,0-0.2,0-0.2,0c0,0.1,0,0.1,0,0.1h-0.1c-0.1,0-0.1,0-0.1,0s0,0-0.1,0c0,0,0,0-0.1,0
		c0,0,0,0,0.1-0.1c0,0,0-0.1-0.1-0.1c0-0.1,0-0.1-0.1-0.1c0,0,0,0-0.1,0.1h-0.1c0,0,0-0.1-0.1-0.1c0-0.1-0.1-0.1-0.1-0.1s0,0,0,0.1
		l0,0c0,0,0,0-0.1-0.1v-0.1c0,0,0,0-0.1,0c0-0.1-0.2-0.2-0.4-0.2c0,0-0.1,0-0.2,0.1c0,0-0.1,0-0.2,0s-0.1,0-0.1,0s0,0-0.1,0.1
		c0,0-0.1,0-0.3,0c-0.2,0-0.4,0.1-0.4,0.2c-0.1-0.1-0.2-0.1-0.3,0c-0.1,0-0.1,0-0.2,0s-0.1,0-0.2,0V43c-0.1,0-0.2,0-0.2,0
		c-0.1,0-0.1-0.1-0.2,0c0,0,0,0-0.1,0c0,0,0,0-0.1,0c0,0-0.1,0-0.2,0s-0.1,0-0.1,0s-0.1,0-0.1,0.1h-0.1h-0.1v0.1c-0.2,0-0.3,0-0.4,0
		l0,0l0,0c-0.2-0.1-0.4-0.1-0.5,0.1c0,0-0.1,0-0.1-0.1c-0.1,0-0.1,0.1,0,0.2v0.1c0,0,0,0,0,0.1v0.1v0.1c0,0.1,0,0.2,0.1,0.2
		c0,0.1,0,0.2,0.1,0.3s0.1,0.2,0,0.2c0,0.1,0,0.2,0.1,0.2l0,0l0,0v0.1c0,0,0,0.1,0.1,0.1c0,0.5,0,0.7,0,0.8c-0.1,0.1-0.1,0.2,0,0.4
		c0,0,0,0.1,0,0.2v0.1v0.1c0.1,0,0.1,0.1,0.1,0.1s0,0,0,0.1c0,0,0,0,0,0.1s0,0.2,0,0.4s0,0.3,0,0.4c0,0,0,0.1,0,0.2
		c0,0.1,0.1,0.1,0.2,0.1s0.2-0.1,0.2-0.1c0.2,0,0.3,0,0.4-0.1c0.3,0,0.4,0,0.4,0c0.1,0,0.2,0,0.3,0h0.1c0.1,0,0.1,0,0.1,0h0.1
		c0.1,0,0.2,0,0.2-0.1c0.1,0,0.3,0,0.4,0c0,0,0,0,0.1,0c0,0,0,0,0.1,0h0.1c0.1,0,0.1,0,0.1,0c0.1,0,0.2,0,0.3,0v-0.1
		c0.1,0,0.2,0.1,0.3,0c0.1,0,0.2-0.1,0.3-0.1h0.1h0.1l0,0l0,0c0,0,0.1,0,0.1-0.1c0.1-0.1,0.1-0.1,0.2,0l0.1-0.1c0,0,0,0,0.1,0.1
		c0.2,0,0.3,0,0.3-0.1c0,0,0.1,0,0.2,0s0.1,0,0.1,0h0.1c0.1,0,0.1,0,0.1,0c0.1,0,0.2,0.1,0.2,0.1s0.1,0,0.2,0l0,0c0,0,0,0,0,0.1
		c0.2,0,0.3,0,0.3,0s0,0.1,0.1,0.2v0.1c0,0,0,0.1,0.1,0.2c0,0.1,0.1,0.2,0.2,0.3c0,0,0,0-0.1,0.1c0,0.1,0,0.2-0.1,0.2
		c0,0.1-0.1,0.1-0.1,0.2h-0.1l0,0l0,0h-0.1l0,0h-0.1c0,0,0,0-0.1,0c0,0,0,0-0.1,0c0,0-0.1,0-0.1,0.1H74c0,0-0.1,0.1-0.3,0.1
		c0.3-0.1,0.3,0,0.3,0.1c-0.2,0-0.3,0-0.4,0.2c0,0,0,0-0.1,0l0,0l0,0c-0.1,0-0.1,0-0.2-0.1l0,0c0,0,0,0,0,0.1c0,0-0.1,0-0.2,0
		s-0.2,0-0.2,0s0,0-0.1,0l-0.1,0.1c-0.1,0-0.1,0-0.2,0s-0.1,0,0,0.1c0,0-0.1-0.1-0.2,0c-0.1,0-0.1,0-0.2,0v0.1c0,0-0.1,0-0.2,0
		s-0.1,0-0.1,0s-0.1,0-0.2,0v0.1c0,0-0.1,0-0.2,0h-0.1c0,0-0.1,0.1,0,0.1l-0.3,0c0,0-0.1,0-0.3,0c0,0,0,0-0.1,0.1c0,0,0,0-0.1,0
		c-0.2,0-0.3,0-0.3,0V50c-0.2,0-0.4,0-0.4,0s-0.1,0-0.2,0.1c0,0,0,0,0,0.1c-0.2,0.1-0.3,0.1-0.4,0c0,0,0,0-0.1,0H69c0,0,0,0-0.1,0
		c0,0,0,0-0.1,0c0,0-0.1,0-0.2,0.1c-0.1,0-0.1,0-0.1,0c-0.1,0-0.1,0.1,0,0.4c0,0,0,0,0,0.1v0.1c0,0,0,0.1,0.1,0.1
		c0,0.1,0,0.1-0.1,0.2v0.1c0,0.1,0,0.1,0.1,0.2l0,0l0,0c0,0,0,0.1-0.1,0.2c0.1,0,0.1,0.2,0.1,0.4s0,0.4,0,0.5
		c-0.1,0.2-0.1,0.3,0,0.3c0,0,0,0.1,0,0.2c0,0,0,0,0,0.1v0.1c0.1,0.1,0.1,0.3,0.1,0.3s0.1,0.1,0.1,0.2c0,0.1,0.1,0.2,0.1,0.2
		c0.1,0,0.1,0,0.3,0.1c0.1,0,0.2,0,0.3,0c0,0,0,0,0.1-0.1c0,0,0.1,0,0.1,0.1c0.3,0,0.5,0,0.5-0.1c0,0,0.1,0,0.2,0s0.2,0,0.3,0
		c0-0.1,0.2-0.1,0.5-0.1l0,0l0,0c0,0,0.1,0,0.2,0s0.1,0,0.2,0c0,0,0.1,0,0.1-0.1c0.1,0,0.1-0.1,0.1-0.1c0.1,0,0.3,0,0.4-0.1
		s0.3-0.1,0.4-0.1c0-0.1,0-0.1,0.1-0.1s0.2,0,0.3,0c0.2,0,0.3-0.1,0.4-0.2c0.1,0,0.2,0,0.2,0c0.1-0.1,0.1-0.1,0.2-0.1
		c0.4,0,0.6,0,0.6,0.1h0.1c0,0.1,0.1,0.2,0.2,0.3h0.1c0,0,0.1,0.1,0.2,0.2c0,0.1,0.1,0.2,0.2,0.3c0,0,0,0.1,0.1,0.2
		c0.1,0.1,0.1,0.1,0.1,0.2c0,0,0,0,0,0.1s0,0.1,0,0.1c-0.1,0.1-0.2,0.2-0.2,0.3c-0.1,0-0.2,0.1-0.2,0.2c-0.1,0-0.2,0.1-0.3,0.3
		c0,0,0,0-0.1,0c0,0,0,0-0.1,0c0,0,0,0.1-0.1,0.2c0,0,0,0-0.1,0c0,0,0,0-0.1,0c0,0-0.1,0-0.1,0.1c-0.1,0-0.2,0-0.2,0.1h-0.1
		c-0.1,0.1-0.2,0.2-0.3,0.1c0,0-0.1,0-0.1,0.1c0,0,0,0-0.1,0s-0.2-0.1-0.2,0c0,0-0.1,0.1-0.1,0.2h-0.1l0,0v0.1c0,0-0.1,0-0.1-0.1
		c-0.1,0-0.1,0-0.2,0c0,0,0,0,0,0.1c0,0,0,0,0,0.1c0,0,0,0-0.1,0c0,0,0,0-0.1,0c0,0,0,0-0.1,0.1c-0.1,0-0.2,0-0.3,0c0,0,0,0,0,0.1
		c-0.1,0-0.2,0-0.2,0c-0.1,0-0.2,0-0.2,0.1c0,0,0,0-0.1,0l0,0c0,0-0.1,0-0.2,0s-0.2,0-0.2,0.1v0.1c0,0-0.1,0-0.2,0h-0.1
		c0,0,0-0.1-0.1-0.1c-0.2,0-0.3,0.1-0.3,0.1V57h-0.1c0,0,0,0-0.1-0.1c0,0,0,0-0.1,0.1c0,0,0,0-0.1,0s-0.1,0-0.1,0
		c-0.1,0-0.1,0-0.2,0v-0.1h-0.1c-0.1,0-0.1,0-0.1,0.1c-0.1,0-0.3,0-0.4,0c0-0.1,0-0.1-0.1-0.1h-0.1c0,0,0,0,0,0.1v0.1l0,0l0,0h-0.1
		V57c0-0.1-0.1-0.1-0.2-0.1s-0.1-0.1-0.2-0.1c0,0-0.1,0-0.1-0.1s-0.1-0.1-0.1-0.1s0,0-0.1,0c0,0,0,0-0.1,0c0,0,0,0,0-0.1s0,0,0,0
		s0,0-0.1,0h-0.1c0-0.1,0-0.2-0.2-0.3v-0.1c-0.1-0.1-0.2-0.1-0.2-0.2h-0.1c-0.1,0-0.1-0.1-0.2-0.1c-0.1-0.1-0.1-0.1-0.2-0.2
		c-0.1-0.1-0.1-0.1-0.1-0.2c-0.1-0.3-0.2-0.5-0.2-0.5s0-0.1-0.1-0.2c0,0,0-0.1,0-0.2c0-0.1,0-0.1,0-0.2c0,0,0-0.1-0.1-0.1
		c0,0,0,0,0-0.1c0,0,0,0,0-0.1c0,0,0-0.1,0-0.2c0-0.1,0-0.2-0.1-0.2c0,0,0-0.1,0-0.3c0-0.1,0-0.2,0-0.2c0-0.3,0-0.7,0-1.3s0-1,0-1.3
		c0.1,0,0.1,0,0.1-0.1s0-0.1-0.1-0.1c0-0.1,0-0.1,0-0.2c0-0.1,0-0.2,0-0.2l-0.1-0.1c0,0,0-0.1,0.1-0.1c0-0.1,0-0.5,0-1.2l0.1-0.1
		c0,0,0-0.1-0.1-0.1c0,0,0-0.1,0-0.2c0-0.1,0-0.2,0-0.3v-0.1c0-0.1,0-0.1,0-0.2c0,0,0-0.2,0-0.4s0-0.3-0.1-0.3
		c0.1,0,0.1-0.1,0.1-0.3s0-0.3,0-0.3l-0.1-0.1c0-0.1,0-0.2,0.1-0.3c0,0,0,0-0.1-0.1c0,0,0,0,0-0.1c0-0.2,0-0.4,0-0.4l0,0l0,0
		c0-0.2,0-0.4,0-0.5h-0.1c0,0,0-0.1,0-0.2c0,0,0,0,0-0.1c0,0,0,0,0-0.1c0,0,0,0,0-0.1s0-0.1,0-0.1s0-0.1-0.1-0.1
		c-0.1-0.1-0.1-0.2,0-0.2c0,0,0-0.1-0.1-0.1v-0.1c0,0-0.1-0.1-0.2-0.2c0-0.1,0-0.1,0-0.2v-0.1c0-0.1,0-0.1,0-0.2
		c0.1-0.1,0.1-0.2,0.1-0.2s0.1-0.1,0.1-0.2s0.1-0.1,0.2-0.2l0,0c0,0,0,0,0-0.1l0.1,0.1h0.1c0.1,0,0.1,0,0.1,0s0.1,0,0.1-0.1
		c0.1-0.1,0.1-0.1,0.1-0.1s0.1,0,0.2,0s0.1,0,0.2,0c0,0,0,0,0.1,0c0,0,0,0,0.1,0s0.2,0,0.3-0.1c0.3-0.1,0.5-0.1,0.5-0.1h0.2l0,0l0,0
		h0.1c0,0,0.1,0,0.2-0.1c0.1,0,0.1-0.1,0.2-0.1v-0.1h0.1l0,0l0,0c0.2,0,0.3-0.1,0.3-0.1s0.1,0,0.2,0.1l0.2-0.1c0,0,0.1-0.1,0.2-0.2
		c0,0.1,0,0.1,0.1,0.1h0.1c0.1,0,0.1,0,0.1,0s0,0,0.1,0h0.1h0.1c0.1,0,0.1,0,0.2,0s0.2,0,0.3-0.1h0.1H71c0.1,0,0.1,0,0.1,0
		s0.1,0,0.2-0.1h0.1h0.1l0,0l0,0C72.1,40.4,72.3,40.4,72.3,40.2z M71.7,40.3c0.4,0.1,0.6,0,0.6-0.1c0,0,0.1,0,0.3,0l0,0l0,0h0.1
		c0.1,0,0.1,0,0.1,0c0.1,0,0.2,0,0.3,0.1c0.4,0,0.6,0.1,0.7,0.2h0.1c0,0,0.1,0.1,0.2,0.2c0.1,0.1,0.2,0.1,0.2,0.2V41
		c0.1,0.1,0.2,0.3,0.3,0.6c0,0,0.1,0,0.1,0.1s0,0.2,0,0.3s0,0.2,0,0.2c0,0.1-0.1,0.1-0.1,0.2l-0.1,0.1c0,0.1,0,0.1-0.1,0.2v0.1v0.1
		l0,0l0,0c0,0,0,0-0.1,0.1h-0.1c0,0,0,0,0,0.1c0,0,0,0-0.1,0.1c-0.1,0-0.2,0-0.2,0c0,0.1,0,0.1,0,0.1h-0.1c-0.1,0-0.1,0-0.1,0
		s0,0-0.1,0c0,0,0,0-0.1,0c0,0,0,0,0.1-0.1c0,0,0-0.1-0.1-0.1c0-0.1,0-0.1-0.1-0.1c0,0,0,0-0.1,0.1h-0.1c0,0,0-0.1-0.1-0.1
		c0-0.1-0.1-0.1-0.1-0.1s0,0,0,0.1l0,0c0,0,0,0-0.1-0.1v-0.1c0,0,0,0-0.1,0c0-0.1-0.2-0.2-0.4-0.2c0,0-0.1,0-0.2,0.1
		c0,0-0.1,0-0.2,0s-0.1,0-0.1,0s0,0-0.1,0.1c0,0-0.1,0-0.3,0c-0.2,0-0.4,0.1-0.4,0.2c-0.1-0.1-0.2-0.1-0.3,0c-0.1,0-0.1,0-0.2,0
		s-0.1,0-0.2,0v0.1c-0.1,0-0.2,0-0.2,0c-0.1,0-0.1-0.1-0.2,0c0,0,0,0-0.1,0c0,0,0,0-0.1,0c0,0-0.1,0-0.2,0s-0.1,0-0.1,0
		s-0.1,0-0.1,0.1h-0.1h-0.1v0.1c-0.2,0-0.3,0-0.4,0l0,0l0,0c-0.2-0.1-0.4-0.1-0.5,0.1c0,0-0.1,0-0.1-0.1c-0.1,0-0.1,0.1,0,0.2v0.1
		c0,0,0,0,0,0.1v0.1v0.1c0,0.1,0,0.2,0.1,0.2c0,0.1,0,0.2,0.1,0.3s0.1,0.2,0,0.2c0,0.1,0,0.2,0.1,0.2l0,0l0,0v0.1c0,0,0,0.1,0.1,0.1
		c0,0.5,0,0.7,0,0.8c-0.1,0.1-0.1,0.2,0,0.4c0,0,0,0.1,0,0.2v0.1v0.1c0.1,0,0.1,0.1,0.1,0.1s0,0,0,0.1c0,0,0,0,0,0.1s0,0.2,0,0.4
		s0,0.3,0,0.4c0,0,0,0.1,0,0.2c0,0.1,0.1,0.1,0.2,0.1s0.2-0.1,0.2-0.1c0.2,0,0.3,0,0.4-0.1c0.3,0,0.4,0,0.4,0c0.1,0,0.2,0,0.3,0h0.1
		c0.1,0,0.1,0,0.1,0h0.1c0.1,0,0.2,0,0.2-0.1c0.1,0,0.3,0,0.4,0c0,0,0,0,0.1,0c0,0,0,0,0.1,0h0.1c0.1,0,0.1,0,0.1,0
		c0.1,0,0.2,0,0.3,0v-0.1c0.1,0,0.2,0.1,0.3,0c0.1,0,0.2-0.1,0.3-0.1h0.1h0.1l0,0l0,0c0,0,0.1,0,0.1-0.1c0.1-0.1,0.1-0.1,0.2,0
		l0.1-0.1c0,0,0,0,0.1,0.1c0.2,0,0.3,0,0.3-0.1c0,0,0.1,0,0.2,0s0.1,0,0.1,0h0.1c0.1,0,0.1,0,0.1,0c0.1,0,0.2,0.1,0.2,0.1
		s0.1,0,0.2,0l0,0c0,0,0,0,0,0.1c0.2,0,0.3,0,0.3,0s0,0.1,0.1,0.2v0.1c0,0,0,0.1,0.1,0.2c0,0.1,0.1,0.2,0.2,0.3c0,0,0,0-0.1,0.1
		c0,0.1,0,0.2-0.1,0.2c0,0.1-0.1,0.1-0.1,0.2h-0.1l0,0l0,0h-0.1l0,0h-0.1c0,0,0,0-0.1,0c0,0,0,0-0.1,0c0,0-0.1,0-0.1,0.1H74
		c0,0-0.1,0.1-0.3,0.1c0.3-0.2,0.3-0.1,0.3,0c-0.2,0-0.3,0-0.4,0.2c0,0,0,0-0.1,0l0,0l0,0c-0.1,0-0.1,0-0.2-0.1l0,0c0,0,0,0,0,0.1
		c0,0-0.1,0-0.2,0s-0.2,0-0.2,0s0,0-0.1,0l-0.1,0.1c-0.1,0-0.1,0-0.2,0s-0.1,0,0,0.1c0,0-0.1-0.1-0.2,0c-0.1,0-0.1,0-0.2,0v0.1
		c0,0-0.1,0-0.2,0s-0.1,0-0.1,0s-0.1,0-0.2,0v0.1c0,0-0.1,0-0.2,0h-0.1c0,0-0.1,0.1,0,0.1l-0.3,0c0,0-0.1,0-0.3,0c0,0,0,0-0.1,0.1
		c0,0,0,0-0.1,0c-0.2,0-0.3,0-0.3,0V50c-0.2,0-0.4,0-0.4,0s-0.1,0-0.2,0.1c0,0,0,0,0,0.1c-0.2,0.1-0.3,0.1-0.4,0c0,0,0,0-0.1,0H69
		c0,0,0,0-0.1,0c0,0,0,0-0.1,0c0,0-0.1,0-0.2,0.1c-0.1,0-0.1,0-0.1,0c-0.1,0-0.1,0.1,0,0.4c0,0,0,0,0,0.1v0.1c0,0,0,0.1,0.1,0.1
		c0,0.1,0,0.1-0.1,0.2v0.1c0,0.1,0,0.1,0.1,0.2l0,0l0,0c0,0,0,0.1-0.1,0.2c0.1,0.1,0.1,0.2,0.1,0.4s0,0.3,0,0.4
		c-0.1,0.2-0.1,0.3,0,0.3c0,0,0,0.1,0,0.2c0,0,0,0,0,0.1v0.1c0.1,0.1,0.1,0.3,0.1,0.3s0.1,0.1,0.1,0.2c0,0.1,0.1,0.2,0.1,0.2
		c0.1,0,0.1,0,0.3,0.1c0.1,0,0.2,0,0.3,0c0,0,0,0,0.1-0.1c0,0,0.1,0,0.1,0.1c0.3,0,0.5,0,0.5-0.1c0,0,0.1,0,0.2,0s0.2,0,0.3,0
		c0-0.1,0.2-0.1,0.5-0.1l0,0l0,0c0,0,0.1,0,0.2,0s0.1,0,0.2,0c0,0,0.1,0,0.1-0.1c0.1,0,0.1-0.1,0.1-0.1c0.1,0,0.3,0,0.4-0.1
		s0.3-0.1,0.4-0.1c0-0.1,0-0.1,0.1-0.1s0.2,0,0.3,0c0.2,0,0.3-0.1,0.4-0.2c0.1,0,0.2,0,0.2,0c0.1-0.1,0.1-0.1,0.2-0.1
		c0.4,0,0.6,0,0.6,0.1h0.1c0,0.1,0.1,0.2,0.2,0.3h0.1c0,0,0.1,0.1,0.2,0.2c0,0.1,0.1,0.2,0.2,0.3c0,0,0,0.1,0.1,0.2
		c0.1,0.1,0.1,0.1,0.1,0.2c0,0,0,0,0,0.1s0,0.1,0,0.1c-0.1,0.1-0.2,0.2-0.2,0.3c-0.1,0-0.2,0.1-0.2,0.2c-0.1,0-0.2,0.1-0.3,0.3
		c0,0,0,0-0.1,0c0,0,0,0-0.1,0c0,0,0,0.1-0.1,0.2c0,0,0,0-0.1,0c0,0,0,0-0.1,0c0,0-0.1,0-0.1,0.1c-0.1,0-0.2,0-0.2,0.1h-0.1
		c-0.1,0.1-0.2,0.2-0.3,0.1c0,0-0.1,0-0.1,0.1c0,0,0,0-0.1,0s-0.2-0.1-0.2,0c0,0-0.1,0.1-0.1,0.2h-0.1l0,0v0.1c0,0-0.1,0-0.1-0.1
		c-0.1,0-0.1,0-0.2,0c0,0,0,0,0,0.1c0,0,0,0,0,0.1c0,0,0,0-0.1,0c0,0,0,0-0.1,0c0,0,0,0-0.1,0.1c-0.1,0-0.2,0-0.3,0c0,0,0,0,0,0.1
		c-0.1,0-0.2,0-0.2,0c-0.1,0-0.2,0-0.2,0.1c0,0,0,0-0.1,0l0,0c0,0-0.1,0-0.2,0s-0.2,0-0.2,0.1v0.1c0,0-0.1,0-0.2,0h-0.1
		c0,0,0-0.1-0.1-0.1c-0.2,0-0.3,0.1-0.3,0.1v0.1h-0.1c0,0,0,0-0.1-0.1c0,0,0,0-0.1,0.1c0,0,0,0-0.1,0s-0.1,0-0.1,0
		c-0.1,0-0.1,0-0.2,0v-0.1h-0.1c-0.1,0-0.1,0-0.1,0.1c-0.1,0-0.3,0-0.4,0c0-0.1,0-0.1-0.1-0.1h-0.1c0,0,0,0,0,0.1V57l0,0l0,0h-0.1
		v-0.1c0-0.1-0.1-0.1-0.2-0.1s-0.1-0.1-0.2-0.1c0,0-0.1,0-0.1-0.1s-0.1-0.1-0.1-0.1s0,0-0.1,0c0,0,0,0-0.1,0c0,0,0,0,0-0.1s0,0,0,0
		s0,0-0.1,0h-0.1c0-0.1,0-0.2-0.2-0.3V56c-0.1-0.1-0.2-0.1-0.2-0.2h-0.1c-0.1,0-0.1-0.1-0.2-0.1c-0.1-0.1-0.1-0.1-0.2-0.2
		c-0.1-0.1-0.1-0.1-0.1-0.2c-0.1-0.3-0.2-0.5-0.2-0.5s0-0.1-0.1-0.2c0,0,0-0.1,0-0.2c0-0.1,0-0.1,0-0.2c0,0,0-0.1-0.1-0.1
		c0,0,0,0,0-0.1c0,0,0,0,0-0.1c0,0,0-0.1,0-0.2c0-0.1,0-0.2-0.1-0.2c0,0,0-0.1,0-0.3c0-0.1,0-0.2,0-0.2c0-0.3,0-0.7,0-1.3s0-1,0-1.3
		c0.1,0,0.1,0,0.1-0.1s0-0.1-0.1-0.1c0-0.1,0-0.1,0-0.2c0-0.1,0-0.2,0-0.2l-0.1-0.1c0,0,0-0.1,0.1-0.1c0-0.1,0-0.5,0-1.2l0.1-0.1
		c0,0,0-0.1-0.1-0.1c0,0,0-0.1,0-0.2c0-0.1,0-0.2,0-0.3c0,0,0,0,0-0.1s0-0.1,0-0.2c0,0,0-0.2,0-0.4s0-0.3-0.1-0.3
		c0.1,0,0.1-0.1,0.1-0.3s0-0.3,0-0.3L66.2,46c0-0.1,0-0.2,0.1-0.3c0,0,0,0-0.1-0.1c0,0,0,0,0-0.1c0-0.2,0-0.4,0-0.4l0,0l0,0
		c0-0.2,0-0.4,0-0.5h-0.1c0,0,0-0.1,0-0.2c0,0,0,0,0-0.1c0,0,0,0,0-0.1c0,0,0,0,0-0.1s0-0.1,0-0.1s0-0.1-0.1-0.1
		c-0.1-0.1-0.1-0.2,0-0.2c0,0,0-0.1-0.1-0.1v-0.1c0,0-0.1-0.1-0.2-0.2c0-0.1,0-0.1,0-0.2V43c0-0.1,0-0.1,0-0.2
		c0.1-0.1,0.1-0.2,0.1-0.2s0.1-0.1,0.1-0.2s0.1-0.1,0.2-0.2l0,0c0,0,0,0,0-0.1l0.1,0.1h0.1c0.1,0,0.1,0,0.1,0s0.1,0,0.1-0.1
		c0.1-0.1,0.1-0.1,0.1-0.1s0.1,0,0.2,0s0.1,0,0.2,0c0,0,0,0,0.1,0c0,0,0,0,0.1,0s0.2,0,0.3-0.1c0.3-0.1,0.5-0.1,0.5-0.1h0.2l0,0l0,0
		h0.1c0,0,0.1,0,0.2-0.1c0.1,0,0.1-0.1,0.2-0.1v-0.1h0.1l0,0l0,0c0.2,0,0.3-0.1,0.3-0.1s0.1,0,0.2,0.1l0.2-0.1c0,0,0.1-0.1,0.2-0.2
		c0,0.1,0,0.1,0.1,0.1h0.1c0.1,0,0.1,0,0.1,0s0,0,0.1,0h0.1h0.1c0.1,0,0.1,0,0.2,0s0.2,0,0.3-0.1h0.1H71c0.1,0,0.1,0,0.1,0
		s0.1,0,0.2-0.1h0.1C71.6,40.4,71.6,40.4,71.7,40.3C71.7,40.4,71.7,40.4,71.7,40.3C71.7,40.4,71.7,40.3,71.7,40.3z"/>
	<path class="st0" d="M76.9,41.4c0.2,0,0.3,0,0.3-0.1l0.1,0.1c0,0,0.1-0.1,0.2,0c0.1,0,0.2,0,0.2,0s0,0,0.1,0h0.1H78
		c0.1,0,0.1,0,0.1,0s0.1,0,0.2,0s0.2,0,0.3,0h0.1c0.1,0,0.1,0,0.1,0h0.1c0,0,0.1,0,0.1-0.1c0.3,0,0.5,0,0.5,0.1c0.1,0,0.1,0,0.3,0
		h0.1c0,0,0.1,0,0.2,0s0.1,0,0.2,0h0.1h0.1c0.1,0,0.1,0,0.1,0h0.1h0.1h0.1H81c0.1,0,0.1,0,0.1,0s0,0,0.1,0.1c0,0,0,0,0.1,0h0.1
		c0.1,0,0.1,0,0.3,0c0.1,0,0.2,0,0.3,0h0.1c0.1,0,0.1,0,0.2,0l0,0l0,0c0.1,0,0.2,0,0.4,0.1c0.2,0,0.4,0.1,0.5,0
		c0.1,0,0.1-0.1,0.2-0.1v0.1c0.1,0,0.1,0.1,0.1,0.1h0.1c0.1,0,0.1,0,0.1,0h0.1c0.1,0,0.1,0,0.2,0l0.1,0.1c0.1,0,0.1,0,0.2,0
		c0.1-0.1,0.2-0.1,0.3-0.1v0.1c0,0,0.2,0.1,0.4,0.1c0,0,0.1,0.1,0.2,0.1s0.2,0,0.2,0.1h0.1c0.4,0.2,0.6,0.4,0.7,0.5h0.1
		c0,0.1,0.1,0.1,0.1,0.2c0.1,0,0.1,0.1,0.2,0.1c0.1,0.1,0.1,0.1,0.2,0.2c0.1,0.1,0.1,0.1,0.2,0.1c0,0,0,0.1,0.1,0.2
		c0,0.1,0.1,0.1,0.1,0.1c0.1,0.1,0.1,0.1,0.2,0.2v0.1c0,0,0,0,0,0.1c0,0,0,0.1,0.1,0.1c0,0.1,0,0.2,0,0.2l0,0c0,0,0,0,0,0.1
		c0,0,0,0.1,0,0.2c0,0.1,0,0.1,0.1,0.2l0,0l0,0c0,0,0,0,0,0.1c0,0,0,0-0.1,0c0,0,0,0.1,0,0.2c0,0.1,0,0.1,0,0.1v0.1c0,0,0,0.1,0,0.3
		c0,0.1,0,0.2,0,0.3s-0.1,0.1-0.1,0.1c0,0.1,0,0.1,0,0.2c-0.1,0-0.1,0.1-0.1,0.1s0,0.1-0.1,0.2v0.1c-0.1,0-0.1,0.1-0.1,0.3
		c0,0-0.1,0.1-0.1,0.2c-0.1,0.1-0.1,0.2-0.2,0.2v0.1c0,0,0,0,0,0.1s0,0.1,0,0.1c-0.2,0.1-0.3,0.3-0.3,0.5l0,0l0,0
		c0,0-0.1,0.1-0.1,0.2c-0.2,0.2-0.4,0.3-0.4,0.4c-0.1,0-0.2,0.1-0.2,0.2c-0.3,0.2-0.4,0.3-0.5,0.4c-0.1,0-0.1,0.1-0.2,0.1L85,49.4
		c-0.1,0.1-0.1,0.1-0.1,0.1c-0.1,0.1-0.2,0.1-0.2,0.1v0.1h0.1c0,0,0.1,0,0.1,0.1c0.1,0,0.1,0,0.1,0l0,0c0,0,0,0,0.1,0s0.1,0,0.1,0
		s0,0,0.1,0.1c0.1,0,0.1,0,0.1,0s0,0,0.1,0c0,0,0,0,0,0.1h0.1c0.1,0.1,0.1,0.1,0.2,0.1c0,0,0.1,0.1,0.2,0.1c0.1,0.1,0.2,0.1,0.2,0.1
		h0.1c0,0,0,0,0.1,0c0,0,0,0,0.1,0h0.1c0,0,0,0.1,0.1,0.1c0.1,0.1,0.1,0.1,0.2,0.1c0,0.1,0.1,0.1,0.3,0.1c0.1,0.1,0.2,0.2,0.3,0.2
		c0,0,0.1,0.1,0.1,0.2c0.2,0.1,0.3,0.2,0.5,0.3h0.1c0.2,0.1,0.3,0.2,0.3,0.2s0.1,0.1,0.2,0.1s0.1,0.1,0.1,0.1s0.1,0,0.2,0.1
		c0.1,0,0.1,0.1,0.2,0.1c0.1,0.1,0.2,0.2,0.4,0.3c0.2,0.1,0.3,0.2,0.4,0.3h0.1c0.1,0.1,0.2,0.2,0.2,0.2s0,0,0.1,0c0,0,0,0,0.1,0
		c0,0.1,0.1,0.1,0.3,0.3c0.1,0,0.1,0,0.2,0s0.2,0,0.2,0c0.1,0,0.2,0.1,0.2,0.1l0.1-0.1c0,0,0,0,0.1,0.1c0.1,0,0.2,0,0.3,0.1
		c0.1,0.1,0.1,0.1,0.1,0.2c0,0,0,0,0,0.1h0.1c0,0,0,0.1,0.1,0.2c0,0.1,0.1,0.1,0.1,0.2V54c0,0,0,0,0,0.1v0.1l0.1,0.1
		c0.1,0.1,0.1,0.1,0.1,0.1s0,0.1,0,0.2c0,0.2,0.1,0.3,0,0.3c0,0,0,0.1,0.1,0.1c0,0.1,0,0.2,0,0.3s0,0.2,0,0.3h-0.3l-0.1,0.1
		l-0.1,0.1l0,0H92c0,0,0.1,0.1,0,0.1c0,0,0,0-0.1,0s-0.1,0-0.1,0l0,0l0,0h-0.1l-0.1-0.1c0,0-0.1,0-0.1,0.1c-0.1,0.1-0.1,0.1-0.2,0
		s-0.2-0.2-0.2-0.2s0,0-0.1,0h-0.1c0-0.1,0-0.1-0.1-0.2c0,0,0,0-0.1,0l0,0c0,0,0,0,0-0.1c0,0-0.1-0.1-0.2-0.2c0,0,0,0-0.1,0
		s-0.1,0-0.1,0c-0.1-0.1-0.2-0.3-0.3-0.3h-0.1l-0.1-0.1c-0.1-0.1-0.2-0.2-0.3-0.2l-0.1-0.1c-0.1,0-0.1-0.1-0.1-0.1s-0.1,0.1-0.1,0
		c0,0,0,0,0-0.1v-0.1h-0.1c-0.1,0-0.1,0-0.1,0c0-0.1-0.1-0.1-0.2-0.1V54c-0.7,0.2-0.8,0.1-0.8,0c0,0-0.2-0.1-0.4-0.3l0,0l0,0
		c0,0-0.1-0.1-0.2-0.2c-0.1,0-0.2-0.1-0.3-0.2c0,0,0,0-0.1,0c0,0,0,0-0.1,0c0,0,0,0,0-0.1v-0.1c0,0,0,0-0.1,0c0,0,0,0-0.1,0
		c0,0-0.1,0-0.2-0.1l-0.1-0.1c0,0,0,0-0.1-0.1c0,0-0.1,0-0.1-0.1c-0.1,0-0.1-0.1-0.3-0.1s-0.2-0.1-0.3-0.1h-0.1
		c0-0.1-0.1-0.1-0.2-0.2c0,0-0.1-0.1-0.3-0.2c0,0,0,0-0.1,0l0,0l0,0l0,0c0,0,0,0-0.1,0h-0.1c-0.1,0-0.1,0-0.2,0c0,0-0.1,0-0.1-0.1
		s-0.1-0.1-0.1-0.1c-0.1,0-0.1,0.1-0.1,0l0,0v-0.1c0,0,0,0-0.1,0s0,0-0.1,0c0,0,0,0,0-0.1l0,0h0l-0.1-0.1c0,0-0.1,0-0.2-0.1
		c-0.1,0-0.1-0.1-0.2,0l-0.1-0.1c-0.1,0-0.1-0.1-0.1-0.1c-0.1,0-0.1,0-0.2-0.1c-0.1,0-0.2,0-0.3-0.1c0,0-0.1,0-0.2,0.1l0,0
		c0,0,0,0,0-0.1c0,0-0.1,0-0.2,0l0,0l0,0C82.2,51,82.1,50.9,82,51c-0.1-0.1-0.2-0.2-0.3-0.2c0,0-0.1,0-0.2-0.1c0,0-0.1,0-0.1-0.1
		c0,0-0.1,0.1-0.1,0.2c0,0.1,0,0.2,0,0.3c0,0,0,0,0,0.1l0,0c0,0,0,0,0,0.1v0.1c0,0.3,0,0.4,0.1,0.5v0.3v0.1c0,0,0,0.1,0.1,0.1v0.1
		c0,0.1,0,0.1,0,0.1s0,0.1,0.1,0.1c0,0,0,0.1,0.1,0.1c0,0,0,0.1,0,0.2c0,0.1,0,0.2,0,0.2l0,0l0,0c0,0.2,0,0.3,0,0.3
		c0,0.1,0,0.1,0.1,0.3c0,0,0,0.1,0,0.2c0,0.1,0,0.2,0,0.2s0,0,0.1,0c0,0,0,0,0,0.1c0,0,0,0.1-0.1,0.2c0,0,0,0,0,0.1c0,0,0,0.1,0,0.3
		c0,0.1,0,0.2,0,0.4s0,0.3,0,0.3s0,0,0,0.1l0,0c0,0,0,0,0,0.1c0,0-0.1,0.1-0.1,0.2c0,0.1-0.1,0.1-0.1,0.1s-0.1,0-0.2,0
		c-0.2,0-0.3,0.1-0.3,0.3l0,0l0,0c0,0,0,0,0,0.1l0,0c0,0,0,0,0-0.1c0,0-0.1,0-0.2,0s-0.1,0.1-0.1,0.1c0-0.1,0-0.1-0.1-0.2
		c-0.1,0-0.2-0.1-0.3-0.3h-0.1h-0.1c0-0.1,0-0.2-0.1-0.3s-0.2-0.1-0.2-0.2l0,0l0,0c0-0.1,0-0.1,0.1-0.2v-0.1v-0.1c0,0,0,0,0-0.1
		c0,0,0,0-0.1-0.1c0,0,0,0-0.1,0c0,0,0-0.1,0.1-0.1c0.1-0.2,0.1-0.3,0-0.3v-0.3c0,0,0.1-0.1,0.1-0.2c0-0.1,0-0.2-0.1-0.2
		c0-0.1,0-0.2,0-0.3s0-0.2,0-0.2s0-0.1-0.1-0.1c0,0,0-0.1,0-0.3c0-0.1,0-0.2-0.1-0.3c0,0,0-0.1,0-0.2c0-0.1,0-0.1,0-0.2v-0.1V52
		c0,0,0-0.1,0-0.2c0-0.1,0-0.2,0-0.3c0,0,0-0.1-0.1-0.2c0-0.1,0-0.1-0.1-0.1c0,0,0-0.1,0-0.3c0-0.1,0-0.2,0-0.2c0-0.1,0-0.1-0.1-0.2
		c0,0,0-0.1,0-0.3c0,0,0,0,0-0.1s0,0,0-0.1v-0.1c0-0.1,0-0.1,0-0.1s0,0,0-0.1l0,0c0-0.1,0-0.1,0-0.3c0-0.1,0-0.2,0-0.2
		s0-0.1-0.1-0.1c0,0,0-0.1,0-0.2c0-0.1,0-0.1,0-0.2v-0.1v-0.1v-0.1v-0.1v-0.1c0,0,0,0,0-0.1c0,0,0,0,0-0.1s-0.1-0.1-0.2-0.1v-0.1
		l0,0l0,0v-0.1c0,0,0-0.1,0-0.3c0-0.1,0-0.3,0-0.3L79,47c0,0,0,0,0-0.1v-0.1c0,0,0,0,0-0.1c0,0,0,0,0-0.1s-0.1-0.2-0.1-0.2v-0.1
		c0,0,0-0.1,0-0.3c0,0,0-0.1,0-0.2c0-0.1,0-0.1,0-0.1s0,0,0-0.1c0,0,0,0,0-0.1c0,0,0,0,0-0.1l0,0v-0.1c0-0.1,0-0.2,0-0.2
		c0-0.1-0.1-0.2-0.1-0.3s0-0.2,0-0.2l0,0c0,0,0,0-0.1,0c0,0,0,0,0-0.1l0,0c0,0,0-0.1,0-0.2c0-0.1,0-0.2,0-0.2V44c0-0.1,0-0.2,0-0.2
		s0,0-0.1,0l0,0l0,0l0,0c0,0,0-0.1,0-0.2c0-0.1,0-0.2,0-0.2l0,0l0,0v-0.1c0-0.1,0-0.1,0-0.1c-0.1,0-0.2,0-0.3-0.1
		c-0.1,0-0.2,0-0.2,0L77.9,43c0-0.1-0.1-0.1-0.2-0.1l-0.1-0.1c0-0.1-0.1-0.1-0.1-0.2c-0.1-0.1-0.2-0.1-0.2-0.2
		c0-0.1-0.1-0.1-0.1-0.2c0-0.1,0-0.2,0-0.3s0-0.2,0-0.3c0,0,0-0.1,0.1-0.2c0.1-0.1,0.1-0.2,0.1-0.2c0-0.1,0.1-0.1,0.1-0.1l0,0l0,0
		C76.8,41.4,76.8,41.4,76.9,41.4z M77.2,41.3C77.2,41.3,77.3,41.3,77.2,41.3c0.1,0,0.2,0,0.3,0c0.1,0,0.2,0,0.2,0s0,0,0.1,0h0.1H78
		c0.1,0,0.1,0,0.1,0s0.1,0,0.2,0s0.2,0,0.3,0h0.1c0.1,0,0.1,0,0.1,0h0.1c0,0,0.1,0,0.1-0.1c0.3,0,0.5,0,0.5,0.1c0,0,0.1,0,0.2,0h0.1
		c0,0,0.1,0,0.2,0s0.1,0,0.2,0h0.1h0.1c0.1,0,0.1,0,0.1,0h0.1h0.1h0.1h0.1c0.1,0,0.1,0,0.1,0s0,0,0.1,0.1c0,0,0,0,0.1,0h0.1
		c0.1,0,0.1,0,0.3,0c0.1,0,0.2,0,0.3,0H82c0.1,0,0.1,0,0.2,0l0,0l0,0c0.1,0,0.2,0,0.4,0.1c0.2,0,0.4,0.1,0.5,0
		c0.1,0,0.1-0.1,0.2-0.1v0.1c0.1,0,0.1,0.1,0.1,0.1h0.1c0.1,0,0.1,0,0.1,0h0.1c0.1,0,0.1,0,0.2,0l0.1,0.1c0.1,0,0.1,0,0.2,0
		c0.1-0.1,0.2-0.1,0.3-0.1v0.1c0,0,0.2,0.1,0.4,0.1c0,0,0.1,0.1,0.2,0.1s0.2,0,0.2,0.1h0.1c0.4,0.2,0.6,0.4,0.7,0.5h0.1
		c0,0.1,0.1,0.1,0.1,0.2c0.1,0,0.1,0.1,0.2,0.1c0.1,0.1,0.1,0.1,0.2,0.2c0.1,0.1,0.1,0.1,0.2,0.1c0,0,0,0.1,0.1,0.2
		c0,0.1,0.1,0.1,0.1,0.1c0.1,0.1,0.1,0.1,0.2,0.2v0.1c0,0,0,0,0,0.1c0,0,0,0.1,0.1,0.1c0,0.1,0,0.2,0,0.2l0,0c0,0,0,0,0,0.1
		c0,0,0,0.1,0,0.2c0,0.1,0,0.1,0.1,0.2l0,0l0,0c0,0,0,0,0,0.1c0,0,0,0-0.1,0c0,0,0,0.1,0,0.2c0,0.1,0,0.1,0,0.1v0.1c0,0,0,0.1,0,0.3
		c0,0.1,0,0.2,0,0.3s-0.1,0.1-0.1,0.1c0,0.1,0,0.1,0,0.2c-0.1,0-0.1,0.1-0.1,0.1s0,0.1-0.1,0.2v0.1c-0.1,0-0.1,0.1-0.1,0.3
		c0,0-0.1,0.1-0.1,0.2c-0.1,0.1-0.1,0.2-0.2,0.2v0.1c0,0,0,0,0,0.1s0,0.1,0,0.1c-0.2,0.1-0.3,0.3-0.3,0.5l0,0l0,0
		c0,0-0.1,0.1-0.1,0.2c-0.2,0.2-0.4,0.3-0.4,0.4c-0.1,0-0.2,0.1-0.2,0.2c-0.3,0.2-0.4,0.3-0.5,0.4c-0.1,0-0.1,0.1-0.2,0.1l-0.1,0.1
		c-0.1,0.1-0.1,0.1-0.1,0.1c-0.1,0.1-0.2,0.1-0.2,0.1v0.1h0.1c0,0,0.1,0,0.1,0.1c0.1,0,0.1,0,0.1,0l0,0c0,0,0,0,0.1,0s0.1,0,0.1,0
		s0,0,0.1,0.1c0.1,0,0.1,0,0.1,0s0,0,0.1,0c0,0,0,0,0,0.1h0.1c0.1,0.1,0.1,0.1,0.2,0.1c0,0,0.1,0.1,0.2,0.1c0.1,0.1,0.2,0.1,0.2,0.1
		h0.1c0,0,0,0,0.1,0c0,0,0,0,0.1,0h0.1c0,0,0,0.1,0.1,0.1c0.1,0.1,0.1,0.1,0.2,0.1c0,0.1,0.1,0.1,0.3,0.1c0.1,0.1,0.2,0.2,0.3,0.2
		c0,0,0.1,0.1,0.1,0.2c0.2,0.1,0.3,0.2,0.5,0.3h0.1c0.2,0.1,0.3,0.2,0.3,0.2s0.1,0.1,0.2,0.1s0.1,0.1,0.1,0.1s0.1,0,0.2,0.1
		c0.1,0,0.1,0.1,0.2,0.1c0.1,0.1,0.2,0.2,0.4,0.3c0.2,0.1,0.3,0.2,0.4,0.3H90c0,0,0.1,0,0.1,0.1c0.1,0.1,0.1,0.1,0.1,0.1s0,0,0.1,0
		c0,0,0,0,0.1,0c0,0.1,0.1,0.1,0.3,0.3c0.1,0,0.1,0,0.2,0s0.2,0,0.2,0c0.1,0,0.2,0.1,0.2,0.1l0.1-0.1c0,0,0,0,0.1,0.1
		c0.1,0,0.2,0,0.3,0.1c0.1,0.1,0.1,0.1,0.1,0.2c0,0,0,0,0,0.1H92c0,0,0,0.1,0.1,0.2c0,0.1,0.1,0.1,0.1,0.2v0.1c0,0,0,0,0,0.1v0.1
		l0.1,0.1c0.1,0.1,0.1,0.1,0.1,0.1s0,0.1,0,0.2c0,0.2,0.1,0.3,0,0.3c0,0,0,0.1,0.1,0.1c0,0.1,0,0.2,0,0.3s0,0.2,0,0.3h-0.3l-0.1,0.1
		L92,55.7l0,0h-0.1c0,0,0.1,0.1,0,0.1c0,0,0,0-0.1,0s-0.1,0-0.1,0l0,0l0,0h-0.1l-0.1-0.1c0,0-0.1,0-0.1,0.1c-0.1,0.1-0.1,0.1-0.2,0
		S91,55.6,91,55.6s0,0-0.1,0h-0.1c0-0.1,0-0.1-0.1-0.2c0,0,0,0-0.1,0l0,0c0,0,0,0,0-0.1c0,0-0.1-0.1-0.2-0.2c0,0,0,0-0.1,0
		s-0.1,0-0.1,0c-0.1-0.1-0.2-0.3-0.3-0.3h-0.1l-0.1-0.1c-0.1-0.1-0.2-0.2-0.3-0.2l-0.1-0.1c-0.1,0-0.1-0.1-0.1-0.1s-0.1,0.1-0.1,0
		c0,0,0,0,0-0.1v-0.1H89c-0.1,0-0.1,0-0.1,0c0-0.1-0.1-0.1-0.2-0.1v-0.1C88.1,54.2,88,54.1,88,54c0,0-0.2-0.1-0.4-0.3l0,0l0,0
		c0,0-0.1-0.1-0.2-0.2c-0.1,0-0.2-0.1-0.3-0.2c0,0,0,0-0.1,0c0,0,0,0-0.1,0c0,0,0,0,0-0.1v-0.1c0,0,0,0-0.1,0c0,0,0,0-0.1,0
		c0,0-0.1,0-0.2-0.1l-0.1-0.1c0,0,0,0-0.1-0.1c0,0-0.1,0-0.1-0.1c-0.1,0-0.1-0.1-0.3-0.1s-0.2-0.1-0.3-0.1h-0.1
		c0-0.1-0.1-0.1-0.2-0.2c0,0-0.1-0.1-0.3-0.2c0,0,0,0-0.1,0l0,0l0,0l0,0c0,0,0,0-0.1,0h-0.1c-0.1,0-0.1,0-0.2,0c0,0-0.1,0-0.1-0.1
		s-0.1-0.1-0.1-0.1c-0.1,0-0.1,0.1-0.1,0l0,0v-0.1c0,0,0,0-0.1,0s0,0-0.1,0c0,0,0,0,0-0.1l0,0h0l-0.1-0.1c0,0-0.1,0-0.2-0.1
		c-0.1,0-0.1-0.1-0.2,0l-0.1-0.1c-0.1,0-0.1-0.1-0.1-0.1c-0.1,0-0.1,0-0.2-0.1c-0.1,0-0.2,0-0.3-0.1c0,0-0.1,0-0.2,0.1l0,0
		c0,0,0,0,0-0.1c0,0-0.1,0-0.2,0l0,0l0,0C82.2,51,82.1,50.9,82,51c-0.1-0.1-0.2-0.2-0.3-0.2c0,0-0.1,0-0.2-0.1c0,0-0.1,0-0.1-0.1
		c0,0-0.1,0.1-0.1,0.2c0,0.1,0,0.2,0,0.3c0,0,0,0,0,0.1l0,0c0,0,0,0,0,0.1v0.1c0,0.3,0,0.4,0.1,0.5v0.3v0.1c0,0,0,0.1,0.1,0.1v0.1
		c0,0.1,0,0.1,0,0.1s0,0.1,0.1,0.1c0,0,0,0.1,0.1,0.1c0,0,0,0.1,0,0.2c0,0.1,0,0.2,0,0.2l0,0l0,0c0,0.2,0,0.3,0,0.3
		c0,0.1,0,0.1,0.1,0.3c0,0,0,0.1,0,0.2c0,0.1,0,0.2,0,0.2s0,0,0.1,0c0,0,0,0,0,0.1c0,0,0,0.1-0.1,0.2c0,0,0,0,0,0.1c0,0,0,0.1,0,0.3
		c0,0.1,0,0.2,0,0.4s0,0.3,0,0.3s0,0,0,0.1l0,0c0,0,0,0,0,0.1c0,0-0.1,0.1-0.1,0.2c0,0.1-0.1,0.1-0.1,0.1s-0.1,0-0.2,0
		c-0.2,0-0.3,0.1-0.3,0.3l0,0l0,0c0,0,0,0,0,0.1l0,0c0,0,0,0,0-0.1c0,0-0.1,0-0.2,0s-0.1,0.1-0.1,0.1c0-0.1,0-0.1-0.1-0.2
		c-0.1,0-0.2-0.1-0.3-0.3h-0.1h-0.1c0-0.1,0-0.2-0.1-0.3s-0.2-0.1-0.2-0.2l0,0l0,0c0-0.1,0-0.1,0.1-0.2v-0.1v-0.1c0,0,0,0,0-0.1
		c0,0,0,0-0.1-0.1c0,0,0,0-0.1,0c0,0,0-0.1,0.1-0.1c0.1-0.2,0.1-0.3,0-0.3v-0.3c0,0,0.1-0.1,0.1-0.2c0-0.1,0-0.2-0.1-0.2
		c0-0.1,0-0.2,0-0.3s0-0.2,0-0.2s0-0.1-0.1-0.1c0,0,0-0.1,0-0.3c0-0.1,0-0.2-0.1-0.3c0,0,0-0.1,0-0.2c0-0.1,0-0.1,0-0.2v-0.1V52
		c0,0,0-0.1,0-0.2c0-0.1,0-0.2,0-0.3c0,0,0-0.1-0.1-0.2c0-0.1,0-0.1-0.1-0.1c0,0,0-0.1,0-0.3c0-0.1,0-0.2,0-0.2c0-0.1,0-0.1-0.1-0.2
		c0,0,0-0.1,0-0.3c0,0,0,0,0-0.1s0,0,0-0.1v-0.1c0-0.1,0-0.1,0-0.1s0,0,0-0.1l0,0c0-0.1,0-0.1,0-0.3c0-0.1,0-0.2,0-0.2
		s0-0.1-0.1-0.1c0,0,0-0.1,0-0.2c0-0.1,0-0.1,0-0.2v-0.1v-0.1v-0.1v-0.1v-0.1c0,0,0,0,0-0.1c0,0,0,0,0-0.1s-0.1-0.1-0.2-0.1v-0.1
		l0,0l0,0v-0.1c0,0,0-0.1,0-0.3c0-0.1,0-0.3,0-0.3L79,47c0,0,0,0,0-0.1v-0.1c0,0,0,0,0-0.1c0,0,0,0,0-0.1s-0.1-0.2-0.1-0.2v-0.1
		c0,0,0-0.1,0-0.3c0,0,0-0.1,0-0.2c0-0.1,0-0.1,0-0.1s0,0,0-0.1c0,0,0,0,0-0.1c0,0,0,0,0-0.1l0,0v-0.1c0-0.1,0-0.2,0-0.2
		c0-0.1-0.1-0.2-0.1-0.3s0-0.2,0-0.2l0,0c0,0,0,0-0.1,0c0,0,0,0,0-0.1l0,0c0,0,0-0.1,0-0.2c0-0.1,0-0.2,0-0.2V44c0-0.1,0-0.2,0-0.2
		s0,0-0.1,0l0,0l0,0l0,0c0,0,0-0.1,0-0.2c0-0.1,0-0.2,0-0.2l0,0l0,0v-0.1c0-0.1,0-0.1,0-0.1c-0.1,0-0.2,0-0.3-0.1
		c-0.1,0-0.2,0-0.2,0L77.9,43c0-0.1-0.1-0.1-0.2-0.1l-0.1-0.1c0-0.1-0.1-0.1-0.1-0.2c-0.1-0.1-0.2-0.1-0.2-0.2
		c0-0.1-0.1-0.1-0.1-0.2c0-0.1,0-0.2,0-0.3s0-0.2,0-0.3c0,0,0-0.1,0.1-0.2c0.1-0.1,0.1-0.2,0.1-0.2c0-0.1,0.1-0.1,0.1-0.1l0,0l0,0
		c0,0,0.1,0,0.2,0C77.1,41.4,77.2,41.3,77.2,41.3z M80.9,43.7c0,0-0.1,0-0.2,0s-0.2,0-0.3,0c-0.1,0-0.2,0-0.3,0c0,0,0,0.1,0,0.3
		c0,0,0,0,0,0.1v0.1c0,0,0,0.1,0.1,0.2c0,0.1,0.1,0.1,0.1,0.1s0,0,0,0.1c0,0,0,0,0,0.1c0,0,0,0.1,0,0.2c0,0.1,0,0.2,0,0.3
		c0.1,0,0.1,0.1,0.1,0.3c0,0.1,0,0.1,0,0.2v0.1c0,0.1,0,0.1,0,0.1s0,0.1,0,0.2c0,0.1,0,0.1,0,0.1c0,0.1,0,0.2,0,0.2s0,0,0,0.1
		c0,0,0,0,0,0.1c0,0,0,0.1,0,0.2v0.1V47c0,0,0,0,0,0.1v0.1c0,0,0,0.1,0,0.2c0,0.1,0,0.2,0,0.2s0,0,0,0.1l0,0c0,0,0,0.1,0,0.2
		c0,0.1,0,0.2,0.1,0.2c-0.1,0.1-0.1,0.2,0,0.3c0,0.1,0,0.1,0.1,0.2c0,0,0.1,0,0.2,0s0.2,0,0.2,0s0,0,0-0.1c0,0,0,0,0.1,0h0.1h0.1
		h0.1c0.1,0,0.2-0.1,0.3-0.1h0.1c0,0,0.1-0.1,0.3-0.1c0.1,0,0.1,0,0.2,0s0.1-0.1,0.2-0.1l0.1-0.1c0,0,0,0,0.1,0s0.1-0.1,0.2-0.1
		c0.1-0.1,0.1-0.1,0.1-0.1c0.1,0,0.2-0.1,0.3-0.2c0.1-0.1,0.2-0.2,0.3-0.2c0.2-0.2,0.3-0.3,0.4-0.3c0-0.1,0.1-0.1,0.1-0.2
		c0.1-0.1,0.1-0.1,0.1-0.1c0.1,0,0.2-0.2,0.3-0.3c0.1-0.2,0.1-0.3,0.2-0.3c0-0.1,0-0.1,0.1-0.2c0.1-0.1,0.1-0.2,0-0.2
		c0.1-0.1,0.2-0.3,0.1-0.4c0,0,0-0.1,0-0.3c0,0-0.1-0.1-0.2-0.1c-0.1-0.1-0.2-0.1-0.2-0.2h-0.1c-0.1,0-0.1,0-0.2,0
		c0-0.1-0.1-0.1-0.2-0.1s-0.1,0-0.1,0s0,0-0.1,0S84,44,84,44s0,0-0.1,0h-0.1c0,0-0.1,0-0.1-0.1c0,0-0.1-0.1-0.2,0
		c-0.1,0-0.2,0-0.2,0c-0.2-0.1-0.3-0.1-0.3,0c0-0.1-0.2-0.1-0.4-0.1c-0.1,0-0.2,0-0.2,0c-0.1,0-0.2,0-0.2,0s0,0-0.1,0
		c0,0,0,0-0.1-0.1c-0.2,0-0.3,0-0.3,0h-0.1c0,0-0.1,0-0.4,0c0,0,0,0-0.1,0H81C81.2,43.6,81.1,43.6,80.9,43.7z M80.3,43.7
		c0,0,0,0.1,0,0.3c0,0,0,0,0,0.1v0.1c0,0,0,0.1,0.1,0.2c0,0.1,0.1,0.1,0.1,0.1s0,0,0,0.1c0,0,0,0,0,0.1c0,0,0,0.1,0,0.2
		c0,0.1,0,0.2,0,0.3c0.1,0,0.1,0.1,0.1,0.3c0,0.1,0,0.1,0,0.2v0.1c0,0.1,0,0.1,0,0.1s0,0.1,0,0.2c0,0.1,0,0.1,0,0.1
		c0,0.1,0,0.2,0,0.2s0,0,0,0.1c0,0,0,0,0,0.1c0,0,0,0.1,0,0.2v0.1V47c0,0,0,0,0,0.1v0.1c0,0,0,0.1,0,0.2c0,0.1,0,0.2,0,0.2
		s0,0,0,0.1l0,0c0,0,0,0.1,0,0.2c0,0.1,0,0.2,0.1,0.2c-0.1,0.1-0.1,0.2,0,0.3c0,0.1,0,0.1,0.1,0.2c0,0,0.1,0,0.2,0s0.2,0,0.2,0
		s0,0,0-0.1c0,0,0,0,0.1,0h0.1h0.1h0.1c0.1,0,0.2-0.1,0.3-0.1H82c0,0,0.1-0.1,0.3-0.1c0.1,0,0.1,0,0.2,0s0.1-0.1,0.2-0.1l0.1-0.1
		c0,0,0,0,0.1,0S83,48,83.1,48c0.1-0.1,0.1-0.1,0.1-0.1c0.1,0,0.2-0.1,0.3-0.2c0.1-0.1,0.2-0.2,0.3-0.2c0.2-0.2,0.3-0.3,0.4-0.3
		c0-0.1,0.1-0.1,0.1-0.2c0.1-0.1,0.1-0.1,0.1-0.1c0.1,0,0.2-0.2,0.3-0.3c0.1-0.2,0.1-0.3,0.2-0.3c0-0.1,0-0.1,0.1-0.2
		c0.1-0.1,0.1-0.2,0-0.2c0.1-0.1,0.2-0.3,0.1-0.4c0,0,0-0.1,0-0.3c0,0-0.1-0.1-0.2-0.1c-0.1-0.1-0.2-0.1-0.2-0.2h-0.1
		c-0.1,0-0.1,0-0.2,0c0-0.1-0.1-0.1-0.2-0.1s-0.1,0-0.1,0s0,0-0.1,0s0-0.8,0-0.8s0,0-0.1,0h-0.1c0,0-0.1,0-0.1-0.1
		c0,0-0.1-0.1-0.2,0c-0.1,0-0.2,0-0.2,0c-0.2-0.1-0.3-0.1-0.3,0c0-0.1-0.2-0.1-0.4-0.1c-0.1,0-0.2,0-0.2,0c-0.1,0-0.2,0-0.2,0
		s0,0-0.1,0c0,0,0,0-0.1-0.1c-0.2,0-0.3,0-0.3,0h-0.1c0,0-0.1,0-0.4,0c0,0,0,0-0.1,0H81c-0.1,0-0.2,0-0.3,0c0,0-0.1,0-0.2,0
		S80.3,43.7,80.3,43.7C80.4,43.7,80.3,43.7,80.3,43.7z M91.7,55.6L91.7,55.6C91.7,55.5,91.7,55.5,91.7,55.6
		C91.7,55.5,91.7,55.5,91.7,55.6C91.7,55.5,91.7,55.6,91.7,55.6z M91.7,55.5L91.7,55.5C91.7,55.5,91.7,55.6,91.7,55.5
		C91.7,55.6,91.7,55.6,91.7,55.5L91.7,55.5z"/>
</g>
</svg>
