<?xml version="1.0" encoding="utf-8"?>
<!-- Generator: Adobe Illustrator 19.0.1, SVG Export Plug-In . SVG Version: 6.00 Build 0)  -->
<svg version="1.1" id="Layer_1" xmlns="http://www.w3.org/2000/svg" xmlns:xlink="http://www.w3.org/1999/xlink" x="0px" y="0px"
	 viewBox="0 0 100 100" enable-background="new 0 0 100 100" xml:space="preserve">
<g>
	<path fill="#54813B" d="M40.9,39.5h0.2c0,0.1,0,0.1,0.1,0.2c0.1,0.1,0.2,0.2,0.2,0.2c0,0.2,0.1,0.3,0.2,0.4c0,0,0,0,0,0.1
		s0,0.1,0,0.1s0,0.1,0.1,0.1l0.1,0.1c0,0,0,0,0,0.1v0.1l0.1,0.1v0.1c0,0,0,0.1-0.1,0.1c0,0.1,0,0.1,0,0.2c-0.1,0-0.1,0.1-0.1,0.1
		s0,0.1,0,0.2c0,0.1-0.1,0.2-0.3,0.2L41.3,42c0,0.1-0.1,0.1-0.1,0.1c-0.1,0-0.1,0-0.1,0s0,0.1-0.1,0.1h-0.1c0,0-0.1,0-0.2,0h-0.1
		c-0.1,0-0.1,0-0.1,0c-0.1,0-0.2-0.1-0.3-0.2h-0.1c-0.1-0.1-0.2-0.1-0.4-0.1h-0.1h-0.1c0,0,0,0-0.1,0L39.3,42c0,0-0.1,0-0.2,0
		c0,0-0.1,0.1-0.2,0.2h-0.1l0,0c0,0,0,0-0.1,0.1h-0.1c0,0,0,0-0.1,0c0,0.1,0,0.1,0,0.1c-0.2,0-0.3,0-0.3,0.2c-0.1,0-0.1,0-0.2,0
		c-0.2,0.2-0.4,0.3-0.5,0.4h-0.1c0,0-0.1,0.1-0.3,0.2c-0.1,0.1-0.3,0.2-0.3,0.3s0,0.1,0,0.2s-0.1,0.1-0.1,0.1h-0.1h-0.1
		c-0.1,0.1-0.2,0.2-0.4,0.4s-0.3,0.4-0.5,0.5v0.1C35.5,45,35.5,45,35.4,45c0,0.1,0,0.1,0,0.1c-0.1,0.1-0.2,0.2-0.3,0.3
		s-0.2,0.2-0.2,0.3v0.1h-0.1h-0.1c0,0.1,0,0.2-0.1,0.3s-0.2,0.2-0.2,0.2v0.1v0.1c0,0,0,0.1-0.1,0.1c-0.1,0.1-0.1,0.2-0.1,0.2
		c0,0.1-0.1,0.2-0.2,0.4c-0.1,0.1-0.1,0.1-0.1,0.1v0.1c0,0,0,0,0,0.1s-0.1,0.2-0.1,0.3c-0.1,0.2-0.1,0.3-0.1,0.3
		c-0.1,0.2-0.2,0.3-0.2,0.3v0.1v0.1c0,0,0,0,0,0.1v0.1c0,0,0,0.1,0,0.2s0,0.2-0.1,0.2c0,0.1-0.1,0.1-0.1,0.2c0,0.1,0,0.2,0,0.2
		c-0.1,0.1-0.1,0.2-0.1,0.2v0.1V50c0,0.1,0,0.1,0,0.1v0.1v0.1c0,0,0,0,0,0.1v0.1c0,0,0,0,0,0.1s0,0.1,0,0.1v0.1c0,0.1,0,0.1,0,0.1
		l0,0l0,0c0,0.1-0.1,0.3-0.1,0.5s0,0.4-0.1,0.6c0,0.1,0,0.1,0,0.3c0,0.1,0,0.2,0.1,0.2v0.1c0,0.1,0,0.1,0,0.1c0,0.1,0.1,0.1,0.1,0.1
		c0,0.1,0,0.1,0,0.1s0,0,0,0.1v0.1v0.1v0.1v0.1v0.1c0,0,0,0,0,0.1s0,0.1,0,0.1s0,0.1,0.1,0.2c0.1,0.2,0.2,0.4,0.1,0.5l0.1,0.1v0.1
		v0.1l0.1,0.1l0.1,0.1c0.1,0.2,0.2,0.2,0.2,0.3c0,0,0,0,0.1,0c0.1,0.2,0.2,0.3,0.3,0.4c0,0,0.1,0.2,0.2,0.4h0.1l0.1,0.1
		c0.1,0.2,0.1,0.2,0.1,0.2s0.1,0,0.2-0.1c0.1,0,0.1,0,0.2,0c0,0,0,0.1,0,0.2c0.2,0.1,0.3,0.1,0.4,0.1c0,0.1,0.1,0.1,0.2,0.1
		c0.1,0,0.2,0.1,0.2,0.1s0.1,0,0.2,0c0.1,0,0.2,0,0.2,0s0,0,0,0.1c0,0,0,0.1,0.1,0.1c0.2,0,0.4,0,0.4-0.1c0,0,0.1,0,0.2,0
		s0.1,0,0.2,0c0,0.1,0,0.2,0.2,0.2c0.2,0.1,0.4,0,0.5-0.1v-0.1c0,0,0,0,0-0.1c0,0,0.1,0,0.2,0.1c0.2,0,0.4,0,0.5-0.1
		c0.3,0.1,0.5,0,0.7-0.1c0.1,0,0.2-0.1,0.3-0.2c0.2,0,0.4,0,0.6,0v-0.1h0.1c0,0,0.1,0,0.2,0c0.2,0,0.2,0,0.3-0.1
		c0.1,0,0.1,0,0.2-0.1c0.1,0,0.1-0.1,0.1-0.1h0.1c0,0,0.1,0,0.2-0.1c0.1-0.1,0.2-0.1,0.2-0.1c0.1-0.1,0.3-0.2,0.5-0.3
		s0.4-0.3,0.5-0.4c0.1,0,0.1,0,0.2,0c0,0,0,0,0-0.1v-0.1c0.2,0,0.3-0.1,0.3-0.3c0,0,0.1,0,0.2,0c0,0,0.1,0,0.2-0.1
		c0.1,0,0.2-0.1,0.3-0.2c0.1-0.1,0.2-0.2,0.3-0.3s0.1-0.1,0.2-0.1c0.1-0.1,0.1-0.2,0.2-0.2h0.1c0.1,0,0.1-0.1,0-0.3
		s-0.1-0.3-0.1-0.3c0.1-0.1,0.1-0.1,0.1-0.1c-0.1,0-0.4-0.1-0.9-0.1c-0.3,0-0.5,0-0.6,0c0,0-0.1,0-0.4,0h-0.1h-0.1
		c-0.1,0-0.2,0-0.5,0c-0.2,0-0.4,0-0.5,0c0,0,0,0.1-0.1,0.1h-0.1c-0.1,0-0.1,0-0.1,0c-0.2-0.1-0.6-0.2-1.2-0.1H40l-0.1-0.1h-0.1
		c-0.1,0-0.1,0-0.2,0c-0.1,0-0.1,0-0.1,0s-0.1-0.1-0.2-0.1C39,53,39,53,39,53c-0.1,0-0.2-0.1-0.3-0.2c-0.1-0.1-0.1-0.2-0.2-0.2h-0.2
		c-0.3-0.3-0.6-0.6-0.6-0.7c0,0,0-0.1-0.1-0.2c0-0.2,0.1-0.3,0.2-0.5c0.1,0,0.2,0,0.2-0.1c0-0.2,0.2-0.5,0.5-0.7
		c0.2,0,0.3-0.1,0.4-0.2c0.1,0,0.2,0,0.3,0c0.2,0,0.3,0,0.3,0h0.1h0.1h0.1c0.1,0.1,0.2,0.1,0.3,0.1c0.5,0.1,0.8,0.1,0.9,0h0.1h0.1
		h0.1c0,0.1,0.1,0.2,0.2,0.2c0.1,0,0.2-0.1,0.2-0.2h0.1h0.1c0,0,0,0,0,0.1s0,0.1,0,0.1c0.1,0,0.2,0,0.4,0s0.4,0,0.5,0
		c0.5,0,0.8,0,0.9-0.1c0.1,0,0.3,0,0.6,0s0.5,0,0.6,0s0.1-0.1,0.2-0.1c0.1,0,0.2-0.1,0.2-0.1l0,0l0,0c0.1,0,0.2,0,0.3,0s0.2,0,0.3,0
		s0.1-0.1,0.2-0.2c0.1-0.1,0.1-0.1,0.1-0.2c0.1,0,0.1,0,0.2,0.1c0.1,0,0.1,0.1,0.1,0.1l0.1-0.1c0.1,0,0.1,0,0.2,0c0.1,0,0.1,0,0.2,0
		c0.1,0,0.1-0.1,0.2-0.1c0.1,0,0.1-0.1,0.2-0.1l0.2,0.1c0.1,0,0.3,0,0.4,0.1c0.1,0.1,0.3,0.1,0.3,0.1v-0.1c0.1,0,0.1,0,0.1,0V50
		c0,0,0.1,0,0.1,0.1c0.1,0.1,0.1,0.2,0.1,0.2c0.1,0,0.2,0.2,0.5,0.5C49,50.9,49,50.9,49,51h0.1c0.1,0.1,0.1,0.2,0.1,0.6
		c0,0,0,0.1,0.1,0.1c0,0.1,0,0.1,0,0.2c0,0.1-0.1,0.1-0.1,0.1v0.1c0,0.1,0,0.1,0,0.1v0.1c0,0,0,0.1,0,0.2c0,0.3,0,0.6,0,0.6h0.1
		c0,0,0,0.1,0,0.2c0,0.1,0,0.1,0,0.2c0,0.1-0.1,0.1-0.1,0c0,0.1,0,0.2,0,0.3s0,0.2,0,0.3c0,0,0,0.1-0.1,0.2c0,0,0,0.2,0,0.5
		s0,0.5,0.1,0.5c-0.1,0.1-0.1,0.1-0.1,0.1c0,0.1,0,0.2,0,0.4s0,0.4,0,0.5c0,0.2,0,0.4,0.1,0.4c-0.1,0.1-0.1,0.3-0.1,0.5s0,0.4,0,0.6
		c0,0.4,0,0.7,0,0.7c0,0.1-0.1,0.2-0.2,0.3L49,59c0,0.2,0,0.3,0,0.4c0,0.1,0,0.3,0,0.4c0,0.2,0,0.3,0.1,0.3h0.1c0,0.5,0,0.7-0.1,0.7
		c0,0.1,0,0.3,0,0.4c0,0.1-0.1,0.2-0.1,0.3c-0.1,0-0.2,0.1-0.3,0.3c0,0,0,0.1-0.1,0.1c-0.1,0.1-0.2,0.1-0.2,0.2
		c-0.1,0-0.2,0-0.3,0.1s-0.2,0.1-0.3,0l-0.1,0.1l-0.1,0.1c0,0-0.1,0-0.1-0.1v-0.1c-0.1,0-0.2,0-0.4-0.1s-0.3-0.2-0.4-0.2
		c-0.1-0.2-0.1-0.2-0.1-0.2c-0.1,0-0.1,0-0.1,0s0-0.1,0-0.2c0-0.1-0.1-0.1-0.2-0.1c-0.1,0-0.2-0.1-0.2-0.1L46,61.2
		c0-0.1,0-0.1-0.1-0.1c0-0.2-0.1-0.4-0.1-0.4h-0.1v-0.5c0,0,0,0,0.1,0c0-0.2,0-0.6,0-1.3c0-0.4-0.1-0.7-0.1-0.7c-0.1,0-0.1,0-0.1,0
		s0-0.2,0-0.4c0-0.3,0-0.4,0-0.5c0.1,0,0.1-0.1,0.1-0.2c0-0.1,0-0.2-0.1-0.2c0,0-0.1,0.1-0.2,0.2c-0.1,0.1-0.2,0.2-0.2,0.2v0.1h-0.1
		c0,0,0,0-0.1,0s-0.2,0.1-0.2,0.1c-0.1,0-0.1,0-0.2,0.1c0,0,0,0,0,0.1h-0.1c-0.2,0.1-0.3,0.2-0.3,0.2s0,0-0.1,0s-0.1,0-0.1,0
		s-0.1,0.1-0.2,0.2c-0.1,0.1-0.2,0.1-0.2,0.2c-0.1,0-0.2,0.1-0.2,0.1c0,0.1,0,0.1,0,0.1s-0.1,0-0.2-0.1c-0.2,0-0.3,0.1-0.4,0.3
		c-0.2,0.1-0.4,0.2-0.7,0.4c0,0.1,0,0.1,0,0.1H42c0,0-0.1,0-0.2,0c0,0,0,0.1-0.1,0.1h-0.1c0,0,0,0-0.1,0h-0.1l-0.1,0.1h-0.1
		c-0.1,0-0.1,0-0.1,0c-0.2,0.1-0.4,0.2-0.4,0.2c-0.2,0.2-0.3,0.2-0.3,0.3c-0.3,0-0.5,0-0.5,0c0,0.1,0,0.1,0,0.1
		c-0.3-0.1-0.5-0.1-0.6,0c0,0.1,0,0.1,0,0.1h-0.1h-0.1c-0.1,0-0.1,0.1-0.1,0.2c-0.1,0.1-0.1,0-0.2,0c-0.1-0.1-0.2-0.1-0.2-0.1h-0.1
		h-0.1c0,0,0,0.1,0.1,0.1c-0.3,0.1-0.5,0.1-0.6,0s-0.1-0.1-0.1-0.1c-0.1,0-0.2,0-0.4,0s-0.4,0-0.5,0h-0.1c0,0,0,0-0.1,0
		s-0.1,0-0.1,0s0,0-0.1,0h-0.1l0,0H36v-0.1c0,0,0,0,0-0.1c-0.1-0.1-0.2-0.1-0.3,0c-0.1,0-0.2,0-0.2,0l0.4,0h-0.1c-0.1,0-0.1,0-0.1,0
		l0,0v-0.1c0,0-0.1,0-0.2,0c-0.1,0-0.1,0-0.2,0c-0.1-0.2-0.2-0.2-0.4-0.2h-0.1c0,0,0,0-0.1,0s-0.3-0.1-0.6-0.3c0,0-0.1,0-0.3-0.1
		h-0.1h-0.1v-0.1c-0.1,0-0.2-0.1-0.5-0.3s-0.4-0.4-0.5-0.5c-0.2-0.2-0.3-0.3-0.3-0.3c-0.3-0.1-0.6-0.4-0.7-0.7
		c-0.1-0.2-0.3-0.3-0.5-0.3c0-0.1-0.1-0.2-0.2-0.4c0-0.1,0-0.2-0.1-0.3s-0.1-0.1-0.1-0.2c-0.2-0.2-0.3-0.3-0.3-0.3v-0.1v-0.1
		c0,0-0.1-0.1-0.2-0.3s-0.1-0.3-0.1-0.4v-0.1L30,54.8c0-0.1,0-0.2-0.1-0.4v-0.1v-0.1c-0.1-0.2-0.1-0.2,0-0.3c0-0.1-0.1-0.2-0.2-0.3
		v-0.1v-0.1c0,0,0-0.1-0.1-0.2c-0.1-0.1-0.1-0.2-0.1-0.2c0-0.2,0-0.3,0-0.3c-0.1,0-0.1,0-0.1,0c-0.1-0.2,0-0.2,0-0.2
		c0-0.1,0-0.2,0-0.3c0-0.2,0-0.3-0.1-0.4v-0.4h0.1h0.1c0-0.1,0-0.2-0.1-0.3c0.1,0,0.1-0.2,0-0.4v-0.1c0-0.1,0-0.1,0-0.1s0,0,0-0.1
		s0-0.1,0-0.1v-0.1c0,0,0,0,0-0.1V50v-0.1c0,0,0.1-0.1,0.2-0.1c0-0.2,0-0.4,0-0.4c0.1-0.1,0.1-0.2,0.1-0.3V49v-0.1
		c0,0,0-0.1,0.1-0.2c0-0.1,0-0.1,0-0.2c0-0.1,0-0.2,0-0.2v-0.1c0.1-0.2,0.2-0.3,0.3-0.4c0-0.1,0-0.2,0.1-0.3c0-0.1,0-0.1,0-0.1
		c0-0.1,0-0.1,0-0.1l0.1-0.1c0-0.1,0.1-0.1,0.1-0.1V47c0-0.1,0-0.1,0.1-0.2c0-0.1,0.1-0.2,0.1-0.2l0.1-0.1c0,0,0.1,0,0.1-0.1v-0.1
		v-0.1c0-0.1,0-0.1,0.1-0.2c0.1-0.1,0.1-0.1,0.2-0.2v-0.1c0-0.1,0-0.1,0-0.1c0-0.1,0-0.1,0.1-0.2c0.1,0,0.1-0.1,0.1-0.1
		c-0.1-0.2,0-0.3,0.2-0.4c0.1,0,0.1-0.1,0.1-0.1c0-0.1,0.1-0.2,0.2-0.4s0.2-0.3,0.2-0.3c0.1-0.1,0.2-0.1,0.2-0.2l0.1-0.1l0.1-0.1
		c0-0.1,0-0.1,0-0.1c0-0.1,0.1-0.1,0.2-0.2c0.1-0.1,0.2-0.2,0.3-0.3s0.1-0.2,0.2-0.3c0,0,0.1-0.1,0.2-0.1C33.9,42.1,34,42,34,42
		c0.1-0.1,0.2-0.2,0.2-0.3c0-0.2,0.1-0.3,0.2-0.3c0.1,0,0.1,0,0.1,0c0.2-0.1,0.3-0.2,0.4-0.2v-0.1V41c0,0,0.1-0.1,0.2-0.1
		c0.1,0,0.2-0.1,0.2-0.2v-0.1c0,0,0,0,0-0.1c0,0,0,0,0.1,0s0.1,0,0.2,0c0-0.2,0-0.3,0.1-0.4s0.2-0.1,0.3,0c0.1-0.1,0.1-0.2,0-0.2
		l0.1-0.1l0.1-0.1c0.1,0,0.2,0,0.3-0.1s0.2-0.1,0.3-0.1c-0.1-0.1-0.1-0.2,0-0.2c0,0,0.1,0,0.1,0.1c0,0,0.1-0.1,0.1-0.2
		c0.1,0,0.2,0,0.2,0c0-0.1,0-0.1,0-0.2c0.1,0,0.1,0,0.2,0s0.2,0,0.2,0v-0.1v-0.1h0.1c0,0,0.1,0,0.2,0c0,0,0.1,0,0.1-0.1
		s0.1-0.1,0.1-0.1c0.1-0.1,0.2-0.1,0.4-0.1c0.1,0,0.2,0,0.3,0l0.1,0.1H39c0.1,0,0.1,0,0.2,0l0.1-0.1c0.3-0.1,0.4,0,0.5,0.1
		c0.1,0,0.2,0.1,0.3,0.2c0.1,0,0.2,0,0.4,0.2l0.1,0.1c0,0,0.1,0,0.1,0.1c0,0,0.1,0,0.1,0.1C40.9,39.4,40.9,39.4,40.9,39.5z
		 M41.1,39.5c0,0.1,0,0.1,0.1,0.2c0.1,0.1,0.2,0.2,0.2,0.2c0,0.2,0.1,0.3,0.2,0.4c0,0,0,0,0,0.1s0,0.1,0,0.1s0,0.1,0.1,0.1l0.1,0.1
		c0,0,0,0,0,0.1v0.1l0.1,0.1v0.1c0,0,0,0.1-0.1,0.1c0,0.1,0,0.1,0,0.2c-0.1,0-0.1,0.1-0.1,0.1s0,0.1,0,0.2c0,0.1-0.1,0.2-0.3,0.2
		L41.3,42c0,0.1-0.1,0.1-0.1,0.1c-0.1,0-0.1,0-0.1,0s0,0.1-0.1,0.1h-0.1c0,0-0.1,0-0.2,0h-0.1c-0.1,0-0.1,0-0.1,0
		c-0.1,0-0.2-0.1-0.3-0.2h-0.1c-0.1-0.1-0.2-0.1-0.4-0.1h-0.1h-0.1c0,0,0,0-0.1,0L39.3,42c0,0-0.1,0-0.2,0c0,0-0.1,0.1-0.2,0.2h-0.1
		l0,0c0,0,0,0-0.1,0.1h-0.1c0,0,0,0-0.1,0c0,0.1,0,0.1,0,0.1c-0.2,0-0.3,0-0.3,0.2c-0.1,0-0.1,0-0.2,0c-0.2,0.2-0.4,0.3-0.5,0.4
		h-0.1c0,0-0.1,0.1-0.3,0.2c-0.1,0.1-0.3,0.2-0.3,0.3s0,0.1,0,0.2s-0.1,0.1-0.1,0.1s-0.1,0-0.2,0.1c-0.1,0.1-0.2,0.2-0.4,0.4
		s-0.3,0.4-0.5,0.5v0.1C35.5,45,35.5,45,35.4,45c0,0.1,0,0.1,0,0.1c-0.1,0.1-0.2,0.2-0.3,0.3s-0.2,0.2-0.2,0.3v0.1h-0.1h-0.1
		c0,0.1,0,0.2-0.1,0.3s-0.2,0.2-0.2,0.2v0.1v0.1c0,0,0,0.1-0.1,0.1c-0.1,0.1-0.1,0.2-0.1,0.2c0,0.1-0.1,0.2-0.2,0.4
		c-0.1,0.1-0.1,0.1-0.1,0.1v0.1c0,0,0,0,0,0.1s-0.1,0.2-0.1,0.3c-0.1,0.2-0.1,0.3-0.1,0.3c-0.1,0.2-0.2,0.3-0.2,0.3v0.1v0.1
		c0,0,0,0,0,0.1v0.1c0,0,0,0.1,0,0.2s0,0.2-0.1,0.2c0,0.1-0.1,0.1-0.1,0.2c0,0.1,0,0.2,0,0.2c-0.1,0.1-0.1,0.2-0.1,0.2v0.1V50
		c0,0.1,0,0.1,0,0.1v0.1v0.1c0,0,0,0,0,0.1v0.1c0,0,0,0,0,0.1s0,0.1,0,0.1v0.1c0,0.1,0,0.1,0,0.1l0,0l0,0c0,0.1-0.1,0.3-0.1,0.5
		s0,0.4-0.1,0.6c0,0.1,0,0.1,0,0.3c0,0.1,0,0.2,0.1,0.2v0.1c0,0.1,0,0.1,0,0.1c0,0.1,0.1,0.1,0.1,0.1c0,0.1,0,0.1,0,0.1s0,0,0,0.1
		v0.1v0.1v0.1v0.1v0.1c0,0,0,0,0,0.1s0,0.1,0,0.1s0,0.1,0.1,0.2c0.1,0.2,0.2,0.4,0.1,0.5l0.1,0.1v0.1v0.1l0.1,0.1l0.1,0.1
		c0.1,0.2,0.2,0.2,0.2,0.3c0,0,0,0,0.1,0c0.1,0.2,0.2,0.3,0.3,0.4c0,0,0.1,0.2,0.2,0.4h0.1l0.1,0.1c0.1,0.2,0.1,0.2,0.1,0.2
		s0.1,0,0.2-0.1c0.1,0,0.1,0,0.2,0c0,0,0,0.1,0,0.2c0.2,0.1,0.3,0.1,0.4,0.1c0,0.1,0.1,0.1,0.2,0.1c0.1,0,0.2,0.1,0.2,0.1
		s0.1,0,0.2,0c0.1,0,0.2,0,0.2,0s0,0,0,0.1c0,0,0,0.1,0.1,0.1c0.2,0,0.4,0,0.4-0.1c0,0,0.1,0,0.2,0s0.1,0,0.2,0c0,0.1,0,0.2,0.2,0.2
		c0.2,0.1,0.4,0,0.5-0.1v-0.1c0,0,0,0,0-0.1c0,0,0.1,0,0.2,0.1c0.2,0,0.4,0,0.5-0.1c0.3,0.1,0.5,0,0.7-0.1c0.1,0,0.2-0.1,0.3-0.2
		c0.2,0,0.4,0,0.6,0v-0.1h0.1c0,0,0.1,0,0.2,0c0.2,0,0.2,0,0.3-0.1c0.1,0,0.1,0,0.2-0.1c0.1,0,0.1-0.1,0.1-0.1h0.1
		c0,0,0.1,0,0.2-0.1c0.1-0.1,0.2-0.1,0.2-0.1c0.1-0.1,0.3-0.2,0.5-0.3s0.4-0.3,0.5-0.3s0.1,0,0.2,0c0,0,0,0,0-0.1V55
		c0.2,0,0.3-0.1,0.3-0.3c0,0,0.1,0,0.2,0h0.1l0.1-0.1c0.1,0,0.2-0.1,0.3-0.2c0.1-0.1,0.2-0.2,0.3-0.3s0.1-0.1,0.2-0.1
		c0.1-0.1,0.1-0.2,0.2-0.2h0.1c0.1,0,0.1-0.1,0-0.3s-0.1-0.3-0.1-0.3c0.1-0.1,0.1-0.1,0.1-0.1c-0.1,0-0.4-0.1-0.9-0.1
		c-0.3,0-0.5,0-0.6,0c0,0-0.1,0-0.4,0h-0.1h-0.1c-0.1,0-0.2,0-0.5,0c-0.2,0-0.4,0-0.5,0c0,0,0,0.1-0.1,0.1h-0.1c-0.1,0-0.1,0-0.1,0
		c-0.2-0.1-0.6-0.2-1.2-0.1H40c0,0-0.1,0-0.1-0.1l-0.1-0.1c-0.1,0-0.1,0-0.2,0c-0.1,0-0.1,0-0.1,0s-0.1-0.1-0.2-0.1
		C39,53,39,53,39,53c-0.1,0-0.2-0.1-0.3-0.2c-0.1-0.1-0.1-0.2-0.2-0.2h-0.2c-0.3-0.3-0.6-0.6-0.6-0.7c0,0,0-0.1-0.1-0.2
		c0-0.2,0.1-0.3,0.2-0.5c0.1,0,0.2,0,0.2-0.1c0-0.2,0.2-0.5,0.5-0.7c0.2,0,0.3-0.1,0.4-0.2c0.1,0,0.2,0,0.3,0c0.2,0,0.3,0,0.3,0h0.1
		h0.1h0.1c0.1,0.1,0.2,0.1,0.3,0.1c0.5,0.1,0.8,0.1,0.9,0h0.1h0.1h0.1c0,0.1,0.1,0.2,0.2,0.2c0.1,0,0.2-0.1,0.2-0.2h0.1h0.1
		c0,0,0,0,0,0.1s0,0.1,0,0.1c0.1,0,0.2,0,0.4,0s0.4,0,0.5,0c0.5,0,0.8,0,0.9-0.1c0.1,0,0.3,0,0.6,0s0.5,0,0.6,0s0.1-0.1,0.2-0.1
		c0.1,0,0.2-0.1,0.2-0.1l0,0l0,0c0.1,0,0.2,0,0.3,0s0.2,0,0.3,0s0.1-0.1,0.2-0.2c0.1-0.1,0.1-0.1,0.1-0.2c0.1,0,0.1,0,0.2,0.1
		c0.1,0,0.1,0.1,0.1,0.1s0.1,0,0.1-0.1c0.1,0,0.1,0,0.2,0c0.1,0,0.1,0,0.2,0c0.1,0,0.1-0.1,0.2-0.1c0.1,0,0.1-0.1,0.2-0.1l0.2,0.1
		c0.1,0,0.3,0,0.4,0.1s0.3,0.1,0.3,0.1v-0.1c0.1,0,0.1,0,0.1,0V50c0,0,0.1,0,0.1,0.1c0.1,0.1,0.1,0.2,0.1,0.2c0.1,0,0.2,0.2,0.5,0.5
		C49,50.9,49,50.9,49,51h0.1c0.1,0.1,0.1,0.2,0.1,0.6c0,0,0,0.1,0.1,0.1c0,0.1,0,0.1,0,0.2c0,0.1-0.1,0.1-0.1,0.1v0.1
		c0,0.1,0,0.1,0,0.1v0.1c0,0,0,0.1,0,0.2c0,0.3,0,0.6,0,0.6h0.1c0,0,0,0.1,0,0.2c0,0.1,0,0.1,0,0.2c0,0.1-0.1,0.1-0.1,0
		c0,0.1,0,0.2,0,0.3s0,0.2,0,0.3c0,0,0,0.1-0.1,0.2c0,0.1,0,0.2,0,0.5s0,0.5,0.1,0.5c-0.1,0.1-0.1,0.1-0.1,0.1c0,0.1,0,0.2,0,0.4
		s0,0.4,0,0.5c0,0.2,0,0.4,0.1,0.4c-0.1,0.1-0.1,0.3-0.1,0.5s0,0.4,0,0.6c0,0.4,0,0.7,0,0.7c0,0.1-0.1,0.2-0.2,0.3L49,59
		c0,0.2,0,0.3,0,0.4c0,0.1,0,0.3,0,0.4c0,0.2,0,0.3,0.1,0.3h0.1c0,0.5,0,0.7-0.1,0.7c0,0.1,0,0.3,0,0.4c0,0.1-0.1,0.2-0.1,0.3
		c-0.1,0-0.2,0.1-0.3,0.3c0,0,0,0.1-0.1,0.1c-0.1,0.1-0.2,0.1-0.2,0.2c-0.1,0-0.2,0-0.3,0.1s-0.2,0.1-0.3,0l-0.1,0.1l-0.1,0.1
		c0,0-0.1,0-0.1-0.1v-0.1c-0.1,0-0.2,0-0.4-0.1s-0.3-0.2-0.4-0.2c-0.1-0.2-0.1-0.2-0.1-0.2c-0.1,0-0.1,0-0.1,0s0-0.1,0-0.2
		c0-0.1-0.1-0.1-0.2-0.1c-0.1,0-0.2-0.1-0.2-0.1L46,61.2c0-0.1,0-0.1-0.1-0.1c0-0.2-0.1-0.4-0.1-0.4h-0.1v-0.5c0,0,0,0,0.1,0
		c0-0.2,0-0.6,0-1.3c0-0.4-0.1-0.7-0.1-0.7c-0.1,0-0.1,0-0.1,0s0-0.2,0-0.4c0-0.3,0-0.4,0-0.5c0.1,0,0.1,0,0.1-0.1s0-0.2-0.1-0.2
		c0,0-0.1,0.1-0.2,0.2c-0.1,0.1-0.2,0.2-0.2,0.2v0.1h-0.1c0,0,0,0-0.1,0s-0.2,0.1-0.2,0.1c-0.1,0-0.1,0-0.2,0.1c0,0,0,0,0,0.1h-0.1
		c-0.2,0.1-0.3,0.2-0.3,0.2s0,0-0.1,0S44,58,44,58s-0.1,0.1-0.2,0.2c-0.1,0.1-0.2,0.1-0.2,0.2c-0.1,0-0.2,0.1-0.2,0.1
		c0,0.1,0,0.1,0,0.1s-0.1,0-0.2-0.1c-0.2,0-0.3,0.1-0.4,0.3c-0.2,0.1-0.4,0.2-0.7,0.4c0,0.1,0,0.1,0,0.1H42c0,0-0.1,0-0.2,0
		c0,0,0,0.1-0.1,0.1h-0.1c0,0,0,0-0.1,0h-0.1l-0.1,0.1h-0.1c-0.1,0-0.1,0-0.1,0c-0.2,0.1-0.4,0.2-0.4,0.2c-0.2,0.2-0.3,0.2-0.3,0.3
		c-0.3,0-0.5,0-0.5,0c0,0.1,0,0.1,0,0.1c-0.3-0.1-0.5-0.1-0.6,0c0,0.1,0,0.1,0,0.1h-0.1h-0.1c-0.1,0-0.1,0.1-0.1,0.2
		c-0.1,0.1-0.1,0-0.2,0c-0.1-0.1-0.2-0.1-0.2-0.1h-0.1h-0.1c0,0,0,0.1,0.1,0.1c-0.3,0.1-0.5,0.1-0.6,0s-0.1-0.1-0.1-0.1
		c-0.1,0-0.2,0-0.4,0s-0.4,0-0.5,0h-0.1c0,0,0,0-0.1,0s-0.1,0-0.1,0s0,0-0.1,0h-0.1l0,0H36v-0.1c0,0,0,0,0-0.1
		c-0.1-0.1-0.2-0.1-0.3,0c-0.1,0-0.2,0-0.2,0l0.4-0.1h-0.1c-0.1,0-0.1,0-0.1,0l0,0v-0.1c0,0-0.1,0-0.2,0c-0.1,0-0.1,0-0.2,0
		c-0.1-0.2-0.2-0.2-0.4-0.2h-0.1c0,0,0,0-0.1,0s-0.3-0.1-0.6-0.3c0,0-0.1,0-0.3-0.1h-0.1h-0.1v-0.1c-0.1,0-0.2-0.1-0.5-0.3
		s-0.4-0.4-0.5-0.5c-0.2-0.2-0.3-0.3-0.3-0.3c-0.3-0.1-0.6-0.4-0.7-0.7c-0.1-0.2-0.3-0.3-0.5-0.3c0-0.1-0.1-0.2-0.2-0.4
		c0-0.1,0-0.2-0.1-0.3s-0.1-0.1-0.1-0.2c-0.2-0.2-0.3-0.3-0.3-0.3v-0.1v-0.1c0,0-0.1-0.1-0.2-0.3s-0.1-0.3-0.1-0.4v-0.1L30,54.8
		c0-0.1,0-0.2-0.1-0.4v-0.1v-0.1c-0.1-0.2-0.1-0.2,0-0.3c0-0.1-0.1-0.2-0.2-0.3v-0.1v-0.1c0,0,0-0.1-0.1-0.2
		c-0.1-0.1-0.1-0.2-0.1-0.2c0-0.2,0-0.3,0-0.3c-0.1,0-0.1,0-0.1,0c-0.1-0.2,0-0.2,0-0.2c0-0.1,0-0.2,0-0.3c0-0.2,0-0.3-0.1-0.4v-0.4
		h0.1h0.1c0-0.1,0-0.2-0.1-0.3c0.1,0,0.1-0.2,0-0.4v-0.1c0-0.1,0-0.1,0-0.1s0,0,0-0.1s0-0.1,0-0.1v-0.1c0,0,0,0,0-0.1V50v-0.1
		c0,0,0.1-0.1,0.2-0.1c0-0.2,0-0.4,0-0.4c0.1-0.1,0.1-0.2,0.1-0.3V49v-0.1v-0.1v-0.1c0-0.1,0-0.1,0-0.2c0-0.1,0-0.2,0-0.2v-0.1
		c0.1-0.2,0.2-0.3,0.3-0.4c0-0.1,0-0.2,0.1-0.3c0-0.1,0-0.1,0-0.1c0-0.1,0-0.1,0-0.1l0.1-0.1c0-0.1,0.1-0.1,0.1-0.1V47
		c0-0.1,0-0.1,0.1-0.2c0-0.1,0.1-0.2,0.1-0.2l0.1-0.1c0,0,0.1,0,0.1-0.1v-0.1v-0.1c0-0.1,0-0.1,0.1-0.2c0.1-0.1,0.1-0.1,0.2-0.2
		v-0.1c0-0.1,0-0.1,0-0.1c0-0.1,0-0.1,0.1-0.2c0.1,0,0.1-0.1,0.1-0.1c-0.1-0.2,0-0.3,0.2-0.4c0.1,0,0.1-0.1,0.1-0.1
		c0-0.1,0.1-0.2,0.2-0.4s0.2-0.3,0.2-0.3c0.1-0.1,0.2-0.1,0.2-0.2l0.1-0.1l0.1-0.1c0-0.1,0-0.1,0-0.1c0-0.1,0.1-0.1,0.2-0.2
		c0.1-0.1,0.2-0.2,0.3-0.3s0.1-0.2,0.2-0.3c0,0,0.1-0.1,0.2-0.1C33.9,42.1,34,42,34,42c0.1-0.1,0.2-0.2,0.2-0.3
		c0-0.2,0.1-0.3,0.2-0.3c0.1,0,0.1,0,0.1,0c0.2-0.1,0.3-0.2,0.4-0.2v-0.1V41c0,0,0.1-0.1,0.2-0.1c0.1,0,0.2-0.1,0.2-0.2v-0.1
		c0,0,0,0,0-0.1h0.1c0,0,0.1,0,0.2,0c0-0.2,0-0.3,0.1-0.4s0.2-0.1,0.3,0c0.1-0.1,0.1-0.2,0-0.2l0.1-0.1l0.1-0.1c0.1,0,0.2,0,0.3-0.1
		s0.2-0.1,0.3-0.1c-0.1-0.1-0.1-0.2,0-0.2c0,0,0.1,0,0.1,0.1c0,0,0.1-0.1,0.1-0.2c0.1,0,0.2,0,0.2,0c0-0.1,0-0.1,0-0.2
		c0.1,0,0.1,0,0.2,0s0.2,0,0.2,0v-0.1v-0.1h0.1c0,0,0.1,0,0.2,0c0,0,0.1,0,0.1-0.1s0.1-0.1,0.1-0.1c0.1-0.1,0.2-0.1,0.4-0.1
		c0.1,0,0.2,0,0.3,0l0.1,0.1H39c0.1,0,0.1,0,0.2,0l0.1-0.1c0.3-0.1,0.4,0,0.5,0.1c0.1,0,0.2,0.1,0.3,0.2c0.1,0,0.2,0,0.4,0.2
		l0.1,0.1c0,0,0.1,0,0.1,0.1c0,0,0.1,0,0.1,0.1s0.1,0.1,0.1,0.1L41.1,39.5L41.1,39.5z"/>
	<path fill="#54813B" d="M57.9,40.2c0.1,0,0.2,0,0.3,0s0.3,0,0.4,0c0,0,0.1,0,0.2,0.1c0,0,0.1,0,0.2,0c0.1,0,0.2,0,0.2,0h0.1h0.1
		c0,0,0,0,0.1,0h0.1c0.1,0.2,0.2,0.3,0.3,0.2l0.3,0.2c0,0.1,0,0.1,0.1,0.2c0.1,0.1,0.1,0.1,0.1,0.1c0.1,0,0.1,0,0.2,0.1
		c0.1,0.1,0.1,0.1,0.2,0.1h0.1H61c0.2-0.1,0.3-0.1,0.4-0.1c0,0,0.1,0,0.3,0c0,0,0.1,0,0.2,0c0.1,0,0.2,0,0.2,0s0.1,0,0.1,0.1
		s0.1,0.1,0.1,0.1s0.1,0,0.2,0s0.2,0,0.2,0s0.1,0.1,0.2,0.2c0.1,0.1,0.2,0.1,0.3,0.1c0,0,0,0.1,0.1,0.1s0.2,0,0.3,0.1
		s0.2,0.1,0.2,0.1h0.1c0.3,0.2,0.6,0.3,0.8,0.4h0.2c0,0.1-0.1,0.1-0.2,0v0.1c0,0.1,0.2,0.2,0.4,0.3c0.2,0.1,0.3,0.3,0.4,0.4
		c0,0.1,0.1,0.1,0.2,0.2c0.2,0.2,0.3,0.4,0.4,0.5c0.2,0.1,0.2,0.2,0.2,0.4c0,0.1,0.1,0.2,0.2,0.3s0.2,0.2,0.2,0.3
		c0.1,0.2,0.2,0.4,0.2,0.4s0,0.1,0.1,0.1c0.1,0.2,0.1,0.3,0.1,0.4l0.1,0.1c0,0.1,0,0.2,0.1,0.3c0.1,0.3,0.1,0.4,0.1,0.5
		c0,0.2,0.1,0.3,0.1,0.4c0,0,0,0.1,0.1,0.3c-0.1,0-0.1,0.1,0,0.2s0.1,0.2,0.1,0.3v0.1V48c0,0,0,0,0,0.1v0.1c0,0.1,0,0.2,0,0.3
		c0,0.2,0,0.3,0,0.4c0,0.1,0,0.1,0,0.2c0,0,0,0.1,0,0.2c0,0,0,0.1,0.1,0.2v0.1c0,0,0,0,0,0.1c0.1,0.1,0.1,0.5,0.1,1.1s0,1,0,1.2
		c0,0,0,0.1,0,0.2c0,0.1,0,0.2,0,0.3c0,0,0,0.1-0.1,0.2c-0.1,0.1-0.1,0.2,0,0.3c0,0,0,0.1,0,0.2c0,0.1,0,0.2,0,0.2
		c-0.1,0-0.2,0.1-0.2,0.1c0,0.3,0,0.5,0,0.5v0.1l-0.1,0.1v0.1c-0.1,0.2-0.1,0.3-0.1,0.3s0,0.1-0.1,0.1h-0.1c0,0,0,0,0,0.1l-0.1,0.1
		c0,0.1-0.1,0.1-0.1,0.2l-0.3,0.3c0,0.1-0.1,0.3-0.2,0.5s-0.2,0.3-0.2,0.5c-0.3,0-0.3,0.2-0.3,0.4c0,0-0.1,0-0.2,0.1
		c0,0.1,0,0.1-0.1,0.2c-0.1,0.1-0.1,0.2-0.1,0.3c-0.1,0-0.2,0.1-0.2,0.2c-0.1,0.1-0.1,0.2-0.2,0.2c0,0-0.1,0.1-0.2,0.2
		c-0.1,0.1-0.1,0.2-0.2,0.2c0,0.1,0,0.1-0.1,0.2c-0.2,0.1-0.4,0.2-0.6,0.4C64,58.9,63.9,59,63.9,59c-0.1,0.1-0.2,0.2-0.3,0.3
		c-0.2,0.1-0.3,0.2-0.3,0.3h-0.1c0,0,0,0-0.1,0c0,0-0.1,0.1-0.2,0.1c-0.1,0.1-0.1,0.1-0.2,0.1c-0.1,0-0.2,0-0.3,0.1
		c-0.1,0-0.2,0-0.3,0.1c-0.1,0-0.1,0-0.2,0s-0.1,0-0.2,0c0,0-0.1,0.1-0.2,0.2c-0.2,0-0.3,0-0.4,0c0,0.1-0.1,0.1-0.3,0.1
		s-0.2,0.1-0.3,0.2c-0.1,0-0.4,0-0.7,0s-0.6,0-0.8,0c-0.1,0-0.2,0-0.3,0c-0.2,0-0.3,0-0.4,0c0,0-0.1-0.1-0.1-0.2
		c-0.1,0-0.2,0-0.2,0.1s-0.1,0.1-0.1,0.1s0,0,0-0.1l0,0c0,0-0.1,0-0.1-0.1c-0.1,0-0.1-0.1-0.1-0.1c-0.2,0.1-0.4,0-0.6-0.1
		c-0.2-0.1-0.3-0.2-0.5-0.1v-0.1c0,0-0.1,0-0.3-0.1c-0.1-0.1-0.3-0.1-0.4-0.1v-0.1c0,0-0.1-0.1-0.1-0.2c-0.1-0.1-0.1-0.1-0.1-0.2
		c-0.1,0-0.1-0.1-0.1-0.1s0,0-0.1-0.1l-0.1-0.1c0,0,0,0-0.1,0h-0.1l0,0l0,0c0,0-0.1,0-0.2-0.1c0,0-0.1,0-0.1-0.1
		c-0.1-0.1-0.1-0.1-0.1-0.2c-0.1,0-0.1,0-0.1,0c-0.1-0.1-0.1-0.2-0.3-0.3c-0.2,0-0.3-0.2-0.4-0.2h-0.1c-0.3-0.3-0.5-0.6-0.5-0.7
		c0,0-0.1-0.2-0.3-0.4v-0.1c0,0-0.1-0.1-0.1-0.2c-0.1-0.1-0.1-0.1-0.1-0.2c0-0.3-0.1-0.6-0.3-0.8c0-0.1,0-0.2-0.1-0.3
		c0-0.1,0-0.1,0-0.1s0,0,0-0.1V55v-0.1l-0.1-0.1c0,0,0-0.2,0-0.5v-0.1v-0.1c0,0-0.1,0-0.1-0.1v-0.1c0-0.1,0-0.2,0-0.3
		c0-0.2,0-0.3,0-0.4c0,0-0.1,0-0.1-0.1c0,0,0-0.1,0-0.2v-0.1c0,0,0-0.1-0.1-0.1c0-0.1,0-0.1,0-0.1C52,52.5,52,52.4,52,52.4v-0.1
		v-0.1c0.1-0.2,0-0.3-0.1-0.4c0,0,0-0.1,0-0.2v-0.1l0.2-0.2c0-0.1,0-0.3,0-0.6c0-0.4,0-0.6,0-0.7c0-0.1,0-0.1,0-0.2
		c0-0.1,0-0.1,0-0.2c0-0.1,0-0.2,0-0.4s0-0.3,0-0.4c0-0.1,0.1-0.2,0.2-0.3v-0.1v-0.1v-0.1l0.1-0.1c0,0,0-0.2,0-0.4s0-0.4,0-0.5
		c0-0.3,0-0.5,0-0.6c0,0,0.1,0,0.2-0.1c0.1-0.1,0.1-0.1,0.2-0.1c0-0.1,0-0.1,0-0.1v-0.1l0.1-0.1c0,0,0-0.1,0-0.2c0-0.1,0-0.1,0-0.2
		c0.1-0.1,0.1-0.1,0.1-0.1c0-0.1,0-0.2,0-0.4s0-0.3,0.1-0.3h0.1h0.1c0-0.1,0-0.1-0.1-0.1c0,0-0.1,0-0.1-0.1l0.1-0.2
		c0,0,0.1-0.1,0.1-0.2c0.1-0.1,0.1-0.2,0.1-0.2V44c0,0,0,0,0-0.1c0.1-0.1,0.1-0.2,0.1-0.3c0.1,0,0.1-0.1,0.2-0.2
		c0-0.1,0.1-0.2,0.1-0.2c0-0.1,0-0.2,0.1-0.3s0.2-0.2,0.2-0.2v-0.1v-0.1c0-0.1,0.1-0.1,0.2-0.2c0.1-0.1,0.2-0.2,0.2-0.3
		c0.1,0,0.2-0.1,0.3-0.3c0.1,0,0.2-0.1,0.2-0.3c0-0.1,0-0.2,0-0.2c0.1,0.1,0.2,0,0.3-0.1c0.1,0,0.1-0.1,0.1-0.1h0.1
		c0.1,0,0.1-0.1,0.2-0.1c0.1-0.1,0.1-0.1,0.2-0.1c0.2,0,0.3-0.1,0.6-0.3c0.1,0,0.2,0,0.3-0.1s0.2-0.1,0.2-0.2l0,0c0,0,0,0,0-0.1
		c0.1,0.1,0.2,0,0.4-0.1c0.1,0,0.2,0,0.3,0C57.8,40.1,57.9,40.1,57.9,40.2z M58.6,40.1c0,0,0.1,0,0.2,0.1c0,0,0.1,0,0.2,0
		c0.1,0,0.2,0,0.2,0h0.1h0.1c0,0,0,0,0.1,0h0.1c0.1,0.2,0.2,0.3,0.3,0.2l0.3,0.2c0,0.1,0,0.1,0.1,0.2c0.1,0.1,0.1,0.1,0.1,0.1
		c0.1,0,0.1,0,0.2,0.1c0.1,0.1,0.1,0.1,0.2,0.1h0.1H61c0.2-0.1,0.3-0.1,0.4-0.1c0,0,0.1,0,0.3,0c0,0,0.1,0,0.2,0c0.1,0,0.2,0,0.2,0
		s0.1,0,0.1,0.1s0.1,0.1,0.1,0.1s0.1,0,0.2,0s0.2,0,0.2,0s0.1,0.1,0.2,0.2c0.1,0.1,0.2,0.1,0.3,0.1c0,0,0,0.1,0.1,0.1s0.2,0,0.3,0.1
		s0.2,0.1,0.2,0.1h0.1c0.3,0.2,0.6,0.3,0.8,0.4h0.2c0,0.1-0.1,0.1-0.2,0v0.1c0,0.1,0.2,0.2,0.4,0.3c0.2,0.1,0.3,0.3,0.4,0.4
		c0,0.1,0.1,0.1,0.2,0.2c0.2,0.2,0.3,0.4,0.4,0.5c0.2,0.1,0.2,0.2,0.2,0.4c0,0.1,0.1,0.2,0.2,0.3s0.2,0.2,0.2,0.3
		c0.1,0.2,0.2,0.4,0.2,0.4s0,0.1,0.1,0.1c0.1,0.2,0.1,0.3,0.1,0.4l0.1,0.1c0,0.1,0,0.2,0.1,0.3c0.1,0.3,0.1,0.4,0.1,0.5
		c0,0.2,0.1,0.3,0.1,0.4c0,0,0,0.1,0.1,0.3c-0.1,0-0.1,0.1,0,0.2s0.1,0.2,0.1,0.3v0.1v0.1c0,0,0,0,0,0.1v0.1c0,0.1,0,0.2,0,0.3
		c0,0.2,0,0.3,0,0.4c0,0.1,0,0.1,0,0.2c0,0,0,0.1,0,0.2c0,0,0,0.1,0.1,0.2v0.1c0,0,0,0,0,0.1c0.1,0.1,0.1,0.5,0.1,1.1s0,1,0,1.2
		c0,0,0,0.1,0,0.2c0,0.1,0,0.2,0,0.3c0,0,0,0.1-0.1,0.2c-0.1,0.1-0.1,0.2,0,0.3c0,0,0,0.1,0,0.2c0,0.1,0,0.2,0,0.2
		c-0.1,0-0.2,0.1-0.2,0.1c0,0.3,0,0.5,0,0.5V54l-0.1,0.1v0.1c-0.1,0.2-0.1,0.3-0.1,0.3s0,0.1-0.1,0.1h-0.1c0,0,0,0,0,0.1l-0.1,0.1
		c0,0.1-0.1,0.1-0.1,0.2l-0.3,0.3c0,0.1-0.1,0.3-0.2,0.5s-0.2,0.3-0.2,0.5C66,56.4,66,56.6,66,56.8c0,0-0.1,0-0.2,0.1
		c0,0.1,0,0.1-0.1,0.2c-0.1,0.1-0.1,0.2-0.1,0.3c-0.1,0-0.2,0.1-0.2,0.2c-0.1,0.1-0.1,0.2-0.2,0.2c0,0-0.1,0.1-0.2,0.2
		c-0.1,0.1-0.1,0.2-0.2,0.2c0,0.1,0,0.1-0.1,0.2c-0.2,0.1-0.4,0.2-0.6,0.4C64,58.9,63.9,59,63.9,59c-0.1,0.1-0.2,0.2-0.3,0.3
		c-0.2,0.1-0.3,0.2-0.3,0.3h-0.1c0,0,0,0-0.1,0c0,0-0.1,0.1-0.2,0.1c-0.1,0.1-0.1,0.1-0.2,0.1c-0.1,0-0.2,0-0.3,0.1
		c-0.1,0-0.2,0-0.3,0.1c-0.1,0-0.1,0-0.2,0s-0.1,0-0.2,0c0,0-0.1,0.1-0.2,0.2c-0.2,0-0.3,0-0.4,0c0,0.1-0.1,0.1-0.3,0.1
		s-0.2,0.1-0.3,0.2c-0.1,0-0.4,0-0.7,0s-0.6,0-0.8,0c-0.1,0-0.2,0-0.3,0c-0.2,0-0.3,0-0.4,0c0,0-0.1-0.1-0.1-0.2
		c-0.1,0-0.2,0-0.2,0.1s-0.1,0.1-0.1,0.1s0,0,0-0.1l0,0c0,0-0.1,0-0.1-0.1c-0.1,0-0.1-0.1-0.1-0.1c-0.2,0.1-0.4,0-0.6-0.1
		c-0.2-0.1-0.3-0.2-0.5-0.1v-0.1c0,0-0.1,0-0.3-0.1c-0.1-0.1-0.3-0.1-0.4-0.1v-0.1c0,0-0.1-0.1-0.1-0.2c-0.1-0.1-0.1-0.1-0.1-0.2
		c-0.1,0-0.1-0.1-0.1-0.1s0,0-0.1-0.1l-0.1-0.1c0,0,0,0-0.1,0h-0.1l0,0l0,0c0,0-0.1,0-0.2-0.1c0,0-0.1,0-0.1-0.1
		c-0.1-0.1-0.1-0.1-0.1-0.2c-0.1,0-0.1,0-0.1,0c-0.1-0.1-0.1-0.2-0.3-0.3c-0.2,0-0.3-0.2-0.4-0.2h-0.1c-0.3-0.3-0.5-0.6-0.5-0.7
		c0,0-0.1-0.2-0.3-0.4v-0.1c0,0-0.1-0.1-0.1-0.2c-0.1-0.1-0.1-0.1-0.1-0.2c0-0.3-0.1-0.6-0.3-0.8c0-0.1,0-0.2-0.1-0.3
		c0-0.1,0-0.1,0-0.1s0,0,0-0.1V55v-0.1l-0.1-0.1c0,0,0-0.2,0-0.5v-0.1v-0.1c0,0-0.1,0-0.1-0.1v-0.1c0-0.1,0-0.2,0-0.3
		c0-0.2,0-0.3,0-0.4c0,0-0.1,0-0.1-0.1c0,0,0-0.1,0-0.2v-0.1c0,0,0-0.1-0.1-0.1c0-0.1,0-0.1,0-0.1C52,52.5,52,52.4,52,52.4v-0.1
		v-0.1c0.1-0.2,0-0.3-0.1-0.4c0,0,0-0.1,0-0.2v-0.1l0.2-0.2c0-0.1,0-0.3,0-0.6c0-0.4,0-0.6,0-0.7c0-0.1,0-0.1,0-0.2
		c0-0.1,0-0.1,0-0.2c0-0.1,0-0.2,0-0.4s0-0.3,0-0.4c0-0.1,0.1-0.2,0.2-0.3v-0.1v-0.1v-0.1l0.1-0.1c0,0,0-0.2,0-0.4s0-0.4,0-0.5
		c0-0.3,0-0.5,0-0.6c0,0,0.1,0,0.2-0.1c0.1-0.1,0.1-0.1,0.2-0.1c0-0.1,0-0.1,0-0.1v-0.1l0.1-0.1c0,0,0-0.1,0-0.2c0-0.1,0-0.1,0-0.2
		c0.1-0.1,0.1-0.1,0.1-0.1c0-0.1,0-0.2,0-0.4s0-0.3,0.1-0.3h0.1h0.1c0-0.1,0-0.1-0.1-0.1c0,0-0.1,0-0.1-0.1l0.1-0.2
		c0,0,0.1-0.1,0.1-0.2c0.1-0.1,0.1-0.2,0.1-0.2V44c0,0,0,0,0-0.1c0.1-0.1,0.1-0.2,0.1-0.3c0.1,0,0.1-0.1,0.2-0.2
		c0-0.1,0.1-0.2,0.1-0.2c0-0.1,0-0.2,0.1-0.3s0.2-0.2,0.2-0.2v-0.1v-0.1c0-0.1,0.1-0.1,0.2-0.2c0.1-0.1,0.2-0.2,0.2-0.3
		c0.1,0,0.2-0.1,0.3-0.3c0.1,0,0.2-0.1,0.2-0.3c0-0.1,0-0.2,0-0.2c0.1,0.1,0.2,0,0.3-0.1c0.1,0,0.1-0.1,0.1-0.1h0.1
		c0.1,0,0.1-0.1,0.2-0.1c0.1-0.1,0.1-0.1,0.2-0.1c0.2,0,0.3-0.1,0.6-0.3c0.1,0,0.2,0,0.3-0.1s0.2-0.1,0.2-0.2l0,0c0,0,0,0,0-0.1
		c0.1,0.1,0.2,0,0.4-0.1c0.1,0,0.2,0,0.3,0s0.2,0,0.3,0s0.2,0,0.3,0C58.4,40.1,58.5,40.1,58.6,40.1z M58.5,43
		c-0.2,0.1-0.4,0.2-0.6,0.3c-0.2,0.1-0.4,0.2-0.5,0.4C57.2,43.9,57,44,57,44.2c0,0-0.1,0.1-0.1,0.2c-0.1,0.1-0.1,0.1-0.1,0.1v0.1
		c0,0,0,0.1-0.1,0.1l-0.1,0.1c0,0-0.1,0.2-0.2,0.4c0,0.1,0,0.1-0.1,0.2c-0.1,0.1-0.1,0.1-0.1,0.1c0,0.1,0,0.1,0,0.2
		c0,0,0,0.1-0.1,0.2c0,0,0,0.1,0,0.2c0,0.1,0,0.1,0,0.2v0.1c-0.1,0.1-0.1,0.2,0,0.2c-0.2,0.1-0.2,0.3-0.2,0.5
		c-0.1,0.1-0.2,0.3-0.1,0.6c-0.1,0.1-0.2,0.2-0.1,0.5c-0.2,0.3-0.2,0.5-0.1,0.7c0,0,0,0.1-0.1,0.1c0,0-0.1,0-0.1,0.1s0,0.2,0,0.4
		c-0.1,0.2-0.1,0.3,0,0.4c-0.1,0.1-0.1,0.2-0.1,0.6v0.1c0,0.1,0,0.1,0,0.1s0,0.1-0.1,0.1l-0.1,0.1c0.1,0.1,0.1,0.2,0.1,0.3
		s0,0.3,0,0.4c0,0.2,0,0.3,0,0.4v0.1v0.1l0.1,0.1c0,0.1,0,0.2,0,0.5v0.1V53v0.1v0.1c0,0.2,0,0.3,0,0.4l0.1,0.1v0.1l0,0
		c0,0,0,0,0,0.1s0,0.2,0,0.2c0,0.1,0,0.1,0,0.2c0,0.1,0,0.1,0,0.1s0,0,0,0.1v0.1c0,0,0.1,0,0.1,0.1s0,0.1,0,0.1v0.1V55
		c0,0,0,0,0,0.1v0.1c0,0,0,0,0,0.1l0.1,0.1l0.1,0.1c-0.1,0.1-0.1,0.3,0.1,0.4V56c0,0,0,0.1,0.1,0.1s0.1,0.1,0.1,0.2l0.2,0.2
		c0.1,0.1,0.2,0.3,0.4,0.5s0.3,0.3,0.4,0.4c0.1,0,0.1,0,0.1,0c0.2,0.3,0.4,0.5,0.7,0.5C57.9,58,58,58,58,58.1c0,0,0.1,0,0.2,0
		c0.1,0,0.2,0,0.2,0l0.1,0.1l0.1,0.1h0.1h0.1c0,0,0,0,0.1,0H59c0.2,0,0.4,0,0.6,0c0,0,0.1,0,0.2-0.1c0.1-0.1,0.1-0.1,0.2-0.1
		c0.1,0,0.2,0,0.2,0s0.1,0,0.1-0.1l0.1-0.1c0,0,0.1,0,0.2,0c0.1-0.1,0.2-0.2,0.4-0.1c0.1-0.1,0.3-0.2,0.5-0.4s0.4-0.3,0.6-0.4
		c0,0,0-0.1,0.1-0.1l0.1-0.1c0,0,0,0,0-0.1s0.1-0.1,0.2-0.2c0.1-0.1,0.1-0.1,0.1-0.1s0.1-0.1,0.1-0.2c0.1-0.1,0.1-0.2,0.1-0.2
		s0-0.1,0.1-0.1s0.1-0.1,0.1-0.1c0.1-0.1,0.2-0.2,0.2-0.2v-0.1c0,0,0.1-0.2,0.3-0.5c0,0,0-0.1,0.1-0.1c0,0,0.1-0.2,0.1-0.5
		c0-0.1,0.1-0.2,0.2-0.3V54v-0.1l0.1-0.1v-0.1c0-0.1,0-0.1,0-0.1c0.1-0.1,0.2-0.4,0.3-0.9v-0.3v-0.1v-0.1c0.1-0.1,0.1-0.2,0.1-0.2
		s0-0.1-0.1-0.1l-0.1-0.1c0-0.1,0-0.1,0.1-0.2c0.1-0.1,0.1-0.2,0.1-0.2c0-0.1,0-0.2,0-0.3s-0.1-0.2,0-0.2v-0.1v-0.1l-0.1-0.1
		l-0.1-0.1c0.1-0.1,0.1-0.1,0.1-0.1v-0.1v-0.1c0-0.1,0-0.2,0-0.3s0-0.2,0-0.2v-0.1v-0.1c0,0,0-0.1-0.1-0.1c0-0.1,0-0.1-0.1-0.2
		L64,49.1c0-0.1,0-0.1,0.1-0.2c0-0.1,0.1-0.1,0-0.2v-0.1v-0.1c0-0.1,0-0.1,0-0.1c0-0.1,0-0.1,0-0.1c-0.1,0-0.1-0.2-0.2-0.4
		c0-0.2-0.1-0.3-0.2-0.4c0,0,0-0.1,0-0.2c0-0.1,0-0.2,0-0.2c0.3-0.6,0.3-0.7,0.3-0.8c-0.3-0.6-0.8-1.1-1.3-1.6h-0.2
		c0-0.1-0.1-0.2-0.3-0.3h-0.1l-0.2-0.1l-0.1-0.1c-0.1-0.1-0.2-0.1-0.3-0.1c0,0-0.1,0-0.2,0c-0.1,0-0.2,0-0.2,0
		C61,44,60.9,44,60.8,44c-0.1,0-0.2,0-0.3,0s-0.2,0-0.3,0c-0.2-0.2-0.3-0.3-0.4-0.2c-0.1-0.1-0.1-0.2,0-0.3c0,0,0-0.1,0.1-0.1
		l0.1-0.1c0-0.1,0-0.1-0.1-0.1s-0.1,0-0.1,0c0-0.2-0.1-0.2-0.1-0.2c-0.1,0-0.2,0-0.5,0C58.8,43,58.6,43,58.5,43z M59.5,43
		c-0.1,0-0.2,0-0.5,0c-0.2,0-0.4,0-0.6,0c-0.2,0.1-0.4,0.2-0.6,0.3c-0.2,0.1-0.4,0.2-0.5,0.4C57.2,43.9,57,44,57,44.2
		c0,0-0.1,0.1-0.1,0.2c-0.1,0.1-0.1,0.1-0.1,0.1v0.1c0,0,0,0.1-0.1,0.1l-0.1,0.1c0,0-0.1,0.2-0.2,0.4c0,0.1,0,0.1-0.1,0.2
		c-0.1,0.1-0.1,0.1-0.1,0.1c0,0.1,0,0.2,0,0.2s0,0.1-0.1,0.1c0,0,0,0.1,0,0.2c0,0.1,0,0.1,0,0.2v0.1c-0.1,0.1-0.1,0.2,0,0.2
		c-0.2,0.1-0.2,0.3-0.2,0.5c-0.1,0.1-0.2,0.3-0.1,0.6c-0.1,0.1-0.2,0.2-0.1,0.5c-0.2,0.3-0.2,0.5-0.1,0.7c0,0,0,0.1-0.1,0.1
		c0,0-0.1,0-0.1,0.1s0,0.2,0,0.4c-0.1,0.2-0.1,0.3,0,0.4c-0.1,0.1-0.1,0.2-0.1,0.6v0.1c0,0.1,0,0.1,0,0.1s0,0.1-0.1,0.1l-0.1,0.1
		c0.1,0.1,0.1,0.2,0.1,0.3s0,0.3,0,0.4c0,0.2,0,0.3,0,0.4V52v0.1l0.1,0.1c0,0.1,0,0.2,0,0.5v0.1v0.1V53v0.1c0,0.2,0,0.3,0,0.4
		l0.1,0.1v0.1l0,0c0,0,0,0,0,0.1s0,0.2,0,0.2c0,0.1,0,0.1,0,0.2c0,0.1,0,0.1,0,0.1s0,0,0,0.1v0.1c0,0,0.1,0,0.1,0.1s0,0.1,0,0.1v0.1
		v0.1c0,0,0,0,0,0.1v0.1c0,0,0,0,0,0.1l0.1,0.1l0.1,0.1c-0.1,0.1-0.1,0.3,0.1,0.4v0.1c0,0,0,0.1,0.1,0.1s0.1,0.1,0.1,0.2l0.2,0.2
		c0.1,0.1,0.2,0.3,0.4,0.5s0.3,0.3,0.4,0.4c0.1,0,0.1,0,0.1,0c0.2,0.3,0.4,0.5,0.7,0.5c0.1,0.1,0.2,0.1,0.2,0.2c0,0,0.1,0,0.2,0
		c0.1,0,0.2,0,0.2,0l0.1,0.1l0.1,0.1h0.1h0.1c0,0,0,0,0.1,0H59c0.2,0,0.4,0,0.6,0c0,0,0.1,0,0.2-0.1C59.9,58,59.9,58,60,58
		c0.1,0,0.2,0,0.2,0s0.1,0,0.1-0.1l0.1-0.1c0,0,0.1,0,0.2,0c0.1-0.1,0.2-0.2,0.4-0.1c0.1-0.1,0.3-0.2,0.5-0.4s0.4-0.3,0.6-0.4
		c0,0,0-0.1,0.1-0.1l0.1-0.1c0,0,0,0,0-0.1s0.1-0.1,0.2-0.2c0.1-0.1,0.1-0.1,0.1-0.1s0.1-0.1,0.1-0.2c0.1-0.1,0.1-0.2,0.1-0.2
		s0-0.1,0.1-0.1s0.1-0.1,0.1-0.1c0.1-0.1,0.2-0.2,0.2-0.2v-0.1c0,0,0.1-0.2,0.3-0.5c0,0,0-0.1,0.1-0.1c0,0,0.1-0.2,0.1-0.5
		c0-0.1,0.1-0.2,0.2-0.3v-0.1v-0.1l0.1-0.1v-0.1c0-0.1,0-0.1,0-0.1c0.1-0.1,0.2-0.4,0.3-0.9v-0.3v-0.1v-0.1c0.1-0.1,0.1-0.2,0.1-0.2
		s0-0.1-0.1-0.1l-0.1-0.1c0-0.1,0-0.1,0.1-0.2c0.1-0.1,0.1-0.2,0.1-0.2c0-0.1,0-0.2,0-0.3s-0.1-0.2,0-0.2v-0.1v-0.1l-0.1-0.1
		l-0.1-0.1c0.1-0.1,0.1-0.1,0.1-0.1v-0.1v-0.1c0-0.1,0-0.2,0-0.3s0-0.2,0-0.2v-0.1v-0.1c0,0,0-0.1-0.1-0.1c0-0.1,0-0.1-0.1-0.2
		L64,49c0-0.1,0-0.1,0.1-0.2c0-0.1,0.1-0.1,0-0.2v-0.1v-0.1c0-0.1,0-0.1,0-0.1c0-0.1,0-0.1,0-0.1c-0.1,0-0.1-0.2-0.2-0.4
		c0-0.2-0.1-0.3-0.2-0.4c0,0,0-0.1,0-0.2c0-0.1,0-0.2,0-0.2c0.3-0.5,0.3-0.6,0.3-0.7c-0.3-0.6-0.8-1.1-1.3-1.6h-0.2
		c0-0.1-0.1-0.2-0.3-0.3h-0.1l-0.2-0.1l-0.1-0.1c-0.1-0.1-0.2-0.1-0.3-0.1c0,0-0.1,0-0.2,0c-0.1,0-0.2,0-0.2,0
		C61,44,60.9,44,60.8,44c-0.1,0-0.2,0-0.3,0s-0.2,0-0.3,0c-0.2-0.2-0.3-0.3-0.4-0.2c-0.1-0.1-0.1-0.2,0-0.3c0,0,0-0.1,0.1-0.1
		l0.1-0.1c0-0.1,0-0.1-0.1-0.1s-0.1,0-0.1,0C59.5,43,59.5,43,59.5,43z"/>
</g>
</svg>
