<?xml version="1.0" encoding="utf-8"?>
<!-- Generator: Adobe Illustrator 19.0.1, SVG Export Plug-In . SVG Version: 6.00 Build 0)  -->
<svg version="1.1" id="Layer_1" xmlns="http://www.w3.org/2000/svg" xmlns:xlink="http://www.w3.org/1999/xlink" x="0px" y="0px"
	 viewBox="0 0 100 100" enable-background="new 0 0 100 100" xml:space="preserve">
<g>
	<path fill="#54813B" d="M16.4,44L16.4,44c0.2,0.2,0.4,0.3,0.5,0.5H17c0,0.1,0,0.1,0.1,0.2c0,0.1,0,0.1,0.1,0.2h0.1
		c0,0.2,0,0.4,0,0.4c0,0.1,0.1,0.1,0.1,0.2c0,0.1,0,0.2,0,0.2c0,0.1,0,0.2,0,0.3c-0.1,0.1-0.2,0.2-0.2,0.4h-0.1L17,46.5h-0.1h-0.1
		c0,0,0,0-0.1,0.1c0,0,0,0-0.1,0c0,0,0,0-0.1,0c0,0-0.1,0.1-0.1,0.2c0,0-0.1,0-0.2-0.1h-0.1c0,0,0,0-0.1,0c0-0.1,0-0.2-0.2-0.3
		c0,0,0,0-0.1,0c0,0,0,0-0.1,0l-0.1-0.1h-0.1c0,0,0,0-0.1,0v-0.1c-0.1-0.1-0.2-0.1-0.3-0.1c0,0-0.1,0-0.1,0.1c-0.1,0-0.2,0-0.2,0
		h-0.1h-0.1h-0.1h-0.1c0,0-0.1,0-0.2-0.1c0,0,0,0-0.1,0.1h-0.1c0,0,0,0-0.1,0h-0.1h-0.1h-0.1h-0.1c0,0,0,0-0.1,0c0,0,0,0-0.1,0
		s-0.1,0-0.2,0c-0.3,0-0.4,0.1-0.4,0.1v0.1h-0.1c0,0-0.1,0-0.1-0.1c0,0-0.1,0-0.2,0.1c0,0,0,0-0.1,0c0,0,0,0-0.1,0
		c0,0-0.2,0.1-0.4,0.1s-0.3,0.1-0.4,0.1v0.1h-0.1c0,0,0,0-0.1,0c0,0,0,0-0.1,0.1h-0.1c0,0-0.1,0-0.1,0.1h-0.1c-0.1,0-0.1,0-0.1,0
		s0,0,0,0.1c0,0,0,0,0,0.1s0,0.1,0.1,0.1h0.1c0,0,0.1,0.1,0.2,0.2c0,0,0,0,0.1,0c0,0,0,0,0.1,0c0,0,0,0,0,0.1v0.1
		c0.1,0,0.2,0,0.2,0.1c0.1,0,0.1,0.1,0.2,0.1c0,0,0,0,0.1,0.1c0.1,0,0.2,0,0.2,0.1c0,0,0.1,0,0.1,0.1H12c0,0,0.1,0,0.1,0.1
		c0,0,0.1,0,0.1,0.1c0.3,0,0.4,0.1,0.4,0.1c0.1,0,0.2,0,0.3,0c0,0,0.1,0,0.1,0.1c0,0,0.1,0,0.2,0s0.1,0,0.2,0c0,0,0,0,0.1,0
		c0,0,0,0,0.1,0h0.1c0,0,0,0,0.1,0.1c0,0,0,0.1,0.1,0.1s0.1,0,0.1,0h0.1c0.2,0.1,0.3,0.2,0.4,0.1l0.1-0.1c0.1,0,0.1,0,0.2,0
		c0,0,0,0,0,0.1c0.1,0.1,0.2,0.1,0.2,0.1s0,0,0.1,0c0,0,0,0,0.1,0c0,0.1,0,0.2,0.1,0.2c0,0,0,0,0.1,0c0,0,0,0,0.1-0.1
		c0.1,0,0.2,0,0.2,0c0,0.1,0.1,0.1,0.2,0.2c0.1,0,0.2,0.1,0.2,0.1c0.2,0,0.4,0,0.4,0.1h0.1h0.1c0,0,0.1,0,0.1,0.1l0.1,0.1
		c0,0,0.1,0,0.1-0.1h0.1c0,0.1,0,0.1,0.1,0.2c0.1,0,0.1,0,0.2,0s0.1,0.1,0.1,0.1h0.1h0.1c0,0,0,0,0,0.1c0,0,0.1,0.1,0.2,0.1
		s0.2,0.1,0.2,0.2c0,0,0.1,0,0.2,0s0.1,0.1,0.2,0.1c0.1,0.1,0.1,0.2,0.2,0.2c0,0,0,0,0.1,0c0,0,0,0,0.1,0c0,0,0,0,0,0.1
		c0,0,0.1,0.1,0.3,0.3c0.1,0.1,0.2,0.2,0.3,0.3c0,0,0,0.1,0.1,0.2c0,0.1,0,0.1,0,0.2c0.1,0.1,0.2,0.2,0.2,0.5c0,0,0.1,0.1,0.1,0.2
		c0,0.1,0.1,0.1,0.1,0.2c0,0,0,0,0,0.1c0,0,0,0,0,0.1v0.1v0.1V53v0.1c0,0,0,0,0,0.1c0,0,0,0,0,0.1c0,0,0,0.1,0,0.2
		c0,0.1,0,0.2,0.1,0.3c0,0,0,0,0,0.1c0,0,0,0,0,0.1c0,0,0,0.1,0,0.3S20,54.6,20,54.6v0.1c0,0,0,0.1-0.1,0.1l-0.1,0.1
		c0,0,0,0.1-0.1,0.2v0.1c-0.2,0.1-0.2,0.2-0.2,0.3c-0.1,0.2-0.2,0.3-0.3,0.3c0,0.1,0,0.3-0.1,0.3c0.1-0.2,0-0.1-0.1-0.1
		c0,0,0,0.1-0.1,0.1c0,0,0,0,0,0.1c0,0,0,0-0.1,0c0,0,0,0-0.1,0c0,0-0.1,0.1,0,0.1c0,0-0.1,0.1-0.4,0.2v0.1
		c-0.2,0.1-0.3,0.2-0.3,0.2s-0.1,0-0.2,0.1c-0.1,0-0.2,0.1-0.3,0.1c-0.1,0.1-0.2,0.1-0.2,0.1v0.1c0,0.1,0,0.1,0,0.1s0,0-0.1-0.1
		c0,0,0-0.1-0.1-0.1s-0.1,0-0.1,0.1c-0.1,0-0.1,0.1-0.2,0.1l-0.1,0.1h-0.1c-0.1,0-0.1,0-0.1,0c-0.1,0-0.2,0.1-0.2,0
		c-0.1,0.1-0.2,0.1-0.2,0.1c-0.1,0.1-0.1,0.2-0.2,0.1h-0.1c0,0-0.1,0-0.1,0.1l-0.1,0.1c-0.1,0-0.2,0-0.2,0.1c-0.1,0-0.2,0.1-0.2,0.1
		s-0.1,0-0.2,0c-0.1,0-0.1,0-0.1,0s-0.1,0-0.2,0.1c-0.1,0-0.1,0.1-0.2,0.1h-0.1h-0.1c0,0,0,0-0.1,0.1c0,0-0.1,0-0.4,0
		c0,0,0,0-0.1-0.1c-0.2-0.1-0.3-0.1-0.4,0h-0.1l-0.1,0.1c0-0.1-0.2-0.1-0.4-0.1c-0.1,0-0.2,0-0.2,0c-0.1-0.1-0.1-0.1-0.1-0.1
		s0,0-0.1,0.1h-0.1c0,0,0,0,0-0.1c0,0,0,0,0-0.1c0,0-0.1,0-0.2,0c-0.1,0-0.1,0-0.1,0s-0.1,0-0.1-0.1h-0.1V58c0,0-0.1,0-0.2,0l0,0
		c0,0,0,0,0-0.1c0,0-0.1,0-0.1-0.1s-0.1-0.1-0.1-0.1c-0.1-0.1-0.2-0.1-0.2-0.1v-0.1c0,0-0.1-0.1-0.2-0.2c-0.1-0.1-0.1-0.1-0.2-0.1
		c0,0,0,0-0.1,0c0,0,0,0-0.1,0c0-0.1,0-0.2-0.1-0.3s-0.2-0.1-0.2-0.1s0,0,0-0.1c0,0,0,0,0-0.1c0,0-0.1,0-0.1-0.1S10,56.4,10,56.4
		c0-0.1,0-0.2,0-0.2v-0.1V56v-0.1c0,0,0-0.1-0.1-0.1c0,0,0,0,0-0.1c0,0,0,0,0-0.1c0,0,0-0.1-0.1-0.2c0-0.1-0.1-0.1-0.1-0.1
		s0-0.1,0.1-0.2C9.8,55,9.9,55,9.9,55s0,0,0.1,0c0,0,0,0,0.1,0c0,0,0-0.1-0.1-0.3c0.1,0,0.1,0,0.2,0c0,0,0.1-0.1,0-0.2
		c0,0,0.1-0.1,0.1-0.2s0.1-0.1,0.1-0.2c0,0,0,0,0.1,0c0,0,0,0,0,0.1l0.1-0.1V54l0.1-0.1c0.1,0,0.1,0,0.1,0s0,0,0.1-0.1H11
		c0,0,0,0,0.1,0.1c0,0,0,0,0.1,0c0,0,0,0,0.1,0c0.1,0.1,0.2,0.2,0.2,0.2c0.1,0,0.1,0,0.1,0s0,0,0.1,0s0.1,0.1,0.2,0.1l0.1,0.1
		c0,0,0.1,0,0.1,0.1c0,0,0.1,0.1,0.1,0.2s0.1,0.1,0.1,0.2c0.1,0,0.2,0.1,0.3,0.2c0.1,0.1,0.2,0.2,0.3,0.3c0,0,0,0,0,0.1
		c0,0,0,0,0,0.1l0.2,0.1h0.1c0.1,0,0.1,0,0.1,0s0,0,0.1,0.1c0,0,0,0,0.1,0c0,0,0.1,0,0.2,0c0.1,0,0.2,0,0.2,0s0,0,0.1,0.1
		c0,0,0,0.1,0.1,0.1s0.1,0,0.2,0c0.1,0,0.1-0.1,0.1-0.1s0,0,0.1,0h0.1c0,0,0.1,0,0.1-0.1c0.1,0,0.1,0,0.2,0H15h0.1c0,0,0,0,0.1,0
		l0,0c0,0,0,0,0.1,0h0.1c0,0,0,0,0.1-0.1h0.1c0,0,0.1,0,0.1-0.1c0,0,0,0,0.1,0c0,0,0,0,0.1,0H16c0.1,0,0.1-0.1,0.1-0.2
		c0,0,0.1,0,0.1,0.1c0,0,0.1,0,0.1-0.1c0.1-0.1,0.1-0.1,0.2-0.1c0-0.1,0.2-0.2,0.4-0.4c0.2-0.1,0.4-0.3,0.4-0.4
		c0.1,0,0.2-0.1,0.2-0.2c0,0,0.1-0.1,0.2-0.2c0.1-0.1,0.1-0.1,0.1-0.2v-0.1c0,0,0-0.1,0.1-0.1v-0.2c0.1,0,0.1-0.1,0.1-0.1
		c0-0.1,0-0.2,0-0.3s0-0.2,0-0.3c0,0,0,0-0.1-0.1c0,0,0,0,0-0.1c0,0,0-0.1-0.1-0.2l-0.1-0.1c-0.1,0-0.1-0.1-0.1-0.1
		c-0.1,0-0.1,0.1-0.2,0V52h-0.1c0,0,0,0,0-0.1s0-0.1,0-0.1s0,0-0.1,0h-0.1c0,0,0,0-0.1-0.1c0,0,0-0.1-0.1-0.1c0,0-0.1,0-0.2,0
		s-0.2,0-0.2,0c-0.1,0-0.2-0.1-0.3,0c0,0,0,0,0-0.1c0,0-0.1-0.1-0.3-0.1s-0.3-0.1-0.3-0.1c-0.1-0.1-0.4-0.2-0.7-0.2l0,0l0,0
		c0,0,0,0,0-0.1c0,0-0.1,0-0.2-0.1c-0.1-0.1-0.1-0.1-0.2-0.1c0,0,0,0-0.1,0c0,0,0,0-0.1,0.1c0,0,0-0.1-0.1-0.1s-0.1,0-0.1,0
		c0-0.1-0.1-0.1-0.2,0c0-0.1-0.1-0.2-0.1-0.2c-0.1,0.1-0.2,0.1-0.3,0c0,0-0.2-0.1-0.4,0c0-0.1-0.1-0.2-0.1-0.2c-0.1,0-0.3,0-0.4-0.1
		h-0.1h-0.1c0,0,0,0-0.1,0l0,0c0,0,0,0-0.1,0c0,0,0,0-0.1,0c0,0,0,0-0.1,0c-0.2-0.1-0.3-0.1-0.5,0c0,0,0,0,0-0.1c0,0,0,0-0.1-0.1
		c0,0,0,0-0.1,0c0,0,0,0-0.1-0.1c0,0,0,0-0.1-0.1c0,0-0.1,0-0.2-0.1c-0.1,0-0.2,0-0.2-0.1l-0.1-0.1h-0.1h-0.1c0-0.1,0-0.1,0-0.1
		s0,0-0.1,0c0,0,0,0-0.1,0s0,0,0,0s0,0,0-0.1l0,0c0,0,0,0,0-0.1c0,0,0,0-0.1,0H10c0,0,0,0,0-0.1l0,0c0-0.1-0.1-0.1-0.2-0.1
		c-0.1,0-0.1-0.1-0.1-0.2H9.6H9.5c0,0,0-0.1-0.1-0.2c0-0.1-0.1-0.1-0.2-0.2C9.1,48.4,9,48.3,9,48.3H8.9c0,0-0.1,0-0.1-0.1v-0.1
		c-0.2-0.2-0.2-0.3-0.2-0.5c0,0-0.1,0-0.1-0.1s-0.1-0.1-0.1-0.1s0-0.1,0-0.2C8.2,47.1,8.1,47,8,46.8c0,0,0,0,0-0.1s0-0.1,0-0.1
		s0,0-0.1-0.1c0,0-0.1,0-0.1-0.1v-0.1c0,0,0-0.1,0-0.2c0-0.1,0-0.1,0-0.2v-0.1v-0.1c0,0,0-0.1,0.1-0.1v-0.1v-0.1
		c0.1,0,0.2-0.2,0.4-0.3h0.1c0,0,0,0,0-0.1v-0.1c0,0,0.1,0,0.2-0.1c0.2-0.1,0.3-0.1,0.3-0.2c0.1,0,0.1,0,0.1,0s0,0,0.1-0.1
		c0,0,0,0,0.1,0c0,0,0.1,0,0.1-0.1l0.1-0.1c0.1,0,0.1,0,0.1,0c0.1,0,0.2-0.1,0.2-0.2c0.1,0,0.2,0,0.2-0.1c0.1,0,0.2,0,0.2,0
		c0.1,0,0.2,0,0.2,0s0.1,0,0.2-0.1c0.1-0.1,0.1-0.1,0.2-0.1c0.1,0,0.1,0,0.1,0h0.1c0.1,0,0.1,0,0.1-0.1h0.1c0,0,0.1,0,0.1-0.1
		l0.1-0.1h0.1c0,0,0.1-0.1,0.2-0.2c0.1,0,0.2,0,0.2-0.1v0.1c0.1,0,0.2-0.1,0.3-0.1c0.2,0,0.3,0,0.4,0h0.1c0,0,0.1,0,0.1-0.1h0.1
		c0,0,0.1,0,0.1-0.1l0.1-0.1c0.1,0,0.3,0,0.6,0s0.5,0,0.6,0c0,0,0.1,0,0.2,0c0.1,0,0.1,0,0.2,0h0.1c0.1,0,0.1,0,0.2,0s0.1,0,0.2,0.1
		c0.2,0,0.4,0,0.5,0.1c0.1,0,0.2,0,0.3,0.1C16.2,44,16.3,44,16.4,44z M15.8,43.8c0.1,0,0.2,0,0.3,0.1c0.1,0,0.2,0.1,0.2,0.1v0.1
		c0.2,0.1,0.4,0.2,0.5,0.4h0.1c0,0.1,0,0.1,0.1,0.2c0,0.1,0,0.1,0.1,0.2h0.1c0,0.2,0,0.4,0,0.4c0,0.1,0.1,0.1,0.1,0.2
		c0,0.1,0,0.2,0,0.2c0,0.1,0,0.2,0,0.3c-0.1,0.1-0.2,0.2-0.2,0.4H17l-0.1,0.1h-0.1h-0.1c0,0,0,0-0.1,0.1c0,0,0,0-0.1,0
		c0,0,0,0-0.1,0c0,0-0.1,0.1-0.1,0.2c0,0-0.1,0-0.2-0.1H16c0,0,0,0-0.1,0c0-0.1,0-0.2-0.2-0.3c0,0,0,0-0.1,0c0,0,0,0-0.1,0l-0.1-0.1
		h-0.1c0,0,0,0-0.1,0v-0.1c-0.1-0.1-0.2-0.1-0.3-0.1c0,0-0.1,0-0.1,0.1c-0.1,0-0.2,0-0.2,0h-0.1h-0.1h-0.1h-0.1c0,0-0.1,0-0.2-0.1
		c0,0,0,0-0.1,0.1h-0.1c0,0,0,0-0.1,0h-0.1h-0.1h-0.1h-0.1c0,0,0,0-0.1,0c0,0,0,0-0.1,0s-0.1,0-0.2,0c-0.3,0-0.4,0-0.4,0.1
		c0,0,0,0,0,0.1c0,0,0,0,0,0.1h-0.1c0,0-0.1,0-0.1-0.1c0,0-0.1,0-0.2,0.1c0,0,0,0-0.1,0c0,0,0,0-0.1,0c0,0-0.2,0.1-0.4,0.1
		s-0.3,0.1-0.4,0.1v0.1H11c0,0,0,0-0.1,0c0,0,0,0-0.1,0.1h-0.1c0,0-0.1,0-0.1,0.1h-0.1c-0.1,0-0.1,0-0.1,0s0,0,0,0.1c0,0,0,0,0,0.1
		s0,0.1,0.1,0.1h0.1c0,0,0.1,0.1,0.2,0.2c0,0,0,0,0.1,0c0,0,0,0,0.1,0c0,0,0,0,0,0.1v0.1c0.1,0,0.2,0,0.2,0.1c0.1,0,0.1,0.1,0.2,0.1
		c0,0,0,0,0.1,0.1c0.1,0,0.2,0,0.2,0.1c0,0,0.1,0,0.1,0.1h0.1c0,0,0.1,0,0.1,0.1c0,0,0.1,0,0.1,0.1c0.3,0,0.4,0.1,0.4,0.1
		c0.1,0,0.2,0,0.3,0c0,0,0.1,0,0.1,0.1c0,0,0.1,0,0.2,0s0.1,0,0.2,0c0,0,0,0,0.1,0c0,0,0,0,0.1,0h0.1c0,0,0,0,0.1,0.1
		c0,0,0,0.1,0.1,0.1s0.1,0,0.1,0H14c0.2,0.1,0.3,0.2,0.4,0.1l0.1-0.1c0.1,0,0.1,0,0.2,0c0,0,0,0,0,0.1c0.1,0.1,0.2,0.1,0.2,0.1
		s0,0,0.1,0c0,0,0,0,0.1,0c0,0.1,0,0.2,0.1,0.2c0,0,0,0,0.1,0c0,0,0,0,0.1-0.1c0.1,0,0.2,0,0.2,0c0,0.1,0.1,0.1,0.2,0.2
		c0.1,0,0.2,0.1,0.2,0.1c0.2,0,0.4,0,0.4,0.1h0.1h0.1c0,0,0.1,0,0.1,0.1l0.1,0.1c0,0,0.1,0,0.1-0.1H17c0,0.1,0,0.1,0.1,0.2
		c0.1,0,0.1,0,0.2,0s0.1,0.1,0.1,0.1h0.1h0.1c0,0,0,0,0,0.1c0,0,0.1,0.1,0.2,0.1s0.2,0.1,0.2,0.2c0,0,0.1,0,0.2,0s0.1,0.1,0.2,0.1
		c0.1,0.1,0.1,0.2,0.2,0.2c0,0,0,0,0.1,0c0,0,0,0,0.1,0c0,0,0,0,0,0.1c0,0,0.1,0.1,0.3,0.3c0.1,0.1,0.2,0.2,0.3,0.3
		c0,0,0,0.1,0.1,0.2c0,0.1,0,0.1,0,0.2c0.1,0.1,0.2,0.2,0.2,0.5c0,0,0.1,0.1,0.1,0.2c0,0.1,0.1,0.1,0.1,0.2c0,0,0,0,0,0.1
		c0,0,0,0,0,0.1v0.1V53v0.1v0.1c0,0,0,0,0,0.1s0,0.1,0,0.1s0,0.1,0,0.2c0,0.1,0,0.2,0.1,0.3c0,0,0,0,0,0.1c0,0,0,0,0,0.1
		c0,0,0,0.1,0,0.3s-0.1,0.3-0.1,0.3v0.1c0,0,0,0.1-0.1,0.1L19.7,55c0,0,0,0.1-0.1,0.2v0.1c-0.2,0.1-0.2,0.2-0.2,0.3
		c-0.1,0.2-0.2,0.3-0.3,0.3c0,0.1,0,0.3-0.1,0.3c0.2-0.3,0.1-0.2,0-0.2c0,0,0,0.1-0.1,0.1c0,0,0,0,0,0.1c0,0,0,0-0.1,0
		c0,0,0,0-0.1-0.1c0,0-0.1,0.1,0,0.2c0,0-0.1,0.1-0.4,0.2v0.1c-0.2,0.1-0.3,0.2-0.3,0.2s-0.1,0.1-0.2,0.2c-0.1,0-0.2,0.1-0.3,0.1
		c-0.1,0.1-0.2,0.1-0.2,0.1v0.1c0,0.1,0,0.1,0,0.1s0,0-0.1-0.1c0,0,0-0.1-0.1-0.1s-0.1,0-0.1,0.1c-0.1,0-0.1,0.1-0.2,0.1l-0.1,0.1
		h-0.1c-0.1,0-0.1,0-0.1,0c-0.1,0-0.2,0.1-0.2,0c-0.1,0.1-0.2,0.1-0.2,0.1c-0.1,0.1-0.1,0.2-0.2,0.1h-0.1c0,0-0.1,0-0.1,0.1
		l-0.1,0.1c-0.1,0-0.2,0-0.2,0.1c-0.1,0-0.2,0.1-0.2,0.1s-0.1,0-0.2,0c-0.1,0-0.1,0-0.1,0s-0.1,0-0.2,0.1c-0.1,0-0.1,0.1-0.2,0.1
		h-0.1h-0.1c0,0,0,0-0.1,0.1c0,0-0.1,0-0.4,0c0,0,0,0-0.1-0.1c-0.2-0.1-0.3-0.1-0.4,0h-0.1l-0.1,0.1c0-0.1-0.2-0.1-0.4-0.1
		c-0.1,0-0.2,0-0.2,0c-0.1-0.1-0.1-0.1-0.1-0.1s0,0-0.1,0.1h-0.1c0,0,0,0,0-0.1c0,0,0,0,0-0.1c0,0-0.1,0-0.2,0c-0.1,0-0.1,0-0.1,0
		s-0.1,0-0.1-0.1h-0.1v0c0,0-0.1,0-0.2,0l0,0c0,0,0,0,0-0.1c0,0-0.1,0-0.1-0.1s-0.1-0.1-0.1-0.1c-0.1-0.1-0.2-0.1-0.2-0.1v-0.1
		c0,0-0.1-0.1-0.2-0.2c-0.1-0.1-0.1-0.1-0.2-0.1c0,0,0,0-0.1,0c0,0,0,0-0.1,0c0-0.1,0-0.2-0.1-0.3s-0.2-0.1-0.2-0.1s0,0,0-0.1
		c0,0,0,0,0-0.1c0,0-0.1,0-0.1-0.1S10,56.4,10,56.4c0-0.1,0-0.2,0-0.2v-0.1V56v-0.1c0,0,0-0.1-0.1-0.1c0,0,0,0,0-0.1c0,0,0,0,0-0.1
		c0,0,0-0.1-0.1-0.2c0-0.1-0.1-0.1-0.1-0.1s0-0.1,0.1-0.2C9.8,55,9.9,55,9.9,55s0,0,0.1,0c0,0,0,0,0.1,0c0,0,0-0.1-0.1-0.3
		c0.1,0,0.1,0,0.2,0c0,0,0.1-0.1,0-0.2c0,0,0.1-0.1,0.1-0.2s0.1-0.1,0.1-0.2c0,0,0.1,0,0.1,0.1c0,0,0.1,0,0.1-0.1V54l0.1-0.1
		c0.1,0,0.1,0,0.1,0s0,0,0.1-0.1H11c0,0,0,0,0.1,0.1c0,0,0,0,0.1,0c0,0,0,0,0.1,0c0.1,0.1,0.2,0.2,0.2,0.2c0.1,0,0.1,0,0.1,0
		s0,0,0.1,0s0.1,0.1,0.2,0.1l0.1,0.1c0,0,0.1,0,0.1,0.1c0,0,0.1,0.1,0.1,0.2s0.1,0.1,0.1,0.2c0.1,0,0.2,0.1,0.3,0.2
		c0.1,0.1,0.2,0.2,0.3,0.3c0,0,0,0,0,0.1c0,0,0,0,0,0.1l0.2,0.1h0.1c0.1,0,0.1,0,0.1,0s0,0,0.1,0.1c0,0,0,0,0.1,0c0,0,0.1,0,0.2,0
		c0.1,0,0.2,0,0.2,0s0,0,0.1,0.1c0,0,0,0.1,0.1,0.1s0.1,0,0.2,0c0.1,0,0.1-0.1,0.1-0.1s0,0,0.1,0h0.1c0,0,0.1,0,0.1-0.1
		c0.1,0,0.1,0,0.2,0H15h0.1c0,0,0,0,0.1,0l0,0c0,0,0,0,0.1,0h0.1c0,0,0,0,0.1-0.1h0.1c0,0,0.1,0,0.1-0.1c0,0,0,0,0.1,0
		c0,0,0,0,0.1,0H16c0.1,0,0.1-0.1,0.1-0.2c0,0,0.1,0,0.1,0.1c0,0,0.1,0,0.1-0.1c0.1-0.1,0.1-0.1,0.2-0.1c0-0.1,0.2-0.2,0.4-0.4
		c0.2-0.1,0.4-0.3,0.4-0.4c0.1,0,0.2-0.1,0.2-0.2c0,0,0.1-0.1,0.2-0.2c0.1-0.1,0.1-0.1,0.1-0.2v-0.1c0,0,0-0.1,0.1-0.1v-0.2
		c0.1,0,0.1-0.1,0.1-0.1c0-0.1,0-0.2,0-0.3s0-0.2,0-0.3c0,0,0,0-0.1-0.1c0,0,0,0,0-0.1c0,0,0-0.1-0.1-0.2l-0.1-0.1
		c-0.1,0-0.1-0.1-0.1-0.1c-0.1,0-0.1,0.1-0.2,0V52h-0.1c0,0,0,0,0-0.1s0-0.1,0-0.1s0,0-0.1,0h-0.1c0,0,0,0-0.1-0.1
		c0,0,0-0.1-0.1-0.1c0,0-0.1,0-0.2,0s-0.2,0-0.2,0c-0.1,0-0.2-0.1-0.3,0c0,0,0,0,0-0.1c0,0-0.1-0.1-0.3-0.1s-0.3-0.1-0.3-0.1
		c-0.1-0.1-0.4-0.2-0.7-0.2l0,0l0,0c0,0,0,0,0-0.1c0,0-0.1,0-0.2-0.1c-0.1-0.1-0.1-0.1-0.2-0.1c0,0,0,0-0.1,0.1c0,0,0,0-0.1,0.1
		c0,0,0-0.1-0.1-0.1s-0.1-0.1-0.1-0.1c0-0.1-0.1-0.1-0.2,0c0-0.1-0.1-0.2-0.1-0.2c-0.1,0.1-0.2,0.1-0.3,0c0,0-0.2-0.1-0.4,0
		c0-0.1-0.1-0.2-0.1-0.2c-0.1,0-0.3,0-0.4-0.1c0,0-0.1,0-0.2,0c0,0,0,0-0.1,0l0,0c0,0,0,0-0.1,0c0,0,0,0-0.1,0c0,0,0,0-0.1,0
		c-0.2-0.1-0.3-0.1-0.5,0c0,0,0,0,0-0.1c0,0,0,0-0.1-0.1c0,0,0,0-0.1,0c0,0,0,0-0.1-0.1c0,0,0,0-0.1-0.1c0,0-0.1,0-0.2-0.1
		c-0.1,0-0.2,0-0.2-0.1l-0.1-0.1h-0.1h-0.1c0-0.1,0-0.1,0-0.1s0,0-0.1,0c0,0,0,0-0.1,0s0,0,0,0s0,0,0-0.1l0,0c0,0,0,0,0-0.1
		c0,0,0,0-0.1,0H10c0,0,0,0,0-0.1l0,0c0-0.1-0.1-0.1-0.2-0.1c-0.1,0-0.1-0.1-0.1-0.2H9.6H9.5c0,0,0-0.1-0.1-0.2
		c0-0.1-0.1-0.1-0.2-0.2C9.1,48.4,9,48.3,9,48.3H8.9c0,0-0.1,0-0.1-0.1v-0.1c-0.2-0.2-0.2-0.3-0.2-0.5c0,0-0.1,0-0.1-0.1
		s-0.1-0.1-0.1-0.1s0-0.1,0-0.2C8.2,47.1,8.1,47,8,46.8c0,0,0,0,0-0.1s0-0.1,0-0.1s0,0-0.1-0.1c0,0-0.1,0-0.1-0.1v-0.1
		c0,0,0-0.1,0-0.2c0-0.1,0-0.1,0-0.2v-0.1v-0.1c0,0,0-0.1,0.1-0.1v-0.1v-0.1c0.1,0,0.2-0.2,0.4-0.3h0.1c0,0,0,0,0-0.1v-0.1
		c0,0,0.1,0,0.2-0.1c0.2-0.1,0.3-0.1,0.3-0.2c0.1,0,0.1,0,0.1,0s0,0,0.1-0.1c0,0,0,0,0.1,0c0,0,0.1,0,0.1-0.1l0.1-0.1
		c0.1,0,0.1,0,0.1,0c0.1,0,0.2-0.1,0.2-0.2c0.1,0,0.2,0,0.2-0.1c0.1,0,0.2,0,0.2,0c0.1,0,0.2,0,0.2,0s0.1,0,0.2-0.1
		c0.1-0.1,0.1-0.1,0.2-0.1c0.1,0,0.1,0,0.1,0h0.1c0.1,0,0.1,0,0.1-0.1h0.1c0,0,0.1,0,0.1-0.1l0.1-0.1h0.1c0,0,0.1-0.1,0.2-0.2
		c0.1,0,0.2,0,0.2-0.1v0.1c0.1,0,0.2-0.1,0.3-0.1c0.2,0,0.3,0,0.4,0h0.1c0,0,0.1,0,0.1-0.1h0.1c0,0,0.1,0,0.1-0.1l0.1-0.1
		c0.1,0,0.3,0,0.6,0s0.5,0,0.6,0c0,0,0.1,0,0.2,0c0.1,0,0.1,0,0.2,0h0.1c0.1,0,0.1,0,0.2,0c0,0,0.1,0.1,0.2,0.1
		C15.6,43.7,15.8,43.8,15.8,43.8z"/>
	<path fill="#54813B" d="M29.2,40.6c0,0,0.1,0,0.2,0s0.1,0,0.2,0l0,0c0,0,0,0,0,0.1c0,0,0.1,0,0.2,0s0.1,0,0.1,0.1
		c0.1,0,0.2,0,0.4,0.1c0.4,0,0.7,0.1,0.7,0.2h0.1c0,0,0.1,0.1,0.3,0.2c0.1,0.1,0.2,0.1,0.3,0.2v0.1c0.1,0.1,0.3,0.3,0.4,0.6
		c0,0,0,0,0.1,0l0,0c0,0.1,0,0.2,0,0.3s0,0.2,0,0.2c0,0.1-0.1,0.1-0.1,0.2L32,43c0,0.1,0,0.2-0.1,0.2v0.1l-0.1,0.1c0,0,0,0-0.1,0
		c0,0,0,0-0.1,0c0,0,0,0.1-0.1,0.1h-0.1c0,0,0,0-0.1,0.1c0,0,0,0-0.1,0.1c-0.1,0-0.2,0-0.2,0c0,0.1,0,0.1,0,0.1h-0.1
		c-0.1,0-0.1,0-0.1,0s0,0-0.1,0c0,0,0,0-0.1,0c0,0,0,0,0.1-0.1c0,0,0-0.1-0.1-0.1c0-0.1,0-0.1-0.1-0.1c0,0-0.1,0-0.1,0.1h-0.1
		c0,0,0-0.1-0.1-0.2c0-0.1-0.1-0.1-0.1-0.1v0.1v0.1c0,0,0-0.1-0.1-0.1c0,0,0-0.1-0.1-0.1c0,0,0,0-0.1-0.1c0-0.1-0.2-0.2-0.5-0.2
		c0,0-0.1,0-0.2,0.1c0,0-0.1,0-0.2,0s-0.1,0-0.1,0s0,0-0.1,0.1c0,0-0.2,0-0.4,0c-0.3,0-0.4,0.1-0.4,0.2c-0.1-0.1-0.2-0.1-0.3,0
		c-0.1,0-0.1,0-0.2,0s-0.1,0-0.2,0v0.1c-0.1,0-0.2,0-0.2,0c-0.1,0-0.2-0.1-0.2,0c0,0,0,0-0.1,0.1c0,0,0,0.1-0.1,0.1c0,0-0.1,0-0.2,0
		s-0.1,0-0.1,0s-0.1,0-0.1,0.1h-0.1H26v0.1c-0.2,0-0.4,0-0.5,0c0,0,0,0,0,0.1c0,0,0,0,0,0.1C25.3,44,25.1,44,25,44.2
		c0,0-0.1,0-0.1-0.1c-0.1,0-0.1,0.1,0,0.2c0,0,0,0.1,0.1,0.1v0.1v0.1v0.1c0,0.1,0,0.2,0.1,0.2c0,0.1,0,0.2,0.1,0.3s0.1,0.2,0,0.3
		c0,0.1,0,0.2,0.1,0.2c0,0,0,0,0,0.1c0,0,0,0,0,0.1V46c0,0,0,0.1,0.1,0.1c0,0.5,0,0.8,0,0.9c-0.1,0.1-0.1,0.3,0,0.5c0,0,0,0.1,0,0.2
		c0,0,0,0.1-0.1,0.1v0.1c0.1,0,0.1,0.1,0.1,0.1s0,0,0,0.1c0,0,0,0,0,0.1s0,0.2,0,0.4s0,0.4,0,0.4s0,0.1,0,0.2c0,0.1,0.1,0.1,0.2,0.1
		s0.2-0.1,0.2-0.1c0.2,0,0.4,0,0.5-0.1c0.3,0,0.4,0,0.5,0s0.2,0,0.3,0c0,0,0.1,0,0.1-0.1c0.1,0,0.1-0.1,0.1-0.1h0.1
		c0.1,0,0.2,0,0.2-0.1c0.2,0,0.3,0,0.4,0c0,0,0,0,0.1,0c0,0,0,0,0.1,0s0.1,0,0.1,0h0.1c0.1,0,0.2,0,0.4,0v-0.1c0.1,0,0.2,0.1,0.4,0
		c0.1,0,0.2-0.1,0.3-0.1h0.1l0.1-0.1c0,0,0,0,0.1,0c0,0,0,0,0.1,0.1c0,0,0.1,0,0.1-0.1c0.1-0.1,0.1-0.1,0.2-0.1l0.1-0.1
		c0,0,0,0,0.1,0.1c0.2,0,0.3,0,0.4-0.1c0,0,0.1,0,0.2,0s0.1,0,0.1,0s0.1,0,0.2,0.1c0.1,0,0.1,0.1,0.2,0.1s0.2,0.1,0.2,0.1
		s0.1,0,0.2,0c0,0,0,0,0.1,0c0,0,0,0,0.1,0.1c0.2,0,0.3,0,0.3,0s0,0.1,0.1,0.2V49c0,0,0,0.1,0.1,0.2c0,0.2,0.1,0.3,0.2,0.3
		c0,0,0,0-0.1,0.1c0,0.1,0,0.2-0.1,0.3c0,0.1-0.1,0.2-0.1,0.2h-0.1c0,0,0,0,0,0.1c0,0,0,0,0,0.1h-0.1l0,0h-0.1c0,0,0,0-0.1-0.1
		c0,0,0,0-0.1,0c0,0-0.1,0-0.1,0.1h-0.1c0,0-0.1,0.1-0.3,0.1c-0.2,0-0.2,0.1-0.2,0.2c-0.2,0-0.4,0-0.5,0.2c0,0,0,0-0.1,0
		c0,0,0,0-0.1,0.1c0,0,0,0,0,0.1c-0.1,0-0.1,0-0.2-0.1c0,0,0,0-0.1,0c0,0,0,0,0,0.1c0,0-0.1,0-0.2,0s-0.2,0-0.2,0s-0.1,0-0.1,0.1
		l-0.1,0.1c-0.1,0-0.1,0-0.2,0s-0.1,0-0.1,0.1c0,0-0.1-0.1-0.2-0.1s-0.2,0-0.2,0.1v0.1c0,0-0.1,0-0.2,0s-0.1,0-0.1,0s-0.1,0-0.2,0
		v0.1c0,0-0.1,0-0.2,0h-0.1c0,0-0.1,0.1,0,0.1L28,51.5c0,0-0.1,0-0.4,0c0,0,0,0.1-0.1,0.1s0,0.1-0.1,0.1c-0.2,0-0.3,0-0.3,0L27,51.8
		c-0.3,0-0.4,0-0.4,0s-0.1,0-0.2,0.1c0,0,0,0,0,0.1c-0.2,0.1-0.3,0.1-0.4,0c0,0-0.1,0-0.1,0.1s-0.1,0.1-0.1,0.1s0,0-0.1-0.1
		c0,0,0-0.1-0.1-0.1c0,0-0.1,0-0.2,0.1c-0.1,0-0.1,0-0.1,0c-0.1,0-0.1,0.1,0,0.4v0.1v0.1c0,0,0,0.1,0.1,0.1c0,0.1,0,0.2-0.1,0.2v0.1
		c0,0.1,0,0.2,0.1,0.2c0,0,0,0,0,0.1c0,0,0,0,0,0.1c0,0,0,0.1-0.1,0.2c0.1,0,0.1,0.2,0.1,0.4s0,0.4,0.1,0.5c-0.1,0.2-0.1,0.3,0,0.4
		c0,0,0,0.1,0,0.2v0.1v0.1c0.1,0.2,0.1,0.3,0.1,0.4c0,0,0.1,0.1,0.1,0.2c0,0.1,0.1,0.2,0.1,0.2c0.1,0,0.2,0,0.3,0.1
		c0.2,0,0.3,0,0.3,0s0,0,0.1-0.1c0,0,0.1,0,0.1,0.1c0.4,0,0.6,0,0.6-0.1c0,0,0.1,0,0.3,0c0.1,0,0.2,0,0.3,0c0-0.1,0.2-0.1,0.5-0.1
		c0,0,0,0,0-0.1s0-0.1,0-0.1s0.1,0,0.2,0s0.1,0,0.2,0c0,0,0.1-0.1,0.2-0.1s0.1-0.1,0.2-0.1s0.3,0,0.4-0.1c0.2-0.1,0.3-0.2,0.4-0.2
		c0-0.1,0-0.1,0.1-0.1s0.2,0,0.3,0c0.2,0,0.3-0.1,0.5-0.2c0.1,0,0.2,0,0.2,0c0.1-0.1,0.2-0.1,0.2-0.1c0.4,0,0.6,0,0.7,0.1H32
		c0,0.1,0.1,0.2,0.2,0.3h0.1c0,0,0.1,0.1,0.2,0.2c0,0.1,0.1,0.2,0.2,0.3c0,0,0,0.1,0.1,0.2c0.1,0.1,0.1,0.1,0.1,0.2c0,0,0,0,0,0.1
		s0,0.1,0,0.1c-0.1,0.1-0.2,0.3-0.2,0.4c-0.1,0-0.2,0.1-0.2,0.2c-0.2,0-0.3,0.1-0.3,0.4c0,0,0,0-0.1,0c0,0,0,0-0.1,0
		c0,0,0,0.1-0.1,0.2c0,0,0,0-0.1,0c0,0,0,0-0.1,0s-0.1,0-0.1,0.1c-0.2,0-0.2,0-0.2,0.1h-0.1c-0.1,0.2-0.2,0.2-0.4,0.1
		c0,0-0.1,0-0.1,0.1c0,0,0,0-0.1,0s-0.2-0.1-0.2,0c0,0-0.1,0.1-0.1,0.2h-0.1c0,0,0,0,0,0.1v0.1c0,0-0.1,0-0.2-0.1
		c-0.1,0-0.2,0-0.2,0s0,0-0.1,0.1c0,0,0,0-0.1,0.1c0,0,0,0-0.1,0c0,0,0,0-0.1,0c0,0,0,0-0.1,0.1c-0.1,0-0.2,0-0.4,0c0,0,0,0,0,0.1
		c-0.1,0-0.2,0-0.2,0c-0.1,0-0.2,0-0.2,0.1c0,0,0,0-0.1,0c0,0,0,0-0.1,0c0,0-0.1,0-0.2,0S28,58.9,28,59v0.1c0,0-0.1,0-0.2,0h-0.1
		c0,0,0-0.1-0.1-0.1c-0.2,0-0.4,0.1-0.4,0.1v0.1h-0.1c0,0,0,0-0.1-0.1c0,0,0,0-0.1,0.1c0,0,0,0-0.1,0s-0.1,0-0.1,0
		c-0.1,0-0.1,0-0.2,0v-0.1h-0.1c-0.1,0-0.1,0-0.1,0.1c-0.2,0-0.3,0-0.5,0c0-0.1,0-0.1-0.1-0.1h-0.1c0,0,0,0,0,0.1v0.1c0,0,0,0,0-0.1
		s0-0.1,0-0.1h-0.1V59c0-0.1-0.1-0.1-0.2-0.1s-0.1-0.1-0.2-0.1c0,0-0.1,0-0.1-0.1s-0.1-0.1-0.1-0.1s0,0-0.1,0c0,0,0,0-0.1,0v-0.1
		c0,0,0-0.1-0.1-0.1s0,0-0.1,0h-0.1c0-0.1,0-0.2-0.2-0.3V58c-0.1-0.1-0.2-0.2-0.2-0.2h-0.1c-0.1,0-0.1-0.1-0.2-0.2
		c-0.1-0.1-0.1-0.1-0.2-0.2c-0.1-0.1-0.1-0.2-0.2-0.2c-0.1-0.3-0.2-0.5-0.2-0.5s0-0.1-0.1-0.2c0,0,0-0.1,0-0.2c0-0.1,0-0.2,0-0.2
		s0-0.1-0.1-0.1c0,0,0,0,0-0.1c0,0,0,0,0-0.1c0,0,0-0.1,0-0.3s0-0.2-0.1-0.3c0,0,0-0.1,0-0.3s0-0.2,0-0.3c0-0.3,0-0.8,0-1.5
		s0-1.2,0-1.5c0.1,0,0.1,0,0.1-0.1s-0.1-0.1-0.1-0.2c0-0.1,0-0.2,0.1-0.3c0-0.1,0.1-0.2,0.1-0.2l-0.1-0.1c0,0,0-0.1,0.1-0.1
		c0-0.1,0-0.6,0-1.4l0.1-0.1c0,0,0-0.1-0.1-0.1c0,0,0.1-0.1,0-0.2c0-0.1,0-0.2,0-0.3v-0.1c0-0.1,0-0.1,0-0.2c0,0,0-0.2,0-0.5
		s0-0.4-0.1-0.4c0.1,0,0.1-0.1,0.1-0.3s0-0.3,0-0.3l-0.1-0.1c0-0.2,0-0.3,0.1-0.3c0,0,0,0-0.1-0.1c0,0,0,0,0-0.1c0-0.3,0-0.4,0-0.4
		s0,0-0.1,0c0,0,0,0-0.1,0c0-0.3,0-0.5,0-0.6h-0.1c0,0,0-0.1,0-0.2c0,0,0,0,0-0.1c0,0,0,0,0-0.1v-0.1v-0.1c0,0,0-0.1-0.1-0.1
		c-0.1-0.1-0.1-0.2,0-0.2l-0.1-0.1V44c0,0-0.1-0.1-0.2-0.2c0-0.1,0-0.1,0-0.2v-0.1c0-0.1,0-0.2,0-0.3c0.1-0.1,0.1-0.2,0.1-0.3
		c0,0,0.1-0.1,0.1-0.2c0.1-0.1,0.1-0.2,0.2-0.2l0,0c0,0,0,0,0-0.1l0.1,0.1c0,0,0.1,0,0.2,0s0.1,0,0.2,0c0,0,0.1,0,0.2-0.1
		s0.1-0.1,0.1-0.1s0.1,0,0.2,0s0.2,0,0.2,0s0,0,0.1,0c0,0,0,0,0.1,0c0.2,0,0.3,0,0.3-0.1c0.4-0.1,0.5-0.1,0.6-0.1h0.2c0,0,0,0,0.1,0
		c0,0,0,0,0.1,0h0.1c0,0,0.1,0,0.2-0.1c0.1,0,0.1-0.1,0.2-0.1v-0.1h0.1c0,0,0,0,0,0.1V42c0.2,0,0.3-0.1,0.4-0.1c0,0,0.1,0,0.2,0.1
		l0.2-0.1c0,0,0.1-0.1,0.2-0.2c0,0.1,0,0.1,0.1,0.1c0,0,0.1,0,0.1-0.1c0.1,0,0.1,0,0.1,0h0.1c0,0,0.1,0,0.1-0.1h0.1
		c0.1,0,0.1,0,0.2,0s0.2,0,0.3-0.1h0.1c0,0,0.1,0,0.1-0.1c0.1,0,0.1,0,0.1,0s0.1,0,0.2-0.1h0.1h0.1l0,0l0,0
		C29,40.9,29.2,40.8,29.2,40.6z M28.5,40.8c0.5,0.1,0.7,0,0.7-0.1c0,0,0.1,0,0.3,0c0,0,0,0,0,0.1c0,0,0,0,0,0.1c0,0,0.1,0,0.2,0
		s0.1,0,0.1,0.1c0.1,0,0.2,0,0.4,0.1c0.4,0,0.7,0.1,0.7,0.2H31c0,0,0.1,0.1,0.3,0.2c0.1,0.1,0.2,0.1,0.3,0.2v0.1
		c0.1,0.1,0.3,0.3,0.4,0.6c0,0,0.1,0,0.1,0.1s0,0.2,0,0.3s0,0.2,0,0.2c0,0.1-0.1,0.1-0.1,0.2l-0.1,0.1c0,0.1,0,0.2-0.1,0.2v0.1
		l-0.1,0.1c0,0,0,0-0.1,0c0,0,0,0-0.1,0c0,0,0,0.1-0.1,0.1h-0.1c0,0,0,0-0.1,0.1c0,0,0,0-0.1,0.1c-0.1,0-0.2,0-0.2,0
		c0,0.1,0,0.1,0,0.1h-0.1c-0.1,0-0.1,0-0.1,0s0,0-0.1,0c0,0,0,0-0.1,0c0,0,0,0,0.1-0.1c0,0,0-0.1-0.1-0.1c0-0.1,0-0.1-0.1-0.1
		c0,0-0.1,0-0.1,0.1h-0.1c0,0,0-0.1-0.1-0.2c0-0.1-0.1-0.1-0.1-0.1v0.1v0.1c0,0,0-0.1-0.1-0.1c0,0,0-0.1-0.1-0.1c0,0,0,0-0.1-0.1
		c0-0.1-0.2-0.2-0.5-0.2c0,0-0.1,0-0.2,0.1c0,0-0.1,0-0.2,0s-0.1,0-0.1,0s0,0-0.1,0.1c0,0-0.2,0-0.4,0c-0.3,0-0.4,0.1-0.4,0.2
		c-0.1-0.1-0.2-0.1-0.3,0c-0.1,0-0.1,0-0.2,0s-0.1,0-0.2,0v0.1c-0.1,0-0.2,0-0.2,0c-0.1,0-0.2-0.1-0.2,0c0,0,0,0-0.1,0.1
		c0,0,0,0.1-0.1,0.1c0,0-0.1,0-0.2,0s-0.1,0-0.1,0s-0.1,0-0.1,0.1H26h-0.1v0.1c-0.2,0-0.4,0-0.5,0c0,0,0,0,0,0.1c0,0,0,0,0,0.1
		C25.3,44,25.1,44,25,44.2c0,0-0.1,0-0.1-0.1c-0.1,0-0.1,0.1,0,0.2c0,0,0,0.1,0.1,0.1v0.1v0.1v0.1c0,0.1,0,0.2,0.1,0.2
		c0,0.1,0,0.2,0.1,0.3s0.1,0.2,0,0.3c0,0.1,0,0.2,0.1,0.2c0,0,0,0,0,0.1c0,0,0,0,0,0.1V46c0,0,0,0.1,0.1,0.1c0,0.5,0,0.8,0,0.9
		c-0.1,0.1-0.1,0.3,0,0.5c0,0,0,0.1,0,0.2c0,0,0,0.1-0.1,0.1v0.1c0.1,0,0.1,0.1,0.1,0.1s0,0,0,0.1c0,0,0,0,0,0.1s0,0.2,0,0.4
		s0,0.4,0,0.4s0,0.1,0,0.2c0,0.1,0.1,0.1,0.2,0.1s0.2-0.1,0.2-0.1c0.2,0,0.4,0,0.5-0.1c0.3,0,0.4,0,0.5,0s0.2,0,0.3,0
		c0,0,0.1,0,0.1-0.1c0.1,0,0.1-0.1,0.1-0.1h0.1c0.1,0,0.2,0,0.2-0.1c0.2,0,0.3,0,0.4,0c0,0,0,0,0.1,0c0,0,0,0,0.1,0s0.1,0,0.1,0h0.1
		c0.1,0,0.2,0,0.4,0v-0.1c0.1,0,0.2,0.1,0.4,0c0.1,0,0.2-0.1,0.3-0.1h0.1l0.1-0.1c0,0,0,0,0.1,0c0,0,0,0,0.1,0.1c0,0,0.1,0,0.1-0.1
		c0.1-0.1,0.1-0.1,0.2-0.1l0.1-0.1c0,0,0,0,0.1,0.1c0.2,0,0.3,0,0.4-0.1c0,0,0.1,0,0.2,0s0.1,0,0.1,0s0.1,0,0.2,0.1
		c0.1,0,0.1,0.1,0.2,0.1s0.2,0.1,0.2,0.1s0.1,0,0.2,0c0,0,0,0,0.1,0c0,0,0,0,0.1,0.1c0.2,0,0.3,0,0.3,0s0,0.1,0.1,0.2V49
		c0,0,0,0.1,0.1,0.2c0,0.2,0.1,0.3,0.2,0.3c0,0,0,0-0.1,0.1c0,0.1,0,0.2-0.1,0.3c0,0.1-0.1,0.2-0.1,0.2h-0.1c0,0,0,0,0,0.1
		c0,0,0,0,0,0.1h-0.1l0,0h-0.1c0,0,0,0-0.1-0.1c0,0,0,0-0.1,0c0,0-0.1,0-0.1,0.1h-0.1c0,0-0.1,0.1-0.3,0.1c-0.2,0-0.2,0.1-0.2,0.2
		c-0.2,0-0.4,0-0.5,0.2c0,0,0,0-0.1,0c0,0,0,0-0.1,0.1c0,0,0,0,0,0.1c-0.1,0-0.1,0-0.2-0.1c0,0,0,0-0.1,0c0,0,0,0,0,0.1
		c0,0-0.1,0-0.2,0s-0.2,0-0.2,0s-0.1,0-0.1,0.1l-0.1,0.1c-0.1,0-0.1,0-0.2,0s-0.1,0-0.1,0.1c0,0-0.1-0.1-0.2-0.1s-0.2,0-0.2,0.1v0.1
		c0,0-0.1,0-0.2,0s-0.1,0-0.1,0s-0.1,0-0.2,0v0.1c0,0-0.1,0-0.2,0h-0.1c0,0-0.1,0.1,0,0.1L28,51.5c0,0-0.1,0-0.4,0
		c0,0,0,0.1-0.1,0.1s0,0.1-0.1,0.1c-0.2,0-0.3,0-0.3,0L27,51.8c-0.3,0-0.4,0-0.4,0s-0.1,0-0.2,0.1c0,0,0,0,0,0.1
		c-0.2,0.1-0.3,0.1-0.4,0c0,0-0.1,0-0.1,0.1s-0.1,0.1-0.1,0.1s0,0-0.1-0.1c0,0,0-0.1-0.1-0.1c0,0-0.1,0-0.2,0.1c-0.1,0-0.1,0-0.1,0
		c-0.1,0-0.1,0.1,0,0.4v0.1v0.1c0,0,0,0.1,0.1,0.1c0,0.1,0,0.2-0.1,0.2v0.1c0,0.1,0,0.2,0.1,0.2c0,0,0,0,0,0.1c0,0,0,0,0,0.1
		c0,0,0,0.1-0.1,0.2c0.1,0.1,0.1,0.2,0.1,0.4s0,0.4,0.1,0.5c-0.1,0.2-0.1,0.3,0,0.4c0,0,0,0.1,0,0.2v0.1v0.1
		c0.1,0.2,0.1,0.3,0.1,0.4c0,0,0.1,0.1,0.1,0.2c0,0.1,0.1,0.2,0.1,0.2c0.1,0,0.2,0,0.3,0.1c0.2,0,0.3,0,0.3,0s0,0,0.1-0.1
		c0,0,0.1,0,0.1,0.1c0.4,0,0.6,0,0.6-0.1c0,0,0.1,0,0.3,0c0.1,0,0.2,0,0.3,0c0-0.1,0.2-0.1,0.5-0.1c0,0,0,0,0-0.1s0-0.1,0-0.1
		s0.1,0,0.2,0s0.1,0,0.2,0c0,0,0.1-0.1,0.2-0.1s0.1-0.1,0.2-0.1s0.3,0,0.4-0.1c0.2-0.1,0.3-0.2,0.4-0.2c0-0.1,0-0.1,0.1-0.1
		s0.2,0,0.3,0c0.2,0,0.3-0.1,0.5-0.2c0.1,0,0.2,0,0.2,0c0.1-0.1,0.2-0.1,0.2-0.1c0.4,0,0.6,0,0.7,0.1H32c0,0.1,0.1,0.2,0.2,0.3h0.1
		c0,0,0.1,0.1,0.2,0.2c0,0.1,0.1,0.2,0.2,0.3c0,0,0,0.1,0.1,0.2c0.1,0.1,0.1,0.1,0.1,0.2c0,0,0,0,0,0.1s0,0.1,0,0.1
		c-0.1,0.1-0.2,0.3-0.2,0.4c-0.1,0-0.2,0.1-0.2,0.2c-0.2,0-0.3,0.1-0.3,0.4c0,0,0,0-0.1,0c0,0,0,0-0.1,0c0,0,0,0.1-0.1,0.2
		c0,0,0,0-0.1,0c0,0,0,0-0.1,0s-0.1,0-0.1,0.1c-0.2,0-0.2,0-0.2,0.1h-0.1c-0.1,0.2-0.2,0.2-0.4,0.1c0,0-0.1,0-0.1,0.1c0,0,0,0-0.1,0
		s-0.2-0.1-0.2,0c0,0-0.1,0.1-0.1,0.2h-0.1c0,0,0,0,0,0.1v0.1c0,0-0.1,0-0.2-0.1c-0.1,0-0.2,0-0.2,0s0,0-0.1,0.1c0,0,0,0-0.1,0.1
		c0,0,0,0-0.1,0c0,0,0,0-0.1,0c0,0,0,0-0.1,0.1c-0.1,0-0.2,0-0.4,0c0,0,0,0,0,0.1c-0.1,0-0.2,0-0.2,0c-0.1,0-0.2,0-0.2,0.1
		c0,0,0,0-0.1,0c0,0,0,0-0.1,0c0,0-0.1,0-0.2,0S28,58.9,28,59v0.1c0,0-0.1,0-0.2,0h-0.1c0,0,0-0.1-0.1-0.1c-0.2,0-0.4,0.1-0.4,0.1
		v0.1h-0.1c0,0,0,0-0.1-0.1c0,0,0,0-0.1,0.1c0,0,0,0-0.1,0s-0.1,0-0.1,0c-0.1,0-0.1,0-0.2,0v-0.1h-0.1c-0.1,0-0.1,0-0.1,0.1
		c-0.2,0-0.3,0-0.5,0c0-0.1,0-0.1-0.1-0.1h-0.1c0,0,0,0,0,0.1v0.1c0,0,0,0,0-0.1s0-0.1,0-0.1h-0.1V59c0-0.1-0.1-0.1-0.2-0.1
		s-0.1-0.1-0.2-0.1c0,0-0.1,0-0.1-0.1s-0.1-0.1-0.1-0.1s0,0-0.1,0c0,0,0,0-0.1,0v-0.1c0,0,0-0.1-0.1-0.1s0,0-0.1,0h-0.1
		c0-0.1,0-0.2-0.2-0.3V58c-0.1-0.1-0.2-0.2-0.2-0.2h-0.1c-0.1,0-0.1-0.1-0.2-0.2c-0.1-0.1-0.1-0.1-0.2-0.2c-0.1-0.1-0.1-0.2-0.2-0.2
		c-0.1-0.3-0.2-0.5-0.2-0.5s0-0.1-0.1-0.2c0,0,0-0.1,0-0.2c0-0.1,0-0.2,0-0.2s0-0.1-0.1-0.1c0,0,0,0,0-0.1c0,0,0,0,0-0.1
		c0,0,0-0.1,0-0.3s0-0.2-0.1-0.3c0,0,0-0.1,0-0.3s0-0.2,0-0.3c0-0.3,0-0.8,0-1.5s0-1.2,0-1.5c0.1,0,0.1,0,0.1-0.1s-0.1-0.1-0.1-0.2
		c0-0.1,0-0.2,0.1-0.3c0-0.1,0.1-0.2,0.1-0.2l-0.1-0.1c0,0,0-0.1,0.1-0.1c0-0.1,0-0.6,0-1.4l0.1-0.1c0,0,0-0.1-0.1-0.1
		c0,0,0.1-0.1,0-0.2c0-0.1,0-0.2,0-0.3c0,0,0,0,0-0.1s0-0.2,0-0.2s0-0.2,0-0.5s0-0.4-0.1-0.4c0.1,0,0.1-0.1,0.1-0.3s0-0.3,0-0.3
		l-0.1-0.1c0-0.2,0-0.3,0.1-0.3c0,0,0,0-0.1-0.1c0,0,0,0,0-0.1c0-0.3,0-0.4,0-0.4s0,0-0.1,0c0,0,0,0-0.1,0c0-0.3,0-0.5,0-0.6h-0.1
		c0,0,0-0.1,0-0.2c0,0,0,0,0-0.1c0,0,0,0,0-0.1v-0.1v-0.1c0,0,0-0.1-0.1-0.1c-0.1-0.1-0.1-0.2,0-0.2l-0.1-0.1V44
		c0,0-0.1-0.1-0.2-0.2c0-0.1,0-0.1,0-0.2v-0.1c0-0.1,0-0.2,0-0.3c0.1-0.1,0.1-0.2,0.1-0.3c0,0,0.1-0.1,0.1-0.2
		c0.1-0.1,0.1-0.2,0.2-0.2l0,0c0,0,0,0,0-0.1l0.1,0.1c0,0,0.1,0,0.2,0s0.1,0,0.2,0c0,0,0.1,0,0.2-0.1s0.1-0.1,0.1-0.1s0.1,0,0.2,0
		s0.2,0,0.2,0s0,0,0.1,0c0,0,0,0,0.1,0c0.2,0,0.3,0,0.3-0.1c0.4-0.1,0.5-0.1,0.6-0.1h0.2c0,0,0,0,0.1,0c0,0,0,0,0.1,0h0.1
		c0,0,0.1,0,0.2-0.1c0.1,0,0.1-0.1,0.2-0.1v-0.1h0.1c0,0,0,0,0,0.1V42c0.2,0,0.3-0.1,0.4-0.1c0,0,0.1,0,0.2,0.1l0.2-0.1
		c0,0,0.1-0.1,0.2-0.2c0,0.1,0,0.1,0.1,0.1c0,0,0.1,0,0.1-0.1c0.1,0,0.1,0,0.1,0h0.1c0,0,0.1,0,0.1-0.1h0.1c0.1,0,0.1,0,0.2,0
		s0.2,0,0.3-0.1h0.1c0,0,0.1,0,0.1-0.1c0.1,0,0.1,0,0.1,0s0.1,0,0.2-0.1h0.1C28.4,40.9,28.5,40.9,28.5,40.8
		C28.5,40.9,28.5,40.8,28.5,40.8L28.5,40.8z"/>
	<path fill="#54813B" d="M35,41.9c0.1,0,0.2,0,0.2,0c0,0.1,0.1,0.1,0.2,0.1c0.1,0,0.1,0,0.1,0s0,0,0,0.1c0,0,0,0,0,0.1
		c0,0,0.1,0,0.2,0c0.1,0,0.2,0,0.2-0.1c0,0,0.1,0.1,0.1,0.3c0,0,0.1,0,0.2,0c0,0.1,0,0.1,0.1,0.2c0.1,0,0.1,0.1,0.1,0.1h0.1v0.1
		c0,0.1,0,0.1,0,0.1s0,0.1,0.1,0.2c0,0.2,0,0.3,0,0.3c0,0.1,0.1,0.1,0.3,0.1c0,0.1,0,0.2,0,0.4c-0.1,0-0.2,0-0.2,0.1s0,0.1,0.1,0.1
		v0.3c-0.1,0-0.1,0.1-0.1,0.3s0.1,0.2,0.2,0.2V45c0,0-0.1,0.1-0.1,0.2c0,0.1,0,0.2,0.1,0.2c0,0,0,0.1-0.1,0.1c0,0.1,0,0.1,0,0.2v0.1
		C36.9,46,36.9,46,37,46c0,0.1-0.1,0.2,0,0.3c0,0.1,0,0.2,0,0.2s0,0,0.1,0.1c0.1,0,0.1,0,0.1,0.1v0.1c0,0-0.1,0-0.1,0.1
		s0,0.1,0.1,0.1c0,0.1,0,0.2,0,0.3s0,0.2,0,0.2c0.1,0.1,0.1,0.1,0.1,0.1s0,0,0,0.1c0,0,0,0.1,0.1,0.1l0,0c0,0,0,0,0.1,0v0.1
		c0,0,0,0-0.1,0.1l0.1,0.4h0.1v0.1c0,0,0,0-0.1,0c0,0,0,0.1,0,0.2c0,0.1,0,0.1,0,0.2c0,0.1,0.1,0.2,0.1,0.2s0,0-0.1,0
		c0,0.1,0,0.2,0,0.4s0,0.3,0,0.4c0,0.1,0,0.2,0.1,0.2v0.4c0,0,0,0.1,0.1,0.1c0,0.1,0.1,0.1,0.1,0.2v0.1c0,0.1,0,0.2,0,0.2
		s0.1,0,0.1,0.1c0,0,0.1,0,0.1,0.1c0,0,0,0,0,0.1c0,0-0.1,0-0.1,0.1c0,0,0.1,0,0.1,0.1s0,0.1-0.1,0.2c-0.1,0.1-0.1,0.1-0.1,0.1
		c0,0.1,0,0.1,0.1,0.2c0.1,0.1,0.1,0.1,0.1,0.2h0.1c0,0.2,0,0.3,0,0.5c-0.1,0-0.2,0-0.2,0.1S38,53,38.1,53v0.4
		c-0.1,0-0.1,0.1-0.1,0.2c0,0.1,0.1,0.1,0.2,0.1c0,0.2,0,0.3,0,0.4c-0.1,0-0.2,0-0.2,0.1c0,0,0,0.1,0.1,0.1c0,0,0.1,0.1,0.1,0
		c0,0,0,0.1,0,0.3v0.1c-0.1,0.1-0.1,0.2-0.1,0.3c0,0,0.1,0,0.1,0.1c0,0,0.1,0,0.1,0.1c0,0,0,0.1,0,0.2c0,0.1,0,0.2,0,0.2l-0.1,0.1
		c0,0,0,0.1,0.1,0.2c0,0,0.1,0,0.2,0c0.1,0,0.1,0,0.1,0s0,0,0.1-0.1c0,0,0-0.1,0.1-0.1c0.2,0,0.3,0,0.4-0.1c0,0,0,0,0.1,0.1
		c0,0,0,0.1,0.1,0.1c0,0,0.1,0,0.2-0.1c0.1-0.1,0.2-0.1,0.2-0.1c0,0.1,0.1,0.1,0.1,0.1s0,0,0-0.1s0-0.1,0-0.1c0.1,0,0.1,0,0.2-0.1
		l0.1,0.1c0.1-0.1,0.2-0.1,0.3,0v-0.1v-0.1c0,0,0,0,0.1,0c0,0,0,0,0,0.1c0-0.1,0.2-0.2,0.5-0.1c0.1,0,0.1,0.1,0.1,0.1s0,0,0.1,0
		c0,0,0,0,0.1-0.1c0,0,0,0,0.1,0c0,0,0,0,0.1,0c0,0,0,0,0-0.1c0,0,0,0,0-0.1h0.5c0,0,0.2,0,0.4,0h0.1h0.1c0,0,0,0,0.1,0h0.1
		c0,0,0,0,0.1,0h0.1h0.1h0.1c0,0,0,0,0.1-0.1h0.1c0.2,0,0.4,0,0.4,0.1c0,0,0.1,0,0.2,0c0.1,0,0.1,0,0.2,0c0.1,0,0.2,0,0.4,0
		s0.3,0,0.4,0l0.1,0.1c0,0,0.1,0,0.1-0.1c0.1,0,0.2,0,0.2,0c0.1-0.1,0.2-0.1,0.3,0v0.1c0,0,0.1,0,0.1-0.1c0,0,0.1,0.1,0.2,0.2
		c0,0,0.1,0,0.2,0c0.1,0,0.1,0,0.2,0c0,0.1,0,0.1,0,0.2c0.1,0.1,0.1,0.1,0.2,0.1h0.1h0.1c0,0,0,0.1,0,0.2c0,0.1,0,0.1,0,0.1L47,56
		c0,0,0.1,0.1,0.1,0.2c0.1,0,0.1,0.1,0.1,0.1c0,0.1,0,0.2,0.1,0.2h0.1c0,0,0,0.1-0.1,0.2c0,0.1,0,0.2,0,0.2c-0.1,0-0.1,0.1-0.2,0.2
		c0,0.1-0.1,0.1-0.1,0.2c0,0.1,0,0.2,0,0.2s0,0-0.1,0l0,0c0,0-0.1,0.1-0.2,0.2c-0.1,0.1-0.1,0.2-0.2,0.2l0,0l0,0c0,0.1,0,0.1,0,0.1
		h-0.6c0,0,0,0-0.1-0.1c0,0,0-0.1-0.1-0.1c0,0-0.1,0-0.1,0.1S45.5,58,45.4,58c0-0.1,0-0.2-0.1-0.2s0,0-0.1,0c0,0,0,0-0.1,0
		s-0.1,0-0.1,0c0-0.1,0-0.1-0.1-0.1c0,0-0.1,0-0.1,0.1c0,0.2,0,0.2,0,0.2s-0.1,0.1-0.1,0.2c0-0.1-0.1-0.2-0.2-0.2h-0.1h-0.1
		c0,0,0,0-0.1,0c0,0,0,0-0.1,0c0,0-0.1,0-0.1,0.1c-0.1,0-0.2,0-0.4-0.1c0,0,0,0-0.1,0.1h-0.1c0-0.1,0-0.1-0.1-0.1s-0.1,0-0.1,0.1
		c0,0-0.1,0-0.1-0.1c0,0-0.1,0.1-0.4,0.1c-0.2,0-0.4,0-0.4,0s-0.2,0-0.5-0.1l-0.1,0.1c-0.1,0-0.1,0-0.1-0.1c-0.1,0-0.2,0.1-0.2,0.2
		c0,0-0.1,0-0.3,0c-0.1,0-0.1,0-0.1,0c0-0.1-0.1-0.1-0.2-0.1c-0.1,0-0.1,0.1-0.1,0.2c0,0-0.1,0-0.3,0s-0.3,0-0.4,0l0,0
		c0,0,0,0-0.1,0c0,0,0,0-0.1,0c0,0.1-0.3,0.1-0.7,0.1c-0.1,0-0.2,0-0.2,0.1h-0.3h-0.1h-0.1l-0.1,0.2c-0.3,0-0.4,0-0.5,0
		c0,0,0,0.1-0.1,0.2h-0.1h-0.1c0,0-0.1-0.1-0.2-0.1c-0.1,0-0.2,0-0.2,0v0.1V59c0,0-0.1,0-0.1-0.1c0,0,0-0.1-0.1-0.1
		c-0.1,0.1-0.2,0.1-0.2,0.1s0,0,0-0.1c0,0,0.1,0,0.1-0.1h-0.1v-0.1c0,0-0.1,0-0.1-0.1s-0.1-0.1-0.1-0.1v-0.1c-0.1,0-0.2,0-0.2-0.1
		c-0.1-0.1-0.1-0.1-0.2-0.1c0-0.1,0-0.2-0.2-0.2c0,0,0-0.1,0-0.2c0,0,0,0-0.1,0c0-0.2,0-0.3,0.1-0.3c0,0,0,0,0-0.1
		c0,0-0.1,0-0.1-0.1c0,0,0,0,0.1-0.1c0,0,0.1,0,0.1-0.1c0,0-0.1-0.1-0.2-0.1v-0.1c0.1,0,0.1,0,0.1,0s0,0,0-0.1c0,0,0,0,0-0.1H36
		c0,0,0-0.2,0-0.4s0-0.4,0-0.5c0.1,0,0.1,0,0.1-0.1c0,0,0-0.1-0.1-0.1c0-0.4,0-0.9,0-1.3c0-0.2,0-0.3,0-0.5c0.1-0.2,0.1-0.3-0.1-0.3
		v-0.3c0,0,0-0.1,0-0.4c0-0.4,0-0.6-0.1-0.7c0.1-0.1,0.1-0.2,0-0.3c0-0.1,0-0.2,0-0.3s0-0.2,0-0.3s-0.1-0.1-0.2-0.2v-0.1v-0.1
		c0,0,0-0.1,0.1-0.1v-0.1v-0.1c0-0.1-0.1-0.1-0.2-0.1c0,0,0,0,0-0.1c0,0,0,0,0.1,0s0.1,0,0.1,0s0-0.1-0.1-0.1c0-0.1,0-0.1,0.1-0.2
		c0-0.2,0-0.4-0.1-0.4s-0.1,0-0.1,0v-0.1c0.1,0,0.2,0,0.2-0.1c0,0,0-0.1-0.1-0.1h-0.1c0,0,0-0.1,0-0.2h0.1c0,0,0,0,0.1-0.1
		c0,0,0,0,0-0.1c0,0,0,0,0-0.1c0,0,0-0.1,0-0.2c0-0.1,0-0.2,0-0.2s0,0-0.1-0.1c0,0-0.1,0-0.1-0.1c0,0,0-0.1,0-0.3v-0.1
		c0-0.1,0-0.1,0-0.2c0,0,0,0-0.1-0.1c0,0-0.1,0-0.1-0.1l0.1-0.2c0-0.1,0-0.2-0.1-0.3c0-0.2,0-0.3-0.1-0.3c0,0,0-0.1-0.1-0.2
		c0-0.1,0-0.2-0.1-0.2c0,0,0,0-0.1,0c0,0,0,0-0.1,0c0-0.1,0-0.2,0.1-0.3v-0.1v-0.1c0,0-0.1,0-0.2-0.1c0,0,0-0.1,0.1-0.1V45
		c-0.1,0-0.1,0-0.1-0.1c0,0,0-0.1,0-0.2c0-0.1,0-0.2-0.1-0.2v-0.1c0,0,0-0.1,0-0.2c0-0.1,0-0.2,0-0.2s0,0-0.1-0.1c0,0-0.1,0-0.1-0.1
		c0,0,0.1-0.1,0-0.2c0-0.1-0.1-0.1-0.2-0.1c0-0.2,0-0.3,0.1-0.3c0-0.1,0-0.2-0.1-0.3s-0.1-0.2-0.1-0.3C34,42.5,34,42.5,34,42.5
		s0,0,0.1,0c0-0.1,0-0.2,0-0.2c0.2,0,0.3-0.2,0.2-0.4C34.8,42.2,34.9,42.1,35,41.9z M35.2,42c0,0.1,0.1,0.1,0.2,0.1
		c0.1,0,0.1,0,0.1,0s0,0,0,0.1c0,0,0,0,0,0.1c0,0,0.1,0,0.2,0c0.1,0,0.2,0,0.2-0.1c0,0,0.1,0.1,0.1,0.3c0,0,0.1,0,0.2,0
		c0,0.1,0,0.1,0.1,0.2c0.1,0,0.1,0.1,0.1,0.1h0.1v0.1c0,0.1,0,0.1,0,0.1s0,0.1,0.1,0.2c0,0.2,0,0.3,0,0.3c0,0.1,0.1,0.1,0.3,0.1
		c0,0.1,0,0.2,0,0.4c-0.1,0-0.2,0-0.2,0.1s0,0.1,0.1,0.1v0.3c-0.1,0-0.1,0.1-0.1,0.3s0.1,0.2,0.2,0.2v0.1c0,0-0.1,0.1-0.1,0.2
		c0,0.1,0,0.2,0.1,0.2c0,0,0,0.1-0.1,0.1c0,0.1,0,0.1,0,0.2v0.1c0.1,0.2,0.1,0.2,0.2,0.2c0,0.1-0.1,0.2,0,0.3c0,0.1,0,0.2,0,0.2
		s0,0,0.1,0.1c0.1,0,0.1,0,0.1,0.1v0.1c0,0-0.1,0-0.1,0.1s0,0.1,0.1,0.1c0,0.1,0,0.2,0,0.3s0,0.2,0,0.2c0.1,0.1,0.1,0.1,0.1,0.1
		s0,0,0,0.1c0,0,0,0.1,0.1,0.1l0,0c0,0,0,0,0.1,0V48c0,0,0,0-0.1,0.1l0.1,0.4h0.1v0.1c0,0,0,0-0.1,0c0,0,0,0.1,0,0.2
		c0,0.1,0,0.1,0,0.2c0,0.1,0.1,0.2,0.1,0.2s0,0-0.1,0c0,0.1,0,0.2,0,0.4s0,0.3,0,0.4c0,0.1,0,0.2,0.1,0.2v0.4c0,0,0,0.1,0.1,0.1
		c0,0.1,0.1,0.1,0.1,0.2V51c0,0.1,0,0.2,0,0.2s0.1,0,0.1,0.1c0,0,0.1,0,0.1,0.1c0,0,0,0,0,0.1c0,0-0.1,0-0.1,0.1c0,0,0.1,0,0.1,0.1
		s0,0.1-0.1,0.2C37.8,52,37.8,52,37.8,52c0,0.1,0,0.1,0.1,0.2c0.1,0.1,0.1,0.1,0.1,0.2h0.1c0,0.2,0,0.3,0,0.5c-0.1,0-0.2,0-0.2,0.1
		s0.1,0.1,0.2,0.1v0.4c-0.1,0-0.1,0.1-0.1,0.2c0,0.1,0.1,0.1,0.2,0.1c0,0.2,0,0.3,0,0.4c-0.1,0-0.2,0-0.2,0.1c0,0,0,0.1,0.1,0.1
		c0,0,0.1,0.1,0.1,0c0,0,0,0.1,0,0.3v0.1c-0.1,0.1-0.1,0.2-0.1,0.3c0,0,0.1,0,0.1,0.1c0,0,0.1,0,0.1,0.1c0,0,0,0.1,0,0.2
		c0,0.1,0,0.2,0,0.2l-0.1,0.1c0,0,0,0.1,0.1,0.2c0,0,0.1,0,0.2,0c0.1,0,0.1,0,0.1,0s0,0,0.1-0.1c0,0,0-0.1,0.1-0.1
		c0.2,0,0.3,0,0.4-0.1c0,0,0,0,0.1,0.1c0,0,0,0.1,0.1,0.1c0,0,0.1,0,0.2-0.1c0.1-0.1,0.2-0.1,0.2-0.1c0,0.1,0.1,0.1,0.1,0.1
		s0,0,0-0.1s0-0.1,0-0.1c0.1,0,0.1,0,0.2-0.1l0.1,0.1c0.1-0.1,0.2-0.1,0.3,0v-0.1v-0.1c0,0,0,0,0.1,0c0,0,0,0,0,0.1
		c0-0.1,0.2-0.2,0.5-0.1c0.1,0,0.1,0.1,0.1,0.1s0,0,0.1,0c0,0,0,0,0.1-0.1c0,0,0,0,0.1,0c0,0,0,0,0.1,0c0,0,0,0,0-0.1c0,0,0,0,0-0.1
		h0.5c0,0,0.2,0,0.4,0h0.1h0.1c0,0,0,0,0.1,0h0.1c0,0,0,0,0.1,0h0.1h0.1h0.1c0,0,0,0,0.1-0.1h0.1c0.2,0,0.4,0,0.4,0.1
		c0,0,0.1,0,0.2,0c0.1,0,0.1,0,0.2,0c0.1,0,0.2,0,0.4,0s0.3,0,0.4,0l0.1,0.1c0,0,0.1,0,0.1-0.1c0.1,0,0.2,0,0.2,0
		c0.1-0.1,0.2-0.1,0.3,0v0.1c0,0,0.1,0,0.1-0.1c0,0,0.1,0.1,0.2,0.2c0,0,0.1,0,0.2,0c0.1,0,0.1,0,0.2,0c0,0.1,0,0.1,0,0.2
		c0.1,0.1,0.1,0.1,0.2,0.1h0.1h0.1c0,0,0,0.1,0,0.2c0,0.1,0,0.1,0,0.1s0,0.1,0.1,0.1c0,0,0.1,0.1,0.1,0.2c0.1,0,0.1,0.1,0.1,0.1
		c0,0.1,0,0.2,0.1,0.2h0.1c0,0,0,0.1-0.1,0.2c0,0.1,0,0.2,0,0.2c-0.1,0-0.1,0.1-0.2,0.2c0,0.1-0.1,0.1-0.1,0.2c0,0.1,0,0.2,0,0.2
		s0,0-0.1,0l0,0c0,0-0.1,0.1-0.2,0.2c-0.1,0.1-0.1,0.2-0.2,0.2l0,0l0,0c0,0.1,0,0.1,0,0.1h-0.6c0,0,0,0-0.1-0.1c0,0,0-0.1-0.1-0.1
		c0,0-0.1,0-0.1,0.1s-0.1,0.1-0.2,0.1c0-0.1,0-0.2-0.1-0.2s0,0-0.1,0c0,0,0,0-0.1,0s-0.1,0-0.1,0c0-0.1,0-0.1-0.1-0.1
		c0,0-0.1,0-0.1,0.1c0,0.1,0,0.1,0,0.1s-0.1,0.1-0.1,0.2c0-0.1-0.1-0.2-0.2-0.2h-0.1h-0.1c0,0,0,0-0.1,0c0,0,0,0-0.1,0
		c0,0-0.1,0-0.1,0.1c-0.1,0-0.2,0-0.4-0.1c0,0,0,0-0.1,0.1h-0.1c0-0.1,0-0.1-0.1-0.1s-0.1,0-0.1,0.1c0,0-0.1,0-0.1-0.1
		c0,0-0.1,0.1-0.4,0.1c-0.2,0-0.4,0-0.4,0s-0.2,0-0.5-0.1l-0.1,0.1c-0.1,0-0.1,0-0.1-0.1c-0.1,0-0.2,0.1-0.2,0.2c0,0-0.1,0-0.3,0
		c-0.1,0-0.1,0-0.1,0c0-0.1-0.1-0.1-0.2-0.1c-0.1,0-0.1,0.1-0.1,0.2c0,0-0.1,0-0.3,0s-0.3,0-0.4,0l0,0c0,0,0,0-0.1,0c0,0,0,0-0.1,0
		c0,0.1-0.3,0.1-0.7,0.1c-0.1,0-0.2,0-0.2,0.1h-0.3h-0.1h-0.1l-0.1,0.2c-0.3,0-0.4,0-0.5,0c0,0,0,0.1-0.1,0.2h-0.1h-0.1
		c0,0-0.1-0.1-0.2-0.1c-0.1,0-0.2,0-0.3,0v0.1V59c0,0-0.1,0-0.1-0.1c0,0,0-0.1-0.1-0.1c-0.1,0.1-0.2,0.1-0.2,0.1s0,0,0-0.1
		c0,0,0.1,0,0.1-0.1h-0.1v-0.1c0,0-0.1,0-0.1-0.1s-0.1-0.1-0.1-0.1v-0.1c-0.1,0-0.2,0-0.2-0.1c-0.1-0.1-0.1-0.1-0.2-0.1
		c0-0.1,0-0.2-0.2-0.2c0,0,0-0.1,0-0.2c0,0,0,0-0.1,0c0-0.2,0-0.3,0.1-0.3c0,0,0,0,0-0.1c0,0-0.1,0-0.1-0.1c0,0,0,0,0.1-0.1
		c0,0,0.1,0,0.1-0.1c0,0-0.1-0.1-0.2-0.1v-0.1c0.1,0,0.1,0,0.1,0s0,0,0-0.1c0,0,0,0,0-0.1h0.1c0,0,0-0.2,0-0.4s0-0.4,0-0.5
		c0.1,0,0.1,0,0.1-0.1c0,0,0-0.1-0.1-0.1c0-0.4,0-0.9,0-1.3c0-0.2,0-0.3,0-0.5c0.1-0.2,0.1-0.3-0.1-0.3v-0.3c0,0,0-0.1,0-0.4
		c0-0.4,0-0.6-0.1-0.7c0.1-0.1,0.1-0.2,0-0.3c0-0.1,0-0.2,0-0.3s0-0.2,0-0.3s-0.1-0.1-0.2-0.2v-0.1v-0.1c0,0,0-0.1,0.1-0.1v-0.1
		v-0.1c0-0.1-0.1-0.1-0.2-0.1c0,0,0,0,0-0.1c0,0,0,0,0.1,0s0.1,0,0.1,0s0-0.1-0.1-0.1c0-0.1,0-0.1,0.1-0.2c0-0.2,0-0.4-0.1-0.4
		s-0.1,0-0.1,0v-0.1c0.1,0,0.2,0,0.2-0.1c0,0,0-0.1-0.1-0.1h-0.1c0,0,0-0.1,0-0.2h0.1c0,0,0,0,0.1-0.1c0,0,0,0,0-0.1c0,0,0,0,0-0.1
		c0,0,0-0.1,0-0.2c0-0.1,0-0.2,0-0.2s0,0-0.1-0.1c0,0-0.1,0-0.1-0.1c0,0,0-0.1,0-0.3v-0.1c0-0.1,0-0.1,0-0.2c0,0,0,0-0.1-0.1
		c0,0-0.1,0-0.1-0.1l0.1-0.2c0-0.1,0-0.2-0.1-0.3c0-0.2,0-0.3-0.1-0.3c0,0,0-0.1-0.1-0.2c0-0.1,0-0.2-0.1-0.2c0,0,0,0-0.1,0
		c0,0,0,0-0.1,0c0-0.1,0-0.2,0.1-0.3v-0.1v-0.1c0,0-0.1,0-0.2-0.1c0,0,0-0.1,0.1-0.1V45c-0.1,0-0.1,0-0.1-0.1c0,0,0-0.1,0-0.2
		c0-0.1,0-0.2-0.1-0.2v-0.1c0,0,0-0.1,0-0.2c0-0.1,0-0.2,0-0.2s0,0-0.1-0.1c0,0-0.1,0-0.1-0.1c0,0,0.1-0.1,0-0.2
		c0-0.1-0.1-0.1-0.2-0.1c0-0.2,0-0.3,0.1-0.3c0-0.1,0-0.2-0.1-0.3S34,42.7,34,42.6c-0.1-0.1-0.1-0.1-0.1-0.1s0,0,0.1,0h0.1
		c0,0,0,0,0-0.1v-0.1c0.2,0,0.3-0.2,0.2-0.4c0.3,0,0.5-0.2,0.5-0.3C35.1,41.9,35.1,41.9,35.2,42z"/>
	<path fill="#54813B" d="M55.6,40.8c0.5,0.1,0.7,0,0.7-0.1c0,0,0.1,0,0.3,0c0,0,0,0,0,0.1c0,0,0,0,0,0.1c0,0,0.1,0,0.2,0
		c0.1,0,0.1,0,0.1,0.1c0.1,0,0.2,0,0.4,0.1c0.4,0,0.7,0.1,0.7,0.2h0.1c0,0,0.1,0.1,0.3,0.2c0.1,0.1,0.2,0.1,0.3,0.2v0.1
		c0.1,0.1,0.3,0.3,0.4,0.6c0,0,0.1,0,0.1,0.1s0,0.2,0,0.3s0,0.2,0,0.2C59,43,59,43,59,43.1l-0.1,0.1c0,0.1,0,0.2-0.1,0.2v0.1
		l-0.1,0.1c0,0,0,0-0.1,0c0,0,0,0-0.1,0c0,0,0,0.1-0.1,0.1h-0.1c0,0,0,0-0.1,0.1c0,0,0,0-0.1,0.1c-0.1,0-0.2,0-0.2,0
		c0,0.1,0,0.1,0,0.1h-0.1c-0.1,0-0.1,0-0.1,0s0,0-0.1,0c0,0,0,0-0.1,0c0,0,0,0,0.1-0.1c0,0,0-0.1-0.1-0.1c0-0.1,0-0.1-0.1-0.1
		c0,0-0.1,0-0.1,0.1h-0.1c0,0,0-0.1-0.1-0.2c0-0.1-0.1-0.1-0.1-0.1v0.1v0.1c0,0,0-0.1-0.1-0.1c0,0,0-0.1-0.1-0.1c0,0,0,0-0.1-0.1
		c0-0.1-0.2-0.2-0.5-0.2c0,0-0.1,0-0.2,0.1c0,0-0.1,0-0.2,0s-0.1,0-0.1,0s0,0-0.1,0.1c0,0-0.2,0-0.4,0c-0.3,0-0.4,0.1-0.4,0.2
		c-0.1-0.1-0.2-0.1-0.3,0c-0.1,0-0.1,0-0.2,0c-0.1,0-0.1,0-0.2,0v0.1c-0.1,0-0.2,0-0.2,0c-0.1,0-0.2-0.1-0.2,0c0,0,0,0-0.1,0.1
		c0,0,0,0.1-0.1,0.1c0,0-0.1,0-0.2,0c-0.1,0-0.1,0-0.1,0s-0.1,0-0.1,0.1H53h-0.1v0.1c-0.2,0-0.4,0-0.5,0c0,0,0,0,0,0.1
		c0,0,0,0,0,0.1c0-0.3-0.2-0.3-0.4-0.1c0,0-0.1,0-0.1-0.1c-0.1,0-0.1,0.1,0,0.2c0,0,0,0.1,0.1,0.1v0.1v0.1v0.1c0,0.1,0,0.2,0.1,0.2
		c0,0.1,0,0.2,0.1,0.3s0.1,0.2,0,0.3c0,0.1,0,0.2,0.1,0.2c0,0,0,0,0,0.1c0,0,0,0,0,0.1V46c0,0,0,0.1,0.1,0.1c0,0.5,0,0.8,0,0.9
		c-0.1,0.1-0.1,0.3,0,0.5c0,0,0,0.1,0,0.2c0,0,0,0.1-0.1,0.1v0.1c0.1,0,0.1,0.1,0.1,0.1s0,0,0,0.1c0,0,0,0,0,0.1s0,0.2,0,0.4
		s0,0.4,0,0.4s0,0.1,0,0.2c0,0.1,0.1,0.1,0.2,0.1c0.1,0,0.2-0.1,0.2-0.1c0.2,0,0.4,0,0.5-0.1c0.3,0,0.4,0,0.5,0s0.2,0,0.3,0
		c0,0,0.1,0,0.1-0.1c0.1,0,0.1-0.1,0.1-0.1h0.1c0.1,0,0.2,0,0.2-0.1c0.2,0,0.3,0,0.4,0c0,0,0,0,0.1,0c0,0,0,0,0.1,0h0.1
		c0.1,0,0.1,0,0.1,0c0.1,0,0.2,0,0.4,0v-0.1c0.1,0,0.2,0.1,0.4,0c0.1,0,0.2-0.1,0.3-0.1h0.1l0.1-0.1c0,0,0,0,0.1,0c0,0,0,0,0.1,0.1
		c0,0,0.1,0,0.1-0.1c0.1-0.1,0.1-0.1,0.2-0.1l0.1-0.1c0,0,0,0,0.1,0.1c0.2,0,0.3,0,0.4-0.1c0,0,0.1,0,0.2,0c0.1,0,0.1,0,0.1,0
		s0.1,0,0.2,0.1c0.1,0,0.1,0.1,0.2,0.1c0.1,0,0.2,0.1,0.2,0.1s0.1,0,0.2,0c0,0,0,0,0.1,0c0,0,0,0,0.1,0.1c0.2,0,0.3,0,0.3,0
		s0,0.1,0.1,0.2V49c0,0,0,0.1,0.1,0.2c0,0.2,0.1,0.3,0.2,0.3c0,0,0,0-0.1,0.1c0,0.1,0,0.2-0.1,0.3c0,0.1-0.1,0.2-0.1,0.2h-0.1
		c0,0,0,0,0,0.1c0,0,0,0,0,0.1h-0.1l0,0h-0.1c0,0,0,0-0.1-0.1c0,0,0,0-0.1,0c0,0-0.1,0-0.1,0.1h-0.1c0,0-0.1,0.1-0.3,0.1
		s-0.2,0.1-0.2,0.2c-0.2,0-0.4,0-0.5,0.2c0,0,0,0-0.1,0c0,0,0,0-0.1,0.1c0,0,0,0,0,0.1c-0.1,0-0.1,0-0.2-0.1c0,0,0,0-0.1,0
		c0,0,0,0,0,0.1c0,0-0.1,0-0.2,0c-0.1,0-0.2,0-0.2,0s-0.1,0-0.1,0.1l-0.1,0.1c-0.1,0-0.1,0-0.2,0c-0.1,0-0.1,0-0.1,0.1
		c0,0-0.1-0.1-0.2-0.1c-0.1,0-0.2,0-0.2,0.1v0.1c0,0-0.1,0-0.2,0c-0.1,0-0.1,0-0.1,0s-0.1,0-0.2,0v0.1c0,0-0.1,0-0.2,0h-0.1
		c0,0-0.1,0.1,0,0.1L55,51.5c0,0-0.1,0-0.4,0c0,0,0,0.1-0.1,0.1c0,0,0,0.1-0.1,0.1c-0.2,0-0.3,0-0.3,0L54,51.8c-0.3,0-0.4,0-0.4,0
		s-0.1,0-0.2,0.1c0,0,0,0,0,0.1c-0.2,0.1-0.3,0.1-0.4,0c0,0-0.1,0-0.1,0.1l-0.1,0.1c0,0,0,0-0.1-0.1c0,0,0-0.1-0.1-0.1
		c0,0-0.1,0-0.2,0.1c-0.1,0-0.1,0-0.1,0c-0.1,0-0.1,0.1,0,0.4v0.1v0.1c0,0,0,0.1,0.1,0.1c0,0.1,0,0.2-0.1,0.2v0.1
		c0,0.1,0,0.2,0.1,0.2c0,0,0,0,0,0.1c0,0,0,0,0,0.1c0,0,0,0.1-0.1,0.2c0.1,0.1,0.1,0.2,0.1,0.4s0,0.4,0.1,0.5
		c-0.1,0.2-0.1,0.3,0,0.4c0,0,0,0.1,0,0.2v0.1v0.1c0.1,0.2,0.1,0.3,0.1,0.4c0,0,0.1,0.1,0.1,0.2c0,0.1,0.1,0.2,0.1,0.2
		c0.1,0,0.2,0,0.3,0.1c0.2,0,0.3,0,0.3,0s0,0,0.1-0.1c0,0,0.1,0,0.1,0.1c0.4,0,0.6,0,0.6-0.1c0,0,0.1,0,0.3,0c0.1,0,0.2,0,0.3,0
		c0-0.1,0.2-0.1,0.5-0.1c0,0,0,0,0-0.1s0-0.1,0-0.1s0.1,0,0.2,0c0.1,0,0.1,0,0.2,0c0,0,0.1-0.1,0.2-0.1c0.1,0,0.1-0.1,0.2-0.1
		c0.1,0,0.3,0,0.4-0.1s0.3-0.2,0.4-0.2c0-0.1,0-0.1,0.1-0.1s0.2,0,0.3,0c0.2,0,0.3-0.1,0.5-0.2c0.1,0,0.2,0,0.2,0
		c0.1-0.1,0.2-0.1,0.2-0.1c0.4,0,0.6,0,0.7,0.1H59c0,0.1,0.1,0.2,0.2,0.3h0.1c0,0,0.1,0.1,0.2,0.2c0,0.1,0.1,0.2,0.2,0.3
		c0,0,0,0.1,0.1,0.2c0.1,0.1,0.1,0.1,0.1,0.2c0,0,0,0,0,0.1s0,0.1,0,0.1c-0.1,0.1-0.2,0.3-0.2,0.4c-0.1,0-0.2,0.1-0.2,0.2
		c-0.2,0-0.3,0.1-0.3,0.4c0,0,0,0-0.1,0c0,0,0,0-0.1,0c0,0,0,0.1-0.1,0.2c0,0,0,0-0.1,0c0,0,0,0-0.1,0c0,0-0.1,0-0.1,0.1
		c-0.2,0-0.2,0-0.2,0.1H58c-0.1,0.2-0.2,0.2-0.4,0.1c0,0-0.1,0-0.1,0.1c0,0,0,0-0.1,0s-0.2-0.1-0.2,0c0,0-0.1,0.1-0.1,0.2H57
		c0,0,0,0,0,0.1v0.1c0,0-0.1,0-0.2-0.1c-0.1,0-0.2,0-0.2,0s0,0-0.1,0.1c0,0,0,0-0.1,0.1c0,0,0,0-0.1,0c0,0,0,0-0.1,0
		c0,0,0,0-0.1,0.1c-0.1,0-0.2,0-0.4,0c0,0,0,0,0,0.1c-0.1,0-0.2,0-0.2,0c-0.1,0-0.2,0-0.2,0.1c0,0,0,0-0.1,0c0,0,0,0-0.1,0
		c0,0-0.1,0-0.2,0c-0.1,0-0.2,0-0.2,0.1v0.1c0,0-0.1,0-0.2,0h-0.1c0,0,0-0.1-0.1-0.1c-0.2,0-0.4,0.1-0.4,0.1v0.1h-0.1
		c0,0,0,0-0.1-0.1c0,0,0,0-0.1,0.1c0,0,0,0-0.1,0h-0.1c0,0-0.1,0-0.2,0v-0.1h-0.1c-0.1,0-0.1,0-0.1,0.1c-0.2,0-0.3,0-0.5,0
		c0-0.1,0-0.1-0.1-0.1h-0.1c0,0,0,0,0,0.1v0.1c0,0,0,0,0-0.1s0-0.1,0-0.1h-0.1V59c0-0.1-0.1-0.1-0.2-0.1c-0.1,0-0.1-0.1-0.2-0.1
		c0,0-0.1,0-0.1-0.1s-0.1-0.1-0.1-0.1s0,0-0.1,0c0,0,0,0-0.1,0v-0.1c0,0,0-0.1-0.1-0.1c0,0,0,0-0.1,0h-0.1c0-0.1,0-0.2-0.2-0.3V58
		c-0.1-0.1-0.2-0.2-0.2-0.2h-0.1c-0.1,0-0.1-0.1-0.2-0.2c-0.1-0.1-0.1-0.1-0.2-0.2c-0.1-0.1-0.1-0.2-0.2-0.2c0-0.8,0-1,0-1
		s0-0.1-0.1-0.2c0,0,0-0.1,0-0.2c0-0.1,0-0.2,0-0.2s0-0.1-0.1-0.1c0,0,0,0,0-0.1c0,0,0,0,0-0.1c0,0,0-0.1,0-0.3s0-0.2-0.1-0.3
		c0,0,0-0.1,0-0.3s0-0.2,0-0.3c0-0.3,0-0.8,0-1.5s0-1.2,0-1.5c0.1,0,0.1,0,0.1-0.1s-0.1-0.1-0.1-0.2c0-0.1,0-0.2,0.1-0.3
		c0-0.1,0.1-0.2,0.1-0.2l-0.1-0.1c0,0,0-0.1,0.1-0.1c0-0.1,0-0.6,0-1.4l0.1-0.1c0,0,0-0.1-0.1-0.1c0,0,0.1-0.1,0-0.2
		c0-0.1,0-0.2,0-0.3c0,0,0,0,0-0.1s0-0.2,0-0.2s0-0.2,0-0.5s0-0.4-0.1-0.4c0.1,0,0.1-0.1,0.1-0.3s0-0.3,0-0.3l-0.1-0.1
		c0-0.2,0-0.3,0.1-0.3c0,0,0,0-0.1-0.1c0,0,0,0,0-0.1c0-0.3,0-0.4,0-0.4s0,0-0.1,0c0,0,0,0-0.1,0c0-0.3,0-0.5,0-0.6h-0.1
		c0,0,0-0.1,0-0.2c0,0,0,0,0-0.1c0,0,0,0,0-0.1v-0.1V44c0,0,0-0.1-0.1-0.1c-0.1-0.1-0.1-0.2,0-0.2l-0.1-0.1v-0.1
		c0,0-0.1-0.1-0.2-0.2c0-0.1,0-0.1,0-0.2V43c0-0.1,0-0.2,0-0.3c0.1-0.1,0.1-0.2,0.1-0.3c0,0,0.1-0.1,0.1-0.2
		c0.1-0.1,0.1-0.2,0.2-0.2l0,0c0,0,0,0,0-0.1l0.1,0.1c0,0,0.1,0,0.2,0s0.1,0,0.2,0c0,0,0.1,0,0.2-0.1c0.1-0.1,0.1-0.1,0.1-0.1
		s0.1,0,0.2,0c0.1,0,0.2,0,0.2,0s0,0,0.1,0c0,0,0,0,0.1,0c0.2,0,0.3,0,0.3-0.1c0.4-0.1,0.5-0.1,0.6-0.1H52c0,0,0,0,0.1,0
		c0,0,0,0,0.1,0h0.1c0,0,0.1,0,0.2-0.1c0.1,0,0.1-0.1,0.2-0.1v-0.1h0.1c0,0,0,0,0,0.1v0.1c0.2,0,0.3-0.1,0.4-0.1c0,0,0.1,0,0.2,0.1
		l0.2-0.1c0,0,0.1-0.1,0.2-0.2c0,0.1,0,0.1,0.1,0.1c0,0,0.1,0,0.1-0.1c0.1,0,0.1,0,0.1,0h0.1c0,0,0.1,0,0.1-0.1h0.1
		c0.1,0,0.1,0,0.2,0c0.1,0,0.2,0,0.3-0.1H55c0,0,0.1,0,0.1-0.1c0.1,0,0.1,0,0.1,0s0.1,0,0.2-0.1h0.1C55.5,40.9,55.5,40.9,55.6,40.8
		C55.6,40.9,55.6,40.8,55.6,40.8L55.6,40.8z M56.3,40.6c0,0,0.1,0,0.2,0c0.1,0,0.1,0,0.2,0l0,0c0,0,0,0,0,0.1c0,0,0.1,0,0.2,0
		c0.1,0,0.1,0,0.1,0.1c0.1,0,0.2,0,0.4,0.1c0.4,0,0.7,0.1,0.7,0.2h0.1c0,0,0.1,0.1,0.3,0.2c0.1,0.1,0.2,0.1,0.3,0.2v0.1
		c0.1,0.1,0.3,0.3,0.4,0.6c0,0,0,0,0.1,0l0,0c0,0.1,0,0.2,0,0.3s0,0.2,0,0.2C59,43,59,43,59,43.1l-0.1,0.1c0,0.1,0,0.2-0.1,0.2v0.1
		l-0.1,0.1c0,0,0,0-0.1,0c0,0,0,0-0.1,0c0,0,0,0.1-0.1,0.1h-0.1c0,0,0,0-0.1,0.1c0,0,0,0-0.1,0.1c-0.1,0-0.2,0-0.2,0
		c0,0.1,0,0.1,0,0.1h-0.1c-0.1,0-0.1,0-0.1,0s0,0-0.1,0c0,0,0,0-0.1,0c0,0,0,0,0.1-0.1c0,0,0-0.1-0.1-0.1c0-0.1,0-0.1-0.1-0.1
		c0,0-0.1,0-0.1,0.1h-0.1c0,0,0-0.1-0.1-0.2c0-0.1-0.1-0.1-0.1-0.1v0.1v0.1c0,0,0-0.1-0.1-0.1c0,0,0-0.1-0.1-0.1c0,0,0,0-0.1-0.1
		c0-0.1-0.2-0.2-0.5-0.2c0,0-0.1,0-0.2,0.1c0,0-0.1,0-0.2,0s-0.1,0-0.1,0s0,0-0.1,0.1c0,0-0.2,0-0.4,0c-0.3,0-0.4,0.1-0.4,0.2
		c-0.1-0.1-0.2-0.1-0.3,0c-0.1,0-0.1,0-0.2,0c-0.1,0-0.1,0-0.2,0v0.1c-0.1,0-0.2,0-0.2,0c-0.1,0-0.2-0.1-0.2,0c0,0,0,0-0.1,0.1
		c0,0,0,0.1-0.1,0.1c0,0-0.1,0-0.2,0c-0.1,0-0.1,0-0.1,0s-0.1,0-0.1,0.1H53h-0.1v0.1c-0.2,0-0.4,0-0.5,0c0,0,0,0,0,0.1
		c0,0,0,0,0,0.1c0-0.3-0.2-0.3-0.4-0.1c0,0-0.1,0-0.1-0.1c-0.1,0-0.1,0.1,0,0.2c0,0,0,0.1,0.1,0.1v0.1v0.1v0.1c0,0.1,0,0.2,0.1,0.2
		c0,0.1,0,0.2,0.1,0.3s0.1,0.2,0,0.3c0,0.1,0,0.2,0.1,0.2c0,0,0,0,0,0.1c0,0,0,0,0,0.1V46c0,0,0,0.1,0.1,0.1c0,0.5,0,0.8,0,0.9
		c-0.1,0.1-0.1,0.3,0,0.5c0,0,0,0.1,0,0.2c0,0,0,0.1-0.1,0.1v0.1c0.1,0,0.1,0.1,0.1,0.1s0,0,0,0.1c0,0,0,0,0,0.1s0,0.2,0,0.4
		s0,0.4,0,0.4s0,0.1,0,0.2c0,0.1,0.1,0.1,0.2,0.1c0.1,0,0.2-0.1,0.2-0.1c0.2,0,0.4,0,0.5-0.1c0.3,0,0.4,0,0.5,0s0.2,0,0.3,0
		c0,0,0.1,0,0.1-0.1c0.1,0,0.1-0.1,0.1-0.1h0.1c0.1,0,0.2,0,0.2-0.1c0.2,0,0.3,0,0.4,0c0,0,0,0,0.1,0c0,0,0,0,0.1,0h0.1
		c0.1,0,0.1,0,0.1,0c0.1,0,0.2,0,0.4,0v-0.1c0.1,0,0.2,0.1,0.4,0c0.1,0,0.2-0.1,0.3-0.1h0.1l0.1-0.1c0,0,0,0,0.1,0c0,0,0,0,0.1,0.1
		c0,0,0.1,0,0.1-0.1c0.1-0.1,0.1-0.1,0.2-0.1l0.1-0.1c0,0,0,0,0.1,0.1c0.2,0,0.3,0,0.4-0.1c0,0,0.1,0,0.2,0c0.1,0,0.1,0,0.1,0
		s0.1,0,0.2,0.1c0.1,0,0.1,0.1,0.2,0.1c0.1,0,0.2,0.1,0.2,0.1s0.1,0,0.2,0c0,0,0,0,0.1,0c0,0,0,0,0.1,0.1c0.2,0,0.3,0,0.3,0
		s0,0.1,0.1,0.2V49c0,0,0,0.1,0.1,0.2c0,0.2,0.1,0.3,0.2,0.3c0,0,0,0-0.1,0.1c0,0.1,0,0.2-0.1,0.3c0,0.1-0.1,0.2-0.1,0.2h-0.1
		c0,0,0,0,0,0.1c0,0,0,0,0,0.1h-0.1l0,0h-0.1c0,0,0,0-0.1-0.1c0,0,0,0-0.1,0c0,0-0.1,0-0.1,0.1h-0.1c0,0-0.1,0.1-0.3,0.1
		s-0.2,0.1-0.2,0.2c-0.2,0-0.4,0-0.5,0.2c0,0,0,0-0.1,0c0,0,0,0-0.1,0.1c0,0,0,0,0,0.1c-0.1,0-0.1,0-0.2-0.1c0,0,0,0-0.1,0
		c0,0,0,0,0,0.1c0,0-0.1,0-0.2,0c-0.1,0-0.2,0-0.2,0s-0.1,0-0.1,0.1l-0.1,0.1c-0.1,0-0.1,0-0.2,0c-0.1,0-0.1,0-0.1,0.1
		c0,0-0.1-0.1-0.2-0.1c-0.1,0-0.2,0-0.2,0.1v0.1c0,0-0.1,0-0.2,0c-0.1,0-0.1,0-0.1,0s-0.1,0-0.2,0v0.1c0,0-0.1,0-0.2,0h-0.1
		c0,0-0.1,0.1,0,0.1L55,51.5c0,0-0.1,0-0.4,0c0,0,0,0.1-0.1,0.1c0,0,0,0.1-0.1,0.1c-0.2,0-0.3,0-0.3,0L54,51.8c-0.3,0-0.4,0-0.4,0
		s-0.1,0-0.2,0.1c0,0,0,0,0,0.1c-0.2,0.1-0.3,0.1-0.4,0c0,0-0.1,0-0.1,0.1l-0.1,0.1c0,0,0,0-0.1-0.1c0,0,0-0.1-0.1-0.1
		c0,0-0.1,0-0.2,0.1c-0.1,0-0.1,0-0.1,0c-0.1,0-0.1,0.1,0,0.4v0.1v0.1c0,0,0,0.1,0.1,0.1c0,0.1,0,0.2-0.1,0.2v0.1
		c0,0.1,0,0.2,0.1,0.2c0,0,0,0,0,0.1c0,0,0,0,0,0.1c0,0,0,0.1-0.1,0.2c0.1,0,0.1,0.2,0.1,0.4s0,0.4,0.1,0.5c-0.1,0.2-0.1,0.3,0,0.4
		c0,0,0,0.1,0,0.2v0.1v0.1c0.1,0.2,0.1,0.3,0.1,0.4c0,0,0.1,0.1,0.1,0.2c0,0.1,0.1,0.2,0.1,0.2c0.1,0,0.2,0,0.3,0.1
		c0.2,0,0.3,0,0.3,0s0,0,0.1-0.1c0,0,0.1,0,0.1,0.1c0.4,0,0.6,0,0.6-0.1c0,0,0.1,0,0.3,0c0.1,0,0.2,0,0.3,0c0-0.1,0.2-0.1,0.5-0.1
		c0,0,0,0,0-0.1s0-0.1,0-0.1s0.1,0,0.2,0c0.1,0,0.1,0,0.2,0c0,0,0.1-0.1,0.2-0.1c0.1,0,0.1-0.1,0.2-0.1c0.1,0,0.3,0,0.4-0.1
		s0.3-0.2,0.4-0.2c0-0.1,0-0.1,0.1-0.1s0.2,0,0.3,0c0.2,0,0.3-0.1,0.5-0.2c0.1,0,0.2,0,0.2,0c0.1-0.1,0.2-0.1,0.2-0.1
		c0.4,0,0.6,0,0.7,0.1H59c0,0.1,0.1,0.2,0.2,0.3h0.1c0,0,0.1,0.1,0.2,0.2c0,0.1,0.1,0.2,0.2,0.3c0,0,0,0.1,0.1,0.2
		c0.1,0.1,0.1,0.1,0.1,0.2c0,0,0,0,0,0.1s0,0.1,0,0.1c-0.1,0.1-0.2,0.3-0.2,0.4c-0.1,0-0.2,0.1-0.2,0.2c-0.2,0-0.3,0.1-0.3,0.4
		c0,0,0,0-0.1,0c0,0,0,0-0.1,0c0,0,0,0.1-0.1,0.2c0,0,0,0-0.1,0c0,0,0,0-0.1,0c0,0-0.1,0-0.1,0.1c-0.2,0-0.2,0-0.2,0.1H58
		c-0.1,0.2-0.2,0.2-0.4,0.1c0,0-0.1,0-0.1,0.1c0,0,0,0-0.1,0s-0.2-0.1-0.2,0c0,0-0.1,0.1-0.1,0.2H57c0,0,0,0,0,0.1v0.1
		c0,0-0.1,0-0.2-0.1c-0.1,0-0.2,0-0.2,0s0,0-0.1,0.1c0,0,0,0-0.1,0.1c0,0,0,0-0.1,0c0,0,0,0-0.1,0c0,0,0,0-0.1,0.1
		c-0.1,0-0.2,0-0.4,0c0,0,0,0,0,0.1c-0.1,0-0.2,0-0.2,0c-0.1,0-0.2,0-0.2,0.1c0,0,0,0-0.1,0c0,0,0,0-0.1,0c0,0-0.1,0-0.2,0
		c-0.1,0-0.2,0-0.2,0.1v0.1c0,0-0.1,0-0.2,0h-0.1c0,0,0-0.1-0.1-0.1c-0.2,0-0.4,0.1-0.4,0.1v0.1h-0.1c0,0,0,0-0.1-0.1
		c0,0,0,0-0.1,0.1c0,0,0,0-0.1,0h-0.1c0,0-0.1,0-0.2,0v-0.1h-0.1c-0.1,0-0.1,0-0.1,0.1c-0.2,0-0.3,0-0.5,0c0-0.1,0-0.1-0.1-0.1h-0.1
		c0,0,0,0,0,0.1v0.1c0,0,0,0,0-0.1s0-0.1,0-0.1h-0.1V59c0-0.1-0.1-0.1-0.2-0.1c-0.1,0-0.1-0.1-0.2-0.1c0,0-0.1,0-0.1-0.1
		s-0.1-0.1-0.1-0.1s0,0-0.1,0c0,0,0,0-0.1,0v-0.1c0,0,0-0.1-0.1-0.1c0,0,0,0-0.1,0h-0.1c0-0.1,0-0.2-0.2-0.3V58
		c-0.1-0.1-0.2-0.2-0.2-0.2h-0.1c-0.1,0-0.1-0.1-0.2-0.2c-0.1-0.1-0.1-0.1-0.2-0.2c-0.1-0.1-0.1-0.2-0.2-0.2c0-0.8,0-1,0-1
		s0-0.1-0.1-0.2c0,0,0-0.1,0-0.2c0-0.1,0-0.2,0-0.2s0-0.1-0.1-0.1c0,0,0,0,0-0.1c0,0,0,0,0-0.1c0,0,0-0.1,0-0.3s0-0.2-0.1-0.3
		c0,0,0-0.1,0-0.3s0-0.2,0-0.3c0-0.3,0-0.8,0-1.5s0-1.2,0-1.5c0.1,0,0.1,0,0.1-0.1s-0.1-0.1-0.1-0.2c0-0.1,0-0.2,0.1-0.3
		c0-0.1,0.1-0.2,0.1-0.2l-0.1-0.1c0,0,0-0.1,0.1-0.1c0-0.1,0-0.6,0-1.4l0.1-0.1c0,0,0-0.1-0.1-0.1c0,0,0.1-0.1,0-0.2
		c0-0.1,0-0.2,0-0.3v-0.1c0-0.1,0-0.1,0-0.2c0,0,0-0.2,0-0.5s0-0.4-0.1-0.4c0.1,0,0.1-0.1,0.1-0.3s0-0.3,0-0.3l-0.1-0.1
		c0-0.2,0-0.3,0.1-0.3c0,0,0,0-0.1-0.1c0,0,0,0,0-0.1c0-0.3,0-0.4,0-0.4s0,0-0.1,0c0,0,0,0-0.1,0c0-0.3,0-0.5,0-0.6h-0.1
		c0,0,0-0.1,0-0.2c0,0,0,0,0-0.1c0,0,0,0,0-0.1v-0.1V44c0,0,0-0.1-0.1-0.1c-0.1-0.1-0.1-0.2,0-0.2l-0.1-0.1v-0.1
		c0,0-0.1-0.1-0.2-0.2c0-0.1,0-0.1,0-0.2V43c0-0.1,0-0.2,0-0.3c0.1-0.1,0.1-0.2,0.1-0.3c0,0,0.1-0.1,0.1-0.2
		c0.1-0.1,0.1-0.2,0.2-0.2l0,0c0,0,0,0,0-0.1l0.1,0.1c0,0,0.1,0,0.2,0s0.1,0,0.2,0c0,0,0.1,0,0.2-0.1c0.1-0.1,0.1-0.1,0.1-0.1
		s0.1,0,0.2,0c0.1,0,0.2,0,0.2,0s0,0,0.1,0c0,0,0,0,0.1,0c0.2,0,0.3,0,0.3-0.1c0.4-0.1,0.5-0.1,0.6-0.1H52c0,0,0,0,0.1,0
		c0,0,0,0,0.1,0h0.1c0,0,0.1,0,0.2-0.1c0.1,0,0.1-0.1,0.2-0.1v-0.1h0.1c0,0,0,0,0,0.1v0.1c0.2,0,0.3-0.1,0.4-0.1c0,0,0.1,0,0.2,0.1
		l0.2-0.1c0,0,0.1-0.1,0.2-0.2c0,0.1,0,0.1,0.1,0.1c0,0,0.1,0,0.1-0.1c0.1,0,0.1,0,0.1,0h0.1c0,0,0.1,0,0.1-0.1h0.1
		c0.1,0,0.1,0,0.2,0c0.1,0,0.2,0,0.3-0.1H55c0,0,0.1,0,0.1-0.1c0.1,0,0.1,0,0.1,0s0.1,0,0.2-0.1h0.1h0.1l0,0l0,0
		C56.1,40.9,56.3,40.8,56.3,40.6z"/>
	<path fill="#54813B" d="M68.6,40.4c0.2,0.1,0.3,0.1,0.4,0.2c0,0,0,0.1,0.1,0.1c0,0,0,0,0.1,0c0,0.1,0,0.2,0.1,0.2V41
		c0,0.1,0,0.2,0,0.2s0,0.1,0,0.2c0,0.1,0,0.1,0,0.1v0.1v0.1h-0.1c0,0-0.1,0.1-0.1,0.2c-0.1,0.1-0.2,0.2-0.3,0.2h-0.1h-0.1
		c0,0,0,0-0.1,0.1c0,0,0,0-0.1,0c0,0-0.1,0-0.2,0c0,0,0,0-0.1,0c0,0,0,0-0.1-0.1h-0.1h-0.1c0,0,0,0-0.1,0l0,0c0,0,0,0,0-0.1
		l-0.1-0.1c-0.2,0-0.4,0-0.4,0.1v0.1c-0.2,0-0.3,0-0.3,0.1l0,0l0,0c0,0-0.1,0-0.2,0.1s-0.1,0.1-0.1,0.2v0.1c0,0-0.1,0-0.1,0.1h-0.1
		C66.2,43,66,43.2,66,43.4h-0.1c0,0,0,0,0,0.1c0,0,0,0,0,0.1c-0.1,0-0.2,0.1-0.2,0.2c-0.1,0.1-0.2,0.2-0.2,0.2c0,0.1,0,0.2-0.1,0.3
		s-0.1,0.2-0.1,0.3l-0.1,0.1c0,0.1-0.1,0.1-0.1,0.1v0.1V45c0,0-0.1,0.1-0.1,0.2c0,0,0,0,0,0.1s0,0.1-0.1,0.2c0,0.1-0.1,0.1-0.1,0.2
		c0,0-0.1,0.1-0.1,0.2c0,0.1-0.1,0.2-0.1,0.2v0.2c-0.1,0.1-0.1,0.2-0.1,0.2v0.1c-0.5,0-0.5,0.2-0.4,0.4H64c0,0.1,0,0.2,0,0.5h-0.1
		c0,0.1,0,0.2,0,0.4s0,0.3-0.1,0.4c0,0.1,0,0.2,0,0.3s0,0.1-0.1,0.1c0,0.3-0.1,0.6-0.1,0.9c0,0,0,0.3,0,0.7c0,0.5,0,0.7,0,0.8
		s0,0.1,0,0.1c0,0.2,0,0.2,0.1,0.2c0,0,0,0.1,0,0.3c0,0.1,0,0.2,0,0.3s0,0.1,0.1,0.2c-0.1,0.3,0,0.4,0.1,0.5c0,0.1-0.1,0.2,0,0.3
		c0,0,0,0.1,0.1,0.1l0.1,0.1c0,0,0,0,0,0.1s0,0.1,0,0.1s0,0.1,0.1,0.2c0,0,0,0.1,0.1,0.2c0,0.1,0,0.2,0.1,0.2c0,0.1,0.1,0.1,0.1,0.2
		c0.2,0.4,0.3,0.6,0.4,0.7c0,0,0,0,0,0.1c0,0,0,0,0,0.1c0,0,0.1,0.1,0.2,0.1c0,0,0,0.1,0.1,0.2c0,0,0.1,0,0.1,0.1v0.1c0,0,0,0,0.1,0
		c0,0,0,0,0.1,0l0.1,0.1c0,0.1,0.1,0.1,0.1,0.1s0.1,0,0.3,0c0,0,0.1,0,0.1,0.1c0,0,0,0.1,0.1,0.1s0.1,0,0.1,0h0.1c0,0,0.1,0,0.2,0
		c0,0,0.1,0,0.2,0.1s0.1,0.1,0.2,0.1c0,0,0,0,0.1,0c0,0,0,0,0.1,0h0.1c0.1,0,0.1,0,0.1,0c0.1,0.1,0.2,0.2,0.2,0.2h0.1
		c0.1,0,0.1,0,0.1,0c0.3,0,0.5,0,0.6-0.1c0.2,0,0.3,0,0.4,0.1c0,0,0,0,0.1-0.1v-0.1c0.2,0.1,0.4,0.1,0.4,0c0.2,0,0.3,0,0.4-0.1
		c0.2,0,0.3,0,0.3-0.1c0.1,0,0.2,0,0.2,0s0,0,0.1,0h0.1c0,0,0.1,0,0.2-0.1c0,0,0.1,0,0.2-0.1c0.1,0,0.1-0.1,0.2-0.1
		c0,0,0.1-0.1,0.2-0.1c0.1-0.1,0.2-0.1,0.2-0.2c0.1,0,0.1,0,0.2-0.1c0,0,0.1,0,0.2-0.1c0.1,0,0.2,0,0.2-0.1c0.1-0.1,0.1-0.1,0.2-0.1
		c0,0,0,0,0-0.1l0,0c0,0,0,0,0.1,0c0,0,0,0,0.1,0c0,0,0.1-0.1,0.1-0.2c0-0.1,0.1-0.1,0.1-0.2c0.2-0.2,0.3-0.3,0.4-0.4
		c0.1,0,0.1,0,0.1,0l0.1-0.1c0.1,0,0.1,0,0.2,0c0,0,0.1-0.1,0.2-0.1s0.2,0,0.2,0.1h0.1c0.1,0,0.2,0.1,0.2,0.2c0.1,0,0.1,0,0.1,0
		s0.1,0.1,0.1,0.2c0,0.1,0.1,0.2,0.2,0.2v0.1l0.1,0.1c0,0,0.1,0,0.1,0.1s0,0.2,0.1,0.3s0.1,0.2,0.1,0.2c-0.1,0.1-0.1,0.2-0.1,0.2
		s0,0,0,0.1c0,0,0,0-0.1,0c0,0.1,0,0.2,0,0.2c-0.1,0-0.2,0.1-0.2,0.2c-0.1,0.1-0.2,0.2-0.2,0.2c-0.1,0.1-0.2,0.1-0.2,0.2
		c-0.1,0-0.2,0.1-0.4,0.2c0,0-0.1,0-0.1,0.1c0,0-0.1,0.1-0.2,0.1c0,0-0.1,0.1-0.2,0.1c-0.1,0.1-0.1,0.1-0.2,0.2
		c-0.2,0-0.3,0.2-0.5,0.3l-0.1-0.1c-0.1,0.1-0.2,0.2-0.2,0.2c-0.2,0-0.4,0.1-0.5,0.2c-0.1,0-0.2,0-0.2,0.2c0,0,0,0-0.1,0
		c0,0,0,0-0.1,0c0,0-0.1,0-0.1,0.1c0,0,0,0-0.1,0c0,0,0,0-0.1,0c0,0-0.1,0-0.2,0.1c-0.1,0-0.2,0-0.2,0s0,0-0.1,0.1h-0.1
		c0,0-0.1,0.1-0.1,0.2c0,0-0.1,0-0.2-0.1c-0.2,0-0.3,0-0.3,0.2h-0.1h-0.1c-0.1,0-0.3,0-0.6,0c-0.2,0-0.3,0.1-0.4,0.1h-0.1h-0.1
		c0,0,0,0,0,0.1c0,0,0,0,0,0.1h-0.2L68,58.7h-0.1h-0.1h-0.1h-0.1h-0.1c-0.1,0-0.1,0-0.1,0s0,0-0.1-0.1c0,0,0,0-0.1,0h-0.1
		c-0.1,0-0.1,0-0.1,0s-0.1,0-0.1-0.1c-0.1,0-0.1-0.1-0.1-0.1h-0.1h-0.1v-0.1c0,0-0.1,0-0.2-0.1c0,0,0,0-0.1,0c0,0,0,0-0.1,0v-0.1
		h-0.1H66c-0.1-0.1-0.2-0.2-0.2,0c0,0-0.1-0.1-0.1-0.2c0,0-0.1,0-0.2-0.1s-0.2-0.1-0.2-0.1h-0.1v-0.1H65c0-0.1,0-0.1,0-0.1
		s0,0-0.1,0h-0.1c0,0-0.1,0-0.1-0.1s0-0.1,0-0.1c-0.1,0-0.1,0-0.2,0s-0.1-0.1-0.2-0.1c0-0.1,0-0.2-0.1-0.2c-0.1-0.1-0.2-0.1-0.2-0.1
		c-0.1-0.2-0.2-0.4-0.4-0.4c0-0.1,0-0.2-0.2-0.3c-0.1-0.1-0.2-0.2-0.2-0.3c-0.1-0.2-0.2-0.3-0.3-0.4c0-0.1,0-0.2-0.1-0.3
		S62.6,55,62.6,55s0,0-0.1,0c0,0,0,0-0.1,0c0-0.1,0-0.2-0.1-0.2c0-0.1,0-0.2-0.1-0.2c0-0.2,0-0.3-0.1-0.5H62c-0.1-0.2-0.1-0.3,0-0.5
		c-0.1-0.2-0.1-0.3-0.2-0.4c0,0,0-0.1,0-0.2s0-0.1,0-0.2c-0.1-0.2-0.1-0.3-0.1-0.3s0,0-0.1-0.1l-0.1-0.1c0-0.2,0-0.3,0-0.3
		c0-0.1,0-0.3,0-0.4h-0.1v-0.1v-0.1c0,0,0,0,0-0.1c0,0,0,0,0-0.1c0,0,0,0,0-0.1c0,0,0,0,0-0.1v-0.1c0-0.1,0-0.2,0-0.2
		c0.1-0.1,0-0.2-0.1-0.2c0,0,0,0,0-0.1l0,0l0,0c0,0,0,0,0-0.1v-0.1v-0.1V50v-0.1c0,0,0-0.1,0.1-0.2c-0.1,0-0.1-0.2,0-0.6
		c0.1-0.4,0.2-0.6,0.2-0.6v-0.1c-0.1-0.1-0.2-0.2,0-0.4v-0.1c0,0,0,0,0.1-0.1c0,0,0.1,0,0.1-0.1c0,0,0-0.1-0.1-0.1c0,0,0,0,0.1-0.1
		c0,0,0.1,0,0.1-0.1c0,0,0-0.1-0.1-0.1c0,0,0-0.1,0-0.2c0-0.1,0-0.1,0-0.2l0.1-0.1c0,0,0-0.1,0-0.3s0-0.3,0-0.3s0.1-0.1,0.1-0.3
		s0.1-0.3,0.1-0.3s0-0.1,0.1-0.2c0,0-0.1-0.1,0-0.2c0-0.1,0-0.1,0-0.2c0,0,0.1-0.1,0.1-0.2s0.1-0.1,0.1-0.2c0-0.1,0-0.2,0.1-0.3
		c0,0-0.1-0.1-0.1-0.2c0-0.1,0.1-0.1,0.1-0.1c0-0.2,0.1-0.3,0.2-0.5c0-0.1,0-0.1,0.1-0.2c0.1-0.1,0.1-0.1,0.1-0.2L63,43v0
		c0.1-0.1,0.1-0.2,0.1-0.3l0.1-0.1l0.1-0.1c0-0.1,0.1-0.1,0.1-0.2c0.1,0,0.2-0.1,0.2-0.2c0.1-0.1,0.2-0.2,0.3-0.3
		c0.1,0,0.2-0.2,0.3-0.4c0,0,0.1,0,0.1,0.1c0.1,0,0.2-0.1,0.2-0.3c0.1,0,0.2-0.2,0.5-0.5c0.1,0,0.1,0,0.1-0.1c0,0,0,0,0.1,0
		c0,0,0,0,0.1,0l0.1-0.1l0.1-0.1c0,0,0.1,0,0.2-0.1c0.2,0,0.3,0,0.4-0.1c0.1,0,0.2,0,0.2-0.1l0.1-0.1h0.1h0.1h0.1h0.1
		c0,0,0.1,0,0.1,0.1H67h0.1h0.1c0,0,0,0,0.1,0c0,0,0,0.1,0.1,0.1s0.2,0,0.4,0c0.1,0,0.2,0.1,0.3,0.1c0,0.1,0.1,0.1,0.3,0.2
		c0.1,0,0.1,0.1,0.1,0.1h0.1C68.6,40.3,68.6,40.4,68.6,40.4z M68.5,40.3L68.5,40.3L68.5,40.3c0.3,0.2,0.4,0.2,0.5,0.3
		c0,0,0,0.1,0.1,0.1c0,0,0,0,0.1,0c0,0.1,0,0.2,0.1,0.2V41c0,0.1,0,0.2,0,0.2s0,0.1,0,0.2c0,0.1,0,0.1,0,0.1v0.1v0.1h-0.1
		c0,0-0.1,0.1-0.1,0.2c-0.1,0.1-0.2,0.2-0.3,0.2h-0.1h-0.1c0,0,0,0-0.1,0.1c0,0,0,0-0.1,0c0,0-0.1,0-0.2,0c0,0,0,0-0.1,0
		c0,0,0,0-0.1-0.1h-0.1h-0.1c0,0,0,0-0.1,0l0,0c0,0,0,0,0-0.1l-0.1-0.1c-0.2,0-0.4,0-0.4,0.1v0.1c-0.2,0-0.3,0-0.3,0.1l0,0l0,0
		c0,0-0.1,0-0.2,0.1s-0.1,0.1-0.1,0.2v0.1c0,0-0.1,0-0.1,0.1h-0.1C66.2,43,66,43.2,66,43.4h-0.1c0,0,0,0,0,0.1c0,0,0,0,0,0.1
		c-0.1,0-0.2,0.1-0.2,0.2c-0.1,0.1-0.2,0.2-0.2,0.2c0,0.1,0,0.2-0.1,0.3s-0.1,0.2-0.1,0.3l-0.1,0.1c0,0.1-0.1,0.1-0.1,0.1v0.1V45
		c0,0-0.1,0.1-0.1,0.2c0,0,0,0,0,0.1s0,0.1-0.1,0.2c0,0.1-0.1,0.1-0.1,0.2c0,0-0.1,0.1-0.1,0.2c0,0.1-0.1,0.2-0.1,0.2v0.2
		c-0.1,0.1-0.1,0.2-0.1,0.2v0.1c-0.5,0-0.5,0.2-0.4,0.4H64c0,0.1,0,0.2,0,0.5h-0.1c0,0.1,0,0.2,0,0.4s0,0.3-0.1,0.4
		c0,0.1,0,0.2,0,0.3s0,0.1-0.1,0.1c0,0.3-0.1,0.6-0.1,0.9c0,0,0,0.3,0,0.7c0,0.5,0,0.7,0,0.8s0,0.1,0,0.1c0,0.2,0,0.2,0.1,0.2
		c0,0,0,0.1,0,0.3c0,0.1,0,0.2,0,0.3s0,0.1,0.1,0.2c-0.1,0.3,0,0.4,0.1,0.5c0,0.1-0.1,0.2,0,0.3c0,0,0,0.1,0.1,0.1l0.1,0.1
		c0,0,0,0,0,0.1s0,0.1,0,0.1s0,0.1,0.1,0.2c0,0,0,0.1,0.1,0.2c0,0.1,0,0.2,0.1,0.2c0,0.1,0.1,0.1,0.1,0.2c0.2,0.4,0.3,0.6,0.4,0.7
		c0,0,0,0,0,0.1c0,0,0,0,0,0.1c0,0,0.1,0.1,0.2,0.1c0,0,0,0.1,0.1,0.2c0,0,0.1,0,0.1,0.1v0.1c0,0,0,0,0.1,0c0,0,0,0,0.1,0l0.1,0.1
		c0,0.1,0.1,0.1,0.1,0.1s0.1,0,0.3,0c0,0,0.1,0,0.1,0.1c0,0,0,0.1,0.1,0.1s0.1,0,0.1,0h0.1h0.1c0,0,0.1,0,0.2,0.1s0.1,0.1,0.2,0.1
		c0,0,0,0,0.1,0c0,0,0,0,0.1,0h0.1c0.1,0,0.1,0,0.1,0c0.1,0.1,0.2,0.2,0.2,0.2h0.1c0.1,0,0.1,0,0.1,0c0.3,0,0.5,0,0.6-0.1
		c0.2,0,0.3,0,0.4,0.1c0,0,0,0,0.1-0.1v-0.1c0.2,0.1,0.4,0.1,0.4,0c0.2,0,0.3,0,0.4-0.1c0.2,0,0.3,0,0.3-0.1c0.1,0,0.2,0,0.2,0
		s0,0,0.1,0h0.1c0,0,0.1,0,0.2-0.1c0,0,0.1,0,0.2-0.1c0.1,0,0.1-0.1,0.2-0.1c0,0,0.1-0.1,0.2-0.1c0.1-0.1,0.2-0.1,0.2-0.2
		c0.1,0,0.1,0,0.2-0.1c0,0,0.1,0,0.2-0.1c0.1,0,0.2,0,0.2-0.1C72,55,72,55,72.1,55c0,0,0,0,0-0.1l0,0c0,0,0,0,0.1,0c0,0,0,0,0.1,0
		c0,0,0.1-0.1,0.1-0.2c0-0.1,0.1-0.1,0.1-0.2c0.2-0.2,0.3-0.3,0.4-0.4c0.1,0,0.1,0,0.1,0l0.1-0.1c0.1,0,0.1,0,0.2,0
		c0,0,0.1-0.1,0.2-0.1s0.2,0,0.2,0.1h0.1c0.1,0,0.2,0.1,0.2,0.2c0.1,0,0.1,0,0.1,0s0.1,0.1,0.1,0.2c0,0.1,0.1,0.2,0.2,0.2v0.1
		l0.1,0.1c0,0,0.1,0,0.1,0.1s0,0.2,0.1,0.3s0.1,0.2,0.1,0.2c-0.1,0.1-0.1,0.2-0.1,0.2s0,0,0,0.1c0,0,0,0-0.1,0c0,0.1,0,0.2,0,0.2
		c-0.1,0-0.2,0.1-0.2,0.2c-0.1,0.1-0.2,0.2-0.2,0.2c-0.1,0.1-0.2,0.1-0.2,0.2c-0.1,0-0.2,0.1-0.4,0.2c0,0-0.1,0-0.1,0.1
		c0,0-0.1,0.1-0.2,0.1c0,0-0.1,0.1-0.2,0.1c-0.1,0.1-0.1,0.1-0.2,0.2c-0.2,0-0.3,0.2-0.5,0.3l-0.1-0.1c-0.1,0.1-0.2,0.2-0.2,0.2
		c-0.2,0-0.4,0.1-0.5,0.2c-0.1,0-0.2,0-0.2,0.2c0,0,0,0-0.1,0c0,0,0,0-0.1,0c0,0-0.1,0-0.1,0.1c0,0,0,0-0.1,0c0,0,0,0-0.1,0
		c0,0-0.1,0-0.2,0.1c-0.1,0-0.2,0-0.2,0s0,0-0.1,0.1h-0.1c0,0-0.1,0.1-0.1,0.2c0,0-0.1,0-0.2-0.1c-0.2,0-0.3,0-0.3,0.2h-0.1h-0.1
		c-0.1,0-0.3,0-0.6,0c-0.2,0-0.3,0.1-0.4,0.1h-0.1h-0.1c0,0,0,0,0,0.1c0,0,0,0,0,0.1h-0.2l-0.2-0.2h-0.1h-0.1h-0.1h-0.1h-0.1
		c-0.1,0-0.1,0-0.1,0s0,0-0.1-0.1c0,0,0,0-0.1,0H67c-0.1,0-0.1,0-0.1,0s-0.1,0-0.1-0.1c-0.1,0-0.1-0.1-0.1-0.1h-0.1h-0.1v-0.1
		c0,0-0.1,0-0.2-0.1c0,0,0,0-0.1,0c0,0,0,0-0.1,0v-0.1H66h-0.1c-0.1-0.1-0.2-0.2-0.2,0c0,0-0.1-0.1-0.1-0.2c0,0-0.1,0-0.2-0.1
		s-0.2-0.1-0.2-0.1h-0.1v-0.1h-0.2c0-0.1,0-0.1,0-0.1s0,0-0.1,0h-0.1c0,0-0.1,0-0.1-0.1s0-0.1,0-0.1c-0.1,0-0.1,0-0.2,0
		s-0.1-0.1-0.2-0.1c0-0.1,0-0.2-0.1-0.2c-0.1-0.1-0.2-0.1-0.2-0.1c-0.1-0.2-0.2-0.4-0.4-0.4c0-0.1,0-0.2-0.2-0.3
		c-0.1-0.1-0.2-0.2-0.2-0.3c-0.1-0.2-0.2-0.3-0.3-0.4c0-0.1,0-0.2-0.1-0.3S62.5,55,62.5,55s0,0-0.1,0c0,0,0,0-0.1,0
		c0-0.1,0-0.2-0.1-0.2c0-0.1,0-0.2-0.1-0.2c0-0.2,0-0.3-0.1-0.5h-0.1c-0.1-0.2-0.1-0.3,0-0.5c-0.1-0.2-0.1-0.3-0.2-0.4
		c0,0,0-0.1,0-0.2s0-0.1,0-0.2c-0.1-0.2-0.1-0.3-0.1-0.3s0,0-0.1-0.1c0,0-0.1,0-0.1-0.1c0,0,0-0.1,0-0.2c0-0.1,0-0.1,0-0.2
		c0-0.1,0-0.3,0-0.4h-0.1v-0.1v-0.1c0,0,0,0,0-0.1c0,0,0,0,0-0.1c0,0,0,0,0-0.1c0,0,0,0,0-0.1v-0.1c0-0.1,0-0.2,0-0.2
		c0.1-0.1,0-0.2-0.1-0.2c0,0,0,0,0-0.1l0,0l0,0c0,0,0,0,0-0.1v-0.1V50v-0.1v-0.1c0,0,0-0.1,0.1-0.2c-0.1,0-0.1-0.2,0-0.6
		c0.1-0.4,0.2-0.6,0.2-0.6v-0.1c-0.1-0.1-0.2-0.2,0-0.4v-0.1c0,0,0,0,0.1-0.1c0,0,0.1,0,0.1-0.1c0,0,0-0.1-0.1-0.1c0,0,0,0,0.1-0.1
		c0,0,0.1,0,0.1-0.1l-0.1-0.1c0,0,0-0.1,0-0.2c0-0.1,0-0.1,0-0.2l0.1-0.1c0,0,0-0.1,0-0.3s0-0.3,0-0.3s0.1-0.1,0.1-0.3
		s0.1-0.3,0.1-0.3s0-0.1,0.1-0.2c0,0-0.1-0.1,0-0.2c0-0.1,0-0.1,0-0.2c0,0,0.1-0.1,0.1-0.2s0.1-0.1,0.1-0.2c0-0.1,0-0.2,0.1-0.3
		c0,0-0.1-0.1-0.1-0.2c0-0.1,0.1-0.1,0.1-0.1c0-0.2,0.1-0.3,0.2-0.5c0-0.1,0-0.1,0.1-0.2c0.1-0.1,0.1-0.1,0.1-0.2l0.1-0.1V43
		c0.1-0.1,0.1-0.2,0.1-0.3l0.1-0.1l0.1-0.1c0-0.1,0.1-0.1,0.1-0.2c0.1,0,0.2-0.1,0.2-0.2c0.1-0.1,0.2-0.2,0.3-0.3
		c0.1,0,0.2-0.2,0.3-0.4c0,0,0.1,0,0.1,0.1c0.1,0,0.2-0.1,0.2-0.3c0.1,0,0.2-0.2,0.5-0.5c0.1,0,0.1,0,0.1-0.1c0,0,0,0,0.1,0
		c0,0,0,0,0.1,0l0.1-0.1l0.1-0.1c0,0,0.1,0,0.2-0.1c0.2,0,0.3,0,0.4-0.1c0.1,0,0.2,0,0.2-0.1l0.1-0.1h0.1h0.1h0.1h0.1
		c0,0,0.1,0,0.1,0.1h0.1H67h0.1c0,0,0,0,0.1,0c0,0,0,0.1,0.1,0.1s0.2,0,0.4,0c0.1,0,0.2,0.1,0.3,0.1c0,0.1,0.1,0.1,0.3,0.2
		C68.4,40.2,68.4,40.3,68.5,40.3z M61.5,46.3C61.5,46.3,61.4,46.2,61.5,46.3C61.4,46.2,61.4,46.2,61.5,46.3
		C61.5,46.2,61.5,46.2,61.5,46.3z M61.4,46.2C61.5,46.2,61.5,46.2,61.4,46.2C61.5,46.3,61.4,46.2,61.4,46.2L61.4,46.2z"/>
	<path fill="#54813B" d="M89.5,43.7C89.5,43.6,89.6,43.6,89.5,43.7L89.5,43.7L89.5,43.7c0.3,0.1,0.4,0.1,0.5,0.1c0,0,0,0,0.1,0
		c0,0,0,0,0.1,0h0.1c0.1,0.1,0.3,0.1,0.5,0c0,0,0.1,0.1,0.2,0.1s0.2,0,0.2,0.1c0,0,0,0,0.1,0c0,0,0,0,0.1,0s0.1,0,0.1,0.1
		c0,0,0,0,0.1,0c0,0,0,0,0.1,0c0,0,0,0.1,0.1,0.2c0,0,0.1,0,0.2,0.1s0.1,0.1,0.2,0.1c0.1,0.4,0.2,0.6,0.2,0.6c0,0.1-0.1,0.2,0,0.3
		c0,0.3,0,0.5,0,0.5s-0.1,0.1-0.2,0.2c-0.1,0.1-0.2,0.2-0.2,0.2c-0.1,0-0.1,0.1-0.1,0.2c0,0,0,0-0.1,0c0,0,0,0-0.1,0
		c0,0-0.1,0-0.1,0.1l-0.1,0.1h-0.1h-0.1c0,0,0,0-0.1,0.1c0,0,0,0.1-0.1,0.1H91L90.9,47c0,0-0.1,0-0.1-0.1c-0.1,0-0.1-0.1-0.2-0.1
		s-0.1,0.1-0.1,0.2c0,0-0.1,0-0.2-0.1h-0.1h-0.1c0,0,0-0.1-0.1-0.2h-0.1c0-0.1-0.1-0.2-0.2-0.1l-0.1,0.1c0,0,0,0-0.1,0
		c0,0,0,0-0.1,0h-0.1c0,0,0-0.1-0.1-0.1c0,0,0,0-0.1,0c0,0,0,0,0,0.1c-0.1,0-0.2,0-0.2-0.1c0,0-0.1,0-0.1,0.1c0,0-0.1,0-0.1-0.1
		c-0.1,0-0.3,0-0.6,0c-0.3,0-0.5,0-0.5,0s0,0-0.1,0c0,0,0,0-0.1,0s0,0-0.1,0c0,0,0,0-0.1,0c-0.2,0-0.4,0-0.7,0h-0.1h-0.1
		c-0.1,0-0.2,0-0.2,0s0.1,0.1,0.1,0.2c0,0.1,0.1,0.2,0.2,0.2c-0.1,0.1-0.1,0.2-0.1,0.3c0,0,0,0,0,0.1s0,0.1,0,0.2
		c0,0.1,0,0.1,0.1,0.2c0,0.1,0.1,0.1,0.1,0.1c0,0.2,0,0.4-0.1,0.4c0,0.2,0,0.3,0.1,0.3V49v0.1c0,0,0,0.1,0.1,0.1c0,0.1,0,0.2,0,0.3
		c0,0,0,0.1,0.1,0.1c-0.1,0.2-0.1,0.3,0,0.3c0,0-0.1,0.1-0.1,0.2c0,0.1,0,0.1,0.1,0.1c0.1,0.2,0.1,0.3,0,0.3c0,0,0,0.1,0,0.2
		s0,0.1,0,0.1v0.1c0,0,0,0,0.1,0.1c0,0,0.1,0,0.1,0.1c0,0,0,0.1-0.1,0.1c0,0.1,0,0.1,0,0.2c0,0.1,0,0.2,0,0.2c0,0.1,0.1,0.1,0.1,0.1
		v0.1v0.1c0,0,0,0,0,0.1c0,0,0,0,0,0.1v0.1v0.1v0.1v0.1c0,0,0,0,0,0.1v0.1c0,0,0,0.1,0,0.2c0,0.1,0,0.1,0,0.2c0,0.1,0,0.1,0,0.1v0.1
		c0,0,0,0.1,0.1,0.1v0.1c0,0.1,0,0.2,0,0.2l0.1,0.1c0,0.2,0.1,0.3,0.1,0.3l-0.1,0.1c0,0,0,0,0,0.1v0.1v0.1c0,0,0,0.1,0.1,0.1
		c0,0.2,0.1,0.2,0.1,0.2c0,0.3,0,0.5,0.1,0.5h0.1c0,0,0,0,0,0.1v0.1c0,0,0,0-0.1-0.1c-0.1,0-0.1,0.1,0,0.2c0,0.1,0,0.2,0,0.2
		c0,0.1,0,0.2,0,0.2c0,0.1,0.1,0.2,0.1,0.3c0,0,0.1,0.1,0.1,0.4l0.1,0.1c0,0,0,0.2,0,0.4s0,0.3,0,0.4s0,0.1,0,0.1c0,0.1,0,0.2,0,0.2
		c0,0.4,0,0.6,0,0.7c0,0,0,0.1-0.1,0.1l-0.1,0.1c0,0,0,0-0.1,0.1c0,0,0,0-0.1-0.1c0,0-0.1,0-0.1,0.1c0,0-0.1,0.1-0.1,0
		c0,0,0,0-0.1,0c0,0,0,0-0.1,0l-0.1,0.2c0,0-0.1,0-0.1-0.1c0,0,0-0.1-0.1-0.1L86.5,59c-0.1,0.1-0.2,0.1-0.2,0c0,0,0,0-0.1,0
		c0,0,0,0-0.1,0L86,58.9c-0.1,0-0.2,0-0.3-0.1c-0.1,0-0.1,0-0.1,0c0-0.2-0.1-0.4-0.2-0.4c0-0.1,0-0.1,0-0.1h-0.1
		c0-0.2-0.1-0.2-0.2-0.2c0,0,0-0.1,0-0.2c0-0.1,0.1-0.1,0.1-0.1v-0.1c0-0.1,0-0.1,0-0.1s0-0.1,0-0.2c0-0.1,0-0.2,0-0.2l0,0
		c0,0,0,0-0.1,0c0-0.1,0-0.2,0-0.3s0-0.2,0-0.3S85,56.4,85,56.4v-0.1c0-0.1,0-0.1,0-0.1s0-0.1-0.1-0.1L84.8,56c0,0,0,0,0-0.1
		s0-0.1,0-0.1h-0.1c0-0.2,0-0.3,0-0.4c0-0.1-0.1-0.2-0.1-0.2s0-0.1,0-0.2c0-0.2,0-0.3-0.1-0.4c0,0,0.1-0.1,0-0.3
		c0-0.1-0.1-0.2-0.2-0.2c0.1-0.2,0.1-0.4,0-0.7c0,0,0-0.1,0-0.3s0-0.3-0.1-0.3c0,0,0-0.1,0-0.2c0-0.1,0-0.2,0-0.2s0-0.1-0.1-0.2
		c0-0.1-0.1-0.1-0.1-0.1c0-0.1,0-0.2,0-0.2v-0.1v-0.1c0,0-0.1-0.1-0.2-0.2c0,0,0,0,0.1-0.1c0,0,0.1,0,0.1-0.1c0,0,0-0.1-0.1-0.1
		c0,0,0-0.1,0-0.2c0-0.1,0-0.1,0-0.2l-0.1-0.1v-0.5c0,0,0,0,0-0.1c0,0,0,0,0-0.1v-0.1c0-0.1,0-0.1,0-0.1s0,0-0.1-0.1
		c0,0-0.1,0-0.1-0.1c0,0,0-0.1,0-0.2c0-0.1,0-0.2,0-0.2v-0.1c0-0.1,0-0.1,0-0.1v-0.1v-0.1c0,0,0,0-0.1-0.1c0,0,0,0,0-0.1
		c0,0,0-0.1,0-0.2c0-0.2,0-0.3-0.1-0.4c0-0.2-0.1-0.3-0.2-0.3c0,0,0,0,0-0.1c0,0,0,0,0.1-0.1c0-0.2-0.1-0.2-0.2-0.2
		c0-0.1,0.1-0.2,0-0.3c0,0,0,0,0-0.1c0,0,0,0,0-0.1v-0.1c0,0,0-0.1-0.1-0.1s-0.2,0-0.3,0c-0.2,0.1-0.3,0.1-0.3,0.1h-0.1h-0.1
		c0,0,0,0-0.1,0s-0.1,0-0.2,0c0-0.1-0.1-0.1-0.2-0.1c0,0,0,0-0.1,0.1s0,0.1-0.1,0.1c0,0-0.1,0-0.2,0s-0.2,0-0.2,0H81
		c0,0-0.1,0-0.1,0.1c0,0,0,0-0.1,0c0,0,0,0-0.1,0c0,0-0.1,0-0.2,0h-0.1h-0.1c-0.1,0-0.1,0-0.1,0h-0.1H80h-0.1h-0.1
		c-0.1,0-0.1,0-0.2,0V47c0,0-0.1,0-0.2,0s-0.1,0-0.2,0l-0.1-0.1c0,0-0.1,0-0.1,0.1c-0.3,0-0.4,0-0.5-0.1h-0.1h-0.1c0,0,0,0-0.1,0.1
		c0,0,0,0-0.1,0c0,0,0,0-0.1,0c0,0-0.1,0-0.2,0s-0.2,0-0.2,0s0,0-0.1,0.1c0,0,0,0-0.1,0c0,0,0,0-0.1,0c0-0.1,0-0.2-0.1-0.2
		S77,46.9,77,47c0,0-0.1,0-0.2,0s-0.1,0-0.1,0c0-0.1-0.1-0.2-0.1-0.2s0,0-0.1,0c0,0,0,0-0.1,0c0,0,0,0,0-0.1v-0.1h-0.1
		c0,0,0-0.1-0.1-0.2v-0.1v-0.1c0,0-0.1-0.1-0.2-0.3c0-0.1-0.1-0.1-0.2-0.2c-0.1-0.1-0.1-0.1-0.1-0.2c0,0,0,0,0-0.1c0,0,0,0,0.1-0.1
		c0,0,0-0.1,0-0.2c0-0.1,0-0.1,0-0.1s0.1-0.1,0.2-0.2c0,0,0,0,0-0.1l0,0c0,0,0,0,0.1-0.1s0.1-0.1,0.1-0.2c0.1-0.1,0.2-0.2,0.2-0.2
		c0.1,0,0.4,0.1,0.6,0v-0.1c0.3,0.1,0.4,0.1,0.4,0.1c0.1,0,0.1-0.1,0.1-0.1h0.1h0.1c0,0,0,0,0.1,0c0,0,0,0,0.1,0c0,0,0,0,0.1,0
		c0,0,0,0,0.1,0c0.2,0,0.3,0,0.4,0c0,0,0.1,0,0.1-0.1c0.1,0,0.1,0,0.2,0s0.1,0.1,0.1,0.1c0.1,0,0.2,0,0.4,0c0,0,0.1,0,0.2,0
		s0.1,0,0.2-0.1c0,0,0.1,0,0.3,0c0.1,0,0.2,0,0.3,0c0,0,0,0,0.1,0c0,0,0,0,0.1,0c0,0,0,0,0.1,0c0,0,0,0,0.1,0s0.3,0.1,0.5,0h0.1h0.1
		h0.1h0.1h0.1c0.1,0,0.2-0.1,0.4,0l0,0l0,0c0,0,0,0,0.1,0c0,0,0,0,0.1,0s0.3,0,0.5,0s0.4,0,0.5,0h0.1c0.1,0.1,0.2,0.1,0.4,0
		c0.2-0.1,0.3-0.1,0.3-0.1s0,0,0.1,0c0,0,0,0,0.1,0c0,0,0,0,0.1,0c0,0,0,0,0-0.1c0,0,0.1,0,0.2,0s0.1,0,0.2,0l0,0c0,0,0.1,0,0.2,0
		s0.1,0,0.2,0.1c0.1,0,0.1-0.1,0.2-0.1h0.1c0,0,0,0,0.1,0c0,0,0,0,0.1,0c0,0,0,0,0.1,0c0,0,0,0,0.1,0s0.1,0,0.2-0.1
		c0.1,0,0.2,0,0.2,0.1c0.1,0.1,0.1,0.1,0.2,0.1h0.1l0.1-0.1c0.1,0,0.2,0,0.2,0s0,0,0.1,0c0,0,0,0,0.1,0c0,0,0.1,0,0.2,0.1
		c0,0,0,0,0.1,0c0,0,0,0,0.1,0c0,0.1,0.1,0.1,0.2,0c0.1,0,0.2-0.1,0.2,0c0,0,0,0,0.1,0c0,0,0,0,0.1,0c0,0,0.1,0,0.2,0s0.1,0,0.1,0
		h0.1h0.1c0,0,0.1,0,0.2-0.1h0.1l0.1,0.1c0,0,0,0,0.1,0c0,0,0,0,0.1,0c0,0,0.1,0,0.1,0.1C89.4,43.8,89.4,43.8,89.5,43.7z M89.6,43.6
		C89.6,43.6,89.6,43.7,89.6,43.6C89.6,43.7,89.6,43.7,89.6,43.6c0.2,0.1,0.3,0.1,0.4,0.1c0,0,0,0,0.1,0c0,0,0,0,0.1,0h0.1
		c0.1,0.1,0.3,0.1,0.5,0c0,0,0.1,0.1,0.2,0.1s0.2,0,0.2,0.1c0,0,0,0,0.1,0c0,0,0,0,0.1,0s0.1,0,0.1,0.1c0,0,0,0,0.1,0c0,0,0,0,0.1,0
		c0,0,0,0.1,0.1,0.2c0,0,0.1,0,0.2,0.1s0.1,0.1,0.2,0.1c0.1,0.4,0.2,0.6,0.2,0.6c0,0.1-0.1,0.2,0,0.3c0,0.3,0,0.5,0,0.5
		s-0.1,0.1-0.2,0.2c-0.1,0.1-0.2,0.2-0.2,0.2c-0.1,0-0.1,0.1-0.1,0.2c0,0,0,0-0.1,0c0,0,0,0-0.1,0c0,0-0.1,0-0.1,0.1l-0.1,0.1h-0.1
		h-0.1c0,0,0,0-0.1,0.1c0,0,0,0.1-0.1,0.1H91l-0.1,0.1c0,0-0.1,0-0.1-0.1c-0.1,0-0.1-0.1-0.2-0.1s-0.1,0.1-0.1,0.2
		c0,0-0.1,0-0.2-0.1h-0.1h-0.1c0,0,0-0.1-0.1-0.2h-0.1c0-0.1-0.1-0.2-0.2-0.1l-0.1,0.1c0,0,0,0-0.1,0c0,0,0,0-0.1,0h-0.1
		c0,0,0-0.1-0.1-0.1c0,0,0,0-0.1,0c0,0,0,0,0,0.1c-0.1,0-0.2,0-0.2-0.1c0,0-0.1,0-0.1,0.1c0,0-0.1,0-0.1-0.1c-0.1,0-0.3,0-0.6,0
		c-0.3,0-0.5,0-0.5,0s0,0-0.1,0c0,0,0,0-0.1,0s0,0-0.1,0c0,0,0,0-0.1,0c-0.2,0-0.4,0-0.7,0h-0.1h-0.1c-0.1,0-0.2,0-0.2,0
		s0.1,0.1,0.1,0.2c0,0.1,0.1,0.2,0.2,0.2c-0.1,0.1-0.1,0.2-0.1,0.3c0,0,0,0,0,0.1s0,0.1,0,0.2c0,0.1,0,0.1,0.1,0.2
		c0,0.1,0.1,0.1,0.1,0.1c0,0.2,0,0.4-0.1,0.4c0,0.2,0,0.3,0.1,0.3v0.4V49c0,0,0,0.1,0.1,0.1c0,0.1,0,0.2,0,0.3c0,0,0,0.1,0.1,0.1
		c-0.1,0.2-0.1,0.3,0,0.3c0,0-0.1,0.1-0.1,0.2c0,0.1,0,0.1,0.1,0.1c0.1,0.2,0.1,0.3,0,0.3c0,0,0,0.1,0,0.2s0,0.1,0,0.1v0.1
		c0,0,0,0,0.1,0.1c0,0,0.1,0,0.1,0.1c0,0,0,0.1-0.1,0.1c0,0.1,0,0.1,0,0.2c0,0.1,0,0.2,0,0.2c0,0.1,0.1,0.1,0.1,0.1v0.1v0.1
		c0,0,0,0,0,0.1c0,0,0,0,0,0.1v0.1v0.1v0.1v0.1c0,0,0,0,0,0.1v0.1c0,0,0,0.1,0,0.2c0,0.1,0,0.1,0,0.2c0,0.1,0,0.1,0,0.1v0.1
		c0,0,0,0.1,0.1,0.1v0.1c0,0.1,0,0.2,0,0.2l0.1,0.1c0,0.2,0.1,0.3,0.1,0.3l-0.1,0.1c0,0,0,0,0,0.1v0.1v0.1c0,0,0,0.1,0.1,0.1
		c0,0.2,0.1,0.2,0.1,0.2c0,0.3,0,0.5,0.1,0.5h0.1c0,0,0,0,0,0.1v0.1c0,0,0,0-0.1-0.1c-0.1,0-0.1,0.1,0,0.2c0,0.1,0,0.2,0,0.2
		c0,0.1,0,0.2,0,0.2c0,0.1,0.1,0.2,0.1,0.3c0,0,0.1,0.1,0.1,0.4l0.1,0.1c0,0,0,0.2,0,0.4s0,0.3,0,0.4s0,0.1,0,0.1c0,0.1,0,0.2,0,0.2
		c0,0.4,0,0.6,0,0.7c0,0,0,0.1-0.1,0.1l-0.1,0.1c0,0,0,0-0.1,0.1c0,0,0,0-0.1-0.1c0,0-0.1,0-0.1,0.1c0,0-0.1,0.1-0.1,0
		c0,0,0,0-0.1,0c0,0,0,0-0.1,0L86.8,59c0,0,0,0-0.1-0.1c0,0,0-0.1-0.1-0.1l-0.1,0.1c-0.1,0.1-0.2,0.1-0.2,0c0,0,0,0-0.1,0
		c0,0,0,0-0.1,0L86,58.8c-0.1,0-0.2,0-0.3-0.1c-0.1,0-0.1,0-0.1,0c0-0.2-0.1-0.4-0.2-0.4c0-0.1,0-0.1,0-0.1h-0.1
		c0-0.2-0.1-0.2-0.2-0.2c0,0,0-0.1,0-0.2c0-0.1,0.1-0.1,0.1-0.1v-0.1c0-0.1,0-0.1,0-0.1s0-0.1,0-0.2c0-0.1,0-0.2,0-0.2l0,0
		c0,0,0,0-0.1,0c0-0.1,0-0.2,0-0.3s0-0.2,0-0.3S85,56.3,85,56.3v-0.1c0-0.1,0-0.1,0-0.1s0-0.1-0.1-0.1l-0.1-0.1c0,0,0,0,0-0.1
		s0-0.1,0-0.1h-0.1c0-0.2,0-0.3,0-0.4c0-0.1-0.1-0.2-0.1-0.2s0-0.1,0-0.2c0-0.2,0-0.3-0.1-0.4c0,0,0.1-0.1,0-0.3
		c0-0.1-0.1-0.2-0.2-0.2c0.1-0.2,0.1-0.4,0-0.7c0,0,0-0.1,0-0.3s0-0.3-0.1-0.3c0,0,0-0.1,0-0.2c0-0.1,0-0.2,0-0.2s0-0.1-0.1-0.2
		C84.1,52,84,52,84,52c0-0.1,0-0.2,0-0.2v-0.1v-0.1c0,0-0.1-0.1-0.2-0.2c0,0,0,0,0.1-0.1c0,0,0.1,0,0.1-0.1c0,0,0-0.1-0.1-0.1
		c0,0,0-0.1,0-0.2c0-0.1,0-0.1,0-0.2l-0.1-0.1v-0.5c0,0,0,0,0-0.1c0,0,0,0,0-0.1v-0.1c0-0.1,0-0.1,0-0.1s0,0-0.1-0.1
		c0,0-0.1,0-0.1-0.1c0,0,0-0.1,0-0.2c0-0.1,0-0.2,0-0.2V49c0-0.1,0-0.1,0-0.1v-0.1v-0.1c0,0,0,0-0.1-0.1c0,0,0,0,0-0.1
		c0,0,0-0.1,0-0.2c0-0.2,0-0.3-0.1-0.4c0-0.2-0.1-0.3-0.2-0.3c0,0,0,0,0-0.1c0,0,0,0,0.1-0.1c0-0.2-0.1-0.2-0.2-0.2
		c0-0.1,0.1-0.2,0-0.3c0,0,0,0,0-0.1c0,0,0,0,0-0.1v-0.1c0,0,0-0.1-0.1-0.1s-0.2,0-0.3,0c-0.2,0.1-0.3,0.1-0.3,0.1h-0.1h-0.1
		c0,0,0,0-0.1,0s-0.1,0-0.2,0c0,0-0.1-0.1-0.2-0.1c0,0,0,0-0.1,0.1s0,0.1-0.1,0.1c0,0-0.1,0-0.2,0s-0.2,0-0.2,0H81
		c0,0-0.1,0-0.1,0.1c0,0,0,0-0.1,0c0,0,0,0-0.1,0c0,0-0.1,0-0.2,0h-0.1h-0.1c-0.1,0-0.1,0-0.1,0h-0.1H80h-0.1h-0.1
		c-0.1,0-0.1,0-0.2,0v0.1c0,0-0.1,0-0.2,0s-0.2,0-0.2,0l-0.1-0.1c0,0-0.1,0-0.1,0.1c-0.3,0-0.4,0-0.5-0.1h-0.1h-0.1c0,0,0,0-0.1,0.1
		c0,0,0,0-0.1,0c0,0,0,0-0.1,0c0,0-0.1,0-0.2,0s-0.2,0-0.2,0s0,0-0.1,0.1c0,0,0,0-0.1,0c0,0,0,0-0.1,0c0-0.1,0-0.2-0.1-0.2
		s-0.2,0-0.2,0.1c0,0-0.1,0-0.2,0s-0.1,0-0.1,0c0-0.1-0.1-0.2-0.1-0.2s0,0-0.1,0c0,0,0,0-0.1,0c0,0,0,0,0-0.1v-0.1h-0.1v-0.1v-0.1
		v-0.1v-0.1c0,0-0.1-0.1-0.2-0.3c0-0.1-0.1-0.1-0.2-0.2c-0.1-0.1-0.1-0.1-0.1-0.2c0,0,0,0,0-0.1c0,0,0,0,0.1-0.1c0,0,0-0.1,0-0.2
		c0-0.1,0-0.1,0-0.1s0.1-0.1,0.2-0.2c0,0,0,0,0-0.1l0,0c0,0,0,0,0.1-0.1s0.1-0.1,0.1-0.2c0.1-0.1,0.2-0.2,0.2-0.2
		c0.1,0,0.4,0.1,0.6,0V44c0.3,0.1,0.4,0.1,0.4,0.1c0.1,0,0.1-0.1,0.1-0.1h0.1h0.1c0,0,0,0,0.1,0c0,0,0,0,0.1,0c0,0,0,0,0.1,0
		c0,0,0,0,0.1,0c0.2,0,0.3,0,0.4,0c0,0,0.1,0,0.1-0.1c0.1,0,0.1,0,0.2,0S79,44,79,44c0.1,0,0.2,0,0.4,0c0,0,0.1,0,0.2,0
		s0.1,0,0.2-0.1c0,0,0.1,0,0.3,0c0.1,0,0.2,0,0.3,0c0,0,0,0,0.1,0c0,0,0,0,0.1,0c0,0,0,0,0.1,0c0,0,0,0,0.1,0s0.3,0.1,0.5,0h0.1h0.1
		h0.1h0.1h0.1c0.1,0,0.2-0.1,0.4,0l0,0l0,0c0,0,0,0,0.1,0c0,0,0,0,0.1,0s0.3,0,0.5,0s0.4,0,0.5,0c0,0,0,0,0.1-0.1
		c0.1,0.1,0.2,0.1,0.4,0c0.2-0.1,0.3-0.1,0.3-0.1s0,0,0.1,0c0,0,0,0,0.1,0c0,0,0,0,0.1,0c0,0,0,0,0-0.1c0,0,0.1,0,0.2,0s0.1,0,0.2,0
		l0,0c0,0,0.1,0,0.2,0s0.1,0,0.2,0.1c0.1,0,0.1-0.1,0.2-0.1h0.1c0,0,0,0,0.1,0c0,0,0,0,0.1,0c0,0,0,0,0.1,0c0,0,0,0,0.1,0
		s0.1,0,0.2-0.1c0.1,0,0.2,0,0.2,0.1c0.1,0.1,0.1,0.1,0.2,0.1c0,0,0.1,0,0.1-0.1l0.1-0.1c0.1,0,0.2,0,0.2,0s0,0,0.1,0c0,0,0,0,0.1,0
		c0,0,0.1,0,0.2,0.1c0,0,0,0,0.1,0c0,0,0,0,0.1,0c0,0.1,0.1,0.1,0.2,0c0.1,0,0.2-0.1,0.2,0c0,0,0,0,0.1,0c0,0,0,0,0.1,0
		c0,0,0.1,0,0.2,0s0.1,0,0.1,0h0.1h0.1c0,0,0.1,0,0.2-0.1H89l0.1,0.1c0,0,0,0,0.1,0c0,0,0,0,0.1,0c0,0,0.1,0,0.1,0.1
		C89.4,43.7,89.5,43.7,89.6,43.6C89.5,43.7,89.6,43.6,89.6,43.6z M84.7,53.4C84.7,53.5,84.7,53.5,84.7,53.4
		C84.7,53.5,84.7,53.5,84.7,53.4C84.6,53.5,84.6,53.5,84.7,53.4L84.7,53.4z M84.7,53.5C84.6,53.5,84.6,53.5,84.7,53.5
		C84.7,53.4,84.7,53.4,84.7,53.5L84.7,53.5L84.7,53.5z M87.1,51.6L87.1,51.6L87.1,51.6z M87.1,51.6L87.1,51.6L87.1,51.6L87.1,51.6z"
		/>
</g>
<text transform="matrix(1 0 0 1 111.9943 24.358)" font-family="'BrownBagLunch'" font-size="46px">SELECT</text>
</svg>
