<?xml version="1.0" encoding="utf-8"?>
<!-- Generator: Adobe Illustrator 19.0.1, SVG Export Plug-In . SVG Version: 6.00 Build 0)  -->
<svg version="1.1" id="Layer_1" xmlns="http://www.w3.org/2000/svg" xmlns:xlink="http://www.w3.org/1999/xlink" x="0px" y="0px"
	 viewBox="0 0 100 100" enable-background="new 0 0 100 100" xml:space="preserve">
<g>
	<path fill="#54813B" d="M20.4,30.5C20.5,30.5,20.5,30.5,20.4,30.5c0,0.1,0,0.1,0,0.1c0.2,0,0.3,0,0.4-0.1c0.1,0,0.1,0,0.3,0
		c0.1,0,0.2,0,0.2,0c0,0.1,0.1,0.1,0.2,0.1s0.2,0,0.3-0.1h0.1c0.1,0,0.1,0,0.2,0H22h0.1c0.1,0,0.1,0,0.1,0s0.1,0,0.1-0.1h0.1l0,0
		l0,0c0.1,0,0.1,0,0.3-0.1c0,0.1,0,0.1,0.1,0.2c0.1,0,0.1,0,0.2-0.1c0,0,0,0,0.1,0c0,0,0,0,0.1,0c0.3,0,0.5,0.1,0.5,0.1
		s0.1,0,0.1-0.1s0.1-0.1,0.1-0.1v0.1c0,0.1,0,0.1,0.1,0.1c0,0,0.1,0,0.2,0s0.1,0,0.2,0s0.3,0,0.5,0s0.4,0,0.5,0v0.1
		c0.1,0.1,0.1,0.1,0.2,0.1s0.2,0,0.2,0h0.1H26c0.1,0,0.2,0,0.3,0c0,0.1,0.1,0.1,0.1,0.1c0.2,0,0.3,0,0.4,0.1c0.1,0,0.2,0.1,0.5,0.3
		h0.1c0.1,0.1,0.1,0.1,0.2,0.2s0.2,0.1,0.2,0.2c0,0,0.1,0,0.2,0c0,0.2,0.1,0.3,0.3,0.4v0.1c0.1,0.1,0.2,0.3,0.3,0.5
		c0,0,0,0.1,0.1,0.1c0.1,0.1,0,0.2,0,0.3c0.1,0.3,0.1,0.5,0.1,0.6c0,0.5-0.1,0.8-0.2,0.9c0,0.1,0,0.2,0,0.4
		c-0.1,0.1-0.1,0.3-0.1,0.4c-0.1,0-0.1,0.1-0.1,0.2c0,0.1,0,0.1,0,0.1v0.1c0,0,0,0,0,0.1s0,0,0,0.1s0,0.1,0,0.1
		c-0.1,0.2-0.1,0.3-0.1,0.4c-0.1,0.1-0.3,0.2-0.4,0.4s-0.2,0.4-0.3,0.4v0.1c-0.1,0.1-0.2,0.2-0.3,0.4c-0.1,0.2-0.2,0.3-0.3,0.4v0.1
		c0,0.1-0.1,0.1-0.2,0.1c0,0.1-0.1,0.2-0.2,0.3s-0.2,0.2-0.2,0.3h-0.1c-0.1,0.1-0.1,0.2-0.3,0.3s-0.2,0.2-0.2,0.3h-0.1h-0.1
		c0,0.1-0.1,0.2-0.2,0.3S25.2,40,25.2,40c0,0.1-0.1,0.2-0.3,0.4c-0.1,0.1-0.1,0.1-0.1,0.1c-0.1,0-0.1,0.1-0.2,0.1
		c-0.1,0.1-0.1,0.1-0.1,0.1l0,0c0,0,0,0-0.1,0c-0.2,0.2-0.3,0.4-0.4,0.4c-0.1,0.1-0.2,0.2-0.4,0.4c-0.2,0.2-0.3,0.4-0.4,0.5v0.1
		c0,0.1,0,0.1,0,0.2c0,0-0.1,0-0.2-0.1c-0.2,0.2-0.4,0.4-0.4,0.5c-0.2,0.1-0.3,0.2-0.3,0.3c-0.1,0-0.1,0.1-0.2,0.1
		c-0.1,0.1-0.1,0.1-0.2,0.1c-0.1,0.1-0.1,0.2-0.3,0.3c-0.1,0.1-0.2,0.2-0.3,0.3l0,0v0.1c-0.1,0-0.1,0.1-0.2,0.2s-0.2,0.2-0.3,0.2
		c-0.1,0.1-0.1,0.2-0.1,0.2c-0.1,0-0.1,0.1-0.1,0.1c0,0.1-0.1,0.1-0.1,0.1c-0.1,0-0.1,0-0.2,0.1v0.1L20.2,45l-0.1,0.1
		c0,0.1,0,0.1-0.1,0.2c-0.1,0.1-0.1,0.1-0.1,0.2c0,0,0.1,0,0.2,0s0.2,0,0.2,0s0,0,0.1,0h0.1c0,0.1,0.1,0.1,0.1,0.1
		c0.2,0,0.3,0,0.4,0c0,0,0.1,0,0.1-0.1c0.1,0,0.1,0,0.1,0s0.1,0,0.1,0.1h0.1h0.1h0.1c0,0,0.1,0,0.1-0.1h0.1h0.1c0.1,0,0.1,0,0.2-0.1
		s0.1-0.1,0.1-0.1c0.1,0,0.1,0,0.2,0s0.1,0,0.1,0h0.1c0.1,0,0.1,0,0.2,0c0.1-0.1,0.1-0.1,0.2-0.1s0.2,0,0.2,0h0.1c0.2,0,0.4,0,0.7,0
		c0.3,0,0.5,0,0.6,0s0.1,0,0.1,0c0.1,0.1,0.2,0.1,0.3,0c0.1,0,0.3,0,0.6,0s0.5,0,0.7,0c0.1,0.1,0.1,0.1,0.1,0.1s0,0,0.1,0h0.1
		c0,0,0.1,0,0.2,0s0.2,0,0.2,0c0.2,0,0.3,0,0.3,0c0.2,0,0.2,0,0.3,0c0,0,0,0,0.1,0c0,0,0,0,0.1,0c0,0,0,0,0.1,0s0.1,0,0.1,0h0.1h0.1
		c0.5,0,0.7,0,0.7,0c0-0.1,0-0.1,0-0.1h0.2v0.1c0.2,0.1,0.3,0.1,0.4,0h0.1h0.1c0,0,0.1,0,0.1,0.1c0.1,0,0.1,0.1,0.1,0.1H30h0.1
		c0.2,0.1,0.3,0.1,0.3-0.1c0,0,0.1,0,0.2,0.1c0.1,0,0.2,0,0.2,0s0.1,0,0.2,0s0.2,0,0.2,0s0.1,0,0.2,0s0.1,0,0.2,0s0.2,0,0.4,0
		s0.3,0,0.4,0c0.1,0,0.2,0,0.2-0.1c0,0,0.1,0,0.1,0.1c0,0,0.1,0,0.1,0.1c0.5,0,0.8,0,0.9-0.1h0.1c0,0,0,0,0-0.1c0.1,0,0.2,0,0.3,0
		s0.2,0,0.3,0h0.1l0.1-0.1c0.1,0.1,0.2,0.1,0.3,0c0,0,0,0.1,0.1,0.1c0.1,0.1,0.1,0.1,0.2,0.2c0.1,0,0.1,0,0.1,0h0.1c0,0,0,0,0,0.1
		c0.1,0.1,0.2,0.1,0.4,0.2c0,0.1,0.1,0.1,0.2,0.2c0.1,0.1,0.2,0.2,0.2,0.2c0.1,0.1,0.1,0.2,0.1,0.3h0.1v0.1c0,0.1,0,0.1,0,0.2
		c0,0.1,0,0.1,0,0.2c0,0,0,0.1-0.1,0.1l-0.1,0.1c0,0,0,0.1,0,0.2s0,0.2,0,0.2c-0.1,0.2-0.1,0.3-0.1,0.4L36,48.2l-0.1,0.1
		c0,0-0.1,0-0.3,0.1c-0.2-0.1-0.3,0-0.3,0.2h-0.2c-0.1-0.1-0.1-0.1-0.2-0.1c-0.1,0-0.1,0-0.1,0.1c-0.1,0-0.2,0-0.3,0v0.1
		c0,0-0.1,0-0.3-0.1s-0.2,0-0.2,0.1c0,0-0.1,0-0.1-0.1h-0.1c-0.1,0-0.1,0-0.2,0c0,0.1,0,0.1,0,0.1c-0.1-0.1-0.1-0.2-0.2-0.2
		c-0.1,0-0.2,0-0.5,0.1c-0.2,0-0.4,0-0.4,0.1l0,0c0-0.1-0.1-0.1-0.2-0.1c-0.2,0-0.3,0.1-0.3,0.1c0,0.1-0.1,0.1-0.1,0.1h-0.2
		c0,0,0,0,0-0.1c0,0,0,0,0-0.1c-0.1,0-0.1,0-0.2,0.1c-0.1-0.1-0.2-0.1-0.2-0.1c-0.2,0-0.3,0-0.3,0c-0.1,0-0.2,0-0.3,0.1
		c-0.1,0.1-0.2,0.1-0.2,0.1c0-0.1-0.1-0.1-0.2-0.1s-0.1,0-0.1,0.1c-0.1,0-0.4,0-0.7,0.2c0,0,0,0-0.1,0c0,0,0,0-0.1,0
		c-0.3,0.1-0.5,0-0.6-0.1c-0.1,0-0.1,0-0.2,0.1h-0.1h-0.1c-0.1,0-0.1,0-0.1,0.1c-0.1,0-0.1,0-0.2-0.1c-0.2-0.1-0.4-0.1-0.5,0
		c-0.1,0-0.2,0-0.3,0c-0.1-0.1-0.1-0.1-0.3,0c-0.1,0-0.2,0-0.2,0h-0.1h-0.1c0,0-0.1,0-0.2,0.1c-0.1,0-0.1,0-0.2,0
		c-0.1-0.1-0.2-0.1-0.2,0c-0.1,0.1-0.1,0.2-0.1,0.3h-0.3l0,0v-0.1c-0.1,0-0.2,0-0.3,0c-0.1,0-0.2-0.1-0.3-0.1c0-0.1-0.1-0.1-0.1-0.1
		s-0.1,0-0.1,0.1c-0.2,0-0.3,0-0.4,0s-0.2,0-0.4,0c-0.2,0-0.3,0-0.4,0c0,0-0.1,0-0.1,0.1l-0.1,0.1c-0.1,0-0.1,0-0.1,0h-0.1L23,49.5
		c-0.3,0-0.5,0-0.6,0.1c0-0.1,0-0.1-0.1,0c-0.1,0-0.1,0.1-0.1,0.1c-0.2,0-0.3,0-0.4-0.1c-0.1,0-0.2,0-0.2,0h-0.1h-0.1
		c0,0-0.1,0-0.2,0s-0.2,0-0.2,0.1c-0.1,0-0.1,0-0.3,0c-0.1,0-0.2,0-0.3,0c-0.1,0-0.1-0.1-0.1-0.1c-0.1,0-0.2,0-0.3,0h-0.1h-0.1
		c0,0-0.1,0-0.2,0s-0.1,0-0.2,0.1c-0.2,0-0.4,0-0.6,0c-0.1,0-0.1,0-0.2,0.1c-0.1,0-0.1,0.1-0.1,0.1l-0.1-0.1c-0.1,0-0.2,0-0.3,0
		c0,0.1,0,0.1-0.1,0.1c0,0,0,0-0.1,0c0,0,0,0-0.1,0s0,0,0,0s0,0-0.1,0s-0.1,0-0.1,0c-0.1,0-0.1,0-0.1,0h-0.1h-0.1h-0.1h-0.1
		c-0.1,0-0.3,0-0.4,0h-0.1h-0.1c-0.1,0-0.2,0-0.4-0.1C16,49.7,16,49.7,16,49.7s-0.1,0-0.1,0.1c-0.1-0.1-0.2-0.1-0.5-0.1
		c-0.1-0.1-0.1-0.2-0.2-0.2c0-0.1,0-0.1,0-0.1s0-0.1-0.1-0.1S15,49.2,15,49.2v-0.1c0-0.1,0-0.1,0-0.1c-0.1-0.1-0.1-0.1-0.1-0.1
		c-0.1-0.1-0.1-0.2-0.1-0.2s0,0-0.1,0h-0.1c-0.1-0.1-0.1-0.2,0-0.3c0-0.1,0-0.1,0.1-0.1s0.1-0.1,0.1-0.1c-0.1-0.1-0.1-0.2-0.1-0.2
		c0.2-0.2,0.3-0.4,0.2-0.5c0.2-0.1,0.3-0.1,0.4-0.2h0.1c0.1-0.1,0.1-0.1,0.2-0.2c0.1-0.1,0.1-0.1,0.1-0.2c0.1,0,0.2-0.1,0.4-0.2
		c0-0.1,0.1-0.2,0.3-0.4v-0.1c0-0.1,0.1-0.1,0.2-0.1s0.2-0.1,0.2-0.1c0-0.1,0-0.2,0.1-0.3s0.2-0.2,0.2-0.2v-0.1v-0.1c0,0,0,0,0.1,0
		h0.1l0.1-0.1c0-0.1,0.1-0.1,0.1-0.1V45l0.1,0.1c0.1-0.1,0.2-0.2,0.3-0.3c0.1,0,0.2-0.1,0.3-0.3c0.1-0.1,0.2-0.2,0.2-0.3
		s0-0.1,0.1-0.2h0.1c0.1,0,0.1-0.1,0.2-0.2c0.1-0.1,0.1-0.2,0.1-0.2c0.1-0.1,0.2-0.2,0.2-0.2c0.1-0.1,0.2-0.2,0.3-0.4
		c0.1-0.2,0.2-0.3,0.3-0.3h0.1c0,0,0.1-0.1,0.2-0.3s0.3-0.3,0.4-0.3c0-0.1,0.1-0.2,0.2-0.3c0-0.1,0-0.1,0-0.1c0.2,0,0.4,0,0.4-0.2
		h0.1c0.2-0.2,0.4-0.4,0.7-0.7c0,0,0,0,0.1,0c0,0,0,0,0.1,0l0,0c0,0,0-0.1-0.1-0.1c0-0.1,0.1-0.1,0.2-0.1c0-0.1,0.1-0.1,0.1-0.2
		c0.1-0.1,0.1-0.2,0.1-0.2c0.1,0,0.2-0.1,0.2-0.2c0.1-0.1,0.1-0.1,0.2-0.2c0-0.1,0.1-0.2,0.4-0.4c0-0.1,0-0.1,0-0.2
		c0.1,0,0.2,0,0.2-0.1c0.1-0.1,0.2-0.1,0.2-0.1c0.1,0,0.1-0.1,0-0.2c0.2-0.2,0.3-0.3,0.3-0.4c0.1-0.1,0.1-0.1,0.2-0.2
		c0.1-0.1,0.1-0.1,0.1-0.2C24,37.1,24,37,24,37s0.1,0,0.1-0.1l0.1-0.1v-0.1c0-0.1,0.1-0.1,0.1-0.1s0.1,0,0.1-0.1
		c0.1-0.1,0.1-0.1,0.1-0.1c0.1-0.2,0.2-0.3,0.2-0.3s0-0.1,0-0.2c0,0,0.1-0.1,0.3-0.4v-0.1c0,0,0,0,0.1-0.1c0,0,0,0,0-0.1
		s0-0.1,0-0.1s0-0.1,0.1-0.1c0.1-0.1,0.1-0.1,0.1-0.1c0-0.2,0-0.3,0-0.3c0.1,0,0.2-0.1,0.1-0.3c0-0.2-0.1-0.3-0.1-0.3h-0.1
		c-0.1,0-0.1,0-0.1,0S25,34,25,33.9s-0.1-0.1-0.1-0.1s-0.2,0-0.4,0c-0.1,0-0.1,0-0.2,0s-0.2,0-0.2,0H24h-0.1c-0.2,0-0.4,0-0.4,0
		v-0.1h-0.1c-0.1,0-0.2,0-0.2,0s-0.1,0-0.3,0c-0.2,0-0.3,0-0.3,0c-0.2,0-0.3,0-0.3,0c-0.2,0.1-0.4,0.1-0.5,0c0,0.1-0.2,0.1-0.5,0.1
		s-0.5,0-0.6,0s-0.3,0.1-0.5,0.2c-0.1,0-0.2,0-0.5,0s-0.4,0-0.4-0.1c0,0-0.1,0-0.2,0s-0.1,0-0.2,0c0,0,0,0-0.1,0V34
		c-0.1,0-0.2,0-0.5,0c-0.2,0-0.4,0-0.5,0c0,0-0.1,0-0.1-0.1c-0.4,0-0.6,0-0.6,0.1c0-0.1-0.2-0.1-0.5-0.1s-0.5,0-0.6,0s-0.2,0-0.3,0
		c0,0.1-0.1,0.1-0.3,0.1v-0.1c0-0.1-0.1-0.1-0.2-0.1c-0.1,0-0.2,0-0.2,0c-0.1,0-0.1-0.1-0.2-0.1l0,0l0,0c0,0,0,0-0.1,0
		c0,0,0,0-0.1,0l0,0c0,0,0,0,0-0.1h-0.1c0,0-0.1,0-0.1-0.1s0-0.1,0-0.1l-0.1-0.1c-0.1,0-0.2,0-0.2-0.2c0-0.1,0-0.1,0-0.1
		c0-0.1-0.1-0.1-0.2-0.2v-0.1c0,0,0-0.1-0.1-0.1l-0.1-0.1c0-0.1,0-0.2,0-0.3V32c0,0,0-0.1,0.1-0.1c0,0,0-0.1,0.1-0.1v-0.1v-0.1
		c0,0,0.1,0,0.1-0.1s0.1-0.1,0.1-0.1h0.1h0.1c0.2-0.1,0.4-0.2,0.4-0.2v-0.1h0.1h0.1c0.1,0,0.1,0,0.1,0h0.1h0.1h0.3
		c0.2,0,0.3,0,0.4,0.1c0.1,0,0.3,0,0.5,0s0.4,0,0.4,0c0.1,0,0.1,0,0.1,0H17h0.1c0.1,0,0.2,0,0.4-0.1h0.1h0.1h0.1c0.1,0,0.1,0,0.2,0
		h0.1c0,0,0.1,0,0.1-0.1c0.1,0,0.1,0,0.2,0.1h0.1V31v-0.1c0.2,0,0.4,0,0.4,0V31c0.1,0.1,0.1,0.1,0.1,0.1s0.1,0,0.1-0.1v-0.1
		c0,0,0.1,0,0.1,0.1c0.1,0,0.1,0,0.2-0.1c0.4,0,0.7,0,0.8-0.1v-0.1L20.4,30.5z M20.3,30.6v-0.1c0,0,0,0,0.1,0l0,0v0.1
		c0.2,0,0.3,0,0.4-0.1c0.1,0,0.1,0,0.3,0c0.1,0,0.2,0,0.2,0c0,0.1,0.1,0.1,0.2,0.1s0.2,0,0.3-0.1h0.1c0.1,0,0.1,0,0.2,0H22h0.1
		c0.1,0,0.1,0,0.1,0s0.1,0,0.1-0.1h0.1l0,0l0,0c0.1,0,0.1,0,0.3-0.1c0,0.1,0,0.1,0.1,0.2c0.1,0,0.1,0,0.2-0.1c0,0,0,0,0.1,0
		c0,0,0,0,0.1,0c0.3,0,0.5,0.1,0.5,0.1s0.1,0,0.1-0.1s0.1-0.1,0.1-0.1v0.1c0,0.1,0,0.1,0.1,0.1c0,0,0.1,0,0.2,0s0.1,0,0.2,0
		s0.3,0,0.5,0s0.4,0,0.5,0v0.1c0.1,0.1,0.1,0.1,0.2,0.1s0.2,0,0.2,0h0.1H26c0.1,0,0.2,0,0.3,0c0,0.1,0.1,0.1,0.1,0.1
		c0.2,0,0.3,0,0.4,0.1c0.1,0,0.2,0.1,0.5,0.3h0.1c0.1,0.1,0.1,0.1,0.2,0.2s0.2,0.1,0.2,0.2c0,0,0.1,0,0.2,0c0,0.2,0.1,0.3,0.3,0.4
		v0.1c0.1,0.1,0.2,0.3,0.3,0.5c0,0,0,0.1,0.1,0.1c0.1,0.1,0,0.2,0,0.3c0.1,0.3,0.1,0.5,0.1,0.6c0,0.5-0.1,0.8-0.2,0.9
		c0,0.1,0,0.2,0,0.4c-0.1,0.1-0.1,0.3-0.1,0.4c-0.1,0-0.1,0.1-0.1,0.2c0,0.1,0,0.1,0,0.1v0.1c0,0,0,0,0,0.1s0,0,0,0.1s0,0.1,0,0.1
		c-0.1,0.2-0.1,0.3-0.1,0.4c-0.1,0.1-0.2,0.2-0.3,0.4c-0.1,0.2-0.2,0.4-0.3,0.4v0.1c-0.1,0.1-0.2,0.2-0.3,0.4
		c-0.1,0.2-0.2,0.3-0.3,0.4v0.1c0,0.1-0.1,0.1-0.2,0.1c0,0.1-0.1,0.2-0.2,0.3s-0.2,0.2-0.2,0.3h-0.1c-0.1,0.1-0.1,0.2-0.3,0.3
		s-0.2,0.2-0.2,0.3h-0.1h-0.1c0,0.1-0.1,0.2-0.2,0.3S25.3,40,25.3,40c0,0.1-0.1,0.2-0.3,0.4c-0.1,0.1-0.1,0.1-0.1,0.1
		c-0.1,0-0.1,0.1-0.2,0.1c-0.1,0.1-0.1,0.1-0.1,0.1l0,0c0,0,0,0-0.1,0c-0.2,0.2-0.3,0.4-0.4,0.4c-0.1,0.1-0.2,0.2-0.4,0.4
		c-0.2,0.2-0.3,0.4-0.4,0.5v0.1c0,0.1,0,0.1,0,0.2c0,0-0.1,0-0.2-0.1c-0.2,0.2-0.4,0.4-0.4,0.5c-0.2,0.1-0.3,0.2-0.3,0.3
		c-0.1,0-0.1,0.1-0.2,0.1c-0.1,0.1-0.1,0.1-0.2,0.1c-0.1,0.1-0.1,0.2-0.3,0.3c-0.1,0.1-0.2,0.2-0.3,0.3l0,0v0.1
		c-0.1,0-0.1,0.1-0.2,0.2s-0.2,0.2-0.3,0.2c-0.1,0.1-0.1,0.2-0.1,0.2c-0.1,0-0.1,0.1-0.1,0.1c0,0.1-0.1,0.1-0.1,0.1
		c-0.1,0-0.1,0-0.2,0.1v0.1L20.3,45l-0.1,0.1c0,0.1,0,0.1-0.1,0.2C20,45.4,20,45.4,20,45.5c0,0,0.1,0,0.2,0s0.2,0,0.2,0s0,0,0.1,0
		h0.1c0,0.1,0.1,0.1,0.1,0.1c0.2,0,0.3,0,0.4,0c0,0,0.1,0,0.1-0.1c0.1,0,0.1,0,0.1,0s0.1,0,0.1,0.1h0.1h0.1h0.1c0,0,0.1,0,0.1-0.1
		c0,0,0.1,0,0.2,0.1c0.1,0,0.1,0,0.2-0.1s0.1-0.1,0.1-0.1c0.1,0,0.1,0,0.2,0s0.1,0,0.1,0h0.1c0.1,0,0.1,0,0.2,0
		c0.1-0.1,0.1-0.1,0.2-0.1s0.2,0,0.2,0h0.1c0.2,0,0.4,0,0.7,0c0.3,0,0.5,0,0.6,0s0.1,0,0.1,0c0.1,0.1,0.2,0.1,0.3,0
		c0.1,0,0.3,0,0.6,0s0.5,0,0.7,0c0.1,0.1,0.1,0.1,0.1,0.1s0,0,0.1,0h0.1c0,0,0.1,0,0.2,0s0.2,0,0.2,0c0.2,0,0.3,0,0.3,0
		c0.2,0,0.2,0,0.3,0c0,0,0,0,0.1,0c0,0,0,0,0.1,0c0,0,0,0,0.1,0s0.1,0,0.1,0h0.1h0.1c0.5,0,0.7,0,0.7,0c0-0.1,0-0.1,0-0.1h0.2v0.1
		c0.2,0.1,0.3,0.1,0.4,0h0.1h0.1c0,0,0.1,0,0.1,0.1c0.1,0,0.1,0.1,0.1,0.1h0.1h0.1c0.2,0.1,0.3,0.1,0.3-0.1c0,0,0.1,0,0.2,0.1
		c0.1,0,0.2,0,0.2,0s0.1,0,0.2,0s0.2,0,0.2,0s0.1,0,0.2,0s0.2,0,0.2,0c0.1,0,0.2,0,0.3,0c0.2,0,0.3,0,0.4,0c0.1,0,0.2,0,0.2-0.1
		c0,0,0.1,0,0.1,0.1c0,0,0.1,0,0.1,0.1c0.5,0,0.8,0,0.9-0.1h0.1c0,0,0,0,0-0.1c0.1,0,0.2,0,0.3,0s0.2,0,0.3,0h0.1l0.1-0.1
		c0.1,0.1,0.2,0.1,0.3,0c0,0,0,0.1,0.1,0.1c0.1,0.1,0.1,0.1,0.2,0.2c0.1,0,0.1,0,0.1,0h0.1c0,0,0,0,0,0.1c0.1,0.1,0.2,0.1,0.4,0.2
		c0,0.1,0.1,0.1,0.2,0.2c0.1,0.1,0.2,0.2,0.2,0.2c0.1,0.1,0.1,0.2,0.1,0.3h0.1v0.1c0,0.1,0,0.1,0,0.2c0,0.1,0,0.1,0,0.2
		c0,0,0,0.1-0.1,0.1l-0.1,0.1c0,0,0,0.1,0,0.2s0,0.2,0,0.2c-0.1,0.2-0.1,0.3-0.1,0.4L36,48.3l-0.1,0.1c0,0-0.1,0-0.3,0.1
		c-0.2-0.1-0.3,0-0.3,0.2h-0.2c-0.1-0.1-0.1-0.1-0.2-0.1c-0.1,0-0.1,0-0.1,0.1c-0.1,0-0.2,0-0.3,0v0.1c0,0-0.1,0-0.3-0.1
		s-0.2,0-0.2,0.1c0,0-0.1,0-0.1-0.1h-0.1c-0.1,0-0.1,0-0.1,0s0,0,0,0.1v0.1c-0.1-0.1-0.1-0.2-0.2-0.2c-0.1,0-0.2,0-0.5,0.1
		c-0.2,0-0.4,0-0.4,0.1l0,0c0-0.1-0.1-0.1-0.2-0.1c-0.2,0-0.3,0.1-0.3,0.1C32.1,49,32,49,32,49h-0.2c0,0,0,0,0-0.1c0,0,0,0,0-0.1
		c-0.1,0-0.1,0-0.2,0.1c-0.1-0.1-0.2-0.1-0.2-0.1c-0.2,0-0.3,0-0.3,0c-0.1,0-0.2,0-0.3,0.1C30.7,49,30.6,49,30.6,49
		c0-0.1-0.1-0.1-0.2-0.1s-0.1,0-0.1,0.1c-0.1,0-0.4,0-0.7,0.2c0,0,0,0-0.1,0c0,0,0,0-0.1,0c-0.3,0.1-0.5,0-0.6-0.1
		c-0.1,0-0.1,0-0.2,0.1h-0.1h-0.1c-0.1,0-0.1,0-0.1,0.1c-0.1,0-0.1,0-0.2-0.1c-0.2-0.1-0.4-0.1-0.5,0c-0.1,0-0.2,0-0.3,0
		c-0.1-0.1-0.1-0.1-0.3,0c-0.1,0-0.2,0-0.2,0h-0.1h-0.1c0,0-0.1,0-0.2,0.1c-0.1,0-0.1,0-0.2,0c-0.1-0.1-0.2-0.1-0.2,0
		c-0.1,0.1-0.1,0.2-0.1,0.3h-0.3l0,0v-0.1c-0.1,0-0.2,0-0.3,0c-0.1,0-0.2-0.1-0.3-0.1c0-0.1-0.1-0.1-0.1-0.1s-0.1,0-0.1,0.1
		c-0.2,0-0.3,0-0.4,0s-0.3,0-0.5,0s-0.3,0-0.4,0c0,0-0.1,0-0.1,0.1l-0.1,0.1c-0.1,0-0.1,0-0.1,0h-0.1L23,49.7c-0.3,0-0.5,0-0.6,0.1
		c0-0.1,0-0.1-0.1,0c-0.1,0-0.1,0.1-0.1,0.1c-0.2,0-0.3,0-0.4-0.1c-0.1,0-0.2,0-0.2,0h-0.1h-0.1c0,0-0.1,0-0.2,0s-0.2,0-0.2,0.1
		c-0.1,0-0.1,0-0.3,0c-0.1,0-0.2,0-0.3,0c-0.1,0-0.1-0.1-0.1-0.1c-0.1,0-0.2,0-0.3,0h-0.1h-0.1c0,0-0.1,0-0.2,0s-0.1,0-0.2,0.1
		c-0.2,0-0.4,0-0.6,0c-0.1,0-0.1,0-0.2,0.1c-0.1,0-0.1,0.1-0.1,0.1L18.4,50c-0.1,0-0.2,0-0.3,0c0,0.1,0,0.1-0.1,0.1c0,0,0,0-0.1,0
		c0,0,0,0-0.1,0s0,0,0,0s0,0-0.1,0s-0.1,0-0.1,0c-0.1,0-0.1,0-0.1,0h-0.1h-0.1h-0.1h-0.1c-0.1,0-0.3,0-0.4,0h-0.1h-0.1
		c-0.1,0-0.2,0-0.3-0.1c-0.1-0.1-0.1-0.1-0.2-0.1c0,0-0.1,0-0.1,0.1c-0.1-0.1-0.2-0.1-0.5-0.1c-0.1-0.1-0.1-0.2-0.2-0.2
		c0-0.1,0-0.1,0-0.1s0-0.1-0.1-0.1S15,49.4,15,49.4v-0.1c0-0.1,0-0.1,0-0.1c-0.1-0.1-0.1-0.1-0.1-0.1c-0.1-0.1-0.1-0.2-0.1-0.2
		s0,0-0.1,0h-0.1c-0.1-0.1-0.1-0.2,0-0.3c0-0.1,0-0.1,0.1-0.1s0.1-0.1,0.1-0.1c-0.1-0.1-0.1-0.2-0.1-0.2c0.2-0.2,0.3-0.4,0.2-0.5
		c0.2-0.1,0.3-0.1,0.4-0.2h0.1c0.1-0.1,0.1-0.1,0.2-0.2c0.1-0.1,0.1-0.1,0.1-0.2c0.1,0,0.2-0.1,0.4-0.2c0-0.1,0.1-0.2,0.3-0.4v-0.1
		c0-0.1,0.1-0.1,0.2-0.1s0.2-0.1,0.2-0.1c0-0.1,0-0.2,0.1-0.3s0.2-0.2,0.2-0.2v-0.1v-0.1c0,0,0,0,0.1,0h0.1l0.1-0.1
		c0-0.1,0.1-0.1,0.1-0.1v-0.1l0.1,0.1c0.1-0.1,0.2-0.2,0.3-0.3c0.1,0,0.2-0.1,0.3-0.3c0.1-0.1,0.2-0.2,0.2-0.3s0-0.1,0.1-0.2h0.1
		c0.1,0,0.1-0.1,0.2-0.2c0.1-0.1,0.1-0.2,0.1-0.2c0.1-0.1,0.2-0.2,0.2-0.2c0.1-0.1,0.2-0.2,0.3-0.4c0.1-0.2,0.2-0.3,0.3-0.3h0.1
		c0,0,0.1-0.1,0.2-0.3s0.3-0.3,0.4-0.3c0-0.1,0.1-0.2,0.2-0.3c0-0.1,0-0.1,0-0.1c0.2,0,0.4,0,0.4-0.2h0.1c0.2-0.2,0.4-0.4,0.7-0.7
		c0,0,0,0,0.1,0c0,0,0,0,0.1,0l0,0c0,0,0-0.1-0.1-0.1c0-0.1,0.1-0.1,0.2-0.1c0-0.1,0.1-0.1,0.1-0.2c0.1-0.1,0.1-0.2,0.1-0.2
		c0.1,0,0.2-0.1,0.2-0.2c0.1-0.1,0.1-0.1,0.2-0.2c0-0.1,0.1-0.2,0.4-0.4c0-0.1,0-0.1,0-0.2c0.1,0,0.2,0,0.2-0.1
		c0.1-0.1,0.2-0.1,0.2-0.1c0.1,0,0.1-0.1,0-0.2c0.2-0.2,0.3-0.3,0.3-0.4c0.1-0.1,0.2-0.1,0.2-0.2c0-0.1,0.1-0.1,0.1-0.2
		C24,37.1,24,37,24,37s0.1,0,0.1-0.1l0.1-0.1v-0.1c0-0.1,0.1-0.1,0.1-0.1s0.1,0,0.1-0.1c0.1-0.1,0.1-0.1,0.1-0.1
		c0.1-0.2,0.2-0.3,0.2-0.3s0-0.1,0-0.2c0,0,0.1-0.1,0.3-0.4v-0.1c0,0,0,0,0.1-0.1c0,0,0,0,0-0.1s0-0.1,0-0.1s0-0.1,0.1-0.1
		c0.1-0.1,0.1-0.1,0.1-0.1c0-0.2,0-0.3,0-0.3c0.1,0,0.2-0.1,0.1-0.3c0-0.2-0.1-0.3-0.1-0.3h-0.1c-0.1,0-0.1,0-0.1,0S25,34,25,33.9
		s-0.1-0.1-0.1-0.1s-0.2,0-0.4,0c-0.1,0-0.1,0-0.2,0s-0.2,0-0.2,0H24h-0.1c-0.2,0-0.4,0-0.4,0v-0.1h-0.1c-0.1,0-0.2,0-0.2,0
		s-0.1,0-0.3,0c-0.2,0-0.3,0-0.3,0c-0.2,0-0.3,0-0.3,0c-0.2,0.1-0.4,0.1-0.5,0c0,0.1-0.2,0.1-0.5,0.1s-0.5,0-0.6,0s-0.3,0.1-0.5,0.2
		c-0.1,0-0.2,0-0.5,0s-0.4,0-0.4-0.1c0,0-0.1,0-0.2,0s-0.1,0-0.2,0c0,0,0,0-0.1,0V34c-0.1,0-0.2,0-0.5,0c-0.2,0-0.4,0-0.5,0
		c0,0-0.1,0-0.1-0.1c-0.4,0-0.6,0-0.6,0.1c0-0.1-0.2-0.1-0.5-0.1s-0.5,0-0.6,0s-0.2,0-0.3,0c0,0.1-0.1,0.1-0.3,0.1v-0.1
		c0-0.1-0.1-0.1-0.2-0.1c-0.1,0-0.2,0-0.2,0c-0.1,0-0.1-0.1-0.2-0.1l0,0l0,0c0,0,0,0-0.1,0c0,0,0,0-0.1,0c0,0,0,0-0.1-0.1
		c0,0-0.1,0-0.1-0.1c0,0-0.1,0-0.1-0.1s0-0.1,0-0.1l-0.1-0.1c-0.1,0-0.2,0-0.2-0.2c0-0.1,0-0.1,0-0.1c0-0.1-0.1-0.1-0.2-0.2v-0.1
		c0,0,0-0.1-0.1-0.1l-0.1-0.1c0-0.1,0-0.2,0-0.3v-0.2c0,0,0-0.1,0.1-0.1c0,0,0-0.1,0.1-0.1v-0.1v-0.1c0,0,0.1,0,0.1-0.1
		s0.1-0.1,0.1-0.1h0.1h0.1c0.2-0.1,0.4-0.2,0.4-0.2V31h0.1h0.1c0.1,0,0.1,0,0.1,0H15h0.1h0.3c0.2,0,0.3,0,0.4,0.1c0.1,0,0.3,0,0.5,0
		s0.4,0,0.4,0c0.1,0,0.1,0,0.1,0h0.1H17c0.1,0,0.2,0,0.4-0.1h0.1h0.1h0.1c0.1,0,0.1,0,0.2,0H18c0,0,0.1,0,0.1-0.1
		c0.1,0,0.1,0,0.2,0.1h0.1v-0.1v-0.1c0.2,0,0.4,0,0.4,0v0.1c0.1,0.1,0.1,0.1,0.1,0.1s0.1,0,0.1-0.1v-0.1c0,0,0.1,0,0.1,0.1
		c0.1,0,0.1,0,0.2-0.1C19.9,30.7,20.2,30.7,20.3,30.6z M21.2,30.6L21.2,30.6L21.2,30.6z M21.1,30.6C21.2,30.6,21.2,30.6,21.1,30.6
		L21.1,30.6z M22.4,49c0-0.1,0-0.1,0.1,0C22.6,49,22.5,49,22.4,49L22.4,49z M22.6,49C22.6,49,22.5,49,22.6,49h-0.1
		C22.4,48.9,22.5,48.9,22.6,49z"/>
	<path fill="#54813B" d="M43.2,31.6c0.1,0,0.1,0,0.3,0c0.1,0,0.2,0,0.3,0c0,0,0.1,0,0.2,0.1c0,0,0.1,0,0.2,0c0.1,0,0.1,0,0.2,0
		s0.1,0,0.1,0s0,0,0.1,0s0,0,0.1,0h0.1c0.1,0.2,0.1,0.2,0.3,0.2l0.3,0.2c0,0.1,0,0.1,0.1,0.2c0.1,0.1,0.1,0.1,0.1,0.1
		c0.1,0,0.1,0,0.2,0.1c0.1,0.1,0.1,0.1,0.2,0.1h0.1h0.1c0.2-0.1,0.3-0.1,0.3-0.1s0.1,0,0.2,0c0,0,0.1,0,0.2,0c0.1,0,0.1,0,0.2,0
		c0,0,0.1,0,0.1,0.1l0.1,0.1c0,0,0.1,0,0.2,0c0.1,0,0.1,0,0.2,0c0,0,0.1,0,0.2,0.1c0.1,0.1,0.2,0.1,0.3,0.1c0,0,0,0.1,0.1,0.1
		s0.2,0,0.3,0.1s0.2,0.1,0.2,0.1h0.1c0.3,0.2,0.5,0.3,0.7,0.3h0.2c0,0.1-0.1,0.1-0.2,0v0.1c0,0.1,0.1,0.2,0.3,0.3s0.3,0.2,0.3,0.4
		c0,0.1,0.1,0.1,0.2,0.2c0.2,0.2,0.3,0.3,0.3,0.4c0.1,0.1,0.2,0.2,0.2,0.3s0.1,0.1,0.2,0.2c0.1,0.1,0.1,0.2,0.1,0.3
		c0.1,0.2,0.2,0.3,0.2,0.4c0,0,0,0.1,0.1,0.1c0.1,0.1,0.1,0.2,0.1,0.3l0.1,0.1c0,0.1,0,0.1,0.1,0.3s0.1,0.4,0.1,0.4
		c0,0.2,0.1,0.3,0.1,0.3s0,0.1,0.1,0.3c-0.1,0-0.1,0.1,0,0.2c0.1,0.1,0.1,0.2,0.1,0.2v0.1v0.1c0,0,0,0,0,0.1v0.1c0,0.1,0,0.2,0,0.3
		s0,0.3,0,0.3c0,0.1,0,0.1,0,0.1v0.1c0,0,0,0.1,0.1,0.2c0,0,0,0,0,0.1s0,0,0,0.1c0.1,0.1,0.1,0.4,0.1,1s0,0.9,0,1c0,0,0,0.1,0,0.2
		s0,0.2,0,0.2s0,0.1-0.1,0.2c-0.1,0.1-0.1,0.2,0,0.2c0,0,0,0.1,0,0.2c0,0.1,0,0.1,0,0.2c-0.1,0-0.2,0.1-0.2,0.1c0,0.3,0,0.4,0,0.4
		v0.1L52,43.8v0.1c-0.1,0.2-0.1,0.3-0.1,0.3s0,0.1-0.1,0.1h-0.1c0,0,0,0,0,0.1l-0.1,0.1c0,0.1-0.1,0.1-0.1,0.2L51.3,45
		c0,0.1-0.1,0.2-0.2,0.4c-0.1,0.2-0.2,0.3-0.2,0.4c-0.1,0.1-0.2,0.3-0.2,0.5c0,0-0.1,0-0.2,0.1c0,0.1,0,0.1-0.1,0.2
		c-0.1,0.1-0.1,0.2-0.1,0.3c-0.1,0-0.1,0.1-0.2,0.2c-0.1,0.1-0.1,0.2-0.2,0.2c0,0-0.1,0.1-0.1,0.2c-0.1,0.1-0.1,0.2-0.1,0.2
		c0,0.1,0,0.1-0.1,0.2c-0.2,0.1-0.4,0.2-0.5,0.4c-0.1,0.1-0.1,0.2-0.2,0.2c-0.1,0.1-0.2,0.2-0.3,0.2s-0.3,0.2-0.3,0.2s0,0-0.1,0
		c0,0,0,0-0.1,0L48,49c-0.1,0.1-0.1,0.1-0.1,0.1c-0.1,0-0.2,0-0.2,0.1c-0.1,0-0.1,0-0.3,0.1c-0.1,0-0.1,0-0.2,0c-0.1,0-0.1,0-0.2,0
		c0,0-0.1,0.1-0.2,0.2c-0.2,0-0.3,0-0.3,0c0,0.1-0.1,0.1-0.2,0.1c-0.1,0-0.2,0.1-0.2,0.2c-0.1,0-0.3,0-0.7,0s-0.6,0-0.7,0
		c-0.1,0-0.1,0-0.3,0s-0.2,0-0.3,0c0,0-0.1-0.1-0.1-0.2c-0.1,0-0.1,0-0.2,0.1c0,0.1-0.1,0.1-0.1,0.1s0,0,0-0.1l0,0
		c0,0-0.1,0-0.1-0.1c-0.1,0-0.1-0.1-0.1-0.1c-0.2,0.1-0.3,0-0.5-0.1s-0.3-0.1-0.4-0.1v-0.1c0,0-0.1,0-0.2-0.1
		C41.6,49,41.5,49,41.3,49v-0.1l-0.1-0.1c-0.1-0.1-0.1-0.1-0.1-0.1c-0.1,0-0.1,0-0.1-0.1s0,0-0.1-0.1c0,0,0,0-0.1-0.1s0,0-0.1,0
		c0,0,0,0-0.1,0l0,0l0,0c0,0-0.1,0-0.1-0.1c0,0-0.1,0-0.1-0.1c-0.1-0.1-0.1-0.1-0.1-0.1c-0.1,0-0.1,0-0.1,0C40.1,48,40.1,48,40,47.8
		c-0.1-0.1-0.2-0.2-0.2-0.3h-0.1c-0.3-0.3-0.4-0.5-0.4-0.7c0,0-0.1-0.1-0.2-0.3v-0.1L39,46.3c-0.1-0.1-0.1-0.1-0.1-0.1
		c0-0.2-0.1-0.5-0.2-0.7c0-0.1,0-0.2-0.1-0.2c0-0.1,0-0.1,0-0.1s0,0,0-0.1V45v-0.1l-0.1-0.1c0,0,0-0.2,0-0.4v-0.1v-0.1
		c0,0-0.1,0-0.1-0.1V44c0-0.1,0-0.2,0-0.3s0-0.3,0-0.3s-0.1,0-0.1-0.1c0,0,0-0.1,0-0.2V43c0,0,0-0.1-0.1-0.1c0-0.1,0-0.1,0-0.1
		c-0.1-0.1-0.1-0.1-0.1-0.2s0-0.1,0-0.1v-0.1c0.1-0.1,0-0.2-0.1-0.3c0,0,0-0.1,0-0.2v-0.1l0.2-0.2c0-0.1,0-0.2,0-0.6
		c0-0.3,0-0.5,0-0.6s0-0.1,0-0.2c0-0.1,0-0.1,0-0.1c0-0.1,0-0.2,0-0.3c0-0.2,0-0.3,0-0.4c0-0.1,0.1-0.2,0.1-0.2v-0.1V39v-0.1
		l0.1-0.1c0,0,0-0.1,0-0.4c0-0.2,0-0.4,0-0.4c0-0.3,0-0.5,0-0.5s0.1,0,0.1-0.1c0.1-0.1,0.1-0.1,0.2-0.1c0-0.1,0-0.1,0-0.1v-0.1
		l0.1-0.1v-0.1c0-0.1,0-0.1,0-0.1c0.1-0.1,0.1-0.1,0.1-0.1c0-0.1,0-0.2,0-0.3c0-0.2,0-0.3,0.1-0.3h0.1h0.1c0-0.1,0-0.1-0.1-0.1
		c0,0-0.1,0-0.1-0.1l0.1-0.2c0,0,0.1-0.1,0.1-0.2c0.1-0.1,0.1-0.2,0.1-0.2s0,0,0-0.1c0,0,0,0,0-0.1c0.1-0.1,0.1-0.2,0.1-0.3
		c0.1,0,0.1-0.1,0.1-0.2c0-0.1,0.1-0.1,0.1-0.2c0-0.1,0-0.2,0.1-0.3s0.1-0.2,0.1-0.2v-0.1v-0.1c0-0.1,0-0.1,0.1-0.2
		c0.1-0.1,0.1-0.2,0.1-0.2c0.1,0,0.2-0.1,0.3-0.3c0.1,0,0.2-0.1,0.2-0.3c0-0.1,0-0.1,0-0.2c0.1,0.1,0.2,0,0.3-0.1
		c0.1,0,0.1-0.1,0.1-0.1H41c0.1,0,0.1-0.1,0.2-0.1c0.1-0.1,0.1-0.1,0.2-0.1c0.1,0,0.3-0.1,0.5-0.3c0.1,0,0.2,0,0.2-0.1
		c0.1-0.1,0.1-0.1,0.2-0.1l0,0c0,0,0,0,0-0.1c0.1,0.1,0.2,0,0.4-0.1c0.1,0,0.1,0,0.3,0C43,31.5,43.1,31.5,43.2,31.6z M43.8,31.5
		c0,0,0.1,0,0.2,0.1c0,0,0.1,0,0.2,0c0.1,0,0.1,0,0.2,0s0.1,0,0.1,0s0,0,0.1,0s0,0,0.1,0h0.1c0.1,0.2,0.1,0.2,0.3,0.2l0.3,0.2
		c0,0.1,0,0.1,0.1,0.2c0.1,0.1,0.1,0.1,0.1,0.1c0.1,0,0.1,0,0.2,0.1c0.1,0.1,0.1,0.1,0.2,0.1h0.1h0.1c0.2-0.1,0.3-0.1,0.3-0.1
		s0.1,0,0.2,0c0,0,0.1,0,0.2,0c0.1,0,0.1,0,0.2,0c0,0,0.1,0,0.1,0.1l0.1,0.1c0,0,0.1,0,0.2,0c0.1,0,0.1,0,0.2,0c0,0,0.1,0,0.2,0.1
		c0.1,0.1,0.2,0.1,0.3,0.1c0,0,0,0.1,0.1,0.1s0.2,0,0.3,0.1s0.2,0.1,0.2,0.1h0.1c0.3,0.2,0.5,0.3,0.7,0.3h0.2c0,0.1-0.1,0.1-0.2,0
		v0.1c0,0.1,0.1,0.2,0.3,0.3s0.3,0.2,0.3,0.4c0,0.1,0.1,0.1,0.2,0.2c0.2,0.2,0.3,0.3,0.3,0.4c0.1,0.1,0.2,0.2,0.2,0.3
		s0.1,0.1,0.2,0.2c0.1,0.1,0.1,0.2,0.1,0.3c0.1,0.2,0.2,0.3,0.2,0.4c0,0,0,0.1,0.1,0.1c0.1,0.1,0.1,0.2,0.1,0.3l0.1,0.1
		c0,0.1,0,0.1,0.1,0.3s0.1,0.4,0.1,0.4c0,0.2,0.1,0.3,0.1,0.3s0,0.1,0.1,0.3c-0.1,0-0.1,0.1,0,0.2c0.1,0.1,0.1,0.2,0.1,0.2v0.1v0.1
		c0,0,0,0,0,0.1v0.1c0,0.1,0,0.2,0,0.3s0,0.3,0,0.3c0,0.1,0,0.1,0,0.1v0.1c0,0,0,0.1,0.1,0.2c0,0,0,0,0,0.1s0,0,0,0.1
		c0.1,0.1,0.1,0.4,0.1,1s0,0.9,0,1c0,0,0,0.1,0,0.2s0,0.2,0,0.2s0,0.1-0.1,0.2c-0.1,0.1-0.1,0.2,0,0.2c0,0,0,0.1,0,0.2
		c0,0.1,0,0.1,0,0.2c-0.1,0-0.2,0.1-0.2,0.1c0,0.3,0,0.4,0,0.4v0.1L52,43.7v0.1c-0.1,0.2-0.1,0.3-0.1,0.3s0,0.1-0.1,0.1h-0.1
		c0,0,0,0,0,0.1l-0.1,0.1c0,0.1-0.1,0.1-0.1,0.2l-0.2,0.3c0,0.1-0.1,0.2-0.2,0.4c-0.1,0.2-0.2,0.3-0.2,0.4c-0.1,0.1-0.2,0.3-0.2,0.5
		c0,0-0.1,0-0.2,0.1c0,0.1,0,0.1-0.1,0.2c-0.1,0.1-0.1,0.2-0.1,0.3c-0.1,0-0.1,0.1-0.2,0.2c-0.1,0.1-0.1,0.2-0.2,0.2
		c0,0-0.1,0.1-0.1,0.2c-0.1,0.1-0.1,0.2-0.1,0.2c0,0.1,0,0.1-0.1,0.2c-0.2,0.1-0.4,0.2-0.5,0.4c-0.1,0.1-0.1,0.2-0.2,0.2
		c-0.1,0.1-0.2,0.2-0.3,0.2s-0.3,0.2-0.3,0.2s0,0-0.1,0c0,0,0,0-0.1,0L48,48.9C47.9,49,47.9,49,47.9,49c-0.1,0-0.2,0-0.2,0.1
		c-0.1,0-0.1,0-0.3,0.1c-0.1,0-0.1,0-0.2,0c-0.1,0-0.1,0-0.2,0c0,0-0.1,0.1-0.2,0.2c-0.2,0-0.3,0-0.3,0c0,0.1-0.1,0.1-0.2,0.1
		c-0.1,0-0.2,0.1-0.2,0.2c-0.1,0-0.3,0-0.7,0s-0.6,0-0.7,0c-0.1,0-0.1,0-0.3,0s-0.2,0-0.3,0c0,0-0.1-0.1-0.1-0.2
		c-0.1,0-0.1,0-0.2,0.1c0,0.1-0.1,0.1-0.1,0.1s0,0,0-0.1l0,0c0,0-0.1,0-0.1-0.1c-0.1,0-0.1-0.1-0.1-0.1c-0.2,0.1-0.3,0-0.5-0.1
		s-0.3-0.1-0.4-0.1v-0.1c0,0-0.1,0-0.2-0.1c-0.8,0-0.9,0-1.1,0v-0.1l-0.1-0.1c-0.1-0.1-0.1-0.1-0.1-0.1c-0.1,0-0.1,0-0.1-0.1
		s0,0-0.1-0.1c0,0,0,0-0.1-0.1s0,0-0.1,0c0,0,0,0-0.1,0l0,0l0,0c0,0-0.1,0-0.1-0.1c0,0-0.1,0-0.1-0.1c-0.1-0.1-0.1-0.1-0.1-0.1
		c-0.1,0-0.1,0-0.1,0C40.1,48,40.1,48,40,47.8c-0.1-0.1-0.2-0.2-0.2-0.3h-0.1c-0.3-0.3-0.4-0.5-0.4-0.7c0,0-0.1-0.1-0.2-0.3v-0.1
		L39,46.3c-0.1-0.1-0.1-0.1-0.1-0.1c0-0.2-0.1-0.5-0.2-0.7c0-0.1,0-0.2-0.1-0.2c0-0.1,0-0.1,0-0.1s0,0,0-0.1V45v-0.1l-0.1-0.1
		c0,0,0-0.2,0-0.4v-0.1v-0.1c0,0-0.1,0-0.1-0.1V44c0-0.1,0-0.2,0-0.3s0-0.3,0-0.3s-0.1,0-0.1-0.1c0,0,0-0.1,0-0.2V43
		c0,0,0-0.1-0.1-0.1c0-0.1,0-0.1,0-0.1c-0.1-0.1-0.1-0.1-0.1-0.2s0-0.1,0-0.1v-0.1c0.1-0.1,0-0.2-0.1-0.3c0,0,0-0.1,0-0.2v-0.1
		l0.2-0.2c0-0.1,0-0.2,0-0.6c0-0.3,0-0.5,0-0.6s0-0.1,0-0.2c0-0.1,0-0.1,0-0.1c0-0.1,0-0.2,0-0.3c0-0.2,0-0.3,0-0.4
		c0-0.1,0.1-0.2,0.1-0.2v-0.1V39v-0.1l0.1-0.1c0,0,0-0.1,0-0.4c0-0.2,0-0.4,0-0.4c0-0.3,0-0.5,0-0.5s0.1,0,0.1-0.1
		c0.1-0.1,0.1-0.1,0.2-0.1c0-0.1,0-0.1,0-0.1v-0.1l0.1-0.1v-0.1c0-0.1,0-0.1,0-0.1c0.1-0.1,0.1-0.1,0.1-0.1c0-0.1,0-0.2,0-0.3
		c0-0.2,0-0.3,0.1-0.3h0.1h0.1c0-0.1,0-0.1-0.1-0.1c0,0-0.1,0-0.1-0.1l0.1-0.2c0,0,0.1-0.1,0.1-0.2c0.1-0.1,0.1-0.2,0.1-0.2
		s0,0,0-0.1c0,0,0,0,0-0.1c0.1-0.1,0.1-0.2,0.1-0.3c0.1,0,0.1-0.1,0.1-0.2c0-0.1,0.1-0.1,0.1-0.2c0-0.1,0-0.2,0.1-0.3
		s0.1-0.2,0.1-0.2v-0.1v-0.1c0-0.1,0-0.1,0.1-0.2c0.1-0.1,0.1-0.2,0.1-0.2c0.1,0,0.2-0.1,0.3-0.3c0.1,0,0.2-0.1,0.2-0.3
		c0-0.1,0-0.1,0-0.2c0.1,0.1,0.2,0,0.3-0.1c0.1,0,0.1-0.1,0.1-0.1H41c0.1,0,0.1-0.1,0.2-0.1c0.1-0.1,0.1-0.1,0.2-0.1
		c0.1,0,0.3-0.1,0.5-0.3c0.1,0,0.2,0,0.2-0.1c0.1-0.1,0.1-0.1,0.2-0.1l0,0c0,0,0,0,0-0.1c0.1,0.1,0.2,0,0.4-0.1c0.1,0,0.1,0,0.3,0
		c0.1,0,0.2,0,0.3,0s0.1,0,0.3,0C43.6,31.5,43.7,31.5,43.8,31.5z M43.7,34.1c-0.2,0.1-0.4,0.2-0.5,0.3c-0.2,0.1-0.3,0.2-0.5,0.3
		c-0.1,0.1-0.3,0.3-0.3,0.4l-0.1,0.1c-0.1,0.1-0.1,0.1-0.1,0.1v0.1c0,0,0,0.1-0.1,0.1L42,35.6c0,0-0.1,0.1-0.2,0.4
		c0,0.1,0,0.1-0.1,0.2c-0.1,0.1-0.1,0.1-0.1,0.1c0,0.1,0,0.1,0,0.1s0,0.1-0.1,0.1v0.1c0,0.1,0,0.1,0,0.1v0.1c-0.1,0.1-0.1,0.1,0,0.2
		c-0.1,0.1-0.2,0.2-0.2,0.4C41,37.8,41,38,41,38.3c-0.1,0.1-0.1,0.2-0.1,0.4c-0.2,0.2-0.2,0.5-0.1,0.6c0,0,0,0-0.1,0.1
		c0,0-0.1,0-0.1,0.1s0,0.2,0,0.3c-0.1,0.1-0.1,0.2,0,0.3c-0.1,0.1-0.1,0.2-0.1,0.5v0.1c0,0.1,0,0.1,0,0.1s0,0.1-0.1,0.1L40.3,41
		c0.1,0.1,0.1,0.1,0.1,0.2c0,0.1,0,0.2,0,0.4c0,0.1,0,0.3,0,0.3V42v0.1l0.1,0.1c0,0.1,0,0.2,0,0.4v0.1v0.1v0.1V43c0,0.1,0,0.2,0,0.3
		c0,0,0,0.1,0.1,0.1c0,0,0,0,0,0.1l0,0c0,0,0,0,0,0.1s0,0.2,0,0.2c0,0.1,0,0.1,0,0.2c0,0.1,0,0.1,0,0.1s0,0,0,0.1v0.1
		c0,0,0,0,0.1,0.1v0.1v0.1v0.1c0,0,0,0,0,0.1v0.1c0,0,0,0,0,0.1l0.1,0.1l0.1,0.1c-0.1,0.1-0.1,0.2,0.1,0.4v0.1c0,0,0,0.1,0.1,0.1
		s0.1,0.1,0.1,0.1l0.2,0.2c0.1,0.1,0.2,0.3,0.4,0.4c0.2,0.2,0.3,0.3,0.3,0.3c0.1,0,0.1,0,0.1,0c0.2,0.3,0.4,0.4,0.6,0.4
		c0.1,0.1,0.1,0.1,0.2,0.1c0,0,0.1,0,0.2,0c0.1,0,0.2,0,0.2,0l0.1,0.1l0.1,0.1h0.1h0.1c0,0,0,0,0.1,0H44c0.2,0,0.4,0,0.6,0
		c0,0,0.1,0,0.1-0.1c0.1-0.1,0.1-0.1,0.2-0.1c0.1,0,0.1,0,0.2,0c0,0,0.1,0,0.1-0.1l0.1-0.1c0,0,0.1,0,0.2,0c0.1-0.1,0.2-0.1,0.3-0.1
		c0.1-0.1,0.3-0.2,0.4-0.3c0.2-0.2,0.4-0.3,0.5-0.3c0,0,0-0.1,0.1-0.1l0.1-0.1c0,0,0,0,0-0.1s0.1-0.1,0.2-0.2
		c0.1-0.1,0.1-0.1,0.1-0.1s0.1-0.1,0.1-0.2c0.1-0.1,0.1-0.2,0.1-0.2s0-0.1,0.1-0.1s0.1-0.1,0.1-0.1c0.1-0.1,0.1-0.2,0.2-0.2v-0.1
		c0,0,0.1-0.2,0.3-0.4c0,0,0-0.1,0.1-0.1c0,0,0.1-0.2,0.1-0.4c0-0.1,0.1-0.1,0.2-0.2v-0.1c0,0,0,0,0-0.1c0,0,0,0,0.1-0.1v-0.1
		c0-0.1,0-0.1,0-0.1c0.1-0.1,0.2-0.3,0.3-0.8v-0.2v-0.1c0-0.1,0-0.1,0-0.1C49,42,49,42,49,41.9c0,0,0-0.1-0.1-0.1l-0.1-0.1
		c0-0.1,0-0.1,0.1-0.2c0.1-0.1,0.1-0.1,0.1-0.2c0-0.1,0-0.1,0-0.2c0-0.1,0-0.2,0-0.2v-0.1v-0.1l-0.1-0.1l-0.1-0.1
		c0.1-0.1,0.1-0.1,0.1-0.1v-0.1v-0.1c0-0.1,0-0.1,0-0.2s0-0.2,0-0.2v-0.1v-0.1c0,0,0-0.1-0.1-0.1c0-0.1,0-0.1-0.1-0.1l-0.1-0.1
		c0-0.1,0-0.1,0.1-0.2c0-0.1,0-0.1,0-0.1v-0.1v-0.1c0-0.1,0-0.1,0-0.1c0-0.1,0-0.1,0-0.1c-0.1,0-0.1-0.1-0.1-0.3S48.5,38,48.5,38
		s0-0.1,0-0.2c0-0.1,0-0.2,0-0.2c-0.1-0.1-0.2-0.2-0.2-0.3c-0.3-0.5-0.7-1-1.2-1.4h-0.2c0-0.1-0.1-0.2-0.2-0.2h-0.1l-0.2-0.1
		l-0.1-0.1c-0.1-0.1-0.2-0.1-0.2-0.1s-0.1,0-0.2,0c-0.1,0-0.1,0-0.1,0c-0.1-0.1-0.2-0.1-0.3-0.1s-0.2,0-0.3,0s-0.2,0-0.3,0
		c-0.1-0.2-0.3-0.3-0.4-0.2c-0.1-0.1-0.1-0.2,0-0.2c0,0,0-0.1,0.1-0.1l0.1-0.1c0-0.1,0-0.1-0.1-0.1s-0.1,0-0.1,0
		c0-0.1-0.1-0.2-0.1-0.2c-0.1,0-0.2,0-0.4,0S43.8,34.1,43.7,34.1z M44.6,34.1c-0.1,0-0.2,0-0.4,0s-0.4,0-0.5,0
		c-0.2,0.1-0.4,0.2-0.5,0.3c-0.2,0.1-0.3,0.2-0.5,0.3c-0.1,0.1-0.3,0.3-0.3,0.4l-0.1,0.1c-0.1,0.1-0.1,0.1-0.1,0.1v0.1
		c0,0,0,0.1-0.1,0.1L42,35.6c0,0-0.1,0.1-0.2,0.4c0,0.1,0,0.1-0.1,0.2c-0.1,0.1-0.1,0.1-0.1,0.1c0,0.1,0,0.1,0,0.2
		c0,0,0,0.1-0.1,0.1v0.1c0,0.1,0,0.1,0,0.1v0.1c-0.1,0.1-0.1,0.1,0,0.2c-0.1,0.1-0.2,0.2-0.2,0.4C41,37.8,41,38,41,38.3
		c-0.1,0.1-0.1,0.2-0.1,0.4c-0.2,0.2-0.2,0.5-0.1,0.6c0,0,0,0-0.1,0.1c0,0-0.1,0-0.1,0.1s0,0.2,0,0.3c-0.1,0.1-0.1,0.2,0,0.3
		c-0.1,0.1-0.1,0.2-0.1,0.5v0.1c0,0.1,0,0.1,0,0.1s0,0.1-0.1,0.1L40.3,41c0.1,0.1,0.1,0.1,0.1,0.2c0,0.1,0,0.2,0,0.4
		c0,0.1,0,0.3,0,0.3V42v0.1l0.1,0.1c0,0.1,0,0.2,0,0.4v0.1v0.1v0.1V43c0,0.1,0,0.2,0,0.3c0,0,0,0.1,0.1,0.1c0,0,0,0,0,0.1l0,0
		c0,0,0,0,0,0.1s0,0.2,0,0.2c0,0.1,0,0.1,0,0.2c0,0.1,0,0.1,0,0.1s0,0,0,0.1v0.1c0,0,0,0,0.1,0.1v0.1v0.1v0.1c0,0,0,0,0,0.1v0.1
		c0,0,0,0,0,0.1l0.1,0.1l0.1,0.1c-0.1,0.1-0.1,0.2,0.1,0.4v0.1c0,0,0,0.1,0.1,0.1s0.1,0.1,0.1,0.1l0.2,0.2c0.1,0.1,0.2,0.3,0.4,0.4
		c0.2,0.2,0.3,0.3,0.3,0.3c0.1,0,0.1,0,0.1,0c0.2,0.3,0.4,0.4,0.6,0.4c0.1,0.1,0.1,0.1,0.2,0.1c0,0,0.1,0,0.2,0c0.1,0,0.2,0,0.2,0
		l0.1,0.1l0.1,0.1h0.1h0.1c0,0,0,0,0.1,0H44c0.2,0,0.4,0,0.6,0c0,0,0.1,0,0.1-0.1c0.1-0.1,0.1-0.1,0.2-0.1c0.1,0,0.1,0,0.2,0
		c0,0,0.1,0,0.1-0.1l0.1-0.1c0,0,0.1,0,0.2,0c0.1-0.1,0.2-0.1,0.3-0.1c0.1-0.1,0.3-0.2,0.4-0.3c0.2-0.2,0.4-0.3,0.5-0.3
		c0,0,0-0.1,0.1-0.1l0.1-0.1c0,0,0,0,0-0.1s0.1-0.1,0.2-0.2c0.1-0.1,0.1-0.1,0.1-0.1s0.1-0.1,0.1-0.2c0.1-0.1,0.1-0.2,0.1-0.2
		s0-0.1,0.1-0.1s0.1-0.1,0.1-0.1c0.1-0.1,0.1-0.2,0.2-0.2v-0.1c0,0,0.1-0.2,0.3-0.4c0,0,0-0.1,0.1-0.1c0,0,0.1-0.2,0.1-0.4
		c0-0.1,0.1-0.1,0.2-0.2v-0.1c0,0,0,0,0-0.1c0,0,0,0,0.1-0.1v-0.1c0-0.1,0-0.1,0-0.1c0.1-0.1,0.2-0.3,0.3-0.8v-0.2v-0.1
		c0-0.1,0-0.1,0-0.1C49,42,49,42,49,41.9c0,0,0-0.1-0.1-0.1l-0.1-0.1c0-0.1,0-0.1,0.1-0.2c0.1-0.1,0.1-0.1,0.1-0.2
		c0-0.1,0-0.1,0-0.2c0-0.1,0-0.2,0-0.2v-0.1v-0.1l-0.1-0.1l-0.1-0.1c0.1-0.1,0.1-0.1,0.1-0.1v-0.1v-0.1c0-0.1,0-0.1,0-0.2
		s0-0.2,0-0.2v-0.1v-0.1c0,0,0-0.1-0.1-0.1c0-0.1,0-0.1-0.1-0.1l-0.1-0.1c0-0.1,0-0.1,0.1-0.2c0-0.1,0-0.1,0-0.1v-0.1v-0.1
		c0-0.1,0-0.1,0-0.1c0-0.1,0-0.1,0-0.1c-0.1,0-0.1-0.1-0.1-0.3S48.5,38,48.5,38s0-0.1,0-0.2c0-0.1,0-0.2,0-0.2
		c-0.1-0.1-0.2-0.2-0.2-0.3c-0.3-0.5-0.7-1-1.2-1.4h-0.2c0-0.1-0.1-0.2-0.2-0.2h-0.1l-0.2-0.1l-0.1-0.1c-0.1-0.1-0.2-0.1-0.2-0.1
		s-0.1,0-0.2,0c-0.1,0-0.1,0-0.1,0c-0.1-0.1-0.2-0.1-0.3-0.1s-0.2,0-0.3,0s-0.2,0-0.3,0c-0.1-0.2-0.3-0.3-0.4-0.2
		c-0.1-0.1-0.1-0.2,0-0.2c0,0,0-0.1,0.1-0.1l0.1-0.1c0-0.1,0-0.1-0.1-0.1s-0.1,0-0.1,0C44.6,34.2,44.6,34.1,44.6,34.1z"/>
	<path fill="#54813B" d="M59.8,31.5c0,0,0.1,0,0.2,0.1c0,0,0.1,0,0.2,0c0.1,0,0.1,0,0.2,0h0.1c0,0,0,0,0.1,0c0,0,0,0,0.1,0h0.1
		c0.1,0.2,0.1,0.2,0.3,0.2l0.3,0.2c0,0.1,0,0.1,0.1,0.2c0.1,0.1,0.1,0.1,0.1,0.1c0.1,0,0.1,0,0.2,0.1c0.1,0.1,0.1,0.1,0.2,0.1h0.1
		h0.1c0.2-0.1,0.3-0.1,0.3-0.1s0.1,0,0.2,0c0,0,0.1,0,0.2,0c0.1,0,0.1,0,0.2,0c0,0,0.1,0,0.1,0.1l0.1,0.1c0,0,0.1,0,0.2,0
		c0.1,0,0.1,0,0.2,0c0,0,0.1,0,0.2,0.1c0.1,0.1,0.2,0.1,0.3,0.1c0,0,0,0.1,0.1,0.1s0.2,0,0.3,0.1c0.1,0.1,0.2,0.1,0.2,0.1h0.1
		c0.3,0.2,0.5,0.3,0.7,0.3h0.2c0,0.1-0.1,0.1-0.2,0v0.1c0,0.1,0.1,0.2,0.3,0.3c0.2,0.1,0.3,0.2,0.3,0.4c0,0.1,0.1,0.1,0.2,0.2
		c0.2,0.2,0.3,0.3,0.3,0.4c0.1,0.1,0.2,0.2,0.2,0.3s0.1,0.1,0.2,0.2c0.1,0.1,0.1,0.2,0.1,0.3c0.1,0.2,0.2,0.3,0.2,0.4
		c0,0,0,0.1,0.1,0.1c0.1,0.1,0.1,0.2,0.1,0.3l0.1,0.1c0,0.1,0,0.1,0.1,0.3s0.1,0.4,0.1,0.4c0,0.2,0.1,0.3,0.1,0.3s0,0.1,0.1,0.3
		c-0.1,0-0.1,0.1,0,0.2c0.1,0.1,0.1,0.2,0.1,0.2v0.1v0.1c0,0,0,0,0,0.1v0.1c0,0.1,0,0.2,0,0.3s0,0.3,0,0.3c0,0.1,0,0.1,0,0.1v0.1
		c0,0,0,0.1,0.1,0.2c0,0,0,0,0,0.1c0,0,0,0,0,0.1c0.1,0.1,0.1,0.4,0.1,1s0,0.9,0,1c0,0,0,0.1,0,0.2c0,0.1,0,0.2,0,0.2s0,0.1-0.1,0.2
		c-0.1,0.1-0.1,0.2,0,0.2c0,0,0,0.1,0,0.2c0,0.1,0,0.1,0,0.2c-0.1,0-0.2,0.1-0.2,0.1c0,0.3,0,0.4,0,0.4v0.1L68,43.7v0.1
		c-0.1,0.2-0.1,0.3-0.1,0.3s0,0.1-0.1,0.1h-0.1c0,0,0,0,0,0.1l-0.1,0.1c0,0.1-0.1,0.1-0.1,0.2l-0.2,0.3c0,0.1-0.1,0.2-0.2,0.4
		s-0.2,0.3-0.2,0.4c-0.1,0.1-0.2,0.3-0.2,0.5c0,0-0.1,0-0.2,0.1c0,0.1,0,0.1-0.1,0.2c-0.1,0.1-0.1,0.2-0.1,0.3
		c-0.1,0-0.1,0.1-0.2,0.2c-0.1,0.1-0.1,0.2-0.2,0.2c0,0-0.1,0.1-0.1,0.2c-0.1,0.1-0.1,0.2-0.1,0.2c0,0.1,0,0.1-0.1,0.2
		c-0.2,0.1-0.4,0.2-0.5,0.4c-0.1,0.1-0.2,0.2-0.2,0.2c-0.1,0.1-0.2,0.2-0.3,0.2c-0.1,0.1-0.3,0.2-0.3,0.2s0,0-0.1,0s0,0-0.1,0
		L64,48.9C63.9,49,63.9,49,63.9,49c-0.1,0-0.2,0-0.2,0.1c-0.1,0-0.1,0-0.3,0.1c-0.1,0-0.1,0-0.2,0c-0.1,0-0.1,0-0.2,0
		c0,0-0.1,0.1-0.2,0.2c-0.2,0-0.3,0-0.3,0c0,0.1-0.1,0.1-0.2,0.1c-0.1,0-0.2,0.1-0.2,0.2c-0.1,0-0.3,0-0.7,0c-0.3,0-0.6,0-0.7,0
		c-0.1,0-0.1,0-0.3,0s-0.2,0-0.3,0c0,0-0.1-0.1-0.1-0.2c-0.1,0-0.1,0-0.2,0.1c0,0.1-0.1,0.1-0.1,0.1s0,0,0-0.1l0,0
		c0,0-0.1,0-0.1-0.1c-0.1,0-0.1-0.1-0.1-0.1c-0.2,0.1-0.3,0-0.5-0.1s-0.3-0.1-0.4-0.1v-0.1c0,0-0.1,0-0.2-0.1c-0.8,0-1,0-1.1,0v-0.1
		l-0.1-0.1c-0.1-0.1-0.1-0.1-0.1-0.1c-0.1,0-0.1,0-0.1-0.1c0,0,0,0-0.1-0.1c0,0,0,0-0.1-0.1c0,0,0,0-0.1,0c0,0,0,0-0.1,0s0,0,0,0
		l0,0c0,0-0.1,0-0.1-0.1c0,0-0.1,0-0.1-0.1c-0.1-0.1-0.1-0.1-0.1-0.1c-0.1,0-0.1,0-0.1,0C56.1,48,56.1,48,56,47.8
		c-0.1-0.1-0.2-0.2-0.2-0.3h-0.1c-0.3-0.3-0.4-0.5-0.4-0.7c0,0-0.1-0.1-0.2-0.3v-0.1L55,46.3c-0.1-0.1-0.1-0.1-0.1-0.1
		c0-0.2-0.1-0.5-0.2-0.7c0-0.1,0-0.2-0.1-0.2c0-0.1,0-0.1,0-0.1s0,0,0-0.1V45v-0.1l-0.1-0.1c0,0,0-0.2,0-0.4v-0.1v-0.1
		c0,0-0.1,0-0.1-0.1V44c0-0.1,0-0.2,0-0.3s0-0.3,0-0.3s-0.1,0-0.1-0.1c0,0,0-0.1,0-0.2V43c0,0,0-0.1-0.1-0.1c0-0.1,0-0.1,0-0.1
		c-0.1-0.1-0.1-0.1-0.1-0.2s0-0.1,0-0.1v-0.1c0.1-0.1,0-0.2-0.1-0.3c0,0,0-0.1,0-0.2v-0.1l0.2-0.2c0-0.1,0-0.2,0-0.6
		c0-0.3,0-0.5,0-0.6s0-0.1,0-0.2c0-0.1,0-0.1,0-0.1c0-0.1,0-0.2,0-0.3c0-0.2,0-0.3,0-0.4c0-0.1,0.1-0.2,0.1-0.2v-0.1V39v-0.1
		l0.1-0.1c0,0,0-0.1,0-0.4c0-0.2,0-0.4,0-0.4c0-0.3,0-0.5,0-0.5s0.1,0,0.1-0.1c0.1-0.1,0.1-0.1,0.2-0.1c0-0.1,0-0.1,0-0.1v-0.1
		l0.1-0.1v-0.1c0-0.1,0-0.1,0-0.1c0.1-0.1,0.1-0.1,0.1-0.1c0-0.1,0-0.2,0-0.3c0-0.2,0-0.3,0.1-0.3h0.1h0.1c0-0.1,0-0.1-0.1-0.1
		c0,0-0.1,0-0.1-0.1l0.1-0.2c0,0,0.1-0.1,0.1-0.2c0.1-0.1,0.1-0.2,0.1-0.2s0,0,0-0.1c0,0,0,0,0-0.1c0.1-0.1,0.1-0.2,0.1-0.3
		c0.1,0,0.1-0.1,0.1-0.2c0-0.1,0.1-0.1,0.1-0.2c0-0.1,0-0.2,0.1-0.3s0.1-0.2,0.1-0.2v-0.1v-0.1c0-0.1,0-0.1,0.1-0.2
		c0.1-0.1,0.1-0.2,0.1-0.2c0.1,0,0.2-0.1,0.3-0.3c0.1,0,0.2-0.1,0.2-0.3c0-0.1,0-0.1,0-0.2c0.1,0.1,0.2,0,0.3-0.1
		c0.1,0,0.1-0.1,0.1-0.1H57c0.1,0,0.1-0.1,0.2-0.1c0.1-0.1,0.1-0.1,0.2-0.1c0.1,0,0.3-0.1,0.5-0.3c0.1,0,0.2,0,0.2-0.1
		c0.1-0.1,0.1-0.1,0.2-0.1l0,0c0,0,0,0,0-0.1c0.1,0.1,0.2,0,0.4-0.1c0.1,0,0.1,0,0.3,0c0.1,0,0.2,0,0.3,0s0.1,0,0.3,0
		S59.6,31.5,59.8,31.5z M59.1,31.6c0.1,0,0.1,0,0.3,0s0.2,0,0.3,0c0,0,0.1,0,0.2,0.1c0,0,0.1,0,0.2,0c0.1,0,0.1,0,0.2,0h0.1
		c0,0,0,0,0.1,0c0,0,0,0,0.1,0h0.1c0.1,0.2,0.1,0.2,0.3,0.2l0.3,0.2c0,0.1,0,0.1,0.1,0.2c0.1,0.1,0.1,0.1,0.1,0.1
		c0.1,0,0.1,0,0.2,0.1c0.1,0.1,0.1,0.1,0.2,0.1H62h0.1c0.2-0.1,0.3-0.1,0.3-0.1s0.1,0,0.2,0c0,0,0.1,0,0.2,0c0.1,0,0.1,0,0.2,0
		c0,0,0.1,0,0.1,0.1l0.1,0.1c0,0,0.1,0,0.2,0c0.1,0,0.1,0,0.2,0c0,0,0.1,0,0.2,0.1c0.1,0.1,0.2,0.1,0.3,0.1c0,0,0,0.1,0.1,0.1
		s0.2,0,0.3,0.1c0.1,0.1,0.2,0.1,0.2,0.1h0.1c0.3,0.2,0.5,0.3,0.7,0.3h0.2c0,0.1-0.1,0.1-0.2,0v0.1c0,0.1,0.1,0.2,0.3,0.3
		c0.2,0.1,0.3,0.2,0.3,0.4c0,0.1,0.1,0.1,0.2,0.2c0.2,0.2,0.3,0.3,0.3,0.4c0.1,0.1,0.2,0.2,0.2,0.3s0.1,0.1,0.2,0.2
		c0.1,0.1,0.1,0.2,0.1,0.3c0.1,0.2,0.2,0.3,0.2,0.4c0,0,0,0.1,0.1,0.1c0.1,0.1,0.1,0.2,0.1,0.3l0.1,0.1c0,0.1,0,0.1,0.1,0.3
		s0.1,0.4,0.1,0.4c0,0.2,0.1,0.3,0.1,0.3s0,0.1,0.1,0.3c-0.1,0-0.1,0.1,0,0.2c0.1,0.1,0.1,0.2,0.1,0.2v0.1v0.1c0,0,0,0,0,0.1v0.1
		c0,0.1,0,0.2,0,0.3s0,0.3,0,0.3c0,0.1,0,0.1,0,0.1v0.1c0,0,0,0.1,0.1,0.2c0,0,0,0,0,0.1c0,0,0,0,0,0.1c0.1,0.1,0.1,0.4,0.1,1
		s0,0.9,0,1c0,0,0,0.1,0,0.2c0,0.1,0,0.2,0,0.2s0,0.1-0.1,0.2c-0.1,0.1-0.1,0.2,0,0.2c0,0,0,0.1,0,0.2c0,0.1,0,0.1,0,0.2
		c-0.1,0-0.2,0.1-0.2,0.1c0,0.3,0,0.4,0,0.4v0.1l-0.1,0.1v0.1c-0.1,0.2-0.1,0.3-0.1,0.3s0,0.1-0.1,0.1h-0.1c0,0,0,0,0,0.1l-0.1,0.1
		c0,0.1-0.1,0.1-0.1,0.2L67.2,45c0,0.1-0.1,0.2-0.2,0.4s-0.2,0.3-0.2,0.4c-0.1,0.1-0.2,0.3-0.2,0.5c0,0-0.1,0-0.2,0.1
		c0,0.1,0,0.1-0.1,0.2c-0.1,0.1-0.1,0.2-0.1,0.3c-0.1,0-0.1,0.1-0.2,0.2c-0.1,0.1-0.1,0.2-0.2,0.2c0,0-0.1,0.1-0.1,0.2
		c-0.1,0.1-0.1,0.2-0.1,0.2c0,0.1,0,0.1-0.1,0.2c-0.2,0.1-0.4,0.2-0.5,0.4c-0.1,0.1-0.2,0.2-0.2,0.2c-0.1,0.1-0.2,0.2-0.3,0.2
		c-0.1,0.1-0.3,0.2-0.3,0.2s0,0-0.1,0s0,0-0.1,0L63.9,49c-0.1,0.1-0.1,0.1-0.1,0.1c-0.1,0-0.2,0-0.2,0.1c-0.1,0-0.1,0-0.3,0.1
		c-0.1,0-0.1,0-0.2,0c-0.1,0-0.1,0-0.2,0c0,0-0.1,0.1-0.2,0.2c-0.2,0-0.3,0-0.3,0c0,0.1-0.1,0.1-0.2,0.1c-0.1,0-0.2,0.1-0.2,0.2
		c-0.1,0-0.3,0-0.7,0c-0.3,0-0.6,0-0.7,0c-0.1,0-0.1,0-0.3,0s-0.2,0-0.3,0c0,0-0.1-0.1-0.1-0.2c-0.1,0-0.1,0-0.2,0.1
		c0,0.1-0.1,0.1-0.1,0.1s0,0,0-0.1l0,0c0,0-0.1,0-0.1-0.1c-0.1,0-0.1-0.1-0.1-0.1c-0.2,0.1-0.3,0-0.5-0.1s-0.3-0.1-0.4-0.1v-0.1
		c0,0-0.1,0-0.2-0.1c-0.7-0.1-0.9-0.1-1-0.1v-0.1l-0.1-0.1c-0.1-0.1-0.1-0.1-0.1-0.1c-0.1,0-0.1,0-0.1-0.1c0,0,0,0-0.1-0.1
		c0,0,0,0-0.1-0.1c0,0,0,0-0.1,0c0,0,0,0-0.1,0s0,0,0,0l0,0c0,0-0.1,0-0.1-0.1c0,0-0.1,0-0.1-0.1c-0.1-0.1-0.1-0.1-0.1-0.1
		c-0.1,0-0.1,0-0.1,0C56.1,48,56.1,48,56,47.8c-0.1-0.1-0.2-0.2-0.2-0.3h-0.1c-0.3-0.3-0.4-0.5-0.4-0.7c0,0-0.1-0.1-0.2-0.3v-0.1
		L55,46.3c-0.1-0.1-0.1-0.1-0.1-0.1c0-0.2-0.1-0.5-0.2-0.7c0-0.1,0-0.2-0.1-0.2c0-0.1,0-0.1,0-0.1s0,0,0-0.1V45v-0.1l-0.1-0.1
		c0,0,0-0.2,0-0.4v-0.1v-0.1c0,0-0.1,0-0.1-0.1V44c0-0.1,0-0.2,0-0.3s0-0.3,0-0.3s-0.1,0-0.1-0.1c0,0,0-0.1,0-0.2V43
		c0,0,0-0.1-0.1-0.1c0-0.1,0-0.1,0-0.1c-0.1-0.1-0.1-0.1-0.1-0.2s0-0.1,0-0.1v-0.1c0.1-0.1,0-0.2-0.1-0.3c0,0,0-0.1,0-0.2v-0.1
		l0.2-0.2c0-0.1,0-0.2,0-0.6c0-0.3,0-0.5,0-0.6s0-0.1,0-0.2c0-0.1,0-0.1,0-0.1c0-0.1,0-0.2,0-0.3c0-0.2,0-0.3,0-0.4
		c0-0.1,0.1-0.2,0.1-0.2v-0.1V39v-0.1l0.1-0.1c0,0,0-0.1,0-0.4c0-0.2,0-0.4,0-0.4c0-0.3,0-0.5,0-0.5s0.1,0,0.1-0.1
		c0.1-0.1,0.1-0.1,0.2-0.1c0-0.1,0-0.1,0-0.1v-0.1l0.1-0.1v-0.1c0-0.1,0-0.1,0-0.1c0.1-0.1,0.1-0.1,0.1-0.1c0-0.1,0-0.2,0-0.3
		c0-0.2,0-0.3,0.1-0.3h0.1h0.1c0-0.1,0-0.1-0.1-0.1c0,0-0.1,0-0.1-0.1l0.1-0.2c0,0,0.1-0.1,0.1-0.2c0.1-0.1,0.1-0.2,0.1-0.2
		s0,0,0-0.1c0,0,0,0,0-0.1c0.1-0.1,0.1-0.2,0.1-0.3c0.1,0,0.1-0.1,0.1-0.2c0-0.1,0.1-0.1,0.1-0.2c0-0.1,0-0.2,0.1-0.3
		s0.1-0.2,0.1-0.2v-0.1v-0.1c0-0.1,0-0.1,0.1-0.2c0.1-0.1,0.1-0.2,0.1-0.2c0.1,0,0.2-0.1,0.3-0.3c0.1,0,0.2-0.1,0.2-0.3
		c0-0.1,0-0.1,0-0.2c0.1,0.1,0.2,0,0.3-0.1c0.1,0,0.1-0.1,0.1-0.1H57c0.1,0,0.1-0.1,0.2-0.1c0.1-0.1,0.1-0.1,0.2-0.1
		c0.1,0,0.3-0.1,0.5-0.3c0.1,0,0.2,0,0.2-0.1c0.1-0.1,0.1-0.1,0.2-0.1l0,0c0,0,0,0,0-0.1c0.1,0.1,0.2,0,0.4-0.1c0.1,0,0.1,0,0.3,0
		C59,31.5,59.1,31.5,59.1,31.6z M59.6,34.1c-0.2,0.1-0.4,0.2-0.5,0.3c-0.2,0.1-0.3,0.2-0.5,0.3c-0.1,0.1-0.3,0.3-0.3,0.4l-0.1,0.1
		c-0.1,0.1-0.1,0.1-0.1,0.1v0.1c0,0,0,0.1-0.1,0.1l-0.1,0.1c0,0-0.1,0.1-0.2,0.4c0,0.1,0,0.1-0.1,0.2c-0.1,0.1-0.1,0.1-0.1,0.1
		c0,0.1,0,0.1,0,0.1s0,0.1-0.1,0.1v0.1c0,0.1,0,0.1,0,0.1v0.1c-0.1,0.1-0.1,0.1,0,0.2c-0.1,0.1-0.2,0.2-0.2,0.4
		C57,37.8,57,38,57,38.3c-0.1,0.1-0.1,0.2-0.1,0.4c-0.2,0.2-0.2,0.5-0.1,0.6c0,0,0,0-0.1,0.1c0,0-0.1,0-0.1,0.1s0,0.2,0,0.3
		c-0.1,0.1-0.1,0.2,0,0.3c-0.1,0.1-0.1,0.2-0.1,0.5v0.1c0,0.1,0,0.1,0,0.1s0,0.1-0.1,0.1L56.3,41c0.1,0.1,0.1,0.1,0.1,0.2
		c0,0.1,0,0.2,0,0.4c0,0.1,0,0.3,0,0.3V42v0.1l0.1,0.1c0,0.1,0,0.2,0,0.4v0.1v0.1v0.1V43c0,0.1,0,0.2,0,0.3c0,0,0,0.1,0.1,0.1
		s0,0,0,0.1l0,0c0,0,0,0,0,0.1s0,0.2,0,0.2c0,0.1,0,0.1,0,0.2c0,0.1,0,0.1,0,0.1s0,0,0,0.1v0.1c0,0,0,0,0.1,0.1v0.1v0.1v0.1
		c0,0,0,0,0,0.1v0.1c0,0,0,0,0,0.1l0.1,0.1l0.1,0.1c-0.1,0.1-0.1,0.2,0.1,0.4v0.1c0,0,0,0.1,0.1,0.1s0.1,0.1,0.1,0.1l0.2,0.2
		c0.1,0.1,0.2,0.3,0.4,0.4c0.2,0.2,0.3,0.3,0.3,0.3c0.1,0,0.1,0,0.1,0c0.2,0.3,0.4,0.4,0.6,0.4c0.1,0.1,0.1,0.1,0.2,0.1s0.1,0,0.2,0
		c0.1,0,0.2,0,0.2,0l0.1,0.1l0.1,0.1h0.1h0.1c0,0,0,0,0.1,0H60c0.2,0,0.4,0,0.6,0c0,0,0.1,0,0.1-0.1c0.1-0.1,0.1-0.1,0.2-0.1
		c0.1,0,0.1,0,0.2,0c0,0,0.1,0,0.1-0.1l0.1-0.1c0,0,0.1,0,0.2,0c0.1-0.1,0.2-0.1,0.3-0.1c0.1-0.1,0.3-0.2,0.4-0.3
		c0.2-0.2,0.4-0.3,0.5-0.3c0,0,0-0.1,0.1-0.1l0.1-0.1c0,0,0,0,0-0.1s0.1-0.1,0.2-0.2c0.1-0.1,0.1-0.1,0.1-0.1s0.1-0.1,0.1-0.2
		c0.1-0.1,0.1-0.2,0.1-0.2s0-0.1,0.1-0.1s0.1-0.1,0.1-0.1c0.1-0.1,0.1-0.2,0.2-0.2v-0.1c0,0,0.1-0.2,0.3-0.4c0,0,0-0.1,0.1-0.1
		c0,0,0.1-0.2,0.1-0.4c0-0.1,0.1-0.1,0.2-0.2v-0.1c0,0,0,0,0-0.1c0,0,0,0,0.1-0.1v-0.1c0-0.1,0-0.1,0-0.1c0.1-0.1,0.2-0.3,0.3-0.8
		v-0.2v-0.1c0-0.1,0-0.1,0-0.1C65,42,65,42,65,41.9c0,0,0-0.1-0.1-0.1l-0.1-0.1c0-0.1,0-0.1,0.1-0.2c0.1-0.1,0.1-0.1,0.1-0.2
		c0-0.1,0-0.1,0-0.2c0-0.1,0-0.2,0-0.2v-0.1v-0.1l-0.1-0.1l-0.1-0.1c0.1-0.1,0.1-0.1,0.1-0.1v-0.1v-0.1c0-0.1,0-0.1,0-0.2
		c0-0.1,0-0.2,0-0.2v-0.1v-0.1c0,0,0-0.1-0.1-0.1c0-0.1,0-0.1-0.1-0.1l-0.1-0.1c0-0.1,0-0.1,0.1-0.2c0-0.1,0-0.1,0-0.1v-0.1v-0.1
		c0-0.1,0-0.1,0-0.1c0-0.1,0-0.1,0-0.1c-0.1,0-0.1-0.1-0.1-0.3S64.5,38,64.5,38s0-0.1,0-0.2c0-0.1,0-0.2,0-0.2
		c-0.1-0.1-0.2-0.2-0.2-0.3c-0.3-0.5-0.7-1-1.2-1.4h-0.2c0-0.1-0.1-0.2-0.2-0.2h-0.1l-0.2-0.1l-0.1-0.1c-0.1-0.1-0.2-0.1-0.2-0.1
		s-0.1,0-0.2,0c-0.1,0-0.1,0-0.1,0c-0.1-0.1-0.2-0.1-0.3-0.1s-0.2,0-0.3,0s-0.2,0-0.3,0c-0.1-0.2-0.3-0.3-0.4-0.2
		c-0.1-0.1-0.1-0.2,0-0.2c0,0,0-0.1,0.1-0.1l0.1-0.1c0-0.1,0-0.1-0.1-0.1s-0.1,0-0.1,0c0-0.1-0.1-0.2-0.1-0.2c-0.1,0-0.2,0-0.4,0
		C59.9,34.1,59.8,34.1,59.6,34.1z M60.5,34.1c-0.1,0-0.2,0-0.4,0s-0.4,0-0.5,0c-0.2,0.1-0.4,0.2-0.5,0.3c-0.2,0.1-0.3,0.2-0.5,0.3
		c-0.1,0.1-0.3,0.3-0.3,0.4l-0.1,0.1c-0.1,0.1-0.1,0.1-0.1,0.1v0.1c0,0,0,0.1-0.1,0.1l-0.1,0.1c0,0-0.1,0.1-0.2,0.4
		c0,0.1,0,0.1-0.1,0.2c-0.1,0.1-0.1,0.1-0.1,0.1c0,0.1,0,0.1,0,0.2c0,0,0,0.1-0.1,0.1v0.1c0,0.1,0,0.1,0,0.1v0.1
		c-0.1,0.1-0.1,0.1,0,0.2c-0.1,0.1-0.2,0.2-0.2,0.4C57,37.8,57,38,57,38.3c-0.1,0.1-0.1,0.2-0.1,0.4c-0.2,0.2-0.2,0.5-0.1,0.6
		c0,0,0,0-0.1,0.1c0,0-0.1,0-0.1,0.1s0,0.2,0,0.3c-0.1,0.1-0.1,0.2,0,0.3c-0.1,0.1-0.1,0.2-0.1,0.5v0.1c0,0.1,0,0.1,0,0.1
		s0,0.1-0.1,0.1L56.3,41c0.1,0.1,0.1,0.1,0.1,0.2c0,0.1,0,0.2,0,0.4c0,0.1,0,0.3,0,0.3V42v0.1l0.1,0.1c0,0.1,0,0.2,0,0.4v0.1v0.1
		v0.1V43c0,0.1,0,0.2,0,0.3c0,0,0,0.1,0.1,0.1s0,0,0,0.1l0,0c0,0,0,0,0,0.1s0,0.2,0,0.2c0,0.1,0,0.1,0,0.2c0,0.1,0,0.1,0,0.1
		s0,0,0,0.1v0.1c0,0,0,0,0.1,0.1v0.1v0.1v0.1c0,0,0,0,0,0.1v0.1c0,0,0,0,0,0.1l0.1,0.1l0.1,0.1c-0.1,0.1-0.1,0.2,0.1,0.4v0.1
		c0,0,0,0.1,0.1,0.1s0.1,0.1,0.1,0.1l0.2,0.2c0.1,0.1,0.2,0.3,0.4,0.4c0.2,0.2,0.3,0.3,0.3,0.3c0.1,0,0.1,0,0.1,0
		c0.2,0.3,0.4,0.4,0.6,0.4c0.1,0.1,0.1,0.1,0.2,0.1s0.1,0,0.2,0c0.1,0,0.2,0,0.2,0l0.1,0.1l0.1,0.1h0.1h0.1c0,0,0,0,0.1,0H60
		c0.2,0,0.4,0,0.6,0c0,0,0.1,0,0.1-0.1c0.1-0.1,0.1-0.1,0.2-0.1c0.1,0,0.1,0,0.2,0c0,0,0.1,0,0.1-0.1l0.1-0.1c0,0,0.1,0,0.2,0
		c0.1-0.1,0.2-0.1,0.3-0.1c0.1-0.1,0.3-0.2,0.4-0.3c0.2-0.2,0.4-0.3,0.5-0.3c0,0,0-0.1,0.1-0.1l0.1-0.1c0,0,0,0,0-0.1
		s0.1-0.1,0.2-0.2c0.1-0.1,0.1-0.1,0.1-0.1s0.1-0.1,0.1-0.2c0.1-0.1,0.1-0.2,0.1-0.2s0-0.1,0.1-0.1s0.1-0.1,0.1-0.1
		c0.1-0.1,0.1-0.2,0.2-0.2v-0.1c0,0,0.1-0.2,0.3-0.4c0,0,0-0.1,0.1-0.1c0,0,0.1-0.2,0.1-0.4c0-0.1,0.1-0.1,0.2-0.2v-0.1
		c0,0,0,0,0-0.1c0,0,0,0,0.1-0.1v-0.1c0-0.1,0-0.1,0-0.1c0.1-0.1,0.2-0.3,0.3-0.8v-0.2v-0.1c0-0.1,0-0.1,0-0.1C65,42,65,42,65,41.9
		c0,0,0-0.1-0.1-0.1l-0.1-0.1c0-0.1,0-0.1,0.1-0.2c0.1-0.1,0.1-0.1,0.1-0.2c0-0.1,0-0.1,0-0.2c0-0.1,0-0.2,0-0.2v-0.1v-0.1l-0.1-0.1
		l-0.1-0.1c0.1-0.1,0.1-0.1,0.1-0.1v-0.1v-0.1c0-0.1,0-0.1,0-0.2c0-0.1,0-0.2,0-0.2v-0.1v-0.1c0,0,0-0.1-0.1-0.1
		c0-0.1,0-0.1-0.1-0.1l-0.1-0.1c0-0.1,0-0.1,0.1-0.2c0-0.1,0-0.1,0-0.1v-0.1v-0.1c0-0.1,0-0.1,0-0.1c0-0.1,0-0.1,0-0.1
		c-0.1,0-0.1-0.1-0.1-0.3S64.5,38,64.5,38s0-0.1,0-0.2c0-0.1,0-0.2,0-0.2c-0.1-0.1-0.2-0.2-0.2-0.3c-0.3-0.5-0.7-1-1.2-1.4h-0.2
		c0-0.1-0.1-0.2-0.2-0.2h-0.1l-0.2-0.1l-0.1-0.1c-0.1-0.1-0.2-0.1-0.2-0.1s-0.1,0-0.2,0c-0.1,0-0.1,0-0.1,0
		c-0.1-0.1-0.2-0.1-0.3-0.1s-0.2,0-0.3,0s-0.2,0-0.3,0c-0.1-0.2-0.3-0.3-0.4-0.2c-0.1-0.1-0.1-0.2,0-0.2c0,0,0-0.1,0.1-0.1l0.1-0.1
		c0-0.1,0-0.1-0.1-0.1s-0.1,0-0.1,0C60.6,34.2,60.6,34.1,60.5,34.1z"/>
	<path fill="#54813B" d="M83,29.8c0.1,0.2,0.1,0.3,0.3,0.3c0,0.1,0,0.2,0.1,0.3c0,0.1,0,0.1,0.1,0.1v0.1c0,0.1,0,0.1,0,0.1
		s0,0.1,0.1,0.2c0,0.1,0.1,0.2,0.1,0.2c0.1,0.1,0.1,0.2,0.2,0.3c0.1,0,0.1,0,0.1,0c0,0.1,0,0.1,0,0.2l0,0.4v0.1c0,0.1,0,0.1,0.1,0.1
		c0.1,0.1,0.1,0.2,0.1,0.2v0.1c0,0.1,0.1,0.2,0.1,0.3c0,0.2,0.1,0.3,0.1,0.3c0,0.1,0,0.1,0,0.2c0.1,0.1,0.1,0.1,0.1,0.2
		c0,0.2,0.1,0.3,0.1,0.3c0,0.1,0,0.2,0.1,0.4c0,0,0,0.1,0,0.2c0,0.1,0,0.2,0.1,0.3c0,0.1,0,0.1,0,0.1s0.1,0.1,0.1,0.3
		s0.1,0.3,0.1,0.3c0,0.1,0,0.1,0,0.2c0,0.1,0,0.2,0,0.2l0.1,0.1l0.1,0.1c0,0,0,0.1,0,0.2c0,0.1,0,0.1,0,0.2c0,0,0,0,0,0.1
		c0,0,0.1,0,0.1,0.1c-0.1,0.1-0.1,0.2-0.1,0.2c0,0.1,0,0.1,0,0.3c0,0.1,0,0.1,0,0.2c0,0,0,0.1,0.1,0.2c0,0.1,0,0.1,0,0.1v0.1
		c0,0.1,0,0.2,0.1,0.3s0.1,0.1,0.1,0.1v0.1v0.1c0,0,0,0.1,0.1,0.2c0,0.1,0,0.1,0,0.2c0,0.1,0,0.2,0,0.2c0.1,0.1,0.1,0.2,0.1,0.2
		c0,0.2,0,0.3,0,0.4c0.1,0.1,0.1,0.2,0.1,0.3c0,0.2,0.1,0.3,0.1,0.4c0,0.1,0,0.1,0,0.2c0,0,0,0,0,0.1v0.1c0,0,0,0.1,0.1,0.2
		c0,0.1,0.1,0.1,0.1,0.2c0,0.1,0,0.2,0.1,0.2c0,0.2,0,0.4,0.2,0.5v0.1c0,0,0,0.1,0.1,0.1c0,0.1,0,0.2,0,0.3l0.1,0.1c0,0,0,0.1,0,0.2
		c0,0.1,0,0.1,0,0.2l0.1,0.1v0.1c0,0.2,0.1,0.3,0.1,0.3c0,0.2,0,0.3,0.1,0.4c0,0.1,0,0.2,0.1,0.4c0,0.1,0,0.1,0,0.2
		c0,0.1,0,0.1,0,0.2c0.1,0.1,0.1,0.1,0.1,0.1s0,0,0,0.1v0.1c0,0,0,0.1,0.1,0.1l0.1,0.1c0,0,0,0,0,0.1s0,0.1,0,0.1s0,0,0,0.1l0,0
		c0,0,0,0,0,0.1v0.1c0.1,0,0.1,0.1,0.1,0.1s0.1,0.1,0.1,0.2c0.1,0.1,0.1,0.2,0.2,0.2V46c0,0.1,0,0.1,0,0.1c0.1,0.1,0.2,0.1,0.2,0.2
		v0.1c-0.1,0.1-0.1,0.1,0,0.2c0,0,0,0,0.1,0.1s0.1,0,0.1,0.1s0,0.1-0.1,0.1c0.1,0.1,0,0.2,0,0.2v0.1v0.1c0.1,0,0.1,0.1,0.1,0.1
		c0,0.1-0.1,0.1-0.2,0.1l0,0l0,0c0,0-0.1,0.1-0.3,0.2c-0.1,0.1-0.2,0.2-0.2,0.2s0,0,0,0.1c-0.1,0-0.1,0-0.2,0c0,0,0,0.1-0.1,0.1
		c0,0.1-0.1,0.1-0.1,0c0,0,0,0,0-0.1s0,0,0-0.1c0,0-0.1,0-0.2,0.1s-0.1,0-0.2,0.1c-0.2,0-0.3,0-0.3,0V48c-0.1,0-0.1,0-0.2,0
		s-0.1,0-0.2,0c0-0.1-0.1-0.1-0.1-0.1l0,0c0,0,0,0-0.1,0c0,0,0,0,0-0.1l0,0c0,0,0,0-0.1,0c-0.2-0.2-0.3-0.4-0.4-0.4h-0.1
		c-0.1,0-0.1-0.1-0.2-0.2c0.1-0.1,0.1-0.1,0.1-0.1c0-0.1,0-0.2-0.1-0.3c0-0.1,0-0.2-0.1-0.3s-0.1-0.2-0.1-0.3c0,0,0-0.1-0.1-0.1
		c0,0,0,0,0-0.1c0,0,0,0,0-0.1c-0.1-0.1-0.1-0.2-0.2-0.3c-0.1-0.2-0.1-0.3-0.2-0.3c0-0.2,0-0.4-0.1-0.4c0-0.1,0-0.2-0.1-0.3
		c0-0.1,0-0.1-0.1-0.1c0,0,0-0.1,0-0.2c0-0.1,0-0.2-0.1-0.2h-0.1V44c0-0.1,0-0.1-0.1-0.2c0-0.1-0.1-0.1-0.1-0.2v-0.1v-0.1
		c0,0,0-0.1-0.1-0.1c0-0.1-0.1-0.1-0.1-0.1c0-0.1,0-0.1,0-0.1s0,0,0-0.1v-0.1v-0.1c0-0.1,0-0.1,0-0.1v-0.1c0-0.1,0-0.1,0-0.2
		c-0.1,0-0.1-0.1-0.1-0.1c0-0.1,0-0.2-0.1-0.3c0-0.1,0-0.2-0.2-0.3c0-0.1,0-0.1-0.1-0.3c-0.1-0.1,0-0.2,0.1-0.2c0-0.1,0-0.2,0-0.2
		c0-0.1-0.1-0.1-0.1,0h-0.1v-0.1c0,0,0-0.2-0.1-0.4c-0.1-0.1-0.1-0.2-0.1-0.3c0,0,0-0.1-0.1-0.2v-0.1c0-0.1,0-0.1,0-0.2
		c0-0.1,0-0.2,0-0.2v-0.1v-0.1c0-0.2,0-0.3,0-0.3s0,0-0.1,0c0,0,0,0-0.1,0c0,0,0-0.1,0-0.2c0-0.1,0-0.2,0-0.3l-0.1-0.1
		c0-0.1,0-0.1,0-0.1s0-0.1,0-0.2c0-0.1,0-0.1,0-0.2H82h-0.1c0-0.1,0-0.1,0.1-0.1l0,0c0,0,0-0.1,0-0.2c0-0.1,0-0.2,0-0.2
		c0-0.1,0-0.1,0-0.1v-0.1c0,0,0-0.1-0.1-0.1c0,0,0-0.1,0-0.2c0-0.1,0-0.1,0-0.2l-0.1-0.1v-0.1v-0.1v-0.1c0-0.1-0.1-0.1-0.2-0.3
		c-0.1,0.1-0.2,0.2-0.2,0.4c-0.1,0.1-0.1,0.1-0.1,0.2c0,0.1,0,0.1,0,0.1s0,0.1-0.1,0.1c0,0.1-0.1,0.1-0.1,0.1C81,36.9,81,37,81,37.2
		c0,0.1,0,0.3-0.1,0.3c0,0.1,0,0.2,0,0.4l0.1,0.2c-0.1,0.1-0.1,0.1-0.1,0.1c0,0.1,0,0.1,0,0.2c-0.1,0.4-0.1,0.6,0,0.7l-0.1,0.1
		c0,0,0,0.1,0,0.2c0,0.1,0,0.2,0,0.2s0,0.1-0.1,0.2c0,0.1,0,0.2,0,0.2v0.1v0.1v0.1c0,0.3-0.1,0.5-0.1,0.5c0,0.1,0,0.4,0,0.7
		s0,0.6,0,0.7s0,0.2,0.1,0.3c-0.1,0-0.2,0.1-0.3,0.2c-0.1,0.1-0.2,0.2-0.2,0.2V43l0,0c0,0,0,0-0.1,0c0,0,0,0-0.1,0s-0.1,0-0.1,0.1
		s-0.1,0.1-0.1,0.2c-0.1,0-0.2,0-0.4,0c0,0,0,0-0.1,0.1c0,0,0,0.1-0.1,0.1s-0.1-0.1-0.2-0.2c-0.1,0-0.1,0-0.2,0s-0.2,0-0.2,0
		c-0.1-0.2-0.2-0.3-0.4-0.3C78,42.9,78,42.9,78,42.8c0-0.1-0.1-0.1-0.2-0.2c-0.1-0.1-0.2-0.1-0.2-0.1l-0.3-0.3c0-0.1,0-0.2-0.1-0.3
		s-0.1-0.2-0.1-0.3c0,0-0.1,0-0.1-0.1c0,0,0,0,0-0.1v-0.1c0,0-0.1-0.1-0.1-0.2c-0.1-0.1-0.1-0.2-0.2-0.2v-0.1c0,0-0.1-0.1-0.2-0.2
		s-0.2-0.2-0.2-0.3c-0.1,0-0.1-0.1-0.2-0.2c-0.1-0.1-0.2-0.2-0.2-0.2s-0.1,0-0.1-0.1s-0.1-0.2-0.1-0.2c0-0.1,0-0.1-0.1-0.2
		c-0.1,0-0.1,0-0.1,0c-0.1-0.2-0.2-0.4-0.3-0.4c-0.1-0.2-0.2-0.3-0.4-0.4c0,0,0,0,0-0.1c0,0,0,0,0-0.1l-0.2-0.2c0,0,0,0,0-0.1
		s-0.1,0-0.1,0L74.4,38l-0.1-0.1c0,0-0.1,0-0.1-0.1c0,0,0,0,0-0.1s-0.1-0.2-0.2-0.3s-0.1-0.1-0.1-0.1s-0.1,0-0.1-0.1
		s-0.1-0.1-0.1-0.1s-0.1,0-0.1,0.1s0,0.3,0,0.6v0.1c0,0.1,0,0.1,0,0.1v0.1c0,0.1,0,0.3,0,0.4c0,0.2,0,0.3,0,0.3c0,0.1,0,0.2,0,0.3
		s0,0.3,0,0.3c0,0.1,0,0.2,0.1,0.2c0,0,0,0,0,0.1c0,0,0,0,0,0.1s0,0.1,0,0.2c0,0.1,0,0.2,0,0.2c0.1,0,0.1,0,0.1,0h0.1
		c0,0.1,0,0.1-0.1,0.2c-0.1,0.1-0.1,0.1-0.1,0.2c0,0,0,0,0,0.1c0,0,0,0,0.1,0.1c0,0.1-0.1,0.1-0.1,0.1c0,0.1,0,0.3,0,0.5
		c0,0.3,0,0.4,0,0.5s0.1,0.2,0.2,0.2l-0.1,0.1c0,0,0,0,0,0.1s0,0,0,0.1v0.1c0,0.1,0,0.1,0,0.1s0,0,0,0.1v0.1
		c-0.1,0.1-0.1,0.1-0.1,0.1V43c0,0.1,0,0.1,0,0.2c0,0.1,0,0.2,0.1,0.2v0.2v0.1v0.1c0,0,0,0,0,0.1s0,0,0,0.1c-0.1,0-0.1,0-0.1,0.1
		s0,0.1,0.1,0.2c0,0.2,0,0.5,0,0.7s0,0.5,0,0.7c0,0.3,0,0.5,0,0.7v0.1c0,0,0,0.1,0.1,0.1c0,0.1,0.1,0.1,0.1,0.1c0,0.1,0,0.2,0,0.3
		c0,0.2,0,0.3,0,0.3c0,0.1,0.1,0.1,0.2,0.1c-0.1,0.1-0.2,0.1-0.2,0.2c0,0.1,0.1,0.1,0.2,0.1c0,0,0,0,0,0.1s-0.1,0-0.1,0.1l0.1,0.1
		c0.1,0.2,0.1,0.3,0,0.4v0.1c0,0,0,0,0,0.1c0,0,0,0,0,0.1l0.1,0.1v0.1c0,0,0,0.1-0.1,0.2c-0.1,0.1-0.1,0.1,0,0.2
		c-0.1,0.1-0.2,0.2-0.2,0.3l-0.1,0.1c0,0.1-0.1,0.1-0.1,0.1s0-0.1-0.1-0.1c0,0,0-0.1-0.1-0.1s-0.1,0.1-0.2,0.3
		c0,0.1-0.1,0.1-0.1,0.1s-0.1,0-0.2,0c0,0,0,0,0,0.1s0,0.1,0,0.1c-0.1,0-0.2,0-0.2-0.1c-0.1-0.1-0.1-0.1-0.2-0.2c0,0,0,0,0,0.1
		c-0.1,0-0.2,0-0.2,0c-0.1-0.1-0.1-0.1-0.2-0.1c-0.1-0.2-0.2-0.2-0.3-0.1c0,0-0.1-0.1-0.2-0.1c0-0.2-0.1-0.4-0.4-0.5V49
		c-0.1,0-0.1-0.1-0.1-0.2c0-0.1-0.1-0.2-0.2-0.2c0.1-0.2,0.1-0.4,0-0.5c0.1-0.1,0.1-0.2,0-0.4c0-0.1,0-0.1,0-0.2
		c-0.1,0-0.1-0.1-0.1-0.2h0.1c0.1-0.1,0.1-0.2,0-0.3c0-0.1,0-0.1,0-0.2c0,0,0-0.1,0-0.2s0-0.2,0-0.2c0-0.1,0-0.1,0-0.1s0,0,0-0.1
		v-0.1V46L71,45.9c0-0.1,0-0.2,0-0.4s0-0.4,0-0.5s0-0.2,0.1-0.2C71,44.6,71,44.4,71,44.1l0.1-0.1v-0.1v-0.1c0-0.1,0-0.1-0.1-0.2
		c0,0,0-0.1,0-0.2s0-0.2,0-0.2c0-0.1-0.1-0.1-0.2-0.2c0-0.1,0-0.1,0.1-0.1s0.1,0,0.1-0.1s0-0.3,0-0.5s0-0.4,0-0.6
		c-0.1-0.1-0.1-0.1,0-0.2c0-0.1,0-0.1,0-0.2c0-0.1,0-0.1,0-0.2c0,0,0-0.1,0-0.2c0-0.1,0-0.2,0-0.2s0-0.1-0.1-0.1l-0.1-0.1
		c0-0.1,0-0.2,0-0.3c-0.1-0.1-0.1-0.3,0-0.5v-0.1v-0.1v-0.1c0,0,0-0.1,0-0.3s0-0.3-0.1-0.3c0,0,0,0,0-0.1c0,0,0,0,0-0.1
		c-0.1-0.1-0.1-0.1-0.1-0.2c0,0,0,0,0.1-0.1c0,0,0.1,0,0.1-0.1c0,0,0-0.1-0.1-0.1v-0.8h-0.1l0,0c0-0.1,0-0.1,0.1-0.2
		c-0.1-0.1-0.1-0.2-0.1-0.4s0-0.4-0.1-0.5c-0.1,0-0.1,0-0.1,0c0.1-0.1,0.1-0.2,0.1-0.2c0-0.1-0.1-0.1-0.2-0.3
		c0.1-0.1,0.1-0.2,0.1-0.3c0-0.2,0-0.3,0.1-0.4c-0.1-0.1-0.1-0.2-0.1-0.4c-0.1-0.1-0.2-0.3-0.1-0.5c-0.1-0.1-0.1-0.3,0-0.4
		c-0.1-0.1-0.1-0.2-0.1-0.2v-0.1v-0.1v-0.1v-0.1c0,0,0-0.1,0.1-0.1c0-0.2,0.1-0.4,0.3-0.6l0.1-0.1c0.1,0,0.1-0.1,0.1-0.1
		c0.1-0.1,0.1-0.1,0-0.2v-0.1c0,0,0-0.1,0-0.2s0-0.1,0-0.2c0,0-0.1-0.1-0.3-0.1c0-0.1,0-0.1,0.1-0.2c0-0.1,0-0.2,0-0.5
		c0-0.2,0-0.4,0-0.5c0,0,0.1,0,0.2,0s0.2,0,0.2-0.1s0-0.1,0-0.1c0-0.1-0.1-0.1-0.1-0.1s0-0.1,0.1-0.1s0.1-0.1,0.1-0.1
		c0.3,0,0.4,0,0.4-0.1c0.1,0,0.2,0,0.3-0.1h0.1H72c0.1,0,0.1,0,0.1,0c0.1,0,0.1,0,0.2,0.1s0.1,0.1,0.2,0.1c0,0,0,0,0.1,0
		c0,0,0,0,0.1,0h0.1c0.1,0,0.1,0,0.2,0c0.1,0.1,0.2,0.2,0.4,0.3c0,0,0,0.1,0.1,0.1v0.1c0.1,0,0.1,0,0.1,0.1l0.1,0.1l0.1,0.2
		c0,0.1,0,0.2,0.1,0.4c0,0.1,0,0.1,0,0.1s0,0,0.1,0.1l0.1,0.1v0.1c0,0,0,0,0,0.1c0,0,0,0,0,0.1v0.1c0,0,0.1,0,0.1,0.1
		s0.1,0.1,0.1,0.1c0,0.1,0,0.2,0.1,0.3v0.1c0.3,0.4,0.4,0.6,0.5,0.8c0.1,0,0.1,0.1,0.2,0.1v0.1c0,0.1,0.1,0.1,0.2,0.2
		c0,0.1,0,0.1,0.1,0.2c0,0,0.1,0.1,0.2,0.2V34v0.1l0.1,0.1c0.1,0.1,0.1,0.1,0.1,0.1l0.1,0.1l0.1,0.1v0.1h0.1v0.1
		c0.2,0.2,0.3,0.3,0.5,0.4v0.1v0.1c0.1,0,0.1,0.1,0.2,0.3c0,0,0,0,0.1,0c0,0,0,0,0.1,0v0.1l0.1,0.1l0.1,0.1V36c0,0,0.1,0.1,0.2,0.2
		c0,0,0,0,0,0.1s0,0,0,0.1c0.1,0,0.1,0.1,0.2,0.1c0.1,0.1,0.1,0.2,0.1,0.3c0.2,0.1,0.3,0.1,0.3,0.1c0,0.1,0,0.1,0,0.1
		s0.1,0.1,0.2,0.2c0.1,0.1,0.1,0.2,0.2,0.2c0,0,0.1,0,0.1,0.1c0.1,0.1,0.1,0.1,0.2,0.1c0.1-0.2,0.1-0.3,0.2-0.3c0-0.2,0-0.3,0-0.3
		v-0.1v-0.1c0,0,0-0.1,0-0.3s0-0.3,0-0.3c0.1-0.1,0.2-0.2,0.2-0.3c-0.1-0.2-0.1-0.3,0.1-0.4c0.1-0.3,0.2-0.5,0.3-0.5
		c0-0.1,0.1-0.3,0.1-0.6c0.1-0.1,0.1-0.2,0.2-0.2c0,0,0-0.1,0-0.2c0.1,0,0.1-0.1,0.1-0.2c0-0.1,0.1-0.2,0.1-0.2c0-0.1,0-0.1,0-0.2
		c0-0.1,0-0.1,0-0.1s0,0-0.1,0h-0.1h0.1c0.1,0,0.1-0.2,0.1-0.5c0.1-0.1,0.1-0.2,0.1-0.2c0.1,0,0.1-0.1,0.2-0.1c0-0.2,0-0.3,0-0.3
		c0.1-0.1,0.1-0.1,0.1-0.2c0.1,0,0.2-0.1,0.2-0.2v-0.1v-0.1v-0.1c0,0,0,0,0-0.1s0,0,0-0.1s0-0.1,0-0.2v-0.2c0.1-0.1,0.1-0.1,0.1-0.3
		c0-0.1,0-0.2-0.1-0.2c0.1-0.1,0.1-0.3,0.1-0.6c0-0.1,0.1-0.2,0.3-0.3c0.1,0,0.1-0.1,0.1-0.1c0-0.1,0-0.2,0-0.2s0,0,0.1,0
		s0.1,0,0.1,0s0,0,0.1-0.1c0.1,0,0.2,0,0.3-0.1c0.1,0,0.1,0,0.2-0.1c0.1,0,0.1-0.1,0.2-0.1h0.1c0.1,0,0.1,0.1,0.1,0.1
		c0.1,0,0.1,0,0.1,0h0.1c0,0,0.1,0,0.1,0.1c0,0,0,0,0,0.1h0.1h0.1c0.1,0,0.1,0.1,0.2,0.2s0.1,0.2,0.2,0.2h0.1
		C82.9,29.7,83,29.8,83,29.8z M82.8,29.7L82.8,29.7c0.2,0,0.2,0,0.2,0c0.1,0.2,0.1,0.3,0.3,0.3c0,0.1,0,0.2,0.1,0.3
		c0,0.1,0,0.1,0.1,0.1v0.1c0,0.1,0,0.1,0,0.1s0,0.1,0.1,0.2c0,0.1,0.1,0.2,0.1,0.2c0.1,0.1,0.1,0.2,0.2,0.3c0.1,0,0.1,0,0.1,0
		c0,0.1,0,0.1,0,0.2l0,0.5v0.1c0,0.1,0,0.1,0.1,0.1c0.1,0.1,0.1,0.2,0.1,0.2v0.1c0,0.1,0.1,0.2,0.1,0.3c0,0.2,0.1,0.3,0.1,0.3
		c0,0.1,0,0.1,0,0.2c0.1,0.1,0.1,0.1,0.1,0.2c0,0.2,0.1,0.3,0.1,0.3c0,0.1,0,0.2,0.1,0.4c0,0,0,0.1,0,0.2c0,0.1,0,0.2,0.1,0.3
		c0,0.1,0,0.1,0,0.1s0.1,0.1,0.1,0.3s0.1,0.3,0.1,0.3c0,0.1,0,0.1,0,0.2c0,0.1,0,0.2,0,0.2l0.1,0.1l0.1,0.1c0,0,0,0.1,0,0.2
		c0,0.1,0,0.1,0,0.2c0,0,0,0,0,0.1c0,0,0.1,0,0.1,0.1c-0.1,0.1-0.1,0.2-0.1,0.2c0,0.1,0,0.1,0,0.3c0,0.1,0,0.1,0,0.2
		c0,0,0,0.1,0.1,0.2c0,0.1,0,0.1,0,0.1v0.1c0,0.1,0,0.2,0.1,0.3s0.1,0.1,0.1,0.1v0.1v0.1c0,0,0,0.1,0.1,0.2c0,0.1,0,0.1,0,0.2
		c0,0.1,0,0.2,0,0.2c0.1,0.1,0.1,0.2,0.1,0.2c0,0.2,0,0.3,0,0.4c0.1,0.1,0.1,0.2,0.1,0.3c0,0.2,0.1,0.3,0.1,0.4c0,0.1,0,0.1,0,0.2
		c0,0,0,0,0,0.1v0.1c0,0,0,0.1,0.1,0.2c0,0.1,0.1,0.1,0.1,0.2c0,0.1,0,0.2,0.1,0.2c0,0.2,0,0.4,0.2,0.5v0.1c0,0,0,0.1,0.1,0.1
		c0,0.1,0,0.2,0,0.3l0.1,0.1c0,0,0,0.1,0,0.2c0,0.1,0,0.1,0,0.2l0.1,0.1v0.1c0,0.2,0.1,0.3,0.1,0.3c0,0.2,0,0.3,0.1,0.4
		c0,0.1,0,0.2,0.1,0.4c0,0.1,0,0.1,0,0.2c0,0.1,0,0.1,0,0.2c0.1,0.1,0.1,0.1,0.1,0.1s0,0,0,0.1v0.1c0,0,0,0.1,0.1,0.1l0.1,0.1
		c0,0,0,0,0,0.1s0,0.1,0,0.1s0,0,0,0.1l0,0c0,0,0,0,0,0.1v0.1c0.1,0,0.1,0.1,0.1,0.1s0.1,0.1,0.1,0.2c0.1,0.1,0.1,0.2,0.2,0.2V46
		c0,0.1,0,0.1,0,0.1c0.1,0.1,0.2,0.1,0.2,0.2v0.1c-0.1,0.1-0.1,0.1,0,0.2c0,0,0,0,0.1,0.1s0.1,0,0.1,0.1s0,0.1-0.1,0.1
		c0.1,0.1,0,0.2,0,0.2v0.1v0.1c0.1,0,0.1,0.1,0.1,0.1c0,0.1-0.1,0.1-0.2,0.1l0,0l0,0c0,0-0.1,0.1-0.3,0.2c-0.1,0.1-0.2,0.2-0.2,0.2
		s0,0,0,0.1c-0.1,0-0.1,0-0.2,0c0,0,0,0.1-0.1,0.1c0,0.1-0.1,0.1-0.1,0c0,0,0,0,0-0.1s0,0,0-0.1c0,0-0.1,0-0.2,0.1s-0.1,0-0.2,0.1
		h-0.2c0,0-0.1,0-0.1-0.1c-0.1,0-0.1,0-0.2,0s-0.1,0-0.2,0c0-0.1-0.1-0.1-0.1-0.1l0,0c0,0,0,0-0.1,0c0,0,0,0,0-0.1l0,0
		c0,0,0,0-0.1,0c-0.2-0.2-0.3-0.4-0.4-0.4h-0.1c-0.1,0-0.1-0.1-0.2-0.2c0.1-0.1,0.1-0.1,0.1-0.1c0-0.1,0-0.2-0.1-0.3
		c0-0.1,0-0.2-0.1-0.3s-0.1-0.2-0.1-0.3c0,0,0-0.1-0.1-0.1c0,0,0,0,0-0.1c0,0,0,0,0-0.1c-0.1-0.1-0.1-0.2-0.2-0.3
		c-0.1-0.2-0.1-0.3-0.2-0.3c0-0.2,0-0.4-0.1-0.4c0-0.1,0-0.2-0.1-0.3c0-0.1,0-0.1-0.1-0.1c0,0,0-0.1,0-0.2c0-0.1,0-0.2-0.1-0.2h-0.1
		V44c0-0.1,0-0.1-0.1-0.2c0-0.1-0.1-0.1-0.1-0.2v-0.1v-0.1c0,0,0-0.1-0.1-0.1c0-0.1-0.1-0.1-0.1-0.1c0-0.1,0-0.1,0-0.1s0,0,0-0.1
		v-0.1v-0.1c0-0.1,0-0.1,0-0.1v-0.1c0-0.1,0-0.1,0-0.2c-0.1,0-0.1-0.1-0.1-0.1c0-0.1,0-0.2-0.1-0.3c0-0.1,0-0.2-0.2-0.3
		c0-0.1,0-0.1-0.1-0.3c-0.1-0.1,0-0.2,0.1-0.2c0-0.1,0-0.2,0-0.2c0-0.1-0.1-0.1-0.1,0h-0.1v-0.1c0,0,0-0.2-0.1-0.4
		c-0.1-0.1-0.1-0.2-0.1-0.3c0,0,0-0.1-0.1-0.2v-0.1c0-0.1,0-0.1,0-0.2c0-0.1,0-0.2,0.1-0.2l-0.1-0.1v-0.1c0-0.2,0-0.3,0-0.3
		s0,0-0.1,0c0,0,0,0-0.1,0c0,0,0-0.1,0-0.2c0-0.1,0-0.2,0-0.3l-0.1-0.1c0-0.1,0-0.1,0-0.1s0-0.1,0-0.2c0-0.1,0-0.1,0-0.2H82h-0.1
		c0-0.1,0-0.1,0.1-0.1l0,0c0,0,0-0.1,0-0.2c0-0.1,0-0.2,0-0.2c0-0.1,0-0.1,0-0.1v-0.1c0,0,0-0.1-0.1-0.1c0,0,0-0.1,0-0.2
		c0-0.1,0-0.1,0-0.2l-0.1-0.1v-0.1v-0.1v-0.1c0-0.1-0.1-0.1-0.2-0.3c-0.1,0.1-0.2,0.2-0.2,0.4c-0.1,0.1-0.1,0.1-0.1,0.2
		c0,0.1,0,0.1,0,0.1s0,0.1-0.1,0.1c0,0.1-0.1,0.1-0.1,0.1C81,36.9,81,37,81,37.2c0,0.1,0,0.3-0.1,0.3c0,0.1,0,0.2,0,0.4l0.1,0.2
		c-0.1,0.1-0.1,0.1-0.1,0.1c0,0.1,0,0.1,0,0.2c-0.1,0.4-0.1,0.6,0,0.7l-0.1,0.1c0,0,0,0.1,0,0.2c0,0.1,0,0.2,0,0.2s0,0.1-0.1,0.2
		c0,0.1,0,0.2,0,0.2v0.1v0.1v0.1c0,0.3-0.1,0.5-0.1,0.5c0,0.1,0,0.4,0,0.7s0,0.6,0,0.7s0,0.2,0.1,0.3c-0.1,0-0.2,0.1-0.3,0.2
		c-0.1,0.1-0.2,0.2-0.2,0.2V43l0,0c0,0,0,0-0.1,0c0,0,0,0-0.1,0s-0.1,0-0.1,0.1s-0.1,0.1-0.1,0.2c-0.1,0-0.2,0-0.4,0
		c0,0,0,0-0.1,0.1c0,0,0,0.1-0.1,0.1s-0.1-0.1-0.2-0.2c-0.1,0-0.1,0-0.2,0s-0.2,0-0.2,0c-0.1-0.2-0.2-0.3-0.4-0.3
		C78,42.9,78,42.9,78,42.8c0-0.1-0.1-0.1-0.2-0.2c-0.1-0.1-0.2-0.1-0.2-0.1l-0.3-0.3c0-0.1,0-0.2-0.1-0.3s-0.1-0.2-0.1-0.3
		c0,0-0.1,0-0.1-0.1c0,0,0,0,0-0.1v-0.1c0,0-0.1-0.1-0.1-0.2c-0.1-0.1-0.1-0.2-0.2-0.2v-0.1c0,0-0.1-0.1-0.2-0.2s-0.2-0.2-0.2-0.3
		c-0.1,0-0.1-0.1-0.2-0.2c-0.1-0.1-0.2-0.2-0.2-0.2s-0.1,0-0.1-0.1s-0.1-0.2-0.1-0.2c0-0.1,0-0.1-0.1-0.2c-0.1,0-0.1,0-0.1,0
		c-0.1-0.2-0.2-0.4-0.3-0.4c-0.1-0.2-0.2-0.3-0.4-0.4c0,0,0,0,0-0.1c0,0,0,0,0-0.1l-0.2-0.2c-0.1-0.1-0.1-0.1-0.1-0.1L74.4,38
		l-0.1-0.1l-0.1-0.1c0-0.1-0.1-0.3-0.2-0.4c-0.1-0.1-0.1-0.1-0.1-0.1s-0.1,0-0.1-0.1s-0.1-0.1-0.1-0.1l-0.1,0.1c0,0.1,0,0.3,0,0.6
		v0.1c0,0.1,0,0.1,0,0.1v0.1c0,0.1,0,0.3,0,0.4c0,0.2,0,0.3,0,0.3c0,0.1,0,0.2,0,0.3s0,0.3,0,0.3c0,0.1,0,0.2,0.1,0.2c0,0,0,0,0,0.1
		c0,0,0,0,0,0.1s0,0.1,0,0.2c0,0.1,0,0.2,0,0.2c0.1,0,0.1,0,0.1,0h0.1c0,0.1,0,0.1-0.1,0.2c-0.1,0.1-0.1,0.1-0.1,0.2c0,0,0,0,0,0.1
		c0,0,0,0,0.1,0.1c0,0.1-0.1,0.1-0.1,0.1c0,0.1,0,0.3,0,0.5c0,0.3,0,0.4,0,0.5s0.1,0.2,0.2,0.2l-0.1,0.1c0,0,0,0,0,0.1s0,0,0,0.1
		v0.1c0,0.1,0,0.1,0,0.1s0,0,0,0.1v0.1c-0.1,0.1-0.1,0.1-0.1,0.1V43c0,0.1,0,0.1,0,0.2c0,0.1,0,0.2,0.1,0.2v0.2v0.1v0.1v0.1
		c-0.1,0-0.1,0-0.1,0.1s0,0.1,0.1,0.2c0,0.2,0,0.5,0,0.7s0,0.5,0,0.7c0,0.3,0,0.5,0,0.7v0.1c0,0,0,0.1,0.1,0.1
		c0,0.1,0.1,0.1,0.1,0.1c0,0.1,0,0.2,0,0.3c0,0.2,0,0.3,0,0.3c0,0.1,0.1,0.1,0.2,0.1c-0.1,0.1-0.2,0.1-0.2,0.2
		c0,0.1,0.1,0.1,0.2,0.1c0,0,0,0,0,0.1s-0.1,0-0.1,0.1l0.1,0.1c0.1,0.2,0.1,0.3,0,0.4v0.1c0,0,0,0,0,0.1c0,0,0,0,0,0.1l0.1,0.1v0.1
		c0,0,0,0.1-0.1,0.2c-0.1,0.1-0.1,0.1,0,0.2c-0.1,0.1-0.2,0.2-0.2,0.3l-0.1,0.1c0,0.1-0.1,0.1-0.1,0.1s0-0.1-0.1-0.1
		c0,0,0-0.1-0.1-0.1s-0.1,0.1-0.2,0.3c0,0.1-0.1,0.1-0.1,0.1s-0.1,0-0.2,0c0,0,0,0,0,0.1s0,0.1,0,0.1c-0.1,0-0.2,0-0.2-0.1
		c-0.1-0.1-0.1-0.1-0.2-0.2c0,0,0,0,0,0.1c-0.1,0-0.2,0-0.2,0c-0.1-0.1-0.1-0.1-0.2-0.1c-0.1-0.2-0.2-0.2-0.3-0.1
		c0,0-0.1-0.1-0.2-0.1c0-0.2-0.1-0.4-0.4-0.5v-0.2c-0.1,0-0.1-0.1-0.1-0.2c0-0.1-0.1-0.2-0.2-0.2c0.1-0.2,0.1-0.4,0-0.5
		c0.1-0.1,0.1-0.2,0-0.4c0-0.1,0-0.1,0-0.2c-0.1,0-0.1-0.1-0.1-0.2h0.1c0.1-0.1,0.1-0.2,0-0.3c0-0.1,0-0.1,0-0.2c0,0,0-0.1,0-0.2
		s0-0.2,0-0.2c0-0.1,0-0.1,0-0.1s0,0,0-0.1V46v-0.1L71,45.8c0,0,0-0.2,0-0.4s0-0.4,0-0.5s0-0.2,0.1-0.2C71,44.5,71,44.3,71,44
		l0.1-0.1v-0.1v-0.1c0-0.1,0-0.1-0.1-0.2c0,0,0-0.1,0-0.2s0-0.2,0-0.2c0-0.1-0.1-0.1-0.2-0.2c0,0,0-0.1,0.1-0.1l0.1-0.1
		c0-0.1,0-0.3,0-0.5s0-0.4,0-0.6c-0.1-0.1-0.1-0.1,0-0.2c0-0.1,0-0.1,0-0.2c0-0.1,0-0.1,0-0.2c0,0,0-0.1,0-0.2c0-0.1,0-0.2,0-0.2
		s0-0.1-0.1-0.1l-0.1-0.1c0-0.1,0-0.2,0-0.3c-0.1-0.1-0.1-0.3,0-0.5v-0.1v-0.1v-0.1c0,0,0-0.1,0-0.3s0-0.3-0.1-0.3c0,0,0,0,0-0.1
		c0,0,0,0,0-0.1c-0.1-0.1-0.1-0.1-0.1-0.2c0,0,0,0,0.1-0.1c0,0,0.1,0,0.1-0.1c0,0,0-0.1-0.1-0.1c0-0.5,0-0.8,0-0.8h-0.1l0,0
		c0-0.1,0-0.1,0.1-0.2c-0.1-0.1-0.1-0.2-0.1-0.4s0-0.4-0.1-0.5c-0.1,0-0.1,0-0.1,0c0.1-0.1,0.1-0.2,0.1-0.2c0-0.1-0.1-0.1-0.2-0.3
		c0.1-0.1,0.1-0.2,0.1-0.3c0-0.2,0-0.3,0.1-0.4c-0.1-0.1-0.1-0.2-0.1-0.4c-0.1-0.1-0.2-0.3-0.1-0.5c-0.1-0.1-0.1-0.3,0-0.4
		c-0.1-0.1-0.1-0.2-0.1-0.2v-0.1v-0.1v-0.1V33c0,0,0-0.1,0.1-0.1c0-0.2,0.1-0.4,0.3-0.6l0.1-0.1c0.1,0,0.1-0.1,0.1-0.1
		c0.1-0.1,0.1-0.1,0-0.2v-0.1c0,0,0-0.1,0-0.2s0-0.1,0-0.2c0,0-0.1-0.1-0.3-0.1c0-0.1,0-0.1,0.1-0.2c0-0.1,0-0.2,0-0.5
		c0-0.2,0-0.4,0-0.4s0.1,0,0.2,0s0.2,0,0.2-0.1s0-0.1,0-0.1c0-0.1-0.1-0.1-0.1-0.1l0.1-0.1c0.1,0,0.1-0.1,0.1-0.1
		c0.3,0,0.4,0,0.4-0.1c0.1,0,0.2,0,0.3-0.1h0.1H72c0.1,0,0.1,0,0.1,0c0.1,0,0.1,0,0.2,0.1s0.1,0.1,0.2,0.1c0,0,0,0,0.1,0
		c0,0,0,0,0.1,0h0.1c0.1,0,0.1,0,0.2,0c0.1,0.1,0.2,0.2,0.4,0.3c0,0,0,0.1,0.1,0.1v0.1c0.1,0,0.1,0,0.1,0.1l0.1,0.1l0.1,0.2
		c0,0.1,0,0.2,0.1,0.4c0,0.1,0,0.1,0.1,0.1c0,0,0,0,0.1,0.1v0.1v0.1c0,0,0,0,0,0.1c0,0,0,0,0,0.1v0.1c0,0,0.1,0,0.1,0.1
		s0.1,0.1,0.1,0.1c0,0.1,0,0.2,0.1,0.3v0.1c0.3,0.4,0.4,0.7,0.5,0.8c0.1,0,0.1,0,0.2,0.1v0.1c0,0.1,0.1,0.1,0.2,0.2
		c0,0.1,0,0.1,0.1,0.2c0,0,0.1,0.1,0.2,0.2c0,0,0,0.1,0,0.2l0.1,0.1c0.1,0.1,0.1,0.1,0.1,0.1l0.1,0.1c0,0,0.1,0.1,0.1,0.2
		c0.1,0.1,0.1,0.1,0.1,0.1v0.1c0.2,0.2,0.4,0.3,0.5,0.4v0.1v0.1c0.1,0,0.1,0.1,0.2,0.3c0,0,0,0,0.1,0c0,0,0,0,0.1,0v0.1l0.1,0.1
		l0.1,0.1v0.1c0,0,0.1,0.1,0.2,0.2c0,0,0,0,0,0.1s0,0,0,0.1c0.1,0,0.1,0.1,0.2,0.1c0.1,0.1,0.1,0.2,0.1,0.3C77.9,37,78,37,78,37
		c0,0.1,0,0.1,0,0.1s0.1,0.1,0.2,0.2c0.1,0.1,0.1,0.2,0.2,0.2c0,0,0.1,0,0.1,0.1c0.1,0.1,0.1,0.1,0.2,0.1c0.1-0.2,0.1-0.3,0.2-0.3
		c0-0.2,0-0.3,0-0.3V37v-0.1c0,0,0-0.1,0-0.3s0-0.3,0-0.3c0.1-0.1,0.2-0.2,0.2-0.3c-0.1-0.2-0.1-0.3,0.1-0.4
		c0.1-0.3,0.2-0.5,0.3-0.5c0-0.1,0.1-0.3,0.1-0.6c0.1-0.1,0.1-0.2,0.2-0.2c0,0,0-0.1,0-0.2c0.1,0,0.1-0.1,0.1-0.2
		c0-0.1,0.1-0.2,0.1-0.2c0-0.1,0-0.1,0-0.2c0-0.1,0-0.1,0-0.1s0,0-0.1,0h-0.1h0.1c0.1,0,0.1-0.2,0.1-0.5c0.1-0.1,0.1-0.2,0.1-0.2
		c0.1,0,0.1-0.1,0.2-0.1c0-0.2,0-0.3,0-0.3c0.1-0.1,0.1-0.1,0.1-0.2c0.1,0,0.2-0.1,0.2-0.2v-0.1v-0.1v-0.1c0,0,0,0,0-0.1s0,0,0-0.1
		s0-0.1,0-0.2V31c0.1-0.1,0.1-0.1,0.1-0.3c0-0.1,0-0.2-0.1-0.2c0.1-0.1,0.1-0.3,0.1-0.6c0-0.1,0.1-0.2,0.3-0.3
		c0.1,0,0.1-0.1,0.1-0.1c0-0.1,0-0.2,0-0.2s0,0,0.1,0s0.1,0,0.1,0s0,0,0.1-0.1c0.1,0,0.2,0,0.3-0.1c0.1,0,0.1,0,0.2-0.1
		c0.1,0,0.1-0.1,0.2-0.1h0.1c0.1,0,0.1,0.1,0.1,0.1c0.1,0,0.1,0,0.1,0h0.1c0,0,0.1,0,0.1,0.1c0,0,0,0,0,0.1h0.1h0.1
		c0.1,0,0.1,0.1,0.2,0.2C82.6,29.6,82.7,29.7,82.8,29.7z M70.3,41.9L70.3,41.9L70.3,41.9C70.4,42,70.3,42,70.3,41.9L70.3,41.9z
		 M70.3,41.9L70.3,41.9L70.3,41.9L70.3,41.9C70.4,42,70.3,42,70.3,41.9z M80.1,31.4C80,31.4,80,31.4,80.1,31.4c0-0.1,0-0.1,0-0.1
		S80.1,31.3,80.1,31.4L80.1,31.4z M80.1,31.3L80.1,31.3c0,0.1,0,0.1,0,0.1C80,31.4,80,31.4,80.1,31.3C80,31.3,80,31.3,80.1,31.3z"/>
	<path fill="#54813B" d="M45.6,56.4c0.1-0.1,0.2-0.1,0.2-0.1v0.1l0,0c0.2,0,0.3,0,0.5,0.2s0.3,0.3,0.4,0.3c0,0.1,0.1,0.2,0.2,0.4
		c0.1,0.1,0.2,0.3,0.2,0.4c0,0,0.1,0,0.2,0c0,0.1,0,0.1-0.1,0.1s-0.1,0.1-0.1,0.1V58v0.1c0,0.1,0,0.2-0.1,0.3s-0.1,0.2-0.1,0.3
		c-0.1,0-0.1,0-0.2,0c0,0,0,0.1,0,0.2c0,0.1-0.1,0.1-0.2,0.1l-0.1,0.2c0,0-0.1,0-0.2,0.1h-0.1L46,59.4c-0.1,0-0.1,0-0.1,0l0,0
		c0,0,0,0-0.1,0c0,0,0,0-0.1,0s-0.2,0-0.3,0.1c-0.1,0-0.2-0.1-0.4-0.2c-0.1,0-0.2,0-0.3-0.1s-0.2-0.1-0.2-0.1h-0.1h-0.1
		c-0.1,0-0.2,0-0.4,0s-0.3,0-0.4,0.1c-0.1-0.1-0.3-0.1-0.5,0c0,0,0,0-0.1,0c0,0,0,0-0.1,0h-0.1h-0.1c0,0-0.1,0-0.4,0
		c-0.2,0-0.3,0-0.3,0.1v0.1c0,0.1,0,0.1,0,0.1s0,0,0,0.1s0,0.1,0,0.1s0,0.1,0.1,0.1c0,0.1,0.1,0.1,0.1,0.2c0,0,0,0.1,0,0.2
		c0,0.1,0,0.2,0,0.2c0,0.1,0,0.2,0,0.2c0,0.1,0.1,0.1,0.2,0.1c0,0.1,0,0.1-0.1,0.2c0,0.1,0,0.1,0,0.2c0,0.1,0,0.2,0,0.2
		s0,0.1,0.1,0.1l0.1,0.1c0,0.1,0,0.2,0,0.4s0,0.4,0,0.4c0.1,0.1,0.1,0.1,0.1,0.2c0,0.1,0,0.2,0,0.2v0.1c0,0.1,0,0.1,0,0.2
		c0,0.3,0,0.5,0.1,0.5v0.1v0.1c0,0,0,0,0.1,0.1c0,0,0.1,0,0.1,0.1s0,0-0.1,0h-0.1c0,0.1,0.1,0.1,0.2,0.2v0.1v0.1c0,0,0,0.1,0,0.2
		s0,0.2,0,0.2c0,0.1,0,0.1,0,0.1s0,0,0,0.1s0,0.1,0,0.1c0,0.1,0,0.1,0,0.1c0,0.1,0,0.1,0,0.1v0.1v0.1c0,0.1,0,0.1,0,0.1
		c0.1,0.1,0.1,0.2,0,0.3c0,0.1,0,0.2,0,0.2s0.1,0,0.1,0.1v0.1c0,0,0,0.1-0.1,0.1c0,0.1-0.1,0.1-0.1,0.1l0.1,0.1c0,0,0,0.1,0.1,0.1
		c0,0,0,0,0,0.1s0,0.2,0,0.3s0,0.3,0,0.4s0,0.1,0,0.1s0,0,0,0.1v0.1c0,0,0,0.1,0,0.3c0,0.1,0,0.2,0,0.4c0,0,0,0.1,0,0.2s0,0.2,0,0.3
		L43,69c0,0.1,0,0.1,0,0.2s0,0.1,0,0.1s0,0.1,0.1,0.1c0,0.1,0.1,0.1,0.1,0.2s0,0.1,0,0.2s0,0.2,0,0.2s0,0.1,0.1,0.2
		c0,0.1,0,0.1,0,0.1s0,0.1,0,0.3c0,0.2,0,0.2,0,0.3c0,0,0,0.1,0,0.2s0,0.1,0,0.2s0,0.1,0,0.1s0,0,0,0.1c0,0,0,0,0.1,0
		c0,0.1,0,0.1,0,0.2s0,0.1,0,0.2V72v0.1v0.1c0,0.1,0,0.2,0.1,0.2c0,0.1,0.1,0.2,0.2,0.3c0.1,0,0.3,0,0.4,0c0.2,0,0.3,0,0.4,0h0.1
		l0.1-0.1c0.2,0,0.3,0,0.4,0.1h0.1h0.1h0.1c0.1,0,0.1,0,0.1,0h0.1c0.1,0,0.1,0,0.1,0c0.1,0.1,0.2,0.1,0.5,0h0.1c0.1,0,0.1,0,0.1,0
		L47,73h0.1c0.1,0,0.1,0,0.1,0c0-0.1,0-0.1,0-0.1h0.2c0,0,0,0,0,0.1v0.1c0.1,0,0.1,0,0.2-0.1c0.1-0.1,0.1-0.1,0.2,0l0,0
		c0.4,0.1,0.8,0.1,1.2,0.1h0.1c0.3,0.1,0.5,0.1,0.6,0l0.1,0.1c0.1,0,0.1,0.1,0.1,0.1c0.1,0,0.2,0,0.3,0c0,0.1,0,0.2,0.1,0.2
		c0.1,0.1,0.1,0.2,0.1,0.3h0.1h0.1c0,0.1,0,0.1,0,0.2c0.2,0.2,0.3,0.4,0.2,0.5v0.1v0.1c0,0.1,0.1,0.1,0.1,0.1c0,0.1-0.1,0.1-0.2,0.1
		c0,0.1,0,0.2-0.1,0.3c-0.1,0.1-0.1,0.2-0.1,0.3c0,0-0.1,0-0.1,0.1l-0.1,0.1v0.1c-0.2,0-0.4,0.1-0.4,0.1V76c-0.1,0-0.1,0-0.2,0
		c-0.1,0-0.2,0.1-0.2,0.2h-0.1c0-0.2-0.1-0.2-0.3-0.2c0,0-0.1,0-0.1,0.1h-0.1c-0.1,0-0.1-0.1-0.2-0.1c-0.1,0-0.1,0-0.2,0.1
		c-0.1,0-0.3,0-0.6,0s-0.5,0-0.6,0c0-0.1-0.1-0.2-0.1-0.2s0,0.1-0.1,0.1c0,0,0,0.1-0.1,0.1c0,0-0.1,0-0.3,0s-0.3,0-0.3,0L46.2,76
		c0,0,0,0-0.1,0c0,0,0,0.1-0.1,0.1c0,0-0.1-0.1-0.2-0.1c-0.1,0-0.2-0.1-0.2-0.1c-0.2,0-0.3,0-0.3,0c-0.1,0-0.1,0.1-0.1,0.2
		c0,0-0.1,0-0.2,0c-0.1,0-0.2,0-0.2,0s0,0-0.1-0.1c0,0,0,0-0.1-0.1c-0.1,0-0.1,0-0.2,0.1c-0.1,0-0.1,0.1-0.2,0.1
		c0.6-0.1,0.5-0.1,0.5-0.1c-0.1,0-0.1,0.1-0.1,0.2c-0.1,0-0.1,0-0.2-0.1c-0.1,0-0.1,0-0.2,0c-0.2,0-0.4,0-0.4,0.1c0,0-0.1,0-0.1-0.1
		c-0.2,0.1-0.3,0.2-0.4,0.2c-0.1,0-0.2,0-0.2,0c-0.1-0.1-0.2-0.1-0.5-0.1c-0.1,0-0.1,0-0.2,0c0,0,0,0-0.1,0v0.1c-0.1,0-0.2,0-0.4,0
		s-0.3,0-0.3,0.1c0,0-0.1,0-0.2,0c0,0,0,0-0.1,0c0,0,0,0-0.1,0h-0.1c-0.1,0-0.2,0.1-0.3,0.2c0,0-0.1,0-0.3,0c-0.1,0-0.3,0-0.3,0
		c-0.1,0-0.1,0-0.1,0s0,0-0.1,0v0.1c-0.1,0-0.1,0-0.1-0.1v-0.1c-0.1,0-0.1,0-0.1,0.1l0,0h-0.1h-0.1c-0.1,0-0.1,0.1-0.2,0.2
		c-0.3,0.1-0.5,0-0.5-0.1c-0.1,0-0.2,0.1-0.3,0.1c0,0.1,0,0.1,0,0.1s-0.1,0-0.2,0h-0.1c0,0-0.1,0-0.1-0.1c-0.2,0-0.4,0-0.7,0.1
		C37.3,77,37.1,77,37,77c0,0.1,0,0.1,0,0.1c-0.1,0-0.1,0-0.2,0c-0.1,0-0.1,0-0.1,0s0,0,0-0.1v-0.1l0,0l0,0h-0.1h-0.1c0,0,0,0-0.1,0
		h-0.1c0,0-0.1,0-0.2,0c-0.1,0-0.2,0-0.3,0s-0.1,0-0.1,0c-0.1,0-0.2,0-0.3,0s-0.3,0-0.3,0H35h-0.1h-0.1c-0.1,0-0.3,0-0.5,0
		c0,0,0,0,0,0.1v0.1l0,0c0,0,0,0,0-0.1h-0.1c-0.1,0-0.2,0-0.2-0.1c0,0-0.1,0-0.2,0c-0.1-0.2-0.1-0.3-0.3-0.3c0,0.1,0,0.1,0,0.1
		c-0.1,0-0.1,0-0.2,0c0-0.1-0.1-0.2-0.2-0.4c-0.2-0.1-0.2-0.2-0.2-0.2s0-0.1,0-0.2s0-0.1,0-0.2c-0.1-0.3-0.1-0.4,0-0.5
		c0,0,0.1-0.1,0.1-0.2s0-0.2,0-0.2h0.1h0.1c0.2-0.2,0.4-0.4,0.6-0.5c0.6,0,1.3,0,2,0c0.1-0.1,0.1-0.1,0.2-0.1c0.1,0,0.1,0,0.2,0.1
		c0.1,0,0.1,0,0.2,0c0.1,0,0.1-0.1,0.1-0.1c0.1,0,0.1,0,0.2,0.1c0.1,0,0.1,0,0.2,0c0,0,0.1,0,0.1-0.1c0.1,0,0.1-0.1,0.1-0.1
		s0.1,0,0.1,0.1l0.1,0.1c0,0,0.1,0,0.2-0.1h0.1c0.1-0.1,0.2-0.2,0.5-0.2c0,0,0.2-0.1,0.4-0.1h0.1c0.1,0,0.1,0,0.2,0
		c0.1,0,0.1,0,0.2,0h0.1c0,0,0.1,0,0.1-0.1h0.1c0.1,0,0.1,0,0.1,0s0-0.1,0.1-0.1s0.2,0,0.3,0c0.2,0,0.3,0,0.3-0.1c0,0,0,0,0-0.1
		c0,0,0,0,0-0.1c0.1,0,0.3,0,0.8,0c0.1-0.1,0.1-0.2,0-0.4c0-0.3,0-0.6-0.1-0.7c0.1,0,0.1-0.1,0-0.2c0-0.1,0-0.1,0-0.2s0-0.1,0-0.1
		s0,0,0-0.1v-0.1v-0.1c0-0.1,0-0.1,0-0.1c-0.2-0.1-0.2-0.3-0.1-0.5c0-0.1,0-0.3,0-0.6c0-0.3,0-0.4,0-0.6c0,0-0.1,0-0.1-0.1
		c0,0,0,0-0.1,0c0,0,0,0,0-0.1v-0.1c0.1,0,0.1-0.1,0.1-0.1c0-0.1,0-0.1-0.1-0.1c0-0.1,0-0.2,0-0.4c0-0.2,0-0.3,0-0.3
		c0-0.1,0-0.1,0-0.2s0-0.1,0-0.2s0-0.1,0-0.1c0-0.1,0-0.1,0-0.1s0-0.1,0-0.2s0-0.2,0-0.2s0,0-0.1,0c0-0.1,0-0.2,0-0.3
		c0-0.1,0-0.2,0-0.5s0-0.5,0-0.6V66c0,0,0,0,0-0.1c0,0,0,0,0-0.1s0-0.1,0-0.1v-0.1c0-0.1,0-0.1,0-0.1s0,0,0.1-0.1c0,0,0.1,0,0.1-0.1
		c0,0-0.1-0.1-0.2-0.4c-0.2,0-0.2-0.2-0.1-0.5c0.1,0,0.1,0,0.1,0l0,0c0,0,0,0-0.1,0l0,0c0,0,0-0.1,0-0.2c0,0,0,0,0.1,0
		c0-0.1,0-0.2,0-0.3c0-0.2,0-0.3-0.1-0.4c0-0.1-0.1-0.2-0.2-0.2v-0.2h0.1c0,0,0-0.1,0-0.2c0-0.1,0-0.3,0-0.4c0-0.2,0-0.3-0.1-0.3
		c0,0,0,0,0-0.1s0-0.1,0-0.1s0,0,0-0.1s0-0.1,0-0.1c0-0.1,0.1-0.1,0.1-0.1c0-0.1,0-0.2,0-0.2s-0.1-0.2-0.1-0.4V61c0,0,0,0,0-0.1
		s0,0,0,0s0,0,0-0.1c0,0,0-0.1-0.1-0.1l-0.1-0.1v-0.1c0-0.1,0-0.1,0-0.1c0-0.1,0-0.2-0.1-0.3c0-0.1,0-0.2-0.1-0.3s-0.1-0.2-0.1-0.3
		c-0.1,0-0.1,0-0.1,0v0.1c0-0.1-0.1-0.1-0.3,0v-0.1v-0.1c-0.1,0-0.1,0-0.2,0v0.1v0.1h-0.1h-0.1h-0.1c-0.1,0-0.1,0-0.2,0
		c0,0,0,0-0.1,0c0,0,0,0-0.1,0C38,59.8,38,59.8,38,60c-0.1,0-0.1,0-0.1,0v-0.1c-0.1-0.1-0.1-0.1-0.2,0V60l0,0h-0.1h-0.1
		c-0.1,0-0.2,0-0.4,0s-0.3,0-0.4,0c-0.2,0-0.3,0-0.4,0c-0.1-0.1-0.2-0.1-0.2,0c-0.1,0-0.2,0-0.3,0s-0.2,0-0.2,0c-0.1,0-0.2,0-0.4,0
		s-0.3,0-0.4,0c0,0,0,0-0.1,0c0,0,0,0,0,0.1l0,0V60c0,0.1-0.1,0.1-0.1,0.1c-0.1,0-0.1-0.1-0.2-0.1h-0.1l-0.1-0.1l-0.1-0.1
		c-0.2,0.1-0.4,0-0.5-0.2c-0.1,0-0.1-0.1-0.2-0.2c-0.1-0.1-0.2-0.2-0.2-0.2c-0.1,0-0.2,0-0.2-0.1c-0.1-0.1-0.1-0.1-0.1-0.2
		c-0.2-0.2-0.3-0.3-0.4-0.4c0-0.1,0-0.2-0.1-0.3c0,0,0-0.1,0.1-0.2c0-0.2,0.2-0.4,0.4-0.7c0.1,0,0.2-0.1,0.2-0.2h0.1h0.1
		c0,0,0.1,0,0.1-0.1l0.1-0.1c0,0,0.1,0,0.2,0c0.1,0,0.2,0,0.3,0l0.1-0.1l0.1-0.1c0.1,0,0.1,0,0.2,0.1c0.1,0.1,0.2,0.1,0.2,0.1h0.1
		c0.1,0,0.1,0,0.1,0c0.1,0,0.3,0,0.4,0c0.2,0,0.4,0,0.5,0s0.2,0,0.3-0.1c0.2,0.1,0.3,0.1,0.4,0h0.1h0.1h0.1c0,0,0,0,0-0.1
		c0.1,0,0.2,0,0.4,0s0.3,0,0.3-0.1c0.2,0.1,0.3,0.1,0.5,0v-0.1H38c0.1,0,0.3,0,0.5,0s0.3,0,0.5,0c0.1,0,0.2-0.1,0.2-0.2
		c0.1,0,0.1,0,0.2,0.1h0.1c0.6,0,1,0,1.2-0.1c0.1,0,0.1,0,0.2,0c0,0,0,0,0.1,0c0,0,0,0,0.1,0c0.1-0.1,0.2-0.1,0.4-0.1s0.3,0,0.4,0
		c0.1-0.1,0.1-0.1,0.1-0.1h0.3h0.1c0.1,0,0.1,0,0.1,0c0.1,0,0.1,0,0.2,0c0.3,0,0.5,0,0.5-0.1l0.2,0.1c0.2-0.2,0.4-0.2,0.5,0
		c0,0,0.1,0,0.3,0c0.1,0,0.2,0,0.3,0s0.1-0.1,0.1-0.1h0.1c0.1,0,0.1,0,0.1,0c0.1,0,0.2,0,0.3,0C45.4,56.4,45.5,56.4,45.6,56.4z
		 M45.8,56.3C45.9,56.3,45.9,56.4,45.8,56.3C45.8,56.4,45.8,56.4,45.8,56.3c0.2,0.1,0.3,0.1,0.5,0.3s0.3,0.3,0.4,0.3
		c0,0.1,0.1,0.2,0.2,0.4c0.1,0.1,0.2,0.3,0.2,0.4c0,0,0.1,0,0.2,0c0,0.1,0,0.1-0.1,0.1s-0.1,0.1-0.1,0.1V58v0.1c0,0.1,0,0.2-0.1,0.3
		s-0.1,0.2-0.1,0.3c-0.1,0-0.1,0-0.2,0c0,0,0,0.1,0,0.2c0,0.1-0.1,0.1-0.2,0.1l-0.1,0.2c0,0-0.1,0-0.2,0.1h-0.1L46,59.4
		c-0.1,0-0.1,0-0.1,0l0,0c0,0,0,0-0.1,0c0,0,0,0-0.1,0s-0.2,0-0.3,0.1c-0.1,0-0.2-0.1-0.4-0.2c-0.1,0-0.2,0-0.3-0.1
		s-0.2-0.1-0.2-0.1h-0.1h-0.1c-0.1,0-0.2,0-0.4,0s-0.3,0-0.4,0.1c-0.1-0.1-0.3-0.1-0.5,0c0,0,0,0-0.1,0c0,0,0,0-0.1,0h-0.1h-0.1
		c0,0-0.1,0-0.4,0c-0.2,0-0.3,0-0.3,0.1v0.1c0,0.1,0,0.1,0,0.1s0,0,0,0.1s0,0.1,0,0.1s0,0.1,0.1,0.1c0,0.1,0.1,0.1,0.1,0.2
		c0,0,0,0.1,0,0.2c0,0.1,0,0.2,0,0.2c0,0.1,0,0.2,0,0.2c0,0.1,0.1,0.1,0.2,0.1c0,0.1,0,0.1-0.1,0.2c0,0.1,0,0.1,0,0.2
		c0,0.1,0,0.2,0,0.2s0,0.1,0.1,0.1l0.1,0.1c0,0.1,0,0.2,0,0.4s0,0.3,0,0.4v0.1v0.1c0,0.1,0,0.2,0,0.2v0.1c0,0.1,0,0.1,0,0.2
		c0,0.3,0,0.5,0.1,0.5v0.1v0.1c0,0,0,0,0.1,0.1c0,0,0.1,0,0.1,0.1s0,0-0.1,0h-0.1l0,0c0,0,0.1,0.1,0.2,0.1v0.1v0.1c0,0,0,0.1,0,0.2
		s0,0.2,0,0.2c0,0.1,0,0.1,0,0.1s0,0,0,0.1s0,0.1,0,0.1c0,0.1,0,0.1,0,0.1c0,0.1,0,0.1,0,0.1v0.1v0.1c0,0.1,0,0.1,0,0.1
		c0.1,0.1,0.1,0.2,0,0.3c0,0.1,0,0.2,0,0.2s0.1,0,0.1,0.1v0.1c0,0,0,0.1-0.1,0.1c0,0.1-0.1,0.1-0.1,0.1l0.1,0.1c0,0,0,0.1,0.1,0.1
		c0,0,0,0,0,0.1s0,0.2,0,0.3s0,0.3,0,0.4s0,0.1,0,0.1s0,0,0,0.1v0.1c0,0,0,0.1,0,0.3c0,0.1,0,0.2,0,0.4c0,0,0,0.1,0,0.2s0,0.2,0,0.3
		l0.1,0.1c0,0.1,0,0.1,0,0.2s0,0.1,0,0.1s0,0.1,0.1,0.1c0,0.1,0.1,0.1,0.1,0.2s0,0.1,0,0.2s0,0.2,0,0.2s0,0.1,0.1,0.2
		c0,0.1,0,0.1,0,0.1s0,0.1,0,0.3c0,0.2,0,0.2,0,0.3c0,0,0,0.1,0,0.2s0,0.1,0,0.2s0,0.1,0,0.1s0,0,0,0.1c0,0,0,0,0.1,0
		c0,0.1,0,0.1,0,0.2s0,0.1,0,0.2v0.1V72v0.1c0,0.1,0,0.2,0.1,0.2c0,0.1,0.1,0.2,0.2,0.3c0.1,0,0.3,0,0.4,0c0.2,0,0.3,0,0.4,0h0.1
		l0.1-0.1c0.2,0,0.3,0,0.4,0.1h0.1h0.1h0.1c0.1,0,0.1,0,0.1,0h0.1c0.1,0,0.1,0,0.1,0c0.1,0.1,0.2,0.1,0.5,0h0.1c0.1,0,0.1,0,0.1,0
		L47,73h0.1c0.1,0,0.1,0,0.1,0v-0.1v-0.1h0.2c0,0,0,0,0,0.1V73c0.1,0,0.1,0,0.2-0.1c0.1-0.1,0.1-0.1,0.2,0V73
		c0.4,0.1,0.8,0.1,1.2,0.1h0.1c0.3,0.1,0.5,0.1,0.6,0l0.1,0.1c0.1,0,0.1,0.1,0.1,0.1c0.1,0,0.2,0,0.3,0c0,0.1,0,0.2,0.1,0.2
		c0.1,0.1,0.1,0.2,0.1,0.3h0.1h0.1c0,0.1,0,0.1,0,0.2c0.2,0.2,0.3,0.4,0.2,0.6v0.1v0.1c0,0.1,0.1,0.1,0.1,0.1c0,0.1-0.1,0.1-0.2,0.1
		c0,0.1,0,0.2-0.1,0.3c-0.1,0.1-0.1,0.2-0.1,0.3c0,0-0.1,0-0.1,0.1l-0.1,0.1v0.1c-0.2,0-0.4,0.1-0.4,0.1v0.1c-0.1,0-0.1,0-0.2,0
		c-0.1,0-0.2,0.1-0.2,0.2h-0.1c0-0.2-0.1-0.2-0.3-0.2c0,0-0.1,0-0.1,0.1h-0.1c-0.1,0-0.1-0.1-0.2-0.1c-0.1,0-0.1,0-0.2,0.1
		c-0.1,0-0.3,0-0.6,0s-0.5,0-0.6,0c0-0.1-0.1-0.1-0.1-0.1s0,0-0.1,0.1c0,0,0,0.1-0.1,0.1c0,0-0.1,0-0.3,0s-0.3,0-0.3,0l-0.2-0.1
		c0,0,0,0-0.1,0c0,0,0,0.1-0.1,0.1c0,0-0.1-0.1-0.2-0.1c-0.1,0-0.2-0.1-0.2-0.1c-0.2,0-0.3,0-0.3,0c-0.1,0-0.1,0.1-0.1,0.2
		c0,0-0.1,0-0.2,0c-0.1,0-0.2,0-0.2,0s0,0-0.1-0.1c0,0,0,0-0.1-0.1c-0.1,0-0.1,0-0.2,0.1c-0.1,0-0.1,0.1-0.2,0.1
		c0.6-0.3,0.5-0.3,0.5-0.3c-0.1,0-0.1,0.1-0.1,0.2c-0.1,0-0.1,0-0.2-0.1c-0.1,0-0.1,0-0.2,0c-0.2,0-0.4,0-0.4,0.1c0,0-0.1,0-0.1-0.1
		c-0.2,0.1-0.3,0.2-0.4,0.2c-0.1,0-0.2,0-0.2,0c-0.1-0.1-0.2-0.1-0.5-0.1c-0.1,0-0.1,0-0.2,0c0,0,0,0-0.1,0v0.1c-0.1,0-0.2,0-0.4,0
		s-0.3,0-0.3,0.1c0,0-0.1,0-0.2,0c0,0,0,0-0.1,0c0,0,0,0-0.1,0h-0.1c-0.1,0-0.2,0.1-0.3,0.2c0,0-0.1,0-0.3,0c-0.1,0-0.3,0-0.3,0
		c-0.1,0-0.1,0-0.1,0s0,0-0.1,0v0.1c-0.1,0-0.1,0-0.1-0.1v-0.1c-0.1,0-0.1,0-0.1,0.1l0,0h-0.1h-0.1c-0.1,0-0.1,0.1-0.2,0.2
		c-0.3,0.1-0.5,0-0.5-0.1c-0.1,0-0.2,0.1-0.3,0.1c0,0.1,0,0.1,0,0.1s-0.1,0-0.2,0h-0.1c0,0-0.1,0-0.1-0.1c-0.2,0-0.4,0-0.7,0.1
		C37.3,77,37.1,77,37,77c0,0.1,0,0.1,0,0.1c-0.1,0-0.1,0-0.2,0c-0.1,0-0.1,0-0.1,0s0,0,0-0.1v-0.1l0,0l0,0h-0.1h-0.1c0,0,0,0-0.1,0
		h-0.1c0,0-0.1,0-0.2,0c-0.1,0-0.2,0-0.3,0s-0.1,0-0.1,0c-0.1,0-0.2,0-0.3,0s-0.3,0-0.3,0H35h-0.1h-0.1c-0.1,0-0.3,0-0.5,0
		c0,0,0,0,0,0.1v0.1l0,0c0,0,0-0.1,0-0.2h-0.1c-0.1,0-0.2,0-0.2-0.1c0,0-0.1,0-0.2,0c-0.1-0.2-0.1-0.3-0.3-0.3c0,0.1,0,0.1,0,0.1
		c-0.1,0-0.1,0-0.2,0c0-0.1-0.1-0.2-0.2-0.4c-0.2-0.1-0.2-0.2-0.2-0.2s0-0.1,0-0.2s0-0.1,0-0.2c-0.1-0.3-0.1-0.4,0-0.5
		c0,0,0.1-0.1,0.1-0.2s0-0.2,0-0.2h0.1h0.1c0.2-0.2,0.4-0.4,0.6-0.5c0.6,0,1.3,0,2,0c0.1-0.1,0.1-0.1,0.2-0.1c0.1,0,0.1,0,0.2,0.1
		c0.1,0,0.1,0,0.2,0c0.1,0,0.1-0.1,0.1-0.1c0.1,0,0.1,0,0.2,0.1c0.1,0,0.1,0,0.2,0c0,0,0.1,0,0.1-0.1c0.1,0,0.1-0.1,0.1-0.1
		s0.1,0,0.1,0.1l0.1,0.1c0,0,0.1,0,0.2-0.1h0.1c0.1-0.1,0.2-0.2,0.5-0.2c0,0,0.2-0.1,0.4-0.1h0.1c0.1,0,0.1,0,0.2,0
		c0.1,0,0.1,0,0.2,0h0.1c0,0,0.1,0,0.1-0.1h0.1c0.1,0,0.1,0,0.1,0s0-0.1,0.1-0.1s0.2,0,0.3,0c0.2,0,0.3,0,0.3-0.1c0,0,0,0,0-0.1
		c0,0,0,0,0-0.1c0.1,0,0.3,0,0.8,0c0.1-0.1,0.1-0.2,0-0.4c0-0.3,0-0.6-0.1-0.7c0.1,0,0.1-0.1,0-0.2c0-0.1,0-0.1,0-0.2s0-0.1,0-0.1
		s0,0,0-0.1v-0.1v-0.1c0-0.1,0-0.1,0-0.1c-0.2-0.1-0.2-0.3-0.1-0.5c0-0.1,0-0.3,0-0.6c0-0.3,0-0.4,0-0.6c0,0-0.1,0-0.1-0.1
		c0,0,0,0-0.1,0c0,0,0,0,0-0.1v-0.1c0.1,0,0.1-0.1,0.1-0.1c0-0.1,0-0.1-0.1-0.1c0-0.1,0-0.2,0-0.4c0-0.2,0-0.3,0-0.3
		c0-0.1,0-0.1,0-0.2s0-0.1,0-0.2s0-0.1,0-0.1c0-0.1,0-0.1,0-0.1s0-0.1,0-0.2s0-0.2,0-0.2s0,0-0.1,0c0-0.1,0-0.2,0-0.3
		c0-0.1,0-0.2,0-0.5s0-0.5,0-0.6v-0.1c0,0,0,0,0-0.1c0,0,0,0,0-0.1s0-0.1,0-0.1v-0.1c0-0.1,0-0.1,0-0.1s0,0,0.1-0.1
		c0,0,0.1,0,0.1-0.1c0,0-0.1-0.1-0.2-0.4c-0.2,0-0.2-0.2-0.1-0.5c0.1,0,0.1,0,0.1,0l0,0c0,0,0,0-0.1,0l0,0c0,0,0-0.1,0-0.2
		c0,0,0,0,0.1,0c0-0.1,0-0.2,0-0.3c0-0.2,0-0.3-0.1-0.4c0-0.1-0.1-0.2-0.2-0.2V63h0.1c0,0,0-0.1,0-0.2c0-0.1,0-0.3,0-0.4
		c0-0.2,0-0.3-0.1-0.3c0,0,0,0,0-0.1s0-0.1,0-0.1s0,0,0-0.1s0-0.1,0-0.1c0-0.1,0.1-0.1,0.1-0.1c0-0.1,0-0.2,0-0.2s-0.1-0.1-0.1-0.4
		v-0.1c0,0,0,0,0-0.1s0,0,0,0s0,0,0-0.1c0,0,0-0.1-0.1-0.1l-0.1-0.1v-0.1c0-0.1,0-0.1,0-0.1c0-0.1,0-0.2-0.1-0.3
		c0-0.1,0-0.2-0.1-0.3s-0.1-0.2-0.1-0.3c-0.1,0-0.1,0-0.1,0v0.1c0-0.1-0.1-0.1-0.3,0v-0.1v-0.1c-0.1,0-0.1,0-0.2,0v0.1v0.1h-0.1
		h-0.1h-0.1c-0.1,0-0.1,0-0.2,0c0,0,0,0-0.1,0c0,0,0,0-0.1,0C38,59.8,38,59.8,38,60c-0.1,0-0.1,0-0.1,0v-0.1c-0.1-0.1-0.1-0.1-0.2,0
		V60l0,0h-0.1h-0.1c-0.1,0-0.2,0-0.4,0s-0.3,0-0.4,0c-0.2,0-0.3,0-0.4,0c-0.1-0.1-0.2-0.1-0.2,0c-0.1,0-0.2,0-0.3,0s-0.2,0-0.2,0
		c-0.1,0-0.2,0-0.4,0s-0.3,0-0.4,0c0,0-0.1,0-0.1,0.1l0,0V60c0,0.1-0.1,0.1-0.1,0.1c-0.1,0-0.1-0.1-0.2-0.1h-0.1l-0.1-0.1l-0.1-0.1
		c-0.2,0.1-0.4,0-0.5-0.2c-0.1,0-0.1-0.1-0.2-0.2c-0.1-0.1-0.2-0.2-0.2-0.2c-0.1,0-0.2,0-0.2-0.1c-0.1-0.1-0.1-0.1-0.1-0.2
		c-0.2-0.2-0.3-0.3-0.4-0.4c0-0.1,0-0.2-0.1-0.3c0,0,0-0.1,0.1-0.2c0-0.2,0.2-0.4,0.4-0.7c0.1,0,0.2-0.1,0.2-0.2h0.1h0.1
		c0,0,0.1,0,0.1-0.1l0.1-0.1c0,0,0.1,0,0.2,0c0.1,0,0.2,0,0.3,0l0.1-0.1l0.1-0.1c0.1,0,0.1,0,0.2,0.1c0.1,0.1,0.2,0.1,0.2,0.1h0.1
		c0.1,0,0.1,0,0.1,0c0.1,0,0.3,0,0.4,0c0.2,0,0.4,0,0.5,0s0.2,0,0.3-0.1c0.2,0.1,0.3,0.1,0.4,0h0.1h0.1h0.1c0,0,0,0,0-0.1
		c0.1,0,0.2,0,0.4,0s0.3,0,0.3-0.1c0.2,0.1,0.3,0.1,0.5,0c0,0,0,0,0-0.1c0,0,0.1,0,0.1-0.1c0.1,0,0.3,0,0.5,0s0.3,0,0.5,0
		c0.1,0,0.2-0.1,0.2-0.2c0.1,0,0.1,0,0.2,0.1h0.1c0.6,0,1,0,1.2-0.1c0.1,0,0.1,0,0.2,0c0,0,0,0,0.1,0c0,0,0,0,0.1,0
		c0.1-0.1,0.2-0.1,0.4-0.1s0.3,0,0.4,0C42,56,42,56,42,56h0.3h0.1c0.1,0,0.1,0,0.1,0c0.1,0,0.1,0,0.2,0c0.3,0,0.5,0,0.5-0.1l0.2,0.1
		c0.2-0.2,0.4-0.2,0.5,0c0,0,0.1,0,0.3,0c0.1,0,0.2,0,0.3,0h0.1h0.1c0.1,0,0.1,0,0.1,0c0.1,0,0.2,0,0.3,0c0.2,0,0.3,0,0.4,0
		C45.7,56.3,45.8,56.3,45.8,56.3z"/>
	<path fill="#54813B" d="M64.7,54.1c0,0,0.1,0,0.2,0c0,0.1,0,0.1,0,0.2c0.1,0,0.1,0,0.2,0s0.1,0,0.1,0v0.1h0.1h0.1
		c0.1,0,0.1,0,0.1,0s0.1,0,0.1,0.1c0,0,0,0,0.1,0.1c0,0,0,0,0.1,0v0.1h0.1c0.2-0.1,0.3-0.1,0.4,0l0.1,0.2c0.2,0,0.3,0.1,0.3,0.1
		c0.2,0,0.3,0,0.3,0c0.1,0.2,0.2,0.3,0.2,0.3s0,0.1,0,0.2v0.1c0,0.1,0,0.1,0,0.1s0,0.1,0.1,0.1l0.1,0.1c0,0-0.1,0-0.1,0.1
		c0,0-0.1,0-0.1,0.1c0,0,0,0,0,0.1s0,0.1,0,0.1s0,0,0,0.1v0.1v0.1v0.1c0,0.1,0,0.1,0.1,0.2c0.1,0.1,0.1,0.1,0.1,0.1s0,0-0.1,0h-0.1
		c0,0,0,0.1,0,0.2c0,0,0,0,0.1,0c0,0,0,0,0.1,0c0,0.1,0,0.1-0.1,0.1l0,0c0,0.1,0,0.2,0,0.3v0.1c0,0.1,0,0.2,0,0.3s0,0.2,0.1,0.2
		c0,0,0,0,0,0.1c0,0,0,0,0,0.1s0,0.2,0,0.3c0,0.2,0,0.3,0,0.3c0,0.1,0,0.1,0,0.1v0.1c0,0.1,0,0.1,0,0.2c0,0.1,0,0.2,0,0.2l0.1,0.1
		c0,0.1,0,0.1-0.1,0.1c-0.1,0.1-0.1,0.2,0,0.3c0,0,0,0.1,0,0.2c0,0.1,0,0.2,0,0.2c0.1,0.2,0.1,0.3,0.1,0.4V61v0.1v0.1
		c0,0.1,0,0.1,0,0.1c0,0.1,0,0.1,0,0.2c0,0,0,0,0.1,0h0.1l0,0l0,0c0,0,0,0-0.1,0v0.1v0.1h0.1c0.1,0.1,0,0.2-0.1,0.3c0,0,0,0.1,0,0.3
		s0,0.3,0.1,0.3c-0.1,0.1-0.1,0.1-0.1,0.2c0,0.1,0.1,0.1,0.2,0.1c0,0.1,0,0.1,0,0.2h-0.1c0,0.5,0.1,0.8,0.1,0.9v0.1
		c0,0.1,0,0.1,0,0.2v0.1l0.1,0.1c0,0.1,0,0.2,0,0.4c0,0.2,0,0.3,0,0.4H68c0,0.1,0,0.2,0,0.2c0,0.1,0,0.2,0,0.4s0,0.3,0,0.3v0.6
		c0,0.2,0,0.3,0.1,0.3v0.1c0,0-0.1,0-0.1,0.1l0.1,0.1c0,0,0,0.1-0.1,0.1c0.1,0.1,0.1,0.1,0.1,0.2c-0.1,0-0.2,0-0.2,0.1
		s0,0.1,0.1,0.1c0,0.1,0,0.2,0,0.3c0,0.3,0.1,0.4,0.1,0.4c0,0.5,0.1,0.8,0.2,0.9c0,0.4,0,0.5,0,0.6v0.1l0.1,0.1c0,0,0,0.1,0,0.2
		s0,0.2,0,0.2s0,0.1,0.1,0.1s0.1,0.1,0.1,0.1V71l0,0l0,0c-0.1,0.2,0,0.4,0.1,0.4c0,0.1,0,0.3,0.1,0.4c0.1,0.2,0.1,0.3,0.1,0.4
		c0.1,0.2,0.2,0.3,0.1,0.3c0,0.1,0,0.1,0.1,0.2s0.1,0.1,0.1,0.2s0,0.2,0,0.3s0,0.2,0,0.3l0.1,0.1v0.1l-0.1,0.1
		c-0.1,0.1-0.2,0.3-0.2,0.4c0,0-0.1,0-0.2,0.1c-0.1,0-0.1,0-0.2,0c0,0,0,0.1-0.1,0.1c-0.1,0.1-0.1,0.1-0.1,0.2
		c-0.1,0.1-0.2,0.1-0.2,0.2c-0.1,0-0.2,0-0.2-0.1c-0.1,0-0.1,0.1-0.1,0.2c-0.2,0-0.3,0-0.3,0c-0.1-0.1-0.1-0.1-0.2-0.1
		s-0.1,0-0.2,0.1c-0.1,0-0.1,0.1-0.1,0.1l0,0v-0.1c0,0,0-0.1-0.1-0.1s-0.1-0.1-0.1-0.1c-0.1,0-0.1-0.1-0.2-0.2s-0.1-0.2-0.2-0.2
		l-0.1-0.1c-0.1,0-0.1-0.1-0.1-0.1c-0.1,0-0.1,0-0.1,0s0,0-0.1,0c0-0.2-0.1-0.3-0.1-0.3h-0.1h-0.1c0-0.1-0.1-0.2-0.2-0.2
		c-0.1-0.1-0.1-0.1-0.2-0.1c0,0,0-0.1-0.1-0.1c-0.1-0.1-0.1-0.1-0.1-0.1c-0.1,0-0.2-0.1-0.2-0.2C64.9,73,64.8,73,64.7,73
		c0-0.1,0-0.1-0.1-0.2c-0.1,0-0.1-0.1-0.1-0.1c0,0.1-0.1,0.1-0.1,0.1c-0.1,0-0.1-0.1-0.1-0.2h-0.1c-0.1-0.1-0.4-0.3-0.7-0.4
		c-0.1-0.1-0.2-0.2-0.4-0.3c-0.1,0-0.2-0.1-0.2-0.1h-0.1h-0.1V72c-0.1-0.1-0.2-0.2-0.5-0.4c-0.2-0.1-0.4-0.3-0.5-0.3h-0.1h-0.1
		c0,0,0,0,0-0.1c-0.3-0.2-0.4-0.3-0.5-0.3c0,0,0-0.1-0.1-0.1c-0.1-0.1-0.1-0.1-0.2-0.1c-0.1,0.1-0.1,0.1-0.1,0v-0.1l-0.1-0.1
		c-0.1,0-0.1-0.1-0.1-0.1h-0.1h-0.1c0-0.1-0.1-0.2-0.2-0.2h-0.1l0,0c0-0.1-0.1-0.1-0.1-0.1s-0.1,0-0.1,0.1h-0.1v-0.1
		c0-0.1,0-0.1,0-0.1s0,0,0-0.1s-0.1,0-0.1-0.1s-0.1-0.1-0.2-0.2s-0.2-0.1-0.3-0.1c-0.1-0.1-0.2-0.2-0.4-0.2V69
		c-0.2-0.2-0.4-0.4-0.4-0.4c-0.1,0-0.2-0.1-0.3-0.2c0,0,0-0.1-0.1-0.2c0,0,0,0-0.1,0c0,0,0,0-0.1,0v-0.1c-0.1,0-0.2-0.1-0.3-0.2
		s-0.2-0.2-0.3-0.2c0,0,0,0.2,0,0.4v0.4c0,0.1-0.1,0.1-0.1,0.2c-0.1,0.2-0.1,0.3,0,0.4H57c0,0,0,0,0,0.1c-0.1,0-0.2,0.1-0.2,0.1v0.1
		c0,0.1,0,0.1,0,0.1v0.1c0,0.1,0,0.1-0.1,0.1c0,0.1,0,0.1,0,0.2s0,0.2,0,0.2s0,0.1,0,0.2s0,0.1,0,0.2s0,0.1,0,0.2c0,0,0,0.1,0,0.2
		s0,0.2,0,0.3c-0.1,0.1-0.1,0.1-0.1,0.1c0,0.1,0.1,0.1,0.2,0.2v0.1h-0.1c-0.1,0.1,0,0.2,0,0.3c0,0.1,0,0.2,0,0.4c0,0.2,0,0.3,0,0.4
		s0,0.2,0,0.2c0,0.1,0,0.1,0,0.2s0,0.1,0,0.2c-0.1,0.2-0.1,0.2,0,0.2h0.1c0,0.1,0,0.1,0,0.1s0,0,0,0.1v0.1c0,0,0,0.1-0.1,0.1
		c0,0,0,0.1,0.1,0.2V75c0,0,0,0.2,0,0.4v0.1c0,0,0,0.1,0.1,0.1c0.1,0.1,0.1,0.1,0,0.2l0.3,0.2c0,0.1,0,0.1-0.1,0.2
		C57,76.3,57,76.4,57,76.4s0,0.1,0.1,0.1v0.1c0,0,0,0-0.1,0c0,0,0,0-0.1,0.1c0,0.1,0,0.1-0.1,0.1c-0.1-0.2-0.2-0.3-0.3-0.2v0.2
		c0,0,0,0-0.1,0.1c-0.1,0-0.1,0-0.1,0s0,0-0.1,0c-0.1,0.1-0.1,0.1-0.2,0c-0.4,0.1-0.7,0.1-0.9,0L55,76.8l-0.1-0.1
		c-0.1,0-0.1,0-0.1,0s-0.1-0.1-0.2-0.2c-0.1-0.1-0.2-0.2-0.2-0.3c0,0-0.1-0.1-0.4-0.3c0-0.1,0-0.1,0-0.2v-0.1v-0.2v-0.1v-0.1
		c0-0.1-0.1-0.1-0.1-0.1h-0.1l0.1-0.1c0.1-0.1,0.1-0.3,0.1-0.6v-0.1c0-0.1,0-0.1,0-0.2s0-0.1,0-0.2s0-0.1,0-0.1l-0.1-0.1
		c0-0.2,0-0.3,0-0.4s0-0.1,0-0.3s0-0.2,0-0.3v-0.1c0,0,0,0,0.1,0c0,0,0-0.1-0.1-0.2c0-0.1,0-0.2,0-0.2s0,0,0-0.1c0,0,0,0-0.1-0.1
		s0-0.1,0-0.1c0-0.1,0-0.1,0-0.1s0,0,0-0.1c0,0,0,0,0-0.1c0,0,0,0,0.1,0c0.1-0.2,0-0.3-0.1-0.5h0.1c0-0.1,0-0.2,0-0.4
		c0-0.2,0-0.4,0.1-0.5c-0.1,0-0.1-0.1-0.1-0.2s0-0.2,0-0.2v-0.1c0-0.1,0-0.1,0-0.1c0-0.1,0-0.1,0-0.1c0-0.1,0-0.2,0-0.4
		c-0.1-0.2,0-0.3,0-0.4l-0.1-0.1v-0.1c0,0,0-0.1,0.1-0.2c0.1-0.2,0.1-0.3,0-0.5c-0.1-0.1-0.1-0.1-0.1-0.2s0-0.1,0-0.2s0-0.1,0-0.2
		s0-0.2,0-0.3l-0.1-0.1c0-0.1,0-0.2,0-0.3c0.1-0.1,0.1-0.2,0.1-0.3c0,0-0.1-0.1-0.1-0.2c-0.1-0.1-0.1-0.2,0-0.3v-0.1v-0.1v-0.1
		c0-0.1,0-0.1,0-0.1s-0.1,0-0.1-0.1c0,0-0.1,0-0.1-0.1h0.1c0-0.1,0-0.1,0-0.2s0-0.2,0-0.2v-0.1c0-0.2-0.1-0.3-0.1-0.3h0.1v-0.1v-0.1
		V64c0-0.1,0-0.2,0-0.4s0-0.3-0.1-0.4c0.1-0.1,0.1-0.2-0.1-0.4c0,0,0,0,0-0.1s0,0,0-0.1l-0.1-0.1l-0.1-0.1c0-0.2,0-0.3-0.1-0.4
		c0-0.1,0-0.2,0-0.3s0-0.2,0-0.3c0.1-0.1,0.1-0.1,0.1-0.1c0-0.1,0-0.1,0-0.2c0,0,0,0,0-0.1s0-0.1,0-0.1c0.1-0.1,0.2-0.2,0.2-0.3
		c0.1-0.3,0.2-0.5,0.5-0.6c0.1-0.1,0.2-0.2,0.2-0.2s0.1-0.1,0.3-0.1c0,0,0.1,0,0.1-0.1c0.1-0.1,0.1-0.1,0.1-0.1h0.1h0.1
		c0,0,0.1,0,0.1-0.1H55c0,0.2,0.1,0.3,0.3,0.3s0.3,0,0.4,0l0,0c0,0,0,0,0,0.1c0.1,0,0.2,0,0.3,0.1s0.2,0.1,0.2,0.1v0.1
		c0.1,0,0.2,0.2,0.3,0.4c0,0.1,0.1,0.2,0.1,0.3c0.1,0,0.1,0,0.1,0s0,0,0,0.1s-0.1,0-0.1,0.1c0,0.2,0.1,0.3,0.2,0.4v0.1v0.1
		c0,0,0,0.1,0.1,0.1l0.1,0.1c0,0.1,0,0.1,0,0.1s0,0,0.1,0.1v0.1v0.1l0.1,0.1l0.1,0.1l0,0v0.1h0.1c0,0.1,0,0.1,0,0.2
		c0,0.1,0.1,0.2,0.2,0.2c0,0.1,0.1,0.3,0.3,0.5c0,0.1,0.1,0.3,0.3,0.4c0,0.1,0,0.1,0,0.2c0.1,0.1,0.3,0.2,0.4,0.4
		c0.1,0.1,0.2,0.2,0.3,0.3c0.1,0.2,0.2,0.3,0.3,0.3c0.1,0.2,0.3,0.4,0.7,0.7v0.1c0,0.1,0.1,0.1,0.2,0.2c0.1,0.1,0.2,0.1,0.2,0.2
		c0.1,0,0.1,0,0.2,0c0,0,0,0,0,0.1c0,0,0,0,0,0.1s0.1,0.1,0.2,0.1c0.1,0.2,0.3,0.3,0.4,0.3c0.1,0.1,0.1,0.2,0.2,0.2
		c0.3,0.4,0.6,0.6,0.7,0.6c0,0,0,0,0,0.1c0,0,0.1,0,0.1,0.1l0,0l0,0c0.1,0.1,0.1,0.1,0.3,0.2c0.1,0.1,0.2,0.2,0.3,0.2s0.1,0,0.2,0.1
		c0.1,0.1,0.1,0.1,0.2,0.1l0,0c0,0,0,0,0.1,0s0,0,0.1,0.1c0,0,0,0.1,0.1,0.1l0,0c0,0,0,0,0.1,0c0,0,0.1,0,0.2,0.1
		c0.1,0,0.1,0,0.2,0.1c0,0.1,0.1,0.1,0.1,0.1s0,0,0.1,0c0,0,0,0,0.1,0c0,0.1,0.1,0.1,0.1,0.2c0,0,0,0,0.1,0c0,0,0,0,0.1,0
		c0.1,0.1,0.1,0.2,0.3,0.2c0.1,0.1,0.2,0.1,0.3,0.2c0.1,0,0.1,0,0.1,0s0,0.1,0.1,0.1c0.1,0.1,0.1,0.1,0.1,0.1s0.1,0.1,0.2,0.2
		c0.1,0,0.1-0.1,0.1-0.2s-0.1-0.2-0.1-0.2c0.1-0.1,0.1-0.2,0-0.3c0-0.1,0-0.1,0-0.2s0-0.2,0-0.2l-0.1-0.1c-0.1-0.1-0.1-0.2,0-0.3
		c-0.1-0.2,0-0.3,0.1-0.4c0,0,0-0.1,0-0.2s0-0.2,0-0.2v-0.1c0-0.1,0-0.1,0-0.1c0-0.1,0-0.1,0-0.2s0-0.2,0-0.2
		c-0.1-0.1-0.1-0.2,0-0.3c0,0-0.1,0-0.1-0.1c0,0,0,0,0-0.1c0.1-0.1,0.1-0.2,0.1-0.2h-0.1h-0.1c-0.2-0.1-0.1-0.3,0.2-0.4
		c0,0,0-0.2,0-0.4c0,0,0,0-0.1,0c0,0,0,0.1-0.1,0.1c0,0,0-0.1-0.1-0.2c0-0.1,0-0.2-0.1-0.2c0,0,0-0.1,0-0.3s0-0.2,0-0.2l0,0
		c0,0,0,0,0.1,0s0.1,0,0.1-0.1s0-0.1,0-0.1s-0.1,0-0.1,0.1l-0.1,0.1c0,0,0-0.1,0-0.2c0.1,0,0.2-0.1,0.2-0.1c0.1-0.1,0-0.2-0.1-0.3
		c0,0,0,0,0-0.1c0,0,0,0,0-0.1C65.1,64.1,65,64,65,63.8c0,0,0-0.1,0.1-0.1l0.1-0.1v-0.1c0-0.1,0-0.3,0.1-0.4c0,0,0-0.1,0-0.2
		s0-0.1,0-0.2l-0.1-0.1c0-0.1-0.1-0.1-0.1-0.1c0-0.2,0-0.3,0-0.3c-0.1,0-0.1,0-0.1,0v-0.1L64.9,62c0.1,0,0.1,0,0.2,0v-0.3v-0.1l0,0
		v-0.1c0-0.1,0-0.1,0-0.1s0,0,0-0.1s0-0.1,0-0.1v-0.1c0-0.1,0-0.1,0-0.1s0-0.1,0.1-0.1c0-0.1-0.1-0.1-0.1-0.1
		c-0.1,0-0.1-0.1-0.1-0.1s0-0.1,0.1-0.1c0.1-0.1,0.1-0.1,0.1-0.1c-0.1-0.2-0.1-0.3,0-0.4c0,0,0-0.1,0-0.2c0-0.1-0.1-0.1-0.2-0.2
		c-0.2-0.1-0.2-0.3-0.2-0.4h0.1H65c0-0.1,0-0.1-0.1-0.1c0,0,0-0.1,0.1-0.2c-0.1-0.1-0.1-0.2-0.2-0.2c0,0,0,0-0.1,0c0,0,0,0-0.1,0
		s-0.1-0.1,0-0.2c0-0.1,0-0.1,0-0.1s-0.1,0-0.1-0.1s0,0,0-0.1c-0.1-0.1-0.1-0.1,0-0.3c0.1-0.1,0.1-0.2,0.1-0.2s-0.1-0.1-0.2-0.1
		c0,0,0-0.1,0.1-0.2c0-0.3,0-0.4,0-0.5s0.1-0.1,0.1-0.1v-0.1v-0.1c0,0,0,0,0-0.1s0,0,0-0.1s0-0.1,0-0.2c-0.1-0.2-0.1-0.3-0.2-0.4
		c0-0.1,0-0.2,0-0.4s0-0.4,0-0.4s0,0,0.1,0c0,0,0,0,0.1,0c0.1-0.1,0.1-0.2,0.2-0.2c0-0.1,0-0.2,0.2-0.4
		C64.7,54.1,64.7,54.1,64.7,54.1z M64.9,54.1c0,0.1,0,0.1,0,0.2c0.1,0,0.1,0,0.2,0s0.1,0,0.1,0v0.1h0.1h0.1c0.1,0,0.1,0,0.1,0
		s0.1,0,0.1,0.1c0,0,0,0,0.1,0.1c0,0,0,0,0.1,0v0.1h0.1c0.2-0.1,0.3-0.1,0.4,0l0.1,0.2c0.2,0,0.3,0.1,0.3,0.1c0.2,0,0.3,0,0.3,0
		c0.1,0.2,0.2,0.3,0.2,0.3s0,0.1,0,0.2v0.1c0,0.1,0,0.1,0,0.1s0,0.1,0.1,0.1l0.1,0.1c0,0-0.1,0-0.1,0.1c0,0-0.1,0-0.1,0.1
		c0,0,0,0,0,0.1s0,0.1,0,0.1s0,0,0,0.1v0.1c0,0,0,0.1,0,0.2c0,0.1,0,0.1,0.1,0.2c0.1,0.1,0.1,0.1,0.1,0.1s0,0-0.1,0h-0.1
		c0,0,0,0.1,0,0.2c0,0,0,0,0.1,0c0,0,0,0,0.1,0c0,0.1,0,0.1-0.1,0.1l0,0c0,0.1,0,0.2,0,0.3v0.1c0,0.1,0,0.2,0,0.3s0,0.2,0.1,0.2
		c0,0,0,0,0,0.1c0,0,0,0,0,0.1s0,0.2,0,0.3c0,0.2,0,0.3,0,0.3v0.1v0.1c0,0.1,0,0.1,0,0.2c0,0.1,0,0.2,0,0.2s0,0.1,0.1,0.1v0.1
		c0,0,0,0-0.1,0c-0.1,0.1-0.1,0.2,0,0.3c0,0,0,0.1,0,0.2c0,0.1,0,0.2,0,0.2c0.1,0.2,0.1,0.3,0.1,0.4V61v0.1v0.1c0,0.1,0,0.1,0,0.1
		c0,0.1,0,0.1,0,0.2c0,0,0,0,0.1,0h0.1l0,0l0,0c0,0,0,0-0.1,0v0.1v0.1h0.1c0.1,0.1,0,0.2-0.1,0.3c0,0,0,0.1,0,0.3s0,0.3,0.1,0.3
		c-0.1,0.1-0.1,0.1-0.1,0.2c0,0.1,0.1,0.1,0.2,0.1c0,0.1,0,0.1,0,0.2h-0.1c0,0.5,0.1,0.8,0.1,0.9v0.1c0,0.1,0,0.1,0,0.2v0.1l0.1,0.1
		c0,0.1,0,0.2,0,0.4c0,0.2,0,0.3,0,0.4H68c0,0.1,0,0.2,0,0.2c0,0.1,0,0.2,0,0.4s0,0.3,0,0.3v0.6c0,0.2,0,0.3,0.1,0.3v0.1
		c0,0-0.1,0-0.1,0.1l0.1,0.1c0,0,0,0.1-0.1,0.1c0.1,0.1,0.1,0.1,0.1,0.2c-0.1,0-0.2,0-0.2,0.1s0,0.1,0.1,0.1c0,0.1,0,0.2,0,0.3
		c0,0.3,0.1,0.4,0.1,0.4c0,0.5,0.1,0.8,0.2,0.9c0,0.4,0,0.5,0,0.6v0.1l0.1,0.1c0,0,0,0.1,0,0.2s0,0.2,0,0.2s0,0.1,0.1,0.1
		s0.1,0.1,0.1,0.1V71l0,0l0,0c-0.1,0.2,0,0.4,0.1,0.4c0,0.1,0,0.3,0.1,0.4c0.1,0.2,0.1,0.3,0.1,0.4c0.1,0.2,0.2,0.3,0.1,0.3
		c0,0.1,0,0.1,0.1,0.2s0.1,0.1,0.1,0.2s0,0.2,0,0.3s0,0.2,0,0.3l0.1,0.1v0.1l-0.1,0.1c-0.1,0.1-0.2,0.3-0.2,0.4c0,0-0.1,0-0.2,0.1
		c-0.1,0-0.1,0-0.2,0c0,0,0,0.1-0.1,0.1c-0.1,0.1-0.1,0.1-0.1,0.2c-0.1,0.1-0.2,0.1-0.2,0.2c-0.1,0-0.2,0-0.2-0.1
		c-0.1,0-0.1,0.1-0.1,0.2c-0.2,0-0.3,0-0.3,0c-0.1-0.1-0.1-0.1-0.2-0.1s-0.1,0-0.2,0.1c-0.1,0-0.1,0.1-0.1,0.1l0,0v-0.1
		c0,0,0-0.1-0.1-0.1s-0.1-0.1-0.1-0.1c-0.1,0-0.1-0.1-0.2-0.2s-0.1-0.2-0.2-0.2l-0.1-0.1c-0.1,0-0.1-0.1-0.1-0.1c-0.1,0-0.1,0-0.1,0
		s0,0-0.1,0c0-0.2-0.1-0.3-0.1-0.3h-0.1h-0.1c0-0.1-0.1-0.2-0.2-0.2c-0.1-0.1-0.1-0.1-0.2-0.1c0,0,0-0.1-0.1-0.1
		c-0.1-0.1-0.1-0.1-0.1-0.1c-0.1,0-0.2-0.1-0.2-0.2C64.9,73,64.8,73,64.7,73c0-0.1,0-0.1-0.1-0.2s-0.1-0.1-0.1-0.1
		c0,0.1-0.1,0.1-0.1,0.1c-0.1,0-0.1-0.1-0.1-0.2h-0.1c-0.1-0.1-0.4-0.3-0.7-0.4c-0.1-0.1-0.2-0.2-0.4-0.3c-0.1,0-0.2-0.1-0.2-0.1
		h-0.1h-0.1V72c-0.1-0.1-0.2-0.2-0.5-0.4c-0.2-0.1-0.4-0.3-0.5-0.3h-0.1h-0.1c0,0,0,0,0-0.1c-0.3-0.2-0.4-0.3-0.5-0.3
		c0,0,0-0.1-0.1-0.1c-0.1-0.1-0.1-0.1-0.2-0.1c-0.1,0.1-0.1,0.1-0.1,0v-0.1l-0.1-0.1c-0.1,0-0.1-0.1-0.1-0.1h-0.1h-0.1
		c0-0.1-0.1-0.2-0.2-0.2c-0.1,0-0.1,0-0.1,0s0,0,0-0.1c0,0,0-0.1-0.1-0.1c0,0-0.1,0-0.1,0.1h-0.1V70c0-0.1,0-0.1,0-0.1s0,0,0-0.1
		s-0.1,0-0.1-0.1s-0.1-0.1-0.2-0.2s-0.2-0.1-0.3-0.1c-0.1-0.1-0.2-0.2-0.4-0.2V69c-0.2-0.2-0.4-0.4-0.4-0.4c-0.1,0-0.2-0.1-0.3-0.2
		c0,0,0-0.1-0.1-0.2c0,0,0,0-0.1,0c0,0,0,0-0.1,0v-0.1c-0.1,0-0.2-0.1-0.3-0.2s-0.2-0.2-0.3-0.2c0,0,0,0.2,0,0.4v0.4
		c0,0.1-0.1,0.1-0.1,0.2c-0.1,0.2-0.1,0.3,0,0.4H57c0,0,0,0,0,0.1c-0.1,0-0.2,0.1-0.2,0.1v0.1c0,0.1,0,0.1,0,0.1v0.1
		c0,0.1,0,0.1-0.1,0.1c0,0.1,0,0.1,0,0.2s0,0.2,0,0.2s0,0.1,0,0.2s0,0.1,0,0.2s0,0.1,0,0.2c0,0,0,0.1,0,0.2s0,0.2,0,0.3
		c-0.1,0.1-0.1,0.1-0.1,0.1c0,0.1,0.1,0.1,0.2,0.2v0.1h-0.1c-0.1,0.1,0,0.2,0,0.3c0,0.1,0,0.2,0,0.4c0,0.2,0,0.3,0,0.4s0,0.2,0,0.2
		c0,0.1,0,0.1,0,0.2s0,0.1,0,0.2c-0.1,0.2-0.1,0.2,0,0.2h0.1c0,0.1,0,0.1-0.1,0.1c0,0,0,0,0,0.1v0.1c0,0,0,0.1-0.1,0.1
		c0,0,0,0.1,0.1,0.2V75c0,0,0,0.2,0,0.4v0.1c0,0,0,0.1,0.1,0.1c0.1,0.1,0.1,0.1,0,0.2l0.4,0.2c0,0.1,0,0.1-0.1,0.2
		C57,76.3,57,76.4,57,76.4s0,0.1,0.1,0.1v0.1c0,0,0,0-0.1,0c0,0,0,0-0.1,0.1c0,0.1,0,0.1-0.1,0.1c-0.1-0.2-0.2-0.3-0.3-0.2v0.2
		c0,0,0,0-0.1,0.1c-0.1,0-0.1,0-0.1,0s0,0-0.1,0c-0.1,0.1-0.1,0.1-0.2,0c-0.4,0.1-0.7,0.1-0.9,0L55,76.8l-0.1-0.1
		c-0.1,0-0.1,0-0.1,0s-0.1-0.1-0.2-0.2c-0.1-0.1-0.2-0.2-0.2-0.3c0,0-0.1-0.1-0.4-0.3c0-0.1,0-0.1,0-0.2v-0.1v-0.2v-0.1v-0.1
		c0-0.1-0.1-0.1-0.1-0.1h-0.1l0.1-0.1c0.1-0.1,0.1-0.3,0.1-0.6v-0.1c0-0.1,0-0.1,0-0.2s0-0.1,0-0.2v-0.1l-0.1-0.1c0-0.2,0-0.3,0-0.4
		s0-0.1,0-0.3s0-0.2,0-0.3v-0.1c0,0,0,0,0.1,0c0,0,0-0.1-0.1-0.2c0-0.1,0-0.2,0-0.2s0,0,0-0.1c0,0,0,0-0.1-0.1s0-0.1,0-0.1
		c0-0.1,0-0.1,0-0.1s0,0,0-0.1c0,0,0,0,0-0.1c0,0,0,0,0.1,0c0.1-0.2,0-0.3-0.1-0.5h0.1c0-0.1,0-0.2,0-0.4c0-0.2,0-0.4,0.1-0.5
		c-0.1,0-0.1-0.1-0.1-0.2s0-0.2,0-0.2v-0.1c0-0.1,0-0.1,0-0.1c0-0.1,0-0.1,0-0.1c0-0.1,0-0.2,0-0.4c-0.1-0.2-0.1-0.3,0-0.4v-0.1
		v-0.1c0,0,0-0.1,0.1-0.2c0.1-0.2,0.1-0.3,0-0.5c-0.1-0.1-0.1-0.1-0.1-0.2V68c0-0.1,0-0.1,0-0.3c0-0.1,0-0.2,0-0.3l-0.1-0.1
		c0-0.1,0-0.2,0-0.3c0.1-0.1,0.1-0.2,0.1-0.3c0,0-0.1-0.1-0.1-0.2c-0.1-0.1-0.1-0.2,0-0.3v-0.1V66v-0.1c0-0.1,0-0.1,0-0.1
		s-0.1,0-0.1-0.1c0,0-0.1,0-0.1-0.1h0.1c0-0.1,0-0.1,0-0.2s0-0.2,0-0.2v-0.1c0-0.2-0.1-0.3-0.1-0.3h0.1v-0.1v-0.1v-0.1
		c0-0.1,0-0.2,0-0.4c0-0.2,0-0.3-0.1-0.4c0.1-0.1,0.1-0.2-0.1-0.4c0,0,0,0,0-0.1s0,0,0-0.1L53.4,63l-0.1-0.1c0-0.2,0-0.3-0.1-0.4
		c0-0.1,0-0.2,0-0.3s0-0.2,0-0.3v-0.1v-0.1c0-0.1,0-0.1,0-0.2c0,0,0,0,0-0.1s0-0.1,0-0.1c0.1-0.1,0.2-0.2,0.2-0.3
		c0.1-0.3,0.2-0.5,0.5-0.6c0.1-0.1,0.2-0.2,0.2-0.2s0.1-0.1,0.3-0.1c0,0,0.1,0,0.1-0.1c0.1-0.1,0.1-0.1,0.1-0.1h0.1h0.1
		c0,0,0.1,0,0.1-0.1H55c0,0.2,0.1,0.3,0.3,0.3s0.3,0,0.4,0l0,0c0,0,0,0,0,0.1c0.1,0,0.2,0.1,0.3,0.1c0.1,0.1,0.2,0.1,0.2,0.1v0.1
		c0.1,0,0.2,0.2,0.3,0.4c0,0.1,0.1,0.2,0.1,0.3c0.1,0,0.1,0,0.1,0s0,0,0,0.1s-0.1,0-0.1,0.1c0,0.2,0.1,0.3,0.2,0.4v0.1V62
		c0,0,0,0.1,0.1,0.1l0.1,0.1c0,0.1,0,0.1,0,0.1s0,0,0.1,0.1v0.1v0.1l0.1,0.1l0.1,0.1l0,0v0.1h0.1c0,0.1,0,0.1,0,0.2
		c0,0.1,0.1,0.2,0.2,0.2c0,0.1,0.1,0.3,0.3,0.5c0,0.1,0.1,0.3,0.3,0.4c0,0.1,0,0.1,0,0.2c0.1,0.1,0.3,0.2,0.4,0.4
		c0.1,0.1,0.2,0.2,0.3,0.3c0.1,0.2,0.2,0.3,0.3,0.3c0.1,0.2,0.3,0.4,0.7,0.7v0.1c0,0.1,0.1,0.1,0.2,0.2c0.1,0.1,0.2,0.1,0.2,0.2
		c0.1,0,0.1,0,0.2,0c0,0,0,0,0,0.1c0,0,0,0,0,0.1s0.1,0.1,0.2,0.1c0.1,0.2,0.3,0.3,0.4,0.3c0.1,0.1,0.1,0.2,0.2,0.2
		c0.3,0.4,0.6,0.6,0.7,0.6c0,0,0,0,0,0.1c0,0,0.1,0,0.1,0.1l0,0l0,0c0.1,0.1,0.1,0.1,0.3,0.2c0.1,0.1,0.2,0.2,0.3,0.2s0.1,0,0.2,0.1
		c0.1,0.1,0.1,0.1,0.2,0.1l0,0c0,0,0,0,0.1,0s0,0,0.1,0.1c0,0,0,0.1,0.1,0.1l0,0c0,0,0,0,0.1,0c0,0,0.1,0,0.2,0.1
		c0.1,0,0.1,0,0.2,0.1c0,0.1,0.1,0.1,0.1,0.1s0,0,0.1,0c0,0,0,0,0.1,0c0,0.1,0.1,0.1,0.1,0.2c0.1,0,0.1,0,0.1,0
		c0.1,0.1,0.1,0.2,0.3,0.2c0.1,0.1,0.2,0.1,0.3,0.2c0.1,0,0.1,0,0.1,0s0,0.1,0.1,0.1c0.1,0.1,0.1,0.1,0.1,0.1s0.1,0.1,0.2,0.2
		c0.1,0,0.1-0.1,0.1-0.2s-0.1-0.2-0.1-0.2c0.1-0.1,0.1-0.2,0-0.3c0-0.1,0-0.1,0-0.2s0-0.2,0-0.2l-0.1-0.1c-0.1-0.1-0.1-0.2,0-0.3
		c-0.1-0.2,0-0.3,0.1-0.4c-0.1,0-0.1-0.1,0-0.2c0-0.1,0-0.2,0-0.2v-0.1c0-0.1,0-0.1,0-0.1c0-0.1,0-0.1,0-0.2s0-0.2,0-0.2
		c-0.1-0.1-0.1-0.2,0-0.3c0,0-0.1,0-0.1-0.1c0,0,0,0,0-0.1c0.1-0.1,0.1-0.2,0.1-0.2h-0.1h-0.1c-0.2-0.1-0.1-0.3,0.2-0.4
		c0,0,0-0.2,0-0.4c0,0,0,0-0.1,0c0,0,0,0.1-0.1,0.1c0,0,0-0.1-0.1-0.2c0-0.1,0-0.2-0.1-0.2c0,0,0-0.1,0-0.3s0-0.2,0-0.2l0,0
		c0,0,0,0,0.1,0s0.1,0,0.1-0.1s0-0.1,0-0.1s-0.1,0-0.1,0.1l-0.1,0.1c0,0,0-0.1,0-0.2c0.1,0,0.2-0.1,0.2-0.1c0.1-0.1,0-0.2-0.1-0.3
		c0,0,0,0,0-0.1c0,0,0,0,0-0.1C65.1,64.1,65,64,65,63.8c0,0,0-0.1,0.1-0.1l0.1-0.1v-0.1c0-0.1,0-0.3,0.1-0.4c0,0,0-0.1,0-0.2
		s0-0.1,0-0.2l-0.1-0.1c0-0.1-0.1-0.1-0.1-0.1c0-0.2,0-0.3,0-0.3c-0.1,0-0.1,0-0.1,0v-0.1L64.9,62c0.1,0,0.1,0,0.2,0v-0.3v-0.1l0,0
		v-0.1c0-0.1,0-0.1,0-0.1s0,0,0-0.1s0-0.1,0-0.1v-0.1V61c0,0,0-0.1,0.1-0.2c0-0.1-0.1-0.1-0.1-0.1c-0.1,0-0.1-0.1-0.1-0.1
		s0-0.1,0.1-0.1c0.1-0.1,0.1-0.1,0.1-0.1c-0.1-0.2-0.1-0.3,0-0.4c0,0,0-0.1,0-0.2c0-0.1-0.1-0.1-0.2-0.2c-0.2-0.1-0.2-0.3-0.2-0.4
		h0.1H65c0-0.1,0-0.1-0.1-0.1c0,0,0-0.1,0.1-0.2c-0.1-0.1-0.1-0.2-0.2-0.2c0,0,0,0-0.1,0c0,0,0,0-0.1,0s-0.1-0.1,0-0.2
		c0-0.1,0-0.1,0-0.1s-0.1,0-0.1-0.1s0,0,0-0.1c-0.1-0.1-0.1-0.1,0-0.3c0.1-0.1,0.1-0.2,0.1-0.2s-0.1-0.1-0.2-0.1c0,0,0-0.1,0.1-0.2
		c0-0.3,0-0.4,0-0.5s0.1-0.1,0.1-0.1v-0.1v-0.1c0,0,0,0,0-0.1s0,0,0-0.1s0-0.1,0-0.2c-0.1-0.2-0.1-0.3-0.2-0.4c0-0.1,0-0.2,0-0.4
		s0-0.4,0-0.4s0,0,0.1,0c0,0,0,0,0.1,0c0.1-0.1,0.1-0.2,0.2-0.2c0-0.1,0-0.2,0.2-0.4c0-0.1,0-0.1,0-0.2C64.7,54,64.8,54,64.9,54.1z
		 M61.3,71C61.3,71,61.3,71.1,61.3,71L61.3,71C61.2,71,61.2,71,61.3,71L61.3,71z M61.2,71C61.3,71,61.3,71,61.2,71
		C61.3,71,61.3,71.1,61.2,71L61.2,71L61.2,71z M64.6,59.9C64.7,59.9,64.7,59.9,64.6,59.9C64.7,60,64.7,60,64.6,59.9
		C64.6,60,64.6,59.9,64.6,59.9z M64.6,60C64.6,60,64.6,59.9,64.6,60C64.7,59.9,64.7,59.9,64.6,60C64.7,60,64.7,60,64.6,60z
		 M64.7,59.5L64.7,59.5L64.7,59.5z M64.7,59.5L64.7,59.5L64.7,59.5z M64.8,59.1C64.8,59.1,64.8,59,64.8,59.1
		C64.8,59,64.8,59,64.8,59.1C64.7,59,64.7,59,64.8,59.1C64.7,59.1,64.7,59.1,64.8,59.1z M64.8,59C64.7,59,64.7,59,64.8,59
		C64.8,59.1,64.8,59.1,64.8,59L64.8,59L64.8,59z M64.8,62.2C64.8,62.3,64.8,62.3,64.8,62.2L64.8,62.2C64.7,62.2,64.7,62.2,64.8,62.2
		z M64.8,62.2C64.8,62.3,64.8,62.3,64.8,62.2L64.8,62.2C64.7,62.2,64.7,62.2,64.8,62.2z"/>
</g>
</svg>
